%TF.GenerationSoftware,KiCad,Pcbnew,8.99.0-946-gf00a1ab517*%
%TF.CreationDate,2024-06-06T17:05:11+07:00*%
%TF.ProjectId,Sebas_nuxros,53656261-735f-46e7-9578-726f732e6b69,rev?*%
%TF.SameCoordinates,Original*%
%TF.FileFunction,Legend,Top*%
%TF.FilePolarity,Positive*%
%FSLAX46Y46*%
G04 Gerber Fmt 4.6, Leading zero omitted, Abs format (unit mm)*
G04 Created by KiCad (PCBNEW 8.99.0-946-gf00a1ab517) date 2024-06-06 17:05:11*
%MOMM*%
%LPD*%
G01*
G04 APERTURE LIST*
%ADD10C,1.500000*%
%ADD11C,0.300000*%
%ADD12C,0.000000*%
G04 APERTURE END LIST*
D10*
X197936758Y-118065930D02*
X197936758Y-118065914D01*
X183730492Y-118080001D02*
X183730492Y-118052607D01*
X279889645Y-118080001D02*
X285310006Y-118080001D01*
X266296984Y-118080001D02*
X270577395Y-118080001D01*
X279602214Y-118059241D02*
X279889645Y-118080001D01*
X279320750Y-117997386D02*
X279602214Y-118059241D01*
X278684059Y-117669278D02*
X279320750Y-117997386D01*
X278196508Y-117144562D02*
X278684059Y-117669278D01*
X277736884Y-116561491D02*
X278196508Y-117144562D01*
X277164612Y-116088488D02*
X277736884Y-116561491D01*
X276328937Y-115688580D02*
X277164612Y-116088488D01*
X275419394Y-115512482D02*
X276328937Y-115688580D01*
X274496303Y-115591117D02*
X275419394Y-115512482D01*
X273622926Y-115900134D02*
X274496303Y-115591117D01*
X272866935Y-116435632D02*
X273622926Y-115900134D01*
X272377685Y-116992683D02*
X272866935Y-116435632D01*
X271897789Y-117582206D02*
X272377685Y-116992683D01*
X271146294Y-117997396D02*
X271897789Y-117582206D01*
X270577395Y-118080001D02*
X271146294Y-117997396D01*
X266009553Y-118059241D02*
X266296984Y-118080001D01*
X265728089Y-117997386D02*
X266009553Y-118059241D01*
X265091398Y-117669278D02*
X265728089Y-117997386D01*
X264603847Y-117144562D02*
X265091398Y-117669278D01*
X264144223Y-116561491D02*
X264603847Y-117144562D01*
X263571951Y-116088488D02*
X264144223Y-116561491D01*
X262736276Y-115688580D02*
X263571951Y-116088488D01*
X261826733Y-115512482D02*
X262736276Y-115688580D01*
X260903642Y-115591117D02*
X261826733Y-115512482D01*
X260030265Y-115900134D02*
X260903642Y-115591117D01*
X259274274Y-116435632D02*
X260030265Y-115900134D01*
X258785024Y-116992683D02*
X259274274Y-116435632D01*
X258305128Y-117582206D02*
X258785024Y-116992683D01*
X257553633Y-117997396D02*
X258305128Y-117582206D01*
X256984734Y-118080001D02*
X257553633Y-117997396D01*
X239817053Y-118059241D02*
X240104484Y-118080001D01*
X239535589Y-117997386D02*
X239817053Y-118059241D01*
X238898898Y-117669278D02*
X239535589Y-117997386D01*
X238411347Y-117144562D02*
X238898898Y-117669278D01*
X237951723Y-116561491D02*
X238411347Y-117144562D01*
X237379451Y-116088488D02*
X237951723Y-116561491D01*
X236543776Y-115688580D02*
X237379451Y-116088488D01*
X235634233Y-115512482D02*
X236543776Y-115688580D01*
X234711142Y-115591118D02*
X235634233Y-115512482D01*
X233837765Y-115900134D02*
X234711142Y-115591118D01*
X233081774Y-116435632D02*
X233837765Y-115900134D01*
X232592524Y-116992684D02*
X233081774Y-116435632D01*
X232112628Y-117582206D02*
X232592524Y-116992684D01*
X231361133Y-117997396D02*
X232112628Y-117582206D01*
X230792234Y-118080001D02*
X231361133Y-117997396D01*
X197919300Y-118063506D02*
X197936758Y-118065930D01*
X197491148Y-118011784D02*
X197919300Y-118063506D01*
X196954652Y-117809523D02*
X197491148Y-118011784D01*
X196497845Y-117463021D02*
X196954652Y-117809523D01*
X196226175Y-117128085D02*
X196497845Y-117463021D01*
X195868241Y-116661905D02*
X196226175Y-117128085D01*
X195284832Y-116140753D02*
X195868241Y-116661905D01*
X194781368Y-115837504D02*
X195284832Y-116140753D01*
X194230321Y-115633093D02*
X194781368Y-115837504D01*
X191887180Y-115491084D02*
X193439088Y-115499402D01*
X194230321Y-115633093D01*
X188289808Y-115491048D02*
X189859862Y-115484388D01*
X191434220Y-115496265D01*
X191887180Y-115491084D01*
X187898044Y-115513038D02*
X188289808Y-115491048D01*
X187511203Y-115578739D02*
X187898044Y-115513038D01*
X186599893Y-115932318D02*
X187511203Y-115578739D01*
X185815489Y-116515599D02*
X186599893Y-115932318D01*
X185326819Y-117128067D02*
X185815489Y-116515599D01*
X184954058Y-117565688D02*
X185326819Y-117128067D01*
X184202572Y-117980877D02*
X184954058Y-117565688D01*
X183730492Y-118052607D02*
X184202572Y-117980877D01*
X106092762Y-118090900D02*
X106189571Y-118080001D01*
X105664610Y-118039178D02*
X106092762Y-118090900D01*
X105128114Y-117836917D02*
X105664610Y-118039178D01*
X104671307Y-117490415D02*
X105128114Y-117836917D01*
X104399637Y-117155479D02*
X104671307Y-117490415D01*
X104041703Y-116689299D02*
X104399637Y-117155479D01*
X103458294Y-116168147D02*
X104041703Y-116689299D01*
X102954830Y-115864898D02*
X103458294Y-116168147D01*
X102403783Y-115660487D02*
X102954830Y-115864898D01*
X100060642Y-115518479D02*
X101612550Y-115526800D01*
X102403783Y-115660487D01*
X96463270Y-115518442D02*
X98033324Y-115511781D01*
X99607682Y-115523659D01*
X100060642Y-115518479D01*
X96071506Y-115540432D02*
X96463270Y-115518442D01*
X95684665Y-115606133D02*
X96071506Y-115540432D01*
X94773355Y-115959712D02*
X95684665Y-115606133D01*
X93988951Y-116542993D02*
X94773355Y-115959712D01*
X93500281Y-117155461D02*
X93988951Y-116542993D01*
X93127520Y-117593082D02*
X93500281Y-117155461D01*
X92376034Y-118008271D02*
X93127520Y-117593082D01*
X91903954Y-118080001D02*
X92376034Y-118008271D01*
X279711313Y-23893079D02*
X279892370Y-23880001D01*
X279323235Y-23962670D02*
X279711313Y-23893079D01*
X278801159Y-24203886D02*
X279323235Y-23962670D01*
X278470414Y-24480946D02*
X278801159Y-24203886D01*
X278198782Y-24816160D02*
X278470414Y-24480946D01*
X277905145Y-25195340D02*
X278198782Y-24816160D01*
X277667791Y-25465783D02*
X277905145Y-25195340D01*
X277373212Y-25737016D02*
X277667791Y-25465783D01*
X276846221Y-26061523D02*
X277373212Y-25737016D01*
X276265745Y-26294752D02*
X276846221Y-26061523D01*
X275912648Y-26363534D02*
X276265745Y-26294752D01*
X275605856Y-26429764D02*
X275912648Y-26363534D01*
X275151680Y-26429764D02*
X275605856Y-26429764D01*
X274864148Y-26429764D02*
X275151680Y-26429764D01*
X274528888Y-26370794D02*
X274864148Y-26429764D01*
X274256406Y-26311971D02*
X274528888Y-26370794D01*
X273962565Y-26214945D02*
X274256406Y-26311971D01*
X273623782Y-26061522D02*
X273962565Y-26214945D01*
X273303191Y-25873018D02*
X273623782Y-26061522D01*
X273064070Y-25695779D02*
X273303191Y-25873018D01*
X272867614Y-25525605D02*
X273064070Y-25695779D01*
X272688657Y-25338177D02*
X272867614Y-25525605D01*
X272420340Y-25032455D02*
X272688657Y-25338177D01*
X272328597Y-24902309D02*
X272420340Y-25032455D01*
X272185943Y-24699941D02*
X272328597Y-24902309D01*
X271999566Y-24480971D02*
X272185943Y-24699941D01*
X271668821Y-24203921D02*
X271999566Y-24480971D01*
X271416504Y-24064449D02*
X271668821Y-24203921D01*
X271146756Y-23962702D02*
X271416504Y-24064449D01*
X270865182Y-23900793D02*
X271146756Y-23962702D01*
X270577633Y-23880001D02*
X270865182Y-23900793D01*
X253718178Y-23955920D02*
X254263996Y-23880001D01*
X253213799Y-24177916D02*
X253718178Y-23955920D01*
X252889236Y-24433982D02*
X253213799Y-24177916D01*
X252502260Y-24894076D02*
X252889236Y-24433982D01*
X252127095Y-25314333D02*
X252502260Y-24894076D01*
X251360492Y-25853271D02*
X252127095Y-25314333D01*
X250481739Y-26178732D02*
X251360492Y-25853271D01*
X249735059Y-26259307D02*
X250481739Y-26178732D01*
X248807103Y-26128809D02*
X249735059Y-26259307D01*
X248109626Y-25853270D02*
X248807103Y-26128809D01*
X247486988Y-25435278D02*
X248109626Y-25853270D01*
X246967857Y-24894076D02*
X247486988Y-25435278D01*
X246580875Y-24433992D02*
X246967857Y-24894076D01*
X246368550Y-24258387D02*
X246580875Y-24433992D01*
X245881870Y-24002711D02*
X246368550Y-24258387D01*
X245206122Y-23880001D02*
X245881870Y-24002711D01*
X184013603Y-23900756D02*
X183725975Y-23880001D01*
X184565064Y-24064496D02*
X184013603Y-23900756D01*
X184817430Y-24204044D02*
X184565064Y-24064496D01*
X184932267Y-24291240D02*
X184817430Y-24204044D01*
X185148205Y-24481240D02*
X184932267Y-24291240D01*
X185337395Y-24700322D02*
X185148205Y-24481240D01*
X185419839Y-24816599D02*
X185337395Y-24700322D01*
X185533391Y-24976750D02*
X185419839Y-24816599D01*
X185646944Y-25136901D02*
X185533391Y-24976750D01*
X185777714Y-25283331D02*
X185646944Y-25136901D01*
X185908484Y-25429761D02*
X185777714Y-25283331D01*
X186054832Y-25560622D02*
X185908484Y-25429761D01*
X186201180Y-25691483D02*
X186054832Y-25560622D01*
X186382404Y-25820135D02*
X186201180Y-25691483D01*
X186521350Y-25918773D02*
X186382404Y-25820135D01*
X186693157Y-26013772D02*
X186521350Y-25918773D01*
X186864964Y-26108771D02*
X186693157Y-26013772D01*
X187046330Y-26183928D02*
X186864964Y-26108771D01*
X187274281Y-26265328D02*
X187046330Y-26183928D01*
X187442091Y-26313694D02*
X187274281Y-26265328D01*
X187665742Y-26378153D02*
X187442091Y-26313694D01*
X187798529Y-26400723D02*
X187665742Y-26378153D01*
X187854861Y-26410298D02*
X187798529Y-26400723D01*
X187992076Y-26433621D02*
X187854861Y-26410298D01*
X188188089Y-26444633D02*
X187992076Y-26433621D01*
X192584102Y-26455645D02*
X191074263Y-26481976D01*
X189563525Y-26470990D01*
X188188089Y-26444633D01*
X192976127Y-26433629D02*
X192584102Y-26455645D01*
X193363218Y-26367825D02*
X192976127Y-26433629D01*
X193551860Y-26313452D02*
X193363218Y-26367825D01*
X193740503Y-26259080D02*
X193551860Y-26313452D01*
X193921869Y-26183922D02*
X193740503Y-26259080D01*
X194103235Y-26108763D02*
X193921869Y-26183922D01*
X194275042Y-26013763D02*
X194103235Y-26108763D01*
X194446848Y-25918764D02*
X194275042Y-26013763D01*
X194606934Y-25805120D02*
X194446848Y-25918764D01*
X194767019Y-25691476D02*
X194606934Y-25805120D01*
X195059719Y-25429758D02*
X194767019Y-25691476D01*
X195321265Y-25136904D02*
X195059719Y-25429758D01*
X195548364Y-24816599D02*
X195321265Y-25136904D01*
X195718916Y-24584067D02*
X195548364Y-24816599D01*
X195921124Y-24378469D02*
X195718916Y-24584067D01*
X196150797Y-24204086D02*
X195921124Y-24378469D01*
X196276978Y-24134315D02*
X196150797Y-24204086D01*
X196403159Y-24064544D02*
X196276978Y-24134315D01*
X196538062Y-24013643D02*
X196403159Y-24064544D01*
X196813786Y-23931771D02*
X196538062Y-24013643D01*
X196954606Y-23900799D02*
X196813786Y-23931771D01*
X197242228Y-23880001D02*
X196954606Y-23900799D01*
X92971656Y-23900756D02*
X92684028Y-23880001D01*
X93523117Y-24064496D02*
X92971656Y-23900756D01*
X93775483Y-24204044D02*
X93523117Y-24064496D01*
X93890320Y-24291239D02*
X93775483Y-24204044D01*
X94106258Y-24481240D02*
X93890320Y-24291239D01*
X94295448Y-24700322D02*
X94106258Y-24481240D01*
X94377892Y-24816599D02*
X94295448Y-24700322D01*
X94491445Y-24976750D02*
X94377892Y-24816599D01*
X94604997Y-25136901D02*
X94491445Y-24976750D01*
X94735767Y-25283331D02*
X94604997Y-25136901D01*
X94866537Y-25429761D02*
X94735767Y-25283331D01*
X95012885Y-25560622D02*
X94866537Y-25429761D01*
X95159233Y-25691483D02*
X95012885Y-25560622D01*
X95340457Y-25820135D02*
X95159233Y-25691483D01*
X95479403Y-25918773D02*
X95340457Y-25820135D01*
X95651210Y-26013772D02*
X95479403Y-25918773D01*
X95823017Y-26108771D02*
X95651210Y-26013772D01*
X96004383Y-26183928D02*
X95823017Y-26108771D01*
X96232335Y-26265328D02*
X96004383Y-26183928D01*
X96400144Y-26313694D02*
X96232335Y-26265328D01*
X96623795Y-26378153D02*
X96400144Y-26313694D01*
X96756583Y-26400723D02*
X96623795Y-26378153D01*
X96812915Y-26410298D02*
X96756583Y-26400723D01*
X96950129Y-26433621D02*
X96812915Y-26410298D01*
X97146142Y-26444633D02*
X96950129Y-26433621D01*
X101542155Y-26455645D02*
X100032317Y-26481976D01*
X98521578Y-26470990D01*
X97146142Y-26444633D01*
X101934180Y-26433629D02*
X101542155Y-26455645D01*
X102321271Y-26367825D02*
X101934180Y-26433629D01*
X102509914Y-26313452D02*
X102321271Y-26367825D01*
X102698556Y-26259080D02*
X102509914Y-26313452D01*
X102879922Y-26183922D02*
X102698556Y-26259080D01*
X103061288Y-26108763D02*
X102879922Y-26183922D01*
X103233095Y-26013763D02*
X103061288Y-26108763D01*
X103404901Y-25918764D02*
X103233095Y-26013763D01*
X103564987Y-25805120D02*
X103404901Y-25918764D01*
X103725072Y-25691476D02*
X103564987Y-25805120D01*
X104017772Y-25429758D02*
X103725072Y-25691476D01*
X104279318Y-25136904D02*
X104017772Y-25429758D01*
X104506417Y-24816599D02*
X104279318Y-25136904D01*
X104676969Y-24584067D02*
X104506417Y-24816599D01*
X104879177Y-24378469D02*
X104676969Y-24584067D01*
X105108850Y-24204086D02*
X104879177Y-24378469D01*
X105235031Y-24134315D02*
X105108850Y-24204086D01*
X105361212Y-24064544D02*
X105235031Y-24134315D01*
X105496115Y-24013643D02*
X105361212Y-24064544D01*
X105771839Y-23931771D02*
X105496115Y-24013643D01*
X105912659Y-23900799D02*
X105771839Y-23931771D01*
X106200281Y-23880001D02*
X105912659Y-23900799D01*
X8340272Y-23900775D02*
X8030118Y-23880001D01*
X8621735Y-23962628D02*
X8340272Y-23900775D01*
X8891387Y-24064289D02*
X8621735Y-23962628D01*
X9143629Y-24203648D02*
X8891387Y-24064289D01*
X9373225Y-24377811D02*
X9143629Y-24203648D01*
X9575407Y-24583163D02*
X9373225Y-24377811D01*
X9745978Y-24815440D02*
X9575407Y-24583163D01*
X9960285Y-25119198D02*
X9745978Y-24815440D01*
X10342381Y-25524370D02*
X9960285Y-25119198D01*
X10702133Y-25794780D02*
X10342381Y-25524370D01*
X11043406Y-26047590D02*
X10702133Y-25794780D01*
X11613549Y-26271422D02*
X11043406Y-26047590D01*
X12153442Y-26408091D02*
X11613549Y-26271422D01*
X12455540Y-26420488D02*
X12153442Y-26408091D01*
X12708966Y-26447520D02*
X12455540Y-26420488D01*
X13264491Y-26408091D02*
X12708966Y-26447520D01*
X13670934Y-26315466D02*
X13264491Y-26408091D01*
X14150226Y-26136516D02*
X13670934Y-26315466D01*
X14432633Y-25965691D02*
X14150226Y-26136516D01*
X14789415Y-25760872D02*
X14432633Y-25965691D01*
X15212330Y-25398511D02*
X14789415Y-25760872D01*
X15564801Y-24967319D02*
X15212330Y-25398511D01*
X15811763Y-24660046D02*
X15564801Y-24967319D01*
X15943624Y-24480493D02*
X15811763Y-24660046D01*
X16400431Y-24133976D02*
X15943624Y-24480493D01*
X16735208Y-23976035D02*
X16400431Y-24133976D01*
X17077662Y-23900771D02*
X16735208Y-23976035D01*
X17342367Y-23880001D02*
X17077662Y-23900771D01*
X19032555Y-118059227D02*
X19342709Y-118080001D01*
X18751092Y-117997374D02*
X19032555Y-118059227D01*
X18481440Y-117895713D02*
X18751092Y-117997374D01*
X18229198Y-117756354D02*
X18481440Y-117895713D01*
X17999602Y-117582191D02*
X18229198Y-117756354D01*
X17797420Y-117376839D02*
X17999602Y-117582191D01*
X17626849Y-117144562D02*
X17797420Y-117376839D01*
X17412542Y-116840804D02*
X17626849Y-117144562D01*
X17030446Y-116435632D02*
X17412542Y-116840804D01*
X16670694Y-116165222D02*
X17030446Y-116435632D01*
X16329421Y-115912412D02*
X16670694Y-116165222D01*
X15759278Y-115688580D02*
X16329421Y-115912412D01*
X15219385Y-115551911D02*
X15759278Y-115688580D01*
X14917287Y-115539514D02*
X15219385Y-115551911D01*
X14663861Y-115512482D02*
X14917287Y-115539514D01*
X14108336Y-115551911D02*
X14663861Y-115512482D01*
X13701893Y-115644536D02*
X14108336Y-115551911D01*
X13222601Y-115823486D02*
X13701893Y-115644536D01*
X12940194Y-115994311D02*
X13222601Y-115823486D01*
X12583412Y-116199130D02*
X12940194Y-115994311D01*
X12160497Y-116561491D02*
X12583412Y-116199130D01*
X11808026Y-116992683D02*
X12160497Y-116561491D01*
X11561064Y-117299956D02*
X11808026Y-116992683D01*
X11429203Y-117479508D02*
X11561064Y-117299956D01*
X10972396Y-117826026D02*
X11429203Y-117479508D01*
X10637619Y-117983967D02*
X10972396Y-117826026D01*
X10295165Y-118059231D02*
X10637619Y-117983967D01*
X10030460Y-118080001D02*
X10295165Y-118059231D01*
X32625149Y-118059227D02*
X32935303Y-118080001D01*
X32343686Y-117997374D02*
X32625149Y-118059227D01*
X32074034Y-117895713D02*
X32343686Y-117997374D01*
X31821792Y-117756354D02*
X32074034Y-117895713D01*
X31592196Y-117582191D02*
X31821792Y-117756354D01*
X31390014Y-117376839D02*
X31592196Y-117582191D01*
X31219443Y-117144562D02*
X31390014Y-117376839D01*
X31005136Y-116840804D02*
X31219443Y-117144562D01*
X30623040Y-116435631D02*
X31005136Y-116840804D01*
X30263288Y-116165222D02*
X30623040Y-116435631D01*
X29922015Y-115912412D02*
X30263288Y-116165222D01*
X29351872Y-115688580D02*
X29922015Y-115912412D01*
X28811979Y-115551911D02*
X29351872Y-115688580D01*
X28509881Y-115539514D02*
X28811979Y-115551911D01*
X28256455Y-115512482D02*
X28509881Y-115539514D01*
X27700930Y-115551911D02*
X28256455Y-115512482D01*
X27294487Y-115644536D02*
X27700930Y-115551911D01*
X26815195Y-115823486D02*
X27294487Y-115644536D01*
X26532788Y-115994311D02*
X26815195Y-115823486D01*
X26176006Y-116199130D02*
X26532788Y-115994311D01*
X25753091Y-116561491D02*
X26176006Y-116199130D01*
X25400620Y-116992683D02*
X25753091Y-116561491D01*
X25153658Y-117299956D02*
X25400620Y-116992683D01*
X25021797Y-117479508D02*
X25153658Y-117299956D01*
X24564990Y-117826026D02*
X25021797Y-117479508D01*
X24230213Y-117983967D02*
X24564990Y-117826026D01*
X23887759Y-118059231D02*
X24230213Y-117983967D01*
X23623054Y-118080001D02*
X23887759Y-118059231D01*
X58817649Y-118059227D02*
X59127803Y-118080001D01*
X58536186Y-117997374D02*
X58817649Y-118059227D01*
X58266534Y-117895713D02*
X58536186Y-117997374D01*
X58014292Y-117756354D02*
X58266534Y-117895713D01*
X57784696Y-117582191D02*
X58014292Y-117756354D01*
X57582514Y-117376839D02*
X57784696Y-117582191D01*
X57411943Y-117144562D02*
X57582514Y-117376839D01*
X57197636Y-116840804D02*
X57411943Y-117144562D01*
X56815540Y-116435632D02*
X57197636Y-116840804D01*
X56455788Y-116165222D02*
X56815540Y-116435632D01*
X56114515Y-115912412D02*
X56455788Y-116165222D01*
X55544372Y-115688580D02*
X56114515Y-115912412D01*
X55004479Y-115551911D02*
X55544372Y-115688580D01*
X54702381Y-115539514D02*
X55004479Y-115551911D01*
X54448955Y-115512482D02*
X54702381Y-115539514D01*
X53893430Y-115551911D02*
X54448955Y-115512482D01*
X53486987Y-115644536D02*
X53893430Y-115551911D01*
X53007695Y-115823486D02*
X53486987Y-115644536D01*
X52725288Y-115994311D02*
X53007695Y-115823486D01*
X52368506Y-116199130D02*
X52725288Y-115994311D01*
X51945591Y-116561491D02*
X52368506Y-116199130D01*
X51593120Y-116992683D02*
X51945591Y-116561491D01*
X51346158Y-117299956D02*
X51593120Y-116992683D01*
X51214297Y-117479509D02*
X51346158Y-117299956D01*
X50757490Y-117826027D02*
X51214297Y-117479509D01*
X50422713Y-117983967D02*
X50757490Y-117826027D01*
X50080259Y-118059231D02*
X50422713Y-117983967D01*
X49815554Y-118080001D02*
X50080259Y-118059231D01*
X17342367Y-23880001D02*
X28247000Y-23880001D01*
X28247000Y-23880001D02*
X35655699Y-23880001D01*
X35655699Y-23880001D02*
X35931236Y-23899063D01*
X35931236Y-23899063D02*
X36201517Y-23955913D01*
X36201517Y-23955913D02*
X36461389Y-24049458D01*
X36461389Y-24049458D02*
X36705896Y-24177913D01*
X36705896Y-24177913D02*
X36930374Y-24338828D01*
X36930374Y-24338828D02*
X37130543Y-24529134D01*
X37130543Y-24529134D02*
X37302585Y-24745203D01*
X37302585Y-24745203D02*
X37532283Y-25042949D01*
X37532283Y-25042949D02*
X37792600Y-25314333D01*
X37792600Y-25314333D02*
X38080530Y-25556222D01*
X38080530Y-25556222D02*
X38392750Y-25765823D01*
X38392750Y-25765823D02*
X38725655Y-25940717D01*
X38725655Y-25940717D02*
X39075403Y-26078885D01*
X39075403Y-26078885D02*
X39437956Y-26178732D01*
X39437956Y-26178732D02*
X39809128Y-26239105D01*
X39809128Y-26239105D02*
X40184636Y-26259307D01*
X40184636Y-26259307D02*
X40560143Y-26239105D01*
X40560143Y-26239105D02*
X40931316Y-26178732D01*
X40931316Y-26178732D02*
X41293869Y-26078885D01*
X41293869Y-26078885D02*
X41643617Y-25940718D01*
X41643617Y-25940718D02*
X41976522Y-25765824D01*
X41976522Y-25765824D02*
X42288742Y-25556222D01*
X42288742Y-25556222D02*
X42576672Y-25314333D01*
X42576672Y-25314333D02*
X42836988Y-25042949D01*
X42836988Y-25042949D02*
X43066686Y-24745203D01*
X43066686Y-24745203D02*
X43238710Y-24529119D01*
X43238710Y-24529119D02*
X43438880Y-24338811D01*
X43438880Y-24338811D02*
X43663361Y-24177896D01*
X43663361Y-24177896D02*
X43907872Y-24049444D01*
X43907872Y-24049444D02*
X44167748Y-23955904D01*
X44167748Y-23955904D02*
X44438034Y-23899062D01*
X44438034Y-23899062D02*
X44713573Y-23880001D01*
X44713573Y-23880001D02*
X81228744Y-23880001D01*
X81228744Y-23880001D02*
X92684028Y-23880001D01*
X106200281Y-23880001D02*
X147760000Y-23880001D01*
X147760000Y-23880001D02*
X183725975Y-23880001D01*
X197242228Y-23880001D02*
X214578744Y-23880001D01*
X214578744Y-23880001D02*
X245206122Y-23880001D01*
X254263996Y-23880001D02*
X269347494Y-23880001D01*
X269347494Y-23880001D02*
X270577633Y-23880001D01*
X279892370Y-23880001D02*
X285310006Y-23880001D01*
X285310006Y-23880001D02*
X285594637Y-23900337D01*
X285594637Y-23900337D02*
X285873474Y-23960997D01*
X285873474Y-23960997D02*
X286140839Y-24060721D01*
X286140839Y-24060721D02*
X286391291Y-24197480D01*
X286391291Y-24197480D02*
X286619731Y-24368490D01*
X286619731Y-24368490D02*
X286821509Y-24570270D01*
X286821509Y-24570270D02*
X286992516Y-24798712D01*
X286992516Y-24798712D02*
X287129273Y-25049166D01*
X287129273Y-25049166D02*
X287228994Y-25316533D01*
X287228994Y-25316533D02*
X287289650Y-25595370D01*
X287289650Y-25595370D02*
X287310006Y-25880001D01*
X287310006Y-25880001D02*
X287310006Y-116080001D01*
X287310006Y-116080001D02*
X287289641Y-116364630D01*
X287289641Y-116364630D02*
X287228984Y-116643464D01*
X287228984Y-116643464D02*
X287129262Y-116910828D01*
X287129262Y-116910828D02*
X286992505Y-117161279D01*
X286992505Y-117161279D02*
X286821498Y-117389718D01*
X286821498Y-117389718D02*
X286619721Y-117591495D01*
X286619721Y-117591495D02*
X286391283Y-117762503D01*
X286391283Y-117762503D02*
X286140832Y-117899261D01*
X286140832Y-117899261D02*
X285873469Y-117998984D01*
X285873469Y-117998984D02*
X285594635Y-118059642D01*
X285594635Y-118059642D02*
X285310006Y-118080001D01*
X256984734Y-118080001D02*
X254916251Y-118080001D01*
X254916251Y-118080001D02*
X240104484Y-118080001D01*
X230792234Y-118080001D02*
X216784998Y-118080001D01*
X216784998Y-118080001D02*
X197936758Y-118065914D01*
X183730492Y-118080001D02*
X147760006Y-118080001D01*
X147760006Y-118080001D02*
X106189571Y-118080001D01*
X91903954Y-118080001D02*
X78735003Y-118080001D01*
X78735003Y-118080001D02*
X59127803Y-118080001D01*
X49815554Y-118080001D02*
X35765751Y-118080001D01*
X35765751Y-118080001D02*
X32935303Y-118080001D01*
X23623054Y-118080001D02*
X19342709Y-118080001D01*
X10030460Y-118080001D02*
X4609994Y-118080001D01*
X4609994Y-118080001D02*
X4325365Y-118059633D01*
X4325365Y-118059633D02*
X4046530Y-117998977D01*
X4046530Y-117998977D02*
X3779166Y-117899256D01*
X3779166Y-117899256D02*
X3528715Y-117762500D01*
X3528715Y-117762500D02*
X3300275Y-117591493D01*
X3300275Y-117591493D02*
X3098498Y-117389717D01*
X3098498Y-117389717D02*
X2927490Y-117161278D01*
X2927490Y-117161278D02*
X2790732Y-116910828D01*
X2790732Y-116910828D02*
X2691010Y-116643464D01*
X2691010Y-116643464D02*
X2630352Y-116364630D01*
X2630352Y-116364630D02*
X2609994Y-116080001D01*
X2609994Y-116080001D02*
X2609994Y-25880001D01*
X2609994Y-25880001D02*
X2630355Y-25595371D01*
X2630355Y-25595371D02*
X2691011Y-25316536D01*
X2691011Y-25316536D02*
X2790732Y-25049171D01*
X2790732Y-25049171D02*
X2927489Y-24798719D01*
X2927489Y-24798719D02*
X3098496Y-24570279D01*
X3098496Y-24570279D02*
X3300273Y-24368501D01*
X3300273Y-24368501D02*
X3528713Y-24197493D01*
X3528713Y-24197493D02*
X3779164Y-24060736D01*
X3779164Y-24060736D02*
X4046529Y-23961014D01*
X4046529Y-23961014D02*
X4325364Y-23900358D01*
X4325364Y-23900358D02*
X4609994Y-23880001D01*
X4609994Y-23880001D02*
X8030118Y-23880001D01*
D11*
X146568572Y-68679757D02*
X146425715Y-68608328D01*
X146425715Y-68608328D02*
X146211429Y-68608328D01*
X146211429Y-68608328D02*
X145997143Y-68679757D01*
X145997143Y-68679757D02*
X145854286Y-68822614D01*
X145854286Y-68822614D02*
X145782857Y-68965471D01*
X145782857Y-68965471D02*
X145711429Y-69251185D01*
X145711429Y-69251185D02*
X145711429Y-69465471D01*
X145711429Y-69465471D02*
X145782857Y-69751185D01*
X145782857Y-69751185D02*
X145854286Y-69894042D01*
X145854286Y-69894042D02*
X145997143Y-70036900D01*
X145997143Y-70036900D02*
X146211429Y-70108328D01*
X146211429Y-70108328D02*
X146354286Y-70108328D01*
X146354286Y-70108328D02*
X146568572Y-70036900D01*
X146568572Y-70036900D02*
X146640000Y-69965471D01*
X146640000Y-69965471D02*
X146640000Y-69465471D01*
X146640000Y-69465471D02*
X146354286Y-69465471D01*
X147497143Y-68608328D02*
X147497143Y-68965471D01*
X147140000Y-68822614D02*
X147497143Y-68965471D01*
X147497143Y-68965471D02*
X147854286Y-68822614D01*
X147282857Y-69251185D02*
X147497143Y-68965471D01*
X147497143Y-68965471D02*
X147711429Y-69251185D01*
X148640000Y-68608328D02*
X148640000Y-68965471D01*
X148282857Y-68822614D02*
X148640000Y-68965471D01*
X148640000Y-68965471D02*
X148997143Y-68822614D01*
X148425714Y-69251185D02*
X148640000Y-68965471D01*
X148640000Y-68965471D02*
X148854286Y-69251185D01*
X149782857Y-68608328D02*
X149782857Y-68965471D01*
X149425714Y-68822614D02*
X149782857Y-68965471D01*
X149782857Y-68965471D02*
X150140000Y-68822614D01*
X149568571Y-69251185D02*
X149782857Y-68965471D01*
X149782857Y-68965471D02*
X149997143Y-69251185D01*
D12*
%TO.C,G\u002A\u002A\u002A*%
G36*
X117650335Y-55145113D02*
G01*
X118135186Y-55573947D01*
X118587638Y-56163280D01*
X118969077Y-56869834D01*
X119240891Y-57650327D01*
X119364465Y-58461480D01*
X119367928Y-58595035D01*
X119266322Y-59641582D01*
X118969528Y-60559584D01*
X118614336Y-61126154D01*
X118229069Y-61407401D01*
X117835616Y-61335328D01*
X117622728Y-61162528D01*
X117381403Y-60778118D01*
X117129960Y-60139156D01*
X116884947Y-59324795D01*
X116662914Y-58414191D01*
X116480408Y-57486495D01*
X116353978Y-56620863D01*
X116300174Y-55896448D01*
X116335544Y-55392405D01*
X116387515Y-55254409D01*
X116737886Y-54942064D01*
X117171697Y-54920059D01*
X117650335Y-55145113D01*
G37*
G36*
X122879801Y-42938153D02*
G01*
X123057140Y-43097482D01*
X123257359Y-43448537D01*
X123465244Y-43990316D01*
X123555028Y-44296433D01*
X123954674Y-45317294D01*
X124552211Y-46169581D01*
X125110901Y-46651590D01*
X125566414Y-46838279D01*
X126256689Y-46988994D01*
X126857541Y-47061547D01*
X127654906Y-47150098D01*
X128183262Y-47303583D01*
X128497516Y-47586903D01*
X128652571Y-48064963D01*
X128703335Y-48802664D01*
X128706783Y-49247498D01*
X128770513Y-51393435D01*
X128952231Y-53756141D01*
X129237731Y-56222654D01*
X129612805Y-58680012D01*
X130063245Y-61015252D01*
X130335262Y-62195676D01*
X130669839Y-63445302D01*
X130997947Y-64362026D01*
X131356149Y-64965576D01*
X131781007Y-65275678D01*
X132309084Y-65312060D01*
X132976941Y-65094448D01*
X133821141Y-64642571D01*
X134311298Y-64340949D01*
X136727100Y-62979471D01*
X139167825Y-61924720D01*
X141595038Y-61191634D01*
X143197784Y-60887399D01*
X143918437Y-60761428D01*
X144541664Y-60611620D01*
X144950064Y-60466998D01*
X144991180Y-60444083D01*
X145212229Y-60194574D01*
X145542751Y-59679085D01*
X145948359Y-58956445D01*
X146394664Y-58085487D01*
X146517677Y-57832543D01*
X146853045Y-57185380D01*
X159464822Y-57185380D01*
X159550546Y-57405983D01*
X159778882Y-57602449D01*
X160213941Y-57812875D01*
X160919835Y-58075357D01*
X161022672Y-58111085D01*
X163017558Y-58685173D01*
X165194226Y-59108039D01*
X167449154Y-59370046D01*
X169678820Y-59461557D01*
X171779703Y-59372935D01*
X172971534Y-59223405D01*
X174060547Y-59019849D01*
X175066441Y-58785389D01*
X175930243Y-58537976D01*
X176592978Y-58295562D01*
X176995673Y-58076097D01*
X177085109Y-57971254D01*
X177117402Y-57571674D01*
X177085288Y-57443057D01*
X176848301Y-57232429D01*
X176324875Y-56988546D01*
X175580036Y-56729814D01*
X174678812Y-56474643D01*
X173686233Y-56241437D01*
X172667325Y-56048605D01*
X171687118Y-55914554D01*
X171684465Y-55914275D01*
X170586331Y-55829040D01*
X169335446Y-55781846D01*
X167982617Y-55769831D01*
X166578648Y-55790132D01*
X165174345Y-55839886D01*
X163820513Y-55916231D01*
X162567959Y-56016302D01*
X161467487Y-56137237D01*
X160569903Y-56276174D01*
X159926012Y-56430249D01*
X159587242Y-56595975D01*
X159466111Y-56901881D01*
X159464822Y-57185380D01*
X146853045Y-57185380D01*
X147694186Y-55562220D01*
X148888927Y-53614346D01*
X150123304Y-51956142D01*
X150987749Y-50986114D01*
X152237277Y-49783937D01*
X153475261Y-48810999D01*
X154758299Y-48044824D01*
X156142985Y-47462939D01*
X157685918Y-47042869D01*
X159443694Y-46762139D01*
X161472910Y-46598277D01*
X162109256Y-46569825D01*
X163188477Y-46532963D01*
X163992038Y-46521057D01*
X164599006Y-46539909D01*
X165088449Y-46595320D01*
X165539434Y-46693090D01*
X166031029Y-46839020D01*
X166105760Y-46863030D01*
X166798715Y-47130189D01*
X167745627Y-47559697D01*
X168898624Y-48126561D01*
X170209836Y-48805783D01*
X171631392Y-49572367D01*
X173115419Y-50401318D01*
X174614048Y-51267641D01*
X175155035Y-51588101D01*
X176508287Y-52373509D01*
X177823631Y-53096263D01*
X179044077Y-53727450D01*
X180112637Y-54238158D01*
X180972322Y-54599474D01*
X181337396Y-54724623D01*
X181985880Y-55046368D01*
X182512164Y-55539566D01*
X182828654Y-56107711D01*
X182881608Y-56425981D01*
X182735739Y-56838374D01*
X182339732Y-57362375D01*
X181755988Y-57940716D01*
X181046906Y-58516131D01*
X180274887Y-59031353D01*
X179713086Y-59333851D01*
X177111354Y-60383955D01*
X174375140Y-61127163D01*
X171553804Y-61560550D01*
X168696707Y-61681194D01*
X165853207Y-61486174D01*
X163072666Y-60972567D01*
X161211678Y-60429226D01*
X160391302Y-60128092D01*
X159437138Y-59744200D01*
X158533805Y-59352318D01*
X158393411Y-59287888D01*
X157524648Y-58919653D01*
X156879194Y-58720454D01*
X156511202Y-58698082D01*
X156128291Y-58922104D01*
X155629511Y-59401143D01*
X155067067Y-60077248D01*
X154493164Y-60892467D01*
X154392053Y-61050492D01*
X154056179Y-61666711D01*
X153949942Y-62153082D01*
X154097901Y-62572991D01*
X154524615Y-62989824D01*
X155254643Y-63466968D01*
X155350140Y-63523292D01*
X156905575Y-64606482D01*
X158293358Y-65946876D01*
X159455617Y-67434668D01*
X160065144Y-68398610D01*
X160700575Y-69544926D01*
X161306891Y-70761888D01*
X161829073Y-71937763D01*
X162212101Y-72960821D01*
X162272379Y-73154798D01*
X162461980Y-73723053D01*
X162643888Y-74030607D01*
X162883431Y-74164418D01*
X163053322Y-74194304D01*
X163568115Y-74138722D01*
X163993036Y-73957220D01*
X164531381Y-73728824D01*
X164948392Y-73802096D01*
X165236555Y-74142190D01*
X165388357Y-74714255D01*
X165396282Y-75483444D01*
X165252817Y-76414908D01*
X164950449Y-77473799D01*
X164825315Y-77817155D01*
X164635475Y-78436411D01*
X164667071Y-78791594D01*
X164946435Y-78915503D01*
X165499896Y-78840935D01*
X165623091Y-78810892D01*
X166126272Y-78707046D01*
X166438067Y-78739141D01*
X166703751Y-78929715D01*
X166763081Y-78987774D01*
X166981540Y-79227701D01*
X167044584Y-79438630D01*
X166955639Y-79749208D01*
X166793237Y-80120495D01*
X166135008Y-81387888D01*
X165246944Y-82802184D01*
X164181374Y-84294453D01*
X162990623Y-85795765D01*
X161727020Y-87237190D01*
X160442891Y-88549797D01*
X160268417Y-88715628D01*
X158028802Y-90625158D01*
X155735133Y-92185048D01*
X153379887Y-93397840D01*
X150955545Y-94266080D01*
X148454583Y-94792310D01*
X145869481Y-94979074D01*
X143192716Y-94828916D01*
X142472517Y-94733780D01*
X141508951Y-94575999D01*
X140339397Y-94359160D01*
X139013823Y-94094779D01*
X137582196Y-93794372D01*
X136094485Y-93469454D01*
X134600657Y-93131541D01*
X133150679Y-92792149D01*
X131794520Y-92462793D01*
X130582147Y-92154988D01*
X129563529Y-91880252D01*
X128788632Y-91650099D01*
X128307425Y-91476045D01*
X128278079Y-91462501D01*
X127210802Y-90809165D01*
X126274498Y-89960825D01*
X125553377Y-89003325D01*
X125241451Y-88367063D01*
X125047925Y-87679116D01*
X125101068Y-87223182D01*
X125416062Y-86961812D01*
X125848517Y-86869385D01*
X126271081Y-86760543D01*
X126509073Y-86574987D01*
X126512579Y-86566658D01*
X126474265Y-86298725D01*
X126282468Y-85835489D01*
X126171412Y-85631091D01*
X136143370Y-85631091D01*
X136182071Y-85750357D01*
X136460660Y-86003593D01*
X136907258Y-86327936D01*
X137461583Y-86683046D01*
X138185859Y-87122920D01*
X139012314Y-87609116D01*
X139873175Y-88103191D01*
X140700672Y-88566704D01*
X141427031Y-88961212D01*
X141984482Y-89248273D01*
X142303713Y-89388967D01*
X142541769Y-89426282D01*
X142622029Y-89275336D01*
X142595329Y-88882126D01*
X142640733Y-88369721D01*
X142885933Y-88102394D01*
X143277158Y-88124053D01*
X143428564Y-88201745D01*
X143727202Y-88375468D01*
X144226674Y-88655918D01*
X144781608Y-88961940D01*
X145345738Y-89279263D01*
X145790741Y-89545791D01*
X146016084Y-89700624D01*
X146284182Y-89848620D01*
X146431540Y-89673481D01*
X146469021Y-89268844D01*
X146538456Y-88756684D01*
X146702518Y-88361788D01*
X146868442Y-88182925D01*
X147040007Y-88200644D01*
X147314054Y-88444791D01*
X147456836Y-88594273D01*
X147803586Y-88934179D01*
X148052041Y-89128475D01*
X148099038Y-89146084D01*
X148221919Y-88994010D01*
X148412257Y-88601423D01*
X148567809Y-88213566D01*
X148812201Y-87678738D01*
X149064094Y-87317693D01*
X149203832Y-87223247D01*
X149502462Y-87293482D01*
X149940313Y-87536940D01*
X150193028Y-87720303D01*
X150893592Y-88275160D01*
X151260441Y-87556076D01*
X151574844Y-87048535D01*
X151848189Y-86868607D01*
X152099467Y-87023541D01*
X152347671Y-87520582D01*
X152517953Y-88035944D01*
X152682907Y-88491294D01*
X152837840Y-88760052D01*
X152888230Y-88790839D01*
X153033898Y-88644872D01*
X153291115Y-88257160D01*
X153611141Y-87702982D01*
X153703821Y-87531142D01*
X154178215Y-86663076D01*
X154533211Y-86082169D01*
X154798126Y-85752961D01*
X155002274Y-85639991D01*
X155174971Y-85707799D01*
X155195434Y-85726853D01*
X155460949Y-85922000D01*
X155658815Y-85841651D01*
X155869298Y-85460419D01*
X156097454Y-85055565D01*
X156460754Y-84510164D01*
X156782283Y-84072153D01*
X157183881Y-83483287D01*
X157611699Y-82747177D01*
X158028611Y-81942495D01*
X158397492Y-81147911D01*
X158681215Y-80442097D01*
X158842655Y-79903722D01*
X158862395Y-79664351D01*
X158805150Y-79455374D01*
X158701644Y-79509140D01*
X158499204Y-79854328D01*
X158493294Y-79865315D01*
X158212115Y-80245558D01*
X157920996Y-80435685D01*
X157876697Y-80440739D01*
X157641635Y-80564374D01*
X157229857Y-80902136D01*
X156699949Y-81402007D01*
X156126287Y-81994935D01*
X154682155Y-83550979D01*
X154285901Y-83195734D01*
X153889648Y-82840489D01*
X153598565Y-83248522D01*
X152924288Y-84164530D01*
X152378324Y-84845300D01*
X151979933Y-85268313D01*
X151749156Y-85411072D01*
X151488610Y-85307566D01*
X151072222Y-85050081D01*
X150833533Y-84878205D01*
X150221822Y-84485835D01*
X149763826Y-84375739D01*
X149403806Y-84543262D01*
X149232561Y-84744587D01*
X149006907Y-84999845D01*
X148750870Y-85038772D01*
X148386753Y-84923886D01*
X147972811Y-84805683D01*
X147676662Y-84880736D01*
X147355383Y-85151256D01*
X147006345Y-85425305D01*
X146625609Y-85557411D01*
X146126201Y-85553490D01*
X145421146Y-85419457D01*
X144989892Y-85312135D01*
X144421513Y-85188243D01*
X144009431Y-85142507D01*
X143851226Y-85178918D01*
X143723066Y-85475381D01*
X143547720Y-85642873D01*
X143253536Y-85690806D01*
X142768860Y-85628592D01*
X142022039Y-85465643D01*
X141894895Y-85435893D01*
X141025379Y-85234808D01*
X140450772Y-85116373D01*
X140120697Y-85079715D01*
X139984775Y-85123966D01*
X139992628Y-85248254D01*
X140068366Y-85404337D01*
X140234143Y-85877034D01*
X140125679Y-86176121D01*
X139733681Y-86303632D01*
X139048854Y-86261600D01*
X138061904Y-86052061D01*
X137634645Y-85937077D01*
X136984867Y-85768611D01*
X136462130Y-85658580D01*
X136164616Y-85627130D01*
X136143370Y-85631091D01*
X126171412Y-85631091D01*
X125986579Y-85290909D01*
X125505010Y-84405257D01*
X125150129Y-83576488D01*
X124942175Y-82868411D01*
X124901383Y-82344835D01*
X124982051Y-82123568D01*
X125146341Y-81955277D01*
X125325197Y-81897348D01*
X125586616Y-81970710D01*
X125998598Y-82196295D01*
X126629143Y-82595033D01*
X126734095Y-82662867D01*
X127594735Y-83157009D01*
X128273954Y-83414772D01*
X128748820Y-83430600D01*
X128992344Y-83209940D01*
X129007213Y-82937942D01*
X128971567Y-82400317D01*
X128892683Y-81681952D01*
X128809147Y-81073094D01*
X128683178Y-80040104D01*
X128614531Y-79227306D01*
X132261829Y-79227306D01*
X132261849Y-79235562D01*
X132343548Y-80009303D01*
X132621587Y-80589473D01*
X133154641Y-81064143D01*
X133681042Y-81365662D01*
X134255034Y-81661082D01*
X134734804Y-81913827D01*
X134963009Y-82039005D01*
X135167976Y-82306006D01*
X135092818Y-82606115D01*
X134775226Y-82803636D01*
X134694092Y-82901980D01*
X134942742Y-83083641D01*
X135190000Y-83206688D01*
X135544735Y-83340240D01*
X135996646Y-83441530D01*
X136606930Y-83517726D01*
X137436787Y-83575994D01*
X138547414Y-83623500D01*
X138831259Y-83633080D01*
X140088658Y-83666657D01*
X141049313Y-83670683D01*
X141770923Y-83639434D01*
X142311189Y-83567184D01*
X142727810Y-83448209D01*
X143078487Y-83276784D01*
X143202326Y-83199409D01*
X143801531Y-82664840D01*
X144059445Y-82058869D01*
X144006274Y-81424219D01*
X143513308Y-80257116D01*
X142722830Y-79152996D01*
X141827492Y-78304664D01*
X150620286Y-78304664D01*
X150629815Y-79431075D01*
X150746626Y-80358386D01*
X150965994Y-81021243D01*
X151016802Y-81108671D01*
X151203800Y-81384274D01*
X151370403Y-81479207D01*
X151636953Y-81406151D01*
X151988089Y-81241888D01*
X152685804Y-81241888D01*
X152774615Y-81330699D01*
X152863426Y-81241888D01*
X152774615Y-81153077D01*
X152685804Y-81241888D01*
X151988089Y-81241888D01*
X152041955Y-81216689D01*
X152504800Y-81062832D01*
X152901131Y-81038555D01*
X153138294Y-81134263D01*
X153130635Y-81329445D01*
X153116973Y-81491299D01*
X153337494Y-81496921D01*
X153722434Y-81373968D01*
X154202031Y-81150100D01*
X154706520Y-80852973D01*
X155139343Y-80533075D01*
X155610206Y-80065244D01*
X156197802Y-79377997D01*
X156837079Y-78557132D01*
X157462989Y-77688445D01*
X158010482Y-76857734D01*
X158305369Y-76357273D01*
X158573165Y-75830389D01*
X158737700Y-75360948D01*
X158826132Y-74825746D01*
X158865618Y-74101580D01*
X158872862Y-73782722D01*
X158841974Y-72648010D01*
X158714365Y-71654038D01*
X158503697Y-70859249D01*
X158223631Y-70322085D01*
X158022428Y-70144745D01*
X157400857Y-69983134D01*
X156580010Y-70013237D01*
X155646413Y-70215777D01*
X154686589Y-70571476D01*
X153787061Y-71061057D01*
X153725072Y-71102209D01*
X152723971Y-71945317D01*
X151931166Y-72999236D01*
X151331458Y-74294045D01*
X150909651Y-75859826D01*
X150722771Y-77044510D01*
X150620286Y-78304664D01*
X141827492Y-78304664D01*
X141692568Y-78176824D01*
X140480252Y-77393568D01*
X140378948Y-77342092D01*
X139411916Y-77021774D01*
X138196078Y-76881994D01*
X136789025Y-76923509D01*
X135248345Y-77147079D01*
X134693635Y-77267201D01*
X133689563Y-77540121D01*
X132992310Y-77833768D01*
X132553913Y-78186966D01*
X132326407Y-78638537D01*
X132261829Y-79227306D01*
X128614531Y-79227306D01*
X128586439Y-78894697D01*
X128533841Y-77828702D01*
X128528497Y-77462035D01*
X128496315Y-76426584D01*
X128374808Y-75662921D01*
X128125150Y-75091193D01*
X127708516Y-74631553D01*
X127086080Y-74204148D01*
X126889073Y-74090327D01*
X126085837Y-73525437D01*
X125200022Y-72713175D01*
X124301977Y-71726812D01*
X123462052Y-70639619D01*
X123181955Y-70229301D01*
X122663098Y-69382681D01*
X122070798Y-68324623D01*
X121459003Y-67160383D01*
X120881655Y-65995221D01*
X120392700Y-64934394D01*
X120082296Y-64181191D01*
X119789704Y-63298732D01*
X119675697Y-62596975D01*
X119739931Y-61949726D01*
X119982064Y-61230795D01*
X120073704Y-61017491D01*
X120428209Y-60138856D01*
X120613872Y-59431675D01*
X120650640Y-58766471D01*
X120558458Y-58013770D01*
X120546523Y-57948131D01*
X120322276Y-57055772D01*
X119972586Y-56245817D01*
X119449057Y-55435853D01*
X118703297Y-54543466D01*
X118283495Y-54094284D01*
X117459468Y-53191065D01*
X116884815Y-52434828D01*
X116529635Y-51753000D01*
X116364026Y-51073013D01*
X116358084Y-50322294D01*
X116408076Y-49931662D01*
X120366657Y-49931662D01*
X120386788Y-50677969D01*
X120477875Y-51371245D01*
X120559292Y-51685662D01*
X120760024Y-52109041D01*
X121115969Y-52700341D01*
X121560032Y-53350393D01*
X121694574Y-53532797D01*
X122175023Y-54229020D01*
X122603658Y-54950287D01*
X122901538Y-55561542D01*
X122940434Y-55664266D01*
X123118329Y-56428363D01*
X123225000Y-57435122D01*
X123258864Y-58578850D01*
X123218336Y-59753856D01*
X123101835Y-60854451D01*
X123024778Y-61294434D01*
X122783786Y-62484043D01*
X123629726Y-64491637D01*
X124067952Y-65516233D01*
X124409431Y-66263058D01*
X124687400Y-66784954D01*
X124935093Y-67134759D01*
X125185748Y-67365315D01*
X125472600Y-67529460D01*
X125567392Y-67572224D01*
X125974727Y-67740394D01*
X126272682Y-67799461D01*
X126591409Y-67740782D01*
X127061059Y-67555718D01*
X127288792Y-67457933D01*
X128044514Y-67029490D01*
X128517275Y-66494039D01*
X128717200Y-65814144D01*
X128654413Y-64952369D01*
X128339038Y-63871279D01*
X128292650Y-63746084D01*
X127895947Y-62517478D01*
X127517772Y-61019932D01*
X127172285Y-59339724D01*
X126873645Y-57563132D01*
X126636010Y-55776434D01*
X126473540Y-54065908D01*
X126400393Y-52517831D01*
X126397692Y-52199126D01*
X126384820Y-51253954D01*
X126329012Y-50607687D01*
X126204484Y-50204398D01*
X125985451Y-49988162D01*
X125646126Y-49903051D01*
X125333752Y-49891538D01*
X124508633Y-49808310D01*
X123563272Y-49588692D01*
X122654181Y-49277787D01*
X121937871Y-48920695D01*
X121916535Y-48906809D01*
X121324206Y-48573087D01*
X120915783Y-48496086D01*
X120633750Y-48671928D01*
X120542403Y-48814127D01*
X120418267Y-49265867D01*
X120366657Y-49931662D01*
X116408076Y-49931662D01*
X116446050Y-49634938D01*
X116816060Y-48292982D01*
X117484822Y-46994691D01*
X118475830Y-45696917D01*
X118759930Y-45385314D01*
X119881525Y-44269363D01*
X120856993Y-43465243D01*
X121683649Y-42974382D01*
X122358813Y-42798210D01*
X122879801Y-42938153D01*
G37*
%TD*%
M02*
