%TF.GenerationSoftware,KiCad,Pcbnew,8.99.0-946-gf00a1ab517*%
%TF.CreationDate,2024-06-06T17:05:07+07:00*%
%TF.ProjectId,Sebas_nuxros,53656261-735f-46e7-9578-726f732e6b69,rev?*%
%TF.SameCoordinates,Original*%
%TF.FileFunction,Drillmap*%
%TF.FilePolarity,Positive*%
%FSLAX45Y45*%
G04 Gerber Fmt 4.5, Leading zero omitted, Abs format (unit mm)*
G04 Created by KiCad (PCBNEW 8.99.0-946-gf00a1ab517) date 2024-06-06 17:05:07*
%MOMM*%
%LPD*%
G01*
G04 APERTURE LIST*
%ADD10C,0.500000*%
%ADD11C,0.200000*%
%ADD12C,0.175000*%
%ADD13C,0.304800*%
%ADD14C,0.398780*%
%ADD15C,0.400000*%
G04 APERTURE END LIST*
D10*
X5804702Y-11775635D02*
X5829926Y-11789571D01*
X28615084Y-2406072D02*
X28588348Y-2396100D01*
X2515565Y-11737686D02*
X2532620Y-11714456D01*
X3566570Y-2388000D02*
X1735237Y-2388000D01*
X18526304Y-11737687D02*
X18543361Y-11714460D01*
X3694038Y-2433883D02*
X3671590Y-2417791D01*
X28662973Y-11759149D02*
X28683150Y-11738972D01*
X10193524Y-11552958D02*
X10232207Y-11559529D01*
X10487921Y-11758219D02*
X10510881Y-11775634D01*
X27837707Y-11737685D02*
X27857925Y-11758222D01*
X9617832Y-11552953D02*
X9657009Y-11550754D01*
X10619958Y-11808000D02*
X18374050Y-11808000D01*
X27651545Y-11574684D02*
X27685412Y-11590013D01*
X3731259Y-2474520D02*
X3714055Y-2452913D01*
X1177572Y-2633155D02*
X1142257Y-2621494D01*
X18505710Y-2437844D02*
X18482743Y-2420405D01*
X1019082Y-2539965D02*
X994550Y-2512013D01*
X26326146Y-11590013D02*
X26358196Y-11608849D01*
X5066410Y-11789571D02*
X5091634Y-11775634D01*
X4391788Y-2404944D02*
X4367337Y-2417790D01*
X27087519Y-2390079D02*
X27058764Y-2388000D01*
X25153695Y-2576582D02*
X25120405Y-2594072D01*
X25914750Y-11656149D02*
X25942106Y-11630977D01*
X23164079Y-11789573D02*
X23189304Y-11775637D01*
X18565990Y-5249385D02*
G75*
G02*
X18045990Y-5249385I-260000J0D01*
G01*
X18045990Y-5249385D02*
G75*
G02*
X18565990Y-5249385I260000J0D01*
G01*
X24649079Y-2433884D02*
X24626632Y-2417793D01*
X10536496Y-2406454D02*
X10511260Y-2420409D01*
X18761797Y-11559527D02*
X18800480Y-11552957D01*
X405653Y-2396101D02*
X378917Y-2406074D01*
X10372882Y-2569148D02*
X10340865Y-2591876D01*
X4344889Y-2433881D02*
X4324872Y-2452912D01*
X9421111Y-2458404D02*
X9400891Y-2437843D01*
X2989978Y-11590013D02*
X3022028Y-11608849D01*
X19411325Y-2610879D02*
X19375052Y-2625910D01*
X26498661Y-11758219D02*
X26521620Y-11775636D01*
X23137114Y-11799739D02*
X23164079Y-11789573D01*
X462000Y-11808000D02*
X1004047Y-11808000D01*
X3594124Y-2389906D02*
X3566570Y-2388000D01*
X5466756Y-11551248D02*
X5503721Y-11555191D01*
X27579905Y-11555191D02*
X27616243Y-11563032D01*
X1662761Y-11608854D02*
X1692632Y-11630982D01*
X10372513Y-11627075D02*
X10401776Y-11653214D01*
X23637727Y-11563032D02*
X23673029Y-11574683D01*
X27468925Y-2641003D02*
X27432572Y-2633155D01*
X26073196Y-11563032D02*
X26109534Y-11555191D01*
X1488241Y-11551256D02*
X1525206Y-11555198D01*
X18621490Y-11627073D02*
X18653494Y-11604373D01*
X2884471Y-11555191D02*
X2920809Y-11563032D01*
X2956111Y-11574683D02*
X2989978Y-11590013D01*
X5829926Y-11789571D02*
X5856892Y-11799737D01*
X9409577Y-11653209D02*
X9438840Y-11627069D01*
X23352727Y-11608849D02*
X23384777Y-11590013D01*
X5671149Y-11630977D02*
X5698505Y-11656149D01*
X1878373Y-11799741D02*
X1906519Y-11805926D01*
X280074Y-2504917D02*
X270102Y-2531654D01*
X1108379Y-2606152D02*
X1076319Y-2587302D01*
X4094132Y-2617873D02*
X4057015Y-2623910D01*
X25239742Y-2504295D02*
X25213710Y-2531433D01*
X264036Y-2559537D02*
X262000Y-2588000D01*
X27505765Y-11551248D02*
X27542940Y-11551248D01*
X25971977Y-11608849D02*
X26004027Y-11590013D01*
X264036Y-11636463D02*
X270102Y-11664346D01*
X19610541Y-11682461D02*
X19633257Y-11714456D01*
X28532001Y-2388000D02*
X27990238Y-2388000D01*
X10488293Y-2437847D02*
X10468072Y-2458407D01*
X23601389Y-11555191D02*
X23637727Y-11563032D01*
X3840276Y-2576582D02*
X3809054Y-2555622D01*
X5287109Y-11590013D02*
X5320976Y-11574684D01*
X1046441Y-2565156D02*
X1019082Y-2539965D01*
X27115676Y-2396270D02*
X27087519Y-2390079D01*
X1706482Y-2390078D02*
X1678325Y-2396269D01*
X27774919Y-2539965D02*
X27747560Y-2565156D01*
X23706896Y-11590013D02*
X23738946Y-11608849D01*
X27880884Y-11775640D02*
X27906109Y-11789577D01*
X10469750Y-9003000D02*
G75*
G02*
X9949750Y-9003000I-260000J0D01*
G01*
X9949750Y-9003000D02*
G75*
G02*
X10469750Y-9003000I260000J0D01*
G01*
X19375052Y-2625910D02*
X19337323Y-2636783D01*
X19506974Y-2542978D02*
X19477704Y-2569150D01*
X27685412Y-11590013D02*
X27717462Y-11608849D01*
X26630699Y-11808000D02*
X27058740Y-11808000D01*
X2667859Y-11590013D02*
X2701726Y-11574684D01*
X24626632Y-2417793D02*
X24602181Y-2404948D01*
X27087483Y-11805924D02*
X27115629Y-11799738D01*
X378917Y-11789925D02*
X405654Y-11799898D01*
X23982706Y-11805924D02*
X24011449Y-11808000D01*
X23189304Y-11775637D02*
X23212263Y-11758220D01*
X25831513Y-11758220D02*
X25851731Y-11737685D01*
X9323434Y-11758218D02*
X9343652Y-11737683D01*
X19555837Y-2481660D02*
X19533128Y-2513692D01*
X973122Y-2481616D02*
X956068Y-2458371D01*
X2578582Y-11656149D02*
X2605938Y-11630977D01*
X27747333Y-11630977D02*
X27774689Y-11656149D01*
X19523118Y-11604368D02*
X19555124Y-11627069D01*
X4130387Y-2607888D02*
X4094132Y-2617873D01*
X27906109Y-11789577D02*
X27933074Y-11799743D01*
X3162493Y-11758219D02*
X3185452Y-11775635D01*
X1414103Y-11555198D02*
X1451067Y-11551256D01*
X28662974Y-2436849D02*
X28640130Y-2419748D01*
X2472386Y-11775637D02*
X2495346Y-11758221D01*
X1744519Y-11684084D02*
X1765950Y-11714459D01*
X28723899Y-11664346D02*
X28729965Y-11636463D01*
X19445687Y-2591879D02*
X19411325Y-2610879D01*
X3237642Y-11799737D02*
X3265788Y-11805923D01*
X9470845Y-11604369D02*
X9505189Y-11585394D01*
X5356278Y-11563032D02*
X5392616Y-11555191D01*
X23879411Y-11758219D02*
X23902370Y-11775636D01*
X27543096Y-2644949D02*
X27505906Y-2644949D01*
X1462682Y-2587302D02*
X1430622Y-2606152D01*
X23249538Y-11714456D02*
X23270968Y-11684080D01*
X1935262Y-11808000D02*
X2363306Y-11808000D01*
X18687495Y-2610878D02*
X18653133Y-2591879D01*
X23270968Y-11684080D02*
X23295500Y-11656149D01*
X28729966Y-2559537D02*
X28723900Y-2531653D01*
X9300474Y-11775634D02*
X9323434Y-11758218D01*
X5781743Y-11758219D02*
X5804702Y-11775635D01*
X28560464Y-2390034D02*
X28532001Y-2388000D01*
X26388067Y-11630977D02*
X26415423Y-11656149D01*
X9734590Y-2645564D02*
X9695388Y-2643362D01*
X27837932Y-2458370D02*
X27820879Y-2481616D01*
X18723769Y-2625910D02*
X18687495Y-2610878D01*
X9579148Y-11559523D02*
X9617832Y-11552953D01*
X23080224Y-11808000D02*
X23108967Y-11805924D01*
X27274082Y-2539965D02*
X27249550Y-2512013D01*
X27397257Y-2621494D02*
X27363379Y-2606152D01*
X18591846Y-2542978D02*
X18565691Y-2513693D01*
X5255059Y-11608849D02*
X5287109Y-11590013D01*
X27717462Y-11608849D02*
X27747333Y-11630977D01*
X10591641Y-2390080D02*
X10563477Y-2396274D01*
X27432462Y-11563032D02*
X27468800Y-11555191D01*
X5011299Y-11805923D02*
X5039445Y-11799737D01*
X5225188Y-11630977D02*
X5255059Y-11608849D01*
X18839656Y-11550764D02*
X19336951Y-11550754D01*
X10428307Y-2513690D02*
X10402152Y-2542976D01*
X27933324Y-2396267D02*
X27906349Y-2406441D01*
X5744467Y-11714456D02*
X5761524Y-11737684D01*
X10591215Y-11805920D02*
X10619958Y-11808000D01*
X27616243Y-11563032D02*
X27651545Y-11574684D01*
X4165362Y-2594072D02*
X4130387Y-2607888D01*
X25890218Y-11684080D02*
X25914750Y-11656149D01*
X10402152Y-2542976D02*
X10372882Y-2569148D01*
X1308597Y-11590020D02*
X1342464Y-11574690D01*
X5609228Y-11590013D02*
X5641278Y-11608849D01*
X26573809Y-11799738D02*
X26601956Y-11805924D01*
X23927594Y-11789572D02*
X23954559Y-11799738D01*
X27397160Y-11574684D02*
X27432462Y-11563032D01*
X23954559Y-11799738D02*
X23982706Y-11805924D01*
X1087901Y-11789574D02*
X1113125Y-11775638D01*
X3265788Y-11805923D02*
X3294531Y-11808000D01*
X27857925Y-11758222D02*
X27880884Y-11775640D01*
X19259410Y-2645565D02*
X18839410Y-2645565D01*
X19773827Y-11805923D02*
X19802570Y-11808000D01*
X9191396Y-11808000D02*
X9220139Y-11805923D01*
X3079255Y-11656149D02*
X3103787Y-11684080D01*
X27190847Y-2437822D02*
X27167883Y-2420392D01*
X10468072Y-2458407D02*
X10451017Y-2481660D01*
X1519919Y-2539965D02*
X1492559Y-2565156D01*
X10620403Y-2388000D02*
X10591641Y-2390080D01*
X3647139Y-2404946D02*
X3621152Y-2395591D01*
X803764Y-2388000D02*
X462000Y-2388000D01*
X27167883Y-2420392D02*
X27142651Y-2406445D01*
X5723037Y-11684080D02*
X5744467Y-11714456D01*
X19477704Y-2569150D02*
X19445687Y-2591879D01*
X10154348Y-11550759D02*
X10193524Y-11552958D01*
X26546844Y-11789572D02*
X26573809Y-11799738D01*
X27211067Y-2458372D02*
X27190847Y-2437822D01*
X2392049Y-11805924D02*
X2420196Y-11799739D01*
X27881116Y-2420389D02*
X27858152Y-2437819D01*
X28732001Y-2588000D02*
X28729966Y-2559537D01*
X4444804Y-2389906D02*
X4417775Y-2395590D01*
X19376128Y-11552953D02*
X19414813Y-11559523D01*
X9325705Y-2396269D02*
X9297541Y-2390076D01*
X25942106Y-11630977D02*
X25971977Y-11608849D01*
X3142274Y-11737684D02*
X3162493Y-11758219D01*
X1396744Y-2621495D02*
X1361429Y-2633155D01*
X3087867Y-5249382D02*
G75*
G02*
X2567867Y-5249382I-260000J0D01*
G01*
X2567867Y-5249382D02*
G75*
G02*
X3087867Y-5249382I260000J0D01*
G01*
X27580076Y-2641003D02*
X27543096Y-2644949D01*
X2737028Y-11563032D02*
X2773366Y-11555191D01*
X4417775Y-2395590D02*
X4391788Y-2404944D01*
X10451017Y-2481660D02*
X10428307Y-2513690D01*
X19533128Y-2513692D02*
X19506974Y-2542978D01*
X19555124Y-11627069D02*
X19584388Y-11653209D01*
X24899838Y-2617873D02*
X24863583Y-2607888D01*
X1032789Y-11805924D02*
X1060936Y-11799739D01*
X10427928Y-11682465D02*
X10450645Y-11714458D01*
X5134812Y-11737683D02*
X5151870Y-11714456D01*
X1565878Y-2481616D02*
X1544451Y-2512013D01*
X331028Y-2436850D02*
X310850Y-2457028D01*
X9618950Y-2625909D02*
X9582677Y-2610877D01*
X28640130Y-2419748D02*
X28615084Y-2406072D01*
X3908541Y-2607888D02*
X3873566Y-2594072D01*
X26521620Y-11775636D02*
X26546844Y-11789572D01*
X19693492Y-11775635D02*
X19718716Y-11789571D01*
X10563070Y-11799735D02*
X10591215Y-11805920D01*
X26292279Y-11574684D02*
X26326146Y-11590013D01*
X4307669Y-2474520D02*
X4284699Y-2504295D01*
X19633257Y-11714456D02*
X19650314Y-11737684D01*
X994550Y-2512013D02*
X973122Y-2481616D01*
X9343652Y-11737683D02*
X9360710Y-11714456D01*
X270102Y-11664346D02*
X280074Y-11691083D01*
X19452519Y-11570382D02*
X19488773Y-11585393D01*
X10306165Y-11585400D02*
X10340509Y-11604375D01*
X18506086Y-11758221D02*
X18526304Y-11737687D01*
X2363306Y-11808000D02*
X2392049Y-11805924D01*
X4258668Y-2531433D02*
X4229875Y-2555622D01*
X25262711Y-2474520D02*
X25239742Y-2504295D01*
X18761498Y-2636783D02*
X18723769Y-2625910D01*
X9220139Y-11805923D02*
X9248285Y-11799737D01*
X4472358Y-2388000D02*
X4444804Y-2389906D01*
X25120405Y-2594072D02*
X25085430Y-2607888D01*
X18687839Y-11585397D02*
X18724092Y-11570386D01*
X25299933Y-2433883D02*
X25279916Y-2452913D01*
X1525206Y-11555198D02*
X1561544Y-11563039D01*
X26109534Y-11555191D02*
X26146499Y-11551248D01*
X23738946Y-11608849D02*
X23768817Y-11630977D01*
X27685623Y-2606152D02*
X27651744Y-2621495D01*
X27747560Y-2565156D02*
X27717682Y-2587302D01*
X9383424Y-11682461D02*
X9409577Y-11653209D01*
X1430622Y-2606152D02*
X1396744Y-2621495D01*
X1276548Y-11608854D02*
X1308597Y-11590020D01*
X23820705Y-11684080D02*
X23842135Y-11714456D01*
X10232502Y-2636782D02*
X10193793Y-2643363D01*
X23842135Y-11714456D02*
X23859192Y-11737684D01*
X9438840Y-11627069D02*
X9470845Y-11604369D01*
X18089750Y-9003000D02*
G75*
G02*
X17569750Y-9003000I-260000J0D01*
G01*
X17569750Y-9003000D02*
G75*
G02*
X18089750Y-9003000I260000J0D01*
G01*
X433537Y-11805963D02*
X462000Y-11808000D01*
X26004027Y-11590013D02*
X26037894Y-11574684D01*
X10563477Y-2396274D02*
X10536496Y-2406454D01*
X24828608Y-2594072D02*
X24795318Y-2576582D01*
X5197832Y-11656149D02*
X5225188Y-11630977D01*
X26601956Y-11805924D02*
X26630699Y-11808000D01*
X23527249Y-11551248D02*
X23564424Y-11551248D01*
X1851408Y-11789575D02*
X1878373Y-11799741D01*
X2810331Y-11551248D02*
X2847506Y-11551248D01*
X23768817Y-11630977D02*
X23796173Y-11656149D01*
X27228123Y-2481616D02*
X27211067Y-2458372D01*
X19593113Y-2437847D02*
X19572892Y-2458407D01*
X9248285Y-11799737D02*
X9275250Y-11789571D01*
X3944796Y-2617873D02*
X3908541Y-2607888D01*
X1783007Y-11737687D02*
X1803224Y-11758222D01*
X310850Y-11738972D02*
X331028Y-11759149D01*
X10510881Y-11775634D02*
X10536105Y-11789569D01*
X24795318Y-2576582D02*
X24764096Y-2555622D01*
X25184917Y-2555622D02*
X25153695Y-2576582D01*
X19670532Y-11758219D02*
X19693492Y-11775635D01*
X1142257Y-2621494D02*
X1108379Y-2606152D01*
X27142651Y-2406445D02*
X27115676Y-2396270D01*
X23108967Y-11805924D02*
X23137114Y-11799739D01*
X5885038Y-11805923D02*
X5913781Y-11808000D01*
X1219321Y-11656153D02*
X1246677Y-11630982D01*
X27717682Y-2587302D02*
X27685623Y-2606152D01*
X24576194Y-2395594D02*
X24549166Y-2389909D01*
X18800480Y-11552957D02*
X18839656Y-11550764D01*
X28713928Y-2504917D02*
X28700252Y-2479871D01*
X23490284Y-11555191D02*
X23527249Y-11551248D01*
X1136085Y-11758222D02*
X1156304Y-11737688D01*
X26256977Y-11563032D02*
X26292279Y-11574684D01*
X10340509Y-11604375D02*
X10372513Y-11627075D01*
X280074Y-11691083D02*
X293750Y-11716128D01*
X28723900Y-2531653D02*
X28713928Y-2504917D01*
X1361429Y-2633155D02*
X1325076Y-2641003D01*
X25728217Y-11805924D02*
X25756364Y-11799739D01*
X27058764Y-2388000D02*
X25427400Y-2388000D01*
X27115629Y-11799738D02*
X27142595Y-11789572D01*
X832519Y-2390075D02*
X803764Y-2388000D01*
X1377765Y-11563039D02*
X1414103Y-11555198D01*
X5641278Y-11608849D02*
X5671149Y-11630977D01*
X19718716Y-11789571D02*
X19745681Y-11799738D01*
X5761524Y-11737684D02*
X5781743Y-11758219D01*
X27651744Y-2621495D02*
X27616429Y-2633155D01*
X5429581Y-11551248D02*
X5466756Y-11551248D01*
X26358196Y-11608849D02*
X26388067Y-11630977D01*
X1651350Y-2406444D02*
X1626119Y-2420392D01*
X2773366Y-11555191D02*
X2810331Y-11551248D01*
X1060936Y-11799739D02*
X1087901Y-11789574D01*
X9516298Y-2569148D02*
X9487029Y-2542976D01*
X10193793Y-2643363D02*
X10154590Y-2645564D01*
X23232481Y-11737685D02*
X23249538Y-11714456D01*
X1678325Y-2396269D02*
X1651350Y-2406444D01*
X2420196Y-11799739D02*
X2447162Y-11789573D01*
X19641316Y-2406454D02*
X19616080Y-2420408D01*
X9505189Y-11585394D02*
X9541442Y-11570382D01*
X19650314Y-11737684D02*
X19670532Y-11758219D01*
X27228054Y-11714456D02*
X27249484Y-11684080D01*
X1342464Y-11574690D02*
X1377765Y-11563039D01*
X27505906Y-2644949D02*
X27468925Y-2641003D01*
X27363379Y-2606152D02*
X27331320Y-2587302D01*
X27799221Y-11684080D02*
X27820651Y-11714456D01*
X28588347Y-11799898D02*
X28615084Y-11789926D01*
X2847506Y-11551248D02*
X2884471Y-11555191D01*
X5173300Y-11684080D02*
X5197832Y-11656149D01*
X27799451Y-2512013D02*
X27774919Y-2539965D01*
X27961482Y-2390077D02*
X27933324Y-2396267D01*
X1735237Y-2388000D02*
X1706482Y-2390078D01*
X25085430Y-2607888D02*
X25049174Y-2617873D01*
X462000Y-2388000D02*
X433537Y-2390036D01*
X27210997Y-11737684D02*
X27228054Y-11714456D01*
X9695388Y-2643362D02*
X9656679Y-2636783D01*
X3671590Y-2417791D02*
X3647139Y-2404946D01*
X9352687Y-2406450D02*
X9325705Y-2396269D01*
X1826184Y-11775639D02*
X1851408Y-11789575D01*
X5503721Y-11555191D02*
X5540059Y-11563032D01*
X24602181Y-2404948D02*
X24576194Y-2395594D01*
X26146499Y-11551248D02*
X26183674Y-11551248D01*
X1250905Y-2644949D02*
X1213925Y-2641003D01*
X2554050Y-11684080D02*
X2578582Y-11656149D01*
X9400891Y-2437843D02*
X9377923Y-2420404D01*
X25049174Y-2617873D02*
X25012057Y-2623910D01*
X28532001Y-11808000D02*
X28560464Y-11805964D01*
X5392616Y-11555191D02*
X5429581Y-11551248D01*
X24709271Y-2504295D02*
X24686301Y-2474520D01*
X25783329Y-11789573D02*
X25808554Y-11775637D01*
X23212263Y-11758220D02*
X23232481Y-11737685D01*
X3873566Y-2594072D02*
X3840276Y-2576582D01*
X18525931Y-2458405D02*
X18505710Y-2437844D01*
X10232207Y-11559529D02*
X10269912Y-11570388D01*
X860677Y-2396266D02*
X832519Y-2390075D01*
X10154590Y-2645564D02*
X9734590Y-2645564D01*
X9377923Y-2420404D02*
X9352687Y-2406450D01*
X18592228Y-11653213D02*
X18621490Y-11627073D01*
X25399847Y-2389907D02*
X25372818Y-2395592D01*
X10269912Y-11570388D02*
X10306165Y-11585400D01*
X2701726Y-11574684D02*
X2737028Y-11563032D01*
X956068Y-2458371D02*
X935848Y-2437820D01*
X3210676Y-11789571D02*
X3237642Y-11799737D01*
X9297541Y-2390076D02*
X9268778Y-2388000D01*
X24521613Y-2388000D02*
X19725223Y-2388000D01*
X4324872Y-2452912D02*
X4307669Y-2474520D01*
X19616080Y-2420408D02*
X19593113Y-2437847D01*
X19745681Y-11799738D02*
X19773827Y-11805923D01*
X1076319Y-2587302D02*
X1046441Y-2565156D01*
X935848Y-2437820D02*
X912883Y-2420389D01*
X18483127Y-11775637D02*
X18506086Y-11758221D01*
X1561544Y-11563039D02*
X1596845Y-11574690D01*
X27933074Y-11799743D02*
X27961221Y-11805929D01*
X3051899Y-11630977D02*
X3079255Y-11656149D01*
X27820879Y-2481616D02*
X27799451Y-2512013D01*
X18430938Y-11799739D02*
X18457903Y-11789573D01*
X19572892Y-2458407D02*
X19555837Y-2481660D01*
X18543361Y-11714460D02*
X18566075Y-11682465D01*
X3981913Y-2623910D02*
X3944796Y-2617873D01*
X262000Y-2588000D02*
X262000Y-11608000D01*
X18724092Y-11570386D02*
X18761797Y-11559527D01*
X27906349Y-2406441D02*
X27881116Y-2420389D01*
X1492559Y-2565156D02*
X1462682Y-2587302D01*
X27858152Y-2437819D02*
X27837932Y-2458370D01*
X2635809Y-11608849D02*
X2667859Y-11590013D01*
X4057015Y-2623910D02*
X4019464Y-2625931D01*
X1596845Y-11574690D02*
X1630711Y-11590020D01*
X4019464Y-2625931D02*
X3981913Y-2623910D01*
X5039445Y-11799737D02*
X5066410Y-11789571D01*
X28732001Y-11608000D02*
X28732001Y-2588000D01*
X5114594Y-11758218D02*
X5134812Y-11737683D01*
X433537Y-2390036D02*
X405653Y-2396101D01*
X26467255Y-9995567D02*
G75*
G02*
X25857255Y-9995567I-305000J0D01*
G01*
X25857255Y-9995567D02*
G75*
G02*
X26467255Y-9995567I305000J0D01*
G01*
X5575361Y-11574683D02*
X5609228Y-11590013D01*
X1719987Y-11656153D02*
X1744519Y-11684084D01*
X1173359Y-11714459D02*
X1194789Y-11684084D01*
X1213925Y-2641003D02*
X1177572Y-2633155D01*
X18800207Y-2643363D02*
X18761498Y-2636783D01*
X26037894Y-11574684D02*
X26073196Y-11563032D01*
X1582935Y-2458373D02*
X1565878Y-2481616D01*
X5320976Y-11574684D02*
X5356278Y-11563032D01*
X1544451Y-2512013D02*
X1519919Y-2539965D01*
X1004047Y-11808000D02*
X1032789Y-11805924D01*
X23418644Y-11574684D02*
X23453946Y-11563032D01*
X23859192Y-11737684D02*
X23879411Y-11758219D01*
X25851731Y-11737685D02*
X25868788Y-11714456D01*
X25808554Y-11775637D02*
X25831513Y-11758220D01*
X3294531Y-11808000D02*
X4982556Y-11808000D01*
X27190778Y-11758219D02*
X27210997Y-11737684D01*
X25346831Y-2404946D02*
X25322380Y-2417792D01*
X1325076Y-2641003D02*
X1288096Y-2644949D01*
X27363293Y-11590013D02*
X27397160Y-11574684D01*
X19337323Y-2636783D02*
X19298613Y-2643362D01*
X2447162Y-11789573D02*
X2472386Y-11775637D01*
X28700251Y-11716128D02*
X28713927Y-11691083D01*
X26439954Y-11684080D02*
X26461385Y-11714456D01*
X3780261Y-2531433D02*
X3754229Y-2504295D01*
X2605938Y-11630977D02*
X2635809Y-11608849D01*
X24974506Y-2625931D02*
X24936956Y-2623910D01*
X24011449Y-11808000D02*
X25699474Y-11808000D01*
X18457903Y-11789573D02*
X18483127Y-11775637D01*
X1246677Y-11630982D02*
X1276548Y-11608854D01*
X9268778Y-2388000D02*
X4472358Y-2388000D01*
X1288096Y-2644949D02*
X1250905Y-2644949D01*
X5698505Y-11656149D02*
X5723037Y-11684080D01*
X9657009Y-11550754D02*
X10154348Y-11550759D01*
X293750Y-11716128D02*
X310850Y-11738972D01*
X5856892Y-11799737D02*
X5885038Y-11805923D01*
X2495346Y-11758221D02*
X2515565Y-11737686D01*
X9656679Y-2636783D02*
X9618950Y-2625909D01*
X1156304Y-11737688D02*
X1173359Y-11714459D01*
X19488773Y-11585393D02*
X19523118Y-11604368D01*
X10270231Y-2625908D02*
X10232502Y-2636782D01*
X18482743Y-2420405D02*
X18457506Y-2406450D01*
X25322380Y-2417792D02*
X25299933Y-2433883D01*
X18542984Y-2481660D02*
X18525931Y-2458405D01*
X10511260Y-2420409D02*
X10488293Y-2437847D01*
X19696461Y-2390080D02*
X19668297Y-2396274D01*
X9360710Y-11714456D02*
X9383424Y-11682461D01*
X9438164Y-2481660D02*
X9421111Y-2458404D01*
X26183674Y-11551248D02*
X26220639Y-11555191D01*
X18457506Y-2406450D02*
X18430525Y-2396270D01*
X25372818Y-2395592D02*
X25346831Y-2404946D01*
X10450645Y-11714458D02*
X10467703Y-11737684D01*
X24549166Y-2389909D02*
X24521613Y-2388000D01*
X28729965Y-11636463D02*
X28732001Y-11608000D01*
X331028Y-11759149D02*
X353872Y-11776250D01*
X1906519Y-11805926D02*
X1935262Y-11808000D01*
X1630711Y-11590020D02*
X1662761Y-11608854D01*
X9460875Y-2513690D02*
X9438164Y-2481660D01*
X27167819Y-11775636D02*
X27190778Y-11758219D01*
X27432572Y-2633155D02*
X27397257Y-2621494D01*
X24669097Y-2452914D02*
X24649079Y-2433884D01*
X405654Y-11799898D02*
X433537Y-11805963D01*
X3103787Y-11684080D02*
X3125217Y-11714456D01*
X27301442Y-2565156D02*
X27274082Y-2539965D01*
X27331320Y-2587302D02*
X27301442Y-2565156D01*
X24174427Y-9004126D02*
G75*
G02*
X23644427Y-9004126I-265000J0D01*
G01*
X23644427Y-9004126D02*
G75*
G02*
X24174427Y-9004126I265000J0D01*
G01*
X26461385Y-11714456D02*
X26478442Y-11737684D01*
X27274016Y-11656149D02*
X27301372Y-11630977D01*
X3754229Y-2504295D02*
X3731259Y-2474520D01*
X28560464Y-11805964D02*
X28588347Y-11799898D01*
X5151870Y-11714456D02*
X5173300Y-11684080D01*
X24863583Y-2607888D02*
X24828608Y-2594072D01*
X24764096Y-2555622D02*
X24735303Y-2531433D01*
X4982556Y-11808000D02*
X5011299Y-11805923D01*
X27774689Y-11656149D02*
X27799221Y-11684080D01*
X293750Y-2479872D02*
X280074Y-2504917D01*
X19584388Y-11653209D02*
X19610541Y-11682461D01*
X28588348Y-2396100D02*
X28560464Y-2390034D01*
X1603155Y-2437822D02*
X1582935Y-2458373D01*
X23453946Y-11563032D02*
X23490284Y-11555191D01*
X18621116Y-2569150D02*
X18591846Y-2542978D01*
X1803224Y-11758222D02*
X1826184Y-11775639D01*
X26220639Y-11555191D02*
X26256977Y-11563032D01*
X25756364Y-11799739D02*
X25783329Y-11789573D01*
X10340865Y-2591876D02*
X10306504Y-2610876D01*
X1765950Y-11714459D02*
X1783007Y-11737687D01*
X26415423Y-11656149D02*
X26439954Y-11684080D01*
X18565691Y-2513693D02*
X18542984Y-2481660D01*
X28683150Y-11738972D02*
X28700251Y-11716128D01*
X3621152Y-2395591D02*
X3594124Y-2389906D01*
X378917Y-2406074D02*
X353872Y-2419749D01*
X10945990Y-5249385D02*
G75*
G02*
X10425990Y-5249385I-260000J0D01*
G01*
X10425990Y-5249385D02*
G75*
G02*
X10945990Y-5249385I260000J0D01*
G01*
X27820651Y-11714456D02*
X27837707Y-11737685D01*
X1692632Y-11630982D02*
X1719987Y-11656153D01*
X4367337Y-2417790D02*
X4344889Y-2433881D01*
X2920809Y-11563032D02*
X2956111Y-11574683D01*
X26478442Y-11737684D02*
X26498661Y-11758219D01*
X3714055Y-2452913D02*
X3694038Y-2433883D01*
X27542940Y-11551248D02*
X27579905Y-11555191D01*
X19336951Y-11550754D02*
X19376128Y-11552953D01*
X19298613Y-2643362D02*
X19259410Y-2645565D01*
X24686301Y-2474520D02*
X24669097Y-2452914D01*
X2532620Y-11714456D02*
X2554050Y-11684080D01*
X25012057Y-2623910D02*
X24974506Y-2625931D01*
X23564424Y-11551248D02*
X23601389Y-11555191D01*
X27468800Y-11555191D02*
X27505765Y-11551248D01*
X3022028Y-11608849D02*
X3051899Y-11630977D01*
X4284699Y-2504295D02*
X4258668Y-2531433D01*
X2934751Y-9995567D02*
G75*
G02*
X2324751Y-9995567I-305000J0D01*
G01*
X2324751Y-9995567D02*
G75*
G02*
X2934751Y-9995567I305000J0D01*
G01*
X19725223Y-2388000D02*
X19696461Y-2390080D01*
X3185452Y-11775635D02*
X3210676Y-11789571D01*
X27058740Y-11808000D02*
X27087483Y-11805924D01*
X25213710Y-2531433D02*
X25184917Y-2555622D01*
X10306504Y-2610876D02*
X10270231Y-2625908D01*
X25427400Y-2388000D02*
X25399847Y-2389907D01*
X28700252Y-2479871D02*
X28683151Y-2457027D01*
X18653133Y-2591879D02*
X18621116Y-2569150D01*
X28683151Y-2457027D02*
X28662974Y-2436849D01*
X310850Y-2457028D02*
X293750Y-2479872D01*
X9275250Y-11789571D02*
X9300474Y-11775634D01*
X18839410Y-2645565D02*
X18800207Y-2643363D01*
X18402360Y-2390076D02*
X18373597Y-2388000D01*
X23384777Y-11590013D02*
X23418644Y-11574684D01*
X18566075Y-11682465D02*
X18592228Y-11653213D01*
X262000Y-11608000D02*
X264036Y-11636463D01*
X26424125Y-5249382D02*
G75*
G02*
X25904125Y-5249382I-260000J0D01*
G01*
X25904125Y-5249382D02*
G75*
G02*
X26424125Y-5249382I260000J0D01*
G01*
X270102Y-2531654D02*
X264036Y-2559537D01*
X19802570Y-11808000D02*
X23080224Y-11808000D01*
X18374050Y-11808000D02*
X18402792Y-11805924D01*
X27961221Y-11805929D02*
X27989965Y-11808000D01*
X353872Y-2419749D02*
X331028Y-2436850D01*
X9487029Y-2542976D02*
X9460875Y-2513690D01*
X27616429Y-2633155D02*
X27580076Y-2641003D01*
X18653494Y-11604373D02*
X18687839Y-11585397D01*
X27301372Y-11630977D02*
X27331243Y-11608849D01*
X887652Y-2406441D02*
X860677Y-2396266D01*
X25279916Y-2452913D02*
X25262711Y-2474520D01*
X4759750Y-9004114D02*
G75*
G02*
X4229750Y-9004114I-265000J0D01*
G01*
X4229750Y-9004114D02*
G75*
G02*
X4759750Y-9004114I265000J0D01*
G01*
X1113125Y-11775638D02*
X1136085Y-11758222D01*
X9541442Y-11570382D02*
X9579148Y-11559523D01*
X3125217Y-11714456D02*
X3142274Y-11737684D01*
X25699474Y-11808000D02*
X25728217Y-11805924D01*
X10536105Y-11789569D02*
X10563070Y-11799735D01*
X18402792Y-11805924D02*
X18430938Y-11799739D01*
X10467703Y-11737684D02*
X10487921Y-11758219D01*
X4198653Y-2576582D02*
X4165362Y-2594072D01*
X353872Y-11776250D02*
X378917Y-11789925D01*
X27990238Y-2388000D02*
X27961482Y-2390077D01*
X25868788Y-11714456D02*
X25890218Y-11684080D01*
X5091634Y-11775634D02*
X5114594Y-11758218D01*
X23902370Y-11775636D02*
X23927594Y-11789572D01*
X28713927Y-11691083D02*
X28723899Y-11664346D01*
X23295500Y-11656149D02*
X23322856Y-11630977D01*
X27249550Y-2512013D02*
X27228123Y-2481616D01*
X9582677Y-2610877D02*
X9548315Y-2591877D01*
X23796173Y-11656149D02*
X23820705Y-11684080D01*
X1194789Y-11684084D02*
X1219321Y-11656153D01*
X27142595Y-11789572D02*
X27167819Y-11775636D01*
X19414813Y-11559523D02*
X19452519Y-11570382D01*
X3809054Y-2555622D02*
X3780261Y-2531433D01*
X24936956Y-2623910D02*
X24899838Y-2617873D01*
X4229875Y-2555622D02*
X4198653Y-2576582D01*
X27989965Y-11808000D02*
X28532001Y-11808000D01*
X9548315Y-2591877D02*
X9516298Y-2569148D01*
X18430525Y-2396270D02*
X18402360Y-2390076D01*
X27331243Y-11608849D02*
X27363293Y-11590013D01*
X28640129Y-11776250D02*
X28662973Y-11759149D01*
X19668297Y-2396274D02*
X19641316Y-2406454D01*
X5913781Y-11808000D02*
X9191396Y-11808000D01*
X912883Y-2420389D02*
X887652Y-2406441D01*
X5540059Y-11563032D02*
X5575361Y-11574683D01*
X28615084Y-11789926D02*
X28640129Y-11776250D01*
X10401776Y-11653214D02*
X10427928Y-11682465D01*
X24735303Y-2531433D02*
X24709271Y-2504295D01*
X1451067Y-11551256D02*
X1488241Y-11551256D01*
X1626119Y-2420392D02*
X1603155Y-2437822D01*
X23673029Y-11574683D02*
X23706896Y-11590013D01*
X18373597Y-2388000D02*
X10620403Y-2388000D01*
X23322856Y-11630977D02*
X23352727Y-11608849D01*
X27249484Y-11684080D02*
X27274016Y-11656149D01*
D11*
D12*
X565250Y-3200500D02*
X740250Y-3375500D01*
X740250Y-3200500D02*
X565250Y-3375500D01*
X803350Y-7010500D02*
X978350Y-7185500D01*
X978350Y-7010500D02*
X803350Y-7185500D01*
X1041550Y-5105500D02*
X1216550Y-5280500D01*
X1216550Y-5105500D02*
X1041550Y-5280500D01*
X1041550Y-10820500D02*
X1216550Y-10995500D01*
X1216550Y-10820500D02*
X1041550Y-10995500D01*
X1279650Y-7010500D02*
X1454650Y-7185500D01*
X1454650Y-7010500D02*
X1279650Y-7185500D01*
X1581250Y-3200500D02*
X1756250Y-3375500D01*
X1756250Y-3200500D02*
X1581250Y-3375500D01*
X1763310Y-8915500D02*
X1938310Y-9090500D01*
X1938310Y-8915500D02*
X1763310Y-9090500D01*
X1819350Y-7010500D02*
X1994350Y-7185500D01*
X1994350Y-7010500D02*
X1819350Y-7185500D01*
X2057550Y-5105500D02*
X2232550Y-5280500D01*
X2232550Y-5105500D02*
X2057550Y-5280500D01*
X2057550Y-10820500D02*
X2232550Y-10995500D01*
X2232550Y-10820500D02*
X2057550Y-10995500D01*
X2295650Y-7010500D02*
X2470650Y-7185500D01*
X2470650Y-7010500D02*
X2295650Y-7185500D01*
X2470250Y-3200500D02*
X2645250Y-3375500D01*
X2645250Y-3200500D02*
X2470250Y-3375500D01*
X2779310Y-8915500D02*
X2954310Y-9090500D01*
X2954310Y-8915500D02*
X2779310Y-9090500D01*
X3422750Y-5105500D02*
X3597750Y-5280500D01*
X3597750Y-5105500D02*
X3422750Y-5280500D01*
X3422750Y-10820500D02*
X3597750Y-10995500D01*
X3597750Y-10820500D02*
X3422750Y-10995500D01*
X3486250Y-3200500D02*
X3661250Y-3375500D01*
X3661250Y-3200500D02*
X3486250Y-3375500D01*
X3899000Y-7010500D02*
X4074000Y-7185500D01*
X4074000Y-7010500D02*
X3899000Y-7185500D01*
X4375250Y-3200500D02*
X4550250Y-3375500D01*
X4550250Y-3200500D02*
X4375250Y-3375500D01*
X4438750Y-5105500D02*
X4613750Y-5280500D01*
X4613750Y-5105500D02*
X4438750Y-5280500D01*
X4438750Y-10820500D02*
X4613750Y-10995500D01*
X4613750Y-10820500D02*
X4438750Y-10995500D01*
X4851500Y-8915500D02*
X5026500Y-9090500D01*
X5026500Y-8915500D02*
X4851500Y-9090500D01*
X4915000Y-7010500D02*
X5090000Y-7185500D01*
X5090000Y-7010500D02*
X4915000Y-7185500D01*
X5327750Y-5105500D02*
X5502750Y-5280500D01*
X5502750Y-5105500D02*
X5327750Y-5280500D01*
X5391250Y-3200500D02*
X5566250Y-3375500D01*
X5566250Y-3200500D02*
X5391250Y-3375500D01*
X5804000Y-7010500D02*
X5979000Y-7185500D01*
X5979000Y-7010500D02*
X5804000Y-7185500D01*
X5804050Y-10820500D02*
X5979050Y-10995500D01*
X5979050Y-10820500D02*
X5804050Y-10995500D01*
X5867500Y-8915500D02*
X6042500Y-9090500D01*
X6042500Y-8915500D02*
X5867500Y-9090500D01*
X6280250Y-3200500D02*
X6455250Y-3375500D01*
X6455250Y-3200500D02*
X6280250Y-3375500D01*
X6343750Y-5105500D02*
X6518750Y-5280500D01*
X6518750Y-5105500D02*
X6343750Y-5280500D01*
X6756500Y-8915500D02*
X6931500Y-9090500D01*
X6931500Y-8915500D02*
X6756500Y-9090500D01*
X6820000Y-7010500D02*
X6995000Y-7185500D01*
X6995000Y-7010500D02*
X6820000Y-7185500D01*
X6820050Y-10820500D02*
X6995050Y-10995500D01*
X6995050Y-10820500D02*
X6820050Y-10995500D01*
X7232750Y-5105500D02*
X7407750Y-5280500D01*
X7407750Y-5105500D02*
X7232750Y-5280500D01*
X7296250Y-3200500D02*
X7471250Y-3375500D01*
X7471250Y-3200500D02*
X7296250Y-3375500D01*
X7709000Y-7010500D02*
X7884000Y-7185500D01*
X7884000Y-7010500D02*
X7709000Y-7185500D01*
X7772500Y-8915500D02*
X7947500Y-9090500D01*
X7947500Y-8915500D02*
X7772500Y-9090500D01*
X8185250Y-3200500D02*
X8360250Y-3375500D01*
X8360250Y-3200500D02*
X8185250Y-3375500D01*
X8248750Y-5105500D02*
X8423750Y-5280500D01*
X8423750Y-5105500D02*
X8248750Y-5280500D01*
X8661500Y-8915500D02*
X8836500Y-9090500D01*
X8836500Y-8915500D02*
X8661500Y-9090500D01*
X8725000Y-7010500D02*
X8900000Y-7185500D01*
X8900000Y-7010500D02*
X8725000Y-7185500D01*
X9137750Y-5105500D02*
X9312750Y-5280500D01*
X9312750Y-5105500D02*
X9137750Y-5280500D01*
X9201250Y-3200500D02*
X9376250Y-3375500D01*
X9376250Y-3200500D02*
X9201250Y-3375500D01*
X9614000Y-7010500D02*
X9789000Y-7185500D01*
X9789000Y-7010500D02*
X9614000Y-7185500D01*
X9677500Y-8915500D02*
X9852500Y-9090500D01*
X9852500Y-8915500D02*
X9677500Y-9090500D01*
X10090250Y-3200500D02*
X10265250Y-3375500D01*
X10265250Y-3200500D02*
X10090250Y-3375500D01*
X10153750Y-5105500D02*
X10328750Y-5280500D01*
X10328750Y-5105500D02*
X10153750Y-5280500D01*
X10566500Y-8915500D02*
X10741500Y-9090500D01*
X10741500Y-8915500D02*
X10566500Y-9090500D01*
X10630000Y-7010500D02*
X10805000Y-7185500D01*
X10805000Y-7010500D02*
X10630000Y-7185500D01*
X11042750Y-5105500D02*
X11217750Y-5280500D01*
X11217750Y-5105500D02*
X11042750Y-5280500D01*
X11106250Y-3200500D02*
X11281250Y-3375500D01*
X11281250Y-3200500D02*
X11106250Y-3375500D01*
X11519000Y-7010500D02*
X11694000Y-7185500D01*
X11694000Y-7010500D02*
X11519000Y-7185500D01*
X11582500Y-8915500D02*
X11757500Y-9090500D01*
X11757500Y-8915500D02*
X11582500Y-9090500D01*
X11995250Y-3200500D02*
X12170250Y-3375500D01*
X12170250Y-3200500D02*
X11995250Y-3375500D01*
X12058750Y-5105500D02*
X12233750Y-5280500D01*
X12233750Y-5105500D02*
X12058750Y-5280500D01*
X12471500Y-8915500D02*
X12646500Y-9090500D01*
X12646500Y-8915500D02*
X12471500Y-9090500D01*
X12535000Y-7010500D02*
X12710000Y-7185500D01*
X12710000Y-7010500D02*
X12535000Y-7185500D01*
X12947750Y-5105500D02*
X13122750Y-5280500D01*
X13122750Y-5105500D02*
X12947750Y-5280500D01*
X13011250Y-3200500D02*
X13186250Y-3375500D01*
X13186250Y-3200500D02*
X13011250Y-3375500D01*
X13424000Y-7010500D02*
X13599000Y-7185500D01*
X13599000Y-7010500D02*
X13424000Y-7185500D01*
X13487500Y-8915500D02*
X13662500Y-9090500D01*
X13662500Y-8915500D02*
X13487500Y-9090500D01*
X13900250Y-3200500D02*
X14075250Y-3375500D01*
X14075250Y-3200500D02*
X13900250Y-3375500D01*
X13900250Y-10820500D02*
X14075250Y-10995500D01*
X14075250Y-10820500D02*
X13900250Y-10995500D01*
X13963750Y-5105500D02*
X14138750Y-5280500D01*
X14138750Y-5105500D02*
X13963750Y-5280500D01*
X14376500Y-8915500D02*
X14551500Y-9090500D01*
X14551500Y-8915500D02*
X14376500Y-9090500D01*
X14440000Y-7010500D02*
X14615000Y-7185500D01*
X14615000Y-7010500D02*
X14440000Y-7185500D01*
X14852750Y-5105500D02*
X15027750Y-5280500D01*
X15027750Y-5105500D02*
X14852750Y-5280500D01*
X14916250Y-3200500D02*
X15091250Y-3375500D01*
X15091250Y-3200500D02*
X14916250Y-3375500D01*
X14916250Y-10820500D02*
X15091250Y-10995500D01*
X15091250Y-10820500D02*
X14916250Y-10995500D01*
X15329000Y-7010500D02*
X15504000Y-7185500D01*
X15504000Y-7010500D02*
X15329000Y-7185500D01*
X15392500Y-8915500D02*
X15567500Y-9090500D01*
X15567500Y-8915500D02*
X15392500Y-9090500D01*
X15805250Y-3200500D02*
X15980250Y-3375500D01*
X15980250Y-3200500D02*
X15805250Y-3375500D01*
X15868750Y-5105500D02*
X16043750Y-5280500D01*
X16043750Y-5105500D02*
X15868750Y-5280500D01*
X16281500Y-8915500D02*
X16456500Y-9090500D01*
X16456500Y-8915500D02*
X16281500Y-9090500D01*
X16345000Y-7010500D02*
X16520000Y-7185500D01*
X16520000Y-7010500D02*
X16345000Y-7185500D01*
X16757750Y-5105500D02*
X16932750Y-5280500D01*
X16932750Y-5105500D02*
X16757750Y-5280500D01*
X16821250Y-3200500D02*
X16996250Y-3375500D01*
X16996250Y-3200500D02*
X16821250Y-3375500D01*
X17234000Y-7010500D02*
X17409000Y-7185500D01*
X17409000Y-7010500D02*
X17234000Y-7185500D01*
X17297500Y-8915500D02*
X17472500Y-9090500D01*
X17472500Y-8915500D02*
X17297500Y-9090500D01*
X17710250Y-3200500D02*
X17885250Y-3375500D01*
X17885250Y-3200500D02*
X17710250Y-3375500D01*
X17773750Y-5105500D02*
X17948750Y-5280500D01*
X17948750Y-5105500D02*
X17773750Y-5280500D01*
X18186500Y-8915500D02*
X18361500Y-9090500D01*
X18361500Y-8915500D02*
X18186500Y-9090500D01*
X18250000Y-7010500D02*
X18425000Y-7185500D01*
X18425000Y-7010500D02*
X18250000Y-7185500D01*
X18662750Y-5105500D02*
X18837750Y-5280500D01*
X18837750Y-5105500D02*
X18662750Y-5280500D01*
X18726250Y-3200500D02*
X18901250Y-3375500D01*
X18901250Y-3200500D02*
X18726250Y-3375500D01*
X19139000Y-7010500D02*
X19314000Y-7185500D01*
X19314000Y-7010500D02*
X19139000Y-7185500D01*
X19202500Y-8915500D02*
X19377500Y-9090500D01*
X19377500Y-8915500D02*
X19202500Y-9090500D01*
X19615250Y-3200500D02*
X19790250Y-3375500D01*
X19790250Y-3200500D02*
X19615250Y-3375500D01*
X19678750Y-5105500D02*
X19853750Y-5280500D01*
X19853750Y-5105500D02*
X19678750Y-5280500D01*
X20091500Y-8915500D02*
X20266500Y-9090500D01*
X20266500Y-8915500D02*
X20091500Y-9090500D01*
X20155000Y-7010500D02*
X20330000Y-7185500D01*
X20330000Y-7010500D02*
X20155000Y-7185500D01*
X20567750Y-5105500D02*
X20742750Y-5280500D01*
X20742750Y-5105500D02*
X20567750Y-5280500D01*
X20631250Y-3200500D02*
X20806250Y-3375500D01*
X20806250Y-3200500D02*
X20631250Y-3375500D01*
X21044000Y-7010500D02*
X21219000Y-7185500D01*
X21219000Y-7010500D02*
X21044000Y-7185500D01*
X21107500Y-8915500D02*
X21282500Y-9090500D01*
X21282500Y-8915500D02*
X21107500Y-9090500D01*
X21520250Y-3200500D02*
X21695250Y-3375500D01*
X21695250Y-3200500D02*
X21520250Y-3375500D01*
X21583750Y-5105500D02*
X21758750Y-5280500D01*
X21758750Y-5105500D02*
X21583750Y-5280500D01*
X21996500Y-8915500D02*
X22171500Y-9090500D01*
X22171500Y-8915500D02*
X21996500Y-9090500D01*
X21996550Y-10820500D02*
X22171550Y-10995500D01*
X22171550Y-10820500D02*
X21996550Y-10995500D01*
X22060000Y-7010500D02*
X22235000Y-7185500D01*
X22235000Y-7010500D02*
X22060000Y-7185500D01*
X22472750Y-5105500D02*
X22647750Y-5280500D01*
X22647750Y-5105500D02*
X22472750Y-5280500D01*
X22536250Y-3200500D02*
X22711250Y-3375500D01*
X22711250Y-3200500D02*
X22536250Y-3375500D01*
X22949000Y-7010500D02*
X23124000Y-7185500D01*
X23124000Y-7010500D02*
X22949000Y-7185500D01*
X23012500Y-8915500D02*
X23187500Y-9090500D01*
X23187500Y-8915500D02*
X23012500Y-9090500D01*
X23012550Y-10820500D02*
X23187550Y-10995500D01*
X23187550Y-10820500D02*
X23012550Y-10995500D01*
X23425250Y-3200500D02*
X23600250Y-3375500D01*
X23600250Y-3200500D02*
X23425250Y-3375500D01*
X23488750Y-5105500D02*
X23663750Y-5280500D01*
X23663750Y-5105500D02*
X23488750Y-5280500D01*
X23965000Y-7010500D02*
X24140000Y-7185500D01*
X24140000Y-7010500D02*
X23965000Y-7185500D01*
X24377750Y-5105500D02*
X24552750Y-5280500D01*
X24552750Y-5105500D02*
X24377750Y-5280500D01*
X24377750Y-10820500D02*
X24552750Y-10995500D01*
X24552750Y-10820500D02*
X24377750Y-10995500D01*
X24441250Y-3200500D02*
X24616250Y-3375500D01*
X24616250Y-3200500D02*
X24441250Y-3375500D01*
X24615900Y-8915500D02*
X24790900Y-9090500D01*
X24790900Y-8915500D02*
X24615900Y-9090500D01*
X25330250Y-3200500D02*
X25505250Y-3375500D01*
X25505250Y-3200500D02*
X25330250Y-3375500D01*
X25393750Y-5105500D02*
X25568750Y-5280500D01*
X25568750Y-5105500D02*
X25393750Y-5280500D01*
X25393750Y-10820500D02*
X25568750Y-10995500D01*
X25568750Y-10820500D02*
X25393750Y-10995500D01*
X25631900Y-8915500D02*
X25806900Y-9090500D01*
X25806900Y-8915500D02*
X25631900Y-9090500D01*
X26052060Y-7010500D02*
X26227060Y-7185500D01*
X26227060Y-7010500D02*
X26052060Y-7185500D01*
X26282750Y-3200500D02*
X26457750Y-3375500D01*
X26457750Y-3200500D02*
X26282750Y-3375500D01*
X26346250Y-3200500D02*
X26521250Y-3375500D01*
X26521250Y-3200500D02*
X26346250Y-3375500D01*
X26759050Y-5105500D02*
X26934050Y-5280500D01*
X26934050Y-5105500D02*
X26759050Y-5280500D01*
X26759050Y-10820500D02*
X26934050Y-10995500D01*
X26934050Y-10820500D02*
X26759050Y-10995500D01*
X27068060Y-7010500D02*
X27243060Y-7185500D01*
X27243060Y-7010500D02*
X27068060Y-7185500D01*
X27235250Y-3200500D02*
X27410250Y-3375500D01*
X27410250Y-3200500D02*
X27235250Y-3375500D01*
X27235250Y-8915500D02*
X27410250Y-9090500D01*
X27410250Y-8915500D02*
X27235250Y-9090500D01*
X27298750Y-3200500D02*
X27473750Y-3375500D01*
X27473750Y-3200500D02*
X27298750Y-3375500D01*
X27775050Y-5105500D02*
X27950050Y-5280500D01*
X27950050Y-5105500D02*
X27775050Y-5280500D01*
X27775050Y-10820500D02*
X27950050Y-10995500D01*
X27950050Y-10820500D02*
X27775050Y-10995500D01*
X28251250Y-3200500D02*
X28426250Y-3375500D01*
X28426250Y-3200500D02*
X28251250Y-3375500D01*
X28251250Y-8915500D02*
X28426250Y-9090500D01*
X28426250Y-8915500D02*
X28251250Y-9090500D01*
D13*
X1317410Y-8304500D02*
G75*
G02*
X1012610Y-8304500I-152400J0D01*
G01*
X1012610Y-8304500D02*
G75*
G02*
X1317410Y-8304500I152400J0D01*
G01*
X3705010Y-8304500D02*
G75*
G02*
X3400210Y-8304500I-152400J0D01*
G01*
X3400210Y-8304500D02*
G75*
G02*
X3705010Y-8304500I152400J0D01*
G01*
X8933150Y-11606500D02*
G75*
G02*
X8628350Y-11606500I-152400J0D01*
G01*
X8628350Y-11606500D02*
G75*
G02*
X8933150Y-11606500I152400J0D01*
G01*
X20363150Y-11606500D02*
G75*
G02*
X20058350Y-11606500I-152400J0D01*
G01*
X20058350Y-11606500D02*
G75*
G02*
X20363150Y-11606500I152400J0D01*
G01*
X25606160Y-6399500D02*
G75*
G02*
X25301360Y-6399500I-152400J0D01*
G01*
X25301360Y-6399500D02*
G75*
G02*
X25606160Y-6399500I152400J0D01*
G01*
X25836850Y-2589500D02*
G75*
G02*
X25532050Y-2589500I-152400J0D01*
G01*
X25532050Y-2589500D02*
G75*
G02*
X25836850Y-2589500I152400J0D01*
G01*
X27993760Y-6399500D02*
G75*
G02*
X27688960Y-6399500I-152400J0D01*
G01*
X27688960Y-6399500D02*
G75*
G02*
X27993760Y-6399500I152400J0D01*
G01*
X28224450Y-2589500D02*
G75*
G02*
X27919650Y-2589500I-152400J0D01*
G01*
X27919650Y-2589500D02*
G75*
G02*
X28224450Y-2589500I152400J0D01*
G01*
D14*
X1160750Y-3088610D02*
X1160750Y-3487390D01*
X961360Y-3288000D02*
X1360140Y-3288000D01*
X1165010Y-9629110D02*
X1165010Y-10027890D01*
X965620Y-9828500D02*
X1364400Y-9828500D01*
X1398850Y-6898610D02*
X1398850Y-7297390D01*
X1199460Y-7098000D02*
X1598240Y-7098000D01*
X1637050Y-4993610D02*
X1637050Y-5392390D01*
X1437660Y-5193000D02*
X1836440Y-5193000D01*
X1637050Y-10708610D02*
X1637050Y-11107390D01*
X1437660Y-10908000D02*
X1836440Y-10908000D01*
X1875150Y-6898610D02*
X1875150Y-7297390D01*
X1675760Y-7098000D02*
X2074540Y-7098000D01*
X2358810Y-8803610D02*
X2358810Y-9202390D01*
X2159420Y-9003000D02*
X2558200Y-9003000D01*
X3065750Y-3088610D02*
X3065750Y-3487390D01*
X2866360Y-3288000D02*
X3265140Y-3288000D01*
X3552610Y-9629110D02*
X3552610Y-10027890D01*
X3353220Y-9828500D02*
X3752000Y-9828500D01*
X4018250Y-4993610D02*
X4018250Y-5392390D01*
X3818860Y-5193000D02*
X4217640Y-5193000D01*
X4018250Y-10708610D02*
X4018250Y-11107390D01*
X3818860Y-10908000D02*
X4217640Y-10908000D01*
X4494500Y-6898610D02*
X4494500Y-7297390D01*
X4295110Y-7098000D02*
X4693890Y-7098000D01*
X4970750Y-3088610D02*
X4970750Y-3487390D01*
X4771360Y-3288000D02*
X5170140Y-3288000D01*
X5447000Y-8803610D02*
X5447000Y-9202390D01*
X5247610Y-9003000D02*
X5646390Y-9003000D01*
X5923250Y-4993610D02*
X5923250Y-5392390D01*
X5723860Y-5193000D02*
X6122640Y-5193000D01*
X6399500Y-6898610D02*
X6399500Y-7297390D01*
X6200110Y-7098000D02*
X6598890Y-7098000D01*
X6399550Y-10708610D02*
X6399550Y-11107390D01*
X6200160Y-10908000D02*
X6598940Y-10908000D01*
X6875750Y-3088610D02*
X6875750Y-3487390D01*
X6676360Y-3288000D02*
X7075140Y-3288000D01*
X7352000Y-8803610D02*
X7352000Y-9202390D01*
X7152610Y-9003000D02*
X7551390Y-9003000D01*
X7828250Y-4993610D02*
X7828250Y-5392390D01*
X7628860Y-5193000D02*
X8027640Y-5193000D01*
X8304500Y-6898610D02*
X8304500Y-7297390D01*
X8105110Y-7098000D02*
X8503890Y-7098000D01*
X8780750Y-3088610D02*
X8780750Y-3487390D01*
X8581360Y-3288000D02*
X8980140Y-3288000D01*
X8780750Y-9883110D02*
X8780750Y-10281890D01*
X8581360Y-10082500D02*
X8980140Y-10082500D01*
X9257000Y-8803610D02*
X9257000Y-9202390D01*
X9057610Y-9003000D02*
X9456390Y-9003000D01*
X9733250Y-4993610D02*
X9733250Y-5392390D01*
X9533860Y-5193000D02*
X9932640Y-5193000D01*
X10209500Y-6898610D02*
X10209500Y-7297390D01*
X10010110Y-7098000D02*
X10408890Y-7098000D01*
X10685750Y-3088610D02*
X10685750Y-3487390D01*
X10486360Y-3288000D02*
X10885140Y-3288000D01*
X11162000Y-8803610D02*
X11162000Y-9202390D01*
X10962610Y-9003000D02*
X11361390Y-9003000D01*
X11638250Y-4993610D02*
X11638250Y-5392390D01*
X11438860Y-5193000D02*
X11837640Y-5193000D01*
X12114500Y-6898610D02*
X12114500Y-7297390D01*
X11915110Y-7098000D02*
X12313890Y-7098000D01*
X12590750Y-3088610D02*
X12590750Y-3487390D01*
X12391360Y-3288000D02*
X12790140Y-3288000D01*
X13067000Y-8803610D02*
X13067000Y-9202390D01*
X12867610Y-9003000D02*
X13266390Y-9003000D01*
X13543250Y-4993610D02*
X13543250Y-5392390D01*
X13343860Y-5193000D02*
X13742640Y-5193000D01*
X14019500Y-6898610D02*
X14019500Y-7297390D01*
X13820110Y-7098000D02*
X14218890Y-7098000D01*
X14495750Y-3088610D02*
X14495750Y-3487390D01*
X14296360Y-3288000D02*
X14695140Y-3288000D01*
X14495750Y-10708610D02*
X14495750Y-11107390D01*
X14296360Y-10908000D02*
X14695140Y-10908000D01*
X14972000Y-8803610D02*
X14972000Y-9202390D01*
X14772610Y-9003000D02*
X15171390Y-9003000D01*
X15448250Y-4993610D02*
X15448250Y-5392390D01*
X15248860Y-5193000D02*
X15647640Y-5193000D01*
X15924500Y-6898610D02*
X15924500Y-7297390D01*
X15725110Y-7098000D02*
X16123890Y-7098000D01*
X16400750Y-3088610D02*
X16400750Y-3487390D01*
X16201360Y-3288000D02*
X16600140Y-3288000D01*
X16877000Y-8803610D02*
X16877000Y-9202390D01*
X16677610Y-9003000D02*
X17076390Y-9003000D01*
X17353250Y-4993610D02*
X17353250Y-5392390D01*
X17153860Y-5193000D02*
X17552640Y-5193000D01*
X17829500Y-6898610D02*
X17829500Y-7297390D01*
X17630110Y-7098000D02*
X18028890Y-7098000D01*
X18305750Y-3088610D02*
X18305750Y-3487390D01*
X18106360Y-3288000D02*
X18505140Y-3288000D01*
X18782000Y-8803610D02*
X18782000Y-9202390D01*
X18582610Y-9003000D02*
X18981390Y-9003000D01*
X19258250Y-4993610D02*
X19258250Y-5392390D01*
X19058860Y-5193000D02*
X19457640Y-5193000D01*
X19734500Y-6898610D02*
X19734500Y-7297390D01*
X19535110Y-7098000D02*
X19933890Y-7098000D01*
X20210750Y-3088610D02*
X20210750Y-3487390D01*
X20011360Y-3288000D02*
X20410140Y-3288000D01*
X20210750Y-9883110D02*
X20210750Y-10281890D01*
X20011360Y-10082500D02*
X20410140Y-10082500D01*
X20687000Y-8803610D02*
X20687000Y-9202390D01*
X20487610Y-9003000D02*
X20886390Y-9003000D01*
X21163250Y-4993610D02*
X21163250Y-5392390D01*
X20963860Y-5193000D02*
X21362640Y-5193000D01*
X21639500Y-6898610D02*
X21639500Y-7297390D01*
X21440110Y-7098000D02*
X21838890Y-7098000D01*
X22115750Y-3088610D02*
X22115750Y-3487390D01*
X21916360Y-3288000D02*
X22315140Y-3288000D01*
X22592000Y-8803610D02*
X22592000Y-9202390D01*
X22392610Y-9003000D02*
X22791390Y-9003000D01*
X22592050Y-10708610D02*
X22592050Y-11107390D01*
X22392660Y-10908000D02*
X22791440Y-10908000D01*
X23068250Y-4993610D02*
X23068250Y-5392390D01*
X22868860Y-5193000D02*
X23267640Y-5193000D01*
X23544500Y-6898610D02*
X23544500Y-7297390D01*
X23345110Y-7098000D02*
X23743890Y-7098000D01*
X24020750Y-3088610D02*
X24020750Y-3487390D01*
X23821360Y-3288000D02*
X24220140Y-3288000D01*
X24973250Y-4993610D02*
X24973250Y-5392390D01*
X24773860Y-5193000D02*
X25172640Y-5193000D01*
X24973250Y-10708610D02*
X24973250Y-11107390D01*
X24773860Y-10908000D02*
X25172640Y-10908000D01*
X25211400Y-8803610D02*
X25211400Y-9202390D01*
X25012010Y-9003000D02*
X25410790Y-9003000D01*
X25453760Y-7724110D02*
X25453760Y-8122890D01*
X25254370Y-7923500D02*
X25653150Y-7923500D01*
X25684450Y-3914110D02*
X25684450Y-4312890D01*
X25485060Y-4113500D02*
X25883840Y-4113500D01*
X25925750Y-3088610D02*
X25925750Y-3487390D01*
X25726360Y-3288000D02*
X26125140Y-3288000D01*
X26647560Y-6898610D02*
X26647560Y-7297390D01*
X26448170Y-7098000D02*
X26846950Y-7098000D01*
X26878250Y-3088610D02*
X26878250Y-3487390D01*
X26678860Y-3288000D02*
X27077640Y-3288000D01*
X27354550Y-4993610D02*
X27354550Y-5392390D01*
X27155160Y-5193000D02*
X27553940Y-5193000D01*
X27354550Y-10708610D02*
X27354550Y-11107390D01*
X27155160Y-10908000D02*
X27553940Y-10908000D01*
X27830750Y-3088610D02*
X27830750Y-3487390D01*
X27631360Y-3288000D02*
X28030140Y-3288000D01*
X27830750Y-8803610D02*
X27830750Y-9202390D01*
X27631360Y-9003000D02*
X28030140Y-9003000D01*
X27841360Y-7724110D02*
X27841360Y-8122890D01*
X27641970Y-7923500D02*
X28040750Y-7923500D01*
X28072050Y-3914110D02*
X28072050Y-4312890D01*
X27872660Y-4113500D02*
X28271440Y-4113500D01*
D15*
X1778473Y-5334423D02*
X1778473Y-5051577D01*
X1495627Y-5051577D01*
X1495627Y-5334423D01*
X1778473Y-5334423D01*
X1778473Y-11049423D02*
X1778473Y-10766577D01*
X1495627Y-10766577D01*
X1495627Y-11049423D01*
X1778473Y-11049423D01*
X6540973Y-11049423D02*
X6540973Y-10766577D01*
X6258127Y-10766577D01*
X6258127Y-11049423D01*
X6540973Y-11049423D01*
X22733473Y-11049423D02*
X22733473Y-10766577D01*
X22450627Y-10766577D01*
X22450627Y-11049423D01*
X22733473Y-11049423D01*
X27495973Y-5334423D02*
X27495973Y-5051577D01*
X27213127Y-5051577D01*
X27213127Y-5334423D01*
X27495973Y-5334423D01*
X27495973Y-11049423D02*
X27495973Y-10766577D01*
X27213127Y-10766577D01*
X27213127Y-11049423D01*
X27495973Y-11049423D01*
D11*
X497777Y-12144484D02*
X497777Y-11944484D01*
X497777Y-11944484D02*
X545396Y-11944484D01*
X545396Y-11944484D02*
X573967Y-11954008D01*
X573967Y-11954008D02*
X593015Y-11973055D01*
X593015Y-11973055D02*
X602539Y-11992103D01*
X602539Y-11992103D02*
X612063Y-12030198D01*
X612063Y-12030198D02*
X612063Y-12058769D01*
X612063Y-12058769D02*
X602539Y-12096865D01*
X602539Y-12096865D02*
X593015Y-12115912D01*
X593015Y-12115912D02*
X573967Y-12134960D01*
X573967Y-12134960D02*
X545396Y-12144484D01*
X545396Y-12144484D02*
X497777Y-12144484D01*
X697777Y-12144484D02*
X697777Y-12011150D01*
X697777Y-12049246D02*
X707301Y-12030198D01*
X707301Y-12030198D02*
X716824Y-12020674D01*
X716824Y-12020674D02*
X735872Y-12011150D01*
X735872Y-12011150D02*
X754920Y-12011150D01*
X821586Y-12144484D02*
X821586Y-12011150D01*
X821586Y-11944484D02*
X812062Y-11954008D01*
X812062Y-11954008D02*
X821586Y-11963531D01*
X821586Y-11963531D02*
X831110Y-11954008D01*
X831110Y-11954008D02*
X821586Y-11944484D01*
X821586Y-11944484D02*
X821586Y-11963531D01*
X945396Y-12144484D02*
X926348Y-12134960D01*
X926348Y-12134960D02*
X916824Y-12115912D01*
X916824Y-12115912D02*
X916824Y-11944484D01*
X1050158Y-12144484D02*
X1031110Y-12134960D01*
X1031110Y-12134960D02*
X1021586Y-12115912D01*
X1021586Y-12115912D02*
X1021586Y-11944484D01*
X1278729Y-12144484D02*
X1278729Y-11944484D01*
X1278729Y-11944484D02*
X1345396Y-12087341D01*
X1345396Y-12087341D02*
X1412062Y-11944484D01*
X1412062Y-11944484D02*
X1412062Y-12144484D01*
X1593015Y-12144484D02*
X1593015Y-12039722D01*
X1593015Y-12039722D02*
X1583491Y-12020674D01*
X1583491Y-12020674D02*
X1564443Y-12011150D01*
X1564443Y-12011150D02*
X1526348Y-12011150D01*
X1526348Y-12011150D02*
X1507301Y-12020674D01*
X1593015Y-12134960D02*
X1573967Y-12144484D01*
X1573967Y-12144484D02*
X1526348Y-12144484D01*
X1526348Y-12144484D02*
X1507301Y-12134960D01*
X1507301Y-12134960D02*
X1497777Y-12115912D01*
X1497777Y-12115912D02*
X1497777Y-12096865D01*
X1497777Y-12096865D02*
X1507301Y-12077817D01*
X1507301Y-12077817D02*
X1526348Y-12068293D01*
X1526348Y-12068293D02*
X1573967Y-12068293D01*
X1573967Y-12068293D02*
X1593015Y-12058769D01*
X1688253Y-12011150D02*
X1688253Y-12211150D01*
X1688253Y-12020674D02*
X1707301Y-12011150D01*
X1707301Y-12011150D02*
X1745396Y-12011150D01*
X1745396Y-12011150D02*
X1764443Y-12020674D01*
X1764443Y-12020674D02*
X1773967Y-12030198D01*
X1773967Y-12030198D02*
X1783491Y-12049246D01*
X1783491Y-12049246D02*
X1783491Y-12106388D01*
X1783491Y-12106388D02*
X1773967Y-12125436D01*
X1773967Y-12125436D02*
X1764443Y-12134960D01*
X1764443Y-12134960D02*
X1745396Y-12144484D01*
X1745396Y-12144484D02*
X1707301Y-12144484D01*
X1707301Y-12144484D02*
X1688253Y-12134960D01*
X1869205Y-12125436D02*
X1878729Y-12134960D01*
X1878729Y-12134960D02*
X1869205Y-12144484D01*
X1869205Y-12144484D02*
X1859682Y-12134960D01*
X1859682Y-12134960D02*
X1869205Y-12125436D01*
X1869205Y-12125436D02*
X1869205Y-12144484D01*
X1869205Y-12020674D02*
X1878729Y-12030198D01*
X1878729Y-12030198D02*
X1869205Y-12039722D01*
X1869205Y-12039722D02*
X1859682Y-12030198D01*
X1859682Y-12030198D02*
X1869205Y-12020674D01*
X1869205Y-12020674D02*
X1869205Y-12039722D01*
D12*
X62000Y-12385500D02*
X237000Y-12560500D01*
X237000Y-12385500D02*
X62000Y-12560500D01*
D11*
X602539Y-12564484D02*
X488253Y-12564484D01*
X545396Y-12564484D02*
X545396Y-12364484D01*
X545396Y-12364484D02*
X526348Y-12393055D01*
X526348Y-12393055D02*
X507301Y-12412103D01*
X507301Y-12412103D02*
X488253Y-12421627D01*
X688253Y-12545436D02*
X697777Y-12554960D01*
X697777Y-12554960D02*
X688253Y-12564484D01*
X688253Y-12564484D02*
X678729Y-12554960D01*
X678729Y-12554960D02*
X688253Y-12545436D01*
X688253Y-12545436D02*
X688253Y-12564484D01*
X764443Y-12364484D02*
X897777Y-12364484D01*
X897777Y-12364484D02*
X812062Y-12564484D01*
X1069205Y-12364484D02*
X973967Y-12364484D01*
X973967Y-12364484D02*
X964443Y-12459722D01*
X964443Y-12459722D02*
X973967Y-12450198D01*
X973967Y-12450198D02*
X993015Y-12440674D01*
X993015Y-12440674D02*
X1040634Y-12440674D01*
X1040634Y-12440674D02*
X1059682Y-12450198D01*
X1059682Y-12450198D02*
X1069205Y-12459722D01*
X1069205Y-12459722D02*
X1078729Y-12478769D01*
X1078729Y-12478769D02*
X1078729Y-12526388D01*
X1078729Y-12526388D02*
X1069205Y-12545436D01*
X1069205Y-12545436D02*
X1059682Y-12554960D01*
X1059682Y-12554960D02*
X1040634Y-12564484D01*
X1040634Y-12564484D02*
X993015Y-12564484D01*
X993015Y-12564484D02*
X973967Y-12554960D01*
X973967Y-12554960D02*
X964443Y-12545436D01*
X1202539Y-12364484D02*
X1221586Y-12364484D01*
X1221586Y-12364484D02*
X1240634Y-12374008D01*
X1240634Y-12374008D02*
X1250158Y-12383531D01*
X1250158Y-12383531D02*
X1259682Y-12402579D01*
X1259682Y-12402579D02*
X1269205Y-12440674D01*
X1269205Y-12440674D02*
X1269205Y-12488293D01*
X1269205Y-12488293D02*
X1259682Y-12526388D01*
X1259682Y-12526388D02*
X1250158Y-12545436D01*
X1250158Y-12545436D02*
X1240634Y-12554960D01*
X1240634Y-12554960D02*
X1221586Y-12564484D01*
X1221586Y-12564484D02*
X1202539Y-12564484D01*
X1202539Y-12564484D02*
X1183491Y-12554960D01*
X1183491Y-12554960D02*
X1173967Y-12545436D01*
X1173967Y-12545436D02*
X1164444Y-12526388D01*
X1164444Y-12526388D02*
X1154920Y-12488293D01*
X1154920Y-12488293D02*
X1154920Y-12440674D01*
X1154920Y-12440674D02*
X1164444Y-12402579D01*
X1164444Y-12402579D02*
X1173967Y-12383531D01*
X1173967Y-12383531D02*
X1183491Y-12374008D01*
X1183491Y-12374008D02*
X1202539Y-12364484D01*
X1354920Y-12564484D02*
X1354920Y-12431150D01*
X1354920Y-12450198D02*
X1364444Y-12440674D01*
X1364444Y-12440674D02*
X1383491Y-12431150D01*
X1383491Y-12431150D02*
X1412063Y-12431150D01*
X1412063Y-12431150D02*
X1431110Y-12440674D01*
X1431110Y-12440674D02*
X1440634Y-12459722D01*
X1440634Y-12459722D02*
X1440634Y-12564484D01*
X1440634Y-12459722D02*
X1450158Y-12440674D01*
X1450158Y-12440674D02*
X1469205Y-12431150D01*
X1469205Y-12431150D02*
X1497777Y-12431150D01*
X1497777Y-12431150D02*
X1516824Y-12440674D01*
X1516824Y-12440674D02*
X1526348Y-12459722D01*
X1526348Y-12459722D02*
X1526348Y-12564484D01*
X1621586Y-12564484D02*
X1621586Y-12431150D01*
X1621586Y-12450198D02*
X1631110Y-12440674D01*
X1631110Y-12440674D02*
X1650158Y-12431150D01*
X1650158Y-12431150D02*
X1678729Y-12431150D01*
X1678729Y-12431150D02*
X1697777Y-12440674D01*
X1697777Y-12440674D02*
X1707301Y-12459722D01*
X1707301Y-12459722D02*
X1707301Y-12564484D01*
X1707301Y-12459722D02*
X1716824Y-12440674D01*
X1716824Y-12440674D02*
X1735872Y-12431150D01*
X1735872Y-12431150D02*
X1764443Y-12431150D01*
X1764443Y-12431150D02*
X1783491Y-12440674D01*
X1783491Y-12440674D02*
X1793015Y-12459722D01*
X1793015Y-12459722D02*
X1793015Y-12564484D01*
X2183491Y-12354960D02*
X2012063Y-12612103D01*
X2440634Y-12364484D02*
X2459682Y-12364484D01*
X2459682Y-12364484D02*
X2478729Y-12374008D01*
X2478729Y-12374008D02*
X2488253Y-12383531D01*
X2488253Y-12383531D02*
X2497777Y-12402579D01*
X2497777Y-12402579D02*
X2507301Y-12440674D01*
X2507301Y-12440674D02*
X2507301Y-12488293D01*
X2507301Y-12488293D02*
X2497777Y-12526388D01*
X2497777Y-12526388D02*
X2488253Y-12545436D01*
X2488253Y-12545436D02*
X2478729Y-12554960D01*
X2478729Y-12554960D02*
X2459682Y-12564484D01*
X2459682Y-12564484D02*
X2440634Y-12564484D01*
X2440634Y-12564484D02*
X2421587Y-12554960D01*
X2421587Y-12554960D02*
X2412063Y-12545436D01*
X2412063Y-12545436D02*
X2402539Y-12526388D01*
X2402539Y-12526388D02*
X2393015Y-12488293D01*
X2393015Y-12488293D02*
X2393015Y-12440674D01*
X2393015Y-12440674D02*
X2402539Y-12402579D01*
X2402539Y-12402579D02*
X2412063Y-12383531D01*
X2412063Y-12383531D02*
X2421587Y-12374008D01*
X2421587Y-12374008D02*
X2440634Y-12364484D01*
X2593015Y-12545436D02*
X2602539Y-12554960D01*
X2602539Y-12554960D02*
X2593015Y-12564484D01*
X2593015Y-12564484D02*
X2583491Y-12554960D01*
X2583491Y-12554960D02*
X2593015Y-12545436D01*
X2593015Y-12545436D02*
X2593015Y-12564484D01*
X2726348Y-12364484D02*
X2745396Y-12364484D01*
X2745396Y-12364484D02*
X2764444Y-12374008D01*
X2764444Y-12374008D02*
X2773968Y-12383531D01*
X2773968Y-12383531D02*
X2783491Y-12402579D01*
X2783491Y-12402579D02*
X2793015Y-12440674D01*
X2793015Y-12440674D02*
X2793015Y-12488293D01*
X2793015Y-12488293D02*
X2783491Y-12526388D01*
X2783491Y-12526388D02*
X2773968Y-12545436D01*
X2773968Y-12545436D02*
X2764444Y-12554960D01*
X2764444Y-12554960D02*
X2745396Y-12564484D01*
X2745396Y-12564484D02*
X2726348Y-12564484D01*
X2726348Y-12564484D02*
X2707301Y-12554960D01*
X2707301Y-12554960D02*
X2697777Y-12545436D01*
X2697777Y-12545436D02*
X2688253Y-12526388D01*
X2688253Y-12526388D02*
X2678729Y-12488293D01*
X2678729Y-12488293D02*
X2678729Y-12440674D01*
X2678729Y-12440674D02*
X2688253Y-12402579D01*
X2688253Y-12402579D02*
X2697777Y-12383531D01*
X2697777Y-12383531D02*
X2707301Y-12374008D01*
X2707301Y-12374008D02*
X2726348Y-12364484D01*
X2964444Y-12364484D02*
X2926348Y-12364484D01*
X2926348Y-12364484D02*
X2907301Y-12374008D01*
X2907301Y-12374008D02*
X2897777Y-12383531D01*
X2897777Y-12383531D02*
X2878729Y-12412103D01*
X2878729Y-12412103D02*
X2869206Y-12450198D01*
X2869206Y-12450198D02*
X2869206Y-12526388D01*
X2869206Y-12526388D02*
X2878729Y-12545436D01*
X2878729Y-12545436D02*
X2888253Y-12554960D01*
X2888253Y-12554960D02*
X2907301Y-12564484D01*
X2907301Y-12564484D02*
X2945396Y-12564484D01*
X2945396Y-12564484D02*
X2964444Y-12554960D01*
X2964444Y-12554960D02*
X2973967Y-12545436D01*
X2973967Y-12545436D02*
X2983491Y-12526388D01*
X2983491Y-12526388D02*
X2983491Y-12478769D01*
X2983491Y-12478769D02*
X2973967Y-12459722D01*
X2973967Y-12459722D02*
X2964444Y-12450198D01*
X2964444Y-12450198D02*
X2945396Y-12440674D01*
X2945396Y-12440674D02*
X2907301Y-12440674D01*
X2907301Y-12440674D02*
X2888253Y-12450198D01*
X2888253Y-12450198D02*
X2878729Y-12459722D01*
X2878729Y-12459722D02*
X2869206Y-12478769D01*
X3097777Y-12450198D02*
X3078729Y-12440674D01*
X3078729Y-12440674D02*
X3069206Y-12431150D01*
X3069206Y-12431150D02*
X3059682Y-12412103D01*
X3059682Y-12412103D02*
X3059682Y-12402579D01*
X3059682Y-12402579D02*
X3069206Y-12383531D01*
X3069206Y-12383531D02*
X3078729Y-12374008D01*
X3078729Y-12374008D02*
X3097777Y-12364484D01*
X3097777Y-12364484D02*
X3135872Y-12364484D01*
X3135872Y-12364484D02*
X3154920Y-12374008D01*
X3154920Y-12374008D02*
X3164444Y-12383531D01*
X3164444Y-12383531D02*
X3173967Y-12402579D01*
X3173967Y-12402579D02*
X3173967Y-12412103D01*
X3173967Y-12412103D02*
X3164444Y-12431150D01*
X3164444Y-12431150D02*
X3154920Y-12440674D01*
X3154920Y-12440674D02*
X3135872Y-12450198D01*
X3135872Y-12450198D02*
X3097777Y-12450198D01*
X3097777Y-12450198D02*
X3078729Y-12459722D01*
X3078729Y-12459722D02*
X3069206Y-12469246D01*
X3069206Y-12469246D02*
X3059682Y-12488293D01*
X3059682Y-12488293D02*
X3059682Y-12526388D01*
X3059682Y-12526388D02*
X3069206Y-12545436D01*
X3069206Y-12545436D02*
X3078729Y-12554960D01*
X3078729Y-12554960D02*
X3097777Y-12564484D01*
X3097777Y-12564484D02*
X3135872Y-12564484D01*
X3135872Y-12564484D02*
X3154920Y-12554960D01*
X3154920Y-12554960D02*
X3164444Y-12545436D01*
X3164444Y-12545436D02*
X3173967Y-12526388D01*
X3173967Y-12526388D02*
X3173967Y-12488293D01*
X3173967Y-12488293D02*
X3164444Y-12469246D01*
X3164444Y-12469246D02*
X3154920Y-12459722D01*
X3154920Y-12459722D02*
X3135872Y-12450198D01*
X3269206Y-12564484D02*
X3307301Y-12564484D01*
X3307301Y-12564484D02*
X3326348Y-12554960D01*
X3326348Y-12554960D02*
X3335872Y-12545436D01*
X3335872Y-12545436D02*
X3354920Y-12516865D01*
X3354920Y-12516865D02*
X3364444Y-12478769D01*
X3364444Y-12478769D02*
X3364444Y-12402579D01*
X3364444Y-12402579D02*
X3354920Y-12383531D01*
X3354920Y-12383531D02*
X3345396Y-12374008D01*
X3345396Y-12374008D02*
X3326348Y-12364484D01*
X3326348Y-12364484D02*
X3288253Y-12364484D01*
X3288253Y-12364484D02*
X3269206Y-12374008D01*
X3269206Y-12374008D02*
X3259682Y-12383531D01*
X3259682Y-12383531D02*
X3250158Y-12402579D01*
X3250158Y-12402579D02*
X3250158Y-12450198D01*
X3250158Y-12450198D02*
X3259682Y-12469246D01*
X3259682Y-12469246D02*
X3269206Y-12478769D01*
X3269206Y-12478769D02*
X3288253Y-12488293D01*
X3288253Y-12488293D02*
X3326348Y-12488293D01*
X3326348Y-12488293D02*
X3345396Y-12478769D01*
X3345396Y-12478769D02*
X3354920Y-12469246D01*
X3354920Y-12469246D02*
X3364444Y-12450198D01*
X3440634Y-12364484D02*
X3440634Y-12402579D01*
X3516825Y-12364484D02*
X3516825Y-12402579D01*
X3812063Y-12640674D02*
X3802539Y-12631150D01*
X3802539Y-12631150D02*
X3783491Y-12602579D01*
X3783491Y-12602579D02*
X3773968Y-12583531D01*
X3773968Y-12583531D02*
X3764444Y-12554960D01*
X3764444Y-12554960D02*
X3754920Y-12507341D01*
X3754920Y-12507341D02*
X3754920Y-12469246D01*
X3754920Y-12469246D02*
X3764444Y-12421627D01*
X3764444Y-12421627D02*
X3773968Y-12393055D01*
X3773968Y-12393055D02*
X3783491Y-12374008D01*
X3783491Y-12374008D02*
X3802539Y-12345436D01*
X3802539Y-12345436D02*
X3812063Y-12335912D01*
X3993015Y-12564484D02*
X3878729Y-12564484D01*
X3935872Y-12564484D02*
X3935872Y-12364484D01*
X3935872Y-12364484D02*
X3916825Y-12393055D01*
X3916825Y-12393055D02*
X3897777Y-12412103D01*
X3897777Y-12412103D02*
X3878729Y-12421627D01*
X4069206Y-12383531D02*
X4078729Y-12374008D01*
X4078729Y-12374008D02*
X4097777Y-12364484D01*
X4097777Y-12364484D02*
X4145396Y-12364484D01*
X4145396Y-12364484D02*
X4164444Y-12374008D01*
X4164444Y-12374008D02*
X4173968Y-12383531D01*
X4173968Y-12383531D02*
X4183491Y-12402579D01*
X4183491Y-12402579D02*
X4183491Y-12421627D01*
X4183491Y-12421627D02*
X4173968Y-12450198D01*
X4173968Y-12450198D02*
X4059682Y-12564484D01*
X4059682Y-12564484D02*
X4183491Y-12564484D01*
X4297777Y-12450198D02*
X4278730Y-12440674D01*
X4278730Y-12440674D02*
X4269206Y-12431150D01*
X4269206Y-12431150D02*
X4259682Y-12412103D01*
X4259682Y-12412103D02*
X4259682Y-12402579D01*
X4259682Y-12402579D02*
X4269206Y-12383531D01*
X4269206Y-12383531D02*
X4278730Y-12374008D01*
X4278730Y-12374008D02*
X4297777Y-12364484D01*
X4297777Y-12364484D02*
X4335872Y-12364484D01*
X4335872Y-12364484D02*
X4354920Y-12374008D01*
X4354920Y-12374008D02*
X4364444Y-12383531D01*
X4364444Y-12383531D02*
X4373968Y-12402579D01*
X4373968Y-12402579D02*
X4373968Y-12412103D01*
X4373968Y-12412103D02*
X4364444Y-12431150D01*
X4364444Y-12431150D02*
X4354920Y-12440674D01*
X4354920Y-12440674D02*
X4335872Y-12450198D01*
X4335872Y-12450198D02*
X4297777Y-12450198D01*
X4297777Y-12450198D02*
X4278730Y-12459722D01*
X4278730Y-12459722D02*
X4269206Y-12469246D01*
X4269206Y-12469246D02*
X4259682Y-12488293D01*
X4259682Y-12488293D02*
X4259682Y-12526388D01*
X4259682Y-12526388D02*
X4269206Y-12545436D01*
X4269206Y-12545436D02*
X4278730Y-12554960D01*
X4278730Y-12554960D02*
X4297777Y-12564484D01*
X4297777Y-12564484D02*
X4335872Y-12564484D01*
X4335872Y-12564484D02*
X4354920Y-12554960D01*
X4354920Y-12554960D02*
X4364444Y-12545436D01*
X4364444Y-12545436D02*
X4373968Y-12526388D01*
X4373968Y-12526388D02*
X4373968Y-12488293D01*
X4373968Y-12488293D02*
X4364444Y-12469246D01*
X4364444Y-12469246D02*
X4354920Y-12459722D01*
X4354920Y-12459722D02*
X4335872Y-12450198D01*
X4612063Y-12564484D02*
X4612063Y-12364484D01*
X4697777Y-12564484D02*
X4697777Y-12459722D01*
X4697777Y-12459722D02*
X4688253Y-12440674D01*
X4688253Y-12440674D02*
X4669206Y-12431150D01*
X4669206Y-12431150D02*
X4640634Y-12431150D01*
X4640634Y-12431150D02*
X4621587Y-12440674D01*
X4621587Y-12440674D02*
X4612063Y-12450198D01*
X4821587Y-12564484D02*
X4802539Y-12554960D01*
X4802539Y-12554960D02*
X4793015Y-12545436D01*
X4793015Y-12545436D02*
X4783492Y-12526388D01*
X4783492Y-12526388D02*
X4783492Y-12469246D01*
X4783492Y-12469246D02*
X4793015Y-12450198D01*
X4793015Y-12450198D02*
X4802539Y-12440674D01*
X4802539Y-12440674D02*
X4821587Y-12431150D01*
X4821587Y-12431150D02*
X4850158Y-12431150D01*
X4850158Y-12431150D02*
X4869206Y-12440674D01*
X4869206Y-12440674D02*
X4878730Y-12450198D01*
X4878730Y-12450198D02*
X4888253Y-12469246D01*
X4888253Y-12469246D02*
X4888253Y-12526388D01*
X4888253Y-12526388D02*
X4878730Y-12545436D01*
X4878730Y-12545436D02*
X4869206Y-12554960D01*
X4869206Y-12554960D02*
X4850158Y-12564484D01*
X4850158Y-12564484D02*
X4821587Y-12564484D01*
X5002539Y-12564484D02*
X4983492Y-12554960D01*
X4983492Y-12554960D02*
X4973968Y-12535912D01*
X4973968Y-12535912D02*
X4973968Y-12364484D01*
X5154920Y-12554960D02*
X5135873Y-12564484D01*
X5135873Y-12564484D02*
X5097777Y-12564484D01*
X5097777Y-12564484D02*
X5078730Y-12554960D01*
X5078730Y-12554960D02*
X5069206Y-12535912D01*
X5069206Y-12535912D02*
X5069206Y-12459722D01*
X5069206Y-12459722D02*
X5078730Y-12440674D01*
X5078730Y-12440674D02*
X5097777Y-12431150D01*
X5097777Y-12431150D02*
X5135873Y-12431150D01*
X5135873Y-12431150D02*
X5154920Y-12440674D01*
X5154920Y-12440674D02*
X5164444Y-12459722D01*
X5164444Y-12459722D02*
X5164444Y-12478769D01*
X5164444Y-12478769D02*
X5069206Y-12497817D01*
X5240634Y-12554960D02*
X5259682Y-12564484D01*
X5259682Y-12564484D02*
X5297777Y-12564484D01*
X5297777Y-12564484D02*
X5316825Y-12554960D01*
X5316825Y-12554960D02*
X5326349Y-12535912D01*
X5326349Y-12535912D02*
X5326349Y-12526388D01*
X5326349Y-12526388D02*
X5316825Y-12507341D01*
X5316825Y-12507341D02*
X5297777Y-12497817D01*
X5297777Y-12497817D02*
X5269206Y-12497817D01*
X5269206Y-12497817D02*
X5250158Y-12488293D01*
X5250158Y-12488293D02*
X5240634Y-12469246D01*
X5240634Y-12469246D02*
X5240634Y-12459722D01*
X5240634Y-12459722D02*
X5250158Y-12440674D01*
X5250158Y-12440674D02*
X5269206Y-12431150D01*
X5269206Y-12431150D02*
X5297777Y-12431150D01*
X5297777Y-12431150D02*
X5316825Y-12440674D01*
X5393015Y-12640674D02*
X5402539Y-12631150D01*
X5402539Y-12631150D02*
X5421587Y-12602579D01*
X5421587Y-12602579D02*
X5431111Y-12583531D01*
X5431111Y-12583531D02*
X5440634Y-12554960D01*
X5440634Y-12554960D02*
X5450158Y-12507341D01*
X5450158Y-12507341D02*
X5450158Y-12469246D01*
X5450158Y-12469246D02*
X5440634Y-12421627D01*
X5440634Y-12421627D02*
X5431111Y-12393055D01*
X5431111Y-12393055D02*
X5421587Y-12374008D01*
X5421587Y-12374008D02*
X5402539Y-12345436D01*
X5402539Y-12345436D02*
X5393015Y-12335912D01*
X5754920Y-12640674D02*
X5745396Y-12631150D01*
X5745396Y-12631150D02*
X5726349Y-12602579D01*
X5726349Y-12602579D02*
X5716825Y-12583531D01*
X5716825Y-12583531D02*
X5707301Y-12554960D01*
X5707301Y-12554960D02*
X5697777Y-12507341D01*
X5697777Y-12507341D02*
X5697777Y-12469246D01*
X5697777Y-12469246D02*
X5707301Y-12421627D01*
X5707301Y-12421627D02*
X5716825Y-12393055D01*
X5716825Y-12393055D02*
X5726349Y-12374008D01*
X5726349Y-12374008D02*
X5745396Y-12345436D01*
X5745396Y-12345436D02*
X5754920Y-12335912D01*
X5831111Y-12431150D02*
X5831111Y-12564484D01*
X5831111Y-12450198D02*
X5840634Y-12440674D01*
X5840634Y-12440674D02*
X5859682Y-12431150D01*
X5859682Y-12431150D02*
X5888253Y-12431150D01*
X5888253Y-12431150D02*
X5907301Y-12440674D01*
X5907301Y-12440674D02*
X5916825Y-12459722D01*
X5916825Y-12459722D02*
X5916825Y-12564484D01*
X6040634Y-12564484D02*
X6021587Y-12554960D01*
X6021587Y-12554960D02*
X6012063Y-12545436D01*
X6012063Y-12545436D02*
X6002539Y-12526388D01*
X6002539Y-12526388D02*
X6002539Y-12469246D01*
X6002539Y-12469246D02*
X6012063Y-12450198D01*
X6012063Y-12450198D02*
X6021587Y-12440674D01*
X6021587Y-12440674D02*
X6040634Y-12431150D01*
X6040634Y-12431150D02*
X6069206Y-12431150D01*
X6069206Y-12431150D02*
X6088253Y-12440674D01*
X6088253Y-12440674D02*
X6097777Y-12450198D01*
X6097777Y-12450198D02*
X6107301Y-12469246D01*
X6107301Y-12469246D02*
X6107301Y-12526388D01*
X6107301Y-12526388D02*
X6097777Y-12545436D01*
X6097777Y-12545436D02*
X6088253Y-12554960D01*
X6088253Y-12554960D02*
X6069206Y-12564484D01*
X6069206Y-12564484D02*
X6040634Y-12564484D01*
X6164444Y-12431150D02*
X6240634Y-12431150D01*
X6193015Y-12364484D02*
X6193015Y-12535912D01*
X6193015Y-12535912D02*
X6202539Y-12554960D01*
X6202539Y-12554960D02*
X6221587Y-12564484D01*
X6221587Y-12564484D02*
X6240634Y-12564484D01*
X6459682Y-12431150D02*
X6459682Y-12631150D01*
X6459682Y-12440674D02*
X6478730Y-12431150D01*
X6478730Y-12431150D02*
X6516825Y-12431150D01*
X6516825Y-12431150D02*
X6535873Y-12440674D01*
X6535873Y-12440674D02*
X6545396Y-12450198D01*
X6545396Y-12450198D02*
X6554920Y-12469246D01*
X6554920Y-12469246D02*
X6554920Y-12526388D01*
X6554920Y-12526388D02*
X6545396Y-12545436D01*
X6545396Y-12545436D02*
X6535873Y-12554960D01*
X6535873Y-12554960D02*
X6516825Y-12564484D01*
X6516825Y-12564484D02*
X6478730Y-12564484D01*
X6478730Y-12564484D02*
X6459682Y-12554960D01*
X6669206Y-12564484D02*
X6650158Y-12554960D01*
X6650158Y-12554960D02*
X6640634Y-12535912D01*
X6640634Y-12535912D02*
X6640634Y-12364484D01*
X6831111Y-12564484D02*
X6831111Y-12459722D01*
X6831111Y-12459722D02*
X6821587Y-12440674D01*
X6821587Y-12440674D02*
X6802539Y-12431150D01*
X6802539Y-12431150D02*
X6764444Y-12431150D01*
X6764444Y-12431150D02*
X6745396Y-12440674D01*
X6831111Y-12554960D02*
X6812063Y-12564484D01*
X6812063Y-12564484D02*
X6764444Y-12564484D01*
X6764444Y-12564484D02*
X6745396Y-12554960D01*
X6745396Y-12554960D02*
X6735873Y-12535912D01*
X6735873Y-12535912D02*
X6735873Y-12516865D01*
X6735873Y-12516865D02*
X6745396Y-12497817D01*
X6745396Y-12497817D02*
X6764444Y-12488293D01*
X6764444Y-12488293D02*
X6812063Y-12488293D01*
X6812063Y-12488293D02*
X6831111Y-12478769D01*
X6897777Y-12431150D02*
X6973968Y-12431150D01*
X6926349Y-12364484D02*
X6926349Y-12535912D01*
X6926349Y-12535912D02*
X6935873Y-12554960D01*
X6935873Y-12554960D02*
X6954920Y-12564484D01*
X6954920Y-12564484D02*
X6973968Y-12564484D01*
X7116825Y-12554960D02*
X7097777Y-12564484D01*
X7097777Y-12564484D02*
X7059682Y-12564484D01*
X7059682Y-12564484D02*
X7040634Y-12554960D01*
X7040634Y-12554960D02*
X7031111Y-12535912D01*
X7031111Y-12535912D02*
X7031111Y-12459722D01*
X7031111Y-12459722D02*
X7040634Y-12440674D01*
X7040634Y-12440674D02*
X7059682Y-12431150D01*
X7059682Y-12431150D02*
X7097777Y-12431150D01*
X7097777Y-12431150D02*
X7116825Y-12440674D01*
X7116825Y-12440674D02*
X7126349Y-12459722D01*
X7126349Y-12459722D02*
X7126349Y-12478769D01*
X7126349Y-12478769D02*
X7031111Y-12497817D01*
X7297777Y-12564484D02*
X7297777Y-12364484D01*
X7297777Y-12554960D02*
X7278730Y-12564484D01*
X7278730Y-12564484D02*
X7240634Y-12564484D01*
X7240634Y-12564484D02*
X7221587Y-12554960D01*
X7221587Y-12554960D02*
X7212063Y-12545436D01*
X7212063Y-12545436D02*
X7202539Y-12526388D01*
X7202539Y-12526388D02*
X7202539Y-12469246D01*
X7202539Y-12469246D02*
X7212063Y-12450198D01*
X7212063Y-12450198D02*
X7221587Y-12440674D01*
X7221587Y-12440674D02*
X7240634Y-12431150D01*
X7240634Y-12431150D02*
X7278730Y-12431150D01*
X7278730Y-12431150D02*
X7297777Y-12440674D01*
X7373968Y-12640674D02*
X7383492Y-12631150D01*
X7383492Y-12631150D02*
X7402539Y-12602579D01*
X7402539Y-12602579D02*
X7412063Y-12583531D01*
X7412063Y-12583531D02*
X7421587Y-12554960D01*
X7421587Y-12554960D02*
X7431111Y-12507341D01*
X7431111Y-12507341D02*
X7431111Y-12469246D01*
X7431111Y-12469246D02*
X7421587Y-12421627D01*
X7421587Y-12421627D02*
X7412063Y-12393055D01*
X7412063Y-12393055D02*
X7402539Y-12374008D01*
X7402539Y-12374008D02*
X7383492Y-12345436D01*
X7383492Y-12345436D02*
X7373968Y-12335912D01*
X237000Y-12768000D02*
G75*
G02*
X37000Y-12768000I-100000J0D01*
G01*
X37000Y-12768000D02*
G75*
G02*
X237000Y-12768000I100000J0D01*
G01*
X478729Y-12659484D02*
X602539Y-12659484D01*
X602539Y-12659484D02*
X535872Y-12735674D01*
X535872Y-12735674D02*
X564444Y-12735674D01*
X564444Y-12735674D02*
X583491Y-12745198D01*
X583491Y-12745198D02*
X593015Y-12754722D01*
X593015Y-12754722D02*
X602539Y-12773769D01*
X602539Y-12773769D02*
X602539Y-12821388D01*
X602539Y-12821388D02*
X593015Y-12840436D01*
X593015Y-12840436D02*
X583491Y-12849960D01*
X583491Y-12849960D02*
X564444Y-12859484D01*
X564444Y-12859484D02*
X507301Y-12859484D01*
X507301Y-12859484D02*
X488253Y-12849960D01*
X488253Y-12849960D02*
X478729Y-12840436D01*
X688253Y-12840436D02*
X697777Y-12849960D01*
X697777Y-12849960D02*
X688253Y-12859484D01*
X688253Y-12859484D02*
X678729Y-12849960D01*
X678729Y-12849960D02*
X688253Y-12840436D01*
X688253Y-12840436D02*
X688253Y-12859484D01*
X821586Y-12659484D02*
X840634Y-12659484D01*
X840634Y-12659484D02*
X859682Y-12669008D01*
X859682Y-12669008D02*
X869205Y-12678531D01*
X869205Y-12678531D02*
X878729Y-12697579D01*
X878729Y-12697579D02*
X888253Y-12735674D01*
X888253Y-12735674D02*
X888253Y-12783293D01*
X888253Y-12783293D02*
X878729Y-12821388D01*
X878729Y-12821388D02*
X869205Y-12840436D01*
X869205Y-12840436D02*
X859682Y-12849960D01*
X859682Y-12849960D02*
X840634Y-12859484D01*
X840634Y-12859484D02*
X821586Y-12859484D01*
X821586Y-12859484D02*
X802539Y-12849960D01*
X802539Y-12849960D02*
X793015Y-12840436D01*
X793015Y-12840436D02*
X783491Y-12821388D01*
X783491Y-12821388D02*
X773967Y-12783293D01*
X773967Y-12783293D02*
X773967Y-12735674D01*
X773967Y-12735674D02*
X783491Y-12697579D01*
X783491Y-12697579D02*
X793015Y-12678531D01*
X793015Y-12678531D02*
X802539Y-12669008D01*
X802539Y-12669008D02*
X821586Y-12659484D01*
X1059682Y-12726150D02*
X1059682Y-12859484D01*
X1012062Y-12649960D02*
X964443Y-12792817D01*
X964443Y-12792817D02*
X1088253Y-12792817D01*
X1193015Y-12745198D02*
X1173967Y-12735674D01*
X1173967Y-12735674D02*
X1164444Y-12726150D01*
X1164444Y-12726150D02*
X1154920Y-12707103D01*
X1154920Y-12707103D02*
X1154920Y-12697579D01*
X1154920Y-12697579D02*
X1164444Y-12678531D01*
X1164444Y-12678531D02*
X1173967Y-12669008D01*
X1173967Y-12669008D02*
X1193015Y-12659484D01*
X1193015Y-12659484D02*
X1231110Y-12659484D01*
X1231110Y-12659484D02*
X1250158Y-12669008D01*
X1250158Y-12669008D02*
X1259682Y-12678531D01*
X1259682Y-12678531D02*
X1269205Y-12697579D01*
X1269205Y-12697579D02*
X1269205Y-12707103D01*
X1269205Y-12707103D02*
X1259682Y-12726150D01*
X1259682Y-12726150D02*
X1250158Y-12735674D01*
X1250158Y-12735674D02*
X1231110Y-12745198D01*
X1231110Y-12745198D02*
X1193015Y-12745198D01*
X1193015Y-12745198D02*
X1173967Y-12754722D01*
X1173967Y-12754722D02*
X1164444Y-12764246D01*
X1164444Y-12764246D02*
X1154920Y-12783293D01*
X1154920Y-12783293D02*
X1154920Y-12821388D01*
X1154920Y-12821388D02*
X1164444Y-12840436D01*
X1164444Y-12840436D02*
X1173967Y-12849960D01*
X1173967Y-12849960D02*
X1193015Y-12859484D01*
X1193015Y-12859484D02*
X1231110Y-12859484D01*
X1231110Y-12859484D02*
X1250158Y-12849960D01*
X1250158Y-12849960D02*
X1259682Y-12840436D01*
X1259682Y-12840436D02*
X1269205Y-12821388D01*
X1269205Y-12821388D02*
X1269205Y-12783293D01*
X1269205Y-12783293D02*
X1259682Y-12764246D01*
X1259682Y-12764246D02*
X1250158Y-12754722D01*
X1250158Y-12754722D02*
X1231110Y-12745198D01*
X1354920Y-12859484D02*
X1354920Y-12726150D01*
X1354920Y-12745198D02*
X1364444Y-12735674D01*
X1364444Y-12735674D02*
X1383491Y-12726150D01*
X1383491Y-12726150D02*
X1412063Y-12726150D01*
X1412063Y-12726150D02*
X1431110Y-12735674D01*
X1431110Y-12735674D02*
X1440634Y-12754722D01*
X1440634Y-12754722D02*
X1440634Y-12859484D01*
X1440634Y-12754722D02*
X1450158Y-12735674D01*
X1450158Y-12735674D02*
X1469205Y-12726150D01*
X1469205Y-12726150D02*
X1497777Y-12726150D01*
X1497777Y-12726150D02*
X1516824Y-12735674D01*
X1516824Y-12735674D02*
X1526348Y-12754722D01*
X1526348Y-12754722D02*
X1526348Y-12859484D01*
X1621586Y-12859484D02*
X1621586Y-12726150D01*
X1621586Y-12745198D02*
X1631110Y-12735674D01*
X1631110Y-12735674D02*
X1650158Y-12726150D01*
X1650158Y-12726150D02*
X1678729Y-12726150D01*
X1678729Y-12726150D02*
X1697777Y-12735674D01*
X1697777Y-12735674D02*
X1707301Y-12754722D01*
X1707301Y-12754722D02*
X1707301Y-12859484D01*
X1707301Y-12754722D02*
X1716824Y-12735674D01*
X1716824Y-12735674D02*
X1735872Y-12726150D01*
X1735872Y-12726150D02*
X1764443Y-12726150D01*
X1764443Y-12726150D02*
X1783491Y-12735674D01*
X1783491Y-12735674D02*
X1793015Y-12754722D01*
X1793015Y-12754722D02*
X1793015Y-12859484D01*
X2183491Y-12649960D02*
X2012063Y-12907103D01*
X2440634Y-12659484D02*
X2459682Y-12659484D01*
X2459682Y-12659484D02*
X2478729Y-12669008D01*
X2478729Y-12669008D02*
X2488253Y-12678531D01*
X2488253Y-12678531D02*
X2497777Y-12697579D01*
X2497777Y-12697579D02*
X2507301Y-12735674D01*
X2507301Y-12735674D02*
X2507301Y-12783293D01*
X2507301Y-12783293D02*
X2497777Y-12821388D01*
X2497777Y-12821388D02*
X2488253Y-12840436D01*
X2488253Y-12840436D02*
X2478729Y-12849960D01*
X2478729Y-12849960D02*
X2459682Y-12859484D01*
X2459682Y-12859484D02*
X2440634Y-12859484D01*
X2440634Y-12859484D02*
X2421587Y-12849960D01*
X2421587Y-12849960D02*
X2412063Y-12840436D01*
X2412063Y-12840436D02*
X2402539Y-12821388D01*
X2402539Y-12821388D02*
X2393015Y-12783293D01*
X2393015Y-12783293D02*
X2393015Y-12735674D01*
X2393015Y-12735674D02*
X2402539Y-12697579D01*
X2402539Y-12697579D02*
X2412063Y-12678531D01*
X2412063Y-12678531D02*
X2421587Y-12669008D01*
X2421587Y-12669008D02*
X2440634Y-12659484D01*
X2593015Y-12840436D02*
X2602539Y-12849960D01*
X2602539Y-12849960D02*
X2593015Y-12859484D01*
X2593015Y-12859484D02*
X2583491Y-12849960D01*
X2583491Y-12849960D02*
X2593015Y-12840436D01*
X2593015Y-12840436D02*
X2593015Y-12859484D01*
X2793015Y-12859484D02*
X2678729Y-12859484D01*
X2735872Y-12859484D02*
X2735872Y-12659484D01*
X2735872Y-12659484D02*
X2716825Y-12688055D01*
X2716825Y-12688055D02*
X2697777Y-12707103D01*
X2697777Y-12707103D02*
X2678729Y-12716627D01*
X2869206Y-12678531D02*
X2878729Y-12669008D01*
X2878729Y-12669008D02*
X2897777Y-12659484D01*
X2897777Y-12659484D02*
X2945396Y-12659484D01*
X2945396Y-12659484D02*
X2964444Y-12669008D01*
X2964444Y-12669008D02*
X2973967Y-12678531D01*
X2973967Y-12678531D02*
X2983491Y-12697579D01*
X2983491Y-12697579D02*
X2983491Y-12716627D01*
X2983491Y-12716627D02*
X2973967Y-12745198D01*
X2973967Y-12745198D02*
X2859682Y-12859484D01*
X2859682Y-12859484D02*
X2983491Y-12859484D01*
X3107301Y-12659484D02*
X3126348Y-12659484D01*
X3126348Y-12659484D02*
X3145396Y-12669008D01*
X3145396Y-12669008D02*
X3154920Y-12678531D01*
X3154920Y-12678531D02*
X3164444Y-12697579D01*
X3164444Y-12697579D02*
X3173967Y-12735674D01*
X3173967Y-12735674D02*
X3173967Y-12783293D01*
X3173967Y-12783293D02*
X3164444Y-12821388D01*
X3164444Y-12821388D02*
X3154920Y-12840436D01*
X3154920Y-12840436D02*
X3145396Y-12849960D01*
X3145396Y-12849960D02*
X3126348Y-12859484D01*
X3126348Y-12859484D02*
X3107301Y-12859484D01*
X3107301Y-12859484D02*
X3088253Y-12849960D01*
X3088253Y-12849960D02*
X3078729Y-12840436D01*
X3078729Y-12840436D02*
X3069206Y-12821388D01*
X3069206Y-12821388D02*
X3059682Y-12783293D01*
X3059682Y-12783293D02*
X3059682Y-12735674D01*
X3059682Y-12735674D02*
X3069206Y-12697579D01*
X3069206Y-12697579D02*
X3078729Y-12678531D01*
X3078729Y-12678531D02*
X3088253Y-12669008D01*
X3088253Y-12669008D02*
X3107301Y-12659484D01*
X3297777Y-12659484D02*
X3316825Y-12659484D01*
X3316825Y-12659484D02*
X3335872Y-12669008D01*
X3335872Y-12669008D02*
X3345396Y-12678531D01*
X3345396Y-12678531D02*
X3354920Y-12697579D01*
X3354920Y-12697579D02*
X3364444Y-12735674D01*
X3364444Y-12735674D02*
X3364444Y-12783293D01*
X3364444Y-12783293D02*
X3354920Y-12821388D01*
X3354920Y-12821388D02*
X3345396Y-12840436D01*
X3345396Y-12840436D02*
X3335872Y-12849960D01*
X3335872Y-12849960D02*
X3316825Y-12859484D01*
X3316825Y-12859484D02*
X3297777Y-12859484D01*
X3297777Y-12859484D02*
X3278729Y-12849960D01*
X3278729Y-12849960D02*
X3269206Y-12840436D01*
X3269206Y-12840436D02*
X3259682Y-12821388D01*
X3259682Y-12821388D02*
X3250158Y-12783293D01*
X3250158Y-12783293D02*
X3250158Y-12735674D01*
X3250158Y-12735674D02*
X3259682Y-12697579D01*
X3259682Y-12697579D02*
X3269206Y-12678531D01*
X3269206Y-12678531D02*
X3278729Y-12669008D01*
X3278729Y-12669008D02*
X3297777Y-12659484D01*
X3440634Y-12659484D02*
X3440634Y-12697579D01*
X3516825Y-12659484D02*
X3516825Y-12697579D01*
X3812063Y-12935674D02*
X3802539Y-12926150D01*
X3802539Y-12926150D02*
X3783491Y-12897579D01*
X3783491Y-12897579D02*
X3773968Y-12878531D01*
X3773968Y-12878531D02*
X3764444Y-12849960D01*
X3764444Y-12849960D02*
X3754920Y-12802341D01*
X3754920Y-12802341D02*
X3754920Y-12764246D01*
X3754920Y-12764246D02*
X3764444Y-12716627D01*
X3764444Y-12716627D02*
X3773968Y-12688055D01*
X3773968Y-12688055D02*
X3783491Y-12669008D01*
X3783491Y-12669008D02*
X3802539Y-12640436D01*
X3802539Y-12640436D02*
X3812063Y-12630912D01*
X3916825Y-12745198D02*
X3897777Y-12735674D01*
X3897777Y-12735674D02*
X3888253Y-12726150D01*
X3888253Y-12726150D02*
X3878729Y-12707103D01*
X3878729Y-12707103D02*
X3878729Y-12697579D01*
X3878729Y-12697579D02*
X3888253Y-12678531D01*
X3888253Y-12678531D02*
X3897777Y-12669008D01*
X3897777Y-12669008D02*
X3916825Y-12659484D01*
X3916825Y-12659484D02*
X3954920Y-12659484D01*
X3954920Y-12659484D02*
X3973968Y-12669008D01*
X3973968Y-12669008D02*
X3983491Y-12678531D01*
X3983491Y-12678531D02*
X3993015Y-12697579D01*
X3993015Y-12697579D02*
X3993015Y-12707103D01*
X3993015Y-12707103D02*
X3983491Y-12726150D01*
X3983491Y-12726150D02*
X3973968Y-12735674D01*
X3973968Y-12735674D02*
X3954920Y-12745198D01*
X3954920Y-12745198D02*
X3916825Y-12745198D01*
X3916825Y-12745198D02*
X3897777Y-12754722D01*
X3897777Y-12754722D02*
X3888253Y-12764246D01*
X3888253Y-12764246D02*
X3878729Y-12783293D01*
X3878729Y-12783293D02*
X3878729Y-12821388D01*
X3878729Y-12821388D02*
X3888253Y-12840436D01*
X3888253Y-12840436D02*
X3897777Y-12849960D01*
X3897777Y-12849960D02*
X3916825Y-12859484D01*
X3916825Y-12859484D02*
X3954920Y-12859484D01*
X3954920Y-12859484D02*
X3973968Y-12849960D01*
X3973968Y-12849960D02*
X3983491Y-12840436D01*
X3983491Y-12840436D02*
X3993015Y-12821388D01*
X3993015Y-12821388D02*
X3993015Y-12783293D01*
X3993015Y-12783293D02*
X3983491Y-12764246D01*
X3983491Y-12764246D02*
X3973968Y-12754722D01*
X3973968Y-12754722D02*
X3954920Y-12745198D01*
X4231111Y-12859484D02*
X4231111Y-12659484D01*
X4316825Y-12859484D02*
X4316825Y-12754722D01*
X4316825Y-12754722D02*
X4307301Y-12735674D01*
X4307301Y-12735674D02*
X4288253Y-12726150D01*
X4288253Y-12726150D02*
X4259682Y-12726150D01*
X4259682Y-12726150D02*
X4240634Y-12735674D01*
X4240634Y-12735674D02*
X4231111Y-12745198D01*
X4440634Y-12859484D02*
X4421587Y-12849960D01*
X4421587Y-12849960D02*
X4412063Y-12840436D01*
X4412063Y-12840436D02*
X4402539Y-12821388D01*
X4402539Y-12821388D02*
X4402539Y-12764246D01*
X4402539Y-12764246D02*
X4412063Y-12745198D01*
X4412063Y-12745198D02*
X4421587Y-12735674D01*
X4421587Y-12735674D02*
X4440634Y-12726150D01*
X4440634Y-12726150D02*
X4469206Y-12726150D01*
X4469206Y-12726150D02*
X4488253Y-12735674D01*
X4488253Y-12735674D02*
X4497777Y-12745198D01*
X4497777Y-12745198D02*
X4507301Y-12764246D01*
X4507301Y-12764246D02*
X4507301Y-12821388D01*
X4507301Y-12821388D02*
X4497777Y-12840436D01*
X4497777Y-12840436D02*
X4488253Y-12849960D01*
X4488253Y-12849960D02*
X4469206Y-12859484D01*
X4469206Y-12859484D02*
X4440634Y-12859484D01*
X4621587Y-12859484D02*
X4602539Y-12849960D01*
X4602539Y-12849960D02*
X4593015Y-12830912D01*
X4593015Y-12830912D02*
X4593015Y-12659484D01*
X4773968Y-12849960D02*
X4754920Y-12859484D01*
X4754920Y-12859484D02*
X4716825Y-12859484D01*
X4716825Y-12859484D02*
X4697777Y-12849960D01*
X4697777Y-12849960D02*
X4688253Y-12830912D01*
X4688253Y-12830912D02*
X4688253Y-12754722D01*
X4688253Y-12754722D02*
X4697777Y-12735674D01*
X4697777Y-12735674D02*
X4716825Y-12726150D01*
X4716825Y-12726150D02*
X4754920Y-12726150D01*
X4754920Y-12726150D02*
X4773968Y-12735674D01*
X4773968Y-12735674D02*
X4783492Y-12754722D01*
X4783492Y-12754722D02*
X4783492Y-12773769D01*
X4783492Y-12773769D02*
X4688253Y-12792817D01*
X4859682Y-12849960D02*
X4878730Y-12859484D01*
X4878730Y-12859484D02*
X4916825Y-12859484D01*
X4916825Y-12859484D02*
X4935873Y-12849960D01*
X4935873Y-12849960D02*
X4945396Y-12830912D01*
X4945396Y-12830912D02*
X4945396Y-12821388D01*
X4945396Y-12821388D02*
X4935873Y-12802341D01*
X4935873Y-12802341D02*
X4916825Y-12792817D01*
X4916825Y-12792817D02*
X4888253Y-12792817D01*
X4888253Y-12792817D02*
X4869206Y-12783293D01*
X4869206Y-12783293D02*
X4859682Y-12764246D01*
X4859682Y-12764246D02*
X4859682Y-12754722D01*
X4859682Y-12754722D02*
X4869206Y-12735674D01*
X4869206Y-12735674D02*
X4888253Y-12726150D01*
X4888253Y-12726150D02*
X4916825Y-12726150D01*
X4916825Y-12726150D02*
X4935873Y-12735674D01*
X5012063Y-12935674D02*
X5021587Y-12926150D01*
X5021587Y-12926150D02*
X5040634Y-12897579D01*
X5040634Y-12897579D02*
X5050158Y-12878531D01*
X5050158Y-12878531D02*
X5059682Y-12849960D01*
X5059682Y-12849960D02*
X5069206Y-12802341D01*
X5069206Y-12802341D02*
X5069206Y-12764246D01*
X5069206Y-12764246D02*
X5059682Y-12716627D01*
X5059682Y-12716627D02*
X5050158Y-12688055D01*
X5050158Y-12688055D02*
X5040634Y-12669008D01*
X5040634Y-12669008D02*
X5021587Y-12640436D01*
X5021587Y-12640436D02*
X5012063Y-12630912D01*
X5373968Y-12935674D02*
X5364444Y-12926150D01*
X5364444Y-12926150D02*
X5345396Y-12897579D01*
X5345396Y-12897579D02*
X5335873Y-12878531D01*
X5335873Y-12878531D02*
X5326349Y-12849960D01*
X5326349Y-12849960D02*
X5316825Y-12802341D01*
X5316825Y-12802341D02*
X5316825Y-12764246D01*
X5316825Y-12764246D02*
X5326349Y-12716627D01*
X5326349Y-12716627D02*
X5335873Y-12688055D01*
X5335873Y-12688055D02*
X5345396Y-12669008D01*
X5345396Y-12669008D02*
X5364444Y-12640436D01*
X5364444Y-12640436D02*
X5373968Y-12630912D01*
X5450158Y-12726150D02*
X5450158Y-12859484D01*
X5450158Y-12745198D02*
X5459682Y-12735674D01*
X5459682Y-12735674D02*
X5478730Y-12726150D01*
X5478730Y-12726150D02*
X5507301Y-12726150D01*
X5507301Y-12726150D02*
X5526349Y-12735674D01*
X5526349Y-12735674D02*
X5535873Y-12754722D01*
X5535873Y-12754722D02*
X5535873Y-12859484D01*
X5659682Y-12859484D02*
X5640634Y-12849960D01*
X5640634Y-12849960D02*
X5631111Y-12840436D01*
X5631111Y-12840436D02*
X5621587Y-12821388D01*
X5621587Y-12821388D02*
X5621587Y-12764246D01*
X5621587Y-12764246D02*
X5631111Y-12745198D01*
X5631111Y-12745198D02*
X5640634Y-12735674D01*
X5640634Y-12735674D02*
X5659682Y-12726150D01*
X5659682Y-12726150D02*
X5688253Y-12726150D01*
X5688253Y-12726150D02*
X5707301Y-12735674D01*
X5707301Y-12735674D02*
X5716825Y-12745198D01*
X5716825Y-12745198D02*
X5726349Y-12764246D01*
X5726349Y-12764246D02*
X5726349Y-12821388D01*
X5726349Y-12821388D02*
X5716825Y-12840436D01*
X5716825Y-12840436D02*
X5707301Y-12849960D01*
X5707301Y-12849960D02*
X5688253Y-12859484D01*
X5688253Y-12859484D02*
X5659682Y-12859484D01*
X5783492Y-12726150D02*
X5859682Y-12726150D01*
X5812063Y-12659484D02*
X5812063Y-12830912D01*
X5812063Y-12830912D02*
X5821587Y-12849960D01*
X5821587Y-12849960D02*
X5840634Y-12859484D01*
X5840634Y-12859484D02*
X5859682Y-12859484D01*
X6078730Y-12726150D02*
X6078730Y-12926150D01*
X6078730Y-12735674D02*
X6097777Y-12726150D01*
X6097777Y-12726150D02*
X6135873Y-12726150D01*
X6135873Y-12726150D02*
X6154920Y-12735674D01*
X6154920Y-12735674D02*
X6164444Y-12745198D01*
X6164444Y-12745198D02*
X6173968Y-12764246D01*
X6173968Y-12764246D02*
X6173968Y-12821388D01*
X6173968Y-12821388D02*
X6164444Y-12840436D01*
X6164444Y-12840436D02*
X6154920Y-12849960D01*
X6154920Y-12849960D02*
X6135873Y-12859484D01*
X6135873Y-12859484D02*
X6097777Y-12859484D01*
X6097777Y-12859484D02*
X6078730Y-12849960D01*
X6288253Y-12859484D02*
X6269206Y-12849960D01*
X6269206Y-12849960D02*
X6259682Y-12830912D01*
X6259682Y-12830912D02*
X6259682Y-12659484D01*
X6450158Y-12859484D02*
X6450158Y-12754722D01*
X6450158Y-12754722D02*
X6440634Y-12735674D01*
X6440634Y-12735674D02*
X6421587Y-12726150D01*
X6421587Y-12726150D02*
X6383492Y-12726150D01*
X6383492Y-12726150D02*
X6364444Y-12735674D01*
X6450158Y-12849960D02*
X6431111Y-12859484D01*
X6431111Y-12859484D02*
X6383492Y-12859484D01*
X6383492Y-12859484D02*
X6364444Y-12849960D01*
X6364444Y-12849960D02*
X6354920Y-12830912D01*
X6354920Y-12830912D02*
X6354920Y-12811865D01*
X6354920Y-12811865D02*
X6364444Y-12792817D01*
X6364444Y-12792817D02*
X6383492Y-12783293D01*
X6383492Y-12783293D02*
X6431111Y-12783293D01*
X6431111Y-12783293D02*
X6450158Y-12773769D01*
X6516825Y-12726150D02*
X6593015Y-12726150D01*
X6545396Y-12659484D02*
X6545396Y-12830912D01*
X6545396Y-12830912D02*
X6554920Y-12849960D01*
X6554920Y-12849960D02*
X6573968Y-12859484D01*
X6573968Y-12859484D02*
X6593015Y-12859484D01*
X6735873Y-12849960D02*
X6716825Y-12859484D01*
X6716825Y-12859484D02*
X6678730Y-12859484D01*
X6678730Y-12859484D02*
X6659682Y-12849960D01*
X6659682Y-12849960D02*
X6650158Y-12830912D01*
X6650158Y-12830912D02*
X6650158Y-12754722D01*
X6650158Y-12754722D02*
X6659682Y-12735674D01*
X6659682Y-12735674D02*
X6678730Y-12726150D01*
X6678730Y-12726150D02*
X6716825Y-12726150D01*
X6716825Y-12726150D02*
X6735873Y-12735674D01*
X6735873Y-12735674D02*
X6745396Y-12754722D01*
X6745396Y-12754722D02*
X6745396Y-12773769D01*
X6745396Y-12773769D02*
X6650158Y-12792817D01*
X6916825Y-12859484D02*
X6916825Y-12659484D01*
X6916825Y-12849960D02*
X6897777Y-12859484D01*
X6897777Y-12859484D02*
X6859682Y-12859484D01*
X6859682Y-12859484D02*
X6840634Y-12849960D01*
X6840634Y-12849960D02*
X6831111Y-12840436D01*
X6831111Y-12840436D02*
X6821587Y-12821388D01*
X6821587Y-12821388D02*
X6821587Y-12764246D01*
X6821587Y-12764246D02*
X6831111Y-12745198D01*
X6831111Y-12745198D02*
X6840634Y-12735674D01*
X6840634Y-12735674D02*
X6859682Y-12726150D01*
X6859682Y-12726150D02*
X6897777Y-12726150D01*
X6897777Y-12726150D02*
X6916825Y-12735674D01*
X6993015Y-12935674D02*
X7002539Y-12926150D01*
X7002539Y-12926150D02*
X7021587Y-12897579D01*
X7021587Y-12897579D02*
X7031111Y-12878531D01*
X7031111Y-12878531D02*
X7040634Y-12849960D01*
X7040634Y-12849960D02*
X7050158Y-12802341D01*
X7050158Y-12802341D02*
X7050158Y-12764246D01*
X7050158Y-12764246D02*
X7040634Y-12716627D01*
X7040634Y-12716627D02*
X7031111Y-12688055D01*
X7031111Y-12688055D02*
X7021587Y-12669008D01*
X7021587Y-12669008D02*
X7002539Y-12640436D01*
X7002539Y-12640436D02*
X6993015Y-12630912D01*
X137000Y-12988000D02*
X137000Y-13188000D01*
X37000Y-13088000D02*
X237000Y-13088000D01*
X478729Y-12979484D02*
X602539Y-12979484D01*
X602539Y-12979484D02*
X535872Y-13055674D01*
X535872Y-13055674D02*
X564444Y-13055674D01*
X564444Y-13055674D02*
X583491Y-13065198D01*
X583491Y-13065198D02*
X593015Y-13074722D01*
X593015Y-13074722D02*
X602539Y-13093769D01*
X602539Y-13093769D02*
X602539Y-13141388D01*
X602539Y-13141388D02*
X593015Y-13160436D01*
X593015Y-13160436D02*
X583491Y-13169960D01*
X583491Y-13169960D02*
X564444Y-13179484D01*
X564444Y-13179484D02*
X507301Y-13179484D01*
X507301Y-13179484D02*
X488253Y-13169960D01*
X488253Y-13169960D02*
X478729Y-13160436D01*
X688253Y-13160436D02*
X697777Y-13169960D01*
X697777Y-13169960D02*
X688253Y-13179484D01*
X688253Y-13179484D02*
X678729Y-13169960D01*
X678729Y-13169960D02*
X688253Y-13160436D01*
X688253Y-13160436D02*
X688253Y-13179484D01*
X793015Y-13179484D02*
X831110Y-13179484D01*
X831110Y-13179484D02*
X850158Y-13169960D01*
X850158Y-13169960D02*
X859682Y-13160436D01*
X859682Y-13160436D02*
X878729Y-13131865D01*
X878729Y-13131865D02*
X888253Y-13093769D01*
X888253Y-13093769D02*
X888253Y-13017579D01*
X888253Y-13017579D02*
X878729Y-12998531D01*
X878729Y-12998531D02*
X869205Y-12989008D01*
X869205Y-12989008D02*
X850158Y-12979484D01*
X850158Y-12979484D02*
X812062Y-12979484D01*
X812062Y-12979484D02*
X793015Y-12989008D01*
X793015Y-12989008D02*
X783491Y-12998531D01*
X783491Y-12998531D02*
X773967Y-13017579D01*
X773967Y-13017579D02*
X773967Y-13065198D01*
X773967Y-13065198D02*
X783491Y-13084246D01*
X783491Y-13084246D02*
X793015Y-13093769D01*
X793015Y-13093769D02*
X812062Y-13103293D01*
X812062Y-13103293D02*
X850158Y-13103293D01*
X850158Y-13103293D02*
X869205Y-13093769D01*
X869205Y-13093769D02*
X878729Y-13084246D01*
X878729Y-13084246D02*
X888253Y-13065198D01*
X1002539Y-13065198D02*
X983491Y-13055674D01*
X983491Y-13055674D02*
X973967Y-13046150D01*
X973967Y-13046150D02*
X964443Y-13027103D01*
X964443Y-13027103D02*
X964443Y-13017579D01*
X964443Y-13017579D02*
X973967Y-12998531D01*
X973967Y-12998531D02*
X983491Y-12989008D01*
X983491Y-12989008D02*
X1002539Y-12979484D01*
X1002539Y-12979484D02*
X1040634Y-12979484D01*
X1040634Y-12979484D02*
X1059682Y-12989008D01*
X1059682Y-12989008D02*
X1069205Y-12998531D01*
X1069205Y-12998531D02*
X1078729Y-13017579D01*
X1078729Y-13017579D02*
X1078729Y-13027103D01*
X1078729Y-13027103D02*
X1069205Y-13046150D01*
X1069205Y-13046150D02*
X1059682Y-13055674D01*
X1059682Y-13055674D02*
X1040634Y-13065198D01*
X1040634Y-13065198D02*
X1002539Y-13065198D01*
X1002539Y-13065198D02*
X983491Y-13074722D01*
X983491Y-13074722D02*
X973967Y-13084246D01*
X973967Y-13084246D02*
X964443Y-13103293D01*
X964443Y-13103293D02*
X964443Y-13141388D01*
X964443Y-13141388D02*
X973967Y-13160436D01*
X973967Y-13160436D02*
X983491Y-13169960D01*
X983491Y-13169960D02*
X1002539Y-13179484D01*
X1002539Y-13179484D02*
X1040634Y-13179484D01*
X1040634Y-13179484D02*
X1059682Y-13169960D01*
X1059682Y-13169960D02*
X1069205Y-13160436D01*
X1069205Y-13160436D02*
X1078729Y-13141388D01*
X1078729Y-13141388D02*
X1078729Y-13103293D01*
X1078729Y-13103293D02*
X1069205Y-13084246D01*
X1069205Y-13084246D02*
X1059682Y-13074722D01*
X1059682Y-13074722D02*
X1040634Y-13065198D01*
X1193015Y-13065198D02*
X1173967Y-13055674D01*
X1173967Y-13055674D02*
X1164444Y-13046150D01*
X1164444Y-13046150D02*
X1154920Y-13027103D01*
X1154920Y-13027103D02*
X1154920Y-13017579D01*
X1154920Y-13017579D02*
X1164444Y-12998531D01*
X1164444Y-12998531D02*
X1173967Y-12989008D01*
X1173967Y-12989008D02*
X1193015Y-12979484D01*
X1193015Y-12979484D02*
X1231110Y-12979484D01*
X1231110Y-12979484D02*
X1250158Y-12989008D01*
X1250158Y-12989008D02*
X1259682Y-12998531D01*
X1259682Y-12998531D02*
X1269205Y-13017579D01*
X1269205Y-13017579D02*
X1269205Y-13027103D01*
X1269205Y-13027103D02*
X1259682Y-13046150D01*
X1259682Y-13046150D02*
X1250158Y-13055674D01*
X1250158Y-13055674D02*
X1231110Y-13065198D01*
X1231110Y-13065198D02*
X1193015Y-13065198D01*
X1193015Y-13065198D02*
X1173967Y-13074722D01*
X1173967Y-13074722D02*
X1164444Y-13084246D01*
X1164444Y-13084246D02*
X1154920Y-13103293D01*
X1154920Y-13103293D02*
X1154920Y-13141388D01*
X1154920Y-13141388D02*
X1164444Y-13160436D01*
X1164444Y-13160436D02*
X1173967Y-13169960D01*
X1173967Y-13169960D02*
X1193015Y-13179484D01*
X1193015Y-13179484D02*
X1231110Y-13179484D01*
X1231110Y-13179484D02*
X1250158Y-13169960D01*
X1250158Y-13169960D02*
X1259682Y-13160436D01*
X1259682Y-13160436D02*
X1269205Y-13141388D01*
X1269205Y-13141388D02*
X1269205Y-13103293D01*
X1269205Y-13103293D02*
X1259682Y-13084246D01*
X1259682Y-13084246D02*
X1250158Y-13074722D01*
X1250158Y-13074722D02*
X1231110Y-13065198D01*
X1354920Y-13179484D02*
X1354920Y-13046150D01*
X1354920Y-13065198D02*
X1364444Y-13055674D01*
X1364444Y-13055674D02*
X1383491Y-13046150D01*
X1383491Y-13046150D02*
X1412063Y-13046150D01*
X1412063Y-13046150D02*
X1431110Y-13055674D01*
X1431110Y-13055674D02*
X1440634Y-13074722D01*
X1440634Y-13074722D02*
X1440634Y-13179484D01*
X1440634Y-13074722D02*
X1450158Y-13055674D01*
X1450158Y-13055674D02*
X1469205Y-13046150D01*
X1469205Y-13046150D02*
X1497777Y-13046150D01*
X1497777Y-13046150D02*
X1516824Y-13055674D01*
X1516824Y-13055674D02*
X1526348Y-13074722D01*
X1526348Y-13074722D02*
X1526348Y-13179484D01*
X1621586Y-13179484D02*
X1621586Y-13046150D01*
X1621586Y-13065198D02*
X1631110Y-13055674D01*
X1631110Y-13055674D02*
X1650158Y-13046150D01*
X1650158Y-13046150D02*
X1678729Y-13046150D01*
X1678729Y-13046150D02*
X1697777Y-13055674D01*
X1697777Y-13055674D02*
X1707301Y-13074722D01*
X1707301Y-13074722D02*
X1707301Y-13179484D01*
X1707301Y-13074722D02*
X1716824Y-13055674D01*
X1716824Y-13055674D02*
X1735872Y-13046150D01*
X1735872Y-13046150D02*
X1764443Y-13046150D01*
X1764443Y-13046150D02*
X1783491Y-13055674D01*
X1783491Y-13055674D02*
X1793015Y-13074722D01*
X1793015Y-13074722D02*
X1793015Y-13179484D01*
X2183491Y-12969960D02*
X2012063Y-13227103D01*
X2440634Y-12979484D02*
X2459682Y-12979484D01*
X2459682Y-12979484D02*
X2478729Y-12989008D01*
X2478729Y-12989008D02*
X2488253Y-12998531D01*
X2488253Y-12998531D02*
X2497777Y-13017579D01*
X2497777Y-13017579D02*
X2507301Y-13055674D01*
X2507301Y-13055674D02*
X2507301Y-13103293D01*
X2507301Y-13103293D02*
X2497777Y-13141388D01*
X2497777Y-13141388D02*
X2488253Y-13160436D01*
X2488253Y-13160436D02*
X2478729Y-13169960D01*
X2478729Y-13169960D02*
X2459682Y-13179484D01*
X2459682Y-13179484D02*
X2440634Y-13179484D01*
X2440634Y-13179484D02*
X2421587Y-13169960D01*
X2421587Y-13169960D02*
X2412063Y-13160436D01*
X2412063Y-13160436D02*
X2402539Y-13141388D01*
X2402539Y-13141388D02*
X2393015Y-13103293D01*
X2393015Y-13103293D02*
X2393015Y-13055674D01*
X2393015Y-13055674D02*
X2402539Y-13017579D01*
X2402539Y-13017579D02*
X2412063Y-12998531D01*
X2412063Y-12998531D02*
X2421587Y-12989008D01*
X2421587Y-12989008D02*
X2440634Y-12979484D01*
X2593015Y-13160436D02*
X2602539Y-13169960D01*
X2602539Y-13169960D02*
X2593015Y-13179484D01*
X2593015Y-13179484D02*
X2583491Y-13169960D01*
X2583491Y-13169960D02*
X2593015Y-13160436D01*
X2593015Y-13160436D02*
X2593015Y-13179484D01*
X2793015Y-13179484D02*
X2678729Y-13179484D01*
X2735872Y-13179484D02*
X2735872Y-12979484D01*
X2735872Y-12979484D02*
X2716825Y-13008055D01*
X2716825Y-13008055D02*
X2697777Y-13027103D01*
X2697777Y-13027103D02*
X2678729Y-13036627D01*
X2973967Y-12979484D02*
X2878729Y-12979484D01*
X2878729Y-12979484D02*
X2869206Y-13074722D01*
X2869206Y-13074722D02*
X2878729Y-13065198D01*
X2878729Y-13065198D02*
X2897777Y-13055674D01*
X2897777Y-13055674D02*
X2945396Y-13055674D01*
X2945396Y-13055674D02*
X2964444Y-13065198D01*
X2964444Y-13065198D02*
X2973967Y-13074722D01*
X2973967Y-13074722D02*
X2983491Y-13093769D01*
X2983491Y-13093769D02*
X2983491Y-13141388D01*
X2983491Y-13141388D02*
X2973967Y-13160436D01*
X2973967Y-13160436D02*
X2964444Y-13169960D01*
X2964444Y-13169960D02*
X2945396Y-13179484D01*
X2945396Y-13179484D02*
X2897777Y-13179484D01*
X2897777Y-13179484D02*
X2878729Y-13169960D01*
X2878729Y-13169960D02*
X2869206Y-13160436D01*
X3050158Y-12979484D02*
X3183491Y-12979484D01*
X3183491Y-12979484D02*
X3097777Y-13179484D01*
X3297777Y-12979484D02*
X3316825Y-12979484D01*
X3316825Y-12979484D02*
X3335872Y-12989008D01*
X3335872Y-12989008D02*
X3345396Y-12998531D01*
X3345396Y-12998531D02*
X3354920Y-13017579D01*
X3354920Y-13017579D02*
X3364444Y-13055674D01*
X3364444Y-13055674D02*
X3364444Y-13103293D01*
X3364444Y-13103293D02*
X3354920Y-13141388D01*
X3354920Y-13141388D02*
X3345396Y-13160436D01*
X3345396Y-13160436D02*
X3335872Y-13169960D01*
X3335872Y-13169960D02*
X3316825Y-13179484D01*
X3316825Y-13179484D02*
X3297777Y-13179484D01*
X3297777Y-13179484D02*
X3278729Y-13169960D01*
X3278729Y-13169960D02*
X3269206Y-13160436D01*
X3269206Y-13160436D02*
X3259682Y-13141388D01*
X3259682Y-13141388D02*
X3250158Y-13103293D01*
X3250158Y-13103293D02*
X3250158Y-13055674D01*
X3250158Y-13055674D02*
X3259682Y-13017579D01*
X3259682Y-13017579D02*
X3269206Y-12998531D01*
X3269206Y-12998531D02*
X3278729Y-12989008D01*
X3278729Y-12989008D02*
X3297777Y-12979484D01*
X3440634Y-12979484D02*
X3440634Y-13017579D01*
X3516825Y-12979484D02*
X3516825Y-13017579D01*
X3812063Y-13255674D02*
X3802539Y-13246150D01*
X3802539Y-13246150D02*
X3783491Y-13217579D01*
X3783491Y-13217579D02*
X3773968Y-13198531D01*
X3773968Y-13198531D02*
X3764444Y-13169960D01*
X3764444Y-13169960D02*
X3754920Y-13122341D01*
X3754920Y-13122341D02*
X3754920Y-13084246D01*
X3754920Y-13084246D02*
X3764444Y-13036627D01*
X3764444Y-13036627D02*
X3773968Y-13008055D01*
X3773968Y-13008055D02*
X3783491Y-12989008D01*
X3783491Y-12989008D02*
X3802539Y-12960436D01*
X3802539Y-12960436D02*
X3812063Y-12950912D01*
X3869206Y-12979484D02*
X4002539Y-12979484D01*
X4002539Y-12979484D02*
X3916825Y-13179484D01*
X4069206Y-12998531D02*
X4078729Y-12989008D01*
X4078729Y-12989008D02*
X4097777Y-12979484D01*
X4097777Y-12979484D02*
X4145396Y-12979484D01*
X4145396Y-12979484D02*
X4164444Y-12989008D01*
X4164444Y-12989008D02*
X4173968Y-12998531D01*
X4173968Y-12998531D02*
X4183491Y-13017579D01*
X4183491Y-13017579D02*
X4183491Y-13036627D01*
X4183491Y-13036627D02*
X4173968Y-13065198D01*
X4173968Y-13065198D02*
X4059682Y-13179484D01*
X4059682Y-13179484D02*
X4183491Y-13179484D01*
X4421587Y-13179484D02*
X4421587Y-12979484D01*
X4507301Y-13179484D02*
X4507301Y-13074722D01*
X4507301Y-13074722D02*
X4497777Y-13055674D01*
X4497777Y-13055674D02*
X4478730Y-13046150D01*
X4478730Y-13046150D02*
X4450158Y-13046150D01*
X4450158Y-13046150D02*
X4431111Y-13055674D01*
X4431111Y-13055674D02*
X4421587Y-13065198D01*
X4631111Y-13179484D02*
X4612063Y-13169960D01*
X4612063Y-13169960D02*
X4602539Y-13160436D01*
X4602539Y-13160436D02*
X4593015Y-13141388D01*
X4593015Y-13141388D02*
X4593015Y-13084246D01*
X4593015Y-13084246D02*
X4602539Y-13065198D01*
X4602539Y-13065198D02*
X4612063Y-13055674D01*
X4612063Y-13055674D02*
X4631111Y-13046150D01*
X4631111Y-13046150D02*
X4659682Y-13046150D01*
X4659682Y-13046150D02*
X4678730Y-13055674D01*
X4678730Y-13055674D02*
X4688253Y-13065198D01*
X4688253Y-13065198D02*
X4697777Y-13084246D01*
X4697777Y-13084246D02*
X4697777Y-13141388D01*
X4697777Y-13141388D02*
X4688253Y-13160436D01*
X4688253Y-13160436D02*
X4678730Y-13169960D01*
X4678730Y-13169960D02*
X4659682Y-13179484D01*
X4659682Y-13179484D02*
X4631111Y-13179484D01*
X4812063Y-13179484D02*
X4793015Y-13169960D01*
X4793015Y-13169960D02*
X4783492Y-13150912D01*
X4783492Y-13150912D02*
X4783492Y-12979484D01*
X4964444Y-13169960D02*
X4945396Y-13179484D01*
X4945396Y-13179484D02*
X4907301Y-13179484D01*
X4907301Y-13179484D02*
X4888253Y-13169960D01*
X4888253Y-13169960D02*
X4878730Y-13150912D01*
X4878730Y-13150912D02*
X4878730Y-13074722D01*
X4878730Y-13074722D02*
X4888253Y-13055674D01*
X4888253Y-13055674D02*
X4907301Y-13046150D01*
X4907301Y-13046150D02*
X4945396Y-13046150D01*
X4945396Y-13046150D02*
X4964444Y-13055674D01*
X4964444Y-13055674D02*
X4973968Y-13074722D01*
X4973968Y-13074722D02*
X4973968Y-13093769D01*
X4973968Y-13093769D02*
X4878730Y-13112817D01*
X5050158Y-13169960D02*
X5069206Y-13179484D01*
X5069206Y-13179484D02*
X5107301Y-13179484D01*
X5107301Y-13179484D02*
X5126349Y-13169960D01*
X5126349Y-13169960D02*
X5135873Y-13150912D01*
X5135873Y-13150912D02*
X5135873Y-13141388D01*
X5135873Y-13141388D02*
X5126349Y-13122341D01*
X5126349Y-13122341D02*
X5107301Y-13112817D01*
X5107301Y-13112817D02*
X5078730Y-13112817D01*
X5078730Y-13112817D02*
X5059682Y-13103293D01*
X5059682Y-13103293D02*
X5050158Y-13084246D01*
X5050158Y-13084246D02*
X5050158Y-13074722D01*
X5050158Y-13074722D02*
X5059682Y-13055674D01*
X5059682Y-13055674D02*
X5078730Y-13046150D01*
X5078730Y-13046150D02*
X5107301Y-13046150D01*
X5107301Y-13046150D02*
X5126349Y-13055674D01*
X5202539Y-13255674D02*
X5212063Y-13246150D01*
X5212063Y-13246150D02*
X5231111Y-13217579D01*
X5231111Y-13217579D02*
X5240634Y-13198531D01*
X5240634Y-13198531D02*
X5250158Y-13169960D01*
X5250158Y-13169960D02*
X5259682Y-13122341D01*
X5259682Y-13122341D02*
X5259682Y-13084246D01*
X5259682Y-13084246D02*
X5250158Y-13036627D01*
X5250158Y-13036627D02*
X5240634Y-13008055D01*
X5240634Y-13008055D02*
X5231111Y-12989008D01*
X5231111Y-12989008D02*
X5212063Y-12960436D01*
X5212063Y-12960436D02*
X5202539Y-12950912D01*
X5564444Y-13255674D02*
X5554920Y-13246150D01*
X5554920Y-13246150D02*
X5535873Y-13217579D01*
X5535873Y-13217579D02*
X5526349Y-13198531D01*
X5526349Y-13198531D02*
X5516825Y-13169960D01*
X5516825Y-13169960D02*
X5507301Y-13122341D01*
X5507301Y-13122341D02*
X5507301Y-13084246D01*
X5507301Y-13084246D02*
X5516825Y-13036627D01*
X5516825Y-13036627D02*
X5526349Y-13008055D01*
X5526349Y-13008055D02*
X5535873Y-12989008D01*
X5535873Y-12989008D02*
X5554920Y-12960436D01*
X5554920Y-12960436D02*
X5564444Y-12950912D01*
X5640634Y-13046150D02*
X5640634Y-13179484D01*
X5640634Y-13065198D02*
X5650158Y-13055674D01*
X5650158Y-13055674D02*
X5669206Y-13046150D01*
X5669206Y-13046150D02*
X5697777Y-13046150D01*
X5697777Y-13046150D02*
X5716825Y-13055674D01*
X5716825Y-13055674D02*
X5726349Y-13074722D01*
X5726349Y-13074722D02*
X5726349Y-13179484D01*
X5850158Y-13179484D02*
X5831111Y-13169960D01*
X5831111Y-13169960D02*
X5821587Y-13160436D01*
X5821587Y-13160436D02*
X5812063Y-13141388D01*
X5812063Y-13141388D02*
X5812063Y-13084246D01*
X5812063Y-13084246D02*
X5821587Y-13065198D01*
X5821587Y-13065198D02*
X5831111Y-13055674D01*
X5831111Y-13055674D02*
X5850158Y-13046150D01*
X5850158Y-13046150D02*
X5878730Y-13046150D01*
X5878730Y-13046150D02*
X5897777Y-13055674D01*
X5897777Y-13055674D02*
X5907301Y-13065198D01*
X5907301Y-13065198D02*
X5916825Y-13084246D01*
X5916825Y-13084246D02*
X5916825Y-13141388D01*
X5916825Y-13141388D02*
X5907301Y-13160436D01*
X5907301Y-13160436D02*
X5897777Y-13169960D01*
X5897777Y-13169960D02*
X5878730Y-13179484D01*
X5878730Y-13179484D02*
X5850158Y-13179484D01*
X5973968Y-13046150D02*
X6050158Y-13046150D01*
X6002539Y-12979484D02*
X6002539Y-13150912D01*
X6002539Y-13150912D02*
X6012063Y-13169960D01*
X6012063Y-13169960D02*
X6031111Y-13179484D01*
X6031111Y-13179484D02*
X6050158Y-13179484D01*
X6269206Y-13046150D02*
X6269206Y-13246150D01*
X6269206Y-13055674D02*
X6288253Y-13046150D01*
X6288253Y-13046150D02*
X6326349Y-13046150D01*
X6326349Y-13046150D02*
X6345396Y-13055674D01*
X6345396Y-13055674D02*
X6354920Y-13065198D01*
X6354920Y-13065198D02*
X6364444Y-13084246D01*
X6364444Y-13084246D02*
X6364444Y-13141388D01*
X6364444Y-13141388D02*
X6354920Y-13160436D01*
X6354920Y-13160436D02*
X6345396Y-13169960D01*
X6345396Y-13169960D02*
X6326349Y-13179484D01*
X6326349Y-13179484D02*
X6288253Y-13179484D01*
X6288253Y-13179484D02*
X6269206Y-13169960D01*
X6478730Y-13179484D02*
X6459682Y-13169960D01*
X6459682Y-13169960D02*
X6450158Y-13150912D01*
X6450158Y-13150912D02*
X6450158Y-12979484D01*
X6640634Y-13179484D02*
X6640634Y-13074722D01*
X6640634Y-13074722D02*
X6631111Y-13055674D01*
X6631111Y-13055674D02*
X6612063Y-13046150D01*
X6612063Y-13046150D02*
X6573968Y-13046150D01*
X6573968Y-13046150D02*
X6554920Y-13055674D01*
X6640634Y-13169960D02*
X6621587Y-13179484D01*
X6621587Y-13179484D02*
X6573968Y-13179484D01*
X6573968Y-13179484D02*
X6554920Y-13169960D01*
X6554920Y-13169960D02*
X6545396Y-13150912D01*
X6545396Y-13150912D02*
X6545396Y-13131865D01*
X6545396Y-13131865D02*
X6554920Y-13112817D01*
X6554920Y-13112817D02*
X6573968Y-13103293D01*
X6573968Y-13103293D02*
X6621587Y-13103293D01*
X6621587Y-13103293D02*
X6640634Y-13093769D01*
X6707301Y-13046150D02*
X6783492Y-13046150D01*
X6735873Y-12979484D02*
X6735873Y-13150912D01*
X6735873Y-13150912D02*
X6745396Y-13169960D01*
X6745396Y-13169960D02*
X6764444Y-13179484D01*
X6764444Y-13179484D02*
X6783492Y-13179484D01*
X6926349Y-13169960D02*
X6907301Y-13179484D01*
X6907301Y-13179484D02*
X6869206Y-13179484D01*
X6869206Y-13179484D02*
X6850158Y-13169960D01*
X6850158Y-13169960D02*
X6840634Y-13150912D01*
X6840634Y-13150912D02*
X6840634Y-13074722D01*
X6840634Y-13074722D02*
X6850158Y-13055674D01*
X6850158Y-13055674D02*
X6869206Y-13046150D01*
X6869206Y-13046150D02*
X6907301Y-13046150D01*
X6907301Y-13046150D02*
X6926349Y-13055674D01*
X6926349Y-13055674D02*
X6935873Y-13074722D01*
X6935873Y-13074722D02*
X6935873Y-13093769D01*
X6935873Y-13093769D02*
X6840634Y-13112817D01*
X7107301Y-13179484D02*
X7107301Y-12979484D01*
X7107301Y-13169960D02*
X7088254Y-13179484D01*
X7088254Y-13179484D02*
X7050158Y-13179484D01*
X7050158Y-13179484D02*
X7031111Y-13169960D01*
X7031111Y-13169960D02*
X7021587Y-13160436D01*
X7021587Y-13160436D02*
X7012063Y-13141388D01*
X7012063Y-13141388D02*
X7012063Y-13084246D01*
X7012063Y-13084246D02*
X7021587Y-13065198D01*
X7021587Y-13065198D02*
X7031111Y-13055674D01*
X7031111Y-13055674D02*
X7050158Y-13046150D01*
X7050158Y-13046150D02*
X7088254Y-13046150D01*
X7088254Y-13046150D02*
X7107301Y-13055674D01*
X7183492Y-13255674D02*
X7193015Y-13246150D01*
X7193015Y-13246150D02*
X7212063Y-13217579D01*
X7212063Y-13217579D02*
X7221587Y-13198531D01*
X7221587Y-13198531D02*
X7231111Y-13169960D01*
X7231111Y-13169960D02*
X7240634Y-13122341D01*
X7240634Y-13122341D02*
X7240634Y-13084246D01*
X7240634Y-13084246D02*
X7231111Y-13036627D01*
X7231111Y-13036627D02*
X7221587Y-13008055D01*
X7221587Y-13008055D02*
X7212063Y-12989008D01*
X7212063Y-12989008D02*
X7193015Y-12960436D01*
X7193015Y-12960436D02*
X7183492Y-12950912D01*
X207711Y-13478711D02*
X207711Y-13337289D01*
X66289Y-13337289D01*
X66289Y-13478711D01*
X207711Y-13478711D01*
X583491Y-13366150D02*
X583491Y-13499484D01*
X535872Y-13289960D02*
X488253Y-13432817D01*
X488253Y-13432817D02*
X612063Y-13432817D01*
X688253Y-13480436D02*
X697777Y-13489960D01*
X697777Y-13489960D02*
X688253Y-13499484D01*
X688253Y-13499484D02*
X678729Y-13489960D01*
X678729Y-13489960D02*
X688253Y-13480436D01*
X688253Y-13480436D02*
X688253Y-13499484D01*
X821586Y-13299484D02*
X840634Y-13299484D01*
X840634Y-13299484D02*
X859682Y-13309008D01*
X859682Y-13309008D02*
X869205Y-13318531D01*
X869205Y-13318531D02*
X878729Y-13337579D01*
X878729Y-13337579D02*
X888253Y-13375674D01*
X888253Y-13375674D02*
X888253Y-13423293D01*
X888253Y-13423293D02*
X878729Y-13461388D01*
X878729Y-13461388D02*
X869205Y-13480436D01*
X869205Y-13480436D02*
X859682Y-13489960D01*
X859682Y-13489960D02*
X840634Y-13499484D01*
X840634Y-13499484D02*
X821586Y-13499484D01*
X821586Y-13499484D02*
X802539Y-13489960D01*
X802539Y-13489960D02*
X793015Y-13480436D01*
X793015Y-13480436D02*
X783491Y-13461388D01*
X783491Y-13461388D02*
X773967Y-13423293D01*
X773967Y-13423293D02*
X773967Y-13375674D01*
X773967Y-13375674D02*
X783491Y-13337579D01*
X783491Y-13337579D02*
X793015Y-13318531D01*
X793015Y-13318531D02*
X802539Y-13309008D01*
X802539Y-13309008D02*
X821586Y-13299484D01*
X1012062Y-13299484D02*
X1031110Y-13299484D01*
X1031110Y-13299484D02*
X1050158Y-13309008D01*
X1050158Y-13309008D02*
X1059682Y-13318531D01*
X1059682Y-13318531D02*
X1069205Y-13337579D01*
X1069205Y-13337579D02*
X1078729Y-13375674D01*
X1078729Y-13375674D02*
X1078729Y-13423293D01*
X1078729Y-13423293D02*
X1069205Y-13461388D01*
X1069205Y-13461388D02*
X1059682Y-13480436D01*
X1059682Y-13480436D02*
X1050158Y-13489960D01*
X1050158Y-13489960D02*
X1031110Y-13499484D01*
X1031110Y-13499484D02*
X1012062Y-13499484D01*
X1012062Y-13499484D02*
X993015Y-13489960D01*
X993015Y-13489960D02*
X983491Y-13480436D01*
X983491Y-13480436D02*
X973967Y-13461388D01*
X973967Y-13461388D02*
X964443Y-13423293D01*
X964443Y-13423293D02*
X964443Y-13375674D01*
X964443Y-13375674D02*
X973967Y-13337579D01*
X973967Y-13337579D02*
X983491Y-13318531D01*
X983491Y-13318531D02*
X993015Y-13309008D01*
X993015Y-13309008D02*
X1012062Y-13299484D01*
X1202539Y-13299484D02*
X1221586Y-13299484D01*
X1221586Y-13299484D02*
X1240634Y-13309008D01*
X1240634Y-13309008D02*
X1250158Y-13318531D01*
X1250158Y-13318531D02*
X1259682Y-13337579D01*
X1259682Y-13337579D02*
X1269205Y-13375674D01*
X1269205Y-13375674D02*
X1269205Y-13423293D01*
X1269205Y-13423293D02*
X1259682Y-13461388D01*
X1259682Y-13461388D02*
X1250158Y-13480436D01*
X1250158Y-13480436D02*
X1240634Y-13489960D01*
X1240634Y-13489960D02*
X1221586Y-13499484D01*
X1221586Y-13499484D02*
X1202539Y-13499484D01*
X1202539Y-13499484D02*
X1183491Y-13489960D01*
X1183491Y-13489960D02*
X1173967Y-13480436D01*
X1173967Y-13480436D02*
X1164444Y-13461388D01*
X1164444Y-13461388D02*
X1154920Y-13423293D01*
X1154920Y-13423293D02*
X1154920Y-13375674D01*
X1154920Y-13375674D02*
X1164444Y-13337579D01*
X1164444Y-13337579D02*
X1173967Y-13318531D01*
X1173967Y-13318531D02*
X1183491Y-13309008D01*
X1183491Y-13309008D02*
X1202539Y-13299484D01*
X1354920Y-13499484D02*
X1354920Y-13366150D01*
X1354920Y-13385198D02*
X1364444Y-13375674D01*
X1364444Y-13375674D02*
X1383491Y-13366150D01*
X1383491Y-13366150D02*
X1412063Y-13366150D01*
X1412063Y-13366150D02*
X1431110Y-13375674D01*
X1431110Y-13375674D02*
X1440634Y-13394722D01*
X1440634Y-13394722D02*
X1440634Y-13499484D01*
X1440634Y-13394722D02*
X1450158Y-13375674D01*
X1450158Y-13375674D02*
X1469205Y-13366150D01*
X1469205Y-13366150D02*
X1497777Y-13366150D01*
X1497777Y-13366150D02*
X1516824Y-13375674D01*
X1516824Y-13375674D02*
X1526348Y-13394722D01*
X1526348Y-13394722D02*
X1526348Y-13499484D01*
X1621586Y-13499484D02*
X1621586Y-13366150D01*
X1621586Y-13385198D02*
X1631110Y-13375674D01*
X1631110Y-13375674D02*
X1650158Y-13366150D01*
X1650158Y-13366150D02*
X1678729Y-13366150D01*
X1678729Y-13366150D02*
X1697777Y-13375674D01*
X1697777Y-13375674D02*
X1707301Y-13394722D01*
X1707301Y-13394722D02*
X1707301Y-13499484D01*
X1707301Y-13394722D02*
X1716824Y-13375674D01*
X1716824Y-13375674D02*
X1735872Y-13366150D01*
X1735872Y-13366150D02*
X1764443Y-13366150D01*
X1764443Y-13366150D02*
X1783491Y-13375674D01*
X1783491Y-13375674D02*
X1793015Y-13394722D01*
X1793015Y-13394722D02*
X1793015Y-13499484D01*
X2183491Y-13289960D02*
X2012063Y-13547103D01*
X2440634Y-13299484D02*
X2459682Y-13299484D01*
X2459682Y-13299484D02*
X2478729Y-13309008D01*
X2478729Y-13309008D02*
X2488253Y-13318531D01*
X2488253Y-13318531D02*
X2497777Y-13337579D01*
X2497777Y-13337579D02*
X2507301Y-13375674D01*
X2507301Y-13375674D02*
X2507301Y-13423293D01*
X2507301Y-13423293D02*
X2497777Y-13461388D01*
X2497777Y-13461388D02*
X2488253Y-13480436D01*
X2488253Y-13480436D02*
X2478729Y-13489960D01*
X2478729Y-13489960D02*
X2459682Y-13499484D01*
X2459682Y-13499484D02*
X2440634Y-13499484D01*
X2440634Y-13499484D02*
X2421587Y-13489960D01*
X2421587Y-13489960D02*
X2412063Y-13480436D01*
X2412063Y-13480436D02*
X2402539Y-13461388D01*
X2402539Y-13461388D02*
X2393015Y-13423293D01*
X2393015Y-13423293D02*
X2393015Y-13375674D01*
X2393015Y-13375674D02*
X2402539Y-13337579D01*
X2402539Y-13337579D02*
X2412063Y-13318531D01*
X2412063Y-13318531D02*
X2421587Y-13309008D01*
X2421587Y-13309008D02*
X2440634Y-13299484D01*
X2593015Y-13480436D02*
X2602539Y-13489960D01*
X2602539Y-13489960D02*
X2593015Y-13499484D01*
X2593015Y-13499484D02*
X2583491Y-13489960D01*
X2583491Y-13489960D02*
X2593015Y-13480436D01*
X2593015Y-13480436D02*
X2593015Y-13499484D01*
X2793015Y-13499484D02*
X2678729Y-13499484D01*
X2735872Y-13499484D02*
X2735872Y-13299484D01*
X2735872Y-13299484D02*
X2716825Y-13328055D01*
X2716825Y-13328055D02*
X2697777Y-13347103D01*
X2697777Y-13347103D02*
X2678729Y-13356627D01*
X2973967Y-13299484D02*
X2878729Y-13299484D01*
X2878729Y-13299484D02*
X2869206Y-13394722D01*
X2869206Y-13394722D02*
X2878729Y-13385198D01*
X2878729Y-13385198D02*
X2897777Y-13375674D01*
X2897777Y-13375674D02*
X2945396Y-13375674D01*
X2945396Y-13375674D02*
X2964444Y-13385198D01*
X2964444Y-13385198D02*
X2973967Y-13394722D01*
X2973967Y-13394722D02*
X2983491Y-13413769D01*
X2983491Y-13413769D02*
X2983491Y-13461388D01*
X2983491Y-13461388D02*
X2973967Y-13480436D01*
X2973967Y-13480436D02*
X2964444Y-13489960D01*
X2964444Y-13489960D02*
X2945396Y-13499484D01*
X2945396Y-13499484D02*
X2897777Y-13499484D01*
X2897777Y-13499484D02*
X2878729Y-13489960D01*
X2878729Y-13489960D02*
X2869206Y-13480436D01*
X3050158Y-13299484D02*
X3183491Y-13299484D01*
X3183491Y-13299484D02*
X3097777Y-13499484D01*
X3354920Y-13299484D02*
X3259682Y-13299484D01*
X3259682Y-13299484D02*
X3250158Y-13394722D01*
X3250158Y-13394722D02*
X3259682Y-13385198D01*
X3259682Y-13385198D02*
X3278729Y-13375674D01*
X3278729Y-13375674D02*
X3326348Y-13375674D01*
X3326348Y-13375674D02*
X3345396Y-13385198D01*
X3345396Y-13385198D02*
X3354920Y-13394722D01*
X3354920Y-13394722D02*
X3364444Y-13413769D01*
X3364444Y-13413769D02*
X3364444Y-13461388D01*
X3364444Y-13461388D02*
X3354920Y-13480436D01*
X3354920Y-13480436D02*
X3345396Y-13489960D01*
X3345396Y-13489960D02*
X3326348Y-13499484D01*
X3326348Y-13499484D02*
X3278729Y-13499484D01*
X3278729Y-13499484D02*
X3259682Y-13489960D01*
X3259682Y-13489960D02*
X3250158Y-13480436D01*
X3440634Y-13299484D02*
X3440634Y-13337579D01*
X3516825Y-13299484D02*
X3516825Y-13337579D01*
X3812063Y-13575674D02*
X3802539Y-13566150D01*
X3802539Y-13566150D02*
X3783491Y-13537579D01*
X3783491Y-13537579D02*
X3773968Y-13518531D01*
X3773968Y-13518531D02*
X3764444Y-13489960D01*
X3764444Y-13489960D02*
X3754920Y-13442341D01*
X3754920Y-13442341D02*
X3754920Y-13404246D01*
X3754920Y-13404246D02*
X3764444Y-13356627D01*
X3764444Y-13356627D02*
X3773968Y-13328055D01*
X3773968Y-13328055D02*
X3783491Y-13309008D01*
X3783491Y-13309008D02*
X3802539Y-13280436D01*
X3802539Y-13280436D02*
X3812063Y-13270912D01*
X3973968Y-13299484D02*
X3935872Y-13299484D01*
X3935872Y-13299484D02*
X3916825Y-13309008D01*
X3916825Y-13309008D02*
X3907301Y-13318531D01*
X3907301Y-13318531D02*
X3888253Y-13347103D01*
X3888253Y-13347103D02*
X3878729Y-13385198D01*
X3878729Y-13385198D02*
X3878729Y-13461388D01*
X3878729Y-13461388D02*
X3888253Y-13480436D01*
X3888253Y-13480436D02*
X3897777Y-13489960D01*
X3897777Y-13489960D02*
X3916825Y-13499484D01*
X3916825Y-13499484D02*
X3954920Y-13499484D01*
X3954920Y-13499484D02*
X3973968Y-13489960D01*
X3973968Y-13489960D02*
X3983491Y-13480436D01*
X3983491Y-13480436D02*
X3993015Y-13461388D01*
X3993015Y-13461388D02*
X3993015Y-13413769D01*
X3993015Y-13413769D02*
X3983491Y-13394722D01*
X3983491Y-13394722D02*
X3973968Y-13385198D01*
X3973968Y-13385198D02*
X3954920Y-13375674D01*
X3954920Y-13375674D02*
X3916825Y-13375674D01*
X3916825Y-13375674D02*
X3897777Y-13385198D01*
X3897777Y-13385198D02*
X3888253Y-13394722D01*
X3888253Y-13394722D02*
X3878729Y-13413769D01*
X4231111Y-13499484D02*
X4231111Y-13299484D01*
X4316825Y-13499484D02*
X4316825Y-13394722D01*
X4316825Y-13394722D02*
X4307301Y-13375674D01*
X4307301Y-13375674D02*
X4288253Y-13366150D01*
X4288253Y-13366150D02*
X4259682Y-13366150D01*
X4259682Y-13366150D02*
X4240634Y-13375674D01*
X4240634Y-13375674D02*
X4231111Y-13385198D01*
X4440634Y-13499484D02*
X4421587Y-13489960D01*
X4421587Y-13489960D02*
X4412063Y-13480436D01*
X4412063Y-13480436D02*
X4402539Y-13461388D01*
X4402539Y-13461388D02*
X4402539Y-13404246D01*
X4402539Y-13404246D02*
X4412063Y-13385198D01*
X4412063Y-13385198D02*
X4421587Y-13375674D01*
X4421587Y-13375674D02*
X4440634Y-13366150D01*
X4440634Y-13366150D02*
X4469206Y-13366150D01*
X4469206Y-13366150D02*
X4488253Y-13375674D01*
X4488253Y-13375674D02*
X4497777Y-13385198D01*
X4497777Y-13385198D02*
X4507301Y-13404246D01*
X4507301Y-13404246D02*
X4507301Y-13461388D01*
X4507301Y-13461388D02*
X4497777Y-13480436D01*
X4497777Y-13480436D02*
X4488253Y-13489960D01*
X4488253Y-13489960D02*
X4469206Y-13499484D01*
X4469206Y-13499484D02*
X4440634Y-13499484D01*
X4621587Y-13499484D02*
X4602539Y-13489960D01*
X4602539Y-13489960D02*
X4593015Y-13470912D01*
X4593015Y-13470912D02*
X4593015Y-13299484D01*
X4773968Y-13489960D02*
X4754920Y-13499484D01*
X4754920Y-13499484D02*
X4716825Y-13499484D01*
X4716825Y-13499484D02*
X4697777Y-13489960D01*
X4697777Y-13489960D02*
X4688253Y-13470912D01*
X4688253Y-13470912D02*
X4688253Y-13394722D01*
X4688253Y-13394722D02*
X4697777Y-13375674D01*
X4697777Y-13375674D02*
X4716825Y-13366150D01*
X4716825Y-13366150D02*
X4754920Y-13366150D01*
X4754920Y-13366150D02*
X4773968Y-13375674D01*
X4773968Y-13375674D02*
X4783492Y-13394722D01*
X4783492Y-13394722D02*
X4783492Y-13413769D01*
X4783492Y-13413769D02*
X4688253Y-13432817D01*
X4859682Y-13489960D02*
X4878730Y-13499484D01*
X4878730Y-13499484D02*
X4916825Y-13499484D01*
X4916825Y-13499484D02*
X4935873Y-13489960D01*
X4935873Y-13489960D02*
X4945396Y-13470912D01*
X4945396Y-13470912D02*
X4945396Y-13461388D01*
X4945396Y-13461388D02*
X4935873Y-13442341D01*
X4935873Y-13442341D02*
X4916825Y-13432817D01*
X4916825Y-13432817D02*
X4888253Y-13432817D01*
X4888253Y-13432817D02*
X4869206Y-13423293D01*
X4869206Y-13423293D02*
X4859682Y-13404246D01*
X4859682Y-13404246D02*
X4859682Y-13394722D01*
X4859682Y-13394722D02*
X4869206Y-13375674D01*
X4869206Y-13375674D02*
X4888253Y-13366150D01*
X4888253Y-13366150D02*
X4916825Y-13366150D01*
X4916825Y-13366150D02*
X4935873Y-13375674D01*
X5012063Y-13575674D02*
X5021587Y-13566150D01*
X5021587Y-13566150D02*
X5040634Y-13537579D01*
X5040634Y-13537579D02*
X5050158Y-13518531D01*
X5050158Y-13518531D02*
X5059682Y-13489960D01*
X5059682Y-13489960D02*
X5069206Y-13442341D01*
X5069206Y-13442341D02*
X5069206Y-13404246D01*
X5069206Y-13404246D02*
X5059682Y-13356627D01*
X5059682Y-13356627D02*
X5050158Y-13328055D01*
X5050158Y-13328055D02*
X5040634Y-13309008D01*
X5040634Y-13309008D02*
X5021587Y-13280436D01*
X5021587Y-13280436D02*
X5012063Y-13270912D01*
X5373968Y-13575674D02*
X5364444Y-13566150D01*
X5364444Y-13566150D02*
X5345396Y-13537579D01*
X5345396Y-13537579D02*
X5335873Y-13518531D01*
X5335873Y-13518531D02*
X5326349Y-13489960D01*
X5326349Y-13489960D02*
X5316825Y-13442341D01*
X5316825Y-13442341D02*
X5316825Y-13404246D01*
X5316825Y-13404246D02*
X5326349Y-13356627D01*
X5326349Y-13356627D02*
X5335873Y-13328055D01*
X5335873Y-13328055D02*
X5345396Y-13309008D01*
X5345396Y-13309008D02*
X5364444Y-13280436D01*
X5364444Y-13280436D02*
X5373968Y-13270912D01*
X5450158Y-13366150D02*
X5450158Y-13499484D01*
X5450158Y-13385198D02*
X5459682Y-13375674D01*
X5459682Y-13375674D02*
X5478730Y-13366150D01*
X5478730Y-13366150D02*
X5507301Y-13366150D01*
X5507301Y-13366150D02*
X5526349Y-13375674D01*
X5526349Y-13375674D02*
X5535873Y-13394722D01*
X5535873Y-13394722D02*
X5535873Y-13499484D01*
X5659682Y-13499484D02*
X5640634Y-13489960D01*
X5640634Y-13489960D02*
X5631111Y-13480436D01*
X5631111Y-13480436D02*
X5621587Y-13461388D01*
X5621587Y-13461388D02*
X5621587Y-13404246D01*
X5621587Y-13404246D02*
X5631111Y-13385198D01*
X5631111Y-13385198D02*
X5640634Y-13375674D01*
X5640634Y-13375674D02*
X5659682Y-13366150D01*
X5659682Y-13366150D02*
X5688253Y-13366150D01*
X5688253Y-13366150D02*
X5707301Y-13375674D01*
X5707301Y-13375674D02*
X5716825Y-13385198D01*
X5716825Y-13385198D02*
X5726349Y-13404246D01*
X5726349Y-13404246D02*
X5726349Y-13461388D01*
X5726349Y-13461388D02*
X5716825Y-13480436D01*
X5716825Y-13480436D02*
X5707301Y-13489960D01*
X5707301Y-13489960D02*
X5688253Y-13499484D01*
X5688253Y-13499484D02*
X5659682Y-13499484D01*
X5783492Y-13366150D02*
X5859682Y-13366150D01*
X5812063Y-13299484D02*
X5812063Y-13470912D01*
X5812063Y-13470912D02*
X5821587Y-13489960D01*
X5821587Y-13489960D02*
X5840634Y-13499484D01*
X5840634Y-13499484D02*
X5859682Y-13499484D01*
X6078730Y-13366150D02*
X6078730Y-13566150D01*
X6078730Y-13375674D02*
X6097777Y-13366150D01*
X6097777Y-13366150D02*
X6135873Y-13366150D01*
X6135873Y-13366150D02*
X6154920Y-13375674D01*
X6154920Y-13375674D02*
X6164444Y-13385198D01*
X6164444Y-13385198D02*
X6173968Y-13404246D01*
X6173968Y-13404246D02*
X6173968Y-13461388D01*
X6173968Y-13461388D02*
X6164444Y-13480436D01*
X6164444Y-13480436D02*
X6154920Y-13489960D01*
X6154920Y-13489960D02*
X6135873Y-13499484D01*
X6135873Y-13499484D02*
X6097777Y-13499484D01*
X6097777Y-13499484D02*
X6078730Y-13489960D01*
X6288253Y-13499484D02*
X6269206Y-13489960D01*
X6269206Y-13489960D02*
X6259682Y-13470912D01*
X6259682Y-13470912D02*
X6259682Y-13299484D01*
X6450158Y-13499484D02*
X6450158Y-13394722D01*
X6450158Y-13394722D02*
X6440634Y-13375674D01*
X6440634Y-13375674D02*
X6421587Y-13366150D01*
X6421587Y-13366150D02*
X6383492Y-13366150D01*
X6383492Y-13366150D02*
X6364444Y-13375674D01*
X6450158Y-13489960D02*
X6431111Y-13499484D01*
X6431111Y-13499484D02*
X6383492Y-13499484D01*
X6383492Y-13499484D02*
X6364444Y-13489960D01*
X6364444Y-13489960D02*
X6354920Y-13470912D01*
X6354920Y-13470912D02*
X6354920Y-13451865D01*
X6354920Y-13451865D02*
X6364444Y-13432817D01*
X6364444Y-13432817D02*
X6383492Y-13423293D01*
X6383492Y-13423293D02*
X6431111Y-13423293D01*
X6431111Y-13423293D02*
X6450158Y-13413769D01*
X6516825Y-13366150D02*
X6593015Y-13366150D01*
X6545396Y-13299484D02*
X6545396Y-13470912D01*
X6545396Y-13470912D02*
X6554920Y-13489960D01*
X6554920Y-13489960D02*
X6573968Y-13499484D01*
X6573968Y-13499484D02*
X6593015Y-13499484D01*
X6735873Y-13489960D02*
X6716825Y-13499484D01*
X6716825Y-13499484D02*
X6678730Y-13499484D01*
X6678730Y-13499484D02*
X6659682Y-13489960D01*
X6659682Y-13489960D02*
X6650158Y-13470912D01*
X6650158Y-13470912D02*
X6650158Y-13394722D01*
X6650158Y-13394722D02*
X6659682Y-13375674D01*
X6659682Y-13375674D02*
X6678730Y-13366150D01*
X6678730Y-13366150D02*
X6716825Y-13366150D01*
X6716825Y-13366150D02*
X6735873Y-13375674D01*
X6735873Y-13375674D02*
X6745396Y-13394722D01*
X6745396Y-13394722D02*
X6745396Y-13413769D01*
X6745396Y-13413769D02*
X6650158Y-13432817D01*
X6916825Y-13499484D02*
X6916825Y-13299484D01*
X6916825Y-13489960D02*
X6897777Y-13499484D01*
X6897777Y-13499484D02*
X6859682Y-13499484D01*
X6859682Y-13499484D02*
X6840634Y-13489960D01*
X6840634Y-13489960D02*
X6831111Y-13480436D01*
X6831111Y-13480436D02*
X6821587Y-13461388D01*
X6821587Y-13461388D02*
X6821587Y-13404246D01*
X6821587Y-13404246D02*
X6831111Y-13385198D01*
X6831111Y-13385198D02*
X6840634Y-13375674D01*
X6840634Y-13375674D02*
X6859682Y-13366150D01*
X6859682Y-13366150D02*
X6897777Y-13366150D01*
X6897777Y-13366150D02*
X6916825Y-13375674D01*
X6993015Y-13575674D02*
X7002539Y-13566150D01*
X7002539Y-13566150D02*
X7021587Y-13537579D01*
X7021587Y-13537579D02*
X7031111Y-13518531D01*
X7031111Y-13518531D02*
X7040634Y-13489960D01*
X7040634Y-13489960D02*
X7050158Y-13442341D01*
X7050158Y-13442341D02*
X7050158Y-13404246D01*
X7050158Y-13404246D02*
X7040634Y-13356627D01*
X7040634Y-13356627D02*
X7031111Y-13328055D01*
X7031111Y-13328055D02*
X7021587Y-13309008D01*
X7021587Y-13309008D02*
X7002539Y-13280436D01*
X7002539Y-13280436D02*
X6993015Y-13270912D01*
M02*
