%TF.GenerationSoftware,KiCad,Pcbnew,8.99.0-946-gf00a1ab517*%
%TF.CreationDate,2024-06-06T17:05:11+07:00*%
%TF.ProjectId,Sebas_nuxros,53656261-735f-46e7-9578-726f732e6b69,rev?*%
%TF.SameCoordinates,Original*%
%TF.FileFunction,Paste,Bot*%
%TF.FilePolarity,Positive*%
%FSLAX46Y46*%
G04 Gerber Fmt 4.6, Leading zero omitted, Abs format (unit mm)*
G04 Created by KiCad (PCBNEW 8.99.0-946-gf00a1ab517) date 2024-06-06 17:05:11*
%MOMM*%
%LPD*%
G01*
G04 APERTURE LIST*
G04 Aperture macros list*
%AMRoundRect*
0 Rectangle with rounded corners*
0 $1 Rounding radius*
0 $2 $3 $4 $5 $6 $7 $8 $9 X,Y pos of 4 corners*
0 Add a 4 corners polygon primitive as box body*
4,1,4,$2,$3,$4,$5,$6,$7,$8,$9,$2,$3,0*
0 Add four circle primitives for the rounded corners*
1,1,$1+$1,$2,$3*
1,1,$1+$1,$4,$5*
1,1,$1+$1,$6,$7*
1,1,$1+$1,$8,$9*
0 Add four rect primitives between the rounded corners*
20,1,$1+$1,$2,$3,$4,$5,0*
20,1,$1+$1,$4,$5,$6,$7,0*
20,1,$1+$1,$6,$7,$8,$9,0*
20,1,$1+$1,$8,$9,$2,$3,0*%
G04 Aperture macros list end*
%ADD10C,0.100000*%
%ADD11O,5.500000X2.410000*%
%ADD12R,1.500000X0.900000*%
%ADD13RoundRect,0.250000X-0.450000X0.262500X-0.450000X-0.262500X0.450000X-0.262500X0.450000X0.262500X0*%
%ADD14RoundRect,0.225000X0.375000X-0.225000X0.375000X0.225000X-0.375000X0.225000X-0.375000X-0.225000X0*%
%ADD15RoundRect,0.250000X-0.475000X0.250000X-0.475000X-0.250000X0.475000X-0.250000X0.475000X0.250000X0*%
%ADD16R,0.900000X1.500000*%
%ADD17RoundRect,0.150000X0.512500X0.150000X-0.512500X0.150000X-0.512500X-0.150000X0.512500X-0.150000X0*%
%ADD18RoundRect,0.250000X0.475000X-0.250000X0.475000X0.250000X-0.475000X0.250000X-0.475000X-0.250000X0*%
%ADD19RoundRect,0.250000X0.262500X0.450000X-0.262500X0.450000X-0.262500X-0.450000X0.262500X-0.450000X0*%
%ADD20RoundRect,0.150000X-0.625000X0.150000X-0.625000X-0.150000X0.625000X-0.150000X0.625000X0.150000X0*%
%ADD21RoundRect,0.250000X-0.650000X0.350000X-0.650000X-0.350000X0.650000X-0.350000X0.650000X0.350000X0*%
%ADD22RoundRect,0.250000X-0.250000X-0.475000X0.250000X-0.475000X0.250000X0.475000X-0.250000X0.475000X0*%
%ADD23RoundRect,0.375000X-0.625000X-0.375000X0.625000X-0.375000X0.625000X0.375000X-0.625000X0.375000X0*%
%ADD24RoundRect,0.500000X-0.500000X-1.400000X0.500000X-1.400000X0.500000X1.400000X-0.500000X1.400000X0*%
%ADD25RoundRect,0.075000X0.075000X-0.662500X0.075000X0.662500X-0.075000X0.662500X-0.075000X-0.662500X0*%
%ADD26RoundRect,0.075000X0.662500X-0.075000X0.662500X0.075000X-0.662500X0.075000X-0.662500X-0.075000X0*%
G04 APERTURE END LIST*
D10*
X13730590Y-32880000D02*
G75*
G02*
X9489410Y-32880000I-2120590J0D01*
G01*
X9489410Y-32880000D02*
G75*
G02*
X13730590Y-32880000I2120590J0D01*
G01*
D11*
%TO.C,SW1*%
X5607500Y-30330000D03*
X16357500Y-27845000D03*
%TD*%
%TO.C,SW51*%
X173520000Y-84995000D03*
X162770000Y-87480000D03*
%TD*%
%TO.C,SW4*%
X73507500Y-27845000D03*
X62757500Y-30330000D03*
%TD*%
%TO.C,SW21*%
X121132500Y-46895000D03*
X110382500Y-49380000D03*
%TD*%
%TO.C,SW57*%
X21120500Y-104045000D03*
X10370500Y-106530000D03*
%TD*%
%TO.C,SW58*%
X44932500Y-104045000D03*
X34182500Y-106530000D03*
%TD*%
%TO.C,SW49*%
X135420000Y-84995000D03*
X124670000Y-87480000D03*
%TD*%
%TO.C,SW20*%
X102082500Y-46895000D03*
X91332500Y-49380000D03*
%TD*%
%TO.C,SW35*%
X125895000Y-65945000D03*
X115145000Y-68430000D03*
%TD*%
%TO.C,SW17*%
X44932500Y-46895000D03*
X34182500Y-49380000D03*
%TD*%
%TO.C,SW12*%
X225907500Y-27845000D03*
X215157500Y-30330000D03*
%TD*%
%TO.C,SW16*%
X21120500Y-46895000D03*
X10370500Y-49380000D03*
%TD*%
%TO.C,SW33*%
X87795000Y-65945000D03*
X77045000Y-68430000D03*
%TD*%
%TO.C,SW13*%
X244957500Y-27845000D03*
X234207500Y-30330000D03*
%TD*%
%TO.C,SW37*%
X163995000Y-65945000D03*
X153245000Y-68430000D03*
%TD*%
%TO.C,SW8*%
X149707500Y-27845000D03*
X138957500Y-30330000D03*
%TD*%
%TO.C,SW10*%
X187807500Y-27845000D03*
X177057500Y-30330000D03*
%TD*%
%TO.C,SW55*%
X256864000Y-84995000D03*
X246114000Y-87480000D03*
%TD*%
%TO.C,SW27*%
X235432500Y-46895000D03*
X224682500Y-49380000D03*
%TD*%
%TO.C,SW25*%
X197332500Y-46895000D03*
X186582500Y-49380000D03*
%TD*%
%TO.C,SW36*%
X144945000Y-65945000D03*
X134195000Y-68430000D03*
%TD*%
%TO.C,SW46*%
X78270000Y-84995000D03*
X67520000Y-87480000D03*
%TD*%
%TO.C,SW6*%
X111607500Y-27845000D03*
X100857500Y-30330000D03*
%TD*%
%TO.C,SW30*%
X14001500Y-76015000D03*
X24751500Y-73530000D03*
%TD*%
%TO.C,SW40*%
X221145000Y-65945000D03*
X210395000Y-68430000D03*
%TD*%
%TO.C,SW7*%
X130657500Y-27845000D03*
X119907500Y-30330000D03*
%TD*%
%TO.C,SW41*%
X240195000Y-65945000D03*
X229445000Y-68430000D03*
%TD*%
%TO.C,SW38*%
X183045000Y-65945000D03*
X172295000Y-68430000D03*
%TD*%
%TO.C,SW52*%
X192570000Y-84995000D03*
X181820000Y-87480000D03*
%TD*%
%TO.C,SW15*%
X273557500Y-37915000D03*
X284307500Y-35430000D03*
%TD*%
%TO.C,SW29*%
X278295500Y-46895000D03*
X267545500Y-49380000D03*
%TD*%
%TO.C,SW43*%
X271225600Y-65945000D03*
X260475600Y-68430000D03*
%TD*%
%TO.C,SW32*%
X68745000Y-65945000D03*
X57995000Y-68430000D03*
%TD*%
%TO.C,SW11*%
X206857500Y-27845000D03*
X196107500Y-30330000D03*
%TD*%
%TO.C,SW1002*%
X273532500Y-27845000D03*
X262782500Y-30330000D03*
%TD*%
%TO.C,SW56*%
X283057500Y-84995000D03*
X272307500Y-87480000D03*
%TD*%
%TO.C,SW59*%
X68745500Y-104045000D03*
X57995500Y-106530000D03*
%TD*%
%TO.C,SW18*%
X63982500Y-46895000D03*
X53232500Y-49380000D03*
%TD*%
%TO.C,SW3*%
X54457500Y-27845000D03*
X43707500Y-30330000D03*
%TD*%
%TO.C,SW39*%
X202095000Y-65945000D03*
X191345000Y-68430000D03*
%TD*%
%TO.C,SW47*%
X97320000Y-84995000D03*
X86570000Y-87480000D03*
%TD*%
%TO.C,SW5*%
X92557500Y-27845000D03*
X81807500Y-30330000D03*
%TD*%
%TO.C,SW2*%
X35407500Y-27845000D03*
X24657500Y-30330000D03*
%TD*%
%TO.C,SW23*%
X159232500Y-46895000D03*
X148482500Y-49380000D03*
%TD*%
%TO.C,SW53*%
X211620000Y-84995000D03*
X200870000Y-87480000D03*
%TD*%
%TO.C,SW31*%
X49695000Y-65945000D03*
X38945000Y-68430000D03*
%TD*%
%TO.C,SW1001*%
X18738500Y-65945000D03*
X7988500Y-68430000D03*
%TD*%
%TO.C,SW50*%
X154470000Y-84995000D03*
X143720000Y-87480000D03*
%TD*%
%TO.C,SW62*%
X149707500Y-104045000D03*
X138957500Y-106530000D03*
%TD*%
%TO.C,SW70*%
X278295500Y-104045000D03*
X267545500Y-106530000D03*
%TD*%
%TO.C,SW69*%
X254482500Y-104045000D03*
X243732500Y-106530000D03*
%TD*%
%TO.C,SW22*%
X140182500Y-46895000D03*
X129432500Y-49380000D03*
%TD*%
%TO.C,SW68*%
X230670500Y-104045000D03*
X219920500Y-106530000D03*
%TD*%
%TO.C,SW28*%
X254482500Y-46895000D03*
X243732500Y-49380000D03*
%TD*%
%TO.C,SW1000*%
X28338100Y-84995000D03*
X17588100Y-87480000D03*
%TD*%
%TO.C,SW14*%
X254507500Y-37915000D03*
X265257500Y-35430000D03*
%TD*%
%TO.C,SW34*%
X106845000Y-65945000D03*
X96095000Y-68430000D03*
%TD*%
%TO.C,SW26*%
X216382500Y-46895000D03*
X205632500Y-49380000D03*
%TD*%
%TO.C,SW45*%
X59220000Y-84995000D03*
X48470000Y-87480000D03*
%TD*%
%TO.C,SW24*%
X178282500Y-46895000D03*
X167532500Y-49380000D03*
%TD*%
%TO.C,SW19*%
X83032500Y-46895000D03*
X72282500Y-49380000D03*
%TD*%
%TO.C,SW54*%
X230670000Y-84995000D03*
X219920000Y-87480000D03*
%TD*%
%TO.C,SW48*%
X116370000Y-84995000D03*
X105620000Y-87480000D03*
%TD*%
%TO.C,SW9*%
X168757500Y-27845000D03*
X158007500Y-30330000D03*
%TD*%
D12*
%TO.C,Drgb15*%
X185300000Y-101110000D03*
X185300000Y-97810000D03*
X190200000Y-97810000D03*
X190200000Y-101110000D03*
%TD*%
D13*
%TO.C,R1*%
X6520000Y-113267500D03*
X6520000Y-115092500D03*
%TD*%
D12*
%TO.C,Drgb12*%
X270840000Y-100990000D03*
X270840000Y-97690000D03*
X275740000Y-97690000D03*
X275740000Y-100990000D03*
%TD*%
D14*
%TO.C,D45*%
X51332500Y-93780000D03*
X51332500Y-90480000D03*
%TD*%
%TO.C,D39*%
X194207500Y-74730000D03*
X194207500Y-71430000D03*
%TD*%
D12*
%TO.C,Drgb19*%
X71010000Y-100770000D03*
X71010000Y-97470000D03*
X75910000Y-97470000D03*
X75910000Y-100770000D03*
%TD*%
D15*
%TO.C,C10*%
X6620000Y-107530000D03*
X6620000Y-109430000D03*
%TD*%
D12*
%TO.C,Drgb5*%
X167100000Y-38580000D03*
X167100000Y-41880000D03*
X162200000Y-41880000D03*
X162200000Y-38580000D03*
%TD*%
D16*
%TO.C,Drgb10*%
X285580000Y-58460000D03*
X282280000Y-58460000D03*
X282280000Y-53560000D03*
X285580000Y-53560000D03*
%TD*%
D17*
%TO.C,U3*%
X31507500Y-41430000D03*
X31507500Y-42380000D03*
X31507500Y-43330000D03*
X29232500Y-43330000D03*
X29232500Y-42380000D03*
X29232500Y-41430000D03*
%TD*%
D12*
%TO.C,Drgb7*%
X224640000Y-38210000D03*
X224640000Y-41510000D03*
X219740000Y-41510000D03*
X219740000Y-38210000D03*
%TD*%
D14*
%TO.C,D4*%
X65620000Y-36630000D03*
X65620000Y-33330000D03*
%TD*%
D12*
%TO.C,Drgb2*%
X80750000Y-38210000D03*
X80750000Y-41510000D03*
X75850000Y-41510000D03*
X75850000Y-38210000D03*
%TD*%
D14*
%TO.C,D11*%
X198970000Y-36630000D03*
X198970000Y-33330000D03*
%TD*%
D18*
%TO.C,C5*%
X6190000Y-49880000D03*
X6190000Y-47980000D03*
%TD*%
D14*
%TO.C,D50*%
X146582500Y-93780000D03*
X146582500Y-90480000D03*
%TD*%
%TO.C,D36*%
X137057500Y-74730000D03*
X137057500Y-71430000D03*
%TD*%
D12*
%TO.C,Drgb26*%
X101160000Y-59580000D03*
X101160000Y-62880000D03*
X96260000Y-62880000D03*
X96260000Y-59580000D03*
%TD*%
D19*
%TO.C,R2*%
X18980000Y-61060000D03*
X17155000Y-61060000D03*
%TD*%
D14*
%TO.C,D6*%
X103720000Y-36630000D03*
X103720000Y-33330000D03*
%TD*%
%TO.C,D43*%
X263338100Y-74730000D03*
X263338100Y-71430000D03*
%TD*%
%TO.C,D5*%
X84670000Y-36630000D03*
X84670000Y-33330000D03*
%TD*%
%TO.C,D28*%
X246595000Y-55680000D03*
X246595000Y-52380000D03*
%TD*%
D12*
%TO.C,Drgb8*%
X250410000Y-38340000D03*
X250410000Y-41640000D03*
X245510000Y-41640000D03*
X245510000Y-38340000D03*
%TD*%
D14*
%TO.C,D3*%
X46570000Y-36630000D03*
X46570000Y-33330000D03*
%TD*%
D12*
%TO.C,Drgb20*%
X23590000Y-38240000D03*
X23590000Y-41540000D03*
X18690000Y-41540000D03*
X18690000Y-38240000D03*
%TD*%
D14*
%TO.C,D56*%
X275170000Y-93780000D03*
X275170000Y-90480000D03*
%TD*%
%TO.C,D70*%
X270408000Y-112830000D03*
X270408000Y-109530000D03*
%TD*%
%TO.C,D48*%
X108482500Y-93780000D03*
X108482500Y-90480000D03*
%TD*%
D15*
%TO.C,C1*%
X36410000Y-72880000D03*
X36410000Y-74780000D03*
%TD*%
D14*
%TO.C,D16*%
X13233000Y-55680000D03*
X13233000Y-52380000D03*
%TD*%
%TO.C,D52*%
X184682500Y-93780000D03*
X184682500Y-90480000D03*
%TD*%
%TO.C,D31*%
X41807500Y-74730000D03*
X41807500Y-71430000D03*
%TD*%
%TO.C,D12*%
X218020000Y-36630000D03*
X218020000Y-33330000D03*
%TD*%
%TO.C,D13*%
X237070000Y-36630000D03*
X237070000Y-33330000D03*
%TD*%
%TO.C,D47*%
X89432500Y-93780000D03*
X89432500Y-90480000D03*
%TD*%
D15*
%TO.C,C6*%
X38370000Y-72880000D03*
X38370000Y-74780000D03*
%TD*%
D14*
%TO.C,D1*%
X8470000Y-36630000D03*
X8470000Y-33330000D03*
%TD*%
D12*
%TO.C,Drgb30*%
X174030000Y-81150000D03*
X174030000Y-77850000D03*
X178930000Y-77850000D03*
X178930000Y-81150000D03*
%TD*%
D15*
%TO.C,C9*%
X18650000Y-57350000D03*
X18650000Y-59250000D03*
%TD*%
D12*
%TO.C,Drgb32*%
X112550000Y-81410000D03*
X112550000Y-78110000D03*
X117450000Y-78110000D03*
X117450000Y-81410000D03*
%TD*%
D14*
%TO.C,D59*%
X60858000Y-112830000D03*
X60858000Y-109530000D03*
%TD*%
%TO.C,D26*%
X208495000Y-55680000D03*
X208495000Y-52380000D03*
%TD*%
D12*
%TO.C,Drgb18*%
X99660000Y-101250000D03*
X99660000Y-97950000D03*
X104560000Y-97950000D03*
X104560000Y-101250000D03*
%TD*%
D14*
%TO.C,D57*%
X13233000Y-112830000D03*
X13233000Y-109530000D03*
%TD*%
D12*
%TO.C,Drgb28*%
X162000000Y-59560000D03*
X162000000Y-62860000D03*
X157100000Y-62860000D03*
X157100000Y-59560000D03*
%TD*%
D14*
%TO.C,D54*%
X222782500Y-93780000D03*
X222782500Y-90480000D03*
%TD*%
%TO.C,D68*%
X222783000Y-112830000D03*
X222783000Y-109530000D03*
%TD*%
%TO.C,D25*%
X189445000Y-55680000D03*
X189445000Y-52380000D03*
%TD*%
%TO.C,D18*%
X56095000Y-55680000D03*
X56095000Y-52380000D03*
%TD*%
D16*
%TO.C,Drgb11*%
X286600000Y-81640000D03*
X283300000Y-81640000D03*
X283300000Y-76740000D03*
X286600000Y-76740000D03*
%TD*%
D15*
%TO.C,C3*%
X20820000Y-60080000D03*
X20820000Y-61980000D03*
%TD*%
D14*
%TO.C,D14*%
X251240000Y-35577500D03*
X251240000Y-32277500D03*
%TD*%
%TO.C,D53*%
X203732500Y-93780000D03*
X203732500Y-90480000D03*
%TD*%
%TO.C,D62*%
X141870000Y-112780000D03*
X141870000Y-109480000D03*
%TD*%
D12*
%TO.C,Drgb1*%
X52380000Y-38470000D03*
X52380000Y-41770000D03*
X47480000Y-41770000D03*
X47480000Y-38470000D03*
%TD*%
D14*
%TO.C,D24*%
X170395000Y-55680000D03*
X170395000Y-52380000D03*
%TD*%
D12*
%TO.C,Drgb6*%
X195200000Y-38240000D03*
X195200000Y-41540000D03*
X190300000Y-41540000D03*
X190300000Y-38240000D03*
%TD*%
%TO.C,Drgb9*%
X271030000Y-40260000D03*
X271030000Y-43560000D03*
X266130000Y-43560000D03*
X266130000Y-40260000D03*
%TD*%
D20*
%TO.C,J1*%
X34970000Y-40980000D03*
X34970000Y-41980000D03*
X34970000Y-42980000D03*
D21*
X38845000Y-39680000D03*
D20*
X34970000Y-43980000D03*
D21*
X38845000Y-45280000D03*
%TD*%
D14*
%TO.C,D27*%
X227545000Y-55680000D03*
X227545000Y-52380000D03*
%TD*%
D12*
%TO.C,Drgb17*%
X122730000Y-101080000D03*
X122730000Y-97780000D03*
X127630000Y-97780000D03*
X127630000Y-101080000D03*
%TD*%
D16*
%TO.C,Drgb24*%
X4290000Y-55190000D03*
X7590000Y-55190000D03*
X7590000Y-60090000D03*
X4290000Y-60090000D03*
%TD*%
D14*
%TO.C,D58*%
X37045000Y-112830000D03*
X37045000Y-109530000D03*
%TD*%
%TO.C,D10*%
X179920000Y-36630000D03*
X179920000Y-33330000D03*
%TD*%
D22*
%TO.C,C7*%
X27190000Y-76910000D03*
X29090000Y-76910000D03*
%TD*%
D14*
%TO.C,D46*%
X70382500Y-93780000D03*
X70382500Y-90480000D03*
%TD*%
D22*
%TO.C,C2*%
X27190000Y-78880000D03*
X29090000Y-78880000D03*
%TD*%
D14*
%TO.C,D21*%
X113245000Y-55680000D03*
X113245000Y-52380000D03*
%TD*%
D12*
%TO.C,Drgb21*%
X42490000Y-100520000D03*
X42490000Y-97220000D03*
X47390000Y-97220000D03*
X47390000Y-100520000D03*
%TD*%
D14*
%TO.C,D7*%
X122770000Y-36630000D03*
X122770000Y-33330000D03*
%TD*%
%TO.C,D8*%
X141820000Y-36630000D03*
X141820000Y-33330000D03*
%TD*%
D23*
%TO.C,U2*%
X8660000Y-43150000D03*
X8660000Y-40850000D03*
D24*
X14960000Y-40850000D03*
D23*
X8660000Y-38550000D03*
%TD*%
D12*
%TO.C,Drgb14*%
X214640000Y-101070000D03*
X214640000Y-97770000D03*
X219540000Y-97770000D03*
X219540000Y-101070000D03*
%TD*%
D25*
%TO.C,Ud1*%
X32500000Y-70252500D03*
X32000000Y-70252500D03*
X31500000Y-70252500D03*
X31000000Y-70252500D03*
X30500000Y-70252500D03*
X30000000Y-70252500D03*
X29500000Y-70252500D03*
X29000000Y-70252500D03*
X28500000Y-70252500D03*
X28000000Y-70252500D03*
X27500000Y-70252500D03*
X27000000Y-70252500D03*
D26*
X25587500Y-68840000D03*
X25587500Y-68340000D03*
X25587500Y-67840000D03*
X25587500Y-67340000D03*
X25587500Y-66840000D03*
X25587500Y-66340000D03*
X25587500Y-65840000D03*
X25587500Y-65340000D03*
X25587500Y-64840000D03*
X25587500Y-64340000D03*
X25587500Y-63840000D03*
X25587500Y-63340000D03*
D25*
X27000000Y-61927500D03*
X27500000Y-61927500D03*
X28000000Y-61927500D03*
X28500000Y-61927500D03*
X29000000Y-61927500D03*
X29500000Y-61927500D03*
X30000000Y-61927500D03*
X30500000Y-61927500D03*
X31000000Y-61927500D03*
X31500000Y-61927500D03*
X32000000Y-61927500D03*
X32500000Y-61927500D03*
D26*
X33912500Y-63340000D03*
X33912500Y-63840000D03*
X33912500Y-64340000D03*
X33912500Y-64840000D03*
X33912500Y-65340000D03*
X33912500Y-65840000D03*
X33912500Y-66340000D03*
X33912500Y-66840000D03*
X33912500Y-67340000D03*
X33912500Y-67840000D03*
X33912500Y-68340000D03*
X33912500Y-68840000D03*
%TD*%
D12*
%TO.C,Drgb29*%
X195000000Y-59570000D03*
X195000000Y-62870000D03*
X190100000Y-62870000D03*
X190100000Y-59570000D03*
%TD*%
D14*
%TO.C,D32*%
X60857500Y-74730000D03*
X60857500Y-71430000D03*
%TD*%
D15*
%TO.C,C8*%
X22800000Y-60080000D03*
X22800000Y-61980000D03*
%TD*%
D14*
%TO.C,D33*%
X79907500Y-74730000D03*
X79907500Y-71430000D03*
%TD*%
%TO.C,D20*%
X94195000Y-55680000D03*
X94195000Y-52380000D03*
%TD*%
D12*
%TO.C,Drgb22*%
X15340000Y-100340000D03*
X15340000Y-97040000D03*
X20240000Y-97040000D03*
X20240000Y-100340000D03*
%TD*%
%TO.C,Drgb31*%
X142510000Y-81310000D03*
X142510000Y-78010000D03*
X147410000Y-78010000D03*
X147410000Y-81310000D03*
%TD*%
D14*
%TO.C,D55*%
X248976500Y-93780000D03*
X248976500Y-90480000D03*
%TD*%
%TO.C,D30*%
X6540000Y-74590000D03*
X6540000Y-71290000D03*
%TD*%
D12*
%TO.C,Drgb3*%
X111170000Y-38310000D03*
X111170000Y-41610000D03*
X106270000Y-41610000D03*
X106270000Y-38310000D03*
%TD*%
D14*
%TO.C,D37*%
X156107500Y-74730000D03*
X156107500Y-71430000D03*
%TD*%
D12*
%TO.C,Drgb13*%
X243300000Y-101200000D03*
X243300000Y-97900000D03*
X248200000Y-97900000D03*
X248200000Y-101200000D03*
%TD*%
D14*
%TO.C,D2*%
X27520000Y-36630000D03*
X27520000Y-33330000D03*
%TD*%
%TO.C,D35*%
X118007500Y-74730000D03*
X118007500Y-71430000D03*
%TD*%
%TO.C,D17*%
X37045000Y-55680000D03*
X37045000Y-52380000D03*
%TD*%
D16*
%TO.C,Drgb23*%
X4290000Y-78090000D03*
X7590000Y-78090000D03*
X7590000Y-82990000D03*
X4290000Y-82990000D03*
%TD*%
D14*
%TO.C,D49*%
X127532500Y-93780000D03*
X127532500Y-90480000D03*
%TD*%
%TO.C,D9*%
X160870000Y-36630000D03*
X160870000Y-33330000D03*
%TD*%
D12*
%TO.C,Drgb27*%
X134200000Y-59610000D03*
X134200000Y-62910000D03*
X129300000Y-62910000D03*
X129300000Y-59610000D03*
%TD*%
D14*
%TO.C,D34*%
X98957500Y-74730000D03*
X98957500Y-71430000D03*
%TD*%
%TO.C,D42*%
X10851000Y-93780000D03*
X10851000Y-90480000D03*
%TD*%
D12*
%TO.C,Drgb16*%
X159770000Y-101130000D03*
X159770000Y-97830000D03*
X164670000Y-97830000D03*
X164670000Y-101130000D03*
%TD*%
D14*
%TO.C,D40*%
X213257500Y-74730000D03*
X213257500Y-71430000D03*
%TD*%
D15*
%TO.C,C4*%
X16660000Y-57350000D03*
X16660000Y-59250000D03*
%TD*%
D14*
%TO.C,D69*%
X246595000Y-112830000D03*
X246595000Y-109530000D03*
%TD*%
%TO.C,D23*%
X151345000Y-55680000D03*
X151345000Y-52380000D03*
%TD*%
%TO.C,D22*%
X132295000Y-55680000D03*
X132295000Y-52380000D03*
%TD*%
%TO.C,D15*%
X248860000Y-35580000D03*
X248860000Y-32280000D03*
%TD*%
%TO.C,D19*%
X75145000Y-55680000D03*
X75145000Y-52380000D03*
%TD*%
%TO.C,D29*%
X270408000Y-55680000D03*
X270408000Y-52380000D03*
%TD*%
%TO.C,D38*%
X175157500Y-74730000D03*
X175157500Y-71430000D03*
%TD*%
%TO.C,D41*%
X232307500Y-74730000D03*
X232307500Y-71430000D03*
%TD*%
%TO.C,D51*%
X165632500Y-93780000D03*
X165632500Y-90480000D03*
%TD*%
D12*
%TO.C,Drgb4*%
X140560000Y-38250000D03*
X140560000Y-41550000D03*
X135660000Y-41550000D03*
X135660000Y-38250000D03*
%TD*%
%TO.C,Drgb25*%
X72640000Y-59560000D03*
X72640000Y-62860000D03*
X67740000Y-62860000D03*
X67740000Y-59560000D03*
%TD*%
M02*
