M48
; DRILL file {KiCad 8.99.0-2194-gb3b7cbcab2} date 2024-09-18T03:31:51+0700
; FORMAT={-:-/ absolute / inch / decimal}
; #@! TF.CreationDate,2024-09-18T03:31:51+07:00
; #@! TF.GenerationSoftware,Kicad,Pcbnew,8.99.0-2194-gb3b7cbcab2
; #@! TF.FileFunction,Plated,1,2,PTH
FMAT,2
INCH
; #@! TA.AperFunction,Plated,PTH,ViaDrill
T1C0.0118
; #@! TA.AperFunction,Plated,PTH,ComponentDrill
T2C0.0118
; #@! TA.AperFunction,Plated,PTH,ComponentDrill
T3C0.0295
; #@! TA.AperFunction,Plated,PTH,ViaDrill
T4C0.0315
; #@! TA.AperFunction,Plated,PTH,ComponentDrill
T5C0.0394
; #@! TA.AperFunction,Plated,PTH,ComponentDrill
T6C0.0669
%
G90
G05
T1
X0.1547Y-1.413
X0.185Y-3.689
X0.1917Y-1.3886
X0.2098Y-2.1717
X0.2098Y-3.0768
X0.2181Y-2.3669
X0.2213Y-3.1539
X0.2256Y-2.0256
X0.2264Y-2.426
X0.2323Y-3.5827
X0.2492Y-2.3626
X0.252Y-3.7291
X0.2677Y-3.5118
X0.2717Y-1.7252
X0.2835Y-3.3307
X0.2969Y-3.0335
X0.3185Y-1.8256
X0.3268Y-3.6654
X0.3346Y-3.8465
X0.3425Y-2.0197
X0.3425Y-2.5512
X0.3504Y-3.8071
X0.3661Y-3.7008
X0.3661Y-4.0236
X0.4142Y-1.852
X0.4488Y-3.6142
X0.4567Y-1.6496
X0.4909Y-1.4957
X0.4921Y-2.5472
X0.563Y-3.7795
X0.7047Y-3.6339
X0.7113Y-2.4043
X0.7126Y-3.8661
X0.813Y-1.411
X0.8858Y-3.7441
X0.8862Y-2.1732
X0.8976Y-2.4886
X0.8976Y-3.6654
X0.9094Y-3.8071
X0.9102Y-1.4646
X0.9449Y-3.7402
X0.9488Y-3.815
X0.963Y-1.3827
X0.9768Y-1.6953
X0.9811Y-2.5736
X0.9815Y-2.1929
X1.0044Y-2.1732
X1.0138Y-2.5346
X1.0276Y-2.4686
X1.0512Y-3.7165
X1.0854Y-1.561
X1.1224Y-1.4744
X1.1462Y-2.3649
X1.1531Y-2.8547
X1.1539Y-3.1961
X1.1565Y-2.6034
X1.1659Y-2.5818
X1.1767Y-2.8534
X1.178Y-2.9323
X1.1882Y-1.5055
X1.1892Y-2.5779
X1.1929Y-1.6693
X1.1961Y-2.7394
X1.2043Y-2.8528
X1.2067Y-3.1638
X1.2091Y-3.1902
X1.2115Y-2.57
X1.2252Y-2.1886
X1.2268Y-3.6921
X1.2299Y-2.2177
X1.2393Y-2.57
X1.2469Y-2.5476
X1.2476Y-2.8858
X1.2496Y-1.4421
X1.2615Y-2.528
X1.2717Y-3.815
X1.2756Y-3.7402
X1.2764Y-2.5083
X1.2823Y-2.5783
X1.286Y-1.6723
X1.2892Y-2.2414
X1.2892Y-2.265
X1.2892Y-2.2886
X1.2892Y-2.3122
X1.2892Y-2.3359
X1.2892Y-2.3595
X1.2906Y-2.3831
X1.2972Y-2.2146
X1.298Y-2.1862
X1.2991Y-2.9781
X1.3098Y-2.8874
X1.3295Y-2.4043
X1.3437Y-3.1799
X1.3492Y-2.5158
X1.3492Y-2.6531
X1.372Y-2.2335
X1.4252Y-3.7579
X1.4384Y-2.6879
X1.4567Y-3.6535
X1.4606Y-3.7677
X1.4685Y-3.622
X1.5472Y-3.622
X1.5551Y-3.7992
X1.5906Y-3.7244
X1.5945Y-3.626
X1.6287Y-1.3752
X1.6724Y-1.5268
X1.7718Y-2.4968
X1.8031Y-3.8071
X1.8902Y-2.9618
X2.0984Y-4.4409
X2.4882Y-1.5787
X2.5052Y-2.4807
X2.5394Y-1.374
X2.574Y-2.2169
X2.6138Y-2.3382
X2.7449Y-2.4508
X2.8091Y-2.3287
X2.8118Y-1.5146
X2.9059Y-2.4437
X2.9531Y-2.5012
X2.9953Y-4.0264
X3.0012Y-3.9055
X3.2422Y-2.4672
X3.739Y-2.326
X3.7894Y-2.5197
X3.8571Y-2.4476
X4.0249Y-2.4999
X4.0291Y-2.3213
X4.0349Y-2.438
X4.0637Y-2.4649
X4.0657Y-1.5043
X4.1638Y-3.9843
X4.1677Y-3.8945
X4.252Y-3.9421
X4.3571Y-3.2043
X4.5839Y-3.2024
X4.6697Y-3.1209
X4.708Y-2.4335
X5.0094Y-1.4642
X5.0319Y-2.3224
X5.0417Y-2.5012
X5.1614Y-2.4386
X5.2335Y-3.1594
X5.2374Y-2.3075
X5.3303Y-2.4386
X5.3303Y-2.502
X5.3972Y-2.4209
X6.1256Y-2.4319
X6.1343Y-2.3138
X6.1479Y-2.402
X6.3071Y-4.0866
X6.3413Y-2.2976
X6.3425Y-1.4835
X6.3425Y-3.378
X6.4724Y-1.5669
X6.5157Y-1.9764
X6.5433Y-3.0433
X6.5787Y-2.2402
X6.626Y-2.7441
X6.8228Y-1.2913
X6.932Y-2.407
X6.9803Y-3.1937
X7.0807Y-3.1295
X7.3969Y-3.0551
X7.4224Y-3.0335
X7.4315Y-2.3106
X7.4728Y-2.3862
X7.5419Y-2.4273
X7.6346Y-2.2984
X7.682Y-2.3732
X7.7295Y-2.3016
X7.7618Y-1.4701
X8.432Y-2.3579
X8.5717Y-1.6283
X8.5843Y-1.5039
X8.6866Y-3.8823
X8.6965Y-3.9791
X9.182Y-2.35
X9.5118Y-3.7165
X9.5748Y-3.6614
X9.674Y-1.5087
X9.7081Y-1.5927
X9.7717Y-3.7402
X9.8031Y-3.7874
X9.932Y-2.3335
X10.0257Y-3.8268
X10.1067Y-2.3098
X10.1622Y-2.3193
X10.2169Y-2.6614
X10.328Y-1.4087
X10.4618Y-2.1547
X10.498Y-2.3803
X10.5472Y-3.6142
X10.5472Y-3.7165
X10.9567Y-3.8465
X11.0685Y-1.4031
X11.1949Y-2.1126
X11.2126Y-3.3543
X11.2126Y-2.5937
X11.2138Y-1.7236
X11.2205Y-3.7835
X11.2354Y-3.3043
X11.248Y-2.2528
X11.248Y-3.7205
X11.2535Y-1.5193
X11.2756Y-3.3701
X11.2795Y-2.3567
X11.2823Y-3.1736
T2
X0.2578Y-1.1941
X0.3066Y-1.2437
X0.307Y-1.1453
X0.3515Y-2.6941
X0.3515Y-3.4441
X0.3562Y-1.1945
X0.4003Y-2.7437
X0.4003Y-3.4937
X0.4007Y-2.6453
X0.4007Y-3.3953
X0.4453Y-1.9441
X0.4453Y-4.1941
X0.4499Y-2.6945
X0.4499Y-3.4445
X0.4941Y-1.9937
X0.4941Y-4.2437
X0.4945Y-1.8953
X0.4945Y-4.1453
X0.5078Y-1.0945
X0.539Y-2.6941
X0.5437Y-1.9445
X0.5437Y-4.1945
X0.557Y-1.0449
X0.557Y-1.1433
X0.5879Y-2.7437
X0.5882Y-2.6453
X0.6015Y-2.5945
X0.6015Y-3.3445
X0.6058Y-1.0941
X0.6375Y-2.6945
X0.6507Y-2.5449
X0.6507Y-2.6433
X0.6507Y-3.2949
X0.6507Y-3.3933
X0.6953Y-1.8445
X0.6953Y-4.0945
X0.6995Y-2.5941
X0.6995Y-3.3441
X0.7295Y-3.4441
X0.7445Y-1.7949
X0.7445Y-1.8933
X0.7445Y-4.0449
X0.7445Y-4.1433
X0.7783Y-3.4937
X0.7787Y-3.3953
X0.789Y-2.5945
X0.7933Y-1.8441
X0.7933Y-4.0941
X0.8279Y-3.4445
X0.8382Y-2.5449
X0.8382Y-2.6433
X0.8871Y-2.5941
X0.9795Y-3.3445
X1.0078Y-1.1941
X1.0287Y-3.2949
X1.0287Y-3.3933
X1.0566Y-1.2437
X1.057Y-1.1453
X1.0775Y-3.3441
X1.1062Y-1.1945
X1.1953Y-3.4441
X1.2441Y-3.4937
X1.2445Y-3.3953
X1.2578Y-1.0945
X1.2937Y-3.4445
X1.307Y-1.0449
X1.307Y-1.1433
X1.3558Y-1.0941
X1.3828Y-1.9441
X1.3828Y-4.1941
X1.4316Y-1.9937
X1.4316Y-4.2437
X1.432Y-1.8953
X1.432Y-4.1453
X1.4453Y-3.3445
X1.4812Y-1.9445
X1.4812Y-4.1945
X1.4945Y-3.2949
X1.4945Y-3.3933
X1.5433Y-3.3441
X1.5703Y-2.6941
X1.6191Y-2.7437
X1.6195Y-2.6453
X1.6328Y-1.8445
X1.6328Y-4.0945
X1.6687Y-2.6945
X1.682Y-1.7949
X1.682Y-1.8933
X1.682Y-4.0449
X1.682Y-4.1433
X1.7308Y-1.8441
X1.7308Y-4.0941
X1.7578Y-1.1941
X1.8066Y-1.2437
X1.807Y-1.1453
X1.8203Y-2.5945
X1.8562Y-1.1945
X1.8695Y-2.5449
X1.8695Y-2.6433
X1.9183Y-2.5941
X1.9453Y-3.4441
X1.9941Y-3.4937
X1.9945Y-3.3953
X2.0078Y-1.0945
X2.0437Y-3.4445
X2.057Y-1.0449
X2.057Y-1.1433
X2.1058Y-1.0941
X2.1328Y-1.9441
X2.1816Y-1.9937
X2.182Y-1.8953
X2.1953Y-3.3445
X2.2312Y-1.9445
X2.2445Y-3.2949
X2.2445Y-3.3933
X2.2933Y-3.3441
X2.3203Y-2.6941
X2.3203Y-4.1941
X2.3691Y-2.7437
X2.3691Y-4.2437
X2.3695Y-2.6453
X2.3695Y-4.1453
X2.3828Y-1.8445
X2.4187Y-2.6945
X2.4187Y-4.1945
X2.432Y-1.7949
X2.432Y-1.8933
X2.4808Y-1.8441
X2.5078Y-1.1941
X2.5566Y-1.2437
X2.557Y-1.1453
X2.5703Y-2.5945
X2.5703Y-4.0945
X2.6062Y-1.1945
X2.6195Y-2.5449
X2.6195Y-2.6433
X2.6195Y-4.0449
X2.6195Y-4.1433
X2.6683Y-2.5941
X2.6683Y-4.0941
X2.6953Y-3.4441
X2.7441Y-3.4937
X2.7445Y-3.3953
X2.7578Y-1.0945
X2.7937Y-3.4445
X2.807Y-1.0449
X2.807Y-1.1433
X2.8558Y-1.0941
X2.8828Y-1.9441
X2.9316Y-1.9937
X2.932Y-1.8953
X2.9453Y-3.3445
X2.9812Y-1.9445
X2.9945Y-3.2949
X2.9945Y-3.3933
X3.0433Y-3.3441
X3.0703Y-2.6941
X3.1191Y-2.7437
X3.1195Y-2.6453
X3.1328Y-1.8445
X3.1687Y-2.6945
X3.182Y-1.7949
X3.182Y-1.8933
X3.2308Y-1.8441
X3.2578Y-1.1941
X3.3066Y-1.2437
X3.307Y-1.1453
X3.3203Y-2.5945
X3.3562Y-1.1945
X3.3695Y-2.5449
X3.3695Y-2.6433
X3.4183Y-2.5941
X3.4453Y-3.4441
X3.4941Y-3.4937
X3.4945Y-3.3953
X3.5078Y-1.0945
X3.5437Y-3.4445
X3.557Y-1.0449
X3.557Y-1.1433
X3.6058Y-1.0941
X3.6328Y-1.9441
X3.6816Y-1.9937
X3.682Y-1.8953
X3.6953Y-3.3445
X3.7312Y-1.9445
X3.7445Y-3.2949
X3.7445Y-3.3933
X3.7933Y-3.3441
X3.8203Y-2.6941
X3.8691Y-2.7437
X3.8695Y-2.6453
X3.8828Y-1.8445
X3.9187Y-2.6945
X3.932Y-1.7949
X3.932Y-1.8933
X3.9808Y-1.8441
X4.0078Y-1.1941
X4.0566Y-1.2437
X4.057Y-1.1453
X4.0703Y-2.5945
X4.1062Y-1.1945
X4.1195Y-2.5449
X4.1195Y-2.6433
X4.1683Y-2.5941
X4.1953Y-3.4441
X4.2441Y-3.4937
X4.2445Y-3.3953
X4.2578Y-1.0945
X4.2937Y-3.4445
X4.307Y-1.0449
X4.307Y-1.1433
X4.3558Y-1.0941
X4.3828Y-1.9441
X4.4316Y-1.9937
X4.432Y-1.8953
X4.4453Y-3.3445
X4.4812Y-1.9445
X4.4945Y-3.2949
X4.4945Y-3.3933
X4.5433Y-3.3441
X4.5703Y-2.6941
X4.6191Y-2.7437
X4.6195Y-2.6453
X4.6328Y-1.8445
X4.6687Y-2.6945
X4.682Y-1.7949
X4.682Y-1.8933
X4.7308Y-1.8441
X4.7578Y-1.1941
X4.8066Y-1.2437
X4.807Y-1.1453
X4.8203Y-2.5945
X4.8562Y-1.1945
X4.8695Y-2.5449
X4.8695Y-2.6433
X4.9183Y-2.5941
X4.9453Y-3.4441
X4.9941Y-3.4937
X4.9945Y-3.3953
X5.0078Y-1.0945
X5.0437Y-3.4445
X5.057Y-1.0449
X5.057Y-1.1433
X5.1058Y-1.0941
X5.1328Y-1.9441
X5.1816Y-1.9937
X5.182Y-1.8953
X5.1953Y-3.3445
X5.2312Y-1.9445
X5.2445Y-3.2949
X5.2445Y-3.3933
X5.2933Y-3.3441
X5.3203Y-2.6941
X5.3691Y-2.7437
X5.3695Y-2.6453
X5.3828Y-1.8445
X5.4187Y-2.6945
X5.432Y-1.7949
X5.432Y-1.8933
X5.4808Y-1.8441
X5.5078Y-1.1941
X5.5078Y-4.1941
X5.5566Y-1.2437
X5.5566Y-4.2437
X5.557Y-1.1453
X5.557Y-4.1453
X5.5703Y-2.5945
X5.6062Y-1.1945
X5.6062Y-4.1945
X5.6195Y-2.5449
X5.6195Y-2.6433
X5.6683Y-2.5941
X5.6953Y-3.4441
X5.7441Y-3.4937
X5.7445Y-3.3953
X5.7578Y-1.0945
X5.7578Y-4.0945
X5.7937Y-3.4445
X5.807Y-1.0449
X5.807Y-1.1433
X5.807Y-4.0449
X5.807Y-4.1433
X5.8558Y-1.0941
X5.8558Y-4.0941
X5.8828Y-1.9441
X5.9316Y-1.9937
X5.932Y-1.8953
X5.9453Y-3.3445
X5.9812Y-1.9445
X5.9945Y-3.2949
X5.9945Y-3.3933
X6.0433Y-3.3441
X6.0703Y-2.6941
X6.1191Y-2.7437
X6.1195Y-2.6453
X6.1328Y-1.8445
X6.1687Y-2.6945
X6.182Y-1.7949
X6.182Y-1.8933
X6.2308Y-1.8441
X6.2578Y-1.1941
X6.3066Y-1.2437
X6.307Y-1.1453
X6.3203Y-2.5945
X6.3562Y-1.1945
X6.3695Y-2.5449
X6.3695Y-2.6433
X6.4183Y-2.5941
X6.4453Y-3.4441
X6.4941Y-3.4937
X6.4945Y-3.3953
X6.5078Y-1.0945
X6.5437Y-3.4445
X6.557Y-1.0449
X6.557Y-1.1433
X6.6058Y-1.0941
X6.6328Y-1.9441
X6.6816Y-1.9937
X6.682Y-1.8953
X6.6953Y-3.3445
X6.7312Y-1.9445
X6.7445Y-3.2949
X6.7445Y-3.3933
X6.7933Y-3.3441
X6.8203Y-2.6941
X6.8691Y-2.7437
X6.8695Y-2.6453
X6.8828Y-1.8445
X6.9187Y-2.6945
X6.932Y-1.7949
X6.932Y-1.8933
X6.9808Y-1.8441
X7.0078Y-1.1941
X7.0566Y-1.2437
X7.057Y-1.1453
X7.0703Y-2.5945
X7.1062Y-1.1945
X7.1195Y-2.5449
X7.1195Y-2.6433
X7.1683Y-2.5941
X7.1953Y-3.4441
X7.2441Y-3.4937
X7.2445Y-3.3953
X7.2578Y-1.0945
X7.2937Y-3.4445
X7.307Y-1.0449
X7.307Y-1.1433
X7.3558Y-1.0941
X7.3828Y-1.9441
X7.4316Y-1.9937
X7.432Y-1.8953
X7.4453Y-3.3445
X7.4812Y-1.9445
X7.4945Y-3.2949
X7.4945Y-3.3933
X7.5433Y-3.3441
X7.5703Y-2.6941
X7.6191Y-2.7437
X7.6195Y-2.6453
X7.6328Y-1.8445
X7.6687Y-2.6945
X7.682Y-1.7949
X7.682Y-1.8933
X7.7308Y-1.8441
X7.7578Y-1.1941
X7.8066Y-1.2437
X7.807Y-1.1453
X7.8203Y-2.5945
X7.8562Y-1.1945
X7.8695Y-2.5449
X7.8695Y-2.6433
X7.9183Y-2.5941
X7.9453Y-3.4441
X7.9941Y-3.4937
X7.9945Y-3.3953
X8.0078Y-1.0945
X8.0437Y-3.4445
X8.057Y-1.0449
X8.057Y-1.1433
X8.1058Y-1.0941
X8.1328Y-1.9441
X8.1816Y-1.9937
X8.182Y-1.8953
X8.1953Y-3.3445
X8.2312Y-1.9445
X8.2445Y-3.2949
X8.2445Y-3.3933
X8.2933Y-3.3441
X8.3203Y-2.6941
X8.3691Y-2.7437
X8.3695Y-2.6453
X8.3828Y-1.8445
X8.4187Y-2.6945
X8.432Y-1.7949
X8.432Y-1.8933
X8.4808Y-1.8441
X8.5078Y-1.1941
X8.5566Y-1.2437
X8.557Y-1.1453
X8.5703Y-2.5945
X8.6062Y-1.1945
X8.6195Y-2.5449
X8.6195Y-2.6433
X8.6683Y-2.5941
X8.6953Y-3.4441
X8.6953Y-4.1941
X8.7441Y-3.4937
X8.7441Y-4.2437
X8.7445Y-3.3953
X8.7445Y-4.1453
X8.7578Y-1.0945
X8.7937Y-3.4445
X8.7937Y-4.1945
X8.807Y-1.0449
X8.807Y-1.1433
X8.8558Y-1.0941
X8.8828Y-1.9441
X8.9316Y-1.9937
X8.932Y-1.8953
X8.9453Y-3.3445
X8.9453Y-4.0945
X8.9812Y-1.9445
X8.9945Y-3.2949
X8.9945Y-3.3933
X8.9945Y-4.0449
X8.9945Y-4.1433
X9.0433Y-3.3441
X9.0433Y-4.0941
X9.0703Y-2.6941
X9.1191Y-2.7437
X9.1195Y-2.6453
X9.1328Y-1.8445
X9.1687Y-2.6945
X9.182Y-1.7949
X9.182Y-1.8933
X9.2308Y-1.8441
X9.2578Y-1.1941
X9.3066Y-1.2437
X9.307Y-1.1453
X9.3203Y-2.5945
X9.3562Y-1.1945
X9.3695Y-2.5449
X9.3695Y-2.6433
X9.4183Y-2.5941
X9.5078Y-1.0945
X9.557Y-1.0449
X9.557Y-1.1433
X9.6058Y-1.0941
X9.6328Y-1.9441
X9.6328Y-4.1941
X9.6816Y-1.9937
X9.6816Y-4.2437
X9.682Y-1.8953
X9.682Y-4.1453
X9.7265Y-3.4441
X9.7312Y-1.9445
X9.7312Y-4.1945
X9.7754Y-3.4937
X9.7757Y-3.3953
X9.8203Y-2.6941
X9.825Y-3.4445
X9.8691Y-2.7437
X9.8695Y-2.6453
X9.8828Y-1.8445
X9.8828Y-4.0945
X9.9187Y-2.6945
X9.932Y-1.7949
X9.932Y-1.8933
X9.932Y-4.0449
X9.932Y-4.1433
X9.9765Y-3.3445
X9.9808Y-1.8441
X9.9808Y-4.0941
X10.0078Y-1.1941
X10.0257Y-3.2949
X10.0257Y-3.3933
X10.0566Y-1.2437
X10.057Y-1.1453
X10.0703Y-2.5945
X10.0746Y-3.3441
X10.1062Y-1.1945
X10.1195Y-2.5449
X10.1195Y-2.6433
X10.1683Y-2.5941
X10.2578Y-1.0945
X10.292Y-2.6941
X10.307Y-1.0449
X10.307Y-1.1433
X10.3408Y-2.7437
X10.3412Y-2.6453
X10.3558Y-1.0941
X10.3828Y-1.1941
X10.3904Y-2.6945
X10.4316Y-1.2437
X10.432Y-1.1453
X10.4812Y-1.1945
X10.542Y-2.5945
X10.5703Y-1.9441
X10.5703Y-4.1941
X10.5912Y-2.5449
X10.5912Y-2.6433
X10.6191Y-1.9937
X10.6191Y-4.2437
X10.6195Y-1.8953
X10.6195Y-4.1453
X10.6328Y-1.0945
X10.64Y-2.5941
X10.664Y-2.3191
X10.6687Y-1.9445
X10.6687Y-4.1945
X10.682Y-1.0449
X10.682Y-1.1433
X10.7128Y-2.3687
X10.7132Y-2.2703
X10.7308Y-1.0941
X10.7578Y-1.1941
X10.7578Y-3.4441
X10.7624Y-2.3195
X10.8066Y-1.2437
X10.8066Y-3.4937
X10.807Y-1.1453
X10.807Y-3.3953
X10.8203Y-1.8445
X10.8203Y-4.0945
X10.8562Y-1.1945
X10.8562Y-3.4445
X10.8695Y-1.7949
X10.8695Y-1.8933
X10.8695Y-4.0449
X10.8695Y-4.1433
X10.914Y-2.2195
X10.9183Y-1.8441
X10.9183Y-4.0941
X10.9632Y-2.1699
X10.9632Y-2.2683
X11.0078Y-1.0945
X11.0078Y-3.3445
X11.012Y-2.2191
X11.057Y-1.0449
X11.057Y-1.1433
X11.057Y-3.2949
X11.057Y-3.3933
X11.1058Y-1.0941
X11.1058Y-3.3441
T3
X0.1563Y-1.6469
X0.1563Y-1.7256
X0.1563Y-1.8043
X0.1563Y-1.8831
X0.1563Y-1.9618
T4
X0.315Y-3.9252
X0.5866Y-3.9252
X0.6299Y-3.9252
X0.7992Y-3.9252
X0.8386Y-3.9252
X1.5394Y-3.9252
X1.5787Y-3.9252
X1.7913Y-3.9252
X1.8307Y-3.9252
X9.6575Y-3.9291
X9.6969Y-3.9291
X9.8465Y-3.9291
X10.0039Y-3.9291
X10.0433Y-3.9291
X10.6063Y-3.9252
X10.6496Y-3.9252
X10.7913Y-3.9291
X10.937Y-3.9252
X10.9764Y-3.9252
T5
X0.1732Y-3.7598
X0.1732Y-3.8583
X0.1758Y-3.5354
X0.1758Y-3.6339
T6
X0.307Y-1.1945
X0.4007Y-2.6945
X0.4007Y-3.4445
X0.4945Y-1.9445
X0.4945Y-4.1945
X0.557Y-1.0945
X0.5882Y-2.6945
X0.6507Y-2.5945
X0.6507Y-3.3445
X0.7445Y-1.8445
X0.7445Y-4.0945
X0.7787Y-3.4445
X0.8382Y-2.5945
X1.0287Y-3.3445
X1.057Y-1.1945
X1.2445Y-3.4445
X1.307Y-1.0945
X1.432Y-1.9445
X1.432Y-4.1945
X1.4945Y-3.3445
X1.6195Y-2.6945
X1.682Y-1.8445
X1.682Y-4.0945
X1.807Y-1.1945
X1.8695Y-2.5945
X1.9945Y-3.4445
X2.057Y-1.0945
X2.182Y-1.9445
X2.2445Y-3.3445
X2.3695Y-2.6945
X2.3695Y-4.1945
X2.432Y-1.8445
X2.557Y-1.1945
X2.6195Y-2.5945
X2.6195Y-4.0945
X2.7445Y-3.4445
X2.807Y-1.0945
X2.932Y-1.9445
X2.9945Y-3.3445
X3.1195Y-2.6945
X3.182Y-1.8445
X3.307Y-1.1945
X3.3695Y-2.5945
X3.4945Y-3.4445
X3.557Y-1.0945
X3.682Y-1.9445
X3.7445Y-3.3445
X3.8695Y-2.6945
X3.932Y-1.8445
X4.057Y-1.1945
X4.1195Y-2.5945
X4.2445Y-3.4445
X4.307Y-1.0945
X4.432Y-1.9445
X4.4945Y-3.3445
X4.6195Y-2.6945
X4.682Y-1.8445
X4.807Y-1.1945
X4.8695Y-2.5945
X4.9945Y-3.4445
X5.057Y-1.0945
X5.182Y-1.9445
X5.2445Y-3.3445
X5.3695Y-2.6945
X5.432Y-1.8445
X5.557Y-1.1945
X5.557Y-4.1945
X5.6195Y-2.5945
X5.7445Y-3.4445
X5.807Y-1.0945
X5.807Y-4.0945
X5.932Y-1.9445
X5.9945Y-3.3445
X6.1195Y-2.6945
X6.182Y-1.8445
X6.307Y-1.1945
X6.3695Y-2.5945
X6.4945Y-3.4445
X6.557Y-1.0945
X6.682Y-1.9445
X6.7445Y-3.3445
X6.8695Y-2.6945
X6.932Y-1.8445
X7.057Y-1.1945
X7.1195Y-2.5945
X7.2445Y-3.4445
X7.307Y-1.0945
X7.432Y-1.9445
X7.4945Y-3.3445
X7.6195Y-2.6945
X7.682Y-1.8445
X7.807Y-1.1945
X7.8695Y-2.5945
X7.9945Y-3.4445
X8.057Y-1.0945
X8.182Y-1.9445
X8.2445Y-3.3445
X8.3695Y-2.6945
X8.432Y-1.8445
X8.557Y-1.1945
X8.6195Y-2.5945
X8.7445Y-3.4445
X8.7445Y-4.1945
X8.807Y-1.0945
X8.932Y-1.9445
X8.9945Y-3.3445
X8.9945Y-4.0945
X9.1195Y-2.6945
X9.182Y-1.8445
X9.307Y-1.1945
X9.3695Y-2.5945
X9.557Y-1.0945
X9.682Y-1.9445
X9.682Y-4.1945
X9.7757Y-3.4445
X9.8695Y-2.6945
X9.932Y-1.8445
X9.932Y-4.0945
X10.0257Y-3.3445
X10.057Y-1.1945
X10.1195Y-2.5945
X10.307Y-1.0945
X10.3412Y-2.6945
X10.432Y-1.1945
X10.5912Y-2.5945
X10.6195Y-1.9445
X10.6195Y-4.1945
X10.682Y-1.0945
X10.7132Y-2.3195
X10.807Y-1.1945
X10.807Y-3.4445
X10.8695Y-1.8445
X10.8695Y-4.0945
X10.9632Y-2.2195
X11.057Y-1.0945
X11.057Y-3.3445
M30
