%TF.GenerationSoftware,KiCad,Pcbnew,8.99.0-946-gf00a1ab517*%
%TF.CreationDate,2024-05-19T19:51:50+07:00*%
%TF.ProjectId,dtb_toro,6474625f-746f-4726-9f2e-6b696361645f,rev?*%
%TF.SameCoordinates,Original*%
%TF.FileFunction,Drillmap*%
%TF.FilePolarity,Positive*%
%FSLAX45Y45*%
G04 Gerber Fmt 4.5, Leading zero omitted, Abs format (unit mm)*
G04 Created by KiCad (PCBNEW 8.99.0-946-gf00a1ab517) date 2024-05-19 19:51:50*
%MOMM*%
%LPD*%
G01*
G04 APERTURE LIST*
%ADD10C,0.050000*%
%ADD11C,0.500000*%
%ADD12C,0.200000*%
%ADD13C,0.100000*%
%ADD14C,0.220000*%
G04 APERTURE END LIST*
D10*
X54647320Y-5257940D02*
X53626661Y-5257940D01*
X54346982Y3742030D02*
X54647320Y3742030D01*
X54347003Y3512034D02*
X54647342Y3512034D01*
X53626661Y3742030D02*
X53927000Y3742030D01*
X53626682Y3512039D02*
X53927020Y3512039D01*
X54056992Y3627034D02*
G75*
G02*
X53957013Y3627034I-49990J0D01*
G01*
X53957013Y3627034D02*
G75*
G02*
X54056992Y3627034I49990J0D01*
G01*
X54316992Y3627034D02*
G75*
G02*
X54217013Y3627034I-49990J0D01*
G01*
X54217013Y3627034D02*
G75*
G02*
X54316992Y3627034I49990J0D01*
G01*
X54186992Y3627034D02*
G75*
G02*
X54087013Y3627034I-49990J0D01*
G01*
X54087013Y3627034D02*
G75*
G02*
X54186992Y3627034I49990J0D01*
G01*
X54346982Y3742034D02*
X54347003Y3512034D01*
X53927000Y3742034D02*
X53927020Y3512039D01*
D11*
X55015722Y-674357D02*
G75*
G02*
X54807357Y-568927I-1J258612D01*
G01*
X53466634Y-1568926D02*
G75*
G02*
X53626682Y-1487948I160055J-117688D01*
G01*
X55015722Y-2674348D02*
G75*
G02*
X54807357Y-2568919I-1J258612D01*
G01*
X54647342Y-1487953D02*
G75*
G02*
X54807358Y-1568921I-5J-198612D01*
G01*
X54807361Y-3176973D02*
G75*
G02*
X54647320Y-3257949I-160038J117660D01*
G01*
X55087002Y-1674353D02*
G75*
G02*
X55086990Y-2071544I3J-198596D01*
G01*
X53466634Y-1568926D02*
G75*
G02*
X53258302Y-1674349I-208345J153161D01*
G01*
X53258272Y-3071548D02*
X53187002Y-3071548D01*
X54807361Y-2176977D02*
G75*
G02*
X54647320Y-2257953I-160038J117660D01*
G01*
X53187002Y-4071544D02*
G75*
G02*
X53188859Y-3674344I3J198604D01*
G01*
X54647342Y-2487948D02*
G75*
G02*
X54807358Y-2568917I-5J-198612D01*
G01*
X53466634Y-568930D02*
G75*
G02*
X53258302Y-674353I-208345J153161D01*
G01*
X53258272Y-2071553D02*
G75*
G02*
X53466644Y-2176987I10J-258605D01*
G01*
X53626661Y-2257953D02*
G75*
G02*
X53466644Y-2176987I0J198608D01*
G01*
X53258272Y-2071553D02*
X53187002Y-2071553D01*
X53187002Y-3071548D02*
G75*
G02*
X53188859Y-2674349I3J198604D01*
G01*
D10*
X53258302Y-3674340D02*
X53188859Y-3674344D01*
D11*
X53258272Y-1071557D02*
G75*
G02*
X53466644Y-1176991I10J-258605D01*
G01*
X53187002Y-1071557D02*
G75*
G02*
X53188859Y-674357I3J198604D01*
G01*
D10*
X55087002Y-1674353D02*
X55015722Y-1674353D01*
D11*
X53258272Y-4071544D02*
G75*
G02*
X53466644Y-4176978I10J-258605D01*
G01*
X55087002Y2325630D02*
G75*
G02*
X55086990Y1928438I3J-198596D01*
G01*
X54807361Y1823005D02*
G75*
G02*
X54647320Y1742030I-160038J117660D01*
G01*
X54807361Y1823005D02*
G75*
G02*
X55015736Y1928434I208370J-153198D01*
G01*
X55086990Y-4071536D02*
X55015736Y-4071540D01*
X53187002Y-2071553D02*
G75*
G02*
X53188859Y-1674353I3J198604D01*
G01*
X54807361Y-4176969D02*
G75*
G02*
X54647320Y-4257945I-160038J117660D01*
G01*
X53187002Y928434D02*
G75*
G02*
X53188859Y1325634I3J198604D01*
G01*
X53466634Y-3568917D02*
G75*
G02*
X53258302Y-3674340I-208345J153161D01*
G01*
X54807361Y-2176977D02*
G75*
G02*
X55015736Y-2071549I208370J-153198D01*
G01*
D10*
X53258302Y-674353D02*
X53188859Y-674357D01*
D11*
X55086990Y-1071549D02*
X55015736Y-1071553D01*
X53466634Y-568930D02*
G75*
G02*
X53626682Y-487952I160055J-117688D01*
G01*
D10*
X55087002Y-674357D02*
X55015722Y-674357D01*
X53258302Y2325634D02*
X53188859Y2325630D01*
D11*
X55086990Y-2071544D02*
X55015736Y-2071549D01*
X55015722Y-1674353D02*
G75*
G02*
X54807357Y-1568923I-1J258612D01*
G01*
D10*
X53258302Y-1674349D02*
X53188859Y-1674353D01*
D11*
X55087002Y-674357D02*
G75*
G02*
X55086990Y-1071549I3J-198596D01*
G01*
X53626661Y1742030D02*
G75*
G02*
X53466644Y1822996I0J198608D01*
G01*
X54807361Y-1176982D02*
G75*
G02*
X54647320Y-1257957I-160038J117660D01*
G01*
X53258272Y-1071557D02*
X53187002Y-1071557D01*
X53626661Y-1257957D02*
G75*
G02*
X53466644Y-1176991I0J198608D01*
G01*
X54647342Y2512030D02*
G75*
G02*
X54807358Y2431061I-5J-198612D01*
G01*
X54647342Y-487957D02*
G75*
G02*
X54807358Y-568926I-5J-198612D01*
G01*
X54807361Y-1176982D02*
G75*
G02*
X55015736Y-1071553I208370J-153198D01*
G01*
X55086990Y-3071540D02*
X55015736Y-3071545D01*
X53258272Y-3071548D02*
G75*
G02*
X53466644Y-3176982I10J-258605D01*
G01*
X55087002Y-2674348D02*
G75*
G02*
X55086990Y-3071540I3J-198596D01*
G01*
X53466634Y-2568922D02*
G75*
G02*
X53258302Y-2674345I-208345J153161D01*
G01*
X54807361Y-3176973D02*
G75*
G02*
X55015736Y-3071545I208370J-153198D01*
G01*
D10*
X53258302Y-2674345D02*
X53188859Y-2674349D01*
D11*
X53626661Y-3257948D02*
G75*
G02*
X53466644Y-3176982I0J198608D01*
G01*
D10*
X55087002Y-2674348D02*
X55015722Y-2674348D01*
D11*
X53466634Y-2568922D02*
G75*
G02*
X53626682Y-2487944I160055J-117688D01*
G01*
D10*
X55087002Y3325630D02*
X55015722Y3325630D01*
D11*
X53187002Y2928430D02*
G75*
G02*
X53188859Y3325630I3J198604D01*
G01*
X53258272Y2928430D02*
G75*
G02*
X53466644Y2822996I9J-258606D01*
G01*
X55086990Y2928438D02*
X55015736Y2928434D01*
X53466634Y3431057D02*
G75*
G02*
X53258302Y3325634I-208345J153162D01*
G01*
D10*
X53258302Y3325634D02*
X53188859Y3325630D01*
D11*
X54807361Y2823005D02*
G75*
G02*
X54647320Y2742030I-160038J117660D01*
G01*
X53258272Y2928430D02*
X53187002Y2928430D01*
X55015722Y3325630D02*
G75*
G02*
X54807357Y3431060I-1J258612D01*
G01*
X54807361Y2823005D02*
G75*
G02*
X55015736Y2928434I208370J-153198D01*
G01*
X54647342Y3512030D02*
G75*
G02*
X54807358Y3431061I-5J-198613D01*
G01*
X55087002Y3325630D02*
G75*
G02*
X55086990Y2928438I3J-198596D01*
G01*
X53466634Y2431057D02*
G75*
G02*
X53626682Y2512035I160055J-117688D01*
G01*
X53466634Y3431057D02*
G75*
G02*
X53626682Y3512035I160055J-117688D01*
G01*
X55015722Y2325630D02*
G75*
G02*
X54807357Y2431060I-1J258612D01*
G01*
X53258272Y1928430D02*
G75*
G02*
X53466644Y1822996I10J-258605D01*
G01*
X54807361Y823010D02*
G75*
G02*
X54647320Y742034I-160038J117660D01*
G01*
X53258272Y928434D02*
X53187002Y928434D01*
X53626661Y2742030D02*
G75*
G02*
X53466644Y2822996I0J198608D01*
G01*
X55015722Y1325634D02*
G75*
G02*
X54807357Y1431064I-1J258612D01*
G01*
X53466634Y2431057D02*
G75*
G02*
X53258302Y2325634I-208345J153161D01*
G01*
X55086990Y1928438D02*
X55015736Y1928434D01*
D10*
X55087002Y2325630D02*
X55015722Y2325630D01*
X55087002Y1325634D02*
X55015722Y1325634D01*
D11*
X53258272Y1928430D02*
X53187002Y1928430D01*
X53187002Y1928430D02*
G75*
G02*
X53188859Y2325630I3J198604D01*
G01*
X55087002Y-3674344D02*
G75*
G02*
X55086990Y-4071536I3J-198596D01*
G01*
X53626661Y-4257944D02*
G75*
G02*
X53466644Y-4176978I0J198608D01*
G01*
X53466634Y-3568917D02*
G75*
G02*
X53626682Y-3487939I160055J-117688D01*
G01*
X53258272Y-4071544D02*
X53187002Y-4071544D01*
D10*
X55087002Y-4674340D02*
X55015722Y-4674340D01*
D11*
X54647342Y-3487944D02*
G75*
G02*
X54807358Y-3568913I-5J-198612D01*
G01*
X54807361Y-4176969D02*
G75*
G02*
X55015736Y-4071540I208370J-153198D01*
G01*
D10*
X55087002Y-3674344D02*
X55015722Y-3674344D01*
D11*
X53258272Y-5071540D02*
G75*
G02*
X53466644Y-5176974I10J-258605D01*
G01*
X53258272Y-5071540D02*
X53187002Y-5071540D01*
X55086990Y-5071531D02*
X55015736Y-5071536D01*
D10*
X53258302Y-4674336D02*
X53188859Y-4674340D01*
D11*
X55015722Y-3674344D02*
G75*
G02*
X54807357Y-3568914I-1J258612D01*
G01*
X53187002Y-5071540D02*
G75*
G02*
X53188859Y-4674340I3J198604D01*
G01*
X55015722Y-4674340D02*
G75*
G02*
X54807357Y-4568910I-1J258612D01*
G01*
X54807361Y-5176964D02*
G75*
G02*
X55015736Y-5071536I208370J-153198D01*
G01*
X55087002Y-4674340D02*
G75*
G02*
X55086990Y-5071531I3J-198596D01*
G01*
X54647342Y-4487940D02*
G75*
G02*
X54807358Y-4568909I-5J-198612D01*
G01*
X53626661Y-5257940D02*
G75*
G02*
X53466644Y-5176974I0J198608D01*
G01*
X53466634Y-4568913D02*
G75*
G02*
X53626682Y-4487935I160055J-117688D01*
G01*
D10*
X54346982Y2742030D02*
X54647320Y2742030D01*
X53626661Y2742030D02*
X53927000Y2742030D01*
D11*
X53466634Y-4568913D02*
G75*
G02*
X53258302Y-4674336I-208345J153161D01*
G01*
X54807361Y-5176964D02*
G75*
G02*
X54647320Y-5257940I-160038J117660D01*
G01*
X55086990Y-71553D02*
X55015736Y-71558D01*
X55086990Y928443D02*
X55015736Y928438D01*
X55087002Y325639D02*
G75*
G02*
X55086990Y-71553I3J-198596D01*
G01*
X54807361Y823010D02*
G75*
G02*
X55015736Y928438I208370J-153198D01*
G01*
X53187002Y-71561D02*
G75*
G02*
X53188859Y325638I3J198604D01*
G01*
D10*
X53626661Y-4257944D02*
X53927000Y-4257944D01*
X53626661Y-1257957D02*
X53927000Y-1257957D01*
X53626682Y2512035D02*
X53927020Y2512035D01*
D11*
X53626661Y-257961D02*
G75*
G02*
X53466644Y-176995I0J198608D01*
G01*
D10*
X53258302Y1325638D02*
X53188859Y1325634D01*
X53258302Y325643D02*
X53188859Y325638D01*
D11*
X55015722Y325639D02*
G75*
G02*
X54807357Y431068I-1J258612D01*
G01*
X53466634Y431065D02*
G75*
G02*
X53626682Y512043I160055J-117688D01*
G01*
D10*
X55087002Y325639D02*
X55015722Y325639D01*
D11*
X53258272Y-71561D02*
X53187002Y-71561D01*
D10*
X53927000Y2742030D02*
X53927020Y2512035D01*
X53626682Y-4487935D02*
X53927020Y-4487935D01*
D11*
X53466634Y431065D02*
G75*
G02*
X53258302Y325643I-208345J153161D01*
G01*
X53466634Y1431061D02*
G75*
G02*
X53258302Y1325638I-208345J153161D01*
G01*
X54647342Y512039D02*
G75*
G02*
X54807358Y431070I-5J-198612D01*
G01*
X54807361Y-176986D02*
G75*
G02*
X54647320Y-257962I-160038J117660D01*
G01*
X53626661Y742034D02*
G75*
G02*
X53466644Y823000I0J198608D01*
G01*
X53466634Y1431061D02*
G75*
G02*
X53626682Y1512039I160055J-117688D01*
G01*
X53258272Y928434D02*
G75*
G02*
X53466644Y823000I10J-258605D01*
G01*
X54807361Y-176986D02*
G75*
G02*
X55015736Y-71558I208370J-153198D01*
G01*
X55087002Y1325634D02*
G75*
G02*
X55086990Y928443I3J-198596D01*
G01*
D10*
X54347003Y-4487940D02*
X54647342Y-4487940D01*
D11*
X53258272Y-71561D02*
G75*
G02*
X53466644Y-176995I10J-258605D01*
G01*
D10*
X53626682Y-3487939D02*
X53927020Y-3487939D01*
X54346982Y1742030D02*
X54647320Y1742030D01*
X54346982Y-1257958D02*
X54647320Y-1257957D01*
D11*
X54647342Y1512034D02*
G75*
G02*
X54807358Y1431066I-5J-198612D01*
G01*
D10*
X53626661Y-3257948D02*
X53927000Y-3257948D01*
X53626682Y512043D02*
X53927020Y512043D01*
X53927000Y742034D02*
X53927020Y512039D01*
X53927000Y-4257944D02*
X53927020Y-4487939D01*
X53626682Y-2487944D02*
X53927020Y-2487944D01*
X54347003Y-1487953D02*
X54647342Y-1487953D01*
X54347003Y-2487949D02*
X54647342Y-2487948D01*
X54347003Y1512034D02*
X54647342Y1512034D01*
X53626682Y-487952D02*
X53927020Y-487952D01*
X53626661Y742034D02*
X53927000Y742034D01*
X54316992Y1627030D02*
G75*
G02*
X54217013Y1627030I-49990J0D01*
G01*
X54217013Y1627030D02*
G75*
G02*
X54316992Y1627030I49990J0D01*
G01*
X54346982Y742034D02*
X54647320Y742034D01*
X54347003Y2512030D02*
X54647342Y2512030D01*
X53927000Y-3257948D02*
X53927020Y-3487944D01*
X54056992Y-1372957D02*
G75*
G02*
X53957013Y-1372957I-49990J0D01*
G01*
X53957013Y-1372957D02*
G75*
G02*
X54056992Y-1372957I49990J0D01*
G01*
X54056992Y-4372944D02*
G75*
G02*
X53957013Y-4372944I-49990J0D01*
G01*
X53957013Y-4372944D02*
G75*
G02*
X54056992Y-4372944I49990J0D01*
G01*
X54186992Y627034D02*
G75*
G02*
X54087013Y627034I-49990J0D01*
G01*
X54087013Y627034D02*
G75*
G02*
X54186992Y627034I49990J0D01*
G01*
X54316992Y-4372944D02*
G75*
G02*
X54217013Y-4372944I-49990J0D01*
G01*
X54217013Y-4372944D02*
G75*
G02*
X54316992Y-4372944I49990J0D01*
G01*
X54316992Y-3372949D02*
G75*
G02*
X54217013Y-3372949I-49990J0D01*
G01*
X54217013Y-3372949D02*
G75*
G02*
X54316992Y-3372949I49990J0D01*
G01*
X54316992Y-372962D02*
G75*
G02*
X54217013Y-372962I-49990J0D01*
G01*
X54217013Y-372962D02*
G75*
G02*
X54316992Y-372962I49990J0D01*
G01*
X54346982Y-2257953D02*
X54347003Y-2487953D01*
X54316992Y-2372953D02*
G75*
G02*
X54217013Y-2372953I-49990J0D01*
G01*
X54217013Y-2372953D02*
G75*
G02*
X54316992Y-2372953I49990J0D01*
G01*
X54346982Y-257962D02*
X54647320Y-257962D01*
X54346982Y1742030D02*
X54347003Y1512030D01*
X53927000Y-1257957D02*
X53927020Y-1487952D01*
X54346982Y742034D02*
X54347003Y512034D01*
X53927000Y-2257953D02*
X53927020Y-2487948D01*
X54346982Y-4257945D02*
X54347003Y-4487944D01*
X53626682Y-1487948D02*
X53927020Y-1487948D01*
X54186992Y-372962D02*
G75*
G02*
X54087013Y-372962I-49990J0D01*
G01*
X54087013Y-372962D02*
G75*
G02*
X54186992Y-372962I49990J0D01*
G01*
X54187000Y2627033D02*
G75*
G02*
X54087020Y2627033I-49990J0D01*
G01*
X54087020Y2627033D02*
G75*
G02*
X54187000Y2627033I49990J0D01*
G01*
X54056992Y-2372953D02*
G75*
G02*
X53957013Y-2372953I-49990J0D01*
G01*
X53957013Y-2372953D02*
G75*
G02*
X54056992Y-2372953I49990J0D01*
G01*
X53626682Y1512039D02*
X53927020Y1512039D01*
X54056992Y-372962D02*
G75*
G02*
X53957013Y-372962I-49990J0D01*
G01*
X53957013Y-372962D02*
G75*
G02*
X54056992Y-372962I49990J0D01*
G01*
X54347003Y-3487944D02*
X54647342Y-3487944D01*
X54346982Y-3257949D02*
X54347003Y-3487948D01*
X53927000Y-257961D02*
X53927020Y-487957D01*
X54346982Y-257962D02*
X54347003Y-487961D01*
X54056992Y627034D02*
G75*
G02*
X53957013Y627034I-49990J0D01*
G01*
X53957013Y627034D02*
G75*
G02*
X54056992Y627034I49990J0D01*
G01*
X54186992Y1627030D02*
G75*
G02*
X54087013Y1627030I-49990J0D01*
G01*
X54087013Y1627030D02*
G75*
G02*
X54186992Y1627030I49990J0D01*
G01*
X54317000Y2627033D02*
G75*
G02*
X54217020Y2627033I-49990J0D01*
G01*
X54217020Y2627033D02*
G75*
G02*
X54317000Y2627033I49990J0D01*
G01*
X54316992Y627034D02*
G75*
G02*
X54217013Y627034I-49990J0D01*
G01*
X54217013Y627034D02*
G75*
G02*
X54316992Y627034I49990J0D01*
G01*
X54347003Y-487957D02*
X54647342Y-487957D01*
X54056992Y-3372949D02*
G75*
G02*
X53957013Y-3372949I-49990J0D01*
G01*
X53957013Y-3372949D02*
G75*
G02*
X54056992Y-3372949I49990J0D01*
G01*
X53626661Y-257961D02*
X53927000Y-257961D01*
X53626661Y1742030D02*
X53927000Y1742030D01*
X54346982Y-3257949D02*
X54647320Y-3257949D01*
X54346982Y-1257958D02*
X54347003Y-1487957D01*
X54346982Y-2257953D02*
X54647320Y-2257953D01*
X54347003Y512039D02*
X54647342Y512039D01*
X54316992Y-1372957D02*
G75*
G02*
X54217013Y-1372957I-49990J0D01*
G01*
X54217013Y-1372957D02*
G75*
G02*
X54316992Y-1372957I49990J0D01*
G01*
X54346982Y-4257945D02*
X54647320Y-4257945D01*
X54186992Y-2372953D02*
G75*
G02*
X54087013Y-2372953I-49990J0D01*
G01*
X54087013Y-2372953D02*
G75*
G02*
X54186992Y-2372953I49990J0D01*
G01*
X53927000Y1742030D02*
X53927020Y1512035D01*
X54346982Y2742030D02*
X54347003Y2512030D01*
X53626661Y-2257953D02*
X53927000Y-2257953D01*
X54186992Y-1372957D02*
G75*
G02*
X54087013Y-1372957I-49990J0D01*
G01*
X54087013Y-1372957D02*
G75*
G02*
X54186992Y-1372957I49990J0D01*
G01*
X54056992Y1627030D02*
G75*
G02*
X53957013Y1627030I-49990J0D01*
G01*
X53957013Y1627030D02*
G75*
G02*
X54056992Y1627030I49990J0D01*
G01*
X54186992Y-3372949D02*
G75*
G02*
X54087013Y-3372949I-49990J0D01*
G01*
X54087013Y-3372949D02*
G75*
G02*
X54186992Y-3372949I49990J0D01*
G01*
X54057000Y2627033D02*
G75*
G02*
X53957020Y2627033I-49990J0D01*
G01*
X53957020Y2627033D02*
G75*
G02*
X54057000Y2627033I49990J0D01*
G01*
X54186992Y-4372944D02*
G75*
G02*
X54087013Y-4372944I-49990J0D01*
G01*
X54087013Y-4372944D02*
G75*
G02*
X54186992Y-4372944I49990J0D01*
G01*
X54056992Y4627026D02*
G75*
G02*
X53957013Y4627026I-49990J0D01*
G01*
X53957013Y4627026D02*
G75*
G02*
X54056992Y4627026I49990J0D01*
G01*
X54316992Y4627026D02*
G75*
G02*
X54217013Y4627026I-49990J0D01*
G01*
X54217013Y4627026D02*
G75*
G02*
X54316992Y4627026I49990J0D01*
G01*
X54186992Y4627026D02*
G75*
G02*
X54087013Y4627026I-49990J0D01*
G01*
X54087013Y4627026D02*
G75*
G02*
X54186992Y4627026I49990J0D01*
G01*
X54056992Y5627021D02*
G75*
G02*
X53957013Y5627021I-49990J0D01*
G01*
X53957013Y5627021D02*
G75*
G02*
X54056992Y5627021I49990J0D01*
G01*
X54316992Y5627021D02*
G75*
G02*
X54217013Y5627021I-49990J0D01*
G01*
X54217013Y5627021D02*
G75*
G02*
X54316992Y5627021I49990J0D01*
G01*
X54186992Y5627021D02*
G75*
G02*
X54087013Y5627021I-49990J0D01*
G01*
X54087013Y5627021D02*
G75*
G02*
X54186992Y5627021I49990J0D01*
G01*
X54056992Y6627017D02*
G75*
G02*
X53957013Y6627017I-49990J0D01*
G01*
X53957013Y6627017D02*
G75*
G02*
X54056992Y6627017I49990J0D01*
G01*
X54316992Y6627017D02*
G75*
G02*
X54217013Y6627017I-49990J0D01*
G01*
X54217013Y6627017D02*
G75*
G02*
X54316992Y6627017I49990J0D01*
G01*
X54186992Y6627017D02*
G75*
G02*
X54087013Y6627017I-49990J0D01*
G01*
X54087013Y6627017D02*
G75*
G02*
X54186992Y6627017I49990J0D01*
G01*
X54056992Y7627013D02*
G75*
G02*
X53957013Y7627013I-49990J0D01*
G01*
X53957013Y7627013D02*
G75*
G02*
X54056992Y7627013I49990J0D01*
G01*
X54316992Y7627013D02*
G75*
G02*
X54217013Y7627013I-49990J0D01*
G01*
X54217013Y7627013D02*
G75*
G02*
X54316992Y7627013I49990J0D01*
G01*
X54186992Y7627013D02*
G75*
G02*
X54087013Y7627013I-49990J0D01*
G01*
X54087013Y7627013D02*
G75*
G02*
X54186992Y7627013I49990J0D01*
G01*
X54056992Y8627008D02*
G75*
G02*
X53957013Y8627008I-49990J0D01*
G01*
X53957013Y8627008D02*
G75*
G02*
X54056992Y8627008I49990J0D01*
G01*
X54316992Y8627008D02*
G75*
G02*
X54217013Y8627008I-49990J0D01*
G01*
X54217013Y8627008D02*
G75*
G02*
X54316992Y8627008I49990J0D01*
G01*
X54186992Y8627008D02*
G75*
G02*
X54087013Y8627008I-49990J0D01*
G01*
X54087013Y8627008D02*
G75*
G02*
X54186992Y8627008I49990J0D01*
G01*
X54056992Y9627004D02*
G75*
G02*
X53957013Y9627004I-49990J0D01*
G01*
X53957013Y9627004D02*
G75*
G02*
X54056992Y9627004I49990J0D01*
G01*
X54316992Y9627004D02*
G75*
G02*
X54217013Y9627004I-49990J0D01*
G01*
X54217013Y9627004D02*
G75*
G02*
X54316992Y9627004I49990J0D01*
G01*
X54186992Y9627004D02*
G75*
G02*
X54087013Y9627004I-49990J0D01*
G01*
X54087013Y9627004D02*
G75*
G02*
X54186992Y9627004I49990J0D01*
G01*
X54056992Y10627000D02*
G75*
G02*
X53957013Y10627000I-49990J0D01*
G01*
X53957013Y10627000D02*
G75*
G02*
X54056992Y10627000I49990J0D01*
G01*
X54316992Y10627000D02*
G75*
G02*
X54217013Y10627000I-49990J0D01*
G01*
X54217013Y10627000D02*
G75*
G02*
X54316992Y10627000I49990J0D01*
G01*
X54186992Y10627000D02*
G75*
G02*
X54087013Y10627000I-49990J0D01*
G01*
X54087013Y10627000D02*
G75*
G02*
X54186992Y10627000I49990J0D01*
G01*
X54317000Y11627002D02*
G75*
G02*
X54217020Y11627002I-49990J0D01*
G01*
X54217020Y11627002D02*
G75*
G02*
X54317000Y11627002I49990J0D01*
G01*
X54187000Y11627002D02*
G75*
G02*
X54087020Y11627002I-49990J0D01*
G01*
X54087020Y11627002D02*
G75*
G02*
X54187000Y11627002I49990J0D01*
G01*
X54057000Y11627002D02*
G75*
G02*
X53957020Y11627002I-49990J0D01*
G01*
X53957020Y11627002D02*
G75*
G02*
X54057000Y11627002I49990J0D01*
G01*
X54346982Y4742025D02*
X54347003Y4512026D01*
X53927000Y4742026D02*
X53927020Y4512031D01*
X54346982Y5742021D02*
X54347003Y5512021D01*
X53927000Y5742021D02*
X53927020Y5512026D01*
X54346982Y6742017D02*
X54347003Y6512017D01*
X53927000Y6742017D02*
X53927020Y6512022D01*
X54346982Y7742012D02*
X54347003Y7512013D01*
X53927000Y7742013D02*
X53927020Y7512018D01*
X54346982Y8742008D02*
X54347003Y8512009D01*
X53927000Y8742009D02*
X53927020Y8512013D01*
X54346982Y9742004D02*
X54347003Y9512004D01*
X53927000Y9742004D02*
X53927020Y9512009D01*
X54346982Y10742000D02*
X54347003Y10512000D01*
X53927000Y10742000D02*
X53927020Y10512005D01*
X53927000Y11742000D02*
X53927020Y11512005D01*
X54347003Y4512030D02*
X54647342Y4512030D01*
X53626682Y4512035D02*
X53927020Y4512035D01*
X54347003Y5512026D02*
X54647342Y5512026D01*
X53626682Y5512030D02*
X53927020Y5512031D01*
X54347003Y6512021D02*
X54647342Y6512021D01*
X53626682Y6512026D02*
X53927020Y6512026D01*
X54347003Y7512017D02*
X54647342Y7512017D01*
X53626682Y7512022D02*
X53927020Y7512022D01*
X54347003Y8512013D02*
X54647342Y8512013D01*
X53626682Y8512018D02*
X53927020Y8512018D01*
X54347003Y9512009D02*
X54647342Y9512009D01*
X53626682Y9512013D02*
X53927020Y9512013D01*
X54347003Y10512004D02*
X54647342Y10512004D01*
X53626682Y10512009D02*
X53927020Y10512009D01*
X54347003Y11512000D02*
X54647342Y11512000D01*
X53626682Y11512005D02*
X53927020Y11512005D01*
X53626661Y4742026D02*
X53927000Y4742026D01*
X54346982Y4742025D02*
X54647320Y4742025D01*
X53626661Y5742021D02*
X53927000Y5742021D01*
X54346982Y5742021D02*
X54647320Y5742021D01*
X53626661Y6742017D02*
X53927000Y6742017D01*
X54346982Y6742017D02*
X54647320Y6742017D01*
X53626661Y7742013D02*
X53927000Y7742013D01*
X54346982Y7742012D02*
X54647320Y7742012D01*
X53626661Y8742009D02*
X53927000Y8742009D01*
X54346982Y8742008D02*
X54647320Y8742008D01*
X53626661Y9742004D02*
X53927000Y9742004D01*
X54346982Y9742004D02*
X54647320Y9742004D01*
X53626661Y10742000D02*
X53927000Y10742000D01*
X54346982Y10742000D02*
X54647320Y10742000D01*
X54346982Y11741999D02*
X54647320Y11742000D01*
X53626661Y11742000D02*
X53927000Y11742000D01*
D11*
X53466634Y4431057D02*
G75*
G02*
X53626682Y4512035I160055J-117688D01*
G01*
X53626661Y3742030D02*
G75*
G02*
X53466644Y3822996I0J198608D01*
G01*
X54647342Y4512030D02*
G75*
G02*
X54807358Y4431061I-5J-198613D01*
G01*
X55087002Y4325630D02*
G75*
G02*
X55086990Y3928438I3J-198596D01*
G01*
X54807361Y3823005D02*
G75*
G02*
X55015736Y3928434I208370J-153198D01*
G01*
D10*
X55087002Y4325630D02*
X55015722Y4325630D01*
D11*
X55015722Y4325630D02*
G75*
G02*
X54807357Y4431060I-1J258612D01*
G01*
X53258272Y3928430D02*
X53187002Y3928430D01*
X54807361Y3823005D02*
G75*
G02*
X54647320Y3742030I-160038J117660D01*
G01*
X53187002Y3928430D02*
G75*
G02*
X53188859Y4325630I3J198604D01*
G01*
D10*
X53258302Y4325634D02*
X53188859Y4325630D01*
D11*
X53466634Y4431057D02*
G75*
G02*
X53258302Y4325634I-208345J153162D01*
G01*
X55086990Y3928438D02*
X55015736Y3928434D01*
X53258272Y3928430D02*
G75*
G02*
X53466644Y3822996I9J-258606D01*
G01*
X53466634Y5431053D02*
G75*
G02*
X53626682Y5512030I160055J-117688D01*
G01*
X53626661Y4742026D02*
G75*
G02*
X53466644Y4822992I0J198608D01*
G01*
X54647342Y5512026D02*
G75*
G02*
X54807358Y5431057I-5J-198613D01*
G01*
X55087002Y5325626D02*
G75*
G02*
X55086990Y4928434I3J-198596D01*
G01*
X54807361Y4823001D02*
G75*
G02*
X55015736Y4928429I208370J-153198D01*
G01*
D10*
X55087002Y5325626D02*
X55015722Y5325626D01*
D11*
X55015722Y5325626D02*
G75*
G02*
X54807357Y5431056I-1J258612D01*
G01*
X53258272Y4928426D02*
X53187002Y4928426D01*
X54807361Y4823001D02*
G75*
G02*
X54647320Y4742025I-160038J117660D01*
G01*
X53187002Y4928426D02*
G75*
G02*
X53188859Y5325626I3J198604D01*
G01*
D10*
X53258302Y5325630D02*
X53188859Y5325626D01*
D11*
X53466634Y5431053D02*
G75*
G02*
X53258302Y5325630I-208345J153162D01*
G01*
X55086990Y4928434D02*
X55015736Y4928429D01*
X53258272Y4928426D02*
G75*
G02*
X53466644Y4822992I9J-258606D01*
G01*
X53466634Y6431048D02*
G75*
G02*
X53626682Y6512026I160055J-117688D01*
G01*
X53626661Y5742021D02*
G75*
G02*
X53466644Y5822988I0J198608D01*
G01*
X54647342Y6512021D02*
G75*
G02*
X54807358Y6431053I-5J-198613D01*
G01*
X55087002Y6325621D02*
G75*
G02*
X55086990Y5928430I3J-198596D01*
G01*
X54807361Y5822997D02*
G75*
G02*
X55015736Y5928425I208370J-153198D01*
G01*
D10*
X55087002Y6325621D02*
X55015722Y6325621D01*
D11*
X55015722Y6325621D02*
G75*
G02*
X54807357Y6431051I-1J258612D01*
G01*
X53258272Y5928421D02*
X53187002Y5928421D01*
X54807361Y5822997D02*
G75*
G02*
X54647320Y5742021I-160038J117660D01*
G01*
X53187002Y5928421D02*
G75*
G02*
X53188859Y6325621I3J198604D01*
G01*
D10*
X53258302Y6325625D02*
X53188859Y6325621D01*
D11*
X53466634Y6431048D02*
G75*
G02*
X53258302Y6325625I-208345J153162D01*
G01*
X55086990Y5928430D02*
X55015736Y5928425D01*
X53258272Y5928421D02*
G75*
G02*
X53466644Y5822988I9J-258606D01*
G01*
X53466634Y7431044D02*
G75*
G02*
X53626682Y7512022I160055J-117688D01*
G01*
X53626661Y6742017D02*
G75*
G02*
X53466644Y6822983I0J198608D01*
G01*
X54647342Y7512017D02*
G75*
G02*
X54807358Y7431048I-5J-198613D01*
G01*
X55087002Y7325617D02*
G75*
G02*
X55086990Y6928426I3J-198596D01*
G01*
X54807361Y6822993D02*
G75*
G02*
X55015736Y6928421I208370J-153198D01*
G01*
D10*
X55087002Y7325617D02*
X55015722Y7325617D01*
D11*
X55015722Y7325617D02*
G75*
G02*
X54807357Y7431047I-1J258612D01*
G01*
X53258272Y6928417D02*
X53187002Y6928417D01*
X54807361Y6822993D02*
G75*
G02*
X54647320Y6742017I-160038J117660D01*
G01*
X53187002Y6928417D02*
G75*
G02*
X53188859Y7325617I3J198604D01*
G01*
D10*
X53258302Y7325621D02*
X53188859Y7325617D01*
D11*
X53466634Y7431044D02*
G75*
G02*
X53258302Y7325621I-208345J153162D01*
G01*
X55086990Y6928426D02*
X55015736Y6928421D01*
X53258272Y6928417D02*
G75*
G02*
X53466644Y6822983I9J-258606D01*
G01*
X53466634Y8431040D02*
G75*
G02*
X53626682Y8512018I160055J-117688D01*
G01*
X53626661Y7742013D02*
G75*
G02*
X53466644Y7822979I0J198608D01*
G01*
X54647342Y8512013D02*
G75*
G02*
X54807358Y8431044I-5J-198613D01*
G01*
X55087002Y8325613D02*
G75*
G02*
X55086990Y7928421I3J-198596D01*
G01*
X54807361Y7822988D02*
G75*
G02*
X55015736Y7928416I208370J-153198D01*
G01*
D10*
X55087002Y8325613D02*
X55015722Y8325613D01*
D11*
X55015722Y8325613D02*
G75*
G02*
X54807357Y8431043I-1J258612D01*
G01*
X53258272Y7928413D02*
X53187002Y7928413D01*
X54807361Y7822988D02*
G75*
G02*
X54647320Y7742012I-160038J117659D01*
G01*
X53187002Y7928413D02*
G75*
G02*
X53188859Y8325613I3J198604D01*
G01*
D10*
X53258302Y8325617D02*
X53188859Y8325613D01*
D11*
X53466634Y8431040D02*
G75*
G02*
X53258302Y8325617I-208345J153162D01*
G01*
X55086990Y7928421D02*
X55015736Y7928416D01*
X53258272Y7928413D02*
G75*
G02*
X53466644Y7822979I9J-258606D01*
G01*
X53466634Y9431035D02*
G75*
G02*
X53626682Y9512013I160055J-117688D01*
G01*
X53626661Y8742009D02*
G75*
G02*
X53466644Y8822975I0J198608D01*
G01*
X54647342Y9512009D02*
G75*
G02*
X54807358Y9431040I-5J-198613D01*
G01*
X55087002Y9325609D02*
G75*
G02*
X55086990Y8928417I3J-198596D01*
G01*
X54807361Y8822984D02*
G75*
G02*
X55015736Y8928412I208370J-153198D01*
G01*
D10*
X55087002Y9325609D02*
X55015722Y9325609D01*
D11*
X55015722Y9325609D02*
G75*
G02*
X54807357Y9431038I-1J258612D01*
G01*
X53258272Y8928409D02*
X53187002Y8928409D01*
X54807361Y8822984D02*
G75*
G02*
X54647320Y8742008I-160038J117660D01*
G01*
X53187002Y8928409D02*
G75*
G02*
X53188859Y9325608I3J198604D01*
G01*
D10*
X53258302Y9325613D02*
X53188859Y9325608D01*
D11*
X53466634Y9431035D02*
G75*
G02*
X53258302Y9325613I-208345J153162D01*
G01*
X55086990Y8928417D02*
X55015736Y8928412D01*
X53258272Y8928409D02*
G75*
G02*
X53466644Y8822975I9J-258606D01*
G01*
X53466634Y10431031D02*
G75*
G02*
X53626682Y10512009I160055J-117688D01*
G01*
X53626661Y9742004D02*
G75*
G02*
X53466644Y9822970I0J198608D01*
G01*
X54647342Y10512004D02*
G75*
G02*
X54807358Y10431036I-5J-198613D01*
G01*
X55087002Y10325604D02*
G75*
G02*
X55086990Y9928413I3J-198596D01*
G01*
X54807361Y9822980D02*
G75*
G02*
X55015736Y9928408I208370J-153198D01*
G01*
D10*
X55087002Y10325604D02*
X55015722Y10325604D01*
D11*
X55015722Y10325604D02*
G75*
G02*
X54807357Y10431034I-1J258612D01*
G01*
X53258272Y9928404D02*
X53187002Y9928404D01*
X54807361Y9822980D02*
G75*
G02*
X54647320Y9742004I-160038J117660D01*
G01*
X53187002Y9928404D02*
G75*
G02*
X53188859Y10325604I3J198604D01*
G01*
D10*
X53258302Y10325608D02*
X53188859Y10325604D01*
D11*
X53466634Y10431031D02*
G75*
G02*
X53258302Y10325608I-208345J153162D01*
G01*
X55086990Y9928413D02*
X55015736Y9928408D01*
X53258272Y9928404D02*
G75*
G02*
X53466644Y9822970I9J-258606D01*
G01*
X53466634Y11431027D02*
G75*
G02*
X53626682Y11512005I160055J-117688D01*
G01*
X53626661Y10742000D02*
G75*
G02*
X53466644Y10822966I0J198608D01*
G01*
X54647342Y11512000D02*
G75*
G02*
X54807358Y11431031I-5J-198613D01*
G01*
X55087002Y11325600D02*
G75*
G02*
X55086990Y10928408I3J-198596D01*
G01*
X54807361Y10822975D02*
G75*
G02*
X55015736Y10928404I208370J-153198D01*
G01*
D10*
X55087002Y11325600D02*
X55015722Y11325600D01*
D11*
X55015722Y11325600D02*
G75*
G02*
X54807357Y11431030I-1J258612D01*
G01*
X53258272Y10928400D02*
X53187002Y10928400D01*
X54807361Y10822975D02*
G75*
G02*
X54647320Y10742000I-160038J117660D01*
G01*
X53187002Y10928400D02*
G75*
G02*
X53188859Y11325600I3J198604D01*
G01*
D10*
X53258302Y11325604D02*
X53188859Y11325600D01*
D11*
X53466634Y11431027D02*
G75*
G02*
X53258302Y11325604I-208345J153162D01*
G01*
X55086990Y10928408D02*
X55015736Y10928404D01*
X53258272Y10928400D02*
G75*
G02*
X53466644Y10822966I9J-258606D01*
G01*
X53258272Y11928400D02*
G75*
G02*
X53466645Y11822967I8J-258610D01*
G01*
X55087002Y12325600D02*
G75*
G02*
X55086990Y11928400I-2J-198600D01*
G01*
X54647342Y12512000D02*
G75*
G02*
X54807356Y12431030I-2J-198600D01*
G01*
D10*
X55087002Y12325600D02*
X55015722Y12325600D01*
D11*
X54807361Y11822975D02*
G75*
G02*
X54647320Y11741995I-160051J117675D01*
G01*
X53187002Y11928400D02*
G75*
G02*
X53188859Y12325591I-2J198600D01*
G01*
X55086990Y11928408D02*
X55015736Y11928404D01*
X54807361Y11822975D02*
G75*
G02*
X55015736Y11928400I208359J-153185D01*
G01*
X53466634Y12431027D02*
G75*
G02*
X53258302Y12325601I-208354J153173D01*
G01*
D10*
X53258302Y12325604D02*
X53188859Y12325600D01*
D11*
X53258272Y11928400D02*
X53187002Y11928400D01*
X55015722Y12325600D02*
G75*
G02*
X54807357Y12431030I-2J258610D01*
G01*
X53466634Y12431027D02*
G75*
G02*
X53626682Y12512002I160046J-117677D01*
G01*
X53626661Y11742000D02*
G75*
G02*
X53466646Y11822967I-2J198600D01*
G01*
D10*
X53626682Y12512005D02*
X54647342Y12512000D01*
X54346982Y11741999D02*
X54347003Y11512000D01*
D12*
D13*
X54049000Y12051000D02*
X54079000Y12021000D01*
X54079000Y12051000D02*
X54049000Y12021000D01*
X54049000Y11051000D02*
X54079000Y11021000D01*
X54079000Y11051000D02*
X54049000Y11021000D01*
X54049000Y10051004D02*
X54079000Y10021004D01*
X54079000Y10051004D02*
X54049000Y10021004D01*
X54049000Y9051009D02*
X54079000Y9021009D01*
X54079000Y9051009D02*
X54049000Y9021009D01*
X54049000Y8051013D02*
X54079000Y8021013D01*
X54079000Y8051013D02*
X54049000Y8021013D01*
X54049000Y7051017D02*
X54079000Y7021017D01*
X54079000Y7051017D02*
X54049000Y7021017D01*
X54049000Y6051021D02*
X54079000Y6021021D01*
X54079000Y6051021D02*
X54049000Y6021021D01*
X54049000Y5051026D02*
X54079000Y5021026D01*
X54079000Y5051026D02*
X54049000Y5021026D01*
X54049000Y4051030D02*
X54079000Y4021030D01*
X54079000Y4051030D02*
X54049000Y4021030D01*
X54049000Y3051030D02*
X54079000Y3021030D01*
X54079000Y3051030D02*
X54049000Y3021030D01*
X54049000Y2051030D02*
X54079000Y2021030D01*
X54079000Y2051030D02*
X54049000Y2021030D01*
X54049000Y1051034D02*
X54079000Y1021034D01*
X54079000Y1051034D02*
X54049000Y1021034D01*
X54049000Y51039D02*
X54079000Y21039D01*
X54079000Y51039D02*
X54049000Y21039D01*
X54049000Y-948957D02*
X54079000Y-978957D01*
X54079000Y-948957D02*
X54049000Y-978957D01*
X54049000Y-1948953D02*
X54079000Y-1978953D01*
X54079000Y-1948953D02*
X54049000Y-1978953D01*
X54049000Y-2948948D02*
X54079000Y-2978948D01*
X54079000Y-2948948D02*
X54049000Y-2978948D01*
X54049000Y-3948944D02*
X54079000Y-3978944D01*
X54079000Y-3948944D02*
X54049000Y-3978944D01*
X54049000Y-4948940D02*
X54079000Y-4978940D01*
X54079000Y-4948940D02*
X54049000Y-4978940D01*
X54107282Y12018372D02*
X54137282Y11988372D01*
X54137282Y12018372D02*
X54107282Y11988372D01*
X54107282Y11018373D02*
X54137282Y10988373D01*
X54137282Y11018373D02*
X54107282Y10988373D01*
X54107282Y10018377D02*
X54137282Y9988377D01*
X54137282Y10018377D02*
X54107282Y9988377D01*
X54107282Y9018381D02*
X54137282Y8988381D01*
X54137282Y9018381D02*
X54107282Y8988381D01*
X54107282Y8018385D02*
X54137282Y7988385D01*
X54137282Y8018385D02*
X54107282Y7988385D01*
X54107282Y7018390D02*
X54137282Y6988390D01*
X54137282Y7018390D02*
X54107282Y6988390D01*
X54107282Y6018394D02*
X54137282Y5988394D01*
X54137282Y6018394D02*
X54107282Y5988394D01*
X54107282Y5018398D02*
X54137282Y4988398D01*
X54137282Y5018398D02*
X54107282Y4988398D01*
X54107282Y4018403D02*
X54137282Y3988403D01*
X54137282Y4018403D02*
X54107282Y3988403D01*
X54107282Y3018403D02*
X54137282Y2988403D01*
X54137282Y3018403D02*
X54107282Y2988403D01*
X54107282Y2018403D02*
X54137282Y1988403D01*
X54137282Y2018403D02*
X54107282Y1988403D01*
X54107282Y1018407D02*
X54137282Y988407D01*
X54137282Y1018407D02*
X54107282Y988407D01*
X54107282Y18411D02*
X54137282Y-11589D01*
X54137282Y18411D02*
X54107282Y-11589D01*
X54107282Y-981584D02*
X54137282Y-1011584D01*
X54137282Y-981584D02*
X54107282Y-1011584D01*
X54107282Y-1981580D02*
X54137282Y-2011580D01*
X54137282Y-1981580D02*
X54107282Y-2011580D01*
X54107282Y-2981576D02*
X54137282Y-3011576D01*
X54137282Y-2981576D02*
X54107282Y-3011576D01*
X54107282Y-3981572D02*
X54137282Y-4011572D01*
X54137282Y-3981572D02*
X54107282Y-4011572D01*
X54107282Y-4981567D02*
X54137282Y-5011567D01*
X54137282Y-4981567D02*
X54107282Y-5011567D01*
X54123000Y12366000D02*
X54153000Y12336000D01*
X54153000Y12366000D02*
X54123000Y12336000D01*
X54123000Y11366000D02*
X54153000Y11336000D01*
X54153000Y11366000D02*
X54123000Y11336000D01*
X54123000Y10366004D02*
X54153000Y10336004D01*
X54153000Y10366004D02*
X54123000Y10336004D01*
X54123000Y9366009D02*
X54153000Y9336009D01*
X54153000Y9366009D02*
X54123000Y9336009D01*
X54123000Y8366013D02*
X54153000Y8336013D01*
X54153000Y8366013D02*
X54123000Y8336013D01*
X54123000Y7366017D02*
X54153000Y7336017D01*
X54153000Y7366017D02*
X54123000Y7336017D01*
X54123000Y6366021D02*
X54153000Y6336021D01*
X54153000Y6366021D02*
X54123000Y6336021D01*
X54123000Y5366026D02*
X54153000Y5336026D01*
X54153000Y5366026D02*
X54123000Y5336026D01*
X54123000Y4366030D02*
X54153000Y4336030D01*
X54153000Y4366030D02*
X54123000Y4336030D01*
X54123000Y3366030D02*
X54153000Y3336030D01*
X54153000Y3366030D02*
X54123000Y3336030D01*
X54123000Y2366030D02*
X54153000Y2336030D01*
X54153000Y2366030D02*
X54123000Y2336030D01*
X54123000Y1366034D02*
X54153000Y1336034D01*
X54153000Y1366034D02*
X54123000Y1336034D01*
X54123000Y366039D02*
X54153000Y336039D01*
X54153000Y366039D02*
X54123000Y336039D01*
X54123000Y-633957D02*
X54153000Y-663957D01*
X54153000Y-633957D02*
X54123000Y-663957D01*
X54123000Y-1633953D02*
X54153000Y-1663953D01*
X54153000Y-1633953D02*
X54123000Y-1663953D01*
X54123000Y-2633948D02*
X54153000Y-2663948D01*
X54153000Y-2633948D02*
X54123000Y-2663948D01*
X54123000Y-3633944D02*
X54153000Y-3663944D01*
X54153000Y-3633944D02*
X54123000Y-3663944D01*
X54123000Y-4633940D02*
X54153000Y-4663940D01*
X54153000Y-4633940D02*
X54123000Y-4663940D01*
X54161000Y12083000D02*
X54191000Y12053000D01*
X54191000Y12083000D02*
X54161000Y12053000D01*
X54161000Y11083000D02*
X54191000Y11053000D01*
X54191000Y11083000D02*
X54161000Y11053000D01*
X54161000Y10083004D02*
X54191000Y10053004D01*
X54191000Y10083004D02*
X54161000Y10053004D01*
X54161000Y9083009D02*
X54191000Y9053009D01*
X54191000Y9083009D02*
X54161000Y9053009D01*
X54161000Y8083013D02*
X54191000Y8053013D01*
X54191000Y8083013D02*
X54161000Y8053013D01*
X54161000Y7083017D02*
X54191000Y7053017D01*
X54191000Y7083017D02*
X54161000Y7053017D01*
X54161000Y6083021D02*
X54191000Y6053021D01*
X54191000Y6083021D02*
X54161000Y6053021D01*
X54161000Y5083026D02*
X54191000Y5053026D01*
X54191000Y5083026D02*
X54161000Y5053026D01*
X54161000Y4083030D02*
X54191000Y4053030D01*
X54191000Y4083030D02*
X54161000Y4053030D01*
X54161000Y3083030D02*
X54191000Y3053030D01*
X54191000Y3083030D02*
X54161000Y3053030D01*
X54161000Y2083030D02*
X54191000Y2053030D01*
X54191000Y2083030D02*
X54161000Y2053030D01*
X54161000Y1083034D02*
X54191000Y1053034D01*
X54191000Y1083034D02*
X54161000Y1053034D01*
X54161000Y83039D02*
X54191000Y53039D01*
X54191000Y83039D02*
X54161000Y53039D01*
X54161000Y-916957D02*
X54191000Y-946957D01*
X54191000Y-916957D02*
X54161000Y-946957D01*
X54161000Y-1916953D02*
X54191000Y-1946953D01*
X54191000Y-1916953D02*
X54161000Y-1946953D01*
X54161000Y-2916948D02*
X54191000Y-2946948D01*
X54191000Y-2916948D02*
X54161000Y-2946948D01*
X54161000Y-3916944D02*
X54191000Y-3946944D01*
X54191000Y-3916944D02*
X54161000Y-3946944D01*
X54161000Y-4916940D02*
X54191000Y-4946940D01*
X54191000Y-4916940D02*
X54161000Y-4946940D01*
X54214000Y11972000D02*
X54244000Y11942000D01*
X54244000Y11972000D02*
X54214000Y11942000D01*
X54214000Y10972000D02*
X54244000Y10942000D01*
X54244000Y10972000D02*
X54214000Y10942000D01*
X54214000Y9972004D02*
X54244000Y9942004D01*
X54244000Y9972004D02*
X54214000Y9942004D01*
X54214000Y8972009D02*
X54244000Y8942009D01*
X54244000Y8972009D02*
X54214000Y8942009D01*
X54214000Y7972013D02*
X54244000Y7942013D01*
X54244000Y7972013D02*
X54214000Y7942013D01*
X54214000Y6972017D02*
X54244000Y6942017D01*
X54244000Y6972017D02*
X54214000Y6942017D01*
X54214000Y5972021D02*
X54244000Y5942021D01*
X54244000Y5972021D02*
X54214000Y5942021D01*
X54214000Y4972026D02*
X54244000Y4942026D01*
X54244000Y4972026D02*
X54214000Y4942026D01*
X54214000Y3972030D02*
X54244000Y3942030D01*
X54244000Y3972030D02*
X54214000Y3942030D01*
X54214000Y2972030D02*
X54244000Y2942030D01*
X54244000Y2972030D02*
X54214000Y2942030D01*
X54214000Y1972030D02*
X54244000Y1942030D01*
X54244000Y1972030D02*
X54214000Y1942030D01*
X54214000Y972034D02*
X54244000Y942034D01*
X54244000Y972034D02*
X54214000Y942034D01*
X54214000Y-27961D02*
X54244000Y-57961D01*
X54244000Y-27961D02*
X54214000Y-57961D01*
X54214000Y-1027957D02*
X54244000Y-1057957D01*
X54244000Y-1027957D02*
X54214000Y-1057957D01*
X54214000Y-2027953D02*
X54244000Y-2057953D01*
X54244000Y-2027953D02*
X54214000Y-2057953D01*
X54214000Y-3027948D02*
X54244000Y-3057948D01*
X54244000Y-3027948D02*
X54214000Y-3057948D01*
X54214000Y-4027944D02*
X54244000Y-4057944D01*
X54244000Y-4027944D02*
X54214000Y-4057944D01*
X54214000Y-5027940D02*
X54244000Y-5057940D01*
X54244000Y-5027940D02*
X54214000Y-5057940D01*
X54384000Y12221000D02*
X54414000Y12191000D01*
X54414000Y12221000D02*
X54384000Y12191000D01*
X54384000Y11221000D02*
X54414000Y11191000D01*
X54414000Y11221000D02*
X54384000Y11191000D01*
X54384000Y10221004D02*
X54414000Y10191004D01*
X54414000Y10221004D02*
X54384000Y10191004D01*
X54384000Y9221009D02*
X54414000Y9191009D01*
X54414000Y9221009D02*
X54384000Y9191009D01*
X54384000Y8221013D02*
X54414000Y8191013D01*
X54414000Y8221013D02*
X54384000Y8191013D01*
X54384000Y7221017D02*
X54414000Y7191017D01*
X54414000Y7221017D02*
X54384000Y7191017D01*
X54384000Y6221021D02*
X54414000Y6191021D01*
X54414000Y6221021D02*
X54384000Y6191021D01*
X54384000Y5221026D02*
X54414000Y5191026D01*
X54414000Y5221026D02*
X54384000Y5191026D01*
X54384000Y4221030D02*
X54414000Y4191030D01*
X54414000Y4221030D02*
X54384000Y4191030D01*
X54384000Y3221030D02*
X54414000Y3191030D01*
X54414000Y3221030D02*
X54384000Y3191030D01*
X54384000Y2221030D02*
X54414000Y2191030D01*
X54414000Y2221030D02*
X54384000Y2191030D01*
X54384000Y1221034D02*
X54414000Y1191034D01*
X54414000Y1221034D02*
X54384000Y1191034D01*
X54384000Y221039D02*
X54414000Y191039D01*
X54414000Y221039D02*
X54384000Y191039D01*
X54384000Y-778957D02*
X54414000Y-808957D01*
X54414000Y-778957D02*
X54384000Y-808957D01*
X54384000Y-1778953D02*
X54414000Y-1808953D01*
X54414000Y-1778953D02*
X54384000Y-1808953D01*
X54384000Y-2778948D02*
X54414000Y-2808948D01*
X54414000Y-2778948D02*
X54384000Y-2808948D01*
X54384000Y-3778944D02*
X54414000Y-3808944D01*
X54414000Y-3778944D02*
X54384000Y-3808944D01*
X54384000Y-4778940D02*
X54414000Y-4808940D01*
X54414000Y-4778940D02*
X54384000Y-4808940D01*
X53735000Y12297200D02*
G75*
G02*
X53675000Y12297200I-30000J0D01*
G01*
X53675000Y12297200D02*
G75*
G02*
X53735000Y12297200I30000J0D01*
G01*
X53735000Y12267200D02*
X53735000Y12327200D01*
X53675000Y12327200D02*
G75*
G02*
X53735000Y12327200I30000J0D01*
G01*
X53675000Y12327200D02*
X53675000Y12267200D01*
X53675000Y12267200D02*
G75*
G03*
X53735000Y12267200I30000J0D01*
G01*
X53735000Y11879200D02*
G75*
G02*
X53675000Y11879200I-30000J0D01*
G01*
X53675000Y11879200D02*
G75*
G02*
X53735000Y11879200I30000J0D01*
G01*
X53735000Y11824200D02*
X53735000Y11934200D01*
X53675000Y11934200D02*
G75*
G02*
X53735000Y11934200I30000J0D01*
G01*
X53675000Y11934200D02*
X53675000Y11824200D01*
X53675000Y11824200D02*
G75*
G03*
X53735000Y11824200I30000J0D01*
G01*
X53735000Y11297200D02*
G75*
G02*
X53675000Y11297200I-30000J0D01*
G01*
X53675000Y11297200D02*
G75*
G02*
X53735000Y11297200I30000J0D01*
G01*
X53735000Y11267200D02*
X53735000Y11327200D01*
X53675000Y11327200D02*
G75*
G02*
X53735000Y11327200I30000J0D01*
G01*
X53675000Y11327200D02*
X53675000Y11267200D01*
X53675000Y11267200D02*
G75*
G03*
X53735000Y11267200I30000J0D01*
G01*
X53735000Y10879200D02*
G75*
G02*
X53675000Y10879200I-30000J0D01*
G01*
X53675000Y10879200D02*
G75*
G02*
X53735000Y10879200I30000J0D01*
G01*
X53735000Y10824200D02*
X53735000Y10934200D01*
X53675000Y10934200D02*
G75*
G02*
X53735000Y10934200I30000J0D01*
G01*
X53675000Y10934200D02*
X53675000Y10824200D01*
X53675000Y10824200D02*
G75*
G03*
X53735000Y10824200I30000J0D01*
G01*
X53735000Y10297205D02*
G75*
G02*
X53675000Y10297205I-30000J0D01*
G01*
X53675000Y10297205D02*
G75*
G02*
X53735000Y10297205I30000J0D01*
G01*
X53735000Y10267205D02*
X53735000Y10327205D01*
X53675000Y10327205D02*
G75*
G02*
X53735000Y10327205I30000J0D01*
G01*
X53675000Y10327205D02*
X53675000Y10267205D01*
X53675000Y10267205D02*
G75*
G03*
X53735000Y10267205I30000J0D01*
G01*
X53735000Y9879205D02*
G75*
G02*
X53675000Y9879205I-30000J0D01*
G01*
X53675000Y9879205D02*
G75*
G02*
X53735000Y9879205I30000J0D01*
G01*
X53735000Y9824205D02*
X53735000Y9934205D01*
X53675000Y9934205D02*
G75*
G02*
X53735000Y9934205I30000J0D01*
G01*
X53675000Y9934205D02*
X53675000Y9824205D01*
X53675000Y9824205D02*
G75*
G03*
X53735000Y9824205I30000J0D01*
G01*
X53735000Y9297209D02*
G75*
G02*
X53675000Y9297209I-30000J0D01*
G01*
X53675000Y9297209D02*
G75*
G02*
X53735000Y9297209I30000J0D01*
G01*
X53735000Y9267209D02*
X53735000Y9327209D01*
X53675000Y9327209D02*
G75*
G02*
X53735000Y9327209I30000J0D01*
G01*
X53675000Y9327209D02*
X53675000Y9267209D01*
X53675000Y9267209D02*
G75*
G03*
X53735000Y9267209I30000J0D01*
G01*
X53735000Y8879209D02*
G75*
G02*
X53675000Y8879209I-30000J0D01*
G01*
X53675000Y8879209D02*
G75*
G02*
X53735000Y8879209I30000J0D01*
G01*
X53735000Y8824209D02*
X53735000Y8934209D01*
X53675000Y8934209D02*
G75*
G02*
X53735000Y8934209I30000J0D01*
G01*
X53675000Y8934209D02*
X53675000Y8824209D01*
X53675000Y8824209D02*
G75*
G03*
X53735000Y8824209I30000J0D01*
G01*
X53735000Y8297213D02*
G75*
G02*
X53675000Y8297213I-30000J0D01*
G01*
X53675000Y8297213D02*
G75*
G02*
X53735000Y8297213I30000J0D01*
G01*
X53735000Y8267213D02*
X53735000Y8327213D01*
X53675000Y8327213D02*
G75*
G02*
X53735000Y8327213I30000J0D01*
G01*
X53675000Y8327213D02*
X53675000Y8267213D01*
X53675000Y8267213D02*
G75*
G03*
X53735000Y8267213I30000J0D01*
G01*
X53735000Y7879213D02*
G75*
G02*
X53675000Y7879213I-30000J0D01*
G01*
X53675000Y7879213D02*
G75*
G02*
X53735000Y7879213I30000J0D01*
G01*
X53735000Y7824213D02*
X53735000Y7934213D01*
X53675000Y7934213D02*
G75*
G02*
X53735000Y7934213I30000J0D01*
G01*
X53675000Y7934213D02*
X53675000Y7824213D01*
X53675000Y7824213D02*
G75*
G03*
X53735000Y7824213I30000J0D01*
G01*
X53735000Y7297217D02*
G75*
G02*
X53675000Y7297217I-30000J0D01*
G01*
X53675000Y7297217D02*
G75*
G02*
X53735000Y7297217I30000J0D01*
G01*
X53735000Y7267217D02*
X53735000Y7327217D01*
X53675000Y7327217D02*
G75*
G02*
X53735000Y7327217I30000J0D01*
G01*
X53675000Y7327217D02*
X53675000Y7267217D01*
X53675000Y7267217D02*
G75*
G03*
X53735000Y7267217I30000J0D01*
G01*
X53735000Y6879217D02*
G75*
G02*
X53675000Y6879217I-30000J0D01*
G01*
X53675000Y6879217D02*
G75*
G02*
X53735000Y6879217I30000J0D01*
G01*
X53735000Y6824217D02*
X53735000Y6934217D01*
X53675000Y6934217D02*
G75*
G02*
X53735000Y6934217I30000J0D01*
G01*
X53675000Y6934217D02*
X53675000Y6824217D01*
X53675000Y6824217D02*
G75*
G03*
X53735000Y6824217I30000J0D01*
G01*
X53735000Y6297222D02*
G75*
G02*
X53675000Y6297222I-30000J0D01*
G01*
X53675000Y6297222D02*
G75*
G02*
X53735000Y6297222I30000J0D01*
G01*
X53735000Y6267222D02*
X53735000Y6327222D01*
X53675000Y6327222D02*
G75*
G02*
X53735000Y6327222I30000J0D01*
G01*
X53675000Y6327222D02*
X53675000Y6267222D01*
X53675000Y6267222D02*
G75*
G03*
X53735000Y6267222I30000J0D01*
G01*
X53735000Y5879222D02*
G75*
G02*
X53675000Y5879222I-30000J0D01*
G01*
X53675000Y5879222D02*
G75*
G02*
X53735000Y5879222I30000J0D01*
G01*
X53735000Y5824222D02*
X53735000Y5934222D01*
X53675000Y5934222D02*
G75*
G02*
X53735000Y5934222I30000J0D01*
G01*
X53675000Y5934222D02*
X53675000Y5824222D01*
X53675000Y5824222D02*
G75*
G03*
X53735000Y5824222I30000J0D01*
G01*
X53735000Y5297226D02*
G75*
G02*
X53675000Y5297226I-30000J0D01*
G01*
X53675000Y5297226D02*
G75*
G02*
X53735000Y5297226I30000J0D01*
G01*
X53735000Y5267226D02*
X53735000Y5327226D01*
X53675000Y5327226D02*
G75*
G02*
X53735000Y5327226I30000J0D01*
G01*
X53675000Y5327226D02*
X53675000Y5267226D01*
X53675000Y5267226D02*
G75*
G03*
X53735000Y5267226I30000J0D01*
G01*
X53735000Y4879226D02*
G75*
G02*
X53675000Y4879226I-30000J0D01*
G01*
X53675000Y4879226D02*
G75*
G02*
X53735000Y4879226I30000J0D01*
G01*
X53735000Y4824226D02*
X53735000Y4934226D01*
X53675000Y4934226D02*
G75*
G02*
X53735000Y4934226I30000J0D01*
G01*
X53675000Y4934226D02*
X53675000Y4824226D01*
X53675000Y4824226D02*
G75*
G03*
X53735000Y4824226I30000J0D01*
G01*
X53735000Y4297230D02*
G75*
G02*
X53675000Y4297230I-30000J0D01*
G01*
X53675000Y4297230D02*
G75*
G02*
X53735000Y4297230I30000J0D01*
G01*
X53735000Y4267230D02*
X53735000Y4327230D01*
X53675000Y4327230D02*
G75*
G02*
X53735000Y4327230I30000J0D01*
G01*
X53675000Y4327230D02*
X53675000Y4267230D01*
X53675000Y4267230D02*
G75*
G03*
X53735000Y4267230I30000J0D01*
G01*
X53735000Y3879230D02*
G75*
G02*
X53675000Y3879230I-30000J0D01*
G01*
X53675000Y3879230D02*
G75*
G02*
X53735000Y3879230I30000J0D01*
G01*
X53735000Y3824230D02*
X53735000Y3934230D01*
X53675000Y3934230D02*
G75*
G02*
X53735000Y3934230I30000J0D01*
G01*
X53675000Y3934230D02*
X53675000Y3824230D01*
X53675000Y3824230D02*
G75*
G03*
X53735000Y3824230I30000J0D01*
G01*
X53735000Y3297230D02*
G75*
G02*
X53675000Y3297230I-30000J0D01*
G01*
X53675000Y3297230D02*
G75*
G02*
X53735000Y3297230I30000J0D01*
G01*
X53735000Y3267230D02*
X53735000Y3327230D01*
X53675000Y3327230D02*
G75*
G02*
X53735000Y3327230I30000J0D01*
G01*
X53675000Y3327230D02*
X53675000Y3267230D01*
X53675000Y3267230D02*
G75*
G03*
X53735000Y3267230I30000J0D01*
G01*
X53735000Y2879230D02*
G75*
G02*
X53675000Y2879230I-30000J0D01*
G01*
X53675000Y2879230D02*
G75*
G02*
X53735000Y2879230I30000J0D01*
G01*
X53735000Y2824230D02*
X53735000Y2934230D01*
X53675000Y2934230D02*
G75*
G02*
X53735000Y2934230I30000J0D01*
G01*
X53675000Y2934230D02*
X53675000Y2824230D01*
X53675000Y2824230D02*
G75*
G03*
X53735000Y2824230I30000J0D01*
G01*
X53735000Y2297230D02*
G75*
G02*
X53675000Y2297230I-30000J0D01*
G01*
X53675000Y2297230D02*
G75*
G02*
X53735000Y2297230I30000J0D01*
G01*
X53735000Y2267230D02*
X53735000Y2327230D01*
X53675000Y2327230D02*
G75*
G02*
X53735000Y2327230I30000J0D01*
G01*
X53675000Y2327230D02*
X53675000Y2267230D01*
X53675000Y2267230D02*
G75*
G03*
X53735000Y2267230I30000J0D01*
G01*
X53735000Y1879230D02*
G75*
G02*
X53675000Y1879230I-30000J0D01*
G01*
X53675000Y1879230D02*
G75*
G02*
X53735000Y1879230I30000J0D01*
G01*
X53735000Y1824230D02*
X53735000Y1934230D01*
X53675000Y1934230D02*
G75*
G02*
X53735000Y1934230I30000J0D01*
G01*
X53675000Y1934230D02*
X53675000Y1824230D01*
X53675000Y1824230D02*
G75*
G03*
X53735000Y1824230I30000J0D01*
G01*
X53735000Y1297235D02*
G75*
G02*
X53675000Y1297235I-30000J0D01*
G01*
X53675000Y1297235D02*
G75*
G02*
X53735000Y1297235I30000J0D01*
G01*
X53735000Y1267235D02*
X53735000Y1327235D01*
X53675000Y1327235D02*
G75*
G02*
X53735000Y1327235I30000J0D01*
G01*
X53675000Y1327235D02*
X53675000Y1267235D01*
X53675000Y1267235D02*
G75*
G03*
X53735000Y1267235I30000J0D01*
G01*
X53735000Y879235D02*
G75*
G02*
X53675000Y879235I-30000J0D01*
G01*
X53675000Y879235D02*
G75*
G02*
X53735000Y879235I30000J0D01*
G01*
X53735000Y824235D02*
X53735000Y934235D01*
X53675000Y934235D02*
G75*
G02*
X53735000Y934235I30000J0D01*
G01*
X53675000Y934235D02*
X53675000Y824235D01*
X53675000Y824235D02*
G75*
G03*
X53735000Y824235I30000J0D01*
G01*
X53735000Y297239D02*
G75*
G02*
X53675000Y297239I-30000J0D01*
G01*
X53675000Y297239D02*
G75*
G02*
X53735000Y297239I30000J0D01*
G01*
X53735000Y267239D02*
X53735000Y327239D01*
X53675000Y327239D02*
G75*
G02*
X53735000Y327239I30000J0D01*
G01*
X53675000Y327239D02*
X53675000Y267239D01*
X53675000Y267239D02*
G75*
G03*
X53735000Y267239I30000J0D01*
G01*
X53735000Y-120761D02*
G75*
G02*
X53675000Y-120761I-30000J0D01*
G01*
X53675000Y-120761D02*
G75*
G02*
X53735000Y-120761I30000J0D01*
G01*
X53735000Y-175761D02*
X53735000Y-65761D01*
X53675000Y-65761D02*
G75*
G02*
X53735000Y-65761I30000J0D01*
G01*
X53675000Y-65761D02*
X53675000Y-175761D01*
X53675000Y-175761D02*
G75*
G03*
X53735000Y-175761I30000J0D01*
G01*
X53735000Y-702757D02*
G75*
G02*
X53675000Y-702757I-30000J0D01*
G01*
X53675000Y-702757D02*
G75*
G02*
X53735000Y-702757I30000J0D01*
G01*
X53735000Y-732757D02*
X53735000Y-672757D01*
X53675000Y-672757D02*
G75*
G02*
X53735000Y-672757I30000J0D01*
G01*
X53675000Y-672757D02*
X53675000Y-732757D01*
X53675000Y-732757D02*
G75*
G03*
X53735000Y-732757I30000J0D01*
G01*
X53735000Y-1120757D02*
G75*
G02*
X53675000Y-1120757I-30000J0D01*
G01*
X53675000Y-1120757D02*
G75*
G02*
X53735000Y-1120757I30000J0D01*
G01*
X53735000Y-1175757D02*
X53735000Y-1065757D01*
X53675000Y-1065757D02*
G75*
G02*
X53735000Y-1065757I30000J0D01*
G01*
X53675000Y-1065757D02*
X53675000Y-1175757D01*
X53675000Y-1175757D02*
G75*
G03*
X53735000Y-1175757I30000J0D01*
G01*
X53735000Y-1702752D02*
G75*
G02*
X53675000Y-1702752I-30000J0D01*
G01*
X53675000Y-1702752D02*
G75*
G02*
X53735000Y-1702752I30000J0D01*
G01*
X53735000Y-1732752D02*
X53735000Y-1672752D01*
X53675000Y-1672752D02*
G75*
G02*
X53735000Y-1672752I30000J0D01*
G01*
X53675000Y-1672752D02*
X53675000Y-1732752D01*
X53675000Y-1732752D02*
G75*
G03*
X53735000Y-1732752I30000J0D01*
G01*
X53735000Y-2120752D02*
G75*
G02*
X53675000Y-2120752I-30000J0D01*
G01*
X53675000Y-2120752D02*
G75*
G02*
X53735000Y-2120752I30000J0D01*
G01*
X53735000Y-2175752D02*
X53735000Y-2065752D01*
X53675000Y-2065752D02*
G75*
G02*
X53735000Y-2065752I30000J0D01*
G01*
X53675000Y-2065752D02*
X53675000Y-2175752D01*
X53675000Y-2175752D02*
G75*
G03*
X53735000Y-2175752I30000J0D01*
G01*
X53735000Y-2702748D02*
G75*
G02*
X53675000Y-2702748I-30000J0D01*
G01*
X53675000Y-2702748D02*
G75*
G02*
X53735000Y-2702748I30000J0D01*
G01*
X53735000Y-2732748D02*
X53735000Y-2672748D01*
X53675000Y-2672748D02*
G75*
G02*
X53735000Y-2672748I30000J0D01*
G01*
X53675000Y-2672748D02*
X53675000Y-2732748D01*
X53675000Y-2732748D02*
G75*
G03*
X53735000Y-2732748I30000J0D01*
G01*
X53735000Y-3120748D02*
G75*
G02*
X53675000Y-3120748I-30000J0D01*
G01*
X53675000Y-3120748D02*
G75*
G02*
X53735000Y-3120748I30000J0D01*
G01*
X53735000Y-3175748D02*
X53735000Y-3065748D01*
X53675000Y-3065748D02*
G75*
G02*
X53735000Y-3065748I30000J0D01*
G01*
X53675000Y-3065748D02*
X53675000Y-3175748D01*
X53675000Y-3175748D02*
G75*
G03*
X53735000Y-3175748I30000J0D01*
G01*
X53735000Y-3702744D02*
G75*
G02*
X53675000Y-3702744I-30000J0D01*
G01*
X53675000Y-3702744D02*
G75*
G02*
X53735000Y-3702744I30000J0D01*
G01*
X53735000Y-3732744D02*
X53735000Y-3672744D01*
X53675000Y-3672744D02*
G75*
G02*
X53735000Y-3672744I30000J0D01*
G01*
X53675000Y-3672744D02*
X53675000Y-3732744D01*
X53675000Y-3732744D02*
G75*
G03*
X53735000Y-3732744I30000J0D01*
G01*
X53735000Y-4120744D02*
G75*
G02*
X53675000Y-4120744I-30000J0D01*
G01*
X53675000Y-4120744D02*
G75*
G02*
X53735000Y-4120744I30000J0D01*
G01*
X53735000Y-4175744D02*
X53735000Y-4065744D01*
X53675000Y-4065744D02*
G75*
G02*
X53735000Y-4065744I30000J0D01*
G01*
X53675000Y-4065744D02*
X53675000Y-4175744D01*
X53675000Y-4175744D02*
G75*
G03*
X53735000Y-4175744I30000J0D01*
G01*
X53735000Y-4702740D02*
G75*
G02*
X53675000Y-4702740I-30000J0D01*
G01*
X53675000Y-4702740D02*
G75*
G02*
X53735000Y-4702740I30000J0D01*
G01*
X53735000Y-4732740D02*
X53735000Y-4672740D01*
X53675000Y-4672740D02*
G75*
G02*
X53735000Y-4672740I30000J0D01*
G01*
X53675000Y-4672740D02*
X53675000Y-4732740D01*
X53675000Y-4732740D02*
G75*
G03*
X53735000Y-4732740I30000J0D01*
G01*
X53735000Y-5120740D02*
G75*
G02*
X53675000Y-5120740I-30000J0D01*
G01*
X53675000Y-5120740D02*
G75*
G02*
X53735000Y-5120740I30000J0D01*
G01*
X53735000Y-5175740D02*
X53735000Y-5065740D01*
X53675000Y-5065740D02*
G75*
G02*
X53735000Y-5065740I30000J0D01*
G01*
X53675000Y-5065740D02*
X53675000Y-5175740D01*
X53675000Y-5175740D02*
G75*
G03*
X53735000Y-5175740I30000J0D01*
G01*
X54599000Y12297200D02*
G75*
G02*
X54539000Y12297200I-30000J0D01*
G01*
X54539000Y12297200D02*
G75*
G02*
X54599000Y12297200I30000J0D01*
G01*
X54599000Y12267200D02*
X54599000Y12327200D01*
X54539000Y12327200D02*
G75*
G02*
X54599000Y12327200I30000J0D01*
G01*
X54539000Y12327200D02*
X54539000Y12267200D01*
X54539000Y12267200D02*
G75*
G03*
X54599000Y12267200I30000J0D01*
G01*
X54599000Y11879200D02*
G75*
G02*
X54539000Y11879200I-30000J0D01*
G01*
X54539000Y11879200D02*
G75*
G02*
X54599000Y11879200I30000J0D01*
G01*
X54599000Y11824200D02*
X54599000Y11934200D01*
X54539000Y11934200D02*
G75*
G02*
X54599000Y11934200I30000J0D01*
G01*
X54539000Y11934200D02*
X54539000Y11824200D01*
X54539000Y11824200D02*
G75*
G03*
X54599000Y11824200I30000J0D01*
G01*
X54599000Y11297200D02*
G75*
G02*
X54539000Y11297200I-30000J0D01*
G01*
X54539000Y11297200D02*
G75*
G02*
X54599000Y11297200I30000J0D01*
G01*
X54599000Y11267200D02*
X54599000Y11327200D01*
X54539000Y11327200D02*
G75*
G02*
X54599000Y11327200I30000J0D01*
G01*
X54539000Y11327200D02*
X54539000Y11267200D01*
X54539000Y11267200D02*
G75*
G03*
X54599000Y11267200I30000J0D01*
G01*
X54599000Y10879200D02*
G75*
G02*
X54539000Y10879200I-30000J0D01*
G01*
X54539000Y10879200D02*
G75*
G02*
X54599000Y10879200I30000J0D01*
G01*
X54599000Y10824200D02*
X54599000Y10934200D01*
X54539000Y10934200D02*
G75*
G02*
X54599000Y10934200I30000J0D01*
G01*
X54539000Y10934200D02*
X54539000Y10824200D01*
X54539000Y10824200D02*
G75*
G03*
X54599000Y10824200I30000J0D01*
G01*
X54599000Y10297205D02*
G75*
G02*
X54539000Y10297205I-30000J0D01*
G01*
X54539000Y10297205D02*
G75*
G02*
X54599000Y10297205I30000J0D01*
G01*
X54599000Y10267205D02*
X54599000Y10327205D01*
X54539000Y10327205D02*
G75*
G02*
X54599000Y10327205I30000J0D01*
G01*
X54539000Y10327205D02*
X54539000Y10267205D01*
X54539000Y10267205D02*
G75*
G03*
X54599000Y10267205I30000J0D01*
G01*
X54599000Y9879205D02*
G75*
G02*
X54539000Y9879205I-30000J0D01*
G01*
X54539000Y9879205D02*
G75*
G02*
X54599000Y9879205I30000J0D01*
G01*
X54599000Y9824205D02*
X54599000Y9934205D01*
X54539000Y9934205D02*
G75*
G02*
X54599000Y9934205I30000J0D01*
G01*
X54539000Y9934205D02*
X54539000Y9824205D01*
X54539000Y9824205D02*
G75*
G03*
X54599000Y9824205I30000J0D01*
G01*
X54599000Y9297209D02*
G75*
G02*
X54539000Y9297209I-30000J0D01*
G01*
X54539000Y9297209D02*
G75*
G02*
X54599000Y9297209I30000J0D01*
G01*
X54599000Y9267209D02*
X54599000Y9327209D01*
X54539000Y9327209D02*
G75*
G02*
X54599000Y9327209I30000J0D01*
G01*
X54539000Y9327209D02*
X54539000Y9267209D01*
X54539000Y9267209D02*
G75*
G03*
X54599000Y9267209I30000J0D01*
G01*
X54599000Y8879209D02*
G75*
G02*
X54539000Y8879209I-30000J0D01*
G01*
X54539000Y8879209D02*
G75*
G02*
X54599000Y8879209I30000J0D01*
G01*
X54599000Y8824209D02*
X54599000Y8934209D01*
X54539000Y8934209D02*
G75*
G02*
X54599000Y8934209I30000J0D01*
G01*
X54539000Y8934209D02*
X54539000Y8824209D01*
X54539000Y8824209D02*
G75*
G03*
X54599000Y8824209I30000J0D01*
G01*
X54599000Y8297213D02*
G75*
G02*
X54539000Y8297213I-30000J0D01*
G01*
X54539000Y8297213D02*
G75*
G02*
X54599000Y8297213I30000J0D01*
G01*
X54599000Y8267213D02*
X54599000Y8327213D01*
X54539000Y8327213D02*
G75*
G02*
X54599000Y8327213I30000J0D01*
G01*
X54539000Y8327213D02*
X54539000Y8267213D01*
X54539000Y8267213D02*
G75*
G03*
X54599000Y8267213I30000J0D01*
G01*
X54599000Y7879213D02*
G75*
G02*
X54539000Y7879213I-30000J0D01*
G01*
X54539000Y7879213D02*
G75*
G02*
X54599000Y7879213I30000J0D01*
G01*
X54599000Y7824213D02*
X54599000Y7934213D01*
X54539000Y7934213D02*
G75*
G02*
X54599000Y7934213I30000J0D01*
G01*
X54539000Y7934213D02*
X54539000Y7824213D01*
X54539000Y7824213D02*
G75*
G03*
X54599000Y7824213I30000J0D01*
G01*
X54599000Y7297217D02*
G75*
G02*
X54539000Y7297217I-30000J0D01*
G01*
X54539000Y7297217D02*
G75*
G02*
X54599000Y7297217I30000J0D01*
G01*
X54599000Y7267217D02*
X54599000Y7327217D01*
X54539000Y7327217D02*
G75*
G02*
X54599000Y7327217I30000J0D01*
G01*
X54539000Y7327217D02*
X54539000Y7267217D01*
X54539000Y7267217D02*
G75*
G03*
X54599000Y7267217I30000J0D01*
G01*
X54599000Y6879217D02*
G75*
G02*
X54539000Y6879217I-30000J0D01*
G01*
X54539000Y6879217D02*
G75*
G02*
X54599000Y6879217I30000J0D01*
G01*
X54599000Y6824217D02*
X54599000Y6934217D01*
X54539000Y6934217D02*
G75*
G02*
X54599000Y6934217I30000J0D01*
G01*
X54539000Y6934217D02*
X54539000Y6824217D01*
X54539000Y6824217D02*
G75*
G03*
X54599000Y6824217I30000J0D01*
G01*
X54599000Y6297222D02*
G75*
G02*
X54539000Y6297222I-30000J0D01*
G01*
X54539000Y6297222D02*
G75*
G02*
X54599000Y6297222I30000J0D01*
G01*
X54599000Y6267222D02*
X54599000Y6327222D01*
X54539000Y6327222D02*
G75*
G02*
X54599000Y6327222I30000J0D01*
G01*
X54539000Y6327222D02*
X54539000Y6267222D01*
X54539000Y6267222D02*
G75*
G03*
X54599000Y6267222I30000J0D01*
G01*
X54599000Y5879222D02*
G75*
G02*
X54539000Y5879222I-30000J0D01*
G01*
X54539000Y5879222D02*
G75*
G02*
X54599000Y5879222I30000J0D01*
G01*
X54599000Y5824222D02*
X54599000Y5934222D01*
X54539000Y5934222D02*
G75*
G02*
X54599000Y5934222I30000J0D01*
G01*
X54539000Y5934222D02*
X54539000Y5824222D01*
X54539000Y5824222D02*
G75*
G03*
X54599000Y5824222I30000J0D01*
G01*
X54599000Y5297226D02*
G75*
G02*
X54539000Y5297226I-30000J0D01*
G01*
X54539000Y5297226D02*
G75*
G02*
X54599000Y5297226I30000J0D01*
G01*
X54599000Y5267226D02*
X54599000Y5327226D01*
X54539000Y5327226D02*
G75*
G02*
X54599000Y5327226I30000J0D01*
G01*
X54539000Y5327226D02*
X54539000Y5267226D01*
X54539000Y5267226D02*
G75*
G03*
X54599000Y5267226I30000J0D01*
G01*
X54599000Y4879226D02*
G75*
G02*
X54539000Y4879226I-30000J0D01*
G01*
X54539000Y4879226D02*
G75*
G02*
X54599000Y4879226I30000J0D01*
G01*
X54599000Y4824226D02*
X54599000Y4934226D01*
X54539000Y4934226D02*
G75*
G02*
X54599000Y4934226I30000J0D01*
G01*
X54539000Y4934226D02*
X54539000Y4824226D01*
X54539000Y4824226D02*
G75*
G03*
X54599000Y4824226I30000J0D01*
G01*
X54599000Y4297230D02*
G75*
G02*
X54539000Y4297230I-30000J0D01*
G01*
X54539000Y4297230D02*
G75*
G02*
X54599000Y4297230I30000J0D01*
G01*
X54599000Y4267230D02*
X54599000Y4327230D01*
X54539000Y4327230D02*
G75*
G02*
X54599000Y4327230I30000J0D01*
G01*
X54539000Y4327230D02*
X54539000Y4267230D01*
X54539000Y4267230D02*
G75*
G03*
X54599000Y4267230I30000J0D01*
G01*
X54599000Y3879230D02*
G75*
G02*
X54539000Y3879230I-30000J0D01*
G01*
X54539000Y3879230D02*
G75*
G02*
X54599000Y3879230I30000J0D01*
G01*
X54599000Y3824230D02*
X54599000Y3934230D01*
X54539000Y3934230D02*
G75*
G02*
X54599000Y3934230I30000J0D01*
G01*
X54539000Y3934230D02*
X54539000Y3824230D01*
X54539000Y3824230D02*
G75*
G03*
X54599000Y3824230I30000J0D01*
G01*
X54599000Y3297230D02*
G75*
G02*
X54539000Y3297230I-30000J0D01*
G01*
X54539000Y3297230D02*
G75*
G02*
X54599000Y3297230I30000J0D01*
G01*
X54599000Y3267230D02*
X54599000Y3327230D01*
X54539000Y3327230D02*
G75*
G02*
X54599000Y3327230I30000J0D01*
G01*
X54539000Y3327230D02*
X54539000Y3267230D01*
X54539000Y3267230D02*
G75*
G03*
X54599000Y3267230I30000J0D01*
G01*
X54599000Y2879230D02*
G75*
G02*
X54539000Y2879230I-30000J0D01*
G01*
X54539000Y2879230D02*
G75*
G02*
X54599000Y2879230I30000J0D01*
G01*
X54599000Y2824230D02*
X54599000Y2934230D01*
X54539000Y2934230D02*
G75*
G02*
X54599000Y2934230I30000J0D01*
G01*
X54539000Y2934230D02*
X54539000Y2824230D01*
X54539000Y2824230D02*
G75*
G03*
X54599000Y2824230I30000J0D01*
G01*
X54599000Y2297230D02*
G75*
G02*
X54539000Y2297230I-30000J0D01*
G01*
X54539000Y2297230D02*
G75*
G02*
X54599000Y2297230I30000J0D01*
G01*
X54599000Y2267230D02*
X54599000Y2327230D01*
X54539000Y2327230D02*
G75*
G02*
X54599000Y2327230I30000J0D01*
G01*
X54539000Y2327230D02*
X54539000Y2267230D01*
X54539000Y2267230D02*
G75*
G03*
X54599000Y2267230I30000J0D01*
G01*
X54599000Y1879230D02*
G75*
G02*
X54539000Y1879230I-30000J0D01*
G01*
X54539000Y1879230D02*
G75*
G02*
X54599000Y1879230I30000J0D01*
G01*
X54599000Y1824230D02*
X54599000Y1934230D01*
X54539000Y1934230D02*
G75*
G02*
X54599000Y1934230I30000J0D01*
G01*
X54539000Y1934230D02*
X54539000Y1824230D01*
X54539000Y1824230D02*
G75*
G03*
X54599000Y1824230I30000J0D01*
G01*
X54599000Y1297235D02*
G75*
G02*
X54539000Y1297235I-30000J0D01*
G01*
X54539000Y1297235D02*
G75*
G02*
X54599000Y1297235I30000J0D01*
G01*
X54599000Y1267235D02*
X54599000Y1327235D01*
X54539000Y1327235D02*
G75*
G02*
X54599000Y1327235I30000J0D01*
G01*
X54539000Y1327235D02*
X54539000Y1267235D01*
X54539000Y1267235D02*
G75*
G03*
X54599000Y1267235I30000J0D01*
G01*
X54599000Y879235D02*
G75*
G02*
X54539000Y879235I-30000J0D01*
G01*
X54539000Y879235D02*
G75*
G02*
X54599000Y879235I30000J0D01*
G01*
X54599000Y824235D02*
X54599000Y934235D01*
X54539000Y934235D02*
G75*
G02*
X54599000Y934235I30000J0D01*
G01*
X54539000Y934235D02*
X54539000Y824235D01*
X54539000Y824235D02*
G75*
G03*
X54599000Y824235I30000J0D01*
G01*
X54599000Y297239D02*
G75*
G02*
X54539000Y297239I-30000J0D01*
G01*
X54539000Y297239D02*
G75*
G02*
X54599000Y297239I30000J0D01*
G01*
X54599000Y267239D02*
X54599000Y327239D01*
X54539000Y327239D02*
G75*
G02*
X54599000Y327239I30000J0D01*
G01*
X54539000Y327239D02*
X54539000Y267239D01*
X54539000Y267239D02*
G75*
G03*
X54599000Y267239I30000J0D01*
G01*
X54599000Y-120761D02*
G75*
G02*
X54539000Y-120761I-30000J0D01*
G01*
X54539000Y-120761D02*
G75*
G02*
X54599000Y-120761I30000J0D01*
G01*
X54599000Y-175761D02*
X54599000Y-65761D01*
X54539000Y-65761D02*
G75*
G02*
X54599000Y-65761I30000J0D01*
G01*
X54539000Y-65761D02*
X54539000Y-175761D01*
X54539000Y-175761D02*
G75*
G03*
X54599000Y-175761I30000J0D01*
G01*
X54599000Y-702757D02*
G75*
G02*
X54539000Y-702757I-30000J0D01*
G01*
X54539000Y-702757D02*
G75*
G02*
X54599000Y-702757I30000J0D01*
G01*
X54599000Y-732757D02*
X54599000Y-672757D01*
X54539000Y-672757D02*
G75*
G02*
X54599000Y-672757I30000J0D01*
G01*
X54539000Y-672757D02*
X54539000Y-732757D01*
X54539000Y-732757D02*
G75*
G03*
X54599000Y-732757I30000J0D01*
G01*
X54599000Y-1120757D02*
G75*
G02*
X54539000Y-1120757I-30000J0D01*
G01*
X54539000Y-1120757D02*
G75*
G02*
X54599000Y-1120757I30000J0D01*
G01*
X54599000Y-1175757D02*
X54599000Y-1065757D01*
X54539000Y-1065757D02*
G75*
G02*
X54599000Y-1065757I30000J0D01*
G01*
X54539000Y-1065757D02*
X54539000Y-1175757D01*
X54539000Y-1175757D02*
G75*
G03*
X54599000Y-1175757I30000J0D01*
G01*
X54599000Y-1702752D02*
G75*
G02*
X54539000Y-1702752I-30000J0D01*
G01*
X54539000Y-1702752D02*
G75*
G02*
X54599000Y-1702752I30000J0D01*
G01*
X54599000Y-1732752D02*
X54599000Y-1672752D01*
X54539000Y-1672752D02*
G75*
G02*
X54599000Y-1672752I30000J0D01*
G01*
X54539000Y-1672752D02*
X54539000Y-1732752D01*
X54539000Y-1732752D02*
G75*
G03*
X54599000Y-1732752I30000J0D01*
G01*
X54599000Y-2120752D02*
G75*
G02*
X54539000Y-2120752I-30000J0D01*
G01*
X54539000Y-2120752D02*
G75*
G02*
X54599000Y-2120752I30000J0D01*
G01*
X54599000Y-2175752D02*
X54599000Y-2065752D01*
X54539000Y-2065752D02*
G75*
G02*
X54599000Y-2065752I30000J0D01*
G01*
X54539000Y-2065752D02*
X54539000Y-2175752D01*
X54539000Y-2175752D02*
G75*
G03*
X54599000Y-2175752I30000J0D01*
G01*
X54599000Y-2702748D02*
G75*
G02*
X54539000Y-2702748I-30000J0D01*
G01*
X54539000Y-2702748D02*
G75*
G02*
X54599000Y-2702748I30000J0D01*
G01*
X54599000Y-2732748D02*
X54599000Y-2672748D01*
X54539000Y-2672748D02*
G75*
G02*
X54599000Y-2672748I30000J0D01*
G01*
X54539000Y-2672748D02*
X54539000Y-2732748D01*
X54539000Y-2732748D02*
G75*
G03*
X54599000Y-2732748I30000J0D01*
G01*
X54599000Y-3120748D02*
G75*
G02*
X54539000Y-3120748I-30000J0D01*
G01*
X54539000Y-3120748D02*
G75*
G02*
X54599000Y-3120748I30000J0D01*
G01*
X54599000Y-3175748D02*
X54599000Y-3065748D01*
X54539000Y-3065748D02*
G75*
G02*
X54599000Y-3065748I30000J0D01*
G01*
X54539000Y-3065748D02*
X54539000Y-3175748D01*
X54539000Y-3175748D02*
G75*
G03*
X54599000Y-3175748I30000J0D01*
G01*
X54599000Y-3702744D02*
G75*
G02*
X54539000Y-3702744I-30000J0D01*
G01*
X54539000Y-3702744D02*
G75*
G02*
X54599000Y-3702744I30000J0D01*
G01*
X54599000Y-3732744D02*
X54599000Y-3672744D01*
X54539000Y-3672744D02*
G75*
G02*
X54599000Y-3672744I30000J0D01*
G01*
X54539000Y-3672744D02*
X54539000Y-3732744D01*
X54539000Y-3732744D02*
G75*
G03*
X54599000Y-3732744I30000J0D01*
G01*
X54599000Y-4120744D02*
G75*
G02*
X54539000Y-4120744I-30000J0D01*
G01*
X54539000Y-4120744D02*
G75*
G02*
X54599000Y-4120744I30000J0D01*
G01*
X54599000Y-4175744D02*
X54599000Y-4065744D01*
X54539000Y-4065744D02*
G75*
G02*
X54599000Y-4065744I30000J0D01*
G01*
X54539000Y-4065744D02*
X54539000Y-4175744D01*
X54539000Y-4175744D02*
G75*
G03*
X54599000Y-4175744I30000J0D01*
G01*
X54599000Y-4702740D02*
G75*
G02*
X54539000Y-4702740I-30000J0D01*
G01*
X54539000Y-4702740D02*
G75*
G02*
X54599000Y-4702740I30000J0D01*
G01*
X54599000Y-4732740D02*
X54599000Y-4672740D01*
X54539000Y-4672740D02*
G75*
G02*
X54599000Y-4672740I30000J0D01*
G01*
X54539000Y-4672740D02*
X54539000Y-4732740D01*
X54539000Y-4732740D02*
G75*
G03*
X54599000Y-4732740I30000J0D01*
G01*
X54599000Y-5120740D02*
G75*
G02*
X54539000Y-5120740I-30000J0D01*
G01*
X54539000Y-5120740D02*
G75*
G02*
X54599000Y-5120740I30000J0D01*
G01*
X54599000Y-5175740D02*
X54599000Y-5065740D01*
X54539000Y-5065740D02*
G75*
G02*
X54599000Y-5065740I30000J0D01*
G01*
X54539000Y-5065740D02*
X54539000Y-5175740D01*
X54539000Y-5175740D02*
G75*
G03*
X54599000Y-5175740I30000J0D01*
G01*
D14*
X53187002Y12237004D02*
X53187002Y12017004D01*
X53077002Y12127004D02*
X53297002Y12127004D01*
X53187002Y11237004D02*
X53187002Y11017004D01*
X53077002Y11127004D02*
X53297002Y11127004D01*
X53187002Y10237009D02*
X53187002Y10017009D01*
X53077002Y10127009D02*
X53297002Y10127009D01*
X53187002Y9237013D02*
X53187002Y9017013D01*
X53077002Y9127013D02*
X53297002Y9127013D01*
X53187002Y8237017D02*
X53187002Y8017017D01*
X53077002Y8127017D02*
X53297002Y8127017D01*
X53187002Y7237021D02*
X53187002Y7017021D01*
X53077002Y7127021D02*
X53297002Y7127021D01*
X53187002Y6237026D02*
X53187002Y6017026D01*
X53077002Y6127026D02*
X53297002Y6127026D01*
X53187002Y5237030D02*
X53187002Y5017030D01*
X53077002Y5127030D02*
X53297002Y5127030D01*
X53187002Y4237034D02*
X53187002Y4017034D01*
X53077002Y4127034D02*
X53297002Y4127034D01*
X53187002Y3237034D02*
X53187002Y3017034D01*
X53077002Y3127034D02*
X53297002Y3127034D01*
X53187002Y2237034D02*
X53187002Y2017034D01*
X53077002Y2127034D02*
X53297002Y2127034D01*
X53187002Y1237039D02*
X53187002Y1017039D01*
X53077002Y1127039D02*
X53297002Y1127039D01*
X53187002Y237043D02*
X53187002Y17043D01*
X53077002Y127043D02*
X53297002Y127043D01*
X53187002Y-762953D02*
X53187002Y-982953D01*
X53077002Y-872953D02*
X53297002Y-872953D01*
X53187002Y-1762948D02*
X53187002Y-1982948D01*
X53077002Y-1872948D02*
X53297002Y-1872948D01*
X53187002Y-2762944D02*
X53187002Y-2982944D01*
X53077002Y-2872944D02*
X53297002Y-2872944D01*
X53187002Y-3762940D02*
X53187002Y-3982940D01*
X53077002Y-3872940D02*
X53297002Y-3872940D01*
X53187002Y-4762936D02*
X53187002Y-4982936D01*
X53077002Y-4872936D02*
X53297002Y-4872936D01*
X55087000Y12237000D02*
X55087000Y12017000D01*
X54977000Y12127000D02*
X55197000Y12127000D01*
X55087000Y11237000D02*
X55087000Y11017000D01*
X54977000Y11127000D02*
X55197000Y11127000D01*
X55087000Y10237004D02*
X55087000Y10017004D01*
X54977000Y10127004D02*
X55197000Y10127004D01*
X55087000Y9237008D02*
X55087000Y9017008D01*
X54977000Y9127008D02*
X55197000Y9127008D01*
X55087000Y8237013D02*
X55087000Y8017013D01*
X54977000Y8127013D02*
X55197000Y8127013D01*
X55087000Y7237017D02*
X55087000Y7017017D01*
X54977000Y7127017D02*
X55197000Y7127017D01*
X55087000Y6237021D02*
X55087000Y6017021D01*
X54977000Y6127021D02*
X55197000Y6127021D01*
X55087000Y5237026D02*
X55087000Y5017026D01*
X54977000Y5127026D02*
X55197000Y5127026D01*
X55087000Y4237030D02*
X55087000Y4017030D01*
X54977000Y4127030D02*
X55197000Y4127030D01*
X55087000Y3237030D02*
X55087000Y3017030D01*
X54977000Y3127030D02*
X55197000Y3127030D01*
X55087000Y2237030D02*
X55087000Y2017030D01*
X54977000Y2127030D02*
X55197000Y2127030D01*
X55087000Y1237034D02*
X55087000Y1017034D01*
X54977000Y1127034D02*
X55197000Y1127034D01*
X55087000Y237038D02*
X55087000Y17039D01*
X54977000Y127038D02*
X55197000Y127038D01*
X55087000Y-762957D02*
X55087000Y-982957D01*
X54977000Y-872957D02*
X55197000Y-872957D01*
X55087000Y-1762953D02*
X55087000Y-1982953D01*
X54977000Y-1872953D02*
X55197000Y-1872953D01*
X55087000Y-2762949D02*
X55087000Y-2982949D01*
X54977000Y-2872949D02*
X55197000Y-2872949D01*
X55087000Y-3762944D02*
X55087000Y-3982944D01*
X54977000Y-3872944D02*
X55197000Y-3872944D01*
X55087000Y-4762940D02*
X55087000Y-4982940D01*
X54977000Y-4872940D02*
X55197000Y-4872940D01*
D12*
X53224177Y-5594424D02*
X53224177Y-5394424D01*
X53224177Y-5394424D02*
X53271796Y-5394424D01*
X53271796Y-5394424D02*
X53300367Y-5403948D01*
X53300367Y-5403948D02*
X53319415Y-5422995D01*
X53319415Y-5422995D02*
X53328939Y-5442043D01*
X53328939Y-5442043D02*
X53338462Y-5480138D01*
X53338462Y-5480138D02*
X53338462Y-5508710D01*
X53338462Y-5508710D02*
X53328939Y-5546805D01*
X53328939Y-5546805D02*
X53319415Y-5565853D01*
X53319415Y-5565853D02*
X53300367Y-5584900D01*
X53300367Y-5584900D02*
X53271796Y-5594424D01*
X53271796Y-5594424D02*
X53224177Y-5594424D01*
X53424177Y-5594424D02*
X53424177Y-5461091D01*
X53424177Y-5499186D02*
X53433701Y-5480138D01*
X53433701Y-5480138D02*
X53443224Y-5470614D01*
X53443224Y-5470614D02*
X53462272Y-5461091D01*
X53462272Y-5461091D02*
X53481320Y-5461091D01*
X53547986Y-5594424D02*
X53547986Y-5461091D01*
X53547986Y-5394424D02*
X53538462Y-5403948D01*
X53538462Y-5403948D02*
X53547986Y-5413472D01*
X53547986Y-5413472D02*
X53557510Y-5403948D01*
X53557510Y-5403948D02*
X53547986Y-5394424D01*
X53547986Y-5394424D02*
X53547986Y-5413472D01*
X53671796Y-5594424D02*
X53652748Y-5584900D01*
X53652748Y-5584900D02*
X53643224Y-5565853D01*
X53643224Y-5565853D02*
X53643224Y-5394424D01*
X53776558Y-5594424D02*
X53757510Y-5584900D01*
X53757510Y-5584900D02*
X53747986Y-5565853D01*
X53747986Y-5565853D02*
X53747986Y-5394424D01*
X54005129Y-5594424D02*
X54005129Y-5394424D01*
X54005129Y-5394424D02*
X54071796Y-5537281D01*
X54071796Y-5537281D02*
X54138462Y-5394424D01*
X54138462Y-5394424D02*
X54138462Y-5594424D01*
X54319415Y-5594424D02*
X54319415Y-5489662D01*
X54319415Y-5489662D02*
X54309891Y-5470614D01*
X54309891Y-5470614D02*
X54290843Y-5461091D01*
X54290843Y-5461091D02*
X54252748Y-5461091D01*
X54252748Y-5461091D02*
X54233701Y-5470614D01*
X54319415Y-5584900D02*
X54300367Y-5594424D01*
X54300367Y-5594424D02*
X54252748Y-5594424D01*
X54252748Y-5594424D02*
X54233701Y-5584900D01*
X54233701Y-5584900D02*
X54224177Y-5565853D01*
X54224177Y-5565853D02*
X54224177Y-5546805D01*
X54224177Y-5546805D02*
X54233701Y-5527757D01*
X54233701Y-5527757D02*
X54252748Y-5518234D01*
X54252748Y-5518234D02*
X54300367Y-5518234D01*
X54300367Y-5518234D02*
X54319415Y-5508710D01*
X54414653Y-5461091D02*
X54414653Y-5661091D01*
X54414653Y-5470614D02*
X54433701Y-5461091D01*
X54433701Y-5461091D02*
X54471796Y-5461091D01*
X54471796Y-5461091D02*
X54490843Y-5470614D01*
X54490843Y-5470614D02*
X54500367Y-5480138D01*
X54500367Y-5480138D02*
X54509891Y-5499186D01*
X54509891Y-5499186D02*
X54509891Y-5556329D01*
X54509891Y-5556329D02*
X54500367Y-5575376D01*
X54500367Y-5575376D02*
X54490843Y-5584900D01*
X54490843Y-5584900D02*
X54471796Y-5594424D01*
X54471796Y-5594424D02*
X54433701Y-5594424D01*
X54433701Y-5594424D02*
X54414653Y-5584900D01*
X54595605Y-5575376D02*
X54605129Y-5584900D01*
X54605129Y-5584900D02*
X54595605Y-5594424D01*
X54595605Y-5594424D02*
X54586082Y-5584900D01*
X54586082Y-5584900D02*
X54595605Y-5575376D01*
X54595605Y-5575376D02*
X54595605Y-5594424D01*
X54595605Y-5470614D02*
X54605129Y-5480138D01*
X54605129Y-5480138D02*
X54595605Y-5489662D01*
X54595605Y-5489662D02*
X54586082Y-5480138D01*
X54586082Y-5480138D02*
X54595605Y-5470614D01*
X54595605Y-5470614D02*
X54595605Y-5489662D01*
D13*
X52933400Y-5907940D02*
X52963400Y-5937940D01*
X52963400Y-5907940D02*
X52933400Y-5937940D01*
D12*
X53262272Y-5814424D02*
X53281320Y-5814424D01*
X53281320Y-5814424D02*
X53300367Y-5823948D01*
X53300367Y-5823948D02*
X53309891Y-5833472D01*
X53309891Y-5833472D02*
X53319415Y-5852519D01*
X53319415Y-5852519D02*
X53328939Y-5890614D01*
X53328939Y-5890614D02*
X53328939Y-5938233D01*
X53328939Y-5938233D02*
X53319415Y-5976329D01*
X53319415Y-5976329D02*
X53309891Y-5995376D01*
X53309891Y-5995376D02*
X53300367Y-6004900D01*
X53300367Y-6004900D02*
X53281320Y-6014424D01*
X53281320Y-6014424D02*
X53262272Y-6014424D01*
X53262272Y-6014424D02*
X53243224Y-6004900D01*
X53243224Y-6004900D02*
X53233701Y-5995376D01*
X53233701Y-5995376D02*
X53224177Y-5976329D01*
X53224177Y-5976329D02*
X53214653Y-5938233D01*
X53214653Y-5938233D02*
X53214653Y-5890614D01*
X53214653Y-5890614D02*
X53224177Y-5852519D01*
X53224177Y-5852519D02*
X53233701Y-5833472D01*
X53233701Y-5833472D02*
X53243224Y-5823948D01*
X53243224Y-5823948D02*
X53262272Y-5814424D01*
X53414653Y-5995376D02*
X53424177Y-6004900D01*
X53424177Y-6004900D02*
X53414653Y-6014424D01*
X53414653Y-6014424D02*
X53405129Y-6004900D01*
X53405129Y-6004900D02*
X53414653Y-5995376D01*
X53414653Y-5995376D02*
X53414653Y-6014424D01*
X53490843Y-5814424D02*
X53614653Y-5814424D01*
X53614653Y-5814424D02*
X53547986Y-5890614D01*
X53547986Y-5890614D02*
X53576558Y-5890614D01*
X53576558Y-5890614D02*
X53595605Y-5900138D01*
X53595605Y-5900138D02*
X53605129Y-5909662D01*
X53605129Y-5909662D02*
X53614653Y-5928710D01*
X53614653Y-5928710D02*
X53614653Y-5976329D01*
X53614653Y-5976329D02*
X53605129Y-5995376D01*
X53605129Y-5995376D02*
X53595605Y-6004900D01*
X53595605Y-6004900D02*
X53576558Y-6014424D01*
X53576558Y-6014424D02*
X53519415Y-6014424D01*
X53519415Y-6014424D02*
X53500367Y-6004900D01*
X53500367Y-6004900D02*
X53490843Y-5995376D01*
X53738462Y-5814424D02*
X53757510Y-5814424D01*
X53757510Y-5814424D02*
X53776558Y-5823948D01*
X53776558Y-5823948D02*
X53786082Y-5833472D01*
X53786082Y-5833472D02*
X53795605Y-5852519D01*
X53795605Y-5852519D02*
X53805129Y-5890614D01*
X53805129Y-5890614D02*
X53805129Y-5938233D01*
X53805129Y-5938233D02*
X53795605Y-5976329D01*
X53795605Y-5976329D02*
X53786082Y-5995376D01*
X53786082Y-5995376D02*
X53776558Y-6004900D01*
X53776558Y-6004900D02*
X53757510Y-6014424D01*
X53757510Y-6014424D02*
X53738462Y-6014424D01*
X53738462Y-6014424D02*
X53719415Y-6004900D01*
X53719415Y-6004900D02*
X53709891Y-5995376D01*
X53709891Y-5995376D02*
X53700367Y-5976329D01*
X53700367Y-5976329D02*
X53690843Y-5938233D01*
X53690843Y-5938233D02*
X53690843Y-5890614D01*
X53690843Y-5890614D02*
X53700367Y-5852519D01*
X53700367Y-5852519D02*
X53709891Y-5833472D01*
X53709891Y-5833472D02*
X53719415Y-5823948D01*
X53719415Y-5823948D02*
X53738462Y-5814424D01*
X53928939Y-5814424D02*
X53947986Y-5814424D01*
X53947986Y-5814424D02*
X53967034Y-5823948D01*
X53967034Y-5823948D02*
X53976558Y-5833472D01*
X53976558Y-5833472D02*
X53986082Y-5852519D01*
X53986082Y-5852519D02*
X53995605Y-5890614D01*
X53995605Y-5890614D02*
X53995605Y-5938233D01*
X53995605Y-5938233D02*
X53986082Y-5976329D01*
X53986082Y-5976329D02*
X53976558Y-5995376D01*
X53976558Y-5995376D02*
X53967034Y-6004900D01*
X53967034Y-6004900D02*
X53947986Y-6014424D01*
X53947986Y-6014424D02*
X53928939Y-6014424D01*
X53928939Y-6014424D02*
X53909891Y-6004900D01*
X53909891Y-6004900D02*
X53900367Y-5995376D01*
X53900367Y-5995376D02*
X53890843Y-5976329D01*
X53890843Y-5976329D02*
X53881320Y-5938233D01*
X53881320Y-5938233D02*
X53881320Y-5890614D01*
X53881320Y-5890614D02*
X53890843Y-5852519D01*
X53890843Y-5852519D02*
X53900367Y-5833472D01*
X53900367Y-5833472D02*
X53909891Y-5823948D01*
X53909891Y-5823948D02*
X53928939Y-5814424D01*
X54081320Y-6014424D02*
X54081320Y-5881091D01*
X54081320Y-5900138D02*
X54090843Y-5890614D01*
X54090843Y-5890614D02*
X54109891Y-5881091D01*
X54109891Y-5881091D02*
X54138463Y-5881091D01*
X54138463Y-5881091D02*
X54157510Y-5890614D01*
X54157510Y-5890614D02*
X54167034Y-5909662D01*
X54167034Y-5909662D02*
X54167034Y-6014424D01*
X54167034Y-5909662D02*
X54176558Y-5890614D01*
X54176558Y-5890614D02*
X54195605Y-5881091D01*
X54195605Y-5881091D02*
X54224177Y-5881091D01*
X54224177Y-5881091D02*
X54243224Y-5890614D01*
X54243224Y-5890614D02*
X54252748Y-5909662D01*
X54252748Y-5909662D02*
X54252748Y-6014424D01*
X54347986Y-6014424D02*
X54347986Y-5881091D01*
X54347986Y-5900138D02*
X54357510Y-5890614D01*
X54357510Y-5890614D02*
X54376558Y-5881091D01*
X54376558Y-5881091D02*
X54405129Y-5881091D01*
X54405129Y-5881091D02*
X54424177Y-5890614D01*
X54424177Y-5890614D02*
X54433701Y-5909662D01*
X54433701Y-5909662D02*
X54433701Y-6014424D01*
X54433701Y-5909662D02*
X54443224Y-5890614D01*
X54443224Y-5890614D02*
X54462272Y-5881091D01*
X54462272Y-5881091D02*
X54490843Y-5881091D01*
X54490843Y-5881091D02*
X54509891Y-5890614D01*
X54509891Y-5890614D02*
X54519415Y-5909662D01*
X54519415Y-5909662D02*
X54519415Y-6014424D01*
X54909891Y-5804900D02*
X54738463Y-6062043D01*
X55167034Y-5814424D02*
X55186082Y-5814424D01*
X55186082Y-5814424D02*
X55205129Y-5823948D01*
X55205129Y-5823948D02*
X55214653Y-5833472D01*
X55214653Y-5833472D02*
X55224177Y-5852519D01*
X55224177Y-5852519D02*
X55233701Y-5890614D01*
X55233701Y-5890614D02*
X55233701Y-5938233D01*
X55233701Y-5938233D02*
X55224177Y-5976329D01*
X55224177Y-5976329D02*
X55214653Y-5995376D01*
X55214653Y-5995376D02*
X55205129Y-6004900D01*
X55205129Y-6004900D02*
X55186082Y-6014424D01*
X55186082Y-6014424D02*
X55167034Y-6014424D01*
X55167034Y-6014424D02*
X55147986Y-6004900D01*
X55147986Y-6004900D02*
X55138463Y-5995376D01*
X55138463Y-5995376D02*
X55128939Y-5976329D01*
X55128939Y-5976329D02*
X55119415Y-5938233D01*
X55119415Y-5938233D02*
X55119415Y-5890614D01*
X55119415Y-5890614D02*
X55128939Y-5852519D01*
X55128939Y-5852519D02*
X55138463Y-5833472D01*
X55138463Y-5833472D02*
X55147986Y-5823948D01*
X55147986Y-5823948D02*
X55167034Y-5814424D01*
X55319415Y-5995376D02*
X55328939Y-6004900D01*
X55328939Y-6004900D02*
X55319415Y-6014424D01*
X55319415Y-6014424D02*
X55309891Y-6004900D01*
X55309891Y-6004900D02*
X55319415Y-5995376D01*
X55319415Y-5995376D02*
X55319415Y-6014424D01*
X55452748Y-5814424D02*
X55471796Y-5814424D01*
X55471796Y-5814424D02*
X55490844Y-5823948D01*
X55490844Y-5823948D02*
X55500367Y-5833472D01*
X55500367Y-5833472D02*
X55509891Y-5852519D01*
X55509891Y-5852519D02*
X55519415Y-5890614D01*
X55519415Y-5890614D02*
X55519415Y-5938233D01*
X55519415Y-5938233D02*
X55509891Y-5976329D01*
X55509891Y-5976329D02*
X55500367Y-5995376D01*
X55500367Y-5995376D02*
X55490844Y-6004900D01*
X55490844Y-6004900D02*
X55471796Y-6014424D01*
X55471796Y-6014424D02*
X55452748Y-6014424D01*
X55452748Y-6014424D02*
X55433701Y-6004900D01*
X55433701Y-6004900D02*
X55424177Y-5995376D01*
X55424177Y-5995376D02*
X55414653Y-5976329D01*
X55414653Y-5976329D02*
X55405129Y-5938233D01*
X55405129Y-5938233D02*
X55405129Y-5890614D01*
X55405129Y-5890614D02*
X55414653Y-5852519D01*
X55414653Y-5852519D02*
X55424177Y-5833472D01*
X55424177Y-5833472D02*
X55433701Y-5823948D01*
X55433701Y-5823948D02*
X55452748Y-5814424D01*
X55709891Y-6014424D02*
X55595606Y-6014424D01*
X55652748Y-6014424D02*
X55652748Y-5814424D01*
X55652748Y-5814424D02*
X55633701Y-5842995D01*
X55633701Y-5842995D02*
X55614653Y-5862043D01*
X55614653Y-5862043D02*
X55595606Y-5871567D01*
X55900367Y-6014424D02*
X55786082Y-6014424D01*
X55843225Y-6014424D02*
X55843225Y-5814424D01*
X55843225Y-5814424D02*
X55824177Y-5842995D01*
X55824177Y-5842995D02*
X55805129Y-5862043D01*
X55805129Y-5862043D02*
X55786082Y-5871567D01*
X56014653Y-5900138D02*
X55995606Y-5890614D01*
X55995606Y-5890614D02*
X55986082Y-5881091D01*
X55986082Y-5881091D02*
X55976558Y-5862043D01*
X55976558Y-5862043D02*
X55976558Y-5852519D01*
X55976558Y-5852519D02*
X55986082Y-5833472D01*
X55986082Y-5833472D02*
X55995606Y-5823948D01*
X55995606Y-5823948D02*
X56014653Y-5814424D01*
X56014653Y-5814424D02*
X56052748Y-5814424D01*
X56052748Y-5814424D02*
X56071796Y-5823948D01*
X56071796Y-5823948D02*
X56081320Y-5833472D01*
X56081320Y-5833472D02*
X56090844Y-5852519D01*
X56090844Y-5852519D02*
X56090844Y-5862043D01*
X56090844Y-5862043D02*
X56081320Y-5881091D01*
X56081320Y-5881091D02*
X56071796Y-5890614D01*
X56071796Y-5890614D02*
X56052748Y-5900138D01*
X56052748Y-5900138D02*
X56014653Y-5900138D01*
X56014653Y-5900138D02*
X55995606Y-5909662D01*
X55995606Y-5909662D02*
X55986082Y-5919186D01*
X55986082Y-5919186D02*
X55976558Y-5938233D01*
X55976558Y-5938233D02*
X55976558Y-5976329D01*
X55976558Y-5976329D02*
X55986082Y-5995376D01*
X55986082Y-5995376D02*
X55995606Y-6004900D01*
X55995606Y-6004900D02*
X56014653Y-6014424D01*
X56014653Y-6014424D02*
X56052748Y-6014424D01*
X56052748Y-6014424D02*
X56071796Y-6004900D01*
X56071796Y-6004900D02*
X56081320Y-5995376D01*
X56081320Y-5995376D02*
X56090844Y-5976329D01*
X56090844Y-5976329D02*
X56090844Y-5938233D01*
X56090844Y-5938233D02*
X56081320Y-5919186D01*
X56081320Y-5919186D02*
X56071796Y-5909662D01*
X56071796Y-5909662D02*
X56052748Y-5900138D01*
X56167034Y-5814424D02*
X56167034Y-5852519D01*
X56243225Y-5814424D02*
X56243225Y-5852519D01*
X56538463Y-6090614D02*
X56528939Y-6081091D01*
X56528939Y-6081091D02*
X56509891Y-6052519D01*
X56509891Y-6052519D02*
X56500368Y-6033472D01*
X56500368Y-6033472D02*
X56490844Y-6004900D01*
X56490844Y-6004900D02*
X56481320Y-5957281D01*
X56481320Y-5957281D02*
X56481320Y-5919186D01*
X56481320Y-5919186D02*
X56490844Y-5871567D01*
X56490844Y-5871567D02*
X56500368Y-5842995D01*
X56500368Y-5842995D02*
X56509891Y-5823948D01*
X56509891Y-5823948D02*
X56528939Y-5795376D01*
X56528939Y-5795376D02*
X56538463Y-5785852D01*
X56719415Y-6014424D02*
X56605129Y-6014424D01*
X56662272Y-6014424D02*
X56662272Y-5814424D01*
X56662272Y-5814424D02*
X56643225Y-5842995D01*
X56643225Y-5842995D02*
X56624177Y-5862043D01*
X56624177Y-5862043D02*
X56605129Y-5871567D01*
X56843225Y-5814424D02*
X56862272Y-5814424D01*
X56862272Y-5814424D02*
X56881320Y-5823948D01*
X56881320Y-5823948D02*
X56890844Y-5833472D01*
X56890844Y-5833472D02*
X56900368Y-5852519D01*
X56900368Y-5852519D02*
X56909891Y-5890614D01*
X56909891Y-5890614D02*
X56909891Y-5938233D01*
X56909891Y-5938233D02*
X56900368Y-5976329D01*
X56900368Y-5976329D02*
X56890844Y-5995376D01*
X56890844Y-5995376D02*
X56881320Y-6004900D01*
X56881320Y-6004900D02*
X56862272Y-6014424D01*
X56862272Y-6014424D02*
X56843225Y-6014424D01*
X56843225Y-6014424D02*
X56824177Y-6004900D01*
X56824177Y-6004900D02*
X56814653Y-5995376D01*
X56814653Y-5995376D02*
X56805129Y-5976329D01*
X56805129Y-5976329D02*
X56795606Y-5938233D01*
X56795606Y-5938233D02*
X56795606Y-5890614D01*
X56795606Y-5890614D02*
X56805129Y-5852519D01*
X56805129Y-5852519D02*
X56814653Y-5833472D01*
X56814653Y-5833472D02*
X56824177Y-5823948D01*
X56824177Y-5823948D02*
X56843225Y-5814424D01*
X57024177Y-5900138D02*
X57005129Y-5890614D01*
X57005129Y-5890614D02*
X56995606Y-5881091D01*
X56995606Y-5881091D02*
X56986082Y-5862043D01*
X56986082Y-5862043D02*
X56986082Y-5852519D01*
X56986082Y-5852519D02*
X56995606Y-5833472D01*
X56995606Y-5833472D02*
X57005129Y-5823948D01*
X57005129Y-5823948D02*
X57024177Y-5814424D01*
X57024177Y-5814424D02*
X57062272Y-5814424D01*
X57062272Y-5814424D02*
X57081320Y-5823948D01*
X57081320Y-5823948D02*
X57090844Y-5833472D01*
X57090844Y-5833472D02*
X57100368Y-5852519D01*
X57100368Y-5852519D02*
X57100368Y-5862043D01*
X57100368Y-5862043D02*
X57090844Y-5881091D01*
X57090844Y-5881091D02*
X57081320Y-5890614D01*
X57081320Y-5890614D02*
X57062272Y-5900138D01*
X57062272Y-5900138D02*
X57024177Y-5900138D01*
X57024177Y-5900138D02*
X57005129Y-5909662D01*
X57005129Y-5909662D02*
X56995606Y-5919186D01*
X56995606Y-5919186D02*
X56986082Y-5938233D01*
X56986082Y-5938233D02*
X56986082Y-5976329D01*
X56986082Y-5976329D02*
X56995606Y-5995376D01*
X56995606Y-5995376D02*
X57005129Y-6004900D01*
X57005129Y-6004900D02*
X57024177Y-6014424D01*
X57024177Y-6014424D02*
X57062272Y-6014424D01*
X57062272Y-6014424D02*
X57081320Y-6004900D01*
X57081320Y-6004900D02*
X57090844Y-5995376D01*
X57090844Y-5995376D02*
X57100368Y-5976329D01*
X57100368Y-5976329D02*
X57100368Y-5938233D01*
X57100368Y-5938233D02*
X57090844Y-5919186D01*
X57090844Y-5919186D02*
X57081320Y-5909662D01*
X57081320Y-5909662D02*
X57062272Y-5900138D01*
X57338463Y-6014424D02*
X57338463Y-5814424D01*
X57424177Y-6014424D02*
X57424177Y-5909662D01*
X57424177Y-5909662D02*
X57414653Y-5890614D01*
X57414653Y-5890614D02*
X57395606Y-5881091D01*
X57395606Y-5881091D02*
X57367034Y-5881091D01*
X57367034Y-5881091D02*
X57347987Y-5890614D01*
X57347987Y-5890614D02*
X57338463Y-5900138D01*
X57547987Y-6014424D02*
X57528939Y-6004900D01*
X57528939Y-6004900D02*
X57519415Y-5995376D01*
X57519415Y-5995376D02*
X57509891Y-5976329D01*
X57509891Y-5976329D02*
X57509891Y-5919186D01*
X57509891Y-5919186D02*
X57519415Y-5900138D01*
X57519415Y-5900138D02*
X57528939Y-5890614D01*
X57528939Y-5890614D02*
X57547987Y-5881091D01*
X57547987Y-5881091D02*
X57576558Y-5881091D01*
X57576558Y-5881091D02*
X57595606Y-5890614D01*
X57595606Y-5890614D02*
X57605130Y-5900138D01*
X57605130Y-5900138D02*
X57614653Y-5919186D01*
X57614653Y-5919186D02*
X57614653Y-5976329D01*
X57614653Y-5976329D02*
X57605130Y-5995376D01*
X57605130Y-5995376D02*
X57595606Y-6004900D01*
X57595606Y-6004900D02*
X57576558Y-6014424D01*
X57576558Y-6014424D02*
X57547987Y-6014424D01*
X57728939Y-6014424D02*
X57709891Y-6004900D01*
X57709891Y-6004900D02*
X57700368Y-5985852D01*
X57700368Y-5985852D02*
X57700368Y-5814424D01*
X57881320Y-6004900D02*
X57862272Y-6014424D01*
X57862272Y-6014424D02*
X57824177Y-6014424D01*
X57824177Y-6014424D02*
X57805130Y-6004900D01*
X57805130Y-6004900D02*
X57795606Y-5985852D01*
X57795606Y-5985852D02*
X57795606Y-5909662D01*
X57795606Y-5909662D02*
X57805130Y-5890614D01*
X57805130Y-5890614D02*
X57824177Y-5881091D01*
X57824177Y-5881091D02*
X57862272Y-5881091D01*
X57862272Y-5881091D02*
X57881320Y-5890614D01*
X57881320Y-5890614D02*
X57890844Y-5909662D01*
X57890844Y-5909662D02*
X57890844Y-5928710D01*
X57890844Y-5928710D02*
X57795606Y-5947757D01*
X57967034Y-6004900D02*
X57986082Y-6014424D01*
X57986082Y-6014424D02*
X58024177Y-6014424D01*
X58024177Y-6014424D02*
X58043225Y-6004900D01*
X58043225Y-6004900D02*
X58052749Y-5985852D01*
X58052749Y-5985852D02*
X58052749Y-5976329D01*
X58052749Y-5976329D02*
X58043225Y-5957281D01*
X58043225Y-5957281D02*
X58024177Y-5947757D01*
X58024177Y-5947757D02*
X57995606Y-5947757D01*
X57995606Y-5947757D02*
X57976558Y-5938233D01*
X57976558Y-5938233D02*
X57967034Y-5919186D01*
X57967034Y-5919186D02*
X57967034Y-5909662D01*
X57967034Y-5909662D02*
X57976558Y-5890614D01*
X57976558Y-5890614D02*
X57995606Y-5881091D01*
X57995606Y-5881091D02*
X58024177Y-5881091D01*
X58024177Y-5881091D02*
X58043225Y-5890614D01*
X58119415Y-6090614D02*
X58128939Y-6081091D01*
X58128939Y-6081091D02*
X58147987Y-6052519D01*
X58147987Y-6052519D02*
X58157511Y-6033472D01*
X58157511Y-6033472D02*
X58167034Y-6004900D01*
X58167034Y-6004900D02*
X58176558Y-5957281D01*
X58176558Y-5957281D02*
X58176558Y-5919186D01*
X58176558Y-5919186D02*
X58167034Y-5871567D01*
X58167034Y-5871567D02*
X58157511Y-5842995D01*
X58157511Y-5842995D02*
X58147987Y-5823948D01*
X58147987Y-5823948D02*
X58128939Y-5795376D01*
X58128939Y-5795376D02*
X58119415Y-5785852D01*
D13*
X52963400Y-6186940D02*
G75*
G02*
X52903400Y-6186940I-30000J0D01*
G01*
X52903400Y-6186940D02*
G75*
G02*
X52963400Y-6186940I30000J0D01*
G01*
D12*
X53262272Y-6078424D02*
X53281320Y-6078424D01*
X53281320Y-6078424D02*
X53300367Y-6087948D01*
X53300367Y-6087948D02*
X53309891Y-6097472D01*
X53309891Y-6097472D02*
X53319415Y-6116519D01*
X53319415Y-6116519D02*
X53328939Y-6154614D01*
X53328939Y-6154614D02*
X53328939Y-6202233D01*
X53328939Y-6202233D02*
X53319415Y-6240329D01*
X53319415Y-6240329D02*
X53309891Y-6259376D01*
X53309891Y-6259376D02*
X53300367Y-6268900D01*
X53300367Y-6268900D02*
X53281320Y-6278424D01*
X53281320Y-6278424D02*
X53262272Y-6278424D01*
X53262272Y-6278424D02*
X53243224Y-6268900D01*
X53243224Y-6268900D02*
X53233701Y-6259376D01*
X53233701Y-6259376D02*
X53224177Y-6240329D01*
X53224177Y-6240329D02*
X53214653Y-6202233D01*
X53214653Y-6202233D02*
X53214653Y-6154614D01*
X53214653Y-6154614D02*
X53224177Y-6116519D01*
X53224177Y-6116519D02*
X53233701Y-6097472D01*
X53233701Y-6097472D02*
X53243224Y-6087948D01*
X53243224Y-6087948D02*
X53262272Y-6078424D01*
X53414653Y-6259376D02*
X53424177Y-6268900D01*
X53424177Y-6268900D02*
X53414653Y-6278424D01*
X53414653Y-6278424D02*
X53405129Y-6268900D01*
X53405129Y-6268900D02*
X53414653Y-6259376D01*
X53414653Y-6259376D02*
X53414653Y-6278424D01*
X53595605Y-6078424D02*
X53557510Y-6078424D01*
X53557510Y-6078424D02*
X53538462Y-6087948D01*
X53538462Y-6087948D02*
X53528939Y-6097472D01*
X53528939Y-6097472D02*
X53509891Y-6126043D01*
X53509891Y-6126043D02*
X53500367Y-6164138D01*
X53500367Y-6164138D02*
X53500367Y-6240329D01*
X53500367Y-6240329D02*
X53509891Y-6259376D01*
X53509891Y-6259376D02*
X53519415Y-6268900D01*
X53519415Y-6268900D02*
X53538462Y-6278424D01*
X53538462Y-6278424D02*
X53576558Y-6278424D01*
X53576558Y-6278424D02*
X53595605Y-6268900D01*
X53595605Y-6268900D02*
X53605129Y-6259376D01*
X53605129Y-6259376D02*
X53614653Y-6240329D01*
X53614653Y-6240329D02*
X53614653Y-6192710D01*
X53614653Y-6192710D02*
X53605129Y-6173662D01*
X53605129Y-6173662D02*
X53595605Y-6164138D01*
X53595605Y-6164138D02*
X53576558Y-6154614D01*
X53576558Y-6154614D02*
X53538462Y-6154614D01*
X53538462Y-6154614D02*
X53519415Y-6164138D01*
X53519415Y-6164138D02*
X53509891Y-6173662D01*
X53509891Y-6173662D02*
X53500367Y-6192710D01*
X53738462Y-6078424D02*
X53757510Y-6078424D01*
X53757510Y-6078424D02*
X53776558Y-6087948D01*
X53776558Y-6087948D02*
X53786082Y-6097472D01*
X53786082Y-6097472D02*
X53795605Y-6116519D01*
X53795605Y-6116519D02*
X53805129Y-6154614D01*
X53805129Y-6154614D02*
X53805129Y-6202233D01*
X53805129Y-6202233D02*
X53795605Y-6240329D01*
X53795605Y-6240329D02*
X53786082Y-6259376D01*
X53786082Y-6259376D02*
X53776558Y-6268900D01*
X53776558Y-6268900D02*
X53757510Y-6278424D01*
X53757510Y-6278424D02*
X53738462Y-6278424D01*
X53738462Y-6278424D02*
X53719415Y-6268900D01*
X53719415Y-6268900D02*
X53709891Y-6259376D01*
X53709891Y-6259376D02*
X53700367Y-6240329D01*
X53700367Y-6240329D02*
X53690843Y-6202233D01*
X53690843Y-6202233D02*
X53690843Y-6154614D01*
X53690843Y-6154614D02*
X53700367Y-6116519D01*
X53700367Y-6116519D02*
X53709891Y-6097472D01*
X53709891Y-6097472D02*
X53719415Y-6087948D01*
X53719415Y-6087948D02*
X53738462Y-6078424D01*
X53928939Y-6078424D02*
X53947986Y-6078424D01*
X53947986Y-6078424D02*
X53967034Y-6087948D01*
X53967034Y-6087948D02*
X53976558Y-6097472D01*
X53976558Y-6097472D02*
X53986082Y-6116519D01*
X53986082Y-6116519D02*
X53995605Y-6154614D01*
X53995605Y-6154614D02*
X53995605Y-6202233D01*
X53995605Y-6202233D02*
X53986082Y-6240329D01*
X53986082Y-6240329D02*
X53976558Y-6259376D01*
X53976558Y-6259376D02*
X53967034Y-6268900D01*
X53967034Y-6268900D02*
X53947986Y-6278424D01*
X53947986Y-6278424D02*
X53928939Y-6278424D01*
X53928939Y-6278424D02*
X53909891Y-6268900D01*
X53909891Y-6268900D02*
X53900367Y-6259376D01*
X53900367Y-6259376D02*
X53890843Y-6240329D01*
X53890843Y-6240329D02*
X53881320Y-6202233D01*
X53881320Y-6202233D02*
X53881320Y-6154614D01*
X53881320Y-6154614D02*
X53890843Y-6116519D01*
X53890843Y-6116519D02*
X53900367Y-6097472D01*
X53900367Y-6097472D02*
X53909891Y-6087948D01*
X53909891Y-6087948D02*
X53928939Y-6078424D01*
X54081320Y-6278424D02*
X54081320Y-6145091D01*
X54081320Y-6164138D02*
X54090843Y-6154614D01*
X54090843Y-6154614D02*
X54109891Y-6145091D01*
X54109891Y-6145091D02*
X54138463Y-6145091D01*
X54138463Y-6145091D02*
X54157510Y-6154614D01*
X54157510Y-6154614D02*
X54167034Y-6173662D01*
X54167034Y-6173662D02*
X54167034Y-6278424D01*
X54167034Y-6173662D02*
X54176558Y-6154614D01*
X54176558Y-6154614D02*
X54195605Y-6145091D01*
X54195605Y-6145091D02*
X54224177Y-6145091D01*
X54224177Y-6145091D02*
X54243224Y-6154614D01*
X54243224Y-6154614D02*
X54252748Y-6173662D01*
X54252748Y-6173662D02*
X54252748Y-6278424D01*
X54347986Y-6278424D02*
X54347986Y-6145091D01*
X54347986Y-6164138D02*
X54357510Y-6154614D01*
X54357510Y-6154614D02*
X54376558Y-6145091D01*
X54376558Y-6145091D02*
X54405129Y-6145091D01*
X54405129Y-6145091D02*
X54424177Y-6154614D01*
X54424177Y-6154614D02*
X54433701Y-6173662D01*
X54433701Y-6173662D02*
X54433701Y-6278424D01*
X54433701Y-6173662D02*
X54443224Y-6154614D01*
X54443224Y-6154614D02*
X54462272Y-6145091D01*
X54462272Y-6145091D02*
X54490843Y-6145091D01*
X54490843Y-6145091D02*
X54509891Y-6154614D01*
X54509891Y-6154614D02*
X54519415Y-6173662D01*
X54519415Y-6173662D02*
X54519415Y-6278424D01*
X54909891Y-6068900D02*
X54738463Y-6326043D01*
X55167034Y-6078424D02*
X55186082Y-6078424D01*
X55186082Y-6078424D02*
X55205129Y-6087948D01*
X55205129Y-6087948D02*
X55214653Y-6097472D01*
X55214653Y-6097472D02*
X55224177Y-6116519D01*
X55224177Y-6116519D02*
X55233701Y-6154614D01*
X55233701Y-6154614D02*
X55233701Y-6202233D01*
X55233701Y-6202233D02*
X55224177Y-6240329D01*
X55224177Y-6240329D02*
X55214653Y-6259376D01*
X55214653Y-6259376D02*
X55205129Y-6268900D01*
X55205129Y-6268900D02*
X55186082Y-6278424D01*
X55186082Y-6278424D02*
X55167034Y-6278424D01*
X55167034Y-6278424D02*
X55147986Y-6268900D01*
X55147986Y-6268900D02*
X55138463Y-6259376D01*
X55138463Y-6259376D02*
X55128939Y-6240329D01*
X55128939Y-6240329D02*
X55119415Y-6202233D01*
X55119415Y-6202233D02*
X55119415Y-6154614D01*
X55119415Y-6154614D02*
X55128939Y-6116519D01*
X55128939Y-6116519D02*
X55138463Y-6097472D01*
X55138463Y-6097472D02*
X55147986Y-6087948D01*
X55147986Y-6087948D02*
X55167034Y-6078424D01*
X55319415Y-6259376D02*
X55328939Y-6268900D01*
X55328939Y-6268900D02*
X55319415Y-6278424D01*
X55319415Y-6278424D02*
X55309891Y-6268900D01*
X55309891Y-6268900D02*
X55319415Y-6259376D01*
X55319415Y-6259376D02*
X55319415Y-6278424D01*
X55452748Y-6078424D02*
X55471796Y-6078424D01*
X55471796Y-6078424D02*
X55490844Y-6087948D01*
X55490844Y-6087948D02*
X55500367Y-6097472D01*
X55500367Y-6097472D02*
X55509891Y-6116519D01*
X55509891Y-6116519D02*
X55519415Y-6154614D01*
X55519415Y-6154614D02*
X55519415Y-6202233D01*
X55519415Y-6202233D02*
X55509891Y-6240329D01*
X55509891Y-6240329D02*
X55500367Y-6259376D01*
X55500367Y-6259376D02*
X55490844Y-6268900D01*
X55490844Y-6268900D02*
X55471796Y-6278424D01*
X55471796Y-6278424D02*
X55452748Y-6278424D01*
X55452748Y-6278424D02*
X55433701Y-6268900D01*
X55433701Y-6268900D02*
X55424177Y-6259376D01*
X55424177Y-6259376D02*
X55414653Y-6240329D01*
X55414653Y-6240329D02*
X55405129Y-6202233D01*
X55405129Y-6202233D02*
X55405129Y-6154614D01*
X55405129Y-6154614D02*
X55414653Y-6116519D01*
X55414653Y-6116519D02*
X55424177Y-6097472D01*
X55424177Y-6097472D02*
X55433701Y-6087948D01*
X55433701Y-6087948D02*
X55452748Y-6078424D01*
X55595606Y-6097472D02*
X55605129Y-6087948D01*
X55605129Y-6087948D02*
X55624177Y-6078424D01*
X55624177Y-6078424D02*
X55671796Y-6078424D01*
X55671796Y-6078424D02*
X55690844Y-6087948D01*
X55690844Y-6087948D02*
X55700367Y-6097472D01*
X55700367Y-6097472D02*
X55709891Y-6116519D01*
X55709891Y-6116519D02*
X55709891Y-6135567D01*
X55709891Y-6135567D02*
X55700367Y-6164138D01*
X55700367Y-6164138D02*
X55586082Y-6278424D01*
X55586082Y-6278424D02*
X55709891Y-6278424D01*
X55776558Y-6078424D02*
X55900367Y-6078424D01*
X55900367Y-6078424D02*
X55833701Y-6154614D01*
X55833701Y-6154614D02*
X55862272Y-6154614D01*
X55862272Y-6154614D02*
X55881320Y-6164138D01*
X55881320Y-6164138D02*
X55890844Y-6173662D01*
X55890844Y-6173662D02*
X55900367Y-6192710D01*
X55900367Y-6192710D02*
X55900367Y-6240329D01*
X55900367Y-6240329D02*
X55890844Y-6259376D01*
X55890844Y-6259376D02*
X55881320Y-6268900D01*
X55881320Y-6268900D02*
X55862272Y-6278424D01*
X55862272Y-6278424D02*
X55805129Y-6278424D01*
X55805129Y-6278424D02*
X55786082Y-6268900D01*
X55786082Y-6268900D02*
X55776558Y-6259376D01*
X56071796Y-6078424D02*
X56033701Y-6078424D01*
X56033701Y-6078424D02*
X56014653Y-6087948D01*
X56014653Y-6087948D02*
X56005129Y-6097472D01*
X56005129Y-6097472D02*
X55986082Y-6126043D01*
X55986082Y-6126043D02*
X55976558Y-6164138D01*
X55976558Y-6164138D02*
X55976558Y-6240329D01*
X55976558Y-6240329D02*
X55986082Y-6259376D01*
X55986082Y-6259376D02*
X55995606Y-6268900D01*
X55995606Y-6268900D02*
X56014653Y-6278424D01*
X56014653Y-6278424D02*
X56052748Y-6278424D01*
X56052748Y-6278424D02*
X56071796Y-6268900D01*
X56071796Y-6268900D02*
X56081320Y-6259376D01*
X56081320Y-6259376D02*
X56090844Y-6240329D01*
X56090844Y-6240329D02*
X56090844Y-6192710D01*
X56090844Y-6192710D02*
X56081320Y-6173662D01*
X56081320Y-6173662D02*
X56071796Y-6164138D01*
X56071796Y-6164138D02*
X56052748Y-6154614D01*
X56052748Y-6154614D02*
X56014653Y-6154614D01*
X56014653Y-6154614D02*
X55995606Y-6164138D01*
X55995606Y-6164138D02*
X55986082Y-6173662D01*
X55986082Y-6173662D02*
X55976558Y-6192710D01*
X56167034Y-6078424D02*
X56167034Y-6116519D01*
X56243225Y-6078424D02*
X56243225Y-6116519D01*
X56538463Y-6354614D02*
X56528939Y-6345091D01*
X56528939Y-6345091D02*
X56509891Y-6316519D01*
X56509891Y-6316519D02*
X56500368Y-6297472D01*
X56500368Y-6297472D02*
X56490844Y-6268900D01*
X56490844Y-6268900D02*
X56481320Y-6221281D01*
X56481320Y-6221281D02*
X56481320Y-6183186D01*
X56481320Y-6183186D02*
X56490844Y-6135567D01*
X56490844Y-6135567D02*
X56500368Y-6106995D01*
X56500368Y-6106995D02*
X56509891Y-6087948D01*
X56509891Y-6087948D02*
X56528939Y-6059376D01*
X56528939Y-6059376D02*
X56538463Y-6049852D01*
X56652748Y-6078424D02*
X56671796Y-6078424D01*
X56671796Y-6078424D02*
X56690844Y-6087948D01*
X56690844Y-6087948D02*
X56700368Y-6097472D01*
X56700368Y-6097472D02*
X56709891Y-6116519D01*
X56709891Y-6116519D02*
X56719415Y-6154614D01*
X56719415Y-6154614D02*
X56719415Y-6202233D01*
X56719415Y-6202233D02*
X56709891Y-6240329D01*
X56709891Y-6240329D02*
X56700368Y-6259376D01*
X56700368Y-6259376D02*
X56690844Y-6268900D01*
X56690844Y-6268900D02*
X56671796Y-6278424D01*
X56671796Y-6278424D02*
X56652748Y-6278424D01*
X56652748Y-6278424D02*
X56633701Y-6268900D01*
X56633701Y-6268900D02*
X56624177Y-6259376D01*
X56624177Y-6259376D02*
X56614653Y-6240329D01*
X56614653Y-6240329D02*
X56605129Y-6202233D01*
X56605129Y-6202233D02*
X56605129Y-6154614D01*
X56605129Y-6154614D02*
X56614653Y-6116519D01*
X56614653Y-6116519D02*
X56624177Y-6097472D01*
X56624177Y-6097472D02*
X56633701Y-6087948D01*
X56633701Y-6087948D02*
X56652748Y-6078424D01*
X56957510Y-6278424D02*
X56957510Y-6078424D01*
X57043225Y-6278424D02*
X57043225Y-6173662D01*
X57043225Y-6173662D02*
X57033701Y-6154614D01*
X57033701Y-6154614D02*
X57014653Y-6145091D01*
X57014653Y-6145091D02*
X56986082Y-6145091D01*
X56986082Y-6145091D02*
X56967034Y-6154614D01*
X56967034Y-6154614D02*
X56957510Y-6164138D01*
X57167034Y-6278424D02*
X57147987Y-6268900D01*
X57147987Y-6268900D02*
X57138463Y-6259376D01*
X57138463Y-6259376D02*
X57128939Y-6240329D01*
X57128939Y-6240329D02*
X57128939Y-6183186D01*
X57128939Y-6183186D02*
X57138463Y-6164138D01*
X57138463Y-6164138D02*
X57147987Y-6154614D01*
X57147987Y-6154614D02*
X57167034Y-6145091D01*
X57167034Y-6145091D02*
X57195606Y-6145091D01*
X57195606Y-6145091D02*
X57214653Y-6154614D01*
X57214653Y-6154614D02*
X57224177Y-6164138D01*
X57224177Y-6164138D02*
X57233701Y-6183186D01*
X57233701Y-6183186D02*
X57233701Y-6240329D01*
X57233701Y-6240329D02*
X57224177Y-6259376D01*
X57224177Y-6259376D02*
X57214653Y-6268900D01*
X57214653Y-6268900D02*
X57195606Y-6278424D01*
X57195606Y-6278424D02*
X57167034Y-6278424D01*
X57347987Y-6278424D02*
X57328939Y-6268900D01*
X57328939Y-6268900D02*
X57319415Y-6249852D01*
X57319415Y-6249852D02*
X57319415Y-6078424D01*
X57500368Y-6268900D02*
X57481320Y-6278424D01*
X57481320Y-6278424D02*
X57443225Y-6278424D01*
X57443225Y-6278424D02*
X57424177Y-6268900D01*
X57424177Y-6268900D02*
X57414653Y-6249852D01*
X57414653Y-6249852D02*
X57414653Y-6173662D01*
X57414653Y-6173662D02*
X57424177Y-6154614D01*
X57424177Y-6154614D02*
X57443225Y-6145091D01*
X57443225Y-6145091D02*
X57481320Y-6145091D01*
X57481320Y-6145091D02*
X57500368Y-6154614D01*
X57500368Y-6154614D02*
X57509891Y-6173662D01*
X57509891Y-6173662D02*
X57509891Y-6192710D01*
X57509891Y-6192710D02*
X57414653Y-6211757D01*
X57586082Y-6268900D02*
X57605130Y-6278424D01*
X57605130Y-6278424D02*
X57643225Y-6278424D01*
X57643225Y-6278424D02*
X57662272Y-6268900D01*
X57662272Y-6268900D02*
X57671796Y-6249852D01*
X57671796Y-6249852D02*
X57671796Y-6240329D01*
X57671796Y-6240329D02*
X57662272Y-6221281D01*
X57662272Y-6221281D02*
X57643225Y-6211757D01*
X57643225Y-6211757D02*
X57614653Y-6211757D01*
X57614653Y-6211757D02*
X57595606Y-6202233D01*
X57595606Y-6202233D02*
X57586082Y-6183186D01*
X57586082Y-6183186D02*
X57586082Y-6173662D01*
X57586082Y-6173662D02*
X57595606Y-6154614D01*
X57595606Y-6154614D02*
X57614653Y-6145091D01*
X57614653Y-6145091D02*
X57643225Y-6145091D01*
X57643225Y-6145091D02*
X57662272Y-6154614D01*
X57909892Y-6202233D02*
X58062273Y-6202233D01*
X57986082Y-6278424D02*
X57986082Y-6126043D01*
X58290844Y-6078424D02*
X58424177Y-6078424D01*
X58424177Y-6078424D02*
X58338463Y-6278424D01*
X58490844Y-6097472D02*
X58500368Y-6087948D01*
X58500368Y-6087948D02*
X58519415Y-6078424D01*
X58519415Y-6078424D02*
X58567034Y-6078424D01*
X58567034Y-6078424D02*
X58586082Y-6087948D01*
X58586082Y-6087948D02*
X58595606Y-6097472D01*
X58595606Y-6097472D02*
X58605130Y-6116519D01*
X58605130Y-6116519D02*
X58605130Y-6135567D01*
X58605130Y-6135567D02*
X58595606Y-6164138D01*
X58595606Y-6164138D02*
X58481320Y-6278424D01*
X58481320Y-6278424D02*
X58605130Y-6278424D01*
X58833701Y-6268900D02*
X58852749Y-6278424D01*
X58852749Y-6278424D02*
X58890844Y-6278424D01*
X58890844Y-6278424D02*
X58909892Y-6268900D01*
X58909892Y-6268900D02*
X58919415Y-6249852D01*
X58919415Y-6249852D02*
X58919415Y-6240329D01*
X58919415Y-6240329D02*
X58909892Y-6221281D01*
X58909892Y-6221281D02*
X58890844Y-6211757D01*
X58890844Y-6211757D02*
X58862273Y-6211757D01*
X58862273Y-6211757D02*
X58843225Y-6202233D01*
X58843225Y-6202233D02*
X58833701Y-6183186D01*
X58833701Y-6183186D02*
X58833701Y-6173662D01*
X58833701Y-6173662D02*
X58843225Y-6154614D01*
X58843225Y-6154614D02*
X58862273Y-6145091D01*
X58862273Y-6145091D02*
X58890844Y-6145091D01*
X58890844Y-6145091D02*
X58909892Y-6154614D01*
X59033701Y-6278424D02*
X59014654Y-6268900D01*
X59014654Y-6268900D02*
X59005130Y-6249852D01*
X59005130Y-6249852D02*
X59005130Y-6078424D01*
X59138463Y-6278424D02*
X59119415Y-6268900D01*
X59119415Y-6268900D02*
X59109892Y-6259376D01*
X59109892Y-6259376D02*
X59100368Y-6240329D01*
X59100368Y-6240329D02*
X59100368Y-6183186D01*
X59100368Y-6183186D02*
X59109892Y-6164138D01*
X59109892Y-6164138D02*
X59119415Y-6154614D01*
X59119415Y-6154614D02*
X59138463Y-6145091D01*
X59138463Y-6145091D02*
X59167035Y-6145091D01*
X59167035Y-6145091D02*
X59186082Y-6154614D01*
X59186082Y-6154614D02*
X59195606Y-6164138D01*
X59195606Y-6164138D02*
X59205130Y-6183186D01*
X59205130Y-6183186D02*
X59205130Y-6240329D01*
X59205130Y-6240329D02*
X59195606Y-6259376D01*
X59195606Y-6259376D02*
X59186082Y-6268900D01*
X59186082Y-6268900D02*
X59167035Y-6278424D01*
X59167035Y-6278424D02*
X59138463Y-6278424D01*
X59262273Y-6145091D02*
X59338463Y-6145091D01*
X59290844Y-6078424D02*
X59290844Y-6249852D01*
X59290844Y-6249852D02*
X59300368Y-6268900D01*
X59300368Y-6268900D02*
X59319415Y-6278424D01*
X59319415Y-6278424D02*
X59338463Y-6278424D01*
X59395606Y-6268900D02*
X59414654Y-6278424D01*
X59414654Y-6278424D02*
X59452749Y-6278424D01*
X59452749Y-6278424D02*
X59471796Y-6268900D01*
X59471796Y-6268900D02*
X59481320Y-6249852D01*
X59481320Y-6249852D02*
X59481320Y-6240329D01*
X59481320Y-6240329D02*
X59471796Y-6221281D01*
X59471796Y-6221281D02*
X59452749Y-6211757D01*
X59452749Y-6211757D02*
X59424177Y-6211757D01*
X59424177Y-6211757D02*
X59405130Y-6202233D01*
X59405130Y-6202233D02*
X59395606Y-6183186D01*
X59395606Y-6183186D02*
X59395606Y-6173662D01*
X59395606Y-6173662D02*
X59405130Y-6154614D01*
X59405130Y-6154614D02*
X59424177Y-6145091D01*
X59424177Y-6145091D02*
X59452749Y-6145091D01*
X59452749Y-6145091D02*
X59471796Y-6154614D01*
X59547987Y-6354614D02*
X59557511Y-6345091D01*
X59557511Y-6345091D02*
X59576558Y-6316519D01*
X59576558Y-6316519D02*
X59586082Y-6297472D01*
X59586082Y-6297472D02*
X59595606Y-6268900D01*
X59595606Y-6268900D02*
X59605130Y-6221281D01*
X59605130Y-6221281D02*
X59605130Y-6183186D01*
X59605130Y-6183186D02*
X59595606Y-6135567D01*
X59595606Y-6135567D02*
X59586082Y-6106995D01*
X59586082Y-6106995D02*
X59576558Y-6087948D01*
X59576558Y-6087948D02*
X59557511Y-6059376D01*
X59557511Y-6059376D02*
X59547987Y-6049852D01*
X52863400Y-6350940D02*
X52863400Y-6550940D01*
X52763400Y-6450940D02*
X52963400Y-6450940D01*
X53214653Y-6361472D02*
X53224177Y-6351948D01*
X53224177Y-6351948D02*
X53243224Y-6342424D01*
X53243224Y-6342424D02*
X53290843Y-6342424D01*
X53290843Y-6342424D02*
X53309891Y-6351948D01*
X53309891Y-6351948D02*
X53319415Y-6361472D01*
X53319415Y-6361472D02*
X53328939Y-6380519D01*
X53328939Y-6380519D02*
X53328939Y-6399567D01*
X53328939Y-6399567D02*
X53319415Y-6428138D01*
X53319415Y-6428138D02*
X53205129Y-6542424D01*
X53205129Y-6542424D02*
X53328939Y-6542424D01*
X53414653Y-6523376D02*
X53424177Y-6532900D01*
X53424177Y-6532900D02*
X53414653Y-6542424D01*
X53414653Y-6542424D02*
X53405129Y-6532900D01*
X53405129Y-6532900D02*
X53414653Y-6523376D01*
X53414653Y-6523376D02*
X53414653Y-6542424D01*
X53500367Y-6361472D02*
X53509891Y-6351948D01*
X53509891Y-6351948D02*
X53528939Y-6342424D01*
X53528939Y-6342424D02*
X53576558Y-6342424D01*
X53576558Y-6342424D02*
X53595605Y-6351948D01*
X53595605Y-6351948D02*
X53605129Y-6361472D01*
X53605129Y-6361472D02*
X53614653Y-6380519D01*
X53614653Y-6380519D02*
X53614653Y-6399567D01*
X53614653Y-6399567D02*
X53605129Y-6428138D01*
X53605129Y-6428138D02*
X53490843Y-6542424D01*
X53490843Y-6542424D02*
X53614653Y-6542424D01*
X53738462Y-6342424D02*
X53757510Y-6342424D01*
X53757510Y-6342424D02*
X53776558Y-6351948D01*
X53776558Y-6351948D02*
X53786082Y-6361472D01*
X53786082Y-6361472D02*
X53795605Y-6380519D01*
X53795605Y-6380519D02*
X53805129Y-6418614D01*
X53805129Y-6418614D02*
X53805129Y-6466233D01*
X53805129Y-6466233D02*
X53795605Y-6504329D01*
X53795605Y-6504329D02*
X53786082Y-6523376D01*
X53786082Y-6523376D02*
X53776558Y-6532900D01*
X53776558Y-6532900D02*
X53757510Y-6542424D01*
X53757510Y-6542424D02*
X53738462Y-6542424D01*
X53738462Y-6542424D02*
X53719415Y-6532900D01*
X53719415Y-6532900D02*
X53709891Y-6523376D01*
X53709891Y-6523376D02*
X53700367Y-6504329D01*
X53700367Y-6504329D02*
X53690843Y-6466233D01*
X53690843Y-6466233D02*
X53690843Y-6418614D01*
X53690843Y-6418614D02*
X53700367Y-6380519D01*
X53700367Y-6380519D02*
X53709891Y-6361472D01*
X53709891Y-6361472D02*
X53719415Y-6351948D01*
X53719415Y-6351948D02*
X53738462Y-6342424D01*
X53928939Y-6342424D02*
X53947986Y-6342424D01*
X53947986Y-6342424D02*
X53967034Y-6351948D01*
X53967034Y-6351948D02*
X53976558Y-6361472D01*
X53976558Y-6361472D02*
X53986082Y-6380519D01*
X53986082Y-6380519D02*
X53995605Y-6418614D01*
X53995605Y-6418614D02*
X53995605Y-6466233D01*
X53995605Y-6466233D02*
X53986082Y-6504329D01*
X53986082Y-6504329D02*
X53976558Y-6523376D01*
X53976558Y-6523376D02*
X53967034Y-6532900D01*
X53967034Y-6532900D02*
X53947986Y-6542424D01*
X53947986Y-6542424D02*
X53928939Y-6542424D01*
X53928939Y-6542424D02*
X53909891Y-6532900D01*
X53909891Y-6532900D02*
X53900367Y-6523376D01*
X53900367Y-6523376D02*
X53890843Y-6504329D01*
X53890843Y-6504329D02*
X53881320Y-6466233D01*
X53881320Y-6466233D02*
X53881320Y-6418614D01*
X53881320Y-6418614D02*
X53890843Y-6380519D01*
X53890843Y-6380519D02*
X53900367Y-6361472D01*
X53900367Y-6361472D02*
X53909891Y-6351948D01*
X53909891Y-6351948D02*
X53928939Y-6342424D01*
X54081320Y-6542424D02*
X54081320Y-6409091D01*
X54081320Y-6428138D02*
X54090843Y-6418614D01*
X54090843Y-6418614D02*
X54109891Y-6409091D01*
X54109891Y-6409091D02*
X54138463Y-6409091D01*
X54138463Y-6409091D02*
X54157510Y-6418614D01*
X54157510Y-6418614D02*
X54167034Y-6437662D01*
X54167034Y-6437662D02*
X54167034Y-6542424D01*
X54167034Y-6437662D02*
X54176558Y-6418614D01*
X54176558Y-6418614D02*
X54195605Y-6409091D01*
X54195605Y-6409091D02*
X54224177Y-6409091D01*
X54224177Y-6409091D02*
X54243224Y-6418614D01*
X54243224Y-6418614D02*
X54252748Y-6437662D01*
X54252748Y-6437662D02*
X54252748Y-6542424D01*
X54347986Y-6542424D02*
X54347986Y-6409091D01*
X54347986Y-6428138D02*
X54357510Y-6418614D01*
X54357510Y-6418614D02*
X54376558Y-6409091D01*
X54376558Y-6409091D02*
X54405129Y-6409091D01*
X54405129Y-6409091D02*
X54424177Y-6418614D01*
X54424177Y-6418614D02*
X54433701Y-6437662D01*
X54433701Y-6437662D02*
X54433701Y-6542424D01*
X54433701Y-6437662D02*
X54443224Y-6418614D01*
X54443224Y-6418614D02*
X54462272Y-6409091D01*
X54462272Y-6409091D02*
X54490843Y-6409091D01*
X54490843Y-6409091D02*
X54509891Y-6418614D01*
X54509891Y-6418614D02*
X54519415Y-6437662D01*
X54519415Y-6437662D02*
X54519415Y-6542424D01*
X54909891Y-6332900D02*
X54738463Y-6590043D01*
X55167034Y-6342424D02*
X55186082Y-6342424D01*
X55186082Y-6342424D02*
X55205129Y-6351948D01*
X55205129Y-6351948D02*
X55214653Y-6361472D01*
X55214653Y-6361472D02*
X55224177Y-6380519D01*
X55224177Y-6380519D02*
X55233701Y-6418614D01*
X55233701Y-6418614D02*
X55233701Y-6466233D01*
X55233701Y-6466233D02*
X55224177Y-6504329D01*
X55224177Y-6504329D02*
X55214653Y-6523376D01*
X55214653Y-6523376D02*
X55205129Y-6532900D01*
X55205129Y-6532900D02*
X55186082Y-6542424D01*
X55186082Y-6542424D02*
X55167034Y-6542424D01*
X55167034Y-6542424D02*
X55147986Y-6532900D01*
X55147986Y-6532900D02*
X55138463Y-6523376D01*
X55138463Y-6523376D02*
X55128939Y-6504329D01*
X55128939Y-6504329D02*
X55119415Y-6466233D01*
X55119415Y-6466233D02*
X55119415Y-6418614D01*
X55119415Y-6418614D02*
X55128939Y-6380519D01*
X55128939Y-6380519D02*
X55138463Y-6361472D01*
X55138463Y-6361472D02*
X55147986Y-6351948D01*
X55147986Y-6351948D02*
X55167034Y-6342424D01*
X55319415Y-6523376D02*
X55328939Y-6532900D01*
X55328939Y-6532900D02*
X55319415Y-6542424D01*
X55319415Y-6542424D02*
X55309891Y-6532900D01*
X55309891Y-6532900D02*
X55319415Y-6523376D01*
X55319415Y-6523376D02*
X55319415Y-6542424D01*
X55452748Y-6342424D02*
X55471796Y-6342424D01*
X55471796Y-6342424D02*
X55490844Y-6351948D01*
X55490844Y-6351948D02*
X55500367Y-6361472D01*
X55500367Y-6361472D02*
X55509891Y-6380519D01*
X55509891Y-6380519D02*
X55519415Y-6418614D01*
X55519415Y-6418614D02*
X55519415Y-6466233D01*
X55519415Y-6466233D02*
X55509891Y-6504329D01*
X55509891Y-6504329D02*
X55500367Y-6523376D01*
X55500367Y-6523376D02*
X55490844Y-6532900D01*
X55490844Y-6532900D02*
X55471796Y-6542424D01*
X55471796Y-6542424D02*
X55452748Y-6542424D01*
X55452748Y-6542424D02*
X55433701Y-6532900D01*
X55433701Y-6532900D02*
X55424177Y-6523376D01*
X55424177Y-6523376D02*
X55414653Y-6504329D01*
X55414653Y-6504329D02*
X55405129Y-6466233D01*
X55405129Y-6466233D02*
X55405129Y-6418614D01*
X55405129Y-6418614D02*
X55414653Y-6380519D01*
X55414653Y-6380519D02*
X55424177Y-6361472D01*
X55424177Y-6361472D02*
X55433701Y-6351948D01*
X55433701Y-6351948D02*
X55452748Y-6342424D01*
X55633701Y-6428138D02*
X55614653Y-6418614D01*
X55614653Y-6418614D02*
X55605129Y-6409091D01*
X55605129Y-6409091D02*
X55595606Y-6390043D01*
X55595606Y-6390043D02*
X55595606Y-6380519D01*
X55595606Y-6380519D02*
X55605129Y-6361472D01*
X55605129Y-6361472D02*
X55614653Y-6351948D01*
X55614653Y-6351948D02*
X55633701Y-6342424D01*
X55633701Y-6342424D02*
X55671796Y-6342424D01*
X55671796Y-6342424D02*
X55690844Y-6351948D01*
X55690844Y-6351948D02*
X55700367Y-6361472D01*
X55700367Y-6361472D02*
X55709891Y-6380519D01*
X55709891Y-6380519D02*
X55709891Y-6390043D01*
X55709891Y-6390043D02*
X55700367Y-6409091D01*
X55700367Y-6409091D02*
X55690844Y-6418614D01*
X55690844Y-6418614D02*
X55671796Y-6428138D01*
X55671796Y-6428138D02*
X55633701Y-6428138D01*
X55633701Y-6428138D02*
X55614653Y-6437662D01*
X55614653Y-6437662D02*
X55605129Y-6447186D01*
X55605129Y-6447186D02*
X55595606Y-6466233D01*
X55595606Y-6466233D02*
X55595606Y-6504329D01*
X55595606Y-6504329D02*
X55605129Y-6523376D01*
X55605129Y-6523376D02*
X55614653Y-6532900D01*
X55614653Y-6532900D02*
X55633701Y-6542424D01*
X55633701Y-6542424D02*
X55671796Y-6542424D01*
X55671796Y-6542424D02*
X55690844Y-6532900D01*
X55690844Y-6532900D02*
X55700367Y-6523376D01*
X55700367Y-6523376D02*
X55709891Y-6504329D01*
X55709891Y-6504329D02*
X55709891Y-6466233D01*
X55709891Y-6466233D02*
X55700367Y-6447186D01*
X55700367Y-6447186D02*
X55690844Y-6437662D01*
X55690844Y-6437662D02*
X55671796Y-6428138D01*
X55881320Y-6342424D02*
X55843225Y-6342424D01*
X55843225Y-6342424D02*
X55824177Y-6351948D01*
X55824177Y-6351948D02*
X55814653Y-6361472D01*
X55814653Y-6361472D02*
X55795606Y-6390043D01*
X55795606Y-6390043D02*
X55786082Y-6428138D01*
X55786082Y-6428138D02*
X55786082Y-6504329D01*
X55786082Y-6504329D02*
X55795606Y-6523376D01*
X55795606Y-6523376D02*
X55805129Y-6532900D01*
X55805129Y-6532900D02*
X55824177Y-6542424D01*
X55824177Y-6542424D02*
X55862272Y-6542424D01*
X55862272Y-6542424D02*
X55881320Y-6532900D01*
X55881320Y-6532900D02*
X55890844Y-6523376D01*
X55890844Y-6523376D02*
X55900367Y-6504329D01*
X55900367Y-6504329D02*
X55900367Y-6456710D01*
X55900367Y-6456710D02*
X55890844Y-6437662D01*
X55890844Y-6437662D02*
X55881320Y-6428138D01*
X55881320Y-6428138D02*
X55862272Y-6418614D01*
X55862272Y-6418614D02*
X55824177Y-6418614D01*
X55824177Y-6418614D02*
X55805129Y-6428138D01*
X55805129Y-6428138D02*
X55795606Y-6437662D01*
X55795606Y-6437662D02*
X55786082Y-6456710D01*
X56071796Y-6342424D02*
X56033701Y-6342424D01*
X56033701Y-6342424D02*
X56014653Y-6351948D01*
X56014653Y-6351948D02*
X56005129Y-6361472D01*
X56005129Y-6361472D02*
X55986082Y-6390043D01*
X55986082Y-6390043D02*
X55976558Y-6428138D01*
X55976558Y-6428138D02*
X55976558Y-6504329D01*
X55976558Y-6504329D02*
X55986082Y-6523376D01*
X55986082Y-6523376D02*
X55995606Y-6532900D01*
X55995606Y-6532900D02*
X56014653Y-6542424D01*
X56014653Y-6542424D02*
X56052748Y-6542424D01*
X56052748Y-6542424D02*
X56071796Y-6532900D01*
X56071796Y-6532900D02*
X56081320Y-6523376D01*
X56081320Y-6523376D02*
X56090844Y-6504329D01*
X56090844Y-6504329D02*
X56090844Y-6456710D01*
X56090844Y-6456710D02*
X56081320Y-6437662D01*
X56081320Y-6437662D02*
X56071796Y-6428138D01*
X56071796Y-6428138D02*
X56052748Y-6418614D01*
X56052748Y-6418614D02*
X56014653Y-6418614D01*
X56014653Y-6418614D02*
X55995606Y-6428138D01*
X55995606Y-6428138D02*
X55986082Y-6437662D01*
X55986082Y-6437662D02*
X55976558Y-6456710D01*
X56167034Y-6342424D02*
X56167034Y-6380519D01*
X56243225Y-6342424D02*
X56243225Y-6380519D01*
X56538463Y-6618614D02*
X56528939Y-6609091D01*
X56528939Y-6609091D02*
X56509891Y-6580519D01*
X56509891Y-6580519D02*
X56500368Y-6561472D01*
X56500368Y-6561472D02*
X56490844Y-6532900D01*
X56490844Y-6532900D02*
X56481320Y-6485281D01*
X56481320Y-6485281D02*
X56481320Y-6447186D01*
X56481320Y-6447186D02*
X56490844Y-6399567D01*
X56490844Y-6399567D02*
X56500368Y-6370995D01*
X56500368Y-6370995D02*
X56509891Y-6351948D01*
X56509891Y-6351948D02*
X56528939Y-6323376D01*
X56528939Y-6323376D02*
X56538463Y-6313852D01*
X56595606Y-6342424D02*
X56719415Y-6342424D01*
X56719415Y-6342424D02*
X56652748Y-6418614D01*
X56652748Y-6418614D02*
X56681320Y-6418614D01*
X56681320Y-6418614D02*
X56700368Y-6428138D01*
X56700368Y-6428138D02*
X56709891Y-6437662D01*
X56709891Y-6437662D02*
X56719415Y-6456710D01*
X56719415Y-6456710D02*
X56719415Y-6504329D01*
X56719415Y-6504329D02*
X56709891Y-6523376D01*
X56709891Y-6523376D02*
X56700368Y-6532900D01*
X56700368Y-6532900D02*
X56681320Y-6542424D01*
X56681320Y-6542424D02*
X56624177Y-6542424D01*
X56624177Y-6542424D02*
X56605129Y-6532900D01*
X56605129Y-6532900D02*
X56595606Y-6523376D01*
X56890844Y-6342424D02*
X56852748Y-6342424D01*
X56852748Y-6342424D02*
X56833701Y-6351948D01*
X56833701Y-6351948D02*
X56824177Y-6361472D01*
X56824177Y-6361472D02*
X56805129Y-6390043D01*
X56805129Y-6390043D02*
X56795606Y-6428138D01*
X56795606Y-6428138D02*
X56795606Y-6504329D01*
X56795606Y-6504329D02*
X56805129Y-6523376D01*
X56805129Y-6523376D02*
X56814653Y-6532900D01*
X56814653Y-6532900D02*
X56833701Y-6542424D01*
X56833701Y-6542424D02*
X56871796Y-6542424D01*
X56871796Y-6542424D02*
X56890844Y-6532900D01*
X56890844Y-6532900D02*
X56900368Y-6523376D01*
X56900368Y-6523376D02*
X56909891Y-6504329D01*
X56909891Y-6504329D02*
X56909891Y-6456710D01*
X56909891Y-6456710D02*
X56900368Y-6437662D01*
X56900368Y-6437662D02*
X56890844Y-6428138D01*
X56890844Y-6428138D02*
X56871796Y-6418614D01*
X56871796Y-6418614D02*
X56833701Y-6418614D01*
X56833701Y-6418614D02*
X56814653Y-6428138D01*
X56814653Y-6428138D02*
X56805129Y-6437662D01*
X56805129Y-6437662D02*
X56795606Y-6456710D01*
X57147987Y-6542424D02*
X57147987Y-6342424D01*
X57233701Y-6542424D02*
X57233701Y-6437662D01*
X57233701Y-6437662D02*
X57224177Y-6418614D01*
X57224177Y-6418614D02*
X57205130Y-6409091D01*
X57205130Y-6409091D02*
X57176558Y-6409091D01*
X57176558Y-6409091D02*
X57157510Y-6418614D01*
X57157510Y-6418614D02*
X57147987Y-6428138D01*
X57357510Y-6542424D02*
X57338463Y-6532900D01*
X57338463Y-6532900D02*
X57328939Y-6523376D01*
X57328939Y-6523376D02*
X57319415Y-6504329D01*
X57319415Y-6504329D02*
X57319415Y-6447186D01*
X57319415Y-6447186D02*
X57328939Y-6428138D01*
X57328939Y-6428138D02*
X57338463Y-6418614D01*
X57338463Y-6418614D02*
X57357510Y-6409091D01*
X57357510Y-6409091D02*
X57386082Y-6409091D01*
X57386082Y-6409091D02*
X57405130Y-6418614D01*
X57405130Y-6418614D02*
X57414653Y-6428138D01*
X57414653Y-6428138D02*
X57424177Y-6447186D01*
X57424177Y-6447186D02*
X57424177Y-6504329D01*
X57424177Y-6504329D02*
X57414653Y-6523376D01*
X57414653Y-6523376D02*
X57405130Y-6532900D01*
X57405130Y-6532900D02*
X57386082Y-6542424D01*
X57386082Y-6542424D02*
X57357510Y-6542424D01*
X57538463Y-6542424D02*
X57519415Y-6532900D01*
X57519415Y-6532900D02*
X57509891Y-6513852D01*
X57509891Y-6513852D02*
X57509891Y-6342424D01*
X57690844Y-6532900D02*
X57671796Y-6542424D01*
X57671796Y-6542424D02*
X57633701Y-6542424D01*
X57633701Y-6542424D02*
X57614653Y-6532900D01*
X57614653Y-6532900D02*
X57605130Y-6513852D01*
X57605130Y-6513852D02*
X57605130Y-6437662D01*
X57605130Y-6437662D02*
X57614653Y-6418614D01*
X57614653Y-6418614D02*
X57633701Y-6409091D01*
X57633701Y-6409091D02*
X57671796Y-6409091D01*
X57671796Y-6409091D02*
X57690844Y-6418614D01*
X57690844Y-6418614D02*
X57700368Y-6437662D01*
X57700368Y-6437662D02*
X57700368Y-6456710D01*
X57700368Y-6456710D02*
X57605130Y-6475757D01*
X57776558Y-6532900D02*
X57795606Y-6542424D01*
X57795606Y-6542424D02*
X57833701Y-6542424D01*
X57833701Y-6542424D02*
X57852749Y-6532900D01*
X57852749Y-6532900D02*
X57862272Y-6513852D01*
X57862272Y-6513852D02*
X57862272Y-6504329D01*
X57862272Y-6504329D02*
X57852749Y-6485281D01*
X57852749Y-6485281D02*
X57833701Y-6475757D01*
X57833701Y-6475757D02*
X57805130Y-6475757D01*
X57805130Y-6475757D02*
X57786082Y-6466233D01*
X57786082Y-6466233D02*
X57776558Y-6447186D01*
X57776558Y-6447186D02*
X57776558Y-6437662D01*
X57776558Y-6437662D02*
X57786082Y-6418614D01*
X57786082Y-6418614D02*
X57805130Y-6409091D01*
X57805130Y-6409091D02*
X57833701Y-6409091D01*
X57833701Y-6409091D02*
X57852749Y-6418614D01*
X57928939Y-6618614D02*
X57938463Y-6609091D01*
X57938463Y-6609091D02*
X57957511Y-6580519D01*
X57957511Y-6580519D02*
X57967034Y-6561472D01*
X57967034Y-6561472D02*
X57976558Y-6532900D01*
X57976558Y-6532900D02*
X57986082Y-6485281D01*
X57986082Y-6485281D02*
X57986082Y-6447186D01*
X57986082Y-6447186D02*
X57976558Y-6399567D01*
X57976558Y-6399567D02*
X57967034Y-6370995D01*
X57967034Y-6370995D02*
X57957511Y-6351948D01*
X57957511Y-6351948D02*
X57938463Y-6323376D01*
X57938463Y-6323376D02*
X57928939Y-6313852D01*
M02*
