%TF.GenerationSoftware,KiCad,Pcbnew,8.99.0-946-gf00a1ab517*%
%TF.CreationDate,2024-05-19T19:51:51+07:00*%
%TF.ProjectId,dtb_toro,6474625f-746f-4726-9f2e-6b696361645f,rev?*%
%TF.SameCoordinates,Original*%
%TF.FileFunction,Profile,NP*%
%FSLAX46Y46*%
G04 Gerber Fmt 4.6, Leading zero omitted, Abs format (unit mm)*
G04 Created by KiCad (PCBNEW 8.99.0-946-gf00a1ab517) date 2024-05-19 19:51:51*
%MOMM*%
%LPD*%
G01*
G04 APERTURE LIST*
%TA.AperFunction,Profile*%
%ADD10C,0.050000*%
%TD*%
%TA.AperFunction,Profile*%
%ADD11C,0.500000*%
%TD*%
G04 APERTURE END LIST*
D10*
X546473201Y-52579402D02*
X536266615Y-52579399D01*
X543469816Y37420296D02*
X546473201Y37420297D01*
X543470031Y35120343D02*
X546473416Y35120344D01*
X536266615Y37420300D02*
X539270000Y37420301D01*
X536266816Y35120390D02*
X539270201Y35120391D01*
X540569924Y36270341D02*
G75*
G02*
X539570126Y36270341I-499899J0D01*
G01*
X539570126Y36270341D02*
G75*
G02*
X540569924Y36270341I499899J0D01*
G01*
X543169924Y36270341D02*
G75*
G02*
X542170126Y36270341I-499899J0D01*
G01*
X542170126Y36270341D02*
G75*
G02*
X543169924Y36270341I499899J0D01*
G01*
X541869924Y36270341D02*
G75*
G02*
X540870126Y36270341I-499899J0D01*
G01*
X540870126Y36270341D02*
G75*
G02*
X541869924Y36270341I499899J0D01*
G01*
X543469816Y37420339D02*
X543470031Y35120343D01*
X539270000Y37420344D02*
X539270201Y35120391D01*
D11*
X550157216Y-6743570D02*
G75*
G02*
X548073569Y-5689272I-12J2586118D01*
G01*
X534666343Y-15689259D02*
G75*
G02*
X536266816Y-14879481I1600549J-1176877D01*
G01*
X550157216Y-26743484D02*
G75*
G02*
X548073569Y-25689186I-12J2586118D01*
G01*
X546473416Y-14879527D02*
G75*
G02*
X548073584Y-15689214I-45J-1986122D01*
G01*
X548073610Y-31769730D02*
G75*
G02*
X546473201Y-32579488I-1600382J1176595D01*
G01*
X550870016Y-16743527D02*
G75*
G02*
X550869905Y-20715443I26J-1985958D01*
G01*
X534666342Y-15689259D02*
G75*
G02*
X532583016Y-16743489I-2083445J1531613D01*
G01*
X532582716Y-30715484D02*
X531870016Y-30715484D01*
X548073610Y-21769773D02*
G75*
G02*
X546473201Y-22579531I-1600382J1176595D01*
G01*
X531870016Y-40715441D02*
G75*
G02*
X531888591Y-36743444I26J1986042D01*
G01*
X546473416Y-24879484D02*
G75*
G02*
X548073584Y-25689171I-45J-1986122D01*
G01*
X534666342Y-5689302D02*
G75*
G02*
X532583016Y-6743532I-2083445J1531613D01*
G01*
X532582716Y-20715527D02*
G75*
G02*
X534666444Y-21769866I95J-2586054D01*
G01*
X536266615Y-22579528D02*
G75*
G02*
X534666444Y-21769866I4J1986084D01*
G01*
X532582716Y-20715527D02*
X531870016Y-20715527D01*
X531870016Y-30715484D02*
G75*
G02*
X531888591Y-26743487I26J1986042D01*
G01*
D10*
X532583016Y-36743402D02*
X531888591Y-36743444D01*
D11*
X532582716Y-10715570D02*
G75*
G02*
X534666444Y-11769909I95J-2586054D01*
G01*
X531870016Y-10715570D02*
G75*
G02*
X531888591Y-6743573I26J1986042D01*
G01*
D10*
X550870016Y-16743527D02*
X550157216Y-16743527D01*
D11*
X532582716Y-40715441D02*
G75*
G02*
X534666444Y-41769780I95J-2586054D01*
G01*
X550870016Y23256301D02*
G75*
G02*
X550869905Y19284385I26J-1985958D01*
G01*
X548073610Y18230055D02*
G75*
G02*
X546473201Y17420297I-1600382J1176595D01*
G01*
X548073610Y18230055D02*
G75*
G02*
X550157361Y19284337I2083697J-1531982D01*
G01*
X550869905Y-40715357D02*
X550157361Y-40715405D01*
X531870016Y-20715527D02*
G75*
G02*
X531888591Y-16743530I26J1986042D01*
G01*
X548073610Y-41769687D02*
G75*
G02*
X546473201Y-42579445I-1600382J1176595D01*
G01*
X531870016Y9284344D02*
G75*
G02*
X531888591Y13256341I26J1986042D01*
G01*
X534666342Y-35689173D02*
G75*
G02*
X532583016Y-36743403I-2083445J1531613D01*
G01*
X548073610Y-21769773D02*
G75*
G02*
X550157361Y-20715491I2083697J-1531982D01*
G01*
D10*
X532583016Y-6743531D02*
X531888591Y-6743573D01*
D11*
X550869905Y-10715486D02*
X550157361Y-10715534D01*
X534666343Y-5689302D02*
G75*
G02*
X536266816Y-4879524I1600549J-1176877D01*
G01*
D10*
X550870016Y-6743570D02*
X550157216Y-6743570D01*
X532583016Y23256340D02*
X531888591Y23256298D01*
D11*
X550869905Y-20715443D02*
X550157361Y-20715491D01*
X550157216Y-16743527D02*
G75*
G02*
X548073569Y-15689229I-12J2586118D01*
G01*
D10*
X532583016Y-16743488D02*
X531888591Y-16743530D01*
D11*
X550870016Y-6743570D02*
G75*
G02*
X550869905Y-10715486I26J-1985958D01*
G01*
X536266615Y17420300D02*
G75*
G02*
X534666444Y18229962I4J1986084D01*
G01*
X548073610Y-11769816D02*
G75*
G02*
X546473201Y-12579574I-1600382J1176595D01*
G01*
X532582716Y-10715570D02*
X531870016Y-10715570D01*
X536266615Y-12579571D02*
G75*
G02*
X534666444Y-11769909I4J1986084D01*
G01*
X546473416Y25120301D02*
G75*
G02*
X548073584Y24310614I-45J-1986122D01*
G01*
X546473416Y-4879570D02*
G75*
G02*
X548073584Y-5689257I-45J-1986122D01*
G01*
X548073610Y-11769816D02*
G75*
G02*
X550157361Y-10715534I2083697J-1531982D01*
G01*
X550869905Y-30715400D02*
X550157361Y-30715448D01*
X532582716Y-30715484D02*
G75*
G02*
X534666444Y-31769823I95J-2586054D01*
G01*
X550870016Y-26743484D02*
G75*
G02*
X550869905Y-30715400I26J-1985958D01*
G01*
X534666342Y-25689216D02*
G75*
G02*
X532583016Y-26743446I-2083445J1531613D01*
G01*
X548073610Y-31769730D02*
G75*
G02*
X550157361Y-30715448I2083697J-1531982D01*
G01*
D10*
X532583016Y-26743445D02*
X531888591Y-26743487D01*
D11*
X536266615Y-32579485D02*
G75*
G02*
X534666444Y-31769823I4J1986084D01*
G01*
D10*
X550870016Y-26743484D02*
X550157216Y-26743484D01*
D11*
X534666343Y-25689216D02*
G75*
G02*
X536266816Y-24879438I1600549J-1176877D01*
G01*
D10*
X550870016Y33256301D02*
X550157216Y33256301D01*
D11*
X531870016Y29284301D02*
G75*
G02*
X531888591Y33256298I26J1986042D01*
G01*
X532582716Y29284301D02*
G75*
G02*
X534666444Y28229962I94J-2586058D01*
G01*
X550869905Y29284385D02*
X550157361Y29284337D01*
X534666342Y34310569D02*
G75*
G02*
X532583016Y33256340I-2083447J1531617D01*
G01*
D10*
X532583016Y33256340D02*
X531888591Y33256298D01*
D11*
X548073610Y28230055D02*
G75*
G02*
X546473201Y27420297I-1600382J1176595D01*
G01*
X532582716Y29284301D02*
X531870016Y29284301D01*
X550157216Y33256301D02*
G75*
G02*
X548073569Y34310599I-12J2586118D01*
G01*
X548073610Y28230055D02*
G75*
G02*
X550157361Y29284337I2083697J-1531982D01*
G01*
X546473416Y35120301D02*
G75*
G02*
X548073584Y34310614I-47J-1986126D01*
G01*
X550870016Y33256301D02*
G75*
G02*
X550869905Y29284385I26J-1985958D01*
G01*
X534666343Y24310569D02*
G75*
G02*
X536266816Y25120347I1600549J-1176877D01*
G01*
X534666343Y34310569D02*
G75*
G02*
X536266816Y35120347I1600551J-1176880D01*
G01*
X550157216Y23256301D02*
G75*
G02*
X548073569Y24310599I-12J2586118D01*
G01*
X532582716Y19284301D02*
G75*
G02*
X534666444Y18229962I95J-2586054D01*
G01*
X548073610Y8230098D02*
G75*
G02*
X546473201Y7420340I-1600382J1176595D01*
G01*
X532582716Y9284344D02*
X531870016Y9284344D01*
X536266615Y27420300D02*
G75*
G02*
X534666444Y28229962I4J1986084D01*
G01*
X550157216Y13256344D02*
G75*
G02*
X548073569Y14310642I-12J2586118D01*
G01*
X534666342Y24310569D02*
G75*
G02*
X532583016Y23256339I-2083445J1531613D01*
G01*
X550869905Y19284385D02*
X550157361Y19284337D01*
D10*
X550870016Y23256301D02*
X550157216Y23256301D01*
X550870016Y13256344D02*
X550157216Y13256344D01*
D11*
X532582716Y19284301D02*
X531870016Y19284301D01*
X531870016Y19284301D02*
G75*
G02*
X531888591Y23256298I26J1986042D01*
G01*
X550870016Y-36743441D02*
G75*
G02*
X550869905Y-40715357I26J-1985958D01*
G01*
X536266615Y-42579442D02*
G75*
G02*
X534666444Y-41769780I4J1986084D01*
G01*
X534666343Y-35689173D02*
G75*
G02*
X536266816Y-34879395I1600549J-1176877D01*
G01*
X532582716Y-40715441D02*
X531870016Y-40715441D01*
D10*
X550870016Y-46743398D02*
X550157216Y-46743398D01*
D11*
X546473416Y-34879441D02*
G75*
G02*
X548073584Y-35689128I-45J-1986122D01*
G01*
X548073610Y-41769687D02*
G75*
G02*
X550157361Y-40715405I2083697J-1531982D01*
G01*
D10*
X550870016Y-36743441D02*
X550157216Y-36743441D01*
D11*
X532582716Y-50715398D02*
G75*
G02*
X534666444Y-51769737I95J-2586054D01*
G01*
X532582716Y-50715398D02*
X531870016Y-50715398D01*
X550869905Y-50715314D02*
X550157361Y-50715362D01*
D10*
X532583016Y-46743359D02*
X531888591Y-46743401D01*
D11*
X550157216Y-36743441D02*
G75*
G02*
X548073569Y-35689143I-12J2586118D01*
G01*
X531870016Y-50715398D02*
G75*
G02*
X531888591Y-46743401I26J1986042D01*
G01*
X550157216Y-46743398D02*
G75*
G02*
X548073569Y-45689100I-12J2586118D01*
G01*
X548073610Y-51769644D02*
G75*
G02*
X550157361Y-50715362I2083697J-1531982D01*
G01*
X550870016Y-46743398D02*
G75*
G02*
X550869905Y-50715314I26J-1985958D01*
G01*
X546473416Y-44879398D02*
G75*
G02*
X548073584Y-45689085I-45J-1986122D01*
G01*
X536266615Y-52579399D02*
G75*
G02*
X534666444Y-51769737I4J1986084D01*
G01*
X534666343Y-45689130D02*
G75*
G02*
X536266816Y-44879352I1600549J-1176877D01*
G01*
D10*
X543469816Y27420296D02*
X546473201Y27420297D01*
X536266615Y27420300D02*
X539270000Y27420301D01*
D11*
X534666342Y-45689130D02*
G75*
G02*
X532583016Y-46743360I-2083445J1531613D01*
G01*
X548073610Y-51769644D02*
G75*
G02*
X546473201Y-52579402I-1600382J1176595D01*
G01*
X550869905Y-715529D02*
X550157361Y-715577D01*
X550869905Y9284428D02*
X550157361Y9284380D01*
X550870016Y3256387D02*
G75*
G02*
X550869905Y-715529I26J-1985958D01*
G01*
X548073610Y8230098D02*
G75*
G02*
X550157361Y9284380I2083697J-1531982D01*
G01*
X531870016Y-715613D02*
G75*
G02*
X531888591Y3256384I26J1986042D01*
G01*
D10*
X536266615Y-42579442D02*
X539270000Y-42579441D01*
X536266615Y-12579571D02*
X539270000Y-12579570D01*
X536266816Y25120347D02*
X539270201Y25120348D01*
D11*
X536266615Y-2579614D02*
G75*
G02*
X534666444Y-1769952I4J1986084D01*
G01*
D10*
X532583016Y13256383D02*
X531888591Y13256341D01*
X532583016Y3256426D02*
X531888591Y3256384D01*
D11*
X550157216Y3256387D02*
G75*
G02*
X548073569Y4310685I-12J2586118D01*
G01*
X534666343Y4310655D02*
G75*
G02*
X536266816Y5120433I1600549J-1176877D01*
G01*
D10*
X550870016Y3256387D02*
X550157216Y3256387D01*
D11*
X532582716Y-715613D02*
X531870016Y-715613D01*
D10*
X539270000Y27420301D02*
X539270201Y25120348D01*
X536266816Y-44879352D02*
X539270201Y-44879351D01*
D11*
X534666342Y4310655D02*
G75*
G02*
X532583016Y3256425I-2083445J1531613D01*
G01*
X534666342Y14310612D02*
G75*
G02*
X532583016Y13256382I-2083445J1531613D01*
G01*
X546473416Y5120387D02*
G75*
G02*
X548073584Y4310700I-45J-1986122D01*
G01*
X548073610Y-1769859D02*
G75*
G02*
X546473201Y-2579617I-1600382J1176595D01*
G01*
X536266615Y7420343D02*
G75*
G02*
X534666444Y8230005I4J1986084D01*
G01*
X534666343Y14310612D02*
G75*
G02*
X536266816Y15120390I1600549J-1176877D01*
G01*
X532582716Y9284344D02*
G75*
G02*
X534666444Y8230005I95J-2586054D01*
G01*
X548073610Y-1769859D02*
G75*
G02*
X550157361Y-715577I2083697J-1531982D01*
G01*
X550870016Y13256344D02*
G75*
G02*
X550869905Y9284428I26J-1985958D01*
G01*
D10*
X543470031Y-44879399D02*
X546473416Y-44879398D01*
D11*
X532582716Y-715613D02*
G75*
G02*
X534666444Y-1769952I95J-2586054D01*
G01*
D10*
X536266816Y-34879395D02*
X539270201Y-34879394D01*
X543469816Y17420296D02*
X546473201Y17420297D01*
X543469816Y-12579575D02*
X546473201Y-12579574D01*
D11*
X546473416Y15120344D02*
G75*
G02*
X548073584Y14310657I-45J-1986122D01*
G01*
D10*
X536266615Y-32579485D02*
X539270000Y-32579484D01*
X536266816Y5120433D02*
X539270201Y5120434D01*
X539270000Y7420344D02*
X539270201Y5120391D01*
X539270000Y-42579441D02*
X539270201Y-44879394D01*
X536266816Y-24879438D02*
X539270201Y-24879437D01*
X543470031Y-14879528D02*
X546473416Y-14879527D01*
X543470031Y-24879485D02*
X546473416Y-24879484D01*
X543470031Y15120343D02*
X546473416Y15120344D01*
X536266816Y-4879524D02*
X539270201Y-4879523D01*
X536266615Y7420343D02*
X539270000Y7420344D01*
X543169924Y16270298D02*
G75*
G02*
X542170126Y16270298I-499899J0D01*
G01*
X542170126Y16270298D02*
G75*
G02*
X543169924Y16270298I499899J0D01*
G01*
X543469816Y7420339D02*
X546473201Y7420340D01*
X543470031Y25120300D02*
X546473416Y25120301D01*
X539270000Y-32579484D02*
X539270201Y-34879437D01*
X540569924Y-13729573D02*
G75*
G02*
X539570126Y-13729573I-499899J0D01*
G01*
X539570126Y-13729573D02*
G75*
G02*
X540569924Y-13729573I499899J0D01*
G01*
X540569924Y-43729444D02*
G75*
G02*
X539570126Y-43729444I-499899J0D01*
G01*
X539570126Y-43729444D02*
G75*
G02*
X540569924Y-43729444I499899J0D01*
G01*
X541869924Y6270341D02*
G75*
G02*
X540870126Y6270341I-499899J0D01*
G01*
X540870126Y6270341D02*
G75*
G02*
X541869924Y6270341I499899J0D01*
G01*
X543169924Y-43729444D02*
G75*
G02*
X542170126Y-43729444I-499899J0D01*
G01*
X542170126Y-43729444D02*
G75*
G02*
X543169924Y-43729444I499899J0D01*
G01*
X543169924Y-33729487D02*
G75*
G02*
X542170126Y-33729487I-499899J0D01*
G01*
X542170126Y-33729487D02*
G75*
G02*
X543169924Y-33729487I499899J0D01*
G01*
X543169924Y-3729616D02*
G75*
G02*
X542170126Y-3729616I-499899J0D01*
G01*
X542170126Y-3729616D02*
G75*
G02*
X543169924Y-3729616I499899J0D01*
G01*
X543469816Y-22579532D02*
X543470031Y-24879528D01*
X543169924Y-23729530D02*
G75*
G02*
X542170126Y-23729530I-499899J0D01*
G01*
X542170126Y-23729530D02*
G75*
G02*
X543169924Y-23729530I499899J0D01*
G01*
X543469816Y-2579618D02*
X546473201Y-2579617D01*
X543469816Y17420296D02*
X543470031Y15120300D01*
X539270000Y-12579570D02*
X539270201Y-14879523D01*
X543469816Y7420339D02*
X543470031Y5120343D01*
X539270000Y-22579527D02*
X539270201Y-24879480D01*
X543469816Y-42579446D02*
X543470031Y-44879442D01*
X536266816Y-14879481D02*
X539270201Y-14879480D01*
X541869924Y-3729616D02*
G75*
G02*
X540870126Y-3729616I-499899J0D01*
G01*
X540870126Y-3729616D02*
G75*
G02*
X541869924Y-3729616I499899J0D01*
G01*
X541870000Y26270325D02*
G75*
G02*
X540870202Y26270325I-499899J0D01*
G01*
X540870202Y26270325D02*
G75*
G02*
X541870000Y26270325I499899J0D01*
G01*
X540569924Y-23729530D02*
G75*
G02*
X539570126Y-23729530I-499899J0D01*
G01*
X539570126Y-23729530D02*
G75*
G02*
X540569924Y-23729530I499899J0D01*
G01*
X536266816Y15120390D02*
X539270201Y15120391D01*
X540569924Y-3729616D02*
G75*
G02*
X539570126Y-3729616I-499899J0D01*
G01*
X539570126Y-3729616D02*
G75*
G02*
X540569924Y-3729616I499899J0D01*
G01*
X543470031Y-34879442D02*
X546473416Y-34879441D01*
X543469816Y-32579489D02*
X543470031Y-34879485D01*
X539270000Y-2579613D02*
X539270201Y-4879566D01*
X543469816Y-2579618D02*
X543470031Y-4879614D01*
X540569924Y6270341D02*
G75*
G02*
X539570126Y6270341I-499899J0D01*
G01*
X539570126Y6270341D02*
G75*
G02*
X540569924Y6270341I499899J0D01*
G01*
X541869924Y16270298D02*
G75*
G02*
X540870126Y16270298I-499899J0D01*
G01*
X540870126Y16270298D02*
G75*
G02*
X541869924Y16270298I499899J0D01*
G01*
X543170000Y26270325D02*
G75*
G02*
X542170202Y26270325I-499899J0D01*
G01*
X542170202Y26270325D02*
G75*
G02*
X543170000Y26270325I499899J0D01*
G01*
X543169924Y6270341D02*
G75*
G02*
X542170126Y6270341I-499899J0D01*
G01*
X542170126Y6270341D02*
G75*
G02*
X543169924Y6270341I499899J0D01*
G01*
X543470031Y-4879571D02*
X546473416Y-4879570D01*
X540569924Y-33729487D02*
G75*
G02*
X539570126Y-33729487I-499899J0D01*
G01*
X539570126Y-33729487D02*
G75*
G02*
X540569924Y-33729487I499899J0D01*
G01*
X536266615Y-2579614D02*
X539270000Y-2579613D01*
X536266615Y17420300D02*
X539270000Y17420301D01*
X543469816Y-32579489D02*
X546473201Y-32579488D01*
X543469816Y-12579575D02*
X543470031Y-14879571D01*
X543469816Y-22579532D02*
X546473201Y-22579531D01*
X543470031Y5120386D02*
X546473416Y5120387D01*
X543169924Y-13729573D02*
G75*
G02*
X542170126Y-13729573I-499899J0D01*
G01*
X542170126Y-13729573D02*
G75*
G02*
X543169924Y-13729573I499899J0D01*
G01*
X543469816Y-42579446D02*
X546473201Y-42579445D01*
X541869924Y-23729530D02*
G75*
G02*
X540870126Y-23729530I-499899J0D01*
G01*
X540870126Y-23729530D02*
G75*
G02*
X541869924Y-23729530I499899J0D01*
G01*
X539270000Y17420301D02*
X539270201Y15120348D01*
X543469816Y27420296D02*
X543470031Y25120300D01*
X536266615Y-22579528D02*
X539270000Y-22579527D01*
X541869924Y-13729573D02*
G75*
G02*
X540870126Y-13729573I-499899J0D01*
G01*
X540870126Y-13729573D02*
G75*
G02*
X541869924Y-13729573I499899J0D01*
G01*
X540569924Y16270298D02*
G75*
G02*
X539570126Y16270298I-499899J0D01*
G01*
X539570126Y16270298D02*
G75*
G02*
X540569924Y16270298I499899J0D01*
G01*
X541869924Y-33729487D02*
G75*
G02*
X540870126Y-33729487I-499899J0D01*
G01*
X540870126Y-33729487D02*
G75*
G02*
X541869924Y-33729487I499899J0D01*
G01*
X540570000Y26270325D02*
G75*
G02*
X539570202Y26270325I-499899J0D01*
G01*
X539570202Y26270325D02*
G75*
G02*
X540570000Y26270325I499899J0D01*
G01*
X541869924Y-43729444D02*
G75*
G02*
X540870126Y-43729444I-499899J0D01*
G01*
X540870126Y-43729444D02*
G75*
G02*
X541869924Y-43729444I499899J0D01*
G01*
X540569924Y46270255D02*
G75*
G02*
X539570126Y46270255I-499899J0D01*
G01*
X539570126Y46270255D02*
G75*
G02*
X540569924Y46270255I499899J0D01*
G01*
X543169924Y46270255D02*
G75*
G02*
X542170126Y46270255I-499899J0D01*
G01*
X542170126Y46270255D02*
G75*
G02*
X543169924Y46270255I499899J0D01*
G01*
X541869924Y46270255D02*
G75*
G02*
X540870126Y46270255I-499899J0D01*
G01*
X540870126Y46270255D02*
G75*
G02*
X541869924Y46270255I499899J0D01*
G01*
X540569924Y56270212D02*
G75*
G02*
X539570126Y56270212I-499899J0D01*
G01*
X539570126Y56270212D02*
G75*
G02*
X540569924Y56270212I499899J0D01*
G01*
X543169924Y56270212D02*
G75*
G02*
X542170126Y56270212I-499899J0D01*
G01*
X542170126Y56270212D02*
G75*
G02*
X543169924Y56270212I499899J0D01*
G01*
X541869924Y56270212D02*
G75*
G02*
X540870126Y56270212I-499899J0D01*
G01*
X540870126Y56270212D02*
G75*
G02*
X541869924Y56270212I499899J0D01*
G01*
X540569924Y66270169D02*
G75*
G02*
X539570126Y66270169I-499899J0D01*
G01*
X539570126Y66270169D02*
G75*
G02*
X540569924Y66270169I499899J0D01*
G01*
X543169924Y66270169D02*
G75*
G02*
X542170126Y66270169I-499899J0D01*
G01*
X542170126Y66270169D02*
G75*
G02*
X543169924Y66270169I499899J0D01*
G01*
X541869924Y66270169D02*
G75*
G02*
X540870126Y66270169I-499899J0D01*
G01*
X540870126Y66270169D02*
G75*
G02*
X541869924Y66270169I499899J0D01*
G01*
X540569924Y76270126D02*
G75*
G02*
X539570126Y76270126I-499899J0D01*
G01*
X539570126Y76270126D02*
G75*
G02*
X540569924Y76270126I499899J0D01*
G01*
X543169924Y76270126D02*
G75*
G02*
X542170126Y76270126I-499899J0D01*
G01*
X542170126Y76270126D02*
G75*
G02*
X543169924Y76270126I499899J0D01*
G01*
X541869924Y76270126D02*
G75*
G02*
X540870126Y76270126I-499899J0D01*
G01*
X540870126Y76270126D02*
G75*
G02*
X541869924Y76270126I499899J0D01*
G01*
X540569924Y86270083D02*
G75*
G02*
X539570126Y86270083I-499899J0D01*
G01*
X539570126Y86270083D02*
G75*
G02*
X540569924Y86270083I499899J0D01*
G01*
X543169924Y86270083D02*
G75*
G02*
X542170126Y86270083I-499899J0D01*
G01*
X542170126Y86270083D02*
G75*
G02*
X543169924Y86270083I499899J0D01*
G01*
X541869924Y86270083D02*
G75*
G02*
X540870126Y86270083I-499899J0D01*
G01*
X540870126Y86270083D02*
G75*
G02*
X541869924Y86270083I499899J0D01*
G01*
X540569924Y96270040D02*
G75*
G02*
X539570126Y96270040I-499899J0D01*
G01*
X539570126Y96270040D02*
G75*
G02*
X540569924Y96270040I499899J0D01*
G01*
X543169924Y96270040D02*
G75*
G02*
X542170126Y96270040I-499899J0D01*
G01*
X542170126Y96270040D02*
G75*
G02*
X543169924Y96270040I499899J0D01*
G01*
X541869924Y96270040D02*
G75*
G02*
X540870126Y96270040I-499899J0D01*
G01*
X540870126Y96270040D02*
G75*
G02*
X541869924Y96270040I499899J0D01*
G01*
X540569924Y106269997D02*
G75*
G02*
X539570126Y106269997I-499899J0D01*
G01*
X539570126Y106269997D02*
G75*
G02*
X540569924Y106269997I499899J0D01*
G01*
X543169924Y106269997D02*
G75*
G02*
X542170126Y106269997I-499899J0D01*
G01*
X542170126Y106269997D02*
G75*
G02*
X543169924Y106269997I499899J0D01*
G01*
X541869924Y106269997D02*
G75*
G02*
X540870126Y106269997I-499899J0D01*
G01*
X540870126Y106269997D02*
G75*
G02*
X541869924Y106269997I499899J0D01*
G01*
X543170000Y116270024D02*
G75*
G02*
X542170202Y116270024I-499899J0D01*
G01*
X542170202Y116270024D02*
G75*
G02*
X543170000Y116270024I499899J0D01*
G01*
X541870000Y116270024D02*
G75*
G02*
X540870202Y116270024I-499899J0D01*
G01*
X540870202Y116270024D02*
G75*
G02*
X541870000Y116270024I499899J0D01*
G01*
X540570000Y116270024D02*
G75*
G02*
X539570202Y116270024I-499899J0D01*
G01*
X539570202Y116270024D02*
G75*
G02*
X540570000Y116270024I499899J0D01*
G01*
X543469816Y47420253D02*
X543470031Y45120257D01*
X539270000Y47420258D02*
X539270201Y45120305D01*
X543469816Y57420210D02*
X543470031Y55120214D01*
X539270000Y57420215D02*
X539270201Y55120262D01*
X543469816Y67420167D02*
X543470031Y65120171D01*
X539270000Y67420172D02*
X539270201Y65120219D01*
X543469816Y77420124D02*
X543470031Y75120128D01*
X539270000Y77420129D02*
X539270201Y75120176D01*
X543469816Y87420081D02*
X543470031Y85120085D01*
X539270000Y87420086D02*
X539270201Y85120133D01*
X543469816Y97420038D02*
X543470031Y95120042D01*
X539270000Y97420043D02*
X539270201Y95120090D01*
X543469816Y107419995D02*
X543470031Y105119999D01*
X539270000Y107420000D02*
X539270201Y105120047D01*
X539270000Y117420000D02*
X539270201Y115120047D01*
X543470031Y45120300D02*
X546473416Y45120301D01*
X536266816Y45120347D02*
X539270201Y45120348D01*
X543470031Y55120257D02*
X546473416Y55120258D01*
X536266816Y55120304D02*
X539270201Y55120305D01*
X543470031Y65120214D02*
X546473416Y65120215D01*
X536266816Y65120261D02*
X539270201Y65120262D01*
X543470031Y75120171D02*
X546473416Y75120172D01*
X536266816Y75120218D02*
X539270201Y75120219D01*
X543470031Y85120128D02*
X546473416Y85120129D01*
X536266816Y85120175D02*
X539270201Y85120176D01*
X543470031Y95120085D02*
X546473416Y95120086D01*
X536266816Y95120132D02*
X539270201Y95120133D01*
X543470031Y105120042D02*
X546473416Y105120043D01*
X536266816Y105120089D02*
X539270201Y105120090D01*
X543470031Y115119999D02*
X546473416Y115120000D01*
X536266816Y115120046D02*
X539270201Y115120047D01*
X536266615Y47420257D02*
X539270000Y47420258D01*
X543469816Y47420253D02*
X546473201Y47420254D01*
X536266615Y57420214D02*
X539270000Y57420215D01*
X543469816Y57420210D02*
X546473201Y57420211D01*
X536266615Y67420171D02*
X539270000Y67420172D01*
X543469816Y67420167D02*
X546473201Y67420168D01*
X536266615Y77420128D02*
X539270000Y77420129D01*
X543469816Y77420124D02*
X546473201Y77420125D01*
X536266615Y87420085D02*
X539270000Y87420086D01*
X543469816Y87420081D02*
X546473201Y87420082D01*
X536266615Y97420042D02*
X539270000Y97420043D01*
X543469816Y97420038D02*
X546473201Y97420039D01*
X536266615Y107419999D02*
X539270000Y107420000D01*
X543469816Y107419995D02*
X546473201Y107419996D01*
X543469816Y117419995D02*
X546473201Y117419996D01*
X536266615Y117419999D02*
X539270000Y117420000D01*
D11*
X534666343Y44310569D02*
G75*
G02*
X536266816Y45120347I1600551J-1176880D01*
G01*
X536266615Y37420300D02*
G75*
G02*
X534666444Y38229962I4J1986084D01*
G01*
X546473416Y45120301D02*
G75*
G02*
X548073584Y44310614I-47J-1986126D01*
G01*
X550870016Y43256301D02*
G75*
G02*
X550869905Y39284385I26J-1985958D01*
G01*
X548073610Y38230055D02*
G75*
G02*
X550157361Y39284337I2083697J-1531982D01*
G01*
D10*
X550870016Y43256301D02*
X550157216Y43256301D01*
D11*
X550157216Y43256301D02*
G75*
G02*
X548073569Y44310599I-12J2586118D01*
G01*
X532582716Y39284301D02*
X531870016Y39284301D01*
X548073610Y38230055D02*
G75*
G02*
X546473201Y37420297I-1600382J1176595D01*
G01*
X531870016Y39284301D02*
G75*
G02*
X531888591Y43256298I26J1986042D01*
G01*
D10*
X532583016Y43256340D02*
X531888591Y43256298D01*
D11*
X534666342Y44310569D02*
G75*
G02*
X532583016Y43256340I-2083447J1531617D01*
G01*
X550869905Y39284385D02*
X550157361Y39284337D01*
X532582716Y39284301D02*
G75*
G02*
X534666444Y38229962I94J-2586058D01*
G01*
X534666343Y54310526D02*
G75*
G02*
X536266816Y55120304I1600551J-1176880D01*
G01*
X536266615Y47420257D02*
G75*
G02*
X534666444Y48229919I4J1986084D01*
G01*
X546473416Y55120258D02*
G75*
G02*
X548073584Y54310571I-47J-1986126D01*
G01*
X550870016Y53256258D02*
G75*
G02*
X550869905Y49284342I26J-1985958D01*
G01*
X548073610Y48230012D02*
G75*
G02*
X550157361Y49284294I2083697J-1531982D01*
G01*
D10*
X550870016Y53256258D02*
X550157216Y53256258D01*
D11*
X550157216Y53256258D02*
G75*
G02*
X548073569Y54310556I-12J2586118D01*
G01*
X532582716Y49284258D02*
X531870016Y49284258D01*
X548073610Y48230012D02*
G75*
G02*
X546473201Y47420254I-1600382J1176595D01*
G01*
X531870016Y49284258D02*
G75*
G02*
X531888591Y53256255I26J1986042D01*
G01*
D10*
X532583016Y53256297D02*
X531888591Y53256255D01*
D11*
X534666342Y54310526D02*
G75*
G02*
X532583016Y53256297I-2083447J1531617D01*
G01*
X550869905Y49284342D02*
X550157361Y49284294D01*
X532582716Y49284258D02*
G75*
G02*
X534666444Y48229919I94J-2586058D01*
G01*
X534666343Y64310483D02*
G75*
G02*
X536266816Y65120261I1600551J-1176880D01*
G01*
X536266615Y57420214D02*
G75*
G02*
X534666444Y58229876I4J1986084D01*
G01*
X546473416Y65120215D02*
G75*
G02*
X548073584Y64310528I-47J-1986126D01*
G01*
X550870016Y63256215D02*
G75*
G02*
X550869905Y59284299I26J-1985958D01*
G01*
X548073610Y58229969D02*
G75*
G02*
X550157361Y59284251I2083697J-1531982D01*
G01*
D10*
X550870016Y63256215D02*
X550157216Y63256215D01*
D11*
X550157216Y63256215D02*
G75*
G02*
X548073569Y64310513I-12J2586118D01*
G01*
X532582716Y59284215D02*
X531870016Y59284215D01*
X548073610Y58229969D02*
G75*
G02*
X546473201Y57420211I-1600382J1176595D01*
G01*
X531870016Y59284215D02*
G75*
G02*
X531888591Y63256212I26J1986042D01*
G01*
D10*
X532583016Y63256254D02*
X531888591Y63256212D01*
D11*
X534666342Y64310483D02*
G75*
G02*
X532583016Y63256254I-2083447J1531617D01*
G01*
X550869905Y59284299D02*
X550157361Y59284251D01*
X532582716Y59284215D02*
G75*
G02*
X534666444Y58229876I94J-2586058D01*
G01*
X534666343Y74310440D02*
G75*
G02*
X536266816Y75120218I1600551J-1176880D01*
G01*
X536266615Y67420171D02*
G75*
G02*
X534666444Y68229833I4J1986084D01*
G01*
X546473416Y75120172D02*
G75*
G02*
X548073584Y74310485I-47J-1986126D01*
G01*
X550870016Y73256172D02*
G75*
G02*
X550869905Y69284256I26J-1985958D01*
G01*
X548073610Y68229926D02*
G75*
G02*
X550157361Y69284208I2083697J-1531982D01*
G01*
D10*
X550870016Y73256172D02*
X550157216Y73256172D01*
D11*
X550157216Y73256172D02*
G75*
G02*
X548073569Y74310470I-12J2586118D01*
G01*
X532582716Y69284172D02*
X531870016Y69284172D01*
X548073610Y68229926D02*
G75*
G02*
X546473201Y67420168I-1600382J1176595D01*
G01*
X531870016Y69284172D02*
G75*
G02*
X531888591Y73256169I26J1986042D01*
G01*
D10*
X532583016Y73256211D02*
X531888591Y73256169D01*
D11*
X534666342Y74310440D02*
G75*
G02*
X532583016Y73256211I-2083447J1531617D01*
G01*
X550869905Y69284256D02*
X550157361Y69284208D01*
X532582716Y69284172D02*
G75*
G02*
X534666444Y68229833I94J-2586058D01*
G01*
X534666343Y84310397D02*
G75*
G02*
X536266816Y85120175I1600551J-1176880D01*
G01*
X536266615Y77420128D02*
G75*
G02*
X534666444Y78229790I4J1986084D01*
G01*
X546473416Y85120129D02*
G75*
G02*
X548073584Y84310442I-47J-1986126D01*
G01*
X550870016Y83256129D02*
G75*
G02*
X550869905Y79284213I26J-1985958D01*
G01*
X548073610Y78229883D02*
G75*
G02*
X550157361Y79284165I2083697J-1531982D01*
G01*
D10*
X550870016Y83256129D02*
X550157216Y83256129D01*
D11*
X550157216Y83256129D02*
G75*
G02*
X548073569Y84310427I-12J2586118D01*
G01*
X532582716Y79284129D02*
X531870016Y79284129D01*
X548073610Y78229883D02*
G75*
G02*
X546473201Y77420125I-1600382J1176595D01*
G01*
X531870016Y79284129D02*
G75*
G02*
X531888591Y83256126I26J1986042D01*
G01*
D10*
X532583016Y83256168D02*
X531888591Y83256126D01*
D11*
X534666342Y84310397D02*
G75*
G02*
X532583016Y83256168I-2083447J1531617D01*
G01*
X550869905Y79284213D02*
X550157361Y79284165D01*
X532582716Y79284129D02*
G75*
G02*
X534666444Y78229790I94J-2586058D01*
G01*
X534666343Y94310354D02*
G75*
G02*
X536266816Y95120132I1600551J-1176880D01*
G01*
X536266615Y87420085D02*
G75*
G02*
X534666444Y88229747I4J1986084D01*
G01*
X546473416Y95120086D02*
G75*
G02*
X548073584Y94310399I-47J-1986126D01*
G01*
X550870016Y93256086D02*
G75*
G02*
X550869905Y89284170I26J-1985958D01*
G01*
X548073610Y88229840D02*
G75*
G02*
X550157361Y89284122I2083697J-1531982D01*
G01*
D10*
X550870016Y93256086D02*
X550157216Y93256086D01*
D11*
X550157216Y93256086D02*
G75*
G02*
X548073569Y94310384I-12J2586118D01*
G01*
X532582716Y89284086D02*
X531870016Y89284086D01*
X548073610Y88229840D02*
G75*
G02*
X546473201Y87420082I-1600382J1176595D01*
G01*
X531870016Y89284086D02*
G75*
G02*
X531888591Y93256083I26J1986042D01*
G01*
D10*
X532583016Y93256125D02*
X531888591Y93256083D01*
D11*
X534666342Y94310354D02*
G75*
G02*
X532583016Y93256125I-2083447J1531617D01*
G01*
X550869905Y89284170D02*
X550157361Y89284122D01*
X532582716Y89284086D02*
G75*
G02*
X534666444Y88229747I94J-2586058D01*
G01*
X534666343Y104310311D02*
G75*
G02*
X536266816Y105120089I1600551J-1176880D01*
G01*
X536266615Y97420042D02*
G75*
G02*
X534666444Y98229704I4J1986084D01*
G01*
X546473416Y105120043D02*
G75*
G02*
X548073584Y104310356I-47J-1986126D01*
G01*
X550870016Y103256043D02*
G75*
G02*
X550869905Y99284127I26J-1985958D01*
G01*
X548073610Y98229797D02*
G75*
G02*
X550157361Y99284079I2083697J-1531982D01*
G01*
D10*
X550870016Y103256043D02*
X550157216Y103256043D01*
D11*
X550157216Y103256043D02*
G75*
G02*
X548073569Y104310341I-12J2586118D01*
G01*
X532582716Y99284043D02*
X531870016Y99284043D01*
X548073610Y98229797D02*
G75*
G02*
X546473201Y97420039I-1600382J1176595D01*
G01*
X531870016Y99284043D02*
G75*
G02*
X531888591Y103256040I26J1986042D01*
G01*
D10*
X532583016Y103256082D02*
X531888591Y103256040D01*
D11*
X534666342Y104310311D02*
G75*
G02*
X532583016Y103256082I-2083447J1531617D01*
G01*
X550869905Y99284127D02*
X550157361Y99284079D01*
X532582716Y99284043D02*
G75*
G02*
X534666444Y98229704I94J-2586058D01*
G01*
X534666343Y114310268D02*
G75*
G02*
X536266816Y115120046I1600551J-1176880D01*
G01*
X536266615Y107419999D02*
G75*
G02*
X534666444Y108229661I4J1986084D01*
G01*
X546473416Y115120000D02*
G75*
G02*
X548073584Y114310313I-47J-1986126D01*
G01*
X550870016Y113256000D02*
G75*
G02*
X550869905Y109284084I26J-1985958D01*
G01*
X548073610Y108229754D02*
G75*
G02*
X550157361Y109284036I2083697J-1531982D01*
G01*
D10*
X550870016Y113256000D02*
X550157216Y113256000D01*
D11*
X550157216Y113256000D02*
G75*
G02*
X548073569Y114310298I-12J2586118D01*
G01*
X532582716Y109284000D02*
X531870016Y109284000D01*
X548073610Y108229754D02*
G75*
G02*
X546473201Y107419996I-1600382J1176595D01*
G01*
X531870016Y109284000D02*
G75*
G02*
X531888591Y113255997I26J1986042D01*
G01*
D10*
X532583016Y113256039D02*
X531888591Y113255997D01*
D11*
X534666342Y114310268D02*
G75*
G02*
X532583016Y113256039I-2083447J1531617D01*
G01*
X550869905Y109284084D02*
X550157361Y109284036D01*
X532582716Y109284000D02*
G75*
G02*
X534666444Y108229661I94J-2586058D01*
G01*
X532582716Y119284000D02*
G75*
G02*
X534666452Y118229667I84J-2586100D01*
G01*
X550870016Y123256000D02*
G75*
G02*
X550869905Y119284000I-16J-1986000D01*
G01*
X546473416Y125120000D02*
G75*
G02*
X548073563Y124310297I-16J-1986000D01*
G01*
D10*
X550870016Y123256000D02*
X550157216Y123256000D01*
D11*
X548073610Y118229754D02*
G75*
G02*
X546473201Y117419954I-1600510J1176746D01*
G01*
X531870016Y119284000D02*
G75*
G02*
X531888590Y123255913I-16J1986000D01*
G01*
X550869905Y119284084D02*
X550157361Y119284036D01*
X548073610Y118229754D02*
G75*
G02*
X550157361Y119284002I2083590J-1531854D01*
G01*
X534666342Y124310268D02*
G75*
G02*
X532583016Y123256009I-2083542J1531732D01*
G01*
D10*
X532583016Y123256039D02*
X531888591Y123255997D01*
D11*
X532582716Y119284000D02*
X531870016Y119284000D01*
X550157216Y123256000D02*
G75*
G02*
X548073572Y124310301I-16J2586100D01*
G01*
X534666343Y124310268D02*
G75*
G02*
X536266816Y125120016I1600457J-1176768D01*
G01*
X536266615Y117419999D02*
G75*
G02*
X534666459Y118229672I-15J1986001D01*
G01*
D10*
X536266816Y125120046D02*
X546473416Y125120000D01*
X543469816Y117419995D02*
X543470031Y115119999D01*
M02*
