%TF.GenerationSoftware,KiCad,Pcbnew,8.99.0-946-gf00a1ab517*%
%TF.CreationDate,2024-05-19T19:51:50+07:00*%
%TF.ProjectId,dtb_toro,6474625f-746f-4726-9f2e-6b696361645f,rev?*%
%TF.SameCoordinates,Original*%
%TF.FileFunction,Drillmap*%
%TF.FilePolarity,Positive*%
%FSLAX45Y45*%
G04 Gerber Fmt 4.5, Leading zero omitted, Abs format (unit mm)*
G04 Created by KiCad (PCBNEW 8.99.0-946-gf00a1ab517) date 2024-05-19 19:51:50*
%MOMM*%
%LPD*%
G01*
G04 APERTURE LIST*
%ADD10C,0.050000*%
%ADD11C,0.500000*%
%ADD12C,0.200000*%
%ADD13C,0.100000*%
G04 APERTURE END LIST*
D10*
X54647320Y-5257940D02*
X53626661Y-5257940D01*
X54346982Y3742030D02*
X54647320Y3742030D01*
X54347003Y3512034D02*
X54647342Y3512034D01*
X53626661Y3742030D02*
X53927000Y3742030D01*
X53626682Y3512039D02*
X53927020Y3512039D01*
X54056992Y3627034D02*
G75*
G02*
X53957013Y3627034I-49990J0D01*
G01*
X53957013Y3627034D02*
G75*
G02*
X54056992Y3627034I49990J0D01*
G01*
X54316992Y3627034D02*
G75*
G02*
X54217013Y3627034I-49990J0D01*
G01*
X54217013Y3627034D02*
G75*
G02*
X54316992Y3627034I49990J0D01*
G01*
X54186992Y3627034D02*
G75*
G02*
X54087013Y3627034I-49990J0D01*
G01*
X54087013Y3627034D02*
G75*
G02*
X54186992Y3627034I49990J0D01*
G01*
X54346982Y3742034D02*
X54347003Y3512034D01*
X53927000Y3742034D02*
X53927020Y3512039D01*
D11*
X55015722Y-674357D02*
G75*
G02*
X54807357Y-568927I-1J258612D01*
G01*
X53466634Y-1568926D02*
G75*
G02*
X53626682Y-1487948I160055J-117688D01*
G01*
X55015722Y-2674348D02*
G75*
G02*
X54807357Y-2568919I-1J258612D01*
G01*
X54647342Y-1487953D02*
G75*
G02*
X54807358Y-1568921I-5J-198612D01*
G01*
X54807361Y-3176973D02*
G75*
G02*
X54647320Y-3257949I-160038J117660D01*
G01*
X55087002Y-1674353D02*
G75*
G02*
X55086990Y-2071544I3J-198596D01*
G01*
X53466634Y-1568926D02*
G75*
G02*
X53258302Y-1674349I-208345J153161D01*
G01*
X53258272Y-3071548D02*
X53187002Y-3071548D01*
X54807361Y-2176977D02*
G75*
G02*
X54647320Y-2257953I-160038J117660D01*
G01*
X53187002Y-4071544D02*
G75*
G02*
X53188859Y-3674344I3J198604D01*
G01*
X54647342Y-2487948D02*
G75*
G02*
X54807358Y-2568917I-5J-198612D01*
G01*
X53466634Y-568930D02*
G75*
G02*
X53258302Y-674353I-208345J153161D01*
G01*
X53258272Y-2071553D02*
G75*
G02*
X53466644Y-2176987I10J-258605D01*
G01*
X53626661Y-2257953D02*
G75*
G02*
X53466644Y-2176987I0J198608D01*
G01*
X53258272Y-2071553D02*
X53187002Y-2071553D01*
X53187002Y-3071548D02*
G75*
G02*
X53188859Y-2674349I3J198604D01*
G01*
D10*
X53258302Y-3674340D02*
X53188859Y-3674344D01*
D11*
X53258272Y-1071557D02*
G75*
G02*
X53466644Y-1176991I10J-258605D01*
G01*
X53187002Y-1071557D02*
G75*
G02*
X53188859Y-674357I3J198604D01*
G01*
D10*
X55087002Y-1674353D02*
X55015722Y-1674353D01*
D11*
X53258272Y-4071544D02*
G75*
G02*
X53466644Y-4176978I10J-258605D01*
G01*
X55087002Y2325630D02*
G75*
G02*
X55086990Y1928438I3J-198596D01*
G01*
X54807361Y1823005D02*
G75*
G02*
X54647320Y1742030I-160038J117660D01*
G01*
X54807361Y1823005D02*
G75*
G02*
X55015736Y1928434I208370J-153198D01*
G01*
X55086990Y-4071536D02*
X55015736Y-4071540D01*
X53187002Y-2071553D02*
G75*
G02*
X53188859Y-1674353I3J198604D01*
G01*
X54807361Y-4176969D02*
G75*
G02*
X54647320Y-4257945I-160038J117660D01*
G01*
X53187002Y928434D02*
G75*
G02*
X53188859Y1325634I3J198604D01*
G01*
X53466634Y-3568917D02*
G75*
G02*
X53258302Y-3674340I-208345J153161D01*
G01*
X54807361Y-2176977D02*
G75*
G02*
X55015736Y-2071549I208370J-153198D01*
G01*
D10*
X53258302Y-674353D02*
X53188859Y-674357D01*
D11*
X55086990Y-1071549D02*
X55015736Y-1071553D01*
X53466634Y-568930D02*
G75*
G02*
X53626682Y-487952I160055J-117688D01*
G01*
D10*
X55087002Y-674357D02*
X55015722Y-674357D01*
X53258302Y2325634D02*
X53188859Y2325630D01*
D11*
X55086990Y-2071544D02*
X55015736Y-2071549D01*
X55015722Y-1674353D02*
G75*
G02*
X54807357Y-1568923I-1J258612D01*
G01*
D10*
X53258302Y-1674349D02*
X53188859Y-1674353D01*
D11*
X55087002Y-674357D02*
G75*
G02*
X55086990Y-1071549I3J-198596D01*
G01*
X53626661Y1742030D02*
G75*
G02*
X53466644Y1822996I0J198608D01*
G01*
X54807361Y-1176982D02*
G75*
G02*
X54647320Y-1257957I-160038J117660D01*
G01*
X53258272Y-1071557D02*
X53187002Y-1071557D01*
X53626661Y-1257957D02*
G75*
G02*
X53466644Y-1176991I0J198608D01*
G01*
X54647342Y2512030D02*
G75*
G02*
X54807358Y2431061I-5J-198612D01*
G01*
X54647342Y-487957D02*
G75*
G02*
X54807358Y-568926I-5J-198612D01*
G01*
X54807361Y-1176982D02*
G75*
G02*
X55015736Y-1071553I208370J-153198D01*
G01*
X55086990Y-3071540D02*
X55015736Y-3071545D01*
X53258272Y-3071548D02*
G75*
G02*
X53466644Y-3176982I10J-258605D01*
G01*
X55087002Y-2674348D02*
G75*
G02*
X55086990Y-3071540I3J-198596D01*
G01*
X53466634Y-2568922D02*
G75*
G02*
X53258302Y-2674345I-208345J153161D01*
G01*
X54807361Y-3176973D02*
G75*
G02*
X55015736Y-3071545I208370J-153198D01*
G01*
D10*
X53258302Y-2674345D02*
X53188859Y-2674349D01*
D11*
X53626661Y-3257948D02*
G75*
G02*
X53466644Y-3176982I0J198608D01*
G01*
D10*
X55087002Y-2674348D02*
X55015722Y-2674348D01*
D11*
X53466634Y-2568922D02*
G75*
G02*
X53626682Y-2487944I160055J-117688D01*
G01*
D10*
X55087002Y3325630D02*
X55015722Y3325630D01*
D11*
X53187002Y2928430D02*
G75*
G02*
X53188859Y3325630I3J198604D01*
G01*
X53258272Y2928430D02*
G75*
G02*
X53466644Y2822996I9J-258606D01*
G01*
X55086990Y2928438D02*
X55015736Y2928434D01*
X53466634Y3431057D02*
G75*
G02*
X53258302Y3325634I-208345J153162D01*
G01*
D10*
X53258302Y3325634D02*
X53188859Y3325630D01*
D11*
X54807361Y2823005D02*
G75*
G02*
X54647320Y2742030I-160038J117660D01*
G01*
X53258272Y2928430D02*
X53187002Y2928430D01*
X55015722Y3325630D02*
G75*
G02*
X54807357Y3431060I-1J258612D01*
G01*
X54807361Y2823005D02*
G75*
G02*
X55015736Y2928434I208370J-153198D01*
G01*
X54647342Y3512030D02*
G75*
G02*
X54807358Y3431061I-5J-198613D01*
G01*
X55087002Y3325630D02*
G75*
G02*
X55086990Y2928438I3J-198596D01*
G01*
X53466634Y2431057D02*
G75*
G02*
X53626682Y2512035I160055J-117688D01*
G01*
X53466634Y3431057D02*
G75*
G02*
X53626682Y3512035I160055J-117688D01*
G01*
X55015722Y2325630D02*
G75*
G02*
X54807357Y2431060I-1J258612D01*
G01*
X53258272Y1928430D02*
G75*
G02*
X53466644Y1822996I10J-258605D01*
G01*
X54807361Y823010D02*
G75*
G02*
X54647320Y742034I-160038J117660D01*
G01*
X53258272Y928434D02*
X53187002Y928434D01*
X53626661Y2742030D02*
G75*
G02*
X53466644Y2822996I0J198608D01*
G01*
X55015722Y1325634D02*
G75*
G02*
X54807357Y1431064I-1J258612D01*
G01*
X53466634Y2431057D02*
G75*
G02*
X53258302Y2325634I-208345J153161D01*
G01*
X55086990Y1928438D02*
X55015736Y1928434D01*
D10*
X55087002Y2325630D02*
X55015722Y2325630D01*
X55087002Y1325634D02*
X55015722Y1325634D01*
D11*
X53258272Y1928430D02*
X53187002Y1928430D01*
X53187002Y1928430D02*
G75*
G02*
X53188859Y2325630I3J198604D01*
G01*
X55087002Y-3674344D02*
G75*
G02*
X55086990Y-4071536I3J-198596D01*
G01*
X53626661Y-4257944D02*
G75*
G02*
X53466644Y-4176978I0J198608D01*
G01*
X53466634Y-3568917D02*
G75*
G02*
X53626682Y-3487939I160055J-117688D01*
G01*
X53258272Y-4071544D02*
X53187002Y-4071544D01*
D10*
X55087002Y-4674340D02*
X55015722Y-4674340D01*
D11*
X54647342Y-3487944D02*
G75*
G02*
X54807358Y-3568913I-5J-198612D01*
G01*
X54807361Y-4176969D02*
G75*
G02*
X55015736Y-4071540I208370J-153198D01*
G01*
D10*
X55087002Y-3674344D02*
X55015722Y-3674344D01*
D11*
X53258272Y-5071540D02*
G75*
G02*
X53466644Y-5176974I10J-258605D01*
G01*
X53258272Y-5071540D02*
X53187002Y-5071540D01*
X55086990Y-5071531D02*
X55015736Y-5071536D01*
D10*
X53258302Y-4674336D02*
X53188859Y-4674340D01*
D11*
X55015722Y-3674344D02*
G75*
G02*
X54807357Y-3568914I-1J258612D01*
G01*
X53187002Y-5071540D02*
G75*
G02*
X53188859Y-4674340I3J198604D01*
G01*
X55015722Y-4674340D02*
G75*
G02*
X54807357Y-4568910I-1J258612D01*
G01*
X54807361Y-5176964D02*
G75*
G02*
X55015736Y-5071536I208370J-153198D01*
G01*
X55087002Y-4674340D02*
G75*
G02*
X55086990Y-5071531I3J-198596D01*
G01*
X54647342Y-4487940D02*
G75*
G02*
X54807358Y-4568909I-5J-198612D01*
G01*
X53626661Y-5257940D02*
G75*
G02*
X53466644Y-5176974I0J198608D01*
G01*
X53466634Y-4568913D02*
G75*
G02*
X53626682Y-4487935I160055J-117688D01*
G01*
D10*
X54346982Y2742030D02*
X54647320Y2742030D01*
X53626661Y2742030D02*
X53927000Y2742030D01*
D11*
X53466634Y-4568913D02*
G75*
G02*
X53258302Y-4674336I-208345J153161D01*
G01*
X54807361Y-5176964D02*
G75*
G02*
X54647320Y-5257940I-160038J117660D01*
G01*
X55086990Y-71553D02*
X55015736Y-71558D01*
X55086990Y928443D02*
X55015736Y928438D01*
X55087002Y325639D02*
G75*
G02*
X55086990Y-71553I3J-198596D01*
G01*
X54807361Y823010D02*
G75*
G02*
X55015736Y928438I208370J-153198D01*
G01*
X53187002Y-71561D02*
G75*
G02*
X53188859Y325638I3J198604D01*
G01*
D10*
X53626661Y-4257944D02*
X53927000Y-4257944D01*
X53626661Y-1257957D02*
X53927000Y-1257957D01*
X53626682Y2512035D02*
X53927020Y2512035D01*
D11*
X53626661Y-257961D02*
G75*
G02*
X53466644Y-176995I0J198608D01*
G01*
D10*
X53258302Y1325638D02*
X53188859Y1325634D01*
X53258302Y325643D02*
X53188859Y325638D01*
D11*
X55015722Y325639D02*
G75*
G02*
X54807357Y431068I-1J258612D01*
G01*
X53466634Y431065D02*
G75*
G02*
X53626682Y512043I160055J-117688D01*
G01*
D10*
X55087002Y325639D02*
X55015722Y325639D01*
D11*
X53258272Y-71561D02*
X53187002Y-71561D01*
D10*
X53927000Y2742030D02*
X53927020Y2512035D01*
X53626682Y-4487935D02*
X53927020Y-4487935D01*
D11*
X53466634Y431065D02*
G75*
G02*
X53258302Y325643I-208345J153161D01*
G01*
X53466634Y1431061D02*
G75*
G02*
X53258302Y1325638I-208345J153161D01*
G01*
X54647342Y512039D02*
G75*
G02*
X54807358Y431070I-5J-198612D01*
G01*
X54807361Y-176986D02*
G75*
G02*
X54647320Y-257962I-160038J117660D01*
G01*
X53626661Y742034D02*
G75*
G02*
X53466644Y823000I0J198608D01*
G01*
X53466634Y1431061D02*
G75*
G02*
X53626682Y1512039I160055J-117688D01*
G01*
X53258272Y928434D02*
G75*
G02*
X53466644Y823000I10J-258605D01*
G01*
X54807361Y-176986D02*
G75*
G02*
X55015736Y-71558I208370J-153198D01*
G01*
X55087002Y1325634D02*
G75*
G02*
X55086990Y928443I3J-198596D01*
G01*
D10*
X54347003Y-4487940D02*
X54647342Y-4487940D01*
D11*
X53258272Y-71561D02*
G75*
G02*
X53466644Y-176995I10J-258605D01*
G01*
D10*
X53626682Y-3487939D02*
X53927020Y-3487939D01*
X54346982Y1742030D02*
X54647320Y1742030D01*
X54346982Y-1257958D02*
X54647320Y-1257957D01*
D11*
X54647342Y1512034D02*
G75*
G02*
X54807358Y1431066I-5J-198612D01*
G01*
D10*
X53626661Y-3257948D02*
X53927000Y-3257948D01*
X53626682Y512043D02*
X53927020Y512043D01*
X53927000Y742034D02*
X53927020Y512039D01*
X53927000Y-4257944D02*
X53927020Y-4487939D01*
X53626682Y-2487944D02*
X53927020Y-2487944D01*
X54347003Y-1487953D02*
X54647342Y-1487953D01*
X54347003Y-2487949D02*
X54647342Y-2487948D01*
X54347003Y1512034D02*
X54647342Y1512034D01*
X53626682Y-487952D02*
X53927020Y-487952D01*
X53626661Y742034D02*
X53927000Y742034D01*
X54316992Y1627030D02*
G75*
G02*
X54217013Y1627030I-49990J0D01*
G01*
X54217013Y1627030D02*
G75*
G02*
X54316992Y1627030I49990J0D01*
G01*
X54346982Y742034D02*
X54647320Y742034D01*
X54347003Y2512030D02*
X54647342Y2512030D01*
X53927000Y-3257948D02*
X53927020Y-3487944D01*
X54056992Y-1372957D02*
G75*
G02*
X53957013Y-1372957I-49990J0D01*
G01*
X53957013Y-1372957D02*
G75*
G02*
X54056992Y-1372957I49990J0D01*
G01*
X54056992Y-4372944D02*
G75*
G02*
X53957013Y-4372944I-49990J0D01*
G01*
X53957013Y-4372944D02*
G75*
G02*
X54056992Y-4372944I49990J0D01*
G01*
X54186992Y627034D02*
G75*
G02*
X54087013Y627034I-49990J0D01*
G01*
X54087013Y627034D02*
G75*
G02*
X54186992Y627034I49990J0D01*
G01*
X54316992Y-4372944D02*
G75*
G02*
X54217013Y-4372944I-49990J0D01*
G01*
X54217013Y-4372944D02*
G75*
G02*
X54316992Y-4372944I49990J0D01*
G01*
X54316992Y-3372949D02*
G75*
G02*
X54217013Y-3372949I-49990J0D01*
G01*
X54217013Y-3372949D02*
G75*
G02*
X54316992Y-3372949I49990J0D01*
G01*
X54316992Y-372962D02*
G75*
G02*
X54217013Y-372962I-49990J0D01*
G01*
X54217013Y-372962D02*
G75*
G02*
X54316992Y-372962I49990J0D01*
G01*
X54346982Y-2257953D02*
X54347003Y-2487953D01*
X54316992Y-2372953D02*
G75*
G02*
X54217013Y-2372953I-49990J0D01*
G01*
X54217013Y-2372953D02*
G75*
G02*
X54316992Y-2372953I49990J0D01*
G01*
X54346982Y-257962D02*
X54647320Y-257962D01*
X54346982Y1742030D02*
X54347003Y1512030D01*
X53927000Y-1257957D02*
X53927020Y-1487952D01*
X54346982Y742034D02*
X54347003Y512034D01*
X53927000Y-2257953D02*
X53927020Y-2487948D01*
X54346982Y-4257945D02*
X54347003Y-4487944D01*
X53626682Y-1487948D02*
X53927020Y-1487948D01*
X54186992Y-372962D02*
G75*
G02*
X54087013Y-372962I-49990J0D01*
G01*
X54087013Y-372962D02*
G75*
G02*
X54186992Y-372962I49990J0D01*
G01*
X54187000Y2627033D02*
G75*
G02*
X54087020Y2627033I-49990J0D01*
G01*
X54087020Y2627033D02*
G75*
G02*
X54187000Y2627033I49990J0D01*
G01*
X54056992Y-2372953D02*
G75*
G02*
X53957013Y-2372953I-49990J0D01*
G01*
X53957013Y-2372953D02*
G75*
G02*
X54056992Y-2372953I49990J0D01*
G01*
X53626682Y1512039D02*
X53927020Y1512039D01*
X54056992Y-372962D02*
G75*
G02*
X53957013Y-372962I-49990J0D01*
G01*
X53957013Y-372962D02*
G75*
G02*
X54056992Y-372962I49990J0D01*
G01*
X54347003Y-3487944D02*
X54647342Y-3487944D01*
X54346982Y-3257949D02*
X54347003Y-3487948D01*
X53927000Y-257961D02*
X53927020Y-487957D01*
X54346982Y-257962D02*
X54347003Y-487961D01*
X54056992Y627034D02*
G75*
G02*
X53957013Y627034I-49990J0D01*
G01*
X53957013Y627034D02*
G75*
G02*
X54056992Y627034I49990J0D01*
G01*
X54186992Y1627030D02*
G75*
G02*
X54087013Y1627030I-49990J0D01*
G01*
X54087013Y1627030D02*
G75*
G02*
X54186992Y1627030I49990J0D01*
G01*
X54317000Y2627033D02*
G75*
G02*
X54217020Y2627033I-49990J0D01*
G01*
X54217020Y2627033D02*
G75*
G02*
X54317000Y2627033I49990J0D01*
G01*
X54316992Y627034D02*
G75*
G02*
X54217013Y627034I-49990J0D01*
G01*
X54217013Y627034D02*
G75*
G02*
X54316992Y627034I49990J0D01*
G01*
X54347003Y-487957D02*
X54647342Y-487957D01*
X54056992Y-3372949D02*
G75*
G02*
X53957013Y-3372949I-49990J0D01*
G01*
X53957013Y-3372949D02*
G75*
G02*
X54056992Y-3372949I49990J0D01*
G01*
X53626661Y-257961D02*
X53927000Y-257961D01*
X53626661Y1742030D02*
X53927000Y1742030D01*
X54346982Y-3257949D02*
X54647320Y-3257949D01*
X54346982Y-1257958D02*
X54347003Y-1487957D01*
X54346982Y-2257953D02*
X54647320Y-2257953D01*
X54347003Y512039D02*
X54647342Y512039D01*
X54316992Y-1372957D02*
G75*
G02*
X54217013Y-1372957I-49990J0D01*
G01*
X54217013Y-1372957D02*
G75*
G02*
X54316992Y-1372957I49990J0D01*
G01*
X54346982Y-4257945D02*
X54647320Y-4257945D01*
X54186992Y-2372953D02*
G75*
G02*
X54087013Y-2372953I-49990J0D01*
G01*
X54087013Y-2372953D02*
G75*
G02*
X54186992Y-2372953I49990J0D01*
G01*
X53927000Y1742030D02*
X53927020Y1512035D01*
X54346982Y2742030D02*
X54347003Y2512030D01*
X53626661Y-2257953D02*
X53927000Y-2257953D01*
X54186992Y-1372957D02*
G75*
G02*
X54087013Y-1372957I-49990J0D01*
G01*
X54087013Y-1372957D02*
G75*
G02*
X54186992Y-1372957I49990J0D01*
G01*
X54056992Y1627030D02*
G75*
G02*
X53957013Y1627030I-49990J0D01*
G01*
X53957013Y1627030D02*
G75*
G02*
X54056992Y1627030I49990J0D01*
G01*
X54186992Y-3372949D02*
G75*
G02*
X54087013Y-3372949I-49990J0D01*
G01*
X54087013Y-3372949D02*
G75*
G02*
X54186992Y-3372949I49990J0D01*
G01*
X54057000Y2627033D02*
G75*
G02*
X53957020Y2627033I-49990J0D01*
G01*
X53957020Y2627033D02*
G75*
G02*
X54057000Y2627033I49990J0D01*
G01*
X54186992Y-4372944D02*
G75*
G02*
X54087013Y-4372944I-49990J0D01*
G01*
X54087013Y-4372944D02*
G75*
G02*
X54186992Y-4372944I49990J0D01*
G01*
X54056992Y4627026D02*
G75*
G02*
X53957013Y4627026I-49990J0D01*
G01*
X53957013Y4627026D02*
G75*
G02*
X54056992Y4627026I49990J0D01*
G01*
X54316992Y4627026D02*
G75*
G02*
X54217013Y4627026I-49990J0D01*
G01*
X54217013Y4627026D02*
G75*
G02*
X54316992Y4627026I49990J0D01*
G01*
X54186992Y4627026D02*
G75*
G02*
X54087013Y4627026I-49990J0D01*
G01*
X54087013Y4627026D02*
G75*
G02*
X54186992Y4627026I49990J0D01*
G01*
X54056992Y5627021D02*
G75*
G02*
X53957013Y5627021I-49990J0D01*
G01*
X53957013Y5627021D02*
G75*
G02*
X54056992Y5627021I49990J0D01*
G01*
X54316992Y5627021D02*
G75*
G02*
X54217013Y5627021I-49990J0D01*
G01*
X54217013Y5627021D02*
G75*
G02*
X54316992Y5627021I49990J0D01*
G01*
X54186992Y5627021D02*
G75*
G02*
X54087013Y5627021I-49990J0D01*
G01*
X54087013Y5627021D02*
G75*
G02*
X54186992Y5627021I49990J0D01*
G01*
X54056992Y6627017D02*
G75*
G02*
X53957013Y6627017I-49990J0D01*
G01*
X53957013Y6627017D02*
G75*
G02*
X54056992Y6627017I49990J0D01*
G01*
X54316992Y6627017D02*
G75*
G02*
X54217013Y6627017I-49990J0D01*
G01*
X54217013Y6627017D02*
G75*
G02*
X54316992Y6627017I49990J0D01*
G01*
X54186992Y6627017D02*
G75*
G02*
X54087013Y6627017I-49990J0D01*
G01*
X54087013Y6627017D02*
G75*
G02*
X54186992Y6627017I49990J0D01*
G01*
X54056992Y7627013D02*
G75*
G02*
X53957013Y7627013I-49990J0D01*
G01*
X53957013Y7627013D02*
G75*
G02*
X54056992Y7627013I49990J0D01*
G01*
X54316992Y7627013D02*
G75*
G02*
X54217013Y7627013I-49990J0D01*
G01*
X54217013Y7627013D02*
G75*
G02*
X54316992Y7627013I49990J0D01*
G01*
X54186992Y7627013D02*
G75*
G02*
X54087013Y7627013I-49990J0D01*
G01*
X54087013Y7627013D02*
G75*
G02*
X54186992Y7627013I49990J0D01*
G01*
X54056992Y8627008D02*
G75*
G02*
X53957013Y8627008I-49990J0D01*
G01*
X53957013Y8627008D02*
G75*
G02*
X54056992Y8627008I49990J0D01*
G01*
X54316992Y8627008D02*
G75*
G02*
X54217013Y8627008I-49990J0D01*
G01*
X54217013Y8627008D02*
G75*
G02*
X54316992Y8627008I49990J0D01*
G01*
X54186992Y8627008D02*
G75*
G02*
X54087013Y8627008I-49990J0D01*
G01*
X54087013Y8627008D02*
G75*
G02*
X54186992Y8627008I49990J0D01*
G01*
X54056992Y9627004D02*
G75*
G02*
X53957013Y9627004I-49990J0D01*
G01*
X53957013Y9627004D02*
G75*
G02*
X54056992Y9627004I49990J0D01*
G01*
X54316992Y9627004D02*
G75*
G02*
X54217013Y9627004I-49990J0D01*
G01*
X54217013Y9627004D02*
G75*
G02*
X54316992Y9627004I49990J0D01*
G01*
X54186992Y9627004D02*
G75*
G02*
X54087013Y9627004I-49990J0D01*
G01*
X54087013Y9627004D02*
G75*
G02*
X54186992Y9627004I49990J0D01*
G01*
X54056992Y10627000D02*
G75*
G02*
X53957013Y10627000I-49990J0D01*
G01*
X53957013Y10627000D02*
G75*
G02*
X54056992Y10627000I49990J0D01*
G01*
X54316992Y10627000D02*
G75*
G02*
X54217013Y10627000I-49990J0D01*
G01*
X54217013Y10627000D02*
G75*
G02*
X54316992Y10627000I49990J0D01*
G01*
X54186992Y10627000D02*
G75*
G02*
X54087013Y10627000I-49990J0D01*
G01*
X54087013Y10627000D02*
G75*
G02*
X54186992Y10627000I49990J0D01*
G01*
X54317000Y11627002D02*
G75*
G02*
X54217020Y11627002I-49990J0D01*
G01*
X54217020Y11627002D02*
G75*
G02*
X54317000Y11627002I49990J0D01*
G01*
X54187000Y11627002D02*
G75*
G02*
X54087020Y11627002I-49990J0D01*
G01*
X54087020Y11627002D02*
G75*
G02*
X54187000Y11627002I49990J0D01*
G01*
X54057000Y11627002D02*
G75*
G02*
X53957020Y11627002I-49990J0D01*
G01*
X53957020Y11627002D02*
G75*
G02*
X54057000Y11627002I49990J0D01*
G01*
X54346982Y4742025D02*
X54347003Y4512026D01*
X53927000Y4742026D02*
X53927020Y4512031D01*
X54346982Y5742021D02*
X54347003Y5512021D01*
X53927000Y5742021D02*
X53927020Y5512026D01*
X54346982Y6742017D02*
X54347003Y6512017D01*
X53927000Y6742017D02*
X53927020Y6512022D01*
X54346982Y7742012D02*
X54347003Y7512013D01*
X53927000Y7742013D02*
X53927020Y7512018D01*
X54346982Y8742008D02*
X54347003Y8512009D01*
X53927000Y8742009D02*
X53927020Y8512013D01*
X54346982Y9742004D02*
X54347003Y9512004D01*
X53927000Y9742004D02*
X53927020Y9512009D01*
X54346982Y10742000D02*
X54347003Y10512000D01*
X53927000Y10742000D02*
X53927020Y10512005D01*
X53927000Y11742000D02*
X53927020Y11512005D01*
X54347003Y4512030D02*
X54647342Y4512030D01*
X53626682Y4512035D02*
X53927020Y4512035D01*
X54347003Y5512026D02*
X54647342Y5512026D01*
X53626682Y5512030D02*
X53927020Y5512031D01*
X54347003Y6512021D02*
X54647342Y6512021D01*
X53626682Y6512026D02*
X53927020Y6512026D01*
X54347003Y7512017D02*
X54647342Y7512017D01*
X53626682Y7512022D02*
X53927020Y7512022D01*
X54347003Y8512013D02*
X54647342Y8512013D01*
X53626682Y8512018D02*
X53927020Y8512018D01*
X54347003Y9512009D02*
X54647342Y9512009D01*
X53626682Y9512013D02*
X53927020Y9512013D01*
X54347003Y10512004D02*
X54647342Y10512004D01*
X53626682Y10512009D02*
X53927020Y10512009D01*
X54347003Y11512000D02*
X54647342Y11512000D01*
X53626682Y11512005D02*
X53927020Y11512005D01*
X53626661Y4742026D02*
X53927000Y4742026D01*
X54346982Y4742025D02*
X54647320Y4742025D01*
X53626661Y5742021D02*
X53927000Y5742021D01*
X54346982Y5742021D02*
X54647320Y5742021D01*
X53626661Y6742017D02*
X53927000Y6742017D01*
X54346982Y6742017D02*
X54647320Y6742017D01*
X53626661Y7742013D02*
X53927000Y7742013D01*
X54346982Y7742012D02*
X54647320Y7742012D01*
X53626661Y8742009D02*
X53927000Y8742009D01*
X54346982Y8742008D02*
X54647320Y8742008D01*
X53626661Y9742004D02*
X53927000Y9742004D01*
X54346982Y9742004D02*
X54647320Y9742004D01*
X53626661Y10742000D02*
X53927000Y10742000D01*
X54346982Y10742000D02*
X54647320Y10742000D01*
X54346982Y11741999D02*
X54647320Y11742000D01*
X53626661Y11742000D02*
X53927000Y11742000D01*
D11*
X53466634Y4431057D02*
G75*
G02*
X53626682Y4512035I160055J-117688D01*
G01*
X53626661Y3742030D02*
G75*
G02*
X53466644Y3822996I0J198608D01*
G01*
X54647342Y4512030D02*
G75*
G02*
X54807358Y4431061I-5J-198613D01*
G01*
X55087002Y4325630D02*
G75*
G02*
X55086990Y3928438I3J-198596D01*
G01*
X54807361Y3823005D02*
G75*
G02*
X55015736Y3928434I208370J-153198D01*
G01*
D10*
X55087002Y4325630D02*
X55015722Y4325630D01*
D11*
X55015722Y4325630D02*
G75*
G02*
X54807357Y4431060I-1J258612D01*
G01*
X53258272Y3928430D02*
X53187002Y3928430D01*
X54807361Y3823005D02*
G75*
G02*
X54647320Y3742030I-160038J117660D01*
G01*
X53187002Y3928430D02*
G75*
G02*
X53188859Y4325630I3J198604D01*
G01*
D10*
X53258302Y4325634D02*
X53188859Y4325630D01*
D11*
X53466634Y4431057D02*
G75*
G02*
X53258302Y4325634I-208345J153162D01*
G01*
X55086990Y3928438D02*
X55015736Y3928434D01*
X53258272Y3928430D02*
G75*
G02*
X53466644Y3822996I9J-258606D01*
G01*
X53466634Y5431053D02*
G75*
G02*
X53626682Y5512030I160055J-117688D01*
G01*
X53626661Y4742026D02*
G75*
G02*
X53466644Y4822992I0J198608D01*
G01*
X54647342Y5512026D02*
G75*
G02*
X54807358Y5431057I-5J-198613D01*
G01*
X55087002Y5325626D02*
G75*
G02*
X55086990Y4928434I3J-198596D01*
G01*
X54807361Y4823001D02*
G75*
G02*
X55015736Y4928429I208370J-153198D01*
G01*
D10*
X55087002Y5325626D02*
X55015722Y5325626D01*
D11*
X55015722Y5325626D02*
G75*
G02*
X54807357Y5431056I-1J258612D01*
G01*
X53258272Y4928426D02*
X53187002Y4928426D01*
X54807361Y4823001D02*
G75*
G02*
X54647320Y4742025I-160038J117660D01*
G01*
X53187002Y4928426D02*
G75*
G02*
X53188859Y5325626I3J198604D01*
G01*
D10*
X53258302Y5325630D02*
X53188859Y5325626D01*
D11*
X53466634Y5431053D02*
G75*
G02*
X53258302Y5325630I-208345J153162D01*
G01*
X55086990Y4928434D02*
X55015736Y4928429D01*
X53258272Y4928426D02*
G75*
G02*
X53466644Y4822992I9J-258606D01*
G01*
X53466634Y6431048D02*
G75*
G02*
X53626682Y6512026I160055J-117688D01*
G01*
X53626661Y5742021D02*
G75*
G02*
X53466644Y5822988I0J198608D01*
G01*
X54647342Y6512021D02*
G75*
G02*
X54807358Y6431053I-5J-198613D01*
G01*
X55087002Y6325621D02*
G75*
G02*
X55086990Y5928430I3J-198596D01*
G01*
X54807361Y5822997D02*
G75*
G02*
X55015736Y5928425I208370J-153198D01*
G01*
D10*
X55087002Y6325621D02*
X55015722Y6325621D01*
D11*
X55015722Y6325621D02*
G75*
G02*
X54807357Y6431051I-1J258612D01*
G01*
X53258272Y5928421D02*
X53187002Y5928421D01*
X54807361Y5822997D02*
G75*
G02*
X54647320Y5742021I-160038J117660D01*
G01*
X53187002Y5928421D02*
G75*
G02*
X53188859Y6325621I3J198604D01*
G01*
D10*
X53258302Y6325625D02*
X53188859Y6325621D01*
D11*
X53466634Y6431048D02*
G75*
G02*
X53258302Y6325625I-208345J153162D01*
G01*
X55086990Y5928430D02*
X55015736Y5928425D01*
X53258272Y5928421D02*
G75*
G02*
X53466644Y5822988I9J-258606D01*
G01*
X53466634Y7431044D02*
G75*
G02*
X53626682Y7512022I160055J-117688D01*
G01*
X53626661Y6742017D02*
G75*
G02*
X53466644Y6822983I0J198608D01*
G01*
X54647342Y7512017D02*
G75*
G02*
X54807358Y7431048I-5J-198613D01*
G01*
X55087002Y7325617D02*
G75*
G02*
X55086990Y6928426I3J-198596D01*
G01*
X54807361Y6822993D02*
G75*
G02*
X55015736Y6928421I208370J-153198D01*
G01*
D10*
X55087002Y7325617D02*
X55015722Y7325617D01*
D11*
X55015722Y7325617D02*
G75*
G02*
X54807357Y7431047I-1J258612D01*
G01*
X53258272Y6928417D02*
X53187002Y6928417D01*
X54807361Y6822993D02*
G75*
G02*
X54647320Y6742017I-160038J117660D01*
G01*
X53187002Y6928417D02*
G75*
G02*
X53188859Y7325617I3J198604D01*
G01*
D10*
X53258302Y7325621D02*
X53188859Y7325617D01*
D11*
X53466634Y7431044D02*
G75*
G02*
X53258302Y7325621I-208345J153162D01*
G01*
X55086990Y6928426D02*
X55015736Y6928421D01*
X53258272Y6928417D02*
G75*
G02*
X53466644Y6822983I9J-258606D01*
G01*
X53466634Y8431040D02*
G75*
G02*
X53626682Y8512018I160055J-117688D01*
G01*
X53626661Y7742013D02*
G75*
G02*
X53466644Y7822979I0J198608D01*
G01*
X54647342Y8512013D02*
G75*
G02*
X54807358Y8431044I-5J-198613D01*
G01*
X55087002Y8325613D02*
G75*
G02*
X55086990Y7928421I3J-198596D01*
G01*
X54807361Y7822988D02*
G75*
G02*
X55015736Y7928416I208370J-153198D01*
G01*
D10*
X55087002Y8325613D02*
X55015722Y8325613D01*
D11*
X55015722Y8325613D02*
G75*
G02*
X54807357Y8431043I-1J258612D01*
G01*
X53258272Y7928413D02*
X53187002Y7928413D01*
X54807361Y7822988D02*
G75*
G02*
X54647320Y7742012I-160038J117659D01*
G01*
X53187002Y7928413D02*
G75*
G02*
X53188859Y8325613I3J198604D01*
G01*
D10*
X53258302Y8325617D02*
X53188859Y8325613D01*
D11*
X53466634Y8431040D02*
G75*
G02*
X53258302Y8325617I-208345J153162D01*
G01*
X55086990Y7928421D02*
X55015736Y7928416D01*
X53258272Y7928413D02*
G75*
G02*
X53466644Y7822979I9J-258606D01*
G01*
X53466634Y9431035D02*
G75*
G02*
X53626682Y9512013I160055J-117688D01*
G01*
X53626661Y8742009D02*
G75*
G02*
X53466644Y8822975I0J198608D01*
G01*
X54647342Y9512009D02*
G75*
G02*
X54807358Y9431040I-5J-198613D01*
G01*
X55087002Y9325609D02*
G75*
G02*
X55086990Y8928417I3J-198596D01*
G01*
X54807361Y8822984D02*
G75*
G02*
X55015736Y8928412I208370J-153198D01*
G01*
D10*
X55087002Y9325609D02*
X55015722Y9325609D01*
D11*
X55015722Y9325609D02*
G75*
G02*
X54807357Y9431038I-1J258612D01*
G01*
X53258272Y8928409D02*
X53187002Y8928409D01*
X54807361Y8822984D02*
G75*
G02*
X54647320Y8742008I-160038J117660D01*
G01*
X53187002Y8928409D02*
G75*
G02*
X53188859Y9325608I3J198604D01*
G01*
D10*
X53258302Y9325613D02*
X53188859Y9325608D01*
D11*
X53466634Y9431035D02*
G75*
G02*
X53258302Y9325613I-208345J153162D01*
G01*
X55086990Y8928417D02*
X55015736Y8928412D01*
X53258272Y8928409D02*
G75*
G02*
X53466644Y8822975I9J-258606D01*
G01*
X53466634Y10431031D02*
G75*
G02*
X53626682Y10512009I160055J-117688D01*
G01*
X53626661Y9742004D02*
G75*
G02*
X53466644Y9822970I0J198608D01*
G01*
X54647342Y10512004D02*
G75*
G02*
X54807358Y10431036I-5J-198613D01*
G01*
X55087002Y10325604D02*
G75*
G02*
X55086990Y9928413I3J-198596D01*
G01*
X54807361Y9822980D02*
G75*
G02*
X55015736Y9928408I208370J-153198D01*
G01*
D10*
X55087002Y10325604D02*
X55015722Y10325604D01*
D11*
X55015722Y10325604D02*
G75*
G02*
X54807357Y10431034I-1J258612D01*
G01*
X53258272Y9928404D02*
X53187002Y9928404D01*
X54807361Y9822980D02*
G75*
G02*
X54647320Y9742004I-160038J117660D01*
G01*
X53187002Y9928404D02*
G75*
G02*
X53188859Y10325604I3J198604D01*
G01*
D10*
X53258302Y10325608D02*
X53188859Y10325604D01*
D11*
X53466634Y10431031D02*
G75*
G02*
X53258302Y10325608I-208345J153162D01*
G01*
X55086990Y9928413D02*
X55015736Y9928408D01*
X53258272Y9928404D02*
G75*
G02*
X53466644Y9822970I9J-258606D01*
G01*
X53466634Y11431027D02*
G75*
G02*
X53626682Y11512005I160055J-117688D01*
G01*
X53626661Y10742000D02*
G75*
G02*
X53466644Y10822966I0J198608D01*
G01*
X54647342Y11512000D02*
G75*
G02*
X54807358Y11431031I-5J-198613D01*
G01*
X55087002Y11325600D02*
G75*
G02*
X55086990Y10928408I3J-198596D01*
G01*
X54807361Y10822975D02*
G75*
G02*
X55015736Y10928404I208370J-153198D01*
G01*
D10*
X55087002Y11325600D02*
X55015722Y11325600D01*
D11*
X55015722Y11325600D02*
G75*
G02*
X54807357Y11431030I-1J258612D01*
G01*
X53258272Y10928400D02*
X53187002Y10928400D01*
X54807361Y10822975D02*
G75*
G02*
X54647320Y10742000I-160038J117660D01*
G01*
X53187002Y10928400D02*
G75*
G02*
X53188859Y11325600I3J198604D01*
G01*
D10*
X53258302Y11325604D02*
X53188859Y11325600D01*
D11*
X53466634Y11431027D02*
G75*
G02*
X53258302Y11325604I-208345J153162D01*
G01*
X55086990Y10928408D02*
X55015736Y10928404D01*
X53258272Y10928400D02*
G75*
G02*
X53466644Y10822966I9J-258606D01*
G01*
X53258272Y11928400D02*
G75*
G02*
X53466645Y11822967I8J-258610D01*
G01*
X55087002Y12325600D02*
G75*
G02*
X55086990Y11928400I-2J-198600D01*
G01*
X54647342Y12512000D02*
G75*
G02*
X54807356Y12431030I-2J-198600D01*
G01*
D10*
X55087002Y12325600D02*
X55015722Y12325600D01*
D11*
X54807361Y11822975D02*
G75*
G02*
X54647320Y11741995I-160051J117675D01*
G01*
X53187002Y11928400D02*
G75*
G02*
X53188859Y12325591I-2J198600D01*
G01*
X55086990Y11928408D02*
X55015736Y11928404D01*
X54807361Y11822975D02*
G75*
G02*
X55015736Y11928400I208359J-153185D01*
G01*
X53466634Y12431027D02*
G75*
G02*
X53258302Y12325601I-208354J153173D01*
G01*
D10*
X53258302Y12325604D02*
X53188859Y12325600D01*
D11*
X53258272Y11928400D02*
X53187002Y11928400D01*
X55015722Y12325600D02*
G75*
G02*
X54807357Y12431030I-2J258610D01*
G01*
X53466634Y12431027D02*
G75*
G02*
X53626682Y12512002I160046J-117677D01*
G01*
X53626661Y11742000D02*
G75*
G02*
X53466646Y11822967I-2J198600D01*
G01*
D10*
X53626682Y12512005D02*
X54647342Y12512000D01*
X54346982Y11741999D02*
X54347003Y11512000D01*
D12*
D13*
X53815500Y11964700D02*
X53880500Y11899700D01*
X53880500Y11964700D02*
X53815500Y11899700D01*
X53815500Y10964700D02*
X53880500Y10899700D01*
X53880500Y10964700D02*
X53815500Y10899700D01*
X53815500Y9964705D02*
X53880500Y9899705D01*
X53880500Y9964705D02*
X53815500Y9899705D01*
X53815500Y8964709D02*
X53880500Y8899709D01*
X53880500Y8964709D02*
X53815500Y8899709D01*
X53815500Y7964713D02*
X53880500Y7899713D01*
X53880500Y7964713D02*
X53815500Y7899713D01*
X53815500Y6964717D02*
X53880500Y6899717D01*
X53880500Y6964717D02*
X53815500Y6899717D01*
X53815500Y5964722D02*
X53880500Y5899722D01*
X53880500Y5964722D02*
X53815500Y5899722D01*
X53815500Y4964726D02*
X53880500Y4899726D01*
X53880500Y4964726D02*
X53815500Y4899726D01*
X53815500Y3964730D02*
X53880500Y3899730D01*
X53880500Y3964730D02*
X53815500Y3899730D01*
X53815500Y2964730D02*
X53880500Y2899730D01*
X53880500Y2964730D02*
X53815500Y2899730D01*
X53815500Y1964730D02*
X53880500Y1899730D01*
X53880500Y1964730D02*
X53815500Y1899730D01*
X53815500Y964735D02*
X53880500Y899735D01*
X53880500Y964735D02*
X53815500Y899735D01*
X53815500Y-35261D02*
X53880500Y-100261D01*
X53880500Y-35261D02*
X53815500Y-100261D01*
X53815500Y-1035257D02*
X53880500Y-1100257D01*
X53880500Y-1035257D02*
X53815500Y-1100257D01*
X53815500Y-2035252D02*
X53880500Y-2100252D01*
X53880500Y-2035252D02*
X53815500Y-2100252D01*
X53815500Y-3035248D02*
X53880500Y-3100248D01*
X53880500Y-3035248D02*
X53815500Y-3100248D01*
X53815500Y-4035244D02*
X53880500Y-4100244D01*
X53880500Y-4035244D02*
X53815500Y-4100244D01*
X53815500Y-5035240D02*
X53880500Y-5100240D01*
X53880500Y-5035240D02*
X53815500Y-5100240D01*
X54393500Y11964700D02*
X54458500Y11899700D01*
X54458500Y11964700D02*
X54393500Y11899700D01*
X54393500Y10964700D02*
X54458500Y10899700D01*
X54458500Y10964700D02*
X54393500Y10899700D01*
X54393500Y9964705D02*
X54458500Y9899705D01*
X54458500Y9964705D02*
X54393500Y9899705D01*
X54393500Y8964709D02*
X54458500Y8899709D01*
X54458500Y8964709D02*
X54393500Y8899709D01*
X54393500Y7964713D02*
X54458500Y7899713D01*
X54458500Y7964713D02*
X54393500Y7899713D01*
X54393500Y6964717D02*
X54458500Y6899717D01*
X54458500Y6964717D02*
X54393500Y6899717D01*
X54393500Y5964722D02*
X54458500Y5899722D01*
X54458500Y5964722D02*
X54393500Y5899722D01*
X54393500Y4964726D02*
X54458500Y4899726D01*
X54458500Y4964726D02*
X54393500Y4899726D01*
X54393500Y3964730D02*
X54458500Y3899730D01*
X54458500Y3964730D02*
X54393500Y3899730D01*
X54393500Y2964730D02*
X54458500Y2899730D01*
X54458500Y2964730D02*
X54393500Y2899730D01*
X54393500Y1964730D02*
X54458500Y1899730D01*
X54458500Y1964730D02*
X54393500Y1899730D01*
X54393500Y964735D02*
X54458500Y899735D01*
X54458500Y964735D02*
X54393500Y899735D01*
X54393500Y-35261D02*
X54458500Y-100261D01*
X54458500Y-35261D02*
X54393500Y-100261D01*
X54393500Y-1035257D02*
X54458500Y-1100257D01*
X54458500Y-1035257D02*
X54393500Y-1100257D01*
X54393500Y-2035252D02*
X54458500Y-2100252D01*
X54458500Y-2035252D02*
X54393500Y-2100252D01*
X54393500Y-3035248D02*
X54458500Y-3100248D01*
X54458500Y-3035248D02*
X54393500Y-3100248D01*
X54393500Y-4035244D02*
X54458500Y-4100244D01*
X54458500Y-4035244D02*
X54393500Y-4100244D01*
X54393500Y-5035240D02*
X54458500Y-5100240D01*
X54458500Y-5035240D02*
X54393500Y-5100240D01*
D12*
X53224177Y-5594424D02*
X53224177Y-5394424D01*
X53224177Y-5394424D02*
X53271796Y-5394424D01*
X53271796Y-5394424D02*
X53300367Y-5403948D01*
X53300367Y-5403948D02*
X53319415Y-5422995D01*
X53319415Y-5422995D02*
X53328939Y-5442043D01*
X53328939Y-5442043D02*
X53338462Y-5480138D01*
X53338462Y-5480138D02*
X53338462Y-5508710D01*
X53338462Y-5508710D02*
X53328939Y-5546805D01*
X53328939Y-5546805D02*
X53319415Y-5565853D01*
X53319415Y-5565853D02*
X53300367Y-5584900D01*
X53300367Y-5584900D02*
X53271796Y-5594424D01*
X53271796Y-5594424D02*
X53224177Y-5594424D01*
X53424177Y-5594424D02*
X53424177Y-5461091D01*
X53424177Y-5499186D02*
X53433701Y-5480138D01*
X53433701Y-5480138D02*
X53443224Y-5470614D01*
X53443224Y-5470614D02*
X53462272Y-5461091D01*
X53462272Y-5461091D02*
X53481320Y-5461091D01*
X53547986Y-5594424D02*
X53547986Y-5461091D01*
X53547986Y-5394424D02*
X53538462Y-5403948D01*
X53538462Y-5403948D02*
X53547986Y-5413472D01*
X53547986Y-5413472D02*
X53557510Y-5403948D01*
X53557510Y-5403948D02*
X53547986Y-5394424D01*
X53547986Y-5394424D02*
X53547986Y-5413472D01*
X53671796Y-5594424D02*
X53652748Y-5584900D01*
X53652748Y-5584900D02*
X53643224Y-5565853D01*
X53643224Y-5565853D02*
X53643224Y-5394424D01*
X53776558Y-5594424D02*
X53757510Y-5584900D01*
X53757510Y-5584900D02*
X53747986Y-5565853D01*
X53747986Y-5565853D02*
X53747986Y-5394424D01*
X54005129Y-5594424D02*
X54005129Y-5394424D01*
X54005129Y-5394424D02*
X54071796Y-5537281D01*
X54071796Y-5537281D02*
X54138462Y-5394424D01*
X54138462Y-5394424D02*
X54138462Y-5594424D01*
X54319415Y-5594424D02*
X54319415Y-5489662D01*
X54319415Y-5489662D02*
X54309891Y-5470614D01*
X54309891Y-5470614D02*
X54290843Y-5461091D01*
X54290843Y-5461091D02*
X54252748Y-5461091D01*
X54252748Y-5461091D02*
X54233701Y-5470614D01*
X54319415Y-5584900D02*
X54300367Y-5594424D01*
X54300367Y-5594424D02*
X54252748Y-5594424D01*
X54252748Y-5594424D02*
X54233701Y-5584900D01*
X54233701Y-5584900D02*
X54224177Y-5565853D01*
X54224177Y-5565853D02*
X54224177Y-5546805D01*
X54224177Y-5546805D02*
X54233701Y-5527757D01*
X54233701Y-5527757D02*
X54252748Y-5518234D01*
X54252748Y-5518234D02*
X54300367Y-5518234D01*
X54300367Y-5518234D02*
X54319415Y-5508710D01*
X54414653Y-5461091D02*
X54414653Y-5661091D01*
X54414653Y-5470614D02*
X54433701Y-5461091D01*
X54433701Y-5461091D02*
X54471796Y-5461091D01*
X54471796Y-5461091D02*
X54490843Y-5470614D01*
X54490843Y-5470614D02*
X54500367Y-5480138D01*
X54500367Y-5480138D02*
X54509891Y-5499186D01*
X54509891Y-5499186D02*
X54509891Y-5556329D01*
X54509891Y-5556329D02*
X54500367Y-5575376D01*
X54500367Y-5575376D02*
X54490843Y-5584900D01*
X54490843Y-5584900D02*
X54471796Y-5594424D01*
X54471796Y-5594424D02*
X54433701Y-5594424D01*
X54433701Y-5594424D02*
X54414653Y-5584900D01*
X54595605Y-5575376D02*
X54605129Y-5584900D01*
X54605129Y-5584900D02*
X54595605Y-5594424D01*
X54595605Y-5594424D02*
X54586082Y-5584900D01*
X54586082Y-5584900D02*
X54595605Y-5575376D01*
X54595605Y-5575376D02*
X54595605Y-5594424D01*
X54595605Y-5470614D02*
X54605129Y-5480138D01*
X54605129Y-5480138D02*
X54595605Y-5489662D01*
X54595605Y-5489662D02*
X54586082Y-5480138D01*
X54586082Y-5480138D02*
X54595605Y-5470614D01*
X54595605Y-5470614D02*
X54595605Y-5489662D01*
D13*
X52898400Y-5890440D02*
X52963400Y-5955440D01*
X52963400Y-5890440D02*
X52898400Y-5955440D01*
D12*
X53262272Y-5814424D02*
X53281320Y-5814424D01*
X53281320Y-5814424D02*
X53300367Y-5823948D01*
X53300367Y-5823948D02*
X53309891Y-5833472D01*
X53309891Y-5833472D02*
X53319415Y-5852519D01*
X53319415Y-5852519D02*
X53328939Y-5890614D01*
X53328939Y-5890614D02*
X53328939Y-5938233D01*
X53328939Y-5938233D02*
X53319415Y-5976329D01*
X53319415Y-5976329D02*
X53309891Y-5995376D01*
X53309891Y-5995376D02*
X53300367Y-6004900D01*
X53300367Y-6004900D02*
X53281320Y-6014424D01*
X53281320Y-6014424D02*
X53262272Y-6014424D01*
X53262272Y-6014424D02*
X53243224Y-6004900D01*
X53243224Y-6004900D02*
X53233701Y-5995376D01*
X53233701Y-5995376D02*
X53224177Y-5976329D01*
X53224177Y-5976329D02*
X53214653Y-5938233D01*
X53214653Y-5938233D02*
X53214653Y-5890614D01*
X53214653Y-5890614D02*
X53224177Y-5852519D01*
X53224177Y-5852519D02*
X53233701Y-5833472D01*
X53233701Y-5833472D02*
X53243224Y-5823948D01*
X53243224Y-5823948D02*
X53262272Y-5814424D01*
X53414653Y-5995376D02*
X53424177Y-6004900D01*
X53424177Y-6004900D02*
X53414653Y-6014424D01*
X53414653Y-6014424D02*
X53405129Y-6004900D01*
X53405129Y-6004900D02*
X53414653Y-5995376D01*
X53414653Y-5995376D02*
X53414653Y-6014424D01*
X53595605Y-5814424D02*
X53557510Y-5814424D01*
X53557510Y-5814424D02*
X53538462Y-5823948D01*
X53538462Y-5823948D02*
X53528939Y-5833472D01*
X53528939Y-5833472D02*
X53509891Y-5862043D01*
X53509891Y-5862043D02*
X53500367Y-5900138D01*
X53500367Y-5900138D02*
X53500367Y-5976329D01*
X53500367Y-5976329D02*
X53509891Y-5995376D01*
X53509891Y-5995376D02*
X53519415Y-6004900D01*
X53519415Y-6004900D02*
X53538462Y-6014424D01*
X53538462Y-6014424D02*
X53576558Y-6014424D01*
X53576558Y-6014424D02*
X53595605Y-6004900D01*
X53595605Y-6004900D02*
X53605129Y-5995376D01*
X53605129Y-5995376D02*
X53614653Y-5976329D01*
X53614653Y-5976329D02*
X53614653Y-5928710D01*
X53614653Y-5928710D02*
X53605129Y-5909662D01*
X53605129Y-5909662D02*
X53595605Y-5900138D01*
X53595605Y-5900138D02*
X53576558Y-5890614D01*
X53576558Y-5890614D02*
X53538462Y-5890614D01*
X53538462Y-5890614D02*
X53519415Y-5900138D01*
X53519415Y-5900138D02*
X53509891Y-5909662D01*
X53509891Y-5909662D02*
X53500367Y-5928710D01*
X53795605Y-5814424D02*
X53700367Y-5814424D01*
X53700367Y-5814424D02*
X53690843Y-5909662D01*
X53690843Y-5909662D02*
X53700367Y-5900138D01*
X53700367Y-5900138D02*
X53719415Y-5890614D01*
X53719415Y-5890614D02*
X53767034Y-5890614D01*
X53767034Y-5890614D02*
X53786082Y-5900138D01*
X53786082Y-5900138D02*
X53795605Y-5909662D01*
X53795605Y-5909662D02*
X53805129Y-5928710D01*
X53805129Y-5928710D02*
X53805129Y-5976329D01*
X53805129Y-5976329D02*
X53795605Y-5995376D01*
X53795605Y-5995376D02*
X53786082Y-6004900D01*
X53786082Y-6004900D02*
X53767034Y-6014424D01*
X53767034Y-6014424D02*
X53719415Y-6014424D01*
X53719415Y-6014424D02*
X53700367Y-6004900D01*
X53700367Y-6004900D02*
X53690843Y-5995376D01*
X53928939Y-5814424D02*
X53947986Y-5814424D01*
X53947986Y-5814424D02*
X53967034Y-5823948D01*
X53967034Y-5823948D02*
X53976558Y-5833472D01*
X53976558Y-5833472D02*
X53986082Y-5852519D01*
X53986082Y-5852519D02*
X53995605Y-5890614D01*
X53995605Y-5890614D02*
X53995605Y-5938233D01*
X53995605Y-5938233D02*
X53986082Y-5976329D01*
X53986082Y-5976329D02*
X53976558Y-5995376D01*
X53976558Y-5995376D02*
X53967034Y-6004900D01*
X53967034Y-6004900D02*
X53947986Y-6014424D01*
X53947986Y-6014424D02*
X53928939Y-6014424D01*
X53928939Y-6014424D02*
X53909891Y-6004900D01*
X53909891Y-6004900D02*
X53900367Y-5995376D01*
X53900367Y-5995376D02*
X53890843Y-5976329D01*
X53890843Y-5976329D02*
X53881320Y-5938233D01*
X53881320Y-5938233D02*
X53881320Y-5890614D01*
X53881320Y-5890614D02*
X53890843Y-5852519D01*
X53890843Y-5852519D02*
X53900367Y-5833472D01*
X53900367Y-5833472D02*
X53909891Y-5823948D01*
X53909891Y-5823948D02*
X53928939Y-5814424D01*
X54081320Y-6014424D02*
X54081320Y-5881091D01*
X54081320Y-5900138D02*
X54090843Y-5890614D01*
X54090843Y-5890614D02*
X54109891Y-5881091D01*
X54109891Y-5881091D02*
X54138463Y-5881091D01*
X54138463Y-5881091D02*
X54157510Y-5890614D01*
X54157510Y-5890614D02*
X54167034Y-5909662D01*
X54167034Y-5909662D02*
X54167034Y-6014424D01*
X54167034Y-5909662D02*
X54176558Y-5890614D01*
X54176558Y-5890614D02*
X54195605Y-5881091D01*
X54195605Y-5881091D02*
X54224177Y-5881091D01*
X54224177Y-5881091D02*
X54243224Y-5890614D01*
X54243224Y-5890614D02*
X54252748Y-5909662D01*
X54252748Y-5909662D02*
X54252748Y-6014424D01*
X54347986Y-6014424D02*
X54347986Y-5881091D01*
X54347986Y-5900138D02*
X54357510Y-5890614D01*
X54357510Y-5890614D02*
X54376558Y-5881091D01*
X54376558Y-5881091D02*
X54405129Y-5881091D01*
X54405129Y-5881091D02*
X54424177Y-5890614D01*
X54424177Y-5890614D02*
X54433701Y-5909662D01*
X54433701Y-5909662D02*
X54433701Y-6014424D01*
X54433701Y-5909662D02*
X54443224Y-5890614D01*
X54443224Y-5890614D02*
X54462272Y-5881091D01*
X54462272Y-5881091D02*
X54490843Y-5881091D01*
X54490843Y-5881091D02*
X54509891Y-5890614D01*
X54509891Y-5890614D02*
X54519415Y-5909662D01*
X54519415Y-5909662D02*
X54519415Y-6014424D01*
X54909891Y-5804900D02*
X54738463Y-6062043D01*
X55167034Y-5814424D02*
X55186082Y-5814424D01*
X55186082Y-5814424D02*
X55205129Y-5823948D01*
X55205129Y-5823948D02*
X55214653Y-5833472D01*
X55214653Y-5833472D02*
X55224177Y-5852519D01*
X55224177Y-5852519D02*
X55233701Y-5890614D01*
X55233701Y-5890614D02*
X55233701Y-5938233D01*
X55233701Y-5938233D02*
X55224177Y-5976329D01*
X55224177Y-5976329D02*
X55214653Y-5995376D01*
X55214653Y-5995376D02*
X55205129Y-6004900D01*
X55205129Y-6004900D02*
X55186082Y-6014424D01*
X55186082Y-6014424D02*
X55167034Y-6014424D01*
X55167034Y-6014424D02*
X55147986Y-6004900D01*
X55147986Y-6004900D02*
X55138463Y-5995376D01*
X55138463Y-5995376D02*
X55128939Y-5976329D01*
X55128939Y-5976329D02*
X55119415Y-5938233D01*
X55119415Y-5938233D02*
X55119415Y-5890614D01*
X55119415Y-5890614D02*
X55128939Y-5852519D01*
X55128939Y-5852519D02*
X55138463Y-5833472D01*
X55138463Y-5833472D02*
X55147986Y-5823948D01*
X55147986Y-5823948D02*
X55167034Y-5814424D01*
X55319415Y-5995376D02*
X55328939Y-6004900D01*
X55328939Y-6004900D02*
X55319415Y-6014424D01*
X55319415Y-6014424D02*
X55309891Y-6004900D01*
X55309891Y-6004900D02*
X55319415Y-5995376D01*
X55319415Y-5995376D02*
X55319415Y-6014424D01*
X55452748Y-5814424D02*
X55471796Y-5814424D01*
X55471796Y-5814424D02*
X55490844Y-5823948D01*
X55490844Y-5823948D02*
X55500367Y-5833472D01*
X55500367Y-5833472D02*
X55509891Y-5852519D01*
X55509891Y-5852519D02*
X55519415Y-5890614D01*
X55519415Y-5890614D02*
X55519415Y-5938233D01*
X55519415Y-5938233D02*
X55509891Y-5976329D01*
X55509891Y-5976329D02*
X55500367Y-5995376D01*
X55500367Y-5995376D02*
X55490844Y-6004900D01*
X55490844Y-6004900D02*
X55471796Y-6014424D01*
X55471796Y-6014424D02*
X55452748Y-6014424D01*
X55452748Y-6014424D02*
X55433701Y-6004900D01*
X55433701Y-6004900D02*
X55424177Y-5995376D01*
X55424177Y-5995376D02*
X55414653Y-5976329D01*
X55414653Y-5976329D02*
X55405129Y-5938233D01*
X55405129Y-5938233D02*
X55405129Y-5890614D01*
X55405129Y-5890614D02*
X55414653Y-5852519D01*
X55414653Y-5852519D02*
X55424177Y-5833472D01*
X55424177Y-5833472D02*
X55433701Y-5823948D01*
X55433701Y-5823948D02*
X55452748Y-5814424D01*
X55595606Y-5833472D02*
X55605129Y-5823948D01*
X55605129Y-5823948D02*
X55624177Y-5814424D01*
X55624177Y-5814424D02*
X55671796Y-5814424D01*
X55671796Y-5814424D02*
X55690844Y-5823948D01*
X55690844Y-5823948D02*
X55700367Y-5833472D01*
X55700367Y-5833472D02*
X55709891Y-5852519D01*
X55709891Y-5852519D02*
X55709891Y-5871567D01*
X55709891Y-5871567D02*
X55700367Y-5900138D01*
X55700367Y-5900138D02*
X55586082Y-6014424D01*
X55586082Y-6014424D02*
X55709891Y-6014424D01*
X55890844Y-5814424D02*
X55795606Y-5814424D01*
X55795606Y-5814424D02*
X55786082Y-5909662D01*
X55786082Y-5909662D02*
X55795606Y-5900138D01*
X55795606Y-5900138D02*
X55814653Y-5890614D01*
X55814653Y-5890614D02*
X55862272Y-5890614D01*
X55862272Y-5890614D02*
X55881320Y-5900138D01*
X55881320Y-5900138D02*
X55890844Y-5909662D01*
X55890844Y-5909662D02*
X55900367Y-5928710D01*
X55900367Y-5928710D02*
X55900367Y-5976329D01*
X55900367Y-5976329D02*
X55890844Y-5995376D01*
X55890844Y-5995376D02*
X55881320Y-6004900D01*
X55881320Y-6004900D02*
X55862272Y-6014424D01*
X55862272Y-6014424D02*
X55814653Y-6014424D01*
X55814653Y-6014424D02*
X55795606Y-6004900D01*
X55795606Y-6004900D02*
X55786082Y-5995376D01*
X56071796Y-5814424D02*
X56033701Y-5814424D01*
X56033701Y-5814424D02*
X56014653Y-5823948D01*
X56014653Y-5823948D02*
X56005129Y-5833472D01*
X56005129Y-5833472D02*
X55986082Y-5862043D01*
X55986082Y-5862043D02*
X55976558Y-5900138D01*
X55976558Y-5900138D02*
X55976558Y-5976329D01*
X55976558Y-5976329D02*
X55986082Y-5995376D01*
X55986082Y-5995376D02*
X55995606Y-6004900D01*
X55995606Y-6004900D02*
X56014653Y-6014424D01*
X56014653Y-6014424D02*
X56052748Y-6014424D01*
X56052748Y-6014424D02*
X56071796Y-6004900D01*
X56071796Y-6004900D02*
X56081320Y-5995376D01*
X56081320Y-5995376D02*
X56090844Y-5976329D01*
X56090844Y-5976329D02*
X56090844Y-5928710D01*
X56090844Y-5928710D02*
X56081320Y-5909662D01*
X56081320Y-5909662D02*
X56071796Y-5900138D01*
X56071796Y-5900138D02*
X56052748Y-5890614D01*
X56052748Y-5890614D02*
X56014653Y-5890614D01*
X56014653Y-5890614D02*
X55995606Y-5900138D01*
X55995606Y-5900138D02*
X55986082Y-5909662D01*
X55986082Y-5909662D02*
X55976558Y-5928710D01*
X56167034Y-5814424D02*
X56167034Y-5852519D01*
X56243225Y-5814424D02*
X56243225Y-5852519D01*
X56538463Y-6090614D02*
X56528939Y-6081091D01*
X56528939Y-6081091D02*
X56509891Y-6052519D01*
X56509891Y-6052519D02*
X56500368Y-6033472D01*
X56500368Y-6033472D02*
X56490844Y-6004900D01*
X56490844Y-6004900D02*
X56481320Y-5957281D01*
X56481320Y-5957281D02*
X56481320Y-5919186D01*
X56481320Y-5919186D02*
X56490844Y-5871567D01*
X56490844Y-5871567D02*
X56500368Y-5842995D01*
X56500368Y-5842995D02*
X56509891Y-5823948D01*
X56509891Y-5823948D02*
X56528939Y-5795376D01*
X56528939Y-5795376D02*
X56538463Y-5785852D01*
X56595606Y-5814424D02*
X56719415Y-5814424D01*
X56719415Y-5814424D02*
X56652748Y-5890614D01*
X56652748Y-5890614D02*
X56681320Y-5890614D01*
X56681320Y-5890614D02*
X56700368Y-5900138D01*
X56700368Y-5900138D02*
X56709891Y-5909662D01*
X56709891Y-5909662D02*
X56719415Y-5928710D01*
X56719415Y-5928710D02*
X56719415Y-5976329D01*
X56719415Y-5976329D02*
X56709891Y-5995376D01*
X56709891Y-5995376D02*
X56700368Y-6004900D01*
X56700368Y-6004900D02*
X56681320Y-6014424D01*
X56681320Y-6014424D02*
X56624177Y-6014424D01*
X56624177Y-6014424D02*
X56605129Y-6004900D01*
X56605129Y-6004900D02*
X56595606Y-5995376D01*
X56890844Y-5814424D02*
X56852748Y-5814424D01*
X56852748Y-5814424D02*
X56833701Y-5823948D01*
X56833701Y-5823948D02*
X56824177Y-5833472D01*
X56824177Y-5833472D02*
X56805129Y-5862043D01*
X56805129Y-5862043D02*
X56795606Y-5900138D01*
X56795606Y-5900138D02*
X56795606Y-5976329D01*
X56795606Y-5976329D02*
X56805129Y-5995376D01*
X56805129Y-5995376D02*
X56814653Y-6004900D01*
X56814653Y-6004900D02*
X56833701Y-6014424D01*
X56833701Y-6014424D02*
X56871796Y-6014424D01*
X56871796Y-6014424D02*
X56890844Y-6004900D01*
X56890844Y-6004900D02*
X56900368Y-5995376D01*
X56900368Y-5995376D02*
X56909891Y-5976329D01*
X56909891Y-5976329D02*
X56909891Y-5928710D01*
X56909891Y-5928710D02*
X56900368Y-5909662D01*
X56900368Y-5909662D02*
X56890844Y-5900138D01*
X56890844Y-5900138D02*
X56871796Y-5890614D01*
X56871796Y-5890614D02*
X56833701Y-5890614D01*
X56833701Y-5890614D02*
X56814653Y-5900138D01*
X56814653Y-5900138D02*
X56805129Y-5909662D01*
X56805129Y-5909662D02*
X56795606Y-5928710D01*
X57147987Y-6014424D02*
X57147987Y-5814424D01*
X57233701Y-6014424D02*
X57233701Y-5909662D01*
X57233701Y-5909662D02*
X57224177Y-5890614D01*
X57224177Y-5890614D02*
X57205130Y-5881091D01*
X57205130Y-5881091D02*
X57176558Y-5881091D01*
X57176558Y-5881091D02*
X57157510Y-5890614D01*
X57157510Y-5890614D02*
X57147987Y-5900138D01*
X57357510Y-6014424D02*
X57338463Y-6004900D01*
X57338463Y-6004900D02*
X57328939Y-5995376D01*
X57328939Y-5995376D02*
X57319415Y-5976329D01*
X57319415Y-5976329D02*
X57319415Y-5919186D01*
X57319415Y-5919186D02*
X57328939Y-5900138D01*
X57328939Y-5900138D02*
X57338463Y-5890614D01*
X57338463Y-5890614D02*
X57357510Y-5881091D01*
X57357510Y-5881091D02*
X57386082Y-5881091D01*
X57386082Y-5881091D02*
X57405130Y-5890614D01*
X57405130Y-5890614D02*
X57414653Y-5900138D01*
X57414653Y-5900138D02*
X57424177Y-5919186D01*
X57424177Y-5919186D02*
X57424177Y-5976329D01*
X57424177Y-5976329D02*
X57414653Y-5995376D01*
X57414653Y-5995376D02*
X57405130Y-6004900D01*
X57405130Y-6004900D02*
X57386082Y-6014424D01*
X57386082Y-6014424D02*
X57357510Y-6014424D01*
X57538463Y-6014424D02*
X57519415Y-6004900D01*
X57519415Y-6004900D02*
X57509891Y-5985852D01*
X57509891Y-5985852D02*
X57509891Y-5814424D01*
X57690844Y-6004900D02*
X57671796Y-6014424D01*
X57671796Y-6014424D02*
X57633701Y-6014424D01*
X57633701Y-6014424D02*
X57614653Y-6004900D01*
X57614653Y-6004900D02*
X57605130Y-5985852D01*
X57605130Y-5985852D02*
X57605130Y-5909662D01*
X57605130Y-5909662D02*
X57614653Y-5890614D01*
X57614653Y-5890614D02*
X57633701Y-5881091D01*
X57633701Y-5881091D02*
X57671796Y-5881091D01*
X57671796Y-5881091D02*
X57690844Y-5890614D01*
X57690844Y-5890614D02*
X57700368Y-5909662D01*
X57700368Y-5909662D02*
X57700368Y-5928710D01*
X57700368Y-5928710D02*
X57605130Y-5947757D01*
X57776558Y-6004900D02*
X57795606Y-6014424D01*
X57795606Y-6014424D02*
X57833701Y-6014424D01*
X57833701Y-6014424D02*
X57852749Y-6004900D01*
X57852749Y-6004900D02*
X57862272Y-5985852D01*
X57862272Y-5985852D02*
X57862272Y-5976329D01*
X57862272Y-5976329D02*
X57852749Y-5957281D01*
X57852749Y-5957281D02*
X57833701Y-5947757D01*
X57833701Y-5947757D02*
X57805130Y-5947757D01*
X57805130Y-5947757D02*
X57786082Y-5938233D01*
X57786082Y-5938233D02*
X57776558Y-5919186D01*
X57776558Y-5919186D02*
X57776558Y-5909662D01*
X57776558Y-5909662D02*
X57786082Y-5890614D01*
X57786082Y-5890614D02*
X57805130Y-5881091D01*
X57805130Y-5881091D02*
X57833701Y-5881091D01*
X57833701Y-5881091D02*
X57852749Y-5890614D01*
X57928939Y-6090614D02*
X57938463Y-6081091D01*
X57938463Y-6081091D02*
X57957511Y-6052519D01*
X57957511Y-6052519D02*
X57967034Y-6033472D01*
X57967034Y-6033472D02*
X57976558Y-6004900D01*
X57976558Y-6004900D02*
X57986082Y-5957281D01*
X57986082Y-5957281D02*
X57986082Y-5919186D01*
X57986082Y-5919186D02*
X57976558Y-5871567D01*
X57976558Y-5871567D02*
X57967034Y-5842995D01*
X57967034Y-5842995D02*
X57957511Y-5823948D01*
X57957511Y-5823948D02*
X57938463Y-5795376D01*
X57938463Y-5795376D02*
X57928939Y-5785852D01*
X58290844Y-6090614D02*
X58281320Y-6081091D01*
X58281320Y-6081091D02*
X58262272Y-6052519D01*
X58262272Y-6052519D02*
X58252749Y-6033472D01*
X58252749Y-6033472D02*
X58243225Y-6004900D01*
X58243225Y-6004900D02*
X58233701Y-5957281D01*
X58233701Y-5957281D02*
X58233701Y-5919186D01*
X58233701Y-5919186D02*
X58243225Y-5871567D01*
X58243225Y-5871567D02*
X58252749Y-5842995D01*
X58252749Y-5842995D02*
X58262272Y-5823948D01*
X58262272Y-5823948D02*
X58281320Y-5795376D01*
X58281320Y-5795376D02*
X58290844Y-5785852D01*
X58367034Y-5881091D02*
X58367034Y-6014424D01*
X58367034Y-5900138D02*
X58376558Y-5890614D01*
X58376558Y-5890614D02*
X58395606Y-5881091D01*
X58395606Y-5881091D02*
X58424177Y-5881091D01*
X58424177Y-5881091D02*
X58443225Y-5890614D01*
X58443225Y-5890614D02*
X58452749Y-5909662D01*
X58452749Y-5909662D02*
X58452749Y-6014424D01*
X58576558Y-6014424D02*
X58557511Y-6004900D01*
X58557511Y-6004900D02*
X58547987Y-5995376D01*
X58547987Y-5995376D02*
X58538463Y-5976329D01*
X58538463Y-5976329D02*
X58538463Y-5919186D01*
X58538463Y-5919186D02*
X58547987Y-5900138D01*
X58547987Y-5900138D02*
X58557511Y-5890614D01*
X58557511Y-5890614D02*
X58576558Y-5881091D01*
X58576558Y-5881091D02*
X58605130Y-5881091D01*
X58605130Y-5881091D02*
X58624177Y-5890614D01*
X58624177Y-5890614D02*
X58633701Y-5900138D01*
X58633701Y-5900138D02*
X58643225Y-5919186D01*
X58643225Y-5919186D02*
X58643225Y-5976329D01*
X58643225Y-5976329D02*
X58633701Y-5995376D01*
X58633701Y-5995376D02*
X58624177Y-6004900D01*
X58624177Y-6004900D02*
X58605130Y-6014424D01*
X58605130Y-6014424D02*
X58576558Y-6014424D01*
X58700368Y-5881091D02*
X58776558Y-5881091D01*
X58728939Y-5814424D02*
X58728939Y-5985852D01*
X58728939Y-5985852D02*
X58738463Y-6004900D01*
X58738463Y-6004900D02*
X58757511Y-6014424D01*
X58757511Y-6014424D02*
X58776558Y-6014424D01*
X58995606Y-5881091D02*
X58995606Y-6081091D01*
X58995606Y-5890614D02*
X59014653Y-5881091D01*
X59014653Y-5881091D02*
X59052749Y-5881091D01*
X59052749Y-5881091D02*
X59071796Y-5890614D01*
X59071796Y-5890614D02*
X59081320Y-5900138D01*
X59081320Y-5900138D02*
X59090844Y-5919186D01*
X59090844Y-5919186D02*
X59090844Y-5976329D01*
X59090844Y-5976329D02*
X59081320Y-5995376D01*
X59081320Y-5995376D02*
X59071796Y-6004900D01*
X59071796Y-6004900D02*
X59052749Y-6014424D01*
X59052749Y-6014424D02*
X59014653Y-6014424D01*
X59014653Y-6014424D02*
X58995606Y-6004900D01*
X59205130Y-6014424D02*
X59186082Y-6004900D01*
X59186082Y-6004900D02*
X59176558Y-5985852D01*
X59176558Y-5985852D02*
X59176558Y-5814424D01*
X59367034Y-6014424D02*
X59367034Y-5909662D01*
X59367034Y-5909662D02*
X59357511Y-5890614D01*
X59357511Y-5890614D02*
X59338463Y-5881091D01*
X59338463Y-5881091D02*
X59300368Y-5881091D01*
X59300368Y-5881091D02*
X59281320Y-5890614D01*
X59367034Y-6004900D02*
X59347987Y-6014424D01*
X59347987Y-6014424D02*
X59300368Y-6014424D01*
X59300368Y-6014424D02*
X59281320Y-6004900D01*
X59281320Y-6004900D02*
X59271796Y-5985852D01*
X59271796Y-5985852D02*
X59271796Y-5966805D01*
X59271796Y-5966805D02*
X59281320Y-5947757D01*
X59281320Y-5947757D02*
X59300368Y-5938233D01*
X59300368Y-5938233D02*
X59347987Y-5938233D01*
X59347987Y-5938233D02*
X59367034Y-5928710D01*
X59433701Y-5881091D02*
X59509892Y-5881091D01*
X59462273Y-5814424D02*
X59462273Y-5985852D01*
X59462273Y-5985852D02*
X59471796Y-6004900D01*
X59471796Y-6004900D02*
X59490844Y-6014424D01*
X59490844Y-6014424D02*
X59509892Y-6014424D01*
X59652749Y-6004900D02*
X59633701Y-6014424D01*
X59633701Y-6014424D02*
X59595606Y-6014424D01*
X59595606Y-6014424D02*
X59576558Y-6004900D01*
X59576558Y-6004900D02*
X59567034Y-5985852D01*
X59567034Y-5985852D02*
X59567034Y-5909662D01*
X59567034Y-5909662D02*
X59576558Y-5890614D01*
X59576558Y-5890614D02*
X59595606Y-5881091D01*
X59595606Y-5881091D02*
X59633701Y-5881091D01*
X59633701Y-5881091D02*
X59652749Y-5890614D01*
X59652749Y-5890614D02*
X59662273Y-5909662D01*
X59662273Y-5909662D02*
X59662273Y-5928710D01*
X59662273Y-5928710D02*
X59567034Y-5947757D01*
X59833701Y-6014424D02*
X59833701Y-5814424D01*
X59833701Y-6004900D02*
X59814654Y-6014424D01*
X59814654Y-6014424D02*
X59776558Y-6014424D01*
X59776558Y-6014424D02*
X59757511Y-6004900D01*
X59757511Y-6004900D02*
X59747987Y-5995376D01*
X59747987Y-5995376D02*
X59738463Y-5976329D01*
X59738463Y-5976329D02*
X59738463Y-5919186D01*
X59738463Y-5919186D02*
X59747987Y-5900138D01*
X59747987Y-5900138D02*
X59757511Y-5890614D01*
X59757511Y-5890614D02*
X59776558Y-5881091D01*
X59776558Y-5881091D02*
X59814654Y-5881091D01*
X59814654Y-5881091D02*
X59833701Y-5890614D01*
X59909892Y-6090614D02*
X59919415Y-6081091D01*
X59919415Y-6081091D02*
X59938463Y-6052519D01*
X59938463Y-6052519D02*
X59947987Y-6033472D01*
X59947987Y-6033472D02*
X59957511Y-6004900D01*
X59957511Y-6004900D02*
X59967034Y-5957281D01*
X59967034Y-5957281D02*
X59967034Y-5919186D01*
X59967034Y-5919186D02*
X59957511Y-5871567D01*
X59957511Y-5871567D02*
X59947987Y-5842995D01*
X59947987Y-5842995D02*
X59938463Y-5823948D01*
X59938463Y-5823948D02*
X59919415Y-5795376D01*
X59919415Y-5795376D02*
X59909892Y-5785852D01*
M02*
