%TF.GenerationSoftware,KiCad,Pcbnew,8.99.0-946-gf00a1ab517*%
%TF.CreationDate,2024-05-19T19:51:51+07:00*%
%TF.ProjectId,dtb_toro,6474625f-746f-4726-9f2e-6b696361645f,rev?*%
%TF.SameCoordinates,Original*%
%TF.FileFunction,Copper,L2,Bot*%
%TF.FilePolarity,Positive*%
%FSLAX46Y46*%
G04 Gerber Fmt 4.6, Leading zero omitted, Abs format (unit mm)*
G04 Created by KiCad (PCBNEW 8.99.0-946-gf00a1ab517) date 2024-05-19 19:51:51*
%MOMM*%
%LPD*%
G01*
G04 APERTURE LIST*
G04 Aperture macros list*
%AMRoundRect*
0 Rectangle with rounded corners*
0 $1 Rounding radius*
0 $2 $3 $4 $5 $6 $7 $8 $9 X,Y pos of 4 corners*
0 Add a 4 corners polygon primitive as box body*
4,1,4,$2,$3,$4,$5,$6,$7,$8,$9,$2,$3,0*
0 Add four circle primitives for the rounded corners*
1,1,$1+$1,$2,$3*
1,1,$1+$1,$4,$5*
1,1,$1+$1,$6,$7*
1,1,$1+$1,$8,$9*
0 Add four rect primitives between the rounded corners*
20,1,$1+$1,$2,$3,$4,$5,0*
20,1,$1+$1,$4,$5,$6,$7,0*
20,1,$1+$1,$6,$7,$8,$9,0*
20,1,$1+$1,$8,$9,$2,$3,0*%
G04 Aperture macros list end*
%TA.AperFunction,SMDPad,CuDef*%
%ADD10RoundRect,0.250000X0.262500X0.450000X-0.262500X0.450000X-0.262500X-0.450000X0.262500X-0.450000X0*%
%TD*%
%TA.AperFunction,ComponentPad*%
%ADD11C,3.800000*%
%TD*%
%TA.AperFunction,SMDPad,CuDef*%
%ADD12RoundRect,0.250000X0.350000X0.650000X-0.350000X0.650000X-0.350000X-0.650000X0.350000X-0.650000X0*%
%TD*%
%TA.AperFunction,SMDPad,CuDef*%
%ADD13RoundRect,0.150000X0.150000X0.625000X-0.150000X0.625000X-0.150000X-0.625000X0.150000X-0.625000X0*%
%TD*%
%TA.AperFunction,ComponentPad*%
%ADD14O,1.000000X1.600000*%
%TD*%
%TA.AperFunction,ComponentPad*%
%ADD15O,1.000000X2.100000*%
%TD*%
%TA.AperFunction,ViaPad*%
%ADD16C,0.400000*%
%TD*%
%TA.AperFunction,Conductor*%
%ADD17C,0.200000*%
%TD*%
G04 APERTURE END LIST*
D10*
%TO.P,R1,2*%
%TO.N,GND*%
X540457500Y34170301D03*
%TO.P,R1,1*%
%TO.N,Net-(J1-CC1)*%
X542282500Y34170301D03*
%TD*%
D11*
%TO.P,H1,1,1*%
%TO.N,GND*%
X531870016Y31270343D03*
%TD*%
D12*
%TO.P,J2,MP*%
%TO.N,N/C*%
X538560000Y28295301D03*
X544160000Y28295301D03*
D13*
%TO.P,J2,4,Pin_4*%
%TO.N,GND*%
X539860000Y32170301D03*
%TO.P,J2,3,Pin_3*%
%TO.N,D+*%
X540860000Y32170301D03*
%TO.P,J2,2,Pin_2*%
%TO.N,D-*%
X541860000Y32170301D03*
%TO.P,J2,1,Pin_1*%
%TO.N,+5V*%
X542860000Y32170301D03*
%TD*%
D11*
%TO.P,H1,1,1*%
%TO.N,GND*%
X531870016Y21270343D03*
%TD*%
%TO.P,H1,1,1*%
%TO.N,GND*%
X531870016Y1270429D03*
%TD*%
D14*
%TO.P,J1,S1,SHIELD*%
%TO.N,GND*%
X537050000Y22972304D03*
D15*
X537050000Y18792304D03*
D14*
X545690000Y22972304D03*
D15*
X545690000Y18792304D03*
%TD*%
D10*
%TO.P,R1,2*%
%TO.N,GND*%
X540457500Y-5829570D03*
%TO.P,R1,1*%
%TO.N,Net-(J1-CC1)*%
X542282500Y-5829570D03*
%TD*%
D12*
%TO.P,J2,MP*%
%TO.N,N/C*%
X538560000Y8295344D03*
X544160000Y8295344D03*
D13*
%TO.P,J2,4,Pin_4*%
%TO.N,GND*%
X539860000Y12170344D03*
%TO.P,J2,3,Pin_3*%
%TO.N,D+*%
X540860000Y12170344D03*
%TO.P,J2,2,Pin_2*%
%TO.N,D-*%
X541860000Y12170344D03*
%TO.P,J2,1,Pin_1*%
%TO.N,+5V*%
X542860000Y12170344D03*
%TD*%
D12*
%TO.P,J2,MP*%
%TO.N,N/C*%
X538560000Y18295301D03*
X544160000Y18295301D03*
D13*
%TO.P,J2,4,Pin_4*%
%TO.N,GND*%
X539860000Y22170301D03*
%TO.P,J2,3,Pin_3*%
%TO.N,D+*%
X540860000Y22170301D03*
%TO.P,J2,2,Pin_2*%
%TO.N,D-*%
X541860000Y22170301D03*
%TO.P,J2,1,Pin_1*%
%TO.N,+5V*%
X542860000Y22170301D03*
%TD*%
D11*
%TO.P,H1,1,1*%
%TO.N,GND*%
X531870016Y11270386D03*
%TD*%
%TO.P,H2,1,1*%
%TO.N,GND*%
X550870000Y31270299D03*
%TD*%
D10*
%TO.P,R1,2*%
%TO.N,GND*%
X540457500Y24170301D03*
%TO.P,R1,1*%
%TO.N,Net-(J1-CC1)*%
X542282500Y24170301D03*
%TD*%
D14*
%TO.P,J1,S1,SHIELD*%
%TO.N,GND*%
X537050000Y12972347D03*
D15*
X537050000Y8792347D03*
D14*
X545690000Y12972347D03*
D15*
X545690000Y8792347D03*
%TD*%
D14*
%TO.P,J1,S1,SHIELD*%
%TO.N,GND*%
X537050000Y2972390D03*
D15*
X537050000Y-1207610D03*
D14*
X545690000Y2972390D03*
D15*
X545690000Y-1207610D03*
%TD*%
D11*
%TO.P,H2,1,1*%
%TO.N,GND*%
X550870000Y21270299D03*
%TD*%
D12*
%TO.P,J2,MP*%
%TO.N,N/C*%
X538560000Y-1704613D03*
X544160000Y-1704613D03*
D13*
%TO.P,J2,4,Pin_4*%
%TO.N,GND*%
X539860000Y2170387D03*
%TO.P,J2,3,Pin_3*%
%TO.N,D+*%
X540860000Y2170387D03*
%TO.P,J2,2,Pin_2*%
%TO.N,D-*%
X541860000Y2170387D03*
%TO.P,J2,1,Pin_1*%
%TO.N,+5V*%
X542860000Y2170387D03*
%TD*%
D11*
%TO.P,H2,1,1*%
%TO.N,GND*%
X550870000Y1270385D03*
%TD*%
D10*
%TO.P,R1,2*%
%TO.N,GND*%
X540457500Y4170387D03*
%TO.P,R1,1*%
%TO.N,Net-(J1-CC1)*%
X542282500Y4170387D03*
%TD*%
D11*
%TO.P,H2,1,1*%
%TO.N,GND*%
X550870000Y11270342D03*
%TD*%
%TO.P,H2,1,1*%
%TO.N,GND*%
X550870000Y-18729529D03*
%TD*%
%TO.P,H2,1,1*%
%TO.N,GND*%
X550870000Y-8729572D03*
%TD*%
%TO.P,H1,1,1*%
%TO.N,GND*%
X531870016Y-38729399D03*
%TD*%
D14*
%TO.P,J1,S1,SHIELD*%
%TO.N,GND*%
X537050000Y-17027524D03*
D15*
X537050000Y-21207524D03*
D14*
X545690000Y-17027524D03*
D15*
X545690000Y-21207524D03*
%TD*%
D14*
%TO.P,J1,S1,SHIELD*%
%TO.N,GND*%
X537050000Y-37027438D03*
D15*
X537050000Y-41207438D03*
D14*
X545690000Y-37027438D03*
D15*
X545690000Y-41207438D03*
%TD*%
D10*
%TO.P,R1,2*%
%TO.N,GND*%
X540457500Y-15829527D03*
%TO.P,R1,1*%
%TO.N,Net-(J1-CC1)*%
X542282500Y-15829527D03*
%TD*%
D11*
%TO.P,H1,1,1*%
%TO.N,GND*%
X531870016Y-28729442D03*
%TD*%
%TO.P,H1,1,1*%
%TO.N,GND*%
X531870016Y-18729485D03*
%TD*%
D14*
%TO.P,J1,S1,SHIELD*%
%TO.N,GND*%
X537050000Y-7027567D03*
D15*
X537050000Y-11207567D03*
D14*
X545690000Y-7027567D03*
D15*
X545690000Y-11207567D03*
%TD*%
D14*
%TO.P,J1,S1,SHIELD*%
%TO.N,GND*%
X537050000Y-27027481D03*
D15*
X537050000Y-31207481D03*
D14*
X545690000Y-27027481D03*
D15*
X545690000Y-31207481D03*
%TD*%
D11*
%TO.P,H2,1,1*%
%TO.N,GND*%
X550870000Y-28729486D03*
%TD*%
%TO.P,H1,1,1*%
%TO.N,GND*%
X531870016Y-48729356D03*
%TD*%
%TO.P,H1,1,1*%
%TO.N,GND*%
X531870016Y-8729528D03*
%TD*%
D12*
%TO.P,J2,MP*%
%TO.N,N/C*%
X538560000Y-11704570D03*
X544160000Y-11704570D03*
D13*
%TO.P,J2,4,Pin_4*%
%TO.N,GND*%
X539860000Y-7829570D03*
%TO.P,J2,3,Pin_3*%
%TO.N,D+*%
X540860000Y-7829570D03*
%TO.P,J2,2,Pin_2*%
%TO.N,D-*%
X541860000Y-7829570D03*
%TO.P,J2,1,Pin_1*%
%TO.N,+5V*%
X542860000Y-7829570D03*
%TD*%
D12*
%TO.P,J2,MP*%
%TO.N,N/C*%
X538560000Y-31704484D03*
X544160000Y-31704484D03*
D13*
%TO.P,J2,4,Pin_4*%
%TO.N,GND*%
X539860000Y-27829484D03*
%TO.P,J2,3,Pin_3*%
%TO.N,D+*%
X540860000Y-27829484D03*
%TO.P,J2,2,Pin_2*%
%TO.N,D-*%
X541860000Y-27829484D03*
%TO.P,J2,1,Pin_1*%
%TO.N,+5V*%
X542860000Y-27829484D03*
%TD*%
D12*
%TO.P,J2,MP*%
%TO.N,N/C*%
X538560000Y-21704527D03*
X544160000Y-21704527D03*
D13*
%TO.P,J2,4,Pin_4*%
%TO.N,GND*%
X539860000Y-17829527D03*
%TO.P,J2,3,Pin_3*%
%TO.N,D+*%
X540860000Y-17829527D03*
%TO.P,J2,2,Pin_2*%
%TO.N,D-*%
X541860000Y-17829527D03*
%TO.P,J2,1,Pin_1*%
%TO.N,+5V*%
X542860000Y-17829527D03*
%TD*%
D10*
%TO.P,R1,2*%
%TO.N,GND*%
X540457500Y-25829484D03*
%TO.P,R1,1*%
%TO.N,Net-(J1-CC1)*%
X542282500Y-25829484D03*
%TD*%
%TO.P,R1,2*%
%TO.N,GND*%
X540457500Y-35829441D03*
%TO.P,R1,1*%
%TO.N,Net-(J1-CC1)*%
X542282500Y-35829441D03*
%TD*%
D11*
%TO.P,H2,1,1*%
%TO.N,GND*%
X550870000Y-38729443D03*
%TD*%
D12*
%TO.P,J2,MP*%
%TO.N,N/C*%
X538560000Y-41704441D03*
X544160000Y-41704441D03*
D13*
%TO.P,J2,4,Pin_4*%
%TO.N,GND*%
X539860000Y-37829441D03*
%TO.P,J2,3,Pin_3*%
%TO.N,D+*%
X540860000Y-37829441D03*
%TO.P,J2,2,Pin_2*%
%TO.N,D-*%
X541860000Y-37829441D03*
%TO.P,J2,1,Pin_1*%
%TO.N,+5V*%
X542860000Y-37829441D03*
%TD*%
D10*
%TO.P,R1,2*%
%TO.N,GND*%
X540457500Y-45829398D03*
%TO.P,R1,1*%
%TO.N,Net-(J1-CC1)*%
X542282500Y-45829398D03*
%TD*%
D14*
%TO.P,J1,S1,SHIELD*%
%TO.N,GND*%
X537050000Y-47027395D03*
D15*
X537050000Y-51207395D03*
D14*
X545690000Y-47027395D03*
D15*
X545690000Y-51207395D03*
%TD*%
D11*
%TO.P,H2,1,1*%
%TO.N,GND*%
X550870000Y-48729400D03*
%TD*%
D12*
%TO.P,J2,MP*%
%TO.N,N/C*%
X538560000Y-51704398D03*
X544160000Y-51704398D03*
D13*
%TO.P,J2,4,Pin_4*%
%TO.N,GND*%
X539860000Y-47829398D03*
%TO.P,J2,3,Pin_3*%
%TO.N,D+*%
X540860000Y-47829398D03*
%TO.P,J2,2,Pin_2*%
%TO.N,D-*%
X541860000Y-47829398D03*
%TO.P,J2,1,Pin_1*%
%TO.N,+5V*%
X542860000Y-47829398D03*
%TD*%
D10*
%TO.P,R1,2*%
%TO.N,GND*%
X540457500Y14170344D03*
%TO.P,R1,1*%
%TO.N,Net-(J1-CC1)*%
X542282500Y14170344D03*
%TD*%
D13*
%TO.P,J2,1,Pin_1*%
%TO.N,+5V*%
X542860000Y42170301D03*
%TO.P,J2,2,Pin_2*%
%TO.N,D-*%
X541860000Y42170301D03*
%TO.P,J2,3,Pin_3*%
%TO.N,D+*%
X540860000Y42170301D03*
%TO.P,J2,4,Pin_4*%
%TO.N,GND*%
X539860000Y42170301D03*
D12*
%TO.P,J2,MP*%
%TO.N,N/C*%
X544160000Y38295301D03*
X538560000Y38295301D03*
%TD*%
D11*
%TO.P,H1,1,1*%
%TO.N,GND*%
X531870016Y41270343D03*
%TD*%
%TO.P,H2,1,1*%
%TO.N,GND*%
X550870000Y41270299D03*
%TD*%
D10*
%TO.P,R1,1*%
%TO.N,Net-(J1-CC1)*%
X542282500Y44170301D03*
%TO.P,R1,2*%
%TO.N,GND*%
X540457500Y44170301D03*
%TD*%
D13*
%TO.P,J2,1,Pin_1*%
%TO.N,+5V*%
X542860000Y52170258D03*
%TO.P,J2,2,Pin_2*%
%TO.N,D-*%
X541860000Y52170258D03*
%TO.P,J2,3,Pin_3*%
%TO.N,D+*%
X540860000Y52170258D03*
%TO.P,J2,4,Pin_4*%
%TO.N,GND*%
X539860000Y52170258D03*
D12*
%TO.P,J2,MP*%
%TO.N,N/C*%
X544160000Y48295258D03*
X538560000Y48295258D03*
%TD*%
D11*
%TO.P,H1,1,1*%
%TO.N,GND*%
X531870016Y51270300D03*
%TD*%
%TO.P,H2,1,1*%
%TO.N,GND*%
X550870000Y51270256D03*
%TD*%
D15*
%TO.P,J1,S1,SHIELD*%
%TO.N,GND*%
X545690000Y48792261D03*
D14*
X545690000Y52972261D03*
D15*
X537050000Y48792261D03*
D14*
X537050000Y52972261D03*
%TD*%
D10*
%TO.P,R1,1*%
%TO.N,Net-(J1-CC1)*%
X542282500Y54170258D03*
%TO.P,R1,2*%
%TO.N,GND*%
X540457500Y54170258D03*
%TD*%
D13*
%TO.P,J2,1,Pin_1*%
%TO.N,+5V*%
X542860000Y62170215D03*
%TO.P,J2,2,Pin_2*%
%TO.N,D-*%
X541860000Y62170215D03*
%TO.P,J2,3,Pin_3*%
%TO.N,D+*%
X540860000Y62170215D03*
%TO.P,J2,4,Pin_4*%
%TO.N,GND*%
X539860000Y62170215D03*
D12*
%TO.P,J2,MP*%
%TO.N,N/C*%
X544160000Y58295215D03*
X538560000Y58295215D03*
%TD*%
D11*
%TO.P,H1,1,1*%
%TO.N,GND*%
X531870016Y61270257D03*
%TD*%
%TO.P,H2,1,1*%
%TO.N,GND*%
X550870000Y61270213D03*
%TD*%
D15*
%TO.P,J1,S1,SHIELD*%
%TO.N,GND*%
X545690000Y58792218D03*
D14*
X545690000Y62972218D03*
D15*
X537050000Y58792218D03*
D14*
X537050000Y62972218D03*
%TD*%
D10*
%TO.P,R1,1*%
%TO.N,Net-(J1-CC1)*%
X542282500Y64170215D03*
%TO.P,R1,2*%
%TO.N,GND*%
X540457500Y64170215D03*
%TD*%
D13*
%TO.P,J2,1,Pin_1*%
%TO.N,+5V*%
X542860000Y72170172D03*
%TO.P,J2,2,Pin_2*%
%TO.N,D-*%
X541860000Y72170172D03*
%TO.P,J2,3,Pin_3*%
%TO.N,D+*%
X540860000Y72170172D03*
%TO.P,J2,4,Pin_4*%
%TO.N,GND*%
X539860000Y72170172D03*
D12*
%TO.P,J2,MP*%
%TO.N,N/C*%
X544160000Y68295172D03*
X538560000Y68295172D03*
%TD*%
D11*
%TO.P,H1,1,1*%
%TO.N,GND*%
X531870016Y71270214D03*
%TD*%
%TO.P,H2,1,1*%
%TO.N,GND*%
X550870000Y71270170D03*
%TD*%
D15*
%TO.P,J1,S1,SHIELD*%
%TO.N,GND*%
X545690000Y68792175D03*
D14*
X545690000Y72972175D03*
D15*
X537050000Y68792175D03*
D14*
X537050000Y72972175D03*
%TD*%
D10*
%TO.P,R1,1*%
%TO.N,Net-(J1-CC1)*%
X542282500Y74170172D03*
%TO.P,R1,2*%
%TO.N,GND*%
X540457500Y74170172D03*
%TD*%
D13*
%TO.P,J2,1,Pin_1*%
%TO.N,+5V*%
X542860000Y82170129D03*
%TO.P,J2,2,Pin_2*%
%TO.N,D-*%
X541860000Y82170129D03*
%TO.P,J2,3,Pin_3*%
%TO.N,D+*%
X540860000Y82170129D03*
%TO.P,J2,4,Pin_4*%
%TO.N,GND*%
X539860000Y82170129D03*
D12*
%TO.P,J2,MP*%
%TO.N,N/C*%
X544160000Y78295129D03*
X538560000Y78295129D03*
%TD*%
D11*
%TO.P,H1,1,1*%
%TO.N,GND*%
X531870016Y81270171D03*
%TD*%
%TO.P,H2,1,1*%
%TO.N,GND*%
X550870000Y81270127D03*
%TD*%
D15*
%TO.P,J1,S1,SHIELD*%
%TO.N,GND*%
X545690000Y78792132D03*
D14*
X545690000Y82972132D03*
D15*
X537050000Y78792132D03*
D14*
X537050000Y82972132D03*
%TD*%
D10*
%TO.P,R1,1*%
%TO.N,Net-(J1-CC1)*%
X542282500Y84170129D03*
%TO.P,R1,2*%
%TO.N,GND*%
X540457500Y84170129D03*
%TD*%
D13*
%TO.P,J2,1,Pin_1*%
%TO.N,+5V*%
X542860000Y92170086D03*
%TO.P,J2,2,Pin_2*%
%TO.N,D-*%
X541860000Y92170086D03*
%TO.P,J2,3,Pin_3*%
%TO.N,D+*%
X540860000Y92170086D03*
%TO.P,J2,4,Pin_4*%
%TO.N,GND*%
X539860000Y92170086D03*
D12*
%TO.P,J2,MP*%
%TO.N,N/C*%
X544160000Y88295086D03*
X538560000Y88295086D03*
%TD*%
D11*
%TO.P,H1,1,1*%
%TO.N,GND*%
X531870016Y91270128D03*
%TD*%
%TO.P,H2,1,1*%
%TO.N,GND*%
X550870000Y91270084D03*
%TD*%
D15*
%TO.P,J1,S1,SHIELD*%
%TO.N,GND*%
X545690000Y88792089D03*
D14*
X545690000Y92972089D03*
D15*
X537050000Y88792089D03*
D14*
X537050000Y92972089D03*
%TD*%
D10*
%TO.P,R1,1*%
%TO.N,Net-(J1-CC1)*%
X542282500Y94170086D03*
%TO.P,R1,2*%
%TO.N,GND*%
X540457500Y94170086D03*
%TD*%
D13*
%TO.P,J2,1,Pin_1*%
%TO.N,+5V*%
X542860000Y102170043D03*
%TO.P,J2,2,Pin_2*%
%TO.N,D-*%
X541860000Y102170043D03*
%TO.P,J2,3,Pin_3*%
%TO.N,D+*%
X540860000Y102170043D03*
%TO.P,J2,4,Pin_4*%
%TO.N,GND*%
X539860000Y102170043D03*
D12*
%TO.P,J2,MP*%
%TO.N,N/C*%
X544160000Y98295043D03*
X538560000Y98295043D03*
%TD*%
D11*
%TO.P,H1,1,1*%
%TO.N,GND*%
X531870016Y101270085D03*
%TD*%
%TO.P,H2,1,1*%
%TO.N,GND*%
X550870000Y101270041D03*
%TD*%
D15*
%TO.P,J1,S1,SHIELD*%
%TO.N,GND*%
X545690000Y98792046D03*
D14*
X545690000Y102972046D03*
D15*
X537050000Y98792046D03*
D14*
X537050000Y102972046D03*
%TD*%
D10*
%TO.P,R1,1*%
%TO.N,Net-(J1-CC1)*%
X542282500Y104170043D03*
%TO.P,R1,2*%
%TO.N,GND*%
X540457500Y104170043D03*
%TD*%
D13*
%TO.P,J2,1,Pin_1*%
%TO.N,+5V*%
X542860000Y112170000D03*
%TO.P,J2,2,Pin_2*%
%TO.N,D-*%
X541860000Y112170000D03*
%TO.P,J2,3,Pin_3*%
%TO.N,D+*%
X540860000Y112170000D03*
%TO.P,J2,4,Pin_4*%
%TO.N,GND*%
X539860000Y112170000D03*
D12*
%TO.P,J2,MP*%
%TO.N,N/C*%
X544160000Y108295000D03*
X538560000Y108295000D03*
%TD*%
D11*
%TO.P,H1,1,1*%
%TO.N,GND*%
X531870016Y111270042D03*
%TD*%
%TO.P,H2,1,1*%
%TO.N,GND*%
X550870000Y111269998D03*
%TD*%
D15*
%TO.P,J1,S1,SHIELD*%
%TO.N,GND*%
X545690000Y108792003D03*
D14*
X545690000Y112972003D03*
D15*
X537050000Y108792003D03*
D14*
X537050000Y112972003D03*
%TD*%
D10*
%TO.P,R1,1*%
%TO.N,Net-(J1-CC1)*%
X542282500Y114170000D03*
%TO.P,R1,2*%
%TO.N,GND*%
X540457500Y114170000D03*
%TD*%
D11*
%TO.P,H2,1,1*%
%TO.N,GND*%
X550870000Y121269998D03*
%TD*%
%TO.P,H1,1,1*%
%TO.N,GND*%
X531870016Y121270042D03*
%TD*%
D15*
%TO.P,J1,S1,SHIELD*%
%TO.N,GND*%
X545690000Y118792003D03*
D14*
X545690000Y122972003D03*
D15*
X537050000Y118792003D03*
D14*
X537050000Y122972003D03*
%TD*%
D10*
%TO.P,R1,1*%
%TO.N,Net-(J1-CC1)*%
X542282500Y124170000D03*
%TO.P,R1,2*%
%TO.N,GND*%
X540457500Y124170000D03*
%TD*%
D13*
%TO.P,J2,1,Pin_1*%
%TO.N,+5V*%
X542860000Y122170000D03*
%TO.P,J2,2,Pin_2*%
%TO.N,D-*%
X541860000Y122170000D03*
%TO.P,J2,3,Pin_3*%
%TO.N,D+*%
X540860000Y122170000D03*
%TO.P,J2,4,Pin_4*%
%TO.N,GND*%
X539860000Y122170000D03*
D12*
%TO.P,J2,MP*%
%TO.N,N/C*%
X544160000Y118295000D03*
X538560000Y118295000D03*
%TD*%
D15*
%TO.P,J1,S1,SHIELD*%
%TO.N,GND*%
X545690000Y38792304D03*
D14*
X545690000Y42972304D03*
D15*
X537050000Y38792304D03*
D14*
X537050000Y42972304D03*
%TD*%
%TO.P,J1,S1,SHIELD*%
%TO.N,GND*%
X537050000Y32972304D03*
D15*
X537050000Y28792304D03*
D14*
X545690000Y32972304D03*
D15*
X545690000Y28792304D03*
%TD*%
D16*
%TO.N,Net-(J1-CC1)*%
X541380000Y13510344D03*
%TO.N,D+*%
X540640000Y-9639570D03*
X540640000Y360387D03*
%TO.N,Net-(J1-CC1)*%
X541380000Y-6489570D03*
%TO.N,D-*%
X541222821Y-9965845D03*
X542290000Y19570301D03*
X542290000Y-429613D03*
X541222821Y-19965802D03*
%TO.N,+5V*%
X543990000Y-7939570D03*
%TO.N,D+*%
X541760000Y-9319570D03*
X540640000Y-19639527D03*
X541760000Y20680301D03*
X541760000Y680387D03*
%TO.N,+5V*%
X543990000Y22060301D03*
%TO.N,Net-(J1-CC1)*%
X541380000Y-16489527D03*
%TO.N,D+*%
X541760000Y10680344D03*
%TO.N,D-*%
X541222821Y34112D03*
%TO.N,Net-(J1-CC1)*%
X541380000Y23510301D03*
%TO.N,D+*%
X540640000Y20360301D03*
%TO.N,+5V*%
X543990000Y2060387D03*
%TO.N,D-*%
X542290000Y9570344D03*
%TO.N,+5V*%
X543990000Y-17939527D03*
%TO.N,D-*%
X542290000Y-20429527D03*
%TO.N,D+*%
X541760000Y-19319527D03*
%TO.N,D-*%
X542290000Y-10429570D03*
%TO.N,+5V*%
X543990000Y12060344D03*
%TO.N,Net-(J1-CC1)*%
X541380000Y3510387D03*
%TO.N,D+*%
X540640000Y30360301D03*
%TO.N,+5V*%
X543990000Y-37939441D03*
%TO.N,D+*%
X541760000Y-29319484D03*
X541760000Y30680301D03*
%TO.N,D-*%
X542290000Y29570301D03*
X541222821Y30034026D03*
X541222821Y-29965759D03*
%TO.N,Net-(J1-CC1)*%
X541380000Y33510301D03*
%TO.N,D+*%
X540640000Y-49639398D03*
%TO.N,D-*%
X541222821Y-39965716D03*
%TO.N,D+*%
X540640000Y-39639441D03*
X540640000Y-29639484D03*
%TO.N,+5V*%
X543990000Y32060301D03*
%TO.N,D+*%
X540640000Y10360344D03*
%TO.N,D-*%
X542290000Y-50429398D03*
%TO.N,+5V*%
X543990000Y-27939484D03*
%TO.N,D-*%
X541222821Y10034069D03*
%TO.N,D+*%
X541760000Y-49319398D03*
%TO.N,D-*%
X541222821Y-49965673D03*
%TO.N,Net-(J1-CC1)*%
X541380000Y-36489441D03*
X541380000Y-26489484D03*
%TO.N,D-*%
X542290000Y-30429484D03*
%TO.N,D+*%
X541760000Y-39319441D03*
%TO.N,D-*%
X541222821Y20034026D03*
%TO.N,Net-(J1-CC1)*%
X541380000Y-46489398D03*
%TO.N,D-*%
X542290000Y-40429441D03*
%TO.N,+5V*%
X543990000Y-47939398D03*
%TO.N,D+*%
X541760000Y40680301D03*
%TO.N,Net-(J1-CC1)*%
X541380000Y43510301D03*
%TO.N,D-*%
X542290000Y39570301D03*
%TO.N,+5V*%
X543990000Y42060301D03*
%TO.N,D+*%
X540640000Y40360301D03*
%TO.N,D-*%
X541222821Y40034026D03*
%TO.N,D+*%
X541760000Y50680258D03*
%TO.N,Net-(J1-CC1)*%
X541380000Y53510258D03*
%TO.N,D-*%
X542290000Y49570258D03*
%TO.N,+5V*%
X543990000Y52060258D03*
%TO.N,D+*%
X540640000Y50360258D03*
%TO.N,D-*%
X541222821Y50033983D03*
%TO.N,D+*%
X541760000Y60680215D03*
%TO.N,Net-(J1-CC1)*%
X541380000Y63510215D03*
%TO.N,D-*%
X542290000Y59570215D03*
%TO.N,+5V*%
X543990000Y62060215D03*
%TO.N,D+*%
X540640000Y60360215D03*
%TO.N,D-*%
X541222821Y60033940D03*
%TO.N,D+*%
X541760000Y70680172D03*
%TO.N,Net-(J1-CC1)*%
X541380000Y73510172D03*
%TO.N,D-*%
X542290000Y69570172D03*
%TO.N,+5V*%
X543990000Y72060172D03*
%TO.N,D+*%
X540640000Y70360172D03*
%TO.N,D-*%
X541222821Y70033897D03*
%TO.N,D+*%
X541760000Y80680129D03*
%TO.N,Net-(J1-CC1)*%
X541380000Y83510129D03*
%TO.N,D-*%
X542290000Y79570129D03*
%TO.N,+5V*%
X543990000Y82060129D03*
%TO.N,D+*%
X540640000Y80360129D03*
%TO.N,D-*%
X541222821Y80033854D03*
%TO.N,D+*%
X541760000Y90680086D03*
%TO.N,Net-(J1-CC1)*%
X541380000Y93510086D03*
%TO.N,D-*%
X542290000Y89570086D03*
%TO.N,+5V*%
X543990000Y92060086D03*
%TO.N,D+*%
X540640000Y90360086D03*
%TO.N,D-*%
X541222821Y90033811D03*
%TO.N,D+*%
X541760000Y100680043D03*
%TO.N,Net-(J1-CC1)*%
X541380000Y103510043D03*
%TO.N,D-*%
X542290000Y99570043D03*
%TO.N,+5V*%
X543990000Y102060043D03*
%TO.N,D+*%
X540640000Y100360043D03*
%TO.N,D-*%
X541222821Y100033768D03*
%TO.N,D+*%
X541760000Y110680000D03*
%TO.N,Net-(J1-CC1)*%
X541380000Y113510000D03*
%TO.N,D-*%
X542290000Y109570000D03*
%TO.N,+5V*%
X543990000Y112060000D03*
%TO.N,D+*%
X540640000Y110360000D03*
%TO.N,D-*%
X541222821Y110033725D03*
%TO.N,Net-(J1-CC1)*%
X541380000Y123510000D03*
%TO.N,+5V*%
X543990000Y122060000D03*
%TO.N,D-*%
X542290000Y119570000D03*
X541222821Y120033725D03*
%TO.N,D+*%
X541760000Y120680000D03*
X540640000Y120360000D03*
%TD*%
D17*
%TO.N,+5V*%
X542970000Y-17939527D02*
X542860000Y-17829527D01*
%TO.N,GND*%
X539860000Y-17829527D02*
X539860000Y-16427027D01*
%TO.N,D-*%
X541222821Y-39965716D02*
X541820832Y-39965716D01*
%TO.N,GND*%
X550870000Y31270299D02*
X547392005Y31270299D01*
%TO.N,D-*%
X542260000Y-18229527D02*
X541860000Y-17829527D01*
%TO.N,D+*%
X541760000Y-39319441D02*
X541660000Y-39219441D01*
X541760000Y-19319527D02*
X541660000Y-19219527D01*
%TO.N,GND*%
X539860000Y-16427027D02*
X540457500Y-15829527D01*
X531870016Y31270343D02*
X535348039Y31270343D01*
X547392005Y31270299D02*
X545690000Y32972304D01*
%TO.N,+5V*%
X543990000Y-17939527D02*
X542970000Y-17939527D01*
%TO.N,GND*%
X540457500Y-15829527D02*
X538247997Y-15829527D01*
%TO.N,D-*%
X542290000Y-39556548D02*
X542260000Y-39526548D01*
X541222821Y-19965802D02*
X541820832Y-19965802D01*
%TO.N,GND*%
X535348039Y31270343D02*
X537050000Y32972304D01*
%TO.N,D-*%
X542290000Y-20429527D02*
X542290000Y-19556634D01*
%TO.N,GND*%
X531870016Y-18729485D02*
X535348039Y-18729485D01*
%TO.N,D+*%
X540640000Y20780301D02*
X540640000Y21950301D01*
%TO.N,D-*%
X542290000Y19570301D02*
X542290000Y20443194D01*
%TO.N,+5V*%
X542970000Y22060301D02*
X542860000Y22170301D01*
%TO.N,GND*%
X539860000Y33572801D02*
X540457500Y34170301D01*
X539860000Y32170301D02*
X539860000Y33572801D01*
X538247997Y24170301D02*
X537050000Y22972304D01*
X540457500Y24170301D02*
X538247997Y24170301D01*
%TO.N,D+*%
X540640000Y21950301D02*
X540860000Y22170301D01*
X541660000Y20780301D02*
X540640000Y20780301D01*
%TO.N,D-*%
X541820832Y20034026D02*
X542260000Y20473194D01*
X542260000Y20473194D02*
X542260000Y21770301D01*
X542260000Y30473194D02*
X542260000Y31770301D01*
X541222821Y30034026D02*
X541820832Y30034026D01*
%TO.N,D+*%
X540640000Y31950301D02*
X540860000Y32170301D01*
%TO.N,D-*%
X542290000Y29570301D02*
X542290000Y30443194D01*
%TO.N,GND*%
X538247997Y34170301D02*
X537050000Y32972304D01*
X540457500Y34170301D02*
X538247997Y34170301D01*
%TO.N,D-*%
X541820832Y30034026D02*
X542260000Y30473194D01*
%TO.N,+5V*%
X542970000Y32060301D02*
X542860000Y32170301D01*
%TO.N,D-*%
X542260000Y31770301D02*
X541860000Y32170301D01*
%TO.N,GND*%
X539860000Y22170301D02*
X539860000Y23572801D01*
%TO.N,D+*%
X541760000Y30680301D02*
X541660000Y30780301D01*
%TO.N,D-*%
X542290000Y30443194D02*
X542260000Y30473194D01*
%TO.N,D+*%
X540640000Y20360301D02*
X540640000Y20780301D01*
X540640000Y30360301D02*
X540640000Y30780301D01*
X540640000Y30780301D02*
X540640000Y31950301D01*
X541660000Y30780301D02*
X540640000Y30780301D01*
%TO.N,+5V*%
X543990000Y32060301D02*
X542970000Y32060301D01*
%TO.N,GND*%
X539860000Y23572801D02*
X540457500Y24170301D01*
%TO.N,+5V*%
X543990000Y22060301D02*
X542970000Y22060301D01*
%TO.N,GND*%
X547392005Y-18729529D02*
X545690000Y-17027524D01*
X550870000Y-18729529D02*
X547392005Y-18729529D01*
%TO.N,D-*%
X542290000Y-19556634D02*
X542260000Y-19526634D01*
%TO.N,GND*%
X535348039Y-18729485D02*
X537050000Y-17027524D01*
%TO.N,D-*%
X541820832Y-19965802D02*
X542260000Y-19526634D01*
%TO.N,Net-(J1-CC1)*%
X541380000Y33510301D02*
X541622500Y33510301D01*
%TO.N,GND*%
X535348039Y21270343D02*
X537050000Y22972304D01*
%TO.N,Net-(J1-CC1)*%
X541622500Y33510301D02*
X542282500Y34170301D01*
X542302500Y-15849527D02*
X542282500Y-15829527D01*
%TO.N,GND*%
X550870000Y21270299D02*
X547392005Y21270299D01*
X547392005Y21270299D02*
X545690000Y22972304D01*
X531870016Y21270343D02*
X535348039Y21270343D01*
%TO.N,Net-(J1-CC1)*%
X542252500Y24200301D02*
X542282500Y24170301D01*
%TO.N,GND*%
X531870016Y-38729399D02*
X535348039Y-38729399D01*
%TO.N,Net-(J1-CC1)*%
X541622500Y-16489527D02*
X542282500Y-15829527D01*
X541622500Y23510301D02*
X542282500Y24170301D01*
X541380000Y23510301D02*
X541622500Y23510301D01*
X542302500Y24150301D02*
X542282500Y24170301D01*
X541380000Y-16489527D02*
X541622500Y-16489527D01*
%TO.N,GND*%
X535348039Y11270386D02*
X537050000Y12972347D01*
X538247997Y14170344D02*
X537050000Y12972347D01*
%TO.N,D+*%
X541660000Y10780344D02*
X540640000Y10780344D01*
%TO.N,D-*%
X542290000Y9570344D02*
X542290000Y10443237D01*
X542260000Y11770344D02*
X541860000Y12170344D01*
X542290000Y10443237D02*
X542260000Y10473237D01*
X541222821Y10034069D02*
X541820832Y10034069D01*
%TO.N,Net-(J1-CC1)*%
X541380000Y13510344D02*
X541622500Y13510344D01*
%TO.N,D-*%
X542260000Y21770301D02*
X541860000Y22170301D01*
%TO.N,GND*%
X531870016Y11270386D02*
X535348039Y11270386D01*
X539860000Y13572844D02*
X540457500Y14170344D01*
%TO.N,Net-(J1-CC1)*%
X541622500Y13510344D02*
X542282500Y14170344D01*
%TO.N,D+*%
X540640000Y10360344D02*
X540640000Y10780344D01*
%TO.N,D-*%
X542260000Y10473237D02*
X542260000Y11770344D01*
%TO.N,+5V*%
X542970000Y12060344D02*
X542860000Y12170344D01*
%TO.N,GND*%
X547392005Y11270342D02*
X545690000Y12972347D01*
%TO.N,D-*%
X541820832Y10034069D02*
X542260000Y10473237D01*
%TO.N,D+*%
X541760000Y20680301D02*
X541660000Y20780301D01*
%TO.N,GND*%
X540457500Y14170344D02*
X538247997Y14170344D01*
%TO.N,D+*%
X541760000Y10680344D02*
X541660000Y10780344D01*
%TO.N,Net-(J1-CC1)*%
X542302500Y14150344D02*
X542282500Y14170344D01*
%TO.N,D-*%
X541222821Y20034026D02*
X541820832Y20034026D01*
%TO.N,GND*%
X550870000Y11270342D02*
X547392005Y11270342D01*
%TO.N,D+*%
X540640000Y10780344D02*
X540640000Y11950344D01*
X540640000Y11950344D02*
X540860000Y12170344D01*
%TO.N,+5V*%
X543990000Y12060344D02*
X542970000Y12060344D01*
%TO.N,GND*%
X539860000Y12170344D02*
X539860000Y13572844D01*
%TO.N,Net-(J1-CC1)*%
X542252500Y14200344D02*
X542282500Y14170344D01*
%TO.N,D+*%
X540640000Y-39639441D02*
X540640000Y-39219441D01*
%TO.N,GND*%
X540457500Y-35829441D02*
X538247997Y-35829441D01*
X538247997Y-35829441D02*
X537050000Y-37027438D01*
%TO.N,D-*%
X542290000Y20443194D02*
X542260000Y20473194D01*
%TO.N,GND*%
X539860000Y-37829441D02*
X539860000Y-36426941D01*
X539860000Y-36426941D02*
X540457500Y-35829441D01*
%TO.N,+5V*%
X542970000Y-47939398D02*
X542860000Y-47829398D01*
%TO.N,Net-(J1-CC1)*%
X542252500Y-45799398D02*
X542282500Y-45829398D01*
X542302500Y-45849398D02*
X542282500Y-45829398D01*
%TO.N,D-*%
X542290000Y-50429398D02*
X542290000Y-49556505D01*
%TO.N,GND*%
X539860000Y-47829398D02*
X539860000Y-46426898D01*
X547392005Y-48729400D02*
X545690000Y-47027395D01*
X538247997Y-45829398D02*
X537050000Y-47027395D01*
X540457500Y-45829398D02*
X538247997Y-45829398D01*
X535348039Y-48729356D02*
X537050000Y-47027395D01*
X531870016Y-48729356D02*
X535348039Y-48729356D01*
%TO.N,D+*%
X540640000Y-49219398D02*
X540640000Y-48049398D01*
X541660000Y-49219398D02*
X540640000Y-49219398D01*
%TO.N,D-*%
X542260000Y-49526505D02*
X542260000Y-48229398D01*
X541820832Y-49965673D02*
X542260000Y-49526505D01*
%TO.N,D+*%
X540640000Y-49639398D02*
X540640000Y-49219398D01*
%TO.N,+5V*%
X543990000Y-47939398D02*
X542970000Y-47939398D01*
%TO.N,Net-(J1-CC1)*%
X541622500Y-46489398D02*
X542282500Y-45829398D01*
%TO.N,D+*%
X540640000Y-48049398D02*
X540860000Y-47829398D01*
%TO.N,D-*%
X542260000Y-48229398D02*
X541860000Y-47829398D01*
X542290000Y-49556505D02*
X542260000Y-49526505D01*
%TO.N,D+*%
X541760000Y-49319398D02*
X541660000Y-49219398D01*
%TO.N,D-*%
X541222821Y-49965673D02*
X541820832Y-49965673D01*
%TO.N,GND*%
X550870000Y-48729400D02*
X547392005Y-48729400D01*
X539860000Y-46426898D02*
X540457500Y-45829398D01*
%TO.N,Net-(J1-CC1)*%
X541380000Y-46489398D02*
X541622500Y-46489398D01*
%TO.N,D+*%
X540640000Y-29219484D02*
X540640000Y-28049484D01*
%TO.N,+5V*%
X542970000Y-27939484D02*
X542860000Y-27829484D01*
%TO.N,D-*%
X542260000Y-28229484D02*
X541860000Y-27829484D01*
%TO.N,GND*%
X538247997Y-15829527D02*
X537050000Y-17027524D01*
%TO.N,D+*%
X541660000Y-19219527D02*
X540640000Y-19219527D01*
%TO.N,D-*%
X541820832Y-29965759D02*
X542260000Y-29526591D01*
%TO.N,D+*%
X541760000Y-29319484D02*
X541660000Y-29219484D01*
X540640000Y-19639527D02*
X540640000Y-19219527D01*
X540640000Y-18049527D02*
X540860000Y-17829527D01*
X540640000Y-19219527D02*
X540640000Y-18049527D01*
%TO.N,GND*%
X535348039Y-28729442D02*
X537050000Y-27027481D01*
%TO.N,Net-(J1-CC1)*%
X542302500Y34150301D02*
X542282500Y34170301D01*
%TO.N,GND*%
X531870016Y-28729442D02*
X535348039Y-28729442D01*
%TO.N,D+*%
X541660000Y-29219484D02*
X540640000Y-29219484D01*
%TO.N,D-*%
X542260000Y-29526591D02*
X542260000Y-28229484D01*
%TO.N,Net-(J1-CC1)*%
X542252500Y-25799484D02*
X542282500Y-25829484D01*
%TO.N,D-*%
X542290000Y-29556591D02*
X542260000Y-29526591D01*
%TO.N,GND*%
X547392005Y-28729486D02*
X545690000Y-27027481D01*
%TO.N,Net-(J1-CC1)*%
X542302500Y-25849484D02*
X542282500Y-25829484D01*
X542252500Y-15799527D02*
X542282500Y-15829527D01*
%TO.N,D-*%
X542260000Y-19526634D02*
X542260000Y-18229527D01*
%TO.N,Net-(J1-CC1)*%
X542252500Y34200301D02*
X542282500Y34170301D01*
%TO.N,D+*%
X540640000Y-28049484D02*
X540860000Y-27829484D01*
%TO.N,D-*%
X542290000Y-30429484D02*
X542290000Y-29556591D01*
X541222821Y-29965759D02*
X541820832Y-29965759D01*
%TO.N,Net-(J1-CC1)*%
X541380000Y-26489484D02*
X541622500Y-26489484D01*
%TO.N,D+*%
X540640000Y360387D02*
X540640000Y780387D01*
%TO.N,+5V*%
X543990000Y2060387D02*
X542970000Y2060387D01*
%TO.N,D-*%
X542290000Y-40429441D02*
X542290000Y-39556548D01*
X542260000Y-38229441D02*
X541860000Y-37829441D01*
%TO.N,D+*%
X541660000Y-39219441D02*
X540640000Y-39219441D01*
X540640000Y1950387D02*
X540860000Y2170387D01*
%TO.N,D-*%
X541820832Y-39965716D02*
X542260000Y-39526548D01*
%TO.N,+5V*%
X542970000Y-37939441D02*
X542860000Y-37829441D01*
X543990000Y-37939441D02*
X542970000Y-37939441D01*
%TO.N,D-*%
X542260000Y-39526548D02*
X542260000Y-38229441D01*
%TO.N,D+*%
X540640000Y-29639484D02*
X540640000Y-29219484D01*
%TO.N,GND*%
X550870000Y-28729486D02*
X547392005Y-28729486D01*
%TO.N,D+*%
X540640000Y780387D02*
X540640000Y1950387D01*
%TO.N,Net-(J1-CC1)*%
X541622500Y-26489484D02*
X542282500Y-25829484D01*
%TO.N,GND*%
X539860000Y2170387D02*
X539860000Y3572887D01*
%TO.N,D+*%
X540640000Y-38049441D02*
X540860000Y-37829441D01*
%TO.N,+5V*%
X543990000Y-27939484D02*
X542970000Y-27939484D01*
%TO.N,GND*%
X540457500Y-25829484D02*
X538247997Y-25829484D01*
%TO.N,Net-(J1-CC1)*%
X542302500Y4150387D02*
X542282500Y4170387D01*
%TO.N,GND*%
X539860000Y-26426984D02*
X540457500Y-25829484D01*
X539860000Y3572887D02*
X540457500Y4170387D01*
%TO.N,D-*%
X542260000Y473280D02*
X542260000Y1770387D01*
%TO.N,GND*%
X535348039Y1270429D02*
X537050000Y2972390D01*
%TO.N,D+*%
X540640000Y-39219441D02*
X540640000Y-38049441D01*
%TO.N,D-*%
X542290000Y-429613D02*
X542290000Y443280D01*
%TO.N,Net-(J1-CC1)*%
X542252500Y4200387D02*
X542282500Y4170387D01*
X541380000Y3510387D02*
X541622500Y3510387D01*
%TO.N,GND*%
X550870000Y1270385D02*
X547392005Y1270385D01*
X539860000Y-27829484D02*
X539860000Y-26426984D01*
X538247997Y-25829484D02*
X537050000Y-27027481D01*
X547392005Y-8729572D02*
X545690000Y-7027567D01*
%TO.N,D-*%
X541820832Y-9965845D02*
X542260000Y-9526677D01*
X542260000Y-9526677D02*
X542260000Y-8229570D01*
%TO.N,GND*%
X531870016Y-8729528D02*
X535348039Y-8729528D01*
%TO.N,D+*%
X541760000Y680387D02*
X541660000Y780387D01*
%TO.N,+5V*%
X542970000Y-7939570D02*
X542860000Y-7829570D01*
%TO.N,D-*%
X542260000Y-8229570D02*
X541860000Y-7829570D01*
%TO.N,GND*%
X539860000Y-7829570D02*
X539860000Y-6427070D01*
%TO.N,D+*%
X541760000Y-9319570D02*
X541660000Y-9219570D01*
%TO.N,D-*%
X542260000Y1770387D02*
X541860000Y2170387D01*
%TO.N,GND*%
X547392005Y1270385D02*
X545690000Y2972390D01*
%TO.N,D-*%
X541820832Y34112D02*
X542260000Y473280D01*
%TO.N,Net-(J1-CC1)*%
X541622500Y3510387D02*
X542282500Y4170387D01*
%TO.N,GND*%
X535348039Y-8729528D02*
X537050000Y-7027567D01*
X539860000Y-6427070D02*
X540457500Y-5829570D01*
X538247997Y-5829570D02*
X537050000Y-7027567D01*
%TO.N,D-*%
X541222821Y-9965845D02*
X541820832Y-9965845D01*
X542290000Y-9556677D02*
X542260000Y-9526677D01*
%TO.N,GND*%
X540457500Y-5829570D02*
X538247997Y-5829570D01*
%TO.N,D+*%
X540640000Y-9219570D02*
X540640000Y-8049570D01*
%TO.N,GND*%
X550870000Y-8729572D02*
X547392005Y-8729572D01*
X540457500Y4170387D02*
X538247997Y4170387D01*
X531870016Y1270429D02*
X535348039Y1270429D01*
%TO.N,Net-(J1-CC1)*%
X542302500Y-5849570D02*
X542282500Y-5829570D01*
X542252500Y-5799570D02*
X542282500Y-5829570D01*
%TO.N,GND*%
X538247997Y4170387D02*
X537050000Y2972390D01*
%TO.N,D+*%
X541660000Y780387D02*
X540640000Y780387D01*
%TO.N,+5V*%
X542970000Y2060387D02*
X542860000Y2170387D01*
%TO.N,D-*%
X542290000Y443280D02*
X542260000Y473280D01*
X541222821Y34112D02*
X541820832Y34112D01*
X542290000Y-10429570D02*
X542290000Y-9556677D01*
%TO.N,Net-(J1-CC1)*%
X541380000Y-6489570D02*
X541622500Y-6489570D01*
X542302500Y-35849441D02*
X542282500Y-35829441D01*
%TO.N,D+*%
X541660000Y-9219570D02*
X540640000Y-9219570D01*
%TO.N,Net-(J1-CC1)*%
X542252500Y-35799441D02*
X542282500Y-35829441D01*
X541380000Y-36489441D02*
X541622500Y-36489441D01*
X541622500Y-36489441D02*
X542282500Y-35829441D01*
%TO.N,GND*%
X547392005Y-38729443D02*
X545690000Y-37027438D01*
%TO.N,Net-(J1-CC1)*%
X541622500Y-6489570D02*
X542282500Y-5829570D01*
%TO.N,+5V*%
X543990000Y-7939570D02*
X542970000Y-7939570D01*
%TO.N,D+*%
X540640000Y-9639570D02*
X540640000Y-9219570D01*
%TO.N,GND*%
X535348039Y-38729399D02*
X537050000Y-37027438D01*
%TO.N,D+*%
X540640000Y-8049570D02*
X540860000Y-7829570D01*
%TO.N,GND*%
X550870000Y-38729443D02*
X547392005Y-38729443D01*
%TO.N,Net-(J1-CC1)*%
X541622500Y43510301D02*
X542282500Y44170301D01*
X541380000Y43510301D02*
X541622500Y43510301D01*
X542302500Y44150301D02*
X542282500Y44170301D01*
X542252500Y44200301D02*
X542282500Y44170301D01*
%TO.N,GND*%
X550870000Y41270299D02*
X547392005Y41270299D01*
X547392005Y41270299D02*
X545690000Y42972304D01*
X535348039Y41270343D02*
X537050000Y42972304D01*
X531870016Y41270343D02*
X535348039Y41270343D01*
%TO.N,D-*%
X542290000Y40443194D02*
X542260000Y40473194D01*
%TO.N,D+*%
X541760000Y40680301D02*
X541660000Y40780301D01*
%TO.N,D-*%
X541222821Y40034026D02*
X541820832Y40034026D01*
X542260000Y41770301D02*
X541860000Y42170301D01*
X542290000Y39570301D02*
X542290000Y40443194D01*
%TO.N,D+*%
X541660000Y40780301D02*
X540640000Y40780301D01*
%TO.N,D-*%
X542260000Y40473194D02*
X542260000Y41770301D01*
%TO.N,D+*%
X540640000Y40780301D02*
X540640000Y41950301D01*
X540640000Y41950301D02*
X540860000Y42170301D01*
%TO.N,+5V*%
X542970000Y42060301D02*
X542860000Y42170301D01*
%TO.N,D-*%
X541820832Y40034026D02*
X542260000Y40473194D01*
%TO.N,+5V*%
X543990000Y42060301D02*
X542970000Y42060301D01*
%TO.N,D+*%
X540640000Y40360301D02*
X540640000Y40780301D01*
%TO.N,GND*%
X540457500Y44170301D02*
X538247997Y44170301D01*
X539860000Y43572801D02*
X540457500Y44170301D01*
X539860000Y42170301D02*
X539860000Y43572801D01*
X538247997Y44170301D02*
X537050000Y42972304D01*
%TO.N,Net-(J1-CC1)*%
X541622500Y53510258D02*
X542282500Y54170258D01*
X541380000Y53510258D02*
X541622500Y53510258D01*
X542302500Y54150258D02*
X542282500Y54170258D01*
X542252500Y54200258D02*
X542282500Y54170258D01*
%TO.N,GND*%
X550870000Y51270256D02*
X547392005Y51270256D01*
X547392005Y51270256D02*
X545690000Y52972261D01*
X535348039Y51270300D02*
X537050000Y52972261D01*
X531870016Y51270300D02*
X535348039Y51270300D01*
%TO.N,D-*%
X542290000Y50443151D02*
X542260000Y50473151D01*
%TO.N,D+*%
X541760000Y50680258D02*
X541660000Y50780258D01*
%TO.N,D-*%
X541222821Y50033983D02*
X541820832Y50033983D01*
X542260000Y51770258D02*
X541860000Y52170258D01*
X542290000Y49570258D02*
X542290000Y50443151D01*
%TO.N,D+*%
X541660000Y50780258D02*
X540640000Y50780258D01*
%TO.N,D-*%
X542260000Y50473151D02*
X542260000Y51770258D01*
%TO.N,D+*%
X540640000Y50780258D02*
X540640000Y51950258D01*
X540640000Y51950258D02*
X540860000Y52170258D01*
%TO.N,+5V*%
X542970000Y52060258D02*
X542860000Y52170258D01*
%TO.N,D-*%
X541820832Y50033983D02*
X542260000Y50473151D01*
%TO.N,+5V*%
X543990000Y52060258D02*
X542970000Y52060258D01*
%TO.N,D+*%
X540640000Y50360258D02*
X540640000Y50780258D01*
%TO.N,GND*%
X540457500Y54170258D02*
X538247997Y54170258D01*
X539860000Y53572758D02*
X540457500Y54170258D01*
X539860000Y52170258D02*
X539860000Y53572758D01*
X538247997Y54170258D02*
X537050000Y52972261D01*
%TO.N,Net-(J1-CC1)*%
X541622500Y63510215D02*
X542282500Y64170215D01*
X541380000Y63510215D02*
X541622500Y63510215D01*
X542302500Y64150215D02*
X542282500Y64170215D01*
X542252500Y64200215D02*
X542282500Y64170215D01*
%TO.N,GND*%
X550870000Y61270213D02*
X547392005Y61270213D01*
X547392005Y61270213D02*
X545690000Y62972218D01*
X535348039Y61270257D02*
X537050000Y62972218D01*
X531870016Y61270257D02*
X535348039Y61270257D01*
%TO.N,D-*%
X542290000Y60443108D02*
X542260000Y60473108D01*
%TO.N,D+*%
X541760000Y60680215D02*
X541660000Y60780215D01*
%TO.N,D-*%
X541222821Y60033940D02*
X541820832Y60033940D01*
X542260000Y61770215D02*
X541860000Y62170215D01*
X542290000Y59570215D02*
X542290000Y60443108D01*
%TO.N,D+*%
X541660000Y60780215D02*
X540640000Y60780215D01*
%TO.N,D-*%
X542260000Y60473108D02*
X542260000Y61770215D01*
%TO.N,D+*%
X540640000Y60780215D02*
X540640000Y61950215D01*
X540640000Y61950215D02*
X540860000Y62170215D01*
%TO.N,+5V*%
X542970000Y62060215D02*
X542860000Y62170215D01*
%TO.N,D-*%
X541820832Y60033940D02*
X542260000Y60473108D01*
%TO.N,+5V*%
X543990000Y62060215D02*
X542970000Y62060215D01*
%TO.N,D+*%
X540640000Y60360215D02*
X540640000Y60780215D01*
%TO.N,GND*%
X540457500Y64170215D02*
X538247997Y64170215D01*
X539860000Y63572715D02*
X540457500Y64170215D01*
X539860000Y62170215D02*
X539860000Y63572715D01*
X538247997Y64170215D02*
X537050000Y62972218D01*
%TO.N,Net-(J1-CC1)*%
X541622500Y73510172D02*
X542282500Y74170172D01*
X541380000Y73510172D02*
X541622500Y73510172D01*
X542302500Y74150172D02*
X542282500Y74170172D01*
X542252500Y74200172D02*
X542282500Y74170172D01*
%TO.N,GND*%
X550870000Y71270170D02*
X547392005Y71270170D01*
X547392005Y71270170D02*
X545690000Y72972175D01*
X535348039Y71270214D02*
X537050000Y72972175D01*
X531870016Y71270214D02*
X535348039Y71270214D01*
%TO.N,D-*%
X542290000Y70443065D02*
X542260000Y70473065D01*
%TO.N,D+*%
X541760000Y70680172D02*
X541660000Y70780172D01*
%TO.N,D-*%
X541222821Y70033897D02*
X541820832Y70033897D01*
X542260000Y71770172D02*
X541860000Y72170172D01*
X542290000Y69570172D02*
X542290000Y70443065D01*
%TO.N,D+*%
X541660000Y70780172D02*
X540640000Y70780172D01*
%TO.N,D-*%
X542260000Y70473065D02*
X542260000Y71770172D01*
%TO.N,D+*%
X540640000Y70780172D02*
X540640000Y71950172D01*
X540640000Y71950172D02*
X540860000Y72170172D01*
%TO.N,+5V*%
X542970000Y72060172D02*
X542860000Y72170172D01*
%TO.N,D-*%
X541820832Y70033897D02*
X542260000Y70473065D01*
%TO.N,+5V*%
X543990000Y72060172D02*
X542970000Y72060172D01*
%TO.N,D+*%
X540640000Y70360172D02*
X540640000Y70780172D01*
%TO.N,GND*%
X540457500Y74170172D02*
X538247997Y74170172D01*
X539860000Y73572672D02*
X540457500Y74170172D01*
X539860000Y72170172D02*
X539860000Y73572672D01*
X538247997Y74170172D02*
X537050000Y72972175D01*
%TO.N,Net-(J1-CC1)*%
X541622500Y83510129D02*
X542282500Y84170129D01*
X541380000Y83510129D02*
X541622500Y83510129D01*
X542302500Y84150129D02*
X542282500Y84170129D01*
X542252500Y84200129D02*
X542282500Y84170129D01*
%TO.N,GND*%
X550870000Y81270127D02*
X547392005Y81270127D01*
X547392005Y81270127D02*
X545690000Y82972132D01*
X535348039Y81270171D02*
X537050000Y82972132D01*
X531870016Y81270171D02*
X535348039Y81270171D01*
%TO.N,D-*%
X542290000Y80443022D02*
X542260000Y80473022D01*
%TO.N,D+*%
X541760000Y80680129D02*
X541660000Y80780129D01*
%TO.N,D-*%
X541222821Y80033854D02*
X541820832Y80033854D01*
X542260000Y81770129D02*
X541860000Y82170129D01*
X542290000Y79570129D02*
X542290000Y80443022D01*
%TO.N,D+*%
X541660000Y80780129D02*
X540640000Y80780129D01*
%TO.N,D-*%
X542260000Y80473022D02*
X542260000Y81770129D01*
%TO.N,D+*%
X540640000Y80780129D02*
X540640000Y81950129D01*
X540640000Y81950129D02*
X540860000Y82170129D01*
%TO.N,+5V*%
X542970000Y82060129D02*
X542860000Y82170129D01*
%TO.N,D-*%
X541820832Y80033854D02*
X542260000Y80473022D01*
%TO.N,+5V*%
X543990000Y82060129D02*
X542970000Y82060129D01*
%TO.N,D+*%
X540640000Y80360129D02*
X540640000Y80780129D01*
%TO.N,GND*%
X540457500Y84170129D02*
X538247997Y84170129D01*
X539860000Y83572629D02*
X540457500Y84170129D01*
X539860000Y82170129D02*
X539860000Y83572629D01*
X538247997Y84170129D02*
X537050000Y82972132D01*
%TO.N,Net-(J1-CC1)*%
X541622500Y93510086D02*
X542282500Y94170086D01*
X541380000Y93510086D02*
X541622500Y93510086D01*
X542302500Y94150086D02*
X542282500Y94170086D01*
X542252500Y94200086D02*
X542282500Y94170086D01*
%TO.N,GND*%
X550870000Y91270084D02*
X547392005Y91270084D01*
X547392005Y91270084D02*
X545690000Y92972089D01*
X535348039Y91270128D02*
X537050000Y92972089D01*
X531870016Y91270128D02*
X535348039Y91270128D01*
%TO.N,D-*%
X542290000Y90442979D02*
X542260000Y90472979D01*
%TO.N,D+*%
X541760000Y90680086D02*
X541660000Y90780086D01*
%TO.N,D-*%
X541222821Y90033811D02*
X541820832Y90033811D01*
X542260000Y91770086D02*
X541860000Y92170086D01*
X542290000Y89570086D02*
X542290000Y90442979D01*
%TO.N,D+*%
X541660000Y90780086D02*
X540640000Y90780086D01*
%TO.N,D-*%
X542260000Y90472979D02*
X542260000Y91770086D01*
%TO.N,D+*%
X540640000Y90780086D02*
X540640000Y91950086D01*
X540640000Y91950086D02*
X540860000Y92170086D01*
%TO.N,+5V*%
X542970000Y92060086D02*
X542860000Y92170086D01*
%TO.N,D-*%
X541820832Y90033811D02*
X542260000Y90472979D01*
%TO.N,+5V*%
X543990000Y92060086D02*
X542970000Y92060086D01*
%TO.N,D+*%
X540640000Y90360086D02*
X540640000Y90780086D01*
%TO.N,GND*%
X540457500Y94170086D02*
X538247997Y94170086D01*
X539860000Y93572586D02*
X540457500Y94170086D01*
X539860000Y92170086D02*
X539860000Y93572586D01*
X538247997Y94170086D02*
X537050000Y92972089D01*
%TO.N,Net-(J1-CC1)*%
X541622500Y103510043D02*
X542282500Y104170043D01*
X541380000Y103510043D02*
X541622500Y103510043D01*
X542302500Y104150043D02*
X542282500Y104170043D01*
X542252500Y104200043D02*
X542282500Y104170043D01*
%TO.N,GND*%
X550870000Y101270041D02*
X547392005Y101270041D01*
X547392005Y101270041D02*
X545690000Y102972046D01*
X535348039Y101270085D02*
X537050000Y102972046D01*
X531870016Y101270085D02*
X535348039Y101270085D01*
%TO.N,D-*%
X542290000Y100442936D02*
X542260000Y100472936D01*
%TO.N,D+*%
X541760000Y100680043D02*
X541660000Y100780043D01*
%TO.N,D-*%
X541222821Y100033768D02*
X541820832Y100033768D01*
X542260000Y101770043D02*
X541860000Y102170043D01*
X542290000Y99570043D02*
X542290000Y100442936D01*
%TO.N,D+*%
X541660000Y100780043D02*
X540640000Y100780043D01*
%TO.N,D-*%
X542260000Y100472936D02*
X542260000Y101770043D01*
%TO.N,D+*%
X540640000Y100780043D02*
X540640000Y101950043D01*
X540640000Y101950043D02*
X540860000Y102170043D01*
%TO.N,+5V*%
X542970000Y102060043D02*
X542860000Y102170043D01*
%TO.N,D-*%
X541820832Y100033768D02*
X542260000Y100472936D01*
%TO.N,+5V*%
X543990000Y102060043D02*
X542970000Y102060043D01*
%TO.N,D+*%
X540640000Y100360043D02*
X540640000Y100780043D01*
%TO.N,GND*%
X540457500Y104170043D02*
X538247997Y104170043D01*
X539860000Y103572543D02*
X540457500Y104170043D01*
X539860000Y102170043D02*
X539860000Y103572543D01*
X538247997Y104170043D02*
X537050000Y102972046D01*
%TO.N,Net-(J1-CC1)*%
X541622500Y113510000D02*
X542282500Y114170000D01*
X541380000Y113510000D02*
X541622500Y113510000D01*
X542302500Y114150000D02*
X542282500Y114170000D01*
X542252500Y114200000D02*
X542282500Y114170000D01*
%TO.N,GND*%
X550870000Y111269998D02*
X547392005Y111269998D01*
X547392005Y111269998D02*
X545690000Y112972003D01*
X535348039Y111270042D02*
X537050000Y112972003D01*
X531870016Y111270042D02*
X535348039Y111270042D01*
%TO.N,D-*%
X542290000Y110442893D02*
X542260000Y110472893D01*
%TO.N,D+*%
X541760000Y110680000D02*
X541660000Y110780000D01*
%TO.N,D-*%
X541222821Y110033725D02*
X541820832Y110033725D01*
X542260000Y111770000D02*
X541860000Y112170000D01*
X542290000Y109570000D02*
X542290000Y110442893D01*
%TO.N,D+*%
X541660000Y110780000D02*
X540640000Y110780000D01*
%TO.N,D-*%
X542260000Y110472893D02*
X542260000Y111770000D01*
%TO.N,D+*%
X540640000Y110780000D02*
X540640000Y111950000D01*
X540640000Y111950000D02*
X540860000Y112170000D01*
%TO.N,+5V*%
X542970000Y112060000D02*
X542860000Y112170000D01*
%TO.N,D-*%
X541820832Y110033725D02*
X542260000Y110472893D01*
%TO.N,+5V*%
X543990000Y112060000D02*
X542970000Y112060000D01*
%TO.N,D+*%
X540640000Y110360000D02*
X540640000Y110780000D01*
%TO.N,GND*%
X540457500Y114170000D02*
X538247997Y114170000D01*
X539860000Y113572500D02*
X540457500Y114170000D01*
X539860000Y112170000D02*
X539860000Y113572500D01*
X538247997Y114170000D02*
X537050000Y112972003D01*
X550870000Y121269998D02*
X547392005Y121269998D01*
X547392005Y121269998D02*
X545690000Y122972003D01*
X535348039Y121270042D02*
X537050000Y122972003D01*
X531870016Y121270042D02*
X535348039Y121270042D01*
X538247997Y124170000D02*
X537050000Y122972003D01*
X540457500Y124170000D02*
X538247997Y124170000D01*
X539860000Y123572500D02*
X540457500Y124170000D01*
X539860000Y122170000D02*
X539860000Y123572500D01*
%TO.N,Net-(J1-CC1)*%
X541380000Y123510000D02*
X541622500Y123510000D01*
X541622500Y123510000D02*
X542282500Y124170000D01*
%TO.N,+5V*%
X543990000Y122060000D02*
X542970000Y122060000D01*
X542970000Y122060000D02*
X542860000Y122170000D01*
%TO.N,Net-(J1-CC1)*%
X542252500Y124200000D02*
X542282500Y124170000D01*
X542302500Y124150000D02*
X542282500Y124170000D01*
%TO.N,D-*%
X542290000Y120442893D02*
X542260000Y120472893D01*
X542290000Y119570000D02*
X542290000Y120442893D01*
X542260000Y120472893D02*
X542260000Y121770000D01*
X541222821Y120033725D02*
X541820832Y120033725D01*
X541820832Y120033725D02*
X542260000Y120472893D01*
X542260000Y121770000D02*
X541860000Y122170000D01*
%TO.N,D+*%
X541660000Y120780000D02*
X540640000Y120780000D01*
X541760000Y120680000D02*
X541660000Y120780000D01*
X540640000Y120780000D02*
X540640000Y121950000D01*
X540640000Y120360000D02*
X540640000Y120780000D01*
X540640000Y121950000D02*
X540860000Y122170000D01*
%TD*%
M02*
