M48
; DRILL file {KiCad 8.99.0-946-gf00a1ab517} date 2024-05-19T19:51:49+0700
; FORMAT={-:-/ absolute / inch / decimal}
; #@! TF.CreationDate,2024-05-19T19:51:49+07:00
; #@! TF.GenerationSoftware,Kicad,Pcbnew,8.99.0-946-gf00a1ab517
; #@! TF.FileFunction,Plated,1,2,PTH
FMAT,2
INCH
; #@! TA.AperFunction,Plated,PTH,ViaDrill
T1C0.0118
; #@! TA.AperFunction,Plated,PTH,ComponentDrill
T2C0.0236
; #@! TA.AperFunction,Plated,PTH,ComponentDrill
T3C0.0866
%
G90
G05
T1
X21.285Y4.7386
X21.285Y4.3449
X21.285Y3.9512
X21.285Y3.5575
X21.285Y3.1638
X21.285Y2.7701
X21.285Y2.3764
X21.285Y1.9827
X21.285Y1.589
X21.285Y1.1953
X21.285Y0.8016
X21.285Y0.4079
X21.285Y0.0142
X21.285Y-0.3795
X21.285Y-0.7732
X21.285Y-1.1669
X21.285Y-1.5606
X21.285Y-1.9543
X21.308Y4.7257
X21.308Y4.332
X21.308Y3.9383
X21.308Y3.5446
X21.308Y3.1509
X21.308Y2.7572
X21.308Y2.3635
X21.308Y1.9698
X21.308Y1.5761
X21.308Y1.1824
X21.308Y0.7887
X21.308Y0.395
X21.308Y0.0013
X21.308Y-0.3924
X21.308Y-0.7861
X21.308Y-1.1798
X21.308Y-1.5735
X21.308Y-1.9672
X21.3142Y4.8626
X21.3142Y4.4689
X21.3142Y4.0752
X21.3142Y3.6815
X21.3142Y3.2878
X21.3142Y2.8941
X21.3142Y2.5004
X21.3142Y2.1067
X21.3142Y1.713
X21.3142Y1.3193
X21.3142Y0.9256
X21.3142Y0.5319
X21.3142Y0.1382
X21.3142Y-0.2555
X21.3142Y-0.6492
X21.3142Y-1.0429
X21.3142Y-1.4366
X21.3142Y-1.8303
X21.3291Y4.7512
X21.3291Y4.3575
X21.3291Y3.9638
X21.3291Y3.5701
X21.3291Y3.1764
X21.3291Y2.7827
X21.3291Y2.389
X21.3291Y1.9953
X21.3291Y1.6016
X21.3291Y1.2079
X21.3291Y0.8142
X21.3291Y0.4205
X21.3291Y0.0268
X21.3291Y-0.3669
X21.3291Y-0.7606
X21.3291Y-1.1543
X21.3291Y-1.548
X21.3291Y-1.9417
X21.35Y4.7075
X21.35Y4.3138
X21.35Y3.9201
X21.35Y3.5264
X21.35Y3.1327
X21.35Y2.739
X21.35Y2.3453
X21.35Y1.9516
X21.35Y1.5579
X21.35Y1.1642
X21.35Y0.7705
X21.35Y0.3768
X21.35Y-0.0169
X21.35Y-0.4106
X21.35Y-0.8043
X21.35Y-1.198
X21.35Y-1.5917
X21.35Y-1.9854
X21.4169Y4.8055
X21.4169Y4.4118
X21.4169Y4.0181
X21.4169Y3.6244
X21.4169Y3.2307
X21.4169Y2.837
X21.4169Y2.4433
X21.4169Y2.0496
X21.4169Y1.6559
X21.4169Y1.2622
X21.4169Y0.8685
X21.4169Y0.4748
X21.4169Y0.0811
X21.4169Y-0.3126
X21.4169Y-0.7063
X21.4169Y-1.1
X21.4169Y-1.4937
X21.4169Y-1.8874
T3
X20.9398Y4.7744
X20.9398Y4.3807
X20.9398Y3.987
X20.9398Y3.5933
X20.9398Y3.1996
X20.9398Y2.8059
X20.9398Y2.4122
X20.9398Y2.0185
X20.9398Y1.6248
X20.9398Y1.2311
X20.9398Y0.8374
X20.9398Y0.4437
X20.9398Y0.05
X20.9398Y-0.3437
X20.9398Y-0.7374
X20.9398Y-1.1311
X20.9398Y-1.5248
X20.9398Y-1.9185
X21.6878Y4.7744
X21.6878Y4.3807
X21.6878Y3.987
X21.6878Y3.5933
X21.6878Y3.1996
X21.6878Y2.8059
X21.6878Y2.4122
X21.6878Y2.0185
X21.6878Y1.6248
X21.6878Y1.2311
X21.6878Y0.8374
X21.6878Y0.4437
X21.6878Y0.05
X21.6878Y-0.3437
X21.6878Y-0.7374
X21.6878Y-1.1311
X21.6878Y-1.5248
X21.6878Y-1.9185
T2
G00X21.1437Y4.8296
M15
G01X21.1437Y4.8532
M16
G05
G00X21.1437Y4.6552
M15
G01X21.1437Y4.6985
M16
G05
G00X21.1437Y4.4359
M15
G01X21.1437Y4.4595
M16
G05
G00X21.1437Y4.2615
M15
G01X21.1437Y4.3048
M16
G05
G00X21.1437Y4.0422
M15
G01X21.1437Y4.0658
M16
G05
G00X21.1437Y3.8678
M15
G01X21.1437Y3.9111
M16
G05
G00X21.1437Y3.6485
M15
G01X21.1437Y3.6721
M16
G05
G00X21.1437Y3.4741
M15
G01X21.1437Y3.5174
M16
G05
G00X21.1437Y3.2548
M15
G01X21.1437Y3.2784
M16
G05
G00X21.1437Y3.0804
M15
G01X21.1437Y3.1237
M16
G05
G00X21.1437Y2.8611
M15
G01X21.1437Y2.8847
M16
G05
G00X21.1437Y2.6867
M15
G01X21.1437Y2.73
M16
G05
G00X21.1437Y2.4674
M15
G01X21.1437Y2.491
M16
G05
G00X21.1437Y2.293
M15
G01X21.1437Y2.3363
M16
G05
G00X21.1437Y2.0737
M15
G01X21.1437Y2.0973
M16
G05
G00X21.1437Y1.8993
M15
G01X21.1437Y1.9426
M16
G05
G00X21.1437Y1.68
M15
G01X21.1437Y1.7036
M16
G05
G00X21.1437Y1.5056
M15
G01X21.1437Y1.5489
M16
G05
G00X21.1437Y1.2863
M15
G01X21.1437Y1.3099
M16
G05
G00X21.1437Y1.1119
M15
G01X21.1437Y1.1552
M16
G05
G00X21.1437Y0.8926
M15
G01X21.1437Y0.9162
M16
G05
G00X21.1437Y0.7182
M15
G01X21.1437Y0.7615
M16
G05
G00X21.1437Y0.4989
M15
G01X21.1437Y0.5225
M16
G05
G00X21.1437Y0.3245
M15
G01X21.1437Y0.3678
M16
G05
G00X21.1437Y0.1052
M15
G01X21.1437Y0.1288
M16
G05
G00X21.1437Y-0.0692
M15
G01X21.1437Y-0.0259
M16
G05
G00X21.1437Y-0.2885
M15
G01X21.1437Y-0.2649
M16
G05
G00X21.1437Y-0.4629
M15
G01X21.1437Y-0.4196
M16
G05
G00X21.1437Y-0.6822
M15
G01X21.1437Y-0.6586
M16
G05
G00X21.1437Y-0.8566
M15
G01X21.1437Y-0.8133
M16
G05
G00X21.1437Y-1.0759
M15
G01X21.1437Y-1.0523
M16
G05
G00X21.1437Y-1.2503
M15
G01X21.1437Y-1.207
M16
G05
G00X21.1437Y-1.4696
M15
G01X21.1437Y-1.446
M16
G05
G00X21.1437Y-1.644
M15
G01X21.1437Y-1.6007
M16
G05
G00X21.1437Y-1.8633
M15
G01X21.1437Y-1.8397
M16
G05
G00X21.1437Y-2.0377
M15
G01X21.1437Y-1.9944
M16
G05
G00X21.4839Y4.8296
M15
G01X21.4839Y4.8532
M16
G05
G00X21.4839Y4.6552
M15
G01X21.4839Y4.6985
M16
G05
G00X21.4839Y4.4359
M15
G01X21.4839Y4.4595
M16
G05
G00X21.4839Y4.2615
M15
G01X21.4839Y4.3048
M16
G05
G00X21.4839Y4.0422
M15
G01X21.4839Y4.0658
M16
G05
G00X21.4839Y3.8678
M15
G01X21.4839Y3.9111
M16
G05
G00X21.4839Y3.6485
M15
G01X21.4839Y3.6721
M16
G05
G00X21.4839Y3.4741
M15
G01X21.4839Y3.5174
M16
G05
G00X21.4839Y3.2548
M15
G01X21.4839Y3.2784
M16
G05
G00X21.4839Y3.0804
M15
G01X21.4839Y3.1237
M16
G05
G00X21.4839Y2.8611
M15
G01X21.4839Y2.8847
M16
G05
G00X21.4839Y2.6867
M15
G01X21.4839Y2.73
M16
G05
G00X21.4839Y2.4674
M15
G01X21.4839Y2.491
M16
G05
G00X21.4839Y2.293
M15
G01X21.4839Y2.3363
M16
G05
G00X21.4839Y2.0737
M15
G01X21.4839Y2.0973
M16
G05
G00X21.4839Y1.8993
M15
G01X21.4839Y1.9426
M16
G05
G00X21.4839Y1.68
M15
G01X21.4839Y1.7036
M16
G05
G00X21.4839Y1.5056
M15
G01X21.4839Y1.5489
M16
G05
G00X21.4839Y1.2863
M15
G01X21.4839Y1.3099
M16
G05
G00X21.4839Y1.1119
M15
G01X21.4839Y1.1552
M16
G05
G00X21.4839Y0.8926
M15
G01X21.4839Y0.9162
M16
G05
G00X21.4839Y0.7182
M15
G01X21.4839Y0.7615
M16
G05
G00X21.4839Y0.4989
M15
G01X21.4839Y0.5225
M16
G05
G00X21.4839Y0.3245
M15
G01X21.4839Y0.3678
M16
G05
G00X21.4839Y0.1052
M15
G01X21.4839Y0.1288
M16
G05
G00X21.4839Y-0.0692
M15
G01X21.4839Y-0.0259
M16
G05
G00X21.4839Y-0.2885
M15
G01X21.4839Y-0.2649
M16
G05
G00X21.4839Y-0.4629
M15
G01X21.4839Y-0.4196
M16
G05
G00X21.4839Y-0.6822
M15
G01X21.4839Y-0.6586
M16
G05
G00X21.4839Y-0.8566
M15
G01X21.4839Y-0.8133
M16
G05
G00X21.4839Y-1.0759
M15
G01X21.4839Y-1.0523
M16
G05
G00X21.4839Y-1.2503
M15
G01X21.4839Y-1.207
M16
G05
G00X21.4839Y-1.4696
M15
G01X21.4839Y-1.446
M16
G05
G00X21.4839Y-1.644
M15
G01X21.4839Y-1.6007
M16
G05
G00X21.4839Y-1.8633
M15
G01X21.4839Y-1.8397
M16
G05
G00X21.4839Y-2.0377
M15
G01X21.4839Y-1.9944
M16
G05
M30
