M48
; DRILL file {KiCad 8.99.0-946-gf00a1ab517} date 2024-05-19T19:51:49+0700
; FORMAT={-:-/ absolute / inch / decimal}
; #@! TF.CreationDate,2024-05-19T19:51:49+07:00
; #@! TF.GenerationSoftware,Kicad,Pcbnew,8.99.0-946-gf00a1ab517
; #@! TF.FileFunction,NonPlated,1,2,NPTH
FMAT,2
INCH
; #@! TA.AperFunction,NonPlated,NPTH,ComponentDrill
T1C0.0256
%
G90
G05
T1
X21.2Y4.6977
X21.2Y4.304
X21.2Y3.9103
X21.2Y3.5166
X21.2Y3.1229
X21.2Y2.7292
X21.2Y2.3355
X21.2Y1.9418
X21.2Y1.5481
X21.2Y1.1544
X21.2Y0.7607
X21.2Y0.367
X21.2Y-0.0267
X21.2Y-0.4204
X21.2Y-0.8141
X21.2Y-1.2078
X21.2Y-1.6015
X21.2Y-1.9952
X21.4276Y4.6977
X21.4276Y4.304
X21.4276Y3.9103
X21.4276Y3.5166
X21.4276Y3.1229
X21.4276Y2.7292
X21.4276Y2.3355
X21.4276Y1.9418
X21.4276Y1.5481
X21.4276Y1.1544
X21.4276Y0.7607
X21.4276Y0.367
X21.4276Y-0.0267
X21.4276Y-0.4204
X21.4276Y-0.8141
X21.4276Y-1.2078
X21.4276Y-1.6015
X21.4276Y-1.9952
M30
