%TF.GenerationSoftware,KiCad,Pcbnew,8.99.0-2206-gee77d06be7*%
%TF.CreationDate,2024-10-02T02:55:51+07:00*%
%TF.ProjectId,RadianceTKL,52616469-616e-4636-9554-4b4c2e6b6963,rev?*%
%TF.SameCoordinates,Original*%
%TF.FileFunction,Drillmap*%
%TF.FilePolarity,Positive*%
%FSLAX45Y45*%
G04 Gerber Fmt 4.5, Leading zero omitted, Abs format (unit mm)*
G04 Created by KiCad (PCBNEW 8.99.0-2206-gee77d06be7) date 2024-10-02 02:55:51*
%MOMM*%
%LPD*%
G01*
G04 APERTURE LIST*
%ADD10C,0.050000*%
%ADD11C,0.200000*%
%ADD12C,0.100000*%
%ADD13C,0.170000*%
%ADD14C,0.304800*%
%ADD15C,0.398780*%
%ADD16C,0.400000*%
G04 APERTURE END LIST*
D10*
X74250000Y71275000D02*
G75*
G02*
X74650000Y71675000I400000J0D01*
G01*
X74650000Y59925000D02*
G75*
G02*
X74250000Y60325000I0J400000D01*
G01*
X108625000Y60325000D02*
G75*
G02*
X108225000Y59925000I-400000J0D01*
G01*
X108225000Y71700000D02*
G75*
G02*
X108625000Y71300000I0J-400000D01*
G01*
X74650000Y59925000D02*
X82375000Y59925000D01*
X108625000Y60325000D02*
X108625000Y71300000D01*
X74250000Y71275000D02*
X74250000Y60325000D01*
X108225000Y71700000D02*
X74650000Y71675000D01*
X82900000Y59925000D02*
X93812500Y59925000D01*
X82475000Y59825000D02*
X82800000Y59825000D01*
X93912500Y59825000D02*
X93812500Y59925000D01*
X82475000Y59825000D02*
X82375000Y59925000D01*
X94337500Y59925000D02*
X108225000Y59925000D01*
X94237500Y59825000D02*
X94337500Y59925000D01*
X82800000Y59825000D02*
X82900000Y59925000D01*
X93912500Y59825000D02*
X94237500Y59825000D01*
D11*
D12*
X102538500Y71476000D02*
X102603500Y71411000D01*
X102603500Y71476000D02*
X102538500Y71411000D01*
X103116500Y71476000D02*
X103181500Y71411000D01*
X103181500Y71476000D02*
X103116500Y71411000D01*
D13*
X74576000Y68306000D02*
G75*
G02*
X74406000Y68306000I-85000J0D01*
G01*
X74406000Y68306000D02*
G75*
G02*
X74576000Y68306000I85000J0D01*
G01*
X74578000Y70885000D02*
G75*
G02*
X74408000Y70885000I-85000J0D01*
G01*
X74408000Y70885000D02*
G75*
G02*
X74578000Y70885000I85000J0D01*
G01*
X74814100Y64496000D02*
G75*
G02*
X74644100Y64496000I-85000J0D01*
G01*
X74644100Y64496000D02*
G75*
G02*
X74814100Y64496000I85000J0D01*
G01*
X74821000Y60687000D02*
G75*
G02*
X74651000Y60687000I-85000J0D01*
G01*
X74651000Y60687000D02*
G75*
G02*
X74821000Y60687000I85000J0D01*
G01*
X75052300Y66401000D02*
G75*
G02*
X74882300Y66401000I-85000J0D01*
G01*
X74882300Y66401000D02*
G75*
G02*
X75052300Y66401000I85000J0D01*
G01*
X75290400Y64496000D02*
G75*
G02*
X75120400Y64496000I-85000J0D01*
G01*
X75120400Y64496000D02*
G75*
G02*
X75290400Y64496000I85000J0D01*
G01*
X75592000Y68306000D02*
G75*
G02*
X75422000Y68306000I-85000J0D01*
G01*
X75422000Y68306000D02*
G75*
G02*
X75592000Y68306000I85000J0D01*
G01*
X75594000Y70885000D02*
G75*
G02*
X75424000Y70885000I-85000J0D01*
G01*
X75424000Y70885000D02*
G75*
G02*
X75594000Y70885000I85000J0D01*
G01*
X75774060Y62591000D02*
G75*
G02*
X75604060Y62591000I-85000J0D01*
G01*
X75604060Y62591000D02*
G75*
G02*
X75774060Y62591000I85000J0D01*
G01*
X75830100Y64496000D02*
G75*
G02*
X75660100Y64496000I-85000J0D01*
G01*
X75660100Y64496000D02*
G75*
G02*
X75830100Y64496000I85000J0D01*
G01*
X75837000Y60687000D02*
G75*
G02*
X75667000Y60687000I-85000J0D01*
G01*
X75667000Y60687000D02*
G75*
G02*
X75837000Y60687000I85000J0D01*
G01*
X76068300Y66401000D02*
G75*
G02*
X75898300Y66401000I-85000J0D01*
G01*
X75898300Y66401000D02*
G75*
G02*
X76068300Y66401000I85000J0D01*
G01*
X76306400Y64496000D02*
G75*
G02*
X76136400Y64496000I-85000J0D01*
G01*
X76136400Y64496000D02*
G75*
G02*
X76306400Y64496000I85000J0D01*
G01*
X76481000Y68306000D02*
G75*
G02*
X76311000Y68306000I-85000J0D01*
G01*
X76311000Y68306000D02*
G75*
G02*
X76481000Y68306000I85000J0D01*
G01*
X76790060Y62591000D02*
G75*
G02*
X76620060Y62591000I-85000J0D01*
G01*
X76620060Y62591000D02*
G75*
G02*
X76790060Y62591000I85000J0D01*
G01*
X77433500Y66401000D02*
G75*
G02*
X77263500Y66401000I-85000J0D01*
G01*
X77263500Y66401000D02*
G75*
G02*
X77433500Y66401000I85000J0D01*
G01*
X77497000Y68306000D02*
G75*
G02*
X77327000Y68306000I-85000J0D01*
G01*
X77327000Y68306000D02*
G75*
G02*
X77497000Y68306000I85000J0D01*
G01*
X77909750Y64496000D02*
G75*
G02*
X77739750Y64496000I-85000J0D01*
G01*
X77739750Y64496000D02*
G75*
G02*
X77909750Y64496000I85000J0D01*
G01*
X78386000Y68306000D02*
G75*
G02*
X78216000Y68306000I-85000J0D01*
G01*
X78216000Y68306000D02*
G75*
G02*
X78386000Y68306000I85000J0D01*
G01*
X78387000Y70886000D02*
G75*
G02*
X78217000Y70886000I-85000J0D01*
G01*
X78217000Y70886000D02*
G75*
G02*
X78387000Y70886000I85000J0D01*
G01*
X78402400Y60687000D02*
G75*
G02*
X78232400Y60687000I-85000J0D01*
G01*
X78232400Y60687000D02*
G75*
G02*
X78402400Y60687000I85000J0D01*
G01*
X78449500Y66401000D02*
G75*
G02*
X78279500Y66401000I-85000J0D01*
G01*
X78279500Y66401000D02*
G75*
G02*
X78449500Y66401000I85000J0D01*
G01*
X78862250Y62591000D02*
G75*
G02*
X78692250Y62591000I-85000J0D01*
G01*
X78692250Y62591000D02*
G75*
G02*
X78862250Y62591000I85000J0D01*
G01*
X78925750Y64496000D02*
G75*
G02*
X78755750Y64496000I-85000J0D01*
G01*
X78755750Y64496000D02*
G75*
G02*
X78925750Y64496000I85000J0D01*
G01*
X79338500Y66401000D02*
G75*
G02*
X79168500Y66401000I-85000J0D01*
G01*
X79168500Y66401000D02*
G75*
G02*
X79338500Y66401000I85000J0D01*
G01*
X79402000Y68306000D02*
G75*
G02*
X79232000Y68306000I-85000J0D01*
G01*
X79232000Y68306000D02*
G75*
G02*
X79402000Y68306000I85000J0D01*
G01*
X79403000Y70886000D02*
G75*
G02*
X79233000Y70886000I-85000J0D01*
G01*
X79233000Y70886000D02*
G75*
G02*
X79403000Y70886000I85000J0D01*
G01*
X79418400Y60687000D02*
G75*
G02*
X79248400Y60687000I-85000J0D01*
G01*
X79248400Y60687000D02*
G75*
G02*
X79418400Y60687000I85000J0D01*
G01*
X79814750Y64496000D02*
G75*
G02*
X79644750Y64496000I-85000J0D01*
G01*
X79644750Y64496000D02*
G75*
G02*
X79814750Y64496000I85000J0D01*
G01*
X79878250Y62591000D02*
G75*
G02*
X79708250Y62591000I-85000J0D01*
G01*
X79708250Y62591000D02*
G75*
G02*
X79878250Y62591000I85000J0D01*
G01*
X80291000Y68306000D02*
G75*
G02*
X80121000Y68306000I-85000J0D01*
G01*
X80121000Y68306000D02*
G75*
G02*
X80291000Y68306000I85000J0D01*
G01*
X80292000Y70886000D02*
G75*
G02*
X80122000Y70886000I-85000J0D01*
G01*
X80122000Y70886000D02*
G75*
G02*
X80292000Y70886000I85000J0D01*
G01*
X80354500Y66401000D02*
G75*
G02*
X80184500Y66401000I-85000J0D01*
G01*
X80184500Y66401000D02*
G75*
G02*
X80354500Y66401000I85000J0D01*
G01*
X80767250Y62591000D02*
G75*
G02*
X80597250Y62591000I-85000J0D01*
G01*
X80597250Y62591000D02*
G75*
G02*
X80767250Y62591000I85000J0D01*
G01*
X80783650Y60687000D02*
G75*
G02*
X80613650Y60687000I-85000J0D01*
G01*
X80613650Y60687000D02*
G75*
G02*
X80783650Y60687000I85000J0D01*
G01*
X80830750Y64496000D02*
G75*
G02*
X80660750Y64496000I-85000J0D01*
G01*
X80660750Y64496000D02*
G75*
G02*
X80830750Y64496000I85000J0D01*
G01*
X81243500Y66401000D02*
G75*
G02*
X81073500Y66401000I-85000J0D01*
G01*
X81073500Y66401000D02*
G75*
G02*
X81243500Y66401000I85000J0D01*
G01*
X81307000Y68306000D02*
G75*
G02*
X81137000Y68306000I-85000J0D01*
G01*
X81137000Y68306000D02*
G75*
G02*
X81307000Y68306000I85000J0D01*
G01*
X81308000Y70886000D02*
G75*
G02*
X81138000Y70886000I-85000J0D01*
G01*
X81138000Y70886000D02*
G75*
G02*
X81308000Y70886000I85000J0D01*
G01*
X81719750Y64496000D02*
G75*
G02*
X81549750Y64496000I-85000J0D01*
G01*
X81549750Y64496000D02*
G75*
G02*
X81719750Y64496000I85000J0D01*
G01*
X81783250Y62591000D02*
G75*
G02*
X81613250Y62591000I-85000J0D01*
G01*
X81613250Y62591000D02*
G75*
G02*
X81783250Y62591000I85000J0D01*
G01*
X81799650Y60687000D02*
G75*
G02*
X81629650Y60687000I-85000J0D01*
G01*
X81629650Y60687000D02*
G75*
G02*
X81799650Y60687000I85000J0D01*
G01*
X82196000Y68306000D02*
G75*
G02*
X82026000Y68306000I-85000J0D01*
G01*
X82026000Y68306000D02*
G75*
G02*
X82196000Y68306000I85000J0D01*
G01*
X82197000Y70886000D02*
G75*
G02*
X82027000Y70886000I-85000J0D01*
G01*
X82027000Y70886000D02*
G75*
G02*
X82197000Y70886000I85000J0D01*
G01*
X82259500Y66401000D02*
G75*
G02*
X82089500Y66401000I-85000J0D01*
G01*
X82089500Y66401000D02*
G75*
G02*
X82259500Y66401000I85000J0D01*
G01*
X82672250Y62591000D02*
G75*
G02*
X82502250Y62591000I-85000J0D01*
G01*
X82502250Y62591000D02*
G75*
G02*
X82672250Y62591000I85000J0D01*
G01*
X82735750Y64496000D02*
G75*
G02*
X82565750Y64496000I-85000J0D01*
G01*
X82565750Y64496000D02*
G75*
G02*
X82735750Y64496000I85000J0D01*
G01*
X83148500Y66401000D02*
G75*
G02*
X82978500Y66401000I-85000J0D01*
G01*
X82978500Y66401000D02*
G75*
G02*
X83148500Y66401000I85000J0D01*
G01*
X83212000Y68306000D02*
G75*
G02*
X83042000Y68306000I-85000J0D01*
G01*
X83042000Y68306000D02*
G75*
G02*
X83212000Y68306000I85000J0D01*
G01*
X83213000Y70886000D02*
G75*
G02*
X83043000Y70886000I-85000J0D01*
G01*
X83043000Y70886000D02*
G75*
G02*
X83213000Y70886000I85000J0D01*
G01*
X83624750Y64496000D02*
G75*
G02*
X83454750Y64496000I-85000J0D01*
G01*
X83454750Y64496000D02*
G75*
G02*
X83624750Y64496000I85000J0D01*
G01*
X83688250Y62591000D02*
G75*
G02*
X83518250Y62591000I-85000J0D01*
G01*
X83518250Y62591000D02*
G75*
G02*
X83688250Y62591000I85000J0D01*
G01*
X84101000Y68306000D02*
G75*
G02*
X83931000Y68306000I-85000J0D01*
G01*
X83931000Y68306000D02*
G75*
G02*
X84101000Y68306000I85000J0D01*
G01*
X84102000Y70886000D02*
G75*
G02*
X83932000Y70886000I-85000J0D01*
G01*
X83932000Y70886000D02*
G75*
G02*
X84102000Y70886000I85000J0D01*
G01*
X84164500Y66401000D02*
G75*
G02*
X83994500Y66401000I-85000J0D01*
G01*
X83994500Y66401000D02*
G75*
G02*
X84164500Y66401000I85000J0D01*
G01*
X84577250Y62591000D02*
G75*
G02*
X84407250Y62591000I-85000J0D01*
G01*
X84407250Y62591000D02*
G75*
G02*
X84577250Y62591000I85000J0D01*
G01*
X84640750Y64496000D02*
G75*
G02*
X84470750Y64496000I-85000J0D01*
G01*
X84470750Y64496000D02*
G75*
G02*
X84640750Y64496000I85000J0D01*
G01*
X85053500Y66401000D02*
G75*
G02*
X84883500Y66401000I-85000J0D01*
G01*
X84883500Y66401000D02*
G75*
G02*
X85053500Y66401000I85000J0D01*
G01*
X85117000Y68306000D02*
G75*
G02*
X84947000Y68306000I-85000J0D01*
G01*
X84947000Y68306000D02*
G75*
G02*
X85117000Y68306000I85000J0D01*
G01*
X85118000Y70886000D02*
G75*
G02*
X84948000Y70886000I-85000J0D01*
G01*
X84948000Y70886000D02*
G75*
G02*
X85118000Y70886000I85000J0D01*
G01*
X85529750Y64496000D02*
G75*
G02*
X85359750Y64496000I-85000J0D01*
G01*
X85359750Y64496000D02*
G75*
G02*
X85529750Y64496000I85000J0D01*
G01*
X85593250Y62591000D02*
G75*
G02*
X85423250Y62591000I-85000J0D01*
G01*
X85423250Y62591000D02*
G75*
G02*
X85593250Y62591000I85000J0D01*
G01*
X86006000Y68306000D02*
G75*
G02*
X85836000Y68306000I-85000J0D01*
G01*
X85836000Y68306000D02*
G75*
G02*
X86006000Y68306000I85000J0D01*
G01*
X86069500Y66401000D02*
G75*
G02*
X85899500Y66401000I-85000J0D01*
G01*
X85899500Y66401000D02*
G75*
G02*
X86069500Y66401000I85000J0D01*
G01*
X86482250Y62591000D02*
G75*
G02*
X86312250Y62591000I-85000J0D01*
G01*
X86312250Y62591000D02*
G75*
G02*
X86482250Y62591000I85000J0D01*
G01*
X86545750Y64496000D02*
G75*
G02*
X86375750Y64496000I-85000J0D01*
G01*
X86375750Y64496000D02*
G75*
G02*
X86545750Y64496000I85000J0D01*
G01*
X86958500Y66401000D02*
G75*
G02*
X86788500Y66401000I-85000J0D01*
G01*
X86788500Y66401000D02*
G75*
G02*
X86958500Y66401000I85000J0D01*
G01*
X86960000Y70886000D02*
G75*
G02*
X86790000Y70886000I-85000J0D01*
G01*
X86790000Y70886000D02*
G75*
G02*
X86960000Y70886000I85000J0D01*
G01*
X87022000Y68306000D02*
G75*
G02*
X86852000Y68306000I-85000J0D01*
G01*
X86852000Y68306000D02*
G75*
G02*
X87022000Y68306000I85000J0D01*
G01*
X87434750Y64496000D02*
G75*
G02*
X87264750Y64496000I-85000J0D01*
G01*
X87264750Y64496000D02*
G75*
G02*
X87434750Y64496000I85000J0D01*
G01*
X87498250Y62591000D02*
G75*
G02*
X87328250Y62591000I-85000J0D01*
G01*
X87328250Y62591000D02*
G75*
G02*
X87498250Y62591000I85000J0D01*
G01*
X87911000Y68306000D02*
G75*
G02*
X87741000Y68306000I-85000J0D01*
G01*
X87741000Y68306000D02*
G75*
G02*
X87911000Y68306000I85000J0D01*
G01*
X87927400Y60687000D02*
G75*
G02*
X87757400Y60687000I-85000J0D01*
G01*
X87757400Y60687000D02*
G75*
G02*
X87927400Y60687000I85000J0D01*
G01*
X87974500Y66401000D02*
G75*
G02*
X87804500Y66401000I-85000J0D01*
G01*
X87804500Y66401000D02*
G75*
G02*
X87974500Y66401000I85000J0D01*
G01*
X87976000Y70886000D02*
G75*
G02*
X87806000Y70886000I-85000J0D01*
G01*
X87806000Y70886000D02*
G75*
G02*
X87976000Y70886000I85000J0D01*
G01*
X88387250Y62591000D02*
G75*
G02*
X88217250Y62591000I-85000J0D01*
G01*
X88217250Y62591000D02*
G75*
G02*
X88387250Y62591000I85000J0D01*
G01*
X88450750Y64496000D02*
G75*
G02*
X88280750Y64496000I-85000J0D01*
G01*
X88280750Y64496000D02*
G75*
G02*
X88450750Y64496000I85000J0D01*
G01*
X88863500Y66401000D02*
G75*
G02*
X88693500Y66401000I-85000J0D01*
G01*
X88693500Y66401000D02*
G75*
G02*
X88863500Y66401000I85000J0D01*
G01*
X88865000Y70886000D02*
G75*
G02*
X88695000Y70886000I-85000J0D01*
G01*
X88695000Y70886000D02*
G75*
G02*
X88865000Y70886000I85000J0D01*
G01*
X88927000Y68306000D02*
G75*
G02*
X88757000Y68306000I-85000J0D01*
G01*
X88757000Y68306000D02*
G75*
G02*
X88927000Y68306000I85000J0D01*
G01*
X88943400Y60687000D02*
G75*
G02*
X88773400Y60687000I-85000J0D01*
G01*
X88773400Y60687000D02*
G75*
G02*
X88943400Y60687000I85000J0D01*
G01*
X89339750Y64496000D02*
G75*
G02*
X89169750Y64496000I-85000J0D01*
G01*
X89169750Y64496000D02*
G75*
G02*
X89339750Y64496000I85000J0D01*
G01*
X89403250Y62591000D02*
G75*
G02*
X89233250Y62591000I-85000J0D01*
G01*
X89233250Y62591000D02*
G75*
G02*
X89403250Y62591000I85000J0D01*
G01*
X89816000Y68306000D02*
G75*
G02*
X89646000Y68306000I-85000J0D01*
G01*
X89646000Y68306000D02*
G75*
G02*
X89816000Y68306000I85000J0D01*
G01*
X89879500Y66401000D02*
G75*
G02*
X89709500Y66401000I-85000J0D01*
G01*
X89709500Y66401000D02*
G75*
G02*
X89879500Y66401000I85000J0D01*
G01*
X89881000Y70886000D02*
G75*
G02*
X89711000Y70886000I-85000J0D01*
G01*
X89711000Y70886000D02*
G75*
G02*
X89881000Y70886000I85000J0D01*
G01*
X90292250Y62591000D02*
G75*
G02*
X90122250Y62591000I-85000J0D01*
G01*
X90122250Y62591000D02*
G75*
G02*
X90292250Y62591000I85000J0D01*
G01*
X90355750Y64496000D02*
G75*
G02*
X90185750Y64496000I-85000J0D01*
G01*
X90185750Y64496000D02*
G75*
G02*
X90355750Y64496000I85000J0D01*
G01*
X90768500Y66401000D02*
G75*
G02*
X90598500Y66401000I-85000J0D01*
G01*
X90598500Y66401000D02*
G75*
G02*
X90768500Y66401000I85000J0D01*
G01*
X90770000Y70886000D02*
G75*
G02*
X90600000Y70886000I-85000J0D01*
G01*
X90600000Y70886000D02*
G75*
G02*
X90770000Y70886000I85000J0D01*
G01*
X90832000Y68306000D02*
G75*
G02*
X90662000Y68306000I-85000J0D01*
G01*
X90662000Y68306000D02*
G75*
G02*
X90832000Y68306000I85000J0D01*
G01*
X91244750Y64496000D02*
G75*
G02*
X91074750Y64496000I-85000J0D01*
G01*
X91074750Y64496000D02*
G75*
G02*
X91244750Y64496000I85000J0D01*
G01*
X91308250Y62591000D02*
G75*
G02*
X91138250Y62591000I-85000J0D01*
G01*
X91138250Y62591000D02*
G75*
G02*
X91308250Y62591000I85000J0D01*
G01*
X91721000Y68306000D02*
G75*
G02*
X91551000Y68306000I-85000J0D01*
G01*
X91551000Y68306000D02*
G75*
G02*
X91721000Y68306000I85000J0D01*
G01*
X91784500Y66401000D02*
G75*
G02*
X91614500Y66401000I-85000J0D01*
G01*
X91614500Y66401000D02*
G75*
G02*
X91784500Y66401000I85000J0D01*
G01*
X91786000Y70886000D02*
G75*
G02*
X91616000Y70886000I-85000J0D01*
G01*
X91616000Y70886000D02*
G75*
G02*
X91786000Y70886000I85000J0D01*
G01*
X92197250Y62591000D02*
G75*
G02*
X92027250Y62591000I-85000J0D01*
G01*
X92027250Y62591000D02*
G75*
G02*
X92197250Y62591000I85000J0D01*
G01*
X92260750Y64496000D02*
G75*
G02*
X92090750Y64496000I-85000J0D01*
G01*
X92090750Y64496000D02*
G75*
G02*
X92260750Y64496000I85000J0D01*
G01*
X92673500Y66401000D02*
G75*
G02*
X92503500Y66401000I-85000J0D01*
G01*
X92503500Y66401000D02*
G75*
G02*
X92673500Y66401000I85000J0D01*
G01*
X92675000Y70886000D02*
G75*
G02*
X92505000Y70886000I-85000J0D01*
G01*
X92505000Y70886000D02*
G75*
G02*
X92675000Y70886000I85000J0D01*
G01*
X92737000Y68306000D02*
G75*
G02*
X92567000Y68306000I-85000J0D01*
G01*
X92567000Y68306000D02*
G75*
G02*
X92737000Y68306000I85000J0D01*
G01*
X93149750Y64496000D02*
G75*
G02*
X92979750Y64496000I-85000J0D01*
G01*
X92979750Y64496000D02*
G75*
G02*
X93149750Y64496000I85000J0D01*
G01*
X93213250Y62591000D02*
G75*
G02*
X93043250Y62591000I-85000J0D01*
G01*
X93043250Y62591000D02*
G75*
G02*
X93213250Y62591000I85000J0D01*
G01*
X93626000Y68306000D02*
G75*
G02*
X93456000Y68306000I-85000J0D01*
G01*
X93456000Y68306000D02*
G75*
G02*
X93626000Y68306000I85000J0D01*
G01*
X93689500Y66401000D02*
G75*
G02*
X93519500Y66401000I-85000J0D01*
G01*
X93519500Y66401000D02*
G75*
G02*
X93689500Y66401000I85000J0D01*
G01*
X93691000Y70886000D02*
G75*
G02*
X93521000Y70886000I-85000J0D01*
G01*
X93521000Y70886000D02*
G75*
G02*
X93691000Y70886000I85000J0D01*
G01*
X94102250Y62591000D02*
G75*
G02*
X93932250Y62591000I-85000J0D01*
G01*
X93932250Y62591000D02*
G75*
G02*
X94102250Y62591000I85000J0D01*
G01*
X94165750Y64496000D02*
G75*
G02*
X93995750Y64496000I-85000J0D01*
G01*
X93995750Y64496000D02*
G75*
G02*
X94165750Y64496000I85000J0D01*
G01*
X94578500Y66401000D02*
G75*
G02*
X94408500Y66401000I-85000J0D01*
G01*
X94408500Y66401000D02*
G75*
G02*
X94578500Y66401000I85000J0D01*
G01*
X94642000Y68306000D02*
G75*
G02*
X94472000Y68306000I-85000J0D01*
G01*
X94472000Y68306000D02*
G75*
G02*
X94642000Y68306000I85000J0D01*
G01*
X95054750Y64496000D02*
G75*
G02*
X94884750Y64496000I-85000J0D01*
G01*
X94884750Y64496000D02*
G75*
G02*
X95054750Y64496000I85000J0D01*
G01*
X95071150Y60687000D02*
G75*
G02*
X94901150Y60687000I-85000J0D01*
G01*
X94901150Y60687000D02*
G75*
G02*
X95071150Y60687000I85000J0D01*
G01*
X95118250Y62591000D02*
G75*
G02*
X94948250Y62591000I-85000J0D01*
G01*
X94948250Y62591000D02*
G75*
G02*
X95118250Y62591000I85000J0D01*
G01*
X95531000Y68306000D02*
G75*
G02*
X95361000Y68306000I-85000J0D01*
G01*
X95361000Y68306000D02*
G75*
G02*
X95531000Y68306000I85000J0D01*
G01*
X95532000Y70886000D02*
G75*
G02*
X95362000Y70886000I-85000J0D01*
G01*
X95362000Y70886000D02*
G75*
G02*
X95532000Y70886000I85000J0D01*
G01*
X95594500Y66401000D02*
G75*
G02*
X95424500Y66401000I-85000J0D01*
G01*
X95424500Y66401000D02*
G75*
G02*
X95594500Y66401000I85000J0D01*
G01*
X96007250Y62591000D02*
G75*
G02*
X95837250Y62591000I-85000J0D01*
G01*
X95837250Y62591000D02*
G75*
G02*
X96007250Y62591000I85000J0D01*
G01*
X96070750Y64496000D02*
G75*
G02*
X95900750Y64496000I-85000J0D01*
G01*
X95900750Y64496000D02*
G75*
G02*
X96070750Y64496000I85000J0D01*
G01*
X96087150Y60687000D02*
G75*
G02*
X95917150Y60687000I-85000J0D01*
G01*
X95917150Y60687000D02*
G75*
G02*
X96087150Y60687000I85000J0D01*
G01*
X96483500Y66401000D02*
G75*
G02*
X96313500Y66401000I-85000J0D01*
G01*
X96313500Y66401000D02*
G75*
G02*
X96483500Y66401000I85000J0D01*
G01*
X96547000Y68306000D02*
G75*
G02*
X96377000Y68306000I-85000J0D01*
G01*
X96377000Y68306000D02*
G75*
G02*
X96547000Y68306000I85000J0D01*
G01*
X96548000Y70886000D02*
G75*
G02*
X96378000Y70886000I-85000J0D01*
G01*
X96378000Y70886000D02*
G75*
G02*
X96548000Y70886000I85000J0D01*
G01*
X96959750Y64496000D02*
G75*
G02*
X96789750Y64496000I-85000J0D01*
G01*
X96789750Y64496000D02*
G75*
G02*
X96959750Y64496000I85000J0D01*
G01*
X97023250Y62591000D02*
G75*
G02*
X96853250Y62591000I-85000J0D01*
G01*
X96853250Y62591000D02*
G75*
G02*
X97023250Y62591000I85000J0D01*
G01*
X97436000Y68306000D02*
G75*
G02*
X97266000Y68306000I-85000J0D01*
G01*
X97266000Y68306000D02*
G75*
G02*
X97436000Y68306000I85000J0D01*
G01*
X97437000Y70886000D02*
G75*
G02*
X97267000Y70886000I-85000J0D01*
G01*
X97267000Y70886000D02*
G75*
G02*
X97437000Y70886000I85000J0D01*
G01*
X97452400Y60687000D02*
G75*
G02*
X97282400Y60687000I-85000J0D01*
G01*
X97282400Y60687000D02*
G75*
G02*
X97452400Y60687000I85000J0D01*
G01*
X97499500Y66401000D02*
G75*
G02*
X97329500Y66401000I-85000J0D01*
G01*
X97329500Y66401000D02*
G75*
G02*
X97499500Y66401000I85000J0D01*
G01*
X97975750Y64496000D02*
G75*
G02*
X97805750Y64496000I-85000J0D01*
G01*
X97805750Y64496000D02*
G75*
G02*
X97975750Y64496000I85000J0D01*
G01*
X98388500Y66401000D02*
G75*
G02*
X98218500Y66401000I-85000J0D01*
G01*
X98218500Y66401000D02*
G75*
G02*
X98388500Y66401000I85000J0D01*
G01*
X98452000Y68306000D02*
G75*
G02*
X98282000Y68306000I-85000J0D01*
G01*
X98282000Y68306000D02*
G75*
G02*
X98452000Y68306000I85000J0D01*
G01*
X98453000Y70886000D02*
G75*
G02*
X98283000Y70886000I-85000J0D01*
G01*
X98283000Y70886000D02*
G75*
G02*
X98453000Y70886000I85000J0D01*
G01*
X98468400Y60687000D02*
G75*
G02*
X98298400Y60687000I-85000J0D01*
G01*
X98298400Y60687000D02*
G75*
G02*
X98468400Y60687000I85000J0D01*
G01*
X99342000Y70886000D02*
G75*
G02*
X99172000Y70886000I-85000J0D01*
G01*
X99172000Y70886000D02*
G75*
G02*
X99342000Y70886000I85000J0D01*
G01*
X99404500Y66401000D02*
G75*
G02*
X99234500Y66401000I-85000J0D01*
G01*
X99234500Y66401000D02*
G75*
G02*
X99404500Y66401000I85000J0D01*
G01*
X99579150Y62591000D02*
G75*
G02*
X99409150Y62591000I-85000J0D01*
G01*
X99409150Y62591000D02*
G75*
G02*
X99579150Y62591000I85000J0D01*
G01*
X100062810Y64496000D02*
G75*
G02*
X99892810Y64496000I-85000J0D01*
G01*
X99892810Y64496000D02*
G75*
G02*
X100062810Y64496000I85000J0D01*
G01*
X100293500Y68306000D02*
G75*
G02*
X100123500Y68306000I-85000J0D01*
G01*
X100123500Y68306000D02*
G75*
G02*
X100293500Y68306000I85000J0D01*
G01*
X100358000Y70886000D02*
G75*
G02*
X100188000Y70886000I-85000J0D01*
G01*
X100188000Y70886000D02*
G75*
G02*
X100358000Y70886000I85000J0D01*
G01*
X100595150Y62591000D02*
G75*
G02*
X100425150Y62591000I-85000J0D01*
G01*
X100425150Y62591000D02*
G75*
G02*
X100595150Y62591000I85000J0D01*
G01*
X100769800Y66401000D02*
G75*
G02*
X100599800Y66401000I-85000J0D01*
G01*
X100599800Y66401000D02*
G75*
G02*
X100769800Y66401000I85000J0D01*
G01*
X101008000Y60685000D02*
G75*
G02*
X100838000Y60685000I-85000J0D01*
G01*
X100838000Y60685000D02*
G75*
G02*
X101008000Y60685000I85000J0D01*
G01*
X101078810Y64496000D02*
G75*
G02*
X100908810Y64496000I-85000J0D01*
G01*
X100908810Y64496000D02*
G75*
G02*
X101078810Y64496000I85000J0D01*
G01*
X101247000Y70886000D02*
G75*
G02*
X101077000Y70886000I-85000J0D01*
G01*
X101077000Y70886000D02*
G75*
G02*
X101247000Y70886000I85000J0D01*
G01*
X101309500Y68306000D02*
G75*
G02*
X101139500Y68306000I-85000J0D01*
G01*
X101139500Y68306000D02*
G75*
G02*
X101309500Y68306000I85000J0D01*
G01*
X101785800Y66401000D02*
G75*
G02*
X101615800Y66401000I-85000J0D01*
G01*
X101615800Y66401000D02*
G75*
G02*
X101785800Y66401000I85000J0D01*
G01*
X102024000Y60685000D02*
G75*
G02*
X101854000Y60685000I-85000J0D01*
G01*
X101854000Y60685000D02*
G75*
G02*
X102024000Y60685000I85000J0D01*
G01*
X102263000Y70886000D02*
G75*
G02*
X102093000Y70886000I-85000J0D01*
G01*
X102093000Y70886000D02*
G75*
G02*
X102263000Y70886000I85000J0D01*
G01*
X103628000Y70885000D02*
G75*
G02*
X103458000Y70885000I-85000J0D01*
G01*
X103458000Y70885000D02*
G75*
G02*
X103628000Y70885000I85000J0D01*
G01*
X103628000Y68305000D02*
G75*
G02*
X103458000Y68305000I-85000J0D01*
G01*
X103458000Y68305000D02*
G75*
G02*
X103628000Y68305000I85000J0D01*
G01*
X103628000Y66400000D02*
G75*
G02*
X103458000Y66400000I-85000J0D01*
G01*
X103458000Y66400000D02*
G75*
G02*
X103628000Y66400000I85000J0D01*
G01*
X103628000Y60686000D02*
G75*
G02*
X103458000Y60686000I-85000J0D01*
G01*
X103458000Y60686000D02*
G75*
G02*
X103628000Y60686000I85000J0D01*
G01*
X104644000Y70885000D02*
G75*
G02*
X104474000Y70885000I-85000J0D01*
G01*
X104474000Y70885000D02*
G75*
G02*
X104644000Y70885000I85000J0D01*
G01*
X104644000Y68305000D02*
G75*
G02*
X104474000Y68305000I-85000J0D01*
G01*
X104474000Y68305000D02*
G75*
G02*
X104644000Y68305000I85000J0D01*
G01*
X104644000Y66400000D02*
G75*
G02*
X104474000Y66400000I-85000J0D01*
G01*
X104474000Y66400000D02*
G75*
G02*
X104644000Y66400000I85000J0D01*
G01*
X104644000Y60686000D02*
G75*
G02*
X104474000Y60686000I-85000J0D01*
G01*
X104474000Y60686000D02*
G75*
G02*
X104644000Y60686000I85000J0D01*
G01*
X105533000Y70885000D02*
G75*
G02*
X105363000Y70885000I-85000J0D01*
G01*
X105363000Y70885000D02*
G75*
G02*
X105533000Y70885000I85000J0D01*
G01*
X105533000Y68305000D02*
G75*
G02*
X105363000Y68305000I-85000J0D01*
G01*
X105363000Y68305000D02*
G75*
G02*
X105533000Y68305000I85000J0D01*
G01*
X105533000Y66400000D02*
G75*
G02*
X105363000Y66400000I-85000J0D01*
G01*
X105363000Y66400000D02*
G75*
G02*
X105533000Y66400000I85000J0D01*
G01*
X105533000Y62591000D02*
G75*
G02*
X105363000Y62591000I-85000J0D01*
G01*
X105363000Y62591000D02*
G75*
G02*
X105533000Y62591000I85000J0D01*
G01*
X105533000Y60686000D02*
G75*
G02*
X105363000Y60686000I-85000J0D01*
G01*
X105363000Y60686000D02*
G75*
G02*
X105533000Y60686000I85000J0D01*
G01*
X106549000Y70885000D02*
G75*
G02*
X106379000Y70885000I-85000J0D01*
G01*
X106379000Y70885000D02*
G75*
G02*
X106549000Y70885000I85000J0D01*
G01*
X106549000Y68305000D02*
G75*
G02*
X106379000Y68305000I-85000J0D01*
G01*
X106379000Y68305000D02*
G75*
G02*
X106549000Y68305000I85000J0D01*
G01*
X106549000Y66400000D02*
G75*
G02*
X106379000Y66400000I-85000J0D01*
G01*
X106379000Y66400000D02*
G75*
G02*
X106549000Y66400000I85000J0D01*
G01*
X106549000Y62591000D02*
G75*
G02*
X106379000Y62591000I-85000J0D01*
G01*
X106379000Y62591000D02*
G75*
G02*
X106549000Y62591000I85000J0D01*
G01*
X106549000Y60686000D02*
G75*
G02*
X106379000Y60686000I-85000J0D01*
G01*
X106379000Y60686000D02*
G75*
G02*
X106549000Y60686000I85000J0D01*
G01*
X107438000Y70885000D02*
G75*
G02*
X107268000Y70885000I-85000J0D01*
G01*
X107268000Y70885000D02*
G75*
G02*
X107438000Y70885000I85000J0D01*
G01*
X107438000Y68305000D02*
G75*
G02*
X107268000Y68305000I-85000J0D01*
G01*
X107268000Y68305000D02*
G75*
G02*
X107438000Y68305000I85000J0D01*
G01*
X107438000Y66400000D02*
G75*
G02*
X107268000Y66400000I-85000J0D01*
G01*
X107268000Y66400000D02*
G75*
G02*
X107438000Y66400000I85000J0D01*
G01*
X107438000Y60686000D02*
G75*
G02*
X107268000Y60686000I-85000J0D01*
G01*
X107268000Y60686000D02*
G75*
G02*
X107438000Y60686000I85000J0D01*
G01*
X108454000Y70885000D02*
G75*
G02*
X108284000Y70885000I-85000J0D01*
G01*
X108284000Y70885000D02*
G75*
G02*
X108454000Y70885000I85000J0D01*
G01*
X108454000Y68305000D02*
G75*
G02*
X108284000Y68305000I-85000J0D01*
G01*
X108284000Y68305000D02*
G75*
G02*
X108454000Y68305000I85000J0D01*
G01*
X108454000Y66400000D02*
G75*
G02*
X108284000Y66400000I-85000J0D01*
G01*
X108284000Y66400000D02*
G75*
G02*
X108454000Y66400000I85000J0D01*
G01*
X108454000Y60686000D02*
G75*
G02*
X108284000Y60686000I-85000J0D01*
G01*
X108284000Y60686000D02*
G75*
G02*
X108454000Y60686000I85000J0D01*
G01*
D14*
X75003260Y63441900D02*
X75003260Y63137100D01*
X74850860Y63289500D02*
X75155660Y63289500D01*
X77390860Y63441900D02*
X77390860Y63137100D01*
X77238460Y63289500D02*
X77543260Y63289500D01*
X82635400Y60140900D02*
X82635400Y59836100D01*
X82483000Y59988500D02*
X82787800Y59988500D01*
X94065400Y60140900D02*
X94065400Y59836100D01*
X93913000Y59988500D02*
X94217800Y59988500D01*
X98808350Y63441900D02*
X98808350Y63137100D01*
X98655950Y63289500D02*
X98960750Y63289500D01*
X99292010Y63949900D02*
X99292010Y63645100D01*
X99139610Y63797500D02*
X99444410Y63797500D01*
X99522700Y69156900D02*
X99522700Y68852100D01*
X99370300Y69004500D02*
X99675100Y69004500D01*
X101195950Y63441900D02*
X101195950Y63137100D01*
X101043550Y63289500D02*
X101348350Y63289500D01*
X101679610Y63949900D02*
X101679610Y63645100D01*
X101527210Y63797500D02*
X101832010Y63797500D01*
X101910300Y69156900D02*
X101910300Y68852100D01*
X101757900Y69004500D02*
X102062700Y69004500D01*
D15*
X75144251Y61624509D02*
X75144251Y61906491D01*
X74862269Y61906491D01*
X74862269Y61624509D01*
X75144251Y61624509D01*
X77531851Y61624509D02*
X77531851Y61906491D01*
X77249869Y61906491D01*
X77249869Y61624509D01*
X77531851Y61624509D01*
X82776391Y61371509D02*
X82776391Y61653491D01*
X82494409Y61653491D01*
X82494409Y61371509D01*
X82776391Y61371509D01*
X94206391Y61371509D02*
X94206391Y61653491D01*
X93924409Y61653491D01*
X93924409Y61371509D01*
X94206391Y61371509D01*
X98949341Y61624509D02*
X98949341Y61906491D01*
X98667359Y61906491D01*
X98667359Y61624509D01*
X98949341Y61624509D01*
X99433001Y65180509D02*
X99433001Y65462491D01*
X99151019Y65462491D01*
X99151019Y65180509D01*
X99433001Y65180509D01*
X99663691Y67339509D02*
X99663691Y67621491D01*
X99381709Y67621491D01*
X99381709Y67339509D01*
X99663691Y67339509D01*
X101336941Y61624509D02*
X101336941Y61906491D01*
X101054959Y61906491D01*
X101054959Y61624509D01*
X101336941Y61624509D01*
X101820601Y65180509D02*
X101820601Y65462491D01*
X101538619Y65462491D01*
X101538619Y65180509D01*
X101820601Y65180509D01*
X102051291Y67339509D02*
X102051291Y67621491D01*
X101769309Y67621491D01*
X101769309Y67339509D01*
X102051291Y67339509D01*
D16*
X74999000Y68106000D02*
X75199000Y68306000D01*
X74999000Y68506000D01*
X74799000Y68306000D01*
X74999000Y68106000D01*
X75001000Y70685000D02*
X75201000Y70885000D01*
X75001000Y71085000D01*
X74801000Y70885000D01*
X75001000Y70685000D01*
X75237100Y64296000D02*
X75437100Y64496000D01*
X75237100Y64696000D01*
X75037100Y64496000D01*
X75237100Y64296000D01*
X75244000Y60487000D02*
X75444000Y60687000D01*
X75244000Y60887000D01*
X75044000Y60687000D01*
X75244000Y60487000D01*
X75475300Y66201000D02*
X75675300Y66401000D01*
X75475300Y66601000D01*
X75275300Y66401000D01*
X75475300Y66201000D01*
X75713400Y64296000D02*
X75913400Y64496000D01*
X75713400Y64696000D01*
X75513400Y64496000D01*
X75713400Y64296000D01*
X76197060Y62391000D02*
X76397060Y62591000D01*
X76197060Y62791000D01*
X75997060Y62591000D01*
X76197060Y62391000D01*
X76904000Y68106000D02*
X77104000Y68306000D01*
X76904000Y68506000D01*
X76704000Y68306000D01*
X76904000Y68106000D01*
X77856500Y66201000D02*
X78056500Y66401000D01*
X77856500Y66601000D01*
X77656500Y66401000D01*
X77856500Y66201000D01*
X78332750Y64296000D02*
X78532750Y64496000D01*
X78332750Y64696000D01*
X78132750Y64496000D01*
X78332750Y64296000D01*
X78809000Y68106000D02*
X79009000Y68306000D01*
X78809000Y68506000D01*
X78609000Y68306000D01*
X78809000Y68106000D01*
X78810000Y70686000D02*
X79010000Y70886000D01*
X78810000Y71086000D01*
X78610000Y70886000D01*
X78810000Y70686000D01*
X78825400Y60487000D02*
X79025400Y60687000D01*
X78825400Y60887000D01*
X78625400Y60687000D01*
X78825400Y60487000D01*
X79285250Y62391000D02*
X79485250Y62591000D01*
X79285250Y62791000D01*
X79085250Y62591000D01*
X79285250Y62391000D01*
X79761500Y66201000D02*
X79961500Y66401000D01*
X79761500Y66601000D01*
X79561500Y66401000D01*
X79761500Y66201000D01*
X80237750Y64296000D02*
X80437750Y64496000D01*
X80237750Y64696000D01*
X80037750Y64496000D01*
X80237750Y64296000D01*
X80714000Y68106000D02*
X80914000Y68306000D01*
X80714000Y68506000D01*
X80514000Y68306000D01*
X80714000Y68106000D01*
X80715000Y70686000D02*
X80915000Y70886000D01*
X80715000Y71086000D01*
X80515000Y70886000D01*
X80715000Y70686000D01*
X81190250Y62391000D02*
X81390250Y62591000D01*
X81190250Y62791000D01*
X80990250Y62591000D01*
X81190250Y62391000D01*
X81206650Y60487000D02*
X81406650Y60687000D01*
X81206650Y60887000D01*
X81006650Y60687000D01*
X81206650Y60487000D01*
X81666500Y66201000D02*
X81866500Y66401000D01*
X81666500Y66601000D01*
X81466500Y66401000D01*
X81666500Y66201000D01*
X82142750Y64296000D02*
X82342750Y64496000D01*
X82142750Y64696000D01*
X81942750Y64496000D01*
X82142750Y64296000D01*
X82619000Y68106000D02*
X82819000Y68306000D01*
X82619000Y68506000D01*
X82419000Y68306000D01*
X82619000Y68106000D01*
X82620000Y70686000D02*
X82820000Y70886000D01*
X82620000Y71086000D01*
X82420000Y70886000D01*
X82620000Y70686000D01*
X83095250Y62391000D02*
X83295250Y62591000D01*
X83095250Y62791000D01*
X82895250Y62591000D01*
X83095250Y62391000D01*
X83571500Y66201000D02*
X83771500Y66401000D01*
X83571500Y66601000D01*
X83371500Y66401000D01*
X83571500Y66201000D01*
X84047750Y64296000D02*
X84247750Y64496000D01*
X84047750Y64696000D01*
X83847750Y64496000D01*
X84047750Y64296000D01*
X84524000Y68106000D02*
X84724000Y68306000D01*
X84524000Y68506000D01*
X84324000Y68306000D01*
X84524000Y68106000D01*
X84525000Y70686000D02*
X84725000Y70886000D01*
X84525000Y71086000D01*
X84325000Y70886000D01*
X84525000Y70686000D01*
X85000250Y62391000D02*
X85200250Y62591000D01*
X85000250Y62791000D01*
X84800250Y62591000D01*
X85000250Y62391000D01*
X85476500Y66201000D02*
X85676500Y66401000D01*
X85476500Y66601000D01*
X85276500Y66401000D01*
X85476500Y66201000D01*
X85952750Y64296000D02*
X86152750Y64496000D01*
X85952750Y64696000D01*
X85752750Y64496000D01*
X85952750Y64296000D01*
X86429000Y68106000D02*
X86629000Y68306000D01*
X86429000Y68506000D01*
X86229000Y68306000D01*
X86429000Y68106000D01*
X86905250Y62391000D02*
X87105250Y62591000D01*
X86905250Y62791000D01*
X86705250Y62591000D01*
X86905250Y62391000D01*
X87381500Y66201000D02*
X87581500Y66401000D01*
X87381500Y66601000D01*
X87181500Y66401000D01*
X87381500Y66201000D01*
X87383000Y70686000D02*
X87583000Y70886000D01*
X87383000Y71086000D01*
X87183000Y70886000D01*
X87383000Y70686000D01*
X87857750Y64296000D02*
X88057750Y64496000D01*
X87857750Y64696000D01*
X87657750Y64496000D01*
X87857750Y64296000D01*
X88334000Y68106000D02*
X88534000Y68306000D01*
X88334000Y68506000D01*
X88134000Y68306000D01*
X88334000Y68106000D01*
X88350400Y60487000D02*
X88550400Y60687000D01*
X88350400Y60887000D01*
X88150400Y60687000D01*
X88350400Y60487000D01*
X88810250Y62391000D02*
X89010250Y62591000D01*
X88810250Y62791000D01*
X88610250Y62591000D01*
X88810250Y62391000D01*
X89286500Y66201000D02*
X89486500Y66401000D01*
X89286500Y66601000D01*
X89086500Y66401000D01*
X89286500Y66201000D01*
X89288000Y70686000D02*
X89488000Y70886000D01*
X89288000Y71086000D01*
X89088000Y70886000D01*
X89288000Y70686000D01*
X89762750Y64296000D02*
X89962750Y64496000D01*
X89762750Y64696000D01*
X89562750Y64496000D01*
X89762750Y64296000D01*
X90239000Y68106000D02*
X90439000Y68306000D01*
X90239000Y68506000D01*
X90039000Y68306000D01*
X90239000Y68106000D01*
X90715250Y62391000D02*
X90915250Y62591000D01*
X90715250Y62791000D01*
X90515250Y62591000D01*
X90715250Y62391000D01*
X91191500Y66201000D02*
X91391500Y66401000D01*
X91191500Y66601000D01*
X90991500Y66401000D01*
X91191500Y66201000D01*
X91193000Y70686000D02*
X91393000Y70886000D01*
X91193000Y71086000D01*
X90993000Y70886000D01*
X91193000Y70686000D01*
X91667750Y64296000D02*
X91867750Y64496000D01*
X91667750Y64696000D01*
X91467750Y64496000D01*
X91667750Y64296000D01*
X92144000Y68106000D02*
X92344000Y68306000D01*
X92144000Y68506000D01*
X91944000Y68306000D01*
X92144000Y68106000D01*
X92620250Y62391000D02*
X92820250Y62591000D01*
X92620250Y62791000D01*
X92420250Y62591000D01*
X92620250Y62391000D01*
X93096500Y66201000D02*
X93296500Y66401000D01*
X93096500Y66601000D01*
X92896500Y66401000D01*
X93096500Y66201000D01*
X93098000Y70686000D02*
X93298000Y70886000D01*
X93098000Y71086000D01*
X92898000Y70886000D01*
X93098000Y70686000D01*
X93572750Y64296000D02*
X93772750Y64496000D01*
X93572750Y64696000D01*
X93372750Y64496000D01*
X93572750Y64296000D01*
X94049000Y68106000D02*
X94249000Y68306000D01*
X94049000Y68506000D01*
X93849000Y68306000D01*
X94049000Y68106000D01*
X94525250Y62391000D02*
X94725250Y62591000D01*
X94525250Y62791000D01*
X94325250Y62591000D01*
X94525250Y62391000D01*
X95001500Y66201000D02*
X95201500Y66401000D01*
X95001500Y66601000D01*
X94801500Y66401000D01*
X95001500Y66201000D01*
X95477750Y64296000D02*
X95677750Y64496000D01*
X95477750Y64696000D01*
X95277750Y64496000D01*
X95477750Y64296000D01*
X95494150Y60487000D02*
X95694150Y60687000D01*
X95494150Y60887000D01*
X95294150Y60687000D01*
X95494150Y60487000D01*
X95954000Y68106000D02*
X96154000Y68306000D01*
X95954000Y68506000D01*
X95754000Y68306000D01*
X95954000Y68106000D01*
X95955000Y70686000D02*
X96155000Y70886000D01*
X95955000Y71086000D01*
X95755000Y70886000D01*
X95955000Y70686000D01*
X96430250Y62391000D02*
X96630250Y62591000D01*
X96430250Y62791000D01*
X96230250Y62591000D01*
X96430250Y62391000D01*
X96906500Y66201000D02*
X97106500Y66401000D01*
X96906500Y66601000D01*
X96706500Y66401000D01*
X96906500Y66201000D01*
X97382750Y64296000D02*
X97582750Y64496000D01*
X97382750Y64696000D01*
X97182750Y64496000D01*
X97382750Y64296000D01*
X97859000Y68106000D02*
X98059000Y68306000D01*
X97859000Y68506000D01*
X97659000Y68306000D01*
X97859000Y68106000D01*
X97860000Y70686000D02*
X98060000Y70886000D01*
X97860000Y71086000D01*
X97660000Y70886000D01*
X97860000Y70686000D01*
X97875400Y60487000D02*
X98075400Y60687000D01*
X97875400Y60887000D01*
X97675400Y60687000D01*
X97875400Y60487000D01*
X98811500Y66201000D02*
X99011500Y66401000D01*
X98811500Y66601000D01*
X98611500Y66401000D01*
X98811500Y66201000D01*
X99765000Y70686000D02*
X99965000Y70886000D01*
X99765000Y71086000D01*
X99565000Y70886000D01*
X99765000Y70686000D01*
X100002150Y62391000D02*
X100202150Y62591000D01*
X100002150Y62791000D01*
X99802150Y62591000D01*
X100002150Y62391000D01*
X100485810Y64296000D02*
X100685810Y64496000D01*
X100485810Y64696000D01*
X100285810Y64496000D01*
X100485810Y64296000D01*
X100716500Y68106000D02*
X100916500Y68306000D01*
X100716500Y68506000D01*
X100516500Y68306000D01*
X100716500Y68106000D01*
X101192800Y66201000D02*
X101392800Y66401000D01*
X101192800Y66601000D01*
X100992800Y66401000D01*
X101192800Y66201000D01*
X101431000Y60485000D02*
X101631000Y60685000D01*
X101431000Y60885000D01*
X101231000Y60685000D01*
X101431000Y60485000D01*
X101670000Y70686000D02*
X101870000Y70886000D01*
X101670000Y71086000D01*
X101470000Y70886000D01*
X101670000Y70686000D01*
X104051000Y70685000D02*
X104251000Y70885000D01*
X104051000Y71085000D01*
X103851000Y70885000D01*
X104051000Y70685000D01*
X104051000Y68105000D02*
X104251000Y68305000D01*
X104051000Y68505000D01*
X103851000Y68305000D01*
X104051000Y68105000D01*
X104051000Y66200000D02*
X104251000Y66400000D01*
X104051000Y66600000D01*
X103851000Y66400000D01*
X104051000Y66200000D01*
X104051000Y60486000D02*
X104251000Y60686000D01*
X104051000Y60886000D01*
X103851000Y60686000D01*
X104051000Y60486000D01*
X105956000Y70685000D02*
X106156000Y70885000D01*
X105956000Y71085000D01*
X105756000Y70885000D01*
X105956000Y70685000D01*
X105956000Y68105000D02*
X106156000Y68305000D01*
X105956000Y68505000D01*
X105756000Y68305000D01*
X105956000Y68105000D01*
X105956000Y66200000D02*
X106156000Y66400000D01*
X105956000Y66600000D01*
X105756000Y66400000D01*
X105956000Y66200000D01*
X105956000Y62391000D02*
X106156000Y62591000D01*
X105956000Y62791000D01*
X105756000Y62591000D01*
X105956000Y62391000D01*
X105956000Y60486000D02*
X106156000Y60686000D01*
X105956000Y60886000D01*
X105756000Y60686000D01*
X105956000Y60486000D01*
X107861000Y70685000D02*
X108061000Y70885000D01*
X107861000Y71085000D01*
X107661000Y70885000D01*
X107861000Y70685000D01*
X107861000Y68105000D02*
X108061000Y68305000D01*
X107861000Y68505000D01*
X107661000Y68305000D01*
X107861000Y68105000D01*
X107861000Y66200000D02*
X108061000Y66400000D01*
X107861000Y66600000D01*
X107661000Y66400000D01*
X107861000Y66200000D01*
X107861000Y60486000D02*
X108061000Y60686000D01*
X107861000Y60886000D01*
X107661000Y60686000D01*
X107861000Y60486000D01*
D11*
X74508277Y59511016D02*
X74508277Y59711016D01*
X74508277Y59711016D02*
X74555896Y59711016D01*
X74555896Y59711016D02*
X74584467Y59701492D01*
X74584467Y59701492D02*
X74603515Y59682445D01*
X74603515Y59682445D02*
X74613039Y59663397D01*
X74613039Y59663397D02*
X74622563Y59625302D01*
X74622563Y59625302D02*
X74622563Y59596730D01*
X74622563Y59596730D02*
X74613039Y59558635D01*
X74613039Y59558635D02*
X74603515Y59539588D01*
X74603515Y59539588D02*
X74584467Y59520540D01*
X74584467Y59520540D02*
X74555896Y59511016D01*
X74555896Y59511016D02*
X74508277Y59511016D01*
X74708277Y59511016D02*
X74708277Y59644349D01*
X74708277Y59606254D02*
X74717801Y59625302D01*
X74717801Y59625302D02*
X74727324Y59634826D01*
X74727324Y59634826D02*
X74746372Y59644349D01*
X74746372Y59644349D02*
X74765420Y59644349D01*
X74832086Y59511016D02*
X74832086Y59644349D01*
X74832086Y59711016D02*
X74822563Y59701492D01*
X74822563Y59701492D02*
X74832086Y59691968D01*
X74832086Y59691968D02*
X74841610Y59701492D01*
X74841610Y59701492D02*
X74832086Y59711016D01*
X74832086Y59711016D02*
X74832086Y59691968D01*
X74955896Y59511016D02*
X74936848Y59520540D01*
X74936848Y59520540D02*
X74927324Y59539588D01*
X74927324Y59539588D02*
X74927324Y59711016D01*
X75060658Y59511016D02*
X75041610Y59520540D01*
X75041610Y59520540D02*
X75032086Y59539588D01*
X75032086Y59539588D02*
X75032086Y59711016D01*
X75289229Y59511016D02*
X75289229Y59711016D01*
X75289229Y59711016D02*
X75355896Y59568159D01*
X75355896Y59568159D02*
X75422563Y59711016D01*
X75422563Y59711016D02*
X75422563Y59511016D01*
X75603515Y59511016D02*
X75603515Y59615778D01*
X75603515Y59615778D02*
X75593991Y59634826D01*
X75593991Y59634826D02*
X75574944Y59644349D01*
X75574944Y59644349D02*
X75536848Y59644349D01*
X75536848Y59644349D02*
X75517801Y59634826D01*
X75603515Y59520540D02*
X75584467Y59511016D01*
X75584467Y59511016D02*
X75536848Y59511016D01*
X75536848Y59511016D02*
X75517801Y59520540D01*
X75517801Y59520540D02*
X75508277Y59539588D01*
X75508277Y59539588D02*
X75508277Y59558635D01*
X75508277Y59558635D02*
X75517801Y59577683D01*
X75517801Y59577683D02*
X75536848Y59587207D01*
X75536848Y59587207D02*
X75584467Y59587207D01*
X75584467Y59587207D02*
X75603515Y59596730D01*
X75698753Y59644349D02*
X75698753Y59444349D01*
X75698753Y59634826D02*
X75717801Y59644349D01*
X75717801Y59644349D02*
X75755896Y59644349D01*
X75755896Y59644349D02*
X75774944Y59634826D01*
X75774944Y59634826D02*
X75784467Y59625302D01*
X75784467Y59625302D02*
X75793991Y59606254D01*
X75793991Y59606254D02*
X75793991Y59549111D01*
X75793991Y59549111D02*
X75784467Y59530064D01*
X75784467Y59530064D02*
X75774944Y59520540D01*
X75774944Y59520540D02*
X75755896Y59511016D01*
X75755896Y59511016D02*
X75717801Y59511016D01*
X75717801Y59511016D02*
X75698753Y59520540D01*
X75879705Y59530064D02*
X75889229Y59520540D01*
X75889229Y59520540D02*
X75879705Y59511016D01*
X75879705Y59511016D02*
X75870182Y59520540D01*
X75870182Y59520540D02*
X75879705Y59530064D01*
X75879705Y59530064D02*
X75879705Y59511016D01*
X75879705Y59634826D02*
X75889229Y59625302D01*
X75889229Y59625302D02*
X75879705Y59615778D01*
X75879705Y59615778D02*
X75870182Y59625302D01*
X75870182Y59625302D02*
X75879705Y59634826D01*
X75879705Y59634826D02*
X75879705Y59615778D01*
D12*
X74182500Y59215000D02*
X74247500Y59150000D01*
X74247500Y59215000D02*
X74182500Y59150000D01*
D11*
X74546372Y59291016D02*
X74565420Y59291016D01*
X74565420Y59291016D02*
X74584467Y59281492D01*
X74584467Y59281492D02*
X74593991Y59271968D01*
X74593991Y59271968D02*
X74603515Y59252921D01*
X74603515Y59252921D02*
X74613039Y59214826D01*
X74613039Y59214826D02*
X74613039Y59167207D01*
X74613039Y59167207D02*
X74603515Y59129111D01*
X74603515Y59129111D02*
X74593991Y59110064D01*
X74593991Y59110064D02*
X74584467Y59100540D01*
X74584467Y59100540D02*
X74565420Y59091016D01*
X74565420Y59091016D02*
X74546372Y59091016D01*
X74546372Y59091016D02*
X74527324Y59100540D01*
X74527324Y59100540D02*
X74517801Y59110064D01*
X74517801Y59110064D02*
X74508277Y59129111D01*
X74508277Y59129111D02*
X74498753Y59167207D01*
X74498753Y59167207D02*
X74498753Y59214826D01*
X74498753Y59214826D02*
X74508277Y59252921D01*
X74508277Y59252921D02*
X74517801Y59271968D01*
X74517801Y59271968D02*
X74527324Y59281492D01*
X74527324Y59281492D02*
X74546372Y59291016D01*
X74698753Y59110064D02*
X74708277Y59100540D01*
X74708277Y59100540D02*
X74698753Y59091016D01*
X74698753Y59091016D02*
X74689229Y59100540D01*
X74689229Y59100540D02*
X74698753Y59110064D01*
X74698753Y59110064D02*
X74698753Y59091016D01*
X74879705Y59291016D02*
X74841610Y59291016D01*
X74841610Y59291016D02*
X74822563Y59281492D01*
X74822563Y59281492D02*
X74813039Y59271968D01*
X74813039Y59271968D02*
X74793991Y59243397D01*
X74793991Y59243397D02*
X74784467Y59205302D01*
X74784467Y59205302D02*
X74784467Y59129111D01*
X74784467Y59129111D02*
X74793991Y59110064D01*
X74793991Y59110064D02*
X74803515Y59100540D01*
X74803515Y59100540D02*
X74822563Y59091016D01*
X74822563Y59091016D02*
X74860658Y59091016D01*
X74860658Y59091016D02*
X74879705Y59100540D01*
X74879705Y59100540D02*
X74889229Y59110064D01*
X74889229Y59110064D02*
X74898753Y59129111D01*
X74898753Y59129111D02*
X74898753Y59176730D01*
X74898753Y59176730D02*
X74889229Y59195778D01*
X74889229Y59195778D02*
X74879705Y59205302D01*
X74879705Y59205302D02*
X74860658Y59214826D01*
X74860658Y59214826D02*
X74822563Y59214826D01*
X74822563Y59214826D02*
X74803515Y59205302D01*
X74803515Y59205302D02*
X74793991Y59195778D01*
X74793991Y59195778D02*
X74784467Y59176730D01*
X75079705Y59291016D02*
X74984467Y59291016D01*
X74984467Y59291016D02*
X74974944Y59195778D01*
X74974944Y59195778D02*
X74984467Y59205302D01*
X74984467Y59205302D02*
X75003515Y59214826D01*
X75003515Y59214826D02*
X75051134Y59214826D01*
X75051134Y59214826D02*
X75070182Y59205302D01*
X75070182Y59205302D02*
X75079705Y59195778D01*
X75079705Y59195778D02*
X75089229Y59176730D01*
X75089229Y59176730D02*
X75089229Y59129111D01*
X75089229Y59129111D02*
X75079705Y59110064D01*
X75079705Y59110064D02*
X75070182Y59100540D01*
X75070182Y59100540D02*
X75051134Y59091016D01*
X75051134Y59091016D02*
X75003515Y59091016D01*
X75003515Y59091016D02*
X74984467Y59100540D01*
X74984467Y59100540D02*
X74974944Y59110064D01*
X75213039Y59291016D02*
X75232086Y59291016D01*
X75232086Y59291016D02*
X75251134Y59281492D01*
X75251134Y59281492D02*
X75260658Y59271968D01*
X75260658Y59271968D02*
X75270182Y59252921D01*
X75270182Y59252921D02*
X75279705Y59214826D01*
X75279705Y59214826D02*
X75279705Y59167207D01*
X75279705Y59167207D02*
X75270182Y59129111D01*
X75270182Y59129111D02*
X75260658Y59110064D01*
X75260658Y59110064D02*
X75251134Y59100540D01*
X75251134Y59100540D02*
X75232086Y59091016D01*
X75232086Y59091016D02*
X75213039Y59091016D01*
X75213039Y59091016D02*
X75193991Y59100540D01*
X75193991Y59100540D02*
X75184467Y59110064D01*
X75184467Y59110064D02*
X75174944Y59129111D01*
X75174944Y59129111D02*
X75165420Y59167207D01*
X75165420Y59167207D02*
X75165420Y59214826D01*
X75165420Y59214826D02*
X75174944Y59252921D01*
X75174944Y59252921D02*
X75184467Y59271968D01*
X75184467Y59271968D02*
X75193991Y59281492D01*
X75193991Y59281492D02*
X75213039Y59291016D01*
X75365420Y59091016D02*
X75365420Y59224349D01*
X75365420Y59205302D02*
X75374944Y59214826D01*
X75374944Y59214826D02*
X75393991Y59224349D01*
X75393991Y59224349D02*
X75422563Y59224349D01*
X75422563Y59224349D02*
X75441610Y59214826D01*
X75441610Y59214826D02*
X75451134Y59195778D01*
X75451134Y59195778D02*
X75451134Y59091016D01*
X75451134Y59195778D02*
X75460658Y59214826D01*
X75460658Y59214826D02*
X75479705Y59224349D01*
X75479705Y59224349D02*
X75508277Y59224349D01*
X75508277Y59224349D02*
X75527325Y59214826D01*
X75527325Y59214826D02*
X75536848Y59195778D01*
X75536848Y59195778D02*
X75536848Y59091016D01*
X75632086Y59091016D02*
X75632086Y59224349D01*
X75632086Y59205302D02*
X75641610Y59214826D01*
X75641610Y59214826D02*
X75660658Y59224349D01*
X75660658Y59224349D02*
X75689229Y59224349D01*
X75689229Y59224349D02*
X75708277Y59214826D01*
X75708277Y59214826D02*
X75717801Y59195778D01*
X75717801Y59195778D02*
X75717801Y59091016D01*
X75717801Y59195778D02*
X75727325Y59214826D01*
X75727325Y59214826D02*
X75746372Y59224349D01*
X75746372Y59224349D02*
X75774944Y59224349D01*
X75774944Y59224349D02*
X75793991Y59214826D01*
X75793991Y59214826D02*
X75803515Y59195778D01*
X75803515Y59195778D02*
X75803515Y59091016D01*
X76193991Y59300540D02*
X76022563Y59043397D01*
X76451134Y59291016D02*
X76470182Y59291016D01*
X76470182Y59291016D02*
X76489229Y59281492D01*
X76489229Y59281492D02*
X76498753Y59271968D01*
X76498753Y59271968D02*
X76508277Y59252921D01*
X76508277Y59252921D02*
X76517801Y59214826D01*
X76517801Y59214826D02*
X76517801Y59167207D01*
X76517801Y59167207D02*
X76508277Y59129111D01*
X76508277Y59129111D02*
X76498753Y59110064D01*
X76498753Y59110064D02*
X76489229Y59100540D01*
X76489229Y59100540D02*
X76470182Y59091016D01*
X76470182Y59091016D02*
X76451134Y59091016D01*
X76451134Y59091016D02*
X76432087Y59100540D01*
X76432087Y59100540D02*
X76422563Y59110064D01*
X76422563Y59110064D02*
X76413039Y59129111D01*
X76413039Y59129111D02*
X76403515Y59167207D01*
X76403515Y59167207D02*
X76403515Y59214826D01*
X76403515Y59214826D02*
X76413039Y59252921D01*
X76413039Y59252921D02*
X76422563Y59271968D01*
X76422563Y59271968D02*
X76432087Y59281492D01*
X76432087Y59281492D02*
X76451134Y59291016D01*
X76603515Y59110064D02*
X76613039Y59100540D01*
X76613039Y59100540D02*
X76603515Y59091016D01*
X76603515Y59091016D02*
X76593991Y59100540D01*
X76593991Y59100540D02*
X76603515Y59110064D01*
X76603515Y59110064D02*
X76603515Y59091016D01*
X76736848Y59291016D02*
X76755896Y59291016D01*
X76755896Y59291016D02*
X76774944Y59281492D01*
X76774944Y59281492D02*
X76784468Y59271968D01*
X76784468Y59271968D02*
X76793991Y59252921D01*
X76793991Y59252921D02*
X76803515Y59214826D01*
X76803515Y59214826D02*
X76803515Y59167207D01*
X76803515Y59167207D02*
X76793991Y59129111D01*
X76793991Y59129111D02*
X76784468Y59110064D01*
X76784468Y59110064D02*
X76774944Y59100540D01*
X76774944Y59100540D02*
X76755896Y59091016D01*
X76755896Y59091016D02*
X76736848Y59091016D01*
X76736848Y59091016D02*
X76717801Y59100540D01*
X76717801Y59100540D02*
X76708277Y59110064D01*
X76708277Y59110064D02*
X76698753Y59129111D01*
X76698753Y59129111D02*
X76689229Y59167207D01*
X76689229Y59167207D02*
X76689229Y59214826D01*
X76689229Y59214826D02*
X76698753Y59252921D01*
X76698753Y59252921D02*
X76708277Y59271968D01*
X76708277Y59271968D02*
X76717801Y59281492D01*
X76717801Y59281492D02*
X76736848Y59291016D01*
X76879706Y59271968D02*
X76889229Y59281492D01*
X76889229Y59281492D02*
X76908277Y59291016D01*
X76908277Y59291016D02*
X76955896Y59291016D01*
X76955896Y59291016D02*
X76974944Y59281492D01*
X76974944Y59281492D02*
X76984468Y59271968D01*
X76984468Y59271968D02*
X76993991Y59252921D01*
X76993991Y59252921D02*
X76993991Y59233873D01*
X76993991Y59233873D02*
X76984468Y59205302D01*
X76984468Y59205302D02*
X76870182Y59091016D01*
X76870182Y59091016D02*
X76993991Y59091016D01*
X77174944Y59291016D02*
X77079706Y59291016D01*
X77079706Y59291016D02*
X77070182Y59195778D01*
X77070182Y59195778D02*
X77079706Y59205302D01*
X77079706Y59205302D02*
X77098753Y59214826D01*
X77098753Y59214826D02*
X77146372Y59214826D01*
X77146372Y59214826D02*
X77165420Y59205302D01*
X77165420Y59205302D02*
X77174944Y59195778D01*
X77174944Y59195778D02*
X77184468Y59176730D01*
X77184468Y59176730D02*
X77184468Y59129111D01*
X77184468Y59129111D02*
X77174944Y59110064D01*
X77174944Y59110064D02*
X77165420Y59100540D01*
X77165420Y59100540D02*
X77146372Y59091016D01*
X77146372Y59091016D02*
X77098753Y59091016D01*
X77098753Y59091016D02*
X77079706Y59100540D01*
X77079706Y59100540D02*
X77070182Y59110064D01*
X77355896Y59291016D02*
X77317801Y59291016D01*
X77317801Y59291016D02*
X77298753Y59281492D01*
X77298753Y59281492D02*
X77289229Y59271968D01*
X77289229Y59271968D02*
X77270182Y59243397D01*
X77270182Y59243397D02*
X77260658Y59205302D01*
X77260658Y59205302D02*
X77260658Y59129111D01*
X77260658Y59129111D02*
X77270182Y59110064D01*
X77270182Y59110064D02*
X77279706Y59100540D01*
X77279706Y59100540D02*
X77298753Y59091016D01*
X77298753Y59091016D02*
X77336849Y59091016D01*
X77336849Y59091016D02*
X77355896Y59100540D01*
X77355896Y59100540D02*
X77365420Y59110064D01*
X77365420Y59110064D02*
X77374944Y59129111D01*
X77374944Y59129111D02*
X77374944Y59176730D01*
X77374944Y59176730D02*
X77365420Y59195778D01*
X77365420Y59195778D02*
X77355896Y59205302D01*
X77355896Y59205302D02*
X77336849Y59214826D01*
X77336849Y59214826D02*
X77298753Y59214826D01*
X77298753Y59214826D02*
X77279706Y59205302D01*
X77279706Y59205302D02*
X77270182Y59195778D01*
X77270182Y59195778D02*
X77260658Y59176730D01*
X77451134Y59291016D02*
X77451134Y59252921D01*
X77527325Y59291016D02*
X77527325Y59252921D01*
X77822563Y59014826D02*
X77813039Y59024349D01*
X77813039Y59024349D02*
X77793991Y59052921D01*
X77793991Y59052921D02*
X77784468Y59071968D01*
X77784468Y59071968D02*
X77774944Y59100540D01*
X77774944Y59100540D02*
X77765420Y59148159D01*
X77765420Y59148159D02*
X77765420Y59186254D01*
X77765420Y59186254D02*
X77774944Y59233873D01*
X77774944Y59233873D02*
X77784468Y59262445D01*
X77784468Y59262445D02*
X77793991Y59281492D01*
X77793991Y59281492D02*
X77813039Y59310064D01*
X77813039Y59310064D02*
X77822563Y59319588D01*
X77889230Y59271968D02*
X77898753Y59281492D01*
X77898753Y59281492D02*
X77917801Y59291016D01*
X77917801Y59291016D02*
X77965420Y59291016D01*
X77965420Y59291016D02*
X77984468Y59281492D01*
X77984468Y59281492D02*
X77993991Y59271968D01*
X77993991Y59271968D02*
X78003515Y59252921D01*
X78003515Y59252921D02*
X78003515Y59233873D01*
X78003515Y59233873D02*
X77993991Y59205302D01*
X77993991Y59205302D02*
X77879706Y59091016D01*
X77879706Y59091016D02*
X78003515Y59091016D01*
X78241611Y59091016D02*
X78241611Y59291016D01*
X78327325Y59091016D02*
X78327325Y59195778D01*
X78327325Y59195778D02*
X78317801Y59214826D01*
X78317801Y59214826D02*
X78298753Y59224349D01*
X78298753Y59224349D02*
X78270182Y59224349D01*
X78270182Y59224349D02*
X78251134Y59214826D01*
X78251134Y59214826D02*
X78241611Y59205302D01*
X78451134Y59091016D02*
X78432087Y59100540D01*
X78432087Y59100540D02*
X78422563Y59110064D01*
X78422563Y59110064D02*
X78413039Y59129111D01*
X78413039Y59129111D02*
X78413039Y59186254D01*
X78413039Y59186254D02*
X78422563Y59205302D01*
X78422563Y59205302D02*
X78432087Y59214826D01*
X78432087Y59214826D02*
X78451134Y59224349D01*
X78451134Y59224349D02*
X78479706Y59224349D01*
X78479706Y59224349D02*
X78498753Y59214826D01*
X78498753Y59214826D02*
X78508277Y59205302D01*
X78508277Y59205302D02*
X78517801Y59186254D01*
X78517801Y59186254D02*
X78517801Y59129111D01*
X78517801Y59129111D02*
X78508277Y59110064D01*
X78508277Y59110064D02*
X78498753Y59100540D01*
X78498753Y59100540D02*
X78479706Y59091016D01*
X78479706Y59091016D02*
X78451134Y59091016D01*
X78632087Y59091016D02*
X78613039Y59100540D01*
X78613039Y59100540D02*
X78603515Y59119588D01*
X78603515Y59119588D02*
X78603515Y59291016D01*
X78784468Y59100540D02*
X78765420Y59091016D01*
X78765420Y59091016D02*
X78727325Y59091016D01*
X78727325Y59091016D02*
X78708277Y59100540D01*
X78708277Y59100540D02*
X78698753Y59119588D01*
X78698753Y59119588D02*
X78698753Y59195778D01*
X78698753Y59195778D02*
X78708277Y59214826D01*
X78708277Y59214826D02*
X78727325Y59224349D01*
X78727325Y59224349D02*
X78765420Y59224349D01*
X78765420Y59224349D02*
X78784468Y59214826D01*
X78784468Y59214826D02*
X78793992Y59195778D01*
X78793992Y59195778D02*
X78793992Y59176730D01*
X78793992Y59176730D02*
X78698753Y59157683D01*
X78870182Y59100540D02*
X78889230Y59091016D01*
X78889230Y59091016D02*
X78927325Y59091016D01*
X78927325Y59091016D02*
X78946373Y59100540D01*
X78946373Y59100540D02*
X78955896Y59119588D01*
X78955896Y59119588D02*
X78955896Y59129111D01*
X78955896Y59129111D02*
X78946373Y59148159D01*
X78946373Y59148159D02*
X78927325Y59157683D01*
X78927325Y59157683D02*
X78898753Y59157683D01*
X78898753Y59157683D02*
X78879706Y59167207D01*
X78879706Y59167207D02*
X78870182Y59186254D01*
X78870182Y59186254D02*
X78870182Y59195778D01*
X78870182Y59195778D02*
X78879706Y59214826D01*
X78879706Y59214826D02*
X78898753Y59224349D01*
X78898753Y59224349D02*
X78927325Y59224349D01*
X78927325Y59224349D02*
X78946373Y59214826D01*
X79022563Y59014826D02*
X79032087Y59024349D01*
X79032087Y59024349D02*
X79051134Y59052921D01*
X79051134Y59052921D02*
X79060658Y59071968D01*
X79060658Y59071968D02*
X79070182Y59100540D01*
X79070182Y59100540D02*
X79079706Y59148159D01*
X79079706Y59148159D02*
X79079706Y59186254D01*
X79079706Y59186254D02*
X79070182Y59233873D01*
X79070182Y59233873D02*
X79060658Y59262445D01*
X79060658Y59262445D02*
X79051134Y59281492D01*
X79051134Y59281492D02*
X79032087Y59310064D01*
X79032087Y59310064D02*
X79022563Y59319588D01*
X79384468Y59014826D02*
X79374944Y59024349D01*
X79374944Y59024349D02*
X79355896Y59052921D01*
X79355896Y59052921D02*
X79346373Y59071968D01*
X79346373Y59071968D02*
X79336849Y59100540D01*
X79336849Y59100540D02*
X79327325Y59148159D01*
X79327325Y59148159D02*
X79327325Y59186254D01*
X79327325Y59186254D02*
X79336849Y59233873D01*
X79336849Y59233873D02*
X79346373Y59262445D01*
X79346373Y59262445D02*
X79355896Y59281492D01*
X79355896Y59281492D02*
X79374944Y59310064D01*
X79374944Y59310064D02*
X79384468Y59319588D01*
X79460658Y59224349D02*
X79460658Y59091016D01*
X79460658Y59205302D02*
X79470182Y59214826D01*
X79470182Y59214826D02*
X79489230Y59224349D01*
X79489230Y59224349D02*
X79517801Y59224349D01*
X79517801Y59224349D02*
X79536849Y59214826D01*
X79536849Y59214826D02*
X79546373Y59195778D01*
X79546373Y59195778D02*
X79546373Y59091016D01*
X79670182Y59091016D02*
X79651134Y59100540D01*
X79651134Y59100540D02*
X79641611Y59110064D01*
X79641611Y59110064D02*
X79632087Y59129111D01*
X79632087Y59129111D02*
X79632087Y59186254D01*
X79632087Y59186254D02*
X79641611Y59205302D01*
X79641611Y59205302D02*
X79651134Y59214826D01*
X79651134Y59214826D02*
X79670182Y59224349D01*
X79670182Y59224349D02*
X79698754Y59224349D01*
X79698754Y59224349D02*
X79717801Y59214826D01*
X79717801Y59214826D02*
X79727325Y59205302D01*
X79727325Y59205302D02*
X79736849Y59186254D01*
X79736849Y59186254D02*
X79736849Y59129111D01*
X79736849Y59129111D02*
X79727325Y59110064D01*
X79727325Y59110064D02*
X79717801Y59100540D01*
X79717801Y59100540D02*
X79698754Y59091016D01*
X79698754Y59091016D02*
X79670182Y59091016D01*
X79793992Y59224349D02*
X79870182Y59224349D01*
X79822563Y59291016D02*
X79822563Y59119588D01*
X79822563Y59119588D02*
X79832087Y59100540D01*
X79832087Y59100540D02*
X79851134Y59091016D01*
X79851134Y59091016D02*
X79870182Y59091016D01*
X80089230Y59224349D02*
X80089230Y59024349D01*
X80089230Y59214826D02*
X80108277Y59224349D01*
X80108277Y59224349D02*
X80146373Y59224349D01*
X80146373Y59224349D02*
X80165420Y59214826D01*
X80165420Y59214826D02*
X80174944Y59205302D01*
X80174944Y59205302D02*
X80184468Y59186254D01*
X80184468Y59186254D02*
X80184468Y59129111D01*
X80184468Y59129111D02*
X80174944Y59110064D01*
X80174944Y59110064D02*
X80165420Y59100540D01*
X80165420Y59100540D02*
X80146373Y59091016D01*
X80146373Y59091016D02*
X80108277Y59091016D01*
X80108277Y59091016D02*
X80089230Y59100540D01*
X80298754Y59091016D02*
X80279706Y59100540D01*
X80279706Y59100540D02*
X80270182Y59119588D01*
X80270182Y59119588D02*
X80270182Y59291016D01*
X80460658Y59091016D02*
X80460658Y59195778D01*
X80460658Y59195778D02*
X80451135Y59214826D01*
X80451135Y59214826D02*
X80432087Y59224349D01*
X80432087Y59224349D02*
X80393992Y59224349D01*
X80393992Y59224349D02*
X80374944Y59214826D01*
X80460658Y59100540D02*
X80441611Y59091016D01*
X80441611Y59091016D02*
X80393992Y59091016D01*
X80393992Y59091016D02*
X80374944Y59100540D01*
X80374944Y59100540D02*
X80365420Y59119588D01*
X80365420Y59119588D02*
X80365420Y59138635D01*
X80365420Y59138635D02*
X80374944Y59157683D01*
X80374944Y59157683D02*
X80393992Y59167207D01*
X80393992Y59167207D02*
X80441611Y59167207D01*
X80441611Y59167207D02*
X80460658Y59176730D01*
X80527325Y59224349D02*
X80603515Y59224349D01*
X80555896Y59291016D02*
X80555896Y59119588D01*
X80555896Y59119588D02*
X80565420Y59100540D01*
X80565420Y59100540D02*
X80584468Y59091016D01*
X80584468Y59091016D02*
X80603515Y59091016D01*
X80746373Y59100540D02*
X80727325Y59091016D01*
X80727325Y59091016D02*
X80689230Y59091016D01*
X80689230Y59091016D02*
X80670182Y59100540D01*
X80670182Y59100540D02*
X80660658Y59119588D01*
X80660658Y59119588D02*
X80660658Y59195778D01*
X80660658Y59195778D02*
X80670182Y59214826D01*
X80670182Y59214826D02*
X80689230Y59224349D01*
X80689230Y59224349D02*
X80727325Y59224349D01*
X80727325Y59224349D02*
X80746373Y59214826D01*
X80746373Y59214826D02*
X80755896Y59195778D01*
X80755896Y59195778D02*
X80755896Y59176730D01*
X80755896Y59176730D02*
X80660658Y59157683D01*
X80927325Y59091016D02*
X80927325Y59291016D01*
X80927325Y59100540D02*
X80908277Y59091016D01*
X80908277Y59091016D02*
X80870182Y59091016D01*
X80870182Y59091016D02*
X80851135Y59100540D01*
X80851135Y59100540D02*
X80841611Y59110064D01*
X80841611Y59110064D02*
X80832087Y59129111D01*
X80832087Y59129111D02*
X80832087Y59186254D01*
X80832087Y59186254D02*
X80841611Y59205302D01*
X80841611Y59205302D02*
X80851135Y59214826D01*
X80851135Y59214826D02*
X80870182Y59224349D01*
X80870182Y59224349D02*
X80908277Y59224349D01*
X80908277Y59224349D02*
X80927325Y59214826D01*
X81003516Y59014826D02*
X81013039Y59024349D01*
X81013039Y59024349D02*
X81032087Y59052921D01*
X81032087Y59052921D02*
X81041611Y59071968D01*
X81041611Y59071968D02*
X81051135Y59100540D01*
X81051135Y59100540D02*
X81060658Y59148159D01*
X81060658Y59148159D02*
X81060658Y59186254D01*
X81060658Y59186254D02*
X81051135Y59233873D01*
X81051135Y59233873D02*
X81041611Y59262445D01*
X81041611Y59262445D02*
X81032087Y59281492D01*
X81032087Y59281492D02*
X81013039Y59310064D01*
X81013039Y59310064D02*
X81003516Y59319588D01*
D13*
X74247500Y58918500D02*
G75*
G02*
X74077500Y58918500I-85000J0D01*
G01*
X74077500Y58918500D02*
G75*
G02*
X74247500Y58918500I85000J0D01*
G01*
D11*
X74613039Y58827016D02*
X74498753Y58827016D01*
X74555896Y58827016D02*
X74555896Y59027016D01*
X74555896Y59027016D02*
X74536848Y58998445D01*
X74536848Y58998445D02*
X74517801Y58979397D01*
X74517801Y58979397D02*
X74498753Y58969873D01*
X74698753Y58846064D02*
X74708277Y58836540D01*
X74708277Y58836540D02*
X74698753Y58827016D01*
X74698753Y58827016D02*
X74689229Y58836540D01*
X74689229Y58836540D02*
X74698753Y58846064D01*
X74698753Y58846064D02*
X74698753Y58827016D01*
X74774944Y59027016D02*
X74908277Y59027016D01*
X74908277Y59027016D02*
X74822563Y58827016D01*
X75022563Y59027016D02*
X75041610Y59027016D01*
X75041610Y59027016D02*
X75060658Y59017492D01*
X75060658Y59017492D02*
X75070182Y59007968D01*
X75070182Y59007968D02*
X75079705Y58988921D01*
X75079705Y58988921D02*
X75089229Y58950826D01*
X75089229Y58950826D02*
X75089229Y58903207D01*
X75089229Y58903207D02*
X75079705Y58865111D01*
X75079705Y58865111D02*
X75070182Y58846064D01*
X75070182Y58846064D02*
X75060658Y58836540D01*
X75060658Y58836540D02*
X75041610Y58827016D01*
X75041610Y58827016D02*
X75022563Y58827016D01*
X75022563Y58827016D02*
X75003515Y58836540D01*
X75003515Y58836540D02*
X74993991Y58846064D01*
X74993991Y58846064D02*
X74984467Y58865111D01*
X74984467Y58865111D02*
X74974944Y58903207D01*
X74974944Y58903207D02*
X74974944Y58950826D01*
X74974944Y58950826D02*
X74984467Y58988921D01*
X74984467Y58988921D02*
X74993991Y59007968D01*
X74993991Y59007968D02*
X75003515Y59017492D01*
X75003515Y59017492D02*
X75022563Y59027016D01*
X75213039Y59027016D02*
X75232086Y59027016D01*
X75232086Y59027016D02*
X75251134Y59017492D01*
X75251134Y59017492D02*
X75260658Y59007968D01*
X75260658Y59007968D02*
X75270182Y58988921D01*
X75270182Y58988921D02*
X75279705Y58950826D01*
X75279705Y58950826D02*
X75279705Y58903207D01*
X75279705Y58903207D02*
X75270182Y58865111D01*
X75270182Y58865111D02*
X75260658Y58846064D01*
X75260658Y58846064D02*
X75251134Y58836540D01*
X75251134Y58836540D02*
X75232086Y58827016D01*
X75232086Y58827016D02*
X75213039Y58827016D01*
X75213039Y58827016D02*
X75193991Y58836540D01*
X75193991Y58836540D02*
X75184467Y58846064D01*
X75184467Y58846064D02*
X75174944Y58865111D01*
X75174944Y58865111D02*
X75165420Y58903207D01*
X75165420Y58903207D02*
X75165420Y58950826D01*
X75165420Y58950826D02*
X75174944Y58988921D01*
X75174944Y58988921D02*
X75184467Y59007968D01*
X75184467Y59007968D02*
X75193991Y59017492D01*
X75193991Y59017492D02*
X75213039Y59027016D01*
X75365420Y58827016D02*
X75365420Y58960349D01*
X75365420Y58941302D02*
X75374944Y58950826D01*
X75374944Y58950826D02*
X75393991Y58960349D01*
X75393991Y58960349D02*
X75422563Y58960349D01*
X75422563Y58960349D02*
X75441610Y58950826D01*
X75441610Y58950826D02*
X75451134Y58931778D01*
X75451134Y58931778D02*
X75451134Y58827016D01*
X75451134Y58931778D02*
X75460658Y58950826D01*
X75460658Y58950826D02*
X75479705Y58960349D01*
X75479705Y58960349D02*
X75508277Y58960349D01*
X75508277Y58960349D02*
X75527325Y58950826D01*
X75527325Y58950826D02*
X75536848Y58931778D01*
X75536848Y58931778D02*
X75536848Y58827016D01*
X75632086Y58827016D02*
X75632086Y58960349D01*
X75632086Y58941302D02*
X75641610Y58950826D01*
X75641610Y58950826D02*
X75660658Y58960349D01*
X75660658Y58960349D02*
X75689229Y58960349D01*
X75689229Y58960349D02*
X75708277Y58950826D01*
X75708277Y58950826D02*
X75717801Y58931778D01*
X75717801Y58931778D02*
X75717801Y58827016D01*
X75717801Y58931778D02*
X75727325Y58950826D01*
X75727325Y58950826D02*
X75746372Y58960349D01*
X75746372Y58960349D02*
X75774944Y58960349D01*
X75774944Y58960349D02*
X75793991Y58950826D01*
X75793991Y58950826D02*
X75803515Y58931778D01*
X75803515Y58931778D02*
X75803515Y58827016D01*
X76193991Y59036540D02*
X76022563Y58779397D01*
X76451134Y59027016D02*
X76470182Y59027016D01*
X76470182Y59027016D02*
X76489229Y59017492D01*
X76489229Y59017492D02*
X76498753Y59007968D01*
X76498753Y59007968D02*
X76508277Y58988921D01*
X76508277Y58988921D02*
X76517801Y58950826D01*
X76517801Y58950826D02*
X76517801Y58903207D01*
X76517801Y58903207D02*
X76508277Y58865111D01*
X76508277Y58865111D02*
X76498753Y58846064D01*
X76498753Y58846064D02*
X76489229Y58836540D01*
X76489229Y58836540D02*
X76470182Y58827016D01*
X76470182Y58827016D02*
X76451134Y58827016D01*
X76451134Y58827016D02*
X76432087Y58836540D01*
X76432087Y58836540D02*
X76422563Y58846064D01*
X76422563Y58846064D02*
X76413039Y58865111D01*
X76413039Y58865111D02*
X76403515Y58903207D01*
X76403515Y58903207D02*
X76403515Y58950826D01*
X76403515Y58950826D02*
X76413039Y58988921D01*
X76413039Y58988921D02*
X76422563Y59007968D01*
X76422563Y59007968D02*
X76432087Y59017492D01*
X76432087Y59017492D02*
X76451134Y59027016D01*
X76603515Y58846064D02*
X76613039Y58836540D01*
X76613039Y58836540D02*
X76603515Y58827016D01*
X76603515Y58827016D02*
X76593991Y58836540D01*
X76593991Y58836540D02*
X76603515Y58846064D01*
X76603515Y58846064D02*
X76603515Y58827016D01*
X76736848Y59027016D02*
X76755896Y59027016D01*
X76755896Y59027016D02*
X76774944Y59017492D01*
X76774944Y59017492D02*
X76784468Y59007968D01*
X76784468Y59007968D02*
X76793991Y58988921D01*
X76793991Y58988921D02*
X76803515Y58950826D01*
X76803515Y58950826D02*
X76803515Y58903207D01*
X76803515Y58903207D02*
X76793991Y58865111D01*
X76793991Y58865111D02*
X76784468Y58846064D01*
X76784468Y58846064D02*
X76774944Y58836540D01*
X76774944Y58836540D02*
X76755896Y58827016D01*
X76755896Y58827016D02*
X76736848Y58827016D01*
X76736848Y58827016D02*
X76717801Y58836540D01*
X76717801Y58836540D02*
X76708277Y58846064D01*
X76708277Y58846064D02*
X76698753Y58865111D01*
X76698753Y58865111D02*
X76689229Y58903207D01*
X76689229Y58903207D02*
X76689229Y58950826D01*
X76689229Y58950826D02*
X76698753Y58988921D01*
X76698753Y58988921D02*
X76708277Y59007968D01*
X76708277Y59007968D02*
X76717801Y59017492D01*
X76717801Y59017492D02*
X76736848Y59027016D01*
X76974944Y59027016D02*
X76936848Y59027016D01*
X76936848Y59027016D02*
X76917801Y59017492D01*
X76917801Y59017492D02*
X76908277Y59007968D01*
X76908277Y59007968D02*
X76889229Y58979397D01*
X76889229Y58979397D02*
X76879706Y58941302D01*
X76879706Y58941302D02*
X76879706Y58865111D01*
X76879706Y58865111D02*
X76889229Y58846064D01*
X76889229Y58846064D02*
X76898753Y58836540D01*
X76898753Y58836540D02*
X76917801Y58827016D01*
X76917801Y58827016D02*
X76955896Y58827016D01*
X76955896Y58827016D02*
X76974944Y58836540D01*
X76974944Y58836540D02*
X76984468Y58846064D01*
X76984468Y58846064D02*
X76993991Y58865111D01*
X76993991Y58865111D02*
X76993991Y58912730D01*
X76993991Y58912730D02*
X76984468Y58931778D01*
X76984468Y58931778D02*
X76974944Y58941302D01*
X76974944Y58941302D02*
X76955896Y58950826D01*
X76955896Y58950826D02*
X76917801Y58950826D01*
X76917801Y58950826D02*
X76898753Y58941302D01*
X76898753Y58941302D02*
X76889229Y58931778D01*
X76889229Y58931778D02*
X76879706Y58912730D01*
X77165420Y59027016D02*
X77127325Y59027016D01*
X77127325Y59027016D02*
X77108277Y59017492D01*
X77108277Y59017492D02*
X77098753Y59007968D01*
X77098753Y59007968D02*
X77079706Y58979397D01*
X77079706Y58979397D02*
X77070182Y58941302D01*
X77070182Y58941302D02*
X77070182Y58865111D01*
X77070182Y58865111D02*
X77079706Y58846064D01*
X77079706Y58846064D02*
X77089229Y58836540D01*
X77089229Y58836540D02*
X77108277Y58827016D01*
X77108277Y58827016D02*
X77146372Y58827016D01*
X77146372Y58827016D02*
X77165420Y58836540D01*
X77165420Y58836540D02*
X77174944Y58846064D01*
X77174944Y58846064D02*
X77184468Y58865111D01*
X77184468Y58865111D02*
X77184468Y58912730D01*
X77184468Y58912730D02*
X77174944Y58931778D01*
X77174944Y58931778D02*
X77165420Y58941302D01*
X77165420Y58941302D02*
X77146372Y58950826D01*
X77146372Y58950826D02*
X77108277Y58950826D01*
X77108277Y58950826D02*
X77089229Y58941302D01*
X77089229Y58941302D02*
X77079706Y58931778D01*
X77079706Y58931778D02*
X77070182Y58912730D01*
X77279706Y58827016D02*
X77317801Y58827016D01*
X77317801Y58827016D02*
X77336849Y58836540D01*
X77336849Y58836540D02*
X77346372Y58846064D01*
X77346372Y58846064D02*
X77365420Y58874635D01*
X77365420Y58874635D02*
X77374944Y58912730D01*
X77374944Y58912730D02*
X77374944Y58988921D01*
X77374944Y58988921D02*
X77365420Y59007968D01*
X77365420Y59007968D02*
X77355896Y59017492D01*
X77355896Y59017492D02*
X77336849Y59027016D01*
X77336849Y59027016D02*
X77298753Y59027016D01*
X77298753Y59027016D02*
X77279706Y59017492D01*
X77279706Y59017492D02*
X77270182Y59007968D01*
X77270182Y59007968D02*
X77260658Y58988921D01*
X77260658Y58988921D02*
X77260658Y58941302D01*
X77260658Y58941302D02*
X77270182Y58922254D01*
X77270182Y58922254D02*
X77279706Y58912730D01*
X77279706Y58912730D02*
X77298753Y58903207D01*
X77298753Y58903207D02*
X77336849Y58903207D01*
X77336849Y58903207D02*
X77355896Y58912730D01*
X77355896Y58912730D02*
X77365420Y58922254D01*
X77365420Y58922254D02*
X77374944Y58941302D01*
X77451134Y59027016D02*
X77451134Y58988921D01*
X77527325Y59027016D02*
X77527325Y58988921D01*
X77822563Y58750826D02*
X77813039Y58760349D01*
X77813039Y58760349D02*
X77793991Y58788921D01*
X77793991Y58788921D02*
X77784468Y58807968D01*
X77784468Y58807968D02*
X77774944Y58836540D01*
X77774944Y58836540D02*
X77765420Y58884159D01*
X77765420Y58884159D02*
X77765420Y58922254D01*
X77765420Y58922254D02*
X77774944Y58969873D01*
X77774944Y58969873D02*
X77784468Y58998445D01*
X77784468Y58998445D02*
X77793991Y59017492D01*
X77793991Y59017492D02*
X77813039Y59046064D01*
X77813039Y59046064D02*
X77822563Y59055588D01*
X78003515Y58827016D02*
X77889230Y58827016D01*
X77946372Y58827016D02*
X77946372Y59027016D01*
X77946372Y59027016D02*
X77927325Y58998445D01*
X77927325Y58998445D02*
X77908277Y58979397D01*
X77908277Y58979397D02*
X77889230Y58969873D01*
X78070182Y59027016D02*
X78203515Y59027016D01*
X78203515Y59027016D02*
X78117801Y58827016D01*
X78365420Y58960349D02*
X78365420Y58827016D01*
X78317801Y59036540D02*
X78270182Y58893683D01*
X78270182Y58893683D02*
X78393991Y58893683D01*
X78622563Y58827016D02*
X78622563Y59027016D01*
X78708277Y58827016D02*
X78708277Y58931778D01*
X78708277Y58931778D02*
X78698753Y58950826D01*
X78698753Y58950826D02*
X78679706Y58960349D01*
X78679706Y58960349D02*
X78651134Y58960349D01*
X78651134Y58960349D02*
X78632087Y58950826D01*
X78632087Y58950826D02*
X78622563Y58941302D01*
X78832087Y58827016D02*
X78813039Y58836540D01*
X78813039Y58836540D02*
X78803515Y58846064D01*
X78803515Y58846064D02*
X78793992Y58865111D01*
X78793992Y58865111D02*
X78793992Y58922254D01*
X78793992Y58922254D02*
X78803515Y58941302D01*
X78803515Y58941302D02*
X78813039Y58950826D01*
X78813039Y58950826D02*
X78832087Y58960349D01*
X78832087Y58960349D02*
X78860658Y58960349D01*
X78860658Y58960349D02*
X78879706Y58950826D01*
X78879706Y58950826D02*
X78889230Y58941302D01*
X78889230Y58941302D02*
X78898753Y58922254D01*
X78898753Y58922254D02*
X78898753Y58865111D01*
X78898753Y58865111D02*
X78889230Y58846064D01*
X78889230Y58846064D02*
X78879706Y58836540D01*
X78879706Y58836540D02*
X78860658Y58827016D01*
X78860658Y58827016D02*
X78832087Y58827016D01*
X79013039Y58827016D02*
X78993992Y58836540D01*
X78993992Y58836540D02*
X78984468Y58855588D01*
X78984468Y58855588D02*
X78984468Y59027016D01*
X79165420Y58836540D02*
X79146373Y58827016D01*
X79146373Y58827016D02*
X79108277Y58827016D01*
X79108277Y58827016D02*
X79089230Y58836540D01*
X79089230Y58836540D02*
X79079706Y58855588D01*
X79079706Y58855588D02*
X79079706Y58931778D01*
X79079706Y58931778D02*
X79089230Y58950826D01*
X79089230Y58950826D02*
X79108277Y58960349D01*
X79108277Y58960349D02*
X79146373Y58960349D01*
X79146373Y58960349D02*
X79165420Y58950826D01*
X79165420Y58950826D02*
X79174944Y58931778D01*
X79174944Y58931778D02*
X79174944Y58912730D01*
X79174944Y58912730D02*
X79079706Y58893683D01*
X79251134Y58836540D02*
X79270182Y58827016D01*
X79270182Y58827016D02*
X79308277Y58827016D01*
X79308277Y58827016D02*
X79327325Y58836540D01*
X79327325Y58836540D02*
X79336849Y58855588D01*
X79336849Y58855588D02*
X79336849Y58865111D01*
X79336849Y58865111D02*
X79327325Y58884159D01*
X79327325Y58884159D02*
X79308277Y58893683D01*
X79308277Y58893683D02*
X79279706Y58893683D01*
X79279706Y58893683D02*
X79260658Y58903207D01*
X79260658Y58903207D02*
X79251134Y58922254D01*
X79251134Y58922254D02*
X79251134Y58931778D01*
X79251134Y58931778D02*
X79260658Y58950826D01*
X79260658Y58950826D02*
X79279706Y58960349D01*
X79279706Y58960349D02*
X79308277Y58960349D01*
X79308277Y58960349D02*
X79327325Y58950826D01*
X79403515Y58750826D02*
X79413039Y58760349D01*
X79413039Y58760349D02*
X79432087Y58788921D01*
X79432087Y58788921D02*
X79441611Y58807968D01*
X79441611Y58807968D02*
X79451134Y58836540D01*
X79451134Y58836540D02*
X79460658Y58884159D01*
X79460658Y58884159D02*
X79460658Y58922254D01*
X79460658Y58922254D02*
X79451134Y58969873D01*
X79451134Y58969873D02*
X79441611Y58998445D01*
X79441611Y58998445D02*
X79432087Y59017492D01*
X79432087Y59017492D02*
X79413039Y59046064D01*
X79413039Y59046064D02*
X79403515Y59055588D01*
X79765420Y58750826D02*
X79755896Y58760349D01*
X79755896Y58760349D02*
X79736849Y58788921D01*
X79736849Y58788921D02*
X79727325Y58807968D01*
X79727325Y58807968D02*
X79717801Y58836540D01*
X79717801Y58836540D02*
X79708277Y58884159D01*
X79708277Y58884159D02*
X79708277Y58922254D01*
X79708277Y58922254D02*
X79717801Y58969873D01*
X79717801Y58969873D02*
X79727325Y58998445D01*
X79727325Y58998445D02*
X79736849Y59017492D01*
X79736849Y59017492D02*
X79755896Y59046064D01*
X79755896Y59046064D02*
X79765420Y59055588D01*
X79841611Y58960349D02*
X79841611Y58827016D01*
X79841611Y58941302D02*
X79851134Y58950826D01*
X79851134Y58950826D02*
X79870182Y58960349D01*
X79870182Y58960349D02*
X79898754Y58960349D01*
X79898754Y58960349D02*
X79917801Y58950826D01*
X79917801Y58950826D02*
X79927325Y58931778D01*
X79927325Y58931778D02*
X79927325Y58827016D01*
X80051134Y58827016D02*
X80032087Y58836540D01*
X80032087Y58836540D02*
X80022563Y58846064D01*
X80022563Y58846064D02*
X80013039Y58865111D01*
X80013039Y58865111D02*
X80013039Y58922254D01*
X80013039Y58922254D02*
X80022563Y58941302D01*
X80022563Y58941302D02*
X80032087Y58950826D01*
X80032087Y58950826D02*
X80051134Y58960349D01*
X80051134Y58960349D02*
X80079706Y58960349D01*
X80079706Y58960349D02*
X80098754Y58950826D01*
X80098754Y58950826D02*
X80108277Y58941302D01*
X80108277Y58941302D02*
X80117801Y58922254D01*
X80117801Y58922254D02*
X80117801Y58865111D01*
X80117801Y58865111D02*
X80108277Y58846064D01*
X80108277Y58846064D02*
X80098754Y58836540D01*
X80098754Y58836540D02*
X80079706Y58827016D01*
X80079706Y58827016D02*
X80051134Y58827016D01*
X80174944Y58960349D02*
X80251134Y58960349D01*
X80203515Y59027016D02*
X80203515Y58855588D01*
X80203515Y58855588D02*
X80213039Y58836540D01*
X80213039Y58836540D02*
X80232087Y58827016D01*
X80232087Y58827016D02*
X80251134Y58827016D01*
X80470182Y58960349D02*
X80470182Y58760349D01*
X80470182Y58950826D02*
X80489230Y58960349D01*
X80489230Y58960349D02*
X80527325Y58960349D01*
X80527325Y58960349D02*
X80546373Y58950826D01*
X80546373Y58950826D02*
X80555896Y58941302D01*
X80555896Y58941302D02*
X80565420Y58922254D01*
X80565420Y58922254D02*
X80565420Y58865111D01*
X80565420Y58865111D02*
X80555896Y58846064D01*
X80555896Y58846064D02*
X80546373Y58836540D01*
X80546373Y58836540D02*
X80527325Y58827016D01*
X80527325Y58827016D02*
X80489230Y58827016D01*
X80489230Y58827016D02*
X80470182Y58836540D01*
X80679706Y58827016D02*
X80660658Y58836540D01*
X80660658Y58836540D02*
X80651135Y58855588D01*
X80651135Y58855588D02*
X80651135Y59027016D01*
X80841611Y58827016D02*
X80841611Y58931778D01*
X80841611Y58931778D02*
X80832087Y58950826D01*
X80832087Y58950826D02*
X80813039Y58960349D01*
X80813039Y58960349D02*
X80774944Y58960349D01*
X80774944Y58960349D02*
X80755896Y58950826D01*
X80841611Y58836540D02*
X80822563Y58827016D01*
X80822563Y58827016D02*
X80774944Y58827016D01*
X80774944Y58827016D02*
X80755896Y58836540D01*
X80755896Y58836540D02*
X80746373Y58855588D01*
X80746373Y58855588D02*
X80746373Y58874635D01*
X80746373Y58874635D02*
X80755896Y58893683D01*
X80755896Y58893683D02*
X80774944Y58903207D01*
X80774944Y58903207D02*
X80822563Y58903207D01*
X80822563Y58903207D02*
X80841611Y58912730D01*
X80908277Y58960349D02*
X80984468Y58960349D01*
X80936849Y59027016D02*
X80936849Y58855588D01*
X80936849Y58855588D02*
X80946373Y58836540D01*
X80946373Y58836540D02*
X80965420Y58827016D01*
X80965420Y58827016D02*
X80984468Y58827016D01*
X81127325Y58836540D02*
X81108277Y58827016D01*
X81108277Y58827016D02*
X81070182Y58827016D01*
X81070182Y58827016D02*
X81051135Y58836540D01*
X81051135Y58836540D02*
X81041611Y58855588D01*
X81041611Y58855588D02*
X81041611Y58931778D01*
X81041611Y58931778D02*
X81051135Y58950826D01*
X81051135Y58950826D02*
X81070182Y58960349D01*
X81070182Y58960349D02*
X81108277Y58960349D01*
X81108277Y58960349D02*
X81127325Y58950826D01*
X81127325Y58950826D02*
X81136849Y58931778D01*
X81136849Y58931778D02*
X81136849Y58912730D01*
X81136849Y58912730D02*
X81041611Y58893683D01*
X81308277Y58827016D02*
X81308277Y59027016D01*
X81308277Y58836540D02*
X81289230Y58827016D01*
X81289230Y58827016D02*
X81251135Y58827016D01*
X81251135Y58827016D02*
X81232087Y58836540D01*
X81232087Y58836540D02*
X81222563Y58846064D01*
X81222563Y58846064D02*
X81213039Y58865111D01*
X81213039Y58865111D02*
X81213039Y58922254D01*
X81213039Y58922254D02*
X81222563Y58941302D01*
X81222563Y58941302D02*
X81232087Y58950826D01*
X81232087Y58950826D02*
X81251135Y58960349D01*
X81251135Y58960349D02*
X81289230Y58960349D01*
X81289230Y58960349D02*
X81308277Y58950826D01*
X81384468Y58750826D02*
X81393992Y58760349D01*
X81393992Y58760349D02*
X81413039Y58788921D01*
X81413039Y58788921D02*
X81422563Y58807968D01*
X81422563Y58807968D02*
X81432087Y58836540D01*
X81432087Y58836540D02*
X81441611Y58884159D01*
X81441611Y58884159D02*
X81441611Y58922254D01*
X81441611Y58922254D02*
X81432087Y58969873D01*
X81432087Y58969873D02*
X81422563Y58998445D01*
X81422563Y58998445D02*
X81413039Y59017492D01*
X81413039Y59017492D02*
X81393992Y59046064D01*
X81393992Y59046064D02*
X81384468Y59055588D01*
X74147500Y58728500D02*
X74147500Y58528500D01*
X74047500Y58628500D02*
X74247500Y58628500D01*
X74489229Y58737016D02*
X74613039Y58737016D01*
X74613039Y58737016D02*
X74546372Y58660826D01*
X74546372Y58660826D02*
X74574944Y58660826D01*
X74574944Y58660826D02*
X74593991Y58651302D01*
X74593991Y58651302D02*
X74603515Y58641778D01*
X74603515Y58641778D02*
X74613039Y58622730D01*
X74613039Y58622730D02*
X74613039Y58575111D01*
X74613039Y58575111D02*
X74603515Y58556064D01*
X74603515Y58556064D02*
X74593991Y58546540D01*
X74593991Y58546540D02*
X74574944Y58537016D01*
X74574944Y58537016D02*
X74517801Y58537016D01*
X74517801Y58537016D02*
X74498753Y58546540D01*
X74498753Y58546540D02*
X74489229Y58556064D01*
X74698753Y58556064D02*
X74708277Y58546540D01*
X74708277Y58546540D02*
X74698753Y58537016D01*
X74698753Y58537016D02*
X74689229Y58546540D01*
X74689229Y58546540D02*
X74698753Y58556064D01*
X74698753Y58556064D02*
X74698753Y58537016D01*
X74832086Y58737016D02*
X74851134Y58737016D01*
X74851134Y58737016D02*
X74870182Y58727492D01*
X74870182Y58727492D02*
X74879705Y58717968D01*
X74879705Y58717968D02*
X74889229Y58698921D01*
X74889229Y58698921D02*
X74898753Y58660826D01*
X74898753Y58660826D02*
X74898753Y58613207D01*
X74898753Y58613207D02*
X74889229Y58575111D01*
X74889229Y58575111D02*
X74879705Y58556064D01*
X74879705Y58556064D02*
X74870182Y58546540D01*
X74870182Y58546540D02*
X74851134Y58537016D01*
X74851134Y58537016D02*
X74832086Y58537016D01*
X74832086Y58537016D02*
X74813039Y58546540D01*
X74813039Y58546540D02*
X74803515Y58556064D01*
X74803515Y58556064D02*
X74793991Y58575111D01*
X74793991Y58575111D02*
X74784467Y58613207D01*
X74784467Y58613207D02*
X74784467Y58660826D01*
X74784467Y58660826D02*
X74793991Y58698921D01*
X74793991Y58698921D02*
X74803515Y58717968D01*
X74803515Y58717968D02*
X74813039Y58727492D01*
X74813039Y58727492D02*
X74832086Y58737016D01*
X75070182Y58670349D02*
X75070182Y58537016D01*
X75022563Y58746540D02*
X74974944Y58603683D01*
X74974944Y58603683D02*
X75098753Y58603683D01*
X75203515Y58651302D02*
X75184467Y58660826D01*
X75184467Y58660826D02*
X75174944Y58670349D01*
X75174944Y58670349D02*
X75165420Y58689397D01*
X75165420Y58689397D02*
X75165420Y58698921D01*
X75165420Y58698921D02*
X75174944Y58717968D01*
X75174944Y58717968D02*
X75184467Y58727492D01*
X75184467Y58727492D02*
X75203515Y58737016D01*
X75203515Y58737016D02*
X75241610Y58737016D01*
X75241610Y58737016D02*
X75260658Y58727492D01*
X75260658Y58727492D02*
X75270182Y58717968D01*
X75270182Y58717968D02*
X75279705Y58698921D01*
X75279705Y58698921D02*
X75279705Y58689397D01*
X75279705Y58689397D02*
X75270182Y58670349D01*
X75270182Y58670349D02*
X75260658Y58660826D01*
X75260658Y58660826D02*
X75241610Y58651302D01*
X75241610Y58651302D02*
X75203515Y58651302D01*
X75203515Y58651302D02*
X75184467Y58641778D01*
X75184467Y58641778D02*
X75174944Y58632254D01*
X75174944Y58632254D02*
X75165420Y58613207D01*
X75165420Y58613207D02*
X75165420Y58575111D01*
X75165420Y58575111D02*
X75174944Y58556064D01*
X75174944Y58556064D02*
X75184467Y58546540D01*
X75184467Y58546540D02*
X75203515Y58537016D01*
X75203515Y58537016D02*
X75241610Y58537016D01*
X75241610Y58537016D02*
X75260658Y58546540D01*
X75260658Y58546540D02*
X75270182Y58556064D01*
X75270182Y58556064D02*
X75279705Y58575111D01*
X75279705Y58575111D02*
X75279705Y58613207D01*
X75279705Y58613207D02*
X75270182Y58632254D01*
X75270182Y58632254D02*
X75260658Y58641778D01*
X75260658Y58641778D02*
X75241610Y58651302D01*
X75365420Y58537016D02*
X75365420Y58670349D01*
X75365420Y58651302D02*
X75374944Y58660826D01*
X75374944Y58660826D02*
X75393991Y58670349D01*
X75393991Y58670349D02*
X75422563Y58670349D01*
X75422563Y58670349D02*
X75441610Y58660826D01*
X75441610Y58660826D02*
X75451134Y58641778D01*
X75451134Y58641778D02*
X75451134Y58537016D01*
X75451134Y58641778D02*
X75460658Y58660826D01*
X75460658Y58660826D02*
X75479705Y58670349D01*
X75479705Y58670349D02*
X75508277Y58670349D01*
X75508277Y58670349D02*
X75527325Y58660826D01*
X75527325Y58660826D02*
X75536848Y58641778D01*
X75536848Y58641778D02*
X75536848Y58537016D01*
X75632086Y58537016D02*
X75632086Y58670349D01*
X75632086Y58651302D02*
X75641610Y58660826D01*
X75641610Y58660826D02*
X75660658Y58670349D01*
X75660658Y58670349D02*
X75689229Y58670349D01*
X75689229Y58670349D02*
X75708277Y58660826D01*
X75708277Y58660826D02*
X75717801Y58641778D01*
X75717801Y58641778D02*
X75717801Y58537016D01*
X75717801Y58641778D02*
X75727325Y58660826D01*
X75727325Y58660826D02*
X75746372Y58670349D01*
X75746372Y58670349D02*
X75774944Y58670349D01*
X75774944Y58670349D02*
X75793991Y58660826D01*
X75793991Y58660826D02*
X75803515Y58641778D01*
X75803515Y58641778D02*
X75803515Y58537016D01*
X76193991Y58746540D02*
X76022563Y58489397D01*
X76451134Y58737016D02*
X76470182Y58737016D01*
X76470182Y58737016D02*
X76489229Y58727492D01*
X76489229Y58727492D02*
X76498753Y58717968D01*
X76498753Y58717968D02*
X76508277Y58698921D01*
X76508277Y58698921D02*
X76517801Y58660826D01*
X76517801Y58660826D02*
X76517801Y58613207D01*
X76517801Y58613207D02*
X76508277Y58575111D01*
X76508277Y58575111D02*
X76498753Y58556064D01*
X76498753Y58556064D02*
X76489229Y58546540D01*
X76489229Y58546540D02*
X76470182Y58537016D01*
X76470182Y58537016D02*
X76451134Y58537016D01*
X76451134Y58537016D02*
X76432087Y58546540D01*
X76432087Y58546540D02*
X76422563Y58556064D01*
X76422563Y58556064D02*
X76413039Y58575111D01*
X76413039Y58575111D02*
X76403515Y58613207D01*
X76403515Y58613207D02*
X76403515Y58660826D01*
X76403515Y58660826D02*
X76413039Y58698921D01*
X76413039Y58698921D02*
X76422563Y58717968D01*
X76422563Y58717968D02*
X76432087Y58727492D01*
X76432087Y58727492D02*
X76451134Y58737016D01*
X76603515Y58556064D02*
X76613039Y58546540D01*
X76613039Y58546540D02*
X76603515Y58537016D01*
X76603515Y58537016D02*
X76593991Y58546540D01*
X76593991Y58546540D02*
X76603515Y58556064D01*
X76603515Y58556064D02*
X76603515Y58537016D01*
X76803515Y58537016D02*
X76689229Y58537016D01*
X76746372Y58537016D02*
X76746372Y58737016D01*
X76746372Y58737016D02*
X76727325Y58708445D01*
X76727325Y58708445D02*
X76708277Y58689397D01*
X76708277Y58689397D02*
X76689229Y58679873D01*
X76879706Y58717968D02*
X76889229Y58727492D01*
X76889229Y58727492D02*
X76908277Y58737016D01*
X76908277Y58737016D02*
X76955896Y58737016D01*
X76955896Y58737016D02*
X76974944Y58727492D01*
X76974944Y58727492D02*
X76984468Y58717968D01*
X76984468Y58717968D02*
X76993991Y58698921D01*
X76993991Y58698921D02*
X76993991Y58679873D01*
X76993991Y58679873D02*
X76984468Y58651302D01*
X76984468Y58651302D02*
X76870182Y58537016D01*
X76870182Y58537016D02*
X76993991Y58537016D01*
X77117801Y58737016D02*
X77136849Y58737016D01*
X77136849Y58737016D02*
X77155896Y58727492D01*
X77155896Y58727492D02*
X77165420Y58717968D01*
X77165420Y58717968D02*
X77174944Y58698921D01*
X77174944Y58698921D02*
X77184468Y58660826D01*
X77184468Y58660826D02*
X77184468Y58613207D01*
X77184468Y58613207D02*
X77174944Y58575111D01*
X77174944Y58575111D02*
X77165420Y58556064D01*
X77165420Y58556064D02*
X77155896Y58546540D01*
X77155896Y58546540D02*
X77136849Y58537016D01*
X77136849Y58537016D02*
X77117801Y58537016D01*
X77117801Y58537016D02*
X77098753Y58546540D01*
X77098753Y58546540D02*
X77089229Y58556064D01*
X77089229Y58556064D02*
X77079706Y58575111D01*
X77079706Y58575111D02*
X77070182Y58613207D01*
X77070182Y58613207D02*
X77070182Y58660826D01*
X77070182Y58660826D02*
X77079706Y58698921D01*
X77079706Y58698921D02*
X77089229Y58717968D01*
X77089229Y58717968D02*
X77098753Y58727492D01*
X77098753Y58727492D02*
X77117801Y58737016D01*
X77308277Y58737016D02*
X77327325Y58737016D01*
X77327325Y58737016D02*
X77346372Y58727492D01*
X77346372Y58727492D02*
X77355896Y58717968D01*
X77355896Y58717968D02*
X77365420Y58698921D01*
X77365420Y58698921D02*
X77374944Y58660826D01*
X77374944Y58660826D02*
X77374944Y58613207D01*
X77374944Y58613207D02*
X77365420Y58575111D01*
X77365420Y58575111D02*
X77355896Y58556064D01*
X77355896Y58556064D02*
X77346372Y58546540D01*
X77346372Y58546540D02*
X77327325Y58537016D01*
X77327325Y58537016D02*
X77308277Y58537016D01*
X77308277Y58537016D02*
X77289229Y58546540D01*
X77289229Y58546540D02*
X77279706Y58556064D01*
X77279706Y58556064D02*
X77270182Y58575111D01*
X77270182Y58575111D02*
X77260658Y58613207D01*
X77260658Y58613207D02*
X77260658Y58660826D01*
X77260658Y58660826D02*
X77270182Y58698921D01*
X77270182Y58698921D02*
X77279706Y58717968D01*
X77279706Y58717968D02*
X77289229Y58727492D01*
X77289229Y58727492D02*
X77308277Y58737016D01*
X77451134Y58737016D02*
X77451134Y58698921D01*
X77527325Y58737016D02*
X77527325Y58698921D01*
X77822563Y58460826D02*
X77813039Y58470349D01*
X77813039Y58470349D02*
X77793991Y58498921D01*
X77793991Y58498921D02*
X77784468Y58517968D01*
X77784468Y58517968D02*
X77774944Y58546540D01*
X77774944Y58546540D02*
X77765420Y58594159D01*
X77765420Y58594159D02*
X77765420Y58632254D01*
X77765420Y58632254D02*
X77774944Y58679873D01*
X77774944Y58679873D02*
X77784468Y58708445D01*
X77784468Y58708445D02*
X77793991Y58727492D01*
X77793991Y58727492D02*
X77813039Y58756064D01*
X77813039Y58756064D02*
X77822563Y58765588D01*
X78003515Y58537016D02*
X77889230Y58537016D01*
X77946372Y58537016D02*
X77946372Y58737016D01*
X77946372Y58737016D02*
X77927325Y58708445D01*
X77927325Y58708445D02*
X77908277Y58689397D01*
X77908277Y58689397D02*
X77889230Y58679873D01*
X78127325Y58737016D02*
X78146372Y58737016D01*
X78146372Y58737016D02*
X78165420Y58727492D01*
X78165420Y58727492D02*
X78174944Y58717968D01*
X78174944Y58717968D02*
X78184468Y58698921D01*
X78184468Y58698921D02*
X78193991Y58660826D01*
X78193991Y58660826D02*
X78193991Y58613207D01*
X78193991Y58613207D02*
X78184468Y58575111D01*
X78184468Y58575111D02*
X78174944Y58556064D01*
X78174944Y58556064D02*
X78165420Y58546540D01*
X78165420Y58546540D02*
X78146372Y58537016D01*
X78146372Y58537016D02*
X78127325Y58537016D01*
X78127325Y58537016D02*
X78108277Y58546540D01*
X78108277Y58546540D02*
X78098753Y58556064D01*
X78098753Y58556064D02*
X78089230Y58575111D01*
X78089230Y58575111D02*
X78079706Y58613207D01*
X78079706Y58613207D02*
X78079706Y58660826D01*
X78079706Y58660826D02*
X78089230Y58698921D01*
X78089230Y58698921D02*
X78098753Y58717968D01*
X78098753Y58717968D02*
X78108277Y58727492D01*
X78108277Y58727492D02*
X78127325Y58737016D01*
X78432087Y58537016D02*
X78432087Y58737016D01*
X78517801Y58537016D02*
X78517801Y58641778D01*
X78517801Y58641778D02*
X78508277Y58660826D01*
X78508277Y58660826D02*
X78489230Y58670349D01*
X78489230Y58670349D02*
X78460658Y58670349D01*
X78460658Y58670349D02*
X78441611Y58660826D01*
X78441611Y58660826D02*
X78432087Y58651302D01*
X78641611Y58537016D02*
X78622563Y58546540D01*
X78622563Y58546540D02*
X78613039Y58556064D01*
X78613039Y58556064D02*
X78603515Y58575111D01*
X78603515Y58575111D02*
X78603515Y58632254D01*
X78603515Y58632254D02*
X78613039Y58651302D01*
X78613039Y58651302D02*
X78622563Y58660826D01*
X78622563Y58660826D02*
X78641611Y58670349D01*
X78641611Y58670349D02*
X78670182Y58670349D01*
X78670182Y58670349D02*
X78689230Y58660826D01*
X78689230Y58660826D02*
X78698753Y58651302D01*
X78698753Y58651302D02*
X78708277Y58632254D01*
X78708277Y58632254D02*
X78708277Y58575111D01*
X78708277Y58575111D02*
X78698753Y58556064D01*
X78698753Y58556064D02*
X78689230Y58546540D01*
X78689230Y58546540D02*
X78670182Y58537016D01*
X78670182Y58537016D02*
X78641611Y58537016D01*
X78822563Y58537016D02*
X78803515Y58546540D01*
X78803515Y58546540D02*
X78793992Y58565588D01*
X78793992Y58565588D02*
X78793992Y58737016D01*
X78974944Y58546540D02*
X78955896Y58537016D01*
X78955896Y58537016D02*
X78917801Y58537016D01*
X78917801Y58537016D02*
X78898753Y58546540D01*
X78898753Y58546540D02*
X78889230Y58565588D01*
X78889230Y58565588D02*
X78889230Y58641778D01*
X78889230Y58641778D02*
X78898753Y58660826D01*
X78898753Y58660826D02*
X78917801Y58670349D01*
X78917801Y58670349D02*
X78955896Y58670349D01*
X78955896Y58670349D02*
X78974944Y58660826D01*
X78974944Y58660826D02*
X78984468Y58641778D01*
X78984468Y58641778D02*
X78984468Y58622730D01*
X78984468Y58622730D02*
X78889230Y58603683D01*
X79060658Y58546540D02*
X79079706Y58537016D01*
X79079706Y58537016D02*
X79117801Y58537016D01*
X79117801Y58537016D02*
X79136849Y58546540D01*
X79136849Y58546540D02*
X79146373Y58565588D01*
X79146373Y58565588D02*
X79146373Y58575111D01*
X79146373Y58575111D02*
X79136849Y58594159D01*
X79136849Y58594159D02*
X79117801Y58603683D01*
X79117801Y58603683D02*
X79089230Y58603683D01*
X79089230Y58603683D02*
X79070182Y58613207D01*
X79070182Y58613207D02*
X79060658Y58632254D01*
X79060658Y58632254D02*
X79060658Y58641778D01*
X79060658Y58641778D02*
X79070182Y58660826D01*
X79070182Y58660826D02*
X79089230Y58670349D01*
X79089230Y58670349D02*
X79117801Y58670349D01*
X79117801Y58670349D02*
X79136849Y58660826D01*
X79213039Y58460826D02*
X79222563Y58470349D01*
X79222563Y58470349D02*
X79241611Y58498921D01*
X79241611Y58498921D02*
X79251134Y58517968D01*
X79251134Y58517968D02*
X79260658Y58546540D01*
X79260658Y58546540D02*
X79270182Y58594159D01*
X79270182Y58594159D02*
X79270182Y58632254D01*
X79270182Y58632254D02*
X79260658Y58679873D01*
X79260658Y58679873D02*
X79251134Y58708445D01*
X79251134Y58708445D02*
X79241611Y58727492D01*
X79241611Y58727492D02*
X79222563Y58756064D01*
X79222563Y58756064D02*
X79213039Y58765588D01*
X79574944Y58460826D02*
X79565420Y58470349D01*
X79565420Y58470349D02*
X79546373Y58498921D01*
X79546373Y58498921D02*
X79536849Y58517968D01*
X79536849Y58517968D02*
X79527325Y58546540D01*
X79527325Y58546540D02*
X79517801Y58594159D01*
X79517801Y58594159D02*
X79517801Y58632254D01*
X79517801Y58632254D02*
X79527325Y58679873D01*
X79527325Y58679873D02*
X79536849Y58708445D01*
X79536849Y58708445D02*
X79546373Y58727492D01*
X79546373Y58727492D02*
X79565420Y58756064D01*
X79565420Y58756064D02*
X79574944Y58765588D01*
X79651134Y58670349D02*
X79651134Y58537016D01*
X79651134Y58651302D02*
X79660658Y58660826D01*
X79660658Y58660826D02*
X79679706Y58670349D01*
X79679706Y58670349D02*
X79708277Y58670349D01*
X79708277Y58670349D02*
X79727325Y58660826D01*
X79727325Y58660826D02*
X79736849Y58641778D01*
X79736849Y58641778D02*
X79736849Y58537016D01*
X79860658Y58537016D02*
X79841611Y58546540D01*
X79841611Y58546540D02*
X79832087Y58556064D01*
X79832087Y58556064D02*
X79822563Y58575111D01*
X79822563Y58575111D02*
X79822563Y58632254D01*
X79822563Y58632254D02*
X79832087Y58651302D01*
X79832087Y58651302D02*
X79841611Y58660826D01*
X79841611Y58660826D02*
X79860658Y58670349D01*
X79860658Y58670349D02*
X79889230Y58670349D01*
X79889230Y58670349D02*
X79908277Y58660826D01*
X79908277Y58660826D02*
X79917801Y58651302D01*
X79917801Y58651302D02*
X79927325Y58632254D01*
X79927325Y58632254D02*
X79927325Y58575111D01*
X79927325Y58575111D02*
X79917801Y58556064D01*
X79917801Y58556064D02*
X79908277Y58546540D01*
X79908277Y58546540D02*
X79889230Y58537016D01*
X79889230Y58537016D02*
X79860658Y58537016D01*
X79984468Y58670349D02*
X80060658Y58670349D01*
X80013039Y58737016D02*
X80013039Y58565588D01*
X80013039Y58565588D02*
X80022563Y58546540D01*
X80022563Y58546540D02*
X80041611Y58537016D01*
X80041611Y58537016D02*
X80060658Y58537016D01*
X80279706Y58670349D02*
X80279706Y58470349D01*
X80279706Y58660826D02*
X80298754Y58670349D01*
X80298754Y58670349D02*
X80336849Y58670349D01*
X80336849Y58670349D02*
X80355896Y58660826D01*
X80355896Y58660826D02*
X80365420Y58651302D01*
X80365420Y58651302D02*
X80374944Y58632254D01*
X80374944Y58632254D02*
X80374944Y58575111D01*
X80374944Y58575111D02*
X80365420Y58556064D01*
X80365420Y58556064D02*
X80355896Y58546540D01*
X80355896Y58546540D02*
X80336849Y58537016D01*
X80336849Y58537016D02*
X80298754Y58537016D01*
X80298754Y58537016D02*
X80279706Y58546540D01*
X80489230Y58537016D02*
X80470182Y58546540D01*
X80470182Y58546540D02*
X80460658Y58565588D01*
X80460658Y58565588D02*
X80460658Y58737016D01*
X80651135Y58537016D02*
X80651135Y58641778D01*
X80651135Y58641778D02*
X80641611Y58660826D01*
X80641611Y58660826D02*
X80622563Y58670349D01*
X80622563Y58670349D02*
X80584468Y58670349D01*
X80584468Y58670349D02*
X80565420Y58660826D01*
X80651135Y58546540D02*
X80632087Y58537016D01*
X80632087Y58537016D02*
X80584468Y58537016D01*
X80584468Y58537016D02*
X80565420Y58546540D01*
X80565420Y58546540D02*
X80555896Y58565588D01*
X80555896Y58565588D02*
X80555896Y58584635D01*
X80555896Y58584635D02*
X80565420Y58603683D01*
X80565420Y58603683D02*
X80584468Y58613207D01*
X80584468Y58613207D02*
X80632087Y58613207D01*
X80632087Y58613207D02*
X80651135Y58622730D01*
X80717801Y58670349D02*
X80793992Y58670349D01*
X80746373Y58737016D02*
X80746373Y58565588D01*
X80746373Y58565588D02*
X80755896Y58546540D01*
X80755896Y58546540D02*
X80774944Y58537016D01*
X80774944Y58537016D02*
X80793992Y58537016D01*
X80936849Y58546540D02*
X80917801Y58537016D01*
X80917801Y58537016D02*
X80879706Y58537016D01*
X80879706Y58537016D02*
X80860658Y58546540D01*
X80860658Y58546540D02*
X80851135Y58565588D01*
X80851135Y58565588D02*
X80851135Y58641778D01*
X80851135Y58641778D02*
X80860658Y58660826D01*
X80860658Y58660826D02*
X80879706Y58670349D01*
X80879706Y58670349D02*
X80917801Y58670349D01*
X80917801Y58670349D02*
X80936849Y58660826D01*
X80936849Y58660826D02*
X80946373Y58641778D01*
X80946373Y58641778D02*
X80946373Y58622730D01*
X80946373Y58622730D02*
X80851135Y58603683D01*
X81117801Y58537016D02*
X81117801Y58737016D01*
X81117801Y58546540D02*
X81098754Y58537016D01*
X81098754Y58537016D02*
X81060658Y58537016D01*
X81060658Y58537016D02*
X81041611Y58546540D01*
X81041611Y58546540D02*
X81032087Y58556064D01*
X81032087Y58556064D02*
X81022563Y58575111D01*
X81022563Y58575111D02*
X81022563Y58632254D01*
X81022563Y58632254D02*
X81032087Y58651302D01*
X81032087Y58651302D02*
X81041611Y58660826D01*
X81041611Y58660826D02*
X81060658Y58670349D01*
X81060658Y58670349D02*
X81098754Y58670349D01*
X81098754Y58670349D02*
X81117801Y58660826D01*
X81193992Y58460826D02*
X81203516Y58470349D01*
X81203516Y58470349D02*
X81222563Y58498921D01*
X81222563Y58498921D02*
X81232087Y58517968D01*
X81232087Y58517968D02*
X81241611Y58546540D01*
X81241611Y58546540D02*
X81251135Y58594159D01*
X81251135Y58594159D02*
X81251135Y58632254D01*
X81251135Y58632254D02*
X81241611Y58679873D01*
X81241611Y58679873D02*
X81232087Y58708445D01*
X81232087Y58708445D02*
X81222563Y58727492D01*
X81222563Y58727492D02*
X81203516Y58756064D01*
X81203516Y58756064D02*
X81193992Y58765588D01*
X74218211Y58237789D02*
X74218211Y58379211D01*
X74076789Y58379211D01*
X74076789Y58237789D01*
X74218211Y58237789D01*
X74489229Y58417016D02*
X74613039Y58417016D01*
X74613039Y58417016D02*
X74546372Y58340826D01*
X74546372Y58340826D02*
X74574944Y58340826D01*
X74574944Y58340826D02*
X74593991Y58331302D01*
X74593991Y58331302D02*
X74603515Y58321778D01*
X74603515Y58321778D02*
X74613039Y58302730D01*
X74613039Y58302730D02*
X74613039Y58255111D01*
X74613039Y58255111D02*
X74603515Y58236064D01*
X74603515Y58236064D02*
X74593991Y58226540D01*
X74593991Y58226540D02*
X74574944Y58217016D01*
X74574944Y58217016D02*
X74517801Y58217016D01*
X74517801Y58217016D02*
X74498753Y58226540D01*
X74498753Y58226540D02*
X74489229Y58236064D01*
X74698753Y58236064D02*
X74708277Y58226540D01*
X74708277Y58226540D02*
X74698753Y58217016D01*
X74698753Y58217016D02*
X74689229Y58226540D01*
X74689229Y58226540D02*
X74698753Y58236064D01*
X74698753Y58236064D02*
X74698753Y58217016D01*
X74803515Y58217016D02*
X74841610Y58217016D01*
X74841610Y58217016D02*
X74860658Y58226540D01*
X74860658Y58226540D02*
X74870182Y58236064D01*
X74870182Y58236064D02*
X74889229Y58264635D01*
X74889229Y58264635D02*
X74898753Y58302730D01*
X74898753Y58302730D02*
X74898753Y58378921D01*
X74898753Y58378921D02*
X74889229Y58397968D01*
X74889229Y58397968D02*
X74879705Y58407492D01*
X74879705Y58407492D02*
X74860658Y58417016D01*
X74860658Y58417016D02*
X74822563Y58417016D01*
X74822563Y58417016D02*
X74803515Y58407492D01*
X74803515Y58407492D02*
X74793991Y58397968D01*
X74793991Y58397968D02*
X74784467Y58378921D01*
X74784467Y58378921D02*
X74784467Y58331302D01*
X74784467Y58331302D02*
X74793991Y58312254D01*
X74793991Y58312254D02*
X74803515Y58302730D01*
X74803515Y58302730D02*
X74822563Y58293207D01*
X74822563Y58293207D02*
X74860658Y58293207D01*
X74860658Y58293207D02*
X74879705Y58302730D01*
X74879705Y58302730D02*
X74889229Y58312254D01*
X74889229Y58312254D02*
X74898753Y58331302D01*
X75013039Y58331302D02*
X74993991Y58340826D01*
X74993991Y58340826D02*
X74984467Y58350349D01*
X74984467Y58350349D02*
X74974944Y58369397D01*
X74974944Y58369397D02*
X74974944Y58378921D01*
X74974944Y58378921D02*
X74984467Y58397968D01*
X74984467Y58397968D02*
X74993991Y58407492D01*
X74993991Y58407492D02*
X75013039Y58417016D01*
X75013039Y58417016D02*
X75051134Y58417016D01*
X75051134Y58417016D02*
X75070182Y58407492D01*
X75070182Y58407492D02*
X75079705Y58397968D01*
X75079705Y58397968D02*
X75089229Y58378921D01*
X75089229Y58378921D02*
X75089229Y58369397D01*
X75089229Y58369397D02*
X75079705Y58350349D01*
X75079705Y58350349D02*
X75070182Y58340826D01*
X75070182Y58340826D02*
X75051134Y58331302D01*
X75051134Y58331302D02*
X75013039Y58331302D01*
X75013039Y58331302D02*
X74993991Y58321778D01*
X74993991Y58321778D02*
X74984467Y58312254D01*
X74984467Y58312254D02*
X74974944Y58293207D01*
X74974944Y58293207D02*
X74974944Y58255111D01*
X74974944Y58255111D02*
X74984467Y58236064D01*
X74984467Y58236064D02*
X74993991Y58226540D01*
X74993991Y58226540D02*
X75013039Y58217016D01*
X75013039Y58217016D02*
X75051134Y58217016D01*
X75051134Y58217016D02*
X75070182Y58226540D01*
X75070182Y58226540D02*
X75079705Y58236064D01*
X75079705Y58236064D02*
X75089229Y58255111D01*
X75089229Y58255111D02*
X75089229Y58293207D01*
X75089229Y58293207D02*
X75079705Y58312254D01*
X75079705Y58312254D02*
X75070182Y58321778D01*
X75070182Y58321778D02*
X75051134Y58331302D01*
X75203515Y58331302D02*
X75184467Y58340826D01*
X75184467Y58340826D02*
X75174944Y58350349D01*
X75174944Y58350349D02*
X75165420Y58369397D01*
X75165420Y58369397D02*
X75165420Y58378921D01*
X75165420Y58378921D02*
X75174944Y58397968D01*
X75174944Y58397968D02*
X75184467Y58407492D01*
X75184467Y58407492D02*
X75203515Y58417016D01*
X75203515Y58417016D02*
X75241610Y58417016D01*
X75241610Y58417016D02*
X75260658Y58407492D01*
X75260658Y58407492D02*
X75270182Y58397968D01*
X75270182Y58397968D02*
X75279705Y58378921D01*
X75279705Y58378921D02*
X75279705Y58369397D01*
X75279705Y58369397D02*
X75270182Y58350349D01*
X75270182Y58350349D02*
X75260658Y58340826D01*
X75260658Y58340826D02*
X75241610Y58331302D01*
X75241610Y58331302D02*
X75203515Y58331302D01*
X75203515Y58331302D02*
X75184467Y58321778D01*
X75184467Y58321778D02*
X75174944Y58312254D01*
X75174944Y58312254D02*
X75165420Y58293207D01*
X75165420Y58293207D02*
X75165420Y58255111D01*
X75165420Y58255111D02*
X75174944Y58236064D01*
X75174944Y58236064D02*
X75184467Y58226540D01*
X75184467Y58226540D02*
X75203515Y58217016D01*
X75203515Y58217016D02*
X75241610Y58217016D01*
X75241610Y58217016D02*
X75260658Y58226540D01*
X75260658Y58226540D02*
X75270182Y58236064D01*
X75270182Y58236064D02*
X75279705Y58255111D01*
X75279705Y58255111D02*
X75279705Y58293207D01*
X75279705Y58293207D02*
X75270182Y58312254D01*
X75270182Y58312254D02*
X75260658Y58321778D01*
X75260658Y58321778D02*
X75241610Y58331302D01*
X75365420Y58217016D02*
X75365420Y58350349D01*
X75365420Y58331302D02*
X75374944Y58340826D01*
X75374944Y58340826D02*
X75393991Y58350349D01*
X75393991Y58350349D02*
X75422563Y58350349D01*
X75422563Y58350349D02*
X75441610Y58340826D01*
X75441610Y58340826D02*
X75451134Y58321778D01*
X75451134Y58321778D02*
X75451134Y58217016D01*
X75451134Y58321778D02*
X75460658Y58340826D01*
X75460658Y58340826D02*
X75479705Y58350349D01*
X75479705Y58350349D02*
X75508277Y58350349D01*
X75508277Y58350349D02*
X75527325Y58340826D01*
X75527325Y58340826D02*
X75536848Y58321778D01*
X75536848Y58321778D02*
X75536848Y58217016D01*
X75632086Y58217016D02*
X75632086Y58350349D01*
X75632086Y58331302D02*
X75641610Y58340826D01*
X75641610Y58340826D02*
X75660658Y58350349D01*
X75660658Y58350349D02*
X75689229Y58350349D01*
X75689229Y58350349D02*
X75708277Y58340826D01*
X75708277Y58340826D02*
X75717801Y58321778D01*
X75717801Y58321778D02*
X75717801Y58217016D01*
X75717801Y58321778D02*
X75727325Y58340826D01*
X75727325Y58340826D02*
X75746372Y58350349D01*
X75746372Y58350349D02*
X75774944Y58350349D01*
X75774944Y58350349D02*
X75793991Y58340826D01*
X75793991Y58340826D02*
X75803515Y58321778D01*
X75803515Y58321778D02*
X75803515Y58217016D01*
X76193991Y58426540D02*
X76022563Y58169397D01*
X76451134Y58417016D02*
X76470182Y58417016D01*
X76470182Y58417016D02*
X76489229Y58407492D01*
X76489229Y58407492D02*
X76498753Y58397968D01*
X76498753Y58397968D02*
X76508277Y58378921D01*
X76508277Y58378921D02*
X76517801Y58340826D01*
X76517801Y58340826D02*
X76517801Y58293207D01*
X76517801Y58293207D02*
X76508277Y58255111D01*
X76508277Y58255111D02*
X76498753Y58236064D01*
X76498753Y58236064D02*
X76489229Y58226540D01*
X76489229Y58226540D02*
X76470182Y58217016D01*
X76470182Y58217016D02*
X76451134Y58217016D01*
X76451134Y58217016D02*
X76432087Y58226540D01*
X76432087Y58226540D02*
X76422563Y58236064D01*
X76422563Y58236064D02*
X76413039Y58255111D01*
X76413039Y58255111D02*
X76403515Y58293207D01*
X76403515Y58293207D02*
X76403515Y58340826D01*
X76403515Y58340826D02*
X76413039Y58378921D01*
X76413039Y58378921D02*
X76422563Y58397968D01*
X76422563Y58397968D02*
X76432087Y58407492D01*
X76432087Y58407492D02*
X76451134Y58417016D01*
X76603515Y58236064D02*
X76613039Y58226540D01*
X76613039Y58226540D02*
X76603515Y58217016D01*
X76603515Y58217016D02*
X76593991Y58226540D01*
X76593991Y58226540D02*
X76603515Y58236064D01*
X76603515Y58236064D02*
X76603515Y58217016D01*
X76803515Y58217016D02*
X76689229Y58217016D01*
X76746372Y58217016D02*
X76746372Y58417016D01*
X76746372Y58417016D02*
X76727325Y58388445D01*
X76727325Y58388445D02*
X76708277Y58369397D01*
X76708277Y58369397D02*
X76689229Y58359873D01*
X76984468Y58417016D02*
X76889229Y58417016D01*
X76889229Y58417016D02*
X76879706Y58321778D01*
X76879706Y58321778D02*
X76889229Y58331302D01*
X76889229Y58331302D02*
X76908277Y58340826D01*
X76908277Y58340826D02*
X76955896Y58340826D01*
X76955896Y58340826D02*
X76974944Y58331302D01*
X76974944Y58331302D02*
X76984468Y58321778D01*
X76984468Y58321778D02*
X76993991Y58302730D01*
X76993991Y58302730D02*
X76993991Y58255111D01*
X76993991Y58255111D02*
X76984468Y58236064D01*
X76984468Y58236064D02*
X76974944Y58226540D01*
X76974944Y58226540D02*
X76955896Y58217016D01*
X76955896Y58217016D02*
X76908277Y58217016D01*
X76908277Y58217016D02*
X76889229Y58226540D01*
X76889229Y58226540D02*
X76879706Y58236064D01*
X77060658Y58417016D02*
X77193991Y58417016D01*
X77193991Y58417016D02*
X77108277Y58217016D01*
X77308277Y58417016D02*
X77327325Y58417016D01*
X77327325Y58417016D02*
X77346372Y58407492D01*
X77346372Y58407492D02*
X77355896Y58397968D01*
X77355896Y58397968D02*
X77365420Y58378921D01*
X77365420Y58378921D02*
X77374944Y58340826D01*
X77374944Y58340826D02*
X77374944Y58293207D01*
X77374944Y58293207D02*
X77365420Y58255111D01*
X77365420Y58255111D02*
X77355896Y58236064D01*
X77355896Y58236064D02*
X77346372Y58226540D01*
X77346372Y58226540D02*
X77327325Y58217016D01*
X77327325Y58217016D02*
X77308277Y58217016D01*
X77308277Y58217016D02*
X77289229Y58226540D01*
X77289229Y58226540D02*
X77279706Y58236064D01*
X77279706Y58236064D02*
X77270182Y58255111D01*
X77270182Y58255111D02*
X77260658Y58293207D01*
X77260658Y58293207D02*
X77260658Y58340826D01*
X77260658Y58340826D02*
X77270182Y58378921D01*
X77270182Y58378921D02*
X77279706Y58397968D01*
X77279706Y58397968D02*
X77289229Y58407492D01*
X77289229Y58407492D02*
X77308277Y58417016D01*
X77451134Y58417016D02*
X77451134Y58378921D01*
X77527325Y58417016D02*
X77527325Y58378921D01*
X77822563Y58140826D02*
X77813039Y58150349D01*
X77813039Y58150349D02*
X77793991Y58178921D01*
X77793991Y58178921D02*
X77784468Y58197968D01*
X77784468Y58197968D02*
X77774944Y58226540D01*
X77774944Y58226540D02*
X77765420Y58274159D01*
X77765420Y58274159D02*
X77765420Y58312254D01*
X77765420Y58312254D02*
X77774944Y58359873D01*
X77774944Y58359873D02*
X77784468Y58388445D01*
X77784468Y58388445D02*
X77793991Y58407492D01*
X77793991Y58407492D02*
X77813039Y58436064D01*
X77813039Y58436064D02*
X77822563Y58445588D01*
X78003515Y58217016D02*
X77889230Y58217016D01*
X77946372Y58217016D02*
X77946372Y58417016D01*
X77946372Y58417016D02*
X77927325Y58388445D01*
X77927325Y58388445D02*
X77908277Y58369397D01*
X77908277Y58369397D02*
X77889230Y58359873D01*
X78127325Y58417016D02*
X78146372Y58417016D01*
X78146372Y58417016D02*
X78165420Y58407492D01*
X78165420Y58407492D02*
X78174944Y58397968D01*
X78174944Y58397968D02*
X78184468Y58378921D01*
X78184468Y58378921D02*
X78193991Y58340826D01*
X78193991Y58340826D02*
X78193991Y58293207D01*
X78193991Y58293207D02*
X78184468Y58255111D01*
X78184468Y58255111D02*
X78174944Y58236064D01*
X78174944Y58236064D02*
X78165420Y58226540D01*
X78165420Y58226540D02*
X78146372Y58217016D01*
X78146372Y58217016D02*
X78127325Y58217016D01*
X78127325Y58217016D02*
X78108277Y58226540D01*
X78108277Y58226540D02*
X78098753Y58236064D01*
X78098753Y58236064D02*
X78089230Y58255111D01*
X78089230Y58255111D02*
X78079706Y58293207D01*
X78079706Y58293207D02*
X78079706Y58340826D01*
X78079706Y58340826D02*
X78089230Y58378921D01*
X78089230Y58378921D02*
X78098753Y58397968D01*
X78098753Y58397968D02*
X78108277Y58407492D01*
X78108277Y58407492D02*
X78127325Y58417016D01*
X78432087Y58217016D02*
X78432087Y58417016D01*
X78517801Y58217016D02*
X78517801Y58321778D01*
X78517801Y58321778D02*
X78508277Y58340826D01*
X78508277Y58340826D02*
X78489230Y58350349D01*
X78489230Y58350349D02*
X78460658Y58350349D01*
X78460658Y58350349D02*
X78441611Y58340826D01*
X78441611Y58340826D02*
X78432087Y58331302D01*
X78641611Y58217016D02*
X78622563Y58226540D01*
X78622563Y58226540D02*
X78613039Y58236064D01*
X78613039Y58236064D02*
X78603515Y58255111D01*
X78603515Y58255111D02*
X78603515Y58312254D01*
X78603515Y58312254D02*
X78613039Y58331302D01*
X78613039Y58331302D02*
X78622563Y58340826D01*
X78622563Y58340826D02*
X78641611Y58350349D01*
X78641611Y58350349D02*
X78670182Y58350349D01*
X78670182Y58350349D02*
X78689230Y58340826D01*
X78689230Y58340826D02*
X78698753Y58331302D01*
X78698753Y58331302D02*
X78708277Y58312254D01*
X78708277Y58312254D02*
X78708277Y58255111D01*
X78708277Y58255111D02*
X78698753Y58236064D01*
X78698753Y58236064D02*
X78689230Y58226540D01*
X78689230Y58226540D02*
X78670182Y58217016D01*
X78670182Y58217016D02*
X78641611Y58217016D01*
X78822563Y58217016D02*
X78803515Y58226540D01*
X78803515Y58226540D02*
X78793992Y58245588D01*
X78793992Y58245588D02*
X78793992Y58417016D01*
X78974944Y58226540D02*
X78955896Y58217016D01*
X78955896Y58217016D02*
X78917801Y58217016D01*
X78917801Y58217016D02*
X78898753Y58226540D01*
X78898753Y58226540D02*
X78889230Y58245588D01*
X78889230Y58245588D02*
X78889230Y58321778D01*
X78889230Y58321778D02*
X78898753Y58340826D01*
X78898753Y58340826D02*
X78917801Y58350349D01*
X78917801Y58350349D02*
X78955896Y58350349D01*
X78955896Y58350349D02*
X78974944Y58340826D01*
X78974944Y58340826D02*
X78984468Y58321778D01*
X78984468Y58321778D02*
X78984468Y58302730D01*
X78984468Y58302730D02*
X78889230Y58283683D01*
X79060658Y58226540D02*
X79079706Y58217016D01*
X79079706Y58217016D02*
X79117801Y58217016D01*
X79117801Y58217016D02*
X79136849Y58226540D01*
X79136849Y58226540D02*
X79146373Y58245588D01*
X79146373Y58245588D02*
X79146373Y58255111D01*
X79146373Y58255111D02*
X79136849Y58274159D01*
X79136849Y58274159D02*
X79117801Y58283683D01*
X79117801Y58283683D02*
X79089230Y58283683D01*
X79089230Y58283683D02*
X79070182Y58293207D01*
X79070182Y58293207D02*
X79060658Y58312254D01*
X79060658Y58312254D02*
X79060658Y58321778D01*
X79060658Y58321778D02*
X79070182Y58340826D01*
X79070182Y58340826D02*
X79089230Y58350349D01*
X79089230Y58350349D02*
X79117801Y58350349D01*
X79117801Y58350349D02*
X79136849Y58340826D01*
X79213039Y58140826D02*
X79222563Y58150349D01*
X79222563Y58150349D02*
X79241611Y58178921D01*
X79241611Y58178921D02*
X79251134Y58197968D01*
X79251134Y58197968D02*
X79260658Y58226540D01*
X79260658Y58226540D02*
X79270182Y58274159D01*
X79270182Y58274159D02*
X79270182Y58312254D01*
X79270182Y58312254D02*
X79260658Y58359873D01*
X79260658Y58359873D02*
X79251134Y58388445D01*
X79251134Y58388445D02*
X79241611Y58407492D01*
X79241611Y58407492D02*
X79222563Y58436064D01*
X79222563Y58436064D02*
X79213039Y58445588D01*
X79574944Y58140826D02*
X79565420Y58150349D01*
X79565420Y58150349D02*
X79546373Y58178921D01*
X79546373Y58178921D02*
X79536849Y58197968D01*
X79536849Y58197968D02*
X79527325Y58226540D01*
X79527325Y58226540D02*
X79517801Y58274159D01*
X79517801Y58274159D02*
X79517801Y58312254D01*
X79517801Y58312254D02*
X79527325Y58359873D01*
X79527325Y58359873D02*
X79536849Y58388445D01*
X79536849Y58388445D02*
X79546373Y58407492D01*
X79546373Y58407492D02*
X79565420Y58436064D01*
X79565420Y58436064D02*
X79574944Y58445588D01*
X79651134Y58350349D02*
X79651134Y58217016D01*
X79651134Y58331302D02*
X79660658Y58340826D01*
X79660658Y58340826D02*
X79679706Y58350349D01*
X79679706Y58350349D02*
X79708277Y58350349D01*
X79708277Y58350349D02*
X79727325Y58340826D01*
X79727325Y58340826D02*
X79736849Y58321778D01*
X79736849Y58321778D02*
X79736849Y58217016D01*
X79860658Y58217016D02*
X79841611Y58226540D01*
X79841611Y58226540D02*
X79832087Y58236064D01*
X79832087Y58236064D02*
X79822563Y58255111D01*
X79822563Y58255111D02*
X79822563Y58312254D01*
X79822563Y58312254D02*
X79832087Y58331302D01*
X79832087Y58331302D02*
X79841611Y58340826D01*
X79841611Y58340826D02*
X79860658Y58350349D01*
X79860658Y58350349D02*
X79889230Y58350349D01*
X79889230Y58350349D02*
X79908277Y58340826D01*
X79908277Y58340826D02*
X79917801Y58331302D01*
X79917801Y58331302D02*
X79927325Y58312254D01*
X79927325Y58312254D02*
X79927325Y58255111D01*
X79927325Y58255111D02*
X79917801Y58236064D01*
X79917801Y58236064D02*
X79908277Y58226540D01*
X79908277Y58226540D02*
X79889230Y58217016D01*
X79889230Y58217016D02*
X79860658Y58217016D01*
X79984468Y58350349D02*
X80060658Y58350349D01*
X80013039Y58417016D02*
X80013039Y58245588D01*
X80013039Y58245588D02*
X80022563Y58226540D01*
X80022563Y58226540D02*
X80041611Y58217016D01*
X80041611Y58217016D02*
X80060658Y58217016D01*
X80279706Y58350349D02*
X80279706Y58150349D01*
X80279706Y58340826D02*
X80298754Y58350349D01*
X80298754Y58350349D02*
X80336849Y58350349D01*
X80336849Y58350349D02*
X80355896Y58340826D01*
X80355896Y58340826D02*
X80365420Y58331302D01*
X80365420Y58331302D02*
X80374944Y58312254D01*
X80374944Y58312254D02*
X80374944Y58255111D01*
X80374944Y58255111D02*
X80365420Y58236064D01*
X80365420Y58236064D02*
X80355896Y58226540D01*
X80355896Y58226540D02*
X80336849Y58217016D01*
X80336849Y58217016D02*
X80298754Y58217016D01*
X80298754Y58217016D02*
X80279706Y58226540D01*
X80489230Y58217016D02*
X80470182Y58226540D01*
X80470182Y58226540D02*
X80460658Y58245588D01*
X80460658Y58245588D02*
X80460658Y58417016D01*
X80651135Y58217016D02*
X80651135Y58321778D01*
X80651135Y58321778D02*
X80641611Y58340826D01*
X80641611Y58340826D02*
X80622563Y58350349D01*
X80622563Y58350349D02*
X80584468Y58350349D01*
X80584468Y58350349D02*
X80565420Y58340826D01*
X80651135Y58226540D02*
X80632087Y58217016D01*
X80632087Y58217016D02*
X80584468Y58217016D01*
X80584468Y58217016D02*
X80565420Y58226540D01*
X80565420Y58226540D02*
X80555896Y58245588D01*
X80555896Y58245588D02*
X80555896Y58264635D01*
X80555896Y58264635D02*
X80565420Y58283683D01*
X80565420Y58283683D02*
X80584468Y58293207D01*
X80584468Y58293207D02*
X80632087Y58293207D01*
X80632087Y58293207D02*
X80651135Y58302730D01*
X80717801Y58350349D02*
X80793992Y58350349D01*
X80746373Y58417016D02*
X80746373Y58245588D01*
X80746373Y58245588D02*
X80755896Y58226540D01*
X80755896Y58226540D02*
X80774944Y58217016D01*
X80774944Y58217016D02*
X80793992Y58217016D01*
X80936849Y58226540D02*
X80917801Y58217016D01*
X80917801Y58217016D02*
X80879706Y58217016D01*
X80879706Y58217016D02*
X80860658Y58226540D01*
X80860658Y58226540D02*
X80851135Y58245588D01*
X80851135Y58245588D02*
X80851135Y58321778D01*
X80851135Y58321778D02*
X80860658Y58340826D01*
X80860658Y58340826D02*
X80879706Y58350349D01*
X80879706Y58350349D02*
X80917801Y58350349D01*
X80917801Y58350349D02*
X80936849Y58340826D01*
X80936849Y58340826D02*
X80946373Y58321778D01*
X80946373Y58321778D02*
X80946373Y58302730D01*
X80946373Y58302730D02*
X80851135Y58283683D01*
X81117801Y58217016D02*
X81117801Y58417016D01*
X81117801Y58226540D02*
X81098754Y58217016D01*
X81098754Y58217016D02*
X81060658Y58217016D01*
X81060658Y58217016D02*
X81041611Y58226540D01*
X81041611Y58226540D02*
X81032087Y58236064D01*
X81032087Y58236064D02*
X81022563Y58255111D01*
X81022563Y58255111D02*
X81022563Y58312254D01*
X81022563Y58312254D02*
X81032087Y58331302D01*
X81032087Y58331302D02*
X81041611Y58340826D01*
X81041611Y58340826D02*
X81060658Y58350349D01*
X81060658Y58350349D02*
X81098754Y58350349D01*
X81098754Y58350349D02*
X81117801Y58340826D01*
X81193992Y58140826D02*
X81203516Y58150349D01*
X81203516Y58150349D02*
X81222563Y58178921D01*
X81222563Y58178921D02*
X81232087Y58197968D01*
X81232087Y58197968D02*
X81241611Y58226540D01*
X81241611Y58226540D02*
X81251135Y58274159D01*
X81251135Y58274159D02*
X81251135Y58312254D01*
X81251135Y58312254D02*
X81241611Y58359873D01*
X81241611Y58359873D02*
X81232087Y58388445D01*
X81232087Y58388445D02*
X81222563Y58407492D01*
X81222563Y58407492D02*
X81203516Y58436064D01*
X81203516Y58436064D02*
X81193992Y58445588D01*
X74147500Y57888500D02*
X74247500Y57988500D01*
X74147500Y58088500D01*
X74047500Y57988500D01*
X74147500Y57888500D01*
X74593991Y58030349D02*
X74593991Y57897016D01*
X74546372Y58106540D02*
X74498753Y57963683D01*
X74498753Y57963683D02*
X74622563Y57963683D01*
X74698753Y57916064D02*
X74708277Y57906540D01*
X74708277Y57906540D02*
X74698753Y57897016D01*
X74698753Y57897016D02*
X74689229Y57906540D01*
X74689229Y57906540D02*
X74698753Y57916064D01*
X74698753Y57916064D02*
X74698753Y57897016D01*
X74832086Y58097016D02*
X74851134Y58097016D01*
X74851134Y58097016D02*
X74870182Y58087492D01*
X74870182Y58087492D02*
X74879705Y58077968D01*
X74879705Y58077968D02*
X74889229Y58058921D01*
X74889229Y58058921D02*
X74898753Y58020826D01*
X74898753Y58020826D02*
X74898753Y57973207D01*
X74898753Y57973207D02*
X74889229Y57935111D01*
X74889229Y57935111D02*
X74879705Y57916064D01*
X74879705Y57916064D02*
X74870182Y57906540D01*
X74870182Y57906540D02*
X74851134Y57897016D01*
X74851134Y57897016D02*
X74832086Y57897016D01*
X74832086Y57897016D02*
X74813039Y57906540D01*
X74813039Y57906540D02*
X74803515Y57916064D01*
X74803515Y57916064D02*
X74793991Y57935111D01*
X74793991Y57935111D02*
X74784467Y57973207D01*
X74784467Y57973207D02*
X74784467Y58020826D01*
X74784467Y58020826D02*
X74793991Y58058921D01*
X74793991Y58058921D02*
X74803515Y58077968D01*
X74803515Y58077968D02*
X74813039Y58087492D01*
X74813039Y58087492D02*
X74832086Y58097016D01*
X75022563Y58097016D02*
X75041610Y58097016D01*
X75041610Y58097016D02*
X75060658Y58087492D01*
X75060658Y58087492D02*
X75070182Y58077968D01*
X75070182Y58077968D02*
X75079705Y58058921D01*
X75079705Y58058921D02*
X75089229Y58020826D01*
X75089229Y58020826D02*
X75089229Y57973207D01*
X75089229Y57973207D02*
X75079705Y57935111D01*
X75079705Y57935111D02*
X75070182Y57916064D01*
X75070182Y57916064D02*
X75060658Y57906540D01*
X75060658Y57906540D02*
X75041610Y57897016D01*
X75041610Y57897016D02*
X75022563Y57897016D01*
X75022563Y57897016D02*
X75003515Y57906540D01*
X75003515Y57906540D02*
X74993991Y57916064D01*
X74993991Y57916064D02*
X74984467Y57935111D01*
X74984467Y57935111D02*
X74974944Y57973207D01*
X74974944Y57973207D02*
X74974944Y58020826D01*
X74974944Y58020826D02*
X74984467Y58058921D01*
X74984467Y58058921D02*
X74993991Y58077968D01*
X74993991Y58077968D02*
X75003515Y58087492D01*
X75003515Y58087492D02*
X75022563Y58097016D01*
X75213039Y58097016D02*
X75232086Y58097016D01*
X75232086Y58097016D02*
X75251134Y58087492D01*
X75251134Y58087492D02*
X75260658Y58077968D01*
X75260658Y58077968D02*
X75270182Y58058921D01*
X75270182Y58058921D02*
X75279705Y58020826D01*
X75279705Y58020826D02*
X75279705Y57973207D01*
X75279705Y57973207D02*
X75270182Y57935111D01*
X75270182Y57935111D02*
X75260658Y57916064D01*
X75260658Y57916064D02*
X75251134Y57906540D01*
X75251134Y57906540D02*
X75232086Y57897016D01*
X75232086Y57897016D02*
X75213039Y57897016D01*
X75213039Y57897016D02*
X75193991Y57906540D01*
X75193991Y57906540D02*
X75184467Y57916064D01*
X75184467Y57916064D02*
X75174944Y57935111D01*
X75174944Y57935111D02*
X75165420Y57973207D01*
X75165420Y57973207D02*
X75165420Y58020826D01*
X75165420Y58020826D02*
X75174944Y58058921D01*
X75174944Y58058921D02*
X75184467Y58077968D01*
X75184467Y58077968D02*
X75193991Y58087492D01*
X75193991Y58087492D02*
X75213039Y58097016D01*
X75365420Y57897016D02*
X75365420Y58030349D01*
X75365420Y58011302D02*
X75374944Y58020826D01*
X75374944Y58020826D02*
X75393991Y58030349D01*
X75393991Y58030349D02*
X75422563Y58030349D01*
X75422563Y58030349D02*
X75441610Y58020826D01*
X75441610Y58020826D02*
X75451134Y58001778D01*
X75451134Y58001778D02*
X75451134Y57897016D01*
X75451134Y58001778D02*
X75460658Y58020826D01*
X75460658Y58020826D02*
X75479705Y58030349D01*
X75479705Y58030349D02*
X75508277Y58030349D01*
X75508277Y58030349D02*
X75527325Y58020826D01*
X75527325Y58020826D02*
X75536848Y58001778D01*
X75536848Y58001778D02*
X75536848Y57897016D01*
X75632086Y57897016D02*
X75632086Y58030349D01*
X75632086Y58011302D02*
X75641610Y58020826D01*
X75641610Y58020826D02*
X75660658Y58030349D01*
X75660658Y58030349D02*
X75689229Y58030349D01*
X75689229Y58030349D02*
X75708277Y58020826D01*
X75708277Y58020826D02*
X75717801Y58001778D01*
X75717801Y58001778D02*
X75717801Y57897016D01*
X75717801Y58001778D02*
X75727325Y58020826D01*
X75727325Y58020826D02*
X75746372Y58030349D01*
X75746372Y58030349D02*
X75774944Y58030349D01*
X75774944Y58030349D02*
X75793991Y58020826D01*
X75793991Y58020826D02*
X75803515Y58001778D01*
X75803515Y58001778D02*
X75803515Y57897016D01*
X76193991Y58106540D02*
X76022563Y57849397D01*
X76451134Y58097016D02*
X76470182Y58097016D01*
X76470182Y58097016D02*
X76489229Y58087492D01*
X76489229Y58087492D02*
X76498753Y58077968D01*
X76498753Y58077968D02*
X76508277Y58058921D01*
X76508277Y58058921D02*
X76517801Y58020826D01*
X76517801Y58020826D02*
X76517801Y57973207D01*
X76517801Y57973207D02*
X76508277Y57935111D01*
X76508277Y57935111D02*
X76498753Y57916064D01*
X76498753Y57916064D02*
X76489229Y57906540D01*
X76489229Y57906540D02*
X76470182Y57897016D01*
X76470182Y57897016D02*
X76451134Y57897016D01*
X76451134Y57897016D02*
X76432087Y57906540D01*
X76432087Y57906540D02*
X76422563Y57916064D01*
X76422563Y57916064D02*
X76413039Y57935111D01*
X76413039Y57935111D02*
X76403515Y57973207D01*
X76403515Y57973207D02*
X76403515Y58020826D01*
X76403515Y58020826D02*
X76413039Y58058921D01*
X76413039Y58058921D02*
X76422563Y58077968D01*
X76422563Y58077968D02*
X76432087Y58087492D01*
X76432087Y58087492D02*
X76451134Y58097016D01*
X76603515Y57916064D02*
X76613039Y57906540D01*
X76613039Y57906540D02*
X76603515Y57897016D01*
X76603515Y57897016D02*
X76593991Y57906540D01*
X76593991Y57906540D02*
X76603515Y57916064D01*
X76603515Y57916064D02*
X76603515Y57897016D01*
X76803515Y57897016D02*
X76689229Y57897016D01*
X76746372Y57897016D02*
X76746372Y58097016D01*
X76746372Y58097016D02*
X76727325Y58068445D01*
X76727325Y58068445D02*
X76708277Y58049397D01*
X76708277Y58049397D02*
X76689229Y58039873D01*
X76984468Y58097016D02*
X76889229Y58097016D01*
X76889229Y58097016D02*
X76879706Y58001778D01*
X76879706Y58001778D02*
X76889229Y58011302D01*
X76889229Y58011302D02*
X76908277Y58020826D01*
X76908277Y58020826D02*
X76955896Y58020826D01*
X76955896Y58020826D02*
X76974944Y58011302D01*
X76974944Y58011302D02*
X76984468Y58001778D01*
X76984468Y58001778D02*
X76993991Y57982730D01*
X76993991Y57982730D02*
X76993991Y57935111D01*
X76993991Y57935111D02*
X76984468Y57916064D01*
X76984468Y57916064D02*
X76974944Y57906540D01*
X76974944Y57906540D02*
X76955896Y57897016D01*
X76955896Y57897016D02*
X76908277Y57897016D01*
X76908277Y57897016D02*
X76889229Y57906540D01*
X76889229Y57906540D02*
X76879706Y57916064D01*
X77060658Y58097016D02*
X77193991Y58097016D01*
X77193991Y58097016D02*
X77108277Y57897016D01*
X77365420Y58097016D02*
X77270182Y58097016D01*
X77270182Y58097016D02*
X77260658Y58001778D01*
X77260658Y58001778D02*
X77270182Y58011302D01*
X77270182Y58011302D02*
X77289229Y58020826D01*
X77289229Y58020826D02*
X77336849Y58020826D01*
X77336849Y58020826D02*
X77355896Y58011302D01*
X77355896Y58011302D02*
X77365420Y58001778D01*
X77365420Y58001778D02*
X77374944Y57982730D01*
X77374944Y57982730D02*
X77374944Y57935111D01*
X77374944Y57935111D02*
X77365420Y57916064D01*
X77365420Y57916064D02*
X77355896Y57906540D01*
X77355896Y57906540D02*
X77336849Y57897016D01*
X77336849Y57897016D02*
X77289229Y57897016D01*
X77289229Y57897016D02*
X77270182Y57906540D01*
X77270182Y57906540D02*
X77260658Y57916064D01*
X77451134Y58097016D02*
X77451134Y58058921D01*
X77527325Y58097016D02*
X77527325Y58058921D01*
X77822563Y57820826D02*
X77813039Y57830349D01*
X77813039Y57830349D02*
X77793991Y57858921D01*
X77793991Y57858921D02*
X77784468Y57877968D01*
X77784468Y57877968D02*
X77774944Y57906540D01*
X77774944Y57906540D02*
X77765420Y57954159D01*
X77765420Y57954159D02*
X77765420Y57992254D01*
X77765420Y57992254D02*
X77774944Y58039873D01*
X77774944Y58039873D02*
X77784468Y58068445D01*
X77784468Y58068445D02*
X77793991Y58087492D01*
X77793991Y58087492D02*
X77813039Y58116064D01*
X77813039Y58116064D02*
X77822563Y58125588D01*
X77927325Y58011302D02*
X77908277Y58020826D01*
X77908277Y58020826D02*
X77898753Y58030349D01*
X77898753Y58030349D02*
X77889230Y58049397D01*
X77889230Y58049397D02*
X77889230Y58058921D01*
X77889230Y58058921D02*
X77898753Y58077968D01*
X77898753Y58077968D02*
X77908277Y58087492D01*
X77908277Y58087492D02*
X77927325Y58097016D01*
X77927325Y58097016D02*
X77965420Y58097016D01*
X77965420Y58097016D02*
X77984468Y58087492D01*
X77984468Y58087492D02*
X77993991Y58077968D01*
X77993991Y58077968D02*
X78003515Y58058921D01*
X78003515Y58058921D02*
X78003515Y58049397D01*
X78003515Y58049397D02*
X77993991Y58030349D01*
X77993991Y58030349D02*
X77984468Y58020826D01*
X77984468Y58020826D02*
X77965420Y58011302D01*
X77965420Y58011302D02*
X77927325Y58011302D01*
X77927325Y58011302D02*
X77908277Y58001778D01*
X77908277Y58001778D02*
X77898753Y57992254D01*
X77898753Y57992254D02*
X77889230Y57973207D01*
X77889230Y57973207D02*
X77889230Y57935111D01*
X77889230Y57935111D02*
X77898753Y57916064D01*
X77898753Y57916064D02*
X77908277Y57906540D01*
X77908277Y57906540D02*
X77927325Y57897016D01*
X77927325Y57897016D02*
X77965420Y57897016D01*
X77965420Y57897016D02*
X77984468Y57906540D01*
X77984468Y57906540D02*
X77993991Y57916064D01*
X77993991Y57916064D02*
X78003515Y57935111D01*
X78003515Y57935111D02*
X78003515Y57973207D01*
X78003515Y57973207D02*
X77993991Y57992254D01*
X77993991Y57992254D02*
X77984468Y58001778D01*
X77984468Y58001778D02*
X77965420Y58011302D01*
X78070182Y58097016D02*
X78203515Y58097016D01*
X78203515Y58097016D02*
X78117801Y57897016D01*
X78432087Y57897016D02*
X78432087Y58097016D01*
X78517801Y57897016D02*
X78517801Y58001778D01*
X78517801Y58001778D02*
X78508277Y58020826D01*
X78508277Y58020826D02*
X78489230Y58030349D01*
X78489230Y58030349D02*
X78460658Y58030349D01*
X78460658Y58030349D02*
X78441611Y58020826D01*
X78441611Y58020826D02*
X78432087Y58011302D01*
X78641611Y57897016D02*
X78622563Y57906540D01*
X78622563Y57906540D02*
X78613039Y57916064D01*
X78613039Y57916064D02*
X78603515Y57935111D01*
X78603515Y57935111D02*
X78603515Y57992254D01*
X78603515Y57992254D02*
X78613039Y58011302D01*
X78613039Y58011302D02*
X78622563Y58020826D01*
X78622563Y58020826D02*
X78641611Y58030349D01*
X78641611Y58030349D02*
X78670182Y58030349D01*
X78670182Y58030349D02*
X78689230Y58020826D01*
X78689230Y58020826D02*
X78698753Y58011302D01*
X78698753Y58011302D02*
X78708277Y57992254D01*
X78708277Y57992254D02*
X78708277Y57935111D01*
X78708277Y57935111D02*
X78698753Y57916064D01*
X78698753Y57916064D02*
X78689230Y57906540D01*
X78689230Y57906540D02*
X78670182Y57897016D01*
X78670182Y57897016D02*
X78641611Y57897016D01*
X78822563Y57897016D02*
X78803515Y57906540D01*
X78803515Y57906540D02*
X78793992Y57925588D01*
X78793992Y57925588D02*
X78793992Y58097016D01*
X78974944Y57906540D02*
X78955896Y57897016D01*
X78955896Y57897016D02*
X78917801Y57897016D01*
X78917801Y57897016D02*
X78898753Y57906540D01*
X78898753Y57906540D02*
X78889230Y57925588D01*
X78889230Y57925588D02*
X78889230Y58001778D01*
X78889230Y58001778D02*
X78898753Y58020826D01*
X78898753Y58020826D02*
X78917801Y58030349D01*
X78917801Y58030349D02*
X78955896Y58030349D01*
X78955896Y58030349D02*
X78974944Y58020826D01*
X78974944Y58020826D02*
X78984468Y58001778D01*
X78984468Y58001778D02*
X78984468Y57982730D01*
X78984468Y57982730D02*
X78889230Y57963683D01*
X79060658Y57906540D02*
X79079706Y57897016D01*
X79079706Y57897016D02*
X79117801Y57897016D01*
X79117801Y57897016D02*
X79136849Y57906540D01*
X79136849Y57906540D02*
X79146373Y57925588D01*
X79146373Y57925588D02*
X79146373Y57935111D01*
X79146373Y57935111D02*
X79136849Y57954159D01*
X79136849Y57954159D02*
X79117801Y57963683D01*
X79117801Y57963683D02*
X79089230Y57963683D01*
X79089230Y57963683D02*
X79070182Y57973207D01*
X79070182Y57973207D02*
X79060658Y57992254D01*
X79060658Y57992254D02*
X79060658Y58001778D01*
X79060658Y58001778D02*
X79070182Y58020826D01*
X79070182Y58020826D02*
X79089230Y58030349D01*
X79089230Y58030349D02*
X79117801Y58030349D01*
X79117801Y58030349D02*
X79136849Y58020826D01*
X79213039Y57820826D02*
X79222563Y57830349D01*
X79222563Y57830349D02*
X79241611Y57858921D01*
X79241611Y57858921D02*
X79251134Y57877968D01*
X79251134Y57877968D02*
X79260658Y57906540D01*
X79260658Y57906540D02*
X79270182Y57954159D01*
X79270182Y57954159D02*
X79270182Y57992254D01*
X79270182Y57992254D02*
X79260658Y58039873D01*
X79260658Y58039873D02*
X79251134Y58068445D01*
X79251134Y58068445D02*
X79241611Y58087492D01*
X79241611Y58087492D02*
X79222563Y58116064D01*
X79222563Y58116064D02*
X79213039Y58125588D01*
X79574944Y57820826D02*
X79565420Y57830349D01*
X79565420Y57830349D02*
X79546373Y57858921D01*
X79546373Y57858921D02*
X79536849Y57877968D01*
X79536849Y57877968D02*
X79527325Y57906540D01*
X79527325Y57906540D02*
X79517801Y57954159D01*
X79517801Y57954159D02*
X79517801Y57992254D01*
X79517801Y57992254D02*
X79527325Y58039873D01*
X79527325Y58039873D02*
X79536849Y58068445D01*
X79536849Y58068445D02*
X79546373Y58087492D01*
X79546373Y58087492D02*
X79565420Y58116064D01*
X79565420Y58116064D02*
X79574944Y58125588D01*
X79651134Y58030349D02*
X79651134Y57897016D01*
X79651134Y58011302D02*
X79660658Y58020826D01*
X79660658Y58020826D02*
X79679706Y58030349D01*
X79679706Y58030349D02*
X79708277Y58030349D01*
X79708277Y58030349D02*
X79727325Y58020826D01*
X79727325Y58020826D02*
X79736849Y58001778D01*
X79736849Y58001778D02*
X79736849Y57897016D01*
X79860658Y57897016D02*
X79841611Y57906540D01*
X79841611Y57906540D02*
X79832087Y57916064D01*
X79832087Y57916064D02*
X79822563Y57935111D01*
X79822563Y57935111D02*
X79822563Y57992254D01*
X79822563Y57992254D02*
X79832087Y58011302D01*
X79832087Y58011302D02*
X79841611Y58020826D01*
X79841611Y58020826D02*
X79860658Y58030349D01*
X79860658Y58030349D02*
X79889230Y58030349D01*
X79889230Y58030349D02*
X79908277Y58020826D01*
X79908277Y58020826D02*
X79917801Y58011302D01*
X79917801Y58011302D02*
X79927325Y57992254D01*
X79927325Y57992254D02*
X79927325Y57935111D01*
X79927325Y57935111D02*
X79917801Y57916064D01*
X79917801Y57916064D02*
X79908277Y57906540D01*
X79908277Y57906540D02*
X79889230Y57897016D01*
X79889230Y57897016D02*
X79860658Y57897016D01*
X79984468Y58030349D02*
X80060658Y58030349D01*
X80013039Y58097016D02*
X80013039Y57925588D01*
X80013039Y57925588D02*
X80022563Y57906540D01*
X80022563Y57906540D02*
X80041611Y57897016D01*
X80041611Y57897016D02*
X80060658Y57897016D01*
X80279706Y58030349D02*
X80279706Y57830349D01*
X80279706Y58020826D02*
X80298754Y58030349D01*
X80298754Y58030349D02*
X80336849Y58030349D01*
X80336849Y58030349D02*
X80355896Y58020826D01*
X80355896Y58020826D02*
X80365420Y58011302D01*
X80365420Y58011302D02*
X80374944Y57992254D01*
X80374944Y57992254D02*
X80374944Y57935111D01*
X80374944Y57935111D02*
X80365420Y57916064D01*
X80365420Y57916064D02*
X80355896Y57906540D01*
X80355896Y57906540D02*
X80336849Y57897016D01*
X80336849Y57897016D02*
X80298754Y57897016D01*
X80298754Y57897016D02*
X80279706Y57906540D01*
X80489230Y57897016D02*
X80470182Y57906540D01*
X80470182Y57906540D02*
X80460658Y57925588D01*
X80460658Y57925588D02*
X80460658Y58097016D01*
X80651135Y57897016D02*
X80651135Y58001778D01*
X80651135Y58001778D02*
X80641611Y58020826D01*
X80641611Y58020826D02*
X80622563Y58030349D01*
X80622563Y58030349D02*
X80584468Y58030349D01*
X80584468Y58030349D02*
X80565420Y58020826D01*
X80651135Y57906540D02*
X80632087Y57897016D01*
X80632087Y57897016D02*
X80584468Y57897016D01*
X80584468Y57897016D02*
X80565420Y57906540D01*
X80565420Y57906540D02*
X80555896Y57925588D01*
X80555896Y57925588D02*
X80555896Y57944635D01*
X80555896Y57944635D02*
X80565420Y57963683D01*
X80565420Y57963683D02*
X80584468Y57973207D01*
X80584468Y57973207D02*
X80632087Y57973207D01*
X80632087Y57973207D02*
X80651135Y57982730D01*
X80717801Y58030349D02*
X80793992Y58030349D01*
X80746373Y58097016D02*
X80746373Y57925588D01*
X80746373Y57925588D02*
X80755896Y57906540D01*
X80755896Y57906540D02*
X80774944Y57897016D01*
X80774944Y57897016D02*
X80793992Y57897016D01*
X80936849Y57906540D02*
X80917801Y57897016D01*
X80917801Y57897016D02*
X80879706Y57897016D01*
X80879706Y57897016D02*
X80860658Y57906540D01*
X80860658Y57906540D02*
X80851135Y57925588D01*
X80851135Y57925588D02*
X80851135Y58001778D01*
X80851135Y58001778D02*
X80860658Y58020826D01*
X80860658Y58020826D02*
X80879706Y58030349D01*
X80879706Y58030349D02*
X80917801Y58030349D01*
X80917801Y58030349D02*
X80936849Y58020826D01*
X80936849Y58020826D02*
X80946373Y58001778D01*
X80946373Y58001778D02*
X80946373Y57982730D01*
X80946373Y57982730D02*
X80851135Y57963683D01*
X81117801Y57897016D02*
X81117801Y58097016D01*
X81117801Y57906540D02*
X81098754Y57897016D01*
X81098754Y57897016D02*
X81060658Y57897016D01*
X81060658Y57897016D02*
X81041611Y57906540D01*
X81041611Y57906540D02*
X81032087Y57916064D01*
X81032087Y57916064D02*
X81022563Y57935111D01*
X81022563Y57935111D02*
X81022563Y57992254D01*
X81022563Y57992254D02*
X81032087Y58011302D01*
X81032087Y58011302D02*
X81041611Y58020826D01*
X81041611Y58020826D02*
X81060658Y58030349D01*
X81060658Y58030349D02*
X81098754Y58030349D01*
X81098754Y58030349D02*
X81117801Y58020826D01*
X81193992Y57820826D02*
X81203516Y57830349D01*
X81203516Y57830349D02*
X81222563Y57858921D01*
X81222563Y57858921D02*
X81232087Y57877968D01*
X81232087Y57877968D02*
X81241611Y57906540D01*
X81241611Y57906540D02*
X81251135Y57954159D01*
X81251135Y57954159D02*
X81251135Y57992254D01*
X81251135Y57992254D02*
X81241611Y58039873D01*
X81241611Y58039873D02*
X81232087Y58068445D01*
X81232087Y58068445D02*
X81222563Y58087492D01*
X81222563Y58087492D02*
X81203516Y58116064D01*
X81203516Y58116064D02*
X81193992Y58125588D01*
M02*
