M48
; DRILL file {KiCad 8.99.0-2206-gee77d06be7} date 2024-10-02T02:55:50+0700
; FORMAT={-:-/ absolute / inch / decimal}
; #@! TF.CreationDate,2024-10-02T02:55:50+07:00
; #@! TF.GenerationSoftware,Kicad,Pcbnew,8.99.0-2206-gee77d06be7
; #@! TF.FileFunction,Plated,1,2,PTH
FMAT,2
INCH
; #@! TA.AperFunction,Plated,PTH,ViaDrill
T1C0.0118
; #@! TA.AperFunction,Plated,PTH,ComponentDrill
T2C0.0118
; #@! TA.AperFunction,Plated,PTH,ComponentDrill
T3C0.0236
; #@! TA.AperFunction,Plated,PTH,ComponentDrill
T4C0.0295
; #@! TA.AperFunction,Plated,PTH,ComponentDrill
T5C0.0394
; #@! TA.AperFunction,Plated,PTH,ComponentDrill
T6C0.0669
%
G90
G05
T1
X29.2598Y27.5315
X29.2598Y26.6348
X29.2598Y26.5984
X29.2598Y25.7933
X29.2598Y25.749
X29.2598Y24.2096
X29.2608Y25.0069
X29.2608Y24.9685
X29.2795Y27.497
X29.2809Y25.8228
X29.2829Y24.2148
X29.2835Y26.6683
X29.2874Y25.036
X29.628Y27.1988
X30.547Y27.262
X31.3118Y27.2768
X32.0785Y27.2935
X32.8433Y27.3083
X33.3878Y27.3238
X34.3753Y27.3403
X35.141Y27.356
X35.9085Y27.3711
X36.6725Y27.3875
X37.4383Y27.4032
X38.204Y27.419
X38.9698Y27.4347
X39.9632Y27.4531
X40.3238Y27.7589
X40.3374Y25.4565
X40.3494Y27.7589
X40.3555Y25.4746
X40.3652Y27.5219
X40.3652Y27.4983
X40.3652Y27.4546
X40.3652Y27.431
X40.3652Y27.4074
X40.3652Y27.3838
X40.3652Y27.3602
X40.3652Y27.2874
X40.3652Y27.2638
X40.366Y27.311
X40.3661Y27.2402
X40.3671Y27.3366
X40.3742Y27.4765
X40.377Y25.4335
X40.3895Y27.5385
X40.3923Y25.4138
X40.4016Y28.0384
X40.4092Y25.3927
X40.4252Y25.3744
X40.4412Y25.3533
X40.4557Y25.3347
X40.4747Y25.3154
X40.4892Y25.2957
X40.4902Y27.8386
X40.4902Y27.6978
X40.5083Y25.2756
X40.529Y25.2598
X40.5517Y25.2441
X40.5669Y28.0039
X40.5714Y25.2283
X40.5837Y27.7992
X40.5846Y27.5325
X40.5906Y28.0413
X40.5949Y25.2126
X40.6152Y25.1969
X40.6348Y25.9291
X40.636Y25.1602
X40.6604Y28.003
X41.065Y25.6555
X41.2825Y25.8583
X41.2925Y25.9201
X41.3031Y25.5404
X41.4872Y25.0738
X41.489Y25.5028
X41.5906Y25.5305
X41.5915Y25.9123
X41.5963Y25.6258
X41.6014Y25.4547
X41.6083Y25.4961
X41.616Y25.8926
X41.6764Y25.3846
X41.815Y25.5059
X41.9163Y25.0738
X41.9429Y25.374
X41.9439Y25.5305
X41.9439Y25.2589
X41.9636Y25.3941
X41.9646Y25.8701
X42.1094Y25.3276
X42.2697Y25.1063
X42.2923Y24.3848
X42.3225Y25.4744
X42.3238Y24.2904
X42.3602Y25.6486
X42.3642Y25.2539
X42.3947Y25.1093
X42.4016Y24.7472
X42.4441Y25.0059
X42.4465Y24.9157
X42.4484Y25.1035
X42.4858Y24.7327
X42.5364Y25.9803
X42.5634Y24.935
X42.565Y25.6673
X42.5846Y25.9094
X42.5846Y25.5039
X42.5846Y25.4262
X42.5846Y25.357
X42.6043Y25.8917
X42.6201Y24.6398
X42.624Y25.7236
X42.6329Y25.3366
X42.6398Y24.9344
X42.6476Y25.122
X42.6516Y24.2894
X42.6776Y26.539
X42.6841Y25.8179
X42.686Y25.0325
X42.7165Y26.5384
X42.7205Y24.9016
X42.7244Y25.6762
X42.7244Y25.1201
X42.7274Y24.6624
X42.7319Y25.9823
X42.7333Y27.5748
T2
X30.0988Y24.8917
T4
X42.7224Y25.4941
X42.7224Y25.4154
X42.7224Y25.3366
X42.7224Y25.2579
X42.7224Y25.1791
T5
X42.586Y24.4843
X42.586Y24.3858
X42.7167Y24.4839
X42.7167Y24.3854
T6
X29.3772Y26.9921
X29.378Y28.0075
X29.4709Y25.4921
X29.4736Y23.9925
X29.5647Y26.2421
X29.6272Y27.0921
X29.628Y28.1075
X29.6584Y25.4921
X29.7209Y25.5921
X29.7236Y24.0925
X29.8147Y26.3421
X29.8488Y24.7421
X29.9084Y25.5921
X30.0988Y24.8421
X30.1272Y26.9921
X30.3772Y27.0921
X30.5022Y26.2421
X30.6897Y25.4921
X30.7522Y26.3421
X30.8772Y26.9921
X30.8776Y28.0079
X30.8836Y23.9925
X30.9397Y25.5921
X31.0647Y24.7421
X31.1272Y27.0921
X31.1276Y28.1079
X31.1336Y24.0925
X31.2522Y26.2421
X31.3147Y24.8421
X31.4397Y25.4921
X31.5022Y26.3421
X31.6272Y26.9921
X31.6276Y28.0079
X31.6897Y25.5921
X31.8147Y24.7421
X31.8211Y23.9925
X31.8772Y27.0921
X31.8776Y28.1079
X32.0022Y26.2421
X32.0647Y24.8421
X32.0711Y24.0925
X32.1897Y25.4921
X32.2522Y26.3421
X32.3772Y26.9921
X32.3776Y28.0079
X32.4397Y25.5921
X32.5647Y24.7421
X32.6272Y27.0921
X32.6276Y28.1079
X32.7522Y26.2421
X32.8147Y24.8421
X32.9397Y25.4921
X33.0022Y26.3421
X33.1272Y26.9921
X33.1276Y28.0079
X33.1897Y25.5921
X33.3147Y24.7421
X33.3772Y27.0921
X33.3776Y28.1079
X33.5022Y26.2421
X33.5647Y24.8421
X33.6897Y25.4921
X33.7522Y26.3421
X33.8772Y26.9921
X33.9397Y25.5921
X34.0647Y24.7421
X34.1272Y27.0921
X34.2522Y26.2421
X34.2528Y28.0079
X34.3147Y24.8421
X34.4397Y25.4921
X34.5022Y26.3421
X34.5028Y28.1079
X34.6272Y26.9921
X34.6336Y23.9925
X34.6897Y25.5921
X34.8147Y24.7421
X34.8772Y27.0921
X34.8836Y24.0925
X35.0022Y26.2421
X35.0028Y28.0079
X35.0647Y24.8421
X35.1897Y25.4921
X35.2522Y26.3421
X35.2528Y28.1079
X35.3772Y26.9921
X35.4397Y25.5921
X35.5647Y24.7421
X35.6272Y27.0921
X35.7522Y26.2421
X35.7528Y28.0079
X35.8147Y24.8421
X35.9397Y25.4921
X36.0022Y26.3421
X36.0028Y28.1079
X36.1272Y26.9921
X36.1897Y25.5921
X36.3147Y24.7421
X36.3772Y27.0921
X36.5022Y26.2421
X36.5028Y28.0079
X36.5647Y24.8421
X36.6897Y25.4921
X36.7522Y26.3421
X36.7528Y28.1079
X36.8772Y26.9921
X36.9397Y25.5921
X37.0647Y24.7421
X37.1272Y27.0921
X37.2522Y26.2421
X37.3147Y24.8421
X37.4397Y25.4921
X37.4461Y23.9925
X37.5022Y26.3421
X37.6272Y26.9921
X37.6276Y28.0079
X37.6897Y25.5921
X37.6961Y24.0925
X37.8147Y24.7421
X37.8772Y27.0921
X37.8776Y28.1079
X38.0022Y26.2421
X38.0647Y24.8421
X38.1897Y25.4921
X38.2522Y26.3421
X38.3772Y26.9921
X38.3776Y28.0079
X38.3836Y23.9925
X38.4397Y25.5921
X38.6272Y27.0921
X38.6276Y28.1079
X38.6336Y24.0925
X38.7522Y26.2421
X39.0022Y26.3421
X39.1276Y28.0079
X39.2209Y24.7421
X39.3776Y28.1079
X39.4113Y25.4921
X39.4709Y24.8421
X39.5022Y26.9921
X39.6613Y25.5921
X39.6897Y26.2421
X39.7522Y27.0921
X39.7835Y23.9917
X39.8776Y28.0079
X39.9397Y26.3421
X40.0335Y24.0917
X40.1276Y28.1079
X40.815Y28.0075
X40.815Y26.9917
X40.815Y26.2417
X40.815Y23.9921
X41.065Y28.1075
X41.065Y27.0917
X41.065Y26.3417
X41.065Y24.0921
X41.565Y28.0075
X41.565Y26.9917
X41.565Y26.2417
X41.565Y24.7421
X41.565Y23.9921
X41.815Y28.1075
X41.815Y27.0917
X41.815Y26.3417
X41.815Y24.8421
X41.815Y24.0921
X42.315Y28.0075
X42.315Y26.9917
X42.315Y26.2417
X42.315Y23.9921
X42.565Y28.1075
X42.565Y27.0917
X42.565Y26.3417
X42.565Y24.0921
T3
G00X40.326Y28.1293
M15
G01X40.326Y28.086
M16
G05
G00X40.6661Y28.1293
M15
G01X40.6661Y28.086
M16
G05
M30
