G04 #@! TF.GenerationSoftware,KiCad,Pcbnew,8.99.0-2194-gb3b7cbcab2*
G04 #@! TF.CreationDate,2024-09-18T03:52:13+07:00*
G04 #@! TF.ProjectId,Unified-Daughterboard,556e6966-6965-4642-9d44-617567687465,C3*
G04 #@! TF.SameCoordinates,Original*
G04 #@! TF.FileFunction,Legend,Top*
G04 #@! TF.FilePolarity,Positive*
%FSLAX46Y46*%
G04 Gerber Fmt 4.6, Leading zero omitted, Abs format (unit mm)*
G04 Created by KiCad (PCBNEW 8.99.0-2194-gb3b7cbcab2) date 2024-09-18 03:52:13*
%MOMM*%
%LPD*%
G01*
G04 APERTURE LIST*
G04 Aperture macros list*
%AMRoundRect*
0 Rectangle with rounded corners*
0 $1 Rounding radius*
0 $2 $3 $4 $5 $6 $7 $8 $9 X,Y pos of 4 corners*
0 Add a 4 corners polygon primitive as box body*
4,1,4,$2,$3,$4,$5,$6,$7,$8,$9,$2,$3,0*
0 Add four circle primitives for the rounded corners*
1,1,$1+$1,$2,$3*
1,1,$1+$1,$4,$5*
1,1,$1+$1,$6,$7*
1,1,$1+$1,$8,$9*
0 Add four rect primitives between the rounded corners*
20,1,$1+$1,$2,$3,$4,$5,0*
20,1,$1+$1,$4,$5,$6,$7,0*
20,1,$1+$1,$6,$7,$8,$9,0*
20,1,$1+$1,$8,$9,$2,$3,0*%
G04 Aperture macros list end*
%ADD10C,0.150000*%
%ADD11C,0.120000*%
%ADD12C,0.752000*%
%ADD13RoundRect,0.175500X0.175500X0.600500X-0.175500X0.600500X-0.175500X-0.600500X0.175500X-0.600500X0*%
%ADD14RoundRect,0.100500X0.100500X0.675500X-0.100500X0.675500X-0.100500X-0.675500X0.100500X-0.675500X0*%
%ADD15O,1.202000X2.302000*%
%ADD16O,1.402000X2.002000*%
%ADD17C,3.002000*%
%ADD18C,5.102000*%
%ADD19RoundRect,0.051000X-0.150000X-0.550000X0.150000X-0.550000X0.150000X0.550000X-0.150000X0.550000X0*%
%ADD20RoundRect,0.051000X-1.150000X-1.550000X1.150000X-1.550000X1.150000X1.550000X-1.150000X1.550000X0*%
%ADD21RoundRect,0.225500X-0.225500X-0.300500X0.225500X-0.300500X0.225500X0.300500X-0.225500X0.300500X0*%
G04 APERTURE END LIST*
D10*
X91413506Y-93301819D02*
X91413506Y-94016104D01*
X91413506Y-94016104D02*
X91365887Y-94158961D01*
X91365887Y-94158961D02*
X91270649Y-94254200D01*
X91270649Y-94254200D02*
X91127792Y-94301819D01*
X91127792Y-94301819D02*
X91032554Y-94301819D01*
X92413506Y-94301819D02*
X91842078Y-94301819D01*
X92127792Y-94301819D02*
X92127792Y-93301819D01*
X92127792Y-93301819D02*
X92032554Y-93444676D01*
X92032554Y-93444676D02*
X91937316Y-93539914D01*
X91937316Y-93539914D02*
X91842078Y-93587533D01*
X26273997Y-101971819D02*
X26273997Y-100971819D01*
X26273997Y-100971819D02*
X26607330Y-101686104D01*
X26607330Y-101686104D02*
X26940663Y-100971819D01*
X26940663Y-100971819D02*
X26940663Y-101971819D01*
X27416854Y-101971819D02*
X27416854Y-100971819D01*
X27416854Y-101448009D02*
X27988282Y-101448009D01*
X27988282Y-101971819D02*
X27988282Y-100971819D01*
X28369235Y-100971819D02*
X28988282Y-100971819D01*
X28988282Y-100971819D02*
X28654949Y-101352771D01*
X28654949Y-101352771D02*
X28797806Y-101352771D01*
X28797806Y-101352771D02*
X28893044Y-101400390D01*
X28893044Y-101400390D02*
X28940663Y-101448009D01*
X28940663Y-101448009D02*
X28988282Y-101543247D01*
X28988282Y-101543247D02*
X28988282Y-101781342D01*
X28988282Y-101781342D02*
X28940663Y-101876580D01*
X28940663Y-101876580D02*
X28893044Y-101924200D01*
X28893044Y-101924200D02*
X28797806Y-101971819D01*
X28797806Y-101971819D02*
X28512092Y-101971819D01*
X28512092Y-101971819D02*
X28416854Y-101924200D01*
X28416854Y-101924200D02*
X28369235Y-101876580D01*
X91413506Y-99776819D02*
X91413506Y-100491104D01*
X91413506Y-100491104D02*
X91365887Y-100633961D01*
X91365887Y-100633961D02*
X91270649Y-100729200D01*
X91270649Y-100729200D02*
X91127792Y-100776819D01*
X91127792Y-100776819D02*
X91032554Y-100776819D01*
X91842078Y-99872057D02*
X91889697Y-99824438D01*
X91889697Y-99824438D02*
X91984935Y-99776819D01*
X91984935Y-99776819D02*
X92223030Y-99776819D01*
X92223030Y-99776819D02*
X92318268Y-99824438D01*
X92318268Y-99824438D02*
X92365887Y-99872057D01*
X92365887Y-99872057D02*
X92413506Y-99967295D01*
X92413506Y-99967295D02*
X92413506Y-100062533D01*
X92413506Y-100062533D02*
X92365887Y-100205390D01*
X92365887Y-100205390D02*
X91794459Y-100776819D01*
X91794459Y-100776819D02*
X92413506Y-100776819D01*
X97339343Y-99086989D02*
X97006010Y-98610798D01*
X96767915Y-99086989D02*
X96767915Y-98086989D01*
X96767915Y-98086989D02*
X97148867Y-98086989D01*
X97148867Y-98086989D02*
X97244105Y-98134608D01*
X97244105Y-98134608D02*
X97291724Y-98182227D01*
X97291724Y-98182227D02*
X97339343Y-98277465D01*
X97339343Y-98277465D02*
X97339343Y-98420322D01*
X97339343Y-98420322D02*
X97291724Y-98515560D01*
X97291724Y-98515560D02*
X97244105Y-98563179D01*
X97244105Y-98563179D02*
X97148867Y-98610798D01*
X97148867Y-98610798D02*
X96767915Y-98610798D01*
X97720296Y-98182227D02*
X97767915Y-98134608D01*
X97767915Y-98134608D02*
X97863153Y-98086989D01*
X97863153Y-98086989D02*
X98101248Y-98086989D01*
X98101248Y-98086989D02*
X98196486Y-98134608D01*
X98196486Y-98134608D02*
X98244105Y-98182227D01*
X98244105Y-98182227D02*
X98291724Y-98277465D01*
X98291724Y-98277465D02*
X98291724Y-98372703D01*
X98291724Y-98372703D02*
X98244105Y-98515560D01*
X98244105Y-98515560D02*
X97672677Y-99086989D01*
X97672677Y-99086989D02*
X98291724Y-99086989D01*
X40273997Y-101971819D02*
X40273997Y-100971819D01*
X40273997Y-100971819D02*
X40607330Y-101686104D01*
X40607330Y-101686104D02*
X40940663Y-100971819D01*
X40940663Y-100971819D02*
X40940663Y-101971819D01*
X41416854Y-101971819D02*
X41416854Y-100971819D01*
X41416854Y-101448009D02*
X41988282Y-101448009D01*
X41988282Y-101971819D02*
X41988282Y-100971819D01*
X42893044Y-101305152D02*
X42893044Y-101971819D01*
X42654949Y-100924200D02*
X42416854Y-101638485D01*
X42416854Y-101638485D02*
X43035901Y-101638485D01*
X83415507Y-89501819D02*
X83415507Y-88501819D01*
X83415507Y-88501819D02*
X83748840Y-89216104D01*
X83748840Y-89216104D02*
X84082173Y-88501819D01*
X84082173Y-88501819D02*
X84082173Y-89501819D01*
X84558364Y-89501819D02*
X84558364Y-88501819D01*
X84558364Y-88978009D02*
X85129792Y-88978009D01*
X85129792Y-89501819D02*
X85129792Y-88501819D01*
X86129792Y-89501819D02*
X85558364Y-89501819D01*
X85844078Y-89501819D02*
X85844078Y-88501819D01*
X85844078Y-88501819D02*
X85748840Y-88644676D01*
X85748840Y-88644676D02*
X85653602Y-88739914D01*
X85653602Y-88739914D02*
X85558364Y-88787533D01*
X53319166Y-99756819D02*
X53319166Y-100471104D01*
X53319166Y-100471104D02*
X53271547Y-100613961D01*
X53271547Y-100613961D02*
X53176309Y-100709200D01*
X53176309Y-100709200D02*
X53033452Y-100756819D01*
X53033452Y-100756819D02*
X52938214Y-100756819D01*
X53747738Y-99852057D02*
X53795357Y-99804438D01*
X53795357Y-99804438D02*
X53890595Y-99756819D01*
X53890595Y-99756819D02*
X54128690Y-99756819D01*
X54128690Y-99756819D02*
X54223928Y-99804438D01*
X54223928Y-99804438D02*
X54271547Y-99852057D01*
X54271547Y-99852057D02*
X54319166Y-99947295D01*
X54319166Y-99947295D02*
X54319166Y-100042533D01*
X54319166Y-100042533D02*
X54271547Y-100185390D01*
X54271547Y-100185390D02*
X53700119Y-100756819D01*
X53700119Y-100756819D02*
X54319166Y-100756819D01*
X45321167Y-101981819D02*
X45321167Y-100981819D01*
X45321167Y-100981819D02*
X45654500Y-101696104D01*
X45654500Y-101696104D02*
X45987833Y-100981819D01*
X45987833Y-100981819D02*
X45987833Y-101981819D01*
X46464024Y-101981819D02*
X46464024Y-100981819D01*
X46464024Y-101458009D02*
X47035452Y-101458009D01*
X47035452Y-101981819D02*
X47035452Y-100981819D01*
X47416405Y-100981819D02*
X48035452Y-100981819D01*
X48035452Y-100981819D02*
X47702119Y-101362771D01*
X47702119Y-101362771D02*
X47844976Y-101362771D01*
X47844976Y-101362771D02*
X47940214Y-101410390D01*
X47940214Y-101410390D02*
X47987833Y-101458009D01*
X47987833Y-101458009D02*
X48035452Y-101553247D01*
X48035452Y-101553247D02*
X48035452Y-101791342D01*
X48035452Y-101791342D02*
X47987833Y-101886580D01*
X47987833Y-101886580D02*
X47940214Y-101934200D01*
X47940214Y-101934200D02*
X47844976Y-101981819D01*
X47844976Y-101981819D02*
X47559262Y-101981819D01*
X47559262Y-101981819D02*
X47464024Y-101934200D01*
X47464024Y-101934200D02*
X47416405Y-101886580D01*
X53319166Y-93281819D02*
X53319166Y-93996104D01*
X53319166Y-93996104D02*
X53271547Y-94138961D01*
X53271547Y-94138961D02*
X53176309Y-94234200D01*
X53176309Y-94234200D02*
X53033452Y-94281819D01*
X53033452Y-94281819D02*
X52938214Y-94281819D01*
X54319166Y-94281819D02*
X53747738Y-94281819D01*
X54033452Y-94281819D02*
X54033452Y-93281819D01*
X54033452Y-93281819D02*
X53938214Y-93424676D01*
X53938214Y-93424676D02*
X53842976Y-93519914D01*
X53842976Y-93519914D02*
X53747738Y-93567533D01*
X72366336Y-93291819D02*
X72366336Y-94006104D01*
X72366336Y-94006104D02*
X72318717Y-94148961D01*
X72318717Y-94148961D02*
X72223479Y-94244200D01*
X72223479Y-94244200D02*
X72080622Y-94291819D01*
X72080622Y-94291819D02*
X71985384Y-94291819D01*
X73366336Y-94291819D02*
X72794908Y-94291819D01*
X73080622Y-94291819D02*
X73080622Y-93291819D01*
X73080622Y-93291819D02*
X72985384Y-93434676D01*
X72985384Y-93434676D02*
X72890146Y-93529914D01*
X72890146Y-93529914D02*
X72794908Y-93577533D01*
X64368337Y-89491819D02*
X64368337Y-88491819D01*
X64368337Y-88491819D02*
X64701670Y-89206104D01*
X64701670Y-89206104D02*
X65035003Y-88491819D01*
X65035003Y-88491819D02*
X65035003Y-89491819D01*
X65511194Y-89491819D02*
X65511194Y-88491819D01*
X65511194Y-88968009D02*
X66082622Y-88968009D01*
X66082622Y-89491819D02*
X66082622Y-88491819D01*
X67082622Y-89491819D02*
X66511194Y-89491819D01*
X66796908Y-89491819D02*
X66796908Y-88491819D01*
X66796908Y-88491819D02*
X66701670Y-88634676D01*
X66701670Y-88634676D02*
X66606432Y-88729914D01*
X66606432Y-88729914D02*
X66511194Y-88777533D01*
X45321167Y-89481819D02*
X45321167Y-88481819D01*
X45321167Y-88481819D02*
X45654500Y-89196104D01*
X45654500Y-89196104D02*
X45987833Y-88481819D01*
X45987833Y-88481819D02*
X45987833Y-89481819D01*
X46464024Y-89481819D02*
X46464024Y-88481819D01*
X46464024Y-88958009D02*
X47035452Y-88958009D01*
X47035452Y-89481819D02*
X47035452Y-88481819D01*
X48035452Y-89481819D02*
X47464024Y-89481819D01*
X47749738Y-89481819D02*
X47749738Y-88481819D01*
X47749738Y-88481819D02*
X47654500Y-88624676D01*
X47654500Y-88624676D02*
X47559262Y-88719914D01*
X47559262Y-88719914D02*
X47464024Y-88767533D01*
X59245003Y-99066989D02*
X58911670Y-98590798D01*
X58673575Y-99066989D02*
X58673575Y-98066989D01*
X58673575Y-98066989D02*
X59054527Y-98066989D01*
X59054527Y-98066989D02*
X59149765Y-98114608D01*
X59149765Y-98114608D02*
X59197384Y-98162227D01*
X59197384Y-98162227D02*
X59245003Y-98257465D01*
X59245003Y-98257465D02*
X59245003Y-98400322D01*
X59245003Y-98400322D02*
X59197384Y-98495560D01*
X59197384Y-98495560D02*
X59149765Y-98543179D01*
X59149765Y-98543179D02*
X59054527Y-98590798D01*
X59054527Y-98590798D02*
X58673575Y-98590798D01*
X59625956Y-98162227D02*
X59673575Y-98114608D01*
X59673575Y-98114608D02*
X59768813Y-98066989D01*
X59768813Y-98066989D02*
X60006908Y-98066989D01*
X60006908Y-98066989D02*
X60102146Y-98114608D01*
X60102146Y-98114608D02*
X60149765Y-98162227D01*
X60149765Y-98162227D02*
X60197384Y-98257465D01*
X60197384Y-98257465D02*
X60197384Y-98352703D01*
X60197384Y-98352703D02*
X60149765Y-98495560D01*
X60149765Y-98495560D02*
X59578337Y-99066989D01*
X59578337Y-99066989D02*
X60197384Y-99066989D01*
X59321167Y-101981819D02*
X59321167Y-100981819D01*
X59321167Y-100981819D02*
X59654500Y-101696104D01*
X59654500Y-101696104D02*
X59987833Y-100981819D01*
X59987833Y-100981819D02*
X59987833Y-101981819D01*
X60464024Y-101981819D02*
X60464024Y-100981819D01*
X60464024Y-101458009D02*
X61035452Y-101458009D01*
X61035452Y-101981819D02*
X61035452Y-100981819D01*
X61940214Y-101315152D02*
X61940214Y-101981819D01*
X61702119Y-100934200D02*
X61464024Y-101648485D01*
X61464024Y-101648485D02*
X62083071Y-101648485D01*
X78292173Y-99076989D02*
X77958840Y-98600798D01*
X77720745Y-99076989D02*
X77720745Y-98076989D01*
X77720745Y-98076989D02*
X78101697Y-98076989D01*
X78101697Y-98076989D02*
X78196935Y-98124608D01*
X78196935Y-98124608D02*
X78244554Y-98172227D01*
X78244554Y-98172227D02*
X78292173Y-98267465D01*
X78292173Y-98267465D02*
X78292173Y-98410322D01*
X78292173Y-98410322D02*
X78244554Y-98505560D01*
X78244554Y-98505560D02*
X78196935Y-98553179D01*
X78196935Y-98553179D02*
X78101697Y-98600798D01*
X78101697Y-98600798D02*
X77720745Y-98600798D01*
X78673126Y-98172227D02*
X78720745Y-98124608D01*
X78720745Y-98124608D02*
X78815983Y-98076989D01*
X78815983Y-98076989D02*
X79054078Y-98076989D01*
X79054078Y-98076989D02*
X79149316Y-98124608D01*
X79149316Y-98124608D02*
X79196935Y-98172227D01*
X79196935Y-98172227D02*
X79244554Y-98267465D01*
X79244554Y-98267465D02*
X79244554Y-98362703D01*
X79244554Y-98362703D02*
X79196935Y-98505560D01*
X79196935Y-98505560D02*
X78625507Y-99076989D01*
X78625507Y-99076989D02*
X79244554Y-99076989D01*
X72366336Y-99766819D02*
X72366336Y-100481104D01*
X72366336Y-100481104D02*
X72318717Y-100623961D01*
X72318717Y-100623961D02*
X72223479Y-100719200D01*
X72223479Y-100719200D02*
X72080622Y-100766819D01*
X72080622Y-100766819D02*
X71985384Y-100766819D01*
X72794908Y-99862057D02*
X72842527Y-99814438D01*
X72842527Y-99814438D02*
X72937765Y-99766819D01*
X72937765Y-99766819D02*
X73175860Y-99766819D01*
X73175860Y-99766819D02*
X73271098Y-99814438D01*
X73271098Y-99814438D02*
X73318717Y-99862057D01*
X73318717Y-99862057D02*
X73366336Y-99957295D01*
X73366336Y-99957295D02*
X73366336Y-100052533D01*
X73366336Y-100052533D02*
X73318717Y-100195390D01*
X73318717Y-100195390D02*
X72747289Y-100766819D01*
X72747289Y-100766819D02*
X73366336Y-100766819D01*
X26273997Y-89471819D02*
X26273997Y-88471819D01*
X26273997Y-88471819D02*
X26607330Y-89186104D01*
X26607330Y-89186104D02*
X26940663Y-88471819D01*
X26940663Y-88471819D02*
X26940663Y-89471819D01*
X27416854Y-89471819D02*
X27416854Y-88471819D01*
X27416854Y-88948009D02*
X27988282Y-88948009D01*
X27988282Y-89471819D02*
X27988282Y-88471819D01*
X28988282Y-89471819D02*
X28416854Y-89471819D01*
X28702568Y-89471819D02*
X28702568Y-88471819D01*
X28702568Y-88471819D02*
X28607330Y-88614676D01*
X28607330Y-88614676D02*
X28512092Y-88709914D01*
X28512092Y-88709914D02*
X28416854Y-88757533D01*
X34271996Y-93271819D02*
X34271996Y-93986104D01*
X34271996Y-93986104D02*
X34224377Y-94128961D01*
X34224377Y-94128961D02*
X34129139Y-94224200D01*
X34129139Y-94224200D02*
X33986282Y-94271819D01*
X33986282Y-94271819D02*
X33891044Y-94271819D01*
X35271996Y-94271819D02*
X34700568Y-94271819D01*
X34986282Y-94271819D02*
X34986282Y-93271819D01*
X34986282Y-93271819D02*
X34891044Y-93414676D01*
X34891044Y-93414676D02*
X34795806Y-93509914D01*
X34795806Y-93509914D02*
X34700568Y-93557533D01*
X78368337Y-89491819D02*
X78368337Y-88491819D01*
X78368337Y-88491819D02*
X78701670Y-89206104D01*
X78701670Y-89206104D02*
X79035003Y-88491819D01*
X79035003Y-88491819D02*
X79035003Y-89491819D01*
X79511194Y-89491819D02*
X79511194Y-88491819D01*
X79511194Y-88968009D02*
X80082622Y-88968009D01*
X80082622Y-89491819D02*
X80082622Y-88491819D01*
X80511194Y-88587057D02*
X80558813Y-88539438D01*
X80558813Y-88539438D02*
X80654051Y-88491819D01*
X80654051Y-88491819D02*
X80892146Y-88491819D01*
X80892146Y-88491819D02*
X80987384Y-88539438D01*
X80987384Y-88539438D02*
X81035003Y-88587057D01*
X81035003Y-88587057D02*
X81082622Y-88682295D01*
X81082622Y-88682295D02*
X81082622Y-88777533D01*
X81082622Y-88777533D02*
X81035003Y-88920390D01*
X81035003Y-88920390D02*
X80463575Y-89491819D01*
X80463575Y-89491819D02*
X81082622Y-89491819D01*
X59321167Y-89481819D02*
X59321167Y-88481819D01*
X59321167Y-88481819D02*
X59654500Y-89196104D01*
X59654500Y-89196104D02*
X59987833Y-88481819D01*
X59987833Y-88481819D02*
X59987833Y-89481819D01*
X60464024Y-89481819D02*
X60464024Y-88481819D01*
X60464024Y-88958009D02*
X61035452Y-88958009D01*
X61035452Y-89481819D02*
X61035452Y-88481819D01*
X61464024Y-88577057D02*
X61511643Y-88529438D01*
X61511643Y-88529438D02*
X61606881Y-88481819D01*
X61606881Y-88481819D02*
X61844976Y-88481819D01*
X61844976Y-88481819D02*
X61940214Y-88529438D01*
X61940214Y-88529438D02*
X61987833Y-88577057D01*
X61987833Y-88577057D02*
X62035452Y-88672295D01*
X62035452Y-88672295D02*
X62035452Y-88767533D01*
X62035452Y-88767533D02*
X61987833Y-88910390D01*
X61987833Y-88910390D02*
X61416405Y-89481819D01*
X61416405Y-89481819D02*
X62035452Y-89481819D01*
X78368337Y-101991819D02*
X78368337Y-100991819D01*
X78368337Y-100991819D02*
X78701670Y-101706104D01*
X78701670Y-101706104D02*
X79035003Y-100991819D01*
X79035003Y-100991819D02*
X79035003Y-101991819D01*
X79511194Y-101991819D02*
X79511194Y-100991819D01*
X79511194Y-101468009D02*
X80082622Y-101468009D01*
X80082622Y-101991819D02*
X80082622Y-100991819D01*
X80987384Y-101325152D02*
X80987384Y-101991819D01*
X80749289Y-100944200D02*
X80511194Y-101658485D01*
X80511194Y-101658485D02*
X81130241Y-101658485D01*
X64368337Y-101991819D02*
X64368337Y-100991819D01*
X64368337Y-100991819D02*
X64701670Y-101706104D01*
X64701670Y-101706104D02*
X65035003Y-100991819D01*
X65035003Y-100991819D02*
X65035003Y-101991819D01*
X65511194Y-101991819D02*
X65511194Y-100991819D01*
X65511194Y-101468009D02*
X66082622Y-101468009D01*
X66082622Y-101991819D02*
X66082622Y-100991819D01*
X66463575Y-100991819D02*
X67082622Y-100991819D01*
X67082622Y-100991819D02*
X66749289Y-101372771D01*
X66749289Y-101372771D02*
X66892146Y-101372771D01*
X66892146Y-101372771D02*
X66987384Y-101420390D01*
X66987384Y-101420390D02*
X67035003Y-101468009D01*
X67035003Y-101468009D02*
X67082622Y-101563247D01*
X67082622Y-101563247D02*
X67082622Y-101801342D01*
X67082622Y-101801342D02*
X67035003Y-101896580D01*
X67035003Y-101896580D02*
X66987384Y-101944200D01*
X66987384Y-101944200D02*
X66892146Y-101991819D01*
X66892146Y-101991819D02*
X66606432Y-101991819D01*
X66606432Y-101991819D02*
X66511194Y-101944200D01*
X66511194Y-101944200D02*
X66463575Y-101896580D01*
X116462677Y-102011819D02*
X116462677Y-101011819D01*
X116462677Y-101011819D02*
X116796010Y-101726104D01*
X116796010Y-101726104D02*
X117129343Y-101011819D01*
X117129343Y-101011819D02*
X117129343Y-102011819D01*
X117605534Y-102011819D02*
X117605534Y-101011819D01*
X117605534Y-101488009D02*
X118176962Y-101488009D01*
X118176962Y-102011819D02*
X118176962Y-101011819D01*
X119081724Y-101345152D02*
X119081724Y-102011819D01*
X118843629Y-100964200D02*
X118605534Y-101678485D01*
X118605534Y-101678485D02*
X119224581Y-101678485D01*
X102462677Y-102011819D02*
X102462677Y-101011819D01*
X102462677Y-101011819D02*
X102796010Y-101726104D01*
X102796010Y-101726104D02*
X103129343Y-101011819D01*
X103129343Y-101011819D02*
X103129343Y-102011819D01*
X103605534Y-102011819D02*
X103605534Y-101011819D01*
X103605534Y-101488009D02*
X104176962Y-101488009D01*
X104176962Y-102011819D02*
X104176962Y-101011819D01*
X104557915Y-101011819D02*
X105176962Y-101011819D01*
X105176962Y-101011819D02*
X104843629Y-101392771D01*
X104843629Y-101392771D02*
X104986486Y-101392771D01*
X104986486Y-101392771D02*
X105081724Y-101440390D01*
X105081724Y-101440390D02*
X105129343Y-101488009D01*
X105129343Y-101488009D02*
X105176962Y-101583247D01*
X105176962Y-101583247D02*
X105176962Y-101821342D01*
X105176962Y-101821342D02*
X105129343Y-101916580D01*
X105129343Y-101916580D02*
X105081724Y-101964200D01*
X105081724Y-101964200D02*
X104986486Y-102011819D01*
X104986486Y-102011819D02*
X104700772Y-102011819D01*
X104700772Y-102011819D02*
X104605534Y-101964200D01*
X104605534Y-101964200D02*
X104557915Y-101916580D01*
X116386513Y-99096989D02*
X116053180Y-98620798D01*
X115815085Y-99096989D02*
X115815085Y-98096989D01*
X115815085Y-98096989D02*
X116196037Y-98096989D01*
X116196037Y-98096989D02*
X116291275Y-98144608D01*
X116291275Y-98144608D02*
X116338894Y-98192227D01*
X116338894Y-98192227D02*
X116386513Y-98287465D01*
X116386513Y-98287465D02*
X116386513Y-98430322D01*
X116386513Y-98430322D02*
X116338894Y-98525560D01*
X116338894Y-98525560D02*
X116291275Y-98573179D01*
X116291275Y-98573179D02*
X116196037Y-98620798D01*
X116196037Y-98620798D02*
X115815085Y-98620798D01*
X116767466Y-98192227D02*
X116815085Y-98144608D01*
X116815085Y-98144608D02*
X116910323Y-98096989D01*
X116910323Y-98096989D02*
X117148418Y-98096989D01*
X117148418Y-98096989D02*
X117243656Y-98144608D01*
X117243656Y-98144608D02*
X117291275Y-98192227D01*
X117291275Y-98192227D02*
X117338894Y-98287465D01*
X117338894Y-98287465D02*
X117338894Y-98382703D01*
X117338894Y-98382703D02*
X117291275Y-98525560D01*
X117291275Y-98525560D02*
X116719847Y-99096989D01*
X116719847Y-99096989D02*
X117338894Y-99096989D01*
X83415507Y-102001819D02*
X83415507Y-101001819D01*
X83415507Y-101001819D02*
X83748840Y-101716104D01*
X83748840Y-101716104D02*
X84082173Y-101001819D01*
X84082173Y-101001819D02*
X84082173Y-102001819D01*
X84558364Y-102001819D02*
X84558364Y-101001819D01*
X84558364Y-101478009D02*
X85129792Y-101478009D01*
X85129792Y-102001819D02*
X85129792Y-101001819D01*
X85510745Y-101001819D02*
X86129792Y-101001819D01*
X86129792Y-101001819D02*
X85796459Y-101382771D01*
X85796459Y-101382771D02*
X85939316Y-101382771D01*
X85939316Y-101382771D02*
X86034554Y-101430390D01*
X86034554Y-101430390D02*
X86082173Y-101478009D01*
X86082173Y-101478009D02*
X86129792Y-101573247D01*
X86129792Y-101573247D02*
X86129792Y-101811342D01*
X86129792Y-101811342D02*
X86082173Y-101906580D01*
X86082173Y-101906580D02*
X86034554Y-101954200D01*
X86034554Y-101954200D02*
X85939316Y-102001819D01*
X85939316Y-102001819D02*
X85653602Y-102001819D01*
X85653602Y-102001819D02*
X85558364Y-101954200D01*
X85558364Y-101954200D02*
X85510745Y-101906580D01*
X110460676Y-93311819D02*
X110460676Y-94026104D01*
X110460676Y-94026104D02*
X110413057Y-94168961D01*
X110413057Y-94168961D02*
X110317819Y-94264200D01*
X110317819Y-94264200D02*
X110174962Y-94311819D01*
X110174962Y-94311819D02*
X110079724Y-94311819D01*
X111460676Y-94311819D02*
X110889248Y-94311819D01*
X111174962Y-94311819D02*
X111174962Y-93311819D01*
X111174962Y-93311819D02*
X111079724Y-93454676D01*
X111079724Y-93454676D02*
X110984486Y-93549914D01*
X110984486Y-93549914D02*
X110889248Y-93597533D01*
X116462677Y-89511819D02*
X116462677Y-88511819D01*
X116462677Y-88511819D02*
X116796010Y-89226104D01*
X116796010Y-89226104D02*
X117129343Y-88511819D01*
X117129343Y-88511819D02*
X117129343Y-89511819D01*
X117605534Y-89511819D02*
X117605534Y-88511819D01*
X117605534Y-88988009D02*
X118176962Y-88988009D01*
X118176962Y-89511819D02*
X118176962Y-88511819D01*
X118605534Y-88607057D02*
X118653153Y-88559438D01*
X118653153Y-88559438D02*
X118748391Y-88511819D01*
X118748391Y-88511819D02*
X118986486Y-88511819D01*
X118986486Y-88511819D02*
X119081724Y-88559438D01*
X119081724Y-88559438D02*
X119129343Y-88607057D01*
X119129343Y-88607057D02*
X119176962Y-88702295D01*
X119176962Y-88702295D02*
X119176962Y-88797533D01*
X119176962Y-88797533D02*
X119129343Y-88940390D01*
X119129343Y-88940390D02*
X118557915Y-89511819D01*
X118557915Y-89511819D02*
X119176962Y-89511819D01*
X102462677Y-89511819D02*
X102462677Y-88511819D01*
X102462677Y-88511819D02*
X102796010Y-89226104D01*
X102796010Y-89226104D02*
X103129343Y-88511819D01*
X103129343Y-88511819D02*
X103129343Y-89511819D01*
X103605534Y-89511819D02*
X103605534Y-88511819D01*
X103605534Y-88988009D02*
X104176962Y-88988009D01*
X104176962Y-89511819D02*
X104176962Y-88511819D01*
X105176962Y-89511819D02*
X104605534Y-89511819D01*
X104891248Y-89511819D02*
X104891248Y-88511819D01*
X104891248Y-88511819D02*
X104796010Y-88654676D01*
X104796010Y-88654676D02*
X104700772Y-88749914D01*
X104700772Y-88749914D02*
X104605534Y-88797533D01*
X110460676Y-99786819D02*
X110460676Y-100501104D01*
X110460676Y-100501104D02*
X110413057Y-100643961D01*
X110413057Y-100643961D02*
X110317819Y-100739200D01*
X110317819Y-100739200D02*
X110174962Y-100786819D01*
X110174962Y-100786819D02*
X110079724Y-100786819D01*
X110889248Y-99882057D02*
X110936867Y-99834438D01*
X110936867Y-99834438D02*
X111032105Y-99786819D01*
X111032105Y-99786819D02*
X111270200Y-99786819D01*
X111270200Y-99786819D02*
X111365438Y-99834438D01*
X111365438Y-99834438D02*
X111413057Y-99882057D01*
X111413057Y-99882057D02*
X111460676Y-99977295D01*
X111460676Y-99977295D02*
X111460676Y-100072533D01*
X111460676Y-100072533D02*
X111413057Y-100215390D01*
X111413057Y-100215390D02*
X110841629Y-100786819D01*
X110841629Y-100786819D02*
X111460676Y-100786819D01*
X97415507Y-89501819D02*
X97415507Y-88501819D01*
X97415507Y-88501819D02*
X97748840Y-89216104D01*
X97748840Y-89216104D02*
X98082173Y-88501819D01*
X98082173Y-88501819D02*
X98082173Y-89501819D01*
X98558364Y-89501819D02*
X98558364Y-88501819D01*
X98558364Y-88978009D02*
X99129792Y-88978009D01*
X99129792Y-89501819D02*
X99129792Y-88501819D01*
X99558364Y-88597057D02*
X99605983Y-88549438D01*
X99605983Y-88549438D02*
X99701221Y-88501819D01*
X99701221Y-88501819D02*
X99939316Y-88501819D01*
X99939316Y-88501819D02*
X100034554Y-88549438D01*
X100034554Y-88549438D02*
X100082173Y-88597057D01*
X100082173Y-88597057D02*
X100129792Y-88692295D01*
X100129792Y-88692295D02*
X100129792Y-88787533D01*
X100129792Y-88787533D02*
X100082173Y-88930390D01*
X100082173Y-88930390D02*
X99510745Y-89501819D01*
X99510745Y-89501819D02*
X100129792Y-89501819D01*
X97415507Y-102001819D02*
X97415507Y-101001819D01*
X97415507Y-101001819D02*
X97748840Y-101716104D01*
X97748840Y-101716104D02*
X98082173Y-101001819D01*
X98082173Y-101001819D02*
X98082173Y-102001819D01*
X98558364Y-102001819D02*
X98558364Y-101001819D01*
X98558364Y-101478009D02*
X99129792Y-101478009D01*
X99129792Y-102001819D02*
X99129792Y-101001819D01*
X100034554Y-101335152D02*
X100034554Y-102001819D01*
X99796459Y-100954200D02*
X99558364Y-101668485D01*
X99558364Y-101668485D02*
X100177411Y-101668485D01*
X40273997Y-89471819D02*
X40273997Y-88471819D01*
X40273997Y-88471819D02*
X40607330Y-89186104D01*
X40607330Y-89186104D02*
X40940663Y-88471819D01*
X40940663Y-88471819D02*
X40940663Y-89471819D01*
X41416854Y-89471819D02*
X41416854Y-88471819D01*
X41416854Y-88948009D02*
X41988282Y-88948009D01*
X41988282Y-89471819D02*
X41988282Y-88471819D01*
X42416854Y-88567057D02*
X42464473Y-88519438D01*
X42464473Y-88519438D02*
X42559711Y-88471819D01*
X42559711Y-88471819D02*
X42797806Y-88471819D01*
X42797806Y-88471819D02*
X42893044Y-88519438D01*
X42893044Y-88519438D02*
X42940663Y-88567057D01*
X42940663Y-88567057D02*
X42988282Y-88662295D01*
X42988282Y-88662295D02*
X42988282Y-88757533D01*
X42988282Y-88757533D02*
X42940663Y-88900390D01*
X42940663Y-88900390D02*
X42369235Y-89471819D01*
X42369235Y-89471819D02*
X42988282Y-89471819D01*
X40197833Y-99056989D02*
X39864500Y-98580798D01*
X39626405Y-99056989D02*
X39626405Y-98056989D01*
X39626405Y-98056989D02*
X40007357Y-98056989D01*
X40007357Y-98056989D02*
X40102595Y-98104608D01*
X40102595Y-98104608D02*
X40150214Y-98152227D01*
X40150214Y-98152227D02*
X40197833Y-98247465D01*
X40197833Y-98247465D02*
X40197833Y-98390322D01*
X40197833Y-98390322D02*
X40150214Y-98485560D01*
X40150214Y-98485560D02*
X40102595Y-98533179D01*
X40102595Y-98533179D02*
X40007357Y-98580798D01*
X40007357Y-98580798D02*
X39626405Y-98580798D01*
X40578786Y-98152227D02*
X40626405Y-98104608D01*
X40626405Y-98104608D02*
X40721643Y-98056989D01*
X40721643Y-98056989D02*
X40959738Y-98056989D01*
X40959738Y-98056989D02*
X41054976Y-98104608D01*
X41054976Y-98104608D02*
X41102595Y-98152227D01*
X41102595Y-98152227D02*
X41150214Y-98247465D01*
X41150214Y-98247465D02*
X41150214Y-98342703D01*
X41150214Y-98342703D02*
X41102595Y-98485560D01*
X41102595Y-98485560D02*
X40531167Y-99056989D01*
X40531167Y-99056989D02*
X41150214Y-99056989D01*
X34271996Y-99746819D02*
X34271996Y-100461104D01*
X34271996Y-100461104D02*
X34224377Y-100603961D01*
X34224377Y-100603961D02*
X34129139Y-100699200D01*
X34129139Y-100699200D02*
X33986282Y-100746819D01*
X33986282Y-100746819D02*
X33891044Y-100746819D01*
X34700568Y-99842057D02*
X34748187Y-99794438D01*
X34748187Y-99794438D02*
X34843425Y-99746819D01*
X34843425Y-99746819D02*
X35081520Y-99746819D01*
X35081520Y-99746819D02*
X35176758Y-99794438D01*
X35176758Y-99794438D02*
X35224377Y-99842057D01*
X35224377Y-99842057D02*
X35271996Y-99937295D01*
X35271996Y-99937295D02*
X35271996Y-100032533D01*
X35271996Y-100032533D02*
X35224377Y-100175390D01*
X35224377Y-100175390D02*
X34652949Y-100746819D01*
X34652949Y-100746819D02*
X35271996Y-100746819D01*
X91413506Y-75501819D02*
X91413506Y-76216104D01*
X91413506Y-76216104D02*
X91365887Y-76358961D01*
X91365887Y-76358961D02*
X91270649Y-76454200D01*
X91270649Y-76454200D02*
X91127792Y-76501819D01*
X91127792Y-76501819D02*
X91032554Y-76501819D01*
X92413506Y-76501819D02*
X91842078Y-76501819D01*
X92127792Y-76501819D02*
X92127792Y-75501819D01*
X92127792Y-75501819D02*
X92032554Y-75644676D01*
X92032554Y-75644676D02*
X91937316Y-75739914D01*
X91937316Y-75739914D02*
X91842078Y-75787533D01*
X26273997Y-84171819D02*
X26273997Y-83171819D01*
X26273997Y-83171819D02*
X26607330Y-83886104D01*
X26607330Y-83886104D02*
X26940663Y-83171819D01*
X26940663Y-83171819D02*
X26940663Y-84171819D01*
X27416854Y-84171819D02*
X27416854Y-83171819D01*
X27416854Y-83648009D02*
X27988282Y-83648009D01*
X27988282Y-84171819D02*
X27988282Y-83171819D01*
X28369235Y-83171819D02*
X28988282Y-83171819D01*
X28988282Y-83171819D02*
X28654949Y-83552771D01*
X28654949Y-83552771D02*
X28797806Y-83552771D01*
X28797806Y-83552771D02*
X28893044Y-83600390D01*
X28893044Y-83600390D02*
X28940663Y-83648009D01*
X28940663Y-83648009D02*
X28988282Y-83743247D01*
X28988282Y-83743247D02*
X28988282Y-83981342D01*
X28988282Y-83981342D02*
X28940663Y-84076580D01*
X28940663Y-84076580D02*
X28893044Y-84124200D01*
X28893044Y-84124200D02*
X28797806Y-84171819D01*
X28797806Y-84171819D02*
X28512092Y-84171819D01*
X28512092Y-84171819D02*
X28416854Y-84124200D01*
X28416854Y-84124200D02*
X28369235Y-84076580D01*
X91413506Y-81976819D02*
X91413506Y-82691104D01*
X91413506Y-82691104D02*
X91365887Y-82833961D01*
X91365887Y-82833961D02*
X91270649Y-82929200D01*
X91270649Y-82929200D02*
X91127792Y-82976819D01*
X91127792Y-82976819D02*
X91032554Y-82976819D01*
X91842078Y-82072057D02*
X91889697Y-82024438D01*
X91889697Y-82024438D02*
X91984935Y-81976819D01*
X91984935Y-81976819D02*
X92223030Y-81976819D01*
X92223030Y-81976819D02*
X92318268Y-82024438D01*
X92318268Y-82024438D02*
X92365887Y-82072057D01*
X92365887Y-82072057D02*
X92413506Y-82167295D01*
X92413506Y-82167295D02*
X92413506Y-82262533D01*
X92413506Y-82262533D02*
X92365887Y-82405390D01*
X92365887Y-82405390D02*
X91794459Y-82976819D01*
X91794459Y-82976819D02*
X92413506Y-82976819D01*
X97339343Y-81286989D02*
X97006010Y-80810798D01*
X96767915Y-81286989D02*
X96767915Y-80286989D01*
X96767915Y-80286989D02*
X97148867Y-80286989D01*
X97148867Y-80286989D02*
X97244105Y-80334608D01*
X97244105Y-80334608D02*
X97291724Y-80382227D01*
X97291724Y-80382227D02*
X97339343Y-80477465D01*
X97339343Y-80477465D02*
X97339343Y-80620322D01*
X97339343Y-80620322D02*
X97291724Y-80715560D01*
X97291724Y-80715560D02*
X97244105Y-80763179D01*
X97244105Y-80763179D02*
X97148867Y-80810798D01*
X97148867Y-80810798D02*
X96767915Y-80810798D01*
X97720296Y-80382227D02*
X97767915Y-80334608D01*
X97767915Y-80334608D02*
X97863153Y-80286989D01*
X97863153Y-80286989D02*
X98101248Y-80286989D01*
X98101248Y-80286989D02*
X98196486Y-80334608D01*
X98196486Y-80334608D02*
X98244105Y-80382227D01*
X98244105Y-80382227D02*
X98291724Y-80477465D01*
X98291724Y-80477465D02*
X98291724Y-80572703D01*
X98291724Y-80572703D02*
X98244105Y-80715560D01*
X98244105Y-80715560D02*
X97672677Y-81286989D01*
X97672677Y-81286989D02*
X98291724Y-81286989D01*
X40273997Y-84171819D02*
X40273997Y-83171819D01*
X40273997Y-83171819D02*
X40607330Y-83886104D01*
X40607330Y-83886104D02*
X40940663Y-83171819D01*
X40940663Y-83171819D02*
X40940663Y-84171819D01*
X41416854Y-84171819D02*
X41416854Y-83171819D01*
X41416854Y-83648009D02*
X41988282Y-83648009D01*
X41988282Y-84171819D02*
X41988282Y-83171819D01*
X42893044Y-83505152D02*
X42893044Y-84171819D01*
X42654949Y-83124200D02*
X42416854Y-83838485D01*
X42416854Y-83838485D02*
X43035901Y-83838485D01*
X83415507Y-71701819D02*
X83415507Y-70701819D01*
X83415507Y-70701819D02*
X83748840Y-71416104D01*
X83748840Y-71416104D02*
X84082173Y-70701819D01*
X84082173Y-70701819D02*
X84082173Y-71701819D01*
X84558364Y-71701819D02*
X84558364Y-70701819D01*
X84558364Y-71178009D02*
X85129792Y-71178009D01*
X85129792Y-71701819D02*
X85129792Y-70701819D01*
X86129792Y-71701819D02*
X85558364Y-71701819D01*
X85844078Y-71701819D02*
X85844078Y-70701819D01*
X85844078Y-70701819D02*
X85748840Y-70844676D01*
X85748840Y-70844676D02*
X85653602Y-70939914D01*
X85653602Y-70939914D02*
X85558364Y-70987533D01*
X53319166Y-81956819D02*
X53319166Y-82671104D01*
X53319166Y-82671104D02*
X53271547Y-82813961D01*
X53271547Y-82813961D02*
X53176309Y-82909200D01*
X53176309Y-82909200D02*
X53033452Y-82956819D01*
X53033452Y-82956819D02*
X52938214Y-82956819D01*
X53747738Y-82052057D02*
X53795357Y-82004438D01*
X53795357Y-82004438D02*
X53890595Y-81956819D01*
X53890595Y-81956819D02*
X54128690Y-81956819D01*
X54128690Y-81956819D02*
X54223928Y-82004438D01*
X54223928Y-82004438D02*
X54271547Y-82052057D01*
X54271547Y-82052057D02*
X54319166Y-82147295D01*
X54319166Y-82147295D02*
X54319166Y-82242533D01*
X54319166Y-82242533D02*
X54271547Y-82385390D01*
X54271547Y-82385390D02*
X53700119Y-82956819D01*
X53700119Y-82956819D02*
X54319166Y-82956819D01*
X45321167Y-84181819D02*
X45321167Y-83181819D01*
X45321167Y-83181819D02*
X45654500Y-83896104D01*
X45654500Y-83896104D02*
X45987833Y-83181819D01*
X45987833Y-83181819D02*
X45987833Y-84181819D01*
X46464024Y-84181819D02*
X46464024Y-83181819D01*
X46464024Y-83658009D02*
X47035452Y-83658009D01*
X47035452Y-84181819D02*
X47035452Y-83181819D01*
X47416405Y-83181819D02*
X48035452Y-83181819D01*
X48035452Y-83181819D02*
X47702119Y-83562771D01*
X47702119Y-83562771D02*
X47844976Y-83562771D01*
X47844976Y-83562771D02*
X47940214Y-83610390D01*
X47940214Y-83610390D02*
X47987833Y-83658009D01*
X47987833Y-83658009D02*
X48035452Y-83753247D01*
X48035452Y-83753247D02*
X48035452Y-83991342D01*
X48035452Y-83991342D02*
X47987833Y-84086580D01*
X47987833Y-84086580D02*
X47940214Y-84134200D01*
X47940214Y-84134200D02*
X47844976Y-84181819D01*
X47844976Y-84181819D02*
X47559262Y-84181819D01*
X47559262Y-84181819D02*
X47464024Y-84134200D01*
X47464024Y-84134200D02*
X47416405Y-84086580D01*
X53319166Y-75481819D02*
X53319166Y-76196104D01*
X53319166Y-76196104D02*
X53271547Y-76338961D01*
X53271547Y-76338961D02*
X53176309Y-76434200D01*
X53176309Y-76434200D02*
X53033452Y-76481819D01*
X53033452Y-76481819D02*
X52938214Y-76481819D01*
X54319166Y-76481819D02*
X53747738Y-76481819D01*
X54033452Y-76481819D02*
X54033452Y-75481819D01*
X54033452Y-75481819D02*
X53938214Y-75624676D01*
X53938214Y-75624676D02*
X53842976Y-75719914D01*
X53842976Y-75719914D02*
X53747738Y-75767533D01*
X72366336Y-75491819D02*
X72366336Y-76206104D01*
X72366336Y-76206104D02*
X72318717Y-76348961D01*
X72318717Y-76348961D02*
X72223479Y-76444200D01*
X72223479Y-76444200D02*
X72080622Y-76491819D01*
X72080622Y-76491819D02*
X71985384Y-76491819D01*
X73366336Y-76491819D02*
X72794908Y-76491819D01*
X73080622Y-76491819D02*
X73080622Y-75491819D01*
X73080622Y-75491819D02*
X72985384Y-75634676D01*
X72985384Y-75634676D02*
X72890146Y-75729914D01*
X72890146Y-75729914D02*
X72794908Y-75777533D01*
X64368337Y-71691819D02*
X64368337Y-70691819D01*
X64368337Y-70691819D02*
X64701670Y-71406104D01*
X64701670Y-71406104D02*
X65035003Y-70691819D01*
X65035003Y-70691819D02*
X65035003Y-71691819D01*
X65511194Y-71691819D02*
X65511194Y-70691819D01*
X65511194Y-71168009D02*
X66082622Y-71168009D01*
X66082622Y-71691819D02*
X66082622Y-70691819D01*
X67082622Y-71691819D02*
X66511194Y-71691819D01*
X66796908Y-71691819D02*
X66796908Y-70691819D01*
X66796908Y-70691819D02*
X66701670Y-70834676D01*
X66701670Y-70834676D02*
X66606432Y-70929914D01*
X66606432Y-70929914D02*
X66511194Y-70977533D01*
X45321167Y-71681819D02*
X45321167Y-70681819D01*
X45321167Y-70681819D02*
X45654500Y-71396104D01*
X45654500Y-71396104D02*
X45987833Y-70681819D01*
X45987833Y-70681819D02*
X45987833Y-71681819D01*
X46464024Y-71681819D02*
X46464024Y-70681819D01*
X46464024Y-71158009D02*
X47035452Y-71158009D01*
X47035452Y-71681819D02*
X47035452Y-70681819D01*
X48035452Y-71681819D02*
X47464024Y-71681819D01*
X47749738Y-71681819D02*
X47749738Y-70681819D01*
X47749738Y-70681819D02*
X47654500Y-70824676D01*
X47654500Y-70824676D02*
X47559262Y-70919914D01*
X47559262Y-70919914D02*
X47464024Y-70967533D01*
X59245003Y-81266989D02*
X58911670Y-80790798D01*
X58673575Y-81266989D02*
X58673575Y-80266989D01*
X58673575Y-80266989D02*
X59054527Y-80266989D01*
X59054527Y-80266989D02*
X59149765Y-80314608D01*
X59149765Y-80314608D02*
X59197384Y-80362227D01*
X59197384Y-80362227D02*
X59245003Y-80457465D01*
X59245003Y-80457465D02*
X59245003Y-80600322D01*
X59245003Y-80600322D02*
X59197384Y-80695560D01*
X59197384Y-80695560D02*
X59149765Y-80743179D01*
X59149765Y-80743179D02*
X59054527Y-80790798D01*
X59054527Y-80790798D02*
X58673575Y-80790798D01*
X59625956Y-80362227D02*
X59673575Y-80314608D01*
X59673575Y-80314608D02*
X59768813Y-80266989D01*
X59768813Y-80266989D02*
X60006908Y-80266989D01*
X60006908Y-80266989D02*
X60102146Y-80314608D01*
X60102146Y-80314608D02*
X60149765Y-80362227D01*
X60149765Y-80362227D02*
X60197384Y-80457465D01*
X60197384Y-80457465D02*
X60197384Y-80552703D01*
X60197384Y-80552703D02*
X60149765Y-80695560D01*
X60149765Y-80695560D02*
X59578337Y-81266989D01*
X59578337Y-81266989D02*
X60197384Y-81266989D01*
X59321167Y-84181819D02*
X59321167Y-83181819D01*
X59321167Y-83181819D02*
X59654500Y-83896104D01*
X59654500Y-83896104D02*
X59987833Y-83181819D01*
X59987833Y-83181819D02*
X59987833Y-84181819D01*
X60464024Y-84181819D02*
X60464024Y-83181819D01*
X60464024Y-83658009D02*
X61035452Y-83658009D01*
X61035452Y-84181819D02*
X61035452Y-83181819D01*
X61940214Y-83515152D02*
X61940214Y-84181819D01*
X61702119Y-83134200D02*
X61464024Y-83848485D01*
X61464024Y-83848485D02*
X62083071Y-83848485D01*
X78292173Y-81276989D02*
X77958840Y-80800798D01*
X77720745Y-81276989D02*
X77720745Y-80276989D01*
X77720745Y-80276989D02*
X78101697Y-80276989D01*
X78101697Y-80276989D02*
X78196935Y-80324608D01*
X78196935Y-80324608D02*
X78244554Y-80372227D01*
X78244554Y-80372227D02*
X78292173Y-80467465D01*
X78292173Y-80467465D02*
X78292173Y-80610322D01*
X78292173Y-80610322D02*
X78244554Y-80705560D01*
X78244554Y-80705560D02*
X78196935Y-80753179D01*
X78196935Y-80753179D02*
X78101697Y-80800798D01*
X78101697Y-80800798D02*
X77720745Y-80800798D01*
X78673126Y-80372227D02*
X78720745Y-80324608D01*
X78720745Y-80324608D02*
X78815983Y-80276989D01*
X78815983Y-80276989D02*
X79054078Y-80276989D01*
X79054078Y-80276989D02*
X79149316Y-80324608D01*
X79149316Y-80324608D02*
X79196935Y-80372227D01*
X79196935Y-80372227D02*
X79244554Y-80467465D01*
X79244554Y-80467465D02*
X79244554Y-80562703D01*
X79244554Y-80562703D02*
X79196935Y-80705560D01*
X79196935Y-80705560D02*
X78625507Y-81276989D01*
X78625507Y-81276989D02*
X79244554Y-81276989D01*
X72366336Y-81966819D02*
X72366336Y-82681104D01*
X72366336Y-82681104D02*
X72318717Y-82823961D01*
X72318717Y-82823961D02*
X72223479Y-82919200D01*
X72223479Y-82919200D02*
X72080622Y-82966819D01*
X72080622Y-82966819D02*
X71985384Y-82966819D01*
X72794908Y-82062057D02*
X72842527Y-82014438D01*
X72842527Y-82014438D02*
X72937765Y-81966819D01*
X72937765Y-81966819D02*
X73175860Y-81966819D01*
X73175860Y-81966819D02*
X73271098Y-82014438D01*
X73271098Y-82014438D02*
X73318717Y-82062057D01*
X73318717Y-82062057D02*
X73366336Y-82157295D01*
X73366336Y-82157295D02*
X73366336Y-82252533D01*
X73366336Y-82252533D02*
X73318717Y-82395390D01*
X73318717Y-82395390D02*
X72747289Y-82966819D01*
X72747289Y-82966819D02*
X73366336Y-82966819D01*
X26273997Y-71671819D02*
X26273997Y-70671819D01*
X26273997Y-70671819D02*
X26607330Y-71386104D01*
X26607330Y-71386104D02*
X26940663Y-70671819D01*
X26940663Y-70671819D02*
X26940663Y-71671819D01*
X27416854Y-71671819D02*
X27416854Y-70671819D01*
X27416854Y-71148009D02*
X27988282Y-71148009D01*
X27988282Y-71671819D02*
X27988282Y-70671819D01*
X28988282Y-71671819D02*
X28416854Y-71671819D01*
X28702568Y-71671819D02*
X28702568Y-70671819D01*
X28702568Y-70671819D02*
X28607330Y-70814676D01*
X28607330Y-70814676D02*
X28512092Y-70909914D01*
X28512092Y-70909914D02*
X28416854Y-70957533D01*
X34271996Y-75471819D02*
X34271996Y-76186104D01*
X34271996Y-76186104D02*
X34224377Y-76328961D01*
X34224377Y-76328961D02*
X34129139Y-76424200D01*
X34129139Y-76424200D02*
X33986282Y-76471819D01*
X33986282Y-76471819D02*
X33891044Y-76471819D01*
X35271996Y-76471819D02*
X34700568Y-76471819D01*
X34986282Y-76471819D02*
X34986282Y-75471819D01*
X34986282Y-75471819D02*
X34891044Y-75614676D01*
X34891044Y-75614676D02*
X34795806Y-75709914D01*
X34795806Y-75709914D02*
X34700568Y-75757533D01*
X78368337Y-71691819D02*
X78368337Y-70691819D01*
X78368337Y-70691819D02*
X78701670Y-71406104D01*
X78701670Y-71406104D02*
X79035003Y-70691819D01*
X79035003Y-70691819D02*
X79035003Y-71691819D01*
X79511194Y-71691819D02*
X79511194Y-70691819D01*
X79511194Y-71168009D02*
X80082622Y-71168009D01*
X80082622Y-71691819D02*
X80082622Y-70691819D01*
X80511194Y-70787057D02*
X80558813Y-70739438D01*
X80558813Y-70739438D02*
X80654051Y-70691819D01*
X80654051Y-70691819D02*
X80892146Y-70691819D01*
X80892146Y-70691819D02*
X80987384Y-70739438D01*
X80987384Y-70739438D02*
X81035003Y-70787057D01*
X81035003Y-70787057D02*
X81082622Y-70882295D01*
X81082622Y-70882295D02*
X81082622Y-70977533D01*
X81082622Y-70977533D02*
X81035003Y-71120390D01*
X81035003Y-71120390D02*
X80463575Y-71691819D01*
X80463575Y-71691819D02*
X81082622Y-71691819D01*
X59321167Y-71681819D02*
X59321167Y-70681819D01*
X59321167Y-70681819D02*
X59654500Y-71396104D01*
X59654500Y-71396104D02*
X59987833Y-70681819D01*
X59987833Y-70681819D02*
X59987833Y-71681819D01*
X60464024Y-71681819D02*
X60464024Y-70681819D01*
X60464024Y-71158009D02*
X61035452Y-71158009D01*
X61035452Y-71681819D02*
X61035452Y-70681819D01*
X61464024Y-70777057D02*
X61511643Y-70729438D01*
X61511643Y-70729438D02*
X61606881Y-70681819D01*
X61606881Y-70681819D02*
X61844976Y-70681819D01*
X61844976Y-70681819D02*
X61940214Y-70729438D01*
X61940214Y-70729438D02*
X61987833Y-70777057D01*
X61987833Y-70777057D02*
X62035452Y-70872295D01*
X62035452Y-70872295D02*
X62035452Y-70967533D01*
X62035452Y-70967533D02*
X61987833Y-71110390D01*
X61987833Y-71110390D02*
X61416405Y-71681819D01*
X61416405Y-71681819D02*
X62035452Y-71681819D01*
X78368337Y-84191819D02*
X78368337Y-83191819D01*
X78368337Y-83191819D02*
X78701670Y-83906104D01*
X78701670Y-83906104D02*
X79035003Y-83191819D01*
X79035003Y-83191819D02*
X79035003Y-84191819D01*
X79511194Y-84191819D02*
X79511194Y-83191819D01*
X79511194Y-83668009D02*
X80082622Y-83668009D01*
X80082622Y-84191819D02*
X80082622Y-83191819D01*
X80987384Y-83525152D02*
X80987384Y-84191819D01*
X80749289Y-83144200D02*
X80511194Y-83858485D01*
X80511194Y-83858485D02*
X81130241Y-83858485D01*
X64368337Y-84191819D02*
X64368337Y-83191819D01*
X64368337Y-83191819D02*
X64701670Y-83906104D01*
X64701670Y-83906104D02*
X65035003Y-83191819D01*
X65035003Y-83191819D02*
X65035003Y-84191819D01*
X65511194Y-84191819D02*
X65511194Y-83191819D01*
X65511194Y-83668009D02*
X66082622Y-83668009D01*
X66082622Y-84191819D02*
X66082622Y-83191819D01*
X66463575Y-83191819D02*
X67082622Y-83191819D01*
X67082622Y-83191819D02*
X66749289Y-83572771D01*
X66749289Y-83572771D02*
X66892146Y-83572771D01*
X66892146Y-83572771D02*
X66987384Y-83620390D01*
X66987384Y-83620390D02*
X67035003Y-83668009D01*
X67035003Y-83668009D02*
X67082622Y-83763247D01*
X67082622Y-83763247D02*
X67082622Y-84001342D01*
X67082622Y-84001342D02*
X67035003Y-84096580D01*
X67035003Y-84096580D02*
X66987384Y-84144200D01*
X66987384Y-84144200D02*
X66892146Y-84191819D01*
X66892146Y-84191819D02*
X66606432Y-84191819D01*
X66606432Y-84191819D02*
X66511194Y-84144200D01*
X66511194Y-84144200D02*
X66463575Y-84096580D01*
X116462677Y-84211819D02*
X116462677Y-83211819D01*
X116462677Y-83211819D02*
X116796010Y-83926104D01*
X116796010Y-83926104D02*
X117129343Y-83211819D01*
X117129343Y-83211819D02*
X117129343Y-84211819D01*
X117605534Y-84211819D02*
X117605534Y-83211819D01*
X117605534Y-83688009D02*
X118176962Y-83688009D01*
X118176962Y-84211819D02*
X118176962Y-83211819D01*
X119081724Y-83545152D02*
X119081724Y-84211819D01*
X118843629Y-83164200D02*
X118605534Y-83878485D01*
X118605534Y-83878485D02*
X119224581Y-83878485D01*
X102462677Y-84211819D02*
X102462677Y-83211819D01*
X102462677Y-83211819D02*
X102796010Y-83926104D01*
X102796010Y-83926104D02*
X103129343Y-83211819D01*
X103129343Y-83211819D02*
X103129343Y-84211819D01*
X103605534Y-84211819D02*
X103605534Y-83211819D01*
X103605534Y-83688009D02*
X104176962Y-83688009D01*
X104176962Y-84211819D02*
X104176962Y-83211819D01*
X104557915Y-83211819D02*
X105176962Y-83211819D01*
X105176962Y-83211819D02*
X104843629Y-83592771D01*
X104843629Y-83592771D02*
X104986486Y-83592771D01*
X104986486Y-83592771D02*
X105081724Y-83640390D01*
X105081724Y-83640390D02*
X105129343Y-83688009D01*
X105129343Y-83688009D02*
X105176962Y-83783247D01*
X105176962Y-83783247D02*
X105176962Y-84021342D01*
X105176962Y-84021342D02*
X105129343Y-84116580D01*
X105129343Y-84116580D02*
X105081724Y-84164200D01*
X105081724Y-84164200D02*
X104986486Y-84211819D01*
X104986486Y-84211819D02*
X104700772Y-84211819D01*
X104700772Y-84211819D02*
X104605534Y-84164200D01*
X104605534Y-84164200D02*
X104557915Y-84116580D01*
X116386513Y-81296989D02*
X116053180Y-80820798D01*
X115815085Y-81296989D02*
X115815085Y-80296989D01*
X115815085Y-80296989D02*
X116196037Y-80296989D01*
X116196037Y-80296989D02*
X116291275Y-80344608D01*
X116291275Y-80344608D02*
X116338894Y-80392227D01*
X116338894Y-80392227D02*
X116386513Y-80487465D01*
X116386513Y-80487465D02*
X116386513Y-80630322D01*
X116386513Y-80630322D02*
X116338894Y-80725560D01*
X116338894Y-80725560D02*
X116291275Y-80773179D01*
X116291275Y-80773179D02*
X116196037Y-80820798D01*
X116196037Y-80820798D02*
X115815085Y-80820798D01*
X116767466Y-80392227D02*
X116815085Y-80344608D01*
X116815085Y-80344608D02*
X116910323Y-80296989D01*
X116910323Y-80296989D02*
X117148418Y-80296989D01*
X117148418Y-80296989D02*
X117243656Y-80344608D01*
X117243656Y-80344608D02*
X117291275Y-80392227D01*
X117291275Y-80392227D02*
X117338894Y-80487465D01*
X117338894Y-80487465D02*
X117338894Y-80582703D01*
X117338894Y-80582703D02*
X117291275Y-80725560D01*
X117291275Y-80725560D02*
X116719847Y-81296989D01*
X116719847Y-81296989D02*
X117338894Y-81296989D01*
X83415507Y-84201819D02*
X83415507Y-83201819D01*
X83415507Y-83201819D02*
X83748840Y-83916104D01*
X83748840Y-83916104D02*
X84082173Y-83201819D01*
X84082173Y-83201819D02*
X84082173Y-84201819D01*
X84558364Y-84201819D02*
X84558364Y-83201819D01*
X84558364Y-83678009D02*
X85129792Y-83678009D01*
X85129792Y-84201819D02*
X85129792Y-83201819D01*
X85510745Y-83201819D02*
X86129792Y-83201819D01*
X86129792Y-83201819D02*
X85796459Y-83582771D01*
X85796459Y-83582771D02*
X85939316Y-83582771D01*
X85939316Y-83582771D02*
X86034554Y-83630390D01*
X86034554Y-83630390D02*
X86082173Y-83678009D01*
X86082173Y-83678009D02*
X86129792Y-83773247D01*
X86129792Y-83773247D02*
X86129792Y-84011342D01*
X86129792Y-84011342D02*
X86082173Y-84106580D01*
X86082173Y-84106580D02*
X86034554Y-84154200D01*
X86034554Y-84154200D02*
X85939316Y-84201819D01*
X85939316Y-84201819D02*
X85653602Y-84201819D01*
X85653602Y-84201819D02*
X85558364Y-84154200D01*
X85558364Y-84154200D02*
X85510745Y-84106580D01*
X110460676Y-75511819D02*
X110460676Y-76226104D01*
X110460676Y-76226104D02*
X110413057Y-76368961D01*
X110413057Y-76368961D02*
X110317819Y-76464200D01*
X110317819Y-76464200D02*
X110174962Y-76511819D01*
X110174962Y-76511819D02*
X110079724Y-76511819D01*
X111460676Y-76511819D02*
X110889248Y-76511819D01*
X111174962Y-76511819D02*
X111174962Y-75511819D01*
X111174962Y-75511819D02*
X111079724Y-75654676D01*
X111079724Y-75654676D02*
X110984486Y-75749914D01*
X110984486Y-75749914D02*
X110889248Y-75797533D01*
X116462677Y-71711819D02*
X116462677Y-70711819D01*
X116462677Y-70711819D02*
X116796010Y-71426104D01*
X116796010Y-71426104D02*
X117129343Y-70711819D01*
X117129343Y-70711819D02*
X117129343Y-71711819D01*
X117605534Y-71711819D02*
X117605534Y-70711819D01*
X117605534Y-71188009D02*
X118176962Y-71188009D01*
X118176962Y-71711819D02*
X118176962Y-70711819D01*
X118605534Y-70807057D02*
X118653153Y-70759438D01*
X118653153Y-70759438D02*
X118748391Y-70711819D01*
X118748391Y-70711819D02*
X118986486Y-70711819D01*
X118986486Y-70711819D02*
X119081724Y-70759438D01*
X119081724Y-70759438D02*
X119129343Y-70807057D01*
X119129343Y-70807057D02*
X119176962Y-70902295D01*
X119176962Y-70902295D02*
X119176962Y-70997533D01*
X119176962Y-70997533D02*
X119129343Y-71140390D01*
X119129343Y-71140390D02*
X118557915Y-71711819D01*
X118557915Y-71711819D02*
X119176962Y-71711819D01*
X102462677Y-71711819D02*
X102462677Y-70711819D01*
X102462677Y-70711819D02*
X102796010Y-71426104D01*
X102796010Y-71426104D02*
X103129343Y-70711819D01*
X103129343Y-70711819D02*
X103129343Y-71711819D01*
X103605534Y-71711819D02*
X103605534Y-70711819D01*
X103605534Y-71188009D02*
X104176962Y-71188009D01*
X104176962Y-71711819D02*
X104176962Y-70711819D01*
X105176962Y-71711819D02*
X104605534Y-71711819D01*
X104891248Y-71711819D02*
X104891248Y-70711819D01*
X104891248Y-70711819D02*
X104796010Y-70854676D01*
X104796010Y-70854676D02*
X104700772Y-70949914D01*
X104700772Y-70949914D02*
X104605534Y-70997533D01*
X110460676Y-81986819D02*
X110460676Y-82701104D01*
X110460676Y-82701104D02*
X110413057Y-82843961D01*
X110413057Y-82843961D02*
X110317819Y-82939200D01*
X110317819Y-82939200D02*
X110174962Y-82986819D01*
X110174962Y-82986819D02*
X110079724Y-82986819D01*
X110889248Y-82082057D02*
X110936867Y-82034438D01*
X110936867Y-82034438D02*
X111032105Y-81986819D01*
X111032105Y-81986819D02*
X111270200Y-81986819D01*
X111270200Y-81986819D02*
X111365438Y-82034438D01*
X111365438Y-82034438D02*
X111413057Y-82082057D01*
X111413057Y-82082057D02*
X111460676Y-82177295D01*
X111460676Y-82177295D02*
X111460676Y-82272533D01*
X111460676Y-82272533D02*
X111413057Y-82415390D01*
X111413057Y-82415390D02*
X110841629Y-82986819D01*
X110841629Y-82986819D02*
X111460676Y-82986819D01*
X97415507Y-71701819D02*
X97415507Y-70701819D01*
X97415507Y-70701819D02*
X97748840Y-71416104D01*
X97748840Y-71416104D02*
X98082173Y-70701819D01*
X98082173Y-70701819D02*
X98082173Y-71701819D01*
X98558364Y-71701819D02*
X98558364Y-70701819D01*
X98558364Y-71178009D02*
X99129792Y-71178009D01*
X99129792Y-71701819D02*
X99129792Y-70701819D01*
X99558364Y-70797057D02*
X99605983Y-70749438D01*
X99605983Y-70749438D02*
X99701221Y-70701819D01*
X99701221Y-70701819D02*
X99939316Y-70701819D01*
X99939316Y-70701819D02*
X100034554Y-70749438D01*
X100034554Y-70749438D02*
X100082173Y-70797057D01*
X100082173Y-70797057D02*
X100129792Y-70892295D01*
X100129792Y-70892295D02*
X100129792Y-70987533D01*
X100129792Y-70987533D02*
X100082173Y-71130390D01*
X100082173Y-71130390D02*
X99510745Y-71701819D01*
X99510745Y-71701819D02*
X100129792Y-71701819D01*
X97415507Y-84201819D02*
X97415507Y-83201819D01*
X97415507Y-83201819D02*
X97748840Y-83916104D01*
X97748840Y-83916104D02*
X98082173Y-83201819D01*
X98082173Y-83201819D02*
X98082173Y-84201819D01*
X98558364Y-84201819D02*
X98558364Y-83201819D01*
X98558364Y-83678009D02*
X99129792Y-83678009D01*
X99129792Y-84201819D02*
X99129792Y-83201819D01*
X100034554Y-83535152D02*
X100034554Y-84201819D01*
X99796459Y-83154200D02*
X99558364Y-83868485D01*
X99558364Y-83868485D02*
X100177411Y-83868485D01*
X40273997Y-71671819D02*
X40273997Y-70671819D01*
X40273997Y-70671819D02*
X40607330Y-71386104D01*
X40607330Y-71386104D02*
X40940663Y-70671819D01*
X40940663Y-70671819D02*
X40940663Y-71671819D01*
X41416854Y-71671819D02*
X41416854Y-70671819D01*
X41416854Y-71148009D02*
X41988282Y-71148009D01*
X41988282Y-71671819D02*
X41988282Y-70671819D01*
X42416854Y-70767057D02*
X42464473Y-70719438D01*
X42464473Y-70719438D02*
X42559711Y-70671819D01*
X42559711Y-70671819D02*
X42797806Y-70671819D01*
X42797806Y-70671819D02*
X42893044Y-70719438D01*
X42893044Y-70719438D02*
X42940663Y-70767057D01*
X42940663Y-70767057D02*
X42988282Y-70862295D01*
X42988282Y-70862295D02*
X42988282Y-70957533D01*
X42988282Y-70957533D02*
X42940663Y-71100390D01*
X42940663Y-71100390D02*
X42369235Y-71671819D01*
X42369235Y-71671819D02*
X42988282Y-71671819D01*
X40197833Y-81256989D02*
X39864500Y-80780798D01*
X39626405Y-81256989D02*
X39626405Y-80256989D01*
X39626405Y-80256989D02*
X40007357Y-80256989D01*
X40007357Y-80256989D02*
X40102595Y-80304608D01*
X40102595Y-80304608D02*
X40150214Y-80352227D01*
X40150214Y-80352227D02*
X40197833Y-80447465D01*
X40197833Y-80447465D02*
X40197833Y-80590322D01*
X40197833Y-80590322D02*
X40150214Y-80685560D01*
X40150214Y-80685560D02*
X40102595Y-80733179D01*
X40102595Y-80733179D02*
X40007357Y-80780798D01*
X40007357Y-80780798D02*
X39626405Y-80780798D01*
X40578786Y-80352227D02*
X40626405Y-80304608D01*
X40626405Y-80304608D02*
X40721643Y-80256989D01*
X40721643Y-80256989D02*
X40959738Y-80256989D01*
X40959738Y-80256989D02*
X41054976Y-80304608D01*
X41054976Y-80304608D02*
X41102595Y-80352227D01*
X41102595Y-80352227D02*
X41150214Y-80447465D01*
X41150214Y-80447465D02*
X41150214Y-80542703D01*
X41150214Y-80542703D02*
X41102595Y-80685560D01*
X41102595Y-80685560D02*
X40531167Y-81256989D01*
X40531167Y-81256989D02*
X41150214Y-81256989D01*
X34271996Y-81946819D02*
X34271996Y-82661104D01*
X34271996Y-82661104D02*
X34224377Y-82803961D01*
X34224377Y-82803961D02*
X34129139Y-82899200D01*
X34129139Y-82899200D02*
X33986282Y-82946819D01*
X33986282Y-82946819D02*
X33891044Y-82946819D01*
X34700568Y-82042057D02*
X34748187Y-81994438D01*
X34748187Y-81994438D02*
X34843425Y-81946819D01*
X34843425Y-81946819D02*
X35081520Y-81946819D01*
X35081520Y-81946819D02*
X35176758Y-81994438D01*
X35176758Y-81994438D02*
X35224377Y-82042057D01*
X35224377Y-82042057D02*
X35271996Y-82137295D01*
X35271996Y-82137295D02*
X35271996Y-82232533D01*
X35271996Y-82232533D02*
X35224377Y-82375390D01*
X35224377Y-82375390D02*
X34652949Y-82946819D01*
X34652949Y-82946819D02*
X35271996Y-82946819D01*
X91413506Y-57701819D02*
X91413506Y-58416104D01*
X91413506Y-58416104D02*
X91365887Y-58558961D01*
X91365887Y-58558961D02*
X91270649Y-58654200D01*
X91270649Y-58654200D02*
X91127792Y-58701819D01*
X91127792Y-58701819D02*
X91032554Y-58701819D01*
X92413506Y-58701819D02*
X91842078Y-58701819D01*
X92127792Y-58701819D02*
X92127792Y-57701819D01*
X92127792Y-57701819D02*
X92032554Y-57844676D01*
X92032554Y-57844676D02*
X91937316Y-57939914D01*
X91937316Y-57939914D02*
X91842078Y-57987533D01*
X26273997Y-66371819D02*
X26273997Y-65371819D01*
X26273997Y-65371819D02*
X26607330Y-66086104D01*
X26607330Y-66086104D02*
X26940663Y-65371819D01*
X26940663Y-65371819D02*
X26940663Y-66371819D01*
X27416854Y-66371819D02*
X27416854Y-65371819D01*
X27416854Y-65848009D02*
X27988282Y-65848009D01*
X27988282Y-66371819D02*
X27988282Y-65371819D01*
X28369235Y-65371819D02*
X28988282Y-65371819D01*
X28988282Y-65371819D02*
X28654949Y-65752771D01*
X28654949Y-65752771D02*
X28797806Y-65752771D01*
X28797806Y-65752771D02*
X28893044Y-65800390D01*
X28893044Y-65800390D02*
X28940663Y-65848009D01*
X28940663Y-65848009D02*
X28988282Y-65943247D01*
X28988282Y-65943247D02*
X28988282Y-66181342D01*
X28988282Y-66181342D02*
X28940663Y-66276580D01*
X28940663Y-66276580D02*
X28893044Y-66324200D01*
X28893044Y-66324200D02*
X28797806Y-66371819D01*
X28797806Y-66371819D02*
X28512092Y-66371819D01*
X28512092Y-66371819D02*
X28416854Y-66324200D01*
X28416854Y-66324200D02*
X28369235Y-66276580D01*
X91413506Y-64176819D02*
X91413506Y-64891104D01*
X91413506Y-64891104D02*
X91365887Y-65033961D01*
X91365887Y-65033961D02*
X91270649Y-65129200D01*
X91270649Y-65129200D02*
X91127792Y-65176819D01*
X91127792Y-65176819D02*
X91032554Y-65176819D01*
X91842078Y-64272057D02*
X91889697Y-64224438D01*
X91889697Y-64224438D02*
X91984935Y-64176819D01*
X91984935Y-64176819D02*
X92223030Y-64176819D01*
X92223030Y-64176819D02*
X92318268Y-64224438D01*
X92318268Y-64224438D02*
X92365887Y-64272057D01*
X92365887Y-64272057D02*
X92413506Y-64367295D01*
X92413506Y-64367295D02*
X92413506Y-64462533D01*
X92413506Y-64462533D02*
X92365887Y-64605390D01*
X92365887Y-64605390D02*
X91794459Y-65176819D01*
X91794459Y-65176819D02*
X92413506Y-65176819D01*
X97339343Y-63486989D02*
X97006010Y-63010798D01*
X96767915Y-63486989D02*
X96767915Y-62486989D01*
X96767915Y-62486989D02*
X97148867Y-62486989D01*
X97148867Y-62486989D02*
X97244105Y-62534608D01*
X97244105Y-62534608D02*
X97291724Y-62582227D01*
X97291724Y-62582227D02*
X97339343Y-62677465D01*
X97339343Y-62677465D02*
X97339343Y-62820322D01*
X97339343Y-62820322D02*
X97291724Y-62915560D01*
X97291724Y-62915560D02*
X97244105Y-62963179D01*
X97244105Y-62963179D02*
X97148867Y-63010798D01*
X97148867Y-63010798D02*
X96767915Y-63010798D01*
X97720296Y-62582227D02*
X97767915Y-62534608D01*
X97767915Y-62534608D02*
X97863153Y-62486989D01*
X97863153Y-62486989D02*
X98101248Y-62486989D01*
X98101248Y-62486989D02*
X98196486Y-62534608D01*
X98196486Y-62534608D02*
X98244105Y-62582227D01*
X98244105Y-62582227D02*
X98291724Y-62677465D01*
X98291724Y-62677465D02*
X98291724Y-62772703D01*
X98291724Y-62772703D02*
X98244105Y-62915560D01*
X98244105Y-62915560D02*
X97672677Y-63486989D01*
X97672677Y-63486989D02*
X98291724Y-63486989D01*
X40273997Y-66371819D02*
X40273997Y-65371819D01*
X40273997Y-65371819D02*
X40607330Y-66086104D01*
X40607330Y-66086104D02*
X40940663Y-65371819D01*
X40940663Y-65371819D02*
X40940663Y-66371819D01*
X41416854Y-66371819D02*
X41416854Y-65371819D01*
X41416854Y-65848009D02*
X41988282Y-65848009D01*
X41988282Y-66371819D02*
X41988282Y-65371819D01*
X42893044Y-65705152D02*
X42893044Y-66371819D01*
X42654949Y-65324200D02*
X42416854Y-66038485D01*
X42416854Y-66038485D02*
X43035901Y-66038485D01*
X83415507Y-53901819D02*
X83415507Y-52901819D01*
X83415507Y-52901819D02*
X83748840Y-53616104D01*
X83748840Y-53616104D02*
X84082173Y-52901819D01*
X84082173Y-52901819D02*
X84082173Y-53901819D01*
X84558364Y-53901819D02*
X84558364Y-52901819D01*
X84558364Y-53378009D02*
X85129792Y-53378009D01*
X85129792Y-53901819D02*
X85129792Y-52901819D01*
X86129792Y-53901819D02*
X85558364Y-53901819D01*
X85844078Y-53901819D02*
X85844078Y-52901819D01*
X85844078Y-52901819D02*
X85748840Y-53044676D01*
X85748840Y-53044676D02*
X85653602Y-53139914D01*
X85653602Y-53139914D02*
X85558364Y-53187533D01*
X53319166Y-64156819D02*
X53319166Y-64871104D01*
X53319166Y-64871104D02*
X53271547Y-65013961D01*
X53271547Y-65013961D02*
X53176309Y-65109200D01*
X53176309Y-65109200D02*
X53033452Y-65156819D01*
X53033452Y-65156819D02*
X52938214Y-65156819D01*
X53747738Y-64252057D02*
X53795357Y-64204438D01*
X53795357Y-64204438D02*
X53890595Y-64156819D01*
X53890595Y-64156819D02*
X54128690Y-64156819D01*
X54128690Y-64156819D02*
X54223928Y-64204438D01*
X54223928Y-64204438D02*
X54271547Y-64252057D01*
X54271547Y-64252057D02*
X54319166Y-64347295D01*
X54319166Y-64347295D02*
X54319166Y-64442533D01*
X54319166Y-64442533D02*
X54271547Y-64585390D01*
X54271547Y-64585390D02*
X53700119Y-65156819D01*
X53700119Y-65156819D02*
X54319166Y-65156819D01*
X45321167Y-66381819D02*
X45321167Y-65381819D01*
X45321167Y-65381819D02*
X45654500Y-66096104D01*
X45654500Y-66096104D02*
X45987833Y-65381819D01*
X45987833Y-65381819D02*
X45987833Y-66381819D01*
X46464024Y-66381819D02*
X46464024Y-65381819D01*
X46464024Y-65858009D02*
X47035452Y-65858009D01*
X47035452Y-66381819D02*
X47035452Y-65381819D01*
X47416405Y-65381819D02*
X48035452Y-65381819D01*
X48035452Y-65381819D02*
X47702119Y-65762771D01*
X47702119Y-65762771D02*
X47844976Y-65762771D01*
X47844976Y-65762771D02*
X47940214Y-65810390D01*
X47940214Y-65810390D02*
X47987833Y-65858009D01*
X47987833Y-65858009D02*
X48035452Y-65953247D01*
X48035452Y-65953247D02*
X48035452Y-66191342D01*
X48035452Y-66191342D02*
X47987833Y-66286580D01*
X47987833Y-66286580D02*
X47940214Y-66334200D01*
X47940214Y-66334200D02*
X47844976Y-66381819D01*
X47844976Y-66381819D02*
X47559262Y-66381819D01*
X47559262Y-66381819D02*
X47464024Y-66334200D01*
X47464024Y-66334200D02*
X47416405Y-66286580D01*
X53319166Y-57681819D02*
X53319166Y-58396104D01*
X53319166Y-58396104D02*
X53271547Y-58538961D01*
X53271547Y-58538961D02*
X53176309Y-58634200D01*
X53176309Y-58634200D02*
X53033452Y-58681819D01*
X53033452Y-58681819D02*
X52938214Y-58681819D01*
X54319166Y-58681819D02*
X53747738Y-58681819D01*
X54033452Y-58681819D02*
X54033452Y-57681819D01*
X54033452Y-57681819D02*
X53938214Y-57824676D01*
X53938214Y-57824676D02*
X53842976Y-57919914D01*
X53842976Y-57919914D02*
X53747738Y-57967533D01*
X72366336Y-57691819D02*
X72366336Y-58406104D01*
X72366336Y-58406104D02*
X72318717Y-58548961D01*
X72318717Y-58548961D02*
X72223479Y-58644200D01*
X72223479Y-58644200D02*
X72080622Y-58691819D01*
X72080622Y-58691819D02*
X71985384Y-58691819D01*
X73366336Y-58691819D02*
X72794908Y-58691819D01*
X73080622Y-58691819D02*
X73080622Y-57691819D01*
X73080622Y-57691819D02*
X72985384Y-57834676D01*
X72985384Y-57834676D02*
X72890146Y-57929914D01*
X72890146Y-57929914D02*
X72794908Y-57977533D01*
X64368337Y-53891819D02*
X64368337Y-52891819D01*
X64368337Y-52891819D02*
X64701670Y-53606104D01*
X64701670Y-53606104D02*
X65035003Y-52891819D01*
X65035003Y-52891819D02*
X65035003Y-53891819D01*
X65511194Y-53891819D02*
X65511194Y-52891819D01*
X65511194Y-53368009D02*
X66082622Y-53368009D01*
X66082622Y-53891819D02*
X66082622Y-52891819D01*
X67082622Y-53891819D02*
X66511194Y-53891819D01*
X66796908Y-53891819D02*
X66796908Y-52891819D01*
X66796908Y-52891819D02*
X66701670Y-53034676D01*
X66701670Y-53034676D02*
X66606432Y-53129914D01*
X66606432Y-53129914D02*
X66511194Y-53177533D01*
X45321167Y-53881819D02*
X45321167Y-52881819D01*
X45321167Y-52881819D02*
X45654500Y-53596104D01*
X45654500Y-53596104D02*
X45987833Y-52881819D01*
X45987833Y-52881819D02*
X45987833Y-53881819D01*
X46464024Y-53881819D02*
X46464024Y-52881819D01*
X46464024Y-53358009D02*
X47035452Y-53358009D01*
X47035452Y-53881819D02*
X47035452Y-52881819D01*
X48035452Y-53881819D02*
X47464024Y-53881819D01*
X47749738Y-53881819D02*
X47749738Y-52881819D01*
X47749738Y-52881819D02*
X47654500Y-53024676D01*
X47654500Y-53024676D02*
X47559262Y-53119914D01*
X47559262Y-53119914D02*
X47464024Y-53167533D01*
X59245003Y-63466989D02*
X58911670Y-62990798D01*
X58673575Y-63466989D02*
X58673575Y-62466989D01*
X58673575Y-62466989D02*
X59054527Y-62466989D01*
X59054527Y-62466989D02*
X59149765Y-62514608D01*
X59149765Y-62514608D02*
X59197384Y-62562227D01*
X59197384Y-62562227D02*
X59245003Y-62657465D01*
X59245003Y-62657465D02*
X59245003Y-62800322D01*
X59245003Y-62800322D02*
X59197384Y-62895560D01*
X59197384Y-62895560D02*
X59149765Y-62943179D01*
X59149765Y-62943179D02*
X59054527Y-62990798D01*
X59054527Y-62990798D02*
X58673575Y-62990798D01*
X59625956Y-62562227D02*
X59673575Y-62514608D01*
X59673575Y-62514608D02*
X59768813Y-62466989D01*
X59768813Y-62466989D02*
X60006908Y-62466989D01*
X60006908Y-62466989D02*
X60102146Y-62514608D01*
X60102146Y-62514608D02*
X60149765Y-62562227D01*
X60149765Y-62562227D02*
X60197384Y-62657465D01*
X60197384Y-62657465D02*
X60197384Y-62752703D01*
X60197384Y-62752703D02*
X60149765Y-62895560D01*
X60149765Y-62895560D02*
X59578337Y-63466989D01*
X59578337Y-63466989D02*
X60197384Y-63466989D01*
X59321167Y-66381819D02*
X59321167Y-65381819D01*
X59321167Y-65381819D02*
X59654500Y-66096104D01*
X59654500Y-66096104D02*
X59987833Y-65381819D01*
X59987833Y-65381819D02*
X59987833Y-66381819D01*
X60464024Y-66381819D02*
X60464024Y-65381819D01*
X60464024Y-65858009D02*
X61035452Y-65858009D01*
X61035452Y-66381819D02*
X61035452Y-65381819D01*
X61940214Y-65715152D02*
X61940214Y-66381819D01*
X61702119Y-65334200D02*
X61464024Y-66048485D01*
X61464024Y-66048485D02*
X62083071Y-66048485D01*
X78292173Y-63476989D02*
X77958840Y-63000798D01*
X77720745Y-63476989D02*
X77720745Y-62476989D01*
X77720745Y-62476989D02*
X78101697Y-62476989D01*
X78101697Y-62476989D02*
X78196935Y-62524608D01*
X78196935Y-62524608D02*
X78244554Y-62572227D01*
X78244554Y-62572227D02*
X78292173Y-62667465D01*
X78292173Y-62667465D02*
X78292173Y-62810322D01*
X78292173Y-62810322D02*
X78244554Y-62905560D01*
X78244554Y-62905560D02*
X78196935Y-62953179D01*
X78196935Y-62953179D02*
X78101697Y-63000798D01*
X78101697Y-63000798D02*
X77720745Y-63000798D01*
X78673126Y-62572227D02*
X78720745Y-62524608D01*
X78720745Y-62524608D02*
X78815983Y-62476989D01*
X78815983Y-62476989D02*
X79054078Y-62476989D01*
X79054078Y-62476989D02*
X79149316Y-62524608D01*
X79149316Y-62524608D02*
X79196935Y-62572227D01*
X79196935Y-62572227D02*
X79244554Y-62667465D01*
X79244554Y-62667465D02*
X79244554Y-62762703D01*
X79244554Y-62762703D02*
X79196935Y-62905560D01*
X79196935Y-62905560D02*
X78625507Y-63476989D01*
X78625507Y-63476989D02*
X79244554Y-63476989D01*
X72366336Y-64166819D02*
X72366336Y-64881104D01*
X72366336Y-64881104D02*
X72318717Y-65023961D01*
X72318717Y-65023961D02*
X72223479Y-65119200D01*
X72223479Y-65119200D02*
X72080622Y-65166819D01*
X72080622Y-65166819D02*
X71985384Y-65166819D01*
X72794908Y-64262057D02*
X72842527Y-64214438D01*
X72842527Y-64214438D02*
X72937765Y-64166819D01*
X72937765Y-64166819D02*
X73175860Y-64166819D01*
X73175860Y-64166819D02*
X73271098Y-64214438D01*
X73271098Y-64214438D02*
X73318717Y-64262057D01*
X73318717Y-64262057D02*
X73366336Y-64357295D01*
X73366336Y-64357295D02*
X73366336Y-64452533D01*
X73366336Y-64452533D02*
X73318717Y-64595390D01*
X73318717Y-64595390D02*
X72747289Y-65166819D01*
X72747289Y-65166819D02*
X73366336Y-65166819D01*
X26273997Y-53871819D02*
X26273997Y-52871819D01*
X26273997Y-52871819D02*
X26607330Y-53586104D01*
X26607330Y-53586104D02*
X26940663Y-52871819D01*
X26940663Y-52871819D02*
X26940663Y-53871819D01*
X27416854Y-53871819D02*
X27416854Y-52871819D01*
X27416854Y-53348009D02*
X27988282Y-53348009D01*
X27988282Y-53871819D02*
X27988282Y-52871819D01*
X28988282Y-53871819D02*
X28416854Y-53871819D01*
X28702568Y-53871819D02*
X28702568Y-52871819D01*
X28702568Y-52871819D02*
X28607330Y-53014676D01*
X28607330Y-53014676D02*
X28512092Y-53109914D01*
X28512092Y-53109914D02*
X28416854Y-53157533D01*
X34271996Y-57671819D02*
X34271996Y-58386104D01*
X34271996Y-58386104D02*
X34224377Y-58528961D01*
X34224377Y-58528961D02*
X34129139Y-58624200D01*
X34129139Y-58624200D02*
X33986282Y-58671819D01*
X33986282Y-58671819D02*
X33891044Y-58671819D01*
X35271996Y-58671819D02*
X34700568Y-58671819D01*
X34986282Y-58671819D02*
X34986282Y-57671819D01*
X34986282Y-57671819D02*
X34891044Y-57814676D01*
X34891044Y-57814676D02*
X34795806Y-57909914D01*
X34795806Y-57909914D02*
X34700568Y-57957533D01*
X78368337Y-53891819D02*
X78368337Y-52891819D01*
X78368337Y-52891819D02*
X78701670Y-53606104D01*
X78701670Y-53606104D02*
X79035003Y-52891819D01*
X79035003Y-52891819D02*
X79035003Y-53891819D01*
X79511194Y-53891819D02*
X79511194Y-52891819D01*
X79511194Y-53368009D02*
X80082622Y-53368009D01*
X80082622Y-53891819D02*
X80082622Y-52891819D01*
X80511194Y-52987057D02*
X80558813Y-52939438D01*
X80558813Y-52939438D02*
X80654051Y-52891819D01*
X80654051Y-52891819D02*
X80892146Y-52891819D01*
X80892146Y-52891819D02*
X80987384Y-52939438D01*
X80987384Y-52939438D02*
X81035003Y-52987057D01*
X81035003Y-52987057D02*
X81082622Y-53082295D01*
X81082622Y-53082295D02*
X81082622Y-53177533D01*
X81082622Y-53177533D02*
X81035003Y-53320390D01*
X81035003Y-53320390D02*
X80463575Y-53891819D01*
X80463575Y-53891819D02*
X81082622Y-53891819D01*
X59321167Y-53881819D02*
X59321167Y-52881819D01*
X59321167Y-52881819D02*
X59654500Y-53596104D01*
X59654500Y-53596104D02*
X59987833Y-52881819D01*
X59987833Y-52881819D02*
X59987833Y-53881819D01*
X60464024Y-53881819D02*
X60464024Y-52881819D01*
X60464024Y-53358009D02*
X61035452Y-53358009D01*
X61035452Y-53881819D02*
X61035452Y-52881819D01*
X61464024Y-52977057D02*
X61511643Y-52929438D01*
X61511643Y-52929438D02*
X61606881Y-52881819D01*
X61606881Y-52881819D02*
X61844976Y-52881819D01*
X61844976Y-52881819D02*
X61940214Y-52929438D01*
X61940214Y-52929438D02*
X61987833Y-52977057D01*
X61987833Y-52977057D02*
X62035452Y-53072295D01*
X62035452Y-53072295D02*
X62035452Y-53167533D01*
X62035452Y-53167533D02*
X61987833Y-53310390D01*
X61987833Y-53310390D02*
X61416405Y-53881819D01*
X61416405Y-53881819D02*
X62035452Y-53881819D01*
X78368337Y-66391819D02*
X78368337Y-65391819D01*
X78368337Y-65391819D02*
X78701670Y-66106104D01*
X78701670Y-66106104D02*
X79035003Y-65391819D01*
X79035003Y-65391819D02*
X79035003Y-66391819D01*
X79511194Y-66391819D02*
X79511194Y-65391819D01*
X79511194Y-65868009D02*
X80082622Y-65868009D01*
X80082622Y-66391819D02*
X80082622Y-65391819D01*
X80987384Y-65725152D02*
X80987384Y-66391819D01*
X80749289Y-65344200D02*
X80511194Y-66058485D01*
X80511194Y-66058485D02*
X81130241Y-66058485D01*
X64368337Y-66391819D02*
X64368337Y-65391819D01*
X64368337Y-65391819D02*
X64701670Y-66106104D01*
X64701670Y-66106104D02*
X65035003Y-65391819D01*
X65035003Y-65391819D02*
X65035003Y-66391819D01*
X65511194Y-66391819D02*
X65511194Y-65391819D01*
X65511194Y-65868009D02*
X66082622Y-65868009D01*
X66082622Y-66391819D02*
X66082622Y-65391819D01*
X66463575Y-65391819D02*
X67082622Y-65391819D01*
X67082622Y-65391819D02*
X66749289Y-65772771D01*
X66749289Y-65772771D02*
X66892146Y-65772771D01*
X66892146Y-65772771D02*
X66987384Y-65820390D01*
X66987384Y-65820390D02*
X67035003Y-65868009D01*
X67035003Y-65868009D02*
X67082622Y-65963247D01*
X67082622Y-65963247D02*
X67082622Y-66201342D01*
X67082622Y-66201342D02*
X67035003Y-66296580D01*
X67035003Y-66296580D02*
X66987384Y-66344200D01*
X66987384Y-66344200D02*
X66892146Y-66391819D01*
X66892146Y-66391819D02*
X66606432Y-66391819D01*
X66606432Y-66391819D02*
X66511194Y-66344200D01*
X66511194Y-66344200D02*
X66463575Y-66296580D01*
X116462677Y-66411819D02*
X116462677Y-65411819D01*
X116462677Y-65411819D02*
X116796010Y-66126104D01*
X116796010Y-66126104D02*
X117129343Y-65411819D01*
X117129343Y-65411819D02*
X117129343Y-66411819D01*
X117605534Y-66411819D02*
X117605534Y-65411819D01*
X117605534Y-65888009D02*
X118176962Y-65888009D01*
X118176962Y-66411819D02*
X118176962Y-65411819D01*
X119081724Y-65745152D02*
X119081724Y-66411819D01*
X118843629Y-65364200D02*
X118605534Y-66078485D01*
X118605534Y-66078485D02*
X119224581Y-66078485D01*
X102462677Y-66411819D02*
X102462677Y-65411819D01*
X102462677Y-65411819D02*
X102796010Y-66126104D01*
X102796010Y-66126104D02*
X103129343Y-65411819D01*
X103129343Y-65411819D02*
X103129343Y-66411819D01*
X103605534Y-66411819D02*
X103605534Y-65411819D01*
X103605534Y-65888009D02*
X104176962Y-65888009D01*
X104176962Y-66411819D02*
X104176962Y-65411819D01*
X104557915Y-65411819D02*
X105176962Y-65411819D01*
X105176962Y-65411819D02*
X104843629Y-65792771D01*
X104843629Y-65792771D02*
X104986486Y-65792771D01*
X104986486Y-65792771D02*
X105081724Y-65840390D01*
X105081724Y-65840390D02*
X105129343Y-65888009D01*
X105129343Y-65888009D02*
X105176962Y-65983247D01*
X105176962Y-65983247D02*
X105176962Y-66221342D01*
X105176962Y-66221342D02*
X105129343Y-66316580D01*
X105129343Y-66316580D02*
X105081724Y-66364200D01*
X105081724Y-66364200D02*
X104986486Y-66411819D01*
X104986486Y-66411819D02*
X104700772Y-66411819D01*
X104700772Y-66411819D02*
X104605534Y-66364200D01*
X104605534Y-66364200D02*
X104557915Y-66316580D01*
X116386513Y-63496989D02*
X116053180Y-63020798D01*
X115815085Y-63496989D02*
X115815085Y-62496989D01*
X115815085Y-62496989D02*
X116196037Y-62496989D01*
X116196037Y-62496989D02*
X116291275Y-62544608D01*
X116291275Y-62544608D02*
X116338894Y-62592227D01*
X116338894Y-62592227D02*
X116386513Y-62687465D01*
X116386513Y-62687465D02*
X116386513Y-62830322D01*
X116386513Y-62830322D02*
X116338894Y-62925560D01*
X116338894Y-62925560D02*
X116291275Y-62973179D01*
X116291275Y-62973179D02*
X116196037Y-63020798D01*
X116196037Y-63020798D02*
X115815085Y-63020798D01*
X116767466Y-62592227D02*
X116815085Y-62544608D01*
X116815085Y-62544608D02*
X116910323Y-62496989D01*
X116910323Y-62496989D02*
X117148418Y-62496989D01*
X117148418Y-62496989D02*
X117243656Y-62544608D01*
X117243656Y-62544608D02*
X117291275Y-62592227D01*
X117291275Y-62592227D02*
X117338894Y-62687465D01*
X117338894Y-62687465D02*
X117338894Y-62782703D01*
X117338894Y-62782703D02*
X117291275Y-62925560D01*
X117291275Y-62925560D02*
X116719847Y-63496989D01*
X116719847Y-63496989D02*
X117338894Y-63496989D01*
X83415507Y-66401819D02*
X83415507Y-65401819D01*
X83415507Y-65401819D02*
X83748840Y-66116104D01*
X83748840Y-66116104D02*
X84082173Y-65401819D01*
X84082173Y-65401819D02*
X84082173Y-66401819D01*
X84558364Y-66401819D02*
X84558364Y-65401819D01*
X84558364Y-65878009D02*
X85129792Y-65878009D01*
X85129792Y-66401819D02*
X85129792Y-65401819D01*
X85510745Y-65401819D02*
X86129792Y-65401819D01*
X86129792Y-65401819D02*
X85796459Y-65782771D01*
X85796459Y-65782771D02*
X85939316Y-65782771D01*
X85939316Y-65782771D02*
X86034554Y-65830390D01*
X86034554Y-65830390D02*
X86082173Y-65878009D01*
X86082173Y-65878009D02*
X86129792Y-65973247D01*
X86129792Y-65973247D02*
X86129792Y-66211342D01*
X86129792Y-66211342D02*
X86082173Y-66306580D01*
X86082173Y-66306580D02*
X86034554Y-66354200D01*
X86034554Y-66354200D02*
X85939316Y-66401819D01*
X85939316Y-66401819D02*
X85653602Y-66401819D01*
X85653602Y-66401819D02*
X85558364Y-66354200D01*
X85558364Y-66354200D02*
X85510745Y-66306580D01*
X110460676Y-57711819D02*
X110460676Y-58426104D01*
X110460676Y-58426104D02*
X110413057Y-58568961D01*
X110413057Y-58568961D02*
X110317819Y-58664200D01*
X110317819Y-58664200D02*
X110174962Y-58711819D01*
X110174962Y-58711819D02*
X110079724Y-58711819D01*
X111460676Y-58711819D02*
X110889248Y-58711819D01*
X111174962Y-58711819D02*
X111174962Y-57711819D01*
X111174962Y-57711819D02*
X111079724Y-57854676D01*
X111079724Y-57854676D02*
X110984486Y-57949914D01*
X110984486Y-57949914D02*
X110889248Y-57997533D01*
X116462677Y-53911819D02*
X116462677Y-52911819D01*
X116462677Y-52911819D02*
X116796010Y-53626104D01*
X116796010Y-53626104D02*
X117129343Y-52911819D01*
X117129343Y-52911819D02*
X117129343Y-53911819D01*
X117605534Y-53911819D02*
X117605534Y-52911819D01*
X117605534Y-53388009D02*
X118176962Y-53388009D01*
X118176962Y-53911819D02*
X118176962Y-52911819D01*
X118605534Y-53007057D02*
X118653153Y-52959438D01*
X118653153Y-52959438D02*
X118748391Y-52911819D01*
X118748391Y-52911819D02*
X118986486Y-52911819D01*
X118986486Y-52911819D02*
X119081724Y-52959438D01*
X119081724Y-52959438D02*
X119129343Y-53007057D01*
X119129343Y-53007057D02*
X119176962Y-53102295D01*
X119176962Y-53102295D02*
X119176962Y-53197533D01*
X119176962Y-53197533D02*
X119129343Y-53340390D01*
X119129343Y-53340390D02*
X118557915Y-53911819D01*
X118557915Y-53911819D02*
X119176962Y-53911819D01*
X102462677Y-53911819D02*
X102462677Y-52911819D01*
X102462677Y-52911819D02*
X102796010Y-53626104D01*
X102796010Y-53626104D02*
X103129343Y-52911819D01*
X103129343Y-52911819D02*
X103129343Y-53911819D01*
X103605534Y-53911819D02*
X103605534Y-52911819D01*
X103605534Y-53388009D02*
X104176962Y-53388009D01*
X104176962Y-53911819D02*
X104176962Y-52911819D01*
X105176962Y-53911819D02*
X104605534Y-53911819D01*
X104891248Y-53911819D02*
X104891248Y-52911819D01*
X104891248Y-52911819D02*
X104796010Y-53054676D01*
X104796010Y-53054676D02*
X104700772Y-53149914D01*
X104700772Y-53149914D02*
X104605534Y-53197533D01*
X110460676Y-64186819D02*
X110460676Y-64901104D01*
X110460676Y-64901104D02*
X110413057Y-65043961D01*
X110413057Y-65043961D02*
X110317819Y-65139200D01*
X110317819Y-65139200D02*
X110174962Y-65186819D01*
X110174962Y-65186819D02*
X110079724Y-65186819D01*
X110889248Y-64282057D02*
X110936867Y-64234438D01*
X110936867Y-64234438D02*
X111032105Y-64186819D01*
X111032105Y-64186819D02*
X111270200Y-64186819D01*
X111270200Y-64186819D02*
X111365438Y-64234438D01*
X111365438Y-64234438D02*
X111413057Y-64282057D01*
X111413057Y-64282057D02*
X111460676Y-64377295D01*
X111460676Y-64377295D02*
X111460676Y-64472533D01*
X111460676Y-64472533D02*
X111413057Y-64615390D01*
X111413057Y-64615390D02*
X110841629Y-65186819D01*
X110841629Y-65186819D02*
X111460676Y-65186819D01*
X97415507Y-53901819D02*
X97415507Y-52901819D01*
X97415507Y-52901819D02*
X97748840Y-53616104D01*
X97748840Y-53616104D02*
X98082173Y-52901819D01*
X98082173Y-52901819D02*
X98082173Y-53901819D01*
X98558364Y-53901819D02*
X98558364Y-52901819D01*
X98558364Y-53378009D02*
X99129792Y-53378009D01*
X99129792Y-53901819D02*
X99129792Y-52901819D01*
X99558364Y-52997057D02*
X99605983Y-52949438D01*
X99605983Y-52949438D02*
X99701221Y-52901819D01*
X99701221Y-52901819D02*
X99939316Y-52901819D01*
X99939316Y-52901819D02*
X100034554Y-52949438D01*
X100034554Y-52949438D02*
X100082173Y-52997057D01*
X100082173Y-52997057D02*
X100129792Y-53092295D01*
X100129792Y-53092295D02*
X100129792Y-53187533D01*
X100129792Y-53187533D02*
X100082173Y-53330390D01*
X100082173Y-53330390D02*
X99510745Y-53901819D01*
X99510745Y-53901819D02*
X100129792Y-53901819D01*
X97415507Y-66401819D02*
X97415507Y-65401819D01*
X97415507Y-65401819D02*
X97748840Y-66116104D01*
X97748840Y-66116104D02*
X98082173Y-65401819D01*
X98082173Y-65401819D02*
X98082173Y-66401819D01*
X98558364Y-66401819D02*
X98558364Y-65401819D01*
X98558364Y-65878009D02*
X99129792Y-65878009D01*
X99129792Y-66401819D02*
X99129792Y-65401819D01*
X100034554Y-65735152D02*
X100034554Y-66401819D01*
X99796459Y-65354200D02*
X99558364Y-66068485D01*
X99558364Y-66068485D02*
X100177411Y-66068485D01*
X40273997Y-53871819D02*
X40273997Y-52871819D01*
X40273997Y-52871819D02*
X40607330Y-53586104D01*
X40607330Y-53586104D02*
X40940663Y-52871819D01*
X40940663Y-52871819D02*
X40940663Y-53871819D01*
X41416854Y-53871819D02*
X41416854Y-52871819D01*
X41416854Y-53348009D02*
X41988282Y-53348009D01*
X41988282Y-53871819D02*
X41988282Y-52871819D01*
X42416854Y-52967057D02*
X42464473Y-52919438D01*
X42464473Y-52919438D02*
X42559711Y-52871819D01*
X42559711Y-52871819D02*
X42797806Y-52871819D01*
X42797806Y-52871819D02*
X42893044Y-52919438D01*
X42893044Y-52919438D02*
X42940663Y-52967057D01*
X42940663Y-52967057D02*
X42988282Y-53062295D01*
X42988282Y-53062295D02*
X42988282Y-53157533D01*
X42988282Y-53157533D02*
X42940663Y-53300390D01*
X42940663Y-53300390D02*
X42369235Y-53871819D01*
X42369235Y-53871819D02*
X42988282Y-53871819D01*
X40197833Y-63456989D02*
X39864500Y-62980798D01*
X39626405Y-63456989D02*
X39626405Y-62456989D01*
X39626405Y-62456989D02*
X40007357Y-62456989D01*
X40007357Y-62456989D02*
X40102595Y-62504608D01*
X40102595Y-62504608D02*
X40150214Y-62552227D01*
X40150214Y-62552227D02*
X40197833Y-62647465D01*
X40197833Y-62647465D02*
X40197833Y-62790322D01*
X40197833Y-62790322D02*
X40150214Y-62885560D01*
X40150214Y-62885560D02*
X40102595Y-62933179D01*
X40102595Y-62933179D02*
X40007357Y-62980798D01*
X40007357Y-62980798D02*
X39626405Y-62980798D01*
X40578786Y-62552227D02*
X40626405Y-62504608D01*
X40626405Y-62504608D02*
X40721643Y-62456989D01*
X40721643Y-62456989D02*
X40959738Y-62456989D01*
X40959738Y-62456989D02*
X41054976Y-62504608D01*
X41054976Y-62504608D02*
X41102595Y-62552227D01*
X41102595Y-62552227D02*
X41150214Y-62647465D01*
X41150214Y-62647465D02*
X41150214Y-62742703D01*
X41150214Y-62742703D02*
X41102595Y-62885560D01*
X41102595Y-62885560D02*
X40531167Y-63456989D01*
X40531167Y-63456989D02*
X41150214Y-63456989D01*
X34271996Y-64146819D02*
X34271996Y-64861104D01*
X34271996Y-64861104D02*
X34224377Y-65003961D01*
X34224377Y-65003961D02*
X34129139Y-65099200D01*
X34129139Y-65099200D02*
X33986282Y-65146819D01*
X33986282Y-65146819D02*
X33891044Y-65146819D01*
X34700568Y-64242057D02*
X34748187Y-64194438D01*
X34748187Y-64194438D02*
X34843425Y-64146819D01*
X34843425Y-64146819D02*
X35081520Y-64146819D01*
X35081520Y-64146819D02*
X35176758Y-64194438D01*
X35176758Y-64194438D02*
X35224377Y-64242057D01*
X35224377Y-64242057D02*
X35271996Y-64337295D01*
X35271996Y-64337295D02*
X35271996Y-64432533D01*
X35271996Y-64432533D02*
X35224377Y-64575390D01*
X35224377Y-64575390D02*
X34652949Y-65146819D01*
X34652949Y-65146819D02*
X35271996Y-65146819D01*
X91413506Y-39901819D02*
X91413506Y-40616104D01*
X91413506Y-40616104D02*
X91365887Y-40758961D01*
X91365887Y-40758961D02*
X91270649Y-40854200D01*
X91270649Y-40854200D02*
X91127792Y-40901819D01*
X91127792Y-40901819D02*
X91032554Y-40901819D01*
X92413506Y-40901819D02*
X91842078Y-40901819D01*
X92127792Y-40901819D02*
X92127792Y-39901819D01*
X92127792Y-39901819D02*
X92032554Y-40044676D01*
X92032554Y-40044676D02*
X91937316Y-40139914D01*
X91937316Y-40139914D02*
X91842078Y-40187533D01*
X26273997Y-48571819D02*
X26273997Y-47571819D01*
X26273997Y-47571819D02*
X26607330Y-48286104D01*
X26607330Y-48286104D02*
X26940663Y-47571819D01*
X26940663Y-47571819D02*
X26940663Y-48571819D01*
X27416854Y-48571819D02*
X27416854Y-47571819D01*
X27416854Y-48048009D02*
X27988282Y-48048009D01*
X27988282Y-48571819D02*
X27988282Y-47571819D01*
X28369235Y-47571819D02*
X28988282Y-47571819D01*
X28988282Y-47571819D02*
X28654949Y-47952771D01*
X28654949Y-47952771D02*
X28797806Y-47952771D01*
X28797806Y-47952771D02*
X28893044Y-48000390D01*
X28893044Y-48000390D02*
X28940663Y-48048009D01*
X28940663Y-48048009D02*
X28988282Y-48143247D01*
X28988282Y-48143247D02*
X28988282Y-48381342D01*
X28988282Y-48381342D02*
X28940663Y-48476580D01*
X28940663Y-48476580D02*
X28893044Y-48524200D01*
X28893044Y-48524200D02*
X28797806Y-48571819D01*
X28797806Y-48571819D02*
X28512092Y-48571819D01*
X28512092Y-48571819D02*
X28416854Y-48524200D01*
X28416854Y-48524200D02*
X28369235Y-48476580D01*
X91413506Y-46376819D02*
X91413506Y-47091104D01*
X91413506Y-47091104D02*
X91365887Y-47233961D01*
X91365887Y-47233961D02*
X91270649Y-47329200D01*
X91270649Y-47329200D02*
X91127792Y-47376819D01*
X91127792Y-47376819D02*
X91032554Y-47376819D01*
X91842078Y-46472057D02*
X91889697Y-46424438D01*
X91889697Y-46424438D02*
X91984935Y-46376819D01*
X91984935Y-46376819D02*
X92223030Y-46376819D01*
X92223030Y-46376819D02*
X92318268Y-46424438D01*
X92318268Y-46424438D02*
X92365887Y-46472057D01*
X92365887Y-46472057D02*
X92413506Y-46567295D01*
X92413506Y-46567295D02*
X92413506Y-46662533D01*
X92413506Y-46662533D02*
X92365887Y-46805390D01*
X92365887Y-46805390D02*
X91794459Y-47376819D01*
X91794459Y-47376819D02*
X92413506Y-47376819D01*
X97339343Y-45686989D02*
X97006010Y-45210798D01*
X96767915Y-45686989D02*
X96767915Y-44686989D01*
X96767915Y-44686989D02*
X97148867Y-44686989D01*
X97148867Y-44686989D02*
X97244105Y-44734608D01*
X97244105Y-44734608D02*
X97291724Y-44782227D01*
X97291724Y-44782227D02*
X97339343Y-44877465D01*
X97339343Y-44877465D02*
X97339343Y-45020322D01*
X97339343Y-45020322D02*
X97291724Y-45115560D01*
X97291724Y-45115560D02*
X97244105Y-45163179D01*
X97244105Y-45163179D02*
X97148867Y-45210798D01*
X97148867Y-45210798D02*
X96767915Y-45210798D01*
X97720296Y-44782227D02*
X97767915Y-44734608D01*
X97767915Y-44734608D02*
X97863153Y-44686989D01*
X97863153Y-44686989D02*
X98101248Y-44686989D01*
X98101248Y-44686989D02*
X98196486Y-44734608D01*
X98196486Y-44734608D02*
X98244105Y-44782227D01*
X98244105Y-44782227D02*
X98291724Y-44877465D01*
X98291724Y-44877465D02*
X98291724Y-44972703D01*
X98291724Y-44972703D02*
X98244105Y-45115560D01*
X98244105Y-45115560D02*
X97672677Y-45686989D01*
X97672677Y-45686989D02*
X98291724Y-45686989D01*
X40273997Y-48571819D02*
X40273997Y-47571819D01*
X40273997Y-47571819D02*
X40607330Y-48286104D01*
X40607330Y-48286104D02*
X40940663Y-47571819D01*
X40940663Y-47571819D02*
X40940663Y-48571819D01*
X41416854Y-48571819D02*
X41416854Y-47571819D01*
X41416854Y-48048009D02*
X41988282Y-48048009D01*
X41988282Y-48571819D02*
X41988282Y-47571819D01*
X42893044Y-47905152D02*
X42893044Y-48571819D01*
X42654949Y-47524200D02*
X42416854Y-48238485D01*
X42416854Y-48238485D02*
X43035901Y-48238485D01*
X83415507Y-36101819D02*
X83415507Y-35101819D01*
X83415507Y-35101819D02*
X83748840Y-35816104D01*
X83748840Y-35816104D02*
X84082173Y-35101819D01*
X84082173Y-35101819D02*
X84082173Y-36101819D01*
X84558364Y-36101819D02*
X84558364Y-35101819D01*
X84558364Y-35578009D02*
X85129792Y-35578009D01*
X85129792Y-36101819D02*
X85129792Y-35101819D01*
X86129792Y-36101819D02*
X85558364Y-36101819D01*
X85844078Y-36101819D02*
X85844078Y-35101819D01*
X85844078Y-35101819D02*
X85748840Y-35244676D01*
X85748840Y-35244676D02*
X85653602Y-35339914D01*
X85653602Y-35339914D02*
X85558364Y-35387533D01*
X53319166Y-46356819D02*
X53319166Y-47071104D01*
X53319166Y-47071104D02*
X53271547Y-47213961D01*
X53271547Y-47213961D02*
X53176309Y-47309200D01*
X53176309Y-47309200D02*
X53033452Y-47356819D01*
X53033452Y-47356819D02*
X52938214Y-47356819D01*
X53747738Y-46452057D02*
X53795357Y-46404438D01*
X53795357Y-46404438D02*
X53890595Y-46356819D01*
X53890595Y-46356819D02*
X54128690Y-46356819D01*
X54128690Y-46356819D02*
X54223928Y-46404438D01*
X54223928Y-46404438D02*
X54271547Y-46452057D01*
X54271547Y-46452057D02*
X54319166Y-46547295D01*
X54319166Y-46547295D02*
X54319166Y-46642533D01*
X54319166Y-46642533D02*
X54271547Y-46785390D01*
X54271547Y-46785390D02*
X53700119Y-47356819D01*
X53700119Y-47356819D02*
X54319166Y-47356819D01*
X45321167Y-48581819D02*
X45321167Y-47581819D01*
X45321167Y-47581819D02*
X45654500Y-48296104D01*
X45654500Y-48296104D02*
X45987833Y-47581819D01*
X45987833Y-47581819D02*
X45987833Y-48581819D01*
X46464024Y-48581819D02*
X46464024Y-47581819D01*
X46464024Y-48058009D02*
X47035452Y-48058009D01*
X47035452Y-48581819D02*
X47035452Y-47581819D01*
X47416405Y-47581819D02*
X48035452Y-47581819D01*
X48035452Y-47581819D02*
X47702119Y-47962771D01*
X47702119Y-47962771D02*
X47844976Y-47962771D01*
X47844976Y-47962771D02*
X47940214Y-48010390D01*
X47940214Y-48010390D02*
X47987833Y-48058009D01*
X47987833Y-48058009D02*
X48035452Y-48153247D01*
X48035452Y-48153247D02*
X48035452Y-48391342D01*
X48035452Y-48391342D02*
X47987833Y-48486580D01*
X47987833Y-48486580D02*
X47940214Y-48534200D01*
X47940214Y-48534200D02*
X47844976Y-48581819D01*
X47844976Y-48581819D02*
X47559262Y-48581819D01*
X47559262Y-48581819D02*
X47464024Y-48534200D01*
X47464024Y-48534200D02*
X47416405Y-48486580D01*
X53319166Y-39881819D02*
X53319166Y-40596104D01*
X53319166Y-40596104D02*
X53271547Y-40738961D01*
X53271547Y-40738961D02*
X53176309Y-40834200D01*
X53176309Y-40834200D02*
X53033452Y-40881819D01*
X53033452Y-40881819D02*
X52938214Y-40881819D01*
X54319166Y-40881819D02*
X53747738Y-40881819D01*
X54033452Y-40881819D02*
X54033452Y-39881819D01*
X54033452Y-39881819D02*
X53938214Y-40024676D01*
X53938214Y-40024676D02*
X53842976Y-40119914D01*
X53842976Y-40119914D02*
X53747738Y-40167533D01*
X72366336Y-39891819D02*
X72366336Y-40606104D01*
X72366336Y-40606104D02*
X72318717Y-40748961D01*
X72318717Y-40748961D02*
X72223479Y-40844200D01*
X72223479Y-40844200D02*
X72080622Y-40891819D01*
X72080622Y-40891819D02*
X71985384Y-40891819D01*
X73366336Y-40891819D02*
X72794908Y-40891819D01*
X73080622Y-40891819D02*
X73080622Y-39891819D01*
X73080622Y-39891819D02*
X72985384Y-40034676D01*
X72985384Y-40034676D02*
X72890146Y-40129914D01*
X72890146Y-40129914D02*
X72794908Y-40177533D01*
X64368337Y-36091819D02*
X64368337Y-35091819D01*
X64368337Y-35091819D02*
X64701670Y-35806104D01*
X64701670Y-35806104D02*
X65035003Y-35091819D01*
X65035003Y-35091819D02*
X65035003Y-36091819D01*
X65511194Y-36091819D02*
X65511194Y-35091819D01*
X65511194Y-35568009D02*
X66082622Y-35568009D01*
X66082622Y-36091819D02*
X66082622Y-35091819D01*
X67082622Y-36091819D02*
X66511194Y-36091819D01*
X66796908Y-36091819D02*
X66796908Y-35091819D01*
X66796908Y-35091819D02*
X66701670Y-35234676D01*
X66701670Y-35234676D02*
X66606432Y-35329914D01*
X66606432Y-35329914D02*
X66511194Y-35377533D01*
X45321167Y-36081819D02*
X45321167Y-35081819D01*
X45321167Y-35081819D02*
X45654500Y-35796104D01*
X45654500Y-35796104D02*
X45987833Y-35081819D01*
X45987833Y-35081819D02*
X45987833Y-36081819D01*
X46464024Y-36081819D02*
X46464024Y-35081819D01*
X46464024Y-35558009D02*
X47035452Y-35558009D01*
X47035452Y-36081819D02*
X47035452Y-35081819D01*
X48035452Y-36081819D02*
X47464024Y-36081819D01*
X47749738Y-36081819D02*
X47749738Y-35081819D01*
X47749738Y-35081819D02*
X47654500Y-35224676D01*
X47654500Y-35224676D02*
X47559262Y-35319914D01*
X47559262Y-35319914D02*
X47464024Y-35367533D01*
X59245003Y-45666989D02*
X58911670Y-45190798D01*
X58673575Y-45666989D02*
X58673575Y-44666989D01*
X58673575Y-44666989D02*
X59054527Y-44666989D01*
X59054527Y-44666989D02*
X59149765Y-44714608D01*
X59149765Y-44714608D02*
X59197384Y-44762227D01*
X59197384Y-44762227D02*
X59245003Y-44857465D01*
X59245003Y-44857465D02*
X59245003Y-45000322D01*
X59245003Y-45000322D02*
X59197384Y-45095560D01*
X59197384Y-45095560D02*
X59149765Y-45143179D01*
X59149765Y-45143179D02*
X59054527Y-45190798D01*
X59054527Y-45190798D02*
X58673575Y-45190798D01*
X59625956Y-44762227D02*
X59673575Y-44714608D01*
X59673575Y-44714608D02*
X59768813Y-44666989D01*
X59768813Y-44666989D02*
X60006908Y-44666989D01*
X60006908Y-44666989D02*
X60102146Y-44714608D01*
X60102146Y-44714608D02*
X60149765Y-44762227D01*
X60149765Y-44762227D02*
X60197384Y-44857465D01*
X60197384Y-44857465D02*
X60197384Y-44952703D01*
X60197384Y-44952703D02*
X60149765Y-45095560D01*
X60149765Y-45095560D02*
X59578337Y-45666989D01*
X59578337Y-45666989D02*
X60197384Y-45666989D01*
X59321167Y-48581819D02*
X59321167Y-47581819D01*
X59321167Y-47581819D02*
X59654500Y-48296104D01*
X59654500Y-48296104D02*
X59987833Y-47581819D01*
X59987833Y-47581819D02*
X59987833Y-48581819D01*
X60464024Y-48581819D02*
X60464024Y-47581819D01*
X60464024Y-48058009D02*
X61035452Y-48058009D01*
X61035452Y-48581819D02*
X61035452Y-47581819D01*
X61940214Y-47915152D02*
X61940214Y-48581819D01*
X61702119Y-47534200D02*
X61464024Y-48248485D01*
X61464024Y-48248485D02*
X62083071Y-48248485D01*
X78292173Y-45676989D02*
X77958840Y-45200798D01*
X77720745Y-45676989D02*
X77720745Y-44676989D01*
X77720745Y-44676989D02*
X78101697Y-44676989D01*
X78101697Y-44676989D02*
X78196935Y-44724608D01*
X78196935Y-44724608D02*
X78244554Y-44772227D01*
X78244554Y-44772227D02*
X78292173Y-44867465D01*
X78292173Y-44867465D02*
X78292173Y-45010322D01*
X78292173Y-45010322D02*
X78244554Y-45105560D01*
X78244554Y-45105560D02*
X78196935Y-45153179D01*
X78196935Y-45153179D02*
X78101697Y-45200798D01*
X78101697Y-45200798D02*
X77720745Y-45200798D01*
X78673126Y-44772227D02*
X78720745Y-44724608D01*
X78720745Y-44724608D02*
X78815983Y-44676989D01*
X78815983Y-44676989D02*
X79054078Y-44676989D01*
X79054078Y-44676989D02*
X79149316Y-44724608D01*
X79149316Y-44724608D02*
X79196935Y-44772227D01*
X79196935Y-44772227D02*
X79244554Y-44867465D01*
X79244554Y-44867465D02*
X79244554Y-44962703D01*
X79244554Y-44962703D02*
X79196935Y-45105560D01*
X79196935Y-45105560D02*
X78625507Y-45676989D01*
X78625507Y-45676989D02*
X79244554Y-45676989D01*
X72366336Y-46366819D02*
X72366336Y-47081104D01*
X72366336Y-47081104D02*
X72318717Y-47223961D01*
X72318717Y-47223961D02*
X72223479Y-47319200D01*
X72223479Y-47319200D02*
X72080622Y-47366819D01*
X72080622Y-47366819D02*
X71985384Y-47366819D01*
X72794908Y-46462057D02*
X72842527Y-46414438D01*
X72842527Y-46414438D02*
X72937765Y-46366819D01*
X72937765Y-46366819D02*
X73175860Y-46366819D01*
X73175860Y-46366819D02*
X73271098Y-46414438D01*
X73271098Y-46414438D02*
X73318717Y-46462057D01*
X73318717Y-46462057D02*
X73366336Y-46557295D01*
X73366336Y-46557295D02*
X73366336Y-46652533D01*
X73366336Y-46652533D02*
X73318717Y-46795390D01*
X73318717Y-46795390D02*
X72747289Y-47366819D01*
X72747289Y-47366819D02*
X73366336Y-47366819D01*
X26273997Y-36071819D02*
X26273997Y-35071819D01*
X26273997Y-35071819D02*
X26607330Y-35786104D01*
X26607330Y-35786104D02*
X26940663Y-35071819D01*
X26940663Y-35071819D02*
X26940663Y-36071819D01*
X27416854Y-36071819D02*
X27416854Y-35071819D01*
X27416854Y-35548009D02*
X27988282Y-35548009D01*
X27988282Y-36071819D02*
X27988282Y-35071819D01*
X28988282Y-36071819D02*
X28416854Y-36071819D01*
X28702568Y-36071819D02*
X28702568Y-35071819D01*
X28702568Y-35071819D02*
X28607330Y-35214676D01*
X28607330Y-35214676D02*
X28512092Y-35309914D01*
X28512092Y-35309914D02*
X28416854Y-35357533D01*
X34271996Y-39871819D02*
X34271996Y-40586104D01*
X34271996Y-40586104D02*
X34224377Y-40728961D01*
X34224377Y-40728961D02*
X34129139Y-40824200D01*
X34129139Y-40824200D02*
X33986282Y-40871819D01*
X33986282Y-40871819D02*
X33891044Y-40871819D01*
X35271996Y-40871819D02*
X34700568Y-40871819D01*
X34986282Y-40871819D02*
X34986282Y-39871819D01*
X34986282Y-39871819D02*
X34891044Y-40014676D01*
X34891044Y-40014676D02*
X34795806Y-40109914D01*
X34795806Y-40109914D02*
X34700568Y-40157533D01*
X78368337Y-36091819D02*
X78368337Y-35091819D01*
X78368337Y-35091819D02*
X78701670Y-35806104D01*
X78701670Y-35806104D02*
X79035003Y-35091819D01*
X79035003Y-35091819D02*
X79035003Y-36091819D01*
X79511194Y-36091819D02*
X79511194Y-35091819D01*
X79511194Y-35568009D02*
X80082622Y-35568009D01*
X80082622Y-36091819D02*
X80082622Y-35091819D01*
X80511194Y-35187057D02*
X80558813Y-35139438D01*
X80558813Y-35139438D02*
X80654051Y-35091819D01*
X80654051Y-35091819D02*
X80892146Y-35091819D01*
X80892146Y-35091819D02*
X80987384Y-35139438D01*
X80987384Y-35139438D02*
X81035003Y-35187057D01*
X81035003Y-35187057D02*
X81082622Y-35282295D01*
X81082622Y-35282295D02*
X81082622Y-35377533D01*
X81082622Y-35377533D02*
X81035003Y-35520390D01*
X81035003Y-35520390D02*
X80463575Y-36091819D01*
X80463575Y-36091819D02*
X81082622Y-36091819D01*
X59321167Y-36081819D02*
X59321167Y-35081819D01*
X59321167Y-35081819D02*
X59654500Y-35796104D01*
X59654500Y-35796104D02*
X59987833Y-35081819D01*
X59987833Y-35081819D02*
X59987833Y-36081819D01*
X60464024Y-36081819D02*
X60464024Y-35081819D01*
X60464024Y-35558009D02*
X61035452Y-35558009D01*
X61035452Y-36081819D02*
X61035452Y-35081819D01*
X61464024Y-35177057D02*
X61511643Y-35129438D01*
X61511643Y-35129438D02*
X61606881Y-35081819D01*
X61606881Y-35081819D02*
X61844976Y-35081819D01*
X61844976Y-35081819D02*
X61940214Y-35129438D01*
X61940214Y-35129438D02*
X61987833Y-35177057D01*
X61987833Y-35177057D02*
X62035452Y-35272295D01*
X62035452Y-35272295D02*
X62035452Y-35367533D01*
X62035452Y-35367533D02*
X61987833Y-35510390D01*
X61987833Y-35510390D02*
X61416405Y-36081819D01*
X61416405Y-36081819D02*
X62035452Y-36081819D01*
X78368337Y-48591819D02*
X78368337Y-47591819D01*
X78368337Y-47591819D02*
X78701670Y-48306104D01*
X78701670Y-48306104D02*
X79035003Y-47591819D01*
X79035003Y-47591819D02*
X79035003Y-48591819D01*
X79511194Y-48591819D02*
X79511194Y-47591819D01*
X79511194Y-48068009D02*
X80082622Y-48068009D01*
X80082622Y-48591819D02*
X80082622Y-47591819D01*
X80987384Y-47925152D02*
X80987384Y-48591819D01*
X80749289Y-47544200D02*
X80511194Y-48258485D01*
X80511194Y-48258485D02*
X81130241Y-48258485D01*
X64368337Y-48591819D02*
X64368337Y-47591819D01*
X64368337Y-47591819D02*
X64701670Y-48306104D01*
X64701670Y-48306104D02*
X65035003Y-47591819D01*
X65035003Y-47591819D02*
X65035003Y-48591819D01*
X65511194Y-48591819D02*
X65511194Y-47591819D01*
X65511194Y-48068009D02*
X66082622Y-48068009D01*
X66082622Y-48591819D02*
X66082622Y-47591819D01*
X66463575Y-47591819D02*
X67082622Y-47591819D01*
X67082622Y-47591819D02*
X66749289Y-47972771D01*
X66749289Y-47972771D02*
X66892146Y-47972771D01*
X66892146Y-47972771D02*
X66987384Y-48020390D01*
X66987384Y-48020390D02*
X67035003Y-48068009D01*
X67035003Y-48068009D02*
X67082622Y-48163247D01*
X67082622Y-48163247D02*
X67082622Y-48401342D01*
X67082622Y-48401342D02*
X67035003Y-48496580D01*
X67035003Y-48496580D02*
X66987384Y-48544200D01*
X66987384Y-48544200D02*
X66892146Y-48591819D01*
X66892146Y-48591819D02*
X66606432Y-48591819D01*
X66606432Y-48591819D02*
X66511194Y-48544200D01*
X66511194Y-48544200D02*
X66463575Y-48496580D01*
X116462677Y-48611819D02*
X116462677Y-47611819D01*
X116462677Y-47611819D02*
X116796010Y-48326104D01*
X116796010Y-48326104D02*
X117129343Y-47611819D01*
X117129343Y-47611819D02*
X117129343Y-48611819D01*
X117605534Y-48611819D02*
X117605534Y-47611819D01*
X117605534Y-48088009D02*
X118176962Y-48088009D01*
X118176962Y-48611819D02*
X118176962Y-47611819D01*
X119081724Y-47945152D02*
X119081724Y-48611819D01*
X118843629Y-47564200D02*
X118605534Y-48278485D01*
X118605534Y-48278485D02*
X119224581Y-48278485D01*
X102462677Y-48611819D02*
X102462677Y-47611819D01*
X102462677Y-47611819D02*
X102796010Y-48326104D01*
X102796010Y-48326104D02*
X103129343Y-47611819D01*
X103129343Y-47611819D02*
X103129343Y-48611819D01*
X103605534Y-48611819D02*
X103605534Y-47611819D01*
X103605534Y-48088009D02*
X104176962Y-48088009D01*
X104176962Y-48611819D02*
X104176962Y-47611819D01*
X104557915Y-47611819D02*
X105176962Y-47611819D01*
X105176962Y-47611819D02*
X104843629Y-47992771D01*
X104843629Y-47992771D02*
X104986486Y-47992771D01*
X104986486Y-47992771D02*
X105081724Y-48040390D01*
X105081724Y-48040390D02*
X105129343Y-48088009D01*
X105129343Y-48088009D02*
X105176962Y-48183247D01*
X105176962Y-48183247D02*
X105176962Y-48421342D01*
X105176962Y-48421342D02*
X105129343Y-48516580D01*
X105129343Y-48516580D02*
X105081724Y-48564200D01*
X105081724Y-48564200D02*
X104986486Y-48611819D01*
X104986486Y-48611819D02*
X104700772Y-48611819D01*
X104700772Y-48611819D02*
X104605534Y-48564200D01*
X104605534Y-48564200D02*
X104557915Y-48516580D01*
X116386513Y-45696989D02*
X116053180Y-45220798D01*
X115815085Y-45696989D02*
X115815085Y-44696989D01*
X115815085Y-44696989D02*
X116196037Y-44696989D01*
X116196037Y-44696989D02*
X116291275Y-44744608D01*
X116291275Y-44744608D02*
X116338894Y-44792227D01*
X116338894Y-44792227D02*
X116386513Y-44887465D01*
X116386513Y-44887465D02*
X116386513Y-45030322D01*
X116386513Y-45030322D02*
X116338894Y-45125560D01*
X116338894Y-45125560D02*
X116291275Y-45173179D01*
X116291275Y-45173179D02*
X116196037Y-45220798D01*
X116196037Y-45220798D02*
X115815085Y-45220798D01*
X116767466Y-44792227D02*
X116815085Y-44744608D01*
X116815085Y-44744608D02*
X116910323Y-44696989D01*
X116910323Y-44696989D02*
X117148418Y-44696989D01*
X117148418Y-44696989D02*
X117243656Y-44744608D01*
X117243656Y-44744608D02*
X117291275Y-44792227D01*
X117291275Y-44792227D02*
X117338894Y-44887465D01*
X117338894Y-44887465D02*
X117338894Y-44982703D01*
X117338894Y-44982703D02*
X117291275Y-45125560D01*
X117291275Y-45125560D02*
X116719847Y-45696989D01*
X116719847Y-45696989D02*
X117338894Y-45696989D01*
X83415507Y-48601819D02*
X83415507Y-47601819D01*
X83415507Y-47601819D02*
X83748840Y-48316104D01*
X83748840Y-48316104D02*
X84082173Y-47601819D01*
X84082173Y-47601819D02*
X84082173Y-48601819D01*
X84558364Y-48601819D02*
X84558364Y-47601819D01*
X84558364Y-48078009D02*
X85129792Y-48078009D01*
X85129792Y-48601819D02*
X85129792Y-47601819D01*
X85510745Y-47601819D02*
X86129792Y-47601819D01*
X86129792Y-47601819D02*
X85796459Y-47982771D01*
X85796459Y-47982771D02*
X85939316Y-47982771D01*
X85939316Y-47982771D02*
X86034554Y-48030390D01*
X86034554Y-48030390D02*
X86082173Y-48078009D01*
X86082173Y-48078009D02*
X86129792Y-48173247D01*
X86129792Y-48173247D02*
X86129792Y-48411342D01*
X86129792Y-48411342D02*
X86082173Y-48506580D01*
X86082173Y-48506580D02*
X86034554Y-48554200D01*
X86034554Y-48554200D02*
X85939316Y-48601819D01*
X85939316Y-48601819D02*
X85653602Y-48601819D01*
X85653602Y-48601819D02*
X85558364Y-48554200D01*
X85558364Y-48554200D02*
X85510745Y-48506580D01*
X110460676Y-39911819D02*
X110460676Y-40626104D01*
X110460676Y-40626104D02*
X110413057Y-40768961D01*
X110413057Y-40768961D02*
X110317819Y-40864200D01*
X110317819Y-40864200D02*
X110174962Y-40911819D01*
X110174962Y-40911819D02*
X110079724Y-40911819D01*
X111460676Y-40911819D02*
X110889248Y-40911819D01*
X111174962Y-40911819D02*
X111174962Y-39911819D01*
X111174962Y-39911819D02*
X111079724Y-40054676D01*
X111079724Y-40054676D02*
X110984486Y-40149914D01*
X110984486Y-40149914D02*
X110889248Y-40197533D01*
X116462677Y-36111819D02*
X116462677Y-35111819D01*
X116462677Y-35111819D02*
X116796010Y-35826104D01*
X116796010Y-35826104D02*
X117129343Y-35111819D01*
X117129343Y-35111819D02*
X117129343Y-36111819D01*
X117605534Y-36111819D02*
X117605534Y-35111819D01*
X117605534Y-35588009D02*
X118176962Y-35588009D01*
X118176962Y-36111819D02*
X118176962Y-35111819D01*
X118605534Y-35207057D02*
X118653153Y-35159438D01*
X118653153Y-35159438D02*
X118748391Y-35111819D01*
X118748391Y-35111819D02*
X118986486Y-35111819D01*
X118986486Y-35111819D02*
X119081724Y-35159438D01*
X119081724Y-35159438D02*
X119129343Y-35207057D01*
X119129343Y-35207057D02*
X119176962Y-35302295D01*
X119176962Y-35302295D02*
X119176962Y-35397533D01*
X119176962Y-35397533D02*
X119129343Y-35540390D01*
X119129343Y-35540390D02*
X118557915Y-36111819D01*
X118557915Y-36111819D02*
X119176962Y-36111819D01*
X102462677Y-36111819D02*
X102462677Y-35111819D01*
X102462677Y-35111819D02*
X102796010Y-35826104D01*
X102796010Y-35826104D02*
X103129343Y-35111819D01*
X103129343Y-35111819D02*
X103129343Y-36111819D01*
X103605534Y-36111819D02*
X103605534Y-35111819D01*
X103605534Y-35588009D02*
X104176962Y-35588009D01*
X104176962Y-36111819D02*
X104176962Y-35111819D01*
X105176962Y-36111819D02*
X104605534Y-36111819D01*
X104891248Y-36111819D02*
X104891248Y-35111819D01*
X104891248Y-35111819D02*
X104796010Y-35254676D01*
X104796010Y-35254676D02*
X104700772Y-35349914D01*
X104700772Y-35349914D02*
X104605534Y-35397533D01*
X110460676Y-46386819D02*
X110460676Y-47101104D01*
X110460676Y-47101104D02*
X110413057Y-47243961D01*
X110413057Y-47243961D02*
X110317819Y-47339200D01*
X110317819Y-47339200D02*
X110174962Y-47386819D01*
X110174962Y-47386819D02*
X110079724Y-47386819D01*
X110889248Y-46482057D02*
X110936867Y-46434438D01*
X110936867Y-46434438D02*
X111032105Y-46386819D01*
X111032105Y-46386819D02*
X111270200Y-46386819D01*
X111270200Y-46386819D02*
X111365438Y-46434438D01*
X111365438Y-46434438D02*
X111413057Y-46482057D01*
X111413057Y-46482057D02*
X111460676Y-46577295D01*
X111460676Y-46577295D02*
X111460676Y-46672533D01*
X111460676Y-46672533D02*
X111413057Y-46815390D01*
X111413057Y-46815390D02*
X110841629Y-47386819D01*
X110841629Y-47386819D02*
X111460676Y-47386819D01*
X97415507Y-36101819D02*
X97415507Y-35101819D01*
X97415507Y-35101819D02*
X97748840Y-35816104D01*
X97748840Y-35816104D02*
X98082173Y-35101819D01*
X98082173Y-35101819D02*
X98082173Y-36101819D01*
X98558364Y-36101819D02*
X98558364Y-35101819D01*
X98558364Y-35578009D02*
X99129792Y-35578009D01*
X99129792Y-36101819D02*
X99129792Y-35101819D01*
X99558364Y-35197057D02*
X99605983Y-35149438D01*
X99605983Y-35149438D02*
X99701221Y-35101819D01*
X99701221Y-35101819D02*
X99939316Y-35101819D01*
X99939316Y-35101819D02*
X100034554Y-35149438D01*
X100034554Y-35149438D02*
X100082173Y-35197057D01*
X100082173Y-35197057D02*
X100129792Y-35292295D01*
X100129792Y-35292295D02*
X100129792Y-35387533D01*
X100129792Y-35387533D02*
X100082173Y-35530390D01*
X100082173Y-35530390D02*
X99510745Y-36101819D01*
X99510745Y-36101819D02*
X100129792Y-36101819D01*
X97415507Y-48601819D02*
X97415507Y-47601819D01*
X97415507Y-47601819D02*
X97748840Y-48316104D01*
X97748840Y-48316104D02*
X98082173Y-47601819D01*
X98082173Y-47601819D02*
X98082173Y-48601819D01*
X98558364Y-48601819D02*
X98558364Y-47601819D01*
X98558364Y-48078009D02*
X99129792Y-48078009D01*
X99129792Y-48601819D02*
X99129792Y-47601819D01*
X100034554Y-47935152D02*
X100034554Y-48601819D01*
X99796459Y-47554200D02*
X99558364Y-48268485D01*
X99558364Y-48268485D02*
X100177411Y-48268485D01*
X40273997Y-36071819D02*
X40273997Y-35071819D01*
X40273997Y-35071819D02*
X40607330Y-35786104D01*
X40607330Y-35786104D02*
X40940663Y-35071819D01*
X40940663Y-35071819D02*
X40940663Y-36071819D01*
X41416854Y-36071819D02*
X41416854Y-35071819D01*
X41416854Y-35548009D02*
X41988282Y-35548009D01*
X41988282Y-36071819D02*
X41988282Y-35071819D01*
X42416854Y-35167057D02*
X42464473Y-35119438D01*
X42464473Y-35119438D02*
X42559711Y-35071819D01*
X42559711Y-35071819D02*
X42797806Y-35071819D01*
X42797806Y-35071819D02*
X42893044Y-35119438D01*
X42893044Y-35119438D02*
X42940663Y-35167057D01*
X42940663Y-35167057D02*
X42988282Y-35262295D01*
X42988282Y-35262295D02*
X42988282Y-35357533D01*
X42988282Y-35357533D02*
X42940663Y-35500390D01*
X42940663Y-35500390D02*
X42369235Y-36071819D01*
X42369235Y-36071819D02*
X42988282Y-36071819D01*
X40197833Y-45656989D02*
X39864500Y-45180798D01*
X39626405Y-45656989D02*
X39626405Y-44656989D01*
X39626405Y-44656989D02*
X40007357Y-44656989D01*
X40007357Y-44656989D02*
X40102595Y-44704608D01*
X40102595Y-44704608D02*
X40150214Y-44752227D01*
X40150214Y-44752227D02*
X40197833Y-44847465D01*
X40197833Y-44847465D02*
X40197833Y-44990322D01*
X40197833Y-44990322D02*
X40150214Y-45085560D01*
X40150214Y-45085560D02*
X40102595Y-45133179D01*
X40102595Y-45133179D02*
X40007357Y-45180798D01*
X40007357Y-45180798D02*
X39626405Y-45180798D01*
X40578786Y-44752227D02*
X40626405Y-44704608D01*
X40626405Y-44704608D02*
X40721643Y-44656989D01*
X40721643Y-44656989D02*
X40959738Y-44656989D01*
X40959738Y-44656989D02*
X41054976Y-44704608D01*
X41054976Y-44704608D02*
X41102595Y-44752227D01*
X41102595Y-44752227D02*
X41150214Y-44847465D01*
X41150214Y-44847465D02*
X41150214Y-44942703D01*
X41150214Y-44942703D02*
X41102595Y-45085560D01*
X41102595Y-45085560D02*
X40531167Y-45656989D01*
X40531167Y-45656989D02*
X41150214Y-45656989D01*
X34271996Y-46346819D02*
X34271996Y-47061104D01*
X34271996Y-47061104D02*
X34224377Y-47203961D01*
X34224377Y-47203961D02*
X34129139Y-47299200D01*
X34129139Y-47299200D02*
X33986282Y-47346819D01*
X33986282Y-47346819D02*
X33891044Y-47346819D01*
X34700568Y-46442057D02*
X34748187Y-46394438D01*
X34748187Y-46394438D02*
X34843425Y-46346819D01*
X34843425Y-46346819D02*
X35081520Y-46346819D01*
X35081520Y-46346819D02*
X35176758Y-46394438D01*
X35176758Y-46394438D02*
X35224377Y-46442057D01*
X35224377Y-46442057D02*
X35271996Y-46537295D01*
X35271996Y-46537295D02*
X35271996Y-46632533D01*
X35271996Y-46632533D02*
X35224377Y-46775390D01*
X35224377Y-46775390D02*
X34652949Y-47346819D01*
X34652949Y-47346819D02*
X35271996Y-47346819D01*
X116462677Y-18311819D02*
X116462677Y-17311819D01*
X116462677Y-17311819D02*
X116796010Y-18026104D01*
X116796010Y-18026104D02*
X117129343Y-17311819D01*
X117129343Y-17311819D02*
X117129343Y-18311819D01*
X117605534Y-18311819D02*
X117605534Y-17311819D01*
X117605534Y-17788009D02*
X118176962Y-17788009D01*
X118176962Y-18311819D02*
X118176962Y-17311819D01*
X118605534Y-17407057D02*
X118653153Y-17359438D01*
X118653153Y-17359438D02*
X118748391Y-17311819D01*
X118748391Y-17311819D02*
X118986486Y-17311819D01*
X118986486Y-17311819D02*
X119081724Y-17359438D01*
X119081724Y-17359438D02*
X119129343Y-17407057D01*
X119129343Y-17407057D02*
X119176962Y-17502295D01*
X119176962Y-17502295D02*
X119176962Y-17597533D01*
X119176962Y-17597533D02*
X119129343Y-17740390D01*
X119129343Y-17740390D02*
X118557915Y-18311819D01*
X118557915Y-18311819D02*
X119176962Y-18311819D01*
X102462677Y-18311819D02*
X102462677Y-17311819D01*
X102462677Y-17311819D02*
X102796010Y-18026104D01*
X102796010Y-18026104D02*
X103129343Y-17311819D01*
X103129343Y-17311819D02*
X103129343Y-18311819D01*
X103605534Y-18311819D02*
X103605534Y-17311819D01*
X103605534Y-17788009D02*
X104176962Y-17788009D01*
X104176962Y-18311819D02*
X104176962Y-17311819D01*
X105176962Y-18311819D02*
X104605534Y-18311819D01*
X104891248Y-18311819D02*
X104891248Y-17311819D01*
X104891248Y-17311819D02*
X104796010Y-17454676D01*
X104796010Y-17454676D02*
X104700772Y-17549914D01*
X104700772Y-17549914D02*
X104605534Y-17597533D01*
X102462677Y-30811819D02*
X102462677Y-29811819D01*
X102462677Y-29811819D02*
X102796010Y-30526104D01*
X102796010Y-30526104D02*
X103129343Y-29811819D01*
X103129343Y-29811819D02*
X103129343Y-30811819D01*
X103605534Y-30811819D02*
X103605534Y-29811819D01*
X103605534Y-30288009D02*
X104176962Y-30288009D01*
X104176962Y-30811819D02*
X104176962Y-29811819D01*
X104557915Y-29811819D02*
X105176962Y-29811819D01*
X105176962Y-29811819D02*
X104843629Y-30192771D01*
X104843629Y-30192771D02*
X104986486Y-30192771D01*
X104986486Y-30192771D02*
X105081724Y-30240390D01*
X105081724Y-30240390D02*
X105129343Y-30288009D01*
X105129343Y-30288009D02*
X105176962Y-30383247D01*
X105176962Y-30383247D02*
X105176962Y-30621342D01*
X105176962Y-30621342D02*
X105129343Y-30716580D01*
X105129343Y-30716580D02*
X105081724Y-30764200D01*
X105081724Y-30764200D02*
X104986486Y-30811819D01*
X104986486Y-30811819D02*
X104700772Y-30811819D01*
X104700772Y-30811819D02*
X104605534Y-30764200D01*
X104605534Y-30764200D02*
X104557915Y-30716580D01*
X110460676Y-22111819D02*
X110460676Y-22826104D01*
X110460676Y-22826104D02*
X110413057Y-22968961D01*
X110413057Y-22968961D02*
X110317819Y-23064200D01*
X110317819Y-23064200D02*
X110174962Y-23111819D01*
X110174962Y-23111819D02*
X110079724Y-23111819D01*
X111460676Y-23111819D02*
X110889248Y-23111819D01*
X111174962Y-23111819D02*
X111174962Y-22111819D01*
X111174962Y-22111819D02*
X111079724Y-22254676D01*
X111079724Y-22254676D02*
X110984486Y-22349914D01*
X110984486Y-22349914D02*
X110889248Y-22397533D01*
X110460676Y-28586819D02*
X110460676Y-29301104D01*
X110460676Y-29301104D02*
X110413057Y-29443961D01*
X110413057Y-29443961D02*
X110317819Y-29539200D01*
X110317819Y-29539200D02*
X110174962Y-29586819D01*
X110174962Y-29586819D02*
X110079724Y-29586819D01*
X110889248Y-28682057D02*
X110936867Y-28634438D01*
X110936867Y-28634438D02*
X111032105Y-28586819D01*
X111032105Y-28586819D02*
X111270200Y-28586819D01*
X111270200Y-28586819D02*
X111365438Y-28634438D01*
X111365438Y-28634438D02*
X111413057Y-28682057D01*
X111413057Y-28682057D02*
X111460676Y-28777295D01*
X111460676Y-28777295D02*
X111460676Y-28872533D01*
X111460676Y-28872533D02*
X111413057Y-29015390D01*
X111413057Y-29015390D02*
X110841629Y-29586819D01*
X110841629Y-29586819D02*
X111460676Y-29586819D01*
X116386513Y-27896989D02*
X116053180Y-27420798D01*
X115815085Y-27896989D02*
X115815085Y-26896989D01*
X115815085Y-26896989D02*
X116196037Y-26896989D01*
X116196037Y-26896989D02*
X116291275Y-26944608D01*
X116291275Y-26944608D02*
X116338894Y-26992227D01*
X116338894Y-26992227D02*
X116386513Y-27087465D01*
X116386513Y-27087465D02*
X116386513Y-27230322D01*
X116386513Y-27230322D02*
X116338894Y-27325560D01*
X116338894Y-27325560D02*
X116291275Y-27373179D01*
X116291275Y-27373179D02*
X116196037Y-27420798D01*
X116196037Y-27420798D02*
X115815085Y-27420798D01*
X116767466Y-26992227D02*
X116815085Y-26944608D01*
X116815085Y-26944608D02*
X116910323Y-26896989D01*
X116910323Y-26896989D02*
X117148418Y-26896989D01*
X117148418Y-26896989D02*
X117243656Y-26944608D01*
X117243656Y-26944608D02*
X117291275Y-26992227D01*
X117291275Y-26992227D02*
X117338894Y-27087465D01*
X117338894Y-27087465D02*
X117338894Y-27182703D01*
X117338894Y-27182703D02*
X117291275Y-27325560D01*
X117291275Y-27325560D02*
X116719847Y-27896989D01*
X116719847Y-27896989D02*
X117338894Y-27896989D01*
X116462677Y-30811819D02*
X116462677Y-29811819D01*
X116462677Y-29811819D02*
X116796010Y-30526104D01*
X116796010Y-30526104D02*
X117129343Y-29811819D01*
X117129343Y-29811819D02*
X117129343Y-30811819D01*
X117605534Y-30811819D02*
X117605534Y-29811819D01*
X117605534Y-30288009D02*
X118176962Y-30288009D01*
X118176962Y-30811819D02*
X118176962Y-29811819D01*
X119081724Y-30145152D02*
X119081724Y-30811819D01*
X118843629Y-29764200D02*
X118605534Y-30478485D01*
X118605534Y-30478485D02*
X119224581Y-30478485D01*
X26273997Y-18271819D02*
X26273997Y-17271819D01*
X26273997Y-17271819D02*
X26607330Y-17986104D01*
X26607330Y-17986104D02*
X26940663Y-17271819D01*
X26940663Y-17271819D02*
X26940663Y-18271819D01*
X27416854Y-18271819D02*
X27416854Y-17271819D01*
X27416854Y-17748009D02*
X27988282Y-17748009D01*
X27988282Y-18271819D02*
X27988282Y-17271819D01*
X28988282Y-18271819D02*
X28416854Y-18271819D01*
X28702568Y-18271819D02*
X28702568Y-17271819D01*
X28702568Y-17271819D02*
X28607330Y-17414676D01*
X28607330Y-17414676D02*
X28512092Y-17509914D01*
X28512092Y-17509914D02*
X28416854Y-17557533D01*
X78292173Y-27876989D02*
X77958840Y-27400798D01*
X77720745Y-27876989D02*
X77720745Y-26876989D01*
X77720745Y-26876989D02*
X78101697Y-26876989D01*
X78101697Y-26876989D02*
X78196935Y-26924608D01*
X78196935Y-26924608D02*
X78244554Y-26972227D01*
X78244554Y-26972227D02*
X78292173Y-27067465D01*
X78292173Y-27067465D02*
X78292173Y-27210322D01*
X78292173Y-27210322D02*
X78244554Y-27305560D01*
X78244554Y-27305560D02*
X78196935Y-27353179D01*
X78196935Y-27353179D02*
X78101697Y-27400798D01*
X78101697Y-27400798D02*
X77720745Y-27400798D01*
X78673126Y-26972227D02*
X78720745Y-26924608D01*
X78720745Y-26924608D02*
X78815983Y-26876989D01*
X78815983Y-26876989D02*
X79054078Y-26876989D01*
X79054078Y-26876989D02*
X79149316Y-26924608D01*
X79149316Y-26924608D02*
X79196935Y-26972227D01*
X79196935Y-26972227D02*
X79244554Y-27067465D01*
X79244554Y-27067465D02*
X79244554Y-27162703D01*
X79244554Y-27162703D02*
X79196935Y-27305560D01*
X79196935Y-27305560D02*
X78625507Y-27876989D01*
X78625507Y-27876989D02*
X79244554Y-27876989D01*
X72366336Y-28566819D02*
X72366336Y-29281104D01*
X72366336Y-29281104D02*
X72318717Y-29423961D01*
X72318717Y-29423961D02*
X72223479Y-29519200D01*
X72223479Y-29519200D02*
X72080622Y-29566819D01*
X72080622Y-29566819D02*
X71985384Y-29566819D01*
X72794908Y-28662057D02*
X72842527Y-28614438D01*
X72842527Y-28614438D02*
X72937765Y-28566819D01*
X72937765Y-28566819D02*
X73175860Y-28566819D01*
X73175860Y-28566819D02*
X73271098Y-28614438D01*
X73271098Y-28614438D02*
X73318717Y-28662057D01*
X73318717Y-28662057D02*
X73366336Y-28757295D01*
X73366336Y-28757295D02*
X73366336Y-28852533D01*
X73366336Y-28852533D02*
X73318717Y-28995390D01*
X73318717Y-28995390D02*
X72747289Y-29566819D01*
X72747289Y-29566819D02*
X73366336Y-29566819D01*
X78368337Y-30791819D02*
X78368337Y-29791819D01*
X78368337Y-29791819D02*
X78701670Y-30506104D01*
X78701670Y-30506104D02*
X79035003Y-29791819D01*
X79035003Y-29791819D02*
X79035003Y-30791819D01*
X79511194Y-30791819D02*
X79511194Y-29791819D01*
X79511194Y-30268009D02*
X80082622Y-30268009D01*
X80082622Y-30791819D02*
X80082622Y-29791819D01*
X80987384Y-30125152D02*
X80987384Y-30791819D01*
X80749289Y-29744200D02*
X80511194Y-30458485D01*
X80511194Y-30458485D02*
X81130241Y-30458485D01*
X64368337Y-18291819D02*
X64368337Y-17291819D01*
X64368337Y-17291819D02*
X64701670Y-18006104D01*
X64701670Y-18006104D02*
X65035003Y-17291819D01*
X65035003Y-17291819D02*
X65035003Y-18291819D01*
X65511194Y-18291819D02*
X65511194Y-17291819D01*
X65511194Y-17768009D02*
X66082622Y-17768009D01*
X66082622Y-18291819D02*
X66082622Y-17291819D01*
X67082622Y-18291819D02*
X66511194Y-18291819D01*
X66796908Y-18291819D02*
X66796908Y-17291819D01*
X66796908Y-17291819D02*
X66701670Y-17434676D01*
X66701670Y-17434676D02*
X66606432Y-17529914D01*
X66606432Y-17529914D02*
X66511194Y-17577533D01*
X64368337Y-30791819D02*
X64368337Y-29791819D01*
X64368337Y-29791819D02*
X64701670Y-30506104D01*
X64701670Y-30506104D02*
X65035003Y-29791819D01*
X65035003Y-29791819D02*
X65035003Y-30791819D01*
X65511194Y-30791819D02*
X65511194Y-29791819D01*
X65511194Y-30268009D02*
X66082622Y-30268009D01*
X66082622Y-30791819D02*
X66082622Y-29791819D01*
X66463575Y-29791819D02*
X67082622Y-29791819D01*
X67082622Y-29791819D02*
X66749289Y-30172771D01*
X66749289Y-30172771D02*
X66892146Y-30172771D01*
X66892146Y-30172771D02*
X66987384Y-30220390D01*
X66987384Y-30220390D02*
X67035003Y-30268009D01*
X67035003Y-30268009D02*
X67082622Y-30363247D01*
X67082622Y-30363247D02*
X67082622Y-30601342D01*
X67082622Y-30601342D02*
X67035003Y-30696580D01*
X67035003Y-30696580D02*
X66987384Y-30744200D01*
X66987384Y-30744200D02*
X66892146Y-30791819D01*
X66892146Y-30791819D02*
X66606432Y-30791819D01*
X66606432Y-30791819D02*
X66511194Y-30744200D01*
X66511194Y-30744200D02*
X66463575Y-30696580D01*
X72366336Y-22091819D02*
X72366336Y-22806104D01*
X72366336Y-22806104D02*
X72318717Y-22948961D01*
X72318717Y-22948961D02*
X72223479Y-23044200D01*
X72223479Y-23044200D02*
X72080622Y-23091819D01*
X72080622Y-23091819D02*
X71985384Y-23091819D01*
X73366336Y-23091819D02*
X72794908Y-23091819D01*
X73080622Y-23091819D02*
X73080622Y-22091819D01*
X73080622Y-22091819D02*
X72985384Y-22234676D01*
X72985384Y-22234676D02*
X72890146Y-22329914D01*
X72890146Y-22329914D02*
X72794908Y-22377533D01*
X78368337Y-18291819D02*
X78368337Y-17291819D01*
X78368337Y-17291819D02*
X78701670Y-18006104D01*
X78701670Y-18006104D02*
X79035003Y-17291819D01*
X79035003Y-17291819D02*
X79035003Y-18291819D01*
X79511194Y-18291819D02*
X79511194Y-17291819D01*
X79511194Y-17768009D02*
X80082622Y-17768009D01*
X80082622Y-18291819D02*
X80082622Y-17291819D01*
X80511194Y-17387057D02*
X80558813Y-17339438D01*
X80558813Y-17339438D02*
X80654051Y-17291819D01*
X80654051Y-17291819D02*
X80892146Y-17291819D01*
X80892146Y-17291819D02*
X80987384Y-17339438D01*
X80987384Y-17339438D02*
X81035003Y-17387057D01*
X81035003Y-17387057D02*
X81082622Y-17482295D01*
X81082622Y-17482295D02*
X81082622Y-17577533D01*
X81082622Y-17577533D02*
X81035003Y-17720390D01*
X81035003Y-17720390D02*
X80463575Y-18291819D01*
X80463575Y-18291819D02*
X81082622Y-18291819D01*
X53319166Y-22081819D02*
X53319166Y-22796104D01*
X53319166Y-22796104D02*
X53271547Y-22938961D01*
X53271547Y-22938961D02*
X53176309Y-23034200D01*
X53176309Y-23034200D02*
X53033452Y-23081819D01*
X53033452Y-23081819D02*
X52938214Y-23081819D01*
X54319166Y-23081819D02*
X53747738Y-23081819D01*
X54033452Y-23081819D02*
X54033452Y-22081819D01*
X54033452Y-22081819D02*
X53938214Y-22224676D01*
X53938214Y-22224676D02*
X53842976Y-22319914D01*
X53842976Y-22319914D02*
X53747738Y-22367533D01*
X45321167Y-30781819D02*
X45321167Y-29781819D01*
X45321167Y-29781819D02*
X45654500Y-30496104D01*
X45654500Y-30496104D02*
X45987833Y-29781819D01*
X45987833Y-29781819D02*
X45987833Y-30781819D01*
X46464024Y-30781819D02*
X46464024Y-29781819D01*
X46464024Y-30258009D02*
X47035452Y-30258009D01*
X47035452Y-30781819D02*
X47035452Y-29781819D01*
X47416405Y-29781819D02*
X48035452Y-29781819D01*
X48035452Y-29781819D02*
X47702119Y-30162771D01*
X47702119Y-30162771D02*
X47844976Y-30162771D01*
X47844976Y-30162771D02*
X47940214Y-30210390D01*
X47940214Y-30210390D02*
X47987833Y-30258009D01*
X47987833Y-30258009D02*
X48035452Y-30353247D01*
X48035452Y-30353247D02*
X48035452Y-30591342D01*
X48035452Y-30591342D02*
X47987833Y-30686580D01*
X47987833Y-30686580D02*
X47940214Y-30734200D01*
X47940214Y-30734200D02*
X47844976Y-30781819D01*
X47844976Y-30781819D02*
X47559262Y-30781819D01*
X47559262Y-30781819D02*
X47464024Y-30734200D01*
X47464024Y-30734200D02*
X47416405Y-30686580D01*
X59321167Y-30781819D02*
X59321167Y-29781819D01*
X59321167Y-29781819D02*
X59654500Y-30496104D01*
X59654500Y-30496104D02*
X59987833Y-29781819D01*
X59987833Y-29781819D02*
X59987833Y-30781819D01*
X60464024Y-30781819D02*
X60464024Y-29781819D01*
X60464024Y-30258009D02*
X61035452Y-30258009D01*
X61035452Y-30781819D02*
X61035452Y-29781819D01*
X61940214Y-30115152D02*
X61940214Y-30781819D01*
X61702119Y-29734200D02*
X61464024Y-30448485D01*
X61464024Y-30448485D02*
X62083071Y-30448485D01*
X59245003Y-27866989D02*
X58911670Y-27390798D01*
X58673575Y-27866989D02*
X58673575Y-26866989D01*
X58673575Y-26866989D02*
X59054527Y-26866989D01*
X59054527Y-26866989D02*
X59149765Y-26914608D01*
X59149765Y-26914608D02*
X59197384Y-26962227D01*
X59197384Y-26962227D02*
X59245003Y-27057465D01*
X59245003Y-27057465D02*
X59245003Y-27200322D01*
X59245003Y-27200322D02*
X59197384Y-27295560D01*
X59197384Y-27295560D02*
X59149765Y-27343179D01*
X59149765Y-27343179D02*
X59054527Y-27390798D01*
X59054527Y-27390798D02*
X58673575Y-27390798D01*
X59625956Y-26962227D02*
X59673575Y-26914608D01*
X59673575Y-26914608D02*
X59768813Y-26866989D01*
X59768813Y-26866989D02*
X60006908Y-26866989D01*
X60006908Y-26866989D02*
X60102146Y-26914608D01*
X60102146Y-26914608D02*
X60149765Y-26962227D01*
X60149765Y-26962227D02*
X60197384Y-27057465D01*
X60197384Y-27057465D02*
X60197384Y-27152703D01*
X60197384Y-27152703D02*
X60149765Y-27295560D01*
X60149765Y-27295560D02*
X59578337Y-27866989D01*
X59578337Y-27866989D02*
X60197384Y-27866989D01*
X45321167Y-18281819D02*
X45321167Y-17281819D01*
X45321167Y-17281819D02*
X45654500Y-17996104D01*
X45654500Y-17996104D02*
X45987833Y-17281819D01*
X45987833Y-17281819D02*
X45987833Y-18281819D01*
X46464024Y-18281819D02*
X46464024Y-17281819D01*
X46464024Y-17758009D02*
X47035452Y-17758009D01*
X47035452Y-18281819D02*
X47035452Y-17281819D01*
X48035452Y-18281819D02*
X47464024Y-18281819D01*
X47749738Y-18281819D02*
X47749738Y-17281819D01*
X47749738Y-17281819D02*
X47654500Y-17424676D01*
X47654500Y-17424676D02*
X47559262Y-17519914D01*
X47559262Y-17519914D02*
X47464024Y-17567533D01*
X59321167Y-18281819D02*
X59321167Y-17281819D01*
X59321167Y-17281819D02*
X59654500Y-17996104D01*
X59654500Y-17996104D02*
X59987833Y-17281819D01*
X59987833Y-17281819D02*
X59987833Y-18281819D01*
X60464024Y-18281819D02*
X60464024Y-17281819D01*
X60464024Y-17758009D02*
X61035452Y-17758009D01*
X61035452Y-18281819D02*
X61035452Y-17281819D01*
X61464024Y-17377057D02*
X61511643Y-17329438D01*
X61511643Y-17329438D02*
X61606881Y-17281819D01*
X61606881Y-17281819D02*
X61844976Y-17281819D01*
X61844976Y-17281819D02*
X61940214Y-17329438D01*
X61940214Y-17329438D02*
X61987833Y-17377057D01*
X61987833Y-17377057D02*
X62035452Y-17472295D01*
X62035452Y-17472295D02*
X62035452Y-17567533D01*
X62035452Y-17567533D02*
X61987833Y-17710390D01*
X61987833Y-17710390D02*
X61416405Y-18281819D01*
X61416405Y-18281819D02*
X62035452Y-18281819D01*
X53319166Y-28556819D02*
X53319166Y-29271104D01*
X53319166Y-29271104D02*
X53271547Y-29413961D01*
X53271547Y-29413961D02*
X53176309Y-29509200D01*
X53176309Y-29509200D02*
X53033452Y-29556819D01*
X53033452Y-29556819D02*
X52938214Y-29556819D01*
X53747738Y-28652057D02*
X53795357Y-28604438D01*
X53795357Y-28604438D02*
X53890595Y-28556819D01*
X53890595Y-28556819D02*
X54128690Y-28556819D01*
X54128690Y-28556819D02*
X54223928Y-28604438D01*
X54223928Y-28604438D02*
X54271547Y-28652057D01*
X54271547Y-28652057D02*
X54319166Y-28747295D01*
X54319166Y-28747295D02*
X54319166Y-28842533D01*
X54319166Y-28842533D02*
X54271547Y-28985390D01*
X54271547Y-28985390D02*
X53700119Y-29556819D01*
X53700119Y-29556819D02*
X54319166Y-29556819D01*
X34271996Y-22071819D02*
X34271996Y-22786104D01*
X34271996Y-22786104D02*
X34224377Y-22928961D01*
X34224377Y-22928961D02*
X34129139Y-23024200D01*
X34129139Y-23024200D02*
X33986282Y-23071819D01*
X33986282Y-23071819D02*
X33891044Y-23071819D01*
X35271996Y-23071819D02*
X34700568Y-23071819D01*
X34986282Y-23071819D02*
X34986282Y-22071819D01*
X34986282Y-22071819D02*
X34891044Y-22214676D01*
X34891044Y-22214676D02*
X34795806Y-22309914D01*
X34795806Y-22309914D02*
X34700568Y-22357533D01*
X26273997Y-30771819D02*
X26273997Y-29771819D01*
X26273997Y-29771819D02*
X26607330Y-30486104D01*
X26607330Y-30486104D02*
X26940663Y-29771819D01*
X26940663Y-29771819D02*
X26940663Y-30771819D01*
X27416854Y-30771819D02*
X27416854Y-29771819D01*
X27416854Y-30248009D02*
X27988282Y-30248009D01*
X27988282Y-30771819D02*
X27988282Y-29771819D01*
X28369235Y-29771819D02*
X28988282Y-29771819D01*
X28988282Y-29771819D02*
X28654949Y-30152771D01*
X28654949Y-30152771D02*
X28797806Y-30152771D01*
X28797806Y-30152771D02*
X28893044Y-30200390D01*
X28893044Y-30200390D02*
X28940663Y-30248009D01*
X28940663Y-30248009D02*
X28988282Y-30343247D01*
X28988282Y-30343247D02*
X28988282Y-30581342D01*
X28988282Y-30581342D02*
X28940663Y-30676580D01*
X28940663Y-30676580D02*
X28893044Y-30724200D01*
X28893044Y-30724200D02*
X28797806Y-30771819D01*
X28797806Y-30771819D02*
X28512092Y-30771819D01*
X28512092Y-30771819D02*
X28416854Y-30724200D01*
X28416854Y-30724200D02*
X28369235Y-30676580D01*
X83415507Y-18301819D02*
X83415507Y-17301819D01*
X83415507Y-17301819D02*
X83748840Y-18016104D01*
X83748840Y-18016104D02*
X84082173Y-17301819D01*
X84082173Y-17301819D02*
X84082173Y-18301819D01*
X84558364Y-18301819D02*
X84558364Y-17301819D01*
X84558364Y-17778009D02*
X85129792Y-17778009D01*
X85129792Y-18301819D02*
X85129792Y-17301819D01*
X86129792Y-18301819D02*
X85558364Y-18301819D01*
X85844078Y-18301819D02*
X85844078Y-17301819D01*
X85844078Y-17301819D02*
X85748840Y-17444676D01*
X85748840Y-17444676D02*
X85653602Y-17539914D01*
X85653602Y-17539914D02*
X85558364Y-17587533D01*
X40273997Y-30771819D02*
X40273997Y-29771819D01*
X40273997Y-29771819D02*
X40607330Y-30486104D01*
X40607330Y-30486104D02*
X40940663Y-29771819D01*
X40940663Y-29771819D02*
X40940663Y-30771819D01*
X41416854Y-30771819D02*
X41416854Y-29771819D01*
X41416854Y-30248009D02*
X41988282Y-30248009D01*
X41988282Y-30771819D02*
X41988282Y-29771819D01*
X42893044Y-30105152D02*
X42893044Y-30771819D01*
X42654949Y-29724200D02*
X42416854Y-30438485D01*
X42416854Y-30438485D02*
X43035901Y-30438485D01*
X91413506Y-28576819D02*
X91413506Y-29291104D01*
X91413506Y-29291104D02*
X91365887Y-29433961D01*
X91365887Y-29433961D02*
X91270649Y-29529200D01*
X91270649Y-29529200D02*
X91127792Y-29576819D01*
X91127792Y-29576819D02*
X91032554Y-29576819D01*
X91842078Y-28672057D02*
X91889697Y-28624438D01*
X91889697Y-28624438D02*
X91984935Y-28576819D01*
X91984935Y-28576819D02*
X92223030Y-28576819D01*
X92223030Y-28576819D02*
X92318268Y-28624438D01*
X92318268Y-28624438D02*
X92365887Y-28672057D01*
X92365887Y-28672057D02*
X92413506Y-28767295D01*
X92413506Y-28767295D02*
X92413506Y-28862533D01*
X92413506Y-28862533D02*
X92365887Y-29005390D01*
X92365887Y-29005390D02*
X91794459Y-29576819D01*
X91794459Y-29576819D02*
X92413506Y-29576819D01*
X97339343Y-27886989D02*
X97006010Y-27410798D01*
X96767915Y-27886989D02*
X96767915Y-26886989D01*
X96767915Y-26886989D02*
X97148867Y-26886989D01*
X97148867Y-26886989D02*
X97244105Y-26934608D01*
X97244105Y-26934608D02*
X97291724Y-26982227D01*
X97291724Y-26982227D02*
X97339343Y-27077465D01*
X97339343Y-27077465D02*
X97339343Y-27220322D01*
X97339343Y-27220322D02*
X97291724Y-27315560D01*
X97291724Y-27315560D02*
X97244105Y-27363179D01*
X97244105Y-27363179D02*
X97148867Y-27410798D01*
X97148867Y-27410798D02*
X96767915Y-27410798D01*
X97720296Y-26982227D02*
X97767915Y-26934608D01*
X97767915Y-26934608D02*
X97863153Y-26886989D01*
X97863153Y-26886989D02*
X98101248Y-26886989D01*
X98101248Y-26886989D02*
X98196486Y-26934608D01*
X98196486Y-26934608D02*
X98244105Y-26982227D01*
X98244105Y-26982227D02*
X98291724Y-27077465D01*
X98291724Y-27077465D02*
X98291724Y-27172703D01*
X98291724Y-27172703D02*
X98244105Y-27315560D01*
X98244105Y-27315560D02*
X97672677Y-27886989D01*
X97672677Y-27886989D02*
X98291724Y-27886989D01*
X91413506Y-22101819D02*
X91413506Y-22816104D01*
X91413506Y-22816104D02*
X91365887Y-22958961D01*
X91365887Y-22958961D02*
X91270649Y-23054200D01*
X91270649Y-23054200D02*
X91127792Y-23101819D01*
X91127792Y-23101819D02*
X91032554Y-23101819D01*
X92413506Y-23101819D02*
X91842078Y-23101819D01*
X92127792Y-23101819D02*
X92127792Y-22101819D01*
X92127792Y-22101819D02*
X92032554Y-22244676D01*
X92032554Y-22244676D02*
X91937316Y-22339914D01*
X91937316Y-22339914D02*
X91842078Y-22387533D01*
X97415507Y-18301819D02*
X97415507Y-17301819D01*
X97415507Y-17301819D02*
X97748840Y-18016104D01*
X97748840Y-18016104D02*
X98082173Y-17301819D01*
X98082173Y-17301819D02*
X98082173Y-18301819D01*
X98558364Y-18301819D02*
X98558364Y-17301819D01*
X98558364Y-17778009D02*
X99129792Y-17778009D01*
X99129792Y-18301819D02*
X99129792Y-17301819D01*
X99558364Y-17397057D02*
X99605983Y-17349438D01*
X99605983Y-17349438D02*
X99701221Y-17301819D01*
X99701221Y-17301819D02*
X99939316Y-17301819D01*
X99939316Y-17301819D02*
X100034554Y-17349438D01*
X100034554Y-17349438D02*
X100082173Y-17397057D01*
X100082173Y-17397057D02*
X100129792Y-17492295D01*
X100129792Y-17492295D02*
X100129792Y-17587533D01*
X100129792Y-17587533D02*
X100082173Y-17730390D01*
X100082173Y-17730390D02*
X99510745Y-18301819D01*
X99510745Y-18301819D02*
X100129792Y-18301819D01*
X40273997Y-18271819D02*
X40273997Y-17271819D01*
X40273997Y-17271819D02*
X40607330Y-17986104D01*
X40607330Y-17986104D02*
X40940663Y-17271819D01*
X40940663Y-17271819D02*
X40940663Y-18271819D01*
X41416854Y-18271819D02*
X41416854Y-17271819D01*
X41416854Y-17748009D02*
X41988282Y-17748009D01*
X41988282Y-18271819D02*
X41988282Y-17271819D01*
X42416854Y-17367057D02*
X42464473Y-17319438D01*
X42464473Y-17319438D02*
X42559711Y-17271819D01*
X42559711Y-17271819D02*
X42797806Y-17271819D01*
X42797806Y-17271819D02*
X42893044Y-17319438D01*
X42893044Y-17319438D02*
X42940663Y-17367057D01*
X42940663Y-17367057D02*
X42988282Y-17462295D01*
X42988282Y-17462295D02*
X42988282Y-17557533D01*
X42988282Y-17557533D02*
X42940663Y-17700390D01*
X42940663Y-17700390D02*
X42369235Y-18271819D01*
X42369235Y-18271819D02*
X42988282Y-18271819D01*
X97415507Y-30801819D02*
X97415507Y-29801819D01*
X97415507Y-29801819D02*
X97748840Y-30516104D01*
X97748840Y-30516104D02*
X98082173Y-29801819D01*
X98082173Y-29801819D02*
X98082173Y-30801819D01*
X98558364Y-30801819D02*
X98558364Y-29801819D01*
X98558364Y-30278009D02*
X99129792Y-30278009D01*
X99129792Y-30801819D02*
X99129792Y-29801819D01*
X100034554Y-30135152D02*
X100034554Y-30801819D01*
X99796459Y-29754200D02*
X99558364Y-30468485D01*
X99558364Y-30468485D02*
X100177411Y-30468485D01*
X83415507Y-30801819D02*
X83415507Y-29801819D01*
X83415507Y-29801819D02*
X83748840Y-30516104D01*
X83748840Y-30516104D02*
X84082173Y-29801819D01*
X84082173Y-29801819D02*
X84082173Y-30801819D01*
X84558364Y-30801819D02*
X84558364Y-29801819D01*
X84558364Y-30278009D02*
X85129792Y-30278009D01*
X85129792Y-30801819D02*
X85129792Y-29801819D01*
X85510745Y-29801819D02*
X86129792Y-29801819D01*
X86129792Y-29801819D02*
X85796459Y-30182771D01*
X85796459Y-30182771D02*
X85939316Y-30182771D01*
X85939316Y-30182771D02*
X86034554Y-30230390D01*
X86034554Y-30230390D02*
X86082173Y-30278009D01*
X86082173Y-30278009D02*
X86129792Y-30373247D01*
X86129792Y-30373247D02*
X86129792Y-30611342D01*
X86129792Y-30611342D02*
X86082173Y-30706580D01*
X86082173Y-30706580D02*
X86034554Y-30754200D01*
X86034554Y-30754200D02*
X85939316Y-30801819D01*
X85939316Y-30801819D02*
X85653602Y-30801819D01*
X85653602Y-30801819D02*
X85558364Y-30754200D01*
X85558364Y-30754200D02*
X85510745Y-30706580D01*
X40197833Y-27856989D02*
X39864500Y-27380798D01*
X39626405Y-27856989D02*
X39626405Y-26856989D01*
X39626405Y-26856989D02*
X40007357Y-26856989D01*
X40007357Y-26856989D02*
X40102595Y-26904608D01*
X40102595Y-26904608D02*
X40150214Y-26952227D01*
X40150214Y-26952227D02*
X40197833Y-27047465D01*
X40197833Y-27047465D02*
X40197833Y-27190322D01*
X40197833Y-27190322D02*
X40150214Y-27285560D01*
X40150214Y-27285560D02*
X40102595Y-27333179D01*
X40102595Y-27333179D02*
X40007357Y-27380798D01*
X40007357Y-27380798D02*
X39626405Y-27380798D01*
X40578786Y-26952227D02*
X40626405Y-26904608D01*
X40626405Y-26904608D02*
X40721643Y-26856989D01*
X40721643Y-26856989D02*
X40959738Y-26856989D01*
X40959738Y-26856989D02*
X41054976Y-26904608D01*
X41054976Y-26904608D02*
X41102595Y-26952227D01*
X41102595Y-26952227D02*
X41150214Y-27047465D01*
X41150214Y-27047465D02*
X41150214Y-27142703D01*
X41150214Y-27142703D02*
X41102595Y-27285560D01*
X41102595Y-27285560D02*
X40531167Y-27856989D01*
X40531167Y-27856989D02*
X41150214Y-27856989D01*
X34271996Y-28546819D02*
X34271996Y-29261104D01*
X34271996Y-29261104D02*
X34224377Y-29403961D01*
X34224377Y-29403961D02*
X34129139Y-29499200D01*
X34129139Y-29499200D02*
X33986282Y-29546819D01*
X33986282Y-29546819D02*
X33891044Y-29546819D01*
X34700568Y-28642057D02*
X34748187Y-28594438D01*
X34748187Y-28594438D02*
X34843425Y-28546819D01*
X34843425Y-28546819D02*
X35081520Y-28546819D01*
X35081520Y-28546819D02*
X35176758Y-28594438D01*
X35176758Y-28594438D02*
X35224377Y-28642057D01*
X35224377Y-28642057D02*
X35271996Y-28737295D01*
X35271996Y-28737295D02*
X35271996Y-28832533D01*
X35271996Y-28832533D02*
X35224377Y-28975390D01*
X35224377Y-28975390D02*
X34652949Y-29546819D01*
X34652949Y-29546819D02*
X35271996Y-29546819D01*
D11*
X87671840Y-105462000D02*
X87671840Y-106062000D01*
X87781840Y-105462000D02*
X87671840Y-105462000D01*
X90546840Y-102872000D02*
X90746840Y-103272000D01*
X90746840Y-103272000D02*
X90946840Y-102872000D01*
X90946840Y-102872000D02*
X90546840Y-102872000D01*
X95711840Y-105462000D02*
X95821840Y-105462000D01*
X95821840Y-105462000D02*
X95821840Y-106062000D01*
X97268752Y-99539670D02*
X97743268Y-99539670D01*
X97268752Y-100584670D02*
X97743268Y-100584670D01*
X49577500Y-105442000D02*
X49577500Y-106042000D01*
X49687500Y-105442000D02*
X49577500Y-105442000D01*
X52452500Y-102852000D02*
X52652500Y-103252000D01*
X52652500Y-103252000D02*
X52852500Y-102852000D01*
X52852500Y-102852000D02*
X52452500Y-102852000D01*
X57617500Y-105442000D02*
X57727500Y-105442000D01*
X57727500Y-105442000D02*
X57727500Y-106042000D01*
X59174412Y-99519670D02*
X59648928Y-99519670D01*
X59174412Y-100564670D02*
X59648928Y-100564670D01*
X78221582Y-99529670D02*
X78696098Y-99529670D01*
X78221582Y-100574670D02*
X78696098Y-100574670D01*
X68624670Y-105452000D02*
X68624670Y-106052000D01*
X68734670Y-105452000D02*
X68624670Y-105452000D01*
X71499670Y-102862000D02*
X71699670Y-103262000D01*
X71699670Y-103262000D02*
X71899670Y-102862000D01*
X71899670Y-102862000D02*
X71499670Y-102862000D01*
X76664670Y-105452000D02*
X76774670Y-105452000D01*
X76774670Y-105452000D02*
X76774670Y-106052000D01*
X116315922Y-99549670D02*
X116790438Y-99549670D01*
X116315922Y-100594670D02*
X116790438Y-100594670D01*
X106719010Y-105472000D02*
X106719010Y-106072000D01*
X106829010Y-105472000D02*
X106719010Y-105472000D01*
X109594010Y-102882000D02*
X109794010Y-103282000D01*
X109794010Y-103282000D02*
X109994010Y-102882000D01*
X109994010Y-102882000D02*
X109594010Y-102882000D01*
X114759010Y-105472000D02*
X114869010Y-105472000D01*
X114869010Y-105472000D02*
X114869010Y-106072000D01*
X40127242Y-99509670D02*
X40601758Y-99509670D01*
X40127242Y-100554670D02*
X40601758Y-100554670D01*
X30530330Y-105432000D02*
X30530330Y-106032000D01*
X30640330Y-105432000D02*
X30530330Y-105432000D01*
X33405330Y-102842000D02*
X33605330Y-103242000D01*
X33605330Y-103242000D02*
X33805330Y-102842000D01*
X33805330Y-102842000D02*
X33405330Y-102842000D01*
X38570330Y-105432000D02*
X38680330Y-105432000D01*
X38680330Y-105432000D02*
X38680330Y-106032000D01*
X87671840Y-87662000D02*
X87671840Y-88262000D01*
X87781840Y-87662000D02*
X87671840Y-87662000D01*
X90546840Y-85072000D02*
X90746840Y-85472000D01*
X90746840Y-85472000D02*
X90946840Y-85072000D01*
X90946840Y-85072000D02*
X90546840Y-85072000D01*
X95711840Y-87662000D02*
X95821840Y-87662000D01*
X95821840Y-87662000D02*
X95821840Y-88262000D01*
X97268752Y-81739670D02*
X97743268Y-81739670D01*
X97268752Y-82784670D02*
X97743268Y-82784670D01*
X49577500Y-87642000D02*
X49577500Y-88242000D01*
X49687500Y-87642000D02*
X49577500Y-87642000D01*
X52452500Y-85052000D02*
X52652500Y-85452000D01*
X52652500Y-85452000D02*
X52852500Y-85052000D01*
X52852500Y-85052000D02*
X52452500Y-85052000D01*
X57617500Y-87642000D02*
X57727500Y-87642000D01*
X57727500Y-87642000D02*
X57727500Y-88242000D01*
X59174412Y-81719670D02*
X59648928Y-81719670D01*
X59174412Y-82764670D02*
X59648928Y-82764670D01*
X78221582Y-81729670D02*
X78696098Y-81729670D01*
X78221582Y-82774670D02*
X78696098Y-82774670D01*
X68624670Y-87652000D02*
X68624670Y-88252000D01*
X68734670Y-87652000D02*
X68624670Y-87652000D01*
X71499670Y-85062000D02*
X71699670Y-85462000D01*
X71699670Y-85462000D02*
X71899670Y-85062000D01*
X71899670Y-85062000D02*
X71499670Y-85062000D01*
X76664670Y-87652000D02*
X76774670Y-87652000D01*
X76774670Y-87652000D02*
X76774670Y-88252000D01*
X116315922Y-81749670D02*
X116790438Y-81749670D01*
X116315922Y-82794670D02*
X116790438Y-82794670D01*
X106719010Y-87672000D02*
X106719010Y-88272000D01*
X106829010Y-87672000D02*
X106719010Y-87672000D01*
X109594010Y-85082000D02*
X109794010Y-85482000D01*
X109794010Y-85482000D02*
X109994010Y-85082000D01*
X109994010Y-85082000D02*
X109594010Y-85082000D01*
X114759010Y-87672000D02*
X114869010Y-87672000D01*
X114869010Y-87672000D02*
X114869010Y-88272000D01*
X40127242Y-81709670D02*
X40601758Y-81709670D01*
X40127242Y-82754670D02*
X40601758Y-82754670D01*
X30530330Y-87632000D02*
X30530330Y-88232000D01*
X30640330Y-87632000D02*
X30530330Y-87632000D01*
X33405330Y-85042000D02*
X33605330Y-85442000D01*
X33605330Y-85442000D02*
X33805330Y-85042000D01*
X33805330Y-85042000D02*
X33405330Y-85042000D01*
X38570330Y-87632000D02*
X38680330Y-87632000D01*
X38680330Y-87632000D02*
X38680330Y-88232000D01*
X87671840Y-69862000D02*
X87671840Y-70462000D01*
X87781840Y-69862000D02*
X87671840Y-69862000D01*
X90546840Y-67272000D02*
X90746840Y-67672000D01*
X90746840Y-67672000D02*
X90946840Y-67272000D01*
X90946840Y-67272000D02*
X90546840Y-67272000D01*
X95711840Y-69862000D02*
X95821840Y-69862000D01*
X95821840Y-69862000D02*
X95821840Y-70462000D01*
X97268752Y-63939670D02*
X97743268Y-63939670D01*
X97268752Y-64984670D02*
X97743268Y-64984670D01*
X49577500Y-69842000D02*
X49577500Y-70442000D01*
X49687500Y-69842000D02*
X49577500Y-69842000D01*
X52452500Y-67252000D02*
X52652500Y-67652000D01*
X52652500Y-67652000D02*
X52852500Y-67252000D01*
X52852500Y-67252000D02*
X52452500Y-67252000D01*
X57617500Y-69842000D02*
X57727500Y-69842000D01*
X57727500Y-69842000D02*
X57727500Y-70442000D01*
X59174412Y-63919670D02*
X59648928Y-63919670D01*
X59174412Y-64964670D02*
X59648928Y-64964670D01*
X78221582Y-63929670D02*
X78696098Y-63929670D01*
X78221582Y-64974670D02*
X78696098Y-64974670D01*
X68624670Y-69852000D02*
X68624670Y-70452000D01*
X68734670Y-69852000D02*
X68624670Y-69852000D01*
X71499670Y-67262000D02*
X71699670Y-67662000D01*
X71699670Y-67662000D02*
X71899670Y-67262000D01*
X71899670Y-67262000D02*
X71499670Y-67262000D01*
X76664670Y-69852000D02*
X76774670Y-69852000D01*
X76774670Y-69852000D02*
X76774670Y-70452000D01*
X116315922Y-63949670D02*
X116790438Y-63949670D01*
X116315922Y-64994670D02*
X116790438Y-64994670D01*
X106719010Y-69872000D02*
X106719010Y-70472000D01*
X106829010Y-69872000D02*
X106719010Y-69872000D01*
X109594010Y-67282000D02*
X109794010Y-67682000D01*
X109794010Y-67682000D02*
X109994010Y-67282000D01*
X109994010Y-67282000D02*
X109594010Y-67282000D01*
X114759010Y-69872000D02*
X114869010Y-69872000D01*
X114869010Y-69872000D02*
X114869010Y-70472000D01*
X40127242Y-63909670D02*
X40601758Y-63909670D01*
X40127242Y-64954670D02*
X40601758Y-64954670D01*
X30530330Y-69832000D02*
X30530330Y-70432000D01*
X30640330Y-69832000D02*
X30530330Y-69832000D01*
X33405330Y-67242000D02*
X33605330Y-67642000D01*
X33605330Y-67642000D02*
X33805330Y-67242000D01*
X33805330Y-67242000D02*
X33405330Y-67242000D01*
X38570330Y-69832000D02*
X38680330Y-69832000D01*
X38680330Y-69832000D02*
X38680330Y-70432000D01*
X87671840Y-52062000D02*
X87671840Y-52662000D01*
X87781840Y-52062000D02*
X87671840Y-52062000D01*
X90546840Y-49472000D02*
X90746840Y-49872000D01*
X90746840Y-49872000D02*
X90946840Y-49472000D01*
X90946840Y-49472000D02*
X90546840Y-49472000D01*
X95711840Y-52062000D02*
X95821840Y-52062000D01*
X95821840Y-52062000D02*
X95821840Y-52662000D01*
X97268752Y-46139670D02*
X97743268Y-46139670D01*
X97268752Y-47184670D02*
X97743268Y-47184670D01*
X49577500Y-52042000D02*
X49577500Y-52642000D01*
X49687500Y-52042000D02*
X49577500Y-52042000D01*
X52452500Y-49452000D02*
X52652500Y-49852000D01*
X52652500Y-49852000D02*
X52852500Y-49452000D01*
X52852500Y-49452000D02*
X52452500Y-49452000D01*
X57617500Y-52042000D02*
X57727500Y-52042000D01*
X57727500Y-52042000D02*
X57727500Y-52642000D01*
X59174412Y-46119670D02*
X59648928Y-46119670D01*
X59174412Y-47164670D02*
X59648928Y-47164670D01*
X78221582Y-46129670D02*
X78696098Y-46129670D01*
X78221582Y-47174670D02*
X78696098Y-47174670D01*
X68624670Y-52052000D02*
X68624670Y-52652000D01*
X68734670Y-52052000D02*
X68624670Y-52052000D01*
X71499670Y-49462000D02*
X71699670Y-49862000D01*
X71699670Y-49862000D02*
X71899670Y-49462000D01*
X71899670Y-49462000D02*
X71499670Y-49462000D01*
X76664670Y-52052000D02*
X76774670Y-52052000D01*
X76774670Y-52052000D02*
X76774670Y-52652000D01*
X116315922Y-46149670D02*
X116790438Y-46149670D01*
X116315922Y-47194670D02*
X116790438Y-47194670D01*
X106719010Y-52072000D02*
X106719010Y-52672000D01*
X106829010Y-52072000D02*
X106719010Y-52072000D01*
X109594010Y-49482000D02*
X109794010Y-49882000D01*
X109794010Y-49882000D02*
X109994010Y-49482000D01*
X109994010Y-49482000D02*
X109594010Y-49482000D01*
X114759010Y-52072000D02*
X114869010Y-52072000D01*
X114869010Y-52072000D02*
X114869010Y-52672000D01*
X40127242Y-46109670D02*
X40601758Y-46109670D01*
X40127242Y-47154670D02*
X40601758Y-47154670D01*
X30530330Y-52032000D02*
X30530330Y-52632000D01*
X30640330Y-52032000D02*
X30530330Y-52032000D01*
X33405330Y-49442000D02*
X33605330Y-49842000D01*
X33605330Y-49842000D02*
X33805330Y-49442000D01*
X33805330Y-49442000D02*
X33405330Y-49442000D01*
X38570330Y-52032000D02*
X38680330Y-52032000D01*
X38680330Y-52032000D02*
X38680330Y-52632000D01*
X106719010Y-34272000D02*
X106719010Y-34872000D01*
X106829010Y-34272000D02*
X106719010Y-34272000D01*
X109594010Y-31682000D02*
X109794010Y-32082000D01*
X109794010Y-32082000D02*
X109994010Y-31682000D01*
X109994010Y-31682000D02*
X109594010Y-31682000D01*
X114759010Y-34272000D02*
X114869010Y-34272000D01*
X114869010Y-34272000D02*
X114869010Y-34872000D01*
X116315922Y-28349670D02*
X116790438Y-28349670D01*
X116315922Y-29394670D02*
X116790438Y-29394670D01*
X78221582Y-29374670D02*
X78696098Y-29374670D01*
X78221582Y-28329670D02*
X78696098Y-28329670D01*
X76774670Y-34252000D02*
X76774670Y-34852000D01*
X76664670Y-34252000D02*
X76774670Y-34252000D01*
X71899670Y-31662000D02*
X71499670Y-31662000D01*
X71699670Y-32062000D02*
X71899670Y-31662000D01*
X71499670Y-31662000D02*
X71699670Y-32062000D01*
X68734670Y-34252000D02*
X68624670Y-34252000D01*
X68624670Y-34252000D02*
X68624670Y-34852000D01*
X59174412Y-29364670D02*
X59648928Y-29364670D01*
X59174412Y-28319670D02*
X59648928Y-28319670D01*
X57727500Y-34242000D02*
X57727500Y-34842000D01*
X57617500Y-34242000D02*
X57727500Y-34242000D01*
X52852500Y-31652000D02*
X52452500Y-31652000D01*
X52652500Y-32052000D02*
X52852500Y-31652000D01*
X52452500Y-31652000D02*
X52652500Y-32052000D01*
X49687500Y-34242000D02*
X49577500Y-34242000D01*
X49577500Y-34242000D02*
X49577500Y-34842000D01*
X95821840Y-34262000D02*
X95821840Y-34862000D01*
X95711840Y-34262000D02*
X95821840Y-34262000D01*
X90946840Y-31672000D02*
X90546840Y-31672000D01*
X90746840Y-32072000D02*
X90946840Y-31672000D01*
X90546840Y-31672000D02*
X90746840Y-32072000D01*
X87781840Y-34262000D02*
X87671840Y-34262000D01*
X87671840Y-34262000D02*
X87671840Y-34862000D01*
X97268752Y-29384670D02*
X97743268Y-29384670D01*
X97268752Y-28339670D02*
X97743268Y-28339670D01*
X40127242Y-29354670D02*
X40601758Y-29354670D01*
X40127242Y-28309670D02*
X40601758Y-28309670D01*
X30530330Y-34232000D02*
X30530330Y-34832000D01*
X30640330Y-34232000D02*
X30530330Y-34232000D01*
X33405330Y-31642000D02*
X33605330Y-32042000D01*
X33605330Y-32042000D02*
X33805330Y-31642000D01*
X33805330Y-31642000D02*
X33405330Y-31642000D01*
X38570330Y-34232000D02*
X38680330Y-34232000D01*
X38680330Y-34232000D02*
X38680330Y-34832000D01*
%LPC*%
D12*
X94636840Y-96796000D03*
X88856840Y-96796000D03*
D13*
X94996840Y-98122000D03*
X94196840Y-98122000D03*
D14*
X92996840Y-98122000D03*
X92000840Y-98122000D03*
X91496840Y-98122000D03*
X90496840Y-98122000D03*
D13*
X88496840Y-98122000D03*
X89296840Y-98122000D03*
D14*
X89996840Y-98122000D03*
X90996840Y-98122000D03*
X92496840Y-98122000D03*
X93496840Y-98122000D03*
D15*
X96046840Y-97347000D03*
D16*
X96046840Y-93147000D03*
D15*
X87446840Y-97347000D03*
D16*
X87446840Y-93147000D03*
D17*
X27607330Y-105017000D03*
D18*
X27607330Y-105017000D03*
D19*
X90746840Y-102072000D03*
X91246840Y-102072000D03*
X91746840Y-102072000D03*
D20*
X89076840Y-103772000D03*
D19*
X92246840Y-102072000D03*
X92746840Y-102072000D03*
D20*
X94416840Y-103772000D03*
D21*
X96681010Y-100062170D03*
X98331010Y-100062170D03*
D17*
X41607330Y-105017000D03*
D18*
X41607330Y-105017000D03*
D17*
X84748840Y-92547000D03*
D18*
X84748840Y-92547000D03*
D19*
X52652500Y-102052000D03*
X53152500Y-102052000D03*
X53652500Y-102052000D03*
D20*
X50982500Y-103752000D03*
D19*
X54152500Y-102052000D03*
X54652500Y-102052000D03*
D20*
X56322500Y-103752000D03*
D17*
X46654500Y-105027000D03*
D18*
X46654500Y-105027000D03*
D12*
X56542500Y-96776000D03*
X50762500Y-96776000D03*
D13*
X56902500Y-98102000D03*
X56102500Y-98102000D03*
D14*
X54902500Y-98102000D03*
X53906500Y-98102000D03*
X53402500Y-98102000D03*
X52402500Y-98102000D03*
D13*
X50402500Y-98102000D03*
X51202500Y-98102000D03*
D14*
X51902500Y-98102000D03*
X52902500Y-98102000D03*
X54402500Y-98102000D03*
X55402500Y-98102000D03*
D15*
X57952500Y-97327000D03*
D16*
X57952500Y-93127000D03*
D15*
X49352500Y-97327000D03*
D16*
X49352500Y-93127000D03*
D12*
X75589670Y-96786000D03*
X69809670Y-96786000D03*
D13*
X75949670Y-98112000D03*
X75149670Y-98112000D03*
D14*
X73949670Y-98112000D03*
X72953670Y-98112000D03*
X72449670Y-98112000D03*
X71449670Y-98112000D03*
D13*
X69449670Y-98112000D03*
X70249670Y-98112000D03*
D14*
X70949670Y-98112000D03*
X71949670Y-98112000D03*
X73449670Y-98112000D03*
X74449670Y-98112000D03*
D15*
X76999670Y-97337000D03*
D16*
X76999670Y-93137000D03*
D15*
X68399670Y-97337000D03*
D16*
X68399670Y-93137000D03*
D17*
X65701670Y-92537000D03*
D18*
X65701670Y-92537000D03*
D17*
X46654500Y-92527000D03*
D18*
X46654500Y-92527000D03*
D21*
X58586670Y-100042170D03*
X60236670Y-100042170D03*
D17*
X60654500Y-105027000D03*
D18*
X60654500Y-105027000D03*
D21*
X77633840Y-100052170D03*
X79283840Y-100052170D03*
D19*
X71699670Y-102062000D03*
X72199670Y-102062000D03*
X72699670Y-102062000D03*
D20*
X70029670Y-103762000D03*
D19*
X73199670Y-102062000D03*
X73699670Y-102062000D03*
D20*
X75369670Y-103762000D03*
D17*
X27607330Y-92517000D03*
D18*
X27607330Y-92517000D03*
D12*
X37495330Y-96766000D03*
X31715330Y-96766000D03*
D13*
X37855330Y-98092000D03*
X37055330Y-98092000D03*
D14*
X35855330Y-98092000D03*
X34859330Y-98092000D03*
X34355330Y-98092000D03*
X33355330Y-98092000D03*
D13*
X31355330Y-98092000D03*
X32155330Y-98092000D03*
D14*
X32855330Y-98092000D03*
X33855330Y-98092000D03*
X35355330Y-98092000D03*
X36355330Y-98092000D03*
D15*
X38905330Y-97317000D03*
D16*
X38905330Y-93117000D03*
D15*
X30305330Y-97317000D03*
D16*
X30305330Y-93117000D03*
D17*
X79701670Y-92537000D03*
D18*
X79701670Y-92537000D03*
D17*
X60654500Y-92527000D03*
D18*
X60654500Y-92527000D03*
D17*
X79701670Y-105037000D03*
D18*
X79701670Y-105037000D03*
D17*
X65701670Y-105037000D03*
D18*
X65701670Y-105037000D03*
D17*
X117796010Y-105057000D03*
D18*
X117796010Y-105057000D03*
D17*
X103796010Y-105057000D03*
D18*
X103796010Y-105057000D03*
D21*
X115728180Y-100072170D03*
X117378180Y-100072170D03*
D17*
X84748840Y-105047000D03*
D18*
X84748840Y-105047000D03*
D12*
X113684010Y-96806000D03*
X107904010Y-96806000D03*
D13*
X114044010Y-98132000D03*
X113244010Y-98132000D03*
D14*
X112044010Y-98132000D03*
X111048010Y-98132000D03*
X110544010Y-98132000D03*
X109544010Y-98132000D03*
D13*
X107544010Y-98132000D03*
X108344010Y-98132000D03*
D14*
X109044010Y-98132000D03*
X110044010Y-98132000D03*
X111544010Y-98132000D03*
X112544010Y-98132000D03*
D15*
X115094010Y-97357000D03*
D16*
X115094010Y-93157000D03*
D15*
X106494010Y-97357000D03*
D16*
X106494010Y-93157000D03*
D17*
X117796010Y-92557000D03*
D18*
X117796010Y-92557000D03*
D17*
X103796010Y-92557000D03*
D18*
X103796010Y-92557000D03*
D19*
X109794010Y-102082000D03*
X110294010Y-102082000D03*
X110794010Y-102082000D03*
D20*
X108124010Y-103782000D03*
D19*
X111294010Y-102082000D03*
X111794010Y-102082000D03*
D20*
X113464010Y-103782000D03*
D17*
X98748840Y-92547000D03*
D18*
X98748840Y-92547000D03*
D17*
X98748840Y-105047000D03*
D18*
X98748840Y-105047000D03*
D17*
X41607330Y-92517000D03*
D18*
X41607330Y-92517000D03*
D21*
X39539500Y-100032170D03*
X41189500Y-100032170D03*
D19*
X33605330Y-102042000D03*
X34105330Y-102042000D03*
X34605330Y-102042000D03*
D20*
X31935330Y-103742000D03*
D19*
X35105330Y-102042000D03*
X35605330Y-102042000D03*
D20*
X37275330Y-103742000D03*
D12*
X94636840Y-78996000D03*
X88856840Y-78996000D03*
D13*
X94996840Y-80322000D03*
X94196840Y-80322000D03*
D14*
X92996840Y-80322000D03*
X92000840Y-80322000D03*
X91496840Y-80322000D03*
X90496840Y-80322000D03*
D13*
X88496840Y-80322000D03*
X89296840Y-80322000D03*
D14*
X89996840Y-80322000D03*
X90996840Y-80322000D03*
X92496840Y-80322000D03*
X93496840Y-80322000D03*
D15*
X96046840Y-79547000D03*
D16*
X96046840Y-75347000D03*
D15*
X87446840Y-79547000D03*
D16*
X87446840Y-75347000D03*
D17*
X27607330Y-87217000D03*
D18*
X27607330Y-87217000D03*
D19*
X90746840Y-84272000D03*
X91246840Y-84272000D03*
X91746840Y-84272000D03*
D20*
X89076840Y-85972000D03*
D19*
X92246840Y-84272000D03*
X92746840Y-84272000D03*
D20*
X94416840Y-85972000D03*
D21*
X96681010Y-82262170D03*
X98331010Y-82262170D03*
D17*
X41607330Y-87217000D03*
D18*
X41607330Y-87217000D03*
D17*
X84748840Y-74747000D03*
D18*
X84748840Y-74747000D03*
D19*
X52652500Y-84252000D03*
X53152500Y-84252000D03*
X53652500Y-84252000D03*
D20*
X50982500Y-85952000D03*
D19*
X54152500Y-84252000D03*
X54652500Y-84252000D03*
D20*
X56322500Y-85952000D03*
D17*
X46654500Y-87227000D03*
D18*
X46654500Y-87227000D03*
D12*
X56542500Y-78976000D03*
X50762500Y-78976000D03*
D13*
X56902500Y-80302000D03*
X56102500Y-80302000D03*
D14*
X54902500Y-80302000D03*
X53906500Y-80302000D03*
X53402500Y-80302000D03*
X52402500Y-80302000D03*
D13*
X50402500Y-80302000D03*
X51202500Y-80302000D03*
D14*
X51902500Y-80302000D03*
X52902500Y-80302000D03*
X54402500Y-80302000D03*
X55402500Y-80302000D03*
D15*
X57952500Y-79527000D03*
D16*
X57952500Y-75327000D03*
D15*
X49352500Y-79527000D03*
D16*
X49352500Y-75327000D03*
D12*
X75589670Y-78986000D03*
X69809670Y-78986000D03*
D13*
X75949670Y-80312000D03*
X75149670Y-80312000D03*
D14*
X73949670Y-80312000D03*
X72953670Y-80312000D03*
X72449670Y-80312000D03*
X71449670Y-80312000D03*
D13*
X69449670Y-80312000D03*
X70249670Y-80312000D03*
D14*
X70949670Y-80312000D03*
X71949670Y-80312000D03*
X73449670Y-80312000D03*
X74449670Y-80312000D03*
D15*
X76999670Y-79537000D03*
D16*
X76999670Y-75337000D03*
D15*
X68399670Y-79537000D03*
D16*
X68399670Y-75337000D03*
D17*
X65701670Y-74737000D03*
D18*
X65701670Y-74737000D03*
D17*
X46654500Y-74727000D03*
D18*
X46654500Y-74727000D03*
D21*
X58586670Y-82242170D03*
X60236670Y-82242170D03*
D17*
X60654500Y-87227000D03*
D18*
X60654500Y-87227000D03*
D21*
X77633840Y-82252170D03*
X79283840Y-82252170D03*
D19*
X71699670Y-84262000D03*
X72199670Y-84262000D03*
X72699670Y-84262000D03*
D20*
X70029670Y-85962000D03*
D19*
X73199670Y-84262000D03*
X73699670Y-84262000D03*
D20*
X75369670Y-85962000D03*
D17*
X27607330Y-74717000D03*
D18*
X27607330Y-74717000D03*
D12*
X37495330Y-78966000D03*
X31715330Y-78966000D03*
D13*
X37855330Y-80292000D03*
X37055330Y-80292000D03*
D14*
X35855330Y-80292000D03*
X34859330Y-80292000D03*
X34355330Y-80292000D03*
X33355330Y-80292000D03*
D13*
X31355330Y-80292000D03*
X32155330Y-80292000D03*
D14*
X32855330Y-80292000D03*
X33855330Y-80292000D03*
X35355330Y-80292000D03*
X36355330Y-80292000D03*
D15*
X38905330Y-79517000D03*
D16*
X38905330Y-75317000D03*
D15*
X30305330Y-79517000D03*
D16*
X30305330Y-75317000D03*
D17*
X79701670Y-74737000D03*
D18*
X79701670Y-74737000D03*
D17*
X60654500Y-74727000D03*
D18*
X60654500Y-74727000D03*
D17*
X79701670Y-87237000D03*
D18*
X79701670Y-87237000D03*
D17*
X65701670Y-87237000D03*
D18*
X65701670Y-87237000D03*
D17*
X117796010Y-87257000D03*
D18*
X117796010Y-87257000D03*
D17*
X103796010Y-87257000D03*
D18*
X103796010Y-87257000D03*
D21*
X115728180Y-82272170D03*
X117378180Y-82272170D03*
D17*
X84748840Y-87247000D03*
D18*
X84748840Y-87247000D03*
D12*
X113684010Y-79006000D03*
X107904010Y-79006000D03*
D13*
X114044010Y-80332000D03*
X113244010Y-80332000D03*
D14*
X112044010Y-80332000D03*
X111048010Y-80332000D03*
X110544010Y-80332000D03*
X109544010Y-80332000D03*
D13*
X107544010Y-80332000D03*
X108344010Y-80332000D03*
D14*
X109044010Y-80332000D03*
X110044010Y-80332000D03*
X111544010Y-80332000D03*
X112544010Y-80332000D03*
D15*
X115094010Y-79557000D03*
D16*
X115094010Y-75357000D03*
D15*
X106494010Y-79557000D03*
D16*
X106494010Y-75357000D03*
D17*
X117796010Y-74757000D03*
D18*
X117796010Y-74757000D03*
D17*
X103796010Y-74757000D03*
D18*
X103796010Y-74757000D03*
D19*
X109794010Y-84282000D03*
X110294010Y-84282000D03*
X110794010Y-84282000D03*
D20*
X108124010Y-85982000D03*
D19*
X111294010Y-84282000D03*
X111794010Y-84282000D03*
D20*
X113464010Y-85982000D03*
D17*
X98748840Y-74747000D03*
D18*
X98748840Y-74747000D03*
D17*
X98748840Y-87247000D03*
D18*
X98748840Y-87247000D03*
D17*
X41607330Y-74717000D03*
D18*
X41607330Y-74717000D03*
D21*
X39539500Y-82232170D03*
X41189500Y-82232170D03*
D19*
X33605330Y-84242000D03*
X34105330Y-84242000D03*
X34605330Y-84242000D03*
D20*
X31935330Y-85942000D03*
D19*
X35105330Y-84242000D03*
X35605330Y-84242000D03*
D20*
X37275330Y-85942000D03*
D12*
X94636840Y-61196000D03*
X88856840Y-61196000D03*
D13*
X94996840Y-62522000D03*
X94196840Y-62522000D03*
D14*
X92996840Y-62522000D03*
X92000840Y-62522000D03*
X91496840Y-62522000D03*
X90496840Y-62522000D03*
D13*
X88496840Y-62522000D03*
X89296840Y-62522000D03*
D14*
X89996840Y-62522000D03*
X90996840Y-62522000D03*
X92496840Y-62522000D03*
X93496840Y-62522000D03*
D15*
X96046840Y-61747000D03*
D16*
X96046840Y-57547000D03*
D15*
X87446840Y-61747000D03*
D16*
X87446840Y-57547000D03*
D17*
X27607330Y-69417000D03*
D18*
X27607330Y-69417000D03*
D19*
X90746840Y-66472000D03*
X91246840Y-66472000D03*
X91746840Y-66472000D03*
D20*
X89076840Y-68172000D03*
D19*
X92246840Y-66472000D03*
X92746840Y-66472000D03*
D20*
X94416840Y-68172000D03*
D21*
X96681010Y-64462170D03*
X98331010Y-64462170D03*
D17*
X41607330Y-69417000D03*
D18*
X41607330Y-69417000D03*
D17*
X84748840Y-56947000D03*
D18*
X84748840Y-56947000D03*
D19*
X52652500Y-66452000D03*
X53152500Y-66452000D03*
X53652500Y-66452000D03*
D20*
X50982500Y-68152000D03*
D19*
X54152500Y-66452000D03*
X54652500Y-66452000D03*
D20*
X56322500Y-68152000D03*
D17*
X46654500Y-69427000D03*
D18*
X46654500Y-69427000D03*
D12*
X56542500Y-61176000D03*
X50762500Y-61176000D03*
D13*
X56902500Y-62502000D03*
X56102500Y-62502000D03*
D14*
X54902500Y-62502000D03*
X53906500Y-62502000D03*
X53402500Y-62502000D03*
X52402500Y-62502000D03*
D13*
X50402500Y-62502000D03*
X51202500Y-62502000D03*
D14*
X51902500Y-62502000D03*
X52902500Y-62502000D03*
X54402500Y-62502000D03*
X55402500Y-62502000D03*
D15*
X57952500Y-61727000D03*
D16*
X57952500Y-57527000D03*
D15*
X49352500Y-61727000D03*
D16*
X49352500Y-57527000D03*
D12*
X75589670Y-61186000D03*
X69809670Y-61186000D03*
D13*
X75949670Y-62512000D03*
X75149670Y-62512000D03*
D14*
X73949670Y-62512000D03*
X72953670Y-62512000D03*
X72449670Y-62512000D03*
X71449670Y-62512000D03*
D13*
X69449670Y-62512000D03*
X70249670Y-62512000D03*
D14*
X70949670Y-62512000D03*
X71949670Y-62512000D03*
X73449670Y-62512000D03*
X74449670Y-62512000D03*
D15*
X76999670Y-61737000D03*
D16*
X76999670Y-57537000D03*
D15*
X68399670Y-61737000D03*
D16*
X68399670Y-57537000D03*
D17*
X65701670Y-56937000D03*
D18*
X65701670Y-56937000D03*
D17*
X46654500Y-56927000D03*
D18*
X46654500Y-56927000D03*
D21*
X58586670Y-64442170D03*
X60236670Y-64442170D03*
D17*
X60654500Y-69427000D03*
D18*
X60654500Y-69427000D03*
D21*
X77633840Y-64452170D03*
X79283840Y-64452170D03*
D19*
X71699670Y-66462000D03*
X72199670Y-66462000D03*
X72699670Y-66462000D03*
D20*
X70029670Y-68162000D03*
D19*
X73199670Y-66462000D03*
X73699670Y-66462000D03*
D20*
X75369670Y-68162000D03*
D17*
X27607330Y-56917000D03*
D18*
X27607330Y-56917000D03*
D12*
X37495330Y-61166000D03*
X31715330Y-61166000D03*
D13*
X37855330Y-62492000D03*
X37055330Y-62492000D03*
D14*
X35855330Y-62492000D03*
X34859330Y-62492000D03*
X34355330Y-62492000D03*
X33355330Y-62492000D03*
D13*
X31355330Y-62492000D03*
X32155330Y-62492000D03*
D14*
X32855330Y-62492000D03*
X33855330Y-62492000D03*
X35355330Y-62492000D03*
X36355330Y-62492000D03*
D15*
X38905330Y-61717000D03*
D16*
X38905330Y-57517000D03*
D15*
X30305330Y-61717000D03*
D16*
X30305330Y-57517000D03*
D17*
X79701670Y-56937000D03*
D18*
X79701670Y-56937000D03*
D17*
X60654500Y-56927000D03*
D18*
X60654500Y-56927000D03*
D17*
X79701670Y-69437000D03*
D18*
X79701670Y-69437000D03*
D17*
X65701670Y-69437000D03*
D18*
X65701670Y-69437000D03*
D17*
X117796010Y-69457000D03*
D18*
X117796010Y-69457000D03*
D17*
X103796010Y-69457000D03*
D18*
X103796010Y-69457000D03*
D21*
X115728180Y-64472170D03*
X117378180Y-64472170D03*
D17*
X84748840Y-69447000D03*
D18*
X84748840Y-69447000D03*
D12*
X113684010Y-61206000D03*
X107904010Y-61206000D03*
D13*
X114044010Y-62532000D03*
X113244010Y-62532000D03*
D14*
X112044010Y-62532000D03*
X111048010Y-62532000D03*
X110544010Y-62532000D03*
X109544010Y-62532000D03*
D13*
X107544010Y-62532000D03*
X108344010Y-62532000D03*
D14*
X109044010Y-62532000D03*
X110044010Y-62532000D03*
X111544010Y-62532000D03*
X112544010Y-62532000D03*
D15*
X115094010Y-61757000D03*
D16*
X115094010Y-57557000D03*
D15*
X106494010Y-61757000D03*
D16*
X106494010Y-57557000D03*
D17*
X117796010Y-56957000D03*
D18*
X117796010Y-56957000D03*
D17*
X103796010Y-56957000D03*
D18*
X103796010Y-56957000D03*
D19*
X109794010Y-66482000D03*
X110294010Y-66482000D03*
X110794010Y-66482000D03*
D20*
X108124010Y-68182000D03*
D19*
X111294010Y-66482000D03*
X111794010Y-66482000D03*
D20*
X113464010Y-68182000D03*
D17*
X98748840Y-56947000D03*
D18*
X98748840Y-56947000D03*
D17*
X98748840Y-69447000D03*
D18*
X98748840Y-69447000D03*
D17*
X41607330Y-56917000D03*
D18*
X41607330Y-56917000D03*
D21*
X39539500Y-64432170D03*
X41189500Y-64432170D03*
D19*
X33605330Y-66442000D03*
X34105330Y-66442000D03*
X34605330Y-66442000D03*
D20*
X31935330Y-68142000D03*
D19*
X35105330Y-66442000D03*
X35605330Y-66442000D03*
D20*
X37275330Y-68142000D03*
D12*
X94636840Y-43396000D03*
X88856840Y-43396000D03*
D13*
X94996840Y-44722000D03*
X94196840Y-44722000D03*
D14*
X92996840Y-44722000D03*
X92000840Y-44722000D03*
X91496840Y-44722000D03*
X90496840Y-44722000D03*
D13*
X88496840Y-44722000D03*
X89296840Y-44722000D03*
D14*
X89996840Y-44722000D03*
X90996840Y-44722000D03*
X92496840Y-44722000D03*
X93496840Y-44722000D03*
D15*
X96046840Y-43947000D03*
D16*
X96046840Y-39747000D03*
D15*
X87446840Y-43947000D03*
D16*
X87446840Y-39747000D03*
D17*
X27607330Y-51617000D03*
D18*
X27607330Y-51617000D03*
D19*
X90746840Y-48672000D03*
X91246840Y-48672000D03*
X91746840Y-48672000D03*
D20*
X89076840Y-50372000D03*
D19*
X92246840Y-48672000D03*
X92746840Y-48672000D03*
D20*
X94416840Y-50372000D03*
D21*
X96681010Y-46662170D03*
X98331010Y-46662170D03*
D17*
X41607330Y-51617000D03*
D18*
X41607330Y-51617000D03*
D17*
X84748840Y-39147000D03*
D18*
X84748840Y-39147000D03*
D19*
X52652500Y-48652000D03*
X53152500Y-48652000D03*
X53652500Y-48652000D03*
D20*
X50982500Y-50352000D03*
D19*
X54152500Y-48652000D03*
X54652500Y-48652000D03*
D20*
X56322500Y-50352000D03*
D17*
X46654500Y-51627000D03*
D18*
X46654500Y-51627000D03*
D12*
X56542500Y-43376000D03*
X50762500Y-43376000D03*
D13*
X56902500Y-44702000D03*
X56102500Y-44702000D03*
D14*
X54902500Y-44702000D03*
X53906500Y-44702000D03*
X53402500Y-44702000D03*
X52402500Y-44702000D03*
D13*
X50402500Y-44702000D03*
X51202500Y-44702000D03*
D14*
X51902500Y-44702000D03*
X52902500Y-44702000D03*
X54402500Y-44702000D03*
X55402500Y-44702000D03*
D15*
X57952500Y-43927000D03*
D16*
X57952500Y-39727000D03*
D15*
X49352500Y-43927000D03*
D16*
X49352500Y-39727000D03*
D12*
X75589670Y-43386000D03*
X69809670Y-43386000D03*
D13*
X75949670Y-44712000D03*
X75149670Y-44712000D03*
D14*
X73949670Y-44712000D03*
X72953670Y-44712000D03*
X72449670Y-44712000D03*
X71449670Y-44712000D03*
D13*
X69449670Y-44712000D03*
X70249670Y-44712000D03*
D14*
X70949670Y-44712000D03*
X71949670Y-44712000D03*
X73449670Y-44712000D03*
X74449670Y-44712000D03*
D15*
X76999670Y-43937000D03*
D16*
X76999670Y-39737000D03*
D15*
X68399670Y-43937000D03*
D16*
X68399670Y-39737000D03*
D17*
X65701670Y-39137000D03*
D18*
X65701670Y-39137000D03*
D17*
X46654500Y-39127000D03*
D18*
X46654500Y-39127000D03*
D21*
X58586670Y-46642170D03*
X60236670Y-46642170D03*
D17*
X60654500Y-51627000D03*
D18*
X60654500Y-51627000D03*
D21*
X77633840Y-46652170D03*
X79283840Y-46652170D03*
D19*
X71699670Y-48662000D03*
X72199670Y-48662000D03*
X72699670Y-48662000D03*
D20*
X70029670Y-50362000D03*
D19*
X73199670Y-48662000D03*
X73699670Y-48662000D03*
D20*
X75369670Y-50362000D03*
D17*
X27607330Y-39117000D03*
D18*
X27607330Y-39117000D03*
D12*
X37495330Y-43366000D03*
X31715330Y-43366000D03*
D13*
X37855330Y-44692000D03*
X37055330Y-44692000D03*
D14*
X35855330Y-44692000D03*
X34859330Y-44692000D03*
X34355330Y-44692000D03*
X33355330Y-44692000D03*
D13*
X31355330Y-44692000D03*
X32155330Y-44692000D03*
D14*
X32855330Y-44692000D03*
X33855330Y-44692000D03*
X35355330Y-44692000D03*
X36355330Y-44692000D03*
D15*
X38905330Y-43917000D03*
D16*
X38905330Y-39717000D03*
D15*
X30305330Y-43917000D03*
D16*
X30305330Y-39717000D03*
D17*
X79701670Y-39137000D03*
D18*
X79701670Y-39137000D03*
D17*
X60654500Y-39127000D03*
D18*
X60654500Y-39127000D03*
D17*
X79701670Y-51637000D03*
D18*
X79701670Y-51637000D03*
D17*
X65701670Y-51637000D03*
D18*
X65701670Y-51637000D03*
D17*
X117796010Y-51657000D03*
D18*
X117796010Y-51657000D03*
D17*
X103796010Y-51657000D03*
D18*
X103796010Y-51657000D03*
D21*
X115728180Y-46672170D03*
X117378180Y-46672170D03*
D17*
X84748840Y-51647000D03*
D18*
X84748840Y-51647000D03*
D12*
X113684010Y-43406000D03*
X107904010Y-43406000D03*
D13*
X114044010Y-44732000D03*
X113244010Y-44732000D03*
D14*
X112044010Y-44732000D03*
X111048010Y-44732000D03*
X110544010Y-44732000D03*
X109544010Y-44732000D03*
D13*
X107544010Y-44732000D03*
X108344010Y-44732000D03*
D14*
X109044010Y-44732000D03*
X110044010Y-44732000D03*
X111544010Y-44732000D03*
X112544010Y-44732000D03*
D15*
X115094010Y-43957000D03*
D16*
X115094010Y-39757000D03*
D15*
X106494010Y-43957000D03*
D16*
X106494010Y-39757000D03*
D17*
X117796010Y-39157000D03*
D18*
X117796010Y-39157000D03*
D17*
X103796010Y-39157000D03*
D18*
X103796010Y-39157000D03*
D19*
X109794010Y-48682000D03*
X110294010Y-48682000D03*
X110794010Y-48682000D03*
D20*
X108124010Y-50382000D03*
D19*
X111294010Y-48682000D03*
X111794010Y-48682000D03*
D20*
X113464010Y-50382000D03*
D17*
X98748840Y-39147000D03*
D18*
X98748840Y-39147000D03*
D17*
X98748840Y-51647000D03*
D18*
X98748840Y-51647000D03*
D17*
X41607330Y-39117000D03*
D18*
X41607330Y-39117000D03*
D21*
X39539500Y-46632170D03*
X41189500Y-46632170D03*
D19*
X33605330Y-48642000D03*
X34105330Y-48642000D03*
X34605330Y-48642000D03*
D20*
X31935330Y-50342000D03*
D19*
X35105330Y-48642000D03*
X35605330Y-48642000D03*
D20*
X37275330Y-50342000D03*
D17*
X117796010Y-21357000D03*
D18*
X117796010Y-21357000D03*
D17*
X103796010Y-21357000D03*
D18*
X103796010Y-21357000D03*
D17*
X103796010Y-33857000D03*
D18*
X103796010Y-33857000D03*
D12*
X113684010Y-25606000D03*
X107904010Y-25606000D03*
D13*
X114044010Y-26932000D03*
X113244010Y-26932000D03*
D14*
X112044010Y-26932000D03*
X111048010Y-26932000D03*
X110544010Y-26932000D03*
X109544010Y-26932000D03*
D13*
X107544010Y-26932000D03*
X108344010Y-26932000D03*
D14*
X109044010Y-26932000D03*
X110044010Y-26932000D03*
X111544010Y-26932000D03*
X112544010Y-26932000D03*
D15*
X115094010Y-26157000D03*
D16*
X115094010Y-21957000D03*
D15*
X106494010Y-26157000D03*
D16*
X106494010Y-21957000D03*
D19*
X109794010Y-30882000D03*
X110294010Y-30882000D03*
X110794010Y-30882000D03*
D20*
X108124010Y-32582000D03*
D19*
X111294010Y-30882000D03*
X111794010Y-30882000D03*
D20*
X113464010Y-32582000D03*
D21*
X115728180Y-28872170D03*
X117378180Y-28872170D03*
D17*
X117796010Y-33857000D03*
D18*
X117796010Y-33857000D03*
X27607330Y-21317000D03*
D17*
X27607330Y-21317000D03*
D21*
X79283840Y-28852170D03*
X77633840Y-28852170D03*
D20*
X75369670Y-32562000D03*
D19*
X73699670Y-30862000D03*
X73199670Y-30862000D03*
D20*
X70029670Y-32562000D03*
D19*
X72699670Y-30862000D03*
X72199670Y-30862000D03*
X71699670Y-30862000D03*
D18*
X79701670Y-33837000D03*
D17*
X79701670Y-33837000D03*
D18*
X65701670Y-21337000D03*
D17*
X65701670Y-21337000D03*
D18*
X65701670Y-33837000D03*
D17*
X65701670Y-33837000D03*
D16*
X68399670Y-21937000D03*
D15*
X68399670Y-26137000D03*
D16*
X76999670Y-21937000D03*
D15*
X76999670Y-26137000D03*
D14*
X74449670Y-26912000D03*
X73449670Y-26912000D03*
X71949670Y-26912000D03*
X70949670Y-26912000D03*
D13*
X70249670Y-26912000D03*
X69449670Y-26912000D03*
D14*
X71449670Y-26912000D03*
X72449670Y-26912000D03*
X72953670Y-26912000D03*
X73949670Y-26912000D03*
D13*
X75149670Y-26912000D03*
X75949670Y-26912000D03*
D12*
X69809670Y-25586000D03*
X75589670Y-25586000D03*
D18*
X79701670Y-21337000D03*
D17*
X79701670Y-21337000D03*
D16*
X49352500Y-21927000D03*
D15*
X49352500Y-26127000D03*
D16*
X57952500Y-21927000D03*
D15*
X57952500Y-26127000D03*
D14*
X55402500Y-26902000D03*
X54402500Y-26902000D03*
X52902500Y-26902000D03*
X51902500Y-26902000D03*
D13*
X51202500Y-26902000D03*
X50402500Y-26902000D03*
D14*
X52402500Y-26902000D03*
X53402500Y-26902000D03*
X53906500Y-26902000D03*
X54902500Y-26902000D03*
D13*
X56102500Y-26902000D03*
X56902500Y-26902000D03*
D12*
X50762500Y-25576000D03*
X56542500Y-25576000D03*
D18*
X46654500Y-33827000D03*
D17*
X46654500Y-33827000D03*
D18*
X60654500Y-33827000D03*
D17*
X60654500Y-33827000D03*
D21*
X60236670Y-28842170D03*
X58586670Y-28842170D03*
D18*
X46654500Y-21327000D03*
D17*
X46654500Y-21327000D03*
D18*
X60654500Y-21327000D03*
D17*
X60654500Y-21327000D03*
D20*
X56322500Y-32552000D03*
D19*
X54652500Y-30852000D03*
X54152500Y-30852000D03*
D20*
X50982500Y-32552000D03*
D19*
X53652500Y-30852000D03*
X53152500Y-30852000D03*
X52652500Y-30852000D03*
D13*
X32155330Y-26892000D03*
X31355330Y-26892000D03*
X37055330Y-26892000D03*
D15*
X38905330Y-26117000D03*
D14*
X34355330Y-26892000D03*
X33855330Y-26892000D03*
X33355330Y-26892000D03*
X32855330Y-26892000D03*
X34859330Y-26892000D03*
X35355330Y-26892000D03*
X35855330Y-26892000D03*
X36355330Y-26892000D03*
D13*
X37855330Y-26892000D03*
D16*
X38905330Y-21917000D03*
D12*
X37495330Y-25566000D03*
X31715330Y-25566000D03*
D16*
X30305330Y-21917000D03*
D15*
X30305330Y-26117000D03*
D18*
X27607330Y-33817000D03*
D17*
X27607330Y-33817000D03*
D18*
X84748840Y-21347000D03*
D17*
X84748840Y-21347000D03*
D18*
X41607330Y-33817000D03*
D17*
X41607330Y-33817000D03*
D20*
X94416840Y-32572000D03*
D19*
X92746840Y-30872000D03*
X92246840Y-30872000D03*
D20*
X89076840Y-32572000D03*
D19*
X91746840Y-30872000D03*
X91246840Y-30872000D03*
X90746840Y-30872000D03*
D21*
X98331010Y-28862170D03*
X96681010Y-28862170D03*
D16*
X87446840Y-21947000D03*
D15*
X87446840Y-26147000D03*
D16*
X96046840Y-21947000D03*
D15*
X96046840Y-26147000D03*
D14*
X93496840Y-26922000D03*
X92496840Y-26922000D03*
X90996840Y-26922000D03*
X89996840Y-26922000D03*
D13*
X89296840Y-26922000D03*
X88496840Y-26922000D03*
D14*
X90496840Y-26922000D03*
X91496840Y-26922000D03*
X92000840Y-26922000D03*
X92996840Y-26922000D03*
D13*
X94196840Y-26922000D03*
X94996840Y-26922000D03*
D12*
X88856840Y-25596000D03*
X94636840Y-25596000D03*
D18*
X98748840Y-21347000D03*
D17*
X98748840Y-21347000D03*
D18*
X41607330Y-21317000D03*
D17*
X41607330Y-21317000D03*
D18*
X98748840Y-33847000D03*
D17*
X98748840Y-33847000D03*
D18*
X84748840Y-33847000D03*
D17*
X84748840Y-33847000D03*
D21*
X41189500Y-28832170D03*
X39539500Y-28832170D03*
D19*
X33605330Y-30842000D03*
X34105330Y-30842000D03*
X34605330Y-30842000D03*
X35105330Y-30842000D03*
X35605330Y-30842000D03*
D20*
X31935330Y-32542000D03*
X37275330Y-32542000D03*
%LPD*%
M02*
