%TF.GenerationSoftware,KiCad,Pcbnew,8.99.0-2194-gb3b7cbcab2*%
%TF.CreationDate,2024-09-18T03:52:11+07:00*%
%TF.ProjectId,Unified-Daughterboard,556e6966-6965-4642-9d44-617567687465,C3*%
%TF.SameCoordinates,Original*%
%TF.FileFunction,Drillmap*%
%TF.FilePolarity,Positive*%
%FSLAX45Y45*%
G04 Gerber Fmt 4.5, Leading zero omitted, Abs format (unit mm)*
G04 Created by KiCad (PCBNEW 8.99.0-2194-gb3b7cbcab2) date 2024-09-18 03:52:11*
%MOMM*%
%LPD*%
G01*
G04 APERTURE LIST*
%ADD10C,0.050000*%
%ADD11C,0.150000*%
%ADD12C,0.200000*%
%ADD13C,0.100000*%
%ADD14C,0.250000*%
G04 APERTURE END LIST*
D10*
X4500250Y-9944300D02*
G75*
G02*
X4440250Y-9944300I-30000J0D01*
G01*
X4440250Y-9944300D02*
G75*
G02*
X4500250Y-9944300I30000J0D01*
G01*
X6400250Y-9804300D02*
G75*
G02*
X6340250Y-9804300I-30000J0D01*
G01*
X6340250Y-9804300D02*
G75*
G02*
X6400250Y-9804300I30000J0D01*
G01*
X6290250Y-9874300D02*
G75*
G02*
X6230250Y-9874300I-30000J0D01*
G01*
X6230250Y-9874300D02*
G75*
G02*
X6290250Y-9874300I30000J0D01*
G01*
X8200250Y-9954300D02*
G75*
G02*
X8140250Y-9954300I-30000J0D01*
G01*
X8140250Y-9954300D02*
G75*
G02*
X8200250Y-9954300I30000J0D01*
G01*
X8200250Y-9814300D02*
G75*
G02*
X8140250Y-9814300I-30000J0D01*
G01*
X8140250Y-9814300D02*
G75*
G02*
X8200250Y-9814300I30000J0D01*
G01*
X4390250Y-9944300D02*
G75*
G02*
X4330250Y-9944300I-30000J0D01*
G01*
X4330250Y-9944300D02*
G75*
G02*
X4390250Y-9944300I30000J0D01*
G01*
D11*
X4665450Y-9052700D02*
X6065450Y-9052700D01*
D10*
X10100250Y-9954300D02*
G75*
G02*
X10040250Y-9954300I-30000J0D01*
G01*
X10040250Y-9954300D02*
G75*
G02*
X10100250Y-9954300I30000J0D01*
G01*
X8310250Y-9884300D02*
G75*
G02*
X8250250Y-9884300I-30000J0D01*
G01*
X8250250Y-9884300D02*
G75*
G02*
X8310250Y-9884300I30000J0D01*
G01*
X4500250Y-9874300D02*
G75*
G02*
X4440250Y-9874300I-30000J0D01*
G01*
X4440250Y-9874300D02*
G75*
G02*
X4500250Y-9874300I30000J0D01*
G01*
X6400250Y-9944300D02*
G75*
G02*
X6340250Y-9944300I-30000J0D01*
G01*
X6340250Y-9944300D02*
G75*
G02*
X6400250Y-9944300I30000J0D01*
G01*
X10210250Y-9814300D02*
G75*
G02*
X10150250Y-9814300I-30000J0D01*
G01*
X10150250Y-9814300D02*
G75*
G02*
X10210250Y-9814300I30000J0D01*
G01*
X4390250Y-9874300D02*
G75*
G02*
X4330250Y-9874300I-30000J0D01*
G01*
X4330250Y-9874300D02*
G75*
G02*
X4390250Y-9874300I30000J0D01*
G01*
X8310250Y-9814300D02*
G75*
G02*
X8250250Y-9814300I-30000J0D01*
G01*
X8250250Y-9814300D02*
G75*
G02*
X8310250Y-9814300I30000J0D01*
G01*
X10100250Y-9884300D02*
G75*
G02*
X10040250Y-9884300I-30000J0D01*
G01*
X10040250Y-9884300D02*
G75*
G02*
X10100250Y-9884300I30000J0D01*
G01*
D11*
X4465450Y-9252700D02*
G75*
G02*
X4665450Y-9052700I200000J0D01*
G01*
D10*
X10210250Y-9954300D02*
G75*
G02*
X10150250Y-9954300I-30000J0D01*
G01*
X10150250Y-9954300D02*
G75*
G02*
X10210250Y-9954300I30000J0D01*
G01*
X6400250Y-9874300D02*
G75*
G02*
X6340250Y-9874300I-30000J0D01*
G01*
X6340250Y-9874300D02*
G75*
G02*
X6400250Y-9874300I30000J0D01*
G01*
X4500250Y-9804300D02*
G75*
G02*
X4440250Y-9804300I-30000J0D01*
G01*
X4440250Y-9804300D02*
G75*
G02*
X4500250Y-9804300I30000J0D01*
G01*
X10100250Y-9814300D02*
G75*
G02*
X10040250Y-9814300I-30000J0D01*
G01*
X10040250Y-9814300D02*
G75*
G02*
X10100250Y-9814300I30000J0D01*
G01*
X8310250Y-9954300D02*
G75*
G02*
X8250250Y-9954300I-30000J0D01*
G01*
X8250250Y-9954300D02*
G75*
G02*
X8310250Y-9954300I30000J0D01*
G01*
X6290250Y-9944300D02*
G75*
G02*
X6230250Y-9944300I-30000J0D01*
G01*
X6230250Y-9944300D02*
G75*
G02*
X6290250Y-9944300I30000J0D01*
G01*
X10210250Y-9884300D02*
G75*
G02*
X10150250Y-9884300I-30000J0D01*
G01*
X10150250Y-9884300D02*
G75*
G02*
X10210250Y-9884300I30000J0D01*
G01*
X4390250Y-9804300D02*
G75*
G02*
X4330250Y-9804300I-30000J0D01*
G01*
X4330250Y-9804300D02*
G75*
G02*
X4390250Y-9804300I30000J0D01*
G01*
X8200250Y-9884300D02*
G75*
G02*
X8140250Y-9884300I-30000J0D01*
G01*
X8140250Y-9884300D02*
G75*
G02*
X8200250Y-9884300I30000J0D01*
G01*
D11*
X6265450Y-10001183D02*
X6265450Y-10502700D01*
X6265450Y-9252700D02*
X6265450Y-9754217D01*
X6370167Y-9253700D02*
X6370167Y-9755217D01*
D10*
X6265450Y-9754217D02*
X6370167Y-9755217D01*
D11*
X6065450Y-10702700D02*
X4665450Y-10702700D01*
X4665450Y-10702700D02*
G75*
G02*
X4465450Y-10502700I0J200000D01*
G01*
X6265450Y-10502700D02*
G75*
G02*
X6065450Y-10702700I-200000J0D01*
G01*
X6065450Y-9052700D02*
G75*
G02*
X6265450Y-9252700I0J-200000D01*
G01*
X6370167Y-10002183D02*
X6370167Y-10503700D01*
D10*
X6265450Y-10001183D02*
X6370167Y-10002183D01*
X7295450Y-9042700D02*
G75*
G02*
X7235450Y-9042700I-30000J0D01*
G01*
X7235450Y-9042700D02*
G75*
G02*
X7295450Y-9042700I30000J0D01*
G01*
X7225450Y-8932700D02*
G75*
G02*
X7165450Y-8932700I-30000J0D01*
G01*
X7165450Y-8932700D02*
G75*
G02*
X7225450Y-8932700I30000J0D01*
G01*
X7365450Y-9042700D02*
G75*
G02*
X7305450Y-9042700I-30000J0D01*
G01*
X7305450Y-9042700D02*
G75*
G02*
X7365450Y-9042700I30000J0D01*
G01*
X7155450Y-8932700D02*
G75*
G02*
X7095450Y-8932700I-30000J0D01*
G01*
X7095450Y-8932700D02*
G75*
G02*
X7155450Y-8932700I30000J0D01*
G01*
X7225450Y-9042700D02*
G75*
G02*
X7165450Y-9042700I-30000J0D01*
G01*
X7165450Y-9042700D02*
G75*
G02*
X7225450Y-9042700I30000J0D01*
G01*
X7295450Y-8932700D02*
G75*
G02*
X7235450Y-8932700I-30000J0D01*
G01*
X7235450Y-8932700D02*
G75*
G02*
X7295450Y-8932700I30000J0D01*
G01*
X7365450Y-8932700D02*
G75*
G02*
X7305450Y-8932700I-30000J0D01*
G01*
X7305450Y-8932700D02*
G75*
G02*
X7365450Y-8932700I30000J0D01*
G01*
D11*
X7090250Y-9054300D02*
X6570167Y-9053700D01*
D10*
X7435450Y-9042700D02*
G75*
G02*
X7375450Y-9042700I-30000J0D01*
G01*
X7375450Y-9042700D02*
G75*
G02*
X7435450Y-9042700I30000J0D01*
G01*
X7155450Y-9042700D02*
G75*
G02*
X7095450Y-9042700I-30000J0D01*
G01*
X7095450Y-9042700D02*
G75*
G02*
X7155450Y-9042700I30000J0D01*
G01*
X7435450Y-8932700D02*
G75*
G02*
X7375450Y-8932700I-30000J0D01*
G01*
X7375450Y-8932700D02*
G75*
G02*
X7435450Y-8932700I30000J0D01*
G01*
X7450084Y-8923100D02*
X7450084Y-9053100D01*
D11*
X7970167Y-9053700D02*
X7450084Y-9053100D01*
D10*
X7090250Y-8924300D02*
X7090250Y-9054300D01*
D11*
X8274884Y-9254700D02*
G75*
G02*
X8474884Y-9054700I200003J-3D01*
G01*
X6570167Y-10703700D02*
G75*
G02*
X6370167Y-10503700I0J200000D01*
G01*
X10074884Y-9254700D02*
X10074884Y-9756217D01*
X8474884Y-10704700D02*
G75*
G02*
X8274884Y-10504700I-7J199993D01*
G01*
X9874884Y-10704700D02*
X8474884Y-10704700D01*
D10*
X10074884Y-9756217D02*
X10179601Y-9757217D01*
D11*
X9874884Y-9054700D02*
G75*
G02*
X10074884Y-9254700I-10J-200010D01*
G01*
X10074884Y-10003183D02*
X10074884Y-10504700D01*
X10179601Y-10004183D02*
X10179601Y-10505700D01*
X7970167Y-9053700D02*
G75*
G02*
X8170167Y-9253700I5J-199995D01*
G01*
X6370167Y-9253700D02*
G75*
G02*
X6570167Y-9053700I200000J0D01*
G01*
X8170167Y-9253700D02*
X8170167Y-9755217D01*
X8274884Y-10003183D02*
X8274884Y-10504700D01*
X8274884Y-9254700D02*
X8274884Y-9756217D01*
X8170167Y-10503700D02*
G75*
G02*
X7970167Y-10703700I-200002J2D01*
G01*
D10*
X8170167Y-9755217D02*
X8274884Y-9756217D01*
X10074884Y-10003183D02*
X10179601Y-10004183D01*
X8170167Y-10002183D02*
X8274884Y-10003183D01*
D11*
X7450084Y-10703100D02*
X6570167Y-10703700D01*
X10179601Y-9255700D02*
X10179601Y-9757217D01*
X10074884Y-10504700D02*
G75*
G02*
X9874884Y-10704700I-199997J-3D01*
G01*
X8170167Y-10002183D02*
X8170167Y-10503700D01*
X11779601Y-10705700D02*
X10379601Y-10705700D01*
D10*
X6290250Y-9804300D02*
G75*
G02*
X6230250Y-9804300I-30000J0D01*
G01*
X6230250Y-9804300D02*
G75*
G02*
X6290250Y-9804300I30000J0D01*
G01*
D11*
X8474884Y-9054700D02*
X9874884Y-9054700D01*
X2560733Y-9251700D02*
G75*
G02*
X2760733Y-9051700I200000J0D01*
G01*
X2760733Y-10701700D02*
G75*
G02*
X2560733Y-10501700I0J200000D01*
G01*
X2760733Y-9051700D02*
X4160733Y-9051700D01*
X4360733Y-9251700D02*
X4360733Y-9753217D01*
X4160733Y-10701700D02*
X2760733Y-10701700D01*
X4360733Y-10501700D02*
G75*
G02*
X4160733Y-10701700I-200000J0D01*
G01*
X4160733Y-9051700D02*
G75*
G02*
X4360733Y-9251700I0J-200000D01*
G01*
X4465450Y-10001183D02*
X4465450Y-10502700D01*
D10*
X4360733Y-10000183D02*
X4465450Y-10001183D01*
X4360733Y-9753217D02*
X4465450Y-9754217D01*
D11*
X4360733Y-10000183D02*
X4360733Y-10501700D01*
X4465450Y-9252700D02*
X4465450Y-9754217D01*
X11779601Y-9055700D02*
G75*
G02*
X11979604Y-9255700I3J-200000D01*
G01*
X11979601Y-10505700D02*
G75*
G02*
X11779601Y-10705697I-199997J0D01*
G01*
X10379601Y-10705700D02*
G75*
G02*
X10179601Y-10505700I-2J199998D01*
G01*
X10379601Y-9055700D02*
X11779601Y-9055700D01*
X11979601Y-9255700D02*
X11979601Y-9757217D01*
X2560733Y-9251700D02*
X2560733Y-10501700D01*
X10179601Y-9255700D02*
G75*
G02*
X10379601Y-9055697I200003J0D01*
G01*
X11979601Y-9757217D02*
X11979601Y-10505700D01*
X7970167Y-10703700D02*
X7450084Y-10703100D01*
D10*
X4500250Y-8164300D02*
G75*
G02*
X4440250Y-8164300I-30000J0D01*
G01*
X4440250Y-8164300D02*
G75*
G02*
X4500250Y-8164300I30000J0D01*
G01*
X6400250Y-8024300D02*
G75*
G02*
X6340250Y-8024300I-30000J0D01*
G01*
X6340250Y-8024300D02*
G75*
G02*
X6400250Y-8024300I30000J0D01*
G01*
X6290250Y-8094300D02*
G75*
G02*
X6230250Y-8094300I-30000J0D01*
G01*
X6230250Y-8094300D02*
G75*
G02*
X6290250Y-8094300I30000J0D01*
G01*
X8200250Y-8174300D02*
G75*
G02*
X8140250Y-8174300I-30000J0D01*
G01*
X8140250Y-8174300D02*
G75*
G02*
X8200250Y-8174300I30000J0D01*
G01*
X8200250Y-8034300D02*
G75*
G02*
X8140250Y-8034300I-30000J0D01*
G01*
X8140250Y-8034300D02*
G75*
G02*
X8200250Y-8034300I30000J0D01*
G01*
X4390250Y-8164300D02*
G75*
G02*
X4330250Y-8164300I-30000J0D01*
G01*
X4330250Y-8164300D02*
G75*
G02*
X4390250Y-8164300I30000J0D01*
G01*
D11*
X4665450Y-7272700D02*
X6065450Y-7272700D01*
D10*
X10100250Y-8174300D02*
G75*
G02*
X10040250Y-8174300I-30000J0D01*
G01*
X10040250Y-8174300D02*
G75*
G02*
X10100250Y-8174300I30000J0D01*
G01*
X8310250Y-8104300D02*
G75*
G02*
X8250250Y-8104300I-30000J0D01*
G01*
X8250250Y-8104300D02*
G75*
G02*
X8310250Y-8104300I30000J0D01*
G01*
X4500250Y-8094300D02*
G75*
G02*
X4440250Y-8094300I-30000J0D01*
G01*
X4440250Y-8094300D02*
G75*
G02*
X4500250Y-8094300I30000J0D01*
G01*
X6400250Y-8164300D02*
G75*
G02*
X6340250Y-8164300I-30000J0D01*
G01*
X6340250Y-8164300D02*
G75*
G02*
X6400250Y-8164300I30000J0D01*
G01*
X10210250Y-8034300D02*
G75*
G02*
X10150250Y-8034300I-30000J0D01*
G01*
X10150250Y-8034300D02*
G75*
G02*
X10210250Y-8034300I30000J0D01*
G01*
X4390250Y-8094300D02*
G75*
G02*
X4330250Y-8094300I-30000J0D01*
G01*
X4330250Y-8094300D02*
G75*
G02*
X4390250Y-8094300I30000J0D01*
G01*
X8310250Y-8034300D02*
G75*
G02*
X8250250Y-8034300I-30000J0D01*
G01*
X8250250Y-8034300D02*
G75*
G02*
X8310250Y-8034300I30000J0D01*
G01*
X10100250Y-8104300D02*
G75*
G02*
X10040250Y-8104300I-30000J0D01*
G01*
X10040250Y-8104300D02*
G75*
G02*
X10100250Y-8104300I30000J0D01*
G01*
D11*
X4465450Y-7472700D02*
G75*
G02*
X4665450Y-7272700I200000J0D01*
G01*
D10*
X10210250Y-8174300D02*
G75*
G02*
X10150250Y-8174300I-30000J0D01*
G01*
X10150250Y-8174300D02*
G75*
G02*
X10210250Y-8174300I30000J0D01*
G01*
X6400250Y-8094300D02*
G75*
G02*
X6340250Y-8094300I-30000J0D01*
G01*
X6340250Y-8094300D02*
G75*
G02*
X6400250Y-8094300I30000J0D01*
G01*
X4500250Y-8024300D02*
G75*
G02*
X4440250Y-8024300I-30000J0D01*
G01*
X4440250Y-8024300D02*
G75*
G02*
X4500250Y-8024300I30000J0D01*
G01*
X10100250Y-8034300D02*
G75*
G02*
X10040250Y-8034300I-30000J0D01*
G01*
X10040250Y-8034300D02*
G75*
G02*
X10100250Y-8034300I30000J0D01*
G01*
X8310250Y-8174300D02*
G75*
G02*
X8250250Y-8174300I-30000J0D01*
G01*
X8250250Y-8174300D02*
G75*
G02*
X8310250Y-8174300I30000J0D01*
G01*
X6290250Y-8164300D02*
G75*
G02*
X6230250Y-8164300I-30000J0D01*
G01*
X6230250Y-8164300D02*
G75*
G02*
X6290250Y-8164300I30000J0D01*
G01*
X10210250Y-8104300D02*
G75*
G02*
X10150250Y-8104300I-30000J0D01*
G01*
X10150250Y-8104300D02*
G75*
G02*
X10210250Y-8104300I30000J0D01*
G01*
X4390250Y-8024300D02*
G75*
G02*
X4330250Y-8024300I-30000J0D01*
G01*
X4330250Y-8024300D02*
G75*
G02*
X4390250Y-8024300I30000J0D01*
G01*
X8200250Y-8104300D02*
G75*
G02*
X8140250Y-8104300I-30000J0D01*
G01*
X8140250Y-8104300D02*
G75*
G02*
X8200250Y-8104300I30000J0D01*
G01*
D11*
X6265450Y-8221183D02*
X6265450Y-8722700D01*
X6265450Y-7472700D02*
X6265450Y-7974217D01*
X6370167Y-7473700D02*
X6370167Y-7975217D01*
D10*
X6265450Y-7974217D02*
X6370167Y-7975217D01*
D11*
X6065450Y-8922700D02*
X4665450Y-8922700D01*
X4665450Y-8922700D02*
G75*
G02*
X4465450Y-8722700I0J200000D01*
G01*
X6265450Y-8722700D02*
G75*
G02*
X6065450Y-8922700I-200000J0D01*
G01*
X6065450Y-7272700D02*
G75*
G02*
X6265450Y-7472700I0J-200000D01*
G01*
X6370167Y-8222183D02*
X6370167Y-8723700D01*
D10*
X6265450Y-8221183D02*
X6370167Y-8222183D01*
X7295450Y-7262700D02*
G75*
G02*
X7235450Y-7262700I-30000J0D01*
G01*
X7235450Y-7262700D02*
G75*
G02*
X7295450Y-7262700I30000J0D01*
G01*
X7225450Y-7152700D02*
G75*
G02*
X7165450Y-7152700I-30000J0D01*
G01*
X7165450Y-7152700D02*
G75*
G02*
X7225450Y-7152700I30000J0D01*
G01*
X7365450Y-7262700D02*
G75*
G02*
X7305450Y-7262700I-30000J0D01*
G01*
X7305450Y-7262700D02*
G75*
G02*
X7365450Y-7262700I30000J0D01*
G01*
X7155450Y-7152700D02*
G75*
G02*
X7095450Y-7152700I-30000J0D01*
G01*
X7095450Y-7152700D02*
G75*
G02*
X7155450Y-7152700I30000J0D01*
G01*
X7225450Y-7262700D02*
G75*
G02*
X7165450Y-7262700I-30000J0D01*
G01*
X7165450Y-7262700D02*
G75*
G02*
X7225450Y-7262700I30000J0D01*
G01*
X7295450Y-7152700D02*
G75*
G02*
X7235450Y-7152700I-30000J0D01*
G01*
X7235450Y-7152700D02*
G75*
G02*
X7295450Y-7152700I30000J0D01*
G01*
X7365450Y-7152700D02*
G75*
G02*
X7305450Y-7152700I-30000J0D01*
G01*
X7305450Y-7152700D02*
G75*
G02*
X7365450Y-7152700I30000J0D01*
G01*
D11*
X7090250Y-7274300D02*
X6570167Y-7273700D01*
D10*
X7435450Y-7262700D02*
G75*
G02*
X7375450Y-7262700I-30000J0D01*
G01*
X7375450Y-7262700D02*
G75*
G02*
X7435450Y-7262700I30000J0D01*
G01*
X7155450Y-7262700D02*
G75*
G02*
X7095450Y-7262700I-30000J0D01*
G01*
X7095450Y-7262700D02*
G75*
G02*
X7155450Y-7262700I30000J0D01*
G01*
X7435450Y-7152700D02*
G75*
G02*
X7375450Y-7152700I-30000J0D01*
G01*
X7375450Y-7152700D02*
G75*
G02*
X7435450Y-7152700I30000J0D01*
G01*
X7450084Y-7143100D02*
X7450084Y-7273100D01*
D11*
X7970167Y-7273700D02*
X7450084Y-7273100D01*
D10*
X7090250Y-7144300D02*
X7090250Y-7274300D01*
D11*
X8274884Y-7474700D02*
G75*
G02*
X8474884Y-7274700I200003J-3D01*
G01*
X6570167Y-8923700D02*
G75*
G02*
X6370167Y-8723700I0J200000D01*
G01*
X10074884Y-7474700D02*
X10074884Y-7976217D01*
X8474884Y-8924700D02*
G75*
G02*
X8274884Y-8724700I-7J199993D01*
G01*
X9874884Y-8924700D02*
X8474884Y-8924700D01*
D10*
X10074884Y-7976217D02*
X10179601Y-7977217D01*
D11*
X9874884Y-7274700D02*
G75*
G02*
X10074884Y-7474700I-10J-200010D01*
G01*
X10074884Y-8223183D02*
X10074884Y-8724700D01*
X10179601Y-8224183D02*
X10179601Y-8725700D01*
X7970167Y-7273700D02*
G75*
G02*
X8170167Y-7473700I5J-199995D01*
G01*
X6370167Y-7473700D02*
G75*
G02*
X6570167Y-7273700I200000J0D01*
G01*
X8170167Y-7473700D02*
X8170167Y-7975217D01*
X8274884Y-8223183D02*
X8274884Y-8724700D01*
X8274884Y-7474700D02*
X8274884Y-7976217D01*
X8170167Y-8723700D02*
G75*
G02*
X7970167Y-8923700I-200002J2D01*
G01*
D10*
X8170167Y-7975217D02*
X8274884Y-7976217D01*
X10074884Y-8223183D02*
X10179601Y-8224183D01*
X8170167Y-8222183D02*
X8274884Y-8223183D01*
D11*
X7090250Y-8924300D02*
X6570167Y-8923700D01*
X10179601Y-7475700D02*
X10179601Y-7977217D01*
X10074884Y-8724700D02*
G75*
G02*
X9874884Y-8924700I-199997J-3D01*
G01*
X8170167Y-8222183D02*
X8170167Y-8723700D01*
X11779601Y-8925700D02*
X10379601Y-8925700D01*
D10*
X6290250Y-8024300D02*
G75*
G02*
X6230250Y-8024300I-30000J0D01*
G01*
X6230250Y-8024300D02*
G75*
G02*
X6290250Y-8024300I30000J0D01*
G01*
D11*
X8474884Y-7274700D02*
X9874884Y-7274700D01*
X2560733Y-7471700D02*
G75*
G02*
X2760733Y-7271700I200000J0D01*
G01*
X2760733Y-8921700D02*
G75*
G02*
X2560733Y-8721700I0J200000D01*
G01*
X2760733Y-7271700D02*
X4160733Y-7271700D01*
X4360733Y-7471700D02*
X4360733Y-7973217D01*
X4160733Y-8921700D02*
X2760733Y-8921700D01*
X4360733Y-8721700D02*
G75*
G02*
X4160733Y-8921700I-200000J0D01*
G01*
X4160733Y-7271700D02*
G75*
G02*
X4360733Y-7471700I0J-200000D01*
G01*
X4465450Y-8221183D02*
X4465450Y-8722700D01*
D10*
X4360733Y-8220183D02*
X4465450Y-8221183D01*
X4360733Y-7973217D02*
X4465450Y-7974217D01*
D11*
X4360733Y-8220183D02*
X4360733Y-8721700D01*
X4465450Y-7472700D02*
X4465450Y-7974217D01*
X11779601Y-7275700D02*
G75*
G02*
X11979604Y-7475700I3J-200000D01*
G01*
X11979601Y-8725700D02*
G75*
G02*
X11779601Y-8925697I-199997J0D01*
G01*
X10379601Y-8925700D02*
G75*
G02*
X10179601Y-8725700I-2J199998D01*
G01*
X10379601Y-7275700D02*
X11779601Y-7275700D01*
X11979601Y-7475700D02*
X11979601Y-7977217D01*
X2560733Y-7471700D02*
X2560733Y-8721700D01*
X10179601Y-7475700D02*
G75*
G02*
X10379601Y-7275697I200003J0D01*
G01*
X11979601Y-7977217D02*
X11979601Y-8725700D01*
X7970167Y-8923700D02*
X7450084Y-8923100D01*
D10*
X4500250Y-6384300D02*
G75*
G02*
X4440250Y-6384300I-30000J0D01*
G01*
X4440250Y-6384300D02*
G75*
G02*
X4500250Y-6384300I30000J0D01*
G01*
X6400250Y-6244300D02*
G75*
G02*
X6340250Y-6244300I-30000J0D01*
G01*
X6340250Y-6244300D02*
G75*
G02*
X6400250Y-6244300I30000J0D01*
G01*
X6290250Y-6314300D02*
G75*
G02*
X6230250Y-6314300I-30000J0D01*
G01*
X6230250Y-6314300D02*
G75*
G02*
X6290250Y-6314300I30000J0D01*
G01*
X8200250Y-6394300D02*
G75*
G02*
X8140250Y-6394300I-30000J0D01*
G01*
X8140250Y-6394300D02*
G75*
G02*
X8200250Y-6394300I30000J0D01*
G01*
X8200250Y-6254300D02*
G75*
G02*
X8140250Y-6254300I-30000J0D01*
G01*
X8140250Y-6254300D02*
G75*
G02*
X8200250Y-6254300I30000J0D01*
G01*
X4390250Y-6384300D02*
G75*
G02*
X4330250Y-6384300I-30000J0D01*
G01*
X4330250Y-6384300D02*
G75*
G02*
X4390250Y-6384300I30000J0D01*
G01*
D11*
X4665450Y-5492700D02*
X6065450Y-5492700D01*
D10*
X10100250Y-6394300D02*
G75*
G02*
X10040250Y-6394300I-30000J0D01*
G01*
X10040250Y-6394300D02*
G75*
G02*
X10100250Y-6394300I30000J0D01*
G01*
X8310250Y-6324300D02*
G75*
G02*
X8250250Y-6324300I-30000J0D01*
G01*
X8250250Y-6324300D02*
G75*
G02*
X8310250Y-6324300I30000J0D01*
G01*
X4500250Y-6314300D02*
G75*
G02*
X4440250Y-6314300I-30000J0D01*
G01*
X4440250Y-6314300D02*
G75*
G02*
X4500250Y-6314300I30000J0D01*
G01*
X6400250Y-6384300D02*
G75*
G02*
X6340250Y-6384300I-30000J0D01*
G01*
X6340250Y-6384300D02*
G75*
G02*
X6400250Y-6384300I30000J0D01*
G01*
X10210250Y-6254300D02*
G75*
G02*
X10150250Y-6254300I-30000J0D01*
G01*
X10150250Y-6254300D02*
G75*
G02*
X10210250Y-6254300I30000J0D01*
G01*
X4390250Y-6314300D02*
G75*
G02*
X4330250Y-6314300I-30000J0D01*
G01*
X4330250Y-6314300D02*
G75*
G02*
X4390250Y-6314300I30000J0D01*
G01*
X8310250Y-6254300D02*
G75*
G02*
X8250250Y-6254300I-30000J0D01*
G01*
X8250250Y-6254300D02*
G75*
G02*
X8310250Y-6254300I30000J0D01*
G01*
X10100250Y-6324300D02*
G75*
G02*
X10040250Y-6324300I-30000J0D01*
G01*
X10040250Y-6324300D02*
G75*
G02*
X10100250Y-6324300I30000J0D01*
G01*
D11*
X4465450Y-5692700D02*
G75*
G02*
X4665450Y-5492700I200000J0D01*
G01*
D10*
X10210250Y-6394300D02*
G75*
G02*
X10150250Y-6394300I-30000J0D01*
G01*
X10150250Y-6394300D02*
G75*
G02*
X10210250Y-6394300I30000J0D01*
G01*
X6400250Y-6314300D02*
G75*
G02*
X6340250Y-6314300I-30000J0D01*
G01*
X6340250Y-6314300D02*
G75*
G02*
X6400250Y-6314300I30000J0D01*
G01*
X4500250Y-6244300D02*
G75*
G02*
X4440250Y-6244300I-30000J0D01*
G01*
X4440250Y-6244300D02*
G75*
G02*
X4500250Y-6244300I30000J0D01*
G01*
X10100250Y-6254300D02*
G75*
G02*
X10040250Y-6254300I-30000J0D01*
G01*
X10040250Y-6254300D02*
G75*
G02*
X10100250Y-6254300I30000J0D01*
G01*
X8310250Y-6394300D02*
G75*
G02*
X8250250Y-6394300I-30000J0D01*
G01*
X8250250Y-6394300D02*
G75*
G02*
X8310250Y-6394300I30000J0D01*
G01*
X6290250Y-6384300D02*
G75*
G02*
X6230250Y-6384300I-30000J0D01*
G01*
X6230250Y-6384300D02*
G75*
G02*
X6290250Y-6384300I30000J0D01*
G01*
X10210250Y-6324300D02*
G75*
G02*
X10150250Y-6324300I-30000J0D01*
G01*
X10150250Y-6324300D02*
G75*
G02*
X10210250Y-6324300I30000J0D01*
G01*
X4390250Y-6244300D02*
G75*
G02*
X4330250Y-6244300I-30000J0D01*
G01*
X4330250Y-6244300D02*
G75*
G02*
X4390250Y-6244300I30000J0D01*
G01*
X8200250Y-6324300D02*
G75*
G02*
X8140250Y-6324300I-30000J0D01*
G01*
X8140250Y-6324300D02*
G75*
G02*
X8200250Y-6324300I30000J0D01*
G01*
D11*
X6265450Y-6441183D02*
X6265450Y-6942700D01*
X6265450Y-5692700D02*
X6265450Y-6194217D01*
X6370167Y-5693700D02*
X6370167Y-6195217D01*
D10*
X6265450Y-6194217D02*
X6370167Y-6195217D01*
D11*
X6065450Y-7142700D02*
X4665450Y-7142700D01*
X4665450Y-7142700D02*
G75*
G02*
X4465450Y-6942700I0J200000D01*
G01*
X6265450Y-6942700D02*
G75*
G02*
X6065450Y-7142700I-200000J0D01*
G01*
X6065450Y-5492700D02*
G75*
G02*
X6265450Y-5692700I0J-200000D01*
G01*
X6370167Y-6442183D02*
X6370167Y-6943700D01*
D10*
X6265450Y-6441183D02*
X6370167Y-6442183D01*
X7295450Y-5482700D02*
G75*
G02*
X7235450Y-5482700I-30000J0D01*
G01*
X7235450Y-5482700D02*
G75*
G02*
X7295450Y-5482700I30000J0D01*
G01*
X7225450Y-5372700D02*
G75*
G02*
X7165450Y-5372700I-30000J0D01*
G01*
X7165450Y-5372700D02*
G75*
G02*
X7225450Y-5372700I30000J0D01*
G01*
X7365450Y-5482700D02*
G75*
G02*
X7305450Y-5482700I-30000J0D01*
G01*
X7305450Y-5482700D02*
G75*
G02*
X7365450Y-5482700I30000J0D01*
G01*
X7155450Y-5372700D02*
G75*
G02*
X7095450Y-5372700I-30000J0D01*
G01*
X7095450Y-5372700D02*
G75*
G02*
X7155450Y-5372700I30000J0D01*
G01*
X7225450Y-5482700D02*
G75*
G02*
X7165450Y-5482700I-30000J0D01*
G01*
X7165450Y-5482700D02*
G75*
G02*
X7225450Y-5482700I30000J0D01*
G01*
X7295450Y-5372700D02*
G75*
G02*
X7235450Y-5372700I-30000J0D01*
G01*
X7235450Y-5372700D02*
G75*
G02*
X7295450Y-5372700I30000J0D01*
G01*
X7365450Y-5372700D02*
G75*
G02*
X7305450Y-5372700I-30000J0D01*
G01*
X7305450Y-5372700D02*
G75*
G02*
X7365450Y-5372700I30000J0D01*
G01*
D11*
X7090250Y-5494300D02*
X6570167Y-5493700D01*
D10*
X7435450Y-5482700D02*
G75*
G02*
X7375450Y-5482700I-30000J0D01*
G01*
X7375450Y-5482700D02*
G75*
G02*
X7435450Y-5482700I30000J0D01*
G01*
X7155450Y-5482700D02*
G75*
G02*
X7095450Y-5482700I-30000J0D01*
G01*
X7095450Y-5482700D02*
G75*
G02*
X7155450Y-5482700I30000J0D01*
G01*
X7435450Y-5372700D02*
G75*
G02*
X7375450Y-5372700I-30000J0D01*
G01*
X7375450Y-5372700D02*
G75*
G02*
X7435450Y-5372700I30000J0D01*
G01*
X7450084Y-5363100D02*
X7450084Y-5493100D01*
D11*
X7970167Y-5493700D02*
X7450084Y-5493100D01*
D10*
X7090250Y-5364300D02*
X7090250Y-5494300D01*
D11*
X8274884Y-5694700D02*
G75*
G02*
X8474884Y-5494700I200003J-3D01*
G01*
X6570167Y-7143700D02*
G75*
G02*
X6370167Y-6943700I0J200000D01*
G01*
X10074884Y-5694700D02*
X10074884Y-6196217D01*
X8474884Y-7144700D02*
G75*
G02*
X8274884Y-6944700I-7J199993D01*
G01*
X9874884Y-7144700D02*
X8474884Y-7144700D01*
D10*
X10074884Y-6196217D02*
X10179601Y-6197217D01*
D11*
X9874884Y-5494700D02*
G75*
G02*
X10074884Y-5694700I-10J-200010D01*
G01*
X10074884Y-6443183D02*
X10074884Y-6944700D01*
X10179601Y-6444183D02*
X10179601Y-6945700D01*
X7970167Y-5493700D02*
G75*
G02*
X8170167Y-5693700I5J-199995D01*
G01*
X6370167Y-5693700D02*
G75*
G02*
X6570167Y-5493700I200000J0D01*
G01*
X8170167Y-5693700D02*
X8170167Y-6195217D01*
X8274884Y-6443183D02*
X8274884Y-6944700D01*
X8274884Y-5694700D02*
X8274884Y-6196217D01*
X8170167Y-6943700D02*
G75*
G02*
X7970167Y-7143700I-200002J2D01*
G01*
D10*
X8170167Y-6195217D02*
X8274884Y-6196217D01*
X10074884Y-6443183D02*
X10179601Y-6444183D01*
X8170167Y-6442183D02*
X8274884Y-6443183D01*
D11*
X7090250Y-7144300D02*
X6570167Y-7143700D01*
X10179601Y-5695700D02*
X10179601Y-6197217D01*
X10074884Y-6944700D02*
G75*
G02*
X9874884Y-7144700I-199997J-3D01*
G01*
X8170167Y-6442183D02*
X8170167Y-6943700D01*
X11779601Y-7145700D02*
X10379601Y-7145700D01*
D10*
X6290250Y-6244300D02*
G75*
G02*
X6230250Y-6244300I-30000J0D01*
G01*
X6230250Y-6244300D02*
G75*
G02*
X6290250Y-6244300I30000J0D01*
G01*
D11*
X8474884Y-5494700D02*
X9874884Y-5494700D01*
X2560733Y-5691700D02*
G75*
G02*
X2760733Y-5491700I200000J0D01*
G01*
X2760733Y-7141700D02*
G75*
G02*
X2560733Y-6941700I0J200000D01*
G01*
X2760733Y-5491700D02*
X4160733Y-5491700D01*
X4360733Y-5691700D02*
X4360733Y-6193217D01*
X4160733Y-7141700D02*
X2760733Y-7141700D01*
X4360733Y-6941700D02*
G75*
G02*
X4160733Y-7141700I-200000J0D01*
G01*
X4160733Y-5491700D02*
G75*
G02*
X4360733Y-5691700I0J-200000D01*
G01*
X4465450Y-6441183D02*
X4465450Y-6942700D01*
D10*
X4360733Y-6440183D02*
X4465450Y-6441183D01*
X4360733Y-6193217D02*
X4465450Y-6194217D01*
D11*
X4360733Y-6440183D02*
X4360733Y-6941700D01*
X4465450Y-5692700D02*
X4465450Y-6194217D01*
X11779601Y-5495700D02*
G75*
G02*
X11979604Y-5695700I3J-200000D01*
G01*
X11979601Y-6945700D02*
G75*
G02*
X11779601Y-7145697I-199997J0D01*
G01*
X10379601Y-7145700D02*
G75*
G02*
X10179601Y-6945700I-2J199998D01*
G01*
X10379601Y-5495700D02*
X11779601Y-5495700D01*
X11979601Y-5695700D02*
X11979601Y-6197217D01*
X2560733Y-5691700D02*
X2560733Y-6941700D01*
X10179601Y-5695700D02*
G75*
G02*
X10379601Y-5495697I200003J0D01*
G01*
X11979601Y-6197217D02*
X11979601Y-6945700D01*
X7970167Y-7143700D02*
X7450084Y-7143100D01*
D10*
X4500250Y-4604300D02*
G75*
G02*
X4440250Y-4604300I-30000J0D01*
G01*
X4440250Y-4604300D02*
G75*
G02*
X4500250Y-4604300I30000J0D01*
G01*
X6400250Y-4464300D02*
G75*
G02*
X6340250Y-4464300I-30000J0D01*
G01*
X6340250Y-4464300D02*
G75*
G02*
X6400250Y-4464300I30000J0D01*
G01*
X6290250Y-4534300D02*
G75*
G02*
X6230250Y-4534300I-30000J0D01*
G01*
X6230250Y-4534300D02*
G75*
G02*
X6290250Y-4534300I30000J0D01*
G01*
X8200250Y-4614300D02*
G75*
G02*
X8140250Y-4614300I-30000J0D01*
G01*
X8140250Y-4614300D02*
G75*
G02*
X8200250Y-4614300I30000J0D01*
G01*
X8200250Y-4474300D02*
G75*
G02*
X8140250Y-4474300I-30000J0D01*
G01*
X8140250Y-4474300D02*
G75*
G02*
X8200250Y-4474300I30000J0D01*
G01*
X4390250Y-4604300D02*
G75*
G02*
X4330250Y-4604300I-30000J0D01*
G01*
X4330250Y-4604300D02*
G75*
G02*
X4390250Y-4604300I30000J0D01*
G01*
D11*
X4665450Y-3712700D02*
X6065450Y-3712700D01*
D10*
X10100250Y-4614300D02*
G75*
G02*
X10040250Y-4614300I-30000J0D01*
G01*
X10040250Y-4614300D02*
G75*
G02*
X10100250Y-4614300I30000J0D01*
G01*
X8310250Y-4544300D02*
G75*
G02*
X8250250Y-4544300I-30000J0D01*
G01*
X8250250Y-4544300D02*
G75*
G02*
X8310250Y-4544300I30000J0D01*
G01*
X4500250Y-4534300D02*
G75*
G02*
X4440250Y-4534300I-30000J0D01*
G01*
X4440250Y-4534300D02*
G75*
G02*
X4500250Y-4534300I30000J0D01*
G01*
X6400250Y-4604300D02*
G75*
G02*
X6340250Y-4604300I-30000J0D01*
G01*
X6340250Y-4604300D02*
G75*
G02*
X6400250Y-4604300I30000J0D01*
G01*
X10210250Y-4474300D02*
G75*
G02*
X10150250Y-4474300I-30000J0D01*
G01*
X10150250Y-4474300D02*
G75*
G02*
X10210250Y-4474300I30000J0D01*
G01*
X4390250Y-4534300D02*
G75*
G02*
X4330250Y-4534300I-30000J0D01*
G01*
X4330250Y-4534300D02*
G75*
G02*
X4390250Y-4534300I30000J0D01*
G01*
X8310250Y-4474300D02*
G75*
G02*
X8250250Y-4474300I-30000J0D01*
G01*
X8250250Y-4474300D02*
G75*
G02*
X8310250Y-4474300I30000J0D01*
G01*
X10100250Y-4544300D02*
G75*
G02*
X10040250Y-4544300I-30000J0D01*
G01*
X10040250Y-4544300D02*
G75*
G02*
X10100250Y-4544300I30000J0D01*
G01*
D11*
X4465450Y-3912700D02*
G75*
G02*
X4665450Y-3712700I200000J0D01*
G01*
D10*
X10210250Y-4614300D02*
G75*
G02*
X10150250Y-4614300I-30000J0D01*
G01*
X10150250Y-4614300D02*
G75*
G02*
X10210250Y-4614300I30000J0D01*
G01*
X6400250Y-4534300D02*
G75*
G02*
X6340250Y-4534300I-30000J0D01*
G01*
X6340250Y-4534300D02*
G75*
G02*
X6400250Y-4534300I30000J0D01*
G01*
X4500250Y-4464300D02*
G75*
G02*
X4440250Y-4464300I-30000J0D01*
G01*
X4440250Y-4464300D02*
G75*
G02*
X4500250Y-4464300I30000J0D01*
G01*
X10100250Y-4474300D02*
G75*
G02*
X10040250Y-4474300I-30000J0D01*
G01*
X10040250Y-4474300D02*
G75*
G02*
X10100250Y-4474300I30000J0D01*
G01*
X8310250Y-4614300D02*
G75*
G02*
X8250250Y-4614300I-30000J0D01*
G01*
X8250250Y-4614300D02*
G75*
G02*
X8310250Y-4614300I30000J0D01*
G01*
X6290250Y-4604300D02*
G75*
G02*
X6230250Y-4604300I-30000J0D01*
G01*
X6230250Y-4604300D02*
G75*
G02*
X6290250Y-4604300I30000J0D01*
G01*
X10210250Y-4544300D02*
G75*
G02*
X10150250Y-4544300I-30000J0D01*
G01*
X10150250Y-4544300D02*
G75*
G02*
X10210250Y-4544300I30000J0D01*
G01*
X4390250Y-4464300D02*
G75*
G02*
X4330250Y-4464300I-30000J0D01*
G01*
X4330250Y-4464300D02*
G75*
G02*
X4390250Y-4464300I30000J0D01*
G01*
X8200250Y-4544300D02*
G75*
G02*
X8140250Y-4544300I-30000J0D01*
G01*
X8140250Y-4544300D02*
G75*
G02*
X8200250Y-4544300I30000J0D01*
G01*
D11*
X6265450Y-4661183D02*
X6265450Y-5162700D01*
X6265450Y-3912700D02*
X6265450Y-4414217D01*
X6370167Y-3913700D02*
X6370167Y-4415217D01*
D10*
X6265450Y-4414217D02*
X6370167Y-4415217D01*
D11*
X6065450Y-5362700D02*
X4665450Y-5362700D01*
X4665450Y-5362700D02*
G75*
G02*
X4465450Y-5162700I0J200000D01*
G01*
X6265450Y-5162700D02*
G75*
G02*
X6065450Y-5362700I-200000J0D01*
G01*
X6065450Y-3712700D02*
G75*
G02*
X6265450Y-3912700I0J-200000D01*
G01*
X6370167Y-4662183D02*
X6370167Y-5163700D01*
D10*
X6265450Y-4661183D02*
X6370167Y-4662183D01*
X7295450Y-3702700D02*
G75*
G02*
X7235450Y-3702700I-30000J0D01*
G01*
X7235450Y-3702700D02*
G75*
G02*
X7295450Y-3702700I30000J0D01*
G01*
X7225450Y-3592700D02*
G75*
G02*
X7165450Y-3592700I-30000J0D01*
G01*
X7165450Y-3592700D02*
G75*
G02*
X7225450Y-3592700I30000J0D01*
G01*
X7365450Y-3702700D02*
G75*
G02*
X7305450Y-3702700I-30000J0D01*
G01*
X7305450Y-3702700D02*
G75*
G02*
X7365450Y-3702700I30000J0D01*
G01*
X7155450Y-3592700D02*
G75*
G02*
X7095450Y-3592700I-30000J0D01*
G01*
X7095450Y-3592700D02*
G75*
G02*
X7155450Y-3592700I30000J0D01*
G01*
X7225450Y-3702700D02*
G75*
G02*
X7165450Y-3702700I-30000J0D01*
G01*
X7165450Y-3702700D02*
G75*
G02*
X7225450Y-3702700I30000J0D01*
G01*
X7295450Y-3592700D02*
G75*
G02*
X7235450Y-3592700I-30000J0D01*
G01*
X7235450Y-3592700D02*
G75*
G02*
X7295450Y-3592700I30000J0D01*
G01*
X7365450Y-3592700D02*
G75*
G02*
X7305450Y-3592700I-30000J0D01*
G01*
X7305450Y-3592700D02*
G75*
G02*
X7365450Y-3592700I30000J0D01*
G01*
D11*
X7090250Y-3714300D02*
X6570167Y-3713700D01*
D10*
X7435450Y-3702700D02*
G75*
G02*
X7375450Y-3702700I-30000J0D01*
G01*
X7375450Y-3702700D02*
G75*
G02*
X7435450Y-3702700I30000J0D01*
G01*
X7155450Y-3702700D02*
G75*
G02*
X7095450Y-3702700I-30000J0D01*
G01*
X7095450Y-3702700D02*
G75*
G02*
X7155450Y-3702700I30000J0D01*
G01*
X7435450Y-3592700D02*
G75*
G02*
X7375450Y-3592700I-30000J0D01*
G01*
X7375450Y-3592700D02*
G75*
G02*
X7435450Y-3592700I30000J0D01*
G01*
X7450084Y-3583100D02*
X7450084Y-3713100D01*
D11*
X7970167Y-3713700D02*
X7450084Y-3713100D01*
D10*
X7090250Y-3584300D02*
X7090250Y-3714300D01*
D11*
X8274884Y-3914700D02*
G75*
G02*
X8474884Y-3714700I200003J-3D01*
G01*
X6570167Y-5363700D02*
G75*
G02*
X6370167Y-5163700I0J200000D01*
G01*
X10074884Y-3914700D02*
X10074884Y-4416217D01*
X8474884Y-5364700D02*
G75*
G02*
X8274884Y-5164700I-7J199993D01*
G01*
X9874884Y-5364700D02*
X8474884Y-5364700D01*
D10*
X10074884Y-4416217D02*
X10179601Y-4417217D01*
D11*
X9874884Y-3714700D02*
G75*
G02*
X10074884Y-3914700I-10J-200010D01*
G01*
X10074884Y-4663183D02*
X10074884Y-5164700D01*
X10179601Y-4664183D02*
X10179601Y-5165700D01*
X7970167Y-3713700D02*
G75*
G02*
X8170167Y-3913700I5J-199995D01*
G01*
X6370167Y-3913700D02*
G75*
G02*
X6570167Y-3713700I200000J0D01*
G01*
X8170167Y-3913700D02*
X8170167Y-4415217D01*
X8274884Y-4663183D02*
X8274884Y-5164700D01*
X8274884Y-3914700D02*
X8274884Y-4416217D01*
X8170167Y-5163700D02*
G75*
G02*
X7970167Y-5363700I-200002J2D01*
G01*
D10*
X8170167Y-4415217D02*
X8274884Y-4416217D01*
X10074884Y-4663183D02*
X10179601Y-4664183D01*
X8170167Y-4662183D02*
X8274884Y-4663183D01*
D11*
X7090250Y-5364300D02*
X6570167Y-5363700D01*
X10179601Y-3915700D02*
X10179601Y-4417217D01*
X10074884Y-5164700D02*
G75*
G02*
X9874884Y-5364700I-199997J-3D01*
G01*
X8170167Y-4662183D02*
X8170167Y-5163700D01*
X11779601Y-5365700D02*
X10379601Y-5365700D01*
D10*
X6290250Y-4464300D02*
G75*
G02*
X6230250Y-4464300I-30000J0D01*
G01*
X6230250Y-4464300D02*
G75*
G02*
X6290250Y-4464300I30000J0D01*
G01*
D11*
X8474884Y-3714700D02*
X9874884Y-3714700D01*
X2560733Y-3911700D02*
G75*
G02*
X2760733Y-3711700I200000J0D01*
G01*
X2760733Y-5361700D02*
G75*
G02*
X2560733Y-5161700I0J200000D01*
G01*
X2760733Y-3711700D02*
X4160733Y-3711700D01*
X4360733Y-3911700D02*
X4360733Y-4413217D01*
X4160733Y-5361700D02*
X2760733Y-5361700D01*
X4360733Y-5161700D02*
G75*
G02*
X4160733Y-5361700I-200000J0D01*
G01*
X4160733Y-3711700D02*
G75*
G02*
X4360733Y-3911700I0J-200000D01*
G01*
X4465450Y-4661183D02*
X4465450Y-5162700D01*
D10*
X4360733Y-4660183D02*
X4465450Y-4661183D01*
X4360733Y-4413217D02*
X4465450Y-4414217D01*
D11*
X4360733Y-4660183D02*
X4360733Y-5161700D01*
X4465450Y-3912700D02*
X4465450Y-4414217D01*
X11779601Y-3715700D02*
G75*
G02*
X11979604Y-3915700I3J-200000D01*
G01*
X11979601Y-5165700D02*
G75*
G02*
X11779601Y-5365697I-199997J0D01*
G01*
X10379601Y-5365700D02*
G75*
G02*
X10179601Y-5165700I-2J199998D01*
G01*
X10379601Y-3715700D02*
X11779601Y-3715700D01*
X11979601Y-3915700D02*
X11979601Y-4417217D01*
X2560733Y-3911700D02*
X2560733Y-5161700D01*
X10179601Y-3915700D02*
G75*
G02*
X10379601Y-3715697I200003J0D01*
G01*
X11979601Y-4417217D02*
X11979601Y-5165700D01*
X7970167Y-5363700D02*
X7450084Y-5363100D01*
D10*
X4500250Y-2684300D02*
G75*
G02*
X4440250Y-2684300I-30000J0D01*
G01*
X4440250Y-2684300D02*
G75*
G02*
X4500250Y-2684300I30000J0D01*
G01*
X4390250Y-2824300D02*
G75*
G02*
X4330250Y-2824300I-30000J0D01*
G01*
X4330250Y-2824300D02*
G75*
G02*
X4390250Y-2824300I30000J0D01*
G01*
X4500250Y-2754300D02*
G75*
G02*
X4440250Y-2754300I-30000J0D01*
G01*
X4440250Y-2754300D02*
G75*
G02*
X4500250Y-2754300I30000J0D01*
G01*
X4500250Y-2824300D02*
G75*
G02*
X4440250Y-2824300I-30000J0D01*
G01*
X4440250Y-2824300D02*
G75*
G02*
X4500250Y-2824300I30000J0D01*
G01*
X4390250Y-2754300D02*
G75*
G02*
X4330250Y-2754300I-30000J0D01*
G01*
X4330250Y-2754300D02*
G75*
G02*
X4390250Y-2754300I30000J0D01*
G01*
X4390250Y-2684300D02*
G75*
G02*
X4330250Y-2684300I-30000J0D01*
G01*
X4330250Y-2684300D02*
G75*
G02*
X4390250Y-2684300I30000J0D01*
G01*
X10210250Y-2694300D02*
G75*
G02*
X10150250Y-2694300I-30000J0D01*
G01*
X10150250Y-2694300D02*
G75*
G02*
X10210250Y-2694300I30000J0D01*
G01*
X10100250Y-2834300D02*
G75*
G02*
X10040250Y-2834300I-30000J0D01*
G01*
X10040250Y-2834300D02*
G75*
G02*
X10100250Y-2834300I30000J0D01*
G01*
X10210250Y-2764300D02*
G75*
G02*
X10150250Y-2764300I-30000J0D01*
G01*
X10150250Y-2764300D02*
G75*
G02*
X10210250Y-2764300I30000J0D01*
G01*
X10210250Y-2834300D02*
G75*
G02*
X10150250Y-2834300I-30000J0D01*
G01*
X10150250Y-2834300D02*
G75*
G02*
X10210250Y-2834300I30000J0D01*
G01*
X10100250Y-2764300D02*
G75*
G02*
X10040250Y-2764300I-30000J0D01*
G01*
X10040250Y-2764300D02*
G75*
G02*
X10100250Y-2764300I30000J0D01*
G01*
X10100250Y-2694300D02*
G75*
G02*
X10040250Y-2694300I-30000J0D01*
G01*
X10040250Y-2694300D02*
G75*
G02*
X10100250Y-2694300I30000J0D01*
G01*
X8310250Y-2694300D02*
G75*
G02*
X8250250Y-2694300I-30000J0D01*
G01*
X8250250Y-2694300D02*
G75*
G02*
X8310250Y-2694300I30000J0D01*
G01*
X8200250Y-2834300D02*
G75*
G02*
X8140250Y-2834300I-30000J0D01*
G01*
X8140250Y-2834300D02*
G75*
G02*
X8200250Y-2834300I30000J0D01*
G01*
X8310250Y-2764300D02*
G75*
G02*
X8250250Y-2764300I-30000J0D01*
G01*
X8250250Y-2764300D02*
G75*
G02*
X8310250Y-2764300I30000J0D01*
G01*
X8310250Y-2834300D02*
G75*
G02*
X8250250Y-2834300I-30000J0D01*
G01*
X8250250Y-2834300D02*
G75*
G02*
X8310250Y-2834300I30000J0D01*
G01*
X8200250Y-2764300D02*
G75*
G02*
X8140250Y-2764300I-30000J0D01*
G01*
X8140250Y-2764300D02*
G75*
G02*
X8200250Y-2764300I30000J0D01*
G01*
X8200250Y-2694300D02*
G75*
G02*
X8140250Y-2694300I-30000J0D01*
G01*
X8140250Y-2694300D02*
G75*
G02*
X8200250Y-2694300I30000J0D01*
G01*
X6400250Y-2824300D02*
G75*
G02*
X6340250Y-2824300I-30000J0D01*
G01*
X6340250Y-2824300D02*
G75*
G02*
X6400250Y-2824300I30000J0D01*
G01*
X6290250Y-2824300D02*
G75*
G02*
X6230250Y-2824300I-30000J0D01*
G01*
X6230250Y-2824300D02*
G75*
G02*
X6290250Y-2824300I30000J0D01*
G01*
X6400250Y-2754300D02*
G75*
G02*
X6340250Y-2754300I-30000J0D01*
G01*
X6340250Y-2754300D02*
G75*
G02*
X6400250Y-2754300I30000J0D01*
G01*
X6290250Y-2754300D02*
G75*
G02*
X6230250Y-2754300I-30000J0D01*
G01*
X6230250Y-2754300D02*
G75*
G02*
X6290250Y-2754300I30000J0D01*
G01*
X6400250Y-2684300D02*
G75*
G02*
X6340250Y-2684300I-30000J0D01*
G01*
X6340250Y-2684300D02*
G75*
G02*
X6400250Y-2684300I30000J0D01*
G01*
X6290250Y-2684300D02*
G75*
G02*
X6230250Y-2684300I-30000J0D01*
G01*
X6230250Y-2684300D02*
G75*
G02*
X6290250Y-2684300I30000J0D01*
G01*
D11*
X7970167Y-3583700D02*
X7450084Y-3583100D01*
X2560733Y-2131700D02*
X2560733Y-3381700D01*
X10179601Y-2135700D02*
G75*
G02*
X10379601Y-1935700I200000J0D01*
G01*
X11979601Y-2135700D02*
X11979601Y-2637217D01*
X11779601Y-1935700D02*
G75*
G02*
X11979601Y-2135700I0J-200000D01*
G01*
X10379601Y-3585700D02*
G75*
G02*
X10179601Y-3385700I0J200000D01*
G01*
X11979601Y-3385700D02*
G75*
G02*
X11779601Y-3585700I-200000J0D01*
G01*
X10379601Y-1935700D02*
X11779601Y-1935700D01*
X11779601Y-3585700D02*
X10379601Y-3585700D01*
X11979601Y-2637217D02*
X11979601Y-3385700D01*
X4360733Y-2880183D02*
X4360733Y-3381700D01*
D10*
X4360733Y-2633217D02*
X4465450Y-2634217D01*
X4360733Y-2880183D02*
X4465450Y-2881183D01*
D11*
X4465450Y-2132700D02*
X4465450Y-2634217D01*
X4465450Y-2881183D02*
X4465450Y-3382700D01*
X4160733Y-1931700D02*
G75*
G02*
X4360733Y-2131700I0J-200000D01*
G01*
X4360733Y-3381700D02*
G75*
G02*
X4160733Y-3581700I-200000J0D01*
G01*
X4360733Y-2131700D02*
X4360733Y-2633217D01*
X2760733Y-3581700D02*
G75*
G02*
X2560733Y-3381700I0J200000D01*
G01*
X2560733Y-2131700D02*
G75*
G02*
X2760733Y-1931700I200000J0D01*
G01*
X2760733Y-1931700D02*
X4160733Y-1931700D01*
X4160733Y-3581700D02*
X2760733Y-3581700D01*
X8170167Y-3383700D02*
G75*
G02*
X7970167Y-3583700I-200000J0D01*
G01*
X8170167Y-2882183D02*
X8170167Y-3383700D01*
D10*
X8170167Y-2635217D02*
X8274884Y-2636217D01*
D11*
X6570167Y-1933700D02*
X7970167Y-1933700D01*
X6570167Y-3583700D02*
G75*
G02*
X6370167Y-3383700I0J200000D01*
G01*
D10*
X8170167Y-2882183D02*
X8274884Y-2883183D01*
D11*
X8274884Y-2883183D02*
X8274884Y-3384700D01*
X8274884Y-2134700D02*
X8274884Y-2636217D01*
X8170167Y-2133700D02*
X8170167Y-2635217D01*
X6370167Y-2133700D02*
G75*
G02*
X6570167Y-1933700I200000J0D01*
G01*
X7970167Y-1933700D02*
G75*
G02*
X8170167Y-2133700I0J-200000D01*
G01*
X7090250Y-3584300D02*
X6570167Y-3583700D01*
X10074884Y-2134700D02*
X10074884Y-2636217D01*
X10074884Y-2883183D02*
X10074884Y-3384700D01*
X10074884Y-3384700D02*
G75*
G02*
X9874884Y-3584700I-200000J0D01*
G01*
X9874884Y-1934700D02*
G75*
G02*
X10074884Y-2134700I0J-200000D01*
G01*
X8274884Y-2134700D02*
G75*
G02*
X8474884Y-1934700I200000J0D01*
G01*
X9874884Y-3584700D02*
X8474884Y-3584700D01*
X8474884Y-3584700D02*
G75*
G02*
X8274884Y-3384700I0J200000D01*
G01*
X8474884Y-1934700D02*
X9874884Y-1934700D01*
D10*
X6265450Y-2634217D02*
X6370167Y-2635217D01*
X6265450Y-2881183D02*
X6370167Y-2882183D01*
D11*
X6370167Y-2133700D02*
X6370167Y-2635217D01*
X6265450Y-2881183D02*
X6265450Y-3382700D01*
X6370167Y-2882183D02*
X6370167Y-3383700D01*
X6065450Y-1932700D02*
G75*
G02*
X6265450Y-2132700I0J-200000D01*
G01*
X6265450Y-3382700D02*
G75*
G02*
X6065450Y-3582700I-200000J0D01*
G01*
X6265450Y-2132700D02*
X6265450Y-2634217D01*
X4665450Y-3582700D02*
G75*
G02*
X4465450Y-3382700I0J200000D01*
G01*
X6065450Y-3582700D02*
X4665450Y-3582700D01*
X4465450Y-2132700D02*
G75*
G02*
X4665450Y-1932700I200000J0D01*
G01*
X4665450Y-1932700D02*
X6065450Y-1932700D01*
D10*
X10074884Y-2636217D02*
X10179601Y-2637217D01*
X10074884Y-2883183D02*
X10179601Y-2884183D01*
D11*
X10179601Y-2884183D02*
X10179601Y-3385700D01*
X10179601Y-2135700D02*
X10179601Y-2637217D01*
D12*
D13*
X3325133Y-2864217D02*
X3365133Y-2904217D01*
X3365133Y-2864217D02*
X3325133Y-2904217D01*
X3325133Y-4644217D02*
X3365133Y-4684217D01*
X3365133Y-4644217D02*
X3325133Y-4684217D01*
X3325133Y-6424217D02*
X3365133Y-6464217D01*
X3365133Y-6424217D02*
X3325133Y-6464217D01*
X3325133Y-8204217D02*
X3365133Y-8244217D01*
X3365133Y-8204217D02*
X3325133Y-8244217D01*
X3325133Y-9984217D02*
X3365133Y-10024217D01*
X3365133Y-9984217D02*
X3325133Y-10024217D01*
X3403450Y-2482617D02*
X3443450Y-2522617D01*
X3443450Y-2482617D02*
X3403450Y-2522617D01*
X3403450Y-4262617D02*
X3443450Y-4302617D01*
X3443450Y-4262617D02*
X3403450Y-4302617D01*
X3403450Y-6042617D02*
X3443450Y-6082617D01*
X3443450Y-6042617D02*
X3403450Y-6082617D01*
X3403450Y-7822617D02*
X3443450Y-7862617D01*
X3443450Y-7822617D02*
X3403450Y-7862617D01*
X3403450Y-9602617D02*
X3443450Y-9642617D01*
X3443450Y-9602617D02*
X3403450Y-9642617D01*
X3572850Y-2476111D02*
X3612850Y-2516111D01*
X3612850Y-2476111D02*
X3572850Y-2516111D01*
X3572850Y-4256111D02*
X3612850Y-4296111D01*
X3612850Y-4256111D02*
X3572850Y-4296111D01*
X3572850Y-6036111D02*
X3612850Y-6076111D01*
X3612850Y-6036111D02*
X3572850Y-6076111D01*
X3572850Y-7816111D02*
X3612850Y-7856111D01*
X3612850Y-7816111D02*
X3572850Y-7856111D01*
X3572850Y-9596111D02*
X3612850Y-9636111D01*
X3612850Y-9596111D02*
X3572850Y-9636111D01*
X3684450Y-2795217D02*
X3724450Y-2835217D01*
X3724450Y-2795217D02*
X3684450Y-2835217D01*
X3684450Y-4575217D02*
X3724450Y-4615217D01*
X3724450Y-4575217D02*
X3684450Y-4615217D01*
X3684450Y-6355217D02*
X3724450Y-6395217D01*
X3724450Y-6355217D02*
X3684450Y-6395217D01*
X3684450Y-8135217D02*
X3724450Y-8175217D01*
X3724450Y-8135217D02*
X3684450Y-8175217D01*
X3684450Y-9915217D02*
X3724450Y-9955217D01*
X3724450Y-9915217D02*
X3684450Y-9955217D01*
X5229850Y-2865217D02*
X5269850Y-2905217D01*
X5269850Y-2865217D02*
X5229850Y-2905217D01*
X5229850Y-4645217D02*
X5269850Y-4685217D01*
X5269850Y-4645217D02*
X5229850Y-4685217D01*
X5229850Y-6425217D02*
X5269850Y-6465217D01*
X5269850Y-6425217D02*
X5229850Y-6465217D01*
X5229850Y-8205217D02*
X5269850Y-8245217D01*
X5269850Y-8205217D02*
X5229850Y-8245217D01*
X5229850Y-9985217D02*
X5269850Y-10025217D01*
X5269850Y-9985217D02*
X5229850Y-10025217D01*
X5308167Y-2483617D02*
X5348167Y-2523617D01*
X5348167Y-2483617D02*
X5308167Y-2523617D01*
X5308167Y-4263617D02*
X5348167Y-4303617D01*
X5348167Y-4263617D02*
X5308167Y-4303617D01*
X5308167Y-6043617D02*
X5348167Y-6083617D01*
X5348167Y-6043617D02*
X5308167Y-6083617D01*
X5308167Y-7823617D02*
X5348167Y-7863617D01*
X5348167Y-7823617D02*
X5308167Y-7863617D01*
X5308167Y-9603617D02*
X5348167Y-9643617D01*
X5348167Y-9603617D02*
X5308167Y-9643617D01*
X5477567Y-2477111D02*
X5517567Y-2517111D01*
X5517567Y-2477111D02*
X5477567Y-2517111D01*
X5477567Y-4257111D02*
X5517567Y-4297111D01*
X5517567Y-4257111D02*
X5477567Y-4297111D01*
X5477567Y-6037111D02*
X5517567Y-6077111D01*
X5517567Y-6037111D02*
X5477567Y-6077111D01*
X5477567Y-7817111D02*
X5517567Y-7857111D01*
X5517567Y-7817111D02*
X5477567Y-7857111D01*
X5477567Y-9597111D02*
X5517567Y-9637111D01*
X5517567Y-9597111D02*
X5477567Y-9637111D01*
X5589167Y-2796217D02*
X5629167Y-2836217D01*
X5629167Y-2796217D02*
X5589167Y-2836217D01*
X5589167Y-4576217D02*
X5629167Y-4616217D01*
X5629167Y-4576217D02*
X5589167Y-4616217D01*
X5589167Y-6356217D02*
X5629167Y-6396217D01*
X5629167Y-6356217D02*
X5589167Y-6396217D01*
X5589167Y-8136217D02*
X5629167Y-8176217D01*
X5629167Y-8136217D02*
X5589167Y-8176217D01*
X5589167Y-9916217D02*
X5629167Y-9956217D01*
X5629167Y-9916217D02*
X5589167Y-9956217D01*
X7134567Y-2866217D02*
X7174567Y-2906217D01*
X7174567Y-2866217D02*
X7134567Y-2906217D01*
X7134567Y-4646217D02*
X7174567Y-4686217D01*
X7174567Y-4646217D02*
X7134567Y-4686217D01*
X7134567Y-6426217D02*
X7174567Y-6466217D01*
X7174567Y-6426217D02*
X7134567Y-6466217D01*
X7134567Y-8206217D02*
X7174567Y-8246217D01*
X7174567Y-8206217D02*
X7134567Y-8246217D01*
X7134567Y-9986217D02*
X7174567Y-10026217D01*
X7174567Y-9986217D02*
X7134567Y-10026217D01*
X7212884Y-2484617D02*
X7252884Y-2524617D01*
X7252884Y-2484617D02*
X7212884Y-2524617D01*
X7212884Y-4264617D02*
X7252884Y-4304617D01*
X7252884Y-4264617D02*
X7212884Y-4304617D01*
X7212884Y-6044617D02*
X7252884Y-6084617D01*
X7252884Y-6044617D02*
X7212884Y-6084617D01*
X7212884Y-7824617D02*
X7252884Y-7864617D01*
X7252884Y-7824617D02*
X7212884Y-7864617D01*
X7212884Y-9604617D02*
X7252884Y-9644617D01*
X7252884Y-9604617D02*
X7212884Y-9644617D01*
X7382284Y-2478111D02*
X7422284Y-2518111D01*
X7422284Y-2478111D02*
X7382284Y-2518111D01*
X7382284Y-4258111D02*
X7422284Y-4298111D01*
X7422284Y-4258111D02*
X7382284Y-4298111D01*
X7382284Y-6038111D02*
X7422284Y-6078111D01*
X7422284Y-6038111D02*
X7382284Y-6078111D01*
X7382284Y-7818111D02*
X7422284Y-7858111D01*
X7422284Y-7818111D02*
X7382284Y-7858111D01*
X7382284Y-9598111D02*
X7422284Y-9638111D01*
X7422284Y-9598111D02*
X7382284Y-9638111D01*
X7493884Y-2797217D02*
X7533884Y-2837217D01*
X7533884Y-2797217D02*
X7493884Y-2837217D01*
X7493884Y-4577217D02*
X7533884Y-4617217D01*
X7533884Y-4577217D02*
X7493884Y-4617217D01*
X7493884Y-6357217D02*
X7533884Y-6397217D01*
X7533884Y-6357217D02*
X7493884Y-6397217D01*
X7493884Y-8137217D02*
X7533884Y-8177217D01*
X7533884Y-8137217D02*
X7493884Y-8177217D01*
X7493884Y-9917217D02*
X7533884Y-9957217D01*
X7533884Y-9917217D02*
X7493884Y-9957217D01*
X9039284Y-2867217D02*
X9079284Y-2907217D01*
X9079284Y-2867217D02*
X9039284Y-2907217D01*
X9039284Y-4647217D02*
X9079284Y-4687217D01*
X9079284Y-4647217D02*
X9039284Y-4687217D01*
X9039284Y-6427217D02*
X9079284Y-6467217D01*
X9079284Y-6427217D02*
X9039284Y-6467217D01*
X9039284Y-8207217D02*
X9079284Y-8247217D01*
X9079284Y-8207217D02*
X9039284Y-8247217D01*
X9039284Y-9987217D02*
X9079284Y-10027217D01*
X9079284Y-9987217D02*
X9039284Y-10027217D01*
X9117601Y-2485617D02*
X9157601Y-2525617D01*
X9157601Y-2485617D02*
X9117601Y-2525617D01*
X9117601Y-4265617D02*
X9157601Y-4305617D01*
X9157601Y-4265617D02*
X9117601Y-4305617D01*
X9117601Y-6045617D02*
X9157601Y-6085617D01*
X9157601Y-6045617D02*
X9117601Y-6085617D01*
X9117601Y-7825617D02*
X9157601Y-7865617D01*
X9157601Y-7825617D02*
X9117601Y-7865617D01*
X9117601Y-9605617D02*
X9157601Y-9645617D01*
X9157601Y-9605617D02*
X9117601Y-9645617D01*
X9287001Y-2479111D02*
X9327001Y-2519111D01*
X9327001Y-2479111D02*
X9287001Y-2519111D01*
X9287001Y-4259111D02*
X9327001Y-4299111D01*
X9327001Y-4259111D02*
X9287001Y-4299111D01*
X9287001Y-6039111D02*
X9327001Y-6079111D01*
X9327001Y-6039111D02*
X9287001Y-6079111D01*
X9287001Y-7819111D02*
X9327001Y-7859111D01*
X9327001Y-7819111D02*
X9287001Y-7859111D01*
X9287001Y-9599111D02*
X9327001Y-9639111D01*
X9327001Y-9599111D02*
X9287001Y-9639111D01*
X9398601Y-2798217D02*
X9438601Y-2838217D01*
X9438601Y-2798217D02*
X9398601Y-2838217D01*
X9398601Y-4578217D02*
X9438601Y-4618217D01*
X9438601Y-4578217D02*
X9398601Y-4618217D01*
X9398601Y-6358217D02*
X9438601Y-6398217D01*
X9438601Y-6358217D02*
X9398601Y-6398217D01*
X9398601Y-8138217D02*
X9438601Y-8178217D01*
X9438601Y-8138217D02*
X9398601Y-8178217D01*
X9398601Y-9918217D02*
X9438601Y-9958217D01*
X9438601Y-9918217D02*
X9398601Y-9958217D01*
X10944001Y-2868217D02*
X10984001Y-2908217D01*
X10984001Y-2868217D02*
X10944001Y-2908217D01*
X10944001Y-4648217D02*
X10984001Y-4688217D01*
X10984001Y-4648217D02*
X10944001Y-4688217D01*
X10944001Y-6428217D02*
X10984001Y-6468217D01*
X10984001Y-6428217D02*
X10944001Y-6468217D01*
X10944001Y-8208217D02*
X10984001Y-8248217D01*
X10984001Y-8208217D02*
X10944001Y-8248217D01*
X10944001Y-9988217D02*
X10984001Y-10028217D01*
X10984001Y-9988217D02*
X10944001Y-10028217D01*
X11022318Y-2486617D02*
X11062318Y-2526617D01*
X11062318Y-2486617D02*
X11022318Y-2526617D01*
X11022318Y-4266617D02*
X11062318Y-4306617D01*
X11062318Y-4266617D02*
X11022318Y-4306617D01*
X11022318Y-6046617D02*
X11062318Y-6086617D01*
X11062318Y-6046617D02*
X11022318Y-6086617D01*
X11022318Y-7826617D02*
X11062318Y-7866617D01*
X11062318Y-7826617D02*
X11022318Y-7866617D01*
X11022318Y-9606617D02*
X11062318Y-9646617D01*
X11062318Y-9606617D02*
X11022318Y-9646617D01*
X11191718Y-2480111D02*
X11231718Y-2520111D01*
X11231718Y-2480111D02*
X11191718Y-2520111D01*
X11191718Y-4260111D02*
X11231718Y-4300111D01*
X11231718Y-4260111D02*
X11191718Y-4300111D01*
X11191718Y-6040111D02*
X11231718Y-6080111D01*
X11231718Y-6040111D02*
X11191718Y-6080111D01*
X11191718Y-7820111D02*
X11231718Y-7860111D01*
X11231718Y-7820111D02*
X11191718Y-7860111D01*
X11191718Y-9600111D02*
X11231718Y-9640111D01*
X11231718Y-9600111D02*
X11191718Y-9640111D01*
X11303318Y-2799217D02*
X11343318Y-2839217D01*
X11343318Y-2799217D02*
X11303318Y-2839217D01*
X11303318Y-4579217D02*
X11343318Y-4619217D01*
X11343318Y-4579217D02*
X11303318Y-4619217D01*
X11303318Y-6359217D02*
X11343318Y-6399217D01*
X11343318Y-6359217D02*
X11303318Y-6399217D01*
X11303318Y-8139217D02*
X11343318Y-8179217D01*
X11343318Y-8139217D02*
X11303318Y-8179217D01*
X11303318Y-9919217D02*
X11343318Y-9959217D01*
X11343318Y-9919217D02*
X11303318Y-9959217D01*
X3060533Y-2191700D02*
G75*
G02*
X3000533Y-2191700I-30000J0D01*
G01*
X3000533Y-2191700D02*
G75*
G02*
X3060533Y-2191700I30000J0D01*
G01*
X3060533Y-2221700D02*
X3060533Y-2161700D01*
X3000533Y-2161700D02*
G75*
G02*
X3060533Y-2161700I30000J0D01*
G01*
X3000533Y-2161700D02*
X3000533Y-2221700D01*
X3000533Y-2221700D02*
G75*
G03*
X3060533Y-2221700I30000J0D01*
G01*
X3060533Y-2611700D02*
G75*
G02*
X3000533Y-2611700I-30000J0D01*
G01*
X3000533Y-2611700D02*
G75*
G02*
X3060533Y-2611700I30000J0D01*
G01*
X3060533Y-2666700D02*
X3060533Y-2556700D01*
X3000533Y-2556700D02*
G75*
G02*
X3060533Y-2556700I30000J0D01*
G01*
X3000533Y-2556700D02*
X3000533Y-2666700D01*
X3000533Y-2666700D02*
G75*
G03*
X3060533Y-2666700I30000J0D01*
G01*
X3060533Y-3971700D02*
G75*
G02*
X3000533Y-3971700I-30000J0D01*
G01*
X3000533Y-3971700D02*
G75*
G02*
X3060533Y-3971700I30000J0D01*
G01*
X3060533Y-4001700D02*
X3060533Y-3941700D01*
X3000533Y-3941700D02*
G75*
G02*
X3060533Y-3941700I30000J0D01*
G01*
X3000533Y-3941700D02*
X3000533Y-4001700D01*
X3000533Y-4001700D02*
G75*
G03*
X3060533Y-4001700I30000J0D01*
G01*
X3060533Y-4391700D02*
G75*
G02*
X3000533Y-4391700I-30000J0D01*
G01*
X3000533Y-4391700D02*
G75*
G02*
X3060533Y-4391700I30000J0D01*
G01*
X3060533Y-4446700D02*
X3060533Y-4336700D01*
X3000533Y-4336700D02*
G75*
G02*
X3060533Y-4336700I30000J0D01*
G01*
X3000533Y-4336700D02*
X3000533Y-4446700D01*
X3000533Y-4446700D02*
G75*
G03*
X3060533Y-4446700I30000J0D01*
G01*
X3060533Y-5751700D02*
G75*
G02*
X3000533Y-5751700I-30000J0D01*
G01*
X3000533Y-5751700D02*
G75*
G02*
X3060533Y-5751700I30000J0D01*
G01*
X3060533Y-5781700D02*
X3060533Y-5721700D01*
X3000533Y-5721700D02*
G75*
G02*
X3060533Y-5721700I30000J0D01*
G01*
X3000533Y-5721700D02*
X3000533Y-5781700D01*
X3000533Y-5781700D02*
G75*
G03*
X3060533Y-5781700I30000J0D01*
G01*
X3060533Y-6171700D02*
G75*
G02*
X3000533Y-6171700I-30000J0D01*
G01*
X3000533Y-6171700D02*
G75*
G02*
X3060533Y-6171700I30000J0D01*
G01*
X3060533Y-6226700D02*
X3060533Y-6116700D01*
X3000533Y-6116700D02*
G75*
G02*
X3060533Y-6116700I30000J0D01*
G01*
X3000533Y-6116700D02*
X3000533Y-6226700D01*
X3000533Y-6226700D02*
G75*
G03*
X3060533Y-6226700I30000J0D01*
G01*
X3060533Y-7531700D02*
G75*
G02*
X3000533Y-7531700I-30000J0D01*
G01*
X3000533Y-7531700D02*
G75*
G02*
X3060533Y-7531700I30000J0D01*
G01*
X3060533Y-7561700D02*
X3060533Y-7501700D01*
X3000533Y-7501700D02*
G75*
G02*
X3060533Y-7501700I30000J0D01*
G01*
X3000533Y-7501700D02*
X3000533Y-7561700D01*
X3000533Y-7561700D02*
G75*
G03*
X3060533Y-7561700I30000J0D01*
G01*
X3060533Y-7951700D02*
G75*
G02*
X3000533Y-7951700I-30000J0D01*
G01*
X3000533Y-7951700D02*
G75*
G02*
X3060533Y-7951700I30000J0D01*
G01*
X3060533Y-8006700D02*
X3060533Y-7896700D01*
X3000533Y-7896700D02*
G75*
G02*
X3060533Y-7896700I30000J0D01*
G01*
X3000533Y-7896700D02*
X3000533Y-8006700D01*
X3000533Y-8006700D02*
G75*
G03*
X3060533Y-8006700I30000J0D01*
G01*
X3060533Y-9311700D02*
G75*
G02*
X3000533Y-9311700I-30000J0D01*
G01*
X3000533Y-9311700D02*
G75*
G02*
X3060533Y-9311700I30000J0D01*
G01*
X3060533Y-9341700D02*
X3060533Y-9281700D01*
X3000533Y-9281700D02*
G75*
G02*
X3060533Y-9281700I30000J0D01*
G01*
X3000533Y-9281700D02*
X3000533Y-9341700D01*
X3000533Y-9341700D02*
G75*
G03*
X3060533Y-9341700I30000J0D01*
G01*
X3060533Y-9731700D02*
G75*
G02*
X3000533Y-9731700I-30000J0D01*
G01*
X3000533Y-9731700D02*
G75*
G02*
X3060533Y-9731700I30000J0D01*
G01*
X3060533Y-9786700D02*
X3060533Y-9676700D01*
X3000533Y-9676700D02*
G75*
G02*
X3060533Y-9676700I30000J0D01*
G01*
X3000533Y-9676700D02*
X3000533Y-9786700D01*
X3000533Y-9786700D02*
G75*
G03*
X3060533Y-9786700I30000J0D01*
G01*
X3920533Y-2191700D02*
G75*
G02*
X3860533Y-2191700I-30000J0D01*
G01*
X3860533Y-2191700D02*
G75*
G02*
X3920533Y-2191700I30000J0D01*
G01*
X3920533Y-2221700D02*
X3920533Y-2161700D01*
X3860533Y-2161700D02*
G75*
G02*
X3920533Y-2161700I30000J0D01*
G01*
X3860533Y-2161700D02*
X3860533Y-2221700D01*
X3860533Y-2221700D02*
G75*
G03*
X3920533Y-2221700I30000J0D01*
G01*
X3920533Y-2611700D02*
G75*
G02*
X3860533Y-2611700I-30000J0D01*
G01*
X3860533Y-2611700D02*
G75*
G02*
X3920533Y-2611700I30000J0D01*
G01*
X3920533Y-2666700D02*
X3920533Y-2556700D01*
X3860533Y-2556700D02*
G75*
G02*
X3920533Y-2556700I30000J0D01*
G01*
X3860533Y-2556700D02*
X3860533Y-2666700D01*
X3860533Y-2666700D02*
G75*
G03*
X3920533Y-2666700I30000J0D01*
G01*
X3920533Y-3971700D02*
G75*
G02*
X3860533Y-3971700I-30000J0D01*
G01*
X3860533Y-3971700D02*
G75*
G02*
X3920533Y-3971700I30000J0D01*
G01*
X3920533Y-4001700D02*
X3920533Y-3941700D01*
X3860533Y-3941700D02*
G75*
G02*
X3920533Y-3941700I30000J0D01*
G01*
X3860533Y-3941700D02*
X3860533Y-4001700D01*
X3860533Y-4001700D02*
G75*
G03*
X3920533Y-4001700I30000J0D01*
G01*
X3920533Y-4391700D02*
G75*
G02*
X3860533Y-4391700I-30000J0D01*
G01*
X3860533Y-4391700D02*
G75*
G02*
X3920533Y-4391700I30000J0D01*
G01*
X3920533Y-4446700D02*
X3920533Y-4336700D01*
X3860533Y-4336700D02*
G75*
G02*
X3920533Y-4336700I30000J0D01*
G01*
X3860533Y-4336700D02*
X3860533Y-4446700D01*
X3860533Y-4446700D02*
G75*
G03*
X3920533Y-4446700I30000J0D01*
G01*
X3920533Y-5751700D02*
G75*
G02*
X3860533Y-5751700I-30000J0D01*
G01*
X3860533Y-5751700D02*
G75*
G02*
X3920533Y-5751700I30000J0D01*
G01*
X3920533Y-5781700D02*
X3920533Y-5721700D01*
X3860533Y-5721700D02*
G75*
G02*
X3920533Y-5721700I30000J0D01*
G01*
X3860533Y-5721700D02*
X3860533Y-5781700D01*
X3860533Y-5781700D02*
G75*
G03*
X3920533Y-5781700I30000J0D01*
G01*
X3920533Y-6171700D02*
G75*
G02*
X3860533Y-6171700I-30000J0D01*
G01*
X3860533Y-6171700D02*
G75*
G02*
X3920533Y-6171700I30000J0D01*
G01*
X3920533Y-6226700D02*
X3920533Y-6116700D01*
X3860533Y-6116700D02*
G75*
G02*
X3920533Y-6116700I30000J0D01*
G01*
X3860533Y-6116700D02*
X3860533Y-6226700D01*
X3860533Y-6226700D02*
G75*
G03*
X3920533Y-6226700I30000J0D01*
G01*
X3920533Y-7531700D02*
G75*
G02*
X3860533Y-7531700I-30000J0D01*
G01*
X3860533Y-7531700D02*
G75*
G02*
X3920533Y-7531700I30000J0D01*
G01*
X3920533Y-7561700D02*
X3920533Y-7501700D01*
X3860533Y-7501700D02*
G75*
G02*
X3920533Y-7501700I30000J0D01*
G01*
X3860533Y-7501700D02*
X3860533Y-7561700D01*
X3860533Y-7561700D02*
G75*
G03*
X3920533Y-7561700I30000J0D01*
G01*
X3920533Y-7951700D02*
G75*
G02*
X3860533Y-7951700I-30000J0D01*
G01*
X3860533Y-7951700D02*
G75*
G02*
X3920533Y-7951700I30000J0D01*
G01*
X3920533Y-8006700D02*
X3920533Y-7896700D01*
X3860533Y-7896700D02*
G75*
G02*
X3920533Y-7896700I30000J0D01*
G01*
X3860533Y-7896700D02*
X3860533Y-8006700D01*
X3860533Y-8006700D02*
G75*
G03*
X3920533Y-8006700I30000J0D01*
G01*
X3920533Y-9311700D02*
G75*
G02*
X3860533Y-9311700I-30000J0D01*
G01*
X3860533Y-9311700D02*
G75*
G02*
X3920533Y-9311700I30000J0D01*
G01*
X3920533Y-9341700D02*
X3920533Y-9281700D01*
X3860533Y-9281700D02*
G75*
G02*
X3920533Y-9281700I30000J0D01*
G01*
X3860533Y-9281700D02*
X3860533Y-9341700D01*
X3860533Y-9341700D02*
G75*
G03*
X3920533Y-9341700I30000J0D01*
G01*
X3920533Y-9731700D02*
G75*
G02*
X3860533Y-9731700I-30000J0D01*
G01*
X3860533Y-9731700D02*
G75*
G02*
X3920533Y-9731700I30000J0D01*
G01*
X3920533Y-9786700D02*
X3920533Y-9676700D01*
X3860533Y-9676700D02*
G75*
G02*
X3920533Y-9676700I30000J0D01*
G01*
X3860533Y-9676700D02*
X3860533Y-9786700D01*
X3860533Y-9786700D02*
G75*
G03*
X3920533Y-9786700I30000J0D01*
G01*
X4965250Y-2192700D02*
G75*
G02*
X4905250Y-2192700I-30000J0D01*
G01*
X4905250Y-2192700D02*
G75*
G02*
X4965250Y-2192700I30000J0D01*
G01*
X4965250Y-2222700D02*
X4965250Y-2162700D01*
X4905250Y-2162700D02*
G75*
G02*
X4965250Y-2162700I30000J0D01*
G01*
X4905250Y-2162700D02*
X4905250Y-2222700D01*
X4905250Y-2222700D02*
G75*
G03*
X4965250Y-2222700I30000J0D01*
G01*
X4965250Y-2612700D02*
G75*
G02*
X4905250Y-2612700I-30000J0D01*
G01*
X4905250Y-2612700D02*
G75*
G02*
X4965250Y-2612700I30000J0D01*
G01*
X4965250Y-2667700D02*
X4965250Y-2557700D01*
X4905250Y-2557700D02*
G75*
G02*
X4965250Y-2557700I30000J0D01*
G01*
X4905250Y-2557700D02*
X4905250Y-2667700D01*
X4905250Y-2667700D02*
G75*
G03*
X4965250Y-2667700I30000J0D01*
G01*
X4965250Y-3972700D02*
G75*
G02*
X4905250Y-3972700I-30000J0D01*
G01*
X4905250Y-3972700D02*
G75*
G02*
X4965250Y-3972700I30000J0D01*
G01*
X4965250Y-4002700D02*
X4965250Y-3942700D01*
X4905250Y-3942700D02*
G75*
G02*
X4965250Y-3942700I30000J0D01*
G01*
X4905250Y-3942700D02*
X4905250Y-4002700D01*
X4905250Y-4002700D02*
G75*
G03*
X4965250Y-4002700I30000J0D01*
G01*
X4965250Y-4392700D02*
G75*
G02*
X4905250Y-4392700I-30000J0D01*
G01*
X4905250Y-4392700D02*
G75*
G02*
X4965250Y-4392700I30000J0D01*
G01*
X4965250Y-4447700D02*
X4965250Y-4337700D01*
X4905250Y-4337700D02*
G75*
G02*
X4965250Y-4337700I30000J0D01*
G01*
X4905250Y-4337700D02*
X4905250Y-4447700D01*
X4905250Y-4447700D02*
G75*
G03*
X4965250Y-4447700I30000J0D01*
G01*
X4965250Y-5752700D02*
G75*
G02*
X4905250Y-5752700I-30000J0D01*
G01*
X4905250Y-5752700D02*
G75*
G02*
X4965250Y-5752700I30000J0D01*
G01*
X4965250Y-5782700D02*
X4965250Y-5722700D01*
X4905250Y-5722700D02*
G75*
G02*
X4965250Y-5722700I30000J0D01*
G01*
X4905250Y-5722700D02*
X4905250Y-5782700D01*
X4905250Y-5782700D02*
G75*
G03*
X4965250Y-5782700I30000J0D01*
G01*
X4965250Y-6172700D02*
G75*
G02*
X4905250Y-6172700I-30000J0D01*
G01*
X4905250Y-6172700D02*
G75*
G02*
X4965250Y-6172700I30000J0D01*
G01*
X4965250Y-6227700D02*
X4965250Y-6117700D01*
X4905250Y-6117700D02*
G75*
G02*
X4965250Y-6117700I30000J0D01*
G01*
X4905250Y-6117700D02*
X4905250Y-6227700D01*
X4905250Y-6227700D02*
G75*
G03*
X4965250Y-6227700I30000J0D01*
G01*
X4965250Y-7532700D02*
G75*
G02*
X4905250Y-7532700I-30000J0D01*
G01*
X4905250Y-7532700D02*
G75*
G02*
X4965250Y-7532700I30000J0D01*
G01*
X4965250Y-7562700D02*
X4965250Y-7502700D01*
X4905250Y-7502700D02*
G75*
G02*
X4965250Y-7502700I30000J0D01*
G01*
X4905250Y-7502700D02*
X4905250Y-7562700D01*
X4905250Y-7562700D02*
G75*
G03*
X4965250Y-7562700I30000J0D01*
G01*
X4965250Y-7952700D02*
G75*
G02*
X4905250Y-7952700I-30000J0D01*
G01*
X4905250Y-7952700D02*
G75*
G02*
X4965250Y-7952700I30000J0D01*
G01*
X4965250Y-8007700D02*
X4965250Y-7897700D01*
X4905250Y-7897700D02*
G75*
G02*
X4965250Y-7897700I30000J0D01*
G01*
X4905250Y-7897700D02*
X4905250Y-8007700D01*
X4905250Y-8007700D02*
G75*
G03*
X4965250Y-8007700I30000J0D01*
G01*
X4965250Y-9312700D02*
G75*
G02*
X4905250Y-9312700I-30000J0D01*
G01*
X4905250Y-9312700D02*
G75*
G02*
X4965250Y-9312700I30000J0D01*
G01*
X4965250Y-9342700D02*
X4965250Y-9282700D01*
X4905250Y-9282700D02*
G75*
G02*
X4965250Y-9282700I30000J0D01*
G01*
X4905250Y-9282700D02*
X4905250Y-9342700D01*
X4905250Y-9342700D02*
G75*
G03*
X4965250Y-9342700I30000J0D01*
G01*
X4965250Y-9732700D02*
G75*
G02*
X4905250Y-9732700I-30000J0D01*
G01*
X4905250Y-9732700D02*
G75*
G02*
X4965250Y-9732700I30000J0D01*
G01*
X4965250Y-9787700D02*
X4965250Y-9677700D01*
X4905250Y-9677700D02*
G75*
G02*
X4965250Y-9677700I30000J0D01*
G01*
X4905250Y-9677700D02*
X4905250Y-9787700D01*
X4905250Y-9787700D02*
G75*
G03*
X4965250Y-9787700I30000J0D01*
G01*
X5825250Y-2192700D02*
G75*
G02*
X5765250Y-2192700I-30000J0D01*
G01*
X5765250Y-2192700D02*
G75*
G02*
X5825250Y-2192700I30000J0D01*
G01*
X5825250Y-2222700D02*
X5825250Y-2162700D01*
X5765250Y-2162700D02*
G75*
G02*
X5825250Y-2162700I30000J0D01*
G01*
X5765250Y-2162700D02*
X5765250Y-2222700D01*
X5765250Y-2222700D02*
G75*
G03*
X5825250Y-2222700I30000J0D01*
G01*
X5825250Y-2612700D02*
G75*
G02*
X5765250Y-2612700I-30000J0D01*
G01*
X5765250Y-2612700D02*
G75*
G02*
X5825250Y-2612700I30000J0D01*
G01*
X5825250Y-2667700D02*
X5825250Y-2557700D01*
X5765250Y-2557700D02*
G75*
G02*
X5825250Y-2557700I30000J0D01*
G01*
X5765250Y-2557700D02*
X5765250Y-2667700D01*
X5765250Y-2667700D02*
G75*
G03*
X5825250Y-2667700I30000J0D01*
G01*
X5825250Y-3972700D02*
G75*
G02*
X5765250Y-3972700I-30000J0D01*
G01*
X5765250Y-3972700D02*
G75*
G02*
X5825250Y-3972700I30000J0D01*
G01*
X5825250Y-4002700D02*
X5825250Y-3942700D01*
X5765250Y-3942700D02*
G75*
G02*
X5825250Y-3942700I30000J0D01*
G01*
X5765250Y-3942700D02*
X5765250Y-4002700D01*
X5765250Y-4002700D02*
G75*
G03*
X5825250Y-4002700I30000J0D01*
G01*
X5825250Y-4392700D02*
G75*
G02*
X5765250Y-4392700I-30000J0D01*
G01*
X5765250Y-4392700D02*
G75*
G02*
X5825250Y-4392700I30000J0D01*
G01*
X5825250Y-4447700D02*
X5825250Y-4337700D01*
X5765250Y-4337700D02*
G75*
G02*
X5825250Y-4337700I30000J0D01*
G01*
X5765250Y-4337700D02*
X5765250Y-4447700D01*
X5765250Y-4447700D02*
G75*
G03*
X5825250Y-4447700I30000J0D01*
G01*
X5825250Y-5752700D02*
G75*
G02*
X5765250Y-5752700I-30000J0D01*
G01*
X5765250Y-5752700D02*
G75*
G02*
X5825250Y-5752700I30000J0D01*
G01*
X5825250Y-5782700D02*
X5825250Y-5722700D01*
X5765250Y-5722700D02*
G75*
G02*
X5825250Y-5722700I30000J0D01*
G01*
X5765250Y-5722700D02*
X5765250Y-5782700D01*
X5765250Y-5782700D02*
G75*
G03*
X5825250Y-5782700I30000J0D01*
G01*
X5825250Y-6172700D02*
G75*
G02*
X5765250Y-6172700I-30000J0D01*
G01*
X5765250Y-6172700D02*
G75*
G02*
X5825250Y-6172700I30000J0D01*
G01*
X5825250Y-6227700D02*
X5825250Y-6117700D01*
X5765250Y-6117700D02*
G75*
G02*
X5825250Y-6117700I30000J0D01*
G01*
X5765250Y-6117700D02*
X5765250Y-6227700D01*
X5765250Y-6227700D02*
G75*
G03*
X5825250Y-6227700I30000J0D01*
G01*
X5825250Y-7532700D02*
G75*
G02*
X5765250Y-7532700I-30000J0D01*
G01*
X5765250Y-7532700D02*
G75*
G02*
X5825250Y-7532700I30000J0D01*
G01*
X5825250Y-7562700D02*
X5825250Y-7502700D01*
X5765250Y-7502700D02*
G75*
G02*
X5825250Y-7502700I30000J0D01*
G01*
X5765250Y-7502700D02*
X5765250Y-7562700D01*
X5765250Y-7562700D02*
G75*
G03*
X5825250Y-7562700I30000J0D01*
G01*
X5825250Y-7952700D02*
G75*
G02*
X5765250Y-7952700I-30000J0D01*
G01*
X5765250Y-7952700D02*
G75*
G02*
X5825250Y-7952700I30000J0D01*
G01*
X5825250Y-8007700D02*
X5825250Y-7897700D01*
X5765250Y-7897700D02*
G75*
G02*
X5825250Y-7897700I30000J0D01*
G01*
X5765250Y-7897700D02*
X5765250Y-8007700D01*
X5765250Y-8007700D02*
G75*
G03*
X5825250Y-8007700I30000J0D01*
G01*
X5825250Y-9312700D02*
G75*
G02*
X5765250Y-9312700I-30000J0D01*
G01*
X5765250Y-9312700D02*
G75*
G02*
X5825250Y-9312700I30000J0D01*
G01*
X5825250Y-9342700D02*
X5825250Y-9282700D01*
X5765250Y-9282700D02*
G75*
G02*
X5825250Y-9282700I30000J0D01*
G01*
X5765250Y-9282700D02*
X5765250Y-9342700D01*
X5765250Y-9342700D02*
G75*
G03*
X5825250Y-9342700I30000J0D01*
G01*
X5825250Y-9732700D02*
G75*
G02*
X5765250Y-9732700I-30000J0D01*
G01*
X5765250Y-9732700D02*
G75*
G02*
X5825250Y-9732700I30000J0D01*
G01*
X5825250Y-9787700D02*
X5825250Y-9677700D01*
X5765250Y-9677700D02*
G75*
G02*
X5825250Y-9677700I30000J0D01*
G01*
X5765250Y-9677700D02*
X5765250Y-9787700D01*
X5765250Y-9787700D02*
G75*
G03*
X5825250Y-9787700I30000J0D01*
G01*
X6869967Y-2193700D02*
G75*
G02*
X6809967Y-2193700I-30000J0D01*
G01*
X6809967Y-2193700D02*
G75*
G02*
X6869967Y-2193700I30000J0D01*
G01*
X6869967Y-2223700D02*
X6869967Y-2163700D01*
X6809967Y-2163700D02*
G75*
G02*
X6869967Y-2163700I30000J0D01*
G01*
X6809967Y-2163700D02*
X6809967Y-2223700D01*
X6809967Y-2223700D02*
G75*
G03*
X6869967Y-2223700I30000J0D01*
G01*
X6869967Y-2613700D02*
G75*
G02*
X6809967Y-2613700I-30000J0D01*
G01*
X6809967Y-2613700D02*
G75*
G02*
X6869967Y-2613700I30000J0D01*
G01*
X6869967Y-2668700D02*
X6869967Y-2558700D01*
X6809967Y-2558700D02*
G75*
G02*
X6869967Y-2558700I30000J0D01*
G01*
X6809967Y-2558700D02*
X6809967Y-2668700D01*
X6809967Y-2668700D02*
G75*
G03*
X6869967Y-2668700I30000J0D01*
G01*
X6869967Y-3973700D02*
G75*
G02*
X6809967Y-3973700I-30000J0D01*
G01*
X6809967Y-3973700D02*
G75*
G02*
X6869967Y-3973700I30000J0D01*
G01*
X6869967Y-4003700D02*
X6869967Y-3943700D01*
X6809967Y-3943700D02*
G75*
G02*
X6869967Y-3943700I30000J0D01*
G01*
X6809967Y-3943700D02*
X6809967Y-4003700D01*
X6809967Y-4003700D02*
G75*
G03*
X6869967Y-4003700I30000J0D01*
G01*
X6869967Y-4393700D02*
G75*
G02*
X6809967Y-4393700I-30000J0D01*
G01*
X6809967Y-4393700D02*
G75*
G02*
X6869967Y-4393700I30000J0D01*
G01*
X6869967Y-4448700D02*
X6869967Y-4338700D01*
X6809967Y-4338700D02*
G75*
G02*
X6869967Y-4338700I30000J0D01*
G01*
X6809967Y-4338700D02*
X6809967Y-4448700D01*
X6809967Y-4448700D02*
G75*
G03*
X6869967Y-4448700I30000J0D01*
G01*
X6869967Y-5753700D02*
G75*
G02*
X6809967Y-5753700I-30000J0D01*
G01*
X6809967Y-5753700D02*
G75*
G02*
X6869967Y-5753700I30000J0D01*
G01*
X6869967Y-5783700D02*
X6869967Y-5723700D01*
X6809967Y-5723700D02*
G75*
G02*
X6869967Y-5723700I30000J0D01*
G01*
X6809967Y-5723700D02*
X6809967Y-5783700D01*
X6809967Y-5783700D02*
G75*
G03*
X6869967Y-5783700I30000J0D01*
G01*
X6869967Y-6173700D02*
G75*
G02*
X6809967Y-6173700I-30000J0D01*
G01*
X6809967Y-6173700D02*
G75*
G02*
X6869967Y-6173700I30000J0D01*
G01*
X6869967Y-6228700D02*
X6869967Y-6118700D01*
X6809967Y-6118700D02*
G75*
G02*
X6869967Y-6118700I30000J0D01*
G01*
X6809967Y-6118700D02*
X6809967Y-6228700D01*
X6809967Y-6228700D02*
G75*
G03*
X6869967Y-6228700I30000J0D01*
G01*
X6869967Y-7533700D02*
G75*
G02*
X6809967Y-7533700I-30000J0D01*
G01*
X6809967Y-7533700D02*
G75*
G02*
X6869967Y-7533700I30000J0D01*
G01*
X6869967Y-7563700D02*
X6869967Y-7503700D01*
X6809967Y-7503700D02*
G75*
G02*
X6869967Y-7503700I30000J0D01*
G01*
X6809967Y-7503700D02*
X6809967Y-7563700D01*
X6809967Y-7563700D02*
G75*
G03*
X6869967Y-7563700I30000J0D01*
G01*
X6869967Y-7953700D02*
G75*
G02*
X6809967Y-7953700I-30000J0D01*
G01*
X6809967Y-7953700D02*
G75*
G02*
X6869967Y-7953700I30000J0D01*
G01*
X6869967Y-8008700D02*
X6869967Y-7898700D01*
X6809967Y-7898700D02*
G75*
G02*
X6869967Y-7898700I30000J0D01*
G01*
X6809967Y-7898700D02*
X6809967Y-8008700D01*
X6809967Y-8008700D02*
G75*
G03*
X6869967Y-8008700I30000J0D01*
G01*
X6869967Y-9313700D02*
G75*
G02*
X6809967Y-9313700I-30000J0D01*
G01*
X6809967Y-9313700D02*
G75*
G02*
X6869967Y-9313700I30000J0D01*
G01*
X6869967Y-9343700D02*
X6869967Y-9283700D01*
X6809967Y-9283700D02*
G75*
G02*
X6869967Y-9283700I30000J0D01*
G01*
X6809967Y-9283700D02*
X6809967Y-9343700D01*
X6809967Y-9343700D02*
G75*
G03*
X6869967Y-9343700I30000J0D01*
G01*
X6869967Y-9733700D02*
G75*
G02*
X6809967Y-9733700I-30000J0D01*
G01*
X6809967Y-9733700D02*
G75*
G02*
X6869967Y-9733700I30000J0D01*
G01*
X6869967Y-9788700D02*
X6869967Y-9678700D01*
X6809967Y-9678700D02*
G75*
G02*
X6869967Y-9678700I30000J0D01*
G01*
X6809967Y-9678700D02*
X6809967Y-9788700D01*
X6809967Y-9788700D02*
G75*
G03*
X6869967Y-9788700I30000J0D01*
G01*
X7729967Y-2193700D02*
G75*
G02*
X7669967Y-2193700I-30000J0D01*
G01*
X7669967Y-2193700D02*
G75*
G02*
X7729967Y-2193700I30000J0D01*
G01*
X7729967Y-2223700D02*
X7729967Y-2163700D01*
X7669967Y-2163700D02*
G75*
G02*
X7729967Y-2163700I30000J0D01*
G01*
X7669967Y-2163700D02*
X7669967Y-2223700D01*
X7669967Y-2223700D02*
G75*
G03*
X7729967Y-2223700I30000J0D01*
G01*
X7729967Y-2613700D02*
G75*
G02*
X7669967Y-2613700I-30000J0D01*
G01*
X7669967Y-2613700D02*
G75*
G02*
X7729967Y-2613700I30000J0D01*
G01*
X7729967Y-2668700D02*
X7729967Y-2558700D01*
X7669967Y-2558700D02*
G75*
G02*
X7729967Y-2558700I30000J0D01*
G01*
X7669967Y-2558700D02*
X7669967Y-2668700D01*
X7669967Y-2668700D02*
G75*
G03*
X7729967Y-2668700I30000J0D01*
G01*
X7729967Y-3973700D02*
G75*
G02*
X7669967Y-3973700I-30000J0D01*
G01*
X7669967Y-3973700D02*
G75*
G02*
X7729967Y-3973700I30000J0D01*
G01*
X7729967Y-4003700D02*
X7729967Y-3943700D01*
X7669967Y-3943700D02*
G75*
G02*
X7729967Y-3943700I30000J0D01*
G01*
X7669967Y-3943700D02*
X7669967Y-4003700D01*
X7669967Y-4003700D02*
G75*
G03*
X7729967Y-4003700I30000J0D01*
G01*
X7729967Y-4393700D02*
G75*
G02*
X7669967Y-4393700I-30000J0D01*
G01*
X7669967Y-4393700D02*
G75*
G02*
X7729967Y-4393700I30000J0D01*
G01*
X7729967Y-4448700D02*
X7729967Y-4338700D01*
X7669967Y-4338700D02*
G75*
G02*
X7729967Y-4338700I30000J0D01*
G01*
X7669967Y-4338700D02*
X7669967Y-4448700D01*
X7669967Y-4448700D02*
G75*
G03*
X7729967Y-4448700I30000J0D01*
G01*
X7729967Y-5753700D02*
G75*
G02*
X7669967Y-5753700I-30000J0D01*
G01*
X7669967Y-5753700D02*
G75*
G02*
X7729967Y-5753700I30000J0D01*
G01*
X7729967Y-5783700D02*
X7729967Y-5723700D01*
X7669967Y-5723700D02*
G75*
G02*
X7729967Y-5723700I30000J0D01*
G01*
X7669967Y-5723700D02*
X7669967Y-5783700D01*
X7669967Y-5783700D02*
G75*
G03*
X7729967Y-5783700I30000J0D01*
G01*
X7729967Y-6173700D02*
G75*
G02*
X7669967Y-6173700I-30000J0D01*
G01*
X7669967Y-6173700D02*
G75*
G02*
X7729967Y-6173700I30000J0D01*
G01*
X7729967Y-6228700D02*
X7729967Y-6118700D01*
X7669967Y-6118700D02*
G75*
G02*
X7729967Y-6118700I30000J0D01*
G01*
X7669967Y-6118700D02*
X7669967Y-6228700D01*
X7669967Y-6228700D02*
G75*
G03*
X7729967Y-6228700I30000J0D01*
G01*
X7729967Y-7533700D02*
G75*
G02*
X7669967Y-7533700I-30000J0D01*
G01*
X7669967Y-7533700D02*
G75*
G02*
X7729967Y-7533700I30000J0D01*
G01*
X7729967Y-7563700D02*
X7729967Y-7503700D01*
X7669967Y-7503700D02*
G75*
G02*
X7729967Y-7503700I30000J0D01*
G01*
X7669967Y-7503700D02*
X7669967Y-7563700D01*
X7669967Y-7563700D02*
G75*
G03*
X7729967Y-7563700I30000J0D01*
G01*
X7729967Y-7953700D02*
G75*
G02*
X7669967Y-7953700I-30000J0D01*
G01*
X7669967Y-7953700D02*
G75*
G02*
X7729967Y-7953700I30000J0D01*
G01*
X7729967Y-8008700D02*
X7729967Y-7898700D01*
X7669967Y-7898700D02*
G75*
G02*
X7729967Y-7898700I30000J0D01*
G01*
X7669967Y-7898700D02*
X7669967Y-8008700D01*
X7669967Y-8008700D02*
G75*
G03*
X7729967Y-8008700I30000J0D01*
G01*
X7729967Y-9313700D02*
G75*
G02*
X7669967Y-9313700I-30000J0D01*
G01*
X7669967Y-9313700D02*
G75*
G02*
X7729967Y-9313700I30000J0D01*
G01*
X7729967Y-9343700D02*
X7729967Y-9283700D01*
X7669967Y-9283700D02*
G75*
G02*
X7729967Y-9283700I30000J0D01*
G01*
X7669967Y-9283700D02*
X7669967Y-9343700D01*
X7669967Y-9343700D02*
G75*
G03*
X7729967Y-9343700I30000J0D01*
G01*
X7729967Y-9733700D02*
G75*
G02*
X7669967Y-9733700I-30000J0D01*
G01*
X7669967Y-9733700D02*
G75*
G02*
X7729967Y-9733700I30000J0D01*
G01*
X7729967Y-9788700D02*
X7729967Y-9678700D01*
X7669967Y-9678700D02*
G75*
G02*
X7729967Y-9678700I30000J0D01*
G01*
X7669967Y-9678700D02*
X7669967Y-9788700D01*
X7669967Y-9788700D02*
G75*
G03*
X7729967Y-9788700I30000J0D01*
G01*
X8774684Y-2194700D02*
G75*
G02*
X8714684Y-2194700I-30000J0D01*
G01*
X8714684Y-2194700D02*
G75*
G02*
X8774684Y-2194700I30000J0D01*
G01*
X8774684Y-2224700D02*
X8774684Y-2164700D01*
X8714684Y-2164700D02*
G75*
G02*
X8774684Y-2164700I30000J0D01*
G01*
X8714684Y-2164700D02*
X8714684Y-2224700D01*
X8714684Y-2224700D02*
G75*
G03*
X8774684Y-2224700I30000J0D01*
G01*
X8774684Y-2614700D02*
G75*
G02*
X8714684Y-2614700I-30000J0D01*
G01*
X8714684Y-2614700D02*
G75*
G02*
X8774684Y-2614700I30000J0D01*
G01*
X8774684Y-2669700D02*
X8774684Y-2559700D01*
X8714684Y-2559700D02*
G75*
G02*
X8774684Y-2559700I30000J0D01*
G01*
X8714684Y-2559700D02*
X8714684Y-2669700D01*
X8714684Y-2669700D02*
G75*
G03*
X8774684Y-2669700I30000J0D01*
G01*
X8774684Y-3974700D02*
G75*
G02*
X8714684Y-3974700I-30000J0D01*
G01*
X8714684Y-3974700D02*
G75*
G02*
X8774684Y-3974700I30000J0D01*
G01*
X8774684Y-4004700D02*
X8774684Y-3944700D01*
X8714684Y-3944700D02*
G75*
G02*
X8774684Y-3944700I30000J0D01*
G01*
X8714684Y-3944700D02*
X8714684Y-4004700D01*
X8714684Y-4004700D02*
G75*
G03*
X8774684Y-4004700I30000J0D01*
G01*
X8774684Y-4394700D02*
G75*
G02*
X8714684Y-4394700I-30000J0D01*
G01*
X8714684Y-4394700D02*
G75*
G02*
X8774684Y-4394700I30000J0D01*
G01*
X8774684Y-4449700D02*
X8774684Y-4339700D01*
X8714684Y-4339700D02*
G75*
G02*
X8774684Y-4339700I30000J0D01*
G01*
X8714684Y-4339700D02*
X8714684Y-4449700D01*
X8714684Y-4449700D02*
G75*
G03*
X8774684Y-4449700I30000J0D01*
G01*
X8774684Y-5754700D02*
G75*
G02*
X8714684Y-5754700I-30000J0D01*
G01*
X8714684Y-5754700D02*
G75*
G02*
X8774684Y-5754700I30000J0D01*
G01*
X8774684Y-5784700D02*
X8774684Y-5724700D01*
X8714684Y-5724700D02*
G75*
G02*
X8774684Y-5724700I30000J0D01*
G01*
X8714684Y-5724700D02*
X8714684Y-5784700D01*
X8714684Y-5784700D02*
G75*
G03*
X8774684Y-5784700I30000J0D01*
G01*
X8774684Y-6174700D02*
G75*
G02*
X8714684Y-6174700I-30000J0D01*
G01*
X8714684Y-6174700D02*
G75*
G02*
X8774684Y-6174700I30000J0D01*
G01*
X8774684Y-6229700D02*
X8774684Y-6119700D01*
X8714684Y-6119700D02*
G75*
G02*
X8774684Y-6119700I30000J0D01*
G01*
X8714684Y-6119700D02*
X8714684Y-6229700D01*
X8714684Y-6229700D02*
G75*
G03*
X8774684Y-6229700I30000J0D01*
G01*
X8774684Y-7534700D02*
G75*
G02*
X8714684Y-7534700I-30000J0D01*
G01*
X8714684Y-7534700D02*
G75*
G02*
X8774684Y-7534700I30000J0D01*
G01*
X8774684Y-7564700D02*
X8774684Y-7504700D01*
X8714684Y-7504700D02*
G75*
G02*
X8774684Y-7504700I30000J0D01*
G01*
X8714684Y-7504700D02*
X8714684Y-7564700D01*
X8714684Y-7564700D02*
G75*
G03*
X8774684Y-7564700I30000J0D01*
G01*
X8774684Y-7954700D02*
G75*
G02*
X8714684Y-7954700I-30000J0D01*
G01*
X8714684Y-7954700D02*
G75*
G02*
X8774684Y-7954700I30000J0D01*
G01*
X8774684Y-8009700D02*
X8774684Y-7899700D01*
X8714684Y-7899700D02*
G75*
G02*
X8774684Y-7899700I30000J0D01*
G01*
X8714684Y-7899700D02*
X8714684Y-8009700D01*
X8714684Y-8009700D02*
G75*
G03*
X8774684Y-8009700I30000J0D01*
G01*
X8774684Y-9314700D02*
G75*
G02*
X8714684Y-9314700I-30000J0D01*
G01*
X8714684Y-9314700D02*
G75*
G02*
X8774684Y-9314700I30000J0D01*
G01*
X8774684Y-9344700D02*
X8774684Y-9284700D01*
X8714684Y-9284700D02*
G75*
G02*
X8774684Y-9284700I30000J0D01*
G01*
X8714684Y-9284700D02*
X8714684Y-9344700D01*
X8714684Y-9344700D02*
G75*
G03*
X8774684Y-9344700I30000J0D01*
G01*
X8774684Y-9734700D02*
G75*
G02*
X8714684Y-9734700I-30000J0D01*
G01*
X8714684Y-9734700D02*
G75*
G02*
X8774684Y-9734700I30000J0D01*
G01*
X8774684Y-9789700D02*
X8774684Y-9679700D01*
X8714684Y-9679700D02*
G75*
G02*
X8774684Y-9679700I30000J0D01*
G01*
X8714684Y-9679700D02*
X8714684Y-9789700D01*
X8714684Y-9789700D02*
G75*
G03*
X8774684Y-9789700I30000J0D01*
G01*
X9634684Y-2194700D02*
G75*
G02*
X9574684Y-2194700I-30000J0D01*
G01*
X9574684Y-2194700D02*
G75*
G02*
X9634684Y-2194700I30000J0D01*
G01*
X9634684Y-2224700D02*
X9634684Y-2164700D01*
X9574684Y-2164700D02*
G75*
G02*
X9634684Y-2164700I30000J0D01*
G01*
X9574684Y-2164700D02*
X9574684Y-2224700D01*
X9574684Y-2224700D02*
G75*
G03*
X9634684Y-2224700I30000J0D01*
G01*
X9634684Y-2614700D02*
G75*
G02*
X9574684Y-2614700I-30000J0D01*
G01*
X9574684Y-2614700D02*
G75*
G02*
X9634684Y-2614700I30000J0D01*
G01*
X9634684Y-2669700D02*
X9634684Y-2559700D01*
X9574684Y-2559700D02*
G75*
G02*
X9634684Y-2559700I30000J0D01*
G01*
X9574684Y-2559700D02*
X9574684Y-2669700D01*
X9574684Y-2669700D02*
G75*
G03*
X9634684Y-2669700I30000J0D01*
G01*
X9634684Y-3974700D02*
G75*
G02*
X9574684Y-3974700I-30000J0D01*
G01*
X9574684Y-3974700D02*
G75*
G02*
X9634684Y-3974700I30000J0D01*
G01*
X9634684Y-4004700D02*
X9634684Y-3944700D01*
X9574684Y-3944700D02*
G75*
G02*
X9634684Y-3944700I30000J0D01*
G01*
X9574684Y-3944700D02*
X9574684Y-4004700D01*
X9574684Y-4004700D02*
G75*
G03*
X9634684Y-4004700I30000J0D01*
G01*
X9634684Y-4394700D02*
G75*
G02*
X9574684Y-4394700I-30000J0D01*
G01*
X9574684Y-4394700D02*
G75*
G02*
X9634684Y-4394700I30000J0D01*
G01*
X9634684Y-4449700D02*
X9634684Y-4339700D01*
X9574684Y-4339700D02*
G75*
G02*
X9634684Y-4339700I30000J0D01*
G01*
X9574684Y-4339700D02*
X9574684Y-4449700D01*
X9574684Y-4449700D02*
G75*
G03*
X9634684Y-4449700I30000J0D01*
G01*
X9634684Y-5754700D02*
G75*
G02*
X9574684Y-5754700I-30000J0D01*
G01*
X9574684Y-5754700D02*
G75*
G02*
X9634684Y-5754700I30000J0D01*
G01*
X9634684Y-5784700D02*
X9634684Y-5724700D01*
X9574684Y-5724700D02*
G75*
G02*
X9634684Y-5724700I30000J0D01*
G01*
X9574684Y-5724700D02*
X9574684Y-5784700D01*
X9574684Y-5784700D02*
G75*
G03*
X9634684Y-5784700I30000J0D01*
G01*
X9634684Y-6174700D02*
G75*
G02*
X9574684Y-6174700I-30000J0D01*
G01*
X9574684Y-6174700D02*
G75*
G02*
X9634684Y-6174700I30000J0D01*
G01*
X9634684Y-6229700D02*
X9634684Y-6119700D01*
X9574684Y-6119700D02*
G75*
G02*
X9634684Y-6119700I30000J0D01*
G01*
X9574684Y-6119700D02*
X9574684Y-6229700D01*
X9574684Y-6229700D02*
G75*
G03*
X9634684Y-6229700I30000J0D01*
G01*
X9634684Y-7534700D02*
G75*
G02*
X9574684Y-7534700I-30000J0D01*
G01*
X9574684Y-7534700D02*
G75*
G02*
X9634684Y-7534700I30000J0D01*
G01*
X9634684Y-7564700D02*
X9634684Y-7504700D01*
X9574684Y-7504700D02*
G75*
G02*
X9634684Y-7504700I30000J0D01*
G01*
X9574684Y-7504700D02*
X9574684Y-7564700D01*
X9574684Y-7564700D02*
G75*
G03*
X9634684Y-7564700I30000J0D01*
G01*
X9634684Y-7954700D02*
G75*
G02*
X9574684Y-7954700I-30000J0D01*
G01*
X9574684Y-7954700D02*
G75*
G02*
X9634684Y-7954700I30000J0D01*
G01*
X9634684Y-8009700D02*
X9634684Y-7899700D01*
X9574684Y-7899700D02*
G75*
G02*
X9634684Y-7899700I30000J0D01*
G01*
X9574684Y-7899700D02*
X9574684Y-8009700D01*
X9574684Y-8009700D02*
G75*
G03*
X9634684Y-8009700I30000J0D01*
G01*
X9634684Y-9314700D02*
G75*
G02*
X9574684Y-9314700I-30000J0D01*
G01*
X9574684Y-9314700D02*
G75*
G02*
X9634684Y-9314700I30000J0D01*
G01*
X9634684Y-9344700D02*
X9634684Y-9284700D01*
X9574684Y-9284700D02*
G75*
G02*
X9634684Y-9284700I30000J0D01*
G01*
X9574684Y-9284700D02*
X9574684Y-9344700D01*
X9574684Y-9344700D02*
G75*
G03*
X9634684Y-9344700I30000J0D01*
G01*
X9634684Y-9734700D02*
G75*
G02*
X9574684Y-9734700I-30000J0D01*
G01*
X9574684Y-9734700D02*
G75*
G02*
X9634684Y-9734700I30000J0D01*
G01*
X9634684Y-9789700D02*
X9634684Y-9679700D01*
X9574684Y-9679700D02*
G75*
G02*
X9634684Y-9679700I30000J0D01*
G01*
X9574684Y-9679700D02*
X9574684Y-9789700D01*
X9574684Y-9789700D02*
G75*
G03*
X9634684Y-9789700I30000J0D01*
G01*
X10679401Y-2195700D02*
G75*
G02*
X10619401Y-2195700I-30000J0D01*
G01*
X10619401Y-2195700D02*
G75*
G02*
X10679401Y-2195700I30000J0D01*
G01*
X10679401Y-2225700D02*
X10679401Y-2165700D01*
X10619401Y-2165700D02*
G75*
G02*
X10679401Y-2165700I30000J0D01*
G01*
X10619401Y-2165700D02*
X10619401Y-2225700D01*
X10619401Y-2225700D02*
G75*
G03*
X10679401Y-2225700I30000J0D01*
G01*
X10679401Y-2615700D02*
G75*
G02*
X10619401Y-2615700I-30000J0D01*
G01*
X10619401Y-2615700D02*
G75*
G02*
X10679401Y-2615700I30000J0D01*
G01*
X10679401Y-2670700D02*
X10679401Y-2560700D01*
X10619401Y-2560700D02*
G75*
G02*
X10679401Y-2560700I30000J0D01*
G01*
X10619401Y-2560700D02*
X10619401Y-2670700D01*
X10619401Y-2670700D02*
G75*
G03*
X10679401Y-2670700I30000J0D01*
G01*
X10679401Y-3975700D02*
G75*
G02*
X10619401Y-3975700I-30000J0D01*
G01*
X10619401Y-3975700D02*
G75*
G02*
X10679401Y-3975700I30000J0D01*
G01*
X10679401Y-4005700D02*
X10679401Y-3945700D01*
X10619401Y-3945700D02*
G75*
G02*
X10679401Y-3945700I30000J0D01*
G01*
X10619401Y-3945700D02*
X10619401Y-4005700D01*
X10619401Y-4005700D02*
G75*
G03*
X10679401Y-4005700I30000J0D01*
G01*
X10679401Y-4395700D02*
G75*
G02*
X10619401Y-4395700I-30000J0D01*
G01*
X10619401Y-4395700D02*
G75*
G02*
X10679401Y-4395700I30000J0D01*
G01*
X10679401Y-4450700D02*
X10679401Y-4340700D01*
X10619401Y-4340700D02*
G75*
G02*
X10679401Y-4340700I30000J0D01*
G01*
X10619401Y-4340700D02*
X10619401Y-4450700D01*
X10619401Y-4450700D02*
G75*
G03*
X10679401Y-4450700I30000J0D01*
G01*
X10679401Y-5755700D02*
G75*
G02*
X10619401Y-5755700I-30000J0D01*
G01*
X10619401Y-5755700D02*
G75*
G02*
X10679401Y-5755700I30000J0D01*
G01*
X10679401Y-5785700D02*
X10679401Y-5725700D01*
X10619401Y-5725700D02*
G75*
G02*
X10679401Y-5725700I30000J0D01*
G01*
X10619401Y-5725700D02*
X10619401Y-5785700D01*
X10619401Y-5785700D02*
G75*
G03*
X10679401Y-5785700I30000J0D01*
G01*
X10679401Y-6175700D02*
G75*
G02*
X10619401Y-6175700I-30000J0D01*
G01*
X10619401Y-6175700D02*
G75*
G02*
X10679401Y-6175700I30000J0D01*
G01*
X10679401Y-6230700D02*
X10679401Y-6120700D01*
X10619401Y-6120700D02*
G75*
G02*
X10679401Y-6120700I30000J0D01*
G01*
X10619401Y-6120700D02*
X10619401Y-6230700D01*
X10619401Y-6230700D02*
G75*
G03*
X10679401Y-6230700I30000J0D01*
G01*
X10679401Y-7535700D02*
G75*
G02*
X10619401Y-7535700I-30000J0D01*
G01*
X10619401Y-7535700D02*
G75*
G02*
X10679401Y-7535700I30000J0D01*
G01*
X10679401Y-7565700D02*
X10679401Y-7505700D01*
X10619401Y-7505700D02*
G75*
G02*
X10679401Y-7505700I30000J0D01*
G01*
X10619401Y-7505700D02*
X10619401Y-7565700D01*
X10619401Y-7565700D02*
G75*
G03*
X10679401Y-7565700I30000J0D01*
G01*
X10679401Y-7955700D02*
G75*
G02*
X10619401Y-7955700I-30000J0D01*
G01*
X10619401Y-7955700D02*
G75*
G02*
X10679401Y-7955700I30000J0D01*
G01*
X10679401Y-8010700D02*
X10679401Y-7900700D01*
X10619401Y-7900700D02*
G75*
G02*
X10679401Y-7900700I30000J0D01*
G01*
X10619401Y-7900700D02*
X10619401Y-8010700D01*
X10619401Y-8010700D02*
G75*
G03*
X10679401Y-8010700I30000J0D01*
G01*
X10679401Y-9315700D02*
G75*
G02*
X10619401Y-9315700I-30000J0D01*
G01*
X10619401Y-9315700D02*
G75*
G02*
X10679401Y-9315700I30000J0D01*
G01*
X10679401Y-9345700D02*
X10679401Y-9285700D01*
X10619401Y-9285700D02*
G75*
G02*
X10679401Y-9285700I30000J0D01*
G01*
X10619401Y-9285700D02*
X10619401Y-9345700D01*
X10619401Y-9345700D02*
G75*
G03*
X10679401Y-9345700I30000J0D01*
G01*
X10679401Y-9735700D02*
G75*
G02*
X10619401Y-9735700I-30000J0D01*
G01*
X10619401Y-9735700D02*
G75*
G02*
X10679401Y-9735700I30000J0D01*
G01*
X10679401Y-9790700D02*
X10679401Y-9680700D01*
X10619401Y-9680700D02*
G75*
G02*
X10679401Y-9680700I30000J0D01*
G01*
X10619401Y-9680700D02*
X10619401Y-9790700D01*
X10619401Y-9790700D02*
G75*
G03*
X10679401Y-9790700I30000J0D01*
G01*
X11539401Y-2195700D02*
G75*
G02*
X11479401Y-2195700I-30000J0D01*
G01*
X11479401Y-2195700D02*
G75*
G02*
X11539401Y-2195700I30000J0D01*
G01*
X11539401Y-2225700D02*
X11539401Y-2165700D01*
X11479401Y-2165700D02*
G75*
G02*
X11539401Y-2165700I30000J0D01*
G01*
X11479401Y-2165700D02*
X11479401Y-2225700D01*
X11479401Y-2225700D02*
G75*
G03*
X11539401Y-2225700I30000J0D01*
G01*
X11539401Y-2615700D02*
G75*
G02*
X11479401Y-2615700I-30000J0D01*
G01*
X11479401Y-2615700D02*
G75*
G02*
X11539401Y-2615700I30000J0D01*
G01*
X11539401Y-2670700D02*
X11539401Y-2560700D01*
X11479401Y-2560700D02*
G75*
G02*
X11539401Y-2560700I30000J0D01*
G01*
X11479401Y-2560700D02*
X11479401Y-2670700D01*
X11479401Y-2670700D02*
G75*
G03*
X11539401Y-2670700I30000J0D01*
G01*
X11539401Y-3975700D02*
G75*
G02*
X11479401Y-3975700I-30000J0D01*
G01*
X11479401Y-3975700D02*
G75*
G02*
X11539401Y-3975700I30000J0D01*
G01*
X11539401Y-4005700D02*
X11539401Y-3945700D01*
X11479401Y-3945700D02*
G75*
G02*
X11539401Y-3945700I30000J0D01*
G01*
X11479401Y-3945700D02*
X11479401Y-4005700D01*
X11479401Y-4005700D02*
G75*
G03*
X11539401Y-4005700I30000J0D01*
G01*
X11539401Y-4395700D02*
G75*
G02*
X11479401Y-4395700I-30000J0D01*
G01*
X11479401Y-4395700D02*
G75*
G02*
X11539401Y-4395700I30000J0D01*
G01*
X11539401Y-4450700D02*
X11539401Y-4340700D01*
X11479401Y-4340700D02*
G75*
G02*
X11539401Y-4340700I30000J0D01*
G01*
X11479401Y-4340700D02*
X11479401Y-4450700D01*
X11479401Y-4450700D02*
G75*
G03*
X11539401Y-4450700I30000J0D01*
G01*
X11539401Y-5755700D02*
G75*
G02*
X11479401Y-5755700I-30000J0D01*
G01*
X11479401Y-5755700D02*
G75*
G02*
X11539401Y-5755700I30000J0D01*
G01*
X11539401Y-5785700D02*
X11539401Y-5725700D01*
X11479401Y-5725700D02*
G75*
G02*
X11539401Y-5725700I30000J0D01*
G01*
X11479401Y-5725700D02*
X11479401Y-5785700D01*
X11479401Y-5785700D02*
G75*
G03*
X11539401Y-5785700I30000J0D01*
G01*
X11539401Y-6175700D02*
G75*
G02*
X11479401Y-6175700I-30000J0D01*
G01*
X11479401Y-6175700D02*
G75*
G02*
X11539401Y-6175700I30000J0D01*
G01*
X11539401Y-6230700D02*
X11539401Y-6120700D01*
X11479401Y-6120700D02*
G75*
G02*
X11539401Y-6120700I30000J0D01*
G01*
X11479401Y-6120700D02*
X11479401Y-6230700D01*
X11479401Y-6230700D02*
G75*
G03*
X11539401Y-6230700I30000J0D01*
G01*
X11539401Y-7535700D02*
G75*
G02*
X11479401Y-7535700I-30000J0D01*
G01*
X11479401Y-7535700D02*
G75*
G02*
X11539401Y-7535700I30000J0D01*
G01*
X11539401Y-7565700D02*
X11539401Y-7505700D01*
X11479401Y-7505700D02*
G75*
G02*
X11539401Y-7505700I30000J0D01*
G01*
X11479401Y-7505700D02*
X11479401Y-7565700D01*
X11479401Y-7565700D02*
G75*
G03*
X11539401Y-7565700I30000J0D01*
G01*
X11539401Y-7955700D02*
G75*
G02*
X11479401Y-7955700I-30000J0D01*
G01*
X11479401Y-7955700D02*
G75*
G02*
X11539401Y-7955700I30000J0D01*
G01*
X11539401Y-8010700D02*
X11539401Y-7900700D01*
X11479401Y-7900700D02*
G75*
G02*
X11539401Y-7900700I30000J0D01*
G01*
X11479401Y-7900700D02*
X11479401Y-8010700D01*
X11479401Y-8010700D02*
G75*
G03*
X11539401Y-8010700I30000J0D01*
G01*
X11539401Y-9315700D02*
G75*
G02*
X11479401Y-9315700I-30000J0D01*
G01*
X11479401Y-9315700D02*
G75*
G02*
X11539401Y-9315700I30000J0D01*
G01*
X11539401Y-9345700D02*
X11539401Y-9285700D01*
X11479401Y-9285700D02*
G75*
G02*
X11539401Y-9285700I30000J0D01*
G01*
X11479401Y-9285700D02*
X11479401Y-9345700D01*
X11479401Y-9345700D02*
G75*
G03*
X11539401Y-9345700I30000J0D01*
G01*
X11539401Y-9735700D02*
G75*
G02*
X11479401Y-9735700I-30000J0D01*
G01*
X11479401Y-9735700D02*
G75*
G02*
X11539401Y-9735700I30000J0D01*
G01*
X11539401Y-9790700D02*
X11539401Y-9680700D01*
X11479401Y-9680700D02*
G75*
G02*
X11539401Y-9680700I30000J0D01*
G01*
X11479401Y-9680700D02*
X11479401Y-9790700D01*
X11479401Y-9790700D02*
G75*
G03*
X11539401Y-9790700I30000J0D01*
G01*
D14*
X2760733Y-2006700D02*
X2760733Y-2256700D01*
X2635733Y-2131700D02*
X2885733Y-2131700D01*
X2760733Y-3256700D02*
X2760733Y-3506700D01*
X2635733Y-3381700D02*
X2885733Y-3381700D01*
X2760733Y-3786700D02*
X2760733Y-4036700D01*
X2635733Y-3911700D02*
X2885733Y-3911700D01*
X2760733Y-5036700D02*
X2760733Y-5286700D01*
X2635733Y-5161700D02*
X2885733Y-5161700D01*
X2760733Y-5566700D02*
X2760733Y-5816700D01*
X2635733Y-5691700D02*
X2885733Y-5691700D01*
X2760733Y-6816700D02*
X2760733Y-7066700D01*
X2635733Y-6941700D02*
X2885733Y-6941700D01*
X2760733Y-7346700D02*
X2760733Y-7596700D01*
X2635733Y-7471700D02*
X2885733Y-7471700D01*
X2760733Y-8596700D02*
X2760733Y-8846700D01*
X2635733Y-8721700D02*
X2885733Y-8721700D01*
X2760733Y-9126700D02*
X2760733Y-9376700D01*
X2635733Y-9251700D02*
X2885733Y-9251700D01*
X2760733Y-10376700D02*
X2760733Y-10626700D01*
X2635733Y-10501700D02*
X2885733Y-10501700D01*
X4160733Y-2006700D02*
X4160733Y-2256700D01*
X4035733Y-2131700D02*
X4285733Y-2131700D01*
X4160733Y-3256700D02*
X4160733Y-3506700D01*
X4035733Y-3381700D02*
X4285733Y-3381700D01*
X4160733Y-3786700D02*
X4160733Y-4036700D01*
X4035733Y-3911700D02*
X4285733Y-3911700D01*
X4160733Y-5036700D02*
X4160733Y-5286700D01*
X4035733Y-5161700D02*
X4285733Y-5161700D01*
X4160733Y-5566700D02*
X4160733Y-5816700D01*
X4035733Y-5691700D02*
X4285733Y-5691700D01*
X4160733Y-6816700D02*
X4160733Y-7066700D01*
X4035733Y-6941700D02*
X4285733Y-6941700D01*
X4160733Y-7346700D02*
X4160733Y-7596700D01*
X4035733Y-7471700D02*
X4285733Y-7471700D01*
X4160733Y-8596700D02*
X4160733Y-8846700D01*
X4035733Y-8721700D02*
X4285733Y-8721700D01*
X4160733Y-9126700D02*
X4160733Y-9376700D01*
X4035733Y-9251700D02*
X4285733Y-9251700D01*
X4160733Y-10376700D02*
X4160733Y-10626700D01*
X4035733Y-10501700D02*
X4285733Y-10501700D01*
X4665450Y-2007700D02*
X4665450Y-2257700D01*
X4540450Y-2132700D02*
X4790450Y-2132700D01*
X4665450Y-3257700D02*
X4665450Y-3507700D01*
X4540450Y-3382700D02*
X4790450Y-3382700D01*
X4665450Y-3787700D02*
X4665450Y-4037700D01*
X4540450Y-3912700D02*
X4790450Y-3912700D01*
X4665450Y-5037700D02*
X4665450Y-5287700D01*
X4540450Y-5162700D02*
X4790450Y-5162700D01*
X4665450Y-5567700D02*
X4665450Y-5817700D01*
X4540450Y-5692700D02*
X4790450Y-5692700D01*
X4665450Y-6817700D02*
X4665450Y-7067700D01*
X4540450Y-6942700D02*
X4790450Y-6942700D01*
X4665450Y-7347700D02*
X4665450Y-7597700D01*
X4540450Y-7472700D02*
X4790450Y-7472700D01*
X4665450Y-8597700D02*
X4665450Y-8847700D01*
X4540450Y-8722700D02*
X4790450Y-8722700D01*
X4665450Y-9127700D02*
X4665450Y-9377700D01*
X4540450Y-9252700D02*
X4790450Y-9252700D01*
X4665450Y-10377700D02*
X4665450Y-10627700D01*
X4540450Y-10502700D02*
X4790450Y-10502700D01*
X6065450Y-2007700D02*
X6065450Y-2257700D01*
X5940450Y-2132700D02*
X6190450Y-2132700D01*
X6065450Y-3257700D02*
X6065450Y-3507700D01*
X5940450Y-3382700D02*
X6190450Y-3382700D01*
X6065450Y-3787700D02*
X6065450Y-4037700D01*
X5940450Y-3912700D02*
X6190450Y-3912700D01*
X6065450Y-5037700D02*
X6065450Y-5287700D01*
X5940450Y-5162700D02*
X6190450Y-5162700D01*
X6065450Y-5567700D02*
X6065450Y-5817700D01*
X5940450Y-5692700D02*
X6190450Y-5692700D01*
X6065450Y-6817700D02*
X6065450Y-7067700D01*
X5940450Y-6942700D02*
X6190450Y-6942700D01*
X6065450Y-7347700D02*
X6065450Y-7597700D01*
X5940450Y-7472700D02*
X6190450Y-7472700D01*
X6065450Y-8597700D02*
X6065450Y-8847700D01*
X5940450Y-8722700D02*
X6190450Y-8722700D01*
X6065450Y-9127700D02*
X6065450Y-9377700D01*
X5940450Y-9252700D02*
X6190450Y-9252700D01*
X6065450Y-10377700D02*
X6065450Y-10627700D01*
X5940450Y-10502700D02*
X6190450Y-10502700D01*
X6570167Y-2008700D02*
X6570167Y-2258700D01*
X6445167Y-2133700D02*
X6695167Y-2133700D01*
X6570167Y-3258700D02*
X6570167Y-3508700D01*
X6445167Y-3383700D02*
X6695167Y-3383700D01*
X6570167Y-3788700D02*
X6570167Y-4038700D01*
X6445167Y-3913700D02*
X6695167Y-3913700D01*
X6570167Y-5038700D02*
X6570167Y-5288700D01*
X6445167Y-5163700D02*
X6695167Y-5163700D01*
X6570167Y-5568700D02*
X6570167Y-5818700D01*
X6445167Y-5693700D02*
X6695167Y-5693700D01*
X6570167Y-6818700D02*
X6570167Y-7068700D01*
X6445167Y-6943700D02*
X6695167Y-6943700D01*
X6570167Y-7348700D02*
X6570167Y-7598700D01*
X6445167Y-7473700D02*
X6695167Y-7473700D01*
X6570167Y-8598700D02*
X6570167Y-8848700D01*
X6445167Y-8723700D02*
X6695167Y-8723700D01*
X6570167Y-9128700D02*
X6570167Y-9378700D01*
X6445167Y-9253700D02*
X6695167Y-9253700D01*
X6570167Y-10378700D02*
X6570167Y-10628700D01*
X6445167Y-10503700D02*
X6695167Y-10503700D01*
X7970167Y-2008700D02*
X7970167Y-2258700D01*
X7845167Y-2133700D02*
X8095167Y-2133700D01*
X7970167Y-3258700D02*
X7970167Y-3508700D01*
X7845167Y-3383700D02*
X8095167Y-3383700D01*
X7970167Y-3788700D02*
X7970167Y-4038700D01*
X7845167Y-3913700D02*
X8095167Y-3913700D01*
X7970167Y-5038700D02*
X7970167Y-5288700D01*
X7845167Y-5163700D02*
X8095167Y-5163700D01*
X7970167Y-5568700D02*
X7970167Y-5818700D01*
X7845167Y-5693700D02*
X8095167Y-5693700D01*
X7970167Y-6818700D02*
X7970167Y-7068700D01*
X7845167Y-6943700D02*
X8095167Y-6943700D01*
X7970167Y-7348700D02*
X7970167Y-7598700D01*
X7845167Y-7473700D02*
X8095167Y-7473700D01*
X7970167Y-8598700D02*
X7970167Y-8848700D01*
X7845167Y-8723700D02*
X8095167Y-8723700D01*
X7970167Y-9128700D02*
X7970167Y-9378700D01*
X7845167Y-9253700D02*
X8095167Y-9253700D01*
X7970167Y-10378700D02*
X7970167Y-10628700D01*
X7845167Y-10503700D02*
X8095167Y-10503700D01*
X8474884Y-2009700D02*
X8474884Y-2259700D01*
X8349884Y-2134700D02*
X8599884Y-2134700D01*
X8474884Y-3259700D02*
X8474884Y-3509700D01*
X8349884Y-3384700D02*
X8599884Y-3384700D01*
X8474884Y-3789700D02*
X8474884Y-4039700D01*
X8349884Y-3914700D02*
X8599884Y-3914700D01*
X8474884Y-5039700D02*
X8474884Y-5289700D01*
X8349884Y-5164700D02*
X8599884Y-5164700D01*
X8474884Y-5569700D02*
X8474884Y-5819700D01*
X8349884Y-5694700D02*
X8599884Y-5694700D01*
X8474884Y-6819700D02*
X8474884Y-7069700D01*
X8349884Y-6944700D02*
X8599884Y-6944700D01*
X8474884Y-7349700D02*
X8474884Y-7599700D01*
X8349884Y-7474700D02*
X8599884Y-7474700D01*
X8474884Y-8599700D02*
X8474884Y-8849700D01*
X8349884Y-8724700D02*
X8599884Y-8724700D01*
X8474884Y-9129700D02*
X8474884Y-9379700D01*
X8349884Y-9254700D02*
X8599884Y-9254700D01*
X8474884Y-10379700D02*
X8474884Y-10629700D01*
X8349884Y-10504700D02*
X8599884Y-10504700D01*
X9874884Y-2009700D02*
X9874884Y-2259700D01*
X9749884Y-2134700D02*
X9999884Y-2134700D01*
X9874884Y-3259700D02*
X9874884Y-3509700D01*
X9749884Y-3384700D02*
X9999884Y-3384700D01*
X9874884Y-3789700D02*
X9874884Y-4039700D01*
X9749884Y-3914700D02*
X9999884Y-3914700D01*
X9874884Y-5039700D02*
X9874884Y-5289700D01*
X9749884Y-5164700D02*
X9999884Y-5164700D01*
X9874884Y-5569700D02*
X9874884Y-5819700D01*
X9749884Y-5694700D02*
X9999884Y-5694700D01*
X9874884Y-6819700D02*
X9874884Y-7069700D01*
X9749884Y-6944700D02*
X9999884Y-6944700D01*
X9874884Y-7349700D02*
X9874884Y-7599700D01*
X9749884Y-7474700D02*
X9999884Y-7474700D01*
X9874884Y-8599700D02*
X9874884Y-8849700D01*
X9749884Y-8724700D02*
X9999884Y-8724700D01*
X9874884Y-9129700D02*
X9874884Y-9379700D01*
X9749884Y-9254700D02*
X9999884Y-9254700D01*
X9874884Y-10379700D02*
X9874884Y-10629700D01*
X9749884Y-10504700D02*
X9999884Y-10504700D01*
X10379601Y-2010700D02*
X10379601Y-2260700D01*
X10254601Y-2135700D02*
X10504601Y-2135700D01*
X10379601Y-3260700D02*
X10379601Y-3510700D01*
X10254601Y-3385700D02*
X10504601Y-3385700D01*
X10379601Y-3790700D02*
X10379601Y-4040700D01*
X10254601Y-3915700D02*
X10504601Y-3915700D01*
X10379601Y-5040700D02*
X10379601Y-5290700D01*
X10254601Y-5165700D02*
X10504601Y-5165700D01*
X10379601Y-5570700D02*
X10379601Y-5820700D01*
X10254601Y-5695700D02*
X10504601Y-5695700D01*
X10379601Y-6820700D02*
X10379601Y-7070700D01*
X10254601Y-6945700D02*
X10504601Y-6945700D01*
X10379601Y-7350700D02*
X10379601Y-7600700D01*
X10254601Y-7475700D02*
X10504601Y-7475700D01*
X10379601Y-8600700D02*
X10379601Y-8850700D01*
X10254601Y-8725700D02*
X10504601Y-8725700D01*
X10379601Y-9130700D02*
X10379601Y-9380700D01*
X10254601Y-9255700D02*
X10504601Y-9255700D01*
X10379601Y-10380700D02*
X10379601Y-10630700D01*
X10254601Y-10505700D02*
X10504601Y-10505700D01*
X11779601Y-2010700D02*
X11779601Y-2260700D01*
X11654601Y-2135700D02*
X11904601Y-2135700D01*
X11779601Y-3260700D02*
X11779601Y-3510700D01*
X11654601Y-3385700D02*
X11904601Y-3385700D01*
X11779601Y-3790700D02*
X11779601Y-4040700D01*
X11654601Y-3915700D02*
X11904601Y-3915700D01*
X11779601Y-5040700D02*
X11779601Y-5290700D01*
X11654601Y-5165700D02*
X11904601Y-5165700D01*
X11779601Y-5570700D02*
X11779601Y-5820700D01*
X11654601Y-5695700D02*
X11904601Y-5695700D01*
X11779601Y-6820700D02*
X11779601Y-7070700D01*
X11654601Y-6945700D02*
X11904601Y-6945700D01*
X11779601Y-7350700D02*
X11779601Y-7600700D01*
X11654601Y-7475700D02*
X11904601Y-7475700D01*
X11779601Y-8600700D02*
X11779601Y-8850700D01*
X11654601Y-8725700D02*
X11904601Y-8725700D01*
X11779601Y-9130700D02*
X11779601Y-9380700D01*
X11654601Y-9255700D02*
X11904601Y-9255700D01*
X11779601Y-10380700D02*
X11779601Y-10630700D01*
X11654601Y-10505700D02*
X11904601Y-10505700D01*
D12*
X2814010Y-11024684D02*
X2814010Y-10824684D01*
X2814010Y-10824684D02*
X2861629Y-10824684D01*
X2861629Y-10824684D02*
X2890200Y-10834208D01*
X2890200Y-10834208D02*
X2909248Y-10853255D01*
X2909248Y-10853255D02*
X2918772Y-10872303D01*
X2918772Y-10872303D02*
X2928295Y-10910398D01*
X2928295Y-10910398D02*
X2928295Y-10938970D01*
X2928295Y-10938970D02*
X2918772Y-10977065D01*
X2918772Y-10977065D02*
X2909248Y-10996112D01*
X2909248Y-10996112D02*
X2890200Y-11015160D01*
X2890200Y-11015160D02*
X2861629Y-11024684D01*
X2861629Y-11024684D02*
X2814010Y-11024684D01*
X3014010Y-11024684D02*
X3014010Y-10891350D01*
X3014010Y-10929446D02*
X3023534Y-10910398D01*
X3023534Y-10910398D02*
X3033057Y-10900874D01*
X3033057Y-10900874D02*
X3052105Y-10891350D01*
X3052105Y-10891350D02*
X3071153Y-10891350D01*
X3137819Y-11024684D02*
X3137819Y-10891350D01*
X3137819Y-10824684D02*
X3128295Y-10834208D01*
X3128295Y-10834208D02*
X3137819Y-10843731D01*
X3137819Y-10843731D02*
X3147343Y-10834208D01*
X3147343Y-10834208D02*
X3137819Y-10824684D01*
X3137819Y-10824684D02*
X3137819Y-10843731D01*
X3261629Y-11024684D02*
X3242581Y-11015160D01*
X3242581Y-11015160D02*
X3233057Y-10996112D01*
X3233057Y-10996112D02*
X3233057Y-10824684D01*
X3366391Y-11024684D02*
X3347343Y-11015160D01*
X3347343Y-11015160D02*
X3337819Y-10996112D01*
X3337819Y-10996112D02*
X3337819Y-10824684D01*
X3594962Y-11024684D02*
X3594962Y-10824684D01*
X3594962Y-10824684D02*
X3661629Y-10967541D01*
X3661629Y-10967541D02*
X3728295Y-10824684D01*
X3728295Y-10824684D02*
X3728295Y-11024684D01*
X3909248Y-11024684D02*
X3909248Y-10919922D01*
X3909248Y-10919922D02*
X3899724Y-10900874D01*
X3899724Y-10900874D02*
X3880676Y-10891350D01*
X3880676Y-10891350D02*
X3842581Y-10891350D01*
X3842581Y-10891350D02*
X3823534Y-10900874D01*
X3909248Y-11015160D02*
X3890200Y-11024684D01*
X3890200Y-11024684D02*
X3842581Y-11024684D01*
X3842581Y-11024684D02*
X3823534Y-11015160D01*
X3823534Y-11015160D02*
X3814010Y-10996112D01*
X3814010Y-10996112D02*
X3814010Y-10977065D01*
X3814010Y-10977065D02*
X3823534Y-10958017D01*
X3823534Y-10958017D02*
X3842581Y-10948493D01*
X3842581Y-10948493D02*
X3890200Y-10948493D01*
X3890200Y-10948493D02*
X3909248Y-10938970D01*
X4004486Y-10891350D02*
X4004486Y-11091350D01*
X4004486Y-10900874D02*
X4023534Y-10891350D01*
X4023534Y-10891350D02*
X4061629Y-10891350D01*
X4061629Y-10891350D02*
X4080676Y-10900874D01*
X4080676Y-10900874D02*
X4090200Y-10910398D01*
X4090200Y-10910398D02*
X4099724Y-10929446D01*
X4099724Y-10929446D02*
X4099724Y-10986589D01*
X4099724Y-10986589D02*
X4090200Y-11005636D01*
X4090200Y-11005636D02*
X4080676Y-11015160D01*
X4080676Y-11015160D02*
X4061629Y-11024684D01*
X4061629Y-11024684D02*
X4023534Y-11024684D01*
X4023534Y-11024684D02*
X4004486Y-11015160D01*
X4185438Y-11005636D02*
X4194962Y-11015160D01*
X4194962Y-11015160D02*
X4185438Y-11024684D01*
X4185438Y-11024684D02*
X4175915Y-11015160D01*
X4175915Y-11015160D02*
X4185438Y-11005636D01*
X4185438Y-11005636D02*
X4185438Y-11024684D01*
X4185438Y-10900874D02*
X4194962Y-10910398D01*
X4194962Y-10910398D02*
X4185438Y-10919922D01*
X4185438Y-10919922D02*
X4175915Y-10910398D01*
X4175915Y-10910398D02*
X4185438Y-10900874D01*
X4185438Y-10900874D02*
X4185438Y-10919922D01*
D13*
X2513233Y-11333200D02*
X2553233Y-11373200D01*
X2553233Y-11333200D02*
X2513233Y-11373200D01*
D12*
X2852105Y-11244684D02*
X2871153Y-11244684D01*
X2871153Y-11244684D02*
X2890200Y-11254208D01*
X2890200Y-11254208D02*
X2899724Y-11263731D01*
X2899724Y-11263731D02*
X2909248Y-11282779D01*
X2909248Y-11282779D02*
X2918772Y-11320874D01*
X2918772Y-11320874D02*
X2918772Y-11368493D01*
X2918772Y-11368493D02*
X2909248Y-11406588D01*
X2909248Y-11406588D02*
X2899724Y-11425636D01*
X2899724Y-11425636D02*
X2890200Y-11435160D01*
X2890200Y-11435160D02*
X2871153Y-11444684D01*
X2871153Y-11444684D02*
X2852105Y-11444684D01*
X2852105Y-11444684D02*
X2833057Y-11435160D01*
X2833057Y-11435160D02*
X2823534Y-11425636D01*
X2823534Y-11425636D02*
X2814010Y-11406588D01*
X2814010Y-11406588D02*
X2804486Y-11368493D01*
X2804486Y-11368493D02*
X2804486Y-11320874D01*
X2804486Y-11320874D02*
X2814010Y-11282779D01*
X2814010Y-11282779D02*
X2823534Y-11263731D01*
X2823534Y-11263731D02*
X2833057Y-11254208D01*
X2833057Y-11254208D02*
X2852105Y-11244684D01*
X3004486Y-11425636D02*
X3014010Y-11435160D01*
X3014010Y-11435160D02*
X3004486Y-11444684D01*
X3004486Y-11444684D02*
X2994962Y-11435160D01*
X2994962Y-11435160D02*
X3004486Y-11425636D01*
X3004486Y-11425636D02*
X3004486Y-11444684D01*
X3185438Y-11311350D02*
X3185438Y-11444684D01*
X3137819Y-11235160D02*
X3090200Y-11378017D01*
X3090200Y-11378017D02*
X3214010Y-11378017D01*
X3328295Y-11244684D02*
X3347343Y-11244684D01*
X3347343Y-11244684D02*
X3366391Y-11254208D01*
X3366391Y-11254208D02*
X3375915Y-11263731D01*
X3375915Y-11263731D02*
X3385438Y-11282779D01*
X3385438Y-11282779D02*
X3394962Y-11320874D01*
X3394962Y-11320874D02*
X3394962Y-11368493D01*
X3394962Y-11368493D02*
X3385438Y-11406588D01*
X3385438Y-11406588D02*
X3375915Y-11425636D01*
X3375915Y-11425636D02*
X3366391Y-11435160D01*
X3366391Y-11435160D02*
X3347343Y-11444684D01*
X3347343Y-11444684D02*
X3328295Y-11444684D01*
X3328295Y-11444684D02*
X3309248Y-11435160D01*
X3309248Y-11435160D02*
X3299724Y-11425636D01*
X3299724Y-11425636D02*
X3290200Y-11406588D01*
X3290200Y-11406588D02*
X3280676Y-11368493D01*
X3280676Y-11368493D02*
X3280676Y-11320874D01*
X3280676Y-11320874D02*
X3290200Y-11282779D01*
X3290200Y-11282779D02*
X3299724Y-11263731D01*
X3299724Y-11263731D02*
X3309248Y-11254208D01*
X3309248Y-11254208D02*
X3328295Y-11244684D01*
X3518772Y-11244684D02*
X3537819Y-11244684D01*
X3537819Y-11244684D02*
X3556867Y-11254208D01*
X3556867Y-11254208D02*
X3566391Y-11263731D01*
X3566391Y-11263731D02*
X3575915Y-11282779D01*
X3575915Y-11282779D02*
X3585438Y-11320874D01*
X3585438Y-11320874D02*
X3585438Y-11368493D01*
X3585438Y-11368493D02*
X3575915Y-11406588D01*
X3575915Y-11406588D02*
X3566391Y-11425636D01*
X3566391Y-11425636D02*
X3556867Y-11435160D01*
X3556867Y-11435160D02*
X3537819Y-11444684D01*
X3537819Y-11444684D02*
X3518772Y-11444684D01*
X3518772Y-11444684D02*
X3499724Y-11435160D01*
X3499724Y-11435160D02*
X3490200Y-11425636D01*
X3490200Y-11425636D02*
X3480676Y-11406588D01*
X3480676Y-11406588D02*
X3471153Y-11368493D01*
X3471153Y-11368493D02*
X3471153Y-11320874D01*
X3471153Y-11320874D02*
X3480676Y-11282779D01*
X3480676Y-11282779D02*
X3490200Y-11263731D01*
X3490200Y-11263731D02*
X3499724Y-11254208D01*
X3499724Y-11254208D02*
X3518772Y-11244684D01*
X3671153Y-11444684D02*
X3671153Y-11311350D01*
X3671153Y-11330398D02*
X3680676Y-11320874D01*
X3680676Y-11320874D02*
X3699724Y-11311350D01*
X3699724Y-11311350D02*
X3728296Y-11311350D01*
X3728296Y-11311350D02*
X3747343Y-11320874D01*
X3747343Y-11320874D02*
X3756867Y-11339922D01*
X3756867Y-11339922D02*
X3756867Y-11444684D01*
X3756867Y-11339922D02*
X3766391Y-11320874D01*
X3766391Y-11320874D02*
X3785438Y-11311350D01*
X3785438Y-11311350D02*
X3814010Y-11311350D01*
X3814010Y-11311350D02*
X3833057Y-11320874D01*
X3833057Y-11320874D02*
X3842581Y-11339922D01*
X3842581Y-11339922D02*
X3842581Y-11444684D01*
X3937819Y-11444684D02*
X3937819Y-11311350D01*
X3937819Y-11330398D02*
X3947343Y-11320874D01*
X3947343Y-11320874D02*
X3966391Y-11311350D01*
X3966391Y-11311350D02*
X3994962Y-11311350D01*
X3994962Y-11311350D02*
X4014010Y-11320874D01*
X4014010Y-11320874D02*
X4023534Y-11339922D01*
X4023534Y-11339922D02*
X4023534Y-11444684D01*
X4023534Y-11339922D02*
X4033057Y-11320874D01*
X4033057Y-11320874D02*
X4052105Y-11311350D01*
X4052105Y-11311350D02*
X4080676Y-11311350D01*
X4080676Y-11311350D02*
X4099724Y-11320874D01*
X4099724Y-11320874D02*
X4109248Y-11339922D01*
X4109248Y-11339922D02*
X4109248Y-11444684D01*
X4499724Y-11235160D02*
X4328296Y-11492303D01*
X4756867Y-11244684D02*
X4775915Y-11244684D01*
X4775915Y-11244684D02*
X4794962Y-11254208D01*
X4794962Y-11254208D02*
X4804486Y-11263731D01*
X4804486Y-11263731D02*
X4814010Y-11282779D01*
X4814010Y-11282779D02*
X4823534Y-11320874D01*
X4823534Y-11320874D02*
X4823534Y-11368493D01*
X4823534Y-11368493D02*
X4814010Y-11406588D01*
X4814010Y-11406588D02*
X4804486Y-11425636D01*
X4804486Y-11425636D02*
X4794962Y-11435160D01*
X4794962Y-11435160D02*
X4775915Y-11444684D01*
X4775915Y-11444684D02*
X4756867Y-11444684D01*
X4756867Y-11444684D02*
X4737820Y-11435160D01*
X4737820Y-11435160D02*
X4728296Y-11425636D01*
X4728296Y-11425636D02*
X4718772Y-11406588D01*
X4718772Y-11406588D02*
X4709248Y-11368493D01*
X4709248Y-11368493D02*
X4709248Y-11320874D01*
X4709248Y-11320874D02*
X4718772Y-11282779D01*
X4718772Y-11282779D02*
X4728296Y-11263731D01*
X4728296Y-11263731D02*
X4737820Y-11254208D01*
X4737820Y-11254208D02*
X4756867Y-11244684D01*
X4909248Y-11425636D02*
X4918772Y-11435160D01*
X4918772Y-11435160D02*
X4909248Y-11444684D01*
X4909248Y-11444684D02*
X4899724Y-11435160D01*
X4899724Y-11435160D02*
X4909248Y-11425636D01*
X4909248Y-11425636D02*
X4909248Y-11444684D01*
X5042581Y-11244684D02*
X5061629Y-11244684D01*
X5061629Y-11244684D02*
X5080677Y-11254208D01*
X5080677Y-11254208D02*
X5090201Y-11263731D01*
X5090201Y-11263731D02*
X5099724Y-11282779D01*
X5099724Y-11282779D02*
X5109248Y-11320874D01*
X5109248Y-11320874D02*
X5109248Y-11368493D01*
X5109248Y-11368493D02*
X5099724Y-11406588D01*
X5099724Y-11406588D02*
X5090201Y-11425636D01*
X5090201Y-11425636D02*
X5080677Y-11435160D01*
X5080677Y-11435160D02*
X5061629Y-11444684D01*
X5061629Y-11444684D02*
X5042581Y-11444684D01*
X5042581Y-11444684D02*
X5023534Y-11435160D01*
X5023534Y-11435160D02*
X5014010Y-11425636D01*
X5014010Y-11425636D02*
X5004486Y-11406588D01*
X5004486Y-11406588D02*
X4994962Y-11368493D01*
X4994962Y-11368493D02*
X4994962Y-11320874D01*
X4994962Y-11320874D02*
X5004486Y-11282779D01*
X5004486Y-11282779D02*
X5014010Y-11263731D01*
X5014010Y-11263731D02*
X5023534Y-11254208D01*
X5023534Y-11254208D02*
X5042581Y-11244684D01*
X5299724Y-11444684D02*
X5185439Y-11444684D01*
X5242581Y-11444684D02*
X5242581Y-11244684D01*
X5242581Y-11244684D02*
X5223534Y-11273255D01*
X5223534Y-11273255D02*
X5204486Y-11292303D01*
X5204486Y-11292303D02*
X5185439Y-11301827D01*
X5480677Y-11244684D02*
X5385439Y-11244684D01*
X5385439Y-11244684D02*
X5375915Y-11339922D01*
X5375915Y-11339922D02*
X5385439Y-11330398D01*
X5385439Y-11330398D02*
X5404486Y-11320874D01*
X5404486Y-11320874D02*
X5452105Y-11320874D01*
X5452105Y-11320874D02*
X5471153Y-11330398D01*
X5471153Y-11330398D02*
X5480677Y-11339922D01*
X5480677Y-11339922D02*
X5490201Y-11358969D01*
X5490201Y-11358969D02*
X5490201Y-11406588D01*
X5490201Y-11406588D02*
X5480677Y-11425636D01*
X5480677Y-11425636D02*
X5471153Y-11435160D01*
X5471153Y-11435160D02*
X5452105Y-11444684D01*
X5452105Y-11444684D02*
X5404486Y-11444684D01*
X5404486Y-11444684D02*
X5385439Y-11435160D01*
X5385439Y-11435160D02*
X5375915Y-11425636D01*
X5556867Y-11244684D02*
X5690200Y-11244684D01*
X5690200Y-11244684D02*
X5604486Y-11444684D01*
X5756867Y-11244684D02*
X5756867Y-11282779D01*
X5833058Y-11244684D02*
X5833058Y-11282779D01*
X6128296Y-11520874D02*
X6118772Y-11511350D01*
X6118772Y-11511350D02*
X6099724Y-11482779D01*
X6099724Y-11482779D02*
X6090201Y-11463731D01*
X6090201Y-11463731D02*
X6080677Y-11435160D01*
X6080677Y-11435160D02*
X6071153Y-11387541D01*
X6071153Y-11387541D02*
X6071153Y-11349446D01*
X6071153Y-11349446D02*
X6080677Y-11301827D01*
X6080677Y-11301827D02*
X6090201Y-11273255D01*
X6090201Y-11273255D02*
X6099724Y-11254208D01*
X6099724Y-11254208D02*
X6118772Y-11225636D01*
X6118772Y-11225636D02*
X6128296Y-11216112D01*
X6309248Y-11444684D02*
X6194962Y-11444684D01*
X6252105Y-11444684D02*
X6252105Y-11244684D01*
X6252105Y-11244684D02*
X6233058Y-11273255D01*
X6233058Y-11273255D02*
X6214010Y-11292303D01*
X6214010Y-11292303D02*
X6194962Y-11301827D01*
X6433058Y-11244684D02*
X6452105Y-11244684D01*
X6452105Y-11244684D02*
X6471153Y-11254208D01*
X6471153Y-11254208D02*
X6480677Y-11263731D01*
X6480677Y-11263731D02*
X6490201Y-11282779D01*
X6490201Y-11282779D02*
X6499724Y-11320874D01*
X6499724Y-11320874D02*
X6499724Y-11368493D01*
X6499724Y-11368493D02*
X6490201Y-11406588D01*
X6490201Y-11406588D02*
X6480677Y-11425636D01*
X6480677Y-11425636D02*
X6471153Y-11435160D01*
X6471153Y-11435160D02*
X6452105Y-11444684D01*
X6452105Y-11444684D02*
X6433058Y-11444684D01*
X6433058Y-11444684D02*
X6414010Y-11435160D01*
X6414010Y-11435160D02*
X6404486Y-11425636D01*
X6404486Y-11425636D02*
X6394962Y-11406588D01*
X6394962Y-11406588D02*
X6385439Y-11368493D01*
X6385439Y-11368493D02*
X6385439Y-11320874D01*
X6385439Y-11320874D02*
X6394962Y-11282779D01*
X6394962Y-11282779D02*
X6404486Y-11263731D01*
X6404486Y-11263731D02*
X6414010Y-11254208D01*
X6414010Y-11254208D02*
X6433058Y-11244684D01*
X6623534Y-11244684D02*
X6642582Y-11244684D01*
X6642582Y-11244684D02*
X6661629Y-11254208D01*
X6661629Y-11254208D02*
X6671153Y-11263731D01*
X6671153Y-11263731D02*
X6680677Y-11282779D01*
X6680677Y-11282779D02*
X6690201Y-11320874D01*
X6690201Y-11320874D02*
X6690201Y-11368493D01*
X6690201Y-11368493D02*
X6680677Y-11406588D01*
X6680677Y-11406588D02*
X6671153Y-11425636D01*
X6671153Y-11425636D02*
X6661629Y-11435160D01*
X6661629Y-11435160D02*
X6642582Y-11444684D01*
X6642582Y-11444684D02*
X6623534Y-11444684D01*
X6623534Y-11444684D02*
X6604486Y-11435160D01*
X6604486Y-11435160D02*
X6594962Y-11425636D01*
X6594962Y-11425636D02*
X6585439Y-11406588D01*
X6585439Y-11406588D02*
X6575915Y-11368493D01*
X6575915Y-11368493D02*
X6575915Y-11320874D01*
X6575915Y-11320874D02*
X6585439Y-11282779D01*
X6585439Y-11282779D02*
X6594962Y-11263731D01*
X6594962Y-11263731D02*
X6604486Y-11254208D01*
X6604486Y-11254208D02*
X6623534Y-11244684D01*
X6928296Y-11444684D02*
X6928296Y-11244684D01*
X7014010Y-11444684D02*
X7014010Y-11339922D01*
X7014010Y-11339922D02*
X7004486Y-11320874D01*
X7004486Y-11320874D02*
X6985439Y-11311350D01*
X6985439Y-11311350D02*
X6956867Y-11311350D01*
X6956867Y-11311350D02*
X6937820Y-11320874D01*
X6937820Y-11320874D02*
X6928296Y-11330398D01*
X7137820Y-11444684D02*
X7118772Y-11435160D01*
X7118772Y-11435160D02*
X7109248Y-11425636D01*
X7109248Y-11425636D02*
X7099724Y-11406588D01*
X7099724Y-11406588D02*
X7099724Y-11349446D01*
X7099724Y-11349446D02*
X7109248Y-11330398D01*
X7109248Y-11330398D02*
X7118772Y-11320874D01*
X7118772Y-11320874D02*
X7137820Y-11311350D01*
X7137820Y-11311350D02*
X7166391Y-11311350D01*
X7166391Y-11311350D02*
X7185439Y-11320874D01*
X7185439Y-11320874D02*
X7194963Y-11330398D01*
X7194963Y-11330398D02*
X7204486Y-11349446D01*
X7204486Y-11349446D02*
X7204486Y-11406588D01*
X7204486Y-11406588D02*
X7194963Y-11425636D01*
X7194963Y-11425636D02*
X7185439Y-11435160D01*
X7185439Y-11435160D02*
X7166391Y-11444684D01*
X7166391Y-11444684D02*
X7137820Y-11444684D01*
X7318772Y-11444684D02*
X7299724Y-11435160D01*
X7299724Y-11435160D02*
X7290201Y-11416112D01*
X7290201Y-11416112D02*
X7290201Y-11244684D01*
X7471153Y-11435160D02*
X7452105Y-11444684D01*
X7452105Y-11444684D02*
X7414010Y-11444684D01*
X7414010Y-11444684D02*
X7394963Y-11435160D01*
X7394963Y-11435160D02*
X7385439Y-11416112D01*
X7385439Y-11416112D02*
X7385439Y-11339922D01*
X7385439Y-11339922D02*
X7394963Y-11320874D01*
X7394963Y-11320874D02*
X7414010Y-11311350D01*
X7414010Y-11311350D02*
X7452105Y-11311350D01*
X7452105Y-11311350D02*
X7471153Y-11320874D01*
X7471153Y-11320874D02*
X7480677Y-11339922D01*
X7480677Y-11339922D02*
X7480677Y-11358969D01*
X7480677Y-11358969D02*
X7385439Y-11378017D01*
X7556867Y-11435160D02*
X7575915Y-11444684D01*
X7575915Y-11444684D02*
X7614010Y-11444684D01*
X7614010Y-11444684D02*
X7633058Y-11435160D01*
X7633058Y-11435160D02*
X7642582Y-11416112D01*
X7642582Y-11416112D02*
X7642582Y-11406588D01*
X7642582Y-11406588D02*
X7633058Y-11387541D01*
X7633058Y-11387541D02*
X7614010Y-11378017D01*
X7614010Y-11378017D02*
X7585439Y-11378017D01*
X7585439Y-11378017D02*
X7566391Y-11368493D01*
X7566391Y-11368493D02*
X7556867Y-11349446D01*
X7556867Y-11349446D02*
X7556867Y-11339922D01*
X7556867Y-11339922D02*
X7566391Y-11320874D01*
X7566391Y-11320874D02*
X7585439Y-11311350D01*
X7585439Y-11311350D02*
X7614010Y-11311350D01*
X7614010Y-11311350D02*
X7633058Y-11320874D01*
X7709248Y-11520874D02*
X7718772Y-11511350D01*
X7718772Y-11511350D02*
X7737820Y-11482779D01*
X7737820Y-11482779D02*
X7747344Y-11463731D01*
X7747344Y-11463731D02*
X7756867Y-11435160D01*
X7756867Y-11435160D02*
X7766391Y-11387541D01*
X7766391Y-11387541D02*
X7766391Y-11349446D01*
X7766391Y-11349446D02*
X7756867Y-11301827D01*
X7756867Y-11301827D02*
X7747344Y-11273255D01*
X7747344Y-11273255D02*
X7737820Y-11254208D01*
X7737820Y-11254208D02*
X7718772Y-11225636D01*
X7718772Y-11225636D02*
X7709248Y-11216112D01*
D13*
X2553233Y-11617200D02*
G75*
G02*
X2493233Y-11617200I-30000J0D01*
G01*
X2493233Y-11617200D02*
G75*
G02*
X2553233Y-11617200I30000J0D01*
G01*
D12*
X2852105Y-11508684D02*
X2871153Y-11508684D01*
X2871153Y-11508684D02*
X2890200Y-11518208D01*
X2890200Y-11518208D02*
X2899724Y-11527731D01*
X2899724Y-11527731D02*
X2909248Y-11546779D01*
X2909248Y-11546779D02*
X2918772Y-11584874D01*
X2918772Y-11584874D02*
X2918772Y-11632493D01*
X2918772Y-11632493D02*
X2909248Y-11670588D01*
X2909248Y-11670588D02*
X2899724Y-11689636D01*
X2899724Y-11689636D02*
X2890200Y-11699160D01*
X2890200Y-11699160D02*
X2871153Y-11708684D01*
X2871153Y-11708684D02*
X2852105Y-11708684D01*
X2852105Y-11708684D02*
X2833057Y-11699160D01*
X2833057Y-11699160D02*
X2823534Y-11689636D01*
X2823534Y-11689636D02*
X2814010Y-11670588D01*
X2814010Y-11670588D02*
X2804486Y-11632493D01*
X2804486Y-11632493D02*
X2804486Y-11584874D01*
X2804486Y-11584874D02*
X2814010Y-11546779D01*
X2814010Y-11546779D02*
X2823534Y-11527731D01*
X2823534Y-11527731D02*
X2833057Y-11518208D01*
X2833057Y-11518208D02*
X2852105Y-11508684D01*
X3004486Y-11689636D02*
X3014010Y-11699160D01*
X3014010Y-11699160D02*
X3004486Y-11708684D01*
X3004486Y-11708684D02*
X2994962Y-11699160D01*
X2994962Y-11699160D02*
X3004486Y-11689636D01*
X3004486Y-11689636D02*
X3004486Y-11708684D01*
X3185438Y-11508684D02*
X3147343Y-11508684D01*
X3147343Y-11508684D02*
X3128295Y-11518208D01*
X3128295Y-11518208D02*
X3118772Y-11527731D01*
X3118772Y-11527731D02*
X3099724Y-11556303D01*
X3099724Y-11556303D02*
X3090200Y-11594398D01*
X3090200Y-11594398D02*
X3090200Y-11670588D01*
X3090200Y-11670588D02*
X3099724Y-11689636D01*
X3099724Y-11689636D02*
X3109248Y-11699160D01*
X3109248Y-11699160D02*
X3128295Y-11708684D01*
X3128295Y-11708684D02*
X3166391Y-11708684D01*
X3166391Y-11708684D02*
X3185438Y-11699160D01*
X3185438Y-11699160D02*
X3194962Y-11689636D01*
X3194962Y-11689636D02*
X3204486Y-11670588D01*
X3204486Y-11670588D02*
X3204486Y-11622969D01*
X3204486Y-11622969D02*
X3194962Y-11603922D01*
X3194962Y-11603922D02*
X3185438Y-11594398D01*
X3185438Y-11594398D02*
X3166391Y-11584874D01*
X3166391Y-11584874D02*
X3128295Y-11584874D01*
X3128295Y-11584874D02*
X3109248Y-11594398D01*
X3109248Y-11594398D02*
X3099724Y-11603922D01*
X3099724Y-11603922D02*
X3090200Y-11622969D01*
X3328295Y-11508684D02*
X3347343Y-11508684D01*
X3347343Y-11508684D02*
X3366391Y-11518208D01*
X3366391Y-11518208D02*
X3375915Y-11527731D01*
X3375915Y-11527731D02*
X3385438Y-11546779D01*
X3385438Y-11546779D02*
X3394962Y-11584874D01*
X3394962Y-11584874D02*
X3394962Y-11632493D01*
X3394962Y-11632493D02*
X3385438Y-11670588D01*
X3385438Y-11670588D02*
X3375915Y-11689636D01*
X3375915Y-11689636D02*
X3366391Y-11699160D01*
X3366391Y-11699160D02*
X3347343Y-11708684D01*
X3347343Y-11708684D02*
X3328295Y-11708684D01*
X3328295Y-11708684D02*
X3309248Y-11699160D01*
X3309248Y-11699160D02*
X3299724Y-11689636D01*
X3299724Y-11689636D02*
X3290200Y-11670588D01*
X3290200Y-11670588D02*
X3280676Y-11632493D01*
X3280676Y-11632493D02*
X3280676Y-11584874D01*
X3280676Y-11584874D02*
X3290200Y-11546779D01*
X3290200Y-11546779D02*
X3299724Y-11527731D01*
X3299724Y-11527731D02*
X3309248Y-11518208D01*
X3309248Y-11518208D02*
X3328295Y-11508684D01*
X3518772Y-11508684D02*
X3537819Y-11508684D01*
X3537819Y-11508684D02*
X3556867Y-11518208D01*
X3556867Y-11518208D02*
X3566391Y-11527731D01*
X3566391Y-11527731D02*
X3575915Y-11546779D01*
X3575915Y-11546779D02*
X3585438Y-11584874D01*
X3585438Y-11584874D02*
X3585438Y-11632493D01*
X3585438Y-11632493D02*
X3575915Y-11670588D01*
X3575915Y-11670588D02*
X3566391Y-11689636D01*
X3566391Y-11689636D02*
X3556867Y-11699160D01*
X3556867Y-11699160D02*
X3537819Y-11708684D01*
X3537819Y-11708684D02*
X3518772Y-11708684D01*
X3518772Y-11708684D02*
X3499724Y-11699160D01*
X3499724Y-11699160D02*
X3490200Y-11689636D01*
X3490200Y-11689636D02*
X3480676Y-11670588D01*
X3480676Y-11670588D02*
X3471153Y-11632493D01*
X3471153Y-11632493D02*
X3471153Y-11584874D01*
X3471153Y-11584874D02*
X3480676Y-11546779D01*
X3480676Y-11546779D02*
X3490200Y-11527731D01*
X3490200Y-11527731D02*
X3499724Y-11518208D01*
X3499724Y-11518208D02*
X3518772Y-11508684D01*
X3671153Y-11708684D02*
X3671153Y-11575350D01*
X3671153Y-11594398D02*
X3680676Y-11584874D01*
X3680676Y-11584874D02*
X3699724Y-11575350D01*
X3699724Y-11575350D02*
X3728296Y-11575350D01*
X3728296Y-11575350D02*
X3747343Y-11584874D01*
X3747343Y-11584874D02*
X3756867Y-11603922D01*
X3756867Y-11603922D02*
X3756867Y-11708684D01*
X3756867Y-11603922D02*
X3766391Y-11584874D01*
X3766391Y-11584874D02*
X3785438Y-11575350D01*
X3785438Y-11575350D02*
X3814010Y-11575350D01*
X3814010Y-11575350D02*
X3833057Y-11584874D01*
X3833057Y-11584874D02*
X3842581Y-11603922D01*
X3842581Y-11603922D02*
X3842581Y-11708684D01*
X3937819Y-11708684D02*
X3937819Y-11575350D01*
X3937819Y-11594398D02*
X3947343Y-11584874D01*
X3947343Y-11584874D02*
X3966391Y-11575350D01*
X3966391Y-11575350D02*
X3994962Y-11575350D01*
X3994962Y-11575350D02*
X4014010Y-11584874D01*
X4014010Y-11584874D02*
X4023534Y-11603922D01*
X4023534Y-11603922D02*
X4023534Y-11708684D01*
X4023534Y-11603922D02*
X4033057Y-11584874D01*
X4033057Y-11584874D02*
X4052105Y-11575350D01*
X4052105Y-11575350D02*
X4080676Y-11575350D01*
X4080676Y-11575350D02*
X4099724Y-11584874D01*
X4099724Y-11584874D02*
X4109248Y-11603922D01*
X4109248Y-11603922D02*
X4109248Y-11708684D01*
X4499724Y-11499160D02*
X4328296Y-11756303D01*
X4756867Y-11508684D02*
X4775915Y-11508684D01*
X4775915Y-11508684D02*
X4794962Y-11518208D01*
X4794962Y-11518208D02*
X4804486Y-11527731D01*
X4804486Y-11527731D02*
X4814010Y-11546779D01*
X4814010Y-11546779D02*
X4823534Y-11584874D01*
X4823534Y-11584874D02*
X4823534Y-11632493D01*
X4823534Y-11632493D02*
X4814010Y-11670588D01*
X4814010Y-11670588D02*
X4804486Y-11689636D01*
X4804486Y-11689636D02*
X4794962Y-11699160D01*
X4794962Y-11699160D02*
X4775915Y-11708684D01*
X4775915Y-11708684D02*
X4756867Y-11708684D01*
X4756867Y-11708684D02*
X4737820Y-11699160D01*
X4737820Y-11699160D02*
X4728296Y-11689636D01*
X4728296Y-11689636D02*
X4718772Y-11670588D01*
X4718772Y-11670588D02*
X4709248Y-11632493D01*
X4709248Y-11632493D02*
X4709248Y-11584874D01*
X4709248Y-11584874D02*
X4718772Y-11546779D01*
X4718772Y-11546779D02*
X4728296Y-11527731D01*
X4728296Y-11527731D02*
X4737820Y-11518208D01*
X4737820Y-11518208D02*
X4756867Y-11508684D01*
X4909248Y-11689636D02*
X4918772Y-11699160D01*
X4918772Y-11699160D02*
X4909248Y-11708684D01*
X4909248Y-11708684D02*
X4899724Y-11699160D01*
X4899724Y-11699160D02*
X4909248Y-11689636D01*
X4909248Y-11689636D02*
X4909248Y-11708684D01*
X5042581Y-11508684D02*
X5061629Y-11508684D01*
X5061629Y-11508684D02*
X5080677Y-11518208D01*
X5080677Y-11518208D02*
X5090201Y-11527731D01*
X5090201Y-11527731D02*
X5099724Y-11546779D01*
X5099724Y-11546779D02*
X5109248Y-11584874D01*
X5109248Y-11584874D02*
X5109248Y-11632493D01*
X5109248Y-11632493D02*
X5099724Y-11670588D01*
X5099724Y-11670588D02*
X5090201Y-11689636D01*
X5090201Y-11689636D02*
X5080677Y-11699160D01*
X5080677Y-11699160D02*
X5061629Y-11708684D01*
X5061629Y-11708684D02*
X5042581Y-11708684D01*
X5042581Y-11708684D02*
X5023534Y-11699160D01*
X5023534Y-11699160D02*
X5014010Y-11689636D01*
X5014010Y-11689636D02*
X5004486Y-11670588D01*
X5004486Y-11670588D02*
X4994962Y-11632493D01*
X4994962Y-11632493D02*
X4994962Y-11584874D01*
X4994962Y-11584874D02*
X5004486Y-11546779D01*
X5004486Y-11546779D02*
X5014010Y-11527731D01*
X5014010Y-11527731D02*
X5023534Y-11518208D01*
X5023534Y-11518208D02*
X5042581Y-11508684D01*
X5185439Y-11527731D02*
X5194962Y-11518208D01*
X5194962Y-11518208D02*
X5214010Y-11508684D01*
X5214010Y-11508684D02*
X5261629Y-11508684D01*
X5261629Y-11508684D02*
X5280677Y-11518208D01*
X5280677Y-11518208D02*
X5290201Y-11527731D01*
X5290201Y-11527731D02*
X5299724Y-11546779D01*
X5299724Y-11546779D02*
X5299724Y-11565827D01*
X5299724Y-11565827D02*
X5290201Y-11594398D01*
X5290201Y-11594398D02*
X5175915Y-11708684D01*
X5175915Y-11708684D02*
X5299724Y-11708684D01*
X5366391Y-11508684D02*
X5490201Y-11508684D01*
X5490201Y-11508684D02*
X5423534Y-11584874D01*
X5423534Y-11584874D02*
X5452105Y-11584874D01*
X5452105Y-11584874D02*
X5471153Y-11594398D01*
X5471153Y-11594398D02*
X5480677Y-11603922D01*
X5480677Y-11603922D02*
X5490201Y-11622969D01*
X5490201Y-11622969D02*
X5490201Y-11670588D01*
X5490201Y-11670588D02*
X5480677Y-11689636D01*
X5480677Y-11689636D02*
X5471153Y-11699160D01*
X5471153Y-11699160D02*
X5452105Y-11708684D01*
X5452105Y-11708684D02*
X5394962Y-11708684D01*
X5394962Y-11708684D02*
X5375915Y-11699160D01*
X5375915Y-11699160D02*
X5366391Y-11689636D01*
X5661629Y-11508684D02*
X5623534Y-11508684D01*
X5623534Y-11508684D02*
X5604486Y-11518208D01*
X5604486Y-11518208D02*
X5594962Y-11527731D01*
X5594962Y-11527731D02*
X5575915Y-11556303D01*
X5575915Y-11556303D02*
X5566391Y-11594398D01*
X5566391Y-11594398D02*
X5566391Y-11670588D01*
X5566391Y-11670588D02*
X5575915Y-11689636D01*
X5575915Y-11689636D02*
X5585439Y-11699160D01*
X5585439Y-11699160D02*
X5604486Y-11708684D01*
X5604486Y-11708684D02*
X5642581Y-11708684D01*
X5642581Y-11708684D02*
X5661629Y-11699160D01*
X5661629Y-11699160D02*
X5671153Y-11689636D01*
X5671153Y-11689636D02*
X5680677Y-11670588D01*
X5680677Y-11670588D02*
X5680677Y-11622969D01*
X5680677Y-11622969D02*
X5671153Y-11603922D01*
X5671153Y-11603922D02*
X5661629Y-11594398D01*
X5661629Y-11594398D02*
X5642581Y-11584874D01*
X5642581Y-11584874D02*
X5604486Y-11584874D01*
X5604486Y-11584874D02*
X5585439Y-11594398D01*
X5585439Y-11594398D02*
X5575915Y-11603922D01*
X5575915Y-11603922D02*
X5566391Y-11622969D01*
X5756867Y-11508684D02*
X5756867Y-11546779D01*
X5833058Y-11508684D02*
X5833058Y-11546779D01*
X6128296Y-11784874D02*
X6118772Y-11775350D01*
X6118772Y-11775350D02*
X6099724Y-11746779D01*
X6099724Y-11746779D02*
X6090201Y-11727731D01*
X6090201Y-11727731D02*
X6080677Y-11699160D01*
X6080677Y-11699160D02*
X6071153Y-11651541D01*
X6071153Y-11651541D02*
X6071153Y-11613446D01*
X6071153Y-11613446D02*
X6080677Y-11565827D01*
X6080677Y-11565827D02*
X6090201Y-11537255D01*
X6090201Y-11537255D02*
X6099724Y-11518208D01*
X6099724Y-11518208D02*
X6118772Y-11489636D01*
X6118772Y-11489636D02*
X6128296Y-11480112D01*
X6242581Y-11508684D02*
X6261629Y-11508684D01*
X6261629Y-11508684D02*
X6280677Y-11518208D01*
X6280677Y-11518208D02*
X6290201Y-11527731D01*
X6290201Y-11527731D02*
X6299724Y-11546779D01*
X6299724Y-11546779D02*
X6309248Y-11584874D01*
X6309248Y-11584874D02*
X6309248Y-11632493D01*
X6309248Y-11632493D02*
X6299724Y-11670588D01*
X6299724Y-11670588D02*
X6290201Y-11689636D01*
X6290201Y-11689636D02*
X6280677Y-11699160D01*
X6280677Y-11699160D02*
X6261629Y-11708684D01*
X6261629Y-11708684D02*
X6242581Y-11708684D01*
X6242581Y-11708684D02*
X6223534Y-11699160D01*
X6223534Y-11699160D02*
X6214010Y-11689636D01*
X6214010Y-11689636D02*
X6204486Y-11670588D01*
X6204486Y-11670588D02*
X6194962Y-11632493D01*
X6194962Y-11632493D02*
X6194962Y-11584874D01*
X6194962Y-11584874D02*
X6204486Y-11546779D01*
X6204486Y-11546779D02*
X6214010Y-11527731D01*
X6214010Y-11527731D02*
X6223534Y-11518208D01*
X6223534Y-11518208D02*
X6242581Y-11508684D01*
X6547343Y-11708684D02*
X6547343Y-11508684D01*
X6633058Y-11708684D02*
X6633058Y-11603922D01*
X6633058Y-11603922D02*
X6623534Y-11584874D01*
X6623534Y-11584874D02*
X6604486Y-11575350D01*
X6604486Y-11575350D02*
X6575915Y-11575350D01*
X6575915Y-11575350D02*
X6556867Y-11584874D01*
X6556867Y-11584874D02*
X6547343Y-11594398D01*
X6756867Y-11708684D02*
X6737820Y-11699160D01*
X6737820Y-11699160D02*
X6728296Y-11689636D01*
X6728296Y-11689636D02*
X6718772Y-11670588D01*
X6718772Y-11670588D02*
X6718772Y-11613446D01*
X6718772Y-11613446D02*
X6728296Y-11594398D01*
X6728296Y-11594398D02*
X6737820Y-11584874D01*
X6737820Y-11584874D02*
X6756867Y-11575350D01*
X6756867Y-11575350D02*
X6785439Y-11575350D01*
X6785439Y-11575350D02*
X6804486Y-11584874D01*
X6804486Y-11584874D02*
X6814010Y-11594398D01*
X6814010Y-11594398D02*
X6823534Y-11613446D01*
X6823534Y-11613446D02*
X6823534Y-11670588D01*
X6823534Y-11670588D02*
X6814010Y-11689636D01*
X6814010Y-11689636D02*
X6804486Y-11699160D01*
X6804486Y-11699160D02*
X6785439Y-11708684D01*
X6785439Y-11708684D02*
X6756867Y-11708684D01*
X6937820Y-11708684D02*
X6918772Y-11699160D01*
X6918772Y-11699160D02*
X6909248Y-11680112D01*
X6909248Y-11680112D02*
X6909248Y-11508684D01*
X7090201Y-11699160D02*
X7071153Y-11708684D01*
X7071153Y-11708684D02*
X7033058Y-11708684D01*
X7033058Y-11708684D02*
X7014010Y-11699160D01*
X7014010Y-11699160D02*
X7004486Y-11680112D01*
X7004486Y-11680112D02*
X7004486Y-11603922D01*
X7004486Y-11603922D02*
X7014010Y-11584874D01*
X7014010Y-11584874D02*
X7033058Y-11575350D01*
X7033058Y-11575350D02*
X7071153Y-11575350D01*
X7071153Y-11575350D02*
X7090201Y-11584874D01*
X7090201Y-11584874D02*
X7099724Y-11603922D01*
X7099724Y-11603922D02*
X7099724Y-11622969D01*
X7099724Y-11622969D02*
X7004486Y-11642017D01*
X7175915Y-11699160D02*
X7194963Y-11708684D01*
X7194963Y-11708684D02*
X7233058Y-11708684D01*
X7233058Y-11708684D02*
X7252105Y-11699160D01*
X7252105Y-11699160D02*
X7261629Y-11680112D01*
X7261629Y-11680112D02*
X7261629Y-11670588D01*
X7261629Y-11670588D02*
X7252105Y-11651541D01*
X7252105Y-11651541D02*
X7233058Y-11642017D01*
X7233058Y-11642017D02*
X7204486Y-11642017D01*
X7204486Y-11642017D02*
X7185439Y-11632493D01*
X7185439Y-11632493D02*
X7175915Y-11613446D01*
X7175915Y-11613446D02*
X7175915Y-11603922D01*
X7175915Y-11603922D02*
X7185439Y-11584874D01*
X7185439Y-11584874D02*
X7204486Y-11575350D01*
X7204486Y-11575350D02*
X7233058Y-11575350D01*
X7233058Y-11575350D02*
X7252105Y-11584874D01*
X7499725Y-11632493D02*
X7652106Y-11632493D01*
X7575915Y-11708684D02*
X7575915Y-11556303D01*
X8004486Y-11708684D02*
X7890201Y-11708684D01*
X7947344Y-11708684D02*
X7947344Y-11508684D01*
X7947344Y-11508684D02*
X7928296Y-11537255D01*
X7928296Y-11537255D02*
X7909248Y-11556303D01*
X7909248Y-11556303D02*
X7890201Y-11565827D01*
X8128296Y-11508684D02*
X8147344Y-11508684D01*
X8147344Y-11508684D02*
X8166391Y-11518208D01*
X8166391Y-11518208D02*
X8175915Y-11527731D01*
X8175915Y-11527731D02*
X8185439Y-11546779D01*
X8185439Y-11546779D02*
X8194963Y-11584874D01*
X8194963Y-11584874D02*
X8194963Y-11632493D01*
X8194963Y-11632493D02*
X8185439Y-11670588D01*
X8185439Y-11670588D02*
X8175915Y-11689636D01*
X8175915Y-11689636D02*
X8166391Y-11699160D01*
X8166391Y-11699160D02*
X8147344Y-11708684D01*
X8147344Y-11708684D02*
X8128296Y-11708684D01*
X8128296Y-11708684D02*
X8109248Y-11699160D01*
X8109248Y-11699160D02*
X8099725Y-11689636D01*
X8099725Y-11689636D02*
X8090201Y-11670588D01*
X8090201Y-11670588D02*
X8080677Y-11632493D01*
X8080677Y-11632493D02*
X8080677Y-11584874D01*
X8080677Y-11584874D02*
X8090201Y-11546779D01*
X8090201Y-11546779D02*
X8099725Y-11527731D01*
X8099725Y-11527731D02*
X8109248Y-11518208D01*
X8109248Y-11518208D02*
X8128296Y-11508684D01*
X8318772Y-11508684D02*
X8337820Y-11508684D01*
X8337820Y-11508684D02*
X8356867Y-11518208D01*
X8356867Y-11518208D02*
X8366391Y-11527731D01*
X8366391Y-11527731D02*
X8375915Y-11546779D01*
X8375915Y-11546779D02*
X8385439Y-11584874D01*
X8385439Y-11584874D02*
X8385439Y-11632493D01*
X8385439Y-11632493D02*
X8375915Y-11670588D01*
X8375915Y-11670588D02*
X8366391Y-11689636D01*
X8366391Y-11689636D02*
X8356867Y-11699160D01*
X8356867Y-11699160D02*
X8337820Y-11708684D01*
X8337820Y-11708684D02*
X8318772Y-11708684D01*
X8318772Y-11708684D02*
X8299725Y-11699160D01*
X8299725Y-11699160D02*
X8290201Y-11689636D01*
X8290201Y-11689636D02*
X8280677Y-11670588D01*
X8280677Y-11670588D02*
X8271153Y-11632493D01*
X8271153Y-11632493D02*
X8271153Y-11584874D01*
X8271153Y-11584874D02*
X8280677Y-11546779D01*
X8280677Y-11546779D02*
X8290201Y-11527731D01*
X8290201Y-11527731D02*
X8299725Y-11518208D01*
X8299725Y-11518208D02*
X8318772Y-11508684D01*
X8614010Y-11699160D02*
X8633058Y-11708684D01*
X8633058Y-11708684D02*
X8671153Y-11708684D01*
X8671153Y-11708684D02*
X8690201Y-11699160D01*
X8690201Y-11699160D02*
X8699725Y-11680112D01*
X8699725Y-11680112D02*
X8699725Y-11670588D01*
X8699725Y-11670588D02*
X8690201Y-11651541D01*
X8690201Y-11651541D02*
X8671153Y-11642017D01*
X8671153Y-11642017D02*
X8642582Y-11642017D01*
X8642582Y-11642017D02*
X8623534Y-11632493D01*
X8623534Y-11632493D02*
X8614010Y-11613446D01*
X8614010Y-11613446D02*
X8614010Y-11603922D01*
X8614010Y-11603922D02*
X8623534Y-11584874D01*
X8623534Y-11584874D02*
X8642582Y-11575350D01*
X8642582Y-11575350D02*
X8671153Y-11575350D01*
X8671153Y-11575350D02*
X8690201Y-11584874D01*
X8814010Y-11708684D02*
X8794963Y-11699160D01*
X8794963Y-11699160D02*
X8785439Y-11680112D01*
X8785439Y-11680112D02*
X8785439Y-11508684D01*
X8918772Y-11708684D02*
X8899725Y-11699160D01*
X8899725Y-11699160D02*
X8890201Y-11689636D01*
X8890201Y-11689636D02*
X8880677Y-11670588D01*
X8880677Y-11670588D02*
X8880677Y-11613446D01*
X8880677Y-11613446D02*
X8890201Y-11594398D01*
X8890201Y-11594398D02*
X8899725Y-11584874D01*
X8899725Y-11584874D02*
X8918772Y-11575350D01*
X8918772Y-11575350D02*
X8947344Y-11575350D01*
X8947344Y-11575350D02*
X8966391Y-11584874D01*
X8966391Y-11584874D02*
X8975915Y-11594398D01*
X8975915Y-11594398D02*
X8985439Y-11613446D01*
X8985439Y-11613446D02*
X8985439Y-11670588D01*
X8985439Y-11670588D02*
X8975915Y-11689636D01*
X8975915Y-11689636D02*
X8966391Y-11699160D01*
X8966391Y-11699160D02*
X8947344Y-11708684D01*
X8947344Y-11708684D02*
X8918772Y-11708684D01*
X9042582Y-11575350D02*
X9118772Y-11575350D01*
X9071153Y-11508684D02*
X9071153Y-11680112D01*
X9071153Y-11680112D02*
X9080677Y-11699160D01*
X9080677Y-11699160D02*
X9099725Y-11708684D01*
X9099725Y-11708684D02*
X9118772Y-11708684D01*
X9175915Y-11699160D02*
X9194963Y-11708684D01*
X9194963Y-11708684D02*
X9233058Y-11708684D01*
X9233058Y-11708684D02*
X9252106Y-11699160D01*
X9252106Y-11699160D02*
X9261630Y-11680112D01*
X9261630Y-11680112D02*
X9261630Y-11670588D01*
X9261630Y-11670588D02*
X9252106Y-11651541D01*
X9252106Y-11651541D02*
X9233058Y-11642017D01*
X9233058Y-11642017D02*
X9204487Y-11642017D01*
X9204487Y-11642017D02*
X9185439Y-11632493D01*
X9185439Y-11632493D02*
X9175915Y-11613446D01*
X9175915Y-11613446D02*
X9175915Y-11603922D01*
X9175915Y-11603922D02*
X9185439Y-11584874D01*
X9185439Y-11584874D02*
X9204487Y-11575350D01*
X9204487Y-11575350D02*
X9233058Y-11575350D01*
X9233058Y-11575350D02*
X9252106Y-11584874D01*
X9328296Y-11784874D02*
X9337820Y-11775350D01*
X9337820Y-11775350D02*
X9356868Y-11746779D01*
X9356868Y-11746779D02*
X9366391Y-11727731D01*
X9366391Y-11727731D02*
X9375915Y-11699160D01*
X9375915Y-11699160D02*
X9385439Y-11651541D01*
X9385439Y-11651541D02*
X9385439Y-11613446D01*
X9385439Y-11613446D02*
X9375915Y-11565827D01*
X9375915Y-11565827D02*
X9366391Y-11537255D01*
X9366391Y-11537255D02*
X9356868Y-11518208D01*
X9356868Y-11518208D02*
X9337820Y-11489636D01*
X9337820Y-11489636D02*
X9328296Y-11480112D01*
X2453233Y-11781200D02*
X2453233Y-11981200D01*
X2353233Y-11881200D02*
X2553233Y-11881200D01*
X2804486Y-11791731D02*
X2814010Y-11782208D01*
X2814010Y-11782208D02*
X2833057Y-11772684D01*
X2833057Y-11772684D02*
X2880676Y-11772684D01*
X2880676Y-11772684D02*
X2899724Y-11782208D01*
X2899724Y-11782208D02*
X2909248Y-11791731D01*
X2909248Y-11791731D02*
X2918772Y-11810779D01*
X2918772Y-11810779D02*
X2918772Y-11829827D01*
X2918772Y-11829827D02*
X2909248Y-11858398D01*
X2909248Y-11858398D02*
X2794962Y-11972684D01*
X2794962Y-11972684D02*
X2918772Y-11972684D01*
X3004486Y-11953636D02*
X3014010Y-11963160D01*
X3014010Y-11963160D02*
X3004486Y-11972684D01*
X3004486Y-11972684D02*
X2994962Y-11963160D01*
X2994962Y-11963160D02*
X3004486Y-11953636D01*
X3004486Y-11953636D02*
X3004486Y-11972684D01*
X3194962Y-11772684D02*
X3099724Y-11772684D01*
X3099724Y-11772684D02*
X3090200Y-11867922D01*
X3090200Y-11867922D02*
X3099724Y-11858398D01*
X3099724Y-11858398D02*
X3118772Y-11848874D01*
X3118772Y-11848874D02*
X3166391Y-11848874D01*
X3166391Y-11848874D02*
X3185438Y-11858398D01*
X3185438Y-11858398D02*
X3194962Y-11867922D01*
X3194962Y-11867922D02*
X3204486Y-11886969D01*
X3204486Y-11886969D02*
X3204486Y-11934588D01*
X3204486Y-11934588D02*
X3194962Y-11953636D01*
X3194962Y-11953636D02*
X3185438Y-11963160D01*
X3185438Y-11963160D02*
X3166391Y-11972684D01*
X3166391Y-11972684D02*
X3118772Y-11972684D01*
X3118772Y-11972684D02*
X3099724Y-11963160D01*
X3099724Y-11963160D02*
X3090200Y-11953636D01*
X3328295Y-11772684D02*
X3347343Y-11772684D01*
X3347343Y-11772684D02*
X3366391Y-11782208D01*
X3366391Y-11782208D02*
X3375915Y-11791731D01*
X3375915Y-11791731D02*
X3385438Y-11810779D01*
X3385438Y-11810779D02*
X3394962Y-11848874D01*
X3394962Y-11848874D02*
X3394962Y-11896493D01*
X3394962Y-11896493D02*
X3385438Y-11934588D01*
X3385438Y-11934588D02*
X3375915Y-11953636D01*
X3375915Y-11953636D02*
X3366391Y-11963160D01*
X3366391Y-11963160D02*
X3347343Y-11972684D01*
X3347343Y-11972684D02*
X3328295Y-11972684D01*
X3328295Y-11972684D02*
X3309248Y-11963160D01*
X3309248Y-11963160D02*
X3299724Y-11953636D01*
X3299724Y-11953636D02*
X3290200Y-11934588D01*
X3290200Y-11934588D02*
X3280676Y-11896493D01*
X3280676Y-11896493D02*
X3280676Y-11848874D01*
X3280676Y-11848874D02*
X3290200Y-11810779D01*
X3290200Y-11810779D02*
X3299724Y-11791731D01*
X3299724Y-11791731D02*
X3309248Y-11782208D01*
X3309248Y-11782208D02*
X3328295Y-11772684D01*
X3518772Y-11772684D02*
X3537819Y-11772684D01*
X3537819Y-11772684D02*
X3556867Y-11782208D01*
X3556867Y-11782208D02*
X3566391Y-11791731D01*
X3566391Y-11791731D02*
X3575915Y-11810779D01*
X3575915Y-11810779D02*
X3585438Y-11848874D01*
X3585438Y-11848874D02*
X3585438Y-11896493D01*
X3585438Y-11896493D02*
X3575915Y-11934588D01*
X3575915Y-11934588D02*
X3566391Y-11953636D01*
X3566391Y-11953636D02*
X3556867Y-11963160D01*
X3556867Y-11963160D02*
X3537819Y-11972684D01*
X3537819Y-11972684D02*
X3518772Y-11972684D01*
X3518772Y-11972684D02*
X3499724Y-11963160D01*
X3499724Y-11963160D02*
X3490200Y-11953636D01*
X3490200Y-11953636D02*
X3480676Y-11934588D01*
X3480676Y-11934588D02*
X3471153Y-11896493D01*
X3471153Y-11896493D02*
X3471153Y-11848874D01*
X3471153Y-11848874D02*
X3480676Y-11810779D01*
X3480676Y-11810779D02*
X3490200Y-11791731D01*
X3490200Y-11791731D02*
X3499724Y-11782208D01*
X3499724Y-11782208D02*
X3518772Y-11772684D01*
X3671153Y-11972684D02*
X3671153Y-11839350D01*
X3671153Y-11858398D02*
X3680676Y-11848874D01*
X3680676Y-11848874D02*
X3699724Y-11839350D01*
X3699724Y-11839350D02*
X3728296Y-11839350D01*
X3728296Y-11839350D02*
X3747343Y-11848874D01*
X3747343Y-11848874D02*
X3756867Y-11867922D01*
X3756867Y-11867922D02*
X3756867Y-11972684D01*
X3756867Y-11867922D02*
X3766391Y-11848874D01*
X3766391Y-11848874D02*
X3785438Y-11839350D01*
X3785438Y-11839350D02*
X3814010Y-11839350D01*
X3814010Y-11839350D02*
X3833057Y-11848874D01*
X3833057Y-11848874D02*
X3842581Y-11867922D01*
X3842581Y-11867922D02*
X3842581Y-11972684D01*
X3937819Y-11972684D02*
X3937819Y-11839350D01*
X3937819Y-11858398D02*
X3947343Y-11848874D01*
X3947343Y-11848874D02*
X3966391Y-11839350D01*
X3966391Y-11839350D02*
X3994962Y-11839350D01*
X3994962Y-11839350D02*
X4014010Y-11848874D01*
X4014010Y-11848874D02*
X4023534Y-11867922D01*
X4023534Y-11867922D02*
X4023534Y-11972684D01*
X4023534Y-11867922D02*
X4033057Y-11848874D01*
X4033057Y-11848874D02*
X4052105Y-11839350D01*
X4052105Y-11839350D02*
X4080676Y-11839350D01*
X4080676Y-11839350D02*
X4099724Y-11848874D01*
X4099724Y-11848874D02*
X4109248Y-11867922D01*
X4109248Y-11867922D02*
X4109248Y-11972684D01*
X4499724Y-11763160D02*
X4328296Y-12020303D01*
X4756867Y-11772684D02*
X4775915Y-11772684D01*
X4775915Y-11772684D02*
X4794962Y-11782208D01*
X4794962Y-11782208D02*
X4804486Y-11791731D01*
X4804486Y-11791731D02*
X4814010Y-11810779D01*
X4814010Y-11810779D02*
X4823534Y-11848874D01*
X4823534Y-11848874D02*
X4823534Y-11896493D01*
X4823534Y-11896493D02*
X4814010Y-11934588D01*
X4814010Y-11934588D02*
X4804486Y-11953636D01*
X4804486Y-11953636D02*
X4794962Y-11963160D01*
X4794962Y-11963160D02*
X4775915Y-11972684D01*
X4775915Y-11972684D02*
X4756867Y-11972684D01*
X4756867Y-11972684D02*
X4737820Y-11963160D01*
X4737820Y-11963160D02*
X4728296Y-11953636D01*
X4728296Y-11953636D02*
X4718772Y-11934588D01*
X4718772Y-11934588D02*
X4709248Y-11896493D01*
X4709248Y-11896493D02*
X4709248Y-11848874D01*
X4709248Y-11848874D02*
X4718772Y-11810779D01*
X4718772Y-11810779D02*
X4728296Y-11791731D01*
X4728296Y-11791731D02*
X4737820Y-11782208D01*
X4737820Y-11782208D02*
X4756867Y-11772684D01*
X4909248Y-11953636D02*
X4918772Y-11963160D01*
X4918772Y-11963160D02*
X4909248Y-11972684D01*
X4909248Y-11972684D02*
X4899724Y-11963160D01*
X4899724Y-11963160D02*
X4909248Y-11953636D01*
X4909248Y-11953636D02*
X4909248Y-11972684D01*
X5042581Y-11772684D02*
X5061629Y-11772684D01*
X5061629Y-11772684D02*
X5080677Y-11782208D01*
X5080677Y-11782208D02*
X5090201Y-11791731D01*
X5090201Y-11791731D02*
X5099724Y-11810779D01*
X5099724Y-11810779D02*
X5109248Y-11848874D01*
X5109248Y-11848874D02*
X5109248Y-11896493D01*
X5109248Y-11896493D02*
X5099724Y-11934588D01*
X5099724Y-11934588D02*
X5090201Y-11953636D01*
X5090201Y-11953636D02*
X5080677Y-11963160D01*
X5080677Y-11963160D02*
X5061629Y-11972684D01*
X5061629Y-11972684D02*
X5042581Y-11972684D01*
X5042581Y-11972684D02*
X5023534Y-11963160D01*
X5023534Y-11963160D02*
X5014010Y-11953636D01*
X5014010Y-11953636D02*
X5004486Y-11934588D01*
X5004486Y-11934588D02*
X4994962Y-11896493D01*
X4994962Y-11896493D02*
X4994962Y-11848874D01*
X4994962Y-11848874D02*
X5004486Y-11810779D01*
X5004486Y-11810779D02*
X5014010Y-11791731D01*
X5014010Y-11791731D02*
X5023534Y-11782208D01*
X5023534Y-11782208D02*
X5042581Y-11772684D01*
X5204486Y-11972684D02*
X5242581Y-11972684D01*
X5242581Y-11972684D02*
X5261629Y-11963160D01*
X5261629Y-11963160D02*
X5271153Y-11953636D01*
X5271153Y-11953636D02*
X5290201Y-11925065D01*
X5290201Y-11925065D02*
X5299724Y-11886969D01*
X5299724Y-11886969D02*
X5299724Y-11810779D01*
X5299724Y-11810779D02*
X5290201Y-11791731D01*
X5290201Y-11791731D02*
X5280677Y-11782208D01*
X5280677Y-11782208D02*
X5261629Y-11772684D01*
X5261629Y-11772684D02*
X5223534Y-11772684D01*
X5223534Y-11772684D02*
X5204486Y-11782208D01*
X5204486Y-11782208D02*
X5194962Y-11791731D01*
X5194962Y-11791731D02*
X5185439Y-11810779D01*
X5185439Y-11810779D02*
X5185439Y-11858398D01*
X5185439Y-11858398D02*
X5194962Y-11877446D01*
X5194962Y-11877446D02*
X5204486Y-11886969D01*
X5204486Y-11886969D02*
X5223534Y-11896493D01*
X5223534Y-11896493D02*
X5261629Y-11896493D01*
X5261629Y-11896493D02*
X5280677Y-11886969D01*
X5280677Y-11886969D02*
X5290201Y-11877446D01*
X5290201Y-11877446D02*
X5299724Y-11858398D01*
X5414010Y-11858398D02*
X5394962Y-11848874D01*
X5394962Y-11848874D02*
X5385439Y-11839350D01*
X5385439Y-11839350D02*
X5375915Y-11820303D01*
X5375915Y-11820303D02*
X5375915Y-11810779D01*
X5375915Y-11810779D02*
X5385439Y-11791731D01*
X5385439Y-11791731D02*
X5394962Y-11782208D01*
X5394962Y-11782208D02*
X5414010Y-11772684D01*
X5414010Y-11772684D02*
X5452105Y-11772684D01*
X5452105Y-11772684D02*
X5471153Y-11782208D01*
X5471153Y-11782208D02*
X5480677Y-11791731D01*
X5480677Y-11791731D02*
X5490201Y-11810779D01*
X5490201Y-11810779D02*
X5490201Y-11820303D01*
X5490201Y-11820303D02*
X5480677Y-11839350D01*
X5480677Y-11839350D02*
X5471153Y-11848874D01*
X5471153Y-11848874D02*
X5452105Y-11858398D01*
X5452105Y-11858398D02*
X5414010Y-11858398D01*
X5414010Y-11858398D02*
X5394962Y-11867922D01*
X5394962Y-11867922D02*
X5385439Y-11877446D01*
X5385439Y-11877446D02*
X5375915Y-11896493D01*
X5375915Y-11896493D02*
X5375915Y-11934588D01*
X5375915Y-11934588D02*
X5385439Y-11953636D01*
X5385439Y-11953636D02*
X5394962Y-11963160D01*
X5394962Y-11963160D02*
X5414010Y-11972684D01*
X5414010Y-11972684D02*
X5452105Y-11972684D01*
X5452105Y-11972684D02*
X5471153Y-11963160D01*
X5471153Y-11963160D02*
X5480677Y-11953636D01*
X5480677Y-11953636D02*
X5490201Y-11934588D01*
X5490201Y-11934588D02*
X5490201Y-11896493D01*
X5490201Y-11896493D02*
X5480677Y-11877446D01*
X5480677Y-11877446D02*
X5471153Y-11867922D01*
X5471153Y-11867922D02*
X5452105Y-11858398D01*
X5661629Y-11839350D02*
X5661629Y-11972684D01*
X5614010Y-11763160D02*
X5566391Y-11906017D01*
X5566391Y-11906017D02*
X5690200Y-11906017D01*
X5756867Y-11772684D02*
X5756867Y-11810779D01*
X5833058Y-11772684D02*
X5833058Y-11810779D01*
X6128296Y-12048874D02*
X6118772Y-12039350D01*
X6118772Y-12039350D02*
X6099724Y-12010779D01*
X6099724Y-12010779D02*
X6090201Y-11991731D01*
X6090201Y-11991731D02*
X6080677Y-11963160D01*
X6080677Y-11963160D02*
X6071153Y-11915541D01*
X6071153Y-11915541D02*
X6071153Y-11877446D01*
X6071153Y-11877446D02*
X6080677Y-11829827D01*
X6080677Y-11829827D02*
X6090201Y-11801255D01*
X6090201Y-11801255D02*
X6099724Y-11782208D01*
X6099724Y-11782208D02*
X6118772Y-11753636D01*
X6118772Y-11753636D02*
X6128296Y-11744112D01*
X6309248Y-11972684D02*
X6194962Y-11972684D01*
X6252105Y-11972684D02*
X6252105Y-11772684D01*
X6252105Y-11772684D02*
X6233058Y-11801255D01*
X6233058Y-11801255D02*
X6214010Y-11820303D01*
X6214010Y-11820303D02*
X6194962Y-11829827D01*
X6433058Y-11772684D02*
X6452105Y-11772684D01*
X6452105Y-11772684D02*
X6471153Y-11782208D01*
X6471153Y-11782208D02*
X6480677Y-11791731D01*
X6480677Y-11791731D02*
X6490201Y-11810779D01*
X6490201Y-11810779D02*
X6499724Y-11848874D01*
X6499724Y-11848874D02*
X6499724Y-11896493D01*
X6499724Y-11896493D02*
X6490201Y-11934588D01*
X6490201Y-11934588D02*
X6480677Y-11953636D01*
X6480677Y-11953636D02*
X6471153Y-11963160D01*
X6471153Y-11963160D02*
X6452105Y-11972684D01*
X6452105Y-11972684D02*
X6433058Y-11972684D01*
X6433058Y-11972684D02*
X6414010Y-11963160D01*
X6414010Y-11963160D02*
X6404486Y-11953636D01*
X6404486Y-11953636D02*
X6394962Y-11934588D01*
X6394962Y-11934588D02*
X6385439Y-11896493D01*
X6385439Y-11896493D02*
X6385439Y-11848874D01*
X6385439Y-11848874D02*
X6394962Y-11810779D01*
X6394962Y-11810779D02*
X6404486Y-11791731D01*
X6404486Y-11791731D02*
X6414010Y-11782208D01*
X6414010Y-11782208D02*
X6433058Y-11772684D01*
X6623534Y-11772684D02*
X6642582Y-11772684D01*
X6642582Y-11772684D02*
X6661629Y-11782208D01*
X6661629Y-11782208D02*
X6671153Y-11791731D01*
X6671153Y-11791731D02*
X6680677Y-11810779D01*
X6680677Y-11810779D02*
X6690201Y-11848874D01*
X6690201Y-11848874D02*
X6690201Y-11896493D01*
X6690201Y-11896493D02*
X6680677Y-11934588D01*
X6680677Y-11934588D02*
X6671153Y-11953636D01*
X6671153Y-11953636D02*
X6661629Y-11963160D01*
X6661629Y-11963160D02*
X6642582Y-11972684D01*
X6642582Y-11972684D02*
X6623534Y-11972684D01*
X6623534Y-11972684D02*
X6604486Y-11963160D01*
X6604486Y-11963160D02*
X6594962Y-11953636D01*
X6594962Y-11953636D02*
X6585439Y-11934588D01*
X6585439Y-11934588D02*
X6575915Y-11896493D01*
X6575915Y-11896493D02*
X6575915Y-11848874D01*
X6575915Y-11848874D02*
X6585439Y-11810779D01*
X6585439Y-11810779D02*
X6594962Y-11791731D01*
X6594962Y-11791731D02*
X6604486Y-11782208D01*
X6604486Y-11782208D02*
X6623534Y-11772684D01*
X6928296Y-11972684D02*
X6928296Y-11772684D01*
X7014010Y-11972684D02*
X7014010Y-11867922D01*
X7014010Y-11867922D02*
X7004486Y-11848874D01*
X7004486Y-11848874D02*
X6985439Y-11839350D01*
X6985439Y-11839350D02*
X6956867Y-11839350D01*
X6956867Y-11839350D02*
X6937820Y-11848874D01*
X6937820Y-11848874D02*
X6928296Y-11858398D01*
X7137820Y-11972684D02*
X7118772Y-11963160D01*
X7118772Y-11963160D02*
X7109248Y-11953636D01*
X7109248Y-11953636D02*
X7099724Y-11934588D01*
X7099724Y-11934588D02*
X7099724Y-11877446D01*
X7099724Y-11877446D02*
X7109248Y-11858398D01*
X7109248Y-11858398D02*
X7118772Y-11848874D01*
X7118772Y-11848874D02*
X7137820Y-11839350D01*
X7137820Y-11839350D02*
X7166391Y-11839350D01*
X7166391Y-11839350D02*
X7185439Y-11848874D01*
X7185439Y-11848874D02*
X7194963Y-11858398D01*
X7194963Y-11858398D02*
X7204486Y-11877446D01*
X7204486Y-11877446D02*
X7204486Y-11934588D01*
X7204486Y-11934588D02*
X7194963Y-11953636D01*
X7194963Y-11953636D02*
X7185439Y-11963160D01*
X7185439Y-11963160D02*
X7166391Y-11972684D01*
X7166391Y-11972684D02*
X7137820Y-11972684D01*
X7318772Y-11972684D02*
X7299724Y-11963160D01*
X7299724Y-11963160D02*
X7290201Y-11944112D01*
X7290201Y-11944112D02*
X7290201Y-11772684D01*
X7471153Y-11963160D02*
X7452105Y-11972684D01*
X7452105Y-11972684D02*
X7414010Y-11972684D01*
X7414010Y-11972684D02*
X7394963Y-11963160D01*
X7394963Y-11963160D02*
X7385439Y-11944112D01*
X7385439Y-11944112D02*
X7385439Y-11867922D01*
X7385439Y-11867922D02*
X7394963Y-11848874D01*
X7394963Y-11848874D02*
X7414010Y-11839350D01*
X7414010Y-11839350D02*
X7452105Y-11839350D01*
X7452105Y-11839350D02*
X7471153Y-11848874D01*
X7471153Y-11848874D02*
X7480677Y-11867922D01*
X7480677Y-11867922D02*
X7480677Y-11886969D01*
X7480677Y-11886969D02*
X7385439Y-11906017D01*
X7556867Y-11963160D02*
X7575915Y-11972684D01*
X7575915Y-11972684D02*
X7614010Y-11972684D01*
X7614010Y-11972684D02*
X7633058Y-11963160D01*
X7633058Y-11963160D02*
X7642582Y-11944112D01*
X7642582Y-11944112D02*
X7642582Y-11934588D01*
X7642582Y-11934588D02*
X7633058Y-11915541D01*
X7633058Y-11915541D02*
X7614010Y-11906017D01*
X7614010Y-11906017D02*
X7585439Y-11906017D01*
X7585439Y-11906017D02*
X7566391Y-11896493D01*
X7566391Y-11896493D02*
X7556867Y-11877446D01*
X7556867Y-11877446D02*
X7556867Y-11867922D01*
X7556867Y-11867922D02*
X7566391Y-11848874D01*
X7566391Y-11848874D02*
X7585439Y-11839350D01*
X7585439Y-11839350D02*
X7614010Y-11839350D01*
X7614010Y-11839350D02*
X7633058Y-11848874D01*
X7709248Y-12048874D02*
X7718772Y-12039350D01*
X7718772Y-12039350D02*
X7737820Y-12010779D01*
X7737820Y-12010779D02*
X7747344Y-11991731D01*
X7747344Y-11991731D02*
X7756867Y-11963160D01*
X7756867Y-11963160D02*
X7766391Y-11915541D01*
X7766391Y-11915541D02*
X7766391Y-11877446D01*
X7766391Y-11877446D02*
X7756867Y-11829827D01*
X7756867Y-11829827D02*
X7747344Y-11801255D01*
X7747344Y-11801255D02*
X7737820Y-11782208D01*
X7737820Y-11782208D02*
X7718772Y-11753636D01*
X7718772Y-11753636D02*
X7709248Y-11744112D01*
M02*
