G04 #@! TF.GenerationSoftware,KiCad,Pcbnew,8.99.0-2193-g88272a59b7*
G04 #@! TF.CreationDate,2024-09-22T17:17:21+07:00*
G04 #@! TF.ProjectId,Unified-Daughterboard,556e6966-6965-4642-9d44-617567687465,C3*
G04 #@! TF.SameCoordinates,Original*
G04 #@! TF.FileFunction,Paste,Top*
G04 #@! TF.FilePolarity,Positive*
%FSLAX46Y46*%
G04 Gerber Fmt 4.6, Leading zero omitted, Abs format (unit mm)*
G04 Created by KiCad (PCBNEW 8.99.0-2193-g88272a59b7) date 2024-09-22 17:17:21*
%MOMM*%
%LPD*%
G01*
G04 APERTURE LIST*
G04 Aperture macros list*
%AMRoundRect*
0 Rectangle with rounded corners*
0 $1 Rounding radius*
0 $2 $3 $4 $5 $6 $7 $8 $9 X,Y pos of 4 corners*
0 Add a 4 corners polygon primitive as box body*
4,1,4,$2,$3,$4,$5,$6,$7,$8,$9,$2,$3,0*
0 Add four circle primitives for the rounded corners*
1,1,$1+$1,$2,$3*
1,1,$1+$1,$4,$5*
1,1,$1+$1,$6,$7*
1,1,$1+$1,$8,$9*
0 Add four rect primitives between the rounded corners*
20,1,$1+$1,$2,$3,$4,$5,0*
20,1,$1+$1,$4,$5,$6,$7,0*
20,1,$1+$1,$6,$7,$8,$9,0*
20,1,$1+$1,$8,$9,$2,$3,0*%
G04 Aperture macros list end*
%ADD10RoundRect,0.150000X0.150000X0.575000X-0.150000X0.575000X-0.150000X-0.575000X0.150000X-0.575000X0*%
%ADD11RoundRect,0.075000X0.075000X0.650000X-0.075000X0.650000X-0.075000X-0.650000X0.075000X-0.650000X0*%
%ADD12R,0.300000X1.100000*%
%ADD13R,2.300000X3.100000*%
%ADD14RoundRect,0.200000X-0.200000X-0.275000X0.200000X-0.275000X0.200000X0.275000X-0.200000X0.275000X0*%
G04 APERTURE END LIST*
D10*
X97855390Y-83892060D03*
X97055390Y-83892060D03*
D11*
X95855390Y-83892060D03*
X94859390Y-83892060D03*
X94355390Y-83892060D03*
X93355390Y-83892060D03*
D10*
X91355390Y-83892060D03*
X92155390Y-83892060D03*
D11*
X92855390Y-83892060D03*
X93855390Y-83892060D03*
X95355390Y-83892060D03*
X96355390Y-83892060D03*
D12*
X93605390Y-87842060D03*
X94105390Y-87842060D03*
X94605390Y-87842060D03*
D13*
X91935390Y-89542060D03*
D12*
X95105390Y-87842060D03*
X95605390Y-87842060D03*
D13*
X97275390Y-89542060D03*
D12*
X33605330Y-87842060D03*
X34105330Y-87842060D03*
X34605330Y-87842060D03*
D13*
X31935330Y-89542060D03*
D12*
X35105330Y-87842060D03*
X35605330Y-87842060D03*
D13*
X37275330Y-89542060D03*
D10*
X67855360Y-83892060D03*
X67055360Y-83892060D03*
D11*
X65855360Y-83892060D03*
X64859360Y-83892060D03*
X64355360Y-83892060D03*
X63355360Y-83892060D03*
D10*
X61355360Y-83892060D03*
X62155360Y-83892060D03*
D11*
X62855360Y-83892060D03*
X63855360Y-83892060D03*
X65355360Y-83892060D03*
X66355360Y-83892060D03*
D14*
X69539530Y-85832230D03*
X71189530Y-85832230D03*
D10*
X37855330Y-83892060D03*
X37055330Y-83892060D03*
D11*
X35855330Y-83892060D03*
X34859330Y-83892060D03*
X34355330Y-83892060D03*
X33355330Y-83892060D03*
D10*
X31355330Y-83892060D03*
X32155330Y-83892060D03*
D11*
X32855330Y-83892060D03*
X33855330Y-83892060D03*
X35355330Y-83892060D03*
X36355330Y-83892060D03*
D12*
X63605360Y-87842060D03*
X64105360Y-87842060D03*
X64605360Y-87842060D03*
D13*
X61935360Y-89542060D03*
D12*
X65105360Y-87842060D03*
X65605360Y-87842060D03*
D13*
X67275360Y-89542060D03*
D14*
X99539560Y-85832230D03*
X101189560Y-85832230D03*
X39539500Y-85832230D03*
X41189500Y-85832230D03*
X99539560Y-57332200D03*
X101189560Y-57332200D03*
D12*
X93605390Y-59342030D03*
X94105390Y-59342030D03*
X94605390Y-59342030D03*
D13*
X91935390Y-61042030D03*
D12*
X95105390Y-59342030D03*
X95605390Y-59342030D03*
D13*
X97275390Y-61042030D03*
D10*
X97855390Y-55392030D03*
X97055390Y-55392030D03*
D11*
X95855390Y-55392030D03*
X94859390Y-55392030D03*
X94355390Y-55392030D03*
X93355390Y-55392030D03*
D10*
X91355390Y-55392030D03*
X92155390Y-55392030D03*
D11*
X92855390Y-55392030D03*
X93855390Y-55392030D03*
X95355390Y-55392030D03*
X96355390Y-55392030D03*
D12*
X63605360Y-59342030D03*
X64105360Y-59342030D03*
X64605360Y-59342030D03*
D13*
X61935360Y-61042030D03*
D12*
X65105360Y-59342030D03*
X65605360Y-59342030D03*
D13*
X67275360Y-61042030D03*
D14*
X69539530Y-57332200D03*
X71189530Y-57332200D03*
D10*
X67855360Y-55392030D03*
X67055360Y-55392030D03*
D11*
X65855360Y-55392030D03*
X64859360Y-55392030D03*
X64355360Y-55392030D03*
X63355360Y-55392030D03*
D10*
X61355360Y-55392030D03*
X62155360Y-55392030D03*
D11*
X62855360Y-55392030D03*
X63855360Y-55392030D03*
X65355360Y-55392030D03*
X66355360Y-55392030D03*
D12*
X33605330Y-59342030D03*
X34105330Y-59342030D03*
X34605330Y-59342030D03*
D13*
X31935330Y-61042030D03*
D12*
X35105330Y-59342030D03*
X35605330Y-59342030D03*
D13*
X37275330Y-61042030D03*
D10*
X37855330Y-55392030D03*
X37055330Y-55392030D03*
D11*
X35855330Y-55392030D03*
X34859330Y-55392030D03*
X34355330Y-55392030D03*
X33355330Y-55392030D03*
D10*
X31355330Y-55392030D03*
X32155330Y-55392030D03*
D11*
X32855330Y-55392030D03*
X33855330Y-55392030D03*
X35355330Y-55392030D03*
X36355330Y-55392030D03*
D14*
X39539500Y-57332200D03*
X41189500Y-57332200D03*
D12*
X93605390Y-30842000D03*
X94105390Y-30842000D03*
X94605390Y-30842000D03*
D13*
X91935390Y-32542000D03*
D12*
X95105390Y-30842000D03*
X95605390Y-30842000D03*
D13*
X97275390Y-32542000D03*
D10*
X97855390Y-26892000D03*
X97055390Y-26892000D03*
D11*
X95855390Y-26892000D03*
X94859390Y-26892000D03*
X94355390Y-26892000D03*
X93355390Y-26892000D03*
D10*
X91355390Y-26892000D03*
X92155390Y-26892000D03*
D11*
X92855390Y-26892000D03*
X93855390Y-26892000D03*
X95355390Y-26892000D03*
X96355390Y-26892000D03*
D14*
X99539560Y-28832170D03*
X101189560Y-28832170D03*
D11*
X66355360Y-26892000D03*
X65355360Y-26892000D03*
X63855360Y-26892000D03*
X62855360Y-26892000D03*
D10*
X62155360Y-26892000D03*
X61355360Y-26892000D03*
D11*
X63355360Y-26892000D03*
X64355360Y-26892000D03*
X64859360Y-26892000D03*
X65855360Y-26892000D03*
D10*
X67055360Y-26892000D03*
X67855360Y-26892000D03*
D14*
X71189530Y-28832170D03*
X69539530Y-28832170D03*
D13*
X67275360Y-32542000D03*
D12*
X65605360Y-30842000D03*
X65105360Y-30842000D03*
D13*
X61935360Y-32542000D03*
D12*
X64605360Y-30842000D03*
X64105360Y-30842000D03*
X63605360Y-30842000D03*
D10*
X37855330Y-26892000D03*
X37055330Y-26892000D03*
D11*
X35855330Y-26892000D03*
X34859330Y-26892000D03*
X34355330Y-26892000D03*
X33355330Y-26892000D03*
D10*
X31355330Y-26892000D03*
X32155330Y-26892000D03*
D11*
X32855330Y-26892000D03*
X33855330Y-26892000D03*
X35355330Y-26892000D03*
X36355330Y-26892000D03*
D14*
X39539500Y-28832170D03*
X41189500Y-28832170D03*
D12*
X33605330Y-30842000D03*
X34105330Y-30842000D03*
X34605330Y-30842000D03*
D13*
X31935330Y-32542000D03*
D12*
X35105330Y-30842000D03*
X35605330Y-30842000D03*
D13*
X37275330Y-32542000D03*
M02*
