M48
; DRILL file {KiCad 8.99.0-2194-gb3b7cbcab2} date 2024-09-18T03:52:11+0700
; FORMAT={-:-/ absolute / inch / decimal}
; #@! TF.CreationDate,2024-09-18T03:52:11+07:00
; #@! TF.GenerationSoftware,Kicad,Pcbnew,8.99.0-2194-gb3b7cbcab2
; #@! TF.FileFunction,NonPlated,1,2,NPTH
FMAT,2
INCH
; #@! TA.AperFunction,NonPlated,NPTH,ComponentDrill
T1C0.0256
%
G90
G05
T1
X1.2486Y-1.0065
X1.2486Y-1.7073
X1.2486Y-2.4081
X1.2486Y-3.1089
X1.2486Y-3.8097
X1.4762Y-1.0065
X1.4762Y-1.7073
X1.4762Y-2.4081
X1.4762Y-3.1089
X1.4762Y-3.8097
X1.9985Y-1.0069
X1.9985Y-1.7077
X1.9985Y-2.4085
X1.9985Y-3.1093
X1.9985Y-3.8101
X2.2261Y-1.0069
X2.2261Y-1.7077
X2.2261Y-2.4085
X2.2261Y-3.1093
X2.2261Y-3.8101
X2.7484Y-1.0073
X2.7484Y-1.7081
X2.7484Y-2.4089
X2.7484Y-3.1097
X2.7484Y-3.8105
X2.976Y-1.0073
X2.976Y-1.7081
X2.976Y-2.4089
X2.976Y-3.1097
X2.976Y-3.8105
X3.4983Y-1.0077
X3.4983Y-1.7085
X3.4983Y-2.4093
X3.4983Y-3.1101
X3.4983Y-3.8109
X3.7259Y-1.0077
X3.7259Y-1.7085
X3.7259Y-2.4093
X3.7259Y-3.1101
X3.7259Y-3.8109
X4.2482Y-1.0081
X4.2482Y-1.7089
X4.2482Y-2.4097
X4.2482Y-3.1105
X4.2482Y-3.8113
X4.4757Y-1.0081
X4.4757Y-1.7089
X4.4757Y-2.4097
X4.4757Y-3.1105
X4.4757Y-3.8113
M30
