M48
; DRILL file {KiCad 8.99.0-2194-gb3b7cbcab2} date 2024-09-18T03:52:11+0700
; FORMAT={-:-/ absolute / inch / decimal}
; #@! TF.CreationDate,2024-09-18T03:52:11+07:00
; #@! TF.GenerationSoftware,Kicad,Pcbnew,8.99.0-2194-gb3b7cbcab2
; #@! TF.FileFunction,Plated,1,2,PTH
FMAT,2
INCH
; #@! TA.AperFunction,Plated,PTH,ViaDrill
T1C0.0157
; #@! TA.AperFunction,Plated,PTH,ComponentDrill
T2C0.0236
; #@! TA.AperFunction,Plated,PTH,ComponentDrill
T3C0.0984
%
G90
G05
T1
X1.317Y-1.1355
X1.317Y-1.8363
X1.317Y-2.5371
X1.317Y-3.2379
X1.317Y-3.9387
X1.3478Y-0.9853
X1.3478Y-1.6861
X1.3478Y-2.3869
X1.3478Y-3.0876
X1.3478Y-3.7884
X1.4145Y-0.9827
X1.4145Y-1.6835
X1.4145Y-2.3843
X1.4145Y-3.0851
X1.4145Y-3.7859
X1.4584Y-1.1084
X1.4584Y-1.8091
X1.4584Y-2.5099
X1.4584Y-3.2107
X1.4584Y-3.9115
X2.0669Y-1.1359
X2.0669Y-1.8367
X2.0669Y-2.5375
X2.0669Y-3.2383
X2.0669Y-3.9391
X2.0977Y-0.9857
X2.0977Y-1.6865
X2.0977Y-2.3873
X2.0977Y-3.088
X2.0977Y-3.7888
X2.1644Y-0.9831
X2.1644Y-1.6839
X2.1644Y-2.3847
X2.1644Y-3.0855
X2.1644Y-3.7863
X2.2083Y-1.1087
X2.2083Y-1.8095
X2.2083Y-2.5103
X2.2083Y-3.2111
X2.2083Y-3.9119
X2.8168Y-1.1363
X2.8168Y-1.8371
X2.8168Y-2.5379
X2.8168Y-3.2387
X2.8168Y-3.9395
X2.8476Y-0.9861
X2.8476Y-1.6869
X2.8476Y-2.3876
X2.8476Y-3.0884
X2.8476Y-3.7892
X2.9143Y-0.9835
X2.9143Y-1.6843
X2.9143Y-2.3851
X2.9143Y-3.0859
X2.9143Y-3.7867
X2.9582Y-1.1091
X2.9582Y-1.8099
X2.9582Y-2.5107
X2.9582Y-3.2115
X2.9582Y-3.9123
X3.5666Y-1.1367
X3.5666Y-1.8375
X3.5666Y-2.5383
X3.5666Y-3.2391
X3.5666Y-3.9398
X3.5975Y-0.9865
X3.5975Y-1.6873
X3.5975Y-2.388
X3.5975Y-3.0888
X3.5975Y-3.7896
X3.6642Y-0.9839
X3.6642Y-1.6847
X3.6642Y-2.3855
X3.6642Y-3.0863
X3.6642Y-3.7871
X3.7081Y-1.1095
X3.7081Y-1.8103
X3.7081Y-2.5111
X3.7081Y-3.2119
X3.7081Y-3.9127
X4.3165Y-1.1371
X4.3165Y-1.8379
X4.3165Y-2.5387
X4.3165Y-3.2395
X4.3165Y-3.9402
X4.3474Y-0.9869
X4.3474Y-1.6876
X4.3474Y-2.3884
X4.3474Y-3.0892
X4.3474Y-3.79
X4.4141Y-0.9843
X4.4141Y-1.6851
X4.4141Y-2.3859
X4.4141Y-3.0867
X4.4141Y-3.7874
X4.458Y-1.1099
X4.458Y-1.8107
X4.458Y-2.5115
X4.458Y-3.2123
X4.458Y-3.9131
T3
X1.0869Y-0.8393
X1.0869Y-1.3314
X1.0869Y-1.54
X1.0869Y-2.0322
X1.0869Y-2.2408
X1.0869Y-2.733
X1.0869Y-2.9416
X1.0869Y-3.4337
X1.0869Y-3.6424
X1.0869Y-4.1345
X1.6381Y-0.8393
X1.6381Y-1.3314
X1.6381Y-1.54
X1.6381Y-2.0322
X1.6381Y-2.2408
X1.6381Y-2.733
X1.6381Y-2.9416
X1.6381Y-3.4337
X1.6381Y-3.6424
X1.6381Y-4.1345
X1.8368Y-0.8396
X1.8368Y-1.3318
X1.8368Y-1.5404
X1.8368Y-2.0326
X1.8368Y-2.2412
X1.8368Y-2.7333
X1.8368Y-2.942
X1.8368Y-3.4341
X1.8368Y-3.6428
X1.8368Y-4.1349
X2.388Y-0.8396
X2.388Y-1.3318
X2.388Y-1.5404
X2.388Y-2.0326
X2.388Y-2.2412
X2.388Y-2.7333
X2.388Y-2.942
X2.388Y-3.4341
X2.388Y-3.6428
X2.388Y-4.1349
X2.5867Y-0.84
X2.5867Y-1.3322
X2.5867Y-1.5408
X2.5867Y-2.033
X2.5867Y-2.2416
X2.5867Y-2.7337
X2.5867Y-2.9424
X2.5867Y-3.4345
X2.5867Y-3.6432
X2.5867Y-4.1353
X3.1379Y-0.84
X3.1379Y-1.3322
X3.1379Y-1.5408
X3.1379Y-2.033
X3.1379Y-2.2416
X3.1379Y-2.7337
X3.1379Y-2.9424
X3.1379Y-3.4345
X3.1379Y-3.6432
X3.1379Y-4.1353
X3.3366Y-0.8404
X3.3366Y-1.3326
X3.3366Y-1.5412
X3.3366Y-2.0333
X3.3366Y-2.242
X3.3366Y-2.7341
X3.3366Y-2.9428
X3.3366Y-3.4349
X3.3366Y-3.6436
X3.3366Y-4.1357
X3.8877Y-0.8404
X3.8877Y-1.3326
X3.8877Y-1.5412
X3.8877Y-2.0333
X3.8877Y-2.242
X3.8877Y-2.7341
X3.8877Y-2.9428
X3.8877Y-3.4349
X3.8877Y-3.6436
X3.8877Y-4.1357
X4.0865Y-0.8408
X4.0865Y-1.333
X4.0865Y-1.5416
X4.0865Y-2.0337
X4.0865Y-2.2424
X4.0865Y-2.7345
X4.0865Y-2.9432
X4.0865Y-3.4353
X4.0865Y-3.644
X4.0865Y-4.1361
X4.6376Y-0.8408
X4.6376Y-1.333
X4.6376Y-1.5416
X4.6376Y-2.0337
X4.6376Y-2.2424
X4.6376Y-2.7345
X4.6376Y-2.9432
X4.6376Y-3.4353
X4.6376Y-3.644
X4.6376Y-4.1361
T2
G00X1.1931Y-0.8747
M15
G01X1.1931Y-0.8511
M16
G05
G00X1.1931Y-1.0499
M15
G01X1.1931Y-1.0066
M16
G05
G00X1.1931Y-1.5755
M15
G01X1.1931Y-1.5519
M16
G05
G00X1.1931Y-1.7507
M15
G01X1.1931Y-1.7074
M16
G05
G00X1.1931Y-2.2763
M15
G01X1.1931Y-2.2526
M16
G05
G00X1.1931Y-2.4515
M15
G01X1.1931Y-2.4081
M16
G05
G00X1.1931Y-2.977
M15
G01X1.1931Y-2.9534
M16
G05
G00X1.1931Y-3.1522
M15
G01X1.1931Y-3.1089
M16
G05
G00X1.1931Y-3.6778
M15
G01X1.1931Y-3.6542
M16
G05
G00X1.1931Y-3.853
M15
G01X1.1931Y-3.8097
M16
G05
G00X1.5317Y-0.8747
M15
G01X1.5317Y-0.8511
M16
G05
G00X1.5317Y-1.0499
M15
G01X1.5317Y-1.0066
M16
G05
G00X1.5317Y-1.5755
M15
G01X1.5317Y-1.5519
M16
G05
G00X1.5317Y-1.7507
M15
G01X1.5317Y-1.7074
M16
G05
G00X1.5317Y-2.2763
M15
G01X1.5317Y-2.2526
M16
G05
G00X1.5317Y-2.4515
M15
G01X1.5317Y-2.4081
M16
G05
G00X1.5317Y-2.977
M15
G01X1.5317Y-2.9534
M16
G05
G00X1.5317Y-3.1522
M15
G01X1.5317Y-3.1089
M16
G05
G00X1.5317Y-3.6778
M15
G01X1.5317Y-3.6542
M16
G05
G00X1.5317Y-3.853
M15
G01X1.5317Y-3.8097
M16
G05
G00X1.943Y-0.8751
M15
G01X1.943Y-0.8515
M16
G05
G00X1.943Y-1.0503
M15
G01X1.943Y-1.007
M16
G05
G00X1.943Y-1.5759
M15
G01X1.943Y-1.5522
M16
G05
G00X1.943Y-1.7511
M15
G01X1.943Y-1.7078
M16
G05
G00X1.943Y-2.2767
M15
G01X1.943Y-2.253
M16
G05
G00X1.943Y-2.4519
M15
G01X1.943Y-2.4085
M16
G05
G00X1.943Y-2.9774
M15
G01X1.943Y-2.9538
M16
G05
G00X1.943Y-3.1526
M15
G01X1.943Y-3.1093
M16
G05
G00X1.943Y-3.6782
M15
G01X1.943Y-3.6546
M16
G05
G00X1.943Y-3.8534
M15
G01X1.943Y-3.8101
M16
G05
G00X2.2816Y-0.8751
M15
G01X2.2816Y-0.8515
M16
G05
G00X2.2816Y-1.0503
M15
G01X2.2816Y-1.007
M16
G05
G00X2.2816Y-1.5759
M15
G01X2.2816Y-1.5522
M16
G05
G00X2.2816Y-1.7511
M15
G01X2.2816Y-1.7078
M16
G05
G00X2.2816Y-2.2767
M15
G01X2.2816Y-2.253
M16
G05
G00X2.2816Y-2.4519
M15
G01X2.2816Y-2.4085
M16
G05
G00X2.2816Y-2.9774
M15
G01X2.2816Y-2.9538
M16
G05
G00X2.2816Y-3.1526
M15
G01X2.2816Y-3.1093
M16
G05
G00X2.2816Y-3.6782
M15
G01X2.2816Y-3.6546
M16
G05
G00X2.2816Y-3.8534
M15
G01X2.2816Y-3.8101
M16
G05
G00X2.6929Y-0.8755
M15
G01X2.6929Y-0.8519
M16
G05
G00X2.6929Y-1.0507
M15
G01X2.6929Y-1.0074
M16
G05
G00X2.6929Y-1.5763
M15
G01X2.6929Y-1.5526
M16
G05
G00X2.6929Y-1.7515
M15
G01X2.6929Y-1.7081
M16
G05
G00X2.6929Y-2.277
M15
G01X2.6929Y-2.2534
M16
G05
G00X2.6929Y-2.4522
M15
G01X2.6929Y-2.4089
M16
G05
G00X2.6929Y-2.9778
M15
G01X2.6929Y-2.9542
M16
G05
G00X2.6929Y-3.153
M15
G01X2.6929Y-3.1097
M16
G05
G00X2.6929Y-3.6786
M15
G01X2.6929Y-3.655
M16
G05
G00X2.6929Y-3.8538
M15
G01X2.6929Y-3.8105
M16
G05
G00X3.0315Y-0.8755
M15
G01X3.0315Y-0.8519
M16
G05
G00X3.0315Y-1.0507
M15
G01X3.0315Y-1.0074
M16
G05
G00X3.0315Y-1.5763
M15
G01X3.0315Y-1.5526
M16
G05
G00X3.0315Y-1.7515
M15
G01X3.0315Y-1.7081
M16
G05
G00X3.0315Y-2.277
M15
G01X3.0315Y-2.2534
M16
G05
G00X3.0315Y-2.4522
M15
G01X3.0315Y-2.4089
M16
G05
G00X3.0315Y-2.9778
M15
G01X3.0315Y-2.9542
M16
G05
G00X3.0315Y-3.153
M15
G01X3.0315Y-3.1097
M16
G05
G00X3.0315Y-3.6786
M15
G01X3.0315Y-3.655
M16
G05
G00X3.0315Y-3.8538
M15
G01X3.0315Y-3.8105
M16
G05
G00X3.4428Y-0.8759
M15
G01X3.4428Y-0.8522
M16
G05
G00X3.4428Y-1.0511
M15
G01X3.4428Y-1.0078
M16
G05
G00X3.4428Y-1.5767
M15
G01X3.4428Y-1.553
M16
G05
G00X3.4428Y-1.7519
M15
G01X3.4428Y-1.7085
M16
G05
G00X3.4428Y-2.2774
M15
G01X3.4428Y-2.2538
M16
G05
G00X3.4428Y-2.4526
M15
G01X3.4428Y-2.4093
M16
G05
G00X3.4428Y-2.9782
M15
G01X3.4428Y-2.9546
M16
G05
G00X3.4428Y-3.1534
M15
G01X3.4428Y-3.1101
M16
G05
G00X3.4428Y-3.679
M15
G01X3.4428Y-3.6554
M16
G05
G00X3.4428Y-3.8542
M15
G01X3.4428Y-3.8109
M16
G05
G00X3.7814Y-0.8759
M15
G01X3.7814Y-0.8522
M16
G05
G00X3.7814Y-1.0511
M15
G01X3.7814Y-1.0078
M16
G05
G00X3.7814Y-1.5767
M15
G01X3.7814Y-1.553
M16
G05
G00X3.7814Y-1.7519
M15
G01X3.7814Y-1.7085
M16
G05
G00X3.7814Y-2.2774
M15
G01X3.7814Y-2.2538
M16
G05
G00X3.7814Y-2.4526
M15
G01X3.7814Y-2.4093
M16
G05
G00X3.7814Y-2.9782
M15
G01X3.7814Y-2.9546
M16
G05
G00X3.7814Y-3.1534
M15
G01X3.7814Y-3.1101
M16
G05
G00X3.7814Y-3.679
M15
G01X3.7814Y-3.6554
M16
G05
G00X3.7814Y-3.8542
M15
G01X3.7814Y-3.8109
M16
G05
G00X4.1927Y-0.8763
M15
G01X4.1927Y-0.8526
M16
G05
G00X4.1927Y-1.0515
M15
G01X4.1927Y-1.0081
M16
G05
G00X4.1927Y-1.577
M15
G01X4.1927Y-1.5534
M16
G05
G00X4.1927Y-1.7522
M15
G01X4.1927Y-1.7089
M16
G05
G00X4.1927Y-2.2778
M15
G01X4.1927Y-2.2542
M16
G05
G00X4.1927Y-2.453
M15
G01X4.1927Y-2.4097
M16
G05
G00X4.1927Y-2.9786
M15
G01X4.1927Y-2.955
M16
G05
G00X4.1927Y-3.1538
M15
G01X4.1927Y-3.1105
M16
G05
G00X4.1927Y-3.6794
M15
G01X4.1927Y-3.6558
M16
G05
G00X4.1927Y-3.8546
M15
G01X4.1927Y-3.8113
M16
G05
G00X4.5313Y-0.8763
M15
G01X4.5313Y-0.8526
M16
G05
G00X4.5313Y-1.0515
M15
G01X4.5313Y-1.0081
M16
G05
G00X4.5313Y-1.577
M15
G01X4.5313Y-1.5534
M16
G05
G00X4.5313Y-1.7522
M15
G01X4.5313Y-1.7089
M16
G05
G00X4.5313Y-2.2778
M15
G01X4.5313Y-2.2542
M16
G05
G00X4.5313Y-2.453
M15
G01X4.5313Y-2.4097
M16
G05
G00X4.5313Y-2.9786
M15
G01X4.5313Y-2.955
M16
G05
G00X4.5313Y-3.1538
M15
G01X4.5313Y-3.1105
M16
G05
G00X4.5313Y-3.6794
M15
G01X4.5313Y-3.6558
M16
G05
G00X4.5313Y-3.8546
M15
G01X4.5313Y-3.8113
M16
G05
M30
