G04 #@! TF.GenerationSoftware,KiCad,Pcbnew,8.99.0-2194-gb3b7cbcab2*
G04 #@! TF.CreationDate,2024-09-18T03:52:13+07:00*
G04 #@! TF.ProjectId,Unified-Daughterboard,556e6966-6965-4642-9d44-617567687465,C3*
G04 #@! TF.SameCoordinates,Original*
G04 #@! TF.FileFunction,Legend,Bot*
G04 #@! TF.FilePolarity,Positive*
%FSLAX46Y46*%
G04 Gerber Fmt 4.6, Leading zero omitted, Abs format (unit mm)*
G04 Created by KiCad (PCBNEW 8.99.0-2194-gb3b7cbcab2) date 2024-09-18 03:52:13*
%MOMM*%
%LPD*%
G01*
G04 APERTURE LIST*
%ADD10C,0.752000*%
%ADD11O,1.202000X2.302000*%
%ADD12O,1.402000X2.002000*%
%ADD13C,3.002000*%
G04 APERTURE END LIST*
%LPC*%
D10*
X94636840Y-96796000D03*
X88856840Y-96796000D03*
D11*
X96046840Y-97347000D03*
D12*
X96046840Y-93147000D03*
D11*
X87446840Y-97347000D03*
D12*
X87446840Y-93147000D03*
D13*
X27607330Y-105017000D03*
X41607330Y-105017000D03*
X84748840Y-92547000D03*
X46654500Y-105027000D03*
D10*
X56542500Y-96776000D03*
X50762500Y-96776000D03*
D11*
X57952500Y-97327000D03*
D12*
X57952500Y-93127000D03*
D11*
X49352500Y-97327000D03*
D12*
X49352500Y-93127000D03*
D10*
X75589670Y-96786000D03*
X69809670Y-96786000D03*
D11*
X76999670Y-97337000D03*
D12*
X76999670Y-93137000D03*
D11*
X68399670Y-97337000D03*
D12*
X68399670Y-93137000D03*
D13*
X65701670Y-92537000D03*
X46654500Y-92527000D03*
X60654500Y-105027000D03*
X27607330Y-92517000D03*
D10*
X37495330Y-96766000D03*
X31715330Y-96766000D03*
D11*
X38905330Y-97317000D03*
D12*
X38905330Y-93117000D03*
D11*
X30305330Y-97317000D03*
D12*
X30305330Y-93117000D03*
D13*
X79701670Y-92537000D03*
X60654500Y-92527000D03*
X79701670Y-105037000D03*
X65701670Y-105037000D03*
X117796010Y-105057000D03*
X103796010Y-105057000D03*
X84748840Y-105047000D03*
D10*
X113684010Y-96806000D03*
X107904010Y-96806000D03*
D11*
X115094010Y-97357000D03*
D12*
X115094010Y-93157000D03*
D11*
X106494010Y-97357000D03*
D12*
X106494010Y-93157000D03*
D13*
X117796010Y-92557000D03*
X103796010Y-92557000D03*
X98748840Y-92547000D03*
X98748840Y-105047000D03*
X41607330Y-92517000D03*
D10*
X94636840Y-78996000D03*
X88856840Y-78996000D03*
D11*
X96046840Y-79547000D03*
D12*
X96046840Y-75347000D03*
D11*
X87446840Y-79547000D03*
D12*
X87446840Y-75347000D03*
D13*
X27607330Y-87217000D03*
X41607330Y-87217000D03*
X84748840Y-74747000D03*
X46654500Y-87227000D03*
D10*
X56542500Y-78976000D03*
X50762500Y-78976000D03*
D11*
X57952500Y-79527000D03*
D12*
X57952500Y-75327000D03*
D11*
X49352500Y-79527000D03*
D12*
X49352500Y-75327000D03*
D10*
X75589670Y-78986000D03*
X69809670Y-78986000D03*
D11*
X76999670Y-79537000D03*
D12*
X76999670Y-75337000D03*
D11*
X68399670Y-79537000D03*
D12*
X68399670Y-75337000D03*
D13*
X65701670Y-74737000D03*
X46654500Y-74727000D03*
X60654500Y-87227000D03*
X27607330Y-74717000D03*
D10*
X37495330Y-78966000D03*
X31715330Y-78966000D03*
D11*
X38905330Y-79517000D03*
D12*
X38905330Y-75317000D03*
D11*
X30305330Y-79517000D03*
D12*
X30305330Y-75317000D03*
D13*
X79701670Y-74737000D03*
X60654500Y-74727000D03*
X79701670Y-87237000D03*
X65701670Y-87237000D03*
X117796010Y-87257000D03*
X103796010Y-87257000D03*
X84748840Y-87247000D03*
D10*
X113684010Y-79006000D03*
X107904010Y-79006000D03*
D11*
X115094010Y-79557000D03*
D12*
X115094010Y-75357000D03*
D11*
X106494010Y-79557000D03*
D12*
X106494010Y-75357000D03*
D13*
X117796010Y-74757000D03*
X103796010Y-74757000D03*
X98748840Y-74747000D03*
X98748840Y-87247000D03*
X41607330Y-74717000D03*
D10*
X94636840Y-61196000D03*
X88856840Y-61196000D03*
D11*
X96046840Y-61747000D03*
D12*
X96046840Y-57547000D03*
D11*
X87446840Y-61747000D03*
D12*
X87446840Y-57547000D03*
D13*
X27607330Y-69417000D03*
X41607330Y-69417000D03*
X84748840Y-56947000D03*
X46654500Y-69427000D03*
D10*
X56542500Y-61176000D03*
X50762500Y-61176000D03*
D11*
X57952500Y-61727000D03*
D12*
X57952500Y-57527000D03*
D11*
X49352500Y-61727000D03*
D12*
X49352500Y-57527000D03*
D10*
X75589670Y-61186000D03*
X69809670Y-61186000D03*
D11*
X76999670Y-61737000D03*
D12*
X76999670Y-57537000D03*
D11*
X68399670Y-61737000D03*
D12*
X68399670Y-57537000D03*
D13*
X65701670Y-56937000D03*
X46654500Y-56927000D03*
X60654500Y-69427000D03*
X27607330Y-56917000D03*
D10*
X37495330Y-61166000D03*
X31715330Y-61166000D03*
D11*
X38905330Y-61717000D03*
D12*
X38905330Y-57517000D03*
D11*
X30305330Y-61717000D03*
D12*
X30305330Y-57517000D03*
D13*
X79701670Y-56937000D03*
X60654500Y-56927000D03*
X79701670Y-69437000D03*
X65701670Y-69437000D03*
X117796010Y-69457000D03*
X103796010Y-69457000D03*
X84748840Y-69447000D03*
D10*
X113684010Y-61206000D03*
X107904010Y-61206000D03*
D11*
X115094010Y-61757000D03*
D12*
X115094010Y-57557000D03*
D11*
X106494010Y-61757000D03*
D12*
X106494010Y-57557000D03*
D13*
X117796010Y-56957000D03*
X103796010Y-56957000D03*
X98748840Y-56947000D03*
X98748840Y-69447000D03*
X41607330Y-56917000D03*
D10*
X94636840Y-43396000D03*
X88856840Y-43396000D03*
D11*
X96046840Y-43947000D03*
D12*
X96046840Y-39747000D03*
D11*
X87446840Y-43947000D03*
D12*
X87446840Y-39747000D03*
D13*
X27607330Y-51617000D03*
X41607330Y-51617000D03*
X84748840Y-39147000D03*
X46654500Y-51627000D03*
D10*
X56542500Y-43376000D03*
X50762500Y-43376000D03*
D11*
X57952500Y-43927000D03*
D12*
X57952500Y-39727000D03*
D11*
X49352500Y-43927000D03*
D12*
X49352500Y-39727000D03*
D10*
X75589670Y-43386000D03*
X69809670Y-43386000D03*
D11*
X76999670Y-43937000D03*
D12*
X76999670Y-39737000D03*
D11*
X68399670Y-43937000D03*
D12*
X68399670Y-39737000D03*
D13*
X65701670Y-39137000D03*
X46654500Y-39127000D03*
X60654500Y-51627000D03*
X27607330Y-39117000D03*
D10*
X37495330Y-43366000D03*
X31715330Y-43366000D03*
D11*
X38905330Y-43917000D03*
D12*
X38905330Y-39717000D03*
D11*
X30305330Y-43917000D03*
D12*
X30305330Y-39717000D03*
D13*
X79701670Y-39137000D03*
X60654500Y-39127000D03*
X79701670Y-51637000D03*
X65701670Y-51637000D03*
X117796010Y-51657000D03*
X103796010Y-51657000D03*
X84748840Y-51647000D03*
D10*
X113684010Y-43406000D03*
X107904010Y-43406000D03*
D11*
X115094010Y-43957000D03*
D12*
X115094010Y-39757000D03*
D11*
X106494010Y-43957000D03*
D12*
X106494010Y-39757000D03*
D13*
X117796010Y-39157000D03*
X103796010Y-39157000D03*
X98748840Y-39147000D03*
X98748840Y-51647000D03*
X41607330Y-39117000D03*
X117796010Y-21357000D03*
X103796010Y-21357000D03*
X103796010Y-33857000D03*
D10*
X113684010Y-25606000D03*
X107904010Y-25606000D03*
D11*
X115094010Y-26157000D03*
D12*
X115094010Y-21957000D03*
D11*
X106494010Y-26157000D03*
D12*
X106494010Y-21957000D03*
D13*
X117796010Y-33857000D03*
X27607330Y-21317000D03*
X79701670Y-33837000D03*
X65701670Y-21337000D03*
X65701670Y-33837000D03*
D12*
X68399670Y-21937000D03*
D11*
X68399670Y-26137000D03*
D12*
X76999670Y-21937000D03*
D11*
X76999670Y-26137000D03*
D10*
X69809670Y-25586000D03*
X75589670Y-25586000D03*
D13*
X79701670Y-21337000D03*
D12*
X49352500Y-21927000D03*
D11*
X49352500Y-26127000D03*
D12*
X57952500Y-21927000D03*
D11*
X57952500Y-26127000D03*
D10*
X50762500Y-25576000D03*
X56542500Y-25576000D03*
D13*
X46654500Y-33827000D03*
X60654500Y-33827000D03*
X46654500Y-21327000D03*
X60654500Y-21327000D03*
D11*
X38905330Y-26117000D03*
D12*
X38905330Y-21917000D03*
D10*
X37495330Y-25566000D03*
X31715330Y-25566000D03*
D12*
X30305330Y-21917000D03*
D11*
X30305330Y-26117000D03*
D13*
X27607330Y-33817000D03*
X84748840Y-21347000D03*
X41607330Y-33817000D03*
D12*
X87446840Y-21947000D03*
D11*
X87446840Y-26147000D03*
D12*
X96046840Y-21947000D03*
D11*
X96046840Y-26147000D03*
D10*
X88856840Y-25596000D03*
X94636840Y-25596000D03*
D13*
X98748840Y-21347000D03*
X41607330Y-21317000D03*
X98748840Y-33847000D03*
X84748840Y-33847000D03*
%LPD*%
M02*
