%TF.GenerationSoftware,KiCad,Pcbnew,8.99.0-946-gf00a1ab517*%
%TF.CreationDate,2024-05-15T19:48:49+07:00*%
%TF.ProjectId,austin,61757374-696e-42e6-9b69-6361645f7063,v2.2.6*%
%TF.SameCoordinates,PX1a96a400PY40d23d0*%
%TF.FileFunction,Drillmap*%
%TF.FilePolarity,Positive*%
%FSLAX45Y45*%
G04 Gerber Fmt 4.5, Leading zero omitted, Abs format (unit mm)*
G04 Created by KiCad (PCBNEW 8.99.0-946-gf00a1ab517) date 2024-05-15 19:48:49*
%MOMM*%
%LPD*%
G01*
G04 APERTURE LIST*
%ADD10C,0.100000*%
%ADD11C,0.150000*%
%ADD12C,0.200000*%
%ADD13C,0.175000*%
%ADD14C,0.304800*%
%ADD15C,0.398780*%
%ADD16C,0.400000*%
G04 APERTURE END LIST*
D10*
X-33997500Y-14975350D02*
G75*
G02*
X-34497500Y-14475350I0J500000D01*
G01*
X-15536500Y-2872750D02*
G75*
G02*
X-15686500Y-3022750I-150000J0D01*
G01*
X-33997500Y-3021350D02*
X-15686500Y-3022750D01*
X-14645500Y-2282750D02*
G75*
G02*
X-14495500Y-2432750I0J-150000D01*
G01*
X-14495500Y-2432750D02*
X-14495500Y-2872750D01*
X-15386500Y-2282750D02*
X-14645500Y-2282750D01*
X-15536500Y-2872750D02*
X-15536500Y-2432750D01*
X-15536500Y-2432750D02*
G75*
G02*
X-15386500Y-2282750I150000J0D01*
G01*
X4446500Y-14484350D02*
G75*
G02*
X3946500Y-14984350I-500000J0D01*
G01*
X3946500Y-14984350D02*
X335000Y-14985625D01*
X-27534500Y-14977850D02*
G75*
G02*
X-28210500Y-14977850I-338000J124521D01*
G01*
X3947500Y-3022350D02*
G75*
G02*
X4447500Y-3522350I0J-500000D01*
G01*
X-26107500Y-14976164D02*
G75*
G02*
X-26783500Y-14976164I-338000J124521D01*
G01*
X335000Y-14985625D02*
G75*
G02*
X-339500Y-14985625I-337250J124245D01*
G01*
X3947500Y-3022350D02*
X-14345500Y-3022750D01*
X-339500Y-14985625D02*
X-2056000Y-14982625D01*
X-28210500Y-14977850D02*
X-33997500Y-14975350D01*
X-34497500Y-14475350D02*
X-34497500Y-3521350D01*
X4447500Y-3522350D02*
X4446500Y-14484350D01*
X-9509500Y-14975350D02*
G75*
G02*
X-9309500Y-15175350I0J-200000D01*
G01*
X-2056000Y-14982625D02*
G75*
G02*
X-2739500Y-14982625I-341750J125905D01*
G01*
X-9110500Y-15394350D02*
G75*
G02*
X-9309497Y-15175350I0J199910D01*
G01*
X-16781500Y-14976164D02*
X-26107500Y-14976164D01*
X-3593500Y-15182350D02*
G75*
G02*
X-3793500Y-15398353I-200000J-15410D01*
G01*
X-9509500Y-14975350D02*
X-16105500Y-14976164D01*
X-16105500Y-14976164D02*
G75*
G02*
X-16781500Y-14976164I-338000J124521D01*
G01*
X-34497500Y-3521350D02*
G75*
G02*
X-33997500Y-3021350I500000J0D01*
G01*
X-14345500Y-3022750D02*
G75*
G02*
X-14495500Y-2872750I0J150000D01*
G01*
X-3793500Y-15398350D02*
X-9110500Y-15394350D01*
X-26783500Y-14976164D02*
X-27534500Y-14977850D01*
X-2739500Y-14982625D02*
X-3393500Y-14982350D01*
X-3593500Y-15182350D02*
G75*
G02*
X-3393500Y-14982350I200000J0D01*
G01*
D11*
X-4235500Y-12407000D02*
X-4235500Y-12747000D01*
X-4235500Y-12407000D02*
X-3855500Y-12407000D01*
X-4235500Y-12747000D02*
X-3855500Y-12747000D01*
X-3855500Y-12407000D02*
X-3855500Y-12747000D01*
X-4779250Y-12741750D02*
X-4779250Y-12401750D01*
X-4399250Y-12401750D02*
X-4779250Y-12401750D01*
X-4399250Y-12741750D02*
X-4779250Y-12741750D01*
X-4399250Y-12741750D02*
X-4399250Y-12401750D01*
X-4512750Y-11965250D02*
X-4512750Y-12305250D01*
X-4512750Y-11965250D02*
X-4132750Y-11965250D01*
X-4512750Y-12305250D02*
X-4132750Y-12305250D01*
X-4132750Y-11965250D02*
X-4132750Y-12305250D01*
D12*
D10*
X-15337500Y-2734500D02*
X-15272500Y-2799500D01*
X-15272500Y-2734500D02*
X-15337500Y-2799500D01*
X-14759500Y-2734500D02*
X-14694500Y-2799500D01*
X-14694500Y-2734500D02*
X-14759500Y-2799500D01*
D13*
X-34018000Y-4022750D02*
G75*
G02*
X-34193000Y-4022750I-87500J0D01*
G01*
X-34193000Y-4022750D02*
G75*
G02*
X-34018000Y-4022750I87500J0D01*
G01*
X-34018000Y-6404000D02*
G75*
G02*
X-34193000Y-6404000I-87500J0D01*
G01*
X-34193000Y-6404000D02*
G75*
G02*
X-34018000Y-6404000I87500J0D01*
G01*
X-33779900Y-10214000D02*
G75*
G02*
X-33954900Y-10214000I-87500J0D01*
G01*
X-33954900Y-10214000D02*
G75*
G02*
X-33779900Y-10214000I87500J0D01*
G01*
X-33779900Y-14024000D02*
G75*
G02*
X-33954900Y-14024000I-87500J0D01*
G01*
X-33954900Y-14024000D02*
G75*
G02*
X-33779900Y-14024000I87500J0D01*
G01*
X-33541700Y-8309000D02*
G75*
G02*
X-33716700Y-8309000I-87500J0D01*
G01*
X-33716700Y-8309000D02*
G75*
G02*
X-33541700Y-8309000I87500J0D01*
G01*
X-33541700Y-14024000D02*
G75*
G02*
X-33716700Y-14024000I-87500J0D01*
G01*
X-33716700Y-14024000D02*
G75*
G02*
X-33541700Y-14024000I87500J0D01*
G01*
X-33303600Y-10214000D02*
G75*
G02*
X-33478600Y-10214000I-87500J0D01*
G01*
X-33478600Y-10214000D02*
G75*
G02*
X-33303600Y-10214000I87500J0D01*
G01*
X-33002000Y-4022750D02*
G75*
G02*
X-33177000Y-4022750I-87500J0D01*
G01*
X-33177000Y-4022750D02*
G75*
G02*
X-33002000Y-4022750I87500J0D01*
G01*
X-33002000Y-6404000D02*
G75*
G02*
X-33177000Y-6404000I-87500J0D01*
G01*
X-33177000Y-6404000D02*
G75*
G02*
X-33002000Y-6404000I87500J0D01*
G01*
X-32819940Y-12119000D02*
G75*
G02*
X-32994940Y-12119000I-87500J0D01*
G01*
X-32994940Y-12119000D02*
G75*
G02*
X-32819940Y-12119000I87500J0D01*
G01*
X-32763900Y-10214000D02*
G75*
G02*
X-32938900Y-10214000I-87500J0D01*
G01*
X-32938900Y-10214000D02*
G75*
G02*
X-32763900Y-10214000I87500J0D01*
G01*
X-32763900Y-14024000D02*
G75*
G02*
X-32938900Y-14024000I-87500J0D01*
G01*
X-32938900Y-14024000D02*
G75*
G02*
X-32763900Y-14024000I87500J0D01*
G01*
X-32525700Y-8309000D02*
G75*
G02*
X-32700700Y-8309000I-87500J0D01*
G01*
X-32700700Y-8309000D02*
G75*
G02*
X-32525700Y-8309000I87500J0D01*
G01*
X-32525700Y-14024000D02*
G75*
G02*
X-32700700Y-14024000I-87500J0D01*
G01*
X-32700700Y-14024000D02*
G75*
G02*
X-32525700Y-14024000I87500J0D01*
G01*
X-32287600Y-10214000D02*
G75*
G02*
X-32462600Y-10214000I-87500J0D01*
G01*
X-32462600Y-10214000D02*
G75*
G02*
X-32287600Y-10214000I87500J0D01*
G01*
X-32113000Y-6404000D02*
G75*
G02*
X-32288000Y-6404000I-87500J0D01*
G01*
X-32288000Y-6404000D02*
G75*
G02*
X-32113000Y-6404000I87500J0D01*
G01*
X-31803940Y-12119000D02*
G75*
G02*
X-31978940Y-12119000I-87500J0D01*
G01*
X-31978940Y-12119000D02*
G75*
G02*
X-31803940Y-12119000I87500J0D01*
G01*
X-31636750Y-4022750D02*
G75*
G02*
X-31811750Y-4022750I-87500J0D01*
G01*
X-31811750Y-4022750D02*
G75*
G02*
X-31636750Y-4022750I87500J0D01*
G01*
X-31398650Y-14024000D02*
G75*
G02*
X-31573650Y-14024000I-87500J0D01*
G01*
X-31573650Y-14024000D02*
G75*
G02*
X-31398650Y-14024000I87500J0D01*
G01*
X-31160500Y-8309000D02*
G75*
G02*
X-31335500Y-8309000I-87500J0D01*
G01*
X-31335500Y-8309000D02*
G75*
G02*
X-31160500Y-8309000I87500J0D01*
G01*
X-31097000Y-6404000D02*
G75*
G02*
X-31272000Y-6404000I-87500J0D01*
G01*
X-31272000Y-6404000D02*
G75*
G02*
X-31097000Y-6404000I87500J0D01*
G01*
X-30684250Y-10214000D02*
G75*
G02*
X-30859250Y-10214000I-87500J0D01*
G01*
X-30859250Y-10214000D02*
G75*
G02*
X-30684250Y-10214000I87500J0D01*
G01*
X-30684200Y-14024000D02*
G75*
G02*
X-30859200Y-14024000I-87500J0D01*
G01*
X-30859200Y-14024000D02*
G75*
G02*
X-30684200Y-14024000I87500J0D01*
G01*
X-30620750Y-4022750D02*
G75*
G02*
X-30795750Y-4022750I-87500J0D01*
G01*
X-30795750Y-4022750D02*
G75*
G02*
X-30620750Y-4022750I87500J0D01*
G01*
X-30382650Y-14024000D02*
G75*
G02*
X-30557650Y-14024000I-87500J0D01*
G01*
X-30557650Y-14024000D02*
G75*
G02*
X-30382650Y-14024000I87500J0D01*
G01*
X-30208000Y-6404000D02*
G75*
G02*
X-30383000Y-6404000I-87500J0D01*
G01*
X-30383000Y-6404000D02*
G75*
G02*
X-30208000Y-6404000I87500J0D01*
G01*
X-30144500Y-8309000D02*
G75*
G02*
X-30319500Y-8309000I-87500J0D01*
G01*
X-30319500Y-8309000D02*
G75*
G02*
X-30144500Y-8309000I87500J0D01*
G01*
X-29731750Y-4022750D02*
G75*
G02*
X-29906750Y-4022750I-87500J0D01*
G01*
X-29906750Y-4022750D02*
G75*
G02*
X-29731750Y-4022750I87500J0D01*
G01*
X-29731750Y-12119000D02*
G75*
G02*
X-29906750Y-12119000I-87500J0D01*
G01*
X-29906750Y-12119000D02*
G75*
G02*
X-29731750Y-12119000I87500J0D01*
G01*
X-29668250Y-10214000D02*
G75*
G02*
X-29843250Y-10214000I-87500J0D01*
G01*
X-29843250Y-10214000D02*
G75*
G02*
X-29668250Y-10214000I87500J0D01*
G01*
X-29668200Y-14024000D02*
G75*
G02*
X-29843200Y-14024000I-87500J0D01*
G01*
X-29843200Y-14024000D02*
G75*
G02*
X-29668200Y-14024000I87500J0D01*
G01*
X-29255500Y-8309000D02*
G75*
G02*
X-29430500Y-8309000I-87500J0D01*
G01*
X-29430500Y-8309000D02*
G75*
G02*
X-29255500Y-8309000I87500J0D01*
G01*
X-29192000Y-6404000D02*
G75*
G02*
X-29367000Y-6404000I-87500J0D01*
G01*
X-29367000Y-6404000D02*
G75*
G02*
X-29192000Y-6404000I87500J0D01*
G01*
X-29017400Y-14024000D02*
G75*
G02*
X-29192400Y-14024000I-87500J0D01*
G01*
X-29192400Y-14024000D02*
G75*
G02*
X-29017400Y-14024000I87500J0D01*
G01*
X-28779250Y-10214000D02*
G75*
G02*
X-28954250Y-10214000I-87500J0D01*
G01*
X-28954250Y-10214000D02*
G75*
G02*
X-28779250Y-10214000I87500J0D01*
G01*
X-28715750Y-4022750D02*
G75*
G02*
X-28890750Y-4022750I-87500J0D01*
G01*
X-28890750Y-4022750D02*
G75*
G02*
X-28715750Y-4022750I87500J0D01*
G01*
X-28715750Y-12119000D02*
G75*
G02*
X-28890750Y-12119000I-87500J0D01*
G01*
X-28890750Y-12119000D02*
G75*
G02*
X-28715750Y-12119000I87500J0D01*
G01*
X-28303000Y-6404000D02*
G75*
G02*
X-28478000Y-6404000I-87500J0D01*
G01*
X-28478000Y-6404000D02*
G75*
G02*
X-28303000Y-6404000I87500J0D01*
G01*
X-28239500Y-8309000D02*
G75*
G02*
X-28414500Y-8309000I-87500J0D01*
G01*
X-28414500Y-8309000D02*
G75*
G02*
X-28239500Y-8309000I87500J0D01*
G01*
X-28001400Y-14024000D02*
G75*
G02*
X-28176400Y-14024000I-87500J0D01*
G01*
X-28176400Y-14024000D02*
G75*
G02*
X-28001400Y-14024000I87500J0D01*
G01*
X-27826750Y-4022750D02*
G75*
G02*
X-28001750Y-4022750I-87500J0D01*
G01*
X-28001750Y-4022750D02*
G75*
G02*
X-27826750Y-4022750I87500J0D01*
G01*
X-27826750Y-12119000D02*
G75*
G02*
X-28001750Y-12119000I-87500J0D01*
G01*
X-28001750Y-12119000D02*
G75*
G02*
X-27826750Y-12119000I87500J0D01*
G01*
X-27763250Y-10214000D02*
G75*
G02*
X-27938250Y-10214000I-87500J0D01*
G01*
X-27938250Y-10214000D02*
G75*
G02*
X-27763250Y-10214000I87500J0D01*
G01*
X-27350500Y-8309000D02*
G75*
G02*
X-27525500Y-8309000I-87500J0D01*
G01*
X-27525500Y-8309000D02*
G75*
G02*
X-27350500Y-8309000I87500J0D01*
G01*
X-27287000Y-6404000D02*
G75*
G02*
X-27462000Y-6404000I-87500J0D01*
G01*
X-27462000Y-6404000D02*
G75*
G02*
X-27287000Y-6404000I87500J0D01*
G01*
X-26874250Y-10214000D02*
G75*
G02*
X-27049250Y-10214000I-87500J0D01*
G01*
X-27049250Y-10214000D02*
G75*
G02*
X-26874250Y-10214000I87500J0D01*
G01*
X-26810750Y-4022750D02*
G75*
G02*
X-26985750Y-4022750I-87500J0D01*
G01*
X-26985750Y-4022750D02*
G75*
G02*
X-26810750Y-4022750I87500J0D01*
G01*
X-26810750Y-12119000D02*
G75*
G02*
X-26985750Y-12119000I-87500J0D01*
G01*
X-26985750Y-12119000D02*
G75*
G02*
X-26810750Y-12119000I87500J0D01*
G01*
X-26398000Y-6404000D02*
G75*
G02*
X-26573000Y-6404000I-87500J0D01*
G01*
X-26573000Y-6404000D02*
G75*
G02*
X-26398000Y-6404000I87500J0D01*
G01*
X-26334500Y-8309000D02*
G75*
G02*
X-26509500Y-8309000I-87500J0D01*
G01*
X-26509500Y-8309000D02*
G75*
G02*
X-26334500Y-8309000I87500J0D01*
G01*
X-25921750Y-4022750D02*
G75*
G02*
X-26096750Y-4022750I-87500J0D01*
G01*
X-26096750Y-4022750D02*
G75*
G02*
X-25921750Y-4022750I87500J0D01*
G01*
X-25921750Y-12119000D02*
G75*
G02*
X-26096750Y-12119000I-87500J0D01*
G01*
X-26096750Y-12119000D02*
G75*
G02*
X-25921750Y-12119000I87500J0D01*
G01*
X-25858250Y-10214000D02*
G75*
G02*
X-26033250Y-10214000I-87500J0D01*
G01*
X-26033250Y-10214000D02*
G75*
G02*
X-25858250Y-10214000I87500J0D01*
G01*
X-25445500Y-8309000D02*
G75*
G02*
X-25620500Y-8309000I-87500J0D01*
G01*
X-25620500Y-8309000D02*
G75*
G02*
X-25445500Y-8309000I87500J0D01*
G01*
X-25382000Y-6404000D02*
G75*
G02*
X-25557000Y-6404000I-87500J0D01*
G01*
X-25557000Y-6404000D02*
G75*
G02*
X-25382000Y-6404000I87500J0D01*
G01*
X-24969250Y-10214000D02*
G75*
G02*
X-25144250Y-10214000I-87500J0D01*
G01*
X-25144250Y-10214000D02*
G75*
G02*
X-24969250Y-10214000I87500J0D01*
G01*
X-24905750Y-4022750D02*
G75*
G02*
X-25080750Y-4022750I-87500J0D01*
G01*
X-25080750Y-4022750D02*
G75*
G02*
X-24905750Y-4022750I87500J0D01*
G01*
X-24905750Y-12119000D02*
G75*
G02*
X-25080750Y-12119000I-87500J0D01*
G01*
X-25080750Y-12119000D02*
G75*
G02*
X-24905750Y-12119000I87500J0D01*
G01*
X-24493000Y-6404000D02*
G75*
G02*
X-24668000Y-6404000I-87500J0D01*
G01*
X-24668000Y-6404000D02*
G75*
G02*
X-24493000Y-6404000I87500J0D01*
G01*
X-24429500Y-8309000D02*
G75*
G02*
X-24604500Y-8309000I-87500J0D01*
G01*
X-24604500Y-8309000D02*
G75*
G02*
X-24429500Y-8309000I87500J0D01*
G01*
X-24016750Y-12119000D02*
G75*
G02*
X-24191750Y-12119000I-87500J0D01*
G01*
X-24191750Y-12119000D02*
G75*
G02*
X-24016750Y-12119000I87500J0D01*
G01*
X-23953250Y-10214000D02*
G75*
G02*
X-24128250Y-10214000I-87500J0D01*
G01*
X-24128250Y-10214000D02*
G75*
G02*
X-23953250Y-10214000I87500J0D01*
G01*
X-23540500Y-4022750D02*
G75*
G02*
X-23715500Y-4022750I-87500J0D01*
G01*
X-23715500Y-4022750D02*
G75*
G02*
X-23540500Y-4022750I87500J0D01*
G01*
X-23540500Y-8309000D02*
G75*
G02*
X-23715500Y-8309000I-87500J0D01*
G01*
X-23715500Y-8309000D02*
G75*
G02*
X-23540500Y-8309000I87500J0D01*
G01*
X-23477000Y-6404000D02*
G75*
G02*
X-23652000Y-6404000I-87500J0D01*
G01*
X-23652000Y-6404000D02*
G75*
G02*
X-23477000Y-6404000I87500J0D01*
G01*
X-23064250Y-10214000D02*
G75*
G02*
X-23239250Y-10214000I-87500J0D01*
G01*
X-23239250Y-10214000D02*
G75*
G02*
X-23064250Y-10214000I87500J0D01*
G01*
X-23000750Y-12119000D02*
G75*
G02*
X-23175750Y-12119000I-87500J0D01*
G01*
X-23175750Y-12119000D02*
G75*
G02*
X-23000750Y-12119000I87500J0D01*
G01*
X-22588000Y-6404000D02*
G75*
G02*
X-22763000Y-6404000I-87500J0D01*
G01*
X-22763000Y-6404000D02*
G75*
G02*
X-22588000Y-6404000I87500J0D01*
G01*
X-22588000Y-14023350D02*
G75*
G02*
X-22763000Y-14023350I-87500J0D01*
G01*
X-22763000Y-14023350D02*
G75*
G02*
X-22588000Y-14023350I87500J0D01*
G01*
X-22524500Y-4022750D02*
G75*
G02*
X-22699500Y-4022750I-87500J0D01*
G01*
X-22699500Y-4022750D02*
G75*
G02*
X-22524500Y-4022750I87500J0D01*
G01*
X-22524500Y-8309000D02*
G75*
G02*
X-22699500Y-8309000I-87500J0D01*
G01*
X-22699500Y-8309000D02*
G75*
G02*
X-22524500Y-8309000I87500J0D01*
G01*
X-22111750Y-12119000D02*
G75*
G02*
X-22286750Y-12119000I-87500J0D01*
G01*
X-22286750Y-12119000D02*
G75*
G02*
X-22111750Y-12119000I87500J0D01*
G01*
X-22048250Y-10214000D02*
G75*
G02*
X-22223250Y-10214000I-87500J0D01*
G01*
X-22223250Y-10214000D02*
G75*
G02*
X-22048250Y-10214000I87500J0D01*
G01*
X-21873650Y-14024000D02*
G75*
G02*
X-22048650Y-14024000I-87500J0D01*
G01*
X-22048650Y-14024000D02*
G75*
G02*
X-21873650Y-14024000I87500J0D01*
G01*
X-21635500Y-4022750D02*
G75*
G02*
X-21810500Y-4022750I-87500J0D01*
G01*
X-21810500Y-4022750D02*
G75*
G02*
X-21635500Y-4022750I87500J0D01*
G01*
X-21635500Y-8309000D02*
G75*
G02*
X-21810500Y-8309000I-87500J0D01*
G01*
X-21810500Y-8309000D02*
G75*
G02*
X-21635500Y-8309000I87500J0D01*
G01*
X-21572000Y-6404000D02*
G75*
G02*
X-21747000Y-6404000I-87500J0D01*
G01*
X-21747000Y-6404000D02*
G75*
G02*
X-21572000Y-6404000I87500J0D01*
G01*
X-21572000Y-14023350D02*
G75*
G02*
X-21747000Y-14023350I-87500J0D01*
G01*
X-21747000Y-14023350D02*
G75*
G02*
X-21572000Y-14023350I87500J0D01*
G01*
X-21159250Y-10214000D02*
G75*
G02*
X-21334250Y-10214000I-87500J0D01*
G01*
X-21334250Y-10214000D02*
G75*
G02*
X-21159250Y-10214000I87500J0D01*
G01*
X-21095750Y-12119000D02*
G75*
G02*
X-21270750Y-12119000I-87500J0D01*
G01*
X-21270750Y-12119000D02*
G75*
G02*
X-21095750Y-12119000I87500J0D01*
G01*
X-20857650Y-14024000D02*
G75*
G02*
X-21032650Y-14024000I-87500J0D01*
G01*
X-21032650Y-14024000D02*
G75*
G02*
X-20857650Y-14024000I87500J0D01*
G01*
X-20683000Y-6404000D02*
G75*
G02*
X-20858000Y-6404000I-87500J0D01*
G01*
X-20858000Y-6404000D02*
G75*
G02*
X-20683000Y-6404000I87500J0D01*
G01*
X-20619500Y-4022750D02*
G75*
G02*
X-20794500Y-4022750I-87500J0D01*
G01*
X-20794500Y-4022750D02*
G75*
G02*
X-20619500Y-4022750I87500J0D01*
G01*
X-20619500Y-8309000D02*
G75*
G02*
X-20794500Y-8309000I-87500J0D01*
G01*
X-20794500Y-8309000D02*
G75*
G02*
X-20619500Y-8309000I87500J0D01*
G01*
X-20206750Y-12119000D02*
G75*
G02*
X-20381750Y-12119000I-87500J0D01*
G01*
X-20381750Y-12119000D02*
G75*
G02*
X-20206750Y-12119000I87500J0D01*
G01*
X-20143250Y-10214000D02*
G75*
G02*
X-20318250Y-10214000I-87500J0D01*
G01*
X-20318250Y-10214000D02*
G75*
G02*
X-20143250Y-10214000I87500J0D01*
G01*
X-19730500Y-4022750D02*
G75*
G02*
X-19905500Y-4022750I-87500J0D01*
G01*
X-19905500Y-4022750D02*
G75*
G02*
X-19730500Y-4022750I87500J0D01*
G01*
X-19730500Y-8309000D02*
G75*
G02*
X-19905500Y-8309000I-87500J0D01*
G01*
X-19905500Y-8309000D02*
G75*
G02*
X-19730500Y-8309000I87500J0D01*
G01*
X-19667000Y-6404000D02*
G75*
G02*
X-19842000Y-6404000I-87500J0D01*
G01*
X-19842000Y-6404000D02*
G75*
G02*
X-19667000Y-6404000I87500J0D01*
G01*
X-19254250Y-10214000D02*
G75*
G02*
X-19429250Y-10214000I-87500J0D01*
G01*
X-19429250Y-10214000D02*
G75*
G02*
X-19254250Y-10214000I87500J0D01*
G01*
X-19190750Y-12119000D02*
G75*
G02*
X-19365750Y-12119000I-87500J0D01*
G01*
X-19365750Y-12119000D02*
G75*
G02*
X-19190750Y-12119000I87500J0D01*
G01*
X-18778000Y-6404000D02*
G75*
G02*
X-18953000Y-6404000I-87500J0D01*
G01*
X-18953000Y-6404000D02*
G75*
G02*
X-18778000Y-6404000I87500J0D01*
G01*
X-18714500Y-4022750D02*
G75*
G02*
X-18889500Y-4022750I-87500J0D01*
G01*
X-18889500Y-4022750D02*
G75*
G02*
X-18714500Y-4022750I87500J0D01*
G01*
X-18714500Y-8309000D02*
G75*
G02*
X-18889500Y-8309000I-87500J0D01*
G01*
X-18889500Y-8309000D02*
G75*
G02*
X-18714500Y-8309000I87500J0D01*
G01*
X-18301750Y-12119000D02*
G75*
G02*
X-18476750Y-12119000I-87500J0D01*
G01*
X-18476750Y-12119000D02*
G75*
G02*
X-18301750Y-12119000I87500J0D01*
G01*
X-18238250Y-10214000D02*
G75*
G02*
X-18413250Y-10214000I-87500J0D01*
G01*
X-18413250Y-10214000D02*
G75*
G02*
X-18238250Y-10214000I87500J0D01*
G01*
X-17825500Y-4022750D02*
G75*
G02*
X-18000500Y-4022750I-87500J0D01*
G01*
X-18000500Y-4022750D02*
G75*
G02*
X-17825500Y-4022750I87500J0D01*
G01*
X-17825500Y-8309000D02*
G75*
G02*
X-18000500Y-8309000I-87500J0D01*
G01*
X-18000500Y-8309000D02*
G75*
G02*
X-17825500Y-8309000I87500J0D01*
G01*
X-17762000Y-6404000D02*
G75*
G02*
X-17937000Y-6404000I-87500J0D01*
G01*
X-17937000Y-6404000D02*
G75*
G02*
X-17762000Y-6404000I87500J0D01*
G01*
X-17349250Y-10214000D02*
G75*
G02*
X-17524250Y-10214000I-87500J0D01*
G01*
X-17524250Y-10214000D02*
G75*
G02*
X-17349250Y-10214000I87500J0D01*
G01*
X-17285750Y-12119000D02*
G75*
G02*
X-17460750Y-12119000I-87500J0D01*
G01*
X-17460750Y-12119000D02*
G75*
G02*
X-17285750Y-12119000I87500J0D01*
G01*
X-16873000Y-6404000D02*
G75*
G02*
X-17048000Y-6404000I-87500J0D01*
G01*
X-17048000Y-6404000D02*
G75*
G02*
X-16873000Y-6404000I87500J0D01*
G01*
X-16809500Y-4022750D02*
G75*
G02*
X-16984500Y-4022750I-87500J0D01*
G01*
X-16984500Y-4022750D02*
G75*
G02*
X-16809500Y-4022750I87500J0D01*
G01*
X-16809500Y-8309000D02*
G75*
G02*
X-16984500Y-8309000I-87500J0D01*
G01*
X-16984500Y-8309000D02*
G75*
G02*
X-16809500Y-8309000I87500J0D01*
G01*
X-16396750Y-12119000D02*
G75*
G02*
X-16571750Y-12119000I-87500J0D01*
G01*
X-16571750Y-12119000D02*
G75*
G02*
X-16396750Y-12119000I87500J0D01*
G01*
X-16333250Y-10214000D02*
G75*
G02*
X-16508250Y-10214000I-87500J0D01*
G01*
X-16508250Y-10214000D02*
G75*
G02*
X-16333250Y-10214000I87500J0D01*
G01*
X-15920500Y-8309000D02*
G75*
G02*
X-16095500Y-8309000I-87500J0D01*
G01*
X-16095500Y-8309000D02*
G75*
G02*
X-15920500Y-8309000I87500J0D01*
G01*
X-15857000Y-6404000D02*
G75*
G02*
X-16032000Y-6404000I-87500J0D01*
G01*
X-16032000Y-6404000D02*
G75*
G02*
X-15857000Y-6404000I87500J0D01*
G01*
X-15444250Y-4022750D02*
G75*
G02*
X-15619250Y-4022750I-87500J0D01*
G01*
X-15619250Y-4022750D02*
G75*
G02*
X-15444250Y-4022750I87500J0D01*
G01*
X-15444250Y-10214000D02*
G75*
G02*
X-15619250Y-10214000I-87500J0D01*
G01*
X-15619250Y-10214000D02*
G75*
G02*
X-15444250Y-10214000I87500J0D01*
G01*
X-15380750Y-12119000D02*
G75*
G02*
X-15555750Y-12119000I-87500J0D01*
G01*
X-15555750Y-12119000D02*
G75*
G02*
X-15380750Y-12119000I87500J0D01*
G01*
X-14968000Y-6404000D02*
G75*
G02*
X-15143000Y-6404000I-87500J0D01*
G01*
X-15143000Y-6404000D02*
G75*
G02*
X-14968000Y-6404000I87500J0D01*
G01*
X-14904500Y-8309000D02*
G75*
G02*
X-15079500Y-8309000I-87500J0D01*
G01*
X-15079500Y-8309000D02*
G75*
G02*
X-14904500Y-8309000I87500J0D01*
G01*
X-14491750Y-12119000D02*
G75*
G02*
X-14666750Y-12119000I-87500J0D01*
G01*
X-14666750Y-12119000D02*
G75*
G02*
X-14491750Y-12119000I87500J0D01*
G01*
X-14491700Y-14024000D02*
G75*
G02*
X-14666700Y-14024000I-87500J0D01*
G01*
X-14666700Y-14024000D02*
G75*
G02*
X-14491700Y-14024000I87500J0D01*
G01*
X-14428250Y-4022750D02*
G75*
G02*
X-14603250Y-4022750I-87500J0D01*
G01*
X-14603250Y-4022750D02*
G75*
G02*
X-14428250Y-4022750I87500J0D01*
G01*
X-14428250Y-10214000D02*
G75*
G02*
X-14603250Y-10214000I-87500J0D01*
G01*
X-14603250Y-10214000D02*
G75*
G02*
X-14428250Y-10214000I87500J0D01*
G01*
X-14015500Y-8309000D02*
G75*
G02*
X-14190500Y-8309000I-87500J0D01*
G01*
X-14190500Y-8309000D02*
G75*
G02*
X-14015500Y-8309000I87500J0D01*
G01*
X-13952000Y-6404000D02*
G75*
G02*
X-14127000Y-6404000I-87500J0D01*
G01*
X-14127000Y-6404000D02*
G75*
G02*
X-13952000Y-6404000I87500J0D01*
G01*
X-13539250Y-4022750D02*
G75*
G02*
X-13714250Y-4022750I-87500J0D01*
G01*
X-13714250Y-4022750D02*
G75*
G02*
X-13539250Y-4022750I87500J0D01*
G01*
X-13539250Y-10214000D02*
G75*
G02*
X-13714250Y-10214000I-87500J0D01*
G01*
X-13714250Y-10214000D02*
G75*
G02*
X-13539250Y-10214000I87500J0D01*
G01*
X-13475750Y-12119000D02*
G75*
G02*
X-13650750Y-12119000I-87500J0D01*
G01*
X-13650750Y-12119000D02*
G75*
G02*
X-13475750Y-12119000I87500J0D01*
G01*
X-13475700Y-14024000D02*
G75*
G02*
X-13650700Y-14024000I-87500J0D01*
G01*
X-13650700Y-14024000D02*
G75*
G02*
X-13475700Y-14024000I87500J0D01*
G01*
X-13063000Y-6404000D02*
G75*
G02*
X-13238000Y-6404000I-87500J0D01*
G01*
X-13238000Y-6404000D02*
G75*
G02*
X-13063000Y-6404000I87500J0D01*
G01*
X-12999500Y-8309000D02*
G75*
G02*
X-13174500Y-8309000I-87500J0D01*
G01*
X-13174500Y-8309000D02*
G75*
G02*
X-12999500Y-8309000I87500J0D01*
G01*
X-12586750Y-12119000D02*
G75*
G02*
X-12761750Y-12119000I-87500J0D01*
G01*
X-12761750Y-12119000D02*
G75*
G02*
X-12586750Y-12119000I87500J0D01*
G01*
X-12523250Y-4022750D02*
G75*
G02*
X-12698250Y-4022750I-87500J0D01*
G01*
X-12698250Y-4022750D02*
G75*
G02*
X-12523250Y-4022750I87500J0D01*
G01*
X-12523250Y-10214000D02*
G75*
G02*
X-12698250Y-10214000I-87500J0D01*
G01*
X-12698250Y-10214000D02*
G75*
G02*
X-12523250Y-10214000I87500J0D01*
G01*
X-12110500Y-8309000D02*
G75*
G02*
X-12285500Y-8309000I-87500J0D01*
G01*
X-12285500Y-8309000D02*
G75*
G02*
X-12110500Y-8309000I87500J0D01*
G01*
X-12047000Y-6404000D02*
G75*
G02*
X-12222000Y-6404000I-87500J0D01*
G01*
X-12222000Y-6404000D02*
G75*
G02*
X-12047000Y-6404000I87500J0D01*
G01*
X-11634250Y-4022750D02*
G75*
G02*
X-11809250Y-4022750I-87500J0D01*
G01*
X-11809250Y-4022750D02*
G75*
G02*
X-11634250Y-4022750I87500J0D01*
G01*
X-11634250Y-10214000D02*
G75*
G02*
X-11809250Y-10214000I-87500J0D01*
G01*
X-11809250Y-10214000D02*
G75*
G02*
X-11634250Y-10214000I87500J0D01*
G01*
X-11634200Y-14024000D02*
G75*
G02*
X-11809200Y-14024000I-87500J0D01*
G01*
X-11809200Y-14024000D02*
G75*
G02*
X-11634200Y-14024000I87500J0D01*
G01*
X-11570750Y-12119000D02*
G75*
G02*
X-11745750Y-12119000I-87500J0D01*
G01*
X-11745750Y-12119000D02*
G75*
G02*
X-11570750Y-12119000I87500J0D01*
G01*
X-11158000Y-6404000D02*
G75*
G02*
X-11333000Y-6404000I-87500J0D01*
G01*
X-11333000Y-6404000D02*
G75*
G02*
X-11158000Y-6404000I87500J0D01*
G01*
X-11094500Y-8309000D02*
G75*
G02*
X-11269500Y-8309000I-87500J0D01*
G01*
X-11269500Y-8309000D02*
G75*
G02*
X-11094500Y-8309000I87500J0D01*
G01*
X-10618250Y-4022750D02*
G75*
G02*
X-10793250Y-4022750I-87500J0D01*
G01*
X-10793250Y-4022750D02*
G75*
G02*
X-10618250Y-4022750I87500J0D01*
G01*
X-10618250Y-10214000D02*
G75*
G02*
X-10793250Y-10214000I-87500J0D01*
G01*
X-10793250Y-10214000D02*
G75*
G02*
X-10618250Y-10214000I87500J0D01*
G01*
X-10618200Y-14024000D02*
G75*
G02*
X-10793200Y-14024000I-87500J0D01*
G01*
X-10793200Y-14024000D02*
G75*
G02*
X-10618200Y-14024000I87500J0D01*
G01*
X-10205500Y-8309000D02*
G75*
G02*
X-10380500Y-8309000I-87500J0D01*
G01*
X-10380500Y-8309000D02*
G75*
G02*
X-10205500Y-8309000I87500J0D01*
G01*
X-10142000Y-6404000D02*
G75*
G02*
X-10317000Y-6404000I-87500J0D01*
G01*
X-10317000Y-6404000D02*
G75*
G02*
X-10142000Y-6404000I87500J0D01*
G01*
X-9967350Y-12119000D02*
G75*
G02*
X-10142350Y-12119000I-87500J0D01*
G01*
X-10142350Y-12119000D02*
G75*
G02*
X-9967350Y-12119000I87500J0D01*
G01*
X-9729250Y-4022750D02*
G75*
G02*
X-9904250Y-4022750I-87500J0D01*
G01*
X-9904250Y-4022750D02*
G75*
G02*
X-9729250Y-4022750I87500J0D01*
G01*
X-9253000Y-6404000D02*
G75*
G02*
X-9428000Y-6404000I-87500J0D01*
G01*
X-9428000Y-6404000D02*
G75*
G02*
X-9253000Y-6404000I87500J0D01*
G01*
X-9189500Y-8309000D02*
G75*
G02*
X-9364500Y-8309000I-87500J0D01*
G01*
X-9364500Y-8309000D02*
G75*
G02*
X-9189500Y-8309000I87500J0D01*
G01*
X-8951350Y-12119000D02*
G75*
G02*
X-9126350Y-12119000I-87500J0D01*
G01*
X-9126350Y-12119000D02*
G75*
G02*
X-8951350Y-12119000I87500J0D01*
G01*
X-8776750Y-14500250D02*
G75*
G02*
X-8951750Y-14500250I-87500J0D01*
G01*
X-8951750Y-14500250D02*
G75*
G02*
X-8776750Y-14500250I87500J0D01*
G01*
X-8713250Y-4022750D02*
G75*
G02*
X-8888250Y-4022750I-87500J0D01*
G01*
X-8888250Y-4022750D02*
G75*
G02*
X-8713250Y-4022750I87500J0D01*
G01*
X-8531190Y-10214000D02*
G75*
G02*
X-8706190Y-10214000I-87500J0D01*
G01*
X-8706190Y-10214000D02*
G75*
G02*
X-8531190Y-10214000I87500J0D01*
G01*
X-8300500Y-6404000D02*
G75*
G02*
X-8475500Y-6404000I-87500J0D01*
G01*
X-8475500Y-6404000D02*
G75*
G02*
X-8300500Y-6404000I87500J0D01*
G01*
X-8237000Y-6404000D02*
G75*
G02*
X-8412000Y-6404000I-87500J0D01*
G01*
X-8412000Y-6404000D02*
G75*
G02*
X-8237000Y-6404000I87500J0D01*
G01*
X-7824200Y-8309000D02*
G75*
G02*
X-7999200Y-8309000I-87500J0D01*
G01*
X-7999200Y-8309000D02*
G75*
G02*
X-7824200Y-8309000I87500J0D01*
G01*
X-7760750Y-14500250D02*
G75*
G02*
X-7935750Y-14500250I-87500J0D01*
G01*
X-7935750Y-14500250D02*
G75*
G02*
X-7760750Y-14500250I87500J0D01*
G01*
X-7515190Y-10214000D02*
G75*
G02*
X-7690190Y-10214000I-87500J0D01*
G01*
X-7690190Y-10214000D02*
G75*
G02*
X-7515190Y-10214000I87500J0D01*
G01*
X-7348000Y-4022750D02*
G75*
G02*
X-7523000Y-4022750I-87500J0D01*
G01*
X-7523000Y-4022750D02*
G75*
G02*
X-7348000Y-4022750I87500J0D01*
G01*
X-7348000Y-6404000D02*
G75*
G02*
X-7523000Y-6404000I-87500J0D01*
G01*
X-7523000Y-6404000D02*
G75*
G02*
X-7348000Y-6404000I87500J0D01*
G01*
X-7284500Y-6404000D02*
G75*
G02*
X-7459500Y-6404000I-87500J0D01*
G01*
X-7459500Y-6404000D02*
G75*
G02*
X-7284500Y-6404000I87500J0D01*
G01*
X-6871750Y-12595250D02*
G75*
G02*
X-7046750Y-12595250I-87500J0D01*
G01*
X-7046750Y-12595250D02*
G75*
G02*
X-6871750Y-12595250I87500J0D01*
G01*
X-6871750Y-14500250D02*
G75*
G02*
X-7046750Y-14500250I-87500J0D01*
G01*
X-7046750Y-14500250D02*
G75*
G02*
X-6871750Y-14500250I87500J0D01*
G01*
X-6808200Y-8309000D02*
G75*
G02*
X-6983200Y-8309000I-87500J0D01*
G01*
X-6983200Y-8309000D02*
G75*
G02*
X-6808200Y-8309000I87500J0D01*
G01*
X-6332000Y-4022750D02*
G75*
G02*
X-6507000Y-4022750I-87500J0D01*
G01*
X-6507000Y-4022750D02*
G75*
G02*
X-6332000Y-4022750I87500J0D01*
G01*
X-6332000Y-6404000D02*
G75*
G02*
X-6507000Y-6404000I-87500J0D01*
G01*
X-6507000Y-6404000D02*
G75*
G02*
X-6332000Y-6404000I87500J0D01*
G01*
X-5855750Y-12595250D02*
G75*
G02*
X-6030750Y-12595250I-87500J0D01*
G01*
X-6030750Y-12595250D02*
G75*
G02*
X-5855750Y-12595250I87500J0D01*
G01*
X-5855750Y-14500250D02*
G75*
G02*
X-6030750Y-14500250I-87500J0D01*
G01*
X-6030750Y-14500250D02*
G75*
G02*
X-5855750Y-14500250I87500J0D01*
G01*
X-4966750Y-4022750D02*
G75*
G02*
X-5141750Y-4022750I-87500J0D01*
G01*
X-5141750Y-4022750D02*
G75*
G02*
X-4966750Y-4022750I87500J0D01*
G01*
X-4966750Y-6404000D02*
G75*
G02*
X-5141750Y-6404000I-87500J0D01*
G01*
X-5141750Y-6404000D02*
G75*
G02*
X-4966750Y-6404000I87500J0D01*
G01*
X-4966750Y-8309000D02*
G75*
G02*
X-5141750Y-8309000I-87500J0D01*
G01*
X-5141750Y-8309000D02*
G75*
G02*
X-4966750Y-8309000I87500J0D01*
G01*
X-4966750Y-10214000D02*
G75*
G02*
X-5141750Y-10214000I-87500J0D01*
G01*
X-5141750Y-10214000D02*
G75*
G02*
X-4966750Y-10214000I87500J0D01*
G01*
X-4966750Y-14500250D02*
G75*
G02*
X-5141750Y-14500250I-87500J0D01*
G01*
X-5141750Y-14500250D02*
G75*
G02*
X-4966750Y-14500250I87500J0D01*
G01*
X-3950750Y-4022750D02*
G75*
G02*
X-4125750Y-4022750I-87500J0D01*
G01*
X-4125750Y-4022750D02*
G75*
G02*
X-3950750Y-4022750I87500J0D01*
G01*
X-3950750Y-6404000D02*
G75*
G02*
X-4125750Y-6404000I-87500J0D01*
G01*
X-4125750Y-6404000D02*
G75*
G02*
X-3950750Y-6404000I87500J0D01*
G01*
X-3950750Y-8309000D02*
G75*
G02*
X-4125750Y-8309000I-87500J0D01*
G01*
X-4125750Y-8309000D02*
G75*
G02*
X-3950750Y-8309000I87500J0D01*
G01*
X-3950750Y-10214000D02*
G75*
G02*
X-4125750Y-10214000I-87500J0D01*
G01*
X-4125750Y-10214000D02*
G75*
G02*
X-3950750Y-10214000I87500J0D01*
G01*
X-3950750Y-14500250D02*
G75*
G02*
X-4125750Y-14500250I-87500J0D01*
G01*
X-4125750Y-14500250D02*
G75*
G02*
X-3950750Y-14500250I87500J0D01*
G01*
X-2585500Y-4022750D02*
G75*
G02*
X-2760500Y-4022750I-87500J0D01*
G01*
X-2760500Y-4022750D02*
G75*
G02*
X-2585500Y-4022750I87500J0D01*
G01*
X-2585500Y-6404000D02*
G75*
G02*
X-2760500Y-6404000I-87500J0D01*
G01*
X-2760500Y-6404000D02*
G75*
G02*
X-2585500Y-6404000I87500J0D01*
G01*
X-2585500Y-8309000D02*
G75*
G02*
X-2760500Y-8309000I-87500J0D01*
G01*
X-2760500Y-8309000D02*
G75*
G02*
X-2585500Y-8309000I87500J0D01*
G01*
X-2585500Y-10214000D02*
G75*
G02*
X-2760500Y-10214000I-87500J0D01*
G01*
X-2760500Y-10214000D02*
G75*
G02*
X-2585500Y-10214000I87500J0D01*
G01*
X-2585500Y-12119000D02*
G75*
G02*
X-2760500Y-12119000I-87500J0D01*
G01*
X-2760500Y-12119000D02*
G75*
G02*
X-2585500Y-12119000I87500J0D01*
G01*
X-2585500Y-14024000D02*
G75*
G02*
X-2760500Y-14024000I-87500J0D01*
G01*
X-2760500Y-14024000D02*
G75*
G02*
X-2585500Y-14024000I87500J0D01*
G01*
X-1633000Y-14024000D02*
G75*
G02*
X-1808000Y-14024000I-87500J0D01*
G01*
X-1808000Y-14024000D02*
G75*
G02*
X-1633000Y-14024000I87500J0D01*
G01*
X-1569500Y-4022750D02*
G75*
G02*
X-1744500Y-4022750I-87500J0D01*
G01*
X-1744500Y-4022750D02*
G75*
G02*
X-1569500Y-4022750I87500J0D01*
G01*
X-1569500Y-6404000D02*
G75*
G02*
X-1744500Y-6404000I-87500J0D01*
G01*
X-1744500Y-6404000D02*
G75*
G02*
X-1569500Y-6404000I87500J0D01*
G01*
X-1569500Y-8309000D02*
G75*
G02*
X-1744500Y-8309000I-87500J0D01*
G01*
X-1744500Y-8309000D02*
G75*
G02*
X-1569500Y-8309000I87500J0D01*
G01*
X-1569500Y-10214000D02*
G75*
G02*
X-1744500Y-10214000I-87500J0D01*
G01*
X-1744500Y-10214000D02*
G75*
G02*
X-1569500Y-10214000I87500J0D01*
G01*
X-1569500Y-12119000D02*
G75*
G02*
X-1744500Y-12119000I-87500J0D01*
G01*
X-1744500Y-12119000D02*
G75*
G02*
X-1569500Y-12119000I87500J0D01*
G01*
X-1569500Y-14024000D02*
G75*
G02*
X-1744500Y-14024000I-87500J0D01*
G01*
X-1744500Y-14024000D02*
G75*
G02*
X-1569500Y-14024000I87500J0D01*
G01*
X-680500Y-4022750D02*
G75*
G02*
X-855500Y-4022750I-87500J0D01*
G01*
X-855500Y-4022750D02*
G75*
G02*
X-680500Y-4022750I87500J0D01*
G01*
X-680500Y-6404000D02*
G75*
G02*
X-855500Y-6404000I-87500J0D01*
G01*
X-855500Y-6404000D02*
G75*
G02*
X-680500Y-6404000I87500J0D01*
G01*
X-680500Y-8309000D02*
G75*
G02*
X-855500Y-8309000I-87500J0D01*
G01*
X-855500Y-8309000D02*
G75*
G02*
X-680500Y-8309000I87500J0D01*
G01*
X-680500Y-10214000D02*
G75*
G02*
X-855500Y-10214000I-87500J0D01*
G01*
X-855500Y-10214000D02*
G75*
G02*
X-680500Y-10214000I87500J0D01*
G01*
X-680500Y-12119000D02*
G75*
G02*
X-855500Y-12119000I-87500J0D01*
G01*
X-855500Y-12119000D02*
G75*
G02*
X-680500Y-12119000I87500J0D01*
G01*
X-680500Y-14024000D02*
G75*
G02*
X-855500Y-14024000I-87500J0D01*
G01*
X-855500Y-14024000D02*
G75*
G02*
X-680500Y-14024000I87500J0D01*
G01*
X-617000Y-14024000D02*
G75*
G02*
X-792000Y-14024000I-87500J0D01*
G01*
X-792000Y-14024000D02*
G75*
G02*
X-617000Y-14024000I87500J0D01*
G01*
X335500Y-4022750D02*
G75*
G02*
X160500Y-4022750I-87500J0D01*
G01*
X160500Y-4022750D02*
G75*
G02*
X335500Y-4022750I87500J0D01*
G01*
X335500Y-6404000D02*
G75*
G02*
X160500Y-6404000I-87500J0D01*
G01*
X160500Y-6404000D02*
G75*
G02*
X335500Y-6404000I87500J0D01*
G01*
X335500Y-8309000D02*
G75*
G02*
X160500Y-8309000I-87500J0D01*
G01*
X160500Y-8309000D02*
G75*
G02*
X335500Y-8309000I87500J0D01*
G01*
X335500Y-10214000D02*
G75*
G02*
X160500Y-10214000I-87500J0D01*
G01*
X160500Y-10214000D02*
G75*
G02*
X335500Y-10214000I87500J0D01*
G01*
X335500Y-12119000D02*
G75*
G02*
X160500Y-12119000I-87500J0D01*
G01*
X160500Y-12119000D02*
G75*
G02*
X335500Y-12119000I87500J0D01*
G01*
X335500Y-14024000D02*
G75*
G02*
X160500Y-14024000I-87500J0D01*
G01*
X160500Y-14024000D02*
G75*
G02*
X335500Y-14024000I87500J0D01*
G01*
X1224500Y-4022750D02*
G75*
G02*
X1049500Y-4022750I-87500J0D01*
G01*
X1049500Y-4022750D02*
G75*
G02*
X1224500Y-4022750I87500J0D01*
G01*
X1224500Y-6404000D02*
G75*
G02*
X1049500Y-6404000I-87500J0D01*
G01*
X1049500Y-6404000D02*
G75*
G02*
X1224500Y-6404000I87500J0D01*
G01*
X1224500Y-8309000D02*
G75*
G02*
X1049500Y-8309000I-87500J0D01*
G01*
X1049500Y-8309000D02*
G75*
G02*
X1224500Y-8309000I87500J0D01*
G01*
X1224500Y-10214000D02*
G75*
G02*
X1049500Y-10214000I-87500J0D01*
G01*
X1049500Y-10214000D02*
G75*
G02*
X1224500Y-10214000I87500J0D01*
G01*
X1224500Y-12119000D02*
G75*
G02*
X1049500Y-12119000I-87500J0D01*
G01*
X1049500Y-12119000D02*
G75*
G02*
X1224500Y-12119000I87500J0D01*
G01*
X1224500Y-14024000D02*
G75*
G02*
X1049500Y-14024000I-87500J0D01*
G01*
X1049500Y-14024000D02*
G75*
G02*
X1224500Y-14024000I87500J0D01*
G01*
X2240500Y-4022750D02*
G75*
G02*
X2065500Y-4022750I-87500J0D01*
G01*
X2065500Y-4022750D02*
G75*
G02*
X2240500Y-4022750I87500J0D01*
G01*
X2240500Y-6404000D02*
G75*
G02*
X2065500Y-6404000I-87500J0D01*
G01*
X2065500Y-6404000D02*
G75*
G02*
X2240500Y-6404000I87500J0D01*
G01*
X2240500Y-8309000D02*
G75*
G02*
X2065500Y-8309000I-87500J0D01*
G01*
X2065500Y-8309000D02*
G75*
G02*
X2240500Y-8309000I87500J0D01*
G01*
X2240500Y-10214000D02*
G75*
G02*
X2065500Y-10214000I-87500J0D01*
G01*
X2065500Y-10214000D02*
G75*
G02*
X2240500Y-10214000I87500J0D01*
G01*
X2240500Y-12119000D02*
G75*
G02*
X2065500Y-12119000I-87500J0D01*
G01*
X2065500Y-12119000D02*
G75*
G02*
X2240500Y-12119000I87500J0D01*
G01*
X2240500Y-14024000D02*
G75*
G02*
X2065500Y-14024000I-87500J0D01*
G01*
X2065500Y-14024000D02*
G75*
G02*
X2240500Y-14024000I87500J0D01*
G01*
X3129500Y-4022750D02*
G75*
G02*
X2954500Y-4022750I-87500J0D01*
G01*
X2954500Y-4022750D02*
G75*
G02*
X3129500Y-4022750I87500J0D01*
G01*
X3129500Y-6404000D02*
G75*
G02*
X2954500Y-6404000I-87500J0D01*
G01*
X2954500Y-6404000D02*
G75*
G02*
X3129500Y-6404000I87500J0D01*
G01*
X3129500Y-9261500D02*
G75*
G02*
X2954500Y-9261500I-87500J0D01*
G01*
X2954500Y-9261500D02*
G75*
G02*
X3129500Y-9261500I87500J0D01*
G01*
X3129500Y-13071500D02*
G75*
G02*
X2954500Y-13071500I-87500J0D01*
G01*
X2954500Y-13071500D02*
G75*
G02*
X3129500Y-13071500I87500J0D01*
G01*
X4145500Y-4022750D02*
G75*
G02*
X3970500Y-4022750I-87500J0D01*
G01*
X3970500Y-4022750D02*
G75*
G02*
X4145500Y-4022750I87500J0D01*
G01*
X4145500Y-6404000D02*
G75*
G02*
X3970500Y-6404000I-87500J0D01*
G01*
X3970500Y-6404000D02*
G75*
G02*
X4145500Y-6404000I87500J0D01*
G01*
X4145500Y-9261500D02*
G75*
G02*
X3970500Y-9261500I-87500J0D01*
G01*
X3970500Y-9261500D02*
G75*
G02*
X4145500Y-9261500I87500J0D01*
G01*
X4145500Y-13071500D02*
G75*
G02*
X3970500Y-13071500I-87500J0D01*
G01*
X3970500Y-13071500D02*
G75*
G02*
X4145500Y-13071500I87500J0D01*
G01*
D14*
X-33593240Y-11268100D02*
X-33593240Y-11572900D01*
X-33745640Y-11420500D02*
X-33440840Y-11420500D01*
X-31205640Y-11268100D02*
X-31205640Y-11572900D01*
X-31358040Y-11420500D02*
X-31053240Y-11420500D01*
X-27882500Y-13172450D02*
X-27882500Y-13477250D01*
X-28034900Y-13324850D02*
X-27730100Y-13324850D01*
X-26453140Y-13173100D02*
X-26453140Y-13477900D01*
X-26605540Y-13325500D02*
X-26300740Y-13325500D01*
X-16453160Y-13173100D02*
X-16453160Y-13477900D01*
X-16605560Y-13325500D02*
X-16300760Y-13325500D01*
X-16452500Y-13172450D02*
X-16452500Y-13477250D01*
X-16604900Y-13324850D02*
X-16300100Y-13324850D01*
X-9304490Y-9363100D02*
X-9304490Y-9667900D01*
X-9456890Y-9515500D02*
X-9152090Y-9515500D01*
X-9073800Y-5553100D02*
X-9073800Y-5857900D01*
X-9226200Y-5705500D02*
X-8921400Y-5705500D01*
X-6916890Y-9363100D02*
X-6916890Y-9667900D01*
X-7069290Y-9515500D02*
X-6764490Y-9515500D01*
X-6686200Y-5553100D02*
X-6686200Y-5857900D01*
X-6838600Y-5705500D02*
X-6533800Y-5705500D01*
X-2406300Y-13173100D02*
X-2406300Y-13477900D01*
X-2558700Y-13325500D02*
X-2253900Y-13325500D01*
X-18700Y-13173100D02*
X-18700Y-13477900D01*
X-171100Y-13325500D02*
X133700Y-13325500D01*
X4248500Y-7915300D02*
X4248500Y-8220100D01*
X4096100Y-8067700D02*
X4400900Y-8067700D01*
X4248500Y-10302900D02*
X4248500Y-10607700D01*
X4096100Y-10455300D02*
X4400900Y-10455300D01*
X4248500Y-11725300D02*
X4248500Y-12030100D01*
X4096100Y-11877700D02*
X4400900Y-11877700D01*
X4248500Y-14112900D02*
X4248500Y-14417700D01*
X4096100Y-14265300D02*
X4400900Y-14265300D01*
D15*
X-33456509Y-4163741D02*
X-33456509Y-3881759D01*
X-33738491Y-3881759D01*
X-33738491Y-4163741D01*
X-33456509Y-4163741D01*
X-33456509Y-6544991D02*
X-33456509Y-6263009D01*
X-33738491Y-6263009D01*
X-33738491Y-6544991D01*
X-33456509Y-6544991D01*
X-33452249Y-13085491D02*
X-33452249Y-12803509D01*
X-33734231Y-12803509D01*
X-33734231Y-13085491D01*
X-33452249Y-13085491D01*
X-33218409Y-10354991D02*
X-33218409Y-10073009D01*
X-33500391Y-10073009D01*
X-33500391Y-10354991D01*
X-33218409Y-10354991D01*
X-33218409Y-14164991D02*
X-33218409Y-13883009D01*
X-33500391Y-13883009D01*
X-33500391Y-14164991D01*
X-33218409Y-14164991D01*
X-32980209Y-8449991D02*
X-32980209Y-8168009D01*
X-33262191Y-8168009D01*
X-33262191Y-8449991D01*
X-32980209Y-8449991D01*
X-32980209Y-14164991D02*
X-32980209Y-13883009D01*
X-33262191Y-13883009D01*
X-33262191Y-14164991D01*
X-32980209Y-14164991D01*
X-32742109Y-10354991D02*
X-32742109Y-10073009D01*
X-33024091Y-10073009D01*
X-33024091Y-10354991D01*
X-32742109Y-10354991D01*
X-32258449Y-12259991D02*
X-32258449Y-11978009D01*
X-32540431Y-11978009D01*
X-32540431Y-12259991D01*
X-32258449Y-12259991D01*
X-31551509Y-6544991D02*
X-31551509Y-6263009D01*
X-31833491Y-6263009D01*
X-31833491Y-6544991D01*
X-31551509Y-6544991D01*
X-31075259Y-4163741D02*
X-31075259Y-3881759D01*
X-31357241Y-3881759D01*
X-31357241Y-4163741D01*
X-31075259Y-4163741D01*
X-31064649Y-13085491D02*
X-31064649Y-12803509D01*
X-31346631Y-12803509D01*
X-31346631Y-13085491D01*
X-31064649Y-13085491D01*
X-30837159Y-14164991D02*
X-30837159Y-13883009D01*
X-31119141Y-13883009D01*
X-31119141Y-14164991D01*
X-30837159Y-14164991D01*
X-30599009Y-8449991D02*
X-30599009Y-8168009D01*
X-30880991Y-8168009D01*
X-30880991Y-8449991D01*
X-30599009Y-8449991D01*
X-30122759Y-10354991D02*
X-30122759Y-10073009D01*
X-30404741Y-10073009D01*
X-30404741Y-10354991D01*
X-30122759Y-10354991D01*
X-30122709Y-14164991D02*
X-30122709Y-13883009D01*
X-30404691Y-13883009D01*
X-30404691Y-14164991D01*
X-30122709Y-14164991D01*
X-29646509Y-6544991D02*
X-29646509Y-6263009D01*
X-29928491Y-6263009D01*
X-29928491Y-6544991D01*
X-29646509Y-6544991D01*
X-29170259Y-4163741D02*
X-29170259Y-3881759D01*
X-29452241Y-3881759D01*
X-29452241Y-4163741D01*
X-29170259Y-4163741D01*
X-29170259Y-12259991D02*
X-29170259Y-11978009D01*
X-29452241Y-11978009D01*
X-29452241Y-12259991D01*
X-29170259Y-12259991D01*
X-28694009Y-8449991D02*
X-28694009Y-8168009D01*
X-28975991Y-8168009D01*
X-28975991Y-8449991D01*
X-28694009Y-8449991D01*
X-28455909Y-14164991D02*
X-28455909Y-13883009D01*
X-28737891Y-13883009D01*
X-28737891Y-14164991D01*
X-28455909Y-14164991D01*
X-28217759Y-10354991D02*
X-28217759Y-10073009D01*
X-28499741Y-10073009D01*
X-28499741Y-10354991D01*
X-28217759Y-10354991D01*
X-27741509Y-6544991D02*
X-27741509Y-6263009D01*
X-28023491Y-6263009D01*
X-28023491Y-6544991D01*
X-27741509Y-6544991D01*
X-27741509Y-14989841D02*
X-27741509Y-14707859D01*
X-28023491Y-14707859D01*
X-28023491Y-14989841D01*
X-27741509Y-14989841D01*
X-27265259Y-4163741D02*
X-27265259Y-3881759D01*
X-27547241Y-3881759D01*
X-27547241Y-4163741D01*
X-27265259Y-4163741D01*
X-27265259Y-12259991D02*
X-27265259Y-11978009D01*
X-27547241Y-11978009D01*
X-27547241Y-12259991D01*
X-27265259Y-12259991D01*
X-26789009Y-8449991D02*
X-26789009Y-8168009D01*
X-27070991Y-8168009D01*
X-27070991Y-8449991D01*
X-26789009Y-8449991D01*
X-26312759Y-10354991D02*
X-26312759Y-10073009D01*
X-26594741Y-10073009D01*
X-26594741Y-10354991D01*
X-26312759Y-10354991D01*
X-26312149Y-14990491D02*
X-26312149Y-14708509D01*
X-26594131Y-14708509D01*
X-26594131Y-14990491D01*
X-26312149Y-14990491D01*
X-25836509Y-6544991D02*
X-25836509Y-6263009D01*
X-26118491Y-6263009D01*
X-26118491Y-6544991D01*
X-25836509Y-6544991D01*
X-25360259Y-4163741D02*
X-25360259Y-3881759D01*
X-25642241Y-3881759D01*
X-25642241Y-4163741D01*
X-25360259Y-4163741D01*
X-25360259Y-12259991D02*
X-25360259Y-11978009D01*
X-25642241Y-11978009D01*
X-25642241Y-12259991D01*
X-25360259Y-12259991D01*
X-24884009Y-8449991D02*
X-24884009Y-8168009D01*
X-25165991Y-8168009D01*
X-25165991Y-8449991D01*
X-24884009Y-8449991D01*
X-24407759Y-10354991D02*
X-24407759Y-10073009D01*
X-24689741Y-10073009D01*
X-24689741Y-10354991D01*
X-24407759Y-10354991D01*
X-23931509Y-6544991D02*
X-23931509Y-6263009D01*
X-24213491Y-6263009D01*
X-24213491Y-6544991D01*
X-23931509Y-6544991D01*
X-23455259Y-12259991D02*
X-23455259Y-11978009D01*
X-23737241Y-11978009D01*
X-23737241Y-12259991D01*
X-23455259Y-12259991D01*
X-22979009Y-4163741D02*
X-22979009Y-3881759D01*
X-23260991Y-3881759D01*
X-23260991Y-4163741D01*
X-22979009Y-4163741D01*
X-22979009Y-8449991D02*
X-22979009Y-8168009D01*
X-23260991Y-8168009D01*
X-23260991Y-8449991D01*
X-22979009Y-8449991D01*
X-22502759Y-10354991D02*
X-22502759Y-10073009D01*
X-22784741Y-10073009D01*
X-22784741Y-10354991D01*
X-22502759Y-10354991D01*
X-22026509Y-6544991D02*
X-22026509Y-6263009D01*
X-22308491Y-6263009D01*
X-22308491Y-6544991D01*
X-22026509Y-6544991D01*
X-22026509Y-14164341D02*
X-22026509Y-13882359D01*
X-22308491Y-13882359D01*
X-22308491Y-14164341D01*
X-22026509Y-14164341D01*
X-21550259Y-12259991D02*
X-21550259Y-11978009D01*
X-21832241Y-11978009D01*
X-21832241Y-12259991D01*
X-21550259Y-12259991D01*
X-21312159Y-14164991D02*
X-21312159Y-13883009D01*
X-21594141Y-13883009D01*
X-21594141Y-14164991D01*
X-21312159Y-14164991D01*
X-21074009Y-4163741D02*
X-21074009Y-3881759D01*
X-21355991Y-3881759D01*
X-21355991Y-4163741D01*
X-21074009Y-4163741D01*
X-21074009Y-8449991D02*
X-21074009Y-8168009D01*
X-21355991Y-8168009D01*
X-21355991Y-8449991D01*
X-21074009Y-8449991D01*
X-20597759Y-10354991D02*
X-20597759Y-10073009D01*
X-20879741Y-10073009D01*
X-20879741Y-10354991D01*
X-20597759Y-10354991D01*
X-20121509Y-6544991D02*
X-20121509Y-6263009D01*
X-20403491Y-6263009D01*
X-20403491Y-6544991D01*
X-20121509Y-6544991D01*
X-19645259Y-12259991D02*
X-19645259Y-11978009D01*
X-19927241Y-11978009D01*
X-19927241Y-12259991D01*
X-19645259Y-12259991D01*
X-19169009Y-4163741D02*
X-19169009Y-3881759D01*
X-19450991Y-3881759D01*
X-19450991Y-4163741D01*
X-19169009Y-4163741D01*
X-19169009Y-8449991D02*
X-19169009Y-8168009D01*
X-19450991Y-8168009D01*
X-19450991Y-8449991D01*
X-19169009Y-8449991D01*
X-18692759Y-10354991D02*
X-18692759Y-10073009D01*
X-18974741Y-10073009D01*
X-18974741Y-10354991D01*
X-18692759Y-10354991D01*
X-18216509Y-6544991D02*
X-18216509Y-6263009D01*
X-18498491Y-6263009D01*
X-18498491Y-6544991D01*
X-18216509Y-6544991D01*
X-17740259Y-12259991D02*
X-17740259Y-11978009D01*
X-18022241Y-11978009D01*
X-18022241Y-12259991D01*
X-17740259Y-12259991D01*
X-17264009Y-4163741D02*
X-17264009Y-3881759D01*
X-17545991Y-3881759D01*
X-17545991Y-4163741D01*
X-17264009Y-4163741D01*
X-17264009Y-8449991D02*
X-17264009Y-8168009D01*
X-17545991Y-8168009D01*
X-17545991Y-8449991D01*
X-17264009Y-8449991D01*
X-16787759Y-10354991D02*
X-16787759Y-10073009D01*
X-17069741Y-10073009D01*
X-17069741Y-10354991D01*
X-16787759Y-10354991D01*
X-16312169Y-14990491D02*
X-16312169Y-14708509D01*
X-16594151Y-14708509D01*
X-16594151Y-14990491D01*
X-16312169Y-14990491D01*
X-16311509Y-6544991D02*
X-16311509Y-6263009D01*
X-16593491Y-6263009D01*
X-16593491Y-6544991D01*
X-16311509Y-6544991D01*
X-16311509Y-14989841D02*
X-16311509Y-14707859D01*
X-16593491Y-14707859D01*
X-16593491Y-14989841D01*
X-16311509Y-14989841D01*
X-15835259Y-12259991D02*
X-15835259Y-11978009D01*
X-16117241Y-11978009D01*
X-16117241Y-12259991D01*
X-15835259Y-12259991D01*
X-15359009Y-8449991D02*
X-15359009Y-8168009D01*
X-15640991Y-8168009D01*
X-15640991Y-8449991D01*
X-15359009Y-8449991D01*
X-14882759Y-4163741D02*
X-14882759Y-3881759D01*
X-15164741Y-3881759D01*
X-15164741Y-4163741D01*
X-14882759Y-4163741D01*
X-14882759Y-10354991D02*
X-14882759Y-10073009D01*
X-15164741Y-10073009D01*
X-15164741Y-10354991D01*
X-14882759Y-10354991D01*
X-14406509Y-6544991D02*
X-14406509Y-6263009D01*
X-14688491Y-6263009D01*
X-14688491Y-6544991D01*
X-14406509Y-6544991D01*
X-13930259Y-12259991D02*
X-13930259Y-11978009D01*
X-14212241Y-11978009D01*
X-14212241Y-12259991D01*
X-13930259Y-12259991D01*
X-13930209Y-14164991D02*
X-13930209Y-13883009D01*
X-14212191Y-13883009D01*
X-14212191Y-14164991D01*
X-13930209Y-14164991D01*
X-13454009Y-8449991D02*
X-13454009Y-8168009D01*
X-13735991Y-8168009D01*
X-13735991Y-8449991D01*
X-13454009Y-8449991D01*
X-12977759Y-4163741D02*
X-12977759Y-3881759D01*
X-13259741Y-3881759D01*
X-13259741Y-4163741D01*
X-12977759Y-4163741D01*
X-12977759Y-10354991D02*
X-12977759Y-10073009D01*
X-13259741Y-10073009D01*
X-13259741Y-10354991D01*
X-12977759Y-10354991D01*
X-12501509Y-6544991D02*
X-12501509Y-6263009D01*
X-12783491Y-6263009D01*
X-12783491Y-6544991D01*
X-12501509Y-6544991D01*
X-12025259Y-12259991D02*
X-12025259Y-11978009D01*
X-12307241Y-11978009D01*
X-12307241Y-12259991D01*
X-12025259Y-12259991D01*
X-11549009Y-8449991D02*
X-11549009Y-8168009D01*
X-11830991Y-8168009D01*
X-11830991Y-8449991D01*
X-11549009Y-8449991D01*
X-11072759Y-4163741D02*
X-11072759Y-3881759D01*
X-11354741Y-3881759D01*
X-11354741Y-4163741D01*
X-11072759Y-4163741D01*
X-11072759Y-10354991D02*
X-11072759Y-10073009D01*
X-11354741Y-10073009D01*
X-11354741Y-10354991D01*
X-11072759Y-10354991D01*
X-11072709Y-14164991D02*
X-11072709Y-13883009D01*
X-11354691Y-13883009D01*
X-11354691Y-14164991D01*
X-11072709Y-14164991D01*
X-10596509Y-6544991D02*
X-10596509Y-6263009D01*
X-10878491Y-6263009D01*
X-10878491Y-6544991D01*
X-10596509Y-6544991D01*
X-9644009Y-8449991D02*
X-9644009Y-8168009D01*
X-9925991Y-8168009D01*
X-9925991Y-8449991D01*
X-9644009Y-8449991D01*
X-9405859Y-12259991D02*
X-9405859Y-11978009D01*
X-9687841Y-11978009D01*
X-9687841Y-12259991D01*
X-9405859Y-12259991D01*
X-9167759Y-4163741D02*
X-9167759Y-3881759D01*
X-9449741Y-3881759D01*
X-9449741Y-4163741D01*
X-9167759Y-4163741D01*
X-9163499Y-11180491D02*
X-9163499Y-10898509D01*
X-9445481Y-10898509D01*
X-9445481Y-11180491D01*
X-9163499Y-11180491D01*
X-8932809Y-7370491D02*
X-8932809Y-7088509D01*
X-9214791Y-7088509D01*
X-9214791Y-7370491D01*
X-8932809Y-7370491D01*
X-8691509Y-6544991D02*
X-8691509Y-6263009D01*
X-8973491Y-6263009D01*
X-8973491Y-6544991D01*
X-8691509Y-6544991D01*
X-8215259Y-14641241D02*
X-8215259Y-14359259D01*
X-8497241Y-14359259D01*
X-8497241Y-14641241D01*
X-8215259Y-14641241D01*
X-7969699Y-10354991D02*
X-7969699Y-10073009D01*
X-8251681Y-10073009D01*
X-8251681Y-10354991D01*
X-7969699Y-10354991D01*
X-7739009Y-6544991D02*
X-7739009Y-6263009D01*
X-8020991Y-6263009D01*
X-8020991Y-6544991D01*
X-7739009Y-6544991D01*
X-7262709Y-8449991D02*
X-7262709Y-8168009D01*
X-7544691Y-8168009D01*
X-7544691Y-8449991D01*
X-7262709Y-8449991D01*
X-6786509Y-4163741D02*
X-6786509Y-3881759D01*
X-7068491Y-3881759D01*
X-7068491Y-4163741D01*
X-6786509Y-4163741D01*
X-6786509Y-6544991D02*
X-6786509Y-6263009D01*
X-7068491Y-6263009D01*
X-7068491Y-6544991D01*
X-6786509Y-6544991D01*
X-6775899Y-11180491D02*
X-6775899Y-10898509D01*
X-7057881Y-10898509D01*
X-7057881Y-11180491D01*
X-6775899Y-11180491D01*
X-6545209Y-7370491D02*
X-6545209Y-7088509D01*
X-6827191Y-7088509D01*
X-6827191Y-7370491D01*
X-6545209Y-7370491D01*
X-6310259Y-12736241D02*
X-6310259Y-12454259D01*
X-6592241Y-12454259D01*
X-6592241Y-12736241D01*
X-6310259Y-12736241D01*
X-6310259Y-14641241D02*
X-6310259Y-14359259D01*
X-6592241Y-14359259D01*
X-6592241Y-14641241D01*
X-6310259Y-14641241D01*
X-4405259Y-4163741D02*
X-4405259Y-3881759D01*
X-4687241Y-3881759D01*
X-4687241Y-4163741D01*
X-4405259Y-4163741D01*
X-4405259Y-6544991D02*
X-4405259Y-6263009D01*
X-4687241Y-6263009D01*
X-4687241Y-6544991D01*
X-4405259Y-6544991D01*
X-4405259Y-8449991D02*
X-4405259Y-8168009D01*
X-4687241Y-8168009D01*
X-4687241Y-8449991D01*
X-4405259Y-8449991D01*
X-4405259Y-10354991D02*
X-4405259Y-10073009D01*
X-4687241Y-10073009D01*
X-4687241Y-10354991D01*
X-4405259Y-10354991D01*
X-4405259Y-14641241D02*
X-4405259Y-14359259D01*
X-4687241Y-14359259D01*
X-4687241Y-14641241D01*
X-4405259Y-14641241D01*
X-2265309Y-14990491D02*
X-2265309Y-14708509D01*
X-2547292Y-14708509D01*
X-2547292Y-14990491D01*
X-2265309Y-14990491D01*
X-2024009Y-4163741D02*
X-2024009Y-3881759D01*
X-2305991Y-3881759D01*
X-2305991Y-4163741D01*
X-2024009Y-4163741D01*
X-2024009Y-6544991D02*
X-2024009Y-6263009D01*
X-2305991Y-6263009D01*
X-2305991Y-6544991D01*
X-2024009Y-6544991D01*
X-2024009Y-8449991D02*
X-2024009Y-8168009D01*
X-2305991Y-8168009D01*
X-2305991Y-8449991D01*
X-2024009Y-8449991D01*
X-2024009Y-10354991D02*
X-2024009Y-10073009D01*
X-2305991Y-10073009D01*
X-2305991Y-10354991D01*
X-2024009Y-10354991D01*
X-2024009Y-12259991D02*
X-2024009Y-11978009D01*
X-2305991Y-11978009D01*
X-2305991Y-12259991D01*
X-2024009Y-12259991D01*
X-2024009Y-14164991D02*
X-2024009Y-13883009D01*
X-2305991Y-13883009D01*
X-2305991Y-14164991D01*
X-2024009Y-14164991D01*
X-1071509Y-14164991D02*
X-1071509Y-13883009D01*
X-1353492Y-13883009D01*
X-1353492Y-14164991D01*
X-1071509Y-14164991D01*
X-119009Y-4163741D02*
X-119009Y-3881759D01*
X-400991Y-3881759D01*
X-400991Y-4163741D01*
X-119009Y-4163741D01*
X-119009Y-6544991D02*
X-119009Y-6263009D01*
X-400991Y-6263009D01*
X-400991Y-6544991D01*
X-119009Y-6544991D01*
X-119009Y-8449991D02*
X-119009Y-8168009D01*
X-400991Y-8168009D01*
X-400991Y-8449991D01*
X-119009Y-8449991D01*
X-119009Y-10354991D02*
X-119009Y-10073009D01*
X-400991Y-10073009D01*
X-400991Y-10354991D01*
X-119009Y-10354991D01*
X-119009Y-12259991D02*
X-119009Y-11978009D01*
X-400991Y-11978009D01*
X-400991Y-12259991D01*
X-119009Y-12259991D01*
X-119009Y-14164991D02*
X-119009Y-13883009D01*
X-400991Y-13883009D01*
X-400991Y-14164991D01*
X-119009Y-14164991D01*
X122291Y-14990491D02*
X122291Y-14708509D01*
X-159692Y-14708509D01*
X-159692Y-14990491D01*
X122291Y-14990491D01*
X1785991Y-4163741D02*
X1785991Y-3881759D01*
X1504009Y-3881759D01*
X1504009Y-4163741D01*
X1785991Y-4163741D01*
X1785991Y-6544991D02*
X1785991Y-6263009D01*
X1504009Y-6263009D01*
X1504009Y-6544991D01*
X1785991Y-6544991D01*
X1785991Y-8449991D02*
X1785991Y-8168009D01*
X1504009Y-8168009D01*
X1504009Y-8449991D01*
X1785991Y-8449991D01*
X1785991Y-10354991D02*
X1785991Y-10073009D01*
X1504009Y-10073009D01*
X1504009Y-10354991D01*
X1785991Y-10354991D01*
X1785991Y-12259991D02*
X1785991Y-11978009D01*
X1504009Y-11978009D01*
X1504009Y-12259991D01*
X1785991Y-12259991D01*
X1785991Y-14164991D02*
X1785991Y-13883009D01*
X1504009Y-13883009D01*
X1504009Y-14164991D01*
X1785991Y-14164991D01*
X2865491Y-8208691D02*
X2865491Y-7926709D01*
X2583509Y-7926709D01*
X2583509Y-8208691D01*
X2865491Y-8208691D01*
X2865491Y-10596291D02*
X2865491Y-10314309D01*
X2583509Y-10314309D01*
X2583509Y-10596291D01*
X2865491Y-10596291D01*
X2865491Y-12018691D02*
X2865491Y-11736709D01*
X2583509Y-11736709D01*
X2583509Y-12018691D01*
X2865491Y-12018691D01*
X2865491Y-14406291D02*
X2865491Y-14124309D01*
X2583509Y-14124309D01*
X2583509Y-14406291D01*
X2865491Y-14406291D01*
X3690991Y-4163741D02*
X3690991Y-3881759D01*
X3409009Y-3881759D01*
X3409009Y-4163741D01*
X3690991Y-4163741D01*
X3690991Y-6544991D02*
X3690991Y-6263009D01*
X3409009Y-6263009D01*
X3409009Y-6544991D01*
X3690991Y-6544991D01*
X3690991Y-9402491D02*
X3690991Y-9120509D01*
X3409009Y-9120509D01*
X3409009Y-9402491D01*
X3690991Y-9402491D01*
X3690991Y-13212491D02*
X3690991Y-12930509D01*
X3409009Y-12930509D01*
X3409009Y-13212491D01*
X3690991Y-13212491D01*
D16*
X-33121200Y-8509000D02*
X-32921200Y-8309000D01*
X-33121200Y-8109000D01*
X-33321200Y-8309000D01*
X-33121200Y-8509000D01*
X-33121200Y-14224000D02*
X-32921200Y-14024000D01*
X-33121200Y-13824000D01*
X-33321200Y-14024000D01*
X-33121200Y-14224000D01*
X-30263700Y-14224000D02*
X-30063700Y-14024000D01*
X-30263700Y-13824000D01*
X-30463700Y-14024000D01*
X-30263700Y-14224000D01*
X-14071200Y-14224000D02*
X-13871200Y-14024000D01*
X-14071200Y-13824000D01*
X-14271200Y-14024000D01*
X-14071200Y-14224000D01*
X-11213700Y-14224000D02*
X-11013700Y-14024000D01*
X-11213700Y-13824000D01*
X-11413700Y-14024000D01*
X-11213700Y-14224000D01*
X-7403700Y-8509000D02*
X-7203700Y-8309000D01*
X-7403700Y-8109000D01*
X-7603700Y-8309000D01*
X-7403700Y-8509000D01*
D12*
X-34241723Y-15714834D02*
X-34241723Y-15514834D01*
X-34241723Y-15514834D02*
X-34194104Y-15514834D01*
X-34194104Y-15514834D02*
X-34165533Y-15524358D01*
X-34165533Y-15524358D02*
X-34146485Y-15543405D01*
X-34146485Y-15543405D02*
X-34136961Y-15562453D01*
X-34136961Y-15562453D02*
X-34127438Y-15600548D01*
X-34127438Y-15600548D02*
X-34127438Y-15629119D01*
X-34127438Y-15629119D02*
X-34136961Y-15667215D01*
X-34136961Y-15667215D02*
X-34146485Y-15686262D01*
X-34146485Y-15686262D02*
X-34165533Y-15705310D01*
X-34165533Y-15705310D02*
X-34194104Y-15714834D01*
X-34194104Y-15714834D02*
X-34241723Y-15714834D01*
X-34041723Y-15714834D02*
X-34041723Y-15581500D01*
X-34041723Y-15619596D02*
X-34032199Y-15600548D01*
X-34032199Y-15600548D02*
X-34022676Y-15591024D01*
X-34022676Y-15591024D02*
X-34003628Y-15581500D01*
X-34003628Y-15581500D02*
X-33984580Y-15581500D01*
X-33917914Y-15714834D02*
X-33917914Y-15581500D01*
X-33917914Y-15514834D02*
X-33927438Y-15524358D01*
X-33927438Y-15524358D02*
X-33917914Y-15533881D01*
X-33917914Y-15533881D02*
X-33908390Y-15524358D01*
X-33908390Y-15524358D02*
X-33917914Y-15514834D01*
X-33917914Y-15514834D02*
X-33917914Y-15533881D01*
X-33794104Y-15714834D02*
X-33813152Y-15705310D01*
X-33813152Y-15705310D02*
X-33822676Y-15686262D01*
X-33822676Y-15686262D02*
X-33822676Y-15514834D01*
X-33689342Y-15714834D02*
X-33708390Y-15705310D01*
X-33708390Y-15705310D02*
X-33717914Y-15686262D01*
X-33717914Y-15686262D02*
X-33717914Y-15514834D01*
X-33460771Y-15714834D02*
X-33460771Y-15514834D01*
X-33460771Y-15514834D02*
X-33394104Y-15657691D01*
X-33394104Y-15657691D02*
X-33327437Y-15514834D01*
X-33327437Y-15514834D02*
X-33327437Y-15714834D01*
X-33146485Y-15714834D02*
X-33146485Y-15610072D01*
X-33146485Y-15610072D02*
X-33156009Y-15591024D01*
X-33156009Y-15591024D02*
X-33175056Y-15581500D01*
X-33175056Y-15581500D02*
X-33213152Y-15581500D01*
X-33213152Y-15581500D02*
X-33232199Y-15591024D01*
X-33146485Y-15705310D02*
X-33165533Y-15714834D01*
X-33165533Y-15714834D02*
X-33213152Y-15714834D01*
X-33213152Y-15714834D02*
X-33232199Y-15705310D01*
X-33232199Y-15705310D02*
X-33241723Y-15686262D01*
X-33241723Y-15686262D02*
X-33241723Y-15667215D01*
X-33241723Y-15667215D02*
X-33232199Y-15648167D01*
X-33232199Y-15648167D02*
X-33213152Y-15638643D01*
X-33213152Y-15638643D02*
X-33165533Y-15638643D01*
X-33165533Y-15638643D02*
X-33146485Y-15629119D01*
X-33051247Y-15581500D02*
X-33051247Y-15781500D01*
X-33051247Y-15591024D02*
X-33032199Y-15581500D01*
X-33032199Y-15581500D02*
X-32994104Y-15581500D01*
X-32994104Y-15581500D02*
X-32975056Y-15591024D01*
X-32975056Y-15591024D02*
X-32965533Y-15600548D01*
X-32965533Y-15600548D02*
X-32956009Y-15619596D01*
X-32956009Y-15619596D02*
X-32956009Y-15676738D01*
X-32956009Y-15676738D02*
X-32965533Y-15695786D01*
X-32965533Y-15695786D02*
X-32975056Y-15705310D01*
X-32975056Y-15705310D02*
X-32994104Y-15714834D01*
X-32994104Y-15714834D02*
X-33032199Y-15714834D01*
X-33032199Y-15714834D02*
X-33051247Y-15705310D01*
X-32870295Y-15695786D02*
X-32860771Y-15705310D01*
X-32860771Y-15705310D02*
X-32870295Y-15714834D01*
X-32870295Y-15714834D02*
X-32879818Y-15705310D01*
X-32879818Y-15705310D02*
X-32870295Y-15695786D01*
X-32870295Y-15695786D02*
X-32870295Y-15714834D01*
X-32870295Y-15591024D02*
X-32860771Y-15600548D01*
X-32860771Y-15600548D02*
X-32870295Y-15610072D01*
X-32870295Y-15610072D02*
X-32879818Y-15600548D01*
X-32879818Y-15600548D02*
X-32870295Y-15591024D01*
X-32870295Y-15591024D02*
X-32870295Y-15610072D01*
D10*
X-34567500Y-16010850D02*
X-34502500Y-16075850D01*
X-34502500Y-16010850D02*
X-34567500Y-16075850D01*
D12*
X-34203628Y-15934834D02*
X-34184580Y-15934834D01*
X-34184580Y-15934834D02*
X-34165533Y-15944358D01*
X-34165533Y-15944358D02*
X-34156009Y-15953881D01*
X-34156009Y-15953881D02*
X-34146485Y-15972929D01*
X-34146485Y-15972929D02*
X-34136961Y-16011024D01*
X-34136961Y-16011024D02*
X-34136961Y-16058643D01*
X-34136961Y-16058643D02*
X-34146485Y-16096738D01*
X-34146485Y-16096738D02*
X-34156009Y-16115786D01*
X-34156009Y-16115786D02*
X-34165533Y-16125310D01*
X-34165533Y-16125310D02*
X-34184580Y-16134834D01*
X-34184580Y-16134834D02*
X-34203628Y-16134834D01*
X-34203628Y-16134834D02*
X-34222676Y-16125310D01*
X-34222676Y-16125310D02*
X-34232199Y-16115786D01*
X-34232199Y-16115786D02*
X-34241723Y-16096738D01*
X-34241723Y-16096738D02*
X-34251247Y-16058643D01*
X-34251247Y-16058643D02*
X-34251247Y-16011024D01*
X-34251247Y-16011024D02*
X-34241723Y-15972929D01*
X-34241723Y-15972929D02*
X-34232199Y-15953881D01*
X-34232199Y-15953881D02*
X-34222676Y-15944358D01*
X-34222676Y-15944358D02*
X-34203628Y-15934834D01*
X-34051247Y-16115786D02*
X-34041723Y-16125310D01*
X-34041723Y-16125310D02*
X-34051247Y-16134834D01*
X-34051247Y-16134834D02*
X-34060771Y-16125310D01*
X-34060771Y-16125310D02*
X-34051247Y-16115786D01*
X-34051247Y-16115786D02*
X-34051247Y-16134834D01*
X-33870295Y-15934834D02*
X-33908390Y-15934834D01*
X-33908390Y-15934834D02*
X-33927438Y-15944358D01*
X-33927438Y-15944358D02*
X-33936961Y-15953881D01*
X-33936961Y-15953881D02*
X-33956009Y-15982453D01*
X-33956009Y-15982453D02*
X-33965533Y-16020548D01*
X-33965533Y-16020548D02*
X-33965533Y-16096738D01*
X-33965533Y-16096738D02*
X-33956009Y-16115786D01*
X-33956009Y-16115786D02*
X-33946485Y-16125310D01*
X-33946485Y-16125310D02*
X-33927438Y-16134834D01*
X-33927438Y-16134834D02*
X-33889342Y-16134834D01*
X-33889342Y-16134834D02*
X-33870295Y-16125310D01*
X-33870295Y-16125310D02*
X-33860771Y-16115786D01*
X-33860771Y-16115786D02*
X-33851247Y-16096738D01*
X-33851247Y-16096738D02*
X-33851247Y-16049119D01*
X-33851247Y-16049119D02*
X-33860771Y-16030072D01*
X-33860771Y-16030072D02*
X-33870295Y-16020548D01*
X-33870295Y-16020548D02*
X-33889342Y-16011024D01*
X-33889342Y-16011024D02*
X-33927438Y-16011024D01*
X-33927438Y-16011024D02*
X-33946485Y-16020548D01*
X-33946485Y-16020548D02*
X-33956009Y-16030072D01*
X-33956009Y-16030072D02*
X-33965533Y-16049119D01*
X-33670295Y-15934834D02*
X-33765533Y-15934834D01*
X-33765533Y-15934834D02*
X-33775057Y-16030072D01*
X-33775057Y-16030072D02*
X-33765533Y-16020548D01*
X-33765533Y-16020548D02*
X-33746485Y-16011024D01*
X-33746485Y-16011024D02*
X-33698866Y-16011024D01*
X-33698866Y-16011024D02*
X-33679818Y-16020548D01*
X-33679818Y-16020548D02*
X-33670295Y-16030072D01*
X-33670295Y-16030072D02*
X-33660771Y-16049119D01*
X-33660771Y-16049119D02*
X-33660771Y-16096738D01*
X-33660771Y-16096738D02*
X-33670295Y-16115786D01*
X-33670295Y-16115786D02*
X-33679818Y-16125310D01*
X-33679818Y-16125310D02*
X-33698866Y-16134834D01*
X-33698866Y-16134834D02*
X-33746485Y-16134834D01*
X-33746485Y-16134834D02*
X-33765533Y-16125310D01*
X-33765533Y-16125310D02*
X-33775057Y-16115786D01*
X-33536961Y-15934834D02*
X-33517914Y-15934834D01*
X-33517914Y-15934834D02*
X-33498866Y-15944358D01*
X-33498866Y-15944358D02*
X-33489342Y-15953881D01*
X-33489342Y-15953881D02*
X-33479818Y-15972929D01*
X-33479818Y-15972929D02*
X-33470295Y-16011024D01*
X-33470295Y-16011024D02*
X-33470295Y-16058643D01*
X-33470295Y-16058643D02*
X-33479818Y-16096738D01*
X-33479818Y-16096738D02*
X-33489342Y-16115786D01*
X-33489342Y-16115786D02*
X-33498866Y-16125310D01*
X-33498866Y-16125310D02*
X-33517914Y-16134834D01*
X-33517914Y-16134834D02*
X-33536961Y-16134834D01*
X-33536961Y-16134834D02*
X-33556009Y-16125310D01*
X-33556009Y-16125310D02*
X-33565533Y-16115786D01*
X-33565533Y-16115786D02*
X-33575057Y-16096738D01*
X-33575057Y-16096738D02*
X-33584580Y-16058643D01*
X-33584580Y-16058643D02*
X-33584580Y-16011024D01*
X-33584580Y-16011024D02*
X-33575057Y-15972929D01*
X-33575057Y-15972929D02*
X-33565533Y-15953881D01*
X-33565533Y-15953881D02*
X-33556009Y-15944358D01*
X-33556009Y-15944358D02*
X-33536961Y-15934834D01*
X-33384580Y-16134834D02*
X-33384580Y-16001500D01*
X-33384580Y-16020548D02*
X-33375056Y-16011024D01*
X-33375056Y-16011024D02*
X-33356009Y-16001500D01*
X-33356009Y-16001500D02*
X-33327437Y-16001500D01*
X-33327437Y-16001500D02*
X-33308390Y-16011024D01*
X-33308390Y-16011024D02*
X-33298866Y-16030072D01*
X-33298866Y-16030072D02*
X-33298866Y-16134834D01*
X-33298866Y-16030072D02*
X-33289342Y-16011024D01*
X-33289342Y-16011024D02*
X-33270295Y-16001500D01*
X-33270295Y-16001500D02*
X-33241723Y-16001500D01*
X-33241723Y-16001500D02*
X-33222675Y-16011024D01*
X-33222675Y-16011024D02*
X-33213152Y-16030072D01*
X-33213152Y-16030072D02*
X-33213152Y-16134834D01*
X-33117914Y-16134834D02*
X-33117914Y-16001500D01*
X-33117914Y-16020548D02*
X-33108390Y-16011024D01*
X-33108390Y-16011024D02*
X-33089342Y-16001500D01*
X-33089342Y-16001500D02*
X-33060771Y-16001500D01*
X-33060771Y-16001500D02*
X-33041723Y-16011024D01*
X-33041723Y-16011024D02*
X-33032199Y-16030072D01*
X-33032199Y-16030072D02*
X-33032199Y-16134834D01*
X-33032199Y-16030072D02*
X-33022675Y-16011024D01*
X-33022675Y-16011024D02*
X-33003628Y-16001500D01*
X-33003628Y-16001500D02*
X-32975056Y-16001500D01*
X-32975056Y-16001500D02*
X-32956009Y-16011024D01*
X-32956009Y-16011024D02*
X-32946485Y-16030072D01*
X-32946485Y-16030072D02*
X-32946485Y-16134834D01*
X-32556009Y-15925310D02*
X-32727437Y-16182453D01*
X-32298866Y-15934834D02*
X-32279818Y-15934834D01*
X-32279818Y-15934834D02*
X-32260771Y-15944358D01*
X-32260771Y-15944358D02*
X-32251247Y-15953881D01*
X-32251247Y-15953881D02*
X-32241723Y-15972929D01*
X-32241723Y-15972929D02*
X-32232199Y-16011024D01*
X-32232199Y-16011024D02*
X-32232199Y-16058643D01*
X-32232199Y-16058643D02*
X-32241723Y-16096738D01*
X-32241723Y-16096738D02*
X-32251247Y-16115786D01*
X-32251247Y-16115786D02*
X-32260771Y-16125310D01*
X-32260771Y-16125310D02*
X-32279818Y-16134834D01*
X-32279818Y-16134834D02*
X-32298866Y-16134834D01*
X-32298866Y-16134834D02*
X-32317913Y-16125310D01*
X-32317913Y-16125310D02*
X-32327437Y-16115786D01*
X-32327437Y-16115786D02*
X-32336961Y-16096738D01*
X-32336961Y-16096738D02*
X-32346485Y-16058643D01*
X-32346485Y-16058643D02*
X-32346485Y-16011024D01*
X-32346485Y-16011024D02*
X-32336961Y-15972929D01*
X-32336961Y-15972929D02*
X-32327437Y-15953881D01*
X-32327437Y-15953881D02*
X-32317913Y-15944358D01*
X-32317913Y-15944358D02*
X-32298866Y-15934834D01*
X-32146485Y-16115786D02*
X-32136961Y-16125310D01*
X-32136961Y-16125310D02*
X-32146485Y-16134834D01*
X-32146485Y-16134834D02*
X-32156009Y-16125310D01*
X-32156009Y-16125310D02*
X-32146485Y-16115786D01*
X-32146485Y-16115786D02*
X-32146485Y-16134834D01*
X-32013152Y-15934834D02*
X-31994104Y-15934834D01*
X-31994104Y-15934834D02*
X-31975056Y-15944358D01*
X-31975056Y-15944358D02*
X-31965532Y-15953881D01*
X-31965532Y-15953881D02*
X-31956009Y-15972929D01*
X-31956009Y-15972929D02*
X-31946485Y-16011024D01*
X-31946485Y-16011024D02*
X-31946485Y-16058643D01*
X-31946485Y-16058643D02*
X-31956009Y-16096738D01*
X-31956009Y-16096738D02*
X-31965532Y-16115786D01*
X-31965532Y-16115786D02*
X-31975056Y-16125310D01*
X-31975056Y-16125310D02*
X-31994104Y-16134834D01*
X-31994104Y-16134834D02*
X-32013152Y-16134834D01*
X-32013152Y-16134834D02*
X-32032199Y-16125310D01*
X-32032199Y-16125310D02*
X-32041723Y-16115786D01*
X-32041723Y-16115786D02*
X-32051247Y-16096738D01*
X-32051247Y-16096738D02*
X-32060771Y-16058643D01*
X-32060771Y-16058643D02*
X-32060771Y-16011024D01*
X-32060771Y-16011024D02*
X-32051247Y-15972929D01*
X-32051247Y-15972929D02*
X-32041723Y-15953881D01*
X-32041723Y-15953881D02*
X-32032199Y-15944358D01*
X-32032199Y-15944358D02*
X-32013152Y-15934834D01*
X-31870294Y-15953881D02*
X-31860771Y-15944358D01*
X-31860771Y-15944358D02*
X-31841723Y-15934834D01*
X-31841723Y-15934834D02*
X-31794104Y-15934834D01*
X-31794104Y-15934834D02*
X-31775056Y-15944358D01*
X-31775056Y-15944358D02*
X-31765532Y-15953881D01*
X-31765532Y-15953881D02*
X-31756009Y-15972929D01*
X-31756009Y-15972929D02*
X-31756009Y-15991977D01*
X-31756009Y-15991977D02*
X-31765532Y-16020548D01*
X-31765532Y-16020548D02*
X-31879818Y-16134834D01*
X-31879818Y-16134834D02*
X-31756009Y-16134834D01*
X-31575056Y-15934834D02*
X-31670294Y-15934834D01*
X-31670294Y-15934834D02*
X-31679818Y-16030072D01*
X-31679818Y-16030072D02*
X-31670294Y-16020548D01*
X-31670294Y-16020548D02*
X-31651247Y-16011024D01*
X-31651247Y-16011024D02*
X-31603628Y-16011024D01*
X-31603628Y-16011024D02*
X-31584580Y-16020548D01*
X-31584580Y-16020548D02*
X-31575056Y-16030072D01*
X-31575056Y-16030072D02*
X-31565532Y-16049119D01*
X-31565532Y-16049119D02*
X-31565532Y-16096738D01*
X-31565532Y-16096738D02*
X-31575056Y-16115786D01*
X-31575056Y-16115786D02*
X-31584580Y-16125310D01*
X-31584580Y-16125310D02*
X-31603628Y-16134834D01*
X-31603628Y-16134834D02*
X-31651247Y-16134834D01*
X-31651247Y-16134834D02*
X-31670294Y-16125310D01*
X-31670294Y-16125310D02*
X-31679818Y-16115786D01*
X-31394104Y-15934834D02*
X-31432199Y-15934834D01*
X-31432199Y-15934834D02*
X-31451247Y-15944358D01*
X-31451247Y-15944358D02*
X-31460771Y-15953881D01*
X-31460771Y-15953881D02*
X-31479818Y-15982453D01*
X-31479818Y-15982453D02*
X-31489342Y-16020548D01*
X-31489342Y-16020548D02*
X-31489342Y-16096738D01*
X-31489342Y-16096738D02*
X-31479818Y-16115786D01*
X-31479818Y-16115786D02*
X-31470294Y-16125310D01*
X-31470294Y-16125310D02*
X-31451247Y-16134834D01*
X-31451247Y-16134834D02*
X-31413151Y-16134834D01*
X-31413151Y-16134834D02*
X-31394104Y-16125310D01*
X-31394104Y-16125310D02*
X-31384580Y-16115786D01*
X-31384580Y-16115786D02*
X-31375056Y-16096738D01*
X-31375056Y-16096738D02*
X-31375056Y-16049119D01*
X-31375056Y-16049119D02*
X-31384580Y-16030072D01*
X-31384580Y-16030072D02*
X-31394104Y-16020548D01*
X-31394104Y-16020548D02*
X-31413151Y-16011024D01*
X-31413151Y-16011024D02*
X-31451247Y-16011024D01*
X-31451247Y-16011024D02*
X-31470294Y-16020548D01*
X-31470294Y-16020548D02*
X-31479818Y-16030072D01*
X-31479818Y-16030072D02*
X-31489342Y-16049119D01*
X-31298866Y-15934834D02*
X-31298866Y-15972929D01*
X-31222675Y-15934834D02*
X-31222675Y-15972929D01*
X-30927437Y-16211024D02*
X-30936961Y-16201500D01*
X-30936961Y-16201500D02*
X-30956009Y-16172929D01*
X-30956009Y-16172929D02*
X-30965532Y-16153881D01*
X-30965532Y-16153881D02*
X-30975056Y-16125310D01*
X-30975056Y-16125310D02*
X-30984580Y-16077691D01*
X-30984580Y-16077691D02*
X-30984580Y-16039596D01*
X-30984580Y-16039596D02*
X-30975056Y-15991977D01*
X-30975056Y-15991977D02*
X-30965532Y-15963405D01*
X-30965532Y-15963405D02*
X-30956009Y-15944358D01*
X-30956009Y-15944358D02*
X-30936961Y-15915786D01*
X-30936961Y-15915786D02*
X-30927437Y-15906262D01*
X-30860770Y-15953881D02*
X-30851247Y-15944358D01*
X-30851247Y-15944358D02*
X-30832199Y-15934834D01*
X-30832199Y-15934834D02*
X-30784580Y-15934834D01*
X-30784580Y-15934834D02*
X-30765532Y-15944358D01*
X-30765532Y-15944358D02*
X-30756009Y-15953881D01*
X-30756009Y-15953881D02*
X-30746485Y-15972929D01*
X-30746485Y-15972929D02*
X-30746485Y-15991977D01*
X-30746485Y-15991977D02*
X-30756009Y-16020548D01*
X-30756009Y-16020548D02*
X-30870294Y-16134834D01*
X-30870294Y-16134834D02*
X-30746485Y-16134834D01*
X-30508389Y-16134834D02*
X-30508389Y-15934834D01*
X-30422675Y-16134834D02*
X-30422675Y-16030072D01*
X-30422675Y-16030072D02*
X-30432199Y-16011024D01*
X-30432199Y-16011024D02*
X-30451247Y-16001500D01*
X-30451247Y-16001500D02*
X-30479818Y-16001500D01*
X-30479818Y-16001500D02*
X-30498866Y-16011024D01*
X-30498866Y-16011024D02*
X-30508389Y-16020548D01*
X-30298866Y-16134834D02*
X-30317913Y-16125310D01*
X-30317913Y-16125310D02*
X-30327437Y-16115786D01*
X-30327437Y-16115786D02*
X-30336961Y-16096738D01*
X-30336961Y-16096738D02*
X-30336961Y-16039596D01*
X-30336961Y-16039596D02*
X-30327437Y-16020548D01*
X-30327437Y-16020548D02*
X-30317913Y-16011024D01*
X-30317913Y-16011024D02*
X-30298866Y-16001500D01*
X-30298866Y-16001500D02*
X-30270294Y-16001500D01*
X-30270294Y-16001500D02*
X-30251247Y-16011024D01*
X-30251247Y-16011024D02*
X-30241723Y-16020548D01*
X-30241723Y-16020548D02*
X-30232199Y-16039596D01*
X-30232199Y-16039596D02*
X-30232199Y-16096738D01*
X-30232199Y-16096738D02*
X-30241723Y-16115786D01*
X-30241723Y-16115786D02*
X-30251247Y-16125310D01*
X-30251247Y-16125310D02*
X-30270294Y-16134834D01*
X-30270294Y-16134834D02*
X-30298866Y-16134834D01*
X-30117913Y-16134834D02*
X-30136961Y-16125310D01*
X-30136961Y-16125310D02*
X-30146485Y-16106262D01*
X-30146485Y-16106262D02*
X-30146485Y-15934834D01*
X-29965532Y-16125310D02*
X-29984580Y-16134834D01*
X-29984580Y-16134834D02*
X-30022675Y-16134834D01*
X-30022675Y-16134834D02*
X-30041723Y-16125310D01*
X-30041723Y-16125310D02*
X-30051247Y-16106262D01*
X-30051247Y-16106262D02*
X-30051247Y-16030072D01*
X-30051247Y-16030072D02*
X-30041723Y-16011024D01*
X-30041723Y-16011024D02*
X-30022675Y-16001500D01*
X-30022675Y-16001500D02*
X-29984580Y-16001500D01*
X-29984580Y-16001500D02*
X-29965532Y-16011024D01*
X-29965532Y-16011024D02*
X-29956008Y-16030072D01*
X-29956008Y-16030072D02*
X-29956008Y-16049119D01*
X-29956008Y-16049119D02*
X-30051247Y-16068167D01*
X-29879818Y-16125310D02*
X-29860770Y-16134834D01*
X-29860770Y-16134834D02*
X-29822675Y-16134834D01*
X-29822675Y-16134834D02*
X-29803627Y-16125310D01*
X-29803627Y-16125310D02*
X-29794104Y-16106262D01*
X-29794104Y-16106262D02*
X-29794104Y-16096738D01*
X-29794104Y-16096738D02*
X-29803627Y-16077691D01*
X-29803627Y-16077691D02*
X-29822675Y-16068167D01*
X-29822675Y-16068167D02*
X-29851247Y-16068167D01*
X-29851247Y-16068167D02*
X-29870294Y-16058643D01*
X-29870294Y-16058643D02*
X-29879818Y-16039596D01*
X-29879818Y-16039596D02*
X-29879818Y-16030072D01*
X-29879818Y-16030072D02*
X-29870294Y-16011024D01*
X-29870294Y-16011024D02*
X-29851247Y-16001500D01*
X-29851247Y-16001500D02*
X-29822675Y-16001500D01*
X-29822675Y-16001500D02*
X-29803627Y-16011024D01*
X-29727437Y-16211024D02*
X-29717913Y-16201500D01*
X-29717913Y-16201500D02*
X-29698866Y-16172929D01*
X-29698866Y-16172929D02*
X-29689342Y-16153881D01*
X-29689342Y-16153881D02*
X-29679818Y-16125310D01*
X-29679818Y-16125310D02*
X-29670294Y-16077691D01*
X-29670294Y-16077691D02*
X-29670294Y-16039596D01*
X-29670294Y-16039596D02*
X-29679818Y-15991977D01*
X-29679818Y-15991977D02*
X-29689342Y-15963405D01*
X-29689342Y-15963405D02*
X-29698866Y-15944358D01*
X-29698866Y-15944358D02*
X-29717913Y-15915786D01*
X-29717913Y-15915786D02*
X-29727437Y-15906262D01*
X-29365532Y-16211024D02*
X-29375056Y-16201500D01*
X-29375056Y-16201500D02*
X-29394104Y-16172929D01*
X-29394104Y-16172929D02*
X-29403627Y-16153881D01*
X-29403627Y-16153881D02*
X-29413151Y-16125310D01*
X-29413151Y-16125310D02*
X-29422675Y-16077691D01*
X-29422675Y-16077691D02*
X-29422675Y-16039596D01*
X-29422675Y-16039596D02*
X-29413151Y-15991977D01*
X-29413151Y-15991977D02*
X-29403627Y-15963405D01*
X-29403627Y-15963405D02*
X-29394104Y-15944358D01*
X-29394104Y-15944358D02*
X-29375056Y-15915786D01*
X-29375056Y-15915786D02*
X-29365532Y-15906262D01*
X-29289342Y-16001500D02*
X-29289342Y-16134834D01*
X-29289342Y-16020548D02*
X-29279818Y-16011024D01*
X-29279818Y-16011024D02*
X-29260770Y-16001500D01*
X-29260770Y-16001500D02*
X-29232199Y-16001500D01*
X-29232199Y-16001500D02*
X-29213151Y-16011024D01*
X-29213151Y-16011024D02*
X-29203627Y-16030072D01*
X-29203627Y-16030072D02*
X-29203627Y-16134834D01*
X-29079818Y-16134834D02*
X-29098866Y-16125310D01*
X-29098866Y-16125310D02*
X-29108389Y-16115786D01*
X-29108389Y-16115786D02*
X-29117913Y-16096738D01*
X-29117913Y-16096738D02*
X-29117913Y-16039596D01*
X-29117913Y-16039596D02*
X-29108389Y-16020548D01*
X-29108389Y-16020548D02*
X-29098866Y-16011024D01*
X-29098866Y-16011024D02*
X-29079818Y-16001500D01*
X-29079818Y-16001500D02*
X-29051246Y-16001500D01*
X-29051246Y-16001500D02*
X-29032199Y-16011024D01*
X-29032199Y-16011024D02*
X-29022675Y-16020548D01*
X-29022675Y-16020548D02*
X-29013151Y-16039596D01*
X-29013151Y-16039596D02*
X-29013151Y-16096738D01*
X-29013151Y-16096738D02*
X-29022675Y-16115786D01*
X-29022675Y-16115786D02*
X-29032199Y-16125310D01*
X-29032199Y-16125310D02*
X-29051246Y-16134834D01*
X-29051246Y-16134834D02*
X-29079818Y-16134834D01*
X-28956008Y-16001500D02*
X-28879818Y-16001500D01*
X-28927437Y-15934834D02*
X-28927437Y-16106262D01*
X-28927437Y-16106262D02*
X-28917913Y-16125310D01*
X-28917913Y-16125310D02*
X-28898866Y-16134834D01*
X-28898866Y-16134834D02*
X-28879818Y-16134834D01*
X-28660770Y-16001500D02*
X-28660770Y-16201500D01*
X-28660770Y-16011024D02*
X-28641723Y-16001500D01*
X-28641723Y-16001500D02*
X-28603627Y-16001500D01*
X-28603627Y-16001500D02*
X-28584580Y-16011024D01*
X-28584580Y-16011024D02*
X-28575056Y-16020548D01*
X-28575056Y-16020548D02*
X-28565532Y-16039596D01*
X-28565532Y-16039596D02*
X-28565532Y-16096738D01*
X-28565532Y-16096738D02*
X-28575056Y-16115786D01*
X-28575056Y-16115786D02*
X-28584580Y-16125310D01*
X-28584580Y-16125310D02*
X-28603627Y-16134834D01*
X-28603627Y-16134834D02*
X-28641723Y-16134834D01*
X-28641723Y-16134834D02*
X-28660770Y-16125310D01*
X-28451246Y-16134834D02*
X-28470294Y-16125310D01*
X-28470294Y-16125310D02*
X-28479818Y-16106262D01*
X-28479818Y-16106262D02*
X-28479818Y-15934834D01*
X-28289342Y-16134834D02*
X-28289342Y-16030072D01*
X-28289342Y-16030072D02*
X-28298865Y-16011024D01*
X-28298865Y-16011024D02*
X-28317913Y-16001500D01*
X-28317913Y-16001500D02*
X-28356008Y-16001500D01*
X-28356008Y-16001500D02*
X-28375056Y-16011024D01*
X-28289342Y-16125310D02*
X-28308389Y-16134834D01*
X-28308389Y-16134834D02*
X-28356008Y-16134834D01*
X-28356008Y-16134834D02*
X-28375056Y-16125310D01*
X-28375056Y-16125310D02*
X-28384580Y-16106262D01*
X-28384580Y-16106262D02*
X-28384580Y-16087215D01*
X-28384580Y-16087215D02*
X-28375056Y-16068167D01*
X-28375056Y-16068167D02*
X-28356008Y-16058643D01*
X-28356008Y-16058643D02*
X-28308389Y-16058643D01*
X-28308389Y-16058643D02*
X-28289342Y-16049119D01*
X-28222675Y-16001500D02*
X-28146485Y-16001500D01*
X-28194104Y-15934834D02*
X-28194104Y-16106262D01*
X-28194104Y-16106262D02*
X-28184580Y-16125310D01*
X-28184580Y-16125310D02*
X-28165532Y-16134834D01*
X-28165532Y-16134834D02*
X-28146485Y-16134834D01*
X-28003627Y-16125310D02*
X-28022675Y-16134834D01*
X-28022675Y-16134834D02*
X-28060770Y-16134834D01*
X-28060770Y-16134834D02*
X-28079818Y-16125310D01*
X-28079818Y-16125310D02*
X-28089342Y-16106262D01*
X-28089342Y-16106262D02*
X-28089342Y-16030072D01*
X-28089342Y-16030072D02*
X-28079818Y-16011024D01*
X-28079818Y-16011024D02*
X-28060770Y-16001500D01*
X-28060770Y-16001500D02*
X-28022675Y-16001500D01*
X-28022675Y-16001500D02*
X-28003627Y-16011024D01*
X-28003627Y-16011024D02*
X-27994104Y-16030072D01*
X-27994104Y-16030072D02*
X-27994104Y-16049119D01*
X-27994104Y-16049119D02*
X-28089342Y-16068167D01*
X-27822675Y-16134834D02*
X-27822675Y-15934834D01*
X-27822675Y-16125310D02*
X-27841723Y-16134834D01*
X-27841723Y-16134834D02*
X-27879818Y-16134834D01*
X-27879818Y-16134834D02*
X-27898865Y-16125310D01*
X-27898865Y-16125310D02*
X-27908389Y-16115786D01*
X-27908389Y-16115786D02*
X-27917913Y-16096738D01*
X-27917913Y-16096738D02*
X-27917913Y-16039596D01*
X-27917913Y-16039596D02*
X-27908389Y-16020548D01*
X-27908389Y-16020548D02*
X-27898865Y-16011024D01*
X-27898865Y-16011024D02*
X-27879818Y-16001500D01*
X-27879818Y-16001500D02*
X-27841723Y-16001500D01*
X-27841723Y-16001500D02*
X-27822675Y-16011024D01*
X-27746484Y-16211024D02*
X-27736961Y-16201500D01*
X-27736961Y-16201500D02*
X-27717913Y-16172929D01*
X-27717913Y-16172929D02*
X-27708389Y-16153881D01*
X-27708389Y-16153881D02*
X-27698865Y-16125310D01*
X-27698865Y-16125310D02*
X-27689342Y-16077691D01*
X-27689342Y-16077691D02*
X-27689342Y-16039596D01*
X-27689342Y-16039596D02*
X-27698865Y-15991977D01*
X-27698865Y-15991977D02*
X-27708389Y-15963405D01*
X-27708389Y-15963405D02*
X-27717913Y-15944358D01*
X-27717913Y-15944358D02*
X-27736961Y-15915786D01*
X-27736961Y-15915786D02*
X-27746484Y-15906262D01*
D13*
X-34502500Y-16307350D02*
G75*
G02*
X-34677500Y-16307350I-87500J0D01*
G01*
X-34677500Y-16307350D02*
G75*
G02*
X-34502500Y-16307350I87500J0D01*
G01*
D12*
X-34136961Y-16398834D02*
X-34251247Y-16398834D01*
X-34194104Y-16398834D02*
X-34194104Y-16198834D01*
X-34194104Y-16198834D02*
X-34213152Y-16227405D01*
X-34213152Y-16227405D02*
X-34232199Y-16246453D01*
X-34232199Y-16246453D02*
X-34251247Y-16255977D01*
X-34051247Y-16379786D02*
X-34041723Y-16389310D01*
X-34041723Y-16389310D02*
X-34051247Y-16398834D01*
X-34051247Y-16398834D02*
X-34060771Y-16389310D01*
X-34060771Y-16389310D02*
X-34051247Y-16379786D01*
X-34051247Y-16379786D02*
X-34051247Y-16398834D01*
X-33975057Y-16198834D02*
X-33841723Y-16198834D01*
X-33841723Y-16198834D02*
X-33927438Y-16398834D01*
X-33670295Y-16198834D02*
X-33765533Y-16198834D01*
X-33765533Y-16198834D02*
X-33775057Y-16294072D01*
X-33775057Y-16294072D02*
X-33765533Y-16284548D01*
X-33765533Y-16284548D02*
X-33746485Y-16275024D01*
X-33746485Y-16275024D02*
X-33698866Y-16275024D01*
X-33698866Y-16275024D02*
X-33679818Y-16284548D01*
X-33679818Y-16284548D02*
X-33670295Y-16294072D01*
X-33670295Y-16294072D02*
X-33660771Y-16313119D01*
X-33660771Y-16313119D02*
X-33660771Y-16360738D01*
X-33660771Y-16360738D02*
X-33670295Y-16379786D01*
X-33670295Y-16379786D02*
X-33679818Y-16389310D01*
X-33679818Y-16389310D02*
X-33698866Y-16398834D01*
X-33698866Y-16398834D02*
X-33746485Y-16398834D01*
X-33746485Y-16398834D02*
X-33765533Y-16389310D01*
X-33765533Y-16389310D02*
X-33775057Y-16379786D01*
X-33536961Y-16198834D02*
X-33517914Y-16198834D01*
X-33517914Y-16198834D02*
X-33498866Y-16208358D01*
X-33498866Y-16208358D02*
X-33489342Y-16217881D01*
X-33489342Y-16217881D02*
X-33479818Y-16236929D01*
X-33479818Y-16236929D02*
X-33470295Y-16275024D01*
X-33470295Y-16275024D02*
X-33470295Y-16322643D01*
X-33470295Y-16322643D02*
X-33479818Y-16360738D01*
X-33479818Y-16360738D02*
X-33489342Y-16379786D01*
X-33489342Y-16379786D02*
X-33498866Y-16389310D01*
X-33498866Y-16389310D02*
X-33517914Y-16398834D01*
X-33517914Y-16398834D02*
X-33536961Y-16398834D01*
X-33536961Y-16398834D02*
X-33556009Y-16389310D01*
X-33556009Y-16389310D02*
X-33565533Y-16379786D01*
X-33565533Y-16379786D02*
X-33575057Y-16360738D01*
X-33575057Y-16360738D02*
X-33584580Y-16322643D01*
X-33584580Y-16322643D02*
X-33584580Y-16275024D01*
X-33584580Y-16275024D02*
X-33575057Y-16236929D01*
X-33575057Y-16236929D02*
X-33565533Y-16217881D01*
X-33565533Y-16217881D02*
X-33556009Y-16208358D01*
X-33556009Y-16208358D02*
X-33536961Y-16198834D01*
X-33384580Y-16398834D02*
X-33384580Y-16265500D01*
X-33384580Y-16284548D02*
X-33375056Y-16275024D01*
X-33375056Y-16275024D02*
X-33356009Y-16265500D01*
X-33356009Y-16265500D02*
X-33327437Y-16265500D01*
X-33327437Y-16265500D02*
X-33308390Y-16275024D01*
X-33308390Y-16275024D02*
X-33298866Y-16294072D01*
X-33298866Y-16294072D02*
X-33298866Y-16398834D01*
X-33298866Y-16294072D02*
X-33289342Y-16275024D01*
X-33289342Y-16275024D02*
X-33270295Y-16265500D01*
X-33270295Y-16265500D02*
X-33241723Y-16265500D01*
X-33241723Y-16265500D02*
X-33222675Y-16275024D01*
X-33222675Y-16275024D02*
X-33213152Y-16294072D01*
X-33213152Y-16294072D02*
X-33213152Y-16398834D01*
X-33117914Y-16398834D02*
X-33117914Y-16265500D01*
X-33117914Y-16284548D02*
X-33108390Y-16275024D01*
X-33108390Y-16275024D02*
X-33089342Y-16265500D01*
X-33089342Y-16265500D02*
X-33060771Y-16265500D01*
X-33060771Y-16265500D02*
X-33041723Y-16275024D01*
X-33041723Y-16275024D02*
X-33032199Y-16294072D01*
X-33032199Y-16294072D02*
X-33032199Y-16398834D01*
X-33032199Y-16294072D02*
X-33022675Y-16275024D01*
X-33022675Y-16275024D02*
X-33003628Y-16265500D01*
X-33003628Y-16265500D02*
X-32975056Y-16265500D01*
X-32975056Y-16265500D02*
X-32956009Y-16275024D01*
X-32956009Y-16275024D02*
X-32946485Y-16294072D01*
X-32946485Y-16294072D02*
X-32946485Y-16398834D01*
X-32556009Y-16189310D02*
X-32727437Y-16446453D01*
X-32298866Y-16198834D02*
X-32279818Y-16198834D01*
X-32279818Y-16198834D02*
X-32260771Y-16208358D01*
X-32260771Y-16208358D02*
X-32251247Y-16217881D01*
X-32251247Y-16217881D02*
X-32241723Y-16236929D01*
X-32241723Y-16236929D02*
X-32232199Y-16275024D01*
X-32232199Y-16275024D02*
X-32232199Y-16322643D01*
X-32232199Y-16322643D02*
X-32241723Y-16360738D01*
X-32241723Y-16360738D02*
X-32251247Y-16379786D01*
X-32251247Y-16379786D02*
X-32260771Y-16389310D01*
X-32260771Y-16389310D02*
X-32279818Y-16398834D01*
X-32279818Y-16398834D02*
X-32298866Y-16398834D01*
X-32298866Y-16398834D02*
X-32317913Y-16389310D01*
X-32317913Y-16389310D02*
X-32327437Y-16379786D01*
X-32327437Y-16379786D02*
X-32336961Y-16360738D01*
X-32336961Y-16360738D02*
X-32346485Y-16322643D01*
X-32346485Y-16322643D02*
X-32346485Y-16275024D01*
X-32346485Y-16275024D02*
X-32336961Y-16236929D01*
X-32336961Y-16236929D02*
X-32327437Y-16217881D01*
X-32327437Y-16217881D02*
X-32317913Y-16208358D01*
X-32317913Y-16208358D02*
X-32298866Y-16198834D01*
X-32146485Y-16379786D02*
X-32136961Y-16389310D01*
X-32136961Y-16389310D02*
X-32146485Y-16398834D01*
X-32146485Y-16398834D02*
X-32156009Y-16389310D01*
X-32156009Y-16389310D02*
X-32146485Y-16379786D01*
X-32146485Y-16379786D02*
X-32146485Y-16398834D01*
X-32013152Y-16198834D02*
X-31994104Y-16198834D01*
X-31994104Y-16198834D02*
X-31975056Y-16208358D01*
X-31975056Y-16208358D02*
X-31965532Y-16217881D01*
X-31965532Y-16217881D02*
X-31956009Y-16236929D01*
X-31956009Y-16236929D02*
X-31946485Y-16275024D01*
X-31946485Y-16275024D02*
X-31946485Y-16322643D01*
X-31946485Y-16322643D02*
X-31956009Y-16360738D01*
X-31956009Y-16360738D02*
X-31965532Y-16379786D01*
X-31965532Y-16379786D02*
X-31975056Y-16389310D01*
X-31975056Y-16389310D02*
X-31994104Y-16398834D01*
X-31994104Y-16398834D02*
X-32013152Y-16398834D01*
X-32013152Y-16398834D02*
X-32032199Y-16389310D01*
X-32032199Y-16389310D02*
X-32041723Y-16379786D01*
X-32041723Y-16379786D02*
X-32051247Y-16360738D01*
X-32051247Y-16360738D02*
X-32060771Y-16322643D01*
X-32060771Y-16322643D02*
X-32060771Y-16275024D01*
X-32060771Y-16275024D02*
X-32051247Y-16236929D01*
X-32051247Y-16236929D02*
X-32041723Y-16217881D01*
X-32041723Y-16217881D02*
X-32032199Y-16208358D01*
X-32032199Y-16208358D02*
X-32013152Y-16198834D01*
X-31775056Y-16198834D02*
X-31813152Y-16198834D01*
X-31813152Y-16198834D02*
X-31832199Y-16208358D01*
X-31832199Y-16208358D02*
X-31841723Y-16217881D01*
X-31841723Y-16217881D02*
X-31860771Y-16246453D01*
X-31860771Y-16246453D02*
X-31870294Y-16284548D01*
X-31870294Y-16284548D02*
X-31870294Y-16360738D01*
X-31870294Y-16360738D02*
X-31860771Y-16379786D01*
X-31860771Y-16379786D02*
X-31851247Y-16389310D01*
X-31851247Y-16389310D02*
X-31832199Y-16398834D01*
X-31832199Y-16398834D02*
X-31794104Y-16398834D01*
X-31794104Y-16398834D02*
X-31775056Y-16389310D01*
X-31775056Y-16389310D02*
X-31765532Y-16379786D01*
X-31765532Y-16379786D02*
X-31756009Y-16360738D01*
X-31756009Y-16360738D02*
X-31756009Y-16313119D01*
X-31756009Y-16313119D02*
X-31765532Y-16294072D01*
X-31765532Y-16294072D02*
X-31775056Y-16284548D01*
X-31775056Y-16284548D02*
X-31794104Y-16275024D01*
X-31794104Y-16275024D02*
X-31832199Y-16275024D01*
X-31832199Y-16275024D02*
X-31851247Y-16284548D01*
X-31851247Y-16284548D02*
X-31860771Y-16294072D01*
X-31860771Y-16294072D02*
X-31870294Y-16313119D01*
X-31641723Y-16284548D02*
X-31660771Y-16275024D01*
X-31660771Y-16275024D02*
X-31670294Y-16265500D01*
X-31670294Y-16265500D02*
X-31679818Y-16246453D01*
X-31679818Y-16246453D02*
X-31679818Y-16236929D01*
X-31679818Y-16236929D02*
X-31670294Y-16217881D01*
X-31670294Y-16217881D02*
X-31660771Y-16208358D01*
X-31660771Y-16208358D02*
X-31641723Y-16198834D01*
X-31641723Y-16198834D02*
X-31603628Y-16198834D01*
X-31603628Y-16198834D02*
X-31584580Y-16208358D01*
X-31584580Y-16208358D02*
X-31575056Y-16217881D01*
X-31575056Y-16217881D02*
X-31565532Y-16236929D01*
X-31565532Y-16236929D02*
X-31565532Y-16246453D01*
X-31565532Y-16246453D02*
X-31575056Y-16265500D01*
X-31575056Y-16265500D02*
X-31584580Y-16275024D01*
X-31584580Y-16275024D02*
X-31603628Y-16284548D01*
X-31603628Y-16284548D02*
X-31641723Y-16284548D01*
X-31641723Y-16284548D02*
X-31660771Y-16294072D01*
X-31660771Y-16294072D02*
X-31670294Y-16303596D01*
X-31670294Y-16303596D02*
X-31679818Y-16322643D01*
X-31679818Y-16322643D02*
X-31679818Y-16360738D01*
X-31679818Y-16360738D02*
X-31670294Y-16379786D01*
X-31670294Y-16379786D02*
X-31660771Y-16389310D01*
X-31660771Y-16389310D02*
X-31641723Y-16398834D01*
X-31641723Y-16398834D02*
X-31603628Y-16398834D01*
X-31603628Y-16398834D02*
X-31584580Y-16389310D01*
X-31584580Y-16389310D02*
X-31575056Y-16379786D01*
X-31575056Y-16379786D02*
X-31565532Y-16360738D01*
X-31565532Y-16360738D02*
X-31565532Y-16322643D01*
X-31565532Y-16322643D02*
X-31575056Y-16303596D01*
X-31575056Y-16303596D02*
X-31584580Y-16294072D01*
X-31584580Y-16294072D02*
X-31603628Y-16284548D01*
X-31470294Y-16398834D02*
X-31432199Y-16398834D01*
X-31432199Y-16398834D02*
X-31413151Y-16389310D01*
X-31413151Y-16389310D02*
X-31403628Y-16379786D01*
X-31403628Y-16379786D02*
X-31384580Y-16351215D01*
X-31384580Y-16351215D02*
X-31375056Y-16313119D01*
X-31375056Y-16313119D02*
X-31375056Y-16236929D01*
X-31375056Y-16236929D02*
X-31384580Y-16217881D01*
X-31384580Y-16217881D02*
X-31394104Y-16208358D01*
X-31394104Y-16208358D02*
X-31413151Y-16198834D01*
X-31413151Y-16198834D02*
X-31451247Y-16198834D01*
X-31451247Y-16198834D02*
X-31470294Y-16208358D01*
X-31470294Y-16208358D02*
X-31479818Y-16217881D01*
X-31479818Y-16217881D02*
X-31489342Y-16236929D01*
X-31489342Y-16236929D02*
X-31489342Y-16284548D01*
X-31489342Y-16284548D02*
X-31479818Y-16303596D01*
X-31479818Y-16303596D02*
X-31470294Y-16313119D01*
X-31470294Y-16313119D02*
X-31451247Y-16322643D01*
X-31451247Y-16322643D02*
X-31413151Y-16322643D01*
X-31413151Y-16322643D02*
X-31394104Y-16313119D01*
X-31394104Y-16313119D02*
X-31384580Y-16303596D01*
X-31384580Y-16303596D02*
X-31375056Y-16284548D01*
X-31298866Y-16198834D02*
X-31298866Y-16236929D01*
X-31222675Y-16198834D02*
X-31222675Y-16236929D01*
X-30927437Y-16475024D02*
X-30936961Y-16465500D01*
X-30936961Y-16465500D02*
X-30956009Y-16436929D01*
X-30956009Y-16436929D02*
X-30965532Y-16417881D01*
X-30965532Y-16417881D02*
X-30975056Y-16389310D01*
X-30975056Y-16389310D02*
X-30984580Y-16341691D01*
X-30984580Y-16341691D02*
X-30984580Y-16303596D01*
X-30984580Y-16303596D02*
X-30975056Y-16255977D01*
X-30975056Y-16255977D02*
X-30965532Y-16227405D01*
X-30965532Y-16227405D02*
X-30956009Y-16208358D01*
X-30956009Y-16208358D02*
X-30936961Y-16179786D01*
X-30936961Y-16179786D02*
X-30927437Y-16170262D01*
X-30860770Y-16217881D02*
X-30851247Y-16208358D01*
X-30851247Y-16208358D02*
X-30832199Y-16198834D01*
X-30832199Y-16198834D02*
X-30784580Y-16198834D01*
X-30784580Y-16198834D02*
X-30765532Y-16208358D01*
X-30765532Y-16208358D02*
X-30756009Y-16217881D01*
X-30756009Y-16217881D02*
X-30746485Y-16236929D01*
X-30746485Y-16236929D02*
X-30746485Y-16255977D01*
X-30746485Y-16255977D02*
X-30756009Y-16284548D01*
X-30756009Y-16284548D02*
X-30870294Y-16398834D01*
X-30870294Y-16398834D02*
X-30746485Y-16398834D01*
X-30670294Y-16217881D02*
X-30660770Y-16208358D01*
X-30660770Y-16208358D02*
X-30641723Y-16198834D01*
X-30641723Y-16198834D02*
X-30594104Y-16198834D01*
X-30594104Y-16198834D02*
X-30575056Y-16208358D01*
X-30575056Y-16208358D02*
X-30565532Y-16217881D01*
X-30565532Y-16217881D02*
X-30556009Y-16236929D01*
X-30556009Y-16236929D02*
X-30556009Y-16255977D01*
X-30556009Y-16255977D02*
X-30565532Y-16284548D01*
X-30565532Y-16284548D02*
X-30679818Y-16398834D01*
X-30679818Y-16398834D02*
X-30556009Y-16398834D01*
X-30432199Y-16198834D02*
X-30413151Y-16198834D01*
X-30413151Y-16198834D02*
X-30394104Y-16208358D01*
X-30394104Y-16208358D02*
X-30384580Y-16217881D01*
X-30384580Y-16217881D02*
X-30375056Y-16236929D01*
X-30375056Y-16236929D02*
X-30365532Y-16275024D01*
X-30365532Y-16275024D02*
X-30365532Y-16322643D01*
X-30365532Y-16322643D02*
X-30375056Y-16360738D01*
X-30375056Y-16360738D02*
X-30384580Y-16379786D01*
X-30384580Y-16379786D02*
X-30394104Y-16389310D01*
X-30394104Y-16389310D02*
X-30413151Y-16398834D01*
X-30413151Y-16398834D02*
X-30432199Y-16398834D01*
X-30432199Y-16398834D02*
X-30451247Y-16389310D01*
X-30451247Y-16389310D02*
X-30460770Y-16379786D01*
X-30460770Y-16379786D02*
X-30470294Y-16360738D01*
X-30470294Y-16360738D02*
X-30479818Y-16322643D01*
X-30479818Y-16322643D02*
X-30479818Y-16275024D01*
X-30479818Y-16275024D02*
X-30470294Y-16236929D01*
X-30470294Y-16236929D02*
X-30460770Y-16217881D01*
X-30460770Y-16217881D02*
X-30451247Y-16208358D01*
X-30451247Y-16208358D02*
X-30432199Y-16198834D01*
X-30127437Y-16398834D02*
X-30127437Y-16198834D01*
X-30041723Y-16398834D02*
X-30041723Y-16294072D01*
X-30041723Y-16294072D02*
X-30051247Y-16275024D01*
X-30051247Y-16275024D02*
X-30070294Y-16265500D01*
X-30070294Y-16265500D02*
X-30098866Y-16265500D01*
X-30098866Y-16265500D02*
X-30117913Y-16275024D01*
X-30117913Y-16275024D02*
X-30127437Y-16284548D01*
X-29917913Y-16398834D02*
X-29936961Y-16389310D01*
X-29936961Y-16389310D02*
X-29946485Y-16379786D01*
X-29946485Y-16379786D02*
X-29956008Y-16360738D01*
X-29956008Y-16360738D02*
X-29956008Y-16303596D01*
X-29956008Y-16303596D02*
X-29946485Y-16284548D01*
X-29946485Y-16284548D02*
X-29936961Y-16275024D01*
X-29936961Y-16275024D02*
X-29917913Y-16265500D01*
X-29917913Y-16265500D02*
X-29889342Y-16265500D01*
X-29889342Y-16265500D02*
X-29870294Y-16275024D01*
X-29870294Y-16275024D02*
X-29860770Y-16284548D01*
X-29860770Y-16284548D02*
X-29851247Y-16303596D01*
X-29851247Y-16303596D02*
X-29851247Y-16360738D01*
X-29851247Y-16360738D02*
X-29860770Y-16379786D01*
X-29860770Y-16379786D02*
X-29870294Y-16389310D01*
X-29870294Y-16389310D02*
X-29889342Y-16398834D01*
X-29889342Y-16398834D02*
X-29917913Y-16398834D01*
X-29736961Y-16398834D02*
X-29756008Y-16389310D01*
X-29756008Y-16389310D02*
X-29765532Y-16370262D01*
X-29765532Y-16370262D02*
X-29765532Y-16198834D01*
X-29584580Y-16389310D02*
X-29603627Y-16398834D01*
X-29603627Y-16398834D02*
X-29641723Y-16398834D01*
X-29641723Y-16398834D02*
X-29660770Y-16389310D01*
X-29660770Y-16389310D02*
X-29670294Y-16370262D01*
X-29670294Y-16370262D02*
X-29670294Y-16294072D01*
X-29670294Y-16294072D02*
X-29660770Y-16275024D01*
X-29660770Y-16275024D02*
X-29641723Y-16265500D01*
X-29641723Y-16265500D02*
X-29603627Y-16265500D01*
X-29603627Y-16265500D02*
X-29584580Y-16275024D01*
X-29584580Y-16275024D02*
X-29575056Y-16294072D01*
X-29575056Y-16294072D02*
X-29575056Y-16313119D01*
X-29575056Y-16313119D02*
X-29670294Y-16332167D01*
X-29498866Y-16389310D02*
X-29479818Y-16398834D01*
X-29479818Y-16398834D02*
X-29441723Y-16398834D01*
X-29441723Y-16398834D02*
X-29422675Y-16389310D01*
X-29422675Y-16389310D02*
X-29413151Y-16370262D01*
X-29413151Y-16370262D02*
X-29413151Y-16360738D01*
X-29413151Y-16360738D02*
X-29422675Y-16341691D01*
X-29422675Y-16341691D02*
X-29441723Y-16332167D01*
X-29441723Y-16332167D02*
X-29470294Y-16332167D01*
X-29470294Y-16332167D02*
X-29489342Y-16322643D01*
X-29489342Y-16322643D02*
X-29498866Y-16303596D01*
X-29498866Y-16303596D02*
X-29498866Y-16294072D01*
X-29498866Y-16294072D02*
X-29489342Y-16275024D01*
X-29489342Y-16275024D02*
X-29470294Y-16265500D01*
X-29470294Y-16265500D02*
X-29441723Y-16265500D01*
X-29441723Y-16265500D02*
X-29422675Y-16275024D01*
X-29346485Y-16475024D02*
X-29336961Y-16465500D01*
X-29336961Y-16465500D02*
X-29317913Y-16436929D01*
X-29317913Y-16436929D02*
X-29308389Y-16417881D01*
X-29308389Y-16417881D02*
X-29298866Y-16389310D01*
X-29298866Y-16389310D02*
X-29289342Y-16341691D01*
X-29289342Y-16341691D02*
X-29289342Y-16303596D01*
X-29289342Y-16303596D02*
X-29298866Y-16255977D01*
X-29298866Y-16255977D02*
X-29308389Y-16227405D01*
X-29308389Y-16227405D02*
X-29317913Y-16208358D01*
X-29317913Y-16208358D02*
X-29336961Y-16179786D01*
X-29336961Y-16179786D02*
X-29346485Y-16170262D01*
X-28984580Y-16475024D02*
X-28994104Y-16465500D01*
X-28994104Y-16465500D02*
X-29013151Y-16436929D01*
X-29013151Y-16436929D02*
X-29022675Y-16417881D01*
X-29022675Y-16417881D02*
X-29032199Y-16389310D01*
X-29032199Y-16389310D02*
X-29041723Y-16341691D01*
X-29041723Y-16341691D02*
X-29041723Y-16303596D01*
X-29041723Y-16303596D02*
X-29032199Y-16255977D01*
X-29032199Y-16255977D02*
X-29022675Y-16227405D01*
X-29022675Y-16227405D02*
X-29013151Y-16208358D01*
X-29013151Y-16208358D02*
X-28994104Y-16179786D01*
X-28994104Y-16179786D02*
X-28984580Y-16170262D01*
X-28908389Y-16265500D02*
X-28908389Y-16398834D01*
X-28908389Y-16284548D02*
X-28898866Y-16275024D01*
X-28898866Y-16275024D02*
X-28879818Y-16265500D01*
X-28879818Y-16265500D02*
X-28851246Y-16265500D01*
X-28851246Y-16265500D02*
X-28832199Y-16275024D01*
X-28832199Y-16275024D02*
X-28822675Y-16294072D01*
X-28822675Y-16294072D02*
X-28822675Y-16398834D01*
X-28698866Y-16398834D02*
X-28717913Y-16389310D01*
X-28717913Y-16389310D02*
X-28727437Y-16379786D01*
X-28727437Y-16379786D02*
X-28736961Y-16360738D01*
X-28736961Y-16360738D02*
X-28736961Y-16303596D01*
X-28736961Y-16303596D02*
X-28727437Y-16284548D01*
X-28727437Y-16284548D02*
X-28717913Y-16275024D01*
X-28717913Y-16275024D02*
X-28698866Y-16265500D01*
X-28698866Y-16265500D02*
X-28670294Y-16265500D01*
X-28670294Y-16265500D02*
X-28651246Y-16275024D01*
X-28651246Y-16275024D02*
X-28641723Y-16284548D01*
X-28641723Y-16284548D02*
X-28632199Y-16303596D01*
X-28632199Y-16303596D02*
X-28632199Y-16360738D01*
X-28632199Y-16360738D02*
X-28641723Y-16379786D01*
X-28641723Y-16379786D02*
X-28651246Y-16389310D01*
X-28651246Y-16389310D02*
X-28670294Y-16398834D01*
X-28670294Y-16398834D02*
X-28698866Y-16398834D01*
X-28575056Y-16265500D02*
X-28498866Y-16265500D01*
X-28546485Y-16198834D02*
X-28546485Y-16370262D01*
X-28546485Y-16370262D02*
X-28536961Y-16389310D01*
X-28536961Y-16389310D02*
X-28517913Y-16398834D01*
X-28517913Y-16398834D02*
X-28498866Y-16398834D01*
X-28279818Y-16265500D02*
X-28279818Y-16465500D01*
X-28279818Y-16275024D02*
X-28260770Y-16265500D01*
X-28260770Y-16265500D02*
X-28222675Y-16265500D01*
X-28222675Y-16265500D02*
X-28203627Y-16275024D01*
X-28203627Y-16275024D02*
X-28194104Y-16284548D01*
X-28194104Y-16284548D02*
X-28184580Y-16303596D01*
X-28184580Y-16303596D02*
X-28184580Y-16360738D01*
X-28184580Y-16360738D02*
X-28194104Y-16379786D01*
X-28194104Y-16379786D02*
X-28203627Y-16389310D01*
X-28203627Y-16389310D02*
X-28222675Y-16398834D01*
X-28222675Y-16398834D02*
X-28260770Y-16398834D01*
X-28260770Y-16398834D02*
X-28279818Y-16389310D01*
X-28070294Y-16398834D02*
X-28089342Y-16389310D01*
X-28089342Y-16389310D02*
X-28098865Y-16370262D01*
X-28098865Y-16370262D02*
X-28098865Y-16198834D01*
X-27908389Y-16398834D02*
X-27908389Y-16294072D01*
X-27908389Y-16294072D02*
X-27917913Y-16275024D01*
X-27917913Y-16275024D02*
X-27936961Y-16265500D01*
X-27936961Y-16265500D02*
X-27975056Y-16265500D01*
X-27975056Y-16265500D02*
X-27994104Y-16275024D01*
X-27908389Y-16389310D02*
X-27927437Y-16398834D01*
X-27927437Y-16398834D02*
X-27975056Y-16398834D01*
X-27975056Y-16398834D02*
X-27994104Y-16389310D01*
X-27994104Y-16389310D02*
X-28003627Y-16370262D01*
X-28003627Y-16370262D02*
X-28003627Y-16351215D01*
X-28003627Y-16351215D02*
X-27994104Y-16332167D01*
X-27994104Y-16332167D02*
X-27975056Y-16322643D01*
X-27975056Y-16322643D02*
X-27927437Y-16322643D01*
X-27927437Y-16322643D02*
X-27908389Y-16313119D01*
X-27841723Y-16265500D02*
X-27765532Y-16265500D01*
X-27813151Y-16198834D02*
X-27813151Y-16370262D01*
X-27813151Y-16370262D02*
X-27803627Y-16389310D01*
X-27803627Y-16389310D02*
X-27784580Y-16398834D01*
X-27784580Y-16398834D02*
X-27765532Y-16398834D01*
X-27622675Y-16389310D02*
X-27641723Y-16398834D01*
X-27641723Y-16398834D02*
X-27679818Y-16398834D01*
X-27679818Y-16398834D02*
X-27698865Y-16389310D01*
X-27698865Y-16389310D02*
X-27708389Y-16370262D01*
X-27708389Y-16370262D02*
X-27708389Y-16294072D01*
X-27708389Y-16294072D02*
X-27698865Y-16275024D01*
X-27698865Y-16275024D02*
X-27679818Y-16265500D01*
X-27679818Y-16265500D02*
X-27641723Y-16265500D01*
X-27641723Y-16265500D02*
X-27622675Y-16275024D01*
X-27622675Y-16275024D02*
X-27613151Y-16294072D01*
X-27613151Y-16294072D02*
X-27613151Y-16313119D01*
X-27613151Y-16313119D02*
X-27708389Y-16332167D01*
X-27441723Y-16398834D02*
X-27441723Y-16198834D01*
X-27441723Y-16389310D02*
X-27460770Y-16398834D01*
X-27460770Y-16398834D02*
X-27498865Y-16398834D01*
X-27498865Y-16398834D02*
X-27517913Y-16389310D01*
X-27517913Y-16389310D02*
X-27527437Y-16379786D01*
X-27527437Y-16379786D02*
X-27536961Y-16360738D01*
X-27536961Y-16360738D02*
X-27536961Y-16303596D01*
X-27536961Y-16303596D02*
X-27527437Y-16284548D01*
X-27527437Y-16284548D02*
X-27517913Y-16275024D01*
X-27517913Y-16275024D02*
X-27498865Y-16265500D01*
X-27498865Y-16265500D02*
X-27460770Y-16265500D01*
X-27460770Y-16265500D02*
X-27441723Y-16275024D01*
X-27365532Y-16475024D02*
X-27356008Y-16465500D01*
X-27356008Y-16465500D02*
X-27336961Y-16436929D01*
X-27336961Y-16436929D02*
X-27327437Y-16417881D01*
X-27327437Y-16417881D02*
X-27317913Y-16389310D01*
X-27317913Y-16389310D02*
X-27308389Y-16341691D01*
X-27308389Y-16341691D02*
X-27308389Y-16303596D01*
X-27308389Y-16303596D02*
X-27317913Y-16255977D01*
X-27317913Y-16255977D02*
X-27327437Y-16227405D01*
X-27327437Y-16227405D02*
X-27336961Y-16208358D01*
X-27336961Y-16208358D02*
X-27356008Y-16179786D01*
X-27356008Y-16179786D02*
X-27365532Y-16170262D01*
X-34602500Y-16502350D02*
X-34602500Y-16702350D01*
X-34702500Y-16602350D02*
X-34502500Y-16602350D01*
X-34260771Y-16493834D02*
X-34136961Y-16493834D01*
X-34136961Y-16493834D02*
X-34203628Y-16570024D01*
X-34203628Y-16570024D02*
X-34175057Y-16570024D01*
X-34175057Y-16570024D02*
X-34156009Y-16579548D01*
X-34156009Y-16579548D02*
X-34146485Y-16589072D01*
X-34146485Y-16589072D02*
X-34136961Y-16608119D01*
X-34136961Y-16608119D02*
X-34136961Y-16655738D01*
X-34136961Y-16655738D02*
X-34146485Y-16674786D01*
X-34146485Y-16674786D02*
X-34156009Y-16684310D01*
X-34156009Y-16684310D02*
X-34175057Y-16693834D01*
X-34175057Y-16693834D02*
X-34232199Y-16693834D01*
X-34232199Y-16693834D02*
X-34251247Y-16684310D01*
X-34251247Y-16684310D02*
X-34260771Y-16674786D01*
X-34051247Y-16674786D02*
X-34041723Y-16684310D01*
X-34041723Y-16684310D02*
X-34051247Y-16693834D01*
X-34051247Y-16693834D02*
X-34060771Y-16684310D01*
X-34060771Y-16684310D02*
X-34051247Y-16674786D01*
X-34051247Y-16674786D02*
X-34051247Y-16693834D01*
X-33917914Y-16493834D02*
X-33898866Y-16493834D01*
X-33898866Y-16493834D02*
X-33879818Y-16503358D01*
X-33879818Y-16503358D02*
X-33870295Y-16512881D01*
X-33870295Y-16512881D02*
X-33860771Y-16531929D01*
X-33860771Y-16531929D02*
X-33851247Y-16570024D01*
X-33851247Y-16570024D02*
X-33851247Y-16617643D01*
X-33851247Y-16617643D02*
X-33860771Y-16655738D01*
X-33860771Y-16655738D02*
X-33870295Y-16674786D01*
X-33870295Y-16674786D02*
X-33879818Y-16684310D01*
X-33879818Y-16684310D02*
X-33898866Y-16693834D01*
X-33898866Y-16693834D02*
X-33917914Y-16693834D01*
X-33917914Y-16693834D02*
X-33936961Y-16684310D01*
X-33936961Y-16684310D02*
X-33946485Y-16674786D01*
X-33946485Y-16674786D02*
X-33956009Y-16655738D01*
X-33956009Y-16655738D02*
X-33965533Y-16617643D01*
X-33965533Y-16617643D02*
X-33965533Y-16570024D01*
X-33965533Y-16570024D02*
X-33956009Y-16531929D01*
X-33956009Y-16531929D02*
X-33946485Y-16512881D01*
X-33946485Y-16512881D02*
X-33936961Y-16503358D01*
X-33936961Y-16503358D02*
X-33917914Y-16493834D01*
X-33679818Y-16560500D02*
X-33679818Y-16693834D01*
X-33727438Y-16484310D02*
X-33775057Y-16627167D01*
X-33775057Y-16627167D02*
X-33651247Y-16627167D01*
X-33546485Y-16579548D02*
X-33565533Y-16570024D01*
X-33565533Y-16570024D02*
X-33575057Y-16560500D01*
X-33575057Y-16560500D02*
X-33584580Y-16541453D01*
X-33584580Y-16541453D02*
X-33584580Y-16531929D01*
X-33584580Y-16531929D02*
X-33575057Y-16512881D01*
X-33575057Y-16512881D02*
X-33565533Y-16503358D01*
X-33565533Y-16503358D02*
X-33546485Y-16493834D01*
X-33546485Y-16493834D02*
X-33508390Y-16493834D01*
X-33508390Y-16493834D02*
X-33489342Y-16503358D01*
X-33489342Y-16503358D02*
X-33479818Y-16512881D01*
X-33479818Y-16512881D02*
X-33470295Y-16531929D01*
X-33470295Y-16531929D02*
X-33470295Y-16541453D01*
X-33470295Y-16541453D02*
X-33479818Y-16560500D01*
X-33479818Y-16560500D02*
X-33489342Y-16570024D01*
X-33489342Y-16570024D02*
X-33508390Y-16579548D01*
X-33508390Y-16579548D02*
X-33546485Y-16579548D01*
X-33546485Y-16579548D02*
X-33565533Y-16589072D01*
X-33565533Y-16589072D02*
X-33575057Y-16598596D01*
X-33575057Y-16598596D02*
X-33584580Y-16617643D01*
X-33584580Y-16617643D02*
X-33584580Y-16655738D01*
X-33584580Y-16655738D02*
X-33575057Y-16674786D01*
X-33575057Y-16674786D02*
X-33565533Y-16684310D01*
X-33565533Y-16684310D02*
X-33546485Y-16693834D01*
X-33546485Y-16693834D02*
X-33508390Y-16693834D01*
X-33508390Y-16693834D02*
X-33489342Y-16684310D01*
X-33489342Y-16684310D02*
X-33479818Y-16674786D01*
X-33479818Y-16674786D02*
X-33470295Y-16655738D01*
X-33470295Y-16655738D02*
X-33470295Y-16617643D01*
X-33470295Y-16617643D02*
X-33479818Y-16598596D01*
X-33479818Y-16598596D02*
X-33489342Y-16589072D01*
X-33489342Y-16589072D02*
X-33508390Y-16579548D01*
X-33384580Y-16693834D02*
X-33384580Y-16560500D01*
X-33384580Y-16579548D02*
X-33375056Y-16570024D01*
X-33375056Y-16570024D02*
X-33356009Y-16560500D01*
X-33356009Y-16560500D02*
X-33327437Y-16560500D01*
X-33327437Y-16560500D02*
X-33308390Y-16570024D01*
X-33308390Y-16570024D02*
X-33298866Y-16589072D01*
X-33298866Y-16589072D02*
X-33298866Y-16693834D01*
X-33298866Y-16589072D02*
X-33289342Y-16570024D01*
X-33289342Y-16570024D02*
X-33270295Y-16560500D01*
X-33270295Y-16560500D02*
X-33241723Y-16560500D01*
X-33241723Y-16560500D02*
X-33222675Y-16570024D01*
X-33222675Y-16570024D02*
X-33213152Y-16589072D01*
X-33213152Y-16589072D02*
X-33213152Y-16693834D01*
X-33117914Y-16693834D02*
X-33117914Y-16560500D01*
X-33117914Y-16579548D02*
X-33108390Y-16570024D01*
X-33108390Y-16570024D02*
X-33089342Y-16560500D01*
X-33089342Y-16560500D02*
X-33060771Y-16560500D01*
X-33060771Y-16560500D02*
X-33041723Y-16570024D01*
X-33041723Y-16570024D02*
X-33032199Y-16589072D01*
X-33032199Y-16589072D02*
X-33032199Y-16693834D01*
X-33032199Y-16589072D02*
X-33022675Y-16570024D01*
X-33022675Y-16570024D02*
X-33003628Y-16560500D01*
X-33003628Y-16560500D02*
X-32975056Y-16560500D01*
X-32975056Y-16560500D02*
X-32956009Y-16570024D01*
X-32956009Y-16570024D02*
X-32946485Y-16589072D01*
X-32946485Y-16589072D02*
X-32946485Y-16693834D01*
X-32556009Y-16484310D02*
X-32727437Y-16741453D01*
X-32298866Y-16493834D02*
X-32279818Y-16493834D01*
X-32279818Y-16493834D02*
X-32260771Y-16503358D01*
X-32260771Y-16503358D02*
X-32251247Y-16512881D01*
X-32251247Y-16512881D02*
X-32241723Y-16531929D01*
X-32241723Y-16531929D02*
X-32232199Y-16570024D01*
X-32232199Y-16570024D02*
X-32232199Y-16617643D01*
X-32232199Y-16617643D02*
X-32241723Y-16655738D01*
X-32241723Y-16655738D02*
X-32251247Y-16674786D01*
X-32251247Y-16674786D02*
X-32260771Y-16684310D01*
X-32260771Y-16684310D02*
X-32279818Y-16693834D01*
X-32279818Y-16693834D02*
X-32298866Y-16693834D01*
X-32298866Y-16693834D02*
X-32317913Y-16684310D01*
X-32317913Y-16684310D02*
X-32327437Y-16674786D01*
X-32327437Y-16674786D02*
X-32336961Y-16655738D01*
X-32336961Y-16655738D02*
X-32346485Y-16617643D01*
X-32346485Y-16617643D02*
X-32346485Y-16570024D01*
X-32346485Y-16570024D02*
X-32336961Y-16531929D01*
X-32336961Y-16531929D02*
X-32327437Y-16512881D01*
X-32327437Y-16512881D02*
X-32317913Y-16503358D01*
X-32317913Y-16503358D02*
X-32298866Y-16493834D01*
X-32146485Y-16674786D02*
X-32136961Y-16684310D01*
X-32136961Y-16684310D02*
X-32146485Y-16693834D01*
X-32146485Y-16693834D02*
X-32156009Y-16684310D01*
X-32156009Y-16684310D02*
X-32146485Y-16674786D01*
X-32146485Y-16674786D02*
X-32146485Y-16693834D01*
X-31946485Y-16693834D02*
X-32060771Y-16693834D01*
X-32003628Y-16693834D02*
X-32003628Y-16493834D01*
X-32003628Y-16493834D02*
X-32022675Y-16522405D01*
X-32022675Y-16522405D02*
X-32041723Y-16541453D01*
X-32041723Y-16541453D02*
X-32060771Y-16550977D01*
X-31870294Y-16512881D02*
X-31860771Y-16503358D01*
X-31860771Y-16503358D02*
X-31841723Y-16493834D01*
X-31841723Y-16493834D02*
X-31794104Y-16493834D01*
X-31794104Y-16493834D02*
X-31775056Y-16503358D01*
X-31775056Y-16503358D02*
X-31765532Y-16512881D01*
X-31765532Y-16512881D02*
X-31756009Y-16531929D01*
X-31756009Y-16531929D02*
X-31756009Y-16550977D01*
X-31756009Y-16550977D02*
X-31765532Y-16579548D01*
X-31765532Y-16579548D02*
X-31879818Y-16693834D01*
X-31879818Y-16693834D02*
X-31756009Y-16693834D01*
X-31632199Y-16493834D02*
X-31613151Y-16493834D01*
X-31613151Y-16493834D02*
X-31594104Y-16503358D01*
X-31594104Y-16503358D02*
X-31584580Y-16512881D01*
X-31584580Y-16512881D02*
X-31575056Y-16531929D01*
X-31575056Y-16531929D02*
X-31565532Y-16570024D01*
X-31565532Y-16570024D02*
X-31565532Y-16617643D01*
X-31565532Y-16617643D02*
X-31575056Y-16655738D01*
X-31575056Y-16655738D02*
X-31584580Y-16674786D01*
X-31584580Y-16674786D02*
X-31594104Y-16684310D01*
X-31594104Y-16684310D02*
X-31613151Y-16693834D01*
X-31613151Y-16693834D02*
X-31632199Y-16693834D01*
X-31632199Y-16693834D02*
X-31651247Y-16684310D01*
X-31651247Y-16684310D02*
X-31660771Y-16674786D01*
X-31660771Y-16674786D02*
X-31670294Y-16655738D01*
X-31670294Y-16655738D02*
X-31679818Y-16617643D01*
X-31679818Y-16617643D02*
X-31679818Y-16570024D01*
X-31679818Y-16570024D02*
X-31670294Y-16531929D01*
X-31670294Y-16531929D02*
X-31660771Y-16512881D01*
X-31660771Y-16512881D02*
X-31651247Y-16503358D01*
X-31651247Y-16503358D02*
X-31632199Y-16493834D01*
X-31441723Y-16493834D02*
X-31422675Y-16493834D01*
X-31422675Y-16493834D02*
X-31403628Y-16503358D01*
X-31403628Y-16503358D02*
X-31394104Y-16512881D01*
X-31394104Y-16512881D02*
X-31384580Y-16531929D01*
X-31384580Y-16531929D02*
X-31375056Y-16570024D01*
X-31375056Y-16570024D02*
X-31375056Y-16617643D01*
X-31375056Y-16617643D02*
X-31384580Y-16655738D01*
X-31384580Y-16655738D02*
X-31394104Y-16674786D01*
X-31394104Y-16674786D02*
X-31403628Y-16684310D01*
X-31403628Y-16684310D02*
X-31422675Y-16693834D01*
X-31422675Y-16693834D02*
X-31441723Y-16693834D01*
X-31441723Y-16693834D02*
X-31460771Y-16684310D01*
X-31460771Y-16684310D02*
X-31470294Y-16674786D01*
X-31470294Y-16674786D02*
X-31479818Y-16655738D01*
X-31479818Y-16655738D02*
X-31489342Y-16617643D01*
X-31489342Y-16617643D02*
X-31489342Y-16570024D01*
X-31489342Y-16570024D02*
X-31479818Y-16531929D01*
X-31479818Y-16531929D02*
X-31470294Y-16512881D01*
X-31470294Y-16512881D02*
X-31460771Y-16503358D01*
X-31460771Y-16503358D02*
X-31441723Y-16493834D01*
X-31298866Y-16493834D02*
X-31298866Y-16531929D01*
X-31222675Y-16493834D02*
X-31222675Y-16531929D01*
X-30927437Y-16770024D02*
X-30936961Y-16760500D01*
X-30936961Y-16760500D02*
X-30956009Y-16731929D01*
X-30956009Y-16731929D02*
X-30965532Y-16712881D01*
X-30965532Y-16712881D02*
X-30975056Y-16684310D01*
X-30975056Y-16684310D02*
X-30984580Y-16636691D01*
X-30984580Y-16636691D02*
X-30984580Y-16598596D01*
X-30984580Y-16598596D02*
X-30975056Y-16550977D01*
X-30975056Y-16550977D02*
X-30965532Y-16522405D01*
X-30965532Y-16522405D02*
X-30956009Y-16503358D01*
X-30956009Y-16503358D02*
X-30936961Y-16474786D01*
X-30936961Y-16474786D02*
X-30927437Y-16465262D01*
X-30746485Y-16693834D02*
X-30860770Y-16693834D01*
X-30803628Y-16693834D02*
X-30803628Y-16493834D01*
X-30803628Y-16493834D02*
X-30822675Y-16522405D01*
X-30822675Y-16522405D02*
X-30841723Y-16541453D01*
X-30841723Y-16541453D02*
X-30860770Y-16550977D01*
X-30575056Y-16493834D02*
X-30613151Y-16493834D01*
X-30613151Y-16493834D02*
X-30632199Y-16503358D01*
X-30632199Y-16503358D02*
X-30641723Y-16512881D01*
X-30641723Y-16512881D02*
X-30660770Y-16541453D01*
X-30660770Y-16541453D02*
X-30670294Y-16579548D01*
X-30670294Y-16579548D02*
X-30670294Y-16655738D01*
X-30670294Y-16655738D02*
X-30660770Y-16674786D01*
X-30660770Y-16674786D02*
X-30651247Y-16684310D01*
X-30651247Y-16684310D02*
X-30632199Y-16693834D01*
X-30632199Y-16693834D02*
X-30594104Y-16693834D01*
X-30594104Y-16693834D02*
X-30575056Y-16684310D01*
X-30575056Y-16684310D02*
X-30565532Y-16674786D01*
X-30565532Y-16674786D02*
X-30556009Y-16655738D01*
X-30556009Y-16655738D02*
X-30556009Y-16608119D01*
X-30556009Y-16608119D02*
X-30565532Y-16589072D01*
X-30565532Y-16589072D02*
X-30575056Y-16579548D01*
X-30575056Y-16579548D02*
X-30594104Y-16570024D01*
X-30594104Y-16570024D02*
X-30632199Y-16570024D01*
X-30632199Y-16570024D02*
X-30651247Y-16579548D01*
X-30651247Y-16579548D02*
X-30660770Y-16589072D01*
X-30660770Y-16589072D02*
X-30670294Y-16608119D01*
X-30317913Y-16693834D02*
X-30317913Y-16493834D01*
X-30232199Y-16693834D02*
X-30232199Y-16589072D01*
X-30232199Y-16589072D02*
X-30241723Y-16570024D01*
X-30241723Y-16570024D02*
X-30260770Y-16560500D01*
X-30260770Y-16560500D02*
X-30289342Y-16560500D01*
X-30289342Y-16560500D02*
X-30308389Y-16570024D01*
X-30308389Y-16570024D02*
X-30317913Y-16579548D01*
X-30108389Y-16693834D02*
X-30127437Y-16684310D01*
X-30127437Y-16684310D02*
X-30136961Y-16674786D01*
X-30136961Y-16674786D02*
X-30146485Y-16655738D01*
X-30146485Y-16655738D02*
X-30146485Y-16598596D01*
X-30146485Y-16598596D02*
X-30136961Y-16579548D01*
X-30136961Y-16579548D02*
X-30127437Y-16570024D01*
X-30127437Y-16570024D02*
X-30108389Y-16560500D01*
X-30108389Y-16560500D02*
X-30079818Y-16560500D01*
X-30079818Y-16560500D02*
X-30060770Y-16570024D01*
X-30060770Y-16570024D02*
X-30051247Y-16579548D01*
X-30051247Y-16579548D02*
X-30041723Y-16598596D01*
X-30041723Y-16598596D02*
X-30041723Y-16655738D01*
X-30041723Y-16655738D02*
X-30051247Y-16674786D01*
X-30051247Y-16674786D02*
X-30060770Y-16684310D01*
X-30060770Y-16684310D02*
X-30079818Y-16693834D01*
X-30079818Y-16693834D02*
X-30108389Y-16693834D01*
X-29927437Y-16693834D02*
X-29946485Y-16684310D01*
X-29946485Y-16684310D02*
X-29956008Y-16665262D01*
X-29956008Y-16665262D02*
X-29956008Y-16493834D01*
X-29775056Y-16684310D02*
X-29794104Y-16693834D01*
X-29794104Y-16693834D02*
X-29832199Y-16693834D01*
X-29832199Y-16693834D02*
X-29851247Y-16684310D01*
X-29851247Y-16684310D02*
X-29860770Y-16665262D01*
X-29860770Y-16665262D02*
X-29860770Y-16589072D01*
X-29860770Y-16589072D02*
X-29851247Y-16570024D01*
X-29851247Y-16570024D02*
X-29832199Y-16560500D01*
X-29832199Y-16560500D02*
X-29794104Y-16560500D01*
X-29794104Y-16560500D02*
X-29775056Y-16570024D01*
X-29775056Y-16570024D02*
X-29765532Y-16589072D01*
X-29765532Y-16589072D02*
X-29765532Y-16608119D01*
X-29765532Y-16608119D02*
X-29860770Y-16627167D01*
X-29689342Y-16684310D02*
X-29670294Y-16693834D01*
X-29670294Y-16693834D02*
X-29632199Y-16693834D01*
X-29632199Y-16693834D02*
X-29613151Y-16684310D01*
X-29613151Y-16684310D02*
X-29603627Y-16665262D01*
X-29603627Y-16665262D02*
X-29603627Y-16655738D01*
X-29603627Y-16655738D02*
X-29613151Y-16636691D01*
X-29613151Y-16636691D02*
X-29632199Y-16627167D01*
X-29632199Y-16627167D02*
X-29660770Y-16627167D01*
X-29660770Y-16627167D02*
X-29679818Y-16617643D01*
X-29679818Y-16617643D02*
X-29689342Y-16598596D01*
X-29689342Y-16598596D02*
X-29689342Y-16589072D01*
X-29689342Y-16589072D02*
X-29679818Y-16570024D01*
X-29679818Y-16570024D02*
X-29660770Y-16560500D01*
X-29660770Y-16560500D02*
X-29632199Y-16560500D01*
X-29632199Y-16560500D02*
X-29613151Y-16570024D01*
X-29536961Y-16770024D02*
X-29527437Y-16760500D01*
X-29527437Y-16760500D02*
X-29508389Y-16731929D01*
X-29508389Y-16731929D02*
X-29498866Y-16712881D01*
X-29498866Y-16712881D02*
X-29489342Y-16684310D01*
X-29489342Y-16684310D02*
X-29479818Y-16636691D01*
X-29479818Y-16636691D02*
X-29479818Y-16598596D01*
X-29479818Y-16598596D02*
X-29489342Y-16550977D01*
X-29489342Y-16550977D02*
X-29498866Y-16522405D01*
X-29498866Y-16522405D02*
X-29508389Y-16503358D01*
X-29508389Y-16503358D02*
X-29527437Y-16474786D01*
X-29527437Y-16474786D02*
X-29536961Y-16465262D01*
X-29175056Y-16770024D02*
X-29184580Y-16760500D01*
X-29184580Y-16760500D02*
X-29203627Y-16731929D01*
X-29203627Y-16731929D02*
X-29213151Y-16712881D01*
X-29213151Y-16712881D02*
X-29222675Y-16684310D01*
X-29222675Y-16684310D02*
X-29232199Y-16636691D01*
X-29232199Y-16636691D02*
X-29232199Y-16598596D01*
X-29232199Y-16598596D02*
X-29222675Y-16550977D01*
X-29222675Y-16550977D02*
X-29213151Y-16522405D01*
X-29213151Y-16522405D02*
X-29203627Y-16503358D01*
X-29203627Y-16503358D02*
X-29184580Y-16474786D01*
X-29184580Y-16474786D02*
X-29175056Y-16465262D01*
X-29098866Y-16560500D02*
X-29098866Y-16693834D01*
X-29098866Y-16579548D02*
X-29089342Y-16570024D01*
X-29089342Y-16570024D02*
X-29070294Y-16560500D01*
X-29070294Y-16560500D02*
X-29041723Y-16560500D01*
X-29041723Y-16560500D02*
X-29022675Y-16570024D01*
X-29022675Y-16570024D02*
X-29013151Y-16589072D01*
X-29013151Y-16589072D02*
X-29013151Y-16693834D01*
X-28889342Y-16693834D02*
X-28908389Y-16684310D01*
X-28908389Y-16684310D02*
X-28917913Y-16674786D01*
X-28917913Y-16674786D02*
X-28927437Y-16655738D01*
X-28927437Y-16655738D02*
X-28927437Y-16598596D01*
X-28927437Y-16598596D02*
X-28917913Y-16579548D01*
X-28917913Y-16579548D02*
X-28908389Y-16570024D01*
X-28908389Y-16570024D02*
X-28889342Y-16560500D01*
X-28889342Y-16560500D02*
X-28860770Y-16560500D01*
X-28860770Y-16560500D02*
X-28841723Y-16570024D01*
X-28841723Y-16570024D02*
X-28832199Y-16579548D01*
X-28832199Y-16579548D02*
X-28822675Y-16598596D01*
X-28822675Y-16598596D02*
X-28822675Y-16655738D01*
X-28822675Y-16655738D02*
X-28832199Y-16674786D01*
X-28832199Y-16674786D02*
X-28841723Y-16684310D01*
X-28841723Y-16684310D02*
X-28860770Y-16693834D01*
X-28860770Y-16693834D02*
X-28889342Y-16693834D01*
X-28765532Y-16560500D02*
X-28689342Y-16560500D01*
X-28736961Y-16493834D02*
X-28736961Y-16665262D01*
X-28736961Y-16665262D02*
X-28727437Y-16684310D01*
X-28727437Y-16684310D02*
X-28708389Y-16693834D01*
X-28708389Y-16693834D02*
X-28689342Y-16693834D01*
X-28470294Y-16560500D02*
X-28470294Y-16760500D01*
X-28470294Y-16570024D02*
X-28451246Y-16560500D01*
X-28451246Y-16560500D02*
X-28413151Y-16560500D01*
X-28413151Y-16560500D02*
X-28394104Y-16570024D01*
X-28394104Y-16570024D02*
X-28384580Y-16579548D01*
X-28384580Y-16579548D02*
X-28375056Y-16598596D01*
X-28375056Y-16598596D02*
X-28375056Y-16655738D01*
X-28375056Y-16655738D02*
X-28384580Y-16674786D01*
X-28384580Y-16674786D02*
X-28394104Y-16684310D01*
X-28394104Y-16684310D02*
X-28413151Y-16693834D01*
X-28413151Y-16693834D02*
X-28451246Y-16693834D01*
X-28451246Y-16693834D02*
X-28470294Y-16684310D01*
X-28260770Y-16693834D02*
X-28279818Y-16684310D01*
X-28279818Y-16684310D02*
X-28289342Y-16665262D01*
X-28289342Y-16665262D02*
X-28289342Y-16493834D01*
X-28098865Y-16693834D02*
X-28098865Y-16589072D01*
X-28098865Y-16589072D02*
X-28108389Y-16570024D01*
X-28108389Y-16570024D02*
X-28127437Y-16560500D01*
X-28127437Y-16560500D02*
X-28165532Y-16560500D01*
X-28165532Y-16560500D02*
X-28184580Y-16570024D01*
X-28098865Y-16684310D02*
X-28117913Y-16693834D01*
X-28117913Y-16693834D02*
X-28165532Y-16693834D01*
X-28165532Y-16693834D02*
X-28184580Y-16684310D01*
X-28184580Y-16684310D02*
X-28194104Y-16665262D01*
X-28194104Y-16665262D02*
X-28194104Y-16646215D01*
X-28194104Y-16646215D02*
X-28184580Y-16627167D01*
X-28184580Y-16627167D02*
X-28165532Y-16617643D01*
X-28165532Y-16617643D02*
X-28117913Y-16617643D01*
X-28117913Y-16617643D02*
X-28098865Y-16608119D01*
X-28032199Y-16560500D02*
X-27956008Y-16560500D01*
X-28003627Y-16493834D02*
X-28003627Y-16665262D01*
X-28003627Y-16665262D02*
X-27994104Y-16684310D01*
X-27994104Y-16684310D02*
X-27975056Y-16693834D01*
X-27975056Y-16693834D02*
X-27956008Y-16693834D01*
X-27813151Y-16684310D02*
X-27832199Y-16693834D01*
X-27832199Y-16693834D02*
X-27870294Y-16693834D01*
X-27870294Y-16693834D02*
X-27889342Y-16684310D01*
X-27889342Y-16684310D02*
X-27898865Y-16665262D01*
X-27898865Y-16665262D02*
X-27898865Y-16589072D01*
X-27898865Y-16589072D02*
X-27889342Y-16570024D01*
X-27889342Y-16570024D02*
X-27870294Y-16560500D01*
X-27870294Y-16560500D02*
X-27832199Y-16560500D01*
X-27832199Y-16560500D02*
X-27813151Y-16570024D01*
X-27813151Y-16570024D02*
X-27803627Y-16589072D01*
X-27803627Y-16589072D02*
X-27803627Y-16608119D01*
X-27803627Y-16608119D02*
X-27898865Y-16627167D01*
X-27632199Y-16693834D02*
X-27632199Y-16493834D01*
X-27632199Y-16684310D02*
X-27651246Y-16693834D01*
X-27651246Y-16693834D02*
X-27689342Y-16693834D01*
X-27689342Y-16693834D02*
X-27708389Y-16684310D01*
X-27708389Y-16684310D02*
X-27717913Y-16674786D01*
X-27717913Y-16674786D02*
X-27727437Y-16655738D01*
X-27727437Y-16655738D02*
X-27727437Y-16598596D01*
X-27727437Y-16598596D02*
X-27717913Y-16579548D01*
X-27717913Y-16579548D02*
X-27708389Y-16570024D01*
X-27708389Y-16570024D02*
X-27689342Y-16560500D01*
X-27689342Y-16560500D02*
X-27651246Y-16560500D01*
X-27651246Y-16560500D02*
X-27632199Y-16570024D01*
X-27556008Y-16770024D02*
X-27546484Y-16760500D01*
X-27546484Y-16760500D02*
X-27527437Y-16731929D01*
X-27527437Y-16731929D02*
X-27517913Y-16712881D01*
X-27517913Y-16712881D02*
X-27508389Y-16684310D01*
X-27508389Y-16684310D02*
X-27498865Y-16636691D01*
X-27498865Y-16636691D02*
X-27498865Y-16598596D01*
X-27498865Y-16598596D02*
X-27508389Y-16550977D01*
X-27508389Y-16550977D02*
X-27517913Y-16522405D01*
X-27517913Y-16522405D02*
X-27527437Y-16503358D01*
X-27527437Y-16503358D02*
X-27546484Y-16474786D01*
X-27546484Y-16474786D02*
X-27556008Y-16465262D01*
X-34531789Y-16993061D02*
X-34531789Y-16851639D01*
X-34673211Y-16851639D01*
X-34673211Y-16993061D01*
X-34531789Y-16993061D01*
X-34260771Y-16813834D02*
X-34136961Y-16813834D01*
X-34136961Y-16813834D02*
X-34203628Y-16890024D01*
X-34203628Y-16890024D02*
X-34175057Y-16890024D01*
X-34175057Y-16890024D02*
X-34156009Y-16899548D01*
X-34156009Y-16899548D02*
X-34146485Y-16909072D01*
X-34146485Y-16909072D02*
X-34136961Y-16928120D01*
X-34136961Y-16928120D02*
X-34136961Y-16975739D01*
X-34136961Y-16975739D02*
X-34146485Y-16994786D01*
X-34146485Y-16994786D02*
X-34156009Y-17004310D01*
X-34156009Y-17004310D02*
X-34175057Y-17013834D01*
X-34175057Y-17013834D02*
X-34232199Y-17013834D01*
X-34232199Y-17013834D02*
X-34251247Y-17004310D01*
X-34251247Y-17004310D02*
X-34260771Y-16994786D01*
X-34051247Y-16994786D02*
X-34041723Y-17004310D01*
X-34041723Y-17004310D02*
X-34051247Y-17013834D01*
X-34051247Y-17013834D02*
X-34060771Y-17004310D01*
X-34060771Y-17004310D02*
X-34051247Y-16994786D01*
X-34051247Y-16994786D02*
X-34051247Y-17013834D01*
X-33946485Y-17013834D02*
X-33908390Y-17013834D01*
X-33908390Y-17013834D02*
X-33889342Y-17004310D01*
X-33889342Y-17004310D02*
X-33879818Y-16994786D01*
X-33879818Y-16994786D02*
X-33860771Y-16966215D01*
X-33860771Y-16966215D02*
X-33851247Y-16928120D01*
X-33851247Y-16928120D02*
X-33851247Y-16851929D01*
X-33851247Y-16851929D02*
X-33860771Y-16832881D01*
X-33860771Y-16832881D02*
X-33870295Y-16823358D01*
X-33870295Y-16823358D02*
X-33889342Y-16813834D01*
X-33889342Y-16813834D02*
X-33927438Y-16813834D01*
X-33927438Y-16813834D02*
X-33946485Y-16823358D01*
X-33946485Y-16823358D02*
X-33956009Y-16832881D01*
X-33956009Y-16832881D02*
X-33965533Y-16851929D01*
X-33965533Y-16851929D02*
X-33965533Y-16899548D01*
X-33965533Y-16899548D02*
X-33956009Y-16918596D01*
X-33956009Y-16918596D02*
X-33946485Y-16928120D01*
X-33946485Y-16928120D02*
X-33927438Y-16937643D01*
X-33927438Y-16937643D02*
X-33889342Y-16937643D01*
X-33889342Y-16937643D02*
X-33870295Y-16928120D01*
X-33870295Y-16928120D02*
X-33860771Y-16918596D01*
X-33860771Y-16918596D02*
X-33851247Y-16899548D01*
X-33736961Y-16899548D02*
X-33756009Y-16890024D01*
X-33756009Y-16890024D02*
X-33765533Y-16880500D01*
X-33765533Y-16880500D02*
X-33775057Y-16861453D01*
X-33775057Y-16861453D02*
X-33775057Y-16851929D01*
X-33775057Y-16851929D02*
X-33765533Y-16832881D01*
X-33765533Y-16832881D02*
X-33756009Y-16823358D01*
X-33756009Y-16823358D02*
X-33736961Y-16813834D01*
X-33736961Y-16813834D02*
X-33698866Y-16813834D01*
X-33698866Y-16813834D02*
X-33679818Y-16823358D01*
X-33679818Y-16823358D02*
X-33670295Y-16832881D01*
X-33670295Y-16832881D02*
X-33660771Y-16851929D01*
X-33660771Y-16851929D02*
X-33660771Y-16861453D01*
X-33660771Y-16861453D02*
X-33670295Y-16880500D01*
X-33670295Y-16880500D02*
X-33679818Y-16890024D01*
X-33679818Y-16890024D02*
X-33698866Y-16899548D01*
X-33698866Y-16899548D02*
X-33736961Y-16899548D01*
X-33736961Y-16899548D02*
X-33756009Y-16909072D01*
X-33756009Y-16909072D02*
X-33765533Y-16918596D01*
X-33765533Y-16918596D02*
X-33775057Y-16937643D01*
X-33775057Y-16937643D02*
X-33775057Y-16975739D01*
X-33775057Y-16975739D02*
X-33765533Y-16994786D01*
X-33765533Y-16994786D02*
X-33756009Y-17004310D01*
X-33756009Y-17004310D02*
X-33736961Y-17013834D01*
X-33736961Y-17013834D02*
X-33698866Y-17013834D01*
X-33698866Y-17013834D02*
X-33679818Y-17004310D01*
X-33679818Y-17004310D02*
X-33670295Y-16994786D01*
X-33670295Y-16994786D02*
X-33660771Y-16975739D01*
X-33660771Y-16975739D02*
X-33660771Y-16937643D01*
X-33660771Y-16937643D02*
X-33670295Y-16918596D01*
X-33670295Y-16918596D02*
X-33679818Y-16909072D01*
X-33679818Y-16909072D02*
X-33698866Y-16899548D01*
X-33546485Y-16899548D02*
X-33565533Y-16890024D01*
X-33565533Y-16890024D02*
X-33575057Y-16880500D01*
X-33575057Y-16880500D02*
X-33584580Y-16861453D01*
X-33584580Y-16861453D02*
X-33584580Y-16851929D01*
X-33584580Y-16851929D02*
X-33575057Y-16832881D01*
X-33575057Y-16832881D02*
X-33565533Y-16823358D01*
X-33565533Y-16823358D02*
X-33546485Y-16813834D01*
X-33546485Y-16813834D02*
X-33508390Y-16813834D01*
X-33508390Y-16813834D02*
X-33489342Y-16823358D01*
X-33489342Y-16823358D02*
X-33479818Y-16832881D01*
X-33479818Y-16832881D02*
X-33470295Y-16851929D01*
X-33470295Y-16851929D02*
X-33470295Y-16861453D01*
X-33470295Y-16861453D02*
X-33479818Y-16880500D01*
X-33479818Y-16880500D02*
X-33489342Y-16890024D01*
X-33489342Y-16890024D02*
X-33508390Y-16899548D01*
X-33508390Y-16899548D02*
X-33546485Y-16899548D01*
X-33546485Y-16899548D02*
X-33565533Y-16909072D01*
X-33565533Y-16909072D02*
X-33575057Y-16918596D01*
X-33575057Y-16918596D02*
X-33584580Y-16937643D01*
X-33584580Y-16937643D02*
X-33584580Y-16975739D01*
X-33584580Y-16975739D02*
X-33575057Y-16994786D01*
X-33575057Y-16994786D02*
X-33565533Y-17004310D01*
X-33565533Y-17004310D02*
X-33546485Y-17013834D01*
X-33546485Y-17013834D02*
X-33508390Y-17013834D01*
X-33508390Y-17013834D02*
X-33489342Y-17004310D01*
X-33489342Y-17004310D02*
X-33479818Y-16994786D01*
X-33479818Y-16994786D02*
X-33470295Y-16975739D01*
X-33470295Y-16975739D02*
X-33470295Y-16937643D01*
X-33470295Y-16937643D02*
X-33479818Y-16918596D01*
X-33479818Y-16918596D02*
X-33489342Y-16909072D01*
X-33489342Y-16909072D02*
X-33508390Y-16899548D01*
X-33384580Y-17013834D02*
X-33384580Y-16880500D01*
X-33384580Y-16899548D02*
X-33375056Y-16890024D01*
X-33375056Y-16890024D02*
X-33356009Y-16880500D01*
X-33356009Y-16880500D02*
X-33327437Y-16880500D01*
X-33327437Y-16880500D02*
X-33308390Y-16890024D01*
X-33308390Y-16890024D02*
X-33298866Y-16909072D01*
X-33298866Y-16909072D02*
X-33298866Y-17013834D01*
X-33298866Y-16909072D02*
X-33289342Y-16890024D01*
X-33289342Y-16890024D02*
X-33270295Y-16880500D01*
X-33270295Y-16880500D02*
X-33241723Y-16880500D01*
X-33241723Y-16880500D02*
X-33222675Y-16890024D01*
X-33222675Y-16890024D02*
X-33213152Y-16909072D01*
X-33213152Y-16909072D02*
X-33213152Y-17013834D01*
X-33117914Y-17013834D02*
X-33117914Y-16880500D01*
X-33117914Y-16899548D02*
X-33108390Y-16890024D01*
X-33108390Y-16890024D02*
X-33089342Y-16880500D01*
X-33089342Y-16880500D02*
X-33060771Y-16880500D01*
X-33060771Y-16880500D02*
X-33041723Y-16890024D01*
X-33041723Y-16890024D02*
X-33032199Y-16909072D01*
X-33032199Y-16909072D02*
X-33032199Y-17013834D01*
X-33032199Y-16909072D02*
X-33022675Y-16890024D01*
X-33022675Y-16890024D02*
X-33003628Y-16880500D01*
X-33003628Y-16880500D02*
X-32975056Y-16880500D01*
X-32975056Y-16880500D02*
X-32956009Y-16890024D01*
X-32956009Y-16890024D02*
X-32946485Y-16909072D01*
X-32946485Y-16909072D02*
X-32946485Y-17013834D01*
X-32556009Y-16804310D02*
X-32727437Y-17061453D01*
X-32298866Y-16813834D02*
X-32279818Y-16813834D01*
X-32279818Y-16813834D02*
X-32260771Y-16823358D01*
X-32260771Y-16823358D02*
X-32251247Y-16832881D01*
X-32251247Y-16832881D02*
X-32241723Y-16851929D01*
X-32241723Y-16851929D02*
X-32232199Y-16890024D01*
X-32232199Y-16890024D02*
X-32232199Y-16937643D01*
X-32232199Y-16937643D02*
X-32241723Y-16975739D01*
X-32241723Y-16975739D02*
X-32251247Y-16994786D01*
X-32251247Y-16994786D02*
X-32260771Y-17004310D01*
X-32260771Y-17004310D02*
X-32279818Y-17013834D01*
X-32279818Y-17013834D02*
X-32298866Y-17013834D01*
X-32298866Y-17013834D02*
X-32317913Y-17004310D01*
X-32317913Y-17004310D02*
X-32327437Y-16994786D01*
X-32327437Y-16994786D02*
X-32336961Y-16975739D01*
X-32336961Y-16975739D02*
X-32346485Y-16937643D01*
X-32346485Y-16937643D02*
X-32346485Y-16890024D01*
X-32346485Y-16890024D02*
X-32336961Y-16851929D01*
X-32336961Y-16851929D02*
X-32327437Y-16832881D01*
X-32327437Y-16832881D02*
X-32317913Y-16823358D01*
X-32317913Y-16823358D02*
X-32298866Y-16813834D01*
X-32146485Y-16994786D02*
X-32136961Y-17004310D01*
X-32136961Y-17004310D02*
X-32146485Y-17013834D01*
X-32146485Y-17013834D02*
X-32156009Y-17004310D01*
X-32156009Y-17004310D02*
X-32146485Y-16994786D01*
X-32146485Y-16994786D02*
X-32146485Y-17013834D01*
X-31946485Y-17013834D02*
X-32060771Y-17013834D01*
X-32003628Y-17013834D02*
X-32003628Y-16813834D01*
X-32003628Y-16813834D02*
X-32022675Y-16842405D01*
X-32022675Y-16842405D02*
X-32041723Y-16861453D01*
X-32041723Y-16861453D02*
X-32060771Y-16870977D01*
X-31765532Y-16813834D02*
X-31860771Y-16813834D01*
X-31860771Y-16813834D02*
X-31870294Y-16909072D01*
X-31870294Y-16909072D02*
X-31860771Y-16899548D01*
X-31860771Y-16899548D02*
X-31841723Y-16890024D01*
X-31841723Y-16890024D02*
X-31794104Y-16890024D01*
X-31794104Y-16890024D02*
X-31775056Y-16899548D01*
X-31775056Y-16899548D02*
X-31765532Y-16909072D01*
X-31765532Y-16909072D02*
X-31756009Y-16928120D01*
X-31756009Y-16928120D02*
X-31756009Y-16975739D01*
X-31756009Y-16975739D02*
X-31765532Y-16994786D01*
X-31765532Y-16994786D02*
X-31775056Y-17004310D01*
X-31775056Y-17004310D02*
X-31794104Y-17013834D01*
X-31794104Y-17013834D02*
X-31841723Y-17013834D01*
X-31841723Y-17013834D02*
X-31860771Y-17004310D01*
X-31860771Y-17004310D02*
X-31870294Y-16994786D01*
X-31689342Y-16813834D02*
X-31556009Y-16813834D01*
X-31556009Y-16813834D02*
X-31641723Y-17013834D01*
X-31441723Y-16813834D02*
X-31422675Y-16813834D01*
X-31422675Y-16813834D02*
X-31403628Y-16823358D01*
X-31403628Y-16823358D02*
X-31394104Y-16832881D01*
X-31394104Y-16832881D02*
X-31384580Y-16851929D01*
X-31384580Y-16851929D02*
X-31375056Y-16890024D01*
X-31375056Y-16890024D02*
X-31375056Y-16937643D01*
X-31375056Y-16937643D02*
X-31384580Y-16975739D01*
X-31384580Y-16975739D02*
X-31394104Y-16994786D01*
X-31394104Y-16994786D02*
X-31403628Y-17004310D01*
X-31403628Y-17004310D02*
X-31422675Y-17013834D01*
X-31422675Y-17013834D02*
X-31441723Y-17013834D01*
X-31441723Y-17013834D02*
X-31460771Y-17004310D01*
X-31460771Y-17004310D02*
X-31470294Y-16994786D01*
X-31470294Y-16994786D02*
X-31479818Y-16975739D01*
X-31479818Y-16975739D02*
X-31489342Y-16937643D01*
X-31489342Y-16937643D02*
X-31489342Y-16890024D01*
X-31489342Y-16890024D02*
X-31479818Y-16851929D01*
X-31479818Y-16851929D02*
X-31470294Y-16832881D01*
X-31470294Y-16832881D02*
X-31460771Y-16823358D01*
X-31460771Y-16823358D02*
X-31441723Y-16813834D01*
X-31298866Y-16813834D02*
X-31298866Y-16851929D01*
X-31222675Y-16813834D02*
X-31222675Y-16851929D01*
X-30927437Y-17090024D02*
X-30936961Y-17080500D01*
X-30936961Y-17080500D02*
X-30956009Y-17051929D01*
X-30956009Y-17051929D02*
X-30965532Y-17032881D01*
X-30965532Y-17032881D02*
X-30975056Y-17004310D01*
X-30975056Y-17004310D02*
X-30984580Y-16956691D01*
X-30984580Y-16956691D02*
X-30984580Y-16918596D01*
X-30984580Y-16918596D02*
X-30975056Y-16870977D01*
X-30975056Y-16870977D02*
X-30965532Y-16842405D01*
X-30965532Y-16842405D02*
X-30956009Y-16823358D01*
X-30956009Y-16823358D02*
X-30936961Y-16794786D01*
X-30936961Y-16794786D02*
X-30927437Y-16785262D01*
X-30746485Y-17013834D02*
X-30860770Y-17013834D01*
X-30803628Y-17013834D02*
X-30803628Y-16813834D01*
X-30803628Y-16813834D02*
X-30822675Y-16842405D01*
X-30822675Y-16842405D02*
X-30841723Y-16861453D01*
X-30841723Y-16861453D02*
X-30860770Y-16870977D01*
X-30670294Y-16832881D02*
X-30660770Y-16823358D01*
X-30660770Y-16823358D02*
X-30641723Y-16813834D01*
X-30641723Y-16813834D02*
X-30594104Y-16813834D01*
X-30594104Y-16813834D02*
X-30575056Y-16823358D01*
X-30575056Y-16823358D02*
X-30565532Y-16832881D01*
X-30565532Y-16832881D02*
X-30556009Y-16851929D01*
X-30556009Y-16851929D02*
X-30556009Y-16870977D01*
X-30556009Y-16870977D02*
X-30565532Y-16899548D01*
X-30565532Y-16899548D02*
X-30679818Y-17013834D01*
X-30679818Y-17013834D02*
X-30556009Y-17013834D01*
X-30384580Y-16813834D02*
X-30422675Y-16813834D01*
X-30422675Y-16813834D02*
X-30441723Y-16823358D01*
X-30441723Y-16823358D02*
X-30451247Y-16832881D01*
X-30451247Y-16832881D02*
X-30470294Y-16861453D01*
X-30470294Y-16861453D02*
X-30479818Y-16899548D01*
X-30479818Y-16899548D02*
X-30479818Y-16975739D01*
X-30479818Y-16975739D02*
X-30470294Y-16994786D01*
X-30470294Y-16994786D02*
X-30460770Y-17004310D01*
X-30460770Y-17004310D02*
X-30441723Y-17013834D01*
X-30441723Y-17013834D02*
X-30403628Y-17013834D01*
X-30403628Y-17013834D02*
X-30384580Y-17004310D01*
X-30384580Y-17004310D02*
X-30375056Y-16994786D01*
X-30375056Y-16994786D02*
X-30365532Y-16975739D01*
X-30365532Y-16975739D02*
X-30365532Y-16928120D01*
X-30365532Y-16928120D02*
X-30375056Y-16909072D01*
X-30375056Y-16909072D02*
X-30384580Y-16899548D01*
X-30384580Y-16899548D02*
X-30403628Y-16890024D01*
X-30403628Y-16890024D02*
X-30441723Y-16890024D01*
X-30441723Y-16890024D02*
X-30460770Y-16899548D01*
X-30460770Y-16899548D02*
X-30470294Y-16909072D01*
X-30470294Y-16909072D02*
X-30479818Y-16928120D01*
X-30127437Y-17013834D02*
X-30127437Y-16813834D01*
X-30041723Y-17013834D02*
X-30041723Y-16909072D01*
X-30041723Y-16909072D02*
X-30051247Y-16890024D01*
X-30051247Y-16890024D02*
X-30070294Y-16880500D01*
X-30070294Y-16880500D02*
X-30098866Y-16880500D01*
X-30098866Y-16880500D02*
X-30117913Y-16890024D01*
X-30117913Y-16890024D02*
X-30127437Y-16899548D01*
X-29917913Y-17013834D02*
X-29936961Y-17004310D01*
X-29936961Y-17004310D02*
X-29946485Y-16994786D01*
X-29946485Y-16994786D02*
X-29956008Y-16975739D01*
X-29956008Y-16975739D02*
X-29956008Y-16918596D01*
X-29956008Y-16918596D02*
X-29946485Y-16899548D01*
X-29946485Y-16899548D02*
X-29936961Y-16890024D01*
X-29936961Y-16890024D02*
X-29917913Y-16880500D01*
X-29917913Y-16880500D02*
X-29889342Y-16880500D01*
X-29889342Y-16880500D02*
X-29870294Y-16890024D01*
X-29870294Y-16890024D02*
X-29860770Y-16899548D01*
X-29860770Y-16899548D02*
X-29851247Y-16918596D01*
X-29851247Y-16918596D02*
X-29851247Y-16975739D01*
X-29851247Y-16975739D02*
X-29860770Y-16994786D01*
X-29860770Y-16994786D02*
X-29870294Y-17004310D01*
X-29870294Y-17004310D02*
X-29889342Y-17013834D01*
X-29889342Y-17013834D02*
X-29917913Y-17013834D01*
X-29736961Y-17013834D02*
X-29756008Y-17004310D01*
X-29756008Y-17004310D02*
X-29765532Y-16985262D01*
X-29765532Y-16985262D02*
X-29765532Y-16813834D01*
X-29584580Y-17004310D02*
X-29603627Y-17013834D01*
X-29603627Y-17013834D02*
X-29641723Y-17013834D01*
X-29641723Y-17013834D02*
X-29660770Y-17004310D01*
X-29660770Y-17004310D02*
X-29670294Y-16985262D01*
X-29670294Y-16985262D02*
X-29670294Y-16909072D01*
X-29670294Y-16909072D02*
X-29660770Y-16890024D01*
X-29660770Y-16890024D02*
X-29641723Y-16880500D01*
X-29641723Y-16880500D02*
X-29603627Y-16880500D01*
X-29603627Y-16880500D02*
X-29584580Y-16890024D01*
X-29584580Y-16890024D02*
X-29575056Y-16909072D01*
X-29575056Y-16909072D02*
X-29575056Y-16928120D01*
X-29575056Y-16928120D02*
X-29670294Y-16947167D01*
X-29498866Y-17004310D02*
X-29479818Y-17013834D01*
X-29479818Y-17013834D02*
X-29441723Y-17013834D01*
X-29441723Y-17013834D02*
X-29422675Y-17004310D01*
X-29422675Y-17004310D02*
X-29413151Y-16985262D01*
X-29413151Y-16985262D02*
X-29413151Y-16975739D01*
X-29413151Y-16975739D02*
X-29422675Y-16956691D01*
X-29422675Y-16956691D02*
X-29441723Y-16947167D01*
X-29441723Y-16947167D02*
X-29470294Y-16947167D01*
X-29470294Y-16947167D02*
X-29489342Y-16937643D01*
X-29489342Y-16937643D02*
X-29498866Y-16918596D01*
X-29498866Y-16918596D02*
X-29498866Y-16909072D01*
X-29498866Y-16909072D02*
X-29489342Y-16890024D01*
X-29489342Y-16890024D02*
X-29470294Y-16880500D01*
X-29470294Y-16880500D02*
X-29441723Y-16880500D01*
X-29441723Y-16880500D02*
X-29422675Y-16890024D01*
X-29346485Y-17090024D02*
X-29336961Y-17080500D01*
X-29336961Y-17080500D02*
X-29317913Y-17051929D01*
X-29317913Y-17051929D02*
X-29308389Y-17032881D01*
X-29308389Y-17032881D02*
X-29298866Y-17004310D01*
X-29298866Y-17004310D02*
X-29289342Y-16956691D01*
X-29289342Y-16956691D02*
X-29289342Y-16918596D01*
X-29289342Y-16918596D02*
X-29298866Y-16870977D01*
X-29298866Y-16870977D02*
X-29308389Y-16842405D01*
X-29308389Y-16842405D02*
X-29317913Y-16823358D01*
X-29317913Y-16823358D02*
X-29336961Y-16794786D01*
X-29336961Y-16794786D02*
X-29346485Y-16785262D01*
X-28984580Y-17090024D02*
X-28994104Y-17080500D01*
X-28994104Y-17080500D02*
X-29013151Y-17051929D01*
X-29013151Y-17051929D02*
X-29022675Y-17032881D01*
X-29022675Y-17032881D02*
X-29032199Y-17004310D01*
X-29032199Y-17004310D02*
X-29041723Y-16956691D01*
X-29041723Y-16956691D02*
X-29041723Y-16918596D01*
X-29041723Y-16918596D02*
X-29032199Y-16870977D01*
X-29032199Y-16870977D02*
X-29022675Y-16842405D01*
X-29022675Y-16842405D02*
X-29013151Y-16823358D01*
X-29013151Y-16823358D02*
X-28994104Y-16794786D01*
X-28994104Y-16794786D02*
X-28984580Y-16785262D01*
X-28908389Y-16880500D02*
X-28908389Y-17013834D01*
X-28908389Y-16899548D02*
X-28898866Y-16890024D01*
X-28898866Y-16890024D02*
X-28879818Y-16880500D01*
X-28879818Y-16880500D02*
X-28851246Y-16880500D01*
X-28851246Y-16880500D02*
X-28832199Y-16890024D01*
X-28832199Y-16890024D02*
X-28822675Y-16909072D01*
X-28822675Y-16909072D02*
X-28822675Y-17013834D01*
X-28698866Y-17013834D02*
X-28717913Y-17004310D01*
X-28717913Y-17004310D02*
X-28727437Y-16994786D01*
X-28727437Y-16994786D02*
X-28736961Y-16975739D01*
X-28736961Y-16975739D02*
X-28736961Y-16918596D01*
X-28736961Y-16918596D02*
X-28727437Y-16899548D01*
X-28727437Y-16899548D02*
X-28717913Y-16890024D01*
X-28717913Y-16890024D02*
X-28698866Y-16880500D01*
X-28698866Y-16880500D02*
X-28670294Y-16880500D01*
X-28670294Y-16880500D02*
X-28651246Y-16890024D01*
X-28651246Y-16890024D02*
X-28641723Y-16899548D01*
X-28641723Y-16899548D02*
X-28632199Y-16918596D01*
X-28632199Y-16918596D02*
X-28632199Y-16975739D01*
X-28632199Y-16975739D02*
X-28641723Y-16994786D01*
X-28641723Y-16994786D02*
X-28651246Y-17004310D01*
X-28651246Y-17004310D02*
X-28670294Y-17013834D01*
X-28670294Y-17013834D02*
X-28698866Y-17013834D01*
X-28575056Y-16880500D02*
X-28498866Y-16880500D01*
X-28546485Y-16813834D02*
X-28546485Y-16985262D01*
X-28546485Y-16985262D02*
X-28536961Y-17004310D01*
X-28536961Y-17004310D02*
X-28517913Y-17013834D01*
X-28517913Y-17013834D02*
X-28498866Y-17013834D01*
X-28279818Y-16880500D02*
X-28279818Y-17080500D01*
X-28279818Y-16890024D02*
X-28260770Y-16880500D01*
X-28260770Y-16880500D02*
X-28222675Y-16880500D01*
X-28222675Y-16880500D02*
X-28203627Y-16890024D01*
X-28203627Y-16890024D02*
X-28194104Y-16899548D01*
X-28194104Y-16899548D02*
X-28184580Y-16918596D01*
X-28184580Y-16918596D02*
X-28184580Y-16975739D01*
X-28184580Y-16975739D02*
X-28194104Y-16994786D01*
X-28194104Y-16994786D02*
X-28203627Y-17004310D01*
X-28203627Y-17004310D02*
X-28222675Y-17013834D01*
X-28222675Y-17013834D02*
X-28260770Y-17013834D01*
X-28260770Y-17013834D02*
X-28279818Y-17004310D01*
X-28070294Y-17013834D02*
X-28089342Y-17004310D01*
X-28089342Y-17004310D02*
X-28098865Y-16985262D01*
X-28098865Y-16985262D02*
X-28098865Y-16813834D01*
X-27908389Y-17013834D02*
X-27908389Y-16909072D01*
X-27908389Y-16909072D02*
X-27917913Y-16890024D01*
X-27917913Y-16890024D02*
X-27936961Y-16880500D01*
X-27936961Y-16880500D02*
X-27975056Y-16880500D01*
X-27975056Y-16880500D02*
X-27994104Y-16890024D01*
X-27908389Y-17004310D02*
X-27927437Y-17013834D01*
X-27927437Y-17013834D02*
X-27975056Y-17013834D01*
X-27975056Y-17013834D02*
X-27994104Y-17004310D01*
X-27994104Y-17004310D02*
X-28003627Y-16985262D01*
X-28003627Y-16985262D02*
X-28003627Y-16966215D01*
X-28003627Y-16966215D02*
X-27994104Y-16947167D01*
X-27994104Y-16947167D02*
X-27975056Y-16937643D01*
X-27975056Y-16937643D02*
X-27927437Y-16937643D01*
X-27927437Y-16937643D02*
X-27908389Y-16928120D01*
X-27841723Y-16880500D02*
X-27765532Y-16880500D01*
X-27813151Y-16813834D02*
X-27813151Y-16985262D01*
X-27813151Y-16985262D02*
X-27803627Y-17004310D01*
X-27803627Y-17004310D02*
X-27784580Y-17013834D01*
X-27784580Y-17013834D02*
X-27765532Y-17013834D01*
X-27622675Y-17004310D02*
X-27641723Y-17013834D01*
X-27641723Y-17013834D02*
X-27679818Y-17013834D01*
X-27679818Y-17013834D02*
X-27698865Y-17004310D01*
X-27698865Y-17004310D02*
X-27708389Y-16985262D01*
X-27708389Y-16985262D02*
X-27708389Y-16909072D01*
X-27708389Y-16909072D02*
X-27698865Y-16890024D01*
X-27698865Y-16890024D02*
X-27679818Y-16880500D01*
X-27679818Y-16880500D02*
X-27641723Y-16880500D01*
X-27641723Y-16880500D02*
X-27622675Y-16890024D01*
X-27622675Y-16890024D02*
X-27613151Y-16909072D01*
X-27613151Y-16909072D02*
X-27613151Y-16928120D01*
X-27613151Y-16928120D02*
X-27708389Y-16947167D01*
X-27441723Y-17013834D02*
X-27441723Y-16813834D01*
X-27441723Y-17004310D02*
X-27460770Y-17013834D01*
X-27460770Y-17013834D02*
X-27498865Y-17013834D01*
X-27498865Y-17013834D02*
X-27517913Y-17004310D01*
X-27517913Y-17004310D02*
X-27527437Y-16994786D01*
X-27527437Y-16994786D02*
X-27536961Y-16975739D01*
X-27536961Y-16975739D02*
X-27536961Y-16918596D01*
X-27536961Y-16918596D02*
X-27527437Y-16899548D01*
X-27527437Y-16899548D02*
X-27517913Y-16890024D01*
X-27517913Y-16890024D02*
X-27498865Y-16880500D01*
X-27498865Y-16880500D02*
X-27460770Y-16880500D01*
X-27460770Y-16880500D02*
X-27441723Y-16890024D01*
X-27365532Y-17090024D02*
X-27356008Y-17080500D01*
X-27356008Y-17080500D02*
X-27336961Y-17051929D01*
X-27336961Y-17051929D02*
X-27327437Y-17032881D01*
X-27327437Y-17032881D02*
X-27317913Y-17004310D01*
X-27317913Y-17004310D02*
X-27308389Y-16956691D01*
X-27308389Y-16956691D02*
X-27308389Y-16918596D01*
X-27308389Y-16918596D02*
X-27317913Y-16870977D01*
X-27317913Y-16870977D02*
X-27327437Y-16842405D01*
X-27327437Y-16842405D02*
X-27336961Y-16823358D01*
X-27336961Y-16823358D02*
X-27356008Y-16794786D01*
X-27356008Y-16794786D02*
X-27365532Y-16785262D01*
X-34602500Y-17342350D02*
X-34502500Y-17242350D01*
X-34602500Y-17142350D01*
X-34702500Y-17242350D01*
X-34602500Y-17342350D01*
X-34156009Y-17200500D02*
X-34156009Y-17333834D01*
X-34203628Y-17124310D02*
X-34251247Y-17267167D01*
X-34251247Y-17267167D02*
X-34127438Y-17267167D01*
X-34051247Y-17314786D02*
X-34041723Y-17324310D01*
X-34041723Y-17324310D02*
X-34051247Y-17333834D01*
X-34051247Y-17333834D02*
X-34060771Y-17324310D01*
X-34060771Y-17324310D02*
X-34051247Y-17314786D01*
X-34051247Y-17314786D02*
X-34051247Y-17333834D01*
X-33917914Y-17133834D02*
X-33898866Y-17133834D01*
X-33898866Y-17133834D02*
X-33879818Y-17143358D01*
X-33879818Y-17143358D02*
X-33870295Y-17152881D01*
X-33870295Y-17152881D02*
X-33860771Y-17171929D01*
X-33860771Y-17171929D02*
X-33851247Y-17210024D01*
X-33851247Y-17210024D02*
X-33851247Y-17257643D01*
X-33851247Y-17257643D02*
X-33860771Y-17295739D01*
X-33860771Y-17295739D02*
X-33870295Y-17314786D01*
X-33870295Y-17314786D02*
X-33879818Y-17324310D01*
X-33879818Y-17324310D02*
X-33898866Y-17333834D01*
X-33898866Y-17333834D02*
X-33917914Y-17333834D01*
X-33917914Y-17333834D02*
X-33936961Y-17324310D01*
X-33936961Y-17324310D02*
X-33946485Y-17314786D01*
X-33946485Y-17314786D02*
X-33956009Y-17295739D01*
X-33956009Y-17295739D02*
X-33965533Y-17257643D01*
X-33965533Y-17257643D02*
X-33965533Y-17210024D01*
X-33965533Y-17210024D02*
X-33956009Y-17171929D01*
X-33956009Y-17171929D02*
X-33946485Y-17152881D01*
X-33946485Y-17152881D02*
X-33936961Y-17143358D01*
X-33936961Y-17143358D02*
X-33917914Y-17133834D01*
X-33727438Y-17133834D02*
X-33708390Y-17133834D01*
X-33708390Y-17133834D02*
X-33689342Y-17143358D01*
X-33689342Y-17143358D02*
X-33679818Y-17152881D01*
X-33679818Y-17152881D02*
X-33670295Y-17171929D01*
X-33670295Y-17171929D02*
X-33660771Y-17210024D01*
X-33660771Y-17210024D02*
X-33660771Y-17257643D01*
X-33660771Y-17257643D02*
X-33670295Y-17295739D01*
X-33670295Y-17295739D02*
X-33679818Y-17314786D01*
X-33679818Y-17314786D02*
X-33689342Y-17324310D01*
X-33689342Y-17324310D02*
X-33708390Y-17333834D01*
X-33708390Y-17333834D02*
X-33727438Y-17333834D01*
X-33727438Y-17333834D02*
X-33746485Y-17324310D01*
X-33746485Y-17324310D02*
X-33756009Y-17314786D01*
X-33756009Y-17314786D02*
X-33765533Y-17295739D01*
X-33765533Y-17295739D02*
X-33775057Y-17257643D01*
X-33775057Y-17257643D02*
X-33775057Y-17210024D01*
X-33775057Y-17210024D02*
X-33765533Y-17171929D01*
X-33765533Y-17171929D02*
X-33756009Y-17152881D01*
X-33756009Y-17152881D02*
X-33746485Y-17143358D01*
X-33746485Y-17143358D02*
X-33727438Y-17133834D01*
X-33536961Y-17133834D02*
X-33517914Y-17133834D01*
X-33517914Y-17133834D02*
X-33498866Y-17143358D01*
X-33498866Y-17143358D02*
X-33489342Y-17152881D01*
X-33489342Y-17152881D02*
X-33479818Y-17171929D01*
X-33479818Y-17171929D02*
X-33470295Y-17210024D01*
X-33470295Y-17210024D02*
X-33470295Y-17257643D01*
X-33470295Y-17257643D02*
X-33479818Y-17295739D01*
X-33479818Y-17295739D02*
X-33489342Y-17314786D01*
X-33489342Y-17314786D02*
X-33498866Y-17324310D01*
X-33498866Y-17324310D02*
X-33517914Y-17333834D01*
X-33517914Y-17333834D02*
X-33536961Y-17333834D01*
X-33536961Y-17333834D02*
X-33556009Y-17324310D01*
X-33556009Y-17324310D02*
X-33565533Y-17314786D01*
X-33565533Y-17314786D02*
X-33575057Y-17295739D01*
X-33575057Y-17295739D02*
X-33584580Y-17257643D01*
X-33584580Y-17257643D02*
X-33584580Y-17210024D01*
X-33584580Y-17210024D02*
X-33575057Y-17171929D01*
X-33575057Y-17171929D02*
X-33565533Y-17152881D01*
X-33565533Y-17152881D02*
X-33556009Y-17143358D01*
X-33556009Y-17143358D02*
X-33536961Y-17133834D01*
X-33384580Y-17333834D02*
X-33384580Y-17200500D01*
X-33384580Y-17219548D02*
X-33375056Y-17210024D01*
X-33375056Y-17210024D02*
X-33356009Y-17200500D01*
X-33356009Y-17200500D02*
X-33327437Y-17200500D01*
X-33327437Y-17200500D02*
X-33308390Y-17210024D01*
X-33308390Y-17210024D02*
X-33298866Y-17229072D01*
X-33298866Y-17229072D02*
X-33298866Y-17333834D01*
X-33298866Y-17229072D02*
X-33289342Y-17210024D01*
X-33289342Y-17210024D02*
X-33270295Y-17200500D01*
X-33270295Y-17200500D02*
X-33241723Y-17200500D01*
X-33241723Y-17200500D02*
X-33222675Y-17210024D01*
X-33222675Y-17210024D02*
X-33213152Y-17229072D01*
X-33213152Y-17229072D02*
X-33213152Y-17333834D01*
X-33117914Y-17333834D02*
X-33117914Y-17200500D01*
X-33117914Y-17219548D02*
X-33108390Y-17210024D01*
X-33108390Y-17210024D02*
X-33089342Y-17200500D01*
X-33089342Y-17200500D02*
X-33060771Y-17200500D01*
X-33060771Y-17200500D02*
X-33041723Y-17210024D01*
X-33041723Y-17210024D02*
X-33032199Y-17229072D01*
X-33032199Y-17229072D02*
X-33032199Y-17333834D01*
X-33032199Y-17229072D02*
X-33022675Y-17210024D01*
X-33022675Y-17210024D02*
X-33003628Y-17200500D01*
X-33003628Y-17200500D02*
X-32975056Y-17200500D01*
X-32975056Y-17200500D02*
X-32956009Y-17210024D01*
X-32956009Y-17210024D02*
X-32946485Y-17229072D01*
X-32946485Y-17229072D02*
X-32946485Y-17333834D01*
X-32556009Y-17124310D02*
X-32727437Y-17381453D01*
X-32298866Y-17133834D02*
X-32279818Y-17133834D01*
X-32279818Y-17133834D02*
X-32260771Y-17143358D01*
X-32260771Y-17143358D02*
X-32251247Y-17152881D01*
X-32251247Y-17152881D02*
X-32241723Y-17171929D01*
X-32241723Y-17171929D02*
X-32232199Y-17210024D01*
X-32232199Y-17210024D02*
X-32232199Y-17257643D01*
X-32232199Y-17257643D02*
X-32241723Y-17295739D01*
X-32241723Y-17295739D02*
X-32251247Y-17314786D01*
X-32251247Y-17314786D02*
X-32260771Y-17324310D01*
X-32260771Y-17324310D02*
X-32279818Y-17333834D01*
X-32279818Y-17333834D02*
X-32298866Y-17333834D01*
X-32298866Y-17333834D02*
X-32317913Y-17324310D01*
X-32317913Y-17324310D02*
X-32327437Y-17314786D01*
X-32327437Y-17314786D02*
X-32336961Y-17295739D01*
X-32336961Y-17295739D02*
X-32346485Y-17257643D01*
X-32346485Y-17257643D02*
X-32346485Y-17210024D01*
X-32346485Y-17210024D02*
X-32336961Y-17171929D01*
X-32336961Y-17171929D02*
X-32327437Y-17152881D01*
X-32327437Y-17152881D02*
X-32317913Y-17143358D01*
X-32317913Y-17143358D02*
X-32298866Y-17133834D01*
X-32146485Y-17314786D02*
X-32136961Y-17324310D01*
X-32136961Y-17324310D02*
X-32146485Y-17333834D01*
X-32146485Y-17333834D02*
X-32156009Y-17324310D01*
X-32156009Y-17324310D02*
X-32146485Y-17314786D01*
X-32146485Y-17314786D02*
X-32146485Y-17333834D01*
X-31946485Y-17333834D02*
X-32060771Y-17333834D01*
X-32003628Y-17333834D02*
X-32003628Y-17133834D01*
X-32003628Y-17133834D02*
X-32022675Y-17162405D01*
X-32022675Y-17162405D02*
X-32041723Y-17181453D01*
X-32041723Y-17181453D02*
X-32060771Y-17190977D01*
X-31765532Y-17133834D02*
X-31860771Y-17133834D01*
X-31860771Y-17133834D02*
X-31870294Y-17229072D01*
X-31870294Y-17229072D02*
X-31860771Y-17219548D01*
X-31860771Y-17219548D02*
X-31841723Y-17210024D01*
X-31841723Y-17210024D02*
X-31794104Y-17210024D01*
X-31794104Y-17210024D02*
X-31775056Y-17219548D01*
X-31775056Y-17219548D02*
X-31765532Y-17229072D01*
X-31765532Y-17229072D02*
X-31756009Y-17248120D01*
X-31756009Y-17248120D02*
X-31756009Y-17295739D01*
X-31756009Y-17295739D02*
X-31765532Y-17314786D01*
X-31765532Y-17314786D02*
X-31775056Y-17324310D01*
X-31775056Y-17324310D02*
X-31794104Y-17333834D01*
X-31794104Y-17333834D02*
X-31841723Y-17333834D01*
X-31841723Y-17333834D02*
X-31860771Y-17324310D01*
X-31860771Y-17324310D02*
X-31870294Y-17314786D01*
X-31689342Y-17133834D02*
X-31556009Y-17133834D01*
X-31556009Y-17133834D02*
X-31641723Y-17333834D01*
X-31384580Y-17133834D02*
X-31479818Y-17133834D01*
X-31479818Y-17133834D02*
X-31489342Y-17229072D01*
X-31489342Y-17229072D02*
X-31479818Y-17219548D01*
X-31479818Y-17219548D02*
X-31460771Y-17210024D01*
X-31460771Y-17210024D02*
X-31413151Y-17210024D01*
X-31413151Y-17210024D02*
X-31394104Y-17219548D01*
X-31394104Y-17219548D02*
X-31384580Y-17229072D01*
X-31384580Y-17229072D02*
X-31375056Y-17248120D01*
X-31375056Y-17248120D02*
X-31375056Y-17295739D01*
X-31375056Y-17295739D02*
X-31384580Y-17314786D01*
X-31384580Y-17314786D02*
X-31394104Y-17324310D01*
X-31394104Y-17324310D02*
X-31413151Y-17333834D01*
X-31413151Y-17333834D02*
X-31460771Y-17333834D01*
X-31460771Y-17333834D02*
X-31479818Y-17324310D01*
X-31479818Y-17324310D02*
X-31489342Y-17314786D01*
X-31298866Y-17133834D02*
X-31298866Y-17171929D01*
X-31222675Y-17133834D02*
X-31222675Y-17171929D01*
X-30927437Y-17410024D02*
X-30936961Y-17400500D01*
X-30936961Y-17400500D02*
X-30956009Y-17371929D01*
X-30956009Y-17371929D02*
X-30965532Y-17352881D01*
X-30965532Y-17352881D02*
X-30975056Y-17324310D01*
X-30975056Y-17324310D02*
X-30984580Y-17276691D01*
X-30984580Y-17276691D02*
X-30984580Y-17238596D01*
X-30984580Y-17238596D02*
X-30975056Y-17190977D01*
X-30975056Y-17190977D02*
X-30965532Y-17162405D01*
X-30965532Y-17162405D02*
X-30956009Y-17143358D01*
X-30956009Y-17143358D02*
X-30936961Y-17114786D01*
X-30936961Y-17114786D02*
X-30927437Y-17105262D01*
X-30765532Y-17133834D02*
X-30803628Y-17133834D01*
X-30803628Y-17133834D02*
X-30822675Y-17143358D01*
X-30822675Y-17143358D02*
X-30832199Y-17152881D01*
X-30832199Y-17152881D02*
X-30851247Y-17181453D01*
X-30851247Y-17181453D02*
X-30860770Y-17219548D01*
X-30860770Y-17219548D02*
X-30860770Y-17295739D01*
X-30860770Y-17295739D02*
X-30851247Y-17314786D01*
X-30851247Y-17314786D02*
X-30841723Y-17324310D01*
X-30841723Y-17324310D02*
X-30822675Y-17333834D01*
X-30822675Y-17333834D02*
X-30784580Y-17333834D01*
X-30784580Y-17333834D02*
X-30765532Y-17324310D01*
X-30765532Y-17324310D02*
X-30756009Y-17314786D01*
X-30756009Y-17314786D02*
X-30746485Y-17295739D01*
X-30746485Y-17295739D02*
X-30746485Y-17248120D01*
X-30746485Y-17248120D02*
X-30756009Y-17229072D01*
X-30756009Y-17229072D02*
X-30765532Y-17219548D01*
X-30765532Y-17219548D02*
X-30784580Y-17210024D01*
X-30784580Y-17210024D02*
X-30822675Y-17210024D01*
X-30822675Y-17210024D02*
X-30841723Y-17219548D01*
X-30841723Y-17219548D02*
X-30851247Y-17229072D01*
X-30851247Y-17229072D02*
X-30860770Y-17248120D01*
X-30508389Y-17333834D02*
X-30508389Y-17133834D01*
X-30422675Y-17333834D02*
X-30422675Y-17229072D01*
X-30422675Y-17229072D02*
X-30432199Y-17210024D01*
X-30432199Y-17210024D02*
X-30451247Y-17200500D01*
X-30451247Y-17200500D02*
X-30479818Y-17200500D01*
X-30479818Y-17200500D02*
X-30498866Y-17210024D01*
X-30498866Y-17210024D02*
X-30508389Y-17219548D01*
X-30298866Y-17333834D02*
X-30317913Y-17324310D01*
X-30317913Y-17324310D02*
X-30327437Y-17314786D01*
X-30327437Y-17314786D02*
X-30336961Y-17295739D01*
X-30336961Y-17295739D02*
X-30336961Y-17238596D01*
X-30336961Y-17238596D02*
X-30327437Y-17219548D01*
X-30327437Y-17219548D02*
X-30317913Y-17210024D01*
X-30317913Y-17210024D02*
X-30298866Y-17200500D01*
X-30298866Y-17200500D02*
X-30270294Y-17200500D01*
X-30270294Y-17200500D02*
X-30251247Y-17210024D01*
X-30251247Y-17210024D02*
X-30241723Y-17219548D01*
X-30241723Y-17219548D02*
X-30232199Y-17238596D01*
X-30232199Y-17238596D02*
X-30232199Y-17295739D01*
X-30232199Y-17295739D02*
X-30241723Y-17314786D01*
X-30241723Y-17314786D02*
X-30251247Y-17324310D01*
X-30251247Y-17324310D02*
X-30270294Y-17333834D01*
X-30270294Y-17333834D02*
X-30298866Y-17333834D01*
X-30117913Y-17333834D02*
X-30136961Y-17324310D01*
X-30136961Y-17324310D02*
X-30146485Y-17305262D01*
X-30146485Y-17305262D02*
X-30146485Y-17133834D01*
X-29965532Y-17324310D02*
X-29984580Y-17333834D01*
X-29984580Y-17333834D02*
X-30022675Y-17333834D01*
X-30022675Y-17333834D02*
X-30041723Y-17324310D01*
X-30041723Y-17324310D02*
X-30051247Y-17305262D01*
X-30051247Y-17305262D02*
X-30051247Y-17229072D01*
X-30051247Y-17229072D02*
X-30041723Y-17210024D01*
X-30041723Y-17210024D02*
X-30022675Y-17200500D01*
X-30022675Y-17200500D02*
X-29984580Y-17200500D01*
X-29984580Y-17200500D02*
X-29965532Y-17210024D01*
X-29965532Y-17210024D02*
X-29956008Y-17229072D01*
X-29956008Y-17229072D02*
X-29956008Y-17248120D01*
X-29956008Y-17248120D02*
X-30051247Y-17267167D01*
X-29879818Y-17324310D02*
X-29860770Y-17333834D01*
X-29860770Y-17333834D02*
X-29822675Y-17333834D01*
X-29822675Y-17333834D02*
X-29803627Y-17324310D01*
X-29803627Y-17324310D02*
X-29794104Y-17305262D01*
X-29794104Y-17305262D02*
X-29794104Y-17295739D01*
X-29794104Y-17295739D02*
X-29803627Y-17276691D01*
X-29803627Y-17276691D02*
X-29822675Y-17267167D01*
X-29822675Y-17267167D02*
X-29851247Y-17267167D01*
X-29851247Y-17267167D02*
X-29870294Y-17257643D01*
X-29870294Y-17257643D02*
X-29879818Y-17238596D01*
X-29879818Y-17238596D02*
X-29879818Y-17229072D01*
X-29879818Y-17229072D02*
X-29870294Y-17210024D01*
X-29870294Y-17210024D02*
X-29851247Y-17200500D01*
X-29851247Y-17200500D02*
X-29822675Y-17200500D01*
X-29822675Y-17200500D02*
X-29803627Y-17210024D01*
X-29727437Y-17410024D02*
X-29717913Y-17400500D01*
X-29717913Y-17400500D02*
X-29698866Y-17371929D01*
X-29698866Y-17371929D02*
X-29689342Y-17352881D01*
X-29689342Y-17352881D02*
X-29679818Y-17324310D01*
X-29679818Y-17324310D02*
X-29670294Y-17276691D01*
X-29670294Y-17276691D02*
X-29670294Y-17238596D01*
X-29670294Y-17238596D02*
X-29679818Y-17190977D01*
X-29679818Y-17190977D02*
X-29689342Y-17162405D01*
X-29689342Y-17162405D02*
X-29698866Y-17143358D01*
X-29698866Y-17143358D02*
X-29717913Y-17114786D01*
X-29717913Y-17114786D02*
X-29727437Y-17105262D01*
X-29365532Y-17410024D02*
X-29375056Y-17400500D01*
X-29375056Y-17400500D02*
X-29394104Y-17371929D01*
X-29394104Y-17371929D02*
X-29403627Y-17352881D01*
X-29403627Y-17352881D02*
X-29413151Y-17324310D01*
X-29413151Y-17324310D02*
X-29422675Y-17276691D01*
X-29422675Y-17276691D02*
X-29422675Y-17238596D01*
X-29422675Y-17238596D02*
X-29413151Y-17190977D01*
X-29413151Y-17190977D02*
X-29403627Y-17162405D01*
X-29403627Y-17162405D02*
X-29394104Y-17143358D01*
X-29394104Y-17143358D02*
X-29375056Y-17114786D01*
X-29375056Y-17114786D02*
X-29365532Y-17105262D01*
X-29289342Y-17200500D02*
X-29289342Y-17333834D01*
X-29289342Y-17219548D02*
X-29279818Y-17210024D01*
X-29279818Y-17210024D02*
X-29260770Y-17200500D01*
X-29260770Y-17200500D02*
X-29232199Y-17200500D01*
X-29232199Y-17200500D02*
X-29213151Y-17210024D01*
X-29213151Y-17210024D02*
X-29203627Y-17229072D01*
X-29203627Y-17229072D02*
X-29203627Y-17333834D01*
X-29079818Y-17333834D02*
X-29098866Y-17324310D01*
X-29098866Y-17324310D02*
X-29108389Y-17314786D01*
X-29108389Y-17314786D02*
X-29117913Y-17295739D01*
X-29117913Y-17295739D02*
X-29117913Y-17238596D01*
X-29117913Y-17238596D02*
X-29108389Y-17219548D01*
X-29108389Y-17219548D02*
X-29098866Y-17210024D01*
X-29098866Y-17210024D02*
X-29079818Y-17200500D01*
X-29079818Y-17200500D02*
X-29051246Y-17200500D01*
X-29051246Y-17200500D02*
X-29032199Y-17210024D01*
X-29032199Y-17210024D02*
X-29022675Y-17219548D01*
X-29022675Y-17219548D02*
X-29013151Y-17238596D01*
X-29013151Y-17238596D02*
X-29013151Y-17295739D01*
X-29013151Y-17295739D02*
X-29022675Y-17314786D01*
X-29022675Y-17314786D02*
X-29032199Y-17324310D01*
X-29032199Y-17324310D02*
X-29051246Y-17333834D01*
X-29051246Y-17333834D02*
X-29079818Y-17333834D01*
X-28956008Y-17200500D02*
X-28879818Y-17200500D01*
X-28927437Y-17133834D02*
X-28927437Y-17305262D01*
X-28927437Y-17305262D02*
X-28917913Y-17324310D01*
X-28917913Y-17324310D02*
X-28898866Y-17333834D01*
X-28898866Y-17333834D02*
X-28879818Y-17333834D01*
X-28660770Y-17200500D02*
X-28660770Y-17400500D01*
X-28660770Y-17210024D02*
X-28641723Y-17200500D01*
X-28641723Y-17200500D02*
X-28603627Y-17200500D01*
X-28603627Y-17200500D02*
X-28584580Y-17210024D01*
X-28584580Y-17210024D02*
X-28575056Y-17219548D01*
X-28575056Y-17219548D02*
X-28565532Y-17238596D01*
X-28565532Y-17238596D02*
X-28565532Y-17295739D01*
X-28565532Y-17295739D02*
X-28575056Y-17314786D01*
X-28575056Y-17314786D02*
X-28584580Y-17324310D01*
X-28584580Y-17324310D02*
X-28603627Y-17333834D01*
X-28603627Y-17333834D02*
X-28641723Y-17333834D01*
X-28641723Y-17333834D02*
X-28660770Y-17324310D01*
X-28451246Y-17333834D02*
X-28470294Y-17324310D01*
X-28470294Y-17324310D02*
X-28479818Y-17305262D01*
X-28479818Y-17305262D02*
X-28479818Y-17133834D01*
X-28289342Y-17333834D02*
X-28289342Y-17229072D01*
X-28289342Y-17229072D02*
X-28298865Y-17210024D01*
X-28298865Y-17210024D02*
X-28317913Y-17200500D01*
X-28317913Y-17200500D02*
X-28356008Y-17200500D01*
X-28356008Y-17200500D02*
X-28375056Y-17210024D01*
X-28289342Y-17324310D02*
X-28308389Y-17333834D01*
X-28308389Y-17333834D02*
X-28356008Y-17333834D01*
X-28356008Y-17333834D02*
X-28375056Y-17324310D01*
X-28375056Y-17324310D02*
X-28384580Y-17305262D01*
X-28384580Y-17305262D02*
X-28384580Y-17286215D01*
X-28384580Y-17286215D02*
X-28375056Y-17267167D01*
X-28375056Y-17267167D02*
X-28356008Y-17257643D01*
X-28356008Y-17257643D02*
X-28308389Y-17257643D01*
X-28308389Y-17257643D02*
X-28289342Y-17248120D01*
X-28222675Y-17200500D02*
X-28146485Y-17200500D01*
X-28194104Y-17133834D02*
X-28194104Y-17305262D01*
X-28194104Y-17305262D02*
X-28184580Y-17324310D01*
X-28184580Y-17324310D02*
X-28165532Y-17333834D01*
X-28165532Y-17333834D02*
X-28146485Y-17333834D01*
X-28003627Y-17324310D02*
X-28022675Y-17333834D01*
X-28022675Y-17333834D02*
X-28060770Y-17333834D01*
X-28060770Y-17333834D02*
X-28079818Y-17324310D01*
X-28079818Y-17324310D02*
X-28089342Y-17305262D01*
X-28089342Y-17305262D02*
X-28089342Y-17229072D01*
X-28089342Y-17229072D02*
X-28079818Y-17210024D01*
X-28079818Y-17210024D02*
X-28060770Y-17200500D01*
X-28060770Y-17200500D02*
X-28022675Y-17200500D01*
X-28022675Y-17200500D02*
X-28003627Y-17210024D01*
X-28003627Y-17210024D02*
X-27994104Y-17229072D01*
X-27994104Y-17229072D02*
X-27994104Y-17248120D01*
X-27994104Y-17248120D02*
X-28089342Y-17267167D01*
X-27822675Y-17333834D02*
X-27822675Y-17133834D01*
X-27822675Y-17324310D02*
X-27841723Y-17333834D01*
X-27841723Y-17333834D02*
X-27879818Y-17333834D01*
X-27879818Y-17333834D02*
X-27898865Y-17324310D01*
X-27898865Y-17324310D02*
X-27908389Y-17314786D01*
X-27908389Y-17314786D02*
X-27917913Y-17295739D01*
X-27917913Y-17295739D02*
X-27917913Y-17238596D01*
X-27917913Y-17238596D02*
X-27908389Y-17219548D01*
X-27908389Y-17219548D02*
X-27898865Y-17210024D01*
X-27898865Y-17210024D02*
X-27879818Y-17200500D01*
X-27879818Y-17200500D02*
X-27841723Y-17200500D01*
X-27841723Y-17200500D02*
X-27822675Y-17210024D01*
X-27746484Y-17410024D02*
X-27736961Y-17400500D01*
X-27736961Y-17400500D02*
X-27717913Y-17371929D01*
X-27717913Y-17371929D02*
X-27708389Y-17352881D01*
X-27708389Y-17352881D02*
X-27698865Y-17324310D01*
X-27698865Y-17324310D02*
X-27689342Y-17276691D01*
X-27689342Y-17276691D02*
X-27689342Y-17238596D01*
X-27689342Y-17238596D02*
X-27698865Y-17190977D01*
X-27698865Y-17190977D02*
X-27708389Y-17162405D01*
X-27708389Y-17162405D02*
X-27717913Y-17143358D01*
X-27717913Y-17143358D02*
X-27736961Y-17114786D01*
X-27736961Y-17114786D02*
X-27746484Y-17105262D01*
M02*
