G04 #@! TF.GenerationSoftware,KiCad,Pcbnew,8.99.0-946-gf00a1ab517*
G04 #@! TF.CreationDate,2024-05-15T19:48:55+07:00*
G04 #@! TF.ProjectId,austin,61757374-696e-42e6-9b69-6361645f7063,v2.2.6*
G04 #@! TF.SameCoordinates,PX1a96a400PY40d23d0*
G04 #@! TF.FileFunction,Profile,NP*
%FSLAX46Y46*%
G04 Gerber Fmt 4.6, Leading zero omitted, Abs format (unit mm)*
G04 Created by KiCad (PCBNEW 8.99.0-946-gf00a1ab517) date 2024-05-15 19:48:55*
%MOMM*%
%LPD*%
G01*
G04 APERTURE LIST*
G04 #@! TA.AperFunction,Profile*
%ADD10C,0.100000*%
G04 #@! TD*
G04 #@! TA.AperFunction,Profile*
%ADD11C,0.150000*%
G04 #@! TD*
G04 APERTURE END LIST*
D10*
X-339975000Y-149753500D02*
G75*
G02*
X-344975000Y-144753500I0J5000000D01*
G01*
X-155365000Y-28727500D02*
G75*
G02*
X-156865000Y-30227500I-1500000J0D01*
G01*
X-339975000Y-30213500D02*
X-156865000Y-30227500D01*
X-146455000Y-22827500D02*
G75*
G02*
X-144955000Y-24327500I0J-1500000D01*
G01*
X-144955000Y-24327500D02*
X-144955000Y-28727500D01*
X-153865000Y-22827500D02*
X-146455000Y-22827500D01*
X-155365000Y-28727500D02*
X-155365000Y-24327500D01*
X-155365000Y-24327500D02*
G75*
G02*
X-153865000Y-22827500I1500000J0D01*
G01*
X44465000Y-144843500D02*
G75*
G02*
X39465000Y-149843500I-5000000J0D01*
G01*
X39465000Y-149843500D02*
X3350000Y-149856255D01*
X-275345000Y-149778500D02*
G75*
G02*
X-282105000Y-149778500I-3380000J1245212D01*
G01*
X39475000Y-30223500D02*
G75*
G02*
X44475000Y-35223500I0J-5000000D01*
G01*
X-261075000Y-149761636D02*
G75*
G02*
X-267835000Y-149761636I-3380000J1245212D01*
G01*
X3350000Y-149856255D02*
G75*
G02*
X-3395000Y-149856255I-3372500J1242450D01*
G01*
X39475000Y-30223500D02*
X-143455000Y-30227500D01*
X-3395000Y-149856255D02*
X-20560000Y-149826255D01*
X-282105000Y-149778500D02*
X-339975000Y-149753500D01*
X-344975000Y-144753500D02*
X-344975000Y-35213500D01*
X44475000Y-35223500D02*
X44465000Y-144843500D01*
X-95095000Y-149753500D02*
G75*
G02*
X-93095000Y-151753500I0J-2000000D01*
G01*
X-20560000Y-149826255D02*
G75*
G02*
X-27395000Y-149826255I-3417500J1259051D01*
G01*
X-91105000Y-153943500D02*
G75*
G02*
X-93094965Y-151753503I0J1999100D01*
G01*
X-167815000Y-149761636D02*
X-261075000Y-149761636D01*
X-35935000Y-151823500D02*
G75*
G02*
X-37935000Y-153983528I-2000000J-154100D01*
G01*
X-95095000Y-149753500D02*
X-161055000Y-149761636D01*
X-161055000Y-149761636D02*
G75*
G02*
X-167815000Y-149761636I-3380000J1245212D01*
G01*
X-344975000Y-35213500D02*
G75*
G02*
X-339975000Y-30213500I5000000J0D01*
G01*
X-143455000Y-30227500D02*
G75*
G02*
X-144955000Y-28727500I0J1500000D01*
G01*
X-37935000Y-153983500D02*
X-91105000Y-153943500D01*
X-267835000Y-149761636D02*
X-275345000Y-149778500D01*
X-27395000Y-149826255D02*
X-33935000Y-149823500D01*
X-35935000Y-151823500D02*
G75*
G02*
X-33935000Y-149823500I2000000J0D01*
G01*
D11*
X-42355000Y-124070000D02*
X-42355000Y-127470000D01*
X-42355000Y-124070000D02*
X-38555000Y-124070000D01*
X-42355000Y-127470000D02*
X-38555000Y-127470000D01*
X-38555000Y-124070000D02*
X-38555000Y-127470000D01*
X-47792500Y-127417500D02*
X-47792500Y-124017500D01*
X-43992500Y-124017500D02*
X-47792500Y-124017500D01*
X-43992500Y-127417500D02*
X-47792500Y-127417500D01*
X-43992500Y-127417500D02*
X-43992500Y-124017500D01*
X-45127500Y-119652500D02*
X-45127500Y-123052500D01*
X-45127500Y-119652500D02*
X-41327500Y-119652500D01*
X-45127500Y-123052500D02*
X-41327500Y-123052500D01*
X-41327500Y-119652500D02*
X-41327500Y-123052500D01*
M02*
