G04 #@! TF.GenerationSoftware,KiCad,Pcbnew,8.99.0-946-gf00a1ab517*
G04 #@! TF.CreationDate,2024-05-15T19:48:55+07:00*
G04 #@! TF.ProjectId,austin,61757374-696e-42e6-9b69-6361645f7063,v2.2.6*
G04 #@! TF.SameCoordinates,PX1a96a400PY40d23d0*
G04 #@! TF.FileFunction,Paste,Bot*
G04 #@! TF.FilePolarity,Positive*
%FSLAX46Y46*%
G04 Gerber Fmt 4.6, Leading zero omitted, Abs format (unit mm)*
G04 Created by KiCad (PCBNEW 8.99.0-946-gf00a1ab517) date 2024-05-15 19:48:55*
%MOMM*%
%LPD*%
G01*
G04 APERTURE LIST*
G04 Aperture macros list*
%AMRoundRect*
0 Rectangle with rounded corners*
0 $1 Rounding radius*
0 $2 $3 $4 $5 $6 $7 $8 $9 X,Y pos of 4 corners*
0 Add a 4 corners polygon primitive as box body*
4,1,4,$2,$3,$4,$5,$6,$7,$8,$9,$2,$3,0*
0 Add four circle primitives for the rounded corners*
1,1,$1+$1,$2,$3*
1,1,$1+$1,$4,$5*
1,1,$1+$1,$6,$7*
1,1,$1+$1,$8,$9*
0 Add four rect primitives between the rounded corners*
20,1,$1+$1,$2,$3,$4,$5,0*
20,1,$1+$1,$4,$5,$6,$7,0*
20,1,$1+$1,$6,$7,$8,$9,0*
20,1,$1+$1,$8,$9,$2,$3,0*%
G04 Aperture macros list end*
%ADD10O,5.500000X2.410000*%
%ADD11R,1.190000X3.000000*%
%ADD12R,0.600000X1.760000*%
%ADD13R,0.300000X1.760000*%
%ADD14R,0.600000X1.450000*%
%ADD15RoundRect,0.250000X0.600000X-0.400000X0.600000X0.400000X-0.600000X0.400000X-0.600000X-0.400000X0*%
%ADD16RoundRect,0.250000X0.250000X0.475000X-0.250000X0.475000X-0.250000X-0.475000X0.250000X-0.475000X0*%
%ADD17RoundRect,0.250000X-0.475000X0.250000X-0.475000X-0.250000X0.475000X-0.250000X0.475000X0.250000X0*%
%ADD18RoundRect,0.250000X-0.600000X0.400000X-0.600000X-0.400000X0.600000X-0.400000X0.600000X0.400000X0*%
%ADD19RoundRect,0.250000X-0.262500X-0.450000X0.262500X-0.450000X0.262500X0.450000X-0.262500X0.450000X0*%
%ADD20RoundRect,0.250000X-0.250000X-0.475000X0.250000X-0.475000X0.250000X0.475000X-0.250000X0.475000X0*%
%ADD21RoundRect,0.375000X-0.375000X0.625000X-0.375000X-0.625000X0.375000X-0.625000X0.375000X0.625000X0*%
%ADD22RoundRect,0.500000X-1.400000X0.500000X-1.400000X-0.500000X1.400000X-0.500000X1.400000X0.500000X0*%
%ADD23RoundRect,0.150000X-0.150000X0.512500X-0.150000X-0.512500X0.150000X-0.512500X0.150000X0.512500X0*%
%ADD24RoundRect,0.250000X-0.450000X0.262500X-0.450000X-0.262500X0.450000X-0.262500X0.450000X0.262500X0*%
%ADD25RoundRect,0.075000X0.662500X0.075000X-0.662500X0.075000X-0.662500X-0.075000X0.662500X-0.075000X0*%
%ADD26RoundRect,0.075000X0.075000X0.662500X-0.075000X0.662500X-0.075000X-0.662500X0.075000X-0.662500X0*%
G04 APERTURE END LIST*
D10*
X-40712500Y-78055000D03*
X-51462500Y-80540000D03*
X-255025000Y-59005000D03*
X-265775000Y-61490000D03*
X-326462000Y-78055000D03*
X-337212000Y-80540000D03*
X-305031500Y-135205000D03*
X-315781500Y-137690000D03*
X-16900000Y-116155000D03*
X-27650000Y-118640000D03*
X21200000Y-78055000D03*
X10450000Y-80540000D03*
X40250000Y-35192500D03*
X29500000Y-37677500D03*
X21200000Y-116155000D03*
X10450000Y-118640000D03*
X-188350000Y-78055000D03*
X-199100000Y-80540000D03*
X40250000Y-125680000D03*
X29500000Y-128165000D03*
X-164537500Y-97105000D03*
X-175287500Y-99590000D03*
X-293125000Y-59005000D03*
X-303875000Y-61490000D03*
X-207400000Y-35192500D03*
X-218150000Y-37677500D03*
X-250262500Y-35192500D03*
X-261012500Y-37677500D03*
X-40712500Y-139967500D03*
X-51462500Y-142452500D03*
X-40712500Y-97105000D03*
X-51462500Y-99590000D03*
X-212162500Y-116155000D03*
X-222912500Y-118640000D03*
X40250000Y-87580000D03*
X29500000Y-90065000D03*
X-269312500Y-116155000D03*
X-280062500Y-118640000D03*
X-150250000Y-78055000D03*
X-161000000Y-80540000D03*
X-302650000Y-78055000D03*
X-313400000Y-80540000D03*
X-297887500Y-97105000D03*
X-308637500Y-99590000D03*
X-235975000Y-59005000D03*
X-246725000Y-61490000D03*
X-135962000Y-135205000D03*
X-146712000Y-137690000D03*
X-78812500Y-139967500D03*
X-89562500Y-142452500D03*
X-64525000Y-35192500D03*
X-75275000Y-37677500D03*
X-93075000Y-69075000D03*
X-82325000Y-66590000D03*
X-116912500Y-116155000D03*
X-127662500Y-118640000D03*
X-328844000Y-135205000D03*
X-339594000Y-137690000D03*
X-40712500Y-35192500D03*
X-51462500Y-37677500D03*
X-112150000Y-78055000D03*
X-122900000Y-80540000D03*
X-140725000Y-59005000D03*
X-151475000Y-61490000D03*
X-226450000Y-35192500D03*
X-237200000Y-37677500D03*
X-259787500Y-97105000D03*
X-270537500Y-99590000D03*
X-76356900Y-97105000D03*
X-87106900Y-99590000D03*
X-102625000Y-59005000D03*
X-113375000Y-61490000D03*
X-169300000Y-35192500D03*
X-180050000Y-37677500D03*
X-216925000Y-59005000D03*
X-227675000Y-61490000D03*
X-274075000Y-59005000D03*
X-284825000Y-61490000D03*
X-288362500Y-116155000D03*
X-299112500Y-118640000D03*
X21200000Y-135205000D03*
X10450000Y-137690000D03*
X-7375001Y-135205000D03*
X-18125001Y-137690000D03*
X-159775000Y-59005000D03*
X-170525000Y-61490000D03*
X-221687500Y-97105000D03*
X-232437500Y-99590000D03*
X-335962000Y-145275000D03*
X-325212000Y-142790000D03*
X-269312500Y-35192500D03*
X-280062500Y-37677500D03*
X40250000Y-59005000D03*
X29500000Y-61490000D03*
X-16900000Y-35192500D03*
X-27650000Y-37677500D03*
X-59762500Y-139967500D03*
X-70512500Y-142452500D03*
X2150000Y-59005000D03*
X-8600000Y-61490000D03*
X-90718500Y-116155000D03*
X-101468500Y-118640000D03*
X-307387000Y-145275000D03*
X-296637000Y-142790000D03*
X-331225000Y-35192500D03*
X-341975000Y-37677500D03*
X-26400000Y-145275000D03*
X-15650000Y-142790000D03*
X-155012500Y-116155000D03*
X-165762500Y-118640000D03*
X-331225000Y-59005000D03*
X-341975000Y-61490000D03*
X-278837500Y-97105000D03*
X-289587500Y-99590000D03*
X-7350000Y-145275000D03*
X3400000Y-142790000D03*
X-283600000Y-78055000D03*
X-294350000Y-80540000D03*
X-107387500Y-35192500D03*
X-118137500Y-37677500D03*
X-333581000Y-107175000D03*
X-322831000Y-104690000D03*
X-93100000Y-78055000D03*
X-103850000Y-80540000D03*
X-169300000Y-78055000D03*
X-180050000Y-80540000D03*
X-250262500Y-116155000D03*
X-261012500Y-118640000D03*
X-126437500Y-35192500D03*
X-137187500Y-37677500D03*
X-121675000Y-59005000D03*
X-132425000Y-61490000D03*
X-245500000Y-78055000D03*
X-256250000Y-80540000D03*
X-288362500Y-35192500D03*
X-299112500Y-37677500D03*
X2150000Y-97105000D03*
X-8600000Y-99590000D03*
X-16900000Y-78055000D03*
X-27650000Y-80540000D03*
X-307412500Y-35192500D03*
X-318162500Y-37677500D03*
X-88337500Y-35192500D03*
X-99087500Y-37677500D03*
X-74025000Y-69075000D03*
X-63275000Y-66590000D03*
X-107387000Y-135205000D03*
X-118137000Y-137690000D03*
X-131200000Y-78055000D03*
X-141950000Y-80540000D03*
X-207400000Y-78055000D03*
X-218150000Y-80540000D03*
X-202637500Y-97105000D03*
X-213387500Y-99590000D03*
X2150000Y-78055000D03*
X-8600000Y-80540000D03*
X-40712500Y-59005000D03*
X-51462500Y-61490000D03*
X-178825000Y-59005000D03*
X-189575000Y-61490000D03*
X-135962500Y-116155000D03*
X-146712500Y-118640000D03*
X-312175000Y-59005000D03*
X-322925000Y-61490000D03*
X-240737500Y-97105000D03*
X-251487500Y-99590000D03*
X-216925000Y-135198500D03*
X-227675000Y-137683500D03*
X-59762500Y-120917500D03*
X-70512500Y-123402500D03*
X-174062500Y-116155000D03*
X-184812500Y-118640000D03*
X-126437500Y-97105000D03*
X-137187500Y-99590000D03*
X2150000Y-116155000D03*
X-8600000Y-118640000D03*
X-197875000Y-59005000D03*
X-208625000Y-61490000D03*
X-219281500Y-145275000D03*
X-208531500Y-142790000D03*
X-264550000Y-78055000D03*
X-275300000Y-80540000D03*
X-328844000Y-97105000D03*
X-339594000Y-99590000D03*
X-16900000Y-97105000D03*
X-27650000Y-99590000D03*
X-226450000Y-78055000D03*
X-237200000Y-80540000D03*
X-290719000Y-145275000D03*
X-279969000Y-142790000D03*
X-183587500Y-97105000D03*
X-194337500Y-99590000D03*
X-107387500Y-97105000D03*
X-118137500Y-99590000D03*
X-319244400Y-116155000D03*
X-329994400Y-118640000D03*
X-193112500Y-116155000D03*
X-203862500Y-118640000D03*
X-69287000Y-78055000D03*
X-80037000Y-80540000D03*
X-231212500Y-116155000D03*
X-241962500Y-118640000D03*
X21200000Y-35192500D03*
X10450000Y-37677500D03*
X-188350000Y-35192500D03*
X-199100000Y-37677500D03*
X2150000Y-35192500D03*
X-8600000Y-37677500D03*
X21200000Y-59005000D03*
X10450000Y-61490000D03*
X21200000Y-97105000D03*
X10450000Y-99590000D03*
X-145487500Y-35192500D03*
X-156237500Y-37677500D03*
X-145487500Y-97105000D03*
X-156237500Y-99590000D03*
X-16900000Y-59005000D03*
X-27650000Y-61490000D03*
X-74050000Y-59005000D03*
X-84800000Y-61490000D03*
D11*
X-37860000Y-125770000D03*
X-43050000Y-125770000D03*
X-48487500Y-125717500D03*
X-43297500Y-125717500D03*
X-45822500Y-121352500D03*
X-40632500Y-121352500D03*
D12*
X-153410000Y-29270000D03*
X-152610000Y-29270000D03*
D13*
X-151410000Y-29270000D03*
X-150410000Y-29270000D03*
X-149910000Y-29270000D03*
D14*
X-147710000Y-29115000D03*
X-146910000Y-29115000D03*
D12*
X-146910000Y-29270000D03*
X-147710000Y-29270000D03*
D13*
X-148410000Y-29270000D03*
X-149410000Y-29270000D03*
X-150910000Y-29270000D03*
D14*
X-152610000Y-29115000D03*
X-153410000Y-29115000D03*
D15*
X-285320000Y-86278500D03*
X-285320000Y-82778500D03*
D16*
X-32415000Y-40648500D03*
X-34315000Y-40648500D03*
D15*
X-218645000Y-67228500D03*
X-218645000Y-63728500D03*
X-271032500Y-43416000D03*
X-271032500Y-39916000D03*
X-251982500Y-124378500D03*
X-251982500Y-120878500D03*
D17*
X-53125000Y-40158500D03*
X-53125000Y-42058500D03*
X-55095000Y-40178500D03*
X-55095000Y-42078500D03*
D15*
X-90057500Y-43416000D03*
X-90057500Y-39916000D03*
X-42432500Y-86278500D03*
X-42432500Y-82778500D03*
X19480000Y-105328500D03*
X19480000Y-101828500D03*
X-332945000Y-67228500D03*
X-332945000Y-63728500D03*
X-99495000Y-67258500D03*
X-99495000Y-63758500D03*
D18*
X-32175000Y-137998500D03*
X-32175000Y-141498500D03*
D15*
X-171020000Y-86278500D03*
X-171020000Y-82778500D03*
X-42432500Y-43416000D03*
X-42432500Y-39916000D03*
X-137682500Y-124378500D03*
X-137682500Y-120878500D03*
X-61482500Y-148191000D03*
X-61482500Y-144691000D03*
X-261507500Y-105328500D03*
X-261507500Y-101828500D03*
X-180545000Y-67228500D03*
X-180545000Y-63728500D03*
X-190070000Y-43416000D03*
X-190070000Y-39916000D03*
X-128157500Y-105328500D03*
X-128157500Y-101828500D03*
D16*
X-46275000Y-54818500D03*
X-48175000Y-54818500D03*
D15*
X-147207500Y-105328500D03*
X-147207500Y-101828500D03*
X-194832500Y-124378500D03*
X-194832500Y-120878500D03*
D19*
X-28605000Y-31828500D03*
X-26780000Y-31828500D03*
D15*
X-97185000Y-67268500D03*
X-97185000Y-63768500D03*
X-128157500Y-43416000D03*
X-128157500Y-39916000D03*
X-42432500Y-148191000D03*
X-42432500Y-144691000D03*
X19480000Y-124378500D03*
X19480000Y-120878500D03*
X-223407500Y-105328500D03*
X-223407500Y-101828500D03*
D20*
X-78965000Y-40148500D03*
X-77065000Y-40148500D03*
D15*
X-313895000Y-67228500D03*
X-313895000Y-63728500D03*
X-109107500Y-105328500D03*
X-109107500Y-101828500D03*
X-66245000Y-43416000D03*
X-66245000Y-39916000D03*
X-299607500Y-105328500D03*
X-299607500Y-101828500D03*
X19480000Y-43416000D03*
X19480000Y-39916000D03*
X-132920000Y-86278500D03*
X-132920000Y-82778500D03*
X-332945000Y-43416000D03*
X-332945000Y-39916000D03*
X-328182000Y-86278500D03*
X-328182000Y-82778500D03*
X-204357500Y-105328500D03*
X-204357500Y-101828500D03*
X38530000Y-133903500D03*
X38530000Y-130403500D03*
X-171020000Y-43416000D03*
X-171020000Y-39916000D03*
X-275795000Y-67228500D03*
X-275795000Y-63728500D03*
X-237695000Y-67228500D03*
X-237695000Y-63728500D03*
X-123395000Y-67228500D03*
X-123395000Y-63728500D03*
D18*
X-289215000Y-135148500D03*
X-289215000Y-138648500D03*
D15*
X-80532500Y-148191000D03*
X-80532500Y-144691000D03*
X-166257500Y-105328500D03*
X-166257500Y-101828500D03*
X-247220000Y-86278500D03*
X-247220000Y-82778500D03*
X-280557500Y-105328500D03*
X-280557500Y-101828500D03*
X-161495000Y-67228500D03*
X-161495000Y-63728500D03*
D18*
X-29805000Y-138008500D03*
X-29805000Y-141508500D03*
D15*
X-199595000Y-67228500D03*
X-199595000Y-63728500D03*
X-147207500Y-43416000D03*
X-147207500Y-39916000D03*
X-156732500Y-124378500D03*
X-156732500Y-120878500D03*
D20*
X-78965000Y-42128500D03*
X-77065000Y-42128500D03*
D15*
X-42432500Y-105328500D03*
X-42432500Y-101828500D03*
X-18620000Y-105328500D03*
X-18620000Y-101828500D03*
X430000Y-43416000D03*
X430000Y-39916000D03*
X-320735000Y-139328500D03*
X-320735000Y-135828500D03*
X38530000Y-43416000D03*
X38530000Y-39916000D03*
X-209120000Y-86278500D03*
X-209120000Y-82778500D03*
X-94820000Y-86278500D03*
X-94820000Y-82778500D03*
X-42432500Y-67228500D03*
X-42432500Y-63728500D03*
X-104345000Y-67228500D03*
X-104345000Y-63728500D03*
X-92438500Y-124378500D03*
X-92438500Y-120878500D03*
X-290082500Y-124378500D03*
X-290082500Y-120878500D03*
D21*
X-164967500Y-40448500D03*
X-162667500Y-40448500D03*
D22*
X-162667500Y-46748500D03*
D21*
X-160367500Y-40448500D03*
D15*
X-142445000Y-67228500D03*
X-142445000Y-63728500D03*
X-137682000Y-143428500D03*
X-137682000Y-139928500D03*
X-211501500Y-138020000D03*
X-211501500Y-134520000D03*
X-118632500Y-124378500D03*
X-118632500Y-120878500D03*
X19480000Y-67228500D03*
X19480000Y-63728500D03*
X-109107500Y-43416000D03*
X-109107500Y-39916000D03*
X-271032500Y-124378500D03*
X-271032500Y-120878500D03*
D16*
X-46265000Y-52828500D03*
X-48165000Y-52828500D03*
D20*
X-57050000Y-34850000D03*
X-55150000Y-34850000D03*
D15*
X38530000Y-67228500D03*
X38530000Y-63728500D03*
X-304370000Y-86278500D03*
X-304370000Y-82778500D03*
X38530000Y-95803500D03*
X38530000Y-92303500D03*
X-323155000Y-139328500D03*
X-323155000Y-135828500D03*
X-294845000Y-67228500D03*
X-294845000Y-63728500D03*
X-61482500Y-129141000D03*
X-61482500Y-125641000D03*
X-190070000Y-86278500D03*
X-190070000Y-82778500D03*
X-213882500Y-124378500D03*
X-213882500Y-120878500D03*
X-320964400Y-124378500D03*
X-320964400Y-120878500D03*
X430000Y-67228500D03*
X430000Y-63728500D03*
X19480000Y-143428500D03*
X19480000Y-139928500D03*
X-71007000Y-86278500D03*
X-71007000Y-82778500D03*
X-290082500Y-43416000D03*
X-290082500Y-39916000D03*
X-175782500Y-124378500D03*
X-175782500Y-120878500D03*
X-151970000Y-86278500D03*
X-151970000Y-82778500D03*
X-228170000Y-86278500D03*
X-228170000Y-82778500D03*
X-78076900Y-105328500D03*
X-78076900Y-101828500D03*
X19480000Y-86278500D03*
X19480000Y-82778500D03*
X430000Y-86278500D03*
X430000Y-82778500D03*
D23*
X-142572500Y-40102500D03*
X-141622500Y-40102500D03*
X-140672500Y-40102500D03*
X-140672500Y-42377500D03*
X-141622500Y-42377500D03*
X-142572500Y-42377500D03*
D15*
X430000Y-124378500D03*
X430000Y-120878500D03*
X-18620000Y-67228500D03*
X-18620000Y-63728500D03*
X-316825000Y-105318500D03*
X-316825000Y-101818500D03*
D20*
X-63830000Y-59790000D03*
X-61930000Y-59790000D03*
D15*
X-113870000Y-86278500D03*
X-113870000Y-82778500D03*
X-18620000Y-86278500D03*
X-18620000Y-82778500D03*
X-309132500Y-43416000D03*
X-309132500Y-39916000D03*
D20*
X-63820000Y-61740000D03*
X-61920000Y-61740000D03*
D24*
X-162125000Y-31916000D03*
X-162125000Y-33741000D03*
D15*
X-18620000Y-124378500D03*
X-18620000Y-120878500D03*
X-256745000Y-67228500D03*
X-256745000Y-63728500D03*
X-228170000Y-43416000D03*
X-228170000Y-39916000D03*
D25*
X-53557500Y-48710000D03*
X-53557500Y-49210000D03*
X-53557500Y-49710000D03*
X-53557500Y-50210000D03*
X-53557500Y-50710000D03*
X-53557500Y-51210000D03*
X-53557500Y-51710000D03*
X-53557500Y-52210000D03*
X-53557500Y-52710000D03*
X-53557500Y-53210000D03*
X-53557500Y-53710000D03*
X-53557500Y-54210000D03*
D26*
X-54970000Y-55622500D03*
X-55470000Y-55622500D03*
X-55970000Y-55622500D03*
X-56470000Y-55622500D03*
X-56970000Y-55622500D03*
X-57470000Y-55622500D03*
X-57970000Y-55622500D03*
X-58470000Y-55622500D03*
X-58970000Y-55622500D03*
X-59470000Y-55622500D03*
X-59970000Y-55622500D03*
X-60470000Y-55622500D03*
D25*
X-61882500Y-54210000D03*
X-61882500Y-53710000D03*
X-61882500Y-53210000D03*
X-61882500Y-52710000D03*
X-61882500Y-52210000D03*
X-61882500Y-51710000D03*
X-61882500Y-51210000D03*
X-61882500Y-50710000D03*
X-61882500Y-50210000D03*
X-61882500Y-49710000D03*
X-61882500Y-49210000D03*
X-61882500Y-48710000D03*
D26*
X-60470000Y-47297500D03*
X-59970000Y-47297500D03*
X-59470000Y-47297500D03*
X-58970000Y-47297500D03*
X-58470000Y-47297500D03*
X-57970000Y-47297500D03*
X-57470000Y-47297500D03*
X-56970000Y-47297500D03*
X-56470000Y-47297500D03*
X-55970000Y-47297500D03*
X-55470000Y-47297500D03*
X-54970000Y-47297500D03*
D15*
X-266270000Y-86278500D03*
X-266270000Y-82778500D03*
X-209120000Y-43416000D03*
X-209120000Y-39916000D03*
X-109107000Y-143428500D03*
X-109107000Y-139928500D03*
X-251982500Y-43416000D03*
X-251982500Y-39916000D03*
X-232932500Y-124378500D03*
X-232932500Y-120878500D03*
X-185307500Y-105328500D03*
X-185307500Y-101828500D03*
X-18620000Y-43416000D03*
X-18620000Y-39916000D03*
X430000Y-105328500D03*
X430000Y-101828500D03*
X-242457500Y-105328500D03*
X-242457500Y-101828500D03*
M02*
