%TF.GenerationSoftware,KiCad,Pcbnew,8.99.0-2608-ga0707285a1*%
%TF.CreationDate,2024-10-09T18:54:20+07:00*%
%TF.ProjectId,dev_Board_8khz,6465765f-426f-4617-9264-5f386b687a2e,rev?*%
%TF.SameCoordinates,Original*%
%TF.FileFunction,Soldermask,Top*%
%TF.FilePolarity,Negative*%
%FSLAX46Y46*%
G04 Gerber Fmt 4.6, Leading zero omitted, Abs format (unit mm)*
G04 Created by KiCad (PCBNEW 8.99.0-2608-ga0707285a1) date 2024-10-09 18:54:20*
%MOMM*%
%LPD*%
G01*
G04 APERTURE LIST*
G04 Aperture macros list*
%AMRoundRect*
0 Rectangle with rounded corners*
0 $1 Rounding radius*
0 $2 $3 $4 $5 $6 $7 $8 $9 X,Y pos of 4 corners*
0 Add a 4 corners polygon primitive as box body*
4,1,4,$2,$3,$4,$5,$6,$7,$8,$9,$2,$3,0*
0 Add four circle primitives for the rounded corners*
1,1,$1+$1,$2,$3*
1,1,$1+$1,$4,$5*
1,1,$1+$1,$6,$7*
1,1,$1+$1,$8,$9*
0 Add four rect primitives between the rounded corners*
20,1,$1+$1,$2,$3,$4,$5,0*
20,1,$1+$1,$4,$5,$6,$7,0*
20,1,$1+$1,$6,$7,$8,$9,0*
20,1,$1+$1,$8,$9,$2,$3,0*%
%AMFreePoly0*
4,1,19,0.550000,-0.750000,0.000000,-0.750000,0.000000,-0.744911,-0.071157,-0.744911,-0.207708,-0.704816,-0.327430,-0.627875,-0.420627,-0.520320,-0.479746,-0.390866,-0.500000,-0.250000,-0.500000,0.250000,-0.479746,0.390866,-0.420627,0.520320,-0.327430,0.627875,-0.207708,0.704816,-0.071157,0.744911,0.000000,0.744911,0.000000,0.750000,0.550000,0.750000,0.550000,-0.750000,0.550000,-0.750000,
$1*%
%AMFreePoly1*
4,1,19,0.000000,0.744911,0.071157,0.744911,0.207708,0.704816,0.327430,0.627875,0.420627,0.520320,0.479746,0.390866,0.500000,0.250000,0.500000,-0.250000,0.479746,-0.390866,0.420627,-0.520320,0.327430,-0.627875,0.207708,-0.704816,0.071157,-0.744911,0.000000,-0.744911,0.000000,-0.750000,-0.550000,-0.750000,-0.550000,0.750000,0.000000,0.750000,0.000000,0.744911,0.000000,0.744911,
$1*%
G04 Aperture macros list end*
%ADD10C,0.650000*%
%ADD11R,0.600000X1.240000*%
%ADD12R,0.300000X1.240000*%
%ADD13O,1.000000X2.100000*%
%ADD14O,1.000000X1.800000*%
%ADD15R,1.000000X1.800000*%
%ADD16RoundRect,0.225000X-0.225000X-0.250000X0.225000X-0.250000X0.225000X0.250000X-0.225000X0.250000X0*%
%ADD17RoundRect,0.225000X0.250000X-0.225000X0.250000X0.225000X-0.250000X0.225000X-0.250000X-0.225000X0*%
%ADD18RoundRect,0.200000X0.275000X-0.200000X0.275000X0.200000X-0.275000X0.200000X-0.275000X-0.200000X0*%
%ADD19RoundRect,0.200000X-0.200000X-0.275000X0.200000X-0.275000X0.200000X0.275000X-0.200000X0.275000X0*%
%ADD20RoundRect,0.225000X0.225000X0.250000X-0.225000X0.250000X-0.225000X-0.250000X0.225000X-0.250000X0*%
%ADD21RoundRect,0.075000X0.700000X0.075000X-0.700000X0.075000X-0.700000X-0.075000X0.700000X-0.075000X0*%
%ADD22RoundRect,0.075000X0.075000X0.700000X-0.075000X0.700000X-0.075000X-0.700000X0.075000X-0.700000X0*%
%ADD23RoundRect,0.250000X-0.600000X-0.725000X0.600000X-0.725000X0.600000X0.725000X-0.600000X0.725000X0*%
%ADD24O,1.700000X1.950000*%
%ADD25R,1.200000X1.400000*%
%ADD26RoundRect,0.200000X-0.275000X0.200000X-0.275000X-0.200000X0.275000X-0.200000X0.275000X0.200000X0*%
%ADD27FreePoly0,270.000000*%
%ADD28R,1.500000X1.000000*%
%ADD29FreePoly1,270.000000*%
%ADD30R,2.600000X1.500000*%
%ADD31RoundRect,0.250000X-0.600000X-0.750000X0.600000X-0.750000X0.600000X0.750000X-0.600000X0.750000X0*%
%ADD32O,1.700000X2.000000*%
%ADD33RoundRect,0.375000X0.375000X-0.625000X0.375000X0.625000X-0.375000X0.625000X-0.375000X-0.625000X0*%
%ADD34RoundRect,0.500000X1.400000X-0.500000X1.400000X0.500000X-1.400000X0.500000X-1.400000X-0.500000X0*%
%ADD35FreePoly0,90.000000*%
%ADD36FreePoly1,90.000000*%
%ADD37R,1.700000X1.700000*%
%ADD38O,1.700000X1.700000*%
%ADD39RoundRect,0.062500X-0.062500X0.375000X-0.062500X-0.375000X0.062500X-0.375000X0.062500X0.375000X0*%
%ADD40RoundRect,0.062500X-0.375000X0.062500X-0.375000X-0.062500X0.375000X-0.062500X0.375000X0.062500X0*%
%ADD41R,3.450000X3.450000*%
G04 APERTURE END LIST*
D10*
%TO.C,Jd1*%
X169640000Y-64605000D03*
X163860000Y-64605000D03*
D11*
X169950000Y-65725000D03*
X169150000Y-65725000D03*
D12*
X168000000Y-65725000D03*
X167000000Y-65725000D03*
X166500000Y-65725000D03*
X165500000Y-65725000D03*
D11*
X164350000Y-65725000D03*
X163550000Y-65725000D03*
X163550000Y-65725000D03*
X164350000Y-65725000D03*
D12*
X165000000Y-65725000D03*
X166000000Y-65725000D03*
X167500000Y-65725000D03*
X168500000Y-65725000D03*
D11*
X169150000Y-65725000D03*
X169950000Y-65725000D03*
D13*
X171070000Y-65125000D03*
D14*
X171070000Y-60925000D03*
D13*
X162430000Y-65125000D03*
D14*
X162430000Y-60925000D03*
%TD*%
D15*
%TO.C,Y3*%
X181730000Y-92500000D03*
X184230000Y-92500000D03*
%TD*%
D16*
%TO.C,C17*%
X181270000Y-97470000D03*
X182820000Y-97470000D03*
%TD*%
D17*
%TO.C,C18*%
X181330000Y-85690000D03*
X181330000Y-84140000D03*
%TD*%
D18*
%TO.C,R3*%
X175960000Y-76255000D03*
X175960000Y-74605000D03*
%TD*%
D17*
%TO.C,C19*%
X178990000Y-85675000D03*
X178990000Y-84125000D03*
%TD*%
D19*
%TO.C,R2*%
X170945000Y-82090000D03*
X172595000Y-82090000D03*
%TD*%
D16*
%TO.C,C10*%
X158445000Y-78880000D03*
X159995000Y-78880000D03*
%TD*%
D20*
%TO.C,C2*%
X155825000Y-91720000D03*
X154275000Y-91720000D03*
%TD*%
D21*
%TO.C,U1*%
X172250000Y-95250000D03*
X172250000Y-94750000D03*
X172250000Y-94250000D03*
X172250000Y-93750000D03*
X172250000Y-93250000D03*
X172250000Y-92750000D03*
X172250000Y-92250000D03*
X172250000Y-91750000D03*
X172250000Y-91250000D03*
X172250000Y-90750000D03*
X172250000Y-90250000D03*
X172250000Y-89750000D03*
X172250000Y-89250000D03*
X172250000Y-88750000D03*
X172250000Y-88250000D03*
X172250000Y-87750000D03*
D22*
X170325000Y-85825000D03*
X169825000Y-85825000D03*
X169325000Y-85825000D03*
X168825000Y-85825000D03*
X168325000Y-85825000D03*
X167825000Y-85825000D03*
X167325000Y-85825000D03*
X166825000Y-85825000D03*
X166325000Y-85825000D03*
X165825000Y-85825000D03*
X165325000Y-85825000D03*
X164825000Y-85825000D03*
X164325000Y-85825000D03*
X163825000Y-85825000D03*
X163325000Y-85825000D03*
X162825000Y-85825000D03*
D21*
X160900000Y-87750000D03*
X160900000Y-88250000D03*
X160900000Y-88750000D03*
X160900000Y-89250000D03*
X160900000Y-89750000D03*
X160900000Y-90250000D03*
X160900000Y-90750000D03*
X160900000Y-91250000D03*
X160900000Y-91750000D03*
X160900000Y-92250000D03*
X160900000Y-92750000D03*
X160900000Y-93250000D03*
X160900000Y-93750000D03*
X160900000Y-94250000D03*
X160900000Y-94750000D03*
X160900000Y-95250000D03*
D22*
X162825000Y-97175000D03*
X163325000Y-97175000D03*
X163825000Y-97175000D03*
X164325000Y-97175000D03*
X164825000Y-97175000D03*
X165325000Y-97175000D03*
X165825000Y-97175000D03*
X166325000Y-97175000D03*
X166825000Y-97175000D03*
X167325000Y-97175000D03*
X167825000Y-97175000D03*
X168325000Y-97175000D03*
X168825000Y-97175000D03*
X169325000Y-97175000D03*
X169825000Y-97175000D03*
X170325000Y-97175000D03*
%TD*%
D16*
%TO.C,C1*%
X150225000Y-97500000D03*
X151775000Y-97500000D03*
%TD*%
D19*
%TO.C,R1*%
X145675000Y-97500000D03*
X147325000Y-97500000D03*
%TD*%
D20*
%TO.C,C8*%
X159995000Y-77390000D03*
X158445000Y-77390000D03*
%TD*%
D19*
%TO.C,R4*%
X158395000Y-75920000D03*
X160045000Y-75920000D03*
%TD*%
D16*
%TO.C,C22*%
X180630000Y-75350000D03*
X182180000Y-75350000D03*
%TD*%
%TO.C,C6*%
X172475000Y-74890000D03*
X174025000Y-74890000D03*
%TD*%
D23*
%TO.C,J1*%
X181770000Y-62170000D03*
D24*
X184270000Y-62170000D03*
X186770000Y-62170000D03*
%TD*%
D25*
%TO.C,Y2*%
X172620000Y-76680000D03*
X172620000Y-78880000D03*
X174320000Y-78880000D03*
X174320000Y-76680000D03*
%TD*%
D26*
%TO.C,R5*%
X173990000Y-63855000D03*
X173990000Y-65505000D03*
%TD*%
D17*
%TO.C,C13*%
X151000000Y-78365000D03*
X151000000Y-76815000D03*
%TD*%
D16*
%TO.C,C21*%
X180635000Y-73870000D03*
X182185000Y-73870000D03*
%TD*%
D20*
%TO.C,C3*%
X155825000Y-93200000D03*
X154275000Y-93200000D03*
%TD*%
D27*
%TO.C,JP1*%
X165000000Y-68200000D03*
D28*
X165000000Y-69500000D03*
D29*
X165000000Y-70800000D03*
%TD*%
D30*
%TO.C,DD1*%
X150070000Y-64000000D03*
X150070000Y-61000000D03*
%TD*%
D18*
%TO.C,R6*%
X172500000Y-71325000D03*
X172500000Y-69675000D03*
%TD*%
D16*
%TO.C,C20*%
X148080000Y-91640000D03*
X149630000Y-91640000D03*
%TD*%
D17*
%TO.C,C7*%
X175970000Y-79175000D03*
X175970000Y-77625000D03*
%TD*%
D31*
%TO.C,RST*%
X150000000Y-100700000D03*
D32*
X152500000Y-100700000D03*
%TD*%
D20*
%TO.C,C16*%
X177950000Y-97460000D03*
X176400000Y-97460000D03*
%TD*%
D33*
%TO.C,U3*%
X148700000Y-74650000D03*
X151000000Y-74650000D03*
D34*
X151000000Y-68350000D03*
D33*
X153300000Y-74650000D03*
%TD*%
D17*
%TO.C,C5*%
X180220000Y-93155000D03*
X180220000Y-91605000D03*
%TD*%
D16*
%TO.C,C11*%
X175445000Y-80620000D03*
X176995000Y-80620000D03*
%TD*%
D31*
%TO.C,BOOT0*%
X145250000Y-100700000D03*
D32*
X147750000Y-100700000D03*
%TD*%
D16*
%TO.C,C15*%
X181685000Y-94390000D03*
X183235000Y-94390000D03*
%TD*%
%TO.C,C14*%
X181725000Y-90580000D03*
X183275000Y-90580000D03*
%TD*%
D35*
%TO.C,JP2*%
X168500000Y-70800000D03*
D28*
X168500000Y-69500000D03*
D36*
X168500000Y-68200000D03*
%TD*%
D37*
%TO.C,J2*%
X191570000Y-61880000D03*
D38*
X191570000Y-64420000D03*
X191570000Y-66960000D03*
X191570000Y-69500000D03*
X191570000Y-72040000D03*
X191570000Y-74580000D03*
X191570000Y-77120000D03*
X191570000Y-79660000D03*
X191570000Y-82200000D03*
X191570000Y-84740000D03*
X191570000Y-87280000D03*
X191570000Y-89820000D03*
X191570000Y-92360000D03*
X191570000Y-94900000D03*
X191570000Y-97440000D03*
X191570000Y-99980000D03*
%TD*%
D20*
%TO.C,C9*%
X174035000Y-80620000D03*
X172485000Y-80620000D03*
%TD*%
D17*
%TO.C,C12*%
X155620000Y-77480000D03*
X155620000Y-75930000D03*
%TD*%
D19*
%TO.C,R8*%
X144050000Y-60600000D03*
X145700000Y-60600000D03*
%TD*%
D39*
%TO.C,U2*%
X168230000Y-75182500D03*
X167730000Y-75182500D03*
X167230000Y-75182500D03*
X166730000Y-75182500D03*
X166230000Y-75182500D03*
X165730000Y-75182500D03*
X165230000Y-75182500D03*
X164730000Y-75182500D03*
D40*
X164042500Y-75870000D03*
X164042500Y-76370000D03*
X164042500Y-76870000D03*
X164042500Y-77370000D03*
X164042500Y-77870000D03*
X164042500Y-78370000D03*
X164042500Y-78870000D03*
X164042500Y-79370000D03*
D39*
X164730000Y-80057500D03*
X165230000Y-80057500D03*
X165730000Y-80057500D03*
X166230000Y-80057500D03*
X166730000Y-80057500D03*
X167230000Y-80057500D03*
X167730000Y-80057500D03*
X168230000Y-80057500D03*
D40*
X168917500Y-79370000D03*
X168917500Y-78870000D03*
X168917500Y-78370000D03*
X168917500Y-77870000D03*
X168917500Y-77370000D03*
X168917500Y-76870000D03*
X168917500Y-76370000D03*
X168917500Y-75870000D03*
D41*
X166480000Y-77620000D03*
%TD*%
D37*
%TO.C,J3*%
X141580000Y-61880000D03*
D38*
X141580000Y-64420000D03*
X141580000Y-66960000D03*
X141580000Y-69500000D03*
X141580000Y-72040000D03*
X141580000Y-74580000D03*
X141580000Y-77120000D03*
X141580000Y-79660000D03*
X141580000Y-82200000D03*
X141580000Y-84740000D03*
X141580000Y-87280000D03*
X141580000Y-89820000D03*
X141580000Y-92360000D03*
X141580000Y-94900000D03*
X141580000Y-97440000D03*
X141580000Y-99980000D03*
%TD*%
D25*
%TO.C,Y1*%
X176940000Y-91900000D03*
X176940000Y-94100000D03*
X178640000Y-94100000D03*
X178640000Y-91900000D03*
%TD*%
D18*
%TO.C,R7*%
X171000000Y-71325000D03*
X171000000Y-69675000D03*
%TD*%
D16*
%TO.C,C4*%
X176795000Y-90160000D03*
X178345000Y-90160000D03*
%TD*%
M02*
