%TF.GenerationSoftware,KiCad,Pcbnew,8.99.0-2608-ga0707285a1*%
%TF.CreationDate,2024-10-09T18:54:20+07:00*%
%TF.ProjectId,dev_Board_8khz,6465765f-426f-4617-9264-5f386b687a2e,rev?*%
%TF.SameCoordinates,Original*%
%TF.FileFunction,Soldermask,Bot*%
%TF.FilePolarity,Negative*%
%FSLAX46Y46*%
G04 Gerber Fmt 4.6, Leading zero omitted, Abs format (unit mm)*
G04 Created by KiCad (PCBNEW 8.99.0-2608-ga0707285a1) date 2024-10-09 18:54:20*
%MOMM*%
%LPD*%
G01*
G04 APERTURE LIST*
G04 Aperture macros list*
%AMRoundRect*
0 Rectangle with rounded corners*
0 $1 Rounding radius*
0 $2 $3 $4 $5 $6 $7 $8 $9 X,Y pos of 4 corners*
0 Add a 4 corners polygon primitive as box body*
4,1,4,$2,$3,$4,$5,$6,$7,$8,$9,$2,$3,0*
0 Add four circle primitives for the rounded corners*
1,1,$1+$1,$2,$3*
1,1,$1+$1,$4,$5*
1,1,$1+$1,$6,$7*
1,1,$1+$1,$8,$9*
0 Add four rect primitives between the rounded corners*
20,1,$1+$1,$2,$3,$4,$5,0*
20,1,$1+$1,$4,$5,$6,$7,0*
20,1,$1+$1,$6,$7,$8,$9,0*
20,1,$1+$1,$8,$9,$2,$3,0*%
G04 Aperture macros list end*
%ADD10C,0.650000*%
%ADD11O,1.000000X2.100000*%
%ADD12O,1.000000X1.800000*%
%ADD13RoundRect,0.250000X-0.600000X-0.725000X0.600000X-0.725000X0.600000X0.725000X-0.600000X0.725000X0*%
%ADD14O,1.700000X1.950000*%
%ADD15RoundRect,0.250000X-0.600000X-0.750000X0.600000X-0.750000X0.600000X0.750000X-0.600000X0.750000X0*%
%ADD16O,1.700000X2.000000*%
%ADD17R,1.700000X1.700000*%
%ADD18O,1.700000X1.700000*%
G04 APERTURE END LIST*
D10*
%TO.C,Jd1*%
X169640000Y-64605000D03*
X163860000Y-64605000D03*
D11*
X171070000Y-65125000D03*
D12*
X171070000Y-60925000D03*
D11*
X162430000Y-65125000D03*
D12*
X162430000Y-60925000D03*
%TD*%
D13*
%TO.C,J1*%
X181770000Y-62170000D03*
D14*
X184270000Y-62170000D03*
X186770000Y-62170000D03*
%TD*%
D15*
%TO.C,RST*%
X150000000Y-100700000D03*
D16*
X152500000Y-100700000D03*
%TD*%
D15*
%TO.C,BOOT0*%
X145250000Y-100700000D03*
D16*
X147750000Y-100700000D03*
%TD*%
D17*
%TO.C,J2*%
X191570000Y-61880000D03*
D18*
X191570000Y-64420000D03*
X191570000Y-66960000D03*
X191570000Y-69500000D03*
X191570000Y-72040000D03*
X191570000Y-74580000D03*
X191570000Y-77120000D03*
X191570000Y-79660000D03*
X191570000Y-82200000D03*
X191570000Y-84740000D03*
X191570000Y-87280000D03*
X191570000Y-89820000D03*
X191570000Y-92360000D03*
X191570000Y-94900000D03*
X191570000Y-97440000D03*
X191570000Y-99980000D03*
%TD*%
D17*
%TO.C,J3*%
X141580000Y-61880000D03*
D18*
X141580000Y-64420000D03*
X141580000Y-66960000D03*
X141580000Y-69500000D03*
X141580000Y-72040000D03*
X141580000Y-74580000D03*
X141580000Y-77120000D03*
X141580000Y-79660000D03*
X141580000Y-82200000D03*
X141580000Y-84740000D03*
X141580000Y-87280000D03*
X141580000Y-89820000D03*
X141580000Y-92360000D03*
X141580000Y-94900000D03*
X141580000Y-97440000D03*
X141580000Y-99980000D03*
%TD*%
M02*
