M48
; DRILL file {KiCad 8.99.0-2608-ga0707285a1} date 2024-10-09T18:54:13+0700
; FORMAT={-:-/ absolute / inch / decimal}
; #@! TF.CreationDate,2024-10-09T18:54:13+07:00
; #@! TF.GenerationSoftware,Kicad,Pcbnew,8.99.0-2608-ga0707285a1
; #@! TF.FileFunction,Plated,1,2,PTH
FMAT,2
INCH
; #@! TA.AperFunction,Plated,PTH,ViaDrill
T1C0.0118
; #@! TA.AperFunction,Plated,PTH,ComponentDrill
T2C0.0236
; #@! TA.AperFunction,Plated,PTH,ComponentDrill
T3C0.0374
; #@! TA.AperFunction,Plated,PTH,ComponentDrill
T4C0.0394
%
G90
G05
T1
X5.8071Y-2.3819
X5.8071Y-2.4803
X5.9085Y-3.6998
X5.9398Y-3.7516
X5.9449Y-2.7504
X5.9551Y-3.6146
X5.9795Y-3.0236
X6.0079Y-2.3878
X6.0213Y-2.6146
X6.0407Y-3.8651
X6.0748Y-3.7346
X6.0758Y-3.6398
X6.0872Y-2.6813
X6.111Y-3.6114
X6.1256Y-3.198
X6.2402Y-2.7205
X6.2531Y-3.6744
X6.2698Y-2.7935
X6.2728Y-2.8169
X6.2878Y-2.4323
X6.2878Y-3.6906
X6.3019Y-3.1783
X6.3122Y-2.7846
X6.3122Y-2.8906
X6.3161Y-2.8138
X6.3185Y-2.6126
X6.3431Y-3.0543
X6.3434Y-3.0281
X6.3455Y-2.9537
X6.357Y-3.0734
X6.3776Y-3.085
X6.3869Y-3.4689
X6.3909Y-3.4457
X6.4007Y-3.4886
X6.4016Y-2.7634
X6.4016Y-2.9102
X6.4024Y-2.848
X6.4037Y-3.1252
X6.4098Y-3.4209
X6.4142Y-3.5083
X6.4144Y-3.935
X6.4169Y-3.1055
X6.4193Y-3.198
X6.4203Y-3.6388
X6.4219Y-3.1746
X6.4299Y-3.3307
X6.4587Y-2.6421
X6.4624Y-3.426
X6.4764Y-3.9744
X6.4815Y-3.678
X6.4821Y-3.2002
X6.4854Y-2.8276
X6.4892Y-3.8932
X6.4961Y-2.685
X6.5248Y-2.8452
X6.5268Y-2.8217
X6.5472Y-3.7528
X6.55Y-3.3382
X6.5611Y-3.426
X6.5626Y-2.8255
X6.5642Y-2.9016
X6.5805Y-3.5508
X6.5842Y-3.4209
X6.5925Y-3.5724
X6.6073Y-3.4258
X6.627Y-3.8888
X6.6386Y-3.5528
X6.6476Y-3.5177
X6.6587Y-2.637
X6.6614Y-2.4744
X6.6669Y-3.3122
X6.69Y-3.6929
X6.7047Y-3.4537
X6.7057Y-3.7667
X6.7247Y-3.0067
X6.7272Y-2.7071
X6.7299Y-3.1268
X6.7343Y-3.574
X6.7461Y-3.0917
X6.7862Y-2.828
X6.7945Y-2.8825
X6.7945Y-3.2663
X6.8612Y-3.5531
X6.878Y-2.9724
X6.9661Y-3.7047
X7.0778Y-3.8396
X7.0846Y-3.56
X7.1705Y-2.8098
X7.2827Y-3.3722
X7.2984Y-3.3917
X7.3012Y-3.7215
X7.3067Y-3.4522
X7.3142Y-3.4101
X7.3253Y-3.4325
T3
X7.1563Y-2.4476
X7.2547Y-2.4476
X7.3531Y-2.4476
T4
X5.574Y-2.4362
X5.574Y-2.5362
X5.574Y-2.6362
X5.574Y-2.7362
X5.574Y-2.8362
X5.574Y-2.9362
X5.574Y-3.0362
X5.574Y-3.1362
X5.574Y-3.2362
X5.574Y-3.3362
X5.574Y-3.4362
X5.574Y-3.5362
X5.574Y-3.6362
X5.574Y-3.7362
X5.574Y-3.8362
X5.574Y-3.9362
X5.7185Y-3.9646
X5.8169Y-3.9646
X5.9055Y-3.9646
X6.0039Y-3.9646
X7.5421Y-2.4362
X7.5421Y-2.5362
X7.5421Y-2.6362
X7.5421Y-2.7362
X7.5421Y-2.8362
X7.5421Y-2.9362
X7.5421Y-3.0362
X7.5421Y-3.1362
X7.5421Y-3.2362
X7.5421Y-3.3362
X7.5421Y-3.4362
X7.5421Y-3.5362
X7.5421Y-3.6362
X7.5421Y-3.7362
X7.5421Y-3.8362
X7.5421Y-3.9362
T2
G00X6.3949Y-2.4144
M15
G01X6.3949Y-2.3829
M16
G05
G00X6.3949Y-2.5856
M15
G01X6.3949Y-2.5423
M16
G05
G00X6.735Y-2.4144
M15
G01X6.735Y-2.3829
M16
G05
G00X6.735Y-2.5856
M15
G01X6.735Y-2.5423
M16
G05
M30
