%TF.GenerationSoftware,KiCad,Pcbnew,8.99.0-2608-ga0707285a1*%
%TF.CreationDate,2024-10-09T18:54:20+07:00*%
%TF.ProjectId,dev_Board_8khz,6465765f-426f-4617-9264-5f386b687a2e,rev?*%
%TF.SameCoordinates,Original*%
%TF.FileFunction,Copper,L2,Bot*%
%TF.FilePolarity,Positive*%
%FSLAX46Y46*%
G04 Gerber Fmt 4.6, Leading zero omitted, Abs format (unit mm)*
G04 Created by KiCad (PCBNEW 8.99.0-2608-ga0707285a1) date 2024-10-09 18:54:20*
%MOMM*%
%LPD*%
G01*
G04 APERTURE LIST*
G04 Aperture macros list*
%AMRoundRect*
0 Rectangle with rounded corners*
0 $1 Rounding radius*
0 $2 $3 $4 $5 $6 $7 $8 $9 X,Y pos of 4 corners*
0 Add a 4 corners polygon primitive as box body*
4,1,4,$2,$3,$4,$5,$6,$7,$8,$9,$2,$3,0*
0 Add four circle primitives for the rounded corners*
1,1,$1+$1,$2,$3*
1,1,$1+$1,$4,$5*
1,1,$1+$1,$6,$7*
1,1,$1+$1,$8,$9*
0 Add four rect primitives between the rounded corners*
20,1,$1+$1,$2,$3,$4,$5,0*
20,1,$1+$1,$4,$5,$6,$7,0*
20,1,$1+$1,$6,$7,$8,$9,0*
20,1,$1+$1,$8,$9,$2,$3,0*%
G04 Aperture macros list end*
%TA.AperFunction,ComponentPad*%
%ADD10O,1.000000X2.100000*%
%TD*%
%TA.AperFunction,ComponentPad*%
%ADD11O,1.000000X1.800000*%
%TD*%
%TA.AperFunction,ComponentPad*%
%ADD12RoundRect,0.250000X-0.600000X-0.725000X0.600000X-0.725000X0.600000X0.725000X-0.600000X0.725000X0*%
%TD*%
%TA.AperFunction,ComponentPad*%
%ADD13O,1.700000X1.950000*%
%TD*%
%TA.AperFunction,ComponentPad*%
%ADD14RoundRect,0.250000X-0.600000X-0.750000X0.600000X-0.750000X0.600000X0.750000X-0.600000X0.750000X0*%
%TD*%
%TA.AperFunction,ComponentPad*%
%ADD15O,1.700000X2.000000*%
%TD*%
%TA.AperFunction,ComponentPad*%
%ADD16R,1.700000X1.700000*%
%TD*%
%TA.AperFunction,ComponentPad*%
%ADD17O,1.700000X1.700000*%
%TD*%
%TA.AperFunction,ViaPad*%
%ADD18C,0.400000*%
%TD*%
%TA.AperFunction,ViaPad*%
%ADD19C,0.600000*%
%TD*%
%TA.AperFunction,Conductor*%
%ADD20C,0.200000*%
%TD*%
%TA.AperFunction,Conductor*%
%ADD21C,0.500000*%
%TD*%
G04 APERTURE END LIST*
D10*
%TO.P,Jd1,S1,SHIELD*%
%TO.N,GND*%
X171070000Y-65125000D03*
D11*
X171070000Y-60925000D03*
D10*
X162430000Y-65125000D03*
D11*
X162430000Y-60925000D03*
%TD*%
D12*
%TO.P,J1,1,Pin_1*%
%TO.N,+5V*%
X181770000Y-62170000D03*
D13*
%TO.P,J1,2,Pin_2*%
%TO.N,GND*%
X184270000Y-62170000D03*
%TO.P,J1,3,Pin_3*%
%TO.N,C5*%
X186770000Y-62170000D03*
%TD*%
D14*
%TO.P,RST,1,1*%
%TO.N,GND*%
X150000000Y-100700000D03*
D15*
%TO.P,RST,2,2*%
%TO.N,RST*%
X152500000Y-100700000D03*
%TD*%
D14*
%TO.P,BOOT0,1,1*%
%TO.N,+3.3V*%
X145250000Y-100700000D03*
D15*
%TO.P,BOOT0,2,2*%
%TO.N,BOOT*%
X147750000Y-100700000D03*
%TD*%
D16*
%TO.P,J2,1,Pin_1*%
%TO.N,C4*%
X191570000Y-61880000D03*
D17*
%TO.P,J2,2,Pin_2*%
%TO.N,A7*%
X191570000Y-64420000D03*
%TO.P,J2,3,Pin_3*%
%TO.N,A6*%
X191570000Y-66960000D03*
%TO.P,J2,4,Pin_4*%
%TO.N,A4*%
X191570000Y-69500000D03*
%TO.P,J2,5,Pin_5*%
%TO.N,A2*%
X191570000Y-72040000D03*
%TO.P,J2,6,Pin_6*%
%TO.N,A1*%
X191570000Y-74580000D03*
%TO.P,J2,7,Pin_7*%
%TO.N,A0*%
X191570000Y-77120000D03*
%TO.P,J2,8,Pin_8*%
%TO.N,C1*%
X191570000Y-79660000D03*
%TO.P,J2,9,Pin_9*%
%TO.N,C13*%
X191570000Y-82200000D03*
%TO.P,J2,10,Pin_10*%
%TO.N,B9*%
X191570000Y-84740000D03*
%TO.P,J2,11,Pin_11*%
%TO.N,B8*%
X191570000Y-87280000D03*
%TO.P,J2,12,Pin_12*%
%TO.N,B7*%
X191570000Y-89820000D03*
%TO.P,J2,13,Pin_13*%
%TO.N,B6*%
X191570000Y-92360000D03*
%TO.P,J2,14,Pin_14*%
%TO.N,B4*%
X191570000Y-94900000D03*
%TO.P,J2,15,Pin_15*%
%TO.N,B3*%
X191570000Y-97440000D03*
%TO.P,J2,16,Pin_16*%
%TO.N,D2*%
X191570000Y-99980000D03*
%TD*%
D16*
%TO.P,J3,1,Pin_1*%
%TO.N,B2*%
X141580000Y-61880000D03*
D17*
%TO.P,J3,2,Pin_2*%
%TO.N,B14*%
X141580000Y-64420000D03*
%TO.P,J3,3,Pin_3*%
%TO.N,B15*%
X141580000Y-66960000D03*
%TO.P,J3,4,Pin_4*%
%TO.N,C6*%
X141580000Y-69500000D03*
%TO.P,J3,5,Pin_5*%
%TO.N,C7*%
X141580000Y-72040000D03*
%TO.P,J3,6,Pin_6*%
%TO.N,C8*%
X141580000Y-74580000D03*
%TO.P,J3,7,Pin_7*%
%TO.N,C9*%
X141580000Y-77120000D03*
%TO.P,J3,8,Pin_8*%
%TO.N,A8*%
X141580000Y-79660000D03*
%TO.P,J3,9,Pin_9*%
%TO.N,A9*%
X141580000Y-82200000D03*
%TO.P,J3,10,Pin_10*%
%TO.N,A10*%
X141580000Y-84740000D03*
%TO.P,J3,11,Pin_11*%
%TO.N,SWD*%
X141580000Y-87280000D03*
%TO.P,J3,12,Pin_12*%
%TO.N,SWC*%
X141580000Y-89820000D03*
%TO.P,J3,13,Pin_13*%
%TO.N,A15*%
X141580000Y-92360000D03*
%TO.P,J3,14,Pin_14*%
%TO.N,C10*%
X141580000Y-94900000D03*
%TO.P,J3,15,Pin_15*%
%TO.N,C11*%
X141580000Y-97440000D03*
%TO.P,J3,16,Pin_16*%
%TO.N,C12*%
X141580000Y-99980000D03*
%TD*%
D18*
%TO.N,RST*%
X162925000Y-99950000D03*
X163075000Y-92425000D03*
%TO.N,GND*%
X179950000Y-90425000D03*
X174700000Y-75500000D03*
X169925000Y-93800000D03*
X179775000Y-97525000D03*
X174275000Y-90250000D03*
X170300000Y-87725000D03*
D19*
X147500000Y-63000000D03*
D18*
X164500000Y-100950000D03*
X154325000Y-92450000D03*
X161175000Y-75025000D03*
X176940000Y-94100000D03*
X158500000Y-69100000D03*
D19*
X147500000Y-60500000D03*
D18*
X185450000Y-94525000D03*
X150075000Y-93975000D03*
%TO.N,stp*%
X161468324Y-78063593D03*
X162227675Y-88111213D03*
%TO.N,clk*%
X161990000Y-78360000D03*
X162330000Y-87520000D03*
%TO.N,nxt*%
X162921566Y-89111213D03*
X168620000Y-90240000D03*
X167145527Y-90191276D03*
X161121924Y-76912617D03*
%TO.N,+3.3V*%
X152940000Y-66410000D03*
X151000000Y-69860000D03*
X165730000Y-72267914D03*
X150870000Y-95290000D03*
X162654839Y-79380000D03*
X170325000Y-95675000D03*
X170940000Y-79420000D03*
X151260000Y-91810000D03*
X162600000Y-70190000D03*
X169340000Y-84130000D03*
X162600000Y-73920000D03*
X154300000Y-94860000D03*
X154614620Y-68104620D03*
X166300000Y-95320000D03*
X160490000Y-66360000D03*
X162810000Y-86890000D03*
X170807208Y-76370000D03*
X151880000Y-76800000D03*
X152600000Y-60650000D03*
X162620000Y-72340000D03*
X182130000Y-71370000D03*
%TO.N,BOOT*%
X164825001Y-98886574D03*
X153433606Y-98174392D03*
X168325000Y-98775000D03*
%TO.N,Net-(U1-PA11)*%
X172370000Y-71830000D03*
X159253701Y-70954869D03*
X158830000Y-93330104D03*
X160330000Y-70730000D03*
%TO.N,B2*%
X159710000Y-61780000D03*
X163117494Y-80633806D03*
X164144731Y-87020000D03*
X160068324Y-80730000D03*
%TO.N,C4*%
X166652861Y-87020000D03*
X185380000Y-86148281D03*
%TO.N,Net-(U1-PA12)*%
X159710000Y-93740000D03*
X166690000Y-71767914D03*
X160430000Y-71470000D03*
X159330000Y-71550000D03*
%TO.N,C5*%
X184980000Y-85653812D03*
X166370000Y-84790000D03*
%TO.N,Net-(U1-VCAP_1)*%
X155590000Y-81230000D03*
X163050000Y-81230000D03*
X163320000Y-84600000D03*
X155220000Y-91730000D03*
%TO.N,dir*%
X162576738Y-88611213D03*
X161115960Y-77577957D03*
X167450000Y-90740000D03*
X171050000Y-90780000D03*
%TO.N,A6*%
X167825000Y-87016446D03*
X186062165Y-87185000D03*
%TO.N,A7*%
X167238541Y-86889685D03*
X185780000Y-86615974D03*
%TO.N,A4*%
X185590000Y-87685000D03*
X168850000Y-89350000D03*
%TO.N,data7*%
X164644731Y-81284731D03*
X164630000Y-93420000D03*
%TO.N,Net-(C10-Pad2)*%
X162990000Y-78880000D03*
X171350000Y-78530000D03*
%TO.N,HS_D-*%
X164730000Y-71820000D03*
X165780000Y-71670000D03*
%TO.N,Net-(U2-RBIAS)*%
X172580000Y-82965000D03*
X172580000Y-73215000D03*
%TO.N,Net-(U2-VBUS)*%
X166730000Y-73700000D03*
X160330000Y-73420000D03*
%TO.N,+5V*%
X169130000Y-66980000D03*
X169200000Y-62850000D03*
X164050000Y-67110000D03*
%TO.N,D+*%
X165000000Y-68200000D03*
X170870000Y-68760000D03*
%TD*%
D20*
%TO.N,RST*%
X163075000Y-92425000D02*
X163075000Y-99800000D01*
X163075000Y-99800000D02*
X162925000Y-99950000D01*
%TO.N,GND*%
X174275000Y-90250000D02*
X174450000Y-90425000D01*
X174450000Y-90425000D02*
X179950000Y-90425000D01*
%TO.N,stp*%
X162214106Y-88111213D02*
X162227675Y-88111213D01*
X161468324Y-87365431D02*
X162214106Y-88111213D01*
X161468324Y-78063593D02*
X161468324Y-87365431D01*
%TO.N,clk*%
X161990000Y-78360000D02*
X161990000Y-87180000D01*
X161990000Y-87180000D02*
X162330000Y-87520000D01*
%TO.N,nxt*%
X162921566Y-89111213D02*
X161954883Y-89111213D01*
X167194251Y-90240000D02*
X167145527Y-90191276D01*
X160568324Y-77418486D02*
X161074193Y-76912617D01*
X160568324Y-87724654D02*
X160568324Y-87393283D01*
X160568324Y-87393283D02*
X160568324Y-77418486D01*
X161954883Y-89111213D02*
X160568324Y-87724654D01*
X168620000Y-90240000D02*
X167194251Y-90240000D01*
X161074193Y-76912617D02*
X161121924Y-76912617D01*
D21*
%TO.N,+3.3V*%
X151880000Y-90700000D02*
X151880000Y-94280000D01*
D20*
X152940000Y-60990000D02*
X152940000Y-66410000D01*
X154300000Y-94860000D02*
X152460000Y-94860000D01*
D21*
X151880000Y-76800000D02*
X151880000Y-90700000D01*
D20*
X171157107Y-79430000D02*
X170950000Y-79430000D01*
X162490000Y-79215161D02*
X162490000Y-76000000D01*
X172080000Y-78507107D02*
X171157107Y-79430000D01*
X151805380Y-68104620D02*
X151000000Y-68910000D01*
X165657914Y-72340000D02*
X165730000Y-72267914D01*
D21*
X151880000Y-90700000D02*
X151880000Y-91190000D01*
D20*
X172080000Y-75097208D02*
X170807208Y-76370000D01*
X162620000Y-72340000D02*
X165657914Y-72340000D01*
X162490000Y-86570000D02*
X162810000Y-86890000D01*
X169340000Y-81020000D02*
X170940000Y-79420000D01*
X169970000Y-95320000D02*
X170325000Y-95675000D01*
X171667914Y-72267914D02*
X171910000Y-72510000D01*
X151000000Y-68910000D02*
X151000000Y-69860000D01*
D21*
X180940000Y-70180000D02*
X182130000Y-71370000D01*
D20*
X166300000Y-95320000D02*
X169970000Y-95320000D01*
X152460000Y-94860000D02*
X151880000Y-94280000D01*
D21*
X151880000Y-91190000D02*
X151260000Y-91810000D01*
D20*
X162490000Y-76000000D02*
X162490000Y-86570000D01*
D21*
X161190000Y-70180000D02*
X162900000Y-70180000D01*
D20*
X162490000Y-76000000D02*
X162490000Y-74030000D01*
D21*
X151880000Y-94280000D02*
X150870000Y-95290000D01*
X160490000Y-66360000D02*
X160490000Y-69480000D01*
D20*
X170950000Y-79430000D02*
X170940000Y-79420000D01*
X169340000Y-84130000D02*
X169340000Y-81020000D01*
X154614620Y-68104620D02*
X151805380Y-68104620D01*
X162654839Y-79380000D02*
X162490000Y-79215161D01*
X162550000Y-79484839D02*
X162654839Y-79380000D01*
X162490000Y-74030000D02*
X162600000Y-73920000D01*
X152600000Y-60650000D02*
X152940000Y-60990000D01*
X172080000Y-74380000D02*
X172080000Y-78507107D01*
X172080000Y-74380000D02*
X172080000Y-75097208D01*
D21*
X162900000Y-70180000D02*
X180940000Y-70180000D01*
X160490000Y-69480000D02*
X161190000Y-70180000D01*
D20*
X171910000Y-72510000D02*
X172080000Y-72680000D01*
X172080000Y-72680000D02*
X172080000Y-74380000D01*
X165730000Y-72267914D02*
X171667914Y-72267914D01*
%TO.N,BOOT*%
X164825001Y-98886574D02*
X168213426Y-98886574D01*
X147750000Y-100700000D02*
X150275608Y-98174392D01*
X168213426Y-98886574D02*
X168325000Y-98775000D01*
X150275608Y-98174392D02*
X153433606Y-98174392D01*
%TO.N,Net-(U1-PA11)*%
X158930000Y-93320000D02*
X158930000Y-92010000D01*
X167497107Y-71867914D02*
X169510000Y-71867914D01*
X158830000Y-71840000D02*
X158830000Y-71342893D01*
X159218024Y-70954869D02*
X159253701Y-70954869D01*
X160330000Y-70730000D02*
X166359193Y-70730000D01*
X158930000Y-92010000D02*
X158930000Y-71940000D01*
X158930000Y-71940000D02*
X158870000Y-71880000D01*
X158830000Y-93330104D02*
X158919896Y-93330104D01*
X172332086Y-71867914D02*
X172370000Y-71830000D01*
X158870000Y-71880000D02*
X158830000Y-71840000D01*
X158830000Y-71342893D02*
X159218024Y-70954869D01*
X158919896Y-93330104D02*
X158930000Y-93320000D01*
X169510000Y-71867914D02*
X172332086Y-71867914D01*
X166359193Y-70730000D02*
X167497107Y-71867914D01*
%TO.N,B2*%
X164144731Y-87020000D02*
X164144731Y-81617624D01*
X164144731Y-81617624D02*
X163160913Y-80633806D01*
X160068324Y-80730000D02*
X159830000Y-80491676D01*
X159830000Y-61900000D02*
X159710000Y-61780000D01*
X163160913Y-80633806D02*
X163117494Y-80633806D01*
X159830000Y-80491676D02*
X159830000Y-61900000D01*
%TO.N,C4*%
X166652861Y-87020000D02*
X166652861Y-88715767D01*
X165845527Y-89523101D02*
X165845527Y-90976898D01*
X165845527Y-90976898D02*
X166724314Y-91855684D01*
X186962165Y-86812207D02*
X186265932Y-86115974D01*
X166724314Y-91855684D02*
X166958628Y-92089999D01*
X185412307Y-86115974D02*
X185380000Y-86148281D01*
X166958629Y-92090000D02*
X183210000Y-92090000D01*
X166189314Y-89179314D02*
X165845527Y-89523101D01*
X166958628Y-92089999D02*
X166958629Y-92090000D01*
X186265932Y-86115974D02*
X185412307Y-86115974D01*
X186962165Y-88337835D02*
X186962165Y-86812207D01*
X166652861Y-88715767D02*
X166189314Y-89179314D01*
X183210000Y-92090000D02*
X185460000Y-89840000D01*
X185460000Y-89840000D02*
X186962165Y-88337835D01*
%TO.N,Net-(U1-PA12)*%
X166092086Y-71170000D02*
X160730000Y-71170000D01*
X159330000Y-93360000D02*
X159710000Y-93740000D01*
X159330000Y-71550000D02*
X159330000Y-93360000D01*
X160730000Y-71170000D02*
X160430000Y-71470000D01*
X166690000Y-71767914D02*
X166092086Y-71170000D01*
%TO.N,C5*%
X166152861Y-85007139D02*
X166152861Y-88650081D01*
X183375686Y-92490000D02*
X187362165Y-88503521D01*
X187362165Y-86646521D02*
X186363925Y-85648281D01*
X167124313Y-92490000D02*
X183375686Y-92490000D01*
X165445527Y-89357415D02*
X165445527Y-91142584D01*
X166076471Y-88726471D02*
X165445527Y-89357415D01*
X166152861Y-88650081D02*
X166076471Y-88726471D01*
X186363925Y-85648281D02*
X184985531Y-85648281D01*
X187362165Y-88503521D02*
X187362165Y-86646521D01*
X166370000Y-84790000D02*
X166152861Y-85007139D01*
X184985531Y-85648281D02*
X184980000Y-85653812D01*
X166792943Y-92490000D02*
X167124313Y-92490000D01*
X165445527Y-91142584D02*
X166792943Y-92490000D01*
%TO.N,Net-(U1-VCAP_1)*%
X155220000Y-91730000D02*
X155220000Y-81600000D01*
X163320000Y-84600000D02*
X163320000Y-81500000D01*
X155220000Y-81600000D02*
X155590000Y-81230000D01*
X163320000Y-81500000D02*
X163050000Y-81230000D01*
%TO.N,dir*%
X167450000Y-90740000D02*
X171010000Y-90740000D01*
X171010000Y-90740000D02*
X171050000Y-90780000D01*
X160968324Y-77725593D02*
X160968324Y-87558969D01*
X160968324Y-87558969D02*
X162020568Y-88611213D01*
X161115960Y-77577957D02*
X160968324Y-77725593D01*
X162020568Y-88611213D02*
X162576738Y-88611213D01*
%TO.N,A6*%
X182850000Y-91290000D02*
X186060000Y-88080000D01*
X186060000Y-88080000D02*
X186090000Y-88050000D01*
X186090000Y-87212835D02*
X186062165Y-87185000D01*
X166645527Y-90645527D02*
X167290000Y-91290000D01*
X166645527Y-89854473D02*
X166645527Y-90645527D01*
X166730000Y-89770000D02*
X166645527Y-89854473D01*
X167290000Y-91290000D02*
X182850000Y-91290000D01*
X186090000Y-88050000D02*
X186090000Y-87212835D01*
X167825000Y-88675000D02*
X166730000Y-89770000D01*
X167825000Y-87016446D02*
X167825000Y-88675000D01*
%TO.N,A7*%
X186562165Y-86977893D02*
X186200246Y-86615974D01*
X167124314Y-91690000D02*
X183015685Y-91690000D01*
X184362843Y-90342843D02*
X186562165Y-88143521D01*
X166874315Y-91440000D02*
X167124314Y-91690000D01*
X166817157Y-89117157D02*
X166245527Y-89688787D01*
X166245527Y-89688787D02*
X166245527Y-90811213D01*
X167238541Y-86889685D02*
X167238541Y-88695773D01*
X167238541Y-88695773D02*
X166817157Y-89117157D01*
X186562165Y-88143521D02*
X186562165Y-86977893D01*
X186200246Y-86615974D02*
X185780000Y-86615974D01*
X166245527Y-90811213D02*
X166874315Y-91440000D01*
X183015685Y-91690000D02*
X184362843Y-90342843D01*
%TO.N,A4*%
X168850000Y-89350000D02*
X183925000Y-89350000D01*
X183925000Y-89350000D02*
X185590000Y-87685000D01*
%TO.N,data7*%
X164644731Y-81284731D02*
X164644731Y-93405269D01*
X164644731Y-93405269D02*
X164630000Y-93420000D01*
%TO.N,Net-(C10-Pad2)*%
X163340000Y-78530000D02*
X162990000Y-78880000D01*
X171350000Y-78530000D02*
X163340000Y-78530000D01*
%TO.N,HS_D-*%
X164880000Y-71670000D02*
X164730000Y-71820000D01*
X165780000Y-71670000D02*
X164880000Y-71670000D01*
%TO.N,Net-(U2-RBIAS)*%
X172680000Y-79840000D02*
X172680000Y-73315000D01*
X172680000Y-73315000D02*
X172580000Y-73215000D01*
X172580000Y-82870000D02*
X172680000Y-82770000D01*
X172680000Y-82770000D02*
X172680000Y-79840000D01*
X172580000Y-82965000D02*
X172580000Y-82870000D01*
%TO.N,Net-(U2-VBUS)*%
X160330000Y-73420000D02*
X166450000Y-73420000D01*
X166450000Y-73420000D02*
X166730000Y-73700000D01*
D21*
%TO.N,+5V*%
X169140000Y-65550000D02*
X169130000Y-65560000D01*
X169200000Y-62850000D02*
X168815000Y-63235000D01*
X164060000Y-67100000D02*
X164050000Y-67110000D01*
X169140000Y-65300000D02*
X169140000Y-65550000D01*
X169010000Y-67100000D02*
X164060000Y-67100000D01*
X169130000Y-66980000D02*
X169010000Y-67100000D01*
X168815000Y-64975000D02*
X169140000Y-65300000D01*
X169130000Y-65560000D02*
X169130000Y-66980000D01*
X168815000Y-63235000D02*
X168815000Y-64975000D01*
D20*
%TO.N,D+*%
X170870000Y-68760000D02*
X165560000Y-68760000D01*
X165560000Y-68760000D02*
X165000000Y-68200000D01*
%TD*%
%TA.AperFunction,Conductor*%
%TO.N,GND*%
G36*
X183107942Y-89970185D02*
G01*
X183153697Y-90022989D01*
X183163641Y-90092147D01*
X183134616Y-90155703D01*
X183128584Y-90162181D01*
X182637584Y-90653181D01*
X182576261Y-90686666D01*
X182549903Y-90689500D01*
X171850454Y-90689500D01*
X171783415Y-90669815D01*
X171737660Y-90617011D01*
X171734512Y-90609471D01*
X171710785Y-90546910D01*
X171674818Y-90452070D01*
X171578183Y-90312071D01*
X171450852Y-90199266D01*
X171422328Y-90184295D01*
X171372118Y-90135712D01*
X171356143Y-90067693D01*
X171379478Y-90001835D01*
X171434714Y-89959048D01*
X171479956Y-89950500D01*
X183040903Y-89950500D01*
X183107942Y-89970185D01*
G37*
%TD.AperFunction*%
%TA.AperFunction,Conductor*%
G36*
X161832539Y-74040185D02*
G01*
X161878294Y-74092989D01*
X161889500Y-74144500D01*
X161889500Y-76393578D01*
X161869815Y-76460617D01*
X161817011Y-76506372D01*
X161747853Y-76516316D01*
X161684297Y-76487291D01*
X161663451Y-76464020D01*
X161661102Y-76460617D01*
X161650107Y-76444688D01*
X161522776Y-76331883D01*
X161522773Y-76331880D01*
X161372150Y-76252827D01*
X161206980Y-76212117D01*
X161036868Y-76212117D01*
X160871697Y-76252827D01*
X160721074Y-76331881D01*
X160721072Y-76331883D01*
X160651433Y-76393578D01*
X160636727Y-76406606D01*
X160573494Y-76436327D01*
X160504230Y-76427143D01*
X160450927Y-76381971D01*
X160430507Y-76315152D01*
X160430500Y-76313790D01*
X160430500Y-74213841D01*
X160450185Y-74146802D01*
X160502989Y-74101047D01*
X160507491Y-74099097D01*
X160515946Y-74095632D01*
X160580225Y-74079790D01*
X160671323Y-74031977D01*
X160676745Y-74029756D01*
X160693058Y-74028065D01*
X160723754Y-74020500D01*
X161765500Y-74020500D01*
X161832539Y-74040185D01*
G37*
%TD.AperFunction*%
%TA.AperFunction,Conductor*%
G36*
X152027923Y-60020185D02*
G01*
X152073678Y-60072989D01*
X152083622Y-60142147D01*
X152062934Y-60194940D01*
X151975182Y-60322068D01*
X151914860Y-60481125D01*
X151914859Y-60481130D01*
X151894355Y-60650000D01*
X151914859Y-60818869D01*
X151914860Y-60818874D01*
X151975182Y-60977931D01*
X152000698Y-61014896D01*
X152071817Y-61117929D01*
X152199148Y-61230734D01*
X152273128Y-61269562D01*
X152323338Y-61318145D01*
X152339500Y-61379357D01*
X152339500Y-66008199D01*
X152319815Y-66075238D01*
X152317551Y-66078638D01*
X152315182Y-66082069D01*
X152254860Y-66241125D01*
X152254859Y-66241130D01*
X152234355Y-66410000D01*
X152254859Y-66578869D01*
X152254860Y-66578874D01*
X152315182Y-66737931D01*
X152364209Y-66808957D01*
X152411817Y-66877929D01*
X152517505Y-66971560D01*
X152539150Y-66990736D01*
X152659539Y-67053921D01*
X152689775Y-67069790D01*
X152854944Y-67110500D01*
X153025056Y-67110500D01*
X153190225Y-67069790D01*
X153269692Y-67028081D01*
X153340849Y-66990736D01*
X153340850Y-66990734D01*
X153340852Y-66990734D01*
X153468183Y-66877929D01*
X153564818Y-66737930D01*
X153625140Y-66578872D01*
X153645645Y-66410000D01*
X153625140Y-66241128D01*
X153564818Y-66082070D01*
X153562448Y-66078637D01*
X153561489Y-66075727D01*
X153561331Y-66075426D01*
X153561381Y-66075399D01*
X153540567Y-66012283D01*
X153540500Y-66008199D01*
X153540500Y-61079060D01*
X153540501Y-61079047D01*
X153540501Y-60910944D01*
X153534876Y-60889951D01*
X153499577Y-60758216D01*
X153468853Y-60705000D01*
X153420524Y-60621290D01*
X153420518Y-60621282D01*
X153306880Y-60507644D01*
X153278619Y-60463934D01*
X153275993Y-60457011D01*
X153224818Y-60322070D01*
X153218477Y-60312884D01*
X153137066Y-60194940D01*
X153115183Y-60128586D01*
X153132648Y-60060934D01*
X153183916Y-60013464D01*
X153239116Y-60000500D01*
X189934108Y-60000500D01*
X189996949Y-60000500D01*
X190003032Y-60000648D01*
X190336929Y-60017052D01*
X190349037Y-60018245D01*
X190362116Y-60020185D01*
X190676699Y-60066849D01*
X190688617Y-60069219D01*
X191009951Y-60149709D01*
X191021588Y-60153240D01*
X191132438Y-60192902D01*
X191333467Y-60264832D01*
X191344698Y-60269484D01*
X191362353Y-60277834D01*
X191395276Y-60293406D01*
X191447462Y-60339864D01*
X191466247Y-60407162D01*
X191445666Y-60473931D01*
X191392253Y-60518974D01*
X191342258Y-60529500D01*
X190672129Y-60529500D01*
X190672123Y-60529501D01*
X190612516Y-60535908D01*
X190477671Y-60586202D01*
X190477664Y-60586206D01*
X190362455Y-60672452D01*
X190362452Y-60672455D01*
X190276206Y-60787664D01*
X190276202Y-60787671D01*
X190225908Y-60922517D01*
X190220122Y-60976342D01*
X190219501Y-60982123D01*
X190219500Y-60982135D01*
X190219500Y-62777870D01*
X190219501Y-62777876D01*
X190225908Y-62837483D01*
X190276202Y-62972328D01*
X190276206Y-62972335D01*
X190362452Y-63087544D01*
X190362455Y-63087547D01*
X190477664Y-63173793D01*
X190477671Y-63173797D01*
X190609081Y-63222810D01*
X190665015Y-63264681D01*
X190689432Y-63330145D01*
X190674580Y-63398418D01*
X190653430Y-63426673D01*
X190531503Y-63548600D01*
X190395965Y-63742169D01*
X190395964Y-63742171D01*
X190296098Y-63956335D01*
X190296094Y-63956344D01*
X190234938Y-64184586D01*
X190234936Y-64184596D01*
X190214341Y-64419999D01*
X190214341Y-64420000D01*
X190234936Y-64655403D01*
X190234938Y-64655413D01*
X190296094Y-64883655D01*
X190296096Y-64883659D01*
X190296097Y-64883663D01*
X190330932Y-64958367D01*
X190395965Y-65097830D01*
X190395967Y-65097834D01*
X190531501Y-65291395D01*
X190531506Y-65291402D01*
X190698597Y-65458493D01*
X190698603Y-65458498D01*
X190884158Y-65588425D01*
X190927783Y-65643002D01*
X190934977Y-65712500D01*
X190903454Y-65774855D01*
X190884158Y-65791575D01*
X190698597Y-65921505D01*
X190531505Y-66088597D01*
X190395965Y-66282169D01*
X190395964Y-66282171D01*
X190296098Y-66496335D01*
X190296094Y-66496344D01*
X190234938Y-66724586D01*
X190234936Y-66724596D01*
X190214341Y-66959999D01*
X190214341Y-66960000D01*
X190234936Y-67195403D01*
X190234938Y-67195413D01*
X190296094Y-67423655D01*
X190296096Y-67423659D01*
X190296097Y-67423663D01*
X190360015Y-67560735D01*
X190395965Y-67637830D01*
X190395967Y-67637834D01*
X190493196Y-67776690D01*
X190524681Y-67821656D01*
X190531501Y-67831395D01*
X190531506Y-67831402D01*
X190698597Y-67998493D01*
X190698603Y-67998498D01*
X190884158Y-68128425D01*
X190927783Y-68183002D01*
X190934977Y-68252500D01*
X190903454Y-68314855D01*
X190884158Y-68331575D01*
X190698597Y-68461505D01*
X190531505Y-68628597D01*
X190395965Y-68822169D01*
X190395964Y-68822171D01*
X190296098Y-69036335D01*
X190296094Y-69036344D01*
X190234938Y-69264586D01*
X190234936Y-69264596D01*
X190214341Y-69499999D01*
X190214341Y-69500000D01*
X190234936Y-69735403D01*
X190234938Y-69735413D01*
X190296094Y-69963655D01*
X190296096Y-69963659D01*
X190296097Y-69963663D01*
X190379360Y-70142221D01*
X190395965Y-70177830D01*
X190395967Y-70177834D01*
X190531501Y-70371395D01*
X190531506Y-70371402D01*
X190698597Y-70538493D01*
X190698603Y-70538498D01*
X190884158Y-70668425D01*
X190927783Y-70723002D01*
X190934977Y-70792500D01*
X190903454Y-70854855D01*
X190884158Y-70871575D01*
X190698597Y-71001505D01*
X190531505Y-71168597D01*
X190395965Y-71362169D01*
X190395964Y-71362171D01*
X190296098Y-71576335D01*
X190296094Y-71576344D01*
X190234938Y-71804586D01*
X190234936Y-71804596D01*
X190214341Y-72039999D01*
X190214341Y-72040000D01*
X190234936Y-72275403D01*
X190234938Y-72275413D01*
X190296094Y-72503655D01*
X190296096Y-72503659D01*
X190296097Y-72503663D01*
X190365048Y-72651529D01*
X190395965Y-72717830D01*
X190395967Y-72717834D01*
X190531501Y-72911395D01*
X190531506Y-72911402D01*
X190698597Y-73078493D01*
X190698603Y-73078498D01*
X190884158Y-73208425D01*
X190927783Y-73263002D01*
X190934977Y-73332500D01*
X190903454Y-73394855D01*
X190884158Y-73411575D01*
X190698597Y-73541505D01*
X190531505Y-73708597D01*
X190395965Y-73902169D01*
X190395964Y-73902171D01*
X190296098Y-74116335D01*
X190296094Y-74116344D01*
X190234938Y-74344586D01*
X190234936Y-74344596D01*
X190214341Y-74579999D01*
X190214341Y-74580000D01*
X190234936Y-74815403D01*
X190234938Y-74815413D01*
X190296094Y-75043655D01*
X190296096Y-75043659D01*
X190296097Y-75043663D01*
X190395965Y-75257830D01*
X190395967Y-75257834D01*
X190531501Y-75451395D01*
X190531506Y-75451402D01*
X190698597Y-75618493D01*
X190698603Y-75618498D01*
X190884158Y-75748425D01*
X190927783Y-75803002D01*
X190934977Y-75872500D01*
X190903454Y-75934855D01*
X190884158Y-75951575D01*
X190698597Y-76081505D01*
X190531505Y-76248597D01*
X190395965Y-76442169D01*
X190395964Y-76442171D01*
X190296098Y-76656335D01*
X190296094Y-76656344D01*
X190234938Y-76884586D01*
X190234936Y-76884596D01*
X190214341Y-77119999D01*
X190214341Y-77120000D01*
X190234936Y-77355403D01*
X190234938Y-77355413D01*
X190296094Y-77583655D01*
X190296096Y-77583659D01*
X190296097Y-77583663D01*
X190352911Y-77705500D01*
X190395965Y-77797830D01*
X190395967Y-77797834D01*
X190531501Y-77991395D01*
X190531506Y-77991402D01*
X190698597Y-78158493D01*
X190698603Y-78158498D01*
X190884158Y-78288425D01*
X190927783Y-78343002D01*
X190934977Y-78412500D01*
X190903454Y-78474855D01*
X190884158Y-78491575D01*
X190698597Y-78621505D01*
X190531505Y-78788597D01*
X190395965Y-78982169D01*
X190395964Y-78982171D01*
X190296098Y-79196335D01*
X190296094Y-79196344D01*
X190234938Y-79424586D01*
X190234936Y-79424596D01*
X190214341Y-79659999D01*
X190214341Y-79660000D01*
X190234936Y-79895403D01*
X190234938Y-79895413D01*
X190296094Y-80123655D01*
X190296096Y-80123659D01*
X190296097Y-80123663D01*
X190381064Y-80305875D01*
X190395965Y-80337830D01*
X190395967Y-80337834D01*
X190531501Y-80531395D01*
X190531506Y-80531402D01*
X190698597Y-80698493D01*
X190698603Y-80698498D01*
X190884158Y-80828425D01*
X190927783Y-80883002D01*
X190934977Y-80952500D01*
X190903454Y-81014855D01*
X190884158Y-81031575D01*
X190698597Y-81161505D01*
X190531505Y-81328597D01*
X190395965Y-81522169D01*
X190395964Y-81522171D01*
X190296098Y-81736335D01*
X190296094Y-81736344D01*
X190234938Y-81964586D01*
X190234936Y-81964596D01*
X190214341Y-82199999D01*
X190214341Y-82200000D01*
X190234936Y-82435403D01*
X190234938Y-82435413D01*
X190296094Y-82663655D01*
X190296096Y-82663659D01*
X190296097Y-82663663D01*
X190393246Y-82871999D01*
X190395965Y-82877830D01*
X190395967Y-82877834D01*
X190531501Y-83071395D01*
X190531506Y-83071402D01*
X190698597Y-83238493D01*
X190698603Y-83238498D01*
X190884158Y-83368425D01*
X190927783Y-83423002D01*
X190934977Y-83492500D01*
X190903454Y-83554855D01*
X190884158Y-83571575D01*
X190698597Y-83701505D01*
X190531505Y-83868597D01*
X190395965Y-84062169D01*
X190395964Y-84062171D01*
X190296098Y-84276335D01*
X190296094Y-84276344D01*
X190234938Y-84504586D01*
X190234936Y-84504596D01*
X190214341Y-84739999D01*
X190214341Y-84740000D01*
X190234936Y-84975403D01*
X190234938Y-84975413D01*
X190296094Y-85203655D01*
X190296096Y-85203659D01*
X190296097Y-85203663D01*
X190385621Y-85395647D01*
X190395965Y-85417830D01*
X190395967Y-85417834D01*
X190531501Y-85611395D01*
X190531506Y-85611402D01*
X190698597Y-85778493D01*
X190698603Y-85778498D01*
X190884158Y-85908425D01*
X190927783Y-85963002D01*
X190934977Y-86032500D01*
X190903454Y-86094855D01*
X190884158Y-86111575D01*
X190698597Y-86241505D01*
X190531505Y-86408597D01*
X190395965Y-86602169D01*
X190395964Y-86602171D01*
X190296098Y-86816335D01*
X190296094Y-86816344D01*
X190234938Y-87044586D01*
X190234936Y-87044596D01*
X190214341Y-87279999D01*
X190214341Y-87280000D01*
X190234936Y-87515403D01*
X190234938Y-87515413D01*
X190296094Y-87743655D01*
X190296096Y-87743659D01*
X190296097Y-87743663D01*
X190318086Y-87790818D01*
X190395965Y-87957830D01*
X190395967Y-87957834D01*
X190443352Y-88025506D01*
X190525821Y-88143284D01*
X190531501Y-88151395D01*
X190531506Y-88151402D01*
X190698597Y-88318493D01*
X190698603Y-88318498D01*
X190884158Y-88448425D01*
X190927783Y-88503002D01*
X190934977Y-88572500D01*
X190903454Y-88634855D01*
X190884158Y-88651575D01*
X190698597Y-88781505D01*
X190531505Y-88948597D01*
X190395965Y-89142169D01*
X190395964Y-89142171D01*
X190296098Y-89356335D01*
X190296094Y-89356344D01*
X190234938Y-89584586D01*
X190234936Y-89584596D01*
X190214341Y-89819999D01*
X190214341Y-89820000D01*
X190234936Y-90055403D01*
X190234938Y-90055413D01*
X190296094Y-90283655D01*
X190296096Y-90283659D01*
X190296097Y-90283663D01*
X190374626Y-90452068D01*
X190395965Y-90497830D01*
X190395967Y-90497834D01*
X190531501Y-90691395D01*
X190531506Y-90691402D01*
X190698597Y-90858493D01*
X190698603Y-90858498D01*
X190884158Y-90988425D01*
X190927783Y-91043002D01*
X190934977Y-91112500D01*
X190903454Y-91174855D01*
X190884158Y-91191575D01*
X190698597Y-91321505D01*
X190531505Y-91488597D01*
X190395965Y-91682169D01*
X190395964Y-91682171D01*
X190296098Y-91896335D01*
X190296094Y-91896344D01*
X190234938Y-92124586D01*
X190234936Y-92124596D01*
X190214341Y-92359999D01*
X190214341Y-92360000D01*
X190234936Y-92595403D01*
X190234938Y-92595413D01*
X190296094Y-92823655D01*
X190296096Y-92823659D01*
X190296097Y-92823663D01*
X190364577Y-92970519D01*
X190395965Y-93037830D01*
X190395967Y-93037834D01*
X190531501Y-93231395D01*
X190531506Y-93231402D01*
X190698597Y-93398493D01*
X190698603Y-93398498D01*
X190884158Y-93528425D01*
X190927783Y-93583002D01*
X190934977Y-93652500D01*
X190903454Y-93714855D01*
X190884158Y-93731575D01*
X190698597Y-93861505D01*
X190531505Y-94028597D01*
X190395965Y-94222169D01*
X190395964Y-94222171D01*
X190296098Y-94436335D01*
X190296094Y-94436344D01*
X190234938Y-94664586D01*
X190234936Y-94664596D01*
X190214341Y-94899999D01*
X190214341Y-94900000D01*
X190234936Y-95135403D01*
X190234938Y-95135413D01*
X190296094Y-95363655D01*
X190296096Y-95363659D01*
X190296097Y-95363663D01*
X190387884Y-95560500D01*
X190395965Y-95577830D01*
X190395967Y-95577834D01*
X190445050Y-95647931D01*
X190529418Y-95768421D01*
X190531501Y-95771395D01*
X190531506Y-95771402D01*
X190698597Y-95938493D01*
X190698603Y-95938498D01*
X190884158Y-96068425D01*
X190927783Y-96123002D01*
X190934977Y-96192500D01*
X190903454Y-96254855D01*
X190884158Y-96271575D01*
X190698597Y-96401505D01*
X190531505Y-96568597D01*
X190395965Y-96762169D01*
X190395964Y-96762171D01*
X190296098Y-96976335D01*
X190296094Y-96976344D01*
X190234938Y-97204586D01*
X190234936Y-97204596D01*
X190214341Y-97439999D01*
X190214341Y-97440000D01*
X190234936Y-97675403D01*
X190234938Y-97675413D01*
X190296094Y-97903655D01*
X190296096Y-97903659D01*
X190296097Y-97903663D01*
X190343594Y-98005520D01*
X190395965Y-98117830D01*
X190395967Y-98117834D01*
X190531501Y-98311395D01*
X190531506Y-98311402D01*
X190698597Y-98478493D01*
X190698603Y-98478498D01*
X190884158Y-98608425D01*
X190927783Y-98663002D01*
X190934977Y-98732500D01*
X190903454Y-98794855D01*
X190884158Y-98811575D01*
X190698597Y-98941505D01*
X190531505Y-99108597D01*
X190395965Y-99302169D01*
X190395964Y-99302171D01*
X190296098Y-99516335D01*
X190296094Y-99516344D01*
X190234938Y-99744586D01*
X190234936Y-99744596D01*
X190214341Y-99979999D01*
X190214341Y-99980000D01*
X190234936Y-100215403D01*
X190234938Y-100215413D01*
X190296094Y-100443655D01*
X190296096Y-100443659D01*
X190296097Y-100443663D01*
X190336699Y-100530734D01*
X190395965Y-100657830D01*
X190395967Y-100657834D01*
X190455140Y-100742341D01*
X190531505Y-100851401D01*
X190698599Y-101018495D01*
X190795384Y-101086265D01*
X190892165Y-101154032D01*
X190896856Y-101156740D01*
X190896018Y-101158190D01*
X190911599Y-101171908D01*
X190934811Y-101188179D01*
X190937474Y-101194690D01*
X190942755Y-101199340D01*
X190950528Y-101226609D01*
X190961260Y-101252849D01*
X190959980Y-101259766D01*
X190961909Y-101266533D01*
X190953706Y-101293672D01*
X190948548Y-101321552D01*
X190943730Y-101326680D01*
X190941695Y-101333415D01*
X190920122Y-101351810D01*
X190900710Y-101372476D01*
X190891446Y-101376264D01*
X190888531Y-101378751D01*
X190868042Y-101385837D01*
X190688629Y-101430777D01*
X190676694Y-101433151D01*
X190349037Y-101481754D01*
X190336928Y-101482947D01*
X190021989Y-101498419D01*
X190003031Y-101499351D01*
X189996949Y-101499500D01*
X153879635Y-101499500D01*
X153812596Y-101479815D01*
X153766841Y-101427011D01*
X153756897Y-101357853D01*
X153761704Y-101337182D01*
X153762928Y-101333415D01*
X153817246Y-101166243D01*
X153850500Y-100956287D01*
X153850500Y-100443713D01*
X153817246Y-100233757D01*
X153751557Y-100031588D01*
X153751554Y-100031582D01*
X153734849Y-99998795D01*
X153734848Y-99998794D01*
X153709986Y-99950000D01*
X162219355Y-99950000D01*
X162239859Y-100118869D01*
X162239860Y-100118874D01*
X162300182Y-100277931D01*
X162362475Y-100368177D01*
X162396817Y-100417929D01*
X162502505Y-100511560D01*
X162524150Y-100530736D01*
X162674773Y-100609789D01*
X162674775Y-100609790D01*
X162839944Y-100650500D01*
X163010056Y-100650500D01*
X163175225Y-100609790D01*
X163254692Y-100568081D01*
X163325849Y-100530736D01*
X163325850Y-100530734D01*
X163325852Y-100530734D01*
X163453183Y-100417929D01*
X163549818Y-100277930D01*
X163610140Y-100118872D01*
X163613970Y-100087320D01*
X163629682Y-100040261D01*
X163634577Y-100031785D01*
X163675501Y-99879057D01*
X163675501Y-99720943D01*
X163675501Y-99713348D01*
X163675500Y-99713330D01*
X163675500Y-98886574D01*
X164119356Y-98886574D01*
X164139860Y-99055443D01*
X164139861Y-99055448D01*
X164200183Y-99214505D01*
X164247654Y-99283277D01*
X164296818Y-99354503D01*
X164387444Y-99434790D01*
X164424151Y-99467310D01*
X164574774Y-99546363D01*
X164574776Y-99546364D01*
X164739945Y-99587074D01*
X164910057Y-99587074D01*
X165075226Y-99546364D01*
X165161129Y-99501277D01*
X165218755Y-99487074D01*
X168134365Y-99487074D01*
X168134369Y-99487075D01*
X168292483Y-99487075D01*
X168332564Y-99476334D01*
X168345643Y-99475663D01*
X168347464Y-99476097D01*
X168352006Y-99475500D01*
X168410056Y-99475500D01*
X168575225Y-99434790D01*
X168722598Y-99357442D01*
X168725849Y-99355736D01*
X168725850Y-99355734D01*
X168725852Y-99355734D01*
X168853183Y-99242929D01*
X168949818Y-99102930D01*
X169010140Y-98943872D01*
X169030645Y-98775000D01*
X169010140Y-98606128D01*
X168949818Y-98447070D01*
X168853183Y-98307071D01*
X168758316Y-98223026D01*
X168725849Y-98194263D01*
X168575226Y-98115210D01*
X168410056Y-98074500D01*
X168239944Y-98074500D01*
X168074773Y-98115210D01*
X167924149Y-98194264D01*
X167924147Y-98194266D01*
X167855718Y-98254889D01*
X167792485Y-98284611D01*
X167773491Y-98286074D01*
X165218755Y-98286074D01*
X165161129Y-98271870D01*
X165117460Y-98248950D01*
X165075225Y-98226783D01*
X164910057Y-98186074D01*
X164739945Y-98186074D01*
X164574774Y-98226784D01*
X164424151Y-98305837D01*
X164296817Y-98418646D01*
X164200183Y-98558642D01*
X164139861Y-98717699D01*
X164139860Y-98717704D01*
X164119356Y-98886574D01*
X163675500Y-98886574D01*
X163675500Y-95320000D01*
X165594355Y-95320000D01*
X165614859Y-95488869D01*
X165614860Y-95488874D01*
X165675182Y-95647931D01*
X165693867Y-95675000D01*
X165771817Y-95787929D01*
X165877505Y-95881560D01*
X165899150Y-95900736D01*
X166049773Y-95979789D01*
X166049775Y-95979790D01*
X166214944Y-96020500D01*
X166385056Y-96020500D01*
X166550225Y-95979790D01*
X166636128Y-95934703D01*
X166693754Y-95920500D01*
X169583330Y-95920500D01*
X169650369Y-95940185D01*
X169696124Y-95992989D01*
X169699273Y-96000532D01*
X169700182Y-96002931D01*
X169756931Y-96085145D01*
X169796817Y-96142929D01*
X169880424Y-96216998D01*
X169924150Y-96255736D01*
X170074773Y-96334789D01*
X170074775Y-96334790D01*
X170239944Y-96375500D01*
X170410056Y-96375500D01*
X170575225Y-96334790D01*
X170706359Y-96265965D01*
X170725849Y-96255736D01*
X170725850Y-96255734D01*
X170725852Y-96255734D01*
X170853183Y-96142929D01*
X170949818Y-96002930D01*
X171010140Y-95843872D01*
X171030645Y-95675000D01*
X171010140Y-95506128D01*
X170949818Y-95347070D01*
X170936604Y-95327927D01*
X170910079Y-95289498D01*
X170853183Y-95207071D01*
X170725852Y-95094266D01*
X170725849Y-95094263D01*
X170575226Y-95015210D01*
X170528126Y-95003601D01*
X170513426Y-94995310D01*
X170498374Y-94992036D01*
X170470120Y-94970885D01*
X170457590Y-94958355D01*
X170457588Y-94958352D01*
X170338717Y-94839481D01*
X170338709Y-94839475D01*
X170236936Y-94780717D01*
X170236934Y-94780716D01*
X170201790Y-94760425D01*
X170201789Y-94760424D01*
X170189263Y-94757067D01*
X170049057Y-94719499D01*
X169890943Y-94719499D01*
X169883347Y-94719499D01*
X169883331Y-94719500D01*
X166693754Y-94719500D01*
X166636128Y-94705296D01*
X166592459Y-94682376D01*
X166550224Y-94660209D01*
X166385056Y-94619500D01*
X166214944Y-94619500D01*
X166049773Y-94660210D01*
X165899150Y-94739263D01*
X165771816Y-94852072D01*
X165675182Y-94992068D01*
X165614860Y-95151125D01*
X165614859Y-95151130D01*
X165594355Y-95320000D01*
X163675500Y-95320000D01*
X163675500Y-92826800D01*
X163695185Y-92759761D01*
X163697429Y-92756389D01*
X163699818Y-92752930D01*
X163760140Y-92593872D01*
X163780645Y-92425000D01*
X163760140Y-92256128D01*
X163745396Y-92217252D01*
X163710257Y-92124596D01*
X163699818Y-92097070D01*
X163672801Y-92057930D01*
X163665476Y-92047318D01*
X163603183Y-91957071D01*
X163475852Y-91844266D01*
X163475849Y-91844263D01*
X163325226Y-91765210D01*
X163160056Y-91724500D01*
X162989944Y-91724500D01*
X162824773Y-91765210D01*
X162674150Y-91844263D01*
X162546816Y-91957072D01*
X162450182Y-92097068D01*
X162389860Y-92256125D01*
X162389859Y-92256130D01*
X162369355Y-92425000D01*
X162389859Y-92593869D01*
X162389860Y-92593874D01*
X162450181Y-92752928D01*
X162450182Y-92752930D01*
X162452549Y-92756360D01*
X162453509Y-92759269D01*
X162453668Y-92759572D01*
X162453617Y-92759598D01*
X162474433Y-92822713D01*
X162474500Y-92826800D01*
X162474500Y-99357442D01*
X162454815Y-99424481D01*
X162432727Y-99450257D01*
X162396818Y-99482069D01*
X162300182Y-99622068D01*
X162239860Y-99781125D01*
X162239859Y-99781130D01*
X162219355Y-99950000D01*
X153709986Y-99950000D01*
X153697544Y-99925582D01*
X153655051Y-99842184D01*
X153647023Y-99831134D01*
X153530109Y-99670213D01*
X153379786Y-99519890D01*
X153207820Y-99394951D01*
X153018414Y-99298444D01*
X153018413Y-99298443D01*
X153018412Y-99298443D01*
X152816243Y-99232754D01*
X152816241Y-99232753D01*
X152816240Y-99232753D01*
X152654957Y-99207208D01*
X152606287Y-99199500D01*
X152393713Y-99199500D01*
X152345042Y-99207208D01*
X152183760Y-99232753D01*
X151981585Y-99298444D01*
X151792179Y-99394951D01*
X151620213Y-99519890D01*
X151469890Y-99670213D01*
X151344951Y-99842179D01*
X151248444Y-100031585D01*
X151182753Y-100233760D01*
X151149500Y-100443713D01*
X151149500Y-100956286D01*
X151181478Y-101158190D01*
X151182754Y-101166243D01*
X151237072Y-101333415D01*
X151238296Y-101337182D01*
X151240291Y-101407023D01*
X151204211Y-101466856D01*
X151141510Y-101497684D01*
X151120365Y-101499500D01*
X149129635Y-101499500D01*
X149062596Y-101479815D01*
X149016841Y-101427011D01*
X149006897Y-101357853D01*
X149011704Y-101337182D01*
X149012928Y-101333415D01*
X149067246Y-101166243D01*
X149100500Y-100956287D01*
X149100500Y-100443713D01*
X149076887Y-100294630D01*
X149085841Y-100225340D01*
X149111676Y-100187557D01*
X150488024Y-98811211D01*
X150549347Y-98777726D01*
X150575705Y-98774892D01*
X153039852Y-98774892D01*
X153097477Y-98789095D01*
X153183381Y-98834182D01*
X153348550Y-98874892D01*
X153518662Y-98874892D01*
X153683831Y-98834182D01*
X153796592Y-98775000D01*
X153834455Y-98755128D01*
X153834456Y-98755126D01*
X153834458Y-98755126D01*
X153961789Y-98642321D01*
X154058424Y-98502322D01*
X154118746Y-98343264D01*
X154139251Y-98174392D01*
X154118746Y-98005520D01*
X154117802Y-98003032D01*
X154091663Y-97934108D01*
X154058424Y-97846462D01*
X153961789Y-97706463D01*
X153858341Y-97614816D01*
X153834455Y-97593655D01*
X153683832Y-97514602D01*
X153518662Y-97473892D01*
X153348550Y-97473892D01*
X153183381Y-97514601D01*
X153125777Y-97544835D01*
X153097477Y-97559688D01*
X153039852Y-97573892D01*
X150354665Y-97573892D01*
X150196551Y-97573892D01*
X150043823Y-97614815D01*
X150043822Y-97614815D01*
X150043820Y-97614816D01*
X150043817Y-97614817D01*
X150008674Y-97635108D01*
X150008672Y-97635109D01*
X149906898Y-97693867D01*
X149906890Y-97693873D01*
X149795086Y-97805678D01*
X148347736Y-99253027D01*
X148286413Y-99286512D01*
X148221737Y-99283277D01*
X148066240Y-99232753D01*
X147904957Y-99207208D01*
X147856287Y-99199500D01*
X147643713Y-99199500D01*
X147595042Y-99207208D01*
X147433760Y-99232753D01*
X147231585Y-99298444D01*
X147042179Y-99394951D01*
X146870215Y-99519889D01*
X146731398Y-99658706D01*
X146670075Y-99692190D01*
X146600383Y-99687206D01*
X146544450Y-99645334D01*
X146538178Y-99636120D01*
X146442712Y-99481344D01*
X146318657Y-99357289D01*
X146318656Y-99357288D01*
X146203909Y-99286512D01*
X146169336Y-99265187D01*
X146169331Y-99265185D01*
X146144992Y-99257120D01*
X146002797Y-99210001D01*
X146002795Y-99210000D01*
X145900010Y-99199500D01*
X144599998Y-99199500D01*
X144599981Y-99199501D01*
X144497203Y-99210000D01*
X144497200Y-99210001D01*
X144330668Y-99265185D01*
X144330663Y-99265187D01*
X144181342Y-99357289D01*
X144057289Y-99481342D01*
X143965187Y-99630663D01*
X143965185Y-99630668D01*
X143946450Y-99687206D01*
X143910001Y-99797203D01*
X143910001Y-99797204D01*
X143910000Y-99797204D01*
X143899500Y-99899983D01*
X143899500Y-99899991D01*
X143899500Y-100657834D01*
X143899501Y-101375500D01*
X143879816Y-101442539D01*
X143827013Y-101488294D01*
X143775501Y-101499500D01*
X143503051Y-101499500D01*
X143496968Y-101499351D01*
X143476900Y-101498365D01*
X143163071Y-101482947D01*
X143150962Y-101481754D01*
X142823305Y-101433151D01*
X142811369Y-101430777D01*
X142490055Y-101350292D01*
X142478411Y-101346759D01*
X142376048Y-101310133D01*
X142319559Y-101269015D01*
X142294267Y-101203883D01*
X142308204Y-101135417D01*
X142346693Y-101091811D01*
X142451401Y-101018495D01*
X142618495Y-100851401D01*
X142754035Y-100657830D01*
X142853903Y-100443663D01*
X142915063Y-100215408D01*
X142935659Y-99980000D01*
X142915063Y-99744592D01*
X142853903Y-99516337D01*
X142754035Y-99302171D01*
X142751426Y-99298444D01*
X142618494Y-99108597D01*
X142451402Y-98941506D01*
X142451396Y-98941501D01*
X142265842Y-98811575D01*
X142222217Y-98756998D01*
X142215023Y-98687500D01*
X142246546Y-98625145D01*
X142265842Y-98608425D01*
X142417371Y-98502323D01*
X142451401Y-98478495D01*
X142618495Y-98311401D01*
X142754035Y-98117830D01*
X142853903Y-97903663D01*
X142915063Y-97675408D01*
X142935659Y-97440000D01*
X142915063Y-97204592D01*
X142853903Y-96976337D01*
X142754035Y-96762171D01*
X142618495Y-96568599D01*
X142618494Y-96568597D01*
X142451402Y-96401506D01*
X142451396Y-96401501D01*
X142265842Y-96271575D01*
X142222217Y-96216998D01*
X142215023Y-96147500D01*
X142246546Y-96085145D01*
X142265842Y-96068425D01*
X142346912Y-96011659D01*
X142451401Y-95938495D01*
X142618495Y-95771401D01*
X142754035Y-95577830D01*
X142853784Y-95363919D01*
X150119499Y-95363919D01*
X150148340Y-95508906D01*
X150148342Y-95508912D01*
X150204916Y-95645494D01*
X150287048Y-95768416D01*
X150287052Y-95768420D01*
X150287052Y-95768421D01*
X150391578Y-95872947D01*
X150391581Y-95872949D01*
X150391584Y-95872952D01*
X150514506Y-95955084D01*
X150651088Y-96011658D01*
X150651092Y-96011658D01*
X150651093Y-96011659D01*
X150796080Y-96040500D01*
X150796083Y-96040500D01*
X150943919Y-96040500D01*
X151044461Y-96020500D01*
X151088912Y-96011658D01*
X151225494Y-95955084D01*
X151348416Y-95872952D01*
X151898385Y-95322983D01*
X151959708Y-95289498D01*
X152029399Y-95294482D01*
X152057621Y-95309393D01*
X152066263Y-95315499D01*
X152091284Y-95340520D01*
X152143172Y-95370477D01*
X152148093Y-95373318D01*
X152228209Y-95419574D01*
X152228210Y-95419575D01*
X152228212Y-95419575D01*
X152228215Y-95419577D01*
X152380943Y-95460501D01*
X152380946Y-95460501D01*
X152546653Y-95460501D01*
X152546669Y-95460500D01*
X153906246Y-95460500D01*
X153963871Y-95474703D01*
X154049775Y-95519790D01*
X154214944Y-95560500D01*
X154385056Y-95560500D01*
X154550225Y-95519790D01*
X154663190Y-95460501D01*
X154700849Y-95440736D01*
X154700850Y-95440734D01*
X154700852Y-95440734D01*
X154828183Y-95327929D01*
X154924818Y-95187930D01*
X154985140Y-95028872D01*
X155005645Y-94860000D01*
X154985140Y-94691128D01*
X154973414Y-94660210D01*
X154924817Y-94532068D01*
X154861611Y-94440500D01*
X154828183Y-94392071D01*
X154700852Y-94279266D01*
X154700849Y-94279263D01*
X154550226Y-94200210D01*
X154385056Y-94159500D01*
X154214944Y-94159500D01*
X154049775Y-94200209D01*
X154007936Y-94222169D01*
X153963871Y-94245296D01*
X153906246Y-94259500D01*
X152760097Y-94259500D01*
X152730656Y-94250855D01*
X152700670Y-94244332D01*
X152695654Y-94240577D01*
X152693058Y-94239815D01*
X152672416Y-94223181D01*
X152666819Y-94217584D01*
X152633334Y-94156261D01*
X152630500Y-94129903D01*
X152630500Y-93330104D01*
X158124355Y-93330104D01*
X158144859Y-93498973D01*
X158144860Y-93498978D01*
X158205182Y-93658035D01*
X158244403Y-93714855D01*
X158301817Y-93798033D01*
X158403287Y-93887927D01*
X158429150Y-93910840D01*
X158579773Y-93989893D01*
X158579775Y-93989894D01*
X158744944Y-94030604D01*
X158915058Y-94030604D01*
X158915058Y-94030603D01*
X158955322Y-94020679D01*
X159025124Y-94023746D01*
X159082187Y-94064065D01*
X159087049Y-94070635D01*
X159181817Y-94207929D01*
X159230271Y-94250855D01*
X159309150Y-94320736D01*
X159459773Y-94399789D01*
X159459775Y-94399790D01*
X159624944Y-94440500D01*
X159795056Y-94440500D01*
X159960225Y-94399790D01*
X160039692Y-94358081D01*
X160110849Y-94320736D01*
X160110850Y-94320734D01*
X160110852Y-94320734D01*
X160238183Y-94207929D01*
X160334818Y-94067930D01*
X160395140Y-93908872D01*
X160415645Y-93740000D01*
X160395140Y-93571128D01*
X160334818Y-93412070D01*
X160325446Y-93398493D01*
X160300476Y-93362318D01*
X160238183Y-93272071D01*
X160110852Y-93159266D01*
X160101582Y-93154400D01*
X159996873Y-93099444D01*
X159946661Y-93050859D01*
X159930500Y-92989648D01*
X159930500Y-88235428D01*
X159936738Y-88214182D01*
X159938318Y-88192095D01*
X159946390Y-88181311D01*
X159950185Y-88168389D01*
X159966916Y-88153890D01*
X159980189Y-88136161D01*
X159992811Y-88131453D01*
X160002989Y-88122634D01*
X160024904Y-88119482D01*
X160045653Y-88111744D01*
X160058814Y-88114606D01*
X160072147Y-88112690D01*
X160092288Y-88121888D01*
X160113926Y-88126595D01*
X160131652Y-88139865D01*
X160135703Y-88141715D01*
X160142166Y-88147732D01*
X160199608Y-88205174D01*
X160199610Y-88205175D01*
X161586167Y-89591733D01*
X161586169Y-89591734D01*
X161586173Y-89591737D01*
X161681413Y-89646723D01*
X161723099Y-89670790D01*
X161875826Y-89711714D01*
X161875828Y-89711714D01*
X162041537Y-89711714D01*
X162041553Y-89711713D01*
X162527812Y-89711713D01*
X162585437Y-89725916D01*
X162671341Y-89771003D01*
X162836510Y-89811713D01*
X163006622Y-89811713D01*
X163171791Y-89771003D01*
X163284756Y-89711714D01*
X163322415Y-89691949D01*
X163322416Y-89691947D01*
X163322418Y-89691947D01*
X163449749Y-89579142D01*
X163546384Y-89439143D01*
X163606706Y-89280085D01*
X163627211Y-89111213D01*
X163606706Y-88942341D01*
X163546384Y-88783283D01*
X163545157Y-88781506D01*
X163494747Y-88708475D01*
X163449749Y-88643284D01*
X163322418Y-88530479D01*
X163322416Y-88530478D01*
X163322413Y-88530475D01*
X163316244Y-88526217D01*
X163317758Y-88524022D01*
X163276606Y-88484213D01*
X163265088Y-88449275D01*
X163263673Y-88449624D01*
X163261878Y-88442341D01*
X163201555Y-88283281D01*
X163152520Y-88212243D01*
X163104921Y-88143284D01*
X162977590Y-88030479D01*
X162977588Y-88030478D01*
X162971976Y-88025506D01*
X162973097Y-88024240D01*
X162934878Y-87977070D01*
X162927225Y-87907621D01*
X162947263Y-87858873D01*
X162954818Y-87847930D01*
X163015140Y-87688872D01*
X163022263Y-87630201D01*
X163049884Y-87566025D01*
X163087730Y-87535353D01*
X163210852Y-87470734D01*
X163338183Y-87357929D01*
X163338185Y-87357925D01*
X163339247Y-87356728D01*
X163340244Y-87356102D01*
X163343797Y-87352955D01*
X163344320Y-87353545D01*
X163398434Y-87319597D01*
X163468299Y-87320361D01*
X163526661Y-87358775D01*
X163534116Y-87368508D01*
X163616546Y-87487927D01*
X163616547Y-87487928D01*
X163616548Y-87487929D01*
X163743879Y-87600734D01*
X163894506Y-87679790D01*
X163949905Y-87693444D01*
X164010286Y-87728599D01*
X164042075Y-87790818D01*
X164044231Y-87813841D01*
X164044231Y-92996857D01*
X164024546Y-93063896D01*
X164022282Y-93067296D01*
X164005182Y-93092069D01*
X163944860Y-93251125D01*
X163944859Y-93251130D01*
X163924355Y-93420000D01*
X163944859Y-93588869D01*
X163944860Y-93588874D01*
X164005182Y-93747931D01*
X164039764Y-93798031D01*
X164101817Y-93887929D01*
X164135500Y-93917769D01*
X164229150Y-94000736D01*
X164379773Y-94079789D01*
X164379775Y-94079790D01*
X164544944Y-94120500D01*
X164715056Y-94120500D01*
X164880225Y-94079790D01*
X164987007Y-94023746D01*
X165030849Y-94000736D01*
X165030850Y-94000734D01*
X165030852Y-94000734D01*
X165158183Y-93887929D01*
X165254818Y-93747930D01*
X165315140Y-93588872D01*
X165335645Y-93420000D01*
X165315140Y-93251128D01*
X165307659Y-93231401D01*
X165253289Y-93088036D01*
X165245231Y-93044066D01*
X165245231Y-92090885D01*
X165264916Y-92023846D01*
X165317720Y-91978091D01*
X165386878Y-91968147D01*
X165450434Y-91997172D01*
X165456912Y-92003204D01*
X166308082Y-92854374D01*
X166308092Y-92854385D01*
X166312422Y-92858715D01*
X166312423Y-92858716D01*
X166424227Y-92970520D01*
X166479055Y-93002174D01*
X166511038Y-93020639D01*
X166511040Y-93020641D01*
X166536773Y-93035498D01*
X166561158Y-93049577D01*
X166713886Y-93090501D01*
X166713889Y-93090501D01*
X166879596Y-93090501D01*
X166879612Y-93090500D01*
X167045256Y-93090500D01*
X183289017Y-93090500D01*
X183289033Y-93090501D01*
X183296629Y-93090501D01*
X183454740Y-93090501D01*
X183454743Y-93090501D01*
X183607471Y-93049577D01*
X183657590Y-93020639D01*
X183744402Y-92970520D01*
X183856206Y-92858716D01*
X183856206Y-92858714D01*
X183866414Y-92848507D01*
X183866415Y-92848504D01*
X187842685Y-88872237D01*
X187921742Y-88735305D01*
X187962666Y-88582578D01*
X187962666Y-88424463D01*
X187962666Y-88416868D01*
X187962665Y-88416850D01*
X187962665Y-86735581D01*
X187962666Y-86735568D01*
X187962666Y-86567465D01*
X187962666Y-86567464D01*
X187921742Y-86414737D01*
X187876539Y-86336442D01*
X187842689Y-86277811D01*
X187842683Y-86277803D01*
X186851515Y-85286636D01*
X186851513Y-85286633D01*
X186732642Y-85167762D01*
X186732634Y-85167756D01*
X186640441Y-85114529D01*
X186640439Y-85114528D01*
X186595715Y-85088706D01*
X186595714Y-85088705D01*
X186583188Y-85085348D01*
X186442982Y-85047780D01*
X186284868Y-85047780D01*
X186277272Y-85047780D01*
X186277256Y-85047781D01*
X185363216Y-85047781D01*
X185305590Y-85033577D01*
X185251199Y-85005030D01*
X185230224Y-84994021D01*
X185065056Y-84953312D01*
X184894944Y-84953312D01*
X184729773Y-84994022D01*
X184579150Y-85073075D01*
X184451816Y-85185884D01*
X184355182Y-85325880D01*
X184294860Y-85484937D01*
X184294859Y-85484942D01*
X184274355Y-85653812D01*
X184294859Y-85822681D01*
X184294860Y-85822686D01*
X184355182Y-85981743D01*
X184359156Y-85987500D01*
X184451817Y-86121741D01*
X184579148Y-86234546D01*
X184601197Y-86246118D01*
X184642861Y-86267985D01*
X184693074Y-86316570D01*
X184701178Y-86333812D01*
X184755181Y-86476209D01*
X184755182Y-86476212D01*
X184805092Y-86548518D01*
X184851817Y-86616210D01*
X184979148Y-86729015D01*
X185055541Y-86769109D01*
X185072199Y-86785227D01*
X185091688Y-86797773D01*
X185100593Y-86812701D01*
X185105752Y-86817693D01*
X185110747Y-86827478D01*
X185112421Y-86831150D01*
X185155182Y-86943904D01*
X185180586Y-86980708D01*
X185185136Y-86990691D01*
X185188591Y-87014852D01*
X185196236Y-87038032D01*
X185193450Y-87048823D01*
X185195028Y-87059857D01*
X185184872Y-87082050D01*
X185178771Y-87105684D01*
X185168246Y-87118383D01*
X185165955Y-87123391D01*
X185161985Y-87125937D01*
X185154531Y-87134933D01*
X185061816Y-87217071D01*
X184965182Y-87357068D01*
X184965182Y-87357069D01*
X184911381Y-87498932D01*
X184883120Y-87542642D01*
X183712584Y-88713181D01*
X183651261Y-88746666D01*
X183624903Y-88749500D01*
X169243754Y-88749500D01*
X169186128Y-88735296D01*
X169104781Y-88692601D01*
X169100224Y-88690209D01*
X168935056Y-88649500D01*
X168764944Y-88649500D01*
X168599767Y-88690211D01*
X168593467Y-88692601D01*
X168523804Y-88697966D01*
X168462299Y-88664817D01*
X168428480Y-88603677D01*
X168425500Y-88576658D01*
X168425500Y-87418246D01*
X168445185Y-87351207D01*
X168447429Y-87347835D01*
X168449818Y-87344376D01*
X168510140Y-87185318D01*
X168530645Y-87016446D01*
X168510140Y-86847574D01*
X168449818Y-86688516D01*
X168353183Y-86548517D01*
X168225852Y-86435712D01*
X168225849Y-86435709D01*
X168075226Y-86356656D01*
X167910056Y-86315946D01*
X167739944Y-86315946D01*
X167726250Y-86319320D01*
X167656449Y-86316250D01*
X167638953Y-86308719D01*
X167488767Y-86229895D01*
X167323597Y-86189185D01*
X167153485Y-86189185D01*
X166988314Y-86229895D01*
X166934987Y-86257884D01*
X166866479Y-86271610D01*
X166801426Y-86246118D01*
X166760481Y-86189502D01*
X166753361Y-86148088D01*
X166753361Y-85442037D01*
X166773046Y-85374998D01*
X166795130Y-85349225D01*
X166898183Y-85257929D01*
X166994818Y-85117930D01*
X167055140Y-84958872D01*
X167075645Y-84790000D01*
X167055140Y-84621128D01*
X167049408Y-84606015D01*
X166994817Y-84462068D01*
X166960476Y-84412318D01*
X166898183Y-84322071D01*
X166770852Y-84209266D01*
X166770849Y-84209263D01*
X166620226Y-84130210D01*
X166455056Y-84089500D01*
X166284944Y-84089500D01*
X166119773Y-84130210D01*
X165969150Y-84209263D01*
X165841816Y-84322072D01*
X165745182Y-84462068D01*
X165745182Y-84462069D01*
X165690591Y-84606015D01*
X165681286Y-84625325D01*
X165675224Y-84635539D01*
X165672341Y-84638423D01*
X165630593Y-84710734D01*
X165630289Y-84711260D01*
X165630227Y-84711365D01*
X165593284Y-84775353D01*
X165593284Y-84775354D01*
X165552360Y-84928082D01*
X165552360Y-84928084D01*
X165552360Y-85096185D01*
X165552361Y-85096198D01*
X165552361Y-88349983D01*
X165543716Y-88379423D01*
X165537193Y-88409410D01*
X165533438Y-88414425D01*
X165532676Y-88417022D01*
X165516042Y-88437664D01*
X165456912Y-88496794D01*
X165395589Y-88530279D01*
X165325897Y-88525295D01*
X165269964Y-88483423D01*
X165245547Y-88417959D01*
X165245231Y-88409113D01*
X165245231Y-81686531D01*
X165264916Y-81619492D01*
X165267160Y-81616120D01*
X165269549Y-81612661D01*
X165329871Y-81453603D01*
X165350376Y-81284731D01*
X165329871Y-81115859D01*
X165311176Y-81066565D01*
X165291566Y-81014855D01*
X165269549Y-80956801D01*
X165266580Y-80952500D01*
X165218609Y-80883002D01*
X165172914Y-80816802D01*
X165055591Y-80712863D01*
X165045580Y-80703994D01*
X164894957Y-80624941D01*
X164729787Y-80584231D01*
X164559675Y-80584231D01*
X164394504Y-80624941D01*
X164243882Y-80703994D01*
X164237706Y-80708258D01*
X164236855Y-80707026D01*
X164181299Y-80733139D01*
X164112036Y-80723955D01*
X164074625Y-80698283D01*
X163797847Y-80421505D01*
X163769586Y-80377795D01*
X163742312Y-80305876D01*
X163645677Y-80165877D01*
X163518346Y-80053072D01*
X163518343Y-80053069D01*
X163367721Y-79974016D01*
X163309922Y-79959770D01*
X163249542Y-79924613D01*
X163217754Y-79862393D01*
X163224650Y-79792865D01*
X163237542Y-79768942D01*
X163279657Y-79707930D01*
X163339979Y-79548872D01*
X163340278Y-79546407D01*
X163340999Y-79544731D01*
X163341774Y-79541589D01*
X163342296Y-79541717D01*
X163367891Y-79482232D01*
X163385549Y-79466062D01*
X163385237Y-79465709D01*
X163441292Y-79416047D01*
X163518183Y-79347929D01*
X163614818Y-79207930D01*
X163614819Y-79207926D01*
X163618302Y-79201291D01*
X163620108Y-79202239D01*
X163656010Y-79154826D01*
X163721607Y-79130769D01*
X163729774Y-79130500D01*
X170080901Y-79130500D01*
X170147940Y-79150185D01*
X170193695Y-79202989D01*
X170203639Y-79272147D01*
X170174614Y-79335703D01*
X170168582Y-79342181D01*
X168971286Y-80539478D01*
X168859481Y-80651282D01*
X168859475Y-80651290D01*
X168823928Y-80712861D01*
X168823928Y-80712863D01*
X168780423Y-80788214D01*
X168780423Y-80788215D01*
X168739499Y-80940943D01*
X168739499Y-80940945D01*
X168739499Y-81109046D01*
X168739500Y-81109059D01*
X168739500Y-83728199D01*
X168719815Y-83795238D01*
X168717551Y-83798638D01*
X168715182Y-83802069D01*
X168654860Y-83961125D01*
X168654859Y-83961130D01*
X168634355Y-84130000D01*
X168654859Y-84298869D01*
X168654860Y-84298874D01*
X168715182Y-84457931D01*
X168774918Y-84544472D01*
X168811817Y-84597929D01*
X168917505Y-84691560D01*
X168939150Y-84710736D01*
X169089773Y-84789789D01*
X169089775Y-84789790D01*
X169254944Y-84830500D01*
X169425056Y-84830500D01*
X169590225Y-84789790D01*
X169685093Y-84739999D01*
X169740849Y-84710736D01*
X169740850Y-84710734D01*
X169740852Y-84710734D01*
X169868183Y-84597929D01*
X169964818Y-84457930D01*
X170025140Y-84298872D01*
X170045645Y-84130000D01*
X170025140Y-83961128D01*
X169964818Y-83802070D01*
X169962448Y-83798637D01*
X169961489Y-83795727D01*
X169961331Y-83795426D01*
X169961381Y-83795399D01*
X169940567Y-83732283D01*
X169940500Y-83728199D01*
X169940500Y-81320097D01*
X169960185Y-81253058D01*
X169976819Y-81232416D01*
X170510952Y-80698283D01*
X171085124Y-80124110D01*
X171122695Y-80098369D01*
X171132603Y-80093991D01*
X171190225Y-80079790D01*
X171325662Y-80008705D01*
X171329482Y-80007018D01*
X171332139Y-80006669D01*
X171347493Y-80000669D01*
X171388892Y-79989577D01*
X171441362Y-79959283D01*
X171525823Y-79910520D01*
X171637627Y-79798716D01*
X171637627Y-79798714D01*
X171647831Y-79788511D01*
X171647834Y-79788506D01*
X171867820Y-79568521D01*
X171929142Y-79535037D01*
X171998834Y-79540021D01*
X172054767Y-79581893D01*
X172079184Y-79647357D01*
X172079500Y-79656203D01*
X172079500Y-82418796D01*
X172059815Y-82485835D01*
X172056015Y-82490854D01*
X172056078Y-82490898D01*
X171955182Y-82637068D01*
X171894860Y-82796125D01*
X171894859Y-82796130D01*
X171874355Y-82965000D01*
X171894859Y-83133869D01*
X171894860Y-83133874D01*
X171955182Y-83292931D01*
X172007293Y-83368425D01*
X172051817Y-83432929D01*
X172093662Y-83470000D01*
X172179150Y-83545736D01*
X172329773Y-83624789D01*
X172329775Y-83624790D01*
X172494944Y-83665500D01*
X172665056Y-83665500D01*
X172830225Y-83624790D01*
X172931617Y-83571575D01*
X172980849Y-83545736D01*
X172980850Y-83545734D01*
X172980852Y-83545734D01*
X173108183Y-83432929D01*
X173204818Y-83292930D01*
X173265140Y-83133872D01*
X173285645Y-82965000D01*
X173277247Y-82895840D01*
X173279977Y-82857188D01*
X173279439Y-82857118D01*
X173280500Y-82849059D01*
X173280500Y-73264873D01*
X173281404Y-73249926D01*
X173285645Y-73215000D01*
X173265140Y-73046128D01*
X173204818Y-72887070D01*
X173108183Y-72747071D01*
X173000338Y-72651529D01*
X172980849Y-72634263D01*
X172849598Y-72565377D01*
X172799385Y-72516792D01*
X172783411Y-72448773D01*
X172806746Y-72382916D01*
X172824992Y-72362769D01*
X172898183Y-72297929D01*
X172994818Y-72157930D01*
X173055140Y-71998872D01*
X173075645Y-71830000D01*
X173055140Y-71661128D01*
X172994818Y-71502070D01*
X172898183Y-71362071D01*
X172791261Y-71267347D01*
X172770849Y-71249263D01*
X172613584Y-71166724D01*
X172614250Y-71165455D01*
X172565134Y-71128264D01*
X172541077Y-71062666D01*
X172556304Y-70994476D01*
X172605980Y-70945343D01*
X172664808Y-70930500D01*
X180577770Y-70930500D01*
X180644809Y-70950185D01*
X180665451Y-70966819D01*
X181651578Y-71952946D01*
X181651585Y-71952952D01*
X181774504Y-72035083D01*
X181774505Y-72035083D01*
X181774506Y-72035084D01*
X181911087Y-72091658D01*
X181911091Y-72091658D01*
X181911092Y-72091659D01*
X182056079Y-72120500D01*
X182056082Y-72120500D01*
X182203919Y-72120500D01*
X182301461Y-72101096D01*
X182348912Y-72091658D01*
X182447707Y-72050736D01*
X182485492Y-72035085D01*
X182485495Y-72035083D01*
X182519943Y-72012066D01*
X182608416Y-71952951D01*
X182712951Y-71848416D01*
X182795084Y-71725494D01*
X182851658Y-71588912D01*
X182861096Y-71541461D01*
X182880500Y-71443919D01*
X182880500Y-71296079D01*
X182851659Y-71151092D01*
X182851658Y-71151091D01*
X182851658Y-71151087D01*
X182795084Y-71014506D01*
X182792852Y-71011166D01*
X182712952Y-70891585D01*
X182712946Y-70891578D01*
X181418421Y-69597052D01*
X181418414Y-69597046D01*
X181344729Y-69547812D01*
X181344729Y-69547813D01*
X181295491Y-69514913D01*
X181158917Y-69458343D01*
X181158907Y-69458340D01*
X181013920Y-69429500D01*
X181013918Y-69429500D01*
X171495123Y-69429500D01*
X171428084Y-69409815D01*
X171382329Y-69357011D01*
X171372385Y-69287853D01*
X171396210Y-69235681D01*
X171393922Y-69234102D01*
X171410492Y-69210097D01*
X171494818Y-69087930D01*
X171555140Y-68928872D01*
X171575645Y-68760000D01*
X171555140Y-68591128D01*
X171552869Y-68585141D01*
X171505981Y-68461505D01*
X171494818Y-68432070D01*
X171493030Y-68429480D01*
X171451193Y-68368869D01*
X171398183Y-68292071D01*
X171270852Y-68179266D01*
X171270849Y-68179263D01*
X171120226Y-68100210D01*
X170955056Y-68059500D01*
X170784944Y-68059500D01*
X170619775Y-68100209D01*
X170562171Y-68130443D01*
X170533871Y-68145296D01*
X170476246Y-68159500D01*
X165860098Y-68159500D01*
X165830657Y-68150855D01*
X165800671Y-68144332D01*
X165795655Y-68140577D01*
X165793059Y-68139815D01*
X165772417Y-68123181D01*
X165711417Y-68062181D01*
X165677932Y-68000858D01*
X165682916Y-67931166D01*
X165724788Y-67875233D01*
X165790252Y-67850816D01*
X165799098Y-67850500D01*
X169083920Y-67850500D01*
X169181462Y-67831096D01*
X169228913Y-67821658D01*
X169337476Y-67776690D01*
X169365493Y-67765085D01*
X169365493Y-67765084D01*
X169365495Y-67765084D01*
X169417254Y-67730500D01*
X169417254Y-67730499D01*
X169417256Y-67730499D01*
X169452835Y-67706726D01*
X169488416Y-67682952D01*
X169712952Y-67458415D01*
X169749230Y-67404120D01*
X169795084Y-67335495D01*
X169829737Y-67251835D01*
X169851659Y-67198912D01*
X169880500Y-67053917D01*
X169880500Y-66906082D01*
X169880500Y-65686402D01*
X169882883Y-65662209D01*
X169890500Y-65623919D01*
X169890500Y-65226082D01*
X169889783Y-65222478D01*
X169889955Y-65220550D01*
X169889903Y-65220017D01*
X169890004Y-65220007D01*
X169896009Y-65152886D01*
X169938871Y-65097708D01*
X169949387Y-65090905D01*
X169993365Y-65065515D01*
X170100515Y-64958365D01*
X170176281Y-64827135D01*
X170215500Y-64680766D01*
X170215500Y-64529234D01*
X170176281Y-64382865D01*
X170100515Y-64251635D01*
X169993365Y-64144485D01*
X169927750Y-64106602D01*
X169862136Y-64068719D01*
X169788950Y-64049109D01*
X169715766Y-64029500D01*
X169715765Y-64029500D01*
X169689500Y-64029500D01*
X169622461Y-64009815D01*
X169576706Y-63957011D01*
X169565500Y-63905500D01*
X169565500Y-63597229D01*
X169585185Y-63530190D01*
X169601819Y-63509548D01*
X169782948Y-63328419D01*
X169782951Y-63328416D01*
X169865084Y-63205495D01*
X169921658Y-63068913D01*
X169940870Y-62972331D01*
X169950500Y-62923920D01*
X169950500Y-62776080D01*
X169921659Y-62631093D01*
X169921658Y-62631092D01*
X169921658Y-62631088D01*
X169877709Y-62524985D01*
X169865085Y-62494507D01*
X169865083Y-62494504D01*
X169782952Y-62371585D01*
X169782946Y-62371578D01*
X169678421Y-62267053D01*
X169678414Y-62267047D01*
X169555495Y-62184916D01*
X169555492Y-62184914D01*
X169418916Y-62128343D01*
X169418906Y-62128340D01*
X169273919Y-62099500D01*
X169273917Y-62099500D01*
X169126082Y-62099500D01*
X169126080Y-62099500D01*
X168981092Y-62128340D01*
X168981082Y-62128343D01*
X168844511Y-62184912D01*
X168844498Y-62184919D01*
X168721584Y-62267048D01*
X168721580Y-62267051D01*
X168232050Y-62756580D01*
X168232044Y-62756588D01*
X168182812Y-62830268D01*
X168182813Y-62830269D01*
X168149921Y-62879496D01*
X168149914Y-62879508D01*
X168093342Y-63016086D01*
X168093340Y-63016092D01*
X168064500Y-63161079D01*
X168064500Y-63161082D01*
X168064500Y-65048918D01*
X168064500Y-65048920D01*
X168064499Y-65048920D01*
X168093340Y-65193907D01*
X168093343Y-65193917D01*
X168149913Y-65330490D01*
X168149914Y-65330492D01*
X168178930Y-65373917D01*
X168178931Y-65373919D01*
X168232045Y-65453413D01*
X168343181Y-65564548D01*
X168376666Y-65625871D01*
X168379500Y-65652230D01*
X168379500Y-66225500D01*
X168359815Y-66292539D01*
X168307011Y-66338294D01*
X168255500Y-66349500D01*
X163986080Y-66349500D01*
X163841092Y-66378340D01*
X163841082Y-66378343D01*
X163704511Y-66434912D01*
X163704498Y-66434919D01*
X163627925Y-66486085D01*
X163612572Y-66496344D01*
X163581584Y-66517049D01*
X163467048Y-66631584D01*
X163426260Y-66692628D01*
X163384918Y-66754502D01*
X163384914Y-66754509D01*
X163328342Y-66891087D01*
X163328340Y-66891093D01*
X163299500Y-67036080D01*
X163299500Y-67036083D01*
X163299500Y-67183917D01*
X163299500Y-67183919D01*
X163299499Y-67183919D01*
X163328340Y-67328906D01*
X163328342Y-67328912D01*
X163381983Y-67458415D01*
X163384916Y-67465494D01*
X163467048Y-67588416D01*
X163467052Y-67588420D01*
X163467052Y-67588421D01*
X163571578Y-67692947D01*
X163571581Y-67692949D01*
X163571584Y-67692952D01*
X163694506Y-67775084D01*
X163831088Y-67831658D01*
X163831092Y-67831658D01*
X163831093Y-67831659D01*
X163976080Y-67860500D01*
X163976083Y-67860500D01*
X164123918Y-67860500D01*
X164162209Y-67852883D01*
X164186402Y-67850500D01*
X164203718Y-67850500D01*
X164270757Y-67870185D01*
X164316512Y-67922989D01*
X164326456Y-67992147D01*
X164319660Y-68018470D01*
X164314861Y-68031122D01*
X164314859Y-68031130D01*
X164294355Y-68200000D01*
X164314859Y-68368869D01*
X164314860Y-68368874D01*
X164375182Y-68527931D01*
X164418805Y-68591128D01*
X164471817Y-68667929D01*
X164599148Y-68780734D01*
X164749775Y-68859790D01*
X164796871Y-68871397D01*
X164854878Y-68904113D01*
X165168583Y-69217819D01*
X165202068Y-69279142D01*
X165197084Y-69348834D01*
X165155212Y-69404767D01*
X165089748Y-69429184D01*
X165080902Y-69429500D01*
X161552229Y-69429500D01*
X161485190Y-69409815D01*
X161464548Y-69393181D01*
X161276819Y-69205451D01*
X161243334Y-69144128D01*
X161240500Y-69117770D01*
X161240500Y-66286079D01*
X161211659Y-66141092D01*
X161211658Y-66141091D01*
X161211658Y-66141087D01*
X161189916Y-66088597D01*
X161155087Y-66004511D01*
X161155080Y-66004498D01*
X161072951Y-65881584D01*
X161072948Y-65881580D01*
X160968419Y-65777051D01*
X160968415Y-65777048D01*
X160845501Y-65694919D01*
X160845488Y-65694912D01*
X160708917Y-65638343D01*
X160708907Y-65638340D01*
X160563920Y-65609500D01*
X160563918Y-65609500D01*
X160554500Y-65609500D01*
X160487461Y-65589815D01*
X160441706Y-65537011D01*
X160430500Y-65485500D01*
X160430500Y-64529234D01*
X163284500Y-64529234D01*
X163284500Y-64680765D01*
X163323719Y-64827136D01*
X163356351Y-64883655D01*
X163399485Y-64958365D01*
X163506635Y-65065515D01*
X163637865Y-65141281D01*
X163784234Y-65180500D01*
X163784236Y-65180500D01*
X163935764Y-65180500D01*
X163935766Y-65180500D01*
X164082135Y-65141281D01*
X164213365Y-65065515D01*
X164320515Y-64958365D01*
X164396281Y-64827135D01*
X164435500Y-64680766D01*
X164435500Y-64529234D01*
X164396281Y-64382865D01*
X164320515Y-64251635D01*
X164213365Y-64144485D01*
X164147750Y-64106602D01*
X164082136Y-64068719D01*
X164008950Y-64049109D01*
X163935766Y-64029500D01*
X163784234Y-64029500D01*
X163637863Y-64068719D01*
X163506635Y-64144485D01*
X163506632Y-64144487D01*
X163399487Y-64251632D01*
X163399485Y-64251635D01*
X163323719Y-64382863D01*
X163284500Y-64529234D01*
X160430500Y-64529234D01*
X160430500Y-61989060D01*
X160430501Y-61989047D01*
X160430501Y-61820944D01*
X160430501Y-61820943D01*
X160414687Y-61761930D01*
X160411370Y-61744805D01*
X160395140Y-61611128D01*
X160334818Y-61452070D01*
X160295413Y-61394983D01*
X180419500Y-61394983D01*
X180419500Y-62945001D01*
X180419501Y-62945018D01*
X180430000Y-63047796D01*
X180430001Y-63047799D01*
X180485185Y-63214331D01*
X180485187Y-63214336D01*
X180495157Y-63230500D01*
X180577288Y-63363656D01*
X180701344Y-63487712D01*
X180850666Y-63579814D01*
X181017203Y-63634999D01*
X181119991Y-63645500D01*
X182420008Y-63645499D01*
X182522797Y-63634999D01*
X182689334Y-63579814D01*
X182838656Y-63487712D01*
X182962712Y-63363656D01*
X183054814Y-63214334D01*
X183109999Y-63047797D01*
X183120500Y-62945009D01*
X183120499Y-61938713D01*
X185419500Y-61938713D01*
X185419500Y-62401286D01*
X185434264Y-62494506D01*
X185452754Y-62611243D01*
X185517779Y-62811369D01*
X185518444Y-62813414D01*
X185614951Y-63002820D01*
X185739890Y-63174786D01*
X185890213Y-63325109D01*
X186062179Y-63450048D01*
X186062181Y-63450049D01*
X186062184Y-63450051D01*
X186251588Y-63546557D01*
X186453757Y-63612246D01*
X186663713Y-63645500D01*
X186663714Y-63645500D01*
X186876286Y-63645500D01*
X186876287Y-63645500D01*
X187086243Y-63612246D01*
X187288412Y-63546557D01*
X187477816Y-63450051D01*
X187509993Y-63426673D01*
X187649786Y-63325109D01*
X187649788Y-63325106D01*
X187649792Y-63325104D01*
X187800104Y-63174792D01*
X187800106Y-63174788D01*
X187800109Y-63174786D01*
X187925048Y-63002820D01*
X187925047Y-63002820D01*
X187925051Y-63002816D01*
X188021557Y-62813412D01*
X188087246Y-62611243D01*
X188120500Y-62401287D01*
X188120500Y-61938713D01*
X188087246Y-61728757D01*
X188021557Y-61526588D01*
X187925051Y-61337184D01*
X187925049Y-61337181D01*
X187925048Y-61337179D01*
X187800109Y-61165213D01*
X187649786Y-61014890D01*
X187477820Y-60889951D01*
X187288414Y-60793444D01*
X187288413Y-60793443D01*
X187288412Y-60793443D01*
X187086243Y-60727754D01*
X187086241Y-60727753D01*
X187086240Y-60727753D01*
X186924957Y-60702208D01*
X186876287Y-60694500D01*
X186663713Y-60694500D01*
X186615042Y-60702208D01*
X186453760Y-60727753D01*
X186453757Y-60727754D01*
X186269359Y-60787669D01*
X186251585Y-60793444D01*
X186062179Y-60889951D01*
X185890213Y-61014890D01*
X185739890Y-61165213D01*
X185614951Y-61337179D01*
X185518444Y-61526585D01*
X185452753Y-61728760D01*
X185419500Y-61938713D01*
X183120499Y-61938713D01*
X183120499Y-61394992D01*
X183109999Y-61292203D01*
X183054814Y-61125666D01*
X182962712Y-60976344D01*
X182838656Y-60852288D01*
X182689334Y-60760186D01*
X182522797Y-60705001D01*
X182522795Y-60705000D01*
X182420010Y-60694500D01*
X181119998Y-60694500D01*
X181119981Y-60694501D01*
X181017203Y-60705000D01*
X181017200Y-60705001D01*
X180850668Y-60760185D01*
X180850663Y-60760187D01*
X180701342Y-60852289D01*
X180577289Y-60976342D01*
X180485187Y-61125663D01*
X180485186Y-61125666D01*
X180430001Y-61292203D01*
X180430001Y-61292204D01*
X180430000Y-61292204D01*
X180419500Y-61394983D01*
X160295413Y-61394983D01*
X160238183Y-61312071D01*
X160110852Y-61199266D01*
X160110849Y-61199263D01*
X159960226Y-61120210D01*
X159795056Y-61079500D01*
X159624944Y-61079500D01*
X159459773Y-61120210D01*
X159309150Y-61199263D01*
X159181816Y-61312072D01*
X159085182Y-61452068D01*
X159024860Y-61611125D01*
X159024859Y-61611130D01*
X159004355Y-61780000D01*
X159024859Y-61948869D01*
X159024860Y-61948874D01*
X159085182Y-62107931D01*
X159181815Y-62247927D01*
X159181816Y-62247928D01*
X159181817Y-62247929D01*
X159187727Y-62253164D01*
X159224853Y-62312352D01*
X159229500Y-62345980D01*
X159229500Y-70142221D01*
X159209815Y-70209260D01*
X159157011Y-70255015D01*
X159135175Y-70262618D01*
X159003474Y-70295079D01*
X158852851Y-70374132D01*
X158725517Y-70486941D01*
X158628884Y-70626936D01*
X158596878Y-70711329D01*
X158591229Y-70720065D01*
X158589768Y-70726783D01*
X158568618Y-70755038D01*
X158517573Y-70806082D01*
X158461285Y-70862371D01*
X158461284Y-70862372D01*
X158454218Y-70869439D01*
X158454215Y-70869440D01*
X158454214Y-70869441D01*
X158454215Y-70869442D01*
X158349478Y-70974179D01*
X158301488Y-71057303D01*
X158301486Y-71057305D01*
X158270425Y-71111102D01*
X158270424Y-71111103D01*
X158259711Y-71151086D01*
X158229499Y-71263836D01*
X158229499Y-71263838D01*
X158229499Y-71431939D01*
X158229500Y-71431952D01*
X158229500Y-71753330D01*
X158229499Y-71753348D01*
X158229499Y-71919054D01*
X158229498Y-71919054D01*
X158229499Y-71919057D01*
X158270423Y-72071785D01*
X158293516Y-72111784D01*
X158312886Y-72145333D01*
X158329500Y-72207334D01*
X158329500Y-92783900D01*
X158309815Y-92850939D01*
X158306015Y-92855958D01*
X158306078Y-92856002D01*
X158205182Y-93002172D01*
X158144860Y-93161229D01*
X158144859Y-93161234D01*
X158124355Y-93330104D01*
X152630500Y-93330104D01*
X152630500Y-91730000D01*
X154514355Y-91730000D01*
X154534859Y-91898869D01*
X154534860Y-91898874D01*
X154595182Y-92057931D01*
X154642901Y-92127062D01*
X154691817Y-92197929D01*
X154757513Y-92256130D01*
X154819150Y-92310736D01*
X154969773Y-92389789D01*
X154969775Y-92389790D01*
X155134944Y-92430500D01*
X155305056Y-92430500D01*
X155470225Y-92389790D01*
X155549692Y-92348081D01*
X155620849Y-92310736D01*
X155620850Y-92310734D01*
X155620852Y-92310734D01*
X155748183Y-92197929D01*
X155844818Y-92057930D01*
X155905140Y-91898872D01*
X155925645Y-91730000D01*
X155905140Y-91561128D01*
X155844818Y-91402070D01*
X155842448Y-91398637D01*
X155841489Y-91395727D01*
X155841331Y-91395426D01*
X155841381Y-91395399D01*
X155820567Y-91332283D01*
X155820500Y-91328199D01*
X155820500Y-81975103D01*
X155840185Y-81908064D01*
X155886874Y-81865307D01*
X155990849Y-81810736D01*
X155990850Y-81810734D01*
X155990852Y-81810734D01*
X156118183Y-81697929D01*
X156214818Y-81557930D01*
X156275140Y-81398872D01*
X156295645Y-81230000D01*
X156275140Y-81061128D01*
X156214818Y-80902070D01*
X156118183Y-80762071D01*
X155990852Y-80649266D01*
X155990849Y-80649263D01*
X155840226Y-80570210D01*
X155675056Y-80529500D01*
X155504944Y-80529500D01*
X155339773Y-80570210D01*
X155189150Y-80649263D01*
X155061816Y-80762072D01*
X154965182Y-80902068D01*
X154965182Y-80902069D01*
X154911380Y-81043934D01*
X154905732Y-81052669D01*
X154904271Y-81059388D01*
X154883121Y-81087643D01*
X154851286Y-81119478D01*
X154739481Y-81231282D01*
X154739480Y-81231284D01*
X154694578Y-81309057D01*
X154660423Y-81368215D01*
X154619499Y-81520943D01*
X154619499Y-81520945D01*
X154619499Y-81689046D01*
X154619500Y-81689059D01*
X154619500Y-91328199D01*
X154599815Y-91395238D01*
X154597551Y-91398638D01*
X154595182Y-91402069D01*
X154534860Y-91561125D01*
X154534859Y-91561130D01*
X154514355Y-91730000D01*
X152630500Y-91730000D01*
X152630500Y-76726079D01*
X152601659Y-76581092D01*
X152601658Y-76581091D01*
X152601658Y-76581087D01*
X152562807Y-76487291D01*
X152545087Y-76444511D01*
X152545080Y-76444498D01*
X152462951Y-76321584D01*
X152462948Y-76321580D01*
X152358419Y-76217051D01*
X152358415Y-76217048D01*
X152235501Y-76134919D01*
X152235488Y-76134912D01*
X152098917Y-76078343D01*
X152098907Y-76078340D01*
X151953920Y-76049500D01*
X151953918Y-76049500D01*
X151806082Y-76049500D01*
X151806080Y-76049500D01*
X151661092Y-76078340D01*
X151661082Y-76078343D01*
X151524511Y-76134912D01*
X151524498Y-76134919D01*
X151401584Y-76217048D01*
X151401580Y-76217051D01*
X151297051Y-76321580D01*
X151297048Y-76321584D01*
X151214919Y-76444498D01*
X151214912Y-76444511D01*
X151158343Y-76581082D01*
X151158340Y-76581092D01*
X151129500Y-76726079D01*
X151129500Y-90827769D01*
X151109815Y-90894808D01*
X151093181Y-90915450D01*
X150677052Y-91331578D01*
X150677052Y-91331579D01*
X150677049Y-91331582D01*
X150677048Y-91331584D01*
X150653492Y-91366839D01*
X150594918Y-91454502D01*
X150594914Y-91454509D01*
X150538342Y-91591087D01*
X150538340Y-91591093D01*
X150509500Y-91736080D01*
X150509500Y-91736083D01*
X150509500Y-91883917D01*
X150509500Y-91883919D01*
X150509499Y-91883919D01*
X150538340Y-92028906D01*
X150538342Y-92028912D01*
X150594492Y-92164472D01*
X150594916Y-92165494D01*
X150677048Y-92288416D01*
X150677052Y-92288420D01*
X150677052Y-92288421D01*
X150781578Y-92392947D01*
X150781581Y-92392949D01*
X150781584Y-92392952D01*
X150904506Y-92475084D01*
X151041088Y-92531658D01*
X151041089Y-92531658D01*
X151041091Y-92531659D01*
X151041496Y-92531782D01*
X151041681Y-92531903D01*
X151046716Y-92533989D01*
X151046320Y-92534943D01*
X151099934Y-92570079D01*
X151128391Y-92633892D01*
X151129500Y-92650442D01*
X151129500Y-93917769D01*
X151109815Y-93984808D01*
X151093181Y-94005450D01*
X150287052Y-94811578D01*
X150287052Y-94811579D01*
X150287049Y-94811582D01*
X150287048Y-94811584D01*
X150254698Y-94860000D01*
X150204918Y-94934502D01*
X150204914Y-94934509D01*
X150148342Y-95071087D01*
X150148340Y-95071093D01*
X150119500Y-95216080D01*
X150119500Y-95216083D01*
X150119500Y-95363917D01*
X150119500Y-95363919D01*
X150119499Y-95363919D01*
X142853784Y-95363919D01*
X142853903Y-95363663D01*
X142915063Y-95135408D01*
X142935659Y-94900000D01*
X142915063Y-94664592D01*
X142868626Y-94491285D01*
X142853905Y-94436344D01*
X142853904Y-94436343D01*
X142853903Y-94436337D01*
X142754035Y-94222171D01*
X142750824Y-94217584D01*
X142618494Y-94028597D01*
X142451402Y-93861506D01*
X142451396Y-93861501D01*
X142265842Y-93731575D01*
X142222217Y-93676998D01*
X142215023Y-93607500D01*
X142246546Y-93545145D01*
X142265842Y-93528425D01*
X142288026Y-93512891D01*
X142451401Y-93398495D01*
X142618495Y-93231401D01*
X142754035Y-93037830D01*
X142853903Y-92823663D01*
X142915063Y-92595408D01*
X142935659Y-92360000D01*
X142915063Y-92124592D01*
X142854582Y-91898872D01*
X142853905Y-91896344D01*
X142853904Y-91896343D01*
X142853903Y-91896337D01*
X142754035Y-91682171D01*
X142690259Y-91591088D01*
X142618494Y-91488597D01*
X142451402Y-91321506D01*
X142451396Y-91321501D01*
X142265842Y-91191575D01*
X142222217Y-91136998D01*
X142215023Y-91067500D01*
X142246546Y-91005145D01*
X142265842Y-90988425D01*
X142370061Y-90915450D01*
X142451401Y-90858495D01*
X142618495Y-90691401D01*
X142754035Y-90497830D01*
X142853903Y-90283663D01*
X142915063Y-90055408D01*
X142935659Y-89820000D01*
X142915063Y-89584592D01*
X142853903Y-89356337D01*
X142754035Y-89142171D01*
X142618495Y-88948599D01*
X142618494Y-88948597D01*
X142451402Y-88781506D01*
X142451396Y-88781501D01*
X142265842Y-88651575D01*
X142222217Y-88596998D01*
X142215023Y-88527500D01*
X142246546Y-88465145D01*
X142265842Y-88448425D01*
X142364387Y-88379423D01*
X142451401Y-88318495D01*
X142618495Y-88151401D01*
X142754035Y-87957830D01*
X142853903Y-87743663D01*
X142915063Y-87515408D01*
X142935659Y-87280000D01*
X142915063Y-87044592D01*
X142853903Y-86816337D01*
X142754035Y-86602171D01*
X142716467Y-86548517D01*
X142618494Y-86408597D01*
X142451402Y-86241506D01*
X142451396Y-86241501D01*
X142265842Y-86111575D01*
X142222217Y-86056998D01*
X142215023Y-85987500D01*
X142246546Y-85925145D01*
X142265842Y-85908425D01*
X142288026Y-85892891D01*
X142451401Y-85778495D01*
X142618495Y-85611401D01*
X142754035Y-85417830D01*
X142853903Y-85203663D01*
X142915063Y-84975408D01*
X142935659Y-84740000D01*
X142933098Y-84710734D01*
X142925259Y-84621128D01*
X142915063Y-84504592D01*
X142853903Y-84276337D01*
X142754035Y-84062171D01*
X142683285Y-83961128D01*
X142618494Y-83868597D01*
X142451402Y-83701506D01*
X142451396Y-83701501D01*
X142265842Y-83571575D01*
X142222217Y-83516998D01*
X142215023Y-83447500D01*
X142246546Y-83385145D01*
X142265842Y-83368425D01*
X142373658Y-83292931D01*
X142451401Y-83238495D01*
X142618495Y-83071401D01*
X142754035Y-82877830D01*
X142853903Y-82663663D01*
X142915063Y-82435408D01*
X142935659Y-82200000D01*
X142915063Y-81964592D01*
X142853903Y-81736337D01*
X142754035Y-81522171D01*
X142753176Y-81520943D01*
X142618494Y-81328597D01*
X142451402Y-81161506D01*
X142451396Y-81161501D01*
X142265842Y-81031575D01*
X142222217Y-80976998D01*
X142215023Y-80907500D01*
X142246546Y-80845145D01*
X142265842Y-80828425D01*
X142333829Y-80780820D01*
X142451401Y-80698495D01*
X142618495Y-80531401D01*
X142754035Y-80337830D01*
X142853903Y-80123663D01*
X142915063Y-79895408D01*
X142935659Y-79660000D01*
X142915063Y-79424592D01*
X142855685Y-79202989D01*
X142853905Y-79196344D01*
X142853904Y-79196343D01*
X142853903Y-79196337D01*
X142754035Y-78982171D01*
X142618495Y-78788599D01*
X142618494Y-78788597D01*
X142451402Y-78621506D01*
X142451396Y-78621501D01*
X142265842Y-78491575D01*
X142222217Y-78436998D01*
X142215023Y-78367500D01*
X142246546Y-78305145D01*
X142265842Y-78288425D01*
X142288026Y-78272891D01*
X142451401Y-78158495D01*
X142618495Y-77991401D01*
X142754035Y-77797830D01*
X142853903Y-77583663D01*
X142915063Y-77355408D01*
X142935659Y-77120000D01*
X142915063Y-76884592D01*
X142853903Y-76656337D01*
X142754035Y-76442171D01*
X142743513Y-76427143D01*
X142618494Y-76248597D01*
X142451402Y-76081506D01*
X142451396Y-76081501D01*
X142265842Y-75951575D01*
X142222217Y-75896998D01*
X142215023Y-75827500D01*
X142246546Y-75765145D01*
X142265842Y-75748425D01*
X142288026Y-75732891D01*
X142451401Y-75618495D01*
X142618495Y-75451401D01*
X142754035Y-75257830D01*
X142853903Y-75043663D01*
X142915063Y-74815408D01*
X142935659Y-74580000D01*
X142915063Y-74344592D01*
X142861449Y-74144500D01*
X142853905Y-74116344D01*
X142853904Y-74116343D01*
X142853903Y-74116337D01*
X142754035Y-73902171D01*
X142730721Y-73868874D01*
X142618494Y-73708597D01*
X142451402Y-73541506D01*
X142451396Y-73541501D01*
X142265842Y-73411575D01*
X142222217Y-73356998D01*
X142215023Y-73287500D01*
X142246546Y-73225145D01*
X142265842Y-73208425D01*
X142393178Y-73119263D01*
X142451401Y-73078495D01*
X142618495Y-72911401D01*
X142754035Y-72717830D01*
X142853903Y-72503663D01*
X142915063Y-72275408D01*
X142935659Y-72040000D01*
X142915063Y-71804592D01*
X142868626Y-71631285D01*
X142853905Y-71576344D01*
X142853904Y-71576343D01*
X142853903Y-71576337D01*
X142754035Y-71362171D01*
X142707760Y-71296082D01*
X142618494Y-71168597D01*
X142451402Y-71001506D01*
X142451396Y-71001501D01*
X142265842Y-70871575D01*
X142222217Y-70816998D01*
X142215023Y-70747500D01*
X142246546Y-70685145D01*
X142265842Y-70668425D01*
X142325094Y-70626936D01*
X142451401Y-70538495D01*
X142618495Y-70371401D01*
X142754035Y-70177830D01*
X142853903Y-69963663D01*
X142881679Y-69860000D01*
X150294355Y-69860000D01*
X150314859Y-70028869D01*
X150314860Y-70028874D01*
X150375182Y-70187931D01*
X150389905Y-70209260D01*
X150471817Y-70327929D01*
X150577505Y-70421560D01*
X150599150Y-70440736D01*
X150749773Y-70519789D01*
X150749775Y-70519790D01*
X150914944Y-70560500D01*
X151085056Y-70560500D01*
X151250225Y-70519790D01*
X151329692Y-70478081D01*
X151400849Y-70440736D01*
X151400850Y-70440734D01*
X151400852Y-70440734D01*
X151528183Y-70327929D01*
X151624818Y-70187930D01*
X151685140Y-70028872D01*
X151705645Y-69860000D01*
X151685140Y-69691128D01*
X151624818Y-69532070D01*
X151622448Y-69528637D01*
X151621489Y-69525727D01*
X151621331Y-69525426D01*
X151621381Y-69525399D01*
X151616240Y-69509810D01*
X151605523Y-69493134D01*
X151601489Y-69465079D01*
X151600567Y-69462283D01*
X151600500Y-69458199D01*
X151600500Y-69210097D01*
X151620185Y-69143058D01*
X151636819Y-69122416D01*
X152017796Y-68741439D01*
X152079119Y-68707954D01*
X152105477Y-68705120D01*
X154220866Y-68705120D01*
X154278491Y-68719323D01*
X154364395Y-68764410D01*
X154529564Y-68805120D01*
X154699676Y-68805120D01*
X154864845Y-68764410D01*
X154972412Y-68707954D01*
X155015469Y-68685356D01*
X155015470Y-68685354D01*
X155015472Y-68685354D01*
X155142803Y-68572549D01*
X155239438Y-68432550D01*
X155299760Y-68273492D01*
X155320265Y-68104620D01*
X155299760Y-67935748D01*
X155239438Y-67776690D01*
X155238330Y-67775085D01*
X155181634Y-67692947D01*
X155142803Y-67636691D01*
X155047936Y-67552646D01*
X155015469Y-67523883D01*
X154864846Y-67444830D01*
X154699676Y-67404120D01*
X154529564Y-67404120D01*
X154364395Y-67444829D01*
X154306791Y-67475063D01*
X154278491Y-67489916D01*
X154220866Y-67504120D01*
X151884437Y-67504120D01*
X151726322Y-67504120D01*
X151573595Y-67545043D01*
X151552160Y-67557418D01*
X151546416Y-67560735D01*
X151546415Y-67560734D01*
X151436667Y-67624097D01*
X151436662Y-67624101D01*
X150519479Y-68541284D01*
X150501682Y-68572110D01*
X150494160Y-68585140D01*
X150440423Y-68678215D01*
X150399499Y-68830943D01*
X150399499Y-68830945D01*
X150399499Y-68999046D01*
X150399500Y-68999059D01*
X150399500Y-69458199D01*
X150379815Y-69525238D01*
X150377551Y-69528638D01*
X150375182Y-69532069D01*
X150314860Y-69691125D01*
X150314859Y-69691130D01*
X150294355Y-69860000D01*
X142881679Y-69860000D01*
X142915063Y-69735408D01*
X142935659Y-69500000D01*
X142935382Y-69496839D01*
X142920499Y-69326723D01*
X142915063Y-69264592D01*
X142853903Y-69036337D01*
X142754035Y-68822171D01*
X142725022Y-68780735D01*
X142618494Y-68628597D01*
X142451402Y-68461506D01*
X142451396Y-68461501D01*
X142265842Y-68331575D01*
X142222217Y-68276998D01*
X142215023Y-68207500D01*
X142246546Y-68145145D01*
X142265842Y-68128425D01*
X142364277Y-68059500D01*
X142451401Y-67998495D01*
X142618495Y-67831401D01*
X142754035Y-67637830D01*
X142853903Y-67423663D01*
X142915063Y-67195408D01*
X142935659Y-66960000D01*
X142915063Y-66724592D01*
X142859453Y-66517049D01*
X142853905Y-66496344D01*
X142853904Y-66496343D01*
X142853903Y-66496337D01*
X142754035Y-66282171D01*
X142725295Y-66241125D01*
X142618494Y-66088597D01*
X142451402Y-65921506D01*
X142451396Y-65921501D01*
X142265842Y-65791575D01*
X142222217Y-65736998D01*
X142215023Y-65667500D01*
X142246546Y-65605145D01*
X142265842Y-65588425D01*
X142299942Y-65564548D01*
X142451401Y-65458495D01*
X142618495Y-65291401D01*
X142754035Y-65097830D01*
X142853903Y-64883663D01*
X142915063Y-64655408D01*
X142935659Y-64420000D01*
X142915063Y-64184592D01*
X142853903Y-63956337D01*
X142754035Y-63742171D01*
X142640350Y-63579812D01*
X142618496Y-63548600D01*
X142557606Y-63487710D01*
X142496567Y-63426671D01*
X142463084Y-63365351D01*
X142468068Y-63295659D01*
X142509939Y-63239725D01*
X142540915Y-63222810D01*
X142672331Y-63173796D01*
X142787546Y-63087546D01*
X142873796Y-62972331D01*
X142924091Y-62837483D01*
X142930500Y-62777873D01*
X142930499Y-60982128D01*
X142924091Y-60922517D01*
X142919774Y-60910943D01*
X142873797Y-60787671D01*
X142873793Y-60787664D01*
X142787547Y-60672455D01*
X142787544Y-60672452D01*
X142672335Y-60586206D01*
X142672328Y-60586202D01*
X142537482Y-60535908D01*
X142537483Y-60535908D01*
X142477883Y-60529501D01*
X142477881Y-60529500D01*
X142477873Y-60529500D01*
X142477865Y-60529500D01*
X142157742Y-60529500D01*
X142149857Y-60527184D01*
X142141742Y-60528463D01*
X142116826Y-60517485D01*
X142090703Y-60509815D01*
X142085322Y-60503606D01*
X142077803Y-60500293D01*
X142062775Y-60477584D01*
X142044948Y-60457011D01*
X142043778Y-60448879D01*
X142039244Y-60442027D01*
X142038878Y-60414801D01*
X142035004Y-60387853D01*
X142038417Y-60380379D01*
X142038307Y-60372163D01*
X142052719Y-60349062D01*
X142064029Y-60324297D01*
X142071894Y-60318326D01*
X142075290Y-60312884D01*
X142104723Y-60293406D01*
X142104809Y-60293365D01*
X142155315Y-60269477D01*
X142166525Y-60264835D01*
X142478412Y-60153239D01*
X142490043Y-60149710D01*
X142811385Y-60069218D01*
X142823296Y-60066849D01*
X143150962Y-60018244D01*
X143163068Y-60017052D01*
X143496967Y-60000648D01*
X143503051Y-60000500D01*
X143565892Y-60000500D01*
X151960884Y-60000500D01*
X152027923Y-60020185D01*
G37*
%TD.AperFunction*%
%TD*%
%TA.AperFunction,NonConductor*%
G36*
X140200943Y-62884663D02*
G01*
X140259552Y-62922699D01*
X140281659Y-62960148D01*
X140286201Y-62972325D01*
X140286206Y-62972335D01*
X140372452Y-63087544D01*
X140372455Y-63087547D01*
X140487664Y-63173793D01*
X140487671Y-63173797D01*
X140619081Y-63222810D01*
X140675015Y-63264681D01*
X140699432Y-63330145D01*
X140684580Y-63398418D01*
X140663430Y-63426673D01*
X140541503Y-63548600D01*
X140405965Y-63742169D01*
X140405964Y-63742171D01*
X140306098Y-63956335D01*
X140306094Y-63956344D01*
X140244275Y-64187062D01*
X140207910Y-64246723D01*
X140145063Y-64277252D01*
X140075688Y-64268957D01*
X140021810Y-64224472D01*
X140000535Y-64157920D01*
X140000500Y-64154969D01*
X140000500Y-63503051D01*
X140000649Y-63496967D01*
X140017052Y-63163072D01*
X140018245Y-63150962D01*
X140042820Y-62985289D01*
X140072128Y-62921863D01*
X140131074Y-62884351D01*
X140200943Y-62884663D01*
G37*
%TD.AperFunction*%
%TA.AperFunction,NonConductor*%
G36*
X140205703Y-64591317D02*
G01*
X140243477Y-64650095D01*
X140244275Y-64652937D01*
X140306094Y-64883655D01*
X140306096Y-64883659D01*
X140306097Y-64883663D01*
X140340932Y-64958367D01*
X140405965Y-65097830D01*
X140405967Y-65097834D01*
X140541501Y-65291395D01*
X140541506Y-65291402D01*
X140708597Y-65458493D01*
X140708603Y-65458498D01*
X140894158Y-65588425D01*
X140937783Y-65643002D01*
X140944977Y-65712500D01*
X140913454Y-65774855D01*
X140894158Y-65791575D01*
X140708597Y-65921505D01*
X140541505Y-66088597D01*
X140405965Y-66282169D01*
X140405964Y-66282171D01*
X140306098Y-66496335D01*
X140306094Y-66496344D01*
X140244275Y-66727062D01*
X140207910Y-66786723D01*
X140145063Y-66817252D01*
X140075688Y-66808957D01*
X140021810Y-66764472D01*
X140000535Y-66697920D01*
X140000500Y-66694969D01*
X140000500Y-64685030D01*
X140020185Y-64617991D01*
X140072989Y-64572236D01*
X140142147Y-64562292D01*
X140205703Y-64591317D01*
G37*
%TD.AperFunction*%
%TA.AperFunction,NonConductor*%
G36*
X140205703Y-67131317D02*
G01*
X140243477Y-67190095D01*
X140244275Y-67192937D01*
X140306094Y-67423655D01*
X140306096Y-67423659D01*
X140306097Y-67423663D01*
X140370015Y-67560735D01*
X140405965Y-67637830D01*
X140405967Y-67637834D01*
X140503196Y-67776690D01*
X140534681Y-67821656D01*
X140541501Y-67831395D01*
X140541506Y-67831402D01*
X140708597Y-67998493D01*
X140708603Y-67998498D01*
X140894158Y-68128425D01*
X140937783Y-68183002D01*
X140944977Y-68252500D01*
X140913454Y-68314855D01*
X140894158Y-68331575D01*
X140708597Y-68461505D01*
X140541505Y-68628597D01*
X140405965Y-68822169D01*
X140405964Y-68822171D01*
X140306098Y-69036335D01*
X140306094Y-69036344D01*
X140244275Y-69267062D01*
X140207910Y-69326723D01*
X140145063Y-69357252D01*
X140075688Y-69348957D01*
X140021810Y-69304472D01*
X140000535Y-69237920D01*
X140000500Y-69234969D01*
X140000500Y-67225030D01*
X140020185Y-67157991D01*
X140072989Y-67112236D01*
X140142147Y-67102292D01*
X140205703Y-67131317D01*
G37*
%TD.AperFunction*%
%TA.AperFunction,NonConductor*%
G36*
X140205703Y-69671317D02*
G01*
X140243477Y-69730095D01*
X140244275Y-69732937D01*
X140306094Y-69963655D01*
X140306096Y-69963659D01*
X140306097Y-69963663D01*
X140389360Y-70142221D01*
X140405965Y-70177830D01*
X140405967Y-70177834D01*
X140541501Y-70371395D01*
X140541506Y-70371402D01*
X140708597Y-70538493D01*
X140708603Y-70538498D01*
X140894158Y-70668425D01*
X140937783Y-70723002D01*
X140944977Y-70792500D01*
X140913454Y-70854855D01*
X140894158Y-70871575D01*
X140708597Y-71001505D01*
X140541505Y-71168597D01*
X140405965Y-71362169D01*
X140405964Y-71362171D01*
X140306098Y-71576335D01*
X140306094Y-71576344D01*
X140244275Y-71807062D01*
X140207910Y-71866723D01*
X140145063Y-71897252D01*
X140075688Y-71888957D01*
X140021810Y-71844472D01*
X140000535Y-71777920D01*
X140000500Y-71774969D01*
X140000500Y-69765030D01*
X140020185Y-69697991D01*
X140072989Y-69652236D01*
X140142147Y-69642292D01*
X140205703Y-69671317D01*
G37*
%TD.AperFunction*%
%TA.AperFunction,NonConductor*%
G36*
X140205703Y-72211317D02*
G01*
X140243477Y-72270095D01*
X140244275Y-72272937D01*
X140306094Y-72503655D01*
X140306096Y-72503659D01*
X140306097Y-72503663D01*
X140375048Y-72651529D01*
X140405965Y-72717830D01*
X140405967Y-72717834D01*
X140541501Y-72911395D01*
X140541506Y-72911402D01*
X140708597Y-73078493D01*
X140708603Y-73078498D01*
X140894158Y-73208425D01*
X140937783Y-73263002D01*
X140944977Y-73332500D01*
X140913454Y-73394855D01*
X140894158Y-73411575D01*
X140708597Y-73541505D01*
X140541505Y-73708597D01*
X140405965Y-73902169D01*
X140405964Y-73902171D01*
X140306098Y-74116335D01*
X140306094Y-74116344D01*
X140244275Y-74347062D01*
X140207910Y-74406723D01*
X140145063Y-74437252D01*
X140075688Y-74428957D01*
X140021810Y-74384472D01*
X140000535Y-74317920D01*
X140000500Y-74314969D01*
X140000500Y-72305030D01*
X140020185Y-72237991D01*
X140072989Y-72192236D01*
X140142147Y-72182292D01*
X140205703Y-72211317D01*
G37*
%TD.AperFunction*%
%TA.AperFunction,NonConductor*%
G36*
X140205703Y-74751317D02*
G01*
X140243477Y-74810095D01*
X140244275Y-74812937D01*
X140306094Y-75043655D01*
X140306096Y-75043659D01*
X140306097Y-75043663D01*
X140405965Y-75257830D01*
X140405967Y-75257834D01*
X140541501Y-75451395D01*
X140541506Y-75451402D01*
X140708597Y-75618493D01*
X140708603Y-75618498D01*
X140894158Y-75748425D01*
X140937783Y-75803002D01*
X140944977Y-75872500D01*
X140913454Y-75934855D01*
X140894158Y-75951575D01*
X140708597Y-76081505D01*
X140541505Y-76248597D01*
X140405965Y-76442169D01*
X140405964Y-76442171D01*
X140306098Y-76656335D01*
X140306094Y-76656344D01*
X140244275Y-76887062D01*
X140207910Y-76946723D01*
X140145063Y-76977252D01*
X140075688Y-76968957D01*
X140021810Y-76924472D01*
X140000535Y-76857920D01*
X140000500Y-76854969D01*
X140000500Y-74845030D01*
X140020185Y-74777991D01*
X140072989Y-74732236D01*
X140142147Y-74722292D01*
X140205703Y-74751317D01*
G37*
%TD.AperFunction*%
%TA.AperFunction,NonConductor*%
G36*
X140205703Y-77291317D02*
G01*
X140243477Y-77350095D01*
X140244275Y-77352937D01*
X140306094Y-77583655D01*
X140306096Y-77583659D01*
X140306097Y-77583663D01*
X140362911Y-77705500D01*
X140405965Y-77797830D01*
X140405967Y-77797834D01*
X140541501Y-77991395D01*
X140541506Y-77991402D01*
X140708597Y-78158493D01*
X140708603Y-78158498D01*
X140894158Y-78288425D01*
X140937783Y-78343002D01*
X140944977Y-78412500D01*
X140913454Y-78474855D01*
X140894158Y-78491575D01*
X140708597Y-78621505D01*
X140541505Y-78788597D01*
X140405965Y-78982169D01*
X140405964Y-78982171D01*
X140306098Y-79196335D01*
X140306094Y-79196344D01*
X140244275Y-79427062D01*
X140207910Y-79486723D01*
X140145063Y-79517252D01*
X140075688Y-79508957D01*
X140021810Y-79464472D01*
X140000535Y-79397920D01*
X140000500Y-79394969D01*
X140000500Y-77385030D01*
X140020185Y-77317991D01*
X140072989Y-77272236D01*
X140142147Y-77262292D01*
X140205703Y-77291317D01*
G37*
%TD.AperFunction*%
%TA.AperFunction,NonConductor*%
G36*
X140205703Y-79831317D02*
G01*
X140243477Y-79890095D01*
X140244275Y-79892937D01*
X140306094Y-80123655D01*
X140306096Y-80123659D01*
X140306097Y-80123663D01*
X140391064Y-80305875D01*
X140405965Y-80337830D01*
X140405967Y-80337834D01*
X140541501Y-80531395D01*
X140541506Y-80531402D01*
X140708597Y-80698493D01*
X140708603Y-80698498D01*
X140894158Y-80828425D01*
X140937783Y-80883002D01*
X140944977Y-80952500D01*
X140913454Y-81014855D01*
X140894158Y-81031575D01*
X140708597Y-81161505D01*
X140541505Y-81328597D01*
X140405965Y-81522169D01*
X140405964Y-81522171D01*
X140306098Y-81736335D01*
X140306094Y-81736344D01*
X140244275Y-81967062D01*
X140207910Y-82026723D01*
X140145063Y-82057252D01*
X140075688Y-82048957D01*
X140021810Y-82004472D01*
X140000535Y-81937920D01*
X140000500Y-81934969D01*
X140000500Y-79925030D01*
X140020185Y-79857991D01*
X140072989Y-79812236D01*
X140142147Y-79802292D01*
X140205703Y-79831317D01*
G37*
%TD.AperFunction*%
%TA.AperFunction,NonConductor*%
G36*
X140205703Y-82371317D02*
G01*
X140243477Y-82430095D01*
X140244275Y-82432937D01*
X140306094Y-82663655D01*
X140306096Y-82663659D01*
X140306097Y-82663663D01*
X140403246Y-82871999D01*
X140405965Y-82877830D01*
X140405967Y-82877834D01*
X140541501Y-83071395D01*
X140541506Y-83071402D01*
X140708597Y-83238493D01*
X140708603Y-83238498D01*
X140894158Y-83368425D01*
X140937783Y-83423002D01*
X140944977Y-83492500D01*
X140913454Y-83554855D01*
X140894158Y-83571575D01*
X140708597Y-83701505D01*
X140541505Y-83868597D01*
X140405965Y-84062169D01*
X140405964Y-84062171D01*
X140306098Y-84276335D01*
X140306094Y-84276344D01*
X140244275Y-84507062D01*
X140207910Y-84566723D01*
X140145063Y-84597252D01*
X140075688Y-84588957D01*
X140021810Y-84544472D01*
X140000535Y-84477920D01*
X140000500Y-84474969D01*
X140000500Y-82465030D01*
X140020185Y-82397991D01*
X140072989Y-82352236D01*
X140142147Y-82342292D01*
X140205703Y-82371317D01*
G37*
%TD.AperFunction*%
%TA.AperFunction,NonConductor*%
G36*
X140205703Y-84911317D02*
G01*
X140243477Y-84970095D01*
X140244275Y-84972937D01*
X140306094Y-85203655D01*
X140306096Y-85203659D01*
X140306097Y-85203663D01*
X140395621Y-85395647D01*
X140405965Y-85417830D01*
X140405967Y-85417834D01*
X140541501Y-85611395D01*
X140541506Y-85611402D01*
X140708597Y-85778493D01*
X140708603Y-85778498D01*
X140894158Y-85908425D01*
X140937783Y-85963002D01*
X140944977Y-86032500D01*
X140913454Y-86094855D01*
X140894158Y-86111575D01*
X140708597Y-86241505D01*
X140541505Y-86408597D01*
X140405965Y-86602169D01*
X140405964Y-86602171D01*
X140306098Y-86816335D01*
X140306094Y-86816344D01*
X140244275Y-87047062D01*
X140207910Y-87106723D01*
X140145063Y-87137252D01*
X140075688Y-87128957D01*
X140021810Y-87084472D01*
X140000535Y-87017920D01*
X140000500Y-87014969D01*
X140000500Y-85005030D01*
X140020185Y-84937991D01*
X140072989Y-84892236D01*
X140142147Y-84882292D01*
X140205703Y-84911317D01*
G37*
%TD.AperFunction*%
%TA.AperFunction,NonConductor*%
G36*
X140205703Y-87451317D02*
G01*
X140243477Y-87510095D01*
X140244275Y-87512937D01*
X140244936Y-87515407D01*
X140244937Y-87515408D01*
X140250281Y-87535351D01*
X140306094Y-87743655D01*
X140306096Y-87743659D01*
X140306097Y-87743663D01*
X140328086Y-87790818D01*
X140405965Y-87957830D01*
X140405967Y-87957834D01*
X140453352Y-88025506D01*
X140535821Y-88143284D01*
X140541501Y-88151395D01*
X140541506Y-88151402D01*
X140708597Y-88318493D01*
X140708603Y-88318498D01*
X140894158Y-88448425D01*
X140937783Y-88503002D01*
X140944977Y-88572500D01*
X140913454Y-88634855D01*
X140894158Y-88651575D01*
X140708597Y-88781505D01*
X140541505Y-88948597D01*
X140405965Y-89142169D01*
X140405964Y-89142171D01*
X140306098Y-89356335D01*
X140306094Y-89356344D01*
X140244275Y-89587062D01*
X140207910Y-89646723D01*
X140145063Y-89677252D01*
X140075688Y-89668957D01*
X140021810Y-89624472D01*
X140000535Y-89557920D01*
X140000500Y-89554969D01*
X140000500Y-87545030D01*
X140020185Y-87477991D01*
X140072989Y-87432236D01*
X140142147Y-87422292D01*
X140205703Y-87451317D01*
G37*
%TD.AperFunction*%
%TA.AperFunction,NonConductor*%
G36*
X140205703Y-89991317D02*
G01*
X140243477Y-90050095D01*
X140244275Y-90052937D01*
X140306094Y-90283655D01*
X140306096Y-90283659D01*
X140306097Y-90283663D01*
X140384626Y-90452068D01*
X140405965Y-90497830D01*
X140405967Y-90497834D01*
X140541501Y-90691395D01*
X140541506Y-90691402D01*
X140708597Y-90858493D01*
X140708603Y-90858498D01*
X140894158Y-90988425D01*
X140937783Y-91043002D01*
X140944977Y-91112500D01*
X140913454Y-91174855D01*
X140894158Y-91191575D01*
X140708597Y-91321505D01*
X140541505Y-91488597D01*
X140405965Y-91682169D01*
X140405964Y-91682171D01*
X140306098Y-91896335D01*
X140306094Y-91896344D01*
X140244275Y-92127062D01*
X140207910Y-92186723D01*
X140145063Y-92217252D01*
X140075688Y-92208957D01*
X140021810Y-92164472D01*
X140000535Y-92097920D01*
X140000500Y-92094969D01*
X140000500Y-90085030D01*
X140020185Y-90017991D01*
X140072989Y-89972236D01*
X140142147Y-89962292D01*
X140205703Y-89991317D01*
G37*
%TD.AperFunction*%
%TA.AperFunction,NonConductor*%
G36*
X140205703Y-92531317D02*
G01*
X140243477Y-92590095D01*
X140244275Y-92592937D01*
X140306094Y-92823655D01*
X140306096Y-92823659D01*
X140306097Y-92823663D01*
X140374577Y-92970519D01*
X140405965Y-93037830D01*
X140405967Y-93037834D01*
X140541501Y-93231395D01*
X140541506Y-93231402D01*
X140708597Y-93398493D01*
X140708603Y-93398498D01*
X140894158Y-93528425D01*
X140937783Y-93583002D01*
X140944977Y-93652500D01*
X140913454Y-93714855D01*
X140894158Y-93731575D01*
X140708597Y-93861505D01*
X140541505Y-94028597D01*
X140405965Y-94222169D01*
X140405964Y-94222171D01*
X140306098Y-94436335D01*
X140306094Y-94436344D01*
X140244275Y-94667062D01*
X140207910Y-94726723D01*
X140145063Y-94757252D01*
X140075688Y-94748957D01*
X140021810Y-94704472D01*
X140000535Y-94637920D01*
X140000500Y-94634969D01*
X140000500Y-92625030D01*
X140020185Y-92557991D01*
X140072989Y-92512236D01*
X140142147Y-92502292D01*
X140205703Y-92531317D01*
G37*
%TD.AperFunction*%
%TA.AperFunction,NonConductor*%
G36*
X140205703Y-95071317D02*
G01*
X140243477Y-95130095D01*
X140244275Y-95132937D01*
X140306094Y-95363655D01*
X140306096Y-95363659D01*
X140306097Y-95363663D01*
X140397884Y-95560500D01*
X140405965Y-95577830D01*
X140405967Y-95577834D01*
X140455050Y-95647931D01*
X140539418Y-95768421D01*
X140541501Y-95771395D01*
X140541506Y-95771402D01*
X140708597Y-95938493D01*
X140708603Y-95938498D01*
X140894158Y-96068425D01*
X140937783Y-96123002D01*
X140944977Y-96192500D01*
X140913454Y-96254855D01*
X140894158Y-96271575D01*
X140708597Y-96401505D01*
X140541505Y-96568597D01*
X140405965Y-96762169D01*
X140405964Y-96762171D01*
X140306098Y-96976335D01*
X140306094Y-96976344D01*
X140244275Y-97207062D01*
X140207910Y-97266723D01*
X140145063Y-97297252D01*
X140075688Y-97288957D01*
X140021810Y-97244472D01*
X140000535Y-97177920D01*
X140000500Y-97174969D01*
X140000500Y-95165030D01*
X140020185Y-95097991D01*
X140072989Y-95052236D01*
X140142147Y-95042292D01*
X140205703Y-95071317D01*
G37*
%TD.AperFunction*%
%TA.AperFunction,NonConductor*%
G36*
X140205703Y-97611317D02*
G01*
X140243477Y-97670095D01*
X140244275Y-97672937D01*
X140306094Y-97903655D01*
X140306096Y-97903659D01*
X140306097Y-97903663D01*
X140353594Y-98005520D01*
X140405965Y-98117830D01*
X140405967Y-98117834D01*
X140541501Y-98311395D01*
X140541506Y-98311402D01*
X140708597Y-98478493D01*
X140708603Y-98478498D01*
X140894158Y-98608425D01*
X140937783Y-98663002D01*
X140944977Y-98732500D01*
X140913454Y-98794855D01*
X140894158Y-98811575D01*
X140708597Y-98941505D01*
X140541508Y-99108594D01*
X140442691Y-99249720D01*
X140433432Y-99257120D01*
X140427615Y-99267443D01*
X140406646Y-99278531D01*
X140388114Y-99293344D01*
X140376325Y-99294564D01*
X140365849Y-99300104D01*
X140342210Y-99298094D01*
X140318615Y-99300537D01*
X140308039Y-99295190D01*
X140296231Y-99294187D01*
X140277431Y-99279717D01*
X140256261Y-99269015D01*
X140248857Y-99257724D01*
X140240863Y-99251571D01*
X140224368Y-99220378D01*
X140153234Y-99021574D01*
X140149707Y-99009944D01*
X140140958Y-98975015D01*
X140069219Y-98688617D01*
X140066848Y-98676694D01*
X140061749Y-98642321D01*
X140018245Y-98349037D01*
X140017052Y-98336927D01*
X140010043Y-98194263D01*
X140000649Y-98003032D01*
X140000500Y-97996948D01*
X140000500Y-97705030D01*
X140020185Y-97637991D01*
X140072989Y-97592236D01*
X140142147Y-97582292D01*
X140205703Y-97611317D01*
G37*
%TD.AperFunction*%
%TA.AperFunction,NonConductor*%
G36*
X193125702Y-61958311D02*
G01*
X193156594Y-61999007D01*
X193217765Y-62128343D01*
X193230514Y-62155297D01*
X193235170Y-62166540D01*
X193346759Y-62478411D01*
X193350292Y-62490055D01*
X193430777Y-62811369D01*
X193433151Y-62823305D01*
X193481754Y-63150962D01*
X193482947Y-63163071D01*
X193499351Y-63496966D01*
X193499500Y-63503051D01*
X193499500Y-97996948D01*
X193499351Y-98003033D01*
X193482947Y-98336928D01*
X193481754Y-98349037D01*
X193433151Y-98676694D01*
X193430777Y-98688630D01*
X193350292Y-99009944D01*
X193346759Y-99021588D01*
X193235170Y-99333459D01*
X193230514Y-99344702D01*
X193098798Y-99623192D01*
X193052340Y-99675379D01*
X192985043Y-99694164D01*
X192918273Y-99673584D01*
X192873229Y-99620172D01*
X192866928Y-99602268D01*
X192843905Y-99516344D01*
X192843904Y-99516343D01*
X192843903Y-99516337D01*
X192744035Y-99302171D01*
X192741426Y-99298444D01*
X192608494Y-99108597D01*
X192441402Y-98941506D01*
X192441396Y-98941501D01*
X192255842Y-98811575D01*
X192212217Y-98756998D01*
X192205023Y-98687500D01*
X192236546Y-98625145D01*
X192255842Y-98608425D01*
X192407371Y-98502323D01*
X192441401Y-98478495D01*
X192608495Y-98311401D01*
X192744035Y-98117830D01*
X192843903Y-97903663D01*
X192905063Y-97675408D01*
X192925659Y-97440000D01*
X192905063Y-97204592D01*
X192843903Y-96976337D01*
X192744035Y-96762171D01*
X192608495Y-96568599D01*
X192608494Y-96568597D01*
X192441402Y-96401506D01*
X192441396Y-96401501D01*
X192255842Y-96271575D01*
X192212217Y-96216998D01*
X192205023Y-96147500D01*
X192236546Y-96085145D01*
X192255842Y-96068425D01*
X192336912Y-96011659D01*
X192441401Y-95938495D01*
X192608495Y-95771401D01*
X192744035Y-95577830D01*
X192843903Y-95363663D01*
X192905063Y-95135408D01*
X192925659Y-94900000D01*
X192905063Y-94664592D01*
X192858626Y-94491285D01*
X192843905Y-94436344D01*
X192843904Y-94436343D01*
X192843903Y-94436337D01*
X192744035Y-94222171D01*
X192740824Y-94217584D01*
X192608494Y-94028597D01*
X192441402Y-93861506D01*
X192441396Y-93861501D01*
X192255842Y-93731575D01*
X192212217Y-93676998D01*
X192205023Y-93607500D01*
X192236546Y-93545145D01*
X192255842Y-93528425D01*
X192278026Y-93512891D01*
X192441401Y-93398495D01*
X192608495Y-93231401D01*
X192744035Y-93037830D01*
X192843903Y-92823663D01*
X192905063Y-92595408D01*
X192925659Y-92360000D01*
X192905063Y-92124592D01*
X192844582Y-91898872D01*
X192843905Y-91896344D01*
X192843904Y-91896343D01*
X192843903Y-91896337D01*
X192744035Y-91682171D01*
X192680259Y-91591088D01*
X192608494Y-91488597D01*
X192441402Y-91321506D01*
X192441396Y-91321501D01*
X192255842Y-91191575D01*
X192212217Y-91136998D01*
X192205023Y-91067500D01*
X192236546Y-91005145D01*
X192255842Y-90988425D01*
X192360061Y-90915450D01*
X192441401Y-90858495D01*
X192608495Y-90691401D01*
X192744035Y-90497830D01*
X192843903Y-90283663D01*
X192905063Y-90055408D01*
X192925659Y-89820000D01*
X192905063Y-89584592D01*
X192843903Y-89356337D01*
X192744035Y-89142171D01*
X192608495Y-88948599D01*
X192608494Y-88948597D01*
X192441402Y-88781506D01*
X192441396Y-88781501D01*
X192255842Y-88651575D01*
X192212217Y-88596998D01*
X192205023Y-88527500D01*
X192236546Y-88465145D01*
X192255842Y-88448425D01*
X192354387Y-88379423D01*
X192441401Y-88318495D01*
X192608495Y-88151401D01*
X192744035Y-87957830D01*
X192843903Y-87743663D01*
X192905063Y-87515408D01*
X192925659Y-87280000D01*
X192905063Y-87044592D01*
X192843903Y-86816337D01*
X192744035Y-86602171D01*
X192706467Y-86548517D01*
X192608494Y-86408597D01*
X192441402Y-86241506D01*
X192441396Y-86241501D01*
X192255842Y-86111575D01*
X192212217Y-86056998D01*
X192205023Y-85987500D01*
X192236546Y-85925145D01*
X192255842Y-85908425D01*
X192278026Y-85892891D01*
X192441401Y-85778495D01*
X192608495Y-85611401D01*
X192744035Y-85417830D01*
X192843903Y-85203663D01*
X192905063Y-84975408D01*
X192925659Y-84740000D01*
X192923098Y-84710734D01*
X192915259Y-84621128D01*
X192905063Y-84504592D01*
X192843903Y-84276337D01*
X192744035Y-84062171D01*
X192673285Y-83961128D01*
X192608494Y-83868597D01*
X192441402Y-83701506D01*
X192441396Y-83701501D01*
X192255842Y-83571575D01*
X192212217Y-83516998D01*
X192205023Y-83447500D01*
X192236546Y-83385145D01*
X192255842Y-83368425D01*
X192363658Y-83292931D01*
X192441401Y-83238495D01*
X192608495Y-83071401D01*
X192744035Y-82877830D01*
X192843903Y-82663663D01*
X192905063Y-82435408D01*
X192925659Y-82200000D01*
X192905063Y-81964592D01*
X192843903Y-81736337D01*
X192744035Y-81522171D01*
X192743176Y-81520943D01*
X192608494Y-81328597D01*
X192441402Y-81161506D01*
X192441396Y-81161501D01*
X192255842Y-81031575D01*
X192212217Y-80976998D01*
X192205023Y-80907500D01*
X192236546Y-80845145D01*
X192255842Y-80828425D01*
X192323829Y-80780820D01*
X192441401Y-80698495D01*
X192608495Y-80531401D01*
X192744035Y-80337830D01*
X192843903Y-80123663D01*
X192905063Y-79895408D01*
X192925659Y-79660000D01*
X192905063Y-79424592D01*
X192845685Y-79202989D01*
X192843905Y-79196344D01*
X192843904Y-79196343D01*
X192843903Y-79196337D01*
X192744035Y-78982171D01*
X192608495Y-78788599D01*
X192608494Y-78788597D01*
X192441402Y-78621506D01*
X192441396Y-78621501D01*
X192255842Y-78491575D01*
X192212217Y-78436998D01*
X192205023Y-78367500D01*
X192236546Y-78305145D01*
X192255842Y-78288425D01*
X192278026Y-78272891D01*
X192441401Y-78158495D01*
X192608495Y-77991401D01*
X192744035Y-77797830D01*
X192843903Y-77583663D01*
X192905063Y-77355408D01*
X192925659Y-77120000D01*
X192905063Y-76884592D01*
X192843903Y-76656337D01*
X192744035Y-76442171D01*
X192733513Y-76427143D01*
X192608494Y-76248597D01*
X192441402Y-76081506D01*
X192441396Y-76081501D01*
X192255842Y-75951575D01*
X192212217Y-75896998D01*
X192205023Y-75827500D01*
X192236546Y-75765145D01*
X192255842Y-75748425D01*
X192278026Y-75732891D01*
X192441401Y-75618495D01*
X192608495Y-75451401D01*
X192744035Y-75257830D01*
X192843903Y-75043663D01*
X192905063Y-74815408D01*
X192925659Y-74580000D01*
X192905063Y-74344592D01*
X192851449Y-74144500D01*
X192843905Y-74116344D01*
X192843904Y-74116343D01*
X192843903Y-74116337D01*
X192744035Y-73902171D01*
X192720721Y-73868874D01*
X192608494Y-73708597D01*
X192441402Y-73541506D01*
X192441396Y-73541501D01*
X192255842Y-73411575D01*
X192212217Y-73356998D01*
X192205023Y-73287500D01*
X192236546Y-73225145D01*
X192255842Y-73208425D01*
X192383178Y-73119263D01*
X192441401Y-73078495D01*
X192608495Y-72911401D01*
X192744035Y-72717830D01*
X192843903Y-72503663D01*
X192905063Y-72275408D01*
X192925659Y-72040000D01*
X192905063Y-71804592D01*
X192858626Y-71631285D01*
X192843905Y-71576344D01*
X192843904Y-71576343D01*
X192843903Y-71576337D01*
X192744035Y-71362171D01*
X192697760Y-71296082D01*
X192608494Y-71168597D01*
X192441402Y-71001506D01*
X192441396Y-71001501D01*
X192255842Y-70871575D01*
X192212217Y-70816998D01*
X192205023Y-70747500D01*
X192236546Y-70685145D01*
X192255842Y-70668425D01*
X192315094Y-70626936D01*
X192441401Y-70538495D01*
X192608495Y-70371401D01*
X192744035Y-70177830D01*
X192843903Y-69963663D01*
X192905063Y-69735408D01*
X192925659Y-69500000D01*
X192925382Y-69496839D01*
X192910499Y-69326723D01*
X192905063Y-69264592D01*
X192843903Y-69036337D01*
X192744035Y-68822171D01*
X192715022Y-68780735D01*
X192608494Y-68628597D01*
X192441402Y-68461506D01*
X192441396Y-68461501D01*
X192255842Y-68331575D01*
X192212217Y-68276998D01*
X192205023Y-68207500D01*
X192236546Y-68145145D01*
X192255842Y-68128425D01*
X192354277Y-68059500D01*
X192441401Y-67998495D01*
X192608495Y-67831401D01*
X192744035Y-67637830D01*
X192843903Y-67423663D01*
X192905063Y-67195408D01*
X192925659Y-66960000D01*
X192905063Y-66724592D01*
X192849453Y-66517049D01*
X192843905Y-66496344D01*
X192843904Y-66496343D01*
X192843903Y-66496337D01*
X192744035Y-66282171D01*
X192715295Y-66241125D01*
X192608494Y-66088597D01*
X192441402Y-65921506D01*
X192441396Y-65921501D01*
X192255842Y-65791575D01*
X192212217Y-65736998D01*
X192205023Y-65667500D01*
X192236546Y-65605145D01*
X192255842Y-65588425D01*
X192289942Y-65564548D01*
X192441401Y-65458495D01*
X192608495Y-65291401D01*
X192744035Y-65097830D01*
X192843903Y-64883663D01*
X192905063Y-64655408D01*
X192925659Y-64420000D01*
X192905063Y-64184592D01*
X192843903Y-63956337D01*
X192744035Y-63742171D01*
X192630350Y-63579812D01*
X192608496Y-63548600D01*
X192547606Y-63487710D01*
X192486567Y-63426671D01*
X192453084Y-63365351D01*
X192458068Y-63295659D01*
X192499939Y-63239725D01*
X192530915Y-63222810D01*
X192662331Y-63173796D01*
X192777546Y-63087546D01*
X192863796Y-62972331D01*
X192914091Y-62837483D01*
X192920500Y-62777873D01*
X192920499Y-62052022D01*
X192940183Y-61984985D01*
X192992987Y-61939230D01*
X193062146Y-61929286D01*
X193125702Y-61958311D01*
G37*
%TD.AperFunction*%
%TA.AperFunction,NonConductor*%
G36*
X172142231Y-70950185D02*
G01*
X172187986Y-71002989D01*
X172197930Y-71072147D01*
X172168905Y-71135703D01*
X172155648Y-71144961D01*
X172155062Y-71145996D01*
X172126469Y-71166685D01*
X172126474Y-71166694D01*
X172119790Y-71170206D01*
X172119775Y-71170210D01*
X171969148Y-71249266D01*
X171968856Y-71249524D01*
X171961900Y-71253180D01*
X171934673Y-71258649D01*
X171908299Y-71267347D01*
X171904216Y-71267414D01*
X167797204Y-71267414D01*
X167730165Y-71247729D01*
X167709523Y-71231095D01*
X167620609Y-71142181D01*
X167587124Y-71080858D01*
X167592108Y-71011166D01*
X167633980Y-70955233D01*
X167699444Y-70930816D01*
X167708290Y-70930500D01*
X172075192Y-70930500D01*
X172142231Y-70950185D01*
G37*
%TD.AperFunction*%
%TA.AperFunction,NonConductor*%
G36*
X161992703Y-71790185D02*
G01*
X162038458Y-71842989D01*
X162048402Y-71912147D01*
X162027713Y-71964941D01*
X161995183Y-72012066D01*
X161995182Y-72012068D01*
X161934860Y-72171125D01*
X161934859Y-72171130D01*
X161914355Y-72340000D01*
X161934859Y-72508869D01*
X161934859Y-72508871D01*
X161934860Y-72508872D01*
X161956289Y-72565377D01*
X161988962Y-72651529D01*
X161994329Y-72721193D01*
X161961181Y-72782699D01*
X161900043Y-72816520D01*
X161873020Y-72819500D01*
X160723754Y-72819500D01*
X160715843Y-72817942D01*
X160710976Y-72818840D01*
X160693316Y-72813507D01*
X160676744Y-72810244D01*
X160671326Y-72808024D01*
X160580225Y-72760210D01*
X160515947Y-72744366D01*
X160507490Y-72740902D01*
X160487054Y-72724563D01*
X160464444Y-72711399D01*
X160460200Y-72703093D01*
X160452918Y-72697271D01*
X160444559Y-72672478D01*
X160432656Y-72649179D01*
X160431098Y-72632551D01*
X160430597Y-72631063D01*
X160430860Y-72630011D01*
X160430500Y-72626158D01*
X160430500Y-72288489D01*
X160450185Y-72221450D01*
X160502989Y-72175695D01*
X160524823Y-72168092D01*
X160680225Y-72129790D01*
X160759692Y-72088081D01*
X160830849Y-72050736D01*
X160830850Y-72050734D01*
X160830852Y-72050734D01*
X160958183Y-71937929D01*
X161036782Y-71824058D01*
X161091065Y-71780069D01*
X161138832Y-71770500D01*
X161925664Y-71770500D01*
X161992703Y-71790185D01*
G37*
%TD.AperFunction*%
%TA.AperFunction,NonConductor*%
G36*
X171422539Y-72888099D02*
G01*
X171468294Y-72940903D01*
X171479500Y-72992414D01*
X171479500Y-74797110D01*
X171459815Y-74864149D01*
X171443181Y-74884791D01*
X170662086Y-75665885D01*
X170604081Y-75698601D01*
X170556980Y-75710210D01*
X170406358Y-75789263D01*
X170279024Y-75902072D01*
X170182390Y-76042068D01*
X170122068Y-76201125D01*
X170122067Y-76201130D01*
X170101563Y-76370000D01*
X170122067Y-76538869D01*
X170122068Y-76538874D01*
X170182390Y-76697931D01*
X170201820Y-76726079D01*
X170279025Y-76837929D01*
X170334485Y-76887062D01*
X170406358Y-76950736D01*
X170556981Y-77029789D01*
X170556983Y-77029790D01*
X170722152Y-77070500D01*
X170892264Y-77070500D01*
X171057433Y-77029790D01*
X171208060Y-76950734D01*
X171252719Y-76911169D01*
X171273273Y-76892961D01*
X171336506Y-76863239D01*
X171405770Y-76872423D01*
X171459073Y-76917595D01*
X171479493Y-76984414D01*
X171479500Y-76985776D01*
X171479500Y-77705500D01*
X171459815Y-77772539D01*
X171407011Y-77818294D01*
X171355500Y-77829500D01*
X171264944Y-77829500D01*
X171099775Y-77870209D01*
X171057271Y-77892518D01*
X171013871Y-77915296D01*
X170956246Y-77929500D01*
X163419062Y-77929500D01*
X163419058Y-77929499D01*
X163260943Y-77929499D01*
X163233138Y-77936949D01*
X163219212Y-77937479D01*
X163198304Y-77932194D01*
X163176743Y-77931681D01*
X163165101Y-77923801D01*
X163151473Y-77920357D01*
X163136741Y-77904606D01*
X163118880Y-77892518D01*
X163113346Y-77879594D01*
X163103745Y-77869330D01*
X163099866Y-77848115D01*
X163091377Y-77828289D01*
X163090500Y-77813569D01*
X163090500Y-74477121D01*
X163110185Y-74410082D01*
X163123861Y-74394122D01*
X163123209Y-74393544D01*
X163128181Y-74387931D01*
X163128181Y-74387930D01*
X163128183Y-74387929D01*
X163224818Y-74247930D01*
X163280719Y-74100528D01*
X163322897Y-74044826D01*
X163388494Y-74020769D01*
X163396661Y-74020500D01*
X166034974Y-74020500D01*
X166102013Y-74040185D01*
X166137022Y-74074058D01*
X166166210Y-74116344D01*
X166201816Y-74167928D01*
X166329150Y-74280736D01*
X166455524Y-74347062D01*
X166479775Y-74359790D01*
X166644944Y-74400500D01*
X166815056Y-74400500D01*
X166980225Y-74359790D01*
X167065623Y-74314969D01*
X167130849Y-74280736D01*
X167130850Y-74280734D01*
X167130852Y-74280734D01*
X167258183Y-74167929D01*
X167354818Y-74027930D01*
X167415140Y-73868872D01*
X167435645Y-73700000D01*
X167415140Y-73531128D01*
X167354818Y-73372070D01*
X167344414Y-73356998D01*
X167296443Y-73287500D01*
X167258183Y-73232071D01*
X167130852Y-73119266D01*
X167130849Y-73119263D01*
X167098356Y-73102210D01*
X167048143Y-73053625D01*
X167032169Y-72985606D01*
X167055504Y-72919749D01*
X167110741Y-72876962D01*
X167155982Y-72868414D01*
X171355500Y-72868414D01*
X171422539Y-72888099D01*
G37*
%TD.AperFunction*%
%TA.AperFunction,NonConductor*%
G36*
X163446559Y-85307334D02*
G01*
X163474205Y-85311931D01*
X163479675Y-85316885D01*
X163486765Y-85318930D01*
X163505217Y-85340017D01*
X163525992Y-85358833D01*
X163528039Y-85366100D01*
X163532775Y-85371512D01*
X163536364Y-85395647D01*
X163544231Y-85423568D01*
X163544231Y-86329096D01*
X163524546Y-86396135D01*
X163471742Y-86441890D01*
X163402584Y-86451834D01*
X163339028Y-86422809D01*
X163338004Y-86421912D01*
X163241527Y-86336442D01*
X163210852Y-86309266D01*
X163156873Y-86280935D01*
X163106661Y-86232349D01*
X163090500Y-86171139D01*
X163090500Y-85422928D01*
X163110185Y-85355889D01*
X163162989Y-85310134D01*
X163229451Y-85299833D01*
X163234640Y-85300463D01*
X163234790Y-85300462D01*
X163234944Y-85300500D01*
X163405056Y-85300500D01*
X163408617Y-85299622D01*
X163419632Y-85299569D01*
X163446559Y-85307334D01*
G37*
%TD.AperFunction*%
M02*
