%TF.GenerationSoftware,KiCad,Pcbnew,8.99.0-2608-ga0707285a1*%
%TF.CreationDate,2024-10-09T18:54:12+07:00*%
%TF.ProjectId,dev_Board_8khz,6465765f-426f-4617-9264-5f386b687a2e,rev?*%
%TF.SameCoordinates,Original*%
%TF.FileFunction,Drillmap*%
%TF.FilePolarity,Positive*%
%FSLAX45Y45*%
G04 Gerber Fmt 4.5, Leading zero omitted, Abs format (unit mm)*
G04 Created by KiCad (PCBNEW 8.99.0-2608-ga0707285a1) date 2024-10-09 18:54:12*
%MOMM*%
%LPD*%
G01*
G04 APERTURE LIST*
%ADD10C,0.050000*%
%ADD11C,0.200000*%
%ADD12C,0.100000*%
G04 APERTURE END LIST*
D10*
X19000000Y-5950000D02*
X14350000Y-5950000D01*
X13950000Y-6350000D02*
X13950000Y-9800000D01*
X14350000Y-10200000D02*
X19000000Y-10200000D01*
X19400000Y-9800000D02*
G75*
G02*
X19000000Y-10200000I-400000J0D01*
G01*
X13950000Y-6350000D02*
G75*
G02*
X14350000Y-5950000I400000J0D01*
G01*
X19400000Y-9800000D02*
X19400000Y-6350000D01*
X19000000Y-5950000D02*
G75*
G02*
X19400000Y-6350000I0J-400000D01*
G01*
X14350000Y-10200000D02*
G75*
G02*
X13950000Y-9800000I0J400000D01*
G01*
D11*
D12*
X16353500Y-6428000D02*
X16418500Y-6493000D01*
X16418500Y-6428000D02*
X16353500Y-6493000D01*
X16931500Y-6428000D02*
X16996500Y-6493000D01*
X16996500Y-6428000D02*
X16931500Y-6493000D01*
D11*
X14208277Y-10513984D02*
X14208277Y-10313984D01*
X14208277Y-10313984D02*
X14255896Y-10313984D01*
X14255896Y-10313984D02*
X14284467Y-10323508D01*
X14284467Y-10323508D02*
X14303515Y-10342555D01*
X14303515Y-10342555D02*
X14313039Y-10361603D01*
X14313039Y-10361603D02*
X14322562Y-10399698D01*
X14322562Y-10399698D02*
X14322562Y-10428270D01*
X14322562Y-10428270D02*
X14313039Y-10466365D01*
X14313039Y-10466365D02*
X14303515Y-10485412D01*
X14303515Y-10485412D02*
X14284467Y-10504460D01*
X14284467Y-10504460D02*
X14255896Y-10513984D01*
X14255896Y-10513984D02*
X14208277Y-10513984D01*
X14408277Y-10513984D02*
X14408277Y-10380650D01*
X14408277Y-10418746D02*
X14417801Y-10399698D01*
X14417801Y-10399698D02*
X14427324Y-10390174D01*
X14427324Y-10390174D02*
X14446372Y-10380650D01*
X14446372Y-10380650D02*
X14465420Y-10380650D01*
X14532086Y-10513984D02*
X14532086Y-10380650D01*
X14532086Y-10313984D02*
X14522562Y-10323508D01*
X14522562Y-10323508D02*
X14532086Y-10333031D01*
X14532086Y-10333031D02*
X14541610Y-10323508D01*
X14541610Y-10323508D02*
X14532086Y-10313984D01*
X14532086Y-10313984D02*
X14532086Y-10333031D01*
X14655896Y-10513984D02*
X14636848Y-10504460D01*
X14636848Y-10504460D02*
X14627324Y-10485412D01*
X14627324Y-10485412D02*
X14627324Y-10313984D01*
X14760658Y-10513984D02*
X14741610Y-10504460D01*
X14741610Y-10504460D02*
X14732086Y-10485412D01*
X14732086Y-10485412D02*
X14732086Y-10313984D01*
X14989229Y-10513984D02*
X14989229Y-10313984D01*
X14989229Y-10313984D02*
X15055896Y-10456841D01*
X15055896Y-10456841D02*
X15122562Y-10313984D01*
X15122562Y-10313984D02*
X15122562Y-10513984D01*
X15303515Y-10513984D02*
X15303515Y-10409222D01*
X15303515Y-10409222D02*
X15293991Y-10390174D01*
X15293991Y-10390174D02*
X15274943Y-10380650D01*
X15274943Y-10380650D02*
X15236848Y-10380650D01*
X15236848Y-10380650D02*
X15217801Y-10390174D01*
X15303515Y-10504460D02*
X15284467Y-10513984D01*
X15284467Y-10513984D02*
X15236848Y-10513984D01*
X15236848Y-10513984D02*
X15217801Y-10504460D01*
X15217801Y-10504460D02*
X15208277Y-10485412D01*
X15208277Y-10485412D02*
X15208277Y-10466365D01*
X15208277Y-10466365D02*
X15217801Y-10447317D01*
X15217801Y-10447317D02*
X15236848Y-10437793D01*
X15236848Y-10437793D02*
X15284467Y-10437793D01*
X15284467Y-10437793D02*
X15303515Y-10428270D01*
X15398753Y-10380650D02*
X15398753Y-10580650D01*
X15398753Y-10390174D02*
X15417801Y-10380650D01*
X15417801Y-10380650D02*
X15455896Y-10380650D01*
X15455896Y-10380650D02*
X15474943Y-10390174D01*
X15474943Y-10390174D02*
X15484467Y-10399698D01*
X15484467Y-10399698D02*
X15493991Y-10418746D01*
X15493991Y-10418746D02*
X15493991Y-10475889D01*
X15493991Y-10475889D02*
X15484467Y-10494936D01*
X15484467Y-10494936D02*
X15474943Y-10504460D01*
X15474943Y-10504460D02*
X15455896Y-10513984D01*
X15455896Y-10513984D02*
X15417801Y-10513984D01*
X15417801Y-10513984D02*
X15398753Y-10504460D01*
X15579705Y-10494936D02*
X15589229Y-10504460D01*
X15589229Y-10504460D02*
X15579705Y-10513984D01*
X15579705Y-10513984D02*
X15570182Y-10504460D01*
X15570182Y-10504460D02*
X15579705Y-10494936D01*
X15579705Y-10494936D02*
X15579705Y-10513984D01*
X15579705Y-10390174D02*
X15589229Y-10399698D01*
X15589229Y-10399698D02*
X15579705Y-10409222D01*
X15579705Y-10409222D02*
X15570182Y-10399698D01*
X15570182Y-10399698D02*
X15579705Y-10390174D01*
X15579705Y-10390174D02*
X15579705Y-10409222D01*
D12*
X13882500Y-10810000D02*
X13947500Y-10875000D01*
X13947500Y-10810000D02*
X13882500Y-10875000D01*
D11*
X14246372Y-10733984D02*
X14265420Y-10733984D01*
X14265420Y-10733984D02*
X14284467Y-10743508D01*
X14284467Y-10743508D02*
X14293991Y-10753031D01*
X14293991Y-10753031D02*
X14303515Y-10772079D01*
X14303515Y-10772079D02*
X14313039Y-10810174D01*
X14313039Y-10810174D02*
X14313039Y-10857793D01*
X14313039Y-10857793D02*
X14303515Y-10895889D01*
X14303515Y-10895889D02*
X14293991Y-10914936D01*
X14293991Y-10914936D02*
X14284467Y-10924460D01*
X14284467Y-10924460D02*
X14265420Y-10933984D01*
X14265420Y-10933984D02*
X14246372Y-10933984D01*
X14246372Y-10933984D02*
X14227324Y-10924460D01*
X14227324Y-10924460D02*
X14217801Y-10914936D01*
X14217801Y-10914936D02*
X14208277Y-10895889D01*
X14208277Y-10895889D02*
X14198753Y-10857793D01*
X14198753Y-10857793D02*
X14198753Y-10810174D01*
X14198753Y-10810174D02*
X14208277Y-10772079D01*
X14208277Y-10772079D02*
X14217801Y-10753031D01*
X14217801Y-10753031D02*
X14227324Y-10743508D01*
X14227324Y-10743508D02*
X14246372Y-10733984D01*
X14398753Y-10914936D02*
X14408277Y-10924460D01*
X14408277Y-10924460D02*
X14398753Y-10933984D01*
X14398753Y-10933984D02*
X14389229Y-10924460D01*
X14389229Y-10924460D02*
X14398753Y-10914936D01*
X14398753Y-10914936D02*
X14398753Y-10933984D01*
X14579705Y-10733984D02*
X14541610Y-10733984D01*
X14541610Y-10733984D02*
X14522562Y-10743508D01*
X14522562Y-10743508D02*
X14513039Y-10753031D01*
X14513039Y-10753031D02*
X14493991Y-10781603D01*
X14493991Y-10781603D02*
X14484467Y-10819698D01*
X14484467Y-10819698D02*
X14484467Y-10895889D01*
X14484467Y-10895889D02*
X14493991Y-10914936D01*
X14493991Y-10914936D02*
X14503515Y-10924460D01*
X14503515Y-10924460D02*
X14522562Y-10933984D01*
X14522562Y-10933984D02*
X14560658Y-10933984D01*
X14560658Y-10933984D02*
X14579705Y-10924460D01*
X14579705Y-10924460D02*
X14589229Y-10914936D01*
X14589229Y-10914936D02*
X14598753Y-10895889D01*
X14598753Y-10895889D02*
X14598753Y-10848270D01*
X14598753Y-10848270D02*
X14589229Y-10829222D01*
X14589229Y-10829222D02*
X14579705Y-10819698D01*
X14579705Y-10819698D02*
X14560658Y-10810174D01*
X14560658Y-10810174D02*
X14522562Y-10810174D01*
X14522562Y-10810174D02*
X14503515Y-10819698D01*
X14503515Y-10819698D02*
X14493991Y-10829222D01*
X14493991Y-10829222D02*
X14484467Y-10848270D01*
X14779705Y-10733984D02*
X14684467Y-10733984D01*
X14684467Y-10733984D02*
X14674943Y-10829222D01*
X14674943Y-10829222D02*
X14684467Y-10819698D01*
X14684467Y-10819698D02*
X14703515Y-10810174D01*
X14703515Y-10810174D02*
X14751134Y-10810174D01*
X14751134Y-10810174D02*
X14770182Y-10819698D01*
X14770182Y-10819698D02*
X14779705Y-10829222D01*
X14779705Y-10829222D02*
X14789229Y-10848270D01*
X14789229Y-10848270D02*
X14789229Y-10895889D01*
X14789229Y-10895889D02*
X14779705Y-10914936D01*
X14779705Y-10914936D02*
X14770182Y-10924460D01*
X14770182Y-10924460D02*
X14751134Y-10933984D01*
X14751134Y-10933984D02*
X14703515Y-10933984D01*
X14703515Y-10933984D02*
X14684467Y-10924460D01*
X14684467Y-10924460D02*
X14674943Y-10914936D01*
X14913039Y-10733984D02*
X14932086Y-10733984D01*
X14932086Y-10733984D02*
X14951134Y-10743508D01*
X14951134Y-10743508D02*
X14960658Y-10753031D01*
X14960658Y-10753031D02*
X14970182Y-10772079D01*
X14970182Y-10772079D02*
X14979705Y-10810174D01*
X14979705Y-10810174D02*
X14979705Y-10857793D01*
X14979705Y-10857793D02*
X14970182Y-10895889D01*
X14970182Y-10895889D02*
X14960658Y-10914936D01*
X14960658Y-10914936D02*
X14951134Y-10924460D01*
X14951134Y-10924460D02*
X14932086Y-10933984D01*
X14932086Y-10933984D02*
X14913039Y-10933984D01*
X14913039Y-10933984D02*
X14893991Y-10924460D01*
X14893991Y-10924460D02*
X14884467Y-10914936D01*
X14884467Y-10914936D02*
X14874943Y-10895889D01*
X14874943Y-10895889D02*
X14865420Y-10857793D01*
X14865420Y-10857793D02*
X14865420Y-10810174D01*
X14865420Y-10810174D02*
X14874943Y-10772079D01*
X14874943Y-10772079D02*
X14884467Y-10753031D01*
X14884467Y-10753031D02*
X14893991Y-10743508D01*
X14893991Y-10743508D02*
X14913039Y-10733984D01*
X15065420Y-10933984D02*
X15065420Y-10800650D01*
X15065420Y-10819698D02*
X15074943Y-10810174D01*
X15074943Y-10810174D02*
X15093991Y-10800650D01*
X15093991Y-10800650D02*
X15122563Y-10800650D01*
X15122563Y-10800650D02*
X15141610Y-10810174D01*
X15141610Y-10810174D02*
X15151134Y-10829222D01*
X15151134Y-10829222D02*
X15151134Y-10933984D01*
X15151134Y-10829222D02*
X15160658Y-10810174D01*
X15160658Y-10810174D02*
X15179705Y-10800650D01*
X15179705Y-10800650D02*
X15208277Y-10800650D01*
X15208277Y-10800650D02*
X15227324Y-10810174D01*
X15227324Y-10810174D02*
X15236848Y-10829222D01*
X15236848Y-10829222D02*
X15236848Y-10933984D01*
X15332086Y-10933984D02*
X15332086Y-10800650D01*
X15332086Y-10819698D02*
X15341610Y-10810174D01*
X15341610Y-10810174D02*
X15360658Y-10800650D01*
X15360658Y-10800650D02*
X15389229Y-10800650D01*
X15389229Y-10800650D02*
X15408277Y-10810174D01*
X15408277Y-10810174D02*
X15417801Y-10829222D01*
X15417801Y-10829222D02*
X15417801Y-10933984D01*
X15417801Y-10829222D02*
X15427324Y-10810174D01*
X15427324Y-10810174D02*
X15446372Y-10800650D01*
X15446372Y-10800650D02*
X15474943Y-10800650D01*
X15474943Y-10800650D02*
X15493991Y-10810174D01*
X15493991Y-10810174D02*
X15503515Y-10829222D01*
X15503515Y-10829222D02*
X15503515Y-10933984D01*
X15893991Y-10724460D02*
X15722563Y-10981603D01*
X16151134Y-10733984D02*
X16170182Y-10733984D01*
X16170182Y-10733984D02*
X16189229Y-10743508D01*
X16189229Y-10743508D02*
X16198753Y-10753031D01*
X16198753Y-10753031D02*
X16208277Y-10772079D01*
X16208277Y-10772079D02*
X16217801Y-10810174D01*
X16217801Y-10810174D02*
X16217801Y-10857793D01*
X16217801Y-10857793D02*
X16208277Y-10895889D01*
X16208277Y-10895889D02*
X16198753Y-10914936D01*
X16198753Y-10914936D02*
X16189229Y-10924460D01*
X16189229Y-10924460D02*
X16170182Y-10933984D01*
X16170182Y-10933984D02*
X16151134Y-10933984D01*
X16151134Y-10933984D02*
X16132086Y-10924460D01*
X16132086Y-10924460D02*
X16122563Y-10914936D01*
X16122563Y-10914936D02*
X16113039Y-10895889D01*
X16113039Y-10895889D02*
X16103515Y-10857793D01*
X16103515Y-10857793D02*
X16103515Y-10810174D01*
X16103515Y-10810174D02*
X16113039Y-10772079D01*
X16113039Y-10772079D02*
X16122563Y-10753031D01*
X16122563Y-10753031D02*
X16132086Y-10743508D01*
X16132086Y-10743508D02*
X16151134Y-10733984D01*
X16303515Y-10914936D02*
X16313039Y-10924460D01*
X16313039Y-10924460D02*
X16303515Y-10933984D01*
X16303515Y-10933984D02*
X16293991Y-10924460D01*
X16293991Y-10924460D02*
X16303515Y-10914936D01*
X16303515Y-10914936D02*
X16303515Y-10933984D01*
X16436848Y-10733984D02*
X16455896Y-10733984D01*
X16455896Y-10733984D02*
X16474944Y-10743508D01*
X16474944Y-10743508D02*
X16484467Y-10753031D01*
X16484467Y-10753031D02*
X16493991Y-10772079D01*
X16493991Y-10772079D02*
X16503515Y-10810174D01*
X16503515Y-10810174D02*
X16503515Y-10857793D01*
X16503515Y-10857793D02*
X16493991Y-10895889D01*
X16493991Y-10895889D02*
X16484467Y-10914936D01*
X16484467Y-10914936D02*
X16474944Y-10924460D01*
X16474944Y-10924460D02*
X16455896Y-10933984D01*
X16455896Y-10933984D02*
X16436848Y-10933984D01*
X16436848Y-10933984D02*
X16417801Y-10924460D01*
X16417801Y-10924460D02*
X16408277Y-10914936D01*
X16408277Y-10914936D02*
X16398753Y-10895889D01*
X16398753Y-10895889D02*
X16389229Y-10857793D01*
X16389229Y-10857793D02*
X16389229Y-10810174D01*
X16389229Y-10810174D02*
X16398753Y-10772079D01*
X16398753Y-10772079D02*
X16408277Y-10753031D01*
X16408277Y-10753031D02*
X16417801Y-10743508D01*
X16417801Y-10743508D02*
X16436848Y-10733984D01*
X16579706Y-10753031D02*
X16589229Y-10743508D01*
X16589229Y-10743508D02*
X16608277Y-10733984D01*
X16608277Y-10733984D02*
X16655896Y-10733984D01*
X16655896Y-10733984D02*
X16674944Y-10743508D01*
X16674944Y-10743508D02*
X16684467Y-10753031D01*
X16684467Y-10753031D02*
X16693991Y-10772079D01*
X16693991Y-10772079D02*
X16693991Y-10791127D01*
X16693991Y-10791127D02*
X16684467Y-10819698D01*
X16684467Y-10819698D02*
X16570182Y-10933984D01*
X16570182Y-10933984D02*
X16693991Y-10933984D01*
X16874944Y-10733984D02*
X16779706Y-10733984D01*
X16779706Y-10733984D02*
X16770182Y-10829222D01*
X16770182Y-10829222D02*
X16779706Y-10819698D01*
X16779706Y-10819698D02*
X16798753Y-10810174D01*
X16798753Y-10810174D02*
X16846372Y-10810174D01*
X16846372Y-10810174D02*
X16865420Y-10819698D01*
X16865420Y-10819698D02*
X16874944Y-10829222D01*
X16874944Y-10829222D02*
X16884468Y-10848270D01*
X16884468Y-10848270D02*
X16884468Y-10895889D01*
X16884468Y-10895889D02*
X16874944Y-10914936D01*
X16874944Y-10914936D02*
X16865420Y-10924460D01*
X16865420Y-10924460D02*
X16846372Y-10933984D01*
X16846372Y-10933984D02*
X16798753Y-10933984D01*
X16798753Y-10933984D02*
X16779706Y-10924460D01*
X16779706Y-10924460D02*
X16770182Y-10914936D01*
X17055896Y-10733984D02*
X17017801Y-10733984D01*
X17017801Y-10733984D02*
X16998753Y-10743508D01*
X16998753Y-10743508D02*
X16989229Y-10753031D01*
X16989229Y-10753031D02*
X16970182Y-10781603D01*
X16970182Y-10781603D02*
X16960658Y-10819698D01*
X16960658Y-10819698D02*
X16960658Y-10895889D01*
X16960658Y-10895889D02*
X16970182Y-10914936D01*
X16970182Y-10914936D02*
X16979706Y-10924460D01*
X16979706Y-10924460D02*
X16998753Y-10933984D01*
X16998753Y-10933984D02*
X17036849Y-10933984D01*
X17036849Y-10933984D02*
X17055896Y-10924460D01*
X17055896Y-10924460D02*
X17065420Y-10914936D01*
X17065420Y-10914936D02*
X17074944Y-10895889D01*
X17074944Y-10895889D02*
X17074944Y-10848270D01*
X17074944Y-10848270D02*
X17065420Y-10829222D01*
X17065420Y-10829222D02*
X17055896Y-10819698D01*
X17055896Y-10819698D02*
X17036849Y-10810174D01*
X17036849Y-10810174D02*
X16998753Y-10810174D01*
X16998753Y-10810174D02*
X16979706Y-10819698D01*
X16979706Y-10819698D02*
X16970182Y-10829222D01*
X16970182Y-10829222D02*
X16960658Y-10848270D01*
X17151134Y-10733984D02*
X17151134Y-10772079D01*
X17227325Y-10733984D02*
X17227325Y-10772079D01*
X17522563Y-11010174D02*
X17513039Y-11000650D01*
X17513039Y-11000650D02*
X17493991Y-10972079D01*
X17493991Y-10972079D02*
X17484468Y-10953031D01*
X17484468Y-10953031D02*
X17474944Y-10924460D01*
X17474944Y-10924460D02*
X17465420Y-10876841D01*
X17465420Y-10876841D02*
X17465420Y-10838746D01*
X17465420Y-10838746D02*
X17474944Y-10791127D01*
X17474944Y-10791127D02*
X17484468Y-10762555D01*
X17484468Y-10762555D02*
X17493991Y-10743508D01*
X17493991Y-10743508D02*
X17513039Y-10714936D01*
X17513039Y-10714936D02*
X17522563Y-10705412D01*
X17589230Y-10753031D02*
X17598753Y-10743508D01*
X17598753Y-10743508D02*
X17617801Y-10733984D01*
X17617801Y-10733984D02*
X17665420Y-10733984D01*
X17665420Y-10733984D02*
X17684468Y-10743508D01*
X17684468Y-10743508D02*
X17693991Y-10753031D01*
X17693991Y-10753031D02*
X17703515Y-10772079D01*
X17703515Y-10772079D02*
X17703515Y-10791127D01*
X17703515Y-10791127D02*
X17693991Y-10819698D01*
X17693991Y-10819698D02*
X17579706Y-10933984D01*
X17579706Y-10933984D02*
X17703515Y-10933984D01*
X17941611Y-10933984D02*
X17941611Y-10733984D01*
X18027325Y-10933984D02*
X18027325Y-10829222D01*
X18027325Y-10829222D02*
X18017801Y-10810174D01*
X18017801Y-10810174D02*
X17998753Y-10800650D01*
X17998753Y-10800650D02*
X17970182Y-10800650D01*
X17970182Y-10800650D02*
X17951134Y-10810174D01*
X17951134Y-10810174D02*
X17941611Y-10819698D01*
X18151134Y-10933984D02*
X18132087Y-10924460D01*
X18132087Y-10924460D02*
X18122563Y-10914936D01*
X18122563Y-10914936D02*
X18113039Y-10895889D01*
X18113039Y-10895889D02*
X18113039Y-10838746D01*
X18113039Y-10838746D02*
X18122563Y-10819698D01*
X18122563Y-10819698D02*
X18132087Y-10810174D01*
X18132087Y-10810174D02*
X18151134Y-10800650D01*
X18151134Y-10800650D02*
X18179706Y-10800650D01*
X18179706Y-10800650D02*
X18198753Y-10810174D01*
X18198753Y-10810174D02*
X18208277Y-10819698D01*
X18208277Y-10819698D02*
X18217801Y-10838746D01*
X18217801Y-10838746D02*
X18217801Y-10895889D01*
X18217801Y-10895889D02*
X18208277Y-10914936D01*
X18208277Y-10914936D02*
X18198753Y-10924460D01*
X18198753Y-10924460D02*
X18179706Y-10933984D01*
X18179706Y-10933984D02*
X18151134Y-10933984D01*
X18332087Y-10933984D02*
X18313039Y-10924460D01*
X18313039Y-10924460D02*
X18303515Y-10905412D01*
X18303515Y-10905412D02*
X18303515Y-10733984D01*
X18484468Y-10924460D02*
X18465420Y-10933984D01*
X18465420Y-10933984D02*
X18427325Y-10933984D01*
X18427325Y-10933984D02*
X18408277Y-10924460D01*
X18408277Y-10924460D02*
X18398753Y-10905412D01*
X18398753Y-10905412D02*
X18398753Y-10829222D01*
X18398753Y-10829222D02*
X18408277Y-10810174D01*
X18408277Y-10810174D02*
X18427325Y-10800650D01*
X18427325Y-10800650D02*
X18465420Y-10800650D01*
X18465420Y-10800650D02*
X18484468Y-10810174D01*
X18484468Y-10810174D02*
X18493992Y-10829222D01*
X18493992Y-10829222D02*
X18493992Y-10848270D01*
X18493992Y-10848270D02*
X18398753Y-10867317D01*
X18570182Y-10924460D02*
X18589230Y-10933984D01*
X18589230Y-10933984D02*
X18627325Y-10933984D01*
X18627325Y-10933984D02*
X18646373Y-10924460D01*
X18646373Y-10924460D02*
X18655896Y-10905412D01*
X18655896Y-10905412D02*
X18655896Y-10895889D01*
X18655896Y-10895889D02*
X18646373Y-10876841D01*
X18646373Y-10876841D02*
X18627325Y-10867317D01*
X18627325Y-10867317D02*
X18598753Y-10867317D01*
X18598753Y-10867317D02*
X18579706Y-10857793D01*
X18579706Y-10857793D02*
X18570182Y-10838746D01*
X18570182Y-10838746D02*
X18570182Y-10829222D01*
X18570182Y-10829222D02*
X18579706Y-10810174D01*
X18579706Y-10810174D02*
X18598753Y-10800650D01*
X18598753Y-10800650D02*
X18627325Y-10800650D01*
X18627325Y-10800650D02*
X18646373Y-10810174D01*
X18722563Y-11010174D02*
X18732087Y-11000650D01*
X18732087Y-11000650D02*
X18751134Y-10972079D01*
X18751134Y-10972079D02*
X18760658Y-10953031D01*
X18760658Y-10953031D02*
X18770182Y-10924460D01*
X18770182Y-10924460D02*
X18779706Y-10876841D01*
X18779706Y-10876841D02*
X18779706Y-10838746D01*
X18779706Y-10838746D02*
X18770182Y-10791127D01*
X18770182Y-10791127D02*
X18760658Y-10762555D01*
X18760658Y-10762555D02*
X18751134Y-10743508D01*
X18751134Y-10743508D02*
X18732087Y-10714936D01*
X18732087Y-10714936D02*
X18722563Y-10705412D01*
X19084468Y-11010174D02*
X19074944Y-11000650D01*
X19074944Y-11000650D02*
X19055896Y-10972079D01*
X19055896Y-10972079D02*
X19046373Y-10953031D01*
X19046373Y-10953031D02*
X19036849Y-10924460D01*
X19036849Y-10924460D02*
X19027325Y-10876841D01*
X19027325Y-10876841D02*
X19027325Y-10838746D01*
X19027325Y-10838746D02*
X19036849Y-10791127D01*
X19036849Y-10791127D02*
X19046373Y-10762555D01*
X19046373Y-10762555D02*
X19055896Y-10743508D01*
X19055896Y-10743508D02*
X19074944Y-10714936D01*
X19074944Y-10714936D02*
X19084468Y-10705412D01*
X19160658Y-10800650D02*
X19160658Y-10933984D01*
X19160658Y-10819698D02*
X19170182Y-10810174D01*
X19170182Y-10810174D02*
X19189230Y-10800650D01*
X19189230Y-10800650D02*
X19217801Y-10800650D01*
X19217801Y-10800650D02*
X19236849Y-10810174D01*
X19236849Y-10810174D02*
X19246373Y-10829222D01*
X19246373Y-10829222D02*
X19246373Y-10933984D01*
X19370182Y-10933984D02*
X19351134Y-10924460D01*
X19351134Y-10924460D02*
X19341611Y-10914936D01*
X19341611Y-10914936D02*
X19332087Y-10895889D01*
X19332087Y-10895889D02*
X19332087Y-10838746D01*
X19332087Y-10838746D02*
X19341611Y-10819698D01*
X19341611Y-10819698D02*
X19351134Y-10810174D01*
X19351134Y-10810174D02*
X19370182Y-10800650D01*
X19370182Y-10800650D02*
X19398754Y-10800650D01*
X19398754Y-10800650D02*
X19417801Y-10810174D01*
X19417801Y-10810174D02*
X19427325Y-10819698D01*
X19427325Y-10819698D02*
X19436849Y-10838746D01*
X19436849Y-10838746D02*
X19436849Y-10895889D01*
X19436849Y-10895889D02*
X19427325Y-10914936D01*
X19427325Y-10914936D02*
X19417801Y-10924460D01*
X19417801Y-10924460D02*
X19398754Y-10933984D01*
X19398754Y-10933984D02*
X19370182Y-10933984D01*
X19493992Y-10800650D02*
X19570182Y-10800650D01*
X19522563Y-10733984D02*
X19522563Y-10905412D01*
X19522563Y-10905412D02*
X19532087Y-10924460D01*
X19532087Y-10924460D02*
X19551134Y-10933984D01*
X19551134Y-10933984D02*
X19570182Y-10933984D01*
X19789230Y-10800650D02*
X19789230Y-11000650D01*
X19789230Y-10810174D02*
X19808277Y-10800650D01*
X19808277Y-10800650D02*
X19846373Y-10800650D01*
X19846373Y-10800650D02*
X19865420Y-10810174D01*
X19865420Y-10810174D02*
X19874944Y-10819698D01*
X19874944Y-10819698D02*
X19884468Y-10838746D01*
X19884468Y-10838746D02*
X19884468Y-10895889D01*
X19884468Y-10895889D02*
X19874944Y-10914936D01*
X19874944Y-10914936D02*
X19865420Y-10924460D01*
X19865420Y-10924460D02*
X19846373Y-10933984D01*
X19846373Y-10933984D02*
X19808277Y-10933984D01*
X19808277Y-10933984D02*
X19789230Y-10924460D01*
X19998754Y-10933984D02*
X19979706Y-10924460D01*
X19979706Y-10924460D02*
X19970182Y-10905412D01*
X19970182Y-10905412D02*
X19970182Y-10733984D01*
X20160658Y-10933984D02*
X20160658Y-10829222D01*
X20160658Y-10829222D02*
X20151135Y-10810174D01*
X20151135Y-10810174D02*
X20132087Y-10800650D01*
X20132087Y-10800650D02*
X20093992Y-10800650D01*
X20093992Y-10800650D02*
X20074944Y-10810174D01*
X20160658Y-10924460D02*
X20141611Y-10933984D01*
X20141611Y-10933984D02*
X20093992Y-10933984D01*
X20093992Y-10933984D02*
X20074944Y-10924460D01*
X20074944Y-10924460D02*
X20065420Y-10905412D01*
X20065420Y-10905412D02*
X20065420Y-10886365D01*
X20065420Y-10886365D02*
X20074944Y-10867317D01*
X20074944Y-10867317D02*
X20093992Y-10857793D01*
X20093992Y-10857793D02*
X20141611Y-10857793D01*
X20141611Y-10857793D02*
X20160658Y-10848270D01*
X20227325Y-10800650D02*
X20303515Y-10800650D01*
X20255896Y-10733984D02*
X20255896Y-10905412D01*
X20255896Y-10905412D02*
X20265420Y-10924460D01*
X20265420Y-10924460D02*
X20284468Y-10933984D01*
X20284468Y-10933984D02*
X20303515Y-10933984D01*
X20446373Y-10924460D02*
X20427325Y-10933984D01*
X20427325Y-10933984D02*
X20389230Y-10933984D01*
X20389230Y-10933984D02*
X20370182Y-10924460D01*
X20370182Y-10924460D02*
X20360658Y-10905412D01*
X20360658Y-10905412D02*
X20360658Y-10829222D01*
X20360658Y-10829222D02*
X20370182Y-10810174D01*
X20370182Y-10810174D02*
X20389230Y-10800650D01*
X20389230Y-10800650D02*
X20427325Y-10800650D01*
X20427325Y-10800650D02*
X20446373Y-10810174D01*
X20446373Y-10810174D02*
X20455896Y-10829222D01*
X20455896Y-10829222D02*
X20455896Y-10848270D01*
X20455896Y-10848270D02*
X20360658Y-10867317D01*
X20627325Y-10933984D02*
X20627325Y-10733984D01*
X20627325Y-10924460D02*
X20608277Y-10933984D01*
X20608277Y-10933984D02*
X20570182Y-10933984D01*
X20570182Y-10933984D02*
X20551135Y-10924460D01*
X20551135Y-10924460D02*
X20541611Y-10914936D01*
X20541611Y-10914936D02*
X20532087Y-10895889D01*
X20532087Y-10895889D02*
X20532087Y-10838746D01*
X20532087Y-10838746D02*
X20541611Y-10819698D01*
X20541611Y-10819698D02*
X20551135Y-10810174D01*
X20551135Y-10810174D02*
X20570182Y-10800650D01*
X20570182Y-10800650D02*
X20608277Y-10800650D01*
X20608277Y-10800650D02*
X20627325Y-10810174D01*
X20703516Y-11010174D02*
X20713039Y-11000650D01*
X20713039Y-11000650D02*
X20732087Y-10972079D01*
X20732087Y-10972079D02*
X20741611Y-10953031D01*
X20741611Y-10953031D02*
X20751135Y-10924460D01*
X20751135Y-10924460D02*
X20760658Y-10876841D01*
X20760658Y-10876841D02*
X20760658Y-10838746D01*
X20760658Y-10838746D02*
X20751135Y-10791127D01*
X20751135Y-10791127D02*
X20741611Y-10762555D01*
X20741611Y-10762555D02*
X20732087Y-10743508D01*
X20732087Y-10743508D02*
X20713039Y-10714936D01*
X20713039Y-10714936D02*
X20703516Y-10705412D01*
M02*
