%TF.GenerationSoftware,KiCad,Pcbnew,8.99.0-2608-ga0707285a1*%
%TF.CreationDate,2024-10-09T18:54:20+07:00*%
%TF.ProjectId,dev_Board_8khz,6465765f-426f-4617-9264-5f386b687a2e,rev?*%
%TF.SameCoordinates,Original*%
%TF.FileFunction,Legend,Top*%
%TF.FilePolarity,Positive*%
%FSLAX46Y46*%
G04 Gerber Fmt 4.6, Leading zero omitted, Abs format (unit mm)*
G04 Created by KiCad (PCBNEW 8.99.0-2608-ga0707285a1) date 2024-10-09 18:54:20*
%MOMM*%
%LPD*%
G01*
G04 APERTURE LIST*
%ADD10C,0.100000*%
%ADD11C,0.125000*%
%ADD12C,0.250000*%
%ADD13C,0.150000*%
%ADD14C,0.120000*%
G04 APERTURE END LIST*
D10*
X174800000Y-72450000D02*
X164025000Y-72450000D01*
X167225000Y-68200000D02*
X166300000Y-68200000D01*
X169925000Y-68200000D02*
X173450000Y-68200000D01*
X174800000Y-71700000D02*
X174800000Y-72450000D01*
D11*
X188877474Y-77364452D02*
X189115569Y-77364452D01*
X188829855Y-77507309D02*
X188996521Y-77007309D01*
X188996521Y-77007309D02*
X189163188Y-77507309D01*
X189425092Y-77007309D02*
X189472711Y-77007309D01*
X189472711Y-77007309D02*
X189520330Y-77031119D01*
X189520330Y-77031119D02*
X189544140Y-77054928D01*
X189544140Y-77054928D02*
X189567949Y-77102547D01*
X189567949Y-77102547D02*
X189591759Y-77197785D01*
X189591759Y-77197785D02*
X189591759Y-77316833D01*
X189591759Y-77316833D02*
X189567949Y-77412071D01*
X189567949Y-77412071D02*
X189544140Y-77459690D01*
X189544140Y-77459690D02*
X189520330Y-77483500D01*
X189520330Y-77483500D02*
X189472711Y-77507309D01*
X189472711Y-77507309D02*
X189425092Y-77507309D01*
X189425092Y-77507309D02*
X189377473Y-77483500D01*
X189377473Y-77483500D02*
X189353664Y-77459690D01*
X189353664Y-77459690D02*
X189329854Y-77412071D01*
X189329854Y-77412071D02*
X189306045Y-77316833D01*
X189306045Y-77316833D02*
X189306045Y-77197785D01*
X189306045Y-77197785D02*
X189329854Y-77102547D01*
X189329854Y-77102547D02*
X189353664Y-77054928D01*
X189353664Y-77054928D02*
X189377473Y-77031119D01*
X189377473Y-77031119D02*
X189425092Y-77007309D01*
X188852474Y-72214452D02*
X189090569Y-72214452D01*
X188804855Y-72357309D02*
X188971521Y-71857309D01*
X188971521Y-71857309D02*
X189138188Y-72357309D01*
X189281045Y-71904928D02*
X189304854Y-71881119D01*
X189304854Y-71881119D02*
X189352473Y-71857309D01*
X189352473Y-71857309D02*
X189471521Y-71857309D01*
X189471521Y-71857309D02*
X189519140Y-71881119D01*
X189519140Y-71881119D02*
X189542949Y-71904928D01*
X189542949Y-71904928D02*
X189566759Y-71952547D01*
X189566759Y-71952547D02*
X189566759Y-72000166D01*
X189566759Y-72000166D02*
X189542949Y-72071595D01*
X189542949Y-72071595D02*
X189257235Y-72357309D01*
X189257235Y-72357309D02*
X189566759Y-72357309D01*
X143561997Y-69784690D02*
X143538188Y-69808500D01*
X143538188Y-69808500D02*
X143466759Y-69832309D01*
X143466759Y-69832309D02*
X143419140Y-69832309D01*
X143419140Y-69832309D02*
X143347712Y-69808500D01*
X143347712Y-69808500D02*
X143300093Y-69760880D01*
X143300093Y-69760880D02*
X143276283Y-69713261D01*
X143276283Y-69713261D02*
X143252474Y-69618023D01*
X143252474Y-69618023D02*
X143252474Y-69546595D01*
X143252474Y-69546595D02*
X143276283Y-69451357D01*
X143276283Y-69451357D02*
X143300093Y-69403738D01*
X143300093Y-69403738D02*
X143347712Y-69356119D01*
X143347712Y-69356119D02*
X143419140Y-69332309D01*
X143419140Y-69332309D02*
X143466759Y-69332309D01*
X143466759Y-69332309D02*
X143538188Y-69356119D01*
X143538188Y-69356119D02*
X143561997Y-69379928D01*
X143990569Y-69332309D02*
X143895331Y-69332309D01*
X143895331Y-69332309D02*
X143847712Y-69356119D01*
X143847712Y-69356119D02*
X143823902Y-69379928D01*
X143823902Y-69379928D02*
X143776283Y-69451357D01*
X143776283Y-69451357D02*
X143752474Y-69546595D01*
X143752474Y-69546595D02*
X143752474Y-69737071D01*
X143752474Y-69737071D02*
X143776283Y-69784690D01*
X143776283Y-69784690D02*
X143800093Y-69808500D01*
X143800093Y-69808500D02*
X143847712Y-69832309D01*
X143847712Y-69832309D02*
X143942950Y-69832309D01*
X143942950Y-69832309D02*
X143990569Y-69808500D01*
X143990569Y-69808500D02*
X144014378Y-69784690D01*
X144014378Y-69784690D02*
X144038188Y-69737071D01*
X144038188Y-69737071D02*
X144038188Y-69618023D01*
X144038188Y-69618023D02*
X144014378Y-69570404D01*
X144014378Y-69570404D02*
X143990569Y-69546595D01*
X143990569Y-69546595D02*
X143942950Y-69522785D01*
X143942950Y-69522785D02*
X143847712Y-69522785D01*
X143847712Y-69522785D02*
X143800093Y-69546595D01*
X143800093Y-69546595D02*
X143776283Y-69570404D01*
X143776283Y-69570404D02*
X143752474Y-69618023D01*
D12*
X174385901Y-68090809D02*
X174052568Y-68090809D01*
X174052568Y-68614619D02*
X174052568Y-67614619D01*
X174052568Y-67614619D02*
X174528758Y-67614619D01*
X174862092Y-68567000D02*
X175004949Y-68614619D01*
X175004949Y-68614619D02*
X175243044Y-68614619D01*
X175243044Y-68614619D02*
X175338282Y-68567000D01*
X175338282Y-68567000D02*
X175385901Y-68519380D01*
X175385901Y-68519380D02*
X175433520Y-68424142D01*
X175433520Y-68424142D02*
X175433520Y-68328904D01*
X175433520Y-68328904D02*
X175385901Y-68233666D01*
X175385901Y-68233666D02*
X175338282Y-68186047D01*
X175338282Y-68186047D02*
X175243044Y-68138428D01*
X175243044Y-68138428D02*
X175052568Y-68090809D01*
X175052568Y-68090809D02*
X174957330Y-68043190D01*
X174957330Y-68043190D02*
X174909711Y-67995571D01*
X174909711Y-67995571D02*
X174862092Y-67900333D01*
X174862092Y-67900333D02*
X174862092Y-67805095D01*
X174862092Y-67805095D02*
X174909711Y-67709857D01*
X174909711Y-67709857D02*
X174957330Y-67662238D01*
X174957330Y-67662238D02*
X175052568Y-67614619D01*
X175052568Y-67614619D02*
X175290663Y-67614619D01*
X175290663Y-67614619D02*
X175433520Y-67662238D01*
D11*
X188877474Y-74789452D02*
X189115569Y-74789452D01*
X188829855Y-74932309D02*
X188996521Y-74432309D01*
X188996521Y-74432309D02*
X189163188Y-74932309D01*
X189591759Y-74932309D02*
X189306045Y-74932309D01*
X189448902Y-74932309D02*
X189448902Y-74432309D01*
X189448902Y-74432309D02*
X189401283Y-74503738D01*
X189401283Y-74503738D02*
X189353664Y-74551357D01*
X189353664Y-74551357D02*
X189306045Y-74575166D01*
X143536997Y-97709690D02*
X143513188Y-97733500D01*
X143513188Y-97733500D02*
X143441759Y-97757309D01*
X143441759Y-97757309D02*
X143394140Y-97757309D01*
X143394140Y-97757309D02*
X143322712Y-97733500D01*
X143322712Y-97733500D02*
X143275093Y-97685880D01*
X143275093Y-97685880D02*
X143251283Y-97638261D01*
X143251283Y-97638261D02*
X143227474Y-97543023D01*
X143227474Y-97543023D02*
X143227474Y-97471595D01*
X143227474Y-97471595D02*
X143251283Y-97376357D01*
X143251283Y-97376357D02*
X143275093Y-97328738D01*
X143275093Y-97328738D02*
X143322712Y-97281119D01*
X143322712Y-97281119D02*
X143394140Y-97257309D01*
X143394140Y-97257309D02*
X143441759Y-97257309D01*
X143441759Y-97257309D02*
X143513188Y-97281119D01*
X143513188Y-97281119D02*
X143536997Y-97304928D01*
X144013188Y-97757309D02*
X143727474Y-97757309D01*
X143870331Y-97757309D02*
X143870331Y-97257309D01*
X143870331Y-97257309D02*
X143822712Y-97328738D01*
X143822712Y-97328738D02*
X143775093Y-97376357D01*
X143775093Y-97376357D02*
X143727474Y-97400166D01*
X144489378Y-97757309D02*
X144203664Y-97757309D01*
X144346521Y-97757309D02*
X144346521Y-97257309D01*
X144346521Y-97257309D02*
X144298902Y-97328738D01*
X144298902Y-97328738D02*
X144251283Y-97376357D01*
X144251283Y-97376357D02*
X144203664Y-97400166D01*
X186736997Y-64034690D02*
X186713188Y-64058500D01*
X186713188Y-64058500D02*
X186641759Y-64082309D01*
X186641759Y-64082309D02*
X186594140Y-64082309D01*
X186594140Y-64082309D02*
X186522712Y-64058500D01*
X186522712Y-64058500D02*
X186475093Y-64010880D01*
X186475093Y-64010880D02*
X186451283Y-63963261D01*
X186451283Y-63963261D02*
X186427474Y-63868023D01*
X186427474Y-63868023D02*
X186427474Y-63796595D01*
X186427474Y-63796595D02*
X186451283Y-63701357D01*
X186451283Y-63701357D02*
X186475093Y-63653738D01*
X186475093Y-63653738D02*
X186522712Y-63606119D01*
X186522712Y-63606119D02*
X186594140Y-63582309D01*
X186594140Y-63582309D02*
X186641759Y-63582309D01*
X186641759Y-63582309D02*
X186713188Y-63606119D01*
X186713188Y-63606119D02*
X186736997Y-63629928D01*
X187189378Y-63582309D02*
X186951283Y-63582309D01*
X186951283Y-63582309D02*
X186927474Y-63820404D01*
X186927474Y-63820404D02*
X186951283Y-63796595D01*
X186951283Y-63796595D02*
X186998902Y-63772785D01*
X186998902Y-63772785D02*
X187117950Y-63772785D01*
X187117950Y-63772785D02*
X187165569Y-63796595D01*
X187165569Y-63796595D02*
X187189378Y-63820404D01*
X187189378Y-63820404D02*
X187213188Y-63868023D01*
X187213188Y-63868023D02*
X187213188Y-63987071D01*
X187213188Y-63987071D02*
X187189378Y-64034690D01*
X187189378Y-64034690D02*
X187165569Y-64058500D01*
X187165569Y-64058500D02*
X187117950Y-64082309D01*
X187117950Y-64082309D02*
X186998902Y-64082309D01*
X186998902Y-64082309D02*
X186951283Y-64058500D01*
X186951283Y-64058500D02*
X186927474Y-64034690D01*
X189057950Y-92335404D02*
X189129378Y-92359214D01*
X189129378Y-92359214D02*
X189153188Y-92383023D01*
X189153188Y-92383023D02*
X189176997Y-92430642D01*
X189176997Y-92430642D02*
X189176997Y-92502071D01*
X189176997Y-92502071D02*
X189153188Y-92549690D01*
X189153188Y-92549690D02*
X189129378Y-92573500D01*
X189129378Y-92573500D02*
X189081759Y-92597309D01*
X189081759Y-92597309D02*
X188891283Y-92597309D01*
X188891283Y-92597309D02*
X188891283Y-92097309D01*
X188891283Y-92097309D02*
X189057950Y-92097309D01*
X189057950Y-92097309D02*
X189105569Y-92121119D01*
X189105569Y-92121119D02*
X189129378Y-92144928D01*
X189129378Y-92144928D02*
X189153188Y-92192547D01*
X189153188Y-92192547D02*
X189153188Y-92240166D01*
X189153188Y-92240166D02*
X189129378Y-92287785D01*
X189129378Y-92287785D02*
X189105569Y-92311595D01*
X189105569Y-92311595D02*
X189057950Y-92335404D01*
X189057950Y-92335404D02*
X188891283Y-92335404D01*
X189605569Y-92097309D02*
X189510331Y-92097309D01*
X189510331Y-92097309D02*
X189462712Y-92121119D01*
X189462712Y-92121119D02*
X189438902Y-92144928D01*
X189438902Y-92144928D02*
X189391283Y-92216357D01*
X189391283Y-92216357D02*
X189367474Y-92311595D01*
X189367474Y-92311595D02*
X189367474Y-92502071D01*
X189367474Y-92502071D02*
X189391283Y-92549690D01*
X189391283Y-92549690D02*
X189415093Y-92573500D01*
X189415093Y-92573500D02*
X189462712Y-92597309D01*
X189462712Y-92597309D02*
X189557950Y-92597309D01*
X189557950Y-92597309D02*
X189605569Y-92573500D01*
X189605569Y-92573500D02*
X189629378Y-92549690D01*
X189629378Y-92549690D02*
X189653188Y-92502071D01*
X189653188Y-92502071D02*
X189653188Y-92383023D01*
X189653188Y-92383023D02*
X189629378Y-92335404D01*
X189629378Y-92335404D02*
X189605569Y-92311595D01*
X189605569Y-92311595D02*
X189557950Y-92287785D01*
X189557950Y-92287785D02*
X189462712Y-92287785D01*
X189462712Y-92287785D02*
X189415093Y-92311595D01*
X189415093Y-92311595D02*
X189391283Y-92335404D01*
X189391283Y-92335404D02*
X189367474Y-92383023D01*
X143277474Y-79989452D02*
X143515569Y-79989452D01*
X143229855Y-80132309D02*
X143396521Y-79632309D01*
X143396521Y-79632309D02*
X143563188Y-80132309D01*
X143801283Y-79846595D02*
X143753664Y-79822785D01*
X143753664Y-79822785D02*
X143729854Y-79798976D01*
X143729854Y-79798976D02*
X143706045Y-79751357D01*
X143706045Y-79751357D02*
X143706045Y-79727547D01*
X143706045Y-79727547D02*
X143729854Y-79679928D01*
X143729854Y-79679928D02*
X143753664Y-79656119D01*
X143753664Y-79656119D02*
X143801283Y-79632309D01*
X143801283Y-79632309D02*
X143896521Y-79632309D01*
X143896521Y-79632309D02*
X143944140Y-79656119D01*
X143944140Y-79656119D02*
X143967949Y-79679928D01*
X143967949Y-79679928D02*
X143991759Y-79727547D01*
X143991759Y-79727547D02*
X143991759Y-79751357D01*
X143991759Y-79751357D02*
X143967949Y-79798976D01*
X143967949Y-79798976D02*
X143944140Y-79822785D01*
X143944140Y-79822785D02*
X143896521Y-79846595D01*
X143896521Y-79846595D02*
X143801283Y-79846595D01*
X143801283Y-79846595D02*
X143753664Y-79870404D01*
X143753664Y-79870404D02*
X143729854Y-79894214D01*
X143729854Y-79894214D02*
X143706045Y-79941833D01*
X143706045Y-79941833D02*
X143706045Y-80037071D01*
X143706045Y-80037071D02*
X143729854Y-80084690D01*
X143729854Y-80084690D02*
X143753664Y-80108500D01*
X143753664Y-80108500D02*
X143801283Y-80132309D01*
X143801283Y-80132309D02*
X143896521Y-80132309D01*
X143896521Y-80132309D02*
X143944140Y-80108500D01*
X143944140Y-80108500D02*
X143967949Y-80084690D01*
X143967949Y-80084690D02*
X143991759Y-80037071D01*
X143991759Y-80037071D02*
X143991759Y-79941833D01*
X143991759Y-79941833D02*
X143967949Y-79894214D01*
X143967949Y-79894214D02*
X143944140Y-79870404D01*
X143944140Y-79870404D02*
X143896521Y-79846595D01*
D12*
X174052568Y-71189619D02*
X174052568Y-70189619D01*
X174052568Y-70665809D02*
X174623996Y-70665809D01*
X174623996Y-71189619D02*
X174623996Y-70189619D01*
X175052568Y-71142000D02*
X175195425Y-71189619D01*
X175195425Y-71189619D02*
X175433520Y-71189619D01*
X175433520Y-71189619D02*
X175528758Y-71142000D01*
X175528758Y-71142000D02*
X175576377Y-71094380D01*
X175576377Y-71094380D02*
X175623996Y-70999142D01*
X175623996Y-70999142D02*
X175623996Y-70903904D01*
X175623996Y-70903904D02*
X175576377Y-70808666D01*
X175576377Y-70808666D02*
X175528758Y-70761047D01*
X175528758Y-70761047D02*
X175433520Y-70713428D01*
X175433520Y-70713428D02*
X175243044Y-70665809D01*
X175243044Y-70665809D02*
X175147806Y-70618190D01*
X175147806Y-70618190D02*
X175100187Y-70570571D01*
X175100187Y-70570571D02*
X175052568Y-70475333D01*
X175052568Y-70475333D02*
X175052568Y-70380095D01*
X175052568Y-70380095D02*
X175100187Y-70284857D01*
X175100187Y-70284857D02*
X175147806Y-70237238D01*
X175147806Y-70237238D02*
X175243044Y-70189619D01*
X175243044Y-70189619D02*
X175481139Y-70189619D01*
X175481139Y-70189619D02*
X175623996Y-70237238D01*
D11*
X188867474Y-64469452D02*
X189105569Y-64469452D01*
X188819855Y-64612309D02*
X188986521Y-64112309D01*
X188986521Y-64112309D02*
X189153188Y-64612309D01*
X189272235Y-64112309D02*
X189605568Y-64112309D01*
X189605568Y-64112309D02*
X189391283Y-64612309D01*
X188901283Y-100097309D02*
X188901283Y-99597309D01*
X188901283Y-99597309D02*
X189020331Y-99597309D01*
X189020331Y-99597309D02*
X189091759Y-99621119D01*
X189091759Y-99621119D02*
X189139378Y-99668738D01*
X189139378Y-99668738D02*
X189163188Y-99716357D01*
X189163188Y-99716357D02*
X189186997Y-99811595D01*
X189186997Y-99811595D02*
X189186997Y-99883023D01*
X189186997Y-99883023D02*
X189163188Y-99978261D01*
X189163188Y-99978261D02*
X189139378Y-100025880D01*
X189139378Y-100025880D02*
X189091759Y-100073500D01*
X189091759Y-100073500D02*
X189020331Y-100097309D01*
X189020331Y-100097309D02*
X188901283Y-100097309D01*
X189377474Y-99644928D02*
X189401283Y-99621119D01*
X189401283Y-99621119D02*
X189448902Y-99597309D01*
X189448902Y-99597309D02*
X189567950Y-99597309D01*
X189567950Y-99597309D02*
X189615569Y-99621119D01*
X189615569Y-99621119D02*
X189639378Y-99644928D01*
X189639378Y-99644928D02*
X189663188Y-99692547D01*
X189663188Y-99692547D02*
X189663188Y-99740166D01*
X189663188Y-99740166D02*
X189639378Y-99811595D01*
X189639378Y-99811595D02*
X189353664Y-100097309D01*
X189353664Y-100097309D02*
X189663188Y-100097309D01*
X188992950Y-90070404D02*
X189064378Y-90094214D01*
X189064378Y-90094214D02*
X189088188Y-90118023D01*
X189088188Y-90118023D02*
X189111997Y-90165642D01*
X189111997Y-90165642D02*
X189111997Y-90237071D01*
X189111997Y-90237071D02*
X189088188Y-90284690D01*
X189088188Y-90284690D02*
X189064378Y-90308500D01*
X189064378Y-90308500D02*
X189016759Y-90332309D01*
X189016759Y-90332309D02*
X188826283Y-90332309D01*
X188826283Y-90332309D02*
X188826283Y-89832309D01*
X188826283Y-89832309D02*
X188992950Y-89832309D01*
X188992950Y-89832309D02*
X189040569Y-89856119D01*
X189040569Y-89856119D02*
X189064378Y-89879928D01*
X189064378Y-89879928D02*
X189088188Y-89927547D01*
X189088188Y-89927547D02*
X189088188Y-89975166D01*
X189088188Y-89975166D02*
X189064378Y-90022785D01*
X189064378Y-90022785D02*
X189040569Y-90046595D01*
X189040569Y-90046595D02*
X188992950Y-90070404D01*
X188992950Y-90070404D02*
X188826283Y-90070404D01*
X189278664Y-89832309D02*
X189611997Y-89832309D01*
X189611997Y-89832309D02*
X189397712Y-90332309D01*
X188992950Y-87195404D02*
X189064378Y-87219214D01*
X189064378Y-87219214D02*
X189088188Y-87243023D01*
X189088188Y-87243023D02*
X189111997Y-87290642D01*
X189111997Y-87290642D02*
X189111997Y-87362071D01*
X189111997Y-87362071D02*
X189088188Y-87409690D01*
X189088188Y-87409690D02*
X189064378Y-87433500D01*
X189064378Y-87433500D02*
X189016759Y-87457309D01*
X189016759Y-87457309D02*
X188826283Y-87457309D01*
X188826283Y-87457309D02*
X188826283Y-86957309D01*
X188826283Y-86957309D02*
X188992950Y-86957309D01*
X188992950Y-86957309D02*
X189040569Y-86981119D01*
X189040569Y-86981119D02*
X189064378Y-87004928D01*
X189064378Y-87004928D02*
X189088188Y-87052547D01*
X189088188Y-87052547D02*
X189088188Y-87100166D01*
X189088188Y-87100166D02*
X189064378Y-87147785D01*
X189064378Y-87147785D02*
X189040569Y-87171595D01*
X189040569Y-87171595D02*
X188992950Y-87195404D01*
X188992950Y-87195404D02*
X188826283Y-87195404D01*
X189397712Y-87171595D02*
X189350093Y-87147785D01*
X189350093Y-87147785D02*
X189326283Y-87123976D01*
X189326283Y-87123976D02*
X189302474Y-87076357D01*
X189302474Y-87076357D02*
X189302474Y-87052547D01*
X189302474Y-87052547D02*
X189326283Y-87004928D01*
X189326283Y-87004928D02*
X189350093Y-86981119D01*
X189350093Y-86981119D02*
X189397712Y-86957309D01*
X189397712Y-86957309D02*
X189492950Y-86957309D01*
X189492950Y-86957309D02*
X189540569Y-86981119D01*
X189540569Y-86981119D02*
X189564378Y-87004928D01*
X189564378Y-87004928D02*
X189588188Y-87052547D01*
X189588188Y-87052547D02*
X189588188Y-87076357D01*
X189588188Y-87076357D02*
X189564378Y-87123976D01*
X189564378Y-87123976D02*
X189540569Y-87147785D01*
X189540569Y-87147785D02*
X189492950Y-87171595D01*
X189492950Y-87171595D02*
X189397712Y-87171595D01*
X189397712Y-87171595D02*
X189350093Y-87195404D01*
X189350093Y-87195404D02*
X189326283Y-87219214D01*
X189326283Y-87219214D02*
X189302474Y-87266833D01*
X189302474Y-87266833D02*
X189302474Y-87362071D01*
X189302474Y-87362071D02*
X189326283Y-87409690D01*
X189326283Y-87409690D02*
X189350093Y-87433500D01*
X189350093Y-87433500D02*
X189397712Y-87457309D01*
X189397712Y-87457309D02*
X189492950Y-87457309D01*
X189492950Y-87457309D02*
X189540569Y-87433500D01*
X189540569Y-87433500D02*
X189564378Y-87409690D01*
X189564378Y-87409690D02*
X189588188Y-87362071D01*
X189588188Y-87362071D02*
X189588188Y-87266833D01*
X189588188Y-87266833D02*
X189564378Y-87219214D01*
X189564378Y-87219214D02*
X189540569Y-87195404D01*
X189540569Y-87195404D02*
X189492950Y-87171595D01*
X143586997Y-77484690D02*
X143563188Y-77508500D01*
X143563188Y-77508500D02*
X143491759Y-77532309D01*
X143491759Y-77532309D02*
X143444140Y-77532309D01*
X143444140Y-77532309D02*
X143372712Y-77508500D01*
X143372712Y-77508500D02*
X143325093Y-77460880D01*
X143325093Y-77460880D02*
X143301283Y-77413261D01*
X143301283Y-77413261D02*
X143277474Y-77318023D01*
X143277474Y-77318023D02*
X143277474Y-77246595D01*
X143277474Y-77246595D02*
X143301283Y-77151357D01*
X143301283Y-77151357D02*
X143325093Y-77103738D01*
X143325093Y-77103738D02*
X143372712Y-77056119D01*
X143372712Y-77056119D02*
X143444140Y-77032309D01*
X143444140Y-77032309D02*
X143491759Y-77032309D01*
X143491759Y-77032309D02*
X143563188Y-77056119D01*
X143563188Y-77056119D02*
X143586997Y-77079928D01*
X143825093Y-77532309D02*
X143920331Y-77532309D01*
X143920331Y-77532309D02*
X143967950Y-77508500D01*
X143967950Y-77508500D02*
X143991759Y-77484690D01*
X143991759Y-77484690D02*
X144039378Y-77413261D01*
X144039378Y-77413261D02*
X144063188Y-77318023D01*
X144063188Y-77318023D02*
X144063188Y-77127547D01*
X144063188Y-77127547D02*
X144039378Y-77079928D01*
X144039378Y-77079928D02*
X144015569Y-77056119D01*
X144015569Y-77056119D02*
X143967950Y-77032309D01*
X143967950Y-77032309D02*
X143872712Y-77032309D01*
X143872712Y-77032309D02*
X143825093Y-77056119D01*
X143825093Y-77056119D02*
X143801283Y-77079928D01*
X143801283Y-77079928D02*
X143777474Y-77127547D01*
X143777474Y-77127547D02*
X143777474Y-77246595D01*
X143777474Y-77246595D02*
X143801283Y-77294214D01*
X143801283Y-77294214D02*
X143825093Y-77318023D01*
X143825093Y-77318023D02*
X143872712Y-77341833D01*
X143872712Y-77341833D02*
X143967950Y-77341833D01*
X143967950Y-77341833D02*
X144015569Y-77318023D01*
X144015569Y-77318023D02*
X144039378Y-77294214D01*
X144039378Y-77294214D02*
X144063188Y-77246595D01*
X143327474Y-92439452D02*
X143565569Y-92439452D01*
X143279855Y-92582309D02*
X143446521Y-92082309D01*
X143446521Y-92082309D02*
X143613188Y-92582309D01*
X144041759Y-92582309D02*
X143756045Y-92582309D01*
X143898902Y-92582309D02*
X143898902Y-92082309D01*
X143898902Y-92082309D02*
X143851283Y-92153738D01*
X143851283Y-92153738D02*
X143803664Y-92201357D01*
X143803664Y-92201357D02*
X143756045Y-92225166D01*
X144494139Y-92082309D02*
X144256044Y-92082309D01*
X144256044Y-92082309D02*
X144232235Y-92320404D01*
X144232235Y-92320404D02*
X144256044Y-92296595D01*
X144256044Y-92296595D02*
X144303663Y-92272785D01*
X144303663Y-92272785D02*
X144422711Y-92272785D01*
X144422711Y-92272785D02*
X144470330Y-92296595D01*
X144470330Y-92296595D02*
X144494139Y-92320404D01*
X144494139Y-92320404D02*
X144517949Y-92368023D01*
X144517949Y-92368023D02*
X144517949Y-92487071D01*
X144517949Y-92487071D02*
X144494139Y-92534690D01*
X144494139Y-92534690D02*
X144470330Y-92558500D01*
X144470330Y-92558500D02*
X144422711Y-92582309D01*
X144422711Y-92582309D02*
X144303663Y-92582309D01*
X144303663Y-92582309D02*
X144256044Y-92558500D01*
X144256044Y-92558500D02*
X144232235Y-92534690D01*
X143302474Y-87339452D02*
X143540569Y-87339452D01*
X143254855Y-87482309D02*
X143421521Y-86982309D01*
X143421521Y-86982309D02*
X143588188Y-87482309D01*
X144016759Y-87482309D02*
X143731045Y-87482309D01*
X143873902Y-87482309D02*
X143873902Y-86982309D01*
X143873902Y-86982309D02*
X143826283Y-87053738D01*
X143826283Y-87053738D02*
X143778664Y-87101357D01*
X143778664Y-87101357D02*
X143731045Y-87125166D01*
X144183425Y-86982309D02*
X144492949Y-86982309D01*
X144492949Y-86982309D02*
X144326282Y-87172785D01*
X144326282Y-87172785D02*
X144397711Y-87172785D01*
X144397711Y-87172785D02*
X144445330Y-87196595D01*
X144445330Y-87196595D02*
X144469139Y-87220404D01*
X144469139Y-87220404D02*
X144492949Y-87268023D01*
X144492949Y-87268023D02*
X144492949Y-87387071D01*
X144492949Y-87387071D02*
X144469139Y-87434690D01*
X144469139Y-87434690D02*
X144445330Y-87458500D01*
X144445330Y-87458500D02*
X144397711Y-87482309D01*
X144397711Y-87482309D02*
X144254854Y-87482309D01*
X144254854Y-87482309D02*
X144207235Y-87458500D01*
X144207235Y-87458500D02*
X144183425Y-87434690D01*
X145064377Y-86958500D02*
X144635806Y-87601357D01*
X145207235Y-87458500D02*
X145278663Y-87482309D01*
X145278663Y-87482309D02*
X145397711Y-87482309D01*
X145397711Y-87482309D02*
X145445330Y-87458500D01*
X145445330Y-87458500D02*
X145469139Y-87434690D01*
X145469139Y-87434690D02*
X145492949Y-87387071D01*
X145492949Y-87387071D02*
X145492949Y-87339452D01*
X145492949Y-87339452D02*
X145469139Y-87291833D01*
X145469139Y-87291833D02*
X145445330Y-87268023D01*
X145445330Y-87268023D02*
X145397711Y-87244214D01*
X145397711Y-87244214D02*
X145302473Y-87220404D01*
X145302473Y-87220404D02*
X145254854Y-87196595D01*
X145254854Y-87196595D02*
X145231044Y-87172785D01*
X145231044Y-87172785D02*
X145207235Y-87125166D01*
X145207235Y-87125166D02*
X145207235Y-87077547D01*
X145207235Y-87077547D02*
X145231044Y-87029928D01*
X145231044Y-87029928D02*
X145254854Y-87006119D01*
X145254854Y-87006119D02*
X145302473Y-86982309D01*
X145302473Y-86982309D02*
X145421520Y-86982309D01*
X145421520Y-86982309D02*
X145492949Y-87006119D01*
X145659615Y-86982309D02*
X145778663Y-87482309D01*
X145778663Y-87482309D02*
X145873901Y-87125166D01*
X145873901Y-87125166D02*
X145969139Y-87482309D01*
X145969139Y-87482309D02*
X146088187Y-86982309D01*
X146278663Y-87482309D02*
X146278663Y-86982309D01*
X146278663Y-86982309D02*
X146397711Y-86982309D01*
X146397711Y-86982309D02*
X146469139Y-87006119D01*
X146469139Y-87006119D02*
X146516758Y-87053738D01*
X146516758Y-87053738D02*
X146540568Y-87101357D01*
X146540568Y-87101357D02*
X146564377Y-87196595D01*
X146564377Y-87196595D02*
X146564377Y-87268023D01*
X146564377Y-87268023D02*
X146540568Y-87363261D01*
X146540568Y-87363261D02*
X146516758Y-87410880D01*
X146516758Y-87410880D02*
X146469139Y-87458500D01*
X146469139Y-87458500D02*
X146397711Y-87482309D01*
X146397711Y-87482309D02*
X146278663Y-87482309D01*
X189067950Y-84770404D02*
X189139378Y-84794214D01*
X189139378Y-84794214D02*
X189163188Y-84818023D01*
X189163188Y-84818023D02*
X189186997Y-84865642D01*
X189186997Y-84865642D02*
X189186997Y-84937071D01*
X189186997Y-84937071D02*
X189163188Y-84984690D01*
X189163188Y-84984690D02*
X189139378Y-85008500D01*
X189139378Y-85008500D02*
X189091759Y-85032309D01*
X189091759Y-85032309D02*
X188901283Y-85032309D01*
X188901283Y-85032309D02*
X188901283Y-84532309D01*
X188901283Y-84532309D02*
X189067950Y-84532309D01*
X189067950Y-84532309D02*
X189115569Y-84556119D01*
X189115569Y-84556119D02*
X189139378Y-84579928D01*
X189139378Y-84579928D02*
X189163188Y-84627547D01*
X189163188Y-84627547D02*
X189163188Y-84675166D01*
X189163188Y-84675166D02*
X189139378Y-84722785D01*
X189139378Y-84722785D02*
X189115569Y-84746595D01*
X189115569Y-84746595D02*
X189067950Y-84770404D01*
X189067950Y-84770404D02*
X188901283Y-84770404D01*
X189425093Y-85032309D02*
X189520331Y-85032309D01*
X189520331Y-85032309D02*
X189567950Y-85008500D01*
X189567950Y-85008500D02*
X189591759Y-84984690D01*
X189591759Y-84984690D02*
X189639378Y-84913261D01*
X189639378Y-84913261D02*
X189663188Y-84818023D01*
X189663188Y-84818023D02*
X189663188Y-84627547D01*
X189663188Y-84627547D02*
X189639378Y-84579928D01*
X189639378Y-84579928D02*
X189615569Y-84556119D01*
X189615569Y-84556119D02*
X189567950Y-84532309D01*
X189567950Y-84532309D02*
X189472712Y-84532309D01*
X189472712Y-84532309D02*
X189425093Y-84556119D01*
X189425093Y-84556119D02*
X189401283Y-84579928D01*
X189401283Y-84579928D02*
X189377474Y-84627547D01*
X189377474Y-84627547D02*
X189377474Y-84746595D01*
X189377474Y-84746595D02*
X189401283Y-84794214D01*
X189401283Y-84794214D02*
X189425093Y-84818023D01*
X189425093Y-84818023D02*
X189472712Y-84841833D01*
X189472712Y-84841833D02*
X189567950Y-84841833D01*
X189567950Y-84841833D02*
X189615569Y-84818023D01*
X189615569Y-84818023D02*
X189639378Y-84794214D01*
X189639378Y-84794214D02*
X189663188Y-84746595D01*
X143327474Y-84939452D02*
X143565569Y-84939452D01*
X143279855Y-85082309D02*
X143446521Y-84582309D01*
X143446521Y-84582309D02*
X143613188Y-85082309D01*
X144041759Y-85082309D02*
X143756045Y-85082309D01*
X143898902Y-85082309D02*
X143898902Y-84582309D01*
X143898902Y-84582309D02*
X143851283Y-84653738D01*
X143851283Y-84653738D02*
X143803664Y-84701357D01*
X143803664Y-84701357D02*
X143756045Y-84725166D01*
X144351282Y-84582309D02*
X144398901Y-84582309D01*
X144398901Y-84582309D02*
X144446520Y-84606119D01*
X144446520Y-84606119D02*
X144470330Y-84629928D01*
X144470330Y-84629928D02*
X144494139Y-84677547D01*
X144494139Y-84677547D02*
X144517949Y-84772785D01*
X144517949Y-84772785D02*
X144517949Y-84891833D01*
X144517949Y-84891833D02*
X144494139Y-84987071D01*
X144494139Y-84987071D02*
X144470330Y-85034690D01*
X144470330Y-85034690D02*
X144446520Y-85058500D01*
X144446520Y-85058500D02*
X144398901Y-85082309D01*
X144398901Y-85082309D02*
X144351282Y-85082309D01*
X144351282Y-85082309D02*
X144303663Y-85058500D01*
X144303663Y-85058500D02*
X144279854Y-85034690D01*
X144279854Y-85034690D02*
X144256044Y-84987071D01*
X144256044Y-84987071D02*
X144232235Y-84891833D01*
X144232235Y-84891833D02*
X144232235Y-84772785D01*
X144232235Y-84772785D02*
X144256044Y-84677547D01*
X144256044Y-84677547D02*
X144279854Y-84629928D01*
X144279854Y-84629928D02*
X144303663Y-84606119D01*
X144303663Y-84606119D02*
X144351282Y-84582309D01*
X189211997Y-80009690D02*
X189188188Y-80033500D01*
X189188188Y-80033500D02*
X189116759Y-80057309D01*
X189116759Y-80057309D02*
X189069140Y-80057309D01*
X189069140Y-80057309D02*
X188997712Y-80033500D01*
X188997712Y-80033500D02*
X188950093Y-79985880D01*
X188950093Y-79985880D02*
X188926283Y-79938261D01*
X188926283Y-79938261D02*
X188902474Y-79843023D01*
X188902474Y-79843023D02*
X188902474Y-79771595D01*
X188902474Y-79771595D02*
X188926283Y-79676357D01*
X188926283Y-79676357D02*
X188950093Y-79628738D01*
X188950093Y-79628738D02*
X188997712Y-79581119D01*
X188997712Y-79581119D02*
X189069140Y-79557309D01*
X189069140Y-79557309D02*
X189116759Y-79557309D01*
X189116759Y-79557309D02*
X189188188Y-79581119D01*
X189188188Y-79581119D02*
X189211997Y-79604928D01*
X189688188Y-80057309D02*
X189402474Y-80057309D01*
X189545331Y-80057309D02*
X189545331Y-79557309D01*
X189545331Y-79557309D02*
X189497712Y-79628738D01*
X189497712Y-79628738D02*
X189450093Y-79676357D01*
X189450093Y-79676357D02*
X189402474Y-79700166D01*
X143236997Y-100409690D02*
X143213188Y-100433500D01*
X143213188Y-100433500D02*
X143141759Y-100457309D01*
X143141759Y-100457309D02*
X143094140Y-100457309D01*
X143094140Y-100457309D02*
X143022712Y-100433500D01*
X143022712Y-100433500D02*
X142975093Y-100385880D01*
X142975093Y-100385880D02*
X142951283Y-100338261D01*
X142951283Y-100338261D02*
X142927474Y-100243023D01*
X142927474Y-100243023D02*
X142927474Y-100171595D01*
X142927474Y-100171595D02*
X142951283Y-100076357D01*
X142951283Y-100076357D02*
X142975093Y-100028738D01*
X142975093Y-100028738D02*
X143022712Y-99981119D01*
X143022712Y-99981119D02*
X143094140Y-99957309D01*
X143094140Y-99957309D02*
X143141759Y-99957309D01*
X143141759Y-99957309D02*
X143213188Y-99981119D01*
X143213188Y-99981119D02*
X143236997Y-100004928D01*
X143713188Y-100457309D02*
X143427474Y-100457309D01*
X143570331Y-100457309D02*
X143570331Y-99957309D01*
X143570331Y-99957309D02*
X143522712Y-100028738D01*
X143522712Y-100028738D02*
X143475093Y-100076357D01*
X143475093Y-100076357D02*
X143427474Y-100100166D01*
X143903664Y-100004928D02*
X143927473Y-99981119D01*
X143927473Y-99981119D02*
X143975092Y-99957309D01*
X143975092Y-99957309D02*
X144094140Y-99957309D01*
X144094140Y-99957309D02*
X144141759Y-99981119D01*
X144141759Y-99981119D02*
X144165568Y-100004928D01*
X144165568Y-100004928D02*
X144189378Y-100052547D01*
X144189378Y-100052547D02*
X144189378Y-100100166D01*
X144189378Y-100100166D02*
X144165568Y-100171595D01*
X144165568Y-100171595D02*
X143879854Y-100457309D01*
X143879854Y-100457309D02*
X144189378Y-100457309D01*
X143177474Y-82389452D02*
X143415569Y-82389452D01*
X143129855Y-82532309D02*
X143296521Y-82032309D01*
X143296521Y-82032309D02*
X143463188Y-82532309D01*
X143653664Y-82532309D02*
X143748902Y-82532309D01*
X143748902Y-82532309D02*
X143796521Y-82508500D01*
X143796521Y-82508500D02*
X143820330Y-82484690D01*
X143820330Y-82484690D02*
X143867949Y-82413261D01*
X143867949Y-82413261D02*
X143891759Y-82318023D01*
X143891759Y-82318023D02*
X143891759Y-82127547D01*
X143891759Y-82127547D02*
X143867949Y-82079928D01*
X143867949Y-82079928D02*
X143844140Y-82056119D01*
X143844140Y-82056119D02*
X143796521Y-82032309D01*
X143796521Y-82032309D02*
X143701283Y-82032309D01*
X143701283Y-82032309D02*
X143653664Y-82056119D01*
X143653664Y-82056119D02*
X143629854Y-82079928D01*
X143629854Y-82079928D02*
X143606045Y-82127547D01*
X143606045Y-82127547D02*
X143606045Y-82246595D01*
X143606045Y-82246595D02*
X143629854Y-82294214D01*
X143629854Y-82294214D02*
X143653664Y-82318023D01*
X143653664Y-82318023D02*
X143701283Y-82341833D01*
X143701283Y-82341833D02*
X143796521Y-82341833D01*
X143796521Y-82341833D02*
X143844140Y-82318023D01*
X143844140Y-82318023D02*
X143867949Y-82294214D01*
X143867949Y-82294214D02*
X143891759Y-82246595D01*
X188852474Y-67064452D02*
X189090569Y-67064452D01*
X188804855Y-67207309D02*
X188971521Y-66707309D01*
X188971521Y-66707309D02*
X189138188Y-67207309D01*
X189519140Y-66707309D02*
X189423902Y-66707309D01*
X189423902Y-66707309D02*
X189376283Y-66731119D01*
X189376283Y-66731119D02*
X189352473Y-66754928D01*
X189352473Y-66754928D02*
X189304854Y-66826357D01*
X189304854Y-66826357D02*
X189281045Y-66921595D01*
X189281045Y-66921595D02*
X189281045Y-67112071D01*
X189281045Y-67112071D02*
X189304854Y-67159690D01*
X189304854Y-67159690D02*
X189328664Y-67183500D01*
X189328664Y-67183500D02*
X189376283Y-67207309D01*
X189376283Y-67207309D02*
X189471521Y-67207309D01*
X189471521Y-67207309D02*
X189519140Y-67183500D01*
X189519140Y-67183500D02*
X189542949Y-67159690D01*
X189542949Y-67159690D02*
X189566759Y-67112071D01*
X189566759Y-67112071D02*
X189566759Y-66993023D01*
X189566759Y-66993023D02*
X189542949Y-66945404D01*
X189542949Y-66945404D02*
X189519140Y-66921595D01*
X189519140Y-66921595D02*
X189471521Y-66897785D01*
X189471521Y-66897785D02*
X189376283Y-66897785D01*
X189376283Y-66897785D02*
X189328664Y-66921595D01*
X189328664Y-66921595D02*
X189304854Y-66945404D01*
X189304854Y-66945404D02*
X189281045Y-66993023D01*
X143442950Y-67120404D02*
X143514378Y-67144214D01*
X143514378Y-67144214D02*
X143538188Y-67168023D01*
X143538188Y-67168023D02*
X143561997Y-67215642D01*
X143561997Y-67215642D02*
X143561997Y-67287071D01*
X143561997Y-67287071D02*
X143538188Y-67334690D01*
X143538188Y-67334690D02*
X143514378Y-67358500D01*
X143514378Y-67358500D02*
X143466759Y-67382309D01*
X143466759Y-67382309D02*
X143276283Y-67382309D01*
X143276283Y-67382309D02*
X143276283Y-66882309D01*
X143276283Y-66882309D02*
X143442950Y-66882309D01*
X143442950Y-66882309D02*
X143490569Y-66906119D01*
X143490569Y-66906119D02*
X143514378Y-66929928D01*
X143514378Y-66929928D02*
X143538188Y-66977547D01*
X143538188Y-66977547D02*
X143538188Y-67025166D01*
X143538188Y-67025166D02*
X143514378Y-67072785D01*
X143514378Y-67072785D02*
X143490569Y-67096595D01*
X143490569Y-67096595D02*
X143442950Y-67120404D01*
X143442950Y-67120404D02*
X143276283Y-67120404D01*
X144038188Y-67382309D02*
X143752474Y-67382309D01*
X143895331Y-67382309D02*
X143895331Y-66882309D01*
X143895331Y-66882309D02*
X143847712Y-66953738D01*
X143847712Y-66953738D02*
X143800093Y-67001357D01*
X143800093Y-67001357D02*
X143752474Y-67025166D01*
X144490568Y-66882309D02*
X144252473Y-66882309D01*
X144252473Y-66882309D02*
X144228664Y-67120404D01*
X144228664Y-67120404D02*
X144252473Y-67096595D01*
X144252473Y-67096595D02*
X144300092Y-67072785D01*
X144300092Y-67072785D02*
X144419140Y-67072785D01*
X144419140Y-67072785D02*
X144466759Y-67096595D01*
X144466759Y-67096595D02*
X144490568Y-67120404D01*
X144490568Y-67120404D02*
X144514378Y-67168023D01*
X144514378Y-67168023D02*
X144514378Y-67287071D01*
X144514378Y-67287071D02*
X144490568Y-67334690D01*
X144490568Y-67334690D02*
X144466759Y-67358500D01*
X144466759Y-67358500D02*
X144419140Y-67382309D01*
X144419140Y-67382309D02*
X144300092Y-67382309D01*
X144300092Y-67382309D02*
X144252473Y-67358500D01*
X144252473Y-67358500D02*
X144228664Y-67334690D01*
X143611997Y-74959690D02*
X143588188Y-74983500D01*
X143588188Y-74983500D02*
X143516759Y-75007309D01*
X143516759Y-75007309D02*
X143469140Y-75007309D01*
X143469140Y-75007309D02*
X143397712Y-74983500D01*
X143397712Y-74983500D02*
X143350093Y-74935880D01*
X143350093Y-74935880D02*
X143326283Y-74888261D01*
X143326283Y-74888261D02*
X143302474Y-74793023D01*
X143302474Y-74793023D02*
X143302474Y-74721595D01*
X143302474Y-74721595D02*
X143326283Y-74626357D01*
X143326283Y-74626357D02*
X143350093Y-74578738D01*
X143350093Y-74578738D02*
X143397712Y-74531119D01*
X143397712Y-74531119D02*
X143469140Y-74507309D01*
X143469140Y-74507309D02*
X143516759Y-74507309D01*
X143516759Y-74507309D02*
X143588188Y-74531119D01*
X143588188Y-74531119D02*
X143611997Y-74554928D01*
X143897712Y-74721595D02*
X143850093Y-74697785D01*
X143850093Y-74697785D02*
X143826283Y-74673976D01*
X143826283Y-74673976D02*
X143802474Y-74626357D01*
X143802474Y-74626357D02*
X143802474Y-74602547D01*
X143802474Y-74602547D02*
X143826283Y-74554928D01*
X143826283Y-74554928D02*
X143850093Y-74531119D01*
X143850093Y-74531119D02*
X143897712Y-74507309D01*
X143897712Y-74507309D02*
X143992950Y-74507309D01*
X143992950Y-74507309D02*
X144040569Y-74531119D01*
X144040569Y-74531119D02*
X144064378Y-74554928D01*
X144064378Y-74554928D02*
X144088188Y-74602547D01*
X144088188Y-74602547D02*
X144088188Y-74626357D01*
X144088188Y-74626357D02*
X144064378Y-74673976D01*
X144064378Y-74673976D02*
X144040569Y-74697785D01*
X144040569Y-74697785D02*
X143992950Y-74721595D01*
X143992950Y-74721595D02*
X143897712Y-74721595D01*
X143897712Y-74721595D02*
X143850093Y-74745404D01*
X143850093Y-74745404D02*
X143826283Y-74769214D01*
X143826283Y-74769214D02*
X143802474Y-74816833D01*
X143802474Y-74816833D02*
X143802474Y-74912071D01*
X143802474Y-74912071D02*
X143826283Y-74959690D01*
X143826283Y-74959690D02*
X143850093Y-74983500D01*
X143850093Y-74983500D02*
X143897712Y-75007309D01*
X143897712Y-75007309D02*
X143992950Y-75007309D01*
X143992950Y-75007309D02*
X144040569Y-74983500D01*
X144040569Y-74983500D02*
X144064378Y-74959690D01*
X144064378Y-74959690D02*
X144088188Y-74912071D01*
X144088188Y-74912071D02*
X144088188Y-74816833D01*
X144088188Y-74816833D02*
X144064378Y-74769214D01*
X144064378Y-74769214D02*
X144040569Y-74745404D01*
X144040569Y-74745404D02*
X143992950Y-74721595D01*
X143561997Y-72384690D02*
X143538188Y-72408500D01*
X143538188Y-72408500D02*
X143466759Y-72432309D01*
X143466759Y-72432309D02*
X143419140Y-72432309D01*
X143419140Y-72432309D02*
X143347712Y-72408500D01*
X143347712Y-72408500D02*
X143300093Y-72360880D01*
X143300093Y-72360880D02*
X143276283Y-72313261D01*
X143276283Y-72313261D02*
X143252474Y-72218023D01*
X143252474Y-72218023D02*
X143252474Y-72146595D01*
X143252474Y-72146595D02*
X143276283Y-72051357D01*
X143276283Y-72051357D02*
X143300093Y-72003738D01*
X143300093Y-72003738D02*
X143347712Y-71956119D01*
X143347712Y-71956119D02*
X143419140Y-71932309D01*
X143419140Y-71932309D02*
X143466759Y-71932309D01*
X143466759Y-71932309D02*
X143538188Y-71956119D01*
X143538188Y-71956119D02*
X143561997Y-71979928D01*
X143728664Y-71932309D02*
X144061997Y-71932309D01*
X144061997Y-71932309D02*
X143847712Y-72432309D01*
X143227474Y-90164452D02*
X143465569Y-90164452D01*
X143179855Y-90307309D02*
X143346521Y-89807309D01*
X143346521Y-89807309D02*
X143513188Y-90307309D01*
X143941759Y-90307309D02*
X143656045Y-90307309D01*
X143798902Y-90307309D02*
X143798902Y-89807309D01*
X143798902Y-89807309D02*
X143751283Y-89878738D01*
X143751283Y-89878738D02*
X143703664Y-89926357D01*
X143703664Y-89926357D02*
X143656045Y-89950166D01*
X144370330Y-89973976D02*
X144370330Y-90307309D01*
X144251282Y-89783500D02*
X144132235Y-90140642D01*
X144132235Y-90140642D02*
X144441758Y-90140642D01*
X144989377Y-89783500D02*
X144560806Y-90426357D01*
X145132235Y-90283500D02*
X145203663Y-90307309D01*
X145203663Y-90307309D02*
X145322711Y-90307309D01*
X145322711Y-90307309D02*
X145370330Y-90283500D01*
X145370330Y-90283500D02*
X145394139Y-90259690D01*
X145394139Y-90259690D02*
X145417949Y-90212071D01*
X145417949Y-90212071D02*
X145417949Y-90164452D01*
X145417949Y-90164452D02*
X145394139Y-90116833D01*
X145394139Y-90116833D02*
X145370330Y-90093023D01*
X145370330Y-90093023D02*
X145322711Y-90069214D01*
X145322711Y-90069214D02*
X145227473Y-90045404D01*
X145227473Y-90045404D02*
X145179854Y-90021595D01*
X145179854Y-90021595D02*
X145156044Y-89997785D01*
X145156044Y-89997785D02*
X145132235Y-89950166D01*
X145132235Y-89950166D02*
X145132235Y-89902547D01*
X145132235Y-89902547D02*
X145156044Y-89854928D01*
X145156044Y-89854928D02*
X145179854Y-89831119D01*
X145179854Y-89831119D02*
X145227473Y-89807309D01*
X145227473Y-89807309D02*
X145346520Y-89807309D01*
X145346520Y-89807309D02*
X145417949Y-89831119D01*
X145584615Y-89807309D02*
X145703663Y-90307309D01*
X145703663Y-90307309D02*
X145798901Y-89950166D01*
X145798901Y-89950166D02*
X145894139Y-90307309D01*
X145894139Y-90307309D02*
X146013187Y-89807309D01*
X146489377Y-90259690D02*
X146465568Y-90283500D01*
X146465568Y-90283500D02*
X146394139Y-90307309D01*
X146394139Y-90307309D02*
X146346520Y-90307309D01*
X146346520Y-90307309D02*
X146275092Y-90283500D01*
X146275092Y-90283500D02*
X146227473Y-90235880D01*
X146227473Y-90235880D02*
X146203663Y-90188261D01*
X146203663Y-90188261D02*
X146179854Y-90093023D01*
X146179854Y-90093023D02*
X146179854Y-90021595D01*
X146179854Y-90021595D02*
X146203663Y-89926357D01*
X146203663Y-89926357D02*
X146227473Y-89878738D01*
X146227473Y-89878738D02*
X146275092Y-89831119D01*
X146275092Y-89831119D02*
X146346520Y-89807309D01*
X146346520Y-89807309D02*
X146394139Y-89807309D01*
X146394139Y-89807309D02*
X146465568Y-89831119D01*
X146465568Y-89831119D02*
X146489377Y-89854928D01*
X143586997Y-95134690D02*
X143563188Y-95158500D01*
X143563188Y-95158500D02*
X143491759Y-95182309D01*
X143491759Y-95182309D02*
X143444140Y-95182309D01*
X143444140Y-95182309D02*
X143372712Y-95158500D01*
X143372712Y-95158500D02*
X143325093Y-95110880D01*
X143325093Y-95110880D02*
X143301283Y-95063261D01*
X143301283Y-95063261D02*
X143277474Y-94968023D01*
X143277474Y-94968023D02*
X143277474Y-94896595D01*
X143277474Y-94896595D02*
X143301283Y-94801357D01*
X143301283Y-94801357D02*
X143325093Y-94753738D01*
X143325093Y-94753738D02*
X143372712Y-94706119D01*
X143372712Y-94706119D02*
X143444140Y-94682309D01*
X143444140Y-94682309D02*
X143491759Y-94682309D01*
X143491759Y-94682309D02*
X143563188Y-94706119D01*
X143563188Y-94706119D02*
X143586997Y-94729928D01*
X144063188Y-95182309D02*
X143777474Y-95182309D01*
X143920331Y-95182309D02*
X143920331Y-94682309D01*
X143920331Y-94682309D02*
X143872712Y-94753738D01*
X143872712Y-94753738D02*
X143825093Y-94801357D01*
X143825093Y-94801357D02*
X143777474Y-94825166D01*
X144372711Y-94682309D02*
X144420330Y-94682309D01*
X144420330Y-94682309D02*
X144467949Y-94706119D01*
X144467949Y-94706119D02*
X144491759Y-94729928D01*
X144491759Y-94729928D02*
X144515568Y-94777547D01*
X144515568Y-94777547D02*
X144539378Y-94872785D01*
X144539378Y-94872785D02*
X144539378Y-94991833D01*
X144539378Y-94991833D02*
X144515568Y-95087071D01*
X144515568Y-95087071D02*
X144491759Y-95134690D01*
X144491759Y-95134690D02*
X144467949Y-95158500D01*
X144467949Y-95158500D02*
X144420330Y-95182309D01*
X144420330Y-95182309D02*
X144372711Y-95182309D01*
X144372711Y-95182309D02*
X144325092Y-95158500D01*
X144325092Y-95158500D02*
X144301283Y-95134690D01*
X144301283Y-95134690D02*
X144277473Y-95087071D01*
X144277473Y-95087071D02*
X144253664Y-94991833D01*
X144253664Y-94991833D02*
X144253664Y-94872785D01*
X144253664Y-94872785D02*
X144277473Y-94777547D01*
X144277473Y-94777547D02*
X144301283Y-94729928D01*
X144301283Y-94729928D02*
X144325092Y-94706119D01*
X144325092Y-94706119D02*
X144372711Y-94682309D01*
X183888188Y-63706119D02*
X183840569Y-63682309D01*
X183840569Y-63682309D02*
X183769140Y-63682309D01*
X183769140Y-63682309D02*
X183697712Y-63706119D01*
X183697712Y-63706119D02*
X183650093Y-63753738D01*
X183650093Y-63753738D02*
X183626283Y-63801357D01*
X183626283Y-63801357D02*
X183602474Y-63896595D01*
X183602474Y-63896595D02*
X183602474Y-63968023D01*
X183602474Y-63968023D02*
X183626283Y-64063261D01*
X183626283Y-64063261D02*
X183650093Y-64110880D01*
X183650093Y-64110880D02*
X183697712Y-64158500D01*
X183697712Y-64158500D02*
X183769140Y-64182309D01*
X183769140Y-64182309D02*
X183816759Y-64182309D01*
X183816759Y-64182309D02*
X183888188Y-64158500D01*
X183888188Y-64158500D02*
X183911997Y-64134690D01*
X183911997Y-64134690D02*
X183911997Y-63968023D01*
X183911997Y-63968023D02*
X183816759Y-63968023D01*
X184126283Y-64182309D02*
X184126283Y-63682309D01*
X184126283Y-63682309D02*
X184411997Y-64182309D01*
X184411997Y-64182309D02*
X184411997Y-63682309D01*
X184650093Y-64182309D02*
X184650093Y-63682309D01*
X184650093Y-63682309D02*
X184769141Y-63682309D01*
X184769141Y-63682309D02*
X184840569Y-63706119D01*
X184840569Y-63706119D02*
X184888188Y-63753738D01*
X184888188Y-63753738D02*
X184911998Y-63801357D01*
X184911998Y-63801357D02*
X184935807Y-63896595D01*
X184935807Y-63896595D02*
X184935807Y-63968023D01*
X184935807Y-63968023D02*
X184911998Y-64063261D01*
X184911998Y-64063261D02*
X184888188Y-64110880D01*
X184888188Y-64110880D02*
X184840569Y-64158500D01*
X184840569Y-64158500D02*
X184769141Y-64182309D01*
X184769141Y-64182309D02*
X184650093Y-64182309D01*
X143447950Y-62200404D02*
X143519378Y-62224214D01*
X143519378Y-62224214D02*
X143543188Y-62248023D01*
X143543188Y-62248023D02*
X143566997Y-62295642D01*
X143566997Y-62295642D02*
X143566997Y-62367071D01*
X143566997Y-62367071D02*
X143543188Y-62414690D01*
X143543188Y-62414690D02*
X143519378Y-62438500D01*
X143519378Y-62438500D02*
X143471759Y-62462309D01*
X143471759Y-62462309D02*
X143281283Y-62462309D01*
X143281283Y-62462309D02*
X143281283Y-61962309D01*
X143281283Y-61962309D02*
X143447950Y-61962309D01*
X143447950Y-61962309D02*
X143495569Y-61986119D01*
X143495569Y-61986119D02*
X143519378Y-62009928D01*
X143519378Y-62009928D02*
X143543188Y-62057547D01*
X143543188Y-62057547D02*
X143543188Y-62105166D01*
X143543188Y-62105166D02*
X143519378Y-62152785D01*
X143519378Y-62152785D02*
X143495569Y-62176595D01*
X143495569Y-62176595D02*
X143447950Y-62200404D01*
X143447950Y-62200404D02*
X143281283Y-62200404D01*
X143757474Y-62009928D02*
X143781283Y-61986119D01*
X143781283Y-61986119D02*
X143828902Y-61962309D01*
X143828902Y-61962309D02*
X143947950Y-61962309D01*
X143947950Y-61962309D02*
X143995569Y-61986119D01*
X143995569Y-61986119D02*
X144019378Y-62009928D01*
X144019378Y-62009928D02*
X144043188Y-62057547D01*
X144043188Y-62057547D02*
X144043188Y-62105166D01*
X144043188Y-62105166D02*
X144019378Y-62176595D01*
X144019378Y-62176595D02*
X143733664Y-62462309D01*
X143733664Y-62462309D02*
X144043188Y-62462309D01*
X144614616Y-61938500D02*
X144186045Y-62581357D01*
X144947950Y-62200404D02*
X145019378Y-62224214D01*
X145019378Y-62224214D02*
X145043188Y-62248023D01*
X145043188Y-62248023D02*
X145066997Y-62295642D01*
X145066997Y-62295642D02*
X145066997Y-62367071D01*
X145066997Y-62367071D02*
X145043188Y-62414690D01*
X145043188Y-62414690D02*
X145019378Y-62438500D01*
X145019378Y-62438500D02*
X144971759Y-62462309D01*
X144971759Y-62462309D02*
X144781283Y-62462309D01*
X144781283Y-62462309D02*
X144781283Y-61962309D01*
X144781283Y-61962309D02*
X144947950Y-61962309D01*
X144947950Y-61962309D02*
X144995569Y-61986119D01*
X144995569Y-61986119D02*
X145019378Y-62009928D01*
X145019378Y-62009928D02*
X145043188Y-62057547D01*
X145043188Y-62057547D02*
X145043188Y-62105166D01*
X145043188Y-62105166D02*
X145019378Y-62152785D01*
X145019378Y-62152785D02*
X144995569Y-62176595D01*
X144995569Y-62176595D02*
X144947950Y-62200404D01*
X144947950Y-62200404D02*
X144781283Y-62200404D01*
X145376521Y-61962309D02*
X145471759Y-61962309D01*
X145471759Y-61962309D02*
X145519378Y-61986119D01*
X145519378Y-61986119D02*
X145566997Y-62033738D01*
X145566997Y-62033738D02*
X145590807Y-62128976D01*
X145590807Y-62128976D02*
X145590807Y-62295642D01*
X145590807Y-62295642D02*
X145566997Y-62390880D01*
X145566997Y-62390880D02*
X145519378Y-62438500D01*
X145519378Y-62438500D02*
X145471759Y-62462309D01*
X145471759Y-62462309D02*
X145376521Y-62462309D01*
X145376521Y-62462309D02*
X145328902Y-62438500D01*
X145328902Y-62438500D02*
X145281283Y-62390880D01*
X145281283Y-62390880D02*
X145257474Y-62295642D01*
X145257474Y-62295642D02*
X145257474Y-62128976D01*
X145257474Y-62128976D02*
X145281283Y-62033738D01*
X145281283Y-62033738D02*
X145328902Y-61986119D01*
X145328902Y-61986119D02*
X145376521Y-61962309D01*
X145900331Y-61962309D02*
X145995569Y-61962309D01*
X145995569Y-61962309D02*
X146043188Y-61986119D01*
X146043188Y-61986119D02*
X146090807Y-62033738D01*
X146090807Y-62033738D02*
X146114617Y-62128976D01*
X146114617Y-62128976D02*
X146114617Y-62295642D01*
X146114617Y-62295642D02*
X146090807Y-62390880D01*
X146090807Y-62390880D02*
X146043188Y-62438500D01*
X146043188Y-62438500D02*
X145995569Y-62462309D01*
X145995569Y-62462309D02*
X145900331Y-62462309D01*
X145900331Y-62462309D02*
X145852712Y-62438500D01*
X145852712Y-62438500D02*
X145805093Y-62390880D01*
X145805093Y-62390880D02*
X145781284Y-62295642D01*
X145781284Y-62295642D02*
X145781284Y-62128976D01*
X145781284Y-62128976D02*
X145805093Y-62033738D01*
X145805093Y-62033738D02*
X145852712Y-61986119D01*
X145852712Y-61986119D02*
X145900331Y-61962309D01*
X146257475Y-61962309D02*
X146543189Y-61962309D01*
X146400332Y-62462309D02*
X146400332Y-61962309D01*
X146971760Y-62462309D02*
X146686046Y-62462309D01*
X146828903Y-62462309D02*
X146828903Y-61962309D01*
X146828903Y-61962309D02*
X146781284Y-62033738D01*
X146781284Y-62033738D02*
X146733665Y-62081357D01*
X146733665Y-62081357D02*
X146686046Y-62105166D01*
X189061997Y-82559690D02*
X189038188Y-82583500D01*
X189038188Y-82583500D02*
X188966759Y-82607309D01*
X188966759Y-82607309D02*
X188919140Y-82607309D01*
X188919140Y-82607309D02*
X188847712Y-82583500D01*
X188847712Y-82583500D02*
X188800093Y-82535880D01*
X188800093Y-82535880D02*
X188776283Y-82488261D01*
X188776283Y-82488261D02*
X188752474Y-82393023D01*
X188752474Y-82393023D02*
X188752474Y-82321595D01*
X188752474Y-82321595D02*
X188776283Y-82226357D01*
X188776283Y-82226357D02*
X188800093Y-82178738D01*
X188800093Y-82178738D02*
X188847712Y-82131119D01*
X188847712Y-82131119D02*
X188919140Y-82107309D01*
X188919140Y-82107309D02*
X188966759Y-82107309D01*
X188966759Y-82107309D02*
X189038188Y-82131119D01*
X189038188Y-82131119D02*
X189061997Y-82154928D01*
X189538188Y-82607309D02*
X189252474Y-82607309D01*
X189395331Y-82607309D02*
X189395331Y-82107309D01*
X189395331Y-82107309D02*
X189347712Y-82178738D01*
X189347712Y-82178738D02*
X189300093Y-82226357D01*
X189300093Y-82226357D02*
X189252474Y-82250166D01*
X189704854Y-82107309D02*
X190014378Y-82107309D01*
X190014378Y-82107309D02*
X189847711Y-82297785D01*
X189847711Y-82297785D02*
X189919140Y-82297785D01*
X189919140Y-82297785D02*
X189966759Y-82321595D01*
X189966759Y-82321595D02*
X189990568Y-82345404D01*
X189990568Y-82345404D02*
X190014378Y-82393023D01*
X190014378Y-82393023D02*
X190014378Y-82512071D01*
X190014378Y-82512071D02*
X189990568Y-82559690D01*
X189990568Y-82559690D02*
X189966759Y-82583500D01*
X189966759Y-82583500D02*
X189919140Y-82607309D01*
X189919140Y-82607309D02*
X189776283Y-82607309D01*
X189776283Y-82607309D02*
X189728664Y-82583500D01*
X189728664Y-82583500D02*
X189704854Y-82559690D01*
X189067950Y-97335404D02*
X189139378Y-97359214D01*
X189139378Y-97359214D02*
X189163188Y-97383023D01*
X189163188Y-97383023D02*
X189186997Y-97430642D01*
X189186997Y-97430642D02*
X189186997Y-97502071D01*
X189186997Y-97502071D02*
X189163188Y-97549690D01*
X189163188Y-97549690D02*
X189139378Y-97573500D01*
X189139378Y-97573500D02*
X189091759Y-97597309D01*
X189091759Y-97597309D02*
X188901283Y-97597309D01*
X188901283Y-97597309D02*
X188901283Y-97097309D01*
X188901283Y-97097309D02*
X189067950Y-97097309D01*
X189067950Y-97097309D02*
X189115569Y-97121119D01*
X189115569Y-97121119D02*
X189139378Y-97144928D01*
X189139378Y-97144928D02*
X189163188Y-97192547D01*
X189163188Y-97192547D02*
X189163188Y-97240166D01*
X189163188Y-97240166D02*
X189139378Y-97287785D01*
X189139378Y-97287785D02*
X189115569Y-97311595D01*
X189115569Y-97311595D02*
X189067950Y-97335404D01*
X189067950Y-97335404D02*
X188901283Y-97335404D01*
X189353664Y-97097309D02*
X189663188Y-97097309D01*
X189663188Y-97097309D02*
X189496521Y-97287785D01*
X189496521Y-97287785D02*
X189567950Y-97287785D01*
X189567950Y-97287785D02*
X189615569Y-97311595D01*
X189615569Y-97311595D02*
X189639378Y-97335404D01*
X189639378Y-97335404D02*
X189663188Y-97383023D01*
X189663188Y-97383023D02*
X189663188Y-97502071D01*
X189663188Y-97502071D02*
X189639378Y-97549690D01*
X189639378Y-97549690D02*
X189615569Y-97573500D01*
X189615569Y-97573500D02*
X189567950Y-97597309D01*
X189567950Y-97597309D02*
X189425093Y-97597309D01*
X189425093Y-97597309D02*
X189377474Y-97573500D01*
X189377474Y-97573500D02*
X189353664Y-97549690D01*
X188852474Y-69614452D02*
X189090569Y-69614452D01*
X188804855Y-69757309D02*
X188971521Y-69257309D01*
X188971521Y-69257309D02*
X189138188Y-69757309D01*
X189519140Y-69423976D02*
X189519140Y-69757309D01*
X189400092Y-69233500D02*
X189281045Y-69590642D01*
X189281045Y-69590642D02*
X189590568Y-69590642D01*
X189067950Y-94845404D02*
X189139378Y-94869214D01*
X189139378Y-94869214D02*
X189163188Y-94893023D01*
X189163188Y-94893023D02*
X189186997Y-94940642D01*
X189186997Y-94940642D02*
X189186997Y-95012071D01*
X189186997Y-95012071D02*
X189163188Y-95059690D01*
X189163188Y-95059690D02*
X189139378Y-95083500D01*
X189139378Y-95083500D02*
X189091759Y-95107309D01*
X189091759Y-95107309D02*
X188901283Y-95107309D01*
X188901283Y-95107309D02*
X188901283Y-94607309D01*
X188901283Y-94607309D02*
X189067950Y-94607309D01*
X189067950Y-94607309D02*
X189115569Y-94631119D01*
X189115569Y-94631119D02*
X189139378Y-94654928D01*
X189139378Y-94654928D02*
X189163188Y-94702547D01*
X189163188Y-94702547D02*
X189163188Y-94750166D01*
X189163188Y-94750166D02*
X189139378Y-94797785D01*
X189139378Y-94797785D02*
X189115569Y-94821595D01*
X189115569Y-94821595D02*
X189067950Y-94845404D01*
X189067950Y-94845404D02*
X188901283Y-94845404D01*
X189615569Y-94773976D02*
X189615569Y-95107309D01*
X189496521Y-94583500D02*
X189377474Y-94940642D01*
X189377474Y-94940642D02*
X189686997Y-94940642D01*
X189166997Y-62054690D02*
X189143188Y-62078500D01*
X189143188Y-62078500D02*
X189071759Y-62102309D01*
X189071759Y-62102309D02*
X189024140Y-62102309D01*
X189024140Y-62102309D02*
X188952712Y-62078500D01*
X188952712Y-62078500D02*
X188905093Y-62030880D01*
X188905093Y-62030880D02*
X188881283Y-61983261D01*
X188881283Y-61983261D02*
X188857474Y-61888023D01*
X188857474Y-61888023D02*
X188857474Y-61816595D01*
X188857474Y-61816595D02*
X188881283Y-61721357D01*
X188881283Y-61721357D02*
X188905093Y-61673738D01*
X188905093Y-61673738D02*
X188952712Y-61626119D01*
X188952712Y-61626119D02*
X189024140Y-61602309D01*
X189024140Y-61602309D02*
X189071759Y-61602309D01*
X189071759Y-61602309D02*
X189143188Y-61626119D01*
X189143188Y-61626119D02*
X189166997Y-61649928D01*
X189595569Y-61768976D02*
X189595569Y-62102309D01*
X189476521Y-61578500D02*
X189357474Y-61935642D01*
X189357474Y-61935642D02*
X189666997Y-61935642D01*
X181076283Y-63991833D02*
X181457236Y-63991833D01*
X181266759Y-64182309D02*
X181266759Y-63801357D01*
X181933426Y-63682309D02*
X181695331Y-63682309D01*
X181695331Y-63682309D02*
X181671522Y-63920404D01*
X181671522Y-63920404D02*
X181695331Y-63896595D01*
X181695331Y-63896595D02*
X181742950Y-63872785D01*
X181742950Y-63872785D02*
X181861998Y-63872785D01*
X181861998Y-63872785D02*
X181909617Y-63896595D01*
X181909617Y-63896595D02*
X181933426Y-63920404D01*
X181933426Y-63920404D02*
X181957236Y-63968023D01*
X181957236Y-63968023D02*
X181957236Y-64087071D01*
X181957236Y-64087071D02*
X181933426Y-64134690D01*
X181933426Y-64134690D02*
X181909617Y-64158500D01*
X181909617Y-64158500D02*
X181861998Y-64182309D01*
X181861998Y-64182309D02*
X181742950Y-64182309D01*
X181742950Y-64182309D02*
X181695331Y-64158500D01*
X181695331Y-64158500D02*
X181671522Y-64134690D01*
X182100093Y-63682309D02*
X182266759Y-64182309D01*
X182266759Y-64182309D02*
X182433426Y-63682309D01*
X143442950Y-64520404D02*
X143514378Y-64544214D01*
X143514378Y-64544214D02*
X143538188Y-64568023D01*
X143538188Y-64568023D02*
X143561997Y-64615642D01*
X143561997Y-64615642D02*
X143561997Y-64687071D01*
X143561997Y-64687071D02*
X143538188Y-64734690D01*
X143538188Y-64734690D02*
X143514378Y-64758500D01*
X143514378Y-64758500D02*
X143466759Y-64782309D01*
X143466759Y-64782309D02*
X143276283Y-64782309D01*
X143276283Y-64782309D02*
X143276283Y-64282309D01*
X143276283Y-64282309D02*
X143442950Y-64282309D01*
X143442950Y-64282309D02*
X143490569Y-64306119D01*
X143490569Y-64306119D02*
X143514378Y-64329928D01*
X143514378Y-64329928D02*
X143538188Y-64377547D01*
X143538188Y-64377547D02*
X143538188Y-64425166D01*
X143538188Y-64425166D02*
X143514378Y-64472785D01*
X143514378Y-64472785D02*
X143490569Y-64496595D01*
X143490569Y-64496595D02*
X143442950Y-64520404D01*
X143442950Y-64520404D02*
X143276283Y-64520404D01*
X144038188Y-64782309D02*
X143752474Y-64782309D01*
X143895331Y-64782309D02*
X143895331Y-64282309D01*
X143895331Y-64282309D02*
X143847712Y-64353738D01*
X143847712Y-64353738D02*
X143800093Y-64401357D01*
X143800093Y-64401357D02*
X143752474Y-64425166D01*
X144466759Y-64448976D02*
X144466759Y-64782309D01*
X144347711Y-64258500D02*
X144228664Y-64615642D01*
X144228664Y-64615642D02*
X144538187Y-64615642D01*
D13*
X171603333Y-81114819D02*
X171270000Y-80638628D01*
X171031905Y-81114819D02*
X171031905Y-80114819D01*
X171031905Y-80114819D02*
X171412857Y-80114819D01*
X171412857Y-80114819D02*
X171508095Y-80162438D01*
X171508095Y-80162438D02*
X171555714Y-80210057D01*
X171555714Y-80210057D02*
X171603333Y-80305295D01*
X171603333Y-80305295D02*
X171603333Y-80448152D01*
X171603333Y-80448152D02*
X171555714Y-80543390D01*
X171555714Y-80543390D02*
X171508095Y-80591009D01*
X171508095Y-80591009D02*
X171412857Y-80638628D01*
X171412857Y-80638628D02*
X171031905Y-80638628D01*
X171984286Y-80210057D02*
X172031905Y-80162438D01*
X172031905Y-80162438D02*
X172127143Y-80114819D01*
X172127143Y-80114819D02*
X172365238Y-80114819D01*
X172365238Y-80114819D02*
X172460476Y-80162438D01*
X172460476Y-80162438D02*
X172508095Y-80210057D01*
X172508095Y-80210057D02*
X172555714Y-80305295D01*
X172555714Y-80305295D02*
X172555714Y-80400533D01*
X172555714Y-80400533D02*
X172508095Y-80543390D01*
X172508095Y-80543390D02*
X171936667Y-81114819D01*
X171936667Y-81114819D02*
X172555714Y-81114819D01*
X150702380Y-99454819D02*
X150369047Y-98978628D01*
X150130952Y-99454819D02*
X150130952Y-98454819D01*
X150130952Y-98454819D02*
X150511904Y-98454819D01*
X150511904Y-98454819D02*
X150607142Y-98502438D01*
X150607142Y-98502438D02*
X150654761Y-98550057D01*
X150654761Y-98550057D02*
X150702380Y-98645295D01*
X150702380Y-98645295D02*
X150702380Y-98788152D01*
X150702380Y-98788152D02*
X150654761Y-98883390D01*
X150654761Y-98883390D02*
X150607142Y-98931009D01*
X150607142Y-98931009D02*
X150511904Y-98978628D01*
X150511904Y-98978628D02*
X150130952Y-98978628D01*
X151083333Y-99407200D02*
X151226190Y-99454819D01*
X151226190Y-99454819D02*
X151464285Y-99454819D01*
X151464285Y-99454819D02*
X151559523Y-99407200D01*
X151559523Y-99407200D02*
X151607142Y-99359580D01*
X151607142Y-99359580D02*
X151654761Y-99264342D01*
X151654761Y-99264342D02*
X151654761Y-99169104D01*
X151654761Y-99169104D02*
X151607142Y-99073866D01*
X151607142Y-99073866D02*
X151559523Y-99026247D01*
X151559523Y-99026247D02*
X151464285Y-98978628D01*
X151464285Y-98978628D02*
X151273809Y-98931009D01*
X151273809Y-98931009D02*
X151178571Y-98883390D01*
X151178571Y-98883390D02*
X151130952Y-98835771D01*
X151130952Y-98835771D02*
X151083333Y-98740533D01*
X151083333Y-98740533D02*
X151083333Y-98645295D01*
X151083333Y-98645295D02*
X151130952Y-98550057D01*
X151130952Y-98550057D02*
X151178571Y-98502438D01*
X151178571Y-98502438D02*
X151273809Y-98454819D01*
X151273809Y-98454819D02*
X151511904Y-98454819D01*
X151511904Y-98454819D02*
X151654761Y-98502438D01*
X151940476Y-98454819D02*
X152511904Y-98454819D01*
X152226190Y-99454819D02*
X152226190Y-98454819D01*
X144666666Y-98931009D02*
X144809523Y-98978628D01*
X144809523Y-98978628D02*
X144857142Y-99026247D01*
X144857142Y-99026247D02*
X144904761Y-99121485D01*
X144904761Y-99121485D02*
X144904761Y-99264342D01*
X144904761Y-99264342D02*
X144857142Y-99359580D01*
X144857142Y-99359580D02*
X144809523Y-99407200D01*
X144809523Y-99407200D02*
X144714285Y-99454819D01*
X144714285Y-99454819D02*
X144333333Y-99454819D01*
X144333333Y-99454819D02*
X144333333Y-98454819D01*
X144333333Y-98454819D02*
X144666666Y-98454819D01*
X144666666Y-98454819D02*
X144761904Y-98502438D01*
X144761904Y-98502438D02*
X144809523Y-98550057D01*
X144809523Y-98550057D02*
X144857142Y-98645295D01*
X144857142Y-98645295D02*
X144857142Y-98740533D01*
X144857142Y-98740533D02*
X144809523Y-98835771D01*
X144809523Y-98835771D02*
X144761904Y-98883390D01*
X144761904Y-98883390D02*
X144666666Y-98931009D01*
X144666666Y-98931009D02*
X144333333Y-98931009D01*
X145523809Y-98454819D02*
X145714285Y-98454819D01*
X145714285Y-98454819D02*
X145809523Y-98502438D01*
X145809523Y-98502438D02*
X145904761Y-98597676D01*
X145904761Y-98597676D02*
X145952380Y-98788152D01*
X145952380Y-98788152D02*
X145952380Y-99121485D01*
X145952380Y-99121485D02*
X145904761Y-99311961D01*
X145904761Y-99311961D02*
X145809523Y-99407200D01*
X145809523Y-99407200D02*
X145714285Y-99454819D01*
X145714285Y-99454819D02*
X145523809Y-99454819D01*
X145523809Y-99454819D02*
X145428571Y-99407200D01*
X145428571Y-99407200D02*
X145333333Y-99311961D01*
X145333333Y-99311961D02*
X145285714Y-99121485D01*
X145285714Y-99121485D02*
X145285714Y-98788152D01*
X145285714Y-98788152D02*
X145333333Y-98597676D01*
X145333333Y-98597676D02*
X145428571Y-98502438D01*
X145428571Y-98502438D02*
X145523809Y-98454819D01*
X146571428Y-98454819D02*
X146761904Y-98454819D01*
X146761904Y-98454819D02*
X146857142Y-98502438D01*
X146857142Y-98502438D02*
X146952380Y-98597676D01*
X146952380Y-98597676D02*
X146999999Y-98788152D01*
X146999999Y-98788152D02*
X146999999Y-99121485D01*
X146999999Y-99121485D02*
X146952380Y-99311961D01*
X146952380Y-99311961D02*
X146857142Y-99407200D01*
X146857142Y-99407200D02*
X146761904Y-99454819D01*
X146761904Y-99454819D02*
X146571428Y-99454819D01*
X146571428Y-99454819D02*
X146476190Y-99407200D01*
X146476190Y-99407200D02*
X146380952Y-99311961D01*
X146380952Y-99311961D02*
X146333333Y-99121485D01*
X146333333Y-99121485D02*
X146333333Y-98788152D01*
X146333333Y-98788152D02*
X146380952Y-98597676D01*
X146380952Y-98597676D02*
X146476190Y-98502438D01*
X146476190Y-98502438D02*
X146571428Y-98454819D01*
X147285714Y-98454819D02*
X147857142Y-98454819D01*
X147571428Y-99454819D02*
X147571428Y-98454819D01*
X148380952Y-98454819D02*
X148476190Y-98454819D01*
X148476190Y-98454819D02*
X148571428Y-98502438D01*
X148571428Y-98502438D02*
X148619047Y-98550057D01*
X148619047Y-98550057D02*
X148666666Y-98645295D01*
X148666666Y-98645295D02*
X148714285Y-98835771D01*
X148714285Y-98835771D02*
X148714285Y-99073866D01*
X148714285Y-99073866D02*
X148666666Y-99264342D01*
X148666666Y-99264342D02*
X148619047Y-99359580D01*
X148619047Y-99359580D02*
X148571428Y-99407200D01*
X148571428Y-99407200D02*
X148476190Y-99454819D01*
X148476190Y-99454819D02*
X148380952Y-99454819D01*
X148380952Y-99454819D02*
X148285714Y-99407200D01*
X148285714Y-99407200D02*
X148238095Y-99359580D01*
X148238095Y-99359580D02*
X148190476Y-99264342D01*
X148190476Y-99264342D02*
X148142857Y-99073866D01*
X148142857Y-99073866D02*
X148142857Y-98835771D01*
X148142857Y-98835771D02*
X148190476Y-98645295D01*
X148190476Y-98645295D02*
X148238095Y-98550057D01*
X148238095Y-98550057D02*
X148285714Y-98502438D01*
X148285714Y-98502438D02*
X148380952Y-98454819D01*
D14*
%TO.C,Jd1*%
X162170000Y-58215000D02*
X171330000Y-58215000D01*
X162170000Y-59920000D02*
X162170000Y-58215000D01*
X162170000Y-61930000D02*
X162170000Y-63850000D01*
X171330000Y-58215000D02*
X171330000Y-59920000D01*
X171330000Y-63850000D02*
X171330000Y-61930000D01*
%TO.C,Y3*%
X183655000Y-91625000D02*
X182305000Y-91625000D01*
X183655000Y-93375000D02*
X182305000Y-93375000D01*
%TO.C,C17*%
X181904420Y-96960000D02*
X182185580Y-96960000D01*
X181904420Y-97980000D02*
X182185580Y-97980000D01*
%TO.C,C18*%
X180820000Y-85055580D02*
X180820000Y-84774420D01*
X181840000Y-85055580D02*
X181840000Y-84774420D01*
%TO.C,R3*%
X175437500Y-75667258D02*
X175437500Y-75192742D01*
X176482500Y-75667258D02*
X176482500Y-75192742D01*
%TO.C,C19*%
X178480000Y-85040580D02*
X178480000Y-84759420D01*
X179500000Y-85040580D02*
X179500000Y-84759420D01*
%TO.C,R2*%
X171532742Y-81567500D02*
X172007258Y-81567500D01*
X171532742Y-82612500D02*
X172007258Y-82612500D01*
%TO.C,C10*%
X159079420Y-78370000D02*
X159360580Y-78370000D01*
X159079420Y-79390000D02*
X159360580Y-79390000D01*
%TO.C,C2*%
X155190580Y-91210000D02*
X154909420Y-91210000D01*
X155190580Y-92230000D02*
X154909420Y-92230000D01*
%TO.C,U1*%
X161465000Y-86390000D02*
X161465000Y-87340000D01*
X161465000Y-96610000D02*
X161465000Y-95660000D01*
X162415000Y-86390000D02*
X161465000Y-86390000D01*
X162415000Y-96610000D02*
X161465000Y-96610000D01*
X170735000Y-86390000D02*
X171685000Y-86390000D01*
X170735000Y-96610000D02*
X171685000Y-96610000D01*
X171685000Y-86390000D02*
X171685000Y-87340000D01*
X171685000Y-96610000D02*
X171685000Y-95660000D01*
X172640000Y-96130000D02*
X171960000Y-96130000D01*
X172300000Y-95660000D01*
X172640000Y-96130000D01*
G36*
X172640000Y-96130000D02*
G01*
X171960000Y-96130000D01*
X172300000Y-95660000D01*
X172640000Y-96130000D01*
G37*
%TO.C,C1*%
X150859420Y-96990000D02*
X151140580Y-96990000D01*
X150859420Y-98010000D02*
X151140580Y-98010000D01*
%TO.C,R1*%
X146262742Y-96977500D02*
X146737258Y-96977500D01*
X146262742Y-98022500D02*
X146737258Y-98022500D01*
%TO.C,C8*%
X159360580Y-76880000D02*
X159079420Y-76880000D01*
X159360580Y-77900000D02*
X159079420Y-77900000D01*
%TO.C,R4*%
X158982742Y-75397500D02*
X159457258Y-75397500D01*
X158982742Y-76442500D02*
X159457258Y-76442500D01*
%TO.C,C22*%
X181264420Y-74840000D02*
X181545580Y-74840000D01*
X181264420Y-75860000D02*
X181545580Y-75860000D01*
%TO.C,C6*%
X173109420Y-74380000D02*
X173390580Y-74380000D01*
X173109420Y-75400000D02*
X173390580Y-75400000D01*
%TO.C,Y2*%
X171820000Y-75780000D02*
X171820000Y-79780000D01*
X175120000Y-75780000D02*
X171820000Y-75780000D01*
%TO.C,R5*%
X173467500Y-64442742D02*
X173467500Y-64917258D01*
X174512500Y-64442742D02*
X174512500Y-64917258D01*
%TO.C,C13*%
X150490000Y-77730580D02*
X150490000Y-77449420D01*
X151510000Y-77730580D02*
X151510000Y-77449420D01*
%TO.C,C21*%
X181269420Y-73360000D02*
X181550580Y-73360000D01*
X181269420Y-74380000D02*
X181550580Y-74380000D01*
%TO.C,C3*%
X155190580Y-92690000D02*
X154909420Y-92690000D01*
X155190580Y-93710000D02*
X154909420Y-93710000D01*
%TO.C,JP1*%
X163500000Y-68000000D02*
X163500000Y-68600000D01*
X163800000Y-68300000D02*
X163500000Y-68000000D01*
X163800000Y-68300000D02*
X163500000Y-68600000D01*
X164000000Y-70900000D02*
X164000000Y-68100000D01*
X164700000Y-67450000D02*
X165300000Y-67450000D01*
X165300000Y-71550000D02*
X164700000Y-71550000D01*
X166000000Y-68100000D02*
X166000000Y-70900000D01*
X164000000Y-68150000D02*
G75*
G02*
X164700000Y-67450000I699999J1D01*
G01*
X164700000Y-71550000D02*
G75*
G02*
X164000000Y-70850000I0J700000D01*
G01*
X165300000Y-67450000D02*
G75*
G02*
X166000000Y-68150000I1J-699999D01*
G01*
X166000000Y-70850000D02*
G75*
G02*
X165300000Y-71550000I-700000J0D01*
G01*
%TO.C,DD1*%
X148470000Y-60250000D02*
X148470000Y-64900000D01*
X148470000Y-64900000D02*
X149270000Y-64900000D01*
X151670000Y-60250000D02*
X151670000Y-64900000D01*
%TO.C,R6*%
X171977500Y-70737258D02*
X171977500Y-70262742D01*
X173022500Y-70737258D02*
X173022500Y-70262742D01*
%TO.C,C20*%
X148714420Y-91130000D02*
X148995580Y-91130000D01*
X148714420Y-92150000D02*
X148995580Y-92150000D01*
%TO.C,C7*%
X175460000Y-78540580D02*
X175460000Y-78259420D01*
X176480000Y-78540580D02*
X176480000Y-78259420D01*
%TO.C,C16*%
X177315580Y-96950000D02*
X177034420Y-96950000D01*
X177315580Y-97970000D02*
X177034420Y-97970000D01*
%TO.C,U3*%
X147590000Y-69590000D02*
X148850000Y-69590000D01*
X147590000Y-73350000D02*
X147590000Y-69590000D01*
X154410000Y-69590000D02*
X153150000Y-69590000D01*
X154410000Y-73350000D02*
X154410000Y-69590000D01*
X147690000Y-74630000D02*
X147360000Y-74870000D01*
X147360000Y-74390000D01*
X147690000Y-74630000D01*
G36*
X147690000Y-74630000D02*
G01*
X147360000Y-74870000D01*
X147360000Y-74390000D01*
X147690000Y-74630000D01*
G37*
%TO.C,C5*%
X179710000Y-92520580D02*
X179710000Y-92239420D01*
X180730000Y-92520580D02*
X180730000Y-92239420D01*
%TO.C,C11*%
X176079420Y-80110000D02*
X176360580Y-80110000D01*
X176079420Y-81130000D02*
X176360580Y-81130000D01*
%TO.C,C15*%
X182319420Y-93880000D02*
X182600580Y-93880000D01*
X182319420Y-94900000D02*
X182600580Y-94900000D01*
%TO.C,C14*%
X182359420Y-90070000D02*
X182640580Y-90070000D01*
X182359420Y-91090000D02*
X182640580Y-91090000D01*
%TO.C,JP2*%
X167500000Y-70900000D02*
X167500000Y-68100000D01*
X168200000Y-67450000D02*
X168800000Y-67450000D01*
X168800000Y-71550000D02*
X168200000Y-71550000D01*
X169500000Y-68100000D02*
X169500000Y-70900000D01*
X169700000Y-70700000D02*
X170000000Y-70400000D01*
X169700000Y-70700000D02*
X170000000Y-71000000D01*
X170000000Y-71000000D02*
X170000000Y-70400000D01*
X167500000Y-68150000D02*
G75*
G02*
X168200000Y-67450000I700000J0D01*
G01*
X168200000Y-71550000D02*
G75*
G02*
X167500000Y-70850000I-1J699999D01*
G01*
X168800000Y-67450000D02*
G75*
G02*
X169500000Y-68150000I0J-700000D01*
G01*
X169500000Y-70850000D02*
G75*
G02*
X168800000Y-71550000I-699999J-1D01*
G01*
%TO.C,C9*%
X173400580Y-80110000D02*
X173119420Y-80110000D01*
X173400580Y-81130000D02*
X173119420Y-81130000D01*
%TO.C,C12*%
X155110000Y-76845580D02*
X155110000Y-76564420D01*
X156130000Y-76845580D02*
X156130000Y-76564420D01*
%TO.C,R8*%
X144637742Y-60077500D02*
X145112258Y-60077500D01*
X144637742Y-61122500D02*
X145112258Y-61122500D01*
%TO.C,U2*%
X163870000Y-75010000D02*
X164345000Y-75010000D01*
X163870000Y-75485000D02*
X163870000Y-75010000D01*
X163870000Y-79755000D02*
X163870000Y-80230000D01*
X163870000Y-80230000D02*
X164345000Y-80230000D01*
X168615000Y-75010000D02*
X168850000Y-75010000D01*
X169090000Y-75485000D02*
X169090000Y-75310000D01*
X169090000Y-79755000D02*
X169090000Y-80230000D01*
X169090000Y-80230000D02*
X168615000Y-80230000D01*
X169420000Y-75250000D02*
X169090000Y-75010000D01*
X169420000Y-74770000D01*
X169420000Y-75250000D01*
G36*
X169420000Y-75250000D02*
G01*
X169090000Y-75010000D01*
X169420000Y-74770000D01*
X169420000Y-75250000D01*
G37*
%TO.C,Y1*%
X176140000Y-91000000D02*
X176140000Y-95000000D01*
X179440000Y-91000000D02*
X176140000Y-91000000D01*
%TO.C,R7*%
X170477500Y-70737258D02*
X170477500Y-70262742D01*
X171522500Y-70737258D02*
X171522500Y-70262742D01*
%TO.C,C4*%
X177429420Y-89650000D02*
X177710580Y-89650000D01*
X177429420Y-90670000D02*
X177710580Y-90670000D01*
%TD*%
M02*
