M48
; DRILL file {KiCad 8.99.0-2641-g1a24c99a2a} date 2024-10-13T14:09:16+0700
; FORMAT={-:-/ absolute / inch / decimal}
; #@! TF.CreationDate,2024-10-13T14:09:16+07:00
; #@! TF.GenerationSoftware,Kicad,Pcbnew,8.99.0-2641-g1a24c99a2a
; #@! TF.FileFunction,Plated,1,2,PTH
FMAT,2
INCH
; #@! TA.AperFunction,Plated,PTH,ViaDrill
T1C0.0118
; #@! TA.AperFunction,Plated,PTH,ComponentDrill
T2C0.0118
; #@! TA.AperFunction,Plated,PTH,ComponentDrill
T3C0.0374
; #@! TA.AperFunction,Plated,PTH,ComponentDrill
T4C0.0394
; #@! TA.AperFunction,Plated,PTH,ComponentDrill
T5C0.0669
%
G90
G05
T1
X-1.4764Y-3.1142
X-1.4724Y-0.6339
X-0.6969Y-1.378
X-0.6457Y-2.9213
X-0.5118Y-3.248
X-0.4921Y-3.4134
X-0.4921Y-3.6673
X-0.1772Y-3.1101
X-0.1581Y-2.1409
X-0.1575Y-0.8976
X-0.1542Y-3.0944
X-0.126Y-0.5906
X-0.1181Y-0.7126
X-0.1063Y-2.9134
X0.177Y-3.1495
X0.1957Y-0.7311
X0.1969Y-3.2283
X0.2138Y-0.7492
X0.4331Y-3.4646
X0.4988Y-3.5956
X0.8079Y-3.0661
X0.826Y-3.048
X0.9974Y-3.1688
X1.0354Y-3.6339
X1.3095Y-2.8386
X2.0354Y-3.3642
X2.0472Y-3.5236
X2.0472Y-3.6024
X2.2047Y-3.5276
X2.2835Y-3.189
X2.3031Y-3.5433
X2.3622Y-3.4626
X2.3819Y-3.4429
X2.4016Y-3.2067
X2.4409Y-3.0315
X2.4646Y-3.1496
X2.5157Y-3.248
X2.5787Y-3.563
X2.5827Y-3.311
X2.6496Y-3.1969
X2.7244Y-3.2913
X2.7244Y-3.3642
X2.7953Y-3.1299
X2.8937Y-2.878
X2.9016Y-3.2441
X2.9213Y-3.063
X2.9213Y-3.3819
X2.938Y-3.3986
X2.9409Y-3.0866
X3.2863Y-3.2638
X3.2992Y-3.6299
X3.311Y-2.8346
X3.5433Y-3.0473
X4.2898Y-3.0354
X4.9173Y-2.185
X5.0512Y-3.0354
X5.0866Y-3.0315
X5.2165Y-3.3858
X5.6102Y-3.563
X5.7874Y-3.0158
X6.5398Y-3.0
X7.2898Y-2.9843
X8.3228Y-2.9685
X9.1303Y-2.9531
X9.4051Y-2.937
X9.5787Y-2.4016
X9.626Y-3.6299
X9.6299Y-0.6772
X9.6339Y-1.6811
X9.6654Y-0.6299
X9.6654Y-1.6181
X9.6654Y-2.1575
X9.7047Y-2.0669
X9.7244Y-1.5354
X9.7244Y-2.185
X9.7575Y-1.7063
X9.7677Y-1.6181
X9.8031Y-2.2047
X9.9016Y-1.6614
X9.9055Y-2.437
X9.9055Y-2.937
X9.9449Y-2.1339
X10.0591Y-2.0472
X10.0826Y-2.8898
X10.1023Y-2.9094
X10.1378Y-1.6181
X10.1457Y-2.0906
X10.1457Y-2.378
X10.1496Y-2.8858
X10.1575Y-2.3031
X10.1915Y-2.8282
X10.1969Y-1.5354
X10.2441Y-2.8465
X10.248Y-2.1732
X10.2533Y-2.0551
X10.2533Y-2.9606
X10.2559Y-2.3031
T2
X-0.676Y-2.4507
X3.3343Y-3.3499
X3.3832Y-3.3995
X3.3836Y-3.3011
X3.4328Y-3.3503
X3.5843Y-3.2503
X3.6336Y-3.2007
X3.6336Y-3.2991
X3.6824Y-3.2499
X8.8865Y-1.7007
T3
X1.9449Y-3.689
X2.0433Y-3.689
X2.1417Y-3.689
X2.2402Y-3.689
T4
X-0.687Y-3.4764
X-0.687Y-3.6654
X-0.5886Y-3.4764
X-0.5886Y-3.6654
T5
X-1.3977Y-0.3503
X-1.3039Y-1.8503
X-1.3039Y-3.3503
X-1.2102Y-1.1003
X-1.2083Y-3.3506
X-1.1477Y-0.2503
X-1.1164Y-1.8503
X-1.0539Y-1.7503
X-1.0539Y-3.2503
X-0.9602Y-1.0003
X-0.9583Y-3.2506
X-0.926Y-2.6003
X-0.8664Y-1.7503
X-0.676Y-2.5003
X-0.6477Y-0.3503
X-0.3977Y-0.2503
X-0.3664Y-3.3503
X-0.2727Y-1.1003
X-0.2713Y-3.3504
X-0.1164Y-3.2503
X-0.0852Y-1.8503
X-0.0227Y-1.0003
X-0.0213Y-3.2504
X0.1023Y-0.3503
X0.1648Y-1.7503
X0.2898Y-2.6003
X0.3523Y-0.2503
X0.4773Y-1.1003
X0.5398Y-2.5003
X0.5711Y-3.3503
X0.6648Y-1.8503
X0.6653Y-3.351
X0.7273Y-1.0003
X0.8211Y-3.2503
X0.8523Y-0.3503
X0.9148Y-1.7503
X0.9153Y-3.251
X1.0398Y-2.6003
X1.1023Y-0.2503
X1.2273Y-1.1003
X1.2898Y-2.5003
X1.4148Y-1.8503
X1.4773Y-1.0003
X1.6023Y-0.3503
X1.6648Y-1.7503
X1.7898Y-2.6003
X1.8523Y-0.2503
X1.9773Y-1.1003
X2.0398Y-2.5003
X2.1648Y-1.8503
X2.2273Y-1.0003
X2.3523Y-0.3503
X2.4148Y-1.7503
X2.5398Y-2.6003
X2.6023Y-0.2503
X2.7273Y-1.1003
X2.7898Y-2.5003
X2.9148Y-1.8503
X2.9773Y-1.0003
X3.1023Y-0.3503
X3.1648Y-1.7503
X3.2898Y-2.6003
X3.3523Y-0.2503
X3.3836Y-3.3503
X3.4773Y-1.1003
X3.5398Y-2.5003
X3.6336Y-3.2503
X3.6648Y-1.8503
X3.7273Y-1.0003
X3.8523Y-0.3503
X3.8527Y-3.3504
X3.9148Y-1.7503
X4.0398Y-2.6003
X4.1023Y-0.2503
X4.1027Y-3.2504
X4.2273Y-1.1003
X4.2898Y-2.5003
X4.4148Y-1.8503
X4.4773Y-1.0003
X4.6023Y-0.3503
X4.6648Y-1.7503
X4.7898Y-2.6003
X4.8523Y-0.2503
X4.9773Y-1.1003
X5.0398Y-2.5003
X5.1648Y-1.8503
X5.2273Y-1.0003
X5.3523Y-0.3503
X5.4148Y-1.7503
X5.5398Y-2.6003
X5.6023Y-0.2503
X5.7273Y-1.1003
X5.7898Y-2.5003
X5.9148Y-1.8503
X5.9773Y-1.0003
X6.1023Y-0.3503
X6.1648Y-1.7503
X6.1961Y-3.3503
X6.2898Y-2.6003
X6.3523Y-0.2503
X6.4461Y-3.2503
X6.4773Y-1.1003
X6.5398Y-2.5003
X6.6648Y-1.8503
X6.7273Y-1.0003
X6.8523Y-0.3503
X6.9148Y-1.7503
X7.0398Y-2.6003
X7.0401Y-3.3506
X7.1023Y-0.2503
X7.1336Y-3.3503
X7.2273Y-1.1003
X7.2898Y-2.5003
X7.2901Y-3.2506
X7.3836Y-3.2503
X7.4148Y-1.8503
X7.4773Y-1.0003
X7.6023Y-0.3503
X7.6648Y-1.7503
X7.8523Y-0.2503
X7.9773Y-1.1003
X8.0711Y-2.6003
X8.2273Y-1.0003
X8.3211Y-2.5003
X8.3523Y-0.3503
X8.3523Y-3.3503
X8.6023Y-0.2503
X8.6023Y-3.2503
X8.6365Y-1.8503
X8.7273Y-0.3503
X8.8865Y-1.7503
X8.9148Y-1.1003
X8.9773Y-0.2503
X9.1023Y-0.3503
X9.1023Y-2.6003
X9.1023Y-3.3503
X9.1648Y-1.0003
X9.3523Y-0.2503
X9.3523Y-2.5003
X9.3523Y-3.2503
X9.8523Y-0.3503
X9.8523Y-1.1003
X9.8523Y-1.8503
X9.8523Y-2.6003
X9.8523Y-3.3503
X10.1023Y-0.2503
X10.1023Y-1.0003
X10.1023Y-1.7503
X10.1023Y-2.5003
X10.1023Y-3.2503
M30
