%TF.GenerationSoftware,KiCad,Pcbnew,8.99.0-2641-g1a24c99a2a*%
%TF.CreationDate,2024-10-13T14:09:16+07:00*%
%TF.ProjectId,think65v3,7468696e-6b36-4357-9633-2e6b69636164,rev?*%
%TF.SameCoordinates,Original*%
%TF.FileFunction,Drillmap*%
%TF.FilePolarity,Positive*%
%FSLAX45Y45*%
G04 Gerber Fmt 4.5, Leading zero omitted, Abs format (unit mm)*
G04 Created by KiCad (PCBNEW 8.99.0-2641-g1a24c99a2a) date 2024-10-13 14:09:16*
%MOMM*%
%LPD*%
G01*
G04 APERTURE LIST*
%ADD10C,0.050000*%
%ADD11C,0.200000*%
%ADD12C,0.100000*%
%ADD13C,0.170000*%
G04 APERTURE END LIST*
D10*
X25914000Y-435000D02*
G75*
G02*
X26114000Y-635000I0J-200000D01*
G01*
X26114000Y-9273000D02*
G75*
G02*
X25914000Y-9473000I-200000J0D01*
G01*
X-3677000Y-9473000D02*
G75*
G02*
X-3877000Y-9273000I0J200000D01*
G01*
X-3877000Y-636000D02*
G75*
G02*
X-3677000Y-436000I200000J0D01*
G01*
X15730891Y-9642468D02*
X15610891Y-9482468D01*
X16040891Y-9642468D02*
X16160891Y-9482468D01*
X6998421Y-467468D02*
X6998421Y-524968D01*
X14130891Y-9642468D02*
X14250891Y-9482468D01*
X20256671Y-9115331D02*
G75*
G02*
X20533389Y-9392468I-1J-276719D01*
G01*
X20995770Y-524968D02*
G75*
G02*
X20370770Y-524968I-312500J0D01*
G01*
X14608391Y-9394968D02*
X14608391Y-9452468D01*
X20995770Y-467468D02*
G75*
G02*
X21025770Y-437470I30000J-2D01*
G01*
X19220891Y-9449968D02*
G75*
G02*
X19190891Y-9479971I-30001J-2D01*
G01*
X13820891Y-9642468D02*
X14130891Y-9642468D01*
X4610891Y-9642468D02*
X4730891Y-9482468D01*
X21026003Y-437468D02*
X21070891Y-437468D01*
X21253391Y-279968D02*
X23893391Y-279968D01*
X6968421Y-437468D02*
G75*
G02*
X6998422Y-467468I-1J-30002D01*
G01*
X7623421Y-524968D02*
G75*
G02*
X6998421Y-524968I-312500J0D01*
G01*
X6976793Y-9394968D02*
G75*
G02*
X7601793Y-9394968I312500J0D01*
G01*
X1040590Y-9447468D02*
X1040590Y-9389968D01*
X15249214Y-524968D02*
G75*
G02*
X14624214Y-524968I-312500J0D01*
G01*
X1253391Y-437468D02*
G75*
G02*
X1283392Y-467468I-1J-30002D01*
G01*
X1908391Y-524968D02*
X1908391Y-467468D01*
X15249214Y-524968D02*
X15249214Y-467468D01*
X20533391Y-9449968D02*
X20533391Y-9392468D01*
X20563391Y-9479968D02*
G75*
G02*
X20533392Y-9449968I-1J29998D01*
G01*
X19190891Y-9479968D02*
X16160891Y-9482468D01*
X1908391Y-467468D02*
G75*
G02*
X1938391Y-437471I29999J-2D01*
G01*
X19220891Y-9392468D02*
G75*
G02*
X19498028Y-9115751I276719J-2D01*
G01*
X14578391Y-9482468D02*
X14250891Y-9482468D01*
X26114000Y-9273000D02*
X26114000Y-635000D01*
X13820891Y-9642468D02*
X13700891Y-9482468D01*
X15249214Y-467468D02*
G75*
G02*
X15279214Y-437464I30006J-2D01*
G01*
X1908391Y-524968D02*
G75*
G02*
X1283391Y-524968I-312500J0D01*
G01*
X1283391Y-467468D02*
X1283391Y-524968D01*
X24060891Y-434968D02*
X25914000Y-435000D01*
X20340770Y-437468D02*
G75*
G02*
X20370772Y-467468I0J-30002D01*
G01*
X7653421Y-437468D02*
X14594211Y-437468D01*
X15233391Y-9452468D02*
X15233391Y-9394968D01*
X3810891Y-9642468D02*
X4610891Y-9642468D01*
X25914000Y-9473000D02*
X20563391Y-9479968D01*
X14608391Y-9394968D02*
G75*
G02*
X15233391Y-9394968I312500J0D01*
G01*
X1253391Y-437468D02*
X-3677000Y-436000D01*
X19220891Y-9392468D02*
X19220891Y-9449968D01*
X14624214Y-467468D02*
X14624214Y-524968D01*
X3810891Y-9642468D02*
X3690891Y-9482468D01*
X415590Y-9389968D02*
G75*
G02*
X1040590Y-9389968I312500J0D01*
G01*
X20995770Y-524968D02*
X20995770Y-467468D01*
X21070891Y-437468D02*
X21253391Y-279968D01*
X6946403Y-9482468D02*
X4730891Y-9482468D01*
X6968421Y-437468D02*
X1938391Y-437468D01*
X20256671Y-9115331D02*
X19498028Y-9115748D01*
X7601793Y-9452468D02*
X7601793Y-9394968D01*
X23893391Y-279968D02*
X24060891Y-434968D01*
X15279214Y-437468D02*
X20340770Y-437468D01*
X3690891Y-9482468D02*
X1070590Y-9477468D01*
X415590Y-9447468D02*
G75*
G02*
X385590Y-9477468I-30000J0D01*
G01*
X14594214Y-437468D02*
G75*
G02*
X14624212Y-467468I-4J-30002D01*
G01*
X15610891Y-9482468D02*
X15263391Y-9482468D01*
X7631793Y-9482468D02*
X13700891Y-9482468D01*
X15730891Y-9642468D02*
X16040891Y-9642468D01*
X6976793Y-9452468D02*
G75*
G02*
X6946793Y-9482463I-29993J-2D01*
G01*
X15263391Y-9482468D02*
G75*
G02*
X15233392Y-9452468I-1J29998D01*
G01*
X-3877000Y-636000D02*
X-3877000Y-9273000D01*
X7623421Y-524968D02*
X7623421Y-467468D01*
X20370770Y-467468D02*
X20370770Y-524968D01*
X385590Y-9477468D02*
X-3677000Y-9473000D01*
X7631793Y-9482468D02*
G75*
G02*
X7601792Y-9452468I-3J29998D01*
G01*
X415590Y-9389968D02*
X415590Y-9447468D01*
X7623421Y-467468D02*
G75*
G02*
X7653421Y-437471I29999J-2D01*
G01*
X6976793Y-9394968D02*
X6976793Y-9452468D01*
X14608391Y-9452468D02*
G75*
G02*
X14578391Y-9482471I-30001J-2D01*
G01*
X1070590Y-9477468D02*
G75*
G02*
X1040592Y-9447468I0J29998D01*
G01*
D11*
D12*
X-3765000Y-7895000D02*
X-3735000Y-7925000D01*
X-3735000Y-7895000D02*
X-3765000Y-7925000D01*
X-3755000Y-1595000D02*
X-3725000Y-1625000D01*
X-3725000Y-1595000D02*
X-3755000Y-1625000D01*
X-1785000Y-3485000D02*
X-1755000Y-3515000D01*
X-1755000Y-3485000D02*
X-1785000Y-3515000D01*
X-1655000Y-7405000D02*
X-1625000Y-7435000D01*
X-1625000Y-7405000D02*
X-1655000Y-7435000D01*
X-1315000Y-8235000D02*
X-1285000Y-8265000D01*
X-1285000Y-8235000D02*
X-1315000Y-8265000D01*
X-1265000Y-8655000D02*
X-1235000Y-8685000D01*
X-1235000Y-8655000D02*
X-1265000Y-8685000D01*
X-1265000Y-9300044D02*
X-1235000Y-9330044D01*
X-1235000Y-9300044D02*
X-1265000Y-9330044D01*
X-465000Y-7884673D02*
X-435000Y-7914673D01*
X-435000Y-7884673D02*
X-465000Y-7914673D01*
X-416493Y-5422873D02*
X-386493Y-5452873D01*
X-386493Y-5422873D02*
X-416493Y-5452873D01*
X-415000Y-2265000D02*
X-385000Y-2295000D01*
X-385000Y-2265000D02*
X-415000Y-2295000D01*
X-406681Y-7844673D02*
X-376681Y-7874673D01*
X-376681Y-7844673D02*
X-406681Y-7874673D01*
X-335000Y-1485000D02*
X-305000Y-1515000D01*
X-305000Y-1485000D02*
X-335000Y-1515000D01*
X-315000Y-1795000D02*
X-285000Y-1825000D01*
X-285000Y-1795000D02*
X-315000Y-1825000D01*
X-285000Y-7385000D02*
X-255000Y-7415000D01*
X-255000Y-7385000D02*
X-285000Y-7415000D01*
X434673Y-7984673D02*
X464673Y-8014673D01*
X464673Y-7984673D02*
X434673Y-8014673D01*
X482019Y-1842019D02*
X512019Y-1872019D01*
X512019Y-1842019D02*
X482019Y-1872019D01*
X485000Y-8185000D02*
X515000Y-8215000D01*
X515000Y-8185000D02*
X485000Y-8215000D01*
X527981Y-1887981D02*
X557981Y-1917981D01*
X557981Y-1887981D02*
X527981Y-1917981D01*
X1085000Y-8785000D02*
X1115000Y-8815000D01*
X1115000Y-8785000D02*
X1085000Y-8815000D01*
X1252071Y-9117929D02*
X1282071Y-9147929D01*
X1282071Y-9117929D02*
X1252071Y-9147929D01*
X2037165Y-7772835D02*
X2067165Y-7802835D01*
X2067165Y-7772835D02*
X2037165Y-7802835D01*
X2083127Y-7726873D02*
X2113127Y-7756873D01*
X2113127Y-7726873D02*
X2083127Y-7756873D01*
X2518487Y-8033872D02*
X2548487Y-8063872D01*
X2548487Y-8033872D02*
X2518487Y-8063872D01*
X2615000Y-9215000D02*
X2645000Y-9245000D01*
X2645000Y-9215000D02*
X2615000Y-9245000D01*
X3311141Y-7195000D02*
X3341141Y-7225000D01*
X3341141Y-7195000D02*
X3311141Y-7225000D01*
X5155000Y-8530000D02*
X5185000Y-8560000D01*
X5185000Y-8530000D02*
X5155000Y-8560000D01*
X5185000Y-8935000D02*
X5215000Y-8965000D01*
X5215000Y-8935000D02*
X5185000Y-8965000D01*
X5185000Y-9135000D02*
X5215000Y-9165000D01*
X5215000Y-9135000D02*
X5185000Y-9165000D01*
X5585000Y-8945000D02*
X5615000Y-8975000D01*
X5615000Y-8945000D02*
X5585000Y-8975000D01*
X5785000Y-8085000D02*
X5815000Y-8115000D01*
X5815000Y-8085000D02*
X5785000Y-8115000D01*
X5835000Y-8985000D02*
X5865000Y-9015000D01*
X5865000Y-8985000D02*
X5835000Y-9015000D01*
X5985000Y-8780000D02*
X6015000Y-8810000D01*
X6015000Y-8780000D02*
X5985000Y-8810000D01*
X6035000Y-8730000D02*
X6065000Y-8760000D01*
X6065000Y-8730000D02*
X6035000Y-8760000D01*
X6085000Y-8130000D02*
X6115000Y-8160000D01*
X6115000Y-8130000D02*
X6085000Y-8160000D01*
X6185000Y-7685000D02*
X6215000Y-7715000D01*
X6215000Y-7685000D02*
X6185000Y-7715000D01*
X6245000Y-7985000D02*
X6275000Y-8015000D01*
X6275000Y-7985000D02*
X6245000Y-8015000D01*
X6375000Y-8235000D02*
X6405000Y-8265000D01*
X6405000Y-8235000D02*
X6375000Y-8265000D01*
X6535000Y-9035000D02*
X6565000Y-9065000D01*
X6565000Y-9035000D02*
X6535000Y-9065000D01*
X6545000Y-8395000D02*
X6575000Y-8425000D01*
X6575000Y-8395000D02*
X6545000Y-8425000D01*
X6715000Y-8105000D02*
X6745000Y-8135000D01*
X6745000Y-8105000D02*
X6715000Y-8135000D01*
X6905000Y-8345000D02*
X6935000Y-8375000D01*
X6935000Y-8345000D02*
X6905000Y-8375000D01*
X6905000Y-8530000D02*
X6935000Y-8560000D01*
X6935000Y-8530000D02*
X6905000Y-8560000D01*
X7085000Y-7935000D02*
X7115000Y-7965000D01*
X7115000Y-7935000D02*
X7085000Y-7965000D01*
X7335000Y-7295000D02*
X7365000Y-7325000D01*
X7365000Y-7295000D02*
X7335000Y-7325000D01*
X7355000Y-8225000D02*
X7385000Y-8255000D01*
X7385000Y-8225000D02*
X7355000Y-8255000D01*
X7405000Y-7765044D02*
X7435000Y-7795044D01*
X7435000Y-7765044D02*
X7405000Y-7795044D01*
X7405000Y-8575000D02*
X7435000Y-8605000D01*
X7435000Y-8575000D02*
X7405000Y-8605000D01*
X7447427Y-8617427D02*
X7477427Y-8647427D01*
X7477427Y-8617427D02*
X7447427Y-8647427D01*
X7455005Y-7825044D02*
X7485005Y-7855044D01*
X7485005Y-7825044D02*
X7455005Y-7855044D01*
X8332241Y-8275000D02*
X8362241Y-8305000D01*
X8362241Y-8275000D02*
X8332241Y-8305000D01*
X8365000Y-9205000D02*
X8395000Y-9235000D01*
X8395000Y-9205000D02*
X8365000Y-9235000D01*
X8395000Y-7185000D02*
X8425000Y-7215000D01*
X8425000Y-7185000D02*
X8395000Y-7215000D01*
X8985000Y-7725044D02*
X9015000Y-7755044D01*
X9015000Y-7725044D02*
X8985000Y-7755044D01*
X10881141Y-7695000D02*
X10911141Y-7725000D01*
X10911141Y-7695000D02*
X10881141Y-7725000D01*
X12475000Y-5535000D02*
X12505000Y-5565000D01*
X12505000Y-5535000D02*
X12475000Y-5565000D01*
X12815000Y-7695000D02*
X12845000Y-7725000D01*
X12845000Y-7695000D02*
X12815000Y-7725000D01*
X12905000Y-7685044D02*
X12935000Y-7715044D01*
X12935000Y-7685044D02*
X12905000Y-7715044D01*
X13235000Y-8585000D02*
X13265000Y-8615000D01*
X13265000Y-8585000D02*
X13235000Y-8615000D01*
X14235000Y-9035000D02*
X14265000Y-9065000D01*
X14265000Y-9035000D02*
X14235000Y-9065000D01*
X14685000Y-7645044D02*
X14715000Y-7675044D01*
X14715000Y-7645044D02*
X14685000Y-7675044D01*
X16596141Y-7605044D02*
X16626141Y-7635044D01*
X16626141Y-7605044D02*
X16596141Y-7635044D01*
X18501141Y-7565044D02*
X18531141Y-7595044D01*
X18531141Y-7565044D02*
X18501141Y-7595044D01*
X21125000Y-7525044D02*
X21155000Y-7555044D01*
X21155000Y-7525044D02*
X21125000Y-7555044D01*
X23175975Y-7485975D02*
X23205975Y-7515975D01*
X23205975Y-7485975D02*
X23175975Y-7515975D01*
X23873891Y-7445044D02*
X23903891Y-7475044D01*
X23903891Y-7445044D02*
X23873891Y-7475044D01*
X24315000Y-6085000D02*
X24345000Y-6115000D01*
X24345000Y-6085000D02*
X24315000Y-6115000D01*
X24435000Y-9205044D02*
X24465000Y-9235044D01*
X24465000Y-9205044D02*
X24435000Y-9235044D01*
X24445000Y-1705000D02*
X24475000Y-1735000D01*
X24475000Y-1705000D02*
X24445000Y-1735000D01*
X24455000Y-4255000D02*
X24485000Y-4285000D01*
X24485000Y-4255000D02*
X24455000Y-4285000D01*
X24535000Y-1585000D02*
X24565000Y-1615000D01*
X24565000Y-1585000D02*
X24535000Y-1615000D01*
X24535000Y-4095000D02*
X24565000Y-4125000D01*
X24565000Y-4095000D02*
X24535000Y-4125000D01*
X24535000Y-5465000D02*
X24565000Y-5495000D01*
X24565000Y-5465000D02*
X24535000Y-5495000D01*
X24635000Y-5235000D02*
X24665000Y-5265000D01*
X24665000Y-5235000D02*
X24635000Y-5265000D01*
X24685000Y-3885000D02*
X24715000Y-3915000D01*
X24715000Y-3885000D02*
X24685000Y-3915000D01*
X24685000Y-5535000D02*
X24715000Y-5565000D01*
X24715000Y-5535000D02*
X24685000Y-5565000D01*
X24768929Y-4318929D02*
X24798929Y-4348929D01*
X24798929Y-4318929D02*
X24768929Y-4348929D01*
X24795000Y-4095000D02*
X24825000Y-4125000D01*
X24825000Y-4095000D02*
X24795000Y-4125000D01*
X24885000Y-5585000D02*
X24915000Y-5615000D01*
X24915000Y-5585000D02*
X24885000Y-5615000D01*
X25135000Y-4205000D02*
X25165000Y-4235000D01*
X25165000Y-4205000D02*
X25135000Y-4235000D01*
X25145000Y-6175000D02*
X25175000Y-6205000D01*
X25175000Y-6175000D02*
X25145000Y-6205000D01*
X25145000Y-7445044D02*
X25175000Y-7475044D01*
X25175000Y-7445044D02*
X25145000Y-7475044D01*
X25245000Y-5405000D02*
X25275000Y-5435000D01*
X25275000Y-5405000D02*
X25245000Y-5435000D01*
X25535000Y-5185000D02*
X25565000Y-5215000D01*
X25565000Y-5185000D02*
X25535000Y-5215000D01*
X25594891Y-7325000D02*
X25624891Y-7355000D01*
X25624891Y-7325000D02*
X25594891Y-7355000D01*
X25644891Y-7375000D02*
X25674891Y-7405000D01*
X25674891Y-7375000D02*
X25644891Y-7405000D01*
X25735000Y-4095000D02*
X25765000Y-4125000D01*
X25765000Y-4095000D02*
X25735000Y-4125000D01*
X25755000Y-5295000D02*
X25785000Y-5325000D01*
X25785000Y-5295000D02*
X25755000Y-5325000D01*
X25755000Y-6025000D02*
X25785000Y-6055000D01*
X25785000Y-6025000D02*
X25755000Y-6055000D01*
X25765000Y-7315000D02*
X25795000Y-7345000D01*
X25795000Y-7315000D02*
X25765000Y-7345000D01*
X25785000Y-5835000D02*
X25815000Y-5865000D01*
X25815000Y-5835000D02*
X25785000Y-5865000D01*
X25871461Y-7168539D02*
X25901461Y-7198539D01*
X25901461Y-7168539D02*
X25871461Y-7198539D01*
X25885000Y-3885000D02*
X25915000Y-3915000D01*
X25915000Y-3885000D02*
X25885000Y-3915000D01*
X26005000Y-7215000D02*
X26035000Y-7245000D01*
X26035000Y-7215000D02*
X26005000Y-7245000D01*
X26015000Y-5505000D02*
X26045000Y-5535000D01*
X26045000Y-5505000D02*
X26015000Y-5535000D01*
X26028391Y-5205000D02*
X26058391Y-5235000D01*
X26058391Y-5205000D02*
X26028391Y-5235000D01*
X26028391Y-7505000D02*
X26058391Y-7535000D01*
X26058391Y-7505000D02*
X26028391Y-7535000D01*
X26035000Y-5835000D02*
X26065000Y-5865000D01*
X26065000Y-5835000D02*
X26035000Y-5865000D01*
X-1702049Y-6224718D02*
G75*
G02*
X-1732049Y-6224718I-15000J0D01*
G01*
X-1732049Y-6224718D02*
G75*
G02*
X-1702049Y-6224718I15000J0D01*
G01*
X8484241Y-8508718D02*
G75*
G02*
X8454241Y-8508718I-15000J0D01*
G01*
X8454241Y-8508718D02*
G75*
G02*
X8484241Y-8508718I15000J0D01*
G01*
X8608241Y-8634718D02*
G75*
G02*
X8578241Y-8634718I-15000J0D01*
G01*
X8578241Y-8634718D02*
G75*
G02*
X8608241Y-8634718I15000J0D01*
G01*
X8609241Y-8384718D02*
G75*
G02*
X8579241Y-8384718I-15000J0D01*
G01*
X8579241Y-8384718D02*
G75*
G02*
X8609241Y-8384718I15000J0D01*
G01*
X8734241Y-8509718D02*
G75*
G02*
X8704241Y-8509718I-15000J0D01*
G01*
X8704241Y-8509718D02*
G75*
G02*
X8734241Y-8509718I15000J0D01*
G01*
X9119241Y-8255718D02*
G75*
G02*
X9089241Y-8255718I-15000J0D01*
G01*
X9089241Y-8255718D02*
G75*
G02*
X9119241Y-8255718I15000J0D01*
G01*
X9244241Y-8129718D02*
G75*
G02*
X9214241Y-8129718I-15000J0D01*
G01*
X9214241Y-8129718D02*
G75*
G02*
X9244241Y-8129718I15000J0D01*
G01*
X9244241Y-8379718D02*
G75*
G02*
X9214241Y-8379718I-15000J0D01*
G01*
X9214241Y-8379718D02*
G75*
G02*
X9244241Y-8379718I15000J0D01*
G01*
X9368241Y-8254718D02*
G75*
G02*
X9338241Y-8254718I-15000J0D01*
G01*
X9338241Y-8254718D02*
G75*
G02*
X9368241Y-8254718I15000J0D01*
G01*
X22586701Y-4319718D02*
G75*
G02*
X22556701Y-4319718I-15000J0D01*
G01*
X22556701Y-4319718D02*
G75*
G02*
X22586701Y-4319718I15000J0D01*
G01*
X4940000Y-9322500D02*
X4940000Y-9417500D01*
X4892500Y-9370000D02*
X4987500Y-9370000D01*
X5190000Y-9322500D02*
X5190000Y-9417500D01*
X5142500Y-9370000D02*
X5237500Y-9370000D01*
X5440000Y-9322500D02*
X5440000Y-9417500D01*
X5392500Y-9370000D02*
X5487500Y-9370000D01*
X5690000Y-9322500D02*
X5690000Y-9417500D01*
X5642500Y-9370000D02*
X5737500Y-9370000D01*
X-1709644Y-8865356D02*
X-1709644Y-8794644D01*
X-1780356Y-8794644D01*
X-1780356Y-8865356D01*
X-1709644Y-8865356D01*
X-1709644Y-9345356D02*
X-1709644Y-9274644D01*
X-1780356Y-9274644D01*
X-1780356Y-9345356D01*
X-1709644Y-9345356D01*
X-1459644Y-8865356D02*
X-1459644Y-8794644D01*
X-1530356Y-8794644D01*
X-1530356Y-8865356D01*
X-1459644Y-8865356D01*
X-1459644Y-9345356D02*
X-1459644Y-9274644D01*
X-1530356Y-9274644D01*
X-1530356Y-9345356D01*
X-1459644Y-9345356D01*
D13*
X-3550109Y-974718D02*
X-3465109Y-889718D01*
X-3550109Y-804718D01*
X-3635109Y-889718D01*
X-3550109Y-974718D01*
X-3312009Y-4784718D02*
X-3227009Y-4699718D01*
X-3312009Y-4614718D01*
X-3397009Y-4699718D01*
X-3312009Y-4784718D01*
X-3312009Y-8594718D02*
X-3227009Y-8509718D01*
X-3312009Y-8424718D01*
X-3397009Y-8509718D01*
X-3312009Y-8594718D01*
X-3073809Y-2879718D02*
X-2988809Y-2794718D01*
X-3073809Y-2709718D01*
X-3158809Y-2794718D01*
X-3073809Y-2879718D01*
X-3069109Y-8595468D02*
X-2984109Y-8510468D01*
X-3069109Y-8425468D01*
X-3154109Y-8510468D01*
X-3069109Y-8595468D01*
X-2915109Y-720718D02*
X-2830109Y-635718D01*
X-2915109Y-550718D01*
X-3000109Y-635718D01*
X-2915109Y-720718D01*
X-2835709Y-4784718D02*
X-2750709Y-4699718D01*
X-2835709Y-4614718D01*
X-2920709Y-4699718D01*
X-2835709Y-4784718D01*
X-2677009Y-4530718D02*
X-2592009Y-4445718D01*
X-2677009Y-4360718D01*
X-2762009Y-4445718D01*
X-2677009Y-4530718D01*
X-2677009Y-8340718D02*
X-2592009Y-8255718D01*
X-2677009Y-8170718D01*
X-2762009Y-8255718D01*
X-2677009Y-8340718D01*
X-2438809Y-2625718D02*
X-2353809Y-2540718D01*
X-2438809Y-2455718D01*
X-2523809Y-2540718D01*
X-2438809Y-2625718D01*
X-2434109Y-8341468D02*
X-2349109Y-8256468D01*
X-2434109Y-8171468D01*
X-2519109Y-8256468D01*
X-2434109Y-8341468D01*
X-2352049Y-6689718D02*
X-2267049Y-6604718D01*
X-2352049Y-6519718D01*
X-2437049Y-6604718D01*
X-2352049Y-6689718D01*
X-2200709Y-4530718D02*
X-2115709Y-4445718D01*
X-2200709Y-4360718D01*
X-2285709Y-4445718D01*
X-2200709Y-4530718D01*
X-1717049Y-6435718D02*
X-1632049Y-6350718D01*
X-1717049Y-6265718D01*
X-1802049Y-6350718D01*
X-1717049Y-6435718D01*
X-1645109Y-974718D02*
X-1560109Y-889718D01*
X-1645109Y-804718D01*
X-1730109Y-889718D01*
X-1645109Y-974718D01*
X-1010109Y-720718D02*
X-925109Y-635718D01*
X-1010109Y-550718D01*
X-1095109Y-635718D01*
X-1010109Y-720718D01*
X-930759Y-8594718D02*
X-845759Y-8509718D01*
X-930759Y-8424718D01*
X-1015759Y-8509718D01*
X-930759Y-8594718D01*
X-692609Y-2879718D02*
X-607609Y-2794718D01*
X-692609Y-2709718D01*
X-777609Y-2794718D01*
X-692609Y-2879718D01*
X-689109Y-8594968D02*
X-604109Y-8509968D01*
X-689109Y-8424968D01*
X-774109Y-8509968D01*
X-689109Y-8594968D01*
X-295759Y-8340718D02*
X-210759Y-8255718D01*
X-295759Y-8170718D01*
X-380759Y-8255718D01*
X-295759Y-8340718D01*
X-216359Y-4784718D02*
X-131359Y-4699718D01*
X-216359Y-4614718D01*
X-301359Y-4699718D01*
X-216359Y-4784718D01*
X-57609Y-2625718D02*
X27391Y-2540718D01*
X-57609Y-2455718D01*
X-142609Y-2540718D01*
X-57609Y-2625718D01*
X-54109Y-8340968D02*
X30891Y-8255968D01*
X-54109Y-8170968D01*
X-139109Y-8255968D01*
X-54109Y-8340968D01*
X259891Y-974718D02*
X344891Y-889718D01*
X259891Y-804718D01*
X174891Y-889718D01*
X259891Y-974718D01*
X418641Y-4530718D02*
X503641Y-4445718D01*
X418641Y-4360718D01*
X333641Y-4445718D01*
X418641Y-4530718D01*
X736141Y-6689718D02*
X821141Y-6604718D01*
X736141Y-6519718D01*
X651141Y-6604718D01*
X736141Y-6689718D01*
X894891Y-720718D02*
X979891Y-635718D01*
X894891Y-550718D01*
X809891Y-635718D01*
X894891Y-720718D01*
X1212391Y-2879718D02*
X1297391Y-2794718D01*
X1212391Y-2709718D01*
X1127391Y-2794718D01*
X1212391Y-2879718D01*
X1371141Y-6435718D02*
X1456141Y-6350718D01*
X1371141Y-6265718D01*
X1286141Y-6350718D01*
X1371141Y-6435718D01*
X1450491Y-8594718D02*
X1535491Y-8509718D01*
X1450491Y-8424718D01*
X1365491Y-8509718D01*
X1450491Y-8594718D01*
X1688641Y-4784718D02*
X1773641Y-4699718D01*
X1688641Y-4614718D01*
X1603641Y-4699718D01*
X1688641Y-4784718D01*
X1689891Y-8596468D02*
X1774891Y-8511468D01*
X1689891Y-8426468D01*
X1604891Y-8511468D01*
X1689891Y-8596468D01*
X1847391Y-2625718D02*
X1932391Y-2540718D01*
X1847391Y-2455718D01*
X1762391Y-2540718D01*
X1847391Y-2625718D01*
X2085491Y-8340718D02*
X2170491Y-8255718D01*
X2085491Y-8170718D01*
X2000491Y-8255718D01*
X2085491Y-8340718D01*
X2164891Y-974718D02*
X2249891Y-889718D01*
X2164891Y-804718D01*
X2079891Y-889718D01*
X2164891Y-974718D01*
X2323641Y-4530718D02*
X2408641Y-4445718D01*
X2323641Y-4360718D01*
X2238641Y-4445718D01*
X2323641Y-4530718D01*
X2324891Y-8342468D02*
X2409891Y-8257468D01*
X2324891Y-8172468D01*
X2239891Y-8257468D01*
X2324891Y-8342468D01*
X2641141Y-6689718D02*
X2726141Y-6604718D01*
X2641141Y-6519718D01*
X2556141Y-6604718D01*
X2641141Y-6689718D01*
X2799891Y-720718D02*
X2884891Y-635718D01*
X2799891Y-550718D01*
X2714891Y-635718D01*
X2799891Y-720718D01*
X3117391Y-2879718D02*
X3202391Y-2794718D01*
X3117391Y-2709718D01*
X3032391Y-2794718D01*
X3117391Y-2879718D01*
X3276141Y-6435718D02*
X3361141Y-6350718D01*
X3276141Y-6265718D01*
X3191141Y-6350718D01*
X3276141Y-6435718D01*
X3593641Y-4784718D02*
X3678641Y-4699718D01*
X3593641Y-4614718D01*
X3508641Y-4699718D01*
X3593641Y-4784718D01*
X3752391Y-2625718D02*
X3837391Y-2540718D01*
X3752391Y-2455718D01*
X3667391Y-2540718D01*
X3752391Y-2625718D01*
X4069891Y-974718D02*
X4154891Y-889718D01*
X4069891Y-804718D01*
X3984891Y-889718D01*
X4069891Y-974718D01*
X4228641Y-4530718D02*
X4313641Y-4445718D01*
X4228641Y-4360718D01*
X4143641Y-4445718D01*
X4228641Y-4530718D01*
X4546141Y-6689718D02*
X4631141Y-6604718D01*
X4546141Y-6519718D01*
X4461141Y-6604718D01*
X4546141Y-6689718D01*
X4704891Y-720718D02*
X4789891Y-635718D01*
X4704891Y-550718D01*
X4619891Y-635718D01*
X4704891Y-720718D01*
X5022391Y-2879718D02*
X5107391Y-2794718D01*
X5022391Y-2709718D01*
X4937391Y-2794718D01*
X5022391Y-2879718D01*
X5181141Y-6435718D02*
X5266141Y-6350718D01*
X5181141Y-6265718D01*
X5096141Y-6350718D01*
X5181141Y-6435718D01*
X5498641Y-4784718D02*
X5583641Y-4699718D01*
X5498641Y-4614718D01*
X5413641Y-4699718D01*
X5498641Y-4784718D01*
X5657391Y-2625718D02*
X5742391Y-2540718D01*
X5657391Y-2455718D01*
X5572391Y-2540718D01*
X5657391Y-2625718D01*
X5974891Y-974718D02*
X6059891Y-889718D01*
X5974891Y-804718D01*
X5889891Y-889718D01*
X5974891Y-974718D01*
X6133641Y-4530718D02*
X6218641Y-4445718D01*
X6133641Y-4360718D01*
X6048641Y-4445718D01*
X6133641Y-4530718D01*
X6451141Y-6689718D02*
X6536141Y-6604718D01*
X6451141Y-6519718D01*
X6366141Y-6604718D01*
X6451141Y-6689718D01*
X6609891Y-720718D02*
X6694891Y-635718D01*
X6609891Y-550718D01*
X6524891Y-635718D01*
X6609891Y-720718D01*
X6927391Y-2879718D02*
X7012391Y-2794718D01*
X6927391Y-2709718D01*
X6842391Y-2794718D01*
X6927391Y-2879718D01*
X7086141Y-6435718D02*
X7171141Y-6350718D01*
X7086141Y-6265718D01*
X7001141Y-6350718D01*
X7086141Y-6435718D01*
X7403641Y-4784718D02*
X7488641Y-4699718D01*
X7403641Y-4614718D01*
X7318641Y-4699718D01*
X7403641Y-4784718D01*
X7562391Y-2625718D02*
X7647391Y-2540718D01*
X7562391Y-2455718D01*
X7477391Y-2540718D01*
X7562391Y-2625718D01*
X7879891Y-974718D02*
X7964891Y-889718D01*
X7879891Y-804718D01*
X7794891Y-889718D01*
X7879891Y-974718D01*
X8038641Y-4530718D02*
X8123641Y-4445718D01*
X8038641Y-4360718D01*
X7953641Y-4445718D01*
X8038641Y-4530718D01*
X8356141Y-6689718D02*
X8441141Y-6604718D01*
X8356141Y-6519718D01*
X8271141Y-6604718D01*
X8356141Y-6689718D01*
X8514891Y-720718D02*
X8599891Y-635718D01*
X8514891Y-550718D01*
X8429891Y-635718D01*
X8514891Y-720718D01*
X8594241Y-8594718D02*
X8679241Y-8509718D01*
X8594241Y-8424718D01*
X8509241Y-8509718D01*
X8594241Y-8594718D01*
X8832391Y-2879718D02*
X8917391Y-2794718D01*
X8832391Y-2709718D01*
X8747391Y-2794718D01*
X8832391Y-2879718D01*
X8991141Y-6435718D02*
X9076141Y-6350718D01*
X8991141Y-6265718D01*
X8906141Y-6350718D01*
X8991141Y-6435718D01*
X9229241Y-8340718D02*
X9314241Y-8255718D01*
X9229241Y-8170718D01*
X9144241Y-8255718D01*
X9229241Y-8340718D01*
X9308641Y-4784718D02*
X9393641Y-4699718D01*
X9308641Y-4614718D01*
X9223641Y-4699718D01*
X9308641Y-4784718D01*
X9467391Y-2625718D02*
X9552391Y-2540718D01*
X9467391Y-2455718D01*
X9382391Y-2540718D01*
X9467391Y-2625718D01*
X9784891Y-974718D02*
X9869891Y-889718D01*
X9784891Y-804718D01*
X9699891Y-889718D01*
X9784891Y-974718D01*
X9785891Y-8594968D02*
X9870891Y-8509968D01*
X9785891Y-8424968D01*
X9700891Y-8509968D01*
X9785891Y-8594968D01*
X9943641Y-4530718D02*
X10028641Y-4445718D01*
X9943641Y-4360718D01*
X9858641Y-4445718D01*
X9943641Y-4530718D01*
X10261141Y-6689718D02*
X10346141Y-6604718D01*
X10261141Y-6519718D01*
X10176141Y-6604718D01*
X10261141Y-6689718D01*
X10419891Y-720718D02*
X10504891Y-635718D01*
X10419891Y-550718D01*
X10334891Y-635718D01*
X10419891Y-720718D01*
X10420891Y-8340968D02*
X10505891Y-8255968D01*
X10420891Y-8170968D01*
X10335891Y-8255968D01*
X10420891Y-8340968D01*
X10737391Y-2879718D02*
X10822391Y-2794718D01*
X10737391Y-2709718D01*
X10652391Y-2794718D01*
X10737391Y-2879718D01*
X10896141Y-6435718D02*
X10981141Y-6350718D01*
X10896141Y-6265718D01*
X10811141Y-6350718D01*
X10896141Y-6435718D01*
X11213641Y-4784718D02*
X11298641Y-4699718D01*
X11213641Y-4614718D01*
X11128641Y-4699718D01*
X11213641Y-4784718D01*
X11372391Y-2625718D02*
X11457391Y-2540718D01*
X11372391Y-2455718D01*
X11287391Y-2540718D01*
X11372391Y-2625718D01*
X11689891Y-974718D02*
X11774891Y-889718D01*
X11689891Y-804718D01*
X11604891Y-889718D01*
X11689891Y-974718D01*
X11848641Y-4530718D02*
X11933641Y-4445718D01*
X11848641Y-4360718D01*
X11763641Y-4445718D01*
X11848641Y-4530718D01*
X12166141Y-6689718D02*
X12251141Y-6604718D01*
X12166141Y-6519718D01*
X12081141Y-6604718D01*
X12166141Y-6689718D01*
X12324891Y-720718D02*
X12409891Y-635718D01*
X12324891Y-550718D01*
X12239891Y-635718D01*
X12324891Y-720718D01*
X12642391Y-2879718D02*
X12727391Y-2794718D01*
X12642391Y-2709718D01*
X12557391Y-2794718D01*
X12642391Y-2879718D01*
X12801141Y-6435718D02*
X12886141Y-6350718D01*
X12801141Y-6265718D01*
X12716141Y-6350718D01*
X12801141Y-6435718D01*
X13118641Y-4784718D02*
X13203641Y-4699718D01*
X13118641Y-4614718D01*
X13033641Y-4699718D01*
X13118641Y-4784718D01*
X13277391Y-2625718D02*
X13362391Y-2540718D01*
X13277391Y-2455718D01*
X13192391Y-2540718D01*
X13277391Y-2625718D01*
X13594891Y-974718D02*
X13679891Y-889718D01*
X13594891Y-804718D01*
X13509891Y-889718D01*
X13594891Y-974718D01*
X13753641Y-4530718D02*
X13838641Y-4445718D01*
X13753641Y-4360718D01*
X13668641Y-4445718D01*
X13753641Y-4530718D01*
X14071141Y-6689718D02*
X14156141Y-6604718D01*
X14071141Y-6519718D01*
X13986141Y-6604718D01*
X14071141Y-6689718D01*
X14229891Y-720718D02*
X14314891Y-635718D01*
X14229891Y-550718D01*
X14144891Y-635718D01*
X14229891Y-720718D01*
X14547391Y-2879718D02*
X14632391Y-2794718D01*
X14547391Y-2709718D01*
X14462391Y-2794718D01*
X14547391Y-2879718D01*
X14706141Y-6435718D02*
X14791141Y-6350718D01*
X14706141Y-6265718D01*
X14621141Y-6350718D01*
X14706141Y-6435718D01*
X15023641Y-4784718D02*
X15108641Y-4699718D01*
X15023641Y-4614718D01*
X14938641Y-4699718D01*
X15023641Y-4784718D01*
X15182391Y-2625718D02*
X15267391Y-2540718D01*
X15182391Y-2455718D01*
X15097391Y-2540718D01*
X15182391Y-2625718D01*
X15499891Y-974718D02*
X15584891Y-889718D01*
X15499891Y-804718D01*
X15414891Y-889718D01*
X15499891Y-974718D01*
X15658641Y-4530718D02*
X15743641Y-4445718D01*
X15658641Y-4360718D01*
X15573641Y-4445718D01*
X15658641Y-4530718D01*
X15737991Y-8594718D02*
X15822991Y-8509718D01*
X15737991Y-8424718D01*
X15652991Y-8509718D01*
X15737991Y-8594718D01*
X15976141Y-6689718D02*
X16061141Y-6604718D01*
X15976141Y-6519718D01*
X15891141Y-6604718D01*
X15976141Y-6689718D01*
X16134891Y-720718D02*
X16219891Y-635718D01*
X16134891Y-550718D01*
X16049891Y-635718D01*
X16134891Y-720718D01*
X16372991Y-8340718D02*
X16457991Y-8255718D01*
X16372991Y-8170718D01*
X16287991Y-8255718D01*
X16372991Y-8340718D01*
X16452391Y-2879718D02*
X16537391Y-2794718D01*
X16452391Y-2709718D01*
X16367391Y-2794718D01*
X16452391Y-2879718D01*
X16611141Y-6435718D02*
X16696141Y-6350718D01*
X16611141Y-6265718D01*
X16526141Y-6350718D01*
X16611141Y-6435718D01*
X16928641Y-4784718D02*
X17013641Y-4699718D01*
X16928641Y-4614718D01*
X16843641Y-4699718D01*
X16928641Y-4784718D01*
X17087391Y-2625718D02*
X17172391Y-2540718D01*
X17087391Y-2455718D01*
X17002391Y-2540718D01*
X17087391Y-2625718D01*
X17404891Y-974718D02*
X17489891Y-889718D01*
X17404891Y-804718D01*
X17319891Y-889718D01*
X17404891Y-974718D01*
X17563641Y-4530718D02*
X17648641Y-4445718D01*
X17563641Y-4360718D01*
X17478641Y-4445718D01*
X17563641Y-4530718D01*
X17881141Y-6689718D02*
X17966141Y-6604718D01*
X17881141Y-6519718D01*
X17796141Y-6604718D01*
X17881141Y-6689718D01*
X17881891Y-8595468D02*
X17966891Y-8510468D01*
X17881891Y-8425468D01*
X17796891Y-8510468D01*
X17881891Y-8595468D01*
X18039891Y-720718D02*
X18124891Y-635718D01*
X18039891Y-550718D01*
X17954891Y-635718D01*
X18039891Y-720718D01*
X18119241Y-8594718D02*
X18204241Y-8509718D01*
X18119241Y-8424718D01*
X18034241Y-8509718D01*
X18119241Y-8594718D01*
X18357391Y-2879718D02*
X18442391Y-2794718D01*
X18357391Y-2709718D01*
X18272391Y-2794718D01*
X18357391Y-2879718D01*
X18516141Y-6435718D02*
X18601141Y-6350718D01*
X18516141Y-6265718D01*
X18431141Y-6350718D01*
X18516141Y-6435718D01*
X18516891Y-8341468D02*
X18601891Y-8256468D01*
X18516891Y-8171468D01*
X18431891Y-8256468D01*
X18516891Y-8341468D01*
X18754241Y-8340718D02*
X18839241Y-8255718D01*
X18754241Y-8170718D01*
X18669241Y-8255718D01*
X18754241Y-8340718D01*
X18833641Y-4784718D02*
X18918641Y-4699718D01*
X18833641Y-4614718D01*
X18748641Y-4699718D01*
X18833641Y-4784718D01*
X18992391Y-2625718D02*
X19077391Y-2540718D01*
X18992391Y-2455718D01*
X18907391Y-2540718D01*
X18992391Y-2625718D01*
X19309891Y-974718D02*
X19394891Y-889718D01*
X19309891Y-804718D01*
X19224891Y-889718D01*
X19309891Y-974718D01*
X19468641Y-4530718D02*
X19553641Y-4445718D01*
X19468641Y-4360718D01*
X19383641Y-4445718D01*
X19468641Y-4530718D01*
X19944891Y-720718D02*
X20029891Y-635718D01*
X19944891Y-550718D01*
X19859891Y-635718D01*
X19944891Y-720718D01*
X20262391Y-2879718D02*
X20347391Y-2794718D01*
X20262391Y-2709718D01*
X20177391Y-2794718D01*
X20262391Y-2879718D01*
X20500541Y-6689718D02*
X20585541Y-6604718D01*
X20500541Y-6519718D01*
X20415541Y-6604718D01*
X20500541Y-6689718D01*
X20897391Y-2625718D02*
X20982391Y-2540718D01*
X20897391Y-2455718D01*
X20812391Y-2540718D01*
X20897391Y-2625718D01*
X21135541Y-6435718D02*
X21220541Y-6350718D01*
X21135541Y-6265718D01*
X21050541Y-6350718D01*
X21135541Y-6435718D01*
X21214891Y-974718D02*
X21299891Y-889718D01*
X21214891Y-804718D01*
X21129891Y-889718D01*
X21214891Y-974718D01*
X21214891Y-8594718D02*
X21299891Y-8509718D01*
X21214891Y-8424718D01*
X21129891Y-8509718D01*
X21214891Y-8594718D01*
X21849891Y-720718D02*
X21934891Y-635718D01*
X21849891Y-550718D01*
X21764891Y-635718D01*
X21849891Y-720718D01*
X21849891Y-8340718D02*
X21934891Y-8255718D01*
X21849891Y-8170718D01*
X21764891Y-8255718D01*
X21849891Y-8340718D01*
X21936701Y-4784718D02*
X22021701Y-4699718D01*
X21936701Y-4614718D01*
X21851701Y-4699718D01*
X21936701Y-4784718D01*
X22167391Y-974718D02*
X22252391Y-889718D01*
X22167391Y-804718D01*
X22082391Y-889718D01*
X22167391Y-974718D01*
X22571701Y-4530718D02*
X22656701Y-4445718D01*
X22571701Y-4360718D01*
X22486701Y-4445718D01*
X22571701Y-4530718D01*
X22643691Y-2879718D02*
X22728691Y-2794718D01*
X22643691Y-2709718D01*
X22558691Y-2794718D01*
X22643691Y-2879718D01*
X22802391Y-720718D02*
X22887391Y-635718D01*
X22802391Y-550718D01*
X22717391Y-635718D01*
X22802391Y-720718D01*
X23119891Y-974718D02*
X23204891Y-889718D01*
X23119891Y-804718D01*
X23034891Y-889718D01*
X23119891Y-974718D01*
X23119891Y-6689718D02*
X23204891Y-6604718D01*
X23119891Y-6519718D01*
X23034891Y-6604718D01*
X23119891Y-6689718D01*
X23119891Y-8594718D02*
X23204891Y-8509718D01*
X23119891Y-8424718D01*
X23034891Y-8509718D01*
X23119891Y-8594718D01*
X23278691Y-2625718D02*
X23363691Y-2540718D01*
X23278691Y-2455718D01*
X23193691Y-2540718D01*
X23278691Y-2625718D01*
X23754891Y-720718D02*
X23839891Y-635718D01*
X23754891Y-550718D01*
X23669891Y-635718D01*
X23754891Y-720718D01*
X23754891Y-6435718D02*
X23839891Y-6350718D01*
X23754891Y-6265718D01*
X23669891Y-6350718D01*
X23754891Y-6435718D01*
X23754891Y-8340718D02*
X23839891Y-8255718D01*
X23754891Y-8170718D01*
X23669891Y-8255718D01*
X23754891Y-8340718D01*
X25024891Y-974718D02*
X25109891Y-889718D01*
X25024891Y-804718D01*
X24939891Y-889718D01*
X25024891Y-974718D01*
X25024891Y-2879718D02*
X25109891Y-2794718D01*
X25024891Y-2709718D01*
X24939891Y-2794718D01*
X25024891Y-2879718D01*
X25024891Y-4784718D02*
X25109891Y-4699718D01*
X25024891Y-4614718D01*
X24939891Y-4699718D01*
X25024891Y-4784718D01*
X25024891Y-6689718D02*
X25109891Y-6604718D01*
X25024891Y-6519718D01*
X24939891Y-6604718D01*
X25024891Y-6689718D01*
X25024891Y-8594718D02*
X25109891Y-8509718D01*
X25024891Y-8424718D01*
X24939891Y-8509718D01*
X25024891Y-8594718D01*
X25659891Y-720718D02*
X25744891Y-635718D01*
X25659891Y-550718D01*
X25574891Y-635718D01*
X25659891Y-720718D01*
X25659891Y-2625718D02*
X25744891Y-2540718D01*
X25659891Y-2455718D01*
X25574891Y-2540718D01*
X25659891Y-2625718D01*
X25659891Y-4530718D02*
X25744891Y-4445718D01*
X25659891Y-4360718D01*
X25574891Y-4445718D01*
X25659891Y-4530718D01*
X25659891Y-6435718D02*
X25744891Y-6350718D01*
X25659891Y-6265718D01*
X25574891Y-6350718D01*
X25659891Y-6435718D01*
X25659891Y-8340718D02*
X25744891Y-8255718D01*
X25659891Y-8170718D01*
X25574891Y-8255718D01*
X25659891Y-8340718D01*
D11*
X-3618723Y-9956452D02*
X-3618723Y-9756452D01*
X-3618723Y-9756452D02*
X-3571104Y-9756452D01*
X-3571104Y-9756452D02*
X-3542533Y-9765976D01*
X-3542533Y-9765976D02*
X-3523485Y-9785023D01*
X-3523485Y-9785023D02*
X-3513961Y-9804071D01*
X-3513961Y-9804071D02*
X-3504437Y-9842166D01*
X-3504437Y-9842166D02*
X-3504437Y-9870738D01*
X-3504437Y-9870738D02*
X-3513961Y-9908833D01*
X-3513961Y-9908833D02*
X-3523485Y-9927881D01*
X-3523485Y-9927881D02*
X-3542533Y-9946928D01*
X-3542533Y-9946928D02*
X-3571104Y-9956452D01*
X-3571104Y-9956452D02*
X-3618723Y-9956452D01*
X-3418723Y-9956452D02*
X-3418723Y-9823119D01*
X-3418723Y-9861214D02*
X-3409199Y-9842166D01*
X-3409199Y-9842166D02*
X-3399675Y-9832642D01*
X-3399675Y-9832642D02*
X-3380628Y-9823119D01*
X-3380628Y-9823119D02*
X-3361580Y-9823119D01*
X-3294914Y-9956452D02*
X-3294914Y-9823119D01*
X-3294914Y-9756452D02*
X-3304437Y-9765976D01*
X-3304437Y-9765976D02*
X-3294914Y-9775500D01*
X-3294914Y-9775500D02*
X-3285390Y-9765976D01*
X-3285390Y-9765976D02*
X-3294914Y-9756452D01*
X-3294914Y-9756452D02*
X-3294914Y-9775500D01*
X-3171104Y-9956452D02*
X-3190152Y-9946928D01*
X-3190152Y-9946928D02*
X-3199675Y-9927881D01*
X-3199675Y-9927881D02*
X-3199675Y-9756452D01*
X-3066342Y-9956452D02*
X-3085390Y-9946928D01*
X-3085390Y-9946928D02*
X-3094914Y-9927881D01*
X-3094914Y-9927881D02*
X-3094914Y-9756452D01*
X-2837771Y-9956452D02*
X-2837771Y-9756452D01*
X-2837771Y-9756452D02*
X-2771104Y-9899309D01*
X-2771104Y-9899309D02*
X-2704437Y-9756452D01*
X-2704437Y-9756452D02*
X-2704437Y-9956452D01*
X-2523485Y-9956452D02*
X-2523485Y-9851690D01*
X-2523485Y-9851690D02*
X-2533009Y-9832642D01*
X-2533009Y-9832642D02*
X-2552056Y-9823119D01*
X-2552056Y-9823119D02*
X-2590152Y-9823119D01*
X-2590152Y-9823119D02*
X-2609199Y-9832642D01*
X-2523485Y-9946928D02*
X-2542533Y-9956452D01*
X-2542533Y-9956452D02*
X-2590152Y-9956452D01*
X-2590152Y-9956452D02*
X-2609199Y-9946928D01*
X-2609199Y-9946928D02*
X-2618723Y-9927881D01*
X-2618723Y-9927881D02*
X-2618723Y-9908833D01*
X-2618723Y-9908833D02*
X-2609199Y-9889785D01*
X-2609199Y-9889785D02*
X-2590152Y-9880262D01*
X-2590152Y-9880262D02*
X-2542533Y-9880262D01*
X-2542533Y-9880262D02*
X-2523485Y-9870738D01*
X-2428247Y-9823119D02*
X-2428247Y-10023119D01*
X-2428247Y-9832642D02*
X-2409199Y-9823119D01*
X-2409199Y-9823119D02*
X-2371104Y-9823119D01*
X-2371104Y-9823119D02*
X-2352056Y-9832642D01*
X-2352056Y-9832642D02*
X-2342533Y-9842166D01*
X-2342533Y-9842166D02*
X-2333009Y-9861214D01*
X-2333009Y-9861214D02*
X-2333009Y-9918357D01*
X-2333009Y-9918357D02*
X-2342533Y-9937404D01*
X-2342533Y-9937404D02*
X-2352056Y-9946928D01*
X-2352056Y-9946928D02*
X-2371104Y-9956452D01*
X-2371104Y-9956452D02*
X-2409199Y-9956452D01*
X-2409199Y-9956452D02*
X-2428247Y-9946928D01*
X-2247295Y-9937404D02*
X-2237771Y-9946928D01*
X-2237771Y-9946928D02*
X-2247295Y-9956452D01*
X-2247295Y-9956452D02*
X-2256818Y-9946928D01*
X-2256818Y-9946928D02*
X-2247295Y-9937404D01*
X-2247295Y-9937404D02*
X-2247295Y-9956452D01*
X-2247295Y-9832642D02*
X-2237771Y-9842166D01*
X-2237771Y-9842166D02*
X-2247295Y-9851690D01*
X-2247295Y-9851690D02*
X-2256818Y-9842166D01*
X-2256818Y-9842166D02*
X-2247295Y-9832642D01*
X-2247295Y-9832642D02*
X-2247295Y-9851690D01*
D12*
X-3909500Y-10269968D02*
X-3879500Y-10299968D01*
X-3879500Y-10269968D02*
X-3909500Y-10299968D01*
D11*
X-3580628Y-10176452D02*
X-3561580Y-10176452D01*
X-3561580Y-10176452D02*
X-3542533Y-10185976D01*
X-3542533Y-10185976D02*
X-3533009Y-10195500D01*
X-3533009Y-10195500D02*
X-3523485Y-10214547D01*
X-3523485Y-10214547D02*
X-3513961Y-10252642D01*
X-3513961Y-10252642D02*
X-3513961Y-10300262D01*
X-3513961Y-10300262D02*
X-3523485Y-10338357D01*
X-3523485Y-10338357D02*
X-3533009Y-10357404D01*
X-3533009Y-10357404D02*
X-3542533Y-10366928D01*
X-3542533Y-10366928D02*
X-3561580Y-10376452D01*
X-3561580Y-10376452D02*
X-3580628Y-10376452D01*
X-3580628Y-10376452D02*
X-3599675Y-10366928D01*
X-3599675Y-10366928D02*
X-3609199Y-10357404D01*
X-3609199Y-10357404D02*
X-3618723Y-10338357D01*
X-3618723Y-10338357D02*
X-3628247Y-10300262D01*
X-3628247Y-10300262D02*
X-3628247Y-10252642D01*
X-3628247Y-10252642D02*
X-3618723Y-10214547D01*
X-3618723Y-10214547D02*
X-3609199Y-10195500D01*
X-3609199Y-10195500D02*
X-3599675Y-10185976D01*
X-3599675Y-10185976D02*
X-3580628Y-10176452D01*
X-3428247Y-10357404D02*
X-3418723Y-10366928D01*
X-3418723Y-10366928D02*
X-3428247Y-10376452D01*
X-3428247Y-10376452D02*
X-3437771Y-10366928D01*
X-3437771Y-10366928D02*
X-3428247Y-10357404D01*
X-3428247Y-10357404D02*
X-3428247Y-10376452D01*
X-3352056Y-10176452D02*
X-3228247Y-10176452D01*
X-3228247Y-10176452D02*
X-3294914Y-10252642D01*
X-3294914Y-10252642D02*
X-3266342Y-10252642D01*
X-3266342Y-10252642D02*
X-3247294Y-10262166D01*
X-3247294Y-10262166D02*
X-3237771Y-10271690D01*
X-3237771Y-10271690D02*
X-3228247Y-10290738D01*
X-3228247Y-10290738D02*
X-3228247Y-10338357D01*
X-3228247Y-10338357D02*
X-3237771Y-10357404D01*
X-3237771Y-10357404D02*
X-3247294Y-10366928D01*
X-3247294Y-10366928D02*
X-3266342Y-10376452D01*
X-3266342Y-10376452D02*
X-3323485Y-10376452D01*
X-3323485Y-10376452D02*
X-3342533Y-10366928D01*
X-3342533Y-10366928D02*
X-3352056Y-10357404D01*
X-3104437Y-10176452D02*
X-3085390Y-10176452D01*
X-3085390Y-10176452D02*
X-3066342Y-10185976D01*
X-3066342Y-10185976D02*
X-3056818Y-10195500D01*
X-3056818Y-10195500D02*
X-3047294Y-10214547D01*
X-3047294Y-10214547D02*
X-3037771Y-10252642D01*
X-3037771Y-10252642D02*
X-3037771Y-10300262D01*
X-3037771Y-10300262D02*
X-3047294Y-10338357D01*
X-3047294Y-10338357D02*
X-3056818Y-10357404D01*
X-3056818Y-10357404D02*
X-3066342Y-10366928D01*
X-3066342Y-10366928D02*
X-3085390Y-10376452D01*
X-3085390Y-10376452D02*
X-3104437Y-10376452D01*
X-3104437Y-10376452D02*
X-3123485Y-10366928D01*
X-3123485Y-10366928D02*
X-3133009Y-10357404D01*
X-3133009Y-10357404D02*
X-3142533Y-10338357D01*
X-3142533Y-10338357D02*
X-3152056Y-10300262D01*
X-3152056Y-10300262D02*
X-3152056Y-10252642D01*
X-3152056Y-10252642D02*
X-3142533Y-10214547D01*
X-3142533Y-10214547D02*
X-3133009Y-10195500D01*
X-3133009Y-10195500D02*
X-3123485Y-10185976D01*
X-3123485Y-10185976D02*
X-3104437Y-10176452D01*
X-2913961Y-10176452D02*
X-2894913Y-10176452D01*
X-2894913Y-10176452D02*
X-2875866Y-10185976D01*
X-2875866Y-10185976D02*
X-2866342Y-10195500D01*
X-2866342Y-10195500D02*
X-2856818Y-10214547D01*
X-2856818Y-10214547D02*
X-2847294Y-10252642D01*
X-2847294Y-10252642D02*
X-2847294Y-10300262D01*
X-2847294Y-10300262D02*
X-2856818Y-10338357D01*
X-2856818Y-10338357D02*
X-2866342Y-10357404D01*
X-2866342Y-10357404D02*
X-2875866Y-10366928D01*
X-2875866Y-10366928D02*
X-2894913Y-10376452D01*
X-2894913Y-10376452D02*
X-2913961Y-10376452D01*
X-2913961Y-10376452D02*
X-2933009Y-10366928D01*
X-2933009Y-10366928D02*
X-2942533Y-10357404D01*
X-2942533Y-10357404D02*
X-2952056Y-10338357D01*
X-2952056Y-10338357D02*
X-2961580Y-10300262D01*
X-2961580Y-10300262D02*
X-2961580Y-10252642D01*
X-2961580Y-10252642D02*
X-2952056Y-10214547D01*
X-2952056Y-10214547D02*
X-2942533Y-10195500D01*
X-2942533Y-10195500D02*
X-2933009Y-10185976D01*
X-2933009Y-10185976D02*
X-2913961Y-10176452D01*
X-2761580Y-10376452D02*
X-2761580Y-10243119D01*
X-2761580Y-10262166D02*
X-2752056Y-10252642D01*
X-2752056Y-10252642D02*
X-2733009Y-10243119D01*
X-2733009Y-10243119D02*
X-2704437Y-10243119D01*
X-2704437Y-10243119D02*
X-2685390Y-10252642D01*
X-2685390Y-10252642D02*
X-2675866Y-10271690D01*
X-2675866Y-10271690D02*
X-2675866Y-10376452D01*
X-2675866Y-10271690D02*
X-2666342Y-10252642D01*
X-2666342Y-10252642D02*
X-2647295Y-10243119D01*
X-2647295Y-10243119D02*
X-2618723Y-10243119D01*
X-2618723Y-10243119D02*
X-2599675Y-10252642D01*
X-2599675Y-10252642D02*
X-2590152Y-10271690D01*
X-2590152Y-10271690D02*
X-2590152Y-10376452D01*
X-2494914Y-10376452D02*
X-2494914Y-10243119D01*
X-2494914Y-10262166D02*
X-2485390Y-10252642D01*
X-2485390Y-10252642D02*
X-2466342Y-10243119D01*
X-2466342Y-10243119D02*
X-2437771Y-10243119D01*
X-2437771Y-10243119D02*
X-2418723Y-10252642D01*
X-2418723Y-10252642D02*
X-2409199Y-10271690D01*
X-2409199Y-10271690D02*
X-2409199Y-10376452D01*
X-2409199Y-10271690D02*
X-2399675Y-10252642D01*
X-2399675Y-10252642D02*
X-2380628Y-10243119D01*
X-2380628Y-10243119D02*
X-2352056Y-10243119D01*
X-2352056Y-10243119D02*
X-2333009Y-10252642D01*
X-2333009Y-10252642D02*
X-2323485Y-10271690D01*
X-2323485Y-10271690D02*
X-2323485Y-10376452D01*
X-1933009Y-10166928D02*
X-2104437Y-10424071D01*
X-1675866Y-10176452D02*
X-1656818Y-10176452D01*
X-1656818Y-10176452D02*
X-1637770Y-10185976D01*
X-1637770Y-10185976D02*
X-1628247Y-10195500D01*
X-1628247Y-10195500D02*
X-1618723Y-10214547D01*
X-1618723Y-10214547D02*
X-1609199Y-10252642D01*
X-1609199Y-10252642D02*
X-1609199Y-10300262D01*
X-1609199Y-10300262D02*
X-1618723Y-10338357D01*
X-1618723Y-10338357D02*
X-1628247Y-10357404D01*
X-1628247Y-10357404D02*
X-1637770Y-10366928D01*
X-1637770Y-10366928D02*
X-1656818Y-10376452D01*
X-1656818Y-10376452D02*
X-1675866Y-10376452D01*
X-1675866Y-10376452D02*
X-1694913Y-10366928D01*
X-1694913Y-10366928D02*
X-1704437Y-10357404D01*
X-1704437Y-10357404D02*
X-1713961Y-10338357D01*
X-1713961Y-10338357D02*
X-1723485Y-10300262D01*
X-1723485Y-10300262D02*
X-1723485Y-10252642D01*
X-1723485Y-10252642D02*
X-1713961Y-10214547D01*
X-1713961Y-10214547D02*
X-1704437Y-10195500D01*
X-1704437Y-10195500D02*
X-1694913Y-10185976D01*
X-1694913Y-10185976D02*
X-1675866Y-10176452D01*
X-1523485Y-10357404D02*
X-1513961Y-10366928D01*
X-1513961Y-10366928D02*
X-1523485Y-10376452D01*
X-1523485Y-10376452D02*
X-1533009Y-10366928D01*
X-1533009Y-10366928D02*
X-1523485Y-10357404D01*
X-1523485Y-10357404D02*
X-1523485Y-10376452D01*
X-1390152Y-10176452D02*
X-1371104Y-10176452D01*
X-1371104Y-10176452D02*
X-1352056Y-10185976D01*
X-1352056Y-10185976D02*
X-1342532Y-10195500D01*
X-1342532Y-10195500D02*
X-1333009Y-10214547D01*
X-1333009Y-10214547D02*
X-1323485Y-10252642D01*
X-1323485Y-10252642D02*
X-1323485Y-10300262D01*
X-1323485Y-10300262D02*
X-1333009Y-10338357D01*
X-1333009Y-10338357D02*
X-1342532Y-10357404D01*
X-1342532Y-10357404D02*
X-1352056Y-10366928D01*
X-1352056Y-10366928D02*
X-1371104Y-10376452D01*
X-1371104Y-10376452D02*
X-1390152Y-10376452D01*
X-1390152Y-10376452D02*
X-1409199Y-10366928D01*
X-1409199Y-10366928D02*
X-1418723Y-10357404D01*
X-1418723Y-10357404D02*
X-1428247Y-10338357D01*
X-1428247Y-10338357D02*
X-1437770Y-10300262D01*
X-1437770Y-10300262D02*
X-1437770Y-10252642D01*
X-1437770Y-10252642D02*
X-1428247Y-10214547D01*
X-1428247Y-10214547D02*
X-1418723Y-10195500D01*
X-1418723Y-10195500D02*
X-1409199Y-10185976D01*
X-1409199Y-10185976D02*
X-1390152Y-10176452D01*
X-1133009Y-10376452D02*
X-1247294Y-10376452D01*
X-1190152Y-10376452D02*
X-1190152Y-10176452D01*
X-1190152Y-10176452D02*
X-1209199Y-10205023D01*
X-1209199Y-10205023D02*
X-1228247Y-10224071D01*
X-1228247Y-10224071D02*
X-1247294Y-10233595D01*
X-942532Y-10376452D02*
X-1056818Y-10376452D01*
X-999675Y-10376452D02*
X-999675Y-10176452D01*
X-999675Y-10176452D02*
X-1018723Y-10205023D01*
X-1018723Y-10205023D02*
X-1037770Y-10224071D01*
X-1037770Y-10224071D02*
X-1056818Y-10233595D01*
X-828247Y-10262166D02*
X-847294Y-10252642D01*
X-847294Y-10252642D02*
X-856818Y-10243119D01*
X-856818Y-10243119D02*
X-866342Y-10224071D01*
X-866342Y-10224071D02*
X-866342Y-10214547D01*
X-866342Y-10214547D02*
X-856818Y-10195500D01*
X-856818Y-10195500D02*
X-847294Y-10185976D01*
X-847294Y-10185976D02*
X-828247Y-10176452D01*
X-828247Y-10176452D02*
X-790151Y-10176452D01*
X-790151Y-10176452D02*
X-771104Y-10185976D01*
X-771104Y-10185976D02*
X-761580Y-10195500D01*
X-761580Y-10195500D02*
X-752056Y-10214547D01*
X-752056Y-10214547D02*
X-752056Y-10224071D01*
X-752056Y-10224071D02*
X-761580Y-10243119D01*
X-761580Y-10243119D02*
X-771104Y-10252642D01*
X-771104Y-10252642D02*
X-790151Y-10262166D01*
X-790151Y-10262166D02*
X-828247Y-10262166D01*
X-828247Y-10262166D02*
X-847294Y-10271690D01*
X-847294Y-10271690D02*
X-856818Y-10281214D01*
X-856818Y-10281214D02*
X-866342Y-10300262D01*
X-866342Y-10300262D02*
X-866342Y-10338357D01*
X-866342Y-10338357D02*
X-856818Y-10357404D01*
X-856818Y-10357404D02*
X-847294Y-10366928D01*
X-847294Y-10366928D02*
X-828247Y-10376452D01*
X-828247Y-10376452D02*
X-790151Y-10376452D01*
X-790151Y-10376452D02*
X-771104Y-10366928D01*
X-771104Y-10366928D02*
X-761580Y-10357404D01*
X-761580Y-10357404D02*
X-752056Y-10338357D01*
X-752056Y-10338357D02*
X-752056Y-10300262D01*
X-752056Y-10300262D02*
X-761580Y-10281214D01*
X-761580Y-10281214D02*
X-771104Y-10271690D01*
X-771104Y-10271690D02*
X-790151Y-10262166D01*
X-675866Y-10176452D02*
X-675866Y-10214547D01*
X-599675Y-10176452D02*
X-599675Y-10214547D01*
X-304437Y-10452642D02*
X-313961Y-10443119D01*
X-313961Y-10443119D02*
X-333009Y-10414547D01*
X-333009Y-10414547D02*
X-342532Y-10395500D01*
X-342532Y-10395500D02*
X-352056Y-10366928D01*
X-352056Y-10366928D02*
X-361580Y-10319309D01*
X-361580Y-10319309D02*
X-361580Y-10281214D01*
X-361580Y-10281214D02*
X-352056Y-10233595D01*
X-352056Y-10233595D02*
X-342532Y-10205023D01*
X-342532Y-10205023D02*
X-333009Y-10185976D01*
X-333009Y-10185976D02*
X-313961Y-10157404D01*
X-313961Y-10157404D02*
X-304437Y-10147881D01*
X-218723Y-10376452D02*
X-180628Y-10376452D01*
X-180628Y-10376452D02*
X-161580Y-10366928D01*
X-161580Y-10366928D02*
X-152056Y-10357404D01*
X-152056Y-10357404D02*
X-133009Y-10328833D01*
X-133009Y-10328833D02*
X-123485Y-10290738D01*
X-123485Y-10290738D02*
X-123485Y-10214547D01*
X-123485Y-10214547D02*
X-133009Y-10195500D01*
X-133009Y-10195500D02*
X-142532Y-10185976D01*
X-142532Y-10185976D02*
X-161580Y-10176452D01*
X-161580Y-10176452D02*
X-199675Y-10176452D01*
X-199675Y-10176452D02*
X-218723Y-10185976D01*
X-218723Y-10185976D02*
X-228247Y-10195500D01*
X-228247Y-10195500D02*
X-237770Y-10214547D01*
X-237770Y-10214547D02*
X-237770Y-10262166D01*
X-237770Y-10262166D02*
X-228247Y-10281214D01*
X-228247Y-10281214D02*
X-218723Y-10290738D01*
X-218723Y-10290738D02*
X-199675Y-10300262D01*
X-199675Y-10300262D02*
X-161580Y-10300262D01*
X-161580Y-10300262D02*
X-142532Y-10290738D01*
X-142532Y-10290738D02*
X-133009Y-10281214D01*
X-133009Y-10281214D02*
X-123485Y-10262166D01*
X-56818Y-10176452D02*
X76515Y-10176452D01*
X76515Y-10176452D02*
X-9199Y-10376452D01*
X305087Y-10376452D02*
X305087Y-10176452D01*
X390801Y-10376452D02*
X390801Y-10271690D01*
X390801Y-10271690D02*
X381277Y-10252642D01*
X381277Y-10252642D02*
X362230Y-10243119D01*
X362230Y-10243119D02*
X333658Y-10243119D01*
X333658Y-10243119D02*
X314611Y-10252642D01*
X314611Y-10252642D02*
X305087Y-10262166D01*
X514610Y-10376452D02*
X495563Y-10366928D01*
X495563Y-10366928D02*
X486039Y-10357404D01*
X486039Y-10357404D02*
X476515Y-10338357D01*
X476515Y-10338357D02*
X476515Y-10281214D01*
X476515Y-10281214D02*
X486039Y-10262166D01*
X486039Y-10262166D02*
X495563Y-10252642D01*
X495563Y-10252642D02*
X514610Y-10243119D01*
X514610Y-10243119D02*
X543182Y-10243119D01*
X543182Y-10243119D02*
X562230Y-10252642D01*
X562230Y-10252642D02*
X571753Y-10262166D01*
X571753Y-10262166D02*
X581277Y-10281214D01*
X581277Y-10281214D02*
X581277Y-10338357D01*
X581277Y-10338357D02*
X571753Y-10357404D01*
X571753Y-10357404D02*
X562230Y-10366928D01*
X562230Y-10366928D02*
X543182Y-10376452D01*
X543182Y-10376452D02*
X514610Y-10376452D01*
X695563Y-10376452D02*
X676515Y-10366928D01*
X676515Y-10366928D02*
X666992Y-10347881D01*
X666992Y-10347881D02*
X666992Y-10176452D01*
X847944Y-10366928D02*
X828896Y-10376452D01*
X828896Y-10376452D02*
X790801Y-10376452D01*
X790801Y-10376452D02*
X771753Y-10366928D01*
X771753Y-10366928D02*
X762230Y-10347881D01*
X762230Y-10347881D02*
X762230Y-10271690D01*
X762230Y-10271690D02*
X771753Y-10252642D01*
X771753Y-10252642D02*
X790801Y-10243119D01*
X790801Y-10243119D02*
X828896Y-10243119D01*
X828896Y-10243119D02*
X847944Y-10252642D01*
X847944Y-10252642D02*
X857468Y-10271690D01*
X857468Y-10271690D02*
X857468Y-10290738D01*
X857468Y-10290738D02*
X762230Y-10309785D01*
X933658Y-10366928D02*
X952706Y-10376452D01*
X952706Y-10376452D02*
X990801Y-10376452D01*
X990801Y-10376452D02*
X1009849Y-10366928D01*
X1009849Y-10366928D02*
X1019372Y-10347881D01*
X1019372Y-10347881D02*
X1019372Y-10338357D01*
X1019372Y-10338357D02*
X1009849Y-10319309D01*
X1009849Y-10319309D02*
X990801Y-10309785D01*
X990801Y-10309785D02*
X962230Y-10309785D01*
X962230Y-10309785D02*
X943182Y-10300262D01*
X943182Y-10300262D02*
X933658Y-10281214D01*
X933658Y-10281214D02*
X933658Y-10271690D01*
X933658Y-10271690D02*
X943182Y-10252642D01*
X943182Y-10252642D02*
X962230Y-10243119D01*
X962230Y-10243119D02*
X990801Y-10243119D01*
X990801Y-10243119D02*
X1009849Y-10252642D01*
X1086039Y-10452642D02*
X1095563Y-10443119D01*
X1095563Y-10443119D02*
X1114611Y-10414547D01*
X1114611Y-10414547D02*
X1124134Y-10395500D01*
X1124134Y-10395500D02*
X1133658Y-10366928D01*
X1133658Y-10366928D02*
X1143182Y-10319309D01*
X1143182Y-10319309D02*
X1143182Y-10281214D01*
X1143182Y-10281214D02*
X1133658Y-10233595D01*
X1133658Y-10233595D02*
X1124134Y-10205023D01*
X1124134Y-10205023D02*
X1114611Y-10185976D01*
X1114611Y-10185976D02*
X1095563Y-10157404D01*
X1095563Y-10157404D02*
X1086039Y-10147881D01*
D12*
X-3879500Y-10548968D02*
G75*
G02*
X-3909500Y-10548968I-15000J0D01*
G01*
X-3909500Y-10548968D02*
G75*
G02*
X-3879500Y-10548968I15000J0D01*
G01*
D11*
X-3580628Y-10440452D02*
X-3561580Y-10440452D01*
X-3561580Y-10440452D02*
X-3542533Y-10449976D01*
X-3542533Y-10449976D02*
X-3533009Y-10459500D01*
X-3533009Y-10459500D02*
X-3523485Y-10478547D01*
X-3523485Y-10478547D02*
X-3513961Y-10516642D01*
X-3513961Y-10516642D02*
X-3513961Y-10564262D01*
X-3513961Y-10564262D02*
X-3523485Y-10602357D01*
X-3523485Y-10602357D02*
X-3533009Y-10621404D01*
X-3533009Y-10621404D02*
X-3542533Y-10630928D01*
X-3542533Y-10630928D02*
X-3561580Y-10640452D01*
X-3561580Y-10640452D02*
X-3580628Y-10640452D01*
X-3580628Y-10640452D02*
X-3599675Y-10630928D01*
X-3599675Y-10630928D02*
X-3609199Y-10621404D01*
X-3609199Y-10621404D02*
X-3618723Y-10602357D01*
X-3618723Y-10602357D02*
X-3628247Y-10564262D01*
X-3628247Y-10564262D02*
X-3628247Y-10516642D01*
X-3628247Y-10516642D02*
X-3618723Y-10478547D01*
X-3618723Y-10478547D02*
X-3609199Y-10459500D01*
X-3609199Y-10459500D02*
X-3599675Y-10449976D01*
X-3599675Y-10449976D02*
X-3580628Y-10440452D01*
X-3428247Y-10621404D02*
X-3418723Y-10630928D01*
X-3418723Y-10630928D02*
X-3428247Y-10640452D01*
X-3428247Y-10640452D02*
X-3437771Y-10630928D01*
X-3437771Y-10630928D02*
X-3428247Y-10621404D01*
X-3428247Y-10621404D02*
X-3428247Y-10640452D01*
X-3352056Y-10440452D02*
X-3228247Y-10440452D01*
X-3228247Y-10440452D02*
X-3294914Y-10516642D01*
X-3294914Y-10516642D02*
X-3266342Y-10516642D01*
X-3266342Y-10516642D02*
X-3247294Y-10526166D01*
X-3247294Y-10526166D02*
X-3237771Y-10535690D01*
X-3237771Y-10535690D02*
X-3228247Y-10554738D01*
X-3228247Y-10554738D02*
X-3228247Y-10602357D01*
X-3228247Y-10602357D02*
X-3237771Y-10621404D01*
X-3237771Y-10621404D02*
X-3247294Y-10630928D01*
X-3247294Y-10630928D02*
X-3266342Y-10640452D01*
X-3266342Y-10640452D02*
X-3323485Y-10640452D01*
X-3323485Y-10640452D02*
X-3342533Y-10630928D01*
X-3342533Y-10630928D02*
X-3352056Y-10621404D01*
X-3104437Y-10440452D02*
X-3085390Y-10440452D01*
X-3085390Y-10440452D02*
X-3066342Y-10449976D01*
X-3066342Y-10449976D02*
X-3056818Y-10459500D01*
X-3056818Y-10459500D02*
X-3047294Y-10478547D01*
X-3047294Y-10478547D02*
X-3037771Y-10516642D01*
X-3037771Y-10516642D02*
X-3037771Y-10564262D01*
X-3037771Y-10564262D02*
X-3047294Y-10602357D01*
X-3047294Y-10602357D02*
X-3056818Y-10621404D01*
X-3056818Y-10621404D02*
X-3066342Y-10630928D01*
X-3066342Y-10630928D02*
X-3085390Y-10640452D01*
X-3085390Y-10640452D02*
X-3104437Y-10640452D01*
X-3104437Y-10640452D02*
X-3123485Y-10630928D01*
X-3123485Y-10630928D02*
X-3133009Y-10621404D01*
X-3133009Y-10621404D02*
X-3142533Y-10602357D01*
X-3142533Y-10602357D02*
X-3152056Y-10564262D01*
X-3152056Y-10564262D02*
X-3152056Y-10516642D01*
X-3152056Y-10516642D02*
X-3142533Y-10478547D01*
X-3142533Y-10478547D02*
X-3133009Y-10459500D01*
X-3133009Y-10459500D02*
X-3123485Y-10449976D01*
X-3123485Y-10449976D02*
X-3104437Y-10440452D01*
X-2913961Y-10440452D02*
X-2894913Y-10440452D01*
X-2894913Y-10440452D02*
X-2875866Y-10449976D01*
X-2875866Y-10449976D02*
X-2866342Y-10459500D01*
X-2866342Y-10459500D02*
X-2856818Y-10478547D01*
X-2856818Y-10478547D02*
X-2847294Y-10516642D01*
X-2847294Y-10516642D02*
X-2847294Y-10564262D01*
X-2847294Y-10564262D02*
X-2856818Y-10602357D01*
X-2856818Y-10602357D02*
X-2866342Y-10621404D01*
X-2866342Y-10621404D02*
X-2875866Y-10630928D01*
X-2875866Y-10630928D02*
X-2894913Y-10640452D01*
X-2894913Y-10640452D02*
X-2913961Y-10640452D01*
X-2913961Y-10640452D02*
X-2933009Y-10630928D01*
X-2933009Y-10630928D02*
X-2942533Y-10621404D01*
X-2942533Y-10621404D02*
X-2952056Y-10602357D01*
X-2952056Y-10602357D02*
X-2961580Y-10564262D01*
X-2961580Y-10564262D02*
X-2961580Y-10516642D01*
X-2961580Y-10516642D02*
X-2952056Y-10478547D01*
X-2952056Y-10478547D02*
X-2942533Y-10459500D01*
X-2942533Y-10459500D02*
X-2933009Y-10449976D01*
X-2933009Y-10449976D02*
X-2913961Y-10440452D01*
X-2761580Y-10640452D02*
X-2761580Y-10507119D01*
X-2761580Y-10526166D02*
X-2752056Y-10516642D01*
X-2752056Y-10516642D02*
X-2733009Y-10507119D01*
X-2733009Y-10507119D02*
X-2704437Y-10507119D01*
X-2704437Y-10507119D02*
X-2685390Y-10516642D01*
X-2685390Y-10516642D02*
X-2675866Y-10535690D01*
X-2675866Y-10535690D02*
X-2675866Y-10640452D01*
X-2675866Y-10535690D02*
X-2666342Y-10516642D01*
X-2666342Y-10516642D02*
X-2647295Y-10507119D01*
X-2647295Y-10507119D02*
X-2618723Y-10507119D01*
X-2618723Y-10507119D02*
X-2599675Y-10516642D01*
X-2599675Y-10516642D02*
X-2590152Y-10535690D01*
X-2590152Y-10535690D02*
X-2590152Y-10640452D01*
X-2494914Y-10640452D02*
X-2494914Y-10507119D01*
X-2494914Y-10526166D02*
X-2485390Y-10516642D01*
X-2485390Y-10516642D02*
X-2466342Y-10507119D01*
X-2466342Y-10507119D02*
X-2437771Y-10507119D01*
X-2437771Y-10507119D02*
X-2418723Y-10516642D01*
X-2418723Y-10516642D02*
X-2409199Y-10535690D01*
X-2409199Y-10535690D02*
X-2409199Y-10640452D01*
X-2409199Y-10535690D02*
X-2399675Y-10516642D01*
X-2399675Y-10516642D02*
X-2380628Y-10507119D01*
X-2380628Y-10507119D02*
X-2352056Y-10507119D01*
X-2352056Y-10507119D02*
X-2333009Y-10516642D01*
X-2333009Y-10516642D02*
X-2323485Y-10535690D01*
X-2323485Y-10535690D02*
X-2323485Y-10640452D01*
X-1933009Y-10430928D02*
X-2104437Y-10688071D01*
X-1675866Y-10440452D02*
X-1656818Y-10440452D01*
X-1656818Y-10440452D02*
X-1637770Y-10449976D01*
X-1637770Y-10449976D02*
X-1628247Y-10459500D01*
X-1628247Y-10459500D02*
X-1618723Y-10478547D01*
X-1618723Y-10478547D02*
X-1609199Y-10516642D01*
X-1609199Y-10516642D02*
X-1609199Y-10564262D01*
X-1609199Y-10564262D02*
X-1618723Y-10602357D01*
X-1618723Y-10602357D02*
X-1628247Y-10621404D01*
X-1628247Y-10621404D02*
X-1637770Y-10630928D01*
X-1637770Y-10630928D02*
X-1656818Y-10640452D01*
X-1656818Y-10640452D02*
X-1675866Y-10640452D01*
X-1675866Y-10640452D02*
X-1694913Y-10630928D01*
X-1694913Y-10630928D02*
X-1704437Y-10621404D01*
X-1704437Y-10621404D02*
X-1713961Y-10602357D01*
X-1713961Y-10602357D02*
X-1723485Y-10564262D01*
X-1723485Y-10564262D02*
X-1723485Y-10516642D01*
X-1723485Y-10516642D02*
X-1713961Y-10478547D01*
X-1713961Y-10478547D02*
X-1704437Y-10459500D01*
X-1704437Y-10459500D02*
X-1694913Y-10449976D01*
X-1694913Y-10449976D02*
X-1675866Y-10440452D01*
X-1523485Y-10621404D02*
X-1513961Y-10630928D01*
X-1513961Y-10630928D02*
X-1523485Y-10640452D01*
X-1523485Y-10640452D02*
X-1533009Y-10630928D01*
X-1533009Y-10630928D02*
X-1523485Y-10621404D01*
X-1523485Y-10621404D02*
X-1523485Y-10640452D01*
X-1390152Y-10440452D02*
X-1371104Y-10440452D01*
X-1371104Y-10440452D02*
X-1352056Y-10449976D01*
X-1352056Y-10449976D02*
X-1342532Y-10459500D01*
X-1342532Y-10459500D02*
X-1333009Y-10478547D01*
X-1333009Y-10478547D02*
X-1323485Y-10516642D01*
X-1323485Y-10516642D02*
X-1323485Y-10564262D01*
X-1323485Y-10564262D02*
X-1333009Y-10602357D01*
X-1333009Y-10602357D02*
X-1342532Y-10621404D01*
X-1342532Y-10621404D02*
X-1352056Y-10630928D01*
X-1352056Y-10630928D02*
X-1371104Y-10640452D01*
X-1371104Y-10640452D02*
X-1390152Y-10640452D01*
X-1390152Y-10640452D02*
X-1409199Y-10630928D01*
X-1409199Y-10630928D02*
X-1418723Y-10621404D01*
X-1418723Y-10621404D02*
X-1428247Y-10602357D01*
X-1428247Y-10602357D02*
X-1437770Y-10564262D01*
X-1437770Y-10564262D02*
X-1437770Y-10516642D01*
X-1437770Y-10516642D02*
X-1428247Y-10478547D01*
X-1428247Y-10478547D02*
X-1418723Y-10459500D01*
X-1418723Y-10459500D02*
X-1409199Y-10449976D01*
X-1409199Y-10449976D02*
X-1390152Y-10440452D01*
X-1133009Y-10640452D02*
X-1247294Y-10640452D01*
X-1190152Y-10640452D02*
X-1190152Y-10440452D01*
X-1190152Y-10440452D02*
X-1209199Y-10469023D01*
X-1209199Y-10469023D02*
X-1228247Y-10488071D01*
X-1228247Y-10488071D02*
X-1247294Y-10497595D01*
X-942532Y-10640452D02*
X-1056818Y-10640452D01*
X-999675Y-10640452D02*
X-999675Y-10440452D01*
X-999675Y-10440452D02*
X-1018723Y-10469023D01*
X-1018723Y-10469023D02*
X-1037770Y-10488071D01*
X-1037770Y-10488071D02*
X-1056818Y-10497595D01*
X-828247Y-10526166D02*
X-847294Y-10516642D01*
X-847294Y-10516642D02*
X-856818Y-10507119D01*
X-856818Y-10507119D02*
X-866342Y-10488071D01*
X-866342Y-10488071D02*
X-866342Y-10478547D01*
X-866342Y-10478547D02*
X-856818Y-10459500D01*
X-856818Y-10459500D02*
X-847294Y-10449976D01*
X-847294Y-10449976D02*
X-828247Y-10440452D01*
X-828247Y-10440452D02*
X-790151Y-10440452D01*
X-790151Y-10440452D02*
X-771104Y-10449976D01*
X-771104Y-10449976D02*
X-761580Y-10459500D01*
X-761580Y-10459500D02*
X-752056Y-10478547D01*
X-752056Y-10478547D02*
X-752056Y-10488071D01*
X-752056Y-10488071D02*
X-761580Y-10507119D01*
X-761580Y-10507119D02*
X-771104Y-10516642D01*
X-771104Y-10516642D02*
X-790151Y-10526166D01*
X-790151Y-10526166D02*
X-828247Y-10526166D01*
X-828247Y-10526166D02*
X-847294Y-10535690D01*
X-847294Y-10535690D02*
X-856818Y-10545214D01*
X-856818Y-10545214D02*
X-866342Y-10564262D01*
X-866342Y-10564262D02*
X-866342Y-10602357D01*
X-866342Y-10602357D02*
X-856818Y-10621404D01*
X-856818Y-10621404D02*
X-847294Y-10630928D01*
X-847294Y-10630928D02*
X-828247Y-10640452D01*
X-828247Y-10640452D02*
X-790151Y-10640452D01*
X-790151Y-10640452D02*
X-771104Y-10630928D01*
X-771104Y-10630928D02*
X-761580Y-10621404D01*
X-761580Y-10621404D02*
X-752056Y-10602357D01*
X-752056Y-10602357D02*
X-752056Y-10564262D01*
X-752056Y-10564262D02*
X-761580Y-10545214D01*
X-761580Y-10545214D02*
X-771104Y-10535690D01*
X-771104Y-10535690D02*
X-790151Y-10526166D01*
X-675866Y-10440452D02*
X-675866Y-10478547D01*
X-599675Y-10440452D02*
X-599675Y-10478547D01*
X-304437Y-10716642D02*
X-313961Y-10707119D01*
X-313961Y-10707119D02*
X-333009Y-10678547D01*
X-333009Y-10678547D02*
X-342532Y-10659500D01*
X-342532Y-10659500D02*
X-352056Y-10630928D01*
X-352056Y-10630928D02*
X-361580Y-10583309D01*
X-361580Y-10583309D02*
X-361580Y-10545214D01*
X-361580Y-10545214D02*
X-352056Y-10497595D01*
X-352056Y-10497595D02*
X-342532Y-10469023D01*
X-342532Y-10469023D02*
X-333009Y-10449976D01*
X-333009Y-10449976D02*
X-313961Y-10421404D01*
X-313961Y-10421404D02*
X-304437Y-10411881D01*
X-123485Y-10640452D02*
X-237770Y-10640452D01*
X-180628Y-10640452D02*
X-180628Y-10440452D01*
X-180628Y-10440452D02*
X-199675Y-10469023D01*
X-199675Y-10469023D02*
X-218723Y-10488071D01*
X-218723Y-10488071D02*
X-237770Y-10497595D01*
X325Y-10440452D02*
X19372Y-10440452D01*
X19372Y-10440452D02*
X38420Y-10449976D01*
X38420Y-10449976D02*
X47944Y-10459500D01*
X47944Y-10459500D02*
X57468Y-10478547D01*
X57468Y-10478547D02*
X66991Y-10516642D01*
X66991Y-10516642D02*
X66991Y-10564262D01*
X66991Y-10564262D02*
X57468Y-10602357D01*
X57468Y-10602357D02*
X47944Y-10621404D01*
X47944Y-10621404D02*
X38420Y-10630928D01*
X38420Y-10630928D02*
X19372Y-10640452D01*
X19372Y-10640452D02*
X325Y-10640452D01*
X325Y-10640452D02*
X-18723Y-10630928D01*
X-18723Y-10630928D02*
X-28247Y-10621404D01*
X-28247Y-10621404D02*
X-37770Y-10602357D01*
X-37770Y-10602357D02*
X-47294Y-10564262D01*
X-47294Y-10564262D02*
X-47294Y-10516642D01*
X-47294Y-10516642D02*
X-37770Y-10478547D01*
X-37770Y-10478547D02*
X-28247Y-10459500D01*
X-28247Y-10459500D02*
X-18723Y-10449976D01*
X-18723Y-10449976D02*
X325Y-10440452D01*
X305087Y-10640452D02*
X305087Y-10440452D01*
X390801Y-10640452D02*
X390801Y-10535690D01*
X390801Y-10535690D02*
X381277Y-10516642D01*
X381277Y-10516642D02*
X362230Y-10507119D01*
X362230Y-10507119D02*
X333658Y-10507119D01*
X333658Y-10507119D02*
X314611Y-10516642D01*
X314611Y-10516642D02*
X305087Y-10526166D01*
X514610Y-10640452D02*
X495563Y-10630928D01*
X495563Y-10630928D02*
X486039Y-10621404D01*
X486039Y-10621404D02*
X476515Y-10602357D01*
X476515Y-10602357D02*
X476515Y-10545214D01*
X476515Y-10545214D02*
X486039Y-10526166D01*
X486039Y-10526166D02*
X495563Y-10516642D01*
X495563Y-10516642D02*
X514610Y-10507119D01*
X514610Y-10507119D02*
X543182Y-10507119D01*
X543182Y-10507119D02*
X562230Y-10516642D01*
X562230Y-10516642D02*
X571753Y-10526166D01*
X571753Y-10526166D02*
X581277Y-10545214D01*
X581277Y-10545214D02*
X581277Y-10602357D01*
X581277Y-10602357D02*
X571753Y-10621404D01*
X571753Y-10621404D02*
X562230Y-10630928D01*
X562230Y-10630928D02*
X543182Y-10640452D01*
X543182Y-10640452D02*
X514610Y-10640452D01*
X695563Y-10640452D02*
X676515Y-10630928D01*
X676515Y-10630928D02*
X666992Y-10611881D01*
X666992Y-10611881D02*
X666992Y-10440452D01*
X847944Y-10630928D02*
X828896Y-10640452D01*
X828896Y-10640452D02*
X790801Y-10640452D01*
X790801Y-10640452D02*
X771753Y-10630928D01*
X771753Y-10630928D02*
X762230Y-10611881D01*
X762230Y-10611881D02*
X762230Y-10535690D01*
X762230Y-10535690D02*
X771753Y-10516642D01*
X771753Y-10516642D02*
X790801Y-10507119D01*
X790801Y-10507119D02*
X828896Y-10507119D01*
X828896Y-10507119D02*
X847944Y-10516642D01*
X847944Y-10516642D02*
X857468Y-10535690D01*
X857468Y-10535690D02*
X857468Y-10554738D01*
X857468Y-10554738D02*
X762230Y-10573785D01*
X933658Y-10630928D02*
X952706Y-10640452D01*
X952706Y-10640452D02*
X990801Y-10640452D01*
X990801Y-10640452D02*
X1009849Y-10630928D01*
X1009849Y-10630928D02*
X1019372Y-10611881D01*
X1019372Y-10611881D02*
X1019372Y-10602357D01*
X1019372Y-10602357D02*
X1009849Y-10583309D01*
X1009849Y-10583309D02*
X990801Y-10573785D01*
X990801Y-10573785D02*
X962230Y-10573785D01*
X962230Y-10573785D02*
X943182Y-10564262D01*
X943182Y-10564262D02*
X933658Y-10545214D01*
X933658Y-10545214D02*
X933658Y-10535690D01*
X933658Y-10535690D02*
X943182Y-10516642D01*
X943182Y-10516642D02*
X962230Y-10507119D01*
X962230Y-10507119D02*
X990801Y-10507119D01*
X990801Y-10507119D02*
X1009849Y-10516642D01*
X1086039Y-10716642D02*
X1095563Y-10707119D01*
X1095563Y-10707119D02*
X1114611Y-10678547D01*
X1114611Y-10678547D02*
X1124134Y-10659500D01*
X1124134Y-10659500D02*
X1133658Y-10630928D01*
X1133658Y-10630928D02*
X1143182Y-10583309D01*
X1143182Y-10583309D02*
X1143182Y-10545214D01*
X1143182Y-10545214D02*
X1133658Y-10497595D01*
X1133658Y-10497595D02*
X1124134Y-10469023D01*
X1124134Y-10469023D02*
X1114611Y-10449976D01*
X1114611Y-10449976D02*
X1095563Y-10421404D01*
X1095563Y-10421404D02*
X1086039Y-10411881D01*
D12*
X-3927000Y-10765468D02*
X-3927000Y-10860468D01*
X-3974500Y-10812968D02*
X-3879500Y-10812968D01*
D11*
X-3580628Y-10704452D02*
X-3561580Y-10704452D01*
X-3561580Y-10704452D02*
X-3542533Y-10713976D01*
X-3542533Y-10713976D02*
X-3533009Y-10723500D01*
X-3533009Y-10723500D02*
X-3523485Y-10742547D01*
X-3523485Y-10742547D02*
X-3513961Y-10780642D01*
X-3513961Y-10780642D02*
X-3513961Y-10828262D01*
X-3513961Y-10828262D02*
X-3523485Y-10866357D01*
X-3523485Y-10866357D02*
X-3533009Y-10885404D01*
X-3533009Y-10885404D02*
X-3542533Y-10894928D01*
X-3542533Y-10894928D02*
X-3561580Y-10904452D01*
X-3561580Y-10904452D02*
X-3580628Y-10904452D01*
X-3580628Y-10904452D02*
X-3599675Y-10894928D01*
X-3599675Y-10894928D02*
X-3609199Y-10885404D01*
X-3609199Y-10885404D02*
X-3618723Y-10866357D01*
X-3618723Y-10866357D02*
X-3628247Y-10828262D01*
X-3628247Y-10828262D02*
X-3628247Y-10780642D01*
X-3628247Y-10780642D02*
X-3618723Y-10742547D01*
X-3618723Y-10742547D02*
X-3609199Y-10723500D01*
X-3609199Y-10723500D02*
X-3599675Y-10713976D01*
X-3599675Y-10713976D02*
X-3580628Y-10704452D01*
X-3428247Y-10885404D02*
X-3418723Y-10894928D01*
X-3418723Y-10894928D02*
X-3428247Y-10904452D01*
X-3428247Y-10904452D02*
X-3437771Y-10894928D01*
X-3437771Y-10894928D02*
X-3428247Y-10885404D01*
X-3428247Y-10885404D02*
X-3428247Y-10904452D01*
X-3323485Y-10904452D02*
X-3285390Y-10904452D01*
X-3285390Y-10904452D02*
X-3266342Y-10894928D01*
X-3266342Y-10894928D02*
X-3256818Y-10885404D01*
X-3256818Y-10885404D02*
X-3237771Y-10856833D01*
X-3237771Y-10856833D02*
X-3228247Y-10818738D01*
X-3228247Y-10818738D02*
X-3228247Y-10742547D01*
X-3228247Y-10742547D02*
X-3237771Y-10723500D01*
X-3237771Y-10723500D02*
X-3247294Y-10713976D01*
X-3247294Y-10713976D02*
X-3266342Y-10704452D01*
X-3266342Y-10704452D02*
X-3304437Y-10704452D01*
X-3304437Y-10704452D02*
X-3323485Y-10713976D01*
X-3323485Y-10713976D02*
X-3333009Y-10723500D01*
X-3333009Y-10723500D02*
X-3342533Y-10742547D01*
X-3342533Y-10742547D02*
X-3342533Y-10790166D01*
X-3342533Y-10790166D02*
X-3333009Y-10809214D01*
X-3333009Y-10809214D02*
X-3323485Y-10818738D01*
X-3323485Y-10818738D02*
X-3304437Y-10828262D01*
X-3304437Y-10828262D02*
X-3266342Y-10828262D01*
X-3266342Y-10828262D02*
X-3247294Y-10818738D01*
X-3247294Y-10818738D02*
X-3237771Y-10809214D01*
X-3237771Y-10809214D02*
X-3228247Y-10790166D01*
X-3047294Y-10704452D02*
X-3142533Y-10704452D01*
X-3142533Y-10704452D02*
X-3152056Y-10799690D01*
X-3152056Y-10799690D02*
X-3142533Y-10790166D01*
X-3142533Y-10790166D02*
X-3123485Y-10780642D01*
X-3123485Y-10780642D02*
X-3075866Y-10780642D01*
X-3075866Y-10780642D02*
X-3056818Y-10790166D01*
X-3056818Y-10790166D02*
X-3047294Y-10799690D01*
X-3047294Y-10799690D02*
X-3037771Y-10818738D01*
X-3037771Y-10818738D02*
X-3037771Y-10866357D01*
X-3037771Y-10866357D02*
X-3047294Y-10885404D01*
X-3047294Y-10885404D02*
X-3056818Y-10894928D01*
X-3056818Y-10894928D02*
X-3075866Y-10904452D01*
X-3075866Y-10904452D02*
X-3123485Y-10904452D01*
X-3123485Y-10904452D02*
X-3142533Y-10894928D01*
X-3142533Y-10894928D02*
X-3152056Y-10885404D01*
X-2913961Y-10704452D02*
X-2894913Y-10704452D01*
X-2894913Y-10704452D02*
X-2875866Y-10713976D01*
X-2875866Y-10713976D02*
X-2866342Y-10723500D01*
X-2866342Y-10723500D02*
X-2856818Y-10742547D01*
X-2856818Y-10742547D02*
X-2847294Y-10780642D01*
X-2847294Y-10780642D02*
X-2847294Y-10828262D01*
X-2847294Y-10828262D02*
X-2856818Y-10866357D01*
X-2856818Y-10866357D02*
X-2866342Y-10885404D01*
X-2866342Y-10885404D02*
X-2875866Y-10894928D01*
X-2875866Y-10894928D02*
X-2894913Y-10904452D01*
X-2894913Y-10904452D02*
X-2913961Y-10904452D01*
X-2913961Y-10904452D02*
X-2933009Y-10894928D01*
X-2933009Y-10894928D02*
X-2942533Y-10885404D01*
X-2942533Y-10885404D02*
X-2952056Y-10866357D01*
X-2952056Y-10866357D02*
X-2961580Y-10828262D01*
X-2961580Y-10828262D02*
X-2961580Y-10780642D01*
X-2961580Y-10780642D02*
X-2952056Y-10742547D01*
X-2952056Y-10742547D02*
X-2942533Y-10723500D01*
X-2942533Y-10723500D02*
X-2933009Y-10713976D01*
X-2933009Y-10713976D02*
X-2913961Y-10704452D01*
X-2761580Y-10904452D02*
X-2761580Y-10771119D01*
X-2761580Y-10790166D02*
X-2752056Y-10780642D01*
X-2752056Y-10780642D02*
X-2733009Y-10771119D01*
X-2733009Y-10771119D02*
X-2704437Y-10771119D01*
X-2704437Y-10771119D02*
X-2685390Y-10780642D01*
X-2685390Y-10780642D02*
X-2675866Y-10799690D01*
X-2675866Y-10799690D02*
X-2675866Y-10904452D01*
X-2675866Y-10799690D02*
X-2666342Y-10780642D01*
X-2666342Y-10780642D02*
X-2647295Y-10771119D01*
X-2647295Y-10771119D02*
X-2618723Y-10771119D01*
X-2618723Y-10771119D02*
X-2599675Y-10780642D01*
X-2599675Y-10780642D02*
X-2590152Y-10799690D01*
X-2590152Y-10799690D02*
X-2590152Y-10904452D01*
X-2494914Y-10904452D02*
X-2494914Y-10771119D01*
X-2494914Y-10790166D02*
X-2485390Y-10780642D01*
X-2485390Y-10780642D02*
X-2466342Y-10771119D01*
X-2466342Y-10771119D02*
X-2437771Y-10771119D01*
X-2437771Y-10771119D02*
X-2418723Y-10780642D01*
X-2418723Y-10780642D02*
X-2409199Y-10799690D01*
X-2409199Y-10799690D02*
X-2409199Y-10904452D01*
X-2409199Y-10799690D02*
X-2399675Y-10780642D01*
X-2399675Y-10780642D02*
X-2380628Y-10771119D01*
X-2380628Y-10771119D02*
X-2352056Y-10771119D01*
X-2352056Y-10771119D02*
X-2333009Y-10780642D01*
X-2333009Y-10780642D02*
X-2323485Y-10799690D01*
X-2323485Y-10799690D02*
X-2323485Y-10904452D01*
X-1933009Y-10694928D02*
X-2104437Y-10952071D01*
X-1675866Y-10704452D02*
X-1656818Y-10704452D01*
X-1656818Y-10704452D02*
X-1637770Y-10713976D01*
X-1637770Y-10713976D02*
X-1628247Y-10723500D01*
X-1628247Y-10723500D02*
X-1618723Y-10742547D01*
X-1618723Y-10742547D02*
X-1609199Y-10780642D01*
X-1609199Y-10780642D02*
X-1609199Y-10828262D01*
X-1609199Y-10828262D02*
X-1618723Y-10866357D01*
X-1618723Y-10866357D02*
X-1628247Y-10885404D01*
X-1628247Y-10885404D02*
X-1637770Y-10894928D01*
X-1637770Y-10894928D02*
X-1656818Y-10904452D01*
X-1656818Y-10904452D02*
X-1675866Y-10904452D01*
X-1675866Y-10904452D02*
X-1694913Y-10894928D01*
X-1694913Y-10894928D02*
X-1704437Y-10885404D01*
X-1704437Y-10885404D02*
X-1713961Y-10866357D01*
X-1713961Y-10866357D02*
X-1723485Y-10828262D01*
X-1723485Y-10828262D02*
X-1723485Y-10780642D01*
X-1723485Y-10780642D02*
X-1713961Y-10742547D01*
X-1713961Y-10742547D02*
X-1704437Y-10723500D01*
X-1704437Y-10723500D02*
X-1694913Y-10713976D01*
X-1694913Y-10713976D02*
X-1675866Y-10704452D01*
X-1523485Y-10885404D02*
X-1513961Y-10894928D01*
X-1513961Y-10894928D02*
X-1523485Y-10904452D01*
X-1523485Y-10904452D02*
X-1533009Y-10894928D01*
X-1533009Y-10894928D02*
X-1523485Y-10885404D01*
X-1523485Y-10885404D02*
X-1523485Y-10904452D01*
X-1390152Y-10704452D02*
X-1371104Y-10704452D01*
X-1371104Y-10704452D02*
X-1352056Y-10713976D01*
X-1352056Y-10713976D02*
X-1342532Y-10723500D01*
X-1342532Y-10723500D02*
X-1333009Y-10742547D01*
X-1333009Y-10742547D02*
X-1323485Y-10780642D01*
X-1323485Y-10780642D02*
X-1323485Y-10828262D01*
X-1323485Y-10828262D02*
X-1333009Y-10866357D01*
X-1333009Y-10866357D02*
X-1342532Y-10885404D01*
X-1342532Y-10885404D02*
X-1352056Y-10894928D01*
X-1352056Y-10894928D02*
X-1371104Y-10904452D01*
X-1371104Y-10904452D02*
X-1390152Y-10904452D01*
X-1390152Y-10904452D02*
X-1409199Y-10894928D01*
X-1409199Y-10894928D02*
X-1418723Y-10885404D01*
X-1418723Y-10885404D02*
X-1428247Y-10866357D01*
X-1428247Y-10866357D02*
X-1437770Y-10828262D01*
X-1437770Y-10828262D02*
X-1437770Y-10780642D01*
X-1437770Y-10780642D02*
X-1428247Y-10742547D01*
X-1428247Y-10742547D02*
X-1418723Y-10723500D01*
X-1418723Y-10723500D02*
X-1409199Y-10713976D01*
X-1409199Y-10713976D02*
X-1390152Y-10704452D01*
X-1256818Y-10704452D02*
X-1133009Y-10704452D01*
X-1133009Y-10704452D02*
X-1199675Y-10780642D01*
X-1199675Y-10780642D02*
X-1171104Y-10780642D01*
X-1171104Y-10780642D02*
X-1152056Y-10790166D01*
X-1152056Y-10790166D02*
X-1142532Y-10799690D01*
X-1142532Y-10799690D02*
X-1133009Y-10818738D01*
X-1133009Y-10818738D02*
X-1133009Y-10866357D01*
X-1133009Y-10866357D02*
X-1142532Y-10885404D01*
X-1142532Y-10885404D02*
X-1152056Y-10894928D01*
X-1152056Y-10894928D02*
X-1171104Y-10904452D01*
X-1171104Y-10904452D02*
X-1228247Y-10904452D01*
X-1228247Y-10904452D02*
X-1247294Y-10894928D01*
X-1247294Y-10894928D02*
X-1256818Y-10885404D01*
X-1066342Y-10704452D02*
X-933009Y-10704452D01*
X-933009Y-10704452D02*
X-1018723Y-10904452D01*
X-771104Y-10771119D02*
X-771104Y-10904452D01*
X-818723Y-10694928D02*
X-866342Y-10837785D01*
X-866342Y-10837785D02*
X-742532Y-10837785D01*
X-675866Y-10704452D02*
X-675866Y-10742547D01*
X-599675Y-10704452D02*
X-599675Y-10742547D01*
X-304437Y-10980642D02*
X-313961Y-10971119D01*
X-313961Y-10971119D02*
X-333009Y-10942547D01*
X-333009Y-10942547D02*
X-342532Y-10923500D01*
X-342532Y-10923500D02*
X-352056Y-10894928D01*
X-352056Y-10894928D02*
X-361580Y-10847309D01*
X-361580Y-10847309D02*
X-361580Y-10809214D01*
X-361580Y-10809214D02*
X-352056Y-10761595D01*
X-352056Y-10761595D02*
X-342532Y-10733023D01*
X-342532Y-10733023D02*
X-333009Y-10713976D01*
X-333009Y-10713976D02*
X-313961Y-10685404D01*
X-313961Y-10685404D02*
X-304437Y-10675881D01*
X-142532Y-10771119D02*
X-142532Y-10904452D01*
X-190151Y-10694928D02*
X-237770Y-10837785D01*
X-237770Y-10837785D02*
X-113961Y-10837785D01*
X114610Y-10904452D02*
X114610Y-10704452D01*
X200325Y-10904452D02*
X200325Y-10799690D01*
X200325Y-10799690D02*
X190801Y-10780642D01*
X190801Y-10780642D02*
X171753Y-10771119D01*
X171753Y-10771119D02*
X143182Y-10771119D01*
X143182Y-10771119D02*
X124134Y-10780642D01*
X124134Y-10780642D02*
X114610Y-10790166D01*
X324134Y-10904452D02*
X305087Y-10894928D01*
X305087Y-10894928D02*
X295563Y-10885404D01*
X295563Y-10885404D02*
X286039Y-10866357D01*
X286039Y-10866357D02*
X286039Y-10809214D01*
X286039Y-10809214D02*
X295563Y-10790166D01*
X295563Y-10790166D02*
X305087Y-10780642D01*
X305087Y-10780642D02*
X324134Y-10771119D01*
X324134Y-10771119D02*
X352706Y-10771119D01*
X352706Y-10771119D02*
X371753Y-10780642D01*
X371753Y-10780642D02*
X381277Y-10790166D01*
X381277Y-10790166D02*
X390801Y-10809214D01*
X390801Y-10809214D02*
X390801Y-10866357D01*
X390801Y-10866357D02*
X381277Y-10885404D01*
X381277Y-10885404D02*
X371753Y-10894928D01*
X371753Y-10894928D02*
X352706Y-10904452D01*
X352706Y-10904452D02*
X324134Y-10904452D01*
X505087Y-10904452D02*
X486039Y-10894928D01*
X486039Y-10894928D02*
X476515Y-10875881D01*
X476515Y-10875881D02*
X476515Y-10704452D01*
X657468Y-10894928D02*
X638420Y-10904452D01*
X638420Y-10904452D02*
X600325Y-10904452D01*
X600325Y-10904452D02*
X581277Y-10894928D01*
X581277Y-10894928D02*
X571753Y-10875881D01*
X571753Y-10875881D02*
X571753Y-10799690D01*
X571753Y-10799690D02*
X581277Y-10780642D01*
X581277Y-10780642D02*
X600325Y-10771119D01*
X600325Y-10771119D02*
X638420Y-10771119D01*
X638420Y-10771119D02*
X657468Y-10780642D01*
X657468Y-10780642D02*
X666992Y-10799690D01*
X666992Y-10799690D02*
X666992Y-10818738D01*
X666992Y-10818738D02*
X571753Y-10837785D01*
X743182Y-10894928D02*
X762230Y-10904452D01*
X762230Y-10904452D02*
X800325Y-10904452D01*
X800325Y-10904452D02*
X819372Y-10894928D01*
X819372Y-10894928D02*
X828896Y-10875881D01*
X828896Y-10875881D02*
X828896Y-10866357D01*
X828896Y-10866357D02*
X819372Y-10847309D01*
X819372Y-10847309D02*
X800325Y-10837785D01*
X800325Y-10837785D02*
X771753Y-10837785D01*
X771753Y-10837785D02*
X752706Y-10828262D01*
X752706Y-10828262D02*
X743182Y-10809214D01*
X743182Y-10809214D02*
X743182Y-10799690D01*
X743182Y-10799690D02*
X752706Y-10780642D01*
X752706Y-10780642D02*
X771753Y-10771119D01*
X771753Y-10771119D02*
X800325Y-10771119D01*
X800325Y-10771119D02*
X819372Y-10780642D01*
X895563Y-10980642D02*
X905087Y-10971119D01*
X905087Y-10971119D02*
X924134Y-10942547D01*
X924134Y-10942547D02*
X933658Y-10923500D01*
X933658Y-10923500D02*
X943182Y-10894928D01*
X943182Y-10894928D02*
X952706Y-10847309D01*
X952706Y-10847309D02*
X952706Y-10809214D01*
X952706Y-10809214D02*
X943182Y-10761595D01*
X943182Y-10761595D02*
X933658Y-10733023D01*
X933658Y-10733023D02*
X924134Y-10713976D01*
X924134Y-10713976D02*
X905087Y-10685404D01*
X905087Y-10685404D02*
X895563Y-10675881D01*
D12*
X-3894144Y-11112324D02*
X-3894144Y-11041613D01*
X-3964856Y-11041613D01*
X-3964856Y-11112324D01*
X-3894144Y-11112324D01*
D11*
X-3513961Y-11168452D02*
X-3628247Y-11168452D01*
X-3571104Y-11168452D02*
X-3571104Y-10968452D01*
X-3571104Y-10968452D02*
X-3590152Y-10997023D01*
X-3590152Y-10997023D02*
X-3609199Y-11016071D01*
X-3609199Y-11016071D02*
X-3628247Y-11025595D01*
X-3428247Y-11149404D02*
X-3418723Y-11158928D01*
X-3418723Y-11158928D02*
X-3428247Y-11168452D01*
X-3428247Y-11168452D02*
X-3437771Y-11158928D01*
X-3437771Y-11158928D02*
X-3428247Y-11149404D01*
X-3428247Y-11149404D02*
X-3428247Y-11168452D01*
X-3294914Y-10968452D02*
X-3275866Y-10968452D01*
X-3275866Y-10968452D02*
X-3256818Y-10977976D01*
X-3256818Y-10977976D02*
X-3247294Y-10987500D01*
X-3247294Y-10987500D02*
X-3237771Y-11006547D01*
X-3237771Y-11006547D02*
X-3228247Y-11044642D01*
X-3228247Y-11044642D02*
X-3228247Y-11092262D01*
X-3228247Y-11092262D02*
X-3237771Y-11130357D01*
X-3237771Y-11130357D02*
X-3247294Y-11149404D01*
X-3247294Y-11149404D02*
X-3256818Y-11158928D01*
X-3256818Y-11158928D02*
X-3275866Y-11168452D01*
X-3275866Y-11168452D02*
X-3294914Y-11168452D01*
X-3294914Y-11168452D02*
X-3313961Y-11158928D01*
X-3313961Y-11158928D02*
X-3323485Y-11149404D01*
X-3323485Y-11149404D02*
X-3333009Y-11130357D01*
X-3333009Y-11130357D02*
X-3342533Y-11092262D01*
X-3342533Y-11092262D02*
X-3342533Y-11044642D01*
X-3342533Y-11044642D02*
X-3333009Y-11006547D01*
X-3333009Y-11006547D02*
X-3323485Y-10987500D01*
X-3323485Y-10987500D02*
X-3313961Y-10977976D01*
X-3313961Y-10977976D02*
X-3294914Y-10968452D01*
X-3104437Y-10968452D02*
X-3085390Y-10968452D01*
X-3085390Y-10968452D02*
X-3066342Y-10977976D01*
X-3066342Y-10977976D02*
X-3056818Y-10987500D01*
X-3056818Y-10987500D02*
X-3047294Y-11006547D01*
X-3047294Y-11006547D02*
X-3037771Y-11044642D01*
X-3037771Y-11044642D02*
X-3037771Y-11092262D01*
X-3037771Y-11092262D02*
X-3047294Y-11130357D01*
X-3047294Y-11130357D02*
X-3056818Y-11149404D01*
X-3056818Y-11149404D02*
X-3066342Y-11158928D01*
X-3066342Y-11158928D02*
X-3085390Y-11168452D01*
X-3085390Y-11168452D02*
X-3104437Y-11168452D01*
X-3104437Y-11168452D02*
X-3123485Y-11158928D01*
X-3123485Y-11158928D02*
X-3133009Y-11149404D01*
X-3133009Y-11149404D02*
X-3142533Y-11130357D01*
X-3142533Y-11130357D02*
X-3152056Y-11092262D01*
X-3152056Y-11092262D02*
X-3152056Y-11044642D01*
X-3152056Y-11044642D02*
X-3142533Y-11006547D01*
X-3142533Y-11006547D02*
X-3133009Y-10987500D01*
X-3133009Y-10987500D02*
X-3123485Y-10977976D01*
X-3123485Y-10977976D02*
X-3104437Y-10968452D01*
X-2913961Y-10968452D02*
X-2894913Y-10968452D01*
X-2894913Y-10968452D02*
X-2875866Y-10977976D01*
X-2875866Y-10977976D02*
X-2866342Y-10987500D01*
X-2866342Y-10987500D02*
X-2856818Y-11006547D01*
X-2856818Y-11006547D02*
X-2847294Y-11044642D01*
X-2847294Y-11044642D02*
X-2847294Y-11092262D01*
X-2847294Y-11092262D02*
X-2856818Y-11130357D01*
X-2856818Y-11130357D02*
X-2866342Y-11149404D01*
X-2866342Y-11149404D02*
X-2875866Y-11158928D01*
X-2875866Y-11158928D02*
X-2894913Y-11168452D01*
X-2894913Y-11168452D02*
X-2913961Y-11168452D01*
X-2913961Y-11168452D02*
X-2933009Y-11158928D01*
X-2933009Y-11158928D02*
X-2942533Y-11149404D01*
X-2942533Y-11149404D02*
X-2952056Y-11130357D01*
X-2952056Y-11130357D02*
X-2961580Y-11092262D01*
X-2961580Y-11092262D02*
X-2961580Y-11044642D01*
X-2961580Y-11044642D02*
X-2952056Y-11006547D01*
X-2952056Y-11006547D02*
X-2942533Y-10987500D01*
X-2942533Y-10987500D02*
X-2933009Y-10977976D01*
X-2933009Y-10977976D02*
X-2913961Y-10968452D01*
X-2761580Y-11168452D02*
X-2761580Y-11035119D01*
X-2761580Y-11054166D02*
X-2752056Y-11044642D01*
X-2752056Y-11044642D02*
X-2733009Y-11035119D01*
X-2733009Y-11035119D02*
X-2704437Y-11035119D01*
X-2704437Y-11035119D02*
X-2685390Y-11044642D01*
X-2685390Y-11044642D02*
X-2675866Y-11063690D01*
X-2675866Y-11063690D02*
X-2675866Y-11168452D01*
X-2675866Y-11063690D02*
X-2666342Y-11044642D01*
X-2666342Y-11044642D02*
X-2647295Y-11035119D01*
X-2647295Y-11035119D02*
X-2618723Y-11035119D01*
X-2618723Y-11035119D02*
X-2599675Y-11044642D01*
X-2599675Y-11044642D02*
X-2590152Y-11063690D01*
X-2590152Y-11063690D02*
X-2590152Y-11168452D01*
X-2494914Y-11168452D02*
X-2494914Y-11035119D01*
X-2494914Y-11054166D02*
X-2485390Y-11044642D01*
X-2485390Y-11044642D02*
X-2466342Y-11035119D01*
X-2466342Y-11035119D02*
X-2437771Y-11035119D01*
X-2437771Y-11035119D02*
X-2418723Y-11044642D01*
X-2418723Y-11044642D02*
X-2409199Y-11063690D01*
X-2409199Y-11063690D02*
X-2409199Y-11168452D01*
X-2409199Y-11063690D02*
X-2399675Y-11044642D01*
X-2399675Y-11044642D02*
X-2380628Y-11035119D01*
X-2380628Y-11035119D02*
X-2352056Y-11035119D01*
X-2352056Y-11035119D02*
X-2333009Y-11044642D01*
X-2333009Y-11044642D02*
X-2323485Y-11063690D01*
X-2323485Y-11063690D02*
X-2323485Y-11168452D01*
X-1933009Y-10958928D02*
X-2104437Y-11216071D01*
X-1675866Y-10968452D02*
X-1656818Y-10968452D01*
X-1656818Y-10968452D02*
X-1637770Y-10977976D01*
X-1637770Y-10977976D02*
X-1628247Y-10987500D01*
X-1628247Y-10987500D02*
X-1618723Y-11006547D01*
X-1618723Y-11006547D02*
X-1609199Y-11044642D01*
X-1609199Y-11044642D02*
X-1609199Y-11092262D01*
X-1609199Y-11092262D02*
X-1618723Y-11130357D01*
X-1618723Y-11130357D02*
X-1628247Y-11149404D01*
X-1628247Y-11149404D02*
X-1637770Y-11158928D01*
X-1637770Y-11158928D02*
X-1656818Y-11168452D01*
X-1656818Y-11168452D02*
X-1675866Y-11168452D01*
X-1675866Y-11168452D02*
X-1694913Y-11158928D01*
X-1694913Y-11158928D02*
X-1704437Y-11149404D01*
X-1704437Y-11149404D02*
X-1713961Y-11130357D01*
X-1713961Y-11130357D02*
X-1723485Y-11092262D01*
X-1723485Y-11092262D02*
X-1723485Y-11044642D01*
X-1723485Y-11044642D02*
X-1713961Y-11006547D01*
X-1713961Y-11006547D02*
X-1704437Y-10987500D01*
X-1704437Y-10987500D02*
X-1694913Y-10977976D01*
X-1694913Y-10977976D02*
X-1675866Y-10968452D01*
X-1523485Y-11149404D02*
X-1513961Y-11158928D01*
X-1513961Y-11158928D02*
X-1523485Y-11168452D01*
X-1523485Y-11168452D02*
X-1533009Y-11158928D01*
X-1533009Y-11158928D02*
X-1523485Y-11149404D01*
X-1523485Y-11149404D02*
X-1523485Y-11168452D01*
X-1390152Y-10968452D02*
X-1371104Y-10968452D01*
X-1371104Y-10968452D02*
X-1352056Y-10977976D01*
X-1352056Y-10977976D02*
X-1342532Y-10987500D01*
X-1342532Y-10987500D02*
X-1333009Y-11006547D01*
X-1333009Y-11006547D02*
X-1323485Y-11044642D01*
X-1323485Y-11044642D02*
X-1323485Y-11092262D01*
X-1323485Y-11092262D02*
X-1333009Y-11130357D01*
X-1333009Y-11130357D02*
X-1342532Y-11149404D01*
X-1342532Y-11149404D02*
X-1352056Y-11158928D01*
X-1352056Y-11158928D02*
X-1371104Y-11168452D01*
X-1371104Y-11168452D02*
X-1390152Y-11168452D01*
X-1390152Y-11168452D02*
X-1409199Y-11158928D01*
X-1409199Y-11158928D02*
X-1418723Y-11149404D01*
X-1418723Y-11149404D02*
X-1428247Y-11130357D01*
X-1428247Y-11130357D02*
X-1437770Y-11092262D01*
X-1437770Y-11092262D02*
X-1437770Y-11044642D01*
X-1437770Y-11044642D02*
X-1428247Y-11006547D01*
X-1428247Y-11006547D02*
X-1418723Y-10987500D01*
X-1418723Y-10987500D02*
X-1409199Y-10977976D01*
X-1409199Y-10977976D02*
X-1390152Y-10968452D01*
X-1256818Y-10968452D02*
X-1133009Y-10968452D01*
X-1133009Y-10968452D02*
X-1199675Y-11044642D01*
X-1199675Y-11044642D02*
X-1171104Y-11044642D01*
X-1171104Y-11044642D02*
X-1152056Y-11054166D01*
X-1152056Y-11054166D02*
X-1142532Y-11063690D01*
X-1142532Y-11063690D02*
X-1133009Y-11082738D01*
X-1133009Y-11082738D02*
X-1133009Y-11130357D01*
X-1133009Y-11130357D02*
X-1142532Y-11149404D01*
X-1142532Y-11149404D02*
X-1152056Y-11158928D01*
X-1152056Y-11158928D02*
X-1171104Y-11168452D01*
X-1171104Y-11168452D02*
X-1228247Y-11168452D01*
X-1228247Y-11168452D02*
X-1247294Y-11158928D01*
X-1247294Y-11158928D02*
X-1256818Y-11149404D01*
X-1037770Y-11168452D02*
X-999675Y-11168452D01*
X-999675Y-11168452D02*
X-980628Y-11158928D01*
X-980628Y-11158928D02*
X-971104Y-11149404D01*
X-971104Y-11149404D02*
X-952056Y-11120833D01*
X-952056Y-11120833D02*
X-942532Y-11082738D01*
X-942532Y-11082738D02*
X-942532Y-11006547D01*
X-942532Y-11006547D02*
X-952056Y-10987500D01*
X-952056Y-10987500D02*
X-961580Y-10977976D01*
X-961580Y-10977976D02*
X-980628Y-10968452D01*
X-980628Y-10968452D02*
X-1018723Y-10968452D01*
X-1018723Y-10968452D02*
X-1037770Y-10977976D01*
X-1037770Y-10977976D02*
X-1047294Y-10987500D01*
X-1047294Y-10987500D02*
X-1056818Y-11006547D01*
X-1056818Y-11006547D02*
X-1056818Y-11054166D01*
X-1056818Y-11054166D02*
X-1047294Y-11073214D01*
X-1047294Y-11073214D02*
X-1037770Y-11082738D01*
X-1037770Y-11082738D02*
X-1018723Y-11092262D01*
X-1018723Y-11092262D02*
X-980628Y-11092262D01*
X-980628Y-11092262D02*
X-961580Y-11082738D01*
X-961580Y-11082738D02*
X-952056Y-11073214D01*
X-952056Y-11073214D02*
X-942532Y-11054166D01*
X-771104Y-11035119D02*
X-771104Y-11168452D01*
X-818723Y-10958928D02*
X-866342Y-11101785D01*
X-866342Y-11101785D02*
X-742532Y-11101785D01*
X-675866Y-10968452D02*
X-675866Y-11006547D01*
X-599675Y-10968452D02*
X-599675Y-11006547D01*
X-304437Y-11244642D02*
X-313961Y-11235119D01*
X-313961Y-11235119D02*
X-333009Y-11206547D01*
X-333009Y-11206547D02*
X-342532Y-11187500D01*
X-342532Y-11187500D02*
X-352056Y-11158928D01*
X-352056Y-11158928D02*
X-361580Y-11111309D01*
X-361580Y-11111309D02*
X-361580Y-11073214D01*
X-361580Y-11073214D02*
X-352056Y-11025595D01*
X-352056Y-11025595D02*
X-342532Y-10997023D01*
X-342532Y-10997023D02*
X-333009Y-10977976D01*
X-333009Y-10977976D02*
X-313961Y-10949404D01*
X-313961Y-10949404D02*
X-304437Y-10939881D01*
X-142532Y-11035119D02*
X-142532Y-11168452D01*
X-190151Y-10958928D02*
X-237770Y-11101785D01*
X-237770Y-11101785D02*
X-113961Y-11101785D01*
X114610Y-11168452D02*
X114610Y-10968452D01*
X200325Y-11168452D02*
X200325Y-11063690D01*
X200325Y-11063690D02*
X190801Y-11044642D01*
X190801Y-11044642D02*
X171753Y-11035119D01*
X171753Y-11035119D02*
X143182Y-11035119D01*
X143182Y-11035119D02*
X124134Y-11044642D01*
X124134Y-11044642D02*
X114610Y-11054166D01*
X324134Y-11168452D02*
X305087Y-11158928D01*
X305087Y-11158928D02*
X295563Y-11149404D01*
X295563Y-11149404D02*
X286039Y-11130357D01*
X286039Y-11130357D02*
X286039Y-11073214D01*
X286039Y-11073214D02*
X295563Y-11054166D01*
X295563Y-11054166D02*
X305087Y-11044642D01*
X305087Y-11044642D02*
X324134Y-11035119D01*
X324134Y-11035119D02*
X352706Y-11035119D01*
X352706Y-11035119D02*
X371753Y-11044642D01*
X371753Y-11044642D02*
X381277Y-11054166D01*
X381277Y-11054166D02*
X390801Y-11073214D01*
X390801Y-11073214D02*
X390801Y-11130357D01*
X390801Y-11130357D02*
X381277Y-11149404D01*
X381277Y-11149404D02*
X371753Y-11158928D01*
X371753Y-11158928D02*
X352706Y-11168452D01*
X352706Y-11168452D02*
X324134Y-11168452D01*
X505087Y-11168452D02*
X486039Y-11158928D01*
X486039Y-11158928D02*
X476515Y-11139881D01*
X476515Y-11139881D02*
X476515Y-10968452D01*
X657468Y-11158928D02*
X638420Y-11168452D01*
X638420Y-11168452D02*
X600325Y-11168452D01*
X600325Y-11168452D02*
X581277Y-11158928D01*
X581277Y-11158928D02*
X571753Y-11139881D01*
X571753Y-11139881D02*
X571753Y-11063690D01*
X571753Y-11063690D02*
X581277Y-11044642D01*
X581277Y-11044642D02*
X600325Y-11035119D01*
X600325Y-11035119D02*
X638420Y-11035119D01*
X638420Y-11035119D02*
X657468Y-11044642D01*
X657468Y-11044642D02*
X666992Y-11063690D01*
X666992Y-11063690D02*
X666992Y-11082738D01*
X666992Y-11082738D02*
X571753Y-11101785D01*
X743182Y-11158928D02*
X762230Y-11168452D01*
X762230Y-11168452D02*
X800325Y-11168452D01*
X800325Y-11168452D02*
X819372Y-11158928D01*
X819372Y-11158928D02*
X828896Y-11139881D01*
X828896Y-11139881D02*
X828896Y-11130357D01*
X828896Y-11130357D02*
X819372Y-11111309D01*
X819372Y-11111309D02*
X800325Y-11101785D01*
X800325Y-11101785D02*
X771753Y-11101785D01*
X771753Y-11101785D02*
X752706Y-11092262D01*
X752706Y-11092262D02*
X743182Y-11073214D01*
X743182Y-11073214D02*
X743182Y-11063690D01*
X743182Y-11063690D02*
X752706Y-11044642D01*
X752706Y-11044642D02*
X771753Y-11035119D01*
X771753Y-11035119D02*
X800325Y-11035119D01*
X800325Y-11035119D02*
X819372Y-11044642D01*
X895563Y-11244642D02*
X905087Y-11235119D01*
X905087Y-11235119D02*
X924134Y-11206547D01*
X924134Y-11206547D02*
X933658Y-11187500D01*
X933658Y-11187500D02*
X943182Y-11158928D01*
X943182Y-11158928D02*
X952706Y-11111309D01*
X952706Y-11111309D02*
X952706Y-11073214D01*
X952706Y-11073214D02*
X943182Y-11025595D01*
X943182Y-11025595D02*
X933658Y-10997023D01*
X933658Y-10997023D02*
X924134Y-10977976D01*
X924134Y-10977976D02*
X905087Y-10949404D01*
X905087Y-10949404D02*
X895563Y-10939881D01*
D13*
X-3964500Y-11425968D02*
X-3879500Y-11340968D01*
X-3964500Y-11255968D01*
X-4049500Y-11340968D01*
X-3964500Y-11425968D01*
D11*
X-3513961Y-11432452D02*
X-3628247Y-11432452D01*
X-3571104Y-11432452D02*
X-3571104Y-11232452D01*
X-3571104Y-11232452D02*
X-3590152Y-11261023D01*
X-3590152Y-11261023D02*
X-3609199Y-11280071D01*
X-3609199Y-11280071D02*
X-3628247Y-11289595D01*
X-3428247Y-11413404D02*
X-3418723Y-11422928D01*
X-3418723Y-11422928D02*
X-3428247Y-11432452D01*
X-3428247Y-11432452D02*
X-3437771Y-11422928D01*
X-3437771Y-11422928D02*
X-3428247Y-11413404D01*
X-3428247Y-11413404D02*
X-3428247Y-11432452D01*
X-3352056Y-11232452D02*
X-3218723Y-11232452D01*
X-3218723Y-11232452D02*
X-3304437Y-11432452D01*
X-3104437Y-11232452D02*
X-3085390Y-11232452D01*
X-3085390Y-11232452D02*
X-3066342Y-11241976D01*
X-3066342Y-11241976D02*
X-3056818Y-11251500D01*
X-3056818Y-11251500D02*
X-3047294Y-11270547D01*
X-3047294Y-11270547D02*
X-3037771Y-11308642D01*
X-3037771Y-11308642D02*
X-3037771Y-11356261D01*
X-3037771Y-11356261D02*
X-3047294Y-11394357D01*
X-3047294Y-11394357D02*
X-3056818Y-11413404D01*
X-3056818Y-11413404D02*
X-3066342Y-11422928D01*
X-3066342Y-11422928D02*
X-3085390Y-11432452D01*
X-3085390Y-11432452D02*
X-3104437Y-11432452D01*
X-3104437Y-11432452D02*
X-3123485Y-11422928D01*
X-3123485Y-11422928D02*
X-3133009Y-11413404D01*
X-3133009Y-11413404D02*
X-3142533Y-11394357D01*
X-3142533Y-11394357D02*
X-3152056Y-11356261D01*
X-3152056Y-11356261D02*
X-3152056Y-11308642D01*
X-3152056Y-11308642D02*
X-3142533Y-11270547D01*
X-3142533Y-11270547D02*
X-3133009Y-11251500D01*
X-3133009Y-11251500D02*
X-3123485Y-11241976D01*
X-3123485Y-11241976D02*
X-3104437Y-11232452D01*
X-2913961Y-11232452D02*
X-2894913Y-11232452D01*
X-2894913Y-11232452D02*
X-2875866Y-11241976D01*
X-2875866Y-11241976D02*
X-2866342Y-11251500D01*
X-2866342Y-11251500D02*
X-2856818Y-11270547D01*
X-2856818Y-11270547D02*
X-2847294Y-11308642D01*
X-2847294Y-11308642D02*
X-2847294Y-11356261D01*
X-2847294Y-11356261D02*
X-2856818Y-11394357D01*
X-2856818Y-11394357D02*
X-2866342Y-11413404D01*
X-2866342Y-11413404D02*
X-2875866Y-11422928D01*
X-2875866Y-11422928D02*
X-2894913Y-11432452D01*
X-2894913Y-11432452D02*
X-2913961Y-11432452D01*
X-2913961Y-11432452D02*
X-2933009Y-11422928D01*
X-2933009Y-11422928D02*
X-2942533Y-11413404D01*
X-2942533Y-11413404D02*
X-2952056Y-11394357D01*
X-2952056Y-11394357D02*
X-2961580Y-11356261D01*
X-2961580Y-11356261D02*
X-2961580Y-11308642D01*
X-2961580Y-11308642D02*
X-2952056Y-11270547D01*
X-2952056Y-11270547D02*
X-2942533Y-11251500D01*
X-2942533Y-11251500D02*
X-2933009Y-11241976D01*
X-2933009Y-11241976D02*
X-2913961Y-11232452D01*
X-2761580Y-11432452D02*
X-2761580Y-11299119D01*
X-2761580Y-11318166D02*
X-2752056Y-11308642D01*
X-2752056Y-11308642D02*
X-2733009Y-11299119D01*
X-2733009Y-11299119D02*
X-2704437Y-11299119D01*
X-2704437Y-11299119D02*
X-2685390Y-11308642D01*
X-2685390Y-11308642D02*
X-2675866Y-11327690D01*
X-2675866Y-11327690D02*
X-2675866Y-11432452D01*
X-2675866Y-11327690D02*
X-2666342Y-11308642D01*
X-2666342Y-11308642D02*
X-2647295Y-11299119D01*
X-2647295Y-11299119D02*
X-2618723Y-11299119D01*
X-2618723Y-11299119D02*
X-2599675Y-11308642D01*
X-2599675Y-11308642D02*
X-2590152Y-11327690D01*
X-2590152Y-11327690D02*
X-2590152Y-11432452D01*
X-2494914Y-11432452D02*
X-2494914Y-11299119D01*
X-2494914Y-11318166D02*
X-2485390Y-11308642D01*
X-2485390Y-11308642D02*
X-2466342Y-11299119D01*
X-2466342Y-11299119D02*
X-2437771Y-11299119D01*
X-2437771Y-11299119D02*
X-2418723Y-11308642D01*
X-2418723Y-11308642D02*
X-2409199Y-11327690D01*
X-2409199Y-11327690D02*
X-2409199Y-11432452D01*
X-2409199Y-11327690D02*
X-2399675Y-11308642D01*
X-2399675Y-11308642D02*
X-2380628Y-11299119D01*
X-2380628Y-11299119D02*
X-2352056Y-11299119D01*
X-2352056Y-11299119D02*
X-2333009Y-11308642D01*
X-2333009Y-11308642D02*
X-2323485Y-11327690D01*
X-2323485Y-11327690D02*
X-2323485Y-11432452D01*
X-1933009Y-11222928D02*
X-2104437Y-11480071D01*
X-1675866Y-11232452D02*
X-1656818Y-11232452D01*
X-1656818Y-11232452D02*
X-1637770Y-11241976D01*
X-1637770Y-11241976D02*
X-1628247Y-11251500D01*
X-1628247Y-11251500D02*
X-1618723Y-11270547D01*
X-1618723Y-11270547D02*
X-1609199Y-11308642D01*
X-1609199Y-11308642D02*
X-1609199Y-11356261D01*
X-1609199Y-11356261D02*
X-1618723Y-11394357D01*
X-1618723Y-11394357D02*
X-1628247Y-11413404D01*
X-1628247Y-11413404D02*
X-1637770Y-11422928D01*
X-1637770Y-11422928D02*
X-1656818Y-11432452D01*
X-1656818Y-11432452D02*
X-1675866Y-11432452D01*
X-1675866Y-11432452D02*
X-1694913Y-11422928D01*
X-1694913Y-11422928D02*
X-1704437Y-11413404D01*
X-1704437Y-11413404D02*
X-1713961Y-11394357D01*
X-1713961Y-11394357D02*
X-1723485Y-11356261D01*
X-1723485Y-11356261D02*
X-1723485Y-11308642D01*
X-1723485Y-11308642D02*
X-1713961Y-11270547D01*
X-1713961Y-11270547D02*
X-1704437Y-11251500D01*
X-1704437Y-11251500D02*
X-1694913Y-11241976D01*
X-1694913Y-11241976D02*
X-1675866Y-11232452D01*
X-1523485Y-11413404D02*
X-1513961Y-11422928D01*
X-1513961Y-11422928D02*
X-1523485Y-11432452D01*
X-1523485Y-11432452D02*
X-1533009Y-11422928D01*
X-1533009Y-11422928D02*
X-1523485Y-11413404D01*
X-1523485Y-11413404D02*
X-1523485Y-11432452D01*
X-1390152Y-11232452D02*
X-1371104Y-11232452D01*
X-1371104Y-11232452D02*
X-1352056Y-11241976D01*
X-1352056Y-11241976D02*
X-1342532Y-11251500D01*
X-1342532Y-11251500D02*
X-1333009Y-11270547D01*
X-1333009Y-11270547D02*
X-1323485Y-11308642D01*
X-1323485Y-11308642D02*
X-1323485Y-11356261D01*
X-1323485Y-11356261D02*
X-1333009Y-11394357D01*
X-1333009Y-11394357D02*
X-1342532Y-11413404D01*
X-1342532Y-11413404D02*
X-1352056Y-11422928D01*
X-1352056Y-11422928D02*
X-1371104Y-11432452D01*
X-1371104Y-11432452D02*
X-1390152Y-11432452D01*
X-1390152Y-11432452D02*
X-1409199Y-11422928D01*
X-1409199Y-11422928D02*
X-1418723Y-11413404D01*
X-1418723Y-11413404D02*
X-1428247Y-11394357D01*
X-1428247Y-11394357D02*
X-1437770Y-11356261D01*
X-1437770Y-11356261D02*
X-1437770Y-11308642D01*
X-1437770Y-11308642D02*
X-1428247Y-11270547D01*
X-1428247Y-11270547D02*
X-1418723Y-11251500D01*
X-1418723Y-11251500D02*
X-1409199Y-11241976D01*
X-1409199Y-11241976D02*
X-1390152Y-11232452D01*
X-1152056Y-11232452D02*
X-1190152Y-11232452D01*
X-1190152Y-11232452D02*
X-1209199Y-11241976D01*
X-1209199Y-11241976D02*
X-1218723Y-11251500D01*
X-1218723Y-11251500D02*
X-1237771Y-11280071D01*
X-1237771Y-11280071D02*
X-1247294Y-11318166D01*
X-1247294Y-11318166D02*
X-1247294Y-11394357D01*
X-1247294Y-11394357D02*
X-1237771Y-11413404D01*
X-1237771Y-11413404D02*
X-1228247Y-11422928D01*
X-1228247Y-11422928D02*
X-1209199Y-11432452D01*
X-1209199Y-11432452D02*
X-1171104Y-11432452D01*
X-1171104Y-11432452D02*
X-1152056Y-11422928D01*
X-1152056Y-11422928D02*
X-1142532Y-11413404D01*
X-1142532Y-11413404D02*
X-1133009Y-11394357D01*
X-1133009Y-11394357D02*
X-1133009Y-11346738D01*
X-1133009Y-11346738D02*
X-1142532Y-11327690D01*
X-1142532Y-11327690D02*
X-1152056Y-11318166D01*
X-1152056Y-11318166D02*
X-1171104Y-11308642D01*
X-1171104Y-11308642D02*
X-1209199Y-11308642D01*
X-1209199Y-11308642D02*
X-1228247Y-11318166D01*
X-1228247Y-11318166D02*
X-1237771Y-11327690D01*
X-1237771Y-11327690D02*
X-1247294Y-11346738D01*
X-961580Y-11232452D02*
X-999675Y-11232452D01*
X-999675Y-11232452D02*
X-1018723Y-11241976D01*
X-1018723Y-11241976D02*
X-1028247Y-11251500D01*
X-1028247Y-11251500D02*
X-1047294Y-11280071D01*
X-1047294Y-11280071D02*
X-1056818Y-11318166D01*
X-1056818Y-11318166D02*
X-1056818Y-11394357D01*
X-1056818Y-11394357D02*
X-1047294Y-11413404D01*
X-1047294Y-11413404D02*
X-1037770Y-11422928D01*
X-1037770Y-11422928D02*
X-1018723Y-11432452D01*
X-1018723Y-11432452D02*
X-980628Y-11432452D01*
X-980628Y-11432452D02*
X-961580Y-11422928D01*
X-961580Y-11422928D02*
X-952056Y-11413404D01*
X-952056Y-11413404D02*
X-942532Y-11394357D01*
X-942532Y-11394357D02*
X-942532Y-11346738D01*
X-942532Y-11346738D02*
X-952056Y-11327690D01*
X-952056Y-11327690D02*
X-961580Y-11318166D01*
X-961580Y-11318166D02*
X-980628Y-11308642D01*
X-980628Y-11308642D02*
X-1018723Y-11308642D01*
X-1018723Y-11308642D02*
X-1037770Y-11318166D01*
X-1037770Y-11318166D02*
X-1047294Y-11327690D01*
X-1047294Y-11327690D02*
X-1056818Y-11346738D01*
X-847294Y-11432452D02*
X-809199Y-11432452D01*
X-809199Y-11432452D02*
X-790151Y-11422928D01*
X-790151Y-11422928D02*
X-780628Y-11413404D01*
X-780628Y-11413404D02*
X-761580Y-11384833D01*
X-761580Y-11384833D02*
X-752056Y-11346738D01*
X-752056Y-11346738D02*
X-752056Y-11270547D01*
X-752056Y-11270547D02*
X-761580Y-11251500D01*
X-761580Y-11251500D02*
X-771104Y-11241976D01*
X-771104Y-11241976D02*
X-790151Y-11232452D01*
X-790151Y-11232452D02*
X-828247Y-11232452D01*
X-828247Y-11232452D02*
X-847294Y-11241976D01*
X-847294Y-11241976D02*
X-856818Y-11251500D01*
X-856818Y-11251500D02*
X-866342Y-11270547D01*
X-866342Y-11270547D02*
X-866342Y-11318166D01*
X-866342Y-11318166D02*
X-856818Y-11337214D01*
X-856818Y-11337214D02*
X-847294Y-11346738D01*
X-847294Y-11346738D02*
X-828247Y-11356261D01*
X-828247Y-11356261D02*
X-790151Y-11356261D01*
X-790151Y-11356261D02*
X-771104Y-11346738D01*
X-771104Y-11346738D02*
X-761580Y-11337214D01*
X-761580Y-11337214D02*
X-752056Y-11318166D01*
X-675866Y-11232452D02*
X-675866Y-11270547D01*
X-599675Y-11232452D02*
X-599675Y-11270547D01*
X-304437Y-11508642D02*
X-313961Y-11499119D01*
X-313961Y-11499119D02*
X-333009Y-11470547D01*
X-333009Y-11470547D02*
X-342532Y-11451500D01*
X-342532Y-11451500D02*
X-352056Y-11422928D01*
X-352056Y-11422928D02*
X-361580Y-11375309D01*
X-361580Y-11375309D02*
X-361580Y-11337214D01*
X-361580Y-11337214D02*
X-352056Y-11289595D01*
X-352056Y-11289595D02*
X-342532Y-11261023D01*
X-342532Y-11261023D02*
X-333009Y-11241976D01*
X-333009Y-11241976D02*
X-313961Y-11213404D01*
X-313961Y-11213404D02*
X-304437Y-11203880D01*
X-123485Y-11432452D02*
X-237770Y-11432452D01*
X-180628Y-11432452D02*
X-180628Y-11232452D01*
X-180628Y-11232452D02*
X-199675Y-11261023D01*
X-199675Y-11261023D02*
X-218723Y-11280071D01*
X-218723Y-11280071D02*
X-237770Y-11289595D01*
X57468Y-11232452D02*
X-37770Y-11232452D01*
X-37770Y-11232452D02*
X-47294Y-11327690D01*
X-47294Y-11327690D02*
X-37770Y-11318166D01*
X-37770Y-11318166D02*
X-18723Y-11308642D01*
X-18723Y-11308642D02*
X28896Y-11308642D01*
X28896Y-11308642D02*
X47944Y-11318166D01*
X47944Y-11318166D02*
X57468Y-11327690D01*
X57468Y-11327690D02*
X66991Y-11346738D01*
X66991Y-11346738D02*
X66991Y-11394357D01*
X66991Y-11394357D02*
X57468Y-11413404D01*
X57468Y-11413404D02*
X47944Y-11422928D01*
X47944Y-11422928D02*
X28896Y-11432452D01*
X28896Y-11432452D02*
X-18723Y-11432452D01*
X-18723Y-11432452D02*
X-37770Y-11422928D01*
X-37770Y-11422928D02*
X-47294Y-11413404D01*
X190801Y-11232452D02*
X209849Y-11232452D01*
X209849Y-11232452D02*
X228896Y-11241976D01*
X228896Y-11241976D02*
X238420Y-11251500D01*
X238420Y-11251500D02*
X247944Y-11270547D01*
X247944Y-11270547D02*
X257468Y-11308642D01*
X257468Y-11308642D02*
X257468Y-11356261D01*
X257468Y-11356261D02*
X247944Y-11394357D01*
X247944Y-11394357D02*
X238420Y-11413404D01*
X238420Y-11413404D02*
X228896Y-11422928D01*
X228896Y-11422928D02*
X209849Y-11432452D01*
X209849Y-11432452D02*
X190801Y-11432452D01*
X190801Y-11432452D02*
X171753Y-11422928D01*
X171753Y-11422928D02*
X162230Y-11413404D01*
X162230Y-11413404D02*
X152706Y-11394357D01*
X152706Y-11394357D02*
X143182Y-11356261D01*
X143182Y-11356261D02*
X143182Y-11308642D01*
X143182Y-11308642D02*
X152706Y-11270547D01*
X152706Y-11270547D02*
X162230Y-11251500D01*
X162230Y-11251500D02*
X171753Y-11241976D01*
X171753Y-11241976D02*
X190801Y-11232452D01*
X495563Y-11432452D02*
X495563Y-11232452D01*
X581277Y-11432452D02*
X581277Y-11327690D01*
X581277Y-11327690D02*
X571753Y-11308642D01*
X571753Y-11308642D02*
X552706Y-11299119D01*
X552706Y-11299119D02*
X524134Y-11299119D01*
X524134Y-11299119D02*
X505087Y-11308642D01*
X505087Y-11308642D02*
X495563Y-11318166D01*
X705087Y-11432452D02*
X686039Y-11422928D01*
X686039Y-11422928D02*
X676515Y-11413404D01*
X676515Y-11413404D02*
X666992Y-11394357D01*
X666992Y-11394357D02*
X666992Y-11337214D01*
X666992Y-11337214D02*
X676515Y-11318166D01*
X676515Y-11318166D02*
X686039Y-11308642D01*
X686039Y-11308642D02*
X705087Y-11299119D01*
X705087Y-11299119D02*
X733658Y-11299119D01*
X733658Y-11299119D02*
X752706Y-11308642D01*
X752706Y-11308642D02*
X762230Y-11318166D01*
X762230Y-11318166D02*
X771753Y-11337214D01*
X771753Y-11337214D02*
X771753Y-11394357D01*
X771753Y-11394357D02*
X762230Y-11413404D01*
X762230Y-11413404D02*
X752706Y-11422928D01*
X752706Y-11422928D02*
X733658Y-11432452D01*
X733658Y-11432452D02*
X705087Y-11432452D01*
X886039Y-11432452D02*
X866991Y-11422928D01*
X866991Y-11422928D02*
X857468Y-11403880D01*
X857468Y-11403880D02*
X857468Y-11232452D01*
X1038420Y-11422928D02*
X1019372Y-11432452D01*
X1019372Y-11432452D02*
X981277Y-11432452D01*
X981277Y-11432452D02*
X962230Y-11422928D01*
X962230Y-11422928D02*
X952706Y-11403880D01*
X952706Y-11403880D02*
X952706Y-11327690D01*
X952706Y-11327690D02*
X962230Y-11308642D01*
X962230Y-11308642D02*
X981277Y-11299119D01*
X981277Y-11299119D02*
X1019372Y-11299119D01*
X1019372Y-11299119D02*
X1038420Y-11308642D01*
X1038420Y-11308642D02*
X1047944Y-11327690D01*
X1047944Y-11327690D02*
X1047944Y-11346738D01*
X1047944Y-11346738D02*
X952706Y-11365785D01*
X1124134Y-11422928D02*
X1143182Y-11432452D01*
X1143182Y-11432452D02*
X1181277Y-11432452D01*
X1181277Y-11432452D02*
X1200325Y-11422928D01*
X1200325Y-11422928D02*
X1209849Y-11403880D01*
X1209849Y-11403880D02*
X1209849Y-11394357D01*
X1209849Y-11394357D02*
X1200325Y-11375309D01*
X1200325Y-11375309D02*
X1181277Y-11365785D01*
X1181277Y-11365785D02*
X1152706Y-11365785D01*
X1152706Y-11365785D02*
X1133658Y-11356261D01*
X1133658Y-11356261D02*
X1124134Y-11337214D01*
X1124134Y-11337214D02*
X1124134Y-11327690D01*
X1124134Y-11327690D02*
X1133658Y-11308642D01*
X1133658Y-11308642D02*
X1152706Y-11299119D01*
X1152706Y-11299119D02*
X1181277Y-11299119D01*
X1181277Y-11299119D02*
X1200325Y-11308642D01*
X1276515Y-11508642D02*
X1286039Y-11499119D01*
X1286039Y-11499119D02*
X1305087Y-11470547D01*
X1305087Y-11470547D02*
X1314611Y-11451500D01*
X1314611Y-11451500D02*
X1324134Y-11422928D01*
X1324134Y-11422928D02*
X1333658Y-11375309D01*
X1333658Y-11375309D02*
X1333658Y-11337214D01*
X1333658Y-11337214D02*
X1324134Y-11289595D01*
X1324134Y-11289595D02*
X1314611Y-11261023D01*
X1314611Y-11261023D02*
X1305087Y-11241976D01*
X1305087Y-11241976D02*
X1286039Y-11213404D01*
X1286039Y-11213404D02*
X1276515Y-11203880D01*
M02*
