%TF.GenerationSoftware,KiCad,Pcbnew,8.99.0-2641-g1a24c99a2a*%
%TF.CreationDate,2024-10-13T14:08:58+07:00*%
%TF.ProjectId,think65v3,7468696e-6b36-4357-9633-2e6b69636164,rev?*%
%TF.SameCoordinates,Original*%
%TF.FileFunction,Paste,Bot*%
%TF.FilePolarity,Positive*%
%FSLAX46Y46*%
G04 Gerber Fmt 4.6, Leading zero omitted, Abs format (unit mm)*
G04 Created by KiCad (PCBNEW 8.99.0-2641-g1a24c99a2a) date 2024-10-13 14:08:58*
%MOMM*%
%LPD*%
G01*
G04 APERTURE LIST*
G04 Aperture macros list*
%AMRoundRect*
0 Rectangle with rounded corners*
0 $1 Rounding radius*
0 $2 $3 $4 $5 $6 $7 $8 $9 X,Y pos of 4 corners*
0 Add a 4 corners polygon primitive as box body*
4,1,4,$2,$3,$4,$5,$6,$7,$8,$9,$2,$3,0*
0 Add four circle primitives for the rounded corners*
1,1,$1+$1,$2,$3*
1,1,$1+$1,$4,$5*
1,1,$1+$1,$6,$7*
1,1,$1+$1,$8,$9*
0 Add four rect primitives between the rounded corners*
20,1,$1+$1,$2,$3,$4,$5,0*
20,1,$1+$1,$4,$5,$6,$7,0*
20,1,$1+$1,$6,$7,$8,$9,0*
20,1,$1+$1,$8,$9,$2,$3,0*%
G04 Aperture macros list end*
%ADD10RoundRect,0.250000X0.600000X-0.400000X0.600000X0.400000X-0.600000X0.400000X-0.600000X-0.400000X0*%
%ADD11RoundRect,0.075000X0.662500X0.075000X-0.662500X0.075000X-0.662500X-0.075000X0.662500X-0.075000X0*%
%ADD12RoundRect,0.075000X0.075000X0.662500X-0.075000X0.662500X-0.075000X-0.662500X0.075000X-0.662500X0*%
%ADD13RoundRect,0.250000X-0.250000X-0.475000X0.250000X-0.475000X0.250000X0.475000X-0.250000X0.475000X0*%
%ADD14RoundRect,0.375000X0.375000X-0.625000X0.375000X0.625000X-0.375000X0.625000X-0.375000X-0.625000X0*%
%ADD15RoundRect,0.500000X1.400000X-0.500000X1.400000X0.500000X-1.400000X0.500000X-1.400000X-0.500000X0*%
%ADD16RoundRect,0.150000X-0.625000X0.150000X-0.625000X-0.150000X0.625000X-0.150000X0.625000X0.150000X0*%
%ADD17RoundRect,0.250000X-0.650000X0.350000X-0.650000X-0.350000X0.650000X-0.350000X0.650000X0.350000X0*%
%ADD18RoundRect,0.250000X0.250000X0.475000X-0.250000X0.475000X-0.250000X-0.475000X0.250000X-0.475000X0*%
%ADD19RoundRect,0.250000X-0.475000X0.250000X-0.475000X-0.250000X0.475000X-0.250000X0.475000X0.250000X0*%
%ADD20RoundRect,0.250000X0.262500X0.450000X-0.262500X0.450000X-0.262500X-0.450000X0.262500X-0.450000X0*%
G04 APERTURE END LIST*
D10*
%TO.C,D90*%
X250972236Y-92200438D03*
X250972236Y-88700438D03*
%TD*%
%TO.C,D60*%
X250972236Y-54100438D03*
X250972236Y-50600438D03*
%TD*%
%TO.C,D49*%
X36659736Y-54100438D03*
X36659736Y-50600438D03*
%TD*%
D11*
%TO.C,U3*%
X70662500Y-81450000D03*
X70662500Y-81950000D03*
X70662500Y-82450000D03*
X70662500Y-82950000D03*
X70662500Y-83450000D03*
X70662500Y-83950000D03*
X70662500Y-84450000D03*
X70662500Y-84950000D03*
X70662500Y-85450000D03*
X70662500Y-85950000D03*
X70662500Y-86450000D03*
X70662500Y-86950000D03*
D12*
X69250000Y-88362500D03*
X68750000Y-88362500D03*
X68250000Y-88362500D03*
X67750000Y-88362500D03*
X67250000Y-88362500D03*
X66750000Y-88362500D03*
X66250000Y-88362500D03*
X65750000Y-88362500D03*
X65250000Y-88362500D03*
X64750000Y-88362500D03*
X64250000Y-88362500D03*
X63750000Y-88362500D03*
D11*
X62337500Y-86950000D03*
X62337500Y-86450000D03*
X62337500Y-85950000D03*
X62337500Y-85450000D03*
X62337500Y-84950000D03*
X62337500Y-84450000D03*
X62337500Y-83950000D03*
X62337500Y-83450000D03*
X62337500Y-82950000D03*
X62337500Y-82450000D03*
X62337500Y-81950000D03*
X62337500Y-81450000D03*
D12*
X63750000Y-80037500D03*
X64250000Y-80037500D03*
X64750000Y-80037500D03*
X65250000Y-80037500D03*
X65750000Y-80037500D03*
X66250000Y-80037500D03*
X66750000Y-80037500D03*
X67250000Y-80037500D03*
X67750000Y-80037500D03*
X68250000Y-80037500D03*
X68750000Y-80037500D03*
X69250000Y-80037500D03*
%TD*%
D10*
%TO.C,D72*%
X205728736Y-73150438D03*
X205728736Y-69650438D03*
%TD*%
%TO.C,D73*%
X231922236Y-73150438D03*
X231922236Y-69650438D03*
%TD*%
%TO.C,D43*%
X203347236Y-35050438D03*
X203347236Y-31550438D03*
%TD*%
%TO.C,D53*%
X112859736Y-54100438D03*
X112859736Y-50600438D03*
%TD*%
D13*
%TO.C,C9*%
X54050000Y-77603250D03*
X55950000Y-77603250D03*
%TD*%
D10*
%TO.C,D77*%
X-9500000Y-92200438D03*
X-9500000Y-88700438D03*
%TD*%
%TO.C,D64*%
X46184736Y-73150438D03*
X46184736Y-69650438D03*
%TD*%
%TO.C,D47*%
X-1440264Y-54100438D03*
X-1440264Y-50600438D03*
%TD*%
%TO.C,D34*%
X31897236Y-35050438D03*
X31897236Y-31550438D03*
%TD*%
%TO.C,D89*%
X231922236Y-92200438D03*
X231922236Y-88700438D03*
%TD*%
D14*
%TO.C,U7*%
X-800000Y-19650000D03*
X-3100000Y-19650000D03*
D15*
X-3100000Y-13350000D03*
D14*
X-5400000Y-19650000D03*
%TD*%
D10*
%TO.C,D66*%
X84284736Y-73150438D03*
X84284736Y-69650438D03*
%TD*%
%TO.C,D35*%
X50947236Y-35050438D03*
X50947236Y-31550438D03*
%TD*%
%TO.C,D38*%
X108097236Y-35050438D03*
X108097236Y-31550438D03*
%TD*%
D13*
%TO.C,C3*%
X-10850000Y-17300000D03*
X-8950000Y-17300000D03*
%TD*%
D16*
%TO.C,J5*%
X30100000Y-16900000D03*
X30100000Y-17900000D03*
X30100000Y-18900000D03*
X30100000Y-19900000D03*
D17*
X33975000Y-15600000D03*
X33975000Y-21200000D03*
%TD*%
D18*
%TO.C,C6*%
X63000000Y-92090000D03*
X61100000Y-92090000D03*
%TD*%
D10*
%TO.C,D51*%
X74759736Y-54100438D03*
X74759736Y-50600438D03*
%TD*%
%TO.C,D20*%
X41422236Y-16000438D03*
X41422236Y-12500438D03*
%TD*%
%TO.C,D52*%
X93809736Y-54100438D03*
X93809736Y-50600438D03*
%TD*%
%TO.C,D42*%
X184297236Y-35050438D03*
X184297236Y-31550438D03*
%TD*%
D19*
%TO.C,C1*%
X-12500000Y-87750000D03*
X-12500000Y-89650000D03*
%TD*%
D10*
%TO.C,D31*%
X-30014764Y-35050438D03*
X-30014764Y-31550438D03*
%TD*%
%TO.C,D28*%
X193822236Y-16000438D03*
X193822236Y-12500438D03*
%TD*%
%TO.C,D70*%
X160484736Y-73150438D03*
X160484736Y-69650438D03*
%TD*%
%TO.C,D88*%
X212872236Y-92200438D03*
X212872236Y-88700438D03*
%TD*%
%TO.C,D46*%
X-16500000Y-54100438D03*
X-16500000Y-50600438D03*
%TD*%
%TO.C,D39*%
X127147236Y-35050438D03*
X127147236Y-31550438D03*
%TD*%
%TO.C,D62*%
X8084736Y-73150438D03*
X8084736Y-69650438D03*
%TD*%
%TO.C,D17*%
X-15727764Y-16000438D03*
X-15727764Y-12500438D03*
%TD*%
%TO.C,D71*%
X179534736Y-73150438D03*
X179534736Y-69650438D03*
%TD*%
%TO.C,D23*%
X98572236Y-16000438D03*
X98572236Y-12500438D03*
%TD*%
%TO.C,D50*%
X55709736Y-54100438D03*
X55709736Y-50600438D03*
%TD*%
%TO.C,D65*%
X65234736Y-73150438D03*
X65234736Y-69650438D03*
%TD*%
%TO.C,D27*%
X174772236Y-16000438D03*
X174772236Y-12500438D03*
%TD*%
%TO.C,D75*%
X250972236Y-73150438D03*
X250972236Y-69650438D03*
%TD*%
%TO.C,D82*%
X86665736Y-92200438D03*
X86665736Y-88700438D03*
%TD*%
D18*
%TO.C,C10*%
X80150000Y-89800000D03*
X78250000Y-89800000D03*
%TD*%
D10*
%TO.C,D41*%
X165247236Y-35050438D03*
X165247236Y-31550438D03*
%TD*%
D13*
%TO.C,C8*%
X54100000Y-79723250D03*
X56000000Y-79723250D03*
%TD*%
D10*
%TO.C,D25*%
X136672236Y-16000438D03*
X136672236Y-12500438D03*
%TD*%
%TO.C,D21*%
X60472236Y-16000438D03*
X60472236Y-12500438D03*
%TD*%
%TO.C,D54*%
X131909736Y-54100438D03*
X131909736Y-50600438D03*
%TD*%
%TO.C,D16*%
X-34777764Y-16000438D03*
X-34777764Y-12500438D03*
%TD*%
D18*
%TO.C,C5*%
X80150000Y-87700000D03*
X78250000Y-87700000D03*
%TD*%
D10*
%TO.C,D40*%
X146197236Y-35050438D03*
X146197236Y-31550438D03*
%TD*%
%TO.C,D19*%
X22372236Y-16000438D03*
X22372236Y-12500438D03*
%TD*%
%TO.C,D22*%
X79522236Y-16000438D03*
X79522236Y-12500438D03*
%TD*%
%TO.C,D26*%
X155722236Y-16000438D03*
X155722236Y-12500438D03*
%TD*%
%TO.C,D24*%
X117622236Y-16000438D03*
X117622236Y-12500438D03*
%TD*%
%TO.C,D85*%
X158103236Y-91750000D03*
X158103236Y-88250000D03*
%TD*%
%TO.C,D55*%
X150959736Y-54100438D03*
X150959736Y-50600438D03*
%TD*%
%TO.C,D30*%
X250972236Y-16000438D03*
X250972236Y-12500438D03*
%TD*%
%TO.C,D33*%
X12847236Y-35050438D03*
X12847236Y-31550438D03*
%TD*%
%TO.C,D63*%
X27134736Y-73150438D03*
X27134736Y-69650438D03*
%TD*%
%TO.C,D76*%
X-37000000Y-92200438D03*
X-37000000Y-88700438D03*
%TD*%
%TO.C,D18*%
X3322236Y-16000438D03*
X3322236Y-12500438D03*
%TD*%
%TO.C,D58*%
X220090336Y-54100438D03*
X220090336Y-50600438D03*
%TD*%
D18*
%TO.C,C4*%
X80150000Y-85670000D03*
X78250000Y-85670000D03*
%TD*%
D10*
%TO.C,D57*%
X189059736Y-54100438D03*
X189059736Y-50600438D03*
%TD*%
%TO.C,D78*%
X10000000Y-86250000D03*
X10000000Y-82750000D03*
%TD*%
%TO.C,D29*%
X212872236Y-16000438D03*
X212872236Y-12500438D03*
%TD*%
%TO.C,D36*%
X69997236Y-35050438D03*
X69997236Y-31550438D03*
%TD*%
%TO.C,D69*%
X141434736Y-73150438D03*
X141434736Y-69650438D03*
%TD*%
D20*
%TO.C,R1*%
X-15187500Y-84500000D03*
X-17012500Y-84500000D03*
%TD*%
D10*
%TO.C,D44*%
X227160236Y-35050438D03*
X227160236Y-31550438D03*
%TD*%
%TO.C,D86*%
X174000000Y-92200438D03*
X174000000Y-88700438D03*
%TD*%
%TO.C,D68*%
X122384736Y-73150438D03*
X122384736Y-69650438D03*
%TD*%
%TO.C,D48*%
X17609736Y-54100438D03*
X17609736Y-50600438D03*
%TD*%
%TO.C,D32*%
X-6202764Y-35050438D03*
X-6202764Y-31550438D03*
%TD*%
%TO.C,D45*%
X250972236Y-35050438D03*
X250972236Y-31550438D03*
%TD*%
%TO.C,D61*%
X-22797164Y-73150438D03*
X-22797164Y-69650438D03*
%TD*%
%TO.C,D87*%
X231922236Y-16000438D03*
X231922236Y-12500438D03*
%TD*%
D18*
%TO.C,C7*%
X63000000Y-94100000D03*
X61100000Y-94100000D03*
%TD*%
D13*
%TO.C,C2*%
X-10850000Y-19310000D03*
X-8950000Y-19310000D03*
%TD*%
D10*
%TO.C,D67*%
X103334736Y-73150438D03*
X103334736Y-69650438D03*
%TD*%
%TO.C,D56*%
X170009736Y-54100438D03*
X170009736Y-50600438D03*
%TD*%
%TO.C,D37*%
X89047236Y-35050438D03*
X89047236Y-31550438D03*
%TD*%
M02*
