M48
; DRILL file {KiCad 8.99.0-2641-g1a24c99a2a} date 2024-10-13T14:09:16+0700
; FORMAT={-:-/ absolute / inch / decimal}
; #@! TF.CreationDate,2024-10-13T14:09:16+07:00
; #@! TF.GenerationSoftware,Kicad,Pcbnew,8.99.0-2641-g1a24c99a2a
; #@! TF.FileFunction,NonPlated,1,2,NPTH
FMAT,2
INCH
; #@! TA.AperFunction,NonPlated,NPTH,ComponentDrill
T1C0.0669
; #@! TA.AperFunction,NonPlated,NPTH,ComponentDrill
T2C0.1200
; #@! TA.AperFunction,NonPlated,NPTH,ComponentDrill
T3C0.1570
; #@! TA.AperFunction,NonPlated,NPTH,ComponentDrill
T4C0.1575
%
G90
G05
T1
X-1.4477Y-0.4503
X-1.3539Y-1.9503
X-1.3539Y-3.4503
X-1.2602Y-1.2003
X-1.2583Y-3.4506
X-1.1664Y-1.9503
X-1.0477Y-0.4503
X-0.976Y-2.7003
X-0.9539Y-1.9503
X-0.9539Y-3.4503
X-0.8602Y-1.2003
X-0.8583Y-3.4506
X-0.7664Y-1.9503
X-0.6977Y-0.4503
X-0.576Y-2.7003
X-0.4164Y-3.4503
X-0.3227Y-1.2003
X-0.3213Y-3.4504
X-0.2977Y-0.4503
X-0.1352Y-1.9503
X-0.0164Y-3.4503
X0.0523Y-0.4503
X0.0773Y-1.2003
X0.0787Y-3.4504
X0.2398Y-2.7003
X0.2648Y-1.9503
X0.4273Y-1.2003
X0.4523Y-0.4503
X0.5211Y-3.4503
X0.6148Y-1.9503
X0.6153Y-3.451
X0.6398Y-2.7003
X0.8023Y-0.4503
X0.8273Y-1.2003
X0.9211Y-3.4503
X0.9898Y-2.7003
X1.0148Y-1.9503
X1.0153Y-3.451
X1.1773Y-1.2003
X1.2023Y-0.4503
X1.3648Y-1.9503
X1.3898Y-2.7003
X1.5523Y-0.4503
X1.5773Y-1.2003
X1.7398Y-2.7003
X1.7648Y-1.9503
X1.9273Y-1.2003
X1.9523Y-0.4503
X2.1148Y-1.9503
X2.1398Y-2.7003
X2.3023Y-0.4503
X2.3273Y-1.2003
X2.4898Y-2.7003
X2.5148Y-1.9503
X2.6773Y-1.2003
X2.7023Y-0.4503
X2.8648Y-1.9503
X2.8898Y-2.7003
X3.0523Y-0.4503
X3.0773Y-1.2003
X3.2398Y-2.7003
X3.2648Y-1.9503
X3.3336Y-3.4503
X3.4273Y-1.2003
X3.4523Y-0.4503
X3.6148Y-1.9503
X3.6398Y-2.7003
X3.7336Y-3.4503
X3.8023Y-0.4503
X3.8027Y-3.4504
X3.8273Y-1.2003
X3.9898Y-2.7003
X4.0148Y-1.9503
X4.1773Y-1.2003
X4.2023Y-0.4503
X4.2027Y-3.4504
X4.3648Y-1.9503
X4.3898Y-2.7003
X4.5523Y-0.4503
X4.5773Y-1.2003
X4.7398Y-2.7003
X4.7648Y-1.9503
X4.9273Y-1.2003
X4.9523Y-0.4503
X5.1148Y-1.9503
X5.1398Y-2.7003
X5.3023Y-0.4503
X5.3273Y-1.2003
X5.4898Y-2.7003
X5.5148Y-1.9503
X5.6773Y-1.2003
X5.7023Y-0.4503
X5.8648Y-1.9503
X5.8898Y-2.7003
X6.0523Y-0.4503
X6.0773Y-1.2003
X6.1461Y-3.4503
X6.2398Y-2.7003
X6.2648Y-1.9503
X6.4273Y-1.2003
X6.4523Y-0.4503
X6.5461Y-3.4503
X6.6148Y-1.9503
X6.6398Y-2.7003
X6.8023Y-0.4503
X6.8273Y-1.2003
X6.9898Y-2.7003
X6.9901Y-3.4506
X7.0148Y-1.9503
X7.0836Y-3.4503
X7.1773Y-1.2003
X7.2023Y-0.4503
X7.3648Y-1.9503
X7.3898Y-2.7003
X7.3901Y-3.4506
X7.4836Y-3.4503
X7.5523Y-0.4503
X7.5773Y-1.2003
X7.7648Y-1.9503
X7.9273Y-1.2003
X7.9523Y-0.4503
X8.0211Y-2.7003
X8.3023Y-0.4503
X8.3023Y-3.4503
X8.3273Y-1.2003
X8.4211Y-2.7003
X8.5865Y-1.9503
X8.6773Y-0.4503
X8.7023Y-0.4503
X8.7023Y-3.4503
X8.8648Y-1.2003
X8.9865Y-1.9503
X9.0523Y-0.4503
X9.0523Y-2.7003
X9.0523Y-3.4503
X9.0773Y-0.4503
X9.2648Y-1.2003
X9.4523Y-0.4503
X9.4523Y-2.7003
X9.4523Y-3.4503
X9.8023Y-0.4503
X9.8023Y-1.2003
X9.8023Y-1.9503
X9.8023Y-2.7003
X9.8023Y-3.4503
X10.2023Y-0.4503
X10.2023Y-1.2003
X10.2023Y-1.9503
X10.2023Y-2.7003
X10.2023Y-3.4503
T2
X-1.246Y-2.4253
X-0.306Y-2.4253
X1.5651Y-3.7253
X1.7527Y-3.7254
X5.5021Y-3.7253
X6.2527Y-3.7254
X8.3165Y-1.6753
X8.4073Y-0.1753
X9.2565Y-1.6753
X9.3473Y-0.1753
T3
X-1.246Y-3.0253
X-0.306Y-3.0253
X1.5651Y-3.1253
X1.7527Y-3.1254
X5.5021Y-3.1253
X6.2527Y-3.1254
X8.3165Y-2.2753
X8.4073Y-0.7753
X9.2565Y-2.2753
X9.3473Y-0.7753
T4
X-1.2477Y-0.4503
X-1.1539Y-1.9503
X-1.1539Y-3.4503
X-1.0602Y-1.2003
X-1.0583Y-3.4506
X-0.9664Y-1.9503
X-0.776Y-2.7003
X-0.4977Y-0.4503
X-0.2164Y-3.4503
X-0.1227Y-1.2003
X-0.1213Y-3.4504
X0.0648Y-1.9503
X0.2523Y-0.4503
X0.4398Y-2.7003
X0.6273Y-1.2003
X0.7211Y-3.4503
X0.8148Y-1.9503
X0.8153Y-3.451
X1.0023Y-0.4503
X1.1898Y-2.7003
X1.3773Y-1.2003
X1.5648Y-1.9503
X1.7523Y-0.4503
X1.9398Y-2.7003
X2.1273Y-1.2003
X2.3148Y-1.9503
X2.5023Y-0.4503
X2.6898Y-2.7003
X2.8773Y-1.2003
X3.0648Y-1.9503
X3.2523Y-0.4503
X3.4398Y-2.7003
X3.5336Y-3.4503
X3.6273Y-1.2003
X3.8148Y-1.9503
X4.0023Y-0.4503
X4.0027Y-3.4504
X4.1898Y-2.7003
X4.3773Y-1.2003
X4.5648Y-1.9503
X4.7523Y-0.4503
X4.9398Y-2.7003
X5.1273Y-1.2003
X5.3148Y-1.9503
X5.5023Y-0.4503
X5.6898Y-2.7003
X5.8773Y-1.2003
X6.0648Y-1.9503
X6.2523Y-0.4503
X6.3461Y-3.4503
X6.4398Y-2.7003
X6.6273Y-1.2003
X6.8148Y-1.9503
X7.0023Y-0.4503
X7.1898Y-2.7003
X7.1901Y-3.4506
X7.2836Y-3.4503
X7.3773Y-1.2003
X7.5648Y-1.9503
X7.7523Y-0.4503
X8.1273Y-1.2003
X8.2211Y-2.7003
X8.5023Y-0.4503
X8.5023Y-3.4503
X8.7865Y-1.9503
X8.8773Y-0.4503
X9.0648Y-1.2003
X9.2523Y-0.4503
X9.2523Y-2.7003
X9.2523Y-3.4503
X10.0023Y-0.4503
X10.0023Y-1.2003
X10.0023Y-1.9503
X10.0023Y-2.7003
X10.0023Y-3.4503
M30
