M48
; DRILL file {KiCad 8.99.0-946-gf00a1ab517} date 2024-06-04T13:04:29+0700
; FORMAT={-:-/ absolute / inch / decimal}
; #@! TF.CreationDate,2024-06-04T13:04:29+07:00
; #@! TF.GenerationSoftware,Kicad,Pcbnew,8.99.0-946-gf00a1ab517
; #@! TF.FileFunction,Plated,1,2,PTH
FMAT,2
INCH
; #@! TA.AperFunction,Plated,PTH,ViaDrill
T1C0.0118
; #@! TA.AperFunction,Plated,PTH,ComponentDrill
T2C0.0118
; #@! TA.AperFunction,Plated,PTH,ComponentDrill
T3C0.0236
; #@! TA.AperFunction,Plated,PTH,ComponentDrill
T4C0.0295
; #@! TA.AperFunction,Plated,PTH,ComponentDrill
T5C0.0394
; #@! TA.AperFunction,Plated,PTH,ComponentDrill
T6C0.0669
%
G90
G05
T1
X-0.085Y3.6909
X0.0406Y3.6949
X0.0634Y4.348
X0.0917Y5.0587
X0.1135Y3.0882
X0.211Y3.8953
X0.213Y5.2878
X0.3055Y5.0071
X0.3303Y4.6256
X0.4012Y2.9386
X0.4398Y4.4953
X0.4642Y3.7138
X0.4677Y3.8425
X0.4795Y2.9823
X0.4811Y4.6268
X0.4957Y4.0539
X0.5055Y4.4378
X0.5055Y3.9268
X0.5189Y3.7996
X0.5666Y4.4358
X0.9543Y3.0685
X1.5078Y3.0527
X2.0862Y3.0268
X2.8287Y3.0201
X3.5835Y2.9965
X4.1197Y5.3628
X4.1516Y3.0957
X4.1752Y3.0955
X4.1965Y3.1059
X4.3293Y2.9421
X4.4543Y2.9244
X4.4898Y4.6256
X4.5217Y5.4134
X4.5732Y5.2362
X4.5748Y2.8579
X4.5776Y5.4445
X4.6004Y5.4039
X4.6248Y3.8756
X4.6311Y2.9421
X4.661Y3.1453
X4.6642Y2.5772
X4.6744Y2.8626
X4.6846Y5.4378
X4.6945Y2.4244
X4.7035Y2.9402
X4.7567Y5.5913
X4.778Y2.8598
X4.8937Y3.5709
X4.9728Y2.8843
X4.9858Y3.5319
X5.0619Y2.9264
X5.1035Y2.9264
X5.1319Y2.9106
X5.1516Y5.585
X5.1756Y5.563
X5.2004Y3.3555
X5.2461Y2.878
X5.2776Y5.024
X5.2805Y5.049
X5.3024Y5.6397
X5.315Y5.4031
X5.3283Y5.376
X5.3331Y5.2839
X5.3512Y5.6272
X5.3524Y3.3193
X5.3925Y5.702
X5.4055Y5.6067
X5.4154Y5.4843
X5.4406Y2.7909
X5.4466Y5.7114
X5.4539Y2.8567
X5.4859Y5.7323
X5.4975Y3.149
X5.4996Y3.5701
X5.5035Y3.5319
X5.5094Y3.3535
X5.5102Y3.1291
X5.5135Y5.7331
X5.5173Y5.4035
X5.5209Y5.3783
X5.5315Y2.7972
X5.5461Y5.6201
X5.5961Y5.2839
X5.6102Y5.0579
X5.6508Y3.6177
X5.6831Y3.1295
X5.6858Y2.485
X5.7029Y3.1453
X5.7075Y3.3528
X5.715Y4.6248
X5.7213Y2.5697
X5.7244Y3.1059
X5.7425Y2.398
X5.7807Y2.5272
X5.7831Y2.4583
X5.7845Y5.0545
X5.8307Y3.5713
X5.8307Y3.5323
X5.8339Y3.6142
X5.8472Y2.6165
X5.8827Y4.6248
X5.8894Y2.5874
X5.8921Y3.874
X5.9005Y2.4229
X5.902Y2.3965
X5.9063Y2.5531
X5.9925Y3.4165
X6.0212Y2.4322
X6.0344Y2.586
X6.0358Y2.724
X6.0642Y3.8736
X6.0835Y2.9886
X6.2571Y2.6575
X6.2591Y2.3417
X6.3587Y3.6193
X6.3606Y2.5724
X6.3783Y3.5748
X6.3878Y2.9425
X6.6625Y3.1453
X6.678Y2.3661
X6.6878Y2.5846
X6.7622Y2.5138
X6.7831Y2.6906
X6.8079Y2.711
X6.9748Y2.8921
X7.0688Y3.0497
X7.1366Y2.3744
X7.1819Y2.948
X7.3772Y2.6374
X7.4972Y2.435
X7.8783Y2.4327
X7.8872Y2.3352
X7.9008Y2.3968
X7.9059Y2.3496
X8.0587Y2.9874
X8.3248Y2.9535
X8.987Y2.9346
X8.989Y3.1488
X9.0674Y3.0504
X9.0909Y3.0346
X9.1106Y2.9709
X9.2579Y2.2594
X9.2776Y2.1996
X9.3201Y3.1453
X9.3217Y2.9382
X9.5441Y3.8756
X9.7445Y5.3287
X10.1418Y2.9579
X10.5654Y3.0992
X10.6197Y2.9409
X10.6496Y5.0547
X10.6681Y4.0594
X10.689Y2.9118
X10.6945Y3.9508
X10.6984Y5.0535
X10.7142Y2.8091
X10.7146Y4.0811
X10.8918Y2.9839
T2
X-0.4074Y5.6004
X-0.3586Y5.5508
X-0.3582Y5.6492
X-0.3136Y4.1004
X-0.3136Y2.6004
X-0.309Y5.6
X-0.2648Y4.0508
X-0.2648Y2.5508
X-0.2644Y4.1492
X-0.2644Y2.6492
X-0.2199Y4.8504
X-0.2199Y2.6004
X-0.2152Y4.1
X-0.2152Y2.6
X-0.171Y4.8008
X-0.171Y2.5508
X-0.1706Y4.8992
X-0.1706Y2.6492
X-0.1574Y5.7
X-0.1261Y4.1004
X-0.1214Y4.85
X-0.1214Y2.6
X-0.1082Y5.7496
X-0.1082Y5.6512
X-0.0773Y4.0508
X-0.0769Y4.1492
X-0.0636Y4.2
X-0.0636Y2.7
X-0.0594Y5.7004
X-0.0277Y4.1
X-0.0144Y4.2496
X-0.0144Y4.1512
X-0.0144Y2.7496
X-0.0144Y2.6512
X0.0301Y4.95
X0.0301Y2.7
X0.0344Y4.2004
X0.0344Y2.7004
X0.0643Y3.3504
X0.0794Y4.9996
X0.0794Y4.9012
X0.0794Y2.7496
X0.0794Y2.6512
X0.1131Y3.3008
X0.1135Y3.3992
X0.1239Y4.2
X0.1282Y4.9504
X0.1282Y2.7004
X0.1627Y3.35
X0.1731Y4.2496
X0.1731Y4.1512
X0.2219Y4.2004
X0.3143Y3.45
X0.3426Y5.6004
X0.3635Y3.4996
X0.3635Y3.4012
X0.3914Y5.5508
X0.3918Y5.6492
X0.4123Y3.4504
X0.441Y5.6
X0.5926Y5.7
X0.6239Y2.6004
X0.6418Y5.7496
X0.6418Y5.6512
X0.6727Y2.5508
X0.6731Y2.6492
X0.6906Y5.7004
X0.7176Y4.8504
X0.7176Y2.6004
X0.7223Y2.6
X0.7664Y4.8008
X0.7664Y2.5508
X0.7668Y4.8992
X0.7668Y2.6492
X0.816Y4.85
X0.816Y2.6
X0.8739Y2.7
X0.9051Y4.1004
X0.9231Y2.7496
X0.9231Y2.6512
X0.9539Y4.0508
X0.9543Y4.1492
X0.9676Y4.95
X0.9676Y2.7
X0.9719Y2.7004
X1.0035Y4.1
X1.0168Y4.9996
X1.0168Y4.9012
X1.0168Y2.7496
X1.0168Y2.6512
X1.0656Y4.9504
X1.0656Y2.7004
X1.0926Y5.6004
X1.1414Y5.5508
X1.1418Y5.6492
X1.1551Y4.2
X1.191Y5.6
X1.2043Y4.2496
X1.2043Y4.1512
X1.2531Y4.2004
X1.2801Y3.3504
X1.3289Y3.3008
X1.3293Y3.3992
X1.3426Y5.7
X1.3785Y3.35
X1.3918Y5.7496
X1.3918Y5.6512
X1.4406Y5.7004
X1.4676Y4.8504
X1.5164Y4.8008
X1.5168Y4.8992
X1.5301Y3.45
X1.5614Y2.6004
X1.566Y4.85
X1.5793Y3.4996
X1.5793Y3.4012
X1.6102Y2.5508
X1.6106Y2.6492
X1.6281Y3.4504
X1.6551Y4.1004
X1.6551Y2.6004
X1.6598Y2.6
X1.7039Y4.0508
X1.704Y2.5508
X1.7043Y4.1492
X1.7044Y2.6492
X1.7176Y4.95
X1.7535Y4.1
X1.7536Y2.6
X1.7668Y4.9996
X1.7668Y4.9012
X1.8114Y2.7
X1.8156Y4.9504
X1.8426Y5.6004
X1.8606Y2.7496
X1.8606Y2.6512
X1.8914Y5.5508
X1.8918Y5.6492
X1.9051Y4.2
X1.9051Y2.7
X1.9094Y2.7004
X1.941Y5.6
X1.9543Y4.2496
X1.9543Y4.1512
X1.9544Y2.7496
X1.9544Y2.6512
X2.0031Y4.2004
X2.0032Y2.7004
X2.0301Y3.3504
X2.0789Y3.3008
X2.0793Y3.3992
X2.0926Y5.7
X2.1285Y3.35
X2.1418Y5.7496
X2.1418Y5.6512
X2.1906Y5.7004
X2.2176Y4.8504
X2.2664Y4.8008
X2.2668Y4.8992
X2.2801Y3.45
X2.316Y4.85
X2.3293Y3.4996
X2.3293Y3.4012
X2.3781Y3.4504
X2.4051Y4.1004
X2.4539Y4.0508
X2.4543Y4.1492
X2.4676Y4.95
X2.5035Y4.1
X2.5168Y4.9996
X2.5168Y4.9012
X2.5656Y4.9504
X2.5926Y5.6004
X2.6414Y5.5508
X2.6418Y5.6492
X2.6551Y4.2
X2.691Y5.6
X2.7043Y4.2496
X2.7043Y4.1512
X2.7531Y4.2004
X2.7801Y3.3504
X2.8289Y3.3008
X2.8293Y3.3992
X2.8426Y5.7
X2.8785Y3.35
X2.8918Y5.7496
X2.8918Y5.6512
X2.9406Y5.7004
X2.9676Y4.8504
X3.0164Y4.8008
X3.0168Y4.8992
X3.0301Y3.45
X3.066Y4.85
X3.0793Y3.4996
X3.0793Y3.4012
X3.1281Y3.4504
X3.1551Y4.1004
X3.2039Y4.0508
X3.2043Y4.1492
X3.2176Y4.95
X3.2535Y4.1
X3.2668Y4.9996
X3.2668Y4.9012
X3.3156Y4.9504
X3.3426Y5.6004
X3.3914Y5.5508
X3.3918Y5.6492
X3.4051Y4.2
X3.441Y5.6
X3.4543Y4.2496
X3.4543Y4.1512
X3.5031Y4.2004
X3.5301Y3.3504
X3.5789Y3.3008
X3.5793Y3.3992
X3.5926Y5.7
X3.6285Y3.35
X3.6418Y5.7496
X3.6418Y5.6512
X3.6906Y5.7004
X3.7176Y4.8504
X3.7664Y4.8008
X3.7668Y4.8992
X3.7801Y3.45
X3.816Y4.85
X3.8293Y3.4996
X3.8293Y3.4012
X3.8781Y3.4504
X3.9051Y4.1004
X3.9539Y4.0508
X3.9543Y4.1492
X3.9676Y4.95
X4.0035Y4.1
X4.0168Y4.9996
X4.0168Y4.9012
X4.0656Y4.9504
X4.0926Y5.6004
X4.1414Y5.5508
X4.1418Y5.6492
X4.1551Y4.2
X4.191Y5.6
X4.2043Y4.2496
X4.2043Y4.1512
X4.2531Y4.2004
X4.2801Y3.3504
X4.3289Y3.3008
X4.3293Y3.3992
X4.3426Y5.7
X4.3739Y2.6004
X4.3785Y3.35
X4.3918Y5.7496
X4.3918Y5.6512
X4.4227Y2.5508
X4.4231Y2.6492
X4.4406Y5.7004
X4.4676Y4.8504
X4.4723Y2.6
X4.5164Y4.8008
X4.5168Y4.8992
X4.5301Y3.45
X4.566Y4.85
X4.5793Y3.4996
X4.5793Y3.4012
X4.6239Y2.7
X4.6281Y3.4504
X4.6551Y4.1004
X4.6731Y2.7496
X4.6731Y2.6512
X4.7039Y4.0508
X4.7043Y4.1492
X4.7176Y4.95
X4.7219Y2.7004
X4.7535Y4.1
X4.7668Y4.9996
X4.7668Y4.9012
X4.8156Y4.9504
X4.8422Y2.6002
X4.8426Y5.6004
X4.891Y2.5506
X4.8914Y5.5508
X4.8914Y2.649
X4.8918Y5.6492
X4.9051Y4.2
X4.9406Y2.5998
X4.941Y5.6
X4.9543Y4.2496
X4.9543Y4.1512
X5.0031Y4.2004
X5.0301Y3.3504
X5.0789Y3.3008
X5.0793Y3.3992
X5.0922Y2.6998
X5.0926Y5.7
X5.1285Y3.35
X5.1414Y2.7494
X5.1414Y2.651
X5.1418Y5.7496
X5.1418Y5.6512
X5.1903Y2.7002
X5.1906Y5.7004
X5.2176Y4.8504
X5.2664Y4.8008
X5.2668Y4.8992
X5.2801Y3.45
X5.316Y4.85
X5.3293Y3.4996
X5.3293Y3.4012
X5.3781Y3.4504
X5.4051Y4.1004
X5.4539Y4.0508
X5.4543Y4.1492
X5.4676Y4.95
X5.5035Y4.1
X5.5168Y4.9996
X5.5168Y4.9012
X5.5656Y4.9504
X5.5926Y5.6004
X5.6414Y5.5508
X5.6418Y5.6492
X5.6551Y4.2
X5.691Y5.6
X5.7043Y4.2496
X5.7043Y4.1512
X5.7531Y4.2004
X5.7801Y3.3504
X5.8289Y3.3008
X5.8293Y3.3992
X5.8426Y5.7
X5.8785Y3.35
X5.8918Y5.7496
X5.8918Y5.6512
X5.9406Y5.7004
X5.9676Y4.8504
X6.0164Y4.8008
X6.0168Y4.8992
X6.0301Y3.45
X6.066Y4.85
X6.0793Y3.4996
X6.0793Y3.4012
X6.1281Y3.4504
X6.1551Y4.1004
X6.2039Y4.0508
X6.2043Y4.1492
X6.2176Y4.95
X6.2535Y4.1
X6.2668Y4.9996
X6.2668Y4.9012
X6.3156Y4.9504
X6.3426Y5.6004
X6.3914Y5.5508
X6.3918Y5.6492
X6.4051Y4.2
X6.441Y5.6
X6.4543Y4.2496
X6.4543Y4.1512
X6.5031Y4.2004
X6.5301Y3.3504
X6.5789Y3.3008
X6.5793Y3.3992
X6.5926Y5.7
X6.6285Y3.35
X6.6418Y5.7496
X6.6418Y5.6512
X6.6906Y5.7004
X6.7176Y4.8504
X6.7664Y4.8008
X6.7668Y4.8992
X6.7801Y3.45
X6.816Y4.85
X6.8293Y3.4996
X6.8293Y3.4012
X6.8781Y3.4504
X6.9051Y4.1004
X6.9539Y4.0508
X6.9543Y4.1492
X6.9676Y4.95
X7.0035Y4.1
X7.0168Y4.9996
X7.0168Y4.9012
X7.0656Y4.9504
X7.0926Y5.6004
X7.1414Y5.5508
X7.1418Y5.6492
X7.1551Y4.2
X7.1864Y2.6004
X7.191Y5.6
X7.2043Y4.2496
X7.2043Y4.1512
X7.2352Y2.5508
X7.2356Y2.6492
X7.2531Y4.2004
X7.2801Y3.3504
X7.2848Y2.6
X7.3289Y3.3008
X7.3293Y3.3992
X7.3426Y5.7
X7.3785Y3.35
X7.3918Y5.7496
X7.3918Y5.6512
X7.4364Y2.7
X7.4406Y5.7004
X7.4676Y4.8504
X7.4856Y2.7496
X7.4856Y2.6512
X7.5164Y4.8008
X7.5168Y4.8992
X7.5301Y3.45
X7.5344Y2.7004
X7.566Y4.85
X7.5793Y3.4996
X7.5793Y3.4012
X7.6281Y3.4504
X7.6551Y4.1004
X7.7039Y4.0508
X7.7043Y4.1492
X7.7176Y4.95
X7.7535Y4.1
X7.7668Y4.9996
X7.7668Y4.9012
X7.8156Y4.9504
X7.8426Y5.6004
X7.8914Y5.5508
X7.8918Y5.6492
X7.9051Y4.2
X7.941Y5.6
X7.9543Y4.2496
X7.9543Y4.1512
X8.0031Y4.2004
X8.0301Y3.3504
X8.0301Y2.6004
X8.0789Y3.3008
X8.079Y2.5508
X8.0793Y3.3992
X8.0794Y2.6492
X8.0926Y5.7
X8.1239Y2.6004
X8.1285Y3.35
X8.1286Y2.6
X8.1418Y5.7496
X8.1418Y5.6512
X8.1727Y2.5508
X8.1731Y2.6492
X8.1906Y5.7004
X8.2176Y4.8504
X8.2223Y2.6
X8.2664Y4.8008
X8.2668Y4.8992
X8.2801Y3.45
X8.2801Y2.7
X8.316Y4.85
X8.3293Y3.4996
X8.3293Y3.4012
X8.3294Y2.7496
X8.3294Y2.6512
X8.3739Y2.7
X8.3781Y3.4504
X8.3782Y2.7004
X8.4051Y4.1004
X8.4231Y2.7496
X8.4231Y2.6512
X8.4539Y4.0508
X8.4543Y4.1492
X8.4676Y4.95
X8.4719Y2.7004
X8.5035Y4.1
X8.5168Y4.9996
X8.5168Y4.9012
X8.5656Y4.9504
X8.5926Y5.6004
X8.6414Y5.5508
X8.6418Y5.6492
X8.6551Y4.2
X8.691Y5.6
X8.7043Y4.2496
X8.7043Y4.1512
X8.7531Y4.2004
X8.8426Y5.7
X8.8918Y5.7496
X8.8918Y5.6512
X8.9406Y5.7004
X8.9676Y4.8504
X9.0164Y4.8008
X9.0168Y4.8992
X9.0614Y3.3504
X9.066Y4.85
X9.1102Y3.3008
X9.1106Y3.3992
X9.1598Y3.35
X9.2176Y4.95
X9.2668Y4.9996
X9.2668Y4.9012
X9.3114Y3.45
X9.3156Y4.9504
X9.3426Y5.6004
X9.3426Y2.6004
X9.3606Y3.4996
X9.3606Y3.4012
X9.3914Y5.5508
X9.3914Y2.5508
X9.3918Y5.6492
X9.3918Y2.6492
X9.4094Y3.4504
X9.441Y5.6
X9.441Y2.6
X9.5926Y5.7
X9.5926Y2.7
X9.6268Y4.1004
X9.6418Y5.7496
X9.6418Y5.6512
X9.6418Y2.7496
X9.6418Y2.6512
X9.6756Y4.0508
X9.676Y4.1492
X9.6906Y5.7004
X9.6906Y2.7004
X9.7176Y5.6004
X9.7252Y4.1
X9.7664Y5.5508
X9.7668Y5.6492
X9.816Y5.6
X9.8768Y4.2
X9.9051Y4.8504
X9.926Y4.2496
X9.926Y4.1512
X9.954Y4.8008
X9.9544Y4.8992
X9.9676Y5.7
X9.9748Y4.2004
X10.0036Y4.85
X10.0168Y5.7496
X10.0168Y5.6512
X10.0656Y5.7004
X10.0926Y5.6004
X10.0926Y3.3504
X10.0926Y2.6004
X10.1414Y5.5508
X10.1414Y3.3008
X10.1414Y2.5508
X10.1418Y5.6492
X10.1418Y3.3992
X10.1418Y2.6492
X10.1551Y4.95
X10.191Y5.6
X10.191Y3.35
X10.191Y2.6
X10.2044Y4.9996
X10.2044Y4.9012
X10.2532Y4.9504
X10.3426Y5.7
X10.3426Y3.45
X10.3426Y2.7
X10.3918Y5.7496
X10.3918Y5.6512
X10.3918Y3.4996
X10.3918Y3.4012
X10.3918Y2.7496
X10.3918Y2.6512
X10.4406Y5.7004
X10.4406Y3.4504
X10.4406Y2.7004
X10.8426Y5.6004
X10.8426Y4.8504
X10.8426Y4.1004
X10.8426Y3.3504
X10.8426Y2.6004
X10.8914Y5.5508
X10.8914Y4.8008
X10.8914Y4.0508
X10.8914Y3.3008
X10.8914Y2.5508
X10.8918Y5.6492
X10.8918Y4.8992
X10.8918Y4.1492
X10.8918Y3.3992
X10.8918Y2.6492
X10.941Y5.6
X10.941Y4.85
X10.941Y4.1
X10.941Y3.35
X10.941Y2.6
X11.0926Y5.7
X11.0926Y4.95
X11.0926Y4.2
X11.0926Y3.45
X11.0926Y2.7
X11.1418Y5.7496
X11.1418Y5.6512
X11.1418Y4.9996
X11.1418Y4.9012
X11.1418Y4.2496
X11.1418Y4.1512
X11.1418Y3.4996
X11.1418Y3.4012
X11.1418Y2.7496
X11.1418Y2.6512
X11.1906Y5.7004
X11.1906Y4.9504
X11.1906Y4.2004
X11.1906Y3.4504
X11.1906Y2.7004
T4
X8.8193Y2.198
X8.898Y2.198
X8.9768Y2.198
X9.0555Y2.198
X9.1343Y2.198
T5
X6.8669Y2.6335
X6.8673Y2.4791
X6.9654Y2.6335
X6.9657Y2.4791
T6
X-0.3582Y5.6
X-0.2644Y4.1
X-0.2644Y2.6
X-0.1706Y4.85
X-0.1706Y2.6
X-0.1082Y5.7
X-0.0769Y4.1
X-0.0144Y4.2
X-0.0144Y2.7
X0.0794Y4.95
X0.0794Y2.7
X0.1135Y3.35
X0.1731Y4.2
X0.3635Y3.45
X0.3918Y5.6
X0.6418Y5.7
X0.6731Y2.6
X0.7668Y4.85
X0.7668Y2.6
X0.9231Y2.7
X0.9543Y4.1
X1.0168Y4.95
X1.0168Y2.7
X1.1418Y5.6
X1.2043Y4.2
X1.3293Y3.35
X1.3918Y5.7
X1.5168Y4.85
X1.5793Y3.45
X1.6106Y2.6
X1.7043Y4.1
X1.7044Y2.6
X1.7668Y4.95
X1.8606Y2.7
X1.8918Y5.6
X1.9543Y4.2
X1.9544Y2.7
X2.0793Y3.35
X2.1418Y5.7
X2.2668Y4.85
X2.3293Y3.45
X2.4543Y4.1
X2.5168Y4.95
X2.6418Y5.6
X2.7043Y4.2
X2.8293Y3.35
X2.8918Y5.7
X3.0168Y4.85
X3.0793Y3.45
X3.2043Y4.1
X3.2668Y4.95
X3.3918Y5.6
X3.4543Y4.2
X3.5793Y3.35
X3.6418Y5.7
X3.7668Y4.85
X3.8293Y3.45
X3.9543Y4.1
X4.0168Y4.95
X4.1418Y5.6
X4.2043Y4.2
X4.3293Y3.35
X4.3918Y5.7
X4.4231Y2.6
X4.5168Y4.85
X4.5793Y3.45
X4.6731Y2.7
X4.7043Y4.1
X4.7668Y4.95
X4.8914Y2.5998
X4.8918Y5.6
X4.9543Y4.2
X5.0793Y3.35
X5.1414Y2.6998
X5.1418Y5.7
X5.2668Y4.85
X5.3293Y3.45
X5.4543Y4.1
X5.5168Y4.95
X5.6418Y5.6
X5.7043Y4.2
X5.8293Y3.35
X5.8918Y5.7
X6.0168Y4.85
X6.0793Y3.45
X6.2043Y4.1
X6.2668Y4.95
X6.3918Y5.6
X6.4543Y4.2
X6.5793Y3.35
X6.6418Y5.7
X6.7668Y4.85
X6.8293Y3.45
X6.9543Y4.1
X7.0168Y4.95
X7.1418Y5.6
X7.2043Y4.2
X7.2356Y2.6
X7.3293Y3.35
X7.3918Y5.7
X7.4856Y2.7
X7.5168Y4.85
X7.5793Y3.45
X7.7043Y4.1
X7.7668Y4.95
X7.8918Y5.6
X7.9543Y4.2
X8.0793Y3.35
X8.0794Y2.6
X8.1418Y5.7
X8.1731Y2.6
X8.2668Y4.85
X8.3293Y3.45
X8.3294Y2.7
X8.4231Y2.7
X8.4543Y4.1
X8.5168Y4.95
X8.6418Y5.6
X8.7043Y4.2
X8.8918Y5.7
X9.0168Y4.85
X9.1106Y3.35
X9.2668Y4.95
X9.3606Y3.45
X9.3918Y5.6
X9.3918Y2.6
X9.6418Y5.7
X9.6418Y2.7
X9.676Y4.1
X9.7668Y5.6
X9.926Y4.2
X9.9544Y4.85
X10.0168Y5.7
X10.1418Y5.6
X10.1418Y3.35
X10.1418Y2.6
X10.2044Y4.95
X10.3918Y5.7
X10.3918Y3.45
X10.3918Y2.7
X10.8918Y5.6
X10.8918Y4.85
X10.8918Y4.1
X10.8918Y3.35
X10.8918Y2.6
X11.1418Y5.7
X11.1418Y4.95
X11.1418Y4.2
X11.1418Y3.45
X11.1418Y2.7
T3
G00X5.2469Y5.9819
M15
G01X5.2469Y6.0055
M16
G05
G00X5.2469Y6.0055
M15
G01X5.2469Y5.9819
M16
G05
G00X5.2469Y5.8075
M15
G01X5.2469Y5.8508
M16
G05
G00X5.2469Y5.8508
M15
G01X5.2469Y5.8075
M16
G05
G00X5.5871Y5.9819
M15
G01X5.5871Y6.0055
M16
G05
G00X5.5871Y6.0055
M15
G01X5.5871Y5.9819
M16
G05
G00X5.5871Y5.8508
M15
G01X5.5871Y5.8075
M16
G05
G00X5.5871Y5.8075
M15
G01X5.5871Y5.8508
M16
G05
M30
