%TF.GenerationSoftware,KiCad,Pcbnew,8.99.0-946-gf00a1ab517*%
%TF.CreationDate,2024-06-04T13:04:33+07:00*%
%TF.ProjectId,Sessantacinque65,53657373-616e-4746-9163-696e71756536,rev?*%
%TF.SameCoordinates,Original*%
%TF.FileFunction,Soldermask,Bot*%
%TF.FilePolarity,Negative*%
%FSLAX46Y46*%
G04 Gerber Fmt 4.6, Leading zero omitted, Abs format (unit mm)*
G04 Created by KiCad (PCBNEW 8.99.0-946-gf00a1ab517) date 2024-06-04 13:04:33*
%MOMM*%
%LPD*%
G01*
G04 APERTURE LIST*
G04 Aperture macros list*
%AMRoundRect*
0 Rectangle with rounded corners*
0 $1 Rounding radius*
0 $2 $3 $4 $5 $6 $7 $8 $9 X,Y pos of 4 corners*
0 Add a 4 corners polygon primitive as box body*
4,1,4,$2,$3,$4,$5,$6,$7,$8,$9,$2,$3,0*
0 Add four circle primitives for the rounded corners*
1,1,$1+$1,$2,$3*
1,1,$1+$1,$4,$5*
1,1,$1+$1,$6,$7*
1,1,$1+$1,$8,$9*
0 Add four rect primitives between the rounded corners*
20,1,$1+$1,$2,$3,$4,$5,0*
20,1,$1+$1,$4,$5,$6,$7,0*
20,1,$1+$1,$6,$7,$8,$9,0*
20,1,$1+$1,$8,$9,$2,$3,0*%
G04 Aperture macros list end*
%ADD10C,1.700000*%
%ADD11C,4.000000*%
%ADD12C,0.400000*%
%ADD13C,3.000000*%
%ADD14RoundRect,0.250000X-0.600000X-0.750000X0.600000X-0.750000X0.600000X0.750000X-0.600000X0.750000X0*%
%ADD15O,1.700000X2.000000*%
%ADD16C,3.987800*%
%ADD17C,3.048000*%
%ADD18C,0.650000*%
%ADD19O,1.000000X2.100000*%
%ADD20O,1.000000X1.600000*%
%ADD21RoundRect,0.250000X-0.350000X-0.625000X0.350000X-0.625000X0.350000X0.625000X-0.350000X0.625000X0*%
%ADD22O,1.200000X1.750000*%
%ADD23RoundRect,0.250000X0.600000X-0.400000X0.600000X0.400000X-0.600000X0.400000X-0.600000X-0.400000X0*%
%ADD24R,1.500000X0.900000*%
%ADD25RoundRect,0.250000X-0.475000X0.250000X-0.475000X-0.250000X0.475000X-0.250000X0.475000X0.250000X0*%
%ADD26RoundRect,0.150000X-0.150000X0.512500X-0.150000X-0.512500X0.150000X-0.512500X0.150000X0.512500X0*%
%ADD27RoundRect,0.150000X-0.150000X-0.625000X0.150000X-0.625000X0.150000X0.625000X-0.150000X0.625000X0*%
%ADD28RoundRect,0.250000X-0.350000X-0.650000X0.350000X-0.650000X0.350000X0.650000X-0.350000X0.650000X0*%
%ADD29RoundRect,0.250000X-0.250000X-0.475000X0.250000X-0.475000X0.250000X0.475000X-0.250000X0.475000X0*%
%ADD30R,1.190000X3.000000*%
%ADD31RoundRect,0.250000X-0.450000X0.262500X-0.450000X-0.262500X0.450000X-0.262500X0.450000X0.262500X0*%
%ADD32RoundRect,0.250000X-0.400000X-0.600000X0.400000X-0.600000X0.400000X0.600000X-0.400000X0.600000X0*%
%ADD33RoundRect,0.375000X0.375000X-0.625000X0.375000X0.625000X-0.375000X0.625000X-0.375000X-0.625000X0*%
%ADD34RoundRect,0.500000X1.400000X-0.500000X1.400000X0.500000X-1.400000X0.500000X-1.400000X-0.500000X0*%
%ADD35RoundRect,0.250000X0.250000X0.475000X-0.250000X0.475000X-0.250000X-0.475000X0.250000X-0.475000X0*%
%ADD36R,0.600000X1.760000*%
%ADD37R,0.300000X1.760000*%
%ADD38R,0.600000X1.450000*%
%ADD39RoundRect,0.075000X0.075000X-0.662500X0.075000X0.662500X-0.075000X0.662500X-0.075000X-0.662500X0*%
%ADD40RoundRect,0.075000X0.662500X-0.075000X0.662500X0.075000X-0.662500X0.075000X-0.662500X-0.075000X0*%
%ADD41RoundRect,0.250000X0.262500X0.450000X-0.262500X0.450000X-0.262500X-0.450000X0.262500X-0.450000X0*%
G04 APERTURE END LIST*
D10*
%TO.C,SW12*%
X199182500Y139700000D03*
D11*
X204262500Y139700000D03*
D10*
X209342500Y139700000D03*
D12*
X199202500Y142250000D03*
X200442500Y140990000D03*
X200452500Y143490000D03*
D13*
X200452500Y142240000D03*
D12*
X201702500Y142240000D03*
X205552500Y144780000D03*
X206802500Y146040000D03*
D13*
X206802500Y144780000D03*
D12*
X206802500Y143540000D03*
X208042500Y144790000D03*
%TD*%
D10*
%TO.C,SW9*%
X142032500Y139700000D03*
D11*
X147112500Y139700000D03*
D10*
X152192500Y139700000D03*
D12*
X142052500Y142250000D03*
X143292500Y140990000D03*
X143302500Y143490000D03*
D13*
X143302500Y142240000D03*
D12*
X144552500Y142240000D03*
X148402500Y144780000D03*
X149652500Y146040000D03*
D13*
X149652500Y144780000D03*
D12*
X149652500Y143540000D03*
X150892500Y144790000D03*
%TD*%
D10*
%TO.C,SW72*%
X237282500Y63500000D03*
D11*
X242362500Y63500000D03*
D10*
X247442500Y63500000D03*
D12*
X237302500Y66050000D03*
X238542500Y64790000D03*
X238552500Y67290000D03*
D13*
X238552500Y66040000D03*
D12*
X239802500Y66040000D03*
X243652500Y68580000D03*
X244902500Y69840000D03*
D13*
X244902500Y68580000D03*
D12*
X244902500Y67340000D03*
X246142500Y68590000D03*
%TD*%
D10*
%TO.C,SW14*%
X256332500Y139700000D03*
D11*
X261412500Y139700000D03*
D10*
X266492500Y139700000D03*
D12*
X256352500Y142250000D03*
X257592500Y140990000D03*
X257602500Y143490000D03*
D13*
X257602500Y142240000D03*
D12*
X258852500Y142240000D03*
X262702500Y144780000D03*
X263952500Y146040000D03*
D13*
X263952500Y144780000D03*
D12*
X263952500Y143540000D03*
X265192500Y144790000D03*
%TD*%
D10*
%TO.C,SW20*%
X75357500Y120650000D03*
D11*
X80437500Y120650000D03*
D10*
X85517500Y120650000D03*
D12*
X75377500Y123200000D03*
X76617500Y121940000D03*
X76627500Y124440000D03*
D13*
X76627500Y123190000D03*
D12*
X77877500Y123190000D03*
X81727500Y125730000D03*
X82977500Y126990000D03*
D13*
X82977500Y125730000D03*
D12*
X82977500Y124490000D03*
X84217500Y125740000D03*
%TD*%
D14*
%TO.C,SWb\u00F4t1*%
X174430000Y62970000D03*
D15*
X176930000Y62970000D03*
%TD*%
D10*
%TO.C,SW22*%
X113457500Y120650000D03*
D11*
X118537500Y120650000D03*
D10*
X123617500Y120650000D03*
D12*
X113477500Y123200000D03*
X114717500Y121940000D03*
X114727500Y124440000D03*
D13*
X114727500Y123190000D03*
D12*
X115977500Y123190000D03*
X119827500Y125730000D03*
X121077500Y126990000D03*
D13*
X121077500Y125730000D03*
D12*
X121077500Y124490000D03*
X122317500Y125740000D03*
%TD*%
D10*
%TO.C,SW74*%
X275382500Y63500000D03*
D11*
X280462500Y63500000D03*
D10*
X285542500Y63500000D03*
D12*
X275402500Y66050000D03*
X276642500Y64790000D03*
X276652500Y67290000D03*
D13*
X276652500Y66040000D03*
D12*
X277902500Y66040000D03*
X281752500Y68580000D03*
X283002500Y69840000D03*
D13*
X283002500Y68580000D03*
D12*
X283002500Y67340000D03*
X284242500Y68590000D03*
%TD*%
D10*
%TO.C,SW47*%
X-7986500Y63500000D03*
D11*
X-2906500Y63500000D03*
D10*
X2173500Y63500000D03*
D12*
X-7966500Y66050000D03*
X-6726500Y64790000D03*
X-6716500Y67290000D03*
D13*
X-6716500Y66040000D03*
D12*
X-5466500Y66040000D03*
X-1616500Y68580000D03*
X-366500Y69840000D03*
D13*
X-366500Y68580000D03*
D12*
X-366500Y67340000D03*
X873500Y68590000D03*
%TD*%
D10*
%TO.C,SW1*%
X-10367500Y139700000D03*
D11*
X-5287500Y139700000D03*
D10*
X-207500Y139700000D03*
D12*
X-10347500Y142250000D03*
X-9107500Y140990000D03*
X-9097500Y143490000D03*
D13*
X-9097500Y142240000D03*
D12*
X-7847500Y142240000D03*
X-3997500Y144780000D03*
X-2747500Y146040000D03*
D13*
X-2747500Y144780000D03*
D12*
X-2747500Y143540000D03*
X-1507500Y144790000D03*
%TD*%
D10*
%TO.C,SW43*%
X237282500Y139700000D03*
D11*
X242362500Y139700000D03*
D10*
X247442500Y139700000D03*
D12*
X237302500Y142250000D03*
X238542500Y140990000D03*
X238552500Y143490000D03*
D13*
X238552500Y142240000D03*
D12*
X239802500Y142240000D03*
X243652500Y144780000D03*
X244902500Y146040000D03*
D13*
X244902500Y144780000D03*
D12*
X244902500Y143540000D03*
X246142500Y144790000D03*
%TD*%
D10*
%TO.C,SW23*%
X132507500Y120650000D03*
D11*
X137587500Y120650000D03*
D10*
X142667500Y120650000D03*
D12*
X132527500Y123200000D03*
X133767500Y121940000D03*
X133777500Y124440000D03*
D13*
X133777500Y123190000D03*
D12*
X135027500Y123190000D03*
X138877500Y125730000D03*
X140127500Y126990000D03*
D13*
X140127500Y125730000D03*
D12*
X140127500Y124490000D03*
X141367500Y125740000D03*
%TD*%
D10*
%TO.C,SW59*%
X256332500Y82550000D03*
D11*
X261412500Y82550000D03*
D10*
X266492500Y82550000D03*
D12*
X256352500Y85100000D03*
X257592500Y83840000D03*
X257602500Y86340000D03*
D13*
X257602500Y85090000D03*
D12*
X258852500Y85090000D03*
X262702500Y87630000D03*
X263952500Y88890000D03*
D13*
X263952500Y87630000D03*
D12*
X263952500Y86390000D03*
X265192500Y87640000D03*
%TD*%
D10*
%TO.C,SW16*%
X-5604500Y120650000D03*
D11*
X-524500Y120650000D03*
D10*
X4555500Y120650000D03*
D12*
X-5584500Y123200000D03*
X-4344500Y121940000D03*
X-4334500Y124440000D03*
D13*
X-4334500Y123190000D03*
D12*
X-3084500Y123190000D03*
X765500Y125730000D03*
X2015500Y126990000D03*
D13*
X2015500Y125730000D03*
D12*
X2015500Y124490000D03*
X3255500Y125740000D03*
%TD*%
D10*
%TO.C,SW31*%
X-3223500Y101600000D03*
D11*
X1856500Y101600000D03*
D10*
X6936500Y101600000D03*
D12*
X-3203500Y104150000D03*
X-1963500Y102890000D03*
X-1953500Y105390000D03*
D13*
X-1953500Y104140000D03*
D12*
X-703500Y104140000D03*
X3146500Y106680000D03*
X4396500Y107940000D03*
D13*
X4396500Y106680000D03*
D12*
X4396500Y105440000D03*
X5636500Y106690000D03*
%TD*%
D10*
%TO.C,SW1006*%
X-7986500Y101600000D03*
D11*
X-2906500Y101600000D03*
D10*
X2173500Y101600000D03*
D12*
X-7966500Y104150000D03*
X-6726500Y102890000D03*
X-6716500Y105390000D03*
D13*
X-6716500Y104140000D03*
D12*
X-5466500Y104140000D03*
X-1616500Y106680000D03*
X-366500Y107940000D03*
D13*
X-366500Y106680000D03*
D12*
X-366500Y105440000D03*
X873500Y106690000D03*
%TD*%
D10*
%TO.C,SW51*%
X89645000Y82550000D03*
D11*
X94725000Y82550000D03*
D10*
X99805000Y82550000D03*
D12*
X89665000Y85100000D03*
X90905000Y83840000D03*
X90915000Y86340000D03*
D13*
X90915000Y85090000D03*
D12*
X92165000Y85090000D03*
X96015000Y87630000D03*
X97265000Y88890000D03*
D13*
X97265000Y87630000D03*
D12*
X97265000Y86390000D03*
X98505000Y87640000D03*
%TD*%
D10*
%TO.C,SW1002*%
X-5604500Y63500000D03*
D11*
X-524500Y63500000D03*
D10*
X4555500Y63500000D03*
D12*
X-5584500Y66050000D03*
X-4344500Y64790000D03*
X-4334500Y67290000D03*
D13*
X-4334500Y66040000D03*
D12*
X-3084500Y66040000D03*
X765500Y68580000D03*
X2015500Y69840000D03*
D13*
X2015500Y68580000D03*
D12*
X2015500Y67340000D03*
X3255500Y68590000D03*
%TD*%
D10*
%TO.C,SW57*%
X203945000Y82550000D03*
D11*
X209025000Y82550000D03*
D10*
X214105000Y82550000D03*
D12*
X203965000Y85100000D03*
X205205000Y83840000D03*
X205215000Y86340000D03*
D13*
X205215000Y85090000D03*
D12*
X206465000Y85090000D03*
X210315000Y87630000D03*
X211565000Y88890000D03*
D13*
X211565000Y87630000D03*
D12*
X211565000Y86390000D03*
X212805000Y87640000D03*
%TD*%
D10*
%TO.C,SW1005*%
X246807500Y139700000D03*
D11*
X251887500Y139700000D03*
D10*
X256967500Y139700000D03*
D12*
X246827500Y142250000D03*
X248067500Y140990000D03*
X248077500Y143490000D03*
D13*
X248077500Y142240000D03*
D12*
X249327500Y142240000D03*
X253177500Y144780000D03*
X254427500Y146040000D03*
D13*
X254427500Y144780000D03*
D12*
X254427500Y143540000D03*
X255667500Y144790000D03*
%TD*%
D10*
%TO.C,SW27*%
X208707500Y120650000D03*
D11*
X213787500Y120650000D03*
D10*
X218867500Y120650000D03*
D12*
X208727500Y123200000D03*
X209967500Y121940000D03*
X209977500Y124440000D03*
D13*
X209977500Y123190000D03*
D12*
X211227500Y123190000D03*
X215077500Y125730000D03*
X216327500Y126990000D03*
D13*
X216327500Y125730000D03*
D12*
X216327500Y124490000D03*
X217567500Y125740000D03*
%TD*%
D16*
%TO.C,SW1001*%
X70902500Y71750000D03*
D17*
X70902500Y56510000D03*
D10*
X122972500Y63495000D03*
D11*
X128052500Y63495000D03*
D10*
X133132500Y63495000D03*
D16*
X185202500Y71750000D03*
D17*
X185202500Y56510000D03*
D12*
X122992500Y66045000D03*
X124232500Y64785000D03*
X124242500Y67285000D03*
D13*
X124242500Y66035000D03*
D12*
X125492500Y66035000D03*
X129342500Y68575000D03*
X130592500Y69835000D03*
D13*
X130592500Y68575000D03*
D12*
X130592500Y67335000D03*
X131832500Y68585000D03*
%TD*%
D18*
%TO.C,J5*%
X140482500Y148590000D03*
X134702500Y148590000D03*
D19*
X141912500Y148060000D03*
D20*
X141912500Y152240000D03*
D19*
X133272500Y148060000D03*
D20*
X133272500Y152240000D03*
%TD*%
D10*
%TO.C,SW35*%
X80120000Y101600000D03*
D11*
X85200000Y101600000D03*
D10*
X90280000Y101600000D03*
D12*
X80140000Y104150000D03*
X81380000Y102890000D03*
X81390000Y105390000D03*
D13*
X81390000Y104140000D03*
D12*
X82640000Y104140000D03*
X86490000Y106680000D03*
X87740000Y107940000D03*
D13*
X87740000Y106680000D03*
D12*
X87740000Y105440000D03*
X88980000Y106690000D03*
%TD*%
D10*
%TO.C,SW18*%
X37257500Y120650000D03*
D11*
X42337500Y120650000D03*
D10*
X47417500Y120650000D03*
D12*
X37277500Y123200000D03*
X38517500Y121940000D03*
X38527500Y124440000D03*
D13*
X38527500Y123190000D03*
D12*
X39777500Y123190000D03*
X43627500Y125730000D03*
X44877500Y126990000D03*
D13*
X44877500Y125730000D03*
D12*
X44877500Y124490000D03*
X46117500Y125740000D03*
%TD*%
D10*
%TO.C,SW13*%
X218232500Y139700000D03*
D11*
X223312500Y139700000D03*
D10*
X228392500Y139700000D03*
D12*
X218252500Y142250000D03*
X219492500Y140990000D03*
X219502500Y143490000D03*
D13*
X219502500Y142240000D03*
D12*
X220752500Y142240000D03*
X224602500Y144780000D03*
X225852500Y146040000D03*
D13*
X225852500Y144780000D03*
D12*
X225852500Y143540000D03*
X227092500Y144790000D03*
%TD*%
D14*
%TO.C,SWb\u00F4trst1*%
X174420000Y66890000D03*
D15*
X176920000Y66890000D03*
%TD*%
D10*
%TO.C,SW49*%
X51545000Y82550000D03*
D11*
X56625000Y82550000D03*
D10*
X61705000Y82550000D03*
D12*
X51565000Y85100000D03*
X52805000Y83840000D03*
X52815000Y86340000D03*
D13*
X52815000Y85090000D03*
D12*
X54065000Y85090000D03*
X57915000Y87630000D03*
X59165000Y88890000D03*
D13*
X59165000Y87630000D03*
D12*
X59165000Y86390000D03*
X60405000Y87640000D03*
%TD*%
D10*
%TO.C,SW33*%
X42020000Y101600000D03*
D11*
X47100000Y101600000D03*
D10*
X52180000Y101600000D03*
D12*
X42040000Y104150000D03*
X43280000Y102890000D03*
X43290000Y105390000D03*
D13*
X43290000Y104140000D03*
D12*
X44540000Y104140000D03*
X48390000Y106680000D03*
X49640000Y107940000D03*
D13*
X49640000Y106680000D03*
D12*
X49640000Y105440000D03*
X50880000Y106690000D03*
%TD*%
D10*
%TO.C,SW60*%
X275382500Y82550000D03*
D11*
X280462500Y82550000D03*
D10*
X285542500Y82550000D03*
D12*
X275402500Y85100000D03*
X276642500Y83840000D03*
X276652500Y86340000D03*
D13*
X276652500Y85090000D03*
D12*
X277902500Y85090000D03*
X281752500Y87630000D03*
X283002500Y88890000D03*
D13*
X283002500Y87630000D03*
D12*
X283002500Y86390000D03*
X284242500Y87640000D03*
%TD*%
D10*
%TO.C,SW10*%
X161082500Y139700000D03*
D11*
X166162500Y139700000D03*
D10*
X171242500Y139700000D03*
D12*
X161102500Y142250000D03*
X162342500Y140990000D03*
X162352500Y143490000D03*
D13*
X162352500Y142240000D03*
D12*
X163602500Y142240000D03*
X167452500Y144780000D03*
X168702500Y146040000D03*
D13*
X168702500Y144780000D03*
D12*
X168702500Y143540000D03*
X169942500Y144790000D03*
%TD*%
D10*
%TO.C,SW19*%
X56307500Y120650000D03*
D11*
X61387500Y120650000D03*
D10*
X66467500Y120650000D03*
D12*
X56327500Y123200000D03*
X57567500Y121940000D03*
X57577500Y124440000D03*
D13*
X57577500Y123190000D03*
D12*
X58827500Y123190000D03*
X62677500Y125730000D03*
X63927500Y126990000D03*
D13*
X63927500Y125730000D03*
D12*
X63927500Y124490000D03*
X65167500Y125740000D03*
%TD*%
D10*
%TO.C,SW25*%
X170607500Y120650000D03*
D11*
X175687500Y120650000D03*
D10*
X180767500Y120650000D03*
D12*
X170627500Y123200000D03*
X171867500Y121940000D03*
X171877500Y124440000D03*
D13*
X171877500Y123190000D03*
D12*
X173127500Y123190000D03*
X176977500Y125730000D03*
X178227500Y126990000D03*
D13*
X178227500Y125730000D03*
D12*
X178227500Y124490000D03*
X179467500Y125740000D03*
%TD*%
D10*
%TO.C,SW1000*%
X203945500Y63500000D03*
D11*
X209025500Y63500000D03*
D10*
X214105500Y63500000D03*
D12*
X203965500Y66050000D03*
X205205500Y64790000D03*
X205215500Y67290000D03*
D13*
X205215500Y66040000D03*
D12*
X206465500Y66040000D03*
X210315500Y68580000D03*
X211565500Y69840000D03*
D13*
X211565500Y68580000D03*
D12*
X211565500Y67340000D03*
X212805500Y68590000D03*
%TD*%
D10*
%TO.C,SW15*%
X275382500Y139700000D03*
D11*
X280462500Y139700000D03*
D10*
X285542500Y139700000D03*
D12*
X275402500Y142250000D03*
X276642500Y140990000D03*
X276652500Y143490000D03*
D13*
X276652500Y142240000D03*
D12*
X277902500Y142240000D03*
X281752500Y144780000D03*
X283002500Y146040000D03*
D13*
X283002500Y144780000D03*
D12*
X283002500Y143540000D03*
X284242500Y144790000D03*
%TD*%
D10*
%TO.C,SW4*%
X46782500Y139700000D03*
D11*
X51862500Y139700000D03*
D10*
X56942500Y139700000D03*
D12*
X46802500Y142250000D03*
X48042500Y140990000D03*
X48052500Y143490000D03*
D13*
X48052500Y142240000D03*
D12*
X49302500Y142240000D03*
X53152500Y144780000D03*
X54402500Y146040000D03*
D13*
X54402500Y144780000D03*
D12*
X54402500Y143540000D03*
X55642500Y144790000D03*
%TD*%
D10*
%TO.C,SW38*%
X137270000Y101600000D03*
D11*
X142350000Y101600000D03*
D10*
X147430000Y101600000D03*
D12*
X137290000Y104150000D03*
X138530000Y102890000D03*
X138540000Y105390000D03*
D13*
X138540000Y104140000D03*
D12*
X139790000Y104140000D03*
X143640000Y106680000D03*
X144890000Y107940000D03*
D13*
X144890000Y106680000D03*
D12*
X144890000Y105440000D03*
X146130000Y106690000D03*
%TD*%
D10*
%TO.C,SW62*%
X39638500Y63500000D03*
D11*
X44718500Y63500000D03*
D10*
X49798500Y63500000D03*
D12*
X39658500Y66050000D03*
X40898500Y64790000D03*
X40908500Y67290000D03*
D13*
X40908500Y66040000D03*
D12*
X42158500Y66040000D03*
X46008500Y68580000D03*
X47258500Y69840000D03*
D13*
X47258500Y68580000D03*
D12*
X47258500Y67340000D03*
X48498500Y68590000D03*
%TD*%
D10*
%TO.C,SW11*%
X180132500Y139700000D03*
D11*
X185212500Y139700000D03*
D10*
X190292500Y139700000D03*
D12*
X180152500Y142250000D03*
X181392500Y140990000D03*
X181402500Y143490000D03*
D13*
X181402500Y142240000D03*
D12*
X182652500Y142240000D03*
X186502500Y144780000D03*
X187752500Y146040000D03*
D13*
X187752500Y144780000D03*
D12*
X187752500Y143540000D03*
X188992500Y144790000D03*
%TD*%
D10*
%TO.C,SW48*%
X32495000Y82550000D03*
D11*
X37575000Y82550000D03*
D10*
X42655000Y82550000D03*
D12*
X32515000Y85100000D03*
X33755000Y83840000D03*
X33765000Y86340000D03*
D13*
X33765000Y85090000D03*
D12*
X35015000Y85090000D03*
X38865000Y87630000D03*
X40115000Y88890000D03*
D13*
X40115000Y87630000D03*
D12*
X40115000Y86390000D03*
X41355000Y87640000D03*
%TD*%
D10*
%TO.C,SW32*%
X22970000Y101600000D03*
D11*
X28050000Y101600000D03*
D10*
X33130000Y101600000D03*
D12*
X22990000Y104150000D03*
X24230000Y102890000D03*
X24240000Y105390000D03*
D13*
X24240000Y104140000D03*
D12*
X25490000Y104140000D03*
X29340000Y106680000D03*
X30590000Y107940000D03*
D13*
X30590000Y106680000D03*
D12*
X30590000Y105440000D03*
X31830000Y106690000D03*
%TD*%
D10*
%TO.C,SW17*%
X18207500Y120650000D03*
D11*
X23287500Y120650000D03*
D10*
X28367500Y120650000D03*
D12*
X18227500Y123200000D03*
X19467500Y121940000D03*
X19477500Y124440000D03*
D13*
X19477500Y123190000D03*
D12*
X20727500Y123190000D03*
X24577500Y125730000D03*
X25827500Y126990000D03*
D13*
X25827500Y125730000D03*
D12*
X25827500Y124490000D03*
X27067500Y125740000D03*
%TD*%
D10*
%TO.C,SW69*%
X182513500Y63500000D03*
D11*
X187593500Y63500000D03*
D10*
X192673500Y63500000D03*
D12*
X182533500Y66050000D03*
X183773500Y64790000D03*
X183783500Y67290000D03*
D13*
X183783500Y66040000D03*
D12*
X185033500Y66040000D03*
X188883500Y68580000D03*
X190133500Y69840000D03*
D13*
X190133500Y68580000D03*
D12*
X190133500Y67340000D03*
X191373500Y68590000D03*
%TD*%
D10*
%TO.C,SW40*%
X175370000Y101600000D03*
D11*
X180450000Y101600000D03*
D10*
X185530000Y101600000D03*
D12*
X175390000Y104150000D03*
X176630000Y102890000D03*
X176640000Y105390000D03*
D13*
X176640000Y104140000D03*
D12*
X177890000Y104140000D03*
X181740000Y106680000D03*
X182990000Y107940000D03*
D13*
X182990000Y106680000D03*
D12*
X182990000Y105440000D03*
X184230000Y106690000D03*
%TD*%
D10*
%TO.C,SW52*%
X108695000Y82550000D03*
D11*
X113775000Y82550000D03*
D10*
X118855000Y82550000D03*
D12*
X108715000Y85100000D03*
X109955000Y83840000D03*
X109965000Y86340000D03*
D13*
X109965000Y85090000D03*
D12*
X111215000Y85090000D03*
X115065000Y87630000D03*
X116315000Y88890000D03*
D13*
X116315000Y87630000D03*
D12*
X116315000Y86390000D03*
X117555000Y87640000D03*
%TD*%
D10*
%TO.C,SW21*%
X94407500Y120650000D03*
D11*
X99487500Y120650000D03*
D10*
X104567500Y120650000D03*
D12*
X94427500Y123200000D03*
X95667500Y121940000D03*
X95677500Y124440000D03*
D13*
X95677500Y123190000D03*
D12*
X96927500Y123190000D03*
X100777500Y125730000D03*
X102027500Y126990000D03*
D13*
X102027500Y125730000D03*
D12*
X102027500Y124490000D03*
X103267500Y125740000D03*
%TD*%
D10*
%TO.C,SW24*%
X151557500Y120650000D03*
D11*
X156637500Y120650000D03*
D10*
X161717500Y120650000D03*
D12*
X151577500Y123200000D03*
X152817500Y121940000D03*
X152827500Y124440000D03*
D13*
X152827500Y123190000D03*
D12*
X154077500Y123190000D03*
X157927500Y125730000D03*
X159177500Y126990000D03*
D13*
X159177500Y125730000D03*
D12*
X159177500Y124490000D03*
X160417500Y125740000D03*
%TD*%
D10*
%TO.C,SW2*%
X8682500Y139700000D03*
D11*
X13762500Y139700000D03*
D10*
X18842500Y139700000D03*
D12*
X8702500Y142250000D03*
X9942500Y140990000D03*
X9952500Y143490000D03*
D13*
X9952500Y142240000D03*
D12*
X11202500Y142240000D03*
X15052500Y144780000D03*
X16302500Y146040000D03*
D13*
X16302500Y144780000D03*
D12*
X16302500Y143540000D03*
X17542500Y144790000D03*
%TD*%
D10*
%TO.C,SW73*%
X256332500Y63500000D03*
D11*
X261412500Y63500000D03*
D10*
X266492500Y63500000D03*
D12*
X256352500Y66050000D03*
X257592500Y64790000D03*
X257602500Y67290000D03*
D13*
X257602500Y66040000D03*
D12*
X258852500Y66040000D03*
X262702500Y68580000D03*
X263952500Y69840000D03*
D13*
X263952500Y68580000D03*
D12*
X263952500Y67340000D03*
X265192500Y68590000D03*
%TD*%
D10*
%TO.C,SW28*%
X227757500Y120650000D03*
D11*
X232837500Y120650000D03*
D10*
X237917500Y120650000D03*
D12*
X227777500Y123200000D03*
X229017500Y121940000D03*
X229027500Y124440000D03*
D13*
X229027500Y123190000D03*
D12*
X230277500Y123190000D03*
X234127500Y125730000D03*
X235377500Y126990000D03*
D13*
X235377500Y125730000D03*
D12*
X235377500Y124490000D03*
X236617500Y125740000D03*
%TD*%
D10*
%TO.C,SW1004*%
X42020500Y63500000D03*
D11*
X47100500Y63500000D03*
D10*
X52180500Y63500000D03*
D12*
X42040500Y66050000D03*
X43280500Y64790000D03*
X43290500Y67290000D03*
D13*
X43290500Y66040000D03*
D12*
X44540500Y66040000D03*
X48390500Y68580000D03*
X49640500Y69840000D03*
D13*
X49640500Y68580000D03*
D12*
X49640500Y67340000D03*
X50880500Y68590000D03*
%TD*%
D17*
%TO.C,SW44*%
X237642600Y108585000D03*
D16*
X237642600Y93345000D03*
D10*
X244500600Y101600000D03*
D11*
X249580600Y101600000D03*
D10*
X254660600Y101600000D03*
D17*
X261518600Y108585000D03*
D16*
X261518600Y93345000D03*
D12*
X244520600Y104150000D03*
X245760600Y102890000D03*
X245770600Y105390000D03*
D13*
X245770600Y104140000D03*
D12*
X247020600Y104140000D03*
X250870600Y106680000D03*
X252120600Y107940000D03*
D13*
X252120600Y106680000D03*
D12*
X252120600Y105440000D03*
X253360600Y106690000D03*
%TD*%
D10*
%TO.C,SW58*%
X230139000Y82550000D03*
D11*
X235219000Y82550000D03*
D10*
X240299000Y82550000D03*
D12*
X230159000Y85100000D03*
X231399000Y83840000D03*
X231409000Y86340000D03*
D13*
X231409000Y85090000D03*
D12*
X232659000Y85090000D03*
X236509000Y87630000D03*
X237759000Y88890000D03*
D13*
X237759000Y87630000D03*
D12*
X237759000Y86390000D03*
X238999000Y87640000D03*
%TD*%
D10*
%TO.C,SW54*%
X146795000Y82550000D03*
D11*
X151875000Y82550000D03*
D10*
X156955000Y82550000D03*
D12*
X146815000Y85100000D03*
X148055000Y83840000D03*
X148065000Y86340000D03*
D13*
X148065000Y85090000D03*
D12*
X149315000Y85090000D03*
X153165000Y87630000D03*
X154415000Y88890000D03*
D13*
X154415000Y87630000D03*
D12*
X154415000Y86390000D03*
X155655000Y87640000D03*
%TD*%
D10*
%TO.C,SW29*%
X251570500Y120650000D03*
D11*
X256650500Y120650000D03*
D10*
X261730500Y120650000D03*
D12*
X251590500Y123200000D03*
X252830500Y121940000D03*
X252840500Y124440000D03*
D13*
X252840500Y123190000D03*
D12*
X254090500Y123190000D03*
X257940500Y125730000D03*
X259190500Y126990000D03*
D13*
X259190500Y125730000D03*
D12*
X259190500Y124490000D03*
X260430500Y125740000D03*
%TD*%
D10*
%TO.C,SW55*%
X165845000Y82550000D03*
D11*
X170925000Y82550000D03*
D10*
X176005000Y82550000D03*
D12*
X165865000Y85100000D03*
X167105000Y83840000D03*
X167115000Y86340000D03*
D13*
X167115000Y85090000D03*
D12*
X168365000Y85090000D03*
X172215000Y87630000D03*
X173465000Y88890000D03*
D13*
X173465000Y87630000D03*
D12*
X173465000Y86390000D03*
X174705000Y87640000D03*
%TD*%
D10*
%TO.C,SW53*%
X127745000Y82550000D03*
D11*
X132825000Y82550000D03*
D10*
X137905000Y82550000D03*
D12*
X127765000Y85100000D03*
X129005000Y83840000D03*
X129015000Y86340000D03*
D13*
X129015000Y85090000D03*
D12*
X130265000Y85090000D03*
X134115000Y87630000D03*
X135365000Y88890000D03*
D13*
X135365000Y87630000D03*
D12*
X135365000Y86390000D03*
X136605000Y87640000D03*
%TD*%
D10*
%TO.C,SW61*%
X15826000Y63500000D03*
D11*
X20906000Y63500000D03*
D10*
X25986000Y63500000D03*
D12*
X15846000Y66050000D03*
X17086000Y64790000D03*
X17096000Y67290000D03*
D13*
X17096000Y66040000D03*
D12*
X18346000Y66040000D03*
X22196000Y68580000D03*
X23446000Y69840000D03*
D13*
X23446000Y68580000D03*
D12*
X23446000Y67340000D03*
X24686000Y68590000D03*
%TD*%
D16*
%TO.C,SW66*%
X66156100Y71755000D03*
D17*
X66156100Y56515000D03*
D10*
X111076000Y63500000D03*
D11*
X116156000Y63500000D03*
D10*
X121236000Y63500000D03*
D16*
X166155900Y71755000D03*
D17*
X166155900Y56515000D03*
D12*
X111096000Y66050000D03*
X112336000Y64790000D03*
X112346000Y67290000D03*
D13*
X112346000Y66040000D03*
D12*
X113596000Y66040000D03*
X117446000Y68580000D03*
X118696000Y69840000D03*
D13*
X118696000Y68580000D03*
D12*
X118696000Y67340000D03*
X119936000Y68590000D03*
%TD*%
D10*
%TO.C,SW36*%
X99170000Y101600000D03*
D11*
X104250000Y101600000D03*
D10*
X109330000Y101600000D03*
D12*
X99190000Y104150000D03*
X100430000Y102890000D03*
X100440000Y105390000D03*
D13*
X100440000Y104140000D03*
D12*
X101690000Y104140000D03*
X105540000Y106680000D03*
X106790000Y107940000D03*
D13*
X106790000Y106680000D03*
D12*
X106790000Y105440000D03*
X108030000Y106690000D03*
%TD*%
D21*
%TO.C,J2*%
X224010000Y55830000D03*
D22*
X226010000Y55830000D03*
X228010000Y55830000D03*
X230010000Y55830000D03*
X232010000Y55830000D03*
%TD*%
D10*
%TO.C,SW7*%
X103932500Y139700000D03*
D11*
X109012500Y139700000D03*
D10*
X114092500Y139700000D03*
D12*
X103952500Y142250000D03*
X105192500Y140990000D03*
X105202500Y143490000D03*
D13*
X105202500Y142240000D03*
D12*
X106452500Y142240000D03*
X110302500Y144780000D03*
X111552500Y146040000D03*
D13*
X111552500Y144780000D03*
D12*
X111552500Y143540000D03*
X112792500Y144790000D03*
%TD*%
D17*
%TO.C,SW46*%
X-5244900Y89535000D03*
D16*
X-5244900Y74295000D03*
D10*
X1613100Y82550000D03*
D11*
X6693100Y82550000D03*
D10*
X11773100Y82550000D03*
D17*
X18631100Y89535000D03*
D16*
X18631100Y74295000D03*
D12*
X1633100Y85100000D03*
X2873100Y83840000D03*
X2883100Y86340000D03*
D13*
X2883100Y85090000D03*
D12*
X4133100Y85090000D03*
X7983100Y87630000D03*
X9233100Y88890000D03*
D13*
X9233100Y87630000D03*
D12*
X9233100Y86390000D03*
X10473100Y87640000D03*
%TD*%
D10*
%TO.C,SW5*%
X65832500Y139700000D03*
D11*
X70912500Y139700000D03*
D10*
X75992500Y139700000D03*
D12*
X65852500Y142250000D03*
X67092500Y140990000D03*
X67102500Y143490000D03*
D13*
X67102500Y142240000D03*
D12*
X68352500Y142240000D03*
X72202500Y144780000D03*
X73452500Y146040000D03*
D13*
X73452500Y144780000D03*
D12*
X73452500Y143540000D03*
X74692500Y144790000D03*
%TD*%
D10*
%TO.C,SW6*%
X84882500Y139700000D03*
D11*
X89962500Y139700000D03*
D10*
X95042500Y139700000D03*
D12*
X84902500Y142250000D03*
X86142500Y140990000D03*
X86152500Y143490000D03*
D13*
X86152500Y142240000D03*
D12*
X87402500Y142240000D03*
X91252500Y144780000D03*
X92502500Y146040000D03*
D13*
X92502500Y144780000D03*
D12*
X92502500Y143540000D03*
X93742500Y144790000D03*
%TD*%
D10*
%TO.C,SW3*%
X27732500Y139700000D03*
D11*
X32812500Y139700000D03*
D10*
X37892500Y139700000D03*
D12*
X27752500Y142250000D03*
X28992500Y140990000D03*
X29002500Y143490000D03*
D13*
X29002500Y142240000D03*
D12*
X30252500Y142240000D03*
X34102500Y144780000D03*
X35352500Y146040000D03*
D13*
X35352500Y144780000D03*
D12*
X35352500Y143540000D03*
X36592500Y144790000D03*
%TD*%
D10*
%TO.C,SW1003*%
X18207500Y63500000D03*
D11*
X23287500Y63500000D03*
D10*
X28367500Y63500000D03*
D12*
X18227500Y66050000D03*
X19467500Y64790000D03*
X19477500Y67290000D03*
D13*
X19477500Y66040000D03*
D12*
X20727500Y66040000D03*
X24577500Y68580000D03*
X25827500Y69840000D03*
D13*
X25827500Y68580000D03*
D12*
X25827500Y67340000D03*
X27067500Y68590000D03*
%TD*%
D10*
%TO.C,SW30*%
X275382500Y120650000D03*
D11*
X280462500Y120650000D03*
D10*
X285542500Y120650000D03*
D12*
X275402500Y123200000D03*
X276642500Y121940000D03*
X276652500Y124440000D03*
D13*
X276652500Y123190000D03*
D12*
X277902500Y123190000D03*
X281752500Y125730000D03*
X283002500Y126990000D03*
D13*
X283002500Y125730000D03*
D12*
X283002500Y124490000D03*
X284242500Y125740000D03*
%TD*%
D10*
%TO.C,SW26*%
X189657500Y120650000D03*
D11*
X194737500Y120650000D03*
D10*
X199817500Y120650000D03*
D12*
X189677500Y123200000D03*
X190917500Y121940000D03*
X190927500Y124440000D03*
D13*
X190927500Y123190000D03*
D12*
X192177500Y123190000D03*
X196027500Y125730000D03*
X197277500Y126990000D03*
D13*
X197277500Y125730000D03*
D12*
X197277500Y124490000D03*
X198517500Y125740000D03*
%TD*%
D10*
%TO.C,SW45*%
X275382500Y101600000D03*
D11*
X280462500Y101600000D03*
D10*
X285542500Y101600000D03*
D12*
X275402500Y104150000D03*
X276642500Y102890000D03*
X276652500Y105390000D03*
D13*
X276652500Y104140000D03*
D12*
X277902500Y104140000D03*
X281752500Y106680000D03*
X283002500Y107940000D03*
D13*
X283002500Y106680000D03*
D12*
X283002500Y105440000D03*
X284242500Y106690000D03*
%TD*%
D10*
%TO.C,SW8*%
X122982500Y139700000D03*
D11*
X128062500Y139700000D03*
D10*
X133142500Y139700000D03*
D12*
X123002500Y142250000D03*
X124242500Y140990000D03*
X124252500Y143490000D03*
D13*
X124252500Y142240000D03*
D12*
X125502500Y142240000D03*
X129352500Y144780000D03*
X130602500Y146040000D03*
D13*
X130602500Y144780000D03*
D12*
X130602500Y143540000D03*
X131842500Y144790000D03*
%TD*%
D10*
%TO.C,SW37*%
X118220000Y101600000D03*
D11*
X123300000Y101600000D03*
D10*
X128380000Y101600000D03*
D12*
X118240000Y104150000D03*
X119480000Y102890000D03*
X119490000Y105390000D03*
D13*
X119490000Y104140000D03*
D12*
X120740000Y104140000D03*
X124590000Y106680000D03*
X125840000Y107940000D03*
D13*
X125840000Y106680000D03*
D12*
X125840000Y105440000D03*
X127080000Y106690000D03*
%TD*%
D10*
%TO.C,SW50*%
X70595000Y82550000D03*
D11*
X75675000Y82550000D03*
D10*
X80755000Y82550000D03*
D12*
X70615000Y85100000D03*
X71855000Y83840000D03*
X71865000Y86340000D03*
D13*
X71865000Y85090000D03*
D12*
X73115000Y85090000D03*
X76965000Y87630000D03*
X78215000Y88890000D03*
D13*
X78215000Y87630000D03*
D12*
X78215000Y86390000D03*
X79455000Y87640000D03*
%TD*%
D10*
%TO.C,SW39*%
X156320000Y101600000D03*
D11*
X161400000Y101600000D03*
D10*
X166480000Y101600000D03*
D12*
X156340000Y104150000D03*
X157580000Y102890000D03*
X157590000Y105390000D03*
D13*
X157590000Y104140000D03*
D12*
X158840000Y104140000D03*
X162690000Y106680000D03*
X163940000Y107940000D03*
D13*
X163940000Y106680000D03*
D12*
X163940000Y105440000D03*
X165180000Y106690000D03*
%TD*%
D10*
%TO.C,SW70*%
X206326000Y63500000D03*
D11*
X211406000Y63500000D03*
D10*
X216486000Y63500000D03*
D12*
X206346000Y66050000D03*
X207586000Y64790000D03*
X207596000Y67290000D03*
D13*
X207596000Y66040000D03*
D12*
X208846000Y66040000D03*
X212696000Y68580000D03*
X213946000Y69840000D03*
D13*
X213946000Y68580000D03*
D12*
X213946000Y67340000D03*
X215186000Y68590000D03*
%TD*%
D10*
%TO.C,SW41*%
X194420000Y101600000D03*
D11*
X199500000Y101600000D03*
D10*
X204580000Y101600000D03*
D12*
X194440000Y104150000D03*
X195680000Y102890000D03*
X195690000Y105390000D03*
D13*
X195690000Y104140000D03*
D12*
X196940000Y104140000D03*
X200790000Y106680000D03*
X202040000Y107940000D03*
D13*
X202040000Y106680000D03*
D12*
X202040000Y105440000D03*
X203280000Y106690000D03*
%TD*%
D10*
%TO.C,SW34*%
X61070000Y101600000D03*
D11*
X66150000Y101600000D03*
D10*
X71230000Y101600000D03*
D12*
X61090000Y104150000D03*
X62330000Y102890000D03*
X62340000Y105390000D03*
D13*
X62340000Y104140000D03*
D12*
X63590000Y104140000D03*
X67440000Y106680000D03*
X68690000Y107940000D03*
D13*
X68690000Y106680000D03*
D12*
X68690000Y105440000D03*
X69930000Y106690000D03*
%TD*%
D10*
%TO.C,SW42*%
X213470000Y101600000D03*
D11*
X218550000Y101600000D03*
D10*
X223630000Y101600000D03*
D12*
X213490000Y104150000D03*
X214730000Y102890000D03*
X214740000Y105390000D03*
D13*
X214740000Y104140000D03*
D12*
X215990000Y104140000D03*
X219840000Y106680000D03*
X221090000Y107940000D03*
D13*
X221090000Y106680000D03*
D12*
X221090000Y105440000D03*
X222330000Y106690000D03*
%TD*%
D10*
%TO.C,SW56*%
X184895000Y82550000D03*
D11*
X189975000Y82550000D03*
D10*
X195055000Y82550000D03*
D12*
X184915000Y85100000D03*
X186155000Y83840000D03*
X186165000Y86340000D03*
D13*
X186165000Y85090000D03*
D12*
X187415000Y85090000D03*
X191265000Y87630000D03*
X192515000Y88890000D03*
D13*
X192515000Y87630000D03*
D12*
X192515000Y86390000D03*
X193755000Y87640000D03*
%TD*%
D23*
%TO.C,D23*%
X140670000Y117490000D03*
X140670000Y120990000D03*
%TD*%
%TO.C,D7*%
X112095000Y136540000D03*
X112095000Y140040000D03*
%TD*%
%TO.C,D10*%
X169245000Y136540000D03*
X169245000Y140040000D03*
%TD*%
D24*
%TO.C,DRGB2*%
X268490000Y128510000D03*
X268490000Y131810000D03*
X273390000Y131810000D03*
X273390000Y128510000D03*
%TD*%
D25*
%TO.C,C6*%
X134860000Y140410000D03*
X134860000Y138510000D03*
%TD*%
D23*
%TO.C,D41*%
X202582500Y98440000D03*
X202582500Y101940000D03*
%TD*%
%TO.C,D12*%
X207345000Y136540000D03*
X207345000Y140040000D03*
%TD*%
%TO.C,D9*%
X150195000Y136540000D03*
X150195000Y140040000D03*
%TD*%
%TO.C,D33*%
X50182500Y98440000D03*
X50182500Y101940000D03*
%TD*%
D26*
%TO.C,U3*%
X136640000Y140587500D03*
X137590000Y140587500D03*
X138540000Y140587500D03*
X138540000Y138312500D03*
X137590000Y138312500D03*
X136640000Y138312500D03*
%TD*%
D23*
%TO.C,D18*%
X45420000Y117490000D03*
X45420000Y120990000D03*
%TD*%
D27*
%TO.C,J4*%
X8742500Y119470000D03*
X9742500Y119470000D03*
X10742500Y119470000D03*
D28*
X7442500Y123345000D03*
D27*
X11742500Y119470000D03*
D28*
X13042500Y123345000D03*
%TD*%
D23*
%TO.C,D15*%
X283545000Y136540000D03*
X283545000Y140040000D03*
%TD*%
%TO.C,D27*%
X216870000Y117490000D03*
X216870000Y120990000D03*
%TD*%
%TO.C,D55*%
X174007500Y79390000D03*
X174007500Y82890000D03*
%TD*%
D29*
%TO.C,C1*%
X138290000Y68580000D03*
X140190000Y68580000D03*
%TD*%
D23*
%TO.C,D59*%
X264495000Y79390000D03*
X264495000Y82890000D03*
%TD*%
D24*
%TO.C,DRGB3*%
X230330000Y131060000D03*
X230330000Y134360000D03*
X235230000Y134360000D03*
X235230000Y131060000D03*
%TD*%
D30*
%TO.C,Dled1*%
X4948900Y96510000D03*
X-241100Y96510000D03*
%TD*%
D23*
%TO.C,D6*%
X93045000Y136540000D03*
X93045000Y140040000D03*
%TD*%
%TO.C,D32*%
X31132500Y98440000D03*
X31132500Y101940000D03*
%TD*%
%TO.C,D48*%
X40657500Y79390000D03*
X40657500Y82890000D03*
%TD*%
%TO.C,D22*%
X121620000Y117490000D03*
X121620000Y120990000D03*
%TD*%
D24*
%TO.C,DRGB14*%
X121140000Y74670000D03*
X121140000Y71370000D03*
X116240000Y71370000D03*
X116240000Y74670000D03*
%TD*%
D23*
%TO.C,D49*%
X59707500Y79390000D03*
X59707500Y82890000D03*
%TD*%
%TO.C,D24*%
X159720000Y117490000D03*
X159720000Y120990000D03*
%TD*%
%TO.C,D16*%
X2558000Y117490000D03*
X2558000Y120990000D03*
%TD*%
%TO.C,D35*%
X88282500Y98440000D03*
X88282500Y101940000D03*
%TD*%
D24*
%TO.C,DRGB16*%
X197010000Y74630000D03*
X197010000Y71330000D03*
X192110000Y71330000D03*
X192110000Y74630000D03*
%TD*%
%TO.C,DRGB17*%
X235300000Y74580000D03*
X235300000Y71280000D03*
X230400000Y71280000D03*
X230400000Y74580000D03*
%TD*%
D23*
%TO.C,D74*%
X283545000Y60340000D03*
X283545000Y63840000D03*
%TD*%
%TO.C,D39*%
X164482500Y98440000D03*
X164482500Y101940000D03*
%TD*%
D30*
%TO.C,Dled2*%
X-6001100Y96520000D03*
X-811100Y96520000D03*
%TD*%
D31*
%TO.C,R1*%
X170920000Y62920000D03*
X170920000Y61095000D03*
%TD*%
D29*
%TO.C,C4*%
X162340000Y66311100D03*
X164240000Y66311100D03*
%TD*%
D23*
%TO.C,D54*%
X154957500Y79390000D03*
X154957500Y82890000D03*
%TD*%
%TO.C,D47*%
X7080000Y60330000D03*
X7080000Y63830000D03*
%TD*%
D32*
%TO.C,D31*%
X350000Y110450000D03*
X3850000Y110450000D03*
%TD*%
D23*
%TO.C,D30*%
X283545000Y117490000D03*
X283545000Y120990000D03*
%TD*%
%TO.C,D11*%
X188295000Y136540000D03*
X188295000Y140040000D03*
%TD*%
%TO.C,D20*%
X83520000Y117490000D03*
X83520000Y120990000D03*
%TD*%
%TO.C,D4*%
X54945000Y136540000D03*
X54945000Y140040000D03*
%TD*%
%TO.C,D38*%
X145432500Y98440000D03*
X145432500Y101940000D03*
%TD*%
D24*
%TO.C,DRGB5*%
X154160000Y131060000D03*
X154160000Y134360000D03*
X159060000Y134360000D03*
X159060000Y131060000D03*
%TD*%
D23*
%TO.C,D14*%
X264495000Y136540000D03*
X264495000Y140040000D03*
%TD*%
%TO.C,D60*%
X283545000Y79390000D03*
X283545000Y82890000D03*
%TD*%
D29*
%TO.C,C3*%
X162340000Y64350000D03*
X164240000Y64350000D03*
%TD*%
D23*
%TO.C,D57*%
X212107500Y79390000D03*
X212107500Y82890000D03*
%TD*%
%TO.C,D40*%
X183532500Y98440000D03*
X183532500Y101940000D03*
%TD*%
%TO.C,D52*%
X116857500Y79390000D03*
X116857500Y82890000D03*
%TD*%
%TO.C,D37*%
X126382500Y98440000D03*
X126382500Y101940000D03*
%TD*%
%TO.C,D36*%
X107332500Y98440000D03*
X107332500Y101940000D03*
%TD*%
D33*
%TO.C,U2*%
X120892500Y140040000D03*
X118592500Y140040000D03*
D34*
X118592500Y146340000D03*
D33*
X116292500Y140040000D03*
%TD*%
D24*
%TO.C,DRGB9*%
X1820000Y131050000D03*
X1820000Y134350000D03*
X6720000Y134350000D03*
X6720000Y131050000D03*
%TD*%
D23*
%TO.C,D50*%
X78757500Y79390000D03*
X78757500Y82890000D03*
%TD*%
D24*
%TO.C,DRGB11*%
X11450000Y74620000D03*
X11450000Y71320000D03*
X6550000Y71320000D03*
X6550000Y74620000D03*
%TD*%
%TO.C,DRGB1*%
X273370000Y103750000D03*
X273370000Y100450000D03*
X268470000Y100450000D03*
X268470000Y103750000D03*
%TD*%
D35*
%TO.C,C9*%
X160828700Y64341100D03*
X158928700Y64341100D03*
%TD*%
D24*
%TO.C,DRGB4*%
X192290000Y131040000D03*
X192290000Y134340000D03*
X197190000Y134340000D03*
X197190000Y131040000D03*
%TD*%
D27*
%TO.C,J3*%
X12392500Y101370000D03*
X13392500Y101370000D03*
X14392500Y101370000D03*
D28*
X11092500Y105245000D03*
D27*
X15392500Y101370000D03*
D28*
X16692500Y105245000D03*
%TD*%
D18*
%TO.C,J6*%
X134702500Y148590000D03*
X140482500Y148590000D03*
D36*
X134342500Y146990000D03*
X135142500Y146990000D03*
D37*
X136342500Y146990000D03*
X137342500Y146990000D03*
X137842500Y146990000D03*
D38*
X140042500Y147145000D03*
X140842500Y147145000D03*
D36*
X140842500Y146990000D03*
X140042500Y146990000D03*
D37*
X139342500Y146990000D03*
X138342500Y146990000D03*
X136842500Y146990000D03*
D38*
X135142500Y147145000D03*
X134342500Y147145000D03*
D20*
X133272500Y152240000D03*
D19*
X133272500Y148060000D03*
D20*
X141912500Y152240000D03*
D19*
X141912500Y148060000D03*
%TD*%
D23*
%TO.C,D8*%
X131145000Y136540000D03*
X131145000Y140040000D03*
%TD*%
D39*
%TO.C,Ud1*%
X149860000Y59477500D03*
X149360000Y59477500D03*
X148860000Y59477500D03*
X148360000Y59477500D03*
X147860000Y59477500D03*
X147360000Y59477500D03*
X146860000Y59477500D03*
X146360000Y59477500D03*
X145860000Y59477500D03*
X145360000Y59477500D03*
X144860000Y59477500D03*
X144360000Y59477500D03*
D40*
X142947500Y60890000D03*
X142947500Y61390000D03*
X142947500Y61890000D03*
X142947500Y62390000D03*
X142947500Y62890000D03*
X142947500Y63390000D03*
X142947500Y63890000D03*
X142947500Y64390000D03*
X142947500Y64890000D03*
X142947500Y65390000D03*
X142947500Y65890000D03*
X142947500Y66390000D03*
D39*
X144360000Y67802500D03*
X144860000Y67802500D03*
X145360000Y67802500D03*
X145860000Y67802500D03*
X146360000Y67802500D03*
X146860000Y67802500D03*
X147360000Y67802500D03*
X147860000Y67802500D03*
X148360000Y67802500D03*
X148860000Y67802500D03*
X149360000Y67802500D03*
X149860000Y67802500D03*
D40*
X151272500Y66390000D03*
X151272500Y65890000D03*
X151272500Y65390000D03*
X151272500Y64890000D03*
X151272500Y64390000D03*
X151272500Y63890000D03*
X151272500Y63390000D03*
X151272500Y62890000D03*
X151272500Y62390000D03*
X151272500Y61890000D03*
X151272500Y61390000D03*
X151272500Y60890000D03*
%TD*%
D24*
%TO.C,DRGB13*%
X83250000Y74590000D03*
X83250000Y71290000D03*
X78350000Y71290000D03*
X78350000Y74590000D03*
%TD*%
D23*
%TO.C,D66*%
X119238500Y60340000D03*
X119238500Y63840000D03*
%TD*%
%TO.C,D72*%
X245445000Y60340000D03*
X245445000Y63840000D03*
%TD*%
D24*
%TO.C,DRGB20*%
X273380000Y74690000D03*
X273380000Y71390000D03*
X268480000Y71390000D03*
X268480000Y74690000D03*
%TD*%
%TO.C,DRGB15*%
X159410000Y74670000D03*
X159410000Y71370000D03*
X154510000Y71370000D03*
X154510000Y74670000D03*
%TD*%
D23*
%TO.C,D53*%
X135907500Y79390000D03*
X135907500Y82890000D03*
%TD*%
%TO.C,D21*%
X102570000Y117490000D03*
X102570000Y120990000D03*
%TD*%
%TO.C,D73*%
X264495000Y60340000D03*
X264495000Y63840000D03*
%TD*%
%TO.C,D3*%
X35895000Y136540000D03*
X35895000Y140040000D03*
%TD*%
D25*
%TO.C,C10*%
X170920000Y66840000D03*
X170920000Y64940000D03*
%TD*%
D31*
%TO.C,R3*%
X-270000Y92340000D03*
X-270000Y90515000D03*
%TD*%
D23*
%TO.C,D42*%
X221632500Y98440000D03*
X221632500Y101940000D03*
%TD*%
%TO.C,D45*%
X283545000Y98440000D03*
X283545000Y101940000D03*
%TD*%
D35*
%TO.C,C2*%
X119520000Y137240000D03*
X117620000Y137240000D03*
%TD*%
D23*
%TO.C,D70*%
X219410000Y60340000D03*
X219410000Y63840000D03*
%TD*%
D24*
%TO.C,DRGB12*%
X44470000Y74670000D03*
X44470000Y71370000D03*
X39570000Y71370000D03*
X39570000Y74670000D03*
%TD*%
D23*
%TO.C,D58*%
X238301500Y79390000D03*
X238301500Y82890000D03*
%TD*%
D29*
%TO.C,C5*%
X138290000Y66620000D03*
X140190000Y66620000D03*
%TD*%
D25*
%TO.C,C7*%
X140330000Y140460000D03*
X140330000Y138560000D03*
%TD*%
D23*
%TO.C,D13*%
X226395000Y136540000D03*
X226395000Y140040000D03*
%TD*%
%TO.C,D62*%
X54705000Y60330000D03*
X54705000Y63830000D03*
%TD*%
D24*
%TO.C,DRGB7*%
X78100000Y131050000D03*
X78100000Y134350000D03*
X83000000Y134350000D03*
X83000000Y131050000D03*
%TD*%
%TO.C,DRGB10*%
X13260000Y97580000D03*
X13260000Y94280000D03*
X8360000Y94280000D03*
X8360000Y97580000D03*
%TD*%
D23*
%TO.C,D17*%
X26370000Y117490000D03*
X26370000Y120990000D03*
%TD*%
D41*
%TO.C,R2*%
X138705000Y143250000D03*
X136880000Y143250000D03*
%TD*%
D23*
%TO.C,D69*%
X190676000Y60340000D03*
X190676000Y63840000D03*
%TD*%
%TO.C,D28*%
X235920000Y117490000D03*
X235920000Y120990000D03*
%TD*%
%TO.C,D2*%
X16845000Y136540000D03*
X16845000Y140040000D03*
%TD*%
%TO.C,D56*%
X193057500Y79390000D03*
X193057500Y82890000D03*
%TD*%
%TO.C,D26*%
X197820000Y117490000D03*
X197820000Y120990000D03*
%TD*%
%TO.C,D61*%
X30892500Y60330000D03*
X30892500Y63830000D03*
%TD*%
D35*
%TO.C,C8*%
X160830000Y66312200D03*
X158930000Y66312200D03*
%TD*%
D23*
%TO.C,D1*%
X-2205000Y136540000D03*
X-2205000Y140040000D03*
%TD*%
D24*
%TO.C,DRGB8*%
X39870000Y131040000D03*
X39870000Y134340000D03*
X44770000Y134340000D03*
X44770000Y131040000D03*
%TD*%
D23*
%TO.C,D19*%
X64470000Y117490000D03*
X64470000Y120990000D03*
%TD*%
%TO.C,D46*%
X9775600Y79390000D03*
X9775600Y82890000D03*
%TD*%
%TO.C,D51*%
X97807500Y79390000D03*
X97807500Y82890000D03*
%TD*%
%TO.C,D25*%
X178770000Y117490000D03*
X178770000Y120990000D03*
%TD*%
%TO.C,D44*%
X252663100Y98440000D03*
X252663100Y101940000D03*
%TD*%
%TO.C,D5*%
X73995000Y136540000D03*
X73995000Y140040000D03*
%TD*%
D27*
%TO.C,J1*%
X-8157500Y111110000D03*
X-7157500Y111110000D03*
X-6157500Y111110000D03*
D28*
X-9457500Y114985000D03*
D27*
X-5157500Y111110000D03*
D28*
X-3857500Y114985000D03*
%TD*%
D23*
%TO.C,D29*%
X259733000Y117490000D03*
X259733000Y120990000D03*
%TD*%
D24*
%TO.C,DRGB6*%
X116120000Y131010000D03*
X116120000Y134310000D03*
X121020000Y134310000D03*
X121020000Y131010000D03*
%TD*%
D23*
%TO.C,D43*%
X245445000Y136540000D03*
X245445000Y140040000D03*
%TD*%
%TO.C,D34*%
X69232500Y98440000D03*
X69232500Y101940000D03*
%TD*%
M02*
