M48
; DRILL file {KiCad 8.99.0-946-gf00a1ab517} date 2024-06-04T13:04:29+0700
; FORMAT={-:-/ absolute / inch / decimal}
; #@! TF.CreationDate,2024-06-04T13:04:29+07:00
; #@! TF.GenerationSoftware,Kicad,Pcbnew,8.99.0-946-gf00a1ab517
; #@! TF.FileFunction,NonPlated,1,2,NPTH
FMAT,2
INCH
; #@! TA.AperFunction,NonPlated,NPTH,ComponentDrill
T1C0.0256
; #@! TA.AperFunction,NonPlated,NPTH,ComponentDrill
T2C0.0669
; #@! TA.AperFunction,NonPlated,NPTH,ComponentDrill
T3C0.1200
; #@! TA.AperFunction,NonPlated,NPTH,ComponentDrill
T4C0.1570
; #@! TA.AperFunction,NonPlated,NPTH,ComponentDrill
T5C0.1575
%
G90
G05
T1
X5.3032Y5.85
X5.3032Y5.85
X5.5308Y5.85
X5.5308Y5.85
T2
X-0.4082Y5.5
X-0.3144Y4.0
X-0.3144Y2.5
X-0.2206Y4.75
X-0.2206Y2.5
X-0.1269Y4.0
X-0.0082Y5.5
X0.0635Y3.25
X0.0856Y4.0
X0.0856Y2.5
X0.1794Y4.75
X0.1794Y2.5
X0.2731Y4.0
X0.3418Y5.5
X0.4635Y3.25
X0.6231Y2.5
X0.7168Y4.75
X0.7168Y2.5
X0.7418Y5.5
X0.9043Y4.0
X1.0231Y2.5
X1.0918Y5.5
X1.1168Y4.75
X1.1168Y2.5
X1.2793Y3.25
X1.3043Y4.0
X1.4668Y4.75
X1.4918Y5.5
X1.5606Y2.5
X1.6543Y4.0
X1.6544Y2.5
X1.6793Y3.25
X1.8418Y5.5
X1.8668Y4.75
X1.9606Y2.5
X2.0293Y3.25
X2.0543Y4.0
X2.0544Y2.5
X2.2168Y4.75
X2.2418Y5.5
X2.4043Y4.0
X2.4293Y3.25
X2.5918Y5.5
X2.6168Y4.75
X2.7793Y3.25
X2.8043Y4.0
X2.9668Y4.75
X2.9918Y5.5
X3.1543Y4.0
X3.1793Y3.25
X3.3418Y5.5
X3.3668Y4.75
X3.5293Y3.25
X3.5543Y4.0
X3.7168Y4.75
X3.7418Y5.5
X3.9043Y4.0
X3.9293Y3.25
X4.0918Y5.5
X4.1168Y4.75
X4.2793Y3.25
X4.3043Y4.0
X4.3731Y2.5
X4.4668Y4.75
X4.4918Y5.5
X4.6543Y4.0
X4.6793Y3.25
X4.7731Y2.5
X4.8414Y2.4998
X4.8418Y5.5
X4.8668Y4.75
X5.0293Y3.25
X5.0543Y4.0
X5.2168Y4.75
X5.2414Y2.4998
X5.2418Y5.5
X5.4043Y4.0
X5.4293Y3.25
X5.5918Y5.5
X5.6168Y4.75
X5.7793Y3.25
X5.8043Y4.0
X5.9668Y4.75
X5.9918Y5.5
X6.1543Y4.0
X6.1793Y3.25
X6.3418Y5.5
X6.3668Y4.75
X6.5293Y3.25
X6.5543Y4.0
X6.7168Y4.75
X6.7418Y5.5
X6.9043Y4.0
X6.9293Y3.25
X7.0918Y5.5
X7.1168Y4.75
X7.1856Y2.5
X7.2793Y3.25
X7.3043Y4.0
X7.4668Y4.75
X7.4918Y5.5
X7.5856Y2.5
X7.6543Y4.0
X7.6793Y3.25
X7.8418Y5.5
X7.8668Y4.75
X8.0293Y3.25
X8.0294Y2.5
X8.0543Y4.0
X8.1231Y2.5
X8.2168Y4.75
X8.2418Y5.5
X8.4043Y4.0
X8.4293Y3.25
X8.4294Y2.5
X8.5231Y2.5
X8.5918Y5.5
X8.6168Y4.75
X8.8043Y4.0
X8.9668Y4.75
X8.9918Y5.5
X9.0606Y3.25
X9.3418Y5.5
X9.3418Y2.5
X9.3668Y4.75
X9.4606Y3.25
X9.626Y4.0
X9.7168Y5.5
X9.7418Y5.5
X9.7418Y2.5
X9.9044Y4.75
X10.026Y4.0
X10.0918Y5.5
X10.0918Y3.25
X10.0918Y2.5
X10.1168Y5.5
X10.3044Y4.75
X10.4918Y5.5
X10.4918Y3.25
X10.4918Y2.5
X10.8418Y5.5
X10.8418Y4.75
X10.8418Y4.0
X10.8418Y3.25
X10.8418Y2.5
X11.2418Y5.5
X11.2418Y4.75
X11.2418Y4.0
X11.2418Y3.25
X11.2418Y2.5
T3
X-0.2065Y3.525
X0.7335Y3.525
X2.6046Y2.225
X2.7914Y2.2248
X6.5416Y2.225
X7.2914Y2.2248
X9.356Y4.275
X10.296Y4.275
T4
X-0.2065Y2.925
X0.7335Y2.925
X2.6046Y2.825
X2.7914Y2.8248
X6.5416Y2.825
X7.2914Y2.8248
X9.356Y3.675
X10.296Y3.675
T5
X-0.2082Y5.5
X-0.1144Y4.0
X-0.1144Y2.5
X-0.0206Y4.75
X-0.0206Y2.5
X0.0731Y4.0
X0.2635Y3.25
X0.5418Y5.5
X0.8231Y2.5
X0.9168Y4.75
X0.9168Y2.5
X1.1043Y4.0
X1.2918Y5.5
X1.4793Y3.25
X1.6668Y4.75
X1.7606Y2.5
X1.8543Y4.0
X1.8544Y2.5
X2.0418Y5.5
X2.2293Y3.25
X2.4168Y4.75
X2.6043Y4.0
X2.7918Y5.5
X2.9793Y3.25
X3.1668Y4.75
X3.3543Y4.0
X3.5418Y5.5
X3.7293Y3.25
X3.9168Y4.75
X4.1043Y4.0
X4.2918Y5.5
X4.4793Y3.25
X4.5731Y2.5
X4.6668Y4.75
X4.8543Y4.0
X5.0414Y2.4998
X5.0418Y5.5
X5.2293Y3.25
X5.4168Y4.75
X5.6043Y4.0
X5.7918Y5.5
X5.9793Y3.25
X6.1668Y4.75
X6.3543Y4.0
X6.5418Y5.5
X6.7293Y3.25
X6.9168Y4.75
X7.1043Y4.0
X7.2918Y5.5
X7.3856Y2.5
X7.4793Y3.25
X7.6668Y4.75
X7.8543Y4.0
X8.0418Y5.5
X8.2293Y3.25
X8.2294Y2.5
X8.3231Y2.5
X8.4168Y4.75
X8.6043Y4.0
X8.7918Y5.5
X9.1668Y4.75
X9.2606Y3.25
X9.5418Y5.5
X9.5418Y2.5
X9.826Y4.0
X9.9168Y5.5
X10.1044Y4.75
X10.2918Y5.5
X10.2918Y3.25
X10.2918Y2.5
X11.0418Y5.5
X11.0418Y4.75
X11.0418Y4.0
X11.0418Y3.25
X11.0418Y2.5
M30
