%TF.GenerationSoftware,KiCad,Pcbnew,8.99.0-946-gf00a1ab517*%
%TF.CreationDate,2024-06-04T13:04:33+07:00*%
%TF.ProjectId,Sessantacinque65,53657373-616e-4746-9163-696e71756536,rev?*%
%TF.SameCoordinates,Original*%
%TF.FileFunction,Soldermask,Top*%
%TF.FilePolarity,Negative*%
%FSLAX46Y46*%
G04 Gerber Fmt 4.6, Leading zero omitted, Abs format (unit mm)*
G04 Created by KiCad (PCBNEW 8.99.0-946-gf00a1ab517) date 2024-06-04 13:04:33*
%MOMM*%
%LPD*%
G01*
G04 APERTURE LIST*
G04 Aperture macros list*
%AMRoundRect*
0 Rectangle with rounded corners*
0 $1 Rounding radius*
0 $2 $3 $4 $5 $6 $7 $8 $9 X,Y pos of 4 corners*
0 Add a 4 corners polygon primitive as box body*
4,1,4,$2,$3,$4,$5,$6,$7,$8,$9,$2,$3,0*
0 Add four circle primitives for the rounded corners*
1,1,$1+$1,$2,$3*
1,1,$1+$1,$4,$5*
1,1,$1+$1,$6,$7*
1,1,$1+$1,$8,$9*
0 Add four rect primitives between the rounded corners*
20,1,$1+$1,$2,$3,$4,$5,0*
20,1,$1+$1,$4,$5,$6,$7,0*
20,1,$1+$1,$6,$7,$8,$9,0*
20,1,$1+$1,$8,$9,$2,$3,0*%
G04 Aperture macros list end*
%ADD10C,1.700000*%
%ADD11C,4.000000*%
%ADD12RoundRect,0.250000X-0.600000X-0.750000X0.600000X-0.750000X0.600000X0.750000X-0.600000X0.750000X0*%
%ADD13O,1.700000X2.000000*%
%ADD14C,3.987800*%
%ADD15C,3.048000*%
%ADD16C,0.650000*%
%ADD17R,0.600000X1.760000*%
%ADD18R,0.300000X1.760000*%
%ADD19R,0.600000X1.450000*%
%ADD20O,1.000000X2.100000*%
%ADD21O,1.000000X1.600000*%
%ADD22RoundRect,0.250000X-0.350000X-0.625000X0.350000X-0.625000X0.350000X0.625000X-0.350000X0.625000X0*%
%ADD23O,1.200000X1.750000*%
G04 APERTURE END LIST*
D10*
%TO.C,SW12*%
X199182500Y139700000D03*
D11*
X204262500Y139700000D03*
D10*
X209342500Y139700000D03*
%TD*%
%TO.C,SW9*%
X142032500Y139700000D03*
D11*
X147112500Y139700000D03*
D10*
X152192500Y139700000D03*
%TD*%
%TO.C,SW72*%
X237282500Y63500000D03*
D11*
X242362500Y63500000D03*
D10*
X247442500Y63500000D03*
%TD*%
%TO.C,SW14*%
X256332500Y139700000D03*
D11*
X261412500Y139700000D03*
D10*
X266492500Y139700000D03*
%TD*%
%TO.C,SW20*%
X75357500Y120650000D03*
D11*
X80437500Y120650000D03*
D10*
X85517500Y120650000D03*
%TD*%
D12*
%TO.C,SWb\u00F4t1*%
X174430000Y62970000D03*
D13*
X176930000Y62970000D03*
%TD*%
D10*
%TO.C,SW22*%
X113457500Y120650000D03*
D11*
X118537500Y120650000D03*
D10*
X123617500Y120650000D03*
%TD*%
%TO.C,SW74*%
X275382500Y63500000D03*
D11*
X280462500Y63500000D03*
D10*
X285542500Y63500000D03*
%TD*%
%TO.C,SW47*%
X-7986500Y63500000D03*
D11*
X-2906500Y63500000D03*
D10*
X2173500Y63500000D03*
%TD*%
%TO.C,SW1*%
X-10367500Y139700000D03*
D11*
X-5287500Y139700000D03*
D10*
X-207500Y139700000D03*
%TD*%
%TO.C,SW43*%
X237282500Y139700000D03*
D11*
X242362500Y139700000D03*
D10*
X247442500Y139700000D03*
%TD*%
%TO.C,SW23*%
X132507500Y120650000D03*
D11*
X137587500Y120650000D03*
D10*
X142667500Y120650000D03*
%TD*%
%TO.C,SW59*%
X256332500Y82550000D03*
D11*
X261412500Y82550000D03*
D10*
X266492500Y82550000D03*
%TD*%
%TO.C,SW16*%
X-5604500Y120650000D03*
D11*
X-524500Y120650000D03*
D10*
X4555500Y120650000D03*
%TD*%
%TO.C,SW31*%
X-3223500Y101600000D03*
D11*
X1856500Y101600000D03*
D10*
X6936500Y101600000D03*
%TD*%
%TO.C,SW1006*%
X-7986500Y101600000D03*
D11*
X-2906500Y101600000D03*
D10*
X2173500Y101600000D03*
%TD*%
%TO.C,SW51*%
X89645000Y82550000D03*
D11*
X94725000Y82550000D03*
D10*
X99805000Y82550000D03*
%TD*%
%TO.C,SW1002*%
X-5604500Y63500000D03*
D11*
X-524500Y63500000D03*
D10*
X4555500Y63500000D03*
%TD*%
%TO.C,SW57*%
X203945000Y82550000D03*
D11*
X209025000Y82550000D03*
D10*
X214105000Y82550000D03*
%TD*%
%TO.C,SW1005*%
X246807500Y139700000D03*
D11*
X251887500Y139700000D03*
D10*
X256967500Y139700000D03*
%TD*%
%TO.C,SW27*%
X208707500Y120650000D03*
D11*
X213787500Y120650000D03*
D10*
X218867500Y120650000D03*
%TD*%
D14*
%TO.C,SW1001*%
X70902500Y71750000D03*
D15*
X70902500Y56510000D03*
D10*
X122972500Y63495000D03*
D11*
X128052500Y63495000D03*
D10*
X133132500Y63495000D03*
D14*
X185202500Y71750000D03*
D15*
X185202500Y56510000D03*
%TD*%
D16*
%TO.C,J5*%
X140482500Y148590000D03*
X134702500Y148590000D03*
D17*
X140842500Y146990000D03*
X140042500Y146990000D03*
D18*
X138842500Y146990000D03*
X137842500Y146990000D03*
X137342500Y146990000D03*
D19*
X135142500Y147145000D03*
X134342500Y147145000D03*
D17*
X134342500Y146990000D03*
X135142500Y146990000D03*
D18*
X135842500Y146990000D03*
X136842500Y146990000D03*
X138342500Y146990000D03*
D19*
X140042500Y147145000D03*
X140842500Y147145000D03*
D20*
X141912500Y148060000D03*
D21*
X141912500Y152240000D03*
D20*
X133272500Y148060000D03*
D21*
X133272500Y152240000D03*
%TD*%
D10*
%TO.C,SW35*%
X80120000Y101600000D03*
D11*
X85200000Y101600000D03*
D10*
X90280000Y101600000D03*
%TD*%
%TO.C,SW18*%
X37257500Y120650000D03*
D11*
X42337500Y120650000D03*
D10*
X47417500Y120650000D03*
%TD*%
%TO.C,SW13*%
X218232500Y139700000D03*
D11*
X223312500Y139700000D03*
D10*
X228392500Y139700000D03*
%TD*%
D12*
%TO.C,SWb\u00F4trst1*%
X174420000Y66890000D03*
D13*
X176920000Y66890000D03*
%TD*%
D10*
%TO.C,SW49*%
X51545000Y82550000D03*
D11*
X56625000Y82550000D03*
D10*
X61705000Y82550000D03*
%TD*%
%TO.C,SW33*%
X42020000Y101600000D03*
D11*
X47100000Y101600000D03*
D10*
X52180000Y101600000D03*
%TD*%
%TO.C,SW60*%
X275382500Y82550000D03*
D11*
X280462500Y82550000D03*
D10*
X285542500Y82550000D03*
%TD*%
%TO.C,SW10*%
X161082500Y139700000D03*
D11*
X166162500Y139700000D03*
D10*
X171242500Y139700000D03*
%TD*%
%TO.C,SW19*%
X56307500Y120650000D03*
D11*
X61387500Y120650000D03*
D10*
X66467500Y120650000D03*
%TD*%
%TO.C,SW25*%
X170607500Y120650000D03*
D11*
X175687500Y120650000D03*
D10*
X180767500Y120650000D03*
%TD*%
%TO.C,SW1000*%
X203945500Y63500000D03*
D11*
X209025500Y63500000D03*
D10*
X214105500Y63500000D03*
%TD*%
%TO.C,SW15*%
X275382500Y139700000D03*
D11*
X280462500Y139700000D03*
D10*
X285542500Y139700000D03*
%TD*%
%TO.C,SW4*%
X46782500Y139700000D03*
D11*
X51862500Y139700000D03*
D10*
X56942500Y139700000D03*
%TD*%
%TO.C,SW38*%
X137270000Y101600000D03*
D11*
X142350000Y101600000D03*
D10*
X147430000Y101600000D03*
%TD*%
%TO.C,SW62*%
X39638500Y63500000D03*
D11*
X44718500Y63500000D03*
D10*
X49798500Y63500000D03*
%TD*%
%TO.C,SW11*%
X180132500Y139700000D03*
D11*
X185212500Y139700000D03*
D10*
X190292500Y139700000D03*
%TD*%
%TO.C,SW48*%
X32495000Y82550000D03*
D11*
X37575000Y82550000D03*
D10*
X42655000Y82550000D03*
%TD*%
%TO.C,SW32*%
X22970000Y101600000D03*
D11*
X28050000Y101600000D03*
D10*
X33130000Y101600000D03*
%TD*%
%TO.C,SW17*%
X18207500Y120650000D03*
D11*
X23287500Y120650000D03*
D10*
X28367500Y120650000D03*
%TD*%
%TO.C,SW69*%
X182513500Y63500000D03*
D11*
X187593500Y63500000D03*
D10*
X192673500Y63500000D03*
%TD*%
%TO.C,SW40*%
X175370000Y101600000D03*
D11*
X180450000Y101600000D03*
D10*
X185530000Y101600000D03*
%TD*%
%TO.C,SW52*%
X108695000Y82550000D03*
D11*
X113775000Y82550000D03*
D10*
X118855000Y82550000D03*
%TD*%
%TO.C,SW21*%
X94407500Y120650000D03*
D11*
X99487500Y120650000D03*
D10*
X104567500Y120650000D03*
%TD*%
%TO.C,SW24*%
X151557500Y120650000D03*
D11*
X156637500Y120650000D03*
D10*
X161717500Y120650000D03*
%TD*%
%TO.C,SW2*%
X8682500Y139700000D03*
D11*
X13762500Y139700000D03*
D10*
X18842500Y139700000D03*
%TD*%
%TO.C,SW73*%
X256332500Y63500000D03*
D11*
X261412500Y63500000D03*
D10*
X266492500Y63500000D03*
%TD*%
%TO.C,SW28*%
X227757500Y120650000D03*
D11*
X232837500Y120650000D03*
D10*
X237917500Y120650000D03*
%TD*%
%TO.C,SW1004*%
X42020500Y63500000D03*
D11*
X47100500Y63500000D03*
D10*
X52180500Y63500000D03*
%TD*%
D15*
%TO.C,SW44*%
X237642600Y108585000D03*
D14*
X237642600Y93345000D03*
D10*
X244500600Y101600000D03*
D11*
X249580600Y101600000D03*
D10*
X254660600Y101600000D03*
D15*
X261518600Y108585000D03*
D14*
X261518600Y93345000D03*
%TD*%
D10*
%TO.C,SW58*%
X230139000Y82550000D03*
D11*
X235219000Y82550000D03*
D10*
X240299000Y82550000D03*
%TD*%
%TO.C,SW54*%
X146795000Y82550000D03*
D11*
X151875000Y82550000D03*
D10*
X156955000Y82550000D03*
%TD*%
%TO.C,SW29*%
X251570500Y120650000D03*
D11*
X256650500Y120650000D03*
D10*
X261730500Y120650000D03*
%TD*%
%TO.C,SW55*%
X165845000Y82550000D03*
D11*
X170925000Y82550000D03*
D10*
X176005000Y82550000D03*
%TD*%
%TO.C,SW53*%
X127745000Y82550000D03*
D11*
X132825000Y82550000D03*
D10*
X137905000Y82550000D03*
%TD*%
%TO.C,SW61*%
X15826000Y63500000D03*
D11*
X20906000Y63500000D03*
D10*
X25986000Y63500000D03*
%TD*%
D14*
%TO.C,SW66*%
X66156100Y71755000D03*
D15*
X66156100Y56515000D03*
D10*
X111076000Y63500000D03*
D11*
X116156000Y63500000D03*
D10*
X121236000Y63500000D03*
D14*
X166155900Y71755000D03*
D15*
X166155900Y56515000D03*
%TD*%
D10*
%TO.C,SW36*%
X99170000Y101600000D03*
D11*
X104250000Y101600000D03*
D10*
X109330000Y101600000D03*
%TD*%
D22*
%TO.C,J2*%
X224010000Y55830000D03*
D23*
X226010000Y55830000D03*
X228010000Y55830000D03*
X230010000Y55830000D03*
X232010000Y55830000D03*
%TD*%
D10*
%TO.C,SW7*%
X103932500Y139700000D03*
D11*
X109012500Y139700000D03*
D10*
X114092500Y139700000D03*
%TD*%
D15*
%TO.C,SW46*%
X-5244900Y89535000D03*
D14*
X-5244900Y74295000D03*
D10*
X1613100Y82550000D03*
D11*
X6693100Y82550000D03*
D10*
X11773100Y82550000D03*
D15*
X18631100Y89535000D03*
D14*
X18631100Y74295000D03*
%TD*%
D10*
%TO.C,SW5*%
X65832500Y139700000D03*
D11*
X70912500Y139700000D03*
D10*
X75992500Y139700000D03*
%TD*%
%TO.C,SW6*%
X84882500Y139700000D03*
D11*
X89962500Y139700000D03*
D10*
X95042500Y139700000D03*
%TD*%
%TO.C,SW3*%
X27732500Y139700000D03*
D11*
X32812500Y139700000D03*
D10*
X37892500Y139700000D03*
%TD*%
%TO.C,SW1003*%
X18207500Y63500000D03*
D11*
X23287500Y63500000D03*
D10*
X28367500Y63500000D03*
%TD*%
%TO.C,SW30*%
X275382500Y120650000D03*
D11*
X280462500Y120650000D03*
D10*
X285542500Y120650000D03*
%TD*%
%TO.C,SW26*%
X189657500Y120650000D03*
D11*
X194737500Y120650000D03*
D10*
X199817500Y120650000D03*
%TD*%
%TO.C,SW45*%
X275382500Y101600000D03*
D11*
X280462500Y101600000D03*
D10*
X285542500Y101600000D03*
%TD*%
%TO.C,SW8*%
X122982500Y139700000D03*
D11*
X128062500Y139700000D03*
D10*
X133142500Y139700000D03*
%TD*%
%TO.C,SW37*%
X118220000Y101600000D03*
D11*
X123300000Y101600000D03*
D10*
X128380000Y101600000D03*
%TD*%
%TO.C,SW50*%
X70595000Y82550000D03*
D11*
X75675000Y82550000D03*
D10*
X80755000Y82550000D03*
%TD*%
%TO.C,SW39*%
X156320000Y101600000D03*
D11*
X161400000Y101600000D03*
D10*
X166480000Y101600000D03*
%TD*%
%TO.C,SW70*%
X206326000Y63500000D03*
D11*
X211406000Y63500000D03*
D10*
X216486000Y63500000D03*
%TD*%
%TO.C,SW41*%
X194420000Y101600000D03*
D11*
X199500000Y101600000D03*
D10*
X204580000Y101600000D03*
%TD*%
%TO.C,SW34*%
X61070000Y101600000D03*
D11*
X66150000Y101600000D03*
D10*
X71230000Y101600000D03*
%TD*%
%TO.C,SW42*%
X213470000Y101600000D03*
D11*
X218550000Y101600000D03*
D10*
X223630000Y101600000D03*
%TD*%
%TO.C,SW56*%
X184895000Y82550000D03*
D11*
X189975000Y82550000D03*
D10*
X195055000Y82550000D03*
%TD*%
D16*
%TO.C,J6*%
X134702500Y148590000D03*
X140482500Y148590000D03*
D21*
X133272500Y152240000D03*
D20*
X133272500Y148060000D03*
D21*
X141912500Y152240000D03*
D20*
X141912500Y148060000D03*
%TD*%
M02*
