%TF.GenerationSoftware,KiCad,Pcbnew,8.99.0-2209-g89a3b7baa5*%
%TF.CreationDate,2024-09-04T15:50:09+07:00*%
%TF.ProjectId,merisi_ob,6d657269-7369-45f6-9f62-2e6b69636164,rev?*%
%TF.SameCoordinates,Original*%
%TF.FileFunction,Paste,Bot*%
%TF.FilePolarity,Positive*%
%FSLAX46Y46*%
G04 Gerber Fmt 4.6, Leading zero omitted, Abs format (unit mm)*
G04 Created by KiCad (PCBNEW 8.99.0-2209-g89a3b7baa5) date 2024-09-04 15:50:09*
%MOMM*%
%LPD*%
G01*
G04 APERTURE LIST*
G04 Aperture macros list*
%AMRoundRect*
0 Rectangle with rounded corners*
0 $1 Rounding radius*
0 $2 $3 $4 $5 $6 $7 $8 $9 X,Y pos of 4 corners*
0 Add a 4 corners polygon primitive as box body*
4,1,4,$2,$3,$4,$5,$6,$7,$8,$9,$2,$3,0*
0 Add four circle primitives for the rounded corners*
1,1,$1+$1,$2,$3*
1,1,$1+$1,$4,$5*
1,1,$1+$1,$6,$7*
1,1,$1+$1,$8,$9*
0 Add four rect primitives between the rounded corners*
20,1,$1+$1,$2,$3,$4,$5,0*
20,1,$1+$1,$4,$5,$6,$7,0*
20,1,$1+$1,$6,$7,$8,$9,0*
20,1,$1+$1,$8,$9,$2,$3,0*%
G04 Aperture macros list end*
%ADD10R,1.600000X0.850000*%
%ADD11RoundRect,0.250000X0.600000X-0.400000X0.600000X0.400000X-0.600000X0.400000X-0.600000X-0.400000X0*%
%ADD12RoundRect,0.225000X0.225000X0.250000X-0.225000X0.250000X-0.225000X-0.250000X0.225000X-0.250000X0*%
%ADD13RoundRect,0.225000X-0.250000X0.225000X-0.250000X-0.225000X0.250000X-0.225000X0.250000X0.225000X0*%
%ADD14RoundRect,0.150000X0.150000X0.625000X-0.150000X0.625000X-0.150000X-0.625000X0.150000X-0.625000X0*%
%ADD15RoundRect,0.250000X0.350000X0.650000X-0.350000X0.650000X-0.350000X-0.650000X0.350000X-0.650000X0*%
%ADD16R,2.000000X2.400000*%
%ADD17RoundRect,0.007500X0.267500X0.117500X-0.267500X0.117500X-0.267500X-0.117500X0.267500X-0.117500X0*%
%ADD18RoundRect,0.006000X0.269000X0.094000X-0.269000X0.094000X-0.269000X-0.094000X0.269000X-0.094000X0*%
%ADD19RoundRect,0.012000X0.138000X-0.288000X0.138000X0.288000X-0.138000X0.288000X-0.138000X-0.288000X0*%
%ADD20RoundRect,0.200000X-0.275000X0.200000X-0.275000X-0.200000X0.275000X-0.200000X0.275000X0.200000X0*%
%ADD21RoundRect,0.225000X-0.225000X-0.250000X0.225000X-0.250000X0.225000X0.250000X-0.225000X0.250000X0*%
%ADD22RoundRect,0.150000X0.825000X0.150000X-0.825000X0.150000X-0.825000X-0.150000X0.825000X-0.150000X0*%
%ADD23RoundRect,0.232500X-0.232500X-0.232500X0.232500X-0.232500X0.232500X0.232500X-0.232500X0.232500X0*%
%ADD24RoundRect,0.062500X-0.375000X-0.062500X0.375000X-0.062500X0.375000X0.062500X-0.375000X0.062500X0*%
%ADD25RoundRect,0.062500X-0.062500X-0.375000X0.062500X-0.375000X0.062500X0.375000X-0.062500X0.375000X0*%
%ADD26RoundRect,0.225000X0.250000X-0.225000X0.250000X0.225000X-0.250000X0.225000X-0.250000X-0.225000X0*%
%ADD27RoundRect,0.375000X-0.375000X0.625000X-0.375000X-0.625000X0.375000X-0.625000X0.375000X0.625000X0*%
%ADD28RoundRect,0.500000X-1.400000X0.500000X-1.400000X-0.500000X1.400000X-0.500000X1.400000X0.500000X0*%
%ADD29RoundRect,0.200000X-0.200000X-0.275000X0.200000X-0.275000X0.200000X0.275000X-0.200000X0.275000X0*%
%ADD30RoundRect,0.200000X0.200000X0.275000X-0.200000X0.275000X-0.200000X-0.275000X0.200000X-0.275000X0*%
%ADD31RoundRect,0.150000X0.150000X-0.512500X0.150000X0.512500X-0.150000X0.512500X-0.150000X-0.512500X0*%
%ADD32RoundRect,0.075000X0.075000X-0.700000X0.075000X0.700000X-0.075000X0.700000X-0.075000X-0.700000X0*%
%ADD33RoundRect,0.075000X0.700000X-0.075000X0.700000X0.075000X-0.700000X0.075000X-0.700000X-0.075000X0*%
G04 APERTURE END LIST*
D10*
%TO.C,DRGB6*%
X522670000Y458905000D03*
X522670000Y460655000D03*
X526170000Y460655000D03*
X526170000Y458905000D03*
%TD*%
D11*
%TO.C,D81*%
X273638770Y364230798D03*
X273638770Y367730798D03*
%TD*%
D10*
%TO.C,DRGB24*%
X472740000Y379135000D03*
X472740000Y377385000D03*
X469240000Y377385000D03*
X469240000Y379135000D03*
%TD*%
D11*
%TO.C,D33*%
X487950770Y464243298D03*
X487950770Y467743298D03*
%TD*%
%TO.C,D1*%
X221250770Y440430798D03*
X221250770Y443930798D03*
%TD*%
D10*
%TO.C,DRGB28*%
X557540000Y422135000D03*
X557540000Y420385000D03*
X554040000Y420385000D03*
X554040000Y422135000D03*
%TD*%
D11*
%TO.C,D66*%
X264113270Y383280798D03*
X264113270Y386780798D03*
%TD*%
%TO.C,D12*%
X430800770Y440430798D03*
X430800770Y443930798D03*
%TD*%
D12*
%TO.C,C24*%
X514155000Y399800000D03*
X512605000Y399800000D03*
%TD*%
D13*
%TO.C,C11*%
X538580000Y455765000D03*
X538580000Y454215000D03*
%TD*%
D11*
%TO.C,D59*%
X349838270Y402330798D03*
X349838270Y405830798D03*
%TD*%
D14*
%TO.C,J5*%
X504592230Y449673275D03*
X503592230Y449673275D03*
X502592230Y449673275D03*
X501592230Y449673275D03*
D15*
X505892230Y445798275D03*
X500292230Y445798275D03*
%TD*%
D11*
%TO.C,D22*%
X289500000Y464252500D03*
X289500000Y467752500D03*
%TD*%
D16*
%TO.C,Y2*%
X516682500Y398780000D03*
X520382500Y398780000D03*
%TD*%
D10*
%TO.C,DRGB12*%
X304870000Y458265000D03*
X304870000Y460015000D03*
X308370000Y460015000D03*
X308370000Y458265000D03*
%TD*%
%TO.C,DRGB19*%
X272740000Y379135000D03*
X272740000Y377385000D03*
X269240000Y377385000D03*
X269240000Y379135000D03*
%TD*%
D11*
%TO.C,D25*%
X326025770Y464243298D03*
X326025770Y467743298D03*
%TD*%
D13*
%TO.C,C6*%
X528190000Y396450000D03*
X528190000Y394900000D03*
%TD*%
D10*
%TO.C,DRGB15*%
X228010000Y436275000D03*
X228010000Y434525000D03*
X224510000Y434525000D03*
X224510000Y436275000D03*
%TD*%
D11*
%TO.C,D48*%
X459375770Y421380798D03*
X459375770Y424880798D03*
%TD*%
D13*
%TO.C,C12*%
X506390000Y453770000D03*
X506390000Y452220000D03*
%TD*%
D11*
%TO.C,D80*%
X487950770Y383280798D03*
X487950770Y386780798D03*
%TD*%
D10*
%TO.C,DRGB8*%
X458430000Y458315000D03*
X458430000Y460065000D03*
X461930000Y460065000D03*
X461930000Y458315000D03*
%TD*%
D11*
%TO.C,D43*%
X364125770Y421380798D03*
X364125770Y424880798D03*
%TD*%
%TO.C,D36*%
X549863270Y464243298D03*
X549863270Y467743298D03*
%TD*%
%TO.C,D76*%
X435563270Y383280798D03*
X435563270Y386780798D03*
%TD*%
%TO.C,D67*%
X476118870Y402330798D03*
X476118870Y405830798D03*
%TD*%
%TO.C,D74*%
X397463270Y383280798D03*
X397463270Y386780798D03*
%TD*%
%TO.C,D42*%
X345075770Y421380798D03*
X345075770Y424880798D03*
%TD*%
D13*
%TO.C,C13*%
X507850000Y453770000D03*
X507850000Y452220000D03*
%TD*%
D11*
%TO.C,D70*%
X321263270Y383280798D03*
X321263270Y386780798D03*
%TD*%
D17*
%TO.C,U6*%
X511532500Y409530000D03*
D18*
X511532500Y409030000D03*
X511532500Y408530000D03*
D17*
X511532500Y408030000D03*
D19*
X510857500Y407880000D03*
D17*
X510182500Y408030000D03*
D18*
X510182500Y408530000D03*
X510182500Y409030000D03*
D17*
X510182500Y409530000D03*
D19*
X510857500Y409680000D03*
%TD*%
D11*
%TO.C,D86*%
X354610770Y364243298D03*
X354610770Y367743298D03*
%TD*%
%TO.C,D11*%
X411750770Y440430798D03*
X411750770Y443930798D03*
%TD*%
D13*
%TO.C,C10*%
X537110000Y455775000D03*
X537110000Y454225000D03*
%TD*%
D11*
%TO.C,D58*%
X330788270Y402330798D03*
X330788270Y405830798D03*
%TD*%
%TO.C,D37*%
X249825770Y421380798D03*
X249825770Y424880798D03*
%TD*%
%TO.C,D68*%
X283163270Y383280798D03*
X283163270Y386780798D03*
%TD*%
%TO.C,D53*%
X549863270Y421380798D03*
X549863270Y424880798D03*
%TD*%
D10*
%TO.C,DRGB23*%
X432740000Y379135000D03*
X432740000Y377385000D03*
X429240000Y377385000D03*
X429240000Y379135000D03*
%TD*%
%TO.C,DRGB13*%
X264870000Y458265000D03*
X264870000Y460015000D03*
X268370000Y460015000D03*
X268370000Y458265000D03*
%TD*%
D11*
%TO.C,D9*%
X373650770Y440430798D03*
X373650770Y443930798D03*
%TD*%
D13*
%TO.C,C18*%
X544230000Y418715000D03*
X544230000Y417165000D03*
%TD*%
D20*
%TO.C,R1*%
X508160000Y363185000D03*
X508160000Y361535000D03*
%TD*%
D11*
%TO.C,D56*%
X292688270Y402330798D03*
X292688270Y405830798D03*
%TD*%
D10*
%TO.C,DRGB17*%
X234550000Y398085000D03*
X234550000Y396335000D03*
X231050000Y396335000D03*
X231050000Y398085000D03*
%TD*%
D11*
%TO.C,D15*%
X487950770Y440430798D03*
X487950770Y443930798D03*
%TD*%
D21*
%TO.C,C20*%
X519340000Y401800000D03*
X520890000Y401800000D03*
%TD*%
D11*
%TO.C,D49*%
X234720000Y402310000D03*
X234720000Y405810000D03*
%TD*%
D22*
%TO.C,U3*%
X552735000Y411895000D03*
X552735000Y410625000D03*
X552735000Y409355000D03*
X552735000Y408085000D03*
X547785000Y408085000D03*
X547785000Y409355000D03*
X547785000Y410625000D03*
X547785000Y411895000D03*
%TD*%
D11*
%TO.C,D2*%
X240300770Y440430798D03*
X240300770Y443930798D03*
%TD*%
D20*
%TO.C,R12*%
X511050000Y401335000D03*
X511050000Y399685000D03*
%TD*%
D10*
%TO.C,DRGB14*%
X224870000Y458265000D03*
X224870000Y460015000D03*
X228370000Y460015000D03*
X228370000Y458265000D03*
%TD*%
D12*
%TO.C,C23*%
X514155000Y401260000D03*
X512605000Y401260000D03*
%TD*%
D11*
%TO.C,D62*%
X406988270Y402330798D03*
X406988270Y405830798D03*
%TD*%
D23*
%TO.C,U7*%
X516882500Y409430000D03*
X516882500Y408280000D03*
X516882500Y407130000D03*
X518032500Y409430000D03*
X518032500Y408280000D03*
X518032500Y407130000D03*
X519182500Y409430000D03*
X519182500Y408280000D03*
X519182500Y407130000D03*
D24*
X515595000Y406530000D03*
X515595000Y407030000D03*
X515595000Y407530000D03*
X515595000Y408030000D03*
X515595000Y408530000D03*
X515595000Y409030000D03*
X515595000Y409530000D03*
X515595000Y410030000D03*
D25*
X516282500Y410717500D03*
X516782500Y410717500D03*
X517282500Y410717500D03*
X517782500Y410717500D03*
X518282500Y410717500D03*
X518782500Y410717500D03*
X519282500Y410717500D03*
X519782500Y410717500D03*
D24*
X520470000Y410030000D03*
X520470000Y409530000D03*
X520470000Y409030000D03*
X520470000Y408530000D03*
X520470000Y408030000D03*
X520470000Y407530000D03*
X520470000Y407030000D03*
X520470000Y406530000D03*
D25*
X519782500Y405842500D03*
X519282500Y405842500D03*
X518782500Y405842500D03*
X518282500Y405842500D03*
X517782500Y405842500D03*
X517282500Y405842500D03*
X516782500Y405842500D03*
X516282500Y405842500D03*
%TD*%
D11*
%TO.C,D18*%
X549863270Y440430798D03*
X549863270Y443930798D03*
%TD*%
D26*
%TO.C,C17*%
X542650000Y417180000D03*
X542650000Y418730000D03*
%TD*%
D10*
%TO.C,DRGB18*%
X232740000Y379135000D03*
X232740000Y377385000D03*
X229240000Y377385000D03*
X229240000Y379135000D03*
%TD*%
D11*
%TO.C,D40*%
X306975770Y421380798D03*
X306975770Y424880798D03*
%TD*%
D12*
%TO.C,C7*%
X556920000Y402020000D03*
X555370000Y402020000D03*
%TD*%
D11*
%TO.C,D17*%
X530813270Y440430798D03*
X530813270Y443930798D03*
%TD*%
%TO.C,D52*%
X530813270Y421380798D03*
X530813270Y424880798D03*
%TD*%
D27*
%TO.C,U4*%
X496690000Y465290000D03*
X498990000Y465290000D03*
D28*
X498990000Y458990000D03*
D27*
X501290000Y465290000D03*
%TD*%
D10*
%TO.C,DRGB10*%
X384870000Y458265000D03*
X384870000Y460015000D03*
X388370000Y460015000D03*
X388370000Y458265000D03*
%TD*%
D11*
%TO.C,D90*%
X435563770Y364230798D03*
X435563770Y367730798D03*
%TD*%
%TO.C,D54*%
X254588270Y402330798D03*
X254588270Y405830798D03*
%TD*%
%TO.C,D29*%
X413320000Y464260000D03*
X413320000Y467760000D03*
%TD*%
%TO.C,D94*%
X483188770Y364230798D03*
X483188770Y367730798D03*
%TD*%
D10*
%TO.C,DRGB27*%
X553900000Y397095000D03*
X553900000Y395345000D03*
X550400000Y395345000D03*
X550400000Y397095000D03*
%TD*%
D11*
%TO.C,D10*%
X392700770Y440430798D03*
X392700770Y443930798D03*
%TD*%
%TO.C,D19*%
X221250770Y464243298D03*
X221250770Y467743298D03*
%TD*%
%TO.C,D6*%
X316500770Y440430798D03*
X316500770Y443930798D03*
%TD*%
%TO.C,D26*%
X345075770Y464243298D03*
X345075770Y467743298D03*
%TD*%
%TO.C,D13*%
X449850770Y440430798D03*
X449850770Y443930798D03*
%TD*%
%TO.C,D44*%
X383175770Y421380798D03*
X383175770Y424880798D03*
%TD*%
%TO.C,D8*%
X354600770Y440430798D03*
X354600770Y443930798D03*
%TD*%
%TO.C,D65*%
X233231370Y383280798D03*
X233231370Y386780798D03*
%TD*%
%TO.C,D72*%
X359363270Y383280798D03*
X359363270Y386780798D03*
%TD*%
%TO.C,D64*%
X445088270Y402330798D03*
X445088270Y405830798D03*
%TD*%
%TO.C,D79*%
X461757270Y383280798D03*
X461757270Y386780798D03*
%TD*%
%TO.C,D3*%
X259350770Y440430798D03*
X259350770Y443930798D03*
%TD*%
%TO.C,D61*%
X387938270Y402330798D03*
X387938270Y405830798D03*
%TD*%
D12*
%TO.C,C2*%
X544150000Y397050000D03*
X542600000Y397050000D03*
%TD*%
D10*
%TO.C,DRGB7*%
X489920000Y458335000D03*
X489920000Y460085000D03*
X493420000Y460085000D03*
X493420000Y458335000D03*
%TD*%
D12*
%TO.C,C3*%
X544150000Y395590000D03*
X542600000Y395590000D03*
%TD*%
D11*
%TO.C,D55*%
X273638270Y402330798D03*
X273638270Y405830798D03*
%TD*%
%TO.C,D7*%
X335550770Y440430798D03*
X335550770Y443930798D03*
%TD*%
%TO.C,D24*%
X226013770Y421380798D03*
X226013770Y424880798D03*
%TD*%
%TO.C,D71*%
X340313270Y383280798D03*
X340313270Y386780798D03*
%TD*%
%TO.C,D23*%
X308470000Y464250000D03*
X308470000Y467750000D03*
%TD*%
%TO.C,D5*%
X297450770Y440430798D03*
X297450770Y443930798D03*
%TD*%
D29*
%TO.C,R9*%
X510207500Y411780000D03*
X511857500Y411780000D03*
%TD*%
D11*
%TO.C,D27*%
X364125770Y464243298D03*
X364125770Y467743298D03*
%TD*%
D12*
%TO.C,C1*%
X544150000Y398520000D03*
X542600000Y398520000D03*
%TD*%
D30*
%TO.C,R10*%
X519357500Y395780000D03*
X517707500Y395780000D03*
%TD*%
D11*
%TO.C,D75*%
X416513270Y383280798D03*
X416513270Y386780798D03*
%TD*%
%TO.C,D57*%
X311738270Y402330798D03*
X311738270Y405830798D03*
%TD*%
%TO.C,D78*%
X249825770Y364230798D03*
X249825770Y367730798D03*
%TD*%
D31*
%TO.C,U5*%
X504002500Y431282500D03*
X503052500Y431282500D03*
X502102500Y431282500D03*
X502102500Y433557500D03*
X503052500Y433557500D03*
X504002500Y433557500D03*
%TD*%
D16*
%TO.C,Y1*%
X553040000Y401000000D03*
X549340000Y401000000D03*
%TD*%
D11*
%TO.C,D93*%
X459375770Y364230798D03*
X459375770Y367730798D03*
%TD*%
%TO.C,D60*%
X368888270Y402330798D03*
X368888270Y405830798D03*
%TD*%
D10*
%TO.C,DRGB9*%
X424870000Y458265000D03*
X424870000Y460015000D03*
X428370000Y460015000D03*
X428370000Y458265000D03*
%TD*%
D11*
%TO.C,D95*%
X511763270Y364230798D03*
X511763270Y367730798D03*
%TD*%
D21*
%TO.C,C22*%
X513850000Y414850000D03*
X515400000Y414850000D03*
%TD*%
D11*
%TO.C,D96*%
X530813270Y364230798D03*
X530813270Y367730798D03*
%TD*%
D10*
%TO.C,DRGB5*%
X553730000Y458415000D03*
X553730000Y460165000D03*
X557230000Y460165000D03*
X557230000Y458415000D03*
%TD*%
D11*
%TO.C,D41*%
X326025770Y421380798D03*
X326025770Y424880798D03*
%TD*%
%TO.C,D77*%
X226013770Y364230798D03*
X226013770Y367730798D03*
%TD*%
%TO.C,D39*%
X287925770Y421380798D03*
X287925770Y424880798D03*
%TD*%
D12*
%TO.C,C25*%
X514160000Y398330000D03*
X512610000Y398330000D03*
%TD*%
D11*
%TO.C,D38*%
X268875770Y421380798D03*
X268875770Y424880798D03*
%TD*%
%TO.C,D4*%
X278400770Y440430798D03*
X278400770Y443930798D03*
%TD*%
%TO.C,D14*%
X468900770Y440430798D03*
X468900770Y443930798D03*
%TD*%
D10*
%TO.C,DRGB22*%
X392740000Y379135000D03*
X392740000Y377385000D03*
X389240000Y377385000D03*
X389240000Y379135000D03*
%TD*%
D12*
%TO.C,C16*%
X524420000Y414540000D03*
X522870000Y414540000D03*
%TD*%
D11*
%TO.C,D21*%
X270440000Y464243298D03*
X270440000Y467743298D03*
%TD*%
%TO.C,D69*%
X302213270Y383280798D03*
X302213270Y386780798D03*
%TD*%
%TO.C,D16*%
X511763270Y440430798D03*
X511763270Y443930798D03*
%TD*%
%TO.C,D45*%
X402225770Y421380798D03*
X402225770Y424880798D03*
%TD*%
D13*
%TO.C,C15*%
X545780000Y401820000D03*
X545780000Y400270000D03*
%TD*%
D11*
%TO.C,D51*%
X511763270Y421380798D03*
X511763270Y424880798D03*
%TD*%
%TO.C,D30*%
X426038270Y464243298D03*
X426038270Y467743298D03*
%TD*%
D10*
%TO.C,DRGB11*%
X344870000Y458265000D03*
X344870000Y460015000D03*
X348370000Y460015000D03*
X348370000Y458265000D03*
%TD*%
D14*
%TO.C,J4*%
X545433730Y455773275D03*
X544433730Y455773275D03*
X543433730Y455773275D03*
X542433730Y455773275D03*
D15*
X546733730Y451898275D03*
X541133730Y451898275D03*
%TD*%
D12*
%TO.C,C21*%
X517615000Y401800000D03*
X516065000Y401800000D03*
%TD*%
D11*
%TO.C,D73*%
X378413270Y383280798D03*
X378413270Y386780798D03*
%TD*%
D10*
%TO.C,DRGB20*%
X312740000Y379135000D03*
X312740000Y377385000D03*
X309240000Y377385000D03*
X309240000Y379135000D03*
%TD*%
%TO.C,DRGB25*%
X512740000Y379135000D03*
X512740000Y377385000D03*
X509240000Y377385000D03*
X509240000Y379135000D03*
%TD*%
D11*
%TO.C,D97*%
X549863270Y364230798D03*
X549863270Y367730798D03*
%TD*%
D13*
%TO.C,C5*%
X526730000Y396450000D03*
X526730000Y394900000D03*
%TD*%
D10*
%TO.C,DRGB16*%
X227000000Y417225000D03*
X227000000Y415475000D03*
X223500000Y415475000D03*
X223500000Y417225000D03*
%TD*%
D11*
%TO.C,D46*%
X421275770Y421380798D03*
X421275770Y424880798D03*
%TD*%
D12*
%TO.C,C9*%
X556910000Y399100000D03*
X555360000Y399100000D03*
%TD*%
D10*
%TO.C,DRGB26*%
X552740000Y379135000D03*
X552740000Y377385000D03*
X549240000Y377385000D03*
X549240000Y379135000D03*
%TD*%
D20*
%TO.C,R8*%
X505430000Y469350000D03*
X505430000Y467700000D03*
%TD*%
D11*
%TO.C,D63*%
X426038270Y402330798D03*
X426038270Y405830798D03*
%TD*%
%TO.C,D47*%
X440325770Y421380798D03*
X440325770Y424880798D03*
%TD*%
D21*
%TO.C,C19*%
X510085000Y406400000D03*
X511635000Y406400000D03*
%TD*%
D11*
%TO.C,D31*%
X445088270Y464243298D03*
X445088270Y467743298D03*
%TD*%
D10*
%TO.C,DRGB21*%
X352740000Y379135000D03*
X352740000Y377385000D03*
X349240000Y377385000D03*
X349240000Y379135000D03*
%TD*%
%TO.C,DRGB29*%
X556810000Y438205000D03*
X556810000Y436455000D03*
X553310000Y436455000D03*
X553310000Y438205000D03*
%TD*%
D13*
%TO.C,C14*%
X547250000Y401815000D03*
X547250000Y400265000D03*
%TD*%
D11*
%TO.C,D32*%
X464138270Y464243298D03*
X464138270Y467743298D03*
%TD*%
D32*
%TO.C,U2*%
X539100000Y402285000D03*
X538600000Y402285000D03*
X538100000Y402285000D03*
X537600000Y402285000D03*
X537100000Y402285000D03*
X536600000Y402285000D03*
X536100000Y402285000D03*
X535600000Y402285000D03*
X535100000Y402285000D03*
X534600000Y402285000D03*
X534100000Y402285000D03*
X533600000Y402285000D03*
X533100000Y402285000D03*
X532600000Y402285000D03*
X532100000Y402285000D03*
X531600000Y402285000D03*
D33*
X529675000Y404210000D03*
X529675000Y404710000D03*
X529675000Y405210000D03*
X529675000Y405710000D03*
X529675000Y406210000D03*
X529675000Y406710000D03*
X529675000Y407210000D03*
X529675000Y407710000D03*
X529675000Y408210000D03*
X529675000Y408710000D03*
X529675000Y409210000D03*
X529675000Y409710000D03*
X529675000Y410210000D03*
X529675000Y410710000D03*
X529675000Y411210000D03*
X529675000Y411710000D03*
D32*
X531600000Y413635000D03*
X532100000Y413635000D03*
X534100000Y413635000D03*
X534600000Y413635000D03*
X535100000Y413635000D03*
X535600000Y413635000D03*
X536100000Y413635000D03*
X536600000Y413635000D03*
X537100000Y413635000D03*
X537600000Y413635000D03*
X538100000Y413635000D03*
X538600000Y413635000D03*
X539100000Y413635000D03*
D33*
X541025000Y411710000D03*
X541025000Y411210000D03*
X541025000Y410710000D03*
X541025000Y410210000D03*
X541025000Y409710000D03*
X541025000Y409210000D03*
X541025000Y408710000D03*
X541025000Y408210000D03*
X541025000Y407710000D03*
X541025000Y407210000D03*
X541025000Y406710000D03*
X541025000Y406210000D03*
X541025000Y405710000D03*
X541025000Y405210000D03*
X541025000Y404710000D03*
X541025000Y404210000D03*
%TD*%
D11*
%TO.C,D50*%
X483188770Y421380798D03*
X483188770Y424880798D03*
%TD*%
D12*
%TO.C,C8*%
X556910000Y400560000D03*
X555360000Y400560000D03*
%TD*%
D11*
%TO.C,D20*%
X245063270Y464243298D03*
X245063270Y467743298D03*
%TD*%
%TO.C,D34*%
X511763270Y464243298D03*
X511763270Y467743298D03*
%TD*%
%TO.C,D82*%
X530813270Y383280798D03*
X530813270Y386780798D03*
%TD*%
D30*
%TO.C,R11*%
X515460000Y413230000D03*
X513810000Y413230000D03*
%TD*%
D11*
%TO.C,D28*%
X383175770Y464243298D03*
X383175770Y467743298D03*
%TD*%
D13*
%TO.C,C4*%
X525270000Y396460000D03*
X525270000Y394910000D03*
%TD*%
D11*
%TO.C,D35*%
X530813270Y464243298D03*
X530813270Y467743298D03*
%TD*%
M02*
