%TF.GenerationSoftware,KiCad,Pcbnew,8.99.0-2209-g89a3b7baa5*%
%TF.CreationDate,2024-09-04T15:50:09+07:00*%
%TF.ProjectId,merisi_ob,6d657269-7369-45f6-9f62-2e6b69636164,rev?*%
%TF.SameCoordinates,Original*%
%TF.FileFunction,Soldermask,Bot*%
%TF.FilePolarity,Negative*%
%FSLAX46Y46*%
G04 Gerber Fmt 4.6, Leading zero omitted, Abs format (unit mm)*
G04 Created by KiCad (PCBNEW 8.99.0-2209-g89a3b7baa5) date 2024-09-04 15:50:09*
%MOMM*%
%LPD*%
G01*
G04 APERTURE LIST*
G04 Aperture macros list*
%AMRoundRect*
0 Rectangle with rounded corners*
0 $1 Rounding radius*
0 $2 $3 $4 $5 $6 $7 $8 $9 X,Y pos of 4 corners*
0 Add a 4 corners polygon primitive as box body*
4,1,4,$2,$3,$4,$5,$6,$7,$8,$9,$2,$3,0*
0 Add four circle primitives for the rounded corners*
1,1,$1+$1,$2,$3*
1,1,$1+$1,$4,$5*
1,1,$1+$1,$6,$7*
1,1,$1+$1,$8,$9*
0 Add four rect primitives between the rounded corners*
20,1,$1+$1,$2,$3,$4,$5,0*
20,1,$1+$1,$4,$5,$6,$7,0*
20,1,$1+$1,$6,$7,$8,$9,0*
20,1,$1+$1,$8,$9,$2,$3,0*%
G04 Aperture macros list end*
%ADD10C,0.300000*%
%ADD11C,0.250000*%
%ADD12C,0.650000*%
%ADD13O,1.000000X2.100000*%
%ADD14O,1.000000X1.600000*%
%ADD15R,1.600000X0.850000*%
%ADD16C,1.700000*%
%ADD17C,2.500000*%
%ADD18C,4.000000*%
%ADD19O,0.800000X3.000000*%
%ADD20C,3.048000*%
%ADD21C,3.987800*%
%ADD22C,0.400000*%
%ADD23RoundRect,0.250000X0.725000X-0.600000X0.725000X0.600000X-0.725000X0.600000X-0.725000X-0.600000X0*%
%ADD24O,1.950000X1.700000*%
%ADD25RoundRect,0.250000X0.600000X-0.400000X0.600000X0.400000X-0.600000X0.400000X-0.600000X-0.400000X0*%
%ADD26RoundRect,0.225000X0.225000X0.250000X-0.225000X0.250000X-0.225000X-0.250000X0.225000X-0.250000X0*%
%ADD27RoundRect,0.225000X-0.250000X0.225000X-0.250000X-0.225000X0.250000X-0.225000X0.250000X0.225000X0*%
%ADD28RoundRect,0.150000X0.150000X0.625000X-0.150000X0.625000X-0.150000X-0.625000X0.150000X-0.625000X0*%
%ADD29RoundRect,0.250000X0.350000X0.650000X-0.350000X0.650000X-0.350000X-0.650000X0.350000X-0.650000X0*%
%ADD30R,2.000000X2.400000*%
%ADD31RoundRect,0.007500X0.267500X0.117500X-0.267500X0.117500X-0.267500X-0.117500X0.267500X-0.117500X0*%
%ADD32RoundRect,0.006000X0.269000X0.094000X-0.269000X0.094000X-0.269000X-0.094000X0.269000X-0.094000X0*%
%ADD33RoundRect,0.012000X0.138000X-0.288000X0.138000X0.288000X-0.138000X0.288000X-0.138000X-0.288000X0*%
%ADD34RoundRect,0.200000X-0.275000X0.200000X-0.275000X-0.200000X0.275000X-0.200000X0.275000X0.200000X0*%
%ADD35RoundRect,0.225000X-0.225000X-0.250000X0.225000X-0.250000X0.225000X0.250000X-0.225000X0.250000X0*%
%ADD36RoundRect,0.150000X0.825000X0.150000X-0.825000X0.150000X-0.825000X-0.150000X0.825000X-0.150000X0*%
%ADD37RoundRect,0.062500X-0.375000X-0.062500X0.375000X-0.062500X0.375000X0.062500X-0.375000X0.062500X0*%
%ADD38RoundRect,0.062500X-0.062500X-0.375000X0.062500X-0.375000X0.062500X0.375000X-0.062500X0.375000X0*%
%ADD39R,3.450000X3.450000*%
%ADD40RoundRect,0.225000X0.250000X-0.225000X0.250000X0.225000X-0.250000X0.225000X-0.250000X-0.225000X0*%
%ADD41RoundRect,0.250000X-0.600000X-0.750000X0.600000X-0.750000X0.600000X0.750000X-0.600000X0.750000X0*%
%ADD42O,1.700000X2.000000*%
%ADD43RoundRect,0.375000X-0.375000X0.625000X-0.375000X-0.625000X0.375000X-0.625000X0.375000X0.625000X0*%
%ADD44RoundRect,0.500000X-1.400000X0.500000X-1.400000X-0.500000X1.400000X-0.500000X1.400000X0.500000X0*%
%ADD45RoundRect,0.200000X-0.200000X-0.275000X0.200000X-0.275000X0.200000X0.275000X-0.200000X0.275000X0*%
%ADD46RoundRect,0.200000X0.200000X0.275000X-0.200000X0.275000X-0.200000X-0.275000X0.200000X-0.275000X0*%
%ADD47RoundRect,0.150000X0.150000X-0.512500X0.150000X0.512500X-0.150000X0.512500X-0.150000X-0.512500X0*%
%ADD48RoundRect,0.250000X0.600000X0.750000X-0.600000X0.750000X-0.600000X-0.750000X0.600000X-0.750000X0*%
%ADD49RoundRect,0.075000X0.075000X-0.700000X0.075000X0.700000X-0.075000X0.700000X-0.075000X-0.700000X0*%
%ADD50RoundRect,0.075000X0.700000X-0.075000X0.700000X0.075000X-0.700000X0.075000X-0.700000X-0.075000X0*%
G04 APERTURE END LIST*
D10*
G36*
X405725907Y369790000D02*
G01*
X405284682Y369790000D01*
X405284682Y370462156D01*
X405074267Y370462156D01*
X404897008Y370474860D01*
X404746080Y370510766D01*
X404617115Y370567721D01*
X404506646Y370645216D01*
X404413602Y370743988D01*
X404348046Y370854973D01*
X404308038Y370980664D01*
X404295543Y371110376D01*
X404758583Y371110376D01*
X404769084Y371011934D01*
X404797853Y370936794D01*
X404843237Y370879419D01*
X404906976Y370836742D01*
X404993881Y370808694D01*
X405111147Y370798234D01*
X405284682Y370798234D01*
X405284682Y371415680D01*
X405111147Y371415680D01*
X404993335Y371405342D01*
X404906252Y371377675D01*
X404842610Y371335707D01*
X404797478Y371279505D01*
X404768967Y371206177D01*
X404758583Y371110376D01*
X404295543Y371110376D01*
X404294155Y371124787D01*
X404306521Y371276364D01*
X404341007Y371400544D01*
X404395289Y371502581D01*
X404469298Y371586345D01*
X404565222Y371653965D01*
X404687274Y371705596D01*
X404841330Y371739409D01*
X405034577Y371751758D01*
X405725907Y371751758D01*
X405725907Y369790000D01*
G37*
G36*
X403323992Y371770654D02*
G01*
X403481003Y371735085D01*
X403621179Y371677680D01*
X403747009Y371598521D01*
X403860258Y371496402D01*
X403955211Y371377547D01*
X404029547Y371245211D01*
X404083850Y371097507D01*
X404117645Y370931958D01*
X404129413Y370745600D01*
X404117921Y370569733D01*
X404084852Y370413026D01*
X404031559Y370272682D01*
X403958336Y370146386D01*
X403864410Y370032411D01*
X403753014Y369934537D01*
X403630594Y369858862D01*
X403495591Y369804173D01*
X403345818Y369770424D01*
X403178576Y369758736D01*
X403006949Y369770825D01*
X402853692Y369805693D01*
X402715949Y369862144D01*
X402591413Y369940222D01*
X402478454Y370041203D01*
X402383747Y370158484D01*
X402309597Y370289326D01*
X402255410Y370435633D01*
X402221667Y370599911D01*
X402211506Y370760010D01*
X402674337Y370760010D01*
X402683914Y370613596D01*
X402710664Y370491620D01*
X402752440Y370390020D01*
X402808304Y370305474D01*
X402880934Y370233971D01*
X402963912Y370183473D01*
X403059309Y370152512D01*
X403170272Y370141709D01*
X403277270Y370152592D01*
X403370863Y370184060D01*
X403453904Y370235955D01*
X403528210Y370310237D01*
X403585501Y370397276D01*
X403628096Y370500466D01*
X403655207Y370622857D01*
X403664863Y370768192D01*
X403655325Y370911160D01*
X403628391Y371033123D01*
X403585807Y371137415D01*
X403528210Y371226758D01*
X403453669Y371302771D01*
X403368918Y371356142D01*
X403271903Y371388714D01*
X403159403Y371400048D01*
X403050161Y371388986D01*
X402956503Y371357264D01*
X402875184Y371305373D01*
X402804152Y371231521D01*
X402750404Y371145081D01*
X402709863Y371040215D01*
X402683733Y370913304D01*
X402674337Y370760010D01*
X402211506Y370760010D01*
X402209909Y370785167D01*
X402221270Y370965677D01*
X402253855Y371125593D01*
X402306140Y371267847D01*
X402377616Y371394898D01*
X402468806Y371508614D01*
X402577807Y371606663D01*
X402698208Y371682497D01*
X402831614Y371737353D01*
X402980296Y371771258D01*
X403147069Y371783021D01*
X403323992Y371770654D01*
G37*
G36*
X400717707Y369790000D02*
G01*
X401884455Y369790000D01*
X401884455Y371751758D01*
X401443230Y371751758D01*
X401443230Y370149525D01*
X400717707Y370149525D01*
X400717707Y369790000D01*
G37*
G36*
X399287421Y369790000D02*
G01*
X400454169Y369790000D01*
X400454169Y371751758D01*
X400012944Y371751758D01*
X400012944Y370149525D01*
X399287421Y370149525D01*
X399287421Y369790000D01*
G37*
G36*
X398582658Y369790000D02*
G01*
X399023883Y369790000D01*
X399023883Y371751758D01*
X398582658Y371751758D01*
X398582658Y369790000D01*
G37*
G36*
X396374337Y369790000D02*
G01*
X396819713Y369790000D01*
X397627302Y371022571D01*
X397725610Y371185359D01*
X397731106Y371185359D01*
X397720115Y370867965D01*
X397720115Y369790000D01*
X398136793Y369790000D01*
X398136793Y371751758D01*
X397661374Y371751758D01*
X396883949Y370557533D01*
X396785642Y370397431D01*
X396780146Y370397431D01*
X396787640Y370482281D01*
X396791137Y370666953D01*
X396791137Y371751758D01*
X396374337Y371751758D01*
X396374337Y369790000D01*
G37*
G36*
X394316957Y369923845D02*
G01*
X394462059Y369854348D01*
X394627194Y369802726D01*
X394815395Y369770174D01*
X395030146Y369758736D01*
X395221240Y369770443D01*
X395388123Y369803791D01*
X395534265Y369856878D01*
X395662585Y369928879D01*
X395775331Y370020076D01*
X395871099Y370129312D01*
X395946199Y370253442D01*
X396001298Y370394604D01*
X396035806Y370555694D01*
X396047906Y370740226D01*
X396035170Y370923693D01*
X395998404Y371087972D01*
X395938850Y371236009D01*
X395856491Y371370196D01*
X395750052Y371492250D01*
X395626181Y371594752D01*
X395487433Y371675000D01*
X395331709Y371733678D01*
X395156219Y371770257D01*
X394957606Y371783021D01*
X394751217Y371772744D01*
X394569168Y371743440D01*
X394408426Y371696926D01*
X394408426Y371282812D01*
X394523425Y371339064D01*
X394652723Y371380573D01*
X394798457Y371406586D01*
X394963101Y371415680D01*
X395097725Y371403846D01*
X395215184Y371369849D01*
X395318693Y371314568D01*
X395410554Y371237016D01*
X395484464Y371142902D01*
X395538080Y371034049D01*
X395571567Y370907627D01*
X395583356Y370759888D01*
X395572365Y370608471D01*
X395541641Y370482821D01*
X395493434Y370378408D01*
X395428384Y370291674D01*
X395345742Y370220388D01*
X395250230Y370169123D01*
X395139320Y370137271D01*
X395009508Y370126078D01*
X394860387Y370138491D01*
X394758182Y370170530D01*
X394758182Y370548129D01*
X395150314Y370548129D01*
X395150314Y370907655D01*
X394316957Y370907655D01*
X394316957Y369923845D01*
G37*
G36*
X393169870Y369790000D02*
G01*
X392728646Y369790000D01*
X392728646Y370540314D01*
X392609822Y370540314D01*
X392570083Y370535980D01*
X392533984Y370523217D01*
X392466939Y370474002D01*
X392403436Y370396821D01*
X392337857Y370294361D01*
X392033164Y369790000D01*
X391526360Y369790000D01*
X391896632Y370369588D01*
X391960136Y370461912D01*
X392033286Y370550083D01*
X392112543Y370621769D01*
X392154734Y370648572D01*
X392197173Y370666221D01*
X392197173Y370671716D01*
X392101146Y370706303D01*
X392016189Y370751095D01*
X391940343Y370806971D01*
X391877459Y370871507D01*
X391826684Y370945424D01*
X391788677Y371028311D01*
X391765248Y371117965D01*
X391761684Y371162034D01*
X392221720Y371162034D01*
X392231642Y371082273D01*
X392260529Y371013135D01*
X392309159Y370951985D01*
X392371126Y370906534D01*
X392445997Y370878503D01*
X392537404Y370868576D01*
X392728646Y370868576D01*
X392728646Y371423496D01*
X392529099Y371423496D01*
X392408859Y371410872D01*
X392325611Y371377674D01*
X392269264Y371327252D01*
X392234452Y371257631D01*
X392221720Y371162034D01*
X391761684Y371162034D01*
X391757170Y371217843D01*
X391768330Y371343065D01*
X391799693Y371446753D01*
X391849685Y371533181D01*
X391918952Y371605315D01*
X392010285Y371664502D01*
X392128331Y371710318D01*
X392279241Y371740623D01*
X392470359Y371751758D01*
X393169870Y371751758D01*
X393169870Y369790000D01*
G37*
G36*
X391553349Y369790000D02*
G01*
X391075122Y369790000D01*
X390937247Y370227683D01*
X390240422Y370227683D01*
X390101081Y369790000D01*
X389620167Y369790000D01*
X389894962Y370563761D01*
X390341538Y370563761D01*
X390842969Y370563761D01*
X390629745Y371230666D01*
X390607549Y371316064D01*
X390595673Y371401514D01*
X390584682Y371401514D01*
X390571113Y371302905D01*
X390551953Y371225293D01*
X390341538Y370563761D01*
X389894962Y370563761D01*
X390316870Y371751758D01*
X390840160Y371751758D01*
X391553349Y369790000D01*
G37*
G36*
X388097191Y371392233D02*
G01*
X388656018Y371392233D01*
X388656018Y369790000D01*
X389098709Y369790000D01*
X389098709Y371392233D01*
X389654727Y371392233D01*
X389654727Y371751758D01*
X388097191Y371751758D01*
X388097191Y371392233D01*
G37*
G36*
X386756420Y369790000D02*
G01*
X387931350Y369790000D01*
X387931350Y371751758D01*
X386801482Y371751758D01*
X386801482Y371392233D01*
X387490125Y371392233D01*
X387490125Y370954549D01*
X386849354Y370954549D01*
X386849354Y370595024D01*
X387490125Y370595024D01*
X387490125Y370149525D01*
X386756420Y370149525D01*
X386756420Y369790000D01*
G37*
G36*
X385526290Y370751339D02*
G01*
X385594719Y370758932D01*
X385653168Y370780765D01*
X385703855Y370816796D01*
X385743551Y370864218D01*
X385766935Y370917507D01*
X385774930Y370978729D01*
X385766631Y371041518D01*
X385742554Y371094917D01*
X385701901Y371141273D01*
X385650021Y371176035D01*
X385589945Y371197249D01*
X385519452Y371204654D01*
X385448090Y371197081D01*
X385388569Y371175562D01*
X385338346Y371140540D01*
X385299216Y371094040D01*
X385275999Y371040841D01*
X385268004Y370978729D01*
X385276229Y370914881D01*
X385299976Y370861021D01*
X385339811Y370814720D01*
X385390889Y370780253D01*
X385452140Y370758899D01*
X385526290Y370751339D01*
G37*
G36*
X385526290Y369758736D02*
G01*
X385594686Y369766378D01*
X385653133Y369788363D01*
X385703855Y369824682D01*
X385743589Y369872395D01*
X385766956Y369925739D01*
X385774930Y369986737D01*
X385766633Y370049355D01*
X385742560Y370102591D01*
X385701901Y370148792D01*
X385650029Y370183483D01*
X385589953Y370204659D01*
X385519452Y370212051D01*
X385448072Y370204503D01*
X385388552Y370183061D01*
X385338346Y370148182D01*
X385299207Y370101761D01*
X385275994Y370048682D01*
X385268004Y369986737D01*
X385276208Y369923115D01*
X385299939Y369869196D01*
X385339811Y369822606D01*
X385390924Y369787855D01*
X385452175Y369766347D01*
X385526290Y369758736D01*
G37*
G36*
X383700834Y371773004D02*
G01*
X383819766Y371744064D01*
X383928560Y371696653D01*
X384018579Y371635376D01*
X384092964Y371559063D01*
X384149005Y371470024D01*
X384184214Y371370920D01*
X384196144Y371262295D01*
X384186996Y371171095D01*
X384159892Y371086277D01*
X384114200Y371006085D01*
X384053747Y370935349D01*
X383977509Y370872295D01*
X383883269Y370816796D01*
X383975512Y370778551D01*
X384052041Y370732655D01*
X384118410Y370677416D01*
X384171598Y370616517D01*
X384213453Y370548715D01*
X384243283Y370475711D01*
X384261189Y370398616D01*
X384267219Y370317808D01*
X384254011Y370197727D01*
X384215317Y370090174D01*
X384153539Y369994552D01*
X384071214Y369913098D01*
X383971736Y369848586D01*
X383851151Y369799036D01*
X383719591Y369769122D01*
X383571859Y369758736D01*
X383421585Y369769358D01*
X383289637Y369799769D01*
X383169103Y369850052D01*
X383069696Y369915296D01*
X382987635Y369997301D01*
X382926936Y370092983D01*
X382889300Y370200552D01*
X382876378Y370321960D01*
X382878707Y370352735D01*
X383282187Y370352735D01*
X383287829Y370288788D01*
X383304047Y370232934D01*
X383330305Y370182859D01*
X383364131Y370141953D01*
X383405630Y370109159D01*
X383454989Y370084190D01*
X383509417Y370068844D01*
X383570394Y370063551D01*
X383633863Y370068720D01*
X383688607Y370083457D01*
X383737945Y370107952D01*
X383779466Y370140610D01*
X383813001Y370181544D01*
X383838206Y370231468D01*
X383853386Y370287437D01*
X383858722Y370352735D01*
X383853141Y370414232D01*
X383836863Y370469727D01*
X383810701Y370520154D01*
X383776779Y370562662D01*
X383735060Y370597233D01*
X383685310Y370623234D01*
X383630375Y370639173D01*
X383570394Y370644605D01*
X383507212Y370638557D01*
X383452302Y370621158D01*
X383403003Y370593648D01*
X383361444Y370558510D01*
X383327823Y370515954D01*
X383302704Y370465575D01*
X383287355Y370410773D01*
X383282187Y370352735D01*
X382878707Y370352735D01*
X382882586Y370403986D01*
X382901046Y370482428D01*
X382931712Y370556706D01*
X382974808Y370625310D01*
X383029155Y370686823D01*
X383096318Y370742180D01*
X383173175Y370788177D01*
X383264357Y370826322D01*
X383166150Y370881789D01*
X383086316Y370944395D01*
X383022557Y371014145D01*
X382973629Y371093816D01*
X382944810Y371177733D01*
X382939692Y371225293D01*
X383329937Y371225293D01*
X383334622Y371174125D01*
X383348377Y371127229D01*
X383370362Y371084228D01*
X383398935Y371047117D01*
X383433672Y371016303D01*
X383473429Y370993140D01*
X383517206Y370978734D01*
X383565020Y370973845D01*
X383611670Y370978681D01*
X383655879Y370993140D01*
X383696087Y371016225D01*
X383730373Y371046385D01*
X383758289Y371082952D01*
X383780198Y371126496D01*
X383793970Y371174022D01*
X383798639Y371225293D01*
X383794300Y371276621D01*
X383781542Y371324089D01*
X383760829Y371367638D01*
X383733792Y371404200D01*
X383700118Y371434557D01*
X383660031Y371458178D01*
X383615236Y371473091D01*
X383565020Y371478206D01*
X383517124Y371473301D01*
X383472819Y371458789D01*
X383432401Y371435820D01*
X383397592Y371405666D01*
X383369260Y371369019D01*
X383347766Y371325554D01*
X383334487Y371277864D01*
X383329937Y371225293D01*
X382939692Y371225293D01*
X382935118Y371267791D01*
X382946896Y371374982D01*
X382981646Y371472711D01*
X383037194Y371560432D01*
X383112072Y371636109D01*
X383202651Y371696802D01*
X383312229Y371744064D01*
X383432131Y371772969D01*
X383567707Y371783021D01*
X383700834Y371773004D01*
G37*
G36*
X380913886Y369791221D02*
G01*
X381471371Y369791221D01*
X382042411Y370642407D01*
X382094312Y370750362D01*
X382101151Y370750362D01*
X382101151Y369790000D01*
X382542376Y369790000D01*
X382542376Y371751758D01*
X382101151Y371751758D01*
X382101151Y370824246D01*
X382094312Y370824246D01*
X382039724Y370933545D01*
X381498604Y371750537D01*
X380972627Y371750537D01*
X381655774Y370816064D01*
X380913886Y369791221D01*
G37*
G36*
X378265806Y369790000D02*
G01*
X378708374Y369790000D01*
X378708374Y370587208D01*
X379519993Y370587208D01*
X379519993Y369790000D01*
X379961217Y369790000D01*
X379961217Y371751758D01*
X379519993Y371751758D01*
X379519993Y370970181D01*
X378708374Y370970181D01*
X378708374Y371751758D01*
X378265806Y371751758D01*
X378265806Y369790000D01*
G37*
G36*
X376407850Y369790000D02*
G01*
X377985781Y369790000D01*
X377985781Y370045233D01*
X376981577Y371392233D01*
X377913363Y371392233D01*
X377913363Y371751758D01*
X376410537Y371751758D01*
X376410537Y371504340D01*
X377392882Y370149525D01*
X376407850Y370149525D01*
X376407850Y369790000D01*
G37*
G36*
X403493527Y366430000D02*
G01*
X403929378Y366430000D01*
X403929378Y367603831D01*
X403925458Y367798719D01*
X403912892Y368023806D01*
X403923761Y368023806D01*
X403959171Y367856305D01*
X403985310Y367763810D01*
X404444364Y366430000D01*
X404805111Y366430000D01*
X405272348Y367750132D01*
X405333775Y368023806D01*
X405346109Y368023806D01*
X405328401Y367514804D01*
X405328401Y366430000D01*
X405725907Y366430000D01*
X405725907Y368391758D01*
X405079762Y368391758D01*
X404679448Y367228918D01*
X404637933Y367088439D01*
X404609717Y366948527D01*
X404601535Y366948527D01*
X404562252Y367105662D01*
X404523621Y367231727D01*
X404123307Y368391758D01*
X403493527Y368391758D01*
X403493527Y366430000D01*
G37*
G36*
X403257466Y366430000D02*
G01*
X402779239Y366430000D01*
X402641364Y366867683D01*
X401944539Y366867683D01*
X401805198Y366430000D01*
X401324284Y366430000D01*
X401599079Y367203761D01*
X402045655Y367203761D01*
X402547086Y367203761D01*
X402333862Y367870666D01*
X402311666Y367956064D01*
X402299790Y368041514D01*
X402288799Y368041514D01*
X402275230Y367942905D01*
X402256071Y367865293D01*
X402045655Y367203761D01*
X401599079Y367203761D01*
X402020987Y368391758D01*
X402544277Y368391758D01*
X403257466Y366430000D01*
G37*
G36*
X399450942Y366431221D02*
G01*
X400008426Y366431221D01*
X400579466Y367282407D01*
X400631367Y367390362D01*
X400638206Y367390362D01*
X400638206Y366430000D01*
X401079431Y366430000D01*
X401079431Y368391758D01*
X400638206Y368391758D01*
X400638206Y367464246D01*
X400631367Y367464246D01*
X400576779Y367573545D01*
X400035659Y368390537D01*
X399509682Y368390537D01*
X400192829Y367456064D01*
X399450942Y366431221D01*
G37*
G36*
X398089288Y366430000D02*
G01*
X399264218Y366430000D01*
X399264218Y368391758D01*
X398134351Y368391758D01*
X398134351Y368032233D01*
X398822993Y368032233D01*
X398822993Y367594549D01*
X398182222Y367594549D01*
X398182222Y367235024D01*
X398822993Y367235024D01*
X398822993Y366789525D01*
X398089288Y366789525D01*
X398089288Y366430000D01*
G37*
G36*
X395876814Y368032233D02*
G01*
X396568143Y368032233D01*
X396568143Y367547655D01*
X395932745Y367547655D01*
X395932745Y367188129D01*
X396568143Y367188129D01*
X396568143Y366430000D01*
X397009368Y366430000D01*
X397009368Y368391758D01*
X395876814Y368391758D01*
X395876814Y368032233D01*
G37*
G36*
X395553681Y366430000D02*
G01*
X395112456Y366430000D01*
X395112456Y367180314D01*
X394993632Y367180314D01*
X394953894Y367175980D01*
X394917794Y367163217D01*
X394850750Y367114002D01*
X394787247Y367036821D01*
X394721667Y366934361D01*
X394416974Y366430000D01*
X393910170Y366430000D01*
X394280443Y367009588D01*
X394343946Y367101912D01*
X394417096Y367190083D01*
X394496353Y367261769D01*
X394538545Y367288572D01*
X394580983Y367306221D01*
X394580983Y367311716D01*
X394484956Y367346303D01*
X394400000Y367391095D01*
X394324153Y367446971D01*
X394261270Y367511507D01*
X394210494Y367585424D01*
X394172487Y367668311D01*
X394149058Y367757965D01*
X394145494Y367802034D01*
X394605530Y367802034D01*
X394615452Y367722273D01*
X394644339Y367653135D01*
X394692969Y367591985D01*
X394754936Y367546534D01*
X394829807Y367518503D01*
X394921214Y367508576D01*
X395112456Y367508576D01*
X395112456Y368063496D01*
X394912909Y368063496D01*
X394792669Y368050872D01*
X394709422Y368017674D01*
X394653074Y367967252D01*
X394618262Y367897631D01*
X394605530Y367802034D01*
X394145494Y367802034D01*
X394140980Y367857843D01*
X394152140Y367983065D01*
X394183504Y368086753D01*
X394233495Y368173181D01*
X394302763Y368245315D01*
X394394095Y368304502D01*
X394512141Y368350318D01*
X394663051Y368380623D01*
X394854169Y368391758D01*
X395553681Y368391758D01*
X395553681Y366430000D01*
G37*
G36*
X393057976Y368410654D02*
G01*
X393214987Y368375085D01*
X393355164Y368317680D01*
X393480993Y368238521D01*
X393594242Y368136402D01*
X393689195Y368017547D01*
X393763531Y367885211D01*
X393817835Y367737507D01*
X393851630Y367571958D01*
X393863398Y367385600D01*
X393851905Y367209733D01*
X393818836Y367053026D01*
X393765544Y366912682D01*
X393692321Y366786386D01*
X393598394Y366672411D01*
X393486998Y366574537D01*
X393364579Y366498862D01*
X393229576Y366444173D01*
X393079802Y366410424D01*
X392912561Y366398736D01*
X392740934Y366410825D01*
X392587677Y366445693D01*
X392449933Y366502144D01*
X392325398Y366580222D01*
X392212438Y366681203D01*
X392117732Y366798484D01*
X392043582Y366929326D01*
X391989394Y367075633D01*
X391955652Y367239911D01*
X391945490Y367400010D01*
X392408321Y367400010D01*
X392417899Y367253596D01*
X392444649Y367131620D01*
X392486425Y367030020D01*
X392542288Y366945474D01*
X392614919Y366873971D01*
X392697897Y366823473D01*
X392793293Y366792512D01*
X392904256Y366781709D01*
X393011255Y366792592D01*
X393104848Y366824060D01*
X393187888Y366875955D01*
X393262194Y366950237D01*
X393319486Y367037276D01*
X393362081Y367140466D01*
X393389191Y367262857D01*
X393398848Y367408192D01*
X393389310Y367551160D01*
X393362376Y367673123D01*
X393319791Y367777415D01*
X393262194Y367866758D01*
X393187654Y367942771D01*
X393102902Y367996142D01*
X393005887Y368028714D01*
X392893387Y368040048D01*
X392784146Y368028986D01*
X392690488Y367997264D01*
X392609168Y367945373D01*
X392538136Y367871521D01*
X392484388Y367785081D01*
X392443848Y367680215D01*
X392417717Y367553304D01*
X392408321Y367400010D01*
X391945490Y367400010D01*
X391943893Y367425167D01*
X391955255Y367605677D01*
X391987840Y367765593D01*
X392040125Y367907847D01*
X392111601Y368034898D01*
X392202791Y368148614D01*
X392311792Y368246663D01*
X392432193Y368322497D01*
X392565599Y368377353D01*
X392714281Y368411258D01*
X392881053Y368423021D01*
X393057976Y368410654D01*
G37*
G36*
X389399738Y366430000D02*
G01*
X389835589Y366430000D01*
X389835589Y367603831D01*
X389831669Y367798719D01*
X389819103Y368023806D01*
X389829972Y368023806D01*
X389865382Y367856305D01*
X389891521Y367763810D01*
X390350575Y366430000D01*
X390711322Y366430000D01*
X391178558Y367750132D01*
X391239986Y368023806D01*
X391252320Y368023806D01*
X391234612Y367514804D01*
X391234612Y366430000D01*
X391632117Y366430000D01*
X391632117Y368391758D01*
X390985973Y368391758D01*
X390585659Y367228918D01*
X390544144Y367088439D01*
X390515928Y366948527D01*
X390507745Y366948527D01*
X390468463Y367105662D01*
X390429832Y367231727D01*
X390029518Y368391758D01*
X389399738Y368391758D01*
X389399738Y366430000D01*
G37*
G36*
X386491905Y366430000D02*
G01*
X386934473Y366430000D01*
X386934473Y367227208D01*
X387746092Y367227208D01*
X387746092Y366430000D01*
X388187316Y366430000D01*
X388187316Y368391758D01*
X387746092Y368391758D01*
X387746092Y367610181D01*
X386934473Y367610181D01*
X386934473Y368391758D01*
X386491905Y368391758D01*
X386491905Y366430000D01*
G37*
G36*
X385361396Y368410654D02*
G01*
X385518407Y368375085D01*
X385658583Y368317680D01*
X385784413Y368238521D01*
X385897662Y368136402D01*
X385992615Y368017547D01*
X386066951Y367885211D01*
X386121254Y367737507D01*
X386155049Y367571958D01*
X386166817Y367385600D01*
X386155325Y367209733D01*
X386122256Y367053026D01*
X386068963Y366912682D01*
X385995740Y366786386D01*
X385901814Y366672411D01*
X385790418Y366574537D01*
X385667998Y366498862D01*
X385532995Y366444173D01*
X385383222Y366410424D01*
X385215980Y366398736D01*
X385044353Y366410825D01*
X384891096Y366445693D01*
X384753353Y366502144D01*
X384628818Y366580222D01*
X384515858Y366681203D01*
X384421151Y366798484D01*
X384347001Y366929326D01*
X384292814Y367075633D01*
X384259071Y367239911D01*
X384248910Y367400010D01*
X384711741Y367400010D01*
X384721318Y367253596D01*
X384748068Y367131620D01*
X384789844Y367030020D01*
X384845708Y366945474D01*
X384918338Y366873971D01*
X385001316Y366823473D01*
X385096713Y366792512D01*
X385207676Y366781709D01*
X385314675Y366792592D01*
X385408267Y366824060D01*
X385491308Y366875955D01*
X385565614Y366950237D01*
X385622905Y367037276D01*
X385665500Y367140466D01*
X385692611Y367262857D01*
X385702267Y367408192D01*
X385692729Y367551160D01*
X385665795Y367673123D01*
X385623211Y367777415D01*
X385565614Y367866758D01*
X385491073Y367942771D01*
X385406322Y367996142D01*
X385309307Y368028714D01*
X385196807Y368040048D01*
X385087565Y368028986D01*
X384993908Y367997264D01*
X384912588Y367945373D01*
X384841556Y367871521D01*
X384787808Y367785081D01*
X384747267Y367680215D01*
X384721137Y367553304D01*
X384711741Y367400010D01*
X384248910Y367400010D01*
X384247313Y367425167D01*
X384258674Y367605677D01*
X384291259Y367765593D01*
X384343544Y367907847D01*
X384415020Y368034898D01*
X384506210Y368148614D01*
X384615211Y368246663D01*
X384735612Y368322497D01*
X384869018Y368377353D01*
X385017700Y368411258D01*
X385184473Y368423021D01*
X385361396Y368410654D01*
G37*
G36*
X381751395Y366502784D02*
G01*
X381898181Y366447933D01*
X382082245Y366411898D01*
X382311566Y366398736D01*
X382493086Y366410500D01*
X382651660Y366444050D01*
X382790699Y366497607D01*
X382913021Y366570560D01*
X383020725Y366663496D01*
X383111678Y366773613D01*
X383182920Y366897067D01*
X383235039Y367035738D01*
X383267544Y367192126D01*
X383278890Y367369235D01*
X383266349Y367556768D01*
X383230239Y367723959D01*
X383171969Y367873831D01*
X383091753Y368008871D01*
X382988607Y368130907D01*
X382867034Y368234986D01*
X382732966Y368315735D01*
X382584640Y368374263D01*
X382419636Y368410465D01*
X382234996Y368423021D01*
X382044238Y368414006D01*
X381884543Y368388926D01*
X381751395Y368350237D01*
X381751395Y367922812D01*
X381886799Y367987274D01*
X382035220Y368026547D01*
X382199581Y368040048D01*
X382335273Y368028486D01*
X382452655Y367995424D01*
X382555070Y367941983D01*
X382644958Y367867491D01*
X382717218Y367776493D01*
X382769778Y367670361D01*
X382802711Y367546163D01*
X382814340Y367400010D01*
X382803374Y367259800D01*
X382772288Y367140237D01*
X382722661Y367037720D01*
X382654483Y366949504D01*
X382569475Y366877332D01*
X382471293Y366825367D01*
X382357360Y366793062D01*
X382224127Y366781709D01*
X382055341Y366795856D01*
X381898620Y366837510D01*
X381751395Y366906762D01*
X381751395Y366502784D01*
G37*
G36*
X379713677Y366430000D02*
G01*
X380156245Y366430000D01*
X380156245Y367227208D01*
X380967864Y367227208D01*
X380967864Y366430000D01*
X381409089Y366430000D01*
X381409089Y368391758D01*
X380967864Y368391758D01*
X380967864Y367610181D01*
X380156245Y367610181D01*
X380156245Y368391758D01*
X379713677Y368391758D01*
X379713677Y366430000D01*
G37*
G36*
X378824389Y366430000D02*
G01*
X379265614Y366430000D01*
X379265614Y368391758D01*
X378824389Y368391758D01*
X378824389Y366430000D01*
G37*
G36*
X375380198Y366430000D02*
G01*
X375816050Y366430000D01*
X375816050Y367603831D01*
X375812129Y367798719D01*
X375799563Y368023806D01*
X375810432Y368023806D01*
X375845842Y367856305D01*
X375871981Y367763810D01*
X376331036Y366430000D01*
X376691782Y366430000D01*
X377159019Y367750132D01*
X377220446Y368023806D01*
X377232780Y368023806D01*
X377215073Y367514804D01*
X377215073Y366430000D01*
X377612578Y366430000D01*
X377612578Y368391758D01*
X376966434Y368391758D01*
X376566120Y367228918D01*
X376524605Y367088439D01*
X376496388Y366948527D01*
X376488206Y366948527D01*
X376448923Y367105662D01*
X376410293Y367231727D01*
X376009979Y368391758D01*
X375380198Y368391758D01*
X375380198Y366430000D01*
G37*
G36*
X374492498Y366430000D02*
G01*
X374933722Y366430000D01*
X374933722Y368391758D01*
X374492498Y368391758D01*
X374492498Y366430000D01*
G37*
G36*
X372284176Y366430000D02*
G01*
X372729553Y366430000D01*
X373537142Y367662571D01*
X373635450Y367825359D01*
X373640945Y367825359D01*
X373629954Y367507965D01*
X373629954Y366430000D01*
X374046632Y366430000D01*
X374046632Y368391758D01*
X373571214Y368391758D01*
X372793789Y367197533D01*
X372695481Y367037431D01*
X372689986Y367037431D01*
X372697479Y367122281D01*
X372700976Y367306953D01*
X372700976Y368391758D01*
X372284176Y368391758D01*
X372284176Y366430000D01*
G37*
G36*
X370139357Y366430000D02*
G01*
X370581926Y366430000D01*
X370581926Y367227208D01*
X371393545Y367227208D01*
X371393545Y366430000D01*
X371834769Y366430000D01*
X371834769Y368391758D01*
X371393545Y368391758D01*
X371393545Y367610181D01*
X370581926Y367610181D01*
X370581926Y368391758D01*
X370139357Y368391758D01*
X370139357Y366430000D01*
G37*
D11*
G36*
X401468642Y362517787D02*
G01*
X401468642Y361970683D01*
X401166697Y361970683D01*
X401166697Y362103551D01*
X401161067Y362149657D01*
X401147219Y362175786D01*
X401125020Y362191843D01*
X401096355Y362197341D01*
X401068216Y362191871D01*
X401046102Y362175786D01*
X401032254Y362149657D01*
X401026624Y362103551D01*
X401026624Y361830000D01*
X401689987Y361830000D01*
X401735894Y361835604D01*
X401762039Y361849417D01*
X401778045Y361871619D01*
X401783532Y361900341D01*
X401778043Y361929053D01*
X401762039Y361951205D01*
X401735887Y361965063D01*
X401689987Y361970683D01*
X401608654Y361970683D01*
X401608654Y362517787D01*
X401689987Y362517787D01*
X401735894Y362523392D01*
X401762039Y362537205D01*
X401778045Y362559407D01*
X401783532Y362588129D01*
X401778043Y362616841D01*
X401762039Y362638993D01*
X401735887Y362652851D01*
X401689987Y362658471D01*
X401386638Y362658471D01*
X401340693Y362652846D01*
X401314586Y362638993D01*
X401298582Y362616841D01*
X401293093Y362588129D01*
X401298580Y362559407D01*
X401314586Y362537205D01*
X401340687Y362523396D01*
X401386638Y362517787D01*
X401468642Y362517787D01*
G37*
G36*
X400714787Y362173893D02*
G01*
X400714787Y361970683D01*
X400357520Y361970683D01*
X400357520Y362044933D01*
X400351890Y362091039D01*
X400338042Y362117168D01*
X400315843Y362133225D01*
X400287178Y362138722D01*
X400259050Y362133250D01*
X400236987Y362117168D01*
X400223138Y362091039D01*
X400217508Y362044933D01*
X400217508Y361830000D01*
X400876720Y361830000D01*
X400922670Y361835609D01*
X400948771Y361849417D01*
X400964777Y361871619D01*
X400970265Y361900341D01*
X400964695Y361929022D01*
X400948405Y361951205D01*
X400922076Y361965094D01*
X400876720Y361970683D01*
X400854860Y361970683D01*
X400854860Y362517787D01*
X400876720Y362517787D01*
X400922670Y362523396D01*
X400948771Y362537205D01*
X400964777Y362559407D01*
X400970265Y362588129D01*
X400964775Y362616841D01*
X400948771Y362638993D01*
X400922664Y362652846D01*
X400876720Y362658471D01*
X400248222Y362657800D01*
X400248222Y362443538D01*
X400253771Y362397389D01*
X400267395Y362371242D01*
X400289287Y362355245D01*
X400317892Y362349748D01*
X400346615Y362355236D01*
X400368817Y362371242D01*
X400382667Y362397422D01*
X400388295Y362443538D01*
X400388295Y362517787D01*
X400714787Y362517787D01*
X400714787Y362314577D01*
X400591810Y362314577D01*
X400588461Y362360484D01*
X400581552Y362379057D01*
X400565574Y362395277D01*
X400545941Y362404965D01*
X400521468Y362408367D01*
X400493382Y362402899D01*
X400471277Y362386812D01*
X400457428Y362360683D01*
X400451798Y362314577D01*
X400451798Y362173893D01*
X400455337Y362127991D01*
X400462728Y362108986D01*
X400479058Y362092877D01*
X400498310Y362083386D01*
X400521468Y362080104D01*
X400545941Y362083505D01*
X400565574Y362093193D01*
X400581552Y362109413D01*
X400588461Y362127987D01*
X400591810Y362173893D01*
X400714787Y362173893D01*
G37*
G36*
X398960679Y362671654D02*
G01*
X399024572Y362652754D01*
X399085727Y362620888D01*
X399144977Y362574757D01*
X399195357Y362520388D01*
X399234085Y362460874D01*
X399261938Y362395483D01*
X399279068Y362323148D01*
X399284989Y362242526D01*
X399280422Y362172725D01*
X399267101Y362108524D01*
X399245321Y362049084D01*
X399215013Y361993703D01*
X399176754Y361942641D01*
X399134086Y361900086D01*
X399086770Y361865292D01*
X399034335Y361837815D01*
X399123850Y361749033D01*
X399144889Y361720395D01*
X399151144Y361693773D01*
X399145986Y361663993D01*
X399130994Y361640284D01*
X399108922Y361624171D01*
X399084160Y361618974D01*
X399044532Y361625507D01*
X398930024Y361651392D01*
X398863548Y361658053D01*
X398824105Y361652918D01*
X398763836Y361633811D01*
X398724646Y361622606D01*
X398686594Y361618974D01*
X398638106Y361624575D01*
X398588600Y361641913D01*
X398536995Y361672585D01*
X398515287Y361692550D01*
X398503338Y361713336D01*
X398499443Y361735783D01*
X398504553Y361763701D01*
X398519593Y361786280D01*
X398541961Y361801449D01*
X398569113Y361806552D01*
X398590683Y361801780D01*
X398625167Y361783105D01*
X398660104Y361764695D01*
X398685251Y361759658D01*
X398703099Y361762267D01*
X398728299Y361771687D01*
X398793712Y361793143D01*
X398864220Y361800385D01*
X398860129Y361806552D01*
X398789118Y361820364D01*
X398723821Y361847226D01*
X398663036Y361887708D01*
X398605994Y361943328D01*
X398559967Y362007353D01*
X398527132Y362077488D01*
X398507044Y362154929D01*
X398500115Y362241243D01*
X398500164Y362241915D01*
X398640127Y362241915D01*
X398645261Y362178939D01*
X398660025Y362123574D01*
X398683975Y362074478D01*
X398717369Y362030645D01*
X398758889Y361992945D01*
X398801504Y361967309D01*
X398845863Y361952270D01*
X398892918Y361947236D01*
X398939571Y361952273D01*
X398983686Y361967341D01*
X399026212Y361993082D01*
X399067796Y362031011D01*
X399101205Y362075026D01*
X399125134Y362124141D01*
X399139862Y362179335D01*
X399144977Y362241915D01*
X399139866Y362304523D01*
X399125142Y362359793D01*
X399101213Y362409023D01*
X399067796Y362453185D01*
X399026190Y362491297D01*
X398983657Y362517147D01*
X398939552Y362532273D01*
X398892918Y362537327D01*
X398845882Y362532274D01*
X398801532Y362517179D01*
X398758911Y362491433D01*
X398717369Y362453551D01*
X398683963Y362409540D01*
X398660013Y362360318D01*
X398645256Y362304885D01*
X398640127Y362241915D01*
X398500164Y362241915D01*
X398506038Y362322100D01*
X398523173Y362394650D01*
X398551032Y362460235D01*
X398589760Y362519924D01*
X398640127Y362574452D01*
X398699383Y362620692D01*
X398760656Y362652654D01*
X398824788Y362671625D01*
X398892918Y362678011D01*
X398960679Y362671654D01*
G37*
G36*
X397733314Y362517787D02*
G01*
X397733314Y362119305D01*
X397739256Y362056009D01*
X397756618Y361998787D01*
X397785407Y361946345D01*
X397826554Y361897777D01*
X397875972Y361857581D01*
X397929194Y361829390D01*
X397987108Y361812373D01*
X398050952Y361806552D01*
X398114290Y361812383D01*
X398172890Y361829572D01*
X398226805Y361857793D01*
X398275350Y361897105D01*
X398316421Y361943521D01*
X398346058Y361990040D01*
X398359342Y362023285D01*
X398368114Y362065675D01*
X398371338Y362119305D01*
X398371338Y362517787D01*
X398411806Y362523220D01*
X398436917Y362537205D01*
X398452685Y362559381D01*
X398458105Y362588129D01*
X398452683Y362616867D01*
X398436917Y362638993D01*
X398410987Y362652815D01*
X398364499Y362658471D01*
X398180767Y362658471D01*
X398134823Y362652846D01*
X398108715Y362638993D01*
X398092664Y362616836D01*
X398087161Y362588129D01*
X398092662Y362559412D01*
X398108715Y362537205D01*
X398134816Y362523396D01*
X398180767Y362517787D01*
X398231325Y362517787D01*
X398231325Y362107032D01*
X398225687Y362067184D01*
X398208728Y362030447D01*
X398179057Y361995596D01*
X398141857Y361968747D01*
X398100309Y361952730D01*
X398053028Y361947236D01*
X398005326Y361953075D01*
X397960765Y361970561D01*
X397921940Y361998925D01*
X397890423Y362038461D01*
X397877829Y362068747D01*
X397873326Y362107032D01*
X397873326Y362517787D01*
X397923885Y362517787D01*
X397969845Y362523394D01*
X397995997Y362537205D01*
X398012004Y362559407D01*
X398017491Y362588129D01*
X398012001Y362616841D01*
X397995997Y362638993D01*
X397969839Y362652849D01*
X397923885Y362658471D01*
X397740153Y362658471D01*
X397694209Y362652846D01*
X397668101Y362638993D01*
X397652050Y362616836D01*
X397646547Y362588129D01*
X397651967Y362559381D01*
X397667735Y362537205D01*
X397692846Y362523220D01*
X397733314Y362517787D01*
G37*
G36*
X397281560Y362671656D02*
G01*
X397345567Y362652749D01*
X397406950Y362620846D01*
X397466540Y362574635D01*
X397516647Y362520209D01*
X397555188Y362460619D01*
X397582921Y362395130D01*
X397599982Y362322674D01*
X397605881Y362241915D01*
X397599975Y362161138D01*
X397582901Y362088760D01*
X397555162Y362023428D01*
X397516627Y361964065D01*
X397466540Y361909928D01*
X397406950Y361863717D01*
X397345567Y361831814D01*
X397281560Y361812907D01*
X397213810Y361806552D01*
X397153400Y361811455D01*
X397096495Y361825965D01*
X397042277Y361850188D01*
X396990100Y361884760D01*
X396939525Y361930811D01*
X396897070Y361982712D01*
X396864249Y362039027D01*
X396840578Y362100392D01*
X396826024Y362167671D01*
X396821006Y362241915D01*
X396961018Y362241915D01*
X396966153Y362178939D01*
X396980917Y362123574D01*
X397004866Y362074478D01*
X397038260Y362030645D01*
X397079780Y361992945D01*
X397122396Y361967309D01*
X397166754Y361952270D01*
X397213810Y361947236D01*
X397260463Y361952273D01*
X397304577Y361967341D01*
X397347104Y361993082D01*
X397388688Y362031011D01*
X397422097Y362075026D01*
X397446025Y362124141D01*
X397460754Y362179335D01*
X397465868Y362241915D01*
X397460757Y362304523D01*
X397446033Y362359793D01*
X397422104Y362409023D01*
X397388688Y362453185D01*
X397347081Y362491297D01*
X397304549Y362517147D01*
X397260443Y362532273D01*
X397213810Y362537327D01*
X397166773Y362532274D01*
X397122424Y362517179D01*
X397079802Y362491433D01*
X397038260Y362453551D01*
X397004854Y362409540D01*
X396980904Y362360318D01*
X396966148Y362304885D01*
X396961018Y362241915D01*
X396821006Y362241915D01*
X396826032Y362316486D01*
X396840602Y362383992D01*
X396864284Y362445494D01*
X396897101Y362501865D01*
X396939525Y362553752D01*
X396990100Y362599803D01*
X397042277Y362634375D01*
X397096495Y362658598D01*
X397153400Y362673108D01*
X397213810Y362678011D01*
X397281560Y362671656D01*
G37*
G36*
X396155261Y362619392D02*
G01*
X396141210Y362636967D01*
X396126929Y362648702D01*
X396110894Y362656044D01*
X396093773Y362658471D01*
X396065651Y362653098D01*
X396043581Y362637344D01*
X396029740Y362611552D01*
X396024103Y362565720D01*
X396024103Y362447079D01*
X396029724Y362401243D01*
X396043581Y362375150D01*
X396065681Y362359110D01*
X396093773Y362353656D01*
X396119636Y362357716D01*
X396138897Y362369105D01*
X396152688Y362388947D01*
X396164176Y362426990D01*
X396171719Y362452919D01*
X396183288Y362470710D01*
X396215585Y362497155D01*
X396261568Y362519131D01*
X396312184Y362532838D01*
X396362318Y362537327D01*
X396423008Y362530391D01*
X396477784Y362509972D01*
X396510369Y362488809D01*
X396541272Y362459597D01*
X396570657Y362421067D01*
X396592676Y362378404D01*
X396606237Y362330061D01*
X396610957Y362274766D01*
X396610957Y362183846D01*
X396606243Y362134704D01*
X396592530Y362090843D01*
X396569864Y362051157D01*
X396537501Y362014891D01*
X396499091Y361986393D01*
X396453328Y361965351D01*
X396398765Y361951996D01*
X396333558Y361947236D01*
X396259171Y361952994D01*
X396201728Y361968607D01*
X396171085Y361985738D01*
X396134806Y362017578D01*
X396100673Y362046154D01*
X396072585Y362052749D01*
X396046542Y362047520D01*
X396023431Y362031439D01*
X396007486Y362008107D01*
X396002243Y361981247D01*
X396008649Y361953028D01*
X396030942Y361919331D01*
X396077833Y361876881D01*
X396138164Y361843677D01*
X396197970Y361823320D01*
X396262617Y361810836D01*
X396332887Y361806552D01*
X396414502Y361812476D01*
X396488800Y361829714D01*
X396556980Y361857904D01*
X396606968Y361889726D01*
X396652638Y361932468D01*
X396694305Y361987597D01*
X396725876Y362048722D01*
X396744645Y362112827D01*
X396750969Y362181038D01*
X396750969Y362276170D01*
X396745259Y362347918D01*
X396728345Y362415714D01*
X396700106Y362480479D01*
X396661415Y362539341D01*
X396614594Y362587732D01*
X396558995Y362626659D01*
X396497238Y362655340D01*
X396433768Y362672326D01*
X396367691Y362678011D01*
X396308179Y362674302D01*
X396253996Y362663539D01*
X396202809Y362645252D01*
X396155261Y362619392D01*
G37*
G36*
X394628499Y362517787D02*
G01*
X394628499Y361970683D01*
X394534221Y361970683D01*
X394488277Y361965059D01*
X394462170Y361951205D01*
X394446166Y361929053D01*
X394440676Y361900341D01*
X394446164Y361871619D01*
X394462170Y361849417D01*
X394488271Y361835609D01*
X394534221Y361830000D01*
X394862117Y361830000D01*
X394908078Y361835606D01*
X394934230Y361849417D01*
X394950236Y361871619D01*
X394955724Y361900341D01*
X394950234Y361929053D01*
X394934230Y361951205D01*
X394908071Y361965061D01*
X394862117Y361970683D01*
X394768572Y361970683D01*
X394768572Y362517787D01*
X394920186Y362517787D01*
X394920186Y362384919D01*
X394925814Y362338804D01*
X394939665Y362312623D01*
X394961858Y362296615D01*
X394990528Y362291130D01*
X395018672Y362296587D01*
X395040781Y362312623D01*
X395054632Y362338804D01*
X395060259Y362384919D01*
X395060259Y362658471D01*
X394334736Y362658471D01*
X394334736Y362384919D01*
X394340364Y362338804D01*
X394354214Y362312623D01*
X394376417Y362296617D01*
X394405139Y362291130D01*
X394433231Y362296584D01*
X394455331Y362312623D01*
X394469182Y362338804D01*
X394474809Y362384919D01*
X394474809Y362517787D01*
X394628499Y362517787D01*
G37*
G36*
X394209598Y362652849D02*
G01*
X394235757Y362638993D01*
X394251761Y362616841D01*
X394257250Y362588129D01*
X394251763Y362559407D01*
X394235757Y362537205D01*
X394209604Y362523394D01*
X394163644Y362517787D01*
X394141784Y362517787D01*
X394141784Y361970683D01*
X394163644Y361970683D01*
X394209054Y361965092D01*
X394235390Y361951205D01*
X394251680Y361929022D01*
X394257250Y361900341D01*
X394251763Y361871619D01*
X394235757Y361849417D01*
X394209604Y361835606D01*
X394163644Y361830000D01*
X393951214Y361830000D01*
X393905263Y361835609D01*
X393879162Y361849417D01*
X393863108Y361871624D01*
X393857608Y361900341D01*
X393863110Y361929048D01*
X393879162Y361951205D01*
X393905269Y361965059D01*
X393951214Y361970683D01*
X394001711Y361970683D01*
X394001711Y362146538D01*
X393863042Y362146538D01*
X393814531Y362115756D01*
X393753508Y362059302D01*
X393676775Y361967761D01*
X393580942Y361830000D01*
X393501013Y361830000D01*
X393455111Y361835620D01*
X393429267Y361849417D01*
X393413499Y361871593D01*
X393408079Y361900341D01*
X393415285Y361929416D01*
X393438853Y361957433D01*
X393460880Y361966524D01*
X393509195Y361970683D01*
X393593948Y362092194D01*
X393644785Y362149391D01*
X393688897Y362191845D01*
X393639547Y362222540D01*
X393601643Y362254311D01*
X393573431Y362287161D01*
X393552089Y362324395D01*
X393539423Y362363849D01*
X393535146Y362406352D01*
X393535615Y362410992D01*
X393675219Y362410992D01*
X393680376Y362385293D01*
X393697445Y362357259D01*
X393726333Y362333083D01*
X393783846Y362305601D01*
X393833733Y362292016D01*
X393892412Y362287222D01*
X394001711Y362287222D01*
X394001711Y362517787D01*
X393841182Y362517787D01*
X393787900Y362513452D01*
X393747685Y362501787D01*
X393717595Y362484082D01*
X393692861Y362459479D01*
X393679481Y362435428D01*
X393675219Y362410992D01*
X393535615Y362410992D01*
X393540277Y362457105D01*
X393555328Y362503121D01*
X393580474Y362545511D01*
X393616784Y362585015D01*
X393659330Y362615769D01*
X393710591Y362638637D01*
X393772310Y362653242D01*
X393846678Y362658471D01*
X394163644Y362658471D01*
X394209598Y362652849D01*
G37*
G36*
X393085468Y362671656D02*
G01*
X393149475Y362652749D01*
X393210858Y362620846D01*
X393270448Y362574635D01*
X393320554Y362520209D01*
X393359096Y362460619D01*
X393386829Y362395130D01*
X393403890Y362322674D01*
X393409788Y362241915D01*
X393403882Y362161138D01*
X393386809Y362088760D01*
X393359070Y362023428D01*
X393320535Y361964065D01*
X393270448Y361909928D01*
X393210858Y361863717D01*
X393149475Y361831814D01*
X393085468Y361812907D01*
X393017718Y361806552D01*
X392957308Y361811455D01*
X392900402Y361825965D01*
X392846185Y361850188D01*
X392794008Y361884760D01*
X392743433Y361930811D01*
X392700978Y361982712D01*
X392668157Y362039027D01*
X392644486Y362100392D01*
X392629932Y362167671D01*
X392624914Y362241915D01*
X392764926Y362241915D01*
X392770061Y362178939D01*
X392784825Y362123574D01*
X392808774Y362074478D01*
X392842168Y362030645D01*
X392883688Y361992945D01*
X392926303Y361967309D01*
X392970662Y361952270D01*
X393017718Y361947236D01*
X393064370Y361952273D01*
X393108485Y361967341D01*
X393151012Y361993082D01*
X393192595Y362031011D01*
X393226005Y362075026D01*
X393249933Y362124141D01*
X393264662Y362179335D01*
X393269776Y362241915D01*
X393264665Y362304523D01*
X393249941Y362359793D01*
X393226012Y362409023D01*
X393192595Y362453185D01*
X393150989Y362491297D01*
X393108457Y362517147D01*
X393064351Y362532273D01*
X393017718Y362537327D01*
X392970681Y362532274D01*
X392926332Y362517179D01*
X392883710Y362491433D01*
X392842168Y362453551D01*
X392808762Y362409540D01*
X392784812Y362360318D01*
X392770055Y362304885D01*
X392764926Y362241915D01*
X392624914Y362241915D01*
X392629940Y362316486D01*
X392644510Y362383992D01*
X392668192Y362445494D01*
X392701008Y362501865D01*
X392743433Y362553752D01*
X392794008Y362599803D01*
X392846185Y362634375D01*
X392900402Y362658598D01*
X392957308Y362673108D01*
X393017718Y362678011D01*
X393085468Y362671656D01*
G37*
G36*
X392354049Y362393956D02*
G01*
X392354049Y361970683D01*
X392303490Y361970683D01*
X392257546Y361965059D01*
X392231439Y361951205D01*
X392215387Y361929048D01*
X392209884Y361900341D01*
X392215385Y361871624D01*
X392231439Y361849417D01*
X392257540Y361835609D01*
X392303490Y361830000D01*
X392487222Y361830000D01*
X392533183Y361835606D01*
X392559335Y361849417D01*
X392575341Y361871619D01*
X392580828Y361900341D01*
X392575406Y361929079D01*
X392559640Y361951205D01*
X392534523Y361965236D01*
X392494061Y361970683D01*
X392494061Y362517787D01*
X392515921Y362517787D01*
X392561881Y362523394D01*
X392588033Y362537205D01*
X392604039Y362559407D01*
X392609527Y362588129D01*
X392604037Y362616841D01*
X392588033Y362638993D01*
X392561875Y362652849D01*
X392515921Y362658471D01*
X392354049Y362658471D01*
X391996111Y362096591D01*
X391996111Y362517787D01*
X392046608Y362517787D01*
X392092569Y362523394D01*
X392118721Y362537205D01*
X392134727Y362559407D01*
X392140214Y362588129D01*
X392134725Y362616841D01*
X392118721Y362638993D01*
X392092562Y362652849D01*
X392046608Y362658471D01*
X391862876Y362658471D01*
X391816932Y362652846D01*
X391790825Y362638993D01*
X391774773Y362616836D01*
X391769270Y362588129D01*
X391774690Y362559381D01*
X391790458Y362537205D01*
X391815487Y362523198D01*
X391855366Y362517787D01*
X391855366Y361830000D01*
X391994035Y361830000D01*
X392354049Y362393956D01*
G37*
G36*
X390986777Y362084012D02*
G01*
X390986777Y361895640D01*
X391079319Y361850363D01*
X391148344Y361825420D01*
X391216640Y361811396D01*
X391292142Y361806552D01*
X391363061Y361810253D01*
X391429116Y361821073D01*
X391490894Y361838731D01*
X391557271Y361867877D01*
X391603979Y361901013D01*
X391641810Y361944933D01*
X391680183Y362012266D01*
X391699261Y362062379D01*
X391710962Y362116985D01*
X391714987Y362176885D01*
X391714987Y362278246D01*
X391709567Y362347049D01*
X391693612Y362411141D01*
X391667146Y362471467D01*
X391629624Y362528778D01*
X391580025Y362582844D01*
X391524953Y362624055D01*
X391463687Y362653564D01*
X391395035Y362671714D01*
X391317421Y362678011D01*
X391260939Y362675020D01*
X391208489Y362666287D01*
X391158078Y362651598D01*
X391110425Y362631116D01*
X391081349Y362652316D01*
X391055776Y362658471D01*
X391027749Y362653005D01*
X391005950Y362636978D01*
X390992344Y362610818D01*
X390986777Y362564193D01*
X390986777Y362472053D01*
X390992409Y362425404D01*
X391006256Y362398902D01*
X391028381Y362382624D01*
X391056448Y362377103D01*
X391079482Y362380954D01*
X391098824Y362392308D01*
X391110200Y362406645D01*
X391121721Y362438164D01*
X391132606Y362470369D01*
X391142543Y362486219D01*
X391165538Y362503701D01*
X391207817Y362521756D01*
X391256330Y362533274D01*
X391312597Y362537327D01*
X391367287Y362533291D01*
X391415197Y362521734D01*
X391457433Y362503133D01*
X391484122Y362483626D01*
X391510942Y362454905D01*
X391538033Y362414900D01*
X391558531Y362371735D01*
X391570779Y362326400D01*
X391574914Y362278185D01*
X391574914Y362177008D01*
X391570324Y362120959D01*
X391557501Y362074900D01*
X391537286Y362036935D01*
X391509701Y362005671D01*
X391475918Y361982049D01*
X391431844Y361963794D01*
X391374994Y361951697D01*
X391302339Y361947236D01*
X391238943Y361951392D01*
X391180683Y361963513D01*
X391126789Y361983323D01*
X391126789Y362084012D01*
X391269610Y362084012D01*
X391315517Y362089617D01*
X391341662Y362103429D01*
X391357668Y362125632D01*
X391363155Y362154354D01*
X391357666Y362183066D01*
X391341662Y362205218D01*
X391315511Y362219075D01*
X391269610Y362224696D01*
X391020910Y362224696D01*
X390974966Y362219071D01*
X390948859Y362205218D01*
X390932854Y362183066D01*
X390927365Y362154354D01*
X390931288Y362125073D01*
X390942081Y362103429D01*
X390959953Y362089145D01*
X390986777Y362084012D01*
G37*
D12*
%TO.C,J3*%
X505890000Y478000000D03*
X500110000Y478000000D03*
D13*
X507320000Y477470000D03*
D14*
X507320000Y481650000D03*
D13*
X498680000Y477470000D03*
D14*
X498680000Y481650000D03*
%TD*%
D15*
%TO.C,DRGB6*%
X522670000Y458905000D03*
X522670000Y460655000D03*
X526170000Y460655000D03*
X526170000Y458905000D03*
%TD*%
D16*
%TO.C,SW35*%
X528875770Y468763298D03*
D17*
X530145770Y471313298D03*
D18*
X533955770Y468763298D03*
D17*
X536495770Y473843298D03*
D16*
X539035770Y468763298D03*
%TD*%
%TO.C,SW47*%
X438388270Y425900798D03*
D17*
X439658270Y428450798D03*
D18*
X443468270Y425900798D03*
D17*
X446008270Y430980798D03*
D16*
X448548270Y425900798D03*
%TD*%
%TO.C,SW71*%
X338375770Y387800798D03*
D17*
X339645770Y390350798D03*
D18*
X343455770Y387800798D03*
D17*
X345995770Y392880798D03*
D16*
X348535770Y387800798D03*
%TD*%
%TO.C,SW2002*%
X276463270Y468763298D03*
D17*
X277733270Y471313298D03*
D18*
X281543270Y468763298D03*
D17*
X284083270Y473843298D03*
D16*
X286623270Y468763298D03*
%TD*%
%TO.C,SW61*%
X386000770Y406850798D03*
D17*
X387270770Y409400798D03*
D18*
X391080770Y406850798D03*
D17*
X393620770Y411930798D03*
D16*
X396160770Y406850798D03*
%TD*%
%TO.C,SW3*%
X257413270Y444950798D03*
D17*
X258683270Y447500798D03*
D18*
X262493270Y444950798D03*
D17*
X265033270Y450030798D03*
D16*
X267573270Y444950798D03*
%TD*%
D19*
%TO.C,REF\u002A\u002A*%
X500620000Y473050000D03*
X500620000Y473060000D03*
%TD*%
D16*
%TO.C,SW13*%
X447913270Y444950798D03*
D17*
X449183270Y447500798D03*
D18*
X452993270Y444950798D03*
D17*
X455533270Y450030798D03*
D16*
X458073270Y444950798D03*
%TD*%
%TO.C,SW95*%
X509825770Y368750798D03*
D17*
X511095770Y371300798D03*
D18*
X514905770Y368750798D03*
D17*
X517445770Y373830798D03*
D16*
X519985770Y368750798D03*
%TD*%
D20*
%TO.C,SW65*%
X224435870Y394785798D03*
D21*
X224435870Y379545798D03*
D16*
X231293870Y387800798D03*
D17*
X232563870Y390350798D03*
D18*
X236373870Y387800798D03*
D17*
X238913870Y392880798D03*
D16*
X241453870Y387800798D03*
D20*
X248311870Y394785798D03*
D21*
X248311870Y379545798D03*
D22*
X238913870Y394140798D03*
%TD*%
D20*
%TO.C,SW1000*%
X462486770Y394785798D03*
D21*
X462486770Y379545798D03*
D16*
X469344770Y387800798D03*
D17*
X470614770Y390350798D03*
D18*
X474424770Y387800798D03*
D17*
X476964770Y392880798D03*
D16*
X479504770Y387800798D03*
D20*
X486362770Y394785798D03*
D21*
X486362770Y379545798D03*
%TD*%
D16*
%TO.C,SW18*%
X547925770Y444950798D03*
D17*
X549195770Y447500798D03*
D18*
X553005770Y444950798D03*
D17*
X555545770Y450030798D03*
D16*
X558085770Y444950798D03*
%TD*%
%TO.C,SW80*%
X486013270Y387800798D03*
D17*
X487283270Y390350798D03*
D18*
X491093270Y387800798D03*
D17*
X493633270Y392880798D03*
D16*
X496173270Y387800798D03*
%TD*%
%TO.C,SW72*%
X357425770Y387800798D03*
D17*
X358695770Y390350798D03*
D18*
X362505770Y387800798D03*
D17*
X365045770Y392880798D03*
D16*
X367585770Y387800798D03*
%TD*%
D20*
%TO.C,SW1001*%
X469630270Y451935798D03*
D21*
X469630270Y436695798D03*
D16*
X476488270Y444950798D03*
D17*
X477758270Y447500798D03*
D18*
X481568270Y444950798D03*
D17*
X484108270Y450030798D03*
D16*
X486648270Y444950798D03*
D20*
X493506270Y451935798D03*
D21*
X493506270Y436695798D03*
%TD*%
D16*
%TO.C,SW4*%
X276463270Y444950798D03*
D17*
X277733270Y447500798D03*
D18*
X281543270Y444950798D03*
D17*
X284083270Y450030798D03*
D16*
X286623270Y444950798D03*
%TD*%
%TO.C,SW29*%
X405050770Y468763298D03*
D17*
X406320770Y471313298D03*
D18*
X410130770Y468763298D03*
D17*
X412670770Y473843298D03*
D16*
X415210770Y468763298D03*
%TD*%
%TO.C,SW77*%
X224076270Y368750798D03*
D17*
X225346270Y371300798D03*
D18*
X229156270Y368750798D03*
D17*
X231696270Y373830798D03*
D16*
X234236270Y368750798D03*
%TD*%
%TO.C,SW76*%
X433625770Y387800798D03*
D17*
X434895770Y390350798D03*
D18*
X438705770Y387800798D03*
D17*
X441245770Y392880798D03*
D16*
X443785770Y387800798D03*
%TD*%
%TO.C,SW66*%
X262175770Y387800798D03*
D17*
X263445770Y390350798D03*
D18*
X267255770Y387800798D03*
D17*
X269795770Y392880798D03*
D16*
X272335770Y387800798D03*
%TD*%
D19*
%TO.C,REF\u002A\u002A*%
X503020000Y473070000D03*
X503020000Y473060000D03*
%TD*%
D16*
%TO.C,SW46*%
X419338270Y425900798D03*
D17*
X420608270Y428450798D03*
D18*
X424418270Y425900798D03*
D17*
X426958270Y430980798D03*
D16*
X429498270Y425900798D03*
%TD*%
%TO.C,SW50*%
X481251270Y425900798D03*
D17*
X482521270Y428450798D03*
D18*
X486331270Y425900798D03*
D17*
X488871270Y430980798D03*
D16*
X491411270Y425900798D03*
%TD*%
D19*
%TO.C,REF\u002A\u002A*%
X504220000Y473025000D03*
X504220000Y473035000D03*
%TD*%
D16*
%TO.C,SW33*%
X486013270Y468763298D03*
D17*
X487283270Y471313298D03*
D18*
X491093270Y468763298D03*
D17*
X493633270Y473843298D03*
D16*
X496173270Y468763298D03*
%TD*%
%TO.C,SW27*%
X362188270Y468763298D03*
D17*
X363458270Y471313298D03*
D18*
X367268270Y468763298D03*
D17*
X369808270Y473843298D03*
D16*
X372348270Y468763298D03*
%TD*%
%TO.C,SW51*%
X509825770Y425900798D03*
D17*
X511095770Y428450798D03*
D18*
X514905770Y425900798D03*
D17*
X517445770Y430980798D03*
D16*
X519985770Y425900798D03*
%TD*%
D21*
%TO.C,SW86*%
X300593270Y377005798D03*
D20*
X300593270Y361765798D03*
D16*
X352663270Y368750798D03*
D17*
X353933270Y371300798D03*
D18*
X357743270Y368750798D03*
D17*
X360283270Y373830798D03*
D16*
X362823270Y368750798D03*
D21*
X414893270Y377005798D03*
D20*
X414893270Y361765798D03*
%TD*%
D16*
%TO.C,SW1002*%
X221694270Y406850798D03*
D17*
X222964270Y409400798D03*
D18*
X226774270Y406850798D03*
D17*
X229314270Y411930798D03*
D16*
X231854270Y406850798D03*
%TD*%
%TO.C,SW8*%
X352663270Y444950798D03*
D17*
X353933270Y447500798D03*
D18*
X357743270Y444950798D03*
D17*
X360283270Y450030798D03*
D16*
X362823270Y444950798D03*
%TD*%
%TO.C,SW69*%
X300275770Y387800798D03*
D17*
X301545770Y390350798D03*
D18*
X305355770Y387800798D03*
D17*
X307895770Y392880798D03*
D16*
X310435770Y387800798D03*
%TD*%
%TO.C,SW26*%
X343138270Y468763298D03*
D17*
X344408270Y471313298D03*
D18*
X348218270Y468763298D03*
D17*
X350758270Y473843298D03*
D16*
X353298270Y468763298D03*
%TD*%
%TO.C,SW40*%
X305038270Y425900798D03*
D17*
X306308270Y428450798D03*
D18*
X310118270Y425900798D03*
D17*
X312658270Y430980798D03*
D16*
X315198270Y425900798D03*
%TD*%
%TO.C,SW79*%
X459819770Y387800798D03*
D17*
X461089770Y390350798D03*
D18*
X464899770Y387800798D03*
D17*
X467439770Y392880798D03*
D16*
X469979770Y387800798D03*
%TD*%
%TO.C,SW38*%
X266938270Y425900798D03*
D17*
X268208270Y428450798D03*
D18*
X272018270Y425900798D03*
D17*
X274558270Y430980798D03*
D16*
X277098270Y425900798D03*
%TD*%
%TO.C,SW41*%
X324088270Y425900798D03*
D17*
X325358270Y428450798D03*
D18*
X329168270Y425900798D03*
D17*
X331708270Y430980798D03*
D16*
X334248270Y425900798D03*
%TD*%
%TO.C,SW82*%
X528875770Y387800798D03*
D17*
X530145770Y390350798D03*
D18*
X533955770Y387800798D03*
D17*
X536495770Y392880798D03*
D16*
X539035770Y387800798D03*
%TD*%
%TO.C,SW16*%
X509825770Y444950798D03*
D17*
X511095770Y447500798D03*
D18*
X514905770Y444950798D03*
D17*
X517445770Y450030798D03*
D16*
X519985770Y444950798D03*
%TD*%
%TO.C,SW55*%
X271700770Y406850798D03*
D17*
X272970770Y409400798D03*
D18*
X276780770Y406850798D03*
D17*
X279320770Y411930798D03*
D16*
X281860770Y406850798D03*
%TD*%
%TO.C,SW45*%
X400288270Y425900798D03*
D17*
X401558270Y428450798D03*
D18*
X405368270Y425900798D03*
D17*
X407908270Y430980798D03*
D16*
X410448270Y425900798D03*
%TD*%
%TO.C,SW31*%
X443150770Y468763298D03*
D17*
X444420770Y471313298D03*
D18*
X448230770Y468763298D03*
D17*
X450770770Y473843298D03*
D16*
X453310770Y468763298D03*
%TD*%
%TO.C,SW2004*%
X314563270Y468763298D03*
D17*
X315833270Y471313298D03*
D18*
X319643270Y468763298D03*
D17*
X322183270Y473843298D03*
D16*
X324723270Y468763298D03*
%TD*%
%TO.C,SW39*%
X285988270Y425900798D03*
D17*
X287258270Y428450798D03*
D18*
X291068270Y425900798D03*
D17*
X293608270Y430980798D03*
D16*
X296148270Y425900798D03*
%TD*%
D19*
%TO.C,REF\u002A\u002A*%
X501820000Y473015000D03*
X501820000Y473025000D03*
%TD*%
D16*
%TO.C,SW2001*%
X257413270Y468763298D03*
D17*
X258683270Y471313298D03*
D18*
X262493270Y468763298D03*
D17*
X265033270Y473843298D03*
D16*
X267573270Y468763298D03*
%TD*%
%TO.C,SW63*%
X424100770Y406850798D03*
D17*
X425370770Y409400798D03*
D18*
X429180770Y406850798D03*
D17*
X431720770Y411930798D03*
D16*
X434260770Y406850798D03*
%TD*%
%TO.C,SW28*%
X381238270Y468763298D03*
D17*
X382508270Y471313298D03*
D18*
X386318270Y468763298D03*
D17*
X388858270Y473843298D03*
D16*
X391398270Y468763298D03*
%TD*%
%TO.C,SW1*%
X219313270Y444950798D03*
D17*
X220583270Y447500798D03*
D18*
X224393270Y444950798D03*
D17*
X226933270Y450030798D03*
D16*
X229473270Y444950798D03*
%TD*%
%TO.C,SW37*%
X247888270Y425900798D03*
D17*
X249158270Y428450798D03*
D18*
X252968270Y425900798D03*
D17*
X255508270Y430980798D03*
D16*
X258048270Y425900798D03*
%TD*%
%TO.C,SW68*%
X281225770Y387800798D03*
D17*
X282495770Y390350798D03*
D18*
X286305770Y387800798D03*
D17*
X288845770Y392880798D03*
D16*
X291385770Y387800798D03*
%TD*%
%TO.C,SW24*%
X224076270Y425900798D03*
D17*
X225346270Y428450798D03*
D18*
X229156270Y425900798D03*
D17*
X231696270Y430980798D03*
D16*
X234236270Y425900798D03*
%TD*%
%TO.C,SW9*%
X371713270Y444950798D03*
D17*
X372983270Y447500798D03*
D18*
X376793270Y444950798D03*
D17*
X379333270Y450030798D03*
D16*
X381873270Y444950798D03*
%TD*%
%TO.C,SW49*%
X226457270Y406850798D03*
D17*
X227727270Y409400798D03*
D18*
X231537270Y406850798D03*
D17*
X234077270Y411930798D03*
D16*
X236617270Y406850798D03*
%TD*%
%TO.C,SW74*%
X395525770Y387800798D03*
D17*
X396795770Y390350798D03*
D18*
X400605770Y387800798D03*
D17*
X403145770Y392880798D03*
D16*
X405685770Y387800798D03*
%TD*%
%TO.C,SW2008*%
X400288270Y468763298D03*
D17*
X401558270Y471313298D03*
D18*
X405368270Y468763298D03*
D17*
X407908270Y473843298D03*
D16*
X410448270Y468763298D03*
%TD*%
%TO.C,SW64*%
X443150770Y406850798D03*
D17*
X444420770Y409400798D03*
D18*
X448230770Y406850798D03*
D17*
X450770770Y411930798D03*
D16*
X453310770Y406850798D03*
%TD*%
%TO.C,SW23*%
X300275770Y468763298D03*
D17*
X301545770Y471313298D03*
D18*
X305355770Y468763298D03*
D17*
X307895770Y473843298D03*
D16*
X310435770Y468763298D03*
%TD*%
%TO.C,SW10*%
X390763270Y444950798D03*
D17*
X392033270Y447500798D03*
D18*
X395843270Y444950798D03*
D17*
X398383270Y450030798D03*
D16*
X400923270Y444950798D03*
%TD*%
%TO.C,SW17*%
X528875770Y444950798D03*
D17*
X530145770Y447500798D03*
D18*
X533955770Y444950798D03*
D17*
X536495770Y450030798D03*
D16*
X539035770Y444950798D03*
%TD*%
%TO.C,SW97*%
X547925770Y368750798D03*
D17*
X549195770Y371300798D03*
D18*
X553005770Y368750798D03*
D17*
X555545770Y373830798D03*
D16*
X558085770Y368750798D03*
%TD*%
%TO.C,SW48*%
X457438270Y425900798D03*
D17*
X458708270Y428450798D03*
D18*
X462518270Y425900798D03*
D17*
X465058270Y430980798D03*
D16*
X467598270Y425900798D03*
%TD*%
%TO.C,SW42*%
X343138270Y425900798D03*
D17*
X344408270Y428450798D03*
D18*
X348218270Y425900798D03*
D17*
X350758270Y430980798D03*
D16*
X353298270Y425900798D03*
%TD*%
%TO.C,SW12*%
X428863270Y444950798D03*
D17*
X430133270Y447500798D03*
D18*
X433943270Y444950798D03*
D17*
X436483270Y450030798D03*
D16*
X439023270Y444950798D03*
%TD*%
%TO.C,SW70*%
X319325770Y387800798D03*
D17*
X320595770Y390350798D03*
D18*
X324405770Y387800798D03*
D17*
X326945770Y392880798D03*
D16*
X329485770Y387800798D03*
%TD*%
%TO.C,SW57*%
X309800770Y406850798D03*
D17*
X311070770Y409400798D03*
D18*
X314880770Y406850798D03*
D17*
X317420770Y411930798D03*
D16*
X319960770Y406850798D03*
%TD*%
%TO.C,SW21*%
X262175770Y468763298D03*
D17*
X263445770Y471313298D03*
D18*
X267255770Y468763298D03*
D17*
X269795770Y473843298D03*
D16*
X272335770Y468763298D03*
%TD*%
%TO.C,SW96*%
X528875770Y368750798D03*
D17*
X530145770Y371300798D03*
D18*
X533955770Y368750798D03*
D17*
X536495770Y373830798D03*
D16*
X539035770Y368750798D03*
%TD*%
%TO.C,SW20*%
X243125770Y468763298D03*
D17*
X244395770Y471313298D03*
D18*
X248205770Y468763298D03*
D17*
X250745770Y473843298D03*
D16*
X253285770Y468763298D03*
%TD*%
%TO.C,SW2009*%
X428863270Y468763298D03*
D17*
X430133270Y471313298D03*
D18*
X433943270Y468763298D03*
D17*
X436483270Y473843298D03*
D16*
X439023270Y468763298D03*
%TD*%
%TO.C,SW25*%
X324088270Y468763298D03*
D17*
X325358270Y471313298D03*
D18*
X329168270Y468763298D03*
D17*
X331708270Y473843298D03*
D16*
X334248270Y468763298D03*
%TD*%
%TO.C,SW32*%
X462200770Y468763298D03*
D17*
X463470770Y471313298D03*
D18*
X467280770Y468763298D03*
D17*
X469820770Y473843298D03*
D16*
X472360770Y468763298D03*
%TD*%
D20*
%TO.C,SW67*%
X467323370Y413835798D03*
D21*
X467323370Y398595798D03*
D16*
X474181370Y406850798D03*
D17*
X475451370Y409400798D03*
D18*
X479261370Y406850798D03*
D17*
X481801370Y411930798D03*
D16*
X484341370Y406850798D03*
D20*
X491199370Y413835798D03*
D21*
X491199370Y398595798D03*
D22*
X481801370Y413190798D03*
%TD*%
D16*
%TO.C,SW19*%
X219313270Y468763298D03*
D17*
X220583270Y471313298D03*
D18*
X224393270Y468763298D03*
D17*
X226933270Y473843298D03*
D16*
X229473270Y468763298D03*
%TD*%
%TO.C,SW2003*%
X295513270Y468763298D03*
D17*
X296783270Y471313298D03*
D18*
X300593270Y468763298D03*
D17*
X303133270Y473843298D03*
D16*
X305673270Y468763298D03*
%TD*%
%TO.C,SW73*%
X376475770Y387800798D03*
D17*
X377745770Y390350798D03*
D18*
X381555770Y387800798D03*
D17*
X384095770Y392880798D03*
D16*
X386635770Y387800798D03*
%TD*%
%TO.C,SW62*%
X405050770Y406850798D03*
D17*
X406320770Y409400798D03*
D18*
X410130770Y406850798D03*
D17*
X412670770Y411930798D03*
D16*
X415210770Y406850798D03*
%TD*%
%TO.C,SW75*%
X414575770Y387800798D03*
D17*
X415845770Y390350798D03*
D18*
X419655770Y387800798D03*
D17*
X422195770Y392880798D03*
D16*
X424735770Y387800798D03*
%TD*%
%TO.C,SW59*%
X347900770Y406850798D03*
D17*
X349170770Y409400798D03*
D18*
X352980770Y406850798D03*
D17*
X355520770Y411930798D03*
D16*
X358060770Y406850798D03*
%TD*%
%TO.C,SW52*%
X528875770Y425900798D03*
D17*
X530145770Y428450798D03*
D18*
X533955770Y425900798D03*
D17*
X536495770Y430980798D03*
D16*
X539035770Y425900798D03*
%TD*%
%TO.C,SW56*%
X290750770Y406850798D03*
D17*
X292020770Y409400798D03*
D18*
X295830770Y406850798D03*
D17*
X298370770Y411930798D03*
D16*
X300910770Y406850798D03*
%TD*%
%TO.C,SW81*%
X271701270Y368750798D03*
D17*
X272971270Y371300798D03*
D18*
X276781270Y368750798D03*
D17*
X279321270Y373830798D03*
D16*
X281861270Y368750798D03*
%TD*%
D19*
%TO.C,REF\u002A\u002A*%
X505410000Y473005000D03*
X505410000Y473015000D03*
%TD*%
D16*
%TO.C,SW44*%
X381238270Y425900798D03*
D17*
X382508270Y428450798D03*
D18*
X386318270Y425900798D03*
D17*
X388858270Y430980798D03*
D16*
X391398270Y425900798D03*
%TD*%
%TO.C,SW11*%
X409813270Y444950798D03*
D17*
X411083270Y447500798D03*
D18*
X414893270Y444950798D03*
D17*
X417433270Y450030798D03*
D16*
X419973270Y444950798D03*
%TD*%
%TO.C,SW58*%
X328850770Y406850798D03*
D17*
X330120770Y409400798D03*
D18*
X333930770Y406850798D03*
D17*
X336470770Y411930798D03*
D16*
X339010770Y406850798D03*
%TD*%
%TO.C,SW22*%
X281225770Y468763298D03*
D17*
X282495770Y471313298D03*
D18*
X286305770Y468763298D03*
D17*
X288845770Y473843298D03*
D16*
X291385770Y468763298D03*
%TD*%
%TO.C,SW2010*%
X447913270Y468763298D03*
D17*
X449183270Y471313298D03*
D18*
X452993270Y468763298D03*
D17*
X455533270Y473843298D03*
D16*
X458073270Y468763298D03*
%TD*%
%TO.C,SW7*%
X333613270Y444950798D03*
D17*
X334883270Y447500798D03*
D18*
X338693270Y444950798D03*
D17*
X341233270Y450030798D03*
D16*
X343773270Y444950798D03*
%TD*%
%TO.C,SW36*%
X547925770Y468763298D03*
D17*
X549195770Y471313298D03*
D18*
X553005770Y468763298D03*
D17*
X555545770Y473843298D03*
D16*
X558085770Y468763298D03*
%TD*%
%TO.C,SW2*%
X238363270Y444950798D03*
D17*
X239633270Y447500798D03*
D18*
X243443270Y444950798D03*
D17*
X245983270Y450030798D03*
D16*
X248523270Y444950798D03*
%TD*%
D23*
%TO.C,J1*%
X558800000Y379970000D03*
D24*
X558800000Y382470000D03*
X558800000Y384970000D03*
X558800000Y387470000D03*
X558800000Y389970000D03*
%TD*%
D16*
%TO.C,SW5*%
X295513270Y444950798D03*
D17*
X296783270Y447500798D03*
D18*
X300593270Y444950798D03*
D17*
X303133270Y450030798D03*
D16*
X305673270Y444950798D03*
%TD*%
%TO.C,SW94*%
X481251270Y368750798D03*
D17*
X482521270Y371300798D03*
D18*
X486331270Y368750798D03*
D17*
X488871270Y373830798D03*
D16*
X491411270Y368750798D03*
%TD*%
%TO.C,SW15*%
X486013270Y444950798D03*
D17*
X487283270Y447500798D03*
D18*
X491093270Y444950798D03*
D17*
X493633270Y450030798D03*
D16*
X496173270Y444950798D03*
%TD*%
%TO.C,SW43*%
X362188270Y425900798D03*
D17*
X363458270Y428450798D03*
D18*
X367268270Y425900798D03*
D17*
X369808270Y430980798D03*
D16*
X372348270Y425900798D03*
%TD*%
%TO.C,SW53*%
X547925770Y425900798D03*
D17*
X549195770Y428450798D03*
D18*
X553005770Y425900798D03*
D17*
X555545770Y430980798D03*
D16*
X558085770Y425900798D03*
%TD*%
%TO.C,SW30*%
X424100770Y468763298D03*
D17*
X425370770Y471313298D03*
D18*
X429180770Y468763298D03*
D17*
X431720770Y473843298D03*
D16*
X434260770Y468763298D03*
%TD*%
%TO.C,SW14*%
X466963270Y444950798D03*
D17*
X468233270Y447500798D03*
D18*
X472043270Y444950798D03*
D17*
X474583270Y450030798D03*
D16*
X477123270Y444950798D03*
%TD*%
%TO.C,SW78*%
X247888270Y368750798D03*
D17*
X249158270Y371300798D03*
D18*
X252968270Y368750798D03*
D17*
X255508270Y373830798D03*
D16*
X258048270Y368750798D03*
%TD*%
%TO.C,SW34*%
X509825770Y468763298D03*
D17*
X511095770Y471313298D03*
D18*
X514905770Y468763298D03*
D17*
X517445770Y473843298D03*
D16*
X519985770Y468763298D03*
%TD*%
%TO.C,SW90*%
X433626270Y368750798D03*
D17*
X434896270Y371300798D03*
D18*
X438706270Y368750798D03*
D17*
X441246270Y373830798D03*
D16*
X443786270Y368750798D03*
%TD*%
%TO.C,SW93*%
X457438270Y368750798D03*
D17*
X458708270Y371300798D03*
D18*
X462518270Y368750798D03*
D17*
X465058270Y373830798D03*
D16*
X467598270Y368750798D03*
%TD*%
%TO.C,SW2011*%
X466963270Y468763298D03*
D17*
X468233270Y471313298D03*
D18*
X472043270Y468763298D03*
D17*
X474583270Y473843298D03*
D16*
X477123270Y468763298D03*
%TD*%
%TO.C,SW60*%
X366950770Y406850798D03*
D17*
X368220770Y409400798D03*
D18*
X372030770Y406850798D03*
D17*
X374570770Y411930798D03*
D16*
X377110770Y406850798D03*
%TD*%
%TO.C,SW54*%
X252650770Y406850798D03*
D17*
X253920770Y409400798D03*
D18*
X257730770Y406850798D03*
D17*
X260270770Y411930798D03*
D16*
X262810770Y406850798D03*
%TD*%
%TO.C,SW6*%
X314563270Y444950798D03*
D17*
X315833270Y447500798D03*
D18*
X319643270Y444950798D03*
D17*
X322183270Y450030798D03*
D16*
X324723270Y444950798D03*
%TD*%
D25*
%TO.C,D81*%
X273638770Y364230798D03*
X273638770Y367730798D03*
%TD*%
D15*
%TO.C,DRGB24*%
X472740000Y379135000D03*
X472740000Y377385000D03*
X469240000Y377385000D03*
X469240000Y379135000D03*
%TD*%
D25*
%TO.C,D33*%
X487950770Y464243298D03*
X487950770Y467743298D03*
%TD*%
%TO.C,D1*%
X221250770Y440430798D03*
X221250770Y443930798D03*
%TD*%
D15*
%TO.C,DRGB28*%
X557540000Y422135000D03*
X557540000Y420385000D03*
X554040000Y420385000D03*
X554040000Y422135000D03*
%TD*%
D25*
%TO.C,D66*%
X264113270Y383280798D03*
X264113270Y386780798D03*
%TD*%
%TO.C,D12*%
X430800770Y440430798D03*
X430800770Y443930798D03*
%TD*%
D26*
%TO.C,C24*%
X514155000Y399800000D03*
X512605000Y399800000D03*
%TD*%
D27*
%TO.C,C11*%
X538580000Y455765000D03*
X538580000Y454215000D03*
%TD*%
D25*
%TO.C,D59*%
X349838270Y402330798D03*
X349838270Y405830798D03*
%TD*%
D28*
%TO.C,J5*%
X504592230Y449673275D03*
X503592230Y449673275D03*
X502592230Y449673275D03*
X501592230Y449673275D03*
D29*
X505892230Y445798275D03*
X500292230Y445798275D03*
%TD*%
D25*
%TO.C,D22*%
X289500000Y464252500D03*
X289500000Y467752500D03*
%TD*%
D30*
%TO.C,Y2*%
X516682500Y398780000D03*
X520382500Y398780000D03*
%TD*%
D15*
%TO.C,DRGB12*%
X304870000Y458265000D03*
X304870000Y460015000D03*
X308370000Y460015000D03*
X308370000Y458265000D03*
%TD*%
%TO.C,DRGB19*%
X272740000Y379135000D03*
X272740000Y377385000D03*
X269240000Y377385000D03*
X269240000Y379135000D03*
%TD*%
D25*
%TO.C,D25*%
X326025770Y464243298D03*
X326025770Y467743298D03*
%TD*%
D27*
%TO.C,C6*%
X528190000Y396450000D03*
X528190000Y394900000D03*
%TD*%
D15*
%TO.C,DRGB15*%
X228010000Y436275000D03*
X228010000Y434525000D03*
X224510000Y434525000D03*
X224510000Y436275000D03*
%TD*%
D25*
%TO.C,D48*%
X459375770Y421380798D03*
X459375770Y424880798D03*
%TD*%
D27*
%TO.C,C12*%
X506390000Y453770000D03*
X506390000Y452220000D03*
%TD*%
D25*
%TO.C,D80*%
X487950770Y383280798D03*
X487950770Y386780798D03*
%TD*%
D15*
%TO.C,DRGB8*%
X458430000Y458315000D03*
X458430000Y460065000D03*
X461930000Y460065000D03*
X461930000Y458315000D03*
%TD*%
D25*
%TO.C,D43*%
X364125770Y421380798D03*
X364125770Y424880798D03*
%TD*%
%TO.C,D36*%
X549863270Y464243298D03*
X549863270Y467743298D03*
%TD*%
%TO.C,D76*%
X435563270Y383280798D03*
X435563270Y386780798D03*
%TD*%
%TO.C,D67*%
X476118870Y402330798D03*
X476118870Y405830798D03*
%TD*%
%TO.C,D74*%
X397463270Y383280798D03*
X397463270Y386780798D03*
%TD*%
%TO.C,D42*%
X345075770Y421380798D03*
X345075770Y424880798D03*
%TD*%
D27*
%TO.C,C13*%
X507850000Y453770000D03*
X507850000Y452220000D03*
%TD*%
D25*
%TO.C,D70*%
X321263270Y383280798D03*
X321263270Y386780798D03*
%TD*%
D31*
%TO.C,U6*%
X511532500Y409530000D03*
D32*
X511532500Y409030000D03*
X511532500Y408530000D03*
D31*
X511532500Y408030000D03*
D33*
X510857500Y407880000D03*
D31*
X510182500Y408030000D03*
D32*
X510182500Y408530000D03*
X510182500Y409030000D03*
D31*
X510182500Y409530000D03*
D33*
X510857500Y409680000D03*
%TD*%
D25*
%TO.C,D86*%
X354610770Y364243298D03*
X354610770Y367743298D03*
%TD*%
%TO.C,D11*%
X411750770Y440430798D03*
X411750770Y443930798D03*
%TD*%
D27*
%TO.C,C10*%
X537110000Y455775000D03*
X537110000Y454225000D03*
%TD*%
D25*
%TO.C,D58*%
X330788270Y402330798D03*
X330788270Y405830798D03*
%TD*%
%TO.C,D37*%
X249825770Y421380798D03*
X249825770Y424880798D03*
%TD*%
%TO.C,D68*%
X283163270Y383280798D03*
X283163270Y386780798D03*
%TD*%
%TO.C,D53*%
X549863270Y421380798D03*
X549863270Y424880798D03*
%TD*%
D15*
%TO.C,DRGB23*%
X432740000Y379135000D03*
X432740000Y377385000D03*
X429240000Y377385000D03*
X429240000Y379135000D03*
%TD*%
%TO.C,DRGB13*%
X264870000Y458265000D03*
X264870000Y460015000D03*
X268370000Y460015000D03*
X268370000Y458265000D03*
%TD*%
D25*
%TO.C,D9*%
X373650770Y440430798D03*
X373650770Y443930798D03*
%TD*%
D27*
%TO.C,C18*%
X544230000Y418715000D03*
X544230000Y417165000D03*
%TD*%
D34*
%TO.C,R1*%
X508160000Y363185000D03*
X508160000Y361535000D03*
%TD*%
D25*
%TO.C,D56*%
X292688270Y402330798D03*
X292688270Y405830798D03*
%TD*%
D15*
%TO.C,DRGB17*%
X234550000Y398085000D03*
X234550000Y396335000D03*
X231050000Y396335000D03*
X231050000Y398085000D03*
%TD*%
D25*
%TO.C,D15*%
X487950770Y440430798D03*
X487950770Y443930798D03*
%TD*%
D35*
%TO.C,C20*%
X519340000Y401800000D03*
X520890000Y401800000D03*
%TD*%
D25*
%TO.C,D49*%
X234720000Y402310000D03*
X234720000Y405810000D03*
%TD*%
D36*
%TO.C,U3*%
X552735000Y411895000D03*
X552735000Y410625000D03*
X552735000Y409355000D03*
X552735000Y408085000D03*
X547785000Y408085000D03*
X547785000Y409355000D03*
X547785000Y410625000D03*
X547785000Y411895000D03*
%TD*%
D25*
%TO.C,D2*%
X240300770Y440430798D03*
X240300770Y443930798D03*
%TD*%
D34*
%TO.C,R12*%
X511050000Y401335000D03*
X511050000Y399685000D03*
%TD*%
D15*
%TO.C,DRGB14*%
X224870000Y458265000D03*
X224870000Y460015000D03*
X228370000Y460015000D03*
X228370000Y458265000D03*
%TD*%
D26*
%TO.C,C23*%
X514155000Y401260000D03*
X512605000Y401260000D03*
%TD*%
D25*
%TO.C,D62*%
X406988270Y402330798D03*
X406988270Y405830798D03*
%TD*%
D37*
%TO.C,U7*%
X515595000Y406530000D03*
X515595000Y407030000D03*
X515595000Y407530000D03*
X515595000Y408030000D03*
X515595000Y408530000D03*
X515595000Y409030000D03*
X515595000Y409530000D03*
X515595000Y410030000D03*
D38*
X516282500Y410717500D03*
X516782500Y410717500D03*
X517282500Y410717500D03*
X517782500Y410717500D03*
X518282500Y410717500D03*
X518782500Y410717500D03*
X519282500Y410717500D03*
X519782500Y410717500D03*
D37*
X520470000Y410030000D03*
X520470000Y409530000D03*
X520470000Y409030000D03*
X520470000Y408530000D03*
X520470000Y408030000D03*
X520470000Y407530000D03*
X520470000Y407030000D03*
X520470000Y406530000D03*
D38*
X519782500Y405842500D03*
X519282500Y405842500D03*
X518782500Y405842500D03*
X518282500Y405842500D03*
X517782500Y405842500D03*
X517282500Y405842500D03*
X516782500Y405842500D03*
X516282500Y405842500D03*
D39*
X518032500Y408280000D03*
%TD*%
D25*
%TO.C,D18*%
X549863270Y440430798D03*
X549863270Y443930798D03*
%TD*%
D40*
%TO.C,C17*%
X542650000Y417180000D03*
X542650000Y418730000D03*
%TD*%
D15*
%TO.C,DRGB18*%
X232740000Y379135000D03*
X232740000Y377385000D03*
X229240000Y377385000D03*
X229240000Y379135000D03*
%TD*%
D25*
%TO.C,D40*%
X306975770Y421380798D03*
X306975770Y424880798D03*
%TD*%
D26*
%TO.C,C7*%
X556920000Y402020000D03*
X555370000Y402020000D03*
%TD*%
D25*
%TO.C,D17*%
X530813270Y440430798D03*
X530813270Y443930798D03*
%TD*%
D41*
%TO.C,SWboot1*%
X501680000Y362135000D03*
D42*
X504180000Y362135000D03*
%TD*%
D25*
%TO.C,D52*%
X530813270Y421380798D03*
X530813270Y424880798D03*
%TD*%
D43*
%TO.C,U4*%
X496690000Y465290000D03*
X498990000Y465290000D03*
D44*
X498990000Y458990000D03*
D43*
X501290000Y465290000D03*
%TD*%
D15*
%TO.C,DRGB10*%
X384870000Y458265000D03*
X384870000Y460015000D03*
X388370000Y460015000D03*
X388370000Y458265000D03*
%TD*%
D25*
%TO.C,D90*%
X435563770Y364230798D03*
X435563770Y367730798D03*
%TD*%
%TO.C,D54*%
X254588270Y402330798D03*
X254588270Y405830798D03*
%TD*%
%TO.C,D29*%
X413320000Y464260000D03*
X413320000Y467760000D03*
%TD*%
%TO.C,D94*%
X483188770Y364230798D03*
X483188770Y367730798D03*
%TD*%
D15*
%TO.C,DRGB27*%
X553900000Y397095000D03*
X553900000Y395345000D03*
X550400000Y395345000D03*
X550400000Y397095000D03*
%TD*%
D25*
%TO.C,D10*%
X392700770Y440430798D03*
X392700770Y443930798D03*
%TD*%
%TO.C,D19*%
X221250770Y464243298D03*
X221250770Y467743298D03*
%TD*%
%TO.C,D6*%
X316500770Y440430798D03*
X316500770Y443930798D03*
%TD*%
%TO.C,D26*%
X345075770Y464243298D03*
X345075770Y467743298D03*
%TD*%
%TO.C,D13*%
X449850770Y440430798D03*
X449850770Y443930798D03*
%TD*%
%TO.C,D44*%
X383175770Y421380798D03*
X383175770Y424880798D03*
%TD*%
%TO.C,D8*%
X354600770Y440430798D03*
X354600770Y443930798D03*
%TD*%
%TO.C,D65*%
X233231370Y383280798D03*
X233231370Y386780798D03*
%TD*%
%TO.C,D72*%
X359363270Y383280798D03*
X359363270Y386780798D03*
%TD*%
%TO.C,D64*%
X445088270Y402330798D03*
X445088270Y405830798D03*
%TD*%
%TO.C,D79*%
X461757270Y383280798D03*
X461757270Y386780798D03*
%TD*%
%TO.C,D3*%
X259350770Y440430798D03*
X259350770Y443930798D03*
%TD*%
%TO.C,D61*%
X387938270Y402330798D03*
X387938270Y405830798D03*
%TD*%
D26*
%TO.C,C2*%
X544150000Y397050000D03*
X542600000Y397050000D03*
%TD*%
D15*
%TO.C,DRGB7*%
X489920000Y458335000D03*
X489920000Y460085000D03*
X493420000Y460085000D03*
X493420000Y458335000D03*
%TD*%
D26*
%TO.C,C3*%
X544150000Y395590000D03*
X542600000Y395590000D03*
%TD*%
D25*
%TO.C,D55*%
X273638270Y402330798D03*
X273638270Y405830798D03*
%TD*%
%TO.C,D7*%
X335550770Y440430798D03*
X335550770Y443930798D03*
%TD*%
%TO.C,D24*%
X226013770Y421380798D03*
X226013770Y424880798D03*
%TD*%
%TO.C,D71*%
X340313270Y383280798D03*
X340313270Y386780798D03*
%TD*%
%TO.C,D23*%
X308470000Y464250000D03*
X308470000Y467750000D03*
%TD*%
%TO.C,D5*%
X297450770Y440430798D03*
X297450770Y443930798D03*
%TD*%
D45*
%TO.C,R9*%
X510207500Y411780000D03*
X511857500Y411780000D03*
%TD*%
D25*
%TO.C,D27*%
X364125770Y464243298D03*
X364125770Y467743298D03*
%TD*%
D26*
%TO.C,C1*%
X544150000Y398520000D03*
X542600000Y398520000D03*
%TD*%
D46*
%TO.C,R10*%
X519357500Y395780000D03*
X517707500Y395780000D03*
%TD*%
D25*
%TO.C,D75*%
X416513270Y383280798D03*
X416513270Y386780798D03*
%TD*%
%TO.C,D57*%
X311738270Y402330798D03*
X311738270Y405830798D03*
%TD*%
%TO.C,D78*%
X249825770Y364230798D03*
X249825770Y367730798D03*
%TD*%
D47*
%TO.C,U5*%
X504002500Y431282500D03*
X503052500Y431282500D03*
X502102500Y431282500D03*
X502102500Y433557500D03*
X503052500Y433557500D03*
X504002500Y433557500D03*
%TD*%
D30*
%TO.C,Y1*%
X553040000Y401000000D03*
X549340000Y401000000D03*
%TD*%
D25*
%TO.C,D93*%
X459375770Y364230798D03*
X459375770Y367730798D03*
%TD*%
%TO.C,D60*%
X368888270Y402330798D03*
X368888270Y405830798D03*
%TD*%
D15*
%TO.C,DRGB9*%
X424870000Y458265000D03*
X424870000Y460015000D03*
X428370000Y460015000D03*
X428370000Y458265000D03*
%TD*%
D25*
%TO.C,D95*%
X511763270Y364230798D03*
X511763270Y367730798D03*
%TD*%
D35*
%TO.C,C22*%
X513850000Y414850000D03*
X515400000Y414850000D03*
%TD*%
D25*
%TO.C,D96*%
X530813270Y364230798D03*
X530813270Y367730798D03*
%TD*%
D15*
%TO.C,DRGB5*%
X553730000Y458415000D03*
X553730000Y460165000D03*
X557230000Y460165000D03*
X557230000Y458415000D03*
%TD*%
D25*
%TO.C,D41*%
X326025770Y421380798D03*
X326025770Y424880798D03*
%TD*%
%TO.C,D77*%
X226013770Y364230798D03*
X226013770Y367730798D03*
%TD*%
%TO.C,D39*%
X287925770Y421380798D03*
X287925770Y424880798D03*
%TD*%
D26*
%TO.C,C25*%
X514160000Y398330000D03*
X512610000Y398330000D03*
%TD*%
D25*
%TO.C,D38*%
X268875770Y421380798D03*
X268875770Y424880798D03*
%TD*%
%TO.C,D4*%
X278400770Y440430798D03*
X278400770Y443930798D03*
%TD*%
%TO.C,D14*%
X468900770Y440430798D03*
X468900770Y443930798D03*
%TD*%
D15*
%TO.C,DRGB22*%
X392740000Y379135000D03*
X392740000Y377385000D03*
X389240000Y377385000D03*
X389240000Y379135000D03*
%TD*%
D26*
%TO.C,C16*%
X524420000Y414540000D03*
X522870000Y414540000D03*
%TD*%
D25*
%TO.C,D21*%
X270440000Y464243298D03*
X270440000Y467743298D03*
%TD*%
%TO.C,D69*%
X302213270Y383280798D03*
X302213270Y386780798D03*
%TD*%
%TO.C,D16*%
X511763270Y440430798D03*
X511763270Y443930798D03*
%TD*%
%TO.C,D45*%
X402225770Y421380798D03*
X402225770Y424880798D03*
%TD*%
D27*
%TO.C,C15*%
X545780000Y401820000D03*
X545780000Y400270000D03*
%TD*%
D25*
%TO.C,D51*%
X511763270Y421380798D03*
X511763270Y424880798D03*
%TD*%
D48*
%TO.C,SWboot2*%
X504100000Y365520000D03*
D42*
X501600000Y365520000D03*
%TD*%
D25*
%TO.C,D30*%
X426038270Y464243298D03*
X426038270Y467743298D03*
%TD*%
D15*
%TO.C,DRGB11*%
X344870000Y458265000D03*
X344870000Y460015000D03*
X348370000Y460015000D03*
X348370000Y458265000D03*
%TD*%
D28*
%TO.C,J4*%
X545433730Y455773275D03*
X544433730Y455773275D03*
X543433730Y455773275D03*
X542433730Y455773275D03*
D29*
X546733730Y451898275D03*
X541133730Y451898275D03*
%TD*%
D26*
%TO.C,C21*%
X517615000Y401800000D03*
X516065000Y401800000D03*
%TD*%
D25*
%TO.C,D73*%
X378413270Y383280798D03*
X378413270Y386780798D03*
%TD*%
D15*
%TO.C,DRGB20*%
X312740000Y379135000D03*
X312740000Y377385000D03*
X309240000Y377385000D03*
X309240000Y379135000D03*
%TD*%
%TO.C,DRGB25*%
X512740000Y379135000D03*
X512740000Y377385000D03*
X509240000Y377385000D03*
X509240000Y379135000D03*
%TD*%
D25*
%TO.C,D97*%
X549863270Y364230798D03*
X549863270Y367730798D03*
%TD*%
D27*
%TO.C,C5*%
X526730000Y396450000D03*
X526730000Y394900000D03*
%TD*%
D15*
%TO.C,DRGB16*%
X227000000Y417225000D03*
X227000000Y415475000D03*
X223500000Y415475000D03*
X223500000Y417225000D03*
%TD*%
D25*
%TO.C,D46*%
X421275770Y421380798D03*
X421275770Y424880798D03*
%TD*%
D26*
%TO.C,C9*%
X556910000Y399100000D03*
X555360000Y399100000D03*
%TD*%
D15*
%TO.C,DRGB26*%
X552740000Y379135000D03*
X552740000Y377385000D03*
X549240000Y377385000D03*
X549240000Y379135000D03*
%TD*%
D34*
%TO.C,R8*%
X505430000Y469350000D03*
X505430000Y467700000D03*
%TD*%
D25*
%TO.C,D63*%
X426038270Y402330798D03*
X426038270Y405830798D03*
%TD*%
%TO.C,D47*%
X440325770Y421380798D03*
X440325770Y424880798D03*
%TD*%
D35*
%TO.C,C19*%
X510085000Y406400000D03*
X511635000Y406400000D03*
%TD*%
D25*
%TO.C,D31*%
X445088270Y464243298D03*
X445088270Y467743298D03*
%TD*%
D15*
%TO.C,DRGB21*%
X352740000Y379135000D03*
X352740000Y377385000D03*
X349240000Y377385000D03*
X349240000Y379135000D03*
%TD*%
%TO.C,DRGB29*%
X556810000Y438205000D03*
X556810000Y436455000D03*
X553310000Y436455000D03*
X553310000Y438205000D03*
%TD*%
D27*
%TO.C,C14*%
X547250000Y401815000D03*
X547250000Y400265000D03*
%TD*%
D25*
%TO.C,D32*%
X464138270Y464243298D03*
X464138270Y467743298D03*
%TD*%
D49*
%TO.C,U2*%
X539100000Y402285000D03*
X538600000Y402285000D03*
X538100000Y402285000D03*
X537600000Y402285000D03*
X537100000Y402285000D03*
X536600000Y402285000D03*
X536100000Y402285000D03*
X535600000Y402285000D03*
X535100000Y402285000D03*
X534600000Y402285000D03*
X534100000Y402285000D03*
X533600000Y402285000D03*
X533100000Y402285000D03*
X532600000Y402285000D03*
X532100000Y402285000D03*
X531600000Y402285000D03*
D50*
X529675000Y404210000D03*
X529675000Y404710000D03*
X529675000Y405210000D03*
X529675000Y405710000D03*
X529675000Y406210000D03*
X529675000Y406710000D03*
X529675000Y407210000D03*
X529675000Y407710000D03*
X529675000Y408210000D03*
X529675000Y408710000D03*
X529675000Y409210000D03*
X529675000Y409710000D03*
X529675000Y410210000D03*
X529675000Y410710000D03*
X529675000Y411210000D03*
X529675000Y411710000D03*
D49*
X531600000Y413635000D03*
X532100000Y413635000D03*
X534100000Y413635000D03*
X534600000Y413635000D03*
X535100000Y413635000D03*
X535600000Y413635000D03*
X536100000Y413635000D03*
X536600000Y413635000D03*
X537100000Y413635000D03*
X537600000Y413635000D03*
X538100000Y413635000D03*
X538600000Y413635000D03*
X539100000Y413635000D03*
D50*
X541025000Y411710000D03*
X541025000Y411210000D03*
X541025000Y410710000D03*
X541025000Y410210000D03*
X541025000Y409710000D03*
X541025000Y409210000D03*
X541025000Y408710000D03*
X541025000Y408210000D03*
X541025000Y407710000D03*
X541025000Y407210000D03*
X541025000Y406710000D03*
X541025000Y406210000D03*
X541025000Y405710000D03*
X541025000Y405210000D03*
X541025000Y404710000D03*
X541025000Y404210000D03*
%TD*%
D25*
%TO.C,D50*%
X483188770Y421380798D03*
X483188770Y424880798D03*
%TD*%
D26*
%TO.C,C8*%
X556910000Y400560000D03*
X555360000Y400560000D03*
%TD*%
D25*
%TO.C,D20*%
X245063270Y464243298D03*
X245063270Y467743298D03*
%TD*%
%TO.C,D34*%
X511763270Y464243298D03*
X511763270Y467743298D03*
%TD*%
%TO.C,D82*%
X530813270Y383280798D03*
X530813270Y386780798D03*
%TD*%
D46*
%TO.C,R11*%
X515460000Y413230000D03*
X513810000Y413230000D03*
%TD*%
D25*
%TO.C,D28*%
X383175770Y464243298D03*
X383175770Y467743298D03*
%TD*%
D27*
%TO.C,C4*%
X525270000Y396460000D03*
X525270000Y394910000D03*
%TD*%
D25*
%TO.C,D35*%
X530813270Y464243298D03*
X530813270Y467743298D03*
%TD*%
M02*
