%TF.GenerationSoftware,KiCad,Pcbnew,8.99.0-2209-g89a3b7baa5*%
%TF.CreationDate,2024-09-04T15:50:09+07:00*%
%TF.ProjectId,merisi_ob,6d657269-7369-45f6-9f62-2e6b69636164,rev?*%
%TF.SameCoordinates,Original*%
%TF.FileFunction,Soldermask,Top*%
%TF.FilePolarity,Negative*%
%FSLAX46Y46*%
G04 Gerber Fmt 4.6, Leading zero omitted, Abs format (unit mm)*
G04 Created by KiCad (PCBNEW 8.99.0-2209-g89a3b7baa5) date 2024-09-04 15:50:09*
%MOMM*%
%LPD*%
G01*
G04 APERTURE LIST*
G04 Aperture macros list*
%AMRoundRect*
0 Rectangle with rounded corners*
0 $1 Rounding radius*
0 $2 $3 $4 $5 $6 $7 $8 $9 X,Y pos of 4 corners*
0 Add a 4 corners polygon primitive as box body*
4,1,4,$2,$3,$4,$5,$6,$7,$8,$9,$2,$3,0*
0 Add four circle primitives for the rounded corners*
1,1,$1+$1,$2,$3*
1,1,$1+$1,$4,$5*
1,1,$1+$1,$6,$7*
1,1,$1+$1,$8,$9*
0 Add four rect primitives between the rounded corners*
20,1,$1+$1,$2,$3,$4,$5,0*
20,1,$1+$1,$4,$5,$6,$7,0*
20,1,$1+$1,$6,$7,$8,$9,0*
20,1,$1+$1,$8,$9,$2,$3,0*%
G04 Aperture macros list end*
%ADD10C,0.650000*%
%ADD11R,0.600000X1.450000*%
%ADD12R,0.300000X1.450000*%
%ADD13O,1.000000X2.100000*%
%ADD14O,1.000000X1.600000*%
%ADD15C,1.700000*%
%ADD16C,4.000000*%
%ADD17O,0.800000X3.000000*%
%ADD18C,3.048000*%
%ADD19C,3.987800*%
%ADD20R,0.850000X1.600000*%
%ADD21RoundRect,0.250000X0.725000X-0.600000X0.725000X0.600000X-0.725000X0.600000X-0.725000X-0.600000X0*%
%ADD22O,1.950000X1.700000*%
%ADD23RoundRect,0.250000X-0.600000X-0.750000X0.600000X-0.750000X0.600000X0.750000X-0.600000X0.750000X0*%
%ADD24O,1.700000X2.000000*%
%ADD25RoundRect,0.250000X0.600000X0.750000X-0.600000X0.750000X-0.600000X-0.750000X0.600000X-0.750000X0*%
G04 APERTURE END LIST*
D10*
%TO.C,J3*%
X505890000Y478000000D03*
X500110000Y478000000D03*
D11*
X506250000Y476555000D03*
X505450000Y476555000D03*
D12*
X504250000Y476555000D03*
X503250000Y476555000D03*
X502750000Y476555000D03*
X501750000Y476555000D03*
D11*
X500550000Y476555000D03*
X499750000Y476555000D03*
X499750000Y476555000D03*
X500550000Y476555000D03*
D12*
X501250000Y476555000D03*
X502250000Y476555000D03*
X503750000Y476555000D03*
D11*
X505450000Y476555000D03*
X506250000Y476555000D03*
D13*
X507320000Y477470000D03*
D14*
X507320000Y481650000D03*
D13*
X498680000Y477470000D03*
D14*
X498680000Y481650000D03*
%TD*%
D15*
%TO.C,SW35*%
X528875770Y468763298D03*
D16*
X533955770Y468763298D03*
D15*
X539035770Y468763298D03*
%TD*%
%TO.C,SW47*%
X438388270Y425900798D03*
D16*
X443468270Y425900798D03*
D15*
X448548270Y425900798D03*
%TD*%
%TO.C,SW71*%
X338375770Y387800798D03*
D16*
X343455770Y387800798D03*
D15*
X348535770Y387800798D03*
%TD*%
%TO.C,SW2002*%
X276463270Y468763298D03*
D16*
X281543270Y468763298D03*
D15*
X286623270Y468763298D03*
%TD*%
%TO.C,SW61*%
X386000770Y406850798D03*
D16*
X391080770Y406850798D03*
D15*
X396160770Y406850798D03*
%TD*%
%TO.C,SW3*%
X257413270Y444950798D03*
D16*
X262493270Y444950798D03*
D15*
X267573270Y444950798D03*
%TD*%
D17*
%TO.C,REF\u002A\u002A*%
X500620000Y473050000D03*
X500620000Y473060000D03*
%TD*%
D15*
%TO.C,SW13*%
X447913270Y444950798D03*
D16*
X452993270Y444950798D03*
D15*
X458073270Y444950798D03*
%TD*%
%TO.C,SW95*%
X509825770Y368750798D03*
D16*
X514905770Y368750798D03*
D15*
X519985770Y368750798D03*
%TD*%
D18*
%TO.C,SW65*%
X224435870Y394785798D03*
D19*
X224435870Y379545798D03*
D15*
X231293870Y387800798D03*
D16*
X236373870Y387800798D03*
D15*
X241453870Y387800798D03*
D18*
X248311870Y394785798D03*
D19*
X248311870Y379545798D03*
%TD*%
D18*
%TO.C,SW1000*%
X462486770Y394785798D03*
D19*
X462486770Y379545798D03*
D15*
X469344770Y387800798D03*
D16*
X474424770Y387800798D03*
D15*
X479504770Y387800798D03*
D18*
X486362770Y394785798D03*
D19*
X486362770Y379545798D03*
%TD*%
D15*
%TO.C,SW18*%
X547925770Y444950798D03*
D16*
X553005770Y444950798D03*
D15*
X558085770Y444950798D03*
%TD*%
%TO.C,SW80*%
X486013270Y387800798D03*
D16*
X491093270Y387800798D03*
D15*
X496173270Y387800798D03*
%TD*%
%TO.C,SW72*%
X357425770Y387800798D03*
D16*
X362505770Y387800798D03*
D15*
X367585770Y387800798D03*
%TD*%
D18*
%TO.C,SW1001*%
X469630270Y451935798D03*
D19*
X469630270Y436695798D03*
D15*
X476488270Y444950798D03*
D16*
X481568270Y444950798D03*
D15*
X486648270Y444950798D03*
D18*
X493506270Y451935798D03*
D19*
X493506270Y436695798D03*
%TD*%
D15*
%TO.C,SW4*%
X276463270Y444950798D03*
D16*
X281543270Y444950798D03*
D15*
X286623270Y444950798D03*
%TD*%
%TO.C,SW29*%
X405050770Y468763298D03*
D16*
X410130770Y468763298D03*
D15*
X415210770Y468763298D03*
%TD*%
%TO.C,SW77*%
X224076270Y368750798D03*
D16*
X229156270Y368750798D03*
D15*
X234236270Y368750798D03*
%TD*%
%TO.C,SW76*%
X433625770Y387800798D03*
D16*
X438705770Y387800798D03*
D15*
X443785770Y387800798D03*
%TD*%
%TO.C,SW66*%
X262175770Y387800798D03*
D16*
X267255770Y387800798D03*
D15*
X272335770Y387800798D03*
%TD*%
D17*
%TO.C,REF\u002A\u002A*%
X503020000Y473070000D03*
X503020000Y473060000D03*
%TD*%
D15*
%TO.C,SW46*%
X419338270Y425900798D03*
D16*
X424418270Y425900798D03*
D15*
X429498270Y425900798D03*
%TD*%
%TO.C,SW50*%
X481251270Y425900798D03*
D16*
X486331270Y425900798D03*
D15*
X491411270Y425900798D03*
%TD*%
D17*
%TO.C,REF\u002A\u002A*%
X504220000Y473025000D03*
X504220000Y473035000D03*
%TD*%
D15*
%TO.C,SW33*%
X486013270Y468763298D03*
D16*
X491093270Y468763298D03*
D15*
X496173270Y468763298D03*
%TD*%
%TO.C,SW27*%
X362188270Y468763298D03*
D16*
X367268270Y468763298D03*
D15*
X372348270Y468763298D03*
%TD*%
%TO.C,SW51*%
X509825770Y425900798D03*
D16*
X514905770Y425900798D03*
D15*
X519985770Y425900798D03*
%TD*%
D19*
%TO.C,SW86*%
X300593270Y377005798D03*
D18*
X300593270Y361765798D03*
D15*
X352663270Y368750798D03*
D16*
X357743270Y368750798D03*
D15*
X362823270Y368750798D03*
D19*
X414893270Y377005798D03*
D18*
X414893270Y361765798D03*
%TD*%
D15*
%TO.C,SW1002*%
X221694270Y406850798D03*
D16*
X226774270Y406850798D03*
D15*
X231854270Y406850798D03*
%TD*%
%TO.C,SW8*%
X352663270Y444950798D03*
D16*
X357743270Y444950798D03*
D15*
X362823270Y444950798D03*
%TD*%
%TO.C,SW69*%
X300275770Y387800798D03*
D16*
X305355770Y387800798D03*
D15*
X310435770Y387800798D03*
%TD*%
%TO.C,SW26*%
X343138270Y468763298D03*
D16*
X348218270Y468763298D03*
D15*
X353298270Y468763298D03*
%TD*%
%TO.C,SW40*%
X305038270Y425900798D03*
D16*
X310118270Y425900798D03*
D15*
X315198270Y425900798D03*
%TD*%
%TO.C,SW79*%
X459819770Y387800798D03*
D16*
X464899770Y387800798D03*
D15*
X469979770Y387800798D03*
%TD*%
%TO.C,SW38*%
X266938270Y425900798D03*
D16*
X272018270Y425900798D03*
D15*
X277098270Y425900798D03*
%TD*%
%TO.C,SW41*%
X324088270Y425900798D03*
D16*
X329168270Y425900798D03*
D15*
X334248270Y425900798D03*
%TD*%
%TO.C,SW82*%
X528875770Y387800798D03*
D16*
X533955770Y387800798D03*
D15*
X539035770Y387800798D03*
%TD*%
%TO.C,SW16*%
X509825770Y444950798D03*
D16*
X514905770Y444950798D03*
D15*
X519985770Y444950798D03*
%TD*%
%TO.C,SW55*%
X271700770Y406850798D03*
D16*
X276780770Y406850798D03*
D15*
X281860770Y406850798D03*
%TD*%
%TO.C,SW45*%
X400288270Y425900798D03*
D16*
X405368270Y425900798D03*
D15*
X410448270Y425900798D03*
%TD*%
%TO.C,SW31*%
X443150770Y468763298D03*
D16*
X448230770Y468763298D03*
D15*
X453310770Y468763298D03*
%TD*%
%TO.C,SW2004*%
X314563270Y468763298D03*
D16*
X319643270Y468763298D03*
D15*
X324723270Y468763298D03*
%TD*%
%TO.C,SW39*%
X285988270Y425900798D03*
D16*
X291068270Y425900798D03*
D15*
X296148270Y425900798D03*
%TD*%
D17*
%TO.C,REF\u002A\u002A*%
X501820000Y473015000D03*
X501820000Y473025000D03*
%TD*%
D15*
%TO.C,SW2001*%
X257413270Y468763298D03*
D16*
X262493270Y468763298D03*
D15*
X267573270Y468763298D03*
%TD*%
%TO.C,SW63*%
X424100770Y406850798D03*
D16*
X429180770Y406850798D03*
D15*
X434260770Y406850798D03*
%TD*%
%TO.C,SW28*%
X381238270Y468763298D03*
D16*
X386318270Y468763298D03*
D15*
X391398270Y468763298D03*
%TD*%
%TO.C,SW1*%
X219313270Y444950798D03*
D16*
X224393270Y444950798D03*
D15*
X229473270Y444950798D03*
%TD*%
%TO.C,SW37*%
X247888270Y425900798D03*
D16*
X252968270Y425900798D03*
D15*
X258048270Y425900798D03*
%TD*%
%TO.C,SW68*%
X281225770Y387800798D03*
D16*
X286305770Y387800798D03*
D15*
X291385770Y387800798D03*
%TD*%
%TO.C,SW24*%
X224076270Y425900798D03*
D16*
X229156270Y425900798D03*
D15*
X234236270Y425900798D03*
%TD*%
%TO.C,SW9*%
X371713270Y444950798D03*
D16*
X376793270Y444950798D03*
D15*
X381873270Y444950798D03*
%TD*%
%TO.C,SW49*%
X226457270Y406850798D03*
D16*
X231537270Y406850798D03*
D15*
X236617270Y406850798D03*
%TD*%
%TO.C,SW74*%
X395525770Y387800798D03*
D16*
X400605770Y387800798D03*
D15*
X405685770Y387800798D03*
%TD*%
%TO.C,SW2008*%
X400288270Y468763298D03*
D16*
X405368270Y468763298D03*
D15*
X410448270Y468763298D03*
%TD*%
%TO.C,SW64*%
X443150770Y406850798D03*
D16*
X448230770Y406850798D03*
D15*
X453310770Y406850798D03*
%TD*%
%TO.C,SW23*%
X300275770Y468763298D03*
D16*
X305355770Y468763298D03*
D15*
X310435770Y468763298D03*
%TD*%
%TO.C,SW10*%
X390763270Y444950798D03*
D16*
X395843270Y444950798D03*
D15*
X400923270Y444950798D03*
%TD*%
%TO.C,SW17*%
X528875770Y444950798D03*
D16*
X533955770Y444950798D03*
D15*
X539035770Y444950798D03*
%TD*%
%TO.C,SW97*%
X547925770Y368750798D03*
D16*
X553005770Y368750798D03*
D15*
X558085770Y368750798D03*
%TD*%
%TO.C,SW48*%
X457438270Y425900798D03*
D16*
X462518270Y425900798D03*
D15*
X467598270Y425900798D03*
%TD*%
%TO.C,SW42*%
X343138270Y425900798D03*
D16*
X348218270Y425900798D03*
D15*
X353298270Y425900798D03*
%TD*%
D20*
%TO.C,DRGB3*%
X558465000Y412850000D03*
X556715000Y412850000D03*
X556715000Y409350000D03*
X558465000Y409350000D03*
%TD*%
%TO.C,DRGB1*%
X550625000Y412920000D03*
X548875000Y412920000D03*
X548875000Y409420000D03*
X550625000Y409420000D03*
%TD*%
D15*
%TO.C,SW12*%
X428863270Y444950798D03*
D16*
X433943270Y444950798D03*
D15*
X439023270Y444950798D03*
%TD*%
%TO.C,SW70*%
X319325770Y387800798D03*
D16*
X324405770Y387800798D03*
D15*
X329485770Y387800798D03*
%TD*%
%TO.C,SW57*%
X309800770Y406850798D03*
D16*
X314880770Y406850798D03*
D15*
X319960770Y406850798D03*
%TD*%
%TO.C,SW21*%
X262175770Y468763298D03*
D16*
X267255770Y468763298D03*
D15*
X272335770Y468763298D03*
%TD*%
%TO.C,SW96*%
X528875770Y368750798D03*
D16*
X533955770Y368750798D03*
D15*
X539035770Y368750798D03*
%TD*%
%TO.C,SW20*%
X243125770Y468763298D03*
D16*
X248205770Y468763298D03*
D15*
X253285770Y468763298D03*
%TD*%
%TO.C,SW2009*%
X428863270Y468763298D03*
D16*
X433943270Y468763298D03*
D15*
X439023270Y468763298D03*
%TD*%
%TO.C,SW25*%
X324088270Y468763298D03*
D16*
X329168270Y468763298D03*
D15*
X334248270Y468763298D03*
%TD*%
%TO.C,SW32*%
X462200770Y468763298D03*
D16*
X467280770Y468763298D03*
D15*
X472360770Y468763298D03*
%TD*%
D18*
%TO.C,SW67*%
X467323370Y413835798D03*
D19*
X467323370Y398595798D03*
D15*
X474181370Y406850798D03*
D16*
X479261370Y406850798D03*
D15*
X484341370Y406850798D03*
D18*
X491199370Y413835798D03*
D19*
X491199370Y398595798D03*
%TD*%
D15*
%TO.C,SW19*%
X219313270Y468763298D03*
D16*
X224393270Y468763298D03*
D15*
X229473270Y468763298D03*
%TD*%
%TO.C,SW2003*%
X295513270Y468763298D03*
D16*
X300593270Y468763298D03*
D15*
X305673270Y468763298D03*
%TD*%
%TO.C,SW73*%
X376475770Y387800798D03*
D16*
X381555770Y387800798D03*
D15*
X386635770Y387800798D03*
%TD*%
%TO.C,SW62*%
X405050770Y406850798D03*
D16*
X410130770Y406850798D03*
D15*
X415210770Y406850798D03*
%TD*%
%TO.C,SW75*%
X414575770Y387800798D03*
D16*
X419655770Y387800798D03*
D15*
X424735770Y387800798D03*
%TD*%
%TO.C,SW59*%
X347900770Y406850798D03*
D16*
X352980770Y406850798D03*
D15*
X358060770Y406850798D03*
%TD*%
%TO.C,SW52*%
X528875770Y425900798D03*
D16*
X533955770Y425900798D03*
D15*
X539035770Y425900798D03*
%TD*%
%TO.C,SW56*%
X290750770Y406850798D03*
D16*
X295830770Y406850798D03*
D15*
X300910770Y406850798D03*
%TD*%
%TO.C,SW81*%
X271701270Y368750798D03*
D16*
X276781270Y368750798D03*
D15*
X281861270Y368750798D03*
%TD*%
D17*
%TO.C,REF\u002A\u002A*%
X505410000Y473005000D03*
X505410000Y473015000D03*
%TD*%
D15*
%TO.C,SW44*%
X381238270Y425900798D03*
D16*
X386318270Y425900798D03*
D15*
X391398270Y425900798D03*
%TD*%
%TO.C,SW11*%
X409813270Y444950798D03*
D16*
X414893270Y444950798D03*
D15*
X419973270Y444950798D03*
%TD*%
%TO.C,SW58*%
X328850770Y406850798D03*
D16*
X333930770Y406850798D03*
D15*
X339010770Y406850798D03*
%TD*%
%TO.C,SW22*%
X281225770Y468763298D03*
D16*
X286305770Y468763298D03*
D15*
X291385770Y468763298D03*
%TD*%
%TO.C,SW2010*%
X447913270Y468763298D03*
D16*
X452993270Y468763298D03*
D15*
X458073270Y468763298D03*
%TD*%
%TO.C,SW7*%
X333613270Y444950798D03*
D16*
X338693270Y444950798D03*
D15*
X343773270Y444950798D03*
%TD*%
%TO.C,SW36*%
X547925770Y468763298D03*
D16*
X553005770Y468763298D03*
D15*
X558085770Y468763298D03*
%TD*%
%TO.C,SW2*%
X238363270Y444950798D03*
D16*
X243443270Y444950798D03*
D15*
X248523270Y444950798D03*
%TD*%
D21*
%TO.C,J1*%
X558800000Y379970000D03*
D22*
X558800000Y382470000D03*
X558800000Y384970000D03*
X558800000Y387470000D03*
X558800000Y389970000D03*
%TD*%
D15*
%TO.C,SW5*%
X295513270Y444950798D03*
D16*
X300593270Y444950798D03*
D15*
X305673270Y444950798D03*
%TD*%
%TO.C,SW94*%
X481251270Y368750798D03*
D16*
X486331270Y368750798D03*
D15*
X491411270Y368750798D03*
%TD*%
D20*
%TO.C,DRGB2*%
X552805000Y409360000D03*
X554555000Y409360000D03*
X554555000Y412860000D03*
X552805000Y412860000D03*
%TD*%
D15*
%TO.C,SW15*%
X486013270Y444950798D03*
D16*
X491093270Y444950798D03*
D15*
X496173270Y444950798D03*
%TD*%
%TO.C,SW43*%
X362188270Y425900798D03*
D16*
X367268270Y425900798D03*
D15*
X372348270Y425900798D03*
%TD*%
%TO.C,SW53*%
X547925770Y425900798D03*
D16*
X553005770Y425900798D03*
D15*
X558085770Y425900798D03*
%TD*%
%TO.C,SW30*%
X424100770Y468763298D03*
D16*
X429180770Y468763298D03*
D15*
X434260770Y468763298D03*
%TD*%
%TO.C,SW14*%
X466963270Y444950798D03*
D16*
X472043270Y444950798D03*
D15*
X477123270Y444950798D03*
%TD*%
%TO.C,SW78*%
X247888270Y368750798D03*
D16*
X252968270Y368750798D03*
D15*
X258048270Y368750798D03*
%TD*%
%TO.C,SW34*%
X509825770Y468763298D03*
D16*
X514905770Y468763298D03*
D15*
X519985770Y468763298D03*
%TD*%
%TO.C,SW90*%
X433626270Y368750798D03*
D16*
X438706270Y368750798D03*
D15*
X443786270Y368750798D03*
%TD*%
%TO.C,SW93*%
X457438270Y368750798D03*
D16*
X462518270Y368750798D03*
D15*
X467598270Y368750798D03*
%TD*%
%TO.C,SW2011*%
X466963270Y468763298D03*
D16*
X472043270Y468763298D03*
D15*
X477123270Y468763298D03*
%TD*%
D20*
%TO.C,DRGB4*%
X544985000Y409420000D03*
X546735000Y409420000D03*
X546735000Y412920000D03*
X544985000Y412920000D03*
%TD*%
D15*
%TO.C,SW60*%
X366950770Y406850798D03*
D16*
X372030770Y406850798D03*
D15*
X377110770Y406850798D03*
%TD*%
%TO.C,SW54*%
X252650770Y406850798D03*
D16*
X257730770Y406850798D03*
D15*
X262810770Y406850798D03*
%TD*%
%TO.C,SW6*%
X314563270Y444950798D03*
D16*
X319643270Y444950798D03*
D15*
X324723270Y444950798D03*
%TD*%
D23*
%TO.C,SWboot1*%
X501680000Y362135000D03*
D24*
X504180000Y362135000D03*
%TD*%
D25*
%TO.C,SWboot2*%
X504100000Y365520000D03*
D24*
X501600000Y365520000D03*
%TD*%
M02*
