M48
; DRILL file {KiCad 8.99.0-2209-g89a3b7baa5} date 2024-09-04T15:50:08+0700
; FORMAT={-:-/ absolute / inch / decimal}
; #@! TF.CreationDate,2024-09-04T15:50:08+07:00
; #@! TF.GenerationSoftware,Kicad,Pcbnew,8.99.0-2209-g89a3b7baa5
; #@! TF.FileFunction,NonPlated,1,2,NPTH
FMAT,2
INCH
; #@! TA.AperFunction,NonPlated,NPTH,ComponentDrill
T1C0.0256
; #@! TA.AperFunction,NonPlated,NPTH,ComponentDrill
T2C0.0669
; #@! TA.AperFunction,NonPlated,NPTH,ComponentDrill
T3C0.1200
; #@! TA.AperFunction,NonPlated,NPTH,ComponentDrill
T4C0.1570
; #@! TA.AperFunction,NonPlated,NPTH,ComponentDrill
T5C0.1575
%
G90
G05
T1
X19.6894Y18.8189
X19.9169Y18.8189
T2
X8.6344Y18.4552
X8.6344Y17.5177
X8.7281Y16.0177
X8.8219Y16.7677
X8.8219Y14.5177
X8.9156Y16.0177
X9.0344Y18.4552
X9.0344Y17.5177
X9.1061Y15.2677
X9.1281Y16.0177
X9.2219Y16.7677
X9.2219Y14.5177
X9.3156Y16.0177
X9.3844Y17.5177
X9.5061Y15.2677
X9.5719Y18.4552
X9.7594Y16.7677
X9.7594Y14.5177
X9.7844Y17.5177
X9.9469Y16.0177
X9.9719Y18.4552
X10.1344Y18.4552
X10.1344Y17.5177
X10.1594Y16.7677
X10.1594Y14.5177
X10.3219Y18.4552
X10.3219Y15.2677
X10.3469Y16.0177
X10.5094Y16.7677
X10.5344Y18.4552
X10.5344Y17.5177
X10.6969Y16.0177
X10.6969Y14.5177
X10.7219Y18.4552
X10.7219Y15.2677
X10.8844Y18.4552
X10.8844Y17.5177
X10.9094Y16.7677
X11.0719Y18.4552
X11.0719Y15.2677
X11.0969Y16.0177
X11.0969Y14.5177
X11.2594Y16.7677
X11.2844Y18.4552
X11.2844Y17.5177
X11.4469Y16.0177
X11.4719Y18.4552
X11.4719Y15.2677
X11.6344Y18.4552
X11.6344Y17.5177
X11.6594Y16.7677
X11.8219Y18.4552
X11.8219Y15.2677
X11.8469Y16.0177
X12.0094Y16.7677
X12.0344Y18.4552
X12.0344Y17.5177
X12.1969Y16.0177
X12.2219Y18.4552
X12.2219Y15.2677
X12.3844Y18.4552
X12.3844Y17.5177
X12.4094Y16.7677
X12.5719Y15.2677
X12.5969Y16.0177
X12.7594Y18.4552
X12.7594Y16.7677
X12.7844Y18.4552
X12.7844Y17.5177
X12.9469Y16.0177
X12.9719Y15.2677
X13.1344Y17.5177
X13.1594Y18.4552
X13.1594Y16.7677
X13.3219Y15.2677
X13.3469Y16.0177
X13.5094Y18.4552
X13.5094Y16.7677
X13.5344Y17.5177
X13.6969Y16.0177
X13.7219Y15.2677
X13.8844Y17.5177
X13.8844Y14.5177
X13.9094Y18.4552
X13.9094Y16.7677
X14.0719Y15.2677
X14.0969Y16.0177
X14.2594Y18.4552
X14.2594Y16.7677
X14.2844Y17.5177
X14.2844Y14.5177
X14.4469Y16.0177
X14.4719Y15.2677
X14.6344Y17.5177
X14.6594Y18.4552
X14.6594Y16.7677
X14.8219Y15.2677
X14.8469Y16.0177
X15.0094Y18.4552
X15.0094Y16.7677
X15.0344Y17.5177
X15.1969Y16.0177
X15.2219Y15.2677
X15.3844Y17.5177
X15.4094Y18.4552
X15.4094Y16.7677
X15.5719Y15.2677
X15.5969Y16.0177
X15.7594Y18.4552
X15.7594Y16.7677
X15.7844Y17.5177
X15.9469Y18.4552
X15.9469Y16.0177
X15.9719Y15.2677
X16.1344Y17.5177
X16.1594Y18.4552
X16.1594Y16.7677
X16.3219Y15.2677
X16.3469Y18.4552
X16.3469Y16.0177
X16.5094Y16.7677
X16.5344Y17.5177
X16.6969Y18.4552
X16.6969Y16.0177
X16.7219Y15.2677
X16.8844Y18.4552
X16.8844Y17.5177
X16.9094Y16.7677
X17.0719Y15.2677
X17.0719Y14.5177
X17.0969Y18.4552
X17.0969Y16.0177
X17.2594Y16.7677
X17.2844Y18.4552
X17.2844Y17.5177
X17.4469Y18.4552
X17.4469Y16.0177
X17.4719Y15.2677
X17.4719Y14.5177
X17.6344Y18.4552
X17.6344Y17.5177
X17.6594Y16.7677
X17.8469Y18.4552
X17.8469Y16.0177
X18.0094Y16.7677
X18.0094Y14.5177
X18.0344Y18.4552
X18.0344Y17.5177
X18.1031Y15.2677
X18.1969Y18.4552
X18.3844Y18.4552
X18.3844Y17.5177
X18.4094Y16.7677
X18.4094Y14.5177
X18.4781Y15.2677
X18.5031Y15.2677
X18.5969Y18.4552
X18.6686Y16.0177
X18.7594Y17.5177
X18.7844Y18.4552
X18.7844Y17.5177
X18.8781Y15.2677
X18.9469Y16.7677
X18.9469Y14.5177
X19.0686Y16.0177
X19.1344Y18.4552
X19.1344Y17.5177
X19.1344Y15.2677
X19.1594Y17.5177
X19.3469Y16.7677
X19.3469Y14.5177
X19.5344Y18.4552
X19.5344Y17.5177
X19.5344Y15.2677
X20.0719Y18.4552
X20.0719Y17.5177
X20.0719Y16.7677
X20.0719Y14.5177
X20.4719Y18.4552
X20.4719Y17.5177
X20.4719Y16.7677
X20.4719Y14.5177
X20.8219Y18.4552
X20.8219Y17.5177
X20.8219Y16.7677
X20.8219Y15.2677
X20.8219Y14.5177
X21.2219Y18.4552
X21.2219Y17.5177
X21.2219Y16.7677
X21.2219Y15.2677
X21.2219Y14.5177
X21.5719Y18.4552
X21.5719Y17.5177
X21.5719Y16.7677
X21.5719Y14.5177
X21.9719Y18.4552
X21.9719Y17.5177
X21.9719Y16.7677
X21.9719Y14.5177
T3
X8.8361Y15.5427
X9.7761Y15.5427
X11.8344Y14.2427
X16.3344Y14.2427
X18.2081Y15.5427
X18.3986Y16.2927
X18.4894Y17.7927
X19.1481Y15.5427
X19.3386Y16.2927
X19.4294Y17.7927
T4
X8.8361Y14.9427
X9.7761Y14.9427
X11.8344Y14.8427
X16.3344Y14.8427
X18.2081Y14.9427
X18.3986Y15.6927
X18.4894Y17.1927
X19.1481Y14.9427
X19.3386Y15.6927
X19.4294Y17.1927
T5
X8.8344Y18.4552
X8.8344Y17.5177
X8.9281Y16.0177
X9.0219Y16.7677
X9.0219Y14.5177
X9.1156Y16.0177
X9.3061Y15.2677
X9.5844Y17.5177
X9.7719Y18.4552
X9.9594Y16.7677
X9.9594Y14.5177
X10.1469Y16.0177
X10.3344Y18.4552
X10.3344Y17.5177
X10.5219Y18.4552
X10.5219Y15.2677
X10.7094Y16.7677
X10.8969Y16.0177
X10.8969Y14.5177
X11.0844Y18.4552
X11.0844Y17.5177
X11.2719Y18.4552
X11.2719Y15.2677
X11.4594Y16.7677
X11.6469Y16.0177
X11.8344Y18.4552
X11.8344Y17.5177
X12.0219Y18.4552
X12.0219Y15.2677
X12.2094Y16.7677
X12.3969Y16.0177
X12.5844Y18.4552
X12.5844Y17.5177
X12.7719Y15.2677
X12.9594Y18.4552
X12.9594Y16.7677
X13.1469Y16.0177
X13.3344Y17.5177
X13.5219Y15.2677
X13.7094Y18.4552
X13.7094Y16.7677
X13.8969Y16.0177
X14.0844Y17.5177
X14.0844Y14.5177
X14.2719Y15.2677
X14.4594Y18.4552
X14.4594Y16.7677
X14.6469Y16.0177
X14.8344Y17.5177
X15.0219Y15.2677
X15.2094Y18.4552
X15.2094Y16.7677
X15.3969Y16.0177
X15.5844Y17.5177
X15.7719Y15.2677
X15.9594Y18.4552
X15.9594Y16.7677
X16.1469Y18.4552
X16.1469Y16.0177
X16.3344Y17.5177
X16.5219Y15.2677
X16.7094Y16.7677
X16.8969Y18.4552
X16.8969Y16.0177
X17.0844Y18.4552
X17.0844Y17.5177
X17.2719Y15.2677
X17.2719Y14.5177
X17.4594Y16.7677
X17.6469Y18.4552
X17.6469Y16.0177
X17.8344Y18.4552
X17.8344Y17.5177
X18.2094Y16.7677
X18.2094Y14.5177
X18.3031Y15.2677
X18.3969Y18.4552
X18.5844Y18.4552
X18.5844Y17.5177
X18.6781Y15.2677
X18.8686Y16.0177
X18.9594Y17.5177
X19.1469Y16.7677
X19.1469Y14.5177
X19.3344Y18.4552
X19.3344Y17.5177
X19.3344Y15.2677
X20.2719Y18.4552
X20.2719Y17.5177
X20.2719Y16.7677
X20.2719Y14.5177
X21.0219Y18.4552
X21.0219Y17.5177
X21.0219Y16.7677
X21.0219Y15.2677
X21.0219Y14.5177
X21.7719Y18.4552
X21.7719Y17.5177
X21.7719Y16.7677
X21.7719Y14.5177
M30
