M48
; DRILL file {KiCad 8.99.0-2209-g89a3b7baa5} date 2024-09-04T15:50:08+0700
; FORMAT={-:-/ absolute / inch / decimal}
; #@! TF.CreationDate,2024-09-04T15:50:08+07:00
; #@! TF.GenerationSoftware,Kicad,Pcbnew,8.99.0-2209-g89a3b7baa5
; #@! TF.FileFunction,Plated,1,2,PTH
FMAT,2
INCH
; #@! TA.AperFunction,Plated,PTH,ViaDrill
T1C0.0118
; #@! TA.AperFunction,Plated,PTH,ComponentDrill
T2C0.0118
; #@! TA.AperFunction,Plated,PTH,ComponentDrill
T3C0.0236
; #@! TA.AperFunction,Plated,PTH,ComponentDrill
T4C0.0276
; #@! TA.AperFunction,Plated,PTH,ComponentDrill
T5C0.0374
; #@! TA.AperFunction,Plated,PTH,ComponentDrill
T6C0.0394
; #@! TA.AperFunction,Plated,PTH,ComponentDrill
T7C0.0669
%
G90
G05
T1
X8.578Y18.1071
X8.5803Y16.4366
X8.5854Y17.1433
X8.5854Y16.3917
X8.587Y17.1835
X8.5886Y15.6417
X8.5902Y15.7134
X8.5972Y15.0839
X8.6295Y16.465
X8.6386Y17.2335
X9.0272Y15.622
X9.0965Y15.6037
X9.1138Y14.9602
X9.1219Y16.5602
X9.1736Y17.189
X9.1744Y18.1697
X10.0594Y16.5307
X10.8094Y16.515
X11.5594Y16.498
X12.3094Y16.4835
X13.0594Y16.4677
X13.8094Y16.4469
X14.5594Y16.4362
X15.3094Y16.4177
X16.6587Y15.0622
X17.3719Y15.1409
X17.5754Y16.389
X17.9647Y17.3124
X18.4228Y14.2685
X18.528Y14.8547
X18.5563Y15.0295
X18.9701Y15.4618
X19.5763Y15.8406
X19.5933Y15.9913
X19.5933Y15.1784
X19.6075Y18.1673
X19.6091Y15.0516
X19.6118Y15.1311
X19.6157Y16.6594
X19.6453Y18.0705
X19.6453Y15.9685
X19.6453Y15.1181
X19.6453Y15.0528
X19.6709Y15.1374
X19.6768Y18.1669
X19.6807Y16.5594
X19.6906Y15.1584
X19.6957Y16.5402
X19.7102Y15.1776
X19.7122Y16.5228
X19.7165Y18.8661
X19.7195Y18.7144
X19.7299Y16.5048
X19.7299Y15.1972
X19.7496Y16.4875
X19.7496Y15.2189
X19.7567Y18.3776
X19.7591Y16.7602
X19.7728Y17.3362
X19.7744Y18.2661
X19.7787Y18.1646
X19.7787Y17.2996
X19.7791Y18.1398
X19.8055Y17.0372
X19.8146Y16.6378
X19.8185Y18.0389
X19.8193Y16.665
X19.8283Y17.9823
X19.8343Y18.139
X19.8382Y18.2772
X19.8382Y17.2972
X19.8386Y17.3398
X19.8575Y18.913
X19.8646Y17.6535
X19.8646Y17.1236
X19.8669Y18.1661
X19.8669Y18.0669
X19.8669Y17.837
X19.8669Y17.7567
X19.8882Y16.6642
X19.9055Y16.0642
X19.9079Y16.5508
X19.9205Y16.0433
X19.9268Y14.3799
X19.9276Y16.5327
X19.9287Y18.7075
X19.9311Y16.7642
X19.9351Y16.0248
X19.9404Y16.0017
X19.9429Y16.5811
X19.9467Y16.6127
X19.9988Y16.585
X20.0039Y16.2457
X20.0157Y16.028
X20.0272Y17.1264
X20.0276Y17.8669
X20.0378Y16.4102
X20.1118Y16.4622
X20.1118Y16.1575
X20.1156Y16.0024
X20.1669Y16.2961
X20.1945Y16.0839
X20.2047Y16.1972
X20.2102Y16.1728
X20.2146Y16.0661
X20.2374Y16.0748
X20.2496Y16.1035
X20.25Y16.1429
X20.2556Y15.8869
X20.2575Y16.2689
X20.2628Y16.084
X20.2628Y15.9925
X20.2894Y16.3724
X20.3142Y18.1874
X20.3217Y16.2008
X20.3719Y14.99
X20.4071Y15.887
X20.4102Y15.7795
X20.426Y15.9177
X20.4425Y17.8925
X20.4433Y18.1016
X20.4457Y15.9402
X20.4512Y16.2059
X20.4862Y15.9799
X20.4866Y16.1728
X20.4894Y16.4622
X20.5106Y15.9177
X20.5854Y16.3205
X20.6213Y16.3197
X20.672Y15.2191
X20.6917Y15.199
X20.6963Y16.0702
X20.7048Y16.0482
X20.7075Y15.1776
X20.7085Y16.2091
X20.7233Y16.0335
X20.7272Y15.1579
X20.7327Y16.0118
X20.7429Y15.1358
X20.7469Y15.9661
X20.7665Y15.1161
X20.7673Y15.6087
X20.7677Y15.9547
X20.7724Y17.298
X20.7823Y16.1303
X20.7965Y15.9965
X20.8031Y16.1898
X20.8288Y15.5334
X20.8969Y16.2091
X20.8996Y15.9543
X20.9047Y16.4295
X20.9122Y15.9213
X20.9181Y15.5354
X20.9197Y16.0177
X20.9287Y15.8854
X20.9441Y16.4925
X20.9472Y16.2091
X20.9685Y15.537
X20.9896Y16.6626
X21.002Y17.7783
X21.0043Y15.7587
X21.0091Y16.6469
X21.0118Y16.4189
X21.0215Y16.087
X21.0215Y16.0311
X21.0315Y16.6154
X21.0323Y16.3976
X21.0508Y16.2173
X21.052Y16.5551
X21.052Y16.3291
X21.0583Y17.8913
X21.0627Y16.0713
X21.0745Y16.3361
X21.0815Y16.5346
X21.0824Y16.0319
X21.0846Y15.8866
X21.0894Y15.374
X21.1219Y15.9547
X21.1475Y16.015
X21.1672Y15.739
X21.1693Y15.8839
X21.1894Y15.7941
X21.2047Y15.8866
X21.2437Y15.9335
X21.2744Y14.3654
X21.2748Y17.961
X21.2862Y15.8579
X21.2941Y15.1575
X21.2941Y14.3838
X21.3138Y15.0327
X21.3138Y14.9866
X21.3189Y15.0097
X21.335Y18.0906
X21.3551Y16.2559
X21.3557Y17.9438
X21.3559Y16.0154
X21.3591Y17.9906
X21.3697Y15.0937
X21.3811Y16.5898
X21.3894Y16.0713
X21.4031Y17.3398
X21.4035Y16.1106
X21.422Y15.9138
X21.4232Y15.6642
X21.4236Y16.2839
X21.4264Y15.0504
X21.4449Y15.3571
X21.4496Y14.3398
X21.4561Y16.2567
X21.4906Y16.1878
X21.4909Y18.2773
X21.5173Y16.5181
X21.5177Y16.422
X21.5594Y16.2957
X21.5673Y16.2472
X21.6236Y14.8577
X21.6402Y16.1654
X21.6413Y16.0685
X21.678Y14.9343
X21.6827Y15.6665
X21.7039Y14.8567
X21.7197Y15.6358
X21.761Y15.5654
X21.7654Y16.0106
X21.8126Y16.0695
X21.8217Y16.3035
X21.845Y16.0463
X21.8719Y15.974
X21.9079Y16.5843
X21.9264Y15.6827
X21.9354Y16.1846
X21.9488Y16.0047
X21.9539Y16.5827
X21.9807Y16.3004
X21.9831Y17.2961
X21.9878Y16.0457
X22.0028Y17.2512
X22.0287Y16.4531
X22.0323Y17.9488
X22.0323Y16.6197
X22.0396Y16.2681
T2
X9.4061Y15.5174
X18.9686Y16.2674
T4
X19.7094Y18.6516
X19.7094Y18.5969
X19.7567Y18.6502
X19.7567Y18.5955
X19.8039Y18.652
X19.8039Y18.5972
X19.8512Y18.6506
X19.8512Y18.5959
X19.898Y18.6498
X19.898Y18.5951
T5
X22.0Y15.3531
X22.0Y15.2547
X22.0Y15.1563
X22.0Y15.0579
X22.0Y14.9594
T6
X19.748Y14.3906
X19.7512Y14.2573
X19.8465Y14.3906
X19.8496Y14.2573
T7
X8.6844Y18.5552
X8.6844Y17.6177
X8.7781Y16.1177
X8.8719Y16.8677
X8.8719Y14.6177
X8.9344Y18.6552
X8.9344Y17.7177
X8.9656Y16.1177
X9.0281Y16.2177
X9.1219Y16.9677
X9.1219Y14.7177
X9.1561Y15.3677
X9.2156Y16.2177
X9.4061Y15.4677
X9.4344Y17.6177
X9.6219Y18.5552
X9.6844Y17.7177
X9.8094Y16.8677
X9.8094Y14.6177
X9.8719Y18.6552
X9.9969Y16.1177
X10.0594Y16.9677
X10.0594Y14.7177
X10.1844Y18.5552
X10.1844Y17.6177
X10.2469Y16.2177
X10.3719Y18.5552
X10.3719Y15.3677
X10.4344Y18.6552
X10.4344Y17.7177
X10.5594Y16.8677
X10.6219Y18.6552
X10.6219Y15.4677
X10.7469Y16.1177
X10.7469Y14.6177
X10.8094Y16.9677
X10.9344Y18.5552
X10.9344Y17.6177
X10.9969Y16.2177
X10.9969Y14.7177
X11.1219Y18.5552
X11.1219Y15.3677
X11.1844Y18.6552
X11.1844Y17.7177
X11.3094Y16.8677
X11.3719Y18.6552
X11.3719Y15.4677
X11.4969Y16.1177
X11.5594Y16.9677
X11.6844Y18.5552
X11.6844Y17.6177
X11.7469Y16.2177
X11.8719Y18.5552
X11.8719Y15.3677
X11.9344Y18.6552
X11.9344Y17.7177
X12.0594Y16.8677
X12.1219Y18.6552
X12.1219Y15.4677
X12.2469Y16.1177
X12.3094Y16.9677
X12.4344Y18.5552
X12.4344Y17.6177
X12.4969Y16.2177
X12.6219Y15.3677
X12.6844Y18.6552
X12.6844Y17.7177
X12.8094Y18.5552
X12.8094Y16.8677
X12.8719Y15.4677
X12.9969Y16.1177
X13.0594Y18.6552
X13.0594Y16.9677
X13.1844Y17.6177
X13.2469Y16.2177
X13.3719Y15.3677
X13.4344Y17.7177
X13.5594Y18.5552
X13.5594Y16.8677
X13.6219Y15.4677
X13.7469Y16.1177
X13.8094Y18.6552
X13.8094Y16.9677
X13.9344Y17.6177
X13.9344Y14.6177
X13.9969Y16.2177
X14.1219Y15.3677
X14.1844Y17.7177
X14.1844Y14.7177
X14.3094Y18.5552
X14.3094Y16.8677
X14.3719Y15.4677
X14.4969Y16.1177
X14.5594Y18.6552
X14.5594Y16.9677
X14.6844Y17.6177
X14.7469Y16.2177
X14.8719Y15.3677
X14.9344Y17.7177
X15.0594Y18.5552
X15.0594Y16.8677
X15.1219Y15.4677
X15.2469Y16.1177
X15.3094Y18.6552
X15.3094Y16.9677
X15.4344Y17.6177
X15.4969Y16.2177
X15.6219Y15.3677
X15.6844Y17.7177
X15.8094Y18.5552
X15.8094Y16.8677
X15.8719Y15.4677
X15.9969Y18.5552
X15.9969Y16.1177
X16.0594Y18.6552
X16.0594Y16.9677
X16.1844Y17.6177
X16.2469Y18.6552
X16.2469Y16.2177
X16.3719Y15.3677
X16.4344Y17.7177
X16.5594Y16.8677
X16.6219Y15.4677
X16.7469Y18.5552
X16.7469Y16.1177
X16.8094Y16.9677
X16.9344Y18.5552
X16.9344Y17.6177
X16.9969Y18.6552
X16.9969Y16.2177
X17.1219Y15.3677
X17.1219Y14.6177
X17.1844Y18.6552
X17.1844Y17.7177
X17.3094Y16.8677
X17.3719Y15.4677
X17.3719Y14.7177
X17.4969Y18.5552
X17.4969Y16.1177
X17.5594Y16.9677
X17.6844Y18.5552
X17.6844Y17.6177
X17.7469Y18.6552
X17.7469Y16.2177
X17.9344Y18.6552
X17.9344Y17.7177
X18.0594Y16.8677
X18.0594Y14.6177
X18.1531Y15.3677
X18.2469Y18.5552
X18.3094Y16.9677
X18.3094Y14.7177
X18.4031Y15.4677
X18.4344Y18.5552
X18.4344Y17.6177
X18.4969Y18.6552
X18.5281Y15.3677
X18.6844Y18.6552
X18.6844Y17.7177
X18.7186Y16.1177
X18.7781Y15.4677
X18.8094Y17.6177
X18.9686Y16.2177
X18.9969Y16.8677
X18.9969Y14.6177
X19.0594Y17.7177
X19.1844Y18.5552
X19.1844Y17.6177
X19.1844Y15.3677
X19.2469Y16.9677
X19.2469Y14.7177
X19.4344Y18.6552
X19.4344Y17.7177
X19.4344Y15.4677
X20.1219Y18.5552
X20.1219Y17.6177
X20.1219Y16.8677
X20.1219Y14.6177
X20.3719Y18.6552
X20.3719Y17.7177
X20.3719Y16.9677
X20.3719Y14.7177
X20.8719Y18.5552
X20.8719Y17.6177
X20.8719Y16.8677
X20.8719Y15.3677
X20.8719Y14.6177
X21.1219Y18.6552
X21.1219Y17.7177
X21.1219Y16.9677
X21.1219Y15.4677
X21.1219Y14.7177
X21.6219Y18.5552
X21.6219Y17.6177
X21.6219Y16.8677
X21.6219Y14.6177
X21.8719Y18.6552
X21.8719Y17.7177
X21.8719Y16.9677
X21.8719Y14.7177
T3
G00X19.6331Y18.9508
M15
G01X19.6331Y18.9744
M16
G05
G00X19.6331Y18.7764
M15
G01X19.6331Y18.8197
M16
G05
G00X19.9732Y18.9508
M15
G01X19.9732Y18.9744
M16
G05
G00X19.9732Y18.7764
M15
G01X19.9732Y18.8197
M16
G05
M30
