%TF.GenerationSoftware,KiCad,Pcbnew,8.99.0-2193-g88272a59b7*%
%TF.CreationDate,2024-09-27T03:09:18+07:00*%
%TF.ProjectId,qk80,716b3830-2e6b-4696-9361-645f70636258,rev?*%
%TF.SameCoordinates,Original*%
%TF.FileFunction,Profile,NP*%
%FSLAX46Y46*%
G04 Gerber Fmt 4.6, Leading zero omitted, Abs format (unit mm)*
G04 Created by KiCad (PCBNEW 8.99.0-2193-g88272a59b7) date 2024-09-27 03:09:18*
%MOMM*%
%LPD*%
G01*
G04 APERTURE LIST*
%ADD10C,0.100000*%
%ADD11C,0.150000*%
%ADD12C,0.300000*%
%ADD13C,0.400000*%
%TA.AperFunction,Profile*%
%ADD14C,0.500000*%
%TD*%
G04 APERTURE END LIST*
D10*
D11*
X177002200Y-166007200D02*
X285002200Y-166007200D01*
X285002200Y-198007200D01*
X177002200Y-198007200D01*
X177002200Y-166007200D01*
D10*
D11*
X10000000Y-10000000D02*
X287002200Y-10000000D01*
X287002200Y-200007200D01*
X10000000Y-200007200D01*
X10000000Y-10000000D01*
D10*
D11*
X12000000Y-12000000D02*
X285002200Y-12000000D01*
X285002200Y-198007200D01*
X12000000Y-198007200D01*
X12000000Y-12000000D01*
D10*
D11*
X60000000Y-12000000D02*
X60000000Y-10000000D01*
D10*
D11*
X110000000Y-12000000D02*
X110000000Y-10000000D01*
D10*
D11*
X160000000Y-12000000D02*
X160000000Y-10000000D01*
D10*
D11*
X210000000Y-12000000D02*
X210000000Y-10000000D01*
D10*
D11*
X260000000Y-12000000D02*
X260000000Y-10000000D01*
D10*
D11*
X36089160Y-11593604D02*
X35346303Y-11593604D01*
X35717731Y-11593604D02*
X35717731Y-10293604D01*
X35717731Y-10293604D02*
X35593922Y-10479319D01*
X35593922Y-10479319D02*
X35470112Y-10603128D01*
X35470112Y-10603128D02*
X35346303Y-10665033D01*
D10*
D11*
X85346303Y-10417414D02*
X85408207Y-10355509D01*
X85408207Y-10355509D02*
X85532017Y-10293604D01*
X85532017Y-10293604D02*
X85841541Y-10293604D01*
X85841541Y-10293604D02*
X85965350Y-10355509D01*
X85965350Y-10355509D02*
X86027255Y-10417414D01*
X86027255Y-10417414D02*
X86089160Y-10541223D01*
X86089160Y-10541223D02*
X86089160Y-10665033D01*
X86089160Y-10665033D02*
X86027255Y-10850747D01*
X86027255Y-10850747D02*
X85284398Y-11593604D01*
X85284398Y-11593604D02*
X86089160Y-11593604D01*
D10*
D11*
X135284398Y-10293604D02*
X136089160Y-10293604D01*
X136089160Y-10293604D02*
X135655826Y-10788842D01*
X135655826Y-10788842D02*
X135841541Y-10788842D01*
X135841541Y-10788842D02*
X135965350Y-10850747D01*
X135965350Y-10850747D02*
X136027255Y-10912652D01*
X136027255Y-10912652D02*
X136089160Y-11036461D01*
X136089160Y-11036461D02*
X136089160Y-11345985D01*
X136089160Y-11345985D02*
X136027255Y-11469795D01*
X136027255Y-11469795D02*
X135965350Y-11531700D01*
X135965350Y-11531700D02*
X135841541Y-11593604D01*
X135841541Y-11593604D02*
X135470112Y-11593604D01*
X135470112Y-11593604D02*
X135346303Y-11531700D01*
X135346303Y-11531700D02*
X135284398Y-11469795D01*
D10*
D11*
X185965350Y-10726938D02*
X185965350Y-11593604D01*
X185655826Y-10231700D02*
X185346303Y-11160271D01*
X185346303Y-11160271D02*
X186151064Y-11160271D01*
D10*
D11*
X236027255Y-10293604D02*
X235408207Y-10293604D01*
X235408207Y-10293604D02*
X235346303Y-10912652D01*
X235346303Y-10912652D02*
X235408207Y-10850747D01*
X235408207Y-10850747D02*
X235532017Y-10788842D01*
X235532017Y-10788842D02*
X235841541Y-10788842D01*
X235841541Y-10788842D02*
X235965350Y-10850747D01*
X235965350Y-10850747D02*
X236027255Y-10912652D01*
X236027255Y-10912652D02*
X236089160Y-11036461D01*
X236089160Y-11036461D02*
X236089160Y-11345985D01*
X236089160Y-11345985D02*
X236027255Y-11469795D01*
X236027255Y-11469795D02*
X235965350Y-11531700D01*
X235965350Y-11531700D02*
X235841541Y-11593604D01*
X235841541Y-11593604D02*
X235532017Y-11593604D01*
X235532017Y-11593604D02*
X235408207Y-11531700D01*
X235408207Y-11531700D02*
X235346303Y-11469795D01*
D10*
D11*
X285965350Y-10293604D02*
X285717731Y-10293604D01*
X285717731Y-10293604D02*
X285593922Y-10355509D01*
X285593922Y-10355509D02*
X285532017Y-10417414D01*
X285532017Y-10417414D02*
X285408207Y-10603128D01*
X285408207Y-10603128D02*
X285346303Y-10850747D01*
X285346303Y-10850747D02*
X285346303Y-11345985D01*
X285346303Y-11345985D02*
X285408207Y-11469795D01*
X285408207Y-11469795D02*
X285470112Y-11531700D01*
X285470112Y-11531700D02*
X285593922Y-11593604D01*
X285593922Y-11593604D02*
X285841541Y-11593604D01*
X285841541Y-11593604D02*
X285965350Y-11531700D01*
X285965350Y-11531700D02*
X286027255Y-11469795D01*
X286027255Y-11469795D02*
X286089160Y-11345985D01*
X286089160Y-11345985D02*
X286089160Y-11036461D01*
X286089160Y-11036461D02*
X286027255Y-10912652D01*
X286027255Y-10912652D02*
X285965350Y-10850747D01*
X285965350Y-10850747D02*
X285841541Y-10788842D01*
X285841541Y-10788842D02*
X285593922Y-10788842D01*
X285593922Y-10788842D02*
X285470112Y-10850747D01*
X285470112Y-10850747D02*
X285408207Y-10912652D01*
X285408207Y-10912652D02*
X285346303Y-11036461D01*
D10*
D11*
X60000000Y-198007200D02*
X60000000Y-200007200D01*
D10*
D11*
X110000000Y-198007200D02*
X110000000Y-200007200D01*
D10*
D11*
X160000000Y-198007200D02*
X160000000Y-200007200D01*
D10*
D11*
X210000000Y-198007200D02*
X210000000Y-200007200D01*
D10*
D11*
X260000000Y-198007200D02*
X260000000Y-200007200D01*
D10*
D11*
X36089160Y-199600804D02*
X35346303Y-199600804D01*
X35717731Y-199600804D02*
X35717731Y-198300804D01*
X35717731Y-198300804D02*
X35593922Y-198486519D01*
X35593922Y-198486519D02*
X35470112Y-198610328D01*
X35470112Y-198610328D02*
X35346303Y-198672233D01*
D10*
D11*
X85346303Y-198424614D02*
X85408207Y-198362709D01*
X85408207Y-198362709D02*
X85532017Y-198300804D01*
X85532017Y-198300804D02*
X85841541Y-198300804D01*
X85841541Y-198300804D02*
X85965350Y-198362709D01*
X85965350Y-198362709D02*
X86027255Y-198424614D01*
X86027255Y-198424614D02*
X86089160Y-198548423D01*
X86089160Y-198548423D02*
X86089160Y-198672233D01*
X86089160Y-198672233D02*
X86027255Y-198857947D01*
X86027255Y-198857947D02*
X85284398Y-199600804D01*
X85284398Y-199600804D02*
X86089160Y-199600804D01*
D10*
D11*
X135284398Y-198300804D02*
X136089160Y-198300804D01*
X136089160Y-198300804D02*
X135655826Y-198796042D01*
X135655826Y-198796042D02*
X135841541Y-198796042D01*
X135841541Y-198796042D02*
X135965350Y-198857947D01*
X135965350Y-198857947D02*
X136027255Y-198919852D01*
X136027255Y-198919852D02*
X136089160Y-199043661D01*
X136089160Y-199043661D02*
X136089160Y-199353185D01*
X136089160Y-199353185D02*
X136027255Y-199476995D01*
X136027255Y-199476995D02*
X135965350Y-199538900D01*
X135965350Y-199538900D02*
X135841541Y-199600804D01*
X135841541Y-199600804D02*
X135470112Y-199600804D01*
X135470112Y-199600804D02*
X135346303Y-199538900D01*
X135346303Y-199538900D02*
X135284398Y-199476995D01*
D10*
D11*
X185965350Y-198734138D02*
X185965350Y-199600804D01*
X185655826Y-198238900D02*
X185346303Y-199167471D01*
X185346303Y-199167471D02*
X186151064Y-199167471D01*
D10*
D11*
X236027255Y-198300804D02*
X235408207Y-198300804D01*
X235408207Y-198300804D02*
X235346303Y-198919852D01*
X235346303Y-198919852D02*
X235408207Y-198857947D01*
X235408207Y-198857947D02*
X235532017Y-198796042D01*
X235532017Y-198796042D02*
X235841541Y-198796042D01*
X235841541Y-198796042D02*
X235965350Y-198857947D01*
X235965350Y-198857947D02*
X236027255Y-198919852D01*
X236027255Y-198919852D02*
X236089160Y-199043661D01*
X236089160Y-199043661D02*
X236089160Y-199353185D01*
X236089160Y-199353185D02*
X236027255Y-199476995D01*
X236027255Y-199476995D02*
X235965350Y-199538900D01*
X235965350Y-199538900D02*
X235841541Y-199600804D01*
X235841541Y-199600804D02*
X235532017Y-199600804D01*
X235532017Y-199600804D02*
X235408207Y-199538900D01*
X235408207Y-199538900D02*
X235346303Y-199476995D01*
D10*
D11*
X285965350Y-198300804D02*
X285717731Y-198300804D01*
X285717731Y-198300804D02*
X285593922Y-198362709D01*
X285593922Y-198362709D02*
X285532017Y-198424614D01*
X285532017Y-198424614D02*
X285408207Y-198610328D01*
X285408207Y-198610328D02*
X285346303Y-198857947D01*
X285346303Y-198857947D02*
X285346303Y-199353185D01*
X285346303Y-199353185D02*
X285408207Y-199476995D01*
X285408207Y-199476995D02*
X285470112Y-199538900D01*
X285470112Y-199538900D02*
X285593922Y-199600804D01*
X285593922Y-199600804D02*
X285841541Y-199600804D01*
X285841541Y-199600804D02*
X285965350Y-199538900D01*
X285965350Y-199538900D02*
X286027255Y-199476995D01*
X286027255Y-199476995D02*
X286089160Y-199353185D01*
X286089160Y-199353185D02*
X286089160Y-199043661D01*
X286089160Y-199043661D02*
X286027255Y-198919852D01*
X286027255Y-198919852D02*
X285965350Y-198857947D01*
X285965350Y-198857947D02*
X285841541Y-198796042D01*
X285841541Y-198796042D02*
X285593922Y-198796042D01*
X285593922Y-198796042D02*
X285470112Y-198857947D01*
X285470112Y-198857947D02*
X285408207Y-198919852D01*
X285408207Y-198919852D02*
X285346303Y-199043661D01*
D10*
D11*
X10000000Y-60000000D02*
X12000000Y-60000000D01*
D10*
D11*
X10000000Y-110000000D02*
X12000000Y-110000000D01*
D10*
D11*
X10000000Y-160000000D02*
X12000000Y-160000000D01*
D10*
D11*
X10690476Y-35222176D02*
X11309523Y-35222176D01*
X10566666Y-35593604D02*
X10999999Y-34293604D01*
X10999999Y-34293604D02*
X11433333Y-35593604D01*
D10*
D11*
X11092857Y-84912652D02*
X11278571Y-84974557D01*
X11278571Y-84974557D02*
X11340476Y-85036461D01*
X11340476Y-85036461D02*
X11402380Y-85160271D01*
X11402380Y-85160271D02*
X11402380Y-85345985D01*
X11402380Y-85345985D02*
X11340476Y-85469795D01*
X11340476Y-85469795D02*
X11278571Y-85531700D01*
X11278571Y-85531700D02*
X11154761Y-85593604D01*
X11154761Y-85593604D02*
X10659523Y-85593604D01*
X10659523Y-85593604D02*
X10659523Y-84293604D01*
X10659523Y-84293604D02*
X11092857Y-84293604D01*
X11092857Y-84293604D02*
X11216666Y-84355509D01*
X11216666Y-84355509D02*
X11278571Y-84417414D01*
X11278571Y-84417414D02*
X11340476Y-84541223D01*
X11340476Y-84541223D02*
X11340476Y-84665033D01*
X11340476Y-84665033D02*
X11278571Y-84788842D01*
X11278571Y-84788842D02*
X11216666Y-84850747D01*
X11216666Y-84850747D02*
X11092857Y-84912652D01*
X11092857Y-84912652D02*
X10659523Y-84912652D01*
D10*
D11*
X11402380Y-135469795D02*
X11340476Y-135531700D01*
X11340476Y-135531700D02*
X11154761Y-135593604D01*
X11154761Y-135593604D02*
X11030952Y-135593604D01*
X11030952Y-135593604D02*
X10845238Y-135531700D01*
X10845238Y-135531700D02*
X10721428Y-135407890D01*
X10721428Y-135407890D02*
X10659523Y-135284080D01*
X10659523Y-135284080D02*
X10597619Y-135036461D01*
X10597619Y-135036461D02*
X10597619Y-134850747D01*
X10597619Y-134850747D02*
X10659523Y-134603128D01*
X10659523Y-134603128D02*
X10721428Y-134479319D01*
X10721428Y-134479319D02*
X10845238Y-134355509D01*
X10845238Y-134355509D02*
X11030952Y-134293604D01*
X11030952Y-134293604D02*
X11154761Y-134293604D01*
X11154761Y-134293604D02*
X11340476Y-134355509D01*
X11340476Y-134355509D02*
X11402380Y-134417414D01*
D10*
D11*
X10659523Y-185593604D02*
X10659523Y-184293604D01*
X10659523Y-184293604D02*
X10969047Y-184293604D01*
X10969047Y-184293604D02*
X11154761Y-184355509D01*
X11154761Y-184355509D02*
X11278571Y-184479319D01*
X11278571Y-184479319D02*
X11340476Y-184603128D01*
X11340476Y-184603128D02*
X11402380Y-184850747D01*
X11402380Y-184850747D02*
X11402380Y-185036461D01*
X11402380Y-185036461D02*
X11340476Y-185284080D01*
X11340476Y-185284080D02*
X11278571Y-185407890D01*
X11278571Y-185407890D02*
X11154761Y-185531700D01*
X11154761Y-185531700D02*
X10969047Y-185593604D01*
X10969047Y-185593604D02*
X10659523Y-185593604D01*
D10*
D11*
X287002200Y-60000000D02*
X285002200Y-60000000D01*
D10*
D11*
X287002200Y-110000000D02*
X285002200Y-110000000D01*
D10*
D11*
X287002200Y-160000000D02*
X285002200Y-160000000D01*
D10*
D11*
X285692676Y-35222176D02*
X286311723Y-35222176D01*
X285568866Y-35593604D02*
X286002199Y-34293604D01*
X286002199Y-34293604D02*
X286435533Y-35593604D01*
D10*
D11*
X286095057Y-84912652D02*
X286280771Y-84974557D01*
X286280771Y-84974557D02*
X286342676Y-85036461D01*
X286342676Y-85036461D02*
X286404580Y-85160271D01*
X286404580Y-85160271D02*
X286404580Y-85345985D01*
X286404580Y-85345985D02*
X286342676Y-85469795D01*
X286342676Y-85469795D02*
X286280771Y-85531700D01*
X286280771Y-85531700D02*
X286156961Y-85593604D01*
X286156961Y-85593604D02*
X285661723Y-85593604D01*
X285661723Y-85593604D02*
X285661723Y-84293604D01*
X285661723Y-84293604D02*
X286095057Y-84293604D01*
X286095057Y-84293604D02*
X286218866Y-84355509D01*
X286218866Y-84355509D02*
X286280771Y-84417414D01*
X286280771Y-84417414D02*
X286342676Y-84541223D01*
X286342676Y-84541223D02*
X286342676Y-84665033D01*
X286342676Y-84665033D02*
X286280771Y-84788842D01*
X286280771Y-84788842D02*
X286218866Y-84850747D01*
X286218866Y-84850747D02*
X286095057Y-84912652D01*
X286095057Y-84912652D02*
X285661723Y-84912652D01*
D10*
D11*
X286404580Y-135469795D02*
X286342676Y-135531700D01*
X286342676Y-135531700D02*
X286156961Y-135593604D01*
X286156961Y-135593604D02*
X286033152Y-135593604D01*
X286033152Y-135593604D02*
X285847438Y-135531700D01*
X285847438Y-135531700D02*
X285723628Y-135407890D01*
X285723628Y-135407890D02*
X285661723Y-135284080D01*
X285661723Y-135284080D02*
X285599819Y-135036461D01*
X285599819Y-135036461D02*
X285599819Y-134850747D01*
X285599819Y-134850747D02*
X285661723Y-134603128D01*
X285661723Y-134603128D02*
X285723628Y-134479319D01*
X285723628Y-134479319D02*
X285847438Y-134355509D01*
X285847438Y-134355509D02*
X286033152Y-134293604D01*
X286033152Y-134293604D02*
X286156961Y-134293604D01*
X286156961Y-134293604D02*
X286342676Y-134355509D01*
X286342676Y-134355509D02*
X286404580Y-134417414D01*
D10*
D11*
X285661723Y-185593604D02*
X285661723Y-184293604D01*
X285661723Y-184293604D02*
X285971247Y-184293604D01*
X285971247Y-184293604D02*
X286156961Y-184355509D01*
X286156961Y-184355509D02*
X286280771Y-184479319D01*
X286280771Y-184479319D02*
X286342676Y-184603128D01*
X286342676Y-184603128D02*
X286404580Y-184850747D01*
X286404580Y-184850747D02*
X286404580Y-185036461D01*
X286404580Y-185036461D02*
X286342676Y-185284080D01*
X286342676Y-185284080D02*
X286280771Y-185407890D01*
X286280771Y-185407890D02*
X286156961Y-185531700D01*
X286156961Y-185531700D02*
X285971247Y-185593604D01*
X285971247Y-185593604D02*
X285661723Y-185593604D01*
D10*
D11*
X200458026Y-193793328D02*
X200458026Y-192293328D01*
X200458026Y-192293328D02*
X200815169Y-192293328D01*
X200815169Y-192293328D02*
X201029455Y-192364757D01*
X201029455Y-192364757D02*
X201172312Y-192507614D01*
X201172312Y-192507614D02*
X201243741Y-192650471D01*
X201243741Y-192650471D02*
X201315169Y-192936185D01*
X201315169Y-192936185D02*
X201315169Y-193150471D01*
X201315169Y-193150471D02*
X201243741Y-193436185D01*
X201243741Y-193436185D02*
X201172312Y-193579042D01*
X201172312Y-193579042D02*
X201029455Y-193721900D01*
X201029455Y-193721900D02*
X200815169Y-193793328D01*
X200815169Y-193793328D02*
X200458026Y-193793328D01*
X202600884Y-193793328D02*
X202600884Y-193007614D01*
X202600884Y-193007614D02*
X202529455Y-192864757D01*
X202529455Y-192864757D02*
X202386598Y-192793328D01*
X202386598Y-192793328D02*
X202100884Y-192793328D01*
X202100884Y-192793328D02*
X201958026Y-192864757D01*
X202600884Y-193721900D02*
X202458026Y-193793328D01*
X202458026Y-193793328D02*
X202100884Y-193793328D01*
X202100884Y-193793328D02*
X201958026Y-193721900D01*
X201958026Y-193721900D02*
X201886598Y-193579042D01*
X201886598Y-193579042D02*
X201886598Y-193436185D01*
X201886598Y-193436185D02*
X201958026Y-193293328D01*
X201958026Y-193293328D02*
X202100884Y-193221900D01*
X202100884Y-193221900D02*
X202458026Y-193221900D01*
X202458026Y-193221900D02*
X202600884Y-193150471D01*
X203100884Y-192793328D02*
X203672312Y-192793328D01*
X203315169Y-192293328D02*
X203315169Y-193579042D01*
X203315169Y-193579042D02*
X203386598Y-193721900D01*
X203386598Y-193721900D02*
X203529455Y-193793328D01*
X203529455Y-193793328D02*
X203672312Y-193793328D01*
X204743741Y-193721900D02*
X204600884Y-193793328D01*
X204600884Y-193793328D02*
X204315170Y-193793328D01*
X204315170Y-193793328D02*
X204172312Y-193721900D01*
X204172312Y-193721900D02*
X204100884Y-193579042D01*
X204100884Y-193579042D02*
X204100884Y-193007614D01*
X204100884Y-193007614D02*
X204172312Y-192864757D01*
X204172312Y-192864757D02*
X204315170Y-192793328D01*
X204315170Y-192793328D02*
X204600884Y-192793328D01*
X204600884Y-192793328D02*
X204743741Y-192864757D01*
X204743741Y-192864757D02*
X204815170Y-193007614D01*
X204815170Y-193007614D02*
X204815170Y-193150471D01*
X204815170Y-193150471D02*
X204100884Y-193293328D01*
X205458026Y-193650471D02*
X205529455Y-193721900D01*
X205529455Y-193721900D02*
X205458026Y-193793328D01*
X205458026Y-193793328D02*
X205386598Y-193721900D01*
X205386598Y-193721900D02*
X205458026Y-193650471D01*
X205458026Y-193650471D02*
X205458026Y-193793328D01*
X205458026Y-192864757D02*
X205529455Y-192936185D01*
X205529455Y-192936185D02*
X205458026Y-193007614D01*
X205458026Y-193007614D02*
X205386598Y-192936185D01*
X205386598Y-192936185D02*
X205458026Y-192864757D01*
X205458026Y-192864757D02*
X205458026Y-193007614D01*
D10*
D11*
X177002200Y-194507200D02*
X285002200Y-194507200D01*
D10*
D11*
X178458026Y-196593328D02*
X178458026Y-195093328D01*
X179315169Y-196593328D02*
X178672312Y-195736185D01*
X179315169Y-195093328D02*
X178458026Y-195950471D01*
X179958026Y-196593328D02*
X179958026Y-195593328D01*
X179958026Y-195093328D02*
X179886598Y-195164757D01*
X179886598Y-195164757D02*
X179958026Y-195236185D01*
X179958026Y-195236185D02*
X180029455Y-195164757D01*
X180029455Y-195164757D02*
X179958026Y-195093328D01*
X179958026Y-195093328D02*
X179958026Y-195236185D01*
X181529455Y-196450471D02*
X181458027Y-196521900D01*
X181458027Y-196521900D02*
X181243741Y-196593328D01*
X181243741Y-196593328D02*
X181100884Y-196593328D01*
X181100884Y-196593328D02*
X180886598Y-196521900D01*
X180886598Y-196521900D02*
X180743741Y-196379042D01*
X180743741Y-196379042D02*
X180672312Y-196236185D01*
X180672312Y-196236185D02*
X180600884Y-195950471D01*
X180600884Y-195950471D02*
X180600884Y-195736185D01*
X180600884Y-195736185D02*
X180672312Y-195450471D01*
X180672312Y-195450471D02*
X180743741Y-195307614D01*
X180743741Y-195307614D02*
X180886598Y-195164757D01*
X180886598Y-195164757D02*
X181100884Y-195093328D01*
X181100884Y-195093328D02*
X181243741Y-195093328D01*
X181243741Y-195093328D02*
X181458027Y-195164757D01*
X181458027Y-195164757D02*
X181529455Y-195236185D01*
X182815170Y-196593328D02*
X182815170Y-195807614D01*
X182815170Y-195807614D02*
X182743741Y-195664757D01*
X182743741Y-195664757D02*
X182600884Y-195593328D01*
X182600884Y-195593328D02*
X182315170Y-195593328D01*
X182315170Y-195593328D02*
X182172312Y-195664757D01*
X182815170Y-196521900D02*
X182672312Y-196593328D01*
X182672312Y-196593328D02*
X182315170Y-196593328D01*
X182315170Y-196593328D02*
X182172312Y-196521900D01*
X182172312Y-196521900D02*
X182100884Y-196379042D01*
X182100884Y-196379042D02*
X182100884Y-196236185D01*
X182100884Y-196236185D02*
X182172312Y-196093328D01*
X182172312Y-196093328D02*
X182315170Y-196021900D01*
X182315170Y-196021900D02*
X182672312Y-196021900D01*
X182672312Y-196021900D02*
X182815170Y-195950471D01*
X184172313Y-196593328D02*
X184172313Y-195093328D01*
X184172313Y-196521900D02*
X184029455Y-196593328D01*
X184029455Y-196593328D02*
X183743741Y-196593328D01*
X183743741Y-196593328D02*
X183600884Y-196521900D01*
X183600884Y-196521900D02*
X183529455Y-196450471D01*
X183529455Y-196450471D02*
X183458027Y-196307614D01*
X183458027Y-196307614D02*
X183458027Y-195879042D01*
X183458027Y-195879042D02*
X183529455Y-195736185D01*
X183529455Y-195736185D02*
X183600884Y-195664757D01*
X183600884Y-195664757D02*
X183743741Y-195593328D01*
X183743741Y-195593328D02*
X184029455Y-195593328D01*
X184029455Y-195593328D02*
X184172313Y-195664757D01*
X186029455Y-195807614D02*
X186529455Y-195807614D01*
X186743741Y-196593328D02*
X186029455Y-196593328D01*
X186029455Y-196593328D02*
X186029455Y-195093328D01*
X186029455Y-195093328D02*
X186743741Y-195093328D01*
X187386598Y-196450471D02*
X187458027Y-196521900D01*
X187458027Y-196521900D02*
X187386598Y-196593328D01*
X187386598Y-196593328D02*
X187315170Y-196521900D01*
X187315170Y-196521900D02*
X187386598Y-196450471D01*
X187386598Y-196450471D02*
X187386598Y-196593328D01*
X188100884Y-196593328D02*
X188100884Y-195093328D01*
X188100884Y-195093328D02*
X188458027Y-195093328D01*
X188458027Y-195093328D02*
X188672313Y-195164757D01*
X188672313Y-195164757D02*
X188815170Y-195307614D01*
X188815170Y-195307614D02*
X188886599Y-195450471D01*
X188886599Y-195450471D02*
X188958027Y-195736185D01*
X188958027Y-195736185D02*
X188958027Y-195950471D01*
X188958027Y-195950471D02*
X188886599Y-196236185D01*
X188886599Y-196236185D02*
X188815170Y-196379042D01*
X188815170Y-196379042D02*
X188672313Y-196521900D01*
X188672313Y-196521900D02*
X188458027Y-196593328D01*
X188458027Y-196593328D02*
X188100884Y-196593328D01*
X189600884Y-196450471D02*
X189672313Y-196521900D01*
X189672313Y-196521900D02*
X189600884Y-196593328D01*
X189600884Y-196593328D02*
X189529456Y-196521900D01*
X189529456Y-196521900D02*
X189600884Y-196450471D01*
X189600884Y-196450471D02*
X189600884Y-196593328D01*
X190243742Y-196164757D02*
X190958028Y-196164757D01*
X190100885Y-196593328D02*
X190600885Y-195093328D01*
X190600885Y-195093328D02*
X191100885Y-196593328D01*
X191600884Y-196450471D02*
X191672313Y-196521900D01*
X191672313Y-196521900D02*
X191600884Y-196593328D01*
X191600884Y-196593328D02*
X191529456Y-196521900D01*
X191529456Y-196521900D02*
X191600884Y-196450471D01*
X191600884Y-196450471D02*
X191600884Y-196593328D01*
X193672313Y-195736185D02*
X193529456Y-195664757D01*
X193529456Y-195664757D02*
X193458027Y-195593328D01*
X193458027Y-195593328D02*
X193386599Y-195450471D01*
X193386599Y-195450471D02*
X193386599Y-195379042D01*
X193386599Y-195379042D02*
X193458027Y-195236185D01*
X193458027Y-195236185D02*
X193529456Y-195164757D01*
X193529456Y-195164757D02*
X193672313Y-195093328D01*
X193672313Y-195093328D02*
X193958027Y-195093328D01*
X193958027Y-195093328D02*
X194100885Y-195164757D01*
X194100885Y-195164757D02*
X194172313Y-195236185D01*
X194172313Y-195236185D02*
X194243742Y-195379042D01*
X194243742Y-195379042D02*
X194243742Y-195450471D01*
X194243742Y-195450471D02*
X194172313Y-195593328D01*
X194172313Y-195593328D02*
X194100885Y-195664757D01*
X194100885Y-195664757D02*
X193958027Y-195736185D01*
X193958027Y-195736185D02*
X193672313Y-195736185D01*
X193672313Y-195736185D02*
X193529456Y-195807614D01*
X193529456Y-195807614D02*
X193458027Y-195879042D01*
X193458027Y-195879042D02*
X193386599Y-196021900D01*
X193386599Y-196021900D02*
X193386599Y-196307614D01*
X193386599Y-196307614D02*
X193458027Y-196450471D01*
X193458027Y-196450471D02*
X193529456Y-196521900D01*
X193529456Y-196521900D02*
X193672313Y-196593328D01*
X193672313Y-196593328D02*
X193958027Y-196593328D01*
X193958027Y-196593328D02*
X194100885Y-196521900D01*
X194100885Y-196521900D02*
X194172313Y-196450471D01*
X194172313Y-196450471D02*
X194243742Y-196307614D01*
X194243742Y-196307614D02*
X194243742Y-196021900D01*
X194243742Y-196021900D02*
X194172313Y-195879042D01*
X194172313Y-195879042D02*
X194100885Y-195807614D01*
X194100885Y-195807614D02*
X193958027Y-195736185D01*
X194886598Y-196450471D02*
X194958027Y-196521900D01*
X194958027Y-196521900D02*
X194886598Y-196593328D01*
X194886598Y-196593328D02*
X194815170Y-196521900D01*
X194815170Y-196521900D02*
X194886598Y-196450471D01*
X194886598Y-196450471D02*
X194886598Y-196593328D01*
X195672313Y-196593328D02*
X195958027Y-196593328D01*
X195958027Y-196593328D02*
X196100884Y-196521900D01*
X196100884Y-196521900D02*
X196172313Y-196450471D01*
X196172313Y-196450471D02*
X196315170Y-196236185D01*
X196315170Y-196236185D02*
X196386599Y-195950471D01*
X196386599Y-195950471D02*
X196386599Y-195379042D01*
X196386599Y-195379042D02*
X196315170Y-195236185D01*
X196315170Y-195236185D02*
X196243742Y-195164757D01*
X196243742Y-195164757D02*
X196100884Y-195093328D01*
X196100884Y-195093328D02*
X195815170Y-195093328D01*
X195815170Y-195093328D02*
X195672313Y-195164757D01*
X195672313Y-195164757D02*
X195600884Y-195236185D01*
X195600884Y-195236185D02*
X195529456Y-195379042D01*
X195529456Y-195379042D02*
X195529456Y-195736185D01*
X195529456Y-195736185D02*
X195600884Y-195879042D01*
X195600884Y-195879042D02*
X195672313Y-195950471D01*
X195672313Y-195950471D02*
X195815170Y-196021900D01*
X195815170Y-196021900D02*
X196100884Y-196021900D01*
X196100884Y-196021900D02*
X196243742Y-195950471D01*
X196243742Y-195950471D02*
X196315170Y-195879042D01*
X196315170Y-195879042D02*
X196386599Y-195736185D01*
X197100884Y-196593328D02*
X197386598Y-196593328D01*
X197386598Y-196593328D02*
X197529455Y-196521900D01*
X197529455Y-196521900D02*
X197600884Y-196450471D01*
X197600884Y-196450471D02*
X197743741Y-196236185D01*
X197743741Y-196236185D02*
X197815170Y-195950471D01*
X197815170Y-195950471D02*
X197815170Y-195379042D01*
X197815170Y-195379042D02*
X197743741Y-195236185D01*
X197743741Y-195236185D02*
X197672313Y-195164757D01*
X197672313Y-195164757D02*
X197529455Y-195093328D01*
X197529455Y-195093328D02*
X197243741Y-195093328D01*
X197243741Y-195093328D02*
X197100884Y-195164757D01*
X197100884Y-195164757D02*
X197029455Y-195236185D01*
X197029455Y-195236185D02*
X196958027Y-195379042D01*
X196958027Y-195379042D02*
X196958027Y-195736185D01*
X196958027Y-195736185D02*
X197029455Y-195879042D01*
X197029455Y-195879042D02*
X197100884Y-195950471D01*
X197100884Y-195950471D02*
X197243741Y-196021900D01*
X197243741Y-196021900D02*
X197529455Y-196021900D01*
X197529455Y-196021900D02*
X197672313Y-195950471D01*
X197672313Y-195950471D02*
X197743741Y-195879042D01*
X197743741Y-195879042D02*
X197815170Y-195736185D01*
X198458026Y-196450471D02*
X198529455Y-196521900D01*
X198529455Y-196521900D02*
X198458026Y-196593328D01*
X198458026Y-196593328D02*
X198386598Y-196521900D01*
X198386598Y-196521900D02*
X198458026Y-196450471D01*
X198458026Y-196450471D02*
X198458026Y-196593328D01*
X199458027Y-195093328D02*
X199600884Y-195093328D01*
X199600884Y-195093328D02*
X199743741Y-195164757D01*
X199743741Y-195164757D02*
X199815170Y-195236185D01*
X199815170Y-195236185D02*
X199886598Y-195379042D01*
X199886598Y-195379042D02*
X199958027Y-195664757D01*
X199958027Y-195664757D02*
X199958027Y-196021900D01*
X199958027Y-196021900D02*
X199886598Y-196307614D01*
X199886598Y-196307614D02*
X199815170Y-196450471D01*
X199815170Y-196450471D02*
X199743741Y-196521900D01*
X199743741Y-196521900D02*
X199600884Y-196593328D01*
X199600884Y-196593328D02*
X199458027Y-196593328D01*
X199458027Y-196593328D02*
X199315170Y-196521900D01*
X199315170Y-196521900D02*
X199243741Y-196450471D01*
X199243741Y-196450471D02*
X199172312Y-196307614D01*
X199172312Y-196307614D02*
X199100884Y-196021900D01*
X199100884Y-196021900D02*
X199100884Y-195664757D01*
X199100884Y-195664757D02*
X199172312Y-195379042D01*
X199172312Y-195379042D02*
X199243741Y-195236185D01*
X199243741Y-195236185D02*
X199315170Y-195164757D01*
X199315170Y-195164757D02*
X199458027Y-195093328D01*
X200600883Y-196021900D02*
X201743741Y-196021900D01*
X202386598Y-195236185D02*
X202458026Y-195164757D01*
X202458026Y-195164757D02*
X202600884Y-195093328D01*
X202600884Y-195093328D02*
X202958026Y-195093328D01*
X202958026Y-195093328D02*
X203100884Y-195164757D01*
X203100884Y-195164757D02*
X203172312Y-195236185D01*
X203172312Y-195236185D02*
X203243741Y-195379042D01*
X203243741Y-195379042D02*
X203243741Y-195521900D01*
X203243741Y-195521900D02*
X203172312Y-195736185D01*
X203172312Y-195736185D02*
X202315169Y-196593328D01*
X202315169Y-196593328D02*
X203243741Y-196593328D01*
X204672312Y-196593328D02*
X203815169Y-196593328D01*
X204243740Y-196593328D02*
X204243740Y-195093328D01*
X204243740Y-195093328D02*
X204100883Y-195307614D01*
X204100883Y-195307614D02*
X203958026Y-195450471D01*
X203958026Y-195450471D02*
X203815169Y-195521900D01*
X205386597Y-196593328D02*
X205672311Y-196593328D01*
X205672311Y-196593328D02*
X205815168Y-196521900D01*
X205815168Y-196521900D02*
X205886597Y-196450471D01*
X205886597Y-196450471D02*
X206029454Y-196236185D01*
X206029454Y-196236185D02*
X206100883Y-195950471D01*
X206100883Y-195950471D02*
X206100883Y-195379042D01*
X206100883Y-195379042D02*
X206029454Y-195236185D01*
X206029454Y-195236185D02*
X205958026Y-195164757D01*
X205958026Y-195164757D02*
X205815168Y-195093328D01*
X205815168Y-195093328D02*
X205529454Y-195093328D01*
X205529454Y-195093328D02*
X205386597Y-195164757D01*
X205386597Y-195164757D02*
X205315168Y-195236185D01*
X205315168Y-195236185D02*
X205243740Y-195379042D01*
X205243740Y-195379042D02*
X205243740Y-195736185D01*
X205243740Y-195736185D02*
X205315168Y-195879042D01*
X205315168Y-195879042D02*
X205386597Y-195950471D01*
X205386597Y-195950471D02*
X205529454Y-196021900D01*
X205529454Y-196021900D02*
X205815168Y-196021900D01*
X205815168Y-196021900D02*
X205958026Y-195950471D01*
X205958026Y-195950471D02*
X206029454Y-195879042D01*
X206029454Y-195879042D02*
X206100883Y-195736185D01*
X206600882Y-195093328D02*
X207529454Y-195093328D01*
X207529454Y-195093328D02*
X207029454Y-195664757D01*
X207029454Y-195664757D02*
X207243739Y-195664757D01*
X207243739Y-195664757D02*
X207386597Y-195736185D01*
X207386597Y-195736185D02*
X207458025Y-195807614D01*
X207458025Y-195807614D02*
X207529454Y-195950471D01*
X207529454Y-195950471D02*
X207529454Y-196307614D01*
X207529454Y-196307614D02*
X207458025Y-196450471D01*
X207458025Y-196450471D02*
X207386597Y-196521900D01*
X207386597Y-196521900D02*
X207243739Y-196593328D01*
X207243739Y-196593328D02*
X206815168Y-196593328D01*
X206815168Y-196593328D02*
X206672311Y-196521900D01*
X206672311Y-196521900D02*
X206600882Y-196450471D01*
X208172310Y-196021900D02*
X209315168Y-196021900D01*
X210672311Y-195593328D02*
X210672311Y-196807614D01*
X210672311Y-196807614D02*
X210600882Y-196950471D01*
X210600882Y-196950471D02*
X210529453Y-197021900D01*
X210529453Y-197021900D02*
X210386596Y-197093328D01*
X210386596Y-197093328D02*
X210172311Y-197093328D01*
X210172311Y-197093328D02*
X210029453Y-197021900D01*
X210672311Y-196521900D02*
X210529453Y-196593328D01*
X210529453Y-196593328D02*
X210243739Y-196593328D01*
X210243739Y-196593328D02*
X210100882Y-196521900D01*
X210100882Y-196521900D02*
X210029453Y-196450471D01*
X210029453Y-196450471D02*
X209958025Y-196307614D01*
X209958025Y-196307614D02*
X209958025Y-195879042D01*
X209958025Y-195879042D02*
X210029453Y-195736185D01*
X210029453Y-195736185D02*
X210100882Y-195664757D01*
X210100882Y-195664757D02*
X210243739Y-195593328D01*
X210243739Y-195593328D02*
X210529453Y-195593328D01*
X210529453Y-195593328D02*
X210672311Y-195664757D01*
X211600882Y-195736185D02*
X211458025Y-195664757D01*
X211458025Y-195664757D02*
X211386596Y-195593328D01*
X211386596Y-195593328D02*
X211315168Y-195450471D01*
X211315168Y-195450471D02*
X211315168Y-195379042D01*
X211315168Y-195379042D02*
X211386596Y-195236185D01*
X211386596Y-195236185D02*
X211458025Y-195164757D01*
X211458025Y-195164757D02*
X211600882Y-195093328D01*
X211600882Y-195093328D02*
X211886596Y-195093328D01*
X211886596Y-195093328D02*
X212029454Y-195164757D01*
X212029454Y-195164757D02*
X212100882Y-195236185D01*
X212100882Y-195236185D02*
X212172311Y-195379042D01*
X212172311Y-195379042D02*
X212172311Y-195450471D01*
X212172311Y-195450471D02*
X212100882Y-195593328D01*
X212100882Y-195593328D02*
X212029454Y-195664757D01*
X212029454Y-195664757D02*
X211886596Y-195736185D01*
X211886596Y-195736185D02*
X211600882Y-195736185D01*
X211600882Y-195736185D02*
X211458025Y-195807614D01*
X211458025Y-195807614D02*
X211386596Y-195879042D01*
X211386596Y-195879042D02*
X211315168Y-196021900D01*
X211315168Y-196021900D02*
X211315168Y-196307614D01*
X211315168Y-196307614D02*
X211386596Y-196450471D01*
X211386596Y-196450471D02*
X211458025Y-196521900D01*
X211458025Y-196521900D02*
X211600882Y-196593328D01*
X211600882Y-196593328D02*
X211886596Y-196593328D01*
X211886596Y-196593328D02*
X212029454Y-196521900D01*
X212029454Y-196521900D02*
X212100882Y-196450471D01*
X212100882Y-196450471D02*
X212172311Y-196307614D01*
X212172311Y-196307614D02*
X212172311Y-196021900D01*
X212172311Y-196021900D02*
X212100882Y-195879042D01*
X212100882Y-195879042D02*
X212029454Y-195807614D01*
X212029454Y-195807614D02*
X211886596Y-195736185D01*
X213029453Y-195736185D02*
X212886596Y-195664757D01*
X212886596Y-195664757D02*
X212815167Y-195593328D01*
X212815167Y-195593328D02*
X212743739Y-195450471D01*
X212743739Y-195450471D02*
X212743739Y-195379042D01*
X212743739Y-195379042D02*
X212815167Y-195236185D01*
X212815167Y-195236185D02*
X212886596Y-195164757D01*
X212886596Y-195164757D02*
X213029453Y-195093328D01*
X213029453Y-195093328D02*
X213315167Y-195093328D01*
X213315167Y-195093328D02*
X213458025Y-195164757D01*
X213458025Y-195164757D02*
X213529453Y-195236185D01*
X213529453Y-195236185D02*
X213600882Y-195379042D01*
X213600882Y-195379042D02*
X213600882Y-195450471D01*
X213600882Y-195450471D02*
X213529453Y-195593328D01*
X213529453Y-195593328D02*
X213458025Y-195664757D01*
X213458025Y-195664757D02*
X213315167Y-195736185D01*
X213315167Y-195736185D02*
X213029453Y-195736185D01*
X213029453Y-195736185D02*
X212886596Y-195807614D01*
X212886596Y-195807614D02*
X212815167Y-195879042D01*
X212815167Y-195879042D02*
X212743739Y-196021900D01*
X212743739Y-196021900D02*
X212743739Y-196307614D01*
X212743739Y-196307614D02*
X212815167Y-196450471D01*
X212815167Y-196450471D02*
X212886596Y-196521900D01*
X212886596Y-196521900D02*
X213029453Y-196593328D01*
X213029453Y-196593328D02*
X213315167Y-196593328D01*
X213315167Y-196593328D02*
X213458025Y-196521900D01*
X213458025Y-196521900D02*
X213529453Y-196450471D01*
X213529453Y-196450471D02*
X213600882Y-196307614D01*
X213600882Y-196307614D02*
X213600882Y-196021900D01*
X213600882Y-196021900D02*
X213529453Y-195879042D01*
X213529453Y-195879042D02*
X213458025Y-195807614D01*
X213458025Y-195807614D02*
X213315167Y-195736185D01*
X214172310Y-195236185D02*
X214243738Y-195164757D01*
X214243738Y-195164757D02*
X214386596Y-195093328D01*
X214386596Y-195093328D02*
X214743738Y-195093328D01*
X214743738Y-195093328D02*
X214886596Y-195164757D01*
X214886596Y-195164757D02*
X214958024Y-195236185D01*
X214958024Y-195236185D02*
X215029453Y-195379042D01*
X215029453Y-195379042D02*
X215029453Y-195521900D01*
X215029453Y-195521900D02*
X214958024Y-195736185D01*
X214958024Y-195736185D02*
X214100881Y-196593328D01*
X214100881Y-196593328D02*
X215029453Y-196593328D01*
X215529452Y-195093328D02*
X216529452Y-195093328D01*
X216529452Y-195093328D02*
X215886595Y-196593328D01*
X217029452Y-195236185D02*
X217100880Y-195164757D01*
X217100880Y-195164757D02*
X217243738Y-195093328D01*
X217243738Y-195093328D02*
X217600880Y-195093328D01*
X217600880Y-195093328D02*
X217743738Y-195164757D01*
X217743738Y-195164757D02*
X217815166Y-195236185D01*
X217815166Y-195236185D02*
X217886595Y-195379042D01*
X217886595Y-195379042D02*
X217886595Y-195521900D01*
X217886595Y-195521900D02*
X217815166Y-195736185D01*
X217815166Y-195736185D02*
X216958023Y-196593328D01*
X216958023Y-196593328D02*
X217886595Y-196593328D01*
X219172309Y-196593328D02*
X219172309Y-195807614D01*
X219172309Y-195807614D02*
X219100880Y-195664757D01*
X219100880Y-195664757D02*
X218958023Y-195593328D01*
X218958023Y-195593328D02*
X218672309Y-195593328D01*
X218672309Y-195593328D02*
X218529451Y-195664757D01*
X219172309Y-196521900D02*
X219029451Y-196593328D01*
X219029451Y-196593328D02*
X218672309Y-196593328D01*
X218672309Y-196593328D02*
X218529451Y-196521900D01*
X218529451Y-196521900D02*
X218458023Y-196379042D01*
X218458023Y-196379042D02*
X218458023Y-196236185D01*
X218458023Y-196236185D02*
X218529451Y-196093328D01*
X218529451Y-196093328D02*
X218672309Y-196021900D01*
X218672309Y-196021900D02*
X219029451Y-196021900D01*
X219029451Y-196021900D02*
X219172309Y-195950471D01*
X220600880Y-195093328D02*
X219886594Y-195093328D01*
X219886594Y-195093328D02*
X219815166Y-195807614D01*
X219815166Y-195807614D02*
X219886594Y-195736185D01*
X219886594Y-195736185D02*
X220029452Y-195664757D01*
X220029452Y-195664757D02*
X220386594Y-195664757D01*
X220386594Y-195664757D02*
X220529452Y-195736185D01*
X220529452Y-195736185D02*
X220600880Y-195807614D01*
X220600880Y-195807614D02*
X220672309Y-195950471D01*
X220672309Y-195950471D02*
X220672309Y-196307614D01*
X220672309Y-196307614D02*
X220600880Y-196450471D01*
X220600880Y-196450471D02*
X220529452Y-196521900D01*
X220529452Y-196521900D02*
X220386594Y-196593328D01*
X220386594Y-196593328D02*
X220029452Y-196593328D01*
X220029452Y-196593328D02*
X219886594Y-196521900D01*
X219886594Y-196521900D02*
X219815166Y-196450471D01*
X221386594Y-196593328D02*
X221672308Y-196593328D01*
X221672308Y-196593328D02*
X221815165Y-196521900D01*
X221815165Y-196521900D02*
X221886594Y-196450471D01*
X221886594Y-196450471D02*
X222029451Y-196236185D01*
X222029451Y-196236185D02*
X222100880Y-195950471D01*
X222100880Y-195950471D02*
X222100880Y-195379042D01*
X222100880Y-195379042D02*
X222029451Y-195236185D01*
X222029451Y-195236185D02*
X221958023Y-195164757D01*
X221958023Y-195164757D02*
X221815165Y-195093328D01*
X221815165Y-195093328D02*
X221529451Y-195093328D01*
X221529451Y-195093328D02*
X221386594Y-195164757D01*
X221386594Y-195164757D02*
X221315165Y-195236185D01*
X221315165Y-195236185D02*
X221243737Y-195379042D01*
X221243737Y-195379042D02*
X221243737Y-195736185D01*
X221243737Y-195736185D02*
X221315165Y-195879042D01*
X221315165Y-195879042D02*
X221386594Y-195950471D01*
X221386594Y-195950471D02*
X221529451Y-196021900D01*
X221529451Y-196021900D02*
X221815165Y-196021900D01*
X221815165Y-196021900D02*
X221958023Y-195950471D01*
X221958023Y-195950471D02*
X222029451Y-195879042D01*
X222029451Y-195879042D02*
X222100880Y-195736185D01*
X222743736Y-196593328D02*
X222743736Y-195093328D01*
X222743736Y-195664757D02*
X222886594Y-195593328D01*
X222886594Y-195593328D02*
X223172308Y-195593328D01*
X223172308Y-195593328D02*
X223315165Y-195664757D01*
X223315165Y-195664757D02*
X223386594Y-195736185D01*
X223386594Y-195736185D02*
X223458022Y-195879042D01*
X223458022Y-195879042D02*
X223458022Y-196307614D01*
X223458022Y-196307614D02*
X223386594Y-196450471D01*
X223386594Y-196450471D02*
X223315165Y-196521900D01*
X223315165Y-196521900D02*
X223172308Y-196593328D01*
X223172308Y-196593328D02*
X222886594Y-196593328D01*
X222886594Y-196593328D02*
X222743736Y-196521900D01*
X223958022Y-195093328D02*
X224958022Y-195093328D01*
X224958022Y-195093328D02*
X224315165Y-196593328D01*
D10*
D11*
X177002200Y-191507200D02*
X285002200Y-191507200D01*
D10*
D12*
X264413853Y-193785528D02*
X263913853Y-193071242D01*
X263556710Y-193785528D02*
X263556710Y-192285528D01*
X263556710Y-192285528D02*
X264128139Y-192285528D01*
X264128139Y-192285528D02*
X264270996Y-192356957D01*
X264270996Y-192356957D02*
X264342425Y-192428385D01*
X264342425Y-192428385D02*
X264413853Y-192571242D01*
X264413853Y-192571242D02*
X264413853Y-192785528D01*
X264413853Y-192785528D02*
X264342425Y-192928385D01*
X264342425Y-192928385D02*
X264270996Y-192999814D01*
X264270996Y-192999814D02*
X264128139Y-193071242D01*
X264128139Y-193071242D02*
X263556710Y-193071242D01*
X265628139Y-193714100D02*
X265485282Y-193785528D01*
X265485282Y-193785528D02*
X265199568Y-193785528D01*
X265199568Y-193785528D02*
X265056710Y-193714100D01*
X265056710Y-193714100D02*
X264985282Y-193571242D01*
X264985282Y-193571242D02*
X264985282Y-192999814D01*
X264985282Y-192999814D02*
X265056710Y-192856957D01*
X265056710Y-192856957D02*
X265199568Y-192785528D01*
X265199568Y-192785528D02*
X265485282Y-192785528D01*
X265485282Y-192785528D02*
X265628139Y-192856957D01*
X265628139Y-192856957D02*
X265699568Y-192999814D01*
X265699568Y-192999814D02*
X265699568Y-193142671D01*
X265699568Y-193142671D02*
X264985282Y-193285528D01*
X266199567Y-192785528D02*
X266556710Y-193785528D01*
X266556710Y-193785528D02*
X266913853Y-192785528D01*
X267485281Y-193642671D02*
X267556710Y-193714100D01*
X267556710Y-193714100D02*
X267485281Y-193785528D01*
X267485281Y-193785528D02*
X267413853Y-193714100D01*
X267413853Y-193714100D02*
X267485281Y-193642671D01*
X267485281Y-193642671D02*
X267485281Y-193785528D01*
X267485281Y-192856957D02*
X267556710Y-192928385D01*
X267556710Y-192928385D02*
X267485281Y-192999814D01*
X267485281Y-192999814D02*
X267413853Y-192928385D01*
X267413853Y-192928385D02*
X267485281Y-192856957D01*
X267485281Y-192856957D02*
X267485281Y-192999814D01*
D10*
D11*
X178386598Y-193721900D02*
X178600884Y-193793328D01*
X178600884Y-193793328D02*
X178958026Y-193793328D01*
X178958026Y-193793328D02*
X179100884Y-193721900D01*
X179100884Y-193721900D02*
X179172312Y-193650471D01*
X179172312Y-193650471D02*
X179243741Y-193507614D01*
X179243741Y-193507614D02*
X179243741Y-193364757D01*
X179243741Y-193364757D02*
X179172312Y-193221900D01*
X179172312Y-193221900D02*
X179100884Y-193150471D01*
X179100884Y-193150471D02*
X178958026Y-193079042D01*
X178958026Y-193079042D02*
X178672312Y-193007614D01*
X178672312Y-193007614D02*
X178529455Y-192936185D01*
X178529455Y-192936185D02*
X178458026Y-192864757D01*
X178458026Y-192864757D02*
X178386598Y-192721900D01*
X178386598Y-192721900D02*
X178386598Y-192579042D01*
X178386598Y-192579042D02*
X178458026Y-192436185D01*
X178458026Y-192436185D02*
X178529455Y-192364757D01*
X178529455Y-192364757D02*
X178672312Y-192293328D01*
X178672312Y-192293328D02*
X179029455Y-192293328D01*
X179029455Y-192293328D02*
X179243741Y-192364757D01*
X179886597Y-193793328D02*
X179886597Y-192793328D01*
X179886597Y-192293328D02*
X179815169Y-192364757D01*
X179815169Y-192364757D02*
X179886597Y-192436185D01*
X179886597Y-192436185D02*
X179958026Y-192364757D01*
X179958026Y-192364757D02*
X179886597Y-192293328D01*
X179886597Y-192293328D02*
X179886597Y-192436185D01*
X180458026Y-192793328D02*
X181243741Y-192793328D01*
X181243741Y-192793328D02*
X180458026Y-193793328D01*
X180458026Y-193793328D02*
X181243741Y-193793328D01*
X182386598Y-193721900D02*
X182243741Y-193793328D01*
X182243741Y-193793328D02*
X181958027Y-193793328D01*
X181958027Y-193793328D02*
X181815169Y-193721900D01*
X181815169Y-193721900D02*
X181743741Y-193579042D01*
X181743741Y-193579042D02*
X181743741Y-193007614D01*
X181743741Y-193007614D02*
X181815169Y-192864757D01*
X181815169Y-192864757D02*
X181958027Y-192793328D01*
X181958027Y-192793328D02*
X182243741Y-192793328D01*
X182243741Y-192793328D02*
X182386598Y-192864757D01*
X182386598Y-192864757D02*
X182458027Y-193007614D01*
X182458027Y-193007614D02*
X182458027Y-193150471D01*
X182458027Y-193150471D02*
X181743741Y-193293328D01*
X183100883Y-193650471D02*
X183172312Y-193721900D01*
X183172312Y-193721900D02*
X183100883Y-193793328D01*
X183100883Y-193793328D02*
X183029455Y-193721900D01*
X183029455Y-193721900D02*
X183100883Y-193650471D01*
X183100883Y-193650471D02*
X183100883Y-193793328D01*
X183100883Y-192864757D02*
X183172312Y-192936185D01*
X183172312Y-192936185D02*
X183100883Y-193007614D01*
X183100883Y-193007614D02*
X183029455Y-192936185D01*
X183029455Y-192936185D02*
X183100883Y-192864757D01*
X183100883Y-192864757D02*
X183100883Y-193007614D01*
X184886598Y-193364757D02*
X185600884Y-193364757D01*
X184743741Y-193793328D02*
X185243741Y-192293328D01*
X185243741Y-192293328D02*
X185743741Y-193793328D01*
X186886598Y-192793328D02*
X186886598Y-193793328D01*
X186529455Y-192221900D02*
X186172312Y-193293328D01*
X186172312Y-193293328D02*
X187100883Y-193293328D01*
D10*
D11*
X263458026Y-196593328D02*
X263458026Y-195093328D01*
X264815170Y-196593328D02*
X264815170Y-195093328D01*
X264815170Y-196521900D02*
X264672312Y-196593328D01*
X264672312Y-196593328D02*
X264386598Y-196593328D01*
X264386598Y-196593328D02*
X264243741Y-196521900D01*
X264243741Y-196521900D02*
X264172312Y-196450471D01*
X264172312Y-196450471D02*
X264100884Y-196307614D01*
X264100884Y-196307614D02*
X264100884Y-195879042D01*
X264100884Y-195879042D02*
X264172312Y-195736185D01*
X264172312Y-195736185D02*
X264243741Y-195664757D01*
X264243741Y-195664757D02*
X264386598Y-195593328D01*
X264386598Y-195593328D02*
X264672312Y-195593328D01*
X264672312Y-195593328D02*
X264815170Y-195664757D01*
X265529455Y-196450471D02*
X265600884Y-196521900D01*
X265600884Y-196521900D02*
X265529455Y-196593328D01*
X265529455Y-196593328D02*
X265458027Y-196521900D01*
X265458027Y-196521900D02*
X265529455Y-196450471D01*
X265529455Y-196450471D02*
X265529455Y-196593328D01*
X265529455Y-195664757D02*
X265600884Y-195736185D01*
X265600884Y-195736185D02*
X265529455Y-195807614D01*
X265529455Y-195807614D02*
X265458027Y-195736185D01*
X265458027Y-195736185D02*
X265529455Y-195664757D01*
X265529455Y-195664757D02*
X265529455Y-195807614D01*
X268172313Y-196593328D02*
X267315170Y-196593328D01*
X267743741Y-196593328D02*
X267743741Y-195093328D01*
X267743741Y-195093328D02*
X267600884Y-195307614D01*
X267600884Y-195307614D02*
X267458027Y-195450471D01*
X267458027Y-195450471D02*
X267315170Y-195521900D01*
X269886598Y-195021900D02*
X268600884Y-196950471D01*
X271172313Y-196593328D02*
X270315170Y-196593328D01*
X270743741Y-196593328D02*
X270743741Y-195093328D01*
X270743741Y-195093328D02*
X270600884Y-195307614D01*
X270600884Y-195307614D02*
X270458027Y-195450471D01*
X270458027Y-195450471D02*
X270315170Y-195521900D01*
D10*
D11*
X177002200Y-187507200D02*
X285002200Y-187507200D01*
D10*
D13*
X178693928Y-188211638D02*
X179836785Y-188211638D01*
X179015357Y-190211638D02*
X179265357Y-188211638D01*
X180253452Y-190211638D02*
X180420119Y-188878304D01*
X180503452Y-188211638D02*
X180396309Y-188306876D01*
X180396309Y-188306876D02*
X180479643Y-188402114D01*
X180479643Y-188402114D02*
X180586786Y-188306876D01*
X180586786Y-188306876D02*
X180503452Y-188211638D01*
X180503452Y-188211638D02*
X180479643Y-188402114D01*
X181086786Y-188878304D02*
X181848690Y-188878304D01*
X181455833Y-188211638D02*
X181241548Y-189925923D01*
X181241548Y-189925923D02*
X181312976Y-190116400D01*
X181312976Y-190116400D02*
X181491548Y-190211638D01*
X181491548Y-190211638D02*
X181682024Y-190211638D01*
X182634405Y-190211638D02*
X182455833Y-190116400D01*
X182455833Y-190116400D02*
X182384405Y-189925923D01*
X182384405Y-189925923D02*
X182598690Y-188211638D01*
X184170119Y-190116400D02*
X183967738Y-190211638D01*
X183967738Y-190211638D02*
X183586785Y-190211638D01*
X183586785Y-190211638D02*
X183408214Y-190116400D01*
X183408214Y-190116400D02*
X183336785Y-189925923D01*
X183336785Y-189925923D02*
X183432024Y-189164019D01*
X183432024Y-189164019D02*
X183551071Y-188973542D01*
X183551071Y-188973542D02*
X183753452Y-188878304D01*
X183753452Y-188878304D02*
X184134404Y-188878304D01*
X184134404Y-188878304D02*
X184312976Y-188973542D01*
X184312976Y-188973542D02*
X184384404Y-189164019D01*
X184384404Y-189164019D02*
X184360595Y-189354495D01*
X184360595Y-189354495D02*
X183384404Y-189544971D01*
X185134405Y-190021161D02*
X185217738Y-190116400D01*
X185217738Y-190116400D02*
X185110595Y-190211638D01*
X185110595Y-190211638D02*
X185027262Y-190116400D01*
X185027262Y-190116400D02*
X185134405Y-190021161D01*
X185134405Y-190021161D02*
X185110595Y-190211638D01*
X185265357Y-188973542D02*
X185348690Y-189068780D01*
X185348690Y-189068780D02*
X185241548Y-189164019D01*
X185241548Y-189164019D02*
X185158214Y-189068780D01*
X185158214Y-189068780D02*
X185265357Y-188973542D01*
X185265357Y-188973542D02*
X185241548Y-189164019D01*
D10*
D11*
X178958026Y-185607614D02*
X178458026Y-185607614D01*
X178458026Y-186393328D02*
X178458026Y-184893328D01*
X178458026Y-184893328D02*
X179172312Y-184893328D01*
X179743740Y-186393328D02*
X179743740Y-185393328D01*
X179743740Y-184893328D02*
X179672312Y-184964757D01*
X179672312Y-184964757D02*
X179743740Y-185036185D01*
X179743740Y-185036185D02*
X179815169Y-184964757D01*
X179815169Y-184964757D02*
X179743740Y-184893328D01*
X179743740Y-184893328D02*
X179743740Y-185036185D01*
X180672312Y-186393328D02*
X180529455Y-186321900D01*
X180529455Y-186321900D02*
X180458026Y-186179042D01*
X180458026Y-186179042D02*
X180458026Y-184893328D01*
X181815169Y-186321900D02*
X181672312Y-186393328D01*
X181672312Y-186393328D02*
X181386598Y-186393328D01*
X181386598Y-186393328D02*
X181243740Y-186321900D01*
X181243740Y-186321900D02*
X181172312Y-186179042D01*
X181172312Y-186179042D02*
X181172312Y-185607614D01*
X181172312Y-185607614D02*
X181243740Y-185464757D01*
X181243740Y-185464757D02*
X181386598Y-185393328D01*
X181386598Y-185393328D02*
X181672312Y-185393328D01*
X181672312Y-185393328D02*
X181815169Y-185464757D01*
X181815169Y-185464757D02*
X181886598Y-185607614D01*
X181886598Y-185607614D02*
X181886598Y-185750471D01*
X181886598Y-185750471D02*
X181172312Y-185893328D01*
X182529454Y-186250471D02*
X182600883Y-186321900D01*
X182600883Y-186321900D02*
X182529454Y-186393328D01*
X182529454Y-186393328D02*
X182458026Y-186321900D01*
X182458026Y-186321900D02*
X182529454Y-186250471D01*
X182529454Y-186250471D02*
X182529454Y-186393328D01*
X182529454Y-185464757D02*
X182600883Y-185536185D01*
X182600883Y-185536185D02*
X182529454Y-185607614D01*
X182529454Y-185607614D02*
X182458026Y-185536185D01*
X182458026Y-185536185D02*
X182529454Y-185464757D01*
X182529454Y-185464757D02*
X182529454Y-185607614D01*
X185029455Y-185393328D02*
X185029455Y-186893328D01*
X185029455Y-186321900D02*
X184886597Y-186393328D01*
X184886597Y-186393328D02*
X184600883Y-186393328D01*
X184600883Y-186393328D02*
X184458026Y-186321900D01*
X184458026Y-186321900D02*
X184386597Y-186250471D01*
X184386597Y-186250471D02*
X184315169Y-186107614D01*
X184315169Y-186107614D02*
X184315169Y-185679042D01*
X184315169Y-185679042D02*
X184386597Y-185536185D01*
X184386597Y-185536185D02*
X184458026Y-185464757D01*
X184458026Y-185464757D02*
X184600883Y-185393328D01*
X184600883Y-185393328D02*
X184886597Y-185393328D01*
X184886597Y-185393328D02*
X185029455Y-185464757D01*
X185743740Y-186393328D02*
X185743740Y-184893328D01*
X185886598Y-185821900D02*
X186315169Y-186393328D01*
X186315169Y-185393328D02*
X185743740Y-185964757D01*
X187172312Y-185536185D02*
X187029455Y-185464757D01*
X187029455Y-185464757D02*
X186958026Y-185393328D01*
X186958026Y-185393328D02*
X186886598Y-185250471D01*
X186886598Y-185250471D02*
X186886598Y-185179042D01*
X186886598Y-185179042D02*
X186958026Y-185036185D01*
X186958026Y-185036185D02*
X187029455Y-184964757D01*
X187029455Y-184964757D02*
X187172312Y-184893328D01*
X187172312Y-184893328D02*
X187458026Y-184893328D01*
X187458026Y-184893328D02*
X187600884Y-184964757D01*
X187600884Y-184964757D02*
X187672312Y-185036185D01*
X187672312Y-185036185D02*
X187743741Y-185179042D01*
X187743741Y-185179042D02*
X187743741Y-185250471D01*
X187743741Y-185250471D02*
X187672312Y-185393328D01*
X187672312Y-185393328D02*
X187600884Y-185464757D01*
X187600884Y-185464757D02*
X187458026Y-185536185D01*
X187458026Y-185536185D02*
X187172312Y-185536185D01*
X187172312Y-185536185D02*
X187029455Y-185607614D01*
X187029455Y-185607614D02*
X186958026Y-185679042D01*
X186958026Y-185679042D02*
X186886598Y-185821900D01*
X186886598Y-185821900D02*
X186886598Y-186107614D01*
X186886598Y-186107614D02*
X186958026Y-186250471D01*
X186958026Y-186250471D02*
X187029455Y-186321900D01*
X187029455Y-186321900D02*
X187172312Y-186393328D01*
X187172312Y-186393328D02*
X187458026Y-186393328D01*
X187458026Y-186393328D02*
X187600884Y-186321900D01*
X187600884Y-186321900D02*
X187672312Y-186250471D01*
X187672312Y-186250471D02*
X187743741Y-186107614D01*
X187743741Y-186107614D02*
X187743741Y-185821900D01*
X187743741Y-185821900D02*
X187672312Y-185679042D01*
X187672312Y-185679042D02*
X187600884Y-185607614D01*
X187600884Y-185607614D02*
X187458026Y-185536185D01*
X188672312Y-184893328D02*
X188815169Y-184893328D01*
X188815169Y-184893328D02*
X188958026Y-184964757D01*
X188958026Y-184964757D02*
X189029455Y-185036185D01*
X189029455Y-185036185D02*
X189100883Y-185179042D01*
X189100883Y-185179042D02*
X189172312Y-185464757D01*
X189172312Y-185464757D02*
X189172312Y-185821900D01*
X189172312Y-185821900D02*
X189100883Y-186107614D01*
X189100883Y-186107614D02*
X189029455Y-186250471D01*
X189029455Y-186250471D02*
X188958026Y-186321900D01*
X188958026Y-186321900D02*
X188815169Y-186393328D01*
X188815169Y-186393328D02*
X188672312Y-186393328D01*
X188672312Y-186393328D02*
X188529455Y-186321900D01*
X188529455Y-186321900D02*
X188458026Y-186250471D01*
X188458026Y-186250471D02*
X188386597Y-186107614D01*
X188386597Y-186107614D02*
X188315169Y-185821900D01*
X188315169Y-185821900D02*
X188315169Y-185464757D01*
X188315169Y-185464757D02*
X188386597Y-185179042D01*
X188386597Y-185179042D02*
X188458026Y-185036185D01*
X188458026Y-185036185D02*
X188529455Y-184964757D01*
X188529455Y-184964757D02*
X188672312Y-184893328D01*
X189815168Y-186250471D02*
X189886597Y-186321900D01*
X189886597Y-186321900D02*
X189815168Y-186393328D01*
X189815168Y-186393328D02*
X189743740Y-186321900D01*
X189743740Y-186321900D02*
X189815168Y-186250471D01*
X189815168Y-186250471D02*
X189815168Y-186393328D01*
X190529454Y-186393328D02*
X190529454Y-184893328D01*
X190672312Y-185821900D02*
X191100883Y-186393328D01*
X191100883Y-185393328D02*
X190529454Y-185964757D01*
X191743740Y-186393328D02*
X191743740Y-185393328D01*
X191743740Y-184893328D02*
X191672312Y-184964757D01*
X191672312Y-184964757D02*
X191743740Y-185036185D01*
X191743740Y-185036185D02*
X191815169Y-184964757D01*
X191815169Y-184964757D02*
X191743740Y-184893328D01*
X191743740Y-184893328D02*
X191743740Y-185036185D01*
X193100884Y-186321900D02*
X192958026Y-186393328D01*
X192958026Y-186393328D02*
X192672312Y-186393328D01*
X192672312Y-186393328D02*
X192529455Y-186321900D01*
X192529455Y-186321900D02*
X192458026Y-186250471D01*
X192458026Y-186250471D02*
X192386598Y-186107614D01*
X192386598Y-186107614D02*
X192386598Y-185679042D01*
X192386598Y-185679042D02*
X192458026Y-185536185D01*
X192458026Y-185536185D02*
X192529455Y-185464757D01*
X192529455Y-185464757D02*
X192672312Y-185393328D01*
X192672312Y-185393328D02*
X192958026Y-185393328D01*
X192958026Y-185393328D02*
X193100884Y-185464757D01*
X194386598Y-186393328D02*
X194386598Y-185607614D01*
X194386598Y-185607614D02*
X194315169Y-185464757D01*
X194315169Y-185464757D02*
X194172312Y-185393328D01*
X194172312Y-185393328D02*
X193886598Y-185393328D01*
X193886598Y-185393328D02*
X193743740Y-185464757D01*
X194386598Y-186321900D02*
X194243740Y-186393328D01*
X194243740Y-186393328D02*
X193886598Y-186393328D01*
X193886598Y-186393328D02*
X193743740Y-186321900D01*
X193743740Y-186321900D02*
X193672312Y-186179042D01*
X193672312Y-186179042D02*
X193672312Y-186036185D01*
X193672312Y-186036185D02*
X193743740Y-185893328D01*
X193743740Y-185893328D02*
X193886598Y-185821900D01*
X193886598Y-185821900D02*
X194243740Y-185821900D01*
X194243740Y-185821900D02*
X194386598Y-185750471D01*
X195743741Y-186393328D02*
X195743741Y-184893328D01*
X195743741Y-186321900D02*
X195600883Y-186393328D01*
X195600883Y-186393328D02*
X195315169Y-186393328D01*
X195315169Y-186393328D02*
X195172312Y-186321900D01*
X195172312Y-186321900D02*
X195100883Y-186250471D01*
X195100883Y-186250471D02*
X195029455Y-186107614D01*
X195029455Y-186107614D02*
X195029455Y-185679042D01*
X195029455Y-185679042D02*
X195100883Y-185536185D01*
X195100883Y-185536185D02*
X195172312Y-185464757D01*
X195172312Y-185464757D02*
X195315169Y-185393328D01*
X195315169Y-185393328D02*
X195600883Y-185393328D01*
X195600883Y-185393328D02*
X195743741Y-185464757D01*
X196100884Y-186536185D02*
X197243741Y-186536185D01*
X197600883Y-185393328D02*
X197600883Y-186893328D01*
X197600883Y-185464757D02*
X197743741Y-185393328D01*
X197743741Y-185393328D02*
X198029455Y-185393328D01*
X198029455Y-185393328D02*
X198172312Y-185464757D01*
X198172312Y-185464757D02*
X198243741Y-185536185D01*
X198243741Y-185536185D02*
X198315169Y-185679042D01*
X198315169Y-185679042D02*
X198315169Y-186107614D01*
X198315169Y-186107614D02*
X198243741Y-186250471D01*
X198243741Y-186250471D02*
X198172312Y-186321900D01*
X198172312Y-186321900D02*
X198029455Y-186393328D01*
X198029455Y-186393328D02*
X197743741Y-186393328D01*
X197743741Y-186393328D02*
X197600883Y-186321900D01*
X199600884Y-186321900D02*
X199458026Y-186393328D01*
X199458026Y-186393328D02*
X199172312Y-186393328D01*
X199172312Y-186393328D02*
X199029455Y-186321900D01*
X199029455Y-186321900D02*
X198958026Y-186250471D01*
X198958026Y-186250471D02*
X198886598Y-186107614D01*
X198886598Y-186107614D02*
X198886598Y-185679042D01*
X198886598Y-185679042D02*
X198958026Y-185536185D01*
X198958026Y-185536185D02*
X199029455Y-185464757D01*
X199029455Y-185464757D02*
X199172312Y-185393328D01*
X199172312Y-185393328D02*
X199458026Y-185393328D01*
X199458026Y-185393328D02*
X199600884Y-185464757D01*
X200243740Y-186393328D02*
X200243740Y-184893328D01*
X200243740Y-185464757D02*
X200386598Y-185393328D01*
X200386598Y-185393328D02*
X200672312Y-185393328D01*
X200672312Y-185393328D02*
X200815169Y-185464757D01*
X200815169Y-185464757D02*
X200886598Y-185536185D01*
X200886598Y-185536185D02*
X200958026Y-185679042D01*
X200958026Y-185679042D02*
X200958026Y-186107614D01*
X200958026Y-186107614D02*
X200886598Y-186250471D01*
X200886598Y-186250471D02*
X200815169Y-186321900D01*
X200815169Y-186321900D02*
X200672312Y-186393328D01*
X200672312Y-186393328D02*
X200386598Y-186393328D01*
X200386598Y-186393328D02*
X200243740Y-186321900D01*
D10*
D11*
X177002200Y-181507200D02*
X285002200Y-181507200D01*
D10*
D11*
X178386598Y-183621900D02*
X178600884Y-183693328D01*
X178600884Y-183693328D02*
X178958026Y-183693328D01*
X178958026Y-183693328D02*
X179100884Y-183621900D01*
X179100884Y-183621900D02*
X179172312Y-183550471D01*
X179172312Y-183550471D02*
X179243741Y-183407614D01*
X179243741Y-183407614D02*
X179243741Y-183264757D01*
X179243741Y-183264757D02*
X179172312Y-183121900D01*
X179172312Y-183121900D02*
X179100884Y-183050471D01*
X179100884Y-183050471D02*
X178958026Y-182979042D01*
X178958026Y-182979042D02*
X178672312Y-182907614D01*
X178672312Y-182907614D02*
X178529455Y-182836185D01*
X178529455Y-182836185D02*
X178458026Y-182764757D01*
X178458026Y-182764757D02*
X178386598Y-182621900D01*
X178386598Y-182621900D02*
X178386598Y-182479042D01*
X178386598Y-182479042D02*
X178458026Y-182336185D01*
X178458026Y-182336185D02*
X178529455Y-182264757D01*
X178529455Y-182264757D02*
X178672312Y-182193328D01*
X178672312Y-182193328D02*
X179029455Y-182193328D01*
X179029455Y-182193328D02*
X179243741Y-182264757D01*
X179886597Y-183693328D02*
X179886597Y-182193328D01*
X180529455Y-183693328D02*
X180529455Y-182907614D01*
X180529455Y-182907614D02*
X180458026Y-182764757D01*
X180458026Y-182764757D02*
X180315169Y-182693328D01*
X180315169Y-182693328D02*
X180100883Y-182693328D01*
X180100883Y-182693328D02*
X179958026Y-182764757D01*
X179958026Y-182764757D02*
X179886597Y-182836185D01*
X181815169Y-183621900D02*
X181672312Y-183693328D01*
X181672312Y-183693328D02*
X181386598Y-183693328D01*
X181386598Y-183693328D02*
X181243740Y-183621900D01*
X181243740Y-183621900D02*
X181172312Y-183479042D01*
X181172312Y-183479042D02*
X181172312Y-182907614D01*
X181172312Y-182907614D02*
X181243740Y-182764757D01*
X181243740Y-182764757D02*
X181386598Y-182693328D01*
X181386598Y-182693328D02*
X181672312Y-182693328D01*
X181672312Y-182693328D02*
X181815169Y-182764757D01*
X181815169Y-182764757D02*
X181886598Y-182907614D01*
X181886598Y-182907614D02*
X181886598Y-183050471D01*
X181886598Y-183050471D02*
X181172312Y-183193328D01*
X183100883Y-183621900D02*
X182958026Y-183693328D01*
X182958026Y-183693328D02*
X182672312Y-183693328D01*
X182672312Y-183693328D02*
X182529454Y-183621900D01*
X182529454Y-183621900D02*
X182458026Y-183479042D01*
X182458026Y-183479042D02*
X182458026Y-182907614D01*
X182458026Y-182907614D02*
X182529454Y-182764757D01*
X182529454Y-182764757D02*
X182672312Y-182693328D01*
X182672312Y-182693328D02*
X182958026Y-182693328D01*
X182958026Y-182693328D02*
X183100883Y-182764757D01*
X183100883Y-182764757D02*
X183172312Y-182907614D01*
X183172312Y-182907614D02*
X183172312Y-183050471D01*
X183172312Y-183050471D02*
X182458026Y-183193328D01*
X183600883Y-182693328D02*
X184172311Y-182693328D01*
X183815168Y-182193328D02*
X183815168Y-183479042D01*
X183815168Y-183479042D02*
X183886597Y-183621900D01*
X183886597Y-183621900D02*
X184029454Y-183693328D01*
X184029454Y-183693328D02*
X184172311Y-183693328D01*
X184672311Y-183550471D02*
X184743740Y-183621900D01*
X184743740Y-183621900D02*
X184672311Y-183693328D01*
X184672311Y-183693328D02*
X184600883Y-183621900D01*
X184600883Y-183621900D02*
X184672311Y-183550471D01*
X184672311Y-183550471D02*
X184672311Y-183693328D01*
X184672311Y-182764757D02*
X184743740Y-182836185D01*
X184743740Y-182836185D02*
X184672311Y-182907614D01*
X184672311Y-182907614D02*
X184600883Y-182836185D01*
X184600883Y-182836185D02*
X184672311Y-182764757D01*
X184672311Y-182764757D02*
X184672311Y-182907614D01*
D10*
D11*
X197002200Y-191507200D02*
X197002200Y-194507200D01*
D10*
D11*
X261002200Y-191507200D02*
X261002200Y-198007200D01*
D14*
X1110002154Y349043196D02*
X1067002096Y349043165D01*
X1165550931Y349043511D02*
X1165550931Y349043499D01*
X1170035179Y369855305D02*
G75*
G02*
X1169997742Y371503952I-957979J802995D01*
G01*
X1171280024Y445462925D02*
X1171278973Y442293549D01*
X934292176Y472376158D02*
G75*
G02*
X932643570Y472338728I-802976J-958058D01*
G01*
X819834263Y452099237D02*
X821413513Y453364448D01*
X1115229627Y473622140D02*
X1118242699Y473622140D01*
X1169075962Y464560323D02*
X1169076013Y453421448D01*
X1067002096Y349043165D02*
X1062901373Y344031974D01*
X1120292137Y472376126D02*
X1120292656Y473222419D01*
X1170665599Y365155915D02*
X1169077184Y363908303D01*
X923989215Y349043192D02*
X880989136Y349043143D01*
X870242499Y473622173D02*
G75*
G02*
X870642673Y473222362I1J-400173D01*
G01*
X1170035179Y369855305D02*
X1170881445Y369854785D01*
X867228495Y473622173D02*
X870242499Y473622173D01*
X1118642659Y473219734D02*
X1118643512Y472338785D01*
X1120348615Y343939167D02*
X1120348615Y343939166D01*
X1114035585Y344107222D02*
X1110002154Y349043196D01*
X934292176Y472376158D02*
X934292695Y473222419D01*
X819242551Y447818147D02*
X819243603Y450992452D01*
X994242599Y473622141D02*
G75*
G02*
X994642641Y473222142I1J-400041D01*
G01*
X1169077184Y363908303D02*
X1169075962Y352568194D01*
X1118296100Y343539167D02*
X1115124106Y343540219D01*
X819242551Y442352314D02*
X819242552Y445368004D01*
X991124122Y343540203D02*
G75*
G02*
X990034249Y344108767I80878J1483897D01*
G01*
X872292176Y472376158D02*
X872292695Y473222419D01*
X1114089913Y473129373D02*
G75*
G02*
X1115229627Y473622149I1105587J-992673D01*
G01*
X937749401Y343539162D02*
X934735699Y343539162D01*
X938957576Y473051852D02*
X942989156Y468118143D01*
X1120292656Y473222419D02*
G75*
G02*
X1120692732Y473622144I399944J-219D01*
G01*
X819243603Y450992452D02*
G75*
G02*
X819834257Y452099245I1483997J-80952D01*
G01*
X1047989219Y468118143D02*
X1052089976Y473129375D01*
X1000955561Y473054259D02*
X1004989135Y468118111D01*
X1170879058Y371504783D02*
X1169997717Y371503929D01*
X1058292719Y473222319D02*
G75*
G02*
X1058696157Y473622167I400081J-219D01*
G01*
X1118242699Y473622140D02*
G75*
G02*
X1118642632Y473219734I1J-399940D01*
G01*
X1048002135Y349043197D02*
X1005002113Y349043148D01*
X1056242699Y473622141D02*
G75*
G02*
X1056642701Y473216330I-99J-400141D01*
G01*
X996292155Y472376126D02*
X996292674Y473222419D01*
X1062901373Y344031974D02*
G75*
G02*
X1061763390Y343539152I-1105273J991926D01*
G01*
X932686195Y344785177D02*
X932685676Y343938929D01*
X1115124106Y343540219D02*
G75*
G02*
X1114035604Y344107237I81094J1483981D01*
G01*
X1169076013Y439921448D02*
X1169077184Y377408303D01*
X1171281196Y369451417D02*
X1171280144Y366280300D01*
X819211053Y375008752D02*
G75*
G02*
X819825008Y376132888I1484147J-80852D01*
G01*
X1170880245Y445867930D02*
G75*
G02*
X1171280000Y445462925I-345J-400130D01*
G01*
X820456012Y371433946D02*
X819609753Y371434466D01*
X937867191Y473621120D02*
G75*
G02*
X938957571Y473051848I-80991J-1484020D01*
G01*
X1124955986Y473053717D02*
X1128989117Y468118110D01*
X999867227Y473621088D02*
G75*
G02*
X1000955526Y473054232I-81127J-1483888D01*
G01*
X1053124143Y343540220D02*
G75*
G02*
X1052033847Y344109306I80957J1484080D01*
G01*
X821413462Y352568666D02*
X821414013Y363880948D01*
X934335675Y343939163D02*
X934335676Y343939162D01*
X1109989156Y468118142D02*
X1114089913Y473129373D01*
X1120692732Y473622140D02*
X1123867264Y473621087D01*
X994699132Y344785164D02*
X994698613Y343938929D01*
X820488565Y447417493D02*
X819642303Y447418013D01*
X866089967Y473129425D02*
G75*
G02*
X867228495Y473622171I1105233J-992025D01*
G01*
X1118699134Y344785180D02*
X1118698615Y343938929D01*
X821414013Y377380947D02*
X821446564Y439864495D01*
X1058348596Y343938786D02*
X1058347740Y344822618D01*
X996692732Y473622099D02*
X996692732Y473622141D01*
X994642674Y473222141D02*
X994643530Y472338638D01*
X1171278973Y442293549D02*
G75*
G02*
X1170664966Y441169464I-1483973J80851D01*
G01*
X1056298466Y343539177D02*
X1056298466Y343539167D01*
X819611731Y369784468D02*
X820493413Y369785322D01*
X821413462Y464580972D02*
G75*
G02*
X824937314Y468106038I3525038J28D01*
G01*
X990089936Y473129380D02*
G75*
G02*
X991228091Y473622140I1105264J-992080D01*
G01*
X870283100Y343539146D02*
X867111127Y343540198D01*
X861989195Y468118175D02*
X866089967Y473129425D01*
X994699132Y344785164D02*
G75*
G02*
X996347758Y344822627I802968J958036D01*
G01*
X996748599Y343539150D02*
G75*
G02*
X996348580Y343944226I101J400150D01*
G01*
X819609753Y371434466D02*
G75*
G02*
X819209975Y371837136I247J400034D01*
G01*
X994298466Y343539150D02*
X991124122Y343540203D01*
X932242499Y473622173D02*
G75*
G02*
X932642673Y473222362I1J-400173D01*
G01*
X996348608Y343944226D02*
X996347757Y344822628D01*
X872292695Y473222419D02*
G75*
G02*
X872694832Y473622199I400005J-219D01*
G01*
X880989156Y468118143D02*
X923989195Y468118175D01*
X1118699134Y344785180D02*
G75*
G02*
X1120347760Y344822648I802966J958020D01*
G01*
X1053230442Y473622141D02*
X1056242699Y473622141D01*
X1165550931Y349043499D02*
X1129002115Y349043164D01*
X1123867264Y473621087D02*
G75*
G02*
X1124955952Y473053690I-81164J-1483887D01*
G01*
X821413466Y352568666D02*
X821413462Y352568666D01*
X819210001Y371837136D02*
X819211053Y375008752D01*
X1052089976Y473129375D02*
G75*
G02*
X1053230442Y473622128I1105624J-992775D01*
G01*
X1118698615Y343938929D02*
G75*
G02*
X1118296100Y343539193I-400015J271D01*
G01*
X1128989117Y468118110D02*
X1165552067Y468105997D01*
X934735699Y343539162D02*
G75*
G02*
X934335662Y343939163I1J400038D01*
G01*
X875867191Y473621120D02*
G75*
G02*
X876957571Y473051848I-80991J-1484020D01*
G01*
X929111056Y343540215D02*
G75*
G02*
X928023382Y344106306I80944J1483485D01*
G01*
X1005002113Y349043148D02*
X1000901383Y344031950D01*
X934292695Y473222419D02*
G75*
G02*
X934694832Y473622199I400005J-219D01*
G01*
X820456012Y371433946D02*
G75*
G02*
X820493371Y369785284I957988J-803046D01*
G01*
X1066989180Y468118111D02*
X1109989156Y468118142D01*
X876957576Y473051852D02*
X880989156Y468118143D01*
X820488565Y447417493D02*
G75*
G02*
X820525978Y445768873I958035J-802993D01*
G01*
X872292176Y472376158D02*
G75*
G02*
X870643570Y472338728I-802976J-958058D01*
G01*
X1058696157Y473622140D02*
X1061867359Y473621088D01*
X929228495Y473622173D02*
X932242499Y473622173D01*
X870685636Y343938929D02*
G75*
G02*
X870283100Y343539172I-400036J271D01*
G01*
X872694832Y473622173D02*
X875867191Y473621120D01*
X994642674Y473222142D02*
X994642674Y473222141D01*
X994298466Y343539160D02*
X994298466Y343539150D01*
X1123764313Y343539166D02*
X1120748899Y343539166D01*
X932686195Y344785177D02*
G75*
G02*
X934334820Y344822578I803005J957923D01*
G01*
X819642303Y447418013D02*
G75*
G02*
X819242613Y447818147I297J399987D01*
G01*
X1056698596Y343938929D02*
G75*
G02*
X1056298466Y343539204I-399996J271D01*
G01*
X1171280025Y447917974D02*
G75*
G02*
X1170880025Y447517975I-400025J26D01*
G01*
X1124901405Y344031989D02*
G75*
G02*
X1123764314Y343539195I-1105205J991911D01*
G01*
X1120348615Y343939166D02*
X1120347759Y344822650D01*
X1169077184Y377408303D02*
X1170788411Y376057544D01*
X1170034009Y445868450D02*
X1170880245Y445867930D01*
X819242552Y445368004D02*
G75*
G02*
X819642171Y445768048I400048J-4D01*
G01*
X866020834Y344109370D02*
X861989175Y349043175D01*
X819735414Y441215193D02*
G75*
G02*
X819242601Y442352313I992086J1105307D01*
G01*
X1004989135Y468118111D02*
X1047989219Y468118143D01*
X934694832Y473622173D02*
X937867191Y473621120D01*
X819210001Y369384544D02*
G75*
G02*
X819611731Y369784395I399899J-44D01*
G01*
X928089967Y473129425D02*
G75*
G02*
X929228495Y473622171I1105233J-992025D01*
G01*
X1169075962Y352568194D02*
G75*
G02*
X1165550931Y349043538I-3525062J406D01*
G01*
X821446564Y439864495D02*
X819735414Y441215193D01*
X999760728Y343539150D02*
X996748599Y343539150D01*
X996292155Y472376126D02*
G75*
G02*
X994643531Y472338637I-802955J-957926D01*
G01*
X1129002115Y349043164D02*
X1124901405Y344031989D01*
X1056298466Y343539167D02*
X1053124143Y343540220D01*
X923989195Y468118175D02*
X928089967Y473129425D01*
X1165552067Y468105997D02*
G75*
G02*
X1169075938Y464560323I-1267J-3525197D01*
G01*
X1171280026Y450931974D02*
X1171280025Y447917974D01*
X1056642725Y473216330D02*
X1056643575Y472338720D01*
X1062956906Y473052668D02*
X1066989180Y468118111D01*
X824938428Y349043501D02*
G75*
G02*
X821413401Y352568666I-28J3524999D01*
G01*
X1170664957Y441169476D02*
X1169076013Y439921448D01*
X932278255Y343539164D02*
X929111056Y343540215D01*
X824937314Y468105999D02*
X861989195Y468118175D01*
X821413513Y453364448D02*
X821413462Y464580972D01*
X1120748899Y343539166D02*
G75*
G02*
X1120348666Y343939167I101J400334D01*
G01*
X1058292200Y472376127D02*
G75*
G02*
X1056643577Y472338718I-803000J-957927D01*
G01*
X861989175Y349043175D02*
X824938428Y349043501D01*
X870686155Y344785161D02*
X870685636Y343938929D01*
X872735699Y343539145D02*
G75*
G02*
X872335601Y343946097I101J400255D01*
G01*
X1056699115Y344785182D02*
X1056698596Y343938929D01*
X1061867359Y473621088D02*
G75*
G02*
X1062956873Y473052642I-81159J-1483888D01*
G01*
X819825015Y376132879D02*
X821414013Y377380947D01*
X942989156Y468118143D02*
X985989174Y468118143D01*
X819642171Y445768013D02*
X820525975Y445768870D01*
X821414013Y363880948D02*
X819702702Y365231774D01*
X1171281197Y374919451D02*
X1171281196Y371904774D01*
X1171280144Y366280300D02*
G75*
G02*
X1170665592Y365155924I-1484044J81000D01*
G01*
X994698613Y343938929D02*
G75*
G02*
X994298466Y343539187I-400013J271D01*
G01*
X991228091Y473622141D02*
X994242599Y473622141D01*
X1171281196Y371904774D02*
G75*
G02*
X1170879058Y371504810I-399996J26D01*
G01*
X1170034009Y445868450D02*
G75*
G02*
X1169996672Y447517097I-958009J803050D01*
G01*
X1170787228Y452070699D02*
G75*
G02*
X1171280007Y450931974I-992528J-1105499D01*
G01*
X1052033857Y344109314D02*
X1048002135Y349043197D01*
X876888434Y344031978D02*
G75*
G02*
X875749036Y343539153I-1105534J992422D01*
G01*
X996692732Y473622141D02*
X999867227Y473621088D01*
X1058292200Y472376127D02*
X1058292719Y473222319D01*
X1120292137Y472376126D02*
G75*
G02*
X1118643513Y472338783I-803037J-957926D01*
G01*
X990034285Y344108795D02*
X986002152Y349043180D01*
X819210000Y366370000D02*
X819210001Y369384544D01*
X870686155Y344785161D02*
G75*
G02*
X872334815Y344822522I803045J957939D01*
G01*
X1061763390Y343539167D02*
X1058748599Y343539167D01*
X986002152Y349043180D02*
X942989176Y349043160D01*
X1000901383Y344031950D02*
G75*
G02*
X999760727Y343539115I-1105683J992650D01*
G01*
X932685676Y343938929D02*
G75*
G02*
X932278255Y343539189I-400176J371D01*
G01*
X1170881445Y369854785D02*
G75*
G02*
X1171281171Y369451417I-245J-399985D01*
G01*
X928023388Y344106311D02*
X923989215Y349043192D01*
X932642695Y473222362D02*
X932643551Y472338748D01*
X1170880025Y447517931D02*
X1170880026Y447517930D01*
X819702702Y365231774D02*
G75*
G02*
X819210012Y366370000I992198J1105226D01*
G01*
X875749036Y343539144D02*
X872735699Y343539145D01*
X938888470Y344031992D02*
G75*
G02*
X937749401Y343539170I-1105470J992308D01*
G01*
X1170880026Y447517930D02*
X1169996647Y447517074D01*
X867111127Y343540198D02*
G75*
G02*
X866020853Y344109385I80973J1483902D01*
G01*
X1120692732Y473622117D02*
X1120692732Y473622140D01*
X1058748599Y343539167D02*
G75*
G02*
X1058348567Y343938786I1J400033D01*
G01*
X1170788411Y376057544D02*
G75*
G02*
X1171281244Y374919450I-992511J-1105544D01*
G01*
X1056699115Y344785182D02*
G75*
G02*
X1058347741Y344822616I802985J958018D01*
G01*
X1169076013Y453421448D02*
X1170787228Y452070699D01*
X985989174Y468118143D02*
X990089936Y473129380D01*
X934335676Y343939162D02*
X934334820Y344822578D01*
X872335629Y343946097D02*
X872334780Y344822560D01*
X996292674Y473222419D02*
G75*
G02*
X996692732Y473622126I399826J-119D01*
G01*
X880989136Y349043143D02*
X876888434Y344031978D01*
X942989176Y349043160D02*
X938888470Y344031992D01*
X870642695Y473222362D02*
X870643551Y472338748D01*
M02*
