M48
; DRILL file {KiCad 8.99.0-2193-g88272a59b7} date 2024-09-27T03:09:15+0700
; FORMAT={-:-/ absolute / inch / decimal}
; #@! TF.CreationDate,2024-09-27T03:09:15+07:00
; #@! TF.GenerationSoftware,Kicad,Pcbnew,8.99.0-2193-g88272a59b7
; #@! TF.FileFunction,NonPlated,1,2,NPTH
FMAT,2
INCH
; #@! TA.AperFunction,NonPlated,NPTH,ComponentDrill
T1C0.0669
; #@! TA.AperFunction,NonPlated,NPTH,ComponentDrill
T2C0.1200
; #@! TA.AperFunction,NonPlated,NPTH,ComponentDrill
T3C0.1570
; #@! TA.AperFunction,NonPlated,NPTH,ComponentDrill
T4C0.1575
%
G90
G05
T1
X32.5184Y18.0568
X32.5184Y17.1193
X32.6121Y15.6193
X32.7059Y16.3693
X32.7059Y14.1193
X32.7996Y15.6193
X32.9184Y18.0568
X32.9184Y17.1193
X32.99Y14.8693
X33.0121Y15.6193
X33.1059Y16.3693
X33.1059Y14.1193
X33.1996Y15.6193
X33.2684Y17.1193
X33.39Y14.8693
X33.4559Y18.0568
X33.6434Y16.3693
X33.6434Y14.1193
X33.6684Y17.1193
X33.8309Y15.6193
X33.8559Y18.0568
X34.0184Y17.1193
X34.0434Y16.3693
X34.0434Y14.1193
X34.2059Y18.0568
X34.2059Y14.8693
X34.2309Y15.6193
X34.3934Y16.3693
X34.4184Y17.1193
X34.5809Y15.6193
X34.5809Y14.1193
X34.6059Y18.0568
X34.6059Y14.8693
X34.7684Y17.1193
X34.7934Y16.3693
X34.9559Y18.0568
X34.9559Y14.8693
X34.9809Y15.6193
X34.9809Y14.1193
X35.1434Y16.3693
X35.1684Y17.1193
X35.3309Y15.6193
X35.3559Y18.0568
X35.3559Y14.8693
X35.5184Y17.1193
X35.5434Y16.3693
X35.7059Y18.0568
X35.7059Y14.8693
X35.7309Y15.6193
X35.8934Y16.3693
X35.9184Y17.1193
X36.0809Y15.6193
X36.1059Y18.0568
X36.1059Y14.8693
X36.2684Y17.1193
X36.2934Y16.3693
X36.4559Y14.8693
X36.4809Y15.6193
X36.6434Y18.0568
X36.6434Y16.3693
X36.6684Y17.1193
X36.8309Y15.6193
X36.8559Y14.8693
X37.0184Y17.1193
X37.0434Y18.0568
X37.0434Y16.3693
X37.2059Y14.8693
X37.2309Y15.6193
X37.3934Y18.0568
X37.3934Y16.3693
X37.4184Y17.1193
X37.5809Y15.6193
X37.6059Y14.8693
X37.7684Y17.1193
X37.7684Y14.1196
X37.7934Y18.0568
X37.7934Y16.3693
X37.9559Y14.8693
X37.9809Y15.6193
X38.1434Y18.0568
X38.1434Y16.3693
X38.1684Y17.1193
X38.1684Y14.1196
X38.3309Y15.6193
X38.3559Y14.8693
X38.5184Y17.1193
X38.5434Y18.0568
X38.5434Y16.3693
X38.7059Y14.8693
X38.7309Y15.6193
X38.8934Y18.0568
X38.8934Y16.3693
X38.9184Y17.1193
X39.0809Y15.6193
X39.1059Y14.8693
X39.2684Y17.1193
X39.2934Y18.0568
X39.2934Y16.3693
X39.4559Y14.8693
X39.4809Y15.6193
X39.6434Y16.3693
X39.6684Y17.1193
X39.8309Y18.0568
X39.8309Y15.6193
X39.8559Y14.8693
X40.0184Y17.1193
X40.0434Y16.3693
X40.2059Y14.8693
X40.2309Y18.0568
X40.2309Y15.6193
X40.3934Y16.3693
X40.4184Y17.1193
X40.5809Y18.0568
X40.5809Y15.6193
X40.6059Y14.8693
X40.7684Y17.1193
X40.7934Y16.3693
X40.9559Y14.8693
X40.9559Y14.1193
X40.9809Y18.0568
X40.9809Y15.6193
X41.1434Y16.3693
X41.1684Y17.1193
X41.3309Y18.0568
X41.3309Y15.6193
X41.3559Y14.8693
X41.3559Y14.1193
X41.5184Y17.1193
X41.5434Y16.3693
X41.7309Y18.0568
X41.7309Y15.6193
X41.8934Y16.3693
X41.8934Y14.1193
X41.9184Y17.1193
X41.9871Y14.8693
X42.0809Y18.0568
X42.2684Y17.1193
X42.2934Y16.3693
X42.2934Y14.1193
X42.3621Y14.8693
X42.3871Y14.8693
X42.4809Y18.0568
X42.5525Y15.6193
X42.6434Y17.1193
X42.6684Y17.1193
X42.7621Y14.8693
X42.8309Y16.3693
X42.8309Y14.1193
X42.9525Y15.6193
X43.0184Y18.0568
X43.0184Y17.1193
X43.0184Y14.8693
X43.0434Y17.1193
X43.2309Y16.3693
X43.2309Y14.1193
X43.4184Y18.0568
X43.4184Y17.1193
X43.4184Y14.8693
X43.9559Y18.0568
X43.9559Y17.1193
X43.9559Y16.3693
X43.9559Y14.1193
X44.3559Y18.0568
X44.3559Y17.1193
X44.3559Y16.3693
X44.3559Y14.1193
X44.7059Y18.0568
X44.7059Y17.1193
X44.7059Y16.3693
X44.7059Y14.8693
X44.7059Y14.1193
X45.1059Y18.0568
X45.1059Y17.1193
X45.1059Y16.3693
X45.1059Y14.8693
X45.1059Y14.1193
X45.4559Y18.0568
X45.4559Y17.1193
X45.4559Y16.3693
X45.4559Y14.1193
X45.8559Y18.0568
X45.8559Y17.1193
X45.8559Y16.3693
X45.8559Y14.1193
T2
X32.72Y15.1443
X33.66Y15.1443
X35.7184Y13.8446
X40.2184Y13.8446
X42.0921Y15.1443
X42.2825Y15.3443
X42.3734Y17.3943
X43.0321Y15.1443
X43.2225Y15.3443
X43.3134Y17.3943
T3
X32.72Y14.5443
X33.66Y14.5443
X35.7184Y14.4446
X40.2184Y14.4446
X42.0921Y14.5443
X42.2825Y15.9443
X42.3734Y16.7943
X43.0321Y14.5443
X43.2225Y15.9443
X43.3134Y16.7943
T4
X32.7184Y18.0568
X32.7184Y17.1193
X32.8121Y15.6193
X32.9059Y16.3693
X32.9059Y14.1193
X32.9996Y15.6193
X33.19Y14.8693
X33.4684Y17.1193
X33.6559Y18.0568
X33.8434Y16.3693
X33.8434Y14.1193
X34.0309Y15.6193
X34.2184Y17.1193
X34.4059Y18.0568
X34.4059Y14.8693
X34.5934Y16.3693
X34.7809Y15.6193
X34.7809Y14.1193
X34.9684Y17.1193
X35.1559Y18.0568
X35.1559Y14.8693
X35.3434Y16.3693
X35.5309Y15.6193
X35.7184Y17.1193
X35.9059Y18.0568
X35.9059Y14.8693
X36.0934Y16.3693
X36.2809Y15.6193
X36.4684Y17.1193
X36.6559Y14.8693
X36.8434Y18.0568
X36.8434Y16.3693
X37.0309Y15.6193
X37.2184Y17.1193
X37.4059Y14.8693
X37.5934Y18.0568
X37.5934Y16.3693
X37.7809Y15.6193
X37.9684Y17.1193
X37.9684Y14.1196
X38.1559Y14.8693
X38.3434Y18.0568
X38.3434Y16.3693
X38.5309Y15.6193
X38.7184Y17.1193
X38.9059Y14.8693
X39.0934Y18.0568
X39.0934Y16.3693
X39.2809Y15.6193
X39.4684Y17.1193
X39.6559Y14.8693
X39.8434Y16.3693
X40.0309Y18.0568
X40.0309Y15.6193
X40.2184Y17.1193
X40.4059Y14.8693
X40.5934Y16.3693
X40.7809Y18.0568
X40.7809Y15.6193
X40.9684Y17.1193
X41.1559Y14.8693
X41.1559Y14.1193
X41.3434Y16.3693
X41.5309Y18.0568
X41.5309Y15.6193
X41.7184Y17.1193
X42.0934Y16.3693
X42.0934Y14.1193
X42.1871Y14.8693
X42.2809Y18.0568
X42.4684Y17.1193
X42.5621Y14.8693
X42.7525Y15.6193
X42.8434Y17.1193
X43.0309Y16.3693
X43.0309Y14.1193
X43.2184Y18.0568
X43.2184Y17.1193
X43.2184Y14.8693
X44.1559Y18.0568
X44.1559Y17.1193
X44.1559Y16.3693
X44.1559Y14.1193
X44.9059Y18.0568
X44.9059Y17.1193
X44.9059Y16.3693
X44.9059Y14.8693
X44.9059Y14.1193
X45.6559Y18.0568
X45.6559Y17.1193
X45.6559Y16.3693
X45.6559Y14.1193
M30
