%TF.GenerationSoftware,KiCad,Pcbnew,8.99.0-2193-g88272a59b7*%
%TF.CreationDate,2024-09-27T03:09:15+07:00*%
%TF.ProjectId,qk80,716b3830-2e6b-4696-9361-645f70636258,rev?*%
%TF.SameCoordinates,Original*%
%TF.FileFunction,Drillmap*%
%TF.FilePolarity,Positive*%
%FSLAX45Y45*%
G04 Gerber Fmt 4.5, Leading zero omitted, Abs format (unit mm)*
G04 Created by KiCad (PCBNEW 8.99.0-2193-g88272a59b7) date 2024-09-27 03:09:15*
%MOMM*%
%LPD*%
G01*
G04 APERTURE LIST*
%ADD10C,0.500000*%
%ADD11C,0.200000*%
%ADD12C,0.100000*%
%ADD13C,0.170000*%
G04 APERTURE END LIST*
D10*
X111000215Y34904320D02*
X106700210Y34904317D01*
X116555093Y34904351D02*
X116555093Y34904350D01*
X117003518Y36985531D02*
G75*
G02*
X116999774Y37150395I-95798J80300D01*
G01*
X117128002Y44546293D02*
X117127897Y44229355D01*
X93429218Y47237616D02*
G75*
G02*
X93264357Y47233873I-80298J-95806D01*
G01*
X81983426Y45209924D02*
X82141351Y45336445D01*
X111522963Y47362214D02*
X111824270Y47362214D01*
X116907596Y46456032D02*
X116907601Y45342145D01*
X106700210Y34904317D02*
X106290137Y34403197D01*
X112029214Y47237613D02*
X112029266Y47322242D01*
X117066560Y36515592D02*
X116907718Y36390830D01*
X92398921Y34904319D02*
X88098914Y34904314D01*
X87024250Y47362217D02*
G75*
G02*
X87064267Y47322236I0J-40017D01*
G01*
X117003518Y36985531D02*
X117088144Y36985479D01*
X86722850Y47362217D02*
X87024250Y47362217D01*
X111864266Y47321973D02*
X111864351Y47233878D01*
X112034861Y34393917D02*
X112034861Y34393917D01*
X111403558Y34410722D02*
X111000215Y34904320D01*
X93429218Y47237616D02*
X93429269Y47322242D01*
X81924255Y44781815D02*
X81924360Y45099245D01*
X99424260Y47362214D02*
G75*
G02*
X99464264Y47322214I0J-40004D01*
G01*
X116907718Y36390830D02*
X116907596Y35256819D01*
X111829610Y34353917D02*
X111512411Y34354022D01*
X81924255Y44235231D02*
X81924255Y44536800D01*
X99112412Y34354020D02*
G75*
G02*
X99003425Y34410877I8088J148390D01*
G01*
X87229218Y47237616D02*
X87229270Y47322242D01*
X111408991Y47312937D02*
G75*
G02*
X111522963Y47362215I110559J-99267D01*
G01*
X93774940Y34353916D02*
X93473570Y34353916D01*
X93895758Y47305185D02*
X94298916Y46811814D01*
X112029266Y47322242D02*
G75*
G02*
X112069273Y47362214I39994J-22D01*
G01*
X81924360Y45099245D02*
G75*
G02*
X81983426Y45209924I148400J-8095D01*
G01*
X104798922Y46811814D02*
X105208998Y47312937D01*
X100095556Y47305426D02*
X100498913Y46811811D01*
X117087906Y37150478D02*
X116999772Y37150393D01*
X105829272Y47322232D02*
G75*
G02*
X105869616Y47362217I40008J-22D01*
G01*
X111824270Y47362214D02*
G75*
G02*
X111864263Y47321973I0J-39994D01*
G01*
X104800213Y34904320D02*
X100500211Y34904315D01*
X105624270Y47362214D02*
G75*
G02*
X105664270Y47321633I-10J-40014D01*
G01*
X99629215Y47237613D02*
X99629267Y47322242D01*
X106290137Y34403197D02*
G75*
G02*
X106176339Y34353915I-110527J99193D01*
G01*
X93268619Y34478518D02*
X93268568Y34393893D01*
X111512411Y34354022D02*
G75*
G02*
X111403560Y34410724I8109J148398D01*
G01*
X116907601Y43992145D02*
X116907718Y37740830D01*
X117128120Y36945142D02*
X117128014Y36628030D01*
X81921105Y37500875D02*
G75*
G02*
X81982501Y37613289I148415J-8085D01*
G01*
X117088024Y44586793D02*
G75*
G02*
X117128000Y44546293I-35J-40013D01*
G01*
X82045601Y37143395D02*
X81960975Y37143447D01*
X93786719Y47362112D02*
G75*
G02*
X93895757Y47305185I-8099J-148402D01*
G01*
X112495599Y47305372D02*
X112898912Y46811811D01*
X99986723Y47362109D02*
G75*
G02*
X100095553Y47305423I-8113J-148389D01*
G01*
X105312414Y34354022D02*
G75*
G02*
X105203385Y34410931I8096J148408D01*
G01*
X82141346Y35256867D02*
X82141401Y36388095D01*
X93433567Y34393916D02*
X93433568Y34393916D01*
X110998916Y46811814D02*
X111408991Y47312937D01*
X112069273Y47362214D02*
X112386726Y47362109D01*
X99469913Y34478516D02*
X99469861Y34393893D01*
X82048857Y44741749D02*
X81964230Y44741801D01*
X86608997Y47312942D02*
G75*
G02*
X86722850Y47362217I110523J-99203D01*
G01*
X111869913Y34478518D02*
X111869861Y34393893D01*
X82141401Y37738095D02*
X82144656Y43986450D01*
X105834860Y34393879D02*
X105834774Y34482262D01*
X99669273Y47362210D02*
X99669273Y47362214D01*
X99464267Y47322214D02*
X99464353Y47233864D01*
X117127897Y44229355D02*
G75*
G02*
X117066497Y44116946I-148397J8085D01*
G01*
X105629847Y34353918D02*
X105629847Y34353917D01*
X81961173Y36978447D02*
X82049341Y36978532D01*
X82141346Y46458097D02*
G75*
G02*
X82493731Y46810604I352504J3D01*
G01*
X99008994Y47312938D02*
G75*
G02*
X99122809Y47362214I110526J-99208D01*
G01*
X87028310Y34353915D02*
X86711113Y34354020D01*
X86198920Y46811817D02*
X86608997Y47312942D01*
X99469913Y34478516D02*
G75*
G02*
X99634776Y34482263I80297J95804D01*
G01*
X99674860Y34353915D02*
G75*
G02*
X99634858Y34394423I10J40015D01*
G01*
X81960975Y37143447D02*
G75*
G02*
X81920998Y37183714I25J40003D01*
G01*
X99429847Y34353915D02*
X99112412Y34354020D01*
X93224250Y47362217D02*
G75*
G02*
X93264267Y47322236I0J-40017D01*
G01*
X99634861Y34394423D02*
X99634776Y34482263D01*
X87229270Y47322242D02*
G75*
G02*
X87269483Y47362220I40001J-22D01*
G01*
X88098916Y46811814D02*
X92398919Y46811817D01*
X111869913Y34478518D02*
G75*
G02*
X112034776Y34482265I80297J95802D01*
G01*
X105323044Y47362214D02*
X105624270Y47362214D01*
X116555093Y34904350D02*
X112900211Y34904316D01*
X112386726Y47362109D02*
G75*
G02*
X112495595Y47305369I-8116J-148389D01*
G01*
X82141347Y35256867D02*
X82141346Y35256867D01*
X81921000Y37183714D02*
X81921105Y37500875D01*
X105208998Y47312937D02*
G75*
G02*
X105323044Y47362213I110562J-99278D01*
G01*
X111869861Y34393893D02*
G75*
G02*
X111829610Y34353919I-40002J27D01*
G01*
X112898912Y46811811D02*
X116555207Y46810600D01*
X93473570Y34353916D02*
G75*
G02*
X93433566Y34393916I0J40004D01*
G01*
X87586719Y47362112D02*
G75*
G02*
X87695757Y47305185I-8099J-148402D01*
G01*
X92911106Y34354022D02*
G75*
G02*
X92802338Y34410631I8094J148349D01*
G01*
X100500211Y34904315D02*
X100090138Y34403195D01*
X93429269Y47322242D02*
G75*
G02*
X93469483Y47362220I40001J-22D01*
G01*
X82045601Y37143395D02*
G75*
G02*
X82049337Y36978528I95799J-80305D01*
G01*
X106698918Y46811811D02*
X110998916Y46811814D01*
X87695758Y47305185D02*
X88098916Y46811814D01*
X82048857Y44741749D02*
G75*
G02*
X82052598Y44576887I95804J-80299D01*
G01*
X87229218Y47237616D02*
G75*
G02*
X87064357Y47233873I-80298J-95806D01*
G01*
X105869616Y47362214D02*
X106186736Y47362109D01*
X92922849Y47362217D02*
X93224250Y47362217D01*
X87068564Y34393893D02*
G75*
G02*
X87028310Y34353917I-40004J27D01*
G01*
X87269483Y47362217D02*
X87586719Y47362112D01*
X99464267Y47322214D02*
X99464267Y47322214D01*
X99429847Y34353916D02*
X99429847Y34353915D01*
X112376431Y34353917D02*
X112074890Y34353917D01*
X93268619Y34478518D02*
G75*
G02*
X93433482Y34482258I80301J95792D01*
G01*
X81964230Y44741801D02*
G75*
G02*
X81924261Y44781815I30J39999D01*
G01*
X105669860Y34393893D02*
G75*
G02*
X105629847Y34353920I-40000J27D01*
G01*
X117128002Y44791797D02*
G75*
G02*
X117088002Y44751797I-40003J3D01*
G01*
X112490140Y34403199D02*
G75*
G02*
X112376431Y34353920I-110521J99191D01*
G01*
X112034861Y34393917D02*
X112034776Y34482265D01*
X116907718Y37740830D02*
X117078841Y37605754D01*
X117003401Y44586845D02*
X117088024Y44586793D01*
X81924255Y44536800D02*
G75*
G02*
X81964217Y44576805I40005J0D01*
G01*
X86602083Y34410937D02*
X86198918Y34904318D01*
X81973541Y44121519D02*
G75*
G02*
X81924260Y44235231I99209J110531D01*
G01*
X100498913Y46811811D02*
X104798922Y46811814D01*
X93469483Y47362217D02*
X93786719Y47362112D01*
X81921000Y36938454D02*
G75*
G02*
X81961173Y36978440I39990J-4D01*
G01*
X92808997Y47312942D02*
G75*
G02*
X92922849Y47362217I110523J-99203D01*
G01*
X116907596Y35256819D02*
G75*
G02*
X116555093Y34904354I-352506J41D01*
G01*
X82144656Y43986450D02*
X81973541Y44121519D01*
X99976073Y34353915D02*
X99674860Y34353915D01*
X99629215Y47237613D02*
G75*
G02*
X99464353Y47233864I-80296J-95793D01*
G01*
X112900211Y34904316D02*
X112490140Y34403199D01*
X105629847Y34353917D02*
X105312414Y34354022D01*
X92398919Y46811817D02*
X92808997Y47312942D01*
X116555207Y46810600D02*
G75*
G02*
X116907594Y46456032I-127J-352520D01*
G01*
X117128003Y45093197D02*
X117128002Y44791797D01*
X105664272Y47321633D02*
X105664357Y47233872D01*
X106295691Y47305267D02*
X106698918Y46811811D01*
X82493843Y34904350D02*
G75*
G02*
X82141340Y35256867I-3J352500D01*
G01*
X117066496Y44116948D02*
X116907601Y43992145D01*
X93227825Y34353916D02*
X92911106Y34354022D01*
X82493731Y46810600D02*
X86198920Y46811817D01*
X82141351Y45336445D02*
X82141346Y46458097D01*
X112074890Y34353917D02*
G75*
G02*
X112034867Y34393917I10J40033D01*
G01*
X105829220Y47237613D02*
G75*
G02*
X105664358Y47233872I-80300J-95793D01*
G01*
X86198918Y34904318D02*
X82493843Y34904350D01*
X87068616Y34478516D02*
X87068564Y34393893D01*
X87273570Y34353915D02*
G75*
G02*
X87233560Y34394610I10J40026D01*
G01*
X105669911Y34478518D02*
X105669860Y34393893D01*
X106186736Y47362109D02*
G75*
G02*
X106295687Y47305264I-8116J-148389D01*
G01*
X81982502Y37613288D02*
X82141401Y37738095D01*
X94298916Y46811814D02*
X98598917Y46811814D01*
X81964217Y44576801D02*
X82052598Y44576887D01*
X82141401Y36388095D02*
X81970270Y36523177D01*
X117128120Y37491945D02*
X117128120Y37190477D01*
X117128014Y36628030D02*
G75*
G02*
X117066559Y36515592I-148404J8100D01*
G01*
X99469861Y34393893D02*
G75*
G02*
X99429847Y34353919I-40001J27D01*
G01*
X99122809Y47362214D02*
X99424260Y47362214D01*
X117128120Y37190477D02*
G75*
G02*
X117087906Y37150481I-40000J3D01*
G01*
X117003401Y44586845D02*
G75*
G02*
X116999667Y44751710I-95801J80305D01*
G01*
X117078723Y45207070D02*
G75*
G02*
X117128001Y45093197I-99253J-110550D01*
G01*
X105203386Y34410931D02*
X104800213Y34904320D01*
X87688843Y34403198D02*
G75*
G02*
X87574904Y34353915I-110553J99242D01*
G01*
X99669273Y47362214D02*
X99986723Y47362109D01*
X105829220Y47237613D02*
X105829272Y47322232D01*
X112029214Y47237613D02*
G75*
G02*
X111864351Y47233878I-80304J-95793D01*
G01*
X99003428Y34410880D02*
X98600215Y34904318D01*
X81921000Y36637000D02*
X81921000Y36938454D01*
X87068616Y34478516D02*
G75*
G02*
X87233482Y34482252I80305J95794D01*
G01*
X106176339Y34353917D02*
X105874860Y34353917D01*
X98600215Y34904318D02*
X94298918Y34904316D01*
X100090138Y34403195D02*
G75*
G02*
X99976073Y34353912I-110568J99265D01*
G01*
X93268568Y34393893D02*
G75*
G02*
X93227825Y34353919I-40018J37D01*
G01*
X117088144Y36985479D02*
G75*
G02*
X117128117Y36945142I-25J-39999D01*
G01*
X92802339Y34410631D02*
X92398921Y34904319D01*
X93264269Y47322236D02*
X93264355Y47233875D01*
X117088002Y44751793D02*
X117088003Y44751793D01*
X81970270Y36523177D02*
G75*
G02*
X81921001Y36637000I99220J110523D01*
G01*
X87574904Y34353914D02*
X87273570Y34353915D01*
X93888847Y34403199D02*
G75*
G02*
X93774940Y34353917I-110547J99231D01*
G01*
X117088003Y44751793D02*
X116999665Y44751707D01*
X86711113Y34354020D02*
G75*
G02*
X86602085Y34410939I8097J148390D01*
G01*
X112069273Y47362212D02*
X112069273Y47362214D01*
X105874860Y34353917D02*
G75*
G02*
X105834857Y34393879I0J40003D01*
G01*
X117078841Y37605754D02*
G75*
G02*
X117128124Y37491945I-99251J-110554D01*
G01*
X105669911Y34478518D02*
G75*
G02*
X105834774Y34482262I80299J95802D01*
G01*
X116907601Y45342145D02*
X117078723Y45207070D01*
X98598917Y46811814D02*
X99008994Y47312938D01*
X93433568Y34393916D02*
X93433482Y34482258D01*
X87233563Y34394610D02*
X87233478Y34482256D01*
X99629267Y47322242D02*
G75*
G02*
X99669273Y47362213I39983J-12D01*
G01*
X88098914Y34904314D02*
X87688843Y34403198D01*
X94298918Y34904316D02*
X93888847Y34403199D01*
X87064270Y47322236D02*
X87064355Y47233875D01*
D11*
D12*
X83819951Y40991000D02*
X83849951Y40961000D01*
X83849951Y40991000D02*
X83819951Y40961000D01*
X86201151Y40914000D02*
X86231151Y40884000D01*
X86231151Y40914000D02*
X86201151Y40884000D01*
X88106151Y40882000D02*
X88136151Y40852000D01*
X88136151Y40882000D02*
X88106151Y40852000D01*
X90011151Y40843000D02*
X90041151Y40813000D01*
X90041151Y40843000D02*
X90011151Y40813000D01*
X91916151Y40803000D02*
X91946151Y40773000D01*
X91946151Y40803000D02*
X91916151Y40773000D01*
X93821151Y40763000D02*
X93851151Y40733000D01*
X93851151Y40763000D02*
X93821151Y40733000D01*
X97154901Y37233000D02*
X97184901Y37203000D01*
X97184901Y37233000D02*
X97154901Y37203000D01*
X99072000Y37151000D02*
X99102000Y37121000D01*
X99102000Y37151000D02*
X99072000Y37121000D01*
X100990000Y37111000D02*
X101020000Y37081000D01*
X101020000Y37111000D02*
X100990000Y37081000D01*
X101432000Y44830000D02*
X101462000Y44800000D01*
X101462000Y44830000D02*
X101432000Y44800000D01*
X102028140Y44937910D02*
X102058140Y44907910D01*
X102058140Y44937910D02*
X102028140Y44907910D01*
X102029000Y44785000D02*
X102059000Y44755000D01*
X102059000Y44785000D02*
X102029000Y44755000D01*
X102892000Y37071000D02*
X102922000Y37041000D01*
X102922000Y37071000D02*
X102892000Y37041000D01*
X103443000Y45009000D02*
X103473000Y44979000D01*
X103473000Y45009000D02*
X103443000Y44979000D01*
X103443000Y44559000D02*
X103473000Y44529000D01*
X103473000Y44559000D02*
X103443000Y44529000D01*
X103944355Y45160645D02*
X103974355Y45130645D01*
X103974355Y45160645D02*
X103944355Y45130645D01*
X103963000Y44557000D02*
X103993000Y44527000D01*
X103993000Y44557000D02*
X103963000Y44527000D01*
X103979259Y45111841D02*
X104009259Y45081841D01*
X104009259Y45111841D02*
X103979259Y45081841D01*
X104774901Y37031000D02*
X104804901Y37001000D01*
X104804901Y37031000D02*
X104774901Y37001000D01*
X105727401Y45125000D02*
X105757401Y45095000D01*
X105757401Y45125000D02*
X105727401Y45095000D01*
X107632401Y45091495D02*
X107662401Y45061495D01*
X107662401Y45091495D02*
X107632401Y45061495D01*
X110013651Y36991000D02*
X110043651Y36961000D01*
X110043651Y36991000D02*
X110013651Y36961000D01*
X110568000Y37311000D02*
X110598000Y37281000D01*
X110598000Y37311000D02*
X110568000Y37281000D01*
X110692019Y45200019D02*
X110722019Y45170019D01*
X110722019Y45200019D02*
X110692019Y45170019D01*
X110737981Y45245981D02*
X110767981Y45215981D01*
X110767981Y45245981D02*
X110737981Y45215981D01*
X110809265Y45231265D02*
X110839265Y45201265D01*
X110839265Y45231265D02*
X110809265Y45201265D01*
X110881500Y41065245D02*
X110911500Y41035245D01*
X110911500Y41065245D02*
X110881500Y41035245D01*
X111043000Y37309000D02*
X111073000Y37279000D01*
X111073000Y37309000D02*
X111043000Y37279000D01*
X111133019Y39897019D02*
X111163019Y39867019D01*
X111163019Y39897019D02*
X111133019Y39867019D01*
X111178981Y39942981D02*
X111208981Y39912981D01*
X111208981Y39942981D02*
X111178981Y39912981D01*
X112394901Y44963038D02*
X112424901Y44933038D01*
X112424901Y44963038D02*
X112394901Y44933038D01*
X112908500Y40778500D02*
X112938500Y40748500D01*
X112938500Y40778500D02*
X112908500Y40748500D01*
X112912000Y40041000D02*
X112942000Y40011000D01*
X112942000Y40041000D02*
X112912000Y40011000D01*
X112974000Y41023000D02*
X113004000Y40993000D01*
X113004000Y41023000D02*
X112974000Y40993000D01*
X113026000Y45108000D02*
X113056000Y45078000D01*
X113056000Y45108000D02*
X113026000Y45078000D01*
X113076000Y45066000D02*
X113106000Y45036000D01*
X113106000Y45066000D02*
X113076000Y45036000D01*
X113116000Y45013038D02*
X113146000Y44983038D01*
X113146000Y45013038D02*
X113116000Y44983038D01*
X113166000Y44959000D02*
X113196000Y44929000D01*
X113196000Y44959000D02*
X113166000Y44929000D01*
X113206000Y44900943D02*
X113236000Y44870943D01*
X113236000Y44900943D02*
X113206000Y44870943D01*
X113252000Y40604000D02*
X113282000Y40574000D01*
X113282000Y40604000D02*
X113252000Y40574000D01*
X113337000Y40043000D02*
X113367000Y40013000D01*
X113367000Y40043000D02*
X113337000Y40013000D01*
X113344000Y37471000D02*
X113374000Y37441000D01*
X113374000Y37471000D02*
X113344000Y37441000D01*
X113362000Y38909000D02*
X113392000Y38879000D01*
X113392000Y38909000D02*
X113362000Y38879000D01*
X113441000Y40204000D02*
X113471000Y40174000D01*
X113471000Y40204000D02*
X113441000Y40174000D01*
X113459000Y39979000D02*
X113489000Y39949000D01*
X113489000Y39979000D02*
X113459000Y39949000D01*
X113584708Y40906708D02*
X113614708Y40876708D01*
X113614708Y40906708D02*
X113584708Y40876708D01*
X113710000Y39943000D02*
X113740000Y39913000D01*
X113740000Y39943000D02*
X113710000Y39913000D01*
X113745000Y39006000D02*
X113775000Y38976000D01*
X113775000Y39006000D02*
X113745000Y38976000D01*
X113760000Y40083000D02*
X113790000Y40053000D01*
X113790000Y40083000D02*
X113760000Y40053000D01*
X113796344Y38956000D02*
X113826344Y38926000D01*
X113826344Y38956000D02*
X113796344Y38926000D01*
X113807000Y40283000D02*
X113837000Y40253000D01*
X113837000Y40283000D02*
X113807000Y40253000D01*
X113866957Y40285263D02*
X113896957Y40255263D01*
X113896957Y40285263D02*
X113866957Y40255263D01*
X113916957Y40321000D02*
X113946957Y40291000D01*
X113946957Y40321000D02*
X113916957Y40291000D01*
X113918000Y39531000D02*
X113948000Y39501000D01*
X113948000Y39531000D02*
X113918000Y39501000D01*
X113947424Y40487424D02*
X113977424Y40457424D01*
X113977424Y40487424D02*
X113947424Y40457424D01*
X113948000Y37509000D02*
X113978000Y37479000D01*
X113978000Y37509000D02*
X113948000Y37479000D01*
X114110000Y40093000D02*
X114140000Y40063000D01*
X114140000Y40093000D02*
X114110000Y40063000D01*
X114299901Y39989000D02*
X114329901Y39959000D01*
X114329901Y39989000D02*
X114299901Y39959000D01*
X114593000Y39954000D02*
X114623000Y39924000D01*
X114623000Y39954000D02*
X114593000Y39924000D01*
X114650000Y39914000D02*
X114680000Y39884000D01*
X114680000Y39914000D02*
X114650000Y39884000D01*
X114672000Y42118000D02*
X114702000Y42088000D01*
X114702000Y42118000D02*
X114672000Y42088000D01*
X114839000Y39864000D02*
X114869000Y39834000D01*
X114869000Y39864000D02*
X114839000Y39834000D01*
X115590000Y40233471D02*
X115620000Y40203471D01*
X115620000Y40233471D02*
X115590000Y40203471D01*
X115681000Y39096000D02*
X115711000Y39066000D01*
X115711000Y39096000D02*
X115681000Y39066000D01*
X115764000Y39853000D02*
X115794000Y39823000D01*
X115794000Y39853000D02*
X115764000Y39823000D01*
X115973000Y39388000D02*
X116003000Y39358000D01*
X116003000Y39388000D02*
X115973000Y39358000D01*
X116114000Y39932000D02*
X116144000Y39902000D01*
X116144000Y39932000D02*
X116114000Y39902000D01*
X116647000Y40071000D02*
X116677000Y40041000D01*
X116677000Y40071000D02*
X116647000Y40041000D01*
X84571711Y38401995D02*
G75*
G02*
X84541711Y38401995I-15000J0D01*
G01*
X84541711Y38401995D02*
G75*
G02*
X84571711Y38401995I15000J0D01*
G01*
X116682000Y39569500D02*
X116682000Y39494500D01*
X116644500Y39532000D02*
X116719500Y39532000D01*
X116682000Y39369500D02*
X116682000Y39294500D01*
X116644500Y39332000D02*
X116719500Y39332000D01*
X116682000Y39169500D02*
X116682000Y39094500D01*
X116644500Y39132000D02*
X116719500Y39132000D01*
X116682000Y38969500D02*
X116682000Y38894500D01*
X116644500Y38932000D02*
X116719500Y38932000D01*
X116682000Y38769500D02*
X116682000Y38694500D01*
X116644500Y38732000D02*
X116719500Y38732000D01*
X115170356Y36951644D02*
X115170356Y37022356D01*
X115099644Y37022356D01*
X115099644Y36951644D01*
X115170356Y36951644D01*
X115171356Y37283644D02*
X115171356Y37354356D01*
X115100644Y37354356D01*
X115100644Y37283644D01*
X115171356Y37283644D01*
X115420356Y36951644D02*
X115420356Y37022356D01*
X115349644Y37022356D01*
X115349644Y36951644D01*
X115420356Y36951644D01*
X115421356Y37283644D02*
X115421356Y37354356D01*
X115350644Y37354356D01*
X115350644Y37283644D01*
X115421356Y37283644D01*
D13*
X82723651Y46033245D02*
X82808651Y46118245D01*
X82723651Y46203245D01*
X82638651Y46118245D01*
X82723651Y46033245D01*
X82723651Y43651995D02*
X82808651Y43736995D01*
X82723651Y43821995D01*
X82638651Y43736995D01*
X82723651Y43651995D01*
X82961751Y39841995D02*
X83046751Y39926995D01*
X82961751Y40011995D01*
X82876751Y39926995D01*
X82961751Y39841995D01*
X83199951Y41746995D02*
X83284951Y41831995D01*
X83199951Y41916995D01*
X83114951Y41831995D01*
X83199951Y41746995D01*
X83199951Y36031995D02*
X83284951Y36116995D01*
X83199951Y36201995D01*
X83114951Y36116995D01*
X83199951Y36031995D01*
X83358651Y46287245D02*
X83443651Y46372245D01*
X83358651Y46457245D01*
X83273651Y46372245D01*
X83358651Y46287245D01*
X83358651Y43905995D02*
X83443651Y43990995D01*
X83358651Y44075995D01*
X83273651Y43990995D01*
X83358651Y43905995D01*
X83438051Y39841995D02*
X83523051Y39926995D01*
X83438051Y40011995D01*
X83353051Y39926995D01*
X83438051Y39841995D01*
X83596751Y40095995D02*
X83681751Y40180995D01*
X83596751Y40265995D01*
X83511751Y40180995D01*
X83596751Y40095995D01*
X83834951Y42000995D02*
X83919951Y42085995D01*
X83834951Y42170995D01*
X83749951Y42085995D01*
X83834951Y42000995D01*
X83834951Y36285995D02*
X83919951Y36370995D01*
X83834951Y36455995D01*
X83749951Y36370995D01*
X83834951Y36285995D01*
X83921711Y37936995D02*
X84006711Y38021995D01*
X83921711Y38106995D01*
X83836711Y38021995D01*
X83921711Y37936995D01*
X84073051Y40095995D02*
X84158051Y40180995D01*
X84073051Y40265995D01*
X83988051Y40180995D01*
X84073051Y40095995D01*
X84556711Y38190995D02*
X84641711Y38275995D01*
X84556711Y38360995D01*
X84471711Y38275995D01*
X84556711Y38190995D01*
X84628651Y43651995D02*
X84713651Y43736995D01*
X84628651Y43821995D01*
X84543651Y43736995D01*
X84628651Y43651995D01*
X85104901Y46033245D02*
X85189901Y46118245D01*
X85104901Y46203245D01*
X85019901Y46118245D01*
X85104901Y46033245D01*
X85263651Y43905995D02*
X85348651Y43990995D01*
X85263651Y44075995D01*
X85178651Y43990995D01*
X85263651Y43905995D01*
X85581151Y41746995D02*
X85666151Y41831995D01*
X85581151Y41916995D01*
X85496151Y41831995D01*
X85581151Y41746995D01*
X85581151Y36031995D02*
X85666151Y36116995D01*
X85581151Y36201995D01*
X85496151Y36116995D01*
X85581151Y36031995D01*
X85739901Y46287245D02*
X85824901Y46372245D01*
X85739901Y46457245D01*
X85654901Y46372245D01*
X85739901Y46287245D01*
X86057401Y39841995D02*
X86142401Y39926995D01*
X86057401Y40011995D01*
X85972401Y39926995D01*
X86057401Y39841995D01*
X86216151Y42000995D02*
X86301151Y42085995D01*
X86216151Y42170995D01*
X86131151Y42085995D01*
X86216151Y42000995D01*
X86216151Y36285995D02*
X86301151Y36370995D01*
X86216151Y36455995D01*
X86131151Y36370995D01*
X86216151Y36285995D01*
X86533651Y43651995D02*
X86618651Y43736995D01*
X86533651Y43821995D01*
X86448651Y43736995D01*
X86533651Y43651995D01*
X86692401Y40095995D02*
X86777401Y40180995D01*
X86692401Y40265995D01*
X86607401Y40180995D01*
X86692401Y40095995D01*
X87009901Y46033245D02*
X87094901Y46118245D01*
X87009901Y46203245D01*
X86924901Y46118245D01*
X87009901Y46033245D01*
X87009901Y37936995D02*
X87094901Y38021995D01*
X87009901Y38106995D01*
X86924901Y38021995D01*
X87009901Y37936995D01*
X87168651Y43905995D02*
X87253651Y43990995D01*
X87168651Y44075995D01*
X87083651Y43990995D01*
X87168651Y43905995D01*
X87486151Y41746995D02*
X87571151Y41831995D01*
X87486151Y41916995D01*
X87401151Y41831995D01*
X87486151Y41746995D01*
X87644901Y46287245D02*
X87729901Y46372245D01*
X87644901Y46457245D01*
X87559901Y46372245D01*
X87644901Y46287245D01*
X87644901Y38190995D02*
X87729901Y38275995D01*
X87644901Y38360995D01*
X87559901Y38275995D01*
X87644901Y38190995D01*
X87962401Y39841995D02*
X88047401Y39926995D01*
X87962401Y40011995D01*
X87877401Y39926995D01*
X87962401Y39841995D01*
X87962451Y36031995D02*
X88047451Y36116995D01*
X87962451Y36201995D01*
X87877451Y36116995D01*
X87962451Y36031995D01*
X88121151Y42000995D02*
X88206151Y42085995D01*
X88121151Y42170995D01*
X88036151Y42085995D01*
X88121151Y42000995D01*
X88438651Y43651995D02*
X88523651Y43736995D01*
X88438651Y43821995D01*
X88353651Y43736995D01*
X88438651Y43651995D01*
X88597401Y40095995D02*
X88682401Y40180995D01*
X88597401Y40265995D01*
X88512401Y40180995D01*
X88597401Y40095995D01*
X88597451Y36285995D02*
X88682451Y36370995D01*
X88597451Y36455995D01*
X88512451Y36370995D01*
X88597451Y36285995D01*
X88914901Y46033245D02*
X88999901Y46118245D01*
X88914901Y46203245D01*
X88829901Y46118245D01*
X88914901Y46033245D01*
X88914901Y37936995D02*
X88999901Y38021995D01*
X88914901Y38106995D01*
X88829901Y38021995D01*
X88914901Y37936995D01*
X89073651Y43905995D02*
X89158651Y43990995D01*
X89073651Y44075995D01*
X88988651Y43990995D01*
X89073651Y43905995D01*
X89391151Y41746995D02*
X89476151Y41831995D01*
X89391151Y41916995D01*
X89306151Y41831995D01*
X89391151Y41746995D01*
X89549901Y46287245D02*
X89634901Y46372245D01*
X89549901Y46457245D01*
X89464901Y46372245D01*
X89549901Y46287245D01*
X89549901Y38190995D02*
X89634901Y38275995D01*
X89549901Y38360995D01*
X89464901Y38275995D01*
X89549901Y38190995D01*
X89867401Y39841995D02*
X89952401Y39926995D01*
X89867401Y40011995D01*
X89782401Y39926995D01*
X89867401Y39841995D01*
X90026151Y42000995D02*
X90111151Y42085995D01*
X90026151Y42170995D01*
X89941151Y42085995D01*
X90026151Y42000995D01*
X90343651Y43651995D02*
X90428651Y43736995D01*
X90343651Y43821995D01*
X90258651Y43736995D01*
X90343651Y43651995D01*
X90502401Y40095995D02*
X90587401Y40180995D01*
X90502401Y40265995D01*
X90417401Y40180995D01*
X90502401Y40095995D01*
X90819901Y46033245D02*
X90904901Y46118245D01*
X90819901Y46203245D01*
X90734901Y46118245D01*
X90819901Y46033245D01*
X90819901Y37936995D02*
X90904901Y38021995D01*
X90819901Y38106995D01*
X90734901Y38021995D01*
X90819901Y37936995D01*
X90978651Y43905995D02*
X91063651Y43990995D01*
X90978651Y44075995D01*
X90893651Y43990995D01*
X90978651Y43905995D01*
X91296151Y41746995D02*
X91381151Y41831995D01*
X91296151Y41916995D01*
X91211151Y41831995D01*
X91296151Y41746995D01*
X91454901Y46287245D02*
X91539901Y46372245D01*
X91454901Y46457245D01*
X91369901Y46372245D01*
X91454901Y46287245D01*
X91454901Y38190995D02*
X91539901Y38275995D01*
X91454901Y38360995D01*
X91369901Y38275995D01*
X91454901Y38190995D01*
X91772401Y39841995D02*
X91857401Y39926995D01*
X91772401Y40011995D01*
X91687401Y39926995D01*
X91772401Y39841995D01*
X91931151Y42000995D02*
X92016151Y42085995D01*
X91931151Y42170995D01*
X91846151Y42085995D01*
X91931151Y42000995D01*
X92248651Y43651995D02*
X92333651Y43736995D01*
X92248651Y43821995D01*
X92163651Y43736995D01*
X92248651Y43651995D01*
X92407401Y40095995D02*
X92492401Y40180995D01*
X92407401Y40265995D01*
X92322401Y40180995D01*
X92407401Y40095995D01*
X92724901Y37936995D02*
X92809901Y38021995D01*
X92724901Y38106995D01*
X92639901Y38021995D01*
X92724901Y37936995D01*
X92883651Y43905995D02*
X92968651Y43990995D01*
X92883651Y44075995D01*
X92798651Y43990995D01*
X92883651Y43905995D01*
X93201151Y46033245D02*
X93286151Y46118245D01*
X93201151Y46203245D01*
X93116151Y46118245D01*
X93201151Y46033245D01*
X93201151Y41746995D02*
X93286151Y41831995D01*
X93201151Y41916995D01*
X93116151Y41831995D01*
X93201151Y41746995D01*
X93359901Y38190995D02*
X93444901Y38275995D01*
X93359901Y38360995D01*
X93274901Y38275995D01*
X93359901Y38190995D01*
X93677401Y39841995D02*
X93762401Y39926995D01*
X93677401Y40011995D01*
X93592401Y39926995D01*
X93677401Y39841995D01*
X93836151Y46287245D02*
X93921151Y46372245D01*
X93836151Y46457245D01*
X93751151Y46372245D01*
X93836151Y46287245D01*
X93836151Y42000995D02*
X93921151Y42085995D01*
X93836151Y42170995D01*
X93751151Y42085995D01*
X93836151Y42000995D01*
X94153651Y43651995D02*
X94238651Y43736995D01*
X94153651Y43821995D01*
X94068651Y43736995D01*
X94153651Y43651995D01*
X94312401Y40095995D02*
X94397401Y40180995D01*
X94312401Y40265995D01*
X94227401Y40180995D01*
X94312401Y40095995D01*
X94629901Y37936995D02*
X94714901Y38021995D01*
X94629901Y38106995D01*
X94544901Y38021995D01*
X94629901Y37936995D01*
X94788651Y43905995D02*
X94873651Y43990995D01*
X94788651Y44075995D01*
X94703651Y43990995D01*
X94788651Y43905995D01*
X95106151Y46033245D02*
X95191151Y46118245D01*
X95106151Y46203245D01*
X95021151Y46118245D01*
X95106151Y46033245D01*
X95106151Y41746995D02*
X95191151Y41831995D01*
X95106151Y41916995D01*
X95021151Y41831995D01*
X95106151Y41746995D01*
X95264901Y38190995D02*
X95349901Y38275995D01*
X95264901Y38360995D01*
X95179901Y38275995D01*
X95264901Y38190995D01*
X95582401Y39841995D02*
X95667401Y39926995D01*
X95582401Y40011995D01*
X95497401Y39926995D01*
X95582401Y39841995D01*
X95741151Y46287245D02*
X95826151Y46372245D01*
X95741151Y46457245D01*
X95656151Y46372245D01*
X95741151Y46287245D01*
X95741151Y42000995D02*
X95826151Y42085995D01*
X95741151Y42170995D01*
X95656151Y42085995D01*
X95741151Y42000995D01*
X96058651Y43651995D02*
X96143651Y43736995D01*
X96058651Y43821995D01*
X95973651Y43736995D01*
X96058651Y43651995D01*
X96058651Y36032745D02*
X96143651Y36117745D01*
X96058651Y36202745D01*
X95973651Y36117745D01*
X96058651Y36032745D01*
X96217401Y40095995D02*
X96302401Y40180995D01*
X96217401Y40265995D01*
X96132401Y40180995D01*
X96217401Y40095995D01*
X96534901Y37936995D02*
X96619901Y38021995D01*
X96534901Y38106995D01*
X96449901Y38021995D01*
X96534901Y37936995D01*
X96693651Y43905995D02*
X96778651Y43990995D01*
X96693651Y44075995D01*
X96608651Y43990995D01*
X96693651Y43905995D01*
X96693651Y36286745D02*
X96778651Y36371745D01*
X96693651Y36456745D01*
X96608651Y36371745D01*
X96693651Y36286745D01*
X97011151Y46033245D02*
X97096151Y46118245D01*
X97011151Y46203245D01*
X96926151Y46118245D01*
X97011151Y46033245D01*
X97011151Y41746995D02*
X97096151Y41831995D01*
X97011151Y41916995D01*
X96926151Y41831995D01*
X97011151Y41746995D01*
X97169901Y38190995D02*
X97254901Y38275995D01*
X97169901Y38360995D01*
X97084901Y38275995D01*
X97169901Y38190995D01*
X97487401Y39841995D02*
X97572401Y39926995D01*
X97487401Y40011995D01*
X97402401Y39926995D01*
X97487401Y39841995D01*
X97646151Y46287245D02*
X97731151Y46372245D01*
X97646151Y46457245D01*
X97561151Y46372245D01*
X97646151Y46287245D01*
X97646151Y42000995D02*
X97731151Y42085995D01*
X97646151Y42170995D01*
X97561151Y42085995D01*
X97646151Y42000995D01*
X97963651Y43651995D02*
X98048651Y43736995D01*
X97963651Y43821995D01*
X97878651Y43736995D01*
X97963651Y43651995D01*
X98122401Y40095995D02*
X98207401Y40180995D01*
X98122401Y40265995D01*
X98037401Y40180995D01*
X98122401Y40095995D01*
X98439901Y37936995D02*
X98524901Y38021995D01*
X98439901Y38106995D01*
X98354901Y38021995D01*
X98439901Y37936995D01*
X98598651Y43905995D02*
X98683651Y43990995D01*
X98598651Y44075995D01*
X98513651Y43990995D01*
X98598651Y43905995D01*
X98916151Y46033245D02*
X99001151Y46118245D01*
X98916151Y46203245D01*
X98831151Y46118245D01*
X98916151Y46033245D01*
X98916151Y41746995D02*
X99001151Y41831995D01*
X98916151Y41916995D01*
X98831151Y41831995D01*
X98916151Y41746995D01*
X99074901Y38190995D02*
X99159901Y38275995D01*
X99074901Y38360995D01*
X98989901Y38275995D01*
X99074901Y38190995D01*
X99392401Y39841995D02*
X99477401Y39926995D01*
X99392401Y40011995D01*
X99307401Y39926995D01*
X99392401Y39841995D01*
X99551151Y46287245D02*
X99636151Y46372245D01*
X99551151Y46457245D01*
X99466151Y46372245D01*
X99551151Y46287245D01*
X99551151Y42000995D02*
X99636151Y42085995D01*
X99551151Y42170995D01*
X99466151Y42085995D01*
X99551151Y42000995D01*
X99868651Y43651995D02*
X99953651Y43736995D01*
X99868651Y43821995D01*
X99783651Y43736995D01*
X99868651Y43651995D01*
X100027401Y40095995D02*
X100112401Y40180995D01*
X100027401Y40265995D01*
X99942401Y40180995D01*
X100027401Y40095995D01*
X100344901Y37936995D02*
X100429901Y38021995D01*
X100344901Y38106995D01*
X100259901Y38021995D01*
X100344901Y37936995D01*
X100503651Y43905995D02*
X100588651Y43990995D01*
X100503651Y44075995D01*
X100418651Y43990995D01*
X100503651Y43905995D01*
X100821151Y41746995D02*
X100906151Y41831995D01*
X100821151Y41916995D01*
X100736151Y41831995D01*
X100821151Y41746995D01*
X100979901Y38190995D02*
X101064901Y38275995D01*
X100979901Y38360995D01*
X100894901Y38275995D01*
X100979901Y38190995D01*
X101297401Y46033245D02*
X101382401Y46118245D01*
X101297401Y46203245D01*
X101212401Y46118245D01*
X101297401Y46033245D01*
X101297401Y39841995D02*
X101382401Y39926995D01*
X101297401Y40011995D01*
X101212401Y39926995D01*
X101297401Y39841995D01*
X101456151Y42000995D02*
X101541151Y42085995D01*
X101456151Y42170995D01*
X101371151Y42085995D01*
X101456151Y42000995D01*
X101773651Y43651995D02*
X101858651Y43736995D01*
X101773651Y43821995D01*
X101688651Y43736995D01*
X101773651Y43651995D01*
X101932401Y46287245D02*
X102017401Y46372245D01*
X101932401Y46457245D01*
X101847401Y46372245D01*
X101932401Y46287245D01*
X101932401Y40095995D02*
X102017401Y40180995D01*
X101932401Y40265995D01*
X101847401Y40180995D01*
X101932401Y40095995D01*
X102249901Y37936995D02*
X102334901Y38021995D01*
X102249901Y38106995D01*
X102164901Y38021995D01*
X102249901Y37936995D01*
X102408651Y43905995D02*
X102493651Y43990995D01*
X102408651Y44075995D01*
X102323651Y43990995D01*
X102408651Y43905995D01*
X102726151Y41746995D02*
X102811151Y41831995D01*
X102726151Y41916995D01*
X102641151Y41831995D01*
X102726151Y41746995D01*
X102884901Y38190995D02*
X102969901Y38275995D01*
X102884901Y38360995D01*
X102799901Y38275995D01*
X102884901Y38190995D01*
X103202401Y46033245D02*
X103287401Y46118245D01*
X103202401Y46203245D01*
X103117401Y46118245D01*
X103202401Y46033245D01*
X103202401Y39841995D02*
X103287401Y39926995D01*
X103202401Y40011995D01*
X103117401Y39926995D01*
X103202401Y39841995D01*
X103361151Y42000995D02*
X103446151Y42085995D01*
X103361151Y42170995D01*
X103276151Y42085995D01*
X103361151Y42000995D01*
X103678651Y43651995D02*
X103763651Y43736995D01*
X103678651Y43821995D01*
X103593651Y43736995D01*
X103678651Y43651995D01*
X103837401Y46287245D02*
X103922401Y46372245D01*
X103837401Y46457245D01*
X103752401Y46372245D01*
X103837401Y46287245D01*
X103837401Y40095995D02*
X103922401Y40180995D01*
X103837401Y40265995D01*
X103752401Y40180995D01*
X103837401Y40095995D01*
X104154901Y37936995D02*
X104239901Y38021995D01*
X104154901Y38106995D01*
X104069901Y38021995D01*
X104154901Y37936995D01*
X104154951Y36031995D02*
X104239951Y36116995D01*
X104154951Y36201995D01*
X104069951Y36116995D01*
X104154951Y36031995D01*
X104313651Y43905995D02*
X104398651Y43990995D01*
X104313651Y44075995D01*
X104228651Y43990995D01*
X104313651Y43905995D01*
X104631151Y41746995D02*
X104716151Y41831995D01*
X104631151Y41916995D01*
X104546151Y41831995D01*
X104631151Y41746995D01*
X104789901Y38190995D02*
X104874901Y38275995D01*
X104789901Y38360995D01*
X104704901Y38275995D01*
X104789901Y38190995D01*
X104789951Y36285995D02*
X104874951Y36370995D01*
X104789951Y36455995D01*
X104704951Y36370995D01*
X104789951Y36285995D01*
X105107401Y46033245D02*
X105192401Y46118245D01*
X105107401Y46203245D01*
X105022401Y46118245D01*
X105107401Y46033245D01*
X105107401Y39841995D02*
X105192401Y39926995D01*
X105107401Y40011995D01*
X105022401Y39926995D01*
X105107401Y39841995D01*
X105266151Y42000995D02*
X105351151Y42085995D01*
X105266151Y42170995D01*
X105181151Y42085995D01*
X105266151Y42000995D01*
X105583651Y43651995D02*
X105668651Y43736995D01*
X105583651Y43821995D01*
X105498651Y43736995D01*
X105583651Y43651995D01*
X105742401Y46287245D02*
X105827401Y46372245D01*
X105742401Y46457245D01*
X105657401Y46372245D01*
X105742401Y46287245D01*
X105742401Y40095995D02*
X105827401Y40180995D01*
X105742401Y40265995D01*
X105657401Y40180995D01*
X105742401Y40095995D01*
X106218651Y43905995D02*
X106303651Y43990995D01*
X106218651Y44075995D01*
X106133651Y43990995D01*
X106218651Y43905995D01*
X106536151Y41746995D02*
X106621151Y41831995D01*
X106536151Y41916995D01*
X106451151Y41831995D01*
X106536151Y41746995D01*
X106536151Y36031995D02*
X106621151Y36116995D01*
X106536151Y36201995D01*
X106451151Y36116995D01*
X106536151Y36031995D01*
X106774301Y37936995D02*
X106859301Y38021995D01*
X106774301Y38106995D01*
X106689301Y38021995D01*
X106774301Y37936995D01*
X107012401Y46033245D02*
X107097401Y46118245D01*
X107012401Y46203245D01*
X106927401Y46118245D01*
X107012401Y46033245D01*
X107171151Y42000995D02*
X107256151Y42085995D01*
X107171151Y42170995D01*
X107086151Y42085995D01*
X107171151Y42000995D01*
X107171151Y36285995D02*
X107256151Y36370995D01*
X107171151Y36455995D01*
X107086151Y36370995D01*
X107171151Y36285995D01*
X107409301Y38190995D02*
X107494301Y38275995D01*
X107409301Y38360995D01*
X107324301Y38275995D01*
X107409301Y38190995D01*
X107488651Y43651995D02*
X107573651Y43736995D01*
X107488651Y43821995D01*
X107403651Y43736995D01*
X107488651Y43651995D01*
X107647401Y46287245D02*
X107732401Y46372245D01*
X107647401Y46457245D01*
X107562401Y46372245D01*
X107647401Y46287245D01*
X107726801Y37936995D02*
X107811801Y38021995D01*
X107726801Y38106995D01*
X107641801Y38021995D01*
X107726801Y37936995D01*
X108123651Y43905995D02*
X108208651Y43990995D01*
X108123651Y44075995D01*
X108038651Y43990995D01*
X108123651Y43905995D01*
X108210461Y39841995D02*
X108295461Y39926995D01*
X108210461Y40011995D01*
X108125461Y39926995D01*
X108210461Y39841995D01*
X108361801Y38190995D02*
X108446801Y38275995D01*
X108361801Y38360995D01*
X108276801Y38275995D01*
X108361801Y38190995D01*
X108441151Y43651995D02*
X108526151Y43736995D01*
X108441151Y43821995D01*
X108356151Y43736995D01*
X108441151Y43651995D01*
X108845461Y40095995D02*
X108930461Y40180995D01*
X108845461Y40265995D01*
X108760461Y40180995D01*
X108845461Y40095995D01*
X108917451Y41746995D02*
X109002451Y41831995D01*
X108917451Y41916995D01*
X108832451Y41831995D01*
X108917451Y41746995D01*
X108917451Y36031995D02*
X109002451Y36116995D01*
X108917451Y36201995D01*
X108832451Y36116995D01*
X108917451Y36031995D01*
X109076151Y43905995D02*
X109161151Y43990995D01*
X109076151Y44075995D01*
X108991151Y43990995D01*
X109076151Y43905995D01*
X109393651Y46033245D02*
X109478651Y46118245D01*
X109393651Y46203245D01*
X109308651Y46118245D01*
X109393651Y46033245D01*
X109393651Y43651995D02*
X109478651Y43736995D01*
X109393651Y43821995D01*
X109308651Y43736995D01*
X109393651Y43651995D01*
X109393651Y37936995D02*
X109478651Y38021995D01*
X109393651Y38106995D01*
X109308651Y38021995D01*
X109393651Y37936995D01*
X109552451Y42000995D02*
X109637451Y42085995D01*
X109552451Y42170995D01*
X109467451Y42085995D01*
X109552451Y42000995D01*
X109552451Y36285995D02*
X109637451Y36370995D01*
X109552451Y36455995D01*
X109467451Y36370995D01*
X109552451Y36285995D01*
X110028651Y46287245D02*
X110113651Y46372245D01*
X110028651Y46457245D01*
X109943651Y46372245D01*
X110028651Y46287245D01*
X110028651Y43905995D02*
X110113651Y43990995D01*
X110028651Y44075995D01*
X109943651Y43990995D01*
X110028651Y43905995D01*
X110028651Y38190995D02*
X110113651Y38275995D01*
X110028651Y38360995D01*
X109943651Y38275995D01*
X110028651Y38190995D01*
X111774901Y46033245D02*
X111859901Y46118245D01*
X111774901Y46203245D01*
X111689901Y46118245D01*
X111774901Y46033245D01*
X111774901Y43651995D02*
X111859901Y43736995D01*
X111774901Y43821995D01*
X111689901Y43736995D01*
X111774901Y43651995D01*
X111774901Y41746995D02*
X111859901Y41831995D01*
X111774901Y41916995D01*
X111689901Y41831995D01*
X111774901Y41746995D01*
X111774901Y36031995D02*
X111859901Y36116995D01*
X111774901Y36201995D01*
X111689901Y36116995D01*
X111774901Y36031995D01*
X112409901Y46287245D02*
X112494901Y46372245D01*
X112409901Y46457245D01*
X112324901Y46372245D01*
X112409901Y46287245D01*
X112409901Y43905995D02*
X112494901Y43990995D01*
X112409901Y44075995D01*
X112324901Y43990995D01*
X112409901Y43905995D01*
X112409901Y42000995D02*
X112494901Y42085995D01*
X112409901Y42170995D01*
X112324901Y42085995D01*
X112409901Y42000995D01*
X112409901Y36285995D02*
X112494901Y36370995D01*
X112409901Y36455995D01*
X112324901Y36370995D01*
X112409901Y36285995D01*
X113679901Y46033245D02*
X113764901Y46118245D01*
X113679901Y46203245D01*
X113594901Y46118245D01*
X113679901Y46033245D01*
X113679901Y43651995D02*
X113764901Y43736995D01*
X113679901Y43821995D01*
X113594901Y43736995D01*
X113679901Y43651995D01*
X113679901Y41746995D02*
X113764901Y41831995D01*
X113679901Y41916995D01*
X113594901Y41831995D01*
X113679901Y41746995D01*
X113679901Y37936995D02*
X113764901Y38021995D01*
X113679901Y38106995D01*
X113594901Y38021995D01*
X113679901Y37936995D01*
X113679901Y36031995D02*
X113764901Y36116995D01*
X113679901Y36201995D01*
X113594901Y36116995D01*
X113679901Y36031995D01*
X114314901Y46287245D02*
X114399901Y46372245D01*
X114314901Y46457245D01*
X114229901Y46372245D01*
X114314901Y46287245D01*
X114314901Y43905995D02*
X114399901Y43990995D01*
X114314901Y44075995D01*
X114229901Y43990995D01*
X114314901Y43905995D01*
X114314901Y42000995D02*
X114399901Y42085995D01*
X114314901Y42170995D01*
X114229901Y42085995D01*
X114314901Y42000995D01*
X114314901Y38190995D02*
X114399901Y38275995D01*
X114314901Y38360995D01*
X114229901Y38275995D01*
X114314901Y38190995D01*
X114314901Y36285995D02*
X114399901Y36370995D01*
X114314901Y36455995D01*
X114229901Y36370995D01*
X114314901Y36285995D01*
X115584901Y46033245D02*
X115669901Y46118245D01*
X115584901Y46203245D01*
X115499901Y46118245D01*
X115584901Y46033245D01*
X115584901Y43651995D02*
X115669901Y43736995D01*
X115584901Y43821995D01*
X115499901Y43736995D01*
X115584901Y43651995D01*
X115584901Y41746995D02*
X115669901Y41831995D01*
X115584901Y41916995D01*
X115499901Y41831995D01*
X115584901Y41746995D01*
X115584901Y36031995D02*
X115669901Y36116995D01*
X115584901Y36201995D01*
X115499901Y36116995D01*
X115584901Y36031995D01*
X116219901Y46287245D02*
X116304901Y46372245D01*
X116219901Y46457245D01*
X116134901Y46372245D01*
X116219901Y46287245D01*
X116219901Y43905995D02*
X116304901Y43990995D01*
X116219901Y44075995D01*
X116134901Y43990995D01*
X116219901Y43905995D01*
X116219901Y42000995D02*
X116304901Y42085995D01*
X116219901Y42170995D01*
X116134901Y42085995D01*
X116219901Y42000995D01*
X116219901Y36285995D02*
X116304901Y36370995D01*
X116219901Y36455995D01*
X116134901Y36370995D01*
X116219901Y36285995D01*
D11*
X82156741Y34017386D02*
X82156741Y34217386D01*
X82156741Y34217386D02*
X82204360Y34217386D01*
X82204360Y34217386D02*
X82232932Y34207863D01*
X82232932Y34207863D02*
X82251979Y34188815D01*
X82251979Y34188815D02*
X82261503Y34169767D01*
X82261503Y34169767D02*
X82271027Y34131672D01*
X82271027Y34131672D02*
X82271027Y34103101D01*
X82271027Y34103101D02*
X82261503Y34065006D01*
X82261503Y34065006D02*
X82251979Y34045958D01*
X82251979Y34045958D02*
X82232932Y34026910D01*
X82232932Y34026910D02*
X82204360Y34017386D01*
X82204360Y34017386D02*
X82156741Y34017386D01*
X82356741Y34017386D02*
X82356741Y34150720D01*
X82356741Y34112625D02*
X82366265Y34131672D01*
X82366265Y34131672D02*
X82375789Y34141196D01*
X82375789Y34141196D02*
X82394837Y34150720D01*
X82394837Y34150720D02*
X82413884Y34150720D01*
X82480551Y34017386D02*
X82480551Y34150720D01*
X82480551Y34217386D02*
X82471027Y34207863D01*
X82471027Y34207863D02*
X82480551Y34198339D01*
X82480551Y34198339D02*
X82490075Y34207863D01*
X82490075Y34207863D02*
X82480551Y34217386D01*
X82480551Y34217386D02*
X82480551Y34198339D01*
X82604360Y34017386D02*
X82585313Y34026910D01*
X82585313Y34026910D02*
X82575789Y34045958D01*
X82575789Y34045958D02*
X82575789Y34217386D01*
X82709122Y34017386D02*
X82690075Y34026910D01*
X82690075Y34026910D02*
X82680551Y34045958D01*
X82680551Y34045958D02*
X82680551Y34217386D01*
X82937694Y34017386D02*
X82937694Y34217386D01*
X82937694Y34217386D02*
X83004360Y34074529D01*
X83004360Y34074529D02*
X83071027Y34217386D01*
X83071027Y34217386D02*
X83071027Y34017386D01*
X83251979Y34017386D02*
X83251979Y34122148D01*
X83251979Y34122148D02*
X83242456Y34141196D01*
X83242456Y34141196D02*
X83223408Y34150720D01*
X83223408Y34150720D02*
X83185313Y34150720D01*
X83185313Y34150720D02*
X83166265Y34141196D01*
X83251979Y34026910D02*
X83232932Y34017386D01*
X83232932Y34017386D02*
X83185313Y34017386D01*
X83185313Y34017386D02*
X83166265Y34026910D01*
X83166265Y34026910D02*
X83156741Y34045958D01*
X83156741Y34045958D02*
X83156741Y34065006D01*
X83156741Y34065006D02*
X83166265Y34084053D01*
X83166265Y34084053D02*
X83185313Y34093577D01*
X83185313Y34093577D02*
X83232932Y34093577D01*
X83232932Y34093577D02*
X83251979Y34103101D01*
X83347218Y34150720D02*
X83347218Y33950720D01*
X83347218Y34141196D02*
X83366265Y34150720D01*
X83366265Y34150720D02*
X83404360Y34150720D01*
X83404360Y34150720D02*
X83423408Y34141196D01*
X83423408Y34141196D02*
X83432932Y34131672D01*
X83432932Y34131672D02*
X83442456Y34112625D01*
X83442456Y34112625D02*
X83442456Y34055482D01*
X83442456Y34055482D02*
X83432932Y34036434D01*
X83432932Y34036434D02*
X83423408Y34026910D01*
X83423408Y34026910D02*
X83404360Y34017386D01*
X83404360Y34017386D02*
X83366265Y34017386D01*
X83366265Y34017386D02*
X83347218Y34026910D01*
X83528170Y34036434D02*
X83537694Y34026910D01*
X83537694Y34026910D02*
X83528170Y34017386D01*
X83528170Y34017386D02*
X83518646Y34026910D01*
X83518646Y34026910D02*
X83528170Y34036434D01*
X83528170Y34036434D02*
X83528170Y34017386D01*
X83528170Y34141196D02*
X83537694Y34131672D01*
X83537694Y34131672D02*
X83528170Y34122148D01*
X83528170Y34122148D02*
X83518646Y34131672D01*
X83518646Y34131672D02*
X83528170Y34141196D01*
X83528170Y34141196D02*
X83528170Y34122148D01*
D12*
X81865965Y33703870D02*
X81895965Y33673870D01*
X81895965Y33703870D02*
X81865965Y33673870D01*
D11*
X82194837Y33797386D02*
X82213884Y33797386D01*
X82213884Y33797386D02*
X82232932Y33787863D01*
X82232932Y33787863D02*
X82242456Y33778339D01*
X82242456Y33778339D02*
X82251979Y33759291D01*
X82251979Y33759291D02*
X82261503Y33721196D01*
X82261503Y33721196D02*
X82261503Y33673577D01*
X82261503Y33673577D02*
X82251979Y33635482D01*
X82251979Y33635482D02*
X82242456Y33616434D01*
X82242456Y33616434D02*
X82232932Y33606910D01*
X82232932Y33606910D02*
X82213884Y33597386D01*
X82213884Y33597386D02*
X82194837Y33597386D01*
X82194837Y33597386D02*
X82175789Y33606910D01*
X82175789Y33606910D02*
X82166265Y33616434D01*
X82166265Y33616434D02*
X82156741Y33635482D01*
X82156741Y33635482D02*
X82147218Y33673577D01*
X82147218Y33673577D02*
X82147218Y33721196D01*
X82147218Y33721196D02*
X82156741Y33759291D01*
X82156741Y33759291D02*
X82166265Y33778339D01*
X82166265Y33778339D02*
X82175789Y33787863D01*
X82175789Y33787863D02*
X82194837Y33797386D01*
X82347218Y33616434D02*
X82356741Y33606910D01*
X82356741Y33606910D02*
X82347218Y33597386D01*
X82347218Y33597386D02*
X82337694Y33606910D01*
X82337694Y33606910D02*
X82347218Y33616434D01*
X82347218Y33616434D02*
X82347218Y33597386D01*
X82423408Y33797386D02*
X82547218Y33797386D01*
X82547218Y33797386D02*
X82480551Y33721196D01*
X82480551Y33721196D02*
X82509122Y33721196D01*
X82509122Y33721196D02*
X82528170Y33711672D01*
X82528170Y33711672D02*
X82537694Y33702148D01*
X82537694Y33702148D02*
X82547218Y33683101D01*
X82547218Y33683101D02*
X82547218Y33635482D01*
X82547218Y33635482D02*
X82537694Y33616434D01*
X82537694Y33616434D02*
X82528170Y33606910D01*
X82528170Y33606910D02*
X82509122Y33597386D01*
X82509122Y33597386D02*
X82451979Y33597386D01*
X82451979Y33597386D02*
X82432932Y33606910D01*
X82432932Y33606910D02*
X82423408Y33616434D01*
X82671027Y33797386D02*
X82690075Y33797386D01*
X82690075Y33797386D02*
X82709122Y33787863D01*
X82709122Y33787863D02*
X82718646Y33778339D01*
X82718646Y33778339D02*
X82728170Y33759291D01*
X82728170Y33759291D02*
X82737694Y33721196D01*
X82737694Y33721196D02*
X82737694Y33673577D01*
X82737694Y33673577D02*
X82728170Y33635482D01*
X82728170Y33635482D02*
X82718646Y33616434D01*
X82718646Y33616434D02*
X82709122Y33606910D01*
X82709122Y33606910D02*
X82690075Y33597386D01*
X82690075Y33597386D02*
X82671027Y33597386D01*
X82671027Y33597386D02*
X82651979Y33606910D01*
X82651979Y33606910D02*
X82642456Y33616434D01*
X82642456Y33616434D02*
X82632932Y33635482D01*
X82632932Y33635482D02*
X82623408Y33673577D01*
X82623408Y33673577D02*
X82623408Y33721196D01*
X82623408Y33721196D02*
X82632932Y33759291D01*
X82632932Y33759291D02*
X82642456Y33778339D01*
X82642456Y33778339D02*
X82651979Y33787863D01*
X82651979Y33787863D02*
X82671027Y33797386D01*
X82861503Y33797386D02*
X82880551Y33797386D01*
X82880551Y33797386D02*
X82899599Y33787863D01*
X82899599Y33787863D02*
X82909122Y33778339D01*
X82909122Y33778339D02*
X82918646Y33759291D01*
X82918646Y33759291D02*
X82928170Y33721196D01*
X82928170Y33721196D02*
X82928170Y33673577D01*
X82928170Y33673577D02*
X82918646Y33635482D01*
X82918646Y33635482D02*
X82909122Y33616434D01*
X82909122Y33616434D02*
X82899599Y33606910D01*
X82899599Y33606910D02*
X82880551Y33597386D01*
X82880551Y33597386D02*
X82861503Y33597386D01*
X82861503Y33597386D02*
X82842456Y33606910D01*
X82842456Y33606910D02*
X82832932Y33616434D01*
X82832932Y33616434D02*
X82823408Y33635482D01*
X82823408Y33635482D02*
X82813884Y33673577D01*
X82813884Y33673577D02*
X82813884Y33721196D01*
X82813884Y33721196D02*
X82823408Y33759291D01*
X82823408Y33759291D02*
X82832932Y33778339D01*
X82832932Y33778339D02*
X82842456Y33787863D01*
X82842456Y33787863D02*
X82861503Y33797386D01*
X83013884Y33597386D02*
X83013884Y33730720D01*
X83013884Y33711672D02*
X83023408Y33721196D01*
X83023408Y33721196D02*
X83042456Y33730720D01*
X83042456Y33730720D02*
X83071027Y33730720D01*
X83071027Y33730720D02*
X83090075Y33721196D01*
X83090075Y33721196D02*
X83099599Y33702148D01*
X83099599Y33702148D02*
X83099599Y33597386D01*
X83099599Y33702148D02*
X83109122Y33721196D01*
X83109122Y33721196D02*
X83128170Y33730720D01*
X83128170Y33730720D02*
X83156741Y33730720D01*
X83156741Y33730720D02*
X83175789Y33721196D01*
X83175789Y33721196D02*
X83185313Y33702148D01*
X83185313Y33702148D02*
X83185313Y33597386D01*
X83280551Y33597386D02*
X83280551Y33730720D01*
X83280551Y33711672D02*
X83290075Y33721196D01*
X83290075Y33721196D02*
X83309122Y33730720D01*
X83309122Y33730720D02*
X83337694Y33730720D01*
X83337694Y33730720D02*
X83356741Y33721196D01*
X83356741Y33721196D02*
X83366265Y33702148D01*
X83366265Y33702148D02*
X83366265Y33597386D01*
X83366265Y33702148D02*
X83375789Y33721196D01*
X83375789Y33721196D02*
X83394837Y33730720D01*
X83394837Y33730720D02*
X83423408Y33730720D01*
X83423408Y33730720D02*
X83442456Y33721196D01*
X83442456Y33721196D02*
X83451980Y33702148D01*
X83451980Y33702148D02*
X83451980Y33597386D01*
X83842456Y33806910D02*
X83671027Y33549767D01*
X84099599Y33797386D02*
X84118646Y33797386D01*
X84118646Y33797386D02*
X84137694Y33787863D01*
X84137694Y33787863D02*
X84147218Y33778339D01*
X84147218Y33778339D02*
X84156742Y33759291D01*
X84156742Y33759291D02*
X84166265Y33721196D01*
X84166265Y33721196D02*
X84166265Y33673577D01*
X84166265Y33673577D02*
X84156742Y33635482D01*
X84156742Y33635482D02*
X84147218Y33616434D01*
X84147218Y33616434D02*
X84137694Y33606910D01*
X84137694Y33606910D02*
X84118646Y33597386D01*
X84118646Y33597386D02*
X84099599Y33597386D01*
X84099599Y33597386D02*
X84080551Y33606910D01*
X84080551Y33606910D02*
X84071027Y33616434D01*
X84071027Y33616434D02*
X84061503Y33635482D01*
X84061503Y33635482D02*
X84051980Y33673577D01*
X84051980Y33673577D02*
X84051980Y33721196D01*
X84051980Y33721196D02*
X84061503Y33759291D01*
X84061503Y33759291D02*
X84071027Y33778339D01*
X84071027Y33778339D02*
X84080551Y33787863D01*
X84080551Y33787863D02*
X84099599Y33797386D01*
X84251980Y33616434D02*
X84261503Y33606910D01*
X84261503Y33606910D02*
X84251980Y33597386D01*
X84251980Y33597386D02*
X84242456Y33606910D01*
X84242456Y33606910D02*
X84251980Y33616434D01*
X84251980Y33616434D02*
X84251980Y33597386D01*
X84385313Y33797386D02*
X84404361Y33797386D01*
X84404361Y33797386D02*
X84423408Y33787863D01*
X84423408Y33787863D02*
X84432932Y33778339D01*
X84432932Y33778339D02*
X84442456Y33759291D01*
X84442456Y33759291D02*
X84451980Y33721196D01*
X84451980Y33721196D02*
X84451980Y33673577D01*
X84451980Y33673577D02*
X84442456Y33635482D01*
X84442456Y33635482D02*
X84432932Y33616434D01*
X84432932Y33616434D02*
X84423408Y33606910D01*
X84423408Y33606910D02*
X84404361Y33597386D01*
X84404361Y33597386D02*
X84385313Y33597386D01*
X84385313Y33597386D02*
X84366265Y33606910D01*
X84366265Y33606910D02*
X84356742Y33616434D01*
X84356742Y33616434D02*
X84347218Y33635482D01*
X84347218Y33635482D02*
X84337694Y33673577D01*
X84337694Y33673577D02*
X84337694Y33721196D01*
X84337694Y33721196D02*
X84347218Y33759291D01*
X84347218Y33759291D02*
X84356742Y33778339D01*
X84356742Y33778339D02*
X84366265Y33787863D01*
X84366265Y33787863D02*
X84385313Y33797386D01*
X84642456Y33597386D02*
X84528170Y33597386D01*
X84585313Y33597386D02*
X84585313Y33797386D01*
X84585313Y33797386D02*
X84566265Y33768815D01*
X84566265Y33768815D02*
X84547218Y33749767D01*
X84547218Y33749767D02*
X84528170Y33740244D01*
X84832932Y33597386D02*
X84718646Y33597386D01*
X84775789Y33597386D02*
X84775789Y33797386D01*
X84775789Y33797386D02*
X84756742Y33768815D01*
X84756742Y33768815D02*
X84737694Y33749767D01*
X84737694Y33749767D02*
X84718646Y33740244D01*
X84947218Y33711672D02*
X84928170Y33721196D01*
X84928170Y33721196D02*
X84918646Y33730720D01*
X84918646Y33730720D02*
X84909123Y33749767D01*
X84909123Y33749767D02*
X84909123Y33759291D01*
X84909123Y33759291D02*
X84918646Y33778339D01*
X84918646Y33778339D02*
X84928170Y33787863D01*
X84928170Y33787863D02*
X84947218Y33797386D01*
X84947218Y33797386D02*
X84985313Y33797386D01*
X84985313Y33797386D02*
X85004361Y33787863D01*
X85004361Y33787863D02*
X85013884Y33778339D01*
X85013884Y33778339D02*
X85023408Y33759291D01*
X85023408Y33759291D02*
X85023408Y33749767D01*
X85023408Y33749767D02*
X85013884Y33730720D01*
X85013884Y33730720D02*
X85004361Y33721196D01*
X85004361Y33721196D02*
X84985313Y33711672D01*
X84985313Y33711672D02*
X84947218Y33711672D01*
X84947218Y33711672D02*
X84928170Y33702148D01*
X84928170Y33702148D02*
X84918646Y33692625D01*
X84918646Y33692625D02*
X84909123Y33673577D01*
X84909123Y33673577D02*
X84909123Y33635482D01*
X84909123Y33635482D02*
X84918646Y33616434D01*
X84918646Y33616434D02*
X84928170Y33606910D01*
X84928170Y33606910D02*
X84947218Y33597386D01*
X84947218Y33597386D02*
X84985313Y33597386D01*
X84985313Y33597386D02*
X85004361Y33606910D01*
X85004361Y33606910D02*
X85013884Y33616434D01*
X85013884Y33616434D02*
X85023408Y33635482D01*
X85023408Y33635482D02*
X85023408Y33673577D01*
X85023408Y33673577D02*
X85013884Y33692625D01*
X85013884Y33692625D02*
X85004361Y33702148D01*
X85004361Y33702148D02*
X84985313Y33711672D01*
X85099599Y33797386D02*
X85099599Y33759291D01*
X85175789Y33797386D02*
X85175789Y33759291D01*
X85471027Y33521196D02*
X85461504Y33530720D01*
X85461504Y33530720D02*
X85442456Y33559291D01*
X85442456Y33559291D02*
X85432932Y33578339D01*
X85432932Y33578339D02*
X85423408Y33606910D01*
X85423408Y33606910D02*
X85413885Y33654529D01*
X85413885Y33654529D02*
X85413885Y33692625D01*
X85413885Y33692625D02*
X85423408Y33740244D01*
X85423408Y33740244D02*
X85432932Y33768815D01*
X85432932Y33768815D02*
X85442456Y33787863D01*
X85442456Y33787863D02*
X85461504Y33816434D01*
X85461504Y33816434D02*
X85471027Y33825958D01*
X85632932Y33797386D02*
X85594837Y33797386D01*
X85594837Y33797386D02*
X85575789Y33787863D01*
X85575789Y33787863D02*
X85566265Y33778339D01*
X85566265Y33778339D02*
X85547218Y33749767D01*
X85547218Y33749767D02*
X85537694Y33711672D01*
X85537694Y33711672D02*
X85537694Y33635482D01*
X85537694Y33635482D02*
X85547218Y33616434D01*
X85547218Y33616434D02*
X85556742Y33606910D01*
X85556742Y33606910D02*
X85575789Y33597386D01*
X85575789Y33597386D02*
X85613885Y33597386D01*
X85613885Y33597386D02*
X85632932Y33606910D01*
X85632932Y33606910D02*
X85642456Y33616434D01*
X85642456Y33616434D02*
X85651980Y33635482D01*
X85651980Y33635482D02*
X85651980Y33683101D01*
X85651980Y33683101D02*
X85642456Y33702148D01*
X85642456Y33702148D02*
X85632932Y33711672D01*
X85632932Y33711672D02*
X85613885Y33721196D01*
X85613885Y33721196D02*
X85575789Y33721196D01*
X85575789Y33721196D02*
X85556742Y33711672D01*
X85556742Y33711672D02*
X85547218Y33702148D01*
X85547218Y33702148D02*
X85537694Y33683101D01*
X85766265Y33711672D02*
X85747218Y33721196D01*
X85747218Y33721196D02*
X85737694Y33730720D01*
X85737694Y33730720D02*
X85728170Y33749767D01*
X85728170Y33749767D02*
X85728170Y33759291D01*
X85728170Y33759291D02*
X85737694Y33778339D01*
X85737694Y33778339D02*
X85747218Y33787863D01*
X85747218Y33787863D02*
X85766265Y33797386D01*
X85766265Y33797386D02*
X85804361Y33797386D01*
X85804361Y33797386D02*
X85823408Y33787863D01*
X85823408Y33787863D02*
X85832932Y33778339D01*
X85832932Y33778339D02*
X85842456Y33759291D01*
X85842456Y33759291D02*
X85842456Y33749767D01*
X85842456Y33749767D02*
X85832932Y33730720D01*
X85832932Y33730720D02*
X85823408Y33721196D01*
X85823408Y33721196D02*
X85804361Y33711672D01*
X85804361Y33711672D02*
X85766265Y33711672D01*
X85766265Y33711672D02*
X85747218Y33702148D01*
X85747218Y33702148D02*
X85737694Y33692625D01*
X85737694Y33692625D02*
X85728170Y33673577D01*
X85728170Y33673577D02*
X85728170Y33635482D01*
X85728170Y33635482D02*
X85737694Y33616434D01*
X85737694Y33616434D02*
X85747218Y33606910D01*
X85747218Y33606910D02*
X85766265Y33597386D01*
X85766265Y33597386D02*
X85804361Y33597386D01*
X85804361Y33597386D02*
X85823408Y33606910D01*
X85823408Y33606910D02*
X85832932Y33616434D01*
X85832932Y33616434D02*
X85842456Y33635482D01*
X85842456Y33635482D02*
X85842456Y33673577D01*
X85842456Y33673577D02*
X85832932Y33692625D01*
X85832932Y33692625D02*
X85823408Y33702148D01*
X85823408Y33702148D02*
X85804361Y33711672D01*
X86080551Y33597386D02*
X86080551Y33797386D01*
X86166266Y33597386D02*
X86166266Y33702148D01*
X86166266Y33702148D02*
X86156742Y33721196D01*
X86156742Y33721196D02*
X86137694Y33730720D01*
X86137694Y33730720D02*
X86109123Y33730720D01*
X86109123Y33730720D02*
X86090075Y33721196D01*
X86090075Y33721196D02*
X86080551Y33711672D01*
X86290075Y33597386D02*
X86271027Y33606910D01*
X86271027Y33606910D02*
X86261504Y33616434D01*
X86261504Y33616434D02*
X86251980Y33635482D01*
X86251980Y33635482D02*
X86251980Y33692625D01*
X86251980Y33692625D02*
X86261504Y33711672D01*
X86261504Y33711672D02*
X86271027Y33721196D01*
X86271027Y33721196D02*
X86290075Y33730720D01*
X86290075Y33730720D02*
X86318647Y33730720D01*
X86318647Y33730720D02*
X86337694Y33721196D01*
X86337694Y33721196D02*
X86347218Y33711672D01*
X86347218Y33711672D02*
X86356742Y33692625D01*
X86356742Y33692625D02*
X86356742Y33635482D01*
X86356742Y33635482D02*
X86347218Y33616434D01*
X86347218Y33616434D02*
X86337694Y33606910D01*
X86337694Y33606910D02*
X86318647Y33597386D01*
X86318647Y33597386D02*
X86290075Y33597386D01*
X86471027Y33597386D02*
X86451980Y33606910D01*
X86451980Y33606910D02*
X86442456Y33625958D01*
X86442456Y33625958D02*
X86442456Y33797386D01*
X86623408Y33606910D02*
X86604361Y33597386D01*
X86604361Y33597386D02*
X86566266Y33597386D01*
X86566266Y33597386D02*
X86547218Y33606910D01*
X86547218Y33606910D02*
X86537694Y33625958D01*
X86537694Y33625958D02*
X86537694Y33702148D01*
X86537694Y33702148D02*
X86547218Y33721196D01*
X86547218Y33721196D02*
X86566266Y33730720D01*
X86566266Y33730720D02*
X86604361Y33730720D01*
X86604361Y33730720D02*
X86623408Y33721196D01*
X86623408Y33721196D02*
X86632932Y33702148D01*
X86632932Y33702148D02*
X86632932Y33683101D01*
X86632932Y33683101D02*
X86537694Y33664053D01*
X86709123Y33606910D02*
X86728170Y33597386D01*
X86728170Y33597386D02*
X86766266Y33597386D01*
X86766266Y33597386D02*
X86785313Y33606910D01*
X86785313Y33606910D02*
X86794837Y33625958D01*
X86794837Y33625958D02*
X86794837Y33635482D01*
X86794837Y33635482D02*
X86785313Y33654529D01*
X86785313Y33654529D02*
X86766266Y33664053D01*
X86766266Y33664053D02*
X86737694Y33664053D01*
X86737694Y33664053D02*
X86718647Y33673577D01*
X86718647Y33673577D02*
X86709123Y33692625D01*
X86709123Y33692625D02*
X86709123Y33702148D01*
X86709123Y33702148D02*
X86718647Y33721196D01*
X86718647Y33721196D02*
X86737694Y33730720D01*
X86737694Y33730720D02*
X86766266Y33730720D01*
X86766266Y33730720D02*
X86785313Y33721196D01*
X86861504Y33521196D02*
X86871028Y33530720D01*
X86871028Y33530720D02*
X86890075Y33559291D01*
X86890075Y33559291D02*
X86899599Y33578339D01*
X86899599Y33578339D02*
X86909123Y33606910D01*
X86909123Y33606910D02*
X86918647Y33654529D01*
X86918647Y33654529D02*
X86918647Y33692625D01*
X86918647Y33692625D02*
X86909123Y33740244D01*
X86909123Y33740244D02*
X86899599Y33768815D01*
X86899599Y33768815D02*
X86890075Y33787863D01*
X86890075Y33787863D02*
X86871028Y33816434D01*
X86871028Y33816434D02*
X86861504Y33825958D01*
D12*
X81895965Y33424870D02*
G75*
G02*
X81865965Y33424870I-15000J0D01*
G01*
X81865965Y33424870D02*
G75*
G02*
X81895965Y33424870I15000J0D01*
G01*
D11*
X82194837Y33533386D02*
X82213884Y33533386D01*
X82213884Y33533386D02*
X82232932Y33523863D01*
X82232932Y33523863D02*
X82242456Y33514339D01*
X82242456Y33514339D02*
X82251979Y33495291D01*
X82251979Y33495291D02*
X82261503Y33457196D01*
X82261503Y33457196D02*
X82261503Y33409577D01*
X82261503Y33409577D02*
X82251979Y33371482D01*
X82251979Y33371482D02*
X82242456Y33352434D01*
X82242456Y33352434D02*
X82232932Y33342910D01*
X82232932Y33342910D02*
X82213884Y33333386D01*
X82213884Y33333386D02*
X82194837Y33333386D01*
X82194837Y33333386D02*
X82175789Y33342910D01*
X82175789Y33342910D02*
X82166265Y33352434D01*
X82166265Y33352434D02*
X82156741Y33371482D01*
X82156741Y33371482D02*
X82147218Y33409577D01*
X82147218Y33409577D02*
X82147218Y33457196D01*
X82147218Y33457196D02*
X82156741Y33495291D01*
X82156741Y33495291D02*
X82166265Y33514339D01*
X82166265Y33514339D02*
X82175789Y33523863D01*
X82175789Y33523863D02*
X82194837Y33533386D01*
X82347218Y33352434D02*
X82356741Y33342910D01*
X82356741Y33342910D02*
X82347218Y33333386D01*
X82347218Y33333386D02*
X82337694Y33342910D01*
X82337694Y33342910D02*
X82347218Y33352434D01*
X82347218Y33352434D02*
X82347218Y33333386D01*
X82423408Y33533386D02*
X82547218Y33533386D01*
X82547218Y33533386D02*
X82480551Y33457196D01*
X82480551Y33457196D02*
X82509122Y33457196D01*
X82509122Y33457196D02*
X82528170Y33447672D01*
X82528170Y33447672D02*
X82537694Y33438148D01*
X82537694Y33438148D02*
X82547218Y33419101D01*
X82547218Y33419101D02*
X82547218Y33371482D01*
X82547218Y33371482D02*
X82537694Y33352434D01*
X82537694Y33352434D02*
X82528170Y33342910D01*
X82528170Y33342910D02*
X82509122Y33333386D01*
X82509122Y33333386D02*
X82451979Y33333386D01*
X82451979Y33333386D02*
X82432932Y33342910D01*
X82432932Y33342910D02*
X82423408Y33352434D01*
X82671027Y33533386D02*
X82690075Y33533386D01*
X82690075Y33533386D02*
X82709122Y33523863D01*
X82709122Y33523863D02*
X82718646Y33514339D01*
X82718646Y33514339D02*
X82728170Y33495291D01*
X82728170Y33495291D02*
X82737694Y33457196D01*
X82737694Y33457196D02*
X82737694Y33409577D01*
X82737694Y33409577D02*
X82728170Y33371482D01*
X82728170Y33371482D02*
X82718646Y33352434D01*
X82718646Y33352434D02*
X82709122Y33342910D01*
X82709122Y33342910D02*
X82690075Y33333386D01*
X82690075Y33333386D02*
X82671027Y33333386D01*
X82671027Y33333386D02*
X82651979Y33342910D01*
X82651979Y33342910D02*
X82642456Y33352434D01*
X82642456Y33352434D02*
X82632932Y33371482D01*
X82632932Y33371482D02*
X82623408Y33409577D01*
X82623408Y33409577D02*
X82623408Y33457196D01*
X82623408Y33457196D02*
X82632932Y33495291D01*
X82632932Y33495291D02*
X82642456Y33514339D01*
X82642456Y33514339D02*
X82651979Y33523863D01*
X82651979Y33523863D02*
X82671027Y33533386D01*
X82861503Y33533386D02*
X82880551Y33533386D01*
X82880551Y33533386D02*
X82899599Y33523863D01*
X82899599Y33523863D02*
X82909122Y33514339D01*
X82909122Y33514339D02*
X82918646Y33495291D01*
X82918646Y33495291D02*
X82928170Y33457196D01*
X82928170Y33457196D02*
X82928170Y33409577D01*
X82928170Y33409577D02*
X82918646Y33371482D01*
X82918646Y33371482D02*
X82909122Y33352434D01*
X82909122Y33352434D02*
X82899599Y33342910D01*
X82899599Y33342910D02*
X82880551Y33333386D01*
X82880551Y33333386D02*
X82861503Y33333386D01*
X82861503Y33333386D02*
X82842456Y33342910D01*
X82842456Y33342910D02*
X82832932Y33352434D01*
X82832932Y33352434D02*
X82823408Y33371482D01*
X82823408Y33371482D02*
X82813884Y33409577D01*
X82813884Y33409577D02*
X82813884Y33457196D01*
X82813884Y33457196D02*
X82823408Y33495291D01*
X82823408Y33495291D02*
X82832932Y33514339D01*
X82832932Y33514339D02*
X82842456Y33523863D01*
X82842456Y33523863D02*
X82861503Y33533386D01*
X83013884Y33333386D02*
X83013884Y33466720D01*
X83013884Y33447672D02*
X83023408Y33457196D01*
X83023408Y33457196D02*
X83042456Y33466720D01*
X83042456Y33466720D02*
X83071027Y33466720D01*
X83071027Y33466720D02*
X83090075Y33457196D01*
X83090075Y33457196D02*
X83099599Y33438148D01*
X83099599Y33438148D02*
X83099599Y33333386D01*
X83099599Y33438148D02*
X83109122Y33457196D01*
X83109122Y33457196D02*
X83128170Y33466720D01*
X83128170Y33466720D02*
X83156741Y33466720D01*
X83156741Y33466720D02*
X83175789Y33457196D01*
X83175789Y33457196D02*
X83185313Y33438148D01*
X83185313Y33438148D02*
X83185313Y33333386D01*
X83280551Y33333386D02*
X83280551Y33466720D01*
X83280551Y33447672D02*
X83290075Y33457196D01*
X83290075Y33457196D02*
X83309122Y33466720D01*
X83309122Y33466720D02*
X83337694Y33466720D01*
X83337694Y33466720D02*
X83356741Y33457196D01*
X83356741Y33457196D02*
X83366265Y33438148D01*
X83366265Y33438148D02*
X83366265Y33333386D01*
X83366265Y33438148D02*
X83375789Y33457196D01*
X83375789Y33457196D02*
X83394837Y33466720D01*
X83394837Y33466720D02*
X83423408Y33466720D01*
X83423408Y33466720D02*
X83442456Y33457196D01*
X83442456Y33457196D02*
X83451980Y33438148D01*
X83451980Y33438148D02*
X83451980Y33333386D01*
X83842456Y33542910D02*
X83671027Y33285767D01*
X84099599Y33533386D02*
X84118646Y33533386D01*
X84118646Y33533386D02*
X84137694Y33523863D01*
X84137694Y33523863D02*
X84147218Y33514339D01*
X84147218Y33514339D02*
X84156742Y33495291D01*
X84156742Y33495291D02*
X84166265Y33457196D01*
X84166265Y33457196D02*
X84166265Y33409577D01*
X84166265Y33409577D02*
X84156742Y33371482D01*
X84156742Y33371482D02*
X84147218Y33352434D01*
X84147218Y33352434D02*
X84137694Y33342910D01*
X84137694Y33342910D02*
X84118646Y33333386D01*
X84118646Y33333386D02*
X84099599Y33333386D01*
X84099599Y33333386D02*
X84080551Y33342910D01*
X84080551Y33342910D02*
X84071027Y33352434D01*
X84071027Y33352434D02*
X84061503Y33371482D01*
X84061503Y33371482D02*
X84051980Y33409577D01*
X84051980Y33409577D02*
X84051980Y33457196D01*
X84051980Y33457196D02*
X84061503Y33495291D01*
X84061503Y33495291D02*
X84071027Y33514339D01*
X84071027Y33514339D02*
X84080551Y33523863D01*
X84080551Y33523863D02*
X84099599Y33533386D01*
X84251980Y33352434D02*
X84261503Y33342910D01*
X84261503Y33342910D02*
X84251980Y33333386D01*
X84251980Y33333386D02*
X84242456Y33342910D01*
X84242456Y33342910D02*
X84251980Y33352434D01*
X84251980Y33352434D02*
X84251980Y33333386D01*
X84385313Y33533386D02*
X84404361Y33533386D01*
X84404361Y33533386D02*
X84423408Y33523863D01*
X84423408Y33523863D02*
X84432932Y33514339D01*
X84432932Y33514339D02*
X84442456Y33495291D01*
X84442456Y33495291D02*
X84451980Y33457196D01*
X84451980Y33457196D02*
X84451980Y33409577D01*
X84451980Y33409577D02*
X84442456Y33371482D01*
X84442456Y33371482D02*
X84432932Y33352434D01*
X84432932Y33352434D02*
X84423408Y33342910D01*
X84423408Y33342910D02*
X84404361Y33333386D01*
X84404361Y33333386D02*
X84385313Y33333386D01*
X84385313Y33333386D02*
X84366265Y33342910D01*
X84366265Y33342910D02*
X84356742Y33352434D01*
X84356742Y33352434D02*
X84347218Y33371482D01*
X84347218Y33371482D02*
X84337694Y33409577D01*
X84337694Y33409577D02*
X84337694Y33457196D01*
X84337694Y33457196D02*
X84347218Y33495291D01*
X84347218Y33495291D02*
X84356742Y33514339D01*
X84356742Y33514339D02*
X84366265Y33523863D01*
X84366265Y33523863D02*
X84385313Y33533386D01*
X84642456Y33333386D02*
X84528170Y33333386D01*
X84585313Y33333386D02*
X84585313Y33533386D01*
X84585313Y33533386D02*
X84566265Y33504815D01*
X84566265Y33504815D02*
X84547218Y33485767D01*
X84547218Y33485767D02*
X84528170Y33476244D01*
X84832932Y33333386D02*
X84718646Y33333386D01*
X84775789Y33333386D02*
X84775789Y33533386D01*
X84775789Y33533386D02*
X84756742Y33504815D01*
X84756742Y33504815D02*
X84737694Y33485767D01*
X84737694Y33485767D02*
X84718646Y33476244D01*
X84947218Y33447672D02*
X84928170Y33457196D01*
X84928170Y33457196D02*
X84918646Y33466720D01*
X84918646Y33466720D02*
X84909123Y33485767D01*
X84909123Y33485767D02*
X84909123Y33495291D01*
X84909123Y33495291D02*
X84918646Y33514339D01*
X84918646Y33514339D02*
X84928170Y33523863D01*
X84928170Y33523863D02*
X84947218Y33533386D01*
X84947218Y33533386D02*
X84985313Y33533386D01*
X84985313Y33533386D02*
X85004361Y33523863D01*
X85004361Y33523863D02*
X85013884Y33514339D01*
X85013884Y33514339D02*
X85023408Y33495291D01*
X85023408Y33495291D02*
X85023408Y33485767D01*
X85023408Y33485767D02*
X85013884Y33466720D01*
X85013884Y33466720D02*
X85004361Y33457196D01*
X85004361Y33457196D02*
X84985313Y33447672D01*
X84985313Y33447672D02*
X84947218Y33447672D01*
X84947218Y33447672D02*
X84928170Y33438148D01*
X84928170Y33438148D02*
X84918646Y33428624D01*
X84918646Y33428624D02*
X84909123Y33409577D01*
X84909123Y33409577D02*
X84909123Y33371482D01*
X84909123Y33371482D02*
X84918646Y33352434D01*
X84918646Y33352434D02*
X84928170Y33342910D01*
X84928170Y33342910D02*
X84947218Y33333386D01*
X84947218Y33333386D02*
X84985313Y33333386D01*
X84985313Y33333386D02*
X85004361Y33342910D01*
X85004361Y33342910D02*
X85013884Y33352434D01*
X85013884Y33352434D02*
X85023408Y33371482D01*
X85023408Y33371482D02*
X85023408Y33409577D01*
X85023408Y33409577D02*
X85013884Y33428624D01*
X85013884Y33428624D02*
X85004361Y33438148D01*
X85004361Y33438148D02*
X84985313Y33447672D01*
X85099599Y33533386D02*
X85099599Y33495291D01*
X85175789Y33533386D02*
X85175789Y33495291D01*
X85471027Y33257196D02*
X85461504Y33266720D01*
X85461504Y33266720D02*
X85442456Y33295291D01*
X85442456Y33295291D02*
X85432932Y33314339D01*
X85432932Y33314339D02*
X85423408Y33342910D01*
X85423408Y33342910D02*
X85413885Y33390529D01*
X85413885Y33390529D02*
X85413885Y33428624D01*
X85413885Y33428624D02*
X85423408Y33476244D01*
X85423408Y33476244D02*
X85432932Y33504815D01*
X85432932Y33504815D02*
X85442456Y33523863D01*
X85442456Y33523863D02*
X85461504Y33552434D01*
X85461504Y33552434D02*
X85471027Y33561958D01*
X85651980Y33333386D02*
X85537694Y33333386D01*
X85594837Y33333386D02*
X85594837Y33533386D01*
X85594837Y33533386D02*
X85575789Y33504815D01*
X85575789Y33504815D02*
X85556742Y33485767D01*
X85556742Y33485767D02*
X85537694Y33476244D01*
X85890075Y33333386D02*
X85890075Y33533386D01*
X85975789Y33333386D02*
X85975789Y33438148D01*
X85975789Y33438148D02*
X85966266Y33457196D01*
X85966266Y33457196D02*
X85947218Y33466720D01*
X85947218Y33466720D02*
X85918646Y33466720D01*
X85918646Y33466720D02*
X85899599Y33457196D01*
X85899599Y33457196D02*
X85890075Y33447672D01*
X86099599Y33333386D02*
X86080551Y33342910D01*
X86080551Y33342910D02*
X86071027Y33352434D01*
X86071027Y33352434D02*
X86061504Y33371482D01*
X86061504Y33371482D02*
X86061504Y33428624D01*
X86061504Y33428624D02*
X86071027Y33447672D01*
X86071027Y33447672D02*
X86080551Y33457196D01*
X86080551Y33457196D02*
X86099599Y33466720D01*
X86099599Y33466720D02*
X86128170Y33466720D01*
X86128170Y33466720D02*
X86147218Y33457196D01*
X86147218Y33457196D02*
X86156742Y33447672D01*
X86156742Y33447672D02*
X86166266Y33428624D01*
X86166266Y33428624D02*
X86166266Y33371482D01*
X86166266Y33371482D02*
X86156742Y33352434D01*
X86156742Y33352434D02*
X86147218Y33342910D01*
X86147218Y33342910D02*
X86128170Y33333386D01*
X86128170Y33333386D02*
X86099599Y33333386D01*
X86280551Y33333386D02*
X86261504Y33342910D01*
X86261504Y33342910D02*
X86251980Y33361958D01*
X86251980Y33361958D02*
X86251980Y33533386D01*
X86432932Y33342910D02*
X86413885Y33333386D01*
X86413885Y33333386D02*
X86375789Y33333386D01*
X86375789Y33333386D02*
X86356742Y33342910D01*
X86356742Y33342910D02*
X86347218Y33361958D01*
X86347218Y33361958D02*
X86347218Y33438148D01*
X86347218Y33438148D02*
X86356742Y33457196D01*
X86356742Y33457196D02*
X86375789Y33466720D01*
X86375789Y33466720D02*
X86413885Y33466720D01*
X86413885Y33466720D02*
X86432932Y33457196D01*
X86432932Y33457196D02*
X86442456Y33438148D01*
X86442456Y33438148D02*
X86442456Y33419101D01*
X86442456Y33419101D02*
X86347218Y33400053D01*
X86509123Y33257196D02*
X86518647Y33266720D01*
X86518647Y33266720D02*
X86537694Y33295291D01*
X86537694Y33295291D02*
X86547218Y33314339D01*
X86547218Y33314339D02*
X86556742Y33342910D01*
X86556742Y33342910D02*
X86566266Y33390529D01*
X86566266Y33390529D02*
X86566266Y33428624D01*
X86566266Y33428624D02*
X86556742Y33476244D01*
X86556742Y33476244D02*
X86547218Y33504815D01*
X86547218Y33504815D02*
X86537694Y33523863D01*
X86537694Y33523863D02*
X86518647Y33552434D01*
X86518647Y33552434D02*
X86509123Y33561958D01*
D12*
X81858465Y33198370D02*
X81858465Y33123370D01*
X81820965Y33160870D02*
X81895965Y33160870D01*
D11*
X82194837Y33269386D02*
X82213884Y33269386D01*
X82213884Y33269386D02*
X82232932Y33259863D01*
X82232932Y33259863D02*
X82242456Y33250339D01*
X82242456Y33250339D02*
X82251979Y33231291D01*
X82251979Y33231291D02*
X82261503Y33193196D01*
X82261503Y33193196D02*
X82261503Y33145577D01*
X82261503Y33145577D02*
X82251979Y33107482D01*
X82251979Y33107482D02*
X82242456Y33088434D01*
X82242456Y33088434D02*
X82232932Y33078910D01*
X82232932Y33078910D02*
X82213884Y33069386D01*
X82213884Y33069386D02*
X82194837Y33069386D01*
X82194837Y33069386D02*
X82175789Y33078910D01*
X82175789Y33078910D02*
X82166265Y33088434D01*
X82166265Y33088434D02*
X82156741Y33107482D01*
X82156741Y33107482D02*
X82147218Y33145577D01*
X82147218Y33145577D02*
X82147218Y33193196D01*
X82147218Y33193196D02*
X82156741Y33231291D01*
X82156741Y33231291D02*
X82166265Y33250339D01*
X82166265Y33250339D02*
X82175789Y33259863D01*
X82175789Y33259863D02*
X82194837Y33269386D01*
X82347218Y33088434D02*
X82356741Y33078910D01*
X82356741Y33078910D02*
X82347218Y33069386D01*
X82347218Y33069386D02*
X82337694Y33078910D01*
X82337694Y33078910D02*
X82347218Y33088434D01*
X82347218Y33088434D02*
X82347218Y33069386D01*
X82423408Y33269386D02*
X82556741Y33269386D01*
X82556741Y33269386D02*
X82471027Y33069386D01*
X82728170Y33269386D02*
X82632932Y33269386D01*
X82632932Y33269386D02*
X82623408Y33174148D01*
X82623408Y33174148D02*
X82632932Y33183672D01*
X82632932Y33183672D02*
X82651979Y33193196D01*
X82651979Y33193196D02*
X82699599Y33193196D01*
X82699599Y33193196D02*
X82718646Y33183672D01*
X82718646Y33183672D02*
X82728170Y33174148D01*
X82728170Y33174148D02*
X82737694Y33155101D01*
X82737694Y33155101D02*
X82737694Y33107482D01*
X82737694Y33107482D02*
X82728170Y33088434D01*
X82728170Y33088434D02*
X82718646Y33078910D01*
X82718646Y33078910D02*
X82699599Y33069386D01*
X82699599Y33069386D02*
X82651979Y33069386D01*
X82651979Y33069386D02*
X82632932Y33078910D01*
X82632932Y33078910D02*
X82623408Y33088434D01*
X82861503Y33269386D02*
X82880551Y33269386D01*
X82880551Y33269386D02*
X82899599Y33259863D01*
X82899599Y33259863D02*
X82909122Y33250339D01*
X82909122Y33250339D02*
X82918646Y33231291D01*
X82918646Y33231291D02*
X82928170Y33193196D01*
X82928170Y33193196D02*
X82928170Y33145577D01*
X82928170Y33145577D02*
X82918646Y33107482D01*
X82918646Y33107482D02*
X82909122Y33088434D01*
X82909122Y33088434D02*
X82899599Y33078910D01*
X82899599Y33078910D02*
X82880551Y33069386D01*
X82880551Y33069386D02*
X82861503Y33069386D01*
X82861503Y33069386D02*
X82842456Y33078910D01*
X82842456Y33078910D02*
X82832932Y33088434D01*
X82832932Y33088434D02*
X82823408Y33107482D01*
X82823408Y33107482D02*
X82813884Y33145577D01*
X82813884Y33145577D02*
X82813884Y33193196D01*
X82813884Y33193196D02*
X82823408Y33231291D01*
X82823408Y33231291D02*
X82832932Y33250339D01*
X82832932Y33250339D02*
X82842456Y33259863D01*
X82842456Y33259863D02*
X82861503Y33269386D01*
X83013884Y33069386D02*
X83013884Y33202720D01*
X83013884Y33183672D02*
X83023408Y33193196D01*
X83023408Y33193196D02*
X83042456Y33202720D01*
X83042456Y33202720D02*
X83071027Y33202720D01*
X83071027Y33202720D02*
X83090075Y33193196D01*
X83090075Y33193196D02*
X83099599Y33174148D01*
X83099599Y33174148D02*
X83099599Y33069386D01*
X83099599Y33174148D02*
X83109122Y33193196D01*
X83109122Y33193196D02*
X83128170Y33202720D01*
X83128170Y33202720D02*
X83156741Y33202720D01*
X83156741Y33202720D02*
X83175789Y33193196D01*
X83175789Y33193196D02*
X83185313Y33174148D01*
X83185313Y33174148D02*
X83185313Y33069386D01*
X83280551Y33069386D02*
X83280551Y33202720D01*
X83280551Y33183672D02*
X83290075Y33193196D01*
X83290075Y33193196D02*
X83309122Y33202720D01*
X83309122Y33202720D02*
X83337694Y33202720D01*
X83337694Y33202720D02*
X83356741Y33193196D01*
X83356741Y33193196D02*
X83366265Y33174148D01*
X83366265Y33174148D02*
X83366265Y33069386D01*
X83366265Y33174148D02*
X83375789Y33193196D01*
X83375789Y33193196D02*
X83394837Y33202720D01*
X83394837Y33202720D02*
X83423408Y33202720D01*
X83423408Y33202720D02*
X83442456Y33193196D01*
X83442456Y33193196D02*
X83451980Y33174148D01*
X83451980Y33174148D02*
X83451980Y33069386D01*
X83842456Y33278910D02*
X83671027Y33021767D01*
X84099599Y33269386D02*
X84118646Y33269386D01*
X84118646Y33269386D02*
X84137694Y33259863D01*
X84137694Y33259863D02*
X84147218Y33250339D01*
X84147218Y33250339D02*
X84156742Y33231291D01*
X84156742Y33231291D02*
X84166265Y33193196D01*
X84166265Y33193196D02*
X84166265Y33145577D01*
X84166265Y33145577D02*
X84156742Y33107482D01*
X84156742Y33107482D02*
X84147218Y33088434D01*
X84147218Y33088434D02*
X84137694Y33078910D01*
X84137694Y33078910D02*
X84118646Y33069386D01*
X84118646Y33069386D02*
X84099599Y33069386D01*
X84099599Y33069386D02*
X84080551Y33078910D01*
X84080551Y33078910D02*
X84071027Y33088434D01*
X84071027Y33088434D02*
X84061503Y33107482D01*
X84061503Y33107482D02*
X84051980Y33145577D01*
X84051980Y33145577D02*
X84051980Y33193196D01*
X84051980Y33193196D02*
X84061503Y33231291D01*
X84061503Y33231291D02*
X84071027Y33250339D01*
X84071027Y33250339D02*
X84080551Y33259863D01*
X84080551Y33259863D02*
X84099599Y33269386D01*
X84251980Y33088434D02*
X84261503Y33078910D01*
X84261503Y33078910D02*
X84251980Y33069386D01*
X84251980Y33069386D02*
X84242456Y33078910D01*
X84242456Y33078910D02*
X84251980Y33088434D01*
X84251980Y33088434D02*
X84251980Y33069386D01*
X84385313Y33269386D02*
X84404361Y33269386D01*
X84404361Y33269386D02*
X84423408Y33259863D01*
X84423408Y33259863D02*
X84432932Y33250339D01*
X84432932Y33250339D02*
X84442456Y33231291D01*
X84442456Y33231291D02*
X84451980Y33193196D01*
X84451980Y33193196D02*
X84451980Y33145577D01*
X84451980Y33145577D02*
X84442456Y33107482D01*
X84442456Y33107482D02*
X84432932Y33088434D01*
X84432932Y33088434D02*
X84423408Y33078910D01*
X84423408Y33078910D02*
X84404361Y33069386D01*
X84404361Y33069386D02*
X84385313Y33069386D01*
X84385313Y33069386D02*
X84366265Y33078910D01*
X84366265Y33078910D02*
X84356742Y33088434D01*
X84356742Y33088434D02*
X84347218Y33107482D01*
X84347218Y33107482D02*
X84337694Y33145577D01*
X84337694Y33145577D02*
X84337694Y33193196D01*
X84337694Y33193196D02*
X84347218Y33231291D01*
X84347218Y33231291D02*
X84356742Y33250339D01*
X84356742Y33250339D02*
X84366265Y33259863D01*
X84366265Y33259863D02*
X84385313Y33269386D01*
X84528170Y33250339D02*
X84537694Y33259863D01*
X84537694Y33259863D02*
X84556742Y33269386D01*
X84556742Y33269386D02*
X84604361Y33269386D01*
X84604361Y33269386D02*
X84623408Y33259863D01*
X84623408Y33259863D02*
X84632932Y33250339D01*
X84632932Y33250339D02*
X84642456Y33231291D01*
X84642456Y33231291D02*
X84642456Y33212244D01*
X84642456Y33212244D02*
X84632932Y33183672D01*
X84632932Y33183672D02*
X84518646Y33069386D01*
X84518646Y33069386D02*
X84642456Y33069386D01*
X84737694Y33069386D02*
X84775789Y33069386D01*
X84775789Y33069386D02*
X84794837Y33078910D01*
X84794837Y33078910D02*
X84804361Y33088434D01*
X84804361Y33088434D02*
X84823408Y33117005D01*
X84823408Y33117005D02*
X84832932Y33155101D01*
X84832932Y33155101D02*
X84832932Y33231291D01*
X84832932Y33231291D02*
X84823408Y33250339D01*
X84823408Y33250339D02*
X84813884Y33259863D01*
X84813884Y33259863D02*
X84794837Y33269386D01*
X84794837Y33269386D02*
X84756742Y33269386D01*
X84756742Y33269386D02*
X84737694Y33259863D01*
X84737694Y33259863D02*
X84728170Y33250339D01*
X84728170Y33250339D02*
X84718646Y33231291D01*
X84718646Y33231291D02*
X84718646Y33183672D01*
X84718646Y33183672D02*
X84728170Y33164624D01*
X84728170Y33164624D02*
X84737694Y33155101D01*
X84737694Y33155101D02*
X84756742Y33145577D01*
X84756742Y33145577D02*
X84794837Y33145577D01*
X84794837Y33145577D02*
X84813884Y33155101D01*
X84813884Y33155101D02*
X84823408Y33164624D01*
X84823408Y33164624D02*
X84832932Y33183672D01*
X85013884Y33269386D02*
X84918646Y33269386D01*
X84918646Y33269386D02*
X84909123Y33174148D01*
X84909123Y33174148D02*
X84918646Y33183672D01*
X84918646Y33183672D02*
X84937694Y33193196D01*
X84937694Y33193196D02*
X84985313Y33193196D01*
X84985313Y33193196D02*
X85004361Y33183672D01*
X85004361Y33183672D02*
X85013884Y33174148D01*
X85013884Y33174148D02*
X85023408Y33155101D01*
X85023408Y33155101D02*
X85023408Y33107482D01*
X85023408Y33107482D02*
X85013884Y33088434D01*
X85013884Y33088434D02*
X85004361Y33078910D01*
X85004361Y33078910D02*
X84985313Y33069386D01*
X84985313Y33069386D02*
X84937694Y33069386D01*
X84937694Y33069386D02*
X84918646Y33078910D01*
X84918646Y33078910D02*
X84909123Y33088434D01*
X85099599Y33269386D02*
X85099599Y33231291D01*
X85175789Y33269386D02*
X85175789Y33231291D01*
X85471027Y32993196D02*
X85461504Y33002720D01*
X85461504Y33002720D02*
X85442456Y33031291D01*
X85442456Y33031291D02*
X85432932Y33050339D01*
X85432932Y33050339D02*
X85423408Y33078910D01*
X85423408Y33078910D02*
X85413885Y33126529D01*
X85413885Y33126529D02*
X85413885Y33164624D01*
X85413885Y33164624D02*
X85423408Y33212244D01*
X85423408Y33212244D02*
X85432932Y33240815D01*
X85432932Y33240815D02*
X85442456Y33259863D01*
X85442456Y33259863D02*
X85461504Y33288434D01*
X85461504Y33288434D02*
X85471027Y33297958D01*
X85642456Y33269386D02*
X85547218Y33269386D01*
X85547218Y33269386D02*
X85537694Y33174148D01*
X85537694Y33174148D02*
X85547218Y33183672D01*
X85547218Y33183672D02*
X85566265Y33193196D01*
X85566265Y33193196D02*
X85613885Y33193196D01*
X85613885Y33193196D02*
X85632932Y33183672D01*
X85632932Y33183672D02*
X85642456Y33174148D01*
X85642456Y33174148D02*
X85651980Y33155101D01*
X85651980Y33155101D02*
X85651980Y33107482D01*
X85651980Y33107482D02*
X85642456Y33088434D01*
X85642456Y33088434D02*
X85632932Y33078910D01*
X85632932Y33078910D02*
X85613885Y33069386D01*
X85613885Y33069386D02*
X85566265Y33069386D01*
X85566265Y33069386D02*
X85547218Y33078910D01*
X85547218Y33078910D02*
X85537694Y33088434D01*
X85890075Y33069386D02*
X85890075Y33269386D01*
X85975789Y33069386D02*
X85975789Y33174148D01*
X85975789Y33174148D02*
X85966266Y33193196D01*
X85966266Y33193196D02*
X85947218Y33202720D01*
X85947218Y33202720D02*
X85918646Y33202720D01*
X85918646Y33202720D02*
X85899599Y33193196D01*
X85899599Y33193196D02*
X85890075Y33183672D01*
X86099599Y33069386D02*
X86080551Y33078910D01*
X86080551Y33078910D02*
X86071027Y33088434D01*
X86071027Y33088434D02*
X86061504Y33107482D01*
X86061504Y33107482D02*
X86061504Y33164624D01*
X86061504Y33164624D02*
X86071027Y33183672D01*
X86071027Y33183672D02*
X86080551Y33193196D01*
X86080551Y33193196D02*
X86099599Y33202720D01*
X86099599Y33202720D02*
X86128170Y33202720D01*
X86128170Y33202720D02*
X86147218Y33193196D01*
X86147218Y33193196D02*
X86156742Y33183672D01*
X86156742Y33183672D02*
X86166266Y33164624D01*
X86166266Y33164624D02*
X86166266Y33107482D01*
X86166266Y33107482D02*
X86156742Y33088434D01*
X86156742Y33088434D02*
X86147218Y33078910D01*
X86147218Y33078910D02*
X86128170Y33069386D01*
X86128170Y33069386D02*
X86099599Y33069386D01*
X86280551Y33069386D02*
X86261504Y33078910D01*
X86261504Y33078910D02*
X86251980Y33097958D01*
X86251980Y33097958D02*
X86251980Y33269386D01*
X86432932Y33078910D02*
X86413885Y33069386D01*
X86413885Y33069386D02*
X86375789Y33069386D01*
X86375789Y33069386D02*
X86356742Y33078910D01*
X86356742Y33078910D02*
X86347218Y33097958D01*
X86347218Y33097958D02*
X86347218Y33174148D01*
X86347218Y33174148D02*
X86356742Y33193196D01*
X86356742Y33193196D02*
X86375789Y33202720D01*
X86375789Y33202720D02*
X86413885Y33202720D01*
X86413885Y33202720D02*
X86432932Y33193196D01*
X86432932Y33193196D02*
X86442456Y33174148D01*
X86442456Y33174148D02*
X86442456Y33155101D01*
X86442456Y33155101D02*
X86347218Y33136053D01*
X86518647Y33078910D02*
X86537694Y33069386D01*
X86537694Y33069386D02*
X86575789Y33069386D01*
X86575789Y33069386D02*
X86594837Y33078910D01*
X86594837Y33078910D02*
X86604361Y33097958D01*
X86604361Y33097958D02*
X86604361Y33107482D01*
X86604361Y33107482D02*
X86594837Y33126529D01*
X86594837Y33126529D02*
X86575789Y33136053D01*
X86575789Y33136053D02*
X86547218Y33136053D01*
X86547218Y33136053D02*
X86528170Y33145577D01*
X86528170Y33145577D02*
X86518647Y33164624D01*
X86518647Y33164624D02*
X86518647Y33174148D01*
X86518647Y33174148D02*
X86528170Y33193196D01*
X86528170Y33193196D02*
X86547218Y33202720D01*
X86547218Y33202720D02*
X86575789Y33202720D01*
X86575789Y33202720D02*
X86594837Y33193196D01*
X86671028Y32993196D02*
X86680551Y33002720D01*
X86680551Y33002720D02*
X86699599Y33031291D01*
X86699599Y33031291D02*
X86709123Y33050339D01*
X86709123Y33050339D02*
X86718647Y33078910D01*
X86718647Y33078910D02*
X86728170Y33126529D01*
X86728170Y33126529D02*
X86728170Y33164624D01*
X86728170Y33164624D02*
X86718647Y33212244D01*
X86718647Y33212244D02*
X86709123Y33240815D01*
X86709123Y33240815D02*
X86699599Y33259863D01*
X86699599Y33259863D02*
X86680551Y33288434D01*
X86680551Y33288434D02*
X86671028Y33297958D01*
D12*
X81881320Y32861515D02*
X81881320Y32932226D01*
X81810609Y32932226D01*
X81810609Y32861515D01*
X81881320Y32861515D01*
D11*
X82261503Y32805386D02*
X82147218Y32805386D01*
X82204360Y32805386D02*
X82204360Y33005386D01*
X82204360Y33005386D02*
X82185313Y32976815D01*
X82185313Y32976815D02*
X82166265Y32957767D01*
X82166265Y32957767D02*
X82147218Y32948244D01*
X82347218Y32824434D02*
X82356741Y32814910D01*
X82356741Y32814910D02*
X82347218Y32805386D01*
X82347218Y32805386D02*
X82337694Y32814910D01*
X82337694Y32814910D02*
X82347218Y32824434D01*
X82347218Y32824434D02*
X82347218Y32805386D01*
X82480551Y33005386D02*
X82499599Y33005386D01*
X82499599Y33005386D02*
X82518646Y32995863D01*
X82518646Y32995863D02*
X82528170Y32986339D01*
X82528170Y32986339D02*
X82537694Y32967291D01*
X82537694Y32967291D02*
X82547218Y32929196D01*
X82547218Y32929196D02*
X82547218Y32881577D01*
X82547218Y32881577D02*
X82537694Y32843482D01*
X82537694Y32843482D02*
X82528170Y32824434D01*
X82528170Y32824434D02*
X82518646Y32814910D01*
X82518646Y32814910D02*
X82499599Y32805386D01*
X82499599Y32805386D02*
X82480551Y32805386D01*
X82480551Y32805386D02*
X82461503Y32814910D01*
X82461503Y32814910D02*
X82451979Y32824434D01*
X82451979Y32824434D02*
X82442456Y32843482D01*
X82442456Y32843482D02*
X82432932Y32881577D01*
X82432932Y32881577D02*
X82432932Y32929196D01*
X82432932Y32929196D02*
X82442456Y32967291D01*
X82442456Y32967291D02*
X82451979Y32986339D01*
X82451979Y32986339D02*
X82461503Y32995863D01*
X82461503Y32995863D02*
X82480551Y33005386D01*
X82671027Y33005386D02*
X82690075Y33005386D01*
X82690075Y33005386D02*
X82709122Y32995863D01*
X82709122Y32995863D02*
X82718646Y32986339D01*
X82718646Y32986339D02*
X82728170Y32967291D01*
X82728170Y32967291D02*
X82737694Y32929196D01*
X82737694Y32929196D02*
X82737694Y32881577D01*
X82737694Y32881577D02*
X82728170Y32843482D01*
X82728170Y32843482D02*
X82718646Y32824434D01*
X82718646Y32824434D02*
X82709122Y32814910D01*
X82709122Y32814910D02*
X82690075Y32805386D01*
X82690075Y32805386D02*
X82671027Y32805386D01*
X82671027Y32805386D02*
X82651979Y32814910D01*
X82651979Y32814910D02*
X82642456Y32824434D01*
X82642456Y32824434D02*
X82632932Y32843482D01*
X82632932Y32843482D02*
X82623408Y32881577D01*
X82623408Y32881577D02*
X82623408Y32929196D01*
X82623408Y32929196D02*
X82632932Y32967291D01*
X82632932Y32967291D02*
X82642456Y32986339D01*
X82642456Y32986339D02*
X82651979Y32995863D01*
X82651979Y32995863D02*
X82671027Y33005386D01*
X82861503Y33005386D02*
X82880551Y33005386D01*
X82880551Y33005386D02*
X82899599Y32995863D01*
X82899599Y32995863D02*
X82909122Y32986339D01*
X82909122Y32986339D02*
X82918646Y32967291D01*
X82918646Y32967291D02*
X82928170Y32929196D01*
X82928170Y32929196D02*
X82928170Y32881577D01*
X82928170Y32881577D02*
X82918646Y32843482D01*
X82918646Y32843482D02*
X82909122Y32824434D01*
X82909122Y32824434D02*
X82899599Y32814910D01*
X82899599Y32814910D02*
X82880551Y32805386D01*
X82880551Y32805386D02*
X82861503Y32805386D01*
X82861503Y32805386D02*
X82842456Y32814910D01*
X82842456Y32814910D02*
X82832932Y32824434D01*
X82832932Y32824434D02*
X82823408Y32843482D01*
X82823408Y32843482D02*
X82813884Y32881577D01*
X82813884Y32881577D02*
X82813884Y32929196D01*
X82813884Y32929196D02*
X82823408Y32967291D01*
X82823408Y32967291D02*
X82832932Y32986339D01*
X82832932Y32986339D02*
X82842456Y32995863D01*
X82842456Y32995863D02*
X82861503Y33005386D01*
X83013884Y32805386D02*
X83013884Y32938720D01*
X83013884Y32919672D02*
X83023408Y32929196D01*
X83023408Y32929196D02*
X83042456Y32938720D01*
X83042456Y32938720D02*
X83071027Y32938720D01*
X83071027Y32938720D02*
X83090075Y32929196D01*
X83090075Y32929196D02*
X83099599Y32910148D01*
X83099599Y32910148D02*
X83099599Y32805386D01*
X83099599Y32910148D02*
X83109122Y32929196D01*
X83109122Y32929196D02*
X83128170Y32938720D01*
X83128170Y32938720D02*
X83156741Y32938720D01*
X83156741Y32938720D02*
X83175789Y32929196D01*
X83175789Y32929196D02*
X83185313Y32910148D01*
X83185313Y32910148D02*
X83185313Y32805386D01*
X83280551Y32805386D02*
X83280551Y32938720D01*
X83280551Y32919672D02*
X83290075Y32929196D01*
X83290075Y32929196D02*
X83309122Y32938720D01*
X83309122Y32938720D02*
X83337694Y32938720D01*
X83337694Y32938720D02*
X83356741Y32929196D01*
X83356741Y32929196D02*
X83366265Y32910148D01*
X83366265Y32910148D02*
X83366265Y32805386D01*
X83366265Y32910148D02*
X83375789Y32929196D01*
X83375789Y32929196D02*
X83394837Y32938720D01*
X83394837Y32938720D02*
X83423408Y32938720D01*
X83423408Y32938720D02*
X83442456Y32929196D01*
X83442456Y32929196D02*
X83451980Y32910148D01*
X83451980Y32910148D02*
X83451980Y32805386D01*
X83842456Y33014910D02*
X83671027Y32757767D01*
X84099599Y33005386D02*
X84118646Y33005386D01*
X84118646Y33005386D02*
X84137694Y32995863D01*
X84137694Y32995863D02*
X84147218Y32986339D01*
X84147218Y32986339D02*
X84156742Y32967291D01*
X84156742Y32967291D02*
X84166265Y32929196D01*
X84166265Y32929196D02*
X84166265Y32881577D01*
X84166265Y32881577D02*
X84156742Y32843482D01*
X84156742Y32843482D02*
X84147218Y32824434D01*
X84147218Y32824434D02*
X84137694Y32814910D01*
X84137694Y32814910D02*
X84118646Y32805386D01*
X84118646Y32805386D02*
X84099599Y32805386D01*
X84099599Y32805386D02*
X84080551Y32814910D01*
X84080551Y32814910D02*
X84071027Y32824434D01*
X84071027Y32824434D02*
X84061503Y32843482D01*
X84061503Y32843482D02*
X84051980Y32881577D01*
X84051980Y32881577D02*
X84051980Y32929196D01*
X84051980Y32929196D02*
X84061503Y32967291D01*
X84061503Y32967291D02*
X84071027Y32986339D01*
X84071027Y32986339D02*
X84080551Y32995863D01*
X84080551Y32995863D02*
X84099599Y33005386D01*
X84251980Y32824434D02*
X84261503Y32814910D01*
X84261503Y32814910D02*
X84251980Y32805386D01*
X84251980Y32805386D02*
X84242456Y32814910D01*
X84242456Y32814910D02*
X84251980Y32824434D01*
X84251980Y32824434D02*
X84251980Y32805386D01*
X84385313Y33005386D02*
X84404361Y33005386D01*
X84404361Y33005386D02*
X84423408Y32995863D01*
X84423408Y32995863D02*
X84432932Y32986339D01*
X84432932Y32986339D02*
X84442456Y32967291D01*
X84442456Y32967291D02*
X84451980Y32929196D01*
X84451980Y32929196D02*
X84451980Y32881577D01*
X84451980Y32881577D02*
X84442456Y32843482D01*
X84442456Y32843482D02*
X84432932Y32824434D01*
X84432932Y32824434D02*
X84423408Y32814910D01*
X84423408Y32814910D02*
X84404361Y32805386D01*
X84404361Y32805386D02*
X84385313Y32805386D01*
X84385313Y32805386D02*
X84366265Y32814910D01*
X84366265Y32814910D02*
X84356742Y32824434D01*
X84356742Y32824434D02*
X84347218Y32843482D01*
X84347218Y32843482D02*
X84337694Y32881577D01*
X84337694Y32881577D02*
X84337694Y32929196D01*
X84337694Y32929196D02*
X84347218Y32967291D01*
X84347218Y32967291D02*
X84356742Y32986339D01*
X84356742Y32986339D02*
X84366265Y32995863D01*
X84366265Y32995863D02*
X84385313Y33005386D01*
X84518646Y33005386D02*
X84642456Y33005386D01*
X84642456Y33005386D02*
X84575789Y32929196D01*
X84575789Y32929196D02*
X84604361Y32929196D01*
X84604361Y32929196D02*
X84623408Y32919672D01*
X84623408Y32919672D02*
X84632932Y32910148D01*
X84632932Y32910148D02*
X84642456Y32891101D01*
X84642456Y32891101D02*
X84642456Y32843482D01*
X84642456Y32843482D02*
X84632932Y32824434D01*
X84632932Y32824434D02*
X84623408Y32814910D01*
X84623408Y32814910D02*
X84604361Y32805386D01*
X84604361Y32805386D02*
X84547218Y32805386D01*
X84547218Y32805386D02*
X84528170Y32814910D01*
X84528170Y32814910D02*
X84518646Y32824434D01*
X84737694Y32805386D02*
X84775789Y32805386D01*
X84775789Y32805386D02*
X84794837Y32814910D01*
X84794837Y32814910D02*
X84804361Y32824434D01*
X84804361Y32824434D02*
X84823408Y32853005D01*
X84823408Y32853005D02*
X84832932Y32891101D01*
X84832932Y32891101D02*
X84832932Y32967291D01*
X84832932Y32967291D02*
X84823408Y32986339D01*
X84823408Y32986339D02*
X84813884Y32995863D01*
X84813884Y32995863D02*
X84794837Y33005386D01*
X84794837Y33005386D02*
X84756742Y33005386D01*
X84756742Y33005386D02*
X84737694Y32995863D01*
X84737694Y32995863D02*
X84728170Y32986339D01*
X84728170Y32986339D02*
X84718646Y32967291D01*
X84718646Y32967291D02*
X84718646Y32919672D01*
X84718646Y32919672D02*
X84728170Y32900624D01*
X84728170Y32900624D02*
X84737694Y32891101D01*
X84737694Y32891101D02*
X84756742Y32881577D01*
X84756742Y32881577D02*
X84794837Y32881577D01*
X84794837Y32881577D02*
X84813884Y32891101D01*
X84813884Y32891101D02*
X84823408Y32900624D01*
X84823408Y32900624D02*
X84832932Y32919672D01*
X85004361Y32938720D02*
X85004361Y32805386D01*
X84956742Y33014910D02*
X84909123Y32872053D01*
X84909123Y32872053D02*
X85032932Y32872053D01*
X85099599Y33005386D02*
X85099599Y32967291D01*
X85175789Y33005386D02*
X85175789Y32967291D01*
X85471027Y32729196D02*
X85461504Y32738720D01*
X85461504Y32738720D02*
X85442456Y32767291D01*
X85442456Y32767291D02*
X85432932Y32786339D01*
X85432932Y32786339D02*
X85423408Y32814910D01*
X85423408Y32814910D02*
X85413885Y32862529D01*
X85413885Y32862529D02*
X85413885Y32900624D01*
X85413885Y32900624D02*
X85423408Y32948244D01*
X85423408Y32948244D02*
X85432932Y32976815D01*
X85432932Y32976815D02*
X85442456Y32995863D01*
X85442456Y32995863D02*
X85461504Y33024434D01*
X85461504Y33024434D02*
X85471027Y33033958D01*
X85632932Y32938720D02*
X85632932Y32805386D01*
X85585313Y33014910D02*
X85537694Y32872053D01*
X85537694Y32872053D02*
X85661504Y32872053D01*
X85890075Y32805386D02*
X85890075Y33005386D01*
X85975789Y32805386D02*
X85975789Y32910148D01*
X85975789Y32910148D02*
X85966266Y32929196D01*
X85966266Y32929196D02*
X85947218Y32938720D01*
X85947218Y32938720D02*
X85918646Y32938720D01*
X85918646Y32938720D02*
X85899599Y32929196D01*
X85899599Y32929196D02*
X85890075Y32919672D01*
X86099599Y32805386D02*
X86080551Y32814910D01*
X86080551Y32814910D02*
X86071027Y32824434D01*
X86071027Y32824434D02*
X86061504Y32843482D01*
X86061504Y32843482D02*
X86061504Y32900624D01*
X86061504Y32900624D02*
X86071027Y32919672D01*
X86071027Y32919672D02*
X86080551Y32929196D01*
X86080551Y32929196D02*
X86099599Y32938720D01*
X86099599Y32938720D02*
X86128170Y32938720D01*
X86128170Y32938720D02*
X86147218Y32929196D01*
X86147218Y32929196D02*
X86156742Y32919672D01*
X86156742Y32919672D02*
X86166266Y32900624D01*
X86166266Y32900624D02*
X86166266Y32843482D01*
X86166266Y32843482D02*
X86156742Y32824434D01*
X86156742Y32824434D02*
X86147218Y32814910D01*
X86147218Y32814910D02*
X86128170Y32805386D01*
X86128170Y32805386D02*
X86099599Y32805386D01*
X86280551Y32805386D02*
X86261504Y32814910D01*
X86261504Y32814910D02*
X86251980Y32833958D01*
X86251980Y32833958D02*
X86251980Y33005386D01*
X86432932Y32814910D02*
X86413885Y32805386D01*
X86413885Y32805386D02*
X86375789Y32805386D01*
X86375789Y32805386D02*
X86356742Y32814910D01*
X86356742Y32814910D02*
X86347218Y32833958D01*
X86347218Y32833958D02*
X86347218Y32910148D01*
X86347218Y32910148D02*
X86356742Y32929196D01*
X86356742Y32929196D02*
X86375789Y32938720D01*
X86375789Y32938720D02*
X86413885Y32938720D01*
X86413885Y32938720D02*
X86432932Y32929196D01*
X86432932Y32929196D02*
X86442456Y32910148D01*
X86442456Y32910148D02*
X86442456Y32891101D01*
X86442456Y32891101D02*
X86347218Y32872053D01*
X86518647Y32814910D02*
X86537694Y32805386D01*
X86537694Y32805386D02*
X86575789Y32805386D01*
X86575789Y32805386D02*
X86594837Y32814910D01*
X86594837Y32814910D02*
X86604361Y32833958D01*
X86604361Y32833958D02*
X86604361Y32843482D01*
X86604361Y32843482D02*
X86594837Y32862529D01*
X86594837Y32862529D02*
X86575789Y32872053D01*
X86575789Y32872053D02*
X86547218Y32872053D01*
X86547218Y32872053D02*
X86528170Y32881577D01*
X86528170Y32881577D02*
X86518647Y32900624D01*
X86518647Y32900624D02*
X86518647Y32910148D01*
X86518647Y32910148D02*
X86528170Y32929196D01*
X86528170Y32929196D02*
X86547218Y32938720D01*
X86547218Y32938720D02*
X86575789Y32938720D01*
X86575789Y32938720D02*
X86594837Y32929196D01*
X86671028Y32729196D02*
X86680551Y32738720D01*
X86680551Y32738720D02*
X86699599Y32767291D01*
X86699599Y32767291D02*
X86709123Y32786339D01*
X86709123Y32786339D02*
X86718647Y32814910D01*
X86718647Y32814910D02*
X86728170Y32862529D01*
X86728170Y32862529D02*
X86728170Y32900624D01*
X86728170Y32900624D02*
X86718647Y32948244D01*
X86718647Y32948244D02*
X86709123Y32976815D01*
X86709123Y32976815D02*
X86699599Y32995863D01*
X86699599Y32995863D02*
X86680551Y33024434D01*
X86680551Y33024434D02*
X86671028Y33033958D01*
D13*
X81810965Y32547870D02*
X81895965Y32632870D01*
X81810965Y32717870D01*
X81725965Y32632870D01*
X81810965Y32547870D01*
D11*
X82261503Y32541386D02*
X82147218Y32541386D01*
X82204360Y32541386D02*
X82204360Y32741386D01*
X82204360Y32741386D02*
X82185313Y32712815D01*
X82185313Y32712815D02*
X82166265Y32693767D01*
X82166265Y32693767D02*
X82147218Y32684244D01*
X82347218Y32560434D02*
X82356741Y32550910D01*
X82356741Y32550910D02*
X82347218Y32541386D01*
X82347218Y32541386D02*
X82337694Y32550910D01*
X82337694Y32550910D02*
X82347218Y32560434D01*
X82347218Y32560434D02*
X82347218Y32541386D01*
X82423408Y32741386D02*
X82556741Y32741386D01*
X82556741Y32741386D02*
X82471027Y32541386D01*
X82671027Y32741386D02*
X82690075Y32741386D01*
X82690075Y32741386D02*
X82709122Y32731863D01*
X82709122Y32731863D02*
X82718646Y32722339D01*
X82718646Y32722339D02*
X82728170Y32703291D01*
X82728170Y32703291D02*
X82737694Y32665196D01*
X82737694Y32665196D02*
X82737694Y32617577D01*
X82737694Y32617577D02*
X82728170Y32579482D01*
X82728170Y32579482D02*
X82718646Y32560434D01*
X82718646Y32560434D02*
X82709122Y32550910D01*
X82709122Y32550910D02*
X82690075Y32541386D01*
X82690075Y32541386D02*
X82671027Y32541386D01*
X82671027Y32541386D02*
X82651979Y32550910D01*
X82651979Y32550910D02*
X82642456Y32560434D01*
X82642456Y32560434D02*
X82632932Y32579482D01*
X82632932Y32579482D02*
X82623408Y32617577D01*
X82623408Y32617577D02*
X82623408Y32665196D01*
X82623408Y32665196D02*
X82632932Y32703291D01*
X82632932Y32703291D02*
X82642456Y32722339D01*
X82642456Y32722339D02*
X82651979Y32731863D01*
X82651979Y32731863D02*
X82671027Y32741386D01*
X82861503Y32741386D02*
X82880551Y32741386D01*
X82880551Y32741386D02*
X82899599Y32731863D01*
X82899599Y32731863D02*
X82909122Y32722339D01*
X82909122Y32722339D02*
X82918646Y32703291D01*
X82918646Y32703291D02*
X82928170Y32665196D01*
X82928170Y32665196D02*
X82928170Y32617577D01*
X82928170Y32617577D02*
X82918646Y32579482D01*
X82918646Y32579482D02*
X82909122Y32560434D01*
X82909122Y32560434D02*
X82899599Y32550910D01*
X82899599Y32550910D02*
X82880551Y32541386D01*
X82880551Y32541386D02*
X82861503Y32541386D01*
X82861503Y32541386D02*
X82842456Y32550910D01*
X82842456Y32550910D02*
X82832932Y32560434D01*
X82832932Y32560434D02*
X82823408Y32579482D01*
X82823408Y32579482D02*
X82813884Y32617577D01*
X82813884Y32617577D02*
X82813884Y32665196D01*
X82813884Y32665196D02*
X82823408Y32703291D01*
X82823408Y32703291D02*
X82832932Y32722339D01*
X82832932Y32722339D02*
X82842456Y32731863D01*
X82842456Y32731863D02*
X82861503Y32741386D01*
X83013884Y32541386D02*
X83013884Y32674720D01*
X83013884Y32655672D02*
X83023408Y32665196D01*
X83023408Y32665196D02*
X83042456Y32674720D01*
X83042456Y32674720D02*
X83071027Y32674720D01*
X83071027Y32674720D02*
X83090075Y32665196D01*
X83090075Y32665196D02*
X83099599Y32646148D01*
X83099599Y32646148D02*
X83099599Y32541386D01*
X83099599Y32646148D02*
X83109122Y32665196D01*
X83109122Y32665196D02*
X83128170Y32674720D01*
X83128170Y32674720D02*
X83156741Y32674720D01*
X83156741Y32674720D02*
X83175789Y32665196D01*
X83175789Y32665196D02*
X83185313Y32646148D01*
X83185313Y32646148D02*
X83185313Y32541386D01*
X83280551Y32541386D02*
X83280551Y32674720D01*
X83280551Y32655672D02*
X83290075Y32665196D01*
X83290075Y32665196D02*
X83309122Y32674720D01*
X83309122Y32674720D02*
X83337694Y32674720D01*
X83337694Y32674720D02*
X83356741Y32665196D01*
X83356741Y32665196D02*
X83366265Y32646148D01*
X83366265Y32646148D02*
X83366265Y32541386D01*
X83366265Y32646148D02*
X83375789Y32665196D01*
X83375789Y32665196D02*
X83394837Y32674720D01*
X83394837Y32674720D02*
X83423408Y32674720D01*
X83423408Y32674720D02*
X83442456Y32665196D01*
X83442456Y32665196D02*
X83451980Y32646148D01*
X83451980Y32646148D02*
X83451980Y32541386D01*
X83842456Y32750910D02*
X83671027Y32493767D01*
X84099599Y32741386D02*
X84118646Y32741386D01*
X84118646Y32741386D02*
X84137694Y32731863D01*
X84137694Y32731863D02*
X84147218Y32722339D01*
X84147218Y32722339D02*
X84156742Y32703291D01*
X84156742Y32703291D02*
X84166265Y32665196D01*
X84166265Y32665196D02*
X84166265Y32617577D01*
X84166265Y32617577D02*
X84156742Y32579482D01*
X84156742Y32579482D02*
X84147218Y32560434D01*
X84147218Y32560434D02*
X84137694Y32550910D01*
X84137694Y32550910D02*
X84118646Y32541386D01*
X84118646Y32541386D02*
X84099599Y32541386D01*
X84099599Y32541386D02*
X84080551Y32550910D01*
X84080551Y32550910D02*
X84071027Y32560434D01*
X84071027Y32560434D02*
X84061503Y32579482D01*
X84061503Y32579482D02*
X84051980Y32617577D01*
X84051980Y32617577D02*
X84051980Y32665196D01*
X84051980Y32665196D02*
X84061503Y32703291D01*
X84061503Y32703291D02*
X84071027Y32722339D01*
X84071027Y32722339D02*
X84080551Y32731863D01*
X84080551Y32731863D02*
X84099599Y32741386D01*
X84251980Y32560434D02*
X84261503Y32550910D01*
X84261503Y32550910D02*
X84251980Y32541386D01*
X84251980Y32541386D02*
X84242456Y32550910D01*
X84242456Y32550910D02*
X84251980Y32560434D01*
X84251980Y32560434D02*
X84251980Y32541386D01*
X84385313Y32741386D02*
X84404361Y32741386D01*
X84404361Y32741386D02*
X84423408Y32731863D01*
X84423408Y32731863D02*
X84432932Y32722339D01*
X84432932Y32722339D02*
X84442456Y32703291D01*
X84442456Y32703291D02*
X84451980Y32665196D01*
X84451980Y32665196D02*
X84451980Y32617577D01*
X84451980Y32617577D02*
X84442456Y32579482D01*
X84442456Y32579482D02*
X84432932Y32560434D01*
X84432932Y32560434D02*
X84423408Y32550910D01*
X84423408Y32550910D02*
X84404361Y32541386D01*
X84404361Y32541386D02*
X84385313Y32541386D01*
X84385313Y32541386D02*
X84366265Y32550910D01*
X84366265Y32550910D02*
X84356742Y32560434D01*
X84356742Y32560434D02*
X84347218Y32579482D01*
X84347218Y32579482D02*
X84337694Y32617577D01*
X84337694Y32617577D02*
X84337694Y32665196D01*
X84337694Y32665196D02*
X84347218Y32703291D01*
X84347218Y32703291D02*
X84356742Y32722339D01*
X84356742Y32722339D02*
X84366265Y32731863D01*
X84366265Y32731863D02*
X84385313Y32741386D01*
X84623408Y32741386D02*
X84585313Y32741386D01*
X84585313Y32741386D02*
X84566265Y32731863D01*
X84566265Y32731863D02*
X84556742Y32722339D01*
X84556742Y32722339D02*
X84537694Y32693767D01*
X84537694Y32693767D02*
X84528170Y32655672D01*
X84528170Y32655672D02*
X84528170Y32579482D01*
X84528170Y32579482D02*
X84537694Y32560434D01*
X84537694Y32560434D02*
X84547218Y32550910D01*
X84547218Y32550910D02*
X84566265Y32541386D01*
X84566265Y32541386D02*
X84604361Y32541386D01*
X84604361Y32541386D02*
X84623408Y32550910D01*
X84623408Y32550910D02*
X84632932Y32560434D01*
X84632932Y32560434D02*
X84642456Y32579482D01*
X84642456Y32579482D02*
X84642456Y32627101D01*
X84642456Y32627101D02*
X84632932Y32646148D01*
X84632932Y32646148D02*
X84623408Y32655672D01*
X84623408Y32655672D02*
X84604361Y32665196D01*
X84604361Y32665196D02*
X84566265Y32665196D01*
X84566265Y32665196D02*
X84547218Y32655672D01*
X84547218Y32655672D02*
X84537694Y32646148D01*
X84537694Y32646148D02*
X84528170Y32627101D01*
X84813884Y32741386D02*
X84775789Y32741386D01*
X84775789Y32741386D02*
X84756742Y32731863D01*
X84756742Y32731863D02*
X84747218Y32722339D01*
X84747218Y32722339D02*
X84728170Y32693767D01*
X84728170Y32693767D02*
X84718646Y32655672D01*
X84718646Y32655672D02*
X84718646Y32579482D01*
X84718646Y32579482D02*
X84728170Y32560434D01*
X84728170Y32560434D02*
X84737694Y32550910D01*
X84737694Y32550910D02*
X84756742Y32541386D01*
X84756742Y32541386D02*
X84794837Y32541386D01*
X84794837Y32541386D02*
X84813884Y32550910D01*
X84813884Y32550910D02*
X84823408Y32560434D01*
X84823408Y32560434D02*
X84832932Y32579482D01*
X84832932Y32579482D02*
X84832932Y32627101D01*
X84832932Y32627101D02*
X84823408Y32646148D01*
X84823408Y32646148D02*
X84813884Y32655672D01*
X84813884Y32655672D02*
X84794837Y32665196D01*
X84794837Y32665196D02*
X84756742Y32665196D01*
X84756742Y32665196D02*
X84737694Y32655672D01*
X84737694Y32655672D02*
X84728170Y32646148D01*
X84728170Y32646148D02*
X84718646Y32627101D01*
X84928170Y32541386D02*
X84966265Y32541386D01*
X84966265Y32541386D02*
X84985313Y32550910D01*
X84985313Y32550910D02*
X84994837Y32560434D01*
X84994837Y32560434D02*
X85013884Y32589005D01*
X85013884Y32589005D02*
X85023408Y32627101D01*
X85023408Y32627101D02*
X85023408Y32703291D01*
X85023408Y32703291D02*
X85013884Y32722339D01*
X85013884Y32722339D02*
X85004361Y32731863D01*
X85004361Y32731863D02*
X84985313Y32741386D01*
X84985313Y32741386D02*
X84947218Y32741386D01*
X84947218Y32741386D02*
X84928170Y32731863D01*
X84928170Y32731863D02*
X84918646Y32722339D01*
X84918646Y32722339D02*
X84909123Y32703291D01*
X84909123Y32703291D02*
X84909123Y32655672D01*
X84909123Y32655672D02*
X84918646Y32636624D01*
X84918646Y32636624D02*
X84928170Y32627101D01*
X84928170Y32627101D02*
X84947218Y32617577D01*
X84947218Y32617577D02*
X84985313Y32617577D01*
X84985313Y32617577D02*
X85004361Y32627101D01*
X85004361Y32627101D02*
X85013884Y32636624D01*
X85013884Y32636624D02*
X85023408Y32655672D01*
X85099599Y32741386D02*
X85099599Y32703291D01*
X85175789Y32741386D02*
X85175789Y32703291D01*
X85471027Y32465196D02*
X85461504Y32474720D01*
X85461504Y32474720D02*
X85442456Y32503291D01*
X85442456Y32503291D02*
X85432932Y32522339D01*
X85432932Y32522339D02*
X85423408Y32550910D01*
X85423408Y32550910D02*
X85413885Y32598529D01*
X85413885Y32598529D02*
X85413885Y32636624D01*
X85413885Y32636624D02*
X85423408Y32684244D01*
X85423408Y32684244D02*
X85432932Y32712815D01*
X85432932Y32712815D02*
X85442456Y32731863D01*
X85442456Y32731863D02*
X85461504Y32760434D01*
X85461504Y32760434D02*
X85471027Y32769958D01*
X85651980Y32541386D02*
X85537694Y32541386D01*
X85594837Y32541386D02*
X85594837Y32741386D01*
X85594837Y32741386D02*
X85575789Y32712815D01*
X85575789Y32712815D02*
X85556742Y32693767D01*
X85556742Y32693767D02*
X85537694Y32684244D01*
X85766265Y32655672D02*
X85747218Y32665196D01*
X85747218Y32665196D02*
X85737694Y32674720D01*
X85737694Y32674720D02*
X85728170Y32693767D01*
X85728170Y32693767D02*
X85728170Y32703291D01*
X85728170Y32703291D02*
X85737694Y32722339D01*
X85737694Y32722339D02*
X85747218Y32731863D01*
X85747218Y32731863D02*
X85766265Y32741386D01*
X85766265Y32741386D02*
X85804361Y32741386D01*
X85804361Y32741386D02*
X85823408Y32731863D01*
X85823408Y32731863D02*
X85832932Y32722339D01*
X85832932Y32722339D02*
X85842456Y32703291D01*
X85842456Y32703291D02*
X85842456Y32693767D01*
X85842456Y32693767D02*
X85832932Y32674720D01*
X85832932Y32674720D02*
X85823408Y32665196D01*
X85823408Y32665196D02*
X85804361Y32655672D01*
X85804361Y32655672D02*
X85766265Y32655672D01*
X85766265Y32655672D02*
X85747218Y32646148D01*
X85747218Y32646148D02*
X85737694Y32636624D01*
X85737694Y32636624D02*
X85728170Y32617577D01*
X85728170Y32617577D02*
X85728170Y32579482D01*
X85728170Y32579482D02*
X85737694Y32560434D01*
X85737694Y32560434D02*
X85747218Y32550910D01*
X85747218Y32550910D02*
X85766265Y32541386D01*
X85766265Y32541386D02*
X85804361Y32541386D01*
X85804361Y32541386D02*
X85823408Y32550910D01*
X85823408Y32550910D02*
X85832932Y32560434D01*
X85832932Y32560434D02*
X85842456Y32579482D01*
X85842456Y32579482D02*
X85842456Y32617577D01*
X85842456Y32617577D02*
X85832932Y32636624D01*
X85832932Y32636624D02*
X85823408Y32646148D01*
X85823408Y32646148D02*
X85804361Y32655672D01*
X86013885Y32674720D02*
X86013885Y32541386D01*
X85966265Y32750910D02*
X85918646Y32608053D01*
X85918646Y32608053D02*
X86042456Y32608053D01*
X86271027Y32541386D02*
X86271027Y32741386D01*
X86356742Y32541386D02*
X86356742Y32646148D01*
X86356742Y32646148D02*
X86347218Y32665196D01*
X86347218Y32665196D02*
X86328170Y32674720D01*
X86328170Y32674720D02*
X86299599Y32674720D01*
X86299599Y32674720D02*
X86280551Y32665196D01*
X86280551Y32665196D02*
X86271027Y32655672D01*
X86480551Y32541386D02*
X86461504Y32550910D01*
X86461504Y32550910D02*
X86451980Y32560434D01*
X86451980Y32560434D02*
X86442456Y32579482D01*
X86442456Y32579482D02*
X86442456Y32636624D01*
X86442456Y32636624D02*
X86451980Y32655672D01*
X86451980Y32655672D02*
X86461504Y32665196D01*
X86461504Y32665196D02*
X86480551Y32674720D01*
X86480551Y32674720D02*
X86509123Y32674720D01*
X86509123Y32674720D02*
X86528170Y32665196D01*
X86528170Y32665196D02*
X86537694Y32655672D01*
X86537694Y32655672D02*
X86547218Y32636624D01*
X86547218Y32636624D02*
X86547218Y32579482D01*
X86547218Y32579482D02*
X86537694Y32560434D01*
X86537694Y32560434D02*
X86528170Y32550910D01*
X86528170Y32550910D02*
X86509123Y32541386D01*
X86509123Y32541386D02*
X86480551Y32541386D01*
X86661504Y32541386D02*
X86642456Y32550910D01*
X86642456Y32550910D02*
X86632932Y32569958D01*
X86632932Y32569958D02*
X86632932Y32741386D01*
X86813885Y32550910D02*
X86794837Y32541386D01*
X86794837Y32541386D02*
X86756742Y32541386D01*
X86756742Y32541386D02*
X86737694Y32550910D01*
X86737694Y32550910D02*
X86728170Y32569958D01*
X86728170Y32569958D02*
X86728170Y32646148D01*
X86728170Y32646148D02*
X86737694Y32665196D01*
X86737694Y32665196D02*
X86756742Y32674720D01*
X86756742Y32674720D02*
X86794837Y32674720D01*
X86794837Y32674720D02*
X86813885Y32665196D01*
X86813885Y32665196D02*
X86823408Y32646148D01*
X86823408Y32646148D02*
X86823408Y32627101D01*
X86823408Y32627101D02*
X86728170Y32608053D01*
X86899599Y32550910D02*
X86918647Y32541386D01*
X86918647Y32541386D02*
X86956742Y32541386D01*
X86956742Y32541386D02*
X86975789Y32550910D01*
X86975789Y32550910D02*
X86985313Y32569958D01*
X86985313Y32569958D02*
X86985313Y32579482D01*
X86985313Y32579482D02*
X86975789Y32598529D01*
X86975789Y32598529D02*
X86956742Y32608053D01*
X86956742Y32608053D02*
X86928170Y32608053D01*
X86928170Y32608053D02*
X86909123Y32617577D01*
X86909123Y32617577D02*
X86899599Y32636624D01*
X86899599Y32636624D02*
X86899599Y32646148D01*
X86899599Y32646148D02*
X86909123Y32665196D01*
X86909123Y32665196D02*
X86928170Y32674720D01*
X86928170Y32674720D02*
X86956742Y32674720D01*
X86956742Y32674720D02*
X86975789Y32665196D01*
X87051980Y32465196D02*
X87061504Y32474720D01*
X87061504Y32474720D02*
X87080551Y32503291D01*
X87080551Y32503291D02*
X87090075Y32522339D01*
X87090075Y32522339D02*
X87099599Y32550910D01*
X87099599Y32550910D02*
X87109123Y32598529D01*
X87109123Y32598529D02*
X87109123Y32636624D01*
X87109123Y32636624D02*
X87099599Y32684244D01*
X87099599Y32684244D02*
X87090075Y32712815D01*
X87090075Y32712815D02*
X87080551Y32731863D01*
X87080551Y32731863D02*
X87061504Y32760434D01*
X87061504Y32760434D02*
X87051980Y32769958D01*
M02*
