%TF.GenerationSoftware,KiCad,Pcbnew,8.99.0-2193-g88272a59b7*%
%TF.CreationDate,2024-09-27T03:09:18+07:00*%
%TF.ProjectId,qk80,716b3830-2e6b-4696-9361-645f70636258,rev?*%
%TF.SameCoordinates,Original*%
%TF.FileFunction,Soldermask,Top*%
%TF.FilePolarity,Negative*%
%FSLAX46Y46*%
G04 Gerber Fmt 4.6, Leading zero omitted, Abs format (unit mm)*
G04 Created by KiCad (PCBNEW 8.99.0-2193-g88272a59b7) date 2024-09-27 03:09:18*
%MOMM*%
%LPD*%
G01*
G04 APERTURE LIST*
G04 Aperture macros list*
%AMRoundRect*
0 Rectangle with rounded corners*
0 $1 Rounding radius*
0 $2 $3 $4 $5 $6 $7 $8 $9 X,Y pos of 4 corners*
0 Add a 4 corners polygon primitive as box body*
4,1,4,$2,$3,$4,$5,$6,$7,$8,$9,$2,$3,0*
0 Add four circle primitives for the rounded corners*
1,1,$1+$1,$2,$3*
1,1,$1+$1,$4,$5*
1,1,$1+$1,$6,$7*
1,1,$1+$1,$8,$9*
0 Add four rect primitives between the rounded corners*
20,1,$1+$1,$2,$3,$4,$5,0*
20,1,$1+$1,$4,$5,$6,$7,0*
20,1,$1+$1,$6,$7,$8,$9,0*
20,1,$1+$1,$8,$9,$2,$3,0*%
G04 Aperture macros list end*
%ADD10C,0.100000*%
%ADD11C,0.150000*%
%ADD12C,0.300000*%
%ADD13C,0.400000*%
%ADD14R,0.700000X0.700000*%
%ADD15C,1.700000*%
%ADD16C,4.000000*%
%ADD17RoundRect,0.250000X-0.600000X-0.750000X0.600000X-0.750000X0.600000X0.750000X-0.600000X0.750000X0*%
%ADD18O,1.700000X2.000000*%
%ADD19C,3.987800*%
%ADD20C,3.048000*%
%ADD21RoundRect,0.250000X0.625000X-0.350000X0.625000X0.350000X-0.625000X0.350000X-0.625000X-0.350000X0*%
%ADD22O,1.750000X1.200000*%
G04 APERTURE END LIST*
D10*
D11*
X177002200Y-166007200D02*
X285002200Y-166007200D01*
X285002200Y-198007200D01*
X177002200Y-198007200D01*
X177002200Y-166007200D01*
D10*
D11*
X10000000Y-10000000D02*
X287002200Y-10000000D01*
X287002200Y-200007200D01*
X10000000Y-200007200D01*
X10000000Y-10000000D01*
D10*
D11*
X12000000Y-12000000D02*
X285002200Y-12000000D01*
X285002200Y-198007200D01*
X12000000Y-198007200D01*
X12000000Y-12000000D01*
D10*
D11*
X60000000Y-12000000D02*
X60000000Y-10000000D01*
D10*
D11*
X110000000Y-12000000D02*
X110000000Y-10000000D01*
D10*
D11*
X160000000Y-12000000D02*
X160000000Y-10000000D01*
D10*
D11*
X210000000Y-12000000D02*
X210000000Y-10000000D01*
D10*
D11*
X260000000Y-12000000D02*
X260000000Y-10000000D01*
D10*
D11*
X36089160Y-11593604D02*
X35346303Y-11593604D01*
X35717731Y-11593604D02*
X35717731Y-10293604D01*
X35717731Y-10293604D02*
X35593922Y-10479319D01*
X35593922Y-10479319D02*
X35470112Y-10603128D01*
X35470112Y-10603128D02*
X35346303Y-10665033D01*
D10*
D11*
X85346303Y-10417414D02*
X85408207Y-10355509D01*
X85408207Y-10355509D02*
X85532017Y-10293604D01*
X85532017Y-10293604D02*
X85841541Y-10293604D01*
X85841541Y-10293604D02*
X85965350Y-10355509D01*
X85965350Y-10355509D02*
X86027255Y-10417414D01*
X86027255Y-10417414D02*
X86089160Y-10541223D01*
X86089160Y-10541223D02*
X86089160Y-10665033D01*
X86089160Y-10665033D02*
X86027255Y-10850747D01*
X86027255Y-10850747D02*
X85284398Y-11593604D01*
X85284398Y-11593604D02*
X86089160Y-11593604D01*
D10*
D11*
X135284398Y-10293604D02*
X136089160Y-10293604D01*
X136089160Y-10293604D02*
X135655826Y-10788842D01*
X135655826Y-10788842D02*
X135841541Y-10788842D01*
X135841541Y-10788842D02*
X135965350Y-10850747D01*
X135965350Y-10850747D02*
X136027255Y-10912652D01*
X136027255Y-10912652D02*
X136089160Y-11036461D01*
X136089160Y-11036461D02*
X136089160Y-11345985D01*
X136089160Y-11345985D02*
X136027255Y-11469795D01*
X136027255Y-11469795D02*
X135965350Y-11531700D01*
X135965350Y-11531700D02*
X135841541Y-11593604D01*
X135841541Y-11593604D02*
X135470112Y-11593604D01*
X135470112Y-11593604D02*
X135346303Y-11531700D01*
X135346303Y-11531700D02*
X135284398Y-11469795D01*
D10*
D11*
X185965350Y-10726938D02*
X185965350Y-11593604D01*
X185655826Y-10231700D02*
X185346303Y-11160271D01*
X185346303Y-11160271D02*
X186151064Y-11160271D01*
D10*
D11*
X236027255Y-10293604D02*
X235408207Y-10293604D01*
X235408207Y-10293604D02*
X235346303Y-10912652D01*
X235346303Y-10912652D02*
X235408207Y-10850747D01*
X235408207Y-10850747D02*
X235532017Y-10788842D01*
X235532017Y-10788842D02*
X235841541Y-10788842D01*
X235841541Y-10788842D02*
X235965350Y-10850747D01*
X235965350Y-10850747D02*
X236027255Y-10912652D01*
X236027255Y-10912652D02*
X236089160Y-11036461D01*
X236089160Y-11036461D02*
X236089160Y-11345985D01*
X236089160Y-11345985D02*
X236027255Y-11469795D01*
X236027255Y-11469795D02*
X235965350Y-11531700D01*
X235965350Y-11531700D02*
X235841541Y-11593604D01*
X235841541Y-11593604D02*
X235532017Y-11593604D01*
X235532017Y-11593604D02*
X235408207Y-11531700D01*
X235408207Y-11531700D02*
X235346303Y-11469795D01*
D10*
D11*
X285965350Y-10293604D02*
X285717731Y-10293604D01*
X285717731Y-10293604D02*
X285593922Y-10355509D01*
X285593922Y-10355509D02*
X285532017Y-10417414D01*
X285532017Y-10417414D02*
X285408207Y-10603128D01*
X285408207Y-10603128D02*
X285346303Y-10850747D01*
X285346303Y-10850747D02*
X285346303Y-11345985D01*
X285346303Y-11345985D02*
X285408207Y-11469795D01*
X285408207Y-11469795D02*
X285470112Y-11531700D01*
X285470112Y-11531700D02*
X285593922Y-11593604D01*
X285593922Y-11593604D02*
X285841541Y-11593604D01*
X285841541Y-11593604D02*
X285965350Y-11531700D01*
X285965350Y-11531700D02*
X286027255Y-11469795D01*
X286027255Y-11469795D02*
X286089160Y-11345985D01*
X286089160Y-11345985D02*
X286089160Y-11036461D01*
X286089160Y-11036461D02*
X286027255Y-10912652D01*
X286027255Y-10912652D02*
X285965350Y-10850747D01*
X285965350Y-10850747D02*
X285841541Y-10788842D01*
X285841541Y-10788842D02*
X285593922Y-10788842D01*
X285593922Y-10788842D02*
X285470112Y-10850747D01*
X285470112Y-10850747D02*
X285408207Y-10912652D01*
X285408207Y-10912652D02*
X285346303Y-11036461D01*
D10*
D11*
X60000000Y-198007200D02*
X60000000Y-200007200D01*
D10*
D11*
X110000000Y-198007200D02*
X110000000Y-200007200D01*
D10*
D11*
X160000000Y-198007200D02*
X160000000Y-200007200D01*
D10*
D11*
X210000000Y-198007200D02*
X210000000Y-200007200D01*
D10*
D11*
X260000000Y-198007200D02*
X260000000Y-200007200D01*
D10*
D11*
X36089160Y-199600804D02*
X35346303Y-199600804D01*
X35717731Y-199600804D02*
X35717731Y-198300804D01*
X35717731Y-198300804D02*
X35593922Y-198486519D01*
X35593922Y-198486519D02*
X35470112Y-198610328D01*
X35470112Y-198610328D02*
X35346303Y-198672233D01*
D10*
D11*
X85346303Y-198424614D02*
X85408207Y-198362709D01*
X85408207Y-198362709D02*
X85532017Y-198300804D01*
X85532017Y-198300804D02*
X85841541Y-198300804D01*
X85841541Y-198300804D02*
X85965350Y-198362709D01*
X85965350Y-198362709D02*
X86027255Y-198424614D01*
X86027255Y-198424614D02*
X86089160Y-198548423D01*
X86089160Y-198548423D02*
X86089160Y-198672233D01*
X86089160Y-198672233D02*
X86027255Y-198857947D01*
X86027255Y-198857947D02*
X85284398Y-199600804D01*
X85284398Y-199600804D02*
X86089160Y-199600804D01*
D10*
D11*
X135284398Y-198300804D02*
X136089160Y-198300804D01*
X136089160Y-198300804D02*
X135655826Y-198796042D01*
X135655826Y-198796042D02*
X135841541Y-198796042D01*
X135841541Y-198796042D02*
X135965350Y-198857947D01*
X135965350Y-198857947D02*
X136027255Y-198919852D01*
X136027255Y-198919852D02*
X136089160Y-199043661D01*
X136089160Y-199043661D02*
X136089160Y-199353185D01*
X136089160Y-199353185D02*
X136027255Y-199476995D01*
X136027255Y-199476995D02*
X135965350Y-199538900D01*
X135965350Y-199538900D02*
X135841541Y-199600804D01*
X135841541Y-199600804D02*
X135470112Y-199600804D01*
X135470112Y-199600804D02*
X135346303Y-199538900D01*
X135346303Y-199538900D02*
X135284398Y-199476995D01*
D10*
D11*
X185965350Y-198734138D02*
X185965350Y-199600804D01*
X185655826Y-198238900D02*
X185346303Y-199167471D01*
X185346303Y-199167471D02*
X186151064Y-199167471D01*
D10*
D11*
X236027255Y-198300804D02*
X235408207Y-198300804D01*
X235408207Y-198300804D02*
X235346303Y-198919852D01*
X235346303Y-198919852D02*
X235408207Y-198857947D01*
X235408207Y-198857947D02*
X235532017Y-198796042D01*
X235532017Y-198796042D02*
X235841541Y-198796042D01*
X235841541Y-198796042D02*
X235965350Y-198857947D01*
X235965350Y-198857947D02*
X236027255Y-198919852D01*
X236027255Y-198919852D02*
X236089160Y-199043661D01*
X236089160Y-199043661D02*
X236089160Y-199353185D01*
X236089160Y-199353185D02*
X236027255Y-199476995D01*
X236027255Y-199476995D02*
X235965350Y-199538900D01*
X235965350Y-199538900D02*
X235841541Y-199600804D01*
X235841541Y-199600804D02*
X235532017Y-199600804D01*
X235532017Y-199600804D02*
X235408207Y-199538900D01*
X235408207Y-199538900D02*
X235346303Y-199476995D01*
D10*
D11*
X285965350Y-198300804D02*
X285717731Y-198300804D01*
X285717731Y-198300804D02*
X285593922Y-198362709D01*
X285593922Y-198362709D02*
X285532017Y-198424614D01*
X285532017Y-198424614D02*
X285408207Y-198610328D01*
X285408207Y-198610328D02*
X285346303Y-198857947D01*
X285346303Y-198857947D02*
X285346303Y-199353185D01*
X285346303Y-199353185D02*
X285408207Y-199476995D01*
X285408207Y-199476995D02*
X285470112Y-199538900D01*
X285470112Y-199538900D02*
X285593922Y-199600804D01*
X285593922Y-199600804D02*
X285841541Y-199600804D01*
X285841541Y-199600804D02*
X285965350Y-199538900D01*
X285965350Y-199538900D02*
X286027255Y-199476995D01*
X286027255Y-199476995D02*
X286089160Y-199353185D01*
X286089160Y-199353185D02*
X286089160Y-199043661D01*
X286089160Y-199043661D02*
X286027255Y-198919852D01*
X286027255Y-198919852D02*
X285965350Y-198857947D01*
X285965350Y-198857947D02*
X285841541Y-198796042D01*
X285841541Y-198796042D02*
X285593922Y-198796042D01*
X285593922Y-198796042D02*
X285470112Y-198857947D01*
X285470112Y-198857947D02*
X285408207Y-198919852D01*
X285408207Y-198919852D02*
X285346303Y-199043661D01*
D10*
D11*
X10000000Y-60000000D02*
X12000000Y-60000000D01*
D10*
D11*
X10000000Y-110000000D02*
X12000000Y-110000000D01*
D10*
D11*
X10000000Y-160000000D02*
X12000000Y-160000000D01*
D10*
D11*
X10690476Y-35222176D02*
X11309523Y-35222176D01*
X10566666Y-35593604D02*
X10999999Y-34293604D01*
X10999999Y-34293604D02*
X11433333Y-35593604D01*
D10*
D11*
X11092857Y-84912652D02*
X11278571Y-84974557D01*
X11278571Y-84974557D02*
X11340476Y-85036461D01*
X11340476Y-85036461D02*
X11402380Y-85160271D01*
X11402380Y-85160271D02*
X11402380Y-85345985D01*
X11402380Y-85345985D02*
X11340476Y-85469795D01*
X11340476Y-85469795D02*
X11278571Y-85531700D01*
X11278571Y-85531700D02*
X11154761Y-85593604D01*
X11154761Y-85593604D02*
X10659523Y-85593604D01*
X10659523Y-85593604D02*
X10659523Y-84293604D01*
X10659523Y-84293604D02*
X11092857Y-84293604D01*
X11092857Y-84293604D02*
X11216666Y-84355509D01*
X11216666Y-84355509D02*
X11278571Y-84417414D01*
X11278571Y-84417414D02*
X11340476Y-84541223D01*
X11340476Y-84541223D02*
X11340476Y-84665033D01*
X11340476Y-84665033D02*
X11278571Y-84788842D01*
X11278571Y-84788842D02*
X11216666Y-84850747D01*
X11216666Y-84850747D02*
X11092857Y-84912652D01*
X11092857Y-84912652D02*
X10659523Y-84912652D01*
D10*
D11*
X11402380Y-135469795D02*
X11340476Y-135531700D01*
X11340476Y-135531700D02*
X11154761Y-135593604D01*
X11154761Y-135593604D02*
X11030952Y-135593604D01*
X11030952Y-135593604D02*
X10845238Y-135531700D01*
X10845238Y-135531700D02*
X10721428Y-135407890D01*
X10721428Y-135407890D02*
X10659523Y-135284080D01*
X10659523Y-135284080D02*
X10597619Y-135036461D01*
X10597619Y-135036461D02*
X10597619Y-134850747D01*
X10597619Y-134850747D02*
X10659523Y-134603128D01*
X10659523Y-134603128D02*
X10721428Y-134479319D01*
X10721428Y-134479319D02*
X10845238Y-134355509D01*
X10845238Y-134355509D02*
X11030952Y-134293604D01*
X11030952Y-134293604D02*
X11154761Y-134293604D01*
X11154761Y-134293604D02*
X11340476Y-134355509D01*
X11340476Y-134355509D02*
X11402380Y-134417414D01*
D10*
D11*
X10659523Y-185593604D02*
X10659523Y-184293604D01*
X10659523Y-184293604D02*
X10969047Y-184293604D01*
X10969047Y-184293604D02*
X11154761Y-184355509D01*
X11154761Y-184355509D02*
X11278571Y-184479319D01*
X11278571Y-184479319D02*
X11340476Y-184603128D01*
X11340476Y-184603128D02*
X11402380Y-184850747D01*
X11402380Y-184850747D02*
X11402380Y-185036461D01*
X11402380Y-185036461D02*
X11340476Y-185284080D01*
X11340476Y-185284080D02*
X11278571Y-185407890D01*
X11278571Y-185407890D02*
X11154761Y-185531700D01*
X11154761Y-185531700D02*
X10969047Y-185593604D01*
X10969047Y-185593604D02*
X10659523Y-185593604D01*
D10*
D11*
X287002200Y-60000000D02*
X285002200Y-60000000D01*
D10*
D11*
X287002200Y-110000000D02*
X285002200Y-110000000D01*
D10*
D11*
X287002200Y-160000000D02*
X285002200Y-160000000D01*
D10*
D11*
X285692676Y-35222176D02*
X286311723Y-35222176D01*
X285568866Y-35593604D02*
X286002199Y-34293604D01*
X286002199Y-34293604D02*
X286435533Y-35593604D01*
D10*
D11*
X286095057Y-84912652D02*
X286280771Y-84974557D01*
X286280771Y-84974557D02*
X286342676Y-85036461D01*
X286342676Y-85036461D02*
X286404580Y-85160271D01*
X286404580Y-85160271D02*
X286404580Y-85345985D01*
X286404580Y-85345985D02*
X286342676Y-85469795D01*
X286342676Y-85469795D02*
X286280771Y-85531700D01*
X286280771Y-85531700D02*
X286156961Y-85593604D01*
X286156961Y-85593604D02*
X285661723Y-85593604D01*
X285661723Y-85593604D02*
X285661723Y-84293604D01*
X285661723Y-84293604D02*
X286095057Y-84293604D01*
X286095057Y-84293604D02*
X286218866Y-84355509D01*
X286218866Y-84355509D02*
X286280771Y-84417414D01*
X286280771Y-84417414D02*
X286342676Y-84541223D01*
X286342676Y-84541223D02*
X286342676Y-84665033D01*
X286342676Y-84665033D02*
X286280771Y-84788842D01*
X286280771Y-84788842D02*
X286218866Y-84850747D01*
X286218866Y-84850747D02*
X286095057Y-84912652D01*
X286095057Y-84912652D02*
X285661723Y-84912652D01*
D10*
D11*
X286404580Y-135469795D02*
X286342676Y-135531700D01*
X286342676Y-135531700D02*
X286156961Y-135593604D01*
X286156961Y-135593604D02*
X286033152Y-135593604D01*
X286033152Y-135593604D02*
X285847438Y-135531700D01*
X285847438Y-135531700D02*
X285723628Y-135407890D01*
X285723628Y-135407890D02*
X285661723Y-135284080D01*
X285661723Y-135284080D02*
X285599819Y-135036461D01*
X285599819Y-135036461D02*
X285599819Y-134850747D01*
X285599819Y-134850747D02*
X285661723Y-134603128D01*
X285661723Y-134603128D02*
X285723628Y-134479319D01*
X285723628Y-134479319D02*
X285847438Y-134355509D01*
X285847438Y-134355509D02*
X286033152Y-134293604D01*
X286033152Y-134293604D02*
X286156961Y-134293604D01*
X286156961Y-134293604D02*
X286342676Y-134355509D01*
X286342676Y-134355509D02*
X286404580Y-134417414D01*
D10*
D11*
X285661723Y-185593604D02*
X285661723Y-184293604D01*
X285661723Y-184293604D02*
X285971247Y-184293604D01*
X285971247Y-184293604D02*
X286156961Y-184355509D01*
X286156961Y-184355509D02*
X286280771Y-184479319D01*
X286280771Y-184479319D02*
X286342676Y-184603128D01*
X286342676Y-184603128D02*
X286404580Y-184850747D01*
X286404580Y-184850747D02*
X286404580Y-185036461D01*
X286404580Y-185036461D02*
X286342676Y-185284080D01*
X286342676Y-185284080D02*
X286280771Y-185407890D01*
X286280771Y-185407890D02*
X286156961Y-185531700D01*
X286156961Y-185531700D02*
X285971247Y-185593604D01*
X285971247Y-185593604D02*
X285661723Y-185593604D01*
D10*
D11*
X200458026Y-193793328D02*
X200458026Y-192293328D01*
X200458026Y-192293328D02*
X200815169Y-192293328D01*
X200815169Y-192293328D02*
X201029455Y-192364757D01*
X201029455Y-192364757D02*
X201172312Y-192507614D01*
X201172312Y-192507614D02*
X201243741Y-192650471D01*
X201243741Y-192650471D02*
X201315169Y-192936185D01*
X201315169Y-192936185D02*
X201315169Y-193150471D01*
X201315169Y-193150471D02*
X201243741Y-193436185D01*
X201243741Y-193436185D02*
X201172312Y-193579042D01*
X201172312Y-193579042D02*
X201029455Y-193721900D01*
X201029455Y-193721900D02*
X200815169Y-193793328D01*
X200815169Y-193793328D02*
X200458026Y-193793328D01*
X202600884Y-193793328D02*
X202600884Y-193007614D01*
X202600884Y-193007614D02*
X202529455Y-192864757D01*
X202529455Y-192864757D02*
X202386598Y-192793328D01*
X202386598Y-192793328D02*
X202100884Y-192793328D01*
X202100884Y-192793328D02*
X201958026Y-192864757D01*
X202600884Y-193721900D02*
X202458026Y-193793328D01*
X202458026Y-193793328D02*
X202100884Y-193793328D01*
X202100884Y-193793328D02*
X201958026Y-193721900D01*
X201958026Y-193721900D02*
X201886598Y-193579042D01*
X201886598Y-193579042D02*
X201886598Y-193436185D01*
X201886598Y-193436185D02*
X201958026Y-193293328D01*
X201958026Y-193293328D02*
X202100884Y-193221900D01*
X202100884Y-193221900D02*
X202458026Y-193221900D01*
X202458026Y-193221900D02*
X202600884Y-193150471D01*
X203100884Y-192793328D02*
X203672312Y-192793328D01*
X203315169Y-192293328D02*
X203315169Y-193579042D01*
X203315169Y-193579042D02*
X203386598Y-193721900D01*
X203386598Y-193721900D02*
X203529455Y-193793328D01*
X203529455Y-193793328D02*
X203672312Y-193793328D01*
X204743741Y-193721900D02*
X204600884Y-193793328D01*
X204600884Y-193793328D02*
X204315170Y-193793328D01*
X204315170Y-193793328D02*
X204172312Y-193721900D01*
X204172312Y-193721900D02*
X204100884Y-193579042D01*
X204100884Y-193579042D02*
X204100884Y-193007614D01*
X204100884Y-193007614D02*
X204172312Y-192864757D01*
X204172312Y-192864757D02*
X204315170Y-192793328D01*
X204315170Y-192793328D02*
X204600884Y-192793328D01*
X204600884Y-192793328D02*
X204743741Y-192864757D01*
X204743741Y-192864757D02*
X204815170Y-193007614D01*
X204815170Y-193007614D02*
X204815170Y-193150471D01*
X204815170Y-193150471D02*
X204100884Y-193293328D01*
X205458026Y-193650471D02*
X205529455Y-193721900D01*
X205529455Y-193721900D02*
X205458026Y-193793328D01*
X205458026Y-193793328D02*
X205386598Y-193721900D01*
X205386598Y-193721900D02*
X205458026Y-193650471D01*
X205458026Y-193650471D02*
X205458026Y-193793328D01*
X205458026Y-192864757D02*
X205529455Y-192936185D01*
X205529455Y-192936185D02*
X205458026Y-193007614D01*
X205458026Y-193007614D02*
X205386598Y-192936185D01*
X205386598Y-192936185D02*
X205458026Y-192864757D01*
X205458026Y-192864757D02*
X205458026Y-193007614D01*
D10*
D11*
X177002200Y-194507200D02*
X285002200Y-194507200D01*
D10*
D11*
X178458026Y-196593328D02*
X178458026Y-195093328D01*
X179315169Y-196593328D02*
X178672312Y-195736185D01*
X179315169Y-195093328D02*
X178458026Y-195950471D01*
X179958026Y-196593328D02*
X179958026Y-195593328D01*
X179958026Y-195093328D02*
X179886598Y-195164757D01*
X179886598Y-195164757D02*
X179958026Y-195236185D01*
X179958026Y-195236185D02*
X180029455Y-195164757D01*
X180029455Y-195164757D02*
X179958026Y-195093328D01*
X179958026Y-195093328D02*
X179958026Y-195236185D01*
X181529455Y-196450471D02*
X181458027Y-196521900D01*
X181458027Y-196521900D02*
X181243741Y-196593328D01*
X181243741Y-196593328D02*
X181100884Y-196593328D01*
X181100884Y-196593328D02*
X180886598Y-196521900D01*
X180886598Y-196521900D02*
X180743741Y-196379042D01*
X180743741Y-196379042D02*
X180672312Y-196236185D01*
X180672312Y-196236185D02*
X180600884Y-195950471D01*
X180600884Y-195950471D02*
X180600884Y-195736185D01*
X180600884Y-195736185D02*
X180672312Y-195450471D01*
X180672312Y-195450471D02*
X180743741Y-195307614D01*
X180743741Y-195307614D02*
X180886598Y-195164757D01*
X180886598Y-195164757D02*
X181100884Y-195093328D01*
X181100884Y-195093328D02*
X181243741Y-195093328D01*
X181243741Y-195093328D02*
X181458027Y-195164757D01*
X181458027Y-195164757D02*
X181529455Y-195236185D01*
X182815170Y-196593328D02*
X182815170Y-195807614D01*
X182815170Y-195807614D02*
X182743741Y-195664757D01*
X182743741Y-195664757D02*
X182600884Y-195593328D01*
X182600884Y-195593328D02*
X182315170Y-195593328D01*
X182315170Y-195593328D02*
X182172312Y-195664757D01*
X182815170Y-196521900D02*
X182672312Y-196593328D01*
X182672312Y-196593328D02*
X182315170Y-196593328D01*
X182315170Y-196593328D02*
X182172312Y-196521900D01*
X182172312Y-196521900D02*
X182100884Y-196379042D01*
X182100884Y-196379042D02*
X182100884Y-196236185D01*
X182100884Y-196236185D02*
X182172312Y-196093328D01*
X182172312Y-196093328D02*
X182315170Y-196021900D01*
X182315170Y-196021900D02*
X182672312Y-196021900D01*
X182672312Y-196021900D02*
X182815170Y-195950471D01*
X184172313Y-196593328D02*
X184172313Y-195093328D01*
X184172313Y-196521900D02*
X184029455Y-196593328D01*
X184029455Y-196593328D02*
X183743741Y-196593328D01*
X183743741Y-196593328D02*
X183600884Y-196521900D01*
X183600884Y-196521900D02*
X183529455Y-196450471D01*
X183529455Y-196450471D02*
X183458027Y-196307614D01*
X183458027Y-196307614D02*
X183458027Y-195879042D01*
X183458027Y-195879042D02*
X183529455Y-195736185D01*
X183529455Y-195736185D02*
X183600884Y-195664757D01*
X183600884Y-195664757D02*
X183743741Y-195593328D01*
X183743741Y-195593328D02*
X184029455Y-195593328D01*
X184029455Y-195593328D02*
X184172313Y-195664757D01*
X186029455Y-195807614D02*
X186529455Y-195807614D01*
X186743741Y-196593328D02*
X186029455Y-196593328D01*
X186029455Y-196593328D02*
X186029455Y-195093328D01*
X186029455Y-195093328D02*
X186743741Y-195093328D01*
X187386598Y-196450471D02*
X187458027Y-196521900D01*
X187458027Y-196521900D02*
X187386598Y-196593328D01*
X187386598Y-196593328D02*
X187315170Y-196521900D01*
X187315170Y-196521900D02*
X187386598Y-196450471D01*
X187386598Y-196450471D02*
X187386598Y-196593328D01*
X188100884Y-196593328D02*
X188100884Y-195093328D01*
X188100884Y-195093328D02*
X188458027Y-195093328D01*
X188458027Y-195093328D02*
X188672313Y-195164757D01*
X188672313Y-195164757D02*
X188815170Y-195307614D01*
X188815170Y-195307614D02*
X188886599Y-195450471D01*
X188886599Y-195450471D02*
X188958027Y-195736185D01*
X188958027Y-195736185D02*
X188958027Y-195950471D01*
X188958027Y-195950471D02*
X188886599Y-196236185D01*
X188886599Y-196236185D02*
X188815170Y-196379042D01*
X188815170Y-196379042D02*
X188672313Y-196521900D01*
X188672313Y-196521900D02*
X188458027Y-196593328D01*
X188458027Y-196593328D02*
X188100884Y-196593328D01*
X189600884Y-196450471D02*
X189672313Y-196521900D01*
X189672313Y-196521900D02*
X189600884Y-196593328D01*
X189600884Y-196593328D02*
X189529456Y-196521900D01*
X189529456Y-196521900D02*
X189600884Y-196450471D01*
X189600884Y-196450471D02*
X189600884Y-196593328D01*
X190243742Y-196164757D02*
X190958028Y-196164757D01*
X190100885Y-196593328D02*
X190600885Y-195093328D01*
X190600885Y-195093328D02*
X191100885Y-196593328D01*
X191600884Y-196450471D02*
X191672313Y-196521900D01*
X191672313Y-196521900D02*
X191600884Y-196593328D01*
X191600884Y-196593328D02*
X191529456Y-196521900D01*
X191529456Y-196521900D02*
X191600884Y-196450471D01*
X191600884Y-196450471D02*
X191600884Y-196593328D01*
X193672313Y-195736185D02*
X193529456Y-195664757D01*
X193529456Y-195664757D02*
X193458027Y-195593328D01*
X193458027Y-195593328D02*
X193386599Y-195450471D01*
X193386599Y-195450471D02*
X193386599Y-195379042D01*
X193386599Y-195379042D02*
X193458027Y-195236185D01*
X193458027Y-195236185D02*
X193529456Y-195164757D01*
X193529456Y-195164757D02*
X193672313Y-195093328D01*
X193672313Y-195093328D02*
X193958027Y-195093328D01*
X193958027Y-195093328D02*
X194100885Y-195164757D01*
X194100885Y-195164757D02*
X194172313Y-195236185D01*
X194172313Y-195236185D02*
X194243742Y-195379042D01*
X194243742Y-195379042D02*
X194243742Y-195450471D01*
X194243742Y-195450471D02*
X194172313Y-195593328D01*
X194172313Y-195593328D02*
X194100885Y-195664757D01*
X194100885Y-195664757D02*
X193958027Y-195736185D01*
X193958027Y-195736185D02*
X193672313Y-195736185D01*
X193672313Y-195736185D02*
X193529456Y-195807614D01*
X193529456Y-195807614D02*
X193458027Y-195879042D01*
X193458027Y-195879042D02*
X193386599Y-196021900D01*
X193386599Y-196021900D02*
X193386599Y-196307614D01*
X193386599Y-196307614D02*
X193458027Y-196450471D01*
X193458027Y-196450471D02*
X193529456Y-196521900D01*
X193529456Y-196521900D02*
X193672313Y-196593328D01*
X193672313Y-196593328D02*
X193958027Y-196593328D01*
X193958027Y-196593328D02*
X194100885Y-196521900D01*
X194100885Y-196521900D02*
X194172313Y-196450471D01*
X194172313Y-196450471D02*
X194243742Y-196307614D01*
X194243742Y-196307614D02*
X194243742Y-196021900D01*
X194243742Y-196021900D02*
X194172313Y-195879042D01*
X194172313Y-195879042D02*
X194100885Y-195807614D01*
X194100885Y-195807614D02*
X193958027Y-195736185D01*
X194886598Y-196450471D02*
X194958027Y-196521900D01*
X194958027Y-196521900D02*
X194886598Y-196593328D01*
X194886598Y-196593328D02*
X194815170Y-196521900D01*
X194815170Y-196521900D02*
X194886598Y-196450471D01*
X194886598Y-196450471D02*
X194886598Y-196593328D01*
X195672313Y-196593328D02*
X195958027Y-196593328D01*
X195958027Y-196593328D02*
X196100884Y-196521900D01*
X196100884Y-196521900D02*
X196172313Y-196450471D01*
X196172313Y-196450471D02*
X196315170Y-196236185D01*
X196315170Y-196236185D02*
X196386599Y-195950471D01*
X196386599Y-195950471D02*
X196386599Y-195379042D01*
X196386599Y-195379042D02*
X196315170Y-195236185D01*
X196315170Y-195236185D02*
X196243742Y-195164757D01*
X196243742Y-195164757D02*
X196100884Y-195093328D01*
X196100884Y-195093328D02*
X195815170Y-195093328D01*
X195815170Y-195093328D02*
X195672313Y-195164757D01*
X195672313Y-195164757D02*
X195600884Y-195236185D01*
X195600884Y-195236185D02*
X195529456Y-195379042D01*
X195529456Y-195379042D02*
X195529456Y-195736185D01*
X195529456Y-195736185D02*
X195600884Y-195879042D01*
X195600884Y-195879042D02*
X195672313Y-195950471D01*
X195672313Y-195950471D02*
X195815170Y-196021900D01*
X195815170Y-196021900D02*
X196100884Y-196021900D01*
X196100884Y-196021900D02*
X196243742Y-195950471D01*
X196243742Y-195950471D02*
X196315170Y-195879042D01*
X196315170Y-195879042D02*
X196386599Y-195736185D01*
X197100884Y-196593328D02*
X197386598Y-196593328D01*
X197386598Y-196593328D02*
X197529455Y-196521900D01*
X197529455Y-196521900D02*
X197600884Y-196450471D01*
X197600884Y-196450471D02*
X197743741Y-196236185D01*
X197743741Y-196236185D02*
X197815170Y-195950471D01*
X197815170Y-195950471D02*
X197815170Y-195379042D01*
X197815170Y-195379042D02*
X197743741Y-195236185D01*
X197743741Y-195236185D02*
X197672313Y-195164757D01*
X197672313Y-195164757D02*
X197529455Y-195093328D01*
X197529455Y-195093328D02*
X197243741Y-195093328D01*
X197243741Y-195093328D02*
X197100884Y-195164757D01*
X197100884Y-195164757D02*
X197029455Y-195236185D01*
X197029455Y-195236185D02*
X196958027Y-195379042D01*
X196958027Y-195379042D02*
X196958027Y-195736185D01*
X196958027Y-195736185D02*
X197029455Y-195879042D01*
X197029455Y-195879042D02*
X197100884Y-195950471D01*
X197100884Y-195950471D02*
X197243741Y-196021900D01*
X197243741Y-196021900D02*
X197529455Y-196021900D01*
X197529455Y-196021900D02*
X197672313Y-195950471D01*
X197672313Y-195950471D02*
X197743741Y-195879042D01*
X197743741Y-195879042D02*
X197815170Y-195736185D01*
X198458026Y-196450471D02*
X198529455Y-196521900D01*
X198529455Y-196521900D02*
X198458026Y-196593328D01*
X198458026Y-196593328D02*
X198386598Y-196521900D01*
X198386598Y-196521900D02*
X198458026Y-196450471D01*
X198458026Y-196450471D02*
X198458026Y-196593328D01*
X199458027Y-195093328D02*
X199600884Y-195093328D01*
X199600884Y-195093328D02*
X199743741Y-195164757D01*
X199743741Y-195164757D02*
X199815170Y-195236185D01*
X199815170Y-195236185D02*
X199886598Y-195379042D01*
X199886598Y-195379042D02*
X199958027Y-195664757D01*
X199958027Y-195664757D02*
X199958027Y-196021900D01*
X199958027Y-196021900D02*
X199886598Y-196307614D01*
X199886598Y-196307614D02*
X199815170Y-196450471D01*
X199815170Y-196450471D02*
X199743741Y-196521900D01*
X199743741Y-196521900D02*
X199600884Y-196593328D01*
X199600884Y-196593328D02*
X199458027Y-196593328D01*
X199458027Y-196593328D02*
X199315170Y-196521900D01*
X199315170Y-196521900D02*
X199243741Y-196450471D01*
X199243741Y-196450471D02*
X199172312Y-196307614D01*
X199172312Y-196307614D02*
X199100884Y-196021900D01*
X199100884Y-196021900D02*
X199100884Y-195664757D01*
X199100884Y-195664757D02*
X199172312Y-195379042D01*
X199172312Y-195379042D02*
X199243741Y-195236185D01*
X199243741Y-195236185D02*
X199315170Y-195164757D01*
X199315170Y-195164757D02*
X199458027Y-195093328D01*
X200600883Y-196021900D02*
X201743741Y-196021900D01*
X202386598Y-195236185D02*
X202458026Y-195164757D01*
X202458026Y-195164757D02*
X202600884Y-195093328D01*
X202600884Y-195093328D02*
X202958026Y-195093328D01*
X202958026Y-195093328D02*
X203100884Y-195164757D01*
X203100884Y-195164757D02*
X203172312Y-195236185D01*
X203172312Y-195236185D02*
X203243741Y-195379042D01*
X203243741Y-195379042D02*
X203243741Y-195521900D01*
X203243741Y-195521900D02*
X203172312Y-195736185D01*
X203172312Y-195736185D02*
X202315169Y-196593328D01*
X202315169Y-196593328D02*
X203243741Y-196593328D01*
X204672312Y-196593328D02*
X203815169Y-196593328D01*
X204243740Y-196593328D02*
X204243740Y-195093328D01*
X204243740Y-195093328D02*
X204100883Y-195307614D01*
X204100883Y-195307614D02*
X203958026Y-195450471D01*
X203958026Y-195450471D02*
X203815169Y-195521900D01*
X205386597Y-196593328D02*
X205672311Y-196593328D01*
X205672311Y-196593328D02*
X205815168Y-196521900D01*
X205815168Y-196521900D02*
X205886597Y-196450471D01*
X205886597Y-196450471D02*
X206029454Y-196236185D01*
X206029454Y-196236185D02*
X206100883Y-195950471D01*
X206100883Y-195950471D02*
X206100883Y-195379042D01*
X206100883Y-195379042D02*
X206029454Y-195236185D01*
X206029454Y-195236185D02*
X205958026Y-195164757D01*
X205958026Y-195164757D02*
X205815168Y-195093328D01*
X205815168Y-195093328D02*
X205529454Y-195093328D01*
X205529454Y-195093328D02*
X205386597Y-195164757D01*
X205386597Y-195164757D02*
X205315168Y-195236185D01*
X205315168Y-195236185D02*
X205243740Y-195379042D01*
X205243740Y-195379042D02*
X205243740Y-195736185D01*
X205243740Y-195736185D02*
X205315168Y-195879042D01*
X205315168Y-195879042D02*
X205386597Y-195950471D01*
X205386597Y-195950471D02*
X205529454Y-196021900D01*
X205529454Y-196021900D02*
X205815168Y-196021900D01*
X205815168Y-196021900D02*
X205958026Y-195950471D01*
X205958026Y-195950471D02*
X206029454Y-195879042D01*
X206029454Y-195879042D02*
X206100883Y-195736185D01*
X206600882Y-195093328D02*
X207529454Y-195093328D01*
X207529454Y-195093328D02*
X207029454Y-195664757D01*
X207029454Y-195664757D02*
X207243739Y-195664757D01*
X207243739Y-195664757D02*
X207386597Y-195736185D01*
X207386597Y-195736185D02*
X207458025Y-195807614D01*
X207458025Y-195807614D02*
X207529454Y-195950471D01*
X207529454Y-195950471D02*
X207529454Y-196307614D01*
X207529454Y-196307614D02*
X207458025Y-196450471D01*
X207458025Y-196450471D02*
X207386597Y-196521900D01*
X207386597Y-196521900D02*
X207243739Y-196593328D01*
X207243739Y-196593328D02*
X206815168Y-196593328D01*
X206815168Y-196593328D02*
X206672311Y-196521900D01*
X206672311Y-196521900D02*
X206600882Y-196450471D01*
X208172310Y-196021900D02*
X209315168Y-196021900D01*
X210672311Y-195593328D02*
X210672311Y-196807614D01*
X210672311Y-196807614D02*
X210600882Y-196950471D01*
X210600882Y-196950471D02*
X210529453Y-197021900D01*
X210529453Y-197021900D02*
X210386596Y-197093328D01*
X210386596Y-197093328D02*
X210172311Y-197093328D01*
X210172311Y-197093328D02*
X210029453Y-197021900D01*
X210672311Y-196521900D02*
X210529453Y-196593328D01*
X210529453Y-196593328D02*
X210243739Y-196593328D01*
X210243739Y-196593328D02*
X210100882Y-196521900D01*
X210100882Y-196521900D02*
X210029453Y-196450471D01*
X210029453Y-196450471D02*
X209958025Y-196307614D01*
X209958025Y-196307614D02*
X209958025Y-195879042D01*
X209958025Y-195879042D02*
X210029453Y-195736185D01*
X210029453Y-195736185D02*
X210100882Y-195664757D01*
X210100882Y-195664757D02*
X210243739Y-195593328D01*
X210243739Y-195593328D02*
X210529453Y-195593328D01*
X210529453Y-195593328D02*
X210672311Y-195664757D01*
X211600882Y-195736185D02*
X211458025Y-195664757D01*
X211458025Y-195664757D02*
X211386596Y-195593328D01*
X211386596Y-195593328D02*
X211315168Y-195450471D01*
X211315168Y-195450471D02*
X211315168Y-195379042D01*
X211315168Y-195379042D02*
X211386596Y-195236185D01*
X211386596Y-195236185D02*
X211458025Y-195164757D01*
X211458025Y-195164757D02*
X211600882Y-195093328D01*
X211600882Y-195093328D02*
X211886596Y-195093328D01*
X211886596Y-195093328D02*
X212029454Y-195164757D01*
X212029454Y-195164757D02*
X212100882Y-195236185D01*
X212100882Y-195236185D02*
X212172311Y-195379042D01*
X212172311Y-195379042D02*
X212172311Y-195450471D01*
X212172311Y-195450471D02*
X212100882Y-195593328D01*
X212100882Y-195593328D02*
X212029454Y-195664757D01*
X212029454Y-195664757D02*
X211886596Y-195736185D01*
X211886596Y-195736185D02*
X211600882Y-195736185D01*
X211600882Y-195736185D02*
X211458025Y-195807614D01*
X211458025Y-195807614D02*
X211386596Y-195879042D01*
X211386596Y-195879042D02*
X211315168Y-196021900D01*
X211315168Y-196021900D02*
X211315168Y-196307614D01*
X211315168Y-196307614D02*
X211386596Y-196450471D01*
X211386596Y-196450471D02*
X211458025Y-196521900D01*
X211458025Y-196521900D02*
X211600882Y-196593328D01*
X211600882Y-196593328D02*
X211886596Y-196593328D01*
X211886596Y-196593328D02*
X212029454Y-196521900D01*
X212029454Y-196521900D02*
X212100882Y-196450471D01*
X212100882Y-196450471D02*
X212172311Y-196307614D01*
X212172311Y-196307614D02*
X212172311Y-196021900D01*
X212172311Y-196021900D02*
X212100882Y-195879042D01*
X212100882Y-195879042D02*
X212029454Y-195807614D01*
X212029454Y-195807614D02*
X211886596Y-195736185D01*
X213029453Y-195736185D02*
X212886596Y-195664757D01*
X212886596Y-195664757D02*
X212815167Y-195593328D01*
X212815167Y-195593328D02*
X212743739Y-195450471D01*
X212743739Y-195450471D02*
X212743739Y-195379042D01*
X212743739Y-195379042D02*
X212815167Y-195236185D01*
X212815167Y-195236185D02*
X212886596Y-195164757D01*
X212886596Y-195164757D02*
X213029453Y-195093328D01*
X213029453Y-195093328D02*
X213315167Y-195093328D01*
X213315167Y-195093328D02*
X213458025Y-195164757D01*
X213458025Y-195164757D02*
X213529453Y-195236185D01*
X213529453Y-195236185D02*
X213600882Y-195379042D01*
X213600882Y-195379042D02*
X213600882Y-195450471D01*
X213600882Y-195450471D02*
X213529453Y-195593328D01*
X213529453Y-195593328D02*
X213458025Y-195664757D01*
X213458025Y-195664757D02*
X213315167Y-195736185D01*
X213315167Y-195736185D02*
X213029453Y-195736185D01*
X213029453Y-195736185D02*
X212886596Y-195807614D01*
X212886596Y-195807614D02*
X212815167Y-195879042D01*
X212815167Y-195879042D02*
X212743739Y-196021900D01*
X212743739Y-196021900D02*
X212743739Y-196307614D01*
X212743739Y-196307614D02*
X212815167Y-196450471D01*
X212815167Y-196450471D02*
X212886596Y-196521900D01*
X212886596Y-196521900D02*
X213029453Y-196593328D01*
X213029453Y-196593328D02*
X213315167Y-196593328D01*
X213315167Y-196593328D02*
X213458025Y-196521900D01*
X213458025Y-196521900D02*
X213529453Y-196450471D01*
X213529453Y-196450471D02*
X213600882Y-196307614D01*
X213600882Y-196307614D02*
X213600882Y-196021900D01*
X213600882Y-196021900D02*
X213529453Y-195879042D01*
X213529453Y-195879042D02*
X213458025Y-195807614D01*
X213458025Y-195807614D02*
X213315167Y-195736185D01*
X214172310Y-195236185D02*
X214243738Y-195164757D01*
X214243738Y-195164757D02*
X214386596Y-195093328D01*
X214386596Y-195093328D02*
X214743738Y-195093328D01*
X214743738Y-195093328D02*
X214886596Y-195164757D01*
X214886596Y-195164757D02*
X214958024Y-195236185D01*
X214958024Y-195236185D02*
X215029453Y-195379042D01*
X215029453Y-195379042D02*
X215029453Y-195521900D01*
X215029453Y-195521900D02*
X214958024Y-195736185D01*
X214958024Y-195736185D02*
X214100881Y-196593328D01*
X214100881Y-196593328D02*
X215029453Y-196593328D01*
X215529452Y-195093328D02*
X216529452Y-195093328D01*
X216529452Y-195093328D02*
X215886595Y-196593328D01*
X217029452Y-195236185D02*
X217100880Y-195164757D01*
X217100880Y-195164757D02*
X217243738Y-195093328D01*
X217243738Y-195093328D02*
X217600880Y-195093328D01*
X217600880Y-195093328D02*
X217743738Y-195164757D01*
X217743738Y-195164757D02*
X217815166Y-195236185D01*
X217815166Y-195236185D02*
X217886595Y-195379042D01*
X217886595Y-195379042D02*
X217886595Y-195521900D01*
X217886595Y-195521900D02*
X217815166Y-195736185D01*
X217815166Y-195736185D02*
X216958023Y-196593328D01*
X216958023Y-196593328D02*
X217886595Y-196593328D01*
X219172309Y-196593328D02*
X219172309Y-195807614D01*
X219172309Y-195807614D02*
X219100880Y-195664757D01*
X219100880Y-195664757D02*
X218958023Y-195593328D01*
X218958023Y-195593328D02*
X218672309Y-195593328D01*
X218672309Y-195593328D02*
X218529451Y-195664757D01*
X219172309Y-196521900D02*
X219029451Y-196593328D01*
X219029451Y-196593328D02*
X218672309Y-196593328D01*
X218672309Y-196593328D02*
X218529451Y-196521900D01*
X218529451Y-196521900D02*
X218458023Y-196379042D01*
X218458023Y-196379042D02*
X218458023Y-196236185D01*
X218458023Y-196236185D02*
X218529451Y-196093328D01*
X218529451Y-196093328D02*
X218672309Y-196021900D01*
X218672309Y-196021900D02*
X219029451Y-196021900D01*
X219029451Y-196021900D02*
X219172309Y-195950471D01*
X220600880Y-195093328D02*
X219886594Y-195093328D01*
X219886594Y-195093328D02*
X219815166Y-195807614D01*
X219815166Y-195807614D02*
X219886594Y-195736185D01*
X219886594Y-195736185D02*
X220029452Y-195664757D01*
X220029452Y-195664757D02*
X220386594Y-195664757D01*
X220386594Y-195664757D02*
X220529452Y-195736185D01*
X220529452Y-195736185D02*
X220600880Y-195807614D01*
X220600880Y-195807614D02*
X220672309Y-195950471D01*
X220672309Y-195950471D02*
X220672309Y-196307614D01*
X220672309Y-196307614D02*
X220600880Y-196450471D01*
X220600880Y-196450471D02*
X220529452Y-196521900D01*
X220529452Y-196521900D02*
X220386594Y-196593328D01*
X220386594Y-196593328D02*
X220029452Y-196593328D01*
X220029452Y-196593328D02*
X219886594Y-196521900D01*
X219886594Y-196521900D02*
X219815166Y-196450471D01*
X221386594Y-196593328D02*
X221672308Y-196593328D01*
X221672308Y-196593328D02*
X221815165Y-196521900D01*
X221815165Y-196521900D02*
X221886594Y-196450471D01*
X221886594Y-196450471D02*
X222029451Y-196236185D01*
X222029451Y-196236185D02*
X222100880Y-195950471D01*
X222100880Y-195950471D02*
X222100880Y-195379042D01*
X222100880Y-195379042D02*
X222029451Y-195236185D01*
X222029451Y-195236185D02*
X221958023Y-195164757D01*
X221958023Y-195164757D02*
X221815165Y-195093328D01*
X221815165Y-195093328D02*
X221529451Y-195093328D01*
X221529451Y-195093328D02*
X221386594Y-195164757D01*
X221386594Y-195164757D02*
X221315165Y-195236185D01*
X221315165Y-195236185D02*
X221243737Y-195379042D01*
X221243737Y-195379042D02*
X221243737Y-195736185D01*
X221243737Y-195736185D02*
X221315165Y-195879042D01*
X221315165Y-195879042D02*
X221386594Y-195950471D01*
X221386594Y-195950471D02*
X221529451Y-196021900D01*
X221529451Y-196021900D02*
X221815165Y-196021900D01*
X221815165Y-196021900D02*
X221958023Y-195950471D01*
X221958023Y-195950471D02*
X222029451Y-195879042D01*
X222029451Y-195879042D02*
X222100880Y-195736185D01*
X222743736Y-196593328D02*
X222743736Y-195093328D01*
X222743736Y-195664757D02*
X222886594Y-195593328D01*
X222886594Y-195593328D02*
X223172308Y-195593328D01*
X223172308Y-195593328D02*
X223315165Y-195664757D01*
X223315165Y-195664757D02*
X223386594Y-195736185D01*
X223386594Y-195736185D02*
X223458022Y-195879042D01*
X223458022Y-195879042D02*
X223458022Y-196307614D01*
X223458022Y-196307614D02*
X223386594Y-196450471D01*
X223386594Y-196450471D02*
X223315165Y-196521900D01*
X223315165Y-196521900D02*
X223172308Y-196593328D01*
X223172308Y-196593328D02*
X222886594Y-196593328D01*
X222886594Y-196593328D02*
X222743736Y-196521900D01*
X223958022Y-195093328D02*
X224958022Y-195093328D01*
X224958022Y-195093328D02*
X224315165Y-196593328D01*
D10*
D11*
X177002200Y-191507200D02*
X285002200Y-191507200D01*
D10*
D12*
X264413853Y-193785528D02*
X263913853Y-193071242D01*
X263556710Y-193785528D02*
X263556710Y-192285528D01*
X263556710Y-192285528D02*
X264128139Y-192285528D01*
X264128139Y-192285528D02*
X264270996Y-192356957D01*
X264270996Y-192356957D02*
X264342425Y-192428385D01*
X264342425Y-192428385D02*
X264413853Y-192571242D01*
X264413853Y-192571242D02*
X264413853Y-192785528D01*
X264413853Y-192785528D02*
X264342425Y-192928385D01*
X264342425Y-192928385D02*
X264270996Y-192999814D01*
X264270996Y-192999814D02*
X264128139Y-193071242D01*
X264128139Y-193071242D02*
X263556710Y-193071242D01*
X265628139Y-193714100D02*
X265485282Y-193785528D01*
X265485282Y-193785528D02*
X265199568Y-193785528D01*
X265199568Y-193785528D02*
X265056710Y-193714100D01*
X265056710Y-193714100D02*
X264985282Y-193571242D01*
X264985282Y-193571242D02*
X264985282Y-192999814D01*
X264985282Y-192999814D02*
X265056710Y-192856957D01*
X265056710Y-192856957D02*
X265199568Y-192785528D01*
X265199568Y-192785528D02*
X265485282Y-192785528D01*
X265485282Y-192785528D02*
X265628139Y-192856957D01*
X265628139Y-192856957D02*
X265699568Y-192999814D01*
X265699568Y-192999814D02*
X265699568Y-193142671D01*
X265699568Y-193142671D02*
X264985282Y-193285528D01*
X266199567Y-192785528D02*
X266556710Y-193785528D01*
X266556710Y-193785528D02*
X266913853Y-192785528D01*
X267485281Y-193642671D02*
X267556710Y-193714100D01*
X267556710Y-193714100D02*
X267485281Y-193785528D01*
X267485281Y-193785528D02*
X267413853Y-193714100D01*
X267413853Y-193714100D02*
X267485281Y-193642671D01*
X267485281Y-193642671D02*
X267485281Y-193785528D01*
X267485281Y-192856957D02*
X267556710Y-192928385D01*
X267556710Y-192928385D02*
X267485281Y-192999814D01*
X267485281Y-192999814D02*
X267413853Y-192928385D01*
X267413853Y-192928385D02*
X267485281Y-192856957D01*
X267485281Y-192856957D02*
X267485281Y-192999814D01*
D10*
D11*
X178386598Y-193721900D02*
X178600884Y-193793328D01*
X178600884Y-193793328D02*
X178958026Y-193793328D01*
X178958026Y-193793328D02*
X179100884Y-193721900D01*
X179100884Y-193721900D02*
X179172312Y-193650471D01*
X179172312Y-193650471D02*
X179243741Y-193507614D01*
X179243741Y-193507614D02*
X179243741Y-193364757D01*
X179243741Y-193364757D02*
X179172312Y-193221900D01*
X179172312Y-193221900D02*
X179100884Y-193150471D01*
X179100884Y-193150471D02*
X178958026Y-193079042D01*
X178958026Y-193079042D02*
X178672312Y-193007614D01*
X178672312Y-193007614D02*
X178529455Y-192936185D01*
X178529455Y-192936185D02*
X178458026Y-192864757D01*
X178458026Y-192864757D02*
X178386598Y-192721900D01*
X178386598Y-192721900D02*
X178386598Y-192579042D01*
X178386598Y-192579042D02*
X178458026Y-192436185D01*
X178458026Y-192436185D02*
X178529455Y-192364757D01*
X178529455Y-192364757D02*
X178672312Y-192293328D01*
X178672312Y-192293328D02*
X179029455Y-192293328D01*
X179029455Y-192293328D02*
X179243741Y-192364757D01*
X179886597Y-193793328D02*
X179886597Y-192793328D01*
X179886597Y-192293328D02*
X179815169Y-192364757D01*
X179815169Y-192364757D02*
X179886597Y-192436185D01*
X179886597Y-192436185D02*
X179958026Y-192364757D01*
X179958026Y-192364757D02*
X179886597Y-192293328D01*
X179886597Y-192293328D02*
X179886597Y-192436185D01*
X180458026Y-192793328D02*
X181243741Y-192793328D01*
X181243741Y-192793328D02*
X180458026Y-193793328D01*
X180458026Y-193793328D02*
X181243741Y-193793328D01*
X182386598Y-193721900D02*
X182243741Y-193793328D01*
X182243741Y-193793328D02*
X181958027Y-193793328D01*
X181958027Y-193793328D02*
X181815169Y-193721900D01*
X181815169Y-193721900D02*
X181743741Y-193579042D01*
X181743741Y-193579042D02*
X181743741Y-193007614D01*
X181743741Y-193007614D02*
X181815169Y-192864757D01*
X181815169Y-192864757D02*
X181958027Y-192793328D01*
X181958027Y-192793328D02*
X182243741Y-192793328D01*
X182243741Y-192793328D02*
X182386598Y-192864757D01*
X182386598Y-192864757D02*
X182458027Y-193007614D01*
X182458027Y-193007614D02*
X182458027Y-193150471D01*
X182458027Y-193150471D02*
X181743741Y-193293328D01*
X183100883Y-193650471D02*
X183172312Y-193721900D01*
X183172312Y-193721900D02*
X183100883Y-193793328D01*
X183100883Y-193793328D02*
X183029455Y-193721900D01*
X183029455Y-193721900D02*
X183100883Y-193650471D01*
X183100883Y-193650471D02*
X183100883Y-193793328D01*
X183100883Y-192864757D02*
X183172312Y-192936185D01*
X183172312Y-192936185D02*
X183100883Y-193007614D01*
X183100883Y-193007614D02*
X183029455Y-192936185D01*
X183029455Y-192936185D02*
X183100883Y-192864757D01*
X183100883Y-192864757D02*
X183100883Y-193007614D01*
X184886598Y-193364757D02*
X185600884Y-193364757D01*
X184743741Y-193793328D02*
X185243741Y-192293328D01*
X185243741Y-192293328D02*
X185743741Y-193793328D01*
X186886598Y-192793328D02*
X186886598Y-193793328D01*
X186529455Y-192221900D02*
X186172312Y-193293328D01*
X186172312Y-193293328D02*
X187100883Y-193293328D01*
D10*
D11*
X263458026Y-196593328D02*
X263458026Y-195093328D01*
X264815170Y-196593328D02*
X264815170Y-195093328D01*
X264815170Y-196521900D02*
X264672312Y-196593328D01*
X264672312Y-196593328D02*
X264386598Y-196593328D01*
X264386598Y-196593328D02*
X264243741Y-196521900D01*
X264243741Y-196521900D02*
X264172312Y-196450471D01*
X264172312Y-196450471D02*
X264100884Y-196307614D01*
X264100884Y-196307614D02*
X264100884Y-195879042D01*
X264100884Y-195879042D02*
X264172312Y-195736185D01*
X264172312Y-195736185D02*
X264243741Y-195664757D01*
X264243741Y-195664757D02*
X264386598Y-195593328D01*
X264386598Y-195593328D02*
X264672312Y-195593328D01*
X264672312Y-195593328D02*
X264815170Y-195664757D01*
X265529455Y-196450471D02*
X265600884Y-196521900D01*
X265600884Y-196521900D02*
X265529455Y-196593328D01*
X265529455Y-196593328D02*
X265458027Y-196521900D01*
X265458027Y-196521900D02*
X265529455Y-196450471D01*
X265529455Y-196450471D02*
X265529455Y-196593328D01*
X265529455Y-195664757D02*
X265600884Y-195736185D01*
X265600884Y-195736185D02*
X265529455Y-195807614D01*
X265529455Y-195807614D02*
X265458027Y-195736185D01*
X265458027Y-195736185D02*
X265529455Y-195664757D01*
X265529455Y-195664757D02*
X265529455Y-195807614D01*
X268172313Y-196593328D02*
X267315170Y-196593328D01*
X267743741Y-196593328D02*
X267743741Y-195093328D01*
X267743741Y-195093328D02*
X267600884Y-195307614D01*
X267600884Y-195307614D02*
X267458027Y-195450471D01*
X267458027Y-195450471D02*
X267315170Y-195521900D01*
X269886598Y-195021900D02*
X268600884Y-196950471D01*
X271172313Y-196593328D02*
X270315170Y-196593328D01*
X270743741Y-196593328D02*
X270743741Y-195093328D01*
X270743741Y-195093328D02*
X270600884Y-195307614D01*
X270600884Y-195307614D02*
X270458027Y-195450471D01*
X270458027Y-195450471D02*
X270315170Y-195521900D01*
D10*
D11*
X177002200Y-187507200D02*
X285002200Y-187507200D01*
D10*
D13*
X178693928Y-188211638D02*
X179836785Y-188211638D01*
X179015357Y-190211638D02*
X179265357Y-188211638D01*
X180253452Y-190211638D02*
X180420119Y-188878304D01*
X180503452Y-188211638D02*
X180396309Y-188306876D01*
X180396309Y-188306876D02*
X180479643Y-188402114D01*
X180479643Y-188402114D02*
X180586786Y-188306876D01*
X180586786Y-188306876D02*
X180503452Y-188211638D01*
X180503452Y-188211638D02*
X180479643Y-188402114D01*
X181086786Y-188878304D02*
X181848690Y-188878304D01*
X181455833Y-188211638D02*
X181241548Y-189925923D01*
X181241548Y-189925923D02*
X181312976Y-190116400D01*
X181312976Y-190116400D02*
X181491548Y-190211638D01*
X181491548Y-190211638D02*
X181682024Y-190211638D01*
X182634405Y-190211638D02*
X182455833Y-190116400D01*
X182455833Y-190116400D02*
X182384405Y-189925923D01*
X182384405Y-189925923D02*
X182598690Y-188211638D01*
X184170119Y-190116400D02*
X183967738Y-190211638D01*
X183967738Y-190211638D02*
X183586785Y-190211638D01*
X183586785Y-190211638D02*
X183408214Y-190116400D01*
X183408214Y-190116400D02*
X183336785Y-189925923D01*
X183336785Y-189925923D02*
X183432024Y-189164019D01*
X183432024Y-189164019D02*
X183551071Y-188973542D01*
X183551071Y-188973542D02*
X183753452Y-188878304D01*
X183753452Y-188878304D02*
X184134404Y-188878304D01*
X184134404Y-188878304D02*
X184312976Y-188973542D01*
X184312976Y-188973542D02*
X184384404Y-189164019D01*
X184384404Y-189164019D02*
X184360595Y-189354495D01*
X184360595Y-189354495D02*
X183384404Y-189544971D01*
X185134405Y-190021161D02*
X185217738Y-190116400D01*
X185217738Y-190116400D02*
X185110595Y-190211638D01*
X185110595Y-190211638D02*
X185027262Y-190116400D01*
X185027262Y-190116400D02*
X185134405Y-190021161D01*
X185134405Y-190021161D02*
X185110595Y-190211638D01*
X185265357Y-188973542D02*
X185348690Y-189068780D01*
X185348690Y-189068780D02*
X185241548Y-189164019D01*
X185241548Y-189164019D02*
X185158214Y-189068780D01*
X185158214Y-189068780D02*
X185265357Y-188973542D01*
X185265357Y-188973542D02*
X185241548Y-189164019D01*
D10*
D11*
X178958026Y-185607614D02*
X178458026Y-185607614D01*
X178458026Y-186393328D02*
X178458026Y-184893328D01*
X178458026Y-184893328D02*
X179172312Y-184893328D01*
X179743740Y-186393328D02*
X179743740Y-185393328D01*
X179743740Y-184893328D02*
X179672312Y-184964757D01*
X179672312Y-184964757D02*
X179743740Y-185036185D01*
X179743740Y-185036185D02*
X179815169Y-184964757D01*
X179815169Y-184964757D02*
X179743740Y-184893328D01*
X179743740Y-184893328D02*
X179743740Y-185036185D01*
X180672312Y-186393328D02*
X180529455Y-186321900D01*
X180529455Y-186321900D02*
X180458026Y-186179042D01*
X180458026Y-186179042D02*
X180458026Y-184893328D01*
X181815169Y-186321900D02*
X181672312Y-186393328D01*
X181672312Y-186393328D02*
X181386598Y-186393328D01*
X181386598Y-186393328D02*
X181243740Y-186321900D01*
X181243740Y-186321900D02*
X181172312Y-186179042D01*
X181172312Y-186179042D02*
X181172312Y-185607614D01*
X181172312Y-185607614D02*
X181243740Y-185464757D01*
X181243740Y-185464757D02*
X181386598Y-185393328D01*
X181386598Y-185393328D02*
X181672312Y-185393328D01*
X181672312Y-185393328D02*
X181815169Y-185464757D01*
X181815169Y-185464757D02*
X181886598Y-185607614D01*
X181886598Y-185607614D02*
X181886598Y-185750471D01*
X181886598Y-185750471D02*
X181172312Y-185893328D01*
X182529454Y-186250471D02*
X182600883Y-186321900D01*
X182600883Y-186321900D02*
X182529454Y-186393328D01*
X182529454Y-186393328D02*
X182458026Y-186321900D01*
X182458026Y-186321900D02*
X182529454Y-186250471D01*
X182529454Y-186250471D02*
X182529454Y-186393328D01*
X182529454Y-185464757D02*
X182600883Y-185536185D01*
X182600883Y-185536185D02*
X182529454Y-185607614D01*
X182529454Y-185607614D02*
X182458026Y-185536185D01*
X182458026Y-185536185D02*
X182529454Y-185464757D01*
X182529454Y-185464757D02*
X182529454Y-185607614D01*
X185029455Y-185393328D02*
X185029455Y-186893328D01*
X185029455Y-186321900D02*
X184886597Y-186393328D01*
X184886597Y-186393328D02*
X184600883Y-186393328D01*
X184600883Y-186393328D02*
X184458026Y-186321900D01*
X184458026Y-186321900D02*
X184386597Y-186250471D01*
X184386597Y-186250471D02*
X184315169Y-186107614D01*
X184315169Y-186107614D02*
X184315169Y-185679042D01*
X184315169Y-185679042D02*
X184386597Y-185536185D01*
X184386597Y-185536185D02*
X184458026Y-185464757D01*
X184458026Y-185464757D02*
X184600883Y-185393328D01*
X184600883Y-185393328D02*
X184886597Y-185393328D01*
X184886597Y-185393328D02*
X185029455Y-185464757D01*
X185743740Y-186393328D02*
X185743740Y-184893328D01*
X185886598Y-185821900D02*
X186315169Y-186393328D01*
X186315169Y-185393328D02*
X185743740Y-185964757D01*
X187172312Y-185536185D02*
X187029455Y-185464757D01*
X187029455Y-185464757D02*
X186958026Y-185393328D01*
X186958026Y-185393328D02*
X186886598Y-185250471D01*
X186886598Y-185250471D02*
X186886598Y-185179042D01*
X186886598Y-185179042D02*
X186958026Y-185036185D01*
X186958026Y-185036185D02*
X187029455Y-184964757D01*
X187029455Y-184964757D02*
X187172312Y-184893328D01*
X187172312Y-184893328D02*
X187458026Y-184893328D01*
X187458026Y-184893328D02*
X187600884Y-184964757D01*
X187600884Y-184964757D02*
X187672312Y-185036185D01*
X187672312Y-185036185D02*
X187743741Y-185179042D01*
X187743741Y-185179042D02*
X187743741Y-185250471D01*
X187743741Y-185250471D02*
X187672312Y-185393328D01*
X187672312Y-185393328D02*
X187600884Y-185464757D01*
X187600884Y-185464757D02*
X187458026Y-185536185D01*
X187458026Y-185536185D02*
X187172312Y-185536185D01*
X187172312Y-185536185D02*
X187029455Y-185607614D01*
X187029455Y-185607614D02*
X186958026Y-185679042D01*
X186958026Y-185679042D02*
X186886598Y-185821900D01*
X186886598Y-185821900D02*
X186886598Y-186107614D01*
X186886598Y-186107614D02*
X186958026Y-186250471D01*
X186958026Y-186250471D02*
X187029455Y-186321900D01*
X187029455Y-186321900D02*
X187172312Y-186393328D01*
X187172312Y-186393328D02*
X187458026Y-186393328D01*
X187458026Y-186393328D02*
X187600884Y-186321900D01*
X187600884Y-186321900D02*
X187672312Y-186250471D01*
X187672312Y-186250471D02*
X187743741Y-186107614D01*
X187743741Y-186107614D02*
X187743741Y-185821900D01*
X187743741Y-185821900D02*
X187672312Y-185679042D01*
X187672312Y-185679042D02*
X187600884Y-185607614D01*
X187600884Y-185607614D02*
X187458026Y-185536185D01*
X188672312Y-184893328D02*
X188815169Y-184893328D01*
X188815169Y-184893328D02*
X188958026Y-184964757D01*
X188958026Y-184964757D02*
X189029455Y-185036185D01*
X189029455Y-185036185D02*
X189100883Y-185179042D01*
X189100883Y-185179042D02*
X189172312Y-185464757D01*
X189172312Y-185464757D02*
X189172312Y-185821900D01*
X189172312Y-185821900D02*
X189100883Y-186107614D01*
X189100883Y-186107614D02*
X189029455Y-186250471D01*
X189029455Y-186250471D02*
X188958026Y-186321900D01*
X188958026Y-186321900D02*
X188815169Y-186393328D01*
X188815169Y-186393328D02*
X188672312Y-186393328D01*
X188672312Y-186393328D02*
X188529455Y-186321900D01*
X188529455Y-186321900D02*
X188458026Y-186250471D01*
X188458026Y-186250471D02*
X188386597Y-186107614D01*
X188386597Y-186107614D02*
X188315169Y-185821900D01*
X188315169Y-185821900D02*
X188315169Y-185464757D01*
X188315169Y-185464757D02*
X188386597Y-185179042D01*
X188386597Y-185179042D02*
X188458026Y-185036185D01*
X188458026Y-185036185D02*
X188529455Y-184964757D01*
X188529455Y-184964757D02*
X188672312Y-184893328D01*
X189815168Y-186250471D02*
X189886597Y-186321900D01*
X189886597Y-186321900D02*
X189815168Y-186393328D01*
X189815168Y-186393328D02*
X189743740Y-186321900D01*
X189743740Y-186321900D02*
X189815168Y-186250471D01*
X189815168Y-186250471D02*
X189815168Y-186393328D01*
X190529454Y-186393328D02*
X190529454Y-184893328D01*
X190672312Y-185821900D02*
X191100883Y-186393328D01*
X191100883Y-185393328D02*
X190529454Y-185964757D01*
X191743740Y-186393328D02*
X191743740Y-185393328D01*
X191743740Y-184893328D02*
X191672312Y-184964757D01*
X191672312Y-184964757D02*
X191743740Y-185036185D01*
X191743740Y-185036185D02*
X191815169Y-184964757D01*
X191815169Y-184964757D02*
X191743740Y-184893328D01*
X191743740Y-184893328D02*
X191743740Y-185036185D01*
X193100884Y-186321900D02*
X192958026Y-186393328D01*
X192958026Y-186393328D02*
X192672312Y-186393328D01*
X192672312Y-186393328D02*
X192529455Y-186321900D01*
X192529455Y-186321900D02*
X192458026Y-186250471D01*
X192458026Y-186250471D02*
X192386598Y-186107614D01*
X192386598Y-186107614D02*
X192386598Y-185679042D01*
X192386598Y-185679042D02*
X192458026Y-185536185D01*
X192458026Y-185536185D02*
X192529455Y-185464757D01*
X192529455Y-185464757D02*
X192672312Y-185393328D01*
X192672312Y-185393328D02*
X192958026Y-185393328D01*
X192958026Y-185393328D02*
X193100884Y-185464757D01*
X194386598Y-186393328D02*
X194386598Y-185607614D01*
X194386598Y-185607614D02*
X194315169Y-185464757D01*
X194315169Y-185464757D02*
X194172312Y-185393328D01*
X194172312Y-185393328D02*
X193886598Y-185393328D01*
X193886598Y-185393328D02*
X193743740Y-185464757D01*
X194386598Y-186321900D02*
X194243740Y-186393328D01*
X194243740Y-186393328D02*
X193886598Y-186393328D01*
X193886598Y-186393328D02*
X193743740Y-186321900D01*
X193743740Y-186321900D02*
X193672312Y-186179042D01*
X193672312Y-186179042D02*
X193672312Y-186036185D01*
X193672312Y-186036185D02*
X193743740Y-185893328D01*
X193743740Y-185893328D02*
X193886598Y-185821900D01*
X193886598Y-185821900D02*
X194243740Y-185821900D01*
X194243740Y-185821900D02*
X194386598Y-185750471D01*
X195743741Y-186393328D02*
X195743741Y-184893328D01*
X195743741Y-186321900D02*
X195600883Y-186393328D01*
X195600883Y-186393328D02*
X195315169Y-186393328D01*
X195315169Y-186393328D02*
X195172312Y-186321900D01*
X195172312Y-186321900D02*
X195100883Y-186250471D01*
X195100883Y-186250471D02*
X195029455Y-186107614D01*
X195029455Y-186107614D02*
X195029455Y-185679042D01*
X195029455Y-185679042D02*
X195100883Y-185536185D01*
X195100883Y-185536185D02*
X195172312Y-185464757D01*
X195172312Y-185464757D02*
X195315169Y-185393328D01*
X195315169Y-185393328D02*
X195600883Y-185393328D01*
X195600883Y-185393328D02*
X195743741Y-185464757D01*
X196100884Y-186536185D02*
X197243741Y-186536185D01*
X197600883Y-185393328D02*
X197600883Y-186893328D01*
X197600883Y-185464757D02*
X197743741Y-185393328D01*
X197743741Y-185393328D02*
X198029455Y-185393328D01*
X198029455Y-185393328D02*
X198172312Y-185464757D01*
X198172312Y-185464757D02*
X198243741Y-185536185D01*
X198243741Y-185536185D02*
X198315169Y-185679042D01*
X198315169Y-185679042D02*
X198315169Y-186107614D01*
X198315169Y-186107614D02*
X198243741Y-186250471D01*
X198243741Y-186250471D02*
X198172312Y-186321900D01*
X198172312Y-186321900D02*
X198029455Y-186393328D01*
X198029455Y-186393328D02*
X197743741Y-186393328D01*
X197743741Y-186393328D02*
X197600883Y-186321900D01*
X199600884Y-186321900D02*
X199458026Y-186393328D01*
X199458026Y-186393328D02*
X199172312Y-186393328D01*
X199172312Y-186393328D02*
X199029455Y-186321900D01*
X199029455Y-186321900D02*
X198958026Y-186250471D01*
X198958026Y-186250471D02*
X198886598Y-186107614D01*
X198886598Y-186107614D02*
X198886598Y-185679042D01*
X198886598Y-185679042D02*
X198958026Y-185536185D01*
X198958026Y-185536185D02*
X199029455Y-185464757D01*
X199029455Y-185464757D02*
X199172312Y-185393328D01*
X199172312Y-185393328D02*
X199458026Y-185393328D01*
X199458026Y-185393328D02*
X199600884Y-185464757D01*
X200243740Y-186393328D02*
X200243740Y-184893328D01*
X200243740Y-185464757D02*
X200386598Y-185393328D01*
X200386598Y-185393328D02*
X200672312Y-185393328D01*
X200672312Y-185393328D02*
X200815169Y-185464757D01*
X200815169Y-185464757D02*
X200886598Y-185536185D01*
X200886598Y-185536185D02*
X200958026Y-185679042D01*
X200958026Y-185679042D02*
X200958026Y-186107614D01*
X200958026Y-186107614D02*
X200886598Y-186250471D01*
X200886598Y-186250471D02*
X200815169Y-186321900D01*
X200815169Y-186321900D02*
X200672312Y-186393328D01*
X200672312Y-186393328D02*
X200386598Y-186393328D01*
X200386598Y-186393328D02*
X200243740Y-186321900D01*
D10*
D11*
X177002200Y-181507200D02*
X285002200Y-181507200D01*
D10*
D11*
X178386598Y-183621900D02*
X178600884Y-183693328D01*
X178600884Y-183693328D02*
X178958026Y-183693328D01*
X178958026Y-183693328D02*
X179100884Y-183621900D01*
X179100884Y-183621900D02*
X179172312Y-183550471D01*
X179172312Y-183550471D02*
X179243741Y-183407614D01*
X179243741Y-183407614D02*
X179243741Y-183264757D01*
X179243741Y-183264757D02*
X179172312Y-183121900D01*
X179172312Y-183121900D02*
X179100884Y-183050471D01*
X179100884Y-183050471D02*
X178958026Y-182979042D01*
X178958026Y-182979042D02*
X178672312Y-182907614D01*
X178672312Y-182907614D02*
X178529455Y-182836185D01*
X178529455Y-182836185D02*
X178458026Y-182764757D01*
X178458026Y-182764757D02*
X178386598Y-182621900D01*
X178386598Y-182621900D02*
X178386598Y-182479042D01*
X178386598Y-182479042D02*
X178458026Y-182336185D01*
X178458026Y-182336185D02*
X178529455Y-182264757D01*
X178529455Y-182264757D02*
X178672312Y-182193328D01*
X178672312Y-182193328D02*
X179029455Y-182193328D01*
X179029455Y-182193328D02*
X179243741Y-182264757D01*
X179886597Y-183693328D02*
X179886597Y-182193328D01*
X180529455Y-183693328D02*
X180529455Y-182907614D01*
X180529455Y-182907614D02*
X180458026Y-182764757D01*
X180458026Y-182764757D02*
X180315169Y-182693328D01*
X180315169Y-182693328D02*
X180100883Y-182693328D01*
X180100883Y-182693328D02*
X179958026Y-182764757D01*
X179958026Y-182764757D02*
X179886597Y-182836185D01*
X181815169Y-183621900D02*
X181672312Y-183693328D01*
X181672312Y-183693328D02*
X181386598Y-183693328D01*
X181386598Y-183693328D02*
X181243740Y-183621900D01*
X181243740Y-183621900D02*
X181172312Y-183479042D01*
X181172312Y-183479042D02*
X181172312Y-182907614D01*
X181172312Y-182907614D02*
X181243740Y-182764757D01*
X181243740Y-182764757D02*
X181386598Y-182693328D01*
X181386598Y-182693328D02*
X181672312Y-182693328D01*
X181672312Y-182693328D02*
X181815169Y-182764757D01*
X181815169Y-182764757D02*
X181886598Y-182907614D01*
X181886598Y-182907614D02*
X181886598Y-183050471D01*
X181886598Y-183050471D02*
X181172312Y-183193328D01*
X183100883Y-183621900D02*
X182958026Y-183693328D01*
X182958026Y-183693328D02*
X182672312Y-183693328D01*
X182672312Y-183693328D02*
X182529454Y-183621900D01*
X182529454Y-183621900D02*
X182458026Y-183479042D01*
X182458026Y-183479042D02*
X182458026Y-182907614D01*
X182458026Y-182907614D02*
X182529454Y-182764757D01*
X182529454Y-182764757D02*
X182672312Y-182693328D01*
X182672312Y-182693328D02*
X182958026Y-182693328D01*
X182958026Y-182693328D02*
X183100883Y-182764757D01*
X183100883Y-182764757D02*
X183172312Y-182907614D01*
X183172312Y-182907614D02*
X183172312Y-183050471D01*
X183172312Y-183050471D02*
X182458026Y-183193328D01*
X183600883Y-182693328D02*
X184172311Y-182693328D01*
X183815168Y-182193328D02*
X183815168Y-183479042D01*
X183815168Y-183479042D02*
X183886597Y-183621900D01*
X183886597Y-183621900D02*
X184029454Y-183693328D01*
X184029454Y-183693328D02*
X184172311Y-183693328D01*
X184672311Y-183550471D02*
X184743740Y-183621900D01*
X184743740Y-183621900D02*
X184672311Y-183693328D01*
X184672311Y-183693328D02*
X184600883Y-183621900D01*
X184600883Y-183621900D02*
X184672311Y-183550471D01*
X184672311Y-183550471D02*
X184672311Y-183693328D01*
X184672311Y-182764757D02*
X184743740Y-182836185D01*
X184743740Y-182836185D02*
X184672311Y-182907614D01*
X184672311Y-182907614D02*
X184600883Y-182836185D01*
X184600883Y-182836185D02*
X184672311Y-182764757D01*
X184672311Y-182764757D02*
X184672311Y-182907614D01*
D10*
D11*
X197002200Y-191507200D02*
X197002200Y-194507200D01*
D10*
D11*
X261002200Y-191507200D02*
X261002200Y-198007200D01*
D14*
%TO.C,D88*%
X1167690000Y400410000D03*
X1167690000Y401510000D03*
X1165860000Y401510000D03*
X1165860000Y400410000D03*
%TD*%
%TO.C,D87*%
X1164155000Y400410000D03*
X1164155000Y401510000D03*
X1162325000Y401510000D03*
X1162325000Y400410000D03*
%TD*%
%TO.C,D85*%
X1160615000Y400410000D03*
X1160615000Y401510000D03*
X1158785000Y401510000D03*
X1158785000Y400410000D03*
%TD*%
%TO.C,D84*%
X1157075000Y400410000D03*
X1157075000Y401510000D03*
X1155245000Y401510000D03*
X1155245000Y400410000D03*
%TD*%
%TO.C,D83*%
X1153535000Y400400000D03*
X1153535000Y401500000D03*
X1151705000Y401500000D03*
X1151705000Y400400000D03*
%TD*%
D15*
%TO.C,SW82*%
X1135529013Y377679948D03*
D16*
X1140609013Y377679948D03*
D15*
X1145689013Y377679948D03*
%TD*%
%TO.C,SW24*%
X830729513Y415779948D03*
D16*
X835809513Y415779948D03*
D15*
X840889513Y415779948D03*
%TD*%
%TO.C,SW76*%
X1040279013Y377679948D03*
D16*
X1045359013Y377679948D03*
D15*
X1050439013Y377679948D03*
%TD*%
%TO.C,SW79*%
X1066473013Y377679948D03*
D16*
X1071553013Y377679948D03*
D15*
X1076633013Y377679948D03*
%TD*%
%TO.C,SW29*%
X1011704013Y458642448D03*
D16*
X1016784013Y458642448D03*
D15*
X1021864013Y458642448D03*
%TD*%
%TO.C,SW39*%
X892641513Y415779948D03*
D16*
X897721513Y415779948D03*
D15*
X902801513Y415779948D03*
%TD*%
%TO.C,SW44*%
X987891513Y415779948D03*
D16*
X992971513Y415779948D03*
D15*
X998051513Y415779948D03*
%TD*%
D17*
%TO.C,SWb\u00F4trst1*%
X1151350000Y369870000D03*
D18*
X1153850000Y369870000D03*
%TD*%
D15*
%TO.C,SW68*%
X887879013Y377679948D03*
D16*
X892959013Y377679948D03*
D15*
X898039013Y377679948D03*
%TD*%
%TO.C,SW54*%
X859304013Y396729948D03*
D16*
X864384013Y396729948D03*
D15*
X869464013Y396729948D03*
%TD*%
%TO.C,SW16*%
X1116479013Y434829948D03*
D16*
X1121559013Y434829948D03*
D15*
X1126639013Y434829948D03*
%TD*%
%TO.C,SW51*%
X1116479013Y415779948D03*
D16*
X1121559013Y415779948D03*
D15*
X1126639013Y415779948D03*
%TD*%
%TO.C,SW6*%
X921216513Y434829948D03*
D16*
X926296513Y434829948D03*
D15*
X931376513Y434829948D03*
%TD*%
%TO.C,SW81*%
X878354513Y358629948D03*
D16*
X883434513Y358629948D03*
D15*
X888514513Y358629948D03*
%TD*%
%TO.C,SW52*%
X1135529013Y415779948D03*
D16*
X1140609013Y415779948D03*
D15*
X1145689013Y415779948D03*
%TD*%
%TO.C,SW37*%
X854541513Y415779948D03*
D16*
X859621513Y415779948D03*
D15*
X864701513Y415779948D03*
%TD*%
%TO.C,SW60*%
X973604013Y396729948D03*
D16*
X978684013Y396729948D03*
D15*
X983764013Y396729948D03*
%TD*%
%TO.C,SW3*%
X864066513Y434829948D03*
D16*
X869146513Y434829948D03*
D15*
X874226513Y434829948D03*
%TD*%
%TO.C,SW31*%
X1049804013Y458642448D03*
D16*
X1054884013Y458642448D03*
D15*
X1059964013Y458642448D03*
%TD*%
%TO.C,SW72*%
X964079013Y377679948D03*
D16*
X969159013Y377679948D03*
D15*
X974239013Y377679948D03*
%TD*%
%TO.C,SW13*%
X1054566513Y434829948D03*
D16*
X1059646513Y434829948D03*
D15*
X1064726513Y434829948D03*
%TD*%
%TO.C,SW2*%
X845016513Y434829948D03*
D16*
X850096513Y434829948D03*
D15*
X855176513Y434829948D03*
%TD*%
%TO.C,SW63*%
X1030754013Y396729948D03*
D16*
X1035834013Y396729948D03*
D15*
X1040914013Y396729948D03*
%TD*%
%TO.C,SW8*%
X959316513Y434829948D03*
D16*
X964396513Y434829948D03*
D15*
X969476513Y434829948D03*
%TD*%
%TO.C,SW43*%
X968841513Y415779948D03*
D16*
X973921513Y415779948D03*
D15*
X979001513Y415779948D03*
%TD*%
%TO.C,SW1002*%
X828347513Y396729948D03*
D16*
X833427513Y396729948D03*
D15*
X838507513Y396729948D03*
%TD*%
%TO.C,SW38*%
X873591513Y415779948D03*
D16*
X878671513Y415779948D03*
D15*
X883751513Y415779948D03*
%TD*%
%TO.C,SW33*%
X1092666513Y458642448D03*
D16*
X1097746513Y458642448D03*
D15*
X1102826513Y458642448D03*
%TD*%
%TO.C,SW47*%
X1045041513Y415779948D03*
D16*
X1050121513Y415779948D03*
D15*
X1055201513Y415779948D03*
%TD*%
%TO.C,SW4*%
X883116513Y434829948D03*
D16*
X888196513Y434829948D03*
D15*
X893276513Y434829948D03*
%TD*%
%TO.C,SW55*%
X878354013Y396729948D03*
D16*
X883434013Y396729948D03*
D15*
X888514013Y396729948D03*
%TD*%
D19*
%TO.C,SW67*%
X1073976613Y404984948D03*
D20*
X1073976613Y389744948D03*
D15*
X1080834613Y396729948D03*
D16*
X1085914613Y396729948D03*
D15*
X1090994613Y396729948D03*
D19*
X1097852613Y404984948D03*
D20*
X1097852613Y389744948D03*
%TD*%
D15*
%TO.C,SW22*%
X887879013Y458642448D03*
D16*
X892959013Y458642448D03*
D15*
X898039013Y458642448D03*
%TD*%
%TO.C,SW97*%
X1154579013Y358629948D03*
D16*
X1159659013Y358629948D03*
D15*
X1164739013Y358629948D03*
%TD*%
%TO.C,SW11*%
X1016466513Y434829948D03*
D16*
X1021546513Y434829948D03*
D15*
X1026626513Y434829948D03*
%TD*%
%TO.C,SW19*%
X825966513Y458642448D03*
D16*
X831046513Y458642448D03*
D15*
X836126513Y458642448D03*
%TD*%
%TO.C,SW18*%
X1154579013Y434829948D03*
D16*
X1159659013Y434829948D03*
D15*
X1164739013Y434829948D03*
%TD*%
%TO.C,SW25*%
X930741513Y458642448D03*
D16*
X935821513Y458642448D03*
D15*
X940901513Y458642448D03*
%TD*%
D20*
%TO.C,SW1001*%
X1076283513Y441814948D03*
D19*
X1076283513Y426574948D03*
D15*
X1083141513Y434829948D03*
D16*
X1088221513Y434829948D03*
D15*
X1093301513Y434829948D03*
D20*
X1100159513Y441814948D03*
D19*
X1100159513Y426574948D03*
%TD*%
D20*
%TO.C,SW1000*%
X1069140013Y384664948D03*
D19*
X1069140013Y369424948D03*
D15*
X1075998013Y377679948D03*
D16*
X1081078013Y377679948D03*
D15*
X1086158013Y377679948D03*
D20*
X1093016013Y384664948D03*
D19*
X1093016013Y369424948D03*
%TD*%
D15*
%TO.C,SW93*%
X1064091513Y358629948D03*
D16*
X1069171513Y358629948D03*
D15*
X1074251513Y358629948D03*
%TD*%
D19*
%TO.C,SW86*%
X907246513Y366892448D03*
D20*
X907246513Y351652448D03*
D15*
X959316513Y358637448D03*
D16*
X964396513Y358637448D03*
D15*
X969476513Y358637448D03*
D19*
X1021546513Y366892448D03*
D20*
X1021546513Y351652448D03*
%TD*%
D15*
%TO.C,SW9*%
X978366513Y434829948D03*
D16*
X983446513Y434829948D03*
D15*
X988526513Y434829948D03*
%TD*%
%TO.C,SW80*%
X1092666513Y377679948D03*
D16*
X1097746513Y377679948D03*
D15*
X1102826513Y377679948D03*
%TD*%
%TO.C,SW46*%
X1025991513Y415779948D03*
D16*
X1031071513Y415779948D03*
D15*
X1036151513Y415779948D03*
%TD*%
%TO.C,SW62*%
X1011704013Y396729948D03*
D16*
X1016784013Y396729948D03*
D15*
X1021864013Y396729948D03*
%TD*%
%TO.C,SW41*%
X930741513Y415779948D03*
D16*
X935821513Y415779948D03*
D15*
X940901513Y415779948D03*
%TD*%
%TO.C,SW12*%
X1035516513Y434829948D03*
D16*
X1040596513Y434829948D03*
D15*
X1045676513Y434829948D03*
%TD*%
%TO.C,SW49*%
X833110513Y396729948D03*
D16*
X838190513Y396729948D03*
D15*
X843270513Y396729948D03*
%TD*%
D17*
%TO.C,SWb\u00F4t1*%
X1151360000Y373190000D03*
D18*
X1153860000Y373190000D03*
%TD*%
D15*
%TO.C,SW50*%
X1087904513Y415779948D03*
D16*
X1092984513Y415779948D03*
D15*
X1098064513Y415779948D03*
%TD*%
%TO.C,SW17*%
X1135529013Y434829948D03*
D16*
X1140609013Y434829948D03*
D15*
X1145689013Y434829948D03*
%TD*%
%TO.C,SW10*%
X997416513Y434829948D03*
D16*
X1002496513Y434829948D03*
D15*
X1007576513Y434829948D03*
%TD*%
%TO.C,SW32*%
X1068854013Y458642448D03*
D16*
X1073934013Y458642448D03*
D15*
X1079014013Y458642448D03*
%TD*%
D21*
%TO.C,J2*%
X1166820000Y387320000D03*
D22*
X1166820000Y389320000D03*
X1166820000Y391320000D03*
X1166820000Y393320000D03*
X1166820000Y395320000D03*
%TD*%
D20*
%TO.C,SW65*%
X831089113Y384664948D03*
D19*
X831089113Y369424948D03*
D15*
X837947113Y377679948D03*
D16*
X843027113Y377679948D03*
D15*
X848107113Y377679948D03*
D20*
X854965113Y384664948D03*
D19*
X854965113Y369424948D03*
%TD*%
D15*
%TO.C,SW94*%
X1087904513Y358629948D03*
D16*
X1092984513Y358629948D03*
D15*
X1098064513Y358629948D03*
%TD*%
%TO.C,SW26*%
X949791513Y458642448D03*
D16*
X954871513Y458642448D03*
D15*
X959951513Y458642448D03*
%TD*%
%TO.C,SW21*%
X868829013Y458642448D03*
D16*
X873909013Y458642448D03*
D15*
X878989013Y458642448D03*
%TD*%
%TO.C,SW23*%
X906929013Y458642448D03*
D16*
X912009013Y458642448D03*
D15*
X917089013Y458642448D03*
%TD*%
%TO.C,SW42*%
X949791513Y415779948D03*
D16*
X954871513Y415779948D03*
D15*
X959951513Y415779948D03*
%TD*%
%TO.C,SW57*%
X916454013Y396729948D03*
D16*
X921534013Y396729948D03*
D15*
X926614013Y396729948D03*
%TD*%
%TO.C,SW95*%
X1116479013Y358629948D03*
D16*
X1121559013Y358629948D03*
D15*
X1126639013Y358629948D03*
%TD*%
%TO.C,SW61*%
X992654013Y396729948D03*
D16*
X997734013Y396729948D03*
D15*
X1002814013Y396729948D03*
%TD*%
%TO.C,SW66*%
X868829013Y377679948D03*
D16*
X873909013Y377679948D03*
D15*
X878989013Y377679948D03*
%TD*%
%TO.C,SW28*%
X987891513Y458642448D03*
D16*
X992971513Y458642448D03*
D15*
X998051513Y458642448D03*
%TD*%
%TO.C,SW53*%
X1154579013Y415779948D03*
D16*
X1159659013Y415779948D03*
D15*
X1164739013Y415779948D03*
%TD*%
%TO.C,SW64*%
X1049804013Y396729948D03*
D16*
X1054884013Y396729948D03*
D15*
X1059964013Y396729948D03*
%TD*%
%TO.C,SW90*%
X1040279513Y358629948D03*
D16*
X1045359513Y358629948D03*
D15*
X1050439513Y358629948D03*
%TD*%
%TO.C,SW78*%
X854541513Y358629948D03*
D16*
X859621513Y358629948D03*
D15*
X864701513Y358629948D03*
%TD*%
%TO.C,SW34*%
X1116479013Y458642448D03*
D16*
X1121559013Y458642448D03*
D15*
X1126639013Y458642448D03*
%TD*%
%TO.C,SW7*%
X940266513Y434829948D03*
D16*
X945346513Y434829948D03*
D15*
X950426513Y434829948D03*
%TD*%
%TO.C,SW14*%
X1073616513Y434829948D03*
D16*
X1078696513Y434829948D03*
D15*
X1083776513Y434829948D03*
%TD*%
%TO.C,SW27*%
X968841513Y458642448D03*
D16*
X973921513Y458642448D03*
D15*
X979001513Y458642448D03*
%TD*%
%TO.C,SW45*%
X1006941513Y415779948D03*
D16*
X1012021513Y415779948D03*
D15*
X1017101513Y415779948D03*
%TD*%
%TO.C,SW96*%
X1135529013Y358629948D03*
D16*
X1140609013Y358629948D03*
D15*
X1145689013Y358629948D03*
%TD*%
%TO.C,SW20*%
X849779013Y458642448D03*
D16*
X854859013Y458642448D03*
D15*
X859939013Y458642448D03*
%TD*%
%TO.C,SW1*%
X825966513Y434829948D03*
D16*
X831046513Y434829948D03*
D15*
X836126513Y434829948D03*
%TD*%
%TO.C,SW75*%
X1021229013Y377679948D03*
D16*
X1026309013Y377679948D03*
D15*
X1031389013Y377679948D03*
%TD*%
%TO.C,SW48*%
X1064091513Y415779948D03*
D16*
X1069171513Y415779948D03*
D15*
X1074251513Y415779948D03*
%TD*%
%TO.C,SW69*%
X906929013Y377679948D03*
D16*
X912009013Y377679948D03*
D15*
X917089013Y377679948D03*
%TD*%
%TO.C,SW74*%
X1002179013Y377679948D03*
D16*
X1007259013Y377679948D03*
D15*
X1012339013Y377679948D03*
%TD*%
%TO.C,SW70*%
X925979013Y377679948D03*
D16*
X931059013Y377679948D03*
D15*
X936139013Y377679948D03*
%TD*%
%TO.C,SW59*%
X954554013Y396729948D03*
D16*
X959634013Y396729948D03*
D15*
X964714013Y396729948D03*
%TD*%
%TO.C,SW15*%
X1092666513Y434829948D03*
D16*
X1097746513Y434829948D03*
D15*
X1102826513Y434829948D03*
%TD*%
%TO.C,SW71*%
X945029013Y377679948D03*
D16*
X950109013Y377679948D03*
D15*
X955189013Y377679948D03*
%TD*%
%TO.C,SW73*%
X983129013Y377679948D03*
D16*
X988209013Y377679948D03*
D15*
X993289013Y377679948D03*
%TD*%
%TO.C,SW30*%
X1030754013Y458642448D03*
D16*
X1035834013Y458642448D03*
D15*
X1040914013Y458642448D03*
%TD*%
%TO.C,SW77*%
X830729513Y358629948D03*
D16*
X835809513Y358629948D03*
D15*
X840889513Y358629948D03*
%TD*%
%TO.C,SW5*%
X902166513Y434829948D03*
D16*
X907246513Y434829948D03*
D15*
X912326513Y434829948D03*
%TD*%
%TO.C,SW35*%
X1135529013Y458642448D03*
D16*
X1140609013Y458642448D03*
D15*
X1145689013Y458642448D03*
%TD*%
%TO.C,SW56*%
X897404013Y396729948D03*
D16*
X902484013Y396729948D03*
D15*
X907564013Y396729948D03*
%TD*%
%TO.C,SW36*%
X1154579013Y458642448D03*
D16*
X1159659013Y458642448D03*
D15*
X1164739013Y458642448D03*
%TD*%
%TO.C,SW40*%
X911691513Y415779948D03*
D16*
X916771513Y415779948D03*
D15*
X921851513Y415779948D03*
%TD*%
%TO.C,SW58*%
X935504013Y396729948D03*
D16*
X940584013Y396729948D03*
D15*
X945664013Y396729948D03*
%TD*%
M02*
