M48
; DRILL file {KiCad 8.99.0-1678-gcd3e85b0b3} date 2024-07-13T23:24:52+0700
; FORMAT={-:-/ absolute / inch / decimal}
; #@! TF.CreationDate,2024-07-13T23:24:52+07:00
; #@! TF.GenerationSoftware,Kicad,Pcbnew,8.99.0-1678-gcd3e85b0b3
; #@! TF.FileFunction,NonPlated,1,2,NPTH
FMAT,2
INCH
; #@! TA.AperFunction,NonPlated,NPTH,ComponentDrill
T1C0.0256
%
G90
G05
T1
X7.8445Y-6.0201
X7.845Y-5.592
X7.8451Y-3.7609
X7.8455Y-5.1638
X7.8455Y-3.3328
X7.8459Y-4.7357
X7.846Y-2.9046
X7.8464Y-4.3075
X7.8465Y-2.4765
X8.0721Y-6.0201
X8.0726Y-5.592
X8.0726Y-3.7609
X8.073Y-5.1638
X8.0731Y-3.3328
X8.0735Y-4.7357
X8.0736Y-2.9046
X8.074Y-4.3075
X8.074Y-2.4765
X9.656Y-6.0204
X9.6564Y-5.5923
X9.6565Y-3.7612
X9.6569Y-5.1641
X9.657Y-3.3331
X9.6574Y-4.736
X9.6574Y-2.9049
X9.6578Y-4.3078
X9.6579Y-2.4768
X9.8835Y-6.0204
X9.884Y-5.5923
X9.8841Y-3.7612
X9.8845Y-5.1641
X9.8845Y-3.3331
X9.8849Y-4.736
X9.885Y-2.9049
X9.8854Y-4.3078
X9.8855Y-2.4768
M30
