%TF.GenerationSoftware,KiCad,Pcbnew,8.99.0-1678-gcd3e85b0b3*%
%TF.CreationDate,2024-07-13T23:24:54+07:00*%
%TF.ProjectId,dtb,6474622e-6b69-4636-9164-5f7063625858,rev?*%
%TF.SameCoordinates,Original*%
%TF.FileFunction,Soldermask,Top*%
%TF.FilePolarity,Negative*%
%FSLAX46Y46*%
G04 Gerber Fmt 4.6, Leading zero omitted, Abs format (unit mm)*
G04 Created by KiCad (PCBNEW 8.99.0-1678-gcd3e85b0b3) date 2024-07-13 23:24:54*
%MOMM*%
%LPD*%
G01*
G04 APERTURE LIST*
G04 Aperture macros list*
%AMRoundRect*
0 Rectangle with rounded corners*
0 $1 Rounding radius*
0 $2 $3 $4 $5 $6 $7 $8 $9 X,Y pos of 4 corners*
0 Add a 4 corners polygon primitive as box body*
4,1,4,$2,$3,$4,$5,$6,$7,$8,$9,$2,$3,0*
0 Add four circle primitives for the rounded corners*
1,1,$1+$1,$2,$3*
1,1,$1+$1,$4,$5*
1,1,$1+$1,$6,$7*
1,1,$1+$1,$8,$9*
0 Add four rect primitives between the rounded corners*
20,1,$1+$1,$2,$3,$4,$5,0*
20,1,$1+$1,$4,$5,$6,$7,0*
20,1,$1+$1,$6,$7,$8,$9,0*
20,1,$1+$1,$8,$9,$2,$3,0*%
G04 Aperture macros list end*
%ADD10RoundRect,0.150000X-0.150000X-0.625000X0.150000X-0.625000X0.150000X0.625000X-0.150000X0.625000X0*%
%ADD11RoundRect,0.250000X-0.350000X-0.650000X0.350000X-0.650000X0.350000X0.650000X-0.350000X0.650000X0*%
%ADD12RoundRect,0.200000X0.275000X-0.200000X0.275000X0.200000X-0.275000X0.200000X-0.275000X-0.200000X0*%
%ADD13C,0.650000*%
%ADD14RoundRect,0.150000X0.150000X0.425000X-0.150000X0.425000X-0.150000X-0.425000X0.150000X-0.425000X0*%
%ADD15RoundRect,0.075000X0.075000X0.500000X-0.075000X0.500000X-0.075000X-0.500000X0.075000X-0.500000X0*%
%ADD16O,1.000000X2.100000*%
%ADD17O,1.000000X1.800000*%
%ADD18C,5.000000*%
G04 APERTURE END LIST*
D10*
%TO.C,J2*%
X237225453Y-129159266D03*
X238225453Y-129159266D03*
X239225453Y-129159266D03*
D11*
X235925453Y-133034266D03*
D10*
X240225453Y-129159266D03*
D11*
X241525453Y-133034266D03*
%TD*%
D12*
%TO.C,R1*%
X254835453Y-130594266D03*
X254835453Y-128944266D03*
%TD*%
D13*
%TO.C,J1*%
X251053655Y-142044206D03*
X245273655Y-142044206D03*
D14*
X251363655Y-143119206D03*
X250563655Y-143119206D03*
D15*
X249413655Y-143119206D03*
X248413655Y-143119206D03*
X247913655Y-143119206D03*
X246913655Y-143119206D03*
D14*
X245763655Y-143119206D03*
X244963655Y-143119206D03*
X244963655Y-143119206D03*
X245763655Y-143119206D03*
D15*
X246413655Y-143119206D03*
X247413655Y-143119206D03*
X248913655Y-143119206D03*
X249913655Y-143119206D03*
D14*
X250563655Y-143119206D03*
X251363655Y-143119206D03*
D16*
X252483655Y-142544206D03*
D17*
X252483655Y-138364206D03*
D16*
X243843655Y-142544206D03*
D17*
X243843655Y-138364206D03*
%TD*%
D10*
%TO.C,J2*%
X237213655Y-140034206D03*
X238213655Y-140034206D03*
X239213655Y-140034206D03*
D11*
X235913655Y-143909206D03*
D10*
X240213655Y-140034206D03*
D11*
X241513655Y-143909206D03*
%TD*%
D18*
%TO.C,*%
X266163107Y-140733713D03*
%TD*%
%TO.C,*%
X266174905Y-129858773D03*
%TD*%
%TO.C,H1*%
X230163107Y-140733713D03*
%TD*%
%TO.C,H1*%
X230174905Y-129858773D03*
%TD*%
D12*
%TO.C,R1*%
X254823655Y-141469206D03*
X254823655Y-139819206D03*
%TD*%
D13*
%TO.C,J1*%
X251065453Y-131169266D03*
X245285453Y-131169266D03*
D14*
X251375453Y-132244266D03*
X250575453Y-132244266D03*
D15*
X249425453Y-132244266D03*
X248425453Y-132244266D03*
X247925453Y-132244266D03*
X246925453Y-132244266D03*
D14*
X245775453Y-132244266D03*
X244975453Y-132244266D03*
X244975453Y-132244266D03*
X245775453Y-132244266D03*
D15*
X246425453Y-132244266D03*
X247425453Y-132244266D03*
X248925453Y-132244266D03*
X249925453Y-132244266D03*
D14*
X250575453Y-132244266D03*
X251375453Y-132244266D03*
D16*
X252495453Y-131669266D03*
D17*
X252495453Y-127489266D03*
D16*
X243855453Y-131669266D03*
D17*
X243855453Y-127489266D03*
%TD*%
D18*
%TO.C,*%
X266164606Y-94224820D03*
%TD*%
%TO.C,H1*%
X230164606Y-94224820D03*
%TD*%
D12*
%TO.C,R1*%
X254825154Y-94960313D03*
X254825154Y-93310313D03*
%TD*%
D13*
%TO.C,J1*%
X251055154Y-95535313D03*
X245275154Y-95535313D03*
D14*
X251365154Y-96610313D03*
X250565154Y-96610313D03*
D15*
X249415154Y-96610313D03*
X248415154Y-96610313D03*
X247915154Y-96610313D03*
X246915154Y-96610313D03*
D14*
X245765154Y-96610313D03*
X244965154Y-96610313D03*
X244965154Y-96610313D03*
X245765154Y-96610313D03*
D15*
X246415154Y-96610313D03*
X247415154Y-96610313D03*
X248915154Y-96610313D03*
X249915154Y-96610313D03*
D14*
X250565154Y-96610313D03*
X251365154Y-96610313D03*
D16*
X252485154Y-96035313D03*
D17*
X252485154Y-91855313D03*
D16*
X243845154Y-96035313D03*
D17*
X243845154Y-91855313D03*
%TD*%
D10*
%TO.C,J2*%
X237215154Y-93525313D03*
X238215154Y-93525313D03*
X239215154Y-93525313D03*
D11*
X235915154Y-97400313D03*
D10*
X240215154Y-93525313D03*
D11*
X241515154Y-97400313D03*
%TD*%
D18*
%TO.C,*%
X266176404Y-83349880D03*
%TD*%
D13*
%TO.C,J1*%
X251066952Y-84660373D03*
X245286952Y-84660373D03*
D14*
X251376952Y-85735373D03*
X250576952Y-85735373D03*
D15*
X249426952Y-85735373D03*
X248426952Y-85735373D03*
X247926952Y-85735373D03*
X246926952Y-85735373D03*
D14*
X245776952Y-85735373D03*
X244976952Y-85735373D03*
X244976952Y-85735373D03*
X245776952Y-85735373D03*
D15*
X246426952Y-85735373D03*
X247426952Y-85735373D03*
X248926952Y-85735373D03*
X249926952Y-85735373D03*
D14*
X250576952Y-85735373D03*
X251376952Y-85735373D03*
D16*
X252496952Y-85160373D03*
D17*
X252496952Y-80980373D03*
D16*
X243856952Y-85160373D03*
D17*
X243856952Y-80980373D03*
%TD*%
D18*
%TO.C,H1*%
X230176404Y-83349880D03*
%TD*%
D10*
%TO.C,J2*%
X237226952Y-82650373D03*
X238226952Y-82650373D03*
X239226952Y-82650373D03*
D11*
X235926952Y-86525373D03*
D10*
X240226952Y-82650373D03*
D11*
X241526952Y-86525373D03*
%TD*%
D12*
%TO.C,R1*%
X254836952Y-84085373D03*
X254836952Y-82435373D03*
%TD*%
%TO.C,R1*%
X254848750Y-73210433D03*
X254848750Y-71560433D03*
%TD*%
D18*
%TO.C,*%
X266188202Y-72474940D03*
%TD*%
D13*
%TO.C,J1*%
X251078750Y-73785433D03*
X245298750Y-73785433D03*
D14*
X251388750Y-74860433D03*
X250588750Y-74860433D03*
D15*
X249438750Y-74860433D03*
X248438750Y-74860433D03*
X247938750Y-74860433D03*
X246938750Y-74860433D03*
D14*
X245788750Y-74860433D03*
X244988750Y-74860433D03*
X244988750Y-74860433D03*
X245788750Y-74860433D03*
D15*
X246438750Y-74860433D03*
X247438750Y-74860433D03*
X248938750Y-74860433D03*
X249938750Y-74860433D03*
D14*
X250588750Y-74860433D03*
X251388750Y-74860433D03*
D16*
X252508750Y-74285433D03*
D17*
X252508750Y-70105433D03*
D16*
X243868750Y-74285433D03*
D17*
X243868750Y-70105433D03*
%TD*%
D18*
%TO.C,H1*%
X230188202Y-72474940D03*
%TD*%
D10*
%TO.C,J2*%
X237238750Y-71775433D03*
X238238750Y-71775433D03*
X239238750Y-71775433D03*
D11*
X235938750Y-75650433D03*
D10*
X240238750Y-71775433D03*
D11*
X241538750Y-75650433D03*
%TD*%
D18*
%TO.C,*%
X266200000Y-61600000D03*
%TD*%
D12*
%TO.C,R1*%
X254860548Y-62335493D03*
X254860548Y-60685493D03*
%TD*%
D13*
%TO.C,J1*%
X251090548Y-62910493D03*
X245310548Y-62910493D03*
D14*
X251400548Y-63985493D03*
X250600548Y-63985493D03*
D15*
X249450548Y-63985493D03*
X248450548Y-63985493D03*
X247950548Y-63985493D03*
X246950548Y-63985493D03*
D14*
X245800548Y-63985493D03*
X245000548Y-63985493D03*
X245000548Y-63985493D03*
X245800548Y-63985493D03*
D15*
X246450548Y-63985493D03*
X247450548Y-63985493D03*
X248950548Y-63985493D03*
X249950548Y-63985493D03*
D14*
X250600548Y-63985493D03*
X251400548Y-63985493D03*
D16*
X252520548Y-63410493D03*
D17*
X252520548Y-59230493D03*
D16*
X243880548Y-63410493D03*
D17*
X243880548Y-59230493D03*
%TD*%
D10*
%TO.C,J2*%
X237250548Y-60900493D03*
X238250548Y-60900493D03*
X239250548Y-60900493D03*
D11*
X235950548Y-64775493D03*
D10*
X240250548Y-60900493D03*
D11*
X241550548Y-64775493D03*
%TD*%
D18*
%TO.C,H1*%
X230200000Y-61600000D03*
%TD*%
D10*
%TO.C,J2*%
X237237251Y-118284326D03*
X238237251Y-118284326D03*
X239237251Y-118284326D03*
D11*
X235937251Y-122159326D03*
D10*
X240237251Y-118284326D03*
D11*
X241537251Y-122159326D03*
%TD*%
D12*
%TO.C,R1*%
X254847251Y-119719326D03*
X254847251Y-118069326D03*
%TD*%
D13*
%TO.C,J1*%
X251077251Y-120294326D03*
X245297251Y-120294326D03*
D14*
X251387251Y-121369326D03*
X250587251Y-121369326D03*
D15*
X249437251Y-121369326D03*
X248437251Y-121369326D03*
X247937251Y-121369326D03*
X246937251Y-121369326D03*
D14*
X245787251Y-121369326D03*
X244987251Y-121369326D03*
X244987251Y-121369326D03*
X245787251Y-121369326D03*
D15*
X246437251Y-121369326D03*
X247437251Y-121369326D03*
X248937251Y-121369326D03*
X249937251Y-121369326D03*
D14*
X250587251Y-121369326D03*
X251387251Y-121369326D03*
D16*
X252507251Y-120794326D03*
D17*
X252507251Y-116614326D03*
D16*
X243867251Y-120794326D03*
D17*
X243867251Y-116614326D03*
%TD*%
D18*
%TO.C,*%
X266186703Y-118983833D03*
%TD*%
%TO.C,H1*%
X230186703Y-118983833D03*
%TD*%
%TO.C,*%
X266198501Y-108108893D03*
%TD*%
D13*
%TO.C,J1*%
X251089049Y-109419386D03*
X245309049Y-109419386D03*
D14*
X251399049Y-110494386D03*
X250599049Y-110494386D03*
D15*
X249449049Y-110494386D03*
X248449049Y-110494386D03*
X247949049Y-110494386D03*
X246949049Y-110494386D03*
D14*
X245799049Y-110494386D03*
X244999049Y-110494386D03*
X244999049Y-110494386D03*
X245799049Y-110494386D03*
D15*
X246449049Y-110494386D03*
X247449049Y-110494386D03*
X248949049Y-110494386D03*
X249949049Y-110494386D03*
D14*
X250599049Y-110494386D03*
X251399049Y-110494386D03*
D16*
X252519049Y-109919386D03*
D17*
X252519049Y-105739386D03*
D16*
X243879049Y-109919386D03*
D17*
X243879049Y-105739386D03*
%TD*%
D12*
%TO.C,R1*%
X254859049Y-108844386D03*
X254859049Y-107194386D03*
%TD*%
D18*
%TO.C,H1*%
X230198501Y-108108893D03*
%TD*%
D10*
%TO.C,J2*%
X237249049Y-107409386D03*
X238249049Y-107409386D03*
X239249049Y-107409386D03*
D11*
X235949049Y-111284386D03*
D10*
X240249049Y-107409386D03*
D11*
X241549049Y-111284386D03*
%TD*%
D10*
%TO.C,J2*%
X237201857Y-150909146D03*
X238201857Y-150909146D03*
X239201857Y-150909146D03*
D11*
X235901857Y-154784146D03*
D10*
X240201857Y-150909146D03*
D11*
X241501857Y-154784146D03*
%TD*%
D13*
%TO.C,J1*%
X251041857Y-152919146D03*
X245261857Y-152919146D03*
D14*
X251351857Y-153994146D03*
X250551857Y-153994146D03*
D15*
X249401857Y-153994146D03*
X248401857Y-153994146D03*
X247901857Y-153994146D03*
X246901857Y-153994146D03*
D14*
X245751857Y-153994146D03*
X244951857Y-153994146D03*
X244951857Y-153994146D03*
X245751857Y-153994146D03*
D15*
X246401857Y-153994146D03*
X247401857Y-153994146D03*
X248901857Y-153994146D03*
X249901857Y-153994146D03*
D14*
X250551857Y-153994146D03*
X251351857Y-153994146D03*
D16*
X252471857Y-153419146D03*
D17*
X252471857Y-149239146D03*
D16*
X243831857Y-153419146D03*
D17*
X243831857Y-149239146D03*
%TD*%
D12*
%TO.C,R1*%
X254811857Y-152344146D03*
X254811857Y-150694146D03*
%TD*%
D18*
%TO.C,H1*%
X230151309Y-151608653D03*
%TD*%
%TO.C,*%
X266151309Y-151608653D03*
%TD*%
%TO.C,*%
X220141010Y-151600157D03*
%TD*%
D12*
%TO.C,R1*%
X208801558Y-152335650D03*
X208801558Y-150685650D03*
%TD*%
D18*
%TO.C,H1*%
X184141010Y-151600157D03*
%TD*%
D10*
%TO.C,J2*%
X191191558Y-150900650D03*
X192191558Y-150900650D03*
X193191558Y-150900650D03*
D11*
X189891558Y-154775650D03*
D10*
X194191558Y-150900650D03*
D11*
X195491558Y-154775650D03*
%TD*%
D13*
%TO.C,J1*%
X205031558Y-152910650D03*
X199251558Y-152910650D03*
D14*
X205341558Y-153985650D03*
X204541558Y-153985650D03*
D15*
X203391558Y-153985650D03*
X202391558Y-153985650D03*
X201891558Y-153985650D03*
X200891558Y-153985650D03*
D14*
X199741558Y-153985650D03*
X198941558Y-153985650D03*
X198941558Y-153985650D03*
X199741558Y-153985650D03*
D15*
X200391558Y-153985650D03*
X201391558Y-153985650D03*
X202891558Y-153985650D03*
X203891558Y-153985650D03*
D14*
X204541558Y-153985650D03*
X205341558Y-153985650D03*
D16*
X206461558Y-153410650D03*
D17*
X206461558Y-149230650D03*
D16*
X197821558Y-153410650D03*
D17*
X197821558Y-149230650D03*
%TD*%
D18*
%TO.C,*%
X220152808Y-140725217D03*
%TD*%
D12*
%TO.C,R1*%
X208813356Y-141460710D03*
X208813356Y-139810710D03*
%TD*%
D18*
%TO.C,H1*%
X184152808Y-140725217D03*
%TD*%
D10*
%TO.C,J2*%
X191203356Y-140025710D03*
X192203356Y-140025710D03*
X193203356Y-140025710D03*
D11*
X189903356Y-143900710D03*
D10*
X194203356Y-140025710D03*
D11*
X195503356Y-143900710D03*
%TD*%
D13*
%TO.C,J1*%
X205043356Y-142035710D03*
X199263356Y-142035710D03*
D14*
X205353356Y-143110710D03*
X204553356Y-143110710D03*
D15*
X203403356Y-143110710D03*
X202403356Y-143110710D03*
X201903356Y-143110710D03*
X200903356Y-143110710D03*
D14*
X199753356Y-143110710D03*
X198953356Y-143110710D03*
X198953356Y-143110710D03*
X199753356Y-143110710D03*
D15*
X200403356Y-143110710D03*
X201403356Y-143110710D03*
X202903356Y-143110710D03*
X203903356Y-143110710D03*
D14*
X204553356Y-143110710D03*
X205353356Y-143110710D03*
D16*
X206473356Y-142535710D03*
D17*
X206473356Y-138355710D03*
D16*
X197833356Y-142535710D03*
D17*
X197833356Y-138355710D03*
%TD*%
D18*
%TO.C,*%
X220164606Y-129850277D03*
%TD*%
D12*
%TO.C,R1*%
X208825154Y-130585770D03*
X208825154Y-128935770D03*
%TD*%
D18*
%TO.C,H1*%
X184164606Y-129850277D03*
%TD*%
D10*
%TO.C,J2*%
X191215154Y-129150770D03*
X192215154Y-129150770D03*
X193215154Y-129150770D03*
D11*
X189915154Y-133025770D03*
D10*
X194215154Y-129150770D03*
D11*
X195515154Y-133025770D03*
%TD*%
D13*
%TO.C,J1*%
X205055154Y-131160770D03*
X199275154Y-131160770D03*
D14*
X205365154Y-132235770D03*
X204565154Y-132235770D03*
D15*
X203415154Y-132235770D03*
X202415154Y-132235770D03*
X201915154Y-132235770D03*
X200915154Y-132235770D03*
D14*
X199765154Y-132235770D03*
X198965154Y-132235770D03*
X198965154Y-132235770D03*
X199765154Y-132235770D03*
D15*
X200415154Y-132235770D03*
X201415154Y-132235770D03*
X202915154Y-132235770D03*
X203915154Y-132235770D03*
D14*
X204565154Y-132235770D03*
X205365154Y-132235770D03*
D16*
X206485154Y-131660770D03*
D17*
X206485154Y-127480770D03*
D16*
X197845154Y-131660770D03*
D17*
X197845154Y-127480770D03*
%TD*%
D18*
%TO.C,*%
X220176404Y-118975337D03*
%TD*%
D12*
%TO.C,R1*%
X208836952Y-119710830D03*
X208836952Y-118060830D03*
%TD*%
D18*
%TO.C,H1*%
X184176404Y-118975337D03*
%TD*%
D10*
%TO.C,J2*%
X191226952Y-118275830D03*
X192226952Y-118275830D03*
X193226952Y-118275830D03*
D11*
X189926952Y-122150830D03*
D10*
X194226952Y-118275830D03*
D11*
X195526952Y-122150830D03*
%TD*%
D13*
%TO.C,J1*%
X205066952Y-120285830D03*
X199286952Y-120285830D03*
D14*
X205376952Y-121360830D03*
X204576952Y-121360830D03*
D15*
X203426952Y-121360830D03*
X202426952Y-121360830D03*
X201926952Y-121360830D03*
X200926952Y-121360830D03*
D14*
X199776952Y-121360830D03*
X198976952Y-121360830D03*
X198976952Y-121360830D03*
X199776952Y-121360830D03*
D15*
X200426952Y-121360830D03*
X201426952Y-121360830D03*
X202926952Y-121360830D03*
X203926952Y-121360830D03*
D14*
X204576952Y-121360830D03*
X205376952Y-121360830D03*
D16*
X206496952Y-120785830D03*
D17*
X206496952Y-116605830D03*
D16*
X197856952Y-120785830D03*
D17*
X197856952Y-116605830D03*
%TD*%
D10*
%TO.C,J2*%
X191238750Y-107400890D03*
X192238750Y-107400890D03*
X193238750Y-107400890D03*
D11*
X189938750Y-111275890D03*
D10*
X194238750Y-107400890D03*
D11*
X195538750Y-111275890D03*
%TD*%
D18*
%TO.C,H1*%
X184188202Y-108100397D03*
%TD*%
D12*
%TO.C,R1*%
X208848750Y-108835890D03*
X208848750Y-107185890D03*
%TD*%
D13*
%TO.C,J1*%
X205078750Y-109410890D03*
X199298750Y-109410890D03*
D14*
X205388750Y-110485890D03*
X204588750Y-110485890D03*
D15*
X203438750Y-110485890D03*
X202438750Y-110485890D03*
X201938750Y-110485890D03*
X200938750Y-110485890D03*
D14*
X199788750Y-110485890D03*
X198988750Y-110485890D03*
X198988750Y-110485890D03*
X199788750Y-110485890D03*
D15*
X200438750Y-110485890D03*
X201438750Y-110485890D03*
X202938750Y-110485890D03*
X203938750Y-110485890D03*
D14*
X204588750Y-110485890D03*
X205388750Y-110485890D03*
D16*
X206508750Y-109910890D03*
D17*
X206508750Y-105730890D03*
D16*
X197868750Y-109910890D03*
D17*
X197868750Y-105730890D03*
%TD*%
D18*
%TO.C,*%
X220188202Y-108100397D03*
%TD*%
D12*
%TO.C,R1*%
X208814855Y-94951817D03*
X208814855Y-93301817D03*
%TD*%
D18*
%TO.C,*%
X220154307Y-94216324D03*
%TD*%
D13*
%TO.C,J1*%
X205044855Y-95526817D03*
X199264855Y-95526817D03*
D14*
X205354855Y-96601817D03*
X204554855Y-96601817D03*
D15*
X203404855Y-96601817D03*
X202404855Y-96601817D03*
X201904855Y-96601817D03*
X200904855Y-96601817D03*
D14*
X199754855Y-96601817D03*
X198954855Y-96601817D03*
X198954855Y-96601817D03*
X199754855Y-96601817D03*
D15*
X200404855Y-96601817D03*
X201404855Y-96601817D03*
X202904855Y-96601817D03*
X203904855Y-96601817D03*
D14*
X204554855Y-96601817D03*
X205354855Y-96601817D03*
D16*
X206474855Y-96026817D03*
D17*
X206474855Y-91846817D03*
D16*
X197834855Y-96026817D03*
D17*
X197834855Y-91846817D03*
%TD*%
D18*
%TO.C,H1*%
X184154307Y-94216324D03*
%TD*%
D10*
%TO.C,J2*%
X191204855Y-93516817D03*
X192204855Y-93516817D03*
X193204855Y-93516817D03*
D11*
X189904855Y-97391817D03*
D10*
X194204855Y-93516817D03*
D11*
X195504855Y-97391817D03*
%TD*%
D12*
%TO.C,R1*%
X208826653Y-84076877D03*
X208826653Y-82426877D03*
%TD*%
D18*
%TO.C,*%
X220166105Y-83341384D03*
%TD*%
D13*
%TO.C,J1*%
X205056653Y-84651877D03*
X199276653Y-84651877D03*
D14*
X205366653Y-85726877D03*
X204566653Y-85726877D03*
D15*
X203416653Y-85726877D03*
X202416653Y-85726877D03*
X201916653Y-85726877D03*
X200916653Y-85726877D03*
D14*
X199766653Y-85726877D03*
X198966653Y-85726877D03*
X198966653Y-85726877D03*
X199766653Y-85726877D03*
D15*
X200416653Y-85726877D03*
X201416653Y-85726877D03*
X202916653Y-85726877D03*
X203916653Y-85726877D03*
D14*
X204566653Y-85726877D03*
X205366653Y-85726877D03*
D16*
X206486653Y-85151877D03*
D17*
X206486653Y-80971877D03*
D16*
X197846653Y-85151877D03*
D17*
X197846653Y-80971877D03*
%TD*%
D18*
%TO.C,H1*%
X184166105Y-83341384D03*
%TD*%
D10*
%TO.C,J2*%
X191216653Y-82641877D03*
X192216653Y-82641877D03*
X193216653Y-82641877D03*
D11*
X189916653Y-86516877D03*
D10*
X194216653Y-82641877D03*
D11*
X195516653Y-86516877D03*
%TD*%
D18*
%TO.C,H1*%
X184189701Y-61591504D03*
%TD*%
D11*
%TO.C,J2*%
X195540249Y-64766997D03*
X189940249Y-64766997D03*
D10*
X194240249Y-60891997D03*
X193240249Y-60891997D03*
X192240249Y-60891997D03*
X191240249Y-60891997D03*
%TD*%
D13*
%TO.C,J1*%
X205080249Y-62901997D03*
X199300249Y-62901997D03*
D14*
X205390249Y-63976997D03*
X204590249Y-63976997D03*
D15*
X203440249Y-63976997D03*
X202440249Y-63976997D03*
X201940249Y-63976997D03*
X200940249Y-63976997D03*
D14*
X199790249Y-63976997D03*
X198990249Y-63976997D03*
X198990249Y-63976997D03*
X199790249Y-63976997D03*
D15*
X200440249Y-63976997D03*
X201440249Y-63976997D03*
X202940249Y-63976997D03*
X203940249Y-63976997D03*
D14*
X204590249Y-63976997D03*
X205390249Y-63976997D03*
D16*
X206510249Y-63401997D03*
D17*
X206510249Y-59221997D03*
D16*
X197870249Y-63401997D03*
D17*
X197870249Y-59221997D03*
%TD*%
D12*
%TO.C,R1*%
X208850249Y-60676997D03*
X208850249Y-62326997D03*
%TD*%
D18*
%TO.C,*%
X220189701Y-61591504D03*
%TD*%
D11*
%TO.C,J2*%
X195528451Y-75641937D03*
D10*
X194228451Y-71766937D03*
D11*
X189928451Y-75641937D03*
D10*
X193228451Y-71766937D03*
X192228451Y-71766937D03*
X191228451Y-71766937D03*
%TD*%
D18*
%TO.C,H1*%
X184177903Y-72466444D03*
%TD*%
D17*
%TO.C,J1*%
X197858451Y-70096937D03*
D16*
X197858451Y-74276937D03*
D17*
X206498451Y-70096937D03*
D16*
X206498451Y-74276937D03*
D14*
X205378451Y-74851937D03*
X204578451Y-74851937D03*
D15*
X203928451Y-74851937D03*
X202928451Y-74851937D03*
X201428451Y-74851937D03*
X200428451Y-74851937D03*
D14*
X199778451Y-74851937D03*
X198978451Y-74851937D03*
X198978451Y-74851937D03*
X199778451Y-74851937D03*
D15*
X200928451Y-74851937D03*
X201928451Y-74851937D03*
X202428451Y-74851937D03*
X203428451Y-74851937D03*
D14*
X204578451Y-74851937D03*
X205378451Y-74851937D03*
D13*
X199288451Y-73776937D03*
X205068451Y-73776937D03*
%TD*%
D18*
%TO.C,*%
X220177903Y-72466444D03*
%TD*%
D12*
%TO.C,R1*%
X208838451Y-71551937D03*
X208838451Y-73201937D03*
%TD*%
M02*
