M48
; DRILL file {KiCad 8.99.0-1678-gcd3e85b0b3} date 2024-07-13T23:24:52+0700
; FORMAT={-:-/ absolute / inch / decimal}
; #@! TF.CreationDate,2024-07-13T23:24:52+07:00
; #@! TF.GenerationSoftware,Kicad,Pcbnew,8.99.0-1678-gcd3e85b0b3
; #@! TF.FileFunction,Plated,1,2,PTH
FMAT,2
INCH
; #@! TA.AperFunction,Plated,PTH,ViaDrill
T1C0.0118
; #@! TA.AperFunction,Plated,PTH,ComponentDrill
T2C0.0236
; #@! TA.AperFunction,Plated,PTH,ComponentDrill
T3C0.0984
%
G90
G05
T1
X7.5666Y-5.9894
X7.567Y-5.5612
X7.5671Y-3.7302
X7.5675Y-5.1331
X7.5676Y-3.302
X7.568Y-4.7049
X7.568Y-2.8739
X7.5684Y-4.2768
X7.5685Y-2.4457
X7.6063Y-5.989
X7.6068Y-5.5608
X7.6069Y-3.7298
X7.6073Y-5.1327
X7.6073Y-3.3016
X7.6077Y-4.7045
X7.6078Y-2.8735
X7.6082Y-4.2764
X7.6083Y-2.4453
X7.7737Y-5.7254
X7.7737Y-5.8041
X7.7738Y-3.8943
X7.7742Y-5.2973
X7.7742Y-5.376
X7.7743Y-3.4662
X7.7743Y-3.5449
X7.7747Y-4.8691
X7.7747Y-4.9478
X7.7747Y-3.038
X7.7747Y-3.1168
X7.7751Y-4.441
X7.7751Y-4.5197
X7.7752Y-2.6099
X7.7752Y-2.6886
X7.7756Y-4.0916
X7.8013Y-5.7254
X7.8013Y-5.8041
X7.8014Y-3.8943
X7.8018Y-5.2973
X7.8018Y-5.376
X7.8018Y-3.4662
X7.8018Y-3.5449
X7.8022Y-4.8691
X7.8022Y-4.9478
X7.8023Y-3.038
X7.8023Y-3.1168
X7.8027Y-4.441
X7.8027Y-4.5197
X7.8027Y-2.6099
X7.8027Y-2.6886
X7.8031Y-4.0916
X7.8289Y-5.7254
X7.8289Y-5.8041
X7.8289Y-3.8943
X7.8293Y-5.2973
X7.8293Y-5.376
X7.8294Y-3.4662
X7.8294Y-3.5449
X7.8298Y-4.8691
X7.8298Y-4.9478
X7.8298Y-3.038
X7.8298Y-3.1168
X7.8302Y-4.441
X7.8302Y-4.5197
X7.8303Y-2.6099
X7.8303Y-2.6886
X7.8307Y-4.0916
X7.8564Y-5.7254
X7.8564Y-5.8041
X7.8565Y-3.8943
X7.8569Y-5.2973
X7.8569Y-5.376
X7.8569Y-3.4662
X7.8569Y-3.5449
X7.8573Y-4.8691
X7.8573Y-4.9478
X7.8574Y-3.038
X7.8574Y-3.1168
X7.8578Y-4.441
X7.8578Y-4.5197
X7.8579Y-2.6099
X7.8579Y-2.6886
X7.8583Y-4.0916
X7.884Y-5.7254
X7.884Y-5.8041
X7.884Y-3.8943
X7.8844Y-5.2973
X7.8844Y-5.376
X7.8845Y-3.4662
X7.8845Y-3.5449
X7.8849Y-4.8691
X7.8849Y-4.9478
X7.885Y-3.038
X7.885Y-3.1168
X7.8854Y-4.441
X7.8854Y-4.5197
X7.8854Y-2.6099
X7.8854Y-2.6886
X7.8858Y-4.0916
X7.9115Y-5.7254
X7.9115Y-5.8041
X7.9116Y-3.8943
X7.912Y-5.2973
X7.912Y-5.376
X7.9121Y-3.4662
X7.9121Y-3.5449
X7.9125Y-4.8691
X7.9125Y-4.9478
X7.9125Y-3.038
X7.9125Y-3.1168
X7.9129Y-4.441
X7.9129Y-4.5197
X7.913Y-2.6099
X7.913Y-2.6886
X7.9134Y-4.0916
X7.928Y-5.9902
X7.9285Y-5.562
X7.9285Y-3.731
X7.9289Y-5.1339
X7.929Y-3.3028
X7.9294Y-4.7057
X7.9294Y-2.8747
X7.9299Y-4.2776
X7.9299Y-2.4465
X7.9391Y-5.7254
X7.9391Y-5.8041
X7.9391Y-3.8943
X7.9396Y-5.2973
X7.9396Y-5.376
X7.9396Y-3.4662
X7.9396Y-3.5449
X7.94Y-4.8691
X7.94Y-4.9478
X7.9401Y-3.038
X7.9401Y-3.1168
X7.9405Y-4.441
X7.9405Y-4.5197
X7.9405Y-2.6099
X7.9405Y-2.6886
X7.9409Y-4.0916
X7.9666Y-5.7254
X7.9666Y-5.8041
X7.9667Y-3.8943
X7.9671Y-5.2973
X7.9671Y-5.376
X7.9672Y-3.4662
X7.9672Y-3.5449
X7.9676Y-4.8691
X7.9676Y-4.9478
X7.9676Y-3.038
X7.9676Y-3.1168
X7.968Y-4.441
X7.968Y-4.5197
X7.9681Y-2.6099
X7.9681Y-2.6886
X7.9685Y-4.0916
X7.9839Y-5.991
X7.9844Y-5.5628
X7.9844Y-3.7317
X7.9848Y-5.1347
X7.9849Y-3.3036
X7.9853Y-4.7065
X7.9854Y-2.8755
X7.9858Y-4.2784
X7.9858Y-2.4473
X7.9942Y-5.7254
X7.9942Y-5.8041
X7.9943Y-3.8943
X7.9947Y-5.2973
X7.9947Y-5.376
X7.9947Y-3.4662
X7.9947Y-3.5449
X7.9951Y-4.8691
X7.9951Y-4.9478
X7.9952Y-3.038
X7.9952Y-3.1168
X7.9956Y-4.441
X7.9956Y-4.5197
X7.9957Y-2.6099
X7.9957Y-2.6886
X7.9961Y-4.0916
X8.0218Y-5.7254
X8.0218Y-5.8041
X8.0218Y-3.8943
X8.0222Y-5.2973
X8.0222Y-5.376
X8.0223Y-3.4662
X8.0223Y-3.5449
X8.0227Y-4.8691
X8.0227Y-4.9478
X8.0228Y-3.038
X8.0228Y-3.1168
X8.0232Y-4.441
X8.0232Y-4.5197
X8.0232Y-2.6099
X8.0232Y-2.6886
X8.0236Y-4.0916
X8.0493Y-5.7254
X8.0493Y-5.8041
X8.0494Y-3.8943
X8.0498Y-5.2973
X8.0498Y-5.376
X8.0498Y-3.4662
X8.0498Y-3.5449
X8.0503Y-4.8691
X8.0503Y-4.9478
X8.0503Y-3.038
X8.0503Y-3.1168
X8.0507Y-4.441
X8.0507Y-4.5197
X8.0508Y-2.6099
X8.0508Y-2.6886
X8.0512Y-4.0916
X8.0769Y-5.7254
X8.0769Y-5.8041
X8.0769Y-3.8943
X8.0773Y-5.2973
X8.0773Y-5.376
X8.0774Y-3.4662
X8.0774Y-3.5449
X8.0778Y-4.8691
X8.0778Y-4.9478
X8.0779Y-3.038
X8.0779Y-3.1168
X8.0783Y-4.441
X8.0783Y-4.5197
X8.0783Y-2.6099
X8.0783Y-2.6886
X8.0787Y-4.0916
X8.1044Y-5.7254
X8.1044Y-5.8041
X8.1045Y-3.8943
X8.1049Y-5.2973
X8.1049Y-5.376
X8.105Y-3.4662
X8.105Y-3.5449
X8.1054Y-4.8691
X8.1054Y-4.9478
X8.1054Y-3.038
X8.1054Y-3.1168
X8.1058Y-4.441
X8.1058Y-4.5197
X8.1059Y-2.6099
X8.1059Y-2.6886
X8.1063Y-4.0916
X8.132Y-5.7254
X8.132Y-5.8041
X8.1321Y-3.8943
X8.1325Y-5.2973
X8.1325Y-5.376
X8.1325Y-3.4662
X8.1325Y-3.5449
X8.1329Y-4.8691
X8.1329Y-4.9478
X8.133Y-3.038
X8.133Y-3.1168
X8.1334Y-4.441
X8.1334Y-4.5197
X8.1335Y-2.6099
X8.1335Y-2.6886
X8.1339Y-4.0916
X9.378Y-5.9897
X9.3785Y-5.5616
X9.3785Y-3.7305
X9.3789Y-5.1334
X9.379Y-3.3024
X9.3794Y-4.7053
X9.3795Y-2.8742
X9.3799Y-4.2771
X9.3799Y-2.4461
X9.4178Y-5.9893
X9.4182Y-5.5612
X9.4183Y-3.7301
X9.4187Y-5.133
X9.4188Y-3.302
X9.4192Y-4.7049
X9.4192Y-2.8738
X9.4196Y-4.2767
X9.4197Y-2.4457
X9.5852Y-5.7257
X9.5852Y-5.8045
X9.5852Y-3.8947
X9.5856Y-5.2976
X9.5856Y-5.3763
X9.5857Y-3.4665
X9.5857Y-3.5453
X9.5861Y-4.8694
X9.5861Y-4.9482
X9.5861Y-3.0384
X9.5861Y-3.1171
X9.5866Y-4.4413
X9.5866Y-4.52
X9.5866Y-2.6102
X9.5866Y-2.689
X9.587Y-4.0919
X9.6127Y-5.7257
X9.6127Y-5.8045
X9.6128Y-3.8947
X9.6132Y-5.2976
X9.6132Y-5.3763
X9.6132Y-3.4665
X9.6132Y-3.5453
X9.6136Y-4.8694
X9.6136Y-4.9482
X9.6137Y-3.0384
X9.6137Y-3.1171
X9.6141Y-4.4413
X9.6141Y-4.52
X9.6142Y-2.6102
X9.6142Y-2.689
X9.6146Y-4.0919
X9.6403Y-5.7257
X9.6403Y-5.8045
X9.6403Y-3.8947
X9.6407Y-5.2976
X9.6407Y-5.3763
X9.6408Y-3.4665
X9.6408Y-3.5453
X9.6412Y-4.8694
X9.6412Y-4.9482
X9.6413Y-3.0384
X9.6413Y-3.1171
X9.6417Y-4.4413
X9.6417Y-4.52
X9.6417Y-2.6102
X9.6417Y-2.689
X9.6421Y-4.0919
X9.6678Y-5.7257
X9.6678Y-5.8045
X9.6679Y-3.8947
X9.6683Y-5.2976
X9.6683Y-5.3763
X9.6684Y-3.4665
X9.6684Y-3.5453
X9.6688Y-4.8694
X9.6688Y-4.9482
X9.6688Y-3.0384
X9.6688Y-3.1171
X9.6692Y-4.4413
X9.6692Y-4.52
X9.6693Y-2.6102
X9.6693Y-2.689
X9.6697Y-4.0919
X9.6954Y-5.7257
X9.6954Y-5.8045
X9.6955Y-3.8947
X9.6959Y-5.2976
X9.6959Y-5.3763
X9.6959Y-3.4665
X9.6959Y-3.5453
X9.6963Y-4.8694
X9.6963Y-4.9482
X9.6964Y-3.0384
X9.6964Y-3.1171
X9.6968Y-4.4413
X9.6968Y-4.52
X9.6969Y-2.6102
X9.6969Y-2.689
X9.6973Y-4.0919
X9.723Y-5.7257
X9.723Y-5.8045
X9.723Y-3.8947
X9.7234Y-5.2976
X9.7234Y-5.3763
X9.7235Y-3.4665
X9.7235Y-3.5453
X9.7239Y-4.8694
X9.7239Y-4.9482
X9.7239Y-3.0384
X9.7239Y-3.1171
X9.7244Y-4.4413
X9.7244Y-4.52
X9.7244Y-2.6102
X9.7244Y-2.689
X9.7248Y-4.0919
X9.7394Y-5.9905
X9.7399Y-5.5624
X9.7399Y-3.7313
X9.7404Y-5.1342
X9.7404Y-3.3031
X9.7408Y-4.7061
X9.7409Y-2.875
X9.7413Y-4.2779
X9.7413Y-2.4469
X9.7505Y-5.7257
X9.7505Y-5.8045
X9.7506Y-3.8947
X9.751Y-5.2976
X9.751Y-5.3763
X9.751Y-3.4665
X9.751Y-3.5453
X9.7514Y-4.8694
X9.7514Y-4.9482
X9.7515Y-3.0384
X9.7515Y-3.1171
X9.7519Y-4.4413
X9.7519Y-4.52
X9.752Y-2.6102
X9.752Y-2.689
X9.7524Y-4.0919
X9.7781Y-5.7257
X9.7781Y-5.8045
X9.7781Y-3.8947
X9.7785Y-5.2976
X9.7785Y-5.3763
X9.7786Y-3.4665
X9.7786Y-3.5453
X9.779Y-4.8694
X9.779Y-4.9482
X9.7791Y-3.0384
X9.7791Y-3.1171
X9.7795Y-4.4413
X9.7795Y-4.52
X9.7795Y-2.6102
X9.7795Y-2.689
X9.7799Y-4.0919
X9.7953Y-5.9913
X9.7958Y-5.5631
X9.7959Y-3.7321
X9.7963Y-5.135
X9.7963Y-3.3039
X9.7967Y-4.7068
X9.7968Y-2.8758
X9.7972Y-4.2787
X9.7973Y-2.4476
X9.8056Y-5.7257
X9.8056Y-5.8045
X9.8057Y-3.8947
X9.8061Y-5.2976
X9.8061Y-5.3763
X9.8062Y-3.4665
X9.8062Y-3.5453
X9.8066Y-4.8694
X9.8066Y-4.9482
X9.8066Y-3.0384
X9.8066Y-3.1171
X9.807Y-4.4413
X9.807Y-4.52
X9.8071Y-2.6102
X9.8071Y-2.689
X9.8075Y-4.0919
X9.8332Y-5.7257
X9.8332Y-5.8045
X9.8333Y-3.8947
X9.8337Y-5.2976
X9.8337Y-5.3763
X9.8337Y-3.4665
X9.8337Y-3.5453
X9.8341Y-4.8694
X9.8341Y-4.9482
X9.8342Y-3.0384
X9.8342Y-3.1171
X9.8346Y-4.4413
X9.8346Y-4.52
X9.8346Y-2.6102
X9.8346Y-2.689
X9.8351Y-4.0919
X9.8608Y-5.7257
X9.8608Y-5.8045
X9.8608Y-3.8947
X9.8612Y-5.2976
X9.8612Y-5.3763
X9.8613Y-3.4665
X9.8613Y-3.5453
X9.8617Y-4.8694
X9.8617Y-4.9482
X9.8617Y-3.0384
X9.8617Y-3.1171
X9.8621Y-4.4413
X9.8621Y-4.52
X9.8622Y-2.6102
X9.8622Y-2.689
X9.8626Y-4.0919
X9.8883Y-5.7257
X9.8883Y-5.8045
X9.8884Y-3.8947
X9.8888Y-5.2976
X9.8888Y-5.3763
X9.8888Y-3.4665
X9.8888Y-3.5453
X9.8892Y-4.8694
X9.8892Y-4.9482
X9.8893Y-3.0384
X9.8893Y-3.1171
X9.8897Y-4.4413
X9.8897Y-4.52
X9.8898Y-2.6102
X9.8898Y-2.689
X9.8902Y-4.0919
X9.9159Y-5.7257
X9.9159Y-5.8045
X9.9159Y-3.8947
X9.9163Y-5.2976
X9.9163Y-5.3763
X9.9164Y-3.4665
X9.9164Y-3.5453
X9.9168Y-4.8694
X9.9168Y-4.9482
X9.9169Y-3.0384
X9.9169Y-3.1171
X9.9173Y-4.4413
X9.9173Y-4.52
X9.9173Y-2.6102
X9.9173Y-2.689
X9.9177Y-4.0919
X9.9434Y-5.7257
X9.9434Y-5.8045
X9.9435Y-3.8947
X9.9439Y-5.2976
X9.9439Y-5.3763
X9.944Y-3.4665
X9.944Y-3.5453
X9.9444Y-4.8694
X9.9444Y-4.9482
X9.9444Y-3.0384
X9.9444Y-3.1171
X9.9448Y-4.4413
X9.9448Y-4.52
X9.9449Y-2.6102
X9.9449Y-2.689
X9.9453Y-4.0919
T3
X7.2496Y-5.9685
X7.2501Y-5.5404
X7.2502Y-3.7093
X7.2506Y-5.1122
X7.2506Y-3.2812
X7.251Y-4.6841
X7.2511Y-2.853
X7.2515Y-4.2559
X7.2516Y-2.4249
X8.667Y-5.9685
X8.6674Y-5.5404
X8.6675Y-3.7093
X8.6679Y-5.1122
X8.668Y-3.2812
X8.6684Y-4.6841
X8.6684Y-2.853
X8.6688Y-4.2559
X8.6689Y-2.4249
X9.0611Y-5.9688
X9.0615Y-5.5407
X9.0616Y-3.7096
X9.062Y-5.1126
X9.0621Y-3.2815
X9.0625Y-4.6844
X9.0625Y-2.8533
X9.0629Y-4.2563
X9.063Y-2.4252
X10.4784Y-5.9688
X10.4789Y-5.5407
X10.4789Y-3.7096
X10.4793Y-5.1126
X10.4794Y-3.2815
X10.4798Y-4.6844
X10.4799Y-2.8533
X10.4803Y-4.2563
X10.4803Y-2.4252
T2
G00X7.7883Y-5.891
M15
G01X7.7883Y-5.8595
M16
G05
G00X7.7883Y-6.0614
M15
G01X7.7883Y-6.0181
M16
G05
G00X7.7887Y-5.4628
M15
G01X7.7887Y-5.4313
M16
G05
G00X7.7887Y-5.6333
M15
G01X7.7887Y-5.59
M16
G05
G00X7.7888Y-3.6318
M15
G01X7.7888Y-3.6003
M16
G05
G00X7.7888Y-3.8022
M15
G01X7.7888Y-3.7589
M16
G05
G00X7.7892Y-5.0347
M15
G01X7.7892Y-5.0032
M16
G05
G00X7.7892Y-5.2051
M15
G01X7.7892Y-5.1618
M16
G05
G00X7.7892Y-3.2036
M15
G01X7.7892Y-3.1721
M16
G05
G00X7.7892Y-3.3741
M15
G01X7.7892Y-3.3308
M16
G05
G00X7.7896Y-4.6065
M15
G01X7.7896Y-4.575
M16
G05
G00X7.7896Y-4.777
M15
G01X7.7896Y-4.7337
M16
G05
G00X7.7897Y-2.7755
M15
G01X7.7897Y-2.744
M16
G05
G00X7.7897Y-2.9459
M15
G01X7.7897Y-2.9026
M16
G05
G00X7.7901Y-4.1784
M15
G01X7.7901Y-4.1469
M16
G05
G00X7.7901Y-4.3489
M15
G01X7.7901Y-4.3055
M16
G05
G00X7.7902Y-2.3473
M15
G01X7.7902Y-2.3158
M16
G05
G00X7.7902Y-2.5178
M15
G01X7.7902Y-2.4745
M16
G05
G00X8.1284Y-5.891
M15
G01X8.1284Y-5.8595
M16
G05
G00X8.1284Y-6.0614
M15
G01X8.1284Y-6.0181
M16
G05
G00X8.1289Y-5.4628
M15
G01X8.1289Y-5.4313
M16
G05
G00X8.1289Y-5.6333
M15
G01X8.1289Y-5.59
M16
G05
G00X8.1289Y-3.6318
M15
G01X8.1289Y-3.6003
M16
G05
G00X8.1289Y-3.8022
M15
G01X8.1289Y-3.7589
M16
G05
G00X8.1293Y-5.0347
M15
G01X8.1293Y-5.0032
M16
G05
G00X8.1293Y-5.2051
M15
G01X8.1293Y-5.1618
M16
G05
G00X8.1294Y-3.2036
M15
G01X8.1294Y-3.1721
M16
G05
G00X8.1294Y-3.3741
M15
G01X8.1294Y-3.3308
M16
G05
G00X8.1298Y-4.6065
M15
G01X8.1298Y-4.575
M16
G05
G00X8.1298Y-4.777
M15
G01X8.1298Y-4.7337
M16
G05
G00X8.1299Y-2.7755
M15
G01X8.1299Y-2.744
M16
G05
G00X8.1299Y-2.9459
M15
G01X8.1299Y-2.9026
M16
G05
G00X8.1303Y-4.1784
M15
G01X8.1303Y-4.1469
M16
G05
G00X8.1303Y-4.3489
M15
G01X8.1303Y-4.3055
M16
G05
G00X8.1303Y-2.3473
M15
G01X8.1303Y-2.3158
M16
G05
G00X8.1303Y-2.5178
M15
G01X8.1303Y-2.4745
M16
G05
G00X9.5997Y-5.8913
M15
G01X9.5997Y-5.8598
M16
G05
G00X9.5997Y-6.0618
M15
G01X9.5997Y-6.0185
M16
G05
G00X9.6001Y-5.4632
M15
G01X9.6001Y-5.4317
M16
G05
G00X9.6001Y-5.6336
M15
G01X9.6001Y-5.5903
M16
G05
G00X9.6002Y-3.6321
M15
G01X9.6002Y-3.6006
M16
G05
G00X9.6002Y-3.8026
M15
G01X9.6002Y-3.7593
M16
G05
G00X9.6006Y-5.035
M15
G01X9.6006Y-5.0035
M16
G05
G00X9.6006Y-5.2055
M15
G01X9.6006Y-5.1622
M16
G05
G00X9.6007Y-3.204
M15
G01X9.6007Y-3.1725
M16
G05
G00X9.6007Y-3.3744
M15
G01X9.6007Y-3.3311
M16
G05
G00X9.6011Y-4.6069
M15
G01X9.6011Y-4.5754
M16
G05
G00X9.6011Y-4.7773
M15
G01X9.6011Y-4.734
M16
G05
G00X9.6011Y-2.7758
M15
G01X9.6011Y-2.7443
M16
G05
G00X9.6011Y-2.9463
M15
G01X9.6011Y-2.903
M16
G05
G00X9.6015Y-4.1787
M15
G01X9.6015Y-4.1472
M16
G05
G00X9.6015Y-4.3492
M15
G01X9.6015Y-4.3059
M16
G05
G00X9.6016Y-2.3477
M15
G01X9.6016Y-2.3162
M16
G05
G00X9.6016Y-2.5181
M15
G01X9.6016Y-2.4748
M16
G05
G00X9.9398Y-5.8913
M15
G01X9.9398Y-5.8598
M16
G05
G00X9.9398Y-6.0618
M15
G01X9.9398Y-6.0185
M16
G05
G00X9.9403Y-5.4632
M15
G01X9.9403Y-5.4317
M16
G05
G00X9.9403Y-5.6336
M15
G01X9.9403Y-5.5903
M16
G05
G00X9.9404Y-3.6321
M15
G01X9.9404Y-3.6006
M16
G05
G00X9.9404Y-3.8026
M15
G01X9.9404Y-3.7593
M16
G05
G00X9.9408Y-5.035
M15
G01X9.9408Y-5.0035
M16
G05
G00X9.9408Y-5.2055
M15
G01X9.9408Y-5.1622
M16
G05
G00X9.9408Y-3.204
M15
G01X9.9408Y-3.1725
M16
G05
G00X9.9408Y-3.3744
M15
G01X9.9408Y-3.3311
M16
G05
G00X9.9412Y-4.6069
M15
G01X9.9412Y-4.5754
M16
G05
G00X9.9412Y-4.7773
M15
G01X9.9412Y-4.734
M16
G05
G00X9.9413Y-2.7758
M15
G01X9.9413Y-2.7443
M16
G05
G00X9.9413Y-2.9463
M15
G01X9.9413Y-2.903
M16
G05
G00X9.9417Y-4.1787
M15
G01X9.9417Y-4.1472
M16
G05
G00X9.9417Y-4.3492
M15
G01X9.9417Y-4.3059
M16
G05
G00X9.9418Y-2.3477
M15
G01X9.9418Y-2.3162
M16
G05
G00X9.9418Y-2.5181
M15
G01X9.9418Y-2.4748
M16
G05
M30
