%TF.GenerationSoftware,KiCad,Pcbnew,8.99.0-2230-g1cc11bc589*%
%TF.CreationDate,2024-09-07T17:33:40+07:00*%
%TF.ProjectId,Azimuth_PCB,417a696d-7574-4685-9f50-43422e6b6963,rev?*%
%TF.SameCoordinates,Original*%
%TF.FileFunction,Profile,NP*%
%FSLAX46Y46*%
G04 Gerber Fmt 4.6, Leading zero omitted, Abs format (unit mm)*
G04 Created by KiCad (PCBNEW 8.99.0-2230-g1cc11bc589) date 2024-09-07 17:33:40*
%MOMM*%
%LPD*%
G01*
G04 APERTURE LIST*
%TA.AperFunction,Profile*%
%ADD10C,0.500000*%
%TD*%
%TA.AperFunction,Profile*%
%ADD11C,0.050000*%
%TD*%
%TA.AperFunction,Profile*%
%ADD12C,0.100000*%
%TD*%
G04 APERTURE END LIST*
D10*
X320295760Y-418376992D02*
G75*
G02*
X318816967Y-418976881I-1364860J1241892D01*
G01*
X247712184Y-353287818D02*
X247878875Y-353424617D01*
X224303760Y-382342872D02*
X227352843Y-382342872D01*
X251306268Y-352930952D02*
X251368865Y-352724600D01*
X345520000Y-324790000D02*
G75*
G02*
X346693961Y-325365135I200J-1485300D01*
G01*
X240565910Y-418987038D02*
G75*
G02*
X239392060Y-418411957I-210J1485138D01*
G01*
X505444792Y-382342872D02*
G75*
G02*
X505413543Y-379843519I8J1249872D01*
G01*
X413045760Y-325376992D02*
G75*
G02*
X414139262Y-324797695I1088040J-732108D01*
G01*
X434703984Y-324789802D02*
G75*
G02*
X435877954Y-325364929I216J-1485298D01*
G01*
X496827200Y-416616787D02*
G75*
G02*
X499672053Y-418411911I3700J-3145913D01*
G01*
X251204617Y-353121128D02*
X251306268Y-352930952D01*
X248275403Y-351431137D02*
X248069051Y-351493733D01*
X481978792Y-351567058D02*
X481978792Y-351566992D01*
X506815762Y-324792044D02*
G75*
G02*
X509003746Y-327039139I-32962J-2220856D01*
G01*
X438722706Y-327160005D02*
G75*
G02*
X435877945Y-325364944I-3706J3145805D01*
G01*
X509003759Y-327039139D02*
X509035760Y-379836992D01*
X251306268Y-352089048D02*
X251204617Y-351898872D01*
X230283961Y-324786994D02*
G75*
G02*
X231455786Y-325447006I1839J-1367006D01*
G01*
X247575385Y-351898872D02*
X247473734Y-352089048D01*
X509003760Y-416800000D02*
G75*
G02*
X506753676Y-418991958I-2220960J29000D01*
G01*
X485066207Y-353966992D02*
X481978792Y-353966992D01*
X351378792Y-370666992D02*
X352878792Y-370666992D01*
X349538722Y-327160203D02*
G75*
G02*
X346693949Y-325365148I-3722J3145803D01*
G01*
D11*
X350857620Y-327170152D02*
X349538722Y-327160203D01*
D10*
X248069051Y-353526267D02*
X248275403Y-353588863D01*
X494678722Y-327146997D02*
G75*
G02*
X491833952Y-325351940I-3722J3145797D01*
G01*
X414139262Y-324797669D02*
X434703984Y-324789802D01*
X237365760Y-325456992D02*
G75*
G02*
X231455889Y-325446956I-2952560J1403792D01*
G01*
X299370000Y-418980000D02*
G75*
G02*
X298196042Y-418404869I-200J1485300D01*
G01*
X226507239Y-418992114D02*
G75*
G02*
X224303745Y-416739372I17361J2221014D01*
G01*
X248490003Y-351410001D02*
X248275403Y-351431137D01*
D11*
X360700000Y-318690000D02*
X370410000Y-318690000D01*
D10*
X248275403Y-353588863D02*
X248490003Y-353610001D01*
X351378792Y-373066992D02*
G75*
G02*
X351378792Y-370667008I8J1199992D01*
G01*
X227340000Y-379843512D02*
G75*
G02*
X227352842Y-382342822I0J-1249688D01*
G01*
X247473734Y-352089048D02*
X247411137Y-352295400D01*
X272032150Y-418982379D02*
X240565910Y-418987038D01*
X250504599Y-351431135D02*
X250289999Y-351410001D01*
X247473734Y-352930952D02*
X247575385Y-353121128D01*
X442886390Y-325374905D02*
G75*
G02*
X444060000Y-324800021I1173410J-910095D01*
G01*
X506753676Y-418991992D02*
X500845916Y-418986992D01*
X509035760Y-379836992D02*
X505413544Y-379843569D01*
D11*
X370410000Y-324800000D02*
X406047805Y-324787542D01*
D10*
X231455824Y-325446987D02*
X231455754Y-325447025D01*
X238573201Y-324787000D02*
X319175909Y-324796992D01*
D11*
X299370000Y-418980000D02*
X318816965Y-418976910D01*
D10*
X227340000Y-379843512D02*
X224303760Y-379843512D01*
X352866207Y-373066992D02*
X351378792Y-373066992D01*
X499722741Y-325361897D02*
G75*
G02*
X496877955Y-327156915I-2841041J1350797D01*
G01*
X251204617Y-351898872D02*
X251067818Y-351732181D01*
X500896351Y-324786992D02*
X506815762Y-324792044D01*
X320295760Y-418376992D02*
G75*
G02*
X326116873Y-418388257I2908040J-1306008D01*
G01*
X247411137Y-352295400D02*
X247390001Y-352510000D01*
D11*
X236547294Y-416616892D02*
X235228396Y-416606943D01*
D10*
X250901127Y-353424618D02*
X251067818Y-353287819D01*
X327237361Y-324797346D02*
X345520000Y-324790000D01*
X491489905Y-418976907D02*
X419050000Y-418986992D01*
X250504599Y-353588865D02*
X250710951Y-353526269D01*
X351378792Y-370667058D02*
X351378792Y-370666992D01*
D11*
X360700000Y-324800000D02*
X360700000Y-318690000D01*
D10*
X326128580Y-325381992D02*
G75*
G02*
X320264398Y-325376442I-2930780J1387992D01*
G01*
X247411137Y-352724600D02*
X247473734Y-352930952D01*
X291187601Y-418394897D02*
G75*
G02*
X294032387Y-416599863I2840999J-1350703D01*
G01*
X490660000Y-324776794D02*
G75*
G02*
X491833963Y-325351927I200J-1485306D01*
G01*
X251368865Y-352295400D02*
X251306268Y-352089048D01*
X226553786Y-324791992D02*
X230283961Y-324786994D01*
X481978792Y-353966992D02*
G75*
G02*
X481978792Y-351567008I8J1199992D01*
G01*
X232383610Y-418401992D02*
G75*
G02*
X231210000Y-418976878I-1173410J910092D01*
G01*
X224303760Y-326983622D02*
G75*
G02*
X226553786Y-324791960I2220840J-29178D01*
G01*
X248069051Y-351493733D02*
X247878875Y-351595383D01*
D11*
X496877955Y-327156946D02*
X494678722Y-327146997D01*
D10*
X250710951Y-351493731D02*
X250504599Y-351431135D01*
D11*
X440041604Y-327169954D02*
X438722706Y-327160005D01*
D10*
X415666207Y-411166992D02*
X412578792Y-411166992D01*
X251368865Y-352724600D02*
X251390001Y-352510000D01*
X247712184Y-351732182D02*
X247575385Y-351898872D01*
X327365924Y-418986992D02*
G75*
G02*
X326116808Y-418388285I115076J1842492D01*
G01*
X250710951Y-353526269D02*
X250901127Y-353424618D01*
D11*
X409746350Y-416617099D02*
X415031284Y-416616902D01*
D10*
X444060000Y-324800000D02*
X490660000Y-324776794D01*
X248490003Y-353610001D02*
X250289999Y-353610001D01*
X415678792Y-408766992D02*
G75*
G02*
X415666208Y-411166942I8J-1200008D01*
G01*
X492663516Y-418402002D02*
G75*
G02*
X491489905Y-418976888I-1173416J910102D01*
G01*
X419050000Y-418986992D02*
X419050000Y-418987002D01*
X352878792Y-370666992D02*
G75*
G02*
X352866208Y-373066942I8J-1200008D01*
G01*
X250289999Y-351410001D02*
X248490003Y-351410001D01*
X224303760Y-416739372D02*
X224303760Y-382342872D01*
X406901564Y-418412148D02*
G75*
G02*
X405727954Y-418987055I-1173464J910148D01*
G01*
X231210000Y-418976897D02*
X226507239Y-418992114D01*
D11*
X295351285Y-416609797D02*
X294032387Y-416599848D01*
D10*
X485078792Y-351566992D02*
G75*
G02*
X485066208Y-353966942I8J-1200008D01*
G01*
X247575385Y-353121128D02*
X247712184Y-353287818D01*
X413045760Y-325376992D02*
G75*
G02*
X407135108Y-325366996I-2952960J1403992D01*
G01*
X320264333Y-325376473D02*
X320263862Y-325376723D01*
X415031284Y-416616902D02*
G75*
G02*
X417876050Y-418411961I3716J-3145798D01*
G01*
X251067818Y-353287819D02*
X251204617Y-353121128D01*
X290013991Y-418969802D02*
X272032150Y-418982379D01*
X247390001Y-352510000D02*
X247411137Y-352724600D01*
X505444792Y-382342872D02*
X509003760Y-382342872D01*
X500845916Y-418986992D02*
G75*
G02*
X499672045Y-418411926I-216J1485192D01*
G01*
X319175909Y-324796992D02*
G75*
G02*
X320263893Y-325376702I-109J-1311008D01*
G01*
X224303760Y-379843512D02*
X224303760Y-326983622D01*
X406901564Y-418412148D02*
G75*
G02*
X409746350Y-416617109I2841036J-1350752D01*
G01*
X236547294Y-416616892D02*
G75*
G02*
X239392056Y-418411952I3706J-3145808D01*
G01*
D11*
X496827200Y-416616787D02*
X495508302Y-416606953D01*
D10*
X407135043Y-325367027D02*
X407135701Y-325366677D01*
X353702406Y-325375103D02*
G75*
G02*
X350857620Y-327170143I-2841006J1350703D01*
G01*
X412578792Y-408767058D02*
X412578792Y-408766992D01*
X442886390Y-325374905D02*
G75*
G02*
X440041604Y-327170020I-2841090J1350705D01*
G01*
X353702406Y-325375103D02*
G75*
G02*
X354876016Y-324800232I1173394J-910097D01*
G01*
X406047805Y-324787542D02*
G75*
G02*
X407135732Y-325366656I-5J-1311458D01*
G01*
X247878875Y-353424617D02*
X248069051Y-353526267D01*
X237365760Y-325456992D02*
G75*
G02*
X238573201Y-324786981I1188040J-718008D01*
G01*
X291187601Y-418394897D02*
G75*
G02*
X290013991Y-418969774I-1173401J910097D01*
G01*
X481978792Y-351566992D02*
X485078792Y-351566992D01*
X251390001Y-352510000D02*
X251368865Y-352295400D01*
X247878875Y-351595383D02*
X247712184Y-351732182D01*
X412578792Y-411166992D02*
G75*
G02*
X412578792Y-408767008I8J1199992D01*
G01*
X499722741Y-325361897D02*
G75*
G02*
X500896351Y-324786977I1173459J-910103D01*
G01*
X419050001Y-418987105D02*
G75*
G02*
X417876040Y-418411975I-201J1485305D01*
G01*
X405727954Y-418987053D02*
X327365924Y-418986992D01*
X250901127Y-351595382D02*
X250710951Y-351493731D01*
X295351285Y-416609797D02*
G75*
G02*
X298196052Y-418404855I3715J-3145803D01*
G01*
X250289999Y-353610001D02*
X250504599Y-353588865D01*
D11*
X370410000Y-318690000D02*
X370410000Y-324800000D01*
X354876016Y-324800198D02*
X360700000Y-324800000D01*
D10*
X326128580Y-325381992D02*
G75*
G02*
X327237361Y-324797328I1098220J-739008D01*
G01*
X232383610Y-418401992D02*
G75*
G02*
X235228396Y-416606879I2841090J-1350708D01*
G01*
X492663516Y-418402002D02*
G75*
G02*
X495508302Y-416606946I2841084J-1350798D01*
G01*
X509003760Y-382342872D02*
X509003760Y-416800000D01*
X412578792Y-408766992D02*
X415678792Y-408766992D01*
X251067818Y-351732181D02*
X250901127Y-351595382D01*
D12*
%TO.C,SW13*%
X461231493Y-339672884D02*
X461231493Y-338029129D01*
X461560622Y-337700000D02*
X462304377Y-337700000D01*
X462304377Y-340002013D02*
X461560622Y-340002013D01*
X462633506Y-338029129D02*
X462633506Y-339672884D01*
X461231493Y-338029129D02*
G75*
G02*
X461560622Y-337700000I99995J229134D01*
G01*
X461560622Y-340002013D02*
G75*
G02*
X461231493Y-339672884I-229103J100026D01*
G01*
X462304377Y-337700000D02*
G75*
G02*
X462633508Y-338029134I229143J-99990D01*
G01*
X462633506Y-339672884D02*
G75*
G02*
X462304377Y-340002013I-100018J-229111D01*
G01*
%TO.C,SW5*%
X308831493Y-339672884D02*
X308831493Y-338029129D01*
X309160622Y-337700000D02*
X309904377Y-337700000D01*
X309904377Y-340002013D02*
X309160622Y-340002013D01*
X310233506Y-338029129D02*
X310233506Y-339672884D01*
X308831493Y-338029129D02*
G75*
G02*
X309160622Y-337700000I99995J229134D01*
G01*
X309160622Y-340002013D02*
G75*
G02*
X308831493Y-339672884I-229103J100026D01*
G01*
X309904377Y-337700000D02*
G75*
G02*
X310233508Y-338029134I229143J-99990D01*
G01*
X310233506Y-339672884D02*
G75*
G02*
X309904377Y-340002013I-100018J-229111D01*
G01*
%TO.C,SW32*%
X304068993Y-377772884D02*
X304068993Y-376129129D01*
X304398122Y-375800000D02*
X305141877Y-375800000D01*
X305141877Y-378102013D02*
X304398122Y-378102013D01*
X305471006Y-376129129D02*
X305471006Y-377772884D01*
X304068993Y-376129129D02*
G75*
G02*
X304398122Y-375800000I99995J229134D01*
G01*
X304398122Y-378102013D02*
G75*
G02*
X304068993Y-377772884I-229103J100026D01*
G01*
X305141877Y-375800000D02*
G75*
G02*
X305471008Y-376129134I229143J-99990D01*
G01*
X305471006Y-377772884D02*
G75*
G02*
X305141877Y-378102013I-100018J-229111D01*
G01*
%TO.C,SW16*%
X261206493Y-358722884D02*
X261206493Y-357079129D01*
X261535622Y-356750000D02*
X262279377Y-356750000D01*
X262279377Y-359052013D02*
X261535622Y-359052013D01*
X262608506Y-357079129D02*
X262608506Y-358722884D01*
X261206493Y-357079129D02*
G75*
G02*
X261535622Y-356750000I99995J229134D01*
G01*
X261535622Y-359052013D02*
G75*
G02*
X261206493Y-358722884I-229103J100026D01*
G01*
X262279377Y-356750000D02*
G75*
G02*
X262608508Y-357079134I229143J-99990D01*
G01*
X262608506Y-358722884D02*
G75*
G02*
X262279377Y-359052013I-100018J-229111D01*
G01*
%TO.C,SW37*%
X399318993Y-377772884D02*
X399318993Y-376129129D01*
X399648122Y-375800000D02*
X400391877Y-375800000D01*
X400391877Y-378102013D02*
X399648122Y-378102013D01*
X400721006Y-376129129D02*
X400721006Y-377772884D01*
X399318993Y-376129129D02*
G75*
G02*
X399648122Y-375800000I99995J229134D01*
G01*
X399648122Y-378102013D02*
G75*
G02*
X399318993Y-377772884I-229103J100026D01*
G01*
X400391877Y-375800000D02*
G75*
G02*
X400721008Y-376129134I229143J-99990D01*
G01*
X400721006Y-377772884D02*
G75*
G02*
X400391877Y-378102013I-100018J-229111D01*
G01*
%TO.C,SW49*%
X370743993Y-396822884D02*
X370743993Y-395179129D01*
X371073122Y-394850000D02*
X371816877Y-394850000D01*
X371816877Y-397152013D02*
X371073122Y-397152013D01*
X372146006Y-395179129D02*
X372146006Y-396822884D01*
X370743993Y-395179129D02*
G75*
G02*
X371073122Y-394850000I99995J229134D01*
G01*
X371073122Y-397152013D02*
G75*
G02*
X370743993Y-396822884I-229103J100026D01*
G01*
X371816877Y-394850000D02*
G75*
G02*
X372146008Y-395179134I229143J-99990D01*
G01*
X372146006Y-396822884D02*
G75*
G02*
X371816877Y-397152013I-100018J-229111D01*
G01*
%TO.C,SW62*%
X494569493Y-415872884D02*
X494569493Y-414229129D01*
X494898622Y-413900000D02*
X495642377Y-413900000D01*
X495642377Y-416202013D02*
X494898622Y-416202013D01*
X495971506Y-414229129D02*
X495971506Y-415872884D01*
X494569493Y-414229129D02*
G75*
G02*
X494898622Y-413900000I99995J229134D01*
G01*
X494898622Y-416202013D02*
G75*
G02*
X494569493Y-415872884I-229103J100026D01*
G01*
X495642377Y-413900000D02*
G75*
G02*
X495971508Y-414229134I229143J-99990D01*
G01*
X495971506Y-415872884D02*
G75*
G02*
X495642377Y-416202013I-100018J-229111D01*
G01*
%TO.C,SW38*%
X418368993Y-377772884D02*
X418368993Y-376129129D01*
X418698122Y-375800000D02*
X419441877Y-375800000D01*
X419441877Y-378102013D02*
X418698122Y-378102013D01*
X419771006Y-376129129D02*
X419771006Y-377772884D01*
X418368993Y-376129129D02*
G75*
G02*
X418698122Y-375800000I99995J229134D01*
G01*
X418698122Y-378102013D02*
G75*
G02*
X418368993Y-377772884I-229103J100026D01*
G01*
X419441877Y-375800000D02*
G75*
G02*
X419771008Y-376129134I229143J-99990D01*
G01*
X419771006Y-377772884D02*
G75*
G02*
X419441877Y-378102013I-100018J-229111D01*
G01*
%TO.C,SW15*%
X237394493Y-358722884D02*
X237394493Y-357079129D01*
X237723622Y-356750000D02*
X238467377Y-356750000D01*
X238467377Y-359052013D02*
X237723622Y-359052013D01*
X238796506Y-357079129D02*
X238796506Y-358722884D01*
X237394493Y-357079129D02*
G75*
G02*
X237723622Y-356750000I99995J229134D01*
G01*
X237723622Y-359052013D02*
G75*
G02*
X237394493Y-358722884I-229103J100026D01*
G01*
X238467377Y-356750000D02*
G75*
G02*
X238796508Y-357079134I229143J-99990D01*
G01*
X238796506Y-358722884D02*
G75*
G02*
X238467377Y-359052013I-100018J-229111D01*
G01*
%TO.C,SW60*%
X446944493Y-415872884D02*
X446944493Y-414229129D01*
X447273622Y-413900000D02*
X448017377Y-413900000D01*
X448017377Y-416202013D02*
X447273622Y-416202013D01*
X448346506Y-414229129D02*
X448346506Y-415872884D01*
X446944493Y-414229129D02*
G75*
G02*
X447273622Y-413900000I99995J229134D01*
G01*
X447273622Y-416202013D02*
G75*
G02*
X446944493Y-415872884I-229103J100026D01*
G01*
X448017377Y-413900000D02*
G75*
G02*
X448346508Y-414229134I229143J-99990D01*
G01*
X448346506Y-415872884D02*
G75*
G02*
X448017377Y-416202013I-100018J-229111D01*
G01*
%TO.C,SW47*%
X332643993Y-396822884D02*
X332643993Y-395179129D01*
X332973122Y-394850000D02*
X333716877Y-394850000D01*
X333716877Y-397152013D02*
X332973122Y-397152013D01*
X334046006Y-395179129D02*
X334046006Y-396822884D01*
X332643993Y-395179129D02*
G75*
G02*
X332973122Y-394850000I99995J229134D01*
G01*
X332973122Y-397152013D02*
G75*
G02*
X332643993Y-396822884I-229103J100026D01*
G01*
X333716877Y-394850000D02*
G75*
G02*
X334046008Y-395179134I229143J-99990D01*
G01*
X334046006Y-396822884D02*
G75*
G02*
X333716877Y-397152013I-100018J-229111D01*
G01*
%TO.C,SW54*%
X473137993Y-396822884D02*
X473137993Y-395179129D01*
X473467122Y-394850000D02*
X474210877Y-394850000D01*
X474210877Y-397152013D02*
X473467122Y-397152013D01*
X474540006Y-395179129D02*
X474540006Y-396822884D01*
X473137993Y-395179129D02*
G75*
G02*
X473467122Y-394850000I99995J229134D01*
G01*
X473467122Y-397152013D02*
G75*
G02*
X473137993Y-396822884I-229103J100026D01*
G01*
X474210877Y-394850000D02*
G75*
G02*
X474540008Y-395179134I229143J-99990D01*
G01*
X474540006Y-396822884D02*
G75*
G02*
X474210877Y-397152013I-100018J-229111D01*
G01*
%TO.C,SW29*%
X239775493Y-377772884D02*
X239775493Y-376129129D01*
X240104622Y-375800000D02*
X240848377Y-375800000D01*
X240848377Y-378102013D02*
X240104622Y-378102013D01*
X241177506Y-376129129D02*
X241177506Y-377772884D01*
X239775493Y-376129129D02*
G75*
G02*
X240104622Y-375800000I99995J229134D01*
G01*
X240104622Y-378102013D02*
G75*
G02*
X239775493Y-377772884I-229103J100026D01*
G01*
X240848377Y-375800000D02*
G75*
G02*
X241177508Y-376129134I229143J-99990D01*
G01*
X241177506Y-377772884D02*
G75*
G02*
X240848377Y-378102013I-100018J-229111D01*
G01*
%TO.C,SW40*%
X456468993Y-377772884D02*
X456468993Y-376129129D01*
X456798122Y-375800000D02*
X457541877Y-375800000D01*
X457541877Y-378102013D02*
X456798122Y-378102013D01*
X457871006Y-376129129D02*
X457871006Y-377772884D01*
X456468993Y-376129129D02*
G75*
G02*
X456798122Y-375800000I99995J229134D01*
G01*
X456798122Y-378102013D02*
G75*
G02*
X456468993Y-377772884I-229103J100026D01*
G01*
X457541877Y-375800000D02*
G75*
G02*
X457871008Y-376129134I229143J-99990D01*
G01*
X457871006Y-377772884D02*
G75*
G02*
X457541877Y-378102013I-100018J-229111D01*
G01*
%TO.C,SW25*%
X432656493Y-358722884D02*
X432656493Y-357079129D01*
X432985622Y-356750000D02*
X433729377Y-356750000D01*
X433729377Y-359052013D02*
X432985622Y-359052013D01*
X434058506Y-357079129D02*
X434058506Y-358722884D01*
X432656493Y-357079129D02*
G75*
G02*
X432985622Y-356750000I99995J229134D01*
G01*
X432985622Y-359052013D02*
G75*
G02*
X432656493Y-358722884I-229103J100026D01*
G01*
X433729377Y-356750000D02*
G75*
G02*
X434058508Y-357079134I229143J-99990D01*
G01*
X434058506Y-358722884D02*
G75*
G02*
X433729377Y-359052013I-100018J-229111D01*
G01*
%TO.C,SW20*%
X337406493Y-358722884D02*
X337406493Y-357079129D01*
X337735622Y-356750000D02*
X338479377Y-356750000D01*
X338479377Y-359052013D02*
X337735622Y-359052013D01*
X338808506Y-357079129D02*
X338808506Y-358722884D01*
X337406493Y-357079129D02*
G75*
G02*
X337735622Y-356750000I99995J229134D01*
G01*
X337735622Y-359052013D02*
G75*
G02*
X337406493Y-358722884I-229103J100026D01*
G01*
X338479377Y-356750000D02*
G75*
G02*
X338808508Y-357079134I229143J-99990D01*
G01*
X338808506Y-358722884D02*
G75*
G02*
X338479377Y-359052013I-100018J-229111D01*
G01*
%TO.C,SW53*%
X446943993Y-396822884D02*
X446943993Y-395179129D01*
X447273122Y-394850000D02*
X448016877Y-394850000D01*
X448016877Y-397152013D02*
X447273122Y-397152013D01*
X448346006Y-395179129D02*
X448346006Y-396822884D01*
X446943993Y-395179129D02*
G75*
G02*
X447273122Y-394850000I99995J229134D01*
G01*
X447273122Y-397152013D02*
G75*
G02*
X446943993Y-396822884I-229103J100026D01*
G01*
X448016877Y-394850000D02*
G75*
G02*
X448346008Y-395179134I229143J-99990D01*
G01*
X448346006Y-396822884D02*
G75*
G02*
X448016877Y-397152013I-100018J-229111D01*
G01*
%TO.C,SW2*%
X251681493Y-339672884D02*
X251681493Y-338029129D01*
X252010622Y-337700000D02*
X252754377Y-337700000D01*
X252754377Y-340002013D02*
X252010622Y-340002013D01*
X253083506Y-338029129D02*
X253083506Y-339672884D01*
X251681493Y-338029129D02*
G75*
G02*
X252010622Y-337700000I99995J229134D01*
G01*
X252010622Y-340002013D02*
G75*
G02*
X251681493Y-339672884I-229103J100026D01*
G01*
X252754377Y-337700000D02*
G75*
G02*
X253083508Y-338029134I229143J-99990D01*
G01*
X253083506Y-339672884D02*
G75*
G02*
X252754377Y-340002013I-100018J-229111D01*
G01*
%TO.C,SW36*%
X380268993Y-377772884D02*
X380268993Y-376129129D01*
X380598122Y-375800000D02*
X381341877Y-375800000D01*
X381341877Y-378102013D02*
X380598122Y-378102013D01*
X381671006Y-376129129D02*
X381671006Y-377772884D01*
X380268993Y-376129129D02*
G75*
G02*
X380598122Y-375800000I99995J229134D01*
G01*
X380598122Y-378102013D02*
G75*
G02*
X380268993Y-377772884I-229103J100026D01*
G01*
X381341877Y-375800000D02*
G75*
G02*
X381671008Y-376129134I229143J-99990D01*
G01*
X381671006Y-377772884D02*
G75*
G02*
X381341877Y-378102013I-100018J-229111D01*
G01*
%TO.C,SW9*%
X385031493Y-339672884D02*
X385031493Y-338029129D01*
X385360622Y-337700000D02*
X386104377Y-337700000D01*
X386104377Y-340002013D02*
X385360622Y-340002013D01*
X386433506Y-338029129D02*
X386433506Y-339672884D01*
X385031493Y-338029129D02*
G75*
G02*
X385360622Y-337700000I99995J229134D01*
G01*
X385360622Y-340002013D02*
G75*
G02*
X385031493Y-339672884I-229103J100026D01*
G01*
X386104377Y-337700000D02*
G75*
G02*
X386433508Y-338029134I229143J-99990D01*
G01*
X386433506Y-339672884D02*
G75*
G02*
X386104377Y-340002013I-100018J-229111D01*
G01*
%TO.C,SW6*%
X327881493Y-339672884D02*
X327881493Y-338029129D01*
X328210622Y-337700000D02*
X328954377Y-337700000D01*
X328954377Y-340002013D02*
X328210622Y-340002013D01*
X329283506Y-338029129D02*
X329283506Y-339672884D01*
X327881493Y-338029129D02*
G75*
G02*
X328210622Y-337700000I99995J229134D01*
G01*
X328210622Y-340002013D02*
G75*
G02*
X327881493Y-339672884I-229103J100026D01*
G01*
X328954377Y-337700000D02*
G75*
G02*
X329283508Y-338029134I229143J-99990D01*
G01*
X329283506Y-339672884D02*
G75*
G02*
X328954377Y-340002013I-100018J-229111D01*
G01*
%TO.C,SW17*%
X280256493Y-358722884D02*
X280256493Y-357079129D01*
X280585622Y-356750000D02*
X281329377Y-356750000D01*
X281329377Y-359052013D02*
X280585622Y-359052013D01*
X281658506Y-357079129D02*
X281658506Y-358722884D01*
X280256493Y-357079129D02*
G75*
G02*
X280585622Y-356750000I99995J229134D01*
G01*
X280585622Y-359052013D02*
G75*
G02*
X280256493Y-358722884I-229103J100026D01*
G01*
X281329377Y-356750000D02*
G75*
G02*
X281658508Y-357079134I229143J-99990D01*
G01*
X281658506Y-358722884D02*
G75*
G02*
X281329377Y-359052013I-100018J-229111D01*
G01*
%TO.C,SW28*%
X494569493Y-358722884D02*
X494569493Y-357079129D01*
X494898622Y-356750000D02*
X495642377Y-356750000D01*
X495642377Y-359052013D02*
X494898622Y-359052013D01*
X495971506Y-357079129D02*
X495971506Y-358722884D01*
X494569493Y-357079129D02*
G75*
G02*
X494898622Y-356750000I99995J229134D01*
G01*
X494898622Y-359052013D02*
G75*
G02*
X494569493Y-358722884I-229103J100026D01*
G01*
X495642377Y-356750000D02*
G75*
G02*
X495971508Y-357079134I229143J-99990D01*
G01*
X495971506Y-358722884D02*
G75*
G02*
X495642377Y-359052013I-100018J-229111D01*
G01*
%TO.C,SW2001*%
X482662993Y-396822884D02*
X482662993Y-395179129D01*
X482992122Y-394850000D02*
X483735877Y-394850000D01*
X483735877Y-397152013D02*
X482992122Y-397152013D01*
X484065006Y-395179129D02*
X484065006Y-396822884D01*
X482662993Y-395179129D02*
G75*
G02*
X482992122Y-394850000I99995J229134D01*
G01*
X482992122Y-397152013D02*
G75*
G02*
X482662993Y-396822884I-229103J100026D01*
G01*
X483735877Y-394850000D02*
G75*
G02*
X484065008Y-395179134I229143J-99990D01*
G01*
X484065006Y-396822884D02*
G75*
G02*
X483735877Y-397152013I-100018J-229111D01*
G01*
%TO.C,SW39*%
X437418993Y-377772884D02*
X437418993Y-376129129D01*
X437748122Y-375800000D02*
X438491877Y-375800000D01*
X438491877Y-378102013D02*
X437748122Y-378102013D01*
X438821006Y-376129129D02*
X438821006Y-377772884D01*
X437418993Y-376129129D02*
G75*
G02*
X437748122Y-375800000I99995J229134D01*
G01*
X437748122Y-378102013D02*
G75*
G02*
X437418993Y-377772884I-229103J100026D01*
G01*
X438491877Y-375800000D02*
G75*
G02*
X438821008Y-376129134I229143J-99990D01*
G01*
X438821006Y-377772884D02*
G75*
G02*
X438491877Y-378102013I-100018J-229111D01*
G01*
%TO.C,SW23*%
X394556493Y-358722884D02*
X394556493Y-357079129D01*
X394885622Y-356750000D02*
X395629377Y-356750000D01*
X395629377Y-359052013D02*
X394885622Y-359052013D01*
X395958506Y-357079129D02*
X395958506Y-358722884D01*
X394556493Y-357079129D02*
G75*
G02*
X394885622Y-356750000I99995J229134D01*
G01*
X394885622Y-359052013D02*
G75*
G02*
X394556493Y-358722884I-229103J100026D01*
G01*
X395629377Y-356750000D02*
G75*
G02*
X395958508Y-357079134I229143J-99990D01*
G01*
X395958506Y-358722884D02*
G75*
G02*
X395629377Y-359052013I-100018J-229111D01*
G01*
%TO.C,SW59*%
X365981493Y-415867884D02*
X365981493Y-414224129D01*
X366310622Y-413895000D02*
X367054377Y-413895000D01*
X367054377Y-416197013D02*
X366310622Y-416197013D01*
X367383506Y-414224129D02*
X367383506Y-415867884D01*
X365981493Y-414224129D02*
G75*
G02*
X366310622Y-413895000I99995J229134D01*
G01*
X366310622Y-416197013D02*
G75*
G02*
X365981493Y-415867884I-229103J100026D01*
G01*
X367054377Y-413895000D02*
G75*
G02*
X367383508Y-414224134I229143J-99990D01*
G01*
X367383506Y-415867884D02*
G75*
G02*
X367054377Y-416197013I-100018J-229111D01*
G01*
%TO.C,SW58*%
X285019493Y-415872884D02*
X285019493Y-414229129D01*
X285348622Y-413900000D02*
X286092377Y-413900000D01*
X286092377Y-416202013D02*
X285348622Y-416202013D01*
X286421506Y-414229129D02*
X286421506Y-415872884D01*
X285019493Y-414229129D02*
G75*
G02*
X285348622Y-413900000I99995J229134D01*
G01*
X285348622Y-416202013D02*
G75*
G02*
X285019493Y-415872884I-229103J100026D01*
G01*
X286092377Y-413900000D02*
G75*
G02*
X286421508Y-414229134I229143J-99990D01*
G01*
X286421506Y-415872884D02*
G75*
G02*
X286092377Y-416202013I-100018J-229111D01*
G01*
%TO.C,SW61*%
X470756493Y-415872884D02*
X470756493Y-414229129D01*
X471085622Y-413900000D02*
X471829377Y-413900000D01*
X471829377Y-416202013D02*
X471085622Y-416202013D01*
X472158506Y-414229129D02*
X472158506Y-415872884D01*
X470756493Y-414229129D02*
G75*
G02*
X471085622Y-413900000I99995J229134D01*
G01*
X471085622Y-416202013D02*
G75*
G02*
X470756493Y-415872884I-229103J100026D01*
G01*
X471829377Y-413900000D02*
G75*
G02*
X472158508Y-414229134I229143J-99990D01*
G01*
X472158506Y-415872884D02*
G75*
G02*
X471829377Y-416202013I-100018J-229111D01*
G01*
%TO.C,SW12*%
X442181493Y-339672884D02*
X442181493Y-338029129D01*
X442510622Y-337700000D02*
X443254377Y-337700000D01*
X443254377Y-340002013D02*
X442510622Y-340002013D01*
X443583506Y-338029129D02*
X443583506Y-339672884D01*
X442181493Y-338029129D02*
G75*
G02*
X442510622Y-337700000I99995J229134D01*
G01*
X442510622Y-340002013D02*
G75*
G02*
X442181493Y-339672884I-229103J100026D01*
G01*
X443254377Y-337700000D02*
G75*
G02*
X443583508Y-338029134I229143J-99990D01*
G01*
X443583506Y-339672884D02*
G75*
G02*
X443254377Y-340002013I-100018J-229111D01*
G01*
%TO.C,SW34*%
X342168993Y-377772884D02*
X342168993Y-376129129D01*
X342498122Y-375800000D02*
X343241877Y-375800000D01*
X343241877Y-378102013D02*
X342498122Y-378102013D01*
X343571006Y-376129129D02*
X343571006Y-377772884D01*
X342168993Y-376129129D02*
G75*
G02*
X342498122Y-375800000I99995J229134D01*
G01*
X342498122Y-378102013D02*
G75*
G02*
X342168993Y-377772884I-229103J100026D01*
G01*
X343241877Y-375800000D02*
G75*
G02*
X343571008Y-376129134I229143J-99990D01*
G01*
X343571006Y-377772884D02*
G75*
G02*
X343241877Y-378102013I-100018J-229111D01*
G01*
%TO.C,SW21*%
X356456493Y-358722884D02*
X356456493Y-357079129D01*
X356785622Y-356750000D02*
X357529377Y-356750000D01*
X357529377Y-359052013D02*
X356785622Y-359052013D01*
X357858506Y-357079129D02*
X357858506Y-358722884D01*
X356456493Y-357079129D02*
G75*
G02*
X356785622Y-356750000I99995J229134D01*
G01*
X356785622Y-359052013D02*
G75*
G02*
X356456493Y-358722884I-229103J100026D01*
G01*
X357529377Y-356750000D02*
G75*
G02*
X357858508Y-357079134I229143J-99990D01*
G01*
X357858506Y-358722884D02*
G75*
G02*
X357529377Y-359052013I-100018J-229111D01*
G01*
%TO.C,SW2000*%
X489806493Y-339672884D02*
X489806493Y-338029129D01*
X490135622Y-337700000D02*
X490879377Y-337700000D01*
X490879377Y-340002013D02*
X490135622Y-340002013D01*
X491208506Y-338029129D02*
X491208506Y-339672884D01*
X489806493Y-338029129D02*
G75*
G02*
X490135622Y-337700000I99995J229134D01*
G01*
X490135622Y-340002013D02*
G75*
G02*
X489806493Y-339672884I-229103J100026D01*
G01*
X490879377Y-337700000D02*
G75*
G02*
X491208508Y-338029134I229143J-99990D01*
G01*
X491208506Y-339672884D02*
G75*
G02*
X490879377Y-340002013I-100018J-229111D01*
G01*
%TO.C,SW18*%
X299306493Y-358722884D02*
X299306493Y-357079129D01*
X299635622Y-356750000D02*
X300379377Y-356750000D01*
X300379377Y-359052013D02*
X299635622Y-359052013D01*
X300708506Y-357079129D02*
X300708506Y-358722884D01*
X299306493Y-357079129D02*
G75*
G02*
X299635622Y-356750000I99995J229134D01*
G01*
X299635622Y-359052013D02*
G75*
G02*
X299306493Y-358722884I-229103J100026D01*
G01*
X300379377Y-356750000D02*
G75*
G02*
X300708508Y-357079134I229143J-99990D01*
G01*
X300708506Y-358722884D02*
G75*
G02*
X300379377Y-359052013I-100018J-229111D01*
G01*
%TO.C,SW27*%
X470756493Y-358722884D02*
X470756493Y-357079129D01*
X471085622Y-356750000D02*
X471829377Y-356750000D01*
X471829377Y-359052013D02*
X471085622Y-359052013D01*
X472158506Y-357079129D02*
X472158506Y-358722884D01*
X470756493Y-357079129D02*
G75*
G02*
X471085622Y-356750000I99995J229134D01*
G01*
X471085622Y-359052013D02*
G75*
G02*
X470756493Y-358722884I-229103J100026D01*
G01*
X471829377Y-356750000D02*
G75*
G02*
X472158508Y-357079134I229143J-99990D01*
G01*
X472158506Y-358722884D02*
G75*
G02*
X471829377Y-359052013I-100018J-229111D01*
G01*
%TO.C,SW10*%
X404081493Y-339672884D02*
X404081493Y-338029129D01*
X404410622Y-337700000D02*
X405154377Y-337700000D01*
X405154377Y-340002013D02*
X404410622Y-340002013D01*
X405483506Y-338029129D02*
X405483506Y-339672884D01*
X404081493Y-338029129D02*
G75*
G02*
X404410622Y-337700000I99995J229134D01*
G01*
X404410622Y-340002013D02*
G75*
G02*
X404081493Y-339672884I-229103J100026D01*
G01*
X405154377Y-337700000D02*
G75*
G02*
X405483508Y-338029134I229143J-99990D01*
G01*
X405483506Y-339672884D02*
G75*
G02*
X405154377Y-340002013I-100018J-229111D01*
G01*
%TO.C,SW51*%
X408843993Y-396822884D02*
X408843993Y-395179129D01*
X409173122Y-394850000D02*
X409916877Y-394850000D01*
X409916877Y-397152013D02*
X409173122Y-397152013D01*
X410246006Y-395179129D02*
X410246006Y-396822884D01*
X408843993Y-395179129D02*
G75*
G02*
X409173122Y-394850000I99995J229134D01*
G01*
X409173122Y-397152013D02*
G75*
G02*
X408843993Y-396822884I-229103J100026D01*
G01*
X409916877Y-394850000D02*
G75*
G02*
X410246008Y-395179134I229143J-99990D01*
G01*
X410246006Y-396822884D02*
G75*
G02*
X409916877Y-397152013I-100018J-229111D01*
G01*
%TO.C,SW2002*%
X235012493Y-377772884D02*
X235012493Y-376129129D01*
X235341622Y-375800000D02*
X236085377Y-375800000D01*
X236085377Y-378102013D02*
X235341622Y-378102013D01*
X236414506Y-376129129D02*
X236414506Y-377772884D01*
X235012493Y-376129129D02*
G75*
G02*
X235341622Y-375800000I99995J229134D01*
G01*
X235341622Y-378102013D02*
G75*
G02*
X235012493Y-377772884I-229103J100026D01*
G01*
X236085377Y-375800000D02*
G75*
G02*
X236414508Y-376129134I229143J-99990D01*
G01*
X236414506Y-377772884D02*
G75*
G02*
X236085377Y-378102013I-100018J-229111D01*
G01*
%TO.C,SW19*%
X318356493Y-358722884D02*
X318356493Y-357079129D01*
X318685622Y-356750000D02*
X319429377Y-356750000D01*
X319429377Y-359052013D02*
X318685622Y-359052013D01*
X319758506Y-357079129D02*
X319758506Y-358722884D01*
X318356493Y-357079129D02*
G75*
G02*
X318685622Y-356750000I99995J229134D01*
G01*
X318685622Y-359052013D02*
G75*
G02*
X318356493Y-358722884I-229103J100026D01*
G01*
X319429377Y-356750000D02*
G75*
G02*
X319758508Y-357079134I229143J-99990D01*
G01*
X319758506Y-358722884D02*
G75*
G02*
X319429377Y-359052013I-100018J-229111D01*
G01*
%TO.C,SW48*%
X351693993Y-396822884D02*
X351693993Y-395179129D01*
X352023122Y-394850000D02*
X352766877Y-394850000D01*
X352766877Y-397152013D02*
X352023122Y-397152013D01*
X353096006Y-395179129D02*
X353096006Y-396822884D01*
X351693993Y-395179129D02*
G75*
G02*
X352023122Y-394850000I99995J229134D01*
G01*
X352023122Y-397152013D02*
G75*
G02*
X351693993Y-396822884I-229103J100026D01*
G01*
X352766877Y-394850000D02*
G75*
G02*
X353096008Y-395179134I229143J-99990D01*
G01*
X353096006Y-396822884D02*
G75*
G02*
X352766877Y-397152013I-100018J-229111D01*
G01*
%TO.C,SW35*%
X361218993Y-377772884D02*
X361218993Y-376129129D01*
X361548122Y-375800000D02*
X362291877Y-375800000D01*
X362291877Y-378102013D02*
X361548122Y-378102013D01*
X362621006Y-376129129D02*
X362621006Y-377772884D01*
X361218993Y-376129129D02*
G75*
G02*
X361548122Y-375800000I99995J229134D01*
G01*
X361548122Y-378102013D02*
G75*
G02*
X361218993Y-377772884I-229103J100026D01*
G01*
X362291877Y-375800000D02*
G75*
G02*
X362621008Y-376129134I229143J-99990D01*
G01*
X362621006Y-377772884D02*
G75*
G02*
X362291877Y-378102013I-100018J-229111D01*
G01*
%TO.C,SW22*%
X375506493Y-358722884D02*
X375506493Y-357079129D01*
X375835622Y-356750000D02*
X376579377Y-356750000D01*
X376579377Y-359052013D02*
X375835622Y-359052013D01*
X376908506Y-357079129D02*
X376908506Y-358722884D01*
X375506493Y-357079129D02*
G75*
G02*
X375835622Y-356750000I99995J229134D01*
G01*
X375835622Y-359052013D02*
G75*
G02*
X375506493Y-358722884I-229103J100026D01*
G01*
X376579377Y-356750000D02*
G75*
G02*
X376908508Y-357079134I229143J-99990D01*
G01*
X376908506Y-358722884D02*
G75*
G02*
X376579377Y-359052013I-100018J-229111D01*
G01*
%TO.C,SW41*%
X487499593Y-377772884D02*
X487499593Y-376129129D01*
X487828722Y-375800000D02*
X488572477Y-375800000D01*
X488572477Y-378102013D02*
X487828722Y-378102013D01*
X488901606Y-376129129D02*
X488901606Y-377772884D01*
X487499593Y-376129129D02*
G75*
G02*
X487828722Y-375800000I99995J229134D01*
G01*
X487828722Y-378102013D02*
G75*
G02*
X487499593Y-377772884I-229103J100026D01*
G01*
X488572477Y-375800000D02*
G75*
G02*
X488901608Y-376129134I229143J-99990D01*
G01*
X488901606Y-377772884D02*
G75*
G02*
X488572477Y-378102013I-100018J-229111D01*
G01*
%TO.C,SW14*%
X480281493Y-339672884D02*
X480281493Y-338029129D01*
X480610622Y-337700000D02*
X481354377Y-337700000D01*
X481354377Y-340002013D02*
X480610622Y-340002013D01*
X481683506Y-338029129D02*
X481683506Y-339672884D01*
X480281493Y-338029129D02*
G75*
G02*
X480610622Y-337700000I99995J229134D01*
G01*
X480610622Y-340002013D02*
G75*
G02*
X480281493Y-339672884I-229103J100026D01*
G01*
X481354377Y-337700000D02*
G75*
G02*
X481683508Y-338029134I229143J-99990D01*
G01*
X481683506Y-339672884D02*
G75*
G02*
X481354377Y-340002013I-100018J-229111D01*
G01*
%TO.C,SW52*%
X427893993Y-396822884D02*
X427893993Y-395179129D01*
X428223122Y-394850000D02*
X428966877Y-394850000D01*
X428966877Y-397152013D02*
X428223122Y-397152013D01*
X429296006Y-395179129D02*
X429296006Y-396822884D01*
X427893993Y-395179129D02*
G75*
G02*
X428223122Y-394850000I99995J229134D01*
G01*
X428223122Y-397152013D02*
G75*
G02*
X427893993Y-396822884I-229103J100026D01*
G01*
X428966877Y-394850000D02*
G75*
G02*
X429296008Y-395179134I229143J-99990D01*
G01*
X429296006Y-396822884D02*
G75*
G02*
X428966877Y-397152013I-100018J-229111D01*
G01*
%TO.C,SW44*%
X275493993Y-396822884D02*
X275493993Y-395179129D01*
X275823122Y-394850000D02*
X276566877Y-394850000D01*
X276566877Y-397152013D02*
X275823122Y-397152013D01*
X276896006Y-395179129D02*
X276896006Y-396822884D01*
X275493993Y-395179129D02*
G75*
G02*
X275823122Y-394850000I99995J229134D01*
G01*
X275823122Y-397152013D02*
G75*
G02*
X275493993Y-396822884I-229103J100026D01*
G01*
X276566877Y-394850000D02*
G75*
G02*
X276896008Y-395179134I229143J-99990D01*
G01*
X276896006Y-396822884D02*
G75*
G02*
X276566877Y-397152013I-100018J-229111D01*
G01*
%TO.C,SW31*%
X285018993Y-377772884D02*
X285018993Y-376129129D01*
X285348122Y-375800000D02*
X286091877Y-375800000D01*
X286091877Y-378102013D02*
X285348122Y-378102013D01*
X286421006Y-376129129D02*
X286421006Y-377772884D01*
X285018993Y-376129129D02*
G75*
G02*
X285348122Y-375800000I99995J229134D01*
G01*
X285348122Y-378102013D02*
G75*
G02*
X285018993Y-377772884I-229103J100026D01*
G01*
X286091877Y-375800000D02*
G75*
G02*
X286421008Y-376129134I229143J-99990D01*
G01*
X286421006Y-377772884D02*
G75*
G02*
X286091877Y-378102013I-100018J-229111D01*
G01*
%TO.C,SW24*%
X413606493Y-358722884D02*
X413606493Y-357079129D01*
X413935622Y-356750000D02*
X414679377Y-356750000D01*
X414679377Y-359052013D02*
X413935622Y-359052013D01*
X415008506Y-357079129D02*
X415008506Y-358722884D01*
X413606493Y-357079129D02*
G75*
G02*
X413935622Y-356750000I99995J229134D01*
G01*
X413935622Y-359052013D02*
G75*
G02*
X413606493Y-358722884I-229103J100026D01*
G01*
X414679377Y-356750000D02*
G75*
G02*
X415008508Y-357079134I229143J-99990D01*
G01*
X415008506Y-358722884D02*
G75*
G02*
X414679377Y-359052013I-100018J-229111D01*
G01*
%TO.C,SW50*%
X389793993Y-396822884D02*
X389793993Y-395179129D01*
X390123122Y-394850000D02*
X390866877Y-394850000D01*
X390866877Y-397152013D02*
X390123122Y-397152013D01*
X391196006Y-395179129D02*
X391196006Y-396822884D01*
X389793993Y-395179129D02*
G75*
G02*
X390123122Y-394850000I99995J229134D01*
G01*
X390123122Y-397152013D02*
G75*
G02*
X389793993Y-396822884I-229103J100026D01*
G01*
X390866877Y-394850000D02*
G75*
G02*
X391196008Y-395179134I229143J-99990D01*
G01*
X391196006Y-396822884D02*
G75*
G02*
X390866877Y-397152013I-100018J-229111D01*
G01*
%TO.C,SW43*%
X244612093Y-396822884D02*
X244612093Y-395179129D01*
X244941222Y-394850000D02*
X245684977Y-394850000D01*
X245684977Y-397152013D02*
X244941222Y-397152013D01*
X246014106Y-395179129D02*
X246014106Y-396822884D01*
X244612093Y-395179129D02*
G75*
G02*
X244941222Y-394850000I99995J229134D01*
G01*
X244941222Y-397152013D02*
G75*
G02*
X244612093Y-396822884I-229103J100026D01*
G01*
X245684977Y-394850000D02*
G75*
G02*
X246014108Y-395179134I229143J-99990D01*
G01*
X246014106Y-396822884D02*
G75*
G02*
X245684977Y-397152013I-100018J-229111D01*
G01*
%TO.C,SW42*%
X499331493Y-339672884D02*
X499331493Y-338029129D01*
X499660622Y-337700000D02*
X500404377Y-337700000D01*
X500404377Y-340002013D02*
X499660622Y-340002013D01*
X500733506Y-338029129D02*
X500733506Y-339672884D01*
X499331493Y-338029129D02*
G75*
G02*
X499660622Y-337700000I99995J229134D01*
G01*
X499660622Y-340002013D02*
G75*
G02*
X499331493Y-339672884I-229103J100026D01*
G01*
X500404377Y-337700000D02*
G75*
G02*
X500733508Y-338029134I229143J-99990D01*
G01*
X500733506Y-339672884D02*
G75*
G02*
X500404377Y-340002013I-100018J-229111D01*
G01*
%TO.C,SW33*%
X323118993Y-377772884D02*
X323118993Y-376129129D01*
X323448122Y-375800000D02*
X324191877Y-375800000D01*
X324191877Y-378102013D02*
X323448122Y-378102013D01*
X324521006Y-376129129D02*
X324521006Y-377772884D01*
X323118993Y-376129129D02*
G75*
G02*
X323448122Y-375800000I99995J229134D01*
G01*
X323448122Y-378102013D02*
G75*
G02*
X323118993Y-377772884I-229103J100026D01*
G01*
X324191877Y-375800000D02*
G75*
G02*
X324521008Y-376129134I229143J-99990D01*
G01*
X324521006Y-377772884D02*
G75*
G02*
X324191877Y-378102013I-100018J-229111D01*
G01*
%TO.C,SW56*%
X237394493Y-415872884D02*
X237394493Y-414229129D01*
X237723622Y-413900000D02*
X238467377Y-413900000D01*
X238467377Y-416202013D02*
X237723622Y-416202013D01*
X238796506Y-414229129D02*
X238796506Y-415872884D01*
X237394493Y-414229129D02*
G75*
G02*
X237723622Y-413900000I99995J229134D01*
G01*
X237723622Y-416202013D02*
G75*
G02*
X237394493Y-415872884I-229103J100026D01*
G01*
X238467377Y-413900000D02*
G75*
G02*
X238796508Y-414229134I229143J-99990D01*
G01*
X238796506Y-415872884D02*
G75*
G02*
X238467377Y-416202013I-100018J-229111D01*
G01*
%TO.C,SW11*%
X423131493Y-339672884D02*
X423131493Y-338029129D01*
X423460622Y-337700000D02*
X424204377Y-337700000D01*
X424204377Y-340002013D02*
X423460622Y-340002013D01*
X424533506Y-338029129D02*
X424533506Y-339672884D01*
X423131493Y-338029129D02*
G75*
G02*
X423460622Y-337700000I99995J229134D01*
G01*
X423460622Y-340002013D02*
G75*
G02*
X423131493Y-339672884I-229103J100026D01*
G01*
X424204377Y-337700000D02*
G75*
G02*
X424533508Y-338029134I229143J-99990D01*
G01*
X424533506Y-339672884D02*
G75*
G02*
X424204377Y-340002013I-100018J-229111D01*
G01*
%TO.C,SW8*%
X365981493Y-339672884D02*
X365981493Y-338029129D01*
X366310622Y-337700000D02*
X367054377Y-337700000D01*
X367054377Y-340002013D02*
X366310622Y-340002013D01*
X367383506Y-338029129D02*
X367383506Y-339672884D01*
X365981493Y-338029129D02*
G75*
G02*
X366310622Y-337700000I99995J229134D01*
G01*
X366310622Y-340002013D02*
G75*
G02*
X365981493Y-339672884I-229103J100026D01*
G01*
X367054377Y-337700000D02*
G75*
G02*
X367383508Y-338029134I229143J-99990D01*
G01*
X367383506Y-339672884D02*
G75*
G02*
X367054377Y-340002013I-100018J-229111D01*
G01*
%TO.C,SW26*%
X451706493Y-358722884D02*
X451706493Y-357079129D01*
X452035622Y-356750000D02*
X452779377Y-356750000D01*
X452779377Y-359052013D02*
X452035622Y-359052013D01*
X453108506Y-357079129D02*
X453108506Y-358722884D01*
X451706493Y-357079129D02*
G75*
G02*
X452035622Y-356750000I99995J229134D01*
G01*
X452035622Y-359052013D02*
G75*
G02*
X451706493Y-358722884I-229103J100026D01*
G01*
X452779377Y-356750000D02*
G75*
G02*
X453108508Y-357079134I229143J-99990D01*
G01*
X453108506Y-358722884D02*
G75*
G02*
X452779377Y-359052013I-100018J-229111D01*
G01*
%TO.C,SW4*%
X289781493Y-339672884D02*
X289781493Y-338029129D01*
X290110622Y-337700000D02*
X290854377Y-337700000D01*
X290854377Y-340002013D02*
X290110622Y-340002013D01*
X291183506Y-338029129D02*
X291183506Y-339672884D01*
X289781493Y-338029129D02*
G75*
G02*
X290110622Y-337700000I99995J229134D01*
G01*
X290110622Y-340002013D02*
G75*
G02*
X289781493Y-339672884I-229103J100026D01*
G01*
X290854377Y-337700000D02*
G75*
G02*
X291183508Y-338029134I229143J-99990D01*
G01*
X291183506Y-339672884D02*
G75*
G02*
X290854377Y-340002013I-100018J-229111D01*
G01*
%TO.C,SW3*%
X270731493Y-339672884D02*
X270731493Y-338029129D01*
X271060622Y-337700000D02*
X271804377Y-337700000D01*
X271804377Y-340002013D02*
X271060622Y-340002013D01*
X272133506Y-338029129D02*
X272133506Y-339672884D01*
X270731493Y-338029129D02*
G75*
G02*
X271060622Y-337700000I99995J229134D01*
G01*
X271060622Y-340002013D02*
G75*
G02*
X270731493Y-339672884I-229103J100026D01*
G01*
X271804377Y-337700000D02*
G75*
G02*
X272133508Y-338029134I229143J-99990D01*
G01*
X272133506Y-339672884D02*
G75*
G02*
X271804377Y-340002013I-100018J-229111D01*
G01*
%TO.C,SW57*%
X261206493Y-415872884D02*
X261206493Y-414229129D01*
X261535622Y-413900000D02*
X262279377Y-413900000D01*
X262279377Y-416202013D02*
X261535622Y-416202013D01*
X262608506Y-414229129D02*
X262608506Y-415872884D01*
X261206493Y-414229129D02*
G75*
G02*
X261535622Y-413900000I99995J229134D01*
G01*
X261535622Y-416202013D02*
G75*
G02*
X261206493Y-415872884I-229103J100026D01*
G01*
X262279377Y-413900000D02*
G75*
G02*
X262608508Y-414229134I229143J-99990D01*
G01*
X262608506Y-415872884D02*
G75*
G02*
X262279377Y-416202013I-100018J-229111D01*
G01*
%TO.C,SW30*%
X265968993Y-377772884D02*
X265968993Y-376129129D01*
X266298122Y-375800000D02*
X267041877Y-375800000D01*
X267041877Y-378102013D02*
X266298122Y-378102013D01*
X267371006Y-376129129D02*
X267371006Y-377772884D01*
X265968993Y-376129129D02*
G75*
G02*
X266298122Y-375800000I99995J229134D01*
G01*
X266298122Y-378102013D02*
G75*
G02*
X265968993Y-377772884I-229103J100026D01*
G01*
X267041877Y-375800000D02*
G75*
G02*
X267371008Y-376129134I229143J-99990D01*
G01*
X267371006Y-377772884D02*
G75*
G02*
X267041877Y-378102013I-100018J-229111D01*
G01*
%TO.C,SW45*%
X294543993Y-396822884D02*
X294543993Y-395179129D01*
X294873122Y-394850000D02*
X295616877Y-394850000D01*
X295616877Y-397152013D02*
X294873122Y-397152013D01*
X295946006Y-395179129D02*
X295946006Y-396822884D01*
X294543993Y-395179129D02*
G75*
G02*
X294873122Y-394850000I99995J229134D01*
G01*
X294873122Y-397152013D02*
G75*
G02*
X294543993Y-396822884I-229103J100026D01*
G01*
X295616877Y-394850000D02*
G75*
G02*
X295946008Y-395179134I229143J-99990D01*
G01*
X295946006Y-396822884D02*
G75*
G02*
X295616877Y-397152013I-100018J-229111D01*
G01*
%TO.C,SW55*%
X499331493Y-396822884D02*
X499331493Y-395179129D01*
X499660622Y-394850000D02*
X500404377Y-394850000D01*
X500404377Y-397152013D02*
X499660622Y-397152013D01*
X500733506Y-395179129D02*
X500733506Y-396822884D01*
X499331493Y-395179129D02*
G75*
G02*
X499660622Y-394850000I99995J229134D01*
G01*
X499660622Y-397152013D02*
G75*
G02*
X499331493Y-396822884I-229103J100026D01*
G01*
X500404377Y-394850000D02*
G75*
G02*
X500733508Y-395179134I229143J-99990D01*
G01*
X500733506Y-396822884D02*
G75*
G02*
X500404377Y-397152013I-100018J-229111D01*
G01*
%TO.C,SW7*%
X346931493Y-339672884D02*
X346931493Y-338029129D01*
X347260622Y-337700000D02*
X348004377Y-337700000D01*
X348004377Y-340002013D02*
X347260622Y-340002013D01*
X348333506Y-338029129D02*
X348333506Y-339672884D01*
X346931493Y-338029129D02*
G75*
G02*
X347260622Y-337700000I99995J229134D01*
G01*
X347260622Y-340002013D02*
G75*
G02*
X346931493Y-339672884I-229103J100026D01*
G01*
X348004377Y-337700000D02*
G75*
G02*
X348333508Y-338029134I229143J-99990D01*
G01*
X348333506Y-339672884D02*
G75*
G02*
X348004377Y-340002013I-100018J-229111D01*
G01*
%TO.C,SW46*%
X313593993Y-396822884D02*
X313593993Y-395179129D01*
X313923122Y-394850000D02*
X314666877Y-394850000D01*
X314666877Y-397152013D02*
X313923122Y-397152013D01*
X314996006Y-395179129D02*
X314996006Y-396822884D01*
X313593993Y-395179129D02*
G75*
G02*
X313923122Y-394850000I99995J229134D01*
G01*
X313923122Y-397152013D02*
G75*
G02*
X313593993Y-396822884I-229103J100026D01*
G01*
X314666877Y-394850000D02*
G75*
G02*
X314996008Y-395179134I229143J-99990D01*
G01*
X314996006Y-396822884D02*
G75*
G02*
X314666877Y-397152013I-100018J-229111D01*
G01*
%TO.C,SW1*%
X232631493Y-339672884D02*
X232631493Y-338029129D01*
X232960622Y-337700000D02*
X233704377Y-337700000D01*
X233704377Y-340002013D02*
X232960622Y-340002013D01*
X234033506Y-338029129D02*
X234033506Y-339672884D01*
X232631493Y-338029129D02*
G75*
G02*
X232960622Y-337700000I99995J229134D01*
G01*
X232960622Y-340002013D02*
G75*
G02*
X232631493Y-339672884I-229103J100026D01*
G01*
X233704377Y-337700000D02*
G75*
G02*
X234033508Y-338029134I229143J-99990D01*
G01*
X234033506Y-339672884D02*
G75*
G02*
X233704377Y-340002013I-100018J-229111D01*
G01*
%TD*%
M02*
