M48
; DRILL file {KiCad 8.99.0-2230-g1cc11bc589} date 2024-09-07T17:33:36+0700
; FORMAT={-:-/ absolute / inch / decimal}
; #@! TF.CreationDate,2024-09-07T17:33:36+07:00
; #@! TF.GenerationSoftware,Kicad,Pcbnew,8.99.0-2230-g1cc11bc589
; #@! TF.FileFunction,Plated,1,2,PTH
FMAT,2
INCH
; #@! TA.AperFunction,Plated,PTH,ViaDrill
T1C0.0118
; #@! TA.AperFunction,Plated,PTH,ComponentDrill
T2C0.0118
; #@! TA.AperFunction,Plated,PTH,ComponentDrill
T3C0.0236
; #@! TA.AperFunction,Plated,PTH,ComponentDrill
T4C0.0374
; #@! TA.AperFunction,Plated,PTH,ComponentDrill
T5C0.0394
; #@! TA.AperFunction,Plated,PTH,ComponentDrill
T6C0.0669
%
G90
G05
T1
X8.8941Y-13.5512
X8.8984Y-14.2166
X8.8988Y-13.4351
X8.9008Y-13.9287
X8.9039Y-13.3957
X8.9335Y-13.3761
X8.9433Y-15.1492
X8.9559Y-14.1994
X8.9587Y-14.0213
X8.9594Y-15.7567
X8.9602Y-15.4496
X8.9614Y-13.5114
X8.965Y-13.6185
X8.9681Y-13.4433
X8.9776Y-15.322
X8.978Y-13.3535
X8.9799Y-15.8264
X9.0083Y-14.287
X9.011Y-15.328
X9.0118Y-14.9429
X9.0299Y-15.6882
X9.0331Y-14.796
X9.038Y-13.4768
X9.0441Y-13.4496
X9.0512Y-15.1378
X9.0646Y-15.8264
X9.072Y-13.3622
X9.0732Y-15.5858
X9.0757Y-14.9119
X9.0779Y-15.1413
X9.0807Y-16.0421
X9.0811Y-15.922
X9.0886Y-15.4843
X9.1031Y-13.4591
X9.1245Y-15.025
X9.1793Y-13.4895
X9.1882Y-13.6476
X9.2047Y-14.763
X9.2059Y-14.9666
X9.2063Y-14.8933
X9.2493Y-13.3157
X9.25Y-16.363
X9.2504Y-13.2252
X9.3204Y-14.1547
X9.3217Y-14.2009
X9.326Y-15.289
X9.3457Y-15.6142
X9.3551Y-14.815
X9.3657Y-15.924
X9.3736Y-13.6508
X9.3736Y-14.6996
X9.4071Y-14.7421
X9.4071Y-14.8957
X9.4425Y-13.0965
X9.4425Y-13.5161
X9.448Y-15.0748
X9.4764Y-16.4492
X9.4823Y-16.2461
X9.5013Y-16.4463
X9.5358Y-15.546
X9.5467Y-13.0823
X9.5496Y-12.8945
X9.5496Y-14.7449
X9.5516Y-14.9115
X9.5622Y-13.5669
X9.5685Y-13.0732
X9.5685Y-12.8752
X9.6217Y-14.7976
X9.6232Y-15.078
X9.6331Y-13.5587
X9.6441Y-16.2531
X9.6512Y-13.5972
X9.6961Y-13.6917
X9.698Y-14.2166
X9.6996Y-13.3343
X9.702Y-14.2717
X9.724Y-14.3062
X9.7248Y-14.2009
X9.7336Y-13.476
X9.7339Y-14.6157
X9.7339Y-14.7839
X9.7524Y-13.2366
X9.7535Y-14.635
X9.7846Y-13.5236
X9.7866Y-13.2563
X9.7878Y-14.5374
X9.8004Y-14.513
X9.8008Y-14.0932
X9.8075Y-14.4642
X9.8087Y-14.7154
X9.8087Y-14.9666
X9.8087Y-14.9902
X9.8091Y-14.8638
X9.8165Y-14.2875
X9.824Y-13.3787
X9.8303Y-14.6646
X9.8428Y-13.4685
X9.8508Y-13.4185
X9.8634Y-13.6016
X9.8698Y-15.6332
X9.8975Y-15.6612
X9.9181Y-14.5193
X9.9283Y-14.5866
X9.9299Y-16.3826
X9.9386Y-14.4669
X9.9433Y-14.6437
X9.9488Y-15.6362
X9.9508Y-16.4679
X9.9539Y-14.4165
X9.9555Y-13.4831
X9.9666Y-14.6399
X9.9685Y-15.5039
X9.9732Y-13.4666
X9.976Y-14.5142
X9.9843Y-15.4809
X9.9895Y-14.6459
X9.9957Y-14.2009
X9.9957Y-14.4654
X10.1028Y-14.3665
X10.1496Y-14.9666
X10.1613Y-13.9929
X10.1614Y-13.2563
X10.1807Y-14.652
X10.2146Y-14.4126
X10.2343Y-13.2366
X10.2461Y-13.5166
X10.3004Y-13.6098
X10.3315Y-13.5031
X10.3469Y-15.4657
X10.3681Y-12.8736
X10.3681Y-13.5602
X10.3988Y-13.0087
X10.4417Y-13.3154
X10.4496Y-15.8268
X10.4508Y-15.6011
X10.4559Y-14.0669
X10.4657Y-13.5362
X10.5386Y-13.2559
X10.5705Y-13.3744
X10.5705Y-13.4398
X10.5874Y-15.6169
X10.5988Y-14.2009
X10.7846Y-13.4666
X10.9012Y-13.9921
X10.9079Y-13.3091
X10.9472Y-14.9666
X11.1713Y-13.7902
X11.1724Y-13.9732
X11.1921Y-13.8417
X11.1921Y-14.0126
X11.25Y-14.9666
X11.276Y-13.7638
X11.2776Y-13.5902
X11.278Y-13.7362
X11.2866Y-13.2571
X11.3028Y-14.2271
X11.3057Y-13.985
X11.3188Y-13.4232
X11.3213Y-13.3783
X11.335Y-13.9185
X11.3369Y-15.7009
X11.3713Y-15.5543
X11.372Y-13.5161
X11.3756Y-13.6354
X11.3815Y-13.9488
X11.3923Y-13.6775
X11.3953Y-14.0118
X11.4033Y-13.6565
X11.4197Y-13.7154
X11.4398Y-13.7278
X11.4587Y-15.0139
X11.4713Y-13.7118
X11.472Y-13.8378
X11.4736Y-14.1909
X11.5047Y-15.9594
X11.5217Y-13.7551
X11.5244Y-16.215
X11.5402Y-13.637
X11.556Y-13.2354
X11.5622Y-14.7429
X11.5795Y-13.4866
X11.5807Y-13.5362
X11.5902Y-13.2366
X11.6374Y-14.0709
X11.6398Y-12.8526
X11.6484Y-13.3102
X11.6539Y-13.9941
X11.728Y-15.8283
X11.7299Y-15.6654
X11.7547Y-15.5591
X11.7937Y-15.589
X11.7988Y-15.8303
X11.8213Y-12.8717
X11.8224Y-13.4669
X11.8386Y-12.8527
X11.8461Y-13.4666
X12.0346Y-13.261
X12.0736Y-13.3717
X12.074Y-13.4351
X12.0878Y-14.2413
X12.0988Y-14.065
X12.1673Y-14.0161
X12.1917Y-14.3717
X12.2043Y-14.5732
X12.2067Y-14.3248
X12.2555Y-15.6654
X12.2579Y-15.5051
X12.2634Y-13.537
X12.2693Y-14.7626
X12.2724Y-14.2681
X12.289Y-14.9824
X12.2902Y-14.5272
X12.2909Y-15.4768
X12.3098Y-14.4232
X12.3705Y-14.8106
X12.4008Y-13.987
X12.4091Y-14.5732
X12.4091Y-16.0461
X12.4129Y-14.3996
X12.4177Y-15.889
X12.439Y-15.9217
X12.4406Y-15.8472
X12.4567Y-14.5246
X12.4567Y-14.728
X12.4602Y-15.0139
X12.4857Y-15.8858
X12.4898Y-15.563
X12.5087Y-14.3744
X12.5087Y-14.4748
X12.5102Y-14.3252
X12.5327Y-14.4246
X12.5343Y-14.3795
X12.5425Y-16.4622
X12.5669Y-15.9252
X12.5752Y-16.0752
X12.5827Y-15.8268
X12.6732Y-15.0356
X12.6965Y-15.0398
X12.6965Y-15.9173
X12.7161Y-15.0642
X12.7177Y-15.8992
X12.7315Y-13.3091
X12.7358Y-15.7018
X12.7359Y-15.0799
X12.7673Y-14.0673
X12.7693Y-13.4252
X12.7752Y-13.3858
X12.7866Y-13.2626
X12.8004Y-15.0248
X12.8016Y-15.5071
X12.8071Y-15.8583
X12.8071Y-15.937
X12.8071Y-16.1732
X12.8157Y-13.3823
X12.8252Y-15.4882
X12.8256Y-15.7941
X12.8268Y-15.8799
X12.8268Y-15.9193
X12.8394Y-13.1957
X12.8614Y-15.8437
X12.8693Y-15.685
X12.9945Y-15.5724
X13.0102Y-16.1185
X13.0126Y-15.835
X13.0142Y-15.7555
X13.015Y-15.6287
X13.0169Y-14.7417
X13.0213Y-13.4976
X13.0339Y-15.8067
X13.0343Y-15.1382
X13.0366Y-14.2009
X13.0366Y-14.9824
X13.0378Y-15.5075
X13.0433Y-16.0827
X13.0472Y-15.8701
X13.0614Y-16.2504
X13.1205Y-15.7575
X13.1496Y-13.9858
X13.1909Y-16.0787
X13.1945Y-13.3039
X13.1965Y-15.5075
X13.1969Y-15.8028
X13.248Y-15.5591
X13.2638Y-16.1339
X13.2677Y-15.7185
X13.2835Y-15.7894
X13.2858Y-15.4878
X13.3138Y-16.4479
X13.3335Y-16.468
X13.3969Y-16.2114
X13.4268Y-13.7843
X13.428Y-14.2009
X13.4284Y-15.774
X13.437Y-13.3067
X13.4457Y-13.2008
X13.4539Y-14.0138
X13.4591Y-13.8276
X13.468Y-16.1929
X13.4697Y-16.3864
X13.476Y-16.1008
X13.4864Y-16.2303
X13.5015Y-16.0236
X13.5039Y-13.6134
X13.5079Y-16.2402
X13.5091Y-13.5748
X13.5094Y-13.2535
X13.513Y-15.734
X13.513Y-13.6642
X13.5248Y-16.3878
X13.5266Y-16.0375
X13.5457Y-13.3106
X13.5472Y-16.0551
X13.5472Y-16.2441
X13.5539Y-15.7094
X13.5654Y-14.0705
X13.5661Y-16.3299
X13.5665Y-13.4758
X13.5705Y-13.4244
X13.5717Y-16.1264
X13.572Y-15.7303
X13.574Y-13.3732
X13.5933Y-15.5998
X13.5933Y-16.0283
X13.5941Y-16.2122
X13.635Y-13.5327
X13.6382Y-13.4705
X13.6469Y-15.8835
X13.685Y-13.5457
X13.6949Y-15.0845
X13.7077Y-13.4708
X13.7097Y-15.0642
X13.711Y-13.4972
X13.7122Y-15.9173
X13.7217Y-14.0492
X13.7232Y-14.7433
X13.7264Y-15.0368
X13.7366Y-13.7783
X13.7457Y-15.0178
X13.7477Y-14.2366
X13.752Y-13.9693
X13.761Y-15.6205
X13.7622Y-16.2657
X13.7752Y-15.8421
X13.7768Y-14.2206
X13.8098Y-13.3957
X13.8118Y-13.276
X13.8126Y-14.8941
X13.815Y-13.6232
X13.8165Y-13.4772
X13.8169Y-13.5768
X13.8189Y-13.6677
X13.8193Y-13.7181
X13.828Y-16.1795
X13.8713Y-16.3157
X13.8799Y-16.3945
X13.8815Y-16.2402
X13.8949Y-13.3228
X13.9083Y-13.9882
X13.9098Y-14.5417
X13.9181Y-16.0496
X13.9213Y-16.1933
X13.9583Y-16.1492
X13.9843Y-16.3376
X13.9854Y-15.9504
X13.9866Y-13.2831
X14.0063Y-13.3894
X14.022Y-15.4878
X14.0362Y-13.3913
X14.038Y-15.7401
X14.038Y-15.9159
X14.0655Y-15.8504
X14.0906Y-15.5587
X14.1575Y-15.6965
X14.1772Y-16.3591
X14.1858Y-14.9043
X14.1909Y-15.002
X14.1941Y-16.3063
X14.2028Y-14.0602
X14.2106Y-14.9824
X14.2106Y-15.4878
X14.2303Y-15.6654
X14.25Y-14.9666
X14.2508Y-12.8748
X14.2701Y-12.8611
X14.2732Y-14.971
X14.2913Y-13.2547
X14.298Y-12.8157
X14.3163Y-13.4248
X14.3177Y-13.3752
X14.3378Y-12.8866
X14.3709Y-13.4713
X14.3768Y-12.8457
X14.4087Y-15.8291
X14.4106Y-15.6654
X14.415Y-14.2206
X14.4256Y-14.798
X14.4291Y-15.7606
X14.4307Y-15.5075
X14.437Y-15.0669
X14.4902Y-12.8146
X14.6165Y-14.2402
X14.6165Y-14.9824
X14.6516Y-13.9862
X14.6992Y-16.0394
X14.7181Y-16.3606
X14.7189Y-15.6851
X14.9094Y-15.2917
X14.9772Y-13.5075
X14.9886Y-13.3102
X15.052Y-13.2575
X15.0709Y-13.3787
X15.0714Y-13.4236
X15.1177Y-14.2205
X15.1311Y-14.9824
X15.1764Y-14.3707
X15.178Y-14.3079
X15.1831Y-14.348
X15.1902Y-14.0079
X15.1953Y-14.515
X15.2575Y-14.0583
X15.2575Y-14.2154
X15.2594Y-14.6047
X15.4008Y-13.3094
X15.4008Y-13.9835
X15.431Y-14.9981
X15.4394Y-14.711
X15.4543Y-14.5154
X15.5059Y-14.3161
X15.5076Y-14.4304
X15.5106Y-14.3512
X15.5319Y-14.3614
X15.7618Y-14.0606
X15.7764Y-15.5445
X15.8055Y-13.2543
X15.8142Y-15.7339
X15.8197Y-13.3732
X15.8229Y-13.424
X15.8559Y-15.6496
X15.8563Y-15.8283
X16.1528Y-13.9815
X16.2142Y-13.3114
X16.35Y-13.5571
X16.4299Y-13.7862
X16.4394Y-13.3173
X16.4488Y-13.8299
X16.45Y-14.0079
X16.5071Y-13.6244
X16.5094Y-13.6756
X16.5134Y-13.5776
X16.5189Y-13.2539
X16.5725Y-13.4224
X16.5764Y-13.3685
X16.65Y-13.5228
X16.7016Y-14.1457
X16.7106Y-13.4988
X16.7113Y-13.5273
X16.7201Y-14.2009
X16.7472Y-14.9886
X16.7568Y-14.2009
X16.7638Y-14.1457
X16.7697Y-13.9638
X16.774Y-14.217
X16.8169Y-14.0539
X16.8187Y-13.7604
X16.8209Y-13.5736
X16.8244Y-13.674
X16.8272Y-13.6
X16.8508Y-13.6091
X16.8547Y-13.5031
X16.8575Y-14.5587
X16.8642Y-13.3094
X16.8858Y-13.9787
X17.1701Y-15.7858
X17.1894Y-15.7009
X17.1957Y-15.8559
X17.198Y-16.415
X17.2535Y-14.9509
X17.2559Y-15.6346
X17.2591Y-14.0433
X17.2689Y-15.6754
X17.2748Y-16.3094
X17.2787Y-13.2429
X17.302Y-15.828
X17.306Y-13.4669
X17.3071Y-15.6851
X17.3217Y-13.424
X17.3236Y-13.3697
X17.3323Y-15.8492
X17.3335Y-15.6457
X17.3409Y-13.2244
X17.6Y-14.5429
X17.6386Y-13.3181
X17.6484Y-14.5421
X17.8126Y-13.3799
X17.8134Y-13.4776
X17.9594Y-14.9666
X17.9614Y-15.5885
X17.9791Y-15.2524
X17.9811Y-15.2965
X17.9827Y-14.9509
X18.0008Y-15.526
X18.0063Y-14.9509
X18.028Y-13.2457
X18.0689Y-13.313
X18.0717Y-15.3984
X18.0724Y-13.4248
X18.0756Y-13.3744
X18.0913Y-15.3457
X18.1287Y-14.9666
X18.1449Y-14.5461
X18.1892Y-14.2324
X18.2287Y-14.4264
X18.2437Y-14.3898
X18.2594Y-14.7343
X18.2646Y-14.3433
X18.2646Y-14.5913
X18.2657Y-14.8669
X18.2843Y-13.9957
X18.2862Y-15.4988
X18.2921Y-15.2488
X18.2972Y-15.3232
X18.3126Y-15.1441
X18.3159Y-15.2528
X18.3299Y-14.2807
X18.337Y-14.796
X18.3624Y-14.7802
X18.3724Y-14.8669
X18.3823Y-14.2913
X18.402Y-14.1433
X18.4224Y-13.3035
X18.4374Y-14.8874
X18.439Y-14.3295
X18.4953Y-14.7598
X18.5406Y-15.4665
X18.5626Y-14.3902
X18.5657Y-14.3378
X18.5776Y-15.6154
X18.5795Y-13.5004
X18.5803Y-14.439
X18.5906Y-13.3126
X18.5996Y-14.4839
X18.687Y-13.3826
X18.6938Y-13.4252
X18.7654Y-13.2488
X18.7689Y-15.7374
X18.7756Y-15.45
X18.8165Y-15.5717
X18.8232Y-16.4154
X18.8295Y-15.8543
X18.915Y-15.6146
X18.9209Y-15.7166
X19.0319Y-14.8826
X19.0413Y-14.7535
X19.0976Y-14.2009
X19.1087Y-14.8629
X19.1114Y-14.9291
X19.1661Y-13.4681
X19.1843Y-13.3134
X19.1996Y-13.3642
X19.2041Y-13.4268
X19.2173Y-14.1449
X19.3319Y-14.7665
X19.337Y-14.9362
X19.3528Y-14.2009
X19.3567Y-14.7614
X19.3736Y-16.2705
X19.3808Y-16.3717
X19.4311Y-14.8826
X19.4323Y-14.0008
X19.4351Y-14.8414
X19.4358Y-14.1449
X19.465Y-13.3098
X19.5713Y-13.4681
X19.6087Y-13.2488
X19.6177Y-13.4067
X19.6189Y-15.5063
X19.6209Y-15.6421
X19.6823Y-16.3098
X19.7854Y-15.8402
X19.7879Y-16.3114
X19.7909Y-16.2374
X19.8437Y-16.3598
X19.8469Y-14.0374
X19.8496Y-13.3102
X19.852Y-13.9256
X19.8528Y-15.3228
X19.8614Y-15.7614
X19.8941Y-15.5287
X19.8953Y-14.7504
X19.8972Y-14.6953
X19.9181Y-13.3894
X19.9189Y-13.2374
X19.9427Y-14.0876
X19.9437Y-15.6697
X19.9469Y-15.3776
X19.9484Y-14.7906
X19.9493Y-14.5559
X19.9516Y-13.4717
X19.9559Y-14.7661
X19.9638Y-13.9894
X19.9643Y-14.078
X19.9646Y-13.9223
X19.9651Y-14.5744
X19.9736Y-14.6437
X19.9823Y-15.3244
X19.9823Y-15.7276
X19.9823Y-15.4909
X19.9976Y-15.8071
X20.0031Y-15.3957
T2
X9.758Y-15.1421
X19.3205Y-14.3921
T4
X13.3894Y-16.4394
X13.4878Y-16.4394
X13.5862Y-16.4394
X13.6846Y-16.4394
T5
X8.9951Y-16.061
X8.9951Y-16.1594
X8.9976Y-16.2589
X8.9976Y-16.3573
T6
X9.0363Y-13.0417
X9.1301Y-14.5417
X9.2238Y-13.7917
X9.2238Y-16.0417
X9.2863Y-12.9417
X9.3176Y-14.5417
X9.3801Y-14.4417
X9.4738Y-13.6917
X9.4738Y-15.9417
X9.508Y-15.2917
X9.5676Y-14.4417
X9.758Y-15.1917
X9.7863Y-13.0417
X10.0363Y-12.9417
X10.1613Y-13.7917
X10.1613Y-16.0417
X10.3488Y-14.5417
X10.4113Y-13.6917
X10.4113Y-15.9417
X10.5363Y-13.0417
X10.5988Y-14.4417
X10.7238Y-15.2917
X10.7863Y-12.9417
X10.9113Y-13.7917
X10.9738Y-15.1917
X11.0988Y-14.5417
X11.0988Y-16.0417
X11.1613Y-13.6917
X11.2863Y-13.0417
X11.3488Y-14.4417
X11.3488Y-15.9417
X11.4738Y-15.2917
X11.5363Y-12.9417
X11.6613Y-13.7917
X11.7238Y-15.1917
X11.8488Y-14.5417
X11.9113Y-13.6917
X12.0363Y-13.0417
X12.0988Y-14.4417
X12.2238Y-15.2917
X12.2863Y-12.9417
X12.4113Y-13.7917
X12.4738Y-15.1917
X12.5988Y-14.5417
X12.6613Y-13.6917
X12.7863Y-13.0417
X12.8488Y-14.4417
X12.9738Y-15.2917
X13.0363Y-12.9417
X13.1613Y-13.7917
X13.2238Y-15.1917
X13.3488Y-14.5417
X13.4113Y-13.6917
X13.5363Y-13.0417
X13.5988Y-14.4417
X13.7238Y-15.2917
X13.7863Y-12.9417
X13.9113Y-13.7917
X13.9738Y-15.1917
X14.0988Y-14.5417
X14.1613Y-13.6917
X14.2863Y-13.0417
X14.2863Y-16.0415
X14.3488Y-14.4417
X14.4738Y-15.2917
X14.5363Y-12.9417
X14.5363Y-15.9415
X14.6613Y-13.7917
X14.7238Y-15.1917
X14.8488Y-14.5417
X14.9113Y-13.6917
X15.0363Y-13.0417
X15.0988Y-14.4417
X15.2238Y-15.2917
X15.2863Y-12.9417
X15.4113Y-13.7917
X15.4738Y-15.1917
X15.5988Y-14.5417
X15.6613Y-13.6917
X15.7863Y-13.0417
X15.8488Y-14.4417
X15.9738Y-15.2917
X16.0363Y-12.9417
X16.1613Y-13.7917
X16.2238Y-15.1917
X16.3488Y-14.5417
X16.4113Y-13.6917
X16.5363Y-13.0417
X16.5988Y-14.4417
X16.7238Y-15.2917
X16.7863Y-12.9417
X16.9113Y-13.7917
X16.9738Y-15.1917
X17.0988Y-14.5417
X17.1613Y-13.6917
X17.2863Y-13.0417
X17.3488Y-14.4417
X17.4738Y-15.2917
X17.4738Y-16.0417
X17.5363Y-12.9417
X17.6613Y-13.7917
X17.7238Y-15.1917
X17.7238Y-15.9417
X17.8488Y-14.5417
X17.9113Y-13.6917
X18.0363Y-13.0417
X18.0988Y-14.4417
X18.2863Y-12.9417
X18.4113Y-13.7917
X18.4113Y-16.0417
X18.5051Y-15.2917
X18.6613Y-13.6917
X18.6613Y-15.9417
X18.7551Y-15.1917
X18.7863Y-13.0417
X18.8801Y-15.2917
X19.0363Y-12.9417
X19.0705Y-14.5417
X19.1301Y-15.1917
X19.1613Y-13.0417
X19.3205Y-14.4417
X19.3488Y-13.7917
X19.3488Y-16.0417
X19.4113Y-12.9417
X19.5363Y-13.0417
X19.5363Y-15.2917
X19.5988Y-13.6917
X19.5988Y-15.9417
X19.7863Y-12.9417
X19.7863Y-15.1917
T3
G00X9.3689Y-12.8087
M15
G01X9.3689Y-12.8323
M16
G05
G00X9.3689Y-12.9634
M15
G01X9.3689Y-13.0067
M16
G05
G00X9.7091Y-12.8087
M15
G01X9.7091Y-12.8323
M16
G05
G00X9.7091Y-12.9634
M15
G01X9.7091Y-13.0067
M16
G05
G00X14.222Y-12.5677
M15
G01X14.222Y-12.5992
M16
G05
G00X14.222Y-12.7264
M15
G01X14.222Y-12.7697
M16
G05
G00X14.5622Y-12.5677
M15
G01X14.5622Y-12.5992
M16
G05
G00X14.5622Y-12.7264
M15
G01X14.5622Y-12.7697
M16
G05
M30
