%TF.GenerationSoftware,KiCad,Pcbnew,8.99.0-2230-g1cc11bc589*%
%TF.CreationDate,2024-09-07T17:33:40+07:00*%
%TF.ProjectId,Azimuth_PCB,417a696d-7574-4685-9f50-43422e6b6963,rev?*%
%TF.SameCoordinates,Original*%
%TF.FileFunction,Legend,Bot*%
%TF.FilePolarity,Positive*%
%FSLAX46Y46*%
G04 Gerber Fmt 4.6, Leading zero omitted, Abs format (unit mm)*
G04 Created by KiCad (PCBNEW 8.99.0-2230-g1cc11bc589) date 2024-09-07 17:33:40*
%MOMM*%
%LPD*%
G01*
G04 APERTURE LIST*
%ADD10C,3.000000*%
%ADD11C,0.500000*%
%ADD12C,0.150000*%
%ADD13C,0.120000*%
%ADD14C,0.127000*%
%ADD15C,0.200000*%
G04 APERTURE END LIST*
D10*
X438940806Y-326970000D02*
X440259704Y-326979949D01*
X501064016Y-418797038D02*
X506971776Y-418801987D01*
X501114451Y-324596987D02*
X507033862Y-324602039D01*
X501064016Y-418796987D02*
G75*
G02*
X499890175Y-418221898I-315J1484892D01*
G01*
X490878100Y-324586789D02*
G75*
G02*
X492052065Y-325161921I301J-1485106D01*
G01*
X238791301Y-324596995D02*
X319394009Y-324606987D01*
X272250250Y-418792374D02*
X290232091Y-418779797D01*
X505662892Y-382152867D02*
X509221860Y-382152867D01*
X235446496Y-416416938D02*
X236765394Y-416426887D01*
X319394009Y-324606987D02*
G75*
G02*
X320481957Y-325186722I-108J-1310908D01*
G01*
X224521860Y-326793617D02*
G75*
G02*
X226771886Y-324601987I2220786J-29155D01*
G01*
X326346680Y-325191987D02*
G75*
G02*
X320482434Y-325186467I-2930819J1388102D01*
G01*
X505631644Y-379653564D02*
X509253860Y-379646987D01*
X291405701Y-418204892D02*
G75*
G02*
X294250487Y-416409857I2841000J-1350703D01*
G01*
X320513860Y-418186987D02*
G75*
G02*
X326334908Y-418198281I2908001J-1305898D01*
G01*
X415249384Y-416426897D02*
G75*
G02*
X418094202Y-418221931I3717J-3145898D01*
G01*
X413263860Y-325186987D02*
G75*
G02*
X407353210Y-325176991I-2952959J1404092D01*
G01*
X409964450Y-416427094D02*
X415249384Y-416426897D01*
X355094116Y-324610193D02*
X406265905Y-324597537D01*
X499940841Y-325171892D02*
G75*
G02*
X497096055Y-326966943I-2841140J1350897D01*
G01*
X230502061Y-324596989D02*
G75*
G02*
X231673854Y-325257020I1874J-1366866D01*
G01*
X226725339Y-418802109D02*
X231428100Y-418786892D01*
X434922084Y-324599797D02*
G75*
G02*
X436096056Y-325174923I317J-1485098D01*
G01*
X227558100Y-379653507D02*
G75*
G02*
X227570943Y-382152867I-24J-1249713D01*
G01*
X497045300Y-416426782D02*
G75*
G02*
X499890205Y-418221881I3701J-3146013D01*
G01*
X507033862Y-324602039D02*
G75*
G02*
X509221847Y-326849134I-32961J-2220856D01*
G01*
X224521860Y-416549367D02*
X224521860Y-382152867D01*
X509221859Y-326849134D02*
X509253860Y-379646987D01*
X349756822Y-326970198D02*
G75*
G02*
X346912050Y-325175142I-3721J3145803D01*
G01*
X494896822Y-326956992D02*
X497096055Y-326966941D01*
X345738100Y-324599995D02*
G75*
G02*
X346912031Y-325175153I201J-1485200D01*
G01*
X320513860Y-418186987D02*
G75*
G02*
X319035064Y-418786923I-1364959J1241992D01*
G01*
X237583860Y-325266987D02*
G75*
G02*
X231673924Y-325256982I-2952600J1403855D01*
G01*
X299588100Y-418789995D02*
G75*
G02*
X298414203Y-418214816I-199J1485100D01*
G01*
X240784010Y-418796768D02*
X272250250Y-418792374D01*
X438940806Y-326970000D02*
G75*
G02*
X436095994Y-325174963I-3705J3145905D01*
G01*
X240784010Y-418797033D02*
G75*
G02*
X239610178Y-418221937I-229J1485038D01*
G01*
X226725339Y-418802109D02*
G75*
G02*
X224521860Y-416549367I17351J2220989D01*
G01*
X505662892Y-382152867D02*
G75*
G02*
X505631643Y-379653514I9J1249872D01*
G01*
X224521860Y-382152867D02*
X227570943Y-382152867D01*
X299588100Y-418789995D02*
X319035065Y-418786905D01*
X509221860Y-416609995D02*
G75*
G02*
X506971776Y-418801952I-2220959J29000D01*
G01*
X413263860Y-325186987D02*
G75*
G02*
X414357362Y-324607650I1088141J-732208D01*
G01*
X294250487Y-416409843D02*
X295569385Y-416419792D01*
X414357362Y-324607664D02*
X434922084Y-324599797D01*
D11*
X320451437Y-418231277D02*
X320451969Y-418231556D01*
D10*
X494896822Y-326956992D02*
G75*
G02*
X492052053Y-325161935I-3721J3145797D01*
G01*
X349756822Y-326970198D02*
X351075720Y-326980147D01*
X232601710Y-418211987D02*
G75*
G02*
X231428100Y-418786892I-1173470J910165D01*
G01*
X495726402Y-416416948D02*
X497045300Y-416426782D01*
X353920506Y-325185098D02*
G75*
G02*
X355094116Y-324610186I1173495J-910197D01*
G01*
X226771886Y-324601987D02*
X230502061Y-324596989D01*
X406265905Y-324597537D02*
G75*
G02*
X407353796Y-325176676I-4J-1311358D01*
G01*
X291405701Y-418204892D02*
G75*
G02*
X290232091Y-418779808I-1173500J910197D01*
G01*
X236765394Y-416426887D02*
G75*
G02*
X239610179Y-418221936I3676J-3145900D01*
G01*
X492881616Y-418211997D02*
G75*
G02*
X495726402Y-416416940I2841085J-1350798D01*
G01*
X509221860Y-416609995D02*
X509221860Y-382152867D01*
X224521860Y-379653507D02*
X227558100Y-379653507D01*
X224521860Y-379653507D02*
X224521860Y-326793617D01*
X419268100Y-418796987D02*
X491708005Y-418786902D01*
X326346680Y-325191987D02*
G75*
G02*
X327455461Y-324607361I1098121J-738908D01*
G01*
X237583860Y-325266987D02*
G75*
G02*
X238791301Y-324596995I1187984J-717948D01*
G01*
X444278100Y-324609995D02*
X490878100Y-324586409D01*
X492881616Y-418211997D02*
G75*
G02*
X491708005Y-418786923I-1173515J910202D01*
G01*
X295569385Y-416419792D02*
G75*
G02*
X298414205Y-418214825I3716J-3145903D01*
G01*
X327455461Y-324607341D02*
X345738100Y-324599995D01*
X353920506Y-325185098D02*
G75*
G02*
X351075720Y-326980137I-2841005J1350703D01*
G01*
X443104490Y-325184900D02*
G75*
G02*
X440259704Y-326979947I-2840889J1350505D01*
G01*
X407119664Y-418222143D02*
G75*
G02*
X405946054Y-418797049I-1173463J910148D01*
G01*
X327584024Y-418796987D02*
X405946054Y-418797048D01*
X499940841Y-325171892D02*
G75*
G02*
X501114451Y-324596971I1173460J-910103D01*
G01*
X407119664Y-418222143D02*
G75*
G02*
X409964450Y-416427103I2841037J-1350752D01*
G01*
X327584024Y-418796987D02*
G75*
G02*
X326334909Y-418198279I115077J1842492D01*
G01*
X443104490Y-325184900D02*
G75*
G02*
X444278100Y-324609974I1173511J-910195D01*
G01*
X232601710Y-418211987D02*
G75*
G02*
X235446496Y-416416938I2840935J-1350574D01*
G01*
X419268101Y-418797100D02*
G75*
G02*
X418094169Y-418221946I-244J1485120D01*
G01*
D11*
X320233869Y-418421561D02*
X320233337Y-418421282D01*
X326033479Y-325321425D02*
X326034011Y-325321704D01*
D12*
X474052380Y-340954819D02*
X474052380Y-339954819D01*
X474052380Y-339954819D02*
X473814285Y-339954819D01*
X473814285Y-339954819D02*
X473671428Y-340002438D01*
X473671428Y-340002438D02*
X473576190Y-340097676D01*
X473576190Y-340097676D02*
X473528571Y-340192914D01*
X473528571Y-340192914D02*
X473480952Y-340383390D01*
X473480952Y-340383390D02*
X473480952Y-340526247D01*
X473480952Y-340526247D02*
X473528571Y-340716723D01*
X473528571Y-340716723D02*
X473576190Y-340811961D01*
X473576190Y-340811961D02*
X473671428Y-340907200D01*
X473671428Y-340907200D02*
X473814285Y-340954819D01*
X473814285Y-340954819D02*
X474052380Y-340954819D01*
X473052380Y-340954819D02*
X473052380Y-340288152D01*
X473052380Y-340478628D02*
X473004761Y-340383390D01*
X473004761Y-340383390D02*
X472957142Y-340335771D01*
X472957142Y-340335771D02*
X472861904Y-340288152D01*
X472861904Y-340288152D02*
X472766666Y-340288152D01*
X472004761Y-340288152D02*
X472004761Y-341097676D01*
X472004761Y-341097676D02*
X472052380Y-341192914D01*
X472052380Y-341192914D02*
X472099999Y-341240533D01*
X472099999Y-341240533D02*
X472195237Y-341288152D01*
X472195237Y-341288152D02*
X472338094Y-341288152D01*
X472338094Y-341288152D02*
X472433332Y-341240533D01*
X472004761Y-340907200D02*
X472099999Y-340954819D01*
X472099999Y-340954819D02*
X472290475Y-340954819D01*
X472290475Y-340954819D02*
X472385713Y-340907200D01*
X472385713Y-340907200D02*
X472433332Y-340859580D01*
X472433332Y-340859580D02*
X472480951Y-340764342D01*
X472480951Y-340764342D02*
X472480951Y-340478628D01*
X472480951Y-340478628D02*
X472433332Y-340383390D01*
X472433332Y-340383390D02*
X472385713Y-340335771D01*
X472385713Y-340335771D02*
X472290475Y-340288152D01*
X472290475Y-340288152D02*
X472099999Y-340288152D01*
X472099999Y-340288152D02*
X472004761Y-340335771D01*
X471528570Y-340954819D02*
X471528570Y-339954819D01*
X471528570Y-340335771D02*
X471433332Y-340288152D01*
X471433332Y-340288152D02*
X471242856Y-340288152D01*
X471242856Y-340288152D02*
X471147618Y-340335771D01*
X471147618Y-340335771D02*
X471099999Y-340383390D01*
X471099999Y-340383390D02*
X471052380Y-340478628D01*
X471052380Y-340478628D02*
X471052380Y-340764342D01*
X471052380Y-340764342D02*
X471099999Y-340859580D01*
X471099999Y-340859580D02*
X471147618Y-340907200D01*
X471147618Y-340907200D02*
X471242856Y-340954819D01*
X471242856Y-340954819D02*
X471433332Y-340954819D01*
X471433332Y-340954819D02*
X471528570Y-340907200D01*
X470719046Y-339954819D02*
X470052380Y-339954819D01*
X470052380Y-339954819D02*
X470480951Y-340954819D01*
X391334580Y-286897142D02*
X391382200Y-286849523D01*
X391382200Y-286849523D02*
X391429819Y-286706666D01*
X391429819Y-286706666D02*
X391429819Y-286611428D01*
X391429819Y-286611428D02*
X391382200Y-286468571D01*
X391382200Y-286468571D02*
X391286961Y-286373333D01*
X391286961Y-286373333D02*
X391191723Y-286325714D01*
X391191723Y-286325714D02*
X391001247Y-286278095D01*
X391001247Y-286278095D02*
X390858390Y-286278095D01*
X390858390Y-286278095D02*
X390667914Y-286325714D01*
X390667914Y-286325714D02*
X390572676Y-286373333D01*
X390572676Y-286373333D02*
X390477438Y-286468571D01*
X390477438Y-286468571D02*
X390429819Y-286611428D01*
X390429819Y-286611428D02*
X390429819Y-286706666D01*
X390429819Y-286706666D02*
X390477438Y-286849523D01*
X390477438Y-286849523D02*
X390525057Y-286897142D01*
X391429819Y-287849523D02*
X391429819Y-287278095D01*
X391429819Y-287563809D02*
X390429819Y-287563809D01*
X390429819Y-287563809D02*
X390572676Y-287468571D01*
X390572676Y-287468571D02*
X390667914Y-287373333D01*
X390667914Y-287373333D02*
X390715533Y-287278095D01*
X390763152Y-288706666D02*
X391429819Y-288706666D01*
X390382200Y-288468571D02*
X391096485Y-288230476D01*
X391096485Y-288230476D02*
X391096485Y-288849523D01*
X357251666Y-325244819D02*
X357584999Y-324768628D01*
X357823094Y-325244819D02*
X357823094Y-324244819D01*
X357823094Y-324244819D02*
X357442142Y-324244819D01*
X357442142Y-324244819D02*
X357346904Y-324292438D01*
X357346904Y-324292438D02*
X357299285Y-324340057D01*
X357299285Y-324340057D02*
X357251666Y-324435295D01*
X357251666Y-324435295D02*
X357251666Y-324578152D01*
X357251666Y-324578152D02*
X357299285Y-324673390D01*
X357299285Y-324673390D02*
X357346904Y-324721009D01*
X357346904Y-324721009D02*
X357442142Y-324768628D01*
X357442142Y-324768628D02*
X357823094Y-324768628D01*
X356918332Y-324244819D02*
X356299285Y-324244819D01*
X356299285Y-324244819D02*
X356632618Y-324625771D01*
X356632618Y-324625771D02*
X356489761Y-324625771D01*
X356489761Y-324625771D02*
X356394523Y-324673390D01*
X356394523Y-324673390D02*
X356346904Y-324721009D01*
X356346904Y-324721009D02*
X356299285Y-324816247D01*
X356299285Y-324816247D02*
X356299285Y-325054342D01*
X356299285Y-325054342D02*
X356346904Y-325149580D01*
X356346904Y-325149580D02*
X356394523Y-325197200D01*
X356394523Y-325197200D02*
X356489761Y-325244819D01*
X356489761Y-325244819D02*
X356775475Y-325244819D01*
X356775475Y-325244819D02*
X356870713Y-325197200D01*
X356870713Y-325197200D02*
X356918332Y-325149580D01*
X508954819Y-353347619D02*
X507954819Y-353347619D01*
X507954819Y-353347619D02*
X507954819Y-353585714D01*
X507954819Y-353585714D02*
X508002438Y-353728571D01*
X508002438Y-353728571D02*
X508097676Y-353823809D01*
X508097676Y-353823809D02*
X508192914Y-353871428D01*
X508192914Y-353871428D02*
X508383390Y-353919047D01*
X508383390Y-353919047D02*
X508526247Y-353919047D01*
X508526247Y-353919047D02*
X508716723Y-353871428D01*
X508716723Y-353871428D02*
X508811961Y-353823809D01*
X508811961Y-353823809D02*
X508907200Y-353728571D01*
X508907200Y-353728571D02*
X508954819Y-353585714D01*
X508954819Y-353585714D02*
X508954819Y-353347619D01*
X508954819Y-354347619D02*
X508288152Y-354347619D01*
X508478628Y-354347619D02*
X508383390Y-354395238D01*
X508383390Y-354395238D02*
X508335771Y-354442857D01*
X508335771Y-354442857D02*
X508288152Y-354538095D01*
X508288152Y-354538095D02*
X508288152Y-354633333D01*
X508288152Y-355395238D02*
X509097676Y-355395238D01*
X509097676Y-355395238D02*
X509192914Y-355347619D01*
X509192914Y-355347619D02*
X509240533Y-355300000D01*
X509240533Y-355300000D02*
X509288152Y-355204762D01*
X509288152Y-355204762D02*
X509288152Y-355061905D01*
X509288152Y-355061905D02*
X509240533Y-354966667D01*
X508907200Y-355395238D02*
X508954819Y-355300000D01*
X508954819Y-355300000D02*
X508954819Y-355109524D01*
X508954819Y-355109524D02*
X508907200Y-355014286D01*
X508907200Y-355014286D02*
X508859580Y-354966667D01*
X508859580Y-354966667D02*
X508764342Y-354919048D01*
X508764342Y-354919048D02*
X508478628Y-354919048D01*
X508478628Y-354919048D02*
X508383390Y-354966667D01*
X508383390Y-354966667D02*
X508335771Y-355014286D01*
X508335771Y-355014286D02*
X508288152Y-355109524D01*
X508288152Y-355109524D02*
X508288152Y-355300000D01*
X508288152Y-355300000D02*
X508335771Y-355395238D01*
X508954819Y-355871429D02*
X507954819Y-355871429D01*
X508335771Y-355871429D02*
X508288152Y-355966667D01*
X508288152Y-355966667D02*
X508288152Y-356157143D01*
X508288152Y-356157143D02*
X508335771Y-356252381D01*
X508335771Y-356252381D02*
X508383390Y-356300000D01*
X508383390Y-356300000D02*
X508478628Y-356347619D01*
X508478628Y-356347619D02*
X508764342Y-356347619D01*
X508764342Y-356347619D02*
X508859580Y-356300000D01*
X508859580Y-356300000D02*
X508907200Y-356252381D01*
X508907200Y-356252381D02*
X508954819Y-356157143D01*
X508954819Y-356157143D02*
X508954819Y-355966667D01*
X508954819Y-355966667D02*
X508907200Y-355871429D01*
X508954819Y-356823810D02*
X508954819Y-357014286D01*
X508954819Y-357014286D02*
X508907200Y-357109524D01*
X508907200Y-357109524D02*
X508859580Y-357157143D01*
X508859580Y-357157143D02*
X508716723Y-357252381D01*
X508716723Y-357252381D02*
X508526247Y-357300000D01*
X508526247Y-357300000D02*
X508145295Y-357300000D01*
X508145295Y-357300000D02*
X508050057Y-357252381D01*
X508050057Y-357252381D02*
X508002438Y-357204762D01*
X508002438Y-357204762D02*
X507954819Y-357109524D01*
X507954819Y-357109524D02*
X507954819Y-356919048D01*
X507954819Y-356919048D02*
X508002438Y-356823810D01*
X508002438Y-356823810D02*
X508050057Y-356776191D01*
X508050057Y-356776191D02*
X508145295Y-356728572D01*
X508145295Y-356728572D02*
X508383390Y-356728572D01*
X508383390Y-356728572D02*
X508478628Y-356776191D01*
X508478628Y-356776191D02*
X508526247Y-356823810D01*
X508526247Y-356823810D02*
X508573866Y-356919048D01*
X508573866Y-356919048D02*
X508573866Y-357109524D01*
X508573866Y-357109524D02*
X508526247Y-357204762D01*
X508526247Y-357204762D02*
X508478628Y-357252381D01*
X508478628Y-357252381D02*
X508383390Y-357300000D01*
X265628571Y-403954819D02*
X265628571Y-402954819D01*
X265628571Y-402954819D02*
X265390476Y-402954819D01*
X265390476Y-402954819D02*
X265247619Y-403002438D01*
X265247619Y-403002438D02*
X265152381Y-403097676D01*
X265152381Y-403097676D02*
X265104762Y-403192914D01*
X265104762Y-403192914D02*
X265057143Y-403383390D01*
X265057143Y-403383390D02*
X265057143Y-403526247D01*
X265057143Y-403526247D02*
X265104762Y-403716723D01*
X265104762Y-403716723D02*
X265152381Y-403811961D01*
X265152381Y-403811961D02*
X265247619Y-403907200D01*
X265247619Y-403907200D02*
X265390476Y-403954819D01*
X265390476Y-403954819D02*
X265628571Y-403954819D01*
X264628571Y-403954819D02*
X264628571Y-403288152D01*
X264628571Y-403478628D02*
X264580952Y-403383390D01*
X264580952Y-403383390D02*
X264533333Y-403335771D01*
X264533333Y-403335771D02*
X264438095Y-403288152D01*
X264438095Y-403288152D02*
X264342857Y-403288152D01*
X263580952Y-403288152D02*
X263580952Y-404097676D01*
X263580952Y-404097676D02*
X263628571Y-404192914D01*
X263628571Y-404192914D02*
X263676190Y-404240533D01*
X263676190Y-404240533D02*
X263771428Y-404288152D01*
X263771428Y-404288152D02*
X263914285Y-404288152D01*
X263914285Y-404288152D02*
X264009523Y-404240533D01*
X263580952Y-403907200D02*
X263676190Y-403954819D01*
X263676190Y-403954819D02*
X263866666Y-403954819D01*
X263866666Y-403954819D02*
X263961904Y-403907200D01*
X263961904Y-403907200D02*
X264009523Y-403859580D01*
X264009523Y-403859580D02*
X264057142Y-403764342D01*
X264057142Y-403764342D02*
X264057142Y-403478628D01*
X264057142Y-403478628D02*
X264009523Y-403383390D01*
X264009523Y-403383390D02*
X263961904Y-403335771D01*
X263961904Y-403335771D02*
X263866666Y-403288152D01*
X263866666Y-403288152D02*
X263676190Y-403288152D01*
X263676190Y-403288152D02*
X263580952Y-403335771D01*
X263104761Y-403954819D02*
X263104761Y-402954819D01*
X263104761Y-403335771D02*
X263009523Y-403288152D01*
X263009523Y-403288152D02*
X262819047Y-403288152D01*
X262819047Y-403288152D02*
X262723809Y-403335771D01*
X262723809Y-403335771D02*
X262676190Y-403383390D01*
X262676190Y-403383390D02*
X262628571Y-403478628D01*
X262628571Y-403478628D02*
X262628571Y-403764342D01*
X262628571Y-403764342D02*
X262676190Y-403859580D01*
X262676190Y-403859580D02*
X262723809Y-403907200D01*
X262723809Y-403907200D02*
X262819047Y-403954819D01*
X262819047Y-403954819D02*
X263009523Y-403954819D01*
X263009523Y-403954819D02*
X263104761Y-403907200D01*
X262247618Y-403050057D02*
X262199999Y-403002438D01*
X262199999Y-403002438D02*
X262104761Y-402954819D01*
X262104761Y-402954819D02*
X261866666Y-402954819D01*
X261866666Y-402954819D02*
X261771428Y-403002438D01*
X261771428Y-403002438D02*
X261723809Y-403050057D01*
X261723809Y-403050057D02*
X261676190Y-403145295D01*
X261676190Y-403145295D02*
X261676190Y-403240533D01*
X261676190Y-403240533D02*
X261723809Y-403383390D01*
X261723809Y-403383390D02*
X262295237Y-403954819D01*
X262295237Y-403954819D02*
X261676190Y-403954819D01*
X261057142Y-402954819D02*
X260961904Y-402954819D01*
X260961904Y-402954819D02*
X260866666Y-403002438D01*
X260866666Y-403002438D02*
X260819047Y-403050057D01*
X260819047Y-403050057D02*
X260771428Y-403145295D01*
X260771428Y-403145295D02*
X260723809Y-403335771D01*
X260723809Y-403335771D02*
X260723809Y-403573866D01*
X260723809Y-403573866D02*
X260771428Y-403764342D01*
X260771428Y-403764342D02*
X260819047Y-403859580D01*
X260819047Y-403859580D02*
X260866666Y-403907200D01*
X260866666Y-403907200D02*
X260961904Y-403954819D01*
X260961904Y-403954819D02*
X261057142Y-403954819D01*
X261057142Y-403954819D02*
X261152380Y-403907200D01*
X261152380Y-403907200D02*
X261199999Y-403859580D01*
X261199999Y-403859580D02*
X261247618Y-403764342D01*
X261247618Y-403764342D02*
X261295237Y-403573866D01*
X261295237Y-403573866D02*
X261295237Y-403335771D01*
X261295237Y-403335771D02*
X261247618Y-403145295D01*
X261247618Y-403145295D02*
X261199999Y-403050057D01*
X261199999Y-403050057D02*
X261152380Y-403002438D01*
X261152380Y-403002438D02*
X261057142Y-402954819D01*
X299552380Y-340954819D02*
X299552380Y-339954819D01*
X299552380Y-339954819D02*
X299314285Y-339954819D01*
X299314285Y-339954819D02*
X299171428Y-340002438D01*
X299171428Y-340002438D02*
X299076190Y-340097676D01*
X299076190Y-340097676D02*
X299028571Y-340192914D01*
X299028571Y-340192914D02*
X298980952Y-340383390D01*
X298980952Y-340383390D02*
X298980952Y-340526247D01*
X298980952Y-340526247D02*
X299028571Y-340716723D01*
X299028571Y-340716723D02*
X299076190Y-340811961D01*
X299076190Y-340811961D02*
X299171428Y-340907200D01*
X299171428Y-340907200D02*
X299314285Y-340954819D01*
X299314285Y-340954819D02*
X299552380Y-340954819D01*
X298552380Y-340954819D02*
X298552380Y-340288152D01*
X298552380Y-340478628D02*
X298504761Y-340383390D01*
X298504761Y-340383390D02*
X298457142Y-340335771D01*
X298457142Y-340335771D02*
X298361904Y-340288152D01*
X298361904Y-340288152D02*
X298266666Y-340288152D01*
X297504761Y-340288152D02*
X297504761Y-341097676D01*
X297504761Y-341097676D02*
X297552380Y-341192914D01*
X297552380Y-341192914D02*
X297599999Y-341240533D01*
X297599999Y-341240533D02*
X297695237Y-341288152D01*
X297695237Y-341288152D02*
X297838094Y-341288152D01*
X297838094Y-341288152D02*
X297933332Y-341240533D01*
X297504761Y-340907200D02*
X297599999Y-340954819D01*
X297599999Y-340954819D02*
X297790475Y-340954819D01*
X297790475Y-340954819D02*
X297885713Y-340907200D01*
X297885713Y-340907200D02*
X297933332Y-340859580D01*
X297933332Y-340859580D02*
X297980951Y-340764342D01*
X297980951Y-340764342D02*
X297980951Y-340478628D01*
X297980951Y-340478628D02*
X297933332Y-340383390D01*
X297933332Y-340383390D02*
X297885713Y-340335771D01*
X297885713Y-340335771D02*
X297790475Y-340288152D01*
X297790475Y-340288152D02*
X297599999Y-340288152D01*
X297599999Y-340288152D02*
X297504761Y-340335771D01*
X297028570Y-340954819D02*
X297028570Y-339954819D01*
X297028570Y-340335771D02*
X296933332Y-340288152D01*
X296933332Y-340288152D02*
X296742856Y-340288152D01*
X296742856Y-340288152D02*
X296647618Y-340335771D01*
X296647618Y-340335771D02*
X296599999Y-340383390D01*
X296599999Y-340383390D02*
X296552380Y-340478628D01*
X296552380Y-340478628D02*
X296552380Y-340764342D01*
X296552380Y-340764342D02*
X296599999Y-340859580D01*
X296599999Y-340859580D02*
X296647618Y-340907200D01*
X296647618Y-340907200D02*
X296742856Y-340954819D01*
X296742856Y-340954819D02*
X296933332Y-340954819D01*
X296933332Y-340954819D02*
X297028570Y-340907200D01*
X296171427Y-340050057D02*
X296123808Y-340002438D01*
X296123808Y-340002438D02*
X296028570Y-339954819D01*
X296028570Y-339954819D02*
X295790475Y-339954819D01*
X295790475Y-339954819D02*
X295695237Y-340002438D01*
X295695237Y-340002438D02*
X295647618Y-340050057D01*
X295647618Y-340050057D02*
X295599999Y-340145295D01*
X295599999Y-340145295D02*
X295599999Y-340240533D01*
X295599999Y-340240533D02*
X295647618Y-340383390D01*
X295647618Y-340383390D02*
X296219046Y-340954819D01*
X296219046Y-340954819D02*
X295599999Y-340954819D01*
X226254819Y-350371428D02*
X225254819Y-350371428D01*
X225254819Y-350371428D02*
X225254819Y-350609523D01*
X225254819Y-350609523D02*
X225302438Y-350752380D01*
X225302438Y-350752380D02*
X225397676Y-350847618D01*
X225397676Y-350847618D02*
X225492914Y-350895237D01*
X225492914Y-350895237D02*
X225683390Y-350942856D01*
X225683390Y-350942856D02*
X225826247Y-350942856D01*
X225826247Y-350942856D02*
X226016723Y-350895237D01*
X226016723Y-350895237D02*
X226111961Y-350847618D01*
X226111961Y-350847618D02*
X226207200Y-350752380D01*
X226207200Y-350752380D02*
X226254819Y-350609523D01*
X226254819Y-350609523D02*
X226254819Y-350371428D01*
X226254819Y-351371428D02*
X225588152Y-351371428D01*
X225778628Y-351371428D02*
X225683390Y-351419047D01*
X225683390Y-351419047D02*
X225635771Y-351466666D01*
X225635771Y-351466666D02*
X225588152Y-351561904D01*
X225588152Y-351561904D02*
X225588152Y-351657142D01*
X225588152Y-352419047D02*
X226397676Y-352419047D01*
X226397676Y-352419047D02*
X226492914Y-352371428D01*
X226492914Y-352371428D02*
X226540533Y-352323809D01*
X226540533Y-352323809D02*
X226588152Y-352228571D01*
X226588152Y-352228571D02*
X226588152Y-352085714D01*
X226588152Y-352085714D02*
X226540533Y-351990476D01*
X226207200Y-352419047D02*
X226254819Y-352323809D01*
X226254819Y-352323809D02*
X226254819Y-352133333D01*
X226254819Y-352133333D02*
X226207200Y-352038095D01*
X226207200Y-352038095D02*
X226159580Y-351990476D01*
X226159580Y-351990476D02*
X226064342Y-351942857D01*
X226064342Y-351942857D02*
X225778628Y-351942857D01*
X225778628Y-351942857D02*
X225683390Y-351990476D01*
X225683390Y-351990476D02*
X225635771Y-352038095D01*
X225635771Y-352038095D02*
X225588152Y-352133333D01*
X225588152Y-352133333D02*
X225588152Y-352323809D01*
X225588152Y-352323809D02*
X225635771Y-352419047D01*
X226254819Y-352895238D02*
X225254819Y-352895238D01*
X225635771Y-352895238D02*
X225588152Y-352990476D01*
X225588152Y-352990476D02*
X225588152Y-353180952D01*
X225588152Y-353180952D02*
X225635771Y-353276190D01*
X225635771Y-353276190D02*
X225683390Y-353323809D01*
X225683390Y-353323809D02*
X225778628Y-353371428D01*
X225778628Y-353371428D02*
X226064342Y-353371428D01*
X226064342Y-353371428D02*
X226159580Y-353323809D01*
X226159580Y-353323809D02*
X226207200Y-353276190D01*
X226207200Y-353276190D02*
X226254819Y-353180952D01*
X226254819Y-353180952D02*
X226254819Y-352990476D01*
X226254819Y-352990476D02*
X226207200Y-352895238D01*
X225350057Y-353752381D02*
X225302438Y-353800000D01*
X225302438Y-353800000D02*
X225254819Y-353895238D01*
X225254819Y-353895238D02*
X225254819Y-354133333D01*
X225254819Y-354133333D02*
X225302438Y-354228571D01*
X225302438Y-354228571D02*
X225350057Y-354276190D01*
X225350057Y-354276190D02*
X225445295Y-354323809D01*
X225445295Y-354323809D02*
X225540533Y-354323809D01*
X225540533Y-354323809D02*
X225683390Y-354276190D01*
X225683390Y-354276190D02*
X226254819Y-353704762D01*
X226254819Y-353704762D02*
X226254819Y-354323809D01*
X225588152Y-355180952D02*
X226254819Y-355180952D01*
X225207200Y-354942857D02*
X225921485Y-354704762D01*
X225921485Y-354704762D02*
X225921485Y-355323809D01*
X365226666Y-326740180D02*
X365226666Y-326025895D01*
X365226666Y-326025895D02*
X365179047Y-325883038D01*
X365179047Y-325883038D02*
X365083809Y-325787800D01*
X365083809Y-325787800D02*
X364940952Y-325740180D01*
X364940952Y-325740180D02*
X364845714Y-325740180D01*
X366131428Y-326406847D02*
X366131428Y-325740180D01*
X365893333Y-326787800D02*
X365655238Y-326073514D01*
X365655238Y-326073514D02*
X366274285Y-326073514D01*
X226754819Y-388471428D02*
X225754819Y-388471428D01*
X225754819Y-388471428D02*
X225754819Y-388709523D01*
X225754819Y-388709523D02*
X225802438Y-388852380D01*
X225802438Y-388852380D02*
X225897676Y-388947618D01*
X225897676Y-388947618D02*
X225992914Y-388995237D01*
X225992914Y-388995237D02*
X226183390Y-389042856D01*
X226183390Y-389042856D02*
X226326247Y-389042856D01*
X226326247Y-389042856D02*
X226516723Y-388995237D01*
X226516723Y-388995237D02*
X226611961Y-388947618D01*
X226611961Y-388947618D02*
X226707200Y-388852380D01*
X226707200Y-388852380D02*
X226754819Y-388709523D01*
X226754819Y-388709523D02*
X226754819Y-388471428D01*
X226754819Y-389471428D02*
X226088152Y-389471428D01*
X226278628Y-389471428D02*
X226183390Y-389519047D01*
X226183390Y-389519047D02*
X226135771Y-389566666D01*
X226135771Y-389566666D02*
X226088152Y-389661904D01*
X226088152Y-389661904D02*
X226088152Y-389757142D01*
X226088152Y-390519047D02*
X226897676Y-390519047D01*
X226897676Y-390519047D02*
X226992914Y-390471428D01*
X226992914Y-390471428D02*
X227040533Y-390423809D01*
X227040533Y-390423809D02*
X227088152Y-390328571D01*
X227088152Y-390328571D02*
X227088152Y-390185714D01*
X227088152Y-390185714D02*
X227040533Y-390090476D01*
X226707200Y-390519047D02*
X226754819Y-390423809D01*
X226754819Y-390423809D02*
X226754819Y-390233333D01*
X226754819Y-390233333D02*
X226707200Y-390138095D01*
X226707200Y-390138095D02*
X226659580Y-390090476D01*
X226659580Y-390090476D02*
X226564342Y-390042857D01*
X226564342Y-390042857D02*
X226278628Y-390042857D01*
X226278628Y-390042857D02*
X226183390Y-390090476D01*
X226183390Y-390090476D02*
X226135771Y-390138095D01*
X226135771Y-390138095D02*
X226088152Y-390233333D01*
X226088152Y-390233333D02*
X226088152Y-390423809D01*
X226088152Y-390423809D02*
X226135771Y-390519047D01*
X226754819Y-390995238D02*
X225754819Y-390995238D01*
X226135771Y-390995238D02*
X226088152Y-391090476D01*
X226088152Y-391090476D02*
X226088152Y-391280952D01*
X226088152Y-391280952D02*
X226135771Y-391376190D01*
X226135771Y-391376190D02*
X226183390Y-391423809D01*
X226183390Y-391423809D02*
X226278628Y-391471428D01*
X226278628Y-391471428D02*
X226564342Y-391471428D01*
X226564342Y-391471428D02*
X226659580Y-391423809D01*
X226659580Y-391423809D02*
X226707200Y-391376190D01*
X226707200Y-391376190D02*
X226754819Y-391280952D01*
X226754819Y-391280952D02*
X226754819Y-391090476D01*
X226754819Y-391090476D02*
X226707200Y-390995238D01*
X225850057Y-391852381D02*
X225802438Y-391900000D01*
X225802438Y-391900000D02*
X225754819Y-391995238D01*
X225754819Y-391995238D02*
X225754819Y-392233333D01*
X225754819Y-392233333D02*
X225802438Y-392328571D01*
X225802438Y-392328571D02*
X225850057Y-392376190D01*
X225850057Y-392376190D02*
X225945295Y-392423809D01*
X225945295Y-392423809D02*
X226040533Y-392423809D01*
X226040533Y-392423809D02*
X226183390Y-392376190D01*
X226183390Y-392376190D02*
X226754819Y-391804762D01*
X226754819Y-391804762D02*
X226754819Y-392423809D01*
X225850057Y-392804762D02*
X225802438Y-392852381D01*
X225802438Y-392852381D02*
X225754819Y-392947619D01*
X225754819Y-392947619D02*
X225754819Y-393185714D01*
X225754819Y-393185714D02*
X225802438Y-393280952D01*
X225802438Y-393280952D02*
X225850057Y-393328571D01*
X225850057Y-393328571D02*
X225945295Y-393376190D01*
X225945295Y-393376190D02*
X226040533Y-393376190D01*
X226040533Y-393376190D02*
X226183390Y-393328571D01*
X226183390Y-393328571D02*
X226754819Y-392757143D01*
X226754819Y-392757143D02*
X226754819Y-393376190D01*
X504834819Y-340057619D02*
X503834819Y-340057619D01*
X503834819Y-340057619D02*
X503834819Y-340295714D01*
X503834819Y-340295714D02*
X503882438Y-340438571D01*
X503882438Y-340438571D02*
X503977676Y-340533809D01*
X503977676Y-340533809D02*
X504072914Y-340581428D01*
X504072914Y-340581428D02*
X504263390Y-340629047D01*
X504263390Y-340629047D02*
X504406247Y-340629047D01*
X504406247Y-340629047D02*
X504596723Y-340581428D01*
X504596723Y-340581428D02*
X504691961Y-340533809D01*
X504691961Y-340533809D02*
X504787200Y-340438571D01*
X504787200Y-340438571D02*
X504834819Y-340295714D01*
X504834819Y-340295714D02*
X504834819Y-340057619D01*
X504834819Y-341057619D02*
X504168152Y-341057619D01*
X504358628Y-341057619D02*
X504263390Y-341105238D01*
X504263390Y-341105238D02*
X504215771Y-341152857D01*
X504215771Y-341152857D02*
X504168152Y-341248095D01*
X504168152Y-341248095D02*
X504168152Y-341343333D01*
X504168152Y-342105238D02*
X504977676Y-342105238D01*
X504977676Y-342105238D02*
X505072914Y-342057619D01*
X505072914Y-342057619D02*
X505120533Y-342010000D01*
X505120533Y-342010000D02*
X505168152Y-341914762D01*
X505168152Y-341914762D02*
X505168152Y-341771905D01*
X505168152Y-341771905D02*
X505120533Y-341676667D01*
X504787200Y-342105238D02*
X504834819Y-342010000D01*
X504834819Y-342010000D02*
X504834819Y-341819524D01*
X504834819Y-341819524D02*
X504787200Y-341724286D01*
X504787200Y-341724286D02*
X504739580Y-341676667D01*
X504739580Y-341676667D02*
X504644342Y-341629048D01*
X504644342Y-341629048D02*
X504358628Y-341629048D01*
X504358628Y-341629048D02*
X504263390Y-341676667D01*
X504263390Y-341676667D02*
X504215771Y-341724286D01*
X504215771Y-341724286D02*
X504168152Y-341819524D01*
X504168152Y-341819524D02*
X504168152Y-342010000D01*
X504168152Y-342010000D02*
X504215771Y-342105238D01*
X504834819Y-342581429D02*
X503834819Y-342581429D01*
X504215771Y-342581429D02*
X504168152Y-342676667D01*
X504168152Y-342676667D02*
X504168152Y-342867143D01*
X504168152Y-342867143D02*
X504215771Y-342962381D01*
X504215771Y-342962381D02*
X504263390Y-343010000D01*
X504263390Y-343010000D02*
X504358628Y-343057619D01*
X504358628Y-343057619D02*
X504644342Y-343057619D01*
X504644342Y-343057619D02*
X504739580Y-343010000D01*
X504739580Y-343010000D02*
X504787200Y-342962381D01*
X504787200Y-342962381D02*
X504834819Y-342867143D01*
X504834819Y-342867143D02*
X504834819Y-342676667D01*
X504834819Y-342676667D02*
X504787200Y-342581429D01*
X504263390Y-343629048D02*
X504215771Y-343533810D01*
X504215771Y-343533810D02*
X504168152Y-343486191D01*
X504168152Y-343486191D02*
X504072914Y-343438572D01*
X504072914Y-343438572D02*
X504025295Y-343438572D01*
X504025295Y-343438572D02*
X503930057Y-343486191D01*
X503930057Y-343486191D02*
X503882438Y-343533810D01*
X503882438Y-343533810D02*
X503834819Y-343629048D01*
X503834819Y-343629048D02*
X503834819Y-343819524D01*
X503834819Y-343819524D02*
X503882438Y-343914762D01*
X503882438Y-343914762D02*
X503930057Y-343962381D01*
X503930057Y-343962381D02*
X504025295Y-344010000D01*
X504025295Y-344010000D02*
X504072914Y-344010000D01*
X504072914Y-344010000D02*
X504168152Y-343962381D01*
X504168152Y-343962381D02*
X504215771Y-343914762D01*
X504215771Y-343914762D02*
X504263390Y-343819524D01*
X504263390Y-343819524D02*
X504263390Y-343629048D01*
X504263390Y-343629048D02*
X504311009Y-343533810D01*
X504311009Y-343533810D02*
X504358628Y-343486191D01*
X504358628Y-343486191D02*
X504453866Y-343438572D01*
X504453866Y-343438572D02*
X504644342Y-343438572D01*
X504644342Y-343438572D02*
X504739580Y-343486191D01*
X504739580Y-343486191D02*
X504787200Y-343533810D01*
X504787200Y-343533810D02*
X504834819Y-343629048D01*
X504834819Y-343629048D02*
X504834819Y-343819524D01*
X504834819Y-343819524D02*
X504787200Y-343914762D01*
X504787200Y-343914762D02*
X504739580Y-343962381D01*
X504739580Y-343962381D02*
X504644342Y-344010000D01*
X504644342Y-344010000D02*
X504453866Y-344010000D01*
X504453866Y-344010000D02*
X504358628Y-343962381D01*
X504358628Y-343962381D02*
X504311009Y-343914762D01*
X504311009Y-343914762D02*
X504263390Y-343819524D01*
X509954819Y-399071428D02*
X508954819Y-399071428D01*
X508954819Y-399071428D02*
X508954819Y-399309523D01*
X508954819Y-399309523D02*
X509002438Y-399452380D01*
X509002438Y-399452380D02*
X509097676Y-399547618D01*
X509097676Y-399547618D02*
X509192914Y-399595237D01*
X509192914Y-399595237D02*
X509383390Y-399642856D01*
X509383390Y-399642856D02*
X509526247Y-399642856D01*
X509526247Y-399642856D02*
X509716723Y-399595237D01*
X509716723Y-399595237D02*
X509811961Y-399547618D01*
X509811961Y-399547618D02*
X509907200Y-399452380D01*
X509907200Y-399452380D02*
X509954819Y-399309523D01*
X509954819Y-399309523D02*
X509954819Y-399071428D01*
X509954819Y-400071428D02*
X509288152Y-400071428D01*
X509478628Y-400071428D02*
X509383390Y-400119047D01*
X509383390Y-400119047D02*
X509335771Y-400166666D01*
X509335771Y-400166666D02*
X509288152Y-400261904D01*
X509288152Y-400261904D02*
X509288152Y-400357142D01*
X509288152Y-401119047D02*
X510097676Y-401119047D01*
X510097676Y-401119047D02*
X510192914Y-401071428D01*
X510192914Y-401071428D02*
X510240533Y-401023809D01*
X510240533Y-401023809D02*
X510288152Y-400928571D01*
X510288152Y-400928571D02*
X510288152Y-400785714D01*
X510288152Y-400785714D02*
X510240533Y-400690476D01*
X509907200Y-401119047D02*
X509954819Y-401023809D01*
X509954819Y-401023809D02*
X509954819Y-400833333D01*
X509954819Y-400833333D02*
X509907200Y-400738095D01*
X509907200Y-400738095D02*
X509859580Y-400690476D01*
X509859580Y-400690476D02*
X509764342Y-400642857D01*
X509764342Y-400642857D02*
X509478628Y-400642857D01*
X509478628Y-400642857D02*
X509383390Y-400690476D01*
X509383390Y-400690476D02*
X509335771Y-400738095D01*
X509335771Y-400738095D02*
X509288152Y-400833333D01*
X509288152Y-400833333D02*
X509288152Y-401023809D01*
X509288152Y-401023809D02*
X509335771Y-401119047D01*
X509954819Y-401595238D02*
X508954819Y-401595238D01*
X509335771Y-401595238D02*
X509288152Y-401690476D01*
X509288152Y-401690476D02*
X509288152Y-401880952D01*
X509288152Y-401880952D02*
X509335771Y-401976190D01*
X509335771Y-401976190D02*
X509383390Y-402023809D01*
X509383390Y-402023809D02*
X509478628Y-402071428D01*
X509478628Y-402071428D02*
X509764342Y-402071428D01*
X509764342Y-402071428D02*
X509859580Y-402023809D01*
X509859580Y-402023809D02*
X509907200Y-401976190D01*
X509907200Y-401976190D02*
X509954819Y-401880952D01*
X509954819Y-401880952D02*
X509954819Y-401690476D01*
X509954819Y-401690476D02*
X509907200Y-401595238D01*
X509954819Y-403023809D02*
X509954819Y-402452381D01*
X509954819Y-402738095D02*
X508954819Y-402738095D01*
X508954819Y-402738095D02*
X509097676Y-402642857D01*
X509097676Y-402642857D02*
X509192914Y-402547619D01*
X509192914Y-402547619D02*
X509240533Y-402452381D01*
X509050057Y-403404762D02*
X509002438Y-403452381D01*
X509002438Y-403452381D02*
X508954819Y-403547619D01*
X508954819Y-403547619D02*
X508954819Y-403785714D01*
X508954819Y-403785714D02*
X509002438Y-403880952D01*
X509002438Y-403880952D02*
X509050057Y-403928571D01*
X509050057Y-403928571D02*
X509145295Y-403976190D01*
X509145295Y-403976190D02*
X509240533Y-403976190D01*
X509240533Y-403976190D02*
X509383390Y-403928571D01*
X509383390Y-403928571D02*
X509954819Y-403357143D01*
X509954819Y-403357143D02*
X509954819Y-403976190D01*
X370328571Y-403954819D02*
X370328571Y-402954819D01*
X370328571Y-402954819D02*
X370090476Y-402954819D01*
X370090476Y-402954819D02*
X369947619Y-403002438D01*
X369947619Y-403002438D02*
X369852381Y-403097676D01*
X369852381Y-403097676D02*
X369804762Y-403192914D01*
X369804762Y-403192914D02*
X369757143Y-403383390D01*
X369757143Y-403383390D02*
X369757143Y-403526247D01*
X369757143Y-403526247D02*
X369804762Y-403716723D01*
X369804762Y-403716723D02*
X369852381Y-403811961D01*
X369852381Y-403811961D02*
X369947619Y-403907200D01*
X369947619Y-403907200D02*
X370090476Y-403954819D01*
X370090476Y-403954819D02*
X370328571Y-403954819D01*
X369328571Y-403954819D02*
X369328571Y-403288152D01*
X369328571Y-403478628D02*
X369280952Y-403383390D01*
X369280952Y-403383390D02*
X369233333Y-403335771D01*
X369233333Y-403335771D02*
X369138095Y-403288152D01*
X369138095Y-403288152D02*
X369042857Y-403288152D01*
X368280952Y-403288152D02*
X368280952Y-404097676D01*
X368280952Y-404097676D02*
X368328571Y-404192914D01*
X368328571Y-404192914D02*
X368376190Y-404240533D01*
X368376190Y-404240533D02*
X368471428Y-404288152D01*
X368471428Y-404288152D02*
X368614285Y-404288152D01*
X368614285Y-404288152D02*
X368709523Y-404240533D01*
X368280952Y-403907200D02*
X368376190Y-403954819D01*
X368376190Y-403954819D02*
X368566666Y-403954819D01*
X368566666Y-403954819D02*
X368661904Y-403907200D01*
X368661904Y-403907200D02*
X368709523Y-403859580D01*
X368709523Y-403859580D02*
X368757142Y-403764342D01*
X368757142Y-403764342D02*
X368757142Y-403478628D01*
X368757142Y-403478628D02*
X368709523Y-403383390D01*
X368709523Y-403383390D02*
X368661904Y-403335771D01*
X368661904Y-403335771D02*
X368566666Y-403288152D01*
X368566666Y-403288152D02*
X368376190Y-403288152D01*
X368376190Y-403288152D02*
X368280952Y-403335771D01*
X367804761Y-403954819D02*
X367804761Y-402954819D01*
X367804761Y-403335771D02*
X367709523Y-403288152D01*
X367709523Y-403288152D02*
X367519047Y-403288152D01*
X367519047Y-403288152D02*
X367423809Y-403335771D01*
X367423809Y-403335771D02*
X367376190Y-403383390D01*
X367376190Y-403383390D02*
X367328571Y-403478628D01*
X367328571Y-403478628D02*
X367328571Y-403764342D01*
X367328571Y-403764342D02*
X367376190Y-403859580D01*
X367376190Y-403859580D02*
X367423809Y-403907200D01*
X367423809Y-403907200D02*
X367519047Y-403954819D01*
X367519047Y-403954819D02*
X367709523Y-403954819D01*
X367709523Y-403954819D02*
X367804761Y-403907200D01*
X366376190Y-403954819D02*
X366947618Y-403954819D01*
X366661904Y-403954819D02*
X366661904Y-402954819D01*
X366661904Y-402954819D02*
X366757142Y-403097676D01*
X366757142Y-403097676D02*
X366852380Y-403192914D01*
X366852380Y-403192914D02*
X366947618Y-403240533D01*
X366042856Y-402954819D02*
X365376190Y-402954819D01*
X365376190Y-402954819D02*
X365804761Y-403954819D01*
X508954819Y-369471428D02*
X507954819Y-369471428D01*
X507954819Y-369471428D02*
X507954819Y-369709523D01*
X507954819Y-369709523D02*
X508002438Y-369852380D01*
X508002438Y-369852380D02*
X508097676Y-369947618D01*
X508097676Y-369947618D02*
X508192914Y-369995237D01*
X508192914Y-369995237D02*
X508383390Y-370042856D01*
X508383390Y-370042856D02*
X508526247Y-370042856D01*
X508526247Y-370042856D02*
X508716723Y-369995237D01*
X508716723Y-369995237D02*
X508811961Y-369947618D01*
X508811961Y-369947618D02*
X508907200Y-369852380D01*
X508907200Y-369852380D02*
X508954819Y-369709523D01*
X508954819Y-369709523D02*
X508954819Y-369471428D01*
X508954819Y-370471428D02*
X508288152Y-370471428D01*
X508478628Y-370471428D02*
X508383390Y-370519047D01*
X508383390Y-370519047D02*
X508335771Y-370566666D01*
X508335771Y-370566666D02*
X508288152Y-370661904D01*
X508288152Y-370661904D02*
X508288152Y-370757142D01*
X508288152Y-371519047D02*
X509097676Y-371519047D01*
X509097676Y-371519047D02*
X509192914Y-371471428D01*
X509192914Y-371471428D02*
X509240533Y-371423809D01*
X509240533Y-371423809D02*
X509288152Y-371328571D01*
X509288152Y-371328571D02*
X509288152Y-371185714D01*
X509288152Y-371185714D02*
X509240533Y-371090476D01*
X508907200Y-371519047D02*
X508954819Y-371423809D01*
X508954819Y-371423809D02*
X508954819Y-371233333D01*
X508954819Y-371233333D02*
X508907200Y-371138095D01*
X508907200Y-371138095D02*
X508859580Y-371090476D01*
X508859580Y-371090476D02*
X508764342Y-371042857D01*
X508764342Y-371042857D02*
X508478628Y-371042857D01*
X508478628Y-371042857D02*
X508383390Y-371090476D01*
X508383390Y-371090476D02*
X508335771Y-371138095D01*
X508335771Y-371138095D02*
X508288152Y-371233333D01*
X508288152Y-371233333D02*
X508288152Y-371423809D01*
X508288152Y-371423809D02*
X508335771Y-371519047D01*
X508954819Y-371995238D02*
X507954819Y-371995238D01*
X508335771Y-371995238D02*
X508288152Y-372090476D01*
X508288152Y-372090476D02*
X508288152Y-372280952D01*
X508288152Y-372280952D02*
X508335771Y-372376190D01*
X508335771Y-372376190D02*
X508383390Y-372423809D01*
X508383390Y-372423809D02*
X508478628Y-372471428D01*
X508478628Y-372471428D02*
X508764342Y-372471428D01*
X508764342Y-372471428D02*
X508859580Y-372423809D01*
X508859580Y-372423809D02*
X508907200Y-372376190D01*
X508907200Y-372376190D02*
X508954819Y-372280952D01*
X508954819Y-372280952D02*
X508954819Y-372090476D01*
X508954819Y-372090476D02*
X508907200Y-371995238D01*
X508954819Y-373423809D02*
X508954819Y-372852381D01*
X508954819Y-373138095D02*
X507954819Y-373138095D01*
X507954819Y-373138095D02*
X508097676Y-373042857D01*
X508097676Y-373042857D02*
X508192914Y-372947619D01*
X508192914Y-372947619D02*
X508240533Y-372852381D01*
X507954819Y-374042857D02*
X507954819Y-374138095D01*
X507954819Y-374138095D02*
X508002438Y-374233333D01*
X508002438Y-374233333D02*
X508050057Y-374280952D01*
X508050057Y-374280952D02*
X508145295Y-374328571D01*
X508145295Y-374328571D02*
X508335771Y-374376190D01*
X508335771Y-374376190D02*
X508573866Y-374376190D01*
X508573866Y-374376190D02*
X508764342Y-374328571D01*
X508764342Y-374328571D02*
X508859580Y-374280952D01*
X508859580Y-374280952D02*
X508907200Y-374233333D01*
X508907200Y-374233333D02*
X508954819Y-374138095D01*
X508954819Y-374138095D02*
X508954819Y-374042857D01*
X508954819Y-374042857D02*
X508907200Y-373947619D01*
X508907200Y-373947619D02*
X508859580Y-373900000D01*
X508859580Y-373900000D02*
X508764342Y-373852381D01*
X508764342Y-373852381D02*
X508573866Y-373804762D01*
X508573866Y-373804762D02*
X508335771Y-373804762D01*
X508335771Y-373804762D02*
X508145295Y-373852381D01*
X508145295Y-373852381D02*
X508050057Y-373900000D01*
X508050057Y-373900000D02*
X508002438Y-373947619D01*
X508002438Y-373947619D02*
X507954819Y-374042857D01*
X235131904Y-348114819D02*
X235131904Y-348924342D01*
X235131904Y-348924342D02*
X235084285Y-349019580D01*
X235084285Y-349019580D02*
X235036666Y-349067200D01*
X235036666Y-349067200D02*
X234941428Y-349114819D01*
X234941428Y-349114819D02*
X234750952Y-349114819D01*
X234750952Y-349114819D02*
X234655714Y-349067200D01*
X234655714Y-349067200D02*
X234608095Y-349019580D01*
X234608095Y-349019580D02*
X234560476Y-348924342D01*
X234560476Y-348924342D02*
X234560476Y-348114819D01*
X233655714Y-348448152D02*
X233655714Y-349114819D01*
X233893809Y-348067200D02*
X234131904Y-348781485D01*
X234131904Y-348781485D02*
X233512857Y-348781485D01*
X230728571Y-403954819D02*
X230728571Y-402954819D01*
X230728571Y-402954819D02*
X230490476Y-402954819D01*
X230490476Y-402954819D02*
X230347619Y-403002438D01*
X230347619Y-403002438D02*
X230252381Y-403097676D01*
X230252381Y-403097676D02*
X230204762Y-403192914D01*
X230204762Y-403192914D02*
X230157143Y-403383390D01*
X230157143Y-403383390D02*
X230157143Y-403526247D01*
X230157143Y-403526247D02*
X230204762Y-403716723D01*
X230204762Y-403716723D02*
X230252381Y-403811961D01*
X230252381Y-403811961D02*
X230347619Y-403907200D01*
X230347619Y-403907200D02*
X230490476Y-403954819D01*
X230490476Y-403954819D02*
X230728571Y-403954819D01*
X229728571Y-403954819D02*
X229728571Y-403288152D01*
X229728571Y-403478628D02*
X229680952Y-403383390D01*
X229680952Y-403383390D02*
X229633333Y-403335771D01*
X229633333Y-403335771D02*
X229538095Y-403288152D01*
X229538095Y-403288152D02*
X229442857Y-403288152D01*
X228680952Y-403288152D02*
X228680952Y-404097676D01*
X228680952Y-404097676D02*
X228728571Y-404192914D01*
X228728571Y-404192914D02*
X228776190Y-404240533D01*
X228776190Y-404240533D02*
X228871428Y-404288152D01*
X228871428Y-404288152D02*
X229014285Y-404288152D01*
X229014285Y-404288152D02*
X229109523Y-404240533D01*
X228680952Y-403907200D02*
X228776190Y-403954819D01*
X228776190Y-403954819D02*
X228966666Y-403954819D01*
X228966666Y-403954819D02*
X229061904Y-403907200D01*
X229061904Y-403907200D02*
X229109523Y-403859580D01*
X229109523Y-403859580D02*
X229157142Y-403764342D01*
X229157142Y-403764342D02*
X229157142Y-403478628D01*
X229157142Y-403478628D02*
X229109523Y-403383390D01*
X229109523Y-403383390D02*
X229061904Y-403335771D01*
X229061904Y-403335771D02*
X228966666Y-403288152D01*
X228966666Y-403288152D02*
X228776190Y-403288152D01*
X228776190Y-403288152D02*
X228680952Y-403335771D01*
X228204761Y-403954819D02*
X228204761Y-402954819D01*
X228204761Y-403335771D02*
X228109523Y-403288152D01*
X228109523Y-403288152D02*
X227919047Y-403288152D01*
X227919047Y-403288152D02*
X227823809Y-403335771D01*
X227823809Y-403335771D02*
X227776190Y-403383390D01*
X227776190Y-403383390D02*
X227728571Y-403478628D01*
X227728571Y-403478628D02*
X227728571Y-403764342D01*
X227728571Y-403764342D02*
X227776190Y-403859580D01*
X227776190Y-403859580D02*
X227823809Y-403907200D01*
X227823809Y-403907200D02*
X227919047Y-403954819D01*
X227919047Y-403954819D02*
X228109523Y-403954819D01*
X228109523Y-403954819D02*
X228204761Y-403907200D01*
X227347618Y-403050057D02*
X227299999Y-403002438D01*
X227299999Y-403002438D02*
X227204761Y-402954819D01*
X227204761Y-402954819D02*
X226966666Y-402954819D01*
X226966666Y-402954819D02*
X226871428Y-403002438D01*
X226871428Y-403002438D02*
X226823809Y-403050057D01*
X226823809Y-403050057D02*
X226776190Y-403145295D01*
X226776190Y-403145295D02*
X226776190Y-403240533D01*
X226776190Y-403240533D02*
X226823809Y-403383390D01*
X226823809Y-403383390D02*
X227395237Y-403954819D01*
X227395237Y-403954819D02*
X226776190Y-403954819D01*
X225823809Y-403954819D02*
X226395237Y-403954819D01*
X226109523Y-403954819D02*
X226109523Y-402954819D01*
X226109523Y-402954819D02*
X226204761Y-403097676D01*
X226204761Y-403097676D02*
X226299999Y-403192914D01*
X226299999Y-403192914D02*
X226395237Y-403240533D01*
X405228571Y-403954819D02*
X405228571Y-402954819D01*
X405228571Y-402954819D02*
X404990476Y-402954819D01*
X404990476Y-402954819D02*
X404847619Y-403002438D01*
X404847619Y-403002438D02*
X404752381Y-403097676D01*
X404752381Y-403097676D02*
X404704762Y-403192914D01*
X404704762Y-403192914D02*
X404657143Y-403383390D01*
X404657143Y-403383390D02*
X404657143Y-403526247D01*
X404657143Y-403526247D02*
X404704762Y-403716723D01*
X404704762Y-403716723D02*
X404752381Y-403811961D01*
X404752381Y-403811961D02*
X404847619Y-403907200D01*
X404847619Y-403907200D02*
X404990476Y-403954819D01*
X404990476Y-403954819D02*
X405228571Y-403954819D01*
X404228571Y-403954819D02*
X404228571Y-403288152D01*
X404228571Y-403478628D02*
X404180952Y-403383390D01*
X404180952Y-403383390D02*
X404133333Y-403335771D01*
X404133333Y-403335771D02*
X404038095Y-403288152D01*
X404038095Y-403288152D02*
X403942857Y-403288152D01*
X403180952Y-403288152D02*
X403180952Y-404097676D01*
X403180952Y-404097676D02*
X403228571Y-404192914D01*
X403228571Y-404192914D02*
X403276190Y-404240533D01*
X403276190Y-404240533D02*
X403371428Y-404288152D01*
X403371428Y-404288152D02*
X403514285Y-404288152D01*
X403514285Y-404288152D02*
X403609523Y-404240533D01*
X403180952Y-403907200D02*
X403276190Y-403954819D01*
X403276190Y-403954819D02*
X403466666Y-403954819D01*
X403466666Y-403954819D02*
X403561904Y-403907200D01*
X403561904Y-403907200D02*
X403609523Y-403859580D01*
X403609523Y-403859580D02*
X403657142Y-403764342D01*
X403657142Y-403764342D02*
X403657142Y-403478628D01*
X403657142Y-403478628D02*
X403609523Y-403383390D01*
X403609523Y-403383390D02*
X403561904Y-403335771D01*
X403561904Y-403335771D02*
X403466666Y-403288152D01*
X403466666Y-403288152D02*
X403276190Y-403288152D01*
X403276190Y-403288152D02*
X403180952Y-403335771D01*
X402704761Y-403954819D02*
X402704761Y-402954819D01*
X402704761Y-403335771D02*
X402609523Y-403288152D01*
X402609523Y-403288152D02*
X402419047Y-403288152D01*
X402419047Y-403288152D02*
X402323809Y-403335771D01*
X402323809Y-403335771D02*
X402276190Y-403383390D01*
X402276190Y-403383390D02*
X402228571Y-403478628D01*
X402228571Y-403478628D02*
X402228571Y-403764342D01*
X402228571Y-403764342D02*
X402276190Y-403859580D01*
X402276190Y-403859580D02*
X402323809Y-403907200D01*
X402323809Y-403907200D02*
X402419047Y-403954819D01*
X402419047Y-403954819D02*
X402609523Y-403954819D01*
X402609523Y-403954819D02*
X402704761Y-403907200D01*
X401276190Y-403954819D02*
X401847618Y-403954819D01*
X401561904Y-403954819D02*
X401561904Y-402954819D01*
X401561904Y-402954819D02*
X401657142Y-403097676D01*
X401657142Y-403097676D02*
X401752380Y-403192914D01*
X401752380Y-403192914D02*
X401847618Y-403240533D01*
X400371428Y-402954819D02*
X400847618Y-402954819D01*
X400847618Y-402954819D02*
X400895237Y-403431009D01*
X400895237Y-403431009D02*
X400847618Y-403383390D01*
X400847618Y-403383390D02*
X400752380Y-403335771D01*
X400752380Y-403335771D02*
X400514285Y-403335771D01*
X400514285Y-403335771D02*
X400419047Y-403383390D01*
X400419047Y-403383390D02*
X400371428Y-403431009D01*
X400371428Y-403431009D02*
X400323809Y-403526247D01*
X400323809Y-403526247D02*
X400323809Y-403764342D01*
X400323809Y-403764342D02*
X400371428Y-403859580D01*
X400371428Y-403859580D02*
X400419047Y-403907200D01*
X400419047Y-403907200D02*
X400514285Y-403954819D01*
X400514285Y-403954819D02*
X400752380Y-403954819D01*
X400752380Y-403954819D02*
X400847618Y-403907200D01*
X400847618Y-403907200D02*
X400895237Y-403859580D01*
X335428571Y-403354819D02*
X335428571Y-402354819D01*
X335428571Y-402354819D02*
X335190476Y-402354819D01*
X335190476Y-402354819D02*
X335047619Y-402402438D01*
X335047619Y-402402438D02*
X334952381Y-402497676D01*
X334952381Y-402497676D02*
X334904762Y-402592914D01*
X334904762Y-402592914D02*
X334857143Y-402783390D01*
X334857143Y-402783390D02*
X334857143Y-402926247D01*
X334857143Y-402926247D02*
X334904762Y-403116723D01*
X334904762Y-403116723D02*
X334952381Y-403211961D01*
X334952381Y-403211961D02*
X335047619Y-403307200D01*
X335047619Y-403307200D02*
X335190476Y-403354819D01*
X335190476Y-403354819D02*
X335428571Y-403354819D01*
X334428571Y-403354819D02*
X334428571Y-402688152D01*
X334428571Y-402878628D02*
X334380952Y-402783390D01*
X334380952Y-402783390D02*
X334333333Y-402735771D01*
X334333333Y-402735771D02*
X334238095Y-402688152D01*
X334238095Y-402688152D02*
X334142857Y-402688152D01*
X333380952Y-402688152D02*
X333380952Y-403497676D01*
X333380952Y-403497676D02*
X333428571Y-403592914D01*
X333428571Y-403592914D02*
X333476190Y-403640533D01*
X333476190Y-403640533D02*
X333571428Y-403688152D01*
X333571428Y-403688152D02*
X333714285Y-403688152D01*
X333714285Y-403688152D02*
X333809523Y-403640533D01*
X333380952Y-403307200D02*
X333476190Y-403354819D01*
X333476190Y-403354819D02*
X333666666Y-403354819D01*
X333666666Y-403354819D02*
X333761904Y-403307200D01*
X333761904Y-403307200D02*
X333809523Y-403259580D01*
X333809523Y-403259580D02*
X333857142Y-403164342D01*
X333857142Y-403164342D02*
X333857142Y-402878628D01*
X333857142Y-402878628D02*
X333809523Y-402783390D01*
X333809523Y-402783390D02*
X333761904Y-402735771D01*
X333761904Y-402735771D02*
X333666666Y-402688152D01*
X333666666Y-402688152D02*
X333476190Y-402688152D01*
X333476190Y-402688152D02*
X333380952Y-402735771D01*
X332904761Y-403354819D02*
X332904761Y-402354819D01*
X332904761Y-402735771D02*
X332809523Y-402688152D01*
X332809523Y-402688152D02*
X332619047Y-402688152D01*
X332619047Y-402688152D02*
X332523809Y-402735771D01*
X332523809Y-402735771D02*
X332476190Y-402783390D01*
X332476190Y-402783390D02*
X332428571Y-402878628D01*
X332428571Y-402878628D02*
X332428571Y-403164342D01*
X332428571Y-403164342D02*
X332476190Y-403259580D01*
X332476190Y-403259580D02*
X332523809Y-403307200D01*
X332523809Y-403307200D02*
X332619047Y-403354819D01*
X332619047Y-403354819D02*
X332809523Y-403354819D01*
X332809523Y-403354819D02*
X332904761Y-403307200D01*
X331476190Y-403354819D02*
X332047618Y-403354819D01*
X331761904Y-403354819D02*
X331761904Y-402354819D01*
X331761904Y-402354819D02*
X331857142Y-402497676D01*
X331857142Y-402497676D02*
X331952380Y-402592914D01*
X331952380Y-402592914D02*
X332047618Y-402640533D01*
X330904761Y-402783390D02*
X330999999Y-402735771D01*
X330999999Y-402735771D02*
X331047618Y-402688152D01*
X331047618Y-402688152D02*
X331095237Y-402592914D01*
X331095237Y-402592914D02*
X331095237Y-402545295D01*
X331095237Y-402545295D02*
X331047618Y-402450057D01*
X331047618Y-402450057D02*
X330999999Y-402402438D01*
X330999999Y-402402438D02*
X330904761Y-402354819D01*
X330904761Y-402354819D02*
X330714285Y-402354819D01*
X330714285Y-402354819D02*
X330619047Y-402402438D01*
X330619047Y-402402438D02*
X330571428Y-402450057D01*
X330571428Y-402450057D02*
X330523809Y-402545295D01*
X330523809Y-402545295D02*
X330523809Y-402592914D01*
X330523809Y-402592914D02*
X330571428Y-402688152D01*
X330571428Y-402688152D02*
X330619047Y-402735771D01*
X330619047Y-402735771D02*
X330714285Y-402783390D01*
X330714285Y-402783390D02*
X330904761Y-402783390D01*
X330904761Y-402783390D02*
X330999999Y-402831009D01*
X330999999Y-402831009D02*
X331047618Y-402878628D01*
X331047618Y-402878628D02*
X331095237Y-402973866D01*
X331095237Y-402973866D02*
X331095237Y-403164342D01*
X331095237Y-403164342D02*
X331047618Y-403259580D01*
X331047618Y-403259580D02*
X330999999Y-403307200D01*
X330999999Y-403307200D02*
X330904761Y-403354819D01*
X330904761Y-403354819D02*
X330714285Y-403354819D01*
X330714285Y-403354819D02*
X330619047Y-403307200D01*
X330619047Y-403307200D02*
X330571428Y-403259580D01*
X330571428Y-403259580D02*
X330523809Y-403164342D01*
X330523809Y-403164342D02*
X330523809Y-402973866D01*
X330523809Y-402973866D02*
X330571428Y-402878628D01*
X330571428Y-402878628D02*
X330619047Y-402831009D01*
X330619047Y-402831009D02*
X330714285Y-402783390D01*
X440128571Y-403954819D02*
X440128571Y-402954819D01*
X440128571Y-402954819D02*
X439890476Y-402954819D01*
X439890476Y-402954819D02*
X439747619Y-403002438D01*
X439747619Y-403002438D02*
X439652381Y-403097676D01*
X439652381Y-403097676D02*
X439604762Y-403192914D01*
X439604762Y-403192914D02*
X439557143Y-403383390D01*
X439557143Y-403383390D02*
X439557143Y-403526247D01*
X439557143Y-403526247D02*
X439604762Y-403716723D01*
X439604762Y-403716723D02*
X439652381Y-403811961D01*
X439652381Y-403811961D02*
X439747619Y-403907200D01*
X439747619Y-403907200D02*
X439890476Y-403954819D01*
X439890476Y-403954819D02*
X440128571Y-403954819D01*
X439128571Y-403954819D02*
X439128571Y-403288152D01*
X439128571Y-403478628D02*
X439080952Y-403383390D01*
X439080952Y-403383390D02*
X439033333Y-403335771D01*
X439033333Y-403335771D02*
X438938095Y-403288152D01*
X438938095Y-403288152D02*
X438842857Y-403288152D01*
X438080952Y-403288152D02*
X438080952Y-404097676D01*
X438080952Y-404097676D02*
X438128571Y-404192914D01*
X438128571Y-404192914D02*
X438176190Y-404240533D01*
X438176190Y-404240533D02*
X438271428Y-404288152D01*
X438271428Y-404288152D02*
X438414285Y-404288152D01*
X438414285Y-404288152D02*
X438509523Y-404240533D01*
X438080952Y-403907200D02*
X438176190Y-403954819D01*
X438176190Y-403954819D02*
X438366666Y-403954819D01*
X438366666Y-403954819D02*
X438461904Y-403907200D01*
X438461904Y-403907200D02*
X438509523Y-403859580D01*
X438509523Y-403859580D02*
X438557142Y-403764342D01*
X438557142Y-403764342D02*
X438557142Y-403478628D01*
X438557142Y-403478628D02*
X438509523Y-403383390D01*
X438509523Y-403383390D02*
X438461904Y-403335771D01*
X438461904Y-403335771D02*
X438366666Y-403288152D01*
X438366666Y-403288152D02*
X438176190Y-403288152D01*
X438176190Y-403288152D02*
X438080952Y-403335771D01*
X437604761Y-403954819D02*
X437604761Y-402954819D01*
X437604761Y-403335771D02*
X437509523Y-403288152D01*
X437509523Y-403288152D02*
X437319047Y-403288152D01*
X437319047Y-403288152D02*
X437223809Y-403335771D01*
X437223809Y-403335771D02*
X437176190Y-403383390D01*
X437176190Y-403383390D02*
X437128571Y-403478628D01*
X437128571Y-403478628D02*
X437128571Y-403764342D01*
X437128571Y-403764342D02*
X437176190Y-403859580D01*
X437176190Y-403859580D02*
X437223809Y-403907200D01*
X437223809Y-403907200D02*
X437319047Y-403954819D01*
X437319047Y-403954819D02*
X437509523Y-403954819D01*
X437509523Y-403954819D02*
X437604761Y-403907200D01*
X436176190Y-403954819D02*
X436747618Y-403954819D01*
X436461904Y-403954819D02*
X436461904Y-402954819D01*
X436461904Y-402954819D02*
X436557142Y-403097676D01*
X436557142Y-403097676D02*
X436652380Y-403192914D01*
X436652380Y-403192914D02*
X436747618Y-403240533D01*
X435319047Y-403288152D02*
X435319047Y-403954819D01*
X435557142Y-402907200D02*
X435795237Y-403621485D01*
X435795237Y-403621485D02*
X435176190Y-403621485D01*
X479128571Y-403954819D02*
X479128571Y-402954819D01*
X479128571Y-402954819D02*
X478890476Y-402954819D01*
X478890476Y-402954819D02*
X478747619Y-403002438D01*
X478747619Y-403002438D02*
X478652381Y-403097676D01*
X478652381Y-403097676D02*
X478604762Y-403192914D01*
X478604762Y-403192914D02*
X478557143Y-403383390D01*
X478557143Y-403383390D02*
X478557143Y-403526247D01*
X478557143Y-403526247D02*
X478604762Y-403716723D01*
X478604762Y-403716723D02*
X478652381Y-403811961D01*
X478652381Y-403811961D02*
X478747619Y-403907200D01*
X478747619Y-403907200D02*
X478890476Y-403954819D01*
X478890476Y-403954819D02*
X479128571Y-403954819D01*
X478128571Y-403954819D02*
X478128571Y-403288152D01*
X478128571Y-403478628D02*
X478080952Y-403383390D01*
X478080952Y-403383390D02*
X478033333Y-403335771D01*
X478033333Y-403335771D02*
X477938095Y-403288152D01*
X477938095Y-403288152D02*
X477842857Y-403288152D01*
X477080952Y-403288152D02*
X477080952Y-404097676D01*
X477080952Y-404097676D02*
X477128571Y-404192914D01*
X477128571Y-404192914D02*
X477176190Y-404240533D01*
X477176190Y-404240533D02*
X477271428Y-404288152D01*
X477271428Y-404288152D02*
X477414285Y-404288152D01*
X477414285Y-404288152D02*
X477509523Y-404240533D01*
X477080952Y-403907200D02*
X477176190Y-403954819D01*
X477176190Y-403954819D02*
X477366666Y-403954819D01*
X477366666Y-403954819D02*
X477461904Y-403907200D01*
X477461904Y-403907200D02*
X477509523Y-403859580D01*
X477509523Y-403859580D02*
X477557142Y-403764342D01*
X477557142Y-403764342D02*
X477557142Y-403478628D01*
X477557142Y-403478628D02*
X477509523Y-403383390D01*
X477509523Y-403383390D02*
X477461904Y-403335771D01*
X477461904Y-403335771D02*
X477366666Y-403288152D01*
X477366666Y-403288152D02*
X477176190Y-403288152D01*
X477176190Y-403288152D02*
X477080952Y-403335771D01*
X476604761Y-403954819D02*
X476604761Y-402954819D01*
X476604761Y-403335771D02*
X476509523Y-403288152D01*
X476509523Y-403288152D02*
X476319047Y-403288152D01*
X476319047Y-403288152D02*
X476223809Y-403335771D01*
X476223809Y-403335771D02*
X476176190Y-403383390D01*
X476176190Y-403383390D02*
X476128571Y-403478628D01*
X476128571Y-403478628D02*
X476128571Y-403764342D01*
X476128571Y-403764342D02*
X476176190Y-403859580D01*
X476176190Y-403859580D02*
X476223809Y-403907200D01*
X476223809Y-403907200D02*
X476319047Y-403954819D01*
X476319047Y-403954819D02*
X476509523Y-403954819D01*
X476509523Y-403954819D02*
X476604761Y-403907200D01*
X475176190Y-403954819D02*
X475747618Y-403954819D01*
X475461904Y-403954819D02*
X475461904Y-402954819D01*
X475461904Y-402954819D02*
X475557142Y-403097676D01*
X475557142Y-403097676D02*
X475652380Y-403192914D01*
X475652380Y-403192914D02*
X475747618Y-403240533D01*
X474842856Y-402954819D02*
X474223809Y-402954819D01*
X474223809Y-402954819D02*
X474557142Y-403335771D01*
X474557142Y-403335771D02*
X474414285Y-403335771D01*
X474414285Y-403335771D02*
X474319047Y-403383390D01*
X474319047Y-403383390D02*
X474271428Y-403431009D01*
X474271428Y-403431009D02*
X474223809Y-403526247D01*
X474223809Y-403526247D02*
X474223809Y-403764342D01*
X474223809Y-403764342D02*
X474271428Y-403859580D01*
X474271428Y-403859580D02*
X474319047Y-403907200D01*
X474319047Y-403907200D02*
X474414285Y-403954819D01*
X474414285Y-403954819D02*
X474699999Y-403954819D01*
X474699999Y-403954819D02*
X474795237Y-403907200D01*
X474795237Y-403907200D02*
X474842856Y-403859580D01*
X300528571Y-403954819D02*
X300528571Y-402954819D01*
X300528571Y-402954819D02*
X300290476Y-402954819D01*
X300290476Y-402954819D02*
X300147619Y-403002438D01*
X300147619Y-403002438D02*
X300052381Y-403097676D01*
X300052381Y-403097676D02*
X300004762Y-403192914D01*
X300004762Y-403192914D02*
X299957143Y-403383390D01*
X299957143Y-403383390D02*
X299957143Y-403526247D01*
X299957143Y-403526247D02*
X300004762Y-403716723D01*
X300004762Y-403716723D02*
X300052381Y-403811961D01*
X300052381Y-403811961D02*
X300147619Y-403907200D01*
X300147619Y-403907200D02*
X300290476Y-403954819D01*
X300290476Y-403954819D02*
X300528571Y-403954819D01*
X299528571Y-403954819D02*
X299528571Y-403288152D01*
X299528571Y-403478628D02*
X299480952Y-403383390D01*
X299480952Y-403383390D02*
X299433333Y-403335771D01*
X299433333Y-403335771D02*
X299338095Y-403288152D01*
X299338095Y-403288152D02*
X299242857Y-403288152D01*
X298480952Y-403288152D02*
X298480952Y-404097676D01*
X298480952Y-404097676D02*
X298528571Y-404192914D01*
X298528571Y-404192914D02*
X298576190Y-404240533D01*
X298576190Y-404240533D02*
X298671428Y-404288152D01*
X298671428Y-404288152D02*
X298814285Y-404288152D01*
X298814285Y-404288152D02*
X298909523Y-404240533D01*
X298480952Y-403907200D02*
X298576190Y-403954819D01*
X298576190Y-403954819D02*
X298766666Y-403954819D01*
X298766666Y-403954819D02*
X298861904Y-403907200D01*
X298861904Y-403907200D02*
X298909523Y-403859580D01*
X298909523Y-403859580D02*
X298957142Y-403764342D01*
X298957142Y-403764342D02*
X298957142Y-403478628D01*
X298957142Y-403478628D02*
X298909523Y-403383390D01*
X298909523Y-403383390D02*
X298861904Y-403335771D01*
X298861904Y-403335771D02*
X298766666Y-403288152D01*
X298766666Y-403288152D02*
X298576190Y-403288152D01*
X298576190Y-403288152D02*
X298480952Y-403335771D01*
X298004761Y-403954819D02*
X298004761Y-402954819D01*
X298004761Y-403335771D02*
X297909523Y-403288152D01*
X297909523Y-403288152D02*
X297719047Y-403288152D01*
X297719047Y-403288152D02*
X297623809Y-403335771D01*
X297623809Y-403335771D02*
X297576190Y-403383390D01*
X297576190Y-403383390D02*
X297528571Y-403478628D01*
X297528571Y-403478628D02*
X297528571Y-403764342D01*
X297528571Y-403764342D02*
X297576190Y-403859580D01*
X297576190Y-403859580D02*
X297623809Y-403907200D01*
X297623809Y-403907200D02*
X297719047Y-403954819D01*
X297719047Y-403954819D02*
X297909523Y-403954819D01*
X297909523Y-403954819D02*
X298004761Y-403907200D01*
X296576190Y-403954819D02*
X297147618Y-403954819D01*
X296861904Y-403954819D02*
X296861904Y-402954819D01*
X296861904Y-402954819D02*
X296957142Y-403097676D01*
X296957142Y-403097676D02*
X297052380Y-403192914D01*
X297052380Y-403192914D02*
X297147618Y-403240533D01*
X296099999Y-403954819D02*
X295909523Y-403954819D01*
X295909523Y-403954819D02*
X295814285Y-403907200D01*
X295814285Y-403907200D02*
X295766666Y-403859580D01*
X295766666Y-403859580D02*
X295671428Y-403716723D01*
X295671428Y-403716723D02*
X295623809Y-403526247D01*
X295623809Y-403526247D02*
X295623809Y-403145295D01*
X295623809Y-403145295D02*
X295671428Y-403050057D01*
X295671428Y-403050057D02*
X295719047Y-403002438D01*
X295719047Y-403002438D02*
X295814285Y-402954819D01*
X295814285Y-402954819D02*
X296004761Y-402954819D01*
X296004761Y-402954819D02*
X296099999Y-403002438D01*
X296099999Y-403002438D02*
X296147618Y-403050057D01*
X296147618Y-403050057D02*
X296195237Y-403145295D01*
X296195237Y-403145295D02*
X296195237Y-403383390D01*
X296195237Y-403383390D02*
X296147618Y-403478628D01*
X296147618Y-403478628D02*
X296099999Y-403526247D01*
X296099999Y-403526247D02*
X296004761Y-403573866D01*
X296004761Y-403573866D02*
X295814285Y-403573866D01*
X295814285Y-403573866D02*
X295719047Y-403526247D01*
X295719047Y-403526247D02*
X295671428Y-403478628D01*
X295671428Y-403478628D02*
X295623809Y-403383390D01*
X439152380Y-340954819D02*
X439152380Y-339954819D01*
X439152380Y-339954819D02*
X438914285Y-339954819D01*
X438914285Y-339954819D02*
X438771428Y-340002438D01*
X438771428Y-340002438D02*
X438676190Y-340097676D01*
X438676190Y-340097676D02*
X438628571Y-340192914D01*
X438628571Y-340192914D02*
X438580952Y-340383390D01*
X438580952Y-340383390D02*
X438580952Y-340526247D01*
X438580952Y-340526247D02*
X438628571Y-340716723D01*
X438628571Y-340716723D02*
X438676190Y-340811961D01*
X438676190Y-340811961D02*
X438771428Y-340907200D01*
X438771428Y-340907200D02*
X438914285Y-340954819D01*
X438914285Y-340954819D02*
X439152380Y-340954819D01*
X438152380Y-340954819D02*
X438152380Y-340288152D01*
X438152380Y-340478628D02*
X438104761Y-340383390D01*
X438104761Y-340383390D02*
X438057142Y-340335771D01*
X438057142Y-340335771D02*
X437961904Y-340288152D01*
X437961904Y-340288152D02*
X437866666Y-340288152D01*
X437104761Y-340288152D02*
X437104761Y-341097676D01*
X437104761Y-341097676D02*
X437152380Y-341192914D01*
X437152380Y-341192914D02*
X437199999Y-341240533D01*
X437199999Y-341240533D02*
X437295237Y-341288152D01*
X437295237Y-341288152D02*
X437438094Y-341288152D01*
X437438094Y-341288152D02*
X437533332Y-341240533D01*
X437104761Y-340907200D02*
X437199999Y-340954819D01*
X437199999Y-340954819D02*
X437390475Y-340954819D01*
X437390475Y-340954819D02*
X437485713Y-340907200D01*
X437485713Y-340907200D02*
X437533332Y-340859580D01*
X437533332Y-340859580D02*
X437580951Y-340764342D01*
X437580951Y-340764342D02*
X437580951Y-340478628D01*
X437580951Y-340478628D02*
X437533332Y-340383390D01*
X437533332Y-340383390D02*
X437485713Y-340335771D01*
X437485713Y-340335771D02*
X437390475Y-340288152D01*
X437390475Y-340288152D02*
X437199999Y-340288152D01*
X437199999Y-340288152D02*
X437104761Y-340335771D01*
X436628570Y-340954819D02*
X436628570Y-339954819D01*
X436628570Y-340335771D02*
X436533332Y-340288152D01*
X436533332Y-340288152D02*
X436342856Y-340288152D01*
X436342856Y-340288152D02*
X436247618Y-340335771D01*
X436247618Y-340335771D02*
X436199999Y-340383390D01*
X436199999Y-340383390D02*
X436152380Y-340478628D01*
X436152380Y-340478628D02*
X436152380Y-340764342D01*
X436152380Y-340764342D02*
X436199999Y-340859580D01*
X436199999Y-340859580D02*
X436247618Y-340907200D01*
X436247618Y-340907200D02*
X436342856Y-340954819D01*
X436342856Y-340954819D02*
X436533332Y-340954819D01*
X436533332Y-340954819D02*
X436628570Y-340907200D01*
X435295237Y-339954819D02*
X435485713Y-339954819D01*
X435485713Y-339954819D02*
X435580951Y-340002438D01*
X435580951Y-340002438D02*
X435628570Y-340050057D01*
X435628570Y-340050057D02*
X435723808Y-340192914D01*
X435723808Y-340192914D02*
X435771427Y-340383390D01*
X435771427Y-340383390D02*
X435771427Y-340764342D01*
X435771427Y-340764342D02*
X435723808Y-340859580D01*
X435723808Y-340859580D02*
X435676189Y-340907200D01*
X435676189Y-340907200D02*
X435580951Y-340954819D01*
X435580951Y-340954819D02*
X435390475Y-340954819D01*
X435390475Y-340954819D02*
X435295237Y-340907200D01*
X435295237Y-340907200D02*
X435247618Y-340859580D01*
X435247618Y-340859580D02*
X435199999Y-340764342D01*
X435199999Y-340764342D02*
X435199999Y-340526247D01*
X435199999Y-340526247D02*
X435247618Y-340431009D01*
X435247618Y-340431009D02*
X435295237Y-340383390D01*
X435295237Y-340383390D02*
X435390475Y-340335771D01*
X435390475Y-340335771D02*
X435580951Y-340335771D01*
X435580951Y-340335771D02*
X435676189Y-340383390D01*
X435676189Y-340383390D02*
X435723808Y-340431009D01*
X435723808Y-340431009D02*
X435771427Y-340526247D01*
X509954819Y-388471428D02*
X508954819Y-388471428D01*
X508954819Y-388471428D02*
X508954819Y-388709523D01*
X508954819Y-388709523D02*
X509002438Y-388852380D01*
X509002438Y-388852380D02*
X509097676Y-388947618D01*
X509097676Y-388947618D02*
X509192914Y-388995237D01*
X509192914Y-388995237D02*
X509383390Y-389042856D01*
X509383390Y-389042856D02*
X509526247Y-389042856D01*
X509526247Y-389042856D02*
X509716723Y-388995237D01*
X509716723Y-388995237D02*
X509811961Y-388947618D01*
X509811961Y-388947618D02*
X509907200Y-388852380D01*
X509907200Y-388852380D02*
X509954819Y-388709523D01*
X509954819Y-388709523D02*
X509954819Y-388471428D01*
X509954819Y-389471428D02*
X509288152Y-389471428D01*
X509478628Y-389471428D02*
X509383390Y-389519047D01*
X509383390Y-389519047D02*
X509335771Y-389566666D01*
X509335771Y-389566666D02*
X509288152Y-389661904D01*
X509288152Y-389661904D02*
X509288152Y-389757142D01*
X509288152Y-390519047D02*
X510097676Y-390519047D01*
X510097676Y-390519047D02*
X510192914Y-390471428D01*
X510192914Y-390471428D02*
X510240533Y-390423809D01*
X510240533Y-390423809D02*
X510288152Y-390328571D01*
X510288152Y-390328571D02*
X510288152Y-390185714D01*
X510288152Y-390185714D02*
X510240533Y-390090476D01*
X509907200Y-390519047D02*
X509954819Y-390423809D01*
X509954819Y-390423809D02*
X509954819Y-390233333D01*
X509954819Y-390233333D02*
X509907200Y-390138095D01*
X509907200Y-390138095D02*
X509859580Y-390090476D01*
X509859580Y-390090476D02*
X509764342Y-390042857D01*
X509764342Y-390042857D02*
X509478628Y-390042857D01*
X509478628Y-390042857D02*
X509383390Y-390090476D01*
X509383390Y-390090476D02*
X509335771Y-390138095D01*
X509335771Y-390138095D02*
X509288152Y-390233333D01*
X509288152Y-390233333D02*
X509288152Y-390423809D01*
X509288152Y-390423809D02*
X509335771Y-390519047D01*
X509954819Y-390995238D02*
X508954819Y-390995238D01*
X509335771Y-390995238D02*
X509288152Y-391090476D01*
X509288152Y-391090476D02*
X509288152Y-391280952D01*
X509288152Y-391280952D02*
X509335771Y-391376190D01*
X509335771Y-391376190D02*
X509383390Y-391423809D01*
X509383390Y-391423809D02*
X509478628Y-391471428D01*
X509478628Y-391471428D02*
X509764342Y-391471428D01*
X509764342Y-391471428D02*
X509859580Y-391423809D01*
X509859580Y-391423809D02*
X509907200Y-391376190D01*
X509907200Y-391376190D02*
X509954819Y-391280952D01*
X509954819Y-391280952D02*
X509954819Y-391090476D01*
X509954819Y-391090476D02*
X509907200Y-390995238D01*
X509954819Y-392423809D02*
X509954819Y-391852381D01*
X509954819Y-392138095D02*
X508954819Y-392138095D01*
X508954819Y-392138095D02*
X509097676Y-392042857D01*
X509097676Y-392042857D02*
X509192914Y-391947619D01*
X509192914Y-391947619D02*
X509240533Y-391852381D01*
X509954819Y-393376190D02*
X509954819Y-392804762D01*
X509954819Y-393090476D02*
X508954819Y-393090476D01*
X508954819Y-393090476D02*
X509097676Y-392995238D01*
X509097676Y-392995238D02*
X509192914Y-392900000D01*
X509192914Y-392900000D02*
X509240533Y-392804762D01*
X404252380Y-340954819D02*
X404252380Y-339954819D01*
X404252380Y-339954819D02*
X404014285Y-339954819D01*
X404014285Y-339954819D02*
X403871428Y-340002438D01*
X403871428Y-340002438D02*
X403776190Y-340097676D01*
X403776190Y-340097676D02*
X403728571Y-340192914D01*
X403728571Y-340192914D02*
X403680952Y-340383390D01*
X403680952Y-340383390D02*
X403680952Y-340526247D01*
X403680952Y-340526247D02*
X403728571Y-340716723D01*
X403728571Y-340716723D02*
X403776190Y-340811961D01*
X403776190Y-340811961D02*
X403871428Y-340907200D01*
X403871428Y-340907200D02*
X404014285Y-340954819D01*
X404014285Y-340954819D02*
X404252380Y-340954819D01*
X403252380Y-340954819D02*
X403252380Y-340288152D01*
X403252380Y-340478628D02*
X403204761Y-340383390D01*
X403204761Y-340383390D02*
X403157142Y-340335771D01*
X403157142Y-340335771D02*
X403061904Y-340288152D01*
X403061904Y-340288152D02*
X402966666Y-340288152D01*
X402204761Y-340288152D02*
X402204761Y-341097676D01*
X402204761Y-341097676D02*
X402252380Y-341192914D01*
X402252380Y-341192914D02*
X402299999Y-341240533D01*
X402299999Y-341240533D02*
X402395237Y-341288152D01*
X402395237Y-341288152D02*
X402538094Y-341288152D01*
X402538094Y-341288152D02*
X402633332Y-341240533D01*
X402204761Y-340907200D02*
X402299999Y-340954819D01*
X402299999Y-340954819D02*
X402490475Y-340954819D01*
X402490475Y-340954819D02*
X402585713Y-340907200D01*
X402585713Y-340907200D02*
X402633332Y-340859580D01*
X402633332Y-340859580D02*
X402680951Y-340764342D01*
X402680951Y-340764342D02*
X402680951Y-340478628D01*
X402680951Y-340478628D02*
X402633332Y-340383390D01*
X402633332Y-340383390D02*
X402585713Y-340335771D01*
X402585713Y-340335771D02*
X402490475Y-340288152D01*
X402490475Y-340288152D02*
X402299999Y-340288152D01*
X402299999Y-340288152D02*
X402204761Y-340335771D01*
X401728570Y-340954819D02*
X401728570Y-339954819D01*
X401728570Y-340335771D02*
X401633332Y-340288152D01*
X401633332Y-340288152D02*
X401442856Y-340288152D01*
X401442856Y-340288152D02*
X401347618Y-340335771D01*
X401347618Y-340335771D02*
X401299999Y-340383390D01*
X401299999Y-340383390D02*
X401252380Y-340478628D01*
X401252380Y-340478628D02*
X401252380Y-340764342D01*
X401252380Y-340764342D02*
X401299999Y-340859580D01*
X401299999Y-340859580D02*
X401347618Y-340907200D01*
X401347618Y-340907200D02*
X401442856Y-340954819D01*
X401442856Y-340954819D02*
X401633332Y-340954819D01*
X401633332Y-340954819D02*
X401728570Y-340907200D01*
X400347618Y-339954819D02*
X400823808Y-339954819D01*
X400823808Y-339954819D02*
X400871427Y-340431009D01*
X400871427Y-340431009D02*
X400823808Y-340383390D01*
X400823808Y-340383390D02*
X400728570Y-340335771D01*
X400728570Y-340335771D02*
X400490475Y-340335771D01*
X400490475Y-340335771D02*
X400395237Y-340383390D01*
X400395237Y-340383390D02*
X400347618Y-340431009D01*
X400347618Y-340431009D02*
X400299999Y-340526247D01*
X400299999Y-340526247D02*
X400299999Y-340764342D01*
X400299999Y-340764342D02*
X400347618Y-340859580D01*
X400347618Y-340859580D02*
X400395237Y-340907200D01*
X400395237Y-340907200D02*
X400490475Y-340954819D01*
X400490475Y-340954819D02*
X400728570Y-340954819D01*
X400728570Y-340954819D02*
X400823808Y-340907200D01*
X400823808Y-340907200D02*
X400871427Y-340859580D01*
X334452380Y-340954819D02*
X334452380Y-339954819D01*
X334452380Y-339954819D02*
X334214285Y-339954819D01*
X334214285Y-339954819D02*
X334071428Y-340002438D01*
X334071428Y-340002438D02*
X333976190Y-340097676D01*
X333976190Y-340097676D02*
X333928571Y-340192914D01*
X333928571Y-340192914D02*
X333880952Y-340383390D01*
X333880952Y-340383390D02*
X333880952Y-340526247D01*
X333880952Y-340526247D02*
X333928571Y-340716723D01*
X333928571Y-340716723D02*
X333976190Y-340811961D01*
X333976190Y-340811961D02*
X334071428Y-340907200D01*
X334071428Y-340907200D02*
X334214285Y-340954819D01*
X334214285Y-340954819D02*
X334452380Y-340954819D01*
X333452380Y-340954819D02*
X333452380Y-340288152D01*
X333452380Y-340478628D02*
X333404761Y-340383390D01*
X333404761Y-340383390D02*
X333357142Y-340335771D01*
X333357142Y-340335771D02*
X333261904Y-340288152D01*
X333261904Y-340288152D02*
X333166666Y-340288152D01*
X332404761Y-340288152D02*
X332404761Y-341097676D01*
X332404761Y-341097676D02*
X332452380Y-341192914D01*
X332452380Y-341192914D02*
X332499999Y-341240533D01*
X332499999Y-341240533D02*
X332595237Y-341288152D01*
X332595237Y-341288152D02*
X332738094Y-341288152D01*
X332738094Y-341288152D02*
X332833332Y-341240533D01*
X332404761Y-340907200D02*
X332499999Y-340954819D01*
X332499999Y-340954819D02*
X332690475Y-340954819D01*
X332690475Y-340954819D02*
X332785713Y-340907200D01*
X332785713Y-340907200D02*
X332833332Y-340859580D01*
X332833332Y-340859580D02*
X332880951Y-340764342D01*
X332880951Y-340764342D02*
X332880951Y-340478628D01*
X332880951Y-340478628D02*
X332833332Y-340383390D01*
X332833332Y-340383390D02*
X332785713Y-340335771D01*
X332785713Y-340335771D02*
X332690475Y-340288152D01*
X332690475Y-340288152D02*
X332499999Y-340288152D01*
X332499999Y-340288152D02*
X332404761Y-340335771D01*
X331928570Y-340954819D02*
X331928570Y-339954819D01*
X331928570Y-340335771D02*
X331833332Y-340288152D01*
X331833332Y-340288152D02*
X331642856Y-340288152D01*
X331642856Y-340288152D02*
X331547618Y-340335771D01*
X331547618Y-340335771D02*
X331499999Y-340383390D01*
X331499999Y-340383390D02*
X331452380Y-340478628D01*
X331452380Y-340478628D02*
X331452380Y-340764342D01*
X331452380Y-340764342D02*
X331499999Y-340859580D01*
X331499999Y-340859580D02*
X331547618Y-340907200D01*
X331547618Y-340907200D02*
X331642856Y-340954819D01*
X331642856Y-340954819D02*
X331833332Y-340954819D01*
X331833332Y-340954819D02*
X331928570Y-340907200D01*
X331119046Y-339954819D02*
X330499999Y-339954819D01*
X330499999Y-339954819D02*
X330833332Y-340335771D01*
X330833332Y-340335771D02*
X330690475Y-340335771D01*
X330690475Y-340335771D02*
X330595237Y-340383390D01*
X330595237Y-340383390D02*
X330547618Y-340431009D01*
X330547618Y-340431009D02*
X330499999Y-340526247D01*
X330499999Y-340526247D02*
X330499999Y-340764342D01*
X330499999Y-340764342D02*
X330547618Y-340859580D01*
X330547618Y-340859580D02*
X330595237Y-340907200D01*
X330595237Y-340907200D02*
X330690475Y-340954819D01*
X330690475Y-340954819D02*
X330976189Y-340954819D01*
X330976189Y-340954819D02*
X331071427Y-340907200D01*
X331071427Y-340907200D02*
X331119046Y-340859580D01*
X226254819Y-369471428D02*
X225254819Y-369471428D01*
X225254819Y-369471428D02*
X225254819Y-369709523D01*
X225254819Y-369709523D02*
X225302438Y-369852380D01*
X225302438Y-369852380D02*
X225397676Y-369947618D01*
X225397676Y-369947618D02*
X225492914Y-369995237D01*
X225492914Y-369995237D02*
X225683390Y-370042856D01*
X225683390Y-370042856D02*
X225826247Y-370042856D01*
X225826247Y-370042856D02*
X226016723Y-369995237D01*
X226016723Y-369995237D02*
X226111961Y-369947618D01*
X226111961Y-369947618D02*
X226207200Y-369852380D01*
X226207200Y-369852380D02*
X226254819Y-369709523D01*
X226254819Y-369709523D02*
X226254819Y-369471428D01*
X226254819Y-370471428D02*
X225588152Y-370471428D01*
X225778628Y-370471428D02*
X225683390Y-370519047D01*
X225683390Y-370519047D02*
X225635771Y-370566666D01*
X225635771Y-370566666D02*
X225588152Y-370661904D01*
X225588152Y-370661904D02*
X225588152Y-370757142D01*
X225588152Y-371519047D02*
X226397676Y-371519047D01*
X226397676Y-371519047D02*
X226492914Y-371471428D01*
X226492914Y-371471428D02*
X226540533Y-371423809D01*
X226540533Y-371423809D02*
X226588152Y-371328571D01*
X226588152Y-371328571D02*
X226588152Y-371185714D01*
X226588152Y-371185714D02*
X226540533Y-371090476D01*
X226207200Y-371519047D02*
X226254819Y-371423809D01*
X226254819Y-371423809D02*
X226254819Y-371233333D01*
X226254819Y-371233333D02*
X226207200Y-371138095D01*
X226207200Y-371138095D02*
X226159580Y-371090476D01*
X226159580Y-371090476D02*
X226064342Y-371042857D01*
X226064342Y-371042857D02*
X225778628Y-371042857D01*
X225778628Y-371042857D02*
X225683390Y-371090476D01*
X225683390Y-371090476D02*
X225635771Y-371138095D01*
X225635771Y-371138095D02*
X225588152Y-371233333D01*
X225588152Y-371233333D02*
X225588152Y-371423809D01*
X225588152Y-371423809D02*
X225635771Y-371519047D01*
X226254819Y-371995238D02*
X225254819Y-371995238D01*
X225635771Y-371995238D02*
X225588152Y-372090476D01*
X225588152Y-372090476D02*
X225588152Y-372280952D01*
X225588152Y-372280952D02*
X225635771Y-372376190D01*
X225635771Y-372376190D02*
X225683390Y-372423809D01*
X225683390Y-372423809D02*
X225778628Y-372471428D01*
X225778628Y-372471428D02*
X226064342Y-372471428D01*
X226064342Y-372471428D02*
X226159580Y-372423809D01*
X226159580Y-372423809D02*
X226207200Y-372376190D01*
X226207200Y-372376190D02*
X226254819Y-372280952D01*
X226254819Y-372280952D02*
X226254819Y-372090476D01*
X226254819Y-372090476D02*
X226207200Y-371995238D01*
X225350057Y-372852381D02*
X225302438Y-372900000D01*
X225302438Y-372900000D02*
X225254819Y-372995238D01*
X225254819Y-372995238D02*
X225254819Y-373233333D01*
X225254819Y-373233333D02*
X225302438Y-373328571D01*
X225302438Y-373328571D02*
X225350057Y-373376190D01*
X225350057Y-373376190D02*
X225445295Y-373423809D01*
X225445295Y-373423809D02*
X225540533Y-373423809D01*
X225540533Y-373423809D02*
X225683390Y-373376190D01*
X225683390Y-373376190D02*
X226254819Y-372804762D01*
X226254819Y-372804762D02*
X226254819Y-373423809D01*
X225254819Y-373757143D02*
X225254819Y-374376190D01*
X225254819Y-374376190D02*
X225635771Y-374042857D01*
X225635771Y-374042857D02*
X225635771Y-374185714D01*
X225635771Y-374185714D02*
X225683390Y-374280952D01*
X225683390Y-374280952D02*
X225731009Y-374328571D01*
X225731009Y-374328571D02*
X225826247Y-374376190D01*
X225826247Y-374376190D02*
X226064342Y-374376190D01*
X226064342Y-374376190D02*
X226159580Y-374328571D01*
X226159580Y-374328571D02*
X226207200Y-374280952D01*
X226207200Y-374280952D02*
X226254819Y-374185714D01*
X226254819Y-374185714D02*
X226254819Y-373900000D01*
X226254819Y-373900000D02*
X226207200Y-373804762D01*
X226207200Y-373804762D02*
X226159580Y-373757143D01*
X264652380Y-340954819D02*
X264652380Y-339954819D01*
X264652380Y-339954819D02*
X264414285Y-339954819D01*
X264414285Y-339954819D02*
X264271428Y-340002438D01*
X264271428Y-340002438D02*
X264176190Y-340097676D01*
X264176190Y-340097676D02*
X264128571Y-340192914D01*
X264128571Y-340192914D02*
X264080952Y-340383390D01*
X264080952Y-340383390D02*
X264080952Y-340526247D01*
X264080952Y-340526247D02*
X264128571Y-340716723D01*
X264128571Y-340716723D02*
X264176190Y-340811961D01*
X264176190Y-340811961D02*
X264271428Y-340907200D01*
X264271428Y-340907200D02*
X264414285Y-340954819D01*
X264414285Y-340954819D02*
X264652380Y-340954819D01*
X263652380Y-340954819D02*
X263652380Y-340288152D01*
X263652380Y-340478628D02*
X263604761Y-340383390D01*
X263604761Y-340383390D02*
X263557142Y-340335771D01*
X263557142Y-340335771D02*
X263461904Y-340288152D01*
X263461904Y-340288152D02*
X263366666Y-340288152D01*
X262604761Y-340288152D02*
X262604761Y-341097676D01*
X262604761Y-341097676D02*
X262652380Y-341192914D01*
X262652380Y-341192914D02*
X262699999Y-341240533D01*
X262699999Y-341240533D02*
X262795237Y-341288152D01*
X262795237Y-341288152D02*
X262938094Y-341288152D01*
X262938094Y-341288152D02*
X263033332Y-341240533D01*
X262604761Y-340907200D02*
X262699999Y-340954819D01*
X262699999Y-340954819D02*
X262890475Y-340954819D01*
X262890475Y-340954819D02*
X262985713Y-340907200D01*
X262985713Y-340907200D02*
X263033332Y-340859580D01*
X263033332Y-340859580D02*
X263080951Y-340764342D01*
X263080951Y-340764342D02*
X263080951Y-340478628D01*
X263080951Y-340478628D02*
X263033332Y-340383390D01*
X263033332Y-340383390D02*
X262985713Y-340335771D01*
X262985713Y-340335771D02*
X262890475Y-340288152D01*
X262890475Y-340288152D02*
X262699999Y-340288152D01*
X262699999Y-340288152D02*
X262604761Y-340335771D01*
X262128570Y-340954819D02*
X262128570Y-339954819D01*
X262128570Y-340335771D02*
X262033332Y-340288152D01*
X262033332Y-340288152D02*
X261842856Y-340288152D01*
X261842856Y-340288152D02*
X261747618Y-340335771D01*
X261747618Y-340335771D02*
X261699999Y-340383390D01*
X261699999Y-340383390D02*
X261652380Y-340478628D01*
X261652380Y-340478628D02*
X261652380Y-340764342D01*
X261652380Y-340764342D02*
X261699999Y-340859580D01*
X261699999Y-340859580D02*
X261747618Y-340907200D01*
X261747618Y-340907200D02*
X261842856Y-340954819D01*
X261842856Y-340954819D02*
X262033332Y-340954819D01*
X262033332Y-340954819D02*
X262128570Y-340907200D01*
X260699999Y-340954819D02*
X261271427Y-340954819D01*
X260985713Y-340954819D02*
X260985713Y-339954819D01*
X260985713Y-339954819D02*
X261080951Y-340097676D01*
X261080951Y-340097676D02*
X261176189Y-340192914D01*
X261176189Y-340192914D02*
X261271427Y-340240533D01*
X369352380Y-340954819D02*
X369352380Y-339954819D01*
X369352380Y-339954819D02*
X369114285Y-339954819D01*
X369114285Y-339954819D02*
X368971428Y-340002438D01*
X368971428Y-340002438D02*
X368876190Y-340097676D01*
X368876190Y-340097676D02*
X368828571Y-340192914D01*
X368828571Y-340192914D02*
X368780952Y-340383390D01*
X368780952Y-340383390D02*
X368780952Y-340526247D01*
X368780952Y-340526247D02*
X368828571Y-340716723D01*
X368828571Y-340716723D02*
X368876190Y-340811961D01*
X368876190Y-340811961D02*
X368971428Y-340907200D01*
X368971428Y-340907200D02*
X369114285Y-340954819D01*
X369114285Y-340954819D02*
X369352380Y-340954819D01*
X368352380Y-340954819D02*
X368352380Y-340288152D01*
X368352380Y-340478628D02*
X368304761Y-340383390D01*
X368304761Y-340383390D02*
X368257142Y-340335771D01*
X368257142Y-340335771D02*
X368161904Y-340288152D01*
X368161904Y-340288152D02*
X368066666Y-340288152D01*
X367304761Y-340288152D02*
X367304761Y-341097676D01*
X367304761Y-341097676D02*
X367352380Y-341192914D01*
X367352380Y-341192914D02*
X367399999Y-341240533D01*
X367399999Y-341240533D02*
X367495237Y-341288152D01*
X367495237Y-341288152D02*
X367638094Y-341288152D01*
X367638094Y-341288152D02*
X367733332Y-341240533D01*
X367304761Y-340907200D02*
X367399999Y-340954819D01*
X367399999Y-340954819D02*
X367590475Y-340954819D01*
X367590475Y-340954819D02*
X367685713Y-340907200D01*
X367685713Y-340907200D02*
X367733332Y-340859580D01*
X367733332Y-340859580D02*
X367780951Y-340764342D01*
X367780951Y-340764342D02*
X367780951Y-340478628D01*
X367780951Y-340478628D02*
X367733332Y-340383390D01*
X367733332Y-340383390D02*
X367685713Y-340335771D01*
X367685713Y-340335771D02*
X367590475Y-340288152D01*
X367590475Y-340288152D02*
X367399999Y-340288152D01*
X367399999Y-340288152D02*
X367304761Y-340335771D01*
X366828570Y-340954819D02*
X366828570Y-339954819D01*
X366828570Y-340335771D02*
X366733332Y-340288152D01*
X366733332Y-340288152D02*
X366542856Y-340288152D01*
X366542856Y-340288152D02*
X366447618Y-340335771D01*
X366447618Y-340335771D02*
X366399999Y-340383390D01*
X366399999Y-340383390D02*
X366352380Y-340478628D01*
X366352380Y-340478628D02*
X366352380Y-340764342D01*
X366352380Y-340764342D02*
X366399999Y-340859580D01*
X366399999Y-340859580D02*
X366447618Y-340907200D01*
X366447618Y-340907200D02*
X366542856Y-340954819D01*
X366542856Y-340954819D02*
X366733332Y-340954819D01*
X366733332Y-340954819D02*
X366828570Y-340907200D01*
X365495237Y-340288152D02*
X365495237Y-340954819D01*
X365733332Y-339907200D02*
X365971427Y-340621485D01*
X365971427Y-340621485D02*
X365352380Y-340621485D01*
D13*
%TO.C,SW13*%
X459782500Y-339775000D02*
X460082500Y-339775000D01*
%TO.C,SW5*%
X307382500Y-339775000D02*
X307682500Y-339775000D01*
%TO.C,SW32*%
X302620000Y-377875000D02*
X302920000Y-377875000D01*
%TO.C,SW16*%
X259757500Y-358825000D02*
X260057500Y-358825000D01*
%TO.C,SW37*%
X397870000Y-377875000D02*
X398170000Y-377875000D01*
%TO.C,SW49*%
X369295000Y-396925000D02*
X369595000Y-396925000D01*
%TO.C,SW62*%
X493120500Y-415975000D02*
X493420500Y-415975000D01*
%TO.C,SW38*%
X416920000Y-377875000D02*
X417220000Y-377875000D01*
%TO.C,SW15*%
X235945500Y-358825000D02*
X236245500Y-358825000D01*
%TO.C,SW60*%
X445495500Y-415975000D02*
X445795500Y-415975000D01*
%TO.C,SW47*%
X331195000Y-396925000D02*
X331495000Y-396925000D01*
%TO.C,SW54*%
X471689000Y-396925000D02*
X471989000Y-396925000D01*
%TO.C,SW29*%
X238326500Y-377875000D02*
X238626500Y-377875000D01*
%TO.C,SW40*%
X455020000Y-377875000D02*
X455320000Y-377875000D01*
%TO.C,SW25*%
X431207500Y-358825000D02*
X431507500Y-358825000D01*
%TO.C,SW20*%
X335957500Y-358825000D02*
X336257500Y-358825000D01*
%TO.C,SW53*%
X445495000Y-396925000D02*
X445795000Y-396925000D01*
%TO.C,SW2*%
X250232500Y-339775000D02*
X250532500Y-339775000D01*
%TO.C,SW36*%
X378820000Y-377875000D02*
X379120000Y-377875000D01*
%TO.C,SW9*%
X383582500Y-339775000D02*
X383882500Y-339775000D01*
%TO.C,SW6*%
X326432500Y-339775000D02*
X326732500Y-339775000D01*
%TO.C,SW17*%
X278807500Y-358825000D02*
X279107500Y-358825000D01*
%TO.C,SW28*%
X493120500Y-358825000D02*
X493420500Y-358825000D01*
%TO.C,SW2001*%
X481214000Y-396925000D02*
X481514000Y-396925000D01*
%TO.C,SW39*%
X435970000Y-377875000D02*
X436270000Y-377875000D01*
%TO.C,SW23*%
X393107500Y-358825000D02*
X393407500Y-358825000D01*
%TO.C,SW59*%
X364532500Y-415970000D02*
X364832500Y-415970000D01*
%TO.C,SW58*%
X283570500Y-415975000D02*
X283870500Y-415975000D01*
%TO.C,SW61*%
X469307500Y-415975000D02*
X469607500Y-415975000D01*
%TO.C,SW12*%
X440732500Y-339775000D02*
X441032500Y-339775000D01*
%TO.C,SW34*%
X340720000Y-377875000D02*
X341020000Y-377875000D01*
%TO.C,SW21*%
X355007500Y-358825000D02*
X355307500Y-358825000D01*
%TO.C,SW2000*%
X488357500Y-339475000D02*
X488357500Y-339775000D01*
X488357500Y-339775000D02*
X488657500Y-339775000D01*
%TO.C,SW18*%
X297857500Y-358825000D02*
X298157500Y-358825000D01*
%TO.C,SW27*%
X469307500Y-358825000D02*
X469607500Y-358825000D01*
%TO.C,SW10*%
X402632500Y-339775000D02*
X402932500Y-339775000D01*
%TO.C,SW51*%
X407395000Y-396925000D02*
X407695000Y-396925000D01*
%TO.C,SW2002*%
X233563500Y-377875000D02*
X233863500Y-377875000D01*
%TO.C,SW19*%
X316907500Y-358825000D02*
X317207500Y-358825000D01*
%TO.C,SW48*%
X350245000Y-396925000D02*
X350545000Y-396925000D01*
%TO.C,SW35*%
X359770000Y-377875000D02*
X360070000Y-377875000D01*
%TO.C,SW22*%
X374057500Y-358825000D02*
X374357500Y-358825000D01*
%TO.C,SW41*%
X486050600Y-377875000D02*
X486350600Y-377875000D01*
%TO.C,SW14*%
X478832500Y-339775000D02*
X479132500Y-339775000D01*
%TO.C,SW52*%
X426445000Y-396925000D02*
X426745000Y-396925000D01*
%TO.C,SW44*%
X274045000Y-396925000D02*
X274345000Y-396925000D01*
%TO.C,SW31*%
X283570000Y-377875000D02*
X283870000Y-377875000D01*
%TO.C,SW24*%
X412157500Y-358825000D02*
X412457500Y-358825000D01*
%TO.C,SW50*%
X388345000Y-396925000D02*
X388645000Y-396925000D01*
%TO.C,SW43*%
X243163100Y-396925000D02*
X243463100Y-396925000D01*
%TO.C,SW42*%
X497882500Y-339775000D02*
X498182500Y-339775000D01*
%TO.C,SW33*%
X321670000Y-377875000D02*
X321970000Y-377875000D01*
%TO.C,SW56*%
X235945500Y-415975000D02*
X236245500Y-415975000D01*
%TO.C,SW11*%
X421682500Y-339775000D02*
X421982500Y-339775000D01*
%TO.C,SW8*%
X364532500Y-339775000D02*
X364832500Y-339775000D01*
%TO.C,SW26*%
X450257500Y-358825000D02*
X450557500Y-358825000D01*
%TO.C,SW4*%
X288332500Y-339775000D02*
X288632500Y-339775000D01*
%TO.C,SW3*%
X269282500Y-339775000D02*
X269582500Y-339775000D01*
%TO.C,SW57*%
X259757500Y-415975000D02*
X260057500Y-415975000D01*
%TO.C,SW30*%
X264520000Y-377875000D02*
X264820000Y-377875000D01*
%TO.C,SW45*%
X293095000Y-396925000D02*
X293395000Y-396925000D01*
%TO.C,SW55*%
X497882500Y-396925000D02*
X498182500Y-396925000D01*
%TO.C,SW7*%
X345482500Y-339775000D02*
X345782500Y-339775000D01*
%TO.C,SW46*%
X312145000Y-396925000D02*
X312445000Y-396925000D01*
%TO.C,SW1*%
X231182500Y-339775000D02*
X231482500Y-339775000D01*
%TO.C,JP2*%
X501112500Y-417110000D02*
X501112500Y-416510000D01*
X501412500Y-416810000D02*
X501112500Y-416510000D01*
X501412500Y-416810000D02*
X501112500Y-417110000D01*
X501612500Y-414210000D02*
X501612500Y-417010000D01*
X502312500Y-417660000D02*
X502912500Y-417660000D01*
X502912500Y-413560000D02*
X502312500Y-413560000D01*
X503612500Y-417010000D02*
X503612500Y-414210000D01*
X501612500Y-414260000D02*
G75*
G02*
X502312500Y-413560000I700000J0D01*
G01*
X502312500Y-417660000D02*
G75*
G02*
X501612500Y-416960000I-1J699999D01*
G01*
X502912500Y-413560000D02*
G75*
G02*
X503612500Y-414260000I0J-700000D01*
G01*
X503612500Y-416960000D02*
G75*
G02*
X502912500Y-417660000I-699999J-1D01*
G01*
%TO.C,U9*%
X288280000Y-341940000D02*
X290230000Y-341940000D01*
X288280000Y-352060000D02*
X290230000Y-352060000D01*
X292180000Y-341940000D02*
X290230000Y-341940000D01*
X292180000Y-352060000D02*
X290230000Y-352060000D01*
X287745000Y-352335000D02*
X287265000Y-352335000D01*
X287505000Y-352005000D01*
X287745000Y-352335000D01*
G36*
X287745000Y-352335000D02*
G01*
X287265000Y-352335000D01*
X287505000Y-352005000D01*
X287745000Y-352335000D01*
G37*
%TO.C,R16*%
X263587500Y-332482258D02*
X263587500Y-332007742D01*
X264632500Y-332482258D02*
X264632500Y-332007742D01*
%TO.C,R20*%
X249767258Y-327497500D02*
X249292742Y-327497500D01*
X249767258Y-328542500D02*
X249292742Y-328542500D01*
%TO.C,J3*%
X449840000Y-338695000D02*
X449840000Y-336195000D01*
X450890000Y-338695000D02*
X449840000Y-338695000D01*
X450890000Y-339685000D02*
X450890000Y-338695000D01*
X453890000Y-334225000D02*
X451010000Y-334225000D01*
X454010000Y-338695000D02*
X455060000Y-338695000D01*
X455060000Y-338695000D02*
X455060000Y-336195000D01*
%TO.C,U6*%
X315200000Y-401940000D02*
X316000000Y-401940000D01*
X315200000Y-405060000D02*
X316000000Y-405060000D01*
X316800000Y-401940000D02*
X316000000Y-401940000D01*
X316800000Y-405060000D02*
X316000000Y-405060000D01*
X317300000Y-401990000D02*
X317060000Y-401660000D01*
X317540000Y-401660000D01*
X317300000Y-401990000D01*
G36*
X317300000Y-401990000D02*
G01*
X317060000Y-401660000D01*
X317540000Y-401660000D01*
X317300000Y-401990000D01*
G37*
%TO.C,R2*%
X353087742Y-407077500D02*
X353562258Y-407077500D01*
X353087742Y-408122500D02*
X353562258Y-408122500D01*
%TO.C,C9*%
X345730000Y-395319420D02*
X345730000Y-395600580D01*
X346750000Y-395319420D02*
X346750000Y-395600580D01*
%TO.C,Drgb7*%
X473520000Y-341350000D02*
X470680000Y-341350000D01*
X473520000Y-341350000D02*
X473520000Y-342000000D01*
X473520000Y-343650000D02*
X470680000Y-343650000D01*
%TO.C,R17*%
X262127500Y-332482258D02*
X262127500Y-332007742D01*
X263172500Y-332482258D02*
X263172500Y-332007742D01*
%TO.C,C14*%
X341790000Y-395324420D02*
X341790000Y-395605580D01*
X342810000Y-395324420D02*
X342810000Y-395605580D01*
%TO.C,R3*%
X357322258Y-325697500D02*
X356847742Y-325697500D01*
X357322258Y-326742500D02*
X356847742Y-326742500D01*
%TO.C,C24*%
X328090000Y-410965580D02*
X328090000Y-410684420D01*
X329110000Y-410965580D02*
X329110000Y-410684420D01*
%TO.C,Drgb9*%
X505350000Y-356720000D02*
X505350000Y-353880000D01*
X507650000Y-356720000D02*
X507000000Y-356720000D01*
X507650000Y-356720000D02*
X507650000Y-353880000D01*
%TO.C,C1*%
X351040000Y-401355580D02*
X351040000Y-401074420D01*
X352060000Y-401355580D02*
X352060000Y-401074420D01*
%TO.C,U12*%
X388090000Y-360455000D02*
X390040000Y-360455000D01*
X388090000Y-370575000D02*
X390040000Y-370575000D01*
X391990000Y-360455000D02*
X390040000Y-360455000D01*
X391990000Y-370575000D02*
X390040000Y-370575000D01*
X387555000Y-370850000D02*
X387075000Y-370850000D01*
X387315000Y-370520000D01*
X387555000Y-370850000D01*
G36*
X387555000Y-370850000D02*
G01*
X387075000Y-370850000D01*
X387315000Y-370520000D01*
X387555000Y-370850000D01*
G37*
%TO.C,RN2*%
X251350000Y-375960000D02*
X251350000Y-376960000D01*
X254710000Y-375960000D02*
X254710000Y-376960000D01*
%TO.C,R5*%
X321737258Y-405227500D02*
X321262742Y-405227500D01*
X321737258Y-406272500D02*
X321262742Y-406272500D01*
%TO.C,Drgb20*%
X261780000Y-400350000D02*
X264620000Y-400350000D01*
X261780000Y-402650000D02*
X261780000Y-402000000D01*
X261780000Y-402650000D02*
X264620000Y-402650000D01*
%TO.C,U10*%
X311950000Y-360690000D02*
X313900000Y-360690000D01*
X311950000Y-370810000D02*
X313900000Y-370810000D01*
X315850000Y-360690000D02*
X313900000Y-360690000D01*
X315850000Y-370810000D02*
X313900000Y-370810000D01*
X311415000Y-371085000D02*
X310935000Y-371085000D01*
X311175000Y-370755000D01*
X311415000Y-371085000D01*
G36*
X311415000Y-371085000D02*
G01*
X310935000Y-371085000D01*
X311175000Y-370755000D01*
X311415000Y-371085000D01*
G37*
%TO.C,R19*%
X259197500Y-332482258D02*
X259197500Y-332007742D01*
X260242500Y-332482258D02*
X260242500Y-332007742D01*
%TO.C,Drgb2*%
X299020000Y-341350000D02*
X296180000Y-341350000D01*
X299020000Y-341350000D02*
X299020000Y-342000000D01*
X299020000Y-343650000D02*
X296180000Y-343650000D01*
%TO.C,C19*%
X321359420Y-406740000D02*
X321640580Y-406740000D01*
X321359420Y-407760000D02*
X321640580Y-407760000D01*
%TO.C,Drgb24*%
X226650000Y-351380000D02*
X226650000Y-354220000D01*
X226650000Y-351380000D02*
X227300000Y-351380000D01*
X228950000Y-351380000D02*
X228950000Y-354220000D01*
%TO.C,RN10*%
X396360000Y-362780000D02*
X397360000Y-362780000D01*
X396360000Y-366140000D02*
X397360000Y-366140000D01*
%TO.C,C4*%
X357434420Y-414690000D02*
X357715580Y-414690000D01*
X357434420Y-415710000D02*
X357715580Y-415710000D01*
%TO.C,J4*%
X360890000Y-320795000D02*
X360890000Y-322495000D01*
X370230000Y-320795000D02*
X370230000Y-322495000D01*
%TO.C,C3*%
X354690000Y-414059420D02*
X354690000Y-414340580D01*
X355710000Y-414059420D02*
X355710000Y-414340580D01*
%TO.C,C16*%
X360490000Y-401844420D02*
X360490000Y-402125580D01*
X361510000Y-401844420D02*
X361510000Y-402125580D01*
D14*
%TO.C,U5*%
X320745000Y-402305000D02*
X320425000Y-402305000D01*
X320745000Y-404695000D02*
X320425000Y-404695000D01*
X321605000Y-402305000D02*
X321925000Y-402305000D01*
X321605000Y-404695000D02*
X321925000Y-404695000D01*
D15*
X322960000Y-402750000D02*
G75*
G02*
X322760000Y-402750000I-100000J0D01*
G01*
X322760000Y-402750000D02*
G75*
G02*
X322960000Y-402750000I100000J0D01*
G01*
D13*
%TO.C,RN7*%
X353030000Y-343780000D02*
X354030000Y-343780000D01*
X353030000Y-347140000D02*
X354030000Y-347140000D01*
%TO.C,C23*%
X335790000Y-414415580D02*
X335790000Y-414134420D01*
X336810000Y-414415580D02*
X336810000Y-414134420D01*
%TO.C,C20*%
X330390000Y-411034420D02*
X330390000Y-411315580D01*
X331410000Y-411034420D02*
X331410000Y-411315580D01*
%TO.C,RN1*%
X258130000Y-367610000D02*
X259130000Y-367610000D01*
X258130000Y-370970000D02*
X259130000Y-370970000D01*
%TO.C,C6*%
X352269420Y-415960000D02*
X352550580Y-415960000D01*
X352269420Y-416980000D02*
X352550580Y-416980000D01*
%TO.C,U7*%
X326590000Y-402990000D02*
X327065000Y-402990000D01*
X326590000Y-403465000D02*
X326590000Y-402990000D01*
X326590000Y-407970000D02*
X326590000Y-407735000D01*
X326890000Y-408210000D02*
X327065000Y-408210000D01*
X331810000Y-402990000D02*
X331335000Y-402990000D01*
X331810000Y-403465000D02*
X331810000Y-402990000D01*
X331810000Y-407735000D02*
X331810000Y-408210000D01*
X331810000Y-408210000D02*
X331335000Y-408210000D01*
X326830000Y-408540000D02*
X326350000Y-408540000D01*
X326590000Y-408210000D01*
X326830000Y-408540000D01*
G36*
X326830000Y-408540000D02*
G01*
X326350000Y-408540000D01*
X326590000Y-408210000D01*
X326830000Y-408540000D01*
G37*
%TO.C,Y3*%
X331800000Y-410000000D02*
X331800000Y-415750000D01*
X331800000Y-415750000D02*
X335400000Y-415750000D01*
X335400000Y-415750000D02*
X335400000Y-410000000D01*
%TO.C,C25*%
X358674420Y-397450000D02*
X358955580Y-397450000D01*
X358674420Y-398470000D02*
X358955580Y-398470000D01*
%TO.C,C11*%
X316844420Y-407730000D02*
X317125580Y-407730000D01*
X316844420Y-408750000D02*
X317125580Y-408750000D01*
%TO.C,Drgb22*%
X227150000Y-389480000D02*
X227150000Y-392320000D01*
X227150000Y-389480000D02*
X227800000Y-389480000D01*
X229450000Y-389480000D02*
X229450000Y-392320000D01*
%TO.C,Drgb8*%
X505230000Y-340590000D02*
X505230000Y-343430000D01*
X505230000Y-340590000D02*
X505880000Y-340590000D01*
X507530000Y-340590000D02*
X507530000Y-343430000D01*
%TO.C,Drgb16*%
X229220000Y-340850000D02*
X226380000Y-340850000D01*
X229220000Y-340850000D02*
X229220000Y-341500000D01*
X229220000Y-343150000D02*
X226380000Y-343150000D01*
%TO.C,R1*%
X229977500Y-408962742D02*
X229977500Y-409437258D01*
X231022500Y-408962742D02*
X231022500Y-409437258D01*
%TO.C,JP1*%
X227127500Y-336240000D02*
X227127500Y-339040000D01*
X227827500Y-339690000D02*
X228427500Y-339690000D01*
X228427500Y-335590000D02*
X227827500Y-335590000D01*
X229127500Y-339040000D02*
X229127500Y-336240000D01*
X229327500Y-336440000D02*
X229627500Y-336140000D01*
X229327500Y-336440000D02*
X229627500Y-336740000D01*
X229627500Y-336140000D02*
X229627500Y-336740000D01*
X227127500Y-336290000D02*
G75*
G02*
X227827500Y-335590000I699999J1D01*
G01*
X227827500Y-339690000D02*
G75*
G02*
X227127500Y-338990000I0J700000D01*
G01*
X228427500Y-335590000D02*
G75*
G02*
X229127500Y-336290000I1J-699999D01*
G01*
X229127500Y-338990000D02*
G75*
G02*
X228427500Y-339690000I-700000J0D01*
G01*
%TO.C,Drgb12*%
X506350000Y-402920000D02*
X506350000Y-400080000D01*
X508650000Y-402920000D02*
X508000000Y-402920000D01*
X508650000Y-402920000D02*
X508650000Y-400080000D01*
%TO.C,RN16*%
X466870000Y-392650000D02*
X467870000Y-392650000D01*
X466870000Y-396010000D02*
X467870000Y-396010000D01*
%TO.C,Drgb17*%
X366480000Y-400350000D02*
X369320000Y-400350000D01*
X366480000Y-402650000D02*
X366480000Y-402000000D01*
X366480000Y-402650000D02*
X369320000Y-402650000D01*
%TO.C,U13*%
X458700000Y-384150000D02*
X460650000Y-384150000D01*
X458700000Y-394270000D02*
X460650000Y-394270000D01*
X462600000Y-384150000D02*
X460650000Y-384150000D01*
X462600000Y-394270000D02*
X460650000Y-394270000D01*
X458165000Y-394545000D02*
X457685000Y-394545000D01*
X457925000Y-394215000D01*
X458165000Y-394545000D01*
G36*
X458165000Y-394545000D02*
G01*
X457685000Y-394545000D01*
X457925000Y-394215000D01*
X458165000Y-394545000D01*
G37*
%TO.C,Drgb10*%
X505350000Y-373320000D02*
X505350000Y-370480000D01*
X507650000Y-373320000D02*
X507000000Y-373320000D01*
X507650000Y-373320000D02*
X507650000Y-370480000D01*
%TO.C,U4*%
X236280000Y-340750000D02*
X232520000Y-340750000D01*
X236280000Y-342010000D02*
X236280000Y-340750000D01*
X236280000Y-346310000D02*
X236280000Y-347570000D01*
X236280000Y-347570000D02*
X232520000Y-347570000D01*
X231480000Y-347800000D02*
X231000000Y-347800000D01*
X231240000Y-347470000D01*
X231480000Y-347800000D01*
G36*
X231480000Y-347800000D02*
G01*
X231000000Y-347800000D01*
X231240000Y-347470000D01*
X231480000Y-347800000D01*
G37*
%TO.C,U14*%
X421300000Y-341645000D02*
X423250000Y-341645000D01*
X421300000Y-351765000D02*
X423250000Y-351765000D01*
X425200000Y-341645000D02*
X423250000Y-341645000D01*
X425200000Y-351765000D02*
X423250000Y-351765000D01*
X420765000Y-352040000D02*
X420285000Y-352040000D01*
X420525000Y-351710000D01*
X420765000Y-352040000D01*
G36*
X420765000Y-352040000D02*
G01*
X420285000Y-352040000D01*
X420525000Y-351710000D01*
X420765000Y-352040000D01*
G37*
%TO.C,J4*%
X237590000Y-322790000D02*
X237590000Y-324690000D01*
X237590000Y-326590000D02*
X237590000Y-328590000D01*
X246990000Y-322790000D02*
X237590000Y-322790000D01*
X246990000Y-322790000D02*
X246990000Y-324690000D01*
X246990000Y-326590000D02*
X246990000Y-328590000D01*
%TO.C,RN8*%
X345420000Y-353420000D02*
X345420000Y-354420000D01*
X348780000Y-353420000D02*
X348780000Y-354420000D01*
%TO.C,C18*%
X318690000Y-406359420D02*
X318690000Y-406640580D01*
X319710000Y-406359420D02*
X319710000Y-406640580D01*
%TO.C,Drgb21*%
X226880000Y-400350000D02*
X229720000Y-400350000D01*
X226880000Y-402650000D02*
X226880000Y-402000000D01*
X226880000Y-402650000D02*
X229720000Y-402650000D01*
%TO.C,Drgb15*%
X401380000Y-400350000D02*
X404220000Y-400350000D01*
X401380000Y-402650000D02*
X401380000Y-402000000D01*
X401380000Y-402650000D02*
X404220000Y-402650000D01*
%TO.C,Y1*%
X356225000Y-408400000D02*
X356225000Y-414150000D01*
X356225000Y-414150000D02*
X359825000Y-414150000D01*
X359825000Y-414150000D02*
X359825000Y-408400000D01*
%TO.C,Drgb18*%
X331580000Y-399750000D02*
X334420000Y-399750000D01*
X331580000Y-402050000D02*
X331580000Y-401400000D01*
X331580000Y-402050000D02*
X334420000Y-402050000D01*
%TO.C,U11*%
X345140000Y-341670000D02*
X347090000Y-341670000D01*
X345140000Y-351790000D02*
X347090000Y-351790000D01*
X349040000Y-341670000D02*
X347090000Y-341670000D01*
X349040000Y-351790000D02*
X347090000Y-351790000D01*
X344605000Y-352065000D02*
X344125000Y-352065000D01*
X344365000Y-351735000D01*
X344605000Y-352065000D01*
G36*
X344605000Y-352065000D02*
G01*
X344125000Y-352065000D01*
X344365000Y-351735000D01*
X344605000Y-352065000D01*
G37*
%TO.C,Drgb14*%
X436280000Y-400350000D02*
X439120000Y-400350000D01*
X436280000Y-402650000D02*
X436280000Y-402000000D01*
X436280000Y-402650000D02*
X439120000Y-402650000D01*
%TO.C,U15*%
X465750000Y-361110000D02*
X467700000Y-361110000D01*
X465750000Y-371230000D02*
X467700000Y-371230000D01*
X469650000Y-361110000D02*
X467700000Y-361110000D01*
X469650000Y-371230000D02*
X467700000Y-371230000D01*
X465215000Y-371505000D02*
X464735000Y-371505000D01*
X464975000Y-371175000D01*
X465215000Y-371505000D01*
G36*
X465215000Y-371505000D02*
G01*
X464735000Y-371505000D01*
X464975000Y-371175000D01*
X465215000Y-371505000D01*
G37*
%TO.C,C17*%
X339830000Y-395324420D02*
X339830000Y-395605580D01*
X340850000Y-395324420D02*
X340850000Y-395605580D01*
%TO.C,C13*%
X337870000Y-395329420D02*
X337870000Y-395610580D01*
X338890000Y-395329420D02*
X338890000Y-395610580D01*
%TO.C,U3*%
X250950000Y-364235000D02*
X252900000Y-364235000D01*
X250950000Y-374355000D02*
X252900000Y-374355000D01*
X254850000Y-364235000D02*
X252900000Y-364235000D01*
X254850000Y-374355000D02*
X252900000Y-374355000D01*
X250415000Y-374630000D02*
X249935000Y-374630000D01*
X250175000Y-374300000D01*
X250415000Y-374630000D01*
G36*
X250415000Y-374630000D02*
G01*
X249935000Y-374630000D01*
X250175000Y-374300000D01*
X250415000Y-374630000D01*
G37*
%TO.C,Drgb13*%
X475280000Y-400350000D02*
X478120000Y-400350000D01*
X475280000Y-402650000D02*
X475280000Y-402000000D01*
X475280000Y-402650000D02*
X478120000Y-402650000D01*
%TO.C,RN4*%
X295440000Y-344640000D02*
X296440000Y-344640000D01*
X295440000Y-348000000D02*
X296440000Y-348000000D01*
%TO.C,C10*%
X343760000Y-395324420D02*
X343760000Y-395605580D01*
X344780000Y-395324420D02*
X344780000Y-395605580D01*
%TO.C,Drgb19*%
X296680000Y-400350000D02*
X299520000Y-400350000D01*
X296680000Y-402650000D02*
X296680000Y-402000000D01*
X296680000Y-402650000D02*
X299520000Y-402650000D01*
%TO.C,RN14*%
X465990000Y-372860000D02*
X465990000Y-373860000D01*
X469350000Y-372860000D02*
X469350000Y-373860000D01*
%TO.C,U8*%
X354640000Y-402250000D02*
X354640000Y-404200000D01*
X354640000Y-406150000D02*
X354640000Y-404200000D01*
X359760000Y-402250000D02*
X359760000Y-404200000D01*
X359760000Y-406150000D02*
X359760000Y-404200000D01*
X359995000Y-407140000D02*
X359665000Y-406900000D01*
X359995000Y-406660000D01*
X359995000Y-407140000D01*
G36*
X359995000Y-407140000D02*
G01*
X359665000Y-406900000D01*
X359995000Y-406660000D01*
X359995000Y-407140000D01*
G37*
%TO.C,R15*%
X225597500Y-338687258D02*
X225597500Y-338212742D01*
X226642500Y-338687258D02*
X226642500Y-338212742D01*
%TO.C,RN13*%
X474330000Y-368760000D02*
X475330000Y-368760000D01*
X474330000Y-372120000D02*
X475330000Y-372120000D01*
%TO.C,RN15*%
X454380000Y-392640000D02*
X453380000Y-392640000D01*
X454380000Y-396000000D02*
X453380000Y-396000000D01*
%TO.C,RN12*%
X429910000Y-343620000D02*
X430910000Y-343620000D01*
X429910000Y-346980000D02*
X430910000Y-346980000D01*
%TO.C,RN5*%
X319620000Y-362370000D02*
X320620000Y-362370000D01*
X319620000Y-365730000D02*
X320620000Y-365730000D01*
%TO.C,J5*%
X227170000Y-361225000D02*
X227170000Y-363725000D01*
X227170000Y-363725000D02*
X228220000Y-363725000D01*
X228220000Y-363725000D02*
X228220000Y-364715000D01*
X228340000Y-359255000D02*
X232220000Y-359255000D01*
X233390000Y-361225000D02*
X233390000Y-363725000D01*
X233390000Y-363725000D02*
X232340000Y-363725000D01*
%TO.C,Drgb6*%
X438620000Y-341350000D02*
X435780000Y-341350000D01*
X438620000Y-341350000D02*
X438620000Y-342000000D01*
X438620000Y-343650000D02*
X435780000Y-343650000D01*
%TO.C,R18*%
X260657500Y-332482258D02*
X260657500Y-332007742D01*
X261702500Y-332482258D02*
X261702500Y-332007742D01*
%TO.C,Drgb11*%
X506350000Y-392320000D02*
X506350000Y-389480000D01*
X508650000Y-392320000D02*
X508000000Y-392320000D01*
X508650000Y-392320000D02*
X508650000Y-389480000D01*
%TO.C,C21*%
X330390000Y-414315580D02*
X330390000Y-414034420D01*
X331410000Y-414315580D02*
X331410000Y-414034420D01*
%TO.C,R6*%
X328877500Y-414412258D02*
X328877500Y-413937742D01*
X329922500Y-414412258D02*
X329922500Y-413937742D01*
%TO.C,RN11*%
X421550000Y-353530000D02*
X421550000Y-354530000D01*
X424910000Y-353530000D02*
X424910000Y-354530000D01*
%TO.C,C7*%
X322795000Y-400590580D02*
X322795000Y-400309420D01*
X323815000Y-400590580D02*
X323815000Y-400309420D01*
%TO.C,C2*%
X326710000Y-400284420D02*
X326710000Y-400565580D01*
X327730000Y-400284420D02*
X327730000Y-400565580D01*
%TO.C,Drgb5*%
X403720000Y-341350000D02*
X400880000Y-341350000D01*
X403720000Y-341350000D02*
X403720000Y-342000000D01*
X403720000Y-343650000D02*
X400880000Y-343650000D01*
%TO.C,RN3*%
X288560000Y-353900000D02*
X288560000Y-354900000D01*
X291920000Y-353900000D02*
X291920000Y-354900000D01*
%TO.C,C8*%
X324280000Y-400585580D02*
X324280000Y-400304420D01*
X325300000Y-400585580D02*
X325300000Y-400304420D01*
%TO.C,C5*%
X352545580Y-413850000D02*
X352264420Y-413850000D01*
X352545580Y-414870000D02*
X352264420Y-414870000D01*
%TO.C,C15*%
X358965580Y-398910000D02*
X358684420Y-398910000D01*
X358965580Y-399930000D02*
X358684420Y-399930000D01*
%TO.C,Drgb3*%
X333920000Y-341350000D02*
X331080000Y-341350000D01*
X333920000Y-341350000D02*
X333920000Y-342000000D01*
X333920000Y-343650000D02*
X331080000Y-343650000D01*
%TO.C,C22*%
X334415580Y-407890000D02*
X334134420Y-407890000D01*
X334415580Y-408910000D02*
X334134420Y-408910000D01*
%TO.C,Drgb23*%
X226650000Y-370480000D02*
X226650000Y-373320000D01*
X226650000Y-370480000D02*
X227300000Y-370480000D01*
X228950000Y-370480000D02*
X228950000Y-373320000D01*
%TO.C,J1*%
X246345000Y-342840000D02*
X247335000Y-342840000D01*
X247335000Y-341790000D02*
X249835000Y-341790000D01*
X247335000Y-342840000D02*
X247335000Y-341790000D01*
X247335000Y-346960000D02*
X247335000Y-348010000D01*
X247335000Y-348010000D02*
X249835000Y-348010000D01*
X251805000Y-346840000D02*
X251805000Y-342960000D01*
%TO.C,Drgb1*%
X264120000Y-341350000D02*
X261280000Y-341350000D01*
X264120000Y-341350000D02*
X264120000Y-342000000D01*
X264120000Y-343650000D02*
X261280000Y-343650000D01*
%TO.C,Drgb4*%
X368820000Y-341350000D02*
X365980000Y-341350000D01*
X368820000Y-341350000D02*
X368820000Y-342000000D01*
X368820000Y-343650000D02*
X365980000Y-343650000D01*
%TO.C,U2*%
X351990000Y-409601000D02*
X351990000Y-410401000D01*
X351990000Y-411201000D02*
X351990000Y-410401000D01*
X355110000Y-409601000D02*
X355110000Y-410401000D01*
X355110000Y-411201000D02*
X355110000Y-410401000D01*
X352040000Y-409101000D02*
X351710000Y-409341000D01*
X351710000Y-408861000D01*
X352040000Y-409101000D01*
G36*
X352040000Y-409101000D02*
G01*
X351710000Y-409341000D01*
X351710000Y-408861000D01*
X352040000Y-409101000D01*
G37*
%TO.C,C12*%
X316849420Y-406250000D02*
X317130580Y-406250000D01*
X316849420Y-407270000D02*
X317130580Y-407270000D01*
%TO.C,R4*%
X321337258Y-400677500D02*
X320862742Y-400677500D01*
X321337258Y-401722500D02*
X320862742Y-401722500D01*
%TO.C,J6*%
X290825000Y-360240000D02*
X290825000Y-361290000D01*
X290825000Y-361290000D02*
X289835000Y-361290000D01*
X290825000Y-366460000D02*
X290825000Y-365410000D01*
X293325000Y-360240000D02*
X290825000Y-360240000D01*
X293325000Y-366460000D02*
X290825000Y-366460000D01*
X295295000Y-361410000D02*
X295295000Y-365290000D01*
%TO.C,RN6*%
X312630000Y-372920000D02*
X312630000Y-373920000D01*
X315990000Y-372920000D02*
X315990000Y-373920000D01*
%TO.C,U1*%
X338727500Y-402940000D02*
X338727500Y-403890000D01*
X338727500Y-413160000D02*
X338727500Y-412210000D01*
X339677500Y-402940000D02*
X338727500Y-402940000D01*
X339677500Y-413160000D02*
X338727500Y-413160000D01*
X347997500Y-402940000D02*
X348947500Y-402940000D01*
X347997500Y-413160000D02*
X348947500Y-413160000D01*
X348947500Y-402940000D02*
X348947500Y-403890000D01*
X348947500Y-413160000D02*
X348947500Y-412210000D01*
X348467500Y-414115000D02*
X347997500Y-413775000D01*
X348467500Y-413435000D01*
X348467500Y-414115000D01*
G36*
X348467500Y-414115000D02*
G01*
X347997500Y-413775000D01*
X348467500Y-413435000D01*
X348467500Y-414115000D01*
G37*
%TO.C,R7*%
X326277500Y-411062258D02*
X326277500Y-410587742D01*
X327322500Y-411062258D02*
X327322500Y-410587742D01*
%TO.C,RN9*%
X388350000Y-372260000D02*
X388350000Y-373260000D01*
X391710000Y-372260000D02*
X391710000Y-373260000D01*
%TD*%
M02*
