%TF.GenerationSoftware,KiCad,Pcbnew,8.99.0-2230-g1cc11bc589*%
%TF.CreationDate,2024-09-07T16:13:30+07:00*%
%TF.ProjectId,Azimuth_PCB,417a696d-7574-4685-9f50-43422e6b6963,rev?*%
%TF.SameCoordinates,Original*%
%TF.FileFunction,Soldermask,Bot*%
%TF.FilePolarity,Negative*%
%FSLAX46Y46*%
G04 Gerber Fmt 4.6, Leading zero omitted, Abs format (unit mm)*
G04 Created by KiCad (PCBNEW 8.99.0-2230-g1cc11bc589) date 2024-09-07 16:13:30*
%MOMM*%
%LPD*%
G01*
G04 APERTURE LIST*
G04 Aperture macros list*
%AMRoundRect*
0 Rectangle with rounded corners*
0 $1 Rounding radius*
0 $2 $3 $4 $5 $6 $7 $8 $9 X,Y pos of 4 corners*
0 Add a 4 corners polygon primitive as box body*
4,1,4,$2,$3,$4,$5,$6,$7,$8,$9,$2,$3,0*
0 Add four circle primitives for the rounded corners*
1,1,$1+$1,$2,$3*
1,1,$1+$1,$4,$5*
1,1,$1+$1,$6,$7*
1,1,$1+$1,$8,$9*
0 Add four rect primitives between the rounded corners*
20,1,$1+$1,$2,$3,$4,$5,0*
20,1,$1+$1,$4,$5,$6,$7,0*
20,1,$1+$1,$6,$7,$8,$9,0*
20,1,$1+$1,$8,$9,$2,$3,0*%
%AMFreePoly0*
4,1,19,0.550000,-0.750000,0.000000,-0.750000,0.000000,-0.744911,-0.071157,-0.744911,-0.207708,-0.704816,-0.327430,-0.627875,-0.420627,-0.520320,-0.479746,-0.390866,-0.500000,-0.250000,-0.500000,0.250000,-0.479746,0.390866,-0.420627,0.520320,-0.327430,0.627875,-0.207708,0.704816,-0.071157,0.744911,0.000000,0.744911,0.000000,0.750000,0.550000,0.750000,0.550000,-0.750000,0.550000,-0.750000,
$1*%
%AMFreePoly1*
4,1,19,0.000000,0.744911,0.071157,0.744911,0.207708,0.704816,0.327430,0.627875,0.420627,0.520320,0.479746,0.390866,0.500000,0.250000,0.500000,-0.250000,0.479746,-0.390866,0.420627,-0.520320,0.327430,-0.627875,0.207708,-0.704816,0.071157,-0.744911,0.000000,-0.744911,0.000000,-0.750000,-0.550000,-0.750000,-0.550000,0.750000,0.000000,0.750000,0.000000,0.744911,0.000000,0.744911,
$1*%
G04 Aperture macros list end*
%ADD10C,0.100000*%
%ADD11C,0.300000*%
%ADD12C,1.700000*%
%ADD13C,2.500000*%
%ADD14C,4.000000*%
%ADD15R,1.800000X0.836000*%
%ADD16R,1.800000X0.764000*%
%ADD17RoundRect,0.250000X0.750000X-0.600000X0.750000X0.600000X-0.750000X0.600000X-0.750000X-0.600000X0*%
%ADD18O,2.000000X1.700000*%
%ADD19R,1.400000X0.836000*%
%ADD20R,1.400000X0.764000*%
%ADD21C,3.048000*%
%ADD22C,3.987800*%
%ADD23C,0.400000*%
%ADD24RoundRect,0.250000X0.600000X0.725000X-0.600000X0.725000X-0.600000X-0.725000X0.600000X-0.725000X0*%
%ADD25O,1.700000X1.950000*%
%ADD26FreePoly0,90.000000*%
%ADD27R,1.500000X1.000000*%
%ADD28FreePoly1,90.000000*%
%ADD29RoundRect,0.150000X-0.850000X-0.150000X0.850000X-0.150000X0.850000X0.150000X-0.850000X0.150000X0*%
%ADD30RoundRect,0.200000X0.275000X-0.200000X0.275000X0.200000X-0.275000X0.200000X-0.275000X-0.200000X0*%
%ADD31RoundRect,0.200000X-0.200000X-0.275000X0.200000X-0.275000X0.200000X0.275000X-0.200000X0.275000X0*%
%ADD32RoundRect,0.250000X-0.350000X-0.650000X0.350000X-0.650000X0.350000X0.650000X-0.350000X0.650000X0*%
%ADD33RoundRect,0.150000X-0.150000X-0.625000X0.150000X-0.625000X0.150000X0.625000X-0.150000X0.625000X0*%
%ADD34RoundRect,0.150000X0.512500X0.150000X-0.512500X0.150000X-0.512500X-0.150000X0.512500X-0.150000X0*%
%ADD35RoundRect,0.200000X0.200000X0.275000X-0.200000X0.275000X-0.200000X-0.275000X0.200000X-0.275000X0*%
%ADD36RoundRect,0.225000X0.250000X-0.225000X0.250000X0.225000X-0.250000X0.225000X-0.250000X-0.225000X0*%
%ADD37R,0.700000X0.700000*%
%ADD38RoundRect,0.225000X-0.250000X0.225000X-0.250000X-0.225000X0.250000X-0.225000X0.250000X0.225000X0*%
%ADD39R,0.500000X0.800000*%
%ADD40R,0.400000X0.800000*%
%ADD41RoundRect,0.225000X0.225000X0.250000X-0.225000X0.250000X-0.225000X-0.250000X0.225000X-0.250000X0*%
%ADD42R,0.800000X0.500000*%
%ADD43R,0.800000X0.400000*%
%ADD44C,0.650000*%
%ADD45RoundRect,0.150000X-0.150000X-0.425000X0.150000X-0.425000X0.150000X0.425000X-0.150000X0.425000X0*%
%ADD46RoundRect,0.075000X-0.075000X-0.500000X0.075000X-0.500000X0.075000X0.500000X-0.075000X0.500000X0*%
%ADD47O,1.000000X1.800000*%
%ADD48O,1.000000X2.100000*%
%ADD49RoundRect,0.007500X0.267500X0.117500X-0.267500X0.117500X-0.267500X-0.117500X0.267500X-0.117500X0*%
%ADD50RoundRect,0.006000X0.269000X0.094000X-0.269000X0.094000X-0.269000X-0.094000X0.269000X-0.094000X0*%
%ADD51RoundRect,0.012000X0.138000X-0.288000X0.138000X0.288000X-0.138000X0.288000X-0.138000X-0.288000X0*%
%ADD52RoundRect,0.062500X-0.375000X-0.062500X0.375000X-0.062500X0.375000X0.062500X-0.375000X0.062500X0*%
%ADD53RoundRect,0.062500X-0.062500X-0.375000X0.062500X-0.375000X0.062500X0.375000X-0.062500X0.375000X0*%
%ADD54R,3.450000X3.450000*%
%ADD55R,2.400000X2.000000*%
%ADD56FreePoly0,270.000000*%
%ADD57FreePoly1,270.000000*%
%ADD58RoundRect,0.375000X-0.625000X-0.375000X0.625000X-0.375000X0.625000X0.375000X-0.625000X0.375000X0*%
%ADD59RoundRect,0.500000X-0.500000X-1.400000X0.500000X-1.400000X0.500000X1.400000X-0.500000X1.400000X0*%
%ADD60R,0.600000X1.760000*%
%ADD61R,0.300000X1.760000*%
%ADD62R,0.600000X1.450000*%
%ADD63O,1.000000X1.600000*%
%ADD64RoundRect,0.150000X0.150000X-0.825000X0.150000X0.825000X-0.150000X0.825000X-0.150000X-0.825000X0*%
%ADD65RoundRect,0.200000X-0.275000X0.200000X-0.275000X-0.200000X0.275000X-0.200000X0.275000X0.200000X0*%
%ADD66RoundRect,0.250000X-0.350000X-1.250000X0.350000X-1.250000X0.350000X1.250000X-0.350000X1.250000X0*%
%ADD67RoundRect,0.225000X-0.225000X-0.250000X0.225000X-0.250000X0.225000X0.250000X-0.225000X0.250000X0*%
%ADD68RoundRect,0.150000X-0.625000X0.150000X-0.625000X-0.150000X0.625000X-0.150000X0.625000X0.150000X0*%
%ADD69RoundRect,0.250000X-1.637500X0.350000X-1.637500X-0.350000X1.637500X-0.350000X1.637500X0.350000X0*%
%ADD70RoundRect,0.150000X-0.150000X0.512500X-0.150000X-0.512500X0.150000X-0.512500X0.150000X0.512500X0*%
%ADD71RoundRect,0.250000X-1.250000X0.350000X-1.250000X-0.350000X1.250000X-0.350000X1.250000X0.350000X0*%
%ADD72RoundRect,0.075000X0.075000X-0.700000X0.075000X0.700000X-0.075000X0.700000X-0.075000X-0.700000X0*%
%ADD73RoundRect,0.075000X0.700000X-0.075000X0.700000X0.075000X-0.700000X0.075000X-0.700000X-0.075000X0*%
G04 APERTURE END LIST*
D10*
X235563256Y-333810000D02*
G75*
G02*
X231136744Y-333810000I-2213256J0D01*
G01*
X231136744Y-333810000D02*
G75*
G02*
X235563256Y-333810000I2213256J0D01*
G01*
D11*
G36*
X400834810Y-414985000D02*
G01*
X401935277Y-414985000D01*
X401935277Y-413460924D01*
X401541802Y-413460924D01*
X401541802Y-414691908D01*
X400834810Y-414691908D01*
X400834810Y-414985000D01*
G37*
G36*
X399493734Y-414985000D02*
G01*
X400597315Y-414985000D01*
X400597315Y-413460924D01*
X399493734Y-413460924D01*
X399493734Y-413754016D01*
X400205946Y-413754016D01*
X400205946Y-414017798D01*
X399545025Y-414017798D01*
X399545025Y-414310889D01*
X400205946Y-414310889D01*
X400205946Y-414691908D01*
X399493734Y-414691908D01*
X399493734Y-414985000D01*
G37*
G36*
X397899047Y-413441130D02*
G01*
X398028319Y-413468236D01*
X398141389Y-413511444D01*
X398240596Y-413570202D01*
X398327688Y-413644931D01*
X398400890Y-413733452D01*
X398458496Y-413833815D01*
X398500850Y-413947719D01*
X398527395Y-414077398D01*
X398536699Y-414225526D01*
X398528192Y-414367302D01*
X398503890Y-414492019D01*
X398465103Y-414602055D01*
X398412412Y-414699424D01*
X398345640Y-414785697D01*
X398265524Y-414859927D01*
X398173878Y-414919830D01*
X398069207Y-414965882D01*
X397949478Y-414997751D01*
X397812213Y-415014309D01*
X397800676Y-415100910D01*
X397777409Y-415176883D01*
X397740305Y-415245115D01*
X397688199Y-415303920D01*
X397621666Y-415351724D01*
X397537074Y-415388733D01*
X397441933Y-415410783D01*
X397324491Y-415418775D01*
X397195069Y-415415741D01*
X397119052Y-415408517D01*
X396994488Y-415384886D01*
X396994488Y-415113960D01*
X397033415Y-415113960D01*
X397113374Y-415140246D01*
X397169201Y-415151636D01*
X397212750Y-415154993D01*
X397294862Y-415149000D01*
X397350969Y-415133622D01*
X397388055Y-415111578D01*
X397415415Y-415078997D01*
X397434341Y-415032734D01*
X397443376Y-414968238D01*
X397331561Y-414920909D01*
X397236078Y-414859658D01*
X397154909Y-414784257D01*
X397086812Y-414693557D01*
X397034117Y-414593064D01*
X396995765Y-414482634D01*
X396972024Y-414360728D01*
X396963805Y-414225526D01*
X396964002Y-414222412D01*
X397372668Y-414222412D01*
X397380061Y-414345374D01*
X397400328Y-414444246D01*
X397435885Y-414533136D01*
X397485416Y-414607827D01*
X397541486Y-414661346D01*
X397605309Y-414698045D01*
X397675563Y-414719789D01*
X397749748Y-414727079D01*
X397823971Y-414719924D01*
X397894279Y-414698594D01*
X397958080Y-414662451D01*
X398014080Y-414609842D01*
X398059101Y-414543246D01*
X398096604Y-414454412D01*
X398119400Y-414353554D01*
X398127836Y-414223511D01*
X398119294Y-414095592D01*
X398095596Y-413990595D01*
X398056802Y-413897715D01*
X398012065Y-413833059D01*
X397952948Y-413779751D01*
X397890707Y-413745406D01*
X397822821Y-413725564D01*
X397749748Y-413718845D01*
X397677322Y-413725746D01*
X397607874Y-413746413D01*
X397544369Y-413781820D01*
X397487431Y-413835074D01*
X397442458Y-413900813D01*
X397404450Y-413990046D01*
X397381256Y-414091451D01*
X397372668Y-414222412D01*
X396964002Y-414222412D01*
X396973150Y-414077458D01*
X396999816Y-413947810D01*
X397042376Y-413833906D01*
X397100287Y-413733511D01*
X397173915Y-413644931D01*
X397261382Y-413570136D01*
X397360802Y-413511363D01*
X397473894Y-413468179D01*
X397602955Y-413441110D01*
X397750756Y-413431615D01*
X397899047Y-413441130D01*
G37*
G36*
X395326432Y-414431789D02*
G01*
X395334156Y-414545369D01*
X395356067Y-414643152D01*
X395390892Y-414727619D01*
X395438242Y-414800788D01*
X395498623Y-414864099D01*
X395568338Y-414914815D01*
X395651472Y-414955979D01*
X395750233Y-414987135D01*
X395867304Y-415007156D01*
X396005763Y-415014309D01*
X396144245Y-415007151D01*
X396261267Y-414987121D01*
X396359922Y-414955960D01*
X396442908Y-414914800D01*
X396512445Y-414864099D01*
X396572651Y-414800804D01*
X396619855Y-414727726D01*
X396654564Y-414643440D01*
X396676393Y-414545950D01*
X396684086Y-414432797D01*
X396684086Y-413460924D01*
X396288596Y-413460924D01*
X396288596Y-414412555D01*
X396279929Y-414516615D01*
X396256818Y-414593346D01*
X396222009Y-414649227D01*
X396172150Y-414690357D01*
X396102348Y-414717084D01*
X396005763Y-414727079D01*
X395910304Y-414717503D01*
X395840543Y-414691827D01*
X395790066Y-414652341D01*
X395754726Y-414598071D01*
X395730956Y-414520727D01*
X395721922Y-414412555D01*
X395721922Y-413460924D01*
X395326432Y-413460924D01*
X395326432Y-414431789D01*
G37*
G36*
X394409824Y-413441110D02*
G01*
X394539112Y-413468156D01*
X394652182Y-413511260D01*
X394751372Y-413569867D01*
X394838435Y-413644381D01*
X394911656Y-413732702D01*
X394969262Y-413832825D01*
X395011609Y-413946441D01*
X395038145Y-414075780D01*
X395047445Y-414223511D01*
X395038187Y-414369792D01*
X395011732Y-414498280D01*
X394969439Y-414611554D01*
X394911805Y-414711763D01*
X394838435Y-414800535D01*
X394751318Y-414875441D01*
X394652098Y-414934327D01*
X394539027Y-414977620D01*
X394409768Y-415004777D01*
X394261502Y-415014309D01*
X394112775Y-415004765D01*
X393983217Y-414977586D01*
X393869984Y-414934278D01*
X393770718Y-414875399D01*
X393683654Y-414800535D01*
X393610249Y-414711758D01*
X393552589Y-414611546D01*
X393510279Y-414498273D01*
X393483813Y-414369787D01*
X393474552Y-414223511D01*
X393474622Y-414222412D01*
X393883415Y-414222412D01*
X393890807Y-414345374D01*
X393911075Y-414444246D01*
X393946632Y-414533136D01*
X393996163Y-414607827D01*
X394052233Y-414661346D01*
X394116056Y-414698045D01*
X394186310Y-414719789D01*
X394260495Y-414727079D01*
X394334718Y-414719924D01*
X394405026Y-414698594D01*
X394468827Y-414662451D01*
X394524827Y-414609842D01*
X394569847Y-414543246D01*
X394607350Y-414454412D01*
X394630146Y-414353554D01*
X394638583Y-414223511D01*
X394630041Y-414095592D01*
X394606343Y-413990595D01*
X394567548Y-413897715D01*
X394522812Y-413833059D01*
X394463694Y-413779751D01*
X394401454Y-413745406D01*
X394333567Y-413725564D01*
X394260495Y-413718845D01*
X394188069Y-413725746D01*
X394118620Y-413746413D01*
X394055115Y-413781820D01*
X393998178Y-413835074D01*
X393953205Y-413900813D01*
X393915197Y-413990046D01*
X393892002Y-414091451D01*
X393883415Y-414222412D01*
X393474622Y-414222412D01*
X393483894Y-414075840D01*
X393510551Y-413946533D01*
X393553103Y-413832916D01*
X393611015Y-413732761D01*
X393684662Y-413644381D01*
X393772100Y-413569800D01*
X393871503Y-413511180D01*
X393984595Y-413468098D01*
X394113672Y-413441089D01*
X394261502Y-413431615D01*
X394409824Y-413441110D01*
G37*
G36*
X392483720Y-415014309D02*
G01*
X392596249Y-415008529D01*
X392700617Y-414991664D01*
X392797786Y-414964208D01*
X392890291Y-414924783D01*
X392972421Y-414875044D01*
X393045265Y-414814823D01*
X393108205Y-414744340D01*
X393161648Y-414662290D01*
X393205641Y-414567253D01*
X393236407Y-414466786D01*
X393255745Y-414353186D01*
X393262519Y-414224519D01*
X393256181Y-414104750D01*
X393237834Y-413995733D01*
X393208205Y-413896165D01*
X393165985Y-413801551D01*
X393113443Y-413717652D01*
X393050394Y-413643374D01*
X392979992Y-413581812D01*
X392898325Y-413529647D01*
X392804014Y-413486844D01*
X392704570Y-413456548D01*
X392597825Y-413437975D01*
X392482712Y-413431615D01*
X392388705Y-413434470D01*
X392309056Y-413442423D01*
X392166082Y-413470633D01*
X392041610Y-413514322D01*
X391943699Y-413559018D01*
X391943699Y-413929870D01*
X391988762Y-413929870D01*
X392061119Y-413870794D01*
X392159945Y-413803475D01*
X392218140Y-413773112D01*
X392281853Y-413747513D01*
X392349106Y-413730512D01*
X392422262Y-413724706D01*
X392503644Y-413731305D01*
X392580074Y-413750810D01*
X392651207Y-413784965D01*
X392718376Y-413837363D01*
X392771792Y-413903189D01*
X392816287Y-413992061D01*
X392843612Y-414094269D01*
X392853656Y-414225526D01*
X392848636Y-414320652D01*
X392834693Y-414399723D01*
X392813173Y-414465220D01*
X392765923Y-414553472D01*
X392711232Y-414616712D01*
X392644727Y-414665197D01*
X392571830Y-414697129D01*
X392494813Y-414715302D01*
X392420156Y-414721217D01*
X392349038Y-414715777D01*
X392278281Y-414699327D01*
X392210450Y-414673383D01*
X392148680Y-414639976D01*
X392055440Y-414575404D01*
X391984732Y-414516053D01*
X391943699Y-414516053D01*
X391943699Y-414882509D01*
X392053425Y-414930961D01*
X392162968Y-414970070D01*
X392303377Y-415002951D01*
X392375104Y-415011065D01*
X392483720Y-415014309D01*
G37*
G36*
X389744781Y-413754016D02*
G01*
X390221237Y-413754016D01*
X390221237Y-414985000D01*
X390614713Y-414985000D01*
X390614713Y-413754016D01*
X391091169Y-413754016D01*
X391091169Y-413460924D01*
X389744781Y-413460924D01*
X389744781Y-413754016D01*
G37*
G36*
X389508201Y-414985000D02*
G01*
X389116832Y-414985000D01*
X389116832Y-414428126D01*
X388935482Y-414428126D01*
X388519384Y-414985000D01*
X388038805Y-414985000D01*
X388548143Y-414333787D01*
X388455629Y-414280615D01*
X388381816Y-414221473D01*
X388324203Y-414156375D01*
X388281987Y-414081519D01*
X388255328Y-413990814D01*
X388249674Y-413925291D01*
X388652649Y-413925291D01*
X388657918Y-413986887D01*
X388671608Y-414029613D01*
X388695373Y-414066022D01*
X388731509Y-414100688D01*
X388778576Y-414127512D01*
X388838121Y-414143278D01*
X388905490Y-414150049D01*
X388995932Y-414152620D01*
X389116832Y-414152620D01*
X389116832Y-413736430D01*
X388974408Y-413736430D01*
X388850394Y-413740094D01*
X388799179Y-413747215D01*
X388757154Y-413760335D01*
X388706911Y-413789701D01*
X388676279Y-413825731D01*
X388658851Y-413870141D01*
X388652649Y-413925291D01*
X388249674Y-413925291D01*
X388245801Y-413880411D01*
X388251960Y-413799683D01*
X388269247Y-413732271D01*
X388296543Y-413675797D01*
X388355748Y-413602179D01*
X388433288Y-413542990D01*
X388521532Y-413500643D01*
X388615737Y-413476311D01*
X388717693Y-413465097D01*
X388848287Y-413460924D01*
X389508201Y-413460924D01*
X389508201Y-414985000D01*
G37*
G36*
X387318477Y-413441110D02*
G01*
X387447765Y-413468156D01*
X387560835Y-413511260D01*
X387660026Y-413569867D01*
X387747088Y-413644381D01*
X387820309Y-413732702D01*
X387877916Y-413832825D01*
X387920262Y-413946441D01*
X387946798Y-414075780D01*
X387956099Y-414223511D01*
X387946841Y-414369792D01*
X387920385Y-414498280D01*
X387878092Y-414611554D01*
X387820458Y-414711763D01*
X387747088Y-414800535D01*
X387659971Y-414875441D01*
X387560751Y-414934327D01*
X387447680Y-414977620D01*
X387318421Y-415004777D01*
X387170156Y-415014309D01*
X387021428Y-415004765D01*
X386891870Y-414977586D01*
X386778637Y-414934278D01*
X386679371Y-414875399D01*
X386592308Y-414800535D01*
X386518902Y-414711758D01*
X386461242Y-414611546D01*
X386418933Y-414498273D01*
X386392467Y-414369787D01*
X386383205Y-414223511D01*
X386383275Y-414222412D01*
X386792068Y-414222412D01*
X386799460Y-414345374D01*
X386819728Y-414444246D01*
X386855285Y-414533136D01*
X386904816Y-414607827D01*
X386960886Y-414661346D01*
X387024709Y-414698045D01*
X387094963Y-414719789D01*
X387169148Y-414727079D01*
X387243371Y-414719924D01*
X387313679Y-414698594D01*
X387377480Y-414662451D01*
X387433480Y-414609842D01*
X387478501Y-414543246D01*
X387516004Y-414454412D01*
X387538800Y-414353554D01*
X387547236Y-414223511D01*
X387538694Y-414095592D01*
X387514996Y-413990595D01*
X387476202Y-413897715D01*
X387431465Y-413833059D01*
X387372348Y-413779751D01*
X387310107Y-413745406D01*
X387242220Y-413725564D01*
X387169148Y-413718845D01*
X387096722Y-413725746D01*
X387027274Y-413746413D01*
X386963768Y-413781820D01*
X386906831Y-413835074D01*
X386861858Y-413900813D01*
X386823850Y-413990046D01*
X386800655Y-414091451D01*
X386792068Y-414222412D01*
X386383275Y-414222412D01*
X386392547Y-414075840D01*
X386419204Y-413946533D01*
X386461756Y-413832916D01*
X386519668Y-413732761D01*
X386593315Y-413644381D01*
X386680753Y-413569800D01*
X386780156Y-413511180D01*
X386893248Y-413468098D01*
X387022325Y-413441089D01*
X387170156Y-413431615D01*
X387318477Y-413441110D01*
G37*
G36*
X384694541Y-414985000D02*
G01*
X385073728Y-414985000D01*
X385721277Y-413938938D01*
X385721277Y-414985000D01*
X386081962Y-414985000D01*
X386081962Y-413460924D01*
X385611642Y-413460924D01*
X385055226Y-414334062D01*
X385055226Y-413460924D01*
X384694541Y-413460924D01*
X384694541Y-414985000D01*
G37*
G36*
X382954860Y-414896065D02*
G01*
X383066215Y-414933419D01*
X383226427Y-414975108D01*
X383395903Y-415004584D01*
X383563574Y-415014309D01*
X383721406Y-415004785D01*
X383858570Y-414977723D01*
X383978030Y-414934771D01*
X384082291Y-414876701D01*
X384173296Y-414803374D01*
X384250631Y-414715224D01*
X384311311Y-414614901D01*
X384355859Y-414500653D01*
X384383777Y-414370110D01*
X384393572Y-414220397D01*
X384383955Y-414078851D01*
X384356294Y-413953067D01*
X384311688Y-413840666D01*
X384250286Y-413739706D01*
X384171281Y-413648777D01*
X384079292Y-413573300D01*
X383973608Y-413513536D01*
X383852210Y-413469316D01*
X383712479Y-413441435D01*
X383551301Y-413431615D01*
X383402812Y-413438529D01*
X383264438Y-413458726D01*
X383126241Y-413497235D01*
X382961088Y-413566712D01*
X382961088Y-413924009D01*
X383005143Y-413924009D01*
X383089224Y-413863925D01*
X383195744Y-413797704D01*
X383258359Y-413768371D01*
X383334596Y-413742109D01*
X383415674Y-413724766D01*
X383503124Y-413718845D01*
X383604476Y-413726793D01*
X383692718Y-413749528D01*
X383773141Y-413788257D01*
X383845400Y-413843683D01*
X383902278Y-413912070D01*
X383947341Y-413999663D01*
X383974898Y-414098872D01*
X383984710Y-414218107D01*
X383975175Y-414344395D01*
X383948582Y-414448393D01*
X383906888Y-414534156D01*
X383850529Y-414604805D01*
X383779834Y-414660705D01*
X383692676Y-414702373D01*
X383585548Y-414729146D01*
X383453940Y-414738803D01*
X383404297Y-414737795D01*
X383354563Y-414734681D01*
X383354563Y-414433988D01*
X383658829Y-414433988D01*
X383658829Y-414146758D01*
X382954860Y-414146758D01*
X382954860Y-414896065D01*
G37*
G36*
X408100369Y-410920000D02*
G01*
X407575736Y-410920000D01*
X407575736Y-410255659D01*
X407249183Y-410255659D01*
X407101350Y-410248046D01*
X406978556Y-410226919D01*
X406876957Y-410194354D01*
X406781037Y-410147377D01*
X406690818Y-410087248D01*
X406605725Y-410013126D01*
X406528041Y-409915548D01*
X406469193Y-409794528D01*
X406433241Y-409662643D01*
X406422556Y-409542103D01*
X406963663Y-409542103D01*
X406969756Y-409624697D01*
X406986256Y-409688527D01*
X407015577Y-409744064D01*
X407059284Y-409791720D01*
X407123712Y-409831635D01*
X407204853Y-409856566D01*
X407297406Y-409868208D01*
X407425404Y-409872686D01*
X407575736Y-409872686D01*
X407575736Y-409270872D01*
X407485610Y-409270872D01*
X407277882Y-409274291D01*
X407200164Y-409284588D01*
X407118025Y-409309951D01*
X407061389Y-409342715D01*
X407010191Y-409395680D01*
X406975585Y-409462095D01*
X406963663Y-409542103D01*
X406422556Y-409542103D01*
X406421322Y-409528182D01*
X406429117Y-409412489D01*
X406451210Y-409312998D01*
X406486290Y-409227152D01*
X406535750Y-409148849D01*
X406597974Y-409080521D01*
X406674113Y-409021378D01*
X406782577Y-408963753D01*
X406909808Y-408921360D01*
X407050681Y-408897050D01*
X407236971Y-408887899D01*
X408100369Y-408887899D01*
X408100369Y-410920000D01*
G37*
G36*
X405508439Y-409351004D02*
G01*
X405647705Y-409378806D01*
X405768763Y-409422912D01*
X405874211Y-409482538D01*
X405966053Y-409557857D01*
X406043900Y-409648158D01*
X406105063Y-409750912D01*
X406150005Y-409867915D01*
X406178183Y-410001572D01*
X406188070Y-410154787D01*
X406178276Y-410306724D01*
X406150331Y-410439602D01*
X406105712Y-410556236D01*
X406044932Y-410658960D01*
X405967519Y-410749518D01*
X405876210Y-410824975D01*
X405770961Y-410884775D01*
X405649699Y-410929070D01*
X405509736Y-410957033D01*
X405347875Y-410966894D01*
X405186008Y-410957032D01*
X405046058Y-410929067D01*
X404924824Y-410884770D01*
X404819613Y-410824971D01*
X404728353Y-410749518D01*
X404650892Y-410658953D01*
X404590078Y-410556225D01*
X404545436Y-410439592D01*
X404517478Y-410306718D01*
X404507852Y-410157473D01*
X405017292Y-410157473D01*
X405024135Y-410294736D01*
X405041228Y-410384863D01*
X405071673Y-410462092D01*
X405112913Y-410525303D01*
X405160181Y-410570785D01*
X405216106Y-410600652D01*
X405278199Y-410617369D01*
X405343845Y-410623000D01*
X405418985Y-410616627D01*
X405482575Y-410598576D01*
X405538711Y-410567240D01*
X405586988Y-410521151D01*
X405625451Y-410459192D01*
X405655376Y-410373995D01*
X405672347Y-410277953D01*
X405678579Y-410157473D01*
X405671245Y-410023778D01*
X405651957Y-409925321D01*
X405619176Y-409839822D01*
X405580150Y-409780118D01*
X405526704Y-409731340D01*
X405474392Y-409704159D01*
X405416583Y-409690106D01*
X405347875Y-409685108D01*
X405278673Y-409690988D01*
X405215495Y-409708189D01*
X405158888Y-409739059D01*
X405110226Y-409786957D01*
X405072645Y-409847537D01*
X405041960Y-409932159D01*
X405024055Y-410028621D01*
X405017292Y-410157473D01*
X404507852Y-410157473D01*
X404507679Y-410154787D01*
X404517423Y-410002748D01*
X404545225Y-409869732D01*
X404589612Y-409752941D01*
X404650058Y-409650053D01*
X404727009Y-409559323D01*
X404817740Y-409483727D01*
X404922743Y-409423754D01*
X405044157Y-409379269D01*
X405184765Y-409351145D01*
X405347875Y-409341214D01*
X405508439Y-409351004D01*
G37*
G36*
X403663576Y-410920000D02*
G01*
X404155359Y-410920000D01*
X404155359Y-408794110D01*
X403663576Y-408794110D01*
X403663576Y-410920000D01*
G37*
G36*
X402708098Y-410920000D02*
G01*
X403199881Y-410920000D01*
X403199881Y-408794110D01*
X402708098Y-408794110D01*
X402708098Y-410920000D01*
G37*
G36*
X401752620Y-410920000D02*
G01*
X402244403Y-410920000D01*
X402244403Y-409388108D01*
X401752620Y-409388108D01*
X401752620Y-410920000D01*
G37*
G36*
X401738942Y-409169267D02*
G01*
X402258080Y-409169267D01*
X402258080Y-408794110D01*
X401738942Y-408794110D01*
X401738942Y-409169267D01*
G37*
G36*
X399747875Y-410920000D02*
G01*
X400242344Y-410920000D01*
X400242344Y-410158328D01*
X400251992Y-409972948D01*
X400266320Y-409887208D01*
X400284720Y-409836905D01*
X400318392Y-409793188D01*
X400364710Y-409763143D01*
X400422879Y-409746442D01*
X400511500Y-409739818D01*
X400578400Y-409745182D01*
X400647543Y-409761678D01*
X400716894Y-409788859D01*
X400797142Y-409831409D01*
X400797142Y-410920000D01*
X401288925Y-410920000D01*
X401288925Y-409388108D01*
X400797142Y-409388108D01*
X400797142Y-409553217D01*
X400664812Y-409460280D01*
X400545083Y-409395924D01*
X400419275Y-409355250D01*
X400276660Y-409341214D01*
X400153413Y-409351236D01*
X400049772Y-409379508D01*
X399962168Y-409424498D01*
X399887948Y-409486294D01*
X399829909Y-409562262D01*
X399786301Y-409656960D01*
X399758095Y-409774470D01*
X399747875Y-409919947D01*
X399747875Y-410920000D01*
G37*
G36*
X398845691Y-409354457D02*
G01*
X398979609Y-409394581D01*
X399102134Y-409459143D01*
X399201625Y-409543447D01*
X399287261Y-409654196D01*
X399351957Y-409784026D01*
X399380544Y-409877511D01*
X399398750Y-409986060D01*
X399405202Y-410112044D01*
X399392182Y-410313301D01*
X399356508Y-410474051D01*
X399301949Y-410601760D01*
X399230324Y-410702501D01*
X399136832Y-410785205D01*
X399025429Y-410845313D01*
X398892495Y-410883117D01*
X398733046Y-410896552D01*
X398604700Y-410885606D01*
X398492588Y-410854176D01*
X398389283Y-410804205D01*
X398295851Y-410739382D01*
X398295851Y-410767958D01*
X398301028Y-410859376D01*
X398315024Y-410930868D01*
X398340489Y-410993805D01*
X398376451Y-411042365D01*
X398428904Y-411081773D01*
X398506999Y-411113684D01*
X398598919Y-411131817D01*
X398729016Y-411138841D01*
X398834312Y-411132011D01*
X398961290Y-411109532D01*
X399085648Y-411077484D01*
X399181231Y-411045052D01*
X399241315Y-411045052D01*
X399241315Y-411432177D01*
X399122502Y-411456818D01*
X398972892Y-411479071D01*
X398817032Y-411493517D01*
X398657941Y-411498367D01*
X398466678Y-411488466D01*
X398304766Y-411460753D01*
X398203090Y-411429611D01*
X398114557Y-411388787D01*
X398037564Y-411338632D01*
X397970598Y-411277452D01*
X397913283Y-411201292D01*
X397865495Y-411107944D01*
X397832696Y-411007785D01*
X397811536Y-410887930D01*
X397803946Y-410744877D01*
X397803946Y-409739085D01*
X398295851Y-409739085D01*
X398295851Y-410436399D01*
X398357177Y-410470844D01*
X398425666Y-410498192D01*
X398497530Y-410515613D01*
X398570502Y-410521395D01*
X398675306Y-410510469D01*
X398755078Y-410480604D01*
X398815722Y-410433712D01*
X398857732Y-410369365D01*
X398886970Y-410270575D01*
X398898398Y-410124134D01*
X398886352Y-409994106D01*
X398853229Y-409892267D01*
X398801434Y-409812480D01*
X398729436Y-409752440D01*
X398634809Y-409714551D01*
X398510418Y-409700739D01*
X398399776Y-409710997D01*
X398295851Y-409739085D01*
X397803946Y-409739085D01*
X397803946Y-409388108D01*
X398280830Y-409388108D01*
X398298538Y-409451978D01*
X398385606Y-409406011D01*
X398483674Y-409370645D01*
X398588765Y-409348872D01*
X398709720Y-409341214D01*
X398845691Y-409354457D01*
G37*
G36*
X395270415Y-409864870D02*
G01*
X395314134Y-409864870D01*
X395415251Y-409847285D01*
X395531388Y-409841423D01*
X395633595Y-409845043D01*
X395717257Y-409854979D01*
X395798819Y-409872706D01*
X395890792Y-409901018D01*
X395890792Y-410920000D01*
X396382575Y-410920000D01*
X396382575Y-409388108D01*
X395890792Y-409388108D01*
X395890792Y-409613545D01*
X395777917Y-409524811D01*
X395684753Y-409466152D01*
X395607958Y-409431217D01*
X395489141Y-409398248D01*
X395386552Y-409388108D01*
X395327812Y-409389574D01*
X395270415Y-409393604D01*
X395270415Y-409864870D01*
G37*
G36*
X394542839Y-409348190D02*
G01*
X394718792Y-409369180D01*
X394972194Y-409417540D01*
X394972194Y-409786713D01*
X394927131Y-409786713D01*
X394729050Y-409720401D01*
X394592313Y-409687604D01*
X394469420Y-409677292D01*
X394334092Y-409683904D01*
X394234665Y-409701251D01*
X394163384Y-409726263D01*
X394106086Y-409767314D01*
X394071897Y-409824527D01*
X394059581Y-409903461D01*
X394059581Y-409911765D01*
X394274847Y-409927712D01*
X394479068Y-409950233D01*
X394671717Y-409987079D01*
X394817833Y-410038161D01*
X394904926Y-410085771D01*
X394975288Y-410142048D01*
X395031057Y-410207177D01*
X395071426Y-410282045D01*
X395097008Y-410372828D01*
X395106161Y-410483293D01*
X395096551Y-410586351D01*
X395068774Y-410677129D01*
X395023211Y-410758068D01*
X394958639Y-410830851D01*
X394881068Y-410889978D01*
X394795353Y-410932133D01*
X394699886Y-410957960D01*
X394592519Y-410966894D01*
X394501721Y-410962231D01*
X394421793Y-410948942D01*
X394345268Y-410926935D01*
X394271461Y-410896796D01*
X394160819Y-410829874D01*
X394062390Y-410757456D01*
X394062390Y-410920000D01*
X393574637Y-410920000D01*
X393574637Y-410521273D01*
X394062390Y-410521273D01*
X394123786Y-410565452D01*
X394195624Y-410600774D01*
X394271760Y-410623487D01*
X394345101Y-410630816D01*
X394431878Y-410626961D01*
X394481755Y-410617871D01*
X394522812Y-410601004D01*
X394556859Y-410577449D01*
X394584366Y-410548223D01*
X394597892Y-410519930D01*
X394606074Y-410441894D01*
X394595814Y-410374836D01*
X394567117Y-410324902D01*
X394521379Y-410286837D01*
X394454399Y-410257124D01*
X394387082Y-410240452D01*
X394278300Y-410223541D01*
X394062390Y-410200949D01*
X394062390Y-410521273D01*
X393574637Y-410521273D01*
X393574637Y-409875617D01*
X393587601Y-409740233D01*
X393623772Y-409630890D01*
X393681241Y-409542135D01*
X393761116Y-409470418D01*
X393854840Y-409419652D01*
X393981283Y-409379050D01*
X394148774Y-409351508D01*
X394366960Y-409341214D01*
X394542839Y-409348190D01*
G37*
G36*
X392140443Y-410907299D02*
G01*
X392308482Y-410939539D01*
X392525736Y-410951263D01*
X392672217Y-410942532D01*
X392788717Y-410918701D01*
X392880689Y-410882511D01*
X392952672Y-410835491D01*
X393009990Y-410773103D01*
X393053488Y-410690044D01*
X393082149Y-410581053D01*
X393092745Y-410439207D01*
X393092745Y-409724187D01*
X393294979Y-409724187D01*
X393294979Y-409388108D01*
X393092745Y-409388108D01*
X393092745Y-408950425D01*
X392600963Y-408950425D01*
X392600963Y-409388108D01*
X392140443Y-409388108D01*
X392140443Y-409724187D01*
X392600963Y-409724187D01*
X392600963Y-410264818D01*
X392599619Y-410404647D01*
X392593289Y-410462282D01*
X392577759Y-410511992D01*
X392551632Y-410554165D01*
X392510104Y-410587341D01*
X392455235Y-410607251D01*
X392368688Y-410615184D01*
X392268182Y-410598698D01*
X392181475Y-410568290D01*
X392140443Y-410568290D01*
X392140443Y-410907299D01*
G37*
G36*
X391252056Y-409351199D02*
G01*
X391395261Y-409379625D01*
X391520492Y-409424837D01*
X391630278Y-409486093D01*
X391726573Y-409563597D01*
X391808832Y-409656725D01*
X391873059Y-409761606D01*
X391919973Y-409879904D01*
X391949233Y-410013901D01*
X391959459Y-410166388D01*
X391948565Y-410320472D01*
X391917566Y-410453796D01*
X391868075Y-410569677D01*
X391800420Y-410670772D01*
X391713628Y-410758921D01*
X391614064Y-410829450D01*
X391496632Y-410886521D01*
X391358502Y-410929552D01*
X391196244Y-410957093D01*
X391005935Y-410966894D01*
X390831122Y-410959011D01*
X390679382Y-410936730D01*
X390530696Y-410898436D01*
X390365163Y-410839399D01*
X390365163Y-410443237D01*
X390419752Y-410443237D01*
X390514048Y-410503506D01*
X390650683Y-410565847D01*
X390799390Y-410608740D01*
X390952568Y-410623000D01*
X391114290Y-410610474D01*
X391235337Y-410576955D01*
X391324916Y-410526524D01*
X391395347Y-410454037D01*
X391441068Y-410362889D01*
X391462180Y-410247843D01*
X390336465Y-410247843D01*
X390336465Y-410075530D01*
X390345271Y-409958660D01*
X390825561Y-409958660D01*
X391463524Y-409958660D01*
X391445646Y-409853571D01*
X391410945Y-409776341D01*
X391361186Y-409720401D01*
X391296481Y-409679994D01*
X391219602Y-409654900D01*
X391127445Y-409646029D01*
X391028520Y-409656027D01*
X390955545Y-409682953D01*
X390902131Y-409724553D01*
X390863485Y-409781261D01*
X390837227Y-409857390D01*
X390825561Y-409958660D01*
X390345271Y-409958660D01*
X390349851Y-409897880D01*
X390387206Y-409751395D01*
X390445800Y-409630428D01*
X390525020Y-409530624D01*
X390624336Y-409451789D01*
X390747560Y-409392882D01*
X390899862Y-409354933D01*
X391087878Y-409341214D01*
X391252056Y-409351199D01*
G37*
G36*
X388447735Y-409927397D02*
G01*
X388958691Y-409927397D01*
X388958691Y-409388108D01*
X388447735Y-409388108D01*
X388447735Y-409927397D01*
G37*
G36*
X388447735Y-410920000D02*
G01*
X388958691Y-410920000D01*
X388958691Y-410380711D01*
X388447735Y-410380711D01*
X388447735Y-410920000D01*
G37*
G36*
X386368715Y-408859572D02*
G01*
X386523839Y-408889925D01*
X386656942Y-408937750D01*
X386771252Y-409001960D01*
X386872567Y-409087453D01*
X386941072Y-409180074D01*
X386981485Y-409281530D01*
X386995223Y-409395069D01*
X386985632Y-409500939D01*
X386957777Y-409595531D01*
X386911936Y-409681078D01*
X386849183Y-409755388D01*
X386763660Y-409823609D01*
X386650963Y-409885631D01*
X386650963Y-409893813D01*
X386793169Y-409961420D01*
X386893308Y-410029988D01*
X386960418Y-410099099D01*
X387010041Y-410181011D01*
X387039704Y-410269956D01*
X387049811Y-410368133D01*
X387037223Y-410488022D01*
X386999986Y-410598576D01*
X386937548Y-410697680D01*
X386846235Y-410785544D01*
X386731012Y-410856186D01*
X386579888Y-410913039D01*
X386410146Y-410946653D01*
X386193251Y-410959078D01*
X385990213Y-410946808D01*
X385820642Y-410912559D01*
X385679197Y-410859233D01*
X385561395Y-410788353D01*
X385458355Y-410694189D01*
X385387733Y-410591198D01*
X385345607Y-410477364D01*
X385333462Y-410369354D01*
X385853021Y-410369354D01*
X385861187Y-410435654D01*
X385883063Y-410482316D01*
X385917289Y-410520743D01*
X385962320Y-410554979D01*
X386007637Y-410577880D01*
X386063436Y-410594668D01*
X386165896Y-410607369D01*
X386272387Y-410597383D01*
X386359703Y-410569371D01*
X386431755Y-410524692D01*
X386488089Y-410463483D01*
X386521746Y-410390527D01*
X386533482Y-410302065D01*
X386521553Y-410213385D01*
X386486343Y-410134759D01*
X386435546Y-410064699D01*
X386380464Y-410007630D01*
X386235628Y-410058799D01*
X386104469Y-410108503D01*
X385966440Y-410175652D01*
X385902236Y-410222808D01*
X385876029Y-410258962D01*
X385859200Y-410306644D01*
X385853021Y-410369354D01*
X385333462Y-410369354D01*
X385331196Y-410349204D01*
X385342986Y-410229733D01*
X385377188Y-410124091D01*
X385433656Y-410029368D01*
X385509912Y-409948857D01*
X385613223Y-409876838D01*
X385749218Y-409813824D01*
X385749218Y-409805642D01*
X385629835Y-409745877D01*
X385539557Y-409682086D01*
X385473346Y-409614644D01*
X385423008Y-409535724D01*
X385393193Y-409451030D01*
X385389981Y-409421570D01*
X385895397Y-409421570D01*
X385902736Y-409501337D01*
X385922752Y-409562742D01*
X385956471Y-409620082D01*
X386012878Y-409691824D01*
X386173468Y-409639312D01*
X386277882Y-409599989D01*
X386372783Y-409552685D01*
X386427480Y-409512062D01*
X386461180Y-409461157D01*
X386473276Y-409389574D01*
X386466744Y-409345329D01*
X386447386Y-409306409D01*
X386418020Y-409273342D01*
X386381685Y-409247180D01*
X386288262Y-409212498D01*
X386187756Y-409200530D01*
X386101254Y-409207912D01*
X386031593Y-409228382D01*
X385975387Y-409260491D01*
X385930740Y-409305272D01*
X385904474Y-409358061D01*
X385895397Y-409421570D01*
X385389981Y-409421570D01*
X385383098Y-409358433D01*
X385396380Y-409248672D01*
X385435182Y-409152282D01*
X385500568Y-409065894D01*
X385596933Y-408987794D01*
X385705060Y-408930737D01*
X385836519Y-408887217D01*
X385995719Y-408858992D01*
X386187756Y-408848820D01*
X386368715Y-408859572D01*
G37*
G36*
X384349716Y-408856914D02*
G01*
X384477159Y-408879745D01*
X384586622Y-408915621D01*
X384688292Y-408968036D01*
X384775197Y-409034477D01*
X384848939Y-409115655D01*
X384908783Y-409209396D01*
X384958189Y-409318496D01*
X384996584Y-409445139D01*
X385030522Y-409648782D01*
X385042990Y-409903949D01*
X385031030Y-410152320D01*
X384997927Y-410357997D01*
X384960200Y-410486879D01*
X384911239Y-410596555D01*
X384851748Y-410689556D01*
X384778857Y-410770797D01*
X384692416Y-410837741D01*
X384590774Y-410891057D01*
X384481226Y-410927502D01*
X384352500Y-410950791D01*
X384201329Y-410959078D01*
X384047403Y-410950770D01*
X383918446Y-410927603D01*
X383810662Y-410891667D01*
X383710606Y-410839064D01*
X383624550Y-410772825D01*
X383551032Y-410692243D01*
X383493417Y-410601997D01*
X383444872Y-410492576D01*
X383406318Y-410360806D01*
X383372068Y-410151400D01*
X383359790Y-409902606D01*
X383888576Y-409902606D01*
X383899034Y-410147109D01*
X383925622Y-410314782D01*
X383962337Y-410424797D01*
X384006584Y-410496431D01*
X384059974Y-410544808D01*
X384123782Y-410573794D01*
X384201329Y-410583921D01*
X384278940Y-410573791D01*
X384342787Y-410544800D01*
X384396195Y-410496422D01*
X384440443Y-410424797D01*
X384477201Y-410314830D01*
X384503769Y-410147921D01*
X384514204Y-409905293D01*
X384503817Y-409655834D01*
X384477607Y-409487619D01*
X384441786Y-409379682D01*
X384398344Y-409310049D01*
X384345095Y-409262666D01*
X384280594Y-409234042D01*
X384201329Y-409223977D01*
X384122129Y-409234039D01*
X384057667Y-409262658D01*
X384004435Y-409310040D01*
X383960994Y-409379682D01*
X383925132Y-409487568D01*
X383898941Y-409655023D01*
X383888576Y-409902606D01*
X383359790Y-409902606D01*
X383371791Y-409654549D01*
X383404853Y-409451245D01*
X383442361Y-409324073D01*
X383490857Y-409215276D01*
X383549689Y-409122494D01*
X383623431Y-409039251D01*
X383709509Y-408971236D01*
X383809319Y-408917575D01*
X383917110Y-408880942D01*
X384046468Y-408857306D01*
X384201329Y-408848820D01*
X384349716Y-408856914D01*
G37*
G36*
X382360602Y-408856914D02*
G01*
X382488045Y-408879745D01*
X382597508Y-408915621D01*
X382699179Y-408968036D01*
X382786083Y-409034477D01*
X382859825Y-409115655D01*
X382919669Y-409209396D01*
X382969075Y-409318496D01*
X383007470Y-409445139D01*
X383041408Y-409648782D01*
X383053876Y-409903949D01*
X383041916Y-410152320D01*
X383008813Y-410357997D01*
X382971086Y-410486879D01*
X382922125Y-410596555D01*
X382862634Y-410689556D01*
X382789743Y-410770797D01*
X382703302Y-410837741D01*
X382601660Y-410891057D01*
X382492112Y-410927502D01*
X382363386Y-410950791D01*
X382212215Y-410959078D01*
X382058289Y-410950770D01*
X381929332Y-410927603D01*
X381821549Y-410891667D01*
X381721492Y-410839064D01*
X381635436Y-410772825D01*
X381561919Y-410692243D01*
X381504303Y-410601997D01*
X381455758Y-410492576D01*
X381417205Y-410360806D01*
X381382954Y-410151400D01*
X381370676Y-409902606D01*
X381899462Y-409902606D01*
X381909920Y-410147109D01*
X381936508Y-410314782D01*
X381973224Y-410424797D01*
X382017470Y-410496431D01*
X382070860Y-410544808D01*
X382134669Y-410573794D01*
X382212215Y-410583921D01*
X382289826Y-410573791D01*
X382353673Y-410544800D01*
X382407081Y-410496422D01*
X382451329Y-410424797D01*
X382488087Y-410314830D01*
X382514655Y-410147921D01*
X382525090Y-409905293D01*
X382514703Y-409655834D01*
X382488493Y-409487619D01*
X382452672Y-409379682D01*
X382409230Y-409310049D01*
X382355981Y-409262666D01*
X382291480Y-409234042D01*
X382212215Y-409223977D01*
X382133015Y-409234039D01*
X382068553Y-409262658D01*
X382015322Y-409310040D01*
X381971880Y-409379682D01*
X381936018Y-409487568D01*
X381909827Y-409655023D01*
X381899462Y-409902606D01*
X381370676Y-409902606D01*
X381382677Y-409654549D01*
X381415739Y-409451245D01*
X381453247Y-409324073D01*
X381501743Y-409215276D01*
X381560575Y-409122494D01*
X381634317Y-409039251D01*
X381720396Y-408971236D01*
X381820205Y-408917575D01*
X381927996Y-408880942D01*
X382057354Y-408857306D01*
X382212215Y-408848820D01*
X382360602Y-408856914D01*
G37*
G36*
X380371488Y-408856914D02*
G01*
X380498932Y-408879745D01*
X380608394Y-408915621D01*
X380710065Y-408968036D01*
X380796970Y-409034477D01*
X380870711Y-409115655D01*
X380930555Y-409209396D01*
X380979961Y-409318496D01*
X381018356Y-409445139D01*
X381052294Y-409648782D01*
X381064762Y-409903949D01*
X381052802Y-410152320D01*
X381019699Y-410357997D01*
X380981972Y-410486879D01*
X380933012Y-410596555D01*
X380873520Y-410689556D01*
X380800629Y-410770797D01*
X380714189Y-410837741D01*
X380612547Y-410891057D01*
X380502998Y-410927502D01*
X380374272Y-410950791D01*
X380223101Y-410959078D01*
X380069176Y-410950770D01*
X379940219Y-410927603D01*
X379832435Y-410891667D01*
X379732378Y-410839064D01*
X379646322Y-410772825D01*
X379572805Y-410692243D01*
X379515190Y-410601997D01*
X379466644Y-410492576D01*
X379428091Y-410360806D01*
X379393840Y-410151400D01*
X379381563Y-409902606D01*
X379910348Y-409902606D01*
X379920807Y-410147109D01*
X379947395Y-410314782D01*
X379984110Y-410424797D01*
X380028357Y-410496431D01*
X380081747Y-410544808D01*
X380145555Y-410573794D01*
X380223101Y-410583921D01*
X380300713Y-410573791D01*
X380364560Y-410544800D01*
X380417968Y-410496422D01*
X380462215Y-410424797D01*
X380498973Y-410314830D01*
X380525541Y-410147921D01*
X380535976Y-409905293D01*
X380525590Y-409655834D01*
X380499379Y-409487619D01*
X380463558Y-409379682D01*
X380420116Y-409310049D01*
X380366867Y-409262666D01*
X380302366Y-409234042D01*
X380223101Y-409223977D01*
X380143902Y-409234039D01*
X380079439Y-409262658D01*
X380026208Y-409310040D01*
X379982766Y-409379682D01*
X379946904Y-409487568D01*
X379920714Y-409655023D01*
X379910348Y-409902606D01*
X379381563Y-409902606D01*
X379393564Y-409654549D01*
X379426625Y-409451245D01*
X379464133Y-409324073D01*
X379512629Y-409215276D01*
X379571461Y-409122494D01*
X379645203Y-409039251D01*
X379731282Y-408971236D01*
X379831092Y-408917575D01*
X379938882Y-408880942D01*
X380068241Y-408857306D01*
X380223101Y-408848820D01*
X380371488Y-408856914D01*
G37*
G36*
X377455341Y-410920000D02*
G01*
X377949811Y-410920000D01*
X377949811Y-410158328D01*
X377959459Y-409972948D01*
X377973787Y-409887208D01*
X377992187Y-409836905D01*
X378025859Y-409793188D01*
X378072177Y-409763143D01*
X378130346Y-409746442D01*
X378218967Y-409739818D01*
X378285866Y-409745182D01*
X378355010Y-409761678D01*
X378424361Y-409788859D01*
X378504609Y-409831409D01*
X378504609Y-410920000D01*
X378996392Y-410920000D01*
X378996392Y-408794110D01*
X378504609Y-408794110D01*
X378504609Y-409553217D01*
X378372279Y-409460280D01*
X378252550Y-409395924D01*
X378126741Y-409355250D01*
X377984127Y-409341214D01*
X377860880Y-409351236D01*
X377757239Y-409379508D01*
X377669635Y-409424498D01*
X377595415Y-409486294D01*
X377537376Y-409562262D01*
X377493768Y-409656960D01*
X377465562Y-409774470D01*
X377455341Y-409919947D01*
X377455341Y-410920000D01*
G37*
G36*
X375679452Y-410920000D02*
G01*
X377120851Y-410920000D01*
X377120851Y-410611032D01*
X376312041Y-409747634D01*
X377088122Y-409747634D01*
X377088122Y-409388108D01*
X375694473Y-409388108D01*
X375694473Y-409698419D01*
X376491071Y-410560474D01*
X375679452Y-410560474D01*
X375679452Y-410920000D01*
G37*
D12*
%TO.C,SW13*%
X456852500Y-333800000D03*
D13*
X458122500Y-331250000D03*
D14*
X461932500Y-333800000D03*
D13*
X464472500Y-328720000D03*
D12*
X467012500Y-333800000D03*
D15*
X463532500Y-338218000D03*
X460332500Y-338218000D03*
D16*
X463532500Y-339418000D03*
X460332500Y-339418000D03*
%TD*%
D12*
%TO.C,SW5*%
X304452500Y-333800000D03*
D13*
X305722500Y-331250000D03*
D14*
X309532500Y-333800000D03*
D13*
X312072500Y-328720000D03*
D12*
X314612500Y-333800000D03*
D15*
X311132500Y-338218000D03*
X307932500Y-338218000D03*
D16*
X311132500Y-339418000D03*
X307932500Y-339418000D03*
%TD*%
D12*
%TO.C,SW32*%
X299690000Y-371900000D03*
D13*
X300960000Y-369350000D03*
D14*
X304770000Y-371900000D03*
D13*
X307310000Y-366820000D03*
D12*
X309850000Y-371900000D03*
D15*
X306370000Y-376318000D03*
X303170000Y-376318000D03*
D16*
X306370000Y-377518000D03*
X303170000Y-377518000D03*
%TD*%
D12*
%TO.C,SW16*%
X256827500Y-352850000D03*
D13*
X258097500Y-350300000D03*
D14*
X261907500Y-352850000D03*
D13*
X264447500Y-347770000D03*
D12*
X266987500Y-352850000D03*
D15*
X263507500Y-357268000D03*
X260307500Y-357268000D03*
D16*
X263507500Y-358468000D03*
X260307500Y-358468000D03*
%TD*%
D12*
%TO.C,SW37*%
X394940000Y-371900000D03*
D13*
X396210000Y-369350000D03*
D14*
X400020000Y-371900000D03*
D13*
X402560000Y-366820000D03*
D12*
X405100000Y-371900000D03*
D15*
X401620000Y-376318000D03*
X398420000Y-376318000D03*
D16*
X401620000Y-377518000D03*
X398420000Y-377518000D03*
%TD*%
D12*
%TO.C,SW49*%
X366365000Y-390950000D03*
D13*
X367635000Y-388400000D03*
D14*
X371445000Y-390950000D03*
D13*
X373985000Y-385870000D03*
D12*
X376525000Y-390950000D03*
D15*
X373045000Y-395368000D03*
X369845000Y-395368000D03*
D16*
X373045000Y-396568000D03*
X369845000Y-396568000D03*
%TD*%
D12*
%TO.C,SW62*%
X490190500Y-410000000D03*
D13*
X491460500Y-407450000D03*
D14*
X495270500Y-410000000D03*
D13*
X497810500Y-404920000D03*
D12*
X500350500Y-410000000D03*
D15*
X496870500Y-414418000D03*
X493670500Y-414418000D03*
D16*
X496870500Y-415618000D03*
X493670500Y-415618000D03*
%TD*%
D12*
%TO.C,SW38*%
X413990000Y-371900000D03*
D13*
X415260000Y-369350000D03*
D14*
X419070000Y-371900000D03*
D13*
X421610000Y-366820000D03*
D12*
X424150000Y-371900000D03*
D15*
X420670000Y-376318000D03*
X417470000Y-376318000D03*
D16*
X420670000Y-377518000D03*
X417470000Y-377518000D03*
%TD*%
D12*
%TO.C,SW15*%
X233015500Y-352850000D03*
D13*
X234285500Y-350300000D03*
D14*
X238095500Y-352850000D03*
D13*
X240635500Y-347770000D03*
D12*
X243175500Y-352850000D03*
D15*
X239695500Y-357268000D03*
X236495500Y-357268000D03*
D16*
X239695500Y-358468000D03*
X236495500Y-358468000D03*
%TD*%
D17*
%TO.C,SWboot2*%
X228475000Y-410450000D03*
D18*
X228475000Y-407950000D03*
%TD*%
D12*
%TO.C,SW60*%
X442565500Y-410000000D03*
D13*
X443835500Y-407450000D03*
D14*
X447645500Y-410000000D03*
D13*
X450185500Y-404920000D03*
D12*
X452725500Y-410000000D03*
D15*
X449245500Y-414418000D03*
X446045500Y-414418000D03*
D16*
X449245500Y-415618000D03*
X446045500Y-415618000D03*
%TD*%
D12*
%TO.C,SW47*%
X328265000Y-390950000D03*
D13*
X329535000Y-388400000D03*
D14*
X333345000Y-390950000D03*
D13*
X335885000Y-385870000D03*
D12*
X338425000Y-390950000D03*
D15*
X334945000Y-395368000D03*
X331745000Y-395368000D03*
D16*
X334945000Y-396568000D03*
X331745000Y-396568000D03*
%TD*%
D12*
%TO.C,SW54*%
X468759000Y-390950000D03*
D13*
X470029000Y-388400000D03*
D14*
X473839000Y-390950000D03*
D13*
X476379000Y-385870000D03*
D12*
X478919000Y-390950000D03*
D15*
X475439000Y-395368000D03*
X472239000Y-395368000D03*
D16*
X475439000Y-396568000D03*
X472239000Y-396568000D03*
%TD*%
D12*
%TO.C,SW29*%
X235396500Y-371900000D03*
D13*
X236666500Y-369350000D03*
D14*
X240476500Y-371900000D03*
D13*
X243016500Y-366820000D03*
D12*
X245556500Y-371900000D03*
D15*
X242076500Y-376318000D03*
D19*
X239076500Y-376318000D03*
D16*
X242076500Y-377518000D03*
D20*
X239076500Y-377518000D03*
%TD*%
D12*
%TO.C,SW40*%
X452090000Y-371900000D03*
D13*
X453360000Y-369350000D03*
D14*
X457170000Y-371900000D03*
D13*
X459710000Y-366820000D03*
D12*
X462250000Y-371900000D03*
D15*
X458770000Y-376318000D03*
X455570000Y-376318000D03*
D16*
X458770000Y-377518000D03*
X455570000Y-377518000D03*
%TD*%
D12*
%TO.C,SW25*%
X428277500Y-352850000D03*
D13*
X429547500Y-350300000D03*
D14*
X433357500Y-352850000D03*
D13*
X435897500Y-347770000D03*
D12*
X438437500Y-352850000D03*
D15*
X434957500Y-357268000D03*
X431757500Y-357268000D03*
D16*
X434957500Y-358468000D03*
X431757500Y-358468000D03*
%TD*%
D12*
%TO.C,SW20*%
X333027500Y-352850000D03*
D13*
X334297500Y-350300000D03*
D14*
X338107500Y-352850000D03*
D13*
X340647500Y-347770000D03*
D12*
X343187500Y-352850000D03*
D15*
X339707500Y-357268000D03*
X336507500Y-357268000D03*
D16*
X339707500Y-358468000D03*
X336507500Y-358468000D03*
%TD*%
D12*
%TO.C,SW53*%
X442565000Y-390950000D03*
D13*
X443835000Y-388400000D03*
D14*
X447645000Y-390950000D03*
D13*
X450185000Y-385870000D03*
D12*
X452725000Y-390950000D03*
D15*
X449245000Y-395368000D03*
X446045000Y-395368000D03*
D16*
X449245000Y-396568000D03*
X446045000Y-396568000D03*
%TD*%
D12*
%TO.C,SW2*%
X247302500Y-333800000D03*
D13*
X248572500Y-331250000D03*
D14*
X252382500Y-333800000D03*
D13*
X254922500Y-328720000D03*
D12*
X257462500Y-333800000D03*
D15*
X253982500Y-338218000D03*
X250782500Y-338218000D03*
D16*
X253982500Y-339418000D03*
X250782500Y-339418000D03*
%TD*%
D12*
%TO.C,SW36*%
X375890000Y-371900000D03*
D13*
X377160000Y-369350000D03*
D14*
X380970000Y-371900000D03*
D13*
X383510000Y-366820000D03*
D12*
X386050000Y-371900000D03*
D15*
X382570000Y-376318000D03*
X379370000Y-376318000D03*
D16*
X382570000Y-377518000D03*
X379370000Y-377518000D03*
%TD*%
D12*
%TO.C,SW9*%
X380652500Y-333800000D03*
D13*
X381922500Y-331250000D03*
D14*
X385732500Y-333800000D03*
D13*
X388272500Y-328720000D03*
D12*
X390812500Y-333800000D03*
D15*
X387332500Y-338218000D03*
X384132500Y-338218000D03*
D16*
X387332500Y-339418000D03*
X384132500Y-339418000D03*
%TD*%
D12*
%TO.C,SW6*%
X323502500Y-333800000D03*
D13*
X324772500Y-331250000D03*
D14*
X328582500Y-333800000D03*
D13*
X331122500Y-328720000D03*
D12*
X333662500Y-333800000D03*
D15*
X330182500Y-338218000D03*
X326982500Y-338218000D03*
D16*
X330182500Y-339418000D03*
X326982500Y-339418000D03*
%TD*%
D12*
%TO.C,SW17*%
X275877500Y-352850000D03*
D13*
X277147500Y-350300000D03*
D14*
X280957500Y-352850000D03*
D13*
X283497500Y-347770000D03*
D12*
X286037500Y-352850000D03*
D15*
X282557500Y-357268000D03*
X279357500Y-357268000D03*
D16*
X282557500Y-358468000D03*
X279357500Y-358468000D03*
%TD*%
D12*
%TO.C,SW28*%
X490190500Y-352850000D03*
D13*
X491460500Y-350300000D03*
D14*
X495270500Y-352850000D03*
D13*
X497810500Y-347770000D03*
D12*
X500350500Y-352850000D03*
D15*
X496870500Y-357268000D03*
X493670500Y-357268000D03*
D16*
X496870500Y-358468000D03*
X493670500Y-358468000D03*
%TD*%
D21*
%TO.C,SW2001*%
X471426000Y-383965000D03*
D22*
X471426000Y-399205000D03*
D12*
X478284000Y-390950000D03*
D13*
X479554000Y-388400000D03*
D14*
X483364000Y-390950000D03*
D13*
X485904000Y-385870000D03*
D12*
X488444000Y-390950000D03*
D21*
X495302000Y-383965000D03*
D22*
X495302000Y-399205000D03*
D15*
X484964000Y-395368000D03*
X481764000Y-395368000D03*
D16*
X484964000Y-396568000D03*
X481764000Y-396568000D03*
%TD*%
D12*
%TO.C,SW39*%
X433040000Y-371900000D03*
D13*
X434310000Y-369350000D03*
D14*
X438120000Y-371900000D03*
D13*
X440660000Y-366820000D03*
D12*
X443200000Y-371900000D03*
D15*
X439720000Y-376318000D03*
X436520000Y-376318000D03*
D16*
X439720000Y-377518000D03*
X436520000Y-377518000D03*
%TD*%
D12*
%TO.C,SW23*%
X390177500Y-352850000D03*
D13*
X391447500Y-350300000D03*
D14*
X395257500Y-352850000D03*
D13*
X397797500Y-347770000D03*
D12*
X400337500Y-352850000D03*
D15*
X396857500Y-357268000D03*
X393657500Y-357268000D03*
D16*
X396857500Y-358468000D03*
X393657500Y-358468000D03*
%TD*%
D22*
%TO.C,SW59*%
X309532500Y-401740000D03*
D21*
X309532500Y-416980000D03*
D12*
X361602500Y-409995000D03*
D13*
X362872500Y-407445000D03*
D14*
X366682500Y-409995000D03*
D13*
X369222500Y-404915000D03*
D12*
X371762500Y-409995000D03*
D22*
X423832500Y-401740000D03*
D21*
X423832500Y-416980000D03*
D15*
X368282500Y-414413000D03*
X365082500Y-414413000D03*
D16*
X368282500Y-415613000D03*
X365082500Y-415613000D03*
%TD*%
D12*
%TO.C,SW58*%
X280640500Y-410000000D03*
D13*
X281910500Y-407450000D03*
D14*
X285720500Y-410000000D03*
D13*
X288260500Y-404920000D03*
D12*
X290800500Y-410000000D03*
D15*
X287320500Y-414418000D03*
X284120500Y-414418000D03*
D16*
X287320500Y-415618000D03*
X284120500Y-415618000D03*
%TD*%
D12*
%TO.C,SW61*%
X466377500Y-410000000D03*
D13*
X467647500Y-407450000D03*
D14*
X471457500Y-410000000D03*
D13*
X473997500Y-404920000D03*
D12*
X476537500Y-410000000D03*
D15*
X473057500Y-414418000D03*
X469857500Y-414418000D03*
D16*
X473057500Y-415618000D03*
X469857500Y-415618000D03*
%TD*%
D12*
%TO.C,SW12*%
X437802500Y-333800000D03*
D13*
X439072500Y-331250000D03*
D14*
X442882500Y-333800000D03*
D13*
X445422500Y-328720000D03*
D12*
X447962500Y-333800000D03*
D15*
X444482500Y-338218000D03*
X441282500Y-338218000D03*
D16*
X444482500Y-339418000D03*
X441282500Y-339418000D03*
%TD*%
D12*
%TO.C,SW34*%
X337790000Y-371900000D03*
D13*
X339060000Y-369350000D03*
D14*
X342870000Y-371900000D03*
D13*
X345410000Y-366820000D03*
D12*
X347950000Y-371900000D03*
D15*
X344470000Y-376318000D03*
X341270000Y-376318000D03*
D16*
X344470000Y-377518000D03*
X341270000Y-377518000D03*
%TD*%
D12*
%TO.C,SW21*%
X352077500Y-352850000D03*
D13*
X353347500Y-350300000D03*
D14*
X357157500Y-352850000D03*
D13*
X359697500Y-347770000D03*
D12*
X362237500Y-352850000D03*
D15*
X358757500Y-357268000D03*
X355557500Y-357268000D03*
D16*
X358757500Y-358468000D03*
X355557500Y-358468000D03*
%TD*%
D21*
%TO.C,SW2000*%
X478569500Y-326815000D03*
D22*
X478569500Y-342055000D03*
D12*
X485427500Y-333800000D03*
D13*
X486697500Y-331250000D03*
D14*
X490507500Y-333800000D03*
D13*
X493047500Y-328720000D03*
D12*
X495587500Y-333800000D03*
D21*
X502445500Y-326815000D03*
D22*
X502445500Y-342055000D03*
D15*
X492107500Y-338218000D03*
X488907500Y-338218000D03*
D16*
X492107500Y-339418000D03*
X488907500Y-339418000D03*
%TD*%
D12*
%TO.C,SW18*%
X294927500Y-352850000D03*
D13*
X296197500Y-350300000D03*
D14*
X300007500Y-352850000D03*
D13*
X302547500Y-347770000D03*
D12*
X305087500Y-352850000D03*
D15*
X301607500Y-357268000D03*
X298407500Y-357268000D03*
D16*
X301607500Y-358468000D03*
X298407500Y-358468000D03*
%TD*%
D12*
%TO.C,SW27*%
X466377500Y-352850000D03*
D13*
X467647500Y-350300000D03*
D14*
X471457500Y-352850000D03*
D13*
X473997500Y-347770000D03*
D12*
X476537500Y-352850000D03*
D15*
X473057500Y-357268000D03*
X469857500Y-357268000D03*
D16*
X473057500Y-358468000D03*
X469857500Y-358468000D03*
%TD*%
D12*
%TO.C,SW10*%
X399702500Y-333800000D03*
D13*
X400972500Y-331250000D03*
D14*
X404782500Y-333800000D03*
D13*
X407322500Y-328720000D03*
D12*
X409862500Y-333800000D03*
D15*
X406382500Y-338218000D03*
X403182500Y-338218000D03*
D16*
X406382500Y-339418000D03*
X403182500Y-339418000D03*
%TD*%
D12*
%TO.C,SW51*%
X404465000Y-390950000D03*
D13*
X405735000Y-388400000D03*
D14*
X409545000Y-390950000D03*
D13*
X412085000Y-385870000D03*
D12*
X414625000Y-390950000D03*
D15*
X411145000Y-395368000D03*
X407945000Y-395368000D03*
D16*
X411145000Y-396568000D03*
X407945000Y-396568000D03*
%TD*%
D12*
%TO.C,SW2002*%
X230633500Y-371900000D03*
D13*
X231903500Y-369350000D03*
D14*
X235713500Y-371900000D03*
D13*
X238253500Y-366820000D03*
D12*
X240793500Y-371900000D03*
D19*
X237113500Y-376318000D03*
D15*
X234113500Y-376318000D03*
D20*
X237113500Y-377518000D03*
D16*
X234113500Y-377518000D03*
%TD*%
D12*
%TO.C,SW19*%
X313977500Y-352850000D03*
D13*
X315247500Y-350300000D03*
D14*
X319057500Y-352850000D03*
D13*
X321597500Y-347770000D03*
D12*
X324137500Y-352850000D03*
D15*
X320657500Y-357268000D03*
X317457500Y-357268000D03*
D16*
X320657500Y-358468000D03*
X317457500Y-358468000D03*
%TD*%
D12*
%TO.C,SW48*%
X347315000Y-390950000D03*
D13*
X348585000Y-388400000D03*
D14*
X352395000Y-390950000D03*
D13*
X354935000Y-385870000D03*
D12*
X357475000Y-390950000D03*
D15*
X353995000Y-395368000D03*
X350795000Y-395368000D03*
D16*
X353995000Y-396568000D03*
X350795000Y-396568000D03*
%TD*%
D12*
%TO.C,SW35*%
X356840000Y-371900000D03*
D13*
X358110000Y-369350000D03*
D14*
X361920000Y-371900000D03*
D13*
X364460000Y-366820000D03*
D12*
X367000000Y-371900000D03*
D15*
X363520000Y-376318000D03*
X360320000Y-376318000D03*
D16*
X363520000Y-377518000D03*
X360320000Y-377518000D03*
%TD*%
D12*
%TO.C,SW22*%
X371127500Y-352850000D03*
D13*
X372397500Y-350300000D03*
D14*
X376207500Y-352850000D03*
D13*
X378747500Y-347770000D03*
D12*
X381287500Y-352850000D03*
D15*
X377807500Y-357268000D03*
X374607500Y-357268000D03*
D16*
X377807500Y-358468000D03*
X374607500Y-358468000D03*
%TD*%
D21*
%TO.C,SW41*%
X476262600Y-364915000D03*
D22*
X476262600Y-380155000D03*
D12*
X483120600Y-371900000D03*
D13*
X484390600Y-369350000D03*
D14*
X488200600Y-371900000D03*
D13*
X490740600Y-366820000D03*
D12*
X493280600Y-371900000D03*
D21*
X500138600Y-364915000D03*
D22*
X500138600Y-380155000D03*
D23*
X490740600Y-365560000D03*
D15*
X489800600Y-376318000D03*
X486600600Y-376318000D03*
D16*
X489800600Y-377518000D03*
X486600600Y-377518000D03*
%TD*%
D12*
%TO.C,SW14*%
X475902500Y-333800000D03*
D13*
X477172500Y-331250000D03*
D14*
X480982500Y-333800000D03*
D13*
X483522500Y-328720000D03*
D12*
X486062500Y-333800000D03*
D15*
X482582500Y-338218000D03*
X479382500Y-338218000D03*
D16*
X482582500Y-339418000D03*
X479382500Y-339418000D03*
%TD*%
D12*
%TO.C,SW52*%
X423515000Y-390950000D03*
D13*
X424785000Y-388400000D03*
D14*
X428595000Y-390950000D03*
D13*
X431135000Y-385870000D03*
D12*
X433675000Y-390950000D03*
D15*
X430195000Y-395368000D03*
X426995000Y-395368000D03*
D16*
X430195000Y-396568000D03*
X426995000Y-396568000D03*
%TD*%
D12*
%TO.C,SW44*%
X271115000Y-390950000D03*
D13*
X272385000Y-388400000D03*
D14*
X276195000Y-390950000D03*
D13*
X278735000Y-385870000D03*
D12*
X281275000Y-390950000D03*
D15*
X277795000Y-395368000D03*
X274595000Y-395368000D03*
D16*
X277795000Y-396568000D03*
X274595000Y-396568000D03*
%TD*%
D12*
%TO.C,SW31*%
X280640000Y-371900000D03*
D13*
X281910000Y-369350000D03*
D14*
X285720000Y-371900000D03*
D13*
X288260000Y-366820000D03*
D12*
X290800000Y-371900000D03*
D15*
X287320000Y-376318000D03*
X284120000Y-376318000D03*
D16*
X287320000Y-377518000D03*
X284120000Y-377518000D03*
%TD*%
D12*
%TO.C,SW24*%
X409227500Y-352850000D03*
D13*
X410497500Y-350300000D03*
D14*
X414307500Y-352850000D03*
D13*
X416847500Y-347770000D03*
D12*
X419387500Y-352850000D03*
D15*
X415907500Y-357268000D03*
X412707500Y-357268000D03*
D16*
X415907500Y-358468000D03*
X412707500Y-358468000D03*
%TD*%
D12*
%TO.C,SW50*%
X385415000Y-390950000D03*
D13*
X386685000Y-388400000D03*
D14*
X390495000Y-390950000D03*
D13*
X393035000Y-385870000D03*
D12*
X395575000Y-390950000D03*
D15*
X392095000Y-395368000D03*
X388895000Y-395368000D03*
D16*
X392095000Y-396568000D03*
X388895000Y-396568000D03*
%TD*%
D21*
%TO.C,SW43*%
X233375100Y-383965000D03*
D22*
X233375100Y-399205000D03*
D12*
X240233100Y-390950000D03*
D13*
X241503100Y-388400000D03*
D14*
X245313100Y-390950000D03*
D13*
X247853100Y-385870000D03*
D12*
X250393100Y-390950000D03*
D21*
X257251100Y-383965000D03*
D22*
X257251100Y-399205000D03*
D23*
X247853100Y-384610000D03*
D15*
X246913100Y-395368000D03*
X243713100Y-395368000D03*
D16*
X246913100Y-396568000D03*
X243713100Y-396568000D03*
%TD*%
D17*
%TO.C,SWboot1*%
X228540000Y-415475000D03*
D18*
X228540000Y-412975000D03*
%TD*%
D12*
%TO.C,SW42*%
X494952500Y-333800000D03*
D13*
X496222500Y-331250000D03*
D14*
X500032500Y-333800000D03*
D13*
X502572500Y-328720000D03*
D12*
X505112500Y-333800000D03*
D15*
X501632500Y-338218000D03*
X498432500Y-338218000D03*
D16*
X501632500Y-339418000D03*
X498432500Y-339418000D03*
%TD*%
D12*
%TO.C,SW33*%
X318740000Y-371900000D03*
D13*
X320010000Y-369350000D03*
D14*
X323820000Y-371900000D03*
D13*
X326360000Y-366820000D03*
D12*
X328900000Y-371900000D03*
D15*
X325420000Y-376318000D03*
X322220000Y-376318000D03*
D16*
X325420000Y-377518000D03*
X322220000Y-377518000D03*
%TD*%
D12*
%TO.C,SW56*%
X233015500Y-410000000D03*
D13*
X234285500Y-407450000D03*
D14*
X238095500Y-410000000D03*
D13*
X240635500Y-404920000D03*
D12*
X243175500Y-410000000D03*
D15*
X239695500Y-414418000D03*
X236495500Y-414418000D03*
D16*
X239695500Y-415618000D03*
X236495500Y-415618000D03*
%TD*%
D12*
%TO.C,SW11*%
X418752500Y-333800000D03*
D13*
X420022500Y-331250000D03*
D14*
X423832500Y-333800000D03*
D13*
X426372500Y-328720000D03*
D12*
X428912500Y-333800000D03*
D15*
X425432500Y-338218000D03*
X422232500Y-338218000D03*
D16*
X425432500Y-339418000D03*
X422232500Y-339418000D03*
%TD*%
D12*
%TO.C,SW8*%
X361602500Y-333800000D03*
D13*
X362872500Y-331250000D03*
D14*
X366682500Y-333800000D03*
D13*
X369222500Y-328720000D03*
D12*
X371762500Y-333800000D03*
D15*
X368282500Y-338218000D03*
X365082500Y-338218000D03*
D16*
X368282500Y-339418000D03*
X365082500Y-339418000D03*
%TD*%
D12*
%TO.C,SW26*%
X447327500Y-352850000D03*
D13*
X448597500Y-350300000D03*
D14*
X452407500Y-352850000D03*
D13*
X454947500Y-347770000D03*
D12*
X457487500Y-352850000D03*
D15*
X454007500Y-357268000D03*
X450807500Y-357268000D03*
D16*
X454007500Y-358468000D03*
X450807500Y-358468000D03*
%TD*%
D12*
%TO.C,SW4*%
X285402500Y-333800000D03*
D13*
X286672500Y-331250000D03*
D14*
X290482500Y-333800000D03*
D13*
X293022500Y-328720000D03*
D12*
X295562500Y-333800000D03*
D15*
X292082500Y-338218000D03*
X288882500Y-338218000D03*
D16*
X292082500Y-339418000D03*
X288882500Y-339418000D03*
%TD*%
D24*
%TO.C,J2*%
X347590000Y-417560000D03*
D25*
X345090000Y-417560000D03*
X342590000Y-417560000D03*
X340090000Y-417560000D03*
%TD*%
D12*
%TO.C,SW3*%
X266352500Y-333800000D03*
D13*
X267622500Y-331250000D03*
D14*
X271432500Y-333800000D03*
D13*
X273972500Y-328720000D03*
D12*
X276512500Y-333800000D03*
D15*
X273032500Y-338218000D03*
X269832500Y-338218000D03*
D16*
X273032500Y-339418000D03*
X269832500Y-339418000D03*
%TD*%
D12*
%TO.C,SW57*%
X256827500Y-410000000D03*
D13*
X258097500Y-407450000D03*
D14*
X261907500Y-410000000D03*
D13*
X264447500Y-404920000D03*
D12*
X266987500Y-410000000D03*
D15*
X263507500Y-414418000D03*
X260307500Y-414418000D03*
D16*
X263507500Y-415618000D03*
X260307500Y-415618000D03*
%TD*%
D12*
%TO.C,SW30*%
X261590000Y-371900000D03*
D13*
X262860000Y-369350000D03*
D14*
X266670000Y-371900000D03*
D13*
X269210000Y-366820000D03*
D12*
X271750000Y-371900000D03*
D15*
X268270000Y-376318000D03*
X265070000Y-376318000D03*
D16*
X268270000Y-377518000D03*
X265070000Y-377518000D03*
%TD*%
D12*
%TO.C,SW45*%
X290165000Y-390950000D03*
D13*
X291435000Y-388400000D03*
D14*
X295245000Y-390950000D03*
D13*
X297785000Y-385870000D03*
D12*
X300325000Y-390950000D03*
D15*
X296845000Y-395368000D03*
X293645000Y-395368000D03*
D16*
X296845000Y-396568000D03*
X293645000Y-396568000D03*
%TD*%
D12*
%TO.C,SW55*%
X494952500Y-390950000D03*
D13*
X496222500Y-388400000D03*
D14*
X500032500Y-390950000D03*
D13*
X502572500Y-385870000D03*
D12*
X505112500Y-390950000D03*
D15*
X501632500Y-395368000D03*
X498432500Y-395368000D03*
D16*
X501632500Y-396568000D03*
X498432500Y-396568000D03*
%TD*%
D12*
%TO.C,SW7*%
X342552500Y-333800000D03*
D13*
X343822500Y-331250000D03*
D14*
X347632500Y-333800000D03*
D13*
X350172500Y-328720000D03*
D12*
X352712500Y-333800000D03*
D15*
X349232500Y-338218000D03*
X346032500Y-338218000D03*
D16*
X349232500Y-339418000D03*
X346032500Y-339418000D03*
%TD*%
D12*
%TO.C,SW46*%
X309215000Y-390950000D03*
D13*
X310485000Y-388400000D03*
D14*
X314295000Y-390950000D03*
D13*
X316835000Y-385870000D03*
D12*
X319375000Y-390950000D03*
D15*
X315895000Y-395368000D03*
X312695000Y-395368000D03*
D16*
X315895000Y-396568000D03*
X312695000Y-396568000D03*
%TD*%
D12*
%TO.C,SW1*%
X228252500Y-333800000D03*
D13*
X229522500Y-331250000D03*
D14*
X233332500Y-333800000D03*
D13*
X235872500Y-328720000D03*
D12*
X238412500Y-333800000D03*
D15*
X234932500Y-338218000D03*
X231732500Y-338218000D03*
D16*
X234932500Y-339418000D03*
X231732500Y-339418000D03*
%TD*%
D26*
%TO.C,JP2*%
X502612500Y-416910000D03*
D27*
X502612500Y-415610000D03*
D28*
X502612500Y-414310000D03*
%TD*%
D29*
%TO.C,U9*%
X287730000Y-351445000D03*
X287730000Y-350175000D03*
X287730000Y-348905000D03*
X287730000Y-347635000D03*
X287730000Y-346365000D03*
X287730000Y-345095000D03*
X287730000Y-342555000D03*
X292730000Y-342555000D03*
X292730000Y-343825000D03*
X292730000Y-345095000D03*
X292730000Y-346365000D03*
X292730000Y-347635000D03*
X292730000Y-350175000D03*
X292730000Y-351445000D03*
%TD*%
D30*
%TO.C,R16*%
X264110000Y-333070000D03*
X264110000Y-331420000D03*
%TD*%
D31*
%TO.C,R20*%
X248705000Y-328020000D03*
X250355000Y-328020000D03*
%TD*%
D32*
%TO.C,J3*%
X450150000Y-335035000D03*
D33*
X451450000Y-338910000D03*
D32*
X454750000Y-335035000D03*
D33*
X452450000Y-338910000D03*
X453450000Y-338910000D03*
%TD*%
D34*
%TO.C,U6*%
X317137500Y-402550000D03*
X317137500Y-403500000D03*
X317137500Y-404450000D03*
X314862500Y-404450000D03*
X314862500Y-403500000D03*
X314862500Y-402550000D03*
%TD*%
D35*
%TO.C,R2*%
X354150000Y-407600000D03*
X352500000Y-407600000D03*
%TD*%
D36*
%TO.C,C9*%
X346240000Y-396235000D03*
X346240000Y-394685000D03*
%TD*%
D37*
%TO.C,Drgb7*%
X473015000Y-341950000D03*
X473015000Y-343050000D03*
X471185000Y-343050000D03*
X471185000Y-341950000D03*
%TD*%
D30*
%TO.C,R17*%
X262650000Y-333070000D03*
X262650000Y-331420000D03*
%TD*%
D36*
%TO.C,C14*%
X342300000Y-396240000D03*
X342300000Y-394690000D03*
%TD*%
D35*
%TO.C,R3*%
X357910000Y-326220000D03*
X356260000Y-326220000D03*
%TD*%
D38*
%TO.C,C24*%
X328600000Y-410050000D03*
X328600000Y-411600000D03*
%TD*%
D37*
%TO.C,Drgb9*%
X507050000Y-356215000D03*
X505950000Y-356215000D03*
X505950000Y-354385000D03*
X507050000Y-354385000D03*
%TD*%
D38*
%TO.C,C1*%
X351550000Y-400440000D03*
X351550000Y-401990000D03*
%TD*%
D29*
%TO.C,U12*%
X387540000Y-369960000D03*
X387540000Y-368690000D03*
X387540000Y-367420000D03*
X387540000Y-366150000D03*
X387540000Y-364880000D03*
X387540000Y-363610000D03*
X387540000Y-361070000D03*
X392540000Y-361070000D03*
X392540000Y-362340000D03*
X392540000Y-363610000D03*
X392540000Y-364880000D03*
X392540000Y-366150000D03*
X392540000Y-367420000D03*
X392540000Y-368690000D03*
X392540000Y-369960000D03*
%TD*%
D39*
%TO.C,RN2*%
X254230000Y-377360000D03*
D40*
X253430000Y-377360000D03*
X252630000Y-377360000D03*
D39*
X251830000Y-377360000D03*
X251830000Y-375560000D03*
D40*
X252630000Y-375560000D03*
X253430000Y-375560000D03*
D39*
X254230000Y-375560000D03*
%TD*%
D31*
%TO.C,R5*%
X320675000Y-405750000D03*
X322325000Y-405750000D03*
%TD*%
D37*
%TO.C,Drgb20*%
X262285000Y-402050000D03*
X262285000Y-400950000D03*
X264115000Y-400950000D03*
X264115000Y-402050000D03*
%TD*%
D29*
%TO.C,U10*%
X311400000Y-370195000D03*
X311400000Y-368925000D03*
X311400000Y-367655000D03*
X311400000Y-366385000D03*
X311400000Y-365115000D03*
X311400000Y-363845000D03*
X311400000Y-361305000D03*
X316400000Y-361305000D03*
X316400000Y-362575000D03*
X316400000Y-363845000D03*
X316400000Y-365115000D03*
X316400000Y-366385000D03*
X316400000Y-367655000D03*
X316400000Y-368925000D03*
X316400000Y-370195000D03*
%TD*%
D30*
%TO.C,R19*%
X259720000Y-333070000D03*
X259720000Y-331420000D03*
%TD*%
D37*
%TO.C,Drgb2*%
X298515000Y-341950000D03*
X298515000Y-343050000D03*
X296685000Y-343050000D03*
X296685000Y-341950000D03*
%TD*%
D41*
%TO.C,C19*%
X322275000Y-407250000D03*
X320725000Y-407250000D03*
%TD*%
D37*
%TO.C,Drgb24*%
X227250000Y-351885000D03*
X228350000Y-351885000D03*
X228350000Y-353715000D03*
X227250000Y-353715000D03*
%TD*%
D42*
%TO.C,RN10*%
X397760000Y-363260000D03*
D43*
X397760000Y-364060000D03*
X397760000Y-364860000D03*
D42*
X397760000Y-365660000D03*
X395960000Y-365660000D03*
D43*
X395960000Y-364860000D03*
X395960000Y-364060000D03*
D42*
X395960000Y-363260000D03*
%TD*%
D41*
%TO.C,C4*%
X358350000Y-415200000D03*
X356800000Y-415200000D03*
%TD*%
D44*
%TO.C,J4*%
X362670000Y-323300000D03*
X368450000Y-323300000D03*
D45*
X362360000Y-324375000D03*
X363160000Y-324375000D03*
D46*
X364310000Y-324375000D03*
X365310000Y-324375000D03*
X365810000Y-324375000D03*
X366810000Y-324375000D03*
D45*
X367960000Y-324375000D03*
X368760000Y-324375000D03*
X368760000Y-324375000D03*
X367960000Y-324375000D03*
D46*
X367310000Y-324375000D03*
X366310000Y-324375000D03*
X364810000Y-324375000D03*
X363810000Y-324375000D03*
D45*
X363160000Y-324375000D03*
X362360000Y-324375000D03*
D47*
X361240000Y-319620000D03*
D48*
X361240000Y-323800000D03*
D47*
X369880000Y-319620000D03*
D48*
X369880000Y-323800000D03*
%TD*%
D36*
%TO.C,C3*%
X355200000Y-414975000D03*
X355200000Y-413425000D03*
%TD*%
%TO.C,C16*%
X361000000Y-402760000D03*
X361000000Y-401210000D03*
%TD*%
D49*
%TO.C,U5*%
X321850000Y-402750000D03*
D50*
X321850000Y-403250000D03*
X321850000Y-403750000D03*
D49*
X321850000Y-404250000D03*
D51*
X321175000Y-404400000D03*
D49*
X320500000Y-404250000D03*
D50*
X320500000Y-403750000D03*
X320500000Y-403250000D03*
D49*
X320500000Y-402750000D03*
D51*
X321175000Y-402600000D03*
%TD*%
D42*
%TO.C,RN7*%
X354430000Y-344260000D03*
D43*
X354430000Y-345060000D03*
X354430000Y-345860000D03*
D42*
X354430000Y-346660000D03*
X352630000Y-346660000D03*
D43*
X352630000Y-345860000D03*
X352630000Y-345060000D03*
D42*
X352630000Y-344260000D03*
%TD*%
D38*
%TO.C,C23*%
X336300000Y-413500000D03*
X336300000Y-415050000D03*
%TD*%
D36*
%TO.C,C20*%
X330900000Y-411950000D03*
X330900000Y-410400000D03*
%TD*%
D42*
%TO.C,RN1*%
X259530000Y-368090000D03*
D43*
X259530000Y-368890000D03*
X259530000Y-369690000D03*
D42*
X259530000Y-370490000D03*
X257730000Y-370490000D03*
D43*
X257730000Y-369690000D03*
X257730000Y-368890000D03*
D42*
X257730000Y-368090000D03*
%TD*%
D41*
%TO.C,C6*%
X353185000Y-416470000D03*
X351635000Y-416470000D03*
%TD*%
D52*
%TO.C,U7*%
X326762500Y-407350000D03*
X326762500Y-406850000D03*
X326762500Y-406350000D03*
X326762500Y-405850000D03*
X326762500Y-405350000D03*
X326762500Y-404850000D03*
X326762500Y-404350000D03*
X326762500Y-403850000D03*
D53*
X327450000Y-403162500D03*
X327950000Y-403162500D03*
X328450000Y-403162500D03*
X328950000Y-403162500D03*
X329450000Y-403162500D03*
X329950000Y-403162500D03*
X330450000Y-403162500D03*
X330950000Y-403162500D03*
D52*
X331637500Y-403850000D03*
X331637500Y-404350000D03*
X331637500Y-404850000D03*
X331637500Y-405350000D03*
X331637500Y-405850000D03*
X331637500Y-406350000D03*
X331637500Y-406850000D03*
X331637500Y-407350000D03*
D53*
X330950000Y-408037500D03*
X330450000Y-408037500D03*
X329950000Y-408037500D03*
X329450000Y-408037500D03*
X328950000Y-408037500D03*
X328450000Y-408037500D03*
X327950000Y-408037500D03*
X327450000Y-408037500D03*
D54*
X329200000Y-405600000D03*
%TD*%
D55*
%TO.C,Y3*%
X333600000Y-414550000D03*
X333600000Y-410850000D03*
%TD*%
D41*
%TO.C,C25*%
X359590000Y-397960000D03*
X358040000Y-397960000D03*
%TD*%
%TO.C,C11*%
X317760000Y-408240000D03*
X316210000Y-408240000D03*
%TD*%
D37*
%TO.C,Drgb22*%
X227750000Y-389985000D03*
X228850000Y-389985000D03*
X228850000Y-391815000D03*
X227750000Y-391815000D03*
%TD*%
%TO.C,Drgb8*%
X505830000Y-341095000D03*
X506930000Y-341095000D03*
X506930000Y-342925000D03*
X505830000Y-342925000D03*
%TD*%
%TO.C,Drgb16*%
X228715000Y-341450000D03*
X228715000Y-342550000D03*
X226885000Y-342550000D03*
X226885000Y-341450000D03*
%TD*%
D30*
%TO.C,R1*%
X230500000Y-410025000D03*
X230500000Y-408375000D03*
%TD*%
D56*
%TO.C,JP1*%
X228127500Y-336340000D03*
D27*
X228127500Y-337640000D03*
D57*
X228127500Y-338940000D03*
%TD*%
D37*
%TO.C,Drgb12*%
X508050000Y-402415000D03*
X506950000Y-402415000D03*
X506950000Y-400585000D03*
X508050000Y-400585000D03*
%TD*%
D42*
%TO.C,RN16*%
X468270000Y-393130000D03*
D43*
X468270000Y-393930000D03*
X468270000Y-394730000D03*
D42*
X468270000Y-395530000D03*
X466470000Y-395530000D03*
D43*
X466470000Y-394730000D03*
X466470000Y-393930000D03*
D42*
X466470000Y-393130000D03*
%TD*%
D37*
%TO.C,Drgb17*%
X366985000Y-402050000D03*
X366985000Y-400950000D03*
X368815000Y-400950000D03*
X368815000Y-402050000D03*
%TD*%
D29*
%TO.C,U13*%
X458150000Y-393655000D03*
X458150000Y-392385000D03*
X458150000Y-391115000D03*
X458150000Y-389845000D03*
X458150000Y-388575000D03*
X458150000Y-387305000D03*
X458150000Y-384765000D03*
X463150000Y-384765000D03*
X463150000Y-386035000D03*
X463150000Y-387305000D03*
X463150000Y-388575000D03*
X463150000Y-389845000D03*
X463150000Y-391115000D03*
X463150000Y-392385000D03*
X463150000Y-393655000D03*
%TD*%
D37*
%TO.C,Drgb10*%
X507050000Y-372815000D03*
X505950000Y-372815000D03*
X505950000Y-370985000D03*
X507050000Y-370985000D03*
%TD*%
D58*
%TO.C,U4*%
X231220000Y-346460000D03*
X231220000Y-344160000D03*
D59*
X237520000Y-344160000D03*
D58*
X231220000Y-341860000D03*
%TD*%
D29*
%TO.C,U14*%
X420750000Y-351150000D03*
X420750000Y-349880000D03*
X420750000Y-348610000D03*
X420750000Y-347340000D03*
X420750000Y-346070000D03*
X420750000Y-344800000D03*
X420750000Y-342260000D03*
X425750000Y-342260000D03*
X425750000Y-343530000D03*
X425750000Y-344800000D03*
X425750000Y-346070000D03*
X425750000Y-347340000D03*
X425750000Y-348610000D03*
X425750000Y-349880000D03*
X425750000Y-351150000D03*
%TD*%
D44*
%TO.C,J4*%
X239400000Y-329290000D03*
X245180000Y-329290000D03*
D60*
X239040000Y-330890000D03*
X239840000Y-330890000D03*
D61*
X241040000Y-330890000D03*
X242040000Y-330890000D03*
X242540000Y-330890000D03*
D62*
X244740000Y-330735000D03*
X245540000Y-330735000D03*
D60*
X245540000Y-330890000D03*
X244740000Y-330890000D03*
D61*
X244040000Y-330890000D03*
X243040000Y-330890000D03*
X241540000Y-330890000D03*
D62*
X239840000Y-330735000D03*
X239040000Y-330735000D03*
D63*
X237970000Y-325640000D03*
D48*
X237970000Y-329820000D03*
D63*
X246610000Y-325640000D03*
D48*
X246610000Y-329820000D03*
%TD*%
D39*
%TO.C,RN8*%
X348300000Y-354820000D03*
D40*
X347500000Y-354820000D03*
X346700000Y-354820000D03*
D39*
X345900000Y-354820000D03*
X345900000Y-353020000D03*
D40*
X346700000Y-353020000D03*
X347500000Y-353020000D03*
D39*
X348300000Y-353020000D03*
%TD*%
D36*
%TO.C,C18*%
X319200000Y-407275000D03*
X319200000Y-405725000D03*
%TD*%
D37*
%TO.C,Drgb21*%
X227385000Y-402050000D03*
X227385000Y-400950000D03*
X229215000Y-400950000D03*
X229215000Y-402050000D03*
%TD*%
%TO.C,Drgb15*%
X401885000Y-402050000D03*
X401885000Y-400950000D03*
X403715000Y-400950000D03*
X403715000Y-402050000D03*
%TD*%
D55*
%TO.C,Y1*%
X358025000Y-412950000D03*
X358025000Y-409250000D03*
%TD*%
D37*
%TO.C,Drgb18*%
X332085000Y-401450000D03*
X332085000Y-400350000D03*
X333915000Y-400350000D03*
X333915000Y-401450000D03*
%TD*%
D29*
%TO.C,U11*%
X344590000Y-351175000D03*
X344590000Y-349905000D03*
X344590000Y-348635000D03*
X344590000Y-347365000D03*
X344590000Y-346095000D03*
X344590000Y-344825000D03*
X344590000Y-342285000D03*
X349590000Y-342285000D03*
X349590000Y-343555000D03*
X349590000Y-344825000D03*
X349590000Y-346095000D03*
X349590000Y-347365000D03*
X349590000Y-348635000D03*
X349590000Y-349905000D03*
X349590000Y-351175000D03*
%TD*%
D37*
%TO.C,Drgb14*%
X436785000Y-402050000D03*
X436785000Y-400950000D03*
X438615000Y-400950000D03*
X438615000Y-402050000D03*
%TD*%
D29*
%TO.C,U15*%
X465200000Y-370615000D03*
X465200000Y-369345000D03*
X465200000Y-368075000D03*
X465200000Y-366805000D03*
X465200000Y-365535000D03*
X465200000Y-364265000D03*
X465200000Y-361725000D03*
X470200000Y-361725000D03*
X470200000Y-362995000D03*
X470200000Y-364265000D03*
X470200000Y-365535000D03*
X470200000Y-366805000D03*
X470200000Y-368075000D03*
X470200000Y-369345000D03*
X470200000Y-370615000D03*
%TD*%
D36*
%TO.C,C17*%
X340340000Y-396240000D03*
X340340000Y-394690000D03*
%TD*%
%TO.C,C13*%
X338380000Y-396245000D03*
X338380000Y-394695000D03*
%TD*%
D29*
%TO.C,U3*%
X250400000Y-373740000D03*
X250400000Y-372470000D03*
X250400000Y-371200000D03*
X250400000Y-369930000D03*
X250400000Y-368660000D03*
X250400000Y-367390000D03*
X250400000Y-364850000D03*
X255400000Y-364850000D03*
X255400000Y-366120000D03*
X255400000Y-367390000D03*
X255400000Y-368660000D03*
X255400000Y-369930000D03*
X255400000Y-371200000D03*
X255400000Y-372470000D03*
X255400000Y-373740000D03*
%TD*%
D37*
%TO.C,Drgb13*%
X475785000Y-402050000D03*
X475785000Y-400950000D03*
X477615000Y-400950000D03*
X477615000Y-402050000D03*
%TD*%
D42*
%TO.C,RN4*%
X296840000Y-345120000D03*
D43*
X296840000Y-345920000D03*
X296840000Y-346720000D03*
D42*
X296840000Y-347520000D03*
X295040000Y-347520000D03*
D43*
X295040000Y-346720000D03*
X295040000Y-345920000D03*
D42*
X295040000Y-345120000D03*
%TD*%
D36*
%TO.C,C10*%
X344270000Y-396240000D03*
X344270000Y-394690000D03*
%TD*%
D37*
%TO.C,Drgb19*%
X297185000Y-402050000D03*
X297185000Y-400950000D03*
X299015000Y-400950000D03*
X299015000Y-402050000D03*
%TD*%
D39*
%TO.C,RN14*%
X468870000Y-374260000D03*
D40*
X468070000Y-374260000D03*
X467270000Y-374260000D03*
D39*
X466470000Y-374260000D03*
X466470000Y-372460000D03*
D40*
X467270000Y-372460000D03*
X468070000Y-372460000D03*
D39*
X468870000Y-372460000D03*
%TD*%
D64*
%TO.C,U8*%
X359105000Y-406675000D03*
X357835000Y-406675000D03*
X356565000Y-406675000D03*
X355295000Y-406675000D03*
X355295000Y-401725000D03*
X356565000Y-401725000D03*
X357835000Y-401725000D03*
X359105000Y-401725000D03*
%TD*%
D65*
%TO.C,R15*%
X226120000Y-337625000D03*
X226120000Y-339275000D03*
%TD*%
D42*
%TO.C,RN13*%
X475730000Y-369240000D03*
D43*
X475730000Y-370040000D03*
X475730000Y-370840000D03*
D42*
X475730000Y-371640000D03*
X473930000Y-371640000D03*
D43*
X473930000Y-370840000D03*
X473930000Y-370040000D03*
D42*
X473930000Y-369240000D03*
%TD*%
%TO.C,RN15*%
X452980000Y-395520000D03*
D43*
X452980000Y-394720000D03*
X452980000Y-393920000D03*
D42*
X452980000Y-393120000D03*
X454780000Y-393120000D03*
D43*
X454780000Y-393920000D03*
X454780000Y-394720000D03*
D42*
X454780000Y-395520000D03*
%TD*%
%TO.C,RN12*%
X431310000Y-344100000D03*
D43*
X431310000Y-344900000D03*
X431310000Y-345700000D03*
D42*
X431310000Y-346500000D03*
X429510000Y-346500000D03*
D43*
X429510000Y-345700000D03*
X429510000Y-344900000D03*
D42*
X429510000Y-344100000D03*
%TD*%
%TO.C,RN5*%
X321020000Y-362850000D03*
D43*
X321020000Y-363650000D03*
X321020000Y-364450000D03*
D42*
X321020000Y-365250000D03*
X319220000Y-365250000D03*
D43*
X319220000Y-364450000D03*
X319220000Y-363650000D03*
D42*
X319220000Y-362850000D03*
%TD*%
D33*
%TO.C,J5*%
X228780000Y-363940000D03*
X229780000Y-363940000D03*
X230780000Y-363940000D03*
D66*
X227480000Y-360665000D03*
D33*
X231780000Y-363940000D03*
D66*
X233080000Y-360665000D03*
%TD*%
D37*
%TO.C,Drgb6*%
X438115000Y-341950000D03*
X438115000Y-343050000D03*
X436285000Y-343050000D03*
X436285000Y-341950000D03*
%TD*%
D30*
%TO.C,R18*%
X261180000Y-333070000D03*
X261180000Y-331420000D03*
%TD*%
D37*
%TO.C,Drgb11*%
X508050000Y-391815000D03*
X506950000Y-391815000D03*
X506950000Y-389985000D03*
X508050000Y-389985000D03*
%TD*%
D38*
%TO.C,C21*%
X330900000Y-413400000D03*
X330900000Y-414950000D03*
%TD*%
D65*
%TO.C,R6*%
X329400000Y-413350000D03*
X329400000Y-415000000D03*
%TD*%
D39*
%TO.C,RN11*%
X424430000Y-354930000D03*
D40*
X423630000Y-354930000D03*
X422830000Y-354930000D03*
D39*
X422030000Y-354930000D03*
X422030000Y-353130000D03*
D40*
X422830000Y-353130000D03*
X423630000Y-353130000D03*
D39*
X424430000Y-353130000D03*
%TD*%
D38*
%TO.C,C7*%
X323305000Y-399675000D03*
X323305000Y-401225000D03*
%TD*%
D36*
%TO.C,C2*%
X327220000Y-401200000D03*
X327220000Y-399650000D03*
%TD*%
D37*
%TO.C,Drgb5*%
X403215000Y-341950000D03*
X403215000Y-343050000D03*
X401385000Y-343050000D03*
X401385000Y-341950000D03*
%TD*%
D39*
%TO.C,RN3*%
X291440000Y-355300000D03*
D40*
X290640000Y-355300000D03*
X289840000Y-355300000D03*
D39*
X289040000Y-355300000D03*
X289040000Y-353500000D03*
D40*
X289840000Y-353500000D03*
X290640000Y-353500000D03*
D39*
X291440000Y-353500000D03*
%TD*%
D38*
%TO.C,C8*%
X324790000Y-399670000D03*
X324790000Y-401220000D03*
%TD*%
D67*
%TO.C,C5*%
X351630000Y-414360000D03*
X353180000Y-414360000D03*
%TD*%
%TO.C,C15*%
X358050000Y-399420000D03*
X359600000Y-399420000D03*
%TD*%
D37*
%TO.C,Drgb3*%
X333415000Y-341950000D03*
X333415000Y-343050000D03*
X331585000Y-343050000D03*
X331585000Y-341950000D03*
%TD*%
D67*
%TO.C,C22*%
X333500000Y-408400000D03*
X335050000Y-408400000D03*
%TD*%
D37*
%TO.C,Drgb23*%
X227250000Y-370985000D03*
X228350000Y-370985000D03*
X228350000Y-372815000D03*
X227250000Y-372815000D03*
%TD*%
D68*
%TO.C,J1*%
X247120000Y-343400000D03*
X247120000Y-344400000D03*
X247120000Y-345400000D03*
D69*
X250007500Y-342100000D03*
D68*
X247120000Y-346400000D03*
D69*
X250007500Y-347700000D03*
%TD*%
D37*
%TO.C,Drgb1*%
X263615000Y-341950000D03*
X263615000Y-343050000D03*
X261785000Y-343050000D03*
X261785000Y-341950000D03*
%TD*%
%TO.C,Drgb4*%
X368315000Y-341950000D03*
X368315000Y-343050000D03*
X366485000Y-343050000D03*
X366485000Y-341950000D03*
%TD*%
D70*
%TO.C,U2*%
X352600000Y-409263500D03*
X353550000Y-409263500D03*
X354500000Y-409263500D03*
X354500000Y-411538500D03*
X352600000Y-411538500D03*
%TD*%
D41*
%TO.C,C12*%
X317765000Y-406760000D03*
X316215000Y-406760000D03*
%TD*%
D31*
%TO.C,R4*%
X320275000Y-401200000D03*
X321925000Y-401200000D03*
%TD*%
D68*
%TO.C,J6*%
X290610000Y-361850000D03*
X290610000Y-362850000D03*
X290610000Y-363850000D03*
D71*
X293885000Y-360550000D03*
D68*
X290610000Y-364850000D03*
D71*
X293885000Y-366150000D03*
%TD*%
D39*
%TO.C,RN6*%
X315510000Y-374320000D03*
D40*
X314710000Y-374320000D03*
X313910000Y-374320000D03*
D39*
X313110000Y-374320000D03*
X313110000Y-372520000D03*
D40*
X313910000Y-372520000D03*
X314710000Y-372520000D03*
D39*
X315510000Y-372520000D03*
%TD*%
D72*
%TO.C,U1*%
X347587500Y-413725000D03*
X347087500Y-413725000D03*
X346587500Y-413725000D03*
X346087500Y-413725000D03*
X345587500Y-413725000D03*
X345087500Y-413725000D03*
X344587500Y-413725000D03*
X344087500Y-413725000D03*
X343587500Y-413725000D03*
X343087500Y-413725000D03*
X342587500Y-413725000D03*
X342087500Y-413725000D03*
X341587500Y-413725000D03*
X341087500Y-413725000D03*
X340587500Y-413725000D03*
X340087500Y-413725000D03*
D73*
X338162500Y-411800000D03*
X338162500Y-411300000D03*
X338162500Y-410800000D03*
X338162500Y-410300000D03*
X338162500Y-409800000D03*
X338162500Y-409300000D03*
X338162500Y-408800000D03*
X338162500Y-408300000D03*
X338162500Y-407800000D03*
X338162500Y-407300000D03*
X338162500Y-406800000D03*
X338162500Y-406300000D03*
X338162500Y-405800000D03*
X338162500Y-405300000D03*
X338162500Y-404800000D03*
X338162500Y-404300000D03*
D72*
X340087500Y-402375000D03*
X340587500Y-402375000D03*
X341087500Y-402375000D03*
X343587500Y-402375000D03*
X344087500Y-402375000D03*
X344587500Y-402375000D03*
X345087500Y-402375000D03*
X345587500Y-402375000D03*
X346087500Y-402375000D03*
X346587500Y-402375000D03*
X347087500Y-402375000D03*
X347587500Y-402375000D03*
D73*
X349512500Y-404300000D03*
X349512500Y-404800000D03*
X349512500Y-405300000D03*
X349512500Y-405800000D03*
X349512500Y-406300000D03*
X349512500Y-406800000D03*
X349512500Y-407300000D03*
X349512500Y-407800000D03*
X349512500Y-408300000D03*
X349512500Y-408800000D03*
X349512500Y-409300000D03*
X349512500Y-409800000D03*
X349512500Y-410300000D03*
X349512500Y-410800000D03*
X349512500Y-411300000D03*
X349512500Y-411800000D03*
%TD*%
D65*
%TO.C,R7*%
X326800000Y-410000000D03*
X326800000Y-411650000D03*
%TD*%
D39*
%TO.C,RN9*%
X391230000Y-373660000D03*
D40*
X390430000Y-373660000D03*
X389630000Y-373660000D03*
D39*
X388830000Y-373660000D03*
X388830000Y-371860000D03*
D40*
X389630000Y-371860000D03*
X390430000Y-371860000D03*
D39*
X391230000Y-371860000D03*
%TD*%
M02*
