M48
; DRILL file {KiCad 8.99.0-946-gf00a1ab517} date 2024-05-15T19:42:48+0700
; FORMAT={-:-/ absolute / inch / decimal}
; #@! TF.CreationDate,2024-05-15T19:42:48+07:00
; #@! TF.GenerationSoftware,Kicad,Pcbnew,8.99.0-946-gf00a1ab517
; #@! TF.FileFunction,Plated,1,2,PTH
FMAT,2
INCH
; #@! TA.AperFunction,Plated,PTH,ViaDrill
T1C0.0118
; #@! TA.AperFunction,Plated,PTH,ComponentDrill
T2C0.0118
; #@! TA.AperFunction,Plated,PTH,ComponentDrill
T3C0.0295
; #@! TA.AperFunction,Plated,PTH,ComponentDrill
T4C0.0394
; #@! TA.AperFunction,Plated,PTH,ComponentDrill
T5C0.1181
%
G90
G05
T1
X1.465Y-7.0114
X1.4665Y-6.6465
X1.474Y-5.0772
X1.4785Y-5.1005
X1.5205Y-7.235
X1.5209Y-6.9248
X1.5476Y-7.5366
X1.548Y-5.5323
X1.5531Y-6.4498
X1.5602Y-5.8417
X1.5638Y-5.5551
X1.5642Y-5.7469
X1.5858Y-5.5315
X1.6177Y-5.8941
X1.626Y-6.535
X1.7217Y-5.5764
X1.7228Y-5.887
X1.7878Y-6.2831
X1.7878Y-6.4472
X1.864Y-6.5622
X1.8667Y-6.5927
X1.8839Y-7.4028
X1.9035Y-5.5122
X2.0831Y-6.176
X2.0876Y-6.5551
X2.1484Y-5.6207
X2.1937Y-5.4709
X2.2299Y-5.5752
X2.2299Y-5.624
X2.2555Y-6.2894
X2.2583Y-6.4441
X2.3039Y-5.6596
X2.3051Y-6.3632
X2.3154Y-8.2717
X2.3165Y-7.7953
X2.3299Y-8.3858
X2.3307Y-6.5512
X2.3535Y-5.5516
X2.3551Y-6.5724
X2.3575Y-8.3287
X2.3602Y-7.7933
X2.3886Y-8.2665
X2.3909Y-5.8469
X2.3909Y-8.4063
X2.4094Y-6.1713
X2.4104Y-6.3612
X2.4575Y-6.3331
X2.4793Y-6.4892
X2.4848Y-6.7799
X2.4858Y-6.6776
X2.4913Y-6.2677
X2.5242Y-6.9256
X2.5437Y-6.0827
X2.5567Y-8.3197
X2.5634Y-6.6811
X2.5669Y-8.2429
X2.5813Y-8.4075
X2.5837Y-7.06
X2.588Y-6.2824
X2.5909Y-8.161
X2.5935Y-6.0886
X2.6004Y-6.8563
X2.6102Y-8.5346
X2.6152Y-7.2244
X2.6862Y-6.5894
X2.6949Y-6.3248
X2.6957Y-7.1768
X2.6978Y-6.2047
X2.7854Y-5.5856
X2.7963Y-6.1624
X2.8002Y-6.6919
X2.839Y-8.1642
X2.8829Y-6.998
X2.9071Y-5.0484
X2.9268Y-5.0717
X2.9393Y-7.1803
X3.0839Y-5.5318
X3.1035Y-5.4906
X3.1114Y-6.248
X3.1209Y-6.4543
X3.3083Y-6.2209
X3.4953Y-6.9709
X3.5224Y-5.5087
X3.5244Y-5.6713
X3.822Y-8.0154
X3.835Y-7.7406
X5.2484Y-7.924
X5.2528Y-7.7406
X5.4996Y-8.0209
X5.5051Y-7.7409
X6.9091Y-7.7406
X6.9126Y-7.9248
X7.1764Y-8.0209
X7.1787Y-7.7406
X8.6083Y-7.9232
X8.6106Y-7.7465
X8.7787Y-7.7453
X8.7846Y-8.0567
X10.2835Y-7.7622
X10.2862Y-7.9236
X10.5232Y-7.7654
X10.5287Y-8.0209
X10.5705Y-7.8004
X10.585Y-7.5787
X11.1591Y-7.8067
X11.2583Y-5.4764
X11.5091Y-7.6823
X11.6574Y-6.9945
X11.8051Y-5.685
X11.8083Y-5.7244
X12.552Y-5.5819
X12.5764Y-8.0157
X12.5906Y-8.0535
X12.6002Y-5.785
T2
X1.4878Y-5.2352
X1.4878Y-5.2628
X1.4878Y-5.2904
X1.5213Y-5.2352
X1.5213Y-5.2628
X1.5213Y-5.2904
X1.5528Y-5.2352
X1.5528Y-5.2628
X1.5528Y-5.2904
X1.5619Y-6.7352
X1.5619Y-6.7628
X1.5619Y-6.7904
X1.5619Y-8.2352
X1.5619Y-8.2628
X1.5619Y-8.2904
X1.5953Y-6.7352
X1.5953Y-6.7628
X1.5953Y-6.7904
X1.5953Y-8.2352
X1.5953Y-8.2628
X1.5953Y-8.2904
X1.6111Y-7.7844
X1.6111Y-7.8134
X1.6111Y-7.8435
X1.6268Y-6.7352
X1.6268Y-6.7628
X1.6268Y-6.7904
X1.6268Y-8.2352
X1.6268Y-8.2628
X1.6268Y-8.2904
X1.6465Y-7.7844
X1.6465Y-7.8134
X1.6465Y-7.8435
X1.6556Y-5.9852
X1.6556Y-6.0128
X1.6556Y-6.0404
X1.6809Y-7.7844
X1.6809Y-7.8134
X1.6819Y-7.8435
X1.6891Y-5.9852
X1.6891Y-6.0128
X1.6891Y-6.0404
X1.7206Y-5.9852
X1.7206Y-6.0128
X1.7206Y-6.0404
X1.7986Y-7.0344
X1.7986Y-7.0634
X1.7986Y-7.0935
X1.834Y-7.0344
X1.834Y-7.0634
X1.834Y-7.0935
X1.8685Y-7.0344
X1.8685Y-7.0634
X1.8694Y-7.0935
X1.9398Y-7.4852
X1.9398Y-7.5128
X1.9398Y-7.5404
X1.9583Y-5.1368
X1.9593Y-5.1669
X1.9593Y-5.1959
X1.9733Y-7.4852
X1.9733Y-7.5128
X1.9733Y-7.5404
X1.9937Y-5.1368
X1.9937Y-5.1669
X1.9937Y-5.1959
X2.0047Y-7.4852
X2.0047Y-7.5128
X2.0047Y-7.5404
X2.0291Y-5.1368
X2.0291Y-5.1669
X2.0291Y-5.1959
X2.052Y-6.6368
X2.052Y-8.1368
X2.053Y-6.6669
X2.053Y-6.6959
X2.053Y-8.1669
X2.053Y-8.1959
X2.0867Y-5.8868
X2.0874Y-6.6368
X2.0874Y-6.6669
X2.0874Y-6.6959
X2.0874Y-8.1368
X2.0874Y-8.1669
X2.0874Y-8.1959
X2.0877Y-5.9169
X2.0877Y-5.9459
X2.1071Y-7.69
X2.1071Y-7.7175
X2.1071Y-7.7451
X2.1229Y-6.6368
X2.1229Y-6.6669
X2.1229Y-6.6959
X2.1229Y-8.1368
X2.1229Y-8.1669
X2.1229Y-8.1959
X2.1386Y-7.69
X2.1386Y-7.7175
X2.1386Y-7.7451
X2.1419Y-5.8868
X2.1419Y-5.9169
X2.1419Y-5.9459
X2.1721Y-7.69
X2.1721Y-7.7175
X2.1721Y-7.7451
X2.1773Y-5.8868
X2.1773Y-5.9169
X2.1773Y-5.9459
X2.2181Y-5.2352
X2.2181Y-5.2628
X2.2181Y-5.2904
X2.2516Y-5.2352
X2.2516Y-5.2628
X2.2516Y-5.2904
X2.2831Y-5.2352
X2.2831Y-5.2628
X2.2831Y-5.2904
X2.2946Y-6.94
X2.2946Y-6.9675
X2.2946Y-6.9951
X2.3261Y-6.94
X2.3261Y-6.9675
X2.3261Y-6.9951
X2.3596Y-6.94
X2.3596Y-6.9675
X2.3596Y-6.9951
X2.4299Y-7.3868
X2.4309Y-7.4169
X2.4309Y-7.4459
X2.4548Y-7.7844
X2.4548Y-7.8134
X2.4548Y-7.8435
X2.4654Y-7.3868
X2.4654Y-7.4169
X2.4654Y-7.4459
X2.4903Y-7.7844
X2.4903Y-7.8134
X2.4903Y-7.8435
X2.5008Y-7.3868
X2.5008Y-7.4169
X2.5008Y-7.4459
X2.5247Y-7.7844
X2.5247Y-7.8134
X2.5257Y-7.8435
X2.5931Y-5.9852
X2.5931Y-6.0128
X2.5931Y-6.0404
X2.6266Y-5.9852
X2.6266Y-6.0128
X2.6266Y-6.0404
X2.6581Y-5.9852
X2.6581Y-6.0128
X2.6581Y-6.0404
X2.7083Y-5.1368
X2.7093Y-5.1669
X2.7093Y-5.1959
X2.7437Y-5.1368
X2.7437Y-5.1669
X2.7437Y-5.1959
X2.7791Y-5.1368
X2.7791Y-5.1669
X2.7791Y-5.1959
X2.7806Y-6.7352
X2.7806Y-6.7628
X2.7806Y-6.7904
X2.7994Y-8.2352
X2.7994Y-8.2628
X2.7994Y-8.2904
X2.8141Y-6.7352
X2.8141Y-6.7628
X2.8141Y-6.7904
X2.8328Y-8.2352
X2.8328Y-8.2628
X2.8328Y-8.2904
X2.8456Y-6.7352
X2.8456Y-6.7628
X2.8456Y-6.7904
X2.8643Y-8.2352
X2.8643Y-8.2628
X2.8643Y-8.2904
X2.9509Y-7.69
X2.9509Y-7.7175
X2.9509Y-7.7451
X2.9681Y-5.2352
X2.9681Y-5.2628
X2.9681Y-5.2904
X2.9824Y-7.69
X2.9824Y-7.7175
X2.9824Y-7.7451
X3.0016Y-5.2352
X3.0016Y-5.2628
X3.0016Y-5.2904
X3.0158Y-7.69
X3.0158Y-7.7175
X3.0158Y-7.7451
X3.0331Y-5.2352
X3.0331Y-5.2628
X3.0331Y-5.2904
X3.0833Y-5.8868
X3.0843Y-5.9169
X3.0843Y-5.9459
X3.1187Y-5.8868
X3.1187Y-5.9169
X3.1187Y-5.9459
X3.1541Y-5.8868
X3.1541Y-5.9169
X3.1541Y-5.9459
X3.1556Y-7.4852
X3.1556Y-7.5128
X3.1556Y-7.5404
X3.1891Y-7.4852
X3.1891Y-7.5128
X3.1891Y-7.5404
X3.2206Y-7.4852
X3.2206Y-7.5128
X3.2206Y-7.5404
X3.2708Y-6.6368
X3.2718Y-6.6669
X3.2718Y-6.6959
X3.2895Y-8.1368
X3.2905Y-8.1669
X3.2905Y-8.1959
X3.3062Y-6.6368
X3.3062Y-6.6669
X3.3062Y-6.6959
X3.3249Y-8.1368
X3.3249Y-8.1669
X3.3249Y-8.1959
X3.3416Y-6.6368
X3.3416Y-6.6669
X3.3416Y-6.6959
X3.3431Y-5.9852
X3.3431Y-6.0128
X3.3431Y-6.0404
X3.3604Y-8.1368
X3.3604Y-8.1669
X3.3604Y-8.1959
X3.3766Y-5.9852
X3.3766Y-6.0128
X3.3766Y-6.0404
X3.4081Y-5.9852
X3.4081Y-6.0128
X3.4081Y-6.0404
X3.4386Y-5.1368
X3.4396Y-5.1669
X3.4396Y-5.1959
X3.474Y-5.1368
X3.474Y-5.1669
X3.474Y-5.1959
X3.5094Y-5.1368
X3.5094Y-5.1669
X3.5094Y-5.1959
X3.5306Y-6.7352
X3.5306Y-6.7628
X3.5306Y-6.7904
X3.5641Y-6.7352
X3.5641Y-6.7628
X3.5641Y-6.7904
X3.5956Y-6.7352
X3.5956Y-6.7628
X3.5956Y-6.7904
X3.6458Y-7.3868
X3.6468Y-7.4169
X3.6468Y-7.4459
X3.6812Y-7.3868
X3.6812Y-7.4169
X3.6812Y-7.4459
X3.7166Y-7.3868
X3.7166Y-7.4169
X3.7166Y-7.4459
X3.7181Y-5.2352
X3.7181Y-5.2628
X3.7181Y-5.2904
X3.7369Y-8.2352
X3.7369Y-8.2628
X3.7369Y-8.2904
X3.7516Y-5.2352
X3.7516Y-5.2628
X3.7516Y-5.2904
X3.7703Y-8.2352
X3.7703Y-8.2628
X3.7703Y-8.2904
X3.7831Y-5.2352
X3.7831Y-5.2628
X3.7831Y-5.2904
X3.8018Y-8.2352
X3.8018Y-8.2628
X3.8018Y-8.2904
X3.8333Y-5.8868
X3.8343Y-5.9169
X3.8343Y-5.9459
X3.8687Y-5.8868
X3.8687Y-5.9169
X3.8687Y-5.9459
X3.9041Y-5.8868
X3.9041Y-5.9169
X3.9041Y-5.9459
X3.9056Y-7.4852
X3.9056Y-7.5128
X3.9056Y-7.5404
X3.9391Y-7.4852
X3.9391Y-7.5128
X3.9391Y-7.5404
X3.9706Y-7.4852
X3.9706Y-7.5128
X3.9706Y-7.5404
X4.0208Y-6.6368
X4.0218Y-6.6669
X4.0218Y-6.6959
X4.0562Y-6.6368
X4.0562Y-6.6669
X4.0562Y-6.6959
X4.0916Y-6.6368
X4.0916Y-6.6669
X4.0916Y-6.6959
X4.0931Y-5.9852
X4.0931Y-6.0128
X4.0931Y-6.0404
X4.1266Y-5.9852
X4.1266Y-6.0128
X4.1266Y-6.0404
X4.1581Y-5.9852
X4.1581Y-6.0128
X4.1581Y-6.0404
X4.2083Y-5.1368
X4.2093Y-5.1669
X4.2093Y-5.1959
X4.227Y-8.1368
X4.228Y-8.1669
X4.228Y-8.1959
X4.2437Y-5.1368
X4.2437Y-5.1669
X4.2437Y-5.1959
X4.2624Y-8.1368
X4.2624Y-8.1669
X4.2624Y-8.1959
X4.2791Y-5.1368
X4.2791Y-5.1669
X4.2791Y-5.1959
X4.2806Y-6.7352
X4.2806Y-6.7628
X4.2806Y-6.7904
X4.2979Y-8.1368
X4.2979Y-8.1669
X4.2979Y-8.1959
X4.3141Y-6.7352
X4.3141Y-6.7628
X4.3141Y-6.7904
X4.3456Y-6.7352
X4.3456Y-6.7628
X4.3456Y-6.7904
X4.3958Y-7.3868
X4.3968Y-7.4169
X4.3968Y-7.4459
X4.4312Y-7.3868
X4.4312Y-7.4169
X4.4312Y-7.4459
X4.4666Y-7.3868
X4.4666Y-7.4169
X4.4666Y-7.4459
X4.4681Y-5.2352
X4.4681Y-5.2628
X4.4681Y-5.2904
X4.5016Y-5.2352
X4.5016Y-5.2628
X4.5016Y-5.2904
X4.5331Y-5.2352
X4.5331Y-5.2628
X4.5331Y-5.2904
X4.5833Y-5.8868
X4.5843Y-5.9169
X4.5843Y-5.9459
X4.6187Y-5.8868
X4.6187Y-5.9169
X4.6187Y-5.9459
X4.6541Y-5.8868
X4.6541Y-5.9169
X4.6541Y-5.9459
X4.6556Y-7.4852
X4.6556Y-7.5128
X4.6556Y-7.5404
X4.6891Y-7.4852
X4.6891Y-7.5128
X4.6891Y-7.5404
X4.7206Y-7.4852
X4.7206Y-7.5128
X4.7206Y-7.5404
X4.7708Y-6.6368
X4.7718Y-6.6669
X4.7718Y-6.6959
X4.8062Y-6.6368
X4.8062Y-6.6669
X4.8062Y-6.6959
X4.8416Y-6.6368
X4.8416Y-6.6669
X4.8416Y-6.6959
X4.8431Y-5.9852
X4.8431Y-6.0128
X4.8431Y-6.0404
X4.8766Y-5.9852
X4.8766Y-6.0128
X4.8766Y-6.0404
X4.9081Y-5.9852
X4.9081Y-6.0128
X4.9081Y-6.0404
X4.9583Y-5.1368
X4.9593Y-5.1669
X4.9593Y-5.1959
X4.9937Y-5.1368
X4.9937Y-5.1669
X4.9937Y-5.1959
X5.0291Y-5.1368
X5.0291Y-5.1669
X5.0291Y-5.1959
X5.0306Y-6.7352
X5.0306Y-6.7628
X5.0306Y-6.7904
X5.0641Y-6.7352
X5.0641Y-6.7628
X5.0641Y-6.7904
X5.0956Y-6.7352
X5.0956Y-6.7628
X5.0956Y-6.7904
X5.1458Y-7.3868
X5.1468Y-7.4169
X5.1468Y-7.4459
X5.1812Y-7.3868
X5.1812Y-7.4169
X5.1812Y-7.4459
X5.2166Y-7.3868
X5.2166Y-7.4169
X5.2166Y-7.4459
X5.2181Y-5.2352
X5.2181Y-5.2628
X5.2181Y-5.2904
X5.2516Y-5.2352
X5.2516Y-5.2628
X5.2516Y-5.2904
X5.2831Y-5.2352
X5.2831Y-5.2628
X5.2831Y-5.2904
X5.3333Y-5.8868
X5.3343Y-5.9169
X5.3343Y-5.9459
X5.3687Y-5.8868
X5.3687Y-5.9169
X5.3687Y-5.9459
X5.4041Y-5.8868
X5.4041Y-5.9169
X5.4041Y-5.9459
X5.4056Y-7.4852
X5.4056Y-7.5128
X5.4056Y-7.5404
X5.4391Y-7.4852
X5.4391Y-7.5128
X5.4391Y-7.5404
X5.4706Y-7.4852
X5.4706Y-7.5128
X5.4706Y-7.5404
X5.5208Y-6.6368
X5.5218Y-6.6669
X5.5218Y-6.6959
X5.5562Y-6.6368
X5.5562Y-6.6669
X5.5562Y-6.6959
X5.5916Y-6.6368
X5.5916Y-6.6669
X5.5916Y-6.6959
X5.5931Y-5.9852
X5.5931Y-6.0128
X5.5931Y-6.0404
X5.6266Y-5.9852
X5.6266Y-6.0128
X5.6266Y-6.0404
X5.6581Y-5.9852
X5.6581Y-6.0128
X5.6581Y-6.0404
X5.7083Y-5.1368
X5.7093Y-5.1669
X5.7093Y-5.1959
X5.7437Y-5.1368
X5.7437Y-5.1669
X5.7437Y-5.1959
X5.7791Y-5.1368
X5.7791Y-5.1669
X5.7791Y-5.1959
X5.7806Y-6.7352
X5.7806Y-6.7628
X5.7806Y-6.7904
X5.8141Y-6.7352
X5.8141Y-6.7628
X5.8141Y-6.7904
X5.8456Y-6.7352
X5.8456Y-6.7628
X5.8456Y-6.7904
X5.8958Y-7.3868
X5.8968Y-7.4169
X5.8968Y-7.4459
X5.9312Y-7.3868
X5.9312Y-7.4169
X5.9312Y-7.4459
X5.9666Y-7.3868
X5.9666Y-7.4169
X5.9666Y-7.4459
X5.9681Y-5.2352
X5.9681Y-5.2628
X5.9681Y-5.2904
X6.0016Y-5.2352
X6.0016Y-5.2628
X6.0016Y-5.2904
X6.0331Y-5.2352
X6.0331Y-5.2628
X6.0331Y-5.2904
X6.0833Y-5.8868
X6.0843Y-5.9169
X6.0843Y-5.9459
X6.1187Y-5.8868
X6.1187Y-5.9169
X6.1187Y-5.9459
X6.1541Y-5.8868
X6.1541Y-5.9169
X6.1541Y-5.9459
X6.1556Y-7.4852
X6.1556Y-7.5128
X6.1556Y-7.5404
X6.1891Y-7.4852
X6.1891Y-7.5128
X6.1891Y-7.5404
X6.2206Y-7.4852
X6.2206Y-7.5128
X6.2206Y-7.5404
X6.2708Y-6.6368
X6.2718Y-6.6669
X6.2718Y-6.6959
X6.3062Y-6.6368
X6.3062Y-6.6669
X6.3062Y-6.6959
X6.3416Y-6.6368
X6.3416Y-6.6669
X6.3416Y-6.6959
X6.3431Y-5.9852
X6.3431Y-6.0128
X6.3431Y-6.0404
X6.3766Y-5.9852
X6.3766Y-6.0128
X6.3766Y-6.0404
X6.4081Y-5.9852
X6.4081Y-6.0128
X6.4081Y-6.0404
X6.4583Y-5.1368
X6.4593Y-5.1669
X6.4593Y-5.1959
X6.4937Y-5.1368
X6.4937Y-5.1669
X6.4937Y-5.1959
X6.5291Y-5.1368
X6.5291Y-5.1669
X6.5291Y-5.1959
X6.5306Y-6.7352
X6.5306Y-6.7628
X6.5306Y-6.7904
X6.5641Y-6.7352
X6.5641Y-6.7628
X6.5641Y-6.7904
X6.5956Y-6.7352
X6.5956Y-6.7628
X6.5956Y-6.7904
X6.6458Y-7.3868
X6.6468Y-7.4169
X6.6468Y-7.4459
X6.6812Y-7.3868
X6.6812Y-7.4169
X6.6812Y-7.4459
X6.7166Y-7.3868
X6.7166Y-7.4169
X6.7166Y-7.4459
X6.7181Y-5.2352
X6.7181Y-5.2628
X6.7181Y-5.2904
X6.7219Y-8.3852
X6.7219Y-8.4128
X6.7219Y-8.4404
X6.7516Y-5.2352
X6.7516Y-5.2628
X6.7516Y-5.2904
X6.7553Y-8.3852
X6.7553Y-8.4128
X6.7553Y-8.4404
X6.7831Y-5.2352
X6.7831Y-5.2628
X6.7831Y-5.2904
X6.7868Y-8.3852
X6.7868Y-8.4128
X6.7868Y-8.4404
X6.8333Y-5.8868
X6.8343Y-5.9169
X6.8343Y-5.9459
X6.8687Y-5.8868
X6.8687Y-5.9169
X6.8687Y-5.9459
X6.9041Y-5.8868
X6.9041Y-5.9169
X6.9041Y-5.9459
X6.9056Y-7.4852
X6.9056Y-7.5128
X6.9056Y-7.5404
X6.9391Y-7.4852
X6.9391Y-7.5128
X6.9391Y-7.5404
X6.9706Y-7.4852
X6.9706Y-7.5128
X6.9706Y-7.5404
X7.0208Y-6.6368
X7.0218Y-6.6669
X7.0218Y-6.6959
X7.0562Y-6.6368
X7.0562Y-6.6669
X7.0562Y-6.6959
X7.0916Y-6.6368
X7.0916Y-6.6669
X7.0916Y-6.6959
X7.0931Y-5.9852
X7.0931Y-6.0128
X7.0931Y-6.0404
X7.1266Y-5.9852
X7.1266Y-6.0128
X7.1266Y-6.0404
X7.1581Y-5.9852
X7.1581Y-6.0128
X7.1581Y-6.0404
X7.2083Y-5.1368
X7.2093Y-5.1669
X7.2093Y-5.1959
X7.212Y-8.2868
X7.213Y-8.3169
X7.213Y-8.3459
X7.2437Y-5.1368
X7.2437Y-5.1669
X7.2437Y-5.1959
X7.2474Y-8.2868
X7.2474Y-8.3169
X7.2474Y-8.3459
X7.2791Y-5.1368
X7.2791Y-5.1669
X7.2791Y-5.1959
X7.2806Y-6.7352
X7.2806Y-6.7628
X7.2806Y-6.7904
X7.2829Y-8.2868
X7.2829Y-8.3169
X7.2829Y-8.3459
X7.3141Y-6.7352
X7.3141Y-6.7628
X7.3141Y-6.7904
X7.3456Y-6.7352
X7.3456Y-6.7628
X7.3456Y-6.7904
X7.3958Y-7.3868
X7.3968Y-7.4169
X7.3968Y-7.4459
X7.4312Y-7.3868
X7.4312Y-7.4169
X7.4312Y-7.4459
X7.4666Y-7.3868
X7.4666Y-7.4169
X7.4666Y-7.4459
X7.4681Y-5.2352
X7.4681Y-5.2628
X7.4681Y-5.2904
X7.5016Y-5.2352
X7.5016Y-5.2628
X7.5016Y-5.2904
X7.5331Y-5.2352
X7.5331Y-5.2628
X7.5331Y-5.2904
X7.5833Y-5.8868
X7.5843Y-5.9169
X7.5843Y-5.9459
X7.6187Y-5.8868
X7.6187Y-5.9169
X7.6187Y-5.9459
X7.6541Y-5.8868
X7.6541Y-5.9169
X7.6541Y-5.9459
X7.6556Y-7.4852
X7.6556Y-7.5128
X7.6556Y-7.5404
X7.6891Y-7.4852
X7.6891Y-7.5128
X7.6891Y-7.5404
X7.7206Y-7.4852
X7.7206Y-7.5128
X7.7206Y-7.5404
X7.7708Y-6.6368
X7.7718Y-6.6669
X7.7718Y-6.6959
X7.8062Y-6.6368
X7.8062Y-6.6669
X7.8062Y-6.6959
X7.8416Y-6.6368
X7.8416Y-6.6669
X7.8416Y-6.6959
X7.8431Y-5.9852
X7.8431Y-6.0128
X7.8431Y-6.0404
X7.8766Y-5.9852
X7.8766Y-6.0128
X7.8766Y-6.0404
X7.9081Y-5.9852
X7.9081Y-6.0128
X7.9081Y-6.0404
X7.9583Y-5.1368
X7.9593Y-5.1669
X7.9593Y-5.1959
X7.9937Y-5.1368
X7.9937Y-5.1669
X7.9937Y-5.1959
X8.0291Y-5.1368
X8.0291Y-5.1669
X8.0291Y-5.1959
X8.0306Y-6.7352
X8.0306Y-6.7628
X8.0306Y-6.7904
X8.0641Y-6.7352
X8.0641Y-6.7628
X8.0641Y-6.7904
X8.0956Y-6.7352
X8.0956Y-6.7628
X8.0956Y-6.7904
X8.1458Y-7.3868
X8.1468Y-7.4169
X8.1468Y-7.4459
X8.1812Y-7.3868
X8.1812Y-7.4169
X8.1812Y-7.4459
X8.2166Y-7.3868
X8.2166Y-7.4169
X8.2166Y-7.4459
X8.2181Y-5.2352
X8.2181Y-5.2628
X8.2181Y-5.2904
X8.2516Y-5.2352
X8.2516Y-5.2628
X8.2516Y-5.2904
X8.2831Y-5.2352
X8.2831Y-5.2628
X8.2831Y-5.2904
X8.3333Y-5.8868
X8.3343Y-5.9169
X8.3343Y-5.9459
X8.3687Y-5.8868
X8.3687Y-5.9169
X8.3687Y-5.9459
X8.4041Y-5.8868
X8.4041Y-5.9169
X8.4041Y-5.9459
X8.4056Y-7.4852
X8.4056Y-7.5128
X8.4056Y-7.5404
X8.4391Y-7.4852
X8.4391Y-7.5128
X8.4391Y-7.5404
X8.4706Y-7.4852
X8.4706Y-7.5128
X8.4706Y-7.5404
X8.5208Y-6.6368
X8.5218Y-6.6669
X8.5218Y-6.6959
X8.5562Y-6.6368
X8.5562Y-6.6669
X8.5562Y-6.6959
X8.5916Y-6.6368
X8.5916Y-6.6669
X8.5916Y-6.6959
X8.5931Y-5.9852
X8.5931Y-6.0128
X8.5931Y-6.0404
X8.6266Y-5.9852
X8.6266Y-6.0128
X8.6266Y-6.0404
X8.6581Y-5.9852
X8.6581Y-6.0128
X8.6581Y-6.0404
X8.7083Y-5.1368
X8.7093Y-5.1669
X8.7093Y-5.1959
X8.7437Y-5.1368
X8.7437Y-5.1669
X8.7437Y-5.1959
X8.7791Y-5.1368
X8.7791Y-5.1669
X8.7791Y-5.1959
X8.7806Y-6.7352
X8.7806Y-6.7628
X8.7806Y-6.7904
X8.8141Y-6.7352
X8.8141Y-6.7628
X8.8141Y-6.7904
X8.8456Y-6.7352
X8.8456Y-6.7628
X8.8456Y-6.7904
X8.8958Y-7.3868
X8.8968Y-7.4169
X8.8968Y-7.4459
X8.9312Y-7.3868
X8.9312Y-7.4169
X8.9312Y-7.4459
X8.9666Y-7.3868
X8.9666Y-7.4169
X8.9666Y-7.4459
X8.9681Y-5.2352
X8.9681Y-5.2628
X8.9681Y-5.2904
X9.0016Y-5.2352
X9.0016Y-5.2628
X9.0016Y-5.2904
X9.0331Y-5.2352
X9.0331Y-5.2628
X9.0331Y-5.2904
X9.0833Y-5.8868
X9.0843Y-5.9169
X9.0843Y-5.9459
X9.1187Y-5.8868
X9.1187Y-5.9169
X9.1187Y-5.9459
X9.1541Y-5.8868
X9.1541Y-5.9169
X9.1541Y-5.9459
X9.1556Y-7.4852
X9.1556Y-7.5128
X9.1556Y-7.5404
X9.1891Y-7.4852
X9.1891Y-7.5128
X9.1891Y-7.5404
X9.2206Y-7.4852
X9.2206Y-7.5128
X9.2206Y-7.5404
X9.2708Y-6.6368
X9.2718Y-6.6669
X9.2718Y-6.6959
X9.3062Y-6.6368
X9.3062Y-6.6669
X9.3062Y-6.6959
X9.3416Y-6.6368
X9.3416Y-6.6669
X9.3416Y-6.6959
X9.3431Y-5.9852
X9.3431Y-6.0128
X9.3431Y-6.0404
X9.3766Y-5.9852
X9.3766Y-6.0128
X9.3766Y-6.0404
X9.4081Y-5.9852
X9.4081Y-6.0128
X9.4081Y-6.0404
X9.4583Y-5.1368
X9.4593Y-5.1669
X9.4593Y-5.1959
X9.4937Y-5.1368
X9.4937Y-5.1669
X9.4937Y-5.1959
X9.5291Y-5.1368
X9.5291Y-5.1669
X9.5291Y-5.1959
X9.5306Y-6.7352
X9.5306Y-6.7628
X9.5306Y-6.7904
X9.5641Y-6.7352
X9.5641Y-6.7628
X9.5641Y-6.7904
X9.5956Y-6.7352
X9.5956Y-6.7628
X9.5956Y-6.7904
X9.6458Y-7.3868
X9.6468Y-7.4169
X9.6468Y-7.4459
X9.6812Y-7.3868
X9.6812Y-7.4169
X9.6812Y-7.4459
X9.6994Y-8.2352
X9.6994Y-8.2628
X9.6994Y-8.2904
X9.7166Y-7.3868
X9.7166Y-7.4169
X9.7166Y-7.4459
X9.7181Y-5.2352
X9.7181Y-5.2628
X9.7181Y-5.2904
X9.7328Y-8.2352
X9.7328Y-8.2628
X9.7328Y-8.2904
X9.7516Y-5.2352
X9.7516Y-5.2628
X9.7516Y-5.2904
X9.7643Y-8.2352
X9.7643Y-8.2628
X9.7643Y-8.2904
X9.7831Y-5.2352
X9.7831Y-5.2628
X9.7831Y-5.2904
X9.8333Y-5.8868
X9.8343Y-5.9169
X9.8343Y-5.9459
X9.8687Y-5.8868
X9.8687Y-5.9169
X9.8687Y-5.9459
X9.9041Y-5.8868
X9.9041Y-5.9169
X9.9041Y-5.9459
X9.9056Y-7.4852
X9.9056Y-7.5128
X9.9056Y-7.5404
X9.9391Y-7.4852
X9.9391Y-7.5128
X9.9391Y-7.5404
X9.9706Y-7.4852
X9.9706Y-7.5128
X9.9706Y-7.5404
X10.0208Y-6.6368
X10.0218Y-6.6669
X10.0218Y-6.6959
X10.0562Y-6.6368
X10.0562Y-6.6669
X10.0562Y-6.6959
X10.0916Y-6.6368
X10.0916Y-6.6669
X10.0916Y-6.6959
X10.0931Y-5.9852
X10.0931Y-6.0128
X10.0931Y-6.0404
X10.1266Y-5.9852
X10.1266Y-6.0128
X10.1266Y-6.0404
X10.1581Y-5.9852
X10.1581Y-6.0128
X10.1581Y-6.0404
X10.1895Y-8.1368
X10.1905Y-8.1669
X10.1905Y-8.1959
X10.2083Y-5.1368
X10.2093Y-5.1669
X10.2093Y-5.1959
X10.2249Y-8.1368
X10.2249Y-8.1669
X10.2249Y-8.1959
X10.2437Y-5.1368
X10.2437Y-5.1669
X10.2437Y-5.1959
X10.2604Y-8.1368
X10.2604Y-8.1669
X10.2604Y-8.1959
X10.2791Y-5.1368
X10.2791Y-5.1669
X10.2791Y-5.1959
X10.2806Y-6.7352
X10.2806Y-6.7628
X10.2806Y-6.7904
X10.3141Y-6.7352
X10.3141Y-6.7628
X10.3141Y-6.7904
X10.3456Y-6.7352
X10.3456Y-6.7628
X10.3456Y-6.7904
X10.3958Y-7.3868
X10.3968Y-7.4169
X10.3968Y-7.4459
X10.4312Y-7.3868
X10.4312Y-7.4169
X10.4312Y-7.4459
X10.4666Y-7.3868
X10.4666Y-7.4169
X10.4666Y-7.4459
X10.4681Y-5.2352
X10.4681Y-5.2628
X10.4681Y-5.2904
X10.5016Y-5.2352
X10.5016Y-5.2628
X10.5016Y-5.2904
X10.5331Y-5.2352
X10.5331Y-5.2628
X10.5331Y-5.2904
X10.5833Y-5.8868
X10.5843Y-5.9169
X10.5843Y-5.9459
X10.6187Y-5.8868
X10.6187Y-5.9169
X10.6187Y-5.9459
X10.6369Y-8.2352
X10.6369Y-8.2628
X10.6369Y-8.2904
X10.6541Y-5.8868
X10.6541Y-5.9169
X10.6541Y-5.9459
X10.6703Y-8.2352
X10.6703Y-8.2628
X10.6703Y-8.2904
X10.7018Y-8.2352
X10.7018Y-8.2628
X10.7018Y-8.2904
X10.7708Y-6.6368
X10.7718Y-6.6669
X10.7718Y-6.6959
X10.8062Y-6.6368
X10.8062Y-6.6669
X10.8062Y-6.6959
X10.8416Y-6.6368
X10.8416Y-6.6669
X10.8416Y-6.6959
X10.8431Y-5.9852
X10.8431Y-6.0128
X10.8431Y-6.0404
X10.8766Y-5.9852
X10.8766Y-6.0128
X10.8766Y-6.0404
X10.9081Y-5.9852
X10.9081Y-6.0128
X10.9081Y-6.0404
X10.9369Y-7.4852
X10.9369Y-7.5128
X10.9369Y-7.5404
X10.9583Y-5.1368
X10.9593Y-5.1669
X10.9593Y-5.1959
X10.9703Y-7.4852
X10.9703Y-7.5128
X10.9703Y-7.5404
X10.9937Y-5.1368
X10.9937Y-5.1669
X10.9937Y-5.1959
X11.0018Y-7.4852
X11.0018Y-7.5128
X11.0018Y-7.5404
X11.0291Y-5.1368
X11.0291Y-5.1669
X11.0291Y-5.1959
X11.127Y-8.1368
X11.128Y-8.1669
X11.128Y-8.1959
X11.1624Y-8.1368
X11.1624Y-8.1669
X11.1624Y-8.1959
X11.1979Y-8.1368
X11.1979Y-8.1669
X11.1979Y-8.1959
X11.2673Y-5.5344
X11.2673Y-5.5634
X11.2673Y-5.5935
X11.3028Y-5.5344
X11.3028Y-5.5634
X11.3028Y-5.5935
X11.3333Y-5.8868
X11.3343Y-5.9169
X11.3343Y-5.9459
X11.3372Y-5.5344
X11.3372Y-5.5634
X11.3382Y-5.5935
X11.3611Y-7.7844
X11.3611Y-7.8134
X11.3611Y-7.8435
X11.3687Y-5.8868
X11.3687Y-5.9169
X11.3687Y-5.9459
X11.3965Y-7.7844
X11.3965Y-7.8134
X11.3965Y-7.8435
X11.4041Y-5.8868
X11.4041Y-5.9169
X11.4041Y-5.9459
X11.427Y-7.3868
X11.428Y-7.4169
X11.428Y-7.4459
X11.431Y-7.7844
X11.431Y-7.8134
X11.4319Y-7.8435
X11.4625Y-7.3868
X11.4625Y-7.4169
X11.4625Y-7.4459
X11.4979Y-7.3868
X11.4979Y-7.4169
X11.4979Y-7.4459
X11.5023Y-6.7352
X11.5023Y-6.7628
X11.5023Y-6.7904
X11.5358Y-6.7352
X11.5358Y-6.7628
X11.5358Y-6.7904
X11.5672Y-6.7352
X11.5672Y-6.7628
X11.5672Y-6.7904
X11.5931Y-5.2352
X11.5931Y-5.2628
X11.5931Y-5.2904
X11.6266Y-5.2352
X11.6266Y-5.2628
X11.6266Y-5.2904
X11.6581Y-5.2352
X11.6581Y-5.2628
X11.6581Y-5.2904
X11.7634Y-5.44
X11.7634Y-5.4675
X11.7634Y-5.4951
X11.7806Y-5.9852
X11.7806Y-6.0128
X11.7806Y-6.0404
X11.7949Y-5.44
X11.7949Y-5.4675
X11.7949Y-5.4951
X11.8141Y-5.9852
X11.8141Y-6.0128
X11.8141Y-6.0404
X11.8283Y-5.44
X11.8283Y-5.4675
X11.8283Y-5.4951
X11.8456Y-5.9852
X11.8456Y-6.0128
X11.8456Y-6.0404
X11.8571Y-7.69
X11.8571Y-7.7175
X11.8571Y-7.7451
X11.8744Y-8.2352
X11.8744Y-8.2628
X11.8744Y-8.2904
X11.8886Y-7.69
X11.8886Y-7.7175
X11.8886Y-7.7451
X11.9078Y-8.2352
X11.9078Y-8.2628
X11.9078Y-8.2904
X11.9221Y-7.69
X11.9221Y-7.7175
X11.9221Y-7.7451
X11.9393Y-8.2352
X11.9393Y-8.2628
X11.9393Y-8.2904
X11.9681Y-7.4852
X11.9681Y-7.5128
X11.9681Y-7.5404
X11.9924Y-6.6368
X11.9934Y-6.6669
X11.9934Y-6.6959
X12.0016Y-7.4852
X12.0016Y-7.5128
X12.0016Y-7.5404
X12.0173Y-5.5344
X12.0173Y-5.5634
X12.0173Y-5.5935
X12.0279Y-6.6368
X12.0279Y-6.6669
X12.0279Y-6.6959
X12.0331Y-7.4852
X12.0331Y-7.5128
X12.0331Y-7.5404
X12.0528Y-5.5344
X12.0528Y-5.5634
X12.0528Y-5.5935
X12.0633Y-6.6368
X12.0633Y-6.6669
X12.0633Y-6.6959
X12.0833Y-5.1368
X12.0843Y-5.1669
X12.0843Y-5.1959
X12.0872Y-5.5344
X12.0872Y-5.5634
X12.0882Y-5.5935
X12.1187Y-5.1368
X12.1187Y-5.1669
X12.1187Y-5.1959
X12.1541Y-5.1368
X12.1541Y-5.1669
X12.1541Y-5.1959
X12.2708Y-5.8868
X12.2718Y-5.9169
X12.2718Y-5.9459
X12.3062Y-5.8868
X12.3062Y-5.9169
X12.3062Y-5.9459
X12.3417Y-5.8868
X12.3417Y-5.9169
X12.3417Y-5.9459
X12.3645Y-8.1368
X12.3655Y-8.1669
X12.3655Y-8.1959
X12.3999Y-8.1368
X12.3999Y-8.1669
X12.3999Y-8.1959
X12.4354Y-8.1368
X12.4354Y-8.1669
X12.4354Y-8.1959
X12.4583Y-7.3868
X12.4593Y-7.4169
X12.4593Y-7.4459
X12.4937Y-7.3868
X12.4937Y-7.4169
X12.4937Y-7.4459
X12.5134Y-5.44
X12.5134Y-5.4675
X12.5134Y-5.4951
X12.5291Y-7.3868
X12.5291Y-7.4169
X12.5291Y-7.4459
X12.5449Y-5.44
X12.5449Y-5.4675
X12.5449Y-5.4951
X12.5783Y-5.44
X12.5783Y-5.4675
X12.5783Y-5.4951
T3
X1.4632Y-5.5931
X1.4632Y-5.6719
X1.4632Y-5.7506
X1.4632Y-5.8293
X1.4632Y-5.9081
T4
X2.4376Y-8.4667
X2.4384Y-8.6093
X2.536Y-8.4667
X2.5368Y-8.6093
T5
X1.6232Y-5.2652
X1.717Y-6.7652
X1.717Y-8.2652
X1.767Y-7.8152
X1.8107Y-6.0152
X1.8732Y-5.1652
X1.9545Y-7.0652
X1.967Y-6.6652
X1.967Y-8.1652
X2.017Y-7.7152
X2.0607Y-5.9152
X2.0949Y-7.5152
X2.2045Y-6.9652
X2.3449Y-7.4152
X2.3732Y-5.2652
X2.6107Y-7.8152
X2.6232Y-5.1652
X2.7482Y-6.0152
X2.8607Y-7.7152
X2.9357Y-6.7652
X2.9545Y-8.2652
X2.9982Y-5.9152
X3.1232Y-5.2652
X3.1857Y-6.6652
X3.2045Y-8.1652
X3.3107Y-7.5152
X3.3732Y-5.1652
X3.4982Y-6.0152
X3.5607Y-7.4152
X3.6857Y-6.7652
X3.7482Y-5.9152
X3.8732Y-5.2652
X3.892Y-8.2652
X3.9357Y-6.6652
X4.0607Y-7.5152
X4.1232Y-5.1652
X4.142Y-8.1652
X4.2482Y-6.0152
X4.3107Y-7.4152
X4.4357Y-6.7652
X4.4982Y-5.9152
X4.6232Y-5.2652
X4.6857Y-6.6652
X4.8107Y-7.5152
X4.8732Y-5.1652
X4.9982Y-6.0152
X5.0607Y-7.4152
X5.1857Y-6.7652
X5.2482Y-5.9152
X5.3732Y-5.2652
X5.4357Y-6.6652
X5.5607Y-7.5152
X5.6232Y-5.1652
X5.7482Y-6.0152
X5.8107Y-7.4152
X5.9357Y-6.7652
X5.9982Y-5.9152
X6.1232Y-5.2652
X6.1857Y-6.6652
X6.3107Y-7.5152
X6.3732Y-5.1652
X6.4982Y-6.0152
X6.5607Y-7.4152
X6.6857Y-6.7652
X6.7482Y-5.9152
X6.8732Y-5.2652
X6.877Y-8.4152
X6.9357Y-6.6652
X7.0607Y-7.5152
X7.1232Y-5.1652
X7.127Y-8.3152
X7.2482Y-6.0152
X7.3107Y-7.4152
X7.4357Y-6.7652
X7.4982Y-5.9152
X7.6232Y-5.2652
X7.6857Y-6.6652
X7.8107Y-7.5152
X7.8732Y-5.1652
X7.9982Y-6.0152
X8.0607Y-7.4152
X8.1857Y-6.7652
X8.2482Y-5.9152
X8.3732Y-5.2652
X8.4357Y-6.6652
X8.5607Y-7.5152
X8.6232Y-5.1652
X8.7482Y-6.0152
X8.8107Y-7.4152
X8.9357Y-6.7652
X8.9982Y-5.9152
X9.1232Y-5.2652
X9.1857Y-6.6652
X9.3107Y-7.5152
X9.3732Y-5.1652
X9.4982Y-6.0152
X9.5607Y-7.4152
X9.6857Y-6.7652
X9.7482Y-5.9152
X9.8545Y-8.2652
X9.8732Y-5.2652
X9.9357Y-6.6652
X10.0607Y-7.5152
X10.1045Y-8.1652
X10.1232Y-5.1652
X10.2482Y-6.0152
X10.3107Y-7.4152
X10.4357Y-6.7652
X10.4982Y-5.9152
X10.6232Y-5.2652
X10.6857Y-6.6652
X10.792Y-8.2652
X10.8732Y-5.1652
X10.9982Y-6.0152
X11.042Y-8.1652
X11.092Y-7.5152
X11.2482Y-5.9152
X11.342Y-7.4152
X11.4232Y-5.5652
X11.517Y-7.8152
X11.6574Y-6.7652
X11.6732Y-5.4652
X11.7482Y-5.2652
X11.767Y-7.7152
X11.9074Y-6.6652
X11.9357Y-6.0152
X11.9982Y-5.1652
X12.0295Y-8.2652
X12.1232Y-7.5152
X12.1732Y-5.5652
X12.1857Y-5.9152
X12.2795Y-8.1652
X12.3732Y-7.4152
X12.4232Y-5.4652
M30
