%TF.GenerationSoftware,KiCad,Pcbnew,8.99.0-946-gf00a1ab517*%
%TF.CreationDate,2024-05-15T19:42:52+07:00*%
%TF.ProjectId,toro60_hs,746f726f-3630-45f6-9873-2e6b69636164,rev?*%
%TF.SameCoordinates,Original*%
%TF.FileFunction,Soldermask,Bot*%
%TF.FilePolarity,Negative*%
%FSLAX46Y46*%
G04 Gerber Fmt 4.6, Leading zero omitted, Abs format (unit mm)*
G04 Created by KiCad (PCBNEW 8.99.0-946-gf00a1ab517) date 2024-05-15 19:42:52*
%MOMM*%
%LPD*%
G01*
G04 APERTURE LIST*
G04 Aperture macros list*
%AMRoundRect*
0 Rectangle with rounded corners*
0 $1 Rounding radius*
0 $2 $3 $4 $5 $6 $7 $8 $9 X,Y pos of 4 corners*
0 Add a 4 corners polygon primitive as box body*
4,1,4,$2,$3,$4,$5,$6,$7,$8,$9,$2,$3,0*
0 Add four circle primitives for the rounded corners*
1,1,$1+$1,$2,$3*
1,1,$1+$1,$4,$5*
1,1,$1+$1,$6,$7*
1,1,$1+$1,$8,$9*
0 Add four rect primitives between the rounded corners*
20,1,$1+$1,$2,$3,$4,$5,0*
20,1,$1+$1,$4,$5,$6,$7,0*
20,1,$1+$1,$6,$7,$8,$9,0*
20,1,$1+$1,$8,$9,$2,$3,0*%
G04 Aperture macros list end*
%ADD10C,1.750000*%
%ADD11C,3.987800*%
%ADD12C,4.000000*%
%ADD13C,3.300000*%
%ADD14C,0.400000*%
%ADD15O,5.500000X2.410000*%
%ADD16RoundRect,0.250000X0.600000X0.750000X-0.600000X0.750000X-0.600000X-0.750000X0.600000X-0.750000X0*%
%ADD17O,1.700000X2.000000*%
%ADD18RoundRect,0.250000X0.625000X-0.350000X0.625000X0.350000X-0.625000X0.350000X-0.625000X-0.350000X0*%
%ADD19O,1.750000X1.200000*%
%ADD20C,3.048000*%
%ADD21RoundRect,0.250000X-0.600000X-0.750000X0.600000X-0.750000X0.600000X0.750000X-0.600000X0.750000X0*%
%ADD22RoundRect,0.250000X0.600000X-0.400000X0.600000X0.400000X-0.600000X0.400000X-0.600000X-0.400000X0*%
%ADD23RoundRect,0.375000X0.625000X0.375000X-0.625000X0.375000X-0.625000X-0.375000X0.625000X-0.375000X0*%
%ADD24RoundRect,0.500000X0.500000X1.400000X-0.500000X1.400000X-0.500000X-1.400000X0.500000X-1.400000X0*%
%ADD25R,3.000000X1.190000*%
%ADD26RoundRect,0.250000X-0.250000X-0.475000X0.250000X-0.475000X0.250000X0.475000X-0.250000X0.475000X0*%
%ADD27R,1.500000X0.900000*%
%ADD28RoundRect,0.250000X0.250000X0.475000X-0.250000X0.475000X-0.250000X-0.475000X0.250000X-0.475000X0*%
%ADD29RoundRect,0.250000X0.262500X0.450000X-0.262500X0.450000X-0.262500X-0.450000X0.262500X-0.450000X0*%
%ADD30RoundRect,0.150000X-0.150000X0.512500X-0.150000X-0.512500X0.150000X-0.512500X0.150000X0.512500X0*%
%ADD31RoundRect,0.250000X-0.600000X0.400000X-0.600000X-0.400000X0.600000X-0.400000X0.600000X0.400000X0*%
%ADD32RoundRect,0.150000X-0.625000X0.150000X-0.625000X-0.150000X0.625000X-0.150000X0.625000X0.150000X0*%
%ADD33RoundRect,0.250000X-0.650000X0.350000X-0.650000X-0.350000X0.650000X-0.350000X0.650000X0.350000X0*%
%ADD34RoundRect,0.250000X0.475000X-0.250000X0.475000X0.250000X-0.475000X0.250000X-0.475000X-0.250000X0*%
%ADD35RoundRect,0.075000X0.075000X-0.662500X0.075000X0.662500X-0.075000X0.662500X-0.075000X-0.662500X0*%
%ADD36RoundRect,0.075000X0.662500X-0.075000X0.662500X0.075000X-0.662500X0.075000X-0.662500X-0.075000X0*%
G04 APERTURE END LIST*
D10*
%TO.C,SW29*%
X301898000Y-155325000D03*
D11*
X306978000Y-155325000D03*
D12*
X306978000Y-155325000D03*
D10*
X312058000Y-155325000D03*
D13*
X309518000Y-150245000D03*
D14*
X311678000Y-149525000D03*
X311703000Y-150290000D03*
X311703000Y-151025000D03*
D15*
X311728000Y-150290000D03*
D14*
X312578000Y-149525000D03*
X312578000Y-150290000D03*
X312578000Y-151025000D03*
X313478000Y-149525000D03*
X313478000Y-150290000D03*
X313478000Y-151025000D03*
X299228000Y-152025000D03*
X299228000Y-152725000D03*
X299228000Y-153425000D03*
X300078000Y-152025000D03*
X300078000Y-152725000D03*
X300078000Y-153425000D03*
X300878000Y-152025000D03*
X300878000Y-152725000D03*
X300878000Y-153425000D03*
D15*
X300978000Y-152775000D03*
D13*
X303168000Y-152785000D03*
%TD*%
D10*
%TO.C,SW30*%
X57264000Y-174375000D03*
D11*
X52184000Y-174375000D03*
D10*
X47104000Y-174375000D03*
D13*
X49644000Y-179455000D03*
D14*
X47484000Y-180175000D03*
X47459000Y-179410000D03*
X47459000Y-178675000D03*
D15*
X47434000Y-179410000D03*
D14*
X46584000Y-180175000D03*
X46584000Y-179410000D03*
X46584000Y-178675000D03*
X45684000Y-180175000D03*
X45684000Y-179410000D03*
X45684000Y-178675000D03*
X59934000Y-177675000D03*
X59934000Y-176975000D03*
X59934000Y-176275000D03*
X59084000Y-177675000D03*
X59084000Y-176975000D03*
X59084000Y-176275000D03*
X58284000Y-177675000D03*
X58284000Y-176975000D03*
X58284000Y-176275000D03*
D15*
X58184000Y-176925000D03*
D13*
X55994000Y-176915000D03*
%TD*%
D10*
%TO.C,SW16*%
X44723000Y-155325000D03*
D11*
X49803000Y-155325000D03*
D12*
X49803000Y-155325000D03*
D10*
X54883000Y-155325000D03*
D13*
X52343000Y-150245000D03*
D14*
X53003000Y-149525000D03*
X53028000Y-150290000D03*
X53028000Y-151025000D03*
D15*
X53553000Y-150290000D03*
D14*
X54403000Y-149525000D03*
X54403000Y-150290000D03*
X54403000Y-151025000D03*
X55303000Y-149525000D03*
X55303000Y-150290000D03*
X55303000Y-151025000D03*
X42053000Y-152025000D03*
X42053000Y-152725000D03*
X42053000Y-153425000D03*
X42903000Y-152025000D03*
X42903000Y-152725000D03*
X42903000Y-153425000D03*
X43703000Y-152025000D03*
X43703000Y-152725000D03*
X43703000Y-153425000D03*
D15*
X43803000Y-152775000D03*
D13*
X45993000Y-152785000D03*
%TD*%
D10*
%TO.C,SW69*%
X272845999Y-212475000D03*
D11*
X277925999Y-212475000D03*
D10*
X283005999Y-212475000D03*
D13*
X280465999Y-207395000D03*
D14*
X282625999Y-206675000D03*
X282650999Y-207440000D03*
X282650999Y-208175000D03*
D15*
X282675999Y-207440000D03*
D14*
X283525999Y-206675000D03*
X283525999Y-207440000D03*
X283525999Y-208175000D03*
X284425999Y-206675000D03*
X284425999Y-207440000D03*
X284425999Y-208175000D03*
X270175999Y-209175000D03*
X270175999Y-209875000D03*
X270175999Y-210575000D03*
X271025999Y-209175000D03*
X271025999Y-209875000D03*
X271025999Y-210575000D03*
X271825999Y-209175000D03*
X271825999Y-209875000D03*
X271825999Y-210575000D03*
D15*
X271925999Y-209925000D03*
D13*
X274115999Y-209935000D03*
%TD*%
D10*
%TO.C,SW50*%
X178072500Y-193425000D03*
D11*
X183152500Y-193425000D03*
D10*
X188232500Y-193425000D03*
D13*
X185692500Y-188345000D03*
D14*
X187852500Y-187625000D03*
X187877500Y-188390000D03*
X187877500Y-189125000D03*
D15*
X187902500Y-188390000D03*
D14*
X188752500Y-187625000D03*
X188752500Y-188390000D03*
X188752500Y-189125000D03*
X189652500Y-187625000D03*
X189652500Y-188390000D03*
X189652500Y-189125000D03*
X175402500Y-190125000D03*
X175402500Y-190825000D03*
X175402500Y-191525000D03*
X176252500Y-190125000D03*
X176252500Y-190825000D03*
X176252500Y-191525000D03*
X177052500Y-190125000D03*
X177052500Y-190825000D03*
X177052500Y-191525000D03*
D15*
X177152500Y-190875000D03*
D13*
X179342500Y-190885000D03*
%TD*%
D10*
%TO.C,SW31*%
X73297500Y-174375000D03*
D11*
X78377500Y-174375000D03*
D10*
X83457500Y-174375000D03*
D13*
X80917500Y-169295000D03*
D14*
X83077500Y-168575000D03*
X83102500Y-169340000D03*
X83102500Y-170075000D03*
D15*
X83127500Y-169340000D03*
D14*
X83977500Y-168575000D03*
X83977500Y-169340000D03*
X83977500Y-170075000D03*
X84877500Y-168575000D03*
X84877500Y-169340000D03*
X84877500Y-170075000D03*
X70627500Y-171075000D03*
X70627500Y-171775000D03*
X70627500Y-172475000D03*
X71477500Y-171075000D03*
X71477500Y-171775000D03*
X71477500Y-172475000D03*
X72277500Y-171075000D03*
X72277500Y-171775000D03*
X72277500Y-172475000D03*
D15*
X72377500Y-171825000D03*
D13*
X74567500Y-171835000D03*
%TD*%
D10*
%TO.C,SW13*%
X268560000Y-136275000D03*
D11*
X273640000Y-136275000D03*
D10*
X278720000Y-136275000D03*
D13*
X276180000Y-131195000D03*
D14*
X278340000Y-130475000D03*
X278365000Y-131240000D03*
X278365000Y-131975000D03*
D15*
X278390000Y-131240000D03*
D14*
X279240000Y-130475000D03*
X279240000Y-131240000D03*
X279240000Y-131975000D03*
X280140000Y-130475000D03*
X280140000Y-131240000D03*
X280140000Y-131975000D03*
X265890000Y-132975000D03*
X265890000Y-133675000D03*
X265890000Y-134375000D03*
X266740000Y-132975000D03*
X266740000Y-133675000D03*
X266740000Y-134375000D03*
X267540000Y-132975000D03*
X267540000Y-133675000D03*
X267540000Y-134375000D03*
D15*
X267640000Y-133725000D03*
D13*
X269830000Y-133735000D03*
%TD*%
D10*
%TO.C,SW46*%
X101872500Y-193425000D03*
D11*
X106952500Y-193425000D03*
D10*
X112032500Y-193425000D03*
D13*
X109492500Y-188345000D03*
D14*
X111652500Y-187625000D03*
X111677500Y-188390000D03*
X111677500Y-189125000D03*
D15*
X111702500Y-188390000D03*
D14*
X112552500Y-187625000D03*
X112552500Y-188390000D03*
X112552500Y-189125000D03*
X113452500Y-187625000D03*
X113452500Y-188390000D03*
X113452500Y-189125000D03*
X99202500Y-190125000D03*
X99202500Y-190825000D03*
X99202500Y-191525000D03*
X100052500Y-190125000D03*
X100052500Y-190825000D03*
X100052500Y-191525000D03*
X100852500Y-190125000D03*
X100852500Y-190825000D03*
X100852500Y-191525000D03*
D15*
X100952500Y-190875000D03*
D13*
X103142500Y-190885000D03*
%TD*%
D10*
%TO.C,SW19*%
X106635000Y-155325000D03*
D11*
X111715000Y-155325000D03*
D10*
X116795000Y-155325000D03*
D13*
X114255000Y-150245000D03*
D14*
X116415000Y-149525000D03*
X116440000Y-150290000D03*
X116440000Y-151025000D03*
D15*
X116465000Y-150290000D03*
D14*
X117315000Y-149525000D03*
X117315000Y-150290000D03*
X117315000Y-151025000D03*
X118215000Y-149525000D03*
X118215000Y-150290000D03*
X118215000Y-151025000D03*
X103965000Y-152025000D03*
X103965000Y-152725000D03*
X103965000Y-153425000D03*
X104815000Y-152025000D03*
X104815000Y-152725000D03*
X104815000Y-153425000D03*
X105615000Y-152025000D03*
X105615000Y-152725000D03*
X105615000Y-153425000D03*
D15*
X105715000Y-152775000D03*
D13*
X107905000Y-152785000D03*
%TD*%
D10*
%TO.C,SW23*%
X182835000Y-155325000D03*
D11*
X187915000Y-155325000D03*
D10*
X192995000Y-155325000D03*
D13*
X190455000Y-150245000D03*
D14*
X192615000Y-149525000D03*
X192640000Y-150290000D03*
X192640000Y-151025000D03*
D15*
X192665000Y-150290000D03*
D14*
X193515000Y-149525000D03*
X193515000Y-150290000D03*
X193515000Y-151025000D03*
X194415000Y-149525000D03*
X194415000Y-150290000D03*
X194415000Y-151025000D03*
X180165000Y-152025000D03*
X180165000Y-152725000D03*
X180165000Y-153425000D03*
X181015000Y-152025000D03*
X181015000Y-152725000D03*
X181015000Y-153425000D03*
X181815000Y-152025000D03*
X181815000Y-152725000D03*
X181815000Y-153425000D03*
D15*
X181915000Y-152775000D03*
D13*
X184105000Y-152785000D03*
%TD*%
D16*
%TO.C,SWb\u00F4t1*%
X64435000Y-218675000D03*
D17*
X61935000Y-218675000D03*
%TD*%
D10*
%TO.C,SW53*%
X235222500Y-193425000D03*
D11*
X240302500Y-193425000D03*
D10*
X245382500Y-193425000D03*
D13*
X242842500Y-188345000D03*
D14*
X245002500Y-187625000D03*
X245027500Y-188390000D03*
X245027500Y-189125000D03*
D15*
X245052500Y-188390000D03*
D14*
X245902500Y-187625000D03*
X245902500Y-188390000D03*
X245902500Y-189125000D03*
X246802500Y-187625000D03*
X246802500Y-188390000D03*
X246802500Y-189125000D03*
X232552500Y-190125000D03*
X232552500Y-190825000D03*
X232552500Y-191525000D03*
X233402500Y-190125000D03*
X233402500Y-190825000D03*
X233402500Y-191525000D03*
X234202500Y-190125000D03*
X234202500Y-190825000D03*
X234202500Y-191525000D03*
D15*
X234302500Y-190875000D03*
D13*
X236492500Y-190885000D03*
%TD*%
D10*
%TO.C,SW28*%
X278085000Y-155325000D03*
D11*
X283165000Y-155325000D03*
D10*
X288245000Y-155325000D03*
D13*
X285705000Y-150245000D03*
D14*
X287865000Y-149525000D03*
X287890000Y-150290000D03*
X287890000Y-151025000D03*
D15*
X287915000Y-150290000D03*
D14*
X288765000Y-149525000D03*
X288765000Y-150290000D03*
X288765000Y-151025000D03*
X289665000Y-149525000D03*
X289665000Y-150290000D03*
X289665000Y-151025000D03*
X275415000Y-152025000D03*
X275415000Y-152725000D03*
X275415000Y-153425000D03*
X276265000Y-152025000D03*
X276265000Y-152725000D03*
X276265000Y-153425000D03*
X277065000Y-152025000D03*
X277065000Y-152725000D03*
X277065000Y-153425000D03*
D15*
X277165000Y-152775000D03*
D13*
X279355000Y-152785000D03*
%TD*%
D10*
%TO.C,SW56*%
X306660000Y-193425000D03*
D11*
X311740000Y-193425000D03*
D10*
X316820000Y-193425000D03*
D13*
X314280000Y-188345000D03*
D14*
X316440000Y-187625000D03*
X316465000Y-188390000D03*
X316465000Y-189125000D03*
D15*
X316490000Y-188390000D03*
D14*
X317340000Y-187625000D03*
X317340000Y-188390000D03*
X317340000Y-189125000D03*
X318240000Y-187625000D03*
X318240000Y-188390000D03*
X318240000Y-189125000D03*
X303990000Y-190125000D03*
X303990000Y-190825000D03*
X303990000Y-191525000D03*
X304840000Y-190125000D03*
X304840000Y-190825000D03*
X304840000Y-191525000D03*
X305640000Y-190125000D03*
X305640000Y-190825000D03*
X305640000Y-191525000D03*
D15*
X305740000Y-190875000D03*
D13*
X307930000Y-190885000D03*
%TD*%
D10*
%TO.C,SW34*%
X130447500Y-174375000D03*
D11*
X135527500Y-174375000D03*
D10*
X140607500Y-174375000D03*
D13*
X138067500Y-169295000D03*
D14*
X140227500Y-168575000D03*
X140252500Y-169340000D03*
X140252500Y-170075000D03*
D15*
X140277500Y-169340000D03*
D14*
X141127500Y-168575000D03*
X141127500Y-169340000D03*
X141127500Y-170075000D03*
X142027500Y-168575000D03*
X142027500Y-169340000D03*
X142027500Y-170075000D03*
X127777500Y-171075000D03*
X127777500Y-171775000D03*
X127777500Y-172475000D03*
X128627500Y-171075000D03*
X128627500Y-171775000D03*
X128627500Y-172475000D03*
X129427500Y-171075000D03*
X129427500Y-171775000D03*
X129427500Y-172475000D03*
D15*
X129527500Y-171825000D03*
D13*
X131717500Y-171835000D03*
%TD*%
D10*
%TO.C,SW45*%
X82822500Y-193425000D03*
D11*
X87902500Y-193425000D03*
D10*
X92982500Y-193425000D03*
D13*
X90442500Y-188345000D03*
D14*
X92602500Y-187625000D03*
X92627500Y-188390000D03*
X92627500Y-189125000D03*
D15*
X92652500Y-188390000D03*
D14*
X93502500Y-187625000D03*
X93502500Y-188390000D03*
X93502500Y-189125000D03*
X94402500Y-187625000D03*
X94402500Y-188390000D03*
X94402500Y-189125000D03*
X80152500Y-190125000D03*
X80152500Y-190825000D03*
X80152500Y-191525000D03*
X81002500Y-190125000D03*
X81002500Y-190825000D03*
X81002500Y-191525000D03*
X81802500Y-190125000D03*
X81802500Y-190825000D03*
X81802500Y-191525000D03*
D15*
X81902500Y-190875000D03*
D13*
X84092500Y-190885000D03*
%TD*%
D10*
%TO.C,SW2*%
X59010000Y-136275000D03*
D11*
X64090000Y-136275000D03*
D10*
X69170000Y-136275000D03*
D13*
X66630000Y-131195000D03*
D14*
X68790000Y-130475000D03*
X68815000Y-131240000D03*
X68815000Y-131975000D03*
D15*
X68840000Y-131240000D03*
D14*
X69690000Y-130475000D03*
X69690000Y-131240000D03*
X69690000Y-131975000D03*
X70590000Y-130475000D03*
X70590000Y-131240000D03*
X70590000Y-131975000D03*
X56340000Y-132975000D03*
X56340000Y-133675000D03*
X56340000Y-134375000D03*
X57190000Y-132975000D03*
X57190000Y-133675000D03*
X57190000Y-134375000D03*
X57990000Y-132975000D03*
X57990000Y-133675000D03*
X57990000Y-134375000D03*
D15*
X58090000Y-133725000D03*
D13*
X60280000Y-133735000D03*
%TD*%
D10*
%TO.C,SW21*%
X144735000Y-155325000D03*
D11*
X149815000Y-155325000D03*
D10*
X154895000Y-155325000D03*
D13*
X152355000Y-150245000D03*
D14*
X154515000Y-149525000D03*
X154540000Y-150290000D03*
X154540000Y-151025000D03*
D15*
X154565000Y-150290000D03*
D14*
X155415000Y-149525000D03*
X155415000Y-150290000D03*
X155415000Y-151025000D03*
X156315000Y-149525000D03*
X156315000Y-150290000D03*
X156315000Y-151025000D03*
X142065000Y-152025000D03*
X142065000Y-152725000D03*
X142065000Y-153425000D03*
X142915000Y-152025000D03*
X142915000Y-152725000D03*
X142915000Y-153425000D03*
X143715000Y-152025000D03*
X143715000Y-152725000D03*
X143715000Y-153425000D03*
D15*
X143815000Y-152775000D03*
D13*
X146005000Y-152785000D03*
%TD*%
D10*
%TO.C,SW3*%
X78060000Y-136275000D03*
D11*
X83140000Y-136275000D03*
D10*
X88220000Y-136275000D03*
D13*
X85680000Y-131195000D03*
D14*
X87340000Y-130475000D03*
X87365000Y-131240000D03*
X87365000Y-131975000D03*
D15*
X87390000Y-131240000D03*
D14*
X88240000Y-130475000D03*
X88240000Y-131240000D03*
X88240000Y-131975000D03*
X89140000Y-130475000D03*
X89140000Y-131240000D03*
X89140000Y-131975000D03*
X75390000Y-132975000D03*
X75390000Y-133675000D03*
X75390000Y-134375000D03*
X76240000Y-132975000D03*
X76240000Y-133675000D03*
X76240000Y-134375000D03*
X77040000Y-132975000D03*
X77040000Y-133675000D03*
X77040000Y-134375000D03*
D15*
X77140000Y-133725000D03*
D13*
X79330000Y-133735000D03*
%TD*%
D10*
%TO.C,SW26*%
X239985000Y-155325000D03*
D11*
X245065000Y-155325000D03*
D10*
X250145000Y-155325000D03*
D13*
X247605000Y-150245000D03*
D14*
X249765000Y-149525000D03*
X249790000Y-150290000D03*
X249790000Y-151025000D03*
D15*
X249815000Y-150290000D03*
D14*
X250665000Y-149525000D03*
X250665000Y-150290000D03*
X250665000Y-151025000D03*
X251565000Y-149525000D03*
X251565000Y-150290000D03*
X251565000Y-151025000D03*
X237315000Y-152025000D03*
X237315000Y-152725000D03*
X237315000Y-153425000D03*
X238165000Y-152025000D03*
X238165000Y-152725000D03*
X238165000Y-153425000D03*
X238965000Y-152025000D03*
X238965000Y-152725000D03*
X238965000Y-153425000D03*
D15*
X239065000Y-152775000D03*
D13*
X241255000Y-152785000D03*
%TD*%
D18*
%TO.C,J2*%
X37165000Y-150065000D03*
D19*
X37165000Y-148065000D03*
X37165000Y-146065000D03*
X37165000Y-144065000D03*
X37165000Y-142065000D03*
%TD*%
D10*
%TO.C,SW8*%
X173310000Y-136275000D03*
D11*
X178390000Y-136275000D03*
D10*
X183470000Y-136275000D03*
D13*
X180930000Y-131195000D03*
D14*
X183090000Y-130475000D03*
X183115000Y-131240000D03*
X183115000Y-131975000D03*
D15*
X183140000Y-131240000D03*
D14*
X183990000Y-130475000D03*
X183990000Y-131240000D03*
X183990000Y-131975000D03*
X184890000Y-130475000D03*
X184890000Y-131240000D03*
X184890000Y-131975000D03*
X170640000Y-132975000D03*
X170640000Y-133675000D03*
X170640000Y-134375000D03*
X171490000Y-132975000D03*
X171490000Y-133675000D03*
X171490000Y-134375000D03*
X172290000Y-132975000D03*
X172290000Y-133675000D03*
X172290000Y-134375000D03*
D15*
X172390000Y-133725000D03*
D13*
X174580000Y-133735000D03*
%TD*%
D10*
%TO.C,SW22*%
X163785000Y-155325000D03*
D11*
X168865000Y-155325000D03*
D10*
X173945000Y-155325000D03*
D13*
X171405000Y-150245000D03*
D14*
X173565000Y-149525000D03*
X173590000Y-150290000D03*
X173590000Y-151025000D03*
D15*
X173615000Y-150290000D03*
D14*
X174465000Y-149525000D03*
X174465000Y-150290000D03*
X174465000Y-151025000D03*
X175365000Y-149525000D03*
X175365000Y-150290000D03*
X175365000Y-151025000D03*
X161115000Y-152025000D03*
X161115000Y-152725000D03*
X161115000Y-153425000D03*
X161965000Y-152025000D03*
X161965000Y-152725000D03*
X161965000Y-153425000D03*
X162765000Y-152025000D03*
X162765000Y-152725000D03*
X162765000Y-153425000D03*
D15*
X162865000Y-152775000D03*
D13*
X165055000Y-152785000D03*
%TD*%
D10*
%TO.C,SW6*%
X135210000Y-136275000D03*
D11*
X140290000Y-136275000D03*
D10*
X145370000Y-136275000D03*
D13*
X142830000Y-131195000D03*
D14*
X144990000Y-130475000D03*
X145015000Y-131240000D03*
X145015000Y-131975000D03*
D15*
X145040000Y-131240000D03*
D14*
X145890000Y-130475000D03*
X145890000Y-131240000D03*
X145890000Y-131975000D03*
X146790000Y-130475000D03*
X146790000Y-131240000D03*
X146790000Y-131975000D03*
X132540000Y-132975000D03*
X132540000Y-133675000D03*
X132540000Y-134375000D03*
X133390000Y-132975000D03*
X133390000Y-133675000D03*
X133390000Y-134375000D03*
X134190000Y-132975000D03*
X134190000Y-133675000D03*
X134190000Y-134375000D03*
D15*
X134290000Y-133725000D03*
D13*
X136480000Y-133735000D03*
%TD*%
D10*
%TO.C,SW14*%
X297770000Y-136275000D03*
D11*
X292690000Y-136275000D03*
D10*
X287610000Y-136275000D03*
D13*
X290150000Y-141355000D03*
D14*
X287990000Y-142075000D03*
X287965000Y-141310000D03*
X287965000Y-140575000D03*
D15*
X287940000Y-141310000D03*
D14*
X287090000Y-142075000D03*
X287090000Y-141310000D03*
X287090000Y-140575000D03*
X286190000Y-142075000D03*
X286190000Y-141310000D03*
X286190000Y-140575000D03*
X300440000Y-139575000D03*
X300440000Y-138875000D03*
X300440000Y-138175000D03*
X299590000Y-139575000D03*
X299590000Y-138875000D03*
X299590000Y-138175000D03*
X298790000Y-139575000D03*
X298790000Y-138875000D03*
X298790000Y-138175000D03*
D15*
X298690000Y-138825000D03*
D13*
X296500000Y-138815000D03*
%TD*%
D10*
%TO.C,SW20*%
X125685000Y-155325000D03*
D11*
X130765000Y-155325000D03*
D10*
X135845000Y-155325000D03*
D13*
X133305000Y-150245000D03*
D14*
X135465000Y-149525000D03*
X135490000Y-150290000D03*
X135490000Y-151025000D03*
D15*
X135515000Y-150290000D03*
D14*
X136365000Y-149525000D03*
X136365000Y-150290000D03*
X136365000Y-151025000D03*
X137265000Y-149525000D03*
X137265000Y-150290000D03*
X137265000Y-151025000D03*
X123015000Y-152025000D03*
X123015000Y-152725000D03*
X123015000Y-153425000D03*
X123865000Y-152025000D03*
X123865000Y-152725000D03*
X123865000Y-153425000D03*
X124665000Y-152025000D03*
X124665000Y-152725000D03*
X124665000Y-153425000D03*
D15*
X124765000Y-152775000D03*
D13*
X126955000Y-152785000D03*
%TD*%
D10*
%TO.C,SW24*%
X201885000Y-155325000D03*
D11*
X206965000Y-155325000D03*
D10*
X212045000Y-155325000D03*
D13*
X209505000Y-150245000D03*
D14*
X211665000Y-149525000D03*
X211690000Y-150290000D03*
X211690000Y-151025000D03*
D15*
X211715000Y-150290000D03*
D14*
X212565000Y-149525000D03*
X212565000Y-150290000D03*
X212565000Y-151025000D03*
X213465000Y-149525000D03*
X213465000Y-150290000D03*
X213465000Y-151025000D03*
X199215000Y-152025000D03*
X199215000Y-152725000D03*
X199215000Y-153425000D03*
X200065000Y-152025000D03*
X200065000Y-152725000D03*
X200065000Y-153425000D03*
X200865000Y-152025000D03*
X200865000Y-152725000D03*
X200865000Y-153425000D03*
D15*
X200965000Y-152775000D03*
D13*
X203155000Y-152785000D03*
%TD*%
D10*
%TO.C,SW40*%
X244747500Y-174375000D03*
D11*
X249827500Y-174375000D03*
D10*
X254907500Y-174375000D03*
D13*
X252367500Y-169295000D03*
D14*
X254527500Y-168575000D03*
X254552500Y-169340000D03*
X254552500Y-170075000D03*
D15*
X254577500Y-169340000D03*
D14*
X255427500Y-168575000D03*
X255427500Y-169340000D03*
X255427500Y-170075000D03*
X256327500Y-168575000D03*
X256327500Y-169340000D03*
X256327500Y-170075000D03*
X242077500Y-171075000D03*
X242077500Y-171775000D03*
X242077500Y-172475000D03*
X242927500Y-171075000D03*
X242927500Y-171775000D03*
X242927500Y-172475000D03*
X243727500Y-171075000D03*
X243727500Y-171775000D03*
X243727500Y-172475000D03*
D15*
X243827500Y-171825000D03*
D13*
X246017500Y-171835000D03*
%TD*%
D10*
%TO.C,SW36*%
X168547500Y-174375000D03*
D11*
X173627500Y-174375000D03*
D10*
X178707500Y-174375000D03*
D13*
X176167500Y-169295000D03*
D14*
X178327500Y-168575000D03*
X178352500Y-169340000D03*
X178352500Y-170075000D03*
D15*
X178377500Y-169340000D03*
D14*
X179227500Y-168575000D03*
X179227500Y-169340000D03*
X179227500Y-170075000D03*
X180127500Y-168575000D03*
X180127500Y-169340000D03*
X180127500Y-170075000D03*
X165877500Y-171075000D03*
X165877500Y-171775000D03*
X165877500Y-172475000D03*
X166727500Y-171075000D03*
X166727500Y-171775000D03*
X166727500Y-172475000D03*
X167527500Y-171075000D03*
X167527500Y-171775000D03*
X167527500Y-172475000D03*
D15*
X167627500Y-171825000D03*
D13*
X169817500Y-171835000D03*
%TD*%
D10*
%TO.C,SW35*%
X149497500Y-174375000D03*
D11*
X154577500Y-174375000D03*
D10*
X159657500Y-174375000D03*
D13*
X157117500Y-169295000D03*
D14*
X159277500Y-168575000D03*
X159302500Y-169340000D03*
X159302500Y-170075000D03*
D15*
X159327500Y-169340000D03*
D14*
X160177500Y-168575000D03*
X160177500Y-169340000D03*
X160177500Y-170075000D03*
X161077500Y-168575000D03*
X161077500Y-169340000D03*
X161077500Y-170075000D03*
X146827500Y-171075000D03*
X146827500Y-171775000D03*
X146827500Y-172475000D03*
X147677500Y-171075000D03*
X147677500Y-171775000D03*
X147677500Y-172475000D03*
X148477500Y-171075000D03*
X148477500Y-171775000D03*
X148477500Y-172475000D03*
D15*
X148577500Y-171825000D03*
D13*
X150767500Y-171835000D03*
%TD*%
D10*
%TO.C,SW17*%
X68535000Y-155325000D03*
D11*
X73615000Y-155325000D03*
D10*
X78695000Y-155325000D03*
D13*
X76155000Y-150245000D03*
D14*
X78315000Y-149525000D03*
X78340000Y-150290000D03*
X78340000Y-151025000D03*
D15*
X78365000Y-150290000D03*
D14*
X79215000Y-149525000D03*
X79215000Y-150290000D03*
X79215000Y-151025000D03*
X80115000Y-149525000D03*
X80115000Y-150290000D03*
X80115000Y-151025000D03*
X65865000Y-152025000D03*
X65865000Y-152725000D03*
X65865000Y-153425000D03*
X66715000Y-152025000D03*
X66715000Y-152725000D03*
X66715000Y-153425000D03*
X67515000Y-152025000D03*
X67515000Y-152725000D03*
X67515000Y-153425000D03*
D15*
X67615000Y-152775000D03*
D13*
X69805000Y-152785000D03*
%TD*%
D10*
%TO.C,SW41*%
X263797500Y-174375000D03*
D11*
X268877500Y-174375000D03*
D10*
X273957500Y-174375000D03*
D13*
X271417500Y-169295000D03*
D14*
X273577500Y-168575000D03*
X273602500Y-169340000D03*
X273602500Y-170075000D03*
D15*
X273627500Y-169340000D03*
D14*
X274477500Y-168575000D03*
X274477500Y-169340000D03*
X274477500Y-170075000D03*
X275377500Y-168575000D03*
X275377500Y-169340000D03*
X275377500Y-170075000D03*
X261127500Y-171075000D03*
X261127500Y-171775000D03*
X261127500Y-172475000D03*
X261977500Y-171075000D03*
X261977500Y-171775000D03*
X261977500Y-172475000D03*
X262777500Y-171075000D03*
X262777500Y-171775000D03*
X262777500Y-172475000D03*
D15*
X262877500Y-171825000D03*
D13*
X265067500Y-171835000D03*
%TD*%
D10*
%TO.C,SW39*%
X225697500Y-174375000D03*
D11*
X230777500Y-174375000D03*
D10*
X235857500Y-174375000D03*
D13*
X233317500Y-169295000D03*
D14*
X235477500Y-168575000D03*
X235502500Y-169340000D03*
X235502500Y-170075000D03*
D15*
X235527500Y-169340000D03*
D14*
X236377500Y-168575000D03*
X236377500Y-169340000D03*
X236377500Y-170075000D03*
X237277500Y-168575000D03*
X237277500Y-169340000D03*
X237277500Y-170075000D03*
X223027500Y-171075000D03*
X223027500Y-171775000D03*
X223027500Y-172475000D03*
X223877500Y-171075000D03*
X223877500Y-171775000D03*
X223877500Y-172475000D03*
X224677500Y-171075000D03*
X224677500Y-171775000D03*
X224677500Y-172475000D03*
D15*
X224777500Y-171825000D03*
D13*
X226967500Y-171835000D03*
%TD*%
D11*
%TO.C,SW1005*%
X307009500Y-201680000D03*
D20*
X307009500Y-186440000D03*
D10*
X300151500Y-193425000D03*
D11*
X295071500Y-193425000D03*
D10*
X289991500Y-193425000D03*
D11*
X283133500Y-201680000D03*
D20*
X283133500Y-186440000D03*
D13*
X292531500Y-198505000D03*
D14*
X290371500Y-199225000D03*
X290346500Y-198460000D03*
X290346500Y-197725000D03*
D15*
X290321500Y-198460000D03*
D14*
X289471500Y-199225000D03*
X289471500Y-198460000D03*
X289471500Y-197725000D03*
X288571500Y-199225000D03*
X288571500Y-198460000D03*
X288571500Y-197725000D03*
X302821500Y-196725000D03*
X302821500Y-196025000D03*
X302821500Y-195325000D03*
X301971500Y-196725000D03*
X301971500Y-196025000D03*
X301971500Y-195325000D03*
X301171500Y-196725000D03*
X301171500Y-196025000D03*
X301171500Y-195325000D03*
D15*
X301071500Y-195975000D03*
D13*
X298881500Y-195965000D03*
%TD*%
D10*
%TO.C,SW11*%
X230460000Y-136275000D03*
D11*
X235540000Y-136275000D03*
D10*
X240620000Y-136275000D03*
D13*
X238080000Y-131195000D03*
D14*
X240240000Y-130475000D03*
X240265000Y-131240000D03*
X240265000Y-131975000D03*
D15*
X240290000Y-131240000D03*
D14*
X241140000Y-130475000D03*
X241140000Y-131240000D03*
X241140000Y-131975000D03*
X242040000Y-130475000D03*
X242040000Y-131240000D03*
X242040000Y-131975000D03*
X227790000Y-132975000D03*
X227790000Y-133675000D03*
X227790000Y-134375000D03*
X228640000Y-132975000D03*
X228640000Y-133675000D03*
X228640000Y-134375000D03*
X229440000Y-132975000D03*
X229440000Y-133675000D03*
X229440000Y-134375000D03*
D15*
X229540000Y-133725000D03*
D13*
X231730000Y-133735000D03*
%TD*%
D10*
%TO.C,SW49*%
X159022500Y-193425000D03*
D11*
X164102500Y-193425000D03*
D10*
X169182500Y-193425000D03*
D13*
X166642500Y-188345000D03*
D14*
X168802500Y-187625000D03*
X168827500Y-188390000D03*
X168827500Y-189125000D03*
D15*
X168852500Y-188390000D03*
D14*
X169702500Y-187625000D03*
X169702500Y-188390000D03*
X169702500Y-189125000D03*
X170602500Y-187625000D03*
X170602500Y-188390000D03*
X170602500Y-189125000D03*
X156352500Y-190125000D03*
X156352500Y-190825000D03*
X156352500Y-191525000D03*
X157202500Y-190125000D03*
X157202500Y-190825000D03*
X157202500Y-191525000D03*
X158002500Y-190125000D03*
X158002500Y-190825000D03*
X158002500Y-191525000D03*
D15*
X158102500Y-190875000D03*
D13*
X160292500Y-190885000D03*
%TD*%
D21*
%TO.C,SWb\u00F4trst1*%
X61915000Y-215055000D03*
D17*
X64415000Y-215055000D03*
%TD*%
D10*
%TO.C,SW12*%
X249510000Y-136275000D03*
D11*
X254590000Y-136275000D03*
D10*
X259670000Y-136275000D03*
D13*
X257130000Y-131195000D03*
D14*
X259290000Y-130475000D03*
X259315000Y-131240000D03*
X259315000Y-131975000D03*
D15*
X259340000Y-131240000D03*
D14*
X260190000Y-130475000D03*
X260190000Y-131240000D03*
X260190000Y-131975000D03*
X261090000Y-130475000D03*
X261090000Y-131240000D03*
X261090000Y-131975000D03*
X246840000Y-132975000D03*
X246840000Y-133675000D03*
X246840000Y-134375000D03*
X247690000Y-132975000D03*
X247690000Y-133675000D03*
X247690000Y-134375000D03*
X248490000Y-132975000D03*
X248490000Y-133675000D03*
X248490000Y-134375000D03*
D15*
X248590000Y-133725000D03*
D13*
X250780000Y-133735000D03*
%TD*%
D10*
%TO.C,SW1002*%
X42341000Y-174375000D03*
D11*
X47421000Y-174375000D03*
D10*
X52501000Y-174375000D03*
D13*
X49961000Y-169295000D03*
D14*
X52121000Y-168575000D03*
X52146000Y-169340000D03*
X52146000Y-170075000D03*
D15*
X52171000Y-169340000D03*
D14*
X53021000Y-168575000D03*
X53021000Y-169340000D03*
X53021000Y-170075000D03*
X53921000Y-168575000D03*
X53921000Y-169340000D03*
X53921000Y-170075000D03*
X39671000Y-171075000D03*
X39671000Y-171775000D03*
X39671000Y-172475000D03*
X40521000Y-171075000D03*
X40521000Y-171775000D03*
X40521000Y-172475000D03*
X41321000Y-171075000D03*
X41321000Y-171775000D03*
X41321000Y-172475000D03*
D15*
X41421000Y-171825000D03*
D13*
X43611000Y-171835000D03*
%TD*%
D10*
%TO.C,SW1*%
X39960000Y-136275000D03*
D11*
X45040000Y-136275000D03*
D10*
X50120000Y-136275000D03*
D13*
X47580000Y-131195000D03*
D14*
X49740000Y-130475000D03*
X49765000Y-131240000D03*
X49765000Y-131975000D03*
D15*
X49790000Y-131240000D03*
D14*
X50640000Y-130475000D03*
X50640000Y-131240000D03*
X50640000Y-131975000D03*
X51540000Y-130475000D03*
X51540000Y-131240000D03*
X51540000Y-131975000D03*
X37790000Y-132975000D03*
X37790000Y-133675000D03*
X37790000Y-134375000D03*
X38640000Y-132975000D03*
X38640000Y-133675000D03*
X38640000Y-134375000D03*
D15*
X39040000Y-133725000D03*
D14*
X39440000Y-132975000D03*
X39440000Y-133675000D03*
X39440000Y-134375000D03*
D13*
X41230000Y-133735000D03*
%TD*%
D10*
%TO.C,SW55*%
X280466500Y-193425000D03*
D11*
X285546500Y-193425000D03*
D10*
X290626500Y-193425000D03*
D13*
X288086500Y-188345000D03*
D14*
X290246500Y-187625000D03*
X290271500Y-188390000D03*
X290271500Y-189125000D03*
D15*
X290296500Y-188390000D03*
D14*
X291146500Y-187625000D03*
X291146500Y-188390000D03*
X291146500Y-189125000D03*
X292046500Y-187625000D03*
X292046500Y-188390000D03*
X292046500Y-189125000D03*
X277796500Y-190125000D03*
X277796500Y-190825000D03*
X277796500Y-191525000D03*
X278646500Y-190125000D03*
X278646500Y-190825000D03*
X278646500Y-191525000D03*
X279446500Y-190125000D03*
X279446500Y-190825000D03*
X279446500Y-191525000D03*
D15*
X279546500Y-190875000D03*
D13*
X281736500Y-190885000D03*
%TD*%
D10*
%TO.C,SW7*%
X154260000Y-136275000D03*
D11*
X159340000Y-136275000D03*
D10*
X164420000Y-136275000D03*
D13*
X161880000Y-131195000D03*
D14*
X164040000Y-130475000D03*
X164065000Y-131240000D03*
X164065000Y-131975000D03*
D15*
X164090000Y-131240000D03*
D14*
X164940000Y-130475000D03*
X164940000Y-131240000D03*
X164940000Y-131975000D03*
X165840000Y-130475000D03*
X165840000Y-131240000D03*
X165840000Y-131975000D03*
X151590000Y-132975000D03*
X151590000Y-133675000D03*
X151590000Y-134375000D03*
X152440000Y-132975000D03*
X152440000Y-133675000D03*
X152440000Y-134375000D03*
X153240000Y-132975000D03*
X153240000Y-133675000D03*
X153240000Y-134375000D03*
D15*
X153340000Y-133725000D03*
D13*
X155530000Y-133735000D03*
%TD*%
D10*
%TO.C,SW9*%
X192360000Y-136275000D03*
D11*
X197440000Y-136275000D03*
D10*
X202520000Y-136275000D03*
D13*
X199980000Y-131195000D03*
D14*
X202140000Y-130475000D03*
X202165000Y-131240000D03*
X202165000Y-131975000D03*
D15*
X202190000Y-131240000D03*
D14*
X203040000Y-130475000D03*
X203040000Y-131240000D03*
X203040000Y-131975000D03*
X203940000Y-130475000D03*
X203940000Y-131240000D03*
X203940000Y-131975000D03*
X189690000Y-132975000D03*
X189690000Y-133675000D03*
X189690000Y-134375000D03*
X190540000Y-132975000D03*
X190540000Y-133675000D03*
X190540000Y-134375000D03*
X191340000Y-132975000D03*
X191340000Y-133675000D03*
X191340000Y-134375000D03*
D15*
X191440000Y-133725000D03*
D13*
X193630000Y-133735000D03*
%TD*%
D10*
%TO.C,SW54*%
X254272500Y-193425000D03*
D11*
X259352500Y-193425000D03*
D10*
X264432500Y-193425000D03*
D13*
X261892500Y-188345000D03*
D14*
X264052500Y-187625000D03*
X264077500Y-188390000D03*
X264077500Y-189125000D03*
D15*
X264102500Y-188390000D03*
D14*
X264952500Y-187625000D03*
X264952500Y-188390000D03*
X264952500Y-189125000D03*
X265852500Y-187625000D03*
X265852500Y-188390000D03*
X265852500Y-189125000D03*
X251602500Y-190125000D03*
X251602500Y-190825000D03*
X251602500Y-191525000D03*
X252452500Y-190125000D03*
X252452500Y-190825000D03*
X252452500Y-191525000D03*
X253252500Y-190125000D03*
X253252500Y-190825000D03*
X253252500Y-191525000D03*
D15*
X253352500Y-190875000D03*
D13*
X255542500Y-190885000D03*
%TD*%
D10*
%TO.C,SW4*%
X97110000Y-136275000D03*
D11*
X102190000Y-136275000D03*
D10*
X107270000Y-136275000D03*
D13*
X104730000Y-131195000D03*
D14*
X106890000Y-130475000D03*
X106915000Y-131240000D03*
X106915000Y-131975000D03*
D15*
X106940000Y-131240000D03*
D14*
X107790000Y-130475000D03*
X107790000Y-131240000D03*
X107790000Y-131975000D03*
X108690000Y-130475000D03*
X108690000Y-131240000D03*
X108690000Y-131975000D03*
X94440000Y-132975000D03*
X94440000Y-133675000D03*
X94440000Y-134375000D03*
X95290000Y-132975000D03*
X95290000Y-133675000D03*
X95290000Y-134375000D03*
X96090000Y-132975000D03*
X96090000Y-133675000D03*
X96090000Y-134375000D03*
D15*
X96190000Y-133725000D03*
D13*
X98380000Y-133735000D03*
%TD*%
D11*
%TO.C,SW63*%
X128485100Y-208030000D03*
D20*
X128485100Y-223270000D03*
D10*
X173405000Y-216285000D03*
D11*
X178485000Y-216285000D03*
D10*
X183565000Y-216285000D03*
D11*
X228484900Y-208030000D03*
D20*
X228484900Y-223270000D03*
D13*
X181025000Y-211205000D03*
D14*
X183185000Y-210485000D03*
X183210000Y-211250000D03*
X183210000Y-211985000D03*
D15*
X183235000Y-211250000D03*
D14*
X184085000Y-210485000D03*
X184085000Y-211250000D03*
X184085000Y-211985000D03*
X184985000Y-210485000D03*
X184985000Y-211250000D03*
X184985000Y-211985000D03*
X170735000Y-212985000D03*
X170735000Y-213685000D03*
X170735000Y-214385000D03*
X171585000Y-212985000D03*
X171585000Y-213685000D03*
X171585000Y-214385000D03*
X172385000Y-212985000D03*
X172385000Y-213685000D03*
X172385000Y-214385000D03*
D15*
X172485000Y-213735000D03*
D13*
X174675000Y-213745000D03*
%TD*%
D10*
%TO.C,SW44*%
X73932500Y-193425000D03*
D11*
X68852500Y-193425000D03*
D10*
X63772500Y-193425000D03*
D13*
X66312500Y-198505000D03*
D14*
X64152500Y-199225000D03*
X64127500Y-198460000D03*
X64127500Y-197725000D03*
D15*
X64102500Y-198460000D03*
D14*
X63252500Y-199225000D03*
X63252500Y-198460000D03*
X63252500Y-197725000D03*
X62352500Y-199225000D03*
X62352500Y-198460000D03*
X62352500Y-197725000D03*
X76602500Y-196725000D03*
X76602500Y-196025000D03*
X76602500Y-195325000D03*
X75752500Y-196725000D03*
X75752500Y-196025000D03*
X75752500Y-195325000D03*
X74952500Y-196725000D03*
X74952500Y-196025000D03*
X74952500Y-195325000D03*
D15*
X74852500Y-195975000D03*
D13*
X72662500Y-195965000D03*
%TD*%
D11*
%TO.C,SW42*%
X287970099Y-166120000D03*
D20*
X287970099Y-181360000D03*
D10*
X294828099Y-174375000D03*
D11*
X299908099Y-174375000D03*
D10*
X304988099Y-174375000D03*
D11*
X311846099Y-166120000D03*
D20*
X311846099Y-181360000D03*
D13*
X302448099Y-169295000D03*
D14*
X304608099Y-168575000D03*
X304633099Y-169340000D03*
X304633099Y-170075000D03*
D15*
X304658099Y-169340000D03*
D14*
X305508099Y-168575000D03*
X305508099Y-169340000D03*
X305508099Y-170075000D03*
X306408099Y-168575000D03*
X306408099Y-169340000D03*
X306408099Y-170075000D03*
X292158099Y-171075000D03*
X292158099Y-171775000D03*
X292158099Y-172475000D03*
X293008099Y-171075000D03*
X293008099Y-171775000D03*
X293008099Y-172475000D03*
X293808099Y-171075000D03*
X293808099Y-171775000D03*
X293808099Y-172475000D03*
D15*
X293908099Y-171825000D03*
D13*
X296098099Y-171835000D03*
%TD*%
D10*
%TO.C,SW32*%
X92347500Y-174375000D03*
D11*
X97427500Y-174375000D03*
D10*
X102507500Y-174375000D03*
D13*
X99967500Y-169295000D03*
D14*
X102127500Y-168575000D03*
X102152500Y-169340000D03*
X102152500Y-170075000D03*
D15*
X102177500Y-169340000D03*
D14*
X103027500Y-168575000D03*
X103027500Y-169340000D03*
X103027500Y-170075000D03*
X103927500Y-168575000D03*
X103927500Y-169340000D03*
X103927500Y-170075000D03*
X89677500Y-171075000D03*
X89677500Y-171775000D03*
X89677500Y-172475000D03*
X90527500Y-171075000D03*
X90527500Y-171775000D03*
X90527500Y-172475000D03*
X91327500Y-171075000D03*
X91327500Y-171775000D03*
X91327500Y-172475000D03*
D15*
X91427500Y-171825000D03*
D13*
X93617500Y-171835000D03*
%TD*%
D10*
%TO.C,SW58*%
X73773500Y-212475000D03*
D11*
X78853500Y-212475000D03*
D10*
X83933500Y-212475000D03*
D13*
X81393500Y-207395000D03*
D14*
X83553500Y-206675000D03*
X83578500Y-207440000D03*
X83578500Y-208175000D03*
D15*
X83603500Y-207440000D03*
D14*
X84453500Y-206675000D03*
X84453500Y-207440000D03*
X84453500Y-208175000D03*
X85353500Y-206675000D03*
X85353500Y-207440000D03*
X85353500Y-208175000D03*
X71103500Y-209175000D03*
X71103500Y-209875000D03*
X71103500Y-210575000D03*
X71953500Y-209175000D03*
X71953500Y-209875000D03*
X71953500Y-210575000D03*
X72753500Y-209175000D03*
X72753500Y-209875000D03*
X72753500Y-210575000D03*
D15*
X72853500Y-209925000D03*
D13*
X75043500Y-209935000D03*
%TD*%
D10*
%TO.C,SW51*%
X197122500Y-193425000D03*
D11*
X202202500Y-193425000D03*
D10*
X207282500Y-193425000D03*
D13*
X204742500Y-188345000D03*
D14*
X206902500Y-187625000D03*
X206927500Y-188390000D03*
X206927500Y-189125000D03*
D15*
X206952500Y-188390000D03*
D14*
X207802500Y-187625000D03*
X207802500Y-188390000D03*
X207802500Y-189125000D03*
X208702500Y-187625000D03*
X208702500Y-188390000D03*
X208702500Y-189125000D03*
X194452500Y-190125000D03*
X194452500Y-190825000D03*
X194452500Y-191525000D03*
X195302500Y-190125000D03*
X195302500Y-190825000D03*
X195302500Y-191525000D03*
X196102500Y-190125000D03*
X196102500Y-190825000D03*
X196102500Y-191525000D03*
D15*
X196202500Y-190875000D03*
D13*
X198392500Y-190885000D03*
%TD*%
D10*
%TO.C,SW33*%
X111397500Y-174375000D03*
D11*
X116477500Y-174375000D03*
D10*
X121557500Y-174375000D03*
D13*
X119017500Y-169295000D03*
D14*
X121177500Y-168575000D03*
X121202500Y-169340000D03*
X121202500Y-170075000D03*
D15*
X121227500Y-169340000D03*
D14*
X122077500Y-168575000D03*
X122077500Y-169340000D03*
X122077500Y-170075000D03*
X122977500Y-168575000D03*
X122977500Y-169340000D03*
X122977500Y-170075000D03*
X108727500Y-171075000D03*
X108727500Y-171775000D03*
X108727500Y-172475000D03*
X109577500Y-171075000D03*
X109577500Y-171775000D03*
X109577500Y-172475000D03*
X110377500Y-171075000D03*
X110377500Y-171775000D03*
X110377500Y-172475000D03*
D15*
X110477500Y-171825000D03*
D13*
X112667500Y-171835000D03*
%TD*%
D10*
%TO.C,SW27*%
X259035000Y-155325000D03*
D11*
X264115000Y-155325000D03*
D10*
X269195000Y-155325000D03*
D13*
X266655000Y-150245000D03*
D14*
X268815000Y-149525000D03*
X268840000Y-150290000D03*
X268840000Y-151025000D03*
D15*
X268865000Y-150290000D03*
D14*
X269715000Y-149525000D03*
X269715000Y-150290000D03*
X269715000Y-151025000D03*
X270615000Y-149525000D03*
X270615000Y-150290000D03*
X270615000Y-151025000D03*
X256365000Y-152025000D03*
X256365000Y-152725000D03*
X256365000Y-153425000D03*
X257215000Y-152025000D03*
X257215000Y-152725000D03*
X257215000Y-153425000D03*
X258015000Y-152025000D03*
X258015000Y-152725000D03*
X258015000Y-153425000D03*
D15*
X258115000Y-152775000D03*
D13*
X260305000Y-152785000D03*
%TD*%
D10*
%TO.C,SW5*%
X116160000Y-136275000D03*
D11*
X121240000Y-136275000D03*
D10*
X126320000Y-136275000D03*
D13*
X123780000Y-131195000D03*
D14*
X125940000Y-130475000D03*
X125965000Y-131240000D03*
X125965000Y-131975000D03*
D15*
X125990000Y-131240000D03*
D14*
X126840000Y-130475000D03*
X126840000Y-131240000D03*
X126840000Y-131975000D03*
X127740000Y-130475000D03*
X127740000Y-131240000D03*
X127740000Y-131975000D03*
X113490000Y-132975000D03*
X113490000Y-133675000D03*
X113490000Y-134375000D03*
X114340000Y-132975000D03*
X114340000Y-133675000D03*
X114340000Y-134375000D03*
X115140000Y-132975000D03*
X115140000Y-133675000D03*
X115140000Y-134375000D03*
D15*
X115240000Y-133725000D03*
D13*
X117430000Y-133735000D03*
%TD*%
D10*
%TO.C,SW25*%
X220935000Y-155325000D03*
D11*
X226015000Y-155325000D03*
D10*
X231095000Y-155325000D03*
D13*
X228555000Y-150245000D03*
D14*
X230715000Y-149525000D03*
X230740000Y-150290000D03*
X230740000Y-151025000D03*
D15*
X230765000Y-150290000D03*
D14*
X231615000Y-149525000D03*
X231615000Y-150290000D03*
X231615000Y-151025000D03*
X232515000Y-149525000D03*
X232515000Y-150290000D03*
X232515000Y-151025000D03*
X218265000Y-152025000D03*
X218265000Y-152725000D03*
X218265000Y-153425000D03*
X219115000Y-152025000D03*
X219115000Y-152725000D03*
X219115000Y-153425000D03*
X219915000Y-152025000D03*
X219915000Y-152725000D03*
X219915000Y-153425000D03*
D15*
X220015000Y-152775000D03*
D13*
X222205000Y-152785000D03*
%TD*%
D10*
%TO.C,SW70*%
X304278500Y-212475000D03*
D11*
X309358500Y-212475000D03*
D10*
X314438500Y-212475000D03*
D13*
X311898500Y-207395000D03*
D14*
X314058500Y-206675000D03*
X314083500Y-207440000D03*
X314083500Y-208175000D03*
D15*
X314108500Y-207440000D03*
D14*
X314958500Y-206675000D03*
X314958500Y-207440000D03*
X314958500Y-208175000D03*
X315858500Y-206675000D03*
X315858500Y-207440000D03*
X315858500Y-208175000D03*
X301608500Y-209175000D03*
X301608500Y-209875000D03*
X301608500Y-210575000D03*
X302458500Y-209175000D03*
X302458500Y-209875000D03*
X302458500Y-210575000D03*
X303258500Y-209175000D03*
X303258500Y-209875000D03*
X303258500Y-210575000D03*
D15*
X303358500Y-209925000D03*
D13*
X305548500Y-209935000D03*
%TD*%
D10*
%TO.C,SW43*%
X52501000Y-193425000D03*
D11*
X47421000Y-193425000D03*
D10*
X42341000Y-193425000D03*
D13*
X44881000Y-198505000D03*
D14*
X42721000Y-199225000D03*
X42696000Y-198460000D03*
X42696000Y-197725000D03*
D15*
X42671000Y-198460000D03*
D14*
X41821000Y-199225000D03*
X41821000Y-198460000D03*
X41821000Y-197725000D03*
X40921000Y-199225000D03*
X40921000Y-198460000D03*
X40921000Y-197725000D03*
X55171000Y-196725000D03*
X55171000Y-196025000D03*
X55171000Y-195325000D03*
X54321000Y-196725000D03*
X54321000Y-196025000D03*
X54321000Y-195325000D03*
X53521000Y-196725000D03*
X53521000Y-196025000D03*
X53521000Y-195325000D03*
D15*
X53421000Y-195975000D03*
D13*
X51231000Y-195965000D03*
%TD*%
D10*
%TO.C,SW47*%
X120922500Y-193425000D03*
D11*
X126002500Y-193425000D03*
D10*
X131082500Y-193425000D03*
D13*
X128542500Y-188345000D03*
D14*
X130702500Y-187625000D03*
X130727500Y-188390000D03*
X130727500Y-189125000D03*
D15*
X130752500Y-188390000D03*
D14*
X131602500Y-187625000D03*
X131602500Y-188390000D03*
X131602500Y-189125000D03*
X132502500Y-187625000D03*
X132502500Y-188390000D03*
X132502500Y-189125000D03*
X118252500Y-190125000D03*
X118252500Y-190825000D03*
X118252500Y-191525000D03*
X119102500Y-190125000D03*
X119102500Y-190825000D03*
X119102500Y-191525000D03*
X119902500Y-190125000D03*
X119902500Y-190825000D03*
X119902500Y-191525000D03*
D15*
X120002500Y-190875000D03*
D13*
X122192500Y-190885000D03*
%TD*%
D10*
%TO.C,SW59*%
X97586000Y-212475000D03*
D11*
X102666000Y-212475000D03*
D10*
X107746000Y-212475000D03*
D13*
X105206000Y-207395000D03*
D14*
X107366000Y-206675000D03*
X107391000Y-207440000D03*
X107391000Y-208175000D03*
D15*
X107416000Y-207440000D03*
D14*
X108266000Y-206675000D03*
X108266000Y-207440000D03*
X108266000Y-208175000D03*
X109166000Y-206675000D03*
X109166000Y-207440000D03*
X109166000Y-208175000D03*
X94916000Y-209175000D03*
X94916000Y-209875000D03*
X94916000Y-210575000D03*
X95766000Y-209175000D03*
X95766000Y-209875000D03*
X95766000Y-210575000D03*
X96566000Y-209175000D03*
X96566000Y-209875000D03*
X96566000Y-210575000D03*
D15*
X96666000Y-209925000D03*
D13*
X98856000Y-209935000D03*
%TD*%
D20*
%TO.C,SW1004*%
X45082600Y-186440000D03*
D11*
X45082600Y-201680000D03*
D10*
X51940600Y-193425000D03*
D11*
X57020600Y-193425000D03*
D10*
X62100600Y-193425000D03*
D20*
X68958600Y-186440000D03*
D11*
X68958600Y-201680000D03*
D13*
X59560600Y-188345000D03*
D14*
X61720600Y-187625000D03*
X61745600Y-188390000D03*
X61745600Y-189125000D03*
D15*
X61770600Y-188390000D03*
D14*
X62620600Y-187625000D03*
X62620600Y-188390000D03*
X62620600Y-189125000D03*
X63520600Y-187625000D03*
X63520600Y-188390000D03*
X63520600Y-189125000D03*
X49270600Y-190125000D03*
X49270600Y-190825000D03*
X49270600Y-191525000D03*
X50120600Y-190125000D03*
X50120600Y-190825000D03*
X50120600Y-191525000D03*
X50920600Y-190125000D03*
X50920600Y-190825000D03*
X50920600Y-191525000D03*
D15*
X51020600Y-190875000D03*
D13*
X53210600Y-190885000D03*
%TD*%
D20*
%TO.C,SW1000*%
X290277000Y-129290000D03*
D11*
X290277000Y-144530000D03*
D10*
X297135000Y-136275000D03*
D11*
X302215000Y-136275000D03*
D10*
X307295000Y-136275000D03*
D20*
X314153000Y-129290000D03*
D11*
X314153000Y-144530000D03*
D13*
X304755000Y-131195000D03*
D14*
X306915000Y-130475000D03*
X306940000Y-131240000D03*
X306940000Y-131975000D03*
D15*
X306965000Y-131240000D03*
D14*
X307815000Y-130475000D03*
X307815000Y-131240000D03*
X307815000Y-131975000D03*
X308715000Y-130475000D03*
X308715000Y-131240000D03*
X308715000Y-131975000D03*
X294465000Y-132975000D03*
X294465000Y-133675000D03*
X294465000Y-134375000D03*
X295315000Y-132975000D03*
X295315000Y-133675000D03*
X295315000Y-134375000D03*
X296115000Y-132975000D03*
X296115000Y-133675000D03*
X296115000Y-134375000D03*
D15*
X296215000Y-133725000D03*
D13*
X298405000Y-133735000D03*
%TD*%
D10*
%TO.C,SW18*%
X87585000Y-155325000D03*
D11*
X92665000Y-155325000D03*
D10*
X97745000Y-155325000D03*
D13*
X95205000Y-150245000D03*
D14*
X97365000Y-149525000D03*
X97390000Y-150290000D03*
X97390000Y-151025000D03*
D15*
X97415000Y-150290000D03*
D14*
X98265000Y-149525000D03*
X98265000Y-150290000D03*
X98265000Y-151025000D03*
X99165000Y-149525000D03*
X99165000Y-150290000D03*
X99165000Y-151025000D03*
X84915000Y-152025000D03*
X84915000Y-152725000D03*
X84915000Y-153425000D03*
X85765000Y-152025000D03*
X85765000Y-152725000D03*
X85765000Y-153425000D03*
X86565000Y-152025000D03*
X86565000Y-152725000D03*
X86565000Y-153425000D03*
D15*
X86665000Y-152775000D03*
D13*
X88855000Y-152785000D03*
%TD*%
D10*
%TO.C,SW10*%
X211410000Y-136275000D03*
D11*
X216490000Y-136275000D03*
D10*
X221570000Y-136275000D03*
D13*
X219030000Y-131195000D03*
D14*
X221190000Y-130475000D03*
X221215000Y-131240000D03*
X221215000Y-131975000D03*
D15*
X221240000Y-131240000D03*
D14*
X222090000Y-130475000D03*
X222090000Y-131240000D03*
X222090000Y-131975000D03*
X222990000Y-130475000D03*
X222990000Y-131240000D03*
X222990000Y-131975000D03*
X208740000Y-132975000D03*
X208740000Y-133675000D03*
X208740000Y-134375000D03*
X209590000Y-132975000D03*
X209590000Y-133675000D03*
X209590000Y-134375000D03*
X210390000Y-132975000D03*
X210390000Y-133675000D03*
X210390000Y-134375000D03*
D15*
X210490000Y-133725000D03*
D13*
X212680000Y-133735000D03*
%TD*%
D10*
%TO.C,SW68*%
X249033499Y-212475000D03*
D11*
X254113499Y-212475000D03*
D10*
X259193499Y-212475000D03*
D13*
X256653499Y-207395000D03*
D14*
X258813499Y-206675000D03*
X258838499Y-207440000D03*
X258838499Y-208175000D03*
D15*
X258863499Y-207440000D03*
D14*
X259713499Y-206675000D03*
X259713499Y-207440000D03*
X259713499Y-208175000D03*
X260613499Y-206675000D03*
X260613499Y-207440000D03*
X260613499Y-208175000D03*
X246363499Y-209175000D03*
X246363499Y-209875000D03*
X246363499Y-210575000D03*
X247213499Y-209175000D03*
X247213499Y-209875000D03*
X247213499Y-210575000D03*
X248013499Y-209175000D03*
X248013499Y-209875000D03*
X248013499Y-210575000D03*
D15*
X248113499Y-209925000D03*
D13*
X250303499Y-209935000D03*
%TD*%
D10*
%TO.C,SW52*%
X216172500Y-193425000D03*
D11*
X221252500Y-193425000D03*
D10*
X226332500Y-193425000D03*
D13*
X223792500Y-188345000D03*
D14*
X225952500Y-187625000D03*
X225977500Y-188390000D03*
X225977500Y-189125000D03*
D15*
X226002500Y-188390000D03*
D14*
X226852500Y-187625000D03*
X226852500Y-188390000D03*
X226852500Y-189125000D03*
X227752500Y-187625000D03*
X227752500Y-188390000D03*
X227752500Y-189125000D03*
X213502500Y-190125000D03*
X213502500Y-190825000D03*
X213502500Y-191525000D03*
X214352500Y-190125000D03*
X214352500Y-190825000D03*
X214352500Y-191525000D03*
X215152500Y-190125000D03*
X215152500Y-190825000D03*
X215152500Y-191525000D03*
D15*
X215252500Y-190875000D03*
D13*
X217442500Y-190885000D03*
%TD*%
D10*
%TO.C,SW57*%
X42341000Y-212475000D03*
D11*
X47421000Y-212475000D03*
D10*
X52501000Y-212475000D03*
D13*
X49961000Y-207395000D03*
D14*
X52121000Y-206675000D03*
X52146000Y-207440000D03*
X52146000Y-208175000D03*
D15*
X52171000Y-207440000D03*
D14*
X53021000Y-206675000D03*
X53021000Y-207440000D03*
X53021000Y-208175000D03*
X53921000Y-206675000D03*
X53921000Y-207440000D03*
X53921000Y-208175000D03*
X39671000Y-209175000D03*
X39671000Y-209875000D03*
X39671000Y-210575000D03*
X40521000Y-209175000D03*
X40521000Y-209875000D03*
X40521000Y-210575000D03*
X41321000Y-209175000D03*
X41321000Y-209875000D03*
X41321000Y-210575000D03*
D15*
X41421000Y-209925000D03*
D13*
X43611000Y-209935000D03*
%TD*%
D10*
%TO.C,SW38*%
X206647500Y-174375000D03*
D11*
X211727500Y-174375000D03*
D10*
X216807500Y-174375000D03*
D13*
X214267500Y-169295000D03*
D14*
X216427500Y-168575000D03*
X216452500Y-169340000D03*
X216452500Y-170075000D03*
D15*
X216477500Y-169340000D03*
D14*
X217327500Y-168575000D03*
X217327500Y-169340000D03*
X217327500Y-170075000D03*
X218227500Y-168575000D03*
X218227500Y-169340000D03*
X218227500Y-170075000D03*
X203977500Y-171075000D03*
X203977500Y-171775000D03*
X203977500Y-172475000D03*
X204827500Y-171075000D03*
X204827500Y-171775000D03*
X204827500Y-172475000D03*
X205627500Y-171075000D03*
X205627500Y-171775000D03*
X205627500Y-172475000D03*
D15*
X205727500Y-171825000D03*
D13*
X207917500Y-171835000D03*
%TD*%
D10*
%TO.C,SW48*%
X139972500Y-193425000D03*
D11*
X145052500Y-193425000D03*
D10*
X150132500Y-193425000D03*
D13*
X147592500Y-188345000D03*
D14*
X149752500Y-187625000D03*
X149777500Y-188390000D03*
X149777500Y-189125000D03*
D15*
X149802500Y-188390000D03*
D14*
X150652500Y-187625000D03*
X150652500Y-188390000D03*
X150652500Y-189125000D03*
X151552500Y-187625000D03*
X151552500Y-188390000D03*
X151552500Y-189125000D03*
X137302500Y-190125000D03*
X137302500Y-190825000D03*
X137302500Y-191525000D03*
X138152500Y-190125000D03*
X138152500Y-190825000D03*
X138152500Y-191525000D03*
X138952500Y-190125000D03*
X138952500Y-190825000D03*
X138952500Y-191525000D03*
D15*
X139052500Y-190875000D03*
D13*
X141242500Y-190885000D03*
%TD*%
D10*
%TO.C,SW37*%
X187597500Y-174375000D03*
D11*
X192677500Y-174375000D03*
D10*
X197757500Y-174375000D03*
D13*
X195217500Y-169295000D03*
D14*
X197377500Y-168575000D03*
X197402500Y-169340000D03*
X197402500Y-170075000D03*
D15*
X197427500Y-169340000D03*
D14*
X198277500Y-168575000D03*
X198277500Y-169340000D03*
X198277500Y-170075000D03*
X199177500Y-168575000D03*
X199177500Y-169340000D03*
X199177500Y-170075000D03*
X184927500Y-171075000D03*
X184927500Y-171775000D03*
X184927500Y-172475000D03*
X185777500Y-171075000D03*
X185777500Y-171775000D03*
X185777500Y-172475000D03*
X186577500Y-171075000D03*
X186577500Y-171775000D03*
X186577500Y-172475000D03*
D15*
X186677500Y-171825000D03*
D13*
X188867500Y-171835000D03*
%TD*%
D10*
%TO.C,SW15*%
X316820000Y-136275000D03*
D11*
X311740000Y-136275000D03*
D10*
X306660000Y-136275000D03*
D13*
X309200000Y-141355000D03*
D14*
X307040000Y-142075000D03*
X307015000Y-141310000D03*
X307015000Y-140575000D03*
D15*
X306990000Y-141310000D03*
D14*
X306140000Y-142075000D03*
X306140000Y-141310000D03*
X306140000Y-140575000D03*
X305240000Y-142075000D03*
X305240000Y-141310000D03*
X305240000Y-140575000D03*
X319490000Y-139575000D03*
X319490000Y-138875000D03*
X319490000Y-138175000D03*
X318640000Y-139575000D03*
X318640000Y-138875000D03*
X318640000Y-138175000D03*
X317840000Y-139575000D03*
X317840000Y-138875000D03*
X317840000Y-138175000D03*
D15*
X317740000Y-138825000D03*
D13*
X315550000Y-138815000D03*
%TD*%
D22*
%TO.C,D14*%
X281520000Y-138960000D03*
X281520000Y-135460000D03*
%TD*%
D23*
%TO.C,U2*%
X43375000Y-161525000D03*
X43375000Y-163825000D03*
D24*
X37075000Y-163825000D03*
D23*
X43375000Y-166125000D03*
%TD*%
D25*
%TO.C,Dled2*%
X56837500Y-172157500D03*
X56837500Y-166967500D03*
%TD*%
D22*
%TO.C,D25*%
X229115000Y-158010000D03*
X229115000Y-154510000D03*
%TD*%
%TO.C,D42*%
X303008099Y-177060000D03*
X303008099Y-173560000D03*
%TD*%
%TO.C,D36*%
X176727500Y-177060000D03*
X176727500Y-173560000D03*
%TD*%
%TO.C,D13*%
X276740000Y-138960000D03*
X276740000Y-135460000D03*
%TD*%
%TO.C,D29*%
X310078000Y-158010000D03*
X310078000Y-154510000D03*
%TD*%
%TO.C,D49*%
X167202500Y-196110000D03*
X167202500Y-192610000D03*
%TD*%
D26*
%TO.C,C6*%
X50790000Y-162650000D03*
X52690000Y-162650000D03*
%TD*%
D22*
%TO.C,D46*%
X110052500Y-196110000D03*
X110052500Y-192610000D03*
%TD*%
D27*
%TO.C,Drgb8*%
X262585000Y-204595000D03*
X262585000Y-201295000D03*
X267485000Y-201295000D03*
X267485000Y-204595000D03*
%TD*%
D22*
%TO.C,D21*%
X152915000Y-158010000D03*
X152915000Y-154510000D03*
%TD*%
%TO.C,D47*%
X129102500Y-196110000D03*
X129102500Y-192610000D03*
%TD*%
%TO.C,D45*%
X91002500Y-196110000D03*
X91002500Y-192610000D03*
%TD*%
D27*
%TO.C,Drgb6*%
X304725000Y-143605000D03*
X304725000Y-146905000D03*
X299825000Y-146905000D03*
X299825000Y-143605000D03*
%TD*%
D22*
%TO.C,D38*%
X214827500Y-177060000D03*
X214827500Y-173560000D03*
%TD*%
%TO.C,D3*%
X86240000Y-138960000D03*
X86240000Y-135460000D03*
%TD*%
D28*
%TO.C,C7*%
X56240000Y-162650000D03*
X54340000Y-162650000D03*
%TD*%
D22*
%TO.C,D20*%
X133865000Y-158010000D03*
X133865000Y-154510000D03*
%TD*%
%TO.C,D30*%
X38740000Y-178090000D03*
X38740000Y-174590000D03*
%TD*%
%TO.C,D31*%
X81477500Y-177060000D03*
X81477500Y-173560000D03*
%TD*%
D26*
%TO.C,C5*%
X61945000Y-209345000D03*
X63845000Y-209345000D03*
%TD*%
D29*
%TO.C,R1*%
X63815000Y-207405000D03*
X61990000Y-207405000D03*
%TD*%
D27*
%TO.C,Drgb11*%
X134785000Y-204595000D03*
X134785000Y-201295000D03*
X139685000Y-201295000D03*
X139685000Y-204595000D03*
%TD*%
%TO.C,Drgb12*%
X92185000Y-204595000D03*
X92185000Y-201295000D03*
X97085000Y-201295000D03*
X97085000Y-204595000D03*
%TD*%
D22*
%TO.C,D53*%
X243402500Y-196110000D03*
X243402500Y-192610000D03*
%TD*%
%TO.C,D56*%
X314840000Y-196110000D03*
X314840000Y-192610000D03*
%TD*%
D30*
%TO.C,U3*%
X64335000Y-156117500D03*
X65285000Y-156117500D03*
X66235000Y-156117500D03*
X66235000Y-158392500D03*
X65285000Y-158392500D03*
X64335000Y-158392500D03*
%TD*%
D25*
%TO.C,Dled1*%
X42652500Y-176672500D03*
X42652500Y-181862500D03*
%TD*%
D22*
%TO.C,D5*%
X124340000Y-138960000D03*
X124340000Y-135460000D03*
%TD*%
D28*
%TO.C,C10*%
X63835000Y-211325000D03*
X61935000Y-211325000D03*
%TD*%
D22*
%TO.C,D22*%
X171965000Y-158010000D03*
X171965000Y-154510000D03*
%TD*%
D27*
%TO.C,Drgb2*%
X139725000Y-143605000D03*
X139725000Y-146905000D03*
X134825000Y-146905000D03*
X134825000Y-143605000D03*
%TD*%
%TO.C,Drgb4*%
X224945000Y-143615000D03*
X224945000Y-146915000D03*
X220045000Y-146915000D03*
X220045000Y-143615000D03*
%TD*%
D22*
%TO.C,D50*%
X186252500Y-196110000D03*
X186252500Y-192610000D03*
%TD*%
%TO.C,D34*%
X138627500Y-177060000D03*
X138627500Y-173560000D03*
%TD*%
%TO.C,D6*%
X143390000Y-138960000D03*
X143390000Y-135460000D03*
%TD*%
%TO.C,D27*%
X267215000Y-158010000D03*
X267215000Y-154510000D03*
%TD*%
%TO.C,D33*%
X119577500Y-177060000D03*
X119577500Y-173560000D03*
%TD*%
%TO.C,D69*%
X281025999Y-215160000D03*
X281025999Y-211660000D03*
%TD*%
%TO.C,D26*%
X248165000Y-158010000D03*
X248165000Y-154510000D03*
%TD*%
%TO.C,D52*%
X224352500Y-196110000D03*
X224352500Y-192610000D03*
%TD*%
%TO.C,D23*%
X191015000Y-158010000D03*
X191015000Y-154510000D03*
%TD*%
%TO.C,D9*%
X200540000Y-138960000D03*
X200540000Y-135460000D03*
%TD*%
D27*
%TO.C,Drgb1*%
X97115000Y-143605000D03*
X97115000Y-146905000D03*
X92215000Y-146905000D03*
X92215000Y-143605000D03*
%TD*%
D22*
%TO.C,D51*%
X205302500Y-196110000D03*
X205302500Y-192610000D03*
%TD*%
%TO.C,D48*%
X148152500Y-196110000D03*
X148152500Y-192610000D03*
%TD*%
D27*
%TO.C,Drgb9*%
X219985000Y-204595000D03*
X219985000Y-201295000D03*
X224885000Y-201295000D03*
X224885000Y-204595000D03*
%TD*%
D22*
%TO.C,D70*%
X312458500Y-215160000D03*
X312458500Y-211660000D03*
%TD*%
D28*
%TO.C,C3*%
X70750000Y-176440000D03*
X68850000Y-176440000D03*
%TD*%
D22*
%TO.C,D24*%
X210065000Y-158010000D03*
X210065000Y-154510000D03*
%TD*%
D26*
%TO.C,C1*%
X50790000Y-160690000D03*
X52690000Y-160690000D03*
%TD*%
D22*
%TO.C,D2*%
X67190000Y-138960000D03*
X67190000Y-135460000D03*
%TD*%
%TO.C,D16*%
X52903000Y-158010000D03*
X52903000Y-154510000D03*
%TD*%
%TO.C,D18*%
X95765000Y-158010000D03*
X95765000Y-154510000D03*
%TD*%
%TO.C,D17*%
X76715000Y-158010000D03*
X76715000Y-154510000D03*
%TD*%
D27*
%TO.C,Drgb10*%
X177385000Y-204595000D03*
X177385000Y-201295000D03*
X182285000Y-201295000D03*
X182285000Y-204595000D03*
%TD*%
D31*
%TO.C,D43*%
X39370000Y-192600000D03*
X39370000Y-196100000D03*
%TD*%
D22*
%TO.C,D1*%
X48140000Y-138960000D03*
X48140000Y-135460000D03*
%TD*%
%TO.C,D37*%
X195777500Y-177060000D03*
X195777500Y-173560000D03*
%TD*%
D27*
%TO.C,Drgb13*%
X54035000Y-204575000D03*
X54035000Y-201275000D03*
X58935000Y-201275000D03*
X58935000Y-204575000D03*
%TD*%
D22*
%TO.C,D35*%
X157677500Y-177060000D03*
X157677500Y-173560000D03*
%TD*%
D27*
%TO.C,Drgb14*%
X54505000Y-143615000D03*
X54505000Y-146915000D03*
X49605000Y-146915000D03*
X49605000Y-143615000D03*
%TD*%
D28*
%TO.C,C9*%
X70760000Y-178410000D03*
X68860000Y-178410000D03*
%TD*%
D27*
%TO.C,Drgb5*%
X267545000Y-143635000D03*
X267545000Y-146935000D03*
X262645000Y-146935000D03*
X262645000Y-143635000D03*
%TD*%
%TO.C,Drgb3*%
X182335000Y-143605000D03*
X182335000Y-146905000D03*
X177435000Y-146905000D03*
X177435000Y-143605000D03*
%TD*%
D28*
%TO.C,C8*%
X70750000Y-174480000D03*
X68850000Y-174480000D03*
%TD*%
D22*
%TO.C,D39*%
X233877500Y-177060000D03*
X233877500Y-173560000D03*
%TD*%
%TO.C,D7*%
X162440000Y-138960000D03*
X162440000Y-135460000D03*
%TD*%
%TO.C,D54*%
X262452500Y-196110000D03*
X262452500Y-192610000D03*
%TD*%
%TO.C,D8*%
X181490000Y-138960000D03*
X181490000Y-135460000D03*
%TD*%
%TO.C,D12*%
X257690000Y-138960000D03*
X257690000Y-135460000D03*
%TD*%
%TO.C,D40*%
X252927500Y-177060000D03*
X252927500Y-173560000D03*
%TD*%
%TO.C,D15*%
X283920000Y-138970000D03*
X283920000Y-135470000D03*
%TD*%
%TO.C,D11*%
X238640000Y-138960000D03*
X238640000Y-135460000D03*
%TD*%
D32*
%TO.C,J1*%
X58335000Y-148585000D03*
X58335000Y-149585000D03*
X58335000Y-150585000D03*
X58335000Y-151585000D03*
D33*
X62210000Y-147285000D03*
X62210000Y-152885000D03*
%TD*%
D34*
%TO.C,C4*%
X65200000Y-177340000D03*
X65200000Y-175440000D03*
%TD*%
D35*
%TO.C,Ud1*%
X68115000Y-170777500D03*
X67615000Y-170777500D03*
X67115000Y-170777500D03*
X66615000Y-170777500D03*
X66115000Y-170777500D03*
X65615000Y-170777500D03*
X65115000Y-170777500D03*
X64615000Y-170777500D03*
X64115000Y-170777500D03*
X63615000Y-170777500D03*
X63115000Y-170777500D03*
X62615000Y-170777500D03*
D36*
X61202500Y-169365000D03*
X61202500Y-168865000D03*
X61202500Y-168365000D03*
X61202500Y-167865000D03*
X61202500Y-167365000D03*
X61202500Y-166865000D03*
X61202500Y-166365000D03*
X61202500Y-165865000D03*
X61202500Y-165365000D03*
X61202500Y-164865000D03*
X61202500Y-164365000D03*
X61202500Y-163865000D03*
D35*
X62615000Y-162452500D03*
X63115000Y-162452500D03*
X63615000Y-162452500D03*
X64115000Y-162452500D03*
X64615000Y-162452500D03*
X65115000Y-162452500D03*
X65615000Y-162452500D03*
X66115000Y-162452500D03*
X66615000Y-162452500D03*
X67115000Y-162452500D03*
X67615000Y-162452500D03*
X68115000Y-162452500D03*
D36*
X69527500Y-163865000D03*
X69527500Y-164365000D03*
X69527500Y-164865000D03*
X69527500Y-165365000D03*
X69527500Y-165865000D03*
X69527500Y-166365000D03*
X69527500Y-166865000D03*
X69527500Y-167365000D03*
X69527500Y-167865000D03*
X69527500Y-168365000D03*
X69527500Y-168865000D03*
X69527500Y-169365000D03*
%TD*%
D22*
%TO.C,D55*%
X266950000Y-196100000D03*
X266950000Y-192600000D03*
%TD*%
D28*
%TO.C,C2*%
X56240000Y-160690000D03*
X54340000Y-160690000D03*
%TD*%
D22*
%TO.C,D19*%
X114815000Y-158010000D03*
X114815000Y-154510000D03*
%TD*%
%TO.C,D41*%
X271977500Y-177060000D03*
X271977500Y-173560000D03*
%TD*%
%TO.C,D68*%
X257213499Y-215160000D03*
X257213499Y-211660000D03*
%TD*%
%TO.C,D4*%
X105290000Y-138960000D03*
X105290000Y-135460000D03*
%TD*%
D27*
%TO.C,Drgb7*%
X311805000Y-204565000D03*
X311805000Y-201265000D03*
X316705000Y-201265000D03*
X316705000Y-204565000D03*
%TD*%
D22*
%TO.C,D57*%
X50521000Y-215160000D03*
X50521000Y-211660000D03*
%TD*%
D31*
%TO.C,D44*%
X65850000Y-190550000D03*
X65850000Y-194050000D03*
%TD*%
D22*
%TO.C,D63*%
X181585000Y-218970000D03*
X181585000Y-215470000D03*
%TD*%
%TO.C,D32*%
X100527500Y-177060000D03*
X100527500Y-173560000D03*
%TD*%
%TO.C,D58*%
X81953500Y-215160000D03*
X81953500Y-211660000D03*
%TD*%
%TO.C,D10*%
X219590000Y-138960000D03*
X219590000Y-135460000D03*
%TD*%
%TO.C,D28*%
X286265000Y-158010000D03*
X286265000Y-154510000D03*
%TD*%
%TO.C,D59*%
X105766000Y-215160000D03*
X105766000Y-211660000D03*
%TD*%
M02*
