M48
; DRILL file {KiCad 8.99.0-2194-gb3b7cbcab2} date 2024-09-18T02:21:09+0700
; FORMAT={-:-/ absolute / inch / decimal}
; #@! TF.CreationDate,2024-09-18T02:21:09+07:00
; #@! TF.GenerationSoftware,Kicad,Pcbnew,8.99.0-2194-gb3b7cbcab2
; #@! TF.FileFunction,Plated,1,2,PTH
FMAT,2
INCH
; #@! TA.AperFunction,Plated,PTH,ViaDrill
T1C0.0118
; #@! TA.AperFunction,Plated,PTH,ComponentDrill
T2C0.0118
; #@! TA.AperFunction,Plated,PTH,ComponentDrill
T3C0.0236
; #@! TA.AperFunction,Plated,PTH,ComponentDrill
T4C0.0295
; #@! TA.AperFunction,Plated,PTH,ComponentDrill
T5C0.0394
; #@! TA.AperFunction,Plated,PTH,ComponentDrill
T6C0.0669
%
G90
G05
T1
X15.2346Y-5.0059
X15.9846Y-5.0408
X16.7346Y-5.0565
X17.4846Y-5.0722
X18.2346Y-5.0894
X18.9846Y-5.1043
X19.7346Y-5.1195
X20.4846Y-5.1352
X21.2346Y-5.151
X21.9846Y-5.1667
X22.7451Y-5.1825
X23.5156Y-5.2001
X25.2925Y-7.5811
X25.3209Y-8.3547
X25.8237Y-5.9172
X25.8312Y-6.6672
X25.9823Y-4.4811
X25.9902Y-5.2732
X26.011Y-6.0213
X26.0642Y-5.8157
X26.0713Y-4.9772
X26.0734Y-4.6917
X26.1449Y-6.0606
X26.1456Y-6.109
X26.1673Y-4.8339
X26.1681Y-4.5173
X26.1724Y-8.3992
X26.1771Y-6.1079
X26.1783Y-6.0606
X26.1953Y-8.424
X26.1992Y-7.0496
X26.2008Y-5.8936
X26.2086Y-6.1079
X26.2152Y-6.0539
X26.2291Y-5.0921
X26.2342Y-5.8936
X26.2399Y-6.1115
X26.2449Y-5.0276
X26.2459Y-6.0606
X26.2528Y-5.3713
X26.2659Y-5.8936
X26.2685Y-5.4819
X26.2689Y-4.4453
X26.2988Y-4.6969
X26.3268Y-4.9831
X26.3457Y-5.0429
X26.3633Y-7.0223
X26.3677Y-7.8535
X26.4642Y-5.2654
X26.572Y-6.6685
X26.5898Y-5.9157
X26.8596Y-5.4098
X26.8614Y-8.4247
X27.0665Y-7.852
X27.0693Y-8.0449
X27.6096Y-5.3902
X28.3596Y-5.3665
T2
X15.7063Y-6.9946
X25.2688Y-6.2446
T4
X26.0091Y-6.9933
X26.0878Y-6.9933
X26.1665Y-6.9933
X26.2453Y-6.9933
X26.324Y-6.9933
T5
X26.9886Y-8.2409
X26.989Y-8.3988
X27.087Y-8.2409
X27.0874Y-8.3988
T6
X14.9846Y-4.7067
X15.0784Y-6.3942
X15.1722Y-5.6442
X15.1722Y-7.8942
X15.2346Y-4.6067
X15.2659Y-6.3942
X15.3284Y-6.2942
X15.4222Y-5.5442
X15.4222Y-7.7942
X15.4563Y-7.1442
X15.5159Y-6.2942
X15.7063Y-7.0442
X15.7346Y-4.7067
X15.9846Y-4.6067
X16.1096Y-5.6442
X16.1096Y-7.8942
X16.2971Y-6.3942
X16.3596Y-5.5442
X16.3596Y-7.7942
X16.4846Y-4.7067
X16.5471Y-6.2942
X16.6721Y-7.1442
X16.7346Y-4.6067
X16.8596Y-5.6442
X16.9221Y-7.0442
X17.0471Y-6.3942
X17.0472Y-7.8942
X17.1096Y-5.5442
X17.2346Y-4.7067
X17.2971Y-6.2942
X17.2972Y-7.7942
X17.4221Y-7.1442
X17.4846Y-4.6067
X17.6096Y-5.6442
X17.6721Y-7.0442
X17.7971Y-6.3942
X17.8596Y-5.5442
X17.9846Y-4.7067
X18.0471Y-6.2942
X18.1721Y-7.1442
X18.2346Y-4.6067
X18.3596Y-5.6442
X18.4221Y-7.0442
X18.5471Y-6.3942
X18.6096Y-5.5442
X18.7346Y-4.7067
X18.7971Y-6.2942
X18.9221Y-7.1442
X18.9846Y-4.6067
X19.1096Y-5.6442
X19.1721Y-7.0442
X19.2971Y-6.3942
X19.3596Y-5.5442
X19.4846Y-4.7067
X19.5471Y-6.2942
X19.6721Y-7.1442
X19.7346Y-4.6067
X19.8596Y-5.6442
X19.9221Y-7.0442
X20.0471Y-6.3942
X20.1096Y-5.5442
X20.2346Y-4.7067
X20.2346Y-7.8942
X20.2971Y-6.2942
X20.4221Y-7.1442
X20.4846Y-4.6067
X20.4846Y-7.7942
X20.6096Y-5.6442
X20.6721Y-7.0442
X20.7971Y-6.3942
X20.8596Y-5.5442
X20.9846Y-4.7067
X21.0471Y-6.2942
X21.1721Y-7.1442
X21.2346Y-4.6067
X21.3596Y-5.6442
X21.4221Y-7.0442
X21.5471Y-6.3942
X21.6096Y-5.5442
X21.7346Y-4.7067
X21.7971Y-6.2942
X21.9221Y-7.1442
X21.9846Y-4.6067
X22.1096Y-5.6442
X22.1721Y-7.0442
X22.2971Y-6.3942
X22.3596Y-5.5442
X22.4846Y-4.7067
X22.5471Y-6.2942
X22.6721Y-7.1442
X22.7346Y-4.6067
X22.8596Y-5.6442
X22.9221Y-7.0442
X23.0471Y-6.3942
X23.1096Y-5.5442
X23.2346Y-4.7067
X23.2346Y-7.8942
X23.2971Y-6.2942
X23.4221Y-7.1442
X23.4846Y-4.6067
X23.4846Y-7.7942
X23.6096Y-5.6442
X23.6721Y-7.0442
X23.7971Y-6.3942
X23.8596Y-5.5442
X23.9846Y-4.7067
X23.9846Y-7.8942
X24.0471Y-6.2942
X24.2346Y-4.6067
X24.2346Y-7.7942
X24.3596Y-5.6442
X24.4534Y-7.1442
X24.6096Y-5.5442
X24.7034Y-7.0442
X24.9221Y-8.0817
X25.0188Y-6.3942
X25.1096Y-4.7067
X25.1721Y-7.9817
X25.2688Y-6.2942
X25.2972Y-5.6442
X25.3596Y-4.6067
X25.5472Y-5.5442
X25.6721Y-7.3317
X25.6721Y-8.0817
X25.9221Y-7.2317
X25.9221Y-7.9817
X26.4221Y-8.0817
X26.6096Y-4.7067
X26.6096Y-5.6442
X26.6096Y-6.3942
X26.6096Y-7.1442
X26.6721Y-7.9817
X26.8596Y-4.6067
X26.8596Y-5.5442
X26.8596Y-6.2942
X26.8596Y-7.0442
X27.3596Y-4.7067
X27.3596Y-5.6442
X27.3596Y-6.3942
X27.3596Y-7.1442
X27.3596Y-7.8942
X27.6096Y-4.6067
X27.6096Y-5.5442
X27.6096Y-6.2942
X27.6096Y-7.0442
X27.6096Y-7.7942
X28.1096Y-4.7067
X28.1096Y-5.6442
X28.1096Y-6.3942
X28.1096Y-7.1442
X28.1096Y-7.8942
X28.3596Y-4.6067
X28.3596Y-5.5442
X28.3596Y-6.2942
X28.3596Y-7.0442
X28.3596Y-7.7942
T3
G00X25.9304Y-3.9578
M15
G01X25.9304Y-3.9893
M16
G05
G00X25.9304Y-4.1164
M15
G01X25.9304Y-4.1597
M16
G05
G00X26.2706Y-3.9578
M15
G01X26.2706Y-3.9893
M16
G05
G00X26.2706Y-4.1164
M15
G01X26.2706Y-4.1597
M16
G05
M30
