%TF.GenerationSoftware,KiCad,Pcbnew,8.99.0-2194-gb3b7cbcab2*%
%TF.CreationDate,2024-09-18T02:21:13+07:00*%
%TF.ProjectId,Sam_,53616d5f-2e6b-4696-9361-645f70636258,rev?*%
%TF.SameCoordinates,Original*%
%TF.FileFunction,Legend,Top*%
%TF.FilePolarity,Positive*%
%FSLAX46Y46*%
G04 Gerber Fmt 4.6, Leading zero omitted, Abs format (unit mm)*
G04 Created by KiCad (PCBNEW 8.99.0-2194-gb3b7cbcab2) date 2024-09-18 02:21:13*
%MOMM*%
%LPD*%
G01*
G04 APERTURE LIST*
%ADD10C,0.150000*%
%ADD11C,0.120000*%
G04 APERTURE END LIST*
D10*
X684236190Y-206927200D02*
X684379047Y-206974819D01*
X684379047Y-206974819D02*
X684617142Y-206974819D01*
X684617142Y-206974819D02*
X684712380Y-206927200D01*
X684712380Y-206927200D02*
X684759999Y-206879580D01*
X684759999Y-206879580D02*
X684807618Y-206784342D01*
X684807618Y-206784342D02*
X684807618Y-206689104D01*
X684807618Y-206689104D02*
X684759999Y-206593866D01*
X684759999Y-206593866D02*
X684712380Y-206546247D01*
X684712380Y-206546247D02*
X684617142Y-206498628D01*
X684617142Y-206498628D02*
X684426666Y-206451009D01*
X684426666Y-206451009D02*
X684331428Y-206403390D01*
X684331428Y-206403390D02*
X684283809Y-206355771D01*
X684283809Y-206355771D02*
X684236190Y-206260533D01*
X684236190Y-206260533D02*
X684236190Y-206165295D01*
X684236190Y-206165295D02*
X684283809Y-206070057D01*
X684283809Y-206070057D02*
X684331428Y-206022438D01*
X684331428Y-206022438D02*
X684426666Y-205974819D01*
X684426666Y-205974819D02*
X684664761Y-205974819D01*
X684664761Y-205974819D02*
X684807618Y-206022438D01*
X685140952Y-205974819D02*
X685379047Y-206974819D01*
X685379047Y-206974819D02*
X685569523Y-206260533D01*
X685569523Y-206260533D02*
X685759999Y-206974819D01*
X685759999Y-206974819D02*
X685998095Y-205974819D01*
X686379047Y-206974819D02*
X686379047Y-205974819D01*
X686379047Y-206355771D02*
X686474285Y-206308152D01*
X686474285Y-206308152D02*
X686664761Y-206308152D01*
X686664761Y-206308152D02*
X686759999Y-206355771D01*
X686759999Y-206355771D02*
X686807618Y-206403390D01*
X686807618Y-206403390D02*
X686855237Y-206498628D01*
X686855237Y-206498628D02*
X686855237Y-206784342D01*
X686855237Y-206784342D02*
X686807618Y-206879580D01*
X686807618Y-206879580D02*
X686759999Y-206927200D01*
X686759999Y-206927200D02*
X686664761Y-206974819D01*
X686664761Y-206974819D02*
X686474285Y-206974819D01*
X686474285Y-206974819D02*
X686379047Y-206927200D01*
X687426666Y-206974819D02*
X687331428Y-206927200D01*
X687331428Y-206927200D02*
X687283809Y-206879580D01*
X687283809Y-206879580D02*
X687236190Y-206784342D01*
X687236190Y-206784342D02*
X687236190Y-206498628D01*
X687236190Y-206498628D02*
X687283809Y-206403390D01*
X687283809Y-206403390D02*
X687331428Y-206355771D01*
X687331428Y-206355771D02*
X687426666Y-206308152D01*
X687426666Y-206308152D02*
X687569523Y-206308152D01*
X687569523Y-206308152D02*
X687664761Y-206355771D01*
X687664761Y-206355771D02*
X687712380Y-206403390D01*
X687712380Y-206403390D02*
X687759999Y-206498628D01*
X687759999Y-206498628D02*
X687759999Y-206784342D01*
X687759999Y-206784342D02*
X687712380Y-206879580D01*
X687712380Y-206879580D02*
X687664761Y-206927200D01*
X687664761Y-206927200D02*
X687569523Y-206974819D01*
X687569523Y-206974819D02*
X687426666Y-206974819D01*
X687331428Y-206070057D02*
X687521904Y-205927200D01*
X687521904Y-205927200D02*
X687712380Y-206070057D01*
X688045714Y-206308152D02*
X688426666Y-206308152D01*
X688188571Y-205974819D02*
X688188571Y-206831961D01*
X688188571Y-206831961D02*
X688236190Y-206927200D01*
X688236190Y-206927200D02*
X688331428Y-206974819D01*
X688331428Y-206974819D02*
X688426666Y-206974819D01*
X689283809Y-206974819D02*
X688712381Y-206974819D01*
X688998095Y-206974819D02*
X688998095Y-205974819D01*
X688998095Y-205974819D02*
X688902857Y-206117676D01*
X688902857Y-206117676D02*
X688807619Y-206212914D01*
X688807619Y-206212914D02*
X688712381Y-206260533D01*
X683246190Y-210937200D02*
X683389047Y-210984819D01*
X683389047Y-210984819D02*
X683627142Y-210984819D01*
X683627142Y-210984819D02*
X683722380Y-210937200D01*
X683722380Y-210937200D02*
X683769999Y-210889580D01*
X683769999Y-210889580D02*
X683817618Y-210794342D01*
X683817618Y-210794342D02*
X683817618Y-210699104D01*
X683817618Y-210699104D02*
X683769999Y-210603866D01*
X683769999Y-210603866D02*
X683722380Y-210556247D01*
X683722380Y-210556247D02*
X683627142Y-210508628D01*
X683627142Y-210508628D02*
X683436666Y-210461009D01*
X683436666Y-210461009D02*
X683341428Y-210413390D01*
X683341428Y-210413390D02*
X683293809Y-210365771D01*
X683293809Y-210365771D02*
X683246190Y-210270533D01*
X683246190Y-210270533D02*
X683246190Y-210175295D01*
X683246190Y-210175295D02*
X683293809Y-210080057D01*
X683293809Y-210080057D02*
X683341428Y-210032438D01*
X683341428Y-210032438D02*
X683436666Y-209984819D01*
X683436666Y-209984819D02*
X683674761Y-209984819D01*
X683674761Y-209984819D02*
X683817618Y-210032438D01*
X684150952Y-209984819D02*
X684389047Y-210984819D01*
X684389047Y-210984819D02*
X684579523Y-210270533D01*
X684579523Y-210270533D02*
X684769999Y-210984819D01*
X684769999Y-210984819D02*
X685008095Y-209984819D01*
X685389047Y-210984819D02*
X685389047Y-209984819D01*
X685389047Y-210365771D02*
X685484285Y-210318152D01*
X685484285Y-210318152D02*
X685674761Y-210318152D01*
X685674761Y-210318152D02*
X685769999Y-210365771D01*
X685769999Y-210365771D02*
X685817618Y-210413390D01*
X685817618Y-210413390D02*
X685865237Y-210508628D01*
X685865237Y-210508628D02*
X685865237Y-210794342D01*
X685865237Y-210794342D02*
X685817618Y-210889580D01*
X685817618Y-210889580D02*
X685769999Y-210937200D01*
X685769999Y-210937200D02*
X685674761Y-210984819D01*
X685674761Y-210984819D02*
X685484285Y-210984819D01*
X685484285Y-210984819D02*
X685389047Y-210937200D01*
X686436666Y-210984819D02*
X686341428Y-210937200D01*
X686341428Y-210937200D02*
X686293809Y-210889580D01*
X686293809Y-210889580D02*
X686246190Y-210794342D01*
X686246190Y-210794342D02*
X686246190Y-210508628D01*
X686246190Y-210508628D02*
X686293809Y-210413390D01*
X686293809Y-210413390D02*
X686341428Y-210365771D01*
X686341428Y-210365771D02*
X686436666Y-210318152D01*
X686436666Y-210318152D02*
X686579523Y-210318152D01*
X686579523Y-210318152D02*
X686674761Y-210365771D01*
X686674761Y-210365771D02*
X686722380Y-210413390D01*
X686722380Y-210413390D02*
X686769999Y-210508628D01*
X686769999Y-210508628D02*
X686769999Y-210794342D01*
X686769999Y-210794342D02*
X686722380Y-210889580D01*
X686722380Y-210889580D02*
X686674761Y-210937200D01*
X686674761Y-210937200D02*
X686579523Y-210984819D01*
X686579523Y-210984819D02*
X686436666Y-210984819D01*
X686341428Y-210080057D02*
X686531904Y-209937200D01*
X686531904Y-209937200D02*
X686722380Y-210080057D01*
X687055714Y-210318152D02*
X687436666Y-210318152D01*
X687198571Y-209984819D02*
X687198571Y-210841961D01*
X687198571Y-210841961D02*
X687246190Y-210937200D01*
X687246190Y-210937200D02*
X687341428Y-210984819D01*
X687341428Y-210984819D02*
X687436666Y-210984819D01*
X687770000Y-210984819D02*
X687770000Y-210318152D01*
X687770000Y-210508628D02*
X687817619Y-210413390D01*
X687817619Y-210413390D02*
X687865238Y-210365771D01*
X687865238Y-210365771D02*
X687960476Y-210318152D01*
X687960476Y-210318152D02*
X688055714Y-210318152D01*
X688341429Y-210937200D02*
X688436667Y-210984819D01*
X688436667Y-210984819D02*
X688627143Y-210984819D01*
X688627143Y-210984819D02*
X688722381Y-210937200D01*
X688722381Y-210937200D02*
X688770000Y-210841961D01*
X688770000Y-210841961D02*
X688770000Y-210794342D01*
X688770000Y-210794342D02*
X688722381Y-210699104D01*
X688722381Y-210699104D02*
X688627143Y-210651485D01*
X688627143Y-210651485D02*
X688484286Y-210651485D01*
X688484286Y-210651485D02*
X688389048Y-210603866D01*
X688389048Y-210603866D02*
X688341429Y-210508628D01*
X688341429Y-210508628D02*
X688341429Y-210461009D01*
X688341429Y-210461009D02*
X688389048Y-210365771D01*
X688389048Y-210365771D02*
X688484286Y-210318152D01*
X688484286Y-210318152D02*
X688627143Y-210318152D01*
X688627143Y-210318152D02*
X688722381Y-210365771D01*
X689055715Y-210318152D02*
X689436667Y-210318152D01*
X689198572Y-209984819D02*
X689198572Y-210841961D01*
X689198572Y-210841961D02*
X689246191Y-210937200D01*
X689246191Y-210937200D02*
X689341429Y-210984819D01*
X689341429Y-210984819D02*
X689436667Y-210984819D01*
X690293810Y-210984819D02*
X689722382Y-210984819D01*
X690008096Y-210984819D02*
X690008096Y-209984819D01*
X690008096Y-209984819D02*
X689912858Y-210127676D01*
X689912858Y-210127676D02*
X689817620Y-210222914D01*
X689817620Y-210222914D02*
X689722382Y-210270533D01*
X664296666Y-174184819D02*
X664296666Y-174899104D01*
X664296666Y-174899104D02*
X664249047Y-175041961D01*
X664249047Y-175041961D02*
X664153809Y-175137200D01*
X664153809Y-175137200D02*
X664010952Y-175184819D01*
X664010952Y-175184819D02*
X663915714Y-175184819D01*
X664725238Y-174280057D02*
X664772857Y-174232438D01*
X664772857Y-174232438D02*
X664868095Y-174184819D01*
X664868095Y-174184819D02*
X665106190Y-174184819D01*
X665106190Y-174184819D02*
X665201428Y-174232438D01*
X665201428Y-174232438D02*
X665249047Y-174280057D01*
X665249047Y-174280057D02*
X665296666Y-174375295D01*
X665296666Y-174375295D02*
X665296666Y-174470533D01*
X665296666Y-174470533D02*
X665249047Y-174613390D01*
X665249047Y-174613390D02*
X664677619Y-175184819D01*
X664677619Y-175184819D02*
X665296666Y-175184819D01*
D11*
%TO.C,SWb\u00F4t1*%
X690620000Y-211630000D02*
X690620000Y-207610000D01*
X690620000Y-210130000D02*
X689620000Y-210130000D01*
X690620000Y-207610000D02*
X682900000Y-207610000D01*
X690120000Y-209320000D02*
X690620000Y-209320000D01*
X690120000Y-208110000D02*
X690120000Y-209320000D01*
X689620000Y-210130000D02*
X689620000Y-211630000D01*
X683900000Y-210130000D02*
X683900000Y-211630000D01*
X683400000Y-209320000D02*
X683400000Y-208110000D01*
X683400000Y-208110000D02*
X690120000Y-208110000D01*
X682900000Y-211630000D02*
X690620000Y-211630000D01*
X682900000Y-210130000D02*
X683900000Y-210130000D01*
X682900000Y-209320000D02*
X683400000Y-209320000D01*
X682900000Y-207610000D02*
X682900000Y-211630000D01*
X682600000Y-211930000D02*
X685100000Y-211930000D01*
X682600000Y-209430000D02*
X682600000Y-211930000D01*
%TO.C,SWb\u00F4trst1*%
X682610000Y-213440000D02*
X682610000Y-215940000D01*
X682610000Y-215940000D02*
X685110000Y-215940000D01*
X682910000Y-211620000D02*
X682910000Y-215640000D01*
X682910000Y-213330000D02*
X683410000Y-213330000D01*
X682910000Y-214140000D02*
X683910000Y-214140000D01*
X682910000Y-215640000D02*
X690630000Y-215640000D01*
X683410000Y-212120000D02*
X690130000Y-212120000D01*
X683410000Y-213330000D02*
X683410000Y-212120000D01*
X683910000Y-214140000D02*
X683910000Y-215640000D01*
X689630000Y-214140000D02*
X689630000Y-215640000D01*
X690130000Y-212120000D02*
X690130000Y-213330000D01*
X690130000Y-213330000D02*
X690630000Y-213330000D01*
X690630000Y-211620000D02*
X682910000Y-211620000D01*
X690630000Y-214140000D02*
X689630000Y-214140000D01*
X690630000Y-215640000D02*
X690630000Y-211620000D01*
%TO.C,J2*%
X658270000Y-175520000D02*
X658270000Y-176770000D01*
X658570000Y-175820000D02*
X658570000Y-180540000D01*
X658570000Y-177130000D02*
X659180000Y-177130000D01*
X658570000Y-178430000D02*
X659180000Y-178430000D01*
X658570000Y-180540000D02*
X670690000Y-180540000D01*
X659180000Y-176430000D02*
X659180000Y-179930000D01*
X659180000Y-179930000D02*
X670080000Y-179930000D01*
X659520000Y-175520000D02*
X658270000Y-175520000D01*
X660030000Y-175620000D02*
X660030000Y-175820000D01*
X660330000Y-175620000D02*
X660030000Y-175620000D01*
X660330000Y-175720000D02*
X660030000Y-175720000D01*
X660330000Y-175820000D02*
X660330000Y-175620000D01*
X661130000Y-175820000D02*
X661130000Y-176430000D01*
X661130000Y-176430000D02*
X659180000Y-176430000D01*
X661530000Y-179430000D02*
X661730000Y-179430000D01*
X661530000Y-179930000D02*
X661530000Y-179430000D01*
X661630000Y-179930000D02*
X661630000Y-179430000D01*
X661730000Y-179430000D02*
X661730000Y-179930000D01*
X663530000Y-179430000D02*
X663730000Y-179430000D01*
X663530000Y-179930000D02*
X663530000Y-179430000D01*
X663630000Y-179930000D02*
X663630000Y-179430000D01*
X663730000Y-179430000D02*
X663730000Y-179930000D01*
X665530000Y-179430000D02*
X665730000Y-179430000D01*
X665530000Y-179930000D02*
X665530000Y-179430000D01*
X665630000Y-179930000D02*
X665630000Y-179430000D01*
X665730000Y-179430000D02*
X665730000Y-179930000D01*
X667530000Y-179430000D02*
X667730000Y-179430000D01*
X667530000Y-179930000D02*
X667530000Y-179430000D01*
X667630000Y-179930000D02*
X667630000Y-179430000D01*
X667730000Y-179430000D02*
X667730000Y-179930000D01*
X668130000Y-176430000D02*
X668130000Y-175820000D01*
X670080000Y-176430000D02*
X668130000Y-176430000D01*
X670080000Y-179930000D02*
X670080000Y-176430000D01*
X670690000Y-175820000D02*
X658570000Y-175820000D01*
X670690000Y-177130000D02*
X670080000Y-177130000D01*
X670690000Y-178430000D02*
X670080000Y-178430000D01*
X670690000Y-180540000D02*
X670690000Y-175820000D01*
%TD*%
M02*
