M48
; DRILL file {KiCad 8.99.0-2194-gb3b7cbcab2} date 2024-09-18T02:21:09+0700
; FORMAT={-:-/ absolute / inch / decimal}
; #@! TF.CreationDate,2024-09-18T02:21:09+07:00
; #@! TF.GenerationSoftware,Kicad,Pcbnew,8.99.0-2194-gb3b7cbcab2
; #@! TF.FileFunction,NonPlated,1,2,NPTH
FMAT,2
INCH
; #@! TA.AperFunction,NonPlated,NPTH,ComponentDrill
T1C0.0256
; #@! TA.AperFunction,NonPlated,NPTH,ComponentDrill
T2C0.0669
; #@! TA.AperFunction,NonPlated,NPTH,ComponentDrill
T3C0.1200
; #@! TA.AperFunction,NonPlated,NPTH,ComponentDrill
T4C0.1570
; #@! TA.AperFunction,NonPlated,NPTH,ComponentDrill
T5C0.1575
%
G90
G05
T1
X25.9867Y-4.1184
X26.2143Y-4.1184
T2
X14.9346Y-4.8067
X15.0284Y-6.4942
X15.1222Y-5.7442
X15.1222Y-7.9942
X15.2159Y-6.4942
X15.3346Y-4.8067
X15.4063Y-7.2442
X15.4284Y-6.4942
X15.5222Y-5.7442
X15.5222Y-7.9942
X15.6159Y-6.4942
X15.6846Y-4.8067
X15.8063Y-7.2442
X16.0596Y-5.7442
X16.0596Y-7.9942
X16.0846Y-4.8067
X16.2471Y-6.4942
X16.4346Y-4.8067
X16.4596Y-5.7442
X16.4596Y-7.9942
X16.6221Y-7.2442
X16.6471Y-6.4942
X16.8096Y-5.7442
X16.8346Y-4.8067
X16.9971Y-6.4942
X16.9972Y-7.9942
X17.0221Y-7.2442
X17.1846Y-4.8067
X17.2096Y-5.7442
X17.3721Y-7.2442
X17.3971Y-6.4942
X17.3972Y-7.9942
X17.5596Y-5.7442
X17.5846Y-4.8067
X17.7471Y-6.4942
X17.7721Y-7.2442
X17.9346Y-4.8067
X17.9596Y-5.7442
X18.1221Y-7.2442
X18.1471Y-6.4942
X18.3096Y-5.7442
X18.3346Y-4.8067
X18.4971Y-6.4942
X18.5221Y-7.2442
X18.6846Y-4.8067
X18.7096Y-5.7442
X18.8721Y-7.2442
X18.8971Y-6.4942
X19.0596Y-5.7442
X19.0846Y-4.8067
X19.2471Y-6.4942
X19.2721Y-7.2442
X19.4346Y-4.8067
X19.4596Y-5.7442
X19.6221Y-7.2442
X19.6471Y-6.4942
X19.8096Y-5.7442
X19.8346Y-4.8067
X19.9971Y-6.4942
X20.0221Y-7.2442
X20.1846Y-4.8067
X20.1846Y-7.9942
X20.2096Y-5.7442
X20.3721Y-7.2442
X20.3971Y-6.4942
X20.5596Y-5.7442
X20.5846Y-4.8067
X20.5846Y-7.9942
X20.7471Y-6.4942
X20.7721Y-7.2442
X20.9346Y-4.8067
X20.9596Y-5.7442
X21.1221Y-7.2442
X21.1471Y-6.4942
X21.3096Y-5.7442
X21.3346Y-4.8067
X21.4971Y-6.4942
X21.5221Y-7.2442
X21.6846Y-4.8067
X21.7096Y-5.7442
X21.8721Y-7.2442
X21.8971Y-6.4942
X22.0596Y-5.7442
X22.0846Y-4.8067
X22.2471Y-6.4942
X22.2721Y-7.2442
X22.4346Y-4.8067
X22.4596Y-5.7442
X22.6221Y-7.2442
X22.6471Y-6.4942
X22.8096Y-5.7442
X22.8346Y-4.8067
X22.9971Y-6.4942
X23.0221Y-7.2442
X23.1846Y-4.8067
X23.1846Y-7.9942
X23.2096Y-5.7442
X23.3721Y-7.2442
X23.3971Y-6.4942
X23.5596Y-5.7442
X23.5846Y-4.8067
X23.5846Y-7.9942
X23.7471Y-6.4942
X23.7721Y-7.2442
X23.9346Y-4.8067
X23.9346Y-7.9942
X23.9596Y-5.7442
X24.1471Y-6.4942
X24.3096Y-5.7442
X24.3346Y-4.8067
X24.3346Y-7.9942
X24.4034Y-7.2442
X24.7096Y-5.7442
X24.8034Y-7.2442
X24.8721Y-8.1817
X24.9688Y-6.4942
X25.0596Y-4.8067
X25.2472Y-5.7442
X25.2721Y-8.1817
X25.3688Y-6.4942
X25.4596Y-4.8067
X25.6221Y-7.4317
X25.6221Y-8.1817
X25.6472Y-5.7442
X26.0221Y-7.4317
X26.0221Y-8.1817
X26.3721Y-8.1817
X26.5596Y-4.8067
X26.5596Y-5.7442
X26.5596Y-6.4942
X26.5596Y-7.2442
X26.7721Y-8.1817
X26.9596Y-4.8067
X26.9596Y-5.7442
X26.9596Y-6.4942
X26.9596Y-7.2442
X27.3096Y-4.8067
X27.3096Y-5.7442
X27.3096Y-6.4942
X27.3096Y-7.2442
X27.3096Y-7.9942
X27.7096Y-4.8067
X27.7096Y-5.7442
X27.7096Y-6.4942
X27.7096Y-7.2442
X27.7096Y-7.9942
X28.0596Y-4.8067
X28.0596Y-5.7442
X28.0596Y-6.4942
X28.0596Y-7.2442
X28.0596Y-7.9942
X28.4596Y-4.8067
X28.4596Y-5.7442
X28.4596Y-6.4942
X28.4596Y-7.2442
X28.4596Y-7.9942
T3
X15.1363Y-6.9692
X16.0763Y-6.9692
X18.1346Y-8.2692
X22.6346Y-8.2692
X24.6988Y-6.2192
X24.7896Y-4.5317
X25.6388Y-6.2192
X25.7296Y-4.5317
T4
X15.1363Y-7.5692
X16.0763Y-7.5692
X18.1346Y-7.6692
X22.6346Y-7.6692
X24.6988Y-6.8192
X24.7896Y-5.1317
X25.6388Y-6.8192
X25.7296Y-5.1317
T5
X15.1346Y-4.8067
X15.2284Y-6.4942
X15.3222Y-5.7442
X15.3222Y-7.9942
X15.4159Y-6.4942
X15.6063Y-7.2442
X15.8846Y-4.8067
X16.2596Y-5.7442
X16.2596Y-7.9942
X16.4471Y-6.4942
X16.6346Y-4.8067
X16.8221Y-7.2442
X17.0096Y-5.7442
X17.1971Y-6.4942
X17.1972Y-7.9942
X17.3846Y-4.8067
X17.5721Y-7.2442
X17.7596Y-5.7442
X17.9471Y-6.4942
X18.1346Y-4.8067
X18.3221Y-7.2442
X18.5096Y-5.7442
X18.6971Y-6.4942
X18.8846Y-4.8067
X19.0721Y-7.2442
X19.2596Y-5.7442
X19.4471Y-6.4942
X19.6346Y-4.8067
X19.8221Y-7.2442
X20.0096Y-5.7442
X20.1971Y-6.4942
X20.3846Y-4.8067
X20.3846Y-7.9942
X20.5721Y-7.2442
X20.7596Y-5.7442
X20.9471Y-6.4942
X21.1346Y-4.8067
X21.3221Y-7.2442
X21.5096Y-5.7442
X21.6971Y-6.4942
X21.8846Y-4.8067
X22.0721Y-7.2442
X22.2596Y-5.7442
X22.4471Y-6.4942
X22.6346Y-4.8067
X22.8221Y-7.2442
X23.0096Y-5.7442
X23.1971Y-6.4942
X23.3846Y-4.8067
X23.3846Y-7.9942
X23.5721Y-7.2442
X23.7596Y-5.7442
X23.9471Y-6.4942
X24.1346Y-4.8067
X24.1346Y-7.9942
X24.5096Y-5.7442
X24.6034Y-7.2442
X25.0721Y-8.1817
X25.1688Y-6.4942
X25.2596Y-4.8067
X25.4472Y-5.7442
X25.8221Y-7.4317
X25.8221Y-8.1817
X26.5721Y-8.1817
X26.7596Y-4.8067
X26.7596Y-5.7442
X26.7596Y-6.4942
X26.7596Y-7.2442
X27.5096Y-4.8067
X27.5096Y-5.7442
X27.5096Y-6.4942
X27.5096Y-7.2442
X27.5096Y-7.9942
X28.2596Y-4.8067
X28.2596Y-5.7442
X28.2596Y-6.4942
X28.2596Y-7.2442
X28.2596Y-7.9942
M30
