%TF.GenerationSoftware,KiCad,Pcbnew,8.99.0-2194-gb3b7cbcab2*%
%TF.CreationDate,2024-09-18T02:21:13+07:00*%
%TF.ProjectId,Sam_,53616d5f-2e6b-4696-9361-645f70636258,rev?*%
%TF.SameCoordinates,Original*%
%TF.FileFunction,Legend,Bot*%
%TF.FilePolarity,Positive*%
%FSLAX46Y46*%
G04 Gerber Fmt 4.6, Leading zero omitted, Abs format (unit mm)*
G04 Created by KiCad (PCBNEW 8.99.0-2194-gb3b7cbcab2) date 2024-09-18 02:21:13*
%MOMM*%
%LPD*%
G01*
G04 APERTURE LIST*
%ADD10C,0.150000*%
%ADD11C,0.120000*%
G04 APERTURE END LIST*
D10*
X395762918Y-185433355D02*
X394762918Y-185433355D01*
X394762918Y-185433355D02*
X394762918Y-185671450D01*
X394762918Y-185671450D02*
X394810537Y-185814307D01*
X394810537Y-185814307D02*
X394905775Y-185909545D01*
X394905775Y-185909545D02*
X395001013Y-185957164D01*
X395001013Y-185957164D02*
X395191489Y-186004783D01*
X395191489Y-186004783D02*
X395334346Y-186004783D01*
X395334346Y-186004783D02*
X395524822Y-185957164D01*
X395524822Y-185957164D02*
X395620060Y-185909545D01*
X395620060Y-185909545D02*
X395715299Y-185814307D01*
X395715299Y-185814307D02*
X395762918Y-185671450D01*
X395762918Y-185671450D02*
X395762918Y-185433355D01*
X395096251Y-186861926D02*
X395762918Y-186861926D01*
X394715299Y-186623831D02*
X395429584Y-186385736D01*
X395429584Y-186385736D02*
X395429584Y-187004783D01*
X395191489Y-187528593D02*
X395143870Y-187433355D01*
X395143870Y-187433355D02*
X395096251Y-187385736D01*
X395096251Y-187385736D02*
X395001013Y-187338117D01*
X395001013Y-187338117D02*
X394953394Y-187338117D01*
X394953394Y-187338117D02*
X394858156Y-187385736D01*
X394858156Y-187385736D02*
X394810537Y-187433355D01*
X394810537Y-187433355D02*
X394762918Y-187528593D01*
X394762918Y-187528593D02*
X394762918Y-187719069D01*
X394762918Y-187719069D02*
X394810537Y-187814307D01*
X394810537Y-187814307D02*
X394858156Y-187861926D01*
X394858156Y-187861926D02*
X394953394Y-187909545D01*
X394953394Y-187909545D02*
X395001013Y-187909545D01*
X395001013Y-187909545D02*
X395096251Y-187861926D01*
X395096251Y-187861926D02*
X395143870Y-187814307D01*
X395143870Y-187814307D02*
X395191489Y-187719069D01*
X395191489Y-187719069D02*
X395191489Y-187528593D01*
X395191489Y-187528593D02*
X395239108Y-187433355D01*
X395239108Y-187433355D02*
X395286727Y-187385736D01*
X395286727Y-187385736D02*
X395381965Y-187338117D01*
X395381965Y-187338117D02*
X395572441Y-187338117D01*
X395572441Y-187338117D02*
X395667679Y-187385736D01*
X395667679Y-187385736D02*
X395715299Y-187433355D01*
X395715299Y-187433355D02*
X395762918Y-187528593D01*
X395762918Y-187528593D02*
X395762918Y-187719069D01*
X395762918Y-187719069D02*
X395715299Y-187814307D01*
X395715299Y-187814307D02*
X395667679Y-187861926D01*
X395667679Y-187861926D02*
X395572441Y-187909545D01*
X395572441Y-187909545D02*
X395381965Y-187909545D01*
X395381965Y-187909545D02*
X395286727Y-187861926D01*
X395286727Y-187861926D02*
X395239108Y-187814307D01*
X395239108Y-187814307D02*
X395191489Y-187719069D01*
X502844818Y-185433355D02*
X501844818Y-185433355D01*
X501844818Y-185433355D02*
X501844818Y-185671450D01*
X501844818Y-185671450D02*
X501892437Y-185814307D01*
X501892437Y-185814307D02*
X501987675Y-185909545D01*
X501987675Y-185909545D02*
X502082913Y-185957164D01*
X502082913Y-185957164D02*
X502273389Y-186004783D01*
X502273389Y-186004783D02*
X502416246Y-186004783D01*
X502416246Y-186004783D02*
X502606722Y-185957164D01*
X502606722Y-185957164D02*
X502701960Y-185909545D01*
X502701960Y-185909545D02*
X502797199Y-185814307D01*
X502797199Y-185814307D02*
X502844818Y-185671450D01*
X502844818Y-185671450D02*
X502844818Y-185433355D01*
X501844818Y-186909545D02*
X501844818Y-186433355D01*
X501844818Y-186433355D02*
X502321008Y-186385736D01*
X502321008Y-186385736D02*
X502273389Y-186433355D01*
X502273389Y-186433355D02*
X502225770Y-186528593D01*
X502225770Y-186528593D02*
X502225770Y-186766688D01*
X502225770Y-186766688D02*
X502273389Y-186861926D01*
X502273389Y-186861926D02*
X502321008Y-186909545D01*
X502321008Y-186909545D02*
X502416246Y-186957164D01*
X502416246Y-186957164D02*
X502654341Y-186957164D01*
X502654341Y-186957164D02*
X502749579Y-186909545D01*
X502749579Y-186909545D02*
X502797199Y-186861926D01*
X502797199Y-186861926D02*
X502844818Y-186766688D01*
X502844818Y-186766688D02*
X502844818Y-186528593D01*
X502844818Y-186528593D02*
X502797199Y-186433355D01*
X502797199Y-186433355D02*
X502749579Y-186385736D01*
X501844818Y-187814307D02*
X501844818Y-187623831D01*
X501844818Y-187623831D02*
X501892437Y-187528593D01*
X501892437Y-187528593D02*
X501940056Y-187480974D01*
X501940056Y-187480974D02*
X502082913Y-187385736D01*
X502082913Y-187385736D02*
X502273389Y-187338117D01*
X502273389Y-187338117D02*
X502654341Y-187338117D01*
X502654341Y-187338117D02*
X502749579Y-187385736D01*
X502749579Y-187385736D02*
X502797199Y-187433355D01*
X502797199Y-187433355D02*
X502844818Y-187528593D01*
X502844818Y-187528593D02*
X502844818Y-187719069D01*
X502844818Y-187719069D02*
X502797199Y-187814307D01*
X502797199Y-187814307D02*
X502749579Y-187861926D01*
X502749579Y-187861926D02*
X502654341Y-187909545D01*
X502654341Y-187909545D02*
X502416246Y-187909545D01*
X502416246Y-187909545D02*
X502321008Y-187861926D01*
X502321008Y-187861926D02*
X502273389Y-187814307D01*
X502273389Y-187814307D02*
X502225770Y-187719069D01*
X502225770Y-187719069D02*
X502225770Y-187528593D01*
X502225770Y-187528593D02*
X502273389Y-187433355D01*
X502273389Y-187433355D02*
X502321008Y-187385736D01*
X502321008Y-187385736D02*
X502416246Y-187338117D01*
X464744818Y-185433355D02*
X463744818Y-185433355D01*
X463744818Y-185433355D02*
X463744818Y-185671450D01*
X463744818Y-185671450D02*
X463792437Y-185814307D01*
X463792437Y-185814307D02*
X463887675Y-185909545D01*
X463887675Y-185909545D02*
X463982913Y-185957164D01*
X463982913Y-185957164D02*
X464173389Y-186004783D01*
X464173389Y-186004783D02*
X464316246Y-186004783D01*
X464316246Y-186004783D02*
X464506722Y-185957164D01*
X464506722Y-185957164D02*
X464601960Y-185909545D01*
X464601960Y-185909545D02*
X464697199Y-185814307D01*
X464697199Y-185814307D02*
X464744818Y-185671450D01*
X464744818Y-185671450D02*
X464744818Y-185433355D01*
X463744818Y-186909545D02*
X463744818Y-186433355D01*
X463744818Y-186433355D02*
X464221008Y-186385736D01*
X464221008Y-186385736D02*
X464173389Y-186433355D01*
X464173389Y-186433355D02*
X464125770Y-186528593D01*
X464125770Y-186528593D02*
X464125770Y-186766688D01*
X464125770Y-186766688D02*
X464173389Y-186861926D01*
X464173389Y-186861926D02*
X464221008Y-186909545D01*
X464221008Y-186909545D02*
X464316246Y-186957164D01*
X464316246Y-186957164D02*
X464554341Y-186957164D01*
X464554341Y-186957164D02*
X464649579Y-186909545D01*
X464649579Y-186909545D02*
X464697199Y-186861926D01*
X464697199Y-186861926D02*
X464744818Y-186766688D01*
X464744818Y-186766688D02*
X464744818Y-186528593D01*
X464744818Y-186528593D02*
X464697199Y-186433355D01*
X464697199Y-186433355D02*
X464649579Y-186385736D01*
X464078151Y-187814307D02*
X464744818Y-187814307D01*
X463697199Y-187576212D02*
X464411484Y-187338117D01*
X464411484Y-187338117D02*
X464411484Y-187957164D01*
X717157318Y-166383355D02*
X716157318Y-166383355D01*
X716157318Y-166383355D02*
X716157318Y-166621450D01*
X716157318Y-166621450D02*
X716204937Y-166764307D01*
X716204937Y-166764307D02*
X716300175Y-166859545D01*
X716300175Y-166859545D02*
X716395413Y-166907164D01*
X716395413Y-166907164D02*
X716585889Y-166954783D01*
X716585889Y-166954783D02*
X716728746Y-166954783D01*
X716728746Y-166954783D02*
X716919222Y-166907164D01*
X716919222Y-166907164D02*
X717014460Y-166859545D01*
X717014460Y-166859545D02*
X717109699Y-166764307D01*
X717109699Y-166764307D02*
X717157318Y-166621450D01*
X717157318Y-166621450D02*
X717157318Y-166383355D01*
X716157318Y-167859545D02*
X716157318Y-167383355D01*
X716157318Y-167383355D02*
X716633508Y-167335736D01*
X716633508Y-167335736D02*
X716585889Y-167383355D01*
X716585889Y-167383355D02*
X716538270Y-167478593D01*
X716538270Y-167478593D02*
X716538270Y-167716688D01*
X716538270Y-167716688D02*
X716585889Y-167811926D01*
X716585889Y-167811926D02*
X716633508Y-167859545D01*
X716633508Y-167859545D02*
X716728746Y-167907164D01*
X716728746Y-167907164D02*
X716966841Y-167907164D01*
X716966841Y-167907164D02*
X717062079Y-167859545D01*
X717062079Y-167859545D02*
X717109699Y-167811926D01*
X717109699Y-167811926D02*
X717157318Y-167716688D01*
X717157318Y-167716688D02*
X717157318Y-167478593D01*
X717157318Y-167478593D02*
X717109699Y-167383355D01*
X717109699Y-167383355D02*
X717062079Y-167335736D01*
X717157318Y-168859545D02*
X717157318Y-168288117D01*
X717157318Y-168573831D02*
X716157318Y-168573831D01*
X716157318Y-168573831D02*
X716300175Y-168478593D01*
X716300175Y-168478593D02*
X716395413Y-168383355D01*
X716395413Y-168383355D02*
X716443032Y-168288117D01*
X607619818Y-166383355D02*
X606619818Y-166383355D01*
X606619818Y-166383355D02*
X606619818Y-166621450D01*
X606619818Y-166621450D02*
X606667437Y-166764307D01*
X606667437Y-166764307D02*
X606762675Y-166859545D01*
X606762675Y-166859545D02*
X606857913Y-166907164D01*
X606857913Y-166907164D02*
X607048389Y-166954783D01*
X607048389Y-166954783D02*
X607191246Y-166954783D01*
X607191246Y-166954783D02*
X607381722Y-166907164D01*
X607381722Y-166907164D02*
X607476960Y-166859545D01*
X607476960Y-166859545D02*
X607572199Y-166764307D01*
X607572199Y-166764307D02*
X607619818Y-166621450D01*
X607619818Y-166621450D02*
X607619818Y-166383355D01*
X606953151Y-167811926D02*
X607619818Y-167811926D01*
X606572199Y-167573831D02*
X607286484Y-167335736D01*
X607286484Y-167335736D02*
X607286484Y-167954783D01*
X606619818Y-168764307D02*
X606619818Y-168573831D01*
X606619818Y-168573831D02*
X606667437Y-168478593D01*
X606667437Y-168478593D02*
X606715056Y-168430974D01*
X606715056Y-168430974D02*
X606857913Y-168335736D01*
X606857913Y-168335736D02*
X607048389Y-168288117D01*
X607048389Y-168288117D02*
X607429341Y-168288117D01*
X607429341Y-168288117D02*
X607524579Y-168335736D01*
X607524579Y-168335736D02*
X607572199Y-168383355D01*
X607572199Y-168383355D02*
X607619818Y-168478593D01*
X607619818Y-168478593D02*
X607619818Y-168669069D01*
X607619818Y-168669069D02*
X607572199Y-168764307D01*
X607572199Y-168764307D02*
X607524579Y-168811926D01*
X607524579Y-168811926D02*
X607429341Y-168859545D01*
X607429341Y-168859545D02*
X607191246Y-168859545D01*
X607191246Y-168859545D02*
X607096008Y-168811926D01*
X607096008Y-168811926D02*
X607048389Y-168764307D01*
X607048389Y-168764307D02*
X607000770Y-168669069D01*
X607000770Y-168669069D02*
X607000770Y-168478593D01*
X607000770Y-168478593D02*
X607048389Y-168383355D01*
X607048389Y-168383355D02*
X607096008Y-168335736D01*
X607096008Y-168335736D02*
X607191246Y-168288117D01*
X521894818Y-185433355D02*
X520894818Y-185433355D01*
X520894818Y-185433355D02*
X520894818Y-185671450D01*
X520894818Y-185671450D02*
X520942437Y-185814307D01*
X520942437Y-185814307D02*
X521037675Y-185909545D01*
X521037675Y-185909545D02*
X521132913Y-185957164D01*
X521132913Y-185957164D02*
X521323389Y-186004783D01*
X521323389Y-186004783D02*
X521466246Y-186004783D01*
X521466246Y-186004783D02*
X521656722Y-185957164D01*
X521656722Y-185957164D02*
X521751960Y-185909545D01*
X521751960Y-185909545D02*
X521847199Y-185814307D01*
X521847199Y-185814307D02*
X521894818Y-185671450D01*
X521894818Y-185671450D02*
X521894818Y-185433355D01*
X520894818Y-186909545D02*
X520894818Y-186433355D01*
X520894818Y-186433355D02*
X521371008Y-186385736D01*
X521371008Y-186385736D02*
X521323389Y-186433355D01*
X521323389Y-186433355D02*
X521275770Y-186528593D01*
X521275770Y-186528593D02*
X521275770Y-186766688D01*
X521275770Y-186766688D02*
X521323389Y-186861926D01*
X521323389Y-186861926D02*
X521371008Y-186909545D01*
X521371008Y-186909545D02*
X521466246Y-186957164D01*
X521466246Y-186957164D02*
X521704341Y-186957164D01*
X521704341Y-186957164D02*
X521799579Y-186909545D01*
X521799579Y-186909545D02*
X521847199Y-186861926D01*
X521847199Y-186861926D02*
X521894818Y-186766688D01*
X521894818Y-186766688D02*
X521894818Y-186528593D01*
X521894818Y-186528593D02*
X521847199Y-186433355D01*
X521847199Y-186433355D02*
X521799579Y-186385736D01*
X520894818Y-187290498D02*
X520894818Y-187957164D01*
X520894818Y-187957164D02*
X521894818Y-187528593D01*
X483794818Y-185433355D02*
X482794818Y-185433355D01*
X482794818Y-185433355D02*
X482794818Y-185671450D01*
X482794818Y-185671450D02*
X482842437Y-185814307D01*
X482842437Y-185814307D02*
X482937675Y-185909545D01*
X482937675Y-185909545D02*
X483032913Y-185957164D01*
X483032913Y-185957164D02*
X483223389Y-186004783D01*
X483223389Y-186004783D02*
X483366246Y-186004783D01*
X483366246Y-186004783D02*
X483556722Y-185957164D01*
X483556722Y-185957164D02*
X483651960Y-185909545D01*
X483651960Y-185909545D02*
X483747199Y-185814307D01*
X483747199Y-185814307D02*
X483794818Y-185671450D01*
X483794818Y-185671450D02*
X483794818Y-185433355D01*
X482794818Y-186909545D02*
X482794818Y-186433355D01*
X482794818Y-186433355D02*
X483271008Y-186385736D01*
X483271008Y-186385736D02*
X483223389Y-186433355D01*
X483223389Y-186433355D02*
X483175770Y-186528593D01*
X483175770Y-186528593D02*
X483175770Y-186766688D01*
X483175770Y-186766688D02*
X483223389Y-186861926D01*
X483223389Y-186861926D02*
X483271008Y-186909545D01*
X483271008Y-186909545D02*
X483366246Y-186957164D01*
X483366246Y-186957164D02*
X483604341Y-186957164D01*
X483604341Y-186957164D02*
X483699579Y-186909545D01*
X483699579Y-186909545D02*
X483747199Y-186861926D01*
X483747199Y-186861926D02*
X483794818Y-186766688D01*
X483794818Y-186766688D02*
X483794818Y-186528593D01*
X483794818Y-186528593D02*
X483747199Y-186433355D01*
X483747199Y-186433355D02*
X483699579Y-186385736D01*
X482794818Y-187861926D02*
X482794818Y-187385736D01*
X482794818Y-187385736D02*
X483271008Y-187338117D01*
X483271008Y-187338117D02*
X483223389Y-187385736D01*
X483223389Y-187385736D02*
X483175770Y-187480974D01*
X483175770Y-187480974D02*
X483175770Y-187719069D01*
X483175770Y-187719069D02*
X483223389Y-187814307D01*
X483223389Y-187814307D02*
X483271008Y-187861926D01*
X483271008Y-187861926D02*
X483366246Y-187909545D01*
X483366246Y-187909545D02*
X483604341Y-187909545D01*
X483604341Y-187909545D02*
X483699579Y-187861926D01*
X483699579Y-187861926D02*
X483747199Y-187814307D01*
X483747199Y-187814307D02*
X483794818Y-187719069D01*
X483794818Y-187719069D02*
X483794818Y-187480974D01*
X483794818Y-187480974D02*
X483747199Y-187385736D01*
X483747199Y-187385736D02*
X483699579Y-187338117D01*
X638650418Y-166383355D02*
X637650418Y-166383355D01*
X637650418Y-166383355D02*
X637650418Y-166621450D01*
X637650418Y-166621450D02*
X637698037Y-166764307D01*
X637698037Y-166764307D02*
X637793275Y-166859545D01*
X637793275Y-166859545D02*
X637888513Y-166907164D01*
X637888513Y-166907164D02*
X638078989Y-166954783D01*
X638078989Y-166954783D02*
X638221846Y-166954783D01*
X638221846Y-166954783D02*
X638412322Y-166907164D01*
X638412322Y-166907164D02*
X638507560Y-166859545D01*
X638507560Y-166859545D02*
X638602799Y-166764307D01*
X638602799Y-166764307D02*
X638650418Y-166621450D01*
X638650418Y-166621450D02*
X638650418Y-166383355D01*
X637983751Y-167811926D02*
X638650418Y-167811926D01*
X637602799Y-167573831D02*
X638317084Y-167335736D01*
X638317084Y-167335736D02*
X638317084Y-167954783D01*
X637650418Y-168240498D02*
X637650418Y-168907164D01*
X637650418Y-168907164D02*
X638650418Y-168478593D01*
X445694818Y-185433355D02*
X444694818Y-185433355D01*
X444694818Y-185433355D02*
X444694818Y-185671450D01*
X444694818Y-185671450D02*
X444742437Y-185814307D01*
X444742437Y-185814307D02*
X444837675Y-185909545D01*
X444837675Y-185909545D02*
X444932913Y-185957164D01*
X444932913Y-185957164D02*
X445123389Y-186004783D01*
X445123389Y-186004783D02*
X445266246Y-186004783D01*
X445266246Y-186004783D02*
X445456722Y-185957164D01*
X445456722Y-185957164D02*
X445551960Y-185909545D01*
X445551960Y-185909545D02*
X445647199Y-185814307D01*
X445647199Y-185814307D02*
X445694818Y-185671450D01*
X445694818Y-185671450D02*
X445694818Y-185433355D01*
X444694818Y-186909545D02*
X444694818Y-186433355D01*
X444694818Y-186433355D02*
X445171008Y-186385736D01*
X445171008Y-186385736D02*
X445123389Y-186433355D01*
X445123389Y-186433355D02*
X445075770Y-186528593D01*
X445075770Y-186528593D02*
X445075770Y-186766688D01*
X445075770Y-186766688D02*
X445123389Y-186861926D01*
X445123389Y-186861926D02*
X445171008Y-186909545D01*
X445171008Y-186909545D02*
X445266246Y-186957164D01*
X445266246Y-186957164D02*
X445504341Y-186957164D01*
X445504341Y-186957164D02*
X445599579Y-186909545D01*
X445599579Y-186909545D02*
X445647199Y-186861926D01*
X445647199Y-186861926D02*
X445694818Y-186766688D01*
X445694818Y-186766688D02*
X445694818Y-186528593D01*
X445694818Y-186528593D02*
X445647199Y-186433355D01*
X445647199Y-186433355D02*
X445599579Y-186385736D01*
X444694818Y-187290498D02*
X444694818Y-187909545D01*
X444694818Y-187909545D02*
X445075770Y-187576212D01*
X445075770Y-187576212D02*
X445075770Y-187719069D01*
X445075770Y-187719069D02*
X445123389Y-187814307D01*
X445123389Y-187814307D02*
X445171008Y-187861926D01*
X445171008Y-187861926D02*
X445266246Y-187909545D01*
X445266246Y-187909545D02*
X445504341Y-187909545D01*
X445504341Y-187909545D02*
X445599579Y-187861926D01*
X445599579Y-187861926D02*
X445647199Y-187814307D01*
X445647199Y-187814307D02*
X445694818Y-187719069D01*
X445694818Y-187719069D02*
X445694818Y-187433355D01*
X445694818Y-187433355D02*
X445647199Y-187338117D01*
X445647199Y-187338117D02*
X445599579Y-187290498D01*
X426644818Y-185433355D02*
X425644818Y-185433355D01*
X425644818Y-185433355D02*
X425644818Y-185671450D01*
X425644818Y-185671450D02*
X425692437Y-185814307D01*
X425692437Y-185814307D02*
X425787675Y-185909545D01*
X425787675Y-185909545D02*
X425882913Y-185957164D01*
X425882913Y-185957164D02*
X426073389Y-186004783D01*
X426073389Y-186004783D02*
X426216246Y-186004783D01*
X426216246Y-186004783D02*
X426406722Y-185957164D01*
X426406722Y-185957164D02*
X426501960Y-185909545D01*
X426501960Y-185909545D02*
X426597199Y-185814307D01*
X426597199Y-185814307D02*
X426644818Y-185671450D01*
X426644818Y-185671450D02*
X426644818Y-185433355D01*
X425644818Y-186909545D02*
X425644818Y-186433355D01*
X425644818Y-186433355D02*
X426121008Y-186385736D01*
X426121008Y-186385736D02*
X426073389Y-186433355D01*
X426073389Y-186433355D02*
X426025770Y-186528593D01*
X426025770Y-186528593D02*
X426025770Y-186766688D01*
X426025770Y-186766688D02*
X426073389Y-186861926D01*
X426073389Y-186861926D02*
X426121008Y-186909545D01*
X426121008Y-186909545D02*
X426216246Y-186957164D01*
X426216246Y-186957164D02*
X426454341Y-186957164D01*
X426454341Y-186957164D02*
X426549579Y-186909545D01*
X426549579Y-186909545D02*
X426597199Y-186861926D01*
X426597199Y-186861926D02*
X426644818Y-186766688D01*
X426644818Y-186766688D02*
X426644818Y-186528593D01*
X426644818Y-186528593D02*
X426597199Y-186433355D01*
X426597199Y-186433355D02*
X426549579Y-186385736D01*
X425740056Y-187338117D02*
X425692437Y-187385736D01*
X425692437Y-187385736D02*
X425644818Y-187480974D01*
X425644818Y-187480974D02*
X425644818Y-187719069D01*
X425644818Y-187719069D02*
X425692437Y-187814307D01*
X425692437Y-187814307D02*
X425740056Y-187861926D01*
X425740056Y-187861926D02*
X425835294Y-187909545D01*
X425835294Y-187909545D02*
X425930532Y-187909545D01*
X425930532Y-187909545D02*
X426073389Y-187861926D01*
X426073389Y-187861926D02*
X426644818Y-187290498D01*
X426644818Y-187290498D02*
X426644818Y-187909545D01*
X698107318Y-166383355D02*
X697107318Y-166383355D01*
X697107318Y-166383355D02*
X697107318Y-166621450D01*
X697107318Y-166621450D02*
X697154937Y-166764307D01*
X697154937Y-166764307D02*
X697250175Y-166859545D01*
X697250175Y-166859545D02*
X697345413Y-166907164D01*
X697345413Y-166907164D02*
X697535889Y-166954783D01*
X697535889Y-166954783D02*
X697678746Y-166954783D01*
X697678746Y-166954783D02*
X697869222Y-166907164D01*
X697869222Y-166907164D02*
X697964460Y-166859545D01*
X697964460Y-166859545D02*
X698059699Y-166764307D01*
X698059699Y-166764307D02*
X698107318Y-166621450D01*
X698107318Y-166621450D02*
X698107318Y-166383355D01*
X697107318Y-167859545D02*
X697107318Y-167383355D01*
X697107318Y-167383355D02*
X697583508Y-167335736D01*
X697583508Y-167335736D02*
X697535889Y-167383355D01*
X697535889Y-167383355D02*
X697488270Y-167478593D01*
X697488270Y-167478593D02*
X697488270Y-167716688D01*
X697488270Y-167716688D02*
X697535889Y-167811926D01*
X697535889Y-167811926D02*
X697583508Y-167859545D01*
X697583508Y-167859545D02*
X697678746Y-167907164D01*
X697678746Y-167907164D02*
X697916841Y-167907164D01*
X697916841Y-167907164D02*
X698012079Y-167859545D01*
X698012079Y-167859545D02*
X698059699Y-167811926D01*
X698059699Y-167811926D02*
X698107318Y-167716688D01*
X698107318Y-167716688D02*
X698107318Y-167478593D01*
X698107318Y-167478593D02*
X698059699Y-167383355D01*
X698059699Y-167383355D02*
X698012079Y-167335736D01*
X697107318Y-168526212D02*
X697107318Y-168621450D01*
X697107318Y-168621450D02*
X697154937Y-168716688D01*
X697154937Y-168716688D02*
X697202556Y-168764307D01*
X697202556Y-168764307D02*
X697297794Y-168811926D01*
X697297794Y-168811926D02*
X697488270Y-168859545D01*
X697488270Y-168859545D02*
X697726365Y-168859545D01*
X697726365Y-168859545D02*
X697916841Y-168811926D01*
X697916841Y-168811926D02*
X698012079Y-168764307D01*
X698012079Y-168764307D02*
X698059699Y-168716688D01*
X698059699Y-168716688D02*
X698107318Y-168621450D01*
X698107318Y-168621450D02*
X698107318Y-168526212D01*
X698107318Y-168526212D02*
X698059699Y-168430974D01*
X698059699Y-168430974D02*
X698012079Y-168383355D01*
X698012079Y-168383355D02*
X697916841Y-168335736D01*
X697916841Y-168335736D02*
X697726365Y-168288117D01*
X697726365Y-168288117D02*
X697488270Y-168288117D01*
X697488270Y-168288117D02*
X697297794Y-168335736D01*
X697297794Y-168335736D02*
X697202556Y-168383355D01*
X697202556Y-168383355D02*
X697154937Y-168430974D01*
X697154937Y-168430974D02*
X697107318Y-168526212D01*
X679057318Y-166383355D02*
X678057318Y-166383355D01*
X678057318Y-166383355D02*
X678057318Y-166621450D01*
X678057318Y-166621450D02*
X678104937Y-166764307D01*
X678104937Y-166764307D02*
X678200175Y-166859545D01*
X678200175Y-166859545D02*
X678295413Y-166907164D01*
X678295413Y-166907164D02*
X678485889Y-166954783D01*
X678485889Y-166954783D02*
X678628746Y-166954783D01*
X678628746Y-166954783D02*
X678819222Y-166907164D01*
X678819222Y-166907164D02*
X678914460Y-166859545D01*
X678914460Y-166859545D02*
X679009699Y-166764307D01*
X679009699Y-166764307D02*
X679057318Y-166621450D01*
X679057318Y-166621450D02*
X679057318Y-166383355D01*
X678390651Y-167811926D02*
X679057318Y-167811926D01*
X678009699Y-167573831D02*
X678723984Y-167335736D01*
X678723984Y-167335736D02*
X678723984Y-167954783D01*
X679057318Y-168383355D02*
X679057318Y-168573831D01*
X679057318Y-168573831D02*
X679009699Y-168669069D01*
X679009699Y-168669069D02*
X678962079Y-168716688D01*
X678962079Y-168716688D02*
X678819222Y-168811926D01*
X678819222Y-168811926D02*
X678628746Y-168859545D01*
X678628746Y-168859545D02*
X678247794Y-168859545D01*
X678247794Y-168859545D02*
X678152556Y-168811926D01*
X678152556Y-168811926D02*
X678104937Y-168764307D01*
X678104937Y-168764307D02*
X678057318Y-168669069D01*
X678057318Y-168669069D02*
X678057318Y-168478593D01*
X678057318Y-168478593D02*
X678104937Y-168383355D01*
X678104937Y-168383355D02*
X678152556Y-168335736D01*
X678152556Y-168335736D02*
X678247794Y-168288117D01*
X678247794Y-168288117D02*
X678485889Y-168288117D01*
X678485889Y-168288117D02*
X678581127Y-168335736D01*
X678581127Y-168335736D02*
X678628746Y-168383355D01*
X678628746Y-168383355D02*
X678676365Y-168478593D01*
X678676365Y-168478593D02*
X678676365Y-168669069D01*
X678676365Y-168669069D02*
X678628746Y-168764307D01*
X678628746Y-168764307D02*
X678581127Y-168811926D01*
X678581127Y-168811926D02*
X678485889Y-168859545D01*
X474269818Y-166383355D02*
X473269818Y-166383355D01*
X473269818Y-166383355D02*
X473269818Y-166621450D01*
X473269818Y-166621450D02*
X473317437Y-166764307D01*
X473317437Y-166764307D02*
X473412675Y-166859545D01*
X473412675Y-166859545D02*
X473507913Y-166907164D01*
X473507913Y-166907164D02*
X473698389Y-166954783D01*
X473698389Y-166954783D02*
X473841246Y-166954783D01*
X473841246Y-166954783D02*
X474031722Y-166907164D01*
X474031722Y-166907164D02*
X474126960Y-166859545D01*
X474126960Y-166859545D02*
X474222199Y-166764307D01*
X474222199Y-166764307D02*
X474269818Y-166621450D01*
X474269818Y-166621450D02*
X474269818Y-166383355D01*
X473269818Y-167288117D02*
X473269818Y-167907164D01*
X473269818Y-167907164D02*
X473650770Y-167573831D01*
X473650770Y-167573831D02*
X473650770Y-167716688D01*
X473650770Y-167716688D02*
X473698389Y-167811926D01*
X473698389Y-167811926D02*
X473746008Y-167859545D01*
X473746008Y-167859545D02*
X473841246Y-167907164D01*
X473841246Y-167907164D02*
X474079341Y-167907164D01*
X474079341Y-167907164D02*
X474174579Y-167859545D01*
X474174579Y-167859545D02*
X474222199Y-167811926D01*
X474222199Y-167811926D02*
X474269818Y-167716688D01*
X474269818Y-167716688D02*
X474269818Y-167430974D01*
X474269818Y-167430974D02*
X474222199Y-167335736D01*
X474222199Y-167335736D02*
X474174579Y-167288117D01*
X474269818Y-168383355D02*
X474269818Y-168573831D01*
X474269818Y-168573831D02*
X474222199Y-168669069D01*
X474222199Y-168669069D02*
X474174579Y-168716688D01*
X474174579Y-168716688D02*
X474031722Y-168811926D01*
X474031722Y-168811926D02*
X473841246Y-168859545D01*
X473841246Y-168859545D02*
X473460294Y-168859545D01*
X473460294Y-168859545D02*
X473365056Y-168811926D01*
X473365056Y-168811926D02*
X473317437Y-168764307D01*
X473317437Y-168764307D02*
X473269818Y-168669069D01*
X473269818Y-168669069D02*
X473269818Y-168478593D01*
X473269818Y-168478593D02*
X473317437Y-168383355D01*
X473317437Y-168383355D02*
X473365056Y-168335736D01*
X473365056Y-168335736D02*
X473460294Y-168288117D01*
X473460294Y-168288117D02*
X473698389Y-168288117D01*
X473698389Y-168288117D02*
X473793627Y-168335736D01*
X473793627Y-168335736D02*
X473841246Y-168383355D01*
X473841246Y-168383355D02*
X473888865Y-168478593D01*
X473888865Y-168478593D02*
X473888865Y-168669069D01*
X473888865Y-168669069D02*
X473841246Y-168764307D01*
X473841246Y-168764307D02*
X473793627Y-168811926D01*
X473793627Y-168811926D02*
X473698389Y-168859545D01*
X417119818Y-166383355D02*
X416119818Y-166383355D01*
X416119818Y-166383355D02*
X416119818Y-166621450D01*
X416119818Y-166621450D02*
X416167437Y-166764307D01*
X416167437Y-166764307D02*
X416262675Y-166859545D01*
X416262675Y-166859545D02*
X416357913Y-166907164D01*
X416357913Y-166907164D02*
X416548389Y-166954783D01*
X416548389Y-166954783D02*
X416691246Y-166954783D01*
X416691246Y-166954783D02*
X416881722Y-166907164D01*
X416881722Y-166907164D02*
X416976960Y-166859545D01*
X416976960Y-166859545D02*
X417072199Y-166764307D01*
X417072199Y-166764307D02*
X417119818Y-166621450D01*
X417119818Y-166621450D02*
X417119818Y-166383355D01*
X416119818Y-167288117D02*
X416119818Y-167907164D01*
X416119818Y-167907164D02*
X416500770Y-167573831D01*
X416500770Y-167573831D02*
X416500770Y-167716688D01*
X416500770Y-167716688D02*
X416548389Y-167811926D01*
X416548389Y-167811926D02*
X416596008Y-167859545D01*
X416596008Y-167859545D02*
X416691246Y-167907164D01*
X416691246Y-167907164D02*
X416929341Y-167907164D01*
X416929341Y-167907164D02*
X417024579Y-167859545D01*
X417024579Y-167859545D02*
X417072199Y-167811926D01*
X417072199Y-167811926D02*
X417119818Y-167716688D01*
X417119818Y-167716688D02*
X417119818Y-167430974D01*
X417119818Y-167430974D02*
X417072199Y-167335736D01*
X417072199Y-167335736D02*
X417024579Y-167288117D01*
X416119818Y-168764307D02*
X416119818Y-168573831D01*
X416119818Y-168573831D02*
X416167437Y-168478593D01*
X416167437Y-168478593D02*
X416215056Y-168430974D01*
X416215056Y-168430974D02*
X416357913Y-168335736D01*
X416357913Y-168335736D02*
X416548389Y-168288117D01*
X416548389Y-168288117D02*
X416929341Y-168288117D01*
X416929341Y-168288117D02*
X417024579Y-168335736D01*
X417024579Y-168335736D02*
X417072199Y-168383355D01*
X417072199Y-168383355D02*
X417119818Y-168478593D01*
X417119818Y-168478593D02*
X417119818Y-168669069D01*
X417119818Y-168669069D02*
X417072199Y-168764307D01*
X417072199Y-168764307D02*
X417024579Y-168811926D01*
X417024579Y-168811926D02*
X416929341Y-168859545D01*
X416929341Y-168859545D02*
X416691246Y-168859545D01*
X416691246Y-168859545D02*
X416596008Y-168811926D01*
X416596008Y-168811926D02*
X416548389Y-168764307D01*
X416548389Y-168764307D02*
X416500770Y-168669069D01*
X416500770Y-168669069D02*
X416500770Y-168478593D01*
X416500770Y-168478593D02*
X416548389Y-168383355D01*
X416548389Y-168383355D02*
X416596008Y-168335736D01*
X416596008Y-168335736D02*
X416691246Y-168288117D01*
X698107318Y-147333355D02*
X697107318Y-147333355D01*
X697107318Y-147333355D02*
X697107318Y-147571450D01*
X697107318Y-147571450D02*
X697154937Y-147714307D01*
X697154937Y-147714307D02*
X697250175Y-147809545D01*
X697250175Y-147809545D02*
X697345413Y-147857164D01*
X697345413Y-147857164D02*
X697535889Y-147904783D01*
X697535889Y-147904783D02*
X697678746Y-147904783D01*
X697678746Y-147904783D02*
X697869222Y-147857164D01*
X697869222Y-147857164D02*
X697964460Y-147809545D01*
X697964460Y-147809545D02*
X698059699Y-147714307D01*
X698059699Y-147714307D02*
X698107318Y-147571450D01*
X698107318Y-147571450D02*
X698107318Y-147333355D01*
X697107318Y-148238117D02*
X697107318Y-148857164D01*
X697107318Y-148857164D02*
X697488270Y-148523831D01*
X697488270Y-148523831D02*
X697488270Y-148666688D01*
X697488270Y-148666688D02*
X697535889Y-148761926D01*
X697535889Y-148761926D02*
X697583508Y-148809545D01*
X697583508Y-148809545D02*
X697678746Y-148857164D01*
X697678746Y-148857164D02*
X697916841Y-148857164D01*
X697916841Y-148857164D02*
X698012079Y-148809545D01*
X698012079Y-148809545D02*
X698059699Y-148761926D01*
X698059699Y-148761926D02*
X698107318Y-148666688D01*
X698107318Y-148666688D02*
X698107318Y-148380974D01*
X698107318Y-148380974D02*
X698059699Y-148285736D01*
X698059699Y-148285736D02*
X698012079Y-148238117D01*
X697107318Y-149190498D02*
X697107318Y-149809545D01*
X697107318Y-149809545D02*
X697488270Y-149476212D01*
X697488270Y-149476212D02*
X697488270Y-149619069D01*
X697488270Y-149619069D02*
X697535889Y-149714307D01*
X697535889Y-149714307D02*
X697583508Y-149761926D01*
X697583508Y-149761926D02*
X697678746Y-149809545D01*
X697678746Y-149809545D02*
X697916841Y-149809545D01*
X697916841Y-149809545D02*
X698012079Y-149761926D01*
X698012079Y-149761926D02*
X698059699Y-149714307D01*
X698059699Y-149714307D02*
X698107318Y-149619069D01*
X698107318Y-149619069D02*
X698107318Y-149333355D01*
X698107318Y-149333355D02*
X698059699Y-149238117D01*
X698059699Y-149238117D02*
X698012079Y-149190498D01*
X602857318Y-147333355D02*
X601857318Y-147333355D01*
X601857318Y-147333355D02*
X601857318Y-147571450D01*
X601857318Y-147571450D02*
X601904937Y-147714307D01*
X601904937Y-147714307D02*
X602000175Y-147809545D01*
X602000175Y-147809545D02*
X602095413Y-147857164D01*
X602095413Y-147857164D02*
X602285889Y-147904783D01*
X602285889Y-147904783D02*
X602428746Y-147904783D01*
X602428746Y-147904783D02*
X602619222Y-147857164D01*
X602619222Y-147857164D02*
X602714460Y-147809545D01*
X602714460Y-147809545D02*
X602809699Y-147714307D01*
X602809699Y-147714307D02*
X602857318Y-147571450D01*
X602857318Y-147571450D02*
X602857318Y-147333355D01*
X601952556Y-148285736D02*
X601904937Y-148333355D01*
X601904937Y-148333355D02*
X601857318Y-148428593D01*
X601857318Y-148428593D02*
X601857318Y-148666688D01*
X601857318Y-148666688D02*
X601904937Y-148761926D01*
X601904937Y-148761926D02*
X601952556Y-148809545D01*
X601952556Y-148809545D02*
X602047794Y-148857164D01*
X602047794Y-148857164D02*
X602143032Y-148857164D01*
X602143032Y-148857164D02*
X602285889Y-148809545D01*
X602285889Y-148809545D02*
X602857318Y-148238117D01*
X602857318Y-148238117D02*
X602857318Y-148857164D01*
X602857318Y-149333355D02*
X602857318Y-149523831D01*
X602857318Y-149523831D02*
X602809699Y-149619069D01*
X602809699Y-149619069D02*
X602762079Y-149666688D01*
X602762079Y-149666688D02*
X602619222Y-149761926D01*
X602619222Y-149761926D02*
X602428746Y-149809545D01*
X602428746Y-149809545D02*
X602047794Y-149809545D01*
X602047794Y-149809545D02*
X601952556Y-149761926D01*
X601952556Y-149761926D02*
X601904937Y-149714307D01*
X601904937Y-149714307D02*
X601857318Y-149619069D01*
X601857318Y-149619069D02*
X601857318Y-149428593D01*
X601857318Y-149428593D02*
X601904937Y-149333355D01*
X601904937Y-149333355D02*
X601952556Y-149285736D01*
X601952556Y-149285736D02*
X602047794Y-149238117D01*
X602047794Y-149238117D02*
X602285889Y-149238117D01*
X602285889Y-149238117D02*
X602381127Y-149285736D01*
X602381127Y-149285736D02*
X602428746Y-149333355D01*
X602428746Y-149333355D02*
X602476365Y-149428593D01*
X602476365Y-149428593D02*
X602476365Y-149619069D01*
X602476365Y-149619069D02*
X602428746Y-149714307D01*
X602428746Y-149714307D02*
X602381127Y-149761926D01*
X602381127Y-149761926D02*
X602285889Y-149809545D01*
X569519818Y-166383355D02*
X568519818Y-166383355D01*
X568519818Y-166383355D02*
X568519818Y-166621450D01*
X568519818Y-166621450D02*
X568567437Y-166764307D01*
X568567437Y-166764307D02*
X568662675Y-166859545D01*
X568662675Y-166859545D02*
X568757913Y-166907164D01*
X568757913Y-166907164D02*
X568948389Y-166954783D01*
X568948389Y-166954783D02*
X569091246Y-166954783D01*
X569091246Y-166954783D02*
X569281722Y-166907164D01*
X569281722Y-166907164D02*
X569376960Y-166859545D01*
X569376960Y-166859545D02*
X569472199Y-166764307D01*
X569472199Y-166764307D02*
X569519818Y-166621450D01*
X569519818Y-166621450D02*
X569519818Y-166383355D01*
X568853151Y-167811926D02*
X569519818Y-167811926D01*
X568472199Y-167573831D02*
X569186484Y-167335736D01*
X569186484Y-167335736D02*
X569186484Y-167954783D01*
X568853151Y-168764307D02*
X569519818Y-168764307D01*
X568472199Y-168526212D02*
X569186484Y-168288117D01*
X569186484Y-168288117D02*
X569186484Y-168907164D01*
X531419818Y-166383355D02*
X530419818Y-166383355D01*
X530419818Y-166383355D02*
X530419818Y-166621450D01*
X530419818Y-166621450D02*
X530467437Y-166764307D01*
X530467437Y-166764307D02*
X530562675Y-166859545D01*
X530562675Y-166859545D02*
X530657913Y-166907164D01*
X530657913Y-166907164D02*
X530848389Y-166954783D01*
X530848389Y-166954783D02*
X530991246Y-166954783D01*
X530991246Y-166954783D02*
X531181722Y-166907164D01*
X531181722Y-166907164D02*
X531276960Y-166859545D01*
X531276960Y-166859545D02*
X531372199Y-166764307D01*
X531372199Y-166764307D02*
X531419818Y-166621450D01*
X531419818Y-166621450D02*
X531419818Y-166383355D01*
X530753151Y-167811926D02*
X531419818Y-167811926D01*
X530372199Y-167573831D02*
X531086484Y-167335736D01*
X531086484Y-167335736D02*
X531086484Y-167954783D01*
X530515056Y-168288117D02*
X530467437Y-168335736D01*
X530467437Y-168335736D02*
X530419818Y-168430974D01*
X530419818Y-168430974D02*
X530419818Y-168669069D01*
X530419818Y-168669069D02*
X530467437Y-168764307D01*
X530467437Y-168764307D02*
X530515056Y-168811926D01*
X530515056Y-168811926D02*
X530610294Y-168859545D01*
X530610294Y-168859545D02*
X530705532Y-168859545D01*
X530705532Y-168859545D02*
X530848389Y-168811926D01*
X530848389Y-168811926D02*
X531419818Y-168240498D01*
X531419818Y-168240498D02*
X531419818Y-168859545D01*
X512369818Y-166383355D02*
X511369818Y-166383355D01*
X511369818Y-166383355D02*
X511369818Y-166621450D01*
X511369818Y-166621450D02*
X511417437Y-166764307D01*
X511417437Y-166764307D02*
X511512675Y-166859545D01*
X511512675Y-166859545D02*
X511607913Y-166907164D01*
X511607913Y-166907164D02*
X511798389Y-166954783D01*
X511798389Y-166954783D02*
X511941246Y-166954783D01*
X511941246Y-166954783D02*
X512131722Y-166907164D01*
X512131722Y-166907164D02*
X512226960Y-166859545D01*
X512226960Y-166859545D02*
X512322199Y-166764307D01*
X512322199Y-166764307D02*
X512369818Y-166621450D01*
X512369818Y-166621450D02*
X512369818Y-166383355D01*
X511703151Y-167811926D02*
X512369818Y-167811926D01*
X511322199Y-167573831D02*
X512036484Y-167335736D01*
X512036484Y-167335736D02*
X512036484Y-167954783D01*
X512369818Y-168859545D02*
X512369818Y-168288117D01*
X512369818Y-168573831D02*
X511369818Y-168573831D01*
X511369818Y-168573831D02*
X511512675Y-168478593D01*
X511512675Y-168478593D02*
X511607913Y-168383355D01*
X511607913Y-168383355D02*
X511655532Y-168288117D01*
X381844819Y-165923214D02*
X380844819Y-165923214D01*
X380844819Y-165923214D02*
X380844819Y-166161309D01*
X380844819Y-166161309D02*
X380892438Y-166304166D01*
X380892438Y-166304166D02*
X380987676Y-166399404D01*
X380987676Y-166399404D02*
X381082914Y-166447023D01*
X381082914Y-166447023D02*
X381273390Y-166494642D01*
X381273390Y-166494642D02*
X381416247Y-166494642D01*
X381416247Y-166494642D02*
X381606723Y-166447023D01*
X381606723Y-166447023D02*
X381701961Y-166399404D01*
X381701961Y-166399404D02*
X381797200Y-166304166D01*
X381797200Y-166304166D02*
X381844819Y-166161309D01*
X381844819Y-166161309D02*
X381844819Y-165923214D01*
X380844819Y-166827976D02*
X380844819Y-167447023D01*
X380844819Y-167447023D02*
X381225771Y-167113690D01*
X381225771Y-167113690D02*
X381225771Y-167256547D01*
X381225771Y-167256547D02*
X381273390Y-167351785D01*
X381273390Y-167351785D02*
X381321009Y-167399404D01*
X381321009Y-167399404D02*
X381416247Y-167447023D01*
X381416247Y-167447023D02*
X381654342Y-167447023D01*
X381654342Y-167447023D02*
X381749580Y-167399404D01*
X381749580Y-167399404D02*
X381797200Y-167351785D01*
X381797200Y-167351785D02*
X381844819Y-167256547D01*
X381844819Y-167256547D02*
X381844819Y-166970833D01*
X381844819Y-166970833D02*
X381797200Y-166875595D01*
X381797200Y-166875595D02*
X381749580Y-166827976D01*
X380844819Y-168351785D02*
X380844819Y-167875595D01*
X380844819Y-167875595D02*
X381321009Y-167827976D01*
X381321009Y-167827976D02*
X381273390Y-167875595D01*
X381273390Y-167875595D02*
X381225771Y-167970833D01*
X381225771Y-167970833D02*
X381225771Y-168208928D01*
X381225771Y-168208928D02*
X381273390Y-168304166D01*
X381273390Y-168304166D02*
X381321009Y-168351785D01*
X381321009Y-168351785D02*
X381416247Y-168399404D01*
X381416247Y-168399404D02*
X381654342Y-168399404D01*
X381654342Y-168399404D02*
X381749580Y-168351785D01*
X381749580Y-168351785D02*
X381797200Y-168304166D01*
X381797200Y-168304166D02*
X381844819Y-168208928D01*
X381844819Y-168208928D02*
X381844819Y-167970833D01*
X381844819Y-167970833D02*
X381797200Y-167875595D01*
X381797200Y-167875595D02*
X381749580Y-167827976D01*
X717157318Y-147333355D02*
X716157318Y-147333355D01*
X716157318Y-147333355D02*
X716157318Y-147571450D01*
X716157318Y-147571450D02*
X716204937Y-147714307D01*
X716204937Y-147714307D02*
X716300175Y-147809545D01*
X716300175Y-147809545D02*
X716395413Y-147857164D01*
X716395413Y-147857164D02*
X716585889Y-147904783D01*
X716585889Y-147904783D02*
X716728746Y-147904783D01*
X716728746Y-147904783D02*
X716919222Y-147857164D01*
X716919222Y-147857164D02*
X717014460Y-147809545D01*
X717014460Y-147809545D02*
X717109699Y-147714307D01*
X717109699Y-147714307D02*
X717157318Y-147571450D01*
X717157318Y-147571450D02*
X717157318Y-147333355D01*
X716157318Y-148238117D02*
X716157318Y-148857164D01*
X716157318Y-148857164D02*
X716538270Y-148523831D01*
X716538270Y-148523831D02*
X716538270Y-148666688D01*
X716538270Y-148666688D02*
X716585889Y-148761926D01*
X716585889Y-148761926D02*
X716633508Y-148809545D01*
X716633508Y-148809545D02*
X716728746Y-148857164D01*
X716728746Y-148857164D02*
X716966841Y-148857164D01*
X716966841Y-148857164D02*
X717062079Y-148809545D01*
X717062079Y-148809545D02*
X717109699Y-148761926D01*
X717109699Y-148761926D02*
X717157318Y-148666688D01*
X717157318Y-148666688D02*
X717157318Y-148380974D01*
X717157318Y-148380974D02*
X717109699Y-148285736D01*
X717109699Y-148285736D02*
X717062079Y-148238117D01*
X716490651Y-149714307D02*
X717157318Y-149714307D01*
X716109699Y-149476212D02*
X716823984Y-149238117D01*
X716823984Y-149238117D02*
X716823984Y-149857164D01*
X679057318Y-147333355D02*
X678057318Y-147333355D01*
X678057318Y-147333355D02*
X678057318Y-147571450D01*
X678057318Y-147571450D02*
X678104937Y-147714307D01*
X678104937Y-147714307D02*
X678200175Y-147809545D01*
X678200175Y-147809545D02*
X678295413Y-147857164D01*
X678295413Y-147857164D02*
X678485889Y-147904783D01*
X678485889Y-147904783D02*
X678628746Y-147904783D01*
X678628746Y-147904783D02*
X678819222Y-147857164D01*
X678819222Y-147857164D02*
X678914460Y-147809545D01*
X678914460Y-147809545D02*
X679009699Y-147714307D01*
X679009699Y-147714307D02*
X679057318Y-147571450D01*
X679057318Y-147571450D02*
X679057318Y-147333355D01*
X678057318Y-148238117D02*
X678057318Y-148857164D01*
X678057318Y-148857164D02*
X678438270Y-148523831D01*
X678438270Y-148523831D02*
X678438270Y-148666688D01*
X678438270Y-148666688D02*
X678485889Y-148761926D01*
X678485889Y-148761926D02*
X678533508Y-148809545D01*
X678533508Y-148809545D02*
X678628746Y-148857164D01*
X678628746Y-148857164D02*
X678866841Y-148857164D01*
X678866841Y-148857164D02*
X678962079Y-148809545D01*
X678962079Y-148809545D02*
X679009699Y-148761926D01*
X679009699Y-148761926D02*
X679057318Y-148666688D01*
X679057318Y-148666688D02*
X679057318Y-148380974D01*
X679057318Y-148380974D02*
X679009699Y-148285736D01*
X679009699Y-148285736D02*
X678962079Y-148238117D01*
X678152556Y-149238117D02*
X678104937Y-149285736D01*
X678104937Y-149285736D02*
X678057318Y-149380974D01*
X678057318Y-149380974D02*
X678057318Y-149619069D01*
X678057318Y-149619069D02*
X678104937Y-149714307D01*
X678104937Y-149714307D02*
X678152556Y-149761926D01*
X678152556Y-149761926D02*
X678247794Y-149809545D01*
X678247794Y-149809545D02*
X678343032Y-149809545D01*
X678343032Y-149809545D02*
X678485889Y-149761926D01*
X678485889Y-149761926D02*
X679057318Y-149190498D01*
X679057318Y-149190498D02*
X679057318Y-149809545D01*
X645720318Y-147333355D02*
X644720318Y-147333355D01*
X644720318Y-147333355D02*
X644720318Y-147571450D01*
X644720318Y-147571450D02*
X644767937Y-147714307D01*
X644767937Y-147714307D02*
X644863175Y-147809545D01*
X644863175Y-147809545D02*
X644958413Y-147857164D01*
X644958413Y-147857164D02*
X645148889Y-147904783D01*
X645148889Y-147904783D02*
X645291746Y-147904783D01*
X645291746Y-147904783D02*
X645482222Y-147857164D01*
X645482222Y-147857164D02*
X645577460Y-147809545D01*
X645577460Y-147809545D02*
X645672699Y-147714307D01*
X645672699Y-147714307D02*
X645720318Y-147571450D01*
X645720318Y-147571450D02*
X645720318Y-147333355D01*
X644720318Y-148238117D02*
X644720318Y-148857164D01*
X644720318Y-148857164D02*
X645101270Y-148523831D01*
X645101270Y-148523831D02*
X645101270Y-148666688D01*
X645101270Y-148666688D02*
X645148889Y-148761926D01*
X645148889Y-148761926D02*
X645196508Y-148809545D01*
X645196508Y-148809545D02*
X645291746Y-148857164D01*
X645291746Y-148857164D02*
X645529841Y-148857164D01*
X645529841Y-148857164D02*
X645625079Y-148809545D01*
X645625079Y-148809545D02*
X645672699Y-148761926D01*
X645672699Y-148761926D02*
X645720318Y-148666688D01*
X645720318Y-148666688D02*
X645720318Y-148380974D01*
X645720318Y-148380974D02*
X645672699Y-148285736D01*
X645672699Y-148285736D02*
X645625079Y-148238117D01*
X645720318Y-149809545D02*
X645720318Y-149238117D01*
X645720318Y-149523831D02*
X644720318Y-149523831D01*
X644720318Y-149523831D02*
X644863175Y-149428593D01*
X644863175Y-149428593D02*
X644958413Y-149333355D01*
X644958413Y-149333355D02*
X645006032Y-149238117D01*
X621907318Y-147333355D02*
X620907318Y-147333355D01*
X620907318Y-147333355D02*
X620907318Y-147571450D01*
X620907318Y-147571450D02*
X620954937Y-147714307D01*
X620954937Y-147714307D02*
X621050175Y-147809545D01*
X621050175Y-147809545D02*
X621145413Y-147857164D01*
X621145413Y-147857164D02*
X621335889Y-147904783D01*
X621335889Y-147904783D02*
X621478746Y-147904783D01*
X621478746Y-147904783D02*
X621669222Y-147857164D01*
X621669222Y-147857164D02*
X621764460Y-147809545D01*
X621764460Y-147809545D02*
X621859699Y-147714307D01*
X621859699Y-147714307D02*
X621907318Y-147571450D01*
X621907318Y-147571450D02*
X621907318Y-147333355D01*
X620907318Y-148238117D02*
X620907318Y-148857164D01*
X620907318Y-148857164D02*
X621288270Y-148523831D01*
X621288270Y-148523831D02*
X621288270Y-148666688D01*
X621288270Y-148666688D02*
X621335889Y-148761926D01*
X621335889Y-148761926D02*
X621383508Y-148809545D01*
X621383508Y-148809545D02*
X621478746Y-148857164D01*
X621478746Y-148857164D02*
X621716841Y-148857164D01*
X621716841Y-148857164D02*
X621812079Y-148809545D01*
X621812079Y-148809545D02*
X621859699Y-148761926D01*
X621859699Y-148761926D02*
X621907318Y-148666688D01*
X621907318Y-148666688D02*
X621907318Y-148380974D01*
X621907318Y-148380974D02*
X621859699Y-148285736D01*
X621859699Y-148285736D02*
X621812079Y-148238117D01*
X620907318Y-149476212D02*
X620907318Y-149571450D01*
X620907318Y-149571450D02*
X620954937Y-149666688D01*
X620954937Y-149666688D02*
X621002556Y-149714307D01*
X621002556Y-149714307D02*
X621097794Y-149761926D01*
X621097794Y-149761926D02*
X621288270Y-149809545D01*
X621288270Y-149809545D02*
X621526365Y-149809545D01*
X621526365Y-149809545D02*
X621716841Y-149761926D01*
X621716841Y-149761926D02*
X621812079Y-149714307D01*
X621812079Y-149714307D02*
X621859699Y-149666688D01*
X621859699Y-149666688D02*
X621907318Y-149571450D01*
X621907318Y-149571450D02*
X621907318Y-149476212D01*
X621907318Y-149476212D02*
X621859699Y-149380974D01*
X621859699Y-149380974D02*
X621812079Y-149333355D01*
X621812079Y-149333355D02*
X621716841Y-149285736D01*
X621716841Y-149285736D02*
X621526365Y-149238117D01*
X621526365Y-149238117D02*
X621288270Y-149238117D01*
X621288270Y-149238117D02*
X621097794Y-149285736D01*
X621097794Y-149285736D02*
X621002556Y-149333355D01*
X621002556Y-149333355D02*
X620954937Y-149380974D01*
X620954937Y-149380974D02*
X620907318Y-149476212D01*
X545707318Y-147333355D02*
X544707318Y-147333355D01*
X544707318Y-147333355D02*
X544707318Y-147571450D01*
X544707318Y-147571450D02*
X544754937Y-147714307D01*
X544754937Y-147714307D02*
X544850175Y-147809545D01*
X544850175Y-147809545D02*
X544945413Y-147857164D01*
X544945413Y-147857164D02*
X545135889Y-147904783D01*
X545135889Y-147904783D02*
X545278746Y-147904783D01*
X545278746Y-147904783D02*
X545469222Y-147857164D01*
X545469222Y-147857164D02*
X545564460Y-147809545D01*
X545564460Y-147809545D02*
X545659699Y-147714307D01*
X545659699Y-147714307D02*
X545707318Y-147571450D01*
X545707318Y-147571450D02*
X545707318Y-147333355D01*
X544802556Y-148285736D02*
X544754937Y-148333355D01*
X544754937Y-148333355D02*
X544707318Y-148428593D01*
X544707318Y-148428593D02*
X544707318Y-148666688D01*
X544707318Y-148666688D02*
X544754937Y-148761926D01*
X544754937Y-148761926D02*
X544802556Y-148809545D01*
X544802556Y-148809545D02*
X544897794Y-148857164D01*
X544897794Y-148857164D02*
X544993032Y-148857164D01*
X544993032Y-148857164D02*
X545135889Y-148809545D01*
X545135889Y-148809545D02*
X545707318Y-148238117D01*
X545707318Y-148238117D02*
X545707318Y-148857164D01*
X544707318Y-149714307D02*
X544707318Y-149523831D01*
X544707318Y-149523831D02*
X544754937Y-149428593D01*
X544754937Y-149428593D02*
X544802556Y-149380974D01*
X544802556Y-149380974D02*
X544945413Y-149285736D01*
X544945413Y-149285736D02*
X545135889Y-149238117D01*
X545135889Y-149238117D02*
X545516841Y-149238117D01*
X545516841Y-149238117D02*
X545612079Y-149285736D01*
X545612079Y-149285736D02*
X545659699Y-149333355D01*
X545659699Y-149333355D02*
X545707318Y-149428593D01*
X545707318Y-149428593D02*
X545707318Y-149619069D01*
X545707318Y-149619069D02*
X545659699Y-149714307D01*
X545659699Y-149714307D02*
X545612079Y-149761926D01*
X545612079Y-149761926D02*
X545516841Y-149809545D01*
X545516841Y-149809545D02*
X545278746Y-149809545D01*
X545278746Y-149809545D02*
X545183508Y-149761926D01*
X545183508Y-149761926D02*
X545135889Y-149714307D01*
X545135889Y-149714307D02*
X545088270Y-149619069D01*
X545088270Y-149619069D02*
X545088270Y-149428593D01*
X545088270Y-149428593D02*
X545135889Y-149333355D01*
X545135889Y-149333355D02*
X545183508Y-149285736D01*
X545183508Y-149285736D02*
X545278746Y-149238117D01*
X583807318Y-147333355D02*
X582807318Y-147333355D01*
X582807318Y-147333355D02*
X582807318Y-147571450D01*
X582807318Y-147571450D02*
X582854937Y-147714307D01*
X582854937Y-147714307D02*
X582950175Y-147809545D01*
X582950175Y-147809545D02*
X583045413Y-147857164D01*
X583045413Y-147857164D02*
X583235889Y-147904783D01*
X583235889Y-147904783D02*
X583378746Y-147904783D01*
X583378746Y-147904783D02*
X583569222Y-147857164D01*
X583569222Y-147857164D02*
X583664460Y-147809545D01*
X583664460Y-147809545D02*
X583759699Y-147714307D01*
X583759699Y-147714307D02*
X583807318Y-147571450D01*
X583807318Y-147571450D02*
X583807318Y-147333355D01*
X582902556Y-148285736D02*
X582854937Y-148333355D01*
X582854937Y-148333355D02*
X582807318Y-148428593D01*
X582807318Y-148428593D02*
X582807318Y-148666688D01*
X582807318Y-148666688D02*
X582854937Y-148761926D01*
X582854937Y-148761926D02*
X582902556Y-148809545D01*
X582902556Y-148809545D02*
X582997794Y-148857164D01*
X582997794Y-148857164D02*
X583093032Y-148857164D01*
X583093032Y-148857164D02*
X583235889Y-148809545D01*
X583235889Y-148809545D02*
X583807318Y-148238117D01*
X583807318Y-148238117D02*
X583807318Y-148857164D01*
X583235889Y-149428593D02*
X583188270Y-149333355D01*
X583188270Y-149333355D02*
X583140651Y-149285736D01*
X583140651Y-149285736D02*
X583045413Y-149238117D01*
X583045413Y-149238117D02*
X582997794Y-149238117D01*
X582997794Y-149238117D02*
X582902556Y-149285736D01*
X582902556Y-149285736D02*
X582854937Y-149333355D01*
X582854937Y-149333355D02*
X582807318Y-149428593D01*
X582807318Y-149428593D02*
X582807318Y-149619069D01*
X582807318Y-149619069D02*
X582854937Y-149714307D01*
X582854937Y-149714307D02*
X582902556Y-149761926D01*
X582902556Y-149761926D02*
X582997794Y-149809545D01*
X582997794Y-149809545D02*
X583045413Y-149809545D01*
X583045413Y-149809545D02*
X583140651Y-149761926D01*
X583140651Y-149761926D02*
X583188270Y-149714307D01*
X583188270Y-149714307D02*
X583235889Y-149619069D01*
X583235889Y-149619069D02*
X583235889Y-149428593D01*
X583235889Y-149428593D02*
X583283508Y-149333355D01*
X583283508Y-149333355D02*
X583331127Y-149285736D01*
X583331127Y-149285736D02*
X583426365Y-149238117D01*
X583426365Y-149238117D02*
X583616841Y-149238117D01*
X583616841Y-149238117D02*
X583712079Y-149285736D01*
X583712079Y-149285736D02*
X583759699Y-149333355D01*
X583759699Y-149333355D02*
X583807318Y-149428593D01*
X583807318Y-149428593D02*
X583807318Y-149619069D01*
X583807318Y-149619069D02*
X583759699Y-149714307D01*
X583759699Y-149714307D02*
X583712079Y-149761926D01*
X583712079Y-149761926D02*
X583616841Y-149809545D01*
X583616841Y-149809545D02*
X583426365Y-149809545D01*
X583426365Y-149809545D02*
X583331127Y-149761926D01*
X583331127Y-149761926D02*
X583283508Y-149714307D01*
X583283508Y-149714307D02*
X583235889Y-149619069D01*
X455219818Y-166383355D02*
X454219818Y-166383355D01*
X454219818Y-166383355D02*
X454219818Y-166621450D01*
X454219818Y-166621450D02*
X454267437Y-166764307D01*
X454267437Y-166764307D02*
X454362675Y-166859545D01*
X454362675Y-166859545D02*
X454457913Y-166907164D01*
X454457913Y-166907164D02*
X454648389Y-166954783D01*
X454648389Y-166954783D02*
X454791246Y-166954783D01*
X454791246Y-166954783D02*
X454981722Y-166907164D01*
X454981722Y-166907164D02*
X455076960Y-166859545D01*
X455076960Y-166859545D02*
X455172199Y-166764307D01*
X455172199Y-166764307D02*
X455219818Y-166621450D01*
X455219818Y-166621450D02*
X455219818Y-166383355D01*
X454219818Y-167288117D02*
X454219818Y-167907164D01*
X454219818Y-167907164D02*
X454600770Y-167573831D01*
X454600770Y-167573831D02*
X454600770Y-167716688D01*
X454600770Y-167716688D02*
X454648389Y-167811926D01*
X454648389Y-167811926D02*
X454696008Y-167859545D01*
X454696008Y-167859545D02*
X454791246Y-167907164D01*
X454791246Y-167907164D02*
X455029341Y-167907164D01*
X455029341Y-167907164D02*
X455124579Y-167859545D01*
X455124579Y-167859545D02*
X455172199Y-167811926D01*
X455172199Y-167811926D02*
X455219818Y-167716688D01*
X455219818Y-167716688D02*
X455219818Y-167430974D01*
X455219818Y-167430974D02*
X455172199Y-167335736D01*
X455172199Y-167335736D02*
X455124579Y-167288117D01*
X454648389Y-168478593D02*
X454600770Y-168383355D01*
X454600770Y-168383355D02*
X454553151Y-168335736D01*
X454553151Y-168335736D02*
X454457913Y-168288117D01*
X454457913Y-168288117D02*
X454410294Y-168288117D01*
X454410294Y-168288117D02*
X454315056Y-168335736D01*
X454315056Y-168335736D02*
X454267437Y-168383355D01*
X454267437Y-168383355D02*
X454219818Y-168478593D01*
X454219818Y-168478593D02*
X454219818Y-168669069D01*
X454219818Y-168669069D02*
X454267437Y-168764307D01*
X454267437Y-168764307D02*
X454315056Y-168811926D01*
X454315056Y-168811926D02*
X454410294Y-168859545D01*
X454410294Y-168859545D02*
X454457913Y-168859545D01*
X454457913Y-168859545D02*
X454553151Y-168811926D01*
X454553151Y-168811926D02*
X454600770Y-168764307D01*
X454600770Y-168764307D02*
X454648389Y-168669069D01*
X454648389Y-168669069D02*
X454648389Y-168478593D01*
X454648389Y-168478593D02*
X454696008Y-168383355D01*
X454696008Y-168383355D02*
X454743627Y-168335736D01*
X454743627Y-168335736D02*
X454838865Y-168288117D01*
X454838865Y-168288117D02*
X455029341Y-168288117D01*
X455029341Y-168288117D02*
X455124579Y-168335736D01*
X455124579Y-168335736D02*
X455172199Y-168383355D01*
X455172199Y-168383355D02*
X455219818Y-168478593D01*
X455219818Y-168478593D02*
X455219818Y-168669069D01*
X455219818Y-168669069D02*
X455172199Y-168764307D01*
X455172199Y-168764307D02*
X455124579Y-168811926D01*
X455124579Y-168811926D02*
X455029341Y-168859545D01*
X455029341Y-168859545D02*
X454838865Y-168859545D01*
X454838865Y-168859545D02*
X454743627Y-168811926D01*
X454743627Y-168811926D02*
X454696008Y-168764307D01*
X454696008Y-168764307D02*
X454648389Y-168669069D01*
X550469818Y-166383355D02*
X549469818Y-166383355D01*
X549469818Y-166383355D02*
X549469818Y-166621450D01*
X549469818Y-166621450D02*
X549517437Y-166764307D01*
X549517437Y-166764307D02*
X549612675Y-166859545D01*
X549612675Y-166859545D02*
X549707913Y-166907164D01*
X549707913Y-166907164D02*
X549898389Y-166954783D01*
X549898389Y-166954783D02*
X550041246Y-166954783D01*
X550041246Y-166954783D02*
X550231722Y-166907164D01*
X550231722Y-166907164D02*
X550326960Y-166859545D01*
X550326960Y-166859545D02*
X550422199Y-166764307D01*
X550422199Y-166764307D02*
X550469818Y-166621450D01*
X550469818Y-166621450D02*
X550469818Y-166383355D01*
X549803151Y-167811926D02*
X550469818Y-167811926D01*
X549422199Y-167573831D02*
X550136484Y-167335736D01*
X550136484Y-167335736D02*
X550136484Y-167954783D01*
X549469818Y-168240498D02*
X549469818Y-168859545D01*
X549469818Y-168859545D02*
X549850770Y-168526212D01*
X549850770Y-168526212D02*
X549850770Y-168669069D01*
X549850770Y-168669069D02*
X549898389Y-168764307D01*
X549898389Y-168764307D02*
X549946008Y-168811926D01*
X549946008Y-168811926D02*
X550041246Y-168859545D01*
X550041246Y-168859545D02*
X550279341Y-168859545D01*
X550279341Y-168859545D02*
X550374579Y-168811926D01*
X550374579Y-168811926D02*
X550422199Y-168764307D01*
X550422199Y-168764307D02*
X550469818Y-168669069D01*
X550469818Y-168669069D02*
X550469818Y-168383355D01*
X550469818Y-168383355D02*
X550422199Y-168288117D01*
X550422199Y-168288117D02*
X550374579Y-168240498D01*
X493319818Y-166383355D02*
X492319818Y-166383355D01*
X492319818Y-166383355D02*
X492319818Y-166621450D01*
X492319818Y-166621450D02*
X492367437Y-166764307D01*
X492367437Y-166764307D02*
X492462675Y-166859545D01*
X492462675Y-166859545D02*
X492557913Y-166907164D01*
X492557913Y-166907164D02*
X492748389Y-166954783D01*
X492748389Y-166954783D02*
X492891246Y-166954783D01*
X492891246Y-166954783D02*
X493081722Y-166907164D01*
X493081722Y-166907164D02*
X493176960Y-166859545D01*
X493176960Y-166859545D02*
X493272199Y-166764307D01*
X493272199Y-166764307D02*
X493319818Y-166621450D01*
X493319818Y-166621450D02*
X493319818Y-166383355D01*
X492653151Y-167811926D02*
X493319818Y-167811926D01*
X492272199Y-167573831D02*
X492986484Y-167335736D01*
X492986484Y-167335736D02*
X492986484Y-167954783D01*
X492319818Y-168526212D02*
X492319818Y-168621450D01*
X492319818Y-168621450D02*
X492367437Y-168716688D01*
X492367437Y-168716688D02*
X492415056Y-168764307D01*
X492415056Y-168764307D02*
X492510294Y-168811926D01*
X492510294Y-168811926D02*
X492700770Y-168859545D01*
X492700770Y-168859545D02*
X492938865Y-168859545D01*
X492938865Y-168859545D02*
X493129341Y-168811926D01*
X493129341Y-168811926D02*
X493224579Y-168764307D01*
X493224579Y-168764307D02*
X493272199Y-168716688D01*
X493272199Y-168716688D02*
X493319818Y-168621450D01*
X493319818Y-168621450D02*
X493319818Y-168526212D01*
X493319818Y-168526212D02*
X493272199Y-168430974D01*
X493272199Y-168430974D02*
X493224579Y-168383355D01*
X493224579Y-168383355D02*
X493129341Y-168335736D01*
X493129341Y-168335736D02*
X492938865Y-168288117D01*
X492938865Y-168288117D02*
X492700770Y-168288117D01*
X492700770Y-168288117D02*
X492510294Y-168335736D01*
X492510294Y-168335736D02*
X492415056Y-168383355D01*
X492415056Y-168383355D02*
X492367437Y-168430974D01*
X492367437Y-168430974D02*
X492319818Y-168526212D01*
X588569818Y-166383355D02*
X587569818Y-166383355D01*
X587569818Y-166383355D02*
X587569818Y-166621450D01*
X587569818Y-166621450D02*
X587617437Y-166764307D01*
X587617437Y-166764307D02*
X587712675Y-166859545D01*
X587712675Y-166859545D02*
X587807913Y-166907164D01*
X587807913Y-166907164D02*
X587998389Y-166954783D01*
X587998389Y-166954783D02*
X588141246Y-166954783D01*
X588141246Y-166954783D02*
X588331722Y-166907164D01*
X588331722Y-166907164D02*
X588426960Y-166859545D01*
X588426960Y-166859545D02*
X588522199Y-166764307D01*
X588522199Y-166764307D02*
X588569818Y-166621450D01*
X588569818Y-166621450D02*
X588569818Y-166383355D01*
X587903151Y-167811926D02*
X588569818Y-167811926D01*
X587522199Y-167573831D02*
X588236484Y-167335736D01*
X588236484Y-167335736D02*
X588236484Y-167954783D01*
X587569818Y-168811926D02*
X587569818Y-168335736D01*
X587569818Y-168335736D02*
X588046008Y-168288117D01*
X588046008Y-168288117D02*
X587998389Y-168335736D01*
X587998389Y-168335736D02*
X587950770Y-168430974D01*
X587950770Y-168430974D02*
X587950770Y-168669069D01*
X587950770Y-168669069D02*
X587998389Y-168764307D01*
X587998389Y-168764307D02*
X588046008Y-168811926D01*
X588046008Y-168811926D02*
X588141246Y-168859545D01*
X588141246Y-168859545D02*
X588379341Y-168859545D01*
X588379341Y-168859545D02*
X588474579Y-168811926D01*
X588474579Y-168811926D02*
X588522199Y-168764307D01*
X588522199Y-168764307D02*
X588569818Y-168669069D01*
X588569818Y-168669069D02*
X588569818Y-168430974D01*
X588569818Y-168430974D02*
X588522199Y-168335736D01*
X588522199Y-168335736D02*
X588474579Y-168288117D01*
X436169818Y-166383355D02*
X435169818Y-166383355D01*
X435169818Y-166383355D02*
X435169818Y-166621450D01*
X435169818Y-166621450D02*
X435217437Y-166764307D01*
X435217437Y-166764307D02*
X435312675Y-166859545D01*
X435312675Y-166859545D02*
X435407913Y-166907164D01*
X435407913Y-166907164D02*
X435598389Y-166954783D01*
X435598389Y-166954783D02*
X435741246Y-166954783D01*
X435741246Y-166954783D02*
X435931722Y-166907164D01*
X435931722Y-166907164D02*
X436026960Y-166859545D01*
X436026960Y-166859545D02*
X436122199Y-166764307D01*
X436122199Y-166764307D02*
X436169818Y-166621450D01*
X436169818Y-166621450D02*
X436169818Y-166383355D01*
X435169818Y-167288117D02*
X435169818Y-167907164D01*
X435169818Y-167907164D02*
X435550770Y-167573831D01*
X435550770Y-167573831D02*
X435550770Y-167716688D01*
X435550770Y-167716688D02*
X435598389Y-167811926D01*
X435598389Y-167811926D02*
X435646008Y-167859545D01*
X435646008Y-167859545D02*
X435741246Y-167907164D01*
X435741246Y-167907164D02*
X435979341Y-167907164D01*
X435979341Y-167907164D02*
X436074579Y-167859545D01*
X436074579Y-167859545D02*
X436122199Y-167811926D01*
X436122199Y-167811926D02*
X436169818Y-167716688D01*
X436169818Y-167716688D02*
X436169818Y-167430974D01*
X436169818Y-167430974D02*
X436122199Y-167335736D01*
X436122199Y-167335736D02*
X436074579Y-167288117D01*
X435169818Y-168240498D02*
X435169818Y-168907164D01*
X435169818Y-168907164D02*
X436169818Y-168478593D01*
X564757318Y-147333355D02*
X563757318Y-147333355D01*
X563757318Y-147333355D02*
X563757318Y-147571450D01*
X563757318Y-147571450D02*
X563804937Y-147714307D01*
X563804937Y-147714307D02*
X563900175Y-147809545D01*
X563900175Y-147809545D02*
X563995413Y-147857164D01*
X563995413Y-147857164D02*
X564185889Y-147904783D01*
X564185889Y-147904783D02*
X564328746Y-147904783D01*
X564328746Y-147904783D02*
X564519222Y-147857164D01*
X564519222Y-147857164D02*
X564614460Y-147809545D01*
X564614460Y-147809545D02*
X564709699Y-147714307D01*
X564709699Y-147714307D02*
X564757318Y-147571450D01*
X564757318Y-147571450D02*
X564757318Y-147333355D01*
X563852556Y-148285736D02*
X563804937Y-148333355D01*
X563804937Y-148333355D02*
X563757318Y-148428593D01*
X563757318Y-148428593D02*
X563757318Y-148666688D01*
X563757318Y-148666688D02*
X563804937Y-148761926D01*
X563804937Y-148761926D02*
X563852556Y-148809545D01*
X563852556Y-148809545D02*
X563947794Y-148857164D01*
X563947794Y-148857164D02*
X564043032Y-148857164D01*
X564043032Y-148857164D02*
X564185889Y-148809545D01*
X564185889Y-148809545D02*
X564757318Y-148238117D01*
X564757318Y-148238117D02*
X564757318Y-148857164D01*
X563757318Y-149190498D02*
X563757318Y-149857164D01*
X563757318Y-149857164D02*
X564757318Y-149428593D01*
X507607318Y-147333355D02*
X506607318Y-147333355D01*
X506607318Y-147333355D02*
X506607318Y-147571450D01*
X506607318Y-147571450D02*
X506654937Y-147714307D01*
X506654937Y-147714307D02*
X506750175Y-147809545D01*
X506750175Y-147809545D02*
X506845413Y-147857164D01*
X506845413Y-147857164D02*
X507035889Y-147904783D01*
X507035889Y-147904783D02*
X507178746Y-147904783D01*
X507178746Y-147904783D02*
X507369222Y-147857164D01*
X507369222Y-147857164D02*
X507464460Y-147809545D01*
X507464460Y-147809545D02*
X507559699Y-147714307D01*
X507559699Y-147714307D02*
X507607318Y-147571450D01*
X507607318Y-147571450D02*
X507607318Y-147333355D01*
X506702556Y-148285736D02*
X506654937Y-148333355D01*
X506654937Y-148333355D02*
X506607318Y-148428593D01*
X506607318Y-148428593D02*
X506607318Y-148666688D01*
X506607318Y-148666688D02*
X506654937Y-148761926D01*
X506654937Y-148761926D02*
X506702556Y-148809545D01*
X506702556Y-148809545D02*
X506797794Y-148857164D01*
X506797794Y-148857164D02*
X506893032Y-148857164D01*
X506893032Y-148857164D02*
X507035889Y-148809545D01*
X507035889Y-148809545D02*
X507607318Y-148238117D01*
X507607318Y-148238117D02*
X507607318Y-148857164D01*
X506940651Y-149714307D02*
X507607318Y-149714307D01*
X506559699Y-149476212D02*
X507273984Y-149238117D01*
X507273984Y-149238117D02*
X507273984Y-149857164D01*
X450457318Y-147333355D02*
X449457318Y-147333355D01*
X449457318Y-147333355D02*
X449457318Y-147571450D01*
X449457318Y-147571450D02*
X449504937Y-147714307D01*
X449504937Y-147714307D02*
X449600175Y-147809545D01*
X449600175Y-147809545D02*
X449695413Y-147857164D01*
X449695413Y-147857164D02*
X449885889Y-147904783D01*
X449885889Y-147904783D02*
X450028746Y-147904783D01*
X450028746Y-147904783D02*
X450219222Y-147857164D01*
X450219222Y-147857164D02*
X450314460Y-147809545D01*
X450314460Y-147809545D02*
X450409699Y-147714307D01*
X450409699Y-147714307D02*
X450457318Y-147571450D01*
X450457318Y-147571450D02*
X450457318Y-147333355D01*
X449552556Y-148285736D02*
X449504937Y-148333355D01*
X449504937Y-148333355D02*
X449457318Y-148428593D01*
X449457318Y-148428593D02*
X449457318Y-148666688D01*
X449457318Y-148666688D02*
X449504937Y-148761926D01*
X449504937Y-148761926D02*
X449552556Y-148809545D01*
X449552556Y-148809545D02*
X449647794Y-148857164D01*
X449647794Y-148857164D02*
X449743032Y-148857164D01*
X449743032Y-148857164D02*
X449885889Y-148809545D01*
X449885889Y-148809545D02*
X450457318Y-148238117D01*
X450457318Y-148238117D02*
X450457318Y-148857164D01*
X450457318Y-149809545D02*
X450457318Y-149238117D01*
X450457318Y-149523831D02*
X449457318Y-149523831D01*
X449457318Y-149523831D02*
X449600175Y-149428593D01*
X449600175Y-149428593D02*
X449695413Y-149333355D01*
X449695413Y-149333355D02*
X449743032Y-149238117D01*
X431407318Y-147333355D02*
X430407318Y-147333355D01*
X430407318Y-147333355D02*
X430407318Y-147571450D01*
X430407318Y-147571450D02*
X430454937Y-147714307D01*
X430454937Y-147714307D02*
X430550175Y-147809545D01*
X430550175Y-147809545D02*
X430645413Y-147857164D01*
X430645413Y-147857164D02*
X430835889Y-147904783D01*
X430835889Y-147904783D02*
X430978746Y-147904783D01*
X430978746Y-147904783D02*
X431169222Y-147857164D01*
X431169222Y-147857164D02*
X431264460Y-147809545D01*
X431264460Y-147809545D02*
X431359699Y-147714307D01*
X431359699Y-147714307D02*
X431407318Y-147571450D01*
X431407318Y-147571450D02*
X431407318Y-147333355D01*
X430502556Y-148285736D02*
X430454937Y-148333355D01*
X430454937Y-148333355D02*
X430407318Y-148428593D01*
X430407318Y-148428593D02*
X430407318Y-148666688D01*
X430407318Y-148666688D02*
X430454937Y-148761926D01*
X430454937Y-148761926D02*
X430502556Y-148809545D01*
X430502556Y-148809545D02*
X430597794Y-148857164D01*
X430597794Y-148857164D02*
X430693032Y-148857164D01*
X430693032Y-148857164D02*
X430835889Y-148809545D01*
X430835889Y-148809545D02*
X431407318Y-148238117D01*
X431407318Y-148238117D02*
X431407318Y-148857164D01*
X430407318Y-149476212D02*
X430407318Y-149571450D01*
X430407318Y-149571450D02*
X430454937Y-149666688D01*
X430454937Y-149666688D02*
X430502556Y-149714307D01*
X430502556Y-149714307D02*
X430597794Y-149761926D01*
X430597794Y-149761926D02*
X430788270Y-149809545D01*
X430788270Y-149809545D02*
X431026365Y-149809545D01*
X431026365Y-149809545D02*
X431216841Y-149761926D01*
X431216841Y-149761926D02*
X431312079Y-149714307D01*
X431312079Y-149714307D02*
X431359699Y-149666688D01*
X431359699Y-149666688D02*
X431407318Y-149571450D01*
X431407318Y-149571450D02*
X431407318Y-149476212D01*
X431407318Y-149476212D02*
X431359699Y-149380974D01*
X431359699Y-149380974D02*
X431312079Y-149333355D01*
X431312079Y-149333355D02*
X431216841Y-149285736D01*
X431216841Y-149285736D02*
X431026365Y-149238117D01*
X431026365Y-149238117D02*
X430788270Y-149238117D01*
X430788270Y-149238117D02*
X430597794Y-149285736D01*
X430597794Y-149285736D02*
X430502556Y-149333355D01*
X430502556Y-149333355D02*
X430454937Y-149380974D01*
X430454937Y-149380974D02*
X430407318Y-149476212D01*
X412357318Y-147333355D02*
X411357318Y-147333355D01*
X411357318Y-147333355D02*
X411357318Y-147571450D01*
X411357318Y-147571450D02*
X411404937Y-147714307D01*
X411404937Y-147714307D02*
X411500175Y-147809545D01*
X411500175Y-147809545D02*
X411595413Y-147857164D01*
X411595413Y-147857164D02*
X411785889Y-147904783D01*
X411785889Y-147904783D02*
X411928746Y-147904783D01*
X411928746Y-147904783D02*
X412119222Y-147857164D01*
X412119222Y-147857164D02*
X412214460Y-147809545D01*
X412214460Y-147809545D02*
X412309699Y-147714307D01*
X412309699Y-147714307D02*
X412357318Y-147571450D01*
X412357318Y-147571450D02*
X412357318Y-147333355D01*
X412357318Y-148857164D02*
X412357318Y-148285736D01*
X412357318Y-148571450D02*
X411357318Y-148571450D01*
X411357318Y-148571450D02*
X411500175Y-148476212D01*
X411500175Y-148476212D02*
X411595413Y-148380974D01*
X411595413Y-148380974D02*
X411643032Y-148285736D01*
X412357318Y-149333355D02*
X412357318Y-149523831D01*
X412357318Y-149523831D02*
X412309699Y-149619069D01*
X412309699Y-149619069D02*
X412262079Y-149666688D01*
X412262079Y-149666688D02*
X412119222Y-149761926D01*
X412119222Y-149761926D02*
X411928746Y-149809545D01*
X411928746Y-149809545D02*
X411547794Y-149809545D01*
X411547794Y-149809545D02*
X411452556Y-149761926D01*
X411452556Y-149761926D02*
X411404937Y-149714307D01*
X411404937Y-149714307D02*
X411357318Y-149619069D01*
X411357318Y-149619069D02*
X411357318Y-149428593D01*
X411357318Y-149428593D02*
X411404937Y-149333355D01*
X411404937Y-149333355D02*
X411452556Y-149285736D01*
X411452556Y-149285736D02*
X411547794Y-149238117D01*
X411547794Y-149238117D02*
X411785889Y-149238117D01*
X411785889Y-149238117D02*
X411881127Y-149285736D01*
X411881127Y-149285736D02*
X411928746Y-149333355D01*
X411928746Y-149333355D02*
X411976365Y-149428593D01*
X411976365Y-149428593D02*
X411976365Y-149619069D01*
X411976365Y-149619069D02*
X411928746Y-149714307D01*
X411928746Y-149714307D02*
X411881127Y-149761926D01*
X411881127Y-149761926D02*
X411785889Y-149809545D01*
X388545318Y-147333355D02*
X387545318Y-147333355D01*
X387545318Y-147333355D02*
X387545318Y-147571450D01*
X387545318Y-147571450D02*
X387592937Y-147714307D01*
X387592937Y-147714307D02*
X387688175Y-147809545D01*
X387688175Y-147809545D02*
X387783413Y-147857164D01*
X387783413Y-147857164D02*
X387973889Y-147904783D01*
X387973889Y-147904783D02*
X388116746Y-147904783D01*
X388116746Y-147904783D02*
X388307222Y-147857164D01*
X388307222Y-147857164D02*
X388402460Y-147809545D01*
X388402460Y-147809545D02*
X388497699Y-147714307D01*
X388497699Y-147714307D02*
X388545318Y-147571450D01*
X388545318Y-147571450D02*
X388545318Y-147333355D01*
X388545318Y-148857164D02*
X388545318Y-148285736D01*
X388545318Y-148571450D02*
X387545318Y-148571450D01*
X387545318Y-148571450D02*
X387688175Y-148476212D01*
X387688175Y-148476212D02*
X387783413Y-148380974D01*
X387783413Y-148380974D02*
X387831032Y-148285736D01*
X387973889Y-149428593D02*
X387926270Y-149333355D01*
X387926270Y-149333355D02*
X387878651Y-149285736D01*
X387878651Y-149285736D02*
X387783413Y-149238117D01*
X387783413Y-149238117D02*
X387735794Y-149238117D01*
X387735794Y-149238117D02*
X387640556Y-149285736D01*
X387640556Y-149285736D02*
X387592937Y-149333355D01*
X387592937Y-149333355D02*
X387545318Y-149428593D01*
X387545318Y-149428593D02*
X387545318Y-149619069D01*
X387545318Y-149619069D02*
X387592937Y-149714307D01*
X387592937Y-149714307D02*
X387640556Y-149761926D01*
X387640556Y-149761926D02*
X387735794Y-149809545D01*
X387735794Y-149809545D02*
X387783413Y-149809545D01*
X387783413Y-149809545D02*
X387878651Y-149761926D01*
X387878651Y-149761926D02*
X387926270Y-149714307D01*
X387926270Y-149714307D02*
X387973889Y-149619069D01*
X387973889Y-149619069D02*
X387973889Y-149428593D01*
X387973889Y-149428593D02*
X388021508Y-149333355D01*
X388021508Y-149333355D02*
X388069127Y-149285736D01*
X388069127Y-149285736D02*
X388164365Y-149238117D01*
X388164365Y-149238117D02*
X388354841Y-149238117D01*
X388354841Y-149238117D02*
X388450079Y-149285736D01*
X388450079Y-149285736D02*
X388497699Y-149333355D01*
X388497699Y-149333355D02*
X388545318Y-149428593D01*
X388545318Y-149428593D02*
X388545318Y-149619069D01*
X388545318Y-149619069D02*
X388497699Y-149714307D01*
X388497699Y-149714307D02*
X388450079Y-149761926D01*
X388450079Y-149761926D02*
X388354841Y-149809545D01*
X388354841Y-149809545D02*
X388164365Y-149809545D01*
X388164365Y-149809545D02*
X388069127Y-149761926D01*
X388069127Y-149761926D02*
X388021508Y-149714307D01*
X388021508Y-149714307D02*
X387973889Y-149619069D01*
X679057318Y-123520855D02*
X678057318Y-123520855D01*
X678057318Y-123520855D02*
X678057318Y-123758950D01*
X678057318Y-123758950D02*
X678104937Y-123901807D01*
X678104937Y-123901807D02*
X678200175Y-123997045D01*
X678200175Y-123997045D02*
X678295413Y-124044664D01*
X678295413Y-124044664D02*
X678485889Y-124092283D01*
X678485889Y-124092283D02*
X678628746Y-124092283D01*
X678628746Y-124092283D02*
X678819222Y-124044664D01*
X678819222Y-124044664D02*
X678914460Y-123997045D01*
X678914460Y-123997045D02*
X679009699Y-123901807D01*
X679009699Y-123901807D02*
X679057318Y-123758950D01*
X679057318Y-123758950D02*
X679057318Y-123520855D01*
X679057318Y-125044664D02*
X679057318Y-124473236D01*
X679057318Y-124758950D02*
X678057318Y-124758950D01*
X678057318Y-124758950D02*
X678200175Y-124663712D01*
X678200175Y-124663712D02*
X678295413Y-124568474D01*
X678295413Y-124568474D02*
X678343032Y-124473236D01*
X678057318Y-125949426D02*
X678057318Y-125473236D01*
X678057318Y-125473236D02*
X678533508Y-125425617D01*
X678533508Y-125425617D02*
X678485889Y-125473236D01*
X678485889Y-125473236D02*
X678438270Y-125568474D01*
X678438270Y-125568474D02*
X678438270Y-125806569D01*
X678438270Y-125806569D02*
X678485889Y-125901807D01*
X678485889Y-125901807D02*
X678533508Y-125949426D01*
X678533508Y-125949426D02*
X678628746Y-125997045D01*
X678628746Y-125997045D02*
X678866841Y-125997045D01*
X678866841Y-125997045D02*
X678962079Y-125949426D01*
X678962079Y-125949426D02*
X679009699Y-125901807D01*
X679009699Y-125901807D02*
X679057318Y-125806569D01*
X679057318Y-125806569D02*
X679057318Y-125568474D01*
X679057318Y-125568474D02*
X679009699Y-125473236D01*
X679009699Y-125473236D02*
X678962079Y-125425617D01*
X640957318Y-123520855D02*
X639957318Y-123520855D01*
X639957318Y-123520855D02*
X639957318Y-123758950D01*
X639957318Y-123758950D02*
X640004937Y-123901807D01*
X640004937Y-123901807D02*
X640100175Y-123997045D01*
X640100175Y-123997045D02*
X640195413Y-124044664D01*
X640195413Y-124044664D02*
X640385889Y-124092283D01*
X640385889Y-124092283D02*
X640528746Y-124092283D01*
X640528746Y-124092283D02*
X640719222Y-124044664D01*
X640719222Y-124044664D02*
X640814460Y-123997045D01*
X640814460Y-123997045D02*
X640909699Y-123901807D01*
X640909699Y-123901807D02*
X640957318Y-123758950D01*
X640957318Y-123758950D02*
X640957318Y-123520855D01*
X640957318Y-125044664D02*
X640957318Y-124473236D01*
X640957318Y-124758950D02*
X639957318Y-124758950D01*
X639957318Y-124758950D02*
X640100175Y-124663712D01*
X640100175Y-124663712D02*
X640195413Y-124568474D01*
X640195413Y-124568474D02*
X640243032Y-124473236D01*
X640290651Y-125901807D02*
X640957318Y-125901807D01*
X639909699Y-125663712D02*
X640623984Y-125425617D01*
X640623984Y-125425617D02*
X640623984Y-126044664D01*
X698107318Y-123520855D02*
X697107318Y-123520855D01*
X697107318Y-123520855D02*
X697107318Y-123758950D01*
X697107318Y-123758950D02*
X697154937Y-123901807D01*
X697154937Y-123901807D02*
X697250175Y-123997045D01*
X697250175Y-123997045D02*
X697345413Y-124044664D01*
X697345413Y-124044664D02*
X697535889Y-124092283D01*
X697535889Y-124092283D02*
X697678746Y-124092283D01*
X697678746Y-124092283D02*
X697869222Y-124044664D01*
X697869222Y-124044664D02*
X697964460Y-123997045D01*
X697964460Y-123997045D02*
X698059699Y-123901807D01*
X698059699Y-123901807D02*
X698107318Y-123758950D01*
X698107318Y-123758950D02*
X698107318Y-123520855D01*
X698107318Y-125044664D02*
X698107318Y-124473236D01*
X698107318Y-124758950D02*
X697107318Y-124758950D01*
X697107318Y-124758950D02*
X697250175Y-124663712D01*
X697250175Y-124663712D02*
X697345413Y-124568474D01*
X697345413Y-124568474D02*
X697393032Y-124473236D01*
X697107318Y-125901807D02*
X697107318Y-125711331D01*
X697107318Y-125711331D02*
X697154937Y-125616093D01*
X697154937Y-125616093D02*
X697202556Y-125568474D01*
X697202556Y-125568474D02*
X697345413Y-125473236D01*
X697345413Y-125473236D02*
X697535889Y-125425617D01*
X697535889Y-125425617D02*
X697916841Y-125425617D01*
X697916841Y-125425617D02*
X698012079Y-125473236D01*
X698012079Y-125473236D02*
X698059699Y-125520855D01*
X698059699Y-125520855D02*
X698107318Y-125616093D01*
X698107318Y-125616093D02*
X698107318Y-125806569D01*
X698107318Y-125806569D02*
X698059699Y-125901807D01*
X698059699Y-125901807D02*
X698012079Y-125949426D01*
X698012079Y-125949426D02*
X697916841Y-125997045D01*
X697916841Y-125997045D02*
X697678746Y-125997045D01*
X697678746Y-125997045D02*
X697583508Y-125949426D01*
X697583508Y-125949426D02*
X697535889Y-125901807D01*
X697535889Y-125901807D02*
X697488270Y-125806569D01*
X697488270Y-125806569D02*
X697488270Y-125616093D01*
X697488270Y-125616093D02*
X697535889Y-125520855D01*
X697535889Y-125520855D02*
X697583508Y-125473236D01*
X697583508Y-125473236D02*
X697678746Y-125425617D01*
X717157318Y-123520855D02*
X716157318Y-123520855D01*
X716157318Y-123520855D02*
X716157318Y-123758950D01*
X716157318Y-123758950D02*
X716204937Y-123901807D01*
X716204937Y-123901807D02*
X716300175Y-123997045D01*
X716300175Y-123997045D02*
X716395413Y-124044664D01*
X716395413Y-124044664D02*
X716585889Y-124092283D01*
X716585889Y-124092283D02*
X716728746Y-124092283D01*
X716728746Y-124092283D02*
X716919222Y-124044664D01*
X716919222Y-124044664D02*
X717014460Y-123997045D01*
X717014460Y-123997045D02*
X717109699Y-123901807D01*
X717109699Y-123901807D02*
X717157318Y-123758950D01*
X717157318Y-123758950D02*
X717157318Y-123520855D01*
X717157318Y-125044664D02*
X717157318Y-124473236D01*
X717157318Y-124758950D02*
X716157318Y-124758950D01*
X716157318Y-124758950D02*
X716300175Y-124663712D01*
X716300175Y-124663712D02*
X716395413Y-124568474D01*
X716395413Y-124568474D02*
X716443032Y-124473236D01*
X716157318Y-125377998D02*
X716157318Y-126044664D01*
X716157318Y-126044664D02*
X717157318Y-125616093D01*
X612382318Y-123520855D02*
X611382318Y-123520855D01*
X611382318Y-123520855D02*
X611382318Y-123758950D01*
X611382318Y-123758950D02*
X611429937Y-123901807D01*
X611429937Y-123901807D02*
X611525175Y-123997045D01*
X611525175Y-123997045D02*
X611620413Y-124044664D01*
X611620413Y-124044664D02*
X611810889Y-124092283D01*
X611810889Y-124092283D02*
X611953746Y-124092283D01*
X611953746Y-124092283D02*
X612144222Y-124044664D01*
X612144222Y-124044664D02*
X612239460Y-123997045D01*
X612239460Y-123997045D02*
X612334699Y-123901807D01*
X612334699Y-123901807D02*
X612382318Y-123758950D01*
X612382318Y-123758950D02*
X612382318Y-123520855D01*
X612382318Y-125044664D02*
X612382318Y-124473236D01*
X612382318Y-124758950D02*
X611382318Y-124758950D01*
X611382318Y-124758950D02*
X611525175Y-124663712D01*
X611525175Y-124663712D02*
X611620413Y-124568474D01*
X611620413Y-124568474D02*
X611668032Y-124473236D01*
X611382318Y-125377998D02*
X611382318Y-125997045D01*
X611382318Y-125997045D02*
X611763270Y-125663712D01*
X611763270Y-125663712D02*
X611763270Y-125806569D01*
X611763270Y-125806569D02*
X611810889Y-125901807D01*
X611810889Y-125901807D02*
X611858508Y-125949426D01*
X611858508Y-125949426D02*
X611953746Y-125997045D01*
X611953746Y-125997045D02*
X612191841Y-125997045D01*
X612191841Y-125997045D02*
X612287079Y-125949426D01*
X612287079Y-125949426D02*
X612334699Y-125901807D01*
X612334699Y-125901807D02*
X612382318Y-125806569D01*
X612382318Y-125806569D02*
X612382318Y-125520855D01*
X612382318Y-125520855D02*
X612334699Y-125425617D01*
X612334699Y-125425617D02*
X612287079Y-125377998D01*
X536182318Y-123997046D02*
X535182318Y-123997046D01*
X535182318Y-123997046D02*
X535182318Y-124235141D01*
X535182318Y-124235141D02*
X535229937Y-124377998D01*
X535229937Y-124377998D02*
X535325175Y-124473236D01*
X535325175Y-124473236D02*
X535420413Y-124520855D01*
X535420413Y-124520855D02*
X535610889Y-124568474D01*
X535610889Y-124568474D02*
X535753746Y-124568474D01*
X535753746Y-124568474D02*
X535944222Y-124520855D01*
X535944222Y-124520855D02*
X536039460Y-124473236D01*
X536039460Y-124473236D02*
X536134699Y-124377998D01*
X536134699Y-124377998D02*
X536182318Y-124235141D01*
X536182318Y-124235141D02*
X536182318Y-123997046D01*
X536182318Y-125044665D02*
X536182318Y-125235141D01*
X536182318Y-125235141D02*
X536134699Y-125330379D01*
X536134699Y-125330379D02*
X536087079Y-125377998D01*
X536087079Y-125377998D02*
X535944222Y-125473236D01*
X535944222Y-125473236D02*
X535753746Y-125520855D01*
X535753746Y-125520855D02*
X535372794Y-125520855D01*
X535372794Y-125520855D02*
X535277556Y-125473236D01*
X535277556Y-125473236D02*
X535229937Y-125425617D01*
X535229937Y-125425617D02*
X535182318Y-125330379D01*
X535182318Y-125330379D02*
X535182318Y-125139903D01*
X535182318Y-125139903D02*
X535229937Y-125044665D01*
X535229937Y-125044665D02*
X535277556Y-124997046D01*
X535277556Y-124997046D02*
X535372794Y-124949427D01*
X535372794Y-124949427D02*
X535610889Y-124949427D01*
X535610889Y-124949427D02*
X535706127Y-124997046D01*
X535706127Y-124997046D02*
X535753746Y-125044665D01*
X535753746Y-125044665D02*
X535801365Y-125139903D01*
X535801365Y-125139903D02*
X535801365Y-125330379D01*
X535801365Y-125330379D02*
X535753746Y-125425617D01*
X535753746Y-125425617D02*
X535706127Y-125473236D01*
X535706127Y-125473236D02*
X535610889Y-125520855D01*
X517132318Y-123997046D02*
X516132318Y-123997046D01*
X516132318Y-123997046D02*
X516132318Y-124235141D01*
X516132318Y-124235141D02*
X516179937Y-124377998D01*
X516179937Y-124377998D02*
X516275175Y-124473236D01*
X516275175Y-124473236D02*
X516370413Y-124520855D01*
X516370413Y-124520855D02*
X516560889Y-124568474D01*
X516560889Y-124568474D02*
X516703746Y-124568474D01*
X516703746Y-124568474D02*
X516894222Y-124520855D01*
X516894222Y-124520855D02*
X516989460Y-124473236D01*
X516989460Y-124473236D02*
X517084699Y-124377998D01*
X517084699Y-124377998D02*
X517132318Y-124235141D01*
X517132318Y-124235141D02*
X517132318Y-123997046D01*
X516560889Y-125139903D02*
X516513270Y-125044665D01*
X516513270Y-125044665D02*
X516465651Y-124997046D01*
X516465651Y-124997046D02*
X516370413Y-124949427D01*
X516370413Y-124949427D02*
X516322794Y-124949427D01*
X516322794Y-124949427D02*
X516227556Y-124997046D01*
X516227556Y-124997046D02*
X516179937Y-125044665D01*
X516179937Y-125044665D02*
X516132318Y-125139903D01*
X516132318Y-125139903D02*
X516132318Y-125330379D01*
X516132318Y-125330379D02*
X516179937Y-125425617D01*
X516179937Y-125425617D02*
X516227556Y-125473236D01*
X516227556Y-125473236D02*
X516322794Y-125520855D01*
X516322794Y-125520855D02*
X516370413Y-125520855D01*
X516370413Y-125520855D02*
X516465651Y-125473236D01*
X516465651Y-125473236D02*
X516513270Y-125425617D01*
X516513270Y-125425617D02*
X516560889Y-125330379D01*
X516560889Y-125330379D02*
X516560889Y-125139903D01*
X516560889Y-125139903D02*
X516608508Y-125044665D01*
X516608508Y-125044665D02*
X516656127Y-124997046D01*
X516656127Y-124997046D02*
X516751365Y-124949427D01*
X516751365Y-124949427D02*
X516941841Y-124949427D01*
X516941841Y-124949427D02*
X517037079Y-124997046D01*
X517037079Y-124997046D02*
X517084699Y-125044665D01*
X517084699Y-125044665D02*
X517132318Y-125139903D01*
X517132318Y-125139903D02*
X517132318Y-125330379D01*
X517132318Y-125330379D02*
X517084699Y-125425617D01*
X517084699Y-125425617D02*
X517037079Y-125473236D01*
X517037079Y-125473236D02*
X516941841Y-125520855D01*
X516941841Y-125520855D02*
X516751365Y-125520855D01*
X516751365Y-125520855D02*
X516656127Y-125473236D01*
X516656127Y-125473236D02*
X516608508Y-125425617D01*
X516608508Y-125425617D02*
X516560889Y-125330379D01*
X574282318Y-123520855D02*
X573282318Y-123520855D01*
X573282318Y-123520855D02*
X573282318Y-123758950D01*
X573282318Y-123758950D02*
X573329937Y-123901807D01*
X573329937Y-123901807D02*
X573425175Y-123997045D01*
X573425175Y-123997045D02*
X573520413Y-124044664D01*
X573520413Y-124044664D02*
X573710889Y-124092283D01*
X573710889Y-124092283D02*
X573853746Y-124092283D01*
X573853746Y-124092283D02*
X574044222Y-124044664D01*
X574044222Y-124044664D02*
X574139460Y-123997045D01*
X574139460Y-123997045D02*
X574234699Y-123901807D01*
X574234699Y-123901807D02*
X574282318Y-123758950D01*
X574282318Y-123758950D02*
X574282318Y-123520855D01*
X574282318Y-125044664D02*
X574282318Y-124473236D01*
X574282318Y-124758950D02*
X573282318Y-124758950D01*
X573282318Y-124758950D02*
X573425175Y-124663712D01*
X573425175Y-124663712D02*
X573520413Y-124568474D01*
X573520413Y-124568474D02*
X573568032Y-124473236D01*
X574282318Y-125997045D02*
X574282318Y-125425617D01*
X574282318Y-125711331D02*
X573282318Y-125711331D01*
X573282318Y-125711331D02*
X573425175Y-125616093D01*
X573425175Y-125616093D02*
X573520413Y-125520855D01*
X573520413Y-125520855D02*
X573568032Y-125425617D01*
X488557318Y-147333355D02*
X487557318Y-147333355D01*
X487557318Y-147333355D02*
X487557318Y-147571450D01*
X487557318Y-147571450D02*
X487604937Y-147714307D01*
X487604937Y-147714307D02*
X487700175Y-147809545D01*
X487700175Y-147809545D02*
X487795413Y-147857164D01*
X487795413Y-147857164D02*
X487985889Y-147904783D01*
X487985889Y-147904783D02*
X488128746Y-147904783D01*
X488128746Y-147904783D02*
X488319222Y-147857164D01*
X488319222Y-147857164D02*
X488414460Y-147809545D01*
X488414460Y-147809545D02*
X488509699Y-147714307D01*
X488509699Y-147714307D02*
X488557318Y-147571450D01*
X488557318Y-147571450D02*
X488557318Y-147333355D01*
X487652556Y-148285736D02*
X487604937Y-148333355D01*
X487604937Y-148333355D02*
X487557318Y-148428593D01*
X487557318Y-148428593D02*
X487557318Y-148666688D01*
X487557318Y-148666688D02*
X487604937Y-148761926D01*
X487604937Y-148761926D02*
X487652556Y-148809545D01*
X487652556Y-148809545D02*
X487747794Y-148857164D01*
X487747794Y-148857164D02*
X487843032Y-148857164D01*
X487843032Y-148857164D02*
X487985889Y-148809545D01*
X487985889Y-148809545D02*
X488557318Y-148238117D01*
X488557318Y-148238117D02*
X488557318Y-148857164D01*
X487557318Y-149190498D02*
X487557318Y-149809545D01*
X487557318Y-149809545D02*
X487938270Y-149476212D01*
X487938270Y-149476212D02*
X487938270Y-149619069D01*
X487938270Y-149619069D02*
X487985889Y-149714307D01*
X487985889Y-149714307D02*
X488033508Y-149761926D01*
X488033508Y-149761926D02*
X488128746Y-149809545D01*
X488128746Y-149809545D02*
X488366841Y-149809545D01*
X488366841Y-149809545D02*
X488462079Y-149761926D01*
X488462079Y-149761926D02*
X488509699Y-149714307D01*
X488509699Y-149714307D02*
X488557318Y-149619069D01*
X488557318Y-149619069D02*
X488557318Y-149333355D01*
X488557318Y-149333355D02*
X488509699Y-149238117D01*
X488509699Y-149238117D02*
X488462079Y-149190498D01*
X469507318Y-147333355D02*
X468507318Y-147333355D01*
X468507318Y-147333355D02*
X468507318Y-147571450D01*
X468507318Y-147571450D02*
X468554937Y-147714307D01*
X468554937Y-147714307D02*
X468650175Y-147809545D01*
X468650175Y-147809545D02*
X468745413Y-147857164D01*
X468745413Y-147857164D02*
X468935889Y-147904783D01*
X468935889Y-147904783D02*
X469078746Y-147904783D01*
X469078746Y-147904783D02*
X469269222Y-147857164D01*
X469269222Y-147857164D02*
X469364460Y-147809545D01*
X469364460Y-147809545D02*
X469459699Y-147714307D01*
X469459699Y-147714307D02*
X469507318Y-147571450D01*
X469507318Y-147571450D02*
X469507318Y-147333355D01*
X468602556Y-148285736D02*
X468554937Y-148333355D01*
X468554937Y-148333355D02*
X468507318Y-148428593D01*
X468507318Y-148428593D02*
X468507318Y-148666688D01*
X468507318Y-148666688D02*
X468554937Y-148761926D01*
X468554937Y-148761926D02*
X468602556Y-148809545D01*
X468602556Y-148809545D02*
X468697794Y-148857164D01*
X468697794Y-148857164D02*
X468793032Y-148857164D01*
X468793032Y-148857164D02*
X468935889Y-148809545D01*
X468935889Y-148809545D02*
X469507318Y-148238117D01*
X469507318Y-148238117D02*
X469507318Y-148857164D01*
X468602556Y-149238117D02*
X468554937Y-149285736D01*
X468554937Y-149285736D02*
X468507318Y-149380974D01*
X468507318Y-149380974D02*
X468507318Y-149619069D01*
X468507318Y-149619069D02*
X468554937Y-149714307D01*
X468554937Y-149714307D02*
X468602556Y-149761926D01*
X468602556Y-149761926D02*
X468697794Y-149809545D01*
X468697794Y-149809545D02*
X468793032Y-149809545D01*
X468793032Y-149809545D02*
X468935889Y-149761926D01*
X468935889Y-149761926D02*
X469507318Y-149190498D01*
X469507318Y-149190498D02*
X469507318Y-149809545D01*
X593332318Y-123520855D02*
X592332318Y-123520855D01*
X592332318Y-123520855D02*
X592332318Y-123758950D01*
X592332318Y-123758950D02*
X592379937Y-123901807D01*
X592379937Y-123901807D02*
X592475175Y-123997045D01*
X592475175Y-123997045D02*
X592570413Y-124044664D01*
X592570413Y-124044664D02*
X592760889Y-124092283D01*
X592760889Y-124092283D02*
X592903746Y-124092283D01*
X592903746Y-124092283D02*
X593094222Y-124044664D01*
X593094222Y-124044664D02*
X593189460Y-123997045D01*
X593189460Y-123997045D02*
X593284699Y-123901807D01*
X593284699Y-123901807D02*
X593332318Y-123758950D01*
X593332318Y-123758950D02*
X593332318Y-123520855D01*
X593332318Y-125044664D02*
X593332318Y-124473236D01*
X593332318Y-124758950D02*
X592332318Y-124758950D01*
X592332318Y-124758950D02*
X592475175Y-124663712D01*
X592475175Y-124663712D02*
X592570413Y-124568474D01*
X592570413Y-124568474D02*
X592618032Y-124473236D01*
X592427556Y-125425617D02*
X592379937Y-125473236D01*
X592379937Y-125473236D02*
X592332318Y-125568474D01*
X592332318Y-125568474D02*
X592332318Y-125806569D01*
X592332318Y-125806569D02*
X592379937Y-125901807D01*
X592379937Y-125901807D02*
X592427556Y-125949426D01*
X592427556Y-125949426D02*
X592522794Y-125997045D01*
X592522794Y-125997045D02*
X592618032Y-125997045D01*
X592618032Y-125997045D02*
X592760889Y-125949426D01*
X592760889Y-125949426D02*
X593332318Y-125377998D01*
X593332318Y-125377998D02*
X593332318Y-125997045D01*
X526657318Y-147333355D02*
X525657318Y-147333355D01*
X525657318Y-147333355D02*
X525657318Y-147571450D01*
X525657318Y-147571450D02*
X525704937Y-147714307D01*
X525704937Y-147714307D02*
X525800175Y-147809545D01*
X525800175Y-147809545D02*
X525895413Y-147857164D01*
X525895413Y-147857164D02*
X526085889Y-147904783D01*
X526085889Y-147904783D02*
X526228746Y-147904783D01*
X526228746Y-147904783D02*
X526419222Y-147857164D01*
X526419222Y-147857164D02*
X526514460Y-147809545D01*
X526514460Y-147809545D02*
X526609699Y-147714307D01*
X526609699Y-147714307D02*
X526657318Y-147571450D01*
X526657318Y-147571450D02*
X526657318Y-147333355D01*
X525752556Y-148285736D02*
X525704937Y-148333355D01*
X525704937Y-148333355D02*
X525657318Y-148428593D01*
X525657318Y-148428593D02*
X525657318Y-148666688D01*
X525657318Y-148666688D02*
X525704937Y-148761926D01*
X525704937Y-148761926D02*
X525752556Y-148809545D01*
X525752556Y-148809545D02*
X525847794Y-148857164D01*
X525847794Y-148857164D02*
X525943032Y-148857164D01*
X525943032Y-148857164D02*
X526085889Y-148809545D01*
X526085889Y-148809545D02*
X526657318Y-148238117D01*
X526657318Y-148238117D02*
X526657318Y-148857164D01*
X525657318Y-149761926D02*
X525657318Y-149285736D01*
X525657318Y-149285736D02*
X526133508Y-149238117D01*
X526133508Y-149238117D02*
X526085889Y-149285736D01*
X526085889Y-149285736D02*
X526038270Y-149380974D01*
X526038270Y-149380974D02*
X526038270Y-149619069D01*
X526038270Y-149619069D02*
X526085889Y-149714307D01*
X526085889Y-149714307D02*
X526133508Y-149761926D01*
X526133508Y-149761926D02*
X526228746Y-149809545D01*
X526228746Y-149809545D02*
X526466841Y-149809545D01*
X526466841Y-149809545D02*
X526562079Y-149761926D01*
X526562079Y-149761926D02*
X526609699Y-149714307D01*
X526609699Y-149714307D02*
X526657318Y-149619069D01*
X526657318Y-149619069D02*
X526657318Y-149380974D01*
X526657318Y-149380974D02*
X526609699Y-149285736D01*
X526609699Y-149285736D02*
X526562079Y-149238117D01*
X498082318Y-123997046D02*
X497082318Y-123997046D01*
X497082318Y-123997046D02*
X497082318Y-124235141D01*
X497082318Y-124235141D02*
X497129937Y-124377998D01*
X497129937Y-124377998D02*
X497225175Y-124473236D01*
X497225175Y-124473236D02*
X497320413Y-124520855D01*
X497320413Y-124520855D02*
X497510889Y-124568474D01*
X497510889Y-124568474D02*
X497653746Y-124568474D01*
X497653746Y-124568474D02*
X497844222Y-124520855D01*
X497844222Y-124520855D02*
X497939460Y-124473236D01*
X497939460Y-124473236D02*
X498034699Y-124377998D01*
X498034699Y-124377998D02*
X498082318Y-124235141D01*
X498082318Y-124235141D02*
X498082318Y-123997046D01*
X497082318Y-124901808D02*
X497082318Y-125568474D01*
X497082318Y-125568474D02*
X498082318Y-125139903D01*
X459982318Y-123997046D02*
X458982318Y-123997046D01*
X458982318Y-123997046D02*
X458982318Y-124235141D01*
X458982318Y-124235141D02*
X459029937Y-124377998D01*
X459029937Y-124377998D02*
X459125175Y-124473236D01*
X459125175Y-124473236D02*
X459220413Y-124520855D01*
X459220413Y-124520855D02*
X459410889Y-124568474D01*
X459410889Y-124568474D02*
X459553746Y-124568474D01*
X459553746Y-124568474D02*
X459744222Y-124520855D01*
X459744222Y-124520855D02*
X459839460Y-124473236D01*
X459839460Y-124473236D02*
X459934699Y-124377998D01*
X459934699Y-124377998D02*
X459982318Y-124235141D01*
X459982318Y-124235141D02*
X459982318Y-123997046D01*
X458982318Y-125473236D02*
X458982318Y-124997046D01*
X458982318Y-124997046D02*
X459458508Y-124949427D01*
X459458508Y-124949427D02*
X459410889Y-124997046D01*
X459410889Y-124997046D02*
X459363270Y-125092284D01*
X459363270Y-125092284D02*
X459363270Y-125330379D01*
X459363270Y-125330379D02*
X459410889Y-125425617D01*
X459410889Y-125425617D02*
X459458508Y-125473236D01*
X459458508Y-125473236D02*
X459553746Y-125520855D01*
X459553746Y-125520855D02*
X459791841Y-125520855D01*
X459791841Y-125520855D02*
X459887079Y-125473236D01*
X459887079Y-125473236D02*
X459934699Y-125425617D01*
X459934699Y-125425617D02*
X459982318Y-125330379D01*
X459982318Y-125330379D02*
X459982318Y-125092284D01*
X459982318Y-125092284D02*
X459934699Y-124997046D01*
X459934699Y-124997046D02*
X459887079Y-124949427D01*
X479032318Y-123997046D02*
X478032318Y-123997046D01*
X478032318Y-123997046D02*
X478032318Y-124235141D01*
X478032318Y-124235141D02*
X478079937Y-124377998D01*
X478079937Y-124377998D02*
X478175175Y-124473236D01*
X478175175Y-124473236D02*
X478270413Y-124520855D01*
X478270413Y-124520855D02*
X478460889Y-124568474D01*
X478460889Y-124568474D02*
X478603746Y-124568474D01*
X478603746Y-124568474D02*
X478794222Y-124520855D01*
X478794222Y-124520855D02*
X478889460Y-124473236D01*
X478889460Y-124473236D02*
X478984699Y-124377998D01*
X478984699Y-124377998D02*
X479032318Y-124235141D01*
X479032318Y-124235141D02*
X479032318Y-123997046D01*
X478032318Y-125425617D02*
X478032318Y-125235141D01*
X478032318Y-125235141D02*
X478079937Y-125139903D01*
X478079937Y-125139903D02*
X478127556Y-125092284D01*
X478127556Y-125092284D02*
X478270413Y-124997046D01*
X478270413Y-124997046D02*
X478460889Y-124949427D01*
X478460889Y-124949427D02*
X478841841Y-124949427D01*
X478841841Y-124949427D02*
X478937079Y-124997046D01*
X478937079Y-124997046D02*
X478984699Y-125044665D01*
X478984699Y-125044665D02*
X479032318Y-125139903D01*
X479032318Y-125139903D02*
X479032318Y-125330379D01*
X479032318Y-125330379D02*
X478984699Y-125425617D01*
X478984699Y-125425617D02*
X478937079Y-125473236D01*
X478937079Y-125473236D02*
X478841841Y-125520855D01*
X478841841Y-125520855D02*
X478603746Y-125520855D01*
X478603746Y-125520855D02*
X478508508Y-125473236D01*
X478508508Y-125473236D02*
X478460889Y-125425617D01*
X478460889Y-125425617D02*
X478413270Y-125330379D01*
X478413270Y-125330379D02*
X478413270Y-125139903D01*
X478413270Y-125139903D02*
X478460889Y-125044665D01*
X478460889Y-125044665D02*
X478508508Y-124997046D01*
X478508508Y-124997046D02*
X478603746Y-124949427D01*
X421882318Y-123997046D02*
X420882318Y-123997046D01*
X420882318Y-123997046D02*
X420882318Y-124235141D01*
X420882318Y-124235141D02*
X420929937Y-124377998D01*
X420929937Y-124377998D02*
X421025175Y-124473236D01*
X421025175Y-124473236D02*
X421120413Y-124520855D01*
X421120413Y-124520855D02*
X421310889Y-124568474D01*
X421310889Y-124568474D02*
X421453746Y-124568474D01*
X421453746Y-124568474D02*
X421644222Y-124520855D01*
X421644222Y-124520855D02*
X421739460Y-124473236D01*
X421739460Y-124473236D02*
X421834699Y-124377998D01*
X421834699Y-124377998D02*
X421882318Y-124235141D01*
X421882318Y-124235141D02*
X421882318Y-123997046D01*
X420882318Y-124901808D02*
X420882318Y-125520855D01*
X420882318Y-125520855D02*
X421263270Y-125187522D01*
X421263270Y-125187522D02*
X421263270Y-125330379D01*
X421263270Y-125330379D02*
X421310889Y-125425617D01*
X421310889Y-125425617D02*
X421358508Y-125473236D01*
X421358508Y-125473236D02*
X421453746Y-125520855D01*
X421453746Y-125520855D02*
X421691841Y-125520855D01*
X421691841Y-125520855D02*
X421787079Y-125473236D01*
X421787079Y-125473236D02*
X421834699Y-125425617D01*
X421834699Y-125425617D02*
X421882318Y-125330379D01*
X421882318Y-125330379D02*
X421882318Y-125044665D01*
X421882318Y-125044665D02*
X421834699Y-124949427D01*
X421834699Y-124949427D02*
X421787079Y-124901808D01*
X383782318Y-123997046D02*
X382782318Y-123997046D01*
X382782318Y-123997046D02*
X382782318Y-124235141D01*
X382782318Y-124235141D02*
X382829937Y-124377998D01*
X382829937Y-124377998D02*
X382925175Y-124473236D01*
X382925175Y-124473236D02*
X383020413Y-124520855D01*
X383020413Y-124520855D02*
X383210889Y-124568474D01*
X383210889Y-124568474D02*
X383353746Y-124568474D01*
X383353746Y-124568474D02*
X383544222Y-124520855D01*
X383544222Y-124520855D02*
X383639460Y-124473236D01*
X383639460Y-124473236D02*
X383734699Y-124377998D01*
X383734699Y-124377998D02*
X383782318Y-124235141D01*
X383782318Y-124235141D02*
X383782318Y-123997046D01*
X383782318Y-125520855D02*
X383782318Y-124949427D01*
X383782318Y-125235141D02*
X382782318Y-125235141D01*
X382782318Y-125235141D02*
X382925175Y-125139903D01*
X382925175Y-125139903D02*
X383020413Y-125044665D01*
X383020413Y-125044665D02*
X383068032Y-124949427D01*
X555232318Y-123520855D02*
X554232318Y-123520855D01*
X554232318Y-123520855D02*
X554232318Y-123758950D01*
X554232318Y-123758950D02*
X554279937Y-123901807D01*
X554279937Y-123901807D02*
X554375175Y-123997045D01*
X554375175Y-123997045D02*
X554470413Y-124044664D01*
X554470413Y-124044664D02*
X554660889Y-124092283D01*
X554660889Y-124092283D02*
X554803746Y-124092283D01*
X554803746Y-124092283D02*
X554994222Y-124044664D01*
X554994222Y-124044664D02*
X555089460Y-123997045D01*
X555089460Y-123997045D02*
X555184699Y-123901807D01*
X555184699Y-123901807D02*
X555232318Y-123758950D01*
X555232318Y-123758950D02*
X555232318Y-123520855D01*
X555232318Y-125044664D02*
X555232318Y-124473236D01*
X555232318Y-124758950D02*
X554232318Y-124758950D01*
X554232318Y-124758950D02*
X554375175Y-124663712D01*
X554375175Y-124663712D02*
X554470413Y-124568474D01*
X554470413Y-124568474D02*
X554518032Y-124473236D01*
X554232318Y-125663712D02*
X554232318Y-125758950D01*
X554232318Y-125758950D02*
X554279937Y-125854188D01*
X554279937Y-125854188D02*
X554327556Y-125901807D01*
X554327556Y-125901807D02*
X554422794Y-125949426D01*
X554422794Y-125949426D02*
X554613270Y-125997045D01*
X554613270Y-125997045D02*
X554851365Y-125997045D01*
X554851365Y-125997045D02*
X555041841Y-125949426D01*
X555041841Y-125949426D02*
X555137079Y-125901807D01*
X555137079Y-125901807D02*
X555184699Y-125854188D01*
X555184699Y-125854188D02*
X555232318Y-125758950D01*
X555232318Y-125758950D02*
X555232318Y-125663712D01*
X555232318Y-125663712D02*
X555184699Y-125568474D01*
X555184699Y-125568474D02*
X555137079Y-125520855D01*
X555137079Y-125520855D02*
X555041841Y-125473236D01*
X555041841Y-125473236D02*
X554851365Y-125425617D01*
X554851365Y-125425617D02*
X554613270Y-125425617D01*
X554613270Y-125425617D02*
X554422794Y-125473236D01*
X554422794Y-125473236D02*
X554327556Y-125520855D01*
X554327556Y-125520855D02*
X554279937Y-125568474D01*
X554279937Y-125568474D02*
X554232318Y-125663712D01*
X402832318Y-123997046D02*
X401832318Y-123997046D01*
X401832318Y-123997046D02*
X401832318Y-124235141D01*
X401832318Y-124235141D02*
X401879937Y-124377998D01*
X401879937Y-124377998D02*
X401975175Y-124473236D01*
X401975175Y-124473236D02*
X402070413Y-124520855D01*
X402070413Y-124520855D02*
X402260889Y-124568474D01*
X402260889Y-124568474D02*
X402403746Y-124568474D01*
X402403746Y-124568474D02*
X402594222Y-124520855D01*
X402594222Y-124520855D02*
X402689460Y-124473236D01*
X402689460Y-124473236D02*
X402784699Y-124377998D01*
X402784699Y-124377998D02*
X402832318Y-124235141D01*
X402832318Y-124235141D02*
X402832318Y-123997046D01*
X401927556Y-124949427D02*
X401879937Y-124997046D01*
X401879937Y-124997046D02*
X401832318Y-125092284D01*
X401832318Y-125092284D02*
X401832318Y-125330379D01*
X401832318Y-125330379D02*
X401879937Y-125425617D01*
X401879937Y-125425617D02*
X401927556Y-125473236D01*
X401927556Y-125473236D02*
X402022794Y-125520855D01*
X402022794Y-125520855D02*
X402118032Y-125520855D01*
X402118032Y-125520855D02*
X402260889Y-125473236D01*
X402260889Y-125473236D02*
X402832318Y-124901808D01*
X402832318Y-124901808D02*
X402832318Y-125520855D01*
X440932318Y-123997046D02*
X439932318Y-123997046D01*
X439932318Y-123997046D02*
X439932318Y-124235141D01*
X439932318Y-124235141D02*
X439979937Y-124377998D01*
X439979937Y-124377998D02*
X440075175Y-124473236D01*
X440075175Y-124473236D02*
X440170413Y-124520855D01*
X440170413Y-124520855D02*
X440360889Y-124568474D01*
X440360889Y-124568474D02*
X440503746Y-124568474D01*
X440503746Y-124568474D02*
X440694222Y-124520855D01*
X440694222Y-124520855D02*
X440789460Y-124473236D01*
X440789460Y-124473236D02*
X440884699Y-124377998D01*
X440884699Y-124377998D02*
X440932318Y-124235141D01*
X440932318Y-124235141D02*
X440932318Y-123997046D01*
X440265651Y-125425617D02*
X440932318Y-125425617D01*
X439884699Y-125187522D02*
X440598984Y-124949427D01*
X440598984Y-124949427D02*
X440598984Y-125568474D01*
X717157318Y-204483355D02*
X716157318Y-204483355D01*
X716157318Y-204483355D02*
X716157318Y-204721450D01*
X716157318Y-204721450D02*
X716204937Y-204864307D01*
X716204937Y-204864307D02*
X716300175Y-204959545D01*
X716300175Y-204959545D02*
X716395413Y-205007164D01*
X716395413Y-205007164D02*
X716585889Y-205054783D01*
X716585889Y-205054783D02*
X716728746Y-205054783D01*
X716728746Y-205054783D02*
X716919222Y-205007164D01*
X716919222Y-205007164D02*
X717014460Y-204959545D01*
X717014460Y-204959545D02*
X717109699Y-204864307D01*
X717109699Y-204864307D02*
X717157318Y-204721450D01*
X717157318Y-204721450D02*
X717157318Y-204483355D01*
X716585889Y-205626212D02*
X716538270Y-205530974D01*
X716538270Y-205530974D02*
X716490651Y-205483355D01*
X716490651Y-205483355D02*
X716395413Y-205435736D01*
X716395413Y-205435736D02*
X716347794Y-205435736D01*
X716347794Y-205435736D02*
X716252556Y-205483355D01*
X716252556Y-205483355D02*
X716204937Y-205530974D01*
X716204937Y-205530974D02*
X716157318Y-205626212D01*
X716157318Y-205626212D02*
X716157318Y-205816688D01*
X716157318Y-205816688D02*
X716204937Y-205911926D01*
X716204937Y-205911926D02*
X716252556Y-205959545D01*
X716252556Y-205959545D02*
X716347794Y-206007164D01*
X716347794Y-206007164D02*
X716395413Y-206007164D01*
X716395413Y-206007164D02*
X716490651Y-205959545D01*
X716490651Y-205959545D02*
X716538270Y-205911926D01*
X716538270Y-205911926D02*
X716585889Y-205816688D01*
X716585889Y-205816688D02*
X716585889Y-205626212D01*
X716585889Y-205626212D02*
X716633508Y-205530974D01*
X716633508Y-205530974D02*
X716681127Y-205483355D01*
X716681127Y-205483355D02*
X716776365Y-205435736D01*
X716776365Y-205435736D02*
X716966841Y-205435736D01*
X716966841Y-205435736D02*
X717062079Y-205483355D01*
X717062079Y-205483355D02*
X717109699Y-205530974D01*
X717109699Y-205530974D02*
X717157318Y-205626212D01*
X717157318Y-205626212D02*
X717157318Y-205816688D01*
X717157318Y-205816688D02*
X717109699Y-205911926D01*
X717109699Y-205911926D02*
X717062079Y-205959545D01*
X717062079Y-205959545D02*
X716966841Y-206007164D01*
X716966841Y-206007164D02*
X716776365Y-206007164D01*
X716776365Y-206007164D02*
X716681127Y-205959545D01*
X716681127Y-205959545D02*
X716633508Y-205911926D01*
X716633508Y-205911926D02*
X716585889Y-205816688D01*
X716157318Y-206340498D02*
X716157318Y-206959545D01*
X716157318Y-206959545D02*
X716538270Y-206626212D01*
X716538270Y-206626212D02*
X716538270Y-206769069D01*
X716538270Y-206769069D02*
X716585889Y-206864307D01*
X716585889Y-206864307D02*
X716633508Y-206911926D01*
X716633508Y-206911926D02*
X716728746Y-206959545D01*
X716728746Y-206959545D02*
X716966841Y-206959545D01*
X716966841Y-206959545D02*
X717062079Y-206911926D01*
X717062079Y-206911926D02*
X717109699Y-206864307D01*
X717109699Y-206864307D02*
X717157318Y-206769069D01*
X717157318Y-206769069D02*
X717157318Y-206483355D01*
X717157318Y-206483355D02*
X717109699Y-206388117D01*
X717109699Y-206388117D02*
X717062079Y-206340498D01*
X698107318Y-204483355D02*
X697107318Y-204483355D01*
X697107318Y-204483355D02*
X697107318Y-204721450D01*
X697107318Y-204721450D02*
X697154937Y-204864307D01*
X697154937Y-204864307D02*
X697250175Y-204959545D01*
X697250175Y-204959545D02*
X697345413Y-205007164D01*
X697345413Y-205007164D02*
X697535889Y-205054783D01*
X697535889Y-205054783D02*
X697678746Y-205054783D01*
X697678746Y-205054783D02*
X697869222Y-205007164D01*
X697869222Y-205007164D02*
X697964460Y-204959545D01*
X697964460Y-204959545D02*
X698059699Y-204864307D01*
X698059699Y-204864307D02*
X698107318Y-204721450D01*
X698107318Y-204721450D02*
X698107318Y-204483355D01*
X697535889Y-205626212D02*
X697488270Y-205530974D01*
X697488270Y-205530974D02*
X697440651Y-205483355D01*
X697440651Y-205483355D02*
X697345413Y-205435736D01*
X697345413Y-205435736D02*
X697297794Y-205435736D01*
X697297794Y-205435736D02*
X697202556Y-205483355D01*
X697202556Y-205483355D02*
X697154937Y-205530974D01*
X697154937Y-205530974D02*
X697107318Y-205626212D01*
X697107318Y-205626212D02*
X697107318Y-205816688D01*
X697107318Y-205816688D02*
X697154937Y-205911926D01*
X697154937Y-205911926D02*
X697202556Y-205959545D01*
X697202556Y-205959545D02*
X697297794Y-206007164D01*
X697297794Y-206007164D02*
X697345413Y-206007164D01*
X697345413Y-206007164D02*
X697440651Y-205959545D01*
X697440651Y-205959545D02*
X697488270Y-205911926D01*
X697488270Y-205911926D02*
X697535889Y-205816688D01*
X697535889Y-205816688D02*
X697535889Y-205626212D01*
X697535889Y-205626212D02*
X697583508Y-205530974D01*
X697583508Y-205530974D02*
X697631127Y-205483355D01*
X697631127Y-205483355D02*
X697726365Y-205435736D01*
X697726365Y-205435736D02*
X697916841Y-205435736D01*
X697916841Y-205435736D02*
X698012079Y-205483355D01*
X698012079Y-205483355D02*
X698059699Y-205530974D01*
X698059699Y-205530974D02*
X698107318Y-205626212D01*
X698107318Y-205626212D02*
X698107318Y-205816688D01*
X698107318Y-205816688D02*
X698059699Y-205911926D01*
X698059699Y-205911926D02*
X698012079Y-205959545D01*
X698012079Y-205959545D02*
X697916841Y-206007164D01*
X697916841Y-206007164D02*
X697726365Y-206007164D01*
X697726365Y-206007164D02*
X697631127Y-205959545D01*
X697631127Y-205959545D02*
X697583508Y-205911926D01*
X697583508Y-205911926D02*
X697535889Y-205816688D01*
X697202556Y-206388117D02*
X697154937Y-206435736D01*
X697154937Y-206435736D02*
X697107318Y-206530974D01*
X697107318Y-206530974D02*
X697107318Y-206769069D01*
X697107318Y-206769069D02*
X697154937Y-206864307D01*
X697154937Y-206864307D02*
X697202556Y-206911926D01*
X697202556Y-206911926D02*
X697297794Y-206959545D01*
X697297794Y-206959545D02*
X697393032Y-206959545D01*
X697393032Y-206959545D02*
X697535889Y-206911926D01*
X697535889Y-206911926D02*
X698107318Y-206340498D01*
X698107318Y-206340498D02*
X698107318Y-206959545D01*
X655244818Y-209245855D02*
X654244818Y-209245855D01*
X654244818Y-209245855D02*
X654244818Y-209483950D01*
X654244818Y-209483950D02*
X654292437Y-209626807D01*
X654292437Y-209626807D02*
X654387675Y-209722045D01*
X654387675Y-209722045D02*
X654482913Y-209769664D01*
X654482913Y-209769664D02*
X654673389Y-209817283D01*
X654673389Y-209817283D02*
X654816246Y-209817283D01*
X654816246Y-209817283D02*
X655006722Y-209769664D01*
X655006722Y-209769664D02*
X655101960Y-209722045D01*
X655101960Y-209722045D02*
X655197199Y-209626807D01*
X655197199Y-209626807D02*
X655244818Y-209483950D01*
X655244818Y-209483950D02*
X655244818Y-209245855D01*
X654244818Y-210150617D02*
X654244818Y-210817283D01*
X654244818Y-210817283D02*
X655244818Y-210388712D01*
X655244818Y-211245855D02*
X655244818Y-211436331D01*
X655244818Y-211436331D02*
X655197199Y-211531569D01*
X655197199Y-211531569D02*
X655149579Y-211579188D01*
X655149579Y-211579188D02*
X655006722Y-211674426D01*
X655006722Y-211674426D02*
X654816246Y-211722045D01*
X654816246Y-211722045D02*
X654435294Y-211722045D01*
X654435294Y-211722045D02*
X654340056Y-211674426D01*
X654340056Y-211674426D02*
X654292437Y-211626807D01*
X654292437Y-211626807D02*
X654244818Y-211531569D01*
X654244818Y-211531569D02*
X654244818Y-211341093D01*
X654244818Y-211341093D02*
X654292437Y-211245855D01*
X654292437Y-211245855D02*
X654340056Y-211198236D01*
X654340056Y-211198236D02*
X654435294Y-211150617D01*
X654435294Y-211150617D02*
X654673389Y-211150617D01*
X654673389Y-211150617D02*
X654768627Y-211198236D01*
X654768627Y-211198236D02*
X654816246Y-211245855D01*
X654816246Y-211245855D02*
X654863865Y-211341093D01*
X654863865Y-211341093D02*
X654863865Y-211531569D01*
X654863865Y-211531569D02*
X654816246Y-211626807D01*
X654816246Y-211626807D02*
X654768627Y-211674426D01*
X654768627Y-211674426D02*
X654673389Y-211722045D01*
X436170318Y-204483355D02*
X435170318Y-204483355D01*
X435170318Y-204483355D02*
X435170318Y-204721450D01*
X435170318Y-204721450D02*
X435217937Y-204864307D01*
X435217937Y-204864307D02*
X435313175Y-204959545D01*
X435313175Y-204959545D02*
X435408413Y-205007164D01*
X435408413Y-205007164D02*
X435598889Y-205054783D01*
X435598889Y-205054783D02*
X435741746Y-205054783D01*
X435741746Y-205054783D02*
X435932222Y-205007164D01*
X435932222Y-205007164D02*
X436027460Y-204959545D01*
X436027460Y-204959545D02*
X436122699Y-204864307D01*
X436122699Y-204864307D02*
X436170318Y-204721450D01*
X436170318Y-204721450D02*
X436170318Y-204483355D01*
X435170318Y-205911926D02*
X435170318Y-205721450D01*
X435170318Y-205721450D02*
X435217937Y-205626212D01*
X435217937Y-205626212D02*
X435265556Y-205578593D01*
X435265556Y-205578593D02*
X435408413Y-205483355D01*
X435408413Y-205483355D02*
X435598889Y-205435736D01*
X435598889Y-205435736D02*
X435979841Y-205435736D01*
X435979841Y-205435736D02*
X436075079Y-205483355D01*
X436075079Y-205483355D02*
X436122699Y-205530974D01*
X436122699Y-205530974D02*
X436170318Y-205626212D01*
X436170318Y-205626212D02*
X436170318Y-205816688D01*
X436170318Y-205816688D02*
X436122699Y-205911926D01*
X436122699Y-205911926D02*
X436075079Y-205959545D01*
X436075079Y-205959545D02*
X435979841Y-206007164D01*
X435979841Y-206007164D02*
X435741746Y-206007164D01*
X435741746Y-206007164D02*
X435646508Y-205959545D01*
X435646508Y-205959545D02*
X435598889Y-205911926D01*
X435598889Y-205911926D02*
X435551270Y-205816688D01*
X435551270Y-205816688D02*
X435551270Y-205626212D01*
X435551270Y-205626212D02*
X435598889Y-205530974D01*
X435598889Y-205530974D02*
X435646508Y-205483355D01*
X435646508Y-205483355D02*
X435741746Y-205435736D01*
X436170318Y-206483355D02*
X436170318Y-206673831D01*
X436170318Y-206673831D02*
X436122699Y-206769069D01*
X436122699Y-206769069D02*
X436075079Y-206816688D01*
X436075079Y-206816688D02*
X435932222Y-206911926D01*
X435932222Y-206911926D02*
X435741746Y-206959545D01*
X435741746Y-206959545D02*
X435360794Y-206959545D01*
X435360794Y-206959545D02*
X435265556Y-206911926D01*
X435265556Y-206911926D02*
X435217937Y-206864307D01*
X435217937Y-206864307D02*
X435170318Y-206769069D01*
X435170318Y-206769069D02*
X435170318Y-206578593D01*
X435170318Y-206578593D02*
X435217937Y-206483355D01*
X435217937Y-206483355D02*
X435265556Y-206435736D01*
X435265556Y-206435736D02*
X435360794Y-206388117D01*
X435360794Y-206388117D02*
X435598889Y-206388117D01*
X435598889Y-206388117D02*
X435694127Y-206435736D01*
X435694127Y-206435736D02*
X435741746Y-206483355D01*
X435741746Y-206483355D02*
X435789365Y-206578593D01*
X435789365Y-206578593D02*
X435789365Y-206769069D01*
X435789365Y-206769069D02*
X435741746Y-206864307D01*
X435741746Y-206864307D02*
X435694127Y-206911926D01*
X435694127Y-206911926D02*
X435598889Y-206959545D01*
X598094818Y-185433355D02*
X597094818Y-185433355D01*
X597094818Y-185433355D02*
X597094818Y-185671450D01*
X597094818Y-185671450D02*
X597142437Y-185814307D01*
X597142437Y-185814307D02*
X597237675Y-185909545D01*
X597237675Y-185909545D02*
X597332913Y-185957164D01*
X597332913Y-185957164D02*
X597523389Y-186004783D01*
X597523389Y-186004783D02*
X597666246Y-186004783D01*
X597666246Y-186004783D02*
X597856722Y-185957164D01*
X597856722Y-185957164D02*
X597951960Y-185909545D01*
X597951960Y-185909545D02*
X598047199Y-185814307D01*
X598047199Y-185814307D02*
X598094818Y-185671450D01*
X598094818Y-185671450D02*
X598094818Y-185433355D01*
X597094818Y-186861926D02*
X597094818Y-186671450D01*
X597094818Y-186671450D02*
X597142437Y-186576212D01*
X597142437Y-186576212D02*
X597190056Y-186528593D01*
X597190056Y-186528593D02*
X597332913Y-186433355D01*
X597332913Y-186433355D02*
X597523389Y-186385736D01*
X597523389Y-186385736D02*
X597904341Y-186385736D01*
X597904341Y-186385736D02*
X597999579Y-186433355D01*
X597999579Y-186433355D02*
X598047199Y-186480974D01*
X598047199Y-186480974D02*
X598094818Y-186576212D01*
X598094818Y-186576212D02*
X598094818Y-186766688D01*
X598094818Y-186766688D02*
X598047199Y-186861926D01*
X598047199Y-186861926D02*
X597999579Y-186909545D01*
X597999579Y-186909545D02*
X597904341Y-186957164D01*
X597904341Y-186957164D02*
X597666246Y-186957164D01*
X597666246Y-186957164D02*
X597571008Y-186909545D01*
X597571008Y-186909545D02*
X597523389Y-186861926D01*
X597523389Y-186861926D02*
X597475770Y-186766688D01*
X597475770Y-186766688D02*
X597475770Y-186576212D01*
X597475770Y-186576212D02*
X597523389Y-186480974D01*
X597523389Y-186480974D02*
X597571008Y-186433355D01*
X597571008Y-186433355D02*
X597666246Y-186385736D01*
X598094818Y-187909545D02*
X598094818Y-187338117D01*
X598094818Y-187623831D02*
X597094818Y-187623831D01*
X597094818Y-187623831D02*
X597237675Y-187528593D01*
X597237675Y-187528593D02*
X597332913Y-187433355D01*
X597332913Y-187433355D02*
X597380532Y-187338117D01*
X412357318Y-204483355D02*
X411357318Y-204483355D01*
X411357318Y-204483355D02*
X411357318Y-204721450D01*
X411357318Y-204721450D02*
X411404937Y-204864307D01*
X411404937Y-204864307D02*
X411500175Y-204959545D01*
X411500175Y-204959545D02*
X411595413Y-205007164D01*
X411595413Y-205007164D02*
X411785889Y-205054783D01*
X411785889Y-205054783D02*
X411928746Y-205054783D01*
X411928746Y-205054783D02*
X412119222Y-205007164D01*
X412119222Y-205007164D02*
X412214460Y-204959545D01*
X412214460Y-204959545D02*
X412309699Y-204864307D01*
X412309699Y-204864307D02*
X412357318Y-204721450D01*
X412357318Y-204721450D02*
X412357318Y-204483355D01*
X411357318Y-205911926D02*
X411357318Y-205721450D01*
X411357318Y-205721450D02*
X411404937Y-205626212D01*
X411404937Y-205626212D02*
X411452556Y-205578593D01*
X411452556Y-205578593D02*
X411595413Y-205483355D01*
X411595413Y-205483355D02*
X411785889Y-205435736D01*
X411785889Y-205435736D02*
X412166841Y-205435736D01*
X412166841Y-205435736D02*
X412262079Y-205483355D01*
X412262079Y-205483355D02*
X412309699Y-205530974D01*
X412309699Y-205530974D02*
X412357318Y-205626212D01*
X412357318Y-205626212D02*
X412357318Y-205816688D01*
X412357318Y-205816688D02*
X412309699Y-205911926D01*
X412309699Y-205911926D02*
X412262079Y-205959545D01*
X412262079Y-205959545D02*
X412166841Y-206007164D01*
X412166841Y-206007164D02*
X411928746Y-206007164D01*
X411928746Y-206007164D02*
X411833508Y-205959545D01*
X411833508Y-205959545D02*
X411785889Y-205911926D01*
X411785889Y-205911926D02*
X411738270Y-205816688D01*
X411738270Y-205816688D02*
X411738270Y-205626212D01*
X411738270Y-205626212D02*
X411785889Y-205530974D01*
X411785889Y-205530974D02*
X411833508Y-205483355D01*
X411833508Y-205483355D02*
X411928746Y-205435736D01*
X411785889Y-206578593D02*
X411738270Y-206483355D01*
X411738270Y-206483355D02*
X411690651Y-206435736D01*
X411690651Y-206435736D02*
X411595413Y-206388117D01*
X411595413Y-206388117D02*
X411547794Y-206388117D01*
X411547794Y-206388117D02*
X411452556Y-206435736D01*
X411452556Y-206435736D02*
X411404937Y-206483355D01*
X411404937Y-206483355D02*
X411357318Y-206578593D01*
X411357318Y-206578593D02*
X411357318Y-206769069D01*
X411357318Y-206769069D02*
X411404937Y-206864307D01*
X411404937Y-206864307D02*
X411452556Y-206911926D01*
X411452556Y-206911926D02*
X411547794Y-206959545D01*
X411547794Y-206959545D02*
X411595413Y-206959545D01*
X411595413Y-206959545D02*
X411690651Y-206911926D01*
X411690651Y-206911926D02*
X411738270Y-206864307D01*
X411738270Y-206864307D02*
X411785889Y-206769069D01*
X411785889Y-206769069D02*
X411785889Y-206578593D01*
X411785889Y-206578593D02*
X411833508Y-206483355D01*
X411833508Y-206483355D02*
X411881127Y-206435736D01*
X411881127Y-206435736D02*
X411976365Y-206388117D01*
X411976365Y-206388117D02*
X412166841Y-206388117D01*
X412166841Y-206388117D02*
X412262079Y-206435736D01*
X412262079Y-206435736D02*
X412309699Y-206483355D01*
X412309699Y-206483355D02*
X412357318Y-206578593D01*
X412357318Y-206578593D02*
X412357318Y-206769069D01*
X412357318Y-206769069D02*
X412309699Y-206864307D01*
X412309699Y-206864307D02*
X412262079Y-206911926D01*
X412262079Y-206911926D02*
X412166841Y-206959545D01*
X412166841Y-206959545D02*
X411976365Y-206959545D01*
X411976365Y-206959545D02*
X411881127Y-206911926D01*
X411881127Y-206911926D02*
X411833508Y-206864307D01*
X411833508Y-206864307D02*
X411785889Y-206769069D01*
X624288818Y-185433355D02*
X623288818Y-185433355D01*
X623288818Y-185433355D02*
X623288818Y-185671450D01*
X623288818Y-185671450D02*
X623336437Y-185814307D01*
X623336437Y-185814307D02*
X623431675Y-185909545D01*
X623431675Y-185909545D02*
X623526913Y-185957164D01*
X623526913Y-185957164D02*
X623717389Y-186004783D01*
X623717389Y-186004783D02*
X623860246Y-186004783D01*
X623860246Y-186004783D02*
X624050722Y-185957164D01*
X624050722Y-185957164D02*
X624145960Y-185909545D01*
X624145960Y-185909545D02*
X624241199Y-185814307D01*
X624241199Y-185814307D02*
X624288818Y-185671450D01*
X624288818Y-185671450D02*
X624288818Y-185433355D01*
X623288818Y-186861926D02*
X623288818Y-186671450D01*
X623288818Y-186671450D02*
X623336437Y-186576212D01*
X623336437Y-186576212D02*
X623384056Y-186528593D01*
X623384056Y-186528593D02*
X623526913Y-186433355D01*
X623526913Y-186433355D02*
X623717389Y-186385736D01*
X623717389Y-186385736D02*
X624098341Y-186385736D01*
X624098341Y-186385736D02*
X624193579Y-186433355D01*
X624193579Y-186433355D02*
X624241199Y-186480974D01*
X624241199Y-186480974D02*
X624288818Y-186576212D01*
X624288818Y-186576212D02*
X624288818Y-186766688D01*
X624288818Y-186766688D02*
X624241199Y-186861926D01*
X624241199Y-186861926D02*
X624193579Y-186909545D01*
X624193579Y-186909545D02*
X624098341Y-186957164D01*
X624098341Y-186957164D02*
X623860246Y-186957164D01*
X623860246Y-186957164D02*
X623765008Y-186909545D01*
X623765008Y-186909545D02*
X623717389Y-186861926D01*
X623717389Y-186861926D02*
X623669770Y-186766688D01*
X623669770Y-186766688D02*
X623669770Y-186576212D01*
X623669770Y-186576212D02*
X623717389Y-186480974D01*
X623717389Y-186480974D02*
X623765008Y-186433355D01*
X623765008Y-186433355D02*
X623860246Y-186385736D01*
X623384056Y-187338117D02*
X623336437Y-187385736D01*
X623336437Y-187385736D02*
X623288818Y-187480974D01*
X623288818Y-187480974D02*
X623288818Y-187719069D01*
X623288818Y-187719069D02*
X623336437Y-187814307D01*
X623336437Y-187814307D02*
X623384056Y-187861926D01*
X623384056Y-187861926D02*
X623479294Y-187909545D01*
X623479294Y-187909545D02*
X623574532Y-187909545D01*
X623574532Y-187909545D02*
X623717389Y-187861926D01*
X623717389Y-187861926D02*
X624288818Y-187290498D01*
X624288818Y-187290498D02*
X624288818Y-187909545D01*
X388545318Y-204483355D02*
X387545318Y-204483355D01*
X387545318Y-204483355D02*
X387545318Y-204721450D01*
X387545318Y-204721450D02*
X387592937Y-204864307D01*
X387592937Y-204864307D02*
X387688175Y-204959545D01*
X387688175Y-204959545D02*
X387783413Y-205007164D01*
X387783413Y-205007164D02*
X387973889Y-205054783D01*
X387973889Y-205054783D02*
X388116746Y-205054783D01*
X388116746Y-205054783D02*
X388307222Y-205007164D01*
X388307222Y-205007164D02*
X388402460Y-204959545D01*
X388402460Y-204959545D02*
X388497699Y-204864307D01*
X388497699Y-204864307D02*
X388545318Y-204721450D01*
X388545318Y-204721450D02*
X388545318Y-204483355D01*
X387545318Y-205911926D02*
X387545318Y-205721450D01*
X387545318Y-205721450D02*
X387592937Y-205626212D01*
X387592937Y-205626212D02*
X387640556Y-205578593D01*
X387640556Y-205578593D02*
X387783413Y-205483355D01*
X387783413Y-205483355D02*
X387973889Y-205435736D01*
X387973889Y-205435736D02*
X388354841Y-205435736D01*
X388354841Y-205435736D02*
X388450079Y-205483355D01*
X388450079Y-205483355D02*
X388497699Y-205530974D01*
X388497699Y-205530974D02*
X388545318Y-205626212D01*
X388545318Y-205626212D02*
X388545318Y-205816688D01*
X388545318Y-205816688D02*
X388497699Y-205911926D01*
X388497699Y-205911926D02*
X388450079Y-205959545D01*
X388450079Y-205959545D02*
X388354841Y-206007164D01*
X388354841Y-206007164D02*
X388116746Y-206007164D01*
X388116746Y-206007164D02*
X388021508Y-205959545D01*
X388021508Y-205959545D02*
X387973889Y-205911926D01*
X387973889Y-205911926D02*
X387926270Y-205816688D01*
X387926270Y-205816688D02*
X387926270Y-205626212D01*
X387926270Y-205626212D02*
X387973889Y-205530974D01*
X387973889Y-205530974D02*
X388021508Y-205483355D01*
X388021508Y-205483355D02*
X388116746Y-205435736D01*
X387878651Y-206864307D02*
X388545318Y-206864307D01*
X387497699Y-206626212D02*
X388211984Y-206388117D01*
X388211984Y-206388117D02*
X388211984Y-207007164D01*
X655244818Y-190195855D02*
X654244818Y-190195855D01*
X654244818Y-190195855D02*
X654244818Y-190433950D01*
X654244818Y-190433950D02*
X654292437Y-190576807D01*
X654292437Y-190576807D02*
X654387675Y-190672045D01*
X654387675Y-190672045D02*
X654482913Y-190719664D01*
X654482913Y-190719664D02*
X654673389Y-190767283D01*
X654673389Y-190767283D02*
X654816246Y-190767283D01*
X654816246Y-190767283D02*
X655006722Y-190719664D01*
X655006722Y-190719664D02*
X655101960Y-190672045D01*
X655101960Y-190672045D02*
X655197199Y-190576807D01*
X655197199Y-190576807D02*
X655244818Y-190433950D01*
X655244818Y-190433950D02*
X655244818Y-190195855D01*
X654244818Y-191624426D02*
X654244818Y-191433950D01*
X654244818Y-191433950D02*
X654292437Y-191338712D01*
X654292437Y-191338712D02*
X654340056Y-191291093D01*
X654340056Y-191291093D02*
X654482913Y-191195855D01*
X654482913Y-191195855D02*
X654673389Y-191148236D01*
X654673389Y-191148236D02*
X655054341Y-191148236D01*
X655054341Y-191148236D02*
X655149579Y-191195855D01*
X655149579Y-191195855D02*
X655197199Y-191243474D01*
X655197199Y-191243474D02*
X655244818Y-191338712D01*
X655244818Y-191338712D02*
X655244818Y-191529188D01*
X655244818Y-191529188D02*
X655197199Y-191624426D01*
X655197199Y-191624426D02*
X655149579Y-191672045D01*
X655149579Y-191672045D02*
X655054341Y-191719664D01*
X655054341Y-191719664D02*
X654816246Y-191719664D01*
X654816246Y-191719664D02*
X654721008Y-191672045D01*
X654721008Y-191672045D02*
X654673389Y-191624426D01*
X654673389Y-191624426D02*
X654625770Y-191529188D01*
X654625770Y-191529188D02*
X654625770Y-191338712D01*
X654625770Y-191338712D02*
X654673389Y-191243474D01*
X654673389Y-191243474D02*
X654721008Y-191195855D01*
X654721008Y-191195855D02*
X654816246Y-191148236D01*
X654244818Y-192052998D02*
X654244818Y-192672045D01*
X654244818Y-192672045D02*
X654625770Y-192338712D01*
X654625770Y-192338712D02*
X654625770Y-192481569D01*
X654625770Y-192481569D02*
X654673389Y-192576807D01*
X654673389Y-192576807D02*
X654721008Y-192624426D01*
X654721008Y-192624426D02*
X654816246Y-192672045D01*
X654816246Y-192672045D02*
X655054341Y-192672045D01*
X655054341Y-192672045D02*
X655149579Y-192624426D01*
X655149579Y-192624426D02*
X655197199Y-192576807D01*
X655197199Y-192576807D02*
X655244818Y-192481569D01*
X655244818Y-192481569D02*
X655244818Y-192195855D01*
X655244818Y-192195855D02*
X655197199Y-192100617D01*
X655197199Y-192100617D02*
X655149579Y-192052998D01*
X540944818Y-185433355D02*
X539944818Y-185433355D01*
X539944818Y-185433355D02*
X539944818Y-185671450D01*
X539944818Y-185671450D02*
X539992437Y-185814307D01*
X539992437Y-185814307D02*
X540087675Y-185909545D01*
X540087675Y-185909545D02*
X540182913Y-185957164D01*
X540182913Y-185957164D02*
X540373389Y-186004783D01*
X540373389Y-186004783D02*
X540516246Y-186004783D01*
X540516246Y-186004783D02*
X540706722Y-185957164D01*
X540706722Y-185957164D02*
X540801960Y-185909545D01*
X540801960Y-185909545D02*
X540897199Y-185814307D01*
X540897199Y-185814307D02*
X540944818Y-185671450D01*
X540944818Y-185671450D02*
X540944818Y-185433355D01*
X539944818Y-186909545D02*
X539944818Y-186433355D01*
X539944818Y-186433355D02*
X540421008Y-186385736D01*
X540421008Y-186385736D02*
X540373389Y-186433355D01*
X540373389Y-186433355D02*
X540325770Y-186528593D01*
X540325770Y-186528593D02*
X540325770Y-186766688D01*
X540325770Y-186766688D02*
X540373389Y-186861926D01*
X540373389Y-186861926D02*
X540421008Y-186909545D01*
X540421008Y-186909545D02*
X540516246Y-186957164D01*
X540516246Y-186957164D02*
X540754341Y-186957164D01*
X540754341Y-186957164D02*
X540849579Y-186909545D01*
X540849579Y-186909545D02*
X540897199Y-186861926D01*
X540897199Y-186861926D02*
X540944818Y-186766688D01*
X540944818Y-186766688D02*
X540944818Y-186528593D01*
X540944818Y-186528593D02*
X540897199Y-186433355D01*
X540897199Y-186433355D02*
X540849579Y-186385736D01*
X540373389Y-187528593D02*
X540325770Y-187433355D01*
X540325770Y-187433355D02*
X540278151Y-187385736D01*
X540278151Y-187385736D02*
X540182913Y-187338117D01*
X540182913Y-187338117D02*
X540135294Y-187338117D01*
X540135294Y-187338117D02*
X540040056Y-187385736D01*
X540040056Y-187385736D02*
X539992437Y-187433355D01*
X539992437Y-187433355D02*
X539944818Y-187528593D01*
X539944818Y-187528593D02*
X539944818Y-187719069D01*
X539944818Y-187719069D02*
X539992437Y-187814307D01*
X539992437Y-187814307D02*
X540040056Y-187861926D01*
X540040056Y-187861926D02*
X540135294Y-187909545D01*
X540135294Y-187909545D02*
X540182913Y-187909545D01*
X540182913Y-187909545D02*
X540278151Y-187861926D01*
X540278151Y-187861926D02*
X540325770Y-187814307D01*
X540325770Y-187814307D02*
X540373389Y-187719069D01*
X540373389Y-187719069D02*
X540373389Y-187528593D01*
X540373389Y-187528593D02*
X540421008Y-187433355D01*
X540421008Y-187433355D02*
X540468627Y-187385736D01*
X540468627Y-187385736D02*
X540563865Y-187338117D01*
X540563865Y-187338117D02*
X540754341Y-187338117D01*
X540754341Y-187338117D02*
X540849579Y-187385736D01*
X540849579Y-187385736D02*
X540897199Y-187433355D01*
X540897199Y-187433355D02*
X540944818Y-187528593D01*
X540944818Y-187528593D02*
X540944818Y-187719069D01*
X540944818Y-187719069D02*
X540897199Y-187814307D01*
X540897199Y-187814307D02*
X540849579Y-187861926D01*
X540849579Y-187861926D02*
X540754341Y-187909545D01*
X540754341Y-187909545D02*
X540563865Y-187909545D01*
X540563865Y-187909545D02*
X540468627Y-187861926D01*
X540468627Y-187861926D02*
X540421008Y-187814307D01*
X540421008Y-187814307D02*
X540373389Y-187719069D01*
X579044818Y-185433355D02*
X578044818Y-185433355D01*
X578044818Y-185433355D02*
X578044818Y-185671450D01*
X578044818Y-185671450D02*
X578092437Y-185814307D01*
X578092437Y-185814307D02*
X578187675Y-185909545D01*
X578187675Y-185909545D02*
X578282913Y-185957164D01*
X578282913Y-185957164D02*
X578473389Y-186004783D01*
X578473389Y-186004783D02*
X578616246Y-186004783D01*
X578616246Y-186004783D02*
X578806722Y-185957164D01*
X578806722Y-185957164D02*
X578901960Y-185909545D01*
X578901960Y-185909545D02*
X578997199Y-185814307D01*
X578997199Y-185814307D02*
X579044818Y-185671450D01*
X579044818Y-185671450D02*
X579044818Y-185433355D01*
X578044818Y-186861926D02*
X578044818Y-186671450D01*
X578044818Y-186671450D02*
X578092437Y-186576212D01*
X578092437Y-186576212D02*
X578140056Y-186528593D01*
X578140056Y-186528593D02*
X578282913Y-186433355D01*
X578282913Y-186433355D02*
X578473389Y-186385736D01*
X578473389Y-186385736D02*
X578854341Y-186385736D01*
X578854341Y-186385736D02*
X578949579Y-186433355D01*
X578949579Y-186433355D02*
X578997199Y-186480974D01*
X578997199Y-186480974D02*
X579044818Y-186576212D01*
X579044818Y-186576212D02*
X579044818Y-186766688D01*
X579044818Y-186766688D02*
X578997199Y-186861926D01*
X578997199Y-186861926D02*
X578949579Y-186909545D01*
X578949579Y-186909545D02*
X578854341Y-186957164D01*
X578854341Y-186957164D02*
X578616246Y-186957164D01*
X578616246Y-186957164D02*
X578521008Y-186909545D01*
X578521008Y-186909545D02*
X578473389Y-186861926D01*
X578473389Y-186861926D02*
X578425770Y-186766688D01*
X578425770Y-186766688D02*
X578425770Y-186576212D01*
X578425770Y-186576212D02*
X578473389Y-186480974D01*
X578473389Y-186480974D02*
X578521008Y-186433355D01*
X578521008Y-186433355D02*
X578616246Y-186385736D01*
X578044818Y-187576212D02*
X578044818Y-187671450D01*
X578044818Y-187671450D02*
X578092437Y-187766688D01*
X578092437Y-187766688D02*
X578140056Y-187814307D01*
X578140056Y-187814307D02*
X578235294Y-187861926D01*
X578235294Y-187861926D02*
X578425770Y-187909545D01*
X578425770Y-187909545D02*
X578663865Y-187909545D01*
X578663865Y-187909545D02*
X578854341Y-187861926D01*
X578854341Y-187861926D02*
X578949579Y-187814307D01*
X578949579Y-187814307D02*
X578997199Y-187766688D01*
X578997199Y-187766688D02*
X579044818Y-187671450D01*
X579044818Y-187671450D02*
X579044818Y-187576212D01*
X579044818Y-187576212D02*
X578997199Y-187480974D01*
X578997199Y-187480974D02*
X578949579Y-187433355D01*
X578949579Y-187433355D02*
X578854341Y-187385736D01*
X578854341Y-187385736D02*
X578663865Y-187338117D01*
X578663865Y-187338117D02*
X578425770Y-187338117D01*
X578425770Y-187338117D02*
X578235294Y-187385736D01*
X578235294Y-187385736D02*
X578140056Y-187433355D01*
X578140056Y-187433355D02*
X578092437Y-187480974D01*
X578092437Y-187480974D02*
X578044818Y-187576212D01*
X612382318Y-204483355D02*
X611382318Y-204483355D01*
X611382318Y-204483355D02*
X611382318Y-204721450D01*
X611382318Y-204721450D02*
X611429937Y-204864307D01*
X611429937Y-204864307D02*
X611525175Y-204959545D01*
X611525175Y-204959545D02*
X611620413Y-205007164D01*
X611620413Y-205007164D02*
X611810889Y-205054783D01*
X611810889Y-205054783D02*
X611953746Y-205054783D01*
X611953746Y-205054783D02*
X612144222Y-205007164D01*
X612144222Y-205007164D02*
X612239460Y-204959545D01*
X612239460Y-204959545D02*
X612334699Y-204864307D01*
X612334699Y-204864307D02*
X612382318Y-204721450D01*
X612382318Y-204721450D02*
X612382318Y-204483355D01*
X611382318Y-205388117D02*
X611382318Y-206054783D01*
X611382318Y-206054783D02*
X612382318Y-205626212D01*
X611382318Y-206340498D02*
X611382318Y-207007164D01*
X611382318Y-207007164D02*
X612382318Y-206578593D01*
X593332318Y-204483355D02*
X592332318Y-204483355D01*
X592332318Y-204483355D02*
X592332318Y-204721450D01*
X592332318Y-204721450D02*
X592379937Y-204864307D01*
X592379937Y-204864307D02*
X592475175Y-204959545D01*
X592475175Y-204959545D02*
X592570413Y-205007164D01*
X592570413Y-205007164D02*
X592760889Y-205054783D01*
X592760889Y-205054783D02*
X592903746Y-205054783D01*
X592903746Y-205054783D02*
X593094222Y-205007164D01*
X593094222Y-205007164D02*
X593189460Y-204959545D01*
X593189460Y-204959545D02*
X593284699Y-204864307D01*
X593284699Y-204864307D02*
X593332318Y-204721450D01*
X593332318Y-204721450D02*
X593332318Y-204483355D01*
X592332318Y-205388117D02*
X592332318Y-206054783D01*
X592332318Y-206054783D02*
X593332318Y-205626212D01*
X592332318Y-206864307D02*
X592332318Y-206673831D01*
X592332318Y-206673831D02*
X592379937Y-206578593D01*
X592379937Y-206578593D02*
X592427556Y-206530974D01*
X592427556Y-206530974D02*
X592570413Y-206435736D01*
X592570413Y-206435736D02*
X592760889Y-206388117D01*
X592760889Y-206388117D02*
X593141841Y-206388117D01*
X593141841Y-206388117D02*
X593237079Y-206435736D01*
X593237079Y-206435736D02*
X593284699Y-206483355D01*
X593284699Y-206483355D02*
X593332318Y-206578593D01*
X593332318Y-206578593D02*
X593332318Y-206769069D01*
X593332318Y-206769069D02*
X593284699Y-206864307D01*
X593284699Y-206864307D02*
X593237079Y-206911926D01*
X593237079Y-206911926D02*
X593141841Y-206959545D01*
X593141841Y-206959545D02*
X592903746Y-206959545D01*
X592903746Y-206959545D02*
X592808508Y-206911926D01*
X592808508Y-206911926D02*
X592760889Y-206864307D01*
X592760889Y-206864307D02*
X592713270Y-206769069D01*
X592713270Y-206769069D02*
X592713270Y-206578593D01*
X592713270Y-206578593D02*
X592760889Y-206483355D01*
X592760889Y-206483355D02*
X592808508Y-206435736D01*
X592808508Y-206435736D02*
X592903746Y-206388117D01*
X698107318Y-185433355D02*
X697107318Y-185433355D01*
X697107318Y-185433355D02*
X697107318Y-185671450D01*
X697107318Y-185671450D02*
X697154937Y-185814307D01*
X697154937Y-185814307D02*
X697250175Y-185909545D01*
X697250175Y-185909545D02*
X697345413Y-185957164D01*
X697345413Y-185957164D02*
X697535889Y-186004783D01*
X697535889Y-186004783D02*
X697678746Y-186004783D01*
X697678746Y-186004783D02*
X697869222Y-185957164D01*
X697869222Y-185957164D02*
X697964460Y-185909545D01*
X697964460Y-185909545D02*
X698059699Y-185814307D01*
X698059699Y-185814307D02*
X698107318Y-185671450D01*
X698107318Y-185671450D02*
X698107318Y-185433355D01*
X697107318Y-186861926D02*
X697107318Y-186671450D01*
X697107318Y-186671450D02*
X697154937Y-186576212D01*
X697154937Y-186576212D02*
X697202556Y-186528593D01*
X697202556Y-186528593D02*
X697345413Y-186433355D01*
X697345413Y-186433355D02*
X697535889Y-186385736D01*
X697535889Y-186385736D02*
X697916841Y-186385736D01*
X697916841Y-186385736D02*
X698012079Y-186433355D01*
X698012079Y-186433355D02*
X698059699Y-186480974D01*
X698059699Y-186480974D02*
X698107318Y-186576212D01*
X698107318Y-186576212D02*
X698107318Y-186766688D01*
X698107318Y-186766688D02*
X698059699Y-186861926D01*
X698059699Y-186861926D02*
X698012079Y-186909545D01*
X698012079Y-186909545D02*
X697916841Y-186957164D01*
X697916841Y-186957164D02*
X697678746Y-186957164D01*
X697678746Y-186957164D02*
X697583508Y-186909545D01*
X697583508Y-186909545D02*
X697535889Y-186861926D01*
X697535889Y-186861926D02*
X697488270Y-186766688D01*
X697488270Y-186766688D02*
X697488270Y-186576212D01*
X697488270Y-186576212D02*
X697535889Y-186480974D01*
X697535889Y-186480974D02*
X697583508Y-186433355D01*
X697583508Y-186433355D02*
X697678746Y-186385736D01*
X697107318Y-187814307D02*
X697107318Y-187623831D01*
X697107318Y-187623831D02*
X697154937Y-187528593D01*
X697154937Y-187528593D02*
X697202556Y-187480974D01*
X697202556Y-187480974D02*
X697345413Y-187385736D01*
X697345413Y-187385736D02*
X697535889Y-187338117D01*
X697535889Y-187338117D02*
X697916841Y-187338117D01*
X697916841Y-187338117D02*
X698012079Y-187385736D01*
X698012079Y-187385736D02*
X698059699Y-187433355D01*
X698059699Y-187433355D02*
X698107318Y-187528593D01*
X698107318Y-187528593D02*
X698107318Y-187719069D01*
X698107318Y-187719069D02*
X698059699Y-187814307D01*
X698059699Y-187814307D02*
X698012079Y-187861926D01*
X698012079Y-187861926D02*
X697916841Y-187909545D01*
X697916841Y-187909545D02*
X697678746Y-187909545D01*
X697678746Y-187909545D02*
X697583508Y-187861926D01*
X697583508Y-187861926D02*
X697535889Y-187814307D01*
X697535889Y-187814307D02*
X697488270Y-187719069D01*
X697488270Y-187719069D02*
X697488270Y-187528593D01*
X697488270Y-187528593D02*
X697535889Y-187433355D01*
X697535889Y-187433355D02*
X697583508Y-187385736D01*
X697583508Y-187385736D02*
X697678746Y-187338117D01*
X559994818Y-185433355D02*
X558994818Y-185433355D01*
X558994818Y-185433355D02*
X558994818Y-185671450D01*
X558994818Y-185671450D02*
X559042437Y-185814307D01*
X559042437Y-185814307D02*
X559137675Y-185909545D01*
X559137675Y-185909545D02*
X559232913Y-185957164D01*
X559232913Y-185957164D02*
X559423389Y-186004783D01*
X559423389Y-186004783D02*
X559566246Y-186004783D01*
X559566246Y-186004783D02*
X559756722Y-185957164D01*
X559756722Y-185957164D02*
X559851960Y-185909545D01*
X559851960Y-185909545D02*
X559947199Y-185814307D01*
X559947199Y-185814307D02*
X559994818Y-185671450D01*
X559994818Y-185671450D02*
X559994818Y-185433355D01*
X558994818Y-186909545D02*
X558994818Y-186433355D01*
X558994818Y-186433355D02*
X559471008Y-186385736D01*
X559471008Y-186385736D02*
X559423389Y-186433355D01*
X559423389Y-186433355D02*
X559375770Y-186528593D01*
X559375770Y-186528593D02*
X559375770Y-186766688D01*
X559375770Y-186766688D02*
X559423389Y-186861926D01*
X559423389Y-186861926D02*
X559471008Y-186909545D01*
X559471008Y-186909545D02*
X559566246Y-186957164D01*
X559566246Y-186957164D02*
X559804341Y-186957164D01*
X559804341Y-186957164D02*
X559899579Y-186909545D01*
X559899579Y-186909545D02*
X559947199Y-186861926D01*
X559947199Y-186861926D02*
X559994818Y-186766688D01*
X559994818Y-186766688D02*
X559994818Y-186528593D01*
X559994818Y-186528593D02*
X559947199Y-186433355D01*
X559947199Y-186433355D02*
X559899579Y-186385736D01*
X559994818Y-187433355D02*
X559994818Y-187623831D01*
X559994818Y-187623831D02*
X559947199Y-187719069D01*
X559947199Y-187719069D02*
X559899579Y-187766688D01*
X559899579Y-187766688D02*
X559756722Y-187861926D01*
X559756722Y-187861926D02*
X559566246Y-187909545D01*
X559566246Y-187909545D02*
X559185294Y-187909545D01*
X559185294Y-187909545D02*
X559090056Y-187861926D01*
X559090056Y-187861926D02*
X559042437Y-187814307D01*
X559042437Y-187814307D02*
X558994818Y-187719069D01*
X558994818Y-187719069D02*
X558994818Y-187528593D01*
X558994818Y-187528593D02*
X559042437Y-187433355D01*
X559042437Y-187433355D02*
X559090056Y-187385736D01*
X559090056Y-187385736D02*
X559185294Y-187338117D01*
X559185294Y-187338117D02*
X559423389Y-187338117D01*
X559423389Y-187338117D02*
X559518627Y-187385736D01*
X559518627Y-187385736D02*
X559566246Y-187433355D01*
X559566246Y-187433355D02*
X559613865Y-187528593D01*
X559613865Y-187528593D02*
X559613865Y-187719069D01*
X559613865Y-187719069D02*
X559566246Y-187814307D01*
X559566246Y-187814307D02*
X559518627Y-187861926D01*
X559518627Y-187861926D02*
X559423389Y-187909545D01*
X717157318Y-185433355D02*
X716157318Y-185433355D01*
X716157318Y-185433355D02*
X716157318Y-185671450D01*
X716157318Y-185671450D02*
X716204937Y-185814307D01*
X716204937Y-185814307D02*
X716300175Y-185909545D01*
X716300175Y-185909545D02*
X716395413Y-185957164D01*
X716395413Y-185957164D02*
X716585889Y-186004783D01*
X716585889Y-186004783D02*
X716728746Y-186004783D01*
X716728746Y-186004783D02*
X716919222Y-185957164D01*
X716919222Y-185957164D02*
X717014460Y-185909545D01*
X717014460Y-185909545D02*
X717109699Y-185814307D01*
X717109699Y-185814307D02*
X717157318Y-185671450D01*
X717157318Y-185671450D02*
X717157318Y-185433355D01*
X716157318Y-186861926D02*
X716157318Y-186671450D01*
X716157318Y-186671450D02*
X716204937Y-186576212D01*
X716204937Y-186576212D02*
X716252556Y-186528593D01*
X716252556Y-186528593D02*
X716395413Y-186433355D01*
X716395413Y-186433355D02*
X716585889Y-186385736D01*
X716585889Y-186385736D02*
X716966841Y-186385736D01*
X716966841Y-186385736D02*
X717062079Y-186433355D01*
X717062079Y-186433355D02*
X717109699Y-186480974D01*
X717109699Y-186480974D02*
X717157318Y-186576212D01*
X717157318Y-186576212D02*
X717157318Y-186766688D01*
X717157318Y-186766688D02*
X717109699Y-186861926D01*
X717109699Y-186861926D02*
X717062079Y-186909545D01*
X717062079Y-186909545D02*
X716966841Y-186957164D01*
X716966841Y-186957164D02*
X716728746Y-186957164D01*
X716728746Y-186957164D02*
X716633508Y-186909545D01*
X716633508Y-186909545D02*
X716585889Y-186861926D01*
X716585889Y-186861926D02*
X716538270Y-186766688D01*
X716538270Y-186766688D02*
X716538270Y-186576212D01*
X716538270Y-186576212D02*
X716585889Y-186480974D01*
X716585889Y-186480974D02*
X716633508Y-186433355D01*
X716633508Y-186433355D02*
X716728746Y-186385736D01*
X716157318Y-187290498D02*
X716157318Y-187957164D01*
X716157318Y-187957164D02*
X717157318Y-187528593D01*
X679057318Y-185433355D02*
X678057318Y-185433355D01*
X678057318Y-185433355D02*
X678057318Y-185671450D01*
X678057318Y-185671450D02*
X678104937Y-185814307D01*
X678104937Y-185814307D02*
X678200175Y-185909545D01*
X678200175Y-185909545D02*
X678295413Y-185957164D01*
X678295413Y-185957164D02*
X678485889Y-186004783D01*
X678485889Y-186004783D02*
X678628746Y-186004783D01*
X678628746Y-186004783D02*
X678819222Y-185957164D01*
X678819222Y-185957164D02*
X678914460Y-185909545D01*
X678914460Y-185909545D02*
X679009699Y-185814307D01*
X679009699Y-185814307D02*
X679057318Y-185671450D01*
X679057318Y-185671450D02*
X679057318Y-185433355D01*
X678057318Y-186861926D02*
X678057318Y-186671450D01*
X678057318Y-186671450D02*
X678104937Y-186576212D01*
X678104937Y-186576212D02*
X678152556Y-186528593D01*
X678152556Y-186528593D02*
X678295413Y-186433355D01*
X678295413Y-186433355D02*
X678485889Y-186385736D01*
X678485889Y-186385736D02*
X678866841Y-186385736D01*
X678866841Y-186385736D02*
X678962079Y-186433355D01*
X678962079Y-186433355D02*
X679009699Y-186480974D01*
X679009699Y-186480974D02*
X679057318Y-186576212D01*
X679057318Y-186576212D02*
X679057318Y-186766688D01*
X679057318Y-186766688D02*
X679009699Y-186861926D01*
X679009699Y-186861926D02*
X678962079Y-186909545D01*
X678962079Y-186909545D02*
X678866841Y-186957164D01*
X678866841Y-186957164D02*
X678628746Y-186957164D01*
X678628746Y-186957164D02*
X678533508Y-186909545D01*
X678533508Y-186909545D02*
X678485889Y-186861926D01*
X678485889Y-186861926D02*
X678438270Y-186766688D01*
X678438270Y-186766688D02*
X678438270Y-186576212D01*
X678438270Y-186576212D02*
X678485889Y-186480974D01*
X678485889Y-186480974D02*
X678533508Y-186433355D01*
X678533508Y-186433355D02*
X678628746Y-186385736D01*
X678057318Y-187861926D02*
X678057318Y-187385736D01*
X678057318Y-187385736D02*
X678533508Y-187338117D01*
X678533508Y-187338117D02*
X678485889Y-187385736D01*
X678485889Y-187385736D02*
X678438270Y-187480974D01*
X678438270Y-187480974D02*
X678438270Y-187719069D01*
X678438270Y-187719069D02*
X678485889Y-187814307D01*
X678485889Y-187814307D02*
X678533508Y-187861926D01*
X678533508Y-187861926D02*
X678628746Y-187909545D01*
X678628746Y-187909545D02*
X678866841Y-187909545D01*
X678866841Y-187909545D02*
X678962079Y-187861926D01*
X678962079Y-187861926D02*
X679009699Y-187814307D01*
X679009699Y-187814307D02*
X679057318Y-187719069D01*
X679057318Y-187719069D02*
X679057318Y-187480974D01*
X679057318Y-187480974D02*
X679009699Y-187385736D01*
X679009699Y-187385736D02*
X678962079Y-187338117D01*
X636194818Y-209245855D02*
X635194818Y-209245855D01*
X635194818Y-209245855D02*
X635194818Y-209483950D01*
X635194818Y-209483950D02*
X635242437Y-209626807D01*
X635242437Y-209626807D02*
X635337675Y-209722045D01*
X635337675Y-209722045D02*
X635432913Y-209769664D01*
X635432913Y-209769664D02*
X635623389Y-209817283D01*
X635623389Y-209817283D02*
X635766246Y-209817283D01*
X635766246Y-209817283D02*
X635956722Y-209769664D01*
X635956722Y-209769664D02*
X636051960Y-209722045D01*
X636051960Y-209722045D02*
X636147199Y-209626807D01*
X636147199Y-209626807D02*
X636194818Y-209483950D01*
X636194818Y-209483950D02*
X636194818Y-209245855D01*
X635194818Y-210150617D02*
X635194818Y-210817283D01*
X635194818Y-210817283D02*
X636194818Y-210388712D01*
X635623389Y-211341093D02*
X635575770Y-211245855D01*
X635575770Y-211245855D02*
X635528151Y-211198236D01*
X635528151Y-211198236D02*
X635432913Y-211150617D01*
X635432913Y-211150617D02*
X635385294Y-211150617D01*
X635385294Y-211150617D02*
X635290056Y-211198236D01*
X635290056Y-211198236D02*
X635242437Y-211245855D01*
X635242437Y-211245855D02*
X635194818Y-211341093D01*
X635194818Y-211341093D02*
X635194818Y-211531569D01*
X635194818Y-211531569D02*
X635242437Y-211626807D01*
X635242437Y-211626807D02*
X635290056Y-211674426D01*
X635290056Y-211674426D02*
X635385294Y-211722045D01*
X635385294Y-211722045D02*
X635432913Y-211722045D01*
X635432913Y-211722045D02*
X635528151Y-211674426D01*
X635528151Y-211674426D02*
X635575770Y-211626807D01*
X635575770Y-211626807D02*
X635623389Y-211531569D01*
X635623389Y-211531569D02*
X635623389Y-211341093D01*
X635623389Y-211341093D02*
X635671008Y-211245855D01*
X635671008Y-211245855D02*
X635718627Y-211198236D01*
X635718627Y-211198236D02*
X635813865Y-211150617D01*
X635813865Y-211150617D02*
X636004341Y-211150617D01*
X636004341Y-211150617D02*
X636099579Y-211198236D01*
X636099579Y-211198236D02*
X636147199Y-211245855D01*
X636147199Y-211245855D02*
X636194818Y-211341093D01*
X636194818Y-211341093D02*
X636194818Y-211531569D01*
X636194818Y-211531569D02*
X636147199Y-211626807D01*
X636147199Y-211626807D02*
X636099579Y-211674426D01*
X636099579Y-211674426D02*
X636004341Y-211722045D01*
X636004341Y-211722045D02*
X635813865Y-211722045D01*
X635813865Y-211722045D02*
X635718627Y-211674426D01*
X635718627Y-211674426D02*
X635671008Y-211626807D01*
X635671008Y-211626807D02*
X635623389Y-211531569D01*
X517034819Y-204483355D02*
X516034819Y-204483355D01*
X516034819Y-204483355D02*
X516034819Y-204721450D01*
X516034819Y-204721450D02*
X516082438Y-204864307D01*
X516082438Y-204864307D02*
X516177676Y-204959545D01*
X516177676Y-204959545D02*
X516272914Y-205007164D01*
X516272914Y-205007164D02*
X516463390Y-205054783D01*
X516463390Y-205054783D02*
X516606247Y-205054783D01*
X516606247Y-205054783D02*
X516796723Y-205007164D01*
X516796723Y-205007164D02*
X516891961Y-204959545D01*
X516891961Y-204959545D02*
X516987200Y-204864307D01*
X516987200Y-204864307D02*
X517034819Y-204721450D01*
X517034819Y-204721450D02*
X517034819Y-204483355D01*
X516034819Y-205388117D02*
X516034819Y-206054783D01*
X516034819Y-206054783D02*
X517034819Y-205626212D01*
X516034819Y-206340498D02*
X516034819Y-206959545D01*
X516034819Y-206959545D02*
X516415771Y-206626212D01*
X516415771Y-206626212D02*
X516415771Y-206769069D01*
X516415771Y-206769069D02*
X516463390Y-206864307D01*
X516463390Y-206864307D02*
X516511009Y-206911926D01*
X516511009Y-206911926D02*
X516606247Y-206959545D01*
X516606247Y-206959545D02*
X516844342Y-206959545D01*
X516844342Y-206959545D02*
X516939580Y-206911926D01*
X516939580Y-206911926D02*
X516987200Y-206864307D01*
X516987200Y-206864307D02*
X517034819Y-206769069D01*
X517034819Y-206769069D02*
X517034819Y-206483355D01*
X517034819Y-206483355D02*
X516987200Y-206388117D01*
X516987200Y-206388117D02*
X516939580Y-206340498D01*
X674294818Y-209245855D02*
X673294818Y-209245855D01*
X673294818Y-209245855D02*
X673294818Y-209483950D01*
X673294818Y-209483950D02*
X673342437Y-209626807D01*
X673342437Y-209626807D02*
X673437675Y-209722045D01*
X673437675Y-209722045D02*
X673532913Y-209769664D01*
X673532913Y-209769664D02*
X673723389Y-209817283D01*
X673723389Y-209817283D02*
X673866246Y-209817283D01*
X673866246Y-209817283D02*
X674056722Y-209769664D01*
X674056722Y-209769664D02*
X674151960Y-209722045D01*
X674151960Y-209722045D02*
X674247199Y-209626807D01*
X674247199Y-209626807D02*
X674294818Y-209483950D01*
X674294818Y-209483950D02*
X674294818Y-209245855D01*
X673723389Y-210388712D02*
X673675770Y-210293474D01*
X673675770Y-210293474D02*
X673628151Y-210245855D01*
X673628151Y-210245855D02*
X673532913Y-210198236D01*
X673532913Y-210198236D02*
X673485294Y-210198236D01*
X673485294Y-210198236D02*
X673390056Y-210245855D01*
X673390056Y-210245855D02*
X673342437Y-210293474D01*
X673342437Y-210293474D02*
X673294818Y-210388712D01*
X673294818Y-210388712D02*
X673294818Y-210579188D01*
X673294818Y-210579188D02*
X673342437Y-210674426D01*
X673342437Y-210674426D02*
X673390056Y-210722045D01*
X673390056Y-210722045D02*
X673485294Y-210769664D01*
X673485294Y-210769664D02*
X673532913Y-210769664D01*
X673532913Y-210769664D02*
X673628151Y-210722045D01*
X673628151Y-210722045D02*
X673675770Y-210674426D01*
X673675770Y-210674426D02*
X673723389Y-210579188D01*
X673723389Y-210579188D02*
X673723389Y-210388712D01*
X673723389Y-210388712D02*
X673771008Y-210293474D01*
X673771008Y-210293474D02*
X673818627Y-210245855D01*
X673818627Y-210245855D02*
X673913865Y-210198236D01*
X673913865Y-210198236D02*
X674104341Y-210198236D01*
X674104341Y-210198236D02*
X674199579Y-210245855D01*
X674199579Y-210245855D02*
X674247199Y-210293474D01*
X674247199Y-210293474D02*
X674294818Y-210388712D01*
X674294818Y-210388712D02*
X674294818Y-210579188D01*
X674294818Y-210579188D02*
X674247199Y-210674426D01*
X674247199Y-210674426D02*
X674199579Y-210722045D01*
X674199579Y-210722045D02*
X674104341Y-210769664D01*
X674104341Y-210769664D02*
X673913865Y-210769664D01*
X673913865Y-210769664D02*
X673818627Y-210722045D01*
X673818627Y-210722045D02*
X673771008Y-210674426D01*
X673771008Y-210674426D02*
X673723389Y-210579188D01*
X674294818Y-211722045D02*
X674294818Y-211150617D01*
X674294818Y-211436331D02*
X673294818Y-211436331D01*
X673294818Y-211436331D02*
X673437675Y-211341093D01*
X673437675Y-211341093D02*
X673532913Y-211245855D01*
X673532913Y-211245855D02*
X673580532Y-211150617D01*
X670454819Y-137798095D02*
X671264342Y-137798095D01*
X671264342Y-137798095D02*
X671359580Y-137845714D01*
X671359580Y-137845714D02*
X671407200Y-137893333D01*
X671407200Y-137893333D02*
X671454819Y-137988571D01*
X671454819Y-137988571D02*
X671454819Y-138179047D01*
X671454819Y-138179047D02*
X671407200Y-138274285D01*
X671407200Y-138274285D02*
X671359580Y-138321904D01*
X671359580Y-138321904D02*
X671264342Y-138369523D01*
X671264342Y-138369523D02*
X670454819Y-138369523D01*
X670454819Y-138750476D02*
X670454819Y-139369523D01*
X670454819Y-139369523D02*
X670835771Y-139036190D01*
X670835771Y-139036190D02*
X670835771Y-139179047D01*
X670835771Y-139179047D02*
X670883390Y-139274285D01*
X670883390Y-139274285D02*
X670931009Y-139321904D01*
X670931009Y-139321904D02*
X671026247Y-139369523D01*
X671026247Y-139369523D02*
X671264342Y-139369523D01*
X671264342Y-139369523D02*
X671359580Y-139321904D01*
X671359580Y-139321904D02*
X671407200Y-139274285D01*
X671407200Y-139274285D02*
X671454819Y-139179047D01*
X671454819Y-139179047D02*
X671454819Y-138893333D01*
X671454819Y-138893333D02*
X671407200Y-138798095D01*
X671407200Y-138798095D02*
X671359580Y-138750476D01*
X662944819Y-119348095D02*
X663754342Y-119348095D01*
X663754342Y-119348095D02*
X663849580Y-119395714D01*
X663849580Y-119395714D02*
X663897200Y-119443333D01*
X663897200Y-119443333D02*
X663944819Y-119538571D01*
X663944819Y-119538571D02*
X663944819Y-119729047D01*
X663944819Y-119729047D02*
X663897200Y-119824285D01*
X663897200Y-119824285D02*
X663849580Y-119871904D01*
X663849580Y-119871904D02*
X663754342Y-119919523D01*
X663754342Y-119919523D02*
X662944819Y-119919523D01*
X663040057Y-120348095D02*
X662992438Y-120395714D01*
X662992438Y-120395714D02*
X662944819Y-120490952D01*
X662944819Y-120490952D02*
X662944819Y-120729047D01*
X662944819Y-120729047D02*
X662992438Y-120824285D01*
X662992438Y-120824285D02*
X663040057Y-120871904D01*
X663040057Y-120871904D02*
X663135295Y-120919523D01*
X663135295Y-120919523D02*
X663230533Y-120919523D01*
X663230533Y-120919523D02*
X663373390Y-120871904D01*
X663373390Y-120871904D02*
X663944819Y-120300476D01*
X663944819Y-120300476D02*
X663944819Y-120919523D01*
X686826666Y-204724819D02*
X687159999Y-204248628D01*
X687398094Y-204724819D02*
X687398094Y-203724819D01*
X687398094Y-203724819D02*
X687017142Y-203724819D01*
X687017142Y-203724819D02*
X686921904Y-203772438D01*
X686921904Y-203772438D02*
X686874285Y-203820057D01*
X686874285Y-203820057D02*
X686826666Y-203915295D01*
X686826666Y-203915295D02*
X686826666Y-204058152D01*
X686826666Y-204058152D02*
X686874285Y-204153390D01*
X686874285Y-204153390D02*
X686921904Y-204201009D01*
X686921904Y-204201009D02*
X687017142Y-204248628D01*
X687017142Y-204248628D02*
X687398094Y-204248628D01*
X686445713Y-203820057D02*
X686398094Y-203772438D01*
X686398094Y-203772438D02*
X686302856Y-203724819D01*
X686302856Y-203724819D02*
X686064761Y-203724819D01*
X686064761Y-203724819D02*
X685969523Y-203772438D01*
X685969523Y-203772438D02*
X685921904Y-203820057D01*
X685921904Y-203820057D02*
X685874285Y-203915295D01*
X685874285Y-203915295D02*
X685874285Y-204010533D01*
X685874285Y-204010533D02*
X685921904Y-204153390D01*
X685921904Y-204153390D02*
X686493332Y-204724819D01*
X686493332Y-204724819D02*
X685874285Y-204724819D01*
X659864819Y-111083333D02*
X659388628Y-110750000D01*
X659864819Y-110511905D02*
X658864819Y-110511905D01*
X658864819Y-110511905D02*
X658864819Y-110892857D01*
X658864819Y-110892857D02*
X658912438Y-110988095D01*
X658912438Y-110988095D02*
X658960057Y-111035714D01*
X658960057Y-111035714D02*
X659055295Y-111083333D01*
X659055295Y-111083333D02*
X659198152Y-111083333D01*
X659198152Y-111083333D02*
X659293390Y-111035714D01*
X659293390Y-111035714D02*
X659341009Y-110988095D01*
X659341009Y-110988095D02*
X659388628Y-110892857D01*
X659388628Y-110892857D02*
X659388628Y-110511905D01*
X659864819Y-112035714D02*
X659864819Y-111464286D01*
X659864819Y-111750000D02*
X658864819Y-111750000D01*
X658864819Y-111750000D02*
X659007676Y-111654762D01*
X659007676Y-111654762D02*
X659102914Y-111559524D01*
X659102914Y-111559524D02*
X659150533Y-111464286D01*
X673909580Y-152942142D02*
X673957200Y-152894523D01*
X673957200Y-152894523D02*
X674004819Y-152751666D01*
X674004819Y-152751666D02*
X674004819Y-152656428D01*
X674004819Y-152656428D02*
X673957200Y-152513571D01*
X673957200Y-152513571D02*
X673861961Y-152418333D01*
X673861961Y-152418333D02*
X673766723Y-152370714D01*
X673766723Y-152370714D02*
X673576247Y-152323095D01*
X673576247Y-152323095D02*
X673433390Y-152323095D01*
X673433390Y-152323095D02*
X673242914Y-152370714D01*
X673242914Y-152370714D02*
X673147676Y-152418333D01*
X673147676Y-152418333D02*
X673052438Y-152513571D01*
X673052438Y-152513571D02*
X673004819Y-152656428D01*
X673004819Y-152656428D02*
X673004819Y-152751666D01*
X673004819Y-152751666D02*
X673052438Y-152894523D01*
X673052438Y-152894523D02*
X673100057Y-152942142D01*
X674004819Y-153894523D02*
X674004819Y-153323095D01*
X674004819Y-153608809D02*
X673004819Y-153608809D01*
X673004819Y-153608809D02*
X673147676Y-153513571D01*
X673147676Y-153513571D02*
X673242914Y-153418333D01*
X673242914Y-153418333D02*
X673290533Y-153323095D01*
X673004819Y-154513571D02*
X673004819Y-154608809D01*
X673004819Y-154608809D02*
X673052438Y-154704047D01*
X673052438Y-154704047D02*
X673100057Y-154751666D01*
X673100057Y-154751666D02*
X673195295Y-154799285D01*
X673195295Y-154799285D02*
X673385771Y-154846904D01*
X673385771Y-154846904D02*
X673623866Y-154846904D01*
X673623866Y-154846904D02*
X673814342Y-154799285D01*
X673814342Y-154799285D02*
X673909580Y-154751666D01*
X673909580Y-154751666D02*
X673957200Y-154704047D01*
X673957200Y-154704047D02*
X674004819Y-154608809D01*
X674004819Y-154608809D02*
X674004819Y-154513571D01*
X674004819Y-154513571D02*
X673957200Y-154418333D01*
X673957200Y-154418333D02*
X673909580Y-154370714D01*
X673909580Y-154370714D02*
X673814342Y-154323095D01*
X673814342Y-154323095D02*
X673623866Y-154275476D01*
X673623866Y-154275476D02*
X673385771Y-154275476D01*
X673385771Y-154275476D02*
X673195295Y-154323095D01*
X673195295Y-154323095D02*
X673100057Y-154370714D01*
X673100057Y-154370714D02*
X673052438Y-154418333D01*
X673052438Y-154418333D02*
X673004819Y-154513571D01*
X671934580Y-153418333D02*
X671982200Y-153370714D01*
X671982200Y-153370714D02*
X672029819Y-153227857D01*
X672029819Y-153227857D02*
X672029819Y-153132619D01*
X672029819Y-153132619D02*
X671982200Y-152989762D01*
X671982200Y-152989762D02*
X671886961Y-152894524D01*
X671886961Y-152894524D02*
X671791723Y-152846905D01*
X671791723Y-152846905D02*
X671601247Y-152799286D01*
X671601247Y-152799286D02*
X671458390Y-152799286D01*
X671458390Y-152799286D02*
X671267914Y-152846905D01*
X671267914Y-152846905D02*
X671172676Y-152894524D01*
X671172676Y-152894524D02*
X671077438Y-152989762D01*
X671077438Y-152989762D02*
X671029819Y-153132619D01*
X671029819Y-153132619D02*
X671029819Y-153227857D01*
X671029819Y-153227857D02*
X671077438Y-153370714D01*
X671077438Y-153370714D02*
X671125057Y-153418333D01*
X672029819Y-153894524D02*
X672029819Y-154085000D01*
X672029819Y-154085000D02*
X671982200Y-154180238D01*
X671982200Y-154180238D02*
X671934580Y-154227857D01*
X671934580Y-154227857D02*
X671791723Y-154323095D01*
X671791723Y-154323095D02*
X671601247Y-154370714D01*
X671601247Y-154370714D02*
X671220295Y-154370714D01*
X671220295Y-154370714D02*
X671125057Y-154323095D01*
X671125057Y-154323095D02*
X671077438Y-154275476D01*
X671077438Y-154275476D02*
X671029819Y-154180238D01*
X671029819Y-154180238D02*
X671029819Y-153989762D01*
X671029819Y-153989762D02*
X671077438Y-153894524D01*
X671077438Y-153894524D02*
X671125057Y-153846905D01*
X671125057Y-153846905D02*
X671220295Y-153799286D01*
X671220295Y-153799286D02*
X671458390Y-153799286D01*
X671458390Y-153799286D02*
X671553628Y-153846905D01*
X671553628Y-153846905D02*
X671601247Y-153894524D01*
X671601247Y-153894524D02*
X671648866Y-153989762D01*
X671648866Y-153989762D02*
X671648866Y-154180238D01*
X671648866Y-154180238D02*
X671601247Y-154275476D01*
X671601247Y-154275476D02*
X671553628Y-154323095D01*
X671553628Y-154323095D02*
X671458390Y-154370714D01*
X673829580Y-129638333D02*
X673877200Y-129590714D01*
X673877200Y-129590714D02*
X673924819Y-129447857D01*
X673924819Y-129447857D02*
X673924819Y-129352619D01*
X673924819Y-129352619D02*
X673877200Y-129209762D01*
X673877200Y-129209762D02*
X673781961Y-129114524D01*
X673781961Y-129114524D02*
X673686723Y-129066905D01*
X673686723Y-129066905D02*
X673496247Y-129019286D01*
X673496247Y-129019286D02*
X673353390Y-129019286D01*
X673353390Y-129019286D02*
X673162914Y-129066905D01*
X673162914Y-129066905D02*
X673067676Y-129114524D01*
X673067676Y-129114524D02*
X672972438Y-129209762D01*
X672972438Y-129209762D02*
X672924819Y-129352619D01*
X672924819Y-129352619D02*
X672924819Y-129447857D01*
X672924819Y-129447857D02*
X672972438Y-129590714D01*
X672972438Y-129590714D02*
X673020057Y-129638333D01*
X673353390Y-130209762D02*
X673305771Y-130114524D01*
X673305771Y-130114524D02*
X673258152Y-130066905D01*
X673258152Y-130066905D02*
X673162914Y-130019286D01*
X673162914Y-130019286D02*
X673115295Y-130019286D01*
X673115295Y-130019286D02*
X673020057Y-130066905D01*
X673020057Y-130066905D02*
X672972438Y-130114524D01*
X672972438Y-130114524D02*
X672924819Y-130209762D01*
X672924819Y-130209762D02*
X672924819Y-130400238D01*
X672924819Y-130400238D02*
X672972438Y-130495476D01*
X672972438Y-130495476D02*
X673020057Y-130543095D01*
X673020057Y-130543095D02*
X673115295Y-130590714D01*
X673115295Y-130590714D02*
X673162914Y-130590714D01*
X673162914Y-130590714D02*
X673258152Y-130543095D01*
X673258152Y-130543095D02*
X673305771Y-130495476D01*
X673305771Y-130495476D02*
X673353390Y-130400238D01*
X673353390Y-130400238D02*
X673353390Y-130209762D01*
X673353390Y-130209762D02*
X673401009Y-130114524D01*
X673401009Y-130114524D02*
X673448628Y-130066905D01*
X673448628Y-130066905D02*
X673543866Y-130019286D01*
X673543866Y-130019286D02*
X673734342Y-130019286D01*
X673734342Y-130019286D02*
X673829580Y-130066905D01*
X673829580Y-130066905D02*
X673877200Y-130114524D01*
X673877200Y-130114524D02*
X673924819Y-130209762D01*
X673924819Y-130209762D02*
X673924819Y-130400238D01*
X673924819Y-130400238D02*
X673877200Y-130495476D01*
X673877200Y-130495476D02*
X673829580Y-130543095D01*
X673829580Y-130543095D02*
X673734342Y-130590714D01*
X673734342Y-130590714D02*
X673543866Y-130590714D01*
X673543866Y-130590714D02*
X673448628Y-130543095D01*
X673448628Y-130543095D02*
X673401009Y-130495476D01*
X673401009Y-130495476D02*
X673353390Y-130400238D01*
X671864580Y-129643333D02*
X671912200Y-129595714D01*
X671912200Y-129595714D02*
X671959819Y-129452857D01*
X671959819Y-129452857D02*
X671959819Y-129357619D01*
X671959819Y-129357619D02*
X671912200Y-129214762D01*
X671912200Y-129214762D02*
X671816961Y-129119524D01*
X671816961Y-129119524D02*
X671721723Y-129071905D01*
X671721723Y-129071905D02*
X671531247Y-129024286D01*
X671531247Y-129024286D02*
X671388390Y-129024286D01*
X671388390Y-129024286D02*
X671197914Y-129071905D01*
X671197914Y-129071905D02*
X671102676Y-129119524D01*
X671102676Y-129119524D02*
X671007438Y-129214762D01*
X671007438Y-129214762D02*
X670959819Y-129357619D01*
X670959819Y-129357619D02*
X670959819Y-129452857D01*
X670959819Y-129452857D02*
X671007438Y-129595714D01*
X671007438Y-129595714D02*
X671055057Y-129643333D01*
X670959819Y-129976667D02*
X670959819Y-130643333D01*
X670959819Y-130643333D02*
X671959819Y-130214762D01*
X669899580Y-129643333D02*
X669947200Y-129595714D01*
X669947200Y-129595714D02*
X669994819Y-129452857D01*
X669994819Y-129452857D02*
X669994819Y-129357619D01*
X669994819Y-129357619D02*
X669947200Y-129214762D01*
X669947200Y-129214762D02*
X669851961Y-129119524D01*
X669851961Y-129119524D02*
X669756723Y-129071905D01*
X669756723Y-129071905D02*
X669566247Y-129024286D01*
X669566247Y-129024286D02*
X669423390Y-129024286D01*
X669423390Y-129024286D02*
X669232914Y-129071905D01*
X669232914Y-129071905D02*
X669137676Y-129119524D01*
X669137676Y-129119524D02*
X669042438Y-129214762D01*
X669042438Y-129214762D02*
X668994819Y-129357619D01*
X668994819Y-129357619D02*
X668994819Y-129452857D01*
X668994819Y-129452857D02*
X669042438Y-129595714D01*
X669042438Y-129595714D02*
X669090057Y-129643333D01*
X668994819Y-130500476D02*
X668994819Y-130310000D01*
X668994819Y-130310000D02*
X669042438Y-130214762D01*
X669042438Y-130214762D02*
X669090057Y-130167143D01*
X669090057Y-130167143D02*
X669232914Y-130071905D01*
X669232914Y-130071905D02*
X669423390Y-130024286D01*
X669423390Y-130024286D02*
X669804342Y-130024286D01*
X669804342Y-130024286D02*
X669899580Y-130071905D01*
X669899580Y-130071905D02*
X669947200Y-130119524D01*
X669947200Y-130119524D02*
X669994819Y-130214762D01*
X669994819Y-130214762D02*
X669994819Y-130405238D01*
X669994819Y-130405238D02*
X669947200Y-130500476D01*
X669947200Y-130500476D02*
X669899580Y-130548095D01*
X669899580Y-130548095D02*
X669804342Y-130595714D01*
X669804342Y-130595714D02*
X669566247Y-130595714D01*
X669566247Y-130595714D02*
X669471009Y-130548095D01*
X669471009Y-130548095D02*
X669423390Y-130500476D01*
X669423390Y-130500476D02*
X669375771Y-130405238D01*
X669375771Y-130405238D02*
X669375771Y-130214762D01*
X669375771Y-130214762D02*
X669423390Y-130119524D01*
X669423390Y-130119524D02*
X669471009Y-130071905D01*
X669471009Y-130071905D02*
X669566247Y-130024286D01*
X669964580Y-153423333D02*
X670012200Y-153375714D01*
X670012200Y-153375714D02*
X670059819Y-153232857D01*
X670059819Y-153232857D02*
X670059819Y-153137619D01*
X670059819Y-153137619D02*
X670012200Y-152994762D01*
X670012200Y-152994762D02*
X669916961Y-152899524D01*
X669916961Y-152899524D02*
X669821723Y-152851905D01*
X669821723Y-152851905D02*
X669631247Y-152804286D01*
X669631247Y-152804286D02*
X669488390Y-152804286D01*
X669488390Y-152804286D02*
X669297914Y-152851905D01*
X669297914Y-152851905D02*
X669202676Y-152899524D01*
X669202676Y-152899524D02*
X669107438Y-152994762D01*
X669107438Y-152994762D02*
X669059819Y-153137619D01*
X669059819Y-153137619D02*
X669059819Y-153232857D01*
X669059819Y-153232857D02*
X669107438Y-153375714D01*
X669107438Y-153375714D02*
X669155057Y-153423333D01*
X669059819Y-154328095D02*
X669059819Y-153851905D01*
X669059819Y-153851905D02*
X669536009Y-153804286D01*
X669536009Y-153804286D02*
X669488390Y-153851905D01*
X669488390Y-153851905D02*
X669440771Y-153947143D01*
X669440771Y-153947143D02*
X669440771Y-154185238D01*
X669440771Y-154185238D02*
X669488390Y-154280476D01*
X669488390Y-154280476D02*
X669536009Y-154328095D01*
X669536009Y-154328095D02*
X669631247Y-154375714D01*
X669631247Y-154375714D02*
X669869342Y-154375714D01*
X669869342Y-154375714D02*
X669964580Y-154328095D01*
X669964580Y-154328095D02*
X670012200Y-154280476D01*
X670012200Y-154280476D02*
X670059819Y-154185238D01*
X670059819Y-154185238D02*
X670059819Y-153947143D01*
X670059819Y-153947143D02*
X670012200Y-153851905D01*
X670012200Y-153851905D02*
X669964580Y-153804286D01*
X658131666Y-121284580D02*
X658179285Y-121332200D01*
X658179285Y-121332200D02*
X658322142Y-121379819D01*
X658322142Y-121379819D02*
X658417380Y-121379819D01*
X658417380Y-121379819D02*
X658560237Y-121332200D01*
X658560237Y-121332200D02*
X658655475Y-121236961D01*
X658655475Y-121236961D02*
X658703094Y-121141723D01*
X658703094Y-121141723D02*
X658750713Y-120951247D01*
X658750713Y-120951247D02*
X658750713Y-120808390D01*
X658750713Y-120808390D02*
X658703094Y-120617914D01*
X658703094Y-120617914D02*
X658655475Y-120522676D01*
X658655475Y-120522676D02*
X658560237Y-120427438D01*
X658560237Y-120427438D02*
X658417380Y-120379819D01*
X658417380Y-120379819D02*
X658322142Y-120379819D01*
X658322142Y-120379819D02*
X658179285Y-120427438D01*
X658179285Y-120427438D02*
X658131666Y-120475057D01*
X657274523Y-120713152D02*
X657274523Y-121379819D01*
X657512618Y-120332200D02*
X657750713Y-121046485D01*
X657750713Y-121046485D02*
X657131666Y-121046485D01*
X658146666Y-123289580D02*
X658194285Y-123337200D01*
X658194285Y-123337200D02*
X658337142Y-123384819D01*
X658337142Y-123384819D02*
X658432380Y-123384819D01*
X658432380Y-123384819D02*
X658575237Y-123337200D01*
X658575237Y-123337200D02*
X658670475Y-123241961D01*
X658670475Y-123241961D02*
X658718094Y-123146723D01*
X658718094Y-123146723D02*
X658765713Y-122956247D01*
X658765713Y-122956247D02*
X658765713Y-122813390D01*
X658765713Y-122813390D02*
X658718094Y-122622914D01*
X658718094Y-122622914D02*
X658670475Y-122527676D01*
X658670475Y-122527676D02*
X658575237Y-122432438D01*
X658575237Y-122432438D02*
X658432380Y-122384819D01*
X658432380Y-122384819D02*
X658337142Y-122384819D01*
X658337142Y-122384819D02*
X658194285Y-122432438D01*
X658194285Y-122432438D02*
X658146666Y-122480057D01*
X657813332Y-122384819D02*
X657194285Y-122384819D01*
X657194285Y-122384819D02*
X657527618Y-122765771D01*
X657527618Y-122765771D02*
X657384761Y-122765771D01*
X657384761Y-122765771D02*
X657289523Y-122813390D01*
X657289523Y-122813390D02*
X657241904Y-122861009D01*
X657241904Y-122861009D02*
X657194285Y-122956247D01*
X657194285Y-122956247D02*
X657194285Y-123194342D01*
X657194285Y-123194342D02*
X657241904Y-123289580D01*
X657241904Y-123289580D02*
X657289523Y-123337200D01*
X657289523Y-123337200D02*
X657384761Y-123384819D01*
X657384761Y-123384819D02*
X657670475Y-123384819D01*
X657670475Y-123384819D02*
X657765713Y-123337200D01*
X657765713Y-123337200D02*
X657813332Y-123289580D01*
X658146666Y-125284580D02*
X658194285Y-125332200D01*
X658194285Y-125332200D02*
X658337142Y-125379819D01*
X658337142Y-125379819D02*
X658432380Y-125379819D01*
X658432380Y-125379819D02*
X658575237Y-125332200D01*
X658575237Y-125332200D02*
X658670475Y-125236961D01*
X658670475Y-125236961D02*
X658718094Y-125141723D01*
X658718094Y-125141723D02*
X658765713Y-124951247D01*
X658765713Y-124951247D02*
X658765713Y-124808390D01*
X658765713Y-124808390D02*
X658718094Y-124617914D01*
X658718094Y-124617914D02*
X658670475Y-124522676D01*
X658670475Y-124522676D02*
X658575237Y-124427438D01*
X658575237Y-124427438D02*
X658432380Y-124379819D01*
X658432380Y-124379819D02*
X658337142Y-124379819D01*
X658337142Y-124379819D02*
X658194285Y-124427438D01*
X658194285Y-124427438D02*
X658146666Y-124475057D01*
X657765713Y-124475057D02*
X657718094Y-124427438D01*
X657718094Y-124427438D02*
X657622856Y-124379819D01*
X657622856Y-124379819D02*
X657384761Y-124379819D01*
X657384761Y-124379819D02*
X657289523Y-124427438D01*
X657289523Y-124427438D02*
X657241904Y-124475057D01*
X657241904Y-124475057D02*
X657194285Y-124570295D01*
X657194285Y-124570295D02*
X657194285Y-124665533D01*
X657194285Y-124665533D02*
X657241904Y-124808390D01*
X657241904Y-124808390D02*
X657813332Y-125379819D01*
X657813332Y-125379819D02*
X657194285Y-125379819D01*
X692956666Y-215329580D02*
X693004285Y-215377200D01*
X693004285Y-215377200D02*
X693147142Y-215424819D01*
X693147142Y-215424819D02*
X693242380Y-215424819D01*
X693242380Y-215424819D02*
X693385237Y-215377200D01*
X693385237Y-215377200D02*
X693480475Y-215281961D01*
X693480475Y-215281961D02*
X693528094Y-215186723D01*
X693528094Y-215186723D02*
X693575713Y-214996247D01*
X693575713Y-214996247D02*
X693575713Y-214853390D01*
X693575713Y-214853390D02*
X693528094Y-214662914D01*
X693528094Y-214662914D02*
X693480475Y-214567676D01*
X693480475Y-214567676D02*
X693385237Y-214472438D01*
X693385237Y-214472438D02*
X693242380Y-214424819D01*
X693242380Y-214424819D02*
X693147142Y-214424819D01*
X693147142Y-214424819D02*
X693004285Y-214472438D01*
X693004285Y-214472438D02*
X692956666Y-214520057D01*
X692004285Y-215424819D02*
X692575713Y-215424819D01*
X692289999Y-215424819D02*
X692289999Y-214424819D01*
X692289999Y-214424819D02*
X692385237Y-214567676D01*
X692385237Y-214567676D02*
X692480475Y-214662914D01*
X692480475Y-214662914D02*
X692575713Y-214710533D01*
X662619166Y-108047680D02*
X662619166Y-107333395D01*
X662619166Y-107333395D02*
X662571547Y-107190538D01*
X662571547Y-107190538D02*
X662476309Y-107095300D01*
X662476309Y-107095300D02*
X662333452Y-107047680D01*
X662333452Y-107047680D02*
X662238214Y-107047680D01*
X663619166Y-107047680D02*
X663047738Y-107047680D01*
X663333452Y-107047680D02*
X663333452Y-108047680D01*
X663333452Y-108047680D02*
X663238214Y-107904823D01*
X663238214Y-107904823D02*
X663142976Y-107809585D01*
X663142976Y-107809585D02*
X663047738Y-107761966D01*
D11*
%TO.C,D48*%
X394418099Y-184897641D02*
X394418099Y-189307641D01*
X392198099Y-189307641D02*
X392198099Y-184897641D01*
X394418099Y-189307641D02*
X392198099Y-189307641D01*
%TO.C,D56*%
X501499999Y-184897641D02*
X501499999Y-189307641D01*
X499279999Y-189307641D02*
X499279999Y-184897641D01*
X501499999Y-189307641D02*
X499279999Y-189307641D01*
%TO.C,D54*%
X463399999Y-184897641D02*
X463399999Y-189307641D01*
X461179999Y-189307641D02*
X461179999Y-184897641D01*
X463399999Y-189307641D02*
X461179999Y-189307641D01*
%TO.C,D51*%
X715812499Y-165847641D02*
X715812499Y-170257641D01*
X713592499Y-170257641D02*
X713592499Y-165847641D01*
X715812499Y-170257641D02*
X713592499Y-170257641D01*
%TO.C,D46*%
X606274999Y-165847641D02*
X606274999Y-170257641D01*
X604054999Y-170257641D02*
X604054999Y-165847641D01*
X606274999Y-170257641D02*
X604054999Y-170257641D01*
%TO.C,D57*%
X520549999Y-184897641D02*
X520549999Y-189307641D01*
X518329999Y-189307641D02*
X518329999Y-184897641D01*
X520549999Y-189307641D02*
X518329999Y-189307641D01*
%TO.C,D55*%
X482449999Y-184897641D02*
X482449999Y-189307641D01*
X480229999Y-189307641D02*
X480229999Y-184897641D01*
X482449999Y-189307641D02*
X480229999Y-189307641D01*
%TO.C,D47*%
X637305599Y-165847641D02*
X637305599Y-170257641D01*
X635085599Y-170257641D02*
X635085599Y-165847641D01*
X637305599Y-170257641D02*
X635085599Y-170257641D01*
%TO.C,D53*%
X444349999Y-184897641D02*
X444349999Y-189307641D01*
X442129999Y-189307641D02*
X442129999Y-184897641D01*
X444349999Y-189307641D02*
X442129999Y-189307641D01*
%TO.C,D52*%
X425299999Y-184897641D02*
X425299999Y-189307641D01*
X423079999Y-189307641D02*
X423079999Y-184897641D01*
X425299999Y-189307641D02*
X423079999Y-189307641D01*
%TO.C,D50*%
X696762499Y-165847641D02*
X696762499Y-170257641D01*
X694542499Y-170257641D02*
X694542499Y-165847641D01*
X696762499Y-170257641D02*
X694542499Y-170257641D01*
%TO.C,D49*%
X677712499Y-165847641D02*
X677712499Y-170257641D01*
X675492499Y-170257641D02*
X675492499Y-165847641D01*
X677712499Y-170257641D02*
X675492499Y-170257641D01*
%TO.C,D39*%
X472924999Y-165847641D02*
X472924999Y-170257641D01*
X470704999Y-170257641D02*
X470704999Y-165847641D01*
X472924999Y-170257641D02*
X470704999Y-170257641D01*
%TO.C,D36*%
X415774999Y-165847641D02*
X415774999Y-170257641D01*
X413554999Y-170257641D02*
X413554999Y-165847641D01*
X415774999Y-170257641D02*
X413554999Y-170257641D01*
%TO.C,D33*%
X696762499Y-146797641D02*
X696762499Y-151207641D01*
X694542499Y-151207641D02*
X694542499Y-146797641D01*
X696762499Y-151207641D02*
X694542499Y-151207641D01*
%TO.C,D29*%
X601512499Y-146797641D02*
X601512499Y-151207641D01*
X599292499Y-151207641D02*
X599292499Y-146797641D01*
X601512499Y-151207641D02*
X599292499Y-151207641D01*
%TO.C,D44*%
X568174999Y-165847641D02*
X568174999Y-170257641D01*
X565954999Y-170257641D02*
X565954999Y-165847641D01*
X568174999Y-170257641D02*
X565954999Y-170257641D01*
%TO.C,D42*%
X530074999Y-165847641D02*
X530074999Y-170257641D01*
X527854999Y-170257641D02*
X527854999Y-165847641D01*
X530074999Y-170257641D02*
X527854999Y-170257641D01*
%TO.C,D41*%
X511024999Y-165847641D02*
X511024999Y-170257641D01*
X508804999Y-170257641D02*
X508804999Y-165847641D01*
X511024999Y-170257641D02*
X508804999Y-170257641D01*
%TO.C,D35*%
X380500000Y-165387500D02*
X380500000Y-169797500D01*
X378280000Y-169797500D02*
X378280000Y-165387500D01*
X380500000Y-169797500D02*
X378280000Y-169797500D01*
%TO.C,D34*%
X715812499Y-146797641D02*
X715812499Y-151207641D01*
X713592499Y-151207641D02*
X713592499Y-146797641D01*
X715812499Y-151207641D02*
X713592499Y-151207641D01*
%TO.C,D32*%
X677712499Y-146797641D02*
X677712499Y-151207641D01*
X675492499Y-151207641D02*
X675492499Y-146797641D01*
X677712499Y-151207641D02*
X675492499Y-151207641D01*
%TO.C,D31*%
X644375499Y-146797641D02*
X644375499Y-151207641D01*
X642155499Y-151207641D02*
X642155499Y-146797641D01*
X644375499Y-151207641D02*
X642155499Y-151207641D01*
%TO.C,D30*%
X620562499Y-146797641D02*
X620562499Y-151207641D01*
X618342499Y-151207641D02*
X618342499Y-146797641D01*
X620562499Y-151207641D02*
X618342499Y-151207641D01*
%TO.C,D26*%
X544362499Y-146797641D02*
X544362499Y-151207641D01*
X542142499Y-151207641D02*
X542142499Y-146797641D01*
X544362499Y-151207641D02*
X542142499Y-151207641D01*
%TO.C,D28*%
X582462499Y-146797641D02*
X582462499Y-151207641D01*
X580242499Y-151207641D02*
X580242499Y-146797641D01*
X582462499Y-151207641D02*
X580242499Y-151207641D01*
%TO.C,D38*%
X453874999Y-165847641D02*
X453874999Y-170257641D01*
X451654999Y-170257641D02*
X451654999Y-165847641D01*
X453874999Y-170257641D02*
X451654999Y-170257641D01*
%TO.C,D43*%
X549124999Y-165847641D02*
X549124999Y-170257641D01*
X546904999Y-170257641D02*
X546904999Y-165847641D01*
X549124999Y-170257641D02*
X546904999Y-170257641D01*
%TO.C,D40*%
X491974999Y-165847641D02*
X491974999Y-170257641D01*
X489754999Y-170257641D02*
X489754999Y-165847641D01*
X491974999Y-170257641D02*
X489754999Y-170257641D01*
%TO.C,D45*%
X587224999Y-165847641D02*
X587224999Y-170257641D01*
X585004999Y-170257641D02*
X585004999Y-165847641D01*
X587224999Y-170257641D02*
X585004999Y-170257641D01*
%TO.C,D37*%
X434824999Y-165847641D02*
X434824999Y-170257641D01*
X432604999Y-170257641D02*
X432604999Y-165847641D01*
X434824999Y-170257641D02*
X432604999Y-170257641D01*
%TO.C,D27*%
X563412499Y-146797641D02*
X563412499Y-151207641D01*
X561192499Y-151207641D02*
X561192499Y-146797641D01*
X563412499Y-151207641D02*
X561192499Y-151207641D01*
%TO.C,D24*%
X506262499Y-146797641D02*
X506262499Y-151207641D01*
X504042499Y-151207641D02*
X504042499Y-146797641D01*
X506262499Y-151207641D02*
X504042499Y-151207641D01*
%TO.C,D21*%
X449112499Y-146797641D02*
X449112499Y-151207641D01*
X446892499Y-151207641D02*
X446892499Y-146797641D01*
X449112499Y-151207641D02*
X446892499Y-151207641D01*
%TO.C,D20*%
X430062499Y-146797641D02*
X430062499Y-151207641D01*
X427842499Y-151207641D02*
X427842499Y-146797641D01*
X430062499Y-151207641D02*
X427842499Y-151207641D01*
%TO.C,D19*%
X411012499Y-146797641D02*
X411012499Y-151207641D01*
X408792499Y-151207641D02*
X408792499Y-146797641D01*
X411012499Y-151207641D02*
X408792499Y-151207641D01*
%TO.C,D18*%
X387200499Y-146797641D02*
X387200499Y-151207641D01*
X384980499Y-151207641D02*
X384980499Y-146797641D01*
X387200499Y-151207641D02*
X384980499Y-151207641D01*
%TO.C,D15*%
X677712499Y-122985141D02*
X677712499Y-127395141D01*
X675492499Y-127395141D02*
X675492499Y-122985141D01*
X677712499Y-127395141D02*
X675492499Y-127395141D01*
%TO.C,D14*%
X639612499Y-122985141D02*
X639612499Y-127395141D01*
X637392499Y-127395141D02*
X637392499Y-122985141D01*
X639612499Y-127395141D02*
X637392499Y-127395141D01*
%TO.C,D16*%
X696762499Y-122985141D02*
X696762499Y-127395141D01*
X694542499Y-127395141D02*
X694542499Y-122985141D01*
X696762499Y-127395141D02*
X694542499Y-127395141D01*
%TO.C,D17*%
X715812499Y-122985141D02*
X715812499Y-127395141D01*
X713592499Y-127395141D02*
X713592499Y-122985141D01*
X715812499Y-127395141D02*
X713592499Y-127395141D01*
%TO.C,D13*%
X611037499Y-122985141D02*
X611037499Y-127395141D01*
X608817499Y-127395141D02*
X608817499Y-122985141D01*
X611037499Y-127395141D02*
X608817499Y-127395141D01*
%TO.C,D9*%
X534837499Y-122985141D02*
X534837499Y-127395141D01*
X532617499Y-127395141D02*
X532617499Y-122985141D01*
X534837499Y-127395141D02*
X532617499Y-127395141D01*
%TO.C,D8*%
X515787499Y-122985141D02*
X515787499Y-127395141D01*
X513567499Y-127395141D02*
X513567499Y-122985141D01*
X515787499Y-127395141D02*
X513567499Y-127395141D01*
%TO.C,D11*%
X572937499Y-122985141D02*
X572937499Y-127395141D01*
X570717499Y-127395141D02*
X570717499Y-122985141D01*
X572937499Y-127395141D02*
X570717499Y-127395141D01*
%TO.C,D23*%
X487212499Y-146797641D02*
X487212499Y-151207641D01*
X484992499Y-151207641D02*
X484992499Y-146797641D01*
X487212499Y-151207641D02*
X484992499Y-151207641D01*
%TO.C,D22*%
X468162499Y-146797641D02*
X468162499Y-151207641D01*
X465942499Y-151207641D02*
X465942499Y-146797641D01*
X468162499Y-151207641D02*
X465942499Y-151207641D01*
%TO.C,D12*%
X591987499Y-122985141D02*
X591987499Y-127395141D01*
X589767499Y-127395141D02*
X589767499Y-122985141D01*
X591987499Y-127395141D02*
X589767499Y-127395141D01*
%TO.C,D25*%
X525312499Y-146797641D02*
X525312499Y-151207641D01*
X523092499Y-151207641D02*
X523092499Y-146797641D01*
X525312499Y-151207641D02*
X523092499Y-151207641D01*
%TO.C,D7*%
X496737499Y-122985141D02*
X496737499Y-127395141D01*
X494517499Y-127395141D02*
X494517499Y-122985141D01*
X496737499Y-127395141D02*
X494517499Y-127395141D01*
%TO.C,D5*%
X458637499Y-122985141D02*
X458637499Y-127395141D01*
X456417499Y-127395141D02*
X456417499Y-122985141D01*
X458637499Y-127395141D02*
X456417499Y-127395141D01*
%TO.C,D6*%
X477687499Y-122985141D02*
X477687499Y-127395141D01*
X475467499Y-127395141D02*
X475467499Y-122985141D01*
X477687499Y-127395141D02*
X475467499Y-127395141D01*
%TO.C,D3*%
X420537499Y-122985141D02*
X420537499Y-127395141D01*
X418317499Y-127395141D02*
X418317499Y-122985141D01*
X420537499Y-127395141D02*
X418317499Y-127395141D01*
%TO.C,D1*%
X382437499Y-122985141D02*
X382437499Y-127395141D01*
X380217499Y-127395141D02*
X380217499Y-122985141D01*
X382437499Y-127395141D02*
X380217499Y-127395141D01*
%TO.C,D10*%
X553887499Y-122985141D02*
X553887499Y-127395141D01*
X551667499Y-127395141D02*
X551667499Y-122985141D01*
X553887499Y-127395141D02*
X551667499Y-127395141D01*
%TO.C,D2*%
X401487499Y-122985141D02*
X401487499Y-127395141D01*
X399267499Y-127395141D02*
X399267499Y-122985141D01*
X401487499Y-127395141D02*
X399267499Y-127395141D01*
%TO.C,D4*%
X439587499Y-122985141D02*
X439587499Y-127395141D01*
X437367499Y-127395141D02*
X437367499Y-122985141D01*
X439587499Y-127395141D02*
X437367499Y-127395141D01*
%TO.C,D83*%
X715812499Y-203947641D02*
X715812499Y-208357641D01*
X713592499Y-208357641D02*
X713592499Y-203947641D01*
X715812499Y-208357641D02*
X713592499Y-208357641D01*
%TO.C,D82*%
X696762499Y-203947641D02*
X696762499Y-208357641D01*
X694542499Y-208357641D02*
X694542499Y-203947641D01*
X696762499Y-208357641D02*
X694542499Y-208357641D01*
%TO.C,D79*%
X653899999Y-208710141D02*
X653899999Y-213120141D01*
X651679999Y-213120141D02*
X651679999Y-208710141D01*
X653899999Y-213120141D02*
X651679999Y-213120141D01*
%TO.C,D69*%
X434825499Y-203947641D02*
X434825499Y-208357641D01*
X432605499Y-208357641D02*
X432605499Y-203947641D01*
X434825499Y-208357641D02*
X432605499Y-208357641D01*
%TO.C,D61*%
X596749999Y-184897641D02*
X596749999Y-189307641D01*
X594529999Y-189307641D02*
X594529999Y-184897641D01*
X596749999Y-189307641D02*
X594529999Y-189307641D01*
%TO.C,D68*%
X411012499Y-203947641D02*
X411012499Y-208357641D01*
X408792499Y-208357641D02*
X408792499Y-203947641D01*
X411012499Y-208357641D02*
X408792499Y-208357641D01*
%TO.C,D62*%
X622943999Y-184897641D02*
X622943999Y-189307641D01*
X620723999Y-189307641D02*
X620723999Y-184897641D01*
X622943999Y-189307641D02*
X620723999Y-189307641D01*
%TO.C,D64*%
X387200499Y-203947641D02*
X387200499Y-208357641D01*
X384980499Y-208357641D02*
X384980499Y-203947641D01*
X387200499Y-208357641D02*
X384980499Y-208357641D01*
%TO.C,D63*%
X653899999Y-189660141D02*
X653899999Y-194070141D01*
X651679999Y-194070141D02*
X651679999Y-189660141D01*
X653899999Y-194070141D02*
X651679999Y-194070141D01*
%TO.C,D58*%
X539599999Y-184897641D02*
X539599999Y-189307641D01*
X537379999Y-189307641D02*
X537379999Y-184897641D01*
X539599999Y-189307641D02*
X537379999Y-189307641D01*
%TO.C,D60*%
X577699999Y-184897641D02*
X577699999Y-189307641D01*
X575479999Y-189307641D02*
X575479999Y-184897641D01*
X577699999Y-189307641D02*
X575479999Y-189307641D01*
%TO.C,D77*%
X611037499Y-203947641D02*
X611037499Y-208357641D01*
X608817499Y-208357641D02*
X608817499Y-203947641D01*
X611037499Y-208357641D02*
X608817499Y-208357641D01*
%TO.C,D76*%
X591987499Y-203947641D02*
X591987499Y-208357641D01*
X589767499Y-208357641D02*
X589767499Y-203947641D01*
X591987499Y-208357641D02*
X589767499Y-208357641D01*
%TO.C,D66*%
X696762499Y-184897641D02*
X696762499Y-189307641D01*
X694542499Y-189307641D02*
X694542499Y-184897641D01*
X696762499Y-189307641D02*
X694542499Y-189307641D01*
%TO.C,D59*%
X558649999Y-184897641D02*
X558649999Y-189307641D01*
X556429999Y-189307641D02*
X556429999Y-184897641D01*
X558649999Y-189307641D02*
X556429999Y-189307641D01*
%TO.C,D67*%
X715812499Y-184897641D02*
X715812499Y-189307641D01*
X713592499Y-189307641D02*
X713592499Y-184897641D01*
X715812499Y-189307641D02*
X713592499Y-189307641D01*
%TO.C,D65*%
X677712499Y-184897641D02*
X677712499Y-189307641D01*
X675492499Y-189307641D02*
X675492499Y-184897641D01*
X677712499Y-189307641D02*
X675492499Y-189307641D01*
%TO.C,D78*%
X634849999Y-208710141D02*
X634849999Y-213120141D01*
X632629999Y-213120141D02*
X632629999Y-208710141D01*
X634849999Y-213120141D02*
X632629999Y-213120141D01*
%TO.C,D73*%
X515690000Y-203947641D02*
X515690000Y-208357641D01*
X513470000Y-208357641D02*
X513470000Y-203947641D01*
X515690000Y-208357641D02*
X513470000Y-208357641D01*
%TO.C,D81*%
X672949999Y-208710141D02*
X672949999Y-213120141D01*
X670729999Y-213120141D02*
X670729999Y-208710141D01*
X672949999Y-213120141D02*
X670729999Y-213120141D01*
%TO.C,U3*%
X668760000Y-142170000D02*
X668310000Y-142170000D01*
X661540000Y-142170000D02*
X661990000Y-142170000D01*
X668760000Y-141720000D02*
X668760000Y-142170000D01*
X661540000Y-141720000D02*
X661540000Y-142170000D01*
X668760000Y-135400000D02*
X668760000Y-134950000D01*
X661540000Y-135400000D02*
X661540000Y-134950000D01*
X668760000Y-134950000D02*
X668310000Y-134950000D01*
X661540000Y-134950000D02*
X661990000Y-134950000D01*
X668780000Y-143100000D02*
X668310000Y-142760000D01*
X668780000Y-142420000D01*
X668780000Y-143100000D01*
G36*
X668780000Y-143100000D02*
G01*
X668310000Y-142760000D01*
X668780000Y-142420000D01*
X668780000Y-143100000D01*
G37*
%TO.C,U2*%
X664580000Y-118260000D02*
X664580000Y-122020000D01*
X671400000Y-118260000D02*
X671400000Y-122020000D01*
X664580000Y-122020000D02*
X665840000Y-122020000D01*
X671400000Y-122020000D02*
X670140000Y-122020000D01*
X664680000Y-116980000D02*
X664350000Y-117220000D01*
X664350000Y-116740000D01*
X664680000Y-116980000D01*
G36*
X664680000Y-116980000D02*
G01*
X664350000Y-117220000D01*
X664350000Y-116740000D01*
X664680000Y-116980000D01*
G37*
%TO.C,R2*%
X686887064Y-205185000D02*
X686432936Y-205185000D01*
X686887064Y-206655000D02*
X686432936Y-206655000D01*
%TO.C,R1*%
X660325000Y-111022936D02*
X660325000Y-111477064D01*
X661795000Y-111022936D02*
X661795000Y-111477064D01*
%TO.C,C10*%
X674495000Y-153323748D02*
X674495000Y-153846252D01*
X675965000Y-153323748D02*
X675965000Y-153846252D01*
%TO.C,C9*%
X672520000Y-153323748D02*
X672520000Y-153846252D01*
X673990000Y-153323748D02*
X673990000Y-153846252D01*
%TO.C,C8*%
X674415000Y-129543748D02*
X674415000Y-130066252D01*
X675885000Y-129543748D02*
X675885000Y-130066252D01*
%TO.C,C7*%
X672450000Y-129548748D02*
X672450000Y-130071252D01*
X673920000Y-129548748D02*
X673920000Y-130071252D01*
%TO.C,C6*%
X670485000Y-129548748D02*
X670485000Y-130071252D01*
X671955000Y-129548748D02*
X671955000Y-130071252D01*
%TO.C,C5*%
X670550000Y-153328748D02*
X670550000Y-153851252D01*
X672020000Y-153328748D02*
X672020000Y-153851252D01*
%TO.C,C4*%
X657703748Y-119980000D02*
X658226252Y-119980000D01*
X657703748Y-118510000D02*
X658226252Y-118510000D01*
%TO.C,C3*%
X657718748Y-121985000D02*
X658241252Y-121985000D01*
X657718748Y-120515000D02*
X658241252Y-120515000D01*
%TO.C,C2*%
X657718748Y-123980000D02*
X658241252Y-123980000D01*
X657718748Y-122510000D02*
X658241252Y-122510000D01*
%TO.C,C1*%
X692528748Y-214025000D02*
X693051252Y-214025000D01*
X692528748Y-212555000D02*
X693051252Y-212555000D01*
%TO.C,J1*%
X667622500Y-102102500D02*
X667622500Y-103802500D01*
X658282500Y-102102500D02*
X658282500Y-103802500D01*
%TD*%
M02*
