%TF.GenerationSoftware,KiCad,Pcbnew,8.99.0-946-gf00a1ab517*%
%TF.CreationDate,2024-05-15T19:37:32+07:00*%
%TF.ProjectId,toro60,746f726f-3630-42e6-9b69-6361645f7063,rev?*%
%TF.SameCoordinates,Original*%
%TF.FileFunction,Legend,Top*%
%TF.FilePolarity,Positive*%
%FSLAX46Y46*%
G04 Gerber Fmt 4.6, Leading zero omitted, Abs format (unit mm)*
G04 Created by KiCad (PCBNEW 8.99.0-946-gf00a1ab517) date 2024-05-15 19:37:32*
%MOMM*%
%LPD*%
G01*
G04 APERTURE LIST*
%ADD10C,0.300000*%
%ADD11C,0.150000*%
%ADD12C,0.000000*%
G04 APERTURE END LIST*
D10*
X152838572Y-75729757D02*
X152695715Y-75658328D01*
X152695715Y-75658328D02*
X152481429Y-75658328D01*
X152481429Y-75658328D02*
X152267143Y-75729757D01*
X152267143Y-75729757D02*
X152124286Y-75872614D01*
X152124286Y-75872614D02*
X152052857Y-76015471D01*
X152052857Y-76015471D02*
X151981429Y-76301185D01*
X151981429Y-76301185D02*
X151981429Y-76515471D01*
X151981429Y-76515471D02*
X152052857Y-76801185D01*
X152052857Y-76801185D02*
X152124286Y-76944042D01*
X152124286Y-76944042D02*
X152267143Y-77086900D01*
X152267143Y-77086900D02*
X152481429Y-77158328D01*
X152481429Y-77158328D02*
X152624286Y-77158328D01*
X152624286Y-77158328D02*
X152838572Y-77086900D01*
X152838572Y-77086900D02*
X152910000Y-77015471D01*
X152910000Y-77015471D02*
X152910000Y-76515471D01*
X152910000Y-76515471D02*
X152624286Y-76515471D01*
X153767143Y-75658328D02*
X153767143Y-76015471D01*
X153410000Y-75872614D02*
X153767143Y-76015471D01*
X153767143Y-76015471D02*
X154124286Y-75872614D01*
X153552857Y-76301185D02*
X153767143Y-76015471D01*
X153767143Y-76015471D02*
X153981429Y-76301185D01*
X154910000Y-75658328D02*
X154910000Y-76015471D01*
X154552857Y-75872614D02*
X154910000Y-76015471D01*
X154910000Y-76015471D02*
X155267143Y-75872614D01*
X154695714Y-76301185D02*
X154910000Y-76015471D01*
X154910000Y-76015471D02*
X155124286Y-76301185D01*
X156052857Y-75658328D02*
X156052857Y-76015471D01*
X155695714Y-75872614D02*
X156052857Y-76015471D01*
X156052857Y-76015471D02*
X156410000Y-75872614D01*
X155838571Y-76301185D02*
X156052857Y-76015471D01*
X156052857Y-76015471D02*
X156267143Y-76301185D01*
D11*
X55247319Y-24221904D02*
X56056842Y-24221904D01*
X56056842Y-24221904D02*
X56152080Y-24174285D01*
X56152080Y-24174285D02*
X56199700Y-24126666D01*
X56199700Y-24126666D02*
X56247319Y-24031428D01*
X56247319Y-24031428D02*
X56247319Y-23840952D01*
X56247319Y-23840952D02*
X56199700Y-23745714D01*
X56199700Y-23745714D02*
X56152080Y-23698095D01*
X56152080Y-23698095D02*
X56056842Y-23650476D01*
X56056842Y-23650476D02*
X55247319Y-23650476D01*
X55247319Y-23269523D02*
X55247319Y-22650476D01*
X55247319Y-22650476D02*
X55628271Y-22983809D01*
X55628271Y-22983809D02*
X55628271Y-22840952D01*
X55628271Y-22840952D02*
X55675890Y-22745714D01*
X55675890Y-22745714D02*
X55723509Y-22698095D01*
X55723509Y-22698095D02*
X55818747Y-22650476D01*
X55818747Y-22650476D02*
X56056842Y-22650476D01*
X56056842Y-22650476D02*
X56152080Y-22698095D01*
X56152080Y-22698095D02*
X56199700Y-22745714D01*
X56199700Y-22745714D02*
X56247319Y-22840952D01*
X56247319Y-22840952D02*
X56247319Y-23126666D01*
X56247319Y-23126666D02*
X56199700Y-23221904D01*
X56199700Y-23221904D02*
X56152080Y-23269523D01*
D12*
%TO.C,G\u002A\u002A\u002A*%
G36*
X206657195Y-71528443D02*
G01*
X206899660Y-71579969D01*
X207139571Y-71680585D01*
X207153449Y-71688042D01*
X207296112Y-71792483D01*
X207406767Y-71926903D01*
X207478590Y-72078302D01*
X207504754Y-72233683D01*
X207493036Y-72334775D01*
X207447848Y-72422777D01*
X207361810Y-72518716D01*
X207249560Y-72608141D01*
X207165702Y-72657870D01*
X207047173Y-72698557D01*
X206892736Y-72724704D01*
X206724858Y-72734908D01*
X206566007Y-72727764D01*
X206442215Y-72703071D01*
X206220041Y-72608332D01*
X206047888Y-72488508D01*
X205928104Y-72345595D01*
X205872457Y-72219097D01*
X205855305Y-72110121D01*
X205947264Y-72110121D01*
X205986703Y-72234714D01*
X206026522Y-72292308D01*
X206134935Y-72391993D01*
X206281504Y-72486765D01*
X206445106Y-72563597D01*
X206495648Y-72581627D01*
X206651947Y-72611066D01*
X206828720Y-72610454D01*
X207001571Y-72582017D01*
X207146106Y-72527979D01*
X207158186Y-72521181D01*
X207289953Y-72419294D01*
X207366218Y-72302506D01*
X207385603Y-72174488D01*
X207346727Y-72038909D01*
X207342584Y-72030753D01*
X207248003Y-71908013D01*
X207108715Y-71802904D01*
X206938381Y-71719891D01*
X206750663Y-71663442D01*
X206559223Y-71638022D01*
X206377723Y-71648097D01*
X206264693Y-71678359D01*
X206121713Y-71756575D01*
X206018597Y-71861184D01*
X205959171Y-71982322D01*
X205947264Y-72110121D01*
X205855305Y-72110121D01*
X205843649Y-72036068D01*
X205869636Y-71876677D01*
X205949579Y-71742540D01*
X206082635Y-71635277D01*
X206205801Y-71577470D01*
X206422476Y-71527209D01*
X206657195Y-71528443D01*
G37*
G36*
X213020452Y-73253909D02*
G01*
X213220841Y-73317907D01*
X213263719Y-73336881D01*
X213415757Y-73424977D01*
X213558620Y-73538194D01*
X213679176Y-73663660D01*
X213764295Y-73788504D01*
X213791997Y-73854700D01*
X213806397Y-74000506D01*
X213770330Y-74148697D01*
X213689096Y-74279969D01*
X213669526Y-74300872D01*
X213555924Y-74378841D01*
X213401822Y-74435296D01*
X213223378Y-74467950D01*
X213036754Y-74474519D01*
X212858109Y-74452718D01*
X212769938Y-74428096D01*
X212551433Y-74320414D01*
X212361889Y-74160386D01*
X212259796Y-74036114D01*
X212194280Y-73940933D01*
X212158625Y-73871210D01*
X212145531Y-73805506D01*
X212147419Y-73733072D01*
X212291096Y-73733072D01*
X212294857Y-73838843D01*
X212312507Y-73911154D01*
X212353596Y-73976223D01*
X212398698Y-74028495D01*
X212587256Y-74194516D01*
X212805605Y-74309459D01*
X212826090Y-74317024D01*
X212936481Y-74342577D01*
X213073229Y-74354908D01*
X213214963Y-74354106D01*
X213340312Y-74340260D01*
X213425885Y-74314526D01*
X213538533Y-74233090D01*
X213622240Y-74127438D01*
X213664544Y-74014795D01*
X213667303Y-73980871D01*
X213638693Y-73828264D01*
X213556832Y-73688810D01*
X213427674Y-73566998D01*
X213257171Y-73467317D01*
X213051278Y-73394253D01*
X212836428Y-73354482D01*
X212688699Y-73344374D01*
X212578681Y-73356473D01*
X212486810Y-73395663D01*
X212396356Y-73464333D01*
X212336600Y-73521778D01*
X212305116Y-73574362D01*
X212292946Y-73644952D01*
X212291096Y-73733072D01*
X212147419Y-73733072D01*
X212147697Y-73722385D01*
X212148671Y-73709779D01*
X212190097Y-73541133D01*
X212282690Y-73400937D01*
X212422234Y-73294991D01*
X212465504Y-73273851D01*
X212626398Y-73230588D01*
X212816842Y-73224371D01*
X213020452Y-73253909D01*
G37*
G36*
X209453334Y-72865513D02*
G01*
X209709569Y-72937056D01*
X209937497Y-73043382D01*
X210127930Y-73179013D01*
X210271679Y-73338471D01*
X210288059Y-73363177D01*
X210358230Y-73525345D01*
X210376252Y-73698393D01*
X210347023Y-73875159D01*
X210275443Y-74048480D01*
X210166414Y-74211196D01*
X210024834Y-74356144D01*
X209855603Y-74476163D01*
X209663623Y-74564090D01*
X209453792Y-74612764D01*
X209431400Y-74615259D01*
X209326135Y-74622497D01*
X209251994Y-74613551D01*
X209180985Y-74581495D01*
X209108976Y-74535461D01*
X208928400Y-74379122D01*
X208785833Y-74180273D01*
X208684471Y-73945067D01*
X208627510Y-73679662D01*
X208619406Y-73592785D01*
X208617871Y-73475760D01*
X208715948Y-73475760D01*
X208725395Y-73580472D01*
X208741644Y-73686475D01*
X208766578Y-73789894D01*
X208818194Y-73951058D01*
X208865370Y-74070599D01*
X208917114Y-74165200D01*
X208982435Y-74251541D01*
X209062967Y-74338742D01*
X209235905Y-74516577D01*
X209407367Y-74496425D01*
X209533698Y-74473134D01*
X209661656Y-74436631D01*
X209715822Y-74415768D01*
X209823474Y-74357008D01*
X209926894Y-74283285D01*
X209953937Y-74259563D01*
X210034963Y-74172181D01*
X210112966Y-74070197D01*
X210177505Y-73969402D01*
X210218136Y-73885589D01*
X210226785Y-73846971D01*
X210200179Y-73783694D01*
X210128366Y-73711822D01*
X210023350Y-73640285D01*
X209897136Y-73578010D01*
X209833174Y-73554237D01*
X209663708Y-73510510D01*
X209459398Y-73476526D01*
X209243964Y-73454787D01*
X209041121Y-73447792D01*
X208895454Y-73455404D01*
X208715948Y-73475760D01*
X208617871Y-73475760D01*
X208616850Y-73397950D01*
X208640471Y-73246701D01*
X208693466Y-73127380D01*
X208772422Y-73034372D01*
X208925334Y-72920725D01*
X209089655Y-72857882D01*
X209275922Y-72843227D01*
X209453334Y-72865513D01*
G37*
G36*
X211857061Y-70007303D02*
G01*
X211962089Y-70061210D01*
X212040309Y-70156723D01*
X212094888Y-70298482D01*
X212128994Y-70491126D01*
X212138867Y-70600770D01*
X212143801Y-71018028D01*
X212102686Y-71434428D01*
X212018061Y-71839446D01*
X211892466Y-72222561D01*
X211728440Y-72573251D01*
X211619141Y-72753972D01*
X211493709Y-72914610D01*
X211361250Y-73033551D01*
X211228327Y-73107483D01*
X211101503Y-73133092D01*
X210987343Y-73107067D01*
X210956311Y-73088531D01*
X210912657Y-73039818D01*
X210858632Y-72954551D01*
X210808569Y-72856670D01*
X210774200Y-72778227D01*
X210750519Y-72710538D01*
X210735618Y-72639805D01*
X210727591Y-72552229D01*
X210724532Y-72434011D01*
X210724536Y-72271354D01*
X210724647Y-72249141D01*
X210746614Y-71843584D01*
X210806621Y-71454202D01*
X210902244Y-71088389D01*
X210979039Y-70888757D01*
X211243981Y-70888757D01*
X211255197Y-71086718D01*
X211290279Y-71232667D01*
X211351385Y-71330347D01*
X211440669Y-71383501D01*
X211536279Y-71396490D01*
X211625453Y-71389901D01*
X211690659Y-71361626D01*
X211758968Y-71298910D01*
X211771047Y-71285863D01*
X211879795Y-71127301D01*
X211959467Y-70924758D01*
X212005968Y-70688702D01*
X212014507Y-70566913D01*
X212004340Y-70473743D01*
X211971921Y-70379929D01*
X211967242Y-70369212D01*
X211892517Y-70248650D01*
X211799909Y-70175649D01*
X211697277Y-70154858D01*
X211631323Y-70170528D01*
X211482977Y-70263298D01*
X211367315Y-70401818D01*
X211287834Y-70579608D01*
X211248029Y-70790187D01*
X211243981Y-70888757D01*
X210979039Y-70888757D01*
X211031054Y-70753540D01*
X211190626Y-70457049D01*
X211378534Y-70206310D01*
X211404143Y-70178288D01*
X211491522Y-70086944D01*
X211553815Y-70031295D01*
X211605930Y-70002528D01*
X211662774Y-69991833D01*
X211722058Y-69990366D01*
X211857061Y-70007303D01*
G37*
G36*
X209499832Y-69450638D02*
G01*
X209573238Y-69504132D01*
X209625635Y-69567955D01*
X209660264Y-69652585D01*
X209680369Y-69768501D01*
X209689192Y-69926182D01*
X209690391Y-70066519D01*
X209670984Y-70459413D01*
X209612163Y-70825038D01*
X209509907Y-71179516D01*
X209360192Y-71538967D01*
X209285640Y-71688670D01*
X209130779Y-71959401D01*
X208977274Y-72171656D01*
X208823755Y-72326735D01*
X208668852Y-72425934D01*
X208511196Y-72470554D01*
X208457574Y-72473522D01*
X208386083Y-72468488D01*
X208336120Y-72444712D01*
X208288449Y-72389181D01*
X208252818Y-72335008D01*
X208192883Y-72221634D01*
X208155048Y-72098573D01*
X208137174Y-71952247D01*
X208137125Y-71769078D01*
X208144125Y-71644790D01*
X208205563Y-71181069D01*
X208322710Y-70735519D01*
X208464953Y-70384363D01*
X208805701Y-70384363D01*
X208806955Y-70520876D01*
X208812624Y-70612019D01*
X208825567Y-70672237D01*
X208848641Y-70715976D01*
X208878231Y-70750853D01*
X208977497Y-70819115D01*
X209088758Y-70831918D01*
X209203421Y-70789986D01*
X209293395Y-70715866D01*
X209394446Y-70581331D01*
X209478199Y-70417399D01*
X209540480Y-70239126D01*
X209577115Y-70061569D01*
X209583930Y-69899784D01*
X209556752Y-69768825D01*
X209556262Y-69767645D01*
X209485325Y-69658239D01*
X209387301Y-69589776D01*
X209298578Y-69571520D01*
X209199270Y-69597593D01*
X209091518Y-69668356D01*
X208988286Y-69772623D01*
X208902535Y-69899209D01*
X208889433Y-69924566D01*
X208849114Y-70013575D01*
X208824177Y-70093288D01*
X208811052Y-70183313D01*
X208806169Y-70303256D01*
X208805701Y-70384363D01*
X208464953Y-70384363D01*
X208494241Y-70312061D01*
X208718833Y-69914614D01*
X208737986Y-69885654D01*
X208851582Y-69725235D01*
X208952333Y-69606308D01*
X209052178Y-69515904D01*
X209126720Y-69463417D01*
X209257655Y-69403787D01*
X209381180Y-69401136D01*
X209499832Y-69450638D01*
G37*
G36*
X210566371Y-67562377D02*
G01*
X210948973Y-67604565D01*
X211329200Y-67668181D01*
X211688619Y-67751066D01*
X211771875Y-67774202D01*
X212327078Y-67964029D01*
X212854912Y-68204466D01*
X213351705Y-68493162D01*
X213813786Y-68827763D01*
X214237482Y-69205919D01*
X214570351Y-69566538D01*
X214679556Y-69696185D01*
X214955778Y-69585670D01*
X215238109Y-69484737D01*
X215505269Y-69417078D01*
X215777553Y-69379307D01*
X216075253Y-69368037D01*
X216240212Y-69371289D01*
X216567193Y-69394034D01*
X216848127Y-69440233D01*
X217093580Y-69513972D01*
X217314121Y-69619339D01*
X217520315Y-69760420D01*
X217722730Y-69941304D01*
X217728364Y-69946899D01*
X217927717Y-70180835D01*
X218076217Y-70437989D01*
X218179032Y-70727964D01*
X218203096Y-70829109D01*
X218233254Y-71051309D01*
X218239878Y-71308575D01*
X218223965Y-71581398D01*
X218186513Y-71850267D01*
X218140558Y-72053629D01*
X217997355Y-72466628D01*
X217799776Y-72868037D01*
X217553059Y-73251390D01*
X217262442Y-73610223D01*
X216933164Y-73938073D01*
X216570464Y-74228476D01*
X216179580Y-74474966D01*
X216177334Y-74476203D01*
X215926078Y-74614551D01*
X215903482Y-74818206D01*
X215884395Y-74960730D01*
X215858080Y-75121468D01*
X215836192Y-75236089D01*
X215807362Y-75381005D01*
X215794587Y-75480138D01*
X215800787Y-75546080D01*
X215828881Y-75591424D01*
X215881789Y-75628763D01*
X215933557Y-75656071D01*
X216106381Y-75759959D01*
X216288572Y-75896520D01*
X216457692Y-76047746D01*
X216564528Y-76162426D01*
X216676230Y-76318282D01*
X216786665Y-76511976D01*
X216885287Y-76722233D01*
X216961550Y-76927780D01*
X216985277Y-77011139D01*
X217013848Y-77117725D01*
X217042550Y-77186036D01*
X217085785Y-77234805D01*
X217157951Y-77282769D01*
X217222434Y-77319694D01*
X217460983Y-77486226D01*
X217676278Y-77697976D01*
X217856871Y-77941504D01*
X217991311Y-78203369D01*
X218004862Y-78238221D01*
X218063737Y-78455386D01*
X218096049Y-78711198D01*
X218101801Y-78990691D01*
X218080990Y-79278893D01*
X218033619Y-79560838D01*
X218004861Y-79677233D01*
X217936355Y-79876941D01*
X217835009Y-80105884D01*
X217708841Y-80349581D01*
X217565868Y-80593553D01*
X217414108Y-80823321D01*
X217261578Y-81024406D01*
X217253537Y-81034093D01*
X217192257Y-81109810D01*
X217150281Y-81166026D01*
X217137739Y-81187787D01*
X217153488Y-81216732D01*
X217196675Y-81285747D01*
X217261212Y-81385345D01*
X217341008Y-81506038D01*
X217365475Y-81542646D01*
X217596391Y-81918988D01*
X217811092Y-82330545D01*
X218002758Y-82761318D01*
X218164570Y-83195310D01*
X218289707Y-83616520D01*
X218337629Y-83823287D01*
X218384309Y-84188091D01*
X218372240Y-84543654D01*
X218302009Y-84887342D01*
X218174205Y-85216519D01*
X217989417Y-85528551D01*
X217942309Y-85593134D01*
X217841291Y-85708468D01*
X217718229Y-85809986D01*
X217574112Y-85901972D01*
X217359783Y-86020037D01*
X217145687Y-86121480D01*
X216922853Y-86208925D01*
X216682309Y-86284993D01*
X216415085Y-86352308D01*
X216112208Y-86413491D01*
X215764707Y-86471166D01*
X215492273Y-86510557D01*
X215334883Y-86526385D01*
X215129320Y-86538235D01*
X214887107Y-86546183D01*
X214619769Y-86550305D01*
X214338830Y-86550678D01*
X214055814Y-86547378D01*
X213782245Y-86540482D01*
X213529647Y-86530065D01*
X213309544Y-86516205D01*
X213133461Y-86498977D01*
X213101498Y-86494704D01*
X212755917Y-86441283D01*
X212456944Y-86385469D01*
X212191356Y-86324315D01*
X211945930Y-86254878D01*
X211782497Y-86200970D01*
X211613709Y-86142317D01*
X211490231Y-86101656D01*
X211400669Y-86077881D01*
X211333630Y-86069884D01*
X211277718Y-86076560D01*
X211221538Y-86096803D01*
X211153698Y-86129504D01*
X211136183Y-86138208D01*
X211009617Y-86197985D01*
X210873207Y-86258033D01*
X210795218Y-86290004D01*
X210712006Y-86317649D01*
X210576651Y-86356534D01*
X210395477Y-86405177D01*
X210174807Y-86462097D01*
X209920965Y-86525812D01*
X209640276Y-86594842D01*
X209339064Y-86667706D01*
X209023652Y-86742921D01*
X208700365Y-86819007D01*
X208375526Y-86894483D01*
X208055459Y-86967868D01*
X207746489Y-87037680D01*
X207454939Y-87102438D01*
X207187134Y-87160661D01*
X206949397Y-87210867D01*
X206748052Y-87251577D01*
X206589423Y-87281307D01*
X206502050Y-87295544D01*
X206161328Y-87330218D01*
X205827573Y-87336541D01*
X205522109Y-87314223D01*
X205486017Y-87309266D01*
X205103033Y-87224261D01*
X204743677Y-87085828D01*
X204411022Y-86896731D01*
X204108140Y-86659733D01*
X203838103Y-86377599D01*
X203603983Y-86053093D01*
X203408851Y-85688979D01*
X203262146Y-85308151D01*
X203183646Y-85036757D01*
X203126838Y-84775200D01*
X203088408Y-84503225D01*
X203065039Y-84200574D01*
X203059238Y-84068364D01*
X203052852Y-83898086D01*
X203046475Y-83738028D01*
X203040720Y-83602940D01*
X203036201Y-83507575D01*
X203034992Y-83485760D01*
X203027095Y-83353710D01*
X202700261Y-83281764D01*
X202410654Y-83209087D01*
X202103695Y-83116125D01*
X201790519Y-83007412D01*
X201482262Y-82887482D01*
X201190058Y-82760869D01*
X200925042Y-82632106D01*
X200698349Y-82505728D01*
X200544971Y-82404203D01*
X200261400Y-82164922D01*
X200012663Y-81892793D01*
X199801850Y-81594821D01*
X199632048Y-81278013D01*
X199506347Y-80949375D01*
X199427836Y-80615913D01*
X199409704Y-80403148D01*
X199735379Y-80403148D01*
X199788376Y-80715851D01*
X199899353Y-81037209D01*
X199972675Y-81194488D01*
X200143718Y-81492276D01*
X200341507Y-81753927D01*
X200573222Y-81986097D01*
X200846043Y-82195442D01*
X201167150Y-82388618D01*
X201374641Y-82494094D01*
X201579953Y-82585382D01*
X201811049Y-82675574D01*
X202056482Y-82761284D01*
X202304802Y-82839128D01*
X202544562Y-82905717D01*
X202764313Y-82957667D01*
X202952607Y-82991591D01*
X203097997Y-83004102D01*
X203098928Y-83004107D01*
X203165810Y-82998566D01*
X203191939Y-82968694D01*
X203196167Y-82907268D01*
X203201158Y-82828266D01*
X203214568Y-82714887D01*
X203234067Y-82580650D01*
X203257322Y-82439069D01*
X203282003Y-82303664D01*
X203305779Y-82187950D01*
X203326318Y-82105444D01*
X203340504Y-82070333D01*
X203389760Y-82051974D01*
X203439530Y-82052085D01*
X203471160Y-82058868D01*
X203491384Y-82075825D01*
X203502478Y-82114037D01*
X203506719Y-82184585D01*
X203506382Y-82298549D01*
X203505261Y-82372036D01*
X203499674Y-82520373D01*
X203487967Y-82706117D01*
X203471754Y-82907344D01*
X203452652Y-83102127D01*
X203449018Y-83134934D01*
X203419951Y-83492895D01*
X203412105Y-83851848D01*
X203425053Y-84196112D01*
X203458365Y-84510006D01*
X203491716Y-84694841D01*
X203541907Y-84893357D01*
X203609597Y-85116600D01*
X203688252Y-85346019D01*
X203771336Y-85563060D01*
X203852311Y-85749174D01*
X203889531Y-85824011D01*
X203970128Y-85949337D01*
X204086796Y-86095657D01*
X204226573Y-86249671D01*
X204376497Y-86398081D01*
X204523606Y-86527588D01*
X204654938Y-86624893D01*
X204692038Y-86647353D01*
X204912211Y-86751286D01*
X205161520Y-86836247D01*
X205420307Y-86897442D01*
X205668916Y-86930083D01*
X205858822Y-86931714D01*
X205932264Y-86927822D01*
X206047754Y-86922804D01*
X206187535Y-86917397D01*
X206292627Y-86913699D01*
X206397007Y-86908517D01*
X206502722Y-86899143D01*
X206618152Y-86884085D01*
X206751676Y-86861853D01*
X206911673Y-86830953D01*
X207106522Y-86789897D01*
X207344602Y-86737191D01*
X207564123Y-86687396D01*
X208010666Y-86584853D01*
X208435579Y-86486176D01*
X208834886Y-86392337D01*
X209204612Y-86304306D01*
X209540785Y-86223055D01*
X209839429Y-86149555D01*
X210096570Y-86084777D01*
X210308234Y-86029692D01*
X210470447Y-85985272D01*
X210579234Y-85952487D01*
X210598336Y-85945968D01*
X210897584Y-85818599D01*
X211144717Y-85666625D01*
X211343351Y-85487210D01*
X211497103Y-85277521D01*
X211531626Y-85214892D01*
X211571034Y-85131176D01*
X211596943Y-85051283D01*
X211612918Y-84957355D01*
X211622524Y-84831532D01*
X211626477Y-84739718D01*
X211617404Y-84421319D01*
X211570690Y-84090952D01*
X211490739Y-83774369D01*
X211434231Y-83615544D01*
X211388378Y-83482980D01*
X211376305Y-83395080D01*
X211398257Y-83346951D01*
X211448380Y-83333593D01*
X211496402Y-83362814D01*
X211553509Y-83449345D01*
X211618869Y-83591488D01*
X211691650Y-83787546D01*
X211734299Y-83916985D01*
X211792278Y-84107319D01*
X211831677Y-84260184D01*
X211855809Y-84393796D01*
X211867989Y-84526370D01*
X211871519Y-84671263D01*
X211845582Y-84955038D01*
X211769967Y-85235868D01*
X211650458Y-85493037D01*
X211635011Y-85518779D01*
X211587194Y-85602536D01*
X211558660Y-85664632D01*
X211555008Y-85688986D01*
X211590435Y-85704111D01*
X211665208Y-85726681D01*
X211728762Y-85743238D01*
X211842183Y-85772410D01*
X211980987Y-85809902D01*
X212101517Y-85843728D01*
X212544899Y-85953186D01*
X213027140Y-86040041D01*
X213536486Y-86103894D01*
X214061186Y-86144351D01*
X214589488Y-86161015D01*
X215109640Y-86153489D01*
X215609889Y-86121376D01*
X216078484Y-86064280D01*
X216464594Y-85990942D01*
X216653367Y-85940458D01*
X216867563Y-85871676D01*
X217083943Y-85792872D01*
X217279267Y-85712319D01*
X217379518Y-85665169D01*
X217470545Y-85603201D01*
X217578968Y-85505648D01*
X217690733Y-85387826D01*
X217791787Y-85265055D01*
X217868076Y-85152651D01*
X217891817Y-85106777D01*
X217953638Y-84923052D01*
X217997588Y-84701074D01*
X218023612Y-84454881D01*
X218031657Y-84198513D01*
X218021668Y-83946010D01*
X217993593Y-83711412D01*
X217947377Y-83508757D01*
X217898434Y-83381352D01*
X217868012Y-83303712D01*
X217855760Y-83242191D01*
X217843637Y-83185615D01*
X217810255Y-83085853D01*
X217760091Y-82953734D01*
X217697624Y-82800089D01*
X217627332Y-82635748D01*
X217553692Y-82471541D01*
X217481183Y-82318299D01*
X217438461Y-82232966D01*
X217144717Y-81719323D01*
X216808840Y-81241106D01*
X216423407Y-80787955D01*
X216338156Y-80697794D01*
X216241671Y-80594748D01*
X216162772Y-80505283D01*
X216109683Y-80439091D01*
X216090624Y-80406097D01*
X216107516Y-80370857D01*
X216158441Y-80382782D01*
X216243777Y-80442128D01*
X216363900Y-80549152D01*
X216501262Y-80685623D01*
X216612386Y-80796983D01*
X216711477Y-80891002D01*
X216790040Y-80960014D01*
X216839580Y-80996350D01*
X216849625Y-81000024D01*
X216897672Y-80974700D01*
X216967461Y-80904169D01*
X217053678Y-80796597D01*
X217151012Y-80660146D01*
X217254149Y-80502981D01*
X217357778Y-80333265D01*
X217456585Y-80159162D01*
X217545259Y-79988837D01*
X217618488Y-79830453D01*
X217632337Y-79797186D01*
X217676819Y-79685218D01*
X217708214Y-79594632D01*
X217729246Y-79510096D01*
X217742640Y-79416272D01*
X217751120Y-79297827D01*
X217757410Y-79139425D01*
X217759247Y-79082771D01*
X217760220Y-78809550D01*
X217741585Y-78582258D01*
X217699655Y-78389143D01*
X217630742Y-78218457D01*
X217531162Y-78058448D01*
X217397226Y-77897369D01*
X217382261Y-77881241D01*
X217300130Y-77804012D01*
X217198788Y-77723598D01*
X217092814Y-77649889D01*
X216996785Y-77592775D01*
X216925281Y-77562146D01*
X216908003Y-77559506D01*
X216887475Y-77586245D01*
X216859228Y-77656789D01*
X216828948Y-77756630D01*
X216825272Y-77770570D01*
X216753235Y-77988719D01*
X216644282Y-78238171D01*
X216504309Y-78508429D01*
X216339216Y-78788996D01*
X216154897Y-79069376D01*
X215957252Y-79339070D01*
X215911196Y-79397647D01*
X215539920Y-79816287D01*
X215122620Y-80200266D01*
X214664290Y-80546191D01*
X214169922Y-80850667D01*
X213644509Y-81110301D01*
X213093042Y-81321700D01*
X213068952Y-81329614D01*
X212734481Y-81419782D01*
X212391180Y-81477295D01*
X212053259Y-81501111D01*
X211734926Y-81490190D01*
X211465184Y-81447068D01*
X211282185Y-81388547D01*
X211079252Y-81299010D01*
X210877307Y-81189550D01*
X210697271Y-81071259D01*
X210587225Y-80981588D01*
X210422137Y-80805520D01*
X210258913Y-80589573D01*
X210110206Y-80352722D01*
X209988665Y-80113943D01*
X209954557Y-80032593D01*
X209901754Y-79905120D01*
X209860921Y-79825578D01*
X209826308Y-79784749D01*
X209792980Y-79773410D01*
X209740134Y-79770684D01*
X209642331Y-79763450D01*
X209514183Y-79752851D01*
X209389093Y-79741759D01*
X208840962Y-79662857D01*
X208302823Y-79528529D01*
X207782873Y-79341444D01*
X207289311Y-79104272D01*
X207103293Y-78997295D01*
X206994805Y-78932790D01*
X206906114Y-78881975D01*
X206849160Y-78851588D01*
X206835075Y-78845960D01*
X206812070Y-78870075D01*
X206774780Y-78930857D01*
X206757540Y-78963295D01*
X206683305Y-79078685D01*
X206573902Y-79211661D01*
X206444035Y-79346752D01*
X206308409Y-79468485D01*
X206200936Y-79549000D01*
X205961717Y-79680095D01*
X205707516Y-79762656D01*
X205426084Y-79800158D01*
X205304893Y-79803322D01*
X204958756Y-79781263D01*
X204649995Y-79713797D01*
X204375542Y-79598987D01*
X204132327Y-79434896D01*
X203917280Y-79219589D01*
X203727330Y-78951129D01*
X203609236Y-78733770D01*
X203540038Y-78596779D01*
X203488428Y-78506246D01*
X203448385Y-78453647D01*
X203413887Y-78430459D01*
X203392618Y-78427115D01*
X203333905Y-78413104D01*
X203236673Y-78375330D01*
X203114088Y-78320178D01*
X202979315Y-78254036D01*
X202845518Y-78183289D01*
X202725864Y-78114324D01*
X202657645Y-78070580D01*
X202567354Y-78018086D01*
X202484188Y-77984764D01*
X202448222Y-77978555D01*
X202337350Y-77991278D01*
X202183410Y-78027038D01*
X201996814Y-78082042D01*
X201787976Y-78152496D01*
X201567308Y-78234608D01*
X201345224Y-78324583D01*
X201132137Y-78418628D01*
X200938461Y-78512950D01*
X200847151Y-78561807D01*
X200619603Y-78708016D01*
X200401513Y-78884717D01*
X200204841Y-79080028D01*
X200041546Y-79282070D01*
X199923586Y-79478961D01*
X199923195Y-79479777D01*
X199802896Y-79788830D01*
X199740255Y-80095381D01*
X199735379Y-80403148D01*
X199409704Y-80403148D01*
X199399604Y-80284635D01*
X199424740Y-79962545D01*
X199437853Y-79893075D01*
X199534924Y-79574510D01*
X199687442Y-79270259D01*
X199892110Y-78983265D01*
X200145627Y-78716471D01*
X200444697Y-78472822D01*
X200786022Y-78255261D01*
X201166302Y-78066732D01*
X201582241Y-77910178D01*
X201700283Y-77873757D01*
X201840504Y-77831905D01*
X201958449Y-77795698D01*
X202043048Y-77768609D01*
X202083232Y-77754110D01*
X202084888Y-77753111D01*
X202073143Y-77726324D01*
X202032418Y-77664839D01*
X201970903Y-77580848D01*
X201956444Y-77561925D01*
X201810745Y-77360171D01*
X201652831Y-77119962D01*
X201493147Y-76858219D01*
X201342138Y-76591866D01*
X201250259Y-76417771D01*
X201189545Y-76288963D01*
X201114235Y-76113852D01*
X201028357Y-75902998D01*
X200935940Y-75666962D01*
X200841014Y-75416304D01*
X200747606Y-75161582D01*
X200659745Y-74913359D01*
X200581461Y-74682192D01*
X200544453Y-74567751D01*
X200472584Y-74294712D01*
X200414381Y-73980309D01*
X200371566Y-73641806D01*
X200345862Y-73296469D01*
X200341259Y-73072123D01*
X200680712Y-73072123D01*
X200693559Y-73373769D01*
X200721405Y-73691690D01*
X200763575Y-74015665D01*
X200819393Y-74335474D01*
X200888185Y-74640896D01*
X200889494Y-74646026D01*
X201016489Y-75075536D01*
X201175401Y-75502046D01*
X201361832Y-75918227D01*
X201571387Y-76316751D01*
X201799669Y-76690289D01*
X202042283Y-77031511D01*
X202294831Y-77333090D01*
X202552919Y-77587695D01*
X202747397Y-77743358D01*
X202828858Y-77798855D01*
X202930753Y-77864115D01*
X203039938Y-77931259D01*
X203143269Y-77992410D01*
X203227599Y-78039689D01*
X203279784Y-78065218D01*
X203288358Y-78067575D01*
X203292908Y-78039292D01*
X203295713Y-77959947D01*
X203296723Y-77838290D01*
X203295888Y-77683071D01*
X203293158Y-77503038D01*
X203291913Y-77443285D01*
X203292797Y-77344923D01*
X203548241Y-77344923D01*
X203551439Y-77518407D01*
X203558870Y-77660210D01*
X203571527Y-77784385D01*
X203590401Y-77904989D01*
X203610629Y-78008269D01*
X203701740Y-78335239D01*
X203830545Y-78630048D01*
X203993401Y-78887163D01*
X204186662Y-79101055D01*
X204406683Y-79266191D01*
X204459242Y-79295923D01*
X204619995Y-79373544D01*
X204770042Y-79425053D01*
X204927877Y-79454220D01*
X205111997Y-79464814D01*
X205278095Y-79462852D01*
X205426812Y-79457192D01*
X205533577Y-79448352D01*
X205616269Y-79432310D01*
X205692766Y-79405047D01*
X205780945Y-79362540D01*
X205824085Y-79340058D01*
X206085005Y-79177161D01*
X206292500Y-78990278D01*
X206446810Y-78778553D01*
X206548175Y-78541130D01*
X206596834Y-78277154D01*
X206593028Y-77985768D01*
X206536998Y-77666118D01*
X206428982Y-77317347D01*
X206407528Y-77260434D01*
X206137889Y-76634539D01*
X205820128Y-76027336D01*
X205460651Y-75450010D01*
X205065865Y-74913752D01*
X205058505Y-74904582D01*
X204978336Y-74809940D01*
X204875796Y-74696419D01*
X204758385Y-74571511D01*
X204633604Y-74442709D01*
X204508956Y-74317509D01*
X204391940Y-74203403D01*
X204290058Y-74107884D01*
X204210810Y-74038447D01*
X204161699Y-74002585D01*
X204152337Y-73999317D01*
X204130895Y-74026478D01*
X204096380Y-74101567D01*
X204052213Y-74214996D01*
X204001814Y-74357177D01*
X203948601Y-74518519D01*
X203895996Y-74689436D01*
X203854437Y-74834625D01*
X203721276Y-75384904D01*
X203627503Y-75930993D01*
X203570738Y-76490701D01*
X203548600Y-77081837D01*
X203548281Y-77125701D01*
X203548241Y-77344923D01*
X203292797Y-77344923D01*
X203298080Y-76757279D01*
X203349120Y-76101286D01*
X203446972Y-75463638D01*
X203593579Y-74832668D01*
X203790880Y-74196712D01*
X203867224Y-73984358D01*
X203914524Y-73843795D01*
X203947967Y-73707941D01*
X203949739Y-73695836D01*
X204303110Y-73695836D01*
X204569428Y-73940064D01*
X205023354Y-74394598D01*
X205446572Y-74895553D01*
X205833819Y-75435196D01*
X206179835Y-76005795D01*
X206479358Y-76599615D01*
X206645322Y-76991072D01*
X206738771Y-77233992D01*
X206810276Y-77434096D01*
X206862614Y-77603059D01*
X206898563Y-77752555D01*
X206920899Y-77894258D01*
X206932400Y-78039843D01*
X206935843Y-78200984D01*
X206935854Y-78212360D01*
X206935854Y-78577909D01*
X207137798Y-78708146D01*
X207576670Y-78957065D01*
X208047389Y-79160356D01*
X208538609Y-79313798D01*
X209030083Y-79411903D01*
X209150347Y-79429204D01*
X209256163Y-79444480D01*
X209325976Y-79454620D01*
X209329258Y-79455102D01*
X209399385Y-79461675D01*
X209503555Y-79467339D01*
X209591037Y-79470155D01*
X209778021Y-79474229D01*
X209778021Y-79316377D01*
X209780607Y-79273425D01*
X210101528Y-79273425D01*
X210116738Y-79581857D01*
X210166940Y-79872236D01*
X210251068Y-80132223D01*
X210320361Y-80273727D01*
X210485012Y-80503605D01*
X210697678Y-80707741D01*
X210950285Y-80881235D01*
X211234760Y-81019191D01*
X211543033Y-81116709D01*
X211780757Y-81159837D01*
X212049813Y-81179749D01*
X212319747Y-81169791D01*
X212609159Y-81128637D01*
X212807801Y-81086576D01*
X213353443Y-80929569D01*
X213871768Y-80720574D01*
X214360141Y-80461203D01*
X214815924Y-80153065D01*
X215236482Y-79797770D01*
X215619180Y-79396929D01*
X215667645Y-79339600D01*
X215880639Y-79069870D01*
X216061368Y-78807162D01*
X216224746Y-78528291D01*
X216360464Y-78262568D01*
X216483914Y-77993306D01*
X216573059Y-77762033D01*
X216629809Y-77559107D01*
X216656078Y-77374888D01*
X216653776Y-77199734D01*
X216624817Y-77024005D01*
X216614431Y-76981896D01*
X216520400Y-76719723D01*
X216380909Y-76486173D01*
X216192976Y-76278042D01*
X215953622Y-76092123D01*
X215659865Y-75925211D01*
X215609288Y-75900843D01*
X215335044Y-75791098D01*
X215052154Y-75719003D01*
X214749445Y-75683053D01*
X214415745Y-75681742D01*
X214137912Y-75702638D01*
X213592269Y-75785487D01*
X213077318Y-75918998D01*
X212590551Y-76104391D01*
X212129456Y-76342887D01*
X211691526Y-76635704D01*
X211274251Y-76984062D01*
X211047740Y-77204806D01*
X210809591Y-77462512D01*
X210616939Y-77702788D01*
X210462899Y-77937120D01*
X210340584Y-78176995D01*
X210243110Y-78433901D01*
X210180341Y-78651751D01*
X210122374Y-78959277D01*
X210101528Y-79273425D01*
X209780607Y-79273425D01*
X209799146Y-78965520D01*
X209859874Y-78616573D01*
X209956232Y-78287345D01*
X210063719Y-78035245D01*
X210213144Y-77780846D01*
X210410574Y-77511077D01*
X210648711Y-77233410D01*
X210920256Y-76955316D01*
X211217911Y-76684267D01*
X211534377Y-76427734D01*
X211862356Y-76193189D01*
X211864527Y-76191741D01*
X212057389Y-76068721D01*
X212237027Y-75967943D01*
X212419485Y-75882233D01*
X212620805Y-75804415D01*
X212857030Y-75727310D01*
X212993535Y-75686699D01*
X213477987Y-75561169D01*
X213923339Y-75477887D01*
X214332565Y-75436557D01*
X214708639Y-75436882D01*
X215054534Y-75478566D01*
X215063317Y-75480231D01*
X215181391Y-75501573D01*
X215281487Y-75517412D01*
X215345117Y-75524873D01*
X215351847Y-75525107D01*
X215402146Y-75496114D01*
X215453665Y-75412602D01*
X215504117Y-75279782D01*
X215551213Y-75102866D01*
X215564706Y-75040213D01*
X215599842Y-74836831D01*
X215611067Y-74673556D01*
X215597513Y-74535273D01*
X215558311Y-74406868D01*
X215524011Y-74332015D01*
X215473731Y-74224063D01*
X215421887Y-74099179D01*
X215374343Y-73973272D01*
X215336961Y-73862251D01*
X215315605Y-73782028D01*
X215312768Y-73758840D01*
X215337536Y-73736878D01*
X215380083Y-73735458D01*
X215424075Y-73757004D01*
X215474248Y-73814720D01*
X215536751Y-73916521D01*
X215573460Y-73984358D01*
X215630706Y-74093951D01*
X215677105Y-74184465D01*
X215705623Y-74242106D01*
X215710739Y-74253616D01*
X215742594Y-74261805D01*
X215813496Y-74237702D01*
X215915697Y-74186301D01*
X216041452Y-74112601D01*
X216183011Y-74021597D01*
X216332629Y-73918286D01*
X216482556Y-73807664D01*
X216625047Y-73694728D01*
X216752353Y-73584474D01*
X216761850Y-73575734D01*
X217059111Y-73261050D01*
X217318589Y-72904064D01*
X217535398Y-72512452D01*
X217704567Y-72094154D01*
X217798541Y-71783939D01*
X217857531Y-71511670D01*
X217881548Y-71266757D01*
X217870603Y-71038612D01*
X217824707Y-70816645D01*
X217743873Y-70590267D01*
X217706257Y-70505730D01*
X217571318Y-70285039D01*
X217389227Y-70095216D01*
X217165648Y-69939013D01*
X216906249Y-69819186D01*
X216616694Y-69738486D01*
X216302651Y-69699668D01*
X216048323Y-69700018D01*
X215743377Y-69734745D01*
X215413596Y-69805075D01*
X215078454Y-69906399D01*
X214908912Y-69969652D01*
X214669541Y-70065249D01*
X214674381Y-70379339D01*
X214681865Y-70552212D01*
X214697845Y-70751604D01*
X214719499Y-70945281D01*
X214731109Y-71026947D01*
X214755573Y-71201519D01*
X214765529Y-71324608D01*
X214760362Y-71402932D01*
X214739458Y-71443208D01*
X214702199Y-71452154D01*
X214692297Y-71450691D01*
X214636587Y-71410643D01*
X214586670Y-71316868D01*
X214543781Y-71175302D01*
X214509161Y-70991879D01*
X214484046Y-70772536D01*
X214469674Y-70523207D01*
X214466761Y-70369353D01*
X214464461Y-69955525D01*
X214235052Y-69696208D01*
X213843850Y-69293352D01*
X213427517Y-68942068D01*
X212982559Y-68640335D01*
X212505482Y-68386130D01*
X211992792Y-68177433D01*
X211440994Y-68012221D01*
X211243981Y-67965624D01*
X211121506Y-67939192D01*
X211016070Y-67919076D01*
X210916454Y-67904435D01*
X210811440Y-67894430D01*
X210689809Y-67888221D01*
X210540341Y-67884968D01*
X210351818Y-67883833D01*
X210151991Y-67883906D01*
X209923696Y-67884567D01*
X209743928Y-67886340D01*
X209601377Y-67890179D01*
X209484736Y-67897040D01*
X209382695Y-67907879D01*
X209283946Y-67923651D01*
X209177181Y-67945311D01*
X209051091Y-67973814D01*
X209030083Y-67978675D01*
X208408851Y-68150718D01*
X207822974Y-68370714D01*
X207272754Y-68638520D01*
X206758488Y-68953989D01*
X206292627Y-69306786D01*
X205854237Y-69708808D01*
X205469220Y-70136309D01*
X205138090Y-70588220D01*
X204861364Y-71063471D01*
X204639559Y-71560990D01*
X204473190Y-72079709D01*
X204362773Y-72618557D01*
X204308826Y-73176463D01*
X204303110Y-73431901D01*
X204303110Y-73695836D01*
X203949739Y-73695836D01*
X203969194Y-73562894D01*
X203977492Y-73431901D01*
X203979845Y-73394751D01*
X203981559Y-73189609D01*
X203978861Y-73038048D01*
X203974017Y-72839677D01*
X203717510Y-72619203D01*
X203470525Y-72419214D01*
X203228523Y-72251430D01*
X202966904Y-72099677D01*
X202789796Y-72009355D01*
X202549964Y-71897763D01*
X202342048Y-71815680D01*
X202149107Y-71758075D01*
X201954199Y-71719918D01*
X201740380Y-71696176D01*
X201733251Y-71695615D01*
X201581966Y-71684849D01*
X201476109Y-71681048D01*
X201401573Y-71685198D01*
X201344253Y-71698284D01*
X201290039Y-71721291D01*
X201277841Y-71727418D01*
X201104848Y-71842055D01*
X200949302Y-71994534D01*
X200824545Y-72169022D01*
X200743921Y-72349682D01*
X200738919Y-72367041D01*
X200702717Y-72558538D01*
X200683539Y-72796973D01*
X200680712Y-73072123D01*
X200341259Y-73072123D01*
X200338991Y-72961564D01*
X200352677Y-72654357D01*
X200353087Y-72649591D01*
X200370021Y-72479076D01*
X200389030Y-72351271D01*
X200413896Y-72249072D01*
X200448398Y-72155378D01*
X200475509Y-72095685D01*
X200589289Y-71904611D01*
X200739228Y-71721546D01*
X200909474Y-71563377D01*
X201084174Y-71446990D01*
X201084795Y-71446665D01*
X201161691Y-71407763D01*
X201226207Y-71381281D01*
X201292653Y-71364846D01*
X201375335Y-71356089D01*
X201488563Y-71352640D01*
X201646644Y-71352129D01*
X201655407Y-71352137D01*
X201819627Y-71353237D01*
X201942792Y-71358130D01*
X202043675Y-71369788D01*
X202141049Y-71391181D01*
X202253689Y-71425281D01*
X202373428Y-71465778D01*
X202837896Y-71657020D01*
X203275776Y-71901765D01*
X203685929Y-72199362D01*
X203747854Y-72250947D01*
X203856329Y-72337463D01*
X203926446Y-72380548D01*
X203957383Y-72379704D01*
X203957955Y-72378304D01*
X203971838Y-72330345D01*
X203994861Y-72243657D01*
X204020166Y-72144429D01*
X204088078Y-71912975D01*
X204181972Y-71650467D01*
X204294589Y-71375600D01*
X204418669Y-71107072D01*
X204438372Y-71067397D01*
X204720839Y-70569851D01*
X205055391Y-70096436D01*
X205437767Y-69651147D01*
X205863709Y-69237981D01*
X206328955Y-68860932D01*
X206829246Y-68523996D01*
X207360322Y-68231168D01*
X207566732Y-68133458D01*
X207676450Y-68086541D01*
X207815104Y-68031346D01*
X207972308Y-67971553D01*
X208137677Y-67910840D01*
X208300826Y-67852887D01*
X208451371Y-67801372D01*
X208578924Y-67759976D01*
X208673103Y-67732378D01*
X208723521Y-67722256D01*
X208726745Y-67722487D01*
X208768209Y-67715745D01*
X208790742Y-67707807D01*
X208850454Y-67691747D01*
X208957040Y-67670985D01*
X209097897Y-67647356D01*
X209260421Y-67622695D01*
X209432009Y-67598839D01*
X209600059Y-67577623D01*
X209751967Y-67560882D01*
X209867774Y-67550935D01*
X210199827Y-67543780D01*
X210566371Y-67562377D01*
G37*
G36*
X158340476Y-72804220D02*
G01*
X161918947Y-72810082D01*
X161923566Y-74066189D01*
X161928186Y-75322297D01*
X160133746Y-75322699D01*
X159785335Y-75322845D01*
X159479987Y-75323233D01*
X159214457Y-75324033D01*
X158985500Y-75325419D01*
X158789871Y-75327562D01*
X158624324Y-75330633D01*
X158485615Y-75334806D01*
X158370498Y-75340251D01*
X158275729Y-75347141D01*
X158198062Y-75355648D01*
X158134252Y-75365943D01*
X158081055Y-75378199D01*
X158035225Y-75392587D01*
X157993516Y-75409280D01*
X157952685Y-75428450D01*
X157930777Y-75439425D01*
X157728026Y-75565785D01*
X157556440Y-75724340D01*
X157414222Y-75917149D01*
X157299578Y-76146268D01*
X157287616Y-76176228D01*
X157227912Y-76329498D01*
X157221124Y-78245496D01*
X157214335Y-80161495D01*
X155988170Y-80161495D01*
X154762005Y-80161495D01*
X154762005Y-76479927D01*
X154762005Y-72798358D01*
X158340476Y-72804220D01*
G37*
G36*
X160235400Y-76750608D02*
G01*
X160285271Y-76796305D01*
X160361485Y-76868721D01*
X160460892Y-76964789D01*
X160580346Y-77081445D01*
X160716696Y-77215623D01*
X160866794Y-77364256D01*
X161027492Y-77524281D01*
X161083063Y-77579818D01*
X161927949Y-78424942D01*
X161071485Y-79281641D01*
X160907136Y-79445816D01*
X160752700Y-79599664D01*
X160611257Y-79740148D01*
X160485885Y-79864229D01*
X160379663Y-79968871D01*
X160295670Y-80051035D01*
X160236984Y-80107683D01*
X160206685Y-80135778D01*
X160203208Y-80138340D01*
X160185050Y-80122449D01*
X160137291Y-80076805D01*
X160063022Y-80004457D01*
X159965331Y-79908454D01*
X159847308Y-79791842D01*
X159712043Y-79657670D01*
X159562624Y-79508987D01*
X159402142Y-79348839D01*
X159340602Y-79287312D01*
X158489807Y-78436284D01*
X159340835Y-77585489D01*
X159505001Y-77421800D01*
X159659624Y-77268463D01*
X159801566Y-77128531D01*
X159927688Y-77005059D01*
X160034853Y-76901100D01*
X160119922Y-76819708D01*
X160179759Y-76763937D01*
X160211225Y-76736841D01*
X160215020Y-76734694D01*
X160235400Y-76750608D01*
G37*
G36*
X145363257Y-74060401D02*
G01*
X145363768Y-75310720D01*
X143984947Y-75316690D01*
X142606125Y-75322661D01*
X142606125Y-75920781D01*
X142606525Y-76110633D01*
X142608004Y-76261283D01*
X142610980Y-76379835D01*
X142615873Y-76473388D01*
X142623099Y-76549047D01*
X142633079Y-76613911D01*
X142646230Y-76675084D01*
X142651927Y-76697985D01*
X142711925Y-76884091D01*
X142793152Y-77042791D01*
X142905089Y-77190974D01*
X142964908Y-77255544D01*
X143105671Y-77384388D01*
X143252321Y-77482687D01*
X143423441Y-77562537D01*
X143455128Y-77574708D01*
X143491837Y-77587697D01*
X143529253Y-77598365D01*
X143572397Y-77607018D01*
X143626289Y-77613965D01*
X143695950Y-77619512D01*
X143786398Y-77623968D01*
X143902656Y-77627639D01*
X144049744Y-77630834D01*
X144232680Y-77633859D01*
X144456487Y-77637023D01*
X144476991Y-77637300D01*
X145363810Y-77649279D01*
X145363282Y-78899598D01*
X145362755Y-80149917D01*
X144488041Y-80152761D01*
X144282365Y-80152894D01*
X144083767Y-80152013D01*
X143898815Y-80150222D01*
X143734080Y-80147624D01*
X143596130Y-80144321D01*
X143491535Y-80140417D01*
X143428094Y-80136147D01*
X143072185Y-80081199D01*
X142725995Y-79990304D01*
X142674618Y-79973654D01*
X142324426Y-79833768D01*
X141987555Y-79652611D01*
X141667913Y-79434253D01*
X141369408Y-79182763D01*
X141095948Y-78902211D01*
X140851442Y-78596667D01*
X140639797Y-78270201D01*
X140464922Y-77926884D01*
X140330724Y-77570783D01*
X140313987Y-77515290D01*
X140277712Y-77387524D01*
X140248034Y-77272813D01*
X140224196Y-77164265D01*
X140205439Y-77054987D01*
X140191005Y-76938084D01*
X140180136Y-76806663D01*
X140172075Y-76653831D01*
X140166062Y-76472693D01*
X140161340Y-76256358D01*
X140158763Y-76103746D01*
X140146460Y-75322297D01*
X139176458Y-75322297D01*
X138206456Y-75322297D01*
X138212444Y-74066189D01*
X138218432Y-72810082D01*
X141790588Y-72810082D01*
X145362745Y-72810082D01*
X145363257Y-74060401D01*
G37*
G36*
X166655877Y-72809758D02*
G01*
X167048890Y-72850621D01*
X167433325Y-72931406D01*
X167803622Y-73051848D01*
X168121896Y-73194802D01*
X168462899Y-73395535D01*
X168782053Y-73633705D01*
X169075637Y-73904969D01*
X169339930Y-74204986D01*
X169571212Y-74529414D01*
X169765761Y-74873912D01*
X169919856Y-75234137D01*
X169953543Y-75332000D01*
X170041762Y-75666167D01*
X170097734Y-76023652D01*
X170121322Y-76394404D01*
X170112391Y-76768374D01*
X170070806Y-77135514D01*
X169996430Y-77485775D01*
X169983295Y-77533232D01*
X169859340Y-77885681D01*
X169693142Y-78227890D01*
X169488403Y-78555419D01*
X169248824Y-78863834D01*
X168978104Y-79148698D01*
X168679945Y-79405573D01*
X168358048Y-79630024D01*
X168121896Y-79764785D01*
X167773280Y-79920841D01*
X167402990Y-80038308D01*
X167016325Y-80116237D01*
X166618587Y-80153680D01*
X166215077Y-80149685D01*
X166049608Y-80135893D01*
X165645659Y-80071947D01*
X165261663Y-79966695D01*
X164896359Y-79819547D01*
X164548487Y-79629912D01*
X164216788Y-79397199D01*
X163914644Y-79134860D01*
X163632483Y-78836505D01*
X163387597Y-78516646D01*
X163182828Y-78179330D01*
X163054291Y-77910265D01*
X162928121Y-77555993D01*
X162840248Y-77183957D01*
X162790499Y-76800492D01*
X162778698Y-76411935D01*
X162779056Y-76406592D01*
X165235919Y-76406592D01*
X165240448Y-76638524D01*
X165289360Y-76857364D01*
X165382700Y-77063229D01*
X165520510Y-77256235D01*
X165588324Y-77330094D01*
X165772582Y-77488560D01*
X165971684Y-77603161D01*
X166185629Y-77673897D01*
X166414418Y-77700769D01*
X166658052Y-77683777D01*
X166663190Y-77682972D01*
X166870818Y-77627892D01*
X167065592Y-77533657D01*
X167242044Y-77405908D01*
X167394704Y-77250284D01*
X167518103Y-77072425D01*
X167606772Y-76877972D01*
X167655242Y-76672564D01*
X167656966Y-76658125D01*
X167665755Y-76408277D01*
X167633416Y-76178940D01*
X167559261Y-75968069D01*
X167442606Y-75773619D01*
X167308434Y-75618633D01*
X167130450Y-75469946D01*
X166938974Y-75362195D01*
X166738536Y-75293658D01*
X166533664Y-75262615D01*
X166328888Y-75267342D01*
X166128736Y-75306118D01*
X165937738Y-75377222D01*
X165760421Y-75478931D01*
X165601315Y-75609523D01*
X165464948Y-75767278D01*
X165355849Y-75950472D01*
X165278548Y-76157384D01*
X165237573Y-76386293D01*
X165235919Y-76406592D01*
X162779056Y-76406592D01*
X162804672Y-76024622D01*
X162868246Y-75644887D01*
X162969247Y-75279067D01*
X163107499Y-74933498D01*
X163137894Y-74870793D01*
X163332364Y-74530184D01*
X163564288Y-74208986D01*
X163828955Y-73911548D01*
X164121656Y-73642216D01*
X164437682Y-73405339D01*
X164772324Y-73205262D01*
X165109293Y-73050841D01*
X165480996Y-72929358D01*
X165866369Y-72848861D01*
X166259850Y-72809083D01*
X166655877Y-72809758D01*
G37*
G36*
X150630161Y-72841251D02*
G01*
X151021459Y-72920972D01*
X151401386Y-73045292D01*
X151770792Y-73214391D01*
X152130528Y-73428447D01*
X152163981Y-73450957D01*
X152269023Y-73530441D01*
X152394512Y-73638214D01*
X152532355Y-73766101D01*
X152674459Y-73905923D01*
X152812731Y-74049503D01*
X152939077Y-74188664D01*
X153045405Y-74315229D01*
X153122733Y-74419682D01*
X153336234Y-74779516D01*
X153505170Y-75151105D01*
X153630104Y-75535822D01*
X153688612Y-75796955D01*
X153709248Y-75945714D01*
X153723564Y-76127821D01*
X153731551Y-76331033D01*
X153733201Y-76543107D01*
X153728503Y-76751799D01*
X153717449Y-76944867D01*
X153700030Y-77110067D01*
X153689638Y-77174621D01*
X153595243Y-77556749D01*
X153455779Y-77932006D01*
X153272280Y-78297906D01*
X153122733Y-78540317D01*
X153044055Y-78646464D01*
X152937381Y-78773268D01*
X152810806Y-78912551D01*
X152672422Y-79056135D01*
X152530322Y-79195843D01*
X152392599Y-79323498D01*
X152267347Y-79430923D01*
X152163981Y-79509042D01*
X151802833Y-79728251D01*
X151430627Y-79902504D01*
X151047504Y-80031765D01*
X150653607Y-80115997D01*
X150249076Y-80155166D01*
X149834052Y-80149235D01*
X149682387Y-80136082D01*
X149270645Y-80070438D01*
X148877741Y-79962611D01*
X148504518Y-79813088D01*
X148151819Y-79622355D01*
X147820486Y-79390897D01*
X147511363Y-79119201D01*
X147225292Y-78807752D01*
X147096881Y-78644904D01*
X146876574Y-78316042D01*
X146698903Y-77972294D01*
X146563280Y-77611836D01*
X146469117Y-77232845D01*
X146415824Y-76833497D01*
X146402212Y-76491577D01*
X146402692Y-76478414D01*
X148857995Y-76478414D01*
X148871151Y-76685226D01*
X148913010Y-76868566D01*
X148988087Y-77041770D01*
X149100895Y-77218177D01*
X149114733Y-77236919D01*
X149199284Y-77330984D01*
X149311135Y-77429224D01*
X149434342Y-77519259D01*
X149552956Y-77588712D01*
X149589543Y-77605496D01*
X149684488Y-77638215D01*
X149801040Y-77668669D01*
X149918986Y-77692316D01*
X150018108Y-77704618D01*
X150034142Y-77705324D01*
X150096206Y-77702666D01*
X150184488Y-77693925D01*
X150277260Y-77681373D01*
X150491716Y-77624911D01*
X150693614Y-77524377D01*
X150880948Y-77380789D01*
X150894791Y-77367902D01*
X151057875Y-77186759D01*
X151176951Y-76991990D01*
X151252718Y-76782052D01*
X151285870Y-76555405D01*
X151287562Y-76498505D01*
X151271768Y-76269885D01*
X151218502Y-76063813D01*
X151125180Y-75874121D01*
X150989216Y-75694641D01*
X150920641Y-75622669D01*
X150768036Y-75486888D01*
X150618137Y-75388670D01*
X150458631Y-75321774D01*
X150277207Y-75279957D01*
X150231457Y-75273280D01*
X150115896Y-75260429D01*
X150024413Y-75258028D01*
X149935863Y-75266567D01*
X149850583Y-75282078D01*
X149669843Y-75329270D01*
X149516708Y-75394789D01*
X149376405Y-75486654D01*
X149234164Y-75612885D01*
X149225589Y-75621385D01*
X149075449Y-75791054D01*
X148967465Y-75962180D01*
X148898013Y-76143207D01*
X148863470Y-76342582D01*
X148857995Y-76478414D01*
X146402692Y-76478414D01*
X146415751Y-76120622D01*
X146458653Y-75777112D01*
X146533244Y-75450896D01*
X146641850Y-75131821D01*
X146786799Y-74809737D01*
X146788356Y-74806633D01*
X146898130Y-74607610D01*
X147025230Y-74416111D01*
X147176073Y-74223679D01*
X147357078Y-74021859D01*
X147479049Y-73896528D01*
X147778830Y-73620099D01*
X148083736Y-73387876D01*
X148397618Y-73197774D01*
X148724328Y-73047709D01*
X149067716Y-72935597D01*
X149379521Y-72867908D01*
X149810043Y-72814897D01*
X150226639Y-72805952D01*
X150630161Y-72841251D01*
G37*
%TD*%
M02*
