%TF.GenerationSoftware,KiCad,Pcbnew,8.99.0-946-gf00a1ab517*%
%TF.CreationDate,2024-05-15T19:37:29+07:00*%
%TF.ProjectId,toro60,746f726f-3630-42e6-9b69-6361645f7063,rev?*%
%TF.SameCoordinates,Original*%
%TF.FileFunction,Drillmap*%
%TF.FilePolarity,Positive*%
%FSLAX45Y45*%
G04 Gerber Fmt 4.5, Leading zero omitted, Abs format (unit mm)*
G04 Created by KiCad (PCBNEW 8.99.0-946-gf00a1ab517) date 2024-05-15 19:37:29*
%MOMM*%
%LPD*%
G01*
G04 APERTURE LIST*
%ADD10C,0.500000*%
%ADD11C,0.150000*%
%ADD12C,0.200000*%
%ADD13C,0.100000*%
%ADD14C,0.170000*%
G04 APERTURE END LIST*
D10*
X12500000Y-8901000D02*
G75*
G02*
X12200000Y-8601000I0J300000D01*
G01*
X24008000Y-8599000D02*
G75*
G02*
X23708000Y-8899000I-300000J0D01*
G01*
X9710058Y-8528457D02*
G75*
G02*
X9659999Y-8477651I-48J50017D01*
G01*
X12149711Y-8525624D02*
X9710058Y-8528457D01*
X32333000Y600249D02*
X32333000Y-8218691D01*
X12200000Y-8601000D02*
X12199780Y-8574825D01*
X9150489Y901291D02*
X4160975Y901291D01*
X9850500Y851289D02*
G75*
G02*
X9899679Y901293I50020J-9D01*
G01*
X9200500Y850854D02*
X9200500Y550177D01*
X9150489Y901291D02*
G75*
G02*
X9200499Y850854I1J-50011D01*
G01*
X9660000Y-8477651D02*
X9660000Y-7971209D01*
X9850500Y551289D02*
G75*
G02*
X9200502Y550177I-325000J1D01*
G01*
X26295469Y901291D02*
G75*
G02*
X26345491Y851269I11J-50011D01*
G01*
X26345499Y851269D02*
X26345499Y551299D01*
X4963000Y1000D02*
G75*
G02*
X4563000Y1000I-200000J0D01*
G01*
X4563000Y1000D02*
G75*
G02*
X4963000Y1000I200000J0D01*
G01*
X8960058Y-8529328D02*
X8960058Y-8529328D01*
X9010000Y-7971209D02*
X9010000Y-8479331D01*
X26995499Y551299D02*
G75*
G02*
X26345499Y551299I-325000J0D01*
G01*
X27235989Y-8518709D02*
G75*
G02*
X27185998Y-8467857I11J50009D01*
G01*
X3863000Y-8234899D02*
X3863000Y601289D01*
X24008150Y-8568721D02*
X24008000Y-8599000D01*
X26535999Y-7971201D02*
X26535999Y-8468691D01*
X26295469Y901291D02*
X9899679Y901291D01*
X8960058Y-8529328D02*
X4163348Y-8534899D01*
X9010000Y-8479331D02*
G75*
G02*
X8960058Y-8529330I-50000J1D01*
G01*
X4163348Y-8534899D02*
G75*
G02*
X3863001Y-8234899I-348J299999D01*
G01*
X9850500Y551289D02*
X9850500Y851289D01*
X32032999Y901291D02*
G75*
G02*
X32332999Y600249I1J-300001D01*
G01*
X26995499Y551299D02*
X26995499Y851289D01*
X32333000Y-8218691D02*
G75*
G02*
X32032989Y-8518700I-300000J-9D01*
G01*
X24008150Y-8568721D02*
G75*
G02*
X24057329Y-8518707I50020J1D01*
G01*
X27045499Y901289D02*
X27045499Y901291D01*
X12149711Y-8525624D02*
G75*
G02*
X12199779Y-8574825I59J-50016D01*
G01*
X3863000Y601289D02*
G75*
G02*
X4160975Y901293I300020J-9D01*
G01*
X32032989Y-8518702D02*
X32032989Y-8518709D01*
X9010000Y-7971209D02*
G75*
G02*
X9660000Y-7971209I325000J0D01*
G01*
X26345492Y851269D02*
X26345499Y851269D01*
X26535999Y-7971201D02*
G75*
G02*
X27185999Y-7971201I325000J0D01*
G01*
X26995499Y851289D02*
G75*
G02*
X27045499Y901291I50001J1D01*
G01*
X26485500Y-8518709D02*
X24057329Y-8518709D01*
X26535999Y-8468691D02*
G75*
G02*
X26485500Y-8518707I-50019J1D01*
G01*
X27235989Y-8518709D02*
X32032989Y-8518709D01*
X23708000Y-8899000D02*
X12500000Y-8901000D01*
X27185999Y-8467857D02*
X27185999Y-7971201D01*
X27045499Y901291D02*
X32032999Y901291D01*
D11*
X4770600Y-4488000D02*
X4770600Y-4148000D01*
X5150600Y-4148000D02*
X4770600Y-4148000D01*
X5150600Y-4488000D02*
X4770600Y-4488000D01*
X5150600Y-4488000D02*
X5150600Y-4148000D01*
X5286900Y-4488000D02*
X5286900Y-4148000D01*
X5666900Y-4148000D02*
X5286900Y-4148000D01*
X5666900Y-4488000D02*
X5286900Y-4488000D01*
X5666900Y-4488000D02*
X5666900Y-4148000D01*
D12*
D13*
X4248000Y-2990000D02*
X4278000Y-3020000D01*
X4278000Y-2990000D02*
X4248000Y-3020000D01*
X4258000Y-1432000D02*
X4288000Y-1462000D01*
X4288000Y-1432000D02*
X4258000Y-1462000D01*
X4315000Y-6826000D02*
X4345000Y-6856000D01*
X4345000Y-6826000D02*
X4315000Y-6856000D01*
X4330000Y-3199000D02*
X4360000Y-3229000D01*
X4360000Y-3199000D02*
X4330000Y-3229000D01*
X4330000Y-4193000D02*
X4360000Y-4223000D01*
X4360000Y-4193000D02*
X4330000Y-4223000D01*
X4336000Y-538000D02*
X4366000Y-568000D01*
X4366000Y-538000D02*
X4336000Y-568000D01*
X4487000Y-494000D02*
X4517000Y-524000D01*
X4517000Y-494000D02*
X4487000Y-524000D01*
X4575000Y-2270000D02*
X4605000Y-2300000D01*
X4605000Y-2270000D02*
X4575000Y-2300000D01*
X4942000Y-954000D02*
X4972000Y-984000D01*
X4972000Y-954000D02*
X4942000Y-984000D01*
X4946000Y-224000D02*
X4976000Y-254000D01*
X4976000Y-224000D02*
X4946000Y-254000D01*
X5137000Y-2682000D02*
X5167000Y-2712000D01*
X5167000Y-2682000D02*
X5137000Y-2712000D01*
X5233000Y-2358000D02*
X5263000Y-2388000D01*
X5263000Y-2358000D02*
X5233000Y-2388000D01*
X5338000Y-736000D02*
X5368000Y-766000D01*
X5368000Y-736000D02*
X5338000Y-766000D01*
X5351000Y-2168000D02*
X5381000Y-2198000D01*
X5381000Y-2168000D02*
X5351000Y-2198000D01*
X5689000Y-1734000D02*
X5719000Y-1764000D01*
X5719000Y-1734000D02*
X5689000Y-1764000D01*
X5698000Y-6924000D02*
X5728000Y-6954000D01*
X5728000Y-6924000D02*
X5698000Y-6954000D01*
X5704000Y-7191000D02*
X5734000Y-7221000D01*
X5734000Y-7191000D02*
X5704000Y-7221000D01*
X5818000Y-1188000D02*
X5848000Y-1218000D01*
X5848000Y-1188000D02*
X5818000Y-1218000D01*
X5878573Y-807573D02*
X5908573Y-837573D01*
X5908573Y-807573D02*
X5878573Y-837573D01*
X5942000Y-3160000D02*
X5972000Y-3190000D01*
X5972000Y-3160000D02*
X5942000Y-3190000D01*
X5972000Y-616000D02*
X6002000Y-646000D01*
X6002000Y-616000D02*
X5972000Y-646000D01*
X5997000Y-3198000D02*
X6027000Y-3228000D01*
X6027000Y-3198000D02*
X5997000Y-3228000D01*
X6038000Y-7997000D02*
X6068000Y-8027000D01*
X6068000Y-7997000D02*
X6038000Y-8027000D01*
X6047000Y-3248000D02*
X6077000Y-3278000D01*
X6077000Y-3248000D02*
X6047000Y-3278000D01*
X6095000Y-1621000D02*
X6125000Y-1651000D01*
X6125000Y-1621000D02*
X6095000Y-1651000D01*
X6133000Y-1811000D02*
X6163000Y-1841000D01*
X6163000Y-1811000D02*
X6133000Y-1841000D01*
X6165000Y-492000D02*
X6195000Y-522000D01*
X6195000Y-492000D02*
X6165000Y-522000D01*
X6207000Y-1519000D02*
X6237000Y-1549000D01*
X6237000Y-1519000D02*
X6207000Y-1549000D01*
X6207426Y-654000D02*
X6237426Y-684000D01*
X6237426Y-654000D02*
X6207426Y-684000D01*
X6223000Y-7762000D02*
X6253000Y-7792000D01*
X6253000Y-7762000D02*
X6223000Y-7792000D01*
X6283000Y-4069000D02*
X6313000Y-4099000D01*
X6313000Y-4069000D02*
X6283000Y-4099000D01*
X6285000Y-6092000D02*
X6315000Y-6122000D01*
X6315000Y-6092000D02*
X6285000Y-6122000D01*
X6315000Y-2333000D02*
X6345000Y-2363000D01*
X6345000Y-2333000D02*
X6315000Y-2363000D01*
X6317000Y-4254000D02*
X6347000Y-4284000D01*
X6347000Y-4254000D02*
X6317000Y-4284000D01*
X6385000Y-2672000D02*
X6415000Y-2702000D01*
X6415000Y-2672000D02*
X6385000Y-2702000D01*
X6404000Y-4410000D02*
X6434000Y-4440000D01*
X6434000Y-4410000D02*
X6404000Y-4440000D01*
X6467500Y-2120000D02*
X6497500Y-2150000D01*
X6497500Y-2120000D02*
X6467500Y-2150000D01*
X6470000Y-1626000D02*
X6500000Y-1656000D01*
X6500000Y-1626000D02*
X6470000Y-1656000D01*
X6487000Y-716000D02*
X6517000Y-746000D01*
X6517000Y-716000D02*
X6487000Y-746000D01*
X6499000Y-3075000D02*
X6529000Y-3105000D01*
X6529000Y-3075000D02*
X6499000Y-3105000D01*
X6520000Y-232000D02*
X6550000Y-262000D01*
X6550000Y-232000D02*
X6520000Y-262000D01*
X6543000Y-4417000D02*
X6573000Y-4447000D01*
X6573000Y-4417000D02*
X6543000Y-4447000D01*
X6545000Y-377000D02*
X6575000Y-407000D01*
X6575000Y-377000D02*
X6545000Y-407000D01*
X6590000Y-3234000D02*
X6620000Y-3264000D01*
X6620000Y-3234000D02*
X6590000Y-3264000D01*
X6592000Y-4078000D02*
X6622000Y-4108000D01*
X6622000Y-4078000D02*
X6592000Y-4108000D01*
X6598000Y-4238000D02*
X6628000Y-4268000D01*
X6628000Y-4238000D02*
X6598000Y-4268000D01*
X6602500Y-667500D02*
X6632500Y-697500D01*
X6632500Y-667500D02*
X6602500Y-697500D01*
X6626000Y-6514000D02*
X6656000Y-6544000D01*
X6656000Y-6514000D02*
X6626000Y-6544000D01*
X6634000Y-6158000D02*
X6664000Y-6188000D01*
X6664000Y-6158000D02*
X6634000Y-6188000D01*
X6663000Y-2356000D02*
X6693000Y-2386000D01*
X6693000Y-2356000D02*
X6663000Y-2386000D01*
X6668000Y-803000D02*
X6698000Y-833000D01*
X6698000Y-803000D02*
X6668000Y-833000D01*
X6717000Y-3804000D02*
X6747000Y-3834000D01*
X6747000Y-3804000D02*
X6717000Y-3834000D01*
X6752000Y-7013000D02*
X6782000Y-7043000D01*
X6782000Y-7013000D02*
X6752000Y-7043000D01*
X6828000Y-324000D02*
X6858000Y-354000D01*
X6858000Y-324000D02*
X6828000Y-354000D01*
X6886000Y-7099000D02*
X6916000Y-7129000D01*
X6916000Y-7099000D02*
X6886000Y-7129000D01*
X6888000Y-2538000D02*
X6918000Y-2568000D01*
X6918000Y-2538000D02*
X6888000Y-2568000D01*
X6899000Y-7282000D02*
X6929000Y-7312000D01*
X6929000Y-7282000D02*
X6899000Y-7312000D01*
X6907000Y-721000D02*
X6937000Y-751000D01*
X6937000Y-721000D02*
X6907000Y-751000D01*
X6938000Y-3000000D02*
X6968000Y-3030000D01*
X6968000Y-3000000D02*
X6938000Y-3030000D01*
X6978000Y-7031000D02*
X7008000Y-7061000D01*
X7008000Y-7031000D02*
X6978000Y-7061000D01*
X6983000Y-6839000D02*
X7013000Y-6869000D01*
X7013000Y-6839000D02*
X6983000Y-6869000D01*
X6986000Y-7772000D02*
X7016000Y-7802000D01*
X7016000Y-7772000D02*
X6986000Y-7802000D01*
X6994000Y-3291000D02*
X7024000Y-3321000D01*
X7024000Y-3291000D02*
X6994000Y-3321000D01*
X7022000Y-2609000D02*
X7052000Y-2639000D01*
X7052000Y-2609000D02*
X7022000Y-2639000D01*
X7052000Y-4314000D02*
X7082000Y-4344000D01*
X7082000Y-4314000D02*
X7052000Y-4344000D01*
X7070000Y-5398000D02*
X7100000Y-5428000D01*
X7100000Y-5398000D02*
X7070000Y-5428000D01*
X7186000Y-4255000D02*
X7216000Y-4285000D01*
X7216000Y-4255000D02*
X7186000Y-4285000D01*
X7273000Y-3628000D02*
X7303000Y-3658000D01*
X7303000Y-3628000D02*
X7273000Y-3658000D01*
X7410000Y-680000D02*
X7440000Y-710000D01*
X7440000Y-680000D02*
X7410000Y-710000D01*
X7460000Y-5427000D02*
X7490000Y-5457000D01*
X7490000Y-5427000D02*
X7460000Y-5457000D01*
X7824851Y-6454148D02*
X7854851Y-6484148D01*
X7854851Y-6454148D02*
X7824851Y-6484148D01*
X8327000Y-6142000D02*
X8357000Y-6172000D01*
X8357000Y-6142000D02*
X8327000Y-6172000D01*
X8350000Y-4350000D02*
X8380000Y-4380000D01*
X8380000Y-4350000D02*
X8350000Y-4380000D01*
X8392500Y-2412500D02*
X8422500Y-2442500D01*
X8422500Y-2412500D02*
X8392500Y-2442500D01*
X10255000Y-614000D02*
X10285000Y-644000D01*
X10285000Y-614000D02*
X10255000Y-644000D01*
X10263427Y-824426D02*
X10293427Y-854426D01*
X10293427Y-824426D02*
X10263427Y-854426D01*
X26992000Y-6710000D02*
X27022000Y-6740000D01*
X27022000Y-6710000D02*
X26992000Y-6740000D01*
X27027000Y-6142000D02*
X27057000Y-6172000D01*
X27057000Y-6142000D02*
X27027000Y-6172000D01*
X28879000Y-2188000D02*
X28909000Y-2218000D01*
X28909000Y-2188000D02*
X28879000Y-2218000D01*
X29347000Y-4187000D02*
X29377000Y-4217000D01*
X29377000Y-4187000D02*
X29347000Y-4217000D01*
X29670000Y-372500D02*
X29700000Y-402500D01*
X29700000Y-372500D02*
X29670000Y-402500D01*
X29677500Y-2382500D02*
X29707500Y-2412500D01*
X29707500Y-2382500D02*
X29677500Y-2412500D01*
X29785000Y-542000D02*
X29815000Y-572000D01*
X29815000Y-542000D02*
X29785000Y-572000D01*
X29834000Y-2282000D02*
X29864000Y-2312000D01*
X29864000Y-2282000D02*
X29834000Y-2312000D01*
X29835000Y-484000D02*
X29865000Y-514000D01*
X29865000Y-484000D02*
X29835000Y-514000D01*
X29860000Y-2590000D02*
X29890000Y-2620000D01*
X29890000Y-2590000D02*
X29860000Y-2620000D01*
X31690000Y-357500D02*
X31720000Y-387500D01*
X31720000Y-357500D02*
X31690000Y-387500D01*
X31884000Y-3207000D02*
X31914000Y-3237000D01*
X31914000Y-3207000D02*
X31884000Y-3237000D01*
X32162000Y-6832000D02*
X32192000Y-6862000D01*
X32192000Y-6832000D02*
X32162000Y-6862000D01*
X32192000Y-1064000D02*
X32222000Y-1094000D01*
X32222000Y-1064000D02*
X32192000Y-1094000D01*
X4271500Y255000D02*
G75*
G02*
X4241500Y255000I-15000J0D01*
G01*
X4241500Y255000D02*
G75*
G02*
X4271500Y255000I15000J0D01*
G01*
X4395500Y129000D02*
G75*
G02*
X4365500Y129000I-15000J0D01*
G01*
X4365500Y129000D02*
G75*
G02*
X4395500Y129000I15000J0D01*
G01*
X4396500Y379000D02*
G75*
G02*
X4366500Y379000I-15000J0D01*
G01*
X4366500Y379000D02*
G75*
G02*
X4396500Y379000I15000J0D01*
G01*
X4509600Y-3555000D02*
G75*
G02*
X4479600Y-3555000I-15000J0D01*
G01*
X4479600Y-3555000D02*
G75*
G02*
X4509600Y-3555000I15000J0D01*
G01*
X4509600Y-5460000D02*
G75*
G02*
X4479600Y-5460000I-15000J0D01*
G01*
X4479600Y-5460000D02*
G75*
G02*
X4509600Y-5460000I15000J0D01*
G01*
X4509600Y-7365000D02*
G75*
G02*
X4479600Y-7365000I-15000J0D01*
G01*
X4479600Y-7365000D02*
G75*
G02*
X4509600Y-7365000I15000J0D01*
G01*
X4521500Y254000D02*
G75*
G02*
X4491500Y254000I-15000J0D01*
G01*
X4491500Y254000D02*
G75*
G02*
X4521500Y254000I15000J0D01*
G01*
X4633600Y-3681000D02*
G75*
G02*
X4603600Y-3681000I-15000J0D01*
G01*
X4603600Y-3681000D02*
G75*
G02*
X4633600Y-3681000I15000J0D01*
G01*
X4633600Y-5586000D02*
G75*
G02*
X4603600Y-5586000I-15000J0D01*
G01*
X4603600Y-5586000D02*
G75*
G02*
X4633600Y-5586000I15000J0D01*
G01*
X4633600Y-7491000D02*
G75*
G02*
X4603600Y-7491000I-15000J0D01*
G01*
X4603600Y-7491000D02*
G75*
G02*
X4633600Y-7491000I15000J0D01*
G01*
X4634600Y-3431000D02*
G75*
G02*
X4604600Y-3431000I-15000J0D01*
G01*
X4604600Y-3431000D02*
G75*
G02*
X4634600Y-3431000I15000J0D01*
G01*
X4634600Y-5336000D02*
G75*
G02*
X4604600Y-5336000I-15000J0D01*
G01*
X4604600Y-5336000D02*
G75*
G02*
X4634600Y-5336000I15000J0D01*
G01*
X4634600Y-7241000D02*
G75*
G02*
X4604600Y-7241000I-15000J0D01*
G01*
X4604600Y-7241000D02*
G75*
G02*
X4634600Y-7241000I15000J0D01*
G01*
X4747800Y-1650000D02*
G75*
G02*
X4717800Y-1650000I-15000J0D01*
G01*
X4717800Y-1650000D02*
G75*
G02*
X4747800Y-1650000I15000J0D01*
G01*
X4759600Y-3556000D02*
G75*
G02*
X4729600Y-3556000I-15000J0D01*
G01*
X4729600Y-3556000D02*
G75*
G02*
X4759600Y-3556000I15000J0D01*
G01*
X4759600Y-5461000D02*
G75*
G02*
X4729600Y-5461000I-15000J0D01*
G01*
X4729600Y-5461000D02*
G75*
G02*
X4759600Y-5461000I15000J0D01*
G01*
X4759600Y-7366000D02*
G75*
G02*
X4729600Y-7366000I-15000J0D01*
G01*
X4729600Y-7366000D02*
G75*
G02*
X4759600Y-7366000I15000J0D01*
G01*
X4871800Y-1776000D02*
G75*
G02*
X4841800Y-1776000I-15000J0D01*
G01*
X4841800Y-1776000D02*
G75*
G02*
X4871800Y-1776000I15000J0D01*
G01*
X4872800Y-1526000D02*
G75*
G02*
X4842800Y-1526000I-15000J0D01*
G01*
X4842800Y-1526000D02*
G75*
G02*
X4872800Y-1526000I15000J0D01*
G01*
X4906500Y508000D02*
G75*
G02*
X4876500Y508000I-15000J0D01*
G01*
X4876500Y508000D02*
G75*
G02*
X4906500Y508000I15000J0D01*
G01*
X4985900Y-3555000D02*
G75*
G02*
X4955900Y-3555000I-15000J0D01*
G01*
X4955900Y-3555000D02*
G75*
G02*
X4985900Y-3555000I15000J0D01*
G01*
X4997800Y-1651000D02*
G75*
G02*
X4967800Y-1651000I-15000J0D01*
G01*
X4967800Y-1651000D02*
G75*
G02*
X4997800Y-1651000I15000J0D01*
G01*
X5031500Y634000D02*
G75*
G02*
X5001500Y634000I-15000J0D01*
G01*
X5001500Y634000D02*
G75*
G02*
X5031500Y634000I15000J0D01*
G01*
X5031500Y384000D02*
G75*
G02*
X5001500Y384000I-15000J0D01*
G01*
X5001500Y384000D02*
G75*
G02*
X5031500Y384000I15000J0D01*
G01*
X5109900Y-3681000D02*
G75*
G02*
X5079900Y-3681000I-15000J0D01*
G01*
X5079900Y-3681000D02*
G75*
G02*
X5109900Y-3681000I15000J0D01*
G01*
X5110900Y-3431000D02*
G75*
G02*
X5080900Y-3431000I-15000J0D01*
G01*
X5080900Y-3431000D02*
G75*
G02*
X5110900Y-3431000I15000J0D01*
G01*
X5144600Y-3302000D02*
G75*
G02*
X5114600Y-3302000I-15000J0D01*
G01*
X5114600Y-3302000D02*
G75*
G02*
X5144600Y-3302000I15000J0D01*
G01*
X5144600Y-5207000D02*
G75*
G02*
X5114600Y-5207000I-15000J0D01*
G01*
X5114600Y-5207000D02*
G75*
G02*
X5144600Y-5207000I15000J0D01*
G01*
X5144600Y-7112000D02*
G75*
G02*
X5114600Y-7112000I-15000J0D01*
G01*
X5114600Y-7112000D02*
G75*
G02*
X5144600Y-7112000I15000J0D01*
G01*
X5155500Y509000D02*
G75*
G02*
X5125500Y509000I-15000J0D01*
G01*
X5125500Y509000D02*
G75*
G02*
X5155500Y509000I15000J0D01*
G01*
X5235900Y-3556000D02*
G75*
G02*
X5205900Y-3556000I-15000J0D01*
G01*
X5205900Y-3556000D02*
G75*
G02*
X5235900Y-3556000I15000J0D01*
G01*
X5269600Y-3176000D02*
G75*
G02*
X5239600Y-3176000I-15000J0D01*
G01*
X5239600Y-3176000D02*
G75*
G02*
X5269600Y-3176000I15000J0D01*
G01*
X5269600Y-3426000D02*
G75*
G02*
X5239600Y-3426000I-15000J0D01*
G01*
X5239600Y-3426000D02*
G75*
G02*
X5269600Y-3426000I15000J0D01*
G01*
X5269600Y-5081000D02*
G75*
G02*
X5239600Y-5081000I-15000J0D01*
G01*
X5239600Y-5081000D02*
G75*
G02*
X5269600Y-5081000I15000J0D01*
G01*
X5269600Y-5331000D02*
G75*
G02*
X5239600Y-5331000I-15000J0D01*
G01*
X5239600Y-5331000D02*
G75*
G02*
X5269600Y-5331000I15000J0D01*
G01*
X5269600Y-6986000D02*
G75*
G02*
X5239600Y-6986000I-15000J0D01*
G01*
X5239600Y-6986000D02*
G75*
G02*
X5269600Y-6986000I15000J0D01*
G01*
X5269600Y-7236000D02*
G75*
G02*
X5239600Y-7236000I-15000J0D01*
G01*
X5239600Y-7236000D02*
G75*
G02*
X5269600Y-7236000I15000J0D01*
G01*
X5382800Y-1397000D02*
G75*
G02*
X5352800Y-1397000I-15000J0D01*
G01*
X5352800Y-1397000D02*
G75*
G02*
X5382800Y-1397000I15000J0D01*
G01*
X5393600Y-3301000D02*
G75*
G02*
X5363600Y-3301000I-15000J0D01*
G01*
X5363600Y-3301000D02*
G75*
G02*
X5393600Y-3301000I15000J0D01*
G01*
X5393600Y-5206000D02*
G75*
G02*
X5363600Y-5206000I-15000J0D01*
G01*
X5363600Y-5206000D02*
G75*
G02*
X5393600Y-5206000I15000J0D01*
G01*
X5393600Y-7111000D02*
G75*
G02*
X5363600Y-7111000I-15000J0D01*
G01*
X5363600Y-7111000D02*
G75*
G02*
X5393600Y-7111000I15000J0D01*
G01*
X5469560Y-5460000D02*
G75*
G02*
X5439560Y-5460000I-15000J0D01*
G01*
X5439560Y-5460000D02*
G75*
G02*
X5469560Y-5460000I15000J0D01*
G01*
X5507800Y-1271000D02*
G75*
G02*
X5477800Y-1271000I-15000J0D01*
G01*
X5477800Y-1271000D02*
G75*
G02*
X5507800Y-1271000I15000J0D01*
G01*
X5507800Y-1521000D02*
G75*
G02*
X5477800Y-1521000I-15000J0D01*
G01*
X5477800Y-1521000D02*
G75*
G02*
X5507800Y-1521000I15000J0D01*
G01*
X5593560Y-5586000D02*
G75*
G02*
X5563560Y-5586000I-15000J0D01*
G01*
X5563560Y-5586000D02*
G75*
G02*
X5593560Y-5586000I15000J0D01*
G01*
X5594560Y-5336000D02*
G75*
G02*
X5564560Y-5336000I-15000J0D01*
G01*
X5564560Y-5336000D02*
G75*
G02*
X5594560Y-5336000I15000J0D01*
G01*
X5620900Y-3302000D02*
G75*
G02*
X5590900Y-3302000I-15000J0D01*
G01*
X5590900Y-3302000D02*
G75*
G02*
X5620900Y-3302000I15000J0D01*
G01*
X5631800Y-1396000D02*
G75*
G02*
X5601800Y-1396000I-15000J0D01*
G01*
X5601800Y-1396000D02*
G75*
G02*
X5631800Y-1396000I15000J0D01*
G01*
X5719560Y-5461000D02*
G75*
G02*
X5689560Y-5461000I-15000J0D01*
G01*
X5689560Y-5461000D02*
G75*
G02*
X5719560Y-5461000I15000J0D01*
G01*
X5745900Y-3176000D02*
G75*
G02*
X5715900Y-3176000I-15000J0D01*
G01*
X5715900Y-3176000D02*
G75*
G02*
X5745900Y-3176000I15000J0D01*
G01*
X5745900Y-3426000D02*
G75*
G02*
X5715900Y-3426000I-15000J0D01*
G01*
X5715900Y-3426000D02*
G75*
G02*
X5745900Y-3426000I15000J0D01*
G01*
X5869900Y-3301000D02*
G75*
G02*
X5839900Y-3301000I-15000J0D01*
G01*
X5839900Y-3301000D02*
G75*
G02*
X5869900Y-3301000I15000J0D01*
G01*
X6104560Y-5207000D02*
G75*
G02*
X6074560Y-5207000I-15000J0D01*
G01*
X6074560Y-5207000D02*
G75*
G02*
X6104560Y-5207000I15000J0D01*
G01*
X6176500Y255000D02*
G75*
G02*
X6146500Y255000I-15000J0D01*
G01*
X6146500Y255000D02*
G75*
G02*
X6176500Y255000I15000J0D01*
G01*
X6229560Y-5081000D02*
G75*
G02*
X6199560Y-5081000I-15000J0D01*
G01*
X6199560Y-5081000D02*
G75*
G02*
X6229560Y-5081000I15000J0D01*
G01*
X6229560Y-5331000D02*
G75*
G02*
X6199560Y-5331000I-15000J0D01*
G01*
X6199560Y-5331000D02*
G75*
G02*
X6229560Y-5331000I15000J0D01*
G01*
X6300500Y129000D02*
G75*
G02*
X6270500Y129000I-15000J0D01*
G01*
X6270500Y129000D02*
G75*
G02*
X6300500Y129000I15000J0D01*
G01*
X6301500Y379000D02*
G75*
G02*
X6271500Y379000I-15000J0D01*
G01*
X6271500Y379000D02*
G75*
G02*
X6301500Y379000I15000J0D01*
G01*
X6353560Y-5206000D02*
G75*
G02*
X6323560Y-5206000I-15000J0D01*
G01*
X6323560Y-5206000D02*
G75*
G02*
X6353560Y-5206000I15000J0D01*
G01*
X6426500Y254000D02*
G75*
G02*
X6396500Y254000I-15000J0D01*
G01*
X6396500Y254000D02*
G75*
G02*
X6426500Y254000I15000J0D01*
G01*
X6652750Y-5460000D02*
G75*
G02*
X6622750Y-5460000I-15000J0D01*
G01*
X6622750Y-5460000D02*
G75*
G02*
X6652750Y-5460000I15000J0D01*
G01*
X6776750Y-5586000D02*
G75*
G02*
X6746750Y-5586000I-15000J0D01*
G01*
X6746750Y-5586000D02*
G75*
G02*
X6776750Y-5586000I15000J0D01*
G01*
X6777750Y-5336000D02*
G75*
G02*
X6747750Y-5336000I-15000J0D01*
G01*
X6747750Y-5336000D02*
G75*
G02*
X6777750Y-5336000I15000J0D01*
G01*
X6811500Y508000D02*
G75*
G02*
X6781500Y508000I-15000J0D01*
G01*
X6781500Y508000D02*
G75*
G02*
X6811500Y508000I15000J0D01*
G01*
X6902750Y-5461000D02*
G75*
G02*
X6872750Y-5461000I-15000J0D01*
G01*
X6872750Y-5461000D02*
G75*
G02*
X6902750Y-5461000I15000J0D01*
G01*
X6936500Y634000D02*
G75*
G02*
X6906500Y634000I-15000J0D01*
G01*
X6906500Y634000D02*
G75*
G02*
X6936500Y634000I15000J0D01*
G01*
X6936500Y384000D02*
G75*
G02*
X6906500Y384000I-15000J0D01*
G01*
X6906500Y384000D02*
G75*
G02*
X6936500Y384000I15000J0D01*
G01*
X7060500Y509000D02*
G75*
G02*
X7030500Y509000I-15000J0D01*
G01*
X7030500Y509000D02*
G75*
G02*
X7060500Y509000I15000J0D01*
G01*
X7129000Y-1650000D02*
G75*
G02*
X7099000Y-1650000I-15000J0D01*
G01*
X7099000Y-1650000D02*
G75*
G02*
X7129000Y-1650000I15000J0D01*
G01*
X7253000Y-1776000D02*
G75*
G02*
X7223000Y-1776000I-15000J0D01*
G01*
X7223000Y-1776000D02*
G75*
G02*
X7253000Y-1776000I15000J0D01*
G01*
X7254000Y-1526000D02*
G75*
G02*
X7224000Y-1526000I-15000J0D01*
G01*
X7224000Y-1526000D02*
G75*
G02*
X7254000Y-1526000I15000J0D01*
G01*
X7287750Y-5207000D02*
G75*
G02*
X7257750Y-5207000I-15000J0D01*
G01*
X7257750Y-5207000D02*
G75*
G02*
X7287750Y-5207000I15000J0D01*
G01*
X7379000Y-1651000D02*
G75*
G02*
X7349000Y-1651000I-15000J0D01*
G01*
X7349000Y-1651000D02*
G75*
G02*
X7379000Y-1651000I15000J0D01*
G01*
X7412750Y-5081000D02*
G75*
G02*
X7382750Y-5081000I-15000J0D01*
G01*
X7382750Y-5081000D02*
G75*
G02*
X7412750Y-5081000I15000J0D01*
G01*
X7412750Y-5331000D02*
G75*
G02*
X7382750Y-5331000I-15000J0D01*
G01*
X7382750Y-5331000D02*
G75*
G02*
X7412750Y-5331000I15000J0D01*
G01*
X7536750Y-5206000D02*
G75*
G02*
X7506750Y-5206000I-15000J0D01*
G01*
X7506750Y-5206000D02*
G75*
G02*
X7536750Y-5206000I15000J0D01*
G01*
X7605250Y-3555000D02*
G75*
G02*
X7575250Y-3555000I-15000J0D01*
G01*
X7575250Y-3555000D02*
G75*
G02*
X7605250Y-3555000I15000J0D01*
G01*
X7652850Y-7365000D02*
G75*
G02*
X7622850Y-7365000I-15000J0D01*
G01*
X7622850Y-7365000D02*
G75*
G02*
X7652850Y-7365000I15000J0D01*
G01*
X7729250Y-3681000D02*
G75*
G02*
X7699250Y-3681000I-15000J0D01*
G01*
X7699250Y-3681000D02*
G75*
G02*
X7729250Y-3681000I15000J0D01*
G01*
X7730250Y-3431000D02*
G75*
G02*
X7700250Y-3431000I-15000J0D01*
G01*
X7700250Y-3431000D02*
G75*
G02*
X7730250Y-3431000I15000J0D01*
G01*
X7764000Y-1397000D02*
G75*
G02*
X7734000Y-1397000I-15000J0D01*
G01*
X7734000Y-1397000D02*
G75*
G02*
X7764000Y-1397000I15000J0D01*
G01*
X7776850Y-7491000D02*
G75*
G02*
X7746850Y-7491000I-15000J0D01*
G01*
X7746850Y-7491000D02*
G75*
G02*
X7776850Y-7491000I15000J0D01*
G01*
X7777850Y-7241000D02*
G75*
G02*
X7747850Y-7241000I-15000J0D01*
G01*
X7747850Y-7241000D02*
G75*
G02*
X7777850Y-7241000I15000J0D01*
G01*
X7855250Y-3556000D02*
G75*
G02*
X7825250Y-3556000I-15000J0D01*
G01*
X7825250Y-3556000D02*
G75*
G02*
X7855250Y-3556000I15000J0D01*
G01*
X7889000Y-1271000D02*
G75*
G02*
X7859000Y-1271000I-15000J0D01*
G01*
X7859000Y-1271000D02*
G75*
G02*
X7889000Y-1271000I15000J0D01*
G01*
X7889000Y-1521000D02*
G75*
G02*
X7859000Y-1521000I-15000J0D01*
G01*
X7859000Y-1521000D02*
G75*
G02*
X7889000Y-1521000I15000J0D01*
G01*
X7902850Y-7366000D02*
G75*
G02*
X7872850Y-7366000I-15000J0D01*
G01*
X7872850Y-7366000D02*
G75*
G02*
X7902850Y-7366000I15000J0D01*
G01*
X8013000Y-1396000D02*
G75*
G02*
X7983000Y-1396000I-15000J0D01*
G01*
X7983000Y-1396000D02*
G75*
G02*
X8013000Y-1396000I15000J0D01*
G01*
X8081500Y255000D02*
G75*
G02*
X8051500Y255000I-15000J0D01*
G01*
X8051500Y255000D02*
G75*
G02*
X8081500Y255000I15000J0D01*
G01*
X8205500Y129000D02*
G75*
G02*
X8175500Y129000I-15000J0D01*
G01*
X8175500Y129000D02*
G75*
G02*
X8205500Y129000I15000J0D01*
G01*
X8206500Y379000D02*
G75*
G02*
X8176500Y379000I-15000J0D01*
G01*
X8176500Y379000D02*
G75*
G02*
X8206500Y379000I15000J0D01*
G01*
X8240250Y-3302000D02*
G75*
G02*
X8210250Y-3302000I-15000J0D01*
G01*
X8210250Y-3302000D02*
G75*
G02*
X8240250Y-3302000I15000J0D01*
G01*
X8287850Y-7112000D02*
G75*
G02*
X8257850Y-7112000I-15000J0D01*
G01*
X8257850Y-7112000D02*
G75*
G02*
X8287850Y-7112000I15000J0D01*
G01*
X8331500Y254000D02*
G75*
G02*
X8301500Y254000I-15000J0D01*
G01*
X8301500Y254000D02*
G75*
G02*
X8331500Y254000I15000J0D01*
G01*
X8365250Y-3176000D02*
G75*
G02*
X8335250Y-3176000I-15000J0D01*
G01*
X8335250Y-3176000D02*
G75*
G02*
X8365250Y-3176000I15000J0D01*
G01*
X8365250Y-3426000D02*
G75*
G02*
X8335250Y-3426000I-15000J0D01*
G01*
X8335250Y-3426000D02*
G75*
G02*
X8365250Y-3426000I15000J0D01*
G01*
X8412850Y-6986000D02*
G75*
G02*
X8382850Y-6986000I-15000J0D01*
G01*
X8382850Y-6986000D02*
G75*
G02*
X8412850Y-6986000I15000J0D01*
G01*
X8412850Y-7236000D02*
G75*
G02*
X8382850Y-7236000I-15000J0D01*
G01*
X8382850Y-7236000D02*
G75*
G02*
X8412850Y-7236000I15000J0D01*
G01*
X8489250Y-3301000D02*
G75*
G02*
X8459250Y-3301000I-15000J0D01*
G01*
X8459250Y-3301000D02*
G75*
G02*
X8489250Y-3301000I15000J0D01*
G01*
X8536850Y-7111000D02*
G75*
G02*
X8506850Y-7111000I-15000J0D01*
G01*
X8506850Y-7111000D02*
G75*
G02*
X8536850Y-7111000I15000J0D01*
G01*
X8557750Y-5460000D02*
G75*
G02*
X8527750Y-5460000I-15000J0D01*
G01*
X8527750Y-5460000D02*
G75*
G02*
X8557750Y-5460000I15000J0D01*
G01*
X8681750Y-5586000D02*
G75*
G02*
X8651750Y-5586000I-15000J0D01*
G01*
X8651750Y-5586000D02*
G75*
G02*
X8681750Y-5586000I15000J0D01*
G01*
X8682750Y-5336000D02*
G75*
G02*
X8652750Y-5336000I-15000J0D01*
G01*
X8652750Y-5336000D02*
G75*
G02*
X8682750Y-5336000I15000J0D01*
G01*
X8716500Y508000D02*
G75*
G02*
X8686500Y508000I-15000J0D01*
G01*
X8686500Y508000D02*
G75*
G02*
X8716500Y508000I15000J0D01*
G01*
X8807750Y-5461000D02*
G75*
G02*
X8777750Y-5461000I-15000J0D01*
G01*
X8777750Y-5461000D02*
G75*
G02*
X8807750Y-5461000I15000J0D01*
G01*
X8841500Y634000D02*
G75*
G02*
X8811500Y634000I-15000J0D01*
G01*
X8811500Y634000D02*
G75*
G02*
X8841500Y634000I15000J0D01*
G01*
X8841500Y384000D02*
G75*
G02*
X8811500Y384000I-15000J0D01*
G01*
X8811500Y384000D02*
G75*
G02*
X8841500Y384000I15000J0D01*
G01*
X8965500Y509000D02*
G75*
G02*
X8935500Y509000I-15000J0D01*
G01*
X8935500Y509000D02*
G75*
G02*
X8965500Y509000I15000J0D01*
G01*
X9034000Y-1650000D02*
G75*
G02*
X9004000Y-1650000I-15000J0D01*
G01*
X9004000Y-1650000D02*
G75*
G02*
X9034000Y-1650000I15000J0D01*
G01*
X9158000Y-1776000D02*
G75*
G02*
X9128000Y-1776000I-15000J0D01*
G01*
X9128000Y-1776000D02*
G75*
G02*
X9158000Y-1776000I15000J0D01*
G01*
X9159000Y-1526000D02*
G75*
G02*
X9129000Y-1526000I-15000J0D01*
G01*
X9129000Y-1526000D02*
G75*
G02*
X9159000Y-1526000I15000J0D01*
G01*
X9192750Y-5207000D02*
G75*
G02*
X9162750Y-5207000I-15000J0D01*
G01*
X9162750Y-5207000D02*
G75*
G02*
X9192750Y-5207000I15000J0D01*
G01*
X9284000Y-1651000D02*
G75*
G02*
X9254000Y-1651000I-15000J0D01*
G01*
X9254000Y-1651000D02*
G75*
G02*
X9284000Y-1651000I15000J0D01*
G01*
X9317750Y-5081000D02*
G75*
G02*
X9287750Y-5081000I-15000J0D01*
G01*
X9287750Y-5081000D02*
G75*
G02*
X9317750Y-5081000I15000J0D01*
G01*
X9317750Y-5331000D02*
G75*
G02*
X9287750Y-5331000I-15000J0D01*
G01*
X9287750Y-5331000D02*
G75*
G02*
X9317750Y-5331000I15000J0D01*
G01*
X9441750Y-5206000D02*
G75*
G02*
X9411750Y-5206000I-15000J0D01*
G01*
X9411750Y-5206000D02*
G75*
G02*
X9441750Y-5206000I15000J0D01*
G01*
X9510250Y-3555000D02*
G75*
G02*
X9480250Y-3555000I-15000J0D01*
G01*
X9480250Y-3555000D02*
G75*
G02*
X9510250Y-3555000I15000J0D01*
G01*
X9634250Y-3681000D02*
G75*
G02*
X9604250Y-3681000I-15000J0D01*
G01*
X9604250Y-3681000D02*
G75*
G02*
X9634250Y-3681000I15000J0D01*
G01*
X9635250Y-3431000D02*
G75*
G02*
X9605250Y-3431000I-15000J0D01*
G01*
X9605250Y-3431000D02*
G75*
G02*
X9635250Y-3431000I15000J0D01*
G01*
X9669000Y-1397000D02*
G75*
G02*
X9639000Y-1397000I-15000J0D01*
G01*
X9639000Y-1397000D02*
G75*
G02*
X9669000Y-1397000I15000J0D01*
G01*
X9760250Y-3556000D02*
G75*
G02*
X9730250Y-3556000I-15000J0D01*
G01*
X9730250Y-3556000D02*
G75*
G02*
X9760250Y-3556000I15000J0D01*
G01*
X9794000Y-1271000D02*
G75*
G02*
X9764000Y-1271000I-15000J0D01*
G01*
X9764000Y-1271000D02*
G75*
G02*
X9794000Y-1271000I15000J0D01*
G01*
X9794000Y-1521000D02*
G75*
G02*
X9764000Y-1521000I-15000J0D01*
G01*
X9764000Y-1521000D02*
G75*
G02*
X9794000Y-1521000I15000J0D01*
G01*
X9918000Y-1396000D02*
G75*
G02*
X9888000Y-1396000I-15000J0D01*
G01*
X9888000Y-1396000D02*
G75*
G02*
X9918000Y-1396000I15000J0D01*
G01*
X9986500Y255000D02*
G75*
G02*
X9956500Y255000I-15000J0D01*
G01*
X9956500Y255000D02*
G75*
G02*
X9986500Y255000I15000J0D01*
G01*
X10034100Y-7365000D02*
G75*
G02*
X10004100Y-7365000I-15000J0D01*
G01*
X10004100Y-7365000D02*
G75*
G02*
X10034100Y-7365000I15000J0D01*
G01*
X10110500Y129000D02*
G75*
G02*
X10080500Y129000I-15000J0D01*
G01*
X10080500Y129000D02*
G75*
G02*
X10110500Y129000I15000J0D01*
G01*
X10111500Y379000D02*
G75*
G02*
X10081500Y379000I-15000J0D01*
G01*
X10081500Y379000D02*
G75*
G02*
X10111500Y379000I15000J0D01*
G01*
X10145250Y-3302000D02*
G75*
G02*
X10115250Y-3302000I-15000J0D01*
G01*
X10115250Y-3302000D02*
G75*
G02*
X10145250Y-3302000I15000J0D01*
G01*
X10158100Y-7491000D02*
G75*
G02*
X10128100Y-7491000I-15000J0D01*
G01*
X10128100Y-7491000D02*
G75*
G02*
X10158100Y-7491000I15000J0D01*
G01*
X10159100Y-7241000D02*
G75*
G02*
X10129100Y-7241000I-15000J0D01*
G01*
X10129100Y-7241000D02*
G75*
G02*
X10159100Y-7241000I15000J0D01*
G01*
X10236500Y254000D02*
G75*
G02*
X10206500Y254000I-15000J0D01*
G01*
X10206500Y254000D02*
G75*
G02*
X10236500Y254000I15000J0D01*
G01*
X10270250Y-3176000D02*
G75*
G02*
X10240250Y-3176000I-15000J0D01*
G01*
X10240250Y-3176000D02*
G75*
G02*
X10270250Y-3176000I15000J0D01*
G01*
X10270250Y-3426000D02*
G75*
G02*
X10240250Y-3426000I-15000J0D01*
G01*
X10240250Y-3426000D02*
G75*
G02*
X10270250Y-3426000I15000J0D01*
G01*
X10284100Y-7366000D02*
G75*
G02*
X10254100Y-7366000I-15000J0D01*
G01*
X10254100Y-7366000D02*
G75*
G02*
X10284100Y-7366000I15000J0D01*
G01*
X10394250Y-3301000D02*
G75*
G02*
X10364250Y-3301000I-15000J0D01*
G01*
X10364250Y-3301000D02*
G75*
G02*
X10394250Y-3301000I15000J0D01*
G01*
X10462750Y-5460000D02*
G75*
G02*
X10432750Y-5460000I-15000J0D01*
G01*
X10432750Y-5460000D02*
G75*
G02*
X10462750Y-5460000I15000J0D01*
G01*
X10586750Y-5586000D02*
G75*
G02*
X10556750Y-5586000I-15000J0D01*
G01*
X10556750Y-5586000D02*
G75*
G02*
X10586750Y-5586000I15000J0D01*
G01*
X10587750Y-5336000D02*
G75*
G02*
X10557750Y-5336000I-15000J0D01*
G01*
X10557750Y-5336000D02*
G75*
G02*
X10587750Y-5336000I15000J0D01*
G01*
X10621500Y508000D02*
G75*
G02*
X10591500Y508000I-15000J0D01*
G01*
X10591500Y508000D02*
G75*
G02*
X10621500Y508000I15000J0D01*
G01*
X10669100Y-7112000D02*
G75*
G02*
X10639100Y-7112000I-15000J0D01*
G01*
X10639100Y-7112000D02*
G75*
G02*
X10669100Y-7112000I15000J0D01*
G01*
X10712750Y-5461000D02*
G75*
G02*
X10682750Y-5461000I-15000J0D01*
G01*
X10682750Y-5461000D02*
G75*
G02*
X10712750Y-5461000I15000J0D01*
G01*
X10746500Y634000D02*
G75*
G02*
X10716500Y634000I-15000J0D01*
G01*
X10716500Y634000D02*
G75*
G02*
X10746500Y634000I15000J0D01*
G01*
X10746500Y384000D02*
G75*
G02*
X10716500Y384000I-15000J0D01*
G01*
X10716500Y384000D02*
G75*
G02*
X10746500Y384000I15000J0D01*
G01*
X10794100Y-6986000D02*
G75*
G02*
X10764100Y-6986000I-15000J0D01*
G01*
X10764100Y-6986000D02*
G75*
G02*
X10794100Y-6986000I15000J0D01*
G01*
X10794100Y-7236000D02*
G75*
G02*
X10764100Y-7236000I-15000J0D01*
G01*
X10764100Y-7236000D02*
G75*
G02*
X10794100Y-7236000I15000J0D01*
G01*
X10870500Y509000D02*
G75*
G02*
X10840500Y509000I-15000J0D01*
G01*
X10840500Y509000D02*
G75*
G02*
X10870500Y509000I15000J0D01*
G01*
X10918100Y-7111000D02*
G75*
G02*
X10888100Y-7111000I-15000J0D01*
G01*
X10888100Y-7111000D02*
G75*
G02*
X10918100Y-7111000I15000J0D01*
G01*
X10939000Y-1650000D02*
G75*
G02*
X10909000Y-1650000I-15000J0D01*
G01*
X10909000Y-1650000D02*
G75*
G02*
X10939000Y-1650000I15000J0D01*
G01*
X11063000Y-1776000D02*
G75*
G02*
X11033000Y-1776000I-15000J0D01*
G01*
X11033000Y-1776000D02*
G75*
G02*
X11063000Y-1776000I15000J0D01*
G01*
X11064000Y-1526000D02*
G75*
G02*
X11034000Y-1526000I-15000J0D01*
G01*
X11034000Y-1526000D02*
G75*
G02*
X11064000Y-1526000I15000J0D01*
G01*
X11097750Y-5207000D02*
G75*
G02*
X11067750Y-5207000I-15000J0D01*
G01*
X11067750Y-5207000D02*
G75*
G02*
X11097750Y-5207000I15000J0D01*
G01*
X11189000Y-1651000D02*
G75*
G02*
X11159000Y-1651000I-15000J0D01*
G01*
X11159000Y-1651000D02*
G75*
G02*
X11189000Y-1651000I15000J0D01*
G01*
X11222750Y-5081000D02*
G75*
G02*
X11192750Y-5081000I-15000J0D01*
G01*
X11192750Y-5081000D02*
G75*
G02*
X11222750Y-5081000I15000J0D01*
G01*
X11222750Y-5331000D02*
G75*
G02*
X11192750Y-5331000I-15000J0D01*
G01*
X11192750Y-5331000D02*
G75*
G02*
X11222750Y-5331000I15000J0D01*
G01*
X11346750Y-5206000D02*
G75*
G02*
X11316750Y-5206000I-15000J0D01*
G01*
X11316750Y-5206000D02*
G75*
G02*
X11346750Y-5206000I15000J0D01*
G01*
X11415250Y-3555000D02*
G75*
G02*
X11385250Y-3555000I-15000J0D01*
G01*
X11385250Y-3555000D02*
G75*
G02*
X11415250Y-3555000I15000J0D01*
G01*
X11539250Y-3681000D02*
G75*
G02*
X11509250Y-3681000I-15000J0D01*
G01*
X11509250Y-3681000D02*
G75*
G02*
X11539250Y-3681000I15000J0D01*
G01*
X11540250Y-3431000D02*
G75*
G02*
X11510250Y-3431000I-15000J0D01*
G01*
X11510250Y-3431000D02*
G75*
G02*
X11540250Y-3431000I15000J0D01*
G01*
X11574000Y-1397000D02*
G75*
G02*
X11544000Y-1397000I-15000J0D01*
G01*
X11544000Y-1397000D02*
G75*
G02*
X11574000Y-1397000I15000J0D01*
G01*
X11665250Y-3556000D02*
G75*
G02*
X11635250Y-3556000I-15000J0D01*
G01*
X11635250Y-3556000D02*
G75*
G02*
X11665250Y-3556000I15000J0D01*
G01*
X11699000Y-1271000D02*
G75*
G02*
X11669000Y-1271000I-15000J0D01*
G01*
X11669000Y-1271000D02*
G75*
G02*
X11699000Y-1271000I15000J0D01*
G01*
X11699000Y-1521000D02*
G75*
G02*
X11669000Y-1521000I-15000J0D01*
G01*
X11669000Y-1521000D02*
G75*
G02*
X11699000Y-1521000I15000J0D01*
G01*
X11823000Y-1396000D02*
G75*
G02*
X11793000Y-1396000I-15000J0D01*
G01*
X11793000Y-1396000D02*
G75*
G02*
X11823000Y-1396000I15000J0D01*
G01*
X11891500Y255000D02*
G75*
G02*
X11861500Y255000I-15000J0D01*
G01*
X11861500Y255000D02*
G75*
G02*
X11891500Y255000I15000J0D01*
G01*
X12015500Y129000D02*
G75*
G02*
X11985500Y129000I-15000J0D01*
G01*
X11985500Y129000D02*
G75*
G02*
X12015500Y129000I15000J0D01*
G01*
X12016500Y379000D02*
G75*
G02*
X11986500Y379000I-15000J0D01*
G01*
X11986500Y379000D02*
G75*
G02*
X12016500Y379000I15000J0D01*
G01*
X12050250Y-3302000D02*
G75*
G02*
X12020250Y-3302000I-15000J0D01*
G01*
X12020250Y-3302000D02*
G75*
G02*
X12050250Y-3302000I15000J0D01*
G01*
X12141500Y254000D02*
G75*
G02*
X12111500Y254000I-15000J0D01*
G01*
X12111500Y254000D02*
G75*
G02*
X12141500Y254000I15000J0D01*
G01*
X12175250Y-3176000D02*
G75*
G02*
X12145250Y-3176000I-15000J0D01*
G01*
X12145250Y-3176000D02*
G75*
G02*
X12175250Y-3176000I15000J0D01*
G01*
X12175250Y-3426000D02*
G75*
G02*
X12145250Y-3426000I-15000J0D01*
G01*
X12145250Y-3426000D02*
G75*
G02*
X12175250Y-3426000I15000J0D01*
G01*
X12299250Y-3301000D02*
G75*
G02*
X12269250Y-3301000I-15000J0D01*
G01*
X12269250Y-3301000D02*
G75*
G02*
X12299250Y-3301000I15000J0D01*
G01*
X12367750Y-5460000D02*
G75*
G02*
X12337750Y-5460000I-15000J0D01*
G01*
X12337750Y-5460000D02*
G75*
G02*
X12367750Y-5460000I15000J0D01*
G01*
X12491750Y-5586000D02*
G75*
G02*
X12461750Y-5586000I-15000J0D01*
G01*
X12461750Y-5586000D02*
G75*
G02*
X12491750Y-5586000I15000J0D01*
G01*
X12492750Y-5336000D02*
G75*
G02*
X12462750Y-5336000I-15000J0D01*
G01*
X12462750Y-5336000D02*
G75*
G02*
X12492750Y-5336000I15000J0D01*
G01*
X12526500Y508000D02*
G75*
G02*
X12496500Y508000I-15000J0D01*
G01*
X12496500Y508000D02*
G75*
G02*
X12526500Y508000I15000J0D01*
G01*
X12617750Y-5461000D02*
G75*
G02*
X12587750Y-5461000I-15000J0D01*
G01*
X12587750Y-5461000D02*
G75*
G02*
X12617750Y-5461000I15000J0D01*
G01*
X12651500Y634000D02*
G75*
G02*
X12621500Y634000I-15000J0D01*
G01*
X12621500Y634000D02*
G75*
G02*
X12651500Y634000I15000J0D01*
G01*
X12651500Y384000D02*
G75*
G02*
X12621500Y384000I-15000J0D01*
G01*
X12621500Y384000D02*
G75*
G02*
X12651500Y384000I15000J0D01*
G01*
X12775500Y509000D02*
G75*
G02*
X12745500Y509000I-15000J0D01*
G01*
X12745500Y509000D02*
G75*
G02*
X12775500Y509000I15000J0D01*
G01*
X12844000Y-1650000D02*
G75*
G02*
X12814000Y-1650000I-15000J0D01*
G01*
X12814000Y-1650000D02*
G75*
G02*
X12844000Y-1650000I15000J0D01*
G01*
X12968000Y-1776000D02*
G75*
G02*
X12938000Y-1776000I-15000J0D01*
G01*
X12938000Y-1776000D02*
G75*
G02*
X12968000Y-1776000I15000J0D01*
G01*
X12969000Y-1526000D02*
G75*
G02*
X12939000Y-1526000I-15000J0D01*
G01*
X12939000Y-1526000D02*
G75*
G02*
X12969000Y-1526000I15000J0D01*
G01*
X13002750Y-5207000D02*
G75*
G02*
X12972750Y-5207000I-15000J0D01*
G01*
X12972750Y-5207000D02*
G75*
G02*
X13002750Y-5207000I15000J0D01*
G01*
X13094000Y-1651000D02*
G75*
G02*
X13064000Y-1651000I-15000J0D01*
G01*
X13064000Y-1651000D02*
G75*
G02*
X13094000Y-1651000I15000J0D01*
G01*
X13127750Y-5081000D02*
G75*
G02*
X13097750Y-5081000I-15000J0D01*
G01*
X13097750Y-5081000D02*
G75*
G02*
X13127750Y-5081000I15000J0D01*
G01*
X13127750Y-5331000D02*
G75*
G02*
X13097750Y-5331000I-15000J0D01*
G01*
X13097750Y-5331000D02*
G75*
G02*
X13127750Y-5331000I15000J0D01*
G01*
X13251750Y-5206000D02*
G75*
G02*
X13221750Y-5206000I-15000J0D01*
G01*
X13221750Y-5206000D02*
G75*
G02*
X13251750Y-5206000I15000J0D01*
G01*
X13320250Y-3555000D02*
G75*
G02*
X13290250Y-3555000I-15000J0D01*
G01*
X13290250Y-3555000D02*
G75*
G02*
X13320250Y-3555000I15000J0D01*
G01*
X13444250Y-3681000D02*
G75*
G02*
X13414250Y-3681000I-15000J0D01*
G01*
X13414250Y-3681000D02*
G75*
G02*
X13444250Y-3681000I15000J0D01*
G01*
X13445250Y-3431000D02*
G75*
G02*
X13415250Y-3431000I-15000J0D01*
G01*
X13415250Y-3431000D02*
G75*
G02*
X13445250Y-3431000I15000J0D01*
G01*
X13479000Y-1397000D02*
G75*
G02*
X13449000Y-1397000I-15000J0D01*
G01*
X13449000Y-1397000D02*
G75*
G02*
X13479000Y-1397000I15000J0D01*
G01*
X13570250Y-3556000D02*
G75*
G02*
X13540250Y-3556000I-15000J0D01*
G01*
X13540250Y-3556000D02*
G75*
G02*
X13570250Y-3556000I15000J0D01*
G01*
X13604000Y-1271000D02*
G75*
G02*
X13574000Y-1271000I-15000J0D01*
G01*
X13574000Y-1271000D02*
G75*
G02*
X13604000Y-1271000I15000J0D01*
G01*
X13604000Y-1521000D02*
G75*
G02*
X13574000Y-1521000I-15000J0D01*
G01*
X13574000Y-1521000D02*
G75*
G02*
X13604000Y-1521000I15000J0D01*
G01*
X13728000Y-1396000D02*
G75*
G02*
X13698000Y-1396000I-15000J0D01*
G01*
X13698000Y-1396000D02*
G75*
G02*
X13728000Y-1396000I15000J0D01*
G01*
X13796500Y255000D02*
G75*
G02*
X13766500Y255000I-15000J0D01*
G01*
X13766500Y255000D02*
G75*
G02*
X13796500Y255000I15000J0D01*
G01*
X13920500Y129000D02*
G75*
G02*
X13890500Y129000I-15000J0D01*
G01*
X13890500Y129000D02*
G75*
G02*
X13920500Y129000I15000J0D01*
G01*
X13921500Y379000D02*
G75*
G02*
X13891500Y379000I-15000J0D01*
G01*
X13891500Y379000D02*
G75*
G02*
X13921500Y379000I15000J0D01*
G01*
X13955250Y-3302000D02*
G75*
G02*
X13925250Y-3302000I-15000J0D01*
G01*
X13925250Y-3302000D02*
G75*
G02*
X13955250Y-3302000I15000J0D01*
G01*
X14046500Y254000D02*
G75*
G02*
X14016500Y254000I-15000J0D01*
G01*
X14016500Y254000D02*
G75*
G02*
X14046500Y254000I15000J0D01*
G01*
X14080250Y-3176000D02*
G75*
G02*
X14050250Y-3176000I-15000J0D01*
G01*
X14050250Y-3176000D02*
G75*
G02*
X14080250Y-3176000I15000J0D01*
G01*
X14080250Y-3426000D02*
G75*
G02*
X14050250Y-3426000I-15000J0D01*
G01*
X14050250Y-3426000D02*
G75*
G02*
X14080250Y-3426000I15000J0D01*
G01*
X14204250Y-3301000D02*
G75*
G02*
X14174250Y-3301000I-15000J0D01*
G01*
X14174250Y-3301000D02*
G75*
G02*
X14204250Y-3301000I15000J0D01*
G01*
X14272750Y-5460000D02*
G75*
G02*
X14242750Y-5460000I-15000J0D01*
G01*
X14242750Y-5460000D02*
G75*
G02*
X14272750Y-5460000I15000J0D01*
G01*
X14396750Y-5586000D02*
G75*
G02*
X14366750Y-5586000I-15000J0D01*
G01*
X14366750Y-5586000D02*
G75*
G02*
X14396750Y-5586000I15000J0D01*
G01*
X14397750Y-5336000D02*
G75*
G02*
X14367750Y-5336000I-15000J0D01*
G01*
X14367750Y-5336000D02*
G75*
G02*
X14397750Y-5336000I15000J0D01*
G01*
X14431500Y508000D02*
G75*
G02*
X14401500Y508000I-15000J0D01*
G01*
X14401500Y508000D02*
G75*
G02*
X14431500Y508000I15000J0D01*
G01*
X14522750Y-5461000D02*
G75*
G02*
X14492750Y-5461000I-15000J0D01*
G01*
X14492750Y-5461000D02*
G75*
G02*
X14522750Y-5461000I15000J0D01*
G01*
X14556500Y634000D02*
G75*
G02*
X14526500Y634000I-15000J0D01*
G01*
X14526500Y634000D02*
G75*
G02*
X14556500Y634000I15000J0D01*
G01*
X14556500Y384000D02*
G75*
G02*
X14526500Y384000I-15000J0D01*
G01*
X14526500Y384000D02*
G75*
G02*
X14556500Y384000I15000J0D01*
G01*
X14680500Y509000D02*
G75*
G02*
X14650500Y509000I-15000J0D01*
G01*
X14650500Y509000D02*
G75*
G02*
X14680500Y509000I15000J0D01*
G01*
X14749000Y-1650000D02*
G75*
G02*
X14719000Y-1650000I-15000J0D01*
G01*
X14719000Y-1650000D02*
G75*
G02*
X14749000Y-1650000I15000J0D01*
G01*
X14873000Y-1776000D02*
G75*
G02*
X14843000Y-1776000I-15000J0D01*
G01*
X14843000Y-1776000D02*
G75*
G02*
X14873000Y-1776000I15000J0D01*
G01*
X14874000Y-1526000D02*
G75*
G02*
X14844000Y-1526000I-15000J0D01*
G01*
X14844000Y-1526000D02*
G75*
G02*
X14874000Y-1526000I15000J0D01*
G01*
X14907750Y-5207000D02*
G75*
G02*
X14877750Y-5207000I-15000J0D01*
G01*
X14877750Y-5207000D02*
G75*
G02*
X14907750Y-5207000I15000J0D01*
G01*
X14999000Y-1651000D02*
G75*
G02*
X14969000Y-1651000I-15000J0D01*
G01*
X14969000Y-1651000D02*
G75*
G02*
X14999000Y-1651000I15000J0D01*
G01*
X15032750Y-5081000D02*
G75*
G02*
X15002750Y-5081000I-15000J0D01*
G01*
X15002750Y-5081000D02*
G75*
G02*
X15032750Y-5081000I15000J0D01*
G01*
X15032750Y-5331000D02*
G75*
G02*
X15002750Y-5331000I-15000J0D01*
G01*
X15002750Y-5331000D02*
G75*
G02*
X15032750Y-5331000I15000J0D01*
G01*
X15156750Y-5206000D02*
G75*
G02*
X15126750Y-5206000I-15000J0D01*
G01*
X15126750Y-5206000D02*
G75*
G02*
X15156750Y-5206000I15000J0D01*
G01*
X15225250Y-3555000D02*
G75*
G02*
X15195250Y-3555000I-15000J0D01*
G01*
X15195250Y-3555000D02*
G75*
G02*
X15225250Y-3555000I15000J0D01*
G01*
X15349250Y-3681000D02*
G75*
G02*
X15319250Y-3681000I-15000J0D01*
G01*
X15319250Y-3681000D02*
G75*
G02*
X15349250Y-3681000I15000J0D01*
G01*
X15350250Y-3431000D02*
G75*
G02*
X15320250Y-3431000I-15000J0D01*
G01*
X15320250Y-3431000D02*
G75*
G02*
X15350250Y-3431000I15000J0D01*
G01*
X15384000Y-1397000D02*
G75*
G02*
X15354000Y-1397000I-15000J0D01*
G01*
X15354000Y-1397000D02*
G75*
G02*
X15384000Y-1397000I15000J0D01*
G01*
X15475250Y-3556000D02*
G75*
G02*
X15445250Y-3556000I-15000J0D01*
G01*
X15445250Y-3556000D02*
G75*
G02*
X15475250Y-3556000I15000J0D01*
G01*
X15509000Y-1271000D02*
G75*
G02*
X15479000Y-1271000I-15000J0D01*
G01*
X15479000Y-1271000D02*
G75*
G02*
X15509000Y-1271000I15000J0D01*
G01*
X15509000Y-1521000D02*
G75*
G02*
X15479000Y-1521000I-15000J0D01*
G01*
X15479000Y-1521000D02*
G75*
G02*
X15509000Y-1521000I15000J0D01*
G01*
X15633000Y-1396000D02*
G75*
G02*
X15603000Y-1396000I-15000J0D01*
G01*
X15603000Y-1396000D02*
G75*
G02*
X15633000Y-1396000I15000J0D01*
G01*
X15701500Y255000D02*
G75*
G02*
X15671500Y255000I-15000J0D01*
G01*
X15671500Y255000D02*
G75*
G02*
X15701500Y255000I15000J0D01*
G01*
X15825500Y129000D02*
G75*
G02*
X15795500Y129000I-15000J0D01*
G01*
X15795500Y129000D02*
G75*
G02*
X15825500Y129000I15000J0D01*
G01*
X15826500Y379000D02*
G75*
G02*
X15796500Y379000I-15000J0D01*
G01*
X15796500Y379000D02*
G75*
G02*
X15826500Y379000I15000J0D01*
G01*
X15860250Y-3302000D02*
G75*
G02*
X15830250Y-3302000I-15000J0D01*
G01*
X15830250Y-3302000D02*
G75*
G02*
X15860250Y-3302000I15000J0D01*
G01*
X15951500Y254000D02*
G75*
G02*
X15921500Y254000I-15000J0D01*
G01*
X15921500Y254000D02*
G75*
G02*
X15951500Y254000I15000J0D01*
G01*
X15985250Y-3176000D02*
G75*
G02*
X15955250Y-3176000I-15000J0D01*
G01*
X15955250Y-3176000D02*
G75*
G02*
X15985250Y-3176000I15000J0D01*
G01*
X15985250Y-3426000D02*
G75*
G02*
X15955250Y-3426000I-15000J0D01*
G01*
X15955250Y-3426000D02*
G75*
G02*
X15985250Y-3426000I15000J0D01*
G01*
X16109250Y-3301000D02*
G75*
G02*
X16079250Y-3301000I-15000J0D01*
G01*
X16079250Y-3301000D02*
G75*
G02*
X16109250Y-3301000I15000J0D01*
G01*
X16177750Y-5460000D02*
G75*
G02*
X16147750Y-5460000I-15000J0D01*
G01*
X16147750Y-5460000D02*
G75*
G02*
X16177750Y-5460000I15000J0D01*
G01*
X16301750Y-5586000D02*
G75*
G02*
X16271750Y-5586000I-15000J0D01*
G01*
X16271750Y-5586000D02*
G75*
G02*
X16301750Y-5586000I15000J0D01*
G01*
X16302750Y-5336000D02*
G75*
G02*
X16272750Y-5336000I-15000J0D01*
G01*
X16272750Y-5336000D02*
G75*
G02*
X16302750Y-5336000I15000J0D01*
G01*
X16336500Y508000D02*
G75*
G02*
X16306500Y508000I-15000J0D01*
G01*
X16306500Y508000D02*
G75*
G02*
X16336500Y508000I15000J0D01*
G01*
X16427750Y-5461000D02*
G75*
G02*
X16397750Y-5461000I-15000J0D01*
G01*
X16397750Y-5461000D02*
G75*
G02*
X16427750Y-5461000I15000J0D01*
G01*
X16461500Y634000D02*
G75*
G02*
X16431500Y634000I-15000J0D01*
G01*
X16431500Y634000D02*
G75*
G02*
X16461500Y634000I15000J0D01*
G01*
X16461500Y384000D02*
G75*
G02*
X16431500Y384000I-15000J0D01*
G01*
X16431500Y384000D02*
G75*
G02*
X16461500Y384000I15000J0D01*
G01*
X16585500Y509000D02*
G75*
G02*
X16555500Y509000I-15000J0D01*
G01*
X16555500Y509000D02*
G75*
G02*
X16585500Y509000I15000J0D01*
G01*
X16654000Y-1650000D02*
G75*
G02*
X16624000Y-1650000I-15000J0D01*
G01*
X16624000Y-1650000D02*
G75*
G02*
X16654000Y-1650000I15000J0D01*
G01*
X16778000Y-1776000D02*
G75*
G02*
X16748000Y-1776000I-15000J0D01*
G01*
X16748000Y-1776000D02*
G75*
G02*
X16778000Y-1776000I15000J0D01*
G01*
X16779000Y-1526000D02*
G75*
G02*
X16749000Y-1526000I-15000J0D01*
G01*
X16749000Y-1526000D02*
G75*
G02*
X16779000Y-1526000I15000J0D01*
G01*
X16812750Y-5207000D02*
G75*
G02*
X16782750Y-5207000I-15000J0D01*
G01*
X16782750Y-5207000D02*
G75*
G02*
X16812750Y-5207000I15000J0D01*
G01*
X16904000Y-1651000D02*
G75*
G02*
X16874000Y-1651000I-15000J0D01*
G01*
X16874000Y-1651000D02*
G75*
G02*
X16904000Y-1651000I15000J0D01*
G01*
X16937750Y-5081000D02*
G75*
G02*
X16907750Y-5081000I-15000J0D01*
G01*
X16907750Y-5081000D02*
G75*
G02*
X16937750Y-5081000I15000J0D01*
G01*
X16937750Y-5331000D02*
G75*
G02*
X16907750Y-5331000I-15000J0D01*
G01*
X16907750Y-5331000D02*
G75*
G02*
X16937750Y-5331000I15000J0D01*
G01*
X17061750Y-5206000D02*
G75*
G02*
X17031750Y-5206000I-15000J0D01*
G01*
X17031750Y-5206000D02*
G75*
G02*
X17061750Y-5206000I15000J0D01*
G01*
X17130250Y-3555000D02*
G75*
G02*
X17100250Y-3555000I-15000J0D01*
G01*
X17100250Y-3555000D02*
G75*
G02*
X17130250Y-3555000I15000J0D01*
G01*
X17254250Y-3681000D02*
G75*
G02*
X17224250Y-3681000I-15000J0D01*
G01*
X17224250Y-3681000D02*
G75*
G02*
X17254250Y-3681000I15000J0D01*
G01*
X17255250Y-3431000D02*
G75*
G02*
X17225250Y-3431000I-15000J0D01*
G01*
X17225250Y-3431000D02*
G75*
G02*
X17255250Y-3431000I15000J0D01*
G01*
X17289000Y-1397000D02*
G75*
G02*
X17259000Y-1397000I-15000J0D01*
G01*
X17259000Y-1397000D02*
G75*
G02*
X17289000Y-1397000I15000J0D01*
G01*
X17380250Y-3556000D02*
G75*
G02*
X17350250Y-3556000I-15000J0D01*
G01*
X17350250Y-3556000D02*
G75*
G02*
X17380250Y-3556000I15000J0D01*
G01*
X17414000Y-1271000D02*
G75*
G02*
X17384000Y-1271000I-15000J0D01*
G01*
X17384000Y-1271000D02*
G75*
G02*
X17414000Y-1271000I15000J0D01*
G01*
X17414000Y-1521000D02*
G75*
G02*
X17384000Y-1521000I-15000J0D01*
G01*
X17384000Y-1521000D02*
G75*
G02*
X17414000Y-1521000I15000J0D01*
G01*
X17538000Y-1396000D02*
G75*
G02*
X17508000Y-1396000I-15000J0D01*
G01*
X17508000Y-1396000D02*
G75*
G02*
X17538000Y-1396000I15000J0D01*
G01*
X17606500Y255000D02*
G75*
G02*
X17576500Y255000I-15000J0D01*
G01*
X17576500Y255000D02*
G75*
G02*
X17606500Y255000I15000J0D01*
G01*
X17616000Y-7746000D02*
G75*
G02*
X17586000Y-7746000I-15000J0D01*
G01*
X17586000Y-7746000D02*
G75*
G02*
X17616000Y-7746000I15000J0D01*
G01*
X17730500Y129000D02*
G75*
G02*
X17700500Y129000I-15000J0D01*
G01*
X17700500Y129000D02*
G75*
G02*
X17730500Y129000I15000J0D01*
G01*
X17731500Y379000D02*
G75*
G02*
X17701500Y379000I-15000J0D01*
G01*
X17701500Y379000D02*
G75*
G02*
X17731500Y379000I15000J0D01*
G01*
X17740000Y-7872000D02*
G75*
G02*
X17710000Y-7872000I-15000J0D01*
G01*
X17710000Y-7872000D02*
G75*
G02*
X17740000Y-7872000I15000J0D01*
G01*
X17741000Y-7622000D02*
G75*
G02*
X17711000Y-7622000I-15000J0D01*
G01*
X17711000Y-7622000D02*
G75*
G02*
X17741000Y-7622000I15000J0D01*
G01*
X17765250Y-3302000D02*
G75*
G02*
X17735250Y-3302000I-15000J0D01*
G01*
X17735250Y-3302000D02*
G75*
G02*
X17765250Y-3302000I15000J0D01*
G01*
X17856500Y254000D02*
G75*
G02*
X17826500Y254000I-15000J0D01*
G01*
X17826500Y254000D02*
G75*
G02*
X17856500Y254000I15000J0D01*
G01*
X17866000Y-7747000D02*
G75*
G02*
X17836000Y-7747000I-15000J0D01*
G01*
X17836000Y-7747000D02*
G75*
G02*
X17866000Y-7747000I15000J0D01*
G01*
X17890250Y-3176000D02*
G75*
G02*
X17860250Y-3176000I-15000J0D01*
G01*
X17860250Y-3176000D02*
G75*
G02*
X17890250Y-3176000I15000J0D01*
G01*
X17890250Y-3426000D02*
G75*
G02*
X17860250Y-3426000I-15000J0D01*
G01*
X17860250Y-3426000D02*
G75*
G02*
X17890250Y-3426000I15000J0D01*
G01*
X18014250Y-3301000D02*
G75*
G02*
X17984250Y-3301000I-15000J0D01*
G01*
X17984250Y-3301000D02*
G75*
G02*
X18014250Y-3301000I15000J0D01*
G01*
X18082750Y-5460000D02*
G75*
G02*
X18052750Y-5460000I-15000J0D01*
G01*
X18052750Y-5460000D02*
G75*
G02*
X18082750Y-5460000I15000J0D01*
G01*
X18206750Y-5586000D02*
G75*
G02*
X18176750Y-5586000I-15000J0D01*
G01*
X18176750Y-5586000D02*
G75*
G02*
X18206750Y-5586000I15000J0D01*
G01*
X18207750Y-5336000D02*
G75*
G02*
X18177750Y-5336000I-15000J0D01*
G01*
X18177750Y-5336000D02*
G75*
G02*
X18207750Y-5336000I15000J0D01*
G01*
X18241500Y508000D02*
G75*
G02*
X18211500Y508000I-15000J0D01*
G01*
X18211500Y508000D02*
G75*
G02*
X18241500Y508000I15000J0D01*
G01*
X18251000Y-7493000D02*
G75*
G02*
X18221000Y-7493000I-15000J0D01*
G01*
X18221000Y-7493000D02*
G75*
G02*
X18251000Y-7493000I15000J0D01*
G01*
X18332750Y-5461000D02*
G75*
G02*
X18302750Y-5461000I-15000J0D01*
G01*
X18302750Y-5461000D02*
G75*
G02*
X18332750Y-5461000I15000J0D01*
G01*
X18366500Y634000D02*
G75*
G02*
X18336500Y634000I-15000J0D01*
G01*
X18336500Y634000D02*
G75*
G02*
X18366500Y634000I15000J0D01*
G01*
X18366500Y384000D02*
G75*
G02*
X18336500Y384000I-15000J0D01*
G01*
X18336500Y384000D02*
G75*
G02*
X18366500Y384000I15000J0D01*
G01*
X18376000Y-7367000D02*
G75*
G02*
X18346000Y-7367000I-15000J0D01*
G01*
X18346000Y-7367000D02*
G75*
G02*
X18376000Y-7367000I15000J0D01*
G01*
X18376000Y-7617000D02*
G75*
G02*
X18346000Y-7617000I-15000J0D01*
G01*
X18346000Y-7617000D02*
G75*
G02*
X18376000Y-7617000I15000J0D01*
G01*
X18490500Y509000D02*
G75*
G02*
X18460500Y509000I-15000J0D01*
G01*
X18460500Y509000D02*
G75*
G02*
X18490500Y509000I15000J0D01*
G01*
X18500000Y-7492000D02*
G75*
G02*
X18470000Y-7492000I-15000J0D01*
G01*
X18470000Y-7492000D02*
G75*
G02*
X18500000Y-7492000I15000J0D01*
G01*
X18559000Y-1650000D02*
G75*
G02*
X18529000Y-1650000I-15000J0D01*
G01*
X18529000Y-1650000D02*
G75*
G02*
X18559000Y-1650000I15000J0D01*
G01*
X18683000Y-1776000D02*
G75*
G02*
X18653000Y-1776000I-15000J0D01*
G01*
X18653000Y-1776000D02*
G75*
G02*
X18683000Y-1776000I15000J0D01*
G01*
X18684000Y-1526000D02*
G75*
G02*
X18654000Y-1526000I-15000J0D01*
G01*
X18654000Y-1526000D02*
G75*
G02*
X18684000Y-1526000I15000J0D01*
G01*
X18717750Y-5207000D02*
G75*
G02*
X18687750Y-5207000I-15000J0D01*
G01*
X18687750Y-5207000D02*
G75*
G02*
X18717750Y-5207000I15000J0D01*
G01*
X18809000Y-1651000D02*
G75*
G02*
X18779000Y-1651000I-15000J0D01*
G01*
X18779000Y-1651000D02*
G75*
G02*
X18809000Y-1651000I15000J0D01*
G01*
X18842750Y-5081000D02*
G75*
G02*
X18812750Y-5081000I-15000J0D01*
G01*
X18812750Y-5081000D02*
G75*
G02*
X18842750Y-5081000I15000J0D01*
G01*
X18842750Y-5331000D02*
G75*
G02*
X18812750Y-5331000I-15000J0D01*
G01*
X18812750Y-5331000D02*
G75*
G02*
X18842750Y-5331000I15000J0D01*
G01*
X18966750Y-5206000D02*
G75*
G02*
X18936750Y-5206000I-15000J0D01*
G01*
X18936750Y-5206000D02*
G75*
G02*
X18966750Y-5206000I15000J0D01*
G01*
X19035250Y-3555000D02*
G75*
G02*
X19005250Y-3555000I-15000J0D01*
G01*
X19005250Y-3555000D02*
G75*
G02*
X19035250Y-3555000I15000J0D01*
G01*
X19159250Y-3681000D02*
G75*
G02*
X19129250Y-3681000I-15000J0D01*
G01*
X19129250Y-3681000D02*
G75*
G02*
X19159250Y-3681000I15000J0D01*
G01*
X19160250Y-3431000D02*
G75*
G02*
X19130250Y-3431000I-15000J0D01*
G01*
X19130250Y-3431000D02*
G75*
G02*
X19160250Y-3431000I15000J0D01*
G01*
X19194000Y-1397000D02*
G75*
G02*
X19164000Y-1397000I-15000J0D01*
G01*
X19164000Y-1397000D02*
G75*
G02*
X19194000Y-1397000I15000J0D01*
G01*
X19285250Y-3556000D02*
G75*
G02*
X19255250Y-3556000I-15000J0D01*
G01*
X19255250Y-3556000D02*
G75*
G02*
X19285250Y-3556000I15000J0D01*
G01*
X19319000Y-1271000D02*
G75*
G02*
X19289000Y-1271000I-15000J0D01*
G01*
X19289000Y-1271000D02*
G75*
G02*
X19319000Y-1271000I15000J0D01*
G01*
X19319000Y-1521000D02*
G75*
G02*
X19289000Y-1521000I-15000J0D01*
G01*
X19289000Y-1521000D02*
G75*
G02*
X19319000Y-1521000I15000J0D01*
G01*
X19443000Y-1396000D02*
G75*
G02*
X19413000Y-1396000I-15000J0D01*
G01*
X19413000Y-1396000D02*
G75*
G02*
X19443000Y-1396000I15000J0D01*
G01*
X19511500Y255000D02*
G75*
G02*
X19481500Y255000I-15000J0D01*
G01*
X19481500Y255000D02*
G75*
G02*
X19511500Y255000I15000J0D01*
G01*
X19635500Y129000D02*
G75*
G02*
X19605500Y129000I-15000J0D01*
G01*
X19605500Y129000D02*
G75*
G02*
X19635500Y129000I15000J0D01*
G01*
X19636500Y379000D02*
G75*
G02*
X19606500Y379000I-15000J0D01*
G01*
X19606500Y379000D02*
G75*
G02*
X19636500Y379000I15000J0D01*
G01*
X19670250Y-3302000D02*
G75*
G02*
X19640250Y-3302000I-15000J0D01*
G01*
X19640250Y-3302000D02*
G75*
G02*
X19670250Y-3302000I15000J0D01*
G01*
X19761500Y254000D02*
G75*
G02*
X19731500Y254000I-15000J0D01*
G01*
X19731500Y254000D02*
G75*
G02*
X19761500Y254000I15000J0D01*
G01*
X19795250Y-3176000D02*
G75*
G02*
X19765250Y-3176000I-15000J0D01*
G01*
X19765250Y-3176000D02*
G75*
G02*
X19795250Y-3176000I15000J0D01*
G01*
X19795250Y-3426000D02*
G75*
G02*
X19765250Y-3426000I-15000J0D01*
G01*
X19765250Y-3426000D02*
G75*
G02*
X19795250Y-3426000I15000J0D01*
G01*
X19919250Y-3301000D02*
G75*
G02*
X19889250Y-3301000I-15000J0D01*
G01*
X19889250Y-3301000D02*
G75*
G02*
X19919250Y-3301000I15000J0D01*
G01*
X19987750Y-5460000D02*
G75*
G02*
X19957750Y-5460000I-15000J0D01*
G01*
X19957750Y-5460000D02*
G75*
G02*
X19987750Y-5460000I15000J0D01*
G01*
X20111750Y-5586000D02*
G75*
G02*
X20081750Y-5586000I-15000J0D01*
G01*
X20081750Y-5586000D02*
G75*
G02*
X20111750Y-5586000I15000J0D01*
G01*
X20112750Y-5336000D02*
G75*
G02*
X20082750Y-5336000I-15000J0D01*
G01*
X20082750Y-5336000D02*
G75*
G02*
X20112750Y-5336000I15000J0D01*
G01*
X20146500Y508000D02*
G75*
G02*
X20116500Y508000I-15000J0D01*
G01*
X20116500Y508000D02*
G75*
G02*
X20146500Y508000I15000J0D01*
G01*
X20237750Y-5461000D02*
G75*
G02*
X20207750Y-5461000I-15000J0D01*
G01*
X20207750Y-5461000D02*
G75*
G02*
X20237750Y-5461000I15000J0D01*
G01*
X20271500Y634000D02*
G75*
G02*
X20241500Y634000I-15000J0D01*
G01*
X20241500Y634000D02*
G75*
G02*
X20271500Y634000I15000J0D01*
G01*
X20271500Y384000D02*
G75*
G02*
X20241500Y384000I-15000J0D01*
G01*
X20241500Y384000D02*
G75*
G02*
X20271500Y384000I15000J0D01*
G01*
X20395500Y509000D02*
G75*
G02*
X20365500Y509000I-15000J0D01*
G01*
X20365500Y509000D02*
G75*
G02*
X20395500Y509000I15000J0D01*
G01*
X20464000Y-1650000D02*
G75*
G02*
X20434000Y-1650000I-15000J0D01*
G01*
X20434000Y-1650000D02*
G75*
G02*
X20464000Y-1650000I15000J0D01*
G01*
X20588000Y-1776000D02*
G75*
G02*
X20558000Y-1776000I-15000J0D01*
G01*
X20558000Y-1776000D02*
G75*
G02*
X20588000Y-1776000I15000J0D01*
G01*
X20589000Y-1526000D02*
G75*
G02*
X20559000Y-1526000I-15000J0D01*
G01*
X20559000Y-1526000D02*
G75*
G02*
X20589000Y-1526000I15000J0D01*
G01*
X20622750Y-5207000D02*
G75*
G02*
X20592750Y-5207000I-15000J0D01*
G01*
X20592750Y-5207000D02*
G75*
G02*
X20622750Y-5207000I15000J0D01*
G01*
X20714000Y-1651000D02*
G75*
G02*
X20684000Y-1651000I-15000J0D01*
G01*
X20684000Y-1651000D02*
G75*
G02*
X20714000Y-1651000I15000J0D01*
G01*
X20747750Y-5081000D02*
G75*
G02*
X20717750Y-5081000I-15000J0D01*
G01*
X20717750Y-5081000D02*
G75*
G02*
X20747750Y-5081000I15000J0D01*
G01*
X20747750Y-5331000D02*
G75*
G02*
X20717750Y-5331000I-15000J0D01*
G01*
X20717750Y-5331000D02*
G75*
G02*
X20747750Y-5331000I15000J0D01*
G01*
X20871750Y-5206000D02*
G75*
G02*
X20841750Y-5206000I-15000J0D01*
G01*
X20841750Y-5206000D02*
G75*
G02*
X20871750Y-5206000I15000J0D01*
G01*
X20940250Y-3555000D02*
G75*
G02*
X20910250Y-3555000I-15000J0D01*
G01*
X20910250Y-3555000D02*
G75*
G02*
X20940250Y-3555000I15000J0D01*
G01*
X21064250Y-3681000D02*
G75*
G02*
X21034250Y-3681000I-15000J0D01*
G01*
X21034250Y-3681000D02*
G75*
G02*
X21064250Y-3681000I15000J0D01*
G01*
X21065250Y-3431000D02*
G75*
G02*
X21035250Y-3431000I-15000J0D01*
G01*
X21035250Y-3431000D02*
G75*
G02*
X21065250Y-3431000I15000J0D01*
G01*
X21099000Y-1397000D02*
G75*
G02*
X21069000Y-1397000I-15000J0D01*
G01*
X21069000Y-1397000D02*
G75*
G02*
X21099000Y-1397000I15000J0D01*
G01*
X21190250Y-3556000D02*
G75*
G02*
X21160250Y-3556000I-15000J0D01*
G01*
X21160250Y-3556000D02*
G75*
G02*
X21190250Y-3556000I15000J0D01*
G01*
X21224000Y-1271000D02*
G75*
G02*
X21194000Y-1271000I-15000J0D01*
G01*
X21194000Y-1271000D02*
G75*
G02*
X21224000Y-1271000I15000J0D01*
G01*
X21224000Y-1521000D02*
G75*
G02*
X21194000Y-1521000I-15000J0D01*
G01*
X21194000Y-1521000D02*
G75*
G02*
X21224000Y-1521000I15000J0D01*
G01*
X21348000Y-1396000D02*
G75*
G02*
X21318000Y-1396000I-15000J0D01*
G01*
X21318000Y-1396000D02*
G75*
G02*
X21348000Y-1396000I15000J0D01*
G01*
X21416500Y255000D02*
G75*
G02*
X21386500Y255000I-15000J0D01*
G01*
X21386500Y255000D02*
G75*
G02*
X21416500Y255000I15000J0D01*
G01*
X21540500Y129000D02*
G75*
G02*
X21510500Y129000I-15000J0D01*
G01*
X21510500Y129000D02*
G75*
G02*
X21540500Y129000I15000J0D01*
G01*
X21541500Y379000D02*
G75*
G02*
X21511500Y379000I-15000J0D01*
G01*
X21511500Y379000D02*
G75*
G02*
X21541500Y379000I15000J0D01*
G01*
X21575250Y-3302000D02*
G75*
G02*
X21545250Y-3302000I-15000J0D01*
G01*
X21545250Y-3302000D02*
G75*
G02*
X21575250Y-3302000I15000J0D01*
G01*
X21666500Y254000D02*
G75*
G02*
X21636500Y254000I-15000J0D01*
G01*
X21636500Y254000D02*
G75*
G02*
X21666500Y254000I15000J0D01*
G01*
X21700250Y-3176000D02*
G75*
G02*
X21670250Y-3176000I-15000J0D01*
G01*
X21670250Y-3176000D02*
G75*
G02*
X21700250Y-3176000I15000J0D01*
G01*
X21700250Y-3426000D02*
G75*
G02*
X21670250Y-3426000I-15000J0D01*
G01*
X21670250Y-3426000D02*
G75*
G02*
X21700250Y-3426000I15000J0D01*
G01*
X21824250Y-3301000D02*
G75*
G02*
X21794250Y-3301000I-15000J0D01*
G01*
X21794250Y-3301000D02*
G75*
G02*
X21824250Y-3301000I15000J0D01*
G01*
X21892750Y-5460000D02*
G75*
G02*
X21862750Y-5460000I-15000J0D01*
G01*
X21862750Y-5460000D02*
G75*
G02*
X21892750Y-5460000I15000J0D01*
G01*
X22016750Y-5586000D02*
G75*
G02*
X21986750Y-5586000I-15000J0D01*
G01*
X21986750Y-5586000D02*
G75*
G02*
X22016750Y-5586000I15000J0D01*
G01*
X22017750Y-5336000D02*
G75*
G02*
X21987750Y-5336000I-15000J0D01*
G01*
X21987750Y-5336000D02*
G75*
G02*
X22017750Y-5336000I15000J0D01*
G01*
X22051500Y508000D02*
G75*
G02*
X22021500Y508000I-15000J0D01*
G01*
X22021500Y508000D02*
G75*
G02*
X22051500Y508000I15000J0D01*
G01*
X22142750Y-5461000D02*
G75*
G02*
X22112750Y-5461000I-15000J0D01*
G01*
X22112750Y-5461000D02*
G75*
G02*
X22142750Y-5461000I15000J0D01*
G01*
X22176500Y634000D02*
G75*
G02*
X22146500Y634000I-15000J0D01*
G01*
X22146500Y634000D02*
G75*
G02*
X22176500Y634000I15000J0D01*
G01*
X22176500Y384000D02*
G75*
G02*
X22146500Y384000I-15000J0D01*
G01*
X22146500Y384000D02*
G75*
G02*
X22176500Y384000I15000J0D01*
G01*
X22300500Y509000D02*
G75*
G02*
X22270500Y509000I-15000J0D01*
G01*
X22270500Y509000D02*
G75*
G02*
X22300500Y509000I15000J0D01*
G01*
X22369000Y-1650000D02*
G75*
G02*
X22339000Y-1650000I-15000J0D01*
G01*
X22339000Y-1650000D02*
G75*
G02*
X22369000Y-1650000I15000J0D01*
G01*
X22493000Y-1776000D02*
G75*
G02*
X22463000Y-1776000I-15000J0D01*
G01*
X22463000Y-1776000D02*
G75*
G02*
X22493000Y-1776000I15000J0D01*
G01*
X22494000Y-1526000D02*
G75*
G02*
X22464000Y-1526000I-15000J0D01*
G01*
X22464000Y-1526000D02*
G75*
G02*
X22494000Y-1526000I15000J0D01*
G01*
X22527750Y-5207000D02*
G75*
G02*
X22497750Y-5207000I-15000J0D01*
G01*
X22497750Y-5207000D02*
G75*
G02*
X22527750Y-5207000I15000J0D01*
G01*
X22619000Y-1651000D02*
G75*
G02*
X22589000Y-1651000I-15000J0D01*
G01*
X22589000Y-1651000D02*
G75*
G02*
X22619000Y-1651000I15000J0D01*
G01*
X22652750Y-5081000D02*
G75*
G02*
X22622750Y-5081000I-15000J0D01*
G01*
X22622750Y-5081000D02*
G75*
G02*
X22652750Y-5081000I15000J0D01*
G01*
X22652750Y-5331000D02*
G75*
G02*
X22622750Y-5331000I-15000J0D01*
G01*
X22622750Y-5331000D02*
G75*
G02*
X22652750Y-5331000I15000J0D01*
G01*
X22776750Y-5206000D02*
G75*
G02*
X22746750Y-5206000I-15000J0D01*
G01*
X22746750Y-5206000D02*
G75*
G02*
X22776750Y-5206000I15000J0D01*
G01*
X22845250Y-3555000D02*
G75*
G02*
X22815250Y-3555000I-15000J0D01*
G01*
X22815250Y-3555000D02*
G75*
G02*
X22845250Y-3555000I15000J0D01*
G01*
X22969250Y-3681000D02*
G75*
G02*
X22939250Y-3681000I-15000J0D01*
G01*
X22939250Y-3681000D02*
G75*
G02*
X22969250Y-3681000I15000J0D01*
G01*
X22970250Y-3431000D02*
G75*
G02*
X22940250Y-3431000I-15000J0D01*
G01*
X22940250Y-3431000D02*
G75*
G02*
X22970250Y-3431000I15000J0D01*
G01*
X23004000Y-1397000D02*
G75*
G02*
X22974000Y-1397000I-15000J0D01*
G01*
X22974000Y-1397000D02*
G75*
G02*
X23004000Y-1397000I15000J0D01*
G01*
X23095250Y-3556000D02*
G75*
G02*
X23065250Y-3556000I-15000J0D01*
G01*
X23065250Y-3556000D02*
G75*
G02*
X23095250Y-3556000I15000J0D01*
G01*
X23129000Y-1271000D02*
G75*
G02*
X23099000Y-1271000I-15000J0D01*
G01*
X23099000Y-1271000D02*
G75*
G02*
X23129000Y-1271000I15000J0D01*
G01*
X23129000Y-1521000D02*
G75*
G02*
X23099000Y-1521000I-15000J0D01*
G01*
X23099000Y-1521000D02*
G75*
G02*
X23129000Y-1521000I15000J0D01*
G01*
X23253000Y-1396000D02*
G75*
G02*
X23223000Y-1396000I-15000J0D01*
G01*
X23223000Y-1396000D02*
G75*
G02*
X23253000Y-1396000I15000J0D01*
G01*
X23321500Y255000D02*
G75*
G02*
X23291500Y255000I-15000J0D01*
G01*
X23291500Y255000D02*
G75*
G02*
X23321500Y255000I15000J0D01*
G01*
X23445500Y129000D02*
G75*
G02*
X23415500Y129000I-15000J0D01*
G01*
X23415500Y129000D02*
G75*
G02*
X23445500Y129000I15000J0D01*
G01*
X23446500Y379000D02*
G75*
G02*
X23416500Y379000I-15000J0D01*
G01*
X23416500Y379000D02*
G75*
G02*
X23446500Y379000I15000J0D01*
G01*
X23480250Y-3302000D02*
G75*
G02*
X23450250Y-3302000I-15000J0D01*
G01*
X23450250Y-3302000D02*
G75*
G02*
X23480250Y-3302000I15000J0D01*
G01*
X23571500Y254000D02*
G75*
G02*
X23541500Y254000I-15000J0D01*
G01*
X23541500Y254000D02*
G75*
G02*
X23571500Y254000I15000J0D01*
G01*
X23605250Y-3176000D02*
G75*
G02*
X23575250Y-3176000I-15000J0D01*
G01*
X23575250Y-3176000D02*
G75*
G02*
X23605250Y-3176000I15000J0D01*
G01*
X23605250Y-3426000D02*
G75*
G02*
X23575250Y-3426000I-15000J0D01*
G01*
X23575250Y-3426000D02*
G75*
G02*
X23605250Y-3426000I15000J0D01*
G01*
X23729250Y-3301000D02*
G75*
G02*
X23699250Y-3301000I-15000J0D01*
G01*
X23699250Y-3301000D02*
G75*
G02*
X23729250Y-3301000I15000J0D01*
G01*
X23797750Y-5460000D02*
G75*
G02*
X23767750Y-5460000I-15000J0D01*
G01*
X23767750Y-5460000D02*
G75*
G02*
X23797750Y-5460000I15000J0D01*
G01*
X23921750Y-5586000D02*
G75*
G02*
X23891750Y-5586000I-15000J0D01*
G01*
X23891750Y-5586000D02*
G75*
G02*
X23921750Y-5586000I15000J0D01*
G01*
X23922750Y-5336000D02*
G75*
G02*
X23892750Y-5336000I-15000J0D01*
G01*
X23892750Y-5336000D02*
G75*
G02*
X23922750Y-5336000I15000J0D01*
G01*
X23956500Y508000D02*
G75*
G02*
X23926500Y508000I-15000J0D01*
G01*
X23926500Y508000D02*
G75*
G02*
X23956500Y508000I15000J0D01*
G01*
X24047750Y-5461000D02*
G75*
G02*
X24017750Y-5461000I-15000J0D01*
G01*
X24017750Y-5461000D02*
G75*
G02*
X24047750Y-5461000I15000J0D01*
G01*
X24081500Y634000D02*
G75*
G02*
X24051500Y634000I-15000J0D01*
G01*
X24051500Y634000D02*
G75*
G02*
X24081500Y634000I15000J0D01*
G01*
X24081500Y384000D02*
G75*
G02*
X24051500Y384000I-15000J0D01*
G01*
X24051500Y384000D02*
G75*
G02*
X24081500Y384000I15000J0D01*
G01*
X24205500Y509000D02*
G75*
G02*
X24175500Y509000I-15000J0D01*
G01*
X24175500Y509000D02*
G75*
G02*
X24205500Y509000I15000J0D01*
G01*
X24274000Y-1650000D02*
G75*
G02*
X24244000Y-1650000I-15000J0D01*
G01*
X24244000Y-1650000D02*
G75*
G02*
X24274000Y-1650000I15000J0D01*
G01*
X24398000Y-1776000D02*
G75*
G02*
X24368000Y-1776000I-15000J0D01*
G01*
X24368000Y-1776000D02*
G75*
G02*
X24398000Y-1776000I15000J0D01*
G01*
X24399000Y-1526000D02*
G75*
G02*
X24369000Y-1526000I-15000J0D01*
G01*
X24369000Y-1526000D02*
G75*
G02*
X24399000Y-1526000I15000J0D01*
G01*
X24432750Y-5207000D02*
G75*
G02*
X24402750Y-5207000I-15000J0D01*
G01*
X24402750Y-5207000D02*
G75*
G02*
X24432750Y-5207000I15000J0D01*
G01*
X24524000Y-1651000D02*
G75*
G02*
X24494000Y-1651000I-15000J0D01*
G01*
X24494000Y-1651000D02*
G75*
G02*
X24524000Y-1651000I15000J0D01*
G01*
X24557750Y-5081000D02*
G75*
G02*
X24527750Y-5081000I-15000J0D01*
G01*
X24527750Y-5081000D02*
G75*
G02*
X24557750Y-5081000I15000J0D01*
G01*
X24557750Y-5331000D02*
G75*
G02*
X24527750Y-5331000I-15000J0D01*
G01*
X24527750Y-5331000D02*
G75*
G02*
X24557750Y-5331000I15000J0D01*
G01*
X24681750Y-5206000D02*
G75*
G02*
X24651750Y-5206000I-15000J0D01*
G01*
X24651750Y-5206000D02*
G75*
G02*
X24681750Y-5206000I15000J0D01*
G01*
X24750250Y-3555000D02*
G75*
G02*
X24720250Y-3555000I-15000J0D01*
G01*
X24720250Y-3555000D02*
G75*
G02*
X24750250Y-3555000I15000J0D01*
G01*
X24874250Y-3681000D02*
G75*
G02*
X24844250Y-3681000I-15000J0D01*
G01*
X24844250Y-3681000D02*
G75*
G02*
X24874250Y-3681000I15000J0D01*
G01*
X24875250Y-3431000D02*
G75*
G02*
X24845250Y-3431000I-15000J0D01*
G01*
X24845250Y-3431000D02*
G75*
G02*
X24875250Y-3431000I15000J0D01*
G01*
X24909000Y-1397000D02*
G75*
G02*
X24879000Y-1397000I-15000J0D01*
G01*
X24879000Y-1397000D02*
G75*
G02*
X24909000Y-1397000I15000J0D01*
G01*
X25000250Y-3556000D02*
G75*
G02*
X24970250Y-3556000I-15000J0D01*
G01*
X24970250Y-3556000D02*
G75*
G02*
X25000250Y-3556000I15000J0D01*
G01*
X25034000Y-1271000D02*
G75*
G02*
X25004000Y-1271000I-15000J0D01*
G01*
X25004000Y-1271000D02*
G75*
G02*
X25034000Y-1271000I15000J0D01*
G01*
X25034000Y-1521000D02*
G75*
G02*
X25004000Y-1521000I-15000J0D01*
G01*
X25004000Y-1521000D02*
G75*
G02*
X25034000Y-1521000I15000J0D01*
G01*
X25158000Y-1396000D02*
G75*
G02*
X25128000Y-1396000I-15000J0D01*
G01*
X25128000Y-1396000D02*
G75*
G02*
X25158000Y-1396000I15000J0D01*
G01*
X25178850Y-7365000D02*
G75*
G02*
X25148850Y-7365000I-15000J0D01*
G01*
X25148850Y-7365000D02*
G75*
G02*
X25178850Y-7365000I15000J0D01*
G01*
X25226500Y255000D02*
G75*
G02*
X25196500Y255000I-15000J0D01*
G01*
X25196500Y255000D02*
G75*
G02*
X25226500Y255000I15000J0D01*
G01*
X25302850Y-7491000D02*
G75*
G02*
X25272850Y-7491000I-15000J0D01*
G01*
X25272850Y-7491000D02*
G75*
G02*
X25302850Y-7491000I15000J0D01*
G01*
X25303850Y-7241000D02*
G75*
G02*
X25273850Y-7241000I-15000J0D01*
G01*
X25273850Y-7241000D02*
G75*
G02*
X25303850Y-7241000I15000J0D01*
G01*
X25350500Y129000D02*
G75*
G02*
X25320500Y129000I-15000J0D01*
G01*
X25320500Y129000D02*
G75*
G02*
X25350500Y129000I15000J0D01*
G01*
X25351500Y379000D02*
G75*
G02*
X25321500Y379000I-15000J0D01*
G01*
X25321500Y379000D02*
G75*
G02*
X25351500Y379000I15000J0D01*
G01*
X25385250Y-3302000D02*
G75*
G02*
X25355250Y-3302000I-15000J0D01*
G01*
X25355250Y-3302000D02*
G75*
G02*
X25385250Y-3302000I15000J0D01*
G01*
X25428850Y-7366000D02*
G75*
G02*
X25398850Y-7366000I-15000J0D01*
G01*
X25398850Y-7366000D02*
G75*
G02*
X25428850Y-7366000I15000J0D01*
G01*
X25476500Y254000D02*
G75*
G02*
X25446500Y254000I-15000J0D01*
G01*
X25446500Y254000D02*
G75*
G02*
X25476500Y254000I15000J0D01*
G01*
X25510250Y-3176000D02*
G75*
G02*
X25480250Y-3176000I-15000J0D01*
G01*
X25480250Y-3176000D02*
G75*
G02*
X25510250Y-3176000I15000J0D01*
G01*
X25510250Y-3426000D02*
G75*
G02*
X25480250Y-3426000I-15000J0D01*
G01*
X25480250Y-3426000D02*
G75*
G02*
X25510250Y-3426000I15000J0D01*
G01*
X25634250Y-3301000D02*
G75*
G02*
X25604250Y-3301000I-15000J0D01*
G01*
X25604250Y-3301000D02*
G75*
G02*
X25634250Y-3301000I15000J0D01*
G01*
X25702750Y-5460000D02*
G75*
G02*
X25672750Y-5460000I-15000J0D01*
G01*
X25672750Y-5460000D02*
G75*
G02*
X25702750Y-5460000I15000J0D01*
G01*
X25813850Y-7112000D02*
G75*
G02*
X25783850Y-7112000I-15000J0D01*
G01*
X25783850Y-7112000D02*
G75*
G02*
X25813850Y-7112000I15000J0D01*
G01*
X25826750Y-5586000D02*
G75*
G02*
X25796750Y-5586000I-15000J0D01*
G01*
X25796750Y-5586000D02*
G75*
G02*
X25826750Y-5586000I15000J0D01*
G01*
X25827750Y-5336000D02*
G75*
G02*
X25797750Y-5336000I-15000J0D01*
G01*
X25797750Y-5336000D02*
G75*
G02*
X25827750Y-5336000I15000J0D01*
G01*
X25861500Y508000D02*
G75*
G02*
X25831500Y508000I-15000J0D01*
G01*
X25831500Y508000D02*
G75*
G02*
X25861500Y508000I15000J0D01*
G01*
X25938850Y-6986000D02*
G75*
G02*
X25908850Y-6986000I-15000J0D01*
G01*
X25908850Y-6986000D02*
G75*
G02*
X25938850Y-6986000I15000J0D01*
G01*
X25938850Y-7236000D02*
G75*
G02*
X25908850Y-7236000I-15000J0D01*
G01*
X25908850Y-7236000D02*
G75*
G02*
X25938850Y-7236000I15000J0D01*
G01*
X25952750Y-5461000D02*
G75*
G02*
X25922750Y-5461000I-15000J0D01*
G01*
X25922750Y-5461000D02*
G75*
G02*
X25952750Y-5461000I15000J0D01*
G01*
X25986500Y634000D02*
G75*
G02*
X25956500Y634000I-15000J0D01*
G01*
X25956500Y634000D02*
G75*
G02*
X25986500Y634000I15000J0D01*
G01*
X25986500Y384000D02*
G75*
G02*
X25956500Y384000I-15000J0D01*
G01*
X25956500Y384000D02*
G75*
G02*
X25986500Y384000I15000J0D01*
G01*
X26062850Y-7111000D02*
G75*
G02*
X26032850Y-7111000I-15000J0D01*
G01*
X26032850Y-7111000D02*
G75*
G02*
X26062850Y-7111000I15000J0D01*
G01*
X26110500Y509000D02*
G75*
G02*
X26080500Y509000I-15000J0D01*
G01*
X26080500Y509000D02*
G75*
G02*
X26110500Y509000I15000J0D01*
G01*
X26179000Y-1650000D02*
G75*
G02*
X26149000Y-1650000I-15000J0D01*
G01*
X26149000Y-1650000D02*
G75*
G02*
X26179000Y-1650000I15000J0D01*
G01*
X26303000Y-1776000D02*
G75*
G02*
X26273000Y-1776000I-15000J0D01*
G01*
X26273000Y-1776000D02*
G75*
G02*
X26303000Y-1776000I15000J0D01*
G01*
X26304000Y-1526000D02*
G75*
G02*
X26274000Y-1526000I-15000J0D01*
G01*
X26274000Y-1526000D02*
G75*
G02*
X26304000Y-1526000I15000J0D01*
G01*
X26337750Y-5207000D02*
G75*
G02*
X26307750Y-5207000I-15000J0D01*
G01*
X26307750Y-5207000D02*
G75*
G02*
X26337750Y-5207000I15000J0D01*
G01*
X26429000Y-1651000D02*
G75*
G02*
X26399000Y-1651000I-15000J0D01*
G01*
X26399000Y-1651000D02*
G75*
G02*
X26429000Y-1651000I15000J0D01*
G01*
X26462750Y-5081000D02*
G75*
G02*
X26432750Y-5081000I-15000J0D01*
G01*
X26432750Y-5081000D02*
G75*
G02*
X26462750Y-5081000I15000J0D01*
G01*
X26462750Y-5331000D02*
G75*
G02*
X26432750Y-5331000I-15000J0D01*
G01*
X26432750Y-5331000D02*
G75*
G02*
X26462750Y-5331000I15000J0D01*
G01*
X26586750Y-5206000D02*
G75*
G02*
X26556750Y-5206000I-15000J0D01*
G01*
X26556750Y-5206000D02*
G75*
G02*
X26586750Y-5206000I15000J0D01*
G01*
X26655250Y-3555000D02*
G75*
G02*
X26625250Y-3555000I-15000J0D01*
G01*
X26625250Y-3555000D02*
G75*
G02*
X26655250Y-3555000I15000J0D01*
G01*
X26779250Y-3681000D02*
G75*
G02*
X26749250Y-3681000I-15000J0D01*
G01*
X26749250Y-3681000D02*
G75*
G02*
X26779250Y-3681000I15000J0D01*
G01*
X26780250Y-3431000D02*
G75*
G02*
X26750250Y-3431000I-15000J0D01*
G01*
X26750250Y-3431000D02*
G75*
G02*
X26780250Y-3431000I15000J0D01*
G01*
X26814000Y-1397000D02*
G75*
G02*
X26784000Y-1397000I-15000J0D01*
G01*
X26784000Y-1397000D02*
G75*
G02*
X26814000Y-1397000I15000J0D01*
G01*
X26905250Y-3556000D02*
G75*
G02*
X26875250Y-3556000I-15000J0D01*
G01*
X26875250Y-3556000D02*
G75*
G02*
X26905250Y-3556000I15000J0D01*
G01*
X26939000Y-1271000D02*
G75*
G02*
X26909000Y-1271000I-15000J0D01*
G01*
X26909000Y-1271000D02*
G75*
G02*
X26939000Y-1271000I15000J0D01*
G01*
X26939000Y-1521000D02*
G75*
G02*
X26909000Y-1521000I-15000J0D01*
G01*
X26909000Y-1521000D02*
G75*
G02*
X26939000Y-1521000I15000J0D01*
G01*
X27063000Y-1396000D02*
G75*
G02*
X27033000Y-1396000I-15000J0D01*
G01*
X27033000Y-1396000D02*
G75*
G02*
X27063000Y-1396000I15000J0D01*
G01*
X27131500Y255000D02*
G75*
G02*
X27101500Y255000I-15000J0D01*
G01*
X27101500Y255000D02*
G75*
G02*
X27131500Y255000I15000J0D01*
G01*
X27255500Y129000D02*
G75*
G02*
X27225500Y129000I-15000J0D01*
G01*
X27225500Y129000D02*
G75*
G02*
X27255500Y129000I15000J0D01*
G01*
X27256500Y379000D02*
G75*
G02*
X27226500Y379000I-15000J0D01*
G01*
X27226500Y379000D02*
G75*
G02*
X27256500Y379000I15000J0D01*
G01*
X27290250Y-3302000D02*
G75*
G02*
X27260250Y-3302000I-15000J0D01*
G01*
X27260250Y-3302000D02*
G75*
G02*
X27290250Y-3302000I15000J0D01*
G01*
X27381500Y254000D02*
G75*
G02*
X27351500Y254000I-15000J0D01*
G01*
X27351500Y254000D02*
G75*
G02*
X27381500Y254000I15000J0D01*
G01*
X27415250Y-3176000D02*
G75*
G02*
X27385250Y-3176000I-15000J0D01*
G01*
X27385250Y-3176000D02*
G75*
G02*
X27415250Y-3176000I15000J0D01*
G01*
X27415250Y-3426000D02*
G75*
G02*
X27385250Y-3426000I-15000J0D01*
G01*
X27385250Y-3426000D02*
G75*
G02*
X27415250Y-3426000I15000J0D01*
G01*
X27539250Y-3301000D02*
G75*
G02*
X27509250Y-3301000I-15000J0D01*
G01*
X27509250Y-3301000D02*
G75*
G02*
X27539250Y-3301000I15000J0D01*
G01*
X27560100Y-7365000D02*
G75*
G02*
X27530100Y-7365000I-15000J0D01*
G01*
X27530100Y-7365000D02*
G75*
G02*
X27560100Y-7365000I15000J0D01*
G01*
X27684100Y-7491000D02*
G75*
G02*
X27654100Y-7491000I-15000J0D01*
G01*
X27654100Y-7491000D02*
G75*
G02*
X27684100Y-7491000I15000J0D01*
G01*
X27685100Y-7241000D02*
G75*
G02*
X27655100Y-7241000I-15000J0D01*
G01*
X27655100Y-7241000D02*
G75*
G02*
X27685100Y-7241000I15000J0D01*
G01*
X27766500Y508000D02*
G75*
G02*
X27736500Y508000I-15000J0D01*
G01*
X27736500Y508000D02*
G75*
G02*
X27766500Y508000I15000J0D01*
G01*
X27810100Y-7366000D02*
G75*
G02*
X27780100Y-7366000I-15000J0D01*
G01*
X27780100Y-7366000D02*
G75*
G02*
X27810100Y-7366000I15000J0D01*
G01*
X27891500Y634000D02*
G75*
G02*
X27861500Y634000I-15000J0D01*
G01*
X27861500Y634000D02*
G75*
G02*
X27891500Y634000I15000J0D01*
G01*
X27891500Y384000D02*
G75*
G02*
X27861500Y384000I-15000J0D01*
G01*
X27861500Y384000D02*
G75*
G02*
X27891500Y384000I15000J0D01*
G01*
X28015500Y509000D02*
G75*
G02*
X27985500Y509000I-15000J0D01*
G01*
X27985500Y509000D02*
G75*
G02*
X28015500Y509000I15000J0D01*
G01*
X28084000Y-1650000D02*
G75*
G02*
X28054000Y-1650000I-15000J0D01*
G01*
X28054000Y-1650000D02*
G75*
G02*
X28084000Y-1650000I15000J0D01*
G01*
X28195100Y-7112000D02*
G75*
G02*
X28165100Y-7112000I-15000J0D01*
G01*
X28165100Y-7112000D02*
G75*
G02*
X28195100Y-7112000I15000J0D01*
G01*
X28208000Y-1776000D02*
G75*
G02*
X28178000Y-1776000I-15000J0D01*
G01*
X28178000Y-1776000D02*
G75*
G02*
X28208000Y-1776000I15000J0D01*
G01*
X28209000Y-1526000D02*
G75*
G02*
X28179000Y-1526000I-15000J0D01*
G01*
X28179000Y-1526000D02*
G75*
G02*
X28209000Y-1526000I15000J0D01*
G01*
X28320100Y-6986000D02*
G75*
G02*
X28290100Y-6986000I-15000J0D01*
G01*
X28290100Y-6986000D02*
G75*
G02*
X28320100Y-6986000I15000J0D01*
G01*
X28320100Y-7236000D02*
G75*
G02*
X28290100Y-7236000I-15000J0D01*
G01*
X28290100Y-7236000D02*
G75*
G02*
X28320100Y-7236000I15000J0D01*
G01*
X28322150Y-5460000D02*
G75*
G02*
X28292150Y-5460000I-15000J0D01*
G01*
X28292150Y-5460000D02*
G75*
G02*
X28322150Y-5460000I15000J0D01*
G01*
X28334000Y-1651000D02*
G75*
G02*
X28304000Y-1651000I-15000J0D01*
G01*
X28304000Y-1651000D02*
G75*
G02*
X28334000Y-1651000I15000J0D01*
G01*
X28444100Y-7111000D02*
G75*
G02*
X28414100Y-7111000I-15000J0D01*
G01*
X28414100Y-7111000D02*
G75*
G02*
X28444100Y-7111000I15000J0D01*
G01*
X28446150Y-5586000D02*
G75*
G02*
X28416150Y-5586000I-15000J0D01*
G01*
X28416150Y-5586000D02*
G75*
G02*
X28446150Y-5586000I15000J0D01*
G01*
X28447150Y-5336000D02*
G75*
G02*
X28417150Y-5336000I-15000J0D01*
G01*
X28417150Y-5336000D02*
G75*
G02*
X28447150Y-5336000I15000J0D01*
G01*
X28560250Y-3555000D02*
G75*
G02*
X28530250Y-3555000I-15000J0D01*
G01*
X28530250Y-3555000D02*
G75*
G02*
X28560250Y-3555000I15000J0D01*
G01*
X28572150Y-5461000D02*
G75*
G02*
X28542150Y-5461000I-15000J0D01*
G01*
X28542150Y-5461000D02*
G75*
G02*
X28572150Y-5461000I15000J0D01*
G01*
X28684250Y-3681000D02*
G75*
G02*
X28654250Y-3681000I-15000J0D01*
G01*
X28654250Y-3681000D02*
G75*
G02*
X28684250Y-3681000I15000J0D01*
G01*
X28685250Y-3431000D02*
G75*
G02*
X28655250Y-3431000I-15000J0D01*
G01*
X28655250Y-3431000D02*
G75*
G02*
X28685250Y-3431000I15000J0D01*
G01*
X28719000Y-1397000D02*
G75*
G02*
X28689000Y-1397000I-15000J0D01*
G01*
X28689000Y-1397000D02*
G75*
G02*
X28719000Y-1397000I15000J0D01*
G01*
X28810250Y-3556000D02*
G75*
G02*
X28780250Y-3556000I-15000J0D01*
G01*
X28780250Y-3556000D02*
G75*
G02*
X28810250Y-3556000I15000J0D01*
G01*
X28844000Y-1271000D02*
G75*
G02*
X28814000Y-1271000I-15000J0D01*
G01*
X28814000Y-1271000D02*
G75*
G02*
X28844000Y-1271000I15000J0D01*
G01*
X28844000Y-1521000D02*
G75*
G02*
X28814000Y-1521000I-15000J0D01*
G01*
X28814000Y-1521000D02*
G75*
G02*
X28844000Y-1521000I15000J0D01*
G01*
X28957150Y-5207000D02*
G75*
G02*
X28927150Y-5207000I-15000J0D01*
G01*
X28927150Y-5207000D02*
G75*
G02*
X28957150Y-5207000I15000J0D01*
G01*
X28968000Y-1396000D02*
G75*
G02*
X28938000Y-1396000I-15000J0D01*
G01*
X28938000Y-1396000D02*
G75*
G02*
X28968000Y-1396000I15000J0D01*
G01*
X29036500Y255000D02*
G75*
G02*
X29006500Y255000I-15000J0D01*
G01*
X29006500Y255000D02*
G75*
G02*
X29036500Y255000I15000J0D01*
G01*
X29082150Y-5081000D02*
G75*
G02*
X29052150Y-5081000I-15000J0D01*
G01*
X29052150Y-5081000D02*
G75*
G02*
X29082150Y-5081000I15000J0D01*
G01*
X29082150Y-5331000D02*
G75*
G02*
X29052150Y-5331000I-15000J0D01*
G01*
X29052150Y-5331000D02*
G75*
G02*
X29082150Y-5331000I15000J0D01*
G01*
X29160500Y129000D02*
G75*
G02*
X29130500Y129000I-15000J0D01*
G01*
X29130500Y129000D02*
G75*
G02*
X29160500Y129000I15000J0D01*
G01*
X29161500Y379000D02*
G75*
G02*
X29131500Y379000I-15000J0D01*
G01*
X29131500Y379000D02*
G75*
G02*
X29161500Y379000I15000J0D01*
G01*
X29195250Y-3302000D02*
G75*
G02*
X29165250Y-3302000I-15000J0D01*
G01*
X29165250Y-3302000D02*
G75*
G02*
X29195250Y-3302000I15000J0D01*
G01*
X29206150Y-5206000D02*
G75*
G02*
X29176150Y-5206000I-15000J0D01*
G01*
X29176150Y-5206000D02*
G75*
G02*
X29206150Y-5206000I15000J0D01*
G01*
X29274650Y-5460000D02*
G75*
G02*
X29244650Y-5460000I-15000J0D01*
G01*
X29244650Y-5460000D02*
G75*
G02*
X29274650Y-5460000I15000J0D01*
G01*
X29286500Y254000D02*
G75*
G02*
X29256500Y254000I-15000J0D01*
G01*
X29256500Y254000D02*
G75*
G02*
X29286500Y254000I15000J0D01*
G01*
X29320250Y-3176000D02*
G75*
G02*
X29290250Y-3176000I-15000J0D01*
G01*
X29290250Y-3176000D02*
G75*
G02*
X29320250Y-3176000I15000J0D01*
G01*
X29320250Y-3426000D02*
G75*
G02*
X29290250Y-3426000I-15000J0D01*
G01*
X29290250Y-3426000D02*
G75*
G02*
X29320250Y-3426000I15000J0D01*
G01*
X29398650Y-5586000D02*
G75*
G02*
X29368650Y-5586000I-15000J0D01*
G01*
X29368650Y-5586000D02*
G75*
G02*
X29398650Y-5586000I15000J0D01*
G01*
X29399650Y-5336000D02*
G75*
G02*
X29369650Y-5336000I-15000J0D01*
G01*
X29369650Y-5336000D02*
G75*
G02*
X29399650Y-5336000I15000J0D01*
G01*
X29444250Y-3301000D02*
G75*
G02*
X29414250Y-3301000I-15000J0D01*
G01*
X29414250Y-3301000D02*
G75*
G02*
X29444250Y-3301000I15000J0D01*
G01*
X29524650Y-5461000D02*
G75*
G02*
X29494650Y-5461000I-15000J0D01*
G01*
X29494650Y-5461000D02*
G75*
G02*
X29524650Y-5461000I15000J0D01*
G01*
X29671500Y508000D02*
G75*
G02*
X29641500Y508000I-15000J0D01*
G01*
X29641500Y508000D02*
G75*
G02*
X29671500Y508000I15000J0D01*
G01*
X29758310Y-3555000D02*
G75*
G02*
X29728310Y-3555000I-15000J0D01*
G01*
X29728310Y-3555000D02*
G75*
G02*
X29758310Y-3555000I15000J0D01*
G01*
X29796500Y634000D02*
G75*
G02*
X29766500Y634000I-15000J0D01*
G01*
X29766500Y634000D02*
G75*
G02*
X29796500Y634000I15000J0D01*
G01*
X29796500Y384000D02*
G75*
G02*
X29766500Y384000I-15000J0D01*
G01*
X29766500Y384000D02*
G75*
G02*
X29796500Y384000I15000J0D01*
G01*
X29882310Y-3681000D02*
G75*
G02*
X29852310Y-3681000I-15000J0D01*
G01*
X29852310Y-3681000D02*
G75*
G02*
X29882310Y-3681000I15000J0D01*
G01*
X29883310Y-3431000D02*
G75*
G02*
X29853310Y-3431000I-15000J0D01*
G01*
X29853310Y-3431000D02*
G75*
G02*
X29883310Y-3431000I15000J0D01*
G01*
X29909650Y-5207000D02*
G75*
G02*
X29879650Y-5207000I-15000J0D01*
G01*
X29879650Y-5207000D02*
G75*
G02*
X29909650Y-5207000I15000J0D01*
G01*
X29920500Y509000D02*
G75*
G02*
X29890500Y509000I-15000J0D01*
G01*
X29890500Y509000D02*
G75*
G02*
X29920500Y509000I15000J0D01*
G01*
X29989000Y255000D02*
G75*
G02*
X29959000Y255000I-15000J0D01*
G01*
X29959000Y255000D02*
G75*
G02*
X29989000Y255000I15000J0D01*
G01*
X30008310Y-3556000D02*
G75*
G02*
X29978310Y-3556000I-15000J0D01*
G01*
X29978310Y-3556000D02*
G75*
G02*
X30008310Y-3556000I15000J0D01*
G01*
X30034650Y-5081000D02*
G75*
G02*
X30004650Y-5081000I-15000J0D01*
G01*
X30004650Y-5081000D02*
G75*
G02*
X30034650Y-5081000I15000J0D01*
G01*
X30034650Y-5331000D02*
G75*
G02*
X30004650Y-5331000I-15000J0D01*
G01*
X30004650Y-5331000D02*
G75*
G02*
X30034650Y-5331000I15000J0D01*
G01*
X30113000Y129000D02*
G75*
G02*
X30083000Y129000I-15000J0D01*
G01*
X30083000Y129000D02*
G75*
G02*
X30113000Y129000I15000J0D01*
G01*
X30114000Y379000D02*
G75*
G02*
X30084000Y379000I-15000J0D01*
G01*
X30084000Y379000D02*
G75*
G02*
X30114000Y379000I15000J0D01*
G01*
X30158650Y-5206000D02*
G75*
G02*
X30128650Y-5206000I-15000J0D01*
G01*
X30128650Y-5206000D02*
G75*
G02*
X30158650Y-5206000I15000J0D01*
G01*
X30239000Y254000D02*
G75*
G02*
X30209000Y254000I-15000J0D01*
G01*
X30209000Y254000D02*
G75*
G02*
X30239000Y254000I15000J0D01*
G01*
X30393310Y-3302000D02*
G75*
G02*
X30363310Y-3302000I-15000J0D01*
G01*
X30363310Y-3302000D02*
G75*
G02*
X30393310Y-3302000I15000J0D01*
G01*
X30465300Y-1650000D02*
G75*
G02*
X30435300Y-1650000I-15000J0D01*
G01*
X30435300Y-1650000D02*
G75*
G02*
X30465300Y-1650000I15000J0D01*
G01*
X30518310Y-3176000D02*
G75*
G02*
X30488310Y-3176000I-15000J0D01*
G01*
X30488310Y-3176000D02*
G75*
G02*
X30518310Y-3176000I15000J0D01*
G01*
X30518310Y-3426000D02*
G75*
G02*
X30488310Y-3426000I-15000J0D01*
G01*
X30488310Y-3426000D02*
G75*
G02*
X30518310Y-3426000I15000J0D01*
G01*
X30589300Y-1776000D02*
G75*
G02*
X30559300Y-1776000I-15000J0D01*
G01*
X30559300Y-1776000D02*
G75*
G02*
X30589300Y-1776000I15000J0D01*
G01*
X30590300Y-1526000D02*
G75*
G02*
X30560300Y-1526000I-15000J0D01*
G01*
X30560300Y-1526000D02*
G75*
G02*
X30590300Y-1526000I15000J0D01*
G01*
X30624000Y508000D02*
G75*
G02*
X30594000Y508000I-15000J0D01*
G01*
X30594000Y508000D02*
G75*
G02*
X30624000Y508000I15000J0D01*
G01*
X30642310Y-3301000D02*
G75*
G02*
X30612310Y-3301000I-15000J0D01*
G01*
X30612310Y-3301000D02*
G75*
G02*
X30642310Y-3301000I15000J0D01*
G01*
X30703350Y-2602500D02*
G75*
G02*
X30673350Y-2602500I-15000J0D01*
G01*
X30673350Y-2602500D02*
G75*
G02*
X30703350Y-2602500I15000J0D01*
G01*
X30703350Y-7365000D02*
G75*
G02*
X30673350Y-7365000I-15000J0D01*
G01*
X30673350Y-7365000D02*
G75*
G02*
X30703350Y-7365000I15000J0D01*
G01*
X30715300Y-1651000D02*
G75*
G02*
X30685300Y-1651000I-15000J0D01*
G01*
X30685300Y-1651000D02*
G75*
G02*
X30715300Y-1651000I15000J0D01*
G01*
X30749000Y634000D02*
G75*
G02*
X30719000Y634000I-15000J0D01*
G01*
X30719000Y634000D02*
G75*
G02*
X30749000Y634000I15000J0D01*
G01*
X30749000Y384000D02*
G75*
G02*
X30719000Y384000I-15000J0D01*
G01*
X30719000Y384000D02*
G75*
G02*
X30749000Y384000I15000J0D01*
G01*
X30827350Y-2728500D02*
G75*
G02*
X30797350Y-2728500I-15000J0D01*
G01*
X30797350Y-2728500D02*
G75*
G02*
X30827350Y-2728500I15000J0D01*
G01*
X30827350Y-7491000D02*
G75*
G02*
X30797350Y-7491000I-15000J0D01*
G01*
X30797350Y-7491000D02*
G75*
G02*
X30827350Y-7491000I15000J0D01*
G01*
X30828350Y-2478500D02*
G75*
G02*
X30798350Y-2478500I-15000J0D01*
G01*
X30798350Y-2478500D02*
G75*
G02*
X30828350Y-2478500I15000J0D01*
G01*
X30828350Y-7241000D02*
G75*
G02*
X30798350Y-7241000I-15000J0D01*
G01*
X30798350Y-7241000D02*
G75*
G02*
X30828350Y-7241000I15000J0D01*
G01*
X30873000Y509000D02*
G75*
G02*
X30843000Y509000I-15000J0D01*
G01*
X30843000Y509000D02*
G75*
G02*
X30873000Y509000I15000J0D01*
G01*
X30941500Y255000D02*
G75*
G02*
X30911500Y255000I-15000J0D01*
G01*
X30911500Y255000D02*
G75*
G02*
X30941500Y255000I15000J0D01*
G01*
X30941500Y-5460000D02*
G75*
G02*
X30911500Y-5460000I-15000J0D01*
G01*
X30911500Y-5460000D02*
G75*
G02*
X30941500Y-5460000I15000J0D01*
G01*
X30953350Y-2603500D02*
G75*
G02*
X30923350Y-2603500I-15000J0D01*
G01*
X30923350Y-2603500D02*
G75*
G02*
X30953350Y-2603500I15000J0D01*
G01*
X30953350Y-7366000D02*
G75*
G02*
X30923350Y-7366000I-15000J0D01*
G01*
X30923350Y-7366000D02*
G75*
G02*
X30953350Y-7366000I15000J0D01*
G01*
X31065500Y129000D02*
G75*
G02*
X31035500Y129000I-15000J0D01*
G01*
X31035500Y129000D02*
G75*
G02*
X31065500Y129000I15000J0D01*
G01*
X31065500Y-5586000D02*
G75*
G02*
X31035500Y-5586000I-15000J0D01*
G01*
X31035500Y-5586000D02*
G75*
G02*
X31065500Y-5586000I15000J0D01*
G01*
X31066500Y379000D02*
G75*
G02*
X31036500Y379000I-15000J0D01*
G01*
X31036500Y379000D02*
G75*
G02*
X31066500Y379000I15000J0D01*
G01*
X31066500Y-5336000D02*
G75*
G02*
X31036500Y-5336000I-15000J0D01*
G01*
X31036500Y-5336000D02*
G75*
G02*
X31066500Y-5336000I15000J0D01*
G01*
X31100300Y-1397000D02*
G75*
G02*
X31070300Y-1397000I-15000J0D01*
G01*
X31070300Y-1397000D02*
G75*
G02*
X31100300Y-1397000I15000J0D01*
G01*
X31191500Y254000D02*
G75*
G02*
X31161500Y254000I-15000J0D01*
G01*
X31161500Y254000D02*
G75*
G02*
X31191500Y254000I15000J0D01*
G01*
X31191500Y-5461000D02*
G75*
G02*
X31161500Y-5461000I-15000J0D01*
G01*
X31161500Y-5461000D02*
G75*
G02*
X31191500Y-5461000I15000J0D01*
G01*
X31225300Y-1271000D02*
G75*
G02*
X31195300Y-1271000I-15000J0D01*
G01*
X31195300Y-1271000D02*
G75*
G02*
X31225300Y-1271000I15000J0D01*
G01*
X31225300Y-1521000D02*
G75*
G02*
X31195300Y-1521000I-15000J0D01*
G01*
X31195300Y-1521000D02*
G75*
G02*
X31225300Y-1521000I15000J0D01*
G01*
X31338350Y-2349500D02*
G75*
G02*
X31308350Y-2349500I-15000J0D01*
G01*
X31308350Y-2349500D02*
G75*
G02*
X31338350Y-2349500I15000J0D01*
G01*
X31338350Y-7112000D02*
G75*
G02*
X31308350Y-7112000I-15000J0D01*
G01*
X31308350Y-7112000D02*
G75*
G02*
X31338350Y-7112000I15000J0D01*
G01*
X31349300Y-1396000D02*
G75*
G02*
X31319300Y-1396000I-15000J0D01*
G01*
X31319300Y-1396000D02*
G75*
G02*
X31349300Y-1396000I15000J0D01*
G01*
X31463350Y-2223500D02*
G75*
G02*
X31433350Y-2223500I-15000J0D01*
G01*
X31433350Y-2223500D02*
G75*
G02*
X31463350Y-2223500I15000J0D01*
G01*
X31463350Y-2473500D02*
G75*
G02*
X31433350Y-2473500I-15000J0D01*
G01*
X31433350Y-2473500D02*
G75*
G02*
X31463350Y-2473500I15000J0D01*
G01*
X31463350Y-6986000D02*
G75*
G02*
X31433350Y-6986000I-15000J0D01*
G01*
X31433350Y-6986000D02*
G75*
G02*
X31463350Y-6986000I15000J0D01*
G01*
X31463350Y-7236000D02*
G75*
G02*
X31433350Y-7236000I-15000J0D01*
G01*
X31433350Y-7236000D02*
G75*
G02*
X31463350Y-7236000I15000J0D01*
G01*
X31576500Y508000D02*
G75*
G02*
X31546500Y508000I-15000J0D01*
G01*
X31546500Y508000D02*
G75*
G02*
X31576500Y508000I15000J0D01*
G01*
X31576500Y-5207000D02*
G75*
G02*
X31546500Y-5207000I-15000J0D01*
G01*
X31546500Y-5207000D02*
G75*
G02*
X31576500Y-5207000I15000J0D01*
G01*
X31587350Y-2348500D02*
G75*
G02*
X31557350Y-2348500I-15000J0D01*
G01*
X31557350Y-2348500D02*
G75*
G02*
X31587350Y-2348500I15000J0D01*
G01*
X31587350Y-7111000D02*
G75*
G02*
X31557350Y-7111000I-15000J0D01*
G01*
X31557350Y-7111000D02*
G75*
G02*
X31587350Y-7111000I15000J0D01*
G01*
X31701500Y634000D02*
G75*
G02*
X31671500Y634000I-15000J0D01*
G01*
X31671500Y634000D02*
G75*
G02*
X31701500Y634000I15000J0D01*
G01*
X31701500Y384000D02*
G75*
G02*
X31671500Y384000I-15000J0D01*
G01*
X31671500Y384000D02*
G75*
G02*
X31701500Y384000I15000J0D01*
G01*
X31701500Y-5081000D02*
G75*
G02*
X31671500Y-5081000I-15000J0D01*
G01*
X31671500Y-5081000D02*
G75*
G02*
X31701500Y-5081000I15000J0D01*
G01*
X31701500Y-5331000D02*
G75*
G02*
X31671500Y-5331000I-15000J0D01*
G01*
X31671500Y-5331000D02*
G75*
G02*
X31701500Y-5331000I15000J0D01*
G01*
X31825500Y509000D02*
G75*
G02*
X31795500Y509000I-15000J0D01*
G01*
X31795500Y509000D02*
G75*
G02*
X31825500Y509000I15000J0D01*
G01*
X31825500Y-5206000D02*
G75*
G02*
X31795500Y-5206000I-15000J0D01*
G01*
X31795500Y-5206000D02*
G75*
G02*
X31825500Y-5206000I15000J0D01*
G01*
X3975000Y-541500D02*
X3975000Y-616500D01*
X3937500Y-579000D02*
X4012500Y-579000D01*
X3975000Y-741500D02*
X3975000Y-816500D01*
X3937500Y-779000D02*
X4012500Y-779000D01*
X3975000Y-941500D02*
X3975000Y-1016500D01*
X3937500Y-979000D02*
X4012500Y-979000D01*
X3975000Y-1141500D02*
X3975000Y-1216500D01*
X3937500Y-1179000D02*
X4012500Y-1179000D01*
X3975000Y-1341500D02*
X3975000Y-1416500D01*
X3937500Y-1379000D02*
X4012500Y-1379000D01*
X6485356Y-7437356D02*
X6485356Y-7366644D01*
X6414644Y-7366644D01*
X6414644Y-7437356D01*
X6485356Y-7437356D01*
X6487356Y-7799356D02*
X6487356Y-7728644D01*
X6416644Y-7728644D01*
X6416644Y-7799356D01*
X6487356Y-7799356D01*
X6735356Y-7437356D02*
X6735356Y-7366644D01*
X6664644Y-7366644D01*
X6664644Y-7437356D01*
X6735356Y-7437356D01*
X6737356Y-7799356D02*
X6737356Y-7728644D01*
X6666644Y-7728644D01*
X6666644Y-7799356D01*
X6737356Y-7799356D01*
D14*
X4381500Y169000D02*
X4466500Y254000D01*
X4381500Y339000D01*
X4296500Y254000D01*
X4381500Y169000D01*
X4619600Y-3641000D02*
X4704600Y-3556000D01*
X4619600Y-3471000D01*
X4534600Y-3556000D01*
X4619600Y-3641000D01*
X4619600Y-5546000D02*
X4704600Y-5461000D01*
X4619600Y-5376000D01*
X4534600Y-5461000D01*
X4619600Y-5546000D01*
X4619600Y-7451000D02*
X4704600Y-7366000D01*
X4619600Y-7281000D01*
X4534600Y-7366000D01*
X4619600Y-7451000D01*
X4857800Y-1736000D02*
X4942800Y-1651000D01*
X4857800Y-1566000D01*
X4772800Y-1651000D01*
X4857800Y-1736000D01*
X5016500Y423000D02*
X5101500Y508000D01*
X5016500Y593000D01*
X4931500Y508000D01*
X5016500Y423000D01*
X5095900Y-3641000D02*
X5180900Y-3556000D01*
X5095900Y-3471000D01*
X5010900Y-3556000D01*
X5095900Y-3641000D01*
X5254600Y-3387000D02*
X5339600Y-3302000D01*
X5254600Y-3217000D01*
X5169600Y-3302000D01*
X5254600Y-3387000D01*
X5254600Y-5292000D02*
X5339600Y-5207000D01*
X5254600Y-5122000D01*
X5169600Y-5207000D01*
X5254600Y-5292000D01*
X5254600Y-7197000D02*
X5339600Y-7112000D01*
X5254600Y-7027000D01*
X5169600Y-7112000D01*
X5254600Y-7197000D01*
X5492800Y-1482000D02*
X5577800Y-1397000D01*
X5492800Y-1312000D01*
X5407800Y-1397000D01*
X5492800Y-1482000D01*
X5579560Y-5546000D02*
X5664560Y-5461000D01*
X5579560Y-5376000D01*
X5494560Y-5461000D01*
X5579560Y-5546000D01*
X5730900Y-3387000D02*
X5815900Y-3302000D01*
X5730900Y-3217000D01*
X5645900Y-3302000D01*
X5730900Y-3387000D01*
X6214560Y-5292000D02*
X6299560Y-5207000D01*
X6214560Y-5122000D01*
X6129560Y-5207000D01*
X6214560Y-5292000D01*
X6286500Y169000D02*
X6371500Y254000D01*
X6286500Y339000D01*
X6201500Y254000D01*
X6286500Y169000D01*
X6762750Y-5546000D02*
X6847750Y-5461000D01*
X6762750Y-5376000D01*
X6677750Y-5461000D01*
X6762750Y-5546000D01*
X6921500Y423000D02*
X7006500Y508000D01*
X6921500Y593000D01*
X6836500Y508000D01*
X6921500Y423000D01*
X7239000Y-1736000D02*
X7324000Y-1651000D01*
X7239000Y-1566000D01*
X7154000Y-1651000D01*
X7239000Y-1736000D01*
X7397750Y-5292000D02*
X7482750Y-5207000D01*
X7397750Y-5122000D01*
X7312750Y-5207000D01*
X7397750Y-5292000D01*
X7715250Y-3641000D02*
X7800250Y-3556000D01*
X7715250Y-3471000D01*
X7630250Y-3556000D01*
X7715250Y-3641000D01*
X7762850Y-7451000D02*
X7847850Y-7366000D01*
X7762850Y-7281000D01*
X7677850Y-7366000D01*
X7762850Y-7451000D01*
X7874000Y-1482000D02*
X7959000Y-1397000D01*
X7874000Y-1312000D01*
X7789000Y-1397000D01*
X7874000Y-1482000D01*
X8191500Y169000D02*
X8276500Y254000D01*
X8191500Y339000D01*
X8106500Y254000D01*
X8191500Y169000D01*
X8350250Y-3387000D02*
X8435250Y-3302000D01*
X8350250Y-3217000D01*
X8265250Y-3302000D01*
X8350250Y-3387000D01*
X8397850Y-7197000D02*
X8482850Y-7112000D01*
X8397850Y-7027000D01*
X8312850Y-7112000D01*
X8397850Y-7197000D01*
X8667750Y-5546000D02*
X8752750Y-5461000D01*
X8667750Y-5376000D01*
X8582750Y-5461000D01*
X8667750Y-5546000D01*
X8826500Y423000D02*
X8911500Y508000D01*
X8826500Y593000D01*
X8741500Y508000D01*
X8826500Y423000D01*
X9144000Y-1736000D02*
X9229000Y-1651000D01*
X9144000Y-1566000D01*
X9059000Y-1651000D01*
X9144000Y-1736000D01*
X9302750Y-5292000D02*
X9387750Y-5207000D01*
X9302750Y-5122000D01*
X9217750Y-5207000D01*
X9302750Y-5292000D01*
X9620250Y-3641000D02*
X9705250Y-3556000D01*
X9620250Y-3471000D01*
X9535250Y-3556000D01*
X9620250Y-3641000D01*
X9779000Y-1482000D02*
X9864000Y-1397000D01*
X9779000Y-1312000D01*
X9694000Y-1397000D01*
X9779000Y-1482000D01*
X10096500Y169000D02*
X10181500Y254000D01*
X10096500Y339000D01*
X10011500Y254000D01*
X10096500Y169000D01*
X10144100Y-7451000D02*
X10229100Y-7366000D01*
X10144100Y-7281000D01*
X10059100Y-7366000D01*
X10144100Y-7451000D01*
X10255250Y-3387000D02*
X10340250Y-3302000D01*
X10255250Y-3217000D01*
X10170250Y-3302000D01*
X10255250Y-3387000D01*
X10572750Y-5546000D02*
X10657750Y-5461000D01*
X10572750Y-5376000D01*
X10487750Y-5461000D01*
X10572750Y-5546000D01*
X10731500Y423000D02*
X10816500Y508000D01*
X10731500Y593000D01*
X10646500Y508000D01*
X10731500Y423000D01*
X10779100Y-7197000D02*
X10864100Y-7112000D01*
X10779100Y-7027000D01*
X10694100Y-7112000D01*
X10779100Y-7197000D01*
X11049000Y-1736000D02*
X11134000Y-1651000D01*
X11049000Y-1566000D01*
X10964000Y-1651000D01*
X11049000Y-1736000D01*
X11207750Y-5292000D02*
X11292750Y-5207000D01*
X11207750Y-5122000D01*
X11122750Y-5207000D01*
X11207750Y-5292000D01*
X11525250Y-3641000D02*
X11610250Y-3556000D01*
X11525250Y-3471000D01*
X11440250Y-3556000D01*
X11525250Y-3641000D01*
X11684000Y-1482000D02*
X11769000Y-1397000D01*
X11684000Y-1312000D01*
X11599000Y-1397000D01*
X11684000Y-1482000D01*
X12001500Y169000D02*
X12086500Y254000D01*
X12001500Y339000D01*
X11916500Y254000D01*
X12001500Y169000D01*
X12160250Y-3387000D02*
X12245250Y-3302000D01*
X12160250Y-3217000D01*
X12075250Y-3302000D01*
X12160250Y-3387000D01*
X12477750Y-5546000D02*
X12562750Y-5461000D01*
X12477750Y-5376000D01*
X12392750Y-5461000D01*
X12477750Y-5546000D01*
X12636500Y423000D02*
X12721500Y508000D01*
X12636500Y593000D01*
X12551500Y508000D01*
X12636500Y423000D01*
X12954000Y-1736000D02*
X13039000Y-1651000D01*
X12954000Y-1566000D01*
X12869000Y-1651000D01*
X12954000Y-1736000D01*
X13112750Y-5292000D02*
X13197750Y-5207000D01*
X13112750Y-5122000D01*
X13027750Y-5207000D01*
X13112750Y-5292000D01*
X13430250Y-3641000D02*
X13515250Y-3556000D01*
X13430250Y-3471000D01*
X13345250Y-3556000D01*
X13430250Y-3641000D01*
X13589000Y-1482000D02*
X13674000Y-1397000D01*
X13589000Y-1312000D01*
X13504000Y-1397000D01*
X13589000Y-1482000D01*
X13906500Y169000D02*
X13991500Y254000D01*
X13906500Y339000D01*
X13821500Y254000D01*
X13906500Y169000D01*
X14065250Y-3387000D02*
X14150250Y-3302000D01*
X14065250Y-3217000D01*
X13980250Y-3302000D01*
X14065250Y-3387000D01*
X14382750Y-5546000D02*
X14467750Y-5461000D01*
X14382750Y-5376000D01*
X14297750Y-5461000D01*
X14382750Y-5546000D01*
X14541500Y423000D02*
X14626500Y508000D01*
X14541500Y593000D01*
X14456500Y508000D01*
X14541500Y423000D01*
X14859000Y-1736000D02*
X14944000Y-1651000D01*
X14859000Y-1566000D01*
X14774000Y-1651000D01*
X14859000Y-1736000D01*
X15017750Y-5292000D02*
X15102750Y-5207000D01*
X15017750Y-5122000D01*
X14932750Y-5207000D01*
X15017750Y-5292000D01*
X15335250Y-3641000D02*
X15420250Y-3556000D01*
X15335250Y-3471000D01*
X15250250Y-3556000D01*
X15335250Y-3641000D01*
X15494000Y-1482000D02*
X15579000Y-1397000D01*
X15494000Y-1312000D01*
X15409000Y-1397000D01*
X15494000Y-1482000D01*
X15811500Y169000D02*
X15896500Y254000D01*
X15811500Y339000D01*
X15726500Y254000D01*
X15811500Y169000D01*
X15970250Y-3387000D02*
X16055250Y-3302000D01*
X15970250Y-3217000D01*
X15885250Y-3302000D01*
X15970250Y-3387000D01*
X16287750Y-5546000D02*
X16372750Y-5461000D01*
X16287750Y-5376000D01*
X16202750Y-5461000D01*
X16287750Y-5546000D01*
X16446500Y423000D02*
X16531500Y508000D01*
X16446500Y593000D01*
X16361500Y508000D01*
X16446500Y423000D01*
X16764000Y-1736000D02*
X16849000Y-1651000D01*
X16764000Y-1566000D01*
X16679000Y-1651000D01*
X16764000Y-1736000D01*
X16922750Y-5292000D02*
X17007750Y-5207000D01*
X16922750Y-5122000D01*
X16837750Y-5207000D01*
X16922750Y-5292000D01*
X17240250Y-3641000D02*
X17325250Y-3556000D01*
X17240250Y-3471000D01*
X17155250Y-3556000D01*
X17240250Y-3641000D01*
X17399000Y-1482000D02*
X17484000Y-1397000D01*
X17399000Y-1312000D01*
X17314000Y-1397000D01*
X17399000Y-1482000D01*
X17716500Y169000D02*
X17801500Y254000D01*
X17716500Y339000D01*
X17631500Y254000D01*
X17716500Y169000D01*
X17726000Y-7832000D02*
X17811000Y-7747000D01*
X17726000Y-7662000D01*
X17641000Y-7747000D01*
X17726000Y-7832000D01*
X17875250Y-3387000D02*
X17960250Y-3302000D01*
X17875250Y-3217000D01*
X17790250Y-3302000D01*
X17875250Y-3387000D01*
X18192750Y-5546000D02*
X18277750Y-5461000D01*
X18192750Y-5376000D01*
X18107750Y-5461000D01*
X18192750Y-5546000D01*
X18351500Y423000D02*
X18436500Y508000D01*
X18351500Y593000D01*
X18266500Y508000D01*
X18351500Y423000D01*
X18361000Y-7578000D02*
X18446000Y-7493000D01*
X18361000Y-7408000D01*
X18276000Y-7493000D01*
X18361000Y-7578000D01*
X18669000Y-1736000D02*
X18754000Y-1651000D01*
X18669000Y-1566000D01*
X18584000Y-1651000D01*
X18669000Y-1736000D01*
X18827750Y-5292000D02*
X18912750Y-5207000D01*
X18827750Y-5122000D01*
X18742750Y-5207000D01*
X18827750Y-5292000D01*
X19145250Y-3641000D02*
X19230250Y-3556000D01*
X19145250Y-3471000D01*
X19060250Y-3556000D01*
X19145250Y-3641000D01*
X19304000Y-1482000D02*
X19389000Y-1397000D01*
X19304000Y-1312000D01*
X19219000Y-1397000D01*
X19304000Y-1482000D01*
X19621500Y169000D02*
X19706500Y254000D01*
X19621500Y339000D01*
X19536500Y254000D01*
X19621500Y169000D01*
X19780250Y-3387000D02*
X19865250Y-3302000D01*
X19780250Y-3217000D01*
X19695250Y-3302000D01*
X19780250Y-3387000D01*
X20097750Y-5546000D02*
X20182750Y-5461000D01*
X20097750Y-5376000D01*
X20012750Y-5461000D01*
X20097750Y-5546000D01*
X20256500Y423000D02*
X20341500Y508000D01*
X20256500Y593000D01*
X20171500Y508000D01*
X20256500Y423000D01*
X20574000Y-1736000D02*
X20659000Y-1651000D01*
X20574000Y-1566000D01*
X20489000Y-1651000D01*
X20574000Y-1736000D01*
X20732750Y-5292000D02*
X20817750Y-5207000D01*
X20732750Y-5122000D01*
X20647750Y-5207000D01*
X20732750Y-5292000D01*
X21050250Y-3641000D02*
X21135250Y-3556000D01*
X21050250Y-3471000D01*
X20965250Y-3556000D01*
X21050250Y-3641000D01*
X21209000Y-1482000D02*
X21294000Y-1397000D01*
X21209000Y-1312000D01*
X21124000Y-1397000D01*
X21209000Y-1482000D01*
X21526500Y169000D02*
X21611500Y254000D01*
X21526500Y339000D01*
X21441500Y254000D01*
X21526500Y169000D01*
X21685250Y-3387000D02*
X21770250Y-3302000D01*
X21685250Y-3217000D01*
X21600250Y-3302000D01*
X21685250Y-3387000D01*
X22002750Y-5546000D02*
X22087750Y-5461000D01*
X22002750Y-5376000D01*
X21917750Y-5461000D01*
X22002750Y-5546000D01*
X22161500Y423000D02*
X22246500Y508000D01*
X22161500Y593000D01*
X22076500Y508000D01*
X22161500Y423000D01*
X22479000Y-1736000D02*
X22564000Y-1651000D01*
X22479000Y-1566000D01*
X22394000Y-1651000D01*
X22479000Y-1736000D01*
X22637750Y-5292000D02*
X22722750Y-5207000D01*
X22637750Y-5122000D01*
X22552750Y-5207000D01*
X22637750Y-5292000D01*
X22955250Y-3641000D02*
X23040250Y-3556000D01*
X22955250Y-3471000D01*
X22870250Y-3556000D01*
X22955250Y-3641000D01*
X23114000Y-1482000D02*
X23199000Y-1397000D01*
X23114000Y-1312000D01*
X23029000Y-1397000D01*
X23114000Y-1482000D01*
X23431500Y169000D02*
X23516500Y254000D01*
X23431500Y339000D01*
X23346500Y254000D01*
X23431500Y169000D01*
X23590250Y-3387000D02*
X23675250Y-3302000D01*
X23590250Y-3217000D01*
X23505250Y-3302000D01*
X23590250Y-3387000D01*
X23907750Y-5546000D02*
X23992750Y-5461000D01*
X23907750Y-5376000D01*
X23822750Y-5461000D01*
X23907750Y-5546000D01*
X24066500Y423000D02*
X24151500Y508000D01*
X24066500Y593000D01*
X23981500Y508000D01*
X24066500Y423000D01*
X24384000Y-1736000D02*
X24469000Y-1651000D01*
X24384000Y-1566000D01*
X24299000Y-1651000D01*
X24384000Y-1736000D01*
X24542750Y-5292000D02*
X24627750Y-5207000D01*
X24542750Y-5122000D01*
X24457750Y-5207000D01*
X24542750Y-5292000D01*
X24860250Y-3641000D02*
X24945250Y-3556000D01*
X24860250Y-3471000D01*
X24775250Y-3556000D01*
X24860250Y-3641000D01*
X25019000Y-1482000D02*
X25104000Y-1397000D01*
X25019000Y-1312000D01*
X24934000Y-1397000D01*
X25019000Y-1482000D01*
X25288850Y-7451000D02*
X25373850Y-7366000D01*
X25288850Y-7281000D01*
X25203850Y-7366000D01*
X25288850Y-7451000D01*
X25336500Y169000D02*
X25421500Y254000D01*
X25336500Y339000D01*
X25251500Y254000D01*
X25336500Y169000D01*
X25495250Y-3387000D02*
X25580250Y-3302000D01*
X25495250Y-3217000D01*
X25410250Y-3302000D01*
X25495250Y-3387000D01*
X25812750Y-5546000D02*
X25897750Y-5461000D01*
X25812750Y-5376000D01*
X25727750Y-5461000D01*
X25812750Y-5546000D01*
X25923850Y-7197000D02*
X26008850Y-7112000D01*
X25923850Y-7027000D01*
X25838850Y-7112000D01*
X25923850Y-7197000D01*
X25971500Y423000D02*
X26056500Y508000D01*
X25971500Y593000D01*
X25886500Y508000D01*
X25971500Y423000D01*
X26289000Y-1736000D02*
X26374000Y-1651000D01*
X26289000Y-1566000D01*
X26204000Y-1651000D01*
X26289000Y-1736000D01*
X26447750Y-5292000D02*
X26532750Y-5207000D01*
X26447750Y-5122000D01*
X26362750Y-5207000D01*
X26447750Y-5292000D01*
X26765250Y-3641000D02*
X26850250Y-3556000D01*
X26765250Y-3471000D01*
X26680250Y-3556000D01*
X26765250Y-3641000D01*
X26924000Y-1482000D02*
X27009000Y-1397000D01*
X26924000Y-1312000D01*
X26839000Y-1397000D01*
X26924000Y-1482000D01*
X27241500Y169000D02*
X27326500Y254000D01*
X27241500Y339000D01*
X27156500Y254000D01*
X27241500Y169000D01*
X27400250Y-3387000D02*
X27485250Y-3302000D01*
X27400250Y-3217000D01*
X27315250Y-3302000D01*
X27400250Y-3387000D01*
X27670100Y-7451000D02*
X27755100Y-7366000D01*
X27670100Y-7281000D01*
X27585100Y-7366000D01*
X27670100Y-7451000D01*
X27876500Y423000D02*
X27961500Y508000D01*
X27876500Y593000D01*
X27791500Y508000D01*
X27876500Y423000D01*
X28194000Y-1736000D02*
X28279000Y-1651000D01*
X28194000Y-1566000D01*
X28109000Y-1651000D01*
X28194000Y-1736000D01*
X28305100Y-7197000D02*
X28390100Y-7112000D01*
X28305100Y-7027000D01*
X28220100Y-7112000D01*
X28305100Y-7197000D01*
X28432150Y-5546000D02*
X28517150Y-5461000D01*
X28432150Y-5376000D01*
X28347150Y-5461000D01*
X28432150Y-5546000D01*
X28670250Y-3641000D02*
X28755250Y-3556000D01*
X28670250Y-3471000D01*
X28585250Y-3556000D01*
X28670250Y-3641000D01*
X28829000Y-1482000D02*
X28914000Y-1397000D01*
X28829000Y-1312000D01*
X28744000Y-1397000D01*
X28829000Y-1482000D01*
X29067150Y-5292000D02*
X29152150Y-5207000D01*
X29067150Y-5122000D01*
X28982150Y-5207000D01*
X29067150Y-5292000D01*
X29146500Y169000D02*
X29231500Y254000D01*
X29146500Y339000D01*
X29061500Y254000D01*
X29146500Y169000D01*
X29305250Y-3387000D02*
X29390250Y-3302000D01*
X29305250Y-3217000D01*
X29220250Y-3302000D01*
X29305250Y-3387000D01*
X29384650Y-5546000D02*
X29469650Y-5461000D01*
X29384650Y-5376000D01*
X29299650Y-5461000D01*
X29384650Y-5546000D01*
X29781500Y423000D02*
X29866500Y508000D01*
X29781500Y593000D01*
X29696500Y508000D01*
X29781500Y423000D01*
X29868310Y-3641000D02*
X29953310Y-3556000D01*
X29868310Y-3471000D01*
X29783310Y-3556000D01*
X29868310Y-3641000D01*
X30019650Y-5292000D02*
X30104650Y-5207000D01*
X30019650Y-5122000D01*
X29934650Y-5207000D01*
X30019650Y-5292000D01*
X30099000Y169000D02*
X30184000Y254000D01*
X30099000Y339000D01*
X30014000Y254000D01*
X30099000Y169000D01*
X30503310Y-3387000D02*
X30588310Y-3302000D01*
X30503310Y-3217000D01*
X30418310Y-3302000D01*
X30503310Y-3387000D01*
X30575300Y-1736000D02*
X30660300Y-1651000D01*
X30575300Y-1566000D01*
X30490300Y-1651000D01*
X30575300Y-1736000D01*
X30734000Y423000D02*
X30819000Y508000D01*
X30734000Y593000D01*
X30649000Y508000D01*
X30734000Y423000D01*
X30813350Y-2688500D02*
X30898350Y-2603500D01*
X30813350Y-2518500D01*
X30728350Y-2603500D01*
X30813350Y-2688500D01*
X30813350Y-7451000D02*
X30898350Y-7366000D01*
X30813350Y-7281000D01*
X30728350Y-7366000D01*
X30813350Y-7451000D01*
X31051500Y169000D02*
X31136500Y254000D01*
X31051500Y339000D01*
X30966500Y254000D01*
X31051500Y169000D01*
X31051500Y-5546000D02*
X31136500Y-5461000D01*
X31051500Y-5376000D01*
X30966500Y-5461000D01*
X31051500Y-5546000D01*
X31210300Y-1482000D02*
X31295300Y-1397000D01*
X31210300Y-1312000D01*
X31125300Y-1397000D01*
X31210300Y-1482000D01*
X31448350Y-2434500D02*
X31533350Y-2349500D01*
X31448350Y-2264500D01*
X31363350Y-2349500D01*
X31448350Y-2434500D01*
X31448350Y-7197000D02*
X31533350Y-7112000D01*
X31448350Y-7027000D01*
X31363350Y-7112000D01*
X31448350Y-7197000D01*
X31686500Y423000D02*
X31771500Y508000D01*
X31686500Y593000D01*
X31601500Y508000D01*
X31686500Y423000D01*
X31686500Y-5292000D02*
X31771500Y-5207000D01*
X31686500Y-5122000D01*
X31601500Y-5207000D01*
X31686500Y-5292000D01*
D12*
X4098777Y-9237484D02*
X4098777Y-9037484D01*
X4098777Y-9037484D02*
X4146396Y-9037484D01*
X4146396Y-9037484D02*
X4174967Y-9047008D01*
X4174967Y-9047008D02*
X4194015Y-9066055D01*
X4194015Y-9066055D02*
X4203539Y-9085103D01*
X4203539Y-9085103D02*
X4213063Y-9123198D01*
X4213063Y-9123198D02*
X4213063Y-9151770D01*
X4213063Y-9151770D02*
X4203539Y-9189865D01*
X4203539Y-9189865D02*
X4194015Y-9208912D01*
X4194015Y-9208912D02*
X4174967Y-9227960D01*
X4174967Y-9227960D02*
X4146396Y-9237484D01*
X4146396Y-9237484D02*
X4098777Y-9237484D01*
X4298777Y-9237484D02*
X4298777Y-9104150D01*
X4298777Y-9142246D02*
X4308301Y-9123198D01*
X4308301Y-9123198D02*
X4317824Y-9113674D01*
X4317824Y-9113674D02*
X4336872Y-9104150D01*
X4336872Y-9104150D02*
X4355920Y-9104150D01*
X4422586Y-9237484D02*
X4422586Y-9104150D01*
X4422586Y-9037484D02*
X4413063Y-9047008D01*
X4413063Y-9047008D02*
X4422586Y-9056531D01*
X4422586Y-9056531D02*
X4432110Y-9047008D01*
X4432110Y-9047008D02*
X4422586Y-9037484D01*
X4422586Y-9037484D02*
X4422586Y-9056531D01*
X4546396Y-9237484D02*
X4527348Y-9227960D01*
X4527348Y-9227960D02*
X4517824Y-9208912D01*
X4517824Y-9208912D02*
X4517824Y-9037484D01*
X4651158Y-9237484D02*
X4632110Y-9227960D01*
X4632110Y-9227960D02*
X4622586Y-9208912D01*
X4622586Y-9208912D02*
X4622586Y-9037484D01*
X4879729Y-9237484D02*
X4879729Y-9037484D01*
X4879729Y-9037484D02*
X4946396Y-9180341D01*
X4946396Y-9180341D02*
X5013063Y-9037484D01*
X5013063Y-9037484D02*
X5013063Y-9237484D01*
X5194015Y-9237484D02*
X5194015Y-9132722D01*
X5194015Y-9132722D02*
X5184491Y-9113674D01*
X5184491Y-9113674D02*
X5165444Y-9104150D01*
X5165444Y-9104150D02*
X5127348Y-9104150D01*
X5127348Y-9104150D02*
X5108301Y-9113674D01*
X5194015Y-9227960D02*
X5174967Y-9237484D01*
X5174967Y-9237484D02*
X5127348Y-9237484D01*
X5127348Y-9237484D02*
X5108301Y-9227960D01*
X5108301Y-9227960D02*
X5098777Y-9208912D01*
X5098777Y-9208912D02*
X5098777Y-9189865D01*
X5098777Y-9189865D02*
X5108301Y-9170817D01*
X5108301Y-9170817D02*
X5127348Y-9161293D01*
X5127348Y-9161293D02*
X5174967Y-9161293D01*
X5174967Y-9161293D02*
X5194015Y-9151770D01*
X5289253Y-9104150D02*
X5289253Y-9304150D01*
X5289253Y-9113674D02*
X5308301Y-9104150D01*
X5308301Y-9104150D02*
X5346396Y-9104150D01*
X5346396Y-9104150D02*
X5365444Y-9113674D01*
X5365444Y-9113674D02*
X5374967Y-9123198D01*
X5374967Y-9123198D02*
X5384491Y-9142246D01*
X5384491Y-9142246D02*
X5384491Y-9199389D01*
X5384491Y-9199389D02*
X5374967Y-9218436D01*
X5374967Y-9218436D02*
X5365444Y-9227960D01*
X5365444Y-9227960D02*
X5346396Y-9237484D01*
X5346396Y-9237484D02*
X5308301Y-9237484D01*
X5308301Y-9237484D02*
X5289253Y-9227960D01*
X5470205Y-9218436D02*
X5479729Y-9227960D01*
X5479729Y-9227960D02*
X5470205Y-9237484D01*
X5470205Y-9237484D02*
X5460682Y-9227960D01*
X5460682Y-9227960D02*
X5470205Y-9218436D01*
X5470205Y-9218436D02*
X5470205Y-9237484D01*
X5470205Y-9113674D02*
X5479729Y-9123198D01*
X5479729Y-9123198D02*
X5470205Y-9132722D01*
X5470205Y-9132722D02*
X5460682Y-9123198D01*
X5460682Y-9123198D02*
X5470205Y-9113674D01*
X5470205Y-9113674D02*
X5470205Y-9132722D01*
D13*
X3808000Y-9551000D02*
X3838000Y-9581000D01*
X3838000Y-9551000D02*
X3808000Y-9581000D01*
D12*
X4136872Y-9457484D02*
X4155920Y-9457484D01*
X4155920Y-9457484D02*
X4174967Y-9467008D01*
X4174967Y-9467008D02*
X4184491Y-9476531D01*
X4184491Y-9476531D02*
X4194015Y-9495579D01*
X4194015Y-9495579D02*
X4203539Y-9533674D01*
X4203539Y-9533674D02*
X4203539Y-9581293D01*
X4203539Y-9581293D02*
X4194015Y-9619389D01*
X4194015Y-9619389D02*
X4184491Y-9638436D01*
X4184491Y-9638436D02*
X4174967Y-9647960D01*
X4174967Y-9647960D02*
X4155920Y-9657484D01*
X4155920Y-9657484D02*
X4136872Y-9657484D01*
X4136872Y-9657484D02*
X4117824Y-9647960D01*
X4117824Y-9647960D02*
X4108301Y-9638436D01*
X4108301Y-9638436D02*
X4098777Y-9619389D01*
X4098777Y-9619389D02*
X4089253Y-9581293D01*
X4089253Y-9581293D02*
X4089253Y-9533674D01*
X4089253Y-9533674D02*
X4098777Y-9495579D01*
X4098777Y-9495579D02*
X4108301Y-9476531D01*
X4108301Y-9476531D02*
X4117824Y-9467008D01*
X4117824Y-9467008D02*
X4136872Y-9457484D01*
X4289253Y-9638436D02*
X4298777Y-9647960D01*
X4298777Y-9647960D02*
X4289253Y-9657484D01*
X4289253Y-9657484D02*
X4279729Y-9647960D01*
X4279729Y-9647960D02*
X4289253Y-9638436D01*
X4289253Y-9638436D02*
X4289253Y-9657484D01*
X4365444Y-9457484D02*
X4489253Y-9457484D01*
X4489253Y-9457484D02*
X4422586Y-9533674D01*
X4422586Y-9533674D02*
X4451158Y-9533674D01*
X4451158Y-9533674D02*
X4470205Y-9543198D01*
X4470205Y-9543198D02*
X4479729Y-9552722D01*
X4479729Y-9552722D02*
X4489253Y-9571770D01*
X4489253Y-9571770D02*
X4489253Y-9619389D01*
X4489253Y-9619389D02*
X4479729Y-9638436D01*
X4479729Y-9638436D02*
X4470205Y-9647960D01*
X4470205Y-9647960D02*
X4451158Y-9657484D01*
X4451158Y-9657484D02*
X4394015Y-9657484D01*
X4394015Y-9657484D02*
X4374967Y-9647960D01*
X4374967Y-9647960D02*
X4365444Y-9638436D01*
X4613063Y-9457484D02*
X4632110Y-9457484D01*
X4632110Y-9457484D02*
X4651158Y-9467008D01*
X4651158Y-9467008D02*
X4660682Y-9476531D01*
X4660682Y-9476531D02*
X4670205Y-9495579D01*
X4670205Y-9495579D02*
X4679729Y-9533674D01*
X4679729Y-9533674D02*
X4679729Y-9581293D01*
X4679729Y-9581293D02*
X4670205Y-9619389D01*
X4670205Y-9619389D02*
X4660682Y-9638436D01*
X4660682Y-9638436D02*
X4651158Y-9647960D01*
X4651158Y-9647960D02*
X4632110Y-9657484D01*
X4632110Y-9657484D02*
X4613063Y-9657484D01*
X4613063Y-9657484D02*
X4594015Y-9647960D01*
X4594015Y-9647960D02*
X4584491Y-9638436D01*
X4584491Y-9638436D02*
X4574967Y-9619389D01*
X4574967Y-9619389D02*
X4565444Y-9581293D01*
X4565444Y-9581293D02*
X4565444Y-9533674D01*
X4565444Y-9533674D02*
X4574967Y-9495579D01*
X4574967Y-9495579D02*
X4584491Y-9476531D01*
X4584491Y-9476531D02*
X4594015Y-9467008D01*
X4594015Y-9467008D02*
X4613063Y-9457484D01*
X4803539Y-9457484D02*
X4822586Y-9457484D01*
X4822586Y-9457484D02*
X4841634Y-9467008D01*
X4841634Y-9467008D02*
X4851158Y-9476531D01*
X4851158Y-9476531D02*
X4860682Y-9495579D01*
X4860682Y-9495579D02*
X4870205Y-9533674D01*
X4870205Y-9533674D02*
X4870205Y-9581293D01*
X4870205Y-9581293D02*
X4860682Y-9619389D01*
X4860682Y-9619389D02*
X4851158Y-9638436D01*
X4851158Y-9638436D02*
X4841634Y-9647960D01*
X4841634Y-9647960D02*
X4822586Y-9657484D01*
X4822586Y-9657484D02*
X4803539Y-9657484D01*
X4803539Y-9657484D02*
X4784491Y-9647960D01*
X4784491Y-9647960D02*
X4774967Y-9638436D01*
X4774967Y-9638436D02*
X4765444Y-9619389D01*
X4765444Y-9619389D02*
X4755920Y-9581293D01*
X4755920Y-9581293D02*
X4755920Y-9533674D01*
X4755920Y-9533674D02*
X4765444Y-9495579D01*
X4765444Y-9495579D02*
X4774967Y-9476531D01*
X4774967Y-9476531D02*
X4784491Y-9467008D01*
X4784491Y-9467008D02*
X4803539Y-9457484D01*
X4955920Y-9657484D02*
X4955920Y-9524150D01*
X4955920Y-9543198D02*
X4965444Y-9533674D01*
X4965444Y-9533674D02*
X4984491Y-9524150D01*
X4984491Y-9524150D02*
X5013063Y-9524150D01*
X5013063Y-9524150D02*
X5032110Y-9533674D01*
X5032110Y-9533674D02*
X5041634Y-9552722D01*
X5041634Y-9552722D02*
X5041634Y-9657484D01*
X5041634Y-9552722D02*
X5051158Y-9533674D01*
X5051158Y-9533674D02*
X5070205Y-9524150D01*
X5070205Y-9524150D02*
X5098777Y-9524150D01*
X5098777Y-9524150D02*
X5117825Y-9533674D01*
X5117825Y-9533674D02*
X5127348Y-9552722D01*
X5127348Y-9552722D02*
X5127348Y-9657484D01*
X5222586Y-9657484D02*
X5222586Y-9524150D01*
X5222586Y-9543198D02*
X5232110Y-9533674D01*
X5232110Y-9533674D02*
X5251158Y-9524150D01*
X5251158Y-9524150D02*
X5279729Y-9524150D01*
X5279729Y-9524150D02*
X5298777Y-9533674D01*
X5298777Y-9533674D02*
X5308301Y-9552722D01*
X5308301Y-9552722D02*
X5308301Y-9657484D01*
X5308301Y-9552722D02*
X5317825Y-9533674D01*
X5317825Y-9533674D02*
X5336872Y-9524150D01*
X5336872Y-9524150D02*
X5365444Y-9524150D01*
X5365444Y-9524150D02*
X5384491Y-9533674D01*
X5384491Y-9533674D02*
X5394015Y-9552722D01*
X5394015Y-9552722D02*
X5394015Y-9657484D01*
X5784491Y-9447960D02*
X5613063Y-9705103D01*
X6041634Y-9457484D02*
X6060682Y-9457484D01*
X6060682Y-9457484D02*
X6079729Y-9467008D01*
X6079729Y-9467008D02*
X6089253Y-9476531D01*
X6089253Y-9476531D02*
X6098777Y-9495579D01*
X6098777Y-9495579D02*
X6108301Y-9533674D01*
X6108301Y-9533674D02*
X6108301Y-9581293D01*
X6108301Y-9581293D02*
X6098777Y-9619389D01*
X6098777Y-9619389D02*
X6089253Y-9638436D01*
X6089253Y-9638436D02*
X6079729Y-9647960D01*
X6079729Y-9647960D02*
X6060682Y-9657484D01*
X6060682Y-9657484D02*
X6041634Y-9657484D01*
X6041634Y-9657484D02*
X6022586Y-9647960D01*
X6022586Y-9647960D02*
X6013063Y-9638436D01*
X6013063Y-9638436D02*
X6003539Y-9619389D01*
X6003539Y-9619389D02*
X5994015Y-9581293D01*
X5994015Y-9581293D02*
X5994015Y-9533674D01*
X5994015Y-9533674D02*
X6003539Y-9495579D01*
X6003539Y-9495579D02*
X6013063Y-9476531D01*
X6013063Y-9476531D02*
X6022586Y-9467008D01*
X6022586Y-9467008D02*
X6041634Y-9457484D01*
X6194015Y-9638436D02*
X6203539Y-9647960D01*
X6203539Y-9647960D02*
X6194015Y-9657484D01*
X6194015Y-9657484D02*
X6184491Y-9647960D01*
X6184491Y-9647960D02*
X6194015Y-9638436D01*
X6194015Y-9638436D02*
X6194015Y-9657484D01*
X6327348Y-9457484D02*
X6346396Y-9457484D01*
X6346396Y-9457484D02*
X6365444Y-9467008D01*
X6365444Y-9467008D02*
X6374967Y-9476531D01*
X6374967Y-9476531D02*
X6384491Y-9495579D01*
X6384491Y-9495579D02*
X6394015Y-9533674D01*
X6394015Y-9533674D02*
X6394015Y-9581293D01*
X6394015Y-9581293D02*
X6384491Y-9619389D01*
X6384491Y-9619389D02*
X6374967Y-9638436D01*
X6374967Y-9638436D02*
X6365444Y-9647960D01*
X6365444Y-9647960D02*
X6346396Y-9657484D01*
X6346396Y-9657484D02*
X6327348Y-9657484D01*
X6327348Y-9657484D02*
X6308301Y-9647960D01*
X6308301Y-9647960D02*
X6298777Y-9638436D01*
X6298777Y-9638436D02*
X6289253Y-9619389D01*
X6289253Y-9619389D02*
X6279729Y-9581293D01*
X6279729Y-9581293D02*
X6279729Y-9533674D01*
X6279729Y-9533674D02*
X6289253Y-9495579D01*
X6289253Y-9495579D02*
X6298777Y-9476531D01*
X6298777Y-9476531D02*
X6308301Y-9467008D01*
X6308301Y-9467008D02*
X6327348Y-9457484D01*
X6584491Y-9657484D02*
X6470206Y-9657484D01*
X6527348Y-9657484D02*
X6527348Y-9457484D01*
X6527348Y-9457484D02*
X6508301Y-9486055D01*
X6508301Y-9486055D02*
X6489253Y-9505103D01*
X6489253Y-9505103D02*
X6470206Y-9514627D01*
X6774967Y-9657484D02*
X6660682Y-9657484D01*
X6717825Y-9657484D02*
X6717825Y-9457484D01*
X6717825Y-9457484D02*
X6698777Y-9486055D01*
X6698777Y-9486055D02*
X6679729Y-9505103D01*
X6679729Y-9505103D02*
X6660682Y-9514627D01*
X6889253Y-9543198D02*
X6870206Y-9533674D01*
X6870206Y-9533674D02*
X6860682Y-9524150D01*
X6860682Y-9524150D02*
X6851158Y-9505103D01*
X6851158Y-9505103D02*
X6851158Y-9495579D01*
X6851158Y-9495579D02*
X6860682Y-9476531D01*
X6860682Y-9476531D02*
X6870206Y-9467008D01*
X6870206Y-9467008D02*
X6889253Y-9457484D01*
X6889253Y-9457484D02*
X6927348Y-9457484D01*
X6927348Y-9457484D02*
X6946396Y-9467008D01*
X6946396Y-9467008D02*
X6955920Y-9476531D01*
X6955920Y-9476531D02*
X6965444Y-9495579D01*
X6965444Y-9495579D02*
X6965444Y-9505103D01*
X6965444Y-9505103D02*
X6955920Y-9524150D01*
X6955920Y-9524150D02*
X6946396Y-9533674D01*
X6946396Y-9533674D02*
X6927348Y-9543198D01*
X6927348Y-9543198D02*
X6889253Y-9543198D01*
X6889253Y-9543198D02*
X6870206Y-9552722D01*
X6870206Y-9552722D02*
X6860682Y-9562246D01*
X6860682Y-9562246D02*
X6851158Y-9581293D01*
X6851158Y-9581293D02*
X6851158Y-9619389D01*
X6851158Y-9619389D02*
X6860682Y-9638436D01*
X6860682Y-9638436D02*
X6870206Y-9647960D01*
X6870206Y-9647960D02*
X6889253Y-9657484D01*
X6889253Y-9657484D02*
X6927348Y-9657484D01*
X6927348Y-9657484D02*
X6946396Y-9647960D01*
X6946396Y-9647960D02*
X6955920Y-9638436D01*
X6955920Y-9638436D02*
X6965444Y-9619389D01*
X6965444Y-9619389D02*
X6965444Y-9581293D01*
X6965444Y-9581293D02*
X6955920Y-9562246D01*
X6955920Y-9562246D02*
X6946396Y-9552722D01*
X6946396Y-9552722D02*
X6927348Y-9543198D01*
X7041634Y-9457484D02*
X7041634Y-9495579D01*
X7117825Y-9457484D02*
X7117825Y-9495579D01*
X7413063Y-9733674D02*
X7403539Y-9724150D01*
X7403539Y-9724150D02*
X7384491Y-9695579D01*
X7384491Y-9695579D02*
X7374968Y-9676531D01*
X7374968Y-9676531D02*
X7365444Y-9647960D01*
X7365444Y-9647960D02*
X7355920Y-9600341D01*
X7355920Y-9600341D02*
X7355920Y-9562246D01*
X7355920Y-9562246D02*
X7365444Y-9514627D01*
X7365444Y-9514627D02*
X7374968Y-9486055D01*
X7374968Y-9486055D02*
X7384491Y-9467008D01*
X7384491Y-9467008D02*
X7403539Y-9438436D01*
X7403539Y-9438436D02*
X7413063Y-9428912D01*
X7498777Y-9657484D02*
X7536872Y-9657484D01*
X7536872Y-9657484D02*
X7555920Y-9647960D01*
X7555920Y-9647960D02*
X7565444Y-9638436D01*
X7565444Y-9638436D02*
X7584491Y-9609865D01*
X7584491Y-9609865D02*
X7594015Y-9571770D01*
X7594015Y-9571770D02*
X7594015Y-9495579D01*
X7594015Y-9495579D02*
X7584491Y-9476531D01*
X7584491Y-9476531D02*
X7574968Y-9467008D01*
X7574968Y-9467008D02*
X7555920Y-9457484D01*
X7555920Y-9457484D02*
X7517825Y-9457484D01*
X7517825Y-9457484D02*
X7498777Y-9467008D01*
X7498777Y-9467008D02*
X7489253Y-9476531D01*
X7489253Y-9476531D02*
X7479729Y-9495579D01*
X7479729Y-9495579D02*
X7479729Y-9543198D01*
X7479729Y-9543198D02*
X7489253Y-9562246D01*
X7489253Y-9562246D02*
X7498777Y-9571770D01*
X7498777Y-9571770D02*
X7517825Y-9581293D01*
X7517825Y-9581293D02*
X7555920Y-9581293D01*
X7555920Y-9581293D02*
X7574968Y-9571770D01*
X7574968Y-9571770D02*
X7584491Y-9562246D01*
X7584491Y-9562246D02*
X7594015Y-9543198D01*
X7717825Y-9457484D02*
X7736872Y-9457484D01*
X7736872Y-9457484D02*
X7755920Y-9467008D01*
X7755920Y-9467008D02*
X7765444Y-9476531D01*
X7765444Y-9476531D02*
X7774968Y-9495579D01*
X7774968Y-9495579D02*
X7784491Y-9533674D01*
X7784491Y-9533674D02*
X7784491Y-9581293D01*
X7784491Y-9581293D02*
X7774968Y-9619389D01*
X7774968Y-9619389D02*
X7765444Y-9638436D01*
X7765444Y-9638436D02*
X7755920Y-9647960D01*
X7755920Y-9647960D02*
X7736872Y-9657484D01*
X7736872Y-9657484D02*
X7717825Y-9657484D01*
X7717825Y-9657484D02*
X7698777Y-9647960D01*
X7698777Y-9647960D02*
X7689253Y-9638436D01*
X7689253Y-9638436D02*
X7679729Y-9619389D01*
X7679729Y-9619389D02*
X7670206Y-9581293D01*
X7670206Y-9581293D02*
X7670206Y-9533674D01*
X7670206Y-9533674D02*
X7679729Y-9495579D01*
X7679729Y-9495579D02*
X7689253Y-9476531D01*
X7689253Y-9476531D02*
X7698777Y-9467008D01*
X7698777Y-9467008D02*
X7717825Y-9457484D01*
X8022587Y-9657484D02*
X8022587Y-9457484D01*
X8108301Y-9657484D02*
X8108301Y-9552722D01*
X8108301Y-9552722D02*
X8098777Y-9533674D01*
X8098777Y-9533674D02*
X8079730Y-9524150D01*
X8079730Y-9524150D02*
X8051158Y-9524150D01*
X8051158Y-9524150D02*
X8032110Y-9533674D01*
X8032110Y-9533674D02*
X8022587Y-9543198D01*
X8232110Y-9657484D02*
X8213063Y-9647960D01*
X8213063Y-9647960D02*
X8203539Y-9638436D01*
X8203539Y-9638436D02*
X8194015Y-9619389D01*
X8194015Y-9619389D02*
X8194015Y-9562246D01*
X8194015Y-9562246D02*
X8203539Y-9543198D01*
X8203539Y-9543198D02*
X8213063Y-9533674D01*
X8213063Y-9533674D02*
X8232110Y-9524150D01*
X8232110Y-9524150D02*
X8260682Y-9524150D01*
X8260682Y-9524150D02*
X8279730Y-9533674D01*
X8279730Y-9533674D02*
X8289253Y-9543198D01*
X8289253Y-9543198D02*
X8298777Y-9562246D01*
X8298777Y-9562246D02*
X8298777Y-9619389D01*
X8298777Y-9619389D02*
X8289253Y-9638436D01*
X8289253Y-9638436D02*
X8279730Y-9647960D01*
X8279730Y-9647960D02*
X8260682Y-9657484D01*
X8260682Y-9657484D02*
X8232110Y-9657484D01*
X8413063Y-9657484D02*
X8394015Y-9647960D01*
X8394015Y-9647960D02*
X8384491Y-9628912D01*
X8384491Y-9628912D02*
X8384491Y-9457484D01*
X8565444Y-9647960D02*
X8546396Y-9657484D01*
X8546396Y-9657484D02*
X8508301Y-9657484D01*
X8508301Y-9657484D02*
X8489253Y-9647960D01*
X8489253Y-9647960D02*
X8479730Y-9628912D01*
X8479730Y-9628912D02*
X8479730Y-9552722D01*
X8479730Y-9552722D02*
X8489253Y-9533674D01*
X8489253Y-9533674D02*
X8508301Y-9524150D01*
X8508301Y-9524150D02*
X8546396Y-9524150D01*
X8546396Y-9524150D02*
X8565444Y-9533674D01*
X8565444Y-9533674D02*
X8574968Y-9552722D01*
X8574968Y-9552722D02*
X8574968Y-9571770D01*
X8574968Y-9571770D02*
X8479730Y-9590817D01*
X8651158Y-9647960D02*
X8670206Y-9657484D01*
X8670206Y-9657484D02*
X8708301Y-9657484D01*
X8708301Y-9657484D02*
X8727349Y-9647960D01*
X8727349Y-9647960D02*
X8736873Y-9628912D01*
X8736873Y-9628912D02*
X8736873Y-9619389D01*
X8736873Y-9619389D02*
X8727349Y-9600341D01*
X8727349Y-9600341D02*
X8708301Y-9590817D01*
X8708301Y-9590817D02*
X8679730Y-9590817D01*
X8679730Y-9590817D02*
X8660682Y-9581293D01*
X8660682Y-9581293D02*
X8651158Y-9562246D01*
X8651158Y-9562246D02*
X8651158Y-9552722D01*
X8651158Y-9552722D02*
X8660682Y-9533674D01*
X8660682Y-9533674D02*
X8679730Y-9524150D01*
X8679730Y-9524150D02*
X8708301Y-9524150D01*
X8708301Y-9524150D02*
X8727349Y-9533674D01*
X8803539Y-9733674D02*
X8813063Y-9724150D01*
X8813063Y-9724150D02*
X8832111Y-9695579D01*
X8832111Y-9695579D02*
X8841634Y-9676531D01*
X8841634Y-9676531D02*
X8851158Y-9647960D01*
X8851158Y-9647960D02*
X8860682Y-9600341D01*
X8860682Y-9600341D02*
X8860682Y-9562246D01*
X8860682Y-9562246D02*
X8851158Y-9514627D01*
X8851158Y-9514627D02*
X8841634Y-9486055D01*
X8841634Y-9486055D02*
X8832111Y-9467008D01*
X8832111Y-9467008D02*
X8813063Y-9438436D01*
X8813063Y-9438436D02*
X8803539Y-9428912D01*
D13*
X3838000Y-9830000D02*
G75*
G02*
X3808000Y-9830000I-15000J0D01*
G01*
X3808000Y-9830000D02*
G75*
G02*
X3838000Y-9830000I15000J0D01*
G01*
D12*
X4136872Y-9721484D02*
X4155920Y-9721484D01*
X4155920Y-9721484D02*
X4174967Y-9731008D01*
X4174967Y-9731008D02*
X4184491Y-9740531D01*
X4184491Y-9740531D02*
X4194015Y-9759579D01*
X4194015Y-9759579D02*
X4203539Y-9797674D01*
X4203539Y-9797674D02*
X4203539Y-9845293D01*
X4203539Y-9845293D02*
X4194015Y-9883389D01*
X4194015Y-9883389D02*
X4184491Y-9902436D01*
X4184491Y-9902436D02*
X4174967Y-9911960D01*
X4174967Y-9911960D02*
X4155920Y-9921484D01*
X4155920Y-9921484D02*
X4136872Y-9921484D01*
X4136872Y-9921484D02*
X4117824Y-9911960D01*
X4117824Y-9911960D02*
X4108301Y-9902436D01*
X4108301Y-9902436D02*
X4098777Y-9883389D01*
X4098777Y-9883389D02*
X4089253Y-9845293D01*
X4089253Y-9845293D02*
X4089253Y-9797674D01*
X4089253Y-9797674D02*
X4098777Y-9759579D01*
X4098777Y-9759579D02*
X4108301Y-9740531D01*
X4108301Y-9740531D02*
X4117824Y-9731008D01*
X4117824Y-9731008D02*
X4136872Y-9721484D01*
X4289253Y-9902436D02*
X4298777Y-9911960D01*
X4298777Y-9911960D02*
X4289253Y-9921484D01*
X4289253Y-9921484D02*
X4279729Y-9911960D01*
X4279729Y-9911960D02*
X4289253Y-9902436D01*
X4289253Y-9902436D02*
X4289253Y-9921484D01*
X4365444Y-9721484D02*
X4489253Y-9721484D01*
X4489253Y-9721484D02*
X4422586Y-9797674D01*
X4422586Y-9797674D02*
X4451158Y-9797674D01*
X4451158Y-9797674D02*
X4470205Y-9807198D01*
X4470205Y-9807198D02*
X4479729Y-9816722D01*
X4479729Y-9816722D02*
X4489253Y-9835770D01*
X4489253Y-9835770D02*
X4489253Y-9883389D01*
X4489253Y-9883389D02*
X4479729Y-9902436D01*
X4479729Y-9902436D02*
X4470205Y-9911960D01*
X4470205Y-9911960D02*
X4451158Y-9921484D01*
X4451158Y-9921484D02*
X4394015Y-9921484D01*
X4394015Y-9921484D02*
X4374967Y-9911960D01*
X4374967Y-9911960D02*
X4365444Y-9902436D01*
X4613063Y-9721484D02*
X4632110Y-9721484D01*
X4632110Y-9721484D02*
X4651158Y-9731008D01*
X4651158Y-9731008D02*
X4660682Y-9740531D01*
X4660682Y-9740531D02*
X4670205Y-9759579D01*
X4670205Y-9759579D02*
X4679729Y-9797674D01*
X4679729Y-9797674D02*
X4679729Y-9845293D01*
X4679729Y-9845293D02*
X4670205Y-9883389D01*
X4670205Y-9883389D02*
X4660682Y-9902436D01*
X4660682Y-9902436D02*
X4651158Y-9911960D01*
X4651158Y-9911960D02*
X4632110Y-9921484D01*
X4632110Y-9921484D02*
X4613063Y-9921484D01*
X4613063Y-9921484D02*
X4594015Y-9911960D01*
X4594015Y-9911960D02*
X4584491Y-9902436D01*
X4584491Y-9902436D02*
X4574967Y-9883389D01*
X4574967Y-9883389D02*
X4565444Y-9845293D01*
X4565444Y-9845293D02*
X4565444Y-9797674D01*
X4565444Y-9797674D02*
X4574967Y-9759579D01*
X4574967Y-9759579D02*
X4584491Y-9740531D01*
X4584491Y-9740531D02*
X4594015Y-9731008D01*
X4594015Y-9731008D02*
X4613063Y-9721484D01*
X4803539Y-9721484D02*
X4822586Y-9721484D01*
X4822586Y-9721484D02*
X4841634Y-9731008D01*
X4841634Y-9731008D02*
X4851158Y-9740531D01*
X4851158Y-9740531D02*
X4860682Y-9759579D01*
X4860682Y-9759579D02*
X4870205Y-9797674D01*
X4870205Y-9797674D02*
X4870205Y-9845293D01*
X4870205Y-9845293D02*
X4860682Y-9883389D01*
X4860682Y-9883389D02*
X4851158Y-9902436D01*
X4851158Y-9902436D02*
X4841634Y-9911960D01*
X4841634Y-9911960D02*
X4822586Y-9921484D01*
X4822586Y-9921484D02*
X4803539Y-9921484D01*
X4803539Y-9921484D02*
X4784491Y-9911960D01*
X4784491Y-9911960D02*
X4774967Y-9902436D01*
X4774967Y-9902436D02*
X4765444Y-9883389D01*
X4765444Y-9883389D02*
X4755920Y-9845293D01*
X4755920Y-9845293D02*
X4755920Y-9797674D01*
X4755920Y-9797674D02*
X4765444Y-9759579D01*
X4765444Y-9759579D02*
X4774967Y-9740531D01*
X4774967Y-9740531D02*
X4784491Y-9731008D01*
X4784491Y-9731008D02*
X4803539Y-9721484D01*
X4955920Y-9921484D02*
X4955920Y-9788150D01*
X4955920Y-9807198D02*
X4965444Y-9797674D01*
X4965444Y-9797674D02*
X4984491Y-9788150D01*
X4984491Y-9788150D02*
X5013063Y-9788150D01*
X5013063Y-9788150D02*
X5032110Y-9797674D01*
X5032110Y-9797674D02*
X5041634Y-9816722D01*
X5041634Y-9816722D02*
X5041634Y-9921484D01*
X5041634Y-9816722D02*
X5051158Y-9797674D01*
X5051158Y-9797674D02*
X5070205Y-9788150D01*
X5070205Y-9788150D02*
X5098777Y-9788150D01*
X5098777Y-9788150D02*
X5117825Y-9797674D01*
X5117825Y-9797674D02*
X5127348Y-9816722D01*
X5127348Y-9816722D02*
X5127348Y-9921484D01*
X5222586Y-9921484D02*
X5222586Y-9788150D01*
X5222586Y-9807198D02*
X5232110Y-9797674D01*
X5232110Y-9797674D02*
X5251158Y-9788150D01*
X5251158Y-9788150D02*
X5279729Y-9788150D01*
X5279729Y-9788150D02*
X5298777Y-9797674D01*
X5298777Y-9797674D02*
X5308301Y-9816722D01*
X5308301Y-9816722D02*
X5308301Y-9921484D01*
X5308301Y-9816722D02*
X5317825Y-9797674D01*
X5317825Y-9797674D02*
X5336872Y-9788150D01*
X5336872Y-9788150D02*
X5365444Y-9788150D01*
X5365444Y-9788150D02*
X5384491Y-9797674D01*
X5384491Y-9797674D02*
X5394015Y-9816722D01*
X5394015Y-9816722D02*
X5394015Y-9921484D01*
X5784491Y-9711960D02*
X5613063Y-9969103D01*
X6041634Y-9721484D02*
X6060682Y-9721484D01*
X6060682Y-9721484D02*
X6079729Y-9731008D01*
X6079729Y-9731008D02*
X6089253Y-9740531D01*
X6089253Y-9740531D02*
X6098777Y-9759579D01*
X6098777Y-9759579D02*
X6108301Y-9797674D01*
X6108301Y-9797674D02*
X6108301Y-9845293D01*
X6108301Y-9845293D02*
X6098777Y-9883389D01*
X6098777Y-9883389D02*
X6089253Y-9902436D01*
X6089253Y-9902436D02*
X6079729Y-9911960D01*
X6079729Y-9911960D02*
X6060682Y-9921484D01*
X6060682Y-9921484D02*
X6041634Y-9921484D01*
X6041634Y-9921484D02*
X6022586Y-9911960D01*
X6022586Y-9911960D02*
X6013063Y-9902436D01*
X6013063Y-9902436D02*
X6003539Y-9883389D01*
X6003539Y-9883389D02*
X5994015Y-9845293D01*
X5994015Y-9845293D02*
X5994015Y-9797674D01*
X5994015Y-9797674D02*
X6003539Y-9759579D01*
X6003539Y-9759579D02*
X6013063Y-9740531D01*
X6013063Y-9740531D02*
X6022586Y-9731008D01*
X6022586Y-9731008D02*
X6041634Y-9721484D01*
X6194015Y-9902436D02*
X6203539Y-9911960D01*
X6203539Y-9911960D02*
X6194015Y-9921484D01*
X6194015Y-9921484D02*
X6184491Y-9911960D01*
X6184491Y-9911960D02*
X6194015Y-9902436D01*
X6194015Y-9902436D02*
X6194015Y-9921484D01*
X6327348Y-9721484D02*
X6346396Y-9721484D01*
X6346396Y-9721484D02*
X6365444Y-9731008D01*
X6365444Y-9731008D02*
X6374967Y-9740531D01*
X6374967Y-9740531D02*
X6384491Y-9759579D01*
X6384491Y-9759579D02*
X6394015Y-9797674D01*
X6394015Y-9797674D02*
X6394015Y-9845293D01*
X6394015Y-9845293D02*
X6384491Y-9883389D01*
X6384491Y-9883389D02*
X6374967Y-9902436D01*
X6374967Y-9902436D02*
X6365444Y-9911960D01*
X6365444Y-9911960D02*
X6346396Y-9921484D01*
X6346396Y-9921484D02*
X6327348Y-9921484D01*
X6327348Y-9921484D02*
X6308301Y-9911960D01*
X6308301Y-9911960D02*
X6298777Y-9902436D01*
X6298777Y-9902436D02*
X6289253Y-9883389D01*
X6289253Y-9883389D02*
X6279729Y-9845293D01*
X6279729Y-9845293D02*
X6279729Y-9797674D01*
X6279729Y-9797674D02*
X6289253Y-9759579D01*
X6289253Y-9759579D02*
X6298777Y-9740531D01*
X6298777Y-9740531D02*
X6308301Y-9731008D01*
X6308301Y-9731008D02*
X6327348Y-9721484D01*
X6584491Y-9921484D02*
X6470206Y-9921484D01*
X6527348Y-9921484D02*
X6527348Y-9721484D01*
X6527348Y-9721484D02*
X6508301Y-9750055D01*
X6508301Y-9750055D02*
X6489253Y-9769103D01*
X6489253Y-9769103D02*
X6470206Y-9778627D01*
X6774967Y-9921484D02*
X6660682Y-9921484D01*
X6717825Y-9921484D02*
X6717825Y-9721484D01*
X6717825Y-9721484D02*
X6698777Y-9750055D01*
X6698777Y-9750055D02*
X6679729Y-9769103D01*
X6679729Y-9769103D02*
X6660682Y-9778627D01*
X6889253Y-9807198D02*
X6870206Y-9797674D01*
X6870206Y-9797674D02*
X6860682Y-9788150D01*
X6860682Y-9788150D02*
X6851158Y-9769103D01*
X6851158Y-9769103D02*
X6851158Y-9759579D01*
X6851158Y-9759579D02*
X6860682Y-9740531D01*
X6860682Y-9740531D02*
X6870206Y-9731008D01*
X6870206Y-9731008D02*
X6889253Y-9721484D01*
X6889253Y-9721484D02*
X6927348Y-9721484D01*
X6927348Y-9721484D02*
X6946396Y-9731008D01*
X6946396Y-9731008D02*
X6955920Y-9740531D01*
X6955920Y-9740531D02*
X6965444Y-9759579D01*
X6965444Y-9759579D02*
X6965444Y-9769103D01*
X6965444Y-9769103D02*
X6955920Y-9788150D01*
X6955920Y-9788150D02*
X6946396Y-9797674D01*
X6946396Y-9797674D02*
X6927348Y-9807198D01*
X6927348Y-9807198D02*
X6889253Y-9807198D01*
X6889253Y-9807198D02*
X6870206Y-9816722D01*
X6870206Y-9816722D02*
X6860682Y-9826246D01*
X6860682Y-9826246D02*
X6851158Y-9845293D01*
X6851158Y-9845293D02*
X6851158Y-9883389D01*
X6851158Y-9883389D02*
X6860682Y-9902436D01*
X6860682Y-9902436D02*
X6870206Y-9911960D01*
X6870206Y-9911960D02*
X6889253Y-9921484D01*
X6889253Y-9921484D02*
X6927348Y-9921484D01*
X6927348Y-9921484D02*
X6946396Y-9911960D01*
X6946396Y-9911960D02*
X6955920Y-9902436D01*
X6955920Y-9902436D02*
X6965444Y-9883389D01*
X6965444Y-9883389D02*
X6965444Y-9845293D01*
X6965444Y-9845293D02*
X6955920Y-9826246D01*
X6955920Y-9826246D02*
X6946396Y-9816722D01*
X6946396Y-9816722D02*
X6927348Y-9807198D01*
X7041634Y-9721484D02*
X7041634Y-9759579D01*
X7117825Y-9721484D02*
X7117825Y-9759579D01*
X7413063Y-9997674D02*
X7403539Y-9988150D01*
X7403539Y-9988150D02*
X7384491Y-9959579D01*
X7384491Y-9959579D02*
X7374968Y-9940531D01*
X7374968Y-9940531D02*
X7365444Y-9911960D01*
X7365444Y-9911960D02*
X7355920Y-9864341D01*
X7355920Y-9864341D02*
X7355920Y-9826246D01*
X7355920Y-9826246D02*
X7365444Y-9778627D01*
X7365444Y-9778627D02*
X7374968Y-9750055D01*
X7374968Y-9750055D02*
X7384491Y-9731008D01*
X7384491Y-9731008D02*
X7403539Y-9702436D01*
X7403539Y-9702436D02*
X7413063Y-9692912D01*
X7584491Y-9721484D02*
X7489253Y-9721484D01*
X7489253Y-9721484D02*
X7479729Y-9816722D01*
X7479729Y-9816722D02*
X7489253Y-9807198D01*
X7489253Y-9807198D02*
X7508301Y-9797674D01*
X7508301Y-9797674D02*
X7555920Y-9797674D01*
X7555920Y-9797674D02*
X7574968Y-9807198D01*
X7574968Y-9807198D02*
X7584491Y-9816722D01*
X7584491Y-9816722D02*
X7594015Y-9835770D01*
X7594015Y-9835770D02*
X7594015Y-9883389D01*
X7594015Y-9883389D02*
X7584491Y-9902436D01*
X7584491Y-9902436D02*
X7574968Y-9911960D01*
X7574968Y-9911960D02*
X7555920Y-9921484D01*
X7555920Y-9921484D02*
X7508301Y-9921484D01*
X7508301Y-9921484D02*
X7489253Y-9911960D01*
X7489253Y-9911960D02*
X7479729Y-9902436D01*
X7774968Y-9721484D02*
X7679729Y-9721484D01*
X7679729Y-9721484D02*
X7670206Y-9816722D01*
X7670206Y-9816722D02*
X7679729Y-9807198D01*
X7679729Y-9807198D02*
X7698777Y-9797674D01*
X7698777Y-9797674D02*
X7746396Y-9797674D01*
X7746396Y-9797674D02*
X7765444Y-9807198D01*
X7765444Y-9807198D02*
X7774968Y-9816722D01*
X7774968Y-9816722D02*
X7784491Y-9835770D01*
X7784491Y-9835770D02*
X7784491Y-9883389D01*
X7784491Y-9883389D02*
X7774968Y-9902436D01*
X7774968Y-9902436D02*
X7765444Y-9911960D01*
X7765444Y-9911960D02*
X7746396Y-9921484D01*
X7746396Y-9921484D02*
X7698777Y-9921484D01*
X7698777Y-9921484D02*
X7679729Y-9911960D01*
X7679729Y-9911960D02*
X7670206Y-9902436D01*
X7860682Y-9740531D02*
X7870206Y-9731008D01*
X7870206Y-9731008D02*
X7889253Y-9721484D01*
X7889253Y-9721484D02*
X7936872Y-9721484D01*
X7936872Y-9721484D02*
X7955920Y-9731008D01*
X7955920Y-9731008D02*
X7965444Y-9740531D01*
X7965444Y-9740531D02*
X7974968Y-9759579D01*
X7974968Y-9759579D02*
X7974968Y-9778627D01*
X7974968Y-9778627D02*
X7965444Y-9807198D01*
X7965444Y-9807198D02*
X7851158Y-9921484D01*
X7851158Y-9921484D02*
X7974968Y-9921484D01*
X8213063Y-9921484D02*
X8213063Y-9721484D01*
X8298777Y-9921484D02*
X8298777Y-9816722D01*
X8298777Y-9816722D02*
X8289253Y-9797674D01*
X8289253Y-9797674D02*
X8270206Y-9788150D01*
X8270206Y-9788150D02*
X8241634Y-9788150D01*
X8241634Y-9788150D02*
X8222587Y-9797674D01*
X8222587Y-9797674D02*
X8213063Y-9807198D01*
X8422587Y-9921484D02*
X8403539Y-9911960D01*
X8403539Y-9911960D02*
X8394015Y-9902436D01*
X8394015Y-9902436D02*
X8384491Y-9883389D01*
X8384491Y-9883389D02*
X8384491Y-9826246D01*
X8384491Y-9826246D02*
X8394015Y-9807198D01*
X8394015Y-9807198D02*
X8403539Y-9797674D01*
X8403539Y-9797674D02*
X8422587Y-9788150D01*
X8422587Y-9788150D02*
X8451158Y-9788150D01*
X8451158Y-9788150D02*
X8470206Y-9797674D01*
X8470206Y-9797674D02*
X8479730Y-9807198D01*
X8479730Y-9807198D02*
X8489253Y-9826246D01*
X8489253Y-9826246D02*
X8489253Y-9883389D01*
X8489253Y-9883389D02*
X8479730Y-9902436D01*
X8479730Y-9902436D02*
X8470206Y-9911960D01*
X8470206Y-9911960D02*
X8451158Y-9921484D01*
X8451158Y-9921484D02*
X8422587Y-9921484D01*
X8603539Y-9921484D02*
X8584492Y-9911960D01*
X8584492Y-9911960D02*
X8574968Y-9892912D01*
X8574968Y-9892912D02*
X8574968Y-9721484D01*
X8755920Y-9911960D02*
X8736873Y-9921484D01*
X8736873Y-9921484D02*
X8698777Y-9921484D01*
X8698777Y-9921484D02*
X8679730Y-9911960D01*
X8679730Y-9911960D02*
X8670206Y-9892912D01*
X8670206Y-9892912D02*
X8670206Y-9816722D01*
X8670206Y-9816722D02*
X8679730Y-9797674D01*
X8679730Y-9797674D02*
X8698777Y-9788150D01*
X8698777Y-9788150D02*
X8736873Y-9788150D01*
X8736873Y-9788150D02*
X8755920Y-9797674D01*
X8755920Y-9797674D02*
X8765444Y-9816722D01*
X8765444Y-9816722D02*
X8765444Y-9835770D01*
X8765444Y-9835770D02*
X8670206Y-9854817D01*
X8841634Y-9911960D02*
X8860682Y-9921484D01*
X8860682Y-9921484D02*
X8898777Y-9921484D01*
X8898777Y-9921484D02*
X8917825Y-9911960D01*
X8917825Y-9911960D02*
X8927349Y-9892912D01*
X8927349Y-9892912D02*
X8927349Y-9883389D01*
X8927349Y-9883389D02*
X8917825Y-9864341D01*
X8917825Y-9864341D02*
X8898777Y-9854817D01*
X8898777Y-9854817D02*
X8870206Y-9854817D01*
X8870206Y-9854817D02*
X8851158Y-9845293D01*
X8851158Y-9845293D02*
X8841634Y-9826246D01*
X8841634Y-9826246D02*
X8841634Y-9816722D01*
X8841634Y-9816722D02*
X8851158Y-9797674D01*
X8851158Y-9797674D02*
X8870206Y-9788150D01*
X8870206Y-9788150D02*
X8898777Y-9788150D01*
X8898777Y-9788150D02*
X8917825Y-9797674D01*
X8994015Y-9997674D02*
X9003539Y-9988150D01*
X9003539Y-9988150D02*
X9022587Y-9959579D01*
X9022587Y-9959579D02*
X9032111Y-9940531D01*
X9032111Y-9940531D02*
X9041634Y-9911960D01*
X9041634Y-9911960D02*
X9051158Y-9864341D01*
X9051158Y-9864341D02*
X9051158Y-9826246D01*
X9051158Y-9826246D02*
X9041634Y-9778627D01*
X9041634Y-9778627D02*
X9032111Y-9750055D01*
X9032111Y-9750055D02*
X9022587Y-9731008D01*
X9022587Y-9731008D02*
X9003539Y-9702436D01*
X9003539Y-9702436D02*
X8994015Y-9692912D01*
D13*
X3800500Y-10056500D02*
X3800500Y-10131500D01*
X3763000Y-10094000D02*
X3838000Y-10094000D01*
D12*
X4136872Y-9985484D02*
X4155920Y-9985484D01*
X4155920Y-9985484D02*
X4174967Y-9995008D01*
X4174967Y-9995008D02*
X4184491Y-10004531D01*
X4184491Y-10004531D02*
X4194015Y-10023579D01*
X4194015Y-10023579D02*
X4203539Y-10061674D01*
X4203539Y-10061674D02*
X4203539Y-10109293D01*
X4203539Y-10109293D02*
X4194015Y-10147389D01*
X4194015Y-10147389D02*
X4184491Y-10166436D01*
X4184491Y-10166436D02*
X4174967Y-10175960D01*
X4174967Y-10175960D02*
X4155920Y-10185484D01*
X4155920Y-10185484D02*
X4136872Y-10185484D01*
X4136872Y-10185484D02*
X4117824Y-10175960D01*
X4117824Y-10175960D02*
X4108301Y-10166436D01*
X4108301Y-10166436D02*
X4098777Y-10147389D01*
X4098777Y-10147389D02*
X4089253Y-10109293D01*
X4089253Y-10109293D02*
X4089253Y-10061674D01*
X4089253Y-10061674D02*
X4098777Y-10023579D01*
X4098777Y-10023579D02*
X4108301Y-10004531D01*
X4108301Y-10004531D02*
X4117824Y-9995008D01*
X4117824Y-9995008D02*
X4136872Y-9985484D01*
X4289253Y-10166436D02*
X4298777Y-10175960D01*
X4298777Y-10175960D02*
X4289253Y-10185484D01*
X4289253Y-10185484D02*
X4279729Y-10175960D01*
X4279729Y-10175960D02*
X4289253Y-10166436D01*
X4289253Y-10166436D02*
X4289253Y-10185484D01*
X4365444Y-9985484D02*
X4498777Y-9985484D01*
X4498777Y-9985484D02*
X4413063Y-10185484D01*
X4670205Y-9985484D02*
X4574967Y-9985484D01*
X4574967Y-9985484D02*
X4565444Y-10080722D01*
X4565444Y-10080722D02*
X4574967Y-10071198D01*
X4574967Y-10071198D02*
X4594015Y-10061674D01*
X4594015Y-10061674D02*
X4641634Y-10061674D01*
X4641634Y-10061674D02*
X4660682Y-10071198D01*
X4660682Y-10071198D02*
X4670205Y-10080722D01*
X4670205Y-10080722D02*
X4679729Y-10099770D01*
X4679729Y-10099770D02*
X4679729Y-10147389D01*
X4679729Y-10147389D02*
X4670205Y-10166436D01*
X4670205Y-10166436D02*
X4660682Y-10175960D01*
X4660682Y-10175960D02*
X4641634Y-10185484D01*
X4641634Y-10185484D02*
X4594015Y-10185484D01*
X4594015Y-10185484D02*
X4574967Y-10175960D01*
X4574967Y-10175960D02*
X4565444Y-10166436D01*
X4803539Y-9985484D02*
X4822586Y-9985484D01*
X4822586Y-9985484D02*
X4841634Y-9995008D01*
X4841634Y-9995008D02*
X4851158Y-10004531D01*
X4851158Y-10004531D02*
X4860682Y-10023579D01*
X4860682Y-10023579D02*
X4870205Y-10061674D01*
X4870205Y-10061674D02*
X4870205Y-10109293D01*
X4870205Y-10109293D02*
X4860682Y-10147389D01*
X4860682Y-10147389D02*
X4851158Y-10166436D01*
X4851158Y-10166436D02*
X4841634Y-10175960D01*
X4841634Y-10175960D02*
X4822586Y-10185484D01*
X4822586Y-10185484D02*
X4803539Y-10185484D01*
X4803539Y-10185484D02*
X4784491Y-10175960D01*
X4784491Y-10175960D02*
X4774967Y-10166436D01*
X4774967Y-10166436D02*
X4765444Y-10147389D01*
X4765444Y-10147389D02*
X4755920Y-10109293D01*
X4755920Y-10109293D02*
X4755920Y-10061674D01*
X4755920Y-10061674D02*
X4765444Y-10023579D01*
X4765444Y-10023579D02*
X4774967Y-10004531D01*
X4774967Y-10004531D02*
X4784491Y-9995008D01*
X4784491Y-9995008D02*
X4803539Y-9985484D01*
X4955920Y-10185484D02*
X4955920Y-10052150D01*
X4955920Y-10071198D02*
X4965444Y-10061674D01*
X4965444Y-10061674D02*
X4984491Y-10052150D01*
X4984491Y-10052150D02*
X5013063Y-10052150D01*
X5013063Y-10052150D02*
X5032110Y-10061674D01*
X5032110Y-10061674D02*
X5041634Y-10080722D01*
X5041634Y-10080722D02*
X5041634Y-10185484D01*
X5041634Y-10080722D02*
X5051158Y-10061674D01*
X5051158Y-10061674D02*
X5070205Y-10052150D01*
X5070205Y-10052150D02*
X5098777Y-10052150D01*
X5098777Y-10052150D02*
X5117825Y-10061674D01*
X5117825Y-10061674D02*
X5127348Y-10080722D01*
X5127348Y-10080722D02*
X5127348Y-10185484D01*
X5222586Y-10185484D02*
X5222586Y-10052150D01*
X5222586Y-10071198D02*
X5232110Y-10061674D01*
X5232110Y-10061674D02*
X5251158Y-10052150D01*
X5251158Y-10052150D02*
X5279729Y-10052150D01*
X5279729Y-10052150D02*
X5298777Y-10061674D01*
X5298777Y-10061674D02*
X5308301Y-10080722D01*
X5308301Y-10080722D02*
X5308301Y-10185484D01*
X5308301Y-10080722D02*
X5317825Y-10061674D01*
X5317825Y-10061674D02*
X5336872Y-10052150D01*
X5336872Y-10052150D02*
X5365444Y-10052150D01*
X5365444Y-10052150D02*
X5384491Y-10061674D01*
X5384491Y-10061674D02*
X5394015Y-10080722D01*
X5394015Y-10080722D02*
X5394015Y-10185484D01*
X5784491Y-9975960D02*
X5613063Y-10233103D01*
X6041634Y-9985484D02*
X6060682Y-9985484D01*
X6060682Y-9985484D02*
X6079729Y-9995008D01*
X6079729Y-9995008D02*
X6089253Y-10004531D01*
X6089253Y-10004531D02*
X6098777Y-10023579D01*
X6098777Y-10023579D02*
X6108301Y-10061674D01*
X6108301Y-10061674D02*
X6108301Y-10109293D01*
X6108301Y-10109293D02*
X6098777Y-10147389D01*
X6098777Y-10147389D02*
X6089253Y-10166436D01*
X6089253Y-10166436D02*
X6079729Y-10175960D01*
X6079729Y-10175960D02*
X6060682Y-10185484D01*
X6060682Y-10185484D02*
X6041634Y-10185484D01*
X6041634Y-10185484D02*
X6022586Y-10175960D01*
X6022586Y-10175960D02*
X6013063Y-10166436D01*
X6013063Y-10166436D02*
X6003539Y-10147389D01*
X6003539Y-10147389D02*
X5994015Y-10109293D01*
X5994015Y-10109293D02*
X5994015Y-10061674D01*
X5994015Y-10061674D02*
X6003539Y-10023579D01*
X6003539Y-10023579D02*
X6013063Y-10004531D01*
X6013063Y-10004531D02*
X6022586Y-9995008D01*
X6022586Y-9995008D02*
X6041634Y-9985484D01*
X6194015Y-10166436D02*
X6203539Y-10175960D01*
X6203539Y-10175960D02*
X6194015Y-10185484D01*
X6194015Y-10185484D02*
X6184491Y-10175960D01*
X6184491Y-10175960D02*
X6194015Y-10166436D01*
X6194015Y-10166436D02*
X6194015Y-10185484D01*
X6327348Y-9985484D02*
X6346396Y-9985484D01*
X6346396Y-9985484D02*
X6365444Y-9995008D01*
X6365444Y-9995008D02*
X6374967Y-10004531D01*
X6374967Y-10004531D02*
X6384491Y-10023579D01*
X6384491Y-10023579D02*
X6394015Y-10061674D01*
X6394015Y-10061674D02*
X6394015Y-10109293D01*
X6394015Y-10109293D02*
X6384491Y-10147389D01*
X6384491Y-10147389D02*
X6374967Y-10166436D01*
X6374967Y-10166436D02*
X6365444Y-10175960D01*
X6365444Y-10175960D02*
X6346396Y-10185484D01*
X6346396Y-10185484D02*
X6327348Y-10185484D01*
X6327348Y-10185484D02*
X6308301Y-10175960D01*
X6308301Y-10175960D02*
X6298777Y-10166436D01*
X6298777Y-10166436D02*
X6289253Y-10147389D01*
X6289253Y-10147389D02*
X6279729Y-10109293D01*
X6279729Y-10109293D02*
X6279729Y-10061674D01*
X6279729Y-10061674D02*
X6289253Y-10023579D01*
X6289253Y-10023579D02*
X6298777Y-10004531D01*
X6298777Y-10004531D02*
X6308301Y-9995008D01*
X6308301Y-9995008D02*
X6327348Y-9985484D01*
X6470206Y-10004531D02*
X6479729Y-9995008D01*
X6479729Y-9995008D02*
X6498777Y-9985484D01*
X6498777Y-9985484D02*
X6546396Y-9985484D01*
X6546396Y-9985484D02*
X6565444Y-9995008D01*
X6565444Y-9995008D02*
X6574967Y-10004531D01*
X6574967Y-10004531D02*
X6584491Y-10023579D01*
X6584491Y-10023579D02*
X6584491Y-10042627D01*
X6584491Y-10042627D02*
X6574967Y-10071198D01*
X6574967Y-10071198D02*
X6460682Y-10185484D01*
X6460682Y-10185484D02*
X6584491Y-10185484D01*
X6679729Y-10185484D02*
X6717825Y-10185484D01*
X6717825Y-10185484D02*
X6736872Y-10175960D01*
X6736872Y-10175960D02*
X6746396Y-10166436D01*
X6746396Y-10166436D02*
X6765444Y-10137865D01*
X6765444Y-10137865D02*
X6774967Y-10099770D01*
X6774967Y-10099770D02*
X6774967Y-10023579D01*
X6774967Y-10023579D02*
X6765444Y-10004531D01*
X6765444Y-10004531D02*
X6755920Y-9995008D01*
X6755920Y-9995008D02*
X6736872Y-9985484D01*
X6736872Y-9985484D02*
X6698777Y-9985484D01*
X6698777Y-9985484D02*
X6679729Y-9995008D01*
X6679729Y-9995008D02*
X6670206Y-10004531D01*
X6670206Y-10004531D02*
X6660682Y-10023579D01*
X6660682Y-10023579D02*
X6660682Y-10071198D01*
X6660682Y-10071198D02*
X6670206Y-10090246D01*
X6670206Y-10090246D02*
X6679729Y-10099770D01*
X6679729Y-10099770D02*
X6698777Y-10109293D01*
X6698777Y-10109293D02*
X6736872Y-10109293D01*
X6736872Y-10109293D02*
X6755920Y-10099770D01*
X6755920Y-10099770D02*
X6765444Y-10090246D01*
X6765444Y-10090246D02*
X6774967Y-10071198D01*
X6955920Y-9985484D02*
X6860682Y-9985484D01*
X6860682Y-9985484D02*
X6851158Y-10080722D01*
X6851158Y-10080722D02*
X6860682Y-10071198D01*
X6860682Y-10071198D02*
X6879729Y-10061674D01*
X6879729Y-10061674D02*
X6927348Y-10061674D01*
X6927348Y-10061674D02*
X6946396Y-10071198D01*
X6946396Y-10071198D02*
X6955920Y-10080722D01*
X6955920Y-10080722D02*
X6965444Y-10099770D01*
X6965444Y-10099770D02*
X6965444Y-10147389D01*
X6965444Y-10147389D02*
X6955920Y-10166436D01*
X6955920Y-10166436D02*
X6946396Y-10175960D01*
X6946396Y-10175960D02*
X6927348Y-10185484D01*
X6927348Y-10185484D02*
X6879729Y-10185484D01*
X6879729Y-10185484D02*
X6860682Y-10175960D01*
X6860682Y-10175960D02*
X6851158Y-10166436D01*
X7041634Y-9985484D02*
X7041634Y-10023579D01*
X7117825Y-9985484D02*
X7117825Y-10023579D01*
X7413063Y-10261674D02*
X7403539Y-10252150D01*
X7403539Y-10252150D02*
X7384491Y-10223579D01*
X7384491Y-10223579D02*
X7374968Y-10204531D01*
X7374968Y-10204531D02*
X7365444Y-10175960D01*
X7365444Y-10175960D02*
X7355920Y-10128341D01*
X7355920Y-10128341D02*
X7355920Y-10090246D01*
X7355920Y-10090246D02*
X7365444Y-10042627D01*
X7365444Y-10042627D02*
X7374968Y-10014055D01*
X7374968Y-10014055D02*
X7384491Y-9995008D01*
X7384491Y-9995008D02*
X7403539Y-9966436D01*
X7403539Y-9966436D02*
X7413063Y-9956912D01*
X7584491Y-9985484D02*
X7489253Y-9985484D01*
X7489253Y-9985484D02*
X7479729Y-10080722D01*
X7479729Y-10080722D02*
X7489253Y-10071198D01*
X7489253Y-10071198D02*
X7508301Y-10061674D01*
X7508301Y-10061674D02*
X7555920Y-10061674D01*
X7555920Y-10061674D02*
X7574968Y-10071198D01*
X7574968Y-10071198D02*
X7584491Y-10080722D01*
X7584491Y-10080722D02*
X7594015Y-10099770D01*
X7594015Y-10099770D02*
X7594015Y-10147389D01*
X7594015Y-10147389D02*
X7584491Y-10166436D01*
X7584491Y-10166436D02*
X7574968Y-10175960D01*
X7574968Y-10175960D02*
X7555920Y-10185484D01*
X7555920Y-10185484D02*
X7508301Y-10185484D01*
X7508301Y-10185484D02*
X7489253Y-10175960D01*
X7489253Y-10175960D02*
X7479729Y-10166436D01*
X7832110Y-10185484D02*
X7832110Y-9985484D01*
X7917825Y-10185484D02*
X7917825Y-10080722D01*
X7917825Y-10080722D02*
X7908301Y-10061674D01*
X7908301Y-10061674D02*
X7889253Y-10052150D01*
X7889253Y-10052150D02*
X7860682Y-10052150D01*
X7860682Y-10052150D02*
X7841634Y-10061674D01*
X7841634Y-10061674D02*
X7832110Y-10071198D01*
X8041634Y-10185484D02*
X8022587Y-10175960D01*
X8022587Y-10175960D02*
X8013063Y-10166436D01*
X8013063Y-10166436D02*
X8003539Y-10147389D01*
X8003539Y-10147389D02*
X8003539Y-10090246D01*
X8003539Y-10090246D02*
X8013063Y-10071198D01*
X8013063Y-10071198D02*
X8022587Y-10061674D01*
X8022587Y-10061674D02*
X8041634Y-10052150D01*
X8041634Y-10052150D02*
X8070206Y-10052150D01*
X8070206Y-10052150D02*
X8089253Y-10061674D01*
X8089253Y-10061674D02*
X8098777Y-10071198D01*
X8098777Y-10071198D02*
X8108301Y-10090246D01*
X8108301Y-10090246D02*
X8108301Y-10147389D01*
X8108301Y-10147389D02*
X8098777Y-10166436D01*
X8098777Y-10166436D02*
X8089253Y-10175960D01*
X8089253Y-10175960D02*
X8070206Y-10185484D01*
X8070206Y-10185484D02*
X8041634Y-10185484D01*
X8222587Y-10185484D02*
X8203539Y-10175960D01*
X8203539Y-10175960D02*
X8194015Y-10156912D01*
X8194015Y-10156912D02*
X8194015Y-9985484D01*
X8374968Y-10175960D02*
X8355920Y-10185484D01*
X8355920Y-10185484D02*
X8317825Y-10185484D01*
X8317825Y-10185484D02*
X8298777Y-10175960D01*
X8298777Y-10175960D02*
X8289253Y-10156912D01*
X8289253Y-10156912D02*
X8289253Y-10080722D01*
X8289253Y-10080722D02*
X8298777Y-10061674D01*
X8298777Y-10061674D02*
X8317825Y-10052150D01*
X8317825Y-10052150D02*
X8355920Y-10052150D01*
X8355920Y-10052150D02*
X8374968Y-10061674D01*
X8374968Y-10061674D02*
X8384491Y-10080722D01*
X8384491Y-10080722D02*
X8384491Y-10099770D01*
X8384491Y-10099770D02*
X8289253Y-10118817D01*
X8460682Y-10175960D02*
X8479730Y-10185484D01*
X8479730Y-10185484D02*
X8517825Y-10185484D01*
X8517825Y-10185484D02*
X8536873Y-10175960D01*
X8536873Y-10175960D02*
X8546396Y-10156912D01*
X8546396Y-10156912D02*
X8546396Y-10147389D01*
X8546396Y-10147389D02*
X8536873Y-10128341D01*
X8536873Y-10128341D02*
X8517825Y-10118817D01*
X8517825Y-10118817D02*
X8489253Y-10118817D01*
X8489253Y-10118817D02*
X8470206Y-10109293D01*
X8470206Y-10109293D02*
X8460682Y-10090246D01*
X8460682Y-10090246D02*
X8460682Y-10080722D01*
X8460682Y-10080722D02*
X8470206Y-10061674D01*
X8470206Y-10061674D02*
X8489253Y-10052150D01*
X8489253Y-10052150D02*
X8517825Y-10052150D01*
X8517825Y-10052150D02*
X8536873Y-10061674D01*
X8613063Y-10261674D02*
X8622587Y-10252150D01*
X8622587Y-10252150D02*
X8641634Y-10223579D01*
X8641634Y-10223579D02*
X8651158Y-10204531D01*
X8651158Y-10204531D02*
X8660682Y-10175960D01*
X8660682Y-10175960D02*
X8670206Y-10128341D01*
X8670206Y-10128341D02*
X8670206Y-10090246D01*
X8670206Y-10090246D02*
X8660682Y-10042627D01*
X8660682Y-10042627D02*
X8651158Y-10014055D01*
X8651158Y-10014055D02*
X8641634Y-9995008D01*
X8641634Y-9995008D02*
X8622587Y-9966436D01*
X8622587Y-9966436D02*
X8613063Y-9956912D01*
D13*
X3823356Y-10393356D02*
X3823356Y-10322644D01*
X3752644Y-10322644D01*
X3752644Y-10393356D01*
X3823356Y-10393356D01*
D12*
X4203539Y-10449484D02*
X4089253Y-10449484D01*
X4146396Y-10449484D02*
X4146396Y-10249484D01*
X4146396Y-10249484D02*
X4127348Y-10278055D01*
X4127348Y-10278055D02*
X4108301Y-10297103D01*
X4108301Y-10297103D02*
X4089253Y-10306627D01*
X4289253Y-10430436D02*
X4298777Y-10439960D01*
X4298777Y-10439960D02*
X4289253Y-10449484D01*
X4289253Y-10449484D02*
X4279729Y-10439960D01*
X4279729Y-10439960D02*
X4289253Y-10430436D01*
X4289253Y-10430436D02*
X4289253Y-10449484D01*
X4422586Y-10249484D02*
X4441634Y-10249484D01*
X4441634Y-10249484D02*
X4460682Y-10259008D01*
X4460682Y-10259008D02*
X4470205Y-10268531D01*
X4470205Y-10268531D02*
X4479729Y-10287579D01*
X4479729Y-10287579D02*
X4489253Y-10325674D01*
X4489253Y-10325674D02*
X4489253Y-10373293D01*
X4489253Y-10373293D02*
X4479729Y-10411389D01*
X4479729Y-10411389D02*
X4470205Y-10430436D01*
X4470205Y-10430436D02*
X4460682Y-10439960D01*
X4460682Y-10439960D02*
X4441634Y-10449484D01*
X4441634Y-10449484D02*
X4422586Y-10449484D01*
X4422586Y-10449484D02*
X4403539Y-10439960D01*
X4403539Y-10439960D02*
X4394015Y-10430436D01*
X4394015Y-10430436D02*
X4384491Y-10411389D01*
X4384491Y-10411389D02*
X4374967Y-10373293D01*
X4374967Y-10373293D02*
X4374967Y-10325674D01*
X4374967Y-10325674D02*
X4384491Y-10287579D01*
X4384491Y-10287579D02*
X4394015Y-10268531D01*
X4394015Y-10268531D02*
X4403539Y-10259008D01*
X4403539Y-10259008D02*
X4422586Y-10249484D01*
X4613063Y-10249484D02*
X4632110Y-10249484D01*
X4632110Y-10249484D02*
X4651158Y-10259008D01*
X4651158Y-10259008D02*
X4660682Y-10268531D01*
X4660682Y-10268531D02*
X4670205Y-10287579D01*
X4670205Y-10287579D02*
X4679729Y-10325674D01*
X4679729Y-10325674D02*
X4679729Y-10373293D01*
X4679729Y-10373293D02*
X4670205Y-10411389D01*
X4670205Y-10411389D02*
X4660682Y-10430436D01*
X4660682Y-10430436D02*
X4651158Y-10439960D01*
X4651158Y-10439960D02*
X4632110Y-10449484D01*
X4632110Y-10449484D02*
X4613063Y-10449484D01*
X4613063Y-10449484D02*
X4594015Y-10439960D01*
X4594015Y-10439960D02*
X4584491Y-10430436D01*
X4584491Y-10430436D02*
X4574967Y-10411389D01*
X4574967Y-10411389D02*
X4565444Y-10373293D01*
X4565444Y-10373293D02*
X4565444Y-10325674D01*
X4565444Y-10325674D02*
X4574967Y-10287579D01*
X4574967Y-10287579D02*
X4584491Y-10268531D01*
X4584491Y-10268531D02*
X4594015Y-10259008D01*
X4594015Y-10259008D02*
X4613063Y-10249484D01*
X4803539Y-10249484D02*
X4822586Y-10249484D01*
X4822586Y-10249484D02*
X4841634Y-10259008D01*
X4841634Y-10259008D02*
X4851158Y-10268531D01*
X4851158Y-10268531D02*
X4860682Y-10287579D01*
X4860682Y-10287579D02*
X4870205Y-10325674D01*
X4870205Y-10325674D02*
X4870205Y-10373293D01*
X4870205Y-10373293D02*
X4860682Y-10411389D01*
X4860682Y-10411389D02*
X4851158Y-10430436D01*
X4851158Y-10430436D02*
X4841634Y-10439960D01*
X4841634Y-10439960D02*
X4822586Y-10449484D01*
X4822586Y-10449484D02*
X4803539Y-10449484D01*
X4803539Y-10449484D02*
X4784491Y-10439960D01*
X4784491Y-10439960D02*
X4774967Y-10430436D01*
X4774967Y-10430436D02*
X4765444Y-10411389D01*
X4765444Y-10411389D02*
X4755920Y-10373293D01*
X4755920Y-10373293D02*
X4755920Y-10325674D01*
X4755920Y-10325674D02*
X4765444Y-10287579D01*
X4765444Y-10287579D02*
X4774967Y-10268531D01*
X4774967Y-10268531D02*
X4784491Y-10259008D01*
X4784491Y-10259008D02*
X4803539Y-10249484D01*
X4955920Y-10449484D02*
X4955920Y-10316150D01*
X4955920Y-10335198D02*
X4965444Y-10325674D01*
X4965444Y-10325674D02*
X4984491Y-10316150D01*
X4984491Y-10316150D02*
X5013063Y-10316150D01*
X5013063Y-10316150D02*
X5032110Y-10325674D01*
X5032110Y-10325674D02*
X5041634Y-10344722D01*
X5041634Y-10344722D02*
X5041634Y-10449484D01*
X5041634Y-10344722D02*
X5051158Y-10325674D01*
X5051158Y-10325674D02*
X5070205Y-10316150D01*
X5070205Y-10316150D02*
X5098777Y-10316150D01*
X5098777Y-10316150D02*
X5117825Y-10325674D01*
X5117825Y-10325674D02*
X5127348Y-10344722D01*
X5127348Y-10344722D02*
X5127348Y-10449484D01*
X5222586Y-10449484D02*
X5222586Y-10316150D01*
X5222586Y-10335198D02*
X5232110Y-10325674D01*
X5232110Y-10325674D02*
X5251158Y-10316150D01*
X5251158Y-10316150D02*
X5279729Y-10316150D01*
X5279729Y-10316150D02*
X5298777Y-10325674D01*
X5298777Y-10325674D02*
X5308301Y-10344722D01*
X5308301Y-10344722D02*
X5308301Y-10449484D01*
X5308301Y-10344722D02*
X5317825Y-10325674D01*
X5317825Y-10325674D02*
X5336872Y-10316150D01*
X5336872Y-10316150D02*
X5365444Y-10316150D01*
X5365444Y-10316150D02*
X5384491Y-10325674D01*
X5384491Y-10325674D02*
X5394015Y-10344722D01*
X5394015Y-10344722D02*
X5394015Y-10449484D01*
X5784491Y-10239960D02*
X5613063Y-10497103D01*
X6041634Y-10249484D02*
X6060682Y-10249484D01*
X6060682Y-10249484D02*
X6079729Y-10259008D01*
X6079729Y-10259008D02*
X6089253Y-10268531D01*
X6089253Y-10268531D02*
X6098777Y-10287579D01*
X6098777Y-10287579D02*
X6108301Y-10325674D01*
X6108301Y-10325674D02*
X6108301Y-10373293D01*
X6108301Y-10373293D02*
X6098777Y-10411389D01*
X6098777Y-10411389D02*
X6089253Y-10430436D01*
X6089253Y-10430436D02*
X6079729Y-10439960D01*
X6079729Y-10439960D02*
X6060682Y-10449484D01*
X6060682Y-10449484D02*
X6041634Y-10449484D01*
X6041634Y-10449484D02*
X6022586Y-10439960D01*
X6022586Y-10439960D02*
X6013063Y-10430436D01*
X6013063Y-10430436D02*
X6003539Y-10411389D01*
X6003539Y-10411389D02*
X5994015Y-10373293D01*
X5994015Y-10373293D02*
X5994015Y-10325674D01*
X5994015Y-10325674D02*
X6003539Y-10287579D01*
X6003539Y-10287579D02*
X6013063Y-10268531D01*
X6013063Y-10268531D02*
X6022586Y-10259008D01*
X6022586Y-10259008D02*
X6041634Y-10249484D01*
X6194015Y-10430436D02*
X6203539Y-10439960D01*
X6203539Y-10439960D02*
X6194015Y-10449484D01*
X6194015Y-10449484D02*
X6184491Y-10439960D01*
X6184491Y-10439960D02*
X6194015Y-10430436D01*
X6194015Y-10430436D02*
X6194015Y-10449484D01*
X6327348Y-10249484D02*
X6346396Y-10249484D01*
X6346396Y-10249484D02*
X6365444Y-10259008D01*
X6365444Y-10259008D02*
X6374967Y-10268531D01*
X6374967Y-10268531D02*
X6384491Y-10287579D01*
X6384491Y-10287579D02*
X6394015Y-10325674D01*
X6394015Y-10325674D02*
X6394015Y-10373293D01*
X6394015Y-10373293D02*
X6384491Y-10411389D01*
X6384491Y-10411389D02*
X6374967Y-10430436D01*
X6374967Y-10430436D02*
X6365444Y-10439960D01*
X6365444Y-10439960D02*
X6346396Y-10449484D01*
X6346396Y-10449484D02*
X6327348Y-10449484D01*
X6327348Y-10449484D02*
X6308301Y-10439960D01*
X6308301Y-10439960D02*
X6298777Y-10430436D01*
X6298777Y-10430436D02*
X6289253Y-10411389D01*
X6289253Y-10411389D02*
X6279729Y-10373293D01*
X6279729Y-10373293D02*
X6279729Y-10325674D01*
X6279729Y-10325674D02*
X6289253Y-10287579D01*
X6289253Y-10287579D02*
X6298777Y-10268531D01*
X6298777Y-10268531D02*
X6308301Y-10259008D01*
X6308301Y-10259008D02*
X6327348Y-10249484D01*
X6460682Y-10249484D02*
X6584491Y-10249484D01*
X6584491Y-10249484D02*
X6517825Y-10325674D01*
X6517825Y-10325674D02*
X6546396Y-10325674D01*
X6546396Y-10325674D02*
X6565444Y-10335198D01*
X6565444Y-10335198D02*
X6574967Y-10344722D01*
X6574967Y-10344722D02*
X6584491Y-10363770D01*
X6584491Y-10363770D02*
X6584491Y-10411389D01*
X6584491Y-10411389D02*
X6574967Y-10430436D01*
X6574967Y-10430436D02*
X6565444Y-10439960D01*
X6565444Y-10439960D02*
X6546396Y-10449484D01*
X6546396Y-10449484D02*
X6489253Y-10449484D01*
X6489253Y-10449484D02*
X6470206Y-10439960D01*
X6470206Y-10439960D02*
X6460682Y-10430436D01*
X6679729Y-10449484D02*
X6717825Y-10449484D01*
X6717825Y-10449484D02*
X6736872Y-10439960D01*
X6736872Y-10439960D02*
X6746396Y-10430436D01*
X6746396Y-10430436D02*
X6765444Y-10401865D01*
X6765444Y-10401865D02*
X6774967Y-10363770D01*
X6774967Y-10363770D02*
X6774967Y-10287579D01*
X6774967Y-10287579D02*
X6765444Y-10268531D01*
X6765444Y-10268531D02*
X6755920Y-10259008D01*
X6755920Y-10259008D02*
X6736872Y-10249484D01*
X6736872Y-10249484D02*
X6698777Y-10249484D01*
X6698777Y-10249484D02*
X6679729Y-10259008D01*
X6679729Y-10259008D02*
X6670206Y-10268531D01*
X6670206Y-10268531D02*
X6660682Y-10287579D01*
X6660682Y-10287579D02*
X6660682Y-10335198D01*
X6660682Y-10335198D02*
X6670206Y-10354246D01*
X6670206Y-10354246D02*
X6679729Y-10363770D01*
X6679729Y-10363770D02*
X6698777Y-10373293D01*
X6698777Y-10373293D02*
X6736872Y-10373293D01*
X6736872Y-10373293D02*
X6755920Y-10363770D01*
X6755920Y-10363770D02*
X6765444Y-10354246D01*
X6765444Y-10354246D02*
X6774967Y-10335198D01*
X6946396Y-10316150D02*
X6946396Y-10449484D01*
X6898777Y-10239960D02*
X6851158Y-10382817D01*
X6851158Y-10382817D02*
X6974967Y-10382817D01*
X7041634Y-10249484D02*
X7041634Y-10287579D01*
X7117825Y-10249484D02*
X7117825Y-10287579D01*
X7413063Y-10525674D02*
X7403539Y-10516150D01*
X7403539Y-10516150D02*
X7384491Y-10487579D01*
X7384491Y-10487579D02*
X7374968Y-10468531D01*
X7374968Y-10468531D02*
X7365444Y-10439960D01*
X7365444Y-10439960D02*
X7355920Y-10392341D01*
X7355920Y-10392341D02*
X7355920Y-10354246D01*
X7355920Y-10354246D02*
X7365444Y-10306627D01*
X7365444Y-10306627D02*
X7374968Y-10278055D01*
X7374968Y-10278055D02*
X7384491Y-10259008D01*
X7384491Y-10259008D02*
X7403539Y-10230436D01*
X7403539Y-10230436D02*
X7413063Y-10220912D01*
X7574968Y-10316150D02*
X7574968Y-10449484D01*
X7527348Y-10239960D02*
X7479729Y-10382817D01*
X7479729Y-10382817D02*
X7603539Y-10382817D01*
X7832110Y-10449484D02*
X7832110Y-10249484D01*
X7917825Y-10449484D02*
X7917825Y-10344722D01*
X7917825Y-10344722D02*
X7908301Y-10325674D01*
X7908301Y-10325674D02*
X7889253Y-10316150D01*
X7889253Y-10316150D02*
X7860682Y-10316150D01*
X7860682Y-10316150D02*
X7841634Y-10325674D01*
X7841634Y-10325674D02*
X7832110Y-10335198D01*
X8041634Y-10449484D02*
X8022587Y-10439960D01*
X8022587Y-10439960D02*
X8013063Y-10430436D01*
X8013063Y-10430436D02*
X8003539Y-10411389D01*
X8003539Y-10411389D02*
X8003539Y-10354246D01*
X8003539Y-10354246D02*
X8013063Y-10335198D01*
X8013063Y-10335198D02*
X8022587Y-10325674D01*
X8022587Y-10325674D02*
X8041634Y-10316150D01*
X8041634Y-10316150D02*
X8070206Y-10316150D01*
X8070206Y-10316150D02*
X8089253Y-10325674D01*
X8089253Y-10325674D02*
X8098777Y-10335198D01*
X8098777Y-10335198D02*
X8108301Y-10354246D01*
X8108301Y-10354246D02*
X8108301Y-10411389D01*
X8108301Y-10411389D02*
X8098777Y-10430436D01*
X8098777Y-10430436D02*
X8089253Y-10439960D01*
X8089253Y-10439960D02*
X8070206Y-10449484D01*
X8070206Y-10449484D02*
X8041634Y-10449484D01*
X8222587Y-10449484D02*
X8203539Y-10439960D01*
X8203539Y-10439960D02*
X8194015Y-10420912D01*
X8194015Y-10420912D02*
X8194015Y-10249484D01*
X8374968Y-10439960D02*
X8355920Y-10449484D01*
X8355920Y-10449484D02*
X8317825Y-10449484D01*
X8317825Y-10449484D02*
X8298777Y-10439960D01*
X8298777Y-10439960D02*
X8289253Y-10420912D01*
X8289253Y-10420912D02*
X8289253Y-10344722D01*
X8289253Y-10344722D02*
X8298777Y-10325674D01*
X8298777Y-10325674D02*
X8317825Y-10316150D01*
X8317825Y-10316150D02*
X8355920Y-10316150D01*
X8355920Y-10316150D02*
X8374968Y-10325674D01*
X8374968Y-10325674D02*
X8384491Y-10344722D01*
X8384491Y-10344722D02*
X8384491Y-10363770D01*
X8384491Y-10363770D02*
X8289253Y-10382817D01*
X8460682Y-10439960D02*
X8479730Y-10449484D01*
X8479730Y-10449484D02*
X8517825Y-10449484D01*
X8517825Y-10449484D02*
X8536873Y-10439960D01*
X8536873Y-10439960D02*
X8546396Y-10420912D01*
X8546396Y-10420912D02*
X8546396Y-10411389D01*
X8546396Y-10411389D02*
X8536873Y-10392341D01*
X8536873Y-10392341D02*
X8517825Y-10382817D01*
X8517825Y-10382817D02*
X8489253Y-10382817D01*
X8489253Y-10382817D02*
X8470206Y-10373293D01*
X8470206Y-10373293D02*
X8460682Y-10354246D01*
X8460682Y-10354246D02*
X8460682Y-10344722D01*
X8460682Y-10344722D02*
X8470206Y-10325674D01*
X8470206Y-10325674D02*
X8489253Y-10316150D01*
X8489253Y-10316150D02*
X8517825Y-10316150D01*
X8517825Y-10316150D02*
X8536873Y-10325674D01*
X8613063Y-10525674D02*
X8622587Y-10516150D01*
X8622587Y-10516150D02*
X8641634Y-10487579D01*
X8641634Y-10487579D02*
X8651158Y-10468531D01*
X8651158Y-10468531D02*
X8660682Y-10439960D01*
X8660682Y-10439960D02*
X8670206Y-10392341D01*
X8670206Y-10392341D02*
X8670206Y-10354246D01*
X8670206Y-10354246D02*
X8660682Y-10306627D01*
X8660682Y-10306627D02*
X8651158Y-10278055D01*
X8651158Y-10278055D02*
X8641634Y-10259008D01*
X8641634Y-10259008D02*
X8622587Y-10230436D01*
X8622587Y-10230436D02*
X8613063Y-10220912D01*
D14*
X3753000Y-10707000D02*
X3838000Y-10622000D01*
X3753000Y-10537000D01*
X3668000Y-10622000D01*
X3753000Y-10707000D01*
D12*
X4203539Y-10713484D02*
X4089253Y-10713484D01*
X4146396Y-10713484D02*
X4146396Y-10513484D01*
X4146396Y-10513484D02*
X4127348Y-10542055D01*
X4127348Y-10542055D02*
X4108301Y-10561103D01*
X4108301Y-10561103D02*
X4089253Y-10570627D01*
X4289253Y-10694436D02*
X4298777Y-10703960D01*
X4298777Y-10703960D02*
X4289253Y-10713484D01*
X4289253Y-10713484D02*
X4279729Y-10703960D01*
X4279729Y-10703960D02*
X4289253Y-10694436D01*
X4289253Y-10694436D02*
X4289253Y-10713484D01*
X4365444Y-10513484D02*
X4498777Y-10513484D01*
X4498777Y-10513484D02*
X4413063Y-10713484D01*
X4613063Y-10513484D02*
X4632110Y-10513484D01*
X4632110Y-10513484D02*
X4651158Y-10523008D01*
X4651158Y-10523008D02*
X4660682Y-10532531D01*
X4660682Y-10532531D02*
X4670205Y-10551579D01*
X4670205Y-10551579D02*
X4679729Y-10589674D01*
X4679729Y-10589674D02*
X4679729Y-10637293D01*
X4679729Y-10637293D02*
X4670205Y-10675389D01*
X4670205Y-10675389D02*
X4660682Y-10694436D01*
X4660682Y-10694436D02*
X4651158Y-10703960D01*
X4651158Y-10703960D02*
X4632110Y-10713484D01*
X4632110Y-10713484D02*
X4613063Y-10713484D01*
X4613063Y-10713484D02*
X4594015Y-10703960D01*
X4594015Y-10703960D02*
X4584491Y-10694436D01*
X4584491Y-10694436D02*
X4574967Y-10675389D01*
X4574967Y-10675389D02*
X4565444Y-10637293D01*
X4565444Y-10637293D02*
X4565444Y-10589674D01*
X4565444Y-10589674D02*
X4574967Y-10551579D01*
X4574967Y-10551579D02*
X4584491Y-10532531D01*
X4584491Y-10532531D02*
X4594015Y-10523008D01*
X4594015Y-10523008D02*
X4613063Y-10513484D01*
X4803539Y-10513484D02*
X4822586Y-10513484D01*
X4822586Y-10513484D02*
X4841634Y-10523008D01*
X4841634Y-10523008D02*
X4851158Y-10532531D01*
X4851158Y-10532531D02*
X4860682Y-10551579D01*
X4860682Y-10551579D02*
X4870205Y-10589674D01*
X4870205Y-10589674D02*
X4870205Y-10637293D01*
X4870205Y-10637293D02*
X4860682Y-10675389D01*
X4860682Y-10675389D02*
X4851158Y-10694436D01*
X4851158Y-10694436D02*
X4841634Y-10703960D01*
X4841634Y-10703960D02*
X4822586Y-10713484D01*
X4822586Y-10713484D02*
X4803539Y-10713484D01*
X4803539Y-10713484D02*
X4784491Y-10703960D01*
X4784491Y-10703960D02*
X4774967Y-10694436D01*
X4774967Y-10694436D02*
X4765444Y-10675389D01*
X4765444Y-10675389D02*
X4755920Y-10637293D01*
X4755920Y-10637293D02*
X4755920Y-10589674D01*
X4755920Y-10589674D02*
X4765444Y-10551579D01*
X4765444Y-10551579D02*
X4774967Y-10532531D01*
X4774967Y-10532531D02*
X4784491Y-10523008D01*
X4784491Y-10523008D02*
X4803539Y-10513484D01*
X4955920Y-10713484D02*
X4955920Y-10580150D01*
X4955920Y-10599198D02*
X4965444Y-10589674D01*
X4965444Y-10589674D02*
X4984491Y-10580150D01*
X4984491Y-10580150D02*
X5013063Y-10580150D01*
X5013063Y-10580150D02*
X5032110Y-10589674D01*
X5032110Y-10589674D02*
X5041634Y-10608722D01*
X5041634Y-10608722D02*
X5041634Y-10713484D01*
X5041634Y-10608722D02*
X5051158Y-10589674D01*
X5051158Y-10589674D02*
X5070205Y-10580150D01*
X5070205Y-10580150D02*
X5098777Y-10580150D01*
X5098777Y-10580150D02*
X5117825Y-10589674D01*
X5117825Y-10589674D02*
X5127348Y-10608722D01*
X5127348Y-10608722D02*
X5127348Y-10713484D01*
X5222586Y-10713484D02*
X5222586Y-10580150D01*
X5222586Y-10599198D02*
X5232110Y-10589674D01*
X5232110Y-10589674D02*
X5251158Y-10580150D01*
X5251158Y-10580150D02*
X5279729Y-10580150D01*
X5279729Y-10580150D02*
X5298777Y-10589674D01*
X5298777Y-10589674D02*
X5308301Y-10608722D01*
X5308301Y-10608722D02*
X5308301Y-10713484D01*
X5308301Y-10608722D02*
X5317825Y-10589674D01*
X5317825Y-10589674D02*
X5336872Y-10580150D01*
X5336872Y-10580150D02*
X5365444Y-10580150D01*
X5365444Y-10580150D02*
X5384491Y-10589674D01*
X5384491Y-10589674D02*
X5394015Y-10608722D01*
X5394015Y-10608722D02*
X5394015Y-10713484D01*
X5784491Y-10503960D02*
X5613063Y-10761103D01*
X6041634Y-10513484D02*
X6060682Y-10513484D01*
X6060682Y-10513484D02*
X6079729Y-10523008D01*
X6079729Y-10523008D02*
X6089253Y-10532531D01*
X6089253Y-10532531D02*
X6098777Y-10551579D01*
X6098777Y-10551579D02*
X6108301Y-10589674D01*
X6108301Y-10589674D02*
X6108301Y-10637293D01*
X6108301Y-10637293D02*
X6098777Y-10675389D01*
X6098777Y-10675389D02*
X6089253Y-10694436D01*
X6089253Y-10694436D02*
X6079729Y-10703960D01*
X6079729Y-10703960D02*
X6060682Y-10713484D01*
X6060682Y-10713484D02*
X6041634Y-10713484D01*
X6041634Y-10713484D02*
X6022586Y-10703960D01*
X6022586Y-10703960D02*
X6013063Y-10694436D01*
X6013063Y-10694436D02*
X6003539Y-10675389D01*
X6003539Y-10675389D02*
X5994015Y-10637293D01*
X5994015Y-10637293D02*
X5994015Y-10589674D01*
X5994015Y-10589674D02*
X6003539Y-10551579D01*
X6003539Y-10551579D02*
X6013063Y-10532531D01*
X6013063Y-10532531D02*
X6022586Y-10523008D01*
X6022586Y-10523008D02*
X6041634Y-10513484D01*
X6194015Y-10694436D02*
X6203539Y-10703960D01*
X6203539Y-10703960D02*
X6194015Y-10713484D01*
X6194015Y-10713484D02*
X6184491Y-10703960D01*
X6184491Y-10703960D02*
X6194015Y-10694436D01*
X6194015Y-10694436D02*
X6194015Y-10713484D01*
X6327348Y-10513484D02*
X6346396Y-10513484D01*
X6346396Y-10513484D02*
X6365444Y-10523008D01*
X6365444Y-10523008D02*
X6374967Y-10532531D01*
X6374967Y-10532531D02*
X6384491Y-10551579D01*
X6384491Y-10551579D02*
X6394015Y-10589674D01*
X6394015Y-10589674D02*
X6394015Y-10637293D01*
X6394015Y-10637293D02*
X6384491Y-10675389D01*
X6384491Y-10675389D02*
X6374967Y-10694436D01*
X6374967Y-10694436D02*
X6365444Y-10703960D01*
X6365444Y-10703960D02*
X6346396Y-10713484D01*
X6346396Y-10713484D02*
X6327348Y-10713484D01*
X6327348Y-10713484D02*
X6308301Y-10703960D01*
X6308301Y-10703960D02*
X6298777Y-10694436D01*
X6298777Y-10694436D02*
X6289253Y-10675389D01*
X6289253Y-10675389D02*
X6279729Y-10637293D01*
X6279729Y-10637293D02*
X6279729Y-10589674D01*
X6279729Y-10589674D02*
X6289253Y-10551579D01*
X6289253Y-10551579D02*
X6298777Y-10532531D01*
X6298777Y-10532531D02*
X6308301Y-10523008D01*
X6308301Y-10523008D02*
X6327348Y-10513484D01*
X6565444Y-10513484D02*
X6527348Y-10513484D01*
X6527348Y-10513484D02*
X6508301Y-10523008D01*
X6508301Y-10523008D02*
X6498777Y-10532531D01*
X6498777Y-10532531D02*
X6479729Y-10561103D01*
X6479729Y-10561103D02*
X6470206Y-10599198D01*
X6470206Y-10599198D02*
X6470206Y-10675389D01*
X6470206Y-10675389D02*
X6479729Y-10694436D01*
X6479729Y-10694436D02*
X6489253Y-10703960D01*
X6489253Y-10703960D02*
X6508301Y-10713484D01*
X6508301Y-10713484D02*
X6546396Y-10713484D01*
X6546396Y-10713484D02*
X6565444Y-10703960D01*
X6565444Y-10703960D02*
X6574967Y-10694436D01*
X6574967Y-10694436D02*
X6584491Y-10675389D01*
X6584491Y-10675389D02*
X6584491Y-10627770D01*
X6584491Y-10627770D02*
X6574967Y-10608722D01*
X6574967Y-10608722D02*
X6565444Y-10599198D01*
X6565444Y-10599198D02*
X6546396Y-10589674D01*
X6546396Y-10589674D02*
X6508301Y-10589674D01*
X6508301Y-10589674D02*
X6489253Y-10599198D01*
X6489253Y-10599198D02*
X6479729Y-10608722D01*
X6479729Y-10608722D02*
X6470206Y-10627770D01*
X6755920Y-10513484D02*
X6717825Y-10513484D01*
X6717825Y-10513484D02*
X6698777Y-10523008D01*
X6698777Y-10523008D02*
X6689253Y-10532531D01*
X6689253Y-10532531D02*
X6670206Y-10561103D01*
X6670206Y-10561103D02*
X6660682Y-10599198D01*
X6660682Y-10599198D02*
X6660682Y-10675389D01*
X6660682Y-10675389D02*
X6670206Y-10694436D01*
X6670206Y-10694436D02*
X6679729Y-10703960D01*
X6679729Y-10703960D02*
X6698777Y-10713484D01*
X6698777Y-10713484D02*
X6736872Y-10713484D01*
X6736872Y-10713484D02*
X6755920Y-10703960D01*
X6755920Y-10703960D02*
X6765444Y-10694436D01*
X6765444Y-10694436D02*
X6774967Y-10675389D01*
X6774967Y-10675389D02*
X6774967Y-10627770D01*
X6774967Y-10627770D02*
X6765444Y-10608722D01*
X6765444Y-10608722D02*
X6755920Y-10599198D01*
X6755920Y-10599198D02*
X6736872Y-10589674D01*
X6736872Y-10589674D02*
X6698777Y-10589674D01*
X6698777Y-10589674D02*
X6679729Y-10599198D01*
X6679729Y-10599198D02*
X6670206Y-10608722D01*
X6670206Y-10608722D02*
X6660682Y-10627770D01*
X6870206Y-10713484D02*
X6908301Y-10713484D01*
X6908301Y-10713484D02*
X6927348Y-10703960D01*
X6927348Y-10703960D02*
X6936872Y-10694436D01*
X6936872Y-10694436D02*
X6955920Y-10665865D01*
X6955920Y-10665865D02*
X6965444Y-10627770D01*
X6965444Y-10627770D02*
X6965444Y-10551579D01*
X6965444Y-10551579D02*
X6955920Y-10532531D01*
X6955920Y-10532531D02*
X6946396Y-10523008D01*
X6946396Y-10523008D02*
X6927348Y-10513484D01*
X6927348Y-10513484D02*
X6889253Y-10513484D01*
X6889253Y-10513484D02*
X6870206Y-10523008D01*
X6870206Y-10523008D02*
X6860682Y-10532531D01*
X6860682Y-10532531D02*
X6851158Y-10551579D01*
X6851158Y-10551579D02*
X6851158Y-10599198D01*
X6851158Y-10599198D02*
X6860682Y-10618246D01*
X6860682Y-10618246D02*
X6870206Y-10627770D01*
X6870206Y-10627770D02*
X6889253Y-10637293D01*
X6889253Y-10637293D02*
X6927348Y-10637293D01*
X6927348Y-10637293D02*
X6946396Y-10627770D01*
X6946396Y-10627770D02*
X6955920Y-10618246D01*
X6955920Y-10618246D02*
X6965444Y-10599198D01*
X7041634Y-10513484D02*
X7041634Y-10551579D01*
X7117825Y-10513484D02*
X7117825Y-10551579D01*
X7413063Y-10789674D02*
X7403539Y-10780150D01*
X7403539Y-10780150D02*
X7384491Y-10751579D01*
X7384491Y-10751579D02*
X7374968Y-10732531D01*
X7374968Y-10732531D02*
X7365444Y-10703960D01*
X7365444Y-10703960D02*
X7355920Y-10656341D01*
X7355920Y-10656341D02*
X7355920Y-10618246D01*
X7355920Y-10618246D02*
X7365444Y-10570627D01*
X7365444Y-10570627D02*
X7374968Y-10542055D01*
X7374968Y-10542055D02*
X7384491Y-10523008D01*
X7384491Y-10523008D02*
X7403539Y-10494436D01*
X7403539Y-10494436D02*
X7413063Y-10484912D01*
X7594015Y-10713484D02*
X7479729Y-10713484D01*
X7536872Y-10713484D02*
X7536872Y-10513484D01*
X7536872Y-10513484D02*
X7517825Y-10542055D01*
X7517825Y-10542055D02*
X7498777Y-10561103D01*
X7498777Y-10561103D02*
X7479729Y-10570627D01*
X7660682Y-10513484D02*
X7784491Y-10513484D01*
X7784491Y-10513484D02*
X7717825Y-10589674D01*
X7717825Y-10589674D02*
X7746396Y-10589674D01*
X7746396Y-10589674D02*
X7765444Y-10599198D01*
X7765444Y-10599198D02*
X7774968Y-10608722D01*
X7774968Y-10608722D02*
X7784491Y-10627770D01*
X7784491Y-10627770D02*
X7784491Y-10675389D01*
X7784491Y-10675389D02*
X7774968Y-10694436D01*
X7774968Y-10694436D02*
X7765444Y-10703960D01*
X7765444Y-10703960D02*
X7746396Y-10713484D01*
X7746396Y-10713484D02*
X7689253Y-10713484D01*
X7689253Y-10713484D02*
X7670206Y-10703960D01*
X7670206Y-10703960D02*
X7660682Y-10694436D01*
X7898777Y-10599198D02*
X7879729Y-10589674D01*
X7879729Y-10589674D02*
X7870206Y-10580150D01*
X7870206Y-10580150D02*
X7860682Y-10561103D01*
X7860682Y-10561103D02*
X7860682Y-10551579D01*
X7860682Y-10551579D02*
X7870206Y-10532531D01*
X7870206Y-10532531D02*
X7879729Y-10523008D01*
X7879729Y-10523008D02*
X7898777Y-10513484D01*
X7898777Y-10513484D02*
X7936872Y-10513484D01*
X7936872Y-10513484D02*
X7955920Y-10523008D01*
X7955920Y-10523008D02*
X7965444Y-10532531D01*
X7965444Y-10532531D02*
X7974968Y-10551579D01*
X7974968Y-10551579D02*
X7974968Y-10561103D01*
X7974968Y-10561103D02*
X7965444Y-10580150D01*
X7965444Y-10580150D02*
X7955920Y-10589674D01*
X7955920Y-10589674D02*
X7936872Y-10599198D01*
X7936872Y-10599198D02*
X7898777Y-10599198D01*
X7898777Y-10599198D02*
X7879729Y-10608722D01*
X7879729Y-10608722D02*
X7870206Y-10618246D01*
X7870206Y-10618246D02*
X7860682Y-10637293D01*
X7860682Y-10637293D02*
X7860682Y-10675389D01*
X7860682Y-10675389D02*
X7870206Y-10694436D01*
X7870206Y-10694436D02*
X7879729Y-10703960D01*
X7879729Y-10703960D02*
X7898777Y-10713484D01*
X7898777Y-10713484D02*
X7936872Y-10713484D01*
X7936872Y-10713484D02*
X7955920Y-10703960D01*
X7955920Y-10703960D02*
X7965444Y-10694436D01*
X7965444Y-10694436D02*
X7974968Y-10675389D01*
X7974968Y-10675389D02*
X7974968Y-10637293D01*
X7974968Y-10637293D02*
X7965444Y-10618246D01*
X7965444Y-10618246D02*
X7955920Y-10608722D01*
X7955920Y-10608722D02*
X7936872Y-10599198D01*
X8213063Y-10713484D02*
X8213063Y-10513484D01*
X8298777Y-10713484D02*
X8298777Y-10608722D01*
X8298777Y-10608722D02*
X8289253Y-10589674D01*
X8289253Y-10589674D02*
X8270206Y-10580150D01*
X8270206Y-10580150D02*
X8241634Y-10580150D01*
X8241634Y-10580150D02*
X8222587Y-10589674D01*
X8222587Y-10589674D02*
X8213063Y-10599198D01*
X8422587Y-10713484D02*
X8403539Y-10703960D01*
X8403539Y-10703960D02*
X8394015Y-10694436D01*
X8394015Y-10694436D02*
X8384491Y-10675389D01*
X8384491Y-10675389D02*
X8384491Y-10618246D01*
X8384491Y-10618246D02*
X8394015Y-10599198D01*
X8394015Y-10599198D02*
X8403539Y-10589674D01*
X8403539Y-10589674D02*
X8422587Y-10580150D01*
X8422587Y-10580150D02*
X8451158Y-10580150D01*
X8451158Y-10580150D02*
X8470206Y-10589674D01*
X8470206Y-10589674D02*
X8479730Y-10599198D01*
X8479730Y-10599198D02*
X8489253Y-10618246D01*
X8489253Y-10618246D02*
X8489253Y-10675389D01*
X8489253Y-10675389D02*
X8479730Y-10694436D01*
X8479730Y-10694436D02*
X8470206Y-10703960D01*
X8470206Y-10703960D02*
X8451158Y-10713484D01*
X8451158Y-10713484D02*
X8422587Y-10713484D01*
X8603539Y-10713484D02*
X8584492Y-10703960D01*
X8584492Y-10703960D02*
X8574968Y-10684912D01*
X8574968Y-10684912D02*
X8574968Y-10513484D01*
X8755920Y-10703960D02*
X8736873Y-10713484D01*
X8736873Y-10713484D02*
X8698777Y-10713484D01*
X8698777Y-10713484D02*
X8679730Y-10703960D01*
X8679730Y-10703960D02*
X8670206Y-10684912D01*
X8670206Y-10684912D02*
X8670206Y-10608722D01*
X8670206Y-10608722D02*
X8679730Y-10589674D01*
X8679730Y-10589674D02*
X8698777Y-10580150D01*
X8698777Y-10580150D02*
X8736873Y-10580150D01*
X8736873Y-10580150D02*
X8755920Y-10589674D01*
X8755920Y-10589674D02*
X8765444Y-10608722D01*
X8765444Y-10608722D02*
X8765444Y-10627770D01*
X8765444Y-10627770D02*
X8670206Y-10646817D01*
X8841634Y-10703960D02*
X8860682Y-10713484D01*
X8860682Y-10713484D02*
X8898777Y-10713484D01*
X8898777Y-10713484D02*
X8917825Y-10703960D01*
X8917825Y-10703960D02*
X8927349Y-10684912D01*
X8927349Y-10684912D02*
X8927349Y-10675389D01*
X8927349Y-10675389D02*
X8917825Y-10656341D01*
X8917825Y-10656341D02*
X8898777Y-10646817D01*
X8898777Y-10646817D02*
X8870206Y-10646817D01*
X8870206Y-10646817D02*
X8851158Y-10637293D01*
X8851158Y-10637293D02*
X8841634Y-10618246D01*
X8841634Y-10618246D02*
X8841634Y-10608722D01*
X8841634Y-10608722D02*
X8851158Y-10589674D01*
X8851158Y-10589674D02*
X8870206Y-10580150D01*
X8870206Y-10580150D02*
X8898777Y-10580150D01*
X8898777Y-10580150D02*
X8917825Y-10589674D01*
X8994015Y-10789674D02*
X9003539Y-10780150D01*
X9003539Y-10780150D02*
X9022587Y-10751579D01*
X9022587Y-10751579D02*
X9032111Y-10732531D01*
X9032111Y-10732531D02*
X9041634Y-10703960D01*
X9041634Y-10703960D02*
X9051158Y-10656341D01*
X9051158Y-10656341D02*
X9051158Y-10618246D01*
X9051158Y-10618246D02*
X9041634Y-10570627D01*
X9041634Y-10570627D02*
X9032111Y-10542055D01*
X9032111Y-10542055D02*
X9022587Y-10523008D01*
X9022587Y-10523008D02*
X9003539Y-10494436D01*
X9003539Y-10494436D02*
X8994015Y-10484912D01*
M02*
