M48
; DRILL file {KiCad 8.99.0-946-gf00a1ab517} date 2024-06-06T17:08:11+0700
; FORMAT={-:-/ absolute / inch / decimal}
; #@! TF.CreationDate,2024-06-06T17:08:11+07:00
; #@! TF.GenerationSoftware,Kicad,Pcbnew,8.99.0-946-gf00a1ab517
; #@! TF.FileFunction,NonPlated,1,2,NPTH
FMAT,2
INCH
; #@! TA.AperFunction,NonPlated,NPTH,ComponentDrill
T1C0.0669
; #@! TA.AperFunction,NonPlated,NPTH,ComponentDrill
T2C0.1200
; #@! TA.AperFunction,NonPlated,NPTH,ComponentDrill
T3C0.1201
; #@! TA.AperFunction,NonPlated,NPTH,ComponentDrill
T4C0.1570
; #@! TA.AperFunction,NonPlated,NPTH,ComponentDrill
T5C0.1575
%
G90
G05
T1
X0.257Y-1.2945
X0.3507Y-2.7945
X0.3507Y-3.5445
X0.4445Y-2.0445
X0.4445Y-4.2945
X0.5382Y-2.7945
X0.657Y-1.2945
X0.7287Y-3.5445
X0.7507Y-2.7945
X0.7507Y-3.5445
X0.8445Y-2.0445
X0.8445Y-4.2945
X0.9382Y-2.7945
X1.007Y-1.2945
X1.1287Y-3.5445
X1.1945Y-3.5445
X1.382Y-2.0445
X1.382Y-4.2945
X1.407Y-1.2945
X1.5695Y-2.7945
X1.5945Y-3.5445
X1.757Y-1.2945
X1.782Y-2.0445
X1.782Y-4.2945
X1.9445Y-3.5445
X1.9695Y-2.7945
X2.132Y-2.0445
X2.157Y-1.2945
X2.3195Y-2.7945
X2.3195Y-4.2945
X2.3445Y-3.5445
X2.507Y-1.2945
X2.532Y-2.0445
X2.6945Y-3.5445
X2.7195Y-2.7945
X2.7195Y-4.2945
X2.882Y-2.0445
X2.907Y-1.2945
X3.0695Y-2.7945
X3.0945Y-3.5445
X3.257Y-1.2945
X3.282Y-2.0445
X3.4445Y-3.5445
X3.4695Y-2.7945
X3.632Y-2.0445
X3.657Y-1.2945
X3.8195Y-2.7945
X3.8445Y-3.5445
X4.007Y-1.2945
X4.032Y-2.0445
X4.1945Y-3.5445
X4.2195Y-2.7945
X4.382Y-2.0445
X4.407Y-1.2945
X4.5695Y-2.7945
X4.5945Y-3.5445
X4.757Y-1.2945
X4.782Y-2.0445
X4.9445Y-3.5445
X4.9695Y-2.7945
X5.132Y-2.0445
X5.157Y-1.2945
X5.3195Y-2.7945
X5.3445Y-3.5445
X5.507Y-1.2945
X5.507Y-4.2945
X5.532Y-2.0445
X5.6945Y-3.5445
X5.7195Y-2.7945
X5.882Y-2.0445
X5.907Y-1.2945
X5.907Y-4.2945
X6.0695Y-2.7945
X6.0945Y-3.5445
X6.257Y-1.2945
X6.282Y-2.0445
X6.4445Y-3.5445
X6.4695Y-2.7945
X6.632Y-2.0445
X6.657Y-1.2945
X6.8195Y-2.7945
X6.8445Y-3.5445
X7.007Y-1.2945
X7.032Y-2.0445
X7.1945Y-3.5445
X7.2195Y-2.7945
X7.382Y-2.0445
X7.407Y-1.2945
X7.5695Y-2.7945
X7.5945Y-3.5445
X7.757Y-1.2945
X7.782Y-2.0445
X7.9445Y-3.5445
X7.9695Y-2.7945
X8.132Y-2.0445
X8.157Y-1.2945
X8.3195Y-2.7945
X8.3445Y-3.5445
X8.507Y-1.2945
X8.532Y-2.0445
X8.6945Y-3.5445
X8.6945Y-4.2945
X8.7195Y-2.7945
X8.882Y-2.0445
X8.907Y-1.2945
X9.0695Y-2.7945
X9.0945Y-3.5445
X9.0945Y-4.2945
X9.257Y-1.2945
X9.282Y-2.0445
X9.4695Y-2.7945
X9.632Y-2.0445
X9.632Y-4.2945
X9.657Y-1.2945
X9.7257Y-3.5445
X9.8195Y-2.7945
X10.007Y-1.2945
X10.032Y-2.0445
X10.032Y-4.2945
X10.1257Y-3.5445
X10.2195Y-2.7945
X10.2912Y-2.7945
X10.382Y-1.2945
X10.407Y-1.2945
X10.5695Y-2.0445
X10.5695Y-4.2945
X10.6632Y-2.4195
X10.6912Y-2.7945
X10.757Y-1.2945
X10.757Y-3.5445
X10.782Y-1.2945
X10.9695Y-2.0445
X10.9695Y-4.2945
X11.0632Y-2.4195
X11.157Y-1.2945
X11.157Y-3.5445
T2
X0.4587Y-3.2695
X1.3987Y-3.2695
X3.457Y-4.5695
X7.957Y-4.5695
X10.0212Y-2.5195
X10.112Y-1.0195
X10.9612Y-2.5195
X11.052Y-1.0195
T3
X11.1388Y-1.951
X11.1388Y-2.888
T4
X0.4587Y-3.8695
X1.3987Y-3.8695
X3.457Y-3.9695
X7.957Y-3.9695
X10.0212Y-3.1195
X10.112Y-1.6195
X10.9612Y-3.1195
X11.052Y-1.6195
T5
X0.457Y-1.2945
X0.5507Y-2.7945
X0.5507Y-3.5445
X0.6445Y-2.0445
X0.6445Y-4.2945
X0.7382Y-2.7945
X0.9287Y-3.5445
X1.207Y-1.2945
X1.3945Y-3.5445
X1.582Y-2.0445
X1.582Y-4.2945
X1.7695Y-2.7945
X1.957Y-1.2945
X2.1445Y-3.5445
X2.332Y-2.0445
X2.5195Y-2.7945
X2.5195Y-4.2945
X2.707Y-1.2945
X2.8945Y-3.5445
X3.082Y-2.0445
X3.2695Y-2.7945
X3.457Y-1.2945
X3.6445Y-3.5445
X3.832Y-2.0445
X4.0195Y-2.7945
X4.207Y-1.2945
X4.3945Y-3.5445
X4.582Y-2.0445
X4.7695Y-2.7945
X4.957Y-1.2945
X5.1445Y-3.5445
X5.332Y-2.0445
X5.5195Y-2.7945
X5.707Y-1.2945
X5.707Y-4.2945
X5.8945Y-3.5445
X6.082Y-2.0445
X6.2695Y-2.7945
X6.457Y-1.2945
X6.6445Y-3.5445
X6.832Y-2.0445
X7.0195Y-2.7945
X7.207Y-1.2945
X7.3945Y-3.5445
X7.582Y-2.0445
X7.7695Y-2.7945
X7.957Y-1.2945
X8.1445Y-3.5445
X8.332Y-2.0445
X8.5195Y-2.7945
X8.707Y-1.2945
X8.8945Y-3.5445
X8.8945Y-4.2945
X9.082Y-2.0445
X9.2695Y-2.7945
X9.457Y-1.2945
X9.832Y-2.0445
X9.832Y-4.2945
X9.9257Y-3.5445
X10.0195Y-2.7945
X10.207Y-1.2945
X10.4912Y-2.7945
X10.5388Y-1.951
X10.5388Y-2.888
X10.582Y-1.2945
X10.7695Y-2.0445
X10.7695Y-4.2945
X10.8632Y-2.4195
X10.957Y-1.2945
X10.957Y-3.5445
M30
