%TF.GenerationSoftware,KiCad,Pcbnew,8.99.0-946-gf00a1ab517*%
%TF.CreationDate,2024-06-06T17:08:12+07:00*%
%TF.ProjectId,Sebas_nuxros,53656261-735f-46e7-9578-726f732e6b69,rev?*%
%TF.SameCoordinates,Original*%
%TF.FileFunction,Drillmap*%
%TF.FilePolarity,Positive*%
%FSLAX45Y45*%
G04 Gerber Fmt 4.5, Leading zero omitted, Abs format (unit mm)*
G04 Created by KiCad (PCBNEW 8.99.0-946-gf00a1ab517) date 2024-06-06 17:08:12*
%MOMM*%
%LPD*%
G01*
G04 APERTURE LIST*
%ADD10C,0.500000*%
%ADD11C,0.150000*%
%ADD12C,0.200000*%
%ADD13C,0.170000*%
%ADD14C,0.304800*%
%ADD15C,0.305000*%
%ADD16C,0.398780*%
%ADD17C,0.400000*%
G04 APERTURE END LIST*
D10*
X5804702Y-11775635D02*
X5829926Y-11789571D01*
X28615084Y-2406072D02*
X28588348Y-2396100D01*
X2515565Y-11737686D02*
X2532620Y-11714456D01*
X3566570Y-2388000D02*
X1735237Y-2388000D01*
X18526304Y-11737687D02*
X18543361Y-11714460D01*
X3694038Y-2433883D02*
X3671590Y-2417791D01*
X28662973Y-11759149D02*
X28683150Y-11738972D01*
X10193524Y-11552958D02*
X10232207Y-11559529D01*
X10487921Y-11758219D02*
X10510881Y-11775634D01*
X27837707Y-11737685D02*
X27857925Y-11758222D01*
X9617832Y-11552953D02*
X9657009Y-11550754D01*
X10619958Y-11808000D02*
X18374050Y-11808000D01*
X27651545Y-11574684D02*
X27685412Y-11590013D01*
X3731259Y-2474520D02*
X3714055Y-2452913D01*
X1177572Y-2633155D02*
X1142257Y-2621494D01*
X18505710Y-2437844D02*
X18482743Y-2420405D01*
X1019082Y-2539965D02*
X994550Y-2512013D01*
X26326146Y-11590013D02*
X26358196Y-11608849D01*
X5066410Y-11789571D02*
X5091634Y-11775634D01*
X4391788Y-2404944D02*
X4367337Y-2417790D01*
X27087519Y-2390079D02*
X27058764Y-2388000D01*
X25153695Y-2576582D02*
X25120405Y-2594072D01*
X25914750Y-11656149D02*
X25942106Y-11630977D01*
X23164079Y-11789573D02*
X23189304Y-11775637D01*
X18565990Y-5249385D02*
G75*
G02*
X18045990Y-5249385I-260000J0D01*
G01*
X18045990Y-5249385D02*
G75*
G02*
X18565990Y-5249385I260000J0D01*
G01*
X24649079Y-2433884D02*
X24626632Y-2417793D01*
X10536496Y-2406454D02*
X10511260Y-2420409D01*
X18761797Y-11559527D02*
X18800480Y-11552957D01*
X405653Y-2396101D02*
X378917Y-2406074D01*
X10372882Y-2569148D02*
X10340865Y-2591876D01*
X4344889Y-2433881D02*
X4324872Y-2452912D01*
X9421111Y-2458404D02*
X9400891Y-2437843D01*
X2989978Y-11590013D02*
X3022028Y-11608849D01*
X19411325Y-2610879D02*
X19375052Y-2625910D01*
X26498661Y-11758219D02*
X26521620Y-11775636D01*
X23137114Y-11799739D02*
X23164079Y-11789573D01*
X462000Y-11808000D02*
X1004047Y-11808000D01*
X3594124Y-2389906D02*
X3566570Y-2388000D01*
X5466756Y-11551248D02*
X5503721Y-11555191D01*
X27579905Y-11555191D02*
X27616243Y-11563032D01*
X1662761Y-11608854D02*
X1692632Y-11630982D01*
X10372513Y-11627075D02*
X10401776Y-11653214D01*
X23637727Y-11563032D02*
X23673029Y-11574683D01*
X27468925Y-2641003D02*
X27432572Y-2633155D01*
X26073196Y-11563032D02*
X26109534Y-11555191D01*
X1488241Y-11551256D02*
X1525206Y-11555198D01*
X18621490Y-11627073D02*
X18653494Y-11604373D01*
X2884471Y-11555191D02*
X2920809Y-11563032D01*
X2956111Y-11574683D02*
X2989978Y-11590013D01*
X5829926Y-11789571D02*
X5856892Y-11799737D01*
X9409577Y-11653209D02*
X9438840Y-11627069D01*
X23352727Y-11608849D02*
X23384777Y-11590013D01*
X5671149Y-11630977D02*
X5698505Y-11656149D01*
X1878373Y-11799741D02*
X1906519Y-11805926D01*
X280074Y-2504917D02*
X270102Y-2531654D01*
X1108379Y-2606152D02*
X1076319Y-2587302D01*
X4094132Y-2617873D02*
X4057015Y-2623910D01*
X25239742Y-2504295D02*
X25213710Y-2531433D01*
X264036Y-2559537D02*
X262000Y-2588000D01*
X27505765Y-11551248D02*
X27542940Y-11551248D01*
X25971977Y-11608849D02*
X26004027Y-11590013D01*
X264036Y-11636463D02*
X270102Y-11664346D01*
X19610541Y-11682461D02*
X19633257Y-11714456D01*
X28532001Y-2388000D02*
X27990238Y-2388000D01*
X10488293Y-2437847D02*
X10468072Y-2458407D01*
X23601389Y-11555191D02*
X23637727Y-11563032D01*
X3840276Y-2576582D02*
X3809054Y-2555622D01*
X5287109Y-11590013D02*
X5320976Y-11574684D01*
X1046441Y-2565156D02*
X1019082Y-2539965D01*
X27115676Y-2396270D02*
X27087519Y-2390079D01*
X1706482Y-2390078D02*
X1678325Y-2396269D01*
X27774919Y-2539965D02*
X27747560Y-2565156D01*
X23706896Y-11590013D02*
X23738946Y-11608849D01*
X27880884Y-11775640D02*
X27906109Y-11789577D01*
X10469750Y-9003000D02*
G75*
G02*
X9949750Y-9003000I-260000J0D01*
G01*
X9949750Y-9003000D02*
G75*
G02*
X10469750Y-9003000I260000J0D01*
G01*
X19375052Y-2625910D02*
X19337323Y-2636783D01*
X19506974Y-2542978D02*
X19477704Y-2569150D01*
X27685412Y-11590013D02*
X27717462Y-11608849D01*
X26630699Y-11808000D02*
X27058740Y-11808000D01*
X2667859Y-11590013D02*
X2701726Y-11574684D01*
X24626632Y-2417793D02*
X24602181Y-2404948D01*
X27087483Y-11805924D02*
X27115629Y-11799738D01*
X378917Y-11789925D02*
X405654Y-11799898D01*
X23982706Y-11805924D02*
X24011449Y-11808000D01*
X23189304Y-11775637D02*
X23212263Y-11758220D01*
X25831513Y-11758220D02*
X25851731Y-11737685D01*
X9323434Y-11758218D02*
X9343652Y-11737683D01*
X19555837Y-2481660D02*
X19533128Y-2513692D01*
X973122Y-2481616D02*
X956068Y-2458371D01*
X2578582Y-11656149D02*
X2605938Y-11630977D01*
X27747333Y-11630977D02*
X27774689Y-11656149D01*
X19523118Y-11604368D02*
X19555124Y-11627069D01*
X4130387Y-2607888D02*
X4094132Y-2617873D01*
X27906109Y-11789577D02*
X27933074Y-11799743D01*
X3162493Y-11758219D02*
X3185452Y-11775635D01*
X1414103Y-11555198D02*
X1451067Y-11551256D01*
X28662974Y-2436849D02*
X28640130Y-2419748D01*
X2472386Y-11775637D02*
X2495346Y-11758221D01*
X1744519Y-11684084D02*
X1765950Y-11714459D01*
X28723899Y-11664346D02*
X28729965Y-11636463D01*
X19445687Y-2591879D02*
X19411325Y-2610879D01*
X3237642Y-11799737D02*
X3265788Y-11805923D01*
X9470845Y-11604369D02*
X9505189Y-11585394D01*
X5356278Y-11563032D02*
X5392616Y-11555191D01*
X23879411Y-11758219D02*
X23902370Y-11775636D01*
X27543096Y-2644949D02*
X27505906Y-2644949D01*
X1462682Y-2587302D02*
X1430622Y-2606152D01*
X23249538Y-11714456D02*
X23270968Y-11684080D01*
X1935262Y-11808000D02*
X2363306Y-11808000D01*
X18687495Y-2610878D02*
X18653133Y-2591879D01*
X23270968Y-11684080D02*
X23295500Y-11656149D01*
X28729966Y-2559537D02*
X28723900Y-2531653D01*
X9300474Y-11775634D02*
X9323434Y-11758218D01*
X5781743Y-11758219D02*
X5804702Y-11775635D01*
X28560464Y-2390034D02*
X28532001Y-2388000D01*
X26388067Y-11630977D02*
X26415423Y-11656149D01*
X9734590Y-2645564D02*
X9695388Y-2643362D01*
X27837932Y-2458370D02*
X27820879Y-2481616D01*
X18723769Y-2625910D02*
X18687495Y-2610878D01*
X9579148Y-11559523D02*
X9617832Y-11552953D01*
X23080224Y-11808000D02*
X23108967Y-11805924D01*
X27274082Y-2539965D02*
X27249550Y-2512013D01*
X27397257Y-2621494D02*
X27363379Y-2606152D01*
X18591846Y-2542978D02*
X18565691Y-2513693D01*
X5255059Y-11608849D02*
X5287109Y-11590013D01*
X27717462Y-11608849D02*
X27747333Y-11630977D01*
X10591641Y-2390080D02*
X10563477Y-2396274D01*
X27432462Y-11563032D02*
X27468800Y-11555191D01*
X5011299Y-11805923D02*
X5039445Y-11799737D01*
X5225188Y-11630977D02*
X5255059Y-11608849D01*
X18839656Y-11550764D02*
X19336951Y-11550754D01*
X10428307Y-2513690D02*
X10402152Y-2542976D01*
X27933324Y-2396267D02*
X27906349Y-2406441D01*
X5744467Y-11714456D02*
X5761524Y-11737684D01*
X10591215Y-11805920D02*
X10619958Y-11808000D01*
X27616243Y-11563032D02*
X27651545Y-11574684D01*
X4165362Y-2594072D02*
X4130387Y-2607888D01*
X25890218Y-11684080D02*
X25914750Y-11656149D01*
X10402152Y-2542976D02*
X10372882Y-2569148D01*
X1308597Y-11590020D02*
X1342464Y-11574690D01*
X5609228Y-11590013D02*
X5641278Y-11608849D01*
X26573809Y-11799738D02*
X26601956Y-11805924D01*
X23927594Y-11789572D02*
X23954559Y-11799738D01*
X27397160Y-11574684D02*
X27432462Y-11563032D01*
X23954559Y-11799738D02*
X23982706Y-11805924D01*
X1087901Y-11789574D02*
X1113125Y-11775638D01*
X3265788Y-11805923D02*
X3294531Y-11808000D01*
X27857925Y-11758222D02*
X27880884Y-11775640D01*
X19259410Y-2645565D02*
X18839410Y-2645565D01*
X19773827Y-11805923D02*
X19802570Y-11808000D01*
X9191396Y-11808000D02*
X9220139Y-11805923D01*
X3079255Y-11656149D02*
X3103787Y-11684080D01*
X27190847Y-2437822D02*
X27167883Y-2420392D01*
X10468072Y-2458407D02*
X10451017Y-2481660D01*
X1519919Y-2539965D02*
X1492559Y-2565156D01*
X10620403Y-2388000D02*
X10591641Y-2390080D01*
X3647139Y-2404946D02*
X3621152Y-2395591D01*
X803764Y-2388000D02*
X462000Y-2388000D01*
X27167883Y-2420392D02*
X27142651Y-2406445D01*
X5723037Y-11684080D02*
X5744467Y-11714456D01*
X19477704Y-2569150D02*
X19445687Y-2591879D01*
X10154348Y-11550759D02*
X10193524Y-11552958D01*
X26546844Y-11789572D02*
X26573809Y-11799738D01*
X27211067Y-2458372D02*
X27190847Y-2437822D01*
X2392049Y-11805924D02*
X2420196Y-11799739D01*
X27881116Y-2420389D02*
X27858152Y-2437819D01*
X28732001Y-2588000D02*
X28729966Y-2559537D01*
X4444804Y-2389906D02*
X4417775Y-2395590D01*
X19376128Y-11552953D02*
X19414813Y-11559523D01*
X9325705Y-2396269D02*
X9297541Y-2390076D01*
X25942106Y-11630977D02*
X25971977Y-11608849D01*
X3142274Y-11737684D02*
X3162493Y-11758219D01*
X1396744Y-2621495D02*
X1361429Y-2633155D01*
X3087867Y-5249382D02*
G75*
G02*
X2567867Y-5249382I-260000J0D01*
G01*
X2567867Y-5249382D02*
G75*
G02*
X3087867Y-5249382I260000J0D01*
G01*
X27580076Y-2641003D02*
X27543096Y-2644949D01*
X2737028Y-11563032D02*
X2773366Y-11555191D01*
X4417775Y-2395590D02*
X4391788Y-2404944D01*
X10451017Y-2481660D02*
X10428307Y-2513690D01*
X19533128Y-2513692D02*
X19506974Y-2542978D01*
X19555124Y-11627069D02*
X19584388Y-11653209D01*
X24899838Y-2617873D02*
X24863583Y-2607888D01*
X1032789Y-11805924D02*
X1060936Y-11799739D01*
X10427928Y-11682465D02*
X10450645Y-11714458D01*
X5134812Y-11737683D02*
X5151870Y-11714456D01*
X1565878Y-2481616D02*
X1544451Y-2512013D01*
X331028Y-2436850D02*
X310850Y-2457028D01*
X9618950Y-2625909D02*
X9582677Y-2610877D01*
X28640130Y-2419748D02*
X28615084Y-2406072D01*
X3908541Y-2607888D02*
X3873566Y-2594072D01*
X26521620Y-11775636D02*
X26546844Y-11789572D01*
X19693492Y-11775635D02*
X19718716Y-11789571D01*
X10563070Y-11799735D02*
X10591215Y-11805920D01*
X26292279Y-11574684D02*
X26326146Y-11590013D01*
X4307669Y-2474520D02*
X4284699Y-2504295D01*
X19633257Y-11714456D02*
X19650314Y-11737684D01*
X994550Y-2512013D02*
X973122Y-2481616D01*
X9343652Y-11737683D02*
X9360710Y-11714456D01*
X270102Y-11664346D02*
X280074Y-11691083D01*
X19452519Y-11570382D02*
X19488773Y-11585393D01*
X10306165Y-11585400D02*
X10340509Y-11604375D01*
X18506086Y-11758221D02*
X18526304Y-11737687D01*
X2363306Y-11808000D02*
X2392049Y-11805924D01*
X4258668Y-2531433D02*
X4229875Y-2555622D01*
X25262711Y-2474520D02*
X25239742Y-2504295D01*
X18761498Y-2636783D02*
X18723769Y-2625910D01*
X9220139Y-11805923D02*
X9248285Y-11799737D01*
X4472358Y-2388000D02*
X4444804Y-2389906D01*
X25120405Y-2594072D02*
X25085430Y-2607888D01*
X18687839Y-11585397D02*
X18724092Y-11570386D01*
X25299933Y-2433883D02*
X25279916Y-2452913D01*
X1525206Y-11555198D02*
X1561544Y-11563039D01*
X26109534Y-11555191D02*
X26146499Y-11551248D01*
X23738946Y-11608849D02*
X23768817Y-11630977D01*
X27685623Y-2606152D02*
X27651744Y-2621495D01*
X27747560Y-2565156D02*
X27717682Y-2587302D01*
X9383424Y-11682461D02*
X9409577Y-11653209D01*
X1430622Y-2606152D02*
X1396744Y-2621495D01*
X1276548Y-11608854D02*
X1308597Y-11590020D01*
X23820705Y-11684080D02*
X23842135Y-11714456D01*
X10232502Y-2636782D02*
X10193793Y-2643363D01*
X23842135Y-11714456D02*
X23859192Y-11737684D01*
X9438840Y-11627069D02*
X9470845Y-11604369D01*
X18089750Y-9003000D02*
G75*
G02*
X17569750Y-9003000I-260000J0D01*
G01*
X17569750Y-9003000D02*
G75*
G02*
X18089750Y-9003000I260000J0D01*
G01*
X433537Y-11805963D02*
X462000Y-11808000D01*
X26004027Y-11590013D02*
X26037894Y-11574684D01*
X10563477Y-2396274D02*
X10536496Y-2406454D01*
X24828608Y-2594072D02*
X24795318Y-2576582D01*
X5197832Y-11656149D02*
X5225188Y-11630977D01*
X26601956Y-11805924D02*
X26630699Y-11808000D01*
X23527249Y-11551248D02*
X23564424Y-11551248D01*
X1851408Y-11789575D02*
X1878373Y-11799741D01*
X2810331Y-11551248D02*
X2847506Y-11551248D01*
X23768817Y-11630977D02*
X23796173Y-11656149D01*
X27228123Y-2481616D02*
X27211067Y-2458372D01*
X19593113Y-2437847D02*
X19572892Y-2458407D01*
X9248285Y-11799737D02*
X9275250Y-11789571D01*
X3944796Y-2617873D02*
X3908541Y-2607888D01*
X1783007Y-11737687D02*
X1803224Y-11758222D01*
X310850Y-11738972D02*
X331028Y-11759149D01*
X10510881Y-11775634D02*
X10536105Y-11789569D01*
X24795318Y-2576582D02*
X24764096Y-2555622D01*
X25184917Y-2555622D02*
X25153695Y-2576582D01*
X19670532Y-11758219D02*
X19693492Y-11775635D01*
X1142257Y-2621494D02*
X1108379Y-2606152D01*
X27142651Y-2406445D02*
X27115676Y-2396270D01*
X23108967Y-11805924D02*
X23137114Y-11799739D01*
X5885038Y-11805923D02*
X5913781Y-11808000D01*
X1219321Y-11656153D02*
X1246677Y-11630982D01*
X27717682Y-2587302D02*
X27685623Y-2606152D01*
X24576194Y-2395594D02*
X24549166Y-2389909D01*
X18800480Y-11552957D02*
X18839656Y-11550764D01*
X28713928Y-2504917D02*
X28700252Y-2479871D01*
X23490284Y-11555191D02*
X23527249Y-11551248D01*
X1136085Y-11758222D02*
X1156304Y-11737688D01*
X26256977Y-11563032D02*
X26292279Y-11574684D01*
X10340509Y-11604375D02*
X10372513Y-11627075D01*
X280074Y-11691083D02*
X293750Y-11716128D01*
X28723900Y-2531653D02*
X28713928Y-2504917D01*
X1361429Y-2633155D02*
X1325076Y-2641003D01*
X25728217Y-11805924D02*
X25756364Y-11799739D01*
X27058764Y-2388000D02*
X25427400Y-2388000D01*
X27115629Y-11799738D02*
X27142595Y-11789572D01*
X832519Y-2390075D02*
X803764Y-2388000D01*
X1377765Y-11563039D02*
X1414103Y-11555198D01*
X5641278Y-11608849D02*
X5671149Y-11630977D01*
X19718716Y-11789571D02*
X19745681Y-11799738D01*
X5761524Y-11737684D02*
X5781743Y-11758219D01*
X27651744Y-2621495D02*
X27616429Y-2633155D01*
X5429581Y-11551248D02*
X5466756Y-11551248D01*
X26358196Y-11608849D02*
X26388067Y-11630977D01*
X1651350Y-2406444D02*
X1626119Y-2420392D01*
X2773366Y-11555191D02*
X2810331Y-11551248D01*
X1060936Y-11799739D02*
X1087901Y-11789574D01*
X9516298Y-2569148D02*
X9487029Y-2542976D01*
X10193793Y-2643363D02*
X10154590Y-2645564D01*
X23232481Y-11737685D02*
X23249538Y-11714456D01*
X1678325Y-2396269D02*
X1651350Y-2406444D01*
X2420196Y-11799739D02*
X2447162Y-11789573D01*
X19641316Y-2406454D02*
X19616080Y-2420408D01*
X9505189Y-11585394D02*
X9541442Y-11570382D01*
X19650314Y-11737684D02*
X19670532Y-11758219D01*
X27228054Y-11714456D02*
X27249484Y-11684080D01*
X1342464Y-11574690D02*
X1377765Y-11563039D01*
X27505906Y-2644949D02*
X27468925Y-2641003D01*
X27363379Y-2606152D02*
X27331320Y-2587302D01*
X27799221Y-11684080D02*
X27820651Y-11714456D01*
X28588347Y-11799898D02*
X28615084Y-11789926D01*
X2847506Y-11551248D02*
X2884471Y-11555191D01*
X5173300Y-11684080D02*
X5197832Y-11656149D01*
X27799451Y-2512013D02*
X27774919Y-2539965D01*
X27961482Y-2390077D02*
X27933324Y-2396267D01*
X1735237Y-2388000D02*
X1706482Y-2390078D01*
X25085430Y-2607888D02*
X25049174Y-2617873D01*
X462000Y-2388000D02*
X433537Y-2390036D01*
X27210997Y-11737684D02*
X27228054Y-11714456D01*
X9695388Y-2643362D02*
X9656679Y-2636783D01*
X3671590Y-2417791D02*
X3647139Y-2404946D01*
X9352687Y-2406450D02*
X9325705Y-2396269D01*
X1826184Y-11775639D02*
X1851408Y-11789575D01*
X5503721Y-11555191D02*
X5540059Y-11563032D01*
X24602181Y-2404948D02*
X24576194Y-2395594D01*
X26146499Y-11551248D02*
X26183674Y-11551248D01*
X1250905Y-2644949D02*
X1213925Y-2641003D01*
X2554050Y-11684080D02*
X2578582Y-11656149D01*
X9400891Y-2437843D02*
X9377923Y-2420404D01*
X25049174Y-2617873D02*
X25012057Y-2623910D01*
X28532001Y-11808000D02*
X28560464Y-11805964D01*
X5392616Y-11555191D02*
X5429581Y-11551248D01*
X24709271Y-2504295D02*
X24686301Y-2474520D01*
X25783329Y-11789573D02*
X25808554Y-11775637D01*
X23212263Y-11758220D02*
X23232481Y-11737685D01*
X3873566Y-2594072D02*
X3840276Y-2576582D01*
X18525931Y-2458405D02*
X18505710Y-2437844D01*
X10232207Y-11559529D02*
X10269912Y-11570388D01*
X860677Y-2396266D02*
X832519Y-2390075D01*
X10154590Y-2645564D02*
X9734590Y-2645564D01*
X9377923Y-2420404D02*
X9352687Y-2406450D01*
X18592228Y-11653213D02*
X18621490Y-11627073D01*
X25399847Y-2389907D02*
X25372818Y-2395592D01*
X10269912Y-11570388D02*
X10306165Y-11585400D01*
X2701726Y-11574684D02*
X2737028Y-11563032D01*
X956068Y-2458371D02*
X935848Y-2437820D01*
X3210676Y-11789571D02*
X3237642Y-11799737D01*
X9297541Y-2390076D02*
X9268778Y-2388000D01*
X24521613Y-2388000D02*
X19725223Y-2388000D01*
X4324872Y-2452912D02*
X4307669Y-2474520D01*
X19616080Y-2420408D02*
X19593113Y-2437847D01*
X19745681Y-11799738D02*
X19773827Y-11805923D01*
X1076319Y-2587302D02*
X1046441Y-2565156D01*
X935848Y-2437820D02*
X912883Y-2420389D01*
X18483127Y-11775637D02*
X18506086Y-11758221D01*
X1561544Y-11563039D02*
X1596845Y-11574690D01*
X27933074Y-11799743D02*
X27961221Y-11805929D01*
X3051899Y-11630977D02*
X3079255Y-11656149D01*
X27820879Y-2481616D02*
X27799451Y-2512013D01*
X18430938Y-11799739D02*
X18457903Y-11789573D01*
X19572892Y-2458407D02*
X19555837Y-2481660D01*
X18543361Y-11714460D02*
X18566075Y-11682465D01*
X3981913Y-2623910D02*
X3944796Y-2617873D01*
X795513Y-10431750D02*
G75*
G02*
X575513Y-10431750I-110000J0D01*
G01*
X575513Y-10431750D02*
G75*
G02*
X795513Y-10431750I110000J0D01*
G01*
X262000Y-2588000D02*
X262000Y-11608000D01*
X18724092Y-11570386D02*
X18761797Y-11559527D01*
X27906349Y-2406441D02*
X27881116Y-2420389D01*
X1492559Y-2565156D02*
X1462682Y-2587302D01*
X27858152Y-2437819D02*
X27837932Y-2458370D01*
X2635809Y-11608849D02*
X2667859Y-11590013D01*
X4057015Y-2623910D02*
X4019464Y-2625931D01*
X1596845Y-11574690D02*
X1630711Y-11590020D01*
X4019464Y-2625931D02*
X3981913Y-2623910D01*
X5039445Y-11799737D02*
X5066410Y-11789571D01*
X28732001Y-11608000D02*
X28732001Y-2588000D01*
X5114594Y-11758218D02*
X5134812Y-11737683D01*
X433537Y-2390036D02*
X405653Y-2396101D01*
X26467255Y-9995567D02*
G75*
G02*
X25857255Y-9995567I-305000J0D01*
G01*
X25857255Y-9995567D02*
G75*
G02*
X26467255Y-9995567I305000J0D01*
G01*
X5575361Y-11574683D02*
X5609228Y-11590013D01*
X1719987Y-11656153D02*
X1744519Y-11684084D01*
X1173359Y-11714459D02*
X1194789Y-11684084D01*
X1213925Y-2641003D02*
X1177572Y-2633155D01*
X18800207Y-2643363D02*
X18761498Y-2636783D01*
X26037894Y-11574684D02*
X26073196Y-11563032D01*
X1582935Y-2458373D02*
X1565878Y-2481616D01*
X5320976Y-11574684D02*
X5356278Y-11563032D01*
X1544451Y-2512013D02*
X1519919Y-2539965D01*
X1004047Y-11808000D02*
X1032789Y-11805924D01*
X23418644Y-11574684D02*
X23453946Y-11563032D01*
X23859192Y-11737684D02*
X23879411Y-11758219D01*
X25851731Y-11737685D02*
X25868788Y-11714456D01*
X25808554Y-11775637D02*
X25831513Y-11758220D01*
X3294531Y-11808000D02*
X4982556Y-11808000D01*
X27190778Y-11758219D02*
X27210997Y-11737684D01*
X25346831Y-2404946D02*
X25322380Y-2417792D01*
X1325076Y-2641003D02*
X1288096Y-2644949D01*
X27363293Y-11590013D02*
X27397160Y-11574684D01*
X19337323Y-2636783D02*
X19298613Y-2643362D01*
X2447162Y-11789573D02*
X2472386Y-11775637D01*
X28700251Y-11716128D02*
X28713927Y-11691083D01*
X26439954Y-11684080D02*
X26461385Y-11714456D01*
X3780261Y-2531433D02*
X3754229Y-2504295D01*
X2605938Y-11630977D02*
X2635809Y-11608849D01*
X24974506Y-2625931D02*
X24936956Y-2623910D01*
X24011449Y-11808000D02*
X25699474Y-11808000D01*
X18457903Y-11789573D02*
X18483127Y-11775637D01*
X1246677Y-11630982D02*
X1276548Y-11608854D01*
X9268778Y-2388000D02*
X4472358Y-2388000D01*
X1288096Y-2644949D02*
X1250905Y-2644949D01*
X5698505Y-11656149D02*
X5723037Y-11684080D01*
X9657009Y-11550754D02*
X10154348Y-11550759D01*
X293750Y-11716128D02*
X310850Y-11738972D01*
X5856892Y-11799737D02*
X5885038Y-11805923D01*
X2495346Y-11758221D02*
X2515565Y-11737686D01*
X9656679Y-2636783D02*
X9618950Y-2625909D01*
X1156304Y-11737688D02*
X1173359Y-11714459D01*
X19488773Y-11585393D02*
X19523118Y-11604368D01*
X10270231Y-2625908D02*
X10232502Y-2636782D01*
X18482743Y-2420405D02*
X18457506Y-2406450D01*
X25322380Y-2417792D02*
X25299933Y-2433883D01*
X18542984Y-2481660D02*
X18525931Y-2458405D01*
X10511260Y-2420409D02*
X10488293Y-2437847D01*
X19696461Y-2390080D02*
X19668297Y-2396274D01*
X9360710Y-11714456D02*
X9383424Y-11682461D01*
X9438164Y-2481660D02*
X9421111Y-2458404D01*
X26183674Y-11551248D02*
X26220639Y-11555191D01*
X18457506Y-2406450D02*
X18430525Y-2396270D01*
X25372818Y-2395592D02*
X25346831Y-2404946D01*
X10450645Y-11714458D02*
X10467703Y-11737684D01*
X24549166Y-2389909D02*
X24521613Y-2388000D01*
X28729965Y-11636463D02*
X28732001Y-11608000D01*
X331028Y-11759149D02*
X353872Y-11776250D01*
X1906519Y-11805926D02*
X1935262Y-11808000D01*
X1630711Y-11590020D02*
X1662761Y-11608854D01*
X9460875Y-2513690D02*
X9438164Y-2481660D01*
X27167819Y-11775636D02*
X27190778Y-11758219D01*
X27432572Y-2633155D02*
X27397257Y-2621494D01*
X24669097Y-2452914D02*
X24649079Y-2433884D01*
X405654Y-11799898D02*
X433537Y-11805963D01*
X3103787Y-11684080D02*
X3125217Y-11714456D01*
X27301442Y-2565156D02*
X27274082Y-2539965D01*
X27331320Y-2587302D02*
X27301442Y-2565156D01*
X24174427Y-9004126D02*
G75*
G02*
X23644427Y-9004126I-265000J0D01*
G01*
X23644427Y-9004126D02*
G75*
G02*
X24174427Y-9004126I265000J0D01*
G01*
X26461385Y-11714456D02*
X26478442Y-11737684D01*
X27274016Y-11656149D02*
X27301372Y-11630977D01*
X3754229Y-2504295D02*
X3731259Y-2474520D01*
X28560464Y-11805964D02*
X28588347Y-11799898D01*
X5151870Y-11714456D02*
X5173300Y-11684080D01*
X24863583Y-2607888D02*
X24828608Y-2594072D01*
X24764096Y-2555622D02*
X24735303Y-2531433D01*
X4982556Y-11808000D02*
X5011299Y-11805923D01*
X27774689Y-11656149D02*
X27799221Y-11684080D01*
X293750Y-2479872D02*
X280074Y-2504917D01*
X19584388Y-11653209D02*
X19610541Y-11682461D01*
X28588348Y-2396100D02*
X28560464Y-2390034D01*
X1603155Y-2437822D02*
X1582935Y-2458373D01*
X23453946Y-11563032D02*
X23490284Y-11555191D01*
X18621116Y-2569150D02*
X18591846Y-2542978D01*
X1803224Y-11758222D02*
X1826184Y-11775639D01*
X26220639Y-11555191D02*
X26256977Y-11563032D01*
X25756364Y-11799739D02*
X25783329Y-11789573D01*
X10340865Y-2591876D02*
X10306504Y-2610876D01*
X1765950Y-11714459D02*
X1783007Y-11737687D01*
X26415423Y-11656149D02*
X26439954Y-11684080D01*
X18565691Y-2513693D02*
X18542984Y-2481660D01*
X28683150Y-11738972D02*
X28700251Y-11716128D01*
X3621152Y-2395591D02*
X3594124Y-2389906D01*
X378917Y-2406074D02*
X353872Y-2419749D01*
X10945990Y-5249385D02*
G75*
G02*
X10425990Y-5249385I-260000J0D01*
G01*
X10425990Y-5249385D02*
G75*
G02*
X10945990Y-5249385I260000J0D01*
G01*
X27820651Y-11714456D02*
X27837707Y-11737685D01*
X1692632Y-11630982D02*
X1719987Y-11656153D01*
X4367337Y-2417790D02*
X4344889Y-2433881D01*
X2920809Y-11563032D02*
X2956111Y-11574683D01*
X26478442Y-11737684D02*
X26498661Y-11758219D01*
X3714055Y-2452913D02*
X3694038Y-2433883D01*
X27542940Y-11551248D02*
X27579905Y-11555191D01*
X19336951Y-11550754D02*
X19376128Y-11552953D01*
X19298613Y-2643362D02*
X19259410Y-2645565D01*
X24686301Y-2474520D02*
X24669097Y-2452914D01*
X2532620Y-11714456D02*
X2554050Y-11684080D01*
X25012057Y-2623910D02*
X24974506Y-2625931D01*
X23564424Y-11551248D02*
X23601389Y-11555191D01*
X27468800Y-11555191D02*
X27505765Y-11551248D01*
X3022028Y-11608849D02*
X3051899Y-11630977D01*
X4284699Y-2504295D02*
X4258668Y-2531433D01*
X2934751Y-9995567D02*
G75*
G02*
X2324751Y-9995567I-305000J0D01*
G01*
X2324751Y-9995567D02*
G75*
G02*
X2934751Y-9995567I305000J0D01*
G01*
X19725223Y-2388000D02*
X19696461Y-2390080D01*
X3185452Y-11775635D02*
X3210676Y-11789571D01*
X27058740Y-11808000D02*
X27087483Y-11805924D01*
X25213710Y-2531433D02*
X25184917Y-2555622D01*
X10306504Y-2610876D02*
X10270231Y-2625908D01*
X25427400Y-2388000D02*
X25399847Y-2389907D01*
X28700252Y-2479871D02*
X28683151Y-2457027D01*
X18653133Y-2591879D02*
X18621116Y-2569150D01*
X28683151Y-2457027D02*
X28662974Y-2436849D01*
X310850Y-2457028D02*
X293750Y-2479872D01*
X9275250Y-11789571D02*
X9300474Y-11775634D01*
X18839410Y-2645565D02*
X18800207Y-2643363D01*
X18402360Y-2390076D02*
X18373597Y-2388000D01*
X23384777Y-11590013D02*
X23418644Y-11574684D01*
X18566075Y-11682465D02*
X18592228Y-11653213D01*
X262000Y-11608000D02*
X264036Y-11636463D01*
X26424125Y-5249382D02*
G75*
G02*
X25904125Y-5249382I-260000J0D01*
G01*
X25904125Y-5249382D02*
G75*
G02*
X26424125Y-5249382I260000J0D01*
G01*
X270102Y-2531654D02*
X264036Y-2559537D01*
X19802570Y-11808000D02*
X23080224Y-11808000D01*
X18374050Y-11808000D02*
X18402792Y-11805924D01*
X27961221Y-11805929D02*
X27989965Y-11808000D01*
X353872Y-2419749D02*
X331028Y-2436850D01*
X9487029Y-2542976D02*
X9460875Y-2513690D01*
X27616429Y-2633155D02*
X27580076Y-2641003D01*
X18653494Y-11604373D02*
X18687839Y-11585397D01*
X27301372Y-11630977D02*
X27331243Y-11608849D01*
X887652Y-2406441D02*
X860677Y-2396266D01*
X25279916Y-2452913D02*
X25262711Y-2474520D01*
X4759750Y-9004114D02*
G75*
G02*
X4229750Y-9004114I-265000J0D01*
G01*
X4229750Y-9004114D02*
G75*
G02*
X4759750Y-9004114I265000J0D01*
G01*
X1113125Y-11775638D02*
X1136085Y-11758222D01*
X9541442Y-11570382D02*
X9579148Y-11559523D01*
X3125217Y-11714456D02*
X3142274Y-11737684D01*
X25699474Y-11808000D02*
X25728217Y-11805924D01*
X10536105Y-11789569D02*
X10563070Y-11799735D01*
X18402792Y-11805924D02*
X18430938Y-11799739D01*
X10467703Y-11737684D02*
X10487921Y-11758219D01*
X4198653Y-2576582D02*
X4165362Y-2594072D01*
X353872Y-11776250D02*
X378917Y-11789925D01*
X27990238Y-2388000D02*
X27961482Y-2390077D01*
X25868788Y-11714456D02*
X25890218Y-11684080D01*
X5091634Y-11775634D02*
X5114594Y-11758218D01*
X23902370Y-11775636D02*
X23927594Y-11789572D01*
X28713927Y-11691083D02*
X28723899Y-11664346D01*
X23295500Y-11656149D02*
X23322856Y-11630977D01*
X27249550Y-2512013D02*
X27228123Y-2481616D01*
X9582677Y-2610877D02*
X9548315Y-2591877D01*
X23796173Y-11656149D02*
X23820705Y-11684080D01*
X1194789Y-11684084D02*
X1219321Y-11656153D01*
X27142595Y-11789572D02*
X27167819Y-11775636D01*
X19414813Y-11559523D02*
X19452519Y-11570382D01*
X3809054Y-2555622D02*
X3780261Y-2531433D01*
X24936956Y-2623910D02*
X24899838Y-2617873D01*
X4229875Y-2555622D02*
X4198653Y-2576582D01*
X27989965Y-11808000D02*
X28532001Y-11808000D01*
X9548315Y-2591877D02*
X9516298Y-2569148D01*
X18430525Y-2396270D02*
X18402360Y-2390076D01*
X27331243Y-11608849D02*
X27363293Y-11590013D01*
X28640129Y-11776250D02*
X28662973Y-11759149D01*
X19668297Y-2396274D02*
X19641316Y-2406454D01*
X5913781Y-11808000D02*
X9191396Y-11808000D01*
X912883Y-2420389D02*
X887652Y-2406441D01*
X5540059Y-11563032D02*
X5575361Y-11574683D01*
X28615084Y-11789926D02*
X28640129Y-11776250D01*
X10401776Y-11653214D02*
X10427928Y-11682465D01*
X24735303Y-2531433D02*
X24709271Y-2504295D01*
X1451067Y-11551256D02*
X1488241Y-11551256D01*
X1626119Y-2420392D02*
X1603155Y-2437822D01*
X23673029Y-11574683D02*
X23706896Y-11590013D01*
X18373597Y-2388000D02*
X10620403Y-2388000D01*
X23322856Y-11630977D02*
X23352727Y-11608849D01*
X27249484Y-11684080D02*
X27274016Y-11656149D01*
D11*
X1167750Y-7779750D02*
X1167750Y-7439750D01*
X1547750Y-7439750D02*
X1167750Y-7439750D01*
X1547750Y-7779750D02*
X1167750Y-7779750D01*
X1547750Y-7779750D02*
X1547750Y-7439750D01*
X1687000Y-7781000D02*
X1687000Y-7441000D01*
X2067000Y-7441000D02*
X1687000Y-7441000D01*
X2067000Y-7781000D02*
X1687000Y-7781000D01*
X2067000Y-7781000D02*
X2067000Y-7441000D01*
D12*
D13*
X567750Y-3203000D02*
X737750Y-3373000D01*
X737750Y-3203000D02*
X567750Y-3373000D01*
X805850Y-7013000D02*
X975850Y-7183000D01*
X975850Y-7013000D02*
X805850Y-7183000D01*
X805850Y-8918000D02*
X975850Y-9088000D01*
X975850Y-8918000D02*
X805850Y-9088000D01*
X1044050Y-5108000D02*
X1214050Y-5278000D01*
X1214050Y-5108000D02*
X1044050Y-5278000D01*
X1044050Y-10823000D02*
X1214050Y-10993000D01*
X1214050Y-10823000D02*
X1044050Y-10993000D01*
X1282150Y-7013000D02*
X1452150Y-7183000D01*
X1452150Y-7013000D02*
X1282150Y-7183000D01*
X1583750Y-3203000D02*
X1753750Y-3373000D01*
X1753750Y-3203000D02*
X1583750Y-3373000D01*
X1765810Y-8918000D02*
X1935810Y-9088000D01*
X1935810Y-8918000D02*
X1765810Y-9088000D01*
X1821850Y-7013000D02*
X1991850Y-7183000D01*
X1991850Y-7013000D02*
X1821850Y-7183000D01*
X1821850Y-8918000D02*
X1991850Y-9088000D01*
X1991850Y-8918000D02*
X1821850Y-9088000D01*
X2060050Y-5108000D02*
X2230050Y-5278000D01*
X2230050Y-5108000D02*
X2060050Y-5278000D01*
X2060050Y-10823000D02*
X2230050Y-10993000D01*
X2230050Y-10823000D02*
X2060050Y-10993000D01*
X2298150Y-7013000D02*
X2468150Y-7183000D01*
X2468150Y-7013000D02*
X2298150Y-7183000D01*
X2472750Y-3203000D02*
X2642750Y-3373000D01*
X2642750Y-3203000D02*
X2472750Y-3373000D01*
X2781810Y-8918000D02*
X2951810Y-9088000D01*
X2951810Y-8918000D02*
X2781810Y-9088000D01*
X2949000Y-8918000D02*
X3119000Y-9088000D01*
X3119000Y-8918000D02*
X2949000Y-9088000D01*
X3425250Y-5108000D02*
X3595250Y-5278000D01*
X3595250Y-5108000D02*
X3425250Y-5278000D01*
X3425250Y-10823000D02*
X3595250Y-10993000D01*
X3595250Y-10823000D02*
X3425250Y-10993000D01*
X3488750Y-3203000D02*
X3658750Y-3373000D01*
X3658750Y-3203000D02*
X3488750Y-3373000D01*
X3901500Y-7013000D02*
X4071500Y-7183000D01*
X4071500Y-7013000D02*
X3901500Y-7183000D01*
X3965000Y-8918000D02*
X4135000Y-9088000D01*
X4135000Y-8918000D02*
X3965000Y-9088000D01*
X4377750Y-3203000D02*
X4547750Y-3373000D01*
X4547750Y-3203000D02*
X4377750Y-3373000D01*
X4441250Y-5108000D02*
X4611250Y-5278000D01*
X4611250Y-5108000D02*
X4441250Y-5278000D01*
X4441250Y-10823000D02*
X4611250Y-10993000D01*
X4611250Y-10823000D02*
X4441250Y-10993000D01*
X4854000Y-8918000D02*
X5024000Y-9088000D01*
X5024000Y-8918000D02*
X4854000Y-9088000D01*
X4917500Y-7013000D02*
X5087500Y-7183000D01*
X5087500Y-7013000D02*
X4917500Y-7183000D01*
X5330250Y-5108000D02*
X5500250Y-5278000D01*
X5500250Y-5108000D02*
X5330250Y-5278000D01*
X5393750Y-3203000D02*
X5563750Y-3373000D01*
X5563750Y-3203000D02*
X5393750Y-3373000D01*
X5806500Y-7013000D02*
X5976500Y-7183000D01*
X5976500Y-7013000D02*
X5806500Y-7183000D01*
X5806550Y-10823000D02*
X5976550Y-10993000D01*
X5976550Y-10823000D02*
X5806550Y-10993000D01*
X5870000Y-8918000D02*
X6040000Y-9088000D01*
X6040000Y-8918000D02*
X5870000Y-9088000D01*
X6282750Y-3203000D02*
X6452750Y-3373000D01*
X6452750Y-3203000D02*
X6282750Y-3373000D01*
X6346250Y-5108000D02*
X6516250Y-5278000D01*
X6516250Y-5108000D02*
X6346250Y-5278000D01*
X6759000Y-8918000D02*
X6929000Y-9088000D01*
X6929000Y-8918000D02*
X6759000Y-9088000D01*
X6822500Y-7013000D02*
X6992500Y-7183000D01*
X6992500Y-7013000D02*
X6822500Y-7183000D01*
X6822550Y-10823000D02*
X6992550Y-10993000D01*
X6992550Y-10823000D02*
X6822550Y-10993000D01*
X7235250Y-5108000D02*
X7405250Y-5278000D01*
X7405250Y-5108000D02*
X7235250Y-5278000D01*
X7298750Y-3203000D02*
X7468750Y-3373000D01*
X7468750Y-3203000D02*
X7298750Y-3373000D01*
X7711500Y-7013000D02*
X7881500Y-7183000D01*
X7881500Y-7013000D02*
X7711500Y-7183000D01*
X7775000Y-8918000D02*
X7945000Y-9088000D01*
X7945000Y-8918000D02*
X7775000Y-9088000D01*
X8187750Y-3203000D02*
X8357750Y-3373000D01*
X8357750Y-3203000D02*
X8187750Y-3373000D01*
X8251250Y-5108000D02*
X8421250Y-5278000D01*
X8421250Y-5108000D02*
X8251250Y-5278000D01*
X8664000Y-8918000D02*
X8834000Y-9088000D01*
X8834000Y-8918000D02*
X8664000Y-9088000D01*
X8727500Y-7013000D02*
X8897500Y-7183000D01*
X8897500Y-7013000D02*
X8727500Y-7183000D01*
X9140250Y-5108000D02*
X9310250Y-5278000D01*
X9310250Y-5108000D02*
X9140250Y-5278000D01*
X9203750Y-3203000D02*
X9373750Y-3373000D01*
X9373750Y-3203000D02*
X9203750Y-3373000D01*
X9616500Y-7013000D02*
X9786500Y-7183000D01*
X9786500Y-7013000D02*
X9616500Y-7183000D01*
X9680000Y-8918000D02*
X9850000Y-9088000D01*
X9850000Y-8918000D02*
X9680000Y-9088000D01*
X10092750Y-3203000D02*
X10262750Y-3373000D01*
X10262750Y-3203000D02*
X10092750Y-3373000D01*
X10156250Y-5108000D02*
X10326250Y-5278000D01*
X10326250Y-5108000D02*
X10156250Y-5278000D01*
X10569000Y-8918000D02*
X10739000Y-9088000D01*
X10739000Y-8918000D02*
X10569000Y-9088000D01*
X10632500Y-7013000D02*
X10802500Y-7183000D01*
X10802500Y-7013000D02*
X10632500Y-7183000D01*
X11045250Y-5108000D02*
X11215250Y-5278000D01*
X11215250Y-5108000D02*
X11045250Y-5278000D01*
X11108750Y-3203000D02*
X11278750Y-3373000D01*
X11278750Y-3203000D02*
X11108750Y-3373000D01*
X11521500Y-7013000D02*
X11691500Y-7183000D01*
X11691500Y-7013000D02*
X11521500Y-7183000D01*
X11585000Y-8918000D02*
X11755000Y-9088000D01*
X11755000Y-8918000D02*
X11585000Y-9088000D01*
X11997750Y-3203000D02*
X12167750Y-3373000D01*
X12167750Y-3203000D02*
X11997750Y-3373000D01*
X12061250Y-5108000D02*
X12231250Y-5278000D01*
X12231250Y-5108000D02*
X12061250Y-5278000D01*
X12474000Y-8918000D02*
X12644000Y-9088000D01*
X12644000Y-8918000D02*
X12474000Y-9088000D01*
X12537500Y-7013000D02*
X12707500Y-7183000D01*
X12707500Y-7013000D02*
X12537500Y-7183000D01*
X12950250Y-5108000D02*
X13120250Y-5278000D01*
X13120250Y-5108000D02*
X12950250Y-5278000D01*
X13013750Y-3203000D02*
X13183750Y-3373000D01*
X13183750Y-3203000D02*
X13013750Y-3373000D01*
X13426500Y-7013000D02*
X13596500Y-7183000D01*
X13596500Y-7013000D02*
X13426500Y-7183000D01*
X13490000Y-8918000D02*
X13660000Y-9088000D01*
X13660000Y-8918000D02*
X13490000Y-9088000D01*
X13902750Y-3203000D02*
X14072750Y-3373000D01*
X14072750Y-3203000D02*
X13902750Y-3373000D01*
X13902750Y-10823000D02*
X14072750Y-10993000D01*
X14072750Y-10823000D02*
X13902750Y-10993000D01*
X13966250Y-5108000D02*
X14136250Y-5278000D01*
X14136250Y-5108000D02*
X13966250Y-5278000D01*
X14379000Y-8918000D02*
X14549000Y-9088000D01*
X14549000Y-8918000D02*
X14379000Y-9088000D01*
X14442500Y-7013000D02*
X14612500Y-7183000D01*
X14612500Y-7013000D02*
X14442500Y-7183000D01*
X14855250Y-5108000D02*
X15025250Y-5278000D01*
X15025250Y-5108000D02*
X14855250Y-5278000D01*
X14918750Y-3203000D02*
X15088750Y-3373000D01*
X15088750Y-3203000D02*
X14918750Y-3373000D01*
X14918750Y-10823000D02*
X15088750Y-10993000D01*
X15088750Y-10823000D02*
X14918750Y-10993000D01*
X15331500Y-7013000D02*
X15501500Y-7183000D01*
X15501500Y-7013000D02*
X15331500Y-7183000D01*
X15395000Y-8918000D02*
X15565000Y-9088000D01*
X15565000Y-8918000D02*
X15395000Y-9088000D01*
X15807750Y-3203000D02*
X15977750Y-3373000D01*
X15977750Y-3203000D02*
X15807750Y-3373000D01*
X15871250Y-5108000D02*
X16041250Y-5278000D01*
X16041250Y-5108000D02*
X15871250Y-5278000D01*
X16284000Y-8918000D02*
X16454000Y-9088000D01*
X16454000Y-8918000D02*
X16284000Y-9088000D01*
X16347500Y-7013000D02*
X16517500Y-7183000D01*
X16517500Y-7013000D02*
X16347500Y-7183000D01*
X16760250Y-5108000D02*
X16930250Y-5278000D01*
X16930250Y-5108000D02*
X16760250Y-5278000D01*
X16823750Y-3203000D02*
X16993750Y-3373000D01*
X16993750Y-3203000D02*
X16823750Y-3373000D01*
X17236500Y-7013000D02*
X17406500Y-7183000D01*
X17406500Y-7013000D02*
X17236500Y-7183000D01*
X17300000Y-8918000D02*
X17470000Y-9088000D01*
X17470000Y-8918000D02*
X17300000Y-9088000D01*
X17712750Y-3203000D02*
X17882750Y-3373000D01*
X17882750Y-3203000D02*
X17712750Y-3373000D01*
X17776250Y-5108000D02*
X17946250Y-5278000D01*
X17946250Y-5108000D02*
X17776250Y-5278000D01*
X18189000Y-8918000D02*
X18359000Y-9088000D01*
X18359000Y-8918000D02*
X18189000Y-9088000D01*
X18252500Y-7013000D02*
X18422500Y-7183000D01*
X18422500Y-7013000D02*
X18252500Y-7183000D01*
X18665250Y-5108000D02*
X18835250Y-5278000D01*
X18835250Y-5108000D02*
X18665250Y-5278000D01*
X18728750Y-3203000D02*
X18898750Y-3373000D01*
X18898750Y-3203000D02*
X18728750Y-3373000D01*
X19141500Y-7013000D02*
X19311500Y-7183000D01*
X19311500Y-7013000D02*
X19141500Y-7183000D01*
X19205000Y-8918000D02*
X19375000Y-9088000D01*
X19375000Y-8918000D02*
X19205000Y-9088000D01*
X19617750Y-3203000D02*
X19787750Y-3373000D01*
X19787750Y-3203000D02*
X19617750Y-3373000D01*
X19681250Y-5108000D02*
X19851250Y-5278000D01*
X19851250Y-5108000D02*
X19681250Y-5278000D01*
X20094000Y-8918000D02*
X20264000Y-9088000D01*
X20264000Y-8918000D02*
X20094000Y-9088000D01*
X20157500Y-7013000D02*
X20327500Y-7183000D01*
X20327500Y-7013000D02*
X20157500Y-7183000D01*
X20570250Y-5108000D02*
X20740250Y-5278000D01*
X20740250Y-5108000D02*
X20570250Y-5278000D01*
X20633750Y-3203000D02*
X20803750Y-3373000D01*
X20803750Y-3203000D02*
X20633750Y-3373000D01*
X21046500Y-7013000D02*
X21216500Y-7183000D01*
X21216500Y-7013000D02*
X21046500Y-7183000D01*
X21110000Y-8918000D02*
X21280000Y-9088000D01*
X21280000Y-8918000D02*
X21110000Y-9088000D01*
X21522750Y-3203000D02*
X21692750Y-3373000D01*
X21692750Y-3203000D02*
X21522750Y-3373000D01*
X21586250Y-5108000D02*
X21756250Y-5278000D01*
X21756250Y-5108000D02*
X21586250Y-5278000D01*
X21999000Y-8918000D02*
X22169000Y-9088000D01*
X22169000Y-8918000D02*
X21999000Y-9088000D01*
X21999050Y-10823000D02*
X22169050Y-10993000D01*
X22169050Y-10823000D02*
X21999050Y-10993000D01*
X22062500Y-7013000D02*
X22232500Y-7183000D01*
X22232500Y-7013000D02*
X22062500Y-7183000D01*
X22475250Y-5108000D02*
X22645250Y-5278000D01*
X22645250Y-5108000D02*
X22475250Y-5278000D01*
X22538750Y-3203000D02*
X22708750Y-3373000D01*
X22708750Y-3203000D02*
X22538750Y-3373000D01*
X22951500Y-7013000D02*
X23121500Y-7183000D01*
X23121500Y-7013000D02*
X22951500Y-7183000D01*
X23015000Y-8918000D02*
X23185000Y-9088000D01*
X23185000Y-8918000D02*
X23015000Y-9088000D01*
X23015050Y-10823000D02*
X23185050Y-10993000D01*
X23185050Y-10823000D02*
X23015050Y-10993000D01*
X23427750Y-3203000D02*
X23597750Y-3373000D01*
X23597750Y-3203000D02*
X23427750Y-3373000D01*
X23491250Y-5108000D02*
X23661250Y-5278000D01*
X23661250Y-5108000D02*
X23491250Y-5278000D01*
X23967500Y-7013000D02*
X24137500Y-7183000D01*
X24137500Y-7013000D02*
X23967500Y-7183000D01*
X24380250Y-5108000D02*
X24550250Y-5278000D01*
X24550250Y-5108000D02*
X24380250Y-5278000D01*
X24380250Y-10823000D02*
X24550250Y-10993000D01*
X24550250Y-10823000D02*
X24380250Y-10993000D01*
X24443750Y-3203000D02*
X24613750Y-3373000D01*
X24613750Y-3203000D02*
X24443750Y-3373000D01*
X24618400Y-8918000D02*
X24788400Y-9088000D01*
X24788400Y-8918000D02*
X24618400Y-9088000D01*
X24856500Y-7013000D02*
X25026500Y-7183000D01*
X25026500Y-7013000D02*
X24856500Y-7183000D01*
X25332750Y-3203000D02*
X25502750Y-3373000D01*
X25502750Y-3203000D02*
X25332750Y-3373000D01*
X25396250Y-5108000D02*
X25566250Y-5278000D01*
X25566250Y-5108000D02*
X25396250Y-5278000D01*
X25396250Y-10823000D02*
X25566250Y-10993000D01*
X25566250Y-10823000D02*
X25396250Y-10993000D01*
X25634400Y-8918000D02*
X25804400Y-9088000D01*
X25804400Y-8918000D02*
X25634400Y-9088000D01*
X25872500Y-7013000D02*
X26042500Y-7183000D01*
X26042500Y-7013000D02*
X25872500Y-7183000D01*
X26054560Y-7013000D02*
X26224560Y-7183000D01*
X26224560Y-7013000D02*
X26054560Y-7183000D01*
X26285250Y-3203000D02*
X26455250Y-3373000D01*
X26455250Y-3203000D02*
X26285250Y-3373000D01*
X26348750Y-3203000D02*
X26518750Y-3373000D01*
X26518750Y-3203000D02*
X26348750Y-3373000D01*
X26761550Y-5108000D02*
X26931550Y-5278000D01*
X26931550Y-5108000D02*
X26761550Y-5278000D01*
X26761550Y-10823000D02*
X26931550Y-10993000D01*
X26931550Y-10823000D02*
X26761550Y-10993000D01*
X26999600Y-6060500D02*
X27169600Y-6230500D01*
X27169600Y-6060500D02*
X26999600Y-6230500D01*
X27070560Y-7013000D02*
X27240560Y-7183000D01*
X27240560Y-7013000D02*
X27070560Y-7183000D01*
X27237750Y-3203000D02*
X27407750Y-3373000D01*
X27407750Y-3203000D02*
X27237750Y-3373000D01*
X27237750Y-8918000D02*
X27407750Y-9088000D01*
X27407750Y-8918000D02*
X27237750Y-9088000D01*
X27301250Y-3203000D02*
X27471250Y-3373000D01*
X27471250Y-3203000D02*
X27301250Y-3373000D01*
X27777550Y-5108000D02*
X27947550Y-5278000D01*
X27947550Y-5108000D02*
X27777550Y-5278000D01*
X27777550Y-10823000D02*
X27947550Y-10993000D01*
X27947550Y-10823000D02*
X27777550Y-10993000D01*
X28015600Y-6060500D02*
X28185600Y-6230500D01*
X28185600Y-6060500D02*
X28015600Y-6230500D01*
X28253750Y-3203000D02*
X28423750Y-3373000D01*
X28423750Y-3203000D02*
X28253750Y-3373000D01*
X28253750Y-8918000D02*
X28423750Y-9088000D01*
X28423750Y-8918000D02*
X28253750Y-9088000D01*
D14*
X1317410Y-8304500D02*
G75*
G02*
X1012610Y-8304500I-152400J0D01*
G01*
X1012610Y-8304500D02*
G75*
G02*
X1317410Y-8304500I152400J0D01*
G01*
X3705010Y-8304500D02*
G75*
G02*
X3400210Y-8304500I-152400J0D01*
G01*
X3400210Y-8304500D02*
G75*
G02*
X3705010Y-8304500I152400J0D01*
G01*
X8933150Y-11606500D02*
G75*
G02*
X8628350Y-11606500I-152400J0D01*
G01*
X8628350Y-11606500D02*
G75*
G02*
X8933150Y-11606500I152400J0D01*
G01*
X20363150Y-11606500D02*
G75*
G02*
X20058350Y-11606500I-152400J0D01*
G01*
X20058350Y-11606500D02*
G75*
G02*
X20363150Y-11606500I152400J0D01*
G01*
X25606160Y-6399500D02*
G75*
G02*
X25301360Y-6399500I-152400J0D01*
G01*
X25301360Y-6399500D02*
G75*
G02*
X25606160Y-6399500I152400J0D01*
G01*
X25836850Y-2589500D02*
G75*
G02*
X25532050Y-2589500I-152400J0D01*
G01*
X25532050Y-2589500D02*
G75*
G02*
X25836850Y-2589500I152400J0D01*
G01*
X27993760Y-6399500D02*
G75*
G02*
X27688960Y-6399500I-152400J0D01*
G01*
X27688960Y-6399500D02*
G75*
G02*
X27993760Y-6399500I152400J0D01*
G01*
X28224450Y-2589500D02*
G75*
G02*
X27919650Y-2589500I-152400J0D01*
G01*
X27919650Y-2589500D02*
G75*
G02*
X28224450Y-2589500I152400J0D01*
G01*
D15*
X28292600Y-4803000D02*
X28292600Y-5108000D01*
X28140100Y-4955500D02*
X28445100Y-4955500D01*
X28292600Y-7183000D02*
X28292600Y-7488000D01*
X28140100Y-7335500D02*
X28445100Y-7335500D01*
D16*
X1306001Y-9969491D02*
X1306001Y-9687509D01*
X1024019Y-9687509D01*
X1024019Y-9969491D01*
X1306001Y-9969491D01*
X3693601Y-9969491D02*
X3693601Y-9687509D01*
X3411619Y-9687509D01*
X3411619Y-9969491D01*
X3693601Y-9969491D01*
X8921741Y-10223491D02*
X8921741Y-9941509D01*
X8639759Y-9941509D01*
X8639759Y-10223491D01*
X8921741Y-10223491D01*
X20351741Y-10223491D02*
X20351741Y-9941509D01*
X20069759Y-9941509D01*
X20069759Y-10223491D01*
X20351741Y-10223491D01*
X25594751Y-8064491D02*
X25594751Y-7782509D01*
X25312769Y-7782509D01*
X25312769Y-8064491D01*
X25594751Y-8064491D01*
X25825441Y-4254491D02*
X25825441Y-3972509D01*
X25543459Y-3972509D01*
X25543459Y-4254491D01*
X25825441Y-4254491D01*
X27982351Y-8064491D02*
X27982351Y-7782509D01*
X27700369Y-7782509D01*
X27700369Y-8064491D01*
X27982351Y-8064491D01*
X28213041Y-4254491D02*
X28213041Y-3972509D01*
X27931059Y-3972509D01*
X27931059Y-4254491D01*
X28213041Y-4254491D01*
D17*
X1160750Y-3488000D02*
X1360750Y-3288000D01*
X1160750Y-3088000D01*
X960750Y-3288000D01*
X1160750Y-3488000D01*
X1398850Y-7298000D02*
X1598850Y-7098000D01*
X1398850Y-6898000D01*
X1198850Y-7098000D01*
X1398850Y-7298000D01*
X1398850Y-9203000D02*
X1598850Y-9003000D01*
X1398850Y-8803000D01*
X1198850Y-9003000D01*
X1398850Y-9203000D01*
X1637050Y-5393000D02*
X1837050Y-5193000D01*
X1637050Y-4993000D01*
X1437050Y-5193000D01*
X1637050Y-5393000D01*
X1637050Y-11108000D02*
X1837050Y-10908000D01*
X1637050Y-10708000D01*
X1437050Y-10908000D01*
X1637050Y-11108000D01*
X1875150Y-7298000D02*
X2075150Y-7098000D01*
X1875150Y-6898000D01*
X1675150Y-7098000D01*
X1875150Y-7298000D01*
X2358810Y-9203000D02*
X2558810Y-9003000D01*
X2358810Y-8803000D01*
X2158810Y-9003000D01*
X2358810Y-9203000D01*
X3065750Y-3488000D02*
X3265750Y-3288000D01*
X3065750Y-3088000D01*
X2865750Y-3288000D01*
X3065750Y-3488000D01*
X3542000Y-9203000D02*
X3742000Y-9003000D01*
X3542000Y-8803000D01*
X3342000Y-9003000D01*
X3542000Y-9203000D01*
X4018250Y-5393000D02*
X4218250Y-5193000D01*
X4018250Y-4993000D01*
X3818250Y-5193000D01*
X4018250Y-5393000D01*
X4018250Y-11108000D02*
X4218250Y-10908000D01*
X4018250Y-10708000D01*
X3818250Y-10908000D01*
X4018250Y-11108000D01*
X4494500Y-7298000D02*
X4694500Y-7098000D01*
X4494500Y-6898000D01*
X4294500Y-7098000D01*
X4494500Y-7298000D01*
X4970750Y-3488000D02*
X5170750Y-3288000D01*
X4970750Y-3088000D01*
X4770750Y-3288000D01*
X4970750Y-3488000D01*
X5447000Y-9203000D02*
X5647000Y-9003000D01*
X5447000Y-8803000D01*
X5247000Y-9003000D01*
X5447000Y-9203000D01*
X5923250Y-5393000D02*
X6123250Y-5193000D01*
X5923250Y-4993000D01*
X5723250Y-5193000D01*
X5923250Y-5393000D01*
X6399500Y-7298000D02*
X6599500Y-7098000D01*
X6399500Y-6898000D01*
X6199500Y-7098000D01*
X6399500Y-7298000D01*
X6399550Y-11108000D02*
X6599550Y-10908000D01*
X6399550Y-10708000D01*
X6199550Y-10908000D01*
X6399550Y-11108000D01*
X6875750Y-3488000D02*
X7075750Y-3288000D01*
X6875750Y-3088000D01*
X6675750Y-3288000D01*
X6875750Y-3488000D01*
X7352000Y-9203000D02*
X7552000Y-9003000D01*
X7352000Y-8803000D01*
X7152000Y-9003000D01*
X7352000Y-9203000D01*
X7828250Y-5393000D02*
X8028250Y-5193000D01*
X7828250Y-4993000D01*
X7628250Y-5193000D01*
X7828250Y-5393000D01*
X8304500Y-7298000D02*
X8504500Y-7098000D01*
X8304500Y-6898000D01*
X8104500Y-7098000D01*
X8304500Y-7298000D01*
X8780750Y-3488000D02*
X8980750Y-3288000D01*
X8780750Y-3088000D01*
X8580750Y-3288000D01*
X8780750Y-3488000D01*
X9257000Y-9203000D02*
X9457000Y-9003000D01*
X9257000Y-8803000D01*
X9057000Y-9003000D01*
X9257000Y-9203000D01*
X9733250Y-5393000D02*
X9933250Y-5193000D01*
X9733250Y-4993000D01*
X9533250Y-5193000D01*
X9733250Y-5393000D01*
X10209500Y-7298000D02*
X10409500Y-7098000D01*
X10209500Y-6898000D01*
X10009500Y-7098000D01*
X10209500Y-7298000D01*
X10685750Y-3488000D02*
X10885750Y-3288000D01*
X10685750Y-3088000D01*
X10485750Y-3288000D01*
X10685750Y-3488000D01*
X11162000Y-9203000D02*
X11362000Y-9003000D01*
X11162000Y-8803000D01*
X10962000Y-9003000D01*
X11162000Y-9203000D01*
X11638250Y-5393000D02*
X11838250Y-5193000D01*
X11638250Y-4993000D01*
X11438250Y-5193000D01*
X11638250Y-5393000D01*
X12114500Y-7298000D02*
X12314500Y-7098000D01*
X12114500Y-6898000D01*
X11914500Y-7098000D01*
X12114500Y-7298000D01*
X12590750Y-3488000D02*
X12790750Y-3288000D01*
X12590750Y-3088000D01*
X12390750Y-3288000D01*
X12590750Y-3488000D01*
X13067000Y-9203000D02*
X13267000Y-9003000D01*
X13067000Y-8803000D01*
X12867000Y-9003000D01*
X13067000Y-9203000D01*
X13543250Y-5393000D02*
X13743250Y-5193000D01*
X13543250Y-4993000D01*
X13343250Y-5193000D01*
X13543250Y-5393000D01*
X14019500Y-7298000D02*
X14219500Y-7098000D01*
X14019500Y-6898000D01*
X13819500Y-7098000D01*
X14019500Y-7298000D01*
X14495750Y-3488000D02*
X14695750Y-3288000D01*
X14495750Y-3088000D01*
X14295750Y-3288000D01*
X14495750Y-3488000D01*
X14495750Y-11108000D02*
X14695750Y-10908000D01*
X14495750Y-10708000D01*
X14295750Y-10908000D01*
X14495750Y-11108000D01*
X14972000Y-9203000D02*
X15172000Y-9003000D01*
X14972000Y-8803000D01*
X14772000Y-9003000D01*
X14972000Y-9203000D01*
X15448250Y-5393000D02*
X15648250Y-5193000D01*
X15448250Y-4993000D01*
X15248250Y-5193000D01*
X15448250Y-5393000D01*
X15924500Y-7298000D02*
X16124500Y-7098000D01*
X15924500Y-6898000D01*
X15724500Y-7098000D01*
X15924500Y-7298000D01*
X16400750Y-3488000D02*
X16600750Y-3288000D01*
X16400750Y-3088000D01*
X16200750Y-3288000D01*
X16400750Y-3488000D01*
X16877000Y-9203000D02*
X17077000Y-9003000D01*
X16877000Y-8803000D01*
X16677000Y-9003000D01*
X16877000Y-9203000D01*
X17353250Y-5393000D02*
X17553250Y-5193000D01*
X17353250Y-4993000D01*
X17153250Y-5193000D01*
X17353250Y-5393000D01*
X17829500Y-7298000D02*
X18029500Y-7098000D01*
X17829500Y-6898000D01*
X17629500Y-7098000D01*
X17829500Y-7298000D01*
X18305750Y-3488000D02*
X18505750Y-3288000D01*
X18305750Y-3088000D01*
X18105750Y-3288000D01*
X18305750Y-3488000D01*
X18782000Y-9203000D02*
X18982000Y-9003000D01*
X18782000Y-8803000D01*
X18582000Y-9003000D01*
X18782000Y-9203000D01*
X19258250Y-5393000D02*
X19458250Y-5193000D01*
X19258250Y-4993000D01*
X19058250Y-5193000D01*
X19258250Y-5393000D01*
X19734500Y-7298000D02*
X19934500Y-7098000D01*
X19734500Y-6898000D01*
X19534500Y-7098000D01*
X19734500Y-7298000D01*
X20210750Y-3488000D02*
X20410750Y-3288000D01*
X20210750Y-3088000D01*
X20010750Y-3288000D01*
X20210750Y-3488000D01*
X20687000Y-9203000D02*
X20887000Y-9003000D01*
X20687000Y-8803000D01*
X20487000Y-9003000D01*
X20687000Y-9203000D01*
X21163250Y-5393000D02*
X21363250Y-5193000D01*
X21163250Y-4993000D01*
X20963250Y-5193000D01*
X21163250Y-5393000D01*
X21639500Y-7298000D02*
X21839500Y-7098000D01*
X21639500Y-6898000D01*
X21439500Y-7098000D01*
X21639500Y-7298000D01*
X22115750Y-3488000D02*
X22315750Y-3288000D01*
X22115750Y-3088000D01*
X21915750Y-3288000D01*
X22115750Y-3488000D01*
X22592000Y-9203000D02*
X22792000Y-9003000D01*
X22592000Y-8803000D01*
X22392000Y-9003000D01*
X22592000Y-9203000D01*
X22592050Y-11108000D02*
X22792050Y-10908000D01*
X22592050Y-10708000D01*
X22392050Y-10908000D01*
X22592050Y-11108000D01*
X23068250Y-5393000D02*
X23268250Y-5193000D01*
X23068250Y-4993000D01*
X22868250Y-5193000D01*
X23068250Y-5393000D01*
X23544500Y-7298000D02*
X23744500Y-7098000D01*
X23544500Y-6898000D01*
X23344500Y-7098000D01*
X23544500Y-7298000D01*
X24020750Y-3488000D02*
X24220750Y-3288000D01*
X24020750Y-3088000D01*
X23820750Y-3288000D01*
X24020750Y-3488000D01*
X24973250Y-5393000D02*
X25173250Y-5193000D01*
X24973250Y-4993000D01*
X24773250Y-5193000D01*
X24973250Y-5393000D01*
X24973250Y-11108000D02*
X25173250Y-10908000D01*
X24973250Y-10708000D01*
X24773250Y-10908000D01*
X24973250Y-11108000D01*
X25211400Y-9203000D02*
X25411400Y-9003000D01*
X25211400Y-8803000D01*
X25011400Y-9003000D01*
X25211400Y-9203000D01*
X25449500Y-7298000D02*
X25649500Y-7098000D01*
X25449500Y-6898000D01*
X25249500Y-7098000D01*
X25449500Y-7298000D01*
X25925750Y-3488000D02*
X26125750Y-3288000D01*
X25925750Y-3088000D01*
X25725750Y-3288000D01*
X25925750Y-3488000D01*
X26647560Y-7298000D02*
X26847560Y-7098000D01*
X26647560Y-6898000D01*
X26447560Y-7098000D01*
X26647560Y-7298000D01*
X26768600Y-5155500D02*
X26968600Y-4955500D01*
X26768600Y-4755500D01*
X26568600Y-4955500D01*
X26768600Y-5155500D01*
X26768600Y-7535500D02*
X26968600Y-7335500D01*
X26768600Y-7135500D01*
X26568600Y-7335500D01*
X26768600Y-7535500D01*
X26878250Y-3488000D02*
X27078250Y-3288000D01*
X26878250Y-3088000D01*
X26678250Y-3288000D01*
X26878250Y-3488000D01*
X27354550Y-5393000D02*
X27554550Y-5193000D01*
X27354550Y-4993000D01*
X27154550Y-5193000D01*
X27354550Y-5393000D01*
X27354550Y-11108000D02*
X27554550Y-10908000D01*
X27354550Y-10708000D01*
X27154550Y-10908000D01*
X27354550Y-11108000D01*
X27592600Y-6345500D02*
X27792600Y-6145500D01*
X27592600Y-5945500D01*
X27392600Y-6145500D01*
X27592600Y-6345500D01*
X27830750Y-3488000D02*
X28030750Y-3288000D01*
X27830750Y-3088000D01*
X27630750Y-3288000D01*
X27830750Y-3488000D01*
X27830750Y-9203000D02*
X28030750Y-9003000D01*
X27830750Y-8803000D01*
X27630750Y-9003000D01*
X27830750Y-9203000D01*
D12*
X497777Y-12144484D02*
X497777Y-11944484D01*
X497777Y-11944484D02*
X545396Y-11944484D01*
X545396Y-11944484D02*
X573967Y-11954008D01*
X573967Y-11954008D02*
X593015Y-11973055D01*
X593015Y-11973055D02*
X602539Y-11992103D01*
X602539Y-11992103D02*
X612063Y-12030198D01*
X612063Y-12030198D02*
X612063Y-12058769D01*
X612063Y-12058769D02*
X602539Y-12096865D01*
X602539Y-12096865D02*
X593015Y-12115912D01*
X593015Y-12115912D02*
X573967Y-12134960D01*
X573967Y-12134960D02*
X545396Y-12144484D01*
X545396Y-12144484D02*
X497777Y-12144484D01*
X697777Y-12144484D02*
X697777Y-12011150D01*
X697777Y-12049246D02*
X707301Y-12030198D01*
X707301Y-12030198D02*
X716824Y-12020674D01*
X716824Y-12020674D02*
X735872Y-12011150D01*
X735872Y-12011150D02*
X754920Y-12011150D01*
X821586Y-12144484D02*
X821586Y-12011150D01*
X821586Y-11944484D02*
X812062Y-11954008D01*
X812062Y-11954008D02*
X821586Y-11963531D01*
X821586Y-11963531D02*
X831110Y-11954008D01*
X831110Y-11954008D02*
X821586Y-11944484D01*
X821586Y-11944484D02*
X821586Y-11963531D01*
X945396Y-12144484D02*
X926348Y-12134960D01*
X926348Y-12134960D02*
X916824Y-12115912D01*
X916824Y-12115912D02*
X916824Y-11944484D01*
X1050158Y-12144484D02*
X1031110Y-12134960D01*
X1031110Y-12134960D02*
X1021586Y-12115912D01*
X1021586Y-12115912D02*
X1021586Y-11944484D01*
X1278729Y-12144484D02*
X1278729Y-11944484D01*
X1278729Y-11944484D02*
X1345396Y-12087341D01*
X1345396Y-12087341D02*
X1412062Y-11944484D01*
X1412062Y-11944484D02*
X1412062Y-12144484D01*
X1593015Y-12144484D02*
X1593015Y-12039722D01*
X1593015Y-12039722D02*
X1583491Y-12020674D01*
X1583491Y-12020674D02*
X1564443Y-12011150D01*
X1564443Y-12011150D02*
X1526348Y-12011150D01*
X1526348Y-12011150D02*
X1507301Y-12020674D01*
X1593015Y-12134960D02*
X1573967Y-12144484D01*
X1573967Y-12144484D02*
X1526348Y-12144484D01*
X1526348Y-12144484D02*
X1507301Y-12134960D01*
X1507301Y-12134960D02*
X1497777Y-12115912D01*
X1497777Y-12115912D02*
X1497777Y-12096865D01*
X1497777Y-12096865D02*
X1507301Y-12077817D01*
X1507301Y-12077817D02*
X1526348Y-12068293D01*
X1526348Y-12068293D02*
X1573967Y-12068293D01*
X1573967Y-12068293D02*
X1593015Y-12058769D01*
X1688253Y-12011150D02*
X1688253Y-12211150D01*
X1688253Y-12020674D02*
X1707301Y-12011150D01*
X1707301Y-12011150D02*
X1745396Y-12011150D01*
X1745396Y-12011150D02*
X1764443Y-12020674D01*
X1764443Y-12020674D02*
X1773967Y-12030198D01*
X1773967Y-12030198D02*
X1783491Y-12049246D01*
X1783491Y-12049246D02*
X1783491Y-12106388D01*
X1783491Y-12106388D02*
X1773967Y-12125436D01*
X1773967Y-12125436D02*
X1764443Y-12134960D01*
X1764443Y-12134960D02*
X1745396Y-12144484D01*
X1745396Y-12144484D02*
X1707301Y-12144484D01*
X1707301Y-12144484D02*
X1688253Y-12134960D01*
X1869205Y-12125436D02*
X1878729Y-12134960D01*
X1878729Y-12134960D02*
X1869205Y-12144484D01*
X1869205Y-12144484D02*
X1859682Y-12134960D01*
X1859682Y-12134960D02*
X1869205Y-12125436D01*
X1869205Y-12125436D02*
X1869205Y-12144484D01*
X1869205Y-12020674D02*
X1878729Y-12030198D01*
X1878729Y-12030198D02*
X1869205Y-12039722D01*
X1869205Y-12039722D02*
X1859682Y-12030198D01*
X1859682Y-12030198D02*
X1869205Y-12020674D01*
X1869205Y-12020674D02*
X1869205Y-12039722D01*
D13*
X67000Y-12388000D02*
X237000Y-12558000D01*
X237000Y-12388000D02*
X67000Y-12558000D01*
D12*
X602539Y-12564484D02*
X488253Y-12564484D01*
X545396Y-12564484D02*
X545396Y-12364484D01*
X545396Y-12364484D02*
X526348Y-12393055D01*
X526348Y-12393055D02*
X507301Y-12412103D01*
X507301Y-12412103D02*
X488253Y-12421627D01*
X688253Y-12545436D02*
X697777Y-12554960D01*
X697777Y-12554960D02*
X688253Y-12564484D01*
X688253Y-12564484D02*
X678729Y-12554960D01*
X678729Y-12554960D02*
X688253Y-12545436D01*
X688253Y-12545436D02*
X688253Y-12564484D01*
X764443Y-12364484D02*
X897777Y-12364484D01*
X897777Y-12364484D02*
X812062Y-12564484D01*
X1012062Y-12364484D02*
X1031110Y-12364484D01*
X1031110Y-12364484D02*
X1050158Y-12374008D01*
X1050158Y-12374008D02*
X1059682Y-12383531D01*
X1059682Y-12383531D02*
X1069205Y-12402579D01*
X1069205Y-12402579D02*
X1078729Y-12440674D01*
X1078729Y-12440674D02*
X1078729Y-12488293D01*
X1078729Y-12488293D02*
X1069205Y-12526388D01*
X1069205Y-12526388D02*
X1059682Y-12545436D01*
X1059682Y-12545436D02*
X1050158Y-12554960D01*
X1050158Y-12554960D02*
X1031110Y-12564484D01*
X1031110Y-12564484D02*
X1012062Y-12564484D01*
X1012062Y-12564484D02*
X993015Y-12554960D01*
X993015Y-12554960D02*
X983491Y-12545436D01*
X983491Y-12545436D02*
X973967Y-12526388D01*
X973967Y-12526388D02*
X964443Y-12488293D01*
X964443Y-12488293D02*
X964443Y-12440674D01*
X964443Y-12440674D02*
X973967Y-12402579D01*
X973967Y-12402579D02*
X983491Y-12383531D01*
X983491Y-12383531D02*
X993015Y-12374008D01*
X993015Y-12374008D02*
X1012062Y-12364484D01*
X1202539Y-12364484D02*
X1221586Y-12364484D01*
X1221586Y-12364484D02*
X1240634Y-12374008D01*
X1240634Y-12374008D02*
X1250158Y-12383531D01*
X1250158Y-12383531D02*
X1259682Y-12402579D01*
X1259682Y-12402579D02*
X1269205Y-12440674D01*
X1269205Y-12440674D02*
X1269205Y-12488293D01*
X1269205Y-12488293D02*
X1259682Y-12526388D01*
X1259682Y-12526388D02*
X1250158Y-12545436D01*
X1250158Y-12545436D02*
X1240634Y-12554960D01*
X1240634Y-12554960D02*
X1221586Y-12564484D01*
X1221586Y-12564484D02*
X1202539Y-12564484D01*
X1202539Y-12564484D02*
X1183491Y-12554960D01*
X1183491Y-12554960D02*
X1173967Y-12545436D01*
X1173967Y-12545436D02*
X1164444Y-12526388D01*
X1164444Y-12526388D02*
X1154920Y-12488293D01*
X1154920Y-12488293D02*
X1154920Y-12440674D01*
X1154920Y-12440674D02*
X1164444Y-12402579D01*
X1164444Y-12402579D02*
X1173967Y-12383531D01*
X1173967Y-12383531D02*
X1183491Y-12374008D01*
X1183491Y-12374008D02*
X1202539Y-12364484D01*
X1354920Y-12564484D02*
X1354920Y-12431150D01*
X1354920Y-12450198D02*
X1364444Y-12440674D01*
X1364444Y-12440674D02*
X1383491Y-12431150D01*
X1383491Y-12431150D02*
X1412063Y-12431150D01*
X1412063Y-12431150D02*
X1431110Y-12440674D01*
X1431110Y-12440674D02*
X1440634Y-12459722D01*
X1440634Y-12459722D02*
X1440634Y-12564484D01*
X1440634Y-12459722D02*
X1450158Y-12440674D01*
X1450158Y-12440674D02*
X1469205Y-12431150D01*
X1469205Y-12431150D02*
X1497777Y-12431150D01*
X1497777Y-12431150D02*
X1516824Y-12440674D01*
X1516824Y-12440674D02*
X1526348Y-12459722D01*
X1526348Y-12459722D02*
X1526348Y-12564484D01*
X1621586Y-12564484D02*
X1621586Y-12431150D01*
X1621586Y-12450198D02*
X1631110Y-12440674D01*
X1631110Y-12440674D02*
X1650158Y-12431150D01*
X1650158Y-12431150D02*
X1678729Y-12431150D01*
X1678729Y-12431150D02*
X1697777Y-12440674D01*
X1697777Y-12440674D02*
X1707301Y-12459722D01*
X1707301Y-12459722D02*
X1707301Y-12564484D01*
X1707301Y-12459722D02*
X1716824Y-12440674D01*
X1716824Y-12440674D02*
X1735872Y-12431150D01*
X1735872Y-12431150D02*
X1764443Y-12431150D01*
X1764443Y-12431150D02*
X1783491Y-12440674D01*
X1783491Y-12440674D02*
X1793015Y-12459722D01*
X1793015Y-12459722D02*
X1793015Y-12564484D01*
X2183491Y-12354960D02*
X2012063Y-12612103D01*
X2440634Y-12364484D02*
X2459682Y-12364484D01*
X2459682Y-12364484D02*
X2478729Y-12374008D01*
X2478729Y-12374008D02*
X2488253Y-12383531D01*
X2488253Y-12383531D02*
X2497777Y-12402579D01*
X2497777Y-12402579D02*
X2507301Y-12440674D01*
X2507301Y-12440674D02*
X2507301Y-12488293D01*
X2507301Y-12488293D02*
X2497777Y-12526388D01*
X2497777Y-12526388D02*
X2488253Y-12545436D01*
X2488253Y-12545436D02*
X2478729Y-12554960D01*
X2478729Y-12554960D02*
X2459682Y-12564484D01*
X2459682Y-12564484D02*
X2440634Y-12564484D01*
X2440634Y-12564484D02*
X2421587Y-12554960D01*
X2421587Y-12554960D02*
X2412063Y-12545436D01*
X2412063Y-12545436D02*
X2402539Y-12526388D01*
X2402539Y-12526388D02*
X2393015Y-12488293D01*
X2393015Y-12488293D02*
X2393015Y-12440674D01*
X2393015Y-12440674D02*
X2402539Y-12402579D01*
X2402539Y-12402579D02*
X2412063Y-12383531D01*
X2412063Y-12383531D02*
X2421587Y-12374008D01*
X2421587Y-12374008D02*
X2440634Y-12364484D01*
X2593015Y-12545436D02*
X2602539Y-12554960D01*
X2602539Y-12554960D02*
X2593015Y-12564484D01*
X2593015Y-12564484D02*
X2583491Y-12554960D01*
X2583491Y-12554960D02*
X2593015Y-12545436D01*
X2593015Y-12545436D02*
X2593015Y-12564484D01*
X2726348Y-12364484D02*
X2745396Y-12364484D01*
X2745396Y-12364484D02*
X2764444Y-12374008D01*
X2764444Y-12374008D02*
X2773968Y-12383531D01*
X2773968Y-12383531D02*
X2783491Y-12402579D01*
X2783491Y-12402579D02*
X2793015Y-12440674D01*
X2793015Y-12440674D02*
X2793015Y-12488293D01*
X2793015Y-12488293D02*
X2783491Y-12526388D01*
X2783491Y-12526388D02*
X2773968Y-12545436D01*
X2773968Y-12545436D02*
X2764444Y-12554960D01*
X2764444Y-12554960D02*
X2745396Y-12564484D01*
X2745396Y-12564484D02*
X2726348Y-12564484D01*
X2726348Y-12564484D02*
X2707301Y-12554960D01*
X2707301Y-12554960D02*
X2697777Y-12545436D01*
X2697777Y-12545436D02*
X2688253Y-12526388D01*
X2688253Y-12526388D02*
X2678729Y-12488293D01*
X2678729Y-12488293D02*
X2678729Y-12440674D01*
X2678729Y-12440674D02*
X2688253Y-12402579D01*
X2688253Y-12402579D02*
X2697777Y-12383531D01*
X2697777Y-12383531D02*
X2707301Y-12374008D01*
X2707301Y-12374008D02*
X2726348Y-12364484D01*
X2964444Y-12364484D02*
X2926348Y-12364484D01*
X2926348Y-12364484D02*
X2907301Y-12374008D01*
X2907301Y-12374008D02*
X2897777Y-12383531D01*
X2897777Y-12383531D02*
X2878729Y-12412103D01*
X2878729Y-12412103D02*
X2869206Y-12450198D01*
X2869206Y-12450198D02*
X2869206Y-12526388D01*
X2869206Y-12526388D02*
X2878729Y-12545436D01*
X2878729Y-12545436D02*
X2888253Y-12554960D01*
X2888253Y-12554960D02*
X2907301Y-12564484D01*
X2907301Y-12564484D02*
X2945396Y-12564484D01*
X2945396Y-12564484D02*
X2964444Y-12554960D01*
X2964444Y-12554960D02*
X2973967Y-12545436D01*
X2973967Y-12545436D02*
X2983491Y-12526388D01*
X2983491Y-12526388D02*
X2983491Y-12478769D01*
X2983491Y-12478769D02*
X2973967Y-12459722D01*
X2973967Y-12459722D02*
X2964444Y-12450198D01*
X2964444Y-12450198D02*
X2945396Y-12440674D01*
X2945396Y-12440674D02*
X2907301Y-12440674D01*
X2907301Y-12440674D02*
X2888253Y-12450198D01*
X2888253Y-12450198D02*
X2878729Y-12459722D01*
X2878729Y-12459722D02*
X2869206Y-12478769D01*
X3154920Y-12364484D02*
X3116825Y-12364484D01*
X3116825Y-12364484D02*
X3097777Y-12374008D01*
X3097777Y-12374008D02*
X3088253Y-12383531D01*
X3088253Y-12383531D02*
X3069206Y-12412103D01*
X3069206Y-12412103D02*
X3059682Y-12450198D01*
X3059682Y-12450198D02*
X3059682Y-12526388D01*
X3059682Y-12526388D02*
X3069206Y-12545436D01*
X3069206Y-12545436D02*
X3078729Y-12554960D01*
X3078729Y-12554960D02*
X3097777Y-12564484D01*
X3097777Y-12564484D02*
X3135872Y-12564484D01*
X3135872Y-12564484D02*
X3154920Y-12554960D01*
X3154920Y-12554960D02*
X3164444Y-12545436D01*
X3164444Y-12545436D02*
X3173967Y-12526388D01*
X3173967Y-12526388D02*
X3173967Y-12478769D01*
X3173967Y-12478769D02*
X3164444Y-12459722D01*
X3164444Y-12459722D02*
X3154920Y-12450198D01*
X3154920Y-12450198D02*
X3135872Y-12440674D01*
X3135872Y-12440674D02*
X3097777Y-12440674D01*
X3097777Y-12440674D02*
X3078729Y-12450198D01*
X3078729Y-12450198D02*
X3069206Y-12459722D01*
X3069206Y-12459722D02*
X3059682Y-12478769D01*
X3269206Y-12564484D02*
X3307301Y-12564484D01*
X3307301Y-12564484D02*
X3326348Y-12554960D01*
X3326348Y-12554960D02*
X3335872Y-12545436D01*
X3335872Y-12545436D02*
X3354920Y-12516865D01*
X3354920Y-12516865D02*
X3364444Y-12478769D01*
X3364444Y-12478769D02*
X3364444Y-12402579D01*
X3364444Y-12402579D02*
X3354920Y-12383531D01*
X3354920Y-12383531D02*
X3345396Y-12374008D01*
X3345396Y-12374008D02*
X3326348Y-12364484D01*
X3326348Y-12364484D02*
X3288253Y-12364484D01*
X3288253Y-12364484D02*
X3269206Y-12374008D01*
X3269206Y-12374008D02*
X3259682Y-12383531D01*
X3259682Y-12383531D02*
X3250158Y-12402579D01*
X3250158Y-12402579D02*
X3250158Y-12450198D01*
X3250158Y-12450198D02*
X3259682Y-12469246D01*
X3259682Y-12469246D02*
X3269206Y-12478769D01*
X3269206Y-12478769D02*
X3288253Y-12488293D01*
X3288253Y-12488293D02*
X3326348Y-12488293D01*
X3326348Y-12488293D02*
X3345396Y-12478769D01*
X3345396Y-12478769D02*
X3354920Y-12469246D01*
X3354920Y-12469246D02*
X3364444Y-12450198D01*
X3440634Y-12364484D02*
X3440634Y-12402579D01*
X3516825Y-12364484D02*
X3516825Y-12402579D01*
X3812063Y-12640674D02*
X3802539Y-12631150D01*
X3802539Y-12631150D02*
X3783491Y-12602579D01*
X3783491Y-12602579D02*
X3773968Y-12583531D01*
X3773968Y-12583531D02*
X3764444Y-12554960D01*
X3764444Y-12554960D02*
X3754920Y-12507341D01*
X3754920Y-12507341D02*
X3754920Y-12469246D01*
X3754920Y-12469246D02*
X3764444Y-12421627D01*
X3764444Y-12421627D02*
X3773968Y-12393055D01*
X3773968Y-12393055D02*
X3783491Y-12374008D01*
X3783491Y-12374008D02*
X3802539Y-12345436D01*
X3802539Y-12345436D02*
X3812063Y-12335912D01*
X3993015Y-12564484D02*
X3878729Y-12564484D01*
X3935872Y-12564484D02*
X3935872Y-12364484D01*
X3935872Y-12364484D02*
X3916825Y-12393055D01*
X3916825Y-12393055D02*
X3897777Y-12412103D01*
X3897777Y-12412103D02*
X3878729Y-12421627D01*
X4059682Y-12364484D02*
X4183491Y-12364484D01*
X4183491Y-12364484D02*
X4116825Y-12440674D01*
X4116825Y-12440674D02*
X4145396Y-12440674D01*
X4145396Y-12440674D02*
X4164444Y-12450198D01*
X4164444Y-12450198D02*
X4173968Y-12459722D01*
X4173968Y-12459722D02*
X4183491Y-12478769D01*
X4183491Y-12478769D02*
X4183491Y-12526388D01*
X4183491Y-12526388D02*
X4173968Y-12545436D01*
X4173968Y-12545436D02*
X4164444Y-12554960D01*
X4164444Y-12554960D02*
X4145396Y-12564484D01*
X4145396Y-12564484D02*
X4088253Y-12564484D01*
X4088253Y-12564484D02*
X4069206Y-12554960D01*
X4069206Y-12554960D02*
X4059682Y-12545436D01*
X4354920Y-12364484D02*
X4316825Y-12364484D01*
X4316825Y-12364484D02*
X4297777Y-12374008D01*
X4297777Y-12374008D02*
X4288253Y-12383531D01*
X4288253Y-12383531D02*
X4269206Y-12412103D01*
X4269206Y-12412103D02*
X4259682Y-12450198D01*
X4259682Y-12450198D02*
X4259682Y-12526388D01*
X4259682Y-12526388D02*
X4269206Y-12545436D01*
X4269206Y-12545436D02*
X4278730Y-12554960D01*
X4278730Y-12554960D02*
X4297777Y-12564484D01*
X4297777Y-12564484D02*
X4335872Y-12564484D01*
X4335872Y-12564484D02*
X4354920Y-12554960D01*
X4354920Y-12554960D02*
X4364444Y-12545436D01*
X4364444Y-12545436D02*
X4373968Y-12526388D01*
X4373968Y-12526388D02*
X4373968Y-12478769D01*
X4373968Y-12478769D02*
X4364444Y-12459722D01*
X4364444Y-12459722D02*
X4354920Y-12450198D01*
X4354920Y-12450198D02*
X4335872Y-12440674D01*
X4335872Y-12440674D02*
X4297777Y-12440674D01*
X4297777Y-12440674D02*
X4278730Y-12450198D01*
X4278730Y-12450198D02*
X4269206Y-12459722D01*
X4269206Y-12459722D02*
X4259682Y-12478769D01*
X4612063Y-12564484D02*
X4612063Y-12364484D01*
X4697777Y-12564484D02*
X4697777Y-12459722D01*
X4697777Y-12459722D02*
X4688253Y-12440674D01*
X4688253Y-12440674D02*
X4669206Y-12431150D01*
X4669206Y-12431150D02*
X4640634Y-12431150D01*
X4640634Y-12431150D02*
X4621587Y-12440674D01*
X4621587Y-12440674D02*
X4612063Y-12450198D01*
X4821587Y-12564484D02*
X4802539Y-12554960D01*
X4802539Y-12554960D02*
X4793015Y-12545436D01*
X4793015Y-12545436D02*
X4783492Y-12526388D01*
X4783492Y-12526388D02*
X4783492Y-12469246D01*
X4783492Y-12469246D02*
X4793015Y-12450198D01*
X4793015Y-12450198D02*
X4802539Y-12440674D01*
X4802539Y-12440674D02*
X4821587Y-12431150D01*
X4821587Y-12431150D02*
X4850158Y-12431150D01*
X4850158Y-12431150D02*
X4869206Y-12440674D01*
X4869206Y-12440674D02*
X4878730Y-12450198D01*
X4878730Y-12450198D02*
X4888253Y-12469246D01*
X4888253Y-12469246D02*
X4888253Y-12526388D01*
X4888253Y-12526388D02*
X4878730Y-12545436D01*
X4878730Y-12545436D02*
X4869206Y-12554960D01*
X4869206Y-12554960D02*
X4850158Y-12564484D01*
X4850158Y-12564484D02*
X4821587Y-12564484D01*
X5002539Y-12564484D02*
X4983492Y-12554960D01*
X4983492Y-12554960D02*
X4973968Y-12535912D01*
X4973968Y-12535912D02*
X4973968Y-12364484D01*
X5154920Y-12554960D02*
X5135873Y-12564484D01*
X5135873Y-12564484D02*
X5097777Y-12564484D01*
X5097777Y-12564484D02*
X5078730Y-12554960D01*
X5078730Y-12554960D02*
X5069206Y-12535912D01*
X5069206Y-12535912D02*
X5069206Y-12459722D01*
X5069206Y-12459722D02*
X5078730Y-12440674D01*
X5078730Y-12440674D02*
X5097777Y-12431150D01*
X5097777Y-12431150D02*
X5135873Y-12431150D01*
X5135873Y-12431150D02*
X5154920Y-12440674D01*
X5154920Y-12440674D02*
X5164444Y-12459722D01*
X5164444Y-12459722D02*
X5164444Y-12478769D01*
X5164444Y-12478769D02*
X5069206Y-12497817D01*
X5240634Y-12554960D02*
X5259682Y-12564484D01*
X5259682Y-12564484D02*
X5297777Y-12564484D01*
X5297777Y-12564484D02*
X5316825Y-12554960D01*
X5316825Y-12554960D02*
X5326349Y-12535912D01*
X5326349Y-12535912D02*
X5326349Y-12526388D01*
X5326349Y-12526388D02*
X5316825Y-12507341D01*
X5316825Y-12507341D02*
X5297777Y-12497817D01*
X5297777Y-12497817D02*
X5269206Y-12497817D01*
X5269206Y-12497817D02*
X5250158Y-12488293D01*
X5250158Y-12488293D02*
X5240634Y-12469246D01*
X5240634Y-12469246D02*
X5240634Y-12459722D01*
X5240634Y-12459722D02*
X5250158Y-12440674D01*
X5250158Y-12440674D02*
X5269206Y-12431150D01*
X5269206Y-12431150D02*
X5297777Y-12431150D01*
X5297777Y-12431150D02*
X5316825Y-12440674D01*
X5393015Y-12640674D02*
X5402539Y-12631150D01*
X5402539Y-12631150D02*
X5421587Y-12602579D01*
X5421587Y-12602579D02*
X5431111Y-12583531D01*
X5431111Y-12583531D02*
X5440634Y-12554960D01*
X5440634Y-12554960D02*
X5450158Y-12507341D01*
X5450158Y-12507341D02*
X5450158Y-12469246D01*
X5450158Y-12469246D02*
X5440634Y-12421627D01*
X5440634Y-12421627D02*
X5431111Y-12393055D01*
X5431111Y-12393055D02*
X5421587Y-12374008D01*
X5421587Y-12374008D02*
X5402539Y-12345436D01*
X5402539Y-12345436D02*
X5393015Y-12335912D01*
X5754920Y-12640674D02*
X5745396Y-12631150D01*
X5745396Y-12631150D02*
X5726349Y-12602579D01*
X5726349Y-12602579D02*
X5716825Y-12583531D01*
X5716825Y-12583531D02*
X5707301Y-12554960D01*
X5707301Y-12554960D02*
X5697777Y-12507341D01*
X5697777Y-12507341D02*
X5697777Y-12469246D01*
X5697777Y-12469246D02*
X5707301Y-12421627D01*
X5707301Y-12421627D02*
X5716825Y-12393055D01*
X5716825Y-12393055D02*
X5726349Y-12374008D01*
X5726349Y-12374008D02*
X5745396Y-12345436D01*
X5745396Y-12345436D02*
X5754920Y-12335912D01*
X5831111Y-12431150D02*
X5831111Y-12564484D01*
X5831111Y-12450198D02*
X5840634Y-12440674D01*
X5840634Y-12440674D02*
X5859682Y-12431150D01*
X5859682Y-12431150D02*
X5888253Y-12431150D01*
X5888253Y-12431150D02*
X5907301Y-12440674D01*
X5907301Y-12440674D02*
X5916825Y-12459722D01*
X5916825Y-12459722D02*
X5916825Y-12564484D01*
X6040634Y-12564484D02*
X6021587Y-12554960D01*
X6021587Y-12554960D02*
X6012063Y-12545436D01*
X6012063Y-12545436D02*
X6002539Y-12526388D01*
X6002539Y-12526388D02*
X6002539Y-12469246D01*
X6002539Y-12469246D02*
X6012063Y-12450198D01*
X6012063Y-12450198D02*
X6021587Y-12440674D01*
X6021587Y-12440674D02*
X6040634Y-12431150D01*
X6040634Y-12431150D02*
X6069206Y-12431150D01*
X6069206Y-12431150D02*
X6088253Y-12440674D01*
X6088253Y-12440674D02*
X6097777Y-12450198D01*
X6097777Y-12450198D02*
X6107301Y-12469246D01*
X6107301Y-12469246D02*
X6107301Y-12526388D01*
X6107301Y-12526388D02*
X6097777Y-12545436D01*
X6097777Y-12545436D02*
X6088253Y-12554960D01*
X6088253Y-12554960D02*
X6069206Y-12564484D01*
X6069206Y-12564484D02*
X6040634Y-12564484D01*
X6164444Y-12431150D02*
X6240634Y-12431150D01*
X6193015Y-12364484D02*
X6193015Y-12535912D01*
X6193015Y-12535912D02*
X6202539Y-12554960D01*
X6202539Y-12554960D02*
X6221587Y-12564484D01*
X6221587Y-12564484D02*
X6240634Y-12564484D01*
X6459682Y-12431150D02*
X6459682Y-12631150D01*
X6459682Y-12440674D02*
X6478730Y-12431150D01*
X6478730Y-12431150D02*
X6516825Y-12431150D01*
X6516825Y-12431150D02*
X6535873Y-12440674D01*
X6535873Y-12440674D02*
X6545396Y-12450198D01*
X6545396Y-12450198D02*
X6554920Y-12469246D01*
X6554920Y-12469246D02*
X6554920Y-12526388D01*
X6554920Y-12526388D02*
X6545396Y-12545436D01*
X6545396Y-12545436D02*
X6535873Y-12554960D01*
X6535873Y-12554960D02*
X6516825Y-12564484D01*
X6516825Y-12564484D02*
X6478730Y-12564484D01*
X6478730Y-12564484D02*
X6459682Y-12554960D01*
X6669206Y-12564484D02*
X6650158Y-12554960D01*
X6650158Y-12554960D02*
X6640634Y-12535912D01*
X6640634Y-12535912D02*
X6640634Y-12364484D01*
X6831111Y-12564484D02*
X6831111Y-12459722D01*
X6831111Y-12459722D02*
X6821587Y-12440674D01*
X6821587Y-12440674D02*
X6802539Y-12431150D01*
X6802539Y-12431150D02*
X6764444Y-12431150D01*
X6764444Y-12431150D02*
X6745396Y-12440674D01*
X6831111Y-12554960D02*
X6812063Y-12564484D01*
X6812063Y-12564484D02*
X6764444Y-12564484D01*
X6764444Y-12564484D02*
X6745396Y-12554960D01*
X6745396Y-12554960D02*
X6735873Y-12535912D01*
X6735873Y-12535912D02*
X6735873Y-12516865D01*
X6735873Y-12516865D02*
X6745396Y-12497817D01*
X6745396Y-12497817D02*
X6764444Y-12488293D01*
X6764444Y-12488293D02*
X6812063Y-12488293D01*
X6812063Y-12488293D02*
X6831111Y-12478769D01*
X6897777Y-12431150D02*
X6973968Y-12431150D01*
X6926349Y-12364484D02*
X6926349Y-12535912D01*
X6926349Y-12535912D02*
X6935873Y-12554960D01*
X6935873Y-12554960D02*
X6954920Y-12564484D01*
X6954920Y-12564484D02*
X6973968Y-12564484D01*
X7116825Y-12554960D02*
X7097777Y-12564484D01*
X7097777Y-12564484D02*
X7059682Y-12564484D01*
X7059682Y-12564484D02*
X7040634Y-12554960D01*
X7040634Y-12554960D02*
X7031111Y-12535912D01*
X7031111Y-12535912D02*
X7031111Y-12459722D01*
X7031111Y-12459722D02*
X7040634Y-12440674D01*
X7040634Y-12440674D02*
X7059682Y-12431150D01*
X7059682Y-12431150D02*
X7097777Y-12431150D01*
X7097777Y-12431150D02*
X7116825Y-12440674D01*
X7116825Y-12440674D02*
X7126349Y-12459722D01*
X7126349Y-12459722D02*
X7126349Y-12478769D01*
X7126349Y-12478769D02*
X7031111Y-12497817D01*
X7297777Y-12564484D02*
X7297777Y-12364484D01*
X7297777Y-12554960D02*
X7278730Y-12564484D01*
X7278730Y-12564484D02*
X7240634Y-12564484D01*
X7240634Y-12564484D02*
X7221587Y-12554960D01*
X7221587Y-12554960D02*
X7212063Y-12545436D01*
X7212063Y-12545436D02*
X7202539Y-12526388D01*
X7202539Y-12526388D02*
X7202539Y-12469246D01*
X7202539Y-12469246D02*
X7212063Y-12450198D01*
X7212063Y-12450198D02*
X7221587Y-12440674D01*
X7221587Y-12440674D02*
X7240634Y-12431150D01*
X7240634Y-12431150D02*
X7278730Y-12431150D01*
X7278730Y-12431150D02*
X7297777Y-12440674D01*
X7373968Y-12640674D02*
X7383492Y-12631150D01*
X7383492Y-12631150D02*
X7402539Y-12602579D01*
X7402539Y-12602579D02*
X7412063Y-12583531D01*
X7412063Y-12583531D02*
X7421587Y-12554960D01*
X7421587Y-12554960D02*
X7431111Y-12507341D01*
X7431111Y-12507341D02*
X7431111Y-12469246D01*
X7431111Y-12469246D02*
X7421587Y-12421627D01*
X7421587Y-12421627D02*
X7412063Y-12393055D01*
X7412063Y-12393055D02*
X7402539Y-12374008D01*
X7402539Y-12374008D02*
X7383492Y-12345436D01*
X7383492Y-12345436D02*
X7373968Y-12335912D01*
X237000Y-12763000D02*
G75*
G02*
X37000Y-12763000I-100000J0D01*
G01*
X37000Y-12763000D02*
G75*
G02*
X237000Y-12763000I100000J0D01*
G01*
X478729Y-12654484D02*
X602539Y-12654484D01*
X602539Y-12654484D02*
X535872Y-12730674D01*
X535872Y-12730674D02*
X564444Y-12730674D01*
X564444Y-12730674D02*
X583491Y-12740198D01*
X583491Y-12740198D02*
X593015Y-12749722D01*
X593015Y-12749722D02*
X602539Y-12768769D01*
X602539Y-12768769D02*
X602539Y-12816388D01*
X602539Y-12816388D02*
X593015Y-12835436D01*
X593015Y-12835436D02*
X583491Y-12844960D01*
X583491Y-12844960D02*
X564444Y-12854484D01*
X564444Y-12854484D02*
X507301Y-12854484D01*
X507301Y-12854484D02*
X488253Y-12844960D01*
X488253Y-12844960D02*
X478729Y-12835436D01*
X688253Y-12835436D02*
X697777Y-12844960D01*
X697777Y-12844960D02*
X688253Y-12854484D01*
X688253Y-12854484D02*
X678729Y-12844960D01*
X678729Y-12844960D02*
X688253Y-12835436D01*
X688253Y-12835436D02*
X688253Y-12854484D01*
X821586Y-12654484D02*
X840634Y-12654484D01*
X840634Y-12654484D02*
X859682Y-12664008D01*
X859682Y-12664008D02*
X869205Y-12673531D01*
X869205Y-12673531D02*
X878729Y-12692579D01*
X878729Y-12692579D02*
X888253Y-12730674D01*
X888253Y-12730674D02*
X888253Y-12778293D01*
X888253Y-12778293D02*
X878729Y-12816388D01*
X878729Y-12816388D02*
X869205Y-12835436D01*
X869205Y-12835436D02*
X859682Y-12844960D01*
X859682Y-12844960D02*
X840634Y-12854484D01*
X840634Y-12854484D02*
X821586Y-12854484D01*
X821586Y-12854484D02*
X802539Y-12844960D01*
X802539Y-12844960D02*
X793015Y-12835436D01*
X793015Y-12835436D02*
X783491Y-12816388D01*
X783491Y-12816388D02*
X773967Y-12778293D01*
X773967Y-12778293D02*
X773967Y-12730674D01*
X773967Y-12730674D02*
X783491Y-12692579D01*
X783491Y-12692579D02*
X793015Y-12673531D01*
X793015Y-12673531D02*
X802539Y-12664008D01*
X802539Y-12664008D02*
X821586Y-12654484D01*
X1059682Y-12721150D02*
X1059682Y-12854484D01*
X1012062Y-12644960D02*
X964443Y-12787817D01*
X964443Y-12787817D02*
X1088253Y-12787817D01*
X1193015Y-12740198D02*
X1173967Y-12730674D01*
X1173967Y-12730674D02*
X1164444Y-12721150D01*
X1164444Y-12721150D02*
X1154920Y-12702103D01*
X1154920Y-12702103D02*
X1154920Y-12692579D01*
X1154920Y-12692579D02*
X1164444Y-12673531D01*
X1164444Y-12673531D02*
X1173967Y-12664008D01*
X1173967Y-12664008D02*
X1193015Y-12654484D01*
X1193015Y-12654484D02*
X1231110Y-12654484D01*
X1231110Y-12654484D02*
X1250158Y-12664008D01*
X1250158Y-12664008D02*
X1259682Y-12673531D01*
X1259682Y-12673531D02*
X1269205Y-12692579D01*
X1269205Y-12692579D02*
X1269205Y-12702103D01*
X1269205Y-12702103D02*
X1259682Y-12721150D01*
X1259682Y-12721150D02*
X1250158Y-12730674D01*
X1250158Y-12730674D02*
X1231110Y-12740198D01*
X1231110Y-12740198D02*
X1193015Y-12740198D01*
X1193015Y-12740198D02*
X1173967Y-12749722D01*
X1173967Y-12749722D02*
X1164444Y-12759246D01*
X1164444Y-12759246D02*
X1154920Y-12778293D01*
X1154920Y-12778293D02*
X1154920Y-12816388D01*
X1154920Y-12816388D02*
X1164444Y-12835436D01*
X1164444Y-12835436D02*
X1173967Y-12844960D01*
X1173967Y-12844960D02*
X1193015Y-12854484D01*
X1193015Y-12854484D02*
X1231110Y-12854484D01*
X1231110Y-12854484D02*
X1250158Y-12844960D01*
X1250158Y-12844960D02*
X1259682Y-12835436D01*
X1259682Y-12835436D02*
X1269205Y-12816388D01*
X1269205Y-12816388D02*
X1269205Y-12778293D01*
X1269205Y-12778293D02*
X1259682Y-12759246D01*
X1259682Y-12759246D02*
X1250158Y-12749722D01*
X1250158Y-12749722D02*
X1231110Y-12740198D01*
X1354920Y-12854484D02*
X1354920Y-12721150D01*
X1354920Y-12740198D02*
X1364444Y-12730674D01*
X1364444Y-12730674D02*
X1383491Y-12721150D01*
X1383491Y-12721150D02*
X1412063Y-12721150D01*
X1412063Y-12721150D02*
X1431110Y-12730674D01*
X1431110Y-12730674D02*
X1440634Y-12749722D01*
X1440634Y-12749722D02*
X1440634Y-12854484D01*
X1440634Y-12749722D02*
X1450158Y-12730674D01*
X1450158Y-12730674D02*
X1469205Y-12721150D01*
X1469205Y-12721150D02*
X1497777Y-12721150D01*
X1497777Y-12721150D02*
X1516824Y-12730674D01*
X1516824Y-12730674D02*
X1526348Y-12749722D01*
X1526348Y-12749722D02*
X1526348Y-12854484D01*
X1621586Y-12854484D02*
X1621586Y-12721150D01*
X1621586Y-12740198D02*
X1631110Y-12730674D01*
X1631110Y-12730674D02*
X1650158Y-12721150D01*
X1650158Y-12721150D02*
X1678729Y-12721150D01*
X1678729Y-12721150D02*
X1697777Y-12730674D01*
X1697777Y-12730674D02*
X1707301Y-12749722D01*
X1707301Y-12749722D02*
X1707301Y-12854484D01*
X1707301Y-12749722D02*
X1716824Y-12730674D01*
X1716824Y-12730674D02*
X1735872Y-12721150D01*
X1735872Y-12721150D02*
X1764443Y-12721150D01*
X1764443Y-12721150D02*
X1783491Y-12730674D01*
X1783491Y-12730674D02*
X1793015Y-12749722D01*
X1793015Y-12749722D02*
X1793015Y-12854484D01*
X2183491Y-12644960D02*
X2012063Y-12902103D01*
X2440634Y-12654484D02*
X2459682Y-12654484D01*
X2459682Y-12654484D02*
X2478729Y-12664008D01*
X2478729Y-12664008D02*
X2488253Y-12673531D01*
X2488253Y-12673531D02*
X2497777Y-12692579D01*
X2497777Y-12692579D02*
X2507301Y-12730674D01*
X2507301Y-12730674D02*
X2507301Y-12778293D01*
X2507301Y-12778293D02*
X2497777Y-12816388D01*
X2497777Y-12816388D02*
X2488253Y-12835436D01*
X2488253Y-12835436D02*
X2478729Y-12844960D01*
X2478729Y-12844960D02*
X2459682Y-12854484D01*
X2459682Y-12854484D02*
X2440634Y-12854484D01*
X2440634Y-12854484D02*
X2421587Y-12844960D01*
X2421587Y-12844960D02*
X2412063Y-12835436D01*
X2412063Y-12835436D02*
X2402539Y-12816388D01*
X2402539Y-12816388D02*
X2393015Y-12778293D01*
X2393015Y-12778293D02*
X2393015Y-12730674D01*
X2393015Y-12730674D02*
X2402539Y-12692579D01*
X2402539Y-12692579D02*
X2412063Y-12673531D01*
X2412063Y-12673531D02*
X2421587Y-12664008D01*
X2421587Y-12664008D02*
X2440634Y-12654484D01*
X2593015Y-12835436D02*
X2602539Y-12844960D01*
X2602539Y-12844960D02*
X2593015Y-12854484D01*
X2593015Y-12854484D02*
X2583491Y-12844960D01*
X2583491Y-12844960D02*
X2593015Y-12835436D01*
X2593015Y-12835436D02*
X2593015Y-12854484D01*
X2793015Y-12854484D02*
X2678729Y-12854484D01*
X2735872Y-12854484D02*
X2735872Y-12654484D01*
X2735872Y-12654484D02*
X2716825Y-12683055D01*
X2716825Y-12683055D02*
X2697777Y-12702103D01*
X2697777Y-12702103D02*
X2678729Y-12711627D01*
X2869206Y-12673531D02*
X2878729Y-12664008D01*
X2878729Y-12664008D02*
X2897777Y-12654484D01*
X2897777Y-12654484D02*
X2945396Y-12654484D01*
X2945396Y-12654484D02*
X2964444Y-12664008D01*
X2964444Y-12664008D02*
X2973967Y-12673531D01*
X2973967Y-12673531D02*
X2983491Y-12692579D01*
X2983491Y-12692579D02*
X2983491Y-12711627D01*
X2983491Y-12711627D02*
X2973967Y-12740198D01*
X2973967Y-12740198D02*
X2859682Y-12854484D01*
X2859682Y-12854484D02*
X2983491Y-12854484D01*
X3107301Y-12654484D02*
X3126348Y-12654484D01*
X3126348Y-12654484D02*
X3145396Y-12664008D01*
X3145396Y-12664008D02*
X3154920Y-12673531D01*
X3154920Y-12673531D02*
X3164444Y-12692579D01*
X3164444Y-12692579D02*
X3173967Y-12730674D01*
X3173967Y-12730674D02*
X3173967Y-12778293D01*
X3173967Y-12778293D02*
X3164444Y-12816388D01*
X3164444Y-12816388D02*
X3154920Y-12835436D01*
X3154920Y-12835436D02*
X3145396Y-12844960D01*
X3145396Y-12844960D02*
X3126348Y-12854484D01*
X3126348Y-12854484D02*
X3107301Y-12854484D01*
X3107301Y-12854484D02*
X3088253Y-12844960D01*
X3088253Y-12844960D02*
X3078729Y-12835436D01*
X3078729Y-12835436D02*
X3069206Y-12816388D01*
X3069206Y-12816388D02*
X3059682Y-12778293D01*
X3059682Y-12778293D02*
X3059682Y-12730674D01*
X3059682Y-12730674D02*
X3069206Y-12692579D01*
X3069206Y-12692579D02*
X3078729Y-12673531D01*
X3078729Y-12673531D02*
X3088253Y-12664008D01*
X3088253Y-12664008D02*
X3107301Y-12654484D01*
X3297777Y-12654484D02*
X3316825Y-12654484D01*
X3316825Y-12654484D02*
X3335872Y-12664008D01*
X3335872Y-12664008D02*
X3345396Y-12673531D01*
X3345396Y-12673531D02*
X3354920Y-12692579D01*
X3354920Y-12692579D02*
X3364444Y-12730674D01*
X3364444Y-12730674D02*
X3364444Y-12778293D01*
X3364444Y-12778293D02*
X3354920Y-12816388D01*
X3354920Y-12816388D02*
X3345396Y-12835436D01*
X3345396Y-12835436D02*
X3335872Y-12844960D01*
X3335872Y-12844960D02*
X3316825Y-12854484D01*
X3316825Y-12854484D02*
X3297777Y-12854484D01*
X3297777Y-12854484D02*
X3278729Y-12844960D01*
X3278729Y-12844960D02*
X3269206Y-12835436D01*
X3269206Y-12835436D02*
X3259682Y-12816388D01*
X3259682Y-12816388D02*
X3250158Y-12778293D01*
X3250158Y-12778293D02*
X3250158Y-12730674D01*
X3250158Y-12730674D02*
X3259682Y-12692579D01*
X3259682Y-12692579D02*
X3269206Y-12673531D01*
X3269206Y-12673531D02*
X3278729Y-12664008D01*
X3278729Y-12664008D02*
X3297777Y-12654484D01*
X3440634Y-12654484D02*
X3440634Y-12692579D01*
X3516825Y-12654484D02*
X3516825Y-12692579D01*
X3812063Y-12930674D02*
X3802539Y-12921150D01*
X3802539Y-12921150D02*
X3783491Y-12892579D01*
X3783491Y-12892579D02*
X3773968Y-12873531D01*
X3773968Y-12873531D02*
X3764444Y-12844960D01*
X3764444Y-12844960D02*
X3754920Y-12797341D01*
X3754920Y-12797341D02*
X3754920Y-12759246D01*
X3754920Y-12759246D02*
X3764444Y-12711627D01*
X3764444Y-12711627D02*
X3773968Y-12683055D01*
X3773968Y-12683055D02*
X3783491Y-12664008D01*
X3783491Y-12664008D02*
X3802539Y-12635436D01*
X3802539Y-12635436D02*
X3812063Y-12625912D01*
X3916825Y-12740198D02*
X3897777Y-12730674D01*
X3897777Y-12730674D02*
X3888253Y-12721150D01*
X3888253Y-12721150D02*
X3878729Y-12702103D01*
X3878729Y-12702103D02*
X3878729Y-12692579D01*
X3878729Y-12692579D02*
X3888253Y-12673531D01*
X3888253Y-12673531D02*
X3897777Y-12664008D01*
X3897777Y-12664008D02*
X3916825Y-12654484D01*
X3916825Y-12654484D02*
X3954920Y-12654484D01*
X3954920Y-12654484D02*
X3973968Y-12664008D01*
X3973968Y-12664008D02*
X3983491Y-12673531D01*
X3983491Y-12673531D02*
X3993015Y-12692579D01*
X3993015Y-12692579D02*
X3993015Y-12702103D01*
X3993015Y-12702103D02*
X3983491Y-12721150D01*
X3983491Y-12721150D02*
X3973968Y-12730674D01*
X3973968Y-12730674D02*
X3954920Y-12740198D01*
X3954920Y-12740198D02*
X3916825Y-12740198D01*
X3916825Y-12740198D02*
X3897777Y-12749722D01*
X3897777Y-12749722D02*
X3888253Y-12759246D01*
X3888253Y-12759246D02*
X3878729Y-12778293D01*
X3878729Y-12778293D02*
X3878729Y-12816388D01*
X3878729Y-12816388D02*
X3888253Y-12835436D01*
X3888253Y-12835436D02*
X3897777Y-12844960D01*
X3897777Y-12844960D02*
X3916825Y-12854484D01*
X3916825Y-12854484D02*
X3954920Y-12854484D01*
X3954920Y-12854484D02*
X3973968Y-12844960D01*
X3973968Y-12844960D02*
X3983491Y-12835436D01*
X3983491Y-12835436D02*
X3993015Y-12816388D01*
X3993015Y-12816388D02*
X3993015Y-12778293D01*
X3993015Y-12778293D02*
X3983491Y-12759246D01*
X3983491Y-12759246D02*
X3973968Y-12749722D01*
X3973968Y-12749722D02*
X3954920Y-12740198D01*
X4231111Y-12854484D02*
X4231111Y-12654484D01*
X4316825Y-12854484D02*
X4316825Y-12749722D01*
X4316825Y-12749722D02*
X4307301Y-12730674D01*
X4307301Y-12730674D02*
X4288253Y-12721150D01*
X4288253Y-12721150D02*
X4259682Y-12721150D01*
X4259682Y-12721150D02*
X4240634Y-12730674D01*
X4240634Y-12730674D02*
X4231111Y-12740198D01*
X4440634Y-12854484D02*
X4421587Y-12844960D01*
X4421587Y-12844960D02*
X4412063Y-12835436D01*
X4412063Y-12835436D02*
X4402539Y-12816388D01*
X4402539Y-12816388D02*
X4402539Y-12759246D01*
X4402539Y-12759246D02*
X4412063Y-12740198D01*
X4412063Y-12740198D02*
X4421587Y-12730674D01*
X4421587Y-12730674D02*
X4440634Y-12721150D01*
X4440634Y-12721150D02*
X4469206Y-12721150D01*
X4469206Y-12721150D02*
X4488253Y-12730674D01*
X4488253Y-12730674D02*
X4497777Y-12740198D01*
X4497777Y-12740198D02*
X4507301Y-12759246D01*
X4507301Y-12759246D02*
X4507301Y-12816388D01*
X4507301Y-12816388D02*
X4497777Y-12835436D01*
X4497777Y-12835436D02*
X4488253Y-12844960D01*
X4488253Y-12844960D02*
X4469206Y-12854484D01*
X4469206Y-12854484D02*
X4440634Y-12854484D01*
X4621587Y-12854484D02*
X4602539Y-12844960D01*
X4602539Y-12844960D02*
X4593015Y-12825912D01*
X4593015Y-12825912D02*
X4593015Y-12654484D01*
X4773968Y-12844960D02*
X4754920Y-12854484D01*
X4754920Y-12854484D02*
X4716825Y-12854484D01*
X4716825Y-12854484D02*
X4697777Y-12844960D01*
X4697777Y-12844960D02*
X4688253Y-12825912D01*
X4688253Y-12825912D02*
X4688253Y-12749722D01*
X4688253Y-12749722D02*
X4697777Y-12730674D01*
X4697777Y-12730674D02*
X4716825Y-12721150D01*
X4716825Y-12721150D02*
X4754920Y-12721150D01*
X4754920Y-12721150D02*
X4773968Y-12730674D01*
X4773968Y-12730674D02*
X4783492Y-12749722D01*
X4783492Y-12749722D02*
X4783492Y-12768769D01*
X4783492Y-12768769D02*
X4688253Y-12787817D01*
X4859682Y-12844960D02*
X4878730Y-12854484D01*
X4878730Y-12854484D02*
X4916825Y-12854484D01*
X4916825Y-12854484D02*
X4935873Y-12844960D01*
X4935873Y-12844960D02*
X4945396Y-12825912D01*
X4945396Y-12825912D02*
X4945396Y-12816388D01*
X4945396Y-12816388D02*
X4935873Y-12797341D01*
X4935873Y-12797341D02*
X4916825Y-12787817D01*
X4916825Y-12787817D02*
X4888253Y-12787817D01*
X4888253Y-12787817D02*
X4869206Y-12778293D01*
X4869206Y-12778293D02*
X4859682Y-12759246D01*
X4859682Y-12759246D02*
X4859682Y-12749722D01*
X4859682Y-12749722D02*
X4869206Y-12730674D01*
X4869206Y-12730674D02*
X4888253Y-12721150D01*
X4888253Y-12721150D02*
X4916825Y-12721150D01*
X4916825Y-12721150D02*
X4935873Y-12730674D01*
X5012063Y-12930674D02*
X5021587Y-12921150D01*
X5021587Y-12921150D02*
X5040634Y-12892579D01*
X5040634Y-12892579D02*
X5050158Y-12873531D01*
X5050158Y-12873531D02*
X5059682Y-12844960D01*
X5059682Y-12844960D02*
X5069206Y-12797341D01*
X5069206Y-12797341D02*
X5069206Y-12759246D01*
X5069206Y-12759246D02*
X5059682Y-12711627D01*
X5059682Y-12711627D02*
X5050158Y-12683055D01*
X5050158Y-12683055D02*
X5040634Y-12664008D01*
X5040634Y-12664008D02*
X5021587Y-12635436D01*
X5021587Y-12635436D02*
X5012063Y-12625912D01*
X5373968Y-12930674D02*
X5364444Y-12921150D01*
X5364444Y-12921150D02*
X5345396Y-12892579D01*
X5345396Y-12892579D02*
X5335873Y-12873531D01*
X5335873Y-12873531D02*
X5326349Y-12844960D01*
X5326349Y-12844960D02*
X5316825Y-12797341D01*
X5316825Y-12797341D02*
X5316825Y-12759246D01*
X5316825Y-12759246D02*
X5326349Y-12711627D01*
X5326349Y-12711627D02*
X5335873Y-12683055D01*
X5335873Y-12683055D02*
X5345396Y-12664008D01*
X5345396Y-12664008D02*
X5364444Y-12635436D01*
X5364444Y-12635436D02*
X5373968Y-12625912D01*
X5450158Y-12721150D02*
X5450158Y-12854484D01*
X5450158Y-12740198D02*
X5459682Y-12730674D01*
X5459682Y-12730674D02*
X5478730Y-12721150D01*
X5478730Y-12721150D02*
X5507301Y-12721150D01*
X5507301Y-12721150D02*
X5526349Y-12730674D01*
X5526349Y-12730674D02*
X5535873Y-12749722D01*
X5535873Y-12749722D02*
X5535873Y-12854484D01*
X5659682Y-12854484D02*
X5640634Y-12844960D01*
X5640634Y-12844960D02*
X5631111Y-12835436D01*
X5631111Y-12835436D02*
X5621587Y-12816388D01*
X5621587Y-12816388D02*
X5621587Y-12759246D01*
X5621587Y-12759246D02*
X5631111Y-12740198D01*
X5631111Y-12740198D02*
X5640634Y-12730674D01*
X5640634Y-12730674D02*
X5659682Y-12721150D01*
X5659682Y-12721150D02*
X5688253Y-12721150D01*
X5688253Y-12721150D02*
X5707301Y-12730674D01*
X5707301Y-12730674D02*
X5716825Y-12740198D01*
X5716825Y-12740198D02*
X5726349Y-12759246D01*
X5726349Y-12759246D02*
X5726349Y-12816388D01*
X5726349Y-12816388D02*
X5716825Y-12835436D01*
X5716825Y-12835436D02*
X5707301Y-12844960D01*
X5707301Y-12844960D02*
X5688253Y-12854484D01*
X5688253Y-12854484D02*
X5659682Y-12854484D01*
X5783492Y-12721150D02*
X5859682Y-12721150D01*
X5812063Y-12654484D02*
X5812063Y-12825912D01*
X5812063Y-12825912D02*
X5821587Y-12844960D01*
X5821587Y-12844960D02*
X5840634Y-12854484D01*
X5840634Y-12854484D02*
X5859682Y-12854484D01*
X6078730Y-12721150D02*
X6078730Y-12921150D01*
X6078730Y-12730674D02*
X6097777Y-12721150D01*
X6097777Y-12721150D02*
X6135873Y-12721150D01*
X6135873Y-12721150D02*
X6154920Y-12730674D01*
X6154920Y-12730674D02*
X6164444Y-12740198D01*
X6164444Y-12740198D02*
X6173968Y-12759246D01*
X6173968Y-12759246D02*
X6173968Y-12816388D01*
X6173968Y-12816388D02*
X6164444Y-12835436D01*
X6164444Y-12835436D02*
X6154920Y-12844960D01*
X6154920Y-12844960D02*
X6135873Y-12854484D01*
X6135873Y-12854484D02*
X6097777Y-12854484D01*
X6097777Y-12854484D02*
X6078730Y-12844960D01*
X6288253Y-12854484D02*
X6269206Y-12844960D01*
X6269206Y-12844960D02*
X6259682Y-12825912D01*
X6259682Y-12825912D02*
X6259682Y-12654484D01*
X6450158Y-12854484D02*
X6450158Y-12749722D01*
X6450158Y-12749722D02*
X6440634Y-12730674D01*
X6440634Y-12730674D02*
X6421587Y-12721150D01*
X6421587Y-12721150D02*
X6383492Y-12721150D01*
X6383492Y-12721150D02*
X6364444Y-12730674D01*
X6450158Y-12844960D02*
X6431111Y-12854484D01*
X6431111Y-12854484D02*
X6383492Y-12854484D01*
X6383492Y-12854484D02*
X6364444Y-12844960D01*
X6364444Y-12844960D02*
X6354920Y-12825912D01*
X6354920Y-12825912D02*
X6354920Y-12806865D01*
X6354920Y-12806865D02*
X6364444Y-12787817D01*
X6364444Y-12787817D02*
X6383492Y-12778293D01*
X6383492Y-12778293D02*
X6431111Y-12778293D01*
X6431111Y-12778293D02*
X6450158Y-12768769D01*
X6516825Y-12721150D02*
X6593015Y-12721150D01*
X6545396Y-12654484D02*
X6545396Y-12825912D01*
X6545396Y-12825912D02*
X6554920Y-12844960D01*
X6554920Y-12844960D02*
X6573968Y-12854484D01*
X6573968Y-12854484D02*
X6593015Y-12854484D01*
X6735873Y-12844960D02*
X6716825Y-12854484D01*
X6716825Y-12854484D02*
X6678730Y-12854484D01*
X6678730Y-12854484D02*
X6659682Y-12844960D01*
X6659682Y-12844960D02*
X6650158Y-12825912D01*
X6650158Y-12825912D02*
X6650158Y-12749722D01*
X6650158Y-12749722D02*
X6659682Y-12730674D01*
X6659682Y-12730674D02*
X6678730Y-12721150D01*
X6678730Y-12721150D02*
X6716825Y-12721150D01*
X6716825Y-12721150D02*
X6735873Y-12730674D01*
X6735873Y-12730674D02*
X6745396Y-12749722D01*
X6745396Y-12749722D02*
X6745396Y-12768769D01*
X6745396Y-12768769D02*
X6650158Y-12787817D01*
X6916825Y-12854484D02*
X6916825Y-12654484D01*
X6916825Y-12844960D02*
X6897777Y-12854484D01*
X6897777Y-12854484D02*
X6859682Y-12854484D01*
X6859682Y-12854484D02*
X6840634Y-12844960D01*
X6840634Y-12844960D02*
X6831111Y-12835436D01*
X6831111Y-12835436D02*
X6821587Y-12816388D01*
X6821587Y-12816388D02*
X6821587Y-12759246D01*
X6821587Y-12759246D02*
X6831111Y-12740198D01*
X6831111Y-12740198D02*
X6840634Y-12730674D01*
X6840634Y-12730674D02*
X6859682Y-12721150D01*
X6859682Y-12721150D02*
X6897777Y-12721150D01*
X6897777Y-12721150D02*
X6916825Y-12730674D01*
X6993015Y-12930674D02*
X7002539Y-12921150D01*
X7002539Y-12921150D02*
X7021587Y-12892579D01*
X7021587Y-12892579D02*
X7031111Y-12873531D01*
X7031111Y-12873531D02*
X7040634Y-12844960D01*
X7040634Y-12844960D02*
X7050158Y-12797341D01*
X7050158Y-12797341D02*
X7050158Y-12759246D01*
X7050158Y-12759246D02*
X7040634Y-12711627D01*
X7040634Y-12711627D02*
X7031111Y-12683055D01*
X7031111Y-12683055D02*
X7021587Y-12664008D01*
X7021587Y-12664008D02*
X7002539Y-12635436D01*
X7002539Y-12635436D02*
X6993015Y-12625912D01*
X137000Y-12983000D02*
X137000Y-13183000D01*
X37000Y-13083000D02*
X237000Y-13083000D01*
X478729Y-12974484D02*
X602539Y-12974484D01*
X602539Y-12974484D02*
X535872Y-13050674D01*
X535872Y-13050674D02*
X564444Y-13050674D01*
X564444Y-13050674D02*
X583491Y-13060198D01*
X583491Y-13060198D02*
X593015Y-13069722D01*
X593015Y-13069722D02*
X602539Y-13088769D01*
X602539Y-13088769D02*
X602539Y-13136388D01*
X602539Y-13136388D02*
X593015Y-13155436D01*
X593015Y-13155436D02*
X583491Y-13164960D01*
X583491Y-13164960D02*
X564444Y-13174484D01*
X564444Y-13174484D02*
X507301Y-13174484D01*
X507301Y-13174484D02*
X488253Y-13164960D01*
X488253Y-13164960D02*
X478729Y-13155436D01*
X688253Y-13155436D02*
X697777Y-13164960D01*
X697777Y-13164960D02*
X688253Y-13174484D01*
X688253Y-13174484D02*
X678729Y-13164960D01*
X678729Y-13164960D02*
X688253Y-13155436D01*
X688253Y-13155436D02*
X688253Y-13174484D01*
X821586Y-12974484D02*
X840634Y-12974484D01*
X840634Y-12974484D02*
X859682Y-12984008D01*
X859682Y-12984008D02*
X869205Y-12993531D01*
X869205Y-12993531D02*
X878729Y-13012579D01*
X878729Y-13012579D02*
X888253Y-13050674D01*
X888253Y-13050674D02*
X888253Y-13098293D01*
X888253Y-13098293D02*
X878729Y-13136388D01*
X878729Y-13136388D02*
X869205Y-13155436D01*
X869205Y-13155436D02*
X859682Y-13164960D01*
X859682Y-13164960D02*
X840634Y-13174484D01*
X840634Y-13174484D02*
X821586Y-13174484D01*
X821586Y-13174484D02*
X802539Y-13164960D01*
X802539Y-13164960D02*
X793015Y-13155436D01*
X793015Y-13155436D02*
X783491Y-13136388D01*
X783491Y-13136388D02*
X773967Y-13098293D01*
X773967Y-13098293D02*
X773967Y-13050674D01*
X773967Y-13050674D02*
X783491Y-13012579D01*
X783491Y-13012579D02*
X793015Y-12993531D01*
X793015Y-12993531D02*
X802539Y-12984008D01*
X802539Y-12984008D02*
X821586Y-12974484D01*
X1069205Y-12974484D02*
X973967Y-12974484D01*
X973967Y-12974484D02*
X964443Y-13069722D01*
X964443Y-13069722D02*
X973967Y-13060198D01*
X973967Y-13060198D02*
X993015Y-13050674D01*
X993015Y-13050674D02*
X1040634Y-13050674D01*
X1040634Y-13050674D02*
X1059682Y-13060198D01*
X1059682Y-13060198D02*
X1069205Y-13069722D01*
X1069205Y-13069722D02*
X1078729Y-13088769D01*
X1078729Y-13088769D02*
X1078729Y-13136388D01*
X1078729Y-13136388D02*
X1069205Y-13155436D01*
X1069205Y-13155436D02*
X1059682Y-13164960D01*
X1059682Y-13164960D02*
X1040634Y-13174484D01*
X1040634Y-13174484D02*
X993015Y-13174484D01*
X993015Y-13174484D02*
X973967Y-13164960D01*
X973967Y-13164960D02*
X964443Y-13155436D01*
X1202539Y-12974484D02*
X1221586Y-12974484D01*
X1221586Y-12974484D02*
X1240634Y-12984008D01*
X1240634Y-12984008D02*
X1250158Y-12993531D01*
X1250158Y-12993531D02*
X1259682Y-13012579D01*
X1259682Y-13012579D02*
X1269205Y-13050674D01*
X1269205Y-13050674D02*
X1269205Y-13098293D01*
X1269205Y-13098293D02*
X1259682Y-13136388D01*
X1259682Y-13136388D02*
X1250158Y-13155436D01*
X1250158Y-13155436D02*
X1240634Y-13164960D01*
X1240634Y-13164960D02*
X1221586Y-13174484D01*
X1221586Y-13174484D02*
X1202539Y-13174484D01*
X1202539Y-13174484D02*
X1183491Y-13164960D01*
X1183491Y-13164960D02*
X1173967Y-13155436D01*
X1173967Y-13155436D02*
X1164444Y-13136388D01*
X1164444Y-13136388D02*
X1154920Y-13098293D01*
X1154920Y-13098293D02*
X1154920Y-13050674D01*
X1154920Y-13050674D02*
X1164444Y-13012579D01*
X1164444Y-13012579D02*
X1173967Y-12993531D01*
X1173967Y-12993531D02*
X1183491Y-12984008D01*
X1183491Y-12984008D02*
X1202539Y-12974484D01*
X1354920Y-13174484D02*
X1354920Y-13041150D01*
X1354920Y-13060198D02*
X1364444Y-13050674D01*
X1364444Y-13050674D02*
X1383491Y-13041150D01*
X1383491Y-13041150D02*
X1412063Y-13041150D01*
X1412063Y-13041150D02*
X1431110Y-13050674D01*
X1431110Y-13050674D02*
X1440634Y-13069722D01*
X1440634Y-13069722D02*
X1440634Y-13174484D01*
X1440634Y-13069722D02*
X1450158Y-13050674D01*
X1450158Y-13050674D02*
X1469205Y-13041150D01*
X1469205Y-13041150D02*
X1497777Y-13041150D01*
X1497777Y-13041150D02*
X1516824Y-13050674D01*
X1516824Y-13050674D02*
X1526348Y-13069722D01*
X1526348Y-13069722D02*
X1526348Y-13174484D01*
X1621586Y-13174484D02*
X1621586Y-13041150D01*
X1621586Y-13060198D02*
X1631110Y-13050674D01*
X1631110Y-13050674D02*
X1650158Y-13041150D01*
X1650158Y-13041150D02*
X1678729Y-13041150D01*
X1678729Y-13041150D02*
X1697777Y-13050674D01*
X1697777Y-13050674D02*
X1707301Y-13069722D01*
X1707301Y-13069722D02*
X1707301Y-13174484D01*
X1707301Y-13069722D02*
X1716824Y-13050674D01*
X1716824Y-13050674D02*
X1735872Y-13041150D01*
X1735872Y-13041150D02*
X1764443Y-13041150D01*
X1764443Y-13041150D02*
X1783491Y-13050674D01*
X1783491Y-13050674D02*
X1793015Y-13069722D01*
X1793015Y-13069722D02*
X1793015Y-13174484D01*
X2183491Y-12964960D02*
X2012063Y-13222103D01*
X2440634Y-12974484D02*
X2459682Y-12974484D01*
X2459682Y-12974484D02*
X2478729Y-12984008D01*
X2478729Y-12984008D02*
X2488253Y-12993531D01*
X2488253Y-12993531D02*
X2497777Y-13012579D01*
X2497777Y-13012579D02*
X2507301Y-13050674D01*
X2507301Y-13050674D02*
X2507301Y-13098293D01*
X2507301Y-13098293D02*
X2497777Y-13136388D01*
X2497777Y-13136388D02*
X2488253Y-13155436D01*
X2488253Y-13155436D02*
X2478729Y-13164960D01*
X2478729Y-13164960D02*
X2459682Y-13174484D01*
X2459682Y-13174484D02*
X2440634Y-13174484D01*
X2440634Y-13174484D02*
X2421587Y-13164960D01*
X2421587Y-13164960D02*
X2412063Y-13155436D01*
X2412063Y-13155436D02*
X2402539Y-13136388D01*
X2402539Y-13136388D02*
X2393015Y-13098293D01*
X2393015Y-13098293D02*
X2393015Y-13050674D01*
X2393015Y-13050674D02*
X2402539Y-13012579D01*
X2402539Y-13012579D02*
X2412063Y-12993531D01*
X2412063Y-12993531D02*
X2421587Y-12984008D01*
X2421587Y-12984008D02*
X2440634Y-12974484D01*
X2593015Y-13155436D02*
X2602539Y-13164960D01*
X2602539Y-13164960D02*
X2593015Y-13174484D01*
X2593015Y-13174484D02*
X2583491Y-13164960D01*
X2583491Y-13164960D02*
X2593015Y-13155436D01*
X2593015Y-13155436D02*
X2593015Y-13174484D01*
X2793015Y-13174484D02*
X2678729Y-13174484D01*
X2735872Y-13174484D02*
X2735872Y-12974484D01*
X2735872Y-12974484D02*
X2716825Y-13003055D01*
X2716825Y-13003055D02*
X2697777Y-13022103D01*
X2697777Y-13022103D02*
X2678729Y-13031627D01*
X2869206Y-12993531D02*
X2878729Y-12984008D01*
X2878729Y-12984008D02*
X2897777Y-12974484D01*
X2897777Y-12974484D02*
X2945396Y-12974484D01*
X2945396Y-12974484D02*
X2964444Y-12984008D01*
X2964444Y-12984008D02*
X2973967Y-12993531D01*
X2973967Y-12993531D02*
X2983491Y-13012579D01*
X2983491Y-13012579D02*
X2983491Y-13031627D01*
X2983491Y-13031627D02*
X2973967Y-13060198D01*
X2973967Y-13060198D02*
X2859682Y-13174484D01*
X2859682Y-13174484D02*
X2983491Y-13174484D01*
X3107301Y-12974484D02*
X3126348Y-12974484D01*
X3126348Y-12974484D02*
X3145396Y-12984008D01*
X3145396Y-12984008D02*
X3154920Y-12993531D01*
X3154920Y-12993531D02*
X3164444Y-13012579D01*
X3164444Y-13012579D02*
X3173967Y-13050674D01*
X3173967Y-13050674D02*
X3173967Y-13098293D01*
X3173967Y-13098293D02*
X3164444Y-13136388D01*
X3164444Y-13136388D02*
X3154920Y-13155436D01*
X3154920Y-13155436D02*
X3145396Y-13164960D01*
X3145396Y-13164960D02*
X3126348Y-13174484D01*
X3126348Y-13174484D02*
X3107301Y-13174484D01*
X3107301Y-13174484D02*
X3088253Y-13164960D01*
X3088253Y-13164960D02*
X3078729Y-13155436D01*
X3078729Y-13155436D02*
X3069206Y-13136388D01*
X3069206Y-13136388D02*
X3059682Y-13098293D01*
X3059682Y-13098293D02*
X3059682Y-13050674D01*
X3059682Y-13050674D02*
X3069206Y-13012579D01*
X3069206Y-13012579D02*
X3078729Y-12993531D01*
X3078729Y-12993531D02*
X3088253Y-12984008D01*
X3088253Y-12984008D02*
X3107301Y-12974484D01*
X3364444Y-13174484D02*
X3250158Y-13174484D01*
X3307301Y-13174484D02*
X3307301Y-12974484D01*
X3307301Y-12974484D02*
X3288253Y-13003055D01*
X3288253Y-13003055D02*
X3269206Y-13022103D01*
X3269206Y-13022103D02*
X3250158Y-13031627D01*
X3440634Y-12974484D02*
X3440634Y-13012579D01*
X3516825Y-12974484D02*
X3516825Y-13012579D01*
X3812063Y-13250674D02*
X3802539Y-13241150D01*
X3802539Y-13241150D02*
X3783491Y-13212579D01*
X3783491Y-13212579D02*
X3773968Y-13193531D01*
X3773968Y-13193531D02*
X3764444Y-13164960D01*
X3764444Y-13164960D02*
X3754920Y-13117341D01*
X3754920Y-13117341D02*
X3754920Y-13079246D01*
X3754920Y-13079246D02*
X3764444Y-13031627D01*
X3764444Y-13031627D02*
X3773968Y-13003055D01*
X3773968Y-13003055D02*
X3783491Y-12984008D01*
X3783491Y-12984008D02*
X3802539Y-12955436D01*
X3802539Y-12955436D02*
X3812063Y-12945912D01*
X3878729Y-12993531D02*
X3888253Y-12984008D01*
X3888253Y-12984008D02*
X3907301Y-12974484D01*
X3907301Y-12974484D02*
X3954920Y-12974484D01*
X3954920Y-12974484D02*
X3973968Y-12984008D01*
X3973968Y-12984008D02*
X3983491Y-12993531D01*
X3983491Y-12993531D02*
X3993015Y-13012579D01*
X3993015Y-13012579D02*
X3993015Y-13031627D01*
X3993015Y-13031627D02*
X3983491Y-13060198D01*
X3983491Y-13060198D02*
X3869206Y-13174484D01*
X3869206Y-13174484D02*
X3993015Y-13174484D01*
X4231111Y-13174484D02*
X4231111Y-12974484D01*
X4316825Y-13174484D02*
X4316825Y-13069722D01*
X4316825Y-13069722D02*
X4307301Y-13050674D01*
X4307301Y-13050674D02*
X4288253Y-13041150D01*
X4288253Y-13041150D02*
X4259682Y-13041150D01*
X4259682Y-13041150D02*
X4240634Y-13050674D01*
X4240634Y-13050674D02*
X4231111Y-13060198D01*
X4440634Y-13174484D02*
X4421587Y-13164960D01*
X4421587Y-13164960D02*
X4412063Y-13155436D01*
X4412063Y-13155436D02*
X4402539Y-13136388D01*
X4402539Y-13136388D02*
X4402539Y-13079246D01*
X4402539Y-13079246D02*
X4412063Y-13060198D01*
X4412063Y-13060198D02*
X4421587Y-13050674D01*
X4421587Y-13050674D02*
X4440634Y-13041150D01*
X4440634Y-13041150D02*
X4469206Y-13041150D01*
X4469206Y-13041150D02*
X4488253Y-13050674D01*
X4488253Y-13050674D02*
X4497777Y-13060198D01*
X4497777Y-13060198D02*
X4507301Y-13079246D01*
X4507301Y-13079246D02*
X4507301Y-13136388D01*
X4507301Y-13136388D02*
X4497777Y-13155436D01*
X4497777Y-13155436D02*
X4488253Y-13164960D01*
X4488253Y-13164960D02*
X4469206Y-13174484D01*
X4469206Y-13174484D02*
X4440634Y-13174484D01*
X4621587Y-13174484D02*
X4602539Y-13164960D01*
X4602539Y-13164960D02*
X4593015Y-13145912D01*
X4593015Y-13145912D02*
X4593015Y-12974484D01*
X4773968Y-13164960D02*
X4754920Y-13174484D01*
X4754920Y-13174484D02*
X4716825Y-13174484D01*
X4716825Y-13174484D02*
X4697777Y-13164960D01*
X4697777Y-13164960D02*
X4688253Y-13145912D01*
X4688253Y-13145912D02*
X4688253Y-13069722D01*
X4688253Y-13069722D02*
X4697777Y-13050674D01*
X4697777Y-13050674D02*
X4716825Y-13041150D01*
X4716825Y-13041150D02*
X4754920Y-13041150D01*
X4754920Y-13041150D02*
X4773968Y-13050674D01*
X4773968Y-13050674D02*
X4783492Y-13069722D01*
X4783492Y-13069722D02*
X4783492Y-13088769D01*
X4783492Y-13088769D02*
X4688253Y-13107817D01*
X4859682Y-13164960D02*
X4878730Y-13174484D01*
X4878730Y-13174484D02*
X4916825Y-13174484D01*
X4916825Y-13174484D02*
X4935873Y-13164960D01*
X4935873Y-13164960D02*
X4945396Y-13145912D01*
X4945396Y-13145912D02*
X4945396Y-13136388D01*
X4945396Y-13136388D02*
X4935873Y-13117341D01*
X4935873Y-13117341D02*
X4916825Y-13107817D01*
X4916825Y-13107817D02*
X4888253Y-13107817D01*
X4888253Y-13107817D02*
X4869206Y-13098293D01*
X4869206Y-13098293D02*
X4859682Y-13079246D01*
X4859682Y-13079246D02*
X4859682Y-13069722D01*
X4859682Y-13069722D02*
X4869206Y-13050674D01*
X4869206Y-13050674D02*
X4888253Y-13041150D01*
X4888253Y-13041150D02*
X4916825Y-13041150D01*
X4916825Y-13041150D02*
X4935873Y-13050674D01*
X5012063Y-13250674D02*
X5021587Y-13241150D01*
X5021587Y-13241150D02*
X5040634Y-13212579D01*
X5040634Y-13212579D02*
X5050158Y-13193531D01*
X5050158Y-13193531D02*
X5059682Y-13164960D01*
X5059682Y-13164960D02*
X5069206Y-13117341D01*
X5069206Y-13117341D02*
X5069206Y-13079246D01*
X5069206Y-13079246D02*
X5059682Y-13031627D01*
X5059682Y-13031627D02*
X5050158Y-13003055D01*
X5050158Y-13003055D02*
X5040634Y-12984008D01*
X5040634Y-12984008D02*
X5021587Y-12955436D01*
X5021587Y-12955436D02*
X5012063Y-12945912D01*
X5373968Y-13250674D02*
X5364444Y-13241150D01*
X5364444Y-13241150D02*
X5345396Y-13212579D01*
X5345396Y-13212579D02*
X5335873Y-13193531D01*
X5335873Y-13193531D02*
X5326349Y-13164960D01*
X5326349Y-13164960D02*
X5316825Y-13117341D01*
X5316825Y-13117341D02*
X5316825Y-13079246D01*
X5316825Y-13079246D02*
X5326349Y-13031627D01*
X5326349Y-13031627D02*
X5335873Y-13003055D01*
X5335873Y-13003055D02*
X5345396Y-12984008D01*
X5345396Y-12984008D02*
X5364444Y-12955436D01*
X5364444Y-12955436D02*
X5373968Y-12945912D01*
X5450158Y-13041150D02*
X5450158Y-13174484D01*
X5450158Y-13060198D02*
X5459682Y-13050674D01*
X5459682Y-13050674D02*
X5478730Y-13041150D01*
X5478730Y-13041150D02*
X5507301Y-13041150D01*
X5507301Y-13041150D02*
X5526349Y-13050674D01*
X5526349Y-13050674D02*
X5535873Y-13069722D01*
X5535873Y-13069722D02*
X5535873Y-13174484D01*
X5659682Y-13174484D02*
X5640634Y-13164960D01*
X5640634Y-13164960D02*
X5631111Y-13155436D01*
X5631111Y-13155436D02*
X5621587Y-13136388D01*
X5621587Y-13136388D02*
X5621587Y-13079246D01*
X5621587Y-13079246D02*
X5631111Y-13060198D01*
X5631111Y-13060198D02*
X5640634Y-13050674D01*
X5640634Y-13050674D02*
X5659682Y-13041150D01*
X5659682Y-13041150D02*
X5688253Y-13041150D01*
X5688253Y-13041150D02*
X5707301Y-13050674D01*
X5707301Y-13050674D02*
X5716825Y-13060198D01*
X5716825Y-13060198D02*
X5726349Y-13079246D01*
X5726349Y-13079246D02*
X5726349Y-13136388D01*
X5726349Y-13136388D02*
X5716825Y-13155436D01*
X5716825Y-13155436D02*
X5707301Y-13164960D01*
X5707301Y-13164960D02*
X5688253Y-13174484D01*
X5688253Y-13174484D02*
X5659682Y-13174484D01*
X5783492Y-13041150D02*
X5859682Y-13041150D01*
X5812063Y-12974484D02*
X5812063Y-13145912D01*
X5812063Y-13145912D02*
X5821587Y-13164960D01*
X5821587Y-13164960D02*
X5840634Y-13174484D01*
X5840634Y-13174484D02*
X5859682Y-13174484D01*
X6078730Y-13041150D02*
X6078730Y-13241150D01*
X6078730Y-13050674D02*
X6097777Y-13041150D01*
X6097777Y-13041150D02*
X6135873Y-13041150D01*
X6135873Y-13041150D02*
X6154920Y-13050674D01*
X6154920Y-13050674D02*
X6164444Y-13060198D01*
X6164444Y-13060198D02*
X6173968Y-13079246D01*
X6173968Y-13079246D02*
X6173968Y-13136388D01*
X6173968Y-13136388D02*
X6164444Y-13155436D01*
X6164444Y-13155436D02*
X6154920Y-13164960D01*
X6154920Y-13164960D02*
X6135873Y-13174484D01*
X6135873Y-13174484D02*
X6097777Y-13174484D01*
X6097777Y-13174484D02*
X6078730Y-13164960D01*
X6288253Y-13174484D02*
X6269206Y-13164960D01*
X6269206Y-13164960D02*
X6259682Y-13145912D01*
X6259682Y-13145912D02*
X6259682Y-12974484D01*
X6450158Y-13174484D02*
X6450158Y-13069722D01*
X6450158Y-13069722D02*
X6440634Y-13050674D01*
X6440634Y-13050674D02*
X6421587Y-13041150D01*
X6421587Y-13041150D02*
X6383492Y-13041150D01*
X6383492Y-13041150D02*
X6364444Y-13050674D01*
X6450158Y-13164960D02*
X6431111Y-13174484D01*
X6431111Y-13174484D02*
X6383492Y-13174484D01*
X6383492Y-13174484D02*
X6364444Y-13164960D01*
X6364444Y-13164960D02*
X6354920Y-13145912D01*
X6354920Y-13145912D02*
X6354920Y-13126865D01*
X6354920Y-13126865D02*
X6364444Y-13107817D01*
X6364444Y-13107817D02*
X6383492Y-13098293D01*
X6383492Y-13098293D02*
X6431111Y-13098293D01*
X6431111Y-13098293D02*
X6450158Y-13088769D01*
X6516825Y-13041150D02*
X6593015Y-13041150D01*
X6545396Y-12974484D02*
X6545396Y-13145912D01*
X6545396Y-13145912D02*
X6554920Y-13164960D01*
X6554920Y-13164960D02*
X6573968Y-13174484D01*
X6573968Y-13174484D02*
X6593015Y-13174484D01*
X6735873Y-13164960D02*
X6716825Y-13174484D01*
X6716825Y-13174484D02*
X6678730Y-13174484D01*
X6678730Y-13174484D02*
X6659682Y-13164960D01*
X6659682Y-13164960D02*
X6650158Y-13145912D01*
X6650158Y-13145912D02*
X6650158Y-13069722D01*
X6650158Y-13069722D02*
X6659682Y-13050674D01*
X6659682Y-13050674D02*
X6678730Y-13041150D01*
X6678730Y-13041150D02*
X6716825Y-13041150D01*
X6716825Y-13041150D02*
X6735873Y-13050674D01*
X6735873Y-13050674D02*
X6745396Y-13069722D01*
X6745396Y-13069722D02*
X6745396Y-13088769D01*
X6745396Y-13088769D02*
X6650158Y-13107817D01*
X6916825Y-13174484D02*
X6916825Y-12974484D01*
X6916825Y-13164960D02*
X6897777Y-13174484D01*
X6897777Y-13174484D02*
X6859682Y-13174484D01*
X6859682Y-13174484D02*
X6840634Y-13164960D01*
X6840634Y-13164960D02*
X6831111Y-13155436D01*
X6831111Y-13155436D02*
X6821587Y-13136388D01*
X6821587Y-13136388D02*
X6821587Y-13079246D01*
X6821587Y-13079246D02*
X6831111Y-13060198D01*
X6831111Y-13060198D02*
X6840634Y-13050674D01*
X6840634Y-13050674D02*
X6859682Y-13041150D01*
X6859682Y-13041150D02*
X6897777Y-13041150D01*
X6897777Y-13041150D02*
X6916825Y-13050674D01*
X6993015Y-13250674D02*
X7002539Y-13241150D01*
X7002539Y-13241150D02*
X7021587Y-13212579D01*
X7021587Y-13212579D02*
X7031111Y-13193531D01*
X7031111Y-13193531D02*
X7040634Y-13164960D01*
X7040634Y-13164960D02*
X7050158Y-13117341D01*
X7050158Y-13117341D02*
X7050158Y-13079246D01*
X7050158Y-13079246D02*
X7040634Y-13031627D01*
X7040634Y-13031627D02*
X7031111Y-13003055D01*
X7031111Y-13003055D02*
X7021587Y-12984008D01*
X7021587Y-12984008D02*
X7002539Y-12955436D01*
X7002539Y-12955436D02*
X6993015Y-12945912D01*
X207711Y-13473711D02*
X207711Y-13332289D01*
X66289Y-13332289D01*
X66289Y-13473711D01*
X207711Y-13473711D01*
X478729Y-13294484D02*
X602539Y-13294484D01*
X602539Y-13294484D02*
X535872Y-13370674D01*
X535872Y-13370674D02*
X564444Y-13370674D01*
X564444Y-13370674D02*
X583491Y-13380198D01*
X583491Y-13380198D02*
X593015Y-13389722D01*
X593015Y-13389722D02*
X602539Y-13408769D01*
X602539Y-13408769D02*
X602539Y-13456388D01*
X602539Y-13456388D02*
X593015Y-13475436D01*
X593015Y-13475436D02*
X583491Y-13484960D01*
X583491Y-13484960D02*
X564444Y-13494484D01*
X564444Y-13494484D02*
X507301Y-13494484D01*
X507301Y-13494484D02*
X488253Y-13484960D01*
X488253Y-13484960D02*
X478729Y-13475436D01*
X688253Y-13475436D02*
X697777Y-13484960D01*
X697777Y-13484960D02*
X688253Y-13494484D01*
X688253Y-13494484D02*
X678729Y-13484960D01*
X678729Y-13484960D02*
X688253Y-13475436D01*
X688253Y-13475436D02*
X688253Y-13494484D01*
X793015Y-13494484D02*
X831110Y-13494484D01*
X831110Y-13494484D02*
X850158Y-13484960D01*
X850158Y-13484960D02*
X859682Y-13475436D01*
X859682Y-13475436D02*
X878729Y-13446865D01*
X878729Y-13446865D02*
X888253Y-13408769D01*
X888253Y-13408769D02*
X888253Y-13332579D01*
X888253Y-13332579D02*
X878729Y-13313531D01*
X878729Y-13313531D02*
X869205Y-13304008D01*
X869205Y-13304008D02*
X850158Y-13294484D01*
X850158Y-13294484D02*
X812062Y-13294484D01*
X812062Y-13294484D02*
X793015Y-13304008D01*
X793015Y-13304008D02*
X783491Y-13313531D01*
X783491Y-13313531D02*
X773967Y-13332579D01*
X773967Y-13332579D02*
X773967Y-13380198D01*
X773967Y-13380198D02*
X783491Y-13399246D01*
X783491Y-13399246D02*
X793015Y-13408769D01*
X793015Y-13408769D02*
X812062Y-13418293D01*
X812062Y-13418293D02*
X850158Y-13418293D01*
X850158Y-13418293D02*
X869205Y-13408769D01*
X869205Y-13408769D02*
X878729Y-13399246D01*
X878729Y-13399246D02*
X888253Y-13380198D01*
X1002539Y-13380198D02*
X983491Y-13370674D01*
X983491Y-13370674D02*
X973967Y-13361150D01*
X973967Y-13361150D02*
X964443Y-13342103D01*
X964443Y-13342103D02*
X964443Y-13332579D01*
X964443Y-13332579D02*
X973967Y-13313531D01*
X973967Y-13313531D02*
X983491Y-13304008D01*
X983491Y-13304008D02*
X1002539Y-13294484D01*
X1002539Y-13294484D02*
X1040634Y-13294484D01*
X1040634Y-13294484D02*
X1059682Y-13304008D01*
X1059682Y-13304008D02*
X1069205Y-13313531D01*
X1069205Y-13313531D02*
X1078729Y-13332579D01*
X1078729Y-13332579D02*
X1078729Y-13342103D01*
X1078729Y-13342103D02*
X1069205Y-13361150D01*
X1069205Y-13361150D02*
X1059682Y-13370674D01*
X1059682Y-13370674D02*
X1040634Y-13380198D01*
X1040634Y-13380198D02*
X1002539Y-13380198D01*
X1002539Y-13380198D02*
X983491Y-13389722D01*
X983491Y-13389722D02*
X973967Y-13399246D01*
X973967Y-13399246D02*
X964443Y-13418293D01*
X964443Y-13418293D02*
X964443Y-13456388D01*
X964443Y-13456388D02*
X973967Y-13475436D01*
X973967Y-13475436D02*
X983491Y-13484960D01*
X983491Y-13484960D02*
X1002539Y-13494484D01*
X1002539Y-13494484D02*
X1040634Y-13494484D01*
X1040634Y-13494484D02*
X1059682Y-13484960D01*
X1059682Y-13484960D02*
X1069205Y-13475436D01*
X1069205Y-13475436D02*
X1078729Y-13456388D01*
X1078729Y-13456388D02*
X1078729Y-13418293D01*
X1078729Y-13418293D02*
X1069205Y-13399246D01*
X1069205Y-13399246D02*
X1059682Y-13389722D01*
X1059682Y-13389722D02*
X1040634Y-13380198D01*
X1193015Y-13380198D02*
X1173967Y-13370674D01*
X1173967Y-13370674D02*
X1164444Y-13361150D01*
X1164444Y-13361150D02*
X1154920Y-13342103D01*
X1154920Y-13342103D02*
X1154920Y-13332579D01*
X1154920Y-13332579D02*
X1164444Y-13313531D01*
X1164444Y-13313531D02*
X1173967Y-13304008D01*
X1173967Y-13304008D02*
X1193015Y-13294484D01*
X1193015Y-13294484D02*
X1231110Y-13294484D01*
X1231110Y-13294484D02*
X1250158Y-13304008D01*
X1250158Y-13304008D02*
X1259682Y-13313531D01*
X1259682Y-13313531D02*
X1269205Y-13332579D01*
X1269205Y-13332579D02*
X1269205Y-13342103D01*
X1269205Y-13342103D02*
X1259682Y-13361150D01*
X1259682Y-13361150D02*
X1250158Y-13370674D01*
X1250158Y-13370674D02*
X1231110Y-13380198D01*
X1231110Y-13380198D02*
X1193015Y-13380198D01*
X1193015Y-13380198D02*
X1173967Y-13389722D01*
X1173967Y-13389722D02*
X1164444Y-13399246D01*
X1164444Y-13399246D02*
X1154920Y-13418293D01*
X1154920Y-13418293D02*
X1154920Y-13456388D01*
X1154920Y-13456388D02*
X1164444Y-13475436D01*
X1164444Y-13475436D02*
X1173967Y-13484960D01*
X1173967Y-13484960D02*
X1193015Y-13494484D01*
X1193015Y-13494484D02*
X1231110Y-13494484D01*
X1231110Y-13494484D02*
X1250158Y-13484960D01*
X1250158Y-13484960D02*
X1259682Y-13475436D01*
X1259682Y-13475436D02*
X1269205Y-13456388D01*
X1269205Y-13456388D02*
X1269205Y-13418293D01*
X1269205Y-13418293D02*
X1259682Y-13399246D01*
X1259682Y-13399246D02*
X1250158Y-13389722D01*
X1250158Y-13389722D02*
X1231110Y-13380198D01*
X1354920Y-13494484D02*
X1354920Y-13361150D01*
X1354920Y-13380198D02*
X1364444Y-13370674D01*
X1364444Y-13370674D02*
X1383491Y-13361150D01*
X1383491Y-13361150D02*
X1412063Y-13361150D01*
X1412063Y-13361150D02*
X1431110Y-13370674D01*
X1431110Y-13370674D02*
X1440634Y-13389722D01*
X1440634Y-13389722D02*
X1440634Y-13494484D01*
X1440634Y-13389722D02*
X1450158Y-13370674D01*
X1450158Y-13370674D02*
X1469205Y-13361150D01*
X1469205Y-13361150D02*
X1497777Y-13361150D01*
X1497777Y-13361150D02*
X1516824Y-13370674D01*
X1516824Y-13370674D02*
X1526348Y-13389722D01*
X1526348Y-13389722D02*
X1526348Y-13494484D01*
X1621586Y-13494484D02*
X1621586Y-13361150D01*
X1621586Y-13380198D02*
X1631110Y-13370674D01*
X1631110Y-13370674D02*
X1650158Y-13361150D01*
X1650158Y-13361150D02*
X1678729Y-13361150D01*
X1678729Y-13361150D02*
X1697777Y-13370674D01*
X1697777Y-13370674D02*
X1707301Y-13389722D01*
X1707301Y-13389722D02*
X1707301Y-13494484D01*
X1707301Y-13389722D02*
X1716824Y-13370674D01*
X1716824Y-13370674D02*
X1735872Y-13361150D01*
X1735872Y-13361150D02*
X1764443Y-13361150D01*
X1764443Y-13361150D02*
X1783491Y-13370674D01*
X1783491Y-13370674D02*
X1793015Y-13389722D01*
X1793015Y-13389722D02*
X1793015Y-13494484D01*
X2183491Y-13284960D02*
X2012063Y-13542103D01*
X2440634Y-13294484D02*
X2459682Y-13294484D01*
X2459682Y-13294484D02*
X2478729Y-13304008D01*
X2478729Y-13304008D02*
X2488253Y-13313531D01*
X2488253Y-13313531D02*
X2497777Y-13332579D01*
X2497777Y-13332579D02*
X2507301Y-13370674D01*
X2507301Y-13370674D02*
X2507301Y-13418293D01*
X2507301Y-13418293D02*
X2497777Y-13456388D01*
X2497777Y-13456388D02*
X2488253Y-13475436D01*
X2488253Y-13475436D02*
X2478729Y-13484960D01*
X2478729Y-13484960D02*
X2459682Y-13494484D01*
X2459682Y-13494484D02*
X2440634Y-13494484D01*
X2440634Y-13494484D02*
X2421587Y-13484960D01*
X2421587Y-13484960D02*
X2412063Y-13475436D01*
X2412063Y-13475436D02*
X2402539Y-13456388D01*
X2402539Y-13456388D02*
X2393015Y-13418293D01*
X2393015Y-13418293D02*
X2393015Y-13370674D01*
X2393015Y-13370674D02*
X2402539Y-13332579D01*
X2402539Y-13332579D02*
X2412063Y-13313531D01*
X2412063Y-13313531D02*
X2421587Y-13304008D01*
X2421587Y-13304008D02*
X2440634Y-13294484D01*
X2593015Y-13475436D02*
X2602539Y-13484960D01*
X2602539Y-13484960D02*
X2593015Y-13494484D01*
X2593015Y-13494484D02*
X2583491Y-13484960D01*
X2583491Y-13484960D02*
X2593015Y-13475436D01*
X2593015Y-13475436D02*
X2593015Y-13494484D01*
X2793015Y-13494484D02*
X2678729Y-13494484D01*
X2735872Y-13494484D02*
X2735872Y-13294484D01*
X2735872Y-13294484D02*
X2716825Y-13323055D01*
X2716825Y-13323055D02*
X2697777Y-13342103D01*
X2697777Y-13342103D02*
X2678729Y-13351627D01*
X2973967Y-13294484D02*
X2878729Y-13294484D01*
X2878729Y-13294484D02*
X2869206Y-13389722D01*
X2869206Y-13389722D02*
X2878729Y-13380198D01*
X2878729Y-13380198D02*
X2897777Y-13370674D01*
X2897777Y-13370674D02*
X2945396Y-13370674D01*
X2945396Y-13370674D02*
X2964444Y-13380198D01*
X2964444Y-13380198D02*
X2973967Y-13389722D01*
X2973967Y-13389722D02*
X2983491Y-13408769D01*
X2983491Y-13408769D02*
X2983491Y-13456388D01*
X2983491Y-13456388D02*
X2973967Y-13475436D01*
X2973967Y-13475436D02*
X2964444Y-13484960D01*
X2964444Y-13484960D02*
X2945396Y-13494484D01*
X2945396Y-13494484D02*
X2897777Y-13494484D01*
X2897777Y-13494484D02*
X2878729Y-13484960D01*
X2878729Y-13484960D02*
X2869206Y-13475436D01*
X3050158Y-13294484D02*
X3183491Y-13294484D01*
X3183491Y-13294484D02*
X3097777Y-13494484D01*
X3297777Y-13294484D02*
X3316825Y-13294484D01*
X3316825Y-13294484D02*
X3335872Y-13304008D01*
X3335872Y-13304008D02*
X3345396Y-13313531D01*
X3345396Y-13313531D02*
X3354920Y-13332579D01*
X3354920Y-13332579D02*
X3364444Y-13370674D01*
X3364444Y-13370674D02*
X3364444Y-13418293D01*
X3364444Y-13418293D02*
X3354920Y-13456388D01*
X3354920Y-13456388D02*
X3345396Y-13475436D01*
X3345396Y-13475436D02*
X3335872Y-13484960D01*
X3335872Y-13484960D02*
X3316825Y-13494484D01*
X3316825Y-13494484D02*
X3297777Y-13494484D01*
X3297777Y-13494484D02*
X3278729Y-13484960D01*
X3278729Y-13484960D02*
X3269206Y-13475436D01*
X3269206Y-13475436D02*
X3259682Y-13456388D01*
X3259682Y-13456388D02*
X3250158Y-13418293D01*
X3250158Y-13418293D02*
X3250158Y-13370674D01*
X3250158Y-13370674D02*
X3259682Y-13332579D01*
X3259682Y-13332579D02*
X3269206Y-13313531D01*
X3269206Y-13313531D02*
X3278729Y-13304008D01*
X3278729Y-13304008D02*
X3297777Y-13294484D01*
X3440634Y-13294484D02*
X3440634Y-13332579D01*
X3516825Y-13294484D02*
X3516825Y-13332579D01*
X3812063Y-13570674D02*
X3802539Y-13561150D01*
X3802539Y-13561150D02*
X3783491Y-13532579D01*
X3783491Y-13532579D02*
X3773968Y-13513531D01*
X3773968Y-13513531D02*
X3764444Y-13484960D01*
X3764444Y-13484960D02*
X3754920Y-13437341D01*
X3754920Y-13437341D02*
X3754920Y-13399246D01*
X3754920Y-13399246D02*
X3764444Y-13351627D01*
X3764444Y-13351627D02*
X3773968Y-13323055D01*
X3773968Y-13323055D02*
X3783491Y-13304008D01*
X3783491Y-13304008D02*
X3802539Y-13275436D01*
X3802539Y-13275436D02*
X3812063Y-13265912D01*
X3916825Y-13380198D02*
X3897777Y-13370674D01*
X3897777Y-13370674D02*
X3888253Y-13361150D01*
X3888253Y-13361150D02*
X3878729Y-13342103D01*
X3878729Y-13342103D02*
X3878729Y-13332579D01*
X3878729Y-13332579D02*
X3888253Y-13313531D01*
X3888253Y-13313531D02*
X3897777Y-13304008D01*
X3897777Y-13304008D02*
X3916825Y-13294484D01*
X3916825Y-13294484D02*
X3954920Y-13294484D01*
X3954920Y-13294484D02*
X3973968Y-13304008D01*
X3973968Y-13304008D02*
X3983491Y-13313531D01*
X3983491Y-13313531D02*
X3993015Y-13332579D01*
X3993015Y-13332579D02*
X3993015Y-13342103D01*
X3993015Y-13342103D02*
X3983491Y-13361150D01*
X3983491Y-13361150D02*
X3973968Y-13370674D01*
X3973968Y-13370674D02*
X3954920Y-13380198D01*
X3954920Y-13380198D02*
X3916825Y-13380198D01*
X3916825Y-13380198D02*
X3897777Y-13389722D01*
X3897777Y-13389722D02*
X3888253Y-13399246D01*
X3888253Y-13399246D02*
X3878729Y-13418293D01*
X3878729Y-13418293D02*
X3878729Y-13456388D01*
X3878729Y-13456388D02*
X3888253Y-13475436D01*
X3888253Y-13475436D02*
X3897777Y-13484960D01*
X3897777Y-13484960D02*
X3916825Y-13494484D01*
X3916825Y-13494484D02*
X3954920Y-13494484D01*
X3954920Y-13494484D02*
X3973968Y-13484960D01*
X3973968Y-13484960D02*
X3983491Y-13475436D01*
X3983491Y-13475436D02*
X3993015Y-13456388D01*
X3993015Y-13456388D02*
X3993015Y-13418293D01*
X3993015Y-13418293D02*
X3983491Y-13399246D01*
X3983491Y-13399246D02*
X3973968Y-13389722D01*
X3973968Y-13389722D02*
X3954920Y-13380198D01*
X4231111Y-13494484D02*
X4231111Y-13294484D01*
X4316825Y-13494484D02*
X4316825Y-13389722D01*
X4316825Y-13389722D02*
X4307301Y-13370674D01*
X4307301Y-13370674D02*
X4288253Y-13361150D01*
X4288253Y-13361150D02*
X4259682Y-13361150D01*
X4259682Y-13361150D02*
X4240634Y-13370674D01*
X4240634Y-13370674D02*
X4231111Y-13380198D01*
X4440634Y-13494484D02*
X4421587Y-13484960D01*
X4421587Y-13484960D02*
X4412063Y-13475436D01*
X4412063Y-13475436D02*
X4402539Y-13456388D01*
X4402539Y-13456388D02*
X4402539Y-13399246D01*
X4402539Y-13399246D02*
X4412063Y-13380198D01*
X4412063Y-13380198D02*
X4421587Y-13370674D01*
X4421587Y-13370674D02*
X4440634Y-13361150D01*
X4440634Y-13361150D02*
X4469206Y-13361150D01*
X4469206Y-13361150D02*
X4488253Y-13370674D01*
X4488253Y-13370674D02*
X4497777Y-13380198D01*
X4497777Y-13380198D02*
X4507301Y-13399246D01*
X4507301Y-13399246D02*
X4507301Y-13456388D01*
X4507301Y-13456388D02*
X4497777Y-13475436D01*
X4497777Y-13475436D02*
X4488253Y-13484960D01*
X4488253Y-13484960D02*
X4469206Y-13494484D01*
X4469206Y-13494484D02*
X4440634Y-13494484D01*
X4621587Y-13494484D02*
X4602539Y-13484960D01*
X4602539Y-13484960D02*
X4593015Y-13465912D01*
X4593015Y-13465912D02*
X4593015Y-13294484D01*
X4773968Y-13484960D02*
X4754920Y-13494484D01*
X4754920Y-13494484D02*
X4716825Y-13494484D01*
X4716825Y-13494484D02*
X4697777Y-13484960D01*
X4697777Y-13484960D02*
X4688253Y-13465912D01*
X4688253Y-13465912D02*
X4688253Y-13389722D01*
X4688253Y-13389722D02*
X4697777Y-13370674D01*
X4697777Y-13370674D02*
X4716825Y-13361150D01*
X4716825Y-13361150D02*
X4754920Y-13361150D01*
X4754920Y-13361150D02*
X4773968Y-13370674D01*
X4773968Y-13370674D02*
X4783492Y-13389722D01*
X4783492Y-13389722D02*
X4783492Y-13408769D01*
X4783492Y-13408769D02*
X4688253Y-13427817D01*
X4859682Y-13484960D02*
X4878730Y-13494484D01*
X4878730Y-13494484D02*
X4916825Y-13494484D01*
X4916825Y-13494484D02*
X4935873Y-13484960D01*
X4935873Y-13484960D02*
X4945396Y-13465912D01*
X4945396Y-13465912D02*
X4945396Y-13456388D01*
X4945396Y-13456388D02*
X4935873Y-13437341D01*
X4935873Y-13437341D02*
X4916825Y-13427817D01*
X4916825Y-13427817D02*
X4888253Y-13427817D01*
X4888253Y-13427817D02*
X4869206Y-13418293D01*
X4869206Y-13418293D02*
X4859682Y-13399246D01*
X4859682Y-13399246D02*
X4859682Y-13389722D01*
X4859682Y-13389722D02*
X4869206Y-13370674D01*
X4869206Y-13370674D02*
X4888253Y-13361150D01*
X4888253Y-13361150D02*
X4916825Y-13361150D01*
X4916825Y-13361150D02*
X4935873Y-13370674D01*
X5012063Y-13570674D02*
X5021587Y-13561150D01*
X5021587Y-13561150D02*
X5040634Y-13532579D01*
X5040634Y-13532579D02*
X5050158Y-13513531D01*
X5050158Y-13513531D02*
X5059682Y-13484960D01*
X5059682Y-13484960D02*
X5069206Y-13437341D01*
X5069206Y-13437341D02*
X5069206Y-13399246D01*
X5069206Y-13399246D02*
X5059682Y-13351627D01*
X5059682Y-13351627D02*
X5050158Y-13323055D01*
X5050158Y-13323055D02*
X5040634Y-13304008D01*
X5040634Y-13304008D02*
X5021587Y-13275436D01*
X5021587Y-13275436D02*
X5012063Y-13265912D01*
X5373968Y-13570674D02*
X5364444Y-13561150D01*
X5364444Y-13561150D02*
X5345396Y-13532579D01*
X5345396Y-13532579D02*
X5335873Y-13513531D01*
X5335873Y-13513531D02*
X5326349Y-13484960D01*
X5326349Y-13484960D02*
X5316825Y-13437341D01*
X5316825Y-13437341D02*
X5316825Y-13399246D01*
X5316825Y-13399246D02*
X5326349Y-13351627D01*
X5326349Y-13351627D02*
X5335873Y-13323055D01*
X5335873Y-13323055D02*
X5345396Y-13304008D01*
X5345396Y-13304008D02*
X5364444Y-13275436D01*
X5364444Y-13275436D02*
X5373968Y-13265912D01*
X5450158Y-13361150D02*
X5450158Y-13494484D01*
X5450158Y-13380198D02*
X5459682Y-13370674D01*
X5459682Y-13370674D02*
X5478730Y-13361150D01*
X5478730Y-13361150D02*
X5507301Y-13361150D01*
X5507301Y-13361150D02*
X5526349Y-13370674D01*
X5526349Y-13370674D02*
X5535873Y-13389722D01*
X5535873Y-13389722D02*
X5535873Y-13494484D01*
X5659682Y-13494484D02*
X5640634Y-13484960D01*
X5640634Y-13484960D02*
X5631111Y-13475436D01*
X5631111Y-13475436D02*
X5621587Y-13456388D01*
X5621587Y-13456388D02*
X5621587Y-13399246D01*
X5621587Y-13399246D02*
X5631111Y-13380198D01*
X5631111Y-13380198D02*
X5640634Y-13370674D01*
X5640634Y-13370674D02*
X5659682Y-13361150D01*
X5659682Y-13361150D02*
X5688253Y-13361150D01*
X5688253Y-13361150D02*
X5707301Y-13370674D01*
X5707301Y-13370674D02*
X5716825Y-13380198D01*
X5716825Y-13380198D02*
X5726349Y-13399246D01*
X5726349Y-13399246D02*
X5726349Y-13456388D01*
X5726349Y-13456388D02*
X5716825Y-13475436D01*
X5716825Y-13475436D02*
X5707301Y-13484960D01*
X5707301Y-13484960D02*
X5688253Y-13494484D01*
X5688253Y-13494484D02*
X5659682Y-13494484D01*
X5783492Y-13361150D02*
X5859682Y-13361150D01*
X5812063Y-13294484D02*
X5812063Y-13465912D01*
X5812063Y-13465912D02*
X5821587Y-13484960D01*
X5821587Y-13484960D02*
X5840634Y-13494484D01*
X5840634Y-13494484D02*
X5859682Y-13494484D01*
X6078730Y-13361150D02*
X6078730Y-13561150D01*
X6078730Y-13370674D02*
X6097777Y-13361150D01*
X6097777Y-13361150D02*
X6135873Y-13361150D01*
X6135873Y-13361150D02*
X6154920Y-13370674D01*
X6154920Y-13370674D02*
X6164444Y-13380198D01*
X6164444Y-13380198D02*
X6173968Y-13399246D01*
X6173968Y-13399246D02*
X6173968Y-13456388D01*
X6173968Y-13456388D02*
X6164444Y-13475436D01*
X6164444Y-13475436D02*
X6154920Y-13484960D01*
X6154920Y-13484960D02*
X6135873Y-13494484D01*
X6135873Y-13494484D02*
X6097777Y-13494484D01*
X6097777Y-13494484D02*
X6078730Y-13484960D01*
X6288253Y-13494484D02*
X6269206Y-13484960D01*
X6269206Y-13484960D02*
X6259682Y-13465912D01*
X6259682Y-13465912D02*
X6259682Y-13294484D01*
X6450158Y-13494484D02*
X6450158Y-13389722D01*
X6450158Y-13389722D02*
X6440634Y-13370674D01*
X6440634Y-13370674D02*
X6421587Y-13361150D01*
X6421587Y-13361150D02*
X6383492Y-13361150D01*
X6383492Y-13361150D02*
X6364444Y-13370674D01*
X6450158Y-13484960D02*
X6431111Y-13494484D01*
X6431111Y-13494484D02*
X6383492Y-13494484D01*
X6383492Y-13494484D02*
X6364444Y-13484960D01*
X6364444Y-13484960D02*
X6354920Y-13465912D01*
X6354920Y-13465912D02*
X6354920Y-13446865D01*
X6354920Y-13446865D02*
X6364444Y-13427817D01*
X6364444Y-13427817D02*
X6383492Y-13418293D01*
X6383492Y-13418293D02*
X6431111Y-13418293D01*
X6431111Y-13418293D02*
X6450158Y-13408769D01*
X6516825Y-13361150D02*
X6593015Y-13361150D01*
X6545396Y-13294484D02*
X6545396Y-13465912D01*
X6545396Y-13465912D02*
X6554920Y-13484960D01*
X6554920Y-13484960D02*
X6573968Y-13494484D01*
X6573968Y-13494484D02*
X6593015Y-13494484D01*
X6735873Y-13484960D02*
X6716825Y-13494484D01*
X6716825Y-13494484D02*
X6678730Y-13494484D01*
X6678730Y-13494484D02*
X6659682Y-13484960D01*
X6659682Y-13484960D02*
X6650158Y-13465912D01*
X6650158Y-13465912D02*
X6650158Y-13389722D01*
X6650158Y-13389722D02*
X6659682Y-13370674D01*
X6659682Y-13370674D02*
X6678730Y-13361150D01*
X6678730Y-13361150D02*
X6716825Y-13361150D01*
X6716825Y-13361150D02*
X6735873Y-13370674D01*
X6735873Y-13370674D02*
X6745396Y-13389722D01*
X6745396Y-13389722D02*
X6745396Y-13408769D01*
X6745396Y-13408769D02*
X6650158Y-13427817D01*
X6916825Y-13494484D02*
X6916825Y-13294484D01*
X6916825Y-13484960D02*
X6897777Y-13494484D01*
X6897777Y-13494484D02*
X6859682Y-13494484D01*
X6859682Y-13494484D02*
X6840634Y-13484960D01*
X6840634Y-13484960D02*
X6831111Y-13475436D01*
X6831111Y-13475436D02*
X6821587Y-13456388D01*
X6821587Y-13456388D02*
X6821587Y-13399246D01*
X6821587Y-13399246D02*
X6831111Y-13380198D01*
X6831111Y-13380198D02*
X6840634Y-13370674D01*
X6840634Y-13370674D02*
X6859682Y-13361150D01*
X6859682Y-13361150D02*
X6897777Y-13361150D01*
X6897777Y-13361150D02*
X6916825Y-13370674D01*
X6993015Y-13570674D02*
X7002539Y-13561150D01*
X7002539Y-13561150D02*
X7021587Y-13532579D01*
X7021587Y-13532579D02*
X7031111Y-13513531D01*
X7031111Y-13513531D02*
X7040634Y-13484960D01*
X7040634Y-13484960D02*
X7050158Y-13437341D01*
X7050158Y-13437341D02*
X7050158Y-13399246D01*
X7050158Y-13399246D02*
X7040634Y-13351627D01*
X7040634Y-13351627D02*
X7031111Y-13323055D01*
X7031111Y-13323055D02*
X7021587Y-13304008D01*
X7021587Y-13304008D02*
X7002539Y-13275436D01*
X7002539Y-13275436D02*
X6993015Y-13265912D01*
X137000Y-13823000D02*
X237000Y-13723000D01*
X137000Y-13623000D01*
X37000Y-13723000D01*
X137000Y-13823000D01*
X583491Y-13681150D02*
X583491Y-13814484D01*
X535872Y-13604960D02*
X488253Y-13747817D01*
X488253Y-13747817D02*
X612063Y-13747817D01*
X688253Y-13795436D02*
X697777Y-13804960D01*
X697777Y-13804960D02*
X688253Y-13814484D01*
X688253Y-13814484D02*
X678729Y-13804960D01*
X678729Y-13804960D02*
X688253Y-13795436D01*
X688253Y-13795436D02*
X688253Y-13814484D01*
X821586Y-13614484D02*
X840634Y-13614484D01*
X840634Y-13614484D02*
X859682Y-13624008D01*
X859682Y-13624008D02*
X869205Y-13633531D01*
X869205Y-13633531D02*
X878729Y-13652579D01*
X878729Y-13652579D02*
X888253Y-13690674D01*
X888253Y-13690674D02*
X888253Y-13738293D01*
X888253Y-13738293D02*
X878729Y-13776388D01*
X878729Y-13776388D02*
X869205Y-13795436D01*
X869205Y-13795436D02*
X859682Y-13804960D01*
X859682Y-13804960D02*
X840634Y-13814484D01*
X840634Y-13814484D02*
X821586Y-13814484D01*
X821586Y-13814484D02*
X802539Y-13804960D01*
X802539Y-13804960D02*
X793015Y-13795436D01*
X793015Y-13795436D02*
X783491Y-13776388D01*
X783491Y-13776388D02*
X773967Y-13738293D01*
X773967Y-13738293D02*
X773967Y-13690674D01*
X773967Y-13690674D02*
X783491Y-13652579D01*
X783491Y-13652579D02*
X793015Y-13633531D01*
X793015Y-13633531D02*
X802539Y-13624008D01*
X802539Y-13624008D02*
X821586Y-13614484D01*
X1012062Y-13614484D02*
X1031110Y-13614484D01*
X1031110Y-13614484D02*
X1050158Y-13624008D01*
X1050158Y-13624008D02*
X1059682Y-13633531D01*
X1059682Y-13633531D02*
X1069205Y-13652579D01*
X1069205Y-13652579D02*
X1078729Y-13690674D01*
X1078729Y-13690674D02*
X1078729Y-13738293D01*
X1078729Y-13738293D02*
X1069205Y-13776388D01*
X1069205Y-13776388D02*
X1059682Y-13795436D01*
X1059682Y-13795436D02*
X1050158Y-13804960D01*
X1050158Y-13804960D02*
X1031110Y-13814484D01*
X1031110Y-13814484D02*
X1012062Y-13814484D01*
X1012062Y-13814484D02*
X993015Y-13804960D01*
X993015Y-13804960D02*
X983491Y-13795436D01*
X983491Y-13795436D02*
X973967Y-13776388D01*
X973967Y-13776388D02*
X964443Y-13738293D01*
X964443Y-13738293D02*
X964443Y-13690674D01*
X964443Y-13690674D02*
X973967Y-13652579D01*
X973967Y-13652579D02*
X983491Y-13633531D01*
X983491Y-13633531D02*
X993015Y-13624008D01*
X993015Y-13624008D02*
X1012062Y-13614484D01*
X1202539Y-13614484D02*
X1221586Y-13614484D01*
X1221586Y-13614484D02*
X1240634Y-13624008D01*
X1240634Y-13624008D02*
X1250158Y-13633531D01*
X1250158Y-13633531D02*
X1259682Y-13652579D01*
X1259682Y-13652579D02*
X1269205Y-13690674D01*
X1269205Y-13690674D02*
X1269205Y-13738293D01*
X1269205Y-13738293D02*
X1259682Y-13776388D01*
X1259682Y-13776388D02*
X1250158Y-13795436D01*
X1250158Y-13795436D02*
X1240634Y-13804960D01*
X1240634Y-13804960D02*
X1221586Y-13814484D01*
X1221586Y-13814484D02*
X1202539Y-13814484D01*
X1202539Y-13814484D02*
X1183491Y-13804960D01*
X1183491Y-13804960D02*
X1173967Y-13795436D01*
X1173967Y-13795436D02*
X1164444Y-13776388D01*
X1164444Y-13776388D02*
X1154920Y-13738293D01*
X1154920Y-13738293D02*
X1154920Y-13690674D01*
X1154920Y-13690674D02*
X1164444Y-13652579D01*
X1164444Y-13652579D02*
X1173967Y-13633531D01*
X1173967Y-13633531D02*
X1183491Y-13624008D01*
X1183491Y-13624008D02*
X1202539Y-13614484D01*
X1354920Y-13814484D02*
X1354920Y-13681150D01*
X1354920Y-13700198D02*
X1364444Y-13690674D01*
X1364444Y-13690674D02*
X1383491Y-13681150D01*
X1383491Y-13681150D02*
X1412063Y-13681150D01*
X1412063Y-13681150D02*
X1431110Y-13690674D01*
X1431110Y-13690674D02*
X1440634Y-13709722D01*
X1440634Y-13709722D02*
X1440634Y-13814484D01*
X1440634Y-13709722D02*
X1450158Y-13690674D01*
X1450158Y-13690674D02*
X1469205Y-13681150D01*
X1469205Y-13681150D02*
X1497777Y-13681150D01*
X1497777Y-13681150D02*
X1516824Y-13690674D01*
X1516824Y-13690674D02*
X1526348Y-13709722D01*
X1526348Y-13709722D02*
X1526348Y-13814484D01*
X1621586Y-13814484D02*
X1621586Y-13681150D01*
X1621586Y-13700198D02*
X1631110Y-13690674D01*
X1631110Y-13690674D02*
X1650158Y-13681150D01*
X1650158Y-13681150D02*
X1678729Y-13681150D01*
X1678729Y-13681150D02*
X1697777Y-13690674D01*
X1697777Y-13690674D02*
X1707301Y-13709722D01*
X1707301Y-13709722D02*
X1707301Y-13814484D01*
X1707301Y-13709722D02*
X1716824Y-13690674D01*
X1716824Y-13690674D02*
X1735872Y-13681150D01*
X1735872Y-13681150D02*
X1764443Y-13681150D01*
X1764443Y-13681150D02*
X1783491Y-13690674D01*
X1783491Y-13690674D02*
X1793015Y-13709722D01*
X1793015Y-13709722D02*
X1793015Y-13814484D01*
X2183491Y-13604960D02*
X2012063Y-13862103D01*
X2440634Y-13614484D02*
X2459682Y-13614484D01*
X2459682Y-13614484D02*
X2478729Y-13624008D01*
X2478729Y-13624008D02*
X2488253Y-13633531D01*
X2488253Y-13633531D02*
X2497777Y-13652579D01*
X2497777Y-13652579D02*
X2507301Y-13690674D01*
X2507301Y-13690674D02*
X2507301Y-13738293D01*
X2507301Y-13738293D02*
X2497777Y-13776388D01*
X2497777Y-13776388D02*
X2488253Y-13795436D01*
X2488253Y-13795436D02*
X2478729Y-13804960D01*
X2478729Y-13804960D02*
X2459682Y-13814484D01*
X2459682Y-13814484D02*
X2440634Y-13814484D01*
X2440634Y-13814484D02*
X2421587Y-13804960D01*
X2421587Y-13804960D02*
X2412063Y-13795436D01*
X2412063Y-13795436D02*
X2402539Y-13776388D01*
X2402539Y-13776388D02*
X2393015Y-13738293D01*
X2393015Y-13738293D02*
X2393015Y-13690674D01*
X2393015Y-13690674D02*
X2402539Y-13652579D01*
X2402539Y-13652579D02*
X2412063Y-13633531D01*
X2412063Y-13633531D02*
X2421587Y-13624008D01*
X2421587Y-13624008D02*
X2440634Y-13614484D01*
X2593015Y-13795436D02*
X2602539Y-13804960D01*
X2602539Y-13804960D02*
X2593015Y-13814484D01*
X2593015Y-13814484D02*
X2583491Y-13804960D01*
X2583491Y-13804960D02*
X2593015Y-13795436D01*
X2593015Y-13795436D02*
X2593015Y-13814484D01*
X2793015Y-13814484D02*
X2678729Y-13814484D01*
X2735872Y-13814484D02*
X2735872Y-13614484D01*
X2735872Y-13614484D02*
X2716825Y-13643055D01*
X2716825Y-13643055D02*
X2697777Y-13662103D01*
X2697777Y-13662103D02*
X2678729Y-13671627D01*
X2973967Y-13614484D02*
X2878729Y-13614484D01*
X2878729Y-13614484D02*
X2869206Y-13709722D01*
X2869206Y-13709722D02*
X2878729Y-13700198D01*
X2878729Y-13700198D02*
X2897777Y-13690674D01*
X2897777Y-13690674D02*
X2945396Y-13690674D01*
X2945396Y-13690674D02*
X2964444Y-13700198D01*
X2964444Y-13700198D02*
X2973967Y-13709722D01*
X2973967Y-13709722D02*
X2983491Y-13728769D01*
X2983491Y-13728769D02*
X2983491Y-13776388D01*
X2983491Y-13776388D02*
X2973967Y-13795436D01*
X2973967Y-13795436D02*
X2964444Y-13804960D01*
X2964444Y-13804960D02*
X2945396Y-13814484D01*
X2945396Y-13814484D02*
X2897777Y-13814484D01*
X2897777Y-13814484D02*
X2878729Y-13804960D01*
X2878729Y-13804960D02*
X2869206Y-13795436D01*
X3050158Y-13614484D02*
X3183491Y-13614484D01*
X3183491Y-13614484D02*
X3097777Y-13814484D01*
X3354920Y-13614484D02*
X3259682Y-13614484D01*
X3259682Y-13614484D02*
X3250158Y-13709722D01*
X3250158Y-13709722D02*
X3259682Y-13700198D01*
X3259682Y-13700198D02*
X3278729Y-13690674D01*
X3278729Y-13690674D02*
X3326348Y-13690674D01*
X3326348Y-13690674D02*
X3345396Y-13700198D01*
X3345396Y-13700198D02*
X3354920Y-13709722D01*
X3354920Y-13709722D02*
X3364444Y-13728769D01*
X3364444Y-13728769D02*
X3364444Y-13776388D01*
X3364444Y-13776388D02*
X3354920Y-13795436D01*
X3354920Y-13795436D02*
X3345396Y-13804960D01*
X3345396Y-13804960D02*
X3326348Y-13814484D01*
X3326348Y-13814484D02*
X3278729Y-13814484D01*
X3278729Y-13814484D02*
X3259682Y-13804960D01*
X3259682Y-13804960D02*
X3250158Y-13795436D01*
X3440634Y-13614484D02*
X3440634Y-13652579D01*
X3516825Y-13614484D02*
X3516825Y-13652579D01*
X3812063Y-13890674D02*
X3802539Y-13881150D01*
X3802539Y-13881150D02*
X3783491Y-13852579D01*
X3783491Y-13852579D02*
X3773968Y-13833531D01*
X3773968Y-13833531D02*
X3764444Y-13804960D01*
X3764444Y-13804960D02*
X3754920Y-13757341D01*
X3754920Y-13757341D02*
X3754920Y-13719246D01*
X3754920Y-13719246D02*
X3764444Y-13671627D01*
X3764444Y-13671627D02*
X3773968Y-13643055D01*
X3773968Y-13643055D02*
X3783491Y-13624008D01*
X3783491Y-13624008D02*
X3802539Y-13595436D01*
X3802539Y-13595436D02*
X3812063Y-13585912D01*
X3869206Y-13614484D02*
X4002539Y-13614484D01*
X4002539Y-13614484D02*
X3916825Y-13814484D01*
X4116825Y-13614484D02*
X4135872Y-13614484D01*
X4135872Y-13614484D02*
X4154920Y-13624008D01*
X4154920Y-13624008D02*
X4164444Y-13633531D01*
X4164444Y-13633531D02*
X4173968Y-13652579D01*
X4173968Y-13652579D02*
X4183491Y-13690674D01*
X4183491Y-13690674D02*
X4183491Y-13738293D01*
X4183491Y-13738293D02*
X4173968Y-13776388D01*
X4173968Y-13776388D02*
X4164444Y-13795436D01*
X4164444Y-13795436D02*
X4154920Y-13804960D01*
X4154920Y-13804960D02*
X4135872Y-13814484D01*
X4135872Y-13814484D02*
X4116825Y-13814484D01*
X4116825Y-13814484D02*
X4097777Y-13804960D01*
X4097777Y-13804960D02*
X4088253Y-13795436D01*
X4088253Y-13795436D02*
X4078729Y-13776388D01*
X4078729Y-13776388D02*
X4069206Y-13738293D01*
X4069206Y-13738293D02*
X4069206Y-13690674D01*
X4069206Y-13690674D02*
X4078729Y-13652579D01*
X4078729Y-13652579D02*
X4088253Y-13633531D01*
X4088253Y-13633531D02*
X4097777Y-13624008D01*
X4097777Y-13624008D02*
X4116825Y-13614484D01*
X4421587Y-13814484D02*
X4421587Y-13614484D01*
X4507301Y-13814484D02*
X4507301Y-13709722D01*
X4507301Y-13709722D02*
X4497777Y-13690674D01*
X4497777Y-13690674D02*
X4478730Y-13681150D01*
X4478730Y-13681150D02*
X4450158Y-13681150D01*
X4450158Y-13681150D02*
X4431111Y-13690674D01*
X4431111Y-13690674D02*
X4421587Y-13700198D01*
X4631111Y-13814484D02*
X4612063Y-13804960D01*
X4612063Y-13804960D02*
X4602539Y-13795436D01*
X4602539Y-13795436D02*
X4593015Y-13776388D01*
X4593015Y-13776388D02*
X4593015Y-13719246D01*
X4593015Y-13719246D02*
X4602539Y-13700198D01*
X4602539Y-13700198D02*
X4612063Y-13690674D01*
X4612063Y-13690674D02*
X4631111Y-13681150D01*
X4631111Y-13681150D02*
X4659682Y-13681150D01*
X4659682Y-13681150D02*
X4678730Y-13690674D01*
X4678730Y-13690674D02*
X4688253Y-13700198D01*
X4688253Y-13700198D02*
X4697777Y-13719246D01*
X4697777Y-13719246D02*
X4697777Y-13776388D01*
X4697777Y-13776388D02*
X4688253Y-13795436D01*
X4688253Y-13795436D02*
X4678730Y-13804960D01*
X4678730Y-13804960D02*
X4659682Y-13814484D01*
X4659682Y-13814484D02*
X4631111Y-13814484D01*
X4812063Y-13814484D02*
X4793015Y-13804960D01*
X4793015Y-13804960D02*
X4783492Y-13785912D01*
X4783492Y-13785912D02*
X4783492Y-13614484D01*
X4964444Y-13804960D02*
X4945396Y-13814484D01*
X4945396Y-13814484D02*
X4907301Y-13814484D01*
X4907301Y-13814484D02*
X4888253Y-13804960D01*
X4888253Y-13804960D02*
X4878730Y-13785912D01*
X4878730Y-13785912D02*
X4878730Y-13709722D01*
X4878730Y-13709722D02*
X4888253Y-13690674D01*
X4888253Y-13690674D02*
X4907301Y-13681150D01*
X4907301Y-13681150D02*
X4945396Y-13681150D01*
X4945396Y-13681150D02*
X4964444Y-13690674D01*
X4964444Y-13690674D02*
X4973968Y-13709722D01*
X4973968Y-13709722D02*
X4973968Y-13728769D01*
X4973968Y-13728769D02*
X4878730Y-13747817D01*
X5050158Y-13804960D02*
X5069206Y-13814484D01*
X5069206Y-13814484D02*
X5107301Y-13814484D01*
X5107301Y-13814484D02*
X5126349Y-13804960D01*
X5126349Y-13804960D02*
X5135873Y-13785912D01*
X5135873Y-13785912D02*
X5135873Y-13776388D01*
X5135873Y-13776388D02*
X5126349Y-13757341D01*
X5126349Y-13757341D02*
X5107301Y-13747817D01*
X5107301Y-13747817D02*
X5078730Y-13747817D01*
X5078730Y-13747817D02*
X5059682Y-13738293D01*
X5059682Y-13738293D02*
X5050158Y-13719246D01*
X5050158Y-13719246D02*
X5050158Y-13709722D01*
X5050158Y-13709722D02*
X5059682Y-13690674D01*
X5059682Y-13690674D02*
X5078730Y-13681150D01*
X5078730Y-13681150D02*
X5107301Y-13681150D01*
X5107301Y-13681150D02*
X5126349Y-13690674D01*
X5202539Y-13890674D02*
X5212063Y-13881150D01*
X5212063Y-13881150D02*
X5231111Y-13852579D01*
X5231111Y-13852579D02*
X5240634Y-13833531D01*
X5240634Y-13833531D02*
X5250158Y-13804960D01*
X5250158Y-13804960D02*
X5259682Y-13757341D01*
X5259682Y-13757341D02*
X5259682Y-13719246D01*
X5259682Y-13719246D02*
X5250158Y-13671627D01*
X5250158Y-13671627D02*
X5240634Y-13643055D01*
X5240634Y-13643055D02*
X5231111Y-13624008D01*
X5231111Y-13624008D02*
X5212063Y-13595436D01*
X5212063Y-13595436D02*
X5202539Y-13585912D01*
X5564444Y-13890674D02*
X5554920Y-13881150D01*
X5554920Y-13881150D02*
X5535873Y-13852579D01*
X5535873Y-13852579D02*
X5526349Y-13833531D01*
X5526349Y-13833531D02*
X5516825Y-13804960D01*
X5516825Y-13804960D02*
X5507301Y-13757341D01*
X5507301Y-13757341D02*
X5507301Y-13719246D01*
X5507301Y-13719246D02*
X5516825Y-13671627D01*
X5516825Y-13671627D02*
X5526349Y-13643055D01*
X5526349Y-13643055D02*
X5535873Y-13624008D01*
X5535873Y-13624008D02*
X5554920Y-13595436D01*
X5554920Y-13595436D02*
X5564444Y-13585912D01*
X5640634Y-13681150D02*
X5640634Y-13814484D01*
X5640634Y-13700198D02*
X5650158Y-13690674D01*
X5650158Y-13690674D02*
X5669206Y-13681150D01*
X5669206Y-13681150D02*
X5697777Y-13681150D01*
X5697777Y-13681150D02*
X5716825Y-13690674D01*
X5716825Y-13690674D02*
X5726349Y-13709722D01*
X5726349Y-13709722D02*
X5726349Y-13814484D01*
X5850158Y-13814484D02*
X5831111Y-13804960D01*
X5831111Y-13804960D02*
X5821587Y-13795436D01*
X5821587Y-13795436D02*
X5812063Y-13776388D01*
X5812063Y-13776388D02*
X5812063Y-13719246D01*
X5812063Y-13719246D02*
X5821587Y-13700198D01*
X5821587Y-13700198D02*
X5831111Y-13690674D01*
X5831111Y-13690674D02*
X5850158Y-13681150D01*
X5850158Y-13681150D02*
X5878730Y-13681150D01*
X5878730Y-13681150D02*
X5897777Y-13690674D01*
X5897777Y-13690674D02*
X5907301Y-13700198D01*
X5907301Y-13700198D02*
X5916825Y-13719246D01*
X5916825Y-13719246D02*
X5916825Y-13776388D01*
X5916825Y-13776388D02*
X5907301Y-13795436D01*
X5907301Y-13795436D02*
X5897777Y-13804960D01*
X5897777Y-13804960D02*
X5878730Y-13814484D01*
X5878730Y-13814484D02*
X5850158Y-13814484D01*
X5973968Y-13681150D02*
X6050158Y-13681150D01*
X6002539Y-13614484D02*
X6002539Y-13785912D01*
X6002539Y-13785912D02*
X6012063Y-13804960D01*
X6012063Y-13804960D02*
X6031111Y-13814484D01*
X6031111Y-13814484D02*
X6050158Y-13814484D01*
X6269206Y-13681150D02*
X6269206Y-13881150D01*
X6269206Y-13690674D02*
X6288253Y-13681150D01*
X6288253Y-13681150D02*
X6326349Y-13681150D01*
X6326349Y-13681150D02*
X6345396Y-13690674D01*
X6345396Y-13690674D02*
X6354920Y-13700198D01*
X6354920Y-13700198D02*
X6364444Y-13719246D01*
X6364444Y-13719246D02*
X6364444Y-13776388D01*
X6364444Y-13776388D02*
X6354920Y-13795436D01*
X6354920Y-13795436D02*
X6345396Y-13804960D01*
X6345396Y-13804960D02*
X6326349Y-13814484D01*
X6326349Y-13814484D02*
X6288253Y-13814484D01*
X6288253Y-13814484D02*
X6269206Y-13804960D01*
X6478730Y-13814484D02*
X6459682Y-13804960D01*
X6459682Y-13804960D02*
X6450158Y-13785912D01*
X6450158Y-13785912D02*
X6450158Y-13614484D01*
X6640634Y-13814484D02*
X6640634Y-13709722D01*
X6640634Y-13709722D02*
X6631111Y-13690674D01*
X6631111Y-13690674D02*
X6612063Y-13681150D01*
X6612063Y-13681150D02*
X6573968Y-13681150D01*
X6573968Y-13681150D02*
X6554920Y-13690674D01*
X6640634Y-13804960D02*
X6621587Y-13814484D01*
X6621587Y-13814484D02*
X6573968Y-13814484D01*
X6573968Y-13814484D02*
X6554920Y-13804960D01*
X6554920Y-13804960D02*
X6545396Y-13785912D01*
X6545396Y-13785912D02*
X6545396Y-13766865D01*
X6545396Y-13766865D02*
X6554920Y-13747817D01*
X6554920Y-13747817D02*
X6573968Y-13738293D01*
X6573968Y-13738293D02*
X6621587Y-13738293D01*
X6621587Y-13738293D02*
X6640634Y-13728769D01*
X6707301Y-13681150D02*
X6783492Y-13681150D01*
X6735873Y-13614484D02*
X6735873Y-13785912D01*
X6735873Y-13785912D02*
X6745396Y-13804960D01*
X6745396Y-13804960D02*
X6764444Y-13814484D01*
X6764444Y-13814484D02*
X6783492Y-13814484D01*
X6926349Y-13804960D02*
X6907301Y-13814484D01*
X6907301Y-13814484D02*
X6869206Y-13814484D01*
X6869206Y-13814484D02*
X6850158Y-13804960D01*
X6850158Y-13804960D02*
X6840634Y-13785912D01*
X6840634Y-13785912D02*
X6840634Y-13709722D01*
X6840634Y-13709722D02*
X6850158Y-13690674D01*
X6850158Y-13690674D02*
X6869206Y-13681150D01*
X6869206Y-13681150D02*
X6907301Y-13681150D01*
X6907301Y-13681150D02*
X6926349Y-13690674D01*
X6926349Y-13690674D02*
X6935873Y-13709722D01*
X6935873Y-13709722D02*
X6935873Y-13728769D01*
X6935873Y-13728769D02*
X6840634Y-13747817D01*
X7107301Y-13814484D02*
X7107301Y-13614484D01*
X7107301Y-13804960D02*
X7088254Y-13814484D01*
X7088254Y-13814484D02*
X7050158Y-13814484D01*
X7050158Y-13814484D02*
X7031111Y-13804960D01*
X7031111Y-13804960D02*
X7021587Y-13795436D01*
X7021587Y-13795436D02*
X7012063Y-13776388D01*
X7012063Y-13776388D02*
X7012063Y-13719246D01*
X7012063Y-13719246D02*
X7021587Y-13700198D01*
X7021587Y-13700198D02*
X7031111Y-13690674D01*
X7031111Y-13690674D02*
X7050158Y-13681150D01*
X7050158Y-13681150D02*
X7088254Y-13681150D01*
X7088254Y-13681150D02*
X7107301Y-13690674D01*
X7183492Y-13890674D02*
X7193015Y-13881150D01*
X7193015Y-13881150D02*
X7212063Y-13852579D01*
X7212063Y-13852579D02*
X7221587Y-13833531D01*
X7221587Y-13833531D02*
X7231111Y-13804960D01*
X7231111Y-13804960D02*
X7240634Y-13757341D01*
X7240634Y-13757341D02*
X7240634Y-13719246D01*
X7240634Y-13719246D02*
X7231111Y-13671627D01*
X7231111Y-13671627D02*
X7221587Y-13643055D01*
X7221587Y-13643055D02*
X7212063Y-13624008D01*
X7212063Y-13624008D02*
X7193015Y-13595436D01*
X7193015Y-13595436D02*
X7183492Y-13585912D01*
M02*
