%TF.GenerationSoftware,KiCad,Pcbnew,8.99.0-829-g0984af1676*%
%TF.CreationDate,2024-04-27T09:25:59+07:00*%
%TF.ProjectId,Nuxros75,4e757872-6f73-4373-952e-6b696361645f,rev?*%
%TF.SameCoordinates,Original*%
%TF.FileFunction,Legend,Bot*%
%TF.FilePolarity,Positive*%
%FSLAX46Y46*%
G04 Gerber Fmt 4.6, Leading zero omitted, Abs format (unit mm)*
G04 Created by KiCad (PCBNEW 8.99.0-829-g0984af1676) date 2024-04-27 09:25:59*
%MOMM*%
%LPD*%
G01*
G04 APERTURE LIST*
%ADD10C,3.000000*%
%ADD11C,0.150000*%
%ADD12C,0.120000*%
G04 APERTURE END LIST*
D10*
X34600000Y-133990000D02*
G75*
G02*
X31600000Y-136990000I-3000000J0D01*
G01*
X-70600000Y-136990000D02*
X-179900000Y-136990000D01*
X-263000000Y-137000000D02*
G75*
G02*
X-266000000Y-134000000I1J3000001D01*
G01*
X34500000Y-25190000D02*
X34600000Y-133990000D01*
X-179900001Y-136990000D02*
G75*
G02*
X-184899999Y-136990000I-2499999J400000D01*
G01*
X-65600001Y-136990001D02*
G75*
G02*
X-70599999Y-136990000I-2499999J500001D01*
G01*
X31500000Y-22200000D02*
G75*
G02*
X34500000Y-25200000I0J-3000000D01*
G01*
X-263000000Y-22200000D02*
X31500000Y-22200000D01*
X-266000000Y-25200000D02*
X-266000000Y-134000000D01*
X-266000000Y-25200000D02*
G75*
G02*
X-263000000Y-22200000I3000003J-3D01*
G01*
X31600000Y-136990000D02*
X-65600001Y-136990001D01*
X-263000000Y-137000000D02*
X-184900000Y-137000000D01*
D11*
X-247480419Y-40667142D02*
X-247432800Y-40619523D01*
X-247432800Y-40619523D02*
X-247385180Y-40476666D01*
X-247385180Y-40476666D02*
X-247385180Y-40381428D01*
X-247385180Y-40381428D02*
X-247432800Y-40238571D01*
X-247432800Y-40238571D02*
X-247528038Y-40143333D01*
X-247528038Y-40143333D02*
X-247623276Y-40095714D01*
X-247623276Y-40095714D02*
X-247813752Y-40048095D01*
X-247813752Y-40048095D02*
X-247956609Y-40048095D01*
X-247956609Y-40048095D02*
X-248147085Y-40095714D01*
X-248147085Y-40095714D02*
X-248242323Y-40143333D01*
X-248242323Y-40143333D02*
X-248337561Y-40238571D01*
X-248337561Y-40238571D02*
X-248385180Y-40381428D01*
X-248385180Y-40381428D02*
X-248385180Y-40476666D01*
X-248385180Y-40476666D02*
X-248337561Y-40619523D01*
X-248337561Y-40619523D02*
X-248289942Y-40667142D01*
X-247385180Y-41619523D02*
X-247385180Y-41048095D01*
X-247385180Y-41333809D02*
X-248385180Y-41333809D01*
X-248385180Y-41333809D02*
X-248242323Y-41238571D01*
X-248242323Y-41238571D02*
X-248147085Y-41143333D01*
X-248147085Y-41143333D02*
X-248099466Y-41048095D01*
X-248385180Y-42238571D02*
X-248385180Y-42333809D01*
X-248385180Y-42333809D02*
X-248337561Y-42429047D01*
X-248337561Y-42429047D02*
X-248289942Y-42476666D01*
X-248289942Y-42476666D02*
X-248194704Y-42524285D01*
X-248194704Y-42524285D02*
X-248004228Y-42571904D01*
X-248004228Y-42571904D02*
X-247766133Y-42571904D01*
X-247766133Y-42571904D02*
X-247575657Y-42524285D01*
X-247575657Y-42524285D02*
X-247480419Y-42476666D01*
X-247480419Y-42476666D02*
X-247432800Y-42429047D01*
X-247432800Y-42429047D02*
X-247385180Y-42333809D01*
X-247385180Y-42333809D02*
X-247385180Y-42238571D01*
X-247385180Y-42238571D02*
X-247432800Y-42143333D01*
X-247432800Y-42143333D02*
X-247480419Y-42095714D01*
X-247480419Y-42095714D02*
X-247575657Y-42048095D01*
X-247575657Y-42048095D02*
X-247766133Y-42000476D01*
X-247766133Y-42000476D02*
X-248004228Y-42000476D01*
X-248004228Y-42000476D02*
X-248194704Y-42048095D01*
X-248194704Y-42048095D02*
X-248289942Y-42095714D01*
X-248289942Y-42095714D02*
X-248337561Y-42143333D01*
X-248337561Y-42143333D02*
X-248385180Y-42238571D01*
X-261413333Y-81349580D02*
X-261365714Y-81397200D01*
X-261365714Y-81397200D02*
X-261222857Y-81444819D01*
X-261222857Y-81444819D02*
X-261127619Y-81444819D01*
X-261127619Y-81444819D02*
X-260984762Y-81397200D01*
X-260984762Y-81397200D02*
X-260889524Y-81301961D01*
X-260889524Y-81301961D02*
X-260841905Y-81206723D01*
X-260841905Y-81206723D02*
X-260794286Y-81016247D01*
X-260794286Y-81016247D02*
X-260794286Y-80873390D01*
X-260794286Y-80873390D02*
X-260841905Y-80682914D01*
X-260841905Y-80682914D02*
X-260889524Y-80587676D01*
X-260889524Y-80587676D02*
X-260984762Y-80492438D01*
X-260984762Y-80492438D02*
X-261127619Y-80444819D01*
X-261127619Y-80444819D02*
X-261222857Y-80444819D01*
X-261222857Y-80444819D02*
X-261365714Y-80492438D01*
X-261365714Y-80492438D02*
X-261413333Y-80540057D01*
X-262270476Y-80444819D02*
X-262080000Y-80444819D01*
X-262080000Y-80444819D02*
X-261984762Y-80492438D01*
X-261984762Y-80492438D02*
X-261937143Y-80540057D01*
X-261937143Y-80540057D02*
X-261841905Y-80682914D01*
X-261841905Y-80682914D02*
X-261794286Y-80873390D01*
X-261794286Y-80873390D02*
X-261794286Y-81254342D01*
X-261794286Y-81254342D02*
X-261841905Y-81349580D01*
X-261841905Y-81349580D02*
X-261889524Y-81397200D01*
X-261889524Y-81397200D02*
X-261984762Y-81444819D01*
X-261984762Y-81444819D02*
X-262175238Y-81444819D01*
X-262175238Y-81444819D02*
X-262270476Y-81397200D01*
X-262270476Y-81397200D02*
X-262318095Y-81349580D01*
X-262318095Y-81349580D02*
X-262365714Y-81254342D01*
X-262365714Y-81254342D02*
X-262365714Y-81016247D01*
X-262365714Y-81016247D02*
X-262318095Y-80921009D01*
X-262318095Y-80921009D02*
X-262270476Y-80873390D01*
X-262270476Y-80873390D02*
X-262175238Y-80825771D01*
X-262175238Y-80825771D02*
X-261984762Y-80825771D01*
X-261984762Y-80825771D02*
X-261889524Y-80873390D01*
X-261889524Y-80873390D02*
X-261841905Y-80921009D01*
X-261841905Y-80921009D02*
X-261794286Y-81016247D01*
X-238205714Y-83144819D02*
X-238205714Y-83954342D01*
X-238205714Y-83954342D02*
X-238253333Y-84049580D01*
X-238253333Y-84049580D02*
X-238300952Y-84097200D01*
X-238300952Y-84097200D02*
X-238396190Y-84144819D01*
X-238396190Y-84144819D02*
X-238586666Y-84144819D01*
X-238586666Y-84144819D02*
X-238681904Y-84097200D01*
X-238681904Y-84097200D02*
X-238729523Y-84049580D01*
X-238729523Y-84049580D02*
X-238777142Y-83954342D01*
X-238777142Y-83954342D02*
X-238777142Y-83144819D01*
X-239681904Y-84144819D02*
X-239681904Y-83144819D01*
X-239681904Y-84097200D02*
X-239586666Y-84144819D01*
X-239586666Y-84144819D02*
X-239396190Y-84144819D01*
X-239396190Y-84144819D02*
X-239300952Y-84097200D01*
X-239300952Y-84097200D02*
X-239253333Y-84049580D01*
X-239253333Y-84049580D02*
X-239205714Y-83954342D01*
X-239205714Y-83954342D02*
X-239205714Y-83668628D01*
X-239205714Y-83668628D02*
X-239253333Y-83573390D01*
X-239253333Y-83573390D02*
X-239300952Y-83525771D01*
X-239300952Y-83525771D02*
X-239396190Y-83478152D01*
X-239396190Y-83478152D02*
X-239586666Y-83478152D01*
X-239586666Y-83478152D02*
X-239681904Y-83525771D01*
X-240681904Y-84144819D02*
X-240110476Y-84144819D01*
X-240396190Y-84144819D02*
X-240396190Y-83144819D01*
X-240396190Y-83144819D02*
X-240300952Y-83287676D01*
X-240300952Y-83287676D02*
X-240205714Y-83382914D01*
X-240205714Y-83382914D02*
X-240110476Y-83430533D01*
X-259488095Y-62204819D02*
X-259488095Y-63014342D01*
X-259488095Y-63014342D02*
X-259535714Y-63109580D01*
X-259535714Y-63109580D02*
X-259583333Y-63157200D01*
X-259583333Y-63157200D02*
X-259678571Y-63204819D01*
X-259678571Y-63204819D02*
X-259869047Y-63204819D01*
X-259869047Y-63204819D02*
X-259964285Y-63157200D01*
X-259964285Y-63157200D02*
X-260011904Y-63109580D01*
X-260011904Y-63109580D02*
X-260059523Y-63014342D01*
X-260059523Y-63014342D02*
X-260059523Y-62204819D01*
X-260488095Y-62300057D02*
X-260535714Y-62252438D01*
X-260535714Y-62252438D02*
X-260630952Y-62204819D01*
X-260630952Y-62204819D02*
X-260869047Y-62204819D01*
X-260869047Y-62204819D02*
X-260964285Y-62252438D01*
X-260964285Y-62252438D02*
X-261011904Y-62300057D01*
X-261011904Y-62300057D02*
X-261059523Y-62395295D01*
X-261059523Y-62395295D02*
X-261059523Y-62490533D01*
X-261059523Y-62490533D02*
X-261011904Y-62633390D01*
X-261011904Y-62633390D02*
X-260440476Y-63204819D01*
X-260440476Y-63204819D02*
X-261059523Y-63204819D01*
X-59362680Y-73708214D02*
X-60362680Y-73708214D01*
X-60362680Y-73708214D02*
X-60362680Y-73946309D01*
X-60362680Y-73946309D02*
X-60315061Y-74089166D01*
X-60315061Y-74089166D02*
X-60219823Y-74184404D01*
X-60219823Y-74184404D02*
X-60124585Y-74232023D01*
X-60124585Y-74232023D02*
X-59934109Y-74279642D01*
X-59934109Y-74279642D02*
X-59791252Y-74279642D01*
X-59791252Y-74279642D02*
X-59600776Y-74232023D01*
X-59600776Y-74232023D02*
X-59505538Y-74184404D01*
X-59505538Y-74184404D02*
X-59410300Y-74089166D01*
X-59410300Y-74089166D02*
X-59362680Y-73946309D01*
X-59362680Y-73946309D02*
X-59362680Y-73708214D01*
X-60029347Y-75136785D02*
X-59362680Y-75136785D01*
X-60410300Y-74898690D02*
X-59696014Y-74660595D01*
X-59696014Y-74660595D02*
X-59696014Y-75279642D01*
X-59362680Y-76184404D02*
X-59362680Y-75612976D01*
X-59362680Y-75898690D02*
X-60362680Y-75898690D01*
X-60362680Y-75898690D02*
X-60219823Y-75803452D01*
X-60219823Y-75803452D02*
X-60124585Y-75708214D01*
X-60124585Y-75708214D02*
X-60076966Y-75612976D01*
X-56045180Y-37500595D02*
X-55235657Y-37500595D01*
X-55235657Y-37500595D02*
X-55140419Y-37548214D01*
X-55140419Y-37548214D02*
X-55092800Y-37595833D01*
X-55092800Y-37595833D02*
X-55045180Y-37691071D01*
X-55045180Y-37691071D02*
X-55045180Y-37881547D01*
X-55045180Y-37881547D02*
X-55092800Y-37976785D01*
X-55092800Y-37976785D02*
X-55140419Y-38024404D01*
X-55140419Y-38024404D02*
X-55235657Y-38072023D01*
X-55235657Y-38072023D02*
X-56045180Y-38072023D01*
X-56045180Y-38452976D02*
X-56045180Y-39072023D01*
X-56045180Y-39072023D02*
X-55664228Y-38738690D01*
X-55664228Y-38738690D02*
X-55664228Y-38881547D01*
X-55664228Y-38881547D02*
X-55616609Y-38976785D01*
X-55616609Y-38976785D02*
X-55568990Y-39024404D01*
X-55568990Y-39024404D02*
X-55473752Y-39072023D01*
X-55473752Y-39072023D02*
X-55235657Y-39072023D01*
X-55235657Y-39072023D02*
X-55140419Y-39024404D01*
X-55140419Y-39024404D02*
X-55092800Y-38976785D01*
X-55092800Y-38976785D02*
X-55045180Y-38881547D01*
X-55045180Y-38881547D02*
X-55045180Y-38595833D01*
X-55045180Y-38595833D02*
X-55092800Y-38500595D01*
X-55092800Y-38500595D02*
X-55140419Y-38452976D01*
X-247000419Y-74943333D02*
X-246952800Y-74895714D01*
X-246952800Y-74895714D02*
X-246905180Y-74752857D01*
X-246905180Y-74752857D02*
X-246905180Y-74657619D01*
X-246905180Y-74657619D02*
X-246952800Y-74514762D01*
X-246952800Y-74514762D02*
X-247048038Y-74419524D01*
X-247048038Y-74419524D02*
X-247143276Y-74371905D01*
X-247143276Y-74371905D02*
X-247333752Y-74324286D01*
X-247333752Y-74324286D02*
X-247476609Y-74324286D01*
X-247476609Y-74324286D02*
X-247667085Y-74371905D01*
X-247667085Y-74371905D02*
X-247762323Y-74419524D01*
X-247762323Y-74419524D02*
X-247857561Y-74514762D01*
X-247857561Y-74514762D02*
X-247905180Y-74657619D01*
X-247905180Y-74657619D02*
X-247905180Y-74752857D01*
X-247905180Y-74752857D02*
X-247857561Y-74895714D01*
X-247857561Y-74895714D02*
X-247809942Y-74943333D01*
X-247809942Y-75324286D02*
X-247857561Y-75371905D01*
X-247857561Y-75371905D02*
X-247905180Y-75467143D01*
X-247905180Y-75467143D02*
X-247905180Y-75705238D01*
X-247905180Y-75705238D02*
X-247857561Y-75800476D01*
X-247857561Y-75800476D02*
X-247809942Y-75848095D01*
X-247809942Y-75848095D02*
X-247714704Y-75895714D01*
X-247714704Y-75895714D02*
X-247619466Y-75895714D01*
X-247619466Y-75895714D02*
X-247476609Y-75848095D01*
X-247476609Y-75848095D02*
X-246905180Y-75276667D01*
X-246905180Y-75276667D02*
X-246905180Y-75895714D01*
X-261413333Y-83309580D02*
X-261365714Y-83357200D01*
X-261365714Y-83357200D02*
X-261222857Y-83404819D01*
X-261222857Y-83404819D02*
X-261127619Y-83404819D01*
X-261127619Y-83404819D02*
X-260984762Y-83357200D01*
X-260984762Y-83357200D02*
X-260889524Y-83261961D01*
X-260889524Y-83261961D02*
X-260841905Y-83166723D01*
X-260841905Y-83166723D02*
X-260794286Y-82976247D01*
X-260794286Y-82976247D02*
X-260794286Y-82833390D01*
X-260794286Y-82833390D02*
X-260841905Y-82642914D01*
X-260841905Y-82642914D02*
X-260889524Y-82547676D01*
X-260889524Y-82547676D02*
X-260984762Y-82452438D01*
X-260984762Y-82452438D02*
X-261127619Y-82404819D01*
X-261127619Y-82404819D02*
X-261222857Y-82404819D01*
X-261222857Y-82404819D02*
X-261365714Y-82452438D01*
X-261365714Y-82452438D02*
X-261413333Y-82500057D01*
X-262365714Y-83404819D02*
X-261794286Y-83404819D01*
X-262080000Y-83404819D02*
X-262080000Y-82404819D01*
X-262080000Y-82404819D02*
X-261984762Y-82547676D01*
X-261984762Y-82547676D02*
X-261889524Y-82642914D01*
X-261889524Y-82642914D02*
X-261794286Y-82690533D01*
X-92700180Y-92758214D02*
X-93700180Y-92758214D01*
X-93700180Y-92758214D02*
X-93700180Y-92996309D01*
X-93700180Y-92996309D02*
X-93652561Y-93139166D01*
X-93652561Y-93139166D02*
X-93557323Y-93234404D01*
X-93557323Y-93234404D02*
X-93462085Y-93282023D01*
X-93462085Y-93282023D02*
X-93271609Y-93329642D01*
X-93271609Y-93329642D02*
X-93128752Y-93329642D01*
X-93128752Y-93329642D02*
X-92938276Y-93282023D01*
X-92938276Y-93282023D02*
X-92843038Y-93234404D01*
X-92843038Y-93234404D02*
X-92747800Y-93139166D01*
X-92747800Y-93139166D02*
X-92700180Y-92996309D01*
X-92700180Y-92996309D02*
X-92700180Y-92758214D01*
X-93700180Y-94234404D02*
X-93700180Y-93758214D01*
X-93700180Y-93758214D02*
X-93223990Y-93710595D01*
X-93223990Y-93710595D02*
X-93271609Y-93758214D01*
X-93271609Y-93758214D02*
X-93319228Y-93853452D01*
X-93319228Y-93853452D02*
X-93319228Y-94091547D01*
X-93319228Y-94091547D02*
X-93271609Y-94186785D01*
X-93271609Y-94186785D02*
X-93223990Y-94234404D01*
X-93223990Y-94234404D02*
X-93128752Y-94282023D01*
X-93128752Y-94282023D02*
X-92890657Y-94282023D01*
X-92890657Y-94282023D02*
X-92795419Y-94234404D01*
X-92795419Y-94234404D02*
X-92747800Y-94186785D01*
X-92747800Y-94186785D02*
X-92700180Y-94091547D01*
X-92700180Y-94091547D02*
X-92700180Y-93853452D01*
X-92700180Y-93853452D02*
X-92747800Y-93758214D01*
X-92747800Y-93758214D02*
X-92795419Y-93710595D01*
X-93366847Y-95139166D02*
X-92700180Y-95139166D01*
X-93747800Y-94901071D02*
X-93033514Y-94662976D01*
X-93033514Y-94662976D02*
X-93033514Y-95282023D01*
X-197475180Y-111808214D02*
X-198475180Y-111808214D01*
X-198475180Y-111808214D02*
X-198475180Y-112046309D01*
X-198475180Y-112046309D02*
X-198427561Y-112189166D01*
X-198427561Y-112189166D02*
X-198332323Y-112284404D01*
X-198332323Y-112284404D02*
X-198237085Y-112332023D01*
X-198237085Y-112332023D02*
X-198046609Y-112379642D01*
X-198046609Y-112379642D02*
X-197903752Y-112379642D01*
X-197903752Y-112379642D02*
X-197713276Y-112332023D01*
X-197713276Y-112332023D02*
X-197618038Y-112284404D01*
X-197618038Y-112284404D02*
X-197522800Y-112189166D01*
X-197522800Y-112189166D02*
X-197475180Y-112046309D01*
X-197475180Y-112046309D02*
X-197475180Y-111808214D01*
X-198475180Y-113236785D02*
X-198475180Y-113046309D01*
X-198475180Y-113046309D02*
X-198427561Y-112951071D01*
X-198427561Y-112951071D02*
X-198379942Y-112903452D01*
X-198379942Y-112903452D02*
X-198237085Y-112808214D01*
X-198237085Y-112808214D02*
X-198046609Y-112760595D01*
X-198046609Y-112760595D02*
X-197665657Y-112760595D01*
X-197665657Y-112760595D02*
X-197570419Y-112808214D01*
X-197570419Y-112808214D02*
X-197522800Y-112855833D01*
X-197522800Y-112855833D02*
X-197475180Y-112951071D01*
X-197475180Y-112951071D02*
X-197475180Y-113141547D01*
X-197475180Y-113141547D02*
X-197522800Y-113236785D01*
X-197522800Y-113236785D02*
X-197570419Y-113284404D01*
X-197570419Y-113284404D02*
X-197665657Y-113332023D01*
X-197665657Y-113332023D02*
X-197903752Y-113332023D01*
X-197903752Y-113332023D02*
X-197998990Y-113284404D01*
X-197998990Y-113284404D02*
X-198046609Y-113236785D01*
X-198046609Y-113236785D02*
X-198094228Y-113141547D01*
X-198094228Y-113141547D02*
X-198094228Y-112951071D01*
X-198094228Y-112951071D02*
X-198046609Y-112855833D01*
X-198046609Y-112855833D02*
X-197998990Y-112808214D01*
X-197998990Y-112808214D02*
X-197903752Y-112760595D01*
X-198379942Y-113712976D02*
X-198427561Y-113760595D01*
X-198427561Y-113760595D02*
X-198475180Y-113855833D01*
X-198475180Y-113855833D02*
X-198475180Y-114093928D01*
X-198475180Y-114093928D02*
X-198427561Y-114189166D01*
X-198427561Y-114189166D02*
X-198379942Y-114236785D01*
X-198379942Y-114236785D02*
X-198284704Y-114284404D01*
X-198284704Y-114284404D02*
X-198189466Y-114284404D01*
X-198189466Y-114284404D02*
X-198046609Y-114236785D01*
X-198046609Y-114236785D02*
X-197475180Y-113665357D01*
X-197475180Y-113665357D02*
X-197475180Y-114284404D01*
X-231343333Y-95899580D02*
X-231295714Y-95947200D01*
X-231295714Y-95947200D02*
X-231152857Y-95994819D01*
X-231152857Y-95994819D02*
X-231057619Y-95994819D01*
X-231057619Y-95994819D02*
X-230914762Y-95947200D01*
X-230914762Y-95947200D02*
X-230819524Y-95851961D01*
X-230819524Y-95851961D02*
X-230771905Y-95756723D01*
X-230771905Y-95756723D02*
X-230724286Y-95566247D01*
X-230724286Y-95566247D02*
X-230724286Y-95423390D01*
X-230724286Y-95423390D02*
X-230771905Y-95232914D01*
X-230771905Y-95232914D02*
X-230819524Y-95137676D01*
X-230819524Y-95137676D02*
X-230914762Y-95042438D01*
X-230914762Y-95042438D02*
X-231057619Y-94994819D01*
X-231057619Y-94994819D02*
X-231152857Y-94994819D01*
X-231152857Y-94994819D02*
X-231295714Y-95042438D01*
X-231295714Y-95042438D02*
X-231343333Y-95090057D01*
X-231914762Y-95423390D02*
X-231819524Y-95375771D01*
X-231819524Y-95375771D02*
X-231771905Y-95328152D01*
X-231771905Y-95328152D02*
X-231724286Y-95232914D01*
X-231724286Y-95232914D02*
X-231724286Y-95185295D01*
X-231724286Y-95185295D02*
X-231771905Y-95090057D01*
X-231771905Y-95090057D02*
X-231819524Y-95042438D01*
X-231819524Y-95042438D02*
X-231914762Y-94994819D01*
X-231914762Y-94994819D02*
X-232105238Y-94994819D01*
X-232105238Y-94994819D02*
X-232200476Y-95042438D01*
X-232200476Y-95042438D02*
X-232248095Y-95090057D01*
X-232248095Y-95090057D02*
X-232295714Y-95185295D01*
X-232295714Y-95185295D02*
X-232295714Y-95232914D01*
X-232295714Y-95232914D02*
X-232248095Y-95328152D01*
X-232248095Y-95328152D02*
X-232200476Y-95375771D01*
X-232200476Y-95375771D02*
X-232105238Y-95423390D01*
X-232105238Y-95423390D02*
X-231914762Y-95423390D01*
X-231914762Y-95423390D02*
X-231819524Y-95471009D01*
X-231819524Y-95471009D02*
X-231771905Y-95518628D01*
X-231771905Y-95518628D02*
X-231724286Y-95613866D01*
X-231724286Y-95613866D02*
X-231724286Y-95804342D01*
X-231724286Y-95804342D02*
X-231771905Y-95899580D01*
X-231771905Y-95899580D02*
X-231819524Y-95947200D01*
X-231819524Y-95947200D02*
X-231914762Y-95994819D01*
X-231914762Y-95994819D02*
X-232105238Y-95994819D01*
X-232105238Y-95994819D02*
X-232200476Y-95947200D01*
X-232200476Y-95947200D02*
X-232248095Y-95899580D01*
X-232248095Y-95899580D02*
X-232295714Y-95804342D01*
X-232295714Y-95804342D02*
X-232295714Y-95613866D01*
X-232295714Y-95613866D02*
X-232248095Y-95518628D01*
X-232248095Y-95518628D02*
X-232200476Y-95471009D01*
X-232200476Y-95471009D02*
X-232105238Y-95423390D01*
X-245040419Y-74943333D02*
X-244992800Y-74895714D01*
X-244992800Y-74895714D02*
X-244945180Y-74752857D01*
X-244945180Y-74752857D02*
X-244945180Y-74657619D01*
X-244945180Y-74657619D02*
X-244992800Y-74514762D01*
X-244992800Y-74514762D02*
X-245088038Y-74419524D01*
X-245088038Y-74419524D02*
X-245183276Y-74371905D01*
X-245183276Y-74371905D02*
X-245373752Y-74324286D01*
X-245373752Y-74324286D02*
X-245516609Y-74324286D01*
X-245516609Y-74324286D02*
X-245707085Y-74371905D01*
X-245707085Y-74371905D02*
X-245802323Y-74419524D01*
X-245802323Y-74419524D02*
X-245897561Y-74514762D01*
X-245897561Y-74514762D02*
X-245945180Y-74657619D01*
X-245945180Y-74657619D02*
X-245945180Y-74752857D01*
X-245945180Y-74752857D02*
X-245897561Y-74895714D01*
X-245897561Y-74895714D02*
X-245849942Y-74943333D01*
X-245945180Y-75276667D02*
X-245945180Y-75943333D01*
X-245945180Y-75943333D02*
X-244945180Y-75514762D01*
X-246373333Y-95819580D02*
X-246325714Y-95867200D01*
X-246325714Y-95867200D02*
X-246182857Y-95914819D01*
X-246182857Y-95914819D02*
X-246087619Y-95914819D01*
X-246087619Y-95914819D02*
X-245944762Y-95867200D01*
X-245944762Y-95867200D02*
X-245849524Y-95771961D01*
X-245849524Y-95771961D02*
X-245801905Y-95676723D01*
X-245801905Y-95676723D02*
X-245754286Y-95486247D01*
X-245754286Y-95486247D02*
X-245754286Y-95343390D01*
X-245754286Y-95343390D02*
X-245801905Y-95152914D01*
X-245801905Y-95152914D02*
X-245849524Y-95057676D01*
X-245849524Y-95057676D02*
X-245944762Y-94962438D01*
X-245944762Y-94962438D02*
X-246087619Y-94914819D01*
X-246087619Y-94914819D02*
X-246182857Y-94914819D01*
X-246182857Y-94914819D02*
X-246325714Y-94962438D01*
X-246325714Y-94962438D02*
X-246373333Y-95010057D01*
X-247230476Y-95248152D02*
X-247230476Y-95914819D01*
X-246992381Y-94867200D02*
X-246754286Y-95581485D01*
X-246754286Y-95581485D02*
X-247373333Y-95581485D01*
X-231343333Y-93939580D02*
X-231295714Y-93987200D01*
X-231295714Y-93987200D02*
X-231152857Y-94034819D01*
X-231152857Y-94034819D02*
X-231057619Y-94034819D01*
X-231057619Y-94034819D02*
X-230914762Y-93987200D01*
X-230914762Y-93987200D02*
X-230819524Y-93891961D01*
X-230819524Y-93891961D02*
X-230771905Y-93796723D01*
X-230771905Y-93796723D02*
X-230724286Y-93606247D01*
X-230724286Y-93606247D02*
X-230724286Y-93463390D01*
X-230724286Y-93463390D02*
X-230771905Y-93272914D01*
X-230771905Y-93272914D02*
X-230819524Y-93177676D01*
X-230819524Y-93177676D02*
X-230914762Y-93082438D01*
X-230914762Y-93082438D02*
X-231057619Y-93034819D01*
X-231057619Y-93034819D02*
X-231152857Y-93034819D01*
X-231152857Y-93034819D02*
X-231295714Y-93082438D01*
X-231295714Y-93082438D02*
X-231343333Y-93130057D01*
X-231676667Y-93034819D02*
X-232295714Y-93034819D01*
X-232295714Y-93034819D02*
X-231962381Y-93415771D01*
X-231962381Y-93415771D02*
X-232105238Y-93415771D01*
X-232105238Y-93415771D02*
X-232200476Y-93463390D01*
X-232200476Y-93463390D02*
X-232248095Y-93511009D01*
X-232248095Y-93511009D02*
X-232295714Y-93606247D01*
X-232295714Y-93606247D02*
X-232295714Y-93844342D01*
X-232295714Y-93844342D02*
X-232248095Y-93939580D01*
X-232248095Y-93939580D02*
X-232200476Y-93987200D01*
X-232200476Y-93987200D02*
X-232105238Y-94034819D01*
X-232105238Y-94034819D02*
X-231819524Y-94034819D01*
X-231819524Y-94034819D02*
X-231724286Y-93987200D01*
X-231724286Y-93987200D02*
X-231676667Y-93939580D01*
X-246373333Y-93859580D02*
X-246325714Y-93907200D01*
X-246325714Y-93907200D02*
X-246182857Y-93954819D01*
X-246182857Y-93954819D02*
X-246087619Y-93954819D01*
X-246087619Y-93954819D02*
X-245944762Y-93907200D01*
X-245944762Y-93907200D02*
X-245849524Y-93811961D01*
X-245849524Y-93811961D02*
X-245801905Y-93716723D01*
X-245801905Y-93716723D02*
X-245754286Y-93526247D01*
X-245754286Y-93526247D02*
X-245754286Y-93383390D01*
X-245754286Y-93383390D02*
X-245801905Y-93192914D01*
X-245801905Y-93192914D02*
X-245849524Y-93097676D01*
X-245849524Y-93097676D02*
X-245944762Y-93002438D01*
X-245944762Y-93002438D02*
X-246087619Y-92954819D01*
X-246087619Y-92954819D02*
X-246182857Y-92954819D01*
X-246182857Y-92954819D02*
X-246325714Y-93002438D01*
X-246325714Y-93002438D02*
X-246373333Y-93050057D01*
X-246849524Y-93954819D02*
X-247040000Y-93954819D01*
X-247040000Y-93954819D02*
X-247135238Y-93907200D01*
X-247135238Y-93907200D02*
X-247182857Y-93859580D01*
X-247182857Y-93859580D02*
X-247278095Y-93716723D01*
X-247278095Y-93716723D02*
X-247325714Y-93526247D01*
X-247325714Y-93526247D02*
X-247325714Y-93145295D01*
X-247325714Y-93145295D02*
X-247278095Y-93050057D01*
X-247278095Y-93050057D02*
X-247230476Y-93002438D01*
X-247230476Y-93002438D02*
X-247135238Y-92954819D01*
X-247135238Y-92954819D02*
X-246944762Y-92954819D01*
X-246944762Y-92954819D02*
X-246849524Y-93002438D01*
X-246849524Y-93002438D02*
X-246801905Y-93050057D01*
X-246801905Y-93050057D02*
X-246754286Y-93145295D01*
X-246754286Y-93145295D02*
X-246754286Y-93383390D01*
X-246754286Y-93383390D02*
X-246801905Y-93478628D01*
X-246801905Y-93478628D02*
X-246849524Y-93526247D01*
X-246849524Y-93526247D02*
X-246944762Y-93573866D01*
X-246944762Y-93573866D02*
X-247135238Y-93573866D01*
X-247135238Y-93573866D02*
X-247230476Y-93526247D01*
X-247230476Y-93526247D02*
X-247278095Y-93478628D01*
X-247278095Y-93478628D02*
X-247325714Y-93383390D01*
X-251033333Y-36414819D02*
X-250700000Y-35938628D01*
X-250461905Y-36414819D02*
X-250461905Y-35414819D01*
X-250461905Y-35414819D02*
X-250842857Y-35414819D01*
X-250842857Y-35414819D02*
X-250938095Y-35462438D01*
X-250938095Y-35462438D02*
X-250985714Y-35510057D01*
X-250985714Y-35510057D02*
X-251033333Y-35605295D01*
X-251033333Y-35605295D02*
X-251033333Y-35748152D01*
X-251033333Y-35748152D02*
X-250985714Y-35843390D01*
X-250985714Y-35843390D02*
X-250938095Y-35891009D01*
X-250938095Y-35891009D02*
X-250842857Y-35938628D01*
X-250842857Y-35938628D02*
X-250461905Y-35938628D01*
X-251985714Y-36414819D02*
X-251414286Y-36414819D01*
X-251700000Y-36414819D02*
X-251700000Y-35414819D01*
X-251700000Y-35414819D02*
X-251604762Y-35557676D01*
X-251604762Y-35557676D02*
X-251509524Y-35652914D01*
X-251509524Y-35652914D02*
X-251414286Y-35700533D01*
X-262363333Y-68079580D02*
X-262315714Y-68127200D01*
X-262315714Y-68127200D02*
X-262172857Y-68174819D01*
X-262172857Y-68174819D02*
X-262077619Y-68174819D01*
X-262077619Y-68174819D02*
X-261934762Y-68127200D01*
X-261934762Y-68127200D02*
X-261839524Y-68031961D01*
X-261839524Y-68031961D02*
X-261791905Y-67936723D01*
X-261791905Y-67936723D02*
X-261744286Y-67746247D01*
X-261744286Y-67746247D02*
X-261744286Y-67603390D01*
X-261744286Y-67603390D02*
X-261791905Y-67412914D01*
X-261791905Y-67412914D02*
X-261839524Y-67317676D01*
X-261839524Y-67317676D02*
X-261934762Y-67222438D01*
X-261934762Y-67222438D02*
X-262077619Y-67174819D01*
X-262077619Y-67174819D02*
X-262172857Y-67174819D01*
X-262172857Y-67174819D02*
X-262315714Y-67222438D01*
X-262315714Y-67222438D02*
X-262363333Y-67270057D01*
X-263268095Y-67174819D02*
X-262791905Y-67174819D01*
X-262791905Y-67174819D02*
X-262744286Y-67651009D01*
X-262744286Y-67651009D02*
X-262791905Y-67603390D01*
X-262791905Y-67603390D02*
X-262887143Y-67555771D01*
X-262887143Y-67555771D02*
X-263125238Y-67555771D01*
X-263125238Y-67555771D02*
X-263220476Y-67603390D01*
X-263220476Y-67603390D02*
X-263268095Y-67651009D01*
X-263268095Y-67651009D02*
X-263315714Y-67746247D01*
X-263315714Y-67746247D02*
X-263315714Y-67984342D01*
X-263315714Y-67984342D02*
X-263268095Y-68079580D01*
X-263268095Y-68079580D02*
X-263220476Y-68127200D01*
X-263220476Y-68127200D02*
X-263125238Y-68174819D01*
X-263125238Y-68174819D02*
X-262887143Y-68174819D01*
X-262887143Y-68174819D02*
X-262791905Y-68127200D01*
X-262791905Y-68127200D02*
X-262744286Y-68079580D01*
X-50836666Y-33854819D02*
X-50836666Y-34569104D01*
X-50836666Y-34569104D02*
X-50789047Y-34711961D01*
X-50789047Y-34711961D02*
X-50693809Y-34807200D01*
X-50693809Y-34807200D02*
X-50550952Y-34854819D01*
X-50550952Y-34854819D02*
X-50455714Y-34854819D01*
X-51836666Y-34854819D02*
X-51265238Y-34854819D01*
X-51550952Y-34854819D02*
X-51550952Y-33854819D01*
X-51550952Y-33854819D02*
X-51455714Y-33997676D01*
X-51455714Y-33997676D02*
X-51360476Y-34092914D01*
X-51360476Y-34092914D02*
X-51265238Y-34140533D01*
D12*
%TO.C,D56*%
X-58055000Y-92322500D02*
X-58055000Y-96332500D01*
X-58055000Y-96332500D02*
X-56055000Y-96332500D01*
X-56055000Y-92322500D02*
X-56055000Y-96332500D01*
%TO.C,D27*%
X-53292500Y-54222500D02*
X-53292500Y-58232500D01*
X-53292500Y-58232500D02*
X-51292500Y-58232500D01*
X-51292500Y-54222500D02*
X-51292500Y-58232500D01*
%TO.C,D6*%
X-148522500Y-30412500D02*
X-148522500Y-34422500D01*
X-148522500Y-34422500D02*
X-146522500Y-34422500D01*
X-146522500Y-30412500D02*
X-146522500Y-34422500D01*
%TO.C,D33*%
X-215217500Y-73272500D02*
X-215217500Y-77282500D01*
X-215217500Y-77282500D02*
X-213217500Y-77282500D01*
X-213217500Y-73272500D02*
X-213217500Y-77282500D01*
%TO.C,D75*%
X-234267500Y-130422500D02*
X-234267500Y-134432500D01*
X-234267500Y-134432500D02*
X-232267500Y-134432500D01*
X-232267500Y-130422500D02*
X-232267500Y-134432500D01*
%TO.C,D18*%
X-224742500Y-54222500D02*
X-224742500Y-58232500D01*
X-224742500Y-58232500D02*
X-222742500Y-58232500D01*
X-222742500Y-54222500D02*
X-222742500Y-58232500D01*
%TO.C,D86*%
X-15192500Y-130422500D02*
X-15192500Y-134432500D01*
X-15192500Y-134432500D02*
X-13192500Y-134432500D01*
X-13192500Y-130422500D02*
X-13192500Y-134432500D01*
%TO.C,D55*%
X-77105000Y-92322500D02*
X-77105000Y-96332500D01*
X-77105000Y-96332500D02*
X-75105000Y-96332500D01*
X-75105000Y-92322500D02*
X-75105000Y-96332500D01*
%TO.C,D58*%
X-250861900Y-111372500D02*
X-250861900Y-115382500D01*
X-250861900Y-115382500D02*
X-248861900Y-115382500D01*
X-248861900Y-111372500D02*
X-248861900Y-115382500D01*
%TO.C,D42*%
X-43767500Y-73272500D02*
X-43767500Y-77282500D01*
X-43767500Y-77282500D02*
X-41767500Y-77282500D01*
X-41767500Y-73272500D02*
X-41767500Y-77282500D01*
%TO.C,D71*%
X-22336000Y-111372500D02*
X-22336000Y-115382500D01*
X-22336000Y-115382500D02*
X-20336000Y-115382500D01*
X-20336000Y-111372500D02*
X-20336000Y-115382500D01*
%TO.C,D20*%
X-186642500Y-54222500D02*
X-186642500Y-58232500D01*
X-186642500Y-58232500D02*
X-184642500Y-58232500D01*
X-184642500Y-54222500D02*
X-184642500Y-58232500D01*
%TO.C,C10*%
X-248535000Y-41018748D02*
X-248535000Y-41541252D01*
X-247065000Y-41018748D02*
X-247065000Y-41541252D01*
%TO.C,D38*%
X-119967500Y-73272500D02*
X-119967500Y-77282500D01*
X-119967500Y-77282500D02*
X-117967500Y-77282500D01*
X-117967500Y-73272500D02*
X-117967500Y-77282500D01*
%TO.C,D64*%
X-162830000Y-111372500D02*
X-162830000Y-115382500D01*
X-162830000Y-115382500D02*
X-160830000Y-115382500D01*
X-160830000Y-111372500D02*
X-160830000Y-115382500D01*
%TO.C,D63*%
X-181880000Y-111372500D02*
X-181880000Y-115382500D01*
X-181880000Y-115382500D02*
X-179880000Y-115382500D01*
X-179880000Y-111372500D02*
X-179880000Y-115382500D01*
%TO.C,D69*%
X-67580000Y-111372500D02*
X-67580000Y-115382500D01*
X-67580000Y-115382500D02*
X-65580000Y-115382500D01*
X-65580000Y-111372500D02*
X-65580000Y-115382500D01*
%TO.C,D17*%
X-243792500Y-54222500D02*
X-243792500Y-58232500D01*
X-243792500Y-58232500D02*
X-241792500Y-58232500D01*
X-241792500Y-54222500D02*
X-241792500Y-58232500D01*
%TO.C,D11*%
X-43772500Y-30412500D02*
X-43772500Y-34422500D01*
X-43772500Y-34422500D02*
X-41772500Y-34422500D01*
X-41772500Y-30412500D02*
X-41772500Y-34422500D01*
%TO.C,D60*%
X22907500Y-92322500D02*
X22907500Y-96332500D01*
X22907500Y-96332500D02*
X24907500Y-96332500D01*
X24907500Y-92322500D02*
X24907500Y-96332500D01*
%TO.C,C6*%
X-261288748Y-80295000D02*
X-261811252Y-80295000D01*
X-261288748Y-81765000D02*
X-261811252Y-81765000D01*
%TO.C,Ud1*%
X-243120000Y-80100000D02*
X-242670000Y-80100000D01*
X-243120000Y-80550000D02*
X-243120000Y-80100000D01*
X-243120000Y-86870000D02*
X-243120000Y-87320000D01*
X-243120000Y-87320000D02*
X-242670000Y-87320000D01*
X-235900000Y-80100000D02*
X-236350000Y-80100000D01*
X-235900000Y-80550000D02*
X-235900000Y-80100000D01*
X-235900000Y-86870000D02*
X-235900000Y-87320000D01*
X-235900000Y-87320000D02*
X-236350000Y-87320000D01*
X-235310000Y-80550000D02*
X-235650000Y-80080000D01*
X-234970000Y-80080000D01*
X-235310000Y-80550000D01*
G36*
X-235310000Y-80550000D02*
G01*
X-235650000Y-80080000D01*
X-234970000Y-80080000D01*
X-235310000Y-80550000D01*
G37*
%TO.C,D52*%
X-134255000Y-92322500D02*
X-134255000Y-96332500D01*
X-134255000Y-96332500D02*
X-132255000Y-96332500D01*
X-132255000Y-92322500D02*
X-132255000Y-96332500D01*
%TO.C,D21*%
X-167592500Y-54222500D02*
X-167592500Y-58232500D01*
X-167592500Y-58232500D02*
X-165592500Y-58232500D01*
X-165592500Y-54222500D02*
X-165592500Y-58232500D01*
%TO.C,D50*%
X-172355000Y-92322500D02*
X-172355000Y-96332500D01*
X-172355000Y-96332500D02*
X-170355000Y-96332500D01*
X-170355000Y-92322500D02*
X-170355000Y-96332500D01*
%TO.C,D9*%
X-91372500Y-30412500D02*
X-91372500Y-34422500D01*
X-91372500Y-34422500D02*
X-89372500Y-34422500D01*
X-89372500Y-30412500D02*
X-89372500Y-34422500D01*
%TO.C,D67*%
X-105680000Y-111372500D02*
X-105680000Y-115382500D01*
X-105680000Y-115382500D02*
X-103680000Y-115382500D01*
X-103680000Y-111372500D02*
X-103680000Y-115382500D01*
%TO.C,D57*%
X-39005000Y-92322500D02*
X-39005000Y-96332500D01*
X-39005000Y-96332500D02*
X-37005000Y-96332500D01*
X-37005000Y-92322500D02*
X-37005000Y-96332500D01*
%TO.C,D4*%
X-196162500Y-30402500D02*
X-196162500Y-34412500D01*
X-196162500Y-34412500D02*
X-194162500Y-34412500D01*
X-194162500Y-30402500D02*
X-194162500Y-34412500D01*
%TO.C,D25*%
X-91392500Y-54222500D02*
X-91392500Y-58232500D01*
X-91392500Y-58232500D02*
X-89392500Y-58232500D01*
X-89392500Y-54222500D02*
X-89392500Y-58232500D01*
%TO.C,D70*%
X-48530000Y-111372500D02*
X-48530000Y-115382500D01*
X-48530000Y-115382500D02*
X-46530000Y-115382500D01*
X-46530000Y-111372500D02*
X-46530000Y-115382500D01*
%TO.C,D68*%
X-86630000Y-111372500D02*
X-86630000Y-115382500D01*
X-86630000Y-115382500D02*
X-84630000Y-115382500D01*
X-84630000Y-111372500D02*
X-84630000Y-115382500D01*
%TO.C,D40*%
X-81867500Y-73272500D02*
X-81867500Y-77282500D01*
X-81867500Y-77282500D02*
X-79867500Y-77282500D01*
X-79867500Y-73272500D02*
X-79867500Y-77282500D01*
%TO.C,U2*%
X-262410000Y-59540000D02*
X-258650000Y-59540000D01*
X-262410000Y-60800000D02*
X-262410000Y-59540000D01*
X-262410000Y-65100000D02*
X-262410000Y-66360000D01*
X-262410000Y-66360000D02*
X-258650000Y-66360000D01*
X-257370000Y-59640000D02*
X-257610000Y-59310000D01*
X-257130000Y-59310000D01*
X-257370000Y-59640000D01*
G36*
X-257370000Y-59640000D02*
G01*
X-257610000Y-59310000D01*
X-257130000Y-59310000D01*
X-257370000Y-59640000D01*
G37*
%TO.C,D53*%
X-115205000Y-92322500D02*
X-115205000Y-96332500D01*
X-115205000Y-96332500D02*
X-113205000Y-96332500D01*
X-113205000Y-92322500D02*
X-113205000Y-96332500D01*
%TO.C,D36*%
X-158067500Y-73272500D02*
X-158067500Y-77282500D01*
X-158067500Y-77282500D02*
X-156067500Y-77282500D01*
X-156067500Y-73272500D02*
X-156067500Y-77282500D01*
%TO.C,D49*%
X-191405000Y-92322500D02*
X-191405000Y-96332500D01*
X-191405000Y-96332500D02*
X-189405000Y-96332500D01*
X-189405000Y-92322500D02*
X-189405000Y-96332500D01*
%TO.C,D87*%
X3857500Y-130422500D02*
X3857500Y-134432500D01*
X3857500Y-134432500D02*
X5857500Y-134432500D01*
X5857500Y-130422500D02*
X5857500Y-134432500D01*
%TO.C,D59*%
X-7974400Y-92322500D02*
X-7974400Y-96332500D01*
X-7974400Y-96332500D02*
X-5974400Y-96332500D01*
X-5974400Y-92322500D02*
X-5974400Y-96332500D01*
%TO.C,D1*%
X-262842500Y-30410000D02*
X-262842500Y-34420000D01*
X-262842500Y-34420000D02*
X-260842500Y-34420000D01*
X-260842500Y-30410000D02*
X-260842500Y-34420000D01*
%TO.C,D34*%
X-196167500Y-73272500D02*
X-196167500Y-77282500D01*
X-196167500Y-77282500D02*
X-194167500Y-77282500D01*
X-194167500Y-73272500D02*
X-194167500Y-77282500D01*
%TO.C,D44*%
X-904500Y-73272500D02*
X-904500Y-77282500D01*
X-904500Y-77282500D02*
X1095500Y-77282500D01*
X1095500Y-73272500D02*
X1095500Y-77282500D01*
%TO.C,D73*%
X3857500Y-111372500D02*
X3857500Y-115382500D01*
X3857500Y-115382500D02*
X5857500Y-115382500D01*
X5857500Y-111372500D02*
X5857500Y-115382500D01*
%TO.C,D45*%
X22907500Y-73272500D02*
X22907500Y-77282500D01*
X22907500Y-77282500D02*
X24907500Y-77282500D01*
X24907500Y-73272500D02*
X24907500Y-77282500D01*
%TO.C,D41*%
X-62817500Y-73272500D02*
X-62817500Y-77282500D01*
X-62817500Y-77282500D02*
X-60817500Y-77282500D01*
X-60817500Y-73272500D02*
X-60817500Y-77282500D01*
%TO.C,D10*%
X-62822500Y-30412500D02*
X-62822500Y-34422500D01*
X-62822500Y-34422500D02*
X-60822500Y-34422500D01*
X-60822500Y-30412500D02*
X-60822500Y-34422500D01*
%TO.C,D5*%
X-177112500Y-30402500D02*
X-177112500Y-34412500D01*
X-177112500Y-34412500D02*
X-175112500Y-34412500D01*
X-175112500Y-30402500D02*
X-175112500Y-34412500D01*
%TO.C,U3*%
X-59460000Y-37462500D02*
X-59460000Y-38262500D01*
X-59460000Y-39062500D02*
X-59460000Y-38262500D01*
X-56340000Y-37462500D02*
X-56340000Y-38262500D01*
X-56340000Y-39062500D02*
X-56340000Y-38262500D01*
X-56060000Y-39802500D02*
X-56390000Y-39562500D01*
X-56060000Y-39322500D01*
X-56060000Y-39802500D01*
G36*
X-56060000Y-39802500D02*
G01*
X-56390000Y-39562500D01*
X-56060000Y-39322500D01*
X-56060000Y-39802500D01*
G37*
%TO.C,C2*%
X-248135000Y-75401252D02*
X-248135000Y-74878748D01*
X-246665000Y-75401252D02*
X-246665000Y-74878748D01*
%TO.C,D12*%
X-24722500Y-30412500D02*
X-24722500Y-34422500D01*
X-24722500Y-34422500D02*
X-22722500Y-34422500D01*
X-22722500Y-30412500D02*
X-22722500Y-34422500D01*
%TO.C,D23*%
X-129492500Y-54222500D02*
X-129492500Y-58232500D01*
X-129492500Y-58232500D02*
X-127492500Y-58232500D01*
X-127492500Y-54222500D02*
X-127492500Y-58232500D01*
%TO.C,C1*%
X-261288748Y-82255000D02*
X-261811252Y-82255000D01*
X-261288748Y-83725000D02*
X-261811252Y-83725000D01*
%TO.C,D30*%
X22907500Y-54222500D02*
X22907500Y-58232500D01*
X22907500Y-58232500D02*
X24907500Y-58232500D01*
X24907500Y-54222500D02*
X24907500Y-58232500D01*
%TO.C,D72*%
X-258079500Y-130422500D02*
X-258079500Y-134432500D01*
X-258079500Y-134432500D02*
X-256079500Y-134432500D01*
X-256079500Y-130422500D02*
X-256079500Y-134432500D01*
%TO.C,D29*%
X-5667500Y-54222500D02*
X-5667500Y-58232500D01*
X-5667500Y-58232500D02*
X-3667500Y-58232500D01*
X-3667500Y-54222500D02*
X-3667500Y-58232500D01*
%TO.C,D39*%
X-100917500Y-73272500D02*
X-100917500Y-77282500D01*
X-100917500Y-77282500D02*
X-98917500Y-77282500D01*
X-98917500Y-73272500D02*
X-98917500Y-77282500D01*
%TO.C,D54*%
X-96155000Y-92322500D02*
X-96155000Y-96332500D01*
X-96155000Y-96332500D02*
X-94155000Y-96332500D01*
X-94155000Y-92322500D02*
X-94155000Y-96332500D01*
%TO.C,D74*%
X22907500Y-111372500D02*
X22907500Y-115382500D01*
X22907500Y-115382500D02*
X24907500Y-115382500D01*
X24907500Y-111372500D02*
X24907500Y-115382500D01*
%TO.C,D62*%
X-200930000Y-111372500D02*
X-200930000Y-115382500D01*
X-200930000Y-115382500D02*
X-198930000Y-115382500D01*
X-198930000Y-111372500D02*
X-198930000Y-115382500D01*
%TO.C,C8*%
X-231801252Y-94765000D02*
X-231278748Y-94765000D01*
X-231801252Y-96235000D02*
X-231278748Y-96235000D01*
%TO.C,D22*%
X-148542500Y-54222500D02*
X-148542500Y-58232500D01*
X-148542500Y-58232500D02*
X-146542500Y-58232500D01*
X-146542500Y-54222500D02*
X-146542500Y-58232500D01*
%TO.C,D2*%
X-234262500Y-30402500D02*
X-234262500Y-34412500D01*
X-234262500Y-34412500D02*
X-232262500Y-34412500D01*
X-232262500Y-30402500D02*
X-232262500Y-34412500D01*
%TO.C,D76*%
X-210454500Y-130422500D02*
X-210454500Y-134432500D01*
X-210454500Y-134432500D02*
X-208454500Y-134432500D01*
X-208454500Y-130422500D02*
X-208454500Y-134432500D01*
%TO.C,C7*%
X-246175000Y-75401252D02*
X-246175000Y-74878748D01*
X-244705000Y-75401252D02*
X-244705000Y-74878748D01*
%TO.C,D88*%
X22907500Y-130422500D02*
X22907500Y-134432500D01*
X22907500Y-134432500D02*
X24907500Y-134432500D01*
X24907500Y-130422500D02*
X24907500Y-134432500D01*
%TO.C,D51*%
X-153305000Y-92322500D02*
X-153305000Y-96332500D01*
X-153305000Y-96332500D02*
X-151305000Y-96332500D01*
X-151305000Y-92322500D02*
X-151305000Y-96332500D01*
%TO.C,D48*%
X-210455000Y-92322500D02*
X-210455000Y-96332500D01*
X-210455000Y-96332500D02*
X-208455000Y-96332500D01*
X-208455000Y-92322500D02*
X-208455000Y-96332500D01*
%TO.C,D28*%
X-34242500Y-54222500D02*
X-34242500Y-58232500D01*
X-34242500Y-58232500D02*
X-32242500Y-58232500D01*
X-32242500Y-54222500D02*
X-32242500Y-58232500D01*
%TO.C,C4*%
X-246248748Y-94765000D02*
X-246771252Y-94765000D01*
X-246248748Y-96235000D02*
X-246771252Y-96235000D01*
%TO.C,C3*%
X-231801252Y-92805000D02*
X-231278748Y-92805000D01*
X-231801252Y-94275000D02*
X-231278748Y-94275000D01*
%TO.C,D65*%
X-143780000Y-111372500D02*
X-143780000Y-115382500D01*
X-143780000Y-115382500D02*
X-141780000Y-115382500D01*
X-141780000Y-111372500D02*
X-141780000Y-115382500D01*
%TO.C,D80*%
X-129502500Y-130420000D02*
X-129502500Y-134430000D01*
X-129502500Y-134430000D02*
X-127502500Y-134430000D01*
X-127502500Y-130420000D02*
X-127502500Y-134430000D01*
%TO.C,D47*%
X-229505000Y-92322500D02*
X-229505000Y-96332500D01*
X-229505000Y-96332500D02*
X-227505000Y-96332500D01*
X-227505000Y-92322500D02*
X-227505000Y-96332500D01*
%TO.C,C9*%
X-246248748Y-92805000D02*
X-246771252Y-92805000D01*
X-246248748Y-94275000D02*
X-246771252Y-94275000D01*
%TO.C,D7*%
X-129472500Y-30412500D02*
X-129472500Y-34422500D01*
X-129472500Y-34422500D02*
X-127472500Y-34422500D01*
X-127472500Y-30412500D02*
X-127472500Y-34422500D01*
%TO.C,D35*%
X-177117500Y-73272500D02*
X-177117500Y-77282500D01*
X-177117500Y-77282500D02*
X-175117500Y-77282500D01*
X-175117500Y-73272500D02*
X-175117500Y-77282500D01*
%TO.C,D37*%
X-139017500Y-73272500D02*
X-139017500Y-77282500D01*
X-139017500Y-77282500D02*
X-137017500Y-77282500D01*
X-137017500Y-73272500D02*
X-137017500Y-77282500D01*
%TO.C,D46*%
X-260400000Y-92322500D02*
X-260400000Y-96332500D01*
X-260400000Y-96332500D02*
X-258400000Y-96332500D01*
X-258400000Y-92322500D02*
X-258400000Y-96332500D01*
%TO.C,D24*%
X-110442500Y-54222500D02*
X-110442500Y-58232500D01*
X-110442500Y-58232500D02*
X-108442500Y-58232500D01*
X-108442500Y-54222500D02*
X-108442500Y-58232500D01*
%TO.C,D31*%
X-258079500Y-73272500D02*
X-258079500Y-77282500D01*
X-258079500Y-77282500D02*
X-256079500Y-77282500D01*
X-256079500Y-73272500D02*
X-256079500Y-77282500D01*
%TO.C,D13*%
X-5672500Y-30412500D02*
X-5672500Y-34422500D01*
X-5672500Y-34422500D02*
X-3672500Y-34422500D01*
X-3672500Y-30412500D02*
X-3672500Y-34422500D01*
%TO.C,D19*%
X-205692500Y-54222500D02*
X-205692500Y-58232500D01*
X-205692500Y-58232500D02*
X-203692500Y-58232500D01*
X-203692500Y-54222500D02*
X-203692500Y-58232500D01*
%TO.C,D66*%
X-124730000Y-111372500D02*
X-124730000Y-115382500D01*
X-124730000Y-115382500D02*
X-122730000Y-115382500D01*
X-122730000Y-111372500D02*
X-122730000Y-115382500D01*
%TO.C,D32*%
X-234267500Y-73272500D02*
X-234267500Y-77282500D01*
X-234267500Y-77282500D02*
X-232267500Y-77282500D01*
X-232267500Y-73272500D02*
X-232267500Y-77282500D01*
%TO.C,R1*%
X-251427064Y-36875000D02*
X-250972936Y-36875000D01*
X-251427064Y-38345000D02*
X-250972936Y-38345000D01*
%TO.C,D8*%
X-110422500Y-30412500D02*
X-110422500Y-34422500D01*
X-110422500Y-34422500D02*
X-108422500Y-34422500D01*
X-108422500Y-30412500D02*
X-108422500Y-34422500D01*
%TO.C,D84*%
X-48529500Y-130422500D02*
X-48529500Y-134432500D01*
X-48529500Y-134432500D02*
X-46529500Y-134432500D01*
X-46529500Y-130422500D02*
X-46529500Y-134432500D01*
%TO.C,C5*%
X-263121252Y-66925000D02*
X-262598748Y-66925000D01*
X-263121252Y-68395000D02*
X-262598748Y-68395000D01*
%TO.C,D26*%
X-72342500Y-54222500D02*
X-72342500Y-58232500D01*
X-72342500Y-58232500D02*
X-70342500Y-58232500D01*
X-70342500Y-54222500D02*
X-70342500Y-58232500D01*
%TO.C,D43*%
X-24717500Y-73272500D02*
X-24717500Y-77282500D01*
X-24717500Y-77282500D02*
X-22717500Y-77282500D01*
X-22717500Y-73272500D02*
X-22717500Y-77282500D01*
%TO.C,D16*%
X-262842500Y-54222500D02*
X-262842500Y-58232500D01*
X-262842500Y-58232500D02*
X-260842500Y-58232500D01*
X-260842500Y-54222500D02*
X-260842500Y-58232500D01*
%TO.C,D3*%
X-215212500Y-30402500D02*
X-215212500Y-34412500D01*
X-215212500Y-34412500D02*
X-213212500Y-34412500D01*
X-213212500Y-30402500D02*
X-213212500Y-34412500D01*
%TO.C,D61*%
X-219980000Y-111372500D02*
X-219980000Y-115382500D01*
X-219980000Y-115382500D02*
X-217980000Y-115382500D01*
X-217980000Y-111372500D02*
X-217980000Y-115382500D01*
%TO.C,J1*%
X-54280000Y-36595000D02*
X-54280000Y-39095000D01*
X-53230000Y-36595000D02*
X-54280000Y-36595000D01*
X-53110000Y-41065000D02*
X-49230000Y-41065000D01*
X-49110000Y-35605000D02*
X-49110000Y-36595000D01*
X-49110000Y-36595000D02*
X-48060000Y-36595000D01*
X-48060000Y-36595000D02*
X-48060000Y-39095000D01*
%TD*%
M02*
