%TF.GenerationSoftware,KiCad,Pcbnew,8.99.0-829-g0984af1676*%
%TF.CreationDate,2024-04-27T09:25:56+07:00*%
%TF.ProjectId,Nuxros75,4e757872-6f73-4373-952e-6b696361645f,rev?*%
%TF.SameCoordinates,Original*%
%TF.FileFunction,Drillmap*%
%TF.FilePolarity,Positive*%
%FSLAX45Y45*%
G04 Gerber Fmt 4.5, Leading zero omitted, Abs format (unit mm)*
G04 Created by KiCad (PCBNEW 8.99.0-829-g0984af1676) date 2024-04-27 09:25:56*
%MOMM*%
%LPD*%
G01*
G04 APERTURE LIST*
%ADD10C,0.050000*%
%ADD11C,0.200000*%
%ADD12C,0.170000*%
%ADD13C,0.304800*%
%ADD14C,0.398780*%
%ADD15C,0.400000*%
G04 APERTURE END LIST*
D10*
X-26600000Y-2520000D02*
X-26600000Y-13400000D01*
X-26300000Y-2220000D02*
X3150000Y-2220000D01*
X-17990000Y-13700000D02*
G75*
G02*
X-18490000Y-13700000I-250000J40000D01*
G01*
X3460000Y-13400000D02*
G75*
G02*
X3160000Y-13700000I-300000J0D01*
G01*
X-26600000Y-2520000D02*
G75*
G02*
X-26300000Y-2220000I300000J0D01*
G01*
X-26300000Y-13700000D02*
G75*
G02*
X-26600000Y-13400000I0J300000D01*
G01*
X3450000Y-2520000D02*
X3460000Y-13400000D01*
X-26300000Y-13700000D02*
X-18490000Y-13700000D01*
X3150000Y-2220000D02*
G75*
G02*
X3450000Y-2520000I0J-300000D01*
G01*
X-7060000Y-13700000D02*
X-17990000Y-13700000D01*
X3160000Y-13700000D02*
X-6560000Y-13700000D01*
X-6560000Y-13700000D02*
G75*
G02*
X-7060000Y-13700000I-250000J50000D01*
G01*
D11*
D12*
X-26457000Y-2874000D02*
X-26287000Y-3044000D01*
X-26287000Y-2874000D02*
X-26457000Y-3044000D01*
X-26456000Y-5258000D02*
X-26286000Y-5428000D01*
X-26286000Y-5258000D02*
X-26456000Y-5428000D01*
X-26217900Y-9068000D02*
X-26047900Y-9238000D01*
X-26047900Y-9068000D02*
X-26217900Y-9238000D01*
X-25979700Y-7163000D02*
X-25809700Y-7333000D01*
X-25809700Y-7163000D02*
X-25979700Y-7333000D01*
X-25979700Y-12878000D02*
X-25809700Y-13048000D01*
X-25809700Y-12878000D02*
X-25979700Y-13048000D01*
X-25741600Y-9068000D02*
X-25571600Y-9238000D01*
X-25571600Y-9068000D02*
X-25741600Y-9238000D01*
X-25441000Y-2874000D02*
X-25271000Y-3044000D01*
X-25271000Y-2874000D02*
X-25441000Y-3044000D01*
X-25440000Y-5258000D02*
X-25270000Y-5428000D01*
X-25270000Y-5258000D02*
X-25440000Y-5428000D01*
X-25257940Y-10973000D02*
X-25087940Y-11143000D01*
X-25087940Y-10973000D02*
X-25257940Y-11143000D01*
X-25201900Y-9068000D02*
X-25031900Y-9238000D01*
X-25031900Y-9068000D02*
X-25201900Y-9238000D01*
X-24963700Y-7163000D02*
X-24793700Y-7333000D01*
X-24793700Y-7163000D02*
X-24963700Y-7333000D01*
X-24963700Y-12878000D02*
X-24793700Y-13048000D01*
X-24793700Y-12878000D02*
X-24963700Y-13048000D01*
X-24725600Y-9068000D02*
X-24555600Y-9238000D01*
X-24555600Y-9068000D02*
X-24725600Y-9238000D01*
X-24551000Y-5258000D02*
X-24381000Y-5428000D01*
X-24381000Y-5258000D02*
X-24551000Y-5428000D01*
X-24241940Y-10973000D02*
X-24071940Y-11143000D01*
X-24071940Y-10973000D02*
X-24241940Y-11143000D01*
X-23598500Y-7163000D02*
X-23428500Y-7333000D01*
X-23428500Y-7163000D02*
X-23598500Y-7333000D01*
X-23598500Y-12878000D02*
X-23428500Y-13048000D01*
X-23428500Y-12878000D02*
X-23598500Y-13048000D01*
X-23598000Y-2876000D02*
X-23428000Y-3046000D01*
X-23428000Y-2876000D02*
X-23598000Y-3046000D01*
X-23535000Y-5258000D02*
X-23365000Y-5428000D01*
X-23365000Y-5258000D02*
X-23535000Y-5428000D01*
X-23122250Y-9068000D02*
X-22952250Y-9238000D01*
X-22952250Y-9068000D02*
X-23122250Y-9238000D01*
X-22646000Y-5258000D02*
X-22476000Y-5428000D01*
X-22476000Y-5258000D02*
X-22646000Y-5428000D01*
X-22582500Y-7163000D02*
X-22412500Y-7333000D01*
X-22412500Y-7163000D02*
X-22582500Y-7333000D01*
X-22582500Y-12878000D02*
X-22412500Y-13048000D01*
X-22412500Y-12878000D02*
X-22582500Y-13048000D01*
X-22582000Y-2876000D02*
X-22412000Y-3046000D01*
X-22412000Y-2876000D02*
X-22582000Y-3046000D01*
X-22169750Y-10973000D02*
X-21999750Y-11143000D01*
X-21999750Y-10973000D02*
X-22169750Y-11143000D01*
X-22106250Y-9068000D02*
X-21936250Y-9238000D01*
X-21936250Y-9068000D02*
X-22106250Y-9238000D01*
X-21693500Y-7163000D02*
X-21523500Y-7333000D01*
X-21523500Y-7163000D02*
X-21693500Y-7333000D01*
X-21693000Y-2876000D02*
X-21523000Y-3046000D01*
X-21523000Y-2876000D02*
X-21693000Y-3046000D01*
X-21630000Y-5258000D02*
X-21460000Y-5428000D01*
X-21460000Y-5258000D02*
X-21630000Y-5428000D01*
X-21217250Y-9068000D02*
X-21047250Y-9238000D01*
X-21047250Y-9068000D02*
X-21217250Y-9238000D01*
X-21217200Y-12878000D02*
X-21047200Y-13048000D01*
X-21047200Y-12878000D02*
X-21217200Y-13048000D01*
X-21153750Y-10973000D02*
X-20983750Y-11143000D01*
X-20983750Y-10973000D02*
X-21153750Y-11143000D01*
X-20741000Y-5258000D02*
X-20571000Y-5428000D01*
X-20571000Y-5258000D02*
X-20741000Y-5428000D01*
X-20677500Y-7163000D02*
X-20507500Y-7333000D01*
X-20507500Y-7163000D02*
X-20677500Y-7333000D01*
X-20677000Y-2876000D02*
X-20507000Y-3046000D01*
X-20507000Y-2876000D02*
X-20677000Y-3046000D01*
X-20264750Y-10973000D02*
X-20094750Y-11143000D01*
X-20094750Y-10973000D02*
X-20264750Y-11143000D01*
X-20201250Y-9068000D02*
X-20031250Y-9238000D01*
X-20031250Y-9068000D02*
X-20201250Y-9238000D01*
X-20201200Y-12878000D02*
X-20031200Y-13048000D01*
X-20031200Y-12878000D02*
X-20201200Y-13048000D01*
X-19788500Y-7163000D02*
X-19618500Y-7333000D01*
X-19618500Y-7163000D02*
X-19788500Y-7333000D01*
X-19788000Y-2876000D02*
X-19618000Y-3046000D01*
X-19618000Y-2876000D02*
X-19788000Y-3046000D01*
X-19725000Y-5258000D02*
X-19555000Y-5428000D01*
X-19555000Y-5258000D02*
X-19725000Y-5428000D01*
X-19312250Y-9068000D02*
X-19142250Y-9238000D01*
X-19142250Y-9068000D02*
X-19312250Y-9238000D01*
X-19248750Y-10973000D02*
X-19078750Y-11143000D01*
X-19078750Y-10973000D02*
X-19248750Y-11143000D01*
X-18836000Y-5258000D02*
X-18666000Y-5428000D01*
X-18666000Y-5258000D02*
X-18836000Y-5428000D01*
X-18772500Y-7163000D02*
X-18602500Y-7333000D01*
X-18602500Y-7163000D02*
X-18772500Y-7333000D01*
X-18772000Y-2876000D02*
X-18602000Y-3046000D01*
X-18602000Y-2876000D02*
X-18772000Y-3046000D01*
X-18359750Y-10973000D02*
X-18189750Y-11143000D01*
X-18189750Y-10973000D02*
X-18359750Y-11143000D01*
X-18296250Y-9068000D02*
X-18126250Y-9238000D01*
X-18126250Y-9068000D02*
X-18296250Y-9238000D01*
X-17883500Y-7163000D02*
X-17713500Y-7333000D01*
X-17713500Y-7163000D02*
X-17883500Y-7333000D01*
X-17883000Y-2876000D02*
X-17713000Y-3046000D01*
X-17713000Y-2876000D02*
X-17883000Y-3046000D01*
X-17820000Y-5258000D02*
X-17650000Y-5428000D01*
X-17650000Y-5258000D02*
X-17820000Y-5428000D01*
X-17407250Y-9068000D02*
X-17237250Y-9238000D01*
X-17237250Y-9068000D02*
X-17407250Y-9238000D01*
X-17343750Y-10973000D02*
X-17173750Y-11143000D01*
X-17173750Y-10973000D02*
X-17343750Y-11143000D01*
X-16931000Y-5258000D02*
X-16761000Y-5428000D01*
X-16761000Y-5258000D02*
X-16931000Y-5428000D01*
X-16867500Y-7163000D02*
X-16697500Y-7333000D01*
X-16697500Y-7163000D02*
X-16867500Y-7333000D01*
X-16867000Y-2876000D02*
X-16697000Y-3046000D01*
X-16697000Y-2876000D02*
X-16867000Y-3046000D01*
X-16454750Y-10973000D02*
X-16284750Y-11143000D01*
X-16284750Y-10973000D02*
X-16454750Y-11143000D01*
X-16391250Y-9068000D02*
X-16221250Y-9238000D01*
X-16221250Y-9068000D02*
X-16391250Y-9238000D01*
X-15978500Y-7163000D02*
X-15808500Y-7333000D01*
X-15808500Y-7163000D02*
X-15978500Y-7333000D01*
X-15915000Y-5258000D02*
X-15745000Y-5428000D01*
X-15745000Y-5258000D02*
X-15915000Y-5428000D01*
X-15502250Y-9068000D02*
X-15332250Y-9238000D01*
X-15332250Y-9068000D02*
X-15502250Y-9238000D01*
X-15438750Y-10973000D02*
X-15268750Y-11143000D01*
X-15268750Y-10973000D02*
X-15438750Y-11143000D01*
X-15026000Y-5258000D02*
X-14856000Y-5428000D01*
X-14856000Y-5258000D02*
X-15026000Y-5428000D01*
X-15024000Y-2877000D02*
X-14854000Y-3047000D01*
X-14854000Y-2877000D02*
X-15024000Y-3047000D01*
X-14962500Y-7163000D02*
X-14792500Y-7333000D01*
X-14792500Y-7163000D02*
X-14962500Y-7333000D01*
X-14549750Y-10973000D02*
X-14379750Y-11143000D01*
X-14379750Y-10973000D02*
X-14549750Y-11143000D01*
X-14486250Y-9068000D02*
X-14316250Y-9238000D01*
X-14316250Y-9068000D02*
X-14486250Y-9238000D01*
X-14073500Y-7163000D02*
X-13903500Y-7333000D01*
X-13903500Y-7163000D02*
X-14073500Y-7333000D01*
X-14010000Y-5258000D02*
X-13840000Y-5428000D01*
X-13840000Y-5258000D02*
X-14010000Y-5428000D01*
X-14008000Y-2877000D02*
X-13838000Y-3047000D01*
X-13838000Y-2877000D02*
X-14008000Y-3047000D01*
X-13597250Y-9068000D02*
X-13427250Y-9238000D01*
X-13427250Y-9068000D02*
X-13597250Y-9238000D01*
X-13533750Y-10973000D02*
X-13363750Y-11143000D01*
X-13363750Y-10973000D02*
X-13533750Y-11143000D01*
X-13121000Y-5258000D02*
X-12951000Y-5428000D01*
X-12951000Y-5258000D02*
X-13121000Y-5428000D01*
X-13120000Y-12879250D02*
X-12950000Y-13049250D01*
X-12950000Y-12879250D02*
X-13120000Y-13049250D01*
X-13119000Y-2877000D02*
X-12949000Y-3047000D01*
X-12949000Y-2877000D02*
X-13119000Y-3047000D01*
X-13057500Y-7163000D02*
X-12887500Y-7333000D01*
X-12887500Y-7163000D02*
X-13057500Y-7333000D01*
X-12644750Y-10973000D02*
X-12474750Y-11143000D01*
X-12474750Y-10973000D02*
X-12644750Y-11143000D01*
X-12581250Y-9068000D02*
X-12411250Y-9238000D01*
X-12411250Y-9068000D02*
X-12581250Y-9238000D01*
X-12168500Y-7163000D02*
X-11998500Y-7333000D01*
X-11998500Y-7163000D02*
X-12168500Y-7333000D01*
X-12105000Y-5258000D02*
X-11935000Y-5428000D01*
X-11935000Y-5258000D02*
X-12105000Y-5428000D01*
X-12104000Y-12879250D02*
X-11934000Y-13049250D01*
X-11934000Y-12879250D02*
X-12104000Y-13049250D01*
X-12103000Y-2877000D02*
X-11933000Y-3047000D01*
X-11933000Y-2877000D02*
X-12103000Y-3047000D01*
X-11692250Y-9068000D02*
X-11522250Y-9238000D01*
X-11522250Y-9068000D02*
X-11692250Y-9238000D01*
X-11628750Y-10973000D02*
X-11458750Y-11143000D01*
X-11458750Y-10973000D02*
X-11628750Y-11143000D01*
X-11216000Y-5258000D02*
X-11046000Y-5428000D01*
X-11046000Y-5258000D02*
X-11216000Y-5428000D01*
X-11214000Y-2877000D02*
X-11044000Y-3047000D01*
X-11044000Y-2877000D02*
X-11214000Y-3047000D01*
X-11152500Y-7163000D02*
X-10982500Y-7333000D01*
X-10982500Y-7163000D02*
X-11152500Y-7333000D01*
X-10739750Y-10973000D02*
X-10569750Y-11143000D01*
X-10569750Y-10973000D02*
X-10739750Y-11143000D01*
X-10676250Y-9068000D02*
X-10506250Y-9238000D01*
X-10506250Y-9068000D02*
X-10676250Y-9238000D01*
X-10263500Y-7163000D02*
X-10093500Y-7333000D01*
X-10093500Y-7163000D02*
X-10263500Y-7333000D01*
X-10200000Y-5258000D02*
X-10030000Y-5428000D01*
X-10030000Y-5258000D02*
X-10200000Y-5428000D01*
X-10198000Y-2877000D02*
X-10028000Y-3047000D01*
X-10028000Y-2877000D02*
X-10198000Y-3047000D01*
X-9787250Y-9068000D02*
X-9617250Y-9238000D01*
X-9617250Y-9068000D02*
X-9787250Y-9238000D01*
X-9723750Y-10973000D02*
X-9553750Y-11143000D01*
X-9553750Y-10973000D02*
X-9723750Y-11143000D01*
X-9311000Y-5258000D02*
X-9141000Y-5428000D01*
X-9141000Y-5258000D02*
X-9311000Y-5428000D01*
X-9309000Y-2877000D02*
X-9139000Y-3047000D01*
X-9139000Y-2877000D02*
X-9309000Y-3047000D01*
X-9247500Y-7163000D02*
X-9077500Y-7333000D01*
X-9077500Y-7163000D02*
X-9247500Y-7333000D01*
X-8834750Y-10973000D02*
X-8664750Y-11143000D01*
X-8664750Y-10973000D02*
X-8834750Y-11143000D01*
X-8771250Y-9068000D02*
X-8601250Y-9238000D01*
X-8601250Y-9068000D02*
X-8771250Y-9238000D01*
X-8358500Y-7163000D02*
X-8188500Y-7333000D01*
X-8188500Y-7163000D02*
X-8358500Y-7333000D01*
X-8295000Y-5258000D02*
X-8125000Y-5428000D01*
X-8125000Y-5258000D02*
X-8295000Y-5428000D01*
X-8293000Y-2877000D02*
X-8123000Y-3047000D01*
X-8123000Y-2877000D02*
X-8293000Y-3047000D01*
X-7882250Y-9068000D02*
X-7712250Y-9238000D01*
X-7712250Y-9068000D02*
X-7882250Y-9238000D01*
X-7818750Y-10973000D02*
X-7648750Y-11143000D01*
X-7648750Y-10973000D02*
X-7818750Y-11143000D01*
X-7406000Y-5258000D02*
X-7236000Y-5428000D01*
X-7236000Y-5258000D02*
X-7406000Y-5428000D01*
X-7342500Y-7163000D02*
X-7172500Y-7333000D01*
X-7172500Y-7163000D02*
X-7342500Y-7333000D01*
X-6929750Y-10973000D02*
X-6759750Y-11143000D01*
X-6759750Y-10973000D02*
X-6929750Y-11143000D01*
X-6866250Y-9068000D02*
X-6696250Y-9238000D01*
X-6696250Y-9068000D02*
X-6866250Y-9238000D01*
X-6454000Y-2877000D02*
X-6284000Y-3047000D01*
X-6284000Y-2877000D02*
X-6454000Y-3047000D01*
X-6453500Y-7163000D02*
X-6283500Y-7333000D01*
X-6283500Y-7163000D02*
X-6453500Y-7333000D01*
X-6390000Y-5258000D02*
X-6220000Y-5428000D01*
X-6220000Y-5258000D02*
X-6390000Y-5428000D01*
X-5977250Y-9068000D02*
X-5807250Y-9238000D01*
X-5807250Y-9068000D02*
X-5977250Y-9238000D01*
X-5913750Y-10973000D02*
X-5743750Y-11143000D01*
X-5743750Y-10973000D02*
X-5913750Y-11143000D01*
X-5501000Y-5258000D02*
X-5331000Y-5428000D01*
X-5331000Y-5258000D02*
X-5501000Y-5428000D01*
X-5438000Y-2877000D02*
X-5268000Y-3047000D01*
X-5268000Y-2877000D02*
X-5438000Y-3047000D01*
X-5437500Y-7163000D02*
X-5267500Y-7333000D01*
X-5267500Y-7163000D02*
X-5437500Y-7333000D01*
X-5024750Y-10973000D02*
X-4854750Y-11143000D01*
X-4854750Y-10973000D02*
X-5024750Y-11143000D01*
X-5024700Y-12878000D02*
X-4854700Y-13048000D01*
X-4854700Y-12878000D02*
X-5024700Y-13048000D01*
X-4961250Y-9068000D02*
X-4791250Y-9238000D01*
X-4791250Y-9068000D02*
X-4961250Y-9238000D01*
X-4549000Y-2877000D02*
X-4379000Y-3047000D01*
X-4379000Y-2877000D02*
X-4549000Y-3047000D01*
X-4548500Y-7163000D02*
X-4378500Y-7333000D01*
X-4378500Y-7163000D02*
X-4548500Y-7333000D01*
X-4485000Y-5258000D02*
X-4315000Y-5428000D01*
X-4315000Y-5258000D02*
X-4485000Y-5428000D01*
X-4072250Y-9068000D02*
X-3902250Y-9238000D01*
X-3902250Y-9068000D02*
X-4072250Y-9238000D01*
X-4008750Y-10973000D02*
X-3838750Y-11143000D01*
X-3838750Y-10973000D02*
X-4008750Y-11143000D01*
X-4008700Y-12878000D02*
X-3838700Y-13048000D01*
X-3838700Y-12878000D02*
X-4008700Y-13048000D01*
X-3596000Y-5258000D02*
X-3426000Y-5428000D01*
X-3426000Y-5258000D02*
X-3596000Y-5428000D01*
X-3533000Y-2877000D02*
X-3363000Y-3047000D01*
X-3363000Y-2877000D02*
X-3533000Y-3047000D01*
X-3532500Y-7163000D02*
X-3362500Y-7333000D01*
X-3362500Y-7163000D02*
X-3532500Y-7333000D01*
X-3056250Y-9068000D02*
X-2886250Y-9238000D01*
X-2886250Y-9068000D02*
X-3056250Y-9238000D01*
X-2644000Y-2877000D02*
X-2474000Y-3047000D01*
X-2474000Y-2877000D02*
X-2644000Y-3047000D01*
X-2643500Y-7163000D02*
X-2473500Y-7333000D01*
X-2473500Y-7163000D02*
X-2643500Y-7333000D01*
X-2580000Y-5258000D02*
X-2410000Y-5428000D01*
X-2410000Y-5258000D02*
X-2580000Y-5428000D01*
X-2405350Y-10973000D02*
X-2235350Y-11143000D01*
X-2235350Y-10973000D02*
X-2405350Y-11143000D01*
X-1691000Y-12878000D02*
X-1521000Y-13048000D01*
X-1521000Y-12878000D02*
X-1691000Y-13048000D01*
X-1628000Y-2877000D02*
X-1458000Y-3047000D01*
X-1458000Y-2877000D02*
X-1628000Y-3047000D01*
X-1627500Y-7163000D02*
X-1457500Y-7333000D01*
X-1457500Y-7163000D02*
X-1627500Y-7333000D01*
X-1389350Y-10973000D02*
X-1219350Y-11143000D01*
X-1219350Y-10973000D02*
X-1389350Y-11143000D01*
X-969190Y-9068000D02*
X-799190Y-9238000D01*
X-799190Y-9068000D02*
X-969190Y-9238000D01*
X-739000Y-2877000D02*
X-569000Y-3047000D01*
X-569000Y-2877000D02*
X-739000Y-3047000D01*
X-738500Y-5258000D02*
X-568500Y-5428000D01*
X-568500Y-5258000D02*
X-738500Y-5428000D01*
X-675000Y-12878000D02*
X-505000Y-13048000D01*
X-505000Y-12878000D02*
X-675000Y-13048000D01*
X-262200Y-7163000D02*
X-92200Y-7333000D01*
X-92200Y-7163000D02*
X-262200Y-7333000D01*
X46810Y-9068000D02*
X216810Y-9238000D01*
X216810Y-9068000D02*
X46810Y-9238000D01*
X214000Y-10973000D02*
X384000Y-11143000D01*
X384000Y-10973000D02*
X214000Y-11143000D01*
X214000Y-12878000D02*
X384000Y-13048000D01*
X384000Y-12878000D02*
X214000Y-13048000D01*
X277000Y-2877000D02*
X447000Y-3047000D01*
X447000Y-2877000D02*
X277000Y-3047000D01*
X277500Y-5258000D02*
X447500Y-5428000D01*
X447500Y-5258000D02*
X277500Y-5428000D01*
X753800Y-7163000D02*
X923800Y-7333000D01*
X923800Y-7163000D02*
X753800Y-7333000D01*
X1230000Y-10973000D02*
X1400000Y-11143000D01*
X1400000Y-10973000D02*
X1230000Y-11143000D01*
X1230000Y-12878000D02*
X1400000Y-13048000D01*
X1400000Y-12878000D02*
X1230000Y-13048000D01*
X2119000Y-5258000D02*
X2289000Y-5428000D01*
X2289000Y-5258000D02*
X2119000Y-5428000D01*
X2119000Y-7163000D02*
X2289000Y-7333000D01*
X2289000Y-7163000D02*
X2119000Y-7333000D01*
X2119000Y-9068000D02*
X2289000Y-9238000D01*
X2289000Y-9068000D02*
X2119000Y-9238000D01*
X2119000Y-10973000D02*
X2289000Y-11143000D01*
X2289000Y-10973000D02*
X2119000Y-11143000D01*
X2119000Y-12878000D02*
X2289000Y-13048000D01*
X2289000Y-12878000D02*
X2119000Y-13048000D01*
X3135000Y-5258000D02*
X3305000Y-5428000D01*
X3305000Y-5258000D02*
X3135000Y-5428000D01*
X3135000Y-7163000D02*
X3305000Y-7333000D01*
X3305000Y-7163000D02*
X3135000Y-7333000D01*
X3135000Y-9068000D02*
X3305000Y-9238000D01*
X3305000Y-9068000D02*
X3135000Y-9238000D01*
X3135000Y-10973000D02*
X3305000Y-11143000D01*
X3305000Y-10973000D02*
X3135000Y-11143000D01*
X3135000Y-12878000D02*
X3305000Y-13048000D01*
X3305000Y-12878000D02*
X3135000Y-13048000D01*
D13*
X-25706340Y-10359500D02*
G75*
G02*
X-26011140Y-10359500I-152400J0D01*
G01*
X-26011140Y-10359500D02*
G75*
G02*
X-25706340Y-10359500I152400J0D01*
G01*
X-23318740Y-10359500D02*
G75*
G02*
X-23623540Y-10359500I-152400J0D01*
G01*
X-23623540Y-10359500D02*
G75*
G02*
X-23318740Y-10359500I152400J0D01*
G01*
X-18089600Y-13662750D02*
G75*
G02*
X-18394400Y-13662750I-152400J0D01*
G01*
X-18394400Y-13662750D02*
G75*
G02*
X-18089600Y-13662750I152400J0D01*
G01*
X-6659600Y-13662750D02*
G75*
G02*
X-6964400Y-13662750I-152400J0D01*
G01*
X-6964400Y-13662750D02*
G75*
G02*
X-6659600Y-13662750I152400J0D01*
G01*
X-1417590Y-8454500D02*
G75*
G02*
X-1722390Y-8454500I-152400J0D01*
G01*
X-1722390Y-8454500D02*
G75*
G02*
X-1417590Y-8454500I152400J0D01*
G01*
X-1186900Y-4644500D02*
G75*
G02*
X-1491700Y-4644500I-152400J0D01*
G01*
X-1491700Y-4644500D02*
G75*
G02*
X-1186900Y-4644500I152400J0D01*
G01*
X970010Y-8454500D02*
G75*
G02*
X665210Y-8454500I-152400J0D01*
G01*
X665210Y-8454500D02*
G75*
G02*
X970010Y-8454500I152400J0D01*
G01*
X1200700Y-4644500D02*
G75*
G02*
X895900Y-4644500I-152400J0D01*
G01*
X895900Y-4644500D02*
G75*
G02*
X1200700Y-4644500I152400J0D01*
G01*
D14*
X-25858740Y-11684110D02*
X-25858740Y-12082890D01*
X-26058130Y-11883500D02*
X-25659350Y-11883500D01*
X-23471140Y-11684110D02*
X-23471140Y-12082890D01*
X-23670530Y-11883500D02*
X-23271750Y-11883500D01*
X-18242000Y-11939360D02*
X-18242000Y-12338140D01*
X-18441390Y-12138750D02*
X-18042610Y-12138750D01*
X-6812000Y-11939360D02*
X-6812000Y-12338140D01*
X-7011390Y-12138750D02*
X-6612610Y-12138750D01*
X-1569990Y-9779110D02*
X-1569990Y-10177890D01*
X-1769380Y-9978500D02*
X-1370600Y-9978500D01*
X-1339300Y-5969110D02*
X-1339300Y-6367890D01*
X-1538690Y-6168500D02*
X-1139910Y-6168500D01*
X817610Y-9779110D02*
X817610Y-10177890D01*
X618220Y-9978500D02*
X1017000Y-9978500D01*
X1048300Y-5969110D02*
X1048300Y-6367890D01*
X848910Y-6168500D02*
X1247690Y-6168500D01*
D15*
X-25722577Y-3100423D02*
X-25722577Y-2817577D01*
X-26005423Y-2817577D01*
X-26005423Y-3100423D01*
X-25722577Y-3100423D01*
X-25721577Y-5484423D02*
X-25721577Y-5201577D01*
X-26004423Y-5201577D01*
X-26004423Y-5484423D01*
X-25721577Y-5484423D01*
X-25483477Y-9294423D02*
X-25483477Y-9011577D01*
X-25766323Y-9011577D01*
X-25766323Y-9294423D01*
X-25483477Y-9294423D01*
X-25245277Y-7389423D02*
X-25245277Y-7106577D01*
X-25528123Y-7106577D01*
X-25528123Y-7389423D01*
X-25245277Y-7389423D01*
X-25245277Y-13104423D02*
X-25245277Y-12821577D01*
X-25528123Y-12821577D01*
X-25528123Y-13104423D01*
X-25245277Y-13104423D01*
X-25007177Y-9294423D02*
X-25007177Y-9011577D01*
X-25290023Y-9011577D01*
X-25290023Y-9294423D01*
X-25007177Y-9294423D01*
X-24523517Y-11199423D02*
X-24523517Y-10916577D01*
X-24806363Y-10916577D01*
X-24806363Y-11199423D01*
X-24523517Y-11199423D01*
X-23816577Y-5484423D02*
X-23816577Y-5201577D01*
X-24099423Y-5201577D01*
X-24099423Y-5484423D01*
X-23816577Y-5484423D01*
X-22864077Y-7389423D02*
X-22864077Y-7106577D01*
X-23146923Y-7106577D01*
X-23146923Y-7389423D01*
X-22864077Y-7389423D01*
X-22864077Y-13104423D02*
X-22864077Y-12821577D01*
X-23146923Y-12821577D01*
X-23146923Y-13104423D01*
X-22864077Y-13104423D01*
X-22863577Y-3102423D02*
X-22863577Y-2819577D01*
X-23146423Y-2819577D01*
X-23146423Y-3102423D01*
X-22863577Y-3102423D01*
X-22387827Y-9294423D02*
X-22387827Y-9011577D01*
X-22670673Y-9011577D01*
X-22670673Y-9294423D01*
X-22387827Y-9294423D01*
X-21911577Y-5484423D02*
X-21911577Y-5201577D01*
X-22194423Y-5201577D01*
X-22194423Y-5484423D01*
X-21911577Y-5484423D01*
X-21435327Y-11199423D02*
X-21435327Y-10916577D01*
X-21718173Y-10916577D01*
X-21718173Y-11199423D01*
X-21435327Y-11199423D01*
X-20959077Y-7389423D02*
X-20959077Y-7106577D01*
X-21241923Y-7106577D01*
X-21241923Y-7389423D01*
X-20959077Y-7389423D01*
X-20958577Y-3102423D02*
X-20958577Y-2819577D01*
X-21241423Y-2819577D01*
X-21241423Y-3102423D01*
X-20958577Y-3102423D01*
X-20482827Y-9294423D02*
X-20482827Y-9011577D01*
X-20765673Y-9011577D01*
X-20765673Y-9294423D01*
X-20482827Y-9294423D01*
X-20482777Y-13104423D02*
X-20482777Y-12821577D01*
X-20765623Y-12821577D01*
X-20765623Y-13104423D01*
X-20482777Y-13104423D01*
X-20006577Y-5484423D02*
X-20006577Y-5201577D01*
X-20289423Y-5201577D01*
X-20289423Y-5484423D01*
X-20006577Y-5484423D01*
X-19530327Y-11199423D02*
X-19530327Y-10916577D01*
X-19813173Y-10916577D01*
X-19813173Y-11199423D01*
X-19530327Y-11199423D01*
X-19054077Y-7389423D02*
X-19054077Y-7106577D01*
X-19336923Y-7106577D01*
X-19336923Y-7389423D01*
X-19054077Y-7389423D01*
X-19053577Y-3102423D02*
X-19053577Y-2819577D01*
X-19336423Y-2819577D01*
X-19336423Y-3102423D01*
X-19053577Y-3102423D01*
X-18577827Y-9294423D02*
X-18577827Y-9011577D01*
X-18860673Y-9011577D01*
X-18860673Y-9294423D01*
X-18577827Y-9294423D01*
X-18101577Y-5484423D02*
X-18101577Y-5201577D01*
X-18384423Y-5201577D01*
X-18384423Y-5484423D01*
X-18101577Y-5484423D01*
X-17625327Y-11199423D02*
X-17625327Y-10916577D01*
X-17908173Y-10916577D01*
X-17908173Y-11199423D01*
X-17625327Y-11199423D01*
X-17149077Y-7389423D02*
X-17149077Y-7106577D01*
X-17431923Y-7106577D01*
X-17431923Y-7389423D01*
X-17149077Y-7389423D01*
X-17148577Y-3102423D02*
X-17148577Y-2819577D01*
X-17431423Y-2819577D01*
X-17431423Y-3102423D01*
X-17148577Y-3102423D01*
X-16672827Y-9294423D02*
X-16672827Y-9011577D01*
X-16955673Y-9011577D01*
X-16955673Y-9294423D01*
X-16672827Y-9294423D01*
X-16196577Y-5484423D02*
X-16196577Y-5201577D01*
X-16479423Y-5201577D01*
X-16479423Y-5484423D01*
X-16196577Y-5484423D01*
X-15720327Y-11199423D02*
X-15720327Y-10916577D01*
X-16003173Y-10916577D01*
X-16003173Y-11199423D01*
X-15720327Y-11199423D01*
X-15244077Y-7389423D02*
X-15244077Y-7106577D01*
X-15526923Y-7106577D01*
X-15526923Y-7389423D01*
X-15244077Y-7389423D01*
X-14767827Y-9294423D02*
X-14767827Y-9011577D01*
X-15050673Y-9011577D01*
X-15050673Y-9294423D01*
X-14767827Y-9294423D01*
X-14291577Y-5484423D02*
X-14291577Y-5201577D01*
X-14574423Y-5201577D01*
X-14574423Y-5484423D01*
X-14291577Y-5484423D01*
X-14289577Y-3103423D02*
X-14289577Y-2820577D01*
X-14572423Y-2820577D01*
X-14572423Y-3103423D01*
X-14289577Y-3103423D01*
X-13815327Y-11199423D02*
X-13815327Y-10916577D01*
X-14098173Y-10916577D01*
X-14098173Y-11199423D01*
X-13815327Y-11199423D01*
X-13339077Y-7389423D02*
X-13339077Y-7106577D01*
X-13621923Y-7106577D01*
X-13621923Y-7389423D01*
X-13339077Y-7389423D01*
X-12862827Y-9294423D02*
X-12862827Y-9011577D01*
X-13145673Y-9011577D01*
X-13145673Y-9294423D01*
X-12862827Y-9294423D01*
X-12386577Y-5484423D02*
X-12386577Y-5201577D01*
X-12669423Y-5201577D01*
X-12669423Y-5484423D01*
X-12386577Y-5484423D01*
X-12385577Y-13105673D02*
X-12385577Y-12822827D01*
X-12668423Y-12822827D01*
X-12668423Y-13105673D01*
X-12385577Y-13105673D01*
X-12384577Y-3103423D02*
X-12384577Y-2820577D01*
X-12667423Y-2820577D01*
X-12667423Y-3103423D01*
X-12384577Y-3103423D01*
X-11910327Y-11199423D02*
X-11910327Y-10916577D01*
X-12193173Y-10916577D01*
X-12193173Y-11199423D01*
X-11910327Y-11199423D01*
X-11434077Y-7389423D02*
X-11434077Y-7106577D01*
X-11716923Y-7106577D01*
X-11716923Y-7389423D01*
X-11434077Y-7389423D01*
X-10957827Y-9294423D02*
X-10957827Y-9011577D01*
X-11240673Y-9011577D01*
X-11240673Y-9294423D01*
X-10957827Y-9294423D01*
X-10481577Y-5484423D02*
X-10481577Y-5201577D01*
X-10764423Y-5201577D01*
X-10764423Y-5484423D01*
X-10481577Y-5484423D01*
X-10479577Y-3103423D02*
X-10479577Y-2820577D01*
X-10762423Y-2820577D01*
X-10762423Y-3103423D01*
X-10479577Y-3103423D01*
X-10005327Y-11199423D02*
X-10005327Y-10916577D01*
X-10288173Y-10916577D01*
X-10288173Y-11199423D01*
X-10005327Y-11199423D01*
X-9529077Y-7389423D02*
X-9529077Y-7106577D01*
X-9811923Y-7106577D01*
X-9811923Y-7389423D01*
X-9529077Y-7389423D01*
X-9052827Y-9294423D02*
X-9052827Y-9011577D01*
X-9335673Y-9011577D01*
X-9335673Y-9294423D01*
X-9052827Y-9294423D01*
X-8576577Y-5484423D02*
X-8576577Y-5201577D01*
X-8859423Y-5201577D01*
X-8859423Y-5484423D01*
X-8576577Y-5484423D01*
X-8574577Y-3103423D02*
X-8574577Y-2820577D01*
X-8857423Y-2820577D01*
X-8857423Y-3103423D01*
X-8574577Y-3103423D01*
X-8100327Y-11199423D02*
X-8100327Y-10916577D01*
X-8383173Y-10916577D01*
X-8383173Y-11199423D01*
X-8100327Y-11199423D01*
X-7624077Y-7389423D02*
X-7624077Y-7106577D01*
X-7906923Y-7106577D01*
X-7906923Y-7389423D01*
X-7624077Y-7389423D01*
X-7147827Y-9294423D02*
X-7147827Y-9011577D01*
X-7430673Y-9011577D01*
X-7430673Y-9294423D01*
X-7147827Y-9294423D01*
X-6671577Y-5484423D02*
X-6671577Y-5201577D01*
X-6954423Y-5201577D01*
X-6954423Y-5484423D01*
X-6671577Y-5484423D01*
X-6195327Y-11199423D02*
X-6195327Y-10916577D01*
X-6478173Y-10916577D01*
X-6478173Y-11199423D01*
X-6195327Y-11199423D01*
X-5719577Y-3103423D02*
X-5719577Y-2820577D01*
X-6002423Y-2820577D01*
X-6002423Y-3103423D01*
X-5719577Y-3103423D01*
X-5719077Y-7389423D02*
X-5719077Y-7106577D01*
X-6001923Y-7106577D01*
X-6001923Y-7389423D01*
X-5719077Y-7389423D01*
X-5242827Y-9294423D02*
X-5242827Y-9011577D01*
X-5525673Y-9011577D01*
X-5525673Y-9294423D01*
X-5242827Y-9294423D01*
X-4766577Y-5484423D02*
X-4766577Y-5201577D01*
X-5049423Y-5201577D01*
X-5049423Y-5484423D01*
X-4766577Y-5484423D01*
X-4290327Y-11199423D02*
X-4290327Y-10916577D01*
X-4573173Y-10916577D01*
X-4573173Y-11199423D01*
X-4290327Y-11199423D01*
X-4290277Y-13104423D02*
X-4290277Y-12821577D01*
X-4573123Y-12821577D01*
X-4573123Y-13104423D01*
X-4290277Y-13104423D01*
X-3814577Y-3103423D02*
X-3814577Y-2820577D01*
X-4097423Y-2820577D01*
X-4097423Y-3103423D01*
X-3814577Y-3103423D01*
X-3814077Y-7389423D02*
X-3814077Y-7106577D01*
X-4096923Y-7106577D01*
X-4096923Y-7389423D01*
X-3814077Y-7389423D01*
X-3337827Y-9294423D02*
X-3337827Y-9011577D01*
X-3620673Y-9011577D01*
X-3620673Y-9294423D01*
X-3337827Y-9294423D01*
X-2861577Y-5484423D02*
X-2861577Y-5201577D01*
X-3144423Y-5201577D01*
X-3144423Y-5484423D01*
X-2861577Y-5484423D01*
X-1909577Y-3103423D02*
X-1909577Y-2820577D01*
X-2192423Y-2820577D01*
X-2192423Y-3103423D01*
X-1909577Y-3103423D01*
X-1909077Y-7389423D02*
X-1909077Y-7106577D01*
X-2191923Y-7106577D01*
X-2191923Y-7389423D01*
X-1909077Y-7389423D01*
X-1670927Y-11199423D02*
X-1670927Y-10916577D01*
X-1953773Y-10916577D01*
X-1953773Y-11199423D01*
X-1670927Y-11199423D01*
X-956577Y-13104423D02*
X-956577Y-12821577D01*
X-1239423Y-12821577D01*
X-1239423Y-13104423D01*
X-956577Y-13104423D01*
X-234767Y-9294423D02*
X-234767Y-9011577D01*
X-517613Y-9011577D01*
X-517613Y-9294423D01*
X-234767Y-9294423D01*
X-4577Y-3103423D02*
X-4577Y-2820577D01*
X-287423Y-2820577D01*
X-287423Y-3103423D01*
X-4577Y-3103423D01*
X-4077Y-5484423D02*
X-4077Y-5201577D01*
X-286923Y-5201577D01*
X-286923Y-5484423D01*
X-4077Y-5484423D01*
X472223Y-7389423D02*
X472223Y-7106577D01*
X189377Y-7106577D01*
X189377Y-7389423D01*
X472223Y-7389423D01*
X948423Y-11199423D02*
X948423Y-10916577D01*
X665577Y-10916577D01*
X665577Y-11199423D01*
X948423Y-11199423D01*
X948423Y-13104423D02*
X948423Y-12821577D01*
X665577Y-12821577D01*
X665577Y-13104423D01*
X948423Y-13104423D01*
X2853423Y-5484423D02*
X2853423Y-5201577D01*
X2570577Y-5201577D01*
X2570577Y-5484423D01*
X2853423Y-5484423D01*
X2853423Y-7389423D02*
X2853423Y-7106577D01*
X2570577Y-7106577D01*
X2570577Y-7389423D01*
X2853423Y-7389423D01*
X2853423Y-9294423D02*
X2853423Y-9011577D01*
X2570577Y-9011577D01*
X2570577Y-9294423D01*
X2853423Y-9294423D01*
X2853423Y-11199423D02*
X2853423Y-10916577D01*
X2570577Y-10916577D01*
X2570577Y-11199423D01*
X2853423Y-11199423D01*
X2853423Y-13104423D02*
X2853423Y-12821577D01*
X2570577Y-12821577D01*
X2570577Y-13104423D01*
X2853423Y-13104423D01*
D11*
X-26341723Y-14227163D02*
X-26341723Y-14027163D01*
X-26341723Y-14027163D02*
X-26294104Y-14027163D01*
X-26294104Y-14027163D02*
X-26265533Y-14036687D01*
X-26265533Y-14036687D02*
X-26246485Y-14055735D01*
X-26246485Y-14055735D02*
X-26236961Y-14074782D01*
X-26236961Y-14074782D02*
X-26227437Y-14112878D01*
X-26227437Y-14112878D02*
X-26227437Y-14141449D01*
X-26227437Y-14141449D02*
X-26236961Y-14179544D01*
X-26236961Y-14179544D02*
X-26246485Y-14198592D01*
X-26246485Y-14198592D02*
X-26265533Y-14217640D01*
X-26265533Y-14217640D02*
X-26294104Y-14227163D01*
X-26294104Y-14227163D02*
X-26341723Y-14227163D01*
X-26141723Y-14227163D02*
X-26141723Y-14093830D01*
X-26141723Y-14131925D02*
X-26132199Y-14112878D01*
X-26132199Y-14112878D02*
X-26122675Y-14103354D01*
X-26122675Y-14103354D02*
X-26103628Y-14093830D01*
X-26103628Y-14093830D02*
X-26084580Y-14093830D01*
X-26017914Y-14227163D02*
X-26017914Y-14093830D01*
X-26017914Y-14027163D02*
X-26027437Y-14036687D01*
X-26027437Y-14036687D02*
X-26017914Y-14046211D01*
X-26017914Y-14046211D02*
X-26008390Y-14036687D01*
X-26008390Y-14036687D02*
X-26017914Y-14027163D01*
X-26017914Y-14027163D02*
X-26017914Y-14046211D01*
X-25894104Y-14227163D02*
X-25913152Y-14217640D01*
X-25913152Y-14217640D02*
X-25922675Y-14198592D01*
X-25922675Y-14198592D02*
X-25922675Y-14027163D01*
X-25789342Y-14227163D02*
X-25808390Y-14217640D01*
X-25808390Y-14217640D02*
X-25817914Y-14198592D01*
X-25817914Y-14198592D02*
X-25817914Y-14027163D01*
X-25560771Y-14227163D02*
X-25560771Y-14027163D01*
X-25560771Y-14027163D02*
X-25494104Y-14170021D01*
X-25494104Y-14170021D02*
X-25427437Y-14027163D01*
X-25427437Y-14027163D02*
X-25427437Y-14227163D01*
X-25246485Y-14227163D02*
X-25246485Y-14122402D01*
X-25246485Y-14122402D02*
X-25256009Y-14103354D01*
X-25256009Y-14103354D02*
X-25275056Y-14093830D01*
X-25275056Y-14093830D02*
X-25313152Y-14093830D01*
X-25313152Y-14093830D02*
X-25332199Y-14103354D01*
X-25246485Y-14217640D02*
X-25265533Y-14227163D01*
X-25265533Y-14227163D02*
X-25313152Y-14227163D01*
X-25313152Y-14227163D02*
X-25332199Y-14217640D01*
X-25332199Y-14217640D02*
X-25341723Y-14198592D01*
X-25341723Y-14198592D02*
X-25341723Y-14179544D01*
X-25341723Y-14179544D02*
X-25332199Y-14160497D01*
X-25332199Y-14160497D02*
X-25313152Y-14150973D01*
X-25313152Y-14150973D02*
X-25265533Y-14150973D01*
X-25265533Y-14150973D02*
X-25246485Y-14141449D01*
X-25151247Y-14093830D02*
X-25151247Y-14293830D01*
X-25151247Y-14103354D02*
X-25132199Y-14093830D01*
X-25132199Y-14093830D02*
X-25094104Y-14093830D01*
X-25094104Y-14093830D02*
X-25075056Y-14103354D01*
X-25075056Y-14103354D02*
X-25065533Y-14112878D01*
X-25065533Y-14112878D02*
X-25056009Y-14131925D01*
X-25056009Y-14131925D02*
X-25056009Y-14189068D01*
X-25056009Y-14189068D02*
X-25065533Y-14208116D01*
X-25065533Y-14208116D02*
X-25075056Y-14217640D01*
X-25075056Y-14217640D02*
X-25094104Y-14227163D01*
X-25094104Y-14227163D02*
X-25132199Y-14227163D01*
X-25132199Y-14227163D02*
X-25151247Y-14217640D01*
X-24970294Y-14208116D02*
X-24960771Y-14217640D01*
X-24960771Y-14217640D02*
X-24970294Y-14227163D01*
X-24970294Y-14227163D02*
X-24979818Y-14217640D01*
X-24979818Y-14217640D02*
X-24970294Y-14208116D01*
X-24970294Y-14208116D02*
X-24970294Y-14227163D01*
X-24970294Y-14103354D02*
X-24960771Y-14112878D01*
X-24960771Y-14112878D02*
X-24970294Y-14122402D01*
X-24970294Y-14122402D02*
X-24979818Y-14112878D01*
X-24979818Y-14112878D02*
X-24970294Y-14103354D01*
X-24970294Y-14103354D02*
X-24970294Y-14122402D01*
D12*
X-26772500Y-14470680D02*
X-26602500Y-14640680D01*
X-26602500Y-14470680D02*
X-26772500Y-14640680D01*
D11*
X-26236961Y-14647163D02*
X-26351247Y-14647163D01*
X-26294104Y-14647163D02*
X-26294104Y-14447163D01*
X-26294104Y-14447163D02*
X-26313152Y-14475735D01*
X-26313152Y-14475735D02*
X-26332199Y-14494782D01*
X-26332199Y-14494782D02*
X-26351247Y-14504306D01*
X-26151247Y-14628116D02*
X-26141723Y-14637640D01*
X-26141723Y-14637640D02*
X-26151247Y-14647163D01*
X-26151247Y-14647163D02*
X-26160771Y-14637640D01*
X-26160771Y-14637640D02*
X-26151247Y-14628116D01*
X-26151247Y-14628116D02*
X-26151247Y-14647163D01*
X-26075056Y-14447163D02*
X-25941723Y-14447163D01*
X-25941723Y-14447163D02*
X-26027437Y-14647163D01*
X-25827437Y-14447163D02*
X-25808390Y-14447163D01*
X-25808390Y-14447163D02*
X-25789342Y-14456687D01*
X-25789342Y-14456687D02*
X-25779818Y-14466211D01*
X-25779818Y-14466211D02*
X-25770294Y-14485259D01*
X-25770294Y-14485259D02*
X-25760771Y-14523354D01*
X-25760771Y-14523354D02*
X-25760771Y-14570973D01*
X-25760771Y-14570973D02*
X-25770294Y-14609068D01*
X-25770294Y-14609068D02*
X-25779818Y-14628116D01*
X-25779818Y-14628116D02*
X-25789342Y-14637640D01*
X-25789342Y-14637640D02*
X-25808390Y-14647163D01*
X-25808390Y-14647163D02*
X-25827437Y-14647163D01*
X-25827437Y-14647163D02*
X-25846485Y-14637640D01*
X-25846485Y-14637640D02*
X-25856009Y-14628116D01*
X-25856009Y-14628116D02*
X-25865533Y-14609068D01*
X-25865533Y-14609068D02*
X-25875056Y-14570973D01*
X-25875056Y-14570973D02*
X-25875056Y-14523354D01*
X-25875056Y-14523354D02*
X-25865533Y-14485259D01*
X-25865533Y-14485259D02*
X-25856009Y-14466211D01*
X-25856009Y-14466211D02*
X-25846485Y-14456687D01*
X-25846485Y-14456687D02*
X-25827437Y-14447163D01*
X-25636961Y-14447163D02*
X-25617913Y-14447163D01*
X-25617913Y-14447163D02*
X-25598866Y-14456687D01*
X-25598866Y-14456687D02*
X-25589342Y-14466211D01*
X-25589342Y-14466211D02*
X-25579818Y-14485259D01*
X-25579818Y-14485259D02*
X-25570294Y-14523354D01*
X-25570294Y-14523354D02*
X-25570294Y-14570973D01*
X-25570294Y-14570973D02*
X-25579818Y-14609068D01*
X-25579818Y-14609068D02*
X-25589342Y-14628116D01*
X-25589342Y-14628116D02*
X-25598866Y-14637640D01*
X-25598866Y-14637640D02*
X-25617913Y-14647163D01*
X-25617913Y-14647163D02*
X-25636961Y-14647163D01*
X-25636961Y-14647163D02*
X-25656009Y-14637640D01*
X-25656009Y-14637640D02*
X-25665533Y-14628116D01*
X-25665533Y-14628116D02*
X-25675056Y-14609068D01*
X-25675056Y-14609068D02*
X-25684580Y-14570973D01*
X-25684580Y-14570973D02*
X-25684580Y-14523354D01*
X-25684580Y-14523354D02*
X-25675056Y-14485259D01*
X-25675056Y-14485259D02*
X-25665533Y-14466211D01*
X-25665533Y-14466211D02*
X-25656009Y-14456687D01*
X-25656009Y-14456687D02*
X-25636961Y-14447163D01*
X-25484580Y-14647163D02*
X-25484580Y-14513830D01*
X-25484580Y-14532878D02*
X-25475056Y-14523354D01*
X-25475056Y-14523354D02*
X-25456009Y-14513830D01*
X-25456009Y-14513830D02*
X-25427437Y-14513830D01*
X-25427437Y-14513830D02*
X-25408390Y-14523354D01*
X-25408390Y-14523354D02*
X-25398866Y-14542402D01*
X-25398866Y-14542402D02*
X-25398866Y-14647163D01*
X-25398866Y-14542402D02*
X-25389342Y-14523354D01*
X-25389342Y-14523354D02*
X-25370294Y-14513830D01*
X-25370294Y-14513830D02*
X-25341723Y-14513830D01*
X-25341723Y-14513830D02*
X-25322675Y-14523354D01*
X-25322675Y-14523354D02*
X-25313152Y-14542402D01*
X-25313152Y-14542402D02*
X-25313152Y-14647163D01*
X-25217913Y-14647163D02*
X-25217913Y-14513830D01*
X-25217913Y-14532878D02*
X-25208390Y-14523354D01*
X-25208390Y-14523354D02*
X-25189342Y-14513830D01*
X-25189342Y-14513830D02*
X-25160771Y-14513830D01*
X-25160771Y-14513830D02*
X-25141723Y-14523354D01*
X-25141723Y-14523354D02*
X-25132199Y-14542402D01*
X-25132199Y-14542402D02*
X-25132199Y-14647163D01*
X-25132199Y-14542402D02*
X-25122675Y-14523354D01*
X-25122675Y-14523354D02*
X-25103628Y-14513830D01*
X-25103628Y-14513830D02*
X-25075056Y-14513830D01*
X-25075056Y-14513830D02*
X-25056009Y-14523354D01*
X-25056009Y-14523354D02*
X-25046485Y-14542402D01*
X-25046485Y-14542402D02*
X-25046485Y-14647163D01*
X-24656009Y-14437640D02*
X-24827437Y-14694782D01*
X-24398866Y-14447163D02*
X-24379818Y-14447163D01*
X-24379818Y-14447163D02*
X-24360770Y-14456687D01*
X-24360770Y-14456687D02*
X-24351247Y-14466211D01*
X-24351247Y-14466211D02*
X-24341723Y-14485259D01*
X-24341723Y-14485259D02*
X-24332199Y-14523354D01*
X-24332199Y-14523354D02*
X-24332199Y-14570973D01*
X-24332199Y-14570973D02*
X-24341723Y-14609068D01*
X-24341723Y-14609068D02*
X-24351247Y-14628116D01*
X-24351247Y-14628116D02*
X-24360770Y-14637640D01*
X-24360770Y-14637640D02*
X-24379818Y-14647163D01*
X-24379818Y-14647163D02*
X-24398866Y-14647163D01*
X-24398866Y-14647163D02*
X-24417913Y-14637640D01*
X-24417913Y-14637640D02*
X-24427437Y-14628116D01*
X-24427437Y-14628116D02*
X-24436961Y-14609068D01*
X-24436961Y-14609068D02*
X-24446485Y-14570973D01*
X-24446485Y-14570973D02*
X-24446485Y-14523354D01*
X-24446485Y-14523354D02*
X-24436961Y-14485259D01*
X-24436961Y-14485259D02*
X-24427437Y-14466211D01*
X-24427437Y-14466211D02*
X-24417913Y-14456687D01*
X-24417913Y-14456687D02*
X-24398866Y-14447163D01*
X-24246485Y-14628116D02*
X-24236961Y-14637640D01*
X-24236961Y-14637640D02*
X-24246485Y-14647163D01*
X-24246485Y-14647163D02*
X-24256009Y-14637640D01*
X-24256009Y-14637640D02*
X-24246485Y-14628116D01*
X-24246485Y-14628116D02*
X-24246485Y-14647163D01*
X-24113151Y-14447163D02*
X-24094104Y-14447163D01*
X-24094104Y-14447163D02*
X-24075056Y-14456687D01*
X-24075056Y-14456687D02*
X-24065532Y-14466211D01*
X-24065532Y-14466211D02*
X-24056009Y-14485259D01*
X-24056009Y-14485259D02*
X-24046485Y-14523354D01*
X-24046485Y-14523354D02*
X-24046485Y-14570973D01*
X-24046485Y-14570973D02*
X-24056009Y-14609068D01*
X-24056009Y-14609068D02*
X-24065532Y-14628116D01*
X-24065532Y-14628116D02*
X-24075056Y-14637640D01*
X-24075056Y-14637640D02*
X-24094104Y-14647163D01*
X-24094104Y-14647163D02*
X-24113151Y-14647163D01*
X-24113151Y-14647163D02*
X-24132199Y-14637640D01*
X-24132199Y-14637640D02*
X-24141723Y-14628116D01*
X-24141723Y-14628116D02*
X-24151247Y-14609068D01*
X-24151247Y-14609068D02*
X-24160770Y-14570973D01*
X-24160770Y-14570973D02*
X-24160770Y-14523354D01*
X-24160770Y-14523354D02*
X-24151247Y-14485259D01*
X-24151247Y-14485259D02*
X-24141723Y-14466211D01*
X-24141723Y-14466211D02*
X-24132199Y-14456687D01*
X-24132199Y-14456687D02*
X-24113151Y-14447163D01*
X-23875056Y-14447163D02*
X-23913151Y-14447163D01*
X-23913151Y-14447163D02*
X-23932199Y-14456687D01*
X-23932199Y-14456687D02*
X-23941723Y-14466211D01*
X-23941723Y-14466211D02*
X-23960770Y-14494782D01*
X-23960770Y-14494782D02*
X-23970294Y-14532878D01*
X-23970294Y-14532878D02*
X-23970294Y-14609068D01*
X-23970294Y-14609068D02*
X-23960770Y-14628116D01*
X-23960770Y-14628116D02*
X-23951247Y-14637640D01*
X-23951247Y-14637640D02*
X-23932199Y-14647163D01*
X-23932199Y-14647163D02*
X-23894104Y-14647163D01*
X-23894104Y-14647163D02*
X-23875056Y-14637640D01*
X-23875056Y-14637640D02*
X-23865532Y-14628116D01*
X-23865532Y-14628116D02*
X-23856009Y-14609068D01*
X-23856009Y-14609068D02*
X-23856009Y-14561449D01*
X-23856009Y-14561449D02*
X-23865532Y-14542402D01*
X-23865532Y-14542402D02*
X-23875056Y-14532878D01*
X-23875056Y-14532878D02*
X-23894104Y-14523354D01*
X-23894104Y-14523354D02*
X-23932199Y-14523354D01*
X-23932199Y-14523354D02*
X-23951247Y-14532878D01*
X-23951247Y-14532878D02*
X-23960770Y-14542402D01*
X-23960770Y-14542402D02*
X-23970294Y-14561449D01*
X-23684580Y-14447163D02*
X-23722675Y-14447163D01*
X-23722675Y-14447163D02*
X-23741723Y-14456687D01*
X-23741723Y-14456687D02*
X-23751247Y-14466211D01*
X-23751247Y-14466211D02*
X-23770294Y-14494782D01*
X-23770294Y-14494782D02*
X-23779818Y-14532878D01*
X-23779818Y-14532878D02*
X-23779818Y-14609068D01*
X-23779818Y-14609068D02*
X-23770294Y-14628116D01*
X-23770294Y-14628116D02*
X-23760770Y-14637640D01*
X-23760770Y-14637640D02*
X-23741723Y-14647163D01*
X-23741723Y-14647163D02*
X-23703628Y-14647163D01*
X-23703628Y-14647163D02*
X-23684580Y-14637640D01*
X-23684580Y-14637640D02*
X-23675056Y-14628116D01*
X-23675056Y-14628116D02*
X-23665532Y-14609068D01*
X-23665532Y-14609068D02*
X-23665532Y-14561449D01*
X-23665532Y-14561449D02*
X-23675056Y-14542402D01*
X-23675056Y-14542402D02*
X-23684580Y-14532878D01*
X-23684580Y-14532878D02*
X-23703628Y-14523354D01*
X-23703628Y-14523354D02*
X-23741723Y-14523354D01*
X-23741723Y-14523354D02*
X-23760770Y-14532878D01*
X-23760770Y-14532878D02*
X-23770294Y-14542402D01*
X-23770294Y-14542402D02*
X-23779818Y-14561449D01*
X-23570294Y-14647163D02*
X-23532199Y-14647163D01*
X-23532199Y-14647163D02*
X-23513151Y-14637640D01*
X-23513151Y-14637640D02*
X-23503628Y-14628116D01*
X-23503628Y-14628116D02*
X-23484580Y-14599544D01*
X-23484580Y-14599544D02*
X-23475056Y-14561449D01*
X-23475056Y-14561449D02*
X-23475056Y-14485259D01*
X-23475056Y-14485259D02*
X-23484580Y-14466211D01*
X-23484580Y-14466211D02*
X-23494104Y-14456687D01*
X-23494104Y-14456687D02*
X-23513151Y-14447163D01*
X-23513151Y-14447163D02*
X-23551247Y-14447163D01*
X-23551247Y-14447163D02*
X-23570294Y-14456687D01*
X-23570294Y-14456687D02*
X-23579818Y-14466211D01*
X-23579818Y-14466211D02*
X-23589342Y-14485259D01*
X-23589342Y-14485259D02*
X-23589342Y-14532878D01*
X-23589342Y-14532878D02*
X-23579818Y-14551925D01*
X-23579818Y-14551925D02*
X-23570294Y-14561449D01*
X-23570294Y-14561449D02*
X-23551247Y-14570973D01*
X-23551247Y-14570973D02*
X-23513151Y-14570973D01*
X-23513151Y-14570973D02*
X-23494104Y-14561449D01*
X-23494104Y-14561449D02*
X-23484580Y-14551925D01*
X-23484580Y-14551925D02*
X-23475056Y-14532878D01*
X-23398866Y-14447163D02*
X-23398866Y-14485259D01*
X-23322675Y-14447163D02*
X-23322675Y-14485259D01*
X-23027437Y-14723354D02*
X-23036961Y-14713830D01*
X-23036961Y-14713830D02*
X-23056008Y-14685259D01*
X-23056008Y-14685259D02*
X-23065532Y-14666211D01*
X-23065532Y-14666211D02*
X-23075056Y-14637640D01*
X-23075056Y-14637640D02*
X-23084580Y-14590021D01*
X-23084580Y-14590021D02*
X-23084580Y-14551925D01*
X-23084580Y-14551925D02*
X-23075056Y-14504306D01*
X-23075056Y-14504306D02*
X-23065532Y-14475735D01*
X-23065532Y-14475735D02*
X-23056008Y-14456687D01*
X-23056008Y-14456687D02*
X-23036961Y-14428116D01*
X-23036961Y-14428116D02*
X-23027437Y-14418592D01*
X-22846485Y-14647163D02*
X-22960770Y-14647163D01*
X-22903628Y-14647163D02*
X-22903628Y-14447163D01*
X-22903628Y-14447163D02*
X-22922675Y-14475735D01*
X-22922675Y-14475735D02*
X-22941723Y-14494782D01*
X-22941723Y-14494782D02*
X-22960770Y-14504306D01*
X-22675056Y-14447163D02*
X-22713151Y-14447163D01*
X-22713151Y-14447163D02*
X-22732199Y-14456687D01*
X-22732199Y-14456687D02*
X-22741723Y-14466211D01*
X-22741723Y-14466211D02*
X-22760770Y-14494782D01*
X-22760770Y-14494782D02*
X-22770294Y-14532878D01*
X-22770294Y-14532878D02*
X-22770294Y-14609068D01*
X-22770294Y-14609068D02*
X-22760770Y-14628116D01*
X-22760770Y-14628116D02*
X-22751247Y-14637640D01*
X-22751247Y-14637640D02*
X-22732199Y-14647163D01*
X-22732199Y-14647163D02*
X-22694104Y-14647163D01*
X-22694104Y-14647163D02*
X-22675056Y-14637640D01*
X-22675056Y-14637640D02*
X-22665532Y-14628116D01*
X-22665532Y-14628116D02*
X-22656008Y-14609068D01*
X-22656008Y-14609068D02*
X-22656008Y-14561449D01*
X-22656008Y-14561449D02*
X-22665532Y-14542402D01*
X-22665532Y-14542402D02*
X-22675056Y-14532878D01*
X-22675056Y-14532878D02*
X-22694104Y-14523354D01*
X-22694104Y-14523354D02*
X-22732199Y-14523354D01*
X-22732199Y-14523354D02*
X-22751247Y-14532878D01*
X-22751247Y-14532878D02*
X-22760770Y-14542402D01*
X-22760770Y-14542402D02*
X-22770294Y-14561449D01*
X-22532199Y-14447163D02*
X-22513151Y-14447163D01*
X-22513151Y-14447163D02*
X-22494104Y-14456687D01*
X-22494104Y-14456687D02*
X-22484580Y-14466211D01*
X-22484580Y-14466211D02*
X-22475056Y-14485259D01*
X-22475056Y-14485259D02*
X-22465532Y-14523354D01*
X-22465532Y-14523354D02*
X-22465532Y-14570973D01*
X-22465532Y-14570973D02*
X-22475056Y-14609068D01*
X-22475056Y-14609068D02*
X-22484580Y-14628116D01*
X-22484580Y-14628116D02*
X-22494104Y-14637640D01*
X-22494104Y-14637640D02*
X-22513151Y-14647163D01*
X-22513151Y-14647163D02*
X-22532199Y-14647163D01*
X-22532199Y-14647163D02*
X-22551247Y-14637640D01*
X-22551247Y-14637640D02*
X-22560770Y-14628116D01*
X-22560770Y-14628116D02*
X-22570294Y-14609068D01*
X-22570294Y-14609068D02*
X-22579818Y-14570973D01*
X-22579818Y-14570973D02*
X-22579818Y-14523354D01*
X-22579818Y-14523354D02*
X-22570294Y-14485259D01*
X-22570294Y-14485259D02*
X-22560770Y-14466211D01*
X-22560770Y-14466211D02*
X-22551247Y-14456687D01*
X-22551247Y-14456687D02*
X-22532199Y-14447163D01*
X-22227437Y-14647163D02*
X-22227437Y-14447163D01*
X-22141723Y-14647163D02*
X-22141723Y-14542402D01*
X-22141723Y-14542402D02*
X-22151247Y-14523354D01*
X-22151247Y-14523354D02*
X-22170294Y-14513830D01*
X-22170294Y-14513830D02*
X-22198866Y-14513830D01*
X-22198866Y-14513830D02*
X-22217913Y-14523354D01*
X-22217913Y-14523354D02*
X-22227437Y-14532878D01*
X-22017913Y-14647163D02*
X-22036961Y-14637640D01*
X-22036961Y-14637640D02*
X-22046485Y-14628116D01*
X-22046485Y-14628116D02*
X-22056008Y-14609068D01*
X-22056008Y-14609068D02*
X-22056008Y-14551925D01*
X-22056008Y-14551925D02*
X-22046485Y-14532878D01*
X-22046485Y-14532878D02*
X-22036961Y-14523354D01*
X-22036961Y-14523354D02*
X-22017913Y-14513830D01*
X-22017913Y-14513830D02*
X-21989342Y-14513830D01*
X-21989342Y-14513830D02*
X-21970294Y-14523354D01*
X-21970294Y-14523354D02*
X-21960770Y-14532878D01*
X-21960770Y-14532878D02*
X-21951247Y-14551925D01*
X-21951247Y-14551925D02*
X-21951247Y-14609068D01*
X-21951247Y-14609068D02*
X-21960770Y-14628116D01*
X-21960770Y-14628116D02*
X-21970294Y-14637640D01*
X-21970294Y-14637640D02*
X-21989342Y-14647163D01*
X-21989342Y-14647163D02*
X-22017913Y-14647163D01*
X-21836961Y-14647163D02*
X-21856008Y-14637640D01*
X-21856008Y-14637640D02*
X-21865532Y-14618592D01*
X-21865532Y-14618592D02*
X-21865532Y-14447163D01*
X-21684580Y-14637640D02*
X-21703627Y-14647163D01*
X-21703627Y-14647163D02*
X-21741723Y-14647163D01*
X-21741723Y-14647163D02*
X-21760770Y-14637640D01*
X-21760770Y-14637640D02*
X-21770294Y-14618592D01*
X-21770294Y-14618592D02*
X-21770294Y-14542402D01*
X-21770294Y-14542402D02*
X-21760770Y-14523354D01*
X-21760770Y-14523354D02*
X-21741723Y-14513830D01*
X-21741723Y-14513830D02*
X-21703627Y-14513830D01*
X-21703627Y-14513830D02*
X-21684580Y-14523354D01*
X-21684580Y-14523354D02*
X-21675056Y-14542402D01*
X-21675056Y-14542402D02*
X-21675056Y-14561449D01*
X-21675056Y-14561449D02*
X-21770294Y-14580497D01*
X-21598866Y-14637640D02*
X-21579818Y-14647163D01*
X-21579818Y-14647163D02*
X-21541723Y-14647163D01*
X-21541723Y-14647163D02*
X-21522675Y-14637640D01*
X-21522675Y-14637640D02*
X-21513151Y-14618592D01*
X-21513151Y-14618592D02*
X-21513151Y-14609068D01*
X-21513151Y-14609068D02*
X-21522675Y-14590021D01*
X-21522675Y-14590021D02*
X-21541723Y-14580497D01*
X-21541723Y-14580497D02*
X-21570294Y-14580497D01*
X-21570294Y-14580497D02*
X-21589342Y-14570973D01*
X-21589342Y-14570973D02*
X-21598866Y-14551925D01*
X-21598866Y-14551925D02*
X-21598866Y-14542402D01*
X-21598866Y-14542402D02*
X-21589342Y-14523354D01*
X-21589342Y-14523354D02*
X-21570294Y-14513830D01*
X-21570294Y-14513830D02*
X-21541723Y-14513830D01*
X-21541723Y-14513830D02*
X-21522675Y-14523354D01*
X-21446485Y-14723354D02*
X-21436961Y-14713830D01*
X-21436961Y-14713830D02*
X-21417913Y-14685259D01*
X-21417913Y-14685259D02*
X-21408389Y-14666211D01*
X-21408389Y-14666211D02*
X-21398866Y-14637640D01*
X-21398866Y-14637640D02*
X-21389342Y-14590021D01*
X-21389342Y-14590021D02*
X-21389342Y-14551925D01*
X-21389342Y-14551925D02*
X-21398866Y-14504306D01*
X-21398866Y-14504306D02*
X-21408389Y-14475735D01*
X-21408389Y-14475735D02*
X-21417913Y-14456687D01*
X-21417913Y-14456687D02*
X-21436961Y-14428116D01*
X-21436961Y-14428116D02*
X-21446485Y-14418592D01*
X-21084580Y-14723354D02*
X-21094104Y-14713830D01*
X-21094104Y-14713830D02*
X-21113151Y-14685259D01*
X-21113151Y-14685259D02*
X-21122675Y-14666211D01*
X-21122675Y-14666211D02*
X-21132199Y-14637640D01*
X-21132199Y-14637640D02*
X-21141723Y-14590021D01*
X-21141723Y-14590021D02*
X-21141723Y-14551925D01*
X-21141723Y-14551925D02*
X-21132199Y-14504306D01*
X-21132199Y-14504306D02*
X-21122675Y-14475735D01*
X-21122675Y-14475735D02*
X-21113151Y-14456687D01*
X-21113151Y-14456687D02*
X-21094104Y-14428116D01*
X-21094104Y-14428116D02*
X-21084580Y-14418592D01*
X-21008389Y-14513830D02*
X-21008389Y-14647163D01*
X-21008389Y-14532878D02*
X-20998866Y-14523354D01*
X-20998866Y-14523354D02*
X-20979818Y-14513830D01*
X-20979818Y-14513830D02*
X-20951246Y-14513830D01*
X-20951246Y-14513830D02*
X-20932199Y-14523354D01*
X-20932199Y-14523354D02*
X-20922675Y-14542402D01*
X-20922675Y-14542402D02*
X-20922675Y-14647163D01*
X-20798866Y-14647163D02*
X-20817913Y-14637640D01*
X-20817913Y-14637640D02*
X-20827437Y-14628116D01*
X-20827437Y-14628116D02*
X-20836961Y-14609068D01*
X-20836961Y-14609068D02*
X-20836961Y-14551925D01*
X-20836961Y-14551925D02*
X-20827437Y-14532878D01*
X-20827437Y-14532878D02*
X-20817913Y-14523354D01*
X-20817913Y-14523354D02*
X-20798866Y-14513830D01*
X-20798866Y-14513830D02*
X-20770294Y-14513830D01*
X-20770294Y-14513830D02*
X-20751246Y-14523354D01*
X-20751246Y-14523354D02*
X-20741723Y-14532878D01*
X-20741723Y-14532878D02*
X-20732199Y-14551925D01*
X-20732199Y-14551925D02*
X-20732199Y-14609068D01*
X-20732199Y-14609068D02*
X-20741723Y-14628116D01*
X-20741723Y-14628116D02*
X-20751246Y-14637640D01*
X-20751246Y-14637640D02*
X-20770294Y-14647163D01*
X-20770294Y-14647163D02*
X-20798866Y-14647163D01*
X-20675056Y-14513830D02*
X-20598866Y-14513830D01*
X-20646485Y-14447163D02*
X-20646485Y-14618592D01*
X-20646485Y-14618592D02*
X-20636961Y-14637640D01*
X-20636961Y-14637640D02*
X-20617913Y-14647163D01*
X-20617913Y-14647163D02*
X-20598866Y-14647163D01*
X-20379818Y-14513830D02*
X-20379818Y-14713830D01*
X-20379818Y-14523354D02*
X-20360770Y-14513830D01*
X-20360770Y-14513830D02*
X-20322675Y-14513830D01*
X-20322675Y-14513830D02*
X-20303627Y-14523354D01*
X-20303627Y-14523354D02*
X-20294104Y-14532878D01*
X-20294104Y-14532878D02*
X-20284580Y-14551925D01*
X-20284580Y-14551925D02*
X-20284580Y-14609068D01*
X-20284580Y-14609068D02*
X-20294104Y-14628116D01*
X-20294104Y-14628116D02*
X-20303627Y-14637640D01*
X-20303627Y-14637640D02*
X-20322675Y-14647163D01*
X-20322675Y-14647163D02*
X-20360770Y-14647163D01*
X-20360770Y-14647163D02*
X-20379818Y-14637640D01*
X-20170294Y-14647163D02*
X-20189342Y-14637640D01*
X-20189342Y-14637640D02*
X-20198865Y-14618592D01*
X-20198865Y-14618592D02*
X-20198865Y-14447163D01*
X-20008389Y-14647163D02*
X-20008389Y-14542402D01*
X-20008389Y-14542402D02*
X-20017913Y-14523354D01*
X-20017913Y-14523354D02*
X-20036961Y-14513830D01*
X-20036961Y-14513830D02*
X-20075056Y-14513830D01*
X-20075056Y-14513830D02*
X-20094104Y-14523354D01*
X-20008389Y-14637640D02*
X-20027437Y-14647163D01*
X-20027437Y-14647163D02*
X-20075056Y-14647163D01*
X-20075056Y-14647163D02*
X-20094104Y-14637640D01*
X-20094104Y-14637640D02*
X-20103627Y-14618592D01*
X-20103627Y-14618592D02*
X-20103627Y-14599544D01*
X-20103627Y-14599544D02*
X-20094104Y-14580497D01*
X-20094104Y-14580497D02*
X-20075056Y-14570973D01*
X-20075056Y-14570973D02*
X-20027437Y-14570973D01*
X-20027437Y-14570973D02*
X-20008389Y-14561449D01*
X-19941723Y-14513830D02*
X-19865532Y-14513830D01*
X-19913151Y-14447163D02*
X-19913151Y-14618592D01*
X-19913151Y-14618592D02*
X-19903627Y-14637640D01*
X-19903627Y-14637640D02*
X-19884580Y-14647163D01*
X-19884580Y-14647163D02*
X-19865532Y-14647163D01*
X-19722675Y-14637640D02*
X-19741723Y-14647163D01*
X-19741723Y-14647163D02*
X-19779818Y-14647163D01*
X-19779818Y-14647163D02*
X-19798865Y-14637640D01*
X-19798865Y-14637640D02*
X-19808389Y-14618592D01*
X-19808389Y-14618592D02*
X-19808389Y-14542402D01*
X-19808389Y-14542402D02*
X-19798865Y-14523354D01*
X-19798865Y-14523354D02*
X-19779818Y-14513830D01*
X-19779818Y-14513830D02*
X-19741723Y-14513830D01*
X-19741723Y-14513830D02*
X-19722675Y-14523354D01*
X-19722675Y-14523354D02*
X-19713151Y-14542402D01*
X-19713151Y-14542402D02*
X-19713151Y-14561449D01*
X-19713151Y-14561449D02*
X-19808389Y-14580497D01*
X-19541723Y-14647163D02*
X-19541723Y-14447163D01*
X-19541723Y-14637640D02*
X-19560770Y-14647163D01*
X-19560770Y-14647163D02*
X-19598865Y-14647163D01*
X-19598865Y-14647163D02*
X-19617913Y-14637640D01*
X-19617913Y-14637640D02*
X-19627437Y-14628116D01*
X-19627437Y-14628116D02*
X-19636961Y-14609068D01*
X-19636961Y-14609068D02*
X-19636961Y-14551925D01*
X-19636961Y-14551925D02*
X-19627437Y-14532878D01*
X-19627437Y-14532878D02*
X-19617913Y-14523354D01*
X-19617913Y-14523354D02*
X-19598865Y-14513830D01*
X-19598865Y-14513830D02*
X-19560770Y-14513830D01*
X-19560770Y-14513830D02*
X-19541723Y-14523354D01*
X-19465532Y-14723354D02*
X-19456008Y-14713830D01*
X-19456008Y-14713830D02*
X-19436961Y-14685259D01*
X-19436961Y-14685259D02*
X-19427437Y-14666211D01*
X-19427437Y-14666211D02*
X-19417913Y-14637640D01*
X-19417913Y-14637640D02*
X-19408389Y-14590021D01*
X-19408389Y-14590021D02*
X-19408389Y-14551925D01*
X-19408389Y-14551925D02*
X-19417913Y-14504306D01*
X-19417913Y-14504306D02*
X-19427437Y-14475735D01*
X-19427437Y-14475735D02*
X-19436961Y-14456687D01*
X-19436961Y-14456687D02*
X-19456008Y-14428116D01*
X-19456008Y-14428116D02*
X-19465532Y-14418592D01*
X-26602500Y-14845680D02*
G75*
G02*
X-26802500Y-14845680I-100000J0D01*
G01*
X-26802500Y-14845680D02*
G75*
G02*
X-26602500Y-14845680I100000J0D01*
G01*
X-26360771Y-14737163D02*
X-26236961Y-14737163D01*
X-26236961Y-14737163D02*
X-26303628Y-14813354D01*
X-26303628Y-14813354D02*
X-26275056Y-14813354D01*
X-26275056Y-14813354D02*
X-26256009Y-14822878D01*
X-26256009Y-14822878D02*
X-26246485Y-14832402D01*
X-26246485Y-14832402D02*
X-26236961Y-14851449D01*
X-26236961Y-14851449D02*
X-26236961Y-14899068D01*
X-26236961Y-14899068D02*
X-26246485Y-14918116D01*
X-26246485Y-14918116D02*
X-26256009Y-14927640D01*
X-26256009Y-14927640D02*
X-26275056Y-14937163D01*
X-26275056Y-14937163D02*
X-26332199Y-14937163D01*
X-26332199Y-14937163D02*
X-26351247Y-14927640D01*
X-26351247Y-14927640D02*
X-26360771Y-14918116D01*
X-26151247Y-14918116D02*
X-26141723Y-14927640D01*
X-26141723Y-14927640D02*
X-26151247Y-14937163D01*
X-26151247Y-14937163D02*
X-26160771Y-14927640D01*
X-26160771Y-14927640D02*
X-26151247Y-14918116D01*
X-26151247Y-14918116D02*
X-26151247Y-14937163D01*
X-26017914Y-14737163D02*
X-25998866Y-14737163D01*
X-25998866Y-14737163D02*
X-25979818Y-14746687D01*
X-25979818Y-14746687D02*
X-25970294Y-14756211D01*
X-25970294Y-14756211D02*
X-25960771Y-14775259D01*
X-25960771Y-14775259D02*
X-25951247Y-14813354D01*
X-25951247Y-14813354D02*
X-25951247Y-14860973D01*
X-25951247Y-14860973D02*
X-25960771Y-14899068D01*
X-25960771Y-14899068D02*
X-25970294Y-14918116D01*
X-25970294Y-14918116D02*
X-25979818Y-14927640D01*
X-25979818Y-14927640D02*
X-25998866Y-14937163D01*
X-25998866Y-14937163D02*
X-26017914Y-14937163D01*
X-26017914Y-14937163D02*
X-26036961Y-14927640D01*
X-26036961Y-14927640D02*
X-26046485Y-14918116D01*
X-26046485Y-14918116D02*
X-26056009Y-14899068D01*
X-26056009Y-14899068D02*
X-26065533Y-14860973D01*
X-26065533Y-14860973D02*
X-26065533Y-14813354D01*
X-26065533Y-14813354D02*
X-26056009Y-14775259D01*
X-26056009Y-14775259D02*
X-26046485Y-14756211D01*
X-26046485Y-14756211D02*
X-26036961Y-14746687D01*
X-26036961Y-14746687D02*
X-26017914Y-14737163D01*
X-25779818Y-14803830D02*
X-25779818Y-14937163D01*
X-25827437Y-14727640D02*
X-25875056Y-14870497D01*
X-25875056Y-14870497D02*
X-25751247Y-14870497D01*
X-25646485Y-14822878D02*
X-25665533Y-14813354D01*
X-25665533Y-14813354D02*
X-25675056Y-14803830D01*
X-25675056Y-14803830D02*
X-25684580Y-14784782D01*
X-25684580Y-14784782D02*
X-25684580Y-14775259D01*
X-25684580Y-14775259D02*
X-25675056Y-14756211D01*
X-25675056Y-14756211D02*
X-25665533Y-14746687D01*
X-25665533Y-14746687D02*
X-25646485Y-14737163D01*
X-25646485Y-14737163D02*
X-25608390Y-14737163D01*
X-25608390Y-14737163D02*
X-25589342Y-14746687D01*
X-25589342Y-14746687D02*
X-25579818Y-14756211D01*
X-25579818Y-14756211D02*
X-25570294Y-14775259D01*
X-25570294Y-14775259D02*
X-25570294Y-14784782D01*
X-25570294Y-14784782D02*
X-25579818Y-14803830D01*
X-25579818Y-14803830D02*
X-25589342Y-14813354D01*
X-25589342Y-14813354D02*
X-25608390Y-14822878D01*
X-25608390Y-14822878D02*
X-25646485Y-14822878D01*
X-25646485Y-14822878D02*
X-25665533Y-14832402D01*
X-25665533Y-14832402D02*
X-25675056Y-14841925D01*
X-25675056Y-14841925D02*
X-25684580Y-14860973D01*
X-25684580Y-14860973D02*
X-25684580Y-14899068D01*
X-25684580Y-14899068D02*
X-25675056Y-14918116D01*
X-25675056Y-14918116D02*
X-25665533Y-14927640D01*
X-25665533Y-14927640D02*
X-25646485Y-14937163D01*
X-25646485Y-14937163D02*
X-25608390Y-14937163D01*
X-25608390Y-14937163D02*
X-25589342Y-14927640D01*
X-25589342Y-14927640D02*
X-25579818Y-14918116D01*
X-25579818Y-14918116D02*
X-25570294Y-14899068D01*
X-25570294Y-14899068D02*
X-25570294Y-14860973D01*
X-25570294Y-14860973D02*
X-25579818Y-14841925D01*
X-25579818Y-14841925D02*
X-25589342Y-14832402D01*
X-25589342Y-14832402D02*
X-25608390Y-14822878D01*
X-25484580Y-14937163D02*
X-25484580Y-14803830D01*
X-25484580Y-14822878D02*
X-25475056Y-14813354D01*
X-25475056Y-14813354D02*
X-25456009Y-14803830D01*
X-25456009Y-14803830D02*
X-25427437Y-14803830D01*
X-25427437Y-14803830D02*
X-25408390Y-14813354D01*
X-25408390Y-14813354D02*
X-25398866Y-14832402D01*
X-25398866Y-14832402D02*
X-25398866Y-14937163D01*
X-25398866Y-14832402D02*
X-25389342Y-14813354D01*
X-25389342Y-14813354D02*
X-25370294Y-14803830D01*
X-25370294Y-14803830D02*
X-25341723Y-14803830D01*
X-25341723Y-14803830D02*
X-25322675Y-14813354D01*
X-25322675Y-14813354D02*
X-25313152Y-14832402D01*
X-25313152Y-14832402D02*
X-25313152Y-14937163D01*
X-25217913Y-14937163D02*
X-25217913Y-14803830D01*
X-25217913Y-14822878D02*
X-25208390Y-14813354D01*
X-25208390Y-14813354D02*
X-25189342Y-14803830D01*
X-25189342Y-14803830D02*
X-25160771Y-14803830D01*
X-25160771Y-14803830D02*
X-25141723Y-14813354D01*
X-25141723Y-14813354D02*
X-25132199Y-14832402D01*
X-25132199Y-14832402D02*
X-25132199Y-14937163D01*
X-25132199Y-14832402D02*
X-25122675Y-14813354D01*
X-25122675Y-14813354D02*
X-25103628Y-14803830D01*
X-25103628Y-14803830D02*
X-25075056Y-14803830D01*
X-25075056Y-14803830D02*
X-25056009Y-14813354D01*
X-25056009Y-14813354D02*
X-25046485Y-14832402D01*
X-25046485Y-14832402D02*
X-25046485Y-14937163D01*
X-24656009Y-14727640D02*
X-24827437Y-14984782D01*
X-24398866Y-14737163D02*
X-24379818Y-14737163D01*
X-24379818Y-14737163D02*
X-24360770Y-14746687D01*
X-24360770Y-14746687D02*
X-24351247Y-14756211D01*
X-24351247Y-14756211D02*
X-24341723Y-14775259D01*
X-24341723Y-14775259D02*
X-24332199Y-14813354D01*
X-24332199Y-14813354D02*
X-24332199Y-14860973D01*
X-24332199Y-14860973D02*
X-24341723Y-14899068D01*
X-24341723Y-14899068D02*
X-24351247Y-14918116D01*
X-24351247Y-14918116D02*
X-24360770Y-14927640D01*
X-24360770Y-14927640D02*
X-24379818Y-14937163D01*
X-24379818Y-14937163D02*
X-24398866Y-14937163D01*
X-24398866Y-14937163D02*
X-24417913Y-14927640D01*
X-24417913Y-14927640D02*
X-24427437Y-14918116D01*
X-24427437Y-14918116D02*
X-24436961Y-14899068D01*
X-24436961Y-14899068D02*
X-24446485Y-14860973D01*
X-24446485Y-14860973D02*
X-24446485Y-14813354D01*
X-24446485Y-14813354D02*
X-24436961Y-14775259D01*
X-24436961Y-14775259D02*
X-24427437Y-14756211D01*
X-24427437Y-14756211D02*
X-24417913Y-14746687D01*
X-24417913Y-14746687D02*
X-24398866Y-14737163D01*
X-24246485Y-14918116D02*
X-24236961Y-14927640D01*
X-24236961Y-14927640D02*
X-24246485Y-14937163D01*
X-24246485Y-14937163D02*
X-24256009Y-14927640D01*
X-24256009Y-14927640D02*
X-24246485Y-14918116D01*
X-24246485Y-14918116D02*
X-24246485Y-14937163D01*
X-24046485Y-14937163D02*
X-24160770Y-14937163D01*
X-24103628Y-14937163D02*
X-24103628Y-14737163D01*
X-24103628Y-14737163D02*
X-24122675Y-14765735D01*
X-24122675Y-14765735D02*
X-24141723Y-14784782D01*
X-24141723Y-14784782D02*
X-24160770Y-14794306D01*
X-23970294Y-14756211D02*
X-23960770Y-14746687D01*
X-23960770Y-14746687D02*
X-23941723Y-14737163D01*
X-23941723Y-14737163D02*
X-23894104Y-14737163D01*
X-23894104Y-14737163D02*
X-23875056Y-14746687D01*
X-23875056Y-14746687D02*
X-23865532Y-14756211D01*
X-23865532Y-14756211D02*
X-23856009Y-14775259D01*
X-23856009Y-14775259D02*
X-23856009Y-14794306D01*
X-23856009Y-14794306D02*
X-23865532Y-14822878D01*
X-23865532Y-14822878D02*
X-23979818Y-14937163D01*
X-23979818Y-14937163D02*
X-23856009Y-14937163D01*
X-23732199Y-14737163D02*
X-23713151Y-14737163D01*
X-23713151Y-14737163D02*
X-23694104Y-14746687D01*
X-23694104Y-14746687D02*
X-23684580Y-14756211D01*
X-23684580Y-14756211D02*
X-23675056Y-14775259D01*
X-23675056Y-14775259D02*
X-23665532Y-14813354D01*
X-23665532Y-14813354D02*
X-23665532Y-14860973D01*
X-23665532Y-14860973D02*
X-23675056Y-14899068D01*
X-23675056Y-14899068D02*
X-23684580Y-14918116D01*
X-23684580Y-14918116D02*
X-23694104Y-14927640D01*
X-23694104Y-14927640D02*
X-23713151Y-14937163D01*
X-23713151Y-14937163D02*
X-23732199Y-14937163D01*
X-23732199Y-14937163D02*
X-23751247Y-14927640D01*
X-23751247Y-14927640D02*
X-23760770Y-14918116D01*
X-23760770Y-14918116D02*
X-23770294Y-14899068D01*
X-23770294Y-14899068D02*
X-23779818Y-14860973D01*
X-23779818Y-14860973D02*
X-23779818Y-14813354D01*
X-23779818Y-14813354D02*
X-23770294Y-14775259D01*
X-23770294Y-14775259D02*
X-23760770Y-14756211D01*
X-23760770Y-14756211D02*
X-23751247Y-14746687D01*
X-23751247Y-14746687D02*
X-23732199Y-14737163D01*
X-23541723Y-14737163D02*
X-23522675Y-14737163D01*
X-23522675Y-14737163D02*
X-23503628Y-14746687D01*
X-23503628Y-14746687D02*
X-23494104Y-14756211D01*
X-23494104Y-14756211D02*
X-23484580Y-14775259D01*
X-23484580Y-14775259D02*
X-23475056Y-14813354D01*
X-23475056Y-14813354D02*
X-23475056Y-14860973D01*
X-23475056Y-14860973D02*
X-23484580Y-14899068D01*
X-23484580Y-14899068D02*
X-23494104Y-14918116D01*
X-23494104Y-14918116D02*
X-23503628Y-14927640D01*
X-23503628Y-14927640D02*
X-23522675Y-14937163D01*
X-23522675Y-14937163D02*
X-23541723Y-14937163D01*
X-23541723Y-14937163D02*
X-23560770Y-14927640D01*
X-23560770Y-14927640D02*
X-23570294Y-14918116D01*
X-23570294Y-14918116D02*
X-23579818Y-14899068D01*
X-23579818Y-14899068D02*
X-23589342Y-14860973D01*
X-23589342Y-14860973D02*
X-23589342Y-14813354D01*
X-23589342Y-14813354D02*
X-23579818Y-14775259D01*
X-23579818Y-14775259D02*
X-23570294Y-14756211D01*
X-23570294Y-14756211D02*
X-23560770Y-14746687D01*
X-23560770Y-14746687D02*
X-23541723Y-14737163D01*
X-23398866Y-14737163D02*
X-23398866Y-14775259D01*
X-23322675Y-14737163D02*
X-23322675Y-14775259D01*
X-23027437Y-15013354D02*
X-23036961Y-15003830D01*
X-23036961Y-15003830D02*
X-23056008Y-14975259D01*
X-23056008Y-14975259D02*
X-23065532Y-14956211D01*
X-23065532Y-14956211D02*
X-23075056Y-14927640D01*
X-23075056Y-14927640D02*
X-23084580Y-14880021D01*
X-23084580Y-14880021D02*
X-23084580Y-14841925D01*
X-23084580Y-14841925D02*
X-23075056Y-14794306D01*
X-23075056Y-14794306D02*
X-23065532Y-14765735D01*
X-23065532Y-14765735D02*
X-23056008Y-14746687D01*
X-23056008Y-14746687D02*
X-23036961Y-14718116D01*
X-23036961Y-14718116D02*
X-23027437Y-14708592D01*
X-22922675Y-14822878D02*
X-22941723Y-14813354D01*
X-22941723Y-14813354D02*
X-22951247Y-14803830D01*
X-22951247Y-14803830D02*
X-22960770Y-14784782D01*
X-22960770Y-14784782D02*
X-22960770Y-14775259D01*
X-22960770Y-14775259D02*
X-22951247Y-14756211D01*
X-22951247Y-14756211D02*
X-22941723Y-14746687D01*
X-22941723Y-14746687D02*
X-22922675Y-14737163D01*
X-22922675Y-14737163D02*
X-22884580Y-14737163D01*
X-22884580Y-14737163D02*
X-22865532Y-14746687D01*
X-22865532Y-14746687D02*
X-22856008Y-14756211D01*
X-22856008Y-14756211D02*
X-22846485Y-14775259D01*
X-22846485Y-14775259D02*
X-22846485Y-14784782D01*
X-22846485Y-14784782D02*
X-22856008Y-14803830D01*
X-22856008Y-14803830D02*
X-22865532Y-14813354D01*
X-22865532Y-14813354D02*
X-22884580Y-14822878D01*
X-22884580Y-14822878D02*
X-22922675Y-14822878D01*
X-22922675Y-14822878D02*
X-22941723Y-14832402D01*
X-22941723Y-14832402D02*
X-22951247Y-14841925D01*
X-22951247Y-14841925D02*
X-22960770Y-14860973D01*
X-22960770Y-14860973D02*
X-22960770Y-14899068D01*
X-22960770Y-14899068D02*
X-22951247Y-14918116D01*
X-22951247Y-14918116D02*
X-22941723Y-14927640D01*
X-22941723Y-14927640D02*
X-22922675Y-14937163D01*
X-22922675Y-14937163D02*
X-22884580Y-14937163D01*
X-22884580Y-14937163D02*
X-22865532Y-14927640D01*
X-22865532Y-14927640D02*
X-22856008Y-14918116D01*
X-22856008Y-14918116D02*
X-22846485Y-14899068D01*
X-22846485Y-14899068D02*
X-22846485Y-14860973D01*
X-22846485Y-14860973D02*
X-22856008Y-14841925D01*
X-22856008Y-14841925D02*
X-22865532Y-14832402D01*
X-22865532Y-14832402D02*
X-22884580Y-14822878D01*
X-22608389Y-14937163D02*
X-22608389Y-14737163D01*
X-22522675Y-14937163D02*
X-22522675Y-14832402D01*
X-22522675Y-14832402D02*
X-22532199Y-14813354D01*
X-22532199Y-14813354D02*
X-22551246Y-14803830D01*
X-22551246Y-14803830D02*
X-22579818Y-14803830D01*
X-22579818Y-14803830D02*
X-22598866Y-14813354D01*
X-22598866Y-14813354D02*
X-22608389Y-14822878D01*
X-22398866Y-14937163D02*
X-22417913Y-14927640D01*
X-22417913Y-14927640D02*
X-22427437Y-14918116D01*
X-22427437Y-14918116D02*
X-22436961Y-14899068D01*
X-22436961Y-14899068D02*
X-22436961Y-14841925D01*
X-22436961Y-14841925D02*
X-22427437Y-14822878D01*
X-22427437Y-14822878D02*
X-22417913Y-14813354D01*
X-22417913Y-14813354D02*
X-22398866Y-14803830D01*
X-22398866Y-14803830D02*
X-22370294Y-14803830D01*
X-22370294Y-14803830D02*
X-22351247Y-14813354D01*
X-22351247Y-14813354D02*
X-22341723Y-14822878D01*
X-22341723Y-14822878D02*
X-22332199Y-14841925D01*
X-22332199Y-14841925D02*
X-22332199Y-14899068D01*
X-22332199Y-14899068D02*
X-22341723Y-14918116D01*
X-22341723Y-14918116D02*
X-22351247Y-14927640D01*
X-22351247Y-14927640D02*
X-22370294Y-14937163D01*
X-22370294Y-14937163D02*
X-22398866Y-14937163D01*
X-22217913Y-14937163D02*
X-22236961Y-14927640D01*
X-22236961Y-14927640D02*
X-22246485Y-14908592D01*
X-22246485Y-14908592D02*
X-22246485Y-14737163D01*
X-22065532Y-14927640D02*
X-22084580Y-14937163D01*
X-22084580Y-14937163D02*
X-22122675Y-14937163D01*
X-22122675Y-14937163D02*
X-22141723Y-14927640D01*
X-22141723Y-14927640D02*
X-22151247Y-14908592D01*
X-22151247Y-14908592D02*
X-22151247Y-14832402D01*
X-22151247Y-14832402D02*
X-22141723Y-14813354D01*
X-22141723Y-14813354D02*
X-22122675Y-14803830D01*
X-22122675Y-14803830D02*
X-22084580Y-14803830D01*
X-22084580Y-14803830D02*
X-22065532Y-14813354D01*
X-22065532Y-14813354D02*
X-22056008Y-14832402D01*
X-22056008Y-14832402D02*
X-22056008Y-14851449D01*
X-22056008Y-14851449D02*
X-22151247Y-14870497D01*
X-21979818Y-14927640D02*
X-21960770Y-14937163D01*
X-21960770Y-14937163D02*
X-21922675Y-14937163D01*
X-21922675Y-14937163D02*
X-21903627Y-14927640D01*
X-21903627Y-14927640D02*
X-21894104Y-14908592D01*
X-21894104Y-14908592D02*
X-21894104Y-14899068D01*
X-21894104Y-14899068D02*
X-21903627Y-14880021D01*
X-21903627Y-14880021D02*
X-21922675Y-14870497D01*
X-21922675Y-14870497D02*
X-21951247Y-14870497D01*
X-21951247Y-14870497D02*
X-21970294Y-14860973D01*
X-21970294Y-14860973D02*
X-21979818Y-14841925D01*
X-21979818Y-14841925D02*
X-21979818Y-14832402D01*
X-21979818Y-14832402D02*
X-21970294Y-14813354D01*
X-21970294Y-14813354D02*
X-21951247Y-14803830D01*
X-21951247Y-14803830D02*
X-21922675Y-14803830D01*
X-21922675Y-14803830D02*
X-21903627Y-14813354D01*
X-21827437Y-15013354D02*
X-21817913Y-15003830D01*
X-21817913Y-15003830D02*
X-21798866Y-14975259D01*
X-21798866Y-14975259D02*
X-21789342Y-14956211D01*
X-21789342Y-14956211D02*
X-21779818Y-14927640D01*
X-21779818Y-14927640D02*
X-21770294Y-14880021D01*
X-21770294Y-14880021D02*
X-21770294Y-14841925D01*
X-21770294Y-14841925D02*
X-21779818Y-14794306D01*
X-21779818Y-14794306D02*
X-21789342Y-14765735D01*
X-21789342Y-14765735D02*
X-21798866Y-14746687D01*
X-21798866Y-14746687D02*
X-21817913Y-14718116D01*
X-21817913Y-14718116D02*
X-21827437Y-14708592D01*
X-21465532Y-15013354D02*
X-21475056Y-15003830D01*
X-21475056Y-15003830D02*
X-21494104Y-14975259D01*
X-21494104Y-14975259D02*
X-21503627Y-14956211D01*
X-21503627Y-14956211D02*
X-21513151Y-14927640D01*
X-21513151Y-14927640D02*
X-21522675Y-14880021D01*
X-21522675Y-14880021D02*
X-21522675Y-14841925D01*
X-21522675Y-14841925D02*
X-21513151Y-14794306D01*
X-21513151Y-14794306D02*
X-21503627Y-14765735D01*
X-21503627Y-14765735D02*
X-21494104Y-14746687D01*
X-21494104Y-14746687D02*
X-21475056Y-14718116D01*
X-21475056Y-14718116D02*
X-21465532Y-14708592D01*
X-21389342Y-14803830D02*
X-21389342Y-14937163D01*
X-21389342Y-14822878D02*
X-21379818Y-14813354D01*
X-21379818Y-14813354D02*
X-21360770Y-14803830D01*
X-21360770Y-14803830D02*
X-21332199Y-14803830D01*
X-21332199Y-14803830D02*
X-21313151Y-14813354D01*
X-21313151Y-14813354D02*
X-21303627Y-14832402D01*
X-21303627Y-14832402D02*
X-21303627Y-14937163D01*
X-21179818Y-14937163D02*
X-21198866Y-14927640D01*
X-21198866Y-14927640D02*
X-21208389Y-14918116D01*
X-21208389Y-14918116D02*
X-21217913Y-14899068D01*
X-21217913Y-14899068D02*
X-21217913Y-14841925D01*
X-21217913Y-14841925D02*
X-21208389Y-14822878D01*
X-21208389Y-14822878D02*
X-21198866Y-14813354D01*
X-21198866Y-14813354D02*
X-21179818Y-14803830D01*
X-21179818Y-14803830D02*
X-21151246Y-14803830D01*
X-21151246Y-14803830D02*
X-21132199Y-14813354D01*
X-21132199Y-14813354D02*
X-21122675Y-14822878D01*
X-21122675Y-14822878D02*
X-21113151Y-14841925D01*
X-21113151Y-14841925D02*
X-21113151Y-14899068D01*
X-21113151Y-14899068D02*
X-21122675Y-14918116D01*
X-21122675Y-14918116D02*
X-21132199Y-14927640D01*
X-21132199Y-14927640D02*
X-21151246Y-14937163D01*
X-21151246Y-14937163D02*
X-21179818Y-14937163D01*
X-21056008Y-14803830D02*
X-20979818Y-14803830D01*
X-21027437Y-14737163D02*
X-21027437Y-14908592D01*
X-21027437Y-14908592D02*
X-21017913Y-14927640D01*
X-21017913Y-14927640D02*
X-20998866Y-14937163D01*
X-20998866Y-14937163D02*
X-20979818Y-14937163D01*
X-20760770Y-14803830D02*
X-20760770Y-15003830D01*
X-20760770Y-14813354D02*
X-20741723Y-14803830D01*
X-20741723Y-14803830D02*
X-20703627Y-14803830D01*
X-20703627Y-14803830D02*
X-20684580Y-14813354D01*
X-20684580Y-14813354D02*
X-20675056Y-14822878D01*
X-20675056Y-14822878D02*
X-20665532Y-14841925D01*
X-20665532Y-14841925D02*
X-20665532Y-14899068D01*
X-20665532Y-14899068D02*
X-20675056Y-14918116D01*
X-20675056Y-14918116D02*
X-20684580Y-14927640D01*
X-20684580Y-14927640D02*
X-20703627Y-14937163D01*
X-20703627Y-14937163D02*
X-20741723Y-14937163D01*
X-20741723Y-14937163D02*
X-20760770Y-14927640D01*
X-20551246Y-14937163D02*
X-20570294Y-14927640D01*
X-20570294Y-14927640D02*
X-20579818Y-14908592D01*
X-20579818Y-14908592D02*
X-20579818Y-14737163D01*
X-20389342Y-14937163D02*
X-20389342Y-14832402D01*
X-20389342Y-14832402D02*
X-20398865Y-14813354D01*
X-20398865Y-14813354D02*
X-20417913Y-14803830D01*
X-20417913Y-14803830D02*
X-20456008Y-14803830D01*
X-20456008Y-14803830D02*
X-20475056Y-14813354D01*
X-20389342Y-14927640D02*
X-20408389Y-14937163D01*
X-20408389Y-14937163D02*
X-20456008Y-14937163D01*
X-20456008Y-14937163D02*
X-20475056Y-14927640D01*
X-20475056Y-14927640D02*
X-20484580Y-14908592D01*
X-20484580Y-14908592D02*
X-20484580Y-14889544D01*
X-20484580Y-14889544D02*
X-20475056Y-14870497D01*
X-20475056Y-14870497D02*
X-20456008Y-14860973D01*
X-20456008Y-14860973D02*
X-20408389Y-14860973D01*
X-20408389Y-14860973D02*
X-20389342Y-14851449D01*
X-20322675Y-14803830D02*
X-20246485Y-14803830D01*
X-20294104Y-14737163D02*
X-20294104Y-14908592D01*
X-20294104Y-14908592D02*
X-20284580Y-14927640D01*
X-20284580Y-14927640D02*
X-20265532Y-14937163D01*
X-20265532Y-14937163D02*
X-20246485Y-14937163D01*
X-20103627Y-14927640D02*
X-20122675Y-14937163D01*
X-20122675Y-14937163D02*
X-20160770Y-14937163D01*
X-20160770Y-14937163D02*
X-20179818Y-14927640D01*
X-20179818Y-14927640D02*
X-20189342Y-14908592D01*
X-20189342Y-14908592D02*
X-20189342Y-14832402D01*
X-20189342Y-14832402D02*
X-20179818Y-14813354D01*
X-20179818Y-14813354D02*
X-20160770Y-14803830D01*
X-20160770Y-14803830D02*
X-20122675Y-14803830D01*
X-20122675Y-14803830D02*
X-20103627Y-14813354D01*
X-20103627Y-14813354D02*
X-20094104Y-14832402D01*
X-20094104Y-14832402D02*
X-20094104Y-14851449D01*
X-20094104Y-14851449D02*
X-20189342Y-14870497D01*
X-19922675Y-14937163D02*
X-19922675Y-14737163D01*
X-19922675Y-14927640D02*
X-19941723Y-14937163D01*
X-19941723Y-14937163D02*
X-19979818Y-14937163D01*
X-19979818Y-14937163D02*
X-19998865Y-14927640D01*
X-19998865Y-14927640D02*
X-20008389Y-14918116D01*
X-20008389Y-14918116D02*
X-20017913Y-14899068D01*
X-20017913Y-14899068D02*
X-20017913Y-14841925D01*
X-20017913Y-14841925D02*
X-20008389Y-14822878D01*
X-20008389Y-14822878D02*
X-19998865Y-14813354D01*
X-19998865Y-14813354D02*
X-19979818Y-14803830D01*
X-19979818Y-14803830D02*
X-19941723Y-14803830D01*
X-19941723Y-14803830D02*
X-19922675Y-14813354D01*
X-19846484Y-15013354D02*
X-19836961Y-15003830D01*
X-19836961Y-15003830D02*
X-19817913Y-14975259D01*
X-19817913Y-14975259D02*
X-19808389Y-14956211D01*
X-19808389Y-14956211D02*
X-19798865Y-14927640D01*
X-19798865Y-14927640D02*
X-19789342Y-14880021D01*
X-19789342Y-14880021D02*
X-19789342Y-14841925D01*
X-19789342Y-14841925D02*
X-19798865Y-14794306D01*
X-19798865Y-14794306D02*
X-19808389Y-14765735D01*
X-19808389Y-14765735D02*
X-19817913Y-14746687D01*
X-19817913Y-14746687D02*
X-19836961Y-14718116D01*
X-19836961Y-14718116D02*
X-19846484Y-14708592D01*
X-26702500Y-15065680D02*
X-26702500Y-15265680D01*
X-26802500Y-15165680D02*
X-26602500Y-15165680D01*
X-26360771Y-15057163D02*
X-26236961Y-15057163D01*
X-26236961Y-15057163D02*
X-26303628Y-15133354D01*
X-26303628Y-15133354D02*
X-26275056Y-15133354D01*
X-26275056Y-15133354D02*
X-26256009Y-15142878D01*
X-26256009Y-15142878D02*
X-26246485Y-15152402D01*
X-26246485Y-15152402D02*
X-26236961Y-15171449D01*
X-26236961Y-15171449D02*
X-26236961Y-15219068D01*
X-26236961Y-15219068D02*
X-26246485Y-15238116D01*
X-26246485Y-15238116D02*
X-26256009Y-15247640D01*
X-26256009Y-15247640D02*
X-26275056Y-15257163D01*
X-26275056Y-15257163D02*
X-26332199Y-15257163D01*
X-26332199Y-15257163D02*
X-26351247Y-15247640D01*
X-26351247Y-15247640D02*
X-26360771Y-15238116D01*
X-26151247Y-15238116D02*
X-26141723Y-15247640D01*
X-26141723Y-15247640D02*
X-26151247Y-15257163D01*
X-26151247Y-15257163D02*
X-26160771Y-15247640D01*
X-26160771Y-15247640D02*
X-26151247Y-15238116D01*
X-26151247Y-15238116D02*
X-26151247Y-15257163D01*
X-26046485Y-15257163D02*
X-26008390Y-15257163D01*
X-26008390Y-15257163D02*
X-25989342Y-15247640D01*
X-25989342Y-15247640D02*
X-25979818Y-15238116D01*
X-25979818Y-15238116D02*
X-25960771Y-15209544D01*
X-25960771Y-15209544D02*
X-25951247Y-15171449D01*
X-25951247Y-15171449D02*
X-25951247Y-15095259D01*
X-25951247Y-15095259D02*
X-25960771Y-15076211D01*
X-25960771Y-15076211D02*
X-25970294Y-15066687D01*
X-25970294Y-15066687D02*
X-25989342Y-15057163D01*
X-25989342Y-15057163D02*
X-26027437Y-15057163D01*
X-26027437Y-15057163D02*
X-26046485Y-15066687D01*
X-26046485Y-15066687D02*
X-26056009Y-15076211D01*
X-26056009Y-15076211D02*
X-26065533Y-15095259D01*
X-26065533Y-15095259D02*
X-26065533Y-15142878D01*
X-26065533Y-15142878D02*
X-26056009Y-15161925D01*
X-26056009Y-15161925D02*
X-26046485Y-15171449D01*
X-26046485Y-15171449D02*
X-26027437Y-15180973D01*
X-26027437Y-15180973D02*
X-25989342Y-15180973D01*
X-25989342Y-15180973D02*
X-25970294Y-15171449D01*
X-25970294Y-15171449D02*
X-25960771Y-15161925D01*
X-25960771Y-15161925D02*
X-25951247Y-15142878D01*
X-25836961Y-15142878D02*
X-25856009Y-15133354D01*
X-25856009Y-15133354D02*
X-25865533Y-15123830D01*
X-25865533Y-15123830D02*
X-25875056Y-15104782D01*
X-25875056Y-15104782D02*
X-25875056Y-15095259D01*
X-25875056Y-15095259D02*
X-25865533Y-15076211D01*
X-25865533Y-15076211D02*
X-25856009Y-15066687D01*
X-25856009Y-15066687D02*
X-25836961Y-15057163D01*
X-25836961Y-15057163D02*
X-25798866Y-15057163D01*
X-25798866Y-15057163D02*
X-25779818Y-15066687D01*
X-25779818Y-15066687D02*
X-25770294Y-15076211D01*
X-25770294Y-15076211D02*
X-25760771Y-15095259D01*
X-25760771Y-15095259D02*
X-25760771Y-15104782D01*
X-25760771Y-15104782D02*
X-25770294Y-15123830D01*
X-25770294Y-15123830D02*
X-25779818Y-15133354D01*
X-25779818Y-15133354D02*
X-25798866Y-15142878D01*
X-25798866Y-15142878D02*
X-25836961Y-15142878D01*
X-25836961Y-15142878D02*
X-25856009Y-15152402D01*
X-25856009Y-15152402D02*
X-25865533Y-15161925D01*
X-25865533Y-15161925D02*
X-25875056Y-15180973D01*
X-25875056Y-15180973D02*
X-25875056Y-15219068D01*
X-25875056Y-15219068D02*
X-25865533Y-15238116D01*
X-25865533Y-15238116D02*
X-25856009Y-15247640D01*
X-25856009Y-15247640D02*
X-25836961Y-15257163D01*
X-25836961Y-15257163D02*
X-25798866Y-15257163D01*
X-25798866Y-15257163D02*
X-25779818Y-15247640D01*
X-25779818Y-15247640D02*
X-25770294Y-15238116D01*
X-25770294Y-15238116D02*
X-25760771Y-15219068D01*
X-25760771Y-15219068D02*
X-25760771Y-15180973D01*
X-25760771Y-15180973D02*
X-25770294Y-15161925D01*
X-25770294Y-15161925D02*
X-25779818Y-15152402D01*
X-25779818Y-15152402D02*
X-25798866Y-15142878D01*
X-25646485Y-15142878D02*
X-25665533Y-15133354D01*
X-25665533Y-15133354D02*
X-25675056Y-15123830D01*
X-25675056Y-15123830D02*
X-25684580Y-15104782D01*
X-25684580Y-15104782D02*
X-25684580Y-15095259D01*
X-25684580Y-15095259D02*
X-25675056Y-15076211D01*
X-25675056Y-15076211D02*
X-25665533Y-15066687D01*
X-25665533Y-15066687D02*
X-25646485Y-15057163D01*
X-25646485Y-15057163D02*
X-25608390Y-15057163D01*
X-25608390Y-15057163D02*
X-25589342Y-15066687D01*
X-25589342Y-15066687D02*
X-25579818Y-15076211D01*
X-25579818Y-15076211D02*
X-25570294Y-15095259D01*
X-25570294Y-15095259D02*
X-25570294Y-15104782D01*
X-25570294Y-15104782D02*
X-25579818Y-15123830D01*
X-25579818Y-15123830D02*
X-25589342Y-15133354D01*
X-25589342Y-15133354D02*
X-25608390Y-15142878D01*
X-25608390Y-15142878D02*
X-25646485Y-15142878D01*
X-25646485Y-15142878D02*
X-25665533Y-15152402D01*
X-25665533Y-15152402D02*
X-25675056Y-15161925D01*
X-25675056Y-15161925D02*
X-25684580Y-15180973D01*
X-25684580Y-15180973D02*
X-25684580Y-15219068D01*
X-25684580Y-15219068D02*
X-25675056Y-15238116D01*
X-25675056Y-15238116D02*
X-25665533Y-15247640D01*
X-25665533Y-15247640D02*
X-25646485Y-15257163D01*
X-25646485Y-15257163D02*
X-25608390Y-15257163D01*
X-25608390Y-15257163D02*
X-25589342Y-15247640D01*
X-25589342Y-15247640D02*
X-25579818Y-15238116D01*
X-25579818Y-15238116D02*
X-25570294Y-15219068D01*
X-25570294Y-15219068D02*
X-25570294Y-15180973D01*
X-25570294Y-15180973D02*
X-25579818Y-15161925D01*
X-25579818Y-15161925D02*
X-25589342Y-15152402D01*
X-25589342Y-15152402D02*
X-25608390Y-15142878D01*
X-25484580Y-15257163D02*
X-25484580Y-15123830D01*
X-25484580Y-15142878D02*
X-25475056Y-15133354D01*
X-25475056Y-15133354D02*
X-25456009Y-15123830D01*
X-25456009Y-15123830D02*
X-25427437Y-15123830D01*
X-25427437Y-15123830D02*
X-25408390Y-15133354D01*
X-25408390Y-15133354D02*
X-25398866Y-15152402D01*
X-25398866Y-15152402D02*
X-25398866Y-15257163D01*
X-25398866Y-15152402D02*
X-25389342Y-15133354D01*
X-25389342Y-15133354D02*
X-25370294Y-15123830D01*
X-25370294Y-15123830D02*
X-25341723Y-15123830D01*
X-25341723Y-15123830D02*
X-25322675Y-15133354D01*
X-25322675Y-15133354D02*
X-25313152Y-15152402D01*
X-25313152Y-15152402D02*
X-25313152Y-15257163D01*
X-25217913Y-15257163D02*
X-25217913Y-15123830D01*
X-25217913Y-15142878D02*
X-25208390Y-15133354D01*
X-25208390Y-15133354D02*
X-25189342Y-15123830D01*
X-25189342Y-15123830D02*
X-25160771Y-15123830D01*
X-25160771Y-15123830D02*
X-25141723Y-15133354D01*
X-25141723Y-15133354D02*
X-25132199Y-15152402D01*
X-25132199Y-15152402D02*
X-25132199Y-15257163D01*
X-25132199Y-15152402D02*
X-25122675Y-15133354D01*
X-25122675Y-15133354D02*
X-25103628Y-15123830D01*
X-25103628Y-15123830D02*
X-25075056Y-15123830D01*
X-25075056Y-15123830D02*
X-25056009Y-15133354D01*
X-25056009Y-15133354D02*
X-25046485Y-15152402D01*
X-25046485Y-15152402D02*
X-25046485Y-15257163D01*
X-24656009Y-15047640D02*
X-24827437Y-15304782D01*
X-24398866Y-15057163D02*
X-24379818Y-15057163D01*
X-24379818Y-15057163D02*
X-24360770Y-15066687D01*
X-24360770Y-15066687D02*
X-24351247Y-15076211D01*
X-24351247Y-15076211D02*
X-24341723Y-15095259D01*
X-24341723Y-15095259D02*
X-24332199Y-15133354D01*
X-24332199Y-15133354D02*
X-24332199Y-15180973D01*
X-24332199Y-15180973D02*
X-24341723Y-15219068D01*
X-24341723Y-15219068D02*
X-24351247Y-15238116D01*
X-24351247Y-15238116D02*
X-24360770Y-15247640D01*
X-24360770Y-15247640D02*
X-24379818Y-15257163D01*
X-24379818Y-15257163D02*
X-24398866Y-15257163D01*
X-24398866Y-15257163D02*
X-24417913Y-15247640D01*
X-24417913Y-15247640D02*
X-24427437Y-15238116D01*
X-24427437Y-15238116D02*
X-24436961Y-15219068D01*
X-24436961Y-15219068D02*
X-24446485Y-15180973D01*
X-24446485Y-15180973D02*
X-24446485Y-15133354D01*
X-24446485Y-15133354D02*
X-24436961Y-15095259D01*
X-24436961Y-15095259D02*
X-24427437Y-15076211D01*
X-24427437Y-15076211D02*
X-24417913Y-15066687D01*
X-24417913Y-15066687D02*
X-24398866Y-15057163D01*
X-24246485Y-15238116D02*
X-24236961Y-15247640D01*
X-24236961Y-15247640D02*
X-24246485Y-15257163D01*
X-24246485Y-15257163D02*
X-24256009Y-15247640D01*
X-24256009Y-15247640D02*
X-24246485Y-15238116D01*
X-24246485Y-15238116D02*
X-24246485Y-15257163D01*
X-24046485Y-15257163D02*
X-24160770Y-15257163D01*
X-24103628Y-15257163D02*
X-24103628Y-15057163D01*
X-24103628Y-15057163D02*
X-24122675Y-15085735D01*
X-24122675Y-15085735D02*
X-24141723Y-15104782D01*
X-24141723Y-15104782D02*
X-24160770Y-15114306D01*
X-23865532Y-15057163D02*
X-23960770Y-15057163D01*
X-23960770Y-15057163D02*
X-23970294Y-15152402D01*
X-23970294Y-15152402D02*
X-23960770Y-15142878D01*
X-23960770Y-15142878D02*
X-23941723Y-15133354D01*
X-23941723Y-15133354D02*
X-23894104Y-15133354D01*
X-23894104Y-15133354D02*
X-23875056Y-15142878D01*
X-23875056Y-15142878D02*
X-23865532Y-15152402D01*
X-23865532Y-15152402D02*
X-23856009Y-15171449D01*
X-23856009Y-15171449D02*
X-23856009Y-15219068D01*
X-23856009Y-15219068D02*
X-23865532Y-15238116D01*
X-23865532Y-15238116D02*
X-23875056Y-15247640D01*
X-23875056Y-15247640D02*
X-23894104Y-15257163D01*
X-23894104Y-15257163D02*
X-23941723Y-15257163D01*
X-23941723Y-15257163D02*
X-23960770Y-15247640D01*
X-23960770Y-15247640D02*
X-23970294Y-15238116D01*
X-23789342Y-15057163D02*
X-23656009Y-15057163D01*
X-23656009Y-15057163D02*
X-23741723Y-15257163D01*
X-23541723Y-15057163D02*
X-23522675Y-15057163D01*
X-23522675Y-15057163D02*
X-23503628Y-15066687D01*
X-23503628Y-15066687D02*
X-23494104Y-15076211D01*
X-23494104Y-15076211D02*
X-23484580Y-15095259D01*
X-23484580Y-15095259D02*
X-23475056Y-15133354D01*
X-23475056Y-15133354D02*
X-23475056Y-15180973D01*
X-23475056Y-15180973D02*
X-23484580Y-15219068D01*
X-23484580Y-15219068D02*
X-23494104Y-15238116D01*
X-23494104Y-15238116D02*
X-23503628Y-15247640D01*
X-23503628Y-15247640D02*
X-23522675Y-15257163D01*
X-23522675Y-15257163D02*
X-23541723Y-15257163D01*
X-23541723Y-15257163D02*
X-23560770Y-15247640D01*
X-23560770Y-15247640D02*
X-23570294Y-15238116D01*
X-23570294Y-15238116D02*
X-23579818Y-15219068D01*
X-23579818Y-15219068D02*
X-23589342Y-15180973D01*
X-23589342Y-15180973D02*
X-23589342Y-15133354D01*
X-23589342Y-15133354D02*
X-23579818Y-15095259D01*
X-23579818Y-15095259D02*
X-23570294Y-15076211D01*
X-23570294Y-15076211D02*
X-23560770Y-15066687D01*
X-23560770Y-15066687D02*
X-23541723Y-15057163D01*
X-23398866Y-15057163D02*
X-23398866Y-15095259D01*
X-23322675Y-15057163D02*
X-23322675Y-15095259D01*
X-23027437Y-15333354D02*
X-23036961Y-15323830D01*
X-23036961Y-15323830D02*
X-23056008Y-15295259D01*
X-23056008Y-15295259D02*
X-23065532Y-15276211D01*
X-23065532Y-15276211D02*
X-23075056Y-15247640D01*
X-23075056Y-15247640D02*
X-23084580Y-15200021D01*
X-23084580Y-15200021D02*
X-23084580Y-15161925D01*
X-23084580Y-15161925D02*
X-23075056Y-15114306D01*
X-23075056Y-15114306D02*
X-23065532Y-15085735D01*
X-23065532Y-15085735D02*
X-23056008Y-15066687D01*
X-23056008Y-15066687D02*
X-23036961Y-15038116D01*
X-23036961Y-15038116D02*
X-23027437Y-15028592D01*
X-22922675Y-15142878D02*
X-22941723Y-15133354D01*
X-22941723Y-15133354D02*
X-22951247Y-15123830D01*
X-22951247Y-15123830D02*
X-22960770Y-15104782D01*
X-22960770Y-15104782D02*
X-22960770Y-15095259D01*
X-22960770Y-15095259D02*
X-22951247Y-15076211D01*
X-22951247Y-15076211D02*
X-22941723Y-15066687D01*
X-22941723Y-15066687D02*
X-22922675Y-15057163D01*
X-22922675Y-15057163D02*
X-22884580Y-15057163D01*
X-22884580Y-15057163D02*
X-22865532Y-15066687D01*
X-22865532Y-15066687D02*
X-22856008Y-15076211D01*
X-22856008Y-15076211D02*
X-22846485Y-15095259D01*
X-22846485Y-15095259D02*
X-22846485Y-15104782D01*
X-22846485Y-15104782D02*
X-22856008Y-15123830D01*
X-22856008Y-15123830D02*
X-22865532Y-15133354D01*
X-22865532Y-15133354D02*
X-22884580Y-15142878D01*
X-22884580Y-15142878D02*
X-22922675Y-15142878D01*
X-22922675Y-15142878D02*
X-22941723Y-15152402D01*
X-22941723Y-15152402D02*
X-22951247Y-15161925D01*
X-22951247Y-15161925D02*
X-22960770Y-15180973D01*
X-22960770Y-15180973D02*
X-22960770Y-15219068D01*
X-22960770Y-15219068D02*
X-22951247Y-15238116D01*
X-22951247Y-15238116D02*
X-22941723Y-15247640D01*
X-22941723Y-15247640D02*
X-22922675Y-15257163D01*
X-22922675Y-15257163D02*
X-22884580Y-15257163D01*
X-22884580Y-15257163D02*
X-22865532Y-15247640D01*
X-22865532Y-15247640D02*
X-22856008Y-15238116D01*
X-22856008Y-15238116D02*
X-22846485Y-15219068D01*
X-22846485Y-15219068D02*
X-22846485Y-15180973D01*
X-22846485Y-15180973D02*
X-22856008Y-15161925D01*
X-22856008Y-15161925D02*
X-22865532Y-15152402D01*
X-22865532Y-15152402D02*
X-22884580Y-15142878D01*
X-22608389Y-15257163D02*
X-22608389Y-15057163D01*
X-22522675Y-15257163D02*
X-22522675Y-15152402D01*
X-22522675Y-15152402D02*
X-22532199Y-15133354D01*
X-22532199Y-15133354D02*
X-22551246Y-15123830D01*
X-22551246Y-15123830D02*
X-22579818Y-15123830D01*
X-22579818Y-15123830D02*
X-22598866Y-15133354D01*
X-22598866Y-15133354D02*
X-22608389Y-15142878D01*
X-22398866Y-15257163D02*
X-22417913Y-15247640D01*
X-22417913Y-15247640D02*
X-22427437Y-15238116D01*
X-22427437Y-15238116D02*
X-22436961Y-15219068D01*
X-22436961Y-15219068D02*
X-22436961Y-15161925D01*
X-22436961Y-15161925D02*
X-22427437Y-15142878D01*
X-22427437Y-15142878D02*
X-22417913Y-15133354D01*
X-22417913Y-15133354D02*
X-22398866Y-15123830D01*
X-22398866Y-15123830D02*
X-22370294Y-15123830D01*
X-22370294Y-15123830D02*
X-22351247Y-15133354D01*
X-22351247Y-15133354D02*
X-22341723Y-15142878D01*
X-22341723Y-15142878D02*
X-22332199Y-15161925D01*
X-22332199Y-15161925D02*
X-22332199Y-15219068D01*
X-22332199Y-15219068D02*
X-22341723Y-15238116D01*
X-22341723Y-15238116D02*
X-22351247Y-15247640D01*
X-22351247Y-15247640D02*
X-22370294Y-15257163D01*
X-22370294Y-15257163D02*
X-22398866Y-15257163D01*
X-22217913Y-15257163D02*
X-22236961Y-15247640D01*
X-22236961Y-15247640D02*
X-22246485Y-15228592D01*
X-22246485Y-15228592D02*
X-22246485Y-15057163D01*
X-22065532Y-15247640D02*
X-22084580Y-15257163D01*
X-22084580Y-15257163D02*
X-22122675Y-15257163D01*
X-22122675Y-15257163D02*
X-22141723Y-15247640D01*
X-22141723Y-15247640D02*
X-22151247Y-15228592D01*
X-22151247Y-15228592D02*
X-22151247Y-15152402D01*
X-22151247Y-15152402D02*
X-22141723Y-15133354D01*
X-22141723Y-15133354D02*
X-22122675Y-15123830D01*
X-22122675Y-15123830D02*
X-22084580Y-15123830D01*
X-22084580Y-15123830D02*
X-22065532Y-15133354D01*
X-22065532Y-15133354D02*
X-22056008Y-15152402D01*
X-22056008Y-15152402D02*
X-22056008Y-15171449D01*
X-22056008Y-15171449D02*
X-22151247Y-15190497D01*
X-21979818Y-15247640D02*
X-21960770Y-15257163D01*
X-21960770Y-15257163D02*
X-21922675Y-15257163D01*
X-21922675Y-15257163D02*
X-21903627Y-15247640D01*
X-21903627Y-15247640D02*
X-21894104Y-15228592D01*
X-21894104Y-15228592D02*
X-21894104Y-15219068D01*
X-21894104Y-15219068D02*
X-21903627Y-15200021D01*
X-21903627Y-15200021D02*
X-21922675Y-15190497D01*
X-21922675Y-15190497D02*
X-21951247Y-15190497D01*
X-21951247Y-15190497D02*
X-21970294Y-15180973D01*
X-21970294Y-15180973D02*
X-21979818Y-15161925D01*
X-21979818Y-15161925D02*
X-21979818Y-15152402D01*
X-21979818Y-15152402D02*
X-21970294Y-15133354D01*
X-21970294Y-15133354D02*
X-21951247Y-15123830D01*
X-21951247Y-15123830D02*
X-21922675Y-15123830D01*
X-21922675Y-15123830D02*
X-21903627Y-15133354D01*
X-21827437Y-15333354D02*
X-21817913Y-15323830D01*
X-21817913Y-15323830D02*
X-21798866Y-15295259D01*
X-21798866Y-15295259D02*
X-21789342Y-15276211D01*
X-21789342Y-15276211D02*
X-21779818Y-15247640D01*
X-21779818Y-15247640D02*
X-21770294Y-15200021D01*
X-21770294Y-15200021D02*
X-21770294Y-15161925D01*
X-21770294Y-15161925D02*
X-21779818Y-15114306D01*
X-21779818Y-15114306D02*
X-21789342Y-15085735D01*
X-21789342Y-15085735D02*
X-21798866Y-15066687D01*
X-21798866Y-15066687D02*
X-21817913Y-15038116D01*
X-21817913Y-15038116D02*
X-21827437Y-15028592D01*
X-21465532Y-15333354D02*
X-21475056Y-15323830D01*
X-21475056Y-15323830D02*
X-21494104Y-15295259D01*
X-21494104Y-15295259D02*
X-21503627Y-15276211D01*
X-21503627Y-15276211D02*
X-21513151Y-15247640D01*
X-21513151Y-15247640D02*
X-21522675Y-15200021D01*
X-21522675Y-15200021D02*
X-21522675Y-15161925D01*
X-21522675Y-15161925D02*
X-21513151Y-15114306D01*
X-21513151Y-15114306D02*
X-21503627Y-15085735D01*
X-21503627Y-15085735D02*
X-21494104Y-15066687D01*
X-21494104Y-15066687D02*
X-21475056Y-15038116D01*
X-21475056Y-15038116D02*
X-21465532Y-15028592D01*
X-21389342Y-15123830D02*
X-21389342Y-15257163D01*
X-21389342Y-15142878D02*
X-21379818Y-15133354D01*
X-21379818Y-15133354D02*
X-21360770Y-15123830D01*
X-21360770Y-15123830D02*
X-21332199Y-15123830D01*
X-21332199Y-15123830D02*
X-21313151Y-15133354D01*
X-21313151Y-15133354D02*
X-21303627Y-15152402D01*
X-21303627Y-15152402D02*
X-21303627Y-15257163D01*
X-21179818Y-15257163D02*
X-21198866Y-15247640D01*
X-21198866Y-15247640D02*
X-21208389Y-15238116D01*
X-21208389Y-15238116D02*
X-21217913Y-15219068D01*
X-21217913Y-15219068D02*
X-21217913Y-15161925D01*
X-21217913Y-15161925D02*
X-21208389Y-15142878D01*
X-21208389Y-15142878D02*
X-21198866Y-15133354D01*
X-21198866Y-15133354D02*
X-21179818Y-15123830D01*
X-21179818Y-15123830D02*
X-21151246Y-15123830D01*
X-21151246Y-15123830D02*
X-21132199Y-15133354D01*
X-21132199Y-15133354D02*
X-21122675Y-15142878D01*
X-21122675Y-15142878D02*
X-21113151Y-15161925D01*
X-21113151Y-15161925D02*
X-21113151Y-15219068D01*
X-21113151Y-15219068D02*
X-21122675Y-15238116D01*
X-21122675Y-15238116D02*
X-21132199Y-15247640D01*
X-21132199Y-15247640D02*
X-21151246Y-15257163D01*
X-21151246Y-15257163D02*
X-21179818Y-15257163D01*
X-21056008Y-15123830D02*
X-20979818Y-15123830D01*
X-21027437Y-15057163D02*
X-21027437Y-15228592D01*
X-21027437Y-15228592D02*
X-21017913Y-15247640D01*
X-21017913Y-15247640D02*
X-20998866Y-15257163D01*
X-20998866Y-15257163D02*
X-20979818Y-15257163D01*
X-20760770Y-15123830D02*
X-20760770Y-15323830D01*
X-20760770Y-15133354D02*
X-20741723Y-15123830D01*
X-20741723Y-15123830D02*
X-20703627Y-15123830D01*
X-20703627Y-15123830D02*
X-20684580Y-15133354D01*
X-20684580Y-15133354D02*
X-20675056Y-15142878D01*
X-20675056Y-15142878D02*
X-20665532Y-15161925D01*
X-20665532Y-15161925D02*
X-20665532Y-15219068D01*
X-20665532Y-15219068D02*
X-20675056Y-15238116D01*
X-20675056Y-15238116D02*
X-20684580Y-15247640D01*
X-20684580Y-15247640D02*
X-20703627Y-15257163D01*
X-20703627Y-15257163D02*
X-20741723Y-15257163D01*
X-20741723Y-15257163D02*
X-20760770Y-15247640D01*
X-20551246Y-15257163D02*
X-20570294Y-15247640D01*
X-20570294Y-15247640D02*
X-20579818Y-15228592D01*
X-20579818Y-15228592D02*
X-20579818Y-15057163D01*
X-20389342Y-15257163D02*
X-20389342Y-15152402D01*
X-20389342Y-15152402D02*
X-20398865Y-15133354D01*
X-20398865Y-15133354D02*
X-20417913Y-15123830D01*
X-20417913Y-15123830D02*
X-20456008Y-15123830D01*
X-20456008Y-15123830D02*
X-20475056Y-15133354D01*
X-20389342Y-15247640D02*
X-20408389Y-15257163D01*
X-20408389Y-15257163D02*
X-20456008Y-15257163D01*
X-20456008Y-15257163D02*
X-20475056Y-15247640D01*
X-20475056Y-15247640D02*
X-20484580Y-15228592D01*
X-20484580Y-15228592D02*
X-20484580Y-15209544D01*
X-20484580Y-15209544D02*
X-20475056Y-15190497D01*
X-20475056Y-15190497D02*
X-20456008Y-15180973D01*
X-20456008Y-15180973D02*
X-20408389Y-15180973D01*
X-20408389Y-15180973D02*
X-20389342Y-15171449D01*
X-20322675Y-15123830D02*
X-20246485Y-15123830D01*
X-20294104Y-15057163D02*
X-20294104Y-15228592D01*
X-20294104Y-15228592D02*
X-20284580Y-15247640D01*
X-20284580Y-15247640D02*
X-20265532Y-15257163D01*
X-20265532Y-15257163D02*
X-20246485Y-15257163D01*
X-20103627Y-15247640D02*
X-20122675Y-15257163D01*
X-20122675Y-15257163D02*
X-20160770Y-15257163D01*
X-20160770Y-15257163D02*
X-20179818Y-15247640D01*
X-20179818Y-15247640D02*
X-20189342Y-15228592D01*
X-20189342Y-15228592D02*
X-20189342Y-15152402D01*
X-20189342Y-15152402D02*
X-20179818Y-15133354D01*
X-20179818Y-15133354D02*
X-20160770Y-15123830D01*
X-20160770Y-15123830D02*
X-20122675Y-15123830D01*
X-20122675Y-15123830D02*
X-20103627Y-15133354D01*
X-20103627Y-15133354D02*
X-20094104Y-15152402D01*
X-20094104Y-15152402D02*
X-20094104Y-15171449D01*
X-20094104Y-15171449D02*
X-20189342Y-15190497D01*
X-19922675Y-15257163D02*
X-19922675Y-15057163D01*
X-19922675Y-15247640D02*
X-19941723Y-15257163D01*
X-19941723Y-15257163D02*
X-19979818Y-15257163D01*
X-19979818Y-15257163D02*
X-19998865Y-15247640D01*
X-19998865Y-15247640D02*
X-20008389Y-15238116D01*
X-20008389Y-15238116D02*
X-20017913Y-15219068D01*
X-20017913Y-15219068D02*
X-20017913Y-15161925D01*
X-20017913Y-15161925D02*
X-20008389Y-15142878D01*
X-20008389Y-15142878D02*
X-19998865Y-15133354D01*
X-19998865Y-15133354D02*
X-19979818Y-15123830D01*
X-19979818Y-15123830D02*
X-19941723Y-15123830D01*
X-19941723Y-15123830D02*
X-19922675Y-15133354D01*
X-19846484Y-15333354D02*
X-19836961Y-15323830D01*
X-19836961Y-15323830D02*
X-19817913Y-15295259D01*
X-19817913Y-15295259D02*
X-19808389Y-15276211D01*
X-19808389Y-15276211D02*
X-19798865Y-15247640D01*
X-19798865Y-15247640D02*
X-19789342Y-15200021D01*
X-19789342Y-15200021D02*
X-19789342Y-15161925D01*
X-19789342Y-15161925D02*
X-19798865Y-15114306D01*
X-19798865Y-15114306D02*
X-19808389Y-15085735D01*
X-19808389Y-15085735D02*
X-19817913Y-15066687D01*
X-19817913Y-15066687D02*
X-19836961Y-15038116D01*
X-19836961Y-15038116D02*
X-19846484Y-15028592D01*
X-26631789Y-15556391D02*
X-26631789Y-15414968D01*
X-26773211Y-15414968D01*
X-26773211Y-15556391D01*
X-26631789Y-15556391D01*
X-26256009Y-15443830D02*
X-26256009Y-15577163D01*
X-26303628Y-15367640D02*
X-26351247Y-15510497D01*
X-26351247Y-15510497D02*
X-26227437Y-15510497D01*
X-26151247Y-15558116D02*
X-26141723Y-15567640D01*
X-26141723Y-15567640D02*
X-26151247Y-15577163D01*
X-26151247Y-15577163D02*
X-26160771Y-15567640D01*
X-26160771Y-15567640D02*
X-26151247Y-15558116D01*
X-26151247Y-15558116D02*
X-26151247Y-15577163D01*
X-26017914Y-15377163D02*
X-25998866Y-15377163D01*
X-25998866Y-15377163D02*
X-25979818Y-15386687D01*
X-25979818Y-15386687D02*
X-25970294Y-15396211D01*
X-25970294Y-15396211D02*
X-25960771Y-15415259D01*
X-25960771Y-15415259D02*
X-25951247Y-15453354D01*
X-25951247Y-15453354D02*
X-25951247Y-15500973D01*
X-25951247Y-15500973D02*
X-25960771Y-15539068D01*
X-25960771Y-15539068D02*
X-25970294Y-15558116D01*
X-25970294Y-15558116D02*
X-25979818Y-15567640D01*
X-25979818Y-15567640D02*
X-25998866Y-15577163D01*
X-25998866Y-15577163D02*
X-26017914Y-15577163D01*
X-26017914Y-15577163D02*
X-26036961Y-15567640D01*
X-26036961Y-15567640D02*
X-26046485Y-15558116D01*
X-26046485Y-15558116D02*
X-26056009Y-15539068D01*
X-26056009Y-15539068D02*
X-26065533Y-15500973D01*
X-26065533Y-15500973D02*
X-26065533Y-15453354D01*
X-26065533Y-15453354D02*
X-26056009Y-15415259D01*
X-26056009Y-15415259D02*
X-26046485Y-15396211D01*
X-26046485Y-15396211D02*
X-26036961Y-15386687D01*
X-26036961Y-15386687D02*
X-26017914Y-15377163D01*
X-25827437Y-15377163D02*
X-25808390Y-15377163D01*
X-25808390Y-15377163D02*
X-25789342Y-15386687D01*
X-25789342Y-15386687D02*
X-25779818Y-15396211D01*
X-25779818Y-15396211D02*
X-25770294Y-15415259D01*
X-25770294Y-15415259D02*
X-25760771Y-15453354D01*
X-25760771Y-15453354D02*
X-25760771Y-15500973D01*
X-25760771Y-15500973D02*
X-25770294Y-15539068D01*
X-25770294Y-15539068D02*
X-25779818Y-15558116D01*
X-25779818Y-15558116D02*
X-25789342Y-15567640D01*
X-25789342Y-15567640D02*
X-25808390Y-15577163D01*
X-25808390Y-15577163D02*
X-25827437Y-15577163D01*
X-25827437Y-15577163D02*
X-25846485Y-15567640D01*
X-25846485Y-15567640D02*
X-25856009Y-15558116D01*
X-25856009Y-15558116D02*
X-25865533Y-15539068D01*
X-25865533Y-15539068D02*
X-25875056Y-15500973D01*
X-25875056Y-15500973D02*
X-25875056Y-15453354D01*
X-25875056Y-15453354D02*
X-25865533Y-15415259D01*
X-25865533Y-15415259D02*
X-25856009Y-15396211D01*
X-25856009Y-15396211D02*
X-25846485Y-15386687D01*
X-25846485Y-15386687D02*
X-25827437Y-15377163D01*
X-25636961Y-15377163D02*
X-25617913Y-15377163D01*
X-25617913Y-15377163D02*
X-25598866Y-15386687D01*
X-25598866Y-15386687D02*
X-25589342Y-15396211D01*
X-25589342Y-15396211D02*
X-25579818Y-15415259D01*
X-25579818Y-15415259D02*
X-25570294Y-15453354D01*
X-25570294Y-15453354D02*
X-25570294Y-15500973D01*
X-25570294Y-15500973D02*
X-25579818Y-15539068D01*
X-25579818Y-15539068D02*
X-25589342Y-15558116D01*
X-25589342Y-15558116D02*
X-25598866Y-15567640D01*
X-25598866Y-15567640D02*
X-25617913Y-15577163D01*
X-25617913Y-15577163D02*
X-25636961Y-15577163D01*
X-25636961Y-15577163D02*
X-25656009Y-15567640D01*
X-25656009Y-15567640D02*
X-25665533Y-15558116D01*
X-25665533Y-15558116D02*
X-25675056Y-15539068D01*
X-25675056Y-15539068D02*
X-25684580Y-15500973D01*
X-25684580Y-15500973D02*
X-25684580Y-15453354D01*
X-25684580Y-15453354D02*
X-25675056Y-15415259D01*
X-25675056Y-15415259D02*
X-25665533Y-15396211D01*
X-25665533Y-15396211D02*
X-25656009Y-15386687D01*
X-25656009Y-15386687D02*
X-25636961Y-15377163D01*
X-25484580Y-15577163D02*
X-25484580Y-15443830D01*
X-25484580Y-15462878D02*
X-25475056Y-15453354D01*
X-25475056Y-15453354D02*
X-25456009Y-15443830D01*
X-25456009Y-15443830D02*
X-25427437Y-15443830D01*
X-25427437Y-15443830D02*
X-25408390Y-15453354D01*
X-25408390Y-15453354D02*
X-25398866Y-15472402D01*
X-25398866Y-15472402D02*
X-25398866Y-15577163D01*
X-25398866Y-15472402D02*
X-25389342Y-15453354D01*
X-25389342Y-15453354D02*
X-25370294Y-15443830D01*
X-25370294Y-15443830D02*
X-25341723Y-15443830D01*
X-25341723Y-15443830D02*
X-25322675Y-15453354D01*
X-25322675Y-15453354D02*
X-25313152Y-15472402D01*
X-25313152Y-15472402D02*
X-25313152Y-15577163D01*
X-25217913Y-15577163D02*
X-25217913Y-15443830D01*
X-25217913Y-15462878D02*
X-25208390Y-15453354D01*
X-25208390Y-15453354D02*
X-25189342Y-15443830D01*
X-25189342Y-15443830D02*
X-25160771Y-15443830D01*
X-25160771Y-15443830D02*
X-25141723Y-15453354D01*
X-25141723Y-15453354D02*
X-25132199Y-15472402D01*
X-25132199Y-15472402D02*
X-25132199Y-15577163D01*
X-25132199Y-15472402D02*
X-25122675Y-15453354D01*
X-25122675Y-15453354D02*
X-25103628Y-15443830D01*
X-25103628Y-15443830D02*
X-25075056Y-15443830D01*
X-25075056Y-15443830D02*
X-25056009Y-15453354D01*
X-25056009Y-15453354D02*
X-25046485Y-15472402D01*
X-25046485Y-15472402D02*
X-25046485Y-15577163D01*
X-24656009Y-15367640D02*
X-24827437Y-15624782D01*
X-24398866Y-15377163D02*
X-24379818Y-15377163D01*
X-24379818Y-15377163D02*
X-24360770Y-15386687D01*
X-24360770Y-15386687D02*
X-24351247Y-15396211D01*
X-24351247Y-15396211D02*
X-24341723Y-15415259D01*
X-24341723Y-15415259D02*
X-24332199Y-15453354D01*
X-24332199Y-15453354D02*
X-24332199Y-15500973D01*
X-24332199Y-15500973D02*
X-24341723Y-15539068D01*
X-24341723Y-15539068D02*
X-24351247Y-15558116D01*
X-24351247Y-15558116D02*
X-24360770Y-15567640D01*
X-24360770Y-15567640D02*
X-24379818Y-15577163D01*
X-24379818Y-15577163D02*
X-24398866Y-15577163D01*
X-24398866Y-15577163D02*
X-24417913Y-15567640D01*
X-24417913Y-15567640D02*
X-24427437Y-15558116D01*
X-24427437Y-15558116D02*
X-24436961Y-15539068D01*
X-24436961Y-15539068D02*
X-24446485Y-15500973D01*
X-24446485Y-15500973D02*
X-24446485Y-15453354D01*
X-24446485Y-15453354D02*
X-24436961Y-15415259D01*
X-24436961Y-15415259D02*
X-24427437Y-15396211D01*
X-24427437Y-15396211D02*
X-24417913Y-15386687D01*
X-24417913Y-15386687D02*
X-24398866Y-15377163D01*
X-24246485Y-15558116D02*
X-24236961Y-15567640D01*
X-24236961Y-15567640D02*
X-24246485Y-15577163D01*
X-24246485Y-15577163D02*
X-24256009Y-15567640D01*
X-24256009Y-15567640D02*
X-24246485Y-15558116D01*
X-24246485Y-15558116D02*
X-24246485Y-15577163D01*
X-24046485Y-15577163D02*
X-24160770Y-15577163D01*
X-24103628Y-15577163D02*
X-24103628Y-15377163D01*
X-24103628Y-15377163D02*
X-24122675Y-15405735D01*
X-24122675Y-15405735D02*
X-24141723Y-15424782D01*
X-24141723Y-15424782D02*
X-24160770Y-15434306D01*
X-23865532Y-15377163D02*
X-23960770Y-15377163D01*
X-23960770Y-15377163D02*
X-23970294Y-15472402D01*
X-23970294Y-15472402D02*
X-23960770Y-15462878D01*
X-23960770Y-15462878D02*
X-23941723Y-15453354D01*
X-23941723Y-15453354D02*
X-23894104Y-15453354D01*
X-23894104Y-15453354D02*
X-23875056Y-15462878D01*
X-23875056Y-15462878D02*
X-23865532Y-15472402D01*
X-23865532Y-15472402D02*
X-23856009Y-15491449D01*
X-23856009Y-15491449D02*
X-23856009Y-15539068D01*
X-23856009Y-15539068D02*
X-23865532Y-15558116D01*
X-23865532Y-15558116D02*
X-23875056Y-15567640D01*
X-23875056Y-15567640D02*
X-23894104Y-15577163D01*
X-23894104Y-15577163D02*
X-23941723Y-15577163D01*
X-23941723Y-15577163D02*
X-23960770Y-15567640D01*
X-23960770Y-15567640D02*
X-23970294Y-15558116D01*
X-23789342Y-15377163D02*
X-23656009Y-15377163D01*
X-23656009Y-15377163D02*
X-23741723Y-15577163D01*
X-23484580Y-15377163D02*
X-23579818Y-15377163D01*
X-23579818Y-15377163D02*
X-23589342Y-15472402D01*
X-23589342Y-15472402D02*
X-23579818Y-15462878D01*
X-23579818Y-15462878D02*
X-23560770Y-15453354D01*
X-23560770Y-15453354D02*
X-23513151Y-15453354D01*
X-23513151Y-15453354D02*
X-23494104Y-15462878D01*
X-23494104Y-15462878D02*
X-23484580Y-15472402D01*
X-23484580Y-15472402D02*
X-23475056Y-15491449D01*
X-23475056Y-15491449D02*
X-23475056Y-15539068D01*
X-23475056Y-15539068D02*
X-23484580Y-15558116D01*
X-23484580Y-15558116D02*
X-23494104Y-15567640D01*
X-23494104Y-15567640D02*
X-23513151Y-15577163D01*
X-23513151Y-15577163D02*
X-23560770Y-15577163D01*
X-23560770Y-15577163D02*
X-23579818Y-15567640D01*
X-23579818Y-15567640D02*
X-23589342Y-15558116D01*
X-23398866Y-15377163D02*
X-23398866Y-15415259D01*
X-23322675Y-15377163D02*
X-23322675Y-15415259D01*
X-23027437Y-15653354D02*
X-23036961Y-15643830D01*
X-23036961Y-15643830D02*
X-23056008Y-15615259D01*
X-23056008Y-15615259D02*
X-23065532Y-15596211D01*
X-23065532Y-15596211D02*
X-23075056Y-15567640D01*
X-23075056Y-15567640D02*
X-23084580Y-15520021D01*
X-23084580Y-15520021D02*
X-23084580Y-15481925D01*
X-23084580Y-15481925D02*
X-23075056Y-15434306D01*
X-23075056Y-15434306D02*
X-23065532Y-15405735D01*
X-23065532Y-15405735D02*
X-23056008Y-15386687D01*
X-23056008Y-15386687D02*
X-23036961Y-15358116D01*
X-23036961Y-15358116D02*
X-23027437Y-15348592D01*
X-22922675Y-15462878D02*
X-22941723Y-15453354D01*
X-22941723Y-15453354D02*
X-22951247Y-15443830D01*
X-22951247Y-15443830D02*
X-22960770Y-15424782D01*
X-22960770Y-15424782D02*
X-22960770Y-15415259D01*
X-22960770Y-15415259D02*
X-22951247Y-15396211D01*
X-22951247Y-15396211D02*
X-22941723Y-15386687D01*
X-22941723Y-15386687D02*
X-22922675Y-15377163D01*
X-22922675Y-15377163D02*
X-22884580Y-15377163D01*
X-22884580Y-15377163D02*
X-22865532Y-15386687D01*
X-22865532Y-15386687D02*
X-22856008Y-15396211D01*
X-22856008Y-15396211D02*
X-22846485Y-15415259D01*
X-22846485Y-15415259D02*
X-22846485Y-15424782D01*
X-22846485Y-15424782D02*
X-22856008Y-15443830D01*
X-22856008Y-15443830D02*
X-22865532Y-15453354D01*
X-22865532Y-15453354D02*
X-22884580Y-15462878D01*
X-22884580Y-15462878D02*
X-22922675Y-15462878D01*
X-22922675Y-15462878D02*
X-22941723Y-15472402D01*
X-22941723Y-15472402D02*
X-22951247Y-15481925D01*
X-22951247Y-15481925D02*
X-22960770Y-15500973D01*
X-22960770Y-15500973D02*
X-22960770Y-15539068D01*
X-22960770Y-15539068D02*
X-22951247Y-15558116D01*
X-22951247Y-15558116D02*
X-22941723Y-15567640D01*
X-22941723Y-15567640D02*
X-22922675Y-15577163D01*
X-22922675Y-15577163D02*
X-22884580Y-15577163D01*
X-22884580Y-15577163D02*
X-22865532Y-15567640D01*
X-22865532Y-15567640D02*
X-22856008Y-15558116D01*
X-22856008Y-15558116D02*
X-22846485Y-15539068D01*
X-22846485Y-15539068D02*
X-22846485Y-15500973D01*
X-22846485Y-15500973D02*
X-22856008Y-15481925D01*
X-22856008Y-15481925D02*
X-22865532Y-15472402D01*
X-22865532Y-15472402D02*
X-22884580Y-15462878D01*
X-22722675Y-15377163D02*
X-22703627Y-15377163D01*
X-22703627Y-15377163D02*
X-22684580Y-15386687D01*
X-22684580Y-15386687D02*
X-22675056Y-15396211D01*
X-22675056Y-15396211D02*
X-22665532Y-15415259D01*
X-22665532Y-15415259D02*
X-22656008Y-15453354D01*
X-22656008Y-15453354D02*
X-22656008Y-15500973D01*
X-22656008Y-15500973D02*
X-22665532Y-15539068D01*
X-22665532Y-15539068D02*
X-22675056Y-15558116D01*
X-22675056Y-15558116D02*
X-22684580Y-15567640D01*
X-22684580Y-15567640D02*
X-22703627Y-15577163D01*
X-22703627Y-15577163D02*
X-22722675Y-15577163D01*
X-22722675Y-15577163D02*
X-22741723Y-15567640D01*
X-22741723Y-15567640D02*
X-22751247Y-15558116D01*
X-22751247Y-15558116D02*
X-22760770Y-15539068D01*
X-22760770Y-15539068D02*
X-22770294Y-15500973D01*
X-22770294Y-15500973D02*
X-22770294Y-15453354D01*
X-22770294Y-15453354D02*
X-22760770Y-15415259D01*
X-22760770Y-15415259D02*
X-22751247Y-15396211D01*
X-22751247Y-15396211D02*
X-22741723Y-15386687D01*
X-22741723Y-15386687D02*
X-22722675Y-15377163D01*
X-22417913Y-15577163D02*
X-22417913Y-15377163D01*
X-22332199Y-15577163D02*
X-22332199Y-15472402D01*
X-22332199Y-15472402D02*
X-22341723Y-15453354D01*
X-22341723Y-15453354D02*
X-22360770Y-15443830D01*
X-22360770Y-15443830D02*
X-22389342Y-15443830D01*
X-22389342Y-15443830D02*
X-22408389Y-15453354D01*
X-22408389Y-15453354D02*
X-22417913Y-15462878D01*
X-22208389Y-15577163D02*
X-22227437Y-15567640D01*
X-22227437Y-15567640D02*
X-22236961Y-15558116D01*
X-22236961Y-15558116D02*
X-22246485Y-15539068D01*
X-22246485Y-15539068D02*
X-22246485Y-15481925D01*
X-22246485Y-15481925D02*
X-22236961Y-15462878D01*
X-22236961Y-15462878D02*
X-22227437Y-15453354D01*
X-22227437Y-15453354D02*
X-22208389Y-15443830D01*
X-22208389Y-15443830D02*
X-22179818Y-15443830D01*
X-22179818Y-15443830D02*
X-22160770Y-15453354D01*
X-22160770Y-15453354D02*
X-22151247Y-15462878D01*
X-22151247Y-15462878D02*
X-22141723Y-15481925D01*
X-22141723Y-15481925D02*
X-22141723Y-15539068D01*
X-22141723Y-15539068D02*
X-22151247Y-15558116D01*
X-22151247Y-15558116D02*
X-22160770Y-15567640D01*
X-22160770Y-15567640D02*
X-22179818Y-15577163D01*
X-22179818Y-15577163D02*
X-22208389Y-15577163D01*
X-22027437Y-15577163D02*
X-22046485Y-15567640D01*
X-22046485Y-15567640D02*
X-22056008Y-15548592D01*
X-22056008Y-15548592D02*
X-22056008Y-15377163D01*
X-21875056Y-15567640D02*
X-21894104Y-15577163D01*
X-21894104Y-15577163D02*
X-21932199Y-15577163D01*
X-21932199Y-15577163D02*
X-21951247Y-15567640D01*
X-21951247Y-15567640D02*
X-21960770Y-15548592D01*
X-21960770Y-15548592D02*
X-21960770Y-15472402D01*
X-21960770Y-15472402D02*
X-21951247Y-15453354D01*
X-21951247Y-15453354D02*
X-21932199Y-15443830D01*
X-21932199Y-15443830D02*
X-21894104Y-15443830D01*
X-21894104Y-15443830D02*
X-21875056Y-15453354D01*
X-21875056Y-15453354D02*
X-21865532Y-15472402D01*
X-21865532Y-15472402D02*
X-21865532Y-15491449D01*
X-21865532Y-15491449D02*
X-21960770Y-15510497D01*
X-21789342Y-15567640D02*
X-21770294Y-15577163D01*
X-21770294Y-15577163D02*
X-21732199Y-15577163D01*
X-21732199Y-15577163D02*
X-21713151Y-15567640D01*
X-21713151Y-15567640D02*
X-21703627Y-15548592D01*
X-21703627Y-15548592D02*
X-21703627Y-15539068D01*
X-21703627Y-15539068D02*
X-21713151Y-15520021D01*
X-21713151Y-15520021D02*
X-21732199Y-15510497D01*
X-21732199Y-15510497D02*
X-21760770Y-15510497D01*
X-21760770Y-15510497D02*
X-21779818Y-15500973D01*
X-21779818Y-15500973D02*
X-21789342Y-15481925D01*
X-21789342Y-15481925D02*
X-21789342Y-15472402D01*
X-21789342Y-15472402D02*
X-21779818Y-15453354D01*
X-21779818Y-15453354D02*
X-21760770Y-15443830D01*
X-21760770Y-15443830D02*
X-21732199Y-15443830D01*
X-21732199Y-15443830D02*
X-21713151Y-15453354D01*
X-21636961Y-15653354D02*
X-21627437Y-15643830D01*
X-21627437Y-15643830D02*
X-21608389Y-15615259D01*
X-21608389Y-15615259D02*
X-21598866Y-15596211D01*
X-21598866Y-15596211D02*
X-21589342Y-15567640D01*
X-21589342Y-15567640D02*
X-21579818Y-15520021D01*
X-21579818Y-15520021D02*
X-21579818Y-15481925D01*
X-21579818Y-15481925D02*
X-21589342Y-15434306D01*
X-21589342Y-15434306D02*
X-21598866Y-15405735D01*
X-21598866Y-15405735D02*
X-21608389Y-15386687D01*
X-21608389Y-15386687D02*
X-21627437Y-15358116D01*
X-21627437Y-15358116D02*
X-21636961Y-15348592D01*
X-21275056Y-15653354D02*
X-21284580Y-15643830D01*
X-21284580Y-15643830D02*
X-21303627Y-15615259D01*
X-21303627Y-15615259D02*
X-21313151Y-15596211D01*
X-21313151Y-15596211D02*
X-21322675Y-15567640D01*
X-21322675Y-15567640D02*
X-21332199Y-15520021D01*
X-21332199Y-15520021D02*
X-21332199Y-15481925D01*
X-21332199Y-15481925D02*
X-21322675Y-15434306D01*
X-21322675Y-15434306D02*
X-21313151Y-15405735D01*
X-21313151Y-15405735D02*
X-21303627Y-15386687D01*
X-21303627Y-15386687D02*
X-21284580Y-15358116D01*
X-21284580Y-15358116D02*
X-21275056Y-15348592D01*
X-21198866Y-15443830D02*
X-21198866Y-15577163D01*
X-21198866Y-15462878D02*
X-21189342Y-15453354D01*
X-21189342Y-15453354D02*
X-21170294Y-15443830D01*
X-21170294Y-15443830D02*
X-21141723Y-15443830D01*
X-21141723Y-15443830D02*
X-21122675Y-15453354D01*
X-21122675Y-15453354D02*
X-21113151Y-15472402D01*
X-21113151Y-15472402D02*
X-21113151Y-15577163D01*
X-20989342Y-15577163D02*
X-21008389Y-15567640D01*
X-21008389Y-15567640D02*
X-21017913Y-15558116D01*
X-21017913Y-15558116D02*
X-21027437Y-15539068D01*
X-21027437Y-15539068D02*
X-21027437Y-15481925D01*
X-21027437Y-15481925D02*
X-21017913Y-15462878D01*
X-21017913Y-15462878D02*
X-21008389Y-15453354D01*
X-21008389Y-15453354D02*
X-20989342Y-15443830D01*
X-20989342Y-15443830D02*
X-20960770Y-15443830D01*
X-20960770Y-15443830D02*
X-20941723Y-15453354D01*
X-20941723Y-15453354D02*
X-20932199Y-15462878D01*
X-20932199Y-15462878D02*
X-20922675Y-15481925D01*
X-20922675Y-15481925D02*
X-20922675Y-15539068D01*
X-20922675Y-15539068D02*
X-20932199Y-15558116D01*
X-20932199Y-15558116D02*
X-20941723Y-15567640D01*
X-20941723Y-15567640D02*
X-20960770Y-15577163D01*
X-20960770Y-15577163D02*
X-20989342Y-15577163D01*
X-20865532Y-15443830D02*
X-20789342Y-15443830D01*
X-20836961Y-15377163D02*
X-20836961Y-15548592D01*
X-20836961Y-15548592D02*
X-20827437Y-15567640D01*
X-20827437Y-15567640D02*
X-20808389Y-15577163D01*
X-20808389Y-15577163D02*
X-20789342Y-15577163D01*
X-20570294Y-15443830D02*
X-20570294Y-15643830D01*
X-20570294Y-15453354D02*
X-20551246Y-15443830D01*
X-20551246Y-15443830D02*
X-20513151Y-15443830D01*
X-20513151Y-15443830D02*
X-20494104Y-15453354D01*
X-20494104Y-15453354D02*
X-20484580Y-15462878D01*
X-20484580Y-15462878D02*
X-20475056Y-15481925D01*
X-20475056Y-15481925D02*
X-20475056Y-15539068D01*
X-20475056Y-15539068D02*
X-20484580Y-15558116D01*
X-20484580Y-15558116D02*
X-20494104Y-15567640D01*
X-20494104Y-15567640D02*
X-20513151Y-15577163D01*
X-20513151Y-15577163D02*
X-20551246Y-15577163D01*
X-20551246Y-15577163D02*
X-20570294Y-15567640D01*
X-20360770Y-15577163D02*
X-20379818Y-15567640D01*
X-20379818Y-15567640D02*
X-20389342Y-15548592D01*
X-20389342Y-15548592D02*
X-20389342Y-15377163D01*
X-20198865Y-15577163D02*
X-20198865Y-15472402D01*
X-20198865Y-15472402D02*
X-20208389Y-15453354D01*
X-20208389Y-15453354D02*
X-20227437Y-15443830D01*
X-20227437Y-15443830D02*
X-20265532Y-15443830D01*
X-20265532Y-15443830D02*
X-20284580Y-15453354D01*
X-20198865Y-15567640D02*
X-20217913Y-15577163D01*
X-20217913Y-15577163D02*
X-20265532Y-15577163D01*
X-20265532Y-15577163D02*
X-20284580Y-15567640D01*
X-20284580Y-15567640D02*
X-20294104Y-15548592D01*
X-20294104Y-15548592D02*
X-20294104Y-15529544D01*
X-20294104Y-15529544D02*
X-20284580Y-15510497D01*
X-20284580Y-15510497D02*
X-20265532Y-15500973D01*
X-20265532Y-15500973D02*
X-20217913Y-15500973D01*
X-20217913Y-15500973D02*
X-20198865Y-15491449D01*
X-20132199Y-15443830D02*
X-20056008Y-15443830D01*
X-20103627Y-15377163D02*
X-20103627Y-15548592D01*
X-20103627Y-15548592D02*
X-20094104Y-15567640D01*
X-20094104Y-15567640D02*
X-20075056Y-15577163D01*
X-20075056Y-15577163D02*
X-20056008Y-15577163D01*
X-19913151Y-15567640D02*
X-19932199Y-15577163D01*
X-19932199Y-15577163D02*
X-19970294Y-15577163D01*
X-19970294Y-15577163D02*
X-19989342Y-15567640D01*
X-19989342Y-15567640D02*
X-19998865Y-15548592D01*
X-19998865Y-15548592D02*
X-19998865Y-15472402D01*
X-19998865Y-15472402D02*
X-19989342Y-15453354D01*
X-19989342Y-15453354D02*
X-19970294Y-15443830D01*
X-19970294Y-15443830D02*
X-19932199Y-15443830D01*
X-19932199Y-15443830D02*
X-19913151Y-15453354D01*
X-19913151Y-15453354D02*
X-19903627Y-15472402D01*
X-19903627Y-15472402D02*
X-19903627Y-15491449D01*
X-19903627Y-15491449D02*
X-19998865Y-15510497D01*
X-19732199Y-15577163D02*
X-19732199Y-15377163D01*
X-19732199Y-15567640D02*
X-19751246Y-15577163D01*
X-19751246Y-15577163D02*
X-19789342Y-15577163D01*
X-19789342Y-15577163D02*
X-19808389Y-15567640D01*
X-19808389Y-15567640D02*
X-19817913Y-15558116D01*
X-19817913Y-15558116D02*
X-19827437Y-15539068D01*
X-19827437Y-15539068D02*
X-19827437Y-15481925D01*
X-19827437Y-15481925D02*
X-19817913Y-15462878D01*
X-19817913Y-15462878D02*
X-19808389Y-15453354D01*
X-19808389Y-15453354D02*
X-19789342Y-15443830D01*
X-19789342Y-15443830D02*
X-19751246Y-15443830D01*
X-19751246Y-15443830D02*
X-19732199Y-15453354D01*
X-19656008Y-15653354D02*
X-19646484Y-15643830D01*
X-19646484Y-15643830D02*
X-19627437Y-15615259D01*
X-19627437Y-15615259D02*
X-19617913Y-15596211D01*
X-19617913Y-15596211D02*
X-19608389Y-15567640D01*
X-19608389Y-15567640D02*
X-19598865Y-15520021D01*
X-19598865Y-15520021D02*
X-19598865Y-15481925D01*
X-19598865Y-15481925D02*
X-19608389Y-15434306D01*
X-19608389Y-15434306D02*
X-19617913Y-15405735D01*
X-19617913Y-15405735D02*
X-19627437Y-15386687D01*
X-19627437Y-15386687D02*
X-19646484Y-15358116D01*
X-19646484Y-15358116D02*
X-19656008Y-15348592D01*
M02*
