%TF.GenerationSoftware,KiCad,Pcbnew,8.99.0-829-g0984af1676*%
%TF.CreationDate,2024-04-27T09:25:59+07:00*%
%TF.ProjectId,Nuxros75,4e757872-6f73-4373-952e-6b696361645f,rev?*%
%TF.SameCoordinates,Original*%
%TF.FileFunction,Soldermask,Bot*%
%TF.FilePolarity,Negative*%
%FSLAX46Y46*%
G04 Gerber Fmt 4.6, Leading zero omitted, Abs format (unit mm)*
G04 Created by KiCad (PCBNEW 8.99.0-829-g0984af1676) date 2024-04-27 09:25:59*
%MOMM*%
%LPD*%
G01*
G04 APERTURE LIST*
G04 Aperture macros list*
%AMRoundRect*
0 Rectangle with rounded corners*
0 $1 Rounding radius*
0 $2 $3 $4 $5 $6 $7 $8 $9 X,Y pos of 4 corners*
0 Add a 4 corners polygon primitive as box body*
4,1,4,$2,$3,$4,$5,$6,$7,$8,$9,$2,$3,0*
0 Add four circle primitives for the rounded corners*
1,1,$1+$1,$2,$3*
1,1,$1+$1,$4,$5*
1,1,$1+$1,$6,$7*
1,1,$1+$1,$8,$9*
0 Add four rect primitives between the rounded corners*
20,1,$1+$1,$2,$3,$4,$5,0*
20,1,$1+$1,$4,$5,$6,$7,0*
20,1,$1+$1,$6,$7,$8,$9,0*
20,1,$1+$1,$8,$9,$2,$3,0*%
G04 Aperture macros list end*
%ADD10C,0.300000*%
%ADD11C,0.000000*%
%ADD12C,1.700000*%
%ADD13C,4.000000*%
%ADD14C,0.400000*%
%ADD15C,3.000000*%
%ADD16RoundRect,0.250000X-0.625000X0.350000X-0.625000X-0.350000X0.625000X-0.350000X0.625000X0.350000X0*%
%ADD17O,1.750000X1.200000*%
%ADD18C,3.048000*%
%ADD19C,3.987800*%
%ADD20RoundRect,0.250000X-0.600000X-0.750000X0.600000X-0.750000X0.600000X0.750000X-0.600000X0.750000X0*%
%ADD21O,1.700000X2.000000*%
%ADD22RoundRect,0.225000X0.375000X-0.225000X0.375000X0.225000X-0.375000X0.225000X-0.375000X-0.225000X0*%
%ADD23RoundRect,0.250000X0.475000X-0.250000X0.475000X0.250000X-0.475000X0.250000X-0.475000X-0.250000X0*%
%ADD24RoundRect,0.250000X-0.250000X-0.475000X0.250000X-0.475000X0.250000X0.475000X-0.250000X0.475000X0*%
%ADD25RoundRect,0.075000X0.662500X0.075000X-0.662500X0.075000X-0.662500X-0.075000X0.662500X-0.075000X0*%
%ADD26RoundRect,0.075000X0.075000X0.662500X-0.075000X0.662500X-0.075000X-0.662500X0.075000X-0.662500X0*%
%ADD27RoundRect,0.375000X0.625000X0.375000X-0.625000X0.375000X-0.625000X-0.375000X0.625000X-0.375000X0*%
%ADD28RoundRect,0.500000X0.500000X1.400000X-0.500000X1.400000X-0.500000X-1.400000X0.500000X-1.400000X0*%
%ADD29RoundRect,0.150000X0.150000X-0.512500X0.150000X0.512500X-0.150000X0.512500X-0.150000X-0.512500X0*%
%ADD30RoundRect,0.250000X-0.475000X0.250000X-0.475000X-0.250000X0.475000X-0.250000X0.475000X0.250000X0*%
%ADD31RoundRect,0.250000X0.250000X0.475000X-0.250000X0.475000X-0.250000X-0.475000X0.250000X-0.475000X0*%
%ADD32RoundRect,0.250000X0.262500X0.450000X-0.262500X0.450000X-0.262500X-0.450000X0.262500X-0.450000X0*%
%ADD33RoundRect,0.150000X0.150000X0.625000X-0.150000X0.625000X-0.150000X-0.625000X0.150000X-0.625000X0*%
%ADD34RoundRect,0.250000X0.350000X0.650000X-0.350000X0.650000X-0.350000X-0.650000X0.350000X-0.650000X0*%
G04 APERTURE END LIST*
D10*
G36*
X-21418893Y-130245000D02*
G01*
X-21942428Y-130245000D01*
X-22029588Y-130241782D01*
X-22112284Y-130232131D01*
X-22190514Y-130216045D01*
X-22264279Y-130193525D01*
X-22333579Y-130164571D01*
X-22398414Y-130129183D01*
X-22458784Y-130087360D01*
X-22514689Y-130039103D01*
X-22540731Y-130012778D01*
X-22598485Y-129942218D01*
X-22645739Y-129864879D01*
X-22675981Y-129798127D01*
X-22699503Y-129727035D01*
X-22716304Y-129651604D01*
X-22726385Y-129571834D01*
X-22729584Y-129491755D01*
X-22379501Y-129491755D01*
X-22376495Y-129557754D01*
X-22364955Y-129631050D01*
X-22340551Y-129708422D01*
X-22304367Y-129777029D01*
X-22256402Y-129836870D01*
X-22215653Y-129873388D01*
X-22150941Y-129914115D01*
X-22077288Y-129942711D01*
X-21994694Y-129959175D01*
X-21916782Y-129963632D01*
X-21751919Y-129963632D01*
X-21751919Y-129049187D01*
X-21914584Y-129049187D01*
X-21981101Y-129052076D01*
X-22054568Y-129063170D01*
X-22131522Y-129086629D01*
X-22199044Y-129121413D01*
X-22257135Y-129167522D01*
X-22292387Y-129206543D01*
X-22331701Y-129268415D01*
X-22359305Y-129338738D01*
X-22375199Y-129417510D01*
X-22379501Y-129491755D01*
X-22729584Y-129491755D01*
X-22729745Y-129487725D01*
X-22728976Y-129443433D01*
X-22722825Y-129359070D01*
X-22710523Y-129280330D01*
X-22692070Y-129207214D01*
X-22652858Y-129108087D01*
X-22599807Y-129021614D01*
X-22532916Y-128947795D01*
X-22452185Y-128886631D01*
X-22357615Y-128838122D01*
X-22286879Y-128812813D01*
X-22209993Y-128793128D01*
X-22126955Y-128779067D01*
X-22037767Y-128770631D01*
X-21942428Y-128767819D01*
X-21418893Y-128767819D01*
X-21418893Y-130245000D01*
G37*
G36*
X-23371890Y-129167021D02*
G01*
X-23292480Y-129175994D01*
X-23218017Y-129195735D01*
X-23148499Y-129226244D01*
X-23083927Y-129267520D01*
X-23024302Y-129319563D01*
X-22988581Y-129359457D01*
X-22943931Y-129425673D01*
X-22909996Y-129499540D01*
X-22886778Y-129581057D01*
X-22875615Y-129654833D01*
X-22871894Y-129733921D01*
X-22873134Y-129780272D01*
X-22880710Y-129853173D01*
X-22898892Y-129933475D01*
X-22926992Y-130005947D01*
X-22965009Y-130070587D01*
X-23012944Y-130127397D01*
X-23040399Y-130152604D01*
X-23101356Y-130195580D01*
X-23170375Y-130228639D01*
X-23247458Y-130251780D01*
X-23332603Y-130265003D01*
X-23409717Y-130268447D01*
X-23494291Y-130265768D01*
X-23572709Y-130257731D01*
X-23644970Y-130244335D01*
X-23721493Y-130221936D01*
X-23789637Y-130192243D01*
X-23789637Y-129963632D01*
X-23781352Y-129967959D01*
X-23712115Y-129997635D01*
X-23637612Y-130018518D01*
X-23557841Y-130030608D01*
X-23483722Y-130033974D01*
X-23466914Y-130033768D01*
X-23390385Y-130026555D01*
X-23315080Y-130004298D01*
X-23250015Y-129959579D01*
X-23209493Y-129894664D01*
X-23194295Y-129822948D01*
X-23882693Y-129822948D01*
X-23882693Y-129683729D01*
X-23878986Y-129611922D01*
X-23580809Y-129611922D01*
X-23192096Y-129611922D01*
X-23197080Y-129581472D01*
X-23220252Y-129509835D01*
X-23261706Y-129444860D01*
X-23265299Y-129440713D01*
X-23324171Y-129394302D01*
X-23397260Y-129377449D01*
X-23430063Y-129379510D01*
X-23501761Y-129405155D01*
X-23550516Y-129460110D01*
X-23574356Y-129532238D01*
X-23580809Y-129611922D01*
X-23878986Y-129611922D01*
X-23878250Y-129597657D01*
X-23864919Y-129518591D01*
X-23842701Y-129446531D01*
X-23805547Y-129371318D01*
X-23756297Y-129305642D01*
X-23705353Y-129258329D01*
X-23636606Y-129215503D01*
X-23557831Y-129186001D01*
X-23482329Y-129171317D01*
X-23399459Y-129166423D01*
X-23371890Y-129167021D01*
G37*
G36*
X-24507619Y-129167021D02*
G01*
X-24428210Y-129175994D01*
X-24353746Y-129195735D01*
X-24284228Y-129226244D01*
X-24219657Y-129267520D01*
X-24160031Y-129319563D01*
X-24124310Y-129359457D01*
X-24079660Y-129425673D01*
X-24045725Y-129499540D01*
X-24022507Y-129581057D01*
X-24011344Y-129654833D01*
X-24007623Y-129733921D01*
X-24008863Y-129780272D01*
X-24016439Y-129853173D01*
X-24034621Y-129933475D01*
X-24062721Y-130005947D01*
X-24100739Y-130070587D01*
X-24148674Y-130127397D01*
X-24176128Y-130152604D01*
X-24237085Y-130195580D01*
X-24306105Y-130228639D01*
X-24383187Y-130251780D01*
X-24468333Y-130265003D01*
X-24545446Y-130268447D01*
X-24630020Y-130265768D01*
X-24708438Y-130257731D01*
X-24780699Y-130244335D01*
X-24857222Y-130221936D01*
X-24925366Y-130192243D01*
X-24925366Y-129963632D01*
X-24917082Y-129967959D01*
X-24847844Y-129997635D01*
X-24773341Y-130018518D01*
X-24693571Y-130030608D01*
X-24619452Y-130033974D01*
X-24602643Y-130033768D01*
X-24526115Y-130026555D01*
X-24450810Y-130004298D01*
X-24385744Y-129959579D01*
X-24345222Y-129894664D01*
X-24330024Y-129822948D01*
X-25018422Y-129822948D01*
X-25018422Y-129683729D01*
X-25014715Y-129611922D01*
X-24716538Y-129611922D01*
X-24327826Y-129611922D01*
X-24332810Y-129581472D01*
X-24355981Y-129509835D01*
X-24397435Y-129444860D01*
X-24401028Y-129440713D01*
X-24459900Y-129394302D01*
X-24532990Y-129377449D01*
X-24565792Y-129379510D01*
X-24637490Y-129405155D01*
X-24686246Y-129460110D01*
X-24710085Y-129532238D01*
X-24716538Y-129611922D01*
X-25014715Y-129611922D01*
X-25013979Y-129597657D01*
X-25000648Y-129518591D01*
X-24978430Y-129446531D01*
X-24941277Y-129371318D01*
X-24892027Y-129305642D01*
X-24841082Y-129258329D01*
X-24772335Y-129215503D01*
X-24693560Y-129186001D01*
X-24618058Y-129171317D01*
X-24535188Y-129166423D01*
X-24507619Y-129167021D01*
G37*
G36*
X-25137124Y-130217156D02*
G01*
X-25137124Y-129963632D01*
X-25202254Y-129998101D01*
X-25272258Y-130026431D01*
X-25297226Y-130034340D01*
X-25370169Y-130050907D01*
X-25443717Y-130057398D01*
X-25448168Y-130057421D01*
X-25525471Y-130050918D01*
X-25584455Y-130031409D01*
X-25632245Y-129974218D01*
X-25634647Y-129952274D01*
X-25611933Y-129900983D01*
X-25553681Y-129865080D01*
X-25483853Y-129839898D01*
X-25476011Y-129837602D01*
X-25404525Y-129813560D01*
X-25394678Y-129809759D01*
X-25325144Y-129780318D01*
X-25283670Y-129758834D01*
X-25222966Y-129715320D01*
X-25203436Y-129695819D01*
X-25162229Y-129632788D01*
X-25153977Y-129612655D01*
X-25138770Y-129539532D01*
X-25137124Y-129500914D01*
X-25145577Y-129423612D01*
X-25173226Y-129353225D01*
X-25175593Y-129349239D01*
X-25220747Y-129291353D01*
X-25278541Y-129245191D01*
X-25347601Y-129209929D01*
X-25420662Y-129186686D01*
X-25425819Y-129185474D01*
X-25499851Y-129172451D01*
X-25576407Y-129166721D01*
X-25598743Y-129166423D01*
X-25673713Y-129169422D01*
X-25740893Y-129177048D01*
X-25816957Y-129190532D01*
X-25883042Y-129206723D01*
X-25883042Y-129447791D01*
X-25814775Y-129415385D01*
X-25750418Y-129395034D01*
X-25676300Y-129381313D01*
X-25611933Y-129377449D01*
X-25551849Y-129383677D01*
X-25501657Y-129401995D01*
X-25467585Y-129432770D01*
X-25455495Y-129475268D01*
X-25473813Y-129524361D01*
X-25522173Y-129559898D01*
X-25588852Y-129586643D01*
X-25659147Y-129610045D01*
X-25661392Y-129610823D01*
X-25730403Y-129637356D01*
X-25778628Y-129659916D01*
X-25841244Y-129698963D01*
X-25868754Y-129722564D01*
X-25913914Y-129780611D01*
X-25926639Y-129806828D01*
X-25944822Y-129881651D01*
X-25946789Y-129921500D01*
X-25939006Y-129998056D01*
X-25913391Y-130068563D01*
X-25906123Y-130081235D01*
X-25858770Y-130141135D01*
X-25798046Y-130188946D01*
X-25730259Y-130222847D01*
X-25658712Y-130245627D01*
X-25642341Y-130249396D01*
X-25569751Y-130261731D01*
X-25494863Y-130267777D01*
X-25459525Y-130268447D01*
X-25384617Y-130265992D01*
X-25302013Y-130257177D01*
X-25222615Y-130241950D01*
X-25146423Y-130220311D01*
X-25137124Y-130217156D01*
G37*
G36*
X-26294103Y-129002292D02*
G01*
X-26219090Y-128990293D01*
X-26158914Y-128954298D01*
X-26116552Y-128893466D01*
X-26106524Y-128836695D01*
X-26123101Y-128764258D01*
X-26158914Y-128719459D01*
X-26223343Y-128684012D01*
X-26294103Y-128674030D01*
X-26369757Y-128685387D01*
X-26429658Y-128719459D01*
X-26473095Y-128782705D01*
X-26481681Y-128836695D01*
X-26465221Y-128910073D01*
X-26429658Y-128955764D01*
X-26365490Y-128992068D01*
X-26294103Y-129002292D01*
G37*
G36*
X-26454937Y-130245000D02*
G01*
X-26129239Y-130245000D01*
X-26129239Y-129189870D01*
X-26454937Y-129189870D01*
X-26454937Y-130245000D01*
G37*
G36*
X-27064389Y-129171949D02*
G01*
X-26992416Y-129188525D01*
X-26915870Y-129221832D01*
X-26847319Y-129270180D01*
X-26794923Y-129323593D01*
X-26764011Y-129364512D01*
X-26725371Y-129432329D01*
X-26696004Y-129507875D01*
X-26675912Y-129591148D01*
X-26666252Y-129666446D01*
X-26663032Y-129747110D01*
X-26667192Y-129833024D01*
X-26679673Y-129912163D01*
X-26700474Y-129984527D01*
X-26735258Y-130060389D01*
X-26781367Y-130127030D01*
X-26812342Y-130160175D01*
X-26872802Y-130207544D01*
X-26941221Y-130241379D01*
X-27017599Y-130261680D01*
X-27101936Y-130268447D01*
X-27167243Y-130263912D01*
X-27249987Y-130242326D01*
X-27322599Y-130202964D01*
X-27385077Y-130145825D01*
X-27430565Y-130082700D01*
X-27434595Y-130082700D01*
X-27434595Y-130173558D01*
X-27432377Y-130222842D01*
X-27417204Y-130303168D01*
X-27387657Y-130372714D01*
X-27343736Y-130431479D01*
X-27307187Y-130463726D01*
X-27242559Y-130499587D01*
X-27166164Y-130520437D01*
X-27088381Y-130526367D01*
X-27057291Y-130525543D01*
X-26974671Y-130515285D01*
X-26902715Y-130496692D01*
X-26831076Y-130469123D01*
X-26759752Y-130432578D01*
X-26759752Y-130701123D01*
X-26792284Y-130715119D01*
X-26865694Y-130737513D01*
X-26939057Y-130750985D01*
X-27020939Y-130758741D01*
X-27097906Y-130760840D01*
X-27157017Y-130759404D01*
X-27231663Y-130753022D01*
X-27318274Y-130737862D01*
X-27397443Y-130714725D01*
X-27469170Y-130683609D01*
X-27533456Y-130644515D01*
X-27590300Y-130597442D01*
X-27600758Y-130587099D01*
X-27656537Y-130519539D01*
X-27693889Y-130456037D01*
X-27722941Y-130385987D01*
X-27743692Y-130309391D01*
X-27756142Y-130226247D01*
X-27760293Y-130136556D01*
X-27760293Y-129656985D01*
X-27438625Y-129656985D01*
X-27438625Y-129737219D01*
X-27434732Y-129795928D01*
X-27414296Y-129872659D01*
X-27376343Y-129935788D01*
X-27355932Y-129957319D01*
X-27288692Y-129998192D01*
X-27212944Y-130010526D01*
X-27182163Y-130008720D01*
X-27111927Y-129987111D01*
X-27052110Y-129936521D01*
X-27021198Y-129885080D01*
X-26999217Y-129809654D01*
X-26993492Y-129735387D01*
X-26993553Y-129726201D01*
X-26999539Y-129649391D01*
X-27017678Y-129576419D01*
X-27055408Y-129506043D01*
X-27084705Y-129474209D01*
X-27150834Y-129435832D01*
X-27225401Y-129424344D01*
X-27248562Y-129425408D01*
X-27320790Y-129445905D01*
X-27379274Y-129492487D01*
X-27396372Y-129514471D01*
X-27428830Y-129583353D01*
X-27438625Y-129656985D01*
X-27760293Y-129656985D01*
X-27760293Y-129189870D01*
X-27434595Y-129189870D01*
X-27434595Y-129323593D01*
X-27430565Y-129323593D01*
X-27411720Y-129295505D01*
X-27361163Y-129240711D01*
X-27292092Y-129196506D01*
X-27221775Y-129173944D01*
X-27142236Y-129166423D01*
X-27064389Y-129171949D01*
G37*
G36*
X-29044766Y-130245000D02*
G01*
X-28720167Y-130245000D01*
X-28720167Y-129666510D01*
X-28714010Y-129584211D01*
X-28691265Y-129509717D01*
X-28644748Y-129452959D01*
X-28576341Y-129426472D01*
X-28545045Y-129424344D01*
X-28472305Y-129438431D01*
X-28409268Y-129484513D01*
X-28405826Y-129488457D01*
X-28366644Y-129556131D01*
X-28351718Y-129632947D01*
X-28351238Y-129651123D01*
X-28351238Y-130245000D01*
X-28025540Y-130245000D01*
X-28025540Y-129189870D01*
X-28351238Y-129189870D01*
X-28351238Y-129367923D01*
X-28355268Y-129367923D01*
X-28402692Y-129299445D01*
X-28457587Y-129245134D01*
X-28519952Y-129204992D01*
X-28589787Y-129179017D01*
X-28667093Y-129167210D01*
X-28694521Y-129166423D01*
X-28776610Y-129173201D01*
X-28847753Y-129193534D01*
X-28921291Y-129238013D01*
X-28977727Y-129303672D01*
X-29010562Y-129371450D01*
X-29032452Y-129452783D01*
X-29043398Y-129547671D01*
X-29044766Y-129600198D01*
X-29044766Y-130245000D01*
G37*
G36*
X-30015997Y-129518133D02*
G01*
X-29942175Y-129505493D01*
X-29881908Y-129467575D01*
X-29840172Y-129406746D01*
X-29828419Y-129341912D01*
X-29843929Y-129267739D01*
X-29883374Y-129215516D01*
X-29949804Y-129177210D01*
X-30021127Y-129166423D01*
X-30096781Y-129178879D01*
X-30157414Y-129216249D01*
X-30200369Y-129280352D01*
X-30210537Y-129341912D01*
X-30195234Y-129416656D01*
X-30156315Y-129469040D01*
X-30089891Y-129507346D01*
X-30015997Y-129518133D01*
G37*
G36*
X-30015997Y-130268447D02*
G01*
X-29942175Y-130255716D01*
X-29881908Y-130217522D01*
X-29840172Y-130156408D01*
X-29828419Y-130091493D01*
X-29843929Y-130017892D01*
X-29883374Y-129965830D01*
X-29949804Y-129927524D01*
X-30021127Y-129916737D01*
X-30096781Y-129929193D01*
X-30157414Y-129966563D01*
X-30200369Y-130030435D01*
X-30210537Y-130091493D01*
X-30195234Y-130166158D01*
X-30156315Y-130218988D01*
X-30089891Y-130257579D01*
X-30015997Y-130268447D01*
G37*
G36*
X-31925488Y-130245000D02*
G01*
X-31045481Y-130245000D01*
X-31045481Y-128767819D01*
X-31378506Y-128767819D01*
X-31378506Y-129963632D01*
X-31925488Y-129963632D01*
X-31925488Y-130245000D01*
G37*
G36*
X-32658022Y-128747743D02*
G01*
X-32580318Y-128757858D01*
X-32506805Y-128774717D01*
X-32420806Y-128805273D01*
X-32341354Y-128846365D01*
X-32268450Y-128897994D01*
X-32202093Y-128960160D01*
X-32165821Y-129001982D01*
X-32113295Y-129076824D01*
X-32078411Y-129141321D01*
X-32049869Y-129209929D01*
X-32027669Y-129282646D01*
X-32011813Y-129359474D01*
X-32002299Y-129440412D01*
X-31999127Y-129525460D01*
X-32002253Y-129605986D01*
X-32011629Y-129682699D01*
X-32027257Y-129755600D01*
X-32055582Y-129841364D01*
X-32093675Y-129921172D01*
X-32141535Y-129995023D01*
X-32199162Y-130062916D01*
X-32250922Y-130111088D01*
X-32320807Y-130162270D01*
X-32396452Y-130203416D01*
X-32477857Y-130234526D01*
X-32565023Y-130255601D01*
X-32638902Y-130265235D01*
X-32716468Y-130268447D01*
X-32780437Y-130266418D01*
X-32854370Y-130258429D01*
X-32929692Y-130242801D01*
X-33125331Y-130432578D01*
X-33590980Y-130432578D01*
X-33217288Y-130082334D01*
X-33230478Y-130069511D01*
X-33244033Y-130055589D01*
X-33268611Y-130028371D01*
X-33323118Y-129955780D01*
X-33367715Y-129876695D01*
X-33396257Y-129808751D01*
X-33418457Y-129736652D01*
X-33434313Y-129660397D01*
X-33443827Y-129579985D01*
X-33446271Y-129514836D01*
X-33096388Y-129514836D01*
X-33094808Y-129568594D01*
X-33086514Y-129643714D01*
X-33067850Y-129722987D01*
X-33039510Y-129793249D01*
X-32995272Y-129862515D01*
X-32940432Y-129917012D01*
X-32876661Y-129955938D01*
X-32803961Y-129979294D01*
X-32722330Y-129987079D01*
X-32642806Y-129979042D01*
X-32571297Y-129954931D01*
X-32507801Y-129914745D01*
X-32452320Y-129858485D01*
X-32417333Y-129806892D01*
X-32385665Y-129738528D01*
X-32363849Y-129661364D01*
X-32352991Y-129588219D01*
X-32349371Y-129508607D01*
X-32351885Y-129442588D01*
X-32361536Y-129368915D01*
X-32381945Y-129290613D01*
X-32412206Y-129220552D01*
X-32452320Y-129158729D01*
X-32508740Y-129100546D01*
X-32573953Y-129058987D01*
X-32647958Y-129034051D01*
X-32730757Y-129025739D01*
X-32811517Y-129033776D01*
X-32883073Y-129057888D01*
X-32945423Y-129098073D01*
X-32998569Y-129154333D01*
X-33031812Y-129206634D01*
X-33061903Y-129276574D01*
X-33082632Y-129356120D01*
X-33092949Y-129431948D01*
X-33096388Y-129514836D01*
X-33446271Y-129514836D01*
X-33446999Y-129495418D01*
X-33443942Y-129412780D01*
X-33434771Y-129334310D01*
X-33419487Y-129260006D01*
X-33391784Y-129172988D01*
X-33354529Y-129092480D01*
X-33307721Y-129018485D01*
X-33251360Y-128951001D01*
X-33200733Y-128902572D01*
X-33132104Y-128851117D01*
X-33057536Y-128809750D01*
X-32977029Y-128778473D01*
X-32890583Y-128757286D01*
X-32817150Y-128747600D01*
X-32739916Y-128744371D01*
X-32658022Y-128747743D01*
G37*
G36*
X-34653436Y-129049187D02*
G01*
X-34232117Y-129049187D01*
X-34232117Y-130245000D01*
X-33898360Y-130245000D01*
X-33898360Y-129049187D01*
X-33478872Y-129049187D01*
X-33478872Y-128767819D01*
X-34653436Y-128767819D01*
X-34653436Y-129049187D01*
G37*
D11*
%TO.C,G\u002A\u002A\u002A*%
G36*
X-143232273Y-118489772D02*
G01*
X-143033701Y-118517395D01*
X-142853974Y-118589661D01*
X-142695554Y-118705244D01*
X-142560904Y-118862818D01*
X-142509532Y-118945719D01*
X-142430471Y-119129035D01*
X-142394384Y-119314712D01*
X-142402146Y-119496126D01*
X-142454634Y-119666656D01*
X-142454889Y-119667208D01*
X-142475763Y-119710319D01*
X-142499111Y-119752402D01*
X-142528341Y-119797559D01*
X-142566860Y-119849889D01*
X-142618077Y-119913494D01*
X-142685399Y-119992475D01*
X-142772235Y-120090932D01*
X-142881992Y-120212967D01*
X-143018079Y-120362679D01*
X-143183904Y-120544169D01*
X-143676332Y-121089786D01*
X-144705768Y-122279292D01*
X-145710389Y-123507159D01*
X-146687139Y-124769268D01*
X-147632967Y-126061504D01*
X-148544817Y-127379747D01*
X-149419636Y-128719881D01*
X-150254370Y-130077789D01*
X-150318437Y-130185302D01*
X-150461795Y-130425614D01*
X-150583686Y-130628785D01*
X-150686690Y-130798222D01*
X-150773387Y-130937334D01*
X-150846357Y-131049529D01*
X-150908182Y-131138214D01*
X-150961440Y-131206797D01*
X-151008711Y-131258687D01*
X-151052577Y-131297290D01*
X-151095617Y-131326016D01*
X-151140411Y-131348272D01*
X-151189540Y-131367466D01*
X-151245583Y-131387006D01*
X-151357548Y-131415964D01*
X-151542967Y-131426211D01*
X-151728330Y-131394554D01*
X-151906074Y-131324316D01*
X-152068641Y-131218825D01*
X-152208468Y-131081404D01*
X-152317996Y-130915379D01*
X-152327667Y-130894999D01*
X-152366076Y-130768991D01*
X-152384636Y-130622289D01*
X-152381942Y-130475522D01*
X-152356585Y-130349318D01*
X-152346510Y-130323631D01*
X-152306678Y-130240162D01*
X-152243725Y-130120863D01*
X-152159811Y-129969373D01*
X-152057096Y-129789328D01*
X-151937739Y-129584368D01*
X-151803902Y-129358130D01*
X-151657744Y-129114252D01*
X-151501426Y-128856372D01*
X-151337107Y-128588128D01*
X-151166947Y-128313159D01*
X-150993107Y-128035102D01*
X-150817747Y-127757596D01*
X-150766292Y-127676914D01*
X-150614068Y-127440946D01*
X-150446451Y-127184534D01*
X-150267239Y-126913271D01*
X-150080233Y-126632754D01*
X-149889231Y-126348577D01*
X-149698033Y-126066333D01*
X-149510439Y-125791619D01*
X-149330248Y-125530028D01*
X-149161258Y-125287156D01*
X-149007271Y-125068597D01*
X-148872085Y-124879946D01*
X-148759499Y-124726798D01*
X-148688366Y-124631830D01*
X-148751397Y-124672232D01*
X-148802008Y-124703590D01*
X-148899677Y-124761919D01*
X-149028654Y-124837487D01*
X-149182562Y-124926654D01*
X-149355025Y-125025783D01*
X-149539668Y-125131232D01*
X-149730113Y-125239365D01*
X-149919985Y-125346540D01*
X-150102909Y-125449120D01*
X-150272507Y-125543466D01*
X-150422404Y-125625937D01*
X-150720619Y-125787623D01*
X-151230855Y-126058893D01*
X-151755859Y-126331243D01*
X-152300091Y-126606872D01*
X-152868011Y-126887978D01*
X-153464079Y-127176758D01*
X-154092755Y-127475409D01*
X-154758498Y-127786130D01*
X-155465770Y-128111118D01*
X-155551224Y-128150095D01*
X-155950554Y-128331846D01*
X-156306988Y-128493369D01*
X-156621610Y-128635144D01*
X-156895503Y-128757646D01*
X-157129750Y-128861354D01*
X-157325434Y-128946743D01*
X-157483639Y-129014291D01*
X-157605448Y-129064476D01*
X-157691944Y-129097774D01*
X-157744210Y-129114663D01*
X-157746270Y-129115172D01*
X-157892616Y-129135075D01*
X-158052709Y-129130914D01*
X-158206886Y-129104575D01*
X-158335481Y-129057943D01*
X-158447243Y-128988222D01*
X-158590647Y-128853642D01*
X-158706283Y-128686775D01*
X-158792294Y-128493515D01*
X-158846821Y-128279755D01*
X-158868008Y-128051391D01*
X-158853998Y-127814315D01*
X-158802934Y-127574423D01*
X-158777976Y-127492957D01*
X-158732452Y-127360686D01*
X-158678001Y-127222377D01*
X-158611407Y-127070845D01*
X-158529456Y-126898905D01*
X-158428934Y-126699372D01*
X-158306626Y-126465060D01*
X-158006253Y-125908053D01*
X-157402870Y-124854241D01*
X-156773047Y-123837949D01*
X-156114432Y-122855452D01*
X-155424673Y-121903026D01*
X-155357664Y-121813595D01*
X-155283901Y-121714205D01*
X-155225302Y-121634154D01*
X-155186641Y-121579975D01*
X-155172693Y-121558204D01*
X-155182000Y-121556353D01*
X-155231529Y-121554870D01*
X-155316510Y-121555134D01*
X-155428742Y-121557094D01*
X-155560024Y-121560696D01*
X-155714148Y-121564094D01*
X-155877319Y-121561553D01*
X-156006984Y-121549202D01*
X-156111593Y-121524911D01*
X-156199593Y-121486551D01*
X-156279433Y-121431991D01*
X-156359562Y-121359101D01*
X-156382594Y-121335511D01*
X-156483432Y-121207659D01*
X-156548086Y-121070360D01*
X-156580415Y-120912696D01*
X-156584282Y-120723750D01*
X-156572923Y-120594742D01*
X-156530108Y-120413525D01*
X-156453945Y-120258245D01*
X-156340844Y-120120003D01*
X-156312399Y-120092534D01*
X-156241644Y-120033438D01*
X-156164651Y-119984453D01*
X-156076698Y-119944819D01*
X-155973063Y-119913778D01*
X-155849024Y-119890569D01*
X-155699859Y-119874435D01*
X-155520847Y-119864616D01*
X-155307264Y-119860352D01*
X-155054389Y-119860885D01*
X-154757500Y-119865455D01*
X-154702295Y-119866612D01*
X-154403353Y-119875263D01*
X-154127783Y-119887299D01*
X-153879830Y-119902378D01*
X-153663735Y-119920162D01*
X-153483741Y-119940310D01*
X-153344089Y-119962483D01*
X-153249023Y-119986339D01*
X-153130407Y-120034890D01*
X-152956215Y-120143938D01*
X-152816395Y-120287217D01*
X-152709295Y-120466193D01*
X-152699151Y-120488703D01*
X-152667084Y-120577590D01*
X-152651477Y-120668603D01*
X-152647885Y-120784808D01*
X-152647930Y-120789998D01*
X-152662263Y-120955824D01*
X-152704820Y-121106013D01*
X-152780630Y-121253310D01*
X-152894719Y-121410455D01*
X-153144147Y-121719552D01*
X-153483363Y-122146062D01*
X-153795780Y-122547120D01*
X-154085633Y-122928484D01*
X-154357155Y-123295908D01*
X-154614581Y-123655150D01*
X-154862143Y-124011966D01*
X-155104077Y-124372113D01*
X-155344615Y-124741346D01*
X-155368355Y-124778428D01*
X-155458747Y-124921226D01*
X-155558932Y-125081549D01*
X-155664935Y-125252853D01*
X-155772784Y-125428594D01*
X-155878506Y-125602227D01*
X-155978127Y-125767209D01*
X-156067674Y-125916994D01*
X-156143174Y-126045040D01*
X-156200654Y-126144802D01*
X-156236140Y-126209736D01*
X-156255869Y-126245524D01*
X-156301134Y-126321846D01*
X-156359977Y-126417256D01*
X-156424668Y-126519071D01*
X-156475194Y-126598761D01*
X-156522617Y-126676889D01*
X-156553162Y-126731348D01*
X-156561826Y-126753583D01*
X-156542286Y-126747416D01*
X-156482227Y-126722446D01*
X-156385805Y-126680222D01*
X-156257144Y-126622635D01*
X-156100367Y-126551578D01*
X-155919599Y-126468942D01*
X-155718964Y-126376622D01*
X-155502585Y-126276508D01*
X-155274587Y-126170494D01*
X-155039093Y-126060471D01*
X-154800228Y-125948332D01*
X-154562116Y-125835970D01*
X-153781824Y-125461400D01*
X-152821277Y-124984140D01*
X-151905643Y-124509947D01*
X-151032879Y-124037497D01*
X-150200943Y-123565462D01*
X-149407794Y-123092518D01*
X-148651389Y-122617338D01*
X-147929686Y-122138597D01*
X-147240644Y-121654969D01*
X-146582220Y-121165128D01*
X-145952374Y-120667748D01*
X-145349062Y-120161504D01*
X-144770242Y-119645070D01*
X-144213874Y-119117120D01*
X-144091184Y-118997470D01*
X-143943176Y-118855440D01*
X-143820770Y-118742556D01*
X-143718888Y-118655498D01*
X-143632451Y-118590944D01*
X-143556382Y-118545574D01*
X-143485603Y-118516067D01*
X-143415037Y-118499103D01*
X-143339606Y-118491359D01*
X-143254231Y-118489516D01*
X-143232273Y-118489772D01*
G37*
%TD*%
D12*
%TO.C,SW64*%
X-163697500Y-110580000D03*
D13*
X-158617500Y-110580000D03*
D12*
X-153537500Y-110580000D03*
D14*
X-163677500Y-108030000D03*
X-162437500Y-109290000D03*
X-162427500Y-106790000D03*
D15*
X-162427500Y-108040000D03*
D14*
X-161177500Y-108040000D03*
X-157327500Y-105500000D03*
X-156077500Y-104240000D03*
D15*
X-156077500Y-105500000D03*
D14*
X-156077500Y-106740000D03*
X-154837500Y-105490000D03*
%TD*%
D12*
%TO.C,SW24*%
X-111310000Y-53430000D03*
D13*
X-106230000Y-53430000D03*
D12*
X-101150000Y-53430000D03*
D14*
X-111290000Y-50880000D03*
X-110050000Y-52140000D03*
X-110040000Y-49640000D03*
D15*
X-110040000Y-50890000D03*
D14*
X-108790000Y-50890000D03*
X-104940000Y-48350000D03*
X-103690000Y-47090000D03*
D15*
X-103690000Y-48350000D03*
D14*
X-103690000Y-49590000D03*
X-102450000Y-48340000D03*
%TD*%
D12*
%TO.C,SW6*%
X-149390000Y-29620000D03*
D13*
X-144310000Y-29620000D03*
D12*
X-139230000Y-29620000D03*
D14*
X-149370000Y-27070000D03*
X-148130000Y-28330000D03*
X-148120000Y-25830000D03*
D15*
X-148120000Y-27080000D03*
D14*
X-146870000Y-27080000D03*
X-143020000Y-24540000D03*
X-141770000Y-23280000D03*
D15*
X-141770000Y-24540000D03*
D14*
X-141770000Y-25780000D03*
X-140530000Y-24530000D03*
%TD*%
D12*
%TO.C,SW28*%
X-35110000Y-53430000D03*
D13*
X-30030000Y-53430000D03*
D12*
X-24950000Y-53430000D03*
D14*
X-35090000Y-50880000D03*
X-33850000Y-52140000D03*
X-33840000Y-49640000D03*
D15*
X-33840000Y-50890000D03*
D14*
X-32590000Y-50890000D03*
X-28740000Y-48350000D03*
X-27490000Y-47090000D03*
D15*
X-27490000Y-48350000D03*
D14*
X-27490000Y-49590000D03*
X-26250000Y-48340000D03*
%TD*%
D12*
%TO.C,SW13*%
X-6540000Y-29620000D03*
D13*
X-1460000Y-29620000D03*
D12*
X3620000Y-29620000D03*
D14*
X-6520000Y-27070000D03*
X-5280000Y-28330000D03*
X-5270000Y-25830000D03*
D15*
X-5270000Y-27080000D03*
D14*
X-4020000Y-27080000D03*
X-170000Y-24540000D03*
X1080000Y-23280000D03*
D15*
X1080000Y-24540000D03*
D14*
X1080000Y-25780000D03*
X2320000Y-24530000D03*
%TD*%
D12*
%TO.C,SW75*%
X-235135000Y-129630000D03*
D13*
X-230055000Y-129630000D03*
D12*
X-224975000Y-129630000D03*
D14*
X-235115000Y-127080000D03*
X-233875000Y-128340000D03*
X-233865000Y-125840000D03*
D15*
X-233865000Y-127090000D03*
D14*
X-232615000Y-127090000D03*
X-228765000Y-124550000D03*
X-227515000Y-123290000D03*
D15*
X-227515000Y-124550000D03*
D14*
X-227515000Y-125790000D03*
X-226275000Y-124540000D03*
%TD*%
D12*
%TO.C,SW41*%
X-63685000Y-72480000D03*
D13*
X-58605000Y-72480000D03*
D12*
X-53525000Y-72480000D03*
D14*
X-63665000Y-69930000D03*
X-62425000Y-71190000D03*
X-62415000Y-68690000D03*
D15*
X-62415000Y-69940000D03*
D14*
X-61165000Y-69940000D03*
X-57315000Y-67400000D03*
X-56065000Y-66140000D03*
D15*
X-56065000Y-67400000D03*
D14*
X-56065000Y-68640000D03*
X-54825000Y-67390000D03*
%TD*%
D12*
%TO.C,SW1*%
X-263720000Y-29590000D03*
D13*
X-258640000Y-29590000D03*
D12*
X-253560000Y-29590000D03*
D14*
X-263700000Y-27040000D03*
X-262460000Y-28300000D03*
X-262450000Y-25800000D03*
D15*
X-262450000Y-27050000D03*
D14*
X-261200000Y-27050000D03*
X-257350000Y-24510000D03*
X-256100000Y-23250000D03*
D15*
X-256100000Y-24510000D03*
D14*
X-256100000Y-25750000D03*
X-254860000Y-24500000D03*
%TD*%
D12*
%TO.C,SW67*%
X-106547500Y-110580000D03*
D13*
X-101467500Y-110580000D03*
D12*
X-96387500Y-110580000D03*
D14*
X-106527500Y-108030000D03*
X-105287500Y-109290000D03*
X-105277500Y-106790000D03*
D15*
X-105277500Y-108040000D03*
D14*
X-104027500Y-108040000D03*
X-100177500Y-105500000D03*
X-98927500Y-104240000D03*
D15*
X-98927500Y-105500000D03*
D14*
X-98927500Y-106740000D03*
X-97687500Y-105490000D03*
%TD*%
D12*
%TO.C,SW42*%
X-44635000Y-72480000D03*
D13*
X-39555000Y-72480000D03*
D12*
X-34475000Y-72480000D03*
D14*
X-44615000Y-69930000D03*
X-43375000Y-71190000D03*
X-43365000Y-68690000D03*
D15*
X-43365000Y-69940000D03*
D14*
X-42115000Y-69940000D03*
X-38265000Y-67400000D03*
X-37015000Y-66140000D03*
D15*
X-37015000Y-67400000D03*
D14*
X-37015000Y-68640000D03*
X-35775000Y-67390000D03*
%TD*%
D12*
%TO.C,SW11*%
X-44640000Y-29620000D03*
D13*
X-39560000Y-29620000D03*
D12*
X-34480000Y-29620000D03*
D14*
X-44620000Y-27070000D03*
X-43380000Y-28330000D03*
X-43370000Y-25830000D03*
D15*
X-43370000Y-27080000D03*
D14*
X-42120000Y-27080000D03*
X-38270000Y-24540000D03*
X-37020000Y-23280000D03*
D15*
X-37020000Y-24540000D03*
D14*
X-37020000Y-25780000D03*
X-35780000Y-24530000D03*
%TD*%
D12*
%TO.C,SW20*%
X-187510000Y-53430000D03*
D13*
X-182430000Y-53430000D03*
D12*
X-177350000Y-53430000D03*
D14*
X-187490000Y-50880000D03*
X-186250000Y-52140000D03*
X-186240000Y-49640000D03*
D15*
X-186240000Y-50890000D03*
D14*
X-184990000Y-50890000D03*
X-181140000Y-48350000D03*
X-179890000Y-47090000D03*
D15*
X-179890000Y-48350000D03*
D14*
X-179890000Y-49590000D03*
X-178650000Y-48340000D03*
%TD*%
D12*
%TO.C,SW26*%
X-73210000Y-53430000D03*
D13*
X-68130000Y-53430000D03*
D12*
X-63050000Y-53430000D03*
D14*
X-73190000Y-50880000D03*
X-71950000Y-52140000D03*
X-71940000Y-49640000D03*
D15*
X-71940000Y-50890000D03*
D14*
X-70690000Y-50890000D03*
X-66840000Y-48350000D03*
X-65590000Y-47090000D03*
D15*
X-65590000Y-48350000D03*
D14*
X-65590000Y-49590000D03*
X-64350000Y-48340000D03*
%TD*%
D12*
%TO.C,SW88*%
X22040000Y-129630000D03*
D13*
X27120000Y-129630000D03*
D12*
X32200000Y-129630000D03*
D14*
X22060000Y-127080000D03*
X23300000Y-128340000D03*
X23310000Y-125840000D03*
D15*
X23310000Y-127090000D03*
D14*
X24560000Y-127090000D03*
X28410000Y-124550000D03*
X29660000Y-123290000D03*
D15*
X29660000Y-124550000D03*
D14*
X29660000Y-125790000D03*
X30900000Y-124540000D03*
%TD*%
D16*
%TO.C,J2*%
X-264700000Y-37700000D03*
D17*
X-264700000Y-39700000D03*
X-264700000Y-41700000D03*
X-264700000Y-43700000D03*
X-264700000Y-45700000D03*
%TD*%
D12*
%TO.C,SW63*%
X-182747500Y-110580000D03*
D13*
X-177667500Y-110580000D03*
D12*
X-172587500Y-110580000D03*
D14*
X-182727500Y-108030000D03*
X-181487500Y-109290000D03*
X-181477500Y-106790000D03*
D15*
X-181477500Y-108040000D03*
D14*
X-180227500Y-108040000D03*
X-176377500Y-105500000D03*
X-175127500Y-104240000D03*
D15*
X-175127500Y-105500000D03*
D14*
X-175127500Y-106740000D03*
X-173887500Y-105490000D03*
%TD*%
D12*
%TO.C,SW70*%
X-49397500Y-110580000D03*
D13*
X-44317500Y-110580000D03*
D12*
X-39237500Y-110580000D03*
D14*
X-49377500Y-108030000D03*
X-48137500Y-109290000D03*
X-48127500Y-106790000D03*
D15*
X-48127500Y-108040000D03*
D14*
X-46877500Y-108040000D03*
X-43027500Y-105500000D03*
X-41777500Y-104240000D03*
D15*
X-41777500Y-105500000D03*
D14*
X-41777500Y-106740000D03*
X-40537500Y-105490000D03*
%TD*%
D12*
%TO.C,SW44*%
X-1772000Y-72480000D03*
D13*
X3308000Y-72480000D03*
D12*
X8388000Y-72480000D03*
D14*
X-1752000Y-69930000D03*
X-512000Y-71190000D03*
X-502000Y-68690000D03*
D15*
X-502000Y-69940000D03*
D14*
X748000Y-69940000D03*
X4598000Y-67400000D03*
X5848000Y-66140000D03*
D15*
X5848000Y-67400000D03*
D14*
X5848000Y-68640000D03*
X7088000Y-67390000D03*
%TD*%
D12*
%TO.C,SW49*%
X-192272500Y-91530000D03*
D13*
X-187192500Y-91530000D03*
D12*
X-182112500Y-91530000D03*
D14*
X-192252500Y-88980000D03*
X-191012500Y-90240000D03*
X-191002500Y-87740000D03*
D15*
X-191002500Y-88990000D03*
D14*
X-189752500Y-88990000D03*
X-185902500Y-86450000D03*
X-184652500Y-85190000D03*
D15*
X-184652500Y-86450000D03*
D14*
X-184652500Y-87690000D03*
X-183412500Y-86440000D03*
%TD*%
D12*
%TO.C,SW38*%
X-120835000Y-72480000D03*
D13*
X-115755000Y-72480000D03*
D12*
X-110675000Y-72480000D03*
D14*
X-120815000Y-69930000D03*
X-119575000Y-71190000D03*
X-119565000Y-68690000D03*
D15*
X-119565000Y-69940000D03*
D14*
X-118315000Y-69940000D03*
X-114465000Y-67400000D03*
X-113215000Y-66140000D03*
D15*
X-113215000Y-67400000D03*
D14*
X-113215000Y-68640000D03*
X-111975000Y-67390000D03*
%TD*%
D12*
%TO.C,SW84*%
X-49397000Y-129630000D03*
D13*
X-44317000Y-129630000D03*
D12*
X-39237000Y-129630000D03*
D14*
X-49377000Y-127080000D03*
X-48137000Y-128340000D03*
X-48127000Y-125840000D03*
D15*
X-48127000Y-127090000D03*
D14*
X-46877000Y-127090000D03*
X-43027000Y-124550000D03*
X-41777000Y-123290000D03*
D15*
X-41777000Y-124550000D03*
D14*
X-41777000Y-125790000D03*
X-40537000Y-124540000D03*
%TD*%
D12*
%TO.C,SW34*%
X-197035000Y-72480000D03*
D13*
X-191955000Y-72480000D03*
D12*
X-186875000Y-72480000D03*
D14*
X-197015000Y-69930000D03*
X-195775000Y-71190000D03*
X-195765000Y-68690000D03*
D15*
X-195765000Y-69940000D03*
D14*
X-194515000Y-69940000D03*
X-190665000Y-67400000D03*
X-189415000Y-66140000D03*
D15*
X-189415000Y-67400000D03*
D14*
X-189415000Y-68640000D03*
X-188175000Y-67390000D03*
%TD*%
D12*
%TO.C,SW73*%
X2990000Y-110580000D03*
D13*
X8070000Y-110580000D03*
D12*
X13150000Y-110580000D03*
D14*
X3010000Y-108030000D03*
X4250000Y-109290000D03*
X4260000Y-106790000D03*
D15*
X4260000Y-108040000D03*
D14*
X5510000Y-108040000D03*
X9360000Y-105500000D03*
X10610000Y-104240000D03*
D15*
X10610000Y-105500000D03*
D14*
X10610000Y-106740000D03*
X11850000Y-105490000D03*
%TD*%
D12*
%TO.C,SW76*%
X-211322000Y-129630000D03*
D13*
X-206242000Y-129630000D03*
D12*
X-201162000Y-129630000D03*
D14*
X-211302000Y-127080000D03*
X-210062000Y-128340000D03*
X-210052000Y-125840000D03*
D15*
X-210052000Y-127090000D03*
D14*
X-208802000Y-127090000D03*
X-204952000Y-124550000D03*
X-203702000Y-123290000D03*
D15*
X-203702000Y-124550000D03*
D14*
X-203702000Y-125790000D03*
X-202462000Y-124540000D03*
%TD*%
D12*
%TO.C,SW53*%
X-116072500Y-91530000D03*
D13*
X-110992500Y-91530000D03*
D12*
X-105912500Y-91530000D03*
D14*
X-116052500Y-88980000D03*
X-114812500Y-90240000D03*
X-114802500Y-87740000D03*
D15*
X-114802500Y-88990000D03*
D14*
X-113552500Y-88990000D03*
X-109702500Y-86450000D03*
X-108452500Y-85190000D03*
D15*
X-108452500Y-86450000D03*
D14*
X-108452500Y-87690000D03*
X-107212500Y-86440000D03*
%TD*%
D12*
%TO.C,SW27*%
X-54160000Y-53430000D03*
D13*
X-49080000Y-53430000D03*
D12*
X-44000000Y-53430000D03*
D14*
X-54140000Y-50880000D03*
X-52900000Y-52140000D03*
X-52890000Y-49640000D03*
D15*
X-52890000Y-50890000D03*
D14*
X-51640000Y-50890000D03*
X-47790000Y-48350000D03*
X-46540000Y-47090000D03*
D15*
X-46540000Y-48350000D03*
D14*
X-46540000Y-49590000D03*
X-45300000Y-48340000D03*
%TD*%
D18*
%TO.C,SW59*%
X-15699900Y-84545000D03*
D19*
X-15699900Y-99785000D03*
D12*
X-8841900Y-91530000D03*
D13*
X-3761900Y-91530000D03*
D12*
X1318100Y-91530000D03*
D18*
X8176100Y-84545000D03*
D19*
X8176100Y-99785000D03*
D14*
X-8821900Y-88980000D03*
X-7581900Y-90240000D03*
X-7571900Y-87740000D03*
D15*
X-7571900Y-88990000D03*
D14*
X-6321900Y-88990000D03*
X-2471900Y-86450000D03*
X-1221900Y-85190000D03*
D15*
X-1221900Y-86450000D03*
D14*
X-1221900Y-87690000D03*
X18100Y-86440000D03*
%TD*%
D12*
%TO.C,SW2*%
X-235130000Y-29610000D03*
D13*
X-230050000Y-29610000D03*
D12*
X-224970000Y-29610000D03*
D14*
X-235110000Y-27060000D03*
X-233870000Y-28320000D03*
X-233860000Y-25820000D03*
D15*
X-233860000Y-27070000D03*
D14*
X-232610000Y-27070000D03*
X-228760000Y-24530000D03*
X-227510000Y-23270000D03*
D15*
X-227510000Y-24530000D03*
D14*
X-227510000Y-25770000D03*
X-226270000Y-24520000D03*
%TD*%
D12*
%TO.C,SW22*%
X-149410000Y-53430000D03*
D13*
X-144330000Y-53430000D03*
D12*
X-139250000Y-53430000D03*
D14*
X-149390000Y-50880000D03*
X-148150000Y-52140000D03*
X-148140000Y-49640000D03*
D15*
X-148140000Y-50890000D03*
D14*
X-146890000Y-50890000D03*
X-143040000Y-48350000D03*
X-141790000Y-47090000D03*
D15*
X-141790000Y-48350000D03*
D14*
X-141790000Y-49590000D03*
X-140550000Y-48340000D03*
%TD*%
D12*
%TO.C,SW60*%
X22040000Y-91530000D03*
D13*
X27120000Y-91530000D03*
D12*
X32200000Y-91530000D03*
D14*
X22060000Y-88980000D03*
X23300000Y-90240000D03*
X23310000Y-87740000D03*
D15*
X23310000Y-88990000D03*
D14*
X24560000Y-88990000D03*
X28410000Y-86450000D03*
X29660000Y-85190000D03*
D15*
X29660000Y-86450000D03*
D14*
X29660000Y-87690000D03*
X30900000Y-86440000D03*
%TD*%
D20*
%TO.C,SWb\u00F4trst1*%
X-252600000Y-42650000D03*
D21*
X-250100000Y-42650000D03*
%TD*%
D12*
%TO.C,SW74*%
X22040000Y-110580000D03*
D13*
X27120000Y-110580000D03*
D12*
X32200000Y-110580000D03*
D14*
X22060000Y-108030000D03*
X23300000Y-109290000D03*
X23310000Y-106790000D03*
D15*
X23310000Y-108040000D03*
D14*
X24560000Y-108040000D03*
X28410000Y-105500000D03*
X29660000Y-104240000D03*
D15*
X29660000Y-105500000D03*
D14*
X29660000Y-106740000D03*
X30900000Y-105490000D03*
%TD*%
D12*
%TO.C,SW18*%
X-225610000Y-53430000D03*
D13*
X-220530000Y-53430000D03*
D12*
X-215450000Y-53430000D03*
D14*
X-225590000Y-50880000D03*
X-224350000Y-52140000D03*
X-224340000Y-49640000D03*
D15*
X-224340000Y-50890000D03*
D14*
X-223090000Y-50890000D03*
X-219240000Y-48350000D03*
X-217990000Y-47090000D03*
D15*
X-217990000Y-48350000D03*
D14*
X-217990000Y-49590000D03*
X-216750000Y-48340000D03*
%TD*%
D12*
%TO.C,SW45*%
X22040000Y-72480000D03*
D13*
X27120000Y-72480000D03*
D12*
X32200000Y-72480000D03*
D14*
X22060000Y-69930000D03*
X23300000Y-71190000D03*
X23310000Y-68690000D03*
D15*
X23310000Y-69940000D03*
D14*
X24560000Y-69940000D03*
X28410000Y-67400000D03*
X29660000Y-66140000D03*
D15*
X29660000Y-67400000D03*
D14*
X29660000Y-68640000D03*
X30900000Y-67390000D03*
%TD*%
D12*
%TO.C,SW86*%
X-16060000Y-129630000D03*
D13*
X-10980000Y-129630000D03*
D12*
X-5900000Y-129630000D03*
D14*
X-16040000Y-127080000D03*
X-14800000Y-128340000D03*
X-14790000Y-125840000D03*
D15*
X-14790000Y-127090000D03*
D14*
X-13540000Y-127090000D03*
X-9690000Y-124550000D03*
X-8440000Y-123290000D03*
D15*
X-8440000Y-124550000D03*
D14*
X-8440000Y-125790000D03*
X-7200000Y-124540000D03*
%TD*%
D12*
%TO.C,SW8*%
X-111290000Y-29620000D03*
D13*
X-106210000Y-29620000D03*
D12*
X-101130000Y-29620000D03*
D14*
X-111270000Y-27070000D03*
X-110030000Y-28330000D03*
X-110020000Y-25830000D03*
D15*
X-110020000Y-27080000D03*
D14*
X-108770000Y-27080000D03*
X-104920000Y-24540000D03*
X-103670000Y-23280000D03*
D15*
X-103670000Y-24540000D03*
D14*
X-103670000Y-25780000D03*
X-102430000Y-24530000D03*
%TD*%
D12*
%TO.C,SW30*%
X22040000Y-53430000D03*
D13*
X27120000Y-53430000D03*
D12*
X32200000Y-53430000D03*
D14*
X22060000Y-50880000D03*
X23300000Y-52140000D03*
X23310000Y-49640000D03*
D15*
X23310000Y-50890000D03*
D14*
X24560000Y-50890000D03*
X28410000Y-48350000D03*
X29660000Y-47090000D03*
D15*
X29660000Y-48350000D03*
D14*
X29660000Y-49590000D03*
X30900000Y-48340000D03*
%TD*%
D12*
%TO.C,SW65*%
X-144647500Y-110580000D03*
D13*
X-139567500Y-110580000D03*
D12*
X-134487500Y-110580000D03*
D14*
X-144627500Y-108030000D03*
X-143387500Y-109290000D03*
X-143377500Y-106790000D03*
D15*
X-143377500Y-108040000D03*
D14*
X-142127500Y-108040000D03*
X-138277500Y-105500000D03*
X-137027500Y-104240000D03*
D15*
X-137027500Y-105500000D03*
D14*
X-137027500Y-106740000D03*
X-135787500Y-105490000D03*
%TD*%
D12*
%TO.C,SW47*%
X-230372500Y-91530000D03*
D13*
X-225292500Y-91530000D03*
D12*
X-220212500Y-91530000D03*
D14*
X-230352500Y-88980000D03*
X-229112500Y-90240000D03*
X-229102500Y-87740000D03*
D15*
X-229102500Y-88990000D03*
D14*
X-227852500Y-88990000D03*
X-224002500Y-86450000D03*
X-222752500Y-85190000D03*
D15*
X-222752500Y-86450000D03*
D14*
X-222752500Y-87690000D03*
X-221512500Y-86440000D03*
%TD*%
D18*
%TO.C,SW29*%
X-13393000Y-46445000D03*
D19*
X-13393000Y-61685000D03*
D12*
X-6535000Y-53430000D03*
D13*
X-1455000Y-53430000D03*
D12*
X3625000Y-53430000D03*
D18*
X10483000Y-46445000D03*
D19*
X10483000Y-61685000D03*
D14*
X-6515000Y-50880000D03*
X-5275000Y-52140000D03*
X-5265000Y-49640000D03*
D15*
X-5265000Y-50890000D03*
D14*
X-4015000Y-50890000D03*
X-165000Y-48350000D03*
X1085000Y-47090000D03*
D15*
X1085000Y-48350000D03*
D14*
X1085000Y-49590000D03*
X2325000Y-48340000D03*
%TD*%
D12*
%TO.C,SW57*%
X-39872500Y-91530000D03*
D13*
X-34792500Y-91530000D03*
D12*
X-29712500Y-91530000D03*
D14*
X-39852500Y-88980000D03*
X-38612500Y-90240000D03*
X-38602500Y-87740000D03*
D15*
X-38602500Y-88990000D03*
D14*
X-37352500Y-88990000D03*
X-33502500Y-86450000D03*
X-32252500Y-85190000D03*
D15*
X-32252500Y-86450000D03*
D14*
X-32252500Y-87690000D03*
X-31012500Y-86440000D03*
%TD*%
D12*
%TO.C,SW7*%
X-130340000Y-29620000D03*
D13*
X-125260000Y-29620000D03*
D12*
X-120180000Y-29620000D03*
D14*
X-130320000Y-27070000D03*
X-129080000Y-28330000D03*
X-129070000Y-25830000D03*
D15*
X-129070000Y-27080000D03*
D14*
X-127820000Y-27080000D03*
X-123970000Y-24540000D03*
X-122720000Y-23280000D03*
D15*
X-122720000Y-24540000D03*
D14*
X-122720000Y-25780000D03*
X-121480000Y-24530000D03*
%TD*%
D18*
%TO.C,SW58*%
X-258587400Y-103595000D03*
D19*
X-258587400Y-118835000D03*
D12*
X-251729400Y-110580000D03*
D13*
X-246649400Y-110580000D03*
D12*
X-241569400Y-110580000D03*
D18*
X-234711400Y-103595000D03*
D19*
X-234711400Y-118835000D03*
D14*
X-251709400Y-108030000D03*
X-250469400Y-109290000D03*
X-250459400Y-106790000D03*
D15*
X-250459400Y-108040000D03*
D14*
X-249209400Y-108040000D03*
X-245359400Y-105500000D03*
X-244109400Y-104240000D03*
D15*
X-244109400Y-105500000D03*
D14*
X-244109400Y-106740000D03*
X-242869400Y-105490000D03*
%TD*%
D12*
%TO.C,SW36*%
X-158935000Y-72480000D03*
D13*
X-153855000Y-72480000D03*
D12*
X-148775000Y-72480000D03*
D14*
X-158915000Y-69930000D03*
X-157675000Y-71190000D03*
X-157665000Y-68690000D03*
D15*
X-157665000Y-69940000D03*
D14*
X-156415000Y-69940000D03*
X-152565000Y-67400000D03*
X-151315000Y-66140000D03*
D15*
X-151315000Y-67400000D03*
D14*
X-151315000Y-68640000D03*
X-150075000Y-67390000D03*
%TD*%
D12*
%TO.C,SW48*%
X-211322500Y-91530000D03*
D13*
X-206242500Y-91530000D03*
D12*
X-201162500Y-91530000D03*
D14*
X-211302500Y-88980000D03*
X-210062500Y-90240000D03*
X-210052500Y-87740000D03*
D15*
X-210052500Y-88990000D03*
D14*
X-208802500Y-88990000D03*
X-204952500Y-86450000D03*
X-203702500Y-85190000D03*
D15*
X-203702500Y-86450000D03*
D14*
X-203702500Y-87690000D03*
X-202462500Y-86440000D03*
%TD*%
D12*
%TO.C,SW51*%
X-154172500Y-91530000D03*
D13*
X-149092500Y-91530000D03*
D12*
X-144012500Y-91530000D03*
D14*
X-154152500Y-88980000D03*
X-152912500Y-90240000D03*
X-152902500Y-87740000D03*
D15*
X-152902500Y-88990000D03*
D14*
X-151652500Y-88990000D03*
X-147802500Y-86450000D03*
X-146552500Y-85190000D03*
D15*
X-146552500Y-86450000D03*
D14*
X-146552500Y-87690000D03*
X-145312500Y-86440000D03*
%TD*%
D12*
%TO.C,SW52*%
X-135122500Y-91530000D03*
D13*
X-130042500Y-91530000D03*
D12*
X-124962500Y-91530000D03*
D14*
X-135102500Y-88980000D03*
X-133862500Y-90240000D03*
X-133852500Y-87740000D03*
D15*
X-133852500Y-88990000D03*
D14*
X-132602500Y-88990000D03*
X-128752500Y-86450000D03*
X-127502500Y-85190000D03*
D15*
X-127502500Y-86450000D03*
D14*
X-127502500Y-87690000D03*
X-126262500Y-86440000D03*
%TD*%
D12*
%TO.C,SW25*%
X-92260000Y-53430000D03*
D13*
X-87180000Y-53430000D03*
D12*
X-82100000Y-53430000D03*
D14*
X-92240000Y-50880000D03*
X-91000000Y-52140000D03*
X-90990000Y-49640000D03*
D15*
X-90990000Y-50890000D03*
D14*
X-89740000Y-50890000D03*
X-85890000Y-48350000D03*
X-84640000Y-47090000D03*
D15*
X-84640000Y-48350000D03*
D14*
X-84640000Y-49590000D03*
X-83400000Y-48340000D03*
%TD*%
D12*
%TO.C,SW61*%
X-220847500Y-110580000D03*
D13*
X-215767500Y-110580000D03*
D12*
X-210687500Y-110580000D03*
D14*
X-220827500Y-108030000D03*
X-219587500Y-109290000D03*
X-219577500Y-106790000D03*
D15*
X-219577500Y-108040000D03*
D14*
X-218327500Y-108040000D03*
X-214477500Y-105500000D03*
X-213227500Y-104240000D03*
D15*
X-213227500Y-105500000D03*
D14*
X-213227500Y-106740000D03*
X-211987500Y-105490000D03*
%TD*%
D12*
%TO.C,SW55*%
X-77972500Y-91530000D03*
D13*
X-72892500Y-91530000D03*
D12*
X-67812500Y-91530000D03*
D14*
X-77952500Y-88980000D03*
X-76712500Y-90240000D03*
X-76702500Y-87740000D03*
D15*
X-76702500Y-88990000D03*
D14*
X-75452500Y-88990000D03*
X-71602500Y-86450000D03*
X-70352500Y-85190000D03*
D15*
X-70352500Y-86450000D03*
D14*
X-70352500Y-87690000D03*
X-69112500Y-86440000D03*
%TD*%
D12*
%TO.C,SW1000*%
X-261329000Y-91530000D03*
D13*
X-256249000Y-91530000D03*
D12*
X-251169000Y-91530000D03*
D14*
X-261309000Y-88980000D03*
X-260069000Y-90240000D03*
X-260059000Y-87740000D03*
D15*
X-260059000Y-88990000D03*
D14*
X-258809000Y-88990000D03*
X-254959000Y-86450000D03*
X-253709000Y-85190000D03*
D15*
X-253709000Y-86450000D03*
D14*
X-253709000Y-87690000D03*
X-252469000Y-86440000D03*
%TD*%
D12*
%TO.C,SW68*%
X-87497500Y-110580000D03*
D13*
X-82417500Y-110580000D03*
D12*
X-77337500Y-110580000D03*
D14*
X-87477500Y-108030000D03*
X-86237500Y-109290000D03*
X-86227500Y-106790000D03*
D15*
X-86227500Y-108040000D03*
D14*
X-84977500Y-108040000D03*
X-81127500Y-105500000D03*
X-79877500Y-104240000D03*
D15*
X-79877500Y-105500000D03*
D14*
X-79877500Y-106740000D03*
X-78637500Y-105490000D03*
%TD*%
D12*
%TO.C,SW69*%
X-68447500Y-110580000D03*
D13*
X-63367500Y-110580000D03*
D12*
X-58287500Y-110580000D03*
D14*
X-68427500Y-108030000D03*
X-67187500Y-109290000D03*
X-67177500Y-106790000D03*
D15*
X-67177500Y-108040000D03*
D14*
X-65927500Y-108040000D03*
X-62077500Y-105500000D03*
X-60827500Y-104240000D03*
D15*
X-60827500Y-105500000D03*
D14*
X-60827500Y-106740000D03*
X-59587500Y-105490000D03*
%TD*%
D12*
%TO.C,SW56*%
X-58922500Y-91530000D03*
D13*
X-53842500Y-91530000D03*
D12*
X-48762500Y-91530000D03*
D14*
X-58902500Y-88980000D03*
X-57662500Y-90240000D03*
X-57652500Y-87740000D03*
D15*
X-57652500Y-88990000D03*
D14*
X-56402500Y-88990000D03*
X-52552500Y-86450000D03*
X-51302500Y-85190000D03*
D15*
X-51302500Y-86450000D03*
D14*
X-51302500Y-87690000D03*
X-50062500Y-86440000D03*
%TD*%
D12*
%TO.C,SW54*%
X-97022500Y-91530000D03*
D13*
X-91942500Y-91530000D03*
D12*
X-86862500Y-91530000D03*
D14*
X-97002500Y-88980000D03*
X-95762500Y-90240000D03*
X-95752500Y-87740000D03*
D15*
X-95752500Y-88990000D03*
D14*
X-94502500Y-88990000D03*
X-90652500Y-86450000D03*
X-89402500Y-85190000D03*
D15*
X-89402500Y-86450000D03*
D14*
X-89402500Y-87690000D03*
X-88162500Y-86440000D03*
%TD*%
D12*
%TO.C,SW46*%
X-256566000Y-91530000D03*
D13*
X-251486000Y-91530000D03*
D12*
X-246406000Y-91530000D03*
D14*
X-256546000Y-88980000D03*
X-255306000Y-90240000D03*
X-255296000Y-87740000D03*
D15*
X-255296000Y-88990000D03*
D14*
X-254046000Y-88990000D03*
X-250196000Y-86450000D03*
X-248946000Y-85190000D03*
D15*
X-248946000Y-86450000D03*
D14*
X-248946000Y-87690000D03*
X-247706000Y-86440000D03*
%TD*%
D12*
%TO.C,SW62*%
X-201797500Y-110580000D03*
D13*
X-196717500Y-110580000D03*
D12*
X-191637500Y-110580000D03*
D14*
X-201777500Y-108030000D03*
X-200537500Y-109290000D03*
X-200527500Y-106790000D03*
D15*
X-200527500Y-108040000D03*
D14*
X-199277500Y-108040000D03*
X-195427500Y-105500000D03*
X-194177500Y-104240000D03*
D15*
X-194177500Y-105500000D03*
D14*
X-194177500Y-106740000D03*
X-192937500Y-105490000D03*
%TD*%
D12*
%TO.C,SW32*%
X-235135000Y-72480000D03*
D13*
X-230055000Y-72480000D03*
D12*
X-224975000Y-72480000D03*
D14*
X-235115000Y-69930000D03*
X-233875000Y-71190000D03*
X-233865000Y-68690000D03*
D15*
X-233865000Y-69940000D03*
D14*
X-232615000Y-69940000D03*
X-228765000Y-67400000D03*
X-227515000Y-66140000D03*
D15*
X-227515000Y-67400000D03*
D14*
X-227515000Y-68640000D03*
X-226275000Y-67390000D03*
%TD*%
D12*
%TO.C,SW50*%
X-173222500Y-91530000D03*
D13*
X-168142500Y-91530000D03*
D12*
X-163062500Y-91530000D03*
D14*
X-173202500Y-88980000D03*
X-171962500Y-90240000D03*
X-171952500Y-87740000D03*
D15*
X-171952500Y-88990000D03*
D14*
X-170702500Y-88990000D03*
X-166852500Y-86450000D03*
X-165602500Y-85190000D03*
D15*
X-165602500Y-86450000D03*
D14*
X-165602500Y-87690000D03*
X-164362500Y-86440000D03*
%TD*%
D12*
%TO.C,SW66*%
X-125597500Y-110580000D03*
D13*
X-120517500Y-110580000D03*
D12*
X-115437500Y-110580000D03*
D14*
X-125577500Y-108030000D03*
X-124337500Y-109290000D03*
X-124327500Y-106790000D03*
D15*
X-124327500Y-108040000D03*
D14*
X-123077500Y-108040000D03*
X-119227500Y-105500000D03*
X-117977500Y-104240000D03*
D15*
X-117977500Y-105500000D03*
D14*
X-117977500Y-106740000D03*
X-116737500Y-105490000D03*
%TD*%
D12*
%TO.C,SW4*%
X-197030000Y-29610000D03*
D13*
X-191950000Y-29610000D03*
D12*
X-186870000Y-29610000D03*
D14*
X-197010000Y-27060000D03*
X-195770000Y-28320000D03*
X-195760000Y-25820000D03*
D15*
X-195760000Y-27070000D03*
D14*
X-194510000Y-27070000D03*
X-190660000Y-24530000D03*
X-189410000Y-23270000D03*
D15*
X-189410000Y-24530000D03*
D14*
X-189410000Y-25770000D03*
X-188170000Y-24520000D03*
%TD*%
D12*
%TO.C,SW5*%
X-177980000Y-29610000D03*
D13*
X-172900000Y-29610000D03*
D12*
X-167820000Y-29610000D03*
D14*
X-177960000Y-27060000D03*
X-176720000Y-28320000D03*
X-176710000Y-25820000D03*
D15*
X-176710000Y-27070000D03*
D14*
X-175460000Y-27070000D03*
X-171610000Y-24530000D03*
X-170360000Y-23270000D03*
D15*
X-170360000Y-24530000D03*
D14*
X-170360000Y-25770000D03*
X-169120000Y-24520000D03*
%TD*%
D12*
%TO.C,SW40*%
X-82735000Y-72480000D03*
D13*
X-77655000Y-72480000D03*
D12*
X-72575000Y-72480000D03*
D14*
X-82715000Y-69930000D03*
X-81475000Y-71190000D03*
X-81465000Y-68690000D03*
D15*
X-81465000Y-69940000D03*
D14*
X-80215000Y-69940000D03*
X-76365000Y-67400000D03*
X-75115000Y-66140000D03*
D15*
X-75115000Y-67400000D03*
D14*
X-75115000Y-68640000D03*
X-73875000Y-67390000D03*
%TD*%
D12*
%TO.C,SW35*%
X-177985000Y-72480000D03*
D13*
X-172905000Y-72480000D03*
D12*
X-167825000Y-72480000D03*
D14*
X-177965000Y-69930000D03*
X-176725000Y-71190000D03*
X-176715000Y-68690000D03*
D15*
X-176715000Y-69940000D03*
D14*
X-175465000Y-69940000D03*
X-171615000Y-67400000D03*
X-170365000Y-66140000D03*
D15*
X-170365000Y-67400000D03*
D14*
X-170365000Y-68640000D03*
X-169125000Y-67390000D03*
%TD*%
D12*
%TO.C,SW21*%
X-168460000Y-53430000D03*
D13*
X-163380000Y-53430000D03*
D12*
X-158300000Y-53430000D03*
D14*
X-168440000Y-50880000D03*
X-167200000Y-52140000D03*
X-167190000Y-49640000D03*
D15*
X-167190000Y-50890000D03*
D14*
X-165940000Y-50890000D03*
X-162090000Y-48350000D03*
X-160840000Y-47090000D03*
D15*
X-160840000Y-48350000D03*
D14*
X-160840000Y-49590000D03*
X-159600000Y-48340000D03*
%TD*%
D12*
%TO.C,SW9*%
X-92240000Y-29620000D03*
D13*
X-87160000Y-29620000D03*
D12*
X-82080000Y-29620000D03*
D14*
X-92220000Y-27070000D03*
X-90980000Y-28330000D03*
X-90970000Y-25830000D03*
D15*
X-90970000Y-27080000D03*
D14*
X-89720000Y-27080000D03*
X-85870000Y-24540000D03*
X-84620000Y-23280000D03*
D15*
X-84620000Y-24540000D03*
D14*
X-84620000Y-25780000D03*
X-83380000Y-24530000D03*
%TD*%
D20*
%TO.C,SWb\u00F4t1*%
X-252600000Y-40110000D03*
D21*
X-250100000Y-40110000D03*
%TD*%
D12*
%TO.C,SW87*%
X2990000Y-129630000D03*
D13*
X8070000Y-129630000D03*
D12*
X13150000Y-129630000D03*
D14*
X3010000Y-127080000D03*
X4250000Y-128340000D03*
X4260000Y-125840000D03*
D15*
X4260000Y-127090000D03*
D14*
X5510000Y-127090000D03*
X9360000Y-124550000D03*
X10610000Y-123290000D03*
D15*
X10610000Y-124550000D03*
D14*
X10610000Y-125790000D03*
X11850000Y-124540000D03*
%TD*%
D12*
%TO.C,SW72*%
X-258947000Y-129630000D03*
D13*
X-253867000Y-129630000D03*
D12*
X-248787000Y-129630000D03*
D14*
X-258927000Y-127080000D03*
X-257687000Y-128340000D03*
X-257677000Y-125840000D03*
D15*
X-257677000Y-127090000D03*
D14*
X-256427000Y-127090000D03*
X-252577000Y-124550000D03*
X-251327000Y-123290000D03*
D15*
X-251327000Y-124550000D03*
D14*
X-251327000Y-125790000D03*
X-250087000Y-124540000D03*
%TD*%
D12*
%TO.C,SW33*%
X-216085000Y-72480000D03*
D13*
X-211005000Y-72480000D03*
D12*
X-205925000Y-72480000D03*
D14*
X-216065000Y-69930000D03*
X-214825000Y-71190000D03*
X-214815000Y-68690000D03*
D15*
X-214815000Y-69940000D03*
D14*
X-213565000Y-69940000D03*
X-209715000Y-67400000D03*
X-208465000Y-66140000D03*
D15*
X-208465000Y-67400000D03*
D14*
X-208465000Y-68640000D03*
X-207225000Y-67390000D03*
%TD*%
D12*
%TO.C,SW10*%
X-63690000Y-29620000D03*
D13*
X-58610000Y-29620000D03*
D12*
X-53530000Y-29620000D03*
D14*
X-63670000Y-27070000D03*
X-62430000Y-28330000D03*
X-62420000Y-25830000D03*
D15*
X-62420000Y-27080000D03*
D14*
X-61170000Y-27080000D03*
X-57320000Y-24540000D03*
X-56070000Y-23280000D03*
D15*
X-56070000Y-24540000D03*
D14*
X-56070000Y-25780000D03*
X-54830000Y-24530000D03*
%TD*%
D12*
%TO.C,SW71*%
X-23203500Y-110580000D03*
D13*
X-18123500Y-110580000D03*
D12*
X-13043500Y-110580000D03*
D14*
X-23183500Y-108030000D03*
X-21943500Y-109290000D03*
X-21933500Y-106790000D03*
D15*
X-21933500Y-108040000D03*
D14*
X-20683500Y-108040000D03*
X-16833500Y-105500000D03*
X-15583500Y-104240000D03*
D15*
X-15583500Y-105500000D03*
D14*
X-15583500Y-106740000D03*
X-14343500Y-105490000D03*
%TD*%
D19*
%TO.C,SW80*%
X-182420000Y-121387500D03*
D18*
X-182420000Y-136627500D03*
D12*
X-130350000Y-129642500D03*
D13*
X-125270000Y-129642500D03*
D12*
X-120190000Y-129642500D03*
D19*
X-68120000Y-121387500D03*
D18*
X-68120000Y-136627500D03*
D14*
X-130330000Y-127092500D03*
X-129090000Y-128352500D03*
X-129080000Y-125852500D03*
D15*
X-129080000Y-127102500D03*
D14*
X-127830000Y-127102500D03*
X-123980000Y-124562500D03*
X-122730000Y-123302500D03*
D15*
X-122730000Y-124562500D03*
D14*
X-122730000Y-125802500D03*
X-121490000Y-124552500D03*
%TD*%
D12*
%TO.C,SW12*%
X-25590000Y-29620000D03*
D13*
X-20510000Y-29620000D03*
D12*
X-15430000Y-29620000D03*
D14*
X-25570000Y-27070000D03*
X-24330000Y-28330000D03*
X-24320000Y-25830000D03*
D15*
X-24320000Y-27080000D03*
D14*
X-23070000Y-27080000D03*
X-19220000Y-24540000D03*
X-17970000Y-23280000D03*
D15*
X-17970000Y-24540000D03*
D14*
X-17970000Y-25780000D03*
X-16730000Y-24530000D03*
%TD*%
D12*
%TO.C,SW3*%
X-216080000Y-29610000D03*
D13*
X-211000000Y-29610000D03*
D12*
X-205920000Y-29610000D03*
D14*
X-216060000Y-27060000D03*
X-214820000Y-28320000D03*
X-214810000Y-25820000D03*
D15*
X-214810000Y-27070000D03*
D14*
X-213560000Y-27070000D03*
X-209710000Y-24530000D03*
X-208460000Y-23270000D03*
D15*
X-208460000Y-24530000D03*
D14*
X-208460000Y-25770000D03*
X-207220000Y-24520000D03*
%TD*%
D12*
%TO.C,SW23*%
X-130360000Y-53430000D03*
D13*
X-125280000Y-53430000D03*
D12*
X-120200000Y-53430000D03*
D14*
X-130340000Y-50880000D03*
X-129100000Y-52140000D03*
X-129090000Y-49640000D03*
D15*
X-129090000Y-50890000D03*
D14*
X-127840000Y-50890000D03*
X-123990000Y-48350000D03*
X-122740000Y-47090000D03*
D15*
X-122740000Y-48350000D03*
D14*
X-122740000Y-49590000D03*
X-121500000Y-48340000D03*
%TD*%
D12*
%TO.C,SW37*%
X-139885000Y-72480000D03*
D13*
X-134805000Y-72480000D03*
D12*
X-129725000Y-72480000D03*
D14*
X-139865000Y-69930000D03*
X-138625000Y-71190000D03*
X-138615000Y-68690000D03*
D15*
X-138615000Y-69940000D03*
D14*
X-137365000Y-69940000D03*
X-133515000Y-67400000D03*
X-132265000Y-66140000D03*
D15*
X-132265000Y-67400000D03*
D14*
X-132265000Y-68640000D03*
X-131025000Y-67390000D03*
%TD*%
D12*
%TO.C,SW17*%
X-244660000Y-53430000D03*
D13*
X-239580000Y-53430000D03*
D12*
X-234500000Y-53430000D03*
D14*
X-244640000Y-50880000D03*
X-243400000Y-52140000D03*
X-243390000Y-49640000D03*
D15*
X-243390000Y-50890000D03*
D14*
X-242140000Y-50890000D03*
X-238290000Y-48350000D03*
X-237040000Y-47090000D03*
D15*
X-237040000Y-48350000D03*
D14*
X-237040000Y-49590000D03*
X-235800000Y-48340000D03*
%TD*%
D12*
%TO.C,SW31*%
X-258947000Y-72480000D03*
D13*
X-253867000Y-72480000D03*
D12*
X-248787000Y-72480000D03*
D14*
X-258927000Y-69930000D03*
X-257687000Y-71190000D03*
X-257677000Y-68690000D03*
D15*
X-257677000Y-69940000D03*
D14*
X-256427000Y-69940000D03*
X-252577000Y-67400000D03*
X-251327000Y-66140000D03*
D15*
X-251327000Y-67400000D03*
D14*
X-251327000Y-68640000D03*
X-250087000Y-67390000D03*
%TD*%
D12*
%TO.C,SW39*%
X-101785000Y-72480000D03*
D13*
X-96705000Y-72480000D03*
D12*
X-91625000Y-72480000D03*
D14*
X-101765000Y-69930000D03*
X-100525000Y-71190000D03*
X-100515000Y-68690000D03*
D15*
X-100515000Y-69940000D03*
D14*
X-99265000Y-69940000D03*
X-95415000Y-67400000D03*
X-94165000Y-66140000D03*
D15*
X-94165000Y-67400000D03*
D14*
X-94165000Y-68640000D03*
X-92925000Y-67390000D03*
%TD*%
D12*
%TO.C,SW19*%
X-206560000Y-53430000D03*
D13*
X-201480000Y-53430000D03*
D12*
X-196400000Y-53430000D03*
D14*
X-206540000Y-50880000D03*
X-205300000Y-52140000D03*
X-205290000Y-49640000D03*
D15*
X-205290000Y-50890000D03*
D14*
X-204040000Y-50890000D03*
X-200190000Y-48350000D03*
X-198940000Y-47090000D03*
D15*
X-198940000Y-48350000D03*
D14*
X-198940000Y-49590000D03*
X-197700000Y-48340000D03*
%TD*%
D12*
%TO.C,SW43*%
X-25585000Y-72480000D03*
D13*
X-20505000Y-72480000D03*
D12*
X-15425000Y-72480000D03*
D14*
X-25565000Y-69930000D03*
X-24325000Y-71190000D03*
X-24315000Y-68690000D03*
D15*
X-24315000Y-69940000D03*
D14*
X-23065000Y-69940000D03*
X-19215000Y-67400000D03*
X-17965000Y-66140000D03*
D15*
X-17965000Y-67400000D03*
D14*
X-17965000Y-68640000D03*
X-16725000Y-67390000D03*
%TD*%
D12*
%TO.C,SW16*%
X-263710000Y-53430000D03*
D13*
X-258630000Y-53430000D03*
D12*
X-253550000Y-53430000D03*
D14*
X-263690000Y-50880000D03*
X-262450000Y-52140000D03*
X-262440000Y-49640000D03*
D15*
X-262440000Y-50890000D03*
D14*
X-261190000Y-50890000D03*
X-257340000Y-48350000D03*
X-256090000Y-47090000D03*
D15*
X-256090000Y-48350000D03*
D14*
X-256090000Y-49590000D03*
X-254850000Y-48340000D03*
%TD*%
D22*
%TO.C,D56*%
X-57055000Y-95622500D03*
X-57055000Y-92322500D03*
%TD*%
%TO.C,D27*%
X-52292500Y-57522500D03*
X-52292500Y-54222500D03*
%TD*%
%TO.C,D6*%
X-147522500Y-33712500D03*
X-147522500Y-30412500D03*
%TD*%
%TO.C,D33*%
X-214217500Y-76572500D03*
X-214217500Y-73272500D03*
%TD*%
%TO.C,D75*%
X-233267500Y-133722500D03*
X-233267500Y-130422500D03*
%TD*%
%TO.C,D18*%
X-223742500Y-57522500D03*
X-223742500Y-54222500D03*
%TD*%
%TO.C,D86*%
X-14192500Y-133722500D03*
X-14192500Y-130422500D03*
%TD*%
%TO.C,D55*%
X-76105000Y-95622500D03*
X-76105000Y-92322500D03*
%TD*%
%TO.C,D58*%
X-249861900Y-114672500D03*
X-249861900Y-111372500D03*
%TD*%
%TO.C,D42*%
X-42767500Y-76572500D03*
X-42767500Y-73272500D03*
%TD*%
%TO.C,D71*%
X-21336000Y-114672500D03*
X-21336000Y-111372500D03*
%TD*%
%TO.C,D20*%
X-185642500Y-57522500D03*
X-185642500Y-54222500D03*
%TD*%
D23*
%TO.C,C10*%
X-247800000Y-42230000D03*
X-247800000Y-40330000D03*
%TD*%
D22*
%TO.C,D38*%
X-118967500Y-76572500D03*
X-118967500Y-73272500D03*
%TD*%
%TO.C,D64*%
X-161830000Y-114672500D03*
X-161830000Y-111372500D03*
%TD*%
%TO.C,D63*%
X-180880000Y-114672500D03*
X-180880000Y-111372500D03*
%TD*%
%TO.C,D69*%
X-66580000Y-114672500D03*
X-66580000Y-111372500D03*
%TD*%
%TO.C,D17*%
X-242792500Y-57522500D03*
X-242792500Y-54222500D03*
%TD*%
%TO.C,D11*%
X-42772500Y-33712500D03*
X-42772500Y-30412500D03*
%TD*%
%TO.C,D60*%
X23907500Y-95622500D03*
X23907500Y-92322500D03*
%TD*%
D24*
%TO.C,C6*%
X-262500000Y-81030000D03*
X-260600000Y-81030000D03*
%TD*%
D25*
%TO.C,Ud1*%
X-235347500Y-80960000D03*
X-235347500Y-81460000D03*
X-235347500Y-81960000D03*
X-235347500Y-82460000D03*
X-235347500Y-82960000D03*
X-235347500Y-83460000D03*
X-235347500Y-83960000D03*
X-235347500Y-84460000D03*
X-235347500Y-84960000D03*
X-235347500Y-85460000D03*
X-235347500Y-85960000D03*
X-235347500Y-86460000D03*
D26*
X-236760000Y-87872500D03*
X-237260000Y-87872500D03*
X-237760000Y-87872500D03*
X-238260000Y-87872500D03*
X-238760000Y-87872500D03*
X-239260000Y-87872500D03*
X-239760000Y-87872500D03*
X-240260000Y-87872500D03*
X-240760000Y-87872500D03*
X-241260000Y-87872500D03*
X-241760000Y-87872500D03*
X-242260000Y-87872500D03*
D25*
X-243672500Y-86460000D03*
X-243672500Y-85960000D03*
X-243672500Y-85460000D03*
X-243672500Y-84960000D03*
X-243672500Y-84460000D03*
X-243672500Y-83960000D03*
X-243672500Y-83460000D03*
X-243672500Y-82960000D03*
X-243672500Y-82460000D03*
X-243672500Y-81960000D03*
X-243672500Y-81460000D03*
X-243672500Y-80960000D03*
D26*
X-242260000Y-79547500D03*
X-241760000Y-79547500D03*
X-241260000Y-79547500D03*
X-240760000Y-79547500D03*
X-240260000Y-79547500D03*
X-239760000Y-79547500D03*
X-239260000Y-79547500D03*
X-238760000Y-79547500D03*
X-238260000Y-79547500D03*
X-237760000Y-79547500D03*
X-237260000Y-79547500D03*
X-236760000Y-79547500D03*
%TD*%
D22*
%TO.C,D52*%
X-133255000Y-95622500D03*
X-133255000Y-92322500D03*
%TD*%
%TO.C,D21*%
X-166592500Y-57522500D03*
X-166592500Y-54222500D03*
%TD*%
%TO.C,D50*%
X-171355000Y-95622500D03*
X-171355000Y-92322500D03*
%TD*%
%TO.C,D9*%
X-90372500Y-33712500D03*
X-90372500Y-30412500D03*
%TD*%
%TO.C,D67*%
X-104680000Y-114672500D03*
X-104680000Y-111372500D03*
%TD*%
%TO.C,D57*%
X-38005000Y-95622500D03*
X-38005000Y-92322500D03*
%TD*%
%TO.C,D4*%
X-195162500Y-33702500D03*
X-195162500Y-30402500D03*
%TD*%
%TO.C,D25*%
X-90392500Y-57522500D03*
X-90392500Y-54222500D03*
%TD*%
%TO.C,D70*%
X-47530000Y-114672500D03*
X-47530000Y-111372500D03*
%TD*%
%TO.C,D68*%
X-85630000Y-114672500D03*
X-85630000Y-111372500D03*
%TD*%
%TO.C,D40*%
X-80867500Y-76572500D03*
X-80867500Y-73272500D03*
%TD*%
D27*
%TO.C,U2*%
X-257350000Y-60650000D03*
X-257350000Y-62950000D03*
D28*
X-263650000Y-62950000D03*
D27*
X-257350000Y-65250000D03*
%TD*%
D22*
%TO.C,D53*%
X-114205000Y-95622500D03*
X-114205000Y-92322500D03*
%TD*%
%TO.C,D36*%
X-157067500Y-76572500D03*
X-157067500Y-73272500D03*
%TD*%
%TO.C,D49*%
X-190405000Y-95622500D03*
X-190405000Y-92322500D03*
%TD*%
%TO.C,D87*%
X4857500Y-133722500D03*
X4857500Y-130422500D03*
%TD*%
%TO.C,D59*%
X-6974400Y-95622500D03*
X-6974400Y-92322500D03*
%TD*%
%TO.C,D1*%
X-261842500Y-33710000D03*
X-261842500Y-30410000D03*
%TD*%
%TO.C,D34*%
X-195167500Y-76572500D03*
X-195167500Y-73272500D03*
%TD*%
%TO.C,D44*%
X95500Y-76572500D03*
X95500Y-73272500D03*
%TD*%
%TO.C,D73*%
X4857500Y-114672500D03*
X4857500Y-111372500D03*
%TD*%
%TO.C,D45*%
X23907500Y-76572500D03*
X23907500Y-73272500D03*
%TD*%
%TO.C,D41*%
X-61817500Y-76572500D03*
X-61817500Y-73272500D03*
%TD*%
%TO.C,D10*%
X-61822500Y-33712500D03*
X-61822500Y-30412500D03*
%TD*%
%TO.C,D5*%
X-176112500Y-33702500D03*
X-176112500Y-30402500D03*
%TD*%
D29*
%TO.C,U3*%
X-56950000Y-39400000D03*
X-57900000Y-39400000D03*
X-58850000Y-39400000D03*
X-58850000Y-37125000D03*
X-57900000Y-37125000D03*
X-56950000Y-37125000D03*
%TD*%
D30*
%TO.C,C2*%
X-247400000Y-74190000D03*
X-247400000Y-76090000D03*
%TD*%
D22*
%TO.C,D12*%
X-23722500Y-33712500D03*
X-23722500Y-30412500D03*
%TD*%
%TO.C,D23*%
X-128492500Y-57522500D03*
X-128492500Y-54222500D03*
%TD*%
D24*
%TO.C,C1*%
X-262500000Y-82990000D03*
X-260600000Y-82990000D03*
%TD*%
D22*
%TO.C,D30*%
X23907500Y-57522500D03*
X23907500Y-54222500D03*
%TD*%
%TO.C,D72*%
X-257079500Y-133722500D03*
X-257079500Y-130422500D03*
%TD*%
%TO.C,D29*%
X-4667500Y-57522500D03*
X-4667500Y-54222500D03*
%TD*%
%TO.C,D39*%
X-99917500Y-76572500D03*
X-99917500Y-73272500D03*
%TD*%
%TO.C,D54*%
X-95155000Y-95622500D03*
X-95155000Y-92322500D03*
%TD*%
%TO.C,D74*%
X23907500Y-114672500D03*
X23907500Y-111372500D03*
%TD*%
%TO.C,D62*%
X-199930000Y-114672500D03*
X-199930000Y-111372500D03*
%TD*%
D31*
%TO.C,C8*%
X-230590000Y-95500000D03*
X-232490000Y-95500000D03*
%TD*%
D22*
%TO.C,D22*%
X-147542500Y-57522500D03*
X-147542500Y-54222500D03*
%TD*%
%TO.C,D2*%
X-233262500Y-33702500D03*
X-233262500Y-30402500D03*
%TD*%
%TO.C,D76*%
X-209454500Y-133722500D03*
X-209454500Y-130422500D03*
%TD*%
D30*
%TO.C,C7*%
X-245440000Y-74190000D03*
X-245440000Y-76090000D03*
%TD*%
D22*
%TO.C,D88*%
X23907500Y-133722500D03*
X23907500Y-130422500D03*
%TD*%
%TO.C,D51*%
X-152305000Y-95622500D03*
X-152305000Y-92322500D03*
%TD*%
%TO.C,D48*%
X-209455000Y-95622500D03*
X-209455000Y-92322500D03*
%TD*%
%TO.C,D28*%
X-33242500Y-57522500D03*
X-33242500Y-54222500D03*
%TD*%
D24*
%TO.C,C4*%
X-247460000Y-95500000D03*
X-245560000Y-95500000D03*
%TD*%
D31*
%TO.C,C3*%
X-230590000Y-93540000D03*
X-232490000Y-93540000D03*
%TD*%
D22*
%TO.C,D65*%
X-142780000Y-114672500D03*
X-142780000Y-111372500D03*
%TD*%
%TO.C,D80*%
X-128502500Y-133720000D03*
X-128502500Y-130420000D03*
%TD*%
%TO.C,D47*%
X-228505000Y-95622500D03*
X-228505000Y-92322500D03*
%TD*%
D24*
%TO.C,C9*%
X-247460000Y-93540000D03*
X-245560000Y-93540000D03*
%TD*%
D22*
%TO.C,D7*%
X-128472500Y-33712500D03*
X-128472500Y-30412500D03*
%TD*%
%TO.C,D35*%
X-176117500Y-76572500D03*
X-176117500Y-73272500D03*
%TD*%
%TO.C,D37*%
X-138017500Y-76572500D03*
X-138017500Y-73272500D03*
%TD*%
%TO.C,D46*%
X-259400000Y-95622500D03*
X-259400000Y-92322500D03*
%TD*%
%TO.C,D24*%
X-109442500Y-57522500D03*
X-109442500Y-54222500D03*
%TD*%
%TO.C,D31*%
X-257079500Y-76572500D03*
X-257079500Y-73272500D03*
%TD*%
%TO.C,D13*%
X-4672500Y-33712500D03*
X-4672500Y-30412500D03*
%TD*%
%TO.C,D19*%
X-204692500Y-57522500D03*
X-204692500Y-54222500D03*
%TD*%
%TO.C,D66*%
X-123730000Y-114672500D03*
X-123730000Y-111372500D03*
%TD*%
%TO.C,D32*%
X-233267500Y-76572500D03*
X-233267500Y-73272500D03*
%TD*%
D32*
%TO.C,R1*%
X-250287500Y-37610000D03*
X-252112500Y-37610000D03*
%TD*%
D22*
%TO.C,D8*%
X-109422500Y-33712500D03*
X-109422500Y-30412500D03*
%TD*%
%TO.C,D84*%
X-47529500Y-133722500D03*
X-47529500Y-130422500D03*
%TD*%
D31*
%TO.C,C5*%
X-261910000Y-67660000D03*
X-263810000Y-67660000D03*
%TD*%
D22*
%TO.C,D26*%
X-71342500Y-57522500D03*
X-71342500Y-54222500D03*
%TD*%
%TO.C,D43*%
X-23717500Y-76572500D03*
X-23717500Y-73272500D03*
%TD*%
%TO.C,D16*%
X-261842500Y-57522500D03*
X-261842500Y-54222500D03*
%TD*%
%TO.C,D3*%
X-214212500Y-33702500D03*
X-214212500Y-30402500D03*
%TD*%
%TO.C,D61*%
X-218980000Y-114672500D03*
X-218980000Y-111372500D03*
%TD*%
D33*
%TO.C,J1*%
X-49670000Y-36380000D03*
X-50670000Y-36380000D03*
X-51670000Y-36380000D03*
X-52670000Y-36380000D03*
D34*
X-48370000Y-40255000D03*
X-53970000Y-40255000D03*
%TD*%
M02*
