M48
; DRILL file {KiCad 8.99.0-829-g0984af1676} date 2024-04-27T09:25:55+0700
; FORMAT={-:-/ absolute / inch / decimal}
; #@! TF.CreationDate,2024-04-27T09:25:55+07:00
; #@! TF.GenerationSoftware,Kicad,Pcbnew,8.99.0-829-g0984af1676
; #@! TF.FileFunction,NonPlated,1,2,NPTH
FMAT,2
INCH
; #@! TA.AperFunction,NonPlated,NPTH,ComponentDrill
T1C0.0669
; #@! TA.AperFunction,NonPlated,NPTH,ComponentDrill
T2C0.1200
; #@! TA.AperFunction,NonPlated,NPTH,ComponentDrill
T3C0.1570
; #@! TA.AperFunction,NonPlated,NPTH,ComponentDrill
T4C0.1575
%
G90
G05
T1
X-10.3827Y-1.165
X-10.3823Y-2.1035
X-10.2885Y-3.6035
X-10.1948Y-2.8535
X-10.1948Y-5.1035
X-10.101Y-3.6035
X-9.9827Y-1.165
X-9.9823Y-2.1035
X-9.9106Y-4.3535
X-9.8885Y-3.6035
X-9.7948Y-2.8535
X-9.7948Y-5.1035
X-9.701Y-3.6035
X-9.6323Y-2.1035
X-9.5106Y-4.3535
X-9.2573Y-2.8535
X-9.2573Y-5.1035
X-9.2571Y-1.1657
X-9.2323Y-2.1035
X-9.0698Y-3.6035
X-8.8823Y-2.1035
X-8.8573Y-2.8535
X-8.8573Y-5.1035
X-8.8571Y-1.1657
X-8.6948Y-4.3535
X-8.6698Y-3.6035
X-8.5073Y-2.8535
X-8.5071Y-1.1657
X-8.4823Y-2.1035
X-8.3198Y-3.6035
X-8.3198Y-5.1035
X-8.2948Y-4.3535
X-8.1323Y-2.1035
X-8.1073Y-2.8535
X-8.1071Y-1.1657
X-7.9448Y-4.3535
X-7.9198Y-3.6035
X-7.9198Y-5.1035
X-7.7573Y-2.8535
X-7.7571Y-1.1657
X-7.7323Y-2.1035
X-7.5698Y-3.6035
X-7.5448Y-4.3535
X-7.3823Y-2.1035
X-7.3573Y-2.8535
X-7.3571Y-1.1657
X-7.1948Y-4.3535
X-7.1698Y-3.6035
X-7.0073Y-2.8535
X-7.0071Y-1.1657
X-6.9823Y-2.1035
X-6.8198Y-3.6035
X-6.7948Y-4.3535
X-6.6323Y-2.1035
X-6.6073Y-2.8535
X-6.6071Y-1.1657
X-6.4448Y-4.3535
X-6.4198Y-3.6035
X-6.2573Y-2.8535
X-6.2323Y-2.1035
X-6.0698Y-3.6035
X-6.0448Y-4.3535
X-5.8823Y-2.1035
X-5.8815Y-1.1661
X-5.8573Y-2.8535
X-5.6948Y-4.3535
X-5.6698Y-3.6035
X-5.5073Y-2.8535
X-5.4823Y-2.1035
X-5.4815Y-1.1661
X-5.3198Y-3.6035
X-5.2948Y-4.3535
X-5.1323Y-2.1035
X-5.1319Y-5.104
X-5.1315Y-1.1661
X-5.1073Y-2.8535
X-4.9448Y-4.3535
X-4.9198Y-3.6035
X-4.7573Y-2.8535
X-4.7323Y-2.1035
X-4.7319Y-5.104
X-4.7315Y-1.1661
X-4.5698Y-3.6035
X-4.5448Y-4.3535
X-4.3823Y-2.1035
X-4.3815Y-1.1661
X-4.3573Y-2.8535
X-4.1948Y-4.3535
X-4.1698Y-3.6035
X-4.0073Y-2.8535
X-3.9823Y-2.1035
X-3.9815Y-1.1661
X-3.8198Y-3.6035
X-3.7948Y-4.3535
X-3.6323Y-2.1035
X-3.6315Y-1.1661
X-3.6073Y-2.8535
X-3.4448Y-4.3535
X-3.4198Y-3.6035
X-3.2573Y-2.8535
X-3.2323Y-2.1035
X-3.2315Y-1.1661
X-3.0698Y-3.6035
X-3.0448Y-4.3535
X-2.8823Y-2.1035
X-2.8573Y-2.8535
X-2.6948Y-4.3535
X-2.6698Y-3.6035
X-2.5075Y-1.1661
X-2.5073Y-2.8535
X-2.4823Y-2.1035
X-2.3198Y-3.6035
X-2.2948Y-4.3535
X-2.1323Y-2.1035
X-2.1075Y-1.1661
X-2.1073Y-2.8535
X-1.9448Y-4.3535
X-1.9448Y-5.1035
X-1.9198Y-3.6035
X-1.7575Y-1.1661
X-1.7573Y-2.8535
X-1.7323Y-2.1035
X-1.5698Y-3.6035
X-1.5448Y-4.3535
X-1.5448Y-5.1035
X-1.3823Y-2.1035
X-1.3575Y-1.1661
X-1.3573Y-2.8535
X-1.1698Y-3.6035
X-1.0075Y-1.1661
X-1.0073Y-2.8535
X-0.9823Y-2.1035
X-0.9135Y-4.3535
X-0.6323Y-5.1035
X-0.6075Y-1.1661
X-0.6073Y-2.8535
X-0.5135Y-4.3535
X-0.3481Y-3.6035
X-0.2575Y-1.1661
X-0.2573Y-2.1035
X-0.2323Y-5.1035
X-0.0698Y-2.8535
X0.0519Y-3.6035
X0.1177Y-4.3535
X0.1177Y-5.1035
X0.1425Y-1.1661
X0.1427Y-2.1035
X0.3302Y-2.8535
X0.5177Y-4.3535
X0.5177Y-5.1035
X0.8677Y-2.1035
X0.8677Y-2.8535
X0.8677Y-3.6035
X0.8677Y-4.3535
X0.8677Y-5.1035
X1.2677Y-2.1035
X1.2677Y-2.8535
X1.2677Y-3.6035
X1.2677Y-4.3535
X1.2677Y-5.1035
T2
X-10.1806Y-4.0785
X-9.2406Y-4.0785
X-7.1819Y-5.379
X-2.6819Y-5.379
X-0.6181Y-3.3285
X-0.5273Y-1.8285
X0.3219Y-3.3285
X0.4127Y-1.8285
T3
X-10.1806Y-4.6785
X-9.2406Y-4.6785
X-7.1819Y-4.779
X-2.6819Y-4.779
X-0.6181Y-3.9285
X-0.5273Y-2.4285
X0.3219Y-3.9285
X0.4127Y-2.4285
T4
X-10.1827Y-1.165
X-10.1823Y-2.1035
X-10.0885Y-3.6035
X-9.9948Y-2.8535
X-9.9948Y-5.1035
X-9.901Y-3.6035
X-9.7106Y-4.3535
X-9.4323Y-2.1035
X-9.0573Y-2.8535
X-9.0573Y-5.1035
X-9.0571Y-1.1657
X-8.8698Y-3.6035
X-8.6823Y-2.1035
X-8.4948Y-4.3535
X-8.3073Y-2.8535
X-8.3071Y-1.1657
X-8.1198Y-3.6035
X-8.1198Y-5.1035
X-7.9323Y-2.1035
X-7.7448Y-4.3535
X-7.5573Y-2.8535
X-7.5571Y-1.1657
X-7.3698Y-3.6035
X-7.1823Y-2.1035
X-6.9948Y-4.3535
X-6.8073Y-2.8535
X-6.8071Y-1.1657
X-6.6198Y-3.6035
X-6.4323Y-2.1035
X-6.2448Y-4.3535
X-6.0573Y-2.8535
X-5.8698Y-3.6035
X-5.6823Y-2.1035
X-5.6815Y-1.1661
X-5.4948Y-4.3535
X-5.3073Y-2.8535
X-5.1198Y-3.6035
X-4.9323Y-2.1035
X-4.9319Y-5.104
X-4.9315Y-1.1661
X-4.7448Y-4.3535
X-4.5573Y-2.8535
X-4.3698Y-3.6035
X-4.1823Y-2.1035
X-4.1815Y-1.1661
X-3.9948Y-4.3535
X-3.8073Y-2.8535
X-3.6198Y-3.6035
X-3.4323Y-2.1035
X-3.4315Y-1.1661
X-3.2448Y-4.3535
X-3.0573Y-2.8535
X-2.8698Y-3.6035
X-2.6823Y-2.1035
X-2.4948Y-4.3535
X-2.3075Y-1.1661
X-2.3073Y-2.8535
X-2.1198Y-3.6035
X-1.9323Y-2.1035
X-1.7448Y-4.3535
X-1.7448Y-5.1035
X-1.5575Y-1.1661
X-1.5573Y-2.8535
X-1.3698Y-3.6035
X-1.1823Y-2.1035
X-0.8075Y-1.1661
X-0.8073Y-2.8535
X-0.7135Y-4.3535
X-0.4323Y-5.1035
X-0.1481Y-3.6035
X-0.0575Y-1.1661
X-0.0573Y-2.1035
X0.1302Y-2.8535
X0.3177Y-4.3535
X0.3177Y-5.1035
X1.0677Y-2.1035
X1.0677Y-2.8535
X1.0677Y-3.6035
X1.0677Y-4.3535
X1.0677Y-5.1035
M30
