%TF.GenerationSoftware,KiCad,Pcbnew,8.99.0-2641-g1a24c99a2a*%
%TF.CreationDate,2024-10-13T14:16:57+07:00*%
%TF.ProjectId,75\u0025,3735252e-6b69-4636-9164-5f7063625858,rev?*%
%TF.SameCoordinates,Original*%
%TF.FileFunction,Soldermask,Top*%
%TF.FilePolarity,Negative*%
%FSLAX46Y46*%
G04 Gerber Fmt 4.6, Leading zero omitted, Abs format (unit mm)*
G04 Created by KiCad (PCBNEW 8.99.0-2641-g1a24c99a2a) date 2024-10-13 14:16:57*
%MOMM*%
%LPD*%
G01*
G04 APERTURE LIST*
G04 Aperture macros list*
%AMRoundRect*
0 Rectangle with rounded corners*
0 $1 Rounding radius*
0 $2 $3 $4 $5 $6 $7 $8 $9 X,Y pos of 4 corners*
0 Add a 4 corners polygon primitive as box body*
4,1,4,$2,$3,$4,$5,$6,$7,$8,$9,$2,$3,0*
0 Add four circle primitives for the rounded corners*
1,1,$1+$1,$2,$3*
1,1,$1+$1,$4,$5*
1,1,$1+$1,$6,$7*
1,1,$1+$1,$8,$9*
0 Add four rect primitives between the rounded corners*
20,1,$1+$1,$2,$3,$4,$5,0*
20,1,$1+$1,$4,$5,$6,$7,0*
20,1,$1+$1,$6,$7,$8,$9,0*
20,1,$1+$1,$8,$9,$2,$3,0*%
G04 Aperture macros list end*
%ADD10C,1.700000*%
%ADD11C,4.000000*%
%ADD12RoundRect,0.250000X-0.600000X-0.725000X0.600000X-0.725000X0.600000X0.725000X-0.600000X0.725000X0*%
%ADD13O,1.700000X1.950000*%
%ADD14RoundRect,0.250000X-0.600000X-0.750000X0.600000X-0.750000X0.600000X0.750000X-0.600000X0.750000X0*%
%ADD15O,1.700000X2.000000*%
%ADD16C,3.987800*%
%ADD17C,3.048000*%
G04 APERTURE END LIST*
D10*
%TO.C,SW93*%
X509738947Y216223553D03*
D11*
X514818947Y216223553D03*
D10*
X519898947Y216223553D03*
%TD*%
%TO.C,SW101*%
X504958947Y116213553D03*
D11*
X510038947Y116213553D03*
D10*
X515118947Y116213553D03*
%TD*%
%TO.C,SW88*%
X538288947Y116221053D03*
D11*
X543368947Y116221053D03*
D10*
X548448947Y116221053D03*
%TD*%
%TO.C,SW10*%
X476376447Y216233553D03*
D11*
X481456447Y216233553D03*
D10*
X486536447Y216233553D03*
%TD*%
%TO.C,SW34*%
X357313947Y173371053D03*
D11*
X362393947Y173371053D03*
D10*
X367473947Y173371053D03*
%TD*%
%TO.C,SW27*%
X500188947Y192421053D03*
D11*
X505268947Y192421053D03*
D10*
X510348947Y192421053D03*
%TD*%
%TO.C,SW65*%
X390651447Y135271053D03*
D11*
X395731447Y135271053D03*
D10*
X400811447Y135271053D03*
%TD*%
%TO.C,SW33*%
X338263947Y173371053D03*
D11*
X343343947Y173371053D03*
D10*
X348423947Y173371053D03*
%TD*%
%TO.C,SW95*%
X547838947Y216233553D03*
D11*
X552918947Y216233553D03*
D10*
X557998947Y216233553D03*
%TD*%
%TO.C,SW44*%
X552576947Y173371053D03*
D11*
X557656947Y173371053D03*
D10*
X562736947Y173371053D03*
%TD*%
%TO.C,SW9*%
X452563947Y216233553D03*
D11*
X457643947Y216233553D03*
D10*
X462723947Y216233553D03*
%TD*%
%TO.C,SW6*%
X395413947Y216233553D03*
D11*
X400493947Y216233553D03*
D10*
X405573947Y216233553D03*
%TD*%
%TO.C,SW90*%
X576388947Y116221053D03*
D11*
X581468947Y116221053D03*
D10*
X586548947Y116221053D03*
%TD*%
%TO.C,SW80*%
X376378947Y216233553D03*
D11*
X381458947Y216233553D03*
D10*
X386538947Y216233553D03*
%TD*%
%TO.C,SW2*%
X314451447Y216233553D03*
D11*
X319531447Y216233553D03*
D10*
X324611447Y216233553D03*
%TD*%
%TO.C,SW32*%
X319213947Y173371053D03*
D11*
X324293947Y173371053D03*
D10*
X329373947Y173371053D03*
%TD*%
%TO.C,SW46*%
X297782947Y154321053D03*
D11*
X302862947Y154321053D03*
D10*
X307942947Y154321053D03*
%TD*%
%TO.C,SW23*%
X423988947Y192421053D03*
D11*
X429068947Y192421053D03*
D10*
X434148947Y192421053D03*
%TD*%
D12*
%TO.C,J1*%
X378600000Y111000000D03*
D13*
X381100000Y111000000D03*
X383600000Y111000000D03*
X386100000Y111000000D03*
%TD*%
D10*
%TO.C,SW48*%
X343026447Y154321053D03*
D11*
X348106447Y154321053D03*
D10*
X353186447Y154321053D03*
%TD*%
%TO.C,SW49*%
X362076447Y154321053D03*
D11*
X367156447Y154321053D03*
D10*
X372236447Y154321053D03*
%TD*%
%TO.C,SW18*%
X328738947Y192421053D03*
D11*
X333818947Y192421053D03*
D10*
X338898947Y192421053D03*
%TD*%
%TO.C,SW52*%
X419226447Y154321053D03*
D11*
X424306447Y154321053D03*
D10*
X429386447Y154321053D03*
%TD*%
D14*
%TO.C,SWb\u00F4t1*%
X403718947Y114733553D03*
D15*
X406218947Y114733553D03*
%TD*%
D10*
%TO.C,SW15*%
X576388947Y216233553D03*
D11*
X581468947Y216233553D03*
D10*
X586548947Y216233553D03*
%TD*%
%TO.C,SW35*%
X376363947Y173371053D03*
D11*
X381443947Y173371053D03*
D10*
X386523947Y173371053D03*
%TD*%
%TO.C,SW92*%
X490698947Y216233553D03*
D11*
X495778947Y216233553D03*
D10*
X500858947Y216233553D03*
%TD*%
%TO.C,SW78*%
X340644947Y116221053D03*
D11*
X345724947Y116221053D03*
D10*
X350804947Y116221053D03*
%TD*%
%TO.C,SW79*%
X357328947Y216233553D03*
D11*
X362408947Y216233553D03*
D10*
X367488947Y216233553D03*
%TD*%
%TO.C,SW97*%
X319248947Y116218553D03*
D11*
X324328947Y116218553D03*
D10*
X329408947Y116218553D03*
%TD*%
%TO.C,SW70*%
X485901447Y135271053D03*
D11*
X490981447Y135271053D03*
D10*
X496061447Y135271053D03*
%TD*%
%TO.C,SW4*%
X352551447Y216233553D03*
D11*
X357631447Y216233553D03*
D10*
X362711447Y216233553D03*
%TD*%
%TO.C,SW94*%
X528788947Y216233553D03*
D11*
X533868947Y216233553D03*
D10*
X538948947Y216233553D03*
%TD*%
%TO.C,SW31*%
X295401947Y173371053D03*
D11*
X300481947Y173371053D03*
D10*
X305561947Y173371053D03*
%TD*%
%TO.C,SW20*%
X366838947Y192421053D03*
D11*
X371918947Y192421053D03*
D10*
X376998947Y192421053D03*
%TD*%
%TO.C,SW7*%
X414463947Y216233553D03*
D11*
X419543947Y216233553D03*
D10*
X424623947Y216233553D03*
%TD*%
%TO.C,SW74*%
X338288947Y216243553D03*
D11*
X343368947Y216243553D03*
D10*
X348448947Y216243553D03*
%TD*%
D14*
%TO.C,SWb\u00F4trst1*%
X403718947Y110233553D03*
D15*
X406218947Y110233553D03*
%TD*%
D10*
%TO.C,SW54*%
X457326447Y154321053D03*
D11*
X462406447Y154321053D03*
D10*
X467486447Y154321053D03*
%TD*%
%TO.C,SW86*%
X507332447Y116221053D03*
D11*
X512412447Y116221053D03*
D10*
X517492447Y116221053D03*
%TD*%
%TO.C,SW26*%
X481138947Y192421053D03*
D11*
X486218947Y192421053D03*
D10*
X491298947Y192421053D03*
%TD*%
%TO.C,SW73*%
X557338947Y135271053D03*
D11*
X562418947Y135271053D03*
D10*
X567498947Y135271053D03*
%TD*%
%TO.C,SW66*%
X409701447Y135271053D03*
D11*
X414781447Y135271053D03*
D10*
X419861447Y135271053D03*
%TD*%
%TO.C,SW19*%
X347788947Y192421053D03*
D11*
X352868947Y192421053D03*
D10*
X357948947Y192421053D03*
%TD*%
%TO.C,SW50*%
X381126447Y154321053D03*
D11*
X386206447Y154321053D03*
D10*
X391286447Y154321053D03*
%TD*%
%TO.C,SW67*%
X428751447Y135271053D03*
D11*
X433831447Y135271053D03*
D10*
X438911447Y135271053D03*
%TD*%
D16*
%TO.C,SW99*%
X371928947Y124473553D03*
D17*
X371928947Y109233553D03*
D10*
X423998947Y116218553D03*
D11*
X429078947Y116218553D03*
D10*
X434158947Y116218553D03*
D16*
X486228947Y124473553D03*
D17*
X486228947Y109233553D03*
%TD*%
D10*
%TO.C,SW57*%
X514476447Y154321053D03*
D11*
X519556447Y154321053D03*
D10*
X524636447Y154321053D03*
%TD*%
%TO.C,SW41*%
X490663947Y173371053D03*
D11*
X495743947Y173371053D03*
D10*
X500823947Y173371053D03*
%TD*%
%TO.C,SW51*%
X400176447Y154321053D03*
D11*
X405256447Y154321053D03*
D10*
X410336447Y154321053D03*
%TD*%
D16*
%TO.C,SW82*%
X367162547Y124476053D03*
D17*
X367162547Y109236053D03*
D10*
X412082447Y116221053D03*
D11*
X417162447Y116221053D03*
D10*
X422242447Y116221053D03*
D16*
X467162347Y124476053D03*
D17*
X467162347Y109236053D03*
%TD*%
D10*
%TO.C,SW25*%
X462088947Y192421053D03*
D11*
X467168947Y192421053D03*
D10*
X472248947Y192421053D03*
%TD*%
%TO.C,SW28*%
X519238947Y192421053D03*
D11*
X524318947Y192421053D03*
D10*
X529398947Y192421053D03*
%TD*%
%TO.C,SW72*%
X531145447Y135271053D03*
D11*
X536225447Y135271053D03*
D10*
X541305447Y135271053D03*
%TD*%
%TO.C,SW89*%
X557338947Y116221053D03*
D11*
X562418947Y116221053D03*
D10*
X567498947Y116221053D03*
%TD*%
%TO.C,SW13*%
X533526447Y216233553D03*
D11*
X538606447Y216233553D03*
D10*
X543686447Y216233553D03*
%TD*%
%TO.C,SW38*%
X433513947Y173371053D03*
D11*
X438593947Y173371053D03*
D10*
X443673947Y173371053D03*
%TD*%
%TO.C,SW16*%
X290638947Y192421053D03*
D11*
X295718947Y192421053D03*
D10*
X300798947Y192421053D03*
%TD*%
%TO.C,SW3*%
X333501447Y216233553D03*
D11*
X338581447Y216233553D03*
D10*
X343661447Y216233553D03*
%TD*%
%TO.C,SW1*%
X290638947Y216233553D03*
D11*
X295718947Y216233553D03*
D10*
X300798947Y216233553D03*
%TD*%
%TO.C,SW84*%
X443078947Y216243553D03*
D11*
X448158947Y216243553D03*
D10*
X453238947Y216243553D03*
%TD*%
%TO.C,SW40*%
X471613947Y173371053D03*
D11*
X476693947Y173371053D03*
D10*
X481773947Y173371053D03*
%TD*%
%TO.C,SW60*%
X576388947Y154321053D03*
D11*
X581468947Y154321053D03*
D10*
X586548947Y154321053D03*
%TD*%
%TO.C,SW55*%
X476376447Y154321053D03*
D11*
X481456447Y154321053D03*
D10*
X486536447Y154321053D03*
%TD*%
%TO.C,SW91*%
X462138947Y216243553D03*
D11*
X467218947Y216243553D03*
D10*
X472298947Y216243553D03*
%TD*%
%TO.C,SW76*%
X293019947Y116221053D03*
D11*
X298099947Y116221053D03*
D10*
X303179947Y116221053D03*
%TD*%
%TO.C,SW96*%
X295448947Y116213553D03*
D11*
X300528947Y116213553D03*
D10*
X305608947Y116213553D03*
%TD*%
%TO.C,SW12*%
X514476447Y216233553D03*
D11*
X519556447Y216233553D03*
D10*
X524636447Y216233553D03*
%TD*%
%TO.C,SW75*%
X576388947Y135271053D03*
D11*
X581468947Y135271053D03*
D10*
X586548947Y135271053D03*
%TD*%
%TO.C,SW71*%
X504951447Y135271053D03*
D11*
X510031447Y135271053D03*
D10*
X515111447Y135271053D03*
%TD*%
%TO.C,SW87*%
X557338947Y192421053D03*
D11*
X562418947Y192421053D03*
D10*
X567498947Y192421053D03*
%TD*%
%TO.C,SW98*%
X343038947Y116203553D03*
D11*
X348118947Y116203553D03*
D10*
X353198947Y116203553D03*
%TD*%
%TO.C,SW47*%
X323976447Y154321053D03*
D11*
X329056447Y154321053D03*
D10*
X334136447Y154321053D03*
%TD*%
%TO.C,SW37*%
X414463947Y173371053D03*
D11*
X419543947Y173371053D03*
D10*
X424623947Y173371053D03*
%TD*%
%TO.C,SW56*%
X495426447Y154321053D03*
D11*
X500506447Y154321053D03*
D10*
X505586447Y154321053D03*
%TD*%
%TO.C,SW21*%
X385888947Y192421053D03*
D11*
X390968947Y192421053D03*
D10*
X396048947Y192421053D03*
%TD*%
%TO.C,SW39*%
X452563947Y173371053D03*
D11*
X457643947Y173371053D03*
D10*
X462723947Y173371053D03*
%TD*%
D17*
%TO.C,SW61*%
X295761547Y142256053D03*
D16*
X295761547Y127016053D03*
D10*
X302619547Y135271053D03*
D11*
X307699547Y135271053D03*
D10*
X312779547Y135271053D03*
D17*
X319637547Y142256053D03*
D16*
X319637547Y127016053D03*
%TD*%
D10*
%TO.C,SW45*%
X576388947Y173371053D03*
D11*
X581468947Y173371053D03*
D10*
X586548947Y173371053D03*
%TD*%
%TO.C,SW53*%
X438276447Y154321053D03*
D11*
X443356447Y154321053D03*
D10*
X448436447Y154321053D03*
%TD*%
%TO.C,SW59*%
X319258947Y216253553D03*
D11*
X324338947Y216253553D03*
D10*
X329418947Y216253553D03*
%TD*%
%TO.C,SW69*%
X466851447Y135271053D03*
D11*
X471931447Y135271053D03*
D10*
X477011447Y135271053D03*
%TD*%
%TO.C,SW81*%
X404978947Y216223553D03*
D11*
X410058947Y216223553D03*
D10*
X415138947Y216223553D03*
%TD*%
%TO.C,SW22*%
X404938947Y192421053D03*
D11*
X410018947Y192421053D03*
D10*
X415098947Y192421053D03*
%TD*%
%TO.C,SW11*%
X495426447Y216233553D03*
D11*
X500506447Y216233553D03*
D10*
X505586447Y216233553D03*
%TD*%
%TO.C,SW14*%
X557338947Y216233553D03*
D11*
X562418947Y216233553D03*
D10*
X567498947Y216233553D03*
%TD*%
%TO.C,SW30*%
X576388947Y192421053D03*
D11*
X581468947Y192421053D03*
D10*
X586548947Y192421053D03*
%TD*%
%TO.C,SW68*%
X447801447Y135271053D03*
D11*
X452881447Y135271053D03*
D10*
X457961447Y135271053D03*
%TD*%
%TO.C,SW83*%
X424038947Y216233553D03*
D11*
X429118947Y216233553D03*
D10*
X434198947Y216233553D03*
%TD*%
%TO.C,SW17*%
X309688947Y192421053D03*
D11*
X314768947Y192421053D03*
D10*
X319848947Y192421053D03*
%TD*%
%TO.C,SW100*%
X293019947Y154321053D03*
D11*
X298099947Y154321053D03*
D10*
X303179947Y154321053D03*
%TD*%
%TO.C,SW43*%
X528763947Y173371053D03*
D11*
X533843947Y173371053D03*
D10*
X538923947Y173371053D03*
%TD*%
D17*
%TO.C,SW58*%
X538649047Y161306053D03*
D16*
X538649047Y146066053D03*
D10*
X545507047Y154321053D03*
D11*
X550587047Y154321053D03*
D10*
X555667047Y154321053D03*
D17*
X562525047Y161306053D03*
D16*
X562525047Y146066053D03*
%TD*%
D10*
%TO.C,SW64*%
X371601447Y135271053D03*
D11*
X376681447Y135271053D03*
D10*
X381761447Y135271053D03*
%TD*%
%TO.C,SW63*%
X352551447Y135271053D03*
D11*
X357631447Y135271053D03*
D10*
X362711447Y135271053D03*
%TD*%
%TO.C,SW77*%
X316832447Y116221053D03*
D11*
X321912447Y116221053D03*
D10*
X326992447Y116221053D03*
%TD*%
%TO.C,SW36*%
X395413947Y173371053D03*
D11*
X400493947Y173371053D03*
D10*
X405573947Y173371053D03*
%TD*%
D17*
%TO.C,SW1001*%
X540955947Y199406053D03*
D16*
X540955947Y184166053D03*
D10*
X547813947Y192421053D03*
D11*
X552893947Y192421053D03*
D10*
X557973947Y192421053D03*
D17*
X564831947Y199406053D03*
D16*
X564831947Y184166053D03*
%TD*%
D10*
%TO.C,SW24*%
X443038947Y192421053D03*
D11*
X448118947Y192421053D03*
D10*
X453198947Y192421053D03*
%TD*%
%TO.C,SW8*%
X433513947Y216233553D03*
D11*
X438593947Y216233553D03*
D10*
X443673947Y216233553D03*
%TD*%
%TO.C,SW29*%
X538288947Y192421053D03*
D11*
X543368947Y192421053D03*
D10*
X548448947Y192421053D03*
%TD*%
%TO.C,SW5*%
X371601447Y216233553D03*
D11*
X376681447Y216233553D03*
D10*
X381761447Y216233553D03*
%TD*%
%TO.C,SW85*%
X483519947Y116221053D03*
D11*
X488599947Y116221053D03*
D10*
X493679947Y116221053D03*
%TD*%
%TO.C,SW62*%
X333501447Y135271053D03*
D11*
X338581447Y135271053D03*
D10*
X343661447Y135271053D03*
%TD*%
%TO.C,SW42*%
X509713947Y173371053D03*
D11*
X514793947Y173371053D03*
D10*
X519873947Y173371053D03*
%TD*%
M02*
