%TF.GenerationSoftware,KiCad,Pcbnew,8.99.0-2206-gee77d06be7*%
%TF.CreationDate,2024-10-02T02:50:37+07:00*%
%TF.ProjectId,75\u0025,3735252e-6b69-4636-9164-5f7063625858,rev?*%
%TF.SameCoordinates,Original*%
%TF.FileFunction,Paste,Bot*%
%TF.FilePolarity,Positive*%
%FSLAX46Y46*%
G04 Gerber Fmt 4.6, Leading zero omitted, Abs format (unit mm)*
G04 Created by KiCad (PCBNEW 8.99.0-2206-gee77d06be7) date 2024-10-02 02:50:37*
%MOMM*%
%LPD*%
G01*
G04 APERTURE LIST*
G04 Aperture macros list*
%AMRoundRect*
0 Rectangle with rounded corners*
0 $1 Rounding radius*
0 $2 $3 $4 $5 $6 $7 $8 $9 X,Y pos of 4 corners*
0 Add a 4 corners polygon primitive as box body*
4,1,4,$2,$3,$4,$5,$6,$7,$8,$9,$2,$3,0*
0 Add four circle primitives for the rounded corners*
1,1,$1+$1,$2,$3*
1,1,$1+$1,$4,$5*
1,1,$1+$1,$6,$7*
1,1,$1+$1,$8,$9*
0 Add four rect primitives between the rounded corners*
20,1,$1+$1,$2,$3,$4,$5,0*
20,1,$1+$1,$4,$5,$6,$7,0*
20,1,$1+$1,$6,$7,$8,$9,0*
20,1,$1+$1,$8,$9,$2,$3,0*%
G04 Aperture macros list end*
%ADD10RoundRect,0.200000X0.275000X-0.200000X0.275000X0.200000X-0.275000X0.200000X-0.275000X-0.200000X0*%
%ADD11R,0.700000X0.700000*%
%ADD12R,0.500000X0.800000*%
%ADD13R,0.400000X0.800000*%
%ADD14R,0.800000X0.500000*%
%ADD15R,0.800000X0.400000*%
%ADD16RoundRect,0.150000X0.150000X-0.850000X0.150000X0.850000X-0.150000X0.850000X-0.150000X-0.850000X0*%
%ADD17RoundRect,0.225000X0.250000X-0.225000X0.250000X0.225000X-0.250000X0.225000X-0.250000X-0.225000X0*%
%ADD18RoundRect,0.225000X0.225000X0.250000X-0.225000X0.250000X-0.225000X-0.250000X0.225000X-0.250000X0*%
%ADD19RoundRect,0.232500X-0.232500X-0.232500X0.232500X-0.232500X0.232500X0.232500X-0.232500X0.232500X0*%
%ADD20RoundRect,0.062500X-0.375000X-0.062500X0.375000X-0.062500X0.375000X0.062500X-0.375000X0.062500X0*%
%ADD21RoundRect,0.062500X-0.062500X-0.375000X0.062500X-0.375000X0.062500X0.375000X-0.062500X0.375000X0*%
%ADD22RoundRect,0.225000X-0.225000X-0.250000X0.225000X-0.250000X0.225000X0.250000X-0.225000X0.250000X0*%
%ADD23RoundRect,0.200000X-0.275000X0.200000X-0.275000X-0.200000X0.275000X-0.200000X0.275000X0.200000X0*%
%ADD24RoundRect,0.050000X0.225000X0.075000X-0.225000X0.075000X-0.225000X-0.075000X0.225000X-0.075000X0*%
%ADD25RoundRect,0.050000X0.225000X0.050000X-0.225000X0.050000X-0.225000X-0.050000X0.225000X-0.050000X0*%
%ADD26RoundRect,0.050000X0.100000X0.250000X-0.100000X0.250000X-0.100000X-0.250000X0.100000X-0.250000X0*%
%ADD27RoundRect,0.375000X0.625000X0.375000X-0.625000X0.375000X-0.625000X-0.375000X0.625000X-0.375000X0*%
%ADD28RoundRect,0.500000X0.500000X1.400000X-0.500000X1.400000X-0.500000X-1.400000X0.500000X-1.400000X0*%
%ADD29RoundRect,0.200000X0.200000X0.275000X-0.200000X0.275000X-0.200000X-0.275000X0.200000X-0.275000X0*%
%ADD30RoundRect,0.150000X0.150000X0.625000X-0.150000X0.625000X-0.150000X-0.625000X0.150000X-0.625000X0*%
%ADD31RoundRect,0.250000X0.350000X0.650000X-0.350000X0.650000X-0.350000X-0.650000X0.350000X-0.650000X0*%
%ADD32RoundRect,0.150000X0.150000X-0.600000X0.150000X0.600000X-0.150000X0.600000X-0.150000X-0.600000X0*%
%ADD33RoundRect,0.225000X-0.250000X0.225000X-0.250000X-0.225000X0.250000X-0.225000X0.250000X0.225000X0*%
%ADD34RoundRect,0.150000X0.625000X-0.150000X0.625000X0.150000X-0.625000X0.150000X-0.625000X-0.150000X0*%
%ADD35RoundRect,0.250000X0.650000X-0.350000X0.650000X0.350000X-0.650000X0.350000X-0.650000X-0.350000X0*%
%ADD36RoundRect,0.075000X0.075000X-0.700000X0.075000X0.700000X-0.075000X0.700000X-0.075000X-0.700000X0*%
%ADD37RoundRect,0.075000X0.700000X-0.075000X0.700000X0.075000X-0.700000X0.075000X-0.700000X-0.075000X0*%
%ADD38RoundRect,0.200000X-0.200000X-0.275000X0.200000X-0.275000X0.200000X0.275000X-0.200000X0.275000X0*%
%ADD39RoundRect,0.150000X-0.825000X-0.150000X0.825000X-0.150000X0.825000X0.150000X-0.825000X0.150000X0*%
%ADD40R,1.400000X1.200000*%
%ADD41RoundRect,0.150000X0.512500X0.150000X-0.512500X0.150000X-0.512500X-0.150000X0.512500X-0.150000X0*%
G04 APERTURE END LIST*
D10*
%TO.C,R4*%
X17720000Y-40290000D03*
X17720000Y-41940000D03*
%TD*%
%TO.C,R5*%
X11090000Y-21290000D03*
X11090000Y-22940000D03*
%TD*%
%TO.C,R6*%
X21240000Y-59350000D03*
X21240000Y-61000000D03*
%TD*%
%TO.C,R7*%
X24050000Y-78410000D03*
X24050000Y-80060000D03*
%TD*%
D11*
%TO.C,D8*%
X291960000Y-28350000D03*
X290860000Y-28350000D03*
X290860000Y-26520000D03*
X291960000Y-26520000D03*
%TD*%
%TO.C,D7*%
X290550000Y-4685000D03*
X291650000Y-4685000D03*
X291650000Y-6515000D03*
X290550000Y-6515000D03*
%TD*%
%TO.C,D6*%
X278650000Y6410000D03*
X278650000Y5310000D03*
X276820000Y5310000D03*
X276820000Y6410000D03*
%TD*%
%TO.C,D5*%
X266560000Y6400000D03*
X266560000Y5300000D03*
X264730000Y5300000D03*
X264730000Y6400000D03*
%TD*%
%TO.C,D4*%
X252445000Y6370000D03*
X252445000Y5270000D03*
X250615000Y5270000D03*
X250615000Y6370000D03*
%TD*%
%TO.C,D3*%
X233430000Y6590000D03*
X233430000Y5490000D03*
X231600000Y5490000D03*
X231600000Y6590000D03*
%TD*%
%TO.C,D2*%
X215160000Y6550000D03*
X215160000Y5450000D03*
X213330000Y5450000D03*
X213330000Y6550000D03*
%TD*%
%TO.C,D1*%
X199285000Y6460000D03*
X199285000Y5360000D03*
X197455000Y5360000D03*
X197455000Y6460000D03*
%TD*%
%TO.C,D98*%
X131245000Y6430000D03*
X131245000Y5330000D03*
X133075000Y5330000D03*
X133075000Y6430000D03*
%TD*%
%TO.C,D91*%
X96195000Y6440000D03*
X96195000Y5340000D03*
X94365000Y5340000D03*
X94365000Y6440000D03*
%TD*%
%TO.C,D92*%
X112375000Y6490000D03*
X112375000Y5390000D03*
X114205000Y5390000D03*
X114205000Y6490000D03*
%TD*%
%TO.C,D87*%
X34815000Y6470000D03*
X34815000Y5370000D03*
X36645000Y5370000D03*
X36645000Y6470000D03*
%TD*%
%TO.C,D85*%
X9965000Y6240000D03*
X9965000Y5140000D03*
X11795000Y5140000D03*
X11795000Y6240000D03*
%TD*%
D12*
%TO.C,RN21*%
X276310000Y-42210000D03*
D13*
X275510000Y-42210000D03*
X274710000Y-42210000D03*
D12*
X273910000Y-42210000D03*
X273910000Y-40410000D03*
D13*
X274710000Y-40410000D03*
X275510000Y-40410000D03*
D12*
X276310000Y-40410000D03*
%TD*%
D14*
%TO.C,RN12*%
X119660000Y-55980000D03*
D15*
X119660000Y-55180000D03*
X119660000Y-54380000D03*
D14*
X119660000Y-53580000D03*
X117860000Y-53580000D03*
D15*
X117860000Y-54380000D03*
X117860000Y-55180000D03*
D14*
X117860000Y-55980000D03*
%TD*%
D16*
%TO.C,U18*%
X280650000Y-71410000D03*
X279380000Y-71410000D03*
X278110000Y-71410000D03*
X276840000Y-71410000D03*
X275570000Y-71410000D03*
X274300000Y-71410000D03*
X273030000Y-71410000D03*
X271760000Y-71410000D03*
X271760000Y-66410000D03*
X273030000Y-66410000D03*
X274300000Y-66410000D03*
X275570000Y-66410000D03*
X276840000Y-66410000D03*
X278110000Y-66410000D03*
X279380000Y-66410000D03*
X280650000Y-66410000D03*
%TD*%
%TO.C,U17*%
X280665000Y-51120000D03*
X279395000Y-51120000D03*
X278125000Y-51120000D03*
X276855000Y-51120000D03*
X275585000Y-51120000D03*
X274315000Y-51120000D03*
X273045000Y-51120000D03*
X271775000Y-51120000D03*
X271775000Y-46120000D03*
X273045000Y-46120000D03*
X274315000Y-46120000D03*
X275585000Y-46120000D03*
X276855000Y-46120000D03*
X278125000Y-46120000D03*
X279395000Y-46120000D03*
X280665000Y-46120000D03*
%TD*%
D12*
%TO.C,RN22*%
X274500000Y-55360000D03*
D13*
X275300000Y-55360000D03*
X276100000Y-55360000D03*
D12*
X276900000Y-55360000D03*
X276900000Y-57160000D03*
D13*
X276100000Y-57160000D03*
X275300000Y-57160000D03*
D12*
X274500000Y-57160000D03*
%TD*%
%TO.C,RN20*%
X274990000Y-74880000D03*
D13*
X275790000Y-74880000D03*
X276590000Y-74880000D03*
D12*
X277390000Y-74880000D03*
X277390000Y-76680000D03*
D13*
X276590000Y-76680000D03*
X275790000Y-76680000D03*
D12*
X274990000Y-76680000D03*
%TD*%
D16*
%TO.C,U16*%
X233055000Y-51120000D03*
X231785000Y-51120000D03*
X230515000Y-51120000D03*
X229245000Y-51120000D03*
X227975000Y-51120000D03*
X226705000Y-51120000D03*
X225435000Y-51120000D03*
X224165000Y-51120000D03*
X224165000Y-46120000D03*
X225435000Y-46120000D03*
X226705000Y-46120000D03*
X227975000Y-46120000D03*
X229245000Y-46120000D03*
X230515000Y-46120000D03*
X231785000Y-46120000D03*
X233055000Y-46120000D03*
%TD*%
D12*
%TO.C,RN18*%
X230170000Y-54590000D03*
D13*
X230970000Y-54590000D03*
X231770000Y-54590000D03*
D12*
X232570000Y-54590000D03*
X232570000Y-56390000D03*
D13*
X231770000Y-56390000D03*
X230970000Y-56390000D03*
D12*
X230170000Y-56390000D03*
%TD*%
%TO.C,RN17*%
X229930000Y-43120000D03*
D13*
X229130000Y-43120000D03*
X228330000Y-43120000D03*
D12*
X227530000Y-43120000D03*
X227530000Y-41320000D03*
D13*
X228330000Y-41320000D03*
X229130000Y-41320000D03*
D12*
X229930000Y-41320000D03*
%TD*%
D16*
%TO.C,U15*%
X194985000Y-46120000D03*
X193715000Y-46120000D03*
X192445000Y-46120000D03*
X191175000Y-46120000D03*
X189905000Y-46120000D03*
X188635000Y-46120000D03*
X187365000Y-46120000D03*
X186095000Y-46120000D03*
X186095000Y-51120000D03*
X187365000Y-51120000D03*
X188635000Y-51120000D03*
X189905000Y-51120000D03*
X191175000Y-51120000D03*
X192445000Y-51120000D03*
X193715000Y-51120000D03*
X194985000Y-51120000D03*
%TD*%
D12*
%TO.C,RN8*%
X65100000Y-15782500D03*
D13*
X65900000Y-15782500D03*
X66700000Y-15782500D03*
D12*
X67500000Y-15782500D03*
X67500000Y-17582500D03*
D13*
X66700000Y-17582500D03*
X65900000Y-17582500D03*
D12*
X65100000Y-17582500D03*
%TD*%
D11*
%TO.C,D15*%
X152005000Y6350000D03*
X152005000Y5250000D03*
X150175000Y5250000D03*
X150175000Y6350000D03*
%TD*%
D12*
%TO.C,RN11*%
X115320000Y-43340000D03*
D13*
X114520000Y-43340000D03*
X113720000Y-43340000D03*
D12*
X112920000Y-43340000D03*
X112920000Y-41540000D03*
D13*
X113720000Y-41540000D03*
X114520000Y-41540000D03*
D12*
X115320000Y-41540000D03*
%TD*%
D10*
%TO.C,R3*%
X-3260000Y-28125000D03*
X-3260000Y-26475000D03*
%TD*%
D12*
%TO.C,RN4*%
X26090000Y-15930000D03*
D13*
X26890000Y-15930000D03*
X27690000Y-15930000D03*
D12*
X28490000Y-15930000D03*
X28490000Y-17730000D03*
D13*
X27690000Y-17730000D03*
X26890000Y-17730000D03*
D12*
X26090000Y-17730000D03*
%TD*%
D11*
%TO.C,D89*%
X74755000Y6520000D03*
X74755000Y5420000D03*
X72925000Y5420000D03*
X72925000Y6520000D03*
%TD*%
D12*
%TO.C,RN2*%
X6620000Y-14250000D03*
D13*
X7420000Y-14250000D03*
X8220000Y-14250000D03*
D12*
X9020000Y-14250000D03*
X9020000Y-16050000D03*
D13*
X8220000Y-16050000D03*
X7420000Y-16050000D03*
D12*
X6620000Y-16050000D03*
%TD*%
%TO.C,RN13*%
X153630000Y-43210000D03*
D13*
X152830000Y-43210000D03*
X152030000Y-43210000D03*
D12*
X151230000Y-43210000D03*
X151230000Y-41410000D03*
D13*
X152030000Y-41410000D03*
X152830000Y-41410000D03*
D12*
X153630000Y-41410000D03*
%TD*%
%TO.C,RN10*%
X86970000Y-15790000D03*
D13*
X87770000Y-15790000D03*
X88570000Y-15790000D03*
D12*
X89370000Y-15790000D03*
X89370000Y-17590000D03*
D13*
X88570000Y-17590000D03*
X87770000Y-17590000D03*
D12*
X86970000Y-17590000D03*
%TD*%
%TO.C,RN3*%
X23570000Y-4980000D03*
D13*
X22770000Y-4980000D03*
X21970000Y-4980000D03*
D12*
X21170000Y-4980000D03*
X21170000Y-3180000D03*
D13*
X21970000Y-3180000D03*
X22770000Y-3180000D03*
D12*
X23570000Y-3180000D03*
%TD*%
D11*
%TO.C,D88*%
X55710000Y6250000D03*
X55710000Y5150000D03*
X53880000Y5150000D03*
X53880000Y6250000D03*
%TD*%
D12*
%TO.C,RN16*%
X192380000Y-55420000D03*
D13*
X193180000Y-55420000D03*
X193980000Y-55420000D03*
D12*
X194780000Y-55420000D03*
X194780000Y-57220000D03*
D13*
X193980000Y-57220000D03*
X193180000Y-57220000D03*
D12*
X192380000Y-57220000D03*
%TD*%
%TO.C,RN1*%
X6230000Y-4540000D03*
D13*
X5430000Y-4540000D03*
X4630000Y-4540000D03*
D12*
X3830000Y-4540000D03*
X3830000Y-2740000D03*
D13*
X4630000Y-2740000D03*
X5430000Y-2740000D03*
D12*
X6230000Y-2740000D03*
%TD*%
%TO.C,RN5*%
X40770000Y-7410000D03*
D13*
X39970000Y-7410000D03*
X39170000Y-7410000D03*
D12*
X38370000Y-7410000D03*
X38370000Y-5610000D03*
D13*
X39170000Y-5610000D03*
X39970000Y-5610000D03*
D12*
X40770000Y-5610000D03*
%TD*%
D16*
%TO.C,U14*%
X156845000Y-51100000D03*
X155575000Y-51100000D03*
X154305000Y-51100000D03*
X153035000Y-51100000D03*
X151765000Y-51100000D03*
X150495000Y-51100000D03*
X149225000Y-51100000D03*
X147955000Y-51100000D03*
X147955000Y-46100000D03*
X149225000Y-46100000D03*
X150495000Y-46100000D03*
X151765000Y-46100000D03*
X153035000Y-46100000D03*
X154305000Y-46100000D03*
X155575000Y-46100000D03*
X156845000Y-46100000D03*
%TD*%
D11*
%TO.C,D83*%
X-6190000Y-26075000D03*
X-5090000Y-26075000D03*
X-5090000Y-27905000D03*
X-6190000Y-27905000D03*
%TD*%
D12*
%TO.C,RN6*%
X45320000Y-15930000D03*
D13*
X46120000Y-15930000D03*
X46920000Y-15930000D03*
D12*
X47720000Y-15930000D03*
X47720000Y-17730000D03*
D13*
X46920000Y-17730000D03*
X46120000Y-17730000D03*
D12*
X45320000Y-17730000D03*
%TD*%
D11*
%TO.C,D84*%
X-6580000Y-3025000D03*
X-5480000Y-3025000D03*
X-5480000Y-4855000D03*
X-6580000Y-4855000D03*
%TD*%
D12*
%TO.C,RN14*%
X153960000Y-53867206D03*
D13*
X154760000Y-53867206D03*
X155560000Y-53867206D03*
D12*
X156360000Y-53867206D03*
X156360000Y-55667206D03*
D13*
X155560000Y-55667206D03*
X154760000Y-55667206D03*
D12*
X153960000Y-55667206D03*
%TD*%
%TO.C,RN7*%
X76370000Y-9450000D03*
D13*
X75570000Y-9450000D03*
X74770000Y-9450000D03*
D12*
X73970000Y-9450000D03*
X73970000Y-7650000D03*
D13*
X74770000Y-7650000D03*
X75570000Y-7650000D03*
D12*
X76370000Y-7650000D03*
%TD*%
D11*
%TO.C,D33*%
X185440000Y6420000D03*
X185440000Y5320000D03*
X183610000Y5320000D03*
X183610000Y6420000D03*
%TD*%
%TO.C,D80*%
X171120000Y6370000D03*
X171120000Y5270000D03*
X169290000Y5270000D03*
X169290000Y6370000D03*
%TD*%
D12*
%TO.C,RN9*%
X81740000Y-9370000D03*
D13*
X80940000Y-9370000D03*
X80140000Y-9370000D03*
D12*
X79340000Y-9370000D03*
X79340000Y-7570000D03*
D13*
X80140000Y-7570000D03*
X80940000Y-7570000D03*
D12*
X81740000Y-7570000D03*
%TD*%
%TO.C,RN15*%
X191760000Y-43200000D03*
D13*
X190960000Y-43200000D03*
X190160000Y-43200000D03*
D12*
X189360000Y-43200000D03*
X189360000Y-41400000D03*
D13*
X190160000Y-41400000D03*
X190960000Y-41400000D03*
D12*
X191760000Y-41400000D03*
%TD*%
D17*
%TO.C,C14*%
X111200000Y-104100000D03*
X111200000Y-102550000D03*
%TD*%
D18*
%TO.C,C24*%
X94675000Y-102350000D03*
X93125000Y-102350000D03*
%TD*%
%TO.C,C3*%
X123785000Y-90800000D03*
X122235000Y-90800000D03*
%TD*%
D19*
%TO.C,U13*%
X88300000Y-92950000D03*
X88300000Y-94100000D03*
X88300000Y-95250000D03*
X89450000Y-92950000D03*
X89450000Y-94100000D03*
X89450000Y-95250000D03*
X90600000Y-92950000D03*
X90600000Y-94100000D03*
X90600000Y-95250000D03*
D20*
X87012500Y-95850000D03*
X87012500Y-95350000D03*
X87012500Y-94850000D03*
X87012500Y-94350000D03*
X87012500Y-93850000D03*
X87012500Y-93350000D03*
X87012500Y-92850000D03*
X87012500Y-92350000D03*
D21*
X87700000Y-91662500D03*
X88200000Y-91662500D03*
X88700000Y-91662500D03*
X89200000Y-91662500D03*
X89700000Y-91662500D03*
X90200000Y-91662500D03*
X90700000Y-91662500D03*
X91200000Y-91662500D03*
D20*
X91887500Y-92350000D03*
X91887500Y-92850000D03*
X91887500Y-93350000D03*
X91887500Y-93850000D03*
X91887500Y-94350000D03*
X91887500Y-94850000D03*
X91887500Y-95350000D03*
X91887500Y-95850000D03*
D21*
X91200000Y-96537500D03*
X90700000Y-96537500D03*
X90200000Y-96537500D03*
X89700000Y-96537500D03*
X89200000Y-96537500D03*
X88700000Y-96537500D03*
X88200000Y-96537500D03*
X87700000Y-96537500D03*
%TD*%
D22*
%TO.C,C5*%
X112650000Y-97140000D03*
X114200000Y-97140000D03*
%TD*%
D16*
%TO.C,U1*%
X8950000Y-12000000D03*
X7680000Y-12000000D03*
X6410000Y-12000000D03*
X5140000Y-12000000D03*
X3870000Y-12000000D03*
X2600000Y-12000000D03*
X1330000Y-12000000D03*
X60000Y-12000000D03*
X60000Y-7000000D03*
X1330000Y-7000000D03*
X2600000Y-7000000D03*
X3870000Y-7000000D03*
X5140000Y-7000000D03*
X6410000Y-7000000D03*
X7680000Y-7000000D03*
X8950000Y-7000000D03*
%TD*%
D22*
%TO.C,C10*%
X119225000Y-90800000D03*
X120775000Y-90800000D03*
%TD*%
%TO.C,C9*%
X119225000Y-92300000D03*
X120775000Y-92300000D03*
%TD*%
D23*
%TO.C,R13*%
X84300000Y-100775000D03*
X84300000Y-102425000D03*
%TD*%
D24*
%TO.C,U10*%
X84100000Y-92400000D03*
D25*
X84100000Y-92900000D03*
X84100000Y-93400000D03*
D24*
X84100000Y-93900000D03*
D26*
X83425000Y-94050000D03*
D24*
X82750000Y-93900000D03*
D25*
X82750000Y-93400000D03*
X82750000Y-92900000D03*
D24*
X82750000Y-92400000D03*
D26*
X83425000Y-92250000D03*
%TD*%
D22*
%TO.C,C7*%
X110500000Y-81250000D03*
X112050000Y-81250000D03*
%TD*%
D17*
%TO.C,C21*%
X87300000Y-100800000D03*
X87300000Y-99250000D03*
%TD*%
D18*
%TO.C,C25*%
X87375000Y-102350000D03*
X85825000Y-102350000D03*
%TD*%
D27*
%TO.C,U7*%
X159000000Y-7200000D03*
X159000000Y-9500000D03*
D28*
X152700000Y-9500000D03*
D27*
X159000000Y-11800000D03*
%TD*%
D29*
%TO.C,R1*%
X144230000Y-103150000D03*
X142580000Y-103150000D03*
%TD*%
D30*
%TO.C,J5*%
X175500000Y-2900000D03*
X174500000Y-2900000D03*
X173500000Y-2900000D03*
X172500000Y-2900000D03*
D31*
X176800000Y-6775000D03*
X171200000Y-6775000D03*
%TD*%
D18*
%TO.C,C13*%
X123775000Y-89290000D03*
X122225000Y-89290000D03*
%TD*%
D16*
%TO.C,U8*%
X71545000Y-12025000D03*
X70275000Y-12025000D03*
X69005000Y-12025000D03*
X67735000Y-12025000D03*
X66465000Y-12025000D03*
X65195000Y-12025000D03*
X63925000Y-12025000D03*
X62655000Y-12025000D03*
X62655000Y-7025000D03*
X63925000Y-7025000D03*
X65195000Y-7025000D03*
X66465000Y-7025000D03*
X67735000Y-7025000D03*
X69005000Y-7025000D03*
D32*
X70275000Y-7025000D03*
X71545000Y-7025000D03*
%TD*%
D16*
%TO.C,U4*%
X33045000Y-12000000D03*
X31775000Y-12000000D03*
X30505000Y-12000000D03*
X29235000Y-12000000D03*
X27965000Y-12000000D03*
X26695000Y-12000000D03*
X25425000Y-12000000D03*
X24155000Y-12000000D03*
X24155000Y-7000000D03*
X25425000Y-7000000D03*
X26695000Y-7000000D03*
X27965000Y-7000000D03*
X29235000Y-7000000D03*
X30505000Y-7000000D03*
X31775000Y-7000000D03*
X33045000Y-7000000D03*
%TD*%
D33*
%TO.C,C16*%
X103900000Y-102550000D03*
X103900000Y-104100000D03*
%TD*%
D18*
%TO.C,C2*%
X83600000Y-99300000D03*
X82050000Y-99300000D03*
%TD*%
D34*
%TO.C,J7*%
X268700000Y-8500000D03*
X268700000Y-7500000D03*
X268700000Y-6500000D03*
X268700000Y-5500000D03*
D35*
X264825000Y-9800000D03*
X264825000Y-4200000D03*
%TD*%
D16*
%TO.C,U11*%
X93845000Y-12000000D03*
X92575000Y-12000000D03*
X91305000Y-12000000D03*
X90035000Y-12000000D03*
X88765000Y-12000000D03*
X87495000Y-12000000D03*
X86225000Y-12000000D03*
X84955000Y-12000000D03*
X84955000Y-7000000D03*
X86225000Y-7000000D03*
X87495000Y-7000000D03*
X88765000Y-7000000D03*
X90035000Y-7000000D03*
X91305000Y-7000000D03*
X92575000Y-7000000D03*
X93845000Y-7000000D03*
%TD*%
D18*
%TO.C,C12*%
X98000000Y-100800000D03*
X96450000Y-100800000D03*
%TD*%
D10*
%TO.C,R10*%
X87200000Y-90325000D03*
X87200000Y-88675000D03*
%TD*%
D36*
%TO.C,U3*%
X110250000Y-96675000D03*
X109750000Y-96675000D03*
X109250000Y-96675000D03*
X108750000Y-96675000D03*
X108250000Y-96675000D03*
X107750000Y-96675000D03*
X107250000Y-96675000D03*
X106750000Y-96675000D03*
X106250000Y-96675000D03*
X105750000Y-96675000D03*
X105250000Y-96675000D03*
X104750000Y-96675000D03*
X104250000Y-96675000D03*
X103750000Y-96675000D03*
X103250000Y-96675000D03*
X102750000Y-96675000D03*
D37*
X100825000Y-94750000D03*
X100825000Y-94250000D03*
X100825000Y-93750000D03*
X100825000Y-93250000D03*
X100825000Y-92750000D03*
X100825000Y-92250000D03*
X100825000Y-91750000D03*
X100825000Y-91250000D03*
X100825000Y-90750000D03*
X100825000Y-90250000D03*
X100825000Y-89750000D03*
X100825000Y-89250000D03*
X100825000Y-88750000D03*
X100825000Y-88250000D03*
X100825000Y-87750000D03*
X100825000Y-87250000D03*
D36*
X102750000Y-85325000D03*
X103250000Y-85325000D03*
X103750000Y-85325000D03*
X106250000Y-85325000D03*
X106750000Y-85325000D03*
X107250000Y-85325000D03*
X107750000Y-85325000D03*
X108250000Y-85325000D03*
X108750000Y-85325000D03*
X109250000Y-85325000D03*
X109750000Y-85325000D03*
X110250000Y-85325000D03*
D37*
X112175000Y-87250000D03*
X112175000Y-87750000D03*
X112175000Y-88250000D03*
X112175000Y-88750000D03*
X112175000Y-89250000D03*
X112175000Y-89750000D03*
X112175000Y-90250000D03*
X112175000Y-90750000D03*
X112175000Y-91250000D03*
X112175000Y-91750000D03*
X112175000Y-92250000D03*
X112175000Y-92750000D03*
X112175000Y-93250000D03*
X112175000Y-93750000D03*
X112175000Y-94250000D03*
X112175000Y-94750000D03*
%TD*%
D38*
%TO.C,R2*%
X18850000Y-49900000D03*
X20500000Y-49900000D03*
%TD*%
D17*
%TO.C,C20*%
X93100000Y-100825000D03*
X93100000Y-99275000D03*
%TD*%
D22*
%TO.C,C19*%
X96425000Y-97700000D03*
X97975000Y-97700000D03*
%TD*%
D18*
%TO.C,C1*%
X83600000Y-97800000D03*
X82050000Y-97800000D03*
%TD*%
D22*
%TO.C,C8*%
X110500000Y-79790000D03*
X112050000Y-79790000D03*
%TD*%
D18*
%TO.C,C22*%
X91700000Y-88000000D03*
X90150000Y-88000000D03*
%TD*%
D39*
%TO.C,U5*%
X150025000Y-95205000D03*
X150025000Y-93935000D03*
X150025000Y-92665000D03*
X150025000Y-91395000D03*
X154975000Y-91395000D03*
X154975000Y-92665000D03*
X154975000Y-93935000D03*
X154975000Y-95205000D03*
%TD*%
D40*
%TO.C,Y1*%
X107200000Y-102650000D03*
X109400000Y-102650000D03*
X109400000Y-104350000D03*
X107200000Y-104350000D03*
%TD*%
D33*
%TO.C,C17*%
X112700000Y-102550000D03*
X112700000Y-104100000D03*
%TD*%
D18*
%TO.C,C11*%
X98000000Y-99280000D03*
X96450000Y-99280000D03*
%TD*%
D33*
%TO.C,C15*%
X105400000Y-102550000D03*
X105400000Y-104100000D03*
%TD*%
D41*
%TO.C,U9*%
X84275000Y-88700000D03*
X84275000Y-89650000D03*
X84275000Y-90600000D03*
X82000000Y-90600000D03*
X82000000Y-89650000D03*
X82000000Y-88700000D03*
%TD*%
%TO.C,U2*%
X20237500Y-51450000D03*
X20237500Y-52400000D03*
X20237500Y-53350000D03*
X17962500Y-53350000D03*
X17962500Y-51450000D03*
%TD*%
D22*
%TO.C,C4*%
X112650000Y-98670000D03*
X114200000Y-98670000D03*
%TD*%
%TO.C,C18*%
X95925000Y-84000000D03*
X97475000Y-84000000D03*
%TD*%
%TO.C,C6*%
X110500000Y-82700000D03*
X112050000Y-82700000D03*
%TD*%
D23*
%TO.C,R11*%
X85800000Y-99175000D03*
X85800000Y-100825000D03*
%TD*%
D16*
%TO.C,U6*%
X52145000Y-12100000D03*
X50875000Y-12100000D03*
X49605000Y-12100000D03*
X48335000Y-12100000D03*
X47065000Y-12100000D03*
X45795000Y-12100000D03*
X44525000Y-12100000D03*
X43255000Y-12100000D03*
X43255000Y-7100000D03*
X44525000Y-7100000D03*
X45795000Y-7100000D03*
X47065000Y-7100000D03*
X48335000Y-7100000D03*
X49605000Y-7100000D03*
X50875000Y-7100000D03*
X52145000Y-7100000D03*
%TD*%
D33*
%TO.C,C23*%
X94600000Y-99275000D03*
X94600000Y-100825000D03*
%TD*%
D16*
%TO.C,U12*%
X118745000Y-51100000D03*
X117475000Y-51100000D03*
X116205000Y-51100000D03*
X114935000Y-51100000D03*
X113665000Y-51100000D03*
X112395000Y-51100000D03*
X111125000Y-51100000D03*
X109855000Y-51100000D03*
X109855000Y-46100000D03*
X111125000Y-46100000D03*
X112395000Y-46100000D03*
X113665000Y-46100000D03*
X114935000Y-46100000D03*
X116205000Y-46100000D03*
X117475000Y-46100000D03*
X118745000Y-46100000D03*
%TD*%
D40*
%TO.C,Y2*%
X89100000Y-99400000D03*
X91300000Y-99400000D03*
X91300000Y-101100000D03*
X89100000Y-101100000D03*
%TD*%
D38*
%TO.C,R12*%
X82550000Y-95400000D03*
X84200000Y-95400000D03*
%TD*%
M02*
