%TF.GenerationSoftware,KiCad,Pcbnew,8.99.0-2206-gee77d06be7*%
%TF.CreationDate,2024-10-02T02:50:39+07:00*%
%TF.ProjectId,75\u0025,3735252e-6b69-4636-9164-5f7063625858,rev?*%
%TF.SameCoordinates,Original*%
%TF.FileFunction,Drillmap*%
%TF.FilePolarity,Positive*%
%FSLAX45Y45*%
G04 Gerber Fmt 4.5, Leading zero omitted, Abs format (unit mm)*
G04 Created by KiCad (PCBNEW 8.99.0-2206-gee77d06be7) date 2024-10-02 02:50:39*
%MOMM*%
%LPD*%
G01*
G04 APERTURE LIST*
%ADD10C,0.050000*%
%ADD11C,0.200000*%
%ADD12C,0.100000*%
%ADD13C,0.170000*%
G04 APERTURE END LIST*
D10*
X18900000Y-10880000D02*
X18780000Y-10720000D01*
X19210000Y-10880000D02*
X19330000Y-10720000D01*
X17300000Y-10880000D02*
X17420000Y-10720000D01*
X-720000Y420000D02*
G75*
G02*
X-420000Y720000I300000J0D01*
G01*
X16990000Y-10880000D02*
X17300000Y-10880000D01*
X7780000Y-10880000D02*
X7900000Y-10720000D01*
X29300000Y-10420000D02*
G75*
G02*
X29000000Y-10720000I-300000J0D01*
G01*
X29300000Y-10420000D02*
X29300000Y420000D01*
X16990000Y-10880000D02*
X16870000Y-10720000D01*
X17420000Y-10720000D02*
X18780000Y-10720000D01*
X-420000Y-10720000D02*
X6860000Y-10720000D01*
X6980000Y-10880000D02*
X7780000Y-10880000D01*
X29000000Y720000D02*
X-420000Y720000D01*
X6980000Y-10880000D02*
X6860000Y-10720000D01*
X-420000Y-10720000D02*
G75*
G02*
X-720000Y-10420000I0J300000D01*
G01*
X7900000Y-10720000D02*
X16870000Y-10720000D01*
X18900000Y-10880000D02*
X19210000Y-10880000D01*
X19330000Y-10720000D02*
X29000000Y-10720000D01*
X-720000Y420000D02*
X-720000Y-10420000D01*
X29000000Y720000D02*
G75*
G02*
X29300000Y420000I0J-300000D01*
G01*
D11*
D12*
X-665000Y-185000D02*
X-635000Y-215000D01*
X-635000Y-185000D02*
X-665000Y-215000D01*
X-665000Y-391000D02*
X-635000Y-421000D01*
X-635000Y-391000D02*
X-665000Y-421000D01*
X-638000Y-2527000D02*
X-608000Y-2557000D01*
X-608000Y-2527000D02*
X-638000Y-2557000D01*
X-566000Y-537000D02*
X-536000Y-567000D01*
X-536000Y-537000D02*
X-566000Y-567000D01*
X-455000Y-847000D02*
X-425000Y-877000D01*
X-425000Y-847000D02*
X-455000Y-877000D01*
X-337000Y-5431000D02*
X-307000Y-5461000D01*
X-307000Y-5431000D02*
X-337000Y-5461000D01*
X-334000Y-2553000D02*
X-304000Y-2583000D01*
X-304000Y-2553000D02*
X-334000Y-2583000D01*
X-8000Y400000D02*
X22000Y370000D01*
X22000Y400000D02*
X-8000Y370000D01*
X-4000Y-531000D02*
X26000Y-561000D01*
X26000Y-531000D02*
X-4000Y-561000D01*
X189000Y-141647D02*
X219000Y-171647D01*
X219000Y-141647D02*
X189000Y-171647D01*
X215000Y-894000D02*
X245000Y-924000D01*
X245000Y-894000D02*
X215000Y-924000D01*
X239000Y-183000D02*
X269000Y-213000D01*
X269000Y-183000D02*
X239000Y-213000D01*
X239000Y-1591000D02*
X269000Y-1621000D01*
X269000Y-1591000D02*
X239000Y-1621000D01*
X245000Y-555000D02*
X275000Y-585000D01*
X275000Y-555000D02*
X245000Y-585000D01*
X245000Y-1305000D02*
X275000Y-1335000D01*
X275000Y-1305000D02*
X245000Y-1335000D01*
X342000Y-1523000D02*
X372000Y-1553000D01*
X372000Y-1523000D02*
X342000Y-1553000D01*
X375000Y-565000D02*
X405000Y-595000D01*
X405000Y-565000D02*
X375000Y-595000D01*
X375000Y-1325000D02*
X405000Y-1355000D01*
X405000Y-1325000D02*
X375000Y-1355000D01*
X395500Y204500D02*
X425500Y174500D01*
X425500Y204500D02*
X395500Y174500D01*
X425000Y-1405000D02*
X455000Y-1435000D01*
X455000Y-1405000D02*
X425000Y-1435000D01*
X485000Y650000D02*
X515000Y620000D01*
X515000Y650000D02*
X485000Y620000D01*
X505000Y-565000D02*
X535000Y-595000D01*
X535000Y-565000D02*
X505000Y-595000D01*
X513422Y-1377289D02*
X543422Y-1407289D01*
X543422Y-1377289D02*
X513422Y-1407289D01*
X513422Y-1470000D02*
X543422Y-1500000D01*
X543422Y-1470000D02*
X513422Y-1500000D01*
X523000Y-328000D02*
X553000Y-358000D01*
X553000Y-328000D02*
X523000Y-358000D01*
X527855Y-1688145D02*
X557855Y-1718145D01*
X557855Y-1688145D02*
X527855Y-1718145D01*
X611000Y-319000D02*
X641000Y-349000D01*
X641000Y-319000D02*
X611000Y-349000D01*
X625000Y-555000D02*
X655000Y-585000D01*
X655000Y-555000D02*
X625000Y-585000D01*
X640000Y-935000D02*
X670000Y-965000D01*
X670000Y-935000D02*
X640000Y-965000D01*
X665300Y-2879000D02*
X695300Y-2909000D01*
X695300Y-2879000D02*
X665300Y-2909000D01*
X676000Y-112000D02*
X706000Y-142000D01*
X706000Y-112000D02*
X676000Y-142000D01*
X726000Y-439000D02*
X756000Y-469000D01*
X756000Y-439000D02*
X726000Y-469000D01*
X753000Y-685000D02*
X783000Y-715000D01*
X783000Y-685000D02*
X753000Y-715000D01*
X804000Y-528000D02*
X834000Y-558000D01*
X834000Y-528000D02*
X804000Y-558000D01*
X864000Y-439000D02*
X894000Y-469000D01*
X894000Y-439000D02*
X864000Y-469000D01*
X942000Y-1409000D02*
X972000Y-1439000D01*
X972000Y-1409000D02*
X942000Y-1439000D01*
X1474493Y-5127507D02*
X1504493Y-5157507D01*
X1504493Y-5127507D02*
X1474493Y-5157507D01*
X1502000Y367000D02*
X1532000Y337000D01*
X1532000Y367000D02*
X1502000Y337000D01*
X1517000Y-1831000D02*
X1547000Y-1861000D01*
X1547000Y-1831000D02*
X1517000Y-1861000D01*
X1522208Y-5231792D02*
X1552208Y-5261792D01*
X1552208Y-5231792D02*
X1522208Y-5261792D01*
X1607060Y-6922000D02*
X1637060Y-6952000D01*
X1637060Y-6922000D02*
X1607060Y-6952000D01*
X1657060Y-6869422D02*
X1687060Y-6899422D01*
X1687060Y-6869422D02*
X1657060Y-6899422D01*
X1660000Y-5080000D02*
X1690000Y-5110000D01*
X1690000Y-5080000D02*
X1660000Y-5110000D01*
X1681000Y178000D02*
X1711000Y148000D01*
X1711000Y178000D02*
X1681000Y148000D01*
X1684000Y-5321000D02*
X1714000Y-5351000D01*
X1714000Y-5321000D02*
X1684000Y-5351000D01*
X1688250Y-894000D02*
X1718250Y-924000D01*
X1718250Y-894000D02*
X1688250Y-924000D01*
X1697060Y-5872250D02*
X1727060Y-5902250D01*
X1727060Y-5872250D02*
X1697060Y-5902250D01*
X1697060Y-6809910D02*
X1727060Y-6839910D01*
X1727060Y-6809910D02*
X1697060Y-6839910D01*
X1742000Y636000D02*
X1772000Y606000D01*
X1772000Y636000D02*
X1742000Y606000D01*
X1885000Y-1812000D02*
X1915000Y-1842000D01*
X1915000Y-1812000D02*
X1885000Y-1842000D01*
X2181000Y-3309000D02*
X2211000Y-3339000D01*
X2211000Y-3309000D02*
X2181000Y-3339000D01*
X2196000Y-376000D02*
X2226000Y-406000D01*
X2226000Y-376000D02*
X2196000Y-406000D01*
X2246000Y-1211000D02*
X2276000Y-1241000D01*
X2276000Y-1211000D02*
X2246000Y-1241000D01*
X2437000Y-2015000D02*
X2467000Y-2045000D01*
X2467000Y-2015000D02*
X2437000Y-2045000D01*
X2562000Y-430971D02*
X2592000Y-460971D01*
X2592000Y-430971D02*
X2562000Y-460971D01*
X2575500Y-1834500D02*
X2605500Y-1864500D01*
X2605500Y-1834500D02*
X2575500Y-1864500D01*
X2612000Y-219000D02*
X2642000Y-249000D01*
X2642000Y-219000D02*
X2612000Y-249000D01*
X2645000Y-535000D02*
X2675000Y-565000D01*
X2675000Y-535000D02*
X2645000Y-565000D01*
X2655000Y-1305000D02*
X2685000Y-1335000D01*
X2685000Y-1305000D02*
X2655000Y-1335000D01*
X2656000Y-1838000D02*
X2686000Y-1868000D01*
X2686000Y-1838000D02*
X2656000Y-1868000D01*
X2705000Y-1385000D02*
X2735000Y-1415000D01*
X2735000Y-1385000D02*
X2705000Y-1415000D01*
X2723000Y-482000D02*
X2753000Y-512000D01*
X2753000Y-482000D02*
X2723000Y-512000D01*
X2729626Y-380971D02*
X2759626Y-410971D01*
X2759626Y-380971D02*
X2729626Y-410971D01*
X2731500Y-321000D02*
X2761500Y-351000D01*
X2761500Y-321000D02*
X2731500Y-351000D01*
X2765000Y-1385000D02*
X2795000Y-1415000D01*
X2795000Y-1385000D02*
X2765000Y-1415000D01*
X2775000Y-1846000D02*
X2805000Y-1876000D01*
X2805000Y-1846000D02*
X2775000Y-1876000D01*
X2781500Y-430971D02*
X2811500Y-460971D01*
X2811500Y-430971D02*
X2781500Y-460971D01*
X2803411Y-1437009D02*
X2833411Y-1467009D01*
X2833411Y-1437009D02*
X2803411Y-1467009D01*
X2825000Y-1887000D02*
X2855000Y-1917000D01*
X2855000Y-1887000D02*
X2825000Y-1917000D01*
X2825000Y-3318000D02*
X2855000Y-3348000D01*
X2855000Y-3318000D02*
X2825000Y-3348000D01*
X2884991Y-3316947D02*
X2914991Y-3346947D01*
X2914991Y-3316947D02*
X2884991Y-3346947D01*
X2908500Y-383000D02*
X2938500Y-413000D01*
X2938500Y-383000D02*
X2908500Y-413000D01*
X3035500Y-354500D02*
X3065500Y-384500D01*
X3065500Y-354500D02*
X3035500Y-384500D01*
X3110360Y-501640D02*
X3140360Y-531640D01*
X3140360Y-501640D02*
X3110360Y-531640D01*
X3110360Y-501640D02*
X3140360Y-531640D01*
X3140360Y-501640D02*
X3110360Y-531640D01*
X3156000Y-1320000D02*
X3186000Y-1350000D01*
X3186000Y-1320000D02*
X3156000Y-1350000D01*
X3217000Y-957000D02*
X3247000Y-987000D01*
X3247000Y-957000D02*
X3217000Y-987000D01*
X3370000Y-888000D02*
X3400000Y-918000D01*
X3400000Y-888000D02*
X3370000Y-918000D01*
X3456000Y468000D02*
X3486000Y438000D01*
X3486000Y468000D02*
X3456000Y438000D01*
X3542000Y319000D02*
X3572000Y289000D01*
X3572000Y319000D02*
X3542000Y289000D01*
X3560000Y-1225000D02*
X3590000Y-1255000D01*
X3590000Y-1225000D02*
X3560000Y-1255000D01*
X3590000Y665000D02*
X3620000Y635000D01*
X3620000Y665000D02*
X3590000Y635000D01*
X3632000Y-557000D02*
X3662000Y-587000D01*
X3662000Y-557000D02*
X3632000Y-587000D01*
X3750000Y-726000D02*
X3780000Y-756000D01*
X3780000Y-726000D02*
X3750000Y-756000D01*
X3753000Y-1578000D02*
X3783000Y-1608000D01*
X3783000Y-1578000D02*
X3753000Y-1608000D01*
X3988000Y589000D02*
X4018000Y559000D01*
X4018000Y589000D02*
X3988000Y559000D01*
X4092000Y-1200000D02*
X4122000Y-1230000D01*
X4122000Y-1200000D02*
X4092000Y-1230000D01*
X4455381Y-375000D02*
X4485381Y-405000D01*
X4485381Y-375000D02*
X4455381Y-405000D01*
X4491750Y-1858250D02*
X4521750Y-1888250D01*
X4521750Y-1858250D02*
X4491750Y-1888250D01*
X4514500Y-405000D02*
X4544500Y-435000D01*
X4544500Y-405000D02*
X4514500Y-435000D01*
X4514500Y-465000D02*
X4544500Y-495000D01*
X4544500Y-465000D02*
X4514500Y-495000D01*
X4565000Y-1335000D02*
X4595000Y-1365000D01*
X4595000Y-1335000D02*
X4565000Y-1365000D01*
X4580000Y-1841000D02*
X4610000Y-1871000D01*
X4610000Y-1841000D02*
X4580000Y-1871000D01*
X4615000Y-1377427D02*
X4645000Y-1407427D01*
X4645000Y-1377427D02*
X4615000Y-1407427D01*
X4674324Y-1386412D02*
X4704324Y-1416412D01*
X4704324Y-1386412D02*
X4674324Y-1416412D01*
X4709000Y-1925000D02*
X4739000Y-1955000D01*
X4739000Y-1925000D02*
X4709000Y-1955000D01*
X4718000Y-352000D02*
X4748000Y-382000D01*
X4748000Y-352000D02*
X4718000Y-382000D01*
X4733030Y-1415000D02*
X4763030Y-1445000D01*
X4763030Y-1415000D02*
X4733030Y-1445000D01*
X4747000Y-3322000D02*
X4777000Y-3352000D01*
X4777000Y-3322000D02*
X4747000Y-3352000D01*
X4759000Y-1865000D02*
X4789000Y-1895000D01*
X4789000Y-1865000D02*
X4759000Y-1895000D01*
X4806742Y-3316443D02*
X4836742Y-3346443D01*
X4836742Y-3316443D02*
X4806742Y-3346443D01*
X4818500Y-415000D02*
X4848500Y-445000D01*
X4848500Y-415000D02*
X4818500Y-445000D01*
X4899000Y-1578000D02*
X4929000Y-1608000D01*
X4929000Y-1578000D02*
X4899000Y-1608000D01*
X4945500Y-459500D02*
X4975500Y-489500D01*
X4975500Y-459500D02*
X4945500Y-489500D01*
X5073000Y-1338000D02*
X5103000Y-1368000D01*
X5103000Y-1338000D02*
X5073000Y-1368000D01*
X5074000Y-942000D02*
X5104000Y-972000D01*
X5104000Y-942000D02*
X5074000Y-972000D01*
X5129656Y-785000D02*
X5159656Y-815000D01*
X5159656Y-785000D02*
X5129656Y-815000D01*
X5201000Y-511000D02*
X5231000Y-541000D01*
X5231000Y-511000D02*
X5201000Y-541000D01*
X5254000Y-901000D02*
X5284000Y-931000D01*
X5284000Y-901000D02*
X5254000Y-931000D01*
X5363000Y450000D02*
X5393000Y420000D01*
X5393000Y450000D02*
X5363000Y420000D01*
X5399000Y339000D02*
X5429000Y309000D01*
X5429000Y339000D02*
X5399000Y309000D01*
X5483000Y644000D02*
X5513000Y614000D01*
X5513000Y644000D02*
X5483000Y614000D01*
X5500000Y-2000D02*
X5530000Y-32000D01*
X5530000Y-2000D02*
X5500000Y-32000D01*
X6038000Y512000D02*
X6068000Y482000D01*
X6068000Y512000D02*
X6038000Y482000D01*
X6305000Y-1725000D02*
X6335000Y-1755000D01*
X6335000Y-1725000D02*
X6305000Y-1755000D01*
X6340000Y-1422000D02*
X6370000Y-1452000D01*
X6370000Y-1422000D02*
X6340000Y-1452000D01*
X6352000Y-895000D02*
X6382000Y-925000D01*
X6382000Y-895000D02*
X6352000Y-925000D01*
X6352000Y-1978000D02*
X6382000Y-2008000D01*
X6382000Y-1978000D02*
X6352000Y-2008000D01*
X6436000Y-2457000D02*
X6466000Y-2487000D01*
X6466000Y-2457000D02*
X6436000Y-2487000D01*
X6501750Y-1858250D02*
X6531750Y-1888250D01*
X6531750Y-1858250D02*
X6501750Y-1888250D01*
X6504500Y-450500D02*
X6534500Y-480500D01*
X6534500Y-450500D02*
X6504500Y-480500D01*
X6515000Y-1659000D02*
X6545000Y-1689000D01*
X6545000Y-1659000D02*
X6515000Y-1689000D01*
X6565000Y-1385000D02*
X6595000Y-1415000D01*
X6595000Y-1385000D02*
X6565000Y-1415000D01*
X6570000Y-1861000D02*
X6600000Y-1891000D01*
X6600000Y-1861000D02*
X6570000Y-1891000D01*
X6587695Y-545699D02*
X6617695Y-575699D01*
X6617695Y-545699D02*
X6587695Y-575699D01*
X6605000Y-1335000D02*
X6635000Y-1365000D01*
X6635000Y-1335000D02*
X6605000Y-1365000D01*
X6641173Y-518492D02*
X6671173Y-548492D01*
X6671173Y-518492D02*
X6641173Y-548492D01*
X6695000Y-545000D02*
X6725000Y-575000D01*
X6725000Y-545000D02*
X6695000Y-575000D01*
X6745000Y-1325000D02*
X6775000Y-1355000D01*
X6775000Y-1325000D02*
X6745000Y-1355000D01*
X6785000Y-1373000D02*
X6815000Y-1403000D01*
X6815000Y-1373000D02*
X6785000Y-1403000D01*
X6789000Y-1919000D02*
X6819000Y-1949000D01*
X6819000Y-1919000D02*
X6789000Y-1949000D01*
X6827000Y-1742000D02*
X6857000Y-1772000D01*
X6857000Y-1742000D02*
X6827000Y-1772000D01*
X6866000Y-134000D02*
X6896000Y-164000D01*
X6896000Y-134000D02*
X6866000Y-164000D01*
X6874000Y-1603250D02*
X6904000Y-1633250D01*
X6904000Y-1603250D02*
X6874000Y-1633250D01*
X6906000Y-1405000D02*
X6936000Y-1435000D01*
X6936000Y-1405000D02*
X6906000Y-1435000D01*
X6926573Y-1553250D02*
X6956573Y-1583250D01*
X6956573Y-1553250D02*
X6926573Y-1583250D01*
X7008000Y-932000D02*
X7038000Y-962000D01*
X7038000Y-932000D02*
X7008000Y-962000D01*
X7010000Y-1342000D02*
X7040000Y-1372000D01*
X7040000Y-1342000D02*
X7010000Y-1372000D01*
X7012500Y-687500D02*
X7042500Y-717500D01*
X7042500Y-687500D02*
X7012500Y-717500D01*
X7045000Y-108000D02*
X7075000Y-138000D01*
X7075000Y-108000D02*
X7045000Y-138000D01*
X7139000Y-1849000D02*
X7169000Y-1879000D01*
X7169000Y-1849000D02*
X7139000Y-1879000D01*
X7159000Y644000D02*
X7189000Y614000D01*
X7189000Y644000D02*
X7159000Y614000D01*
X7187000Y-1407000D02*
X7217000Y-1437000D01*
X7217000Y-1407000D02*
X7187000Y-1437000D01*
X7209000Y171000D02*
X7239000Y141000D01*
X7239000Y171000D02*
X7209000Y141000D01*
X7250000Y-1090000D02*
X7280000Y-1120000D01*
X7280000Y-1090000D02*
X7250000Y-1120000D01*
X7266000Y-890000D02*
X7296000Y-920000D01*
X7296000Y-890000D02*
X7266000Y-920000D01*
X7285000Y467000D02*
X7315000Y437000D01*
X7315000Y467000D02*
X7285000Y437000D01*
X7285000Y-662000D02*
X7315000Y-692000D01*
X7315000Y-662000D02*
X7285000Y-692000D01*
X7318000Y-1281000D02*
X7348000Y-1311000D01*
X7348000Y-1281000D02*
X7318000Y-1311000D01*
X7327000Y-898000D02*
X7357000Y-928000D01*
X7357000Y-898000D02*
X7327000Y-928000D01*
X7384000Y-1501090D02*
X7414000Y-1531090D01*
X7414000Y-1501090D02*
X7384000Y-1531090D01*
X7385424Y-3311576D02*
X7415424Y-3341576D01*
X7415424Y-3311576D02*
X7385424Y-3341576D01*
X7386000Y665000D02*
X7416000Y635000D01*
X7416000Y665000D02*
X7386000Y635000D01*
X7386000Y-660000D02*
X7416000Y-690000D01*
X7416000Y-660000D02*
X7386000Y-690000D01*
X7444960Y-3304129D02*
X7474960Y-3334129D01*
X7474960Y-3304129D02*
X7444960Y-3334129D01*
X7454000Y133000D02*
X7484000Y103000D01*
X7484000Y133000D02*
X7454000Y103000D01*
X7455000Y414000D02*
X7485000Y384000D01*
X7485000Y414000D02*
X7455000Y384000D01*
X7463000Y-679000D02*
X7493000Y-709000D01*
X7493000Y-679000D02*
X7463000Y-709000D01*
X7463000Y-1653250D02*
X7493000Y-1683250D01*
X7493000Y-1653250D02*
X7463000Y-1683250D01*
X7516000Y-1603250D02*
X7546000Y-1633250D01*
X7546000Y-1603250D02*
X7516000Y-1633250D01*
X7536000Y-562000D02*
X7566000Y-592000D01*
X7566000Y-562000D02*
X7536000Y-592000D01*
X7539000Y-668000D02*
X7569000Y-698000D01*
X7569000Y-668000D02*
X7539000Y-698000D01*
X7542000Y-2008000D02*
X7572000Y-2038000D01*
X7572000Y-2008000D02*
X7542000Y-2038000D01*
X7566000Y-1551090D02*
X7596000Y-1581090D01*
X7596000Y-1551090D02*
X7566000Y-1581090D01*
X7615000Y-4876000D02*
X7645000Y-4906000D01*
X7645000Y-4876000D02*
X7615000Y-4906000D01*
X7809000Y-104000D02*
X7839000Y-134000D01*
X7839000Y-104000D02*
X7809000Y-134000D01*
X7860000Y-8840000D02*
X7890000Y-8870000D01*
X7890000Y-8840000D02*
X7860000Y-8870000D01*
X7864547Y-8903895D02*
X7894547Y-8933895D01*
X7894547Y-8903895D02*
X7864547Y-8933895D01*
X7929000Y-2377000D02*
X7959000Y-2407000D01*
X7959000Y-2377000D02*
X7929000Y-2407000D01*
X7974000Y-9524000D02*
X8004000Y-9554000D01*
X8004000Y-9524000D02*
X7974000Y-9554000D01*
X7976000Y-8683000D02*
X8006000Y-8713000D01*
X8006000Y-8683000D02*
X7976000Y-8713000D01*
X8035000Y-9225000D02*
X8065000Y-9255000D01*
X8065000Y-9225000D02*
X8035000Y-9255000D01*
X8037000Y-8739000D02*
X8067000Y-8769000D01*
X8067000Y-8739000D02*
X8037000Y-8769000D01*
X8079000Y-647000D02*
X8109000Y-677000D01*
X8109000Y-647000D02*
X8079000Y-677000D01*
X8085000Y-8775000D02*
X8115000Y-8805000D01*
X8115000Y-8775000D02*
X8085000Y-8805000D01*
X8085000Y-9275000D02*
X8115000Y-9305000D01*
X8115000Y-9275000D02*
X8085000Y-9305000D01*
X8125000Y-9325000D02*
X8155000Y-9355000D01*
X8155000Y-9325000D02*
X8125000Y-9355000D01*
X8135000Y-9115000D02*
X8165000Y-9145000D01*
X8165000Y-9115000D02*
X8135000Y-9145000D01*
X8158000Y-631000D02*
X8188000Y-661000D01*
X8188000Y-631000D02*
X8158000Y-661000D01*
X8159000Y-1303000D02*
X8189000Y-1333000D01*
X8189000Y-1303000D02*
X8159000Y-1333000D01*
X8205000Y-5645000D02*
X8235000Y-5675000D01*
X8235000Y-5645000D02*
X8205000Y-5675000D01*
X8279000Y-2000000D02*
X8309000Y-2030000D01*
X8309000Y-2000000D02*
X8279000Y-2030000D01*
X8284000Y-8675000D02*
X8314000Y-8705000D01*
X8314000Y-8675000D02*
X8284000Y-8705000D01*
X8285000Y-8945000D02*
X8315000Y-8975000D01*
X8315000Y-8945000D02*
X8285000Y-8975000D01*
X8320000Y-1758000D02*
X8350000Y-1788000D01*
X8350000Y-1758000D02*
X8320000Y-1788000D01*
X8342987Y-9314080D02*
X8372987Y-9344080D01*
X8372987Y-9314080D02*
X8342987Y-9344080D01*
X8350000Y-2604000D02*
X8380000Y-2634000D01*
X8380000Y-2604000D02*
X8350000Y-2634000D01*
X8400478Y-9165000D02*
X8430478Y-9195000D01*
X8430478Y-9165000D02*
X8400478Y-9195000D01*
X8458833Y-9200456D02*
X8488833Y-9230456D01*
X8488833Y-9200456D02*
X8458833Y-9230456D01*
X8459000Y-906000D02*
X8489000Y-936000D01*
X8489000Y-906000D02*
X8459000Y-936000D01*
X8469000Y-1808250D02*
X8499000Y-1838250D01*
X8499000Y-1808250D02*
X8469000Y-1838250D01*
X8469000Y-9748000D02*
X8499000Y-9778000D01*
X8499000Y-9748000D02*
X8469000Y-9778000D01*
X8470000Y-1908250D02*
X8500000Y-1938250D01*
X8500000Y-1908250D02*
X8470000Y-1938250D01*
X8471000Y-2021000D02*
X8501000Y-2051000D01*
X8501000Y-2021000D02*
X8471000Y-2051000D01*
X8483000Y-9343000D02*
X8513000Y-9373000D01*
X8513000Y-9343000D02*
X8483000Y-9373000D01*
X8505000Y-8621000D02*
X8535000Y-8651000D01*
X8535000Y-8621000D02*
X8505000Y-8651000D01*
X8512529Y-9288182D02*
X8542529Y-9318182D01*
X8542529Y-9288182D02*
X8512529Y-9318182D01*
X8515000Y-6557000D02*
X8545000Y-6587000D01*
X8545000Y-6557000D02*
X8515000Y-6587000D01*
X8527000Y-8797000D02*
X8557000Y-8827000D01*
X8557000Y-8797000D02*
X8527000Y-8827000D01*
X8541000Y-7203000D02*
X8571000Y-7233000D01*
X8571000Y-7203000D02*
X8541000Y-7233000D01*
X8552000Y-9572000D02*
X8582000Y-9602000D01*
X8582000Y-9572000D02*
X8552000Y-9602000D01*
X8562000Y-1803000D02*
X8592000Y-1833000D01*
X8592000Y-1803000D02*
X8562000Y-1833000D01*
X8567500Y-10220000D02*
X8597500Y-10250000D01*
X8597500Y-10220000D02*
X8567500Y-10250000D01*
X8593000Y-1858250D02*
X8623000Y-1888250D01*
X8623000Y-1858250D02*
X8593000Y-1888250D01*
X8595000Y-1967000D02*
X8625000Y-1997000D01*
X8625000Y-1967000D02*
X8595000Y-1997000D01*
X8610000Y-863000D02*
X8640000Y-893000D01*
X8640000Y-863000D02*
X8610000Y-893000D01*
X8615709Y-3366420D02*
X8645709Y-3396420D01*
X8645709Y-3366420D02*
X8615709Y-3396420D01*
X8626762Y-1907998D02*
X8656762Y-1937998D01*
X8656762Y-1907998D02*
X8626762Y-1937998D01*
X8642000Y-9664000D02*
X8672000Y-9694000D01*
X8672000Y-9664000D02*
X8642000Y-9694000D01*
X8645000Y-8935000D02*
X8675000Y-8965000D01*
X8675000Y-8935000D02*
X8645000Y-8965000D01*
X8686000Y-7138921D02*
X8716000Y-7168921D01*
X8716000Y-7138921D02*
X8686000Y-7168921D01*
X8686000Y-7970000D02*
X8716000Y-8000000D01*
X8716000Y-7970000D02*
X8686000Y-8000000D01*
X8733000Y-7082000D02*
X8763000Y-7112000D01*
X8763000Y-7082000D02*
X8733000Y-7112000D01*
X8735000Y-1305000D02*
X8765000Y-1335000D01*
X8765000Y-1305000D02*
X8735000Y-1335000D01*
X8744645Y-1888645D02*
X8774645Y-1918645D01*
X8774645Y-1888645D02*
X8744645Y-1918645D01*
X8785000Y-1385000D02*
X8815000Y-1415000D01*
X8815000Y-1385000D02*
X8785000Y-1415000D01*
X8786000Y-7963000D02*
X8816000Y-7993000D01*
X8816000Y-7963000D02*
X8786000Y-7993000D01*
X8788776Y-9848035D02*
X8818776Y-9878035D01*
X8818776Y-9848035D02*
X8788776Y-9878035D01*
X8792079Y-10237921D02*
X8822079Y-10267921D01*
X8822079Y-10237921D02*
X8792079Y-10267921D01*
X8820924Y-3317076D02*
X8850924Y-3347076D01*
X8850924Y-3317076D02*
X8820924Y-3347076D01*
X8835000Y-1421000D02*
X8865000Y-1451000D01*
X8865000Y-1421000D02*
X8835000Y-1451000D01*
X8835000Y-9775000D02*
X8865000Y-9805000D01*
X8865000Y-9775000D02*
X8835000Y-9805000D01*
X8836000Y-175000D02*
X8866000Y-205000D01*
X8866000Y-175000D02*
X8836000Y-205000D01*
X8840000Y-8665000D02*
X8870000Y-8695000D01*
X8870000Y-8665000D02*
X8840000Y-8695000D01*
X8845493Y-10265252D02*
X8875493Y-10295252D01*
X8875493Y-10265252D02*
X8845493Y-10295252D01*
X8855000Y-3136000D02*
X8885000Y-3166000D01*
X8885000Y-3136000D02*
X8855000Y-3166000D01*
X8875000Y-1471000D02*
X8905000Y-1501000D01*
X8905000Y-1471000D02*
X8875000Y-1501000D01*
X8904000Y-3313000D02*
X8934000Y-3343000D01*
X8934000Y-3313000D02*
X8904000Y-3343000D01*
X8924000Y-1810000D02*
X8954000Y-1840000D01*
X8954000Y-1810000D02*
X8924000Y-1840000D01*
X8930000Y-9395000D02*
X8960000Y-9425000D01*
X8960000Y-9395000D02*
X8930000Y-9425000D01*
X8940000Y-10107000D02*
X8970000Y-10137000D01*
X8970000Y-10107000D02*
X8940000Y-10137000D01*
X8988500Y-685000D02*
X9018500Y-715000D01*
X9018500Y-685000D02*
X8988500Y-715000D01*
X9001000Y-8716000D02*
X9031000Y-8746000D01*
X9031000Y-8716000D02*
X9001000Y-8746000D01*
X9013000Y-6982000D02*
X9043000Y-7012000D01*
X9043000Y-6982000D02*
X9013000Y-7012000D01*
X9055000Y-9085000D02*
X9085000Y-9115000D01*
X9085000Y-9085000D02*
X9055000Y-9115000D01*
X9055000Y-9705000D02*
X9085000Y-9735000D01*
X9085000Y-9705000D02*
X9055000Y-9735000D01*
X9072000Y-10265252D02*
X9102000Y-10295252D01*
X9102000Y-10265252D02*
X9072000Y-10295252D01*
X9082000Y-1737000D02*
X9112000Y-1767000D01*
X9112000Y-1737000D02*
X9082000Y-1767000D01*
X9090000Y-1011000D02*
X9120000Y-1041000D01*
X9120000Y-1011000D02*
X9090000Y-1041000D01*
X9113000Y-9752000D02*
X9143000Y-9782000D01*
X9143000Y-9752000D02*
X9113000Y-9782000D01*
X9115500Y-685000D02*
X9145500Y-715000D01*
X9145500Y-685000D02*
X9115500Y-715000D01*
X9118000Y-9085000D02*
X9148000Y-9115000D01*
X9148000Y-9085000D02*
X9118000Y-9115000D01*
X9148000Y-1454000D02*
X9178000Y-1484000D01*
X9178000Y-1454000D02*
X9148000Y-1484000D01*
X9159000Y-9930000D02*
X9189000Y-9960000D01*
X9189000Y-9930000D02*
X9159000Y-9960000D01*
X9178000Y661000D02*
X9208000Y631000D01*
X9208000Y661000D02*
X9178000Y631000D01*
X9186000Y-123000D02*
X9216000Y-153000D01*
X9216000Y-123000D02*
X9186000Y-153000D01*
X9230000Y546000D02*
X9260000Y516000D01*
X9260000Y546000D02*
X9230000Y516000D01*
X9242000Y-1327000D02*
X9272000Y-1357000D01*
X9272000Y-1327000D02*
X9242000Y-1357000D01*
X9266000Y-1813000D02*
X9296000Y-1843000D01*
X9296000Y-1813000D02*
X9266000Y-1843000D01*
X9321000Y-7175000D02*
X9351000Y-7205000D01*
X9351000Y-7175000D02*
X9321000Y-7205000D01*
X9325000Y-8205000D02*
X9355000Y-8235000D01*
X9355000Y-8205000D02*
X9325000Y-8235000D01*
X9356360Y-825360D02*
X9386360Y-855360D01*
X9386360Y-825360D02*
X9356360Y-855360D01*
X9360000Y-3258000D02*
X9390000Y-3288000D01*
X9390000Y-3258000D02*
X9360000Y-3288000D01*
X9369000Y-1334000D02*
X9399000Y-1364000D01*
X9399000Y-1334000D02*
X9369000Y-1364000D01*
X9377000Y-10069000D02*
X9407000Y-10099000D01*
X9407000Y-10069000D02*
X9377000Y-10099000D01*
X9380000Y-683000D02*
X9410000Y-713000D01*
X9410000Y-683000D02*
X9380000Y-713000D01*
X9424000Y-1564000D02*
X9454000Y-1594000D01*
X9454000Y-1564000D02*
X9424000Y-1594000D01*
X9450000Y-3179000D02*
X9480000Y-3209000D01*
X9480000Y-3179000D02*
X9450000Y-3209000D01*
X9475000Y-1980000D02*
X9505000Y-2010000D01*
X9505000Y-1980000D02*
X9475000Y-2010000D01*
X9487750Y-4922000D02*
X9517750Y-4952000D01*
X9517750Y-4922000D02*
X9487750Y-4952000D01*
X9500435Y-3129000D02*
X9530435Y-3159000D01*
X9530435Y-3129000D02*
X9500435Y-3159000D01*
X9527000Y-6791000D02*
X9557000Y-6821000D01*
X9557000Y-6791000D02*
X9527000Y-6821000D01*
X9529000Y655000D02*
X9559000Y625000D01*
X9559000Y655000D02*
X9529000Y625000D01*
X9550435Y-3363000D02*
X9580435Y-3393000D01*
X9580435Y-3363000D02*
X9550435Y-3393000D01*
X9550435Y-4590000D02*
X9580435Y-4620000D01*
X9580435Y-4590000D02*
X9550435Y-4620000D01*
X9640000Y-9988000D02*
X9670000Y-10018000D01*
X9670000Y-9988000D02*
X9640000Y-10018000D01*
X9675000Y-8385000D02*
X9705000Y-8415000D01*
X9705000Y-8385000D02*
X9675000Y-8415000D01*
X9716750Y-7158000D02*
X9746750Y-7188000D01*
X9746750Y-7158000D02*
X9716750Y-7188000D01*
X9765000Y-8640000D02*
X9795000Y-8670000D01*
X9795000Y-8640000D02*
X9765000Y-8670000D01*
X9765000Y-9255000D02*
X9795000Y-9285000D01*
X9795000Y-9255000D02*
X9765000Y-9285000D01*
X9781750Y-6982000D02*
X9811750Y-7012000D01*
X9811750Y-6982000D02*
X9781750Y-7012000D01*
X9831750Y-6803000D02*
X9861750Y-6833000D01*
X9861750Y-6803000D02*
X9831750Y-6833000D01*
X9851000Y618000D02*
X9881000Y588000D01*
X9881000Y618000D02*
X9851000Y588000D01*
X9853000Y-2545000D02*
X9883000Y-2575000D01*
X9883000Y-2545000D02*
X9853000Y-2575000D01*
X9925000Y-8745000D02*
X9955000Y-8775000D01*
X9955000Y-8745000D02*
X9925000Y-8775000D01*
X9925000Y-9915000D02*
X9955000Y-9945000D01*
X9955000Y-9915000D02*
X9925000Y-9945000D01*
X9935000Y-9355000D02*
X9965000Y-9385000D01*
X9965000Y-9355000D02*
X9935000Y-9385000D01*
X10001716Y-8385000D02*
X10031716Y-8415000D01*
X10031716Y-8385000D02*
X10001716Y-8415000D01*
X10027000Y-125000D02*
X10057000Y-155000D01*
X10057000Y-125000D02*
X10027000Y-155000D01*
X10031000Y-675000D02*
X10061000Y-705000D01*
X10061000Y-675000D02*
X10031000Y-705000D01*
X10081500Y-169000D02*
X10111500Y-199000D01*
X10111500Y-169000D02*
X10081500Y-199000D01*
X10101000Y-1394000D02*
X10131000Y-1424000D01*
X10131000Y-1394000D02*
X10101000Y-1424000D01*
X10185000Y-8685000D02*
X10215000Y-8715000D01*
X10215000Y-8685000D02*
X10185000Y-8715000D01*
X10265000Y-3329000D02*
X10295000Y-3359000D01*
X10295000Y-3329000D02*
X10265000Y-3359000D01*
X10325000Y-965000D02*
X10355000Y-995000D01*
X10355000Y-965000D02*
X10325000Y-995000D01*
X10335000Y-3244000D02*
X10365000Y-3274000D01*
X10365000Y-3244000D02*
X10335000Y-3274000D01*
X10355000Y-8755000D02*
X10385000Y-8785000D01*
X10385000Y-8755000D02*
X10355000Y-8785000D01*
X10375000Y-10305000D02*
X10405000Y-10335000D01*
X10405000Y-10305000D02*
X10375000Y-10335000D01*
X10390000Y-3191000D02*
X10420000Y-3221000D01*
X10420000Y-3191000D02*
X10390000Y-3221000D01*
X10391462Y-1001462D02*
X10421462Y-1031462D01*
X10421462Y-1001462D02*
X10391462Y-1031462D01*
X10513550Y-9514130D02*
X10543550Y-9544130D01*
X10543550Y-9514130D02*
X10513550Y-9544130D01*
X10532023Y-9842862D02*
X10562023Y-9872862D01*
X10562023Y-9842862D02*
X10532023Y-9872862D01*
X10535000Y-8970000D02*
X10565000Y-9000000D01*
X10565000Y-8970000D02*
X10535000Y-9000000D01*
X10565000Y-9545000D02*
X10595000Y-9575000D01*
X10595000Y-9545000D02*
X10565000Y-9575000D01*
X10575000Y-9020000D02*
X10605000Y-9050000D01*
X10605000Y-9020000D02*
X10575000Y-9050000D01*
X10606000Y-8376000D02*
X10636000Y-8406000D01*
X10636000Y-8376000D02*
X10606000Y-8406000D01*
X10627000Y-6703000D02*
X10657000Y-6733000D01*
X10657000Y-6703000D02*
X10627000Y-6733000D01*
X10655000Y-9060000D02*
X10685000Y-9090000D01*
X10685000Y-9060000D02*
X10655000Y-9090000D01*
X10665000Y-9535000D02*
X10695000Y-9565000D01*
X10695000Y-9535000D02*
X10665000Y-9565000D01*
X10682477Y-6882103D02*
X10712477Y-6912103D01*
X10712477Y-6882103D02*
X10682477Y-6912103D01*
X10686000Y-6942000D02*
X10716000Y-6972000D01*
X10716000Y-6942000D02*
X10686000Y-6972000D01*
X10710000Y-9813000D02*
X10740000Y-9843000D01*
X10740000Y-9813000D02*
X10710000Y-9843000D01*
X10719000Y-10535000D02*
X10749000Y-10565000D01*
X10749000Y-10535000D02*
X10719000Y-10565000D01*
X10732000Y-9160000D02*
X10762000Y-9190000D01*
X10762000Y-9160000D02*
X10732000Y-9190000D01*
X10750000Y-6987000D02*
X10780000Y-7017000D01*
X10780000Y-6987000D02*
X10750000Y-7017000D01*
X10756000Y-8868000D02*
X10786000Y-8898000D01*
X10786000Y-8868000D02*
X10756000Y-8898000D01*
X10777000Y-1353000D02*
X10807000Y-1383000D01*
X10807000Y-1353000D02*
X10777000Y-1383000D01*
X10800779Y-8386641D02*
X10830779Y-8416641D01*
X10830779Y-8386641D02*
X10800779Y-8416641D01*
X10812000Y-109000D02*
X10842000Y-139000D01*
X10842000Y-109000D02*
X10812000Y-139000D01*
X10827000Y-7032000D02*
X10857000Y-7062000D01*
X10857000Y-7032000D02*
X10827000Y-7062000D01*
X10860000Y-8377000D02*
X10890000Y-8407000D01*
X10890000Y-8377000D02*
X10860000Y-8407000D01*
X10894000Y-7090000D02*
X10924000Y-7120000D01*
X10924000Y-7090000D02*
X10894000Y-7120000D01*
X10899013Y-8707750D02*
X10929013Y-8737750D01*
X10929013Y-8707750D02*
X10899013Y-8737750D01*
X10909000Y-10585000D02*
X10939000Y-10615000D01*
X10939000Y-10585000D02*
X10909000Y-10615000D01*
X10943833Y-8335456D02*
X10973833Y-8365456D01*
X10973833Y-8335456D02*
X10943833Y-8365456D01*
X10959000Y-8709000D02*
X10989000Y-8739000D01*
X10989000Y-8709000D02*
X10959000Y-8739000D01*
X10965000Y-10635000D02*
X10995000Y-10665000D01*
X10995000Y-10635000D02*
X10965000Y-10665000D01*
X11015000Y-8635000D02*
X11045000Y-8665000D01*
X11045000Y-8635000D02*
X11015000Y-8665000D01*
X11015000Y-9435000D02*
X11045000Y-9465000D01*
X11045000Y-9435000D02*
X11015000Y-9465000D01*
X11015355Y-8405355D02*
X11045355Y-8435355D01*
X11045355Y-8405355D02*
X11015355Y-8435355D01*
X11065000Y-9212000D02*
X11095000Y-9242000D01*
X11095000Y-9212000D02*
X11065000Y-9242000D01*
X11196000Y-4143000D02*
X11226000Y-4173000D01*
X11226000Y-4143000D02*
X11196000Y-4173000D01*
X11213000Y-134000D02*
X11243000Y-164000D01*
X11243000Y-134000D02*
X11213000Y-164000D01*
X11225000Y-4445000D02*
X11255000Y-4475000D01*
X11255000Y-4445000D02*
X11225000Y-4475000D01*
X11225000Y-5225000D02*
X11255000Y-5255000D01*
X11255000Y-5225000D02*
X11225000Y-5255000D01*
X11238000Y478000D02*
X11268000Y448000D01*
X11268000Y478000D02*
X11238000Y448000D01*
X11255000Y-8355000D02*
X11285000Y-8385000D01*
X11285000Y-8355000D02*
X11255000Y-8385000D01*
X11255000Y-10310000D02*
X11285000Y-10340000D01*
X11285000Y-10310000D02*
X11255000Y-10340000D01*
X11275000Y-4409000D02*
X11305000Y-4439000D01*
X11305000Y-4409000D02*
X11275000Y-4439000D01*
X11297000Y-4059000D02*
X11327000Y-4089000D01*
X11327000Y-4059000D02*
X11297000Y-4089000D01*
X11297000Y-10635000D02*
X11327000Y-10665000D01*
X11327000Y-10635000D02*
X11297000Y-10665000D01*
X11298000Y624691D02*
X11328000Y594691D01*
X11328000Y624691D02*
X11298000Y594691D01*
X11313000Y-9261000D02*
X11343000Y-9291000D01*
X11343000Y-9261000D02*
X11313000Y-9291000D01*
X11330000Y-770000D02*
X11360000Y-800000D01*
X11360000Y-770000D02*
X11330000Y-800000D01*
X11345000Y-5245000D02*
X11375000Y-5275000D01*
X11375000Y-5245000D02*
X11345000Y-5275000D01*
X11348000Y665000D02*
X11378000Y635000D01*
X11378000Y665000D02*
X11348000Y635000D01*
X11369000Y290000D02*
X11399000Y260000D01*
X11399000Y290000D02*
X11369000Y260000D01*
X11418000Y-9567000D02*
X11448000Y-9597000D01*
X11448000Y-9567000D02*
X11418000Y-9597000D01*
X11422000Y-9375000D02*
X11452000Y-9405000D01*
X11452000Y-9375000D02*
X11422000Y-9405000D01*
X11465000Y-5265000D02*
X11495000Y-5295000D01*
X11495000Y-5265000D02*
X11465000Y-5295000D01*
X11520000Y-4059000D02*
X11550000Y-4089000D01*
X11550000Y-4059000D02*
X11520000Y-4089000D01*
X11545000Y-4405000D02*
X11575000Y-4435000D01*
X11575000Y-4405000D02*
X11545000Y-4435000D01*
X11575000Y-5275000D02*
X11605000Y-5305000D01*
X11605000Y-5275000D02*
X11575000Y-5305000D01*
X11602000Y-5722000D02*
X11632000Y-5752000D01*
X11632000Y-5722000D02*
X11602000Y-5752000D01*
X11605000Y-4445000D02*
X11635000Y-4475000D01*
X11635000Y-4445000D02*
X11605000Y-4475000D01*
X11648000Y-4137000D02*
X11678000Y-4167000D01*
X11678000Y-4137000D02*
X11648000Y-4167000D01*
X11667000Y-4922000D02*
X11697000Y-4952000D01*
X11697000Y-4922000D02*
X11667000Y-4952000D01*
X11670000Y-631000D02*
X11700000Y-661000D01*
X11700000Y-631000D02*
X11670000Y-661000D01*
X11697000Y-4442000D02*
X11727000Y-4472000D01*
X11727000Y-4442000D02*
X11697000Y-4472000D01*
X11700000Y-4822000D02*
X11730000Y-4852000D01*
X11730000Y-4822000D02*
X11700000Y-4852000D01*
X11705000Y-5772000D02*
X11735000Y-5802000D01*
X11735000Y-5772000D02*
X11705000Y-5802000D01*
X11730000Y-631000D02*
X11760000Y-661000D01*
X11760000Y-631000D02*
X11730000Y-661000D01*
X11772000Y-5287000D02*
X11802000Y-5317000D01*
X11802000Y-5287000D02*
X11772000Y-5317000D01*
X11838000Y-4423000D02*
X11868000Y-4453000D01*
X11868000Y-4423000D02*
X11838000Y-4453000D01*
X11856000Y-4822000D02*
X11886000Y-4852000D01*
X11886000Y-4822000D02*
X11856000Y-4852000D01*
X11856000Y-4922000D02*
X11886000Y-4952000D01*
X11886000Y-4922000D02*
X11856000Y-4952000D01*
X11905000Y-138000D02*
X11935000Y-168000D01*
X11935000Y-138000D02*
X11905000Y-168000D01*
X11941000Y-6522000D02*
X11971000Y-6552000D01*
X11971000Y-6522000D02*
X11941000Y-6552000D01*
X12117000Y-5668250D02*
X12147000Y-5698250D01*
X12147000Y-5668250D02*
X12117000Y-5698250D01*
X12160000Y-4872000D02*
X12190000Y-4902000D01*
X12190000Y-4872000D02*
X12160000Y-4902000D01*
X12167000Y-5618250D02*
X12197000Y-5648250D01*
X12197000Y-5618250D02*
X12167000Y-5648250D01*
X12167000Y-5783000D02*
X12197000Y-5813000D01*
X12197000Y-5783000D02*
X12167000Y-5813000D01*
X12288000Y-8578000D02*
X12318000Y-8608000D01*
X12318000Y-8578000D02*
X12288000Y-8608000D01*
X12345000Y-8825000D02*
X12375000Y-8855000D01*
X12375000Y-8825000D02*
X12345000Y-8855000D01*
X12356000Y-8565000D02*
X12386000Y-8595000D01*
X12386000Y-8565000D02*
X12356000Y-8595000D01*
X12829000Y-7171000D02*
X12859000Y-7201000D01*
X12859000Y-7171000D02*
X12829000Y-7201000D01*
X12834000Y-7055000D02*
X12864000Y-7085000D01*
X12864000Y-7055000D02*
X12834000Y-7085000D01*
X13118000Y463000D02*
X13148000Y433000D01*
X13148000Y463000D02*
X13118000Y433000D01*
X13145914Y-595000D02*
X13175914Y-625000D01*
X13175914Y-595000D02*
X13145914Y-625000D01*
X13173000Y612000D02*
X13203000Y582000D01*
X13203000Y612000D02*
X13173000Y582000D01*
X13205914Y-595000D02*
X13235914Y-625000D01*
X13235914Y-595000D02*
X13205914Y-625000D01*
X13224000Y665000D02*
X13254000Y635000D01*
X13254000Y665000D02*
X13224000Y635000D01*
X13325000Y-3325000D02*
X13355000Y-3355000D01*
X13355000Y-3325000D02*
X13325000Y-3355000D01*
X13338000Y-4595000D02*
X13368000Y-4625000D01*
X13368000Y-4595000D02*
X13338000Y-4625000D01*
X13602000Y-595000D02*
X13632000Y-625000D01*
X13632000Y-595000D02*
X13602000Y-625000D01*
X13747000Y-124000D02*
X13777000Y-154000D01*
X13777000Y-124000D02*
X13747000Y-154000D01*
X14035000Y-10547000D02*
X14065000Y-10577000D01*
X14065000Y-10547000D02*
X14035000Y-10577000D01*
X14040000Y-10211000D02*
X14070000Y-10241000D01*
X14070000Y-10211000D02*
X14040000Y-10241000D01*
X14307000Y-911000D02*
X14337000Y-941000D01*
X14337000Y-911000D02*
X14307000Y-941000D01*
X14331000Y-3291000D02*
X14361000Y-3321000D01*
X14361000Y-3291000D02*
X14331000Y-3321000D01*
X14498000Y-10101000D02*
X14528000Y-10131000D01*
X14528000Y-10101000D02*
X14498000Y-10131000D01*
X14513000Y-10332000D02*
X14543000Y-10362000D01*
X14543000Y-10332000D02*
X14513000Y-10362000D01*
X14620000Y-10532000D02*
X14650000Y-10562000D01*
X14650000Y-10532000D02*
X14620000Y-10562000D01*
X14751000Y-9047000D02*
X14781000Y-9077000D01*
X14781000Y-9047000D02*
X14751000Y-9077000D01*
X15005000Y-4124000D02*
X15035000Y-4154000D01*
X15035000Y-4124000D02*
X15005000Y-4154000D01*
X15027000Y479000D02*
X15057000Y449000D01*
X15057000Y479000D02*
X15027000Y449000D01*
X15033000Y-4467000D02*
X15063000Y-4497000D01*
X15063000Y-4467000D02*
X15033000Y-4497000D01*
X15048277Y-564983D02*
X15078277Y-594983D01*
X15078277Y-564983D02*
X15048277Y-594983D01*
X15083000Y-4405000D02*
X15113000Y-4435000D01*
X15113000Y-4405000D02*
X15083000Y-4435000D01*
X15085000Y596000D02*
X15115000Y566000D01*
X15115000Y596000D02*
X15085000Y566000D01*
X15098000Y-4046000D02*
X15128000Y-4076000D01*
X15128000Y-4046000D02*
X15098000Y-4076000D01*
X15105785Y-5269068D02*
X15135785Y-5299068D01*
X15135785Y-5269068D02*
X15105785Y-5299068D01*
X15142000Y651000D02*
X15172000Y621000D01*
X15172000Y651000D02*
X15142000Y621000D01*
X15163000Y-5251000D02*
X15193000Y-5281000D01*
X15193000Y-5251000D02*
X15163000Y-5281000D01*
X15230743Y-5248033D02*
X15260743Y-5278033D01*
X15260743Y-5248033D02*
X15230743Y-5278033D01*
X15334140Y-5294860D02*
X15364140Y-5324860D01*
X15364140Y-5294860D02*
X15334140Y-5324860D01*
X15335000Y-9255000D02*
X15365000Y-9285000D01*
X15365000Y-9255000D02*
X15335000Y-9285000D01*
X15335000Y-9375000D02*
X15365000Y-9405000D01*
X15365000Y-9375000D02*
X15335000Y-9405000D01*
X15335000Y-9505000D02*
X15365000Y-9535000D01*
X15365000Y-9505000D02*
X15335000Y-9535000D01*
X15343000Y-4041000D02*
X15373000Y-4071000D01*
X15373000Y-4041000D02*
X15343000Y-4071000D01*
X15356750Y-5668250D02*
X15386750Y-5698250D01*
X15386750Y-5668250D02*
X15356750Y-5698250D01*
X15364000Y-4400000D02*
X15394000Y-4430000D01*
X15394000Y-4400000D02*
X15364000Y-4430000D01*
X15376000Y-5729000D02*
X15406000Y-5759000D01*
X15406000Y-5729000D02*
X15376000Y-5759000D01*
X15414000Y-4461000D02*
X15444000Y-4491000D01*
X15444000Y-4461000D02*
X15414000Y-4491000D01*
X15455000Y-4124000D02*
X15485000Y-4154000D01*
X15485000Y-4124000D02*
X15455000Y-4154000D01*
X15499000Y-590000D02*
X15529000Y-620000D01*
X15529000Y-590000D02*
X15499000Y-620000D01*
X15502000Y-1151000D02*
X15532000Y-1181000D01*
X15532000Y-1151000D02*
X15502000Y-1181000D01*
X15527000Y-5724000D02*
X15557000Y-5754000D01*
X15557000Y-5724000D02*
X15527000Y-5754000D01*
X15541000Y-4457000D02*
X15571000Y-4487000D01*
X15571000Y-4457000D02*
X15541000Y-4487000D01*
X15543000Y-4843000D02*
X15573000Y-4873000D01*
X15573000Y-4843000D02*
X15543000Y-4873000D01*
X15543000Y-5239000D02*
X15573000Y-5269000D01*
X15573000Y-5239000D02*
X15543000Y-5269000D01*
X15549000Y-550000D02*
X15579000Y-580000D01*
X15579000Y-550000D02*
X15549000Y-580000D01*
X15593000Y-935000D02*
X15623000Y-965000D01*
X15623000Y-935000D02*
X15593000Y-965000D01*
X15593000Y-1584000D02*
X15623000Y-1614000D01*
X15623000Y-1584000D02*
X15593000Y-1614000D01*
X15595250Y-5668250D02*
X15625250Y-5698250D01*
X15625250Y-5668250D02*
X15595250Y-5698250D01*
X15606000Y-6546000D02*
X15636000Y-6576000D01*
X15636000Y-6546000D02*
X15606000Y-6576000D01*
X15754000Y-5369000D02*
X15784000Y-5399000D01*
X15784000Y-5369000D02*
X15754000Y-5399000D01*
X15756000Y-4595000D02*
X15786000Y-4625000D01*
X15786000Y-4595000D02*
X15756000Y-4625000D01*
X15956000Y-132000D02*
X15986000Y-162000D01*
X15986000Y-132000D02*
X15956000Y-162000D01*
X16231000Y-751000D02*
X16261000Y-781000D01*
X16261000Y-751000D02*
X16231000Y-781000D01*
X16628645Y-550000D02*
X16658645Y-580000D01*
X16658645Y-550000D02*
X16628645Y-580000D01*
X16885000Y-185000D02*
X16915000Y-215000D01*
X16915000Y-185000D02*
X16885000Y-215000D01*
X16885000Y-785000D02*
X16915000Y-815000D01*
X16915000Y-785000D02*
X16885000Y-815000D01*
X16923000Y472000D02*
X16953000Y442000D01*
X16953000Y472000D02*
X16923000Y442000D01*
X17033000Y644000D02*
X17063000Y614000D01*
X17063000Y644000D02*
X17033000Y614000D01*
X17046645Y438645D02*
X17076645Y408645D01*
X17076645Y438645D02*
X17046645Y408645D01*
X17248000Y-397000D02*
X17278000Y-427000D01*
X17278000Y-397000D02*
X17248000Y-427000D01*
X17288163Y-492500D02*
X17318163Y-522500D01*
X17318163Y-492500D02*
X17288163Y-522500D01*
X17410000Y-89000D02*
X17440000Y-119000D01*
X17440000Y-89000D02*
X17410000Y-119000D01*
X17415355Y-484645D02*
X17445355Y-514645D01*
X17445355Y-484645D02*
X17415355Y-514645D01*
X17416000Y181000D02*
X17446000Y151000D01*
X17446000Y181000D02*
X17416000Y151000D01*
X17534000Y-392000D02*
X17564000Y-422000D01*
X17564000Y-392000D02*
X17534000Y-422000D01*
X17540000Y-1040000D02*
X17570000Y-1070000D01*
X17570000Y-1040000D02*
X17540000Y-1070000D01*
X17543000Y-161000D02*
X17573000Y-191000D01*
X17573000Y-161000D02*
X17543000Y-191000D01*
X17724000Y-125000D02*
X17754000Y-155000D01*
X17754000Y-125000D02*
X17724000Y-155000D01*
X17852000Y56000D02*
X17882000Y26000D01*
X17882000Y56000D02*
X17852000Y26000D01*
X17873000Y305000D02*
X17903000Y275000D01*
X17903000Y305000D02*
X17873000Y275000D01*
X18251000Y546000D02*
X18281000Y516000D01*
X18281000Y546000D02*
X18251000Y516000D01*
X18465000Y273000D02*
X18495000Y243000D01*
X18495000Y273000D02*
X18465000Y243000D01*
X18529000Y547000D02*
X18559000Y517000D01*
X18559000Y547000D02*
X18529000Y517000D01*
X18730000Y194000D02*
X18760000Y164000D01*
X18760000Y194000D02*
X18730000Y164000D01*
X18815000Y-605000D02*
X18845000Y-635000D01*
X18845000Y-605000D02*
X18815000Y-635000D01*
X18822000Y-4126000D02*
X18852000Y-4156000D01*
X18852000Y-4126000D02*
X18822000Y-4156000D01*
X18847000Y-4458000D02*
X18877000Y-4488000D01*
X18877000Y-4458000D02*
X18847000Y-4488000D01*
X18897000Y-4419467D02*
X18927000Y-4449467D01*
X18927000Y-4419467D02*
X18897000Y-4449467D01*
X18921000Y-4045000D02*
X18951000Y-4075000D01*
X18951000Y-4045000D02*
X18921000Y-4075000D01*
X18996202Y-5321913D02*
X19026202Y-5351913D01*
X19026202Y-5321913D02*
X18996202Y-5351913D01*
X18998000Y-5253000D02*
X19028000Y-5283000D01*
X19028000Y-5253000D02*
X18998000Y-5283000D01*
X19089855Y-5274145D02*
X19119855Y-5304145D01*
X19119855Y-5274145D02*
X19089855Y-5304145D01*
X19128855Y412145D02*
X19158855Y382145D01*
X19158855Y412145D02*
X19128855Y382145D01*
X19140000Y613000D02*
X19170000Y583000D01*
X19170000Y613000D02*
X19140000Y583000D01*
X19155140Y-5282860D02*
X19185140Y-5312860D01*
X19185140Y-5282860D02*
X19155140Y-5312860D01*
X19172000Y-4043000D02*
X19202000Y-4073000D01*
X19202000Y-4043000D02*
X19172000Y-4073000D01*
X19181000Y-4416980D02*
X19211000Y-4446980D01*
X19211000Y-4416980D02*
X19181000Y-4446980D01*
X19186750Y-5668250D02*
X19216750Y-5698250D01*
X19216750Y-5668250D02*
X19186750Y-5698250D01*
X19220000Y-5801000D02*
X19250000Y-5831000D01*
X19250000Y-5801000D02*
X19220000Y-5831000D01*
X19231000Y-4460000D02*
X19261000Y-4490000D01*
X19261000Y-4460000D02*
X19231000Y-4490000D01*
X19269000Y-4126000D02*
X19299000Y-4156000D01*
X19299000Y-4126000D02*
X19269000Y-4156000D01*
X19338000Y-5806000D02*
X19368000Y-5836000D01*
X19368000Y-5806000D02*
X19338000Y-5836000D01*
X19345000Y-4449000D02*
X19375000Y-4479000D01*
X19375000Y-4449000D02*
X19345000Y-4479000D01*
X19351000Y-4848000D02*
X19381000Y-4878000D01*
X19381000Y-4848000D02*
X19351000Y-4878000D01*
X19354000Y-5224000D02*
X19384000Y-5254000D01*
X19384000Y-5224000D02*
X19354000Y-5254000D01*
X19554000Y-5668250D02*
X19584000Y-5698250D01*
X19584000Y-5668250D02*
X19554000Y-5698250D01*
X19575000Y-5526000D02*
X19605000Y-5556000D01*
X19605000Y-5526000D02*
X19575000Y-5556000D01*
X19578000Y-4597000D02*
X19608000Y-4627000D01*
X19608000Y-4597000D02*
X19578000Y-4627000D01*
X19715000Y-452500D02*
X19745000Y-482500D01*
X19745000Y-452500D02*
X19715000Y-482500D01*
X19858000Y650000D02*
X19888000Y620000D01*
X19888000Y650000D02*
X19858000Y620000D01*
X19960000Y515000D02*
X19990000Y485000D01*
X19990000Y515000D02*
X19960000Y485000D01*
X20236000Y-273000D02*
X20266000Y-303000D01*
X20266000Y-273000D02*
X20236000Y-303000D01*
X20854000Y-1755000D02*
X20884000Y-1785000D01*
X20884000Y-1755000D02*
X20854000Y-1785000D01*
X21003000Y-208000D02*
X21033000Y-238000D01*
X21033000Y-208000D02*
X21003000Y-238000D01*
X21007000Y161000D02*
X21037000Y131000D01*
X21037000Y161000D02*
X21007000Y131000D01*
X21013000Y582000D02*
X21043000Y552000D01*
X21043000Y582000D02*
X21013000Y552000D01*
X21123000Y-835000D02*
X21153000Y-865000D01*
X21153000Y-835000D02*
X21123000Y-865000D01*
X21145000Y663000D02*
X21175000Y633000D01*
X21175000Y663000D02*
X21145000Y633000D01*
X21182000Y-452500D02*
X21212000Y-482500D01*
X21212000Y-452500D02*
X21182000Y-482500D01*
X21199000Y532000D02*
X21229000Y502000D01*
X21229000Y532000D02*
X21199000Y502000D01*
X21232000Y268000D02*
X21262000Y238000D01*
X21262000Y268000D02*
X21232000Y238000D01*
X21516000Y-452500D02*
X21546000Y-482500D01*
X21546000Y-452500D02*
X21516000Y-482500D01*
X21737000Y665000D02*
X21767000Y635000D01*
X21767000Y665000D02*
X21737000Y635000D01*
X21825000Y524000D02*
X21855000Y494000D01*
X21855000Y524000D02*
X21825000Y494000D01*
X22135000Y-592500D02*
X22165000Y-622500D01*
X22165000Y-592500D02*
X22135000Y-622500D01*
X22430000Y297000D02*
X22460000Y267000D01*
X22460000Y297000D02*
X22430000Y267000D01*
X22623000Y-4118000D02*
X22653000Y-4148000D01*
X22653000Y-4118000D02*
X22623000Y-4148000D01*
X22654000Y-4467000D02*
X22684000Y-4497000D01*
X22684000Y-4467000D02*
X22654000Y-4497000D01*
X22704000Y-4414000D02*
X22734000Y-4444000D01*
X22734000Y-4414000D02*
X22704000Y-4444000D01*
X22744000Y-4037000D02*
X22774000Y-4067000D01*
X22774000Y-4037000D02*
X22744000Y-4067000D01*
X22774145Y-5302855D02*
X22804145Y-5332855D01*
X22804145Y-5302855D02*
X22774145Y-5332855D01*
X22779000Y-5237000D02*
X22809000Y-5267000D01*
X22809000Y-5237000D02*
X22779000Y-5267000D01*
X22786000Y230000D02*
X22816000Y200000D01*
X22816000Y230000D02*
X22786000Y200000D01*
X22857855Y-5245145D02*
X22887855Y-5275145D01*
X22887855Y-5245145D02*
X22857855Y-5275145D01*
X22926640Y-5257360D02*
X22956640Y-5287360D01*
X22956640Y-5257360D02*
X22926640Y-5287360D01*
X22969000Y-4034000D02*
X22999000Y-4064000D01*
X22999000Y-4034000D02*
X22969000Y-4064000D01*
X23000000Y-4397609D02*
X23030000Y-4427609D01*
X23030000Y-4397609D02*
X23000000Y-4427609D01*
X23013000Y-835000D02*
X23043000Y-865000D01*
X23043000Y-835000D02*
X23013000Y-865000D01*
X23022000Y-5566000D02*
X23052000Y-5596000D01*
X23052000Y-5566000D02*
X23022000Y-5596000D01*
X23026000Y665000D02*
X23056000Y635000D01*
X23056000Y665000D02*
X23026000Y635000D01*
X23047000Y-5707000D02*
X23077000Y-5737000D01*
X23077000Y-5707000D02*
X23047000Y-5737000D01*
X23050000Y-4456000D02*
X23080000Y-4486000D01*
X23080000Y-4456000D02*
X23050000Y-4486000D01*
X23067000Y555000D02*
X23097000Y525000D01*
X23097000Y555000D02*
X23067000Y525000D01*
X23082000Y-4118000D02*
X23112000Y-4148000D01*
X23112000Y-4118000D02*
X23082000Y-4148000D01*
X23084000Y-452500D02*
X23114000Y-482500D01*
X23114000Y-452500D02*
X23084000Y-482500D01*
X23139000Y-5766406D02*
X23169000Y-5796406D01*
X23169000Y-5766406D02*
X23139000Y-5796406D01*
X23161000Y-4466000D02*
X23191000Y-4496000D01*
X23191000Y-4466000D02*
X23161000Y-4496000D01*
X23162000Y-4843000D02*
X23192000Y-4873000D01*
X23192000Y-4843000D02*
X23162000Y-4873000D01*
X23167000Y-5234000D02*
X23197000Y-5264000D01*
X23197000Y-5234000D02*
X23167000Y-5264000D01*
X23217000Y-5736000D02*
X23247000Y-5766000D01*
X23247000Y-5736000D02*
X23217000Y-5766000D01*
X23391000Y-4597000D02*
X23421000Y-4627000D01*
X23421000Y-4597000D02*
X23391000Y-4627000D01*
X23395000Y-5438000D02*
X23425000Y-5468000D01*
X23425000Y-5438000D02*
X23395000Y-5468000D01*
X23451000Y-452500D02*
X23481000Y-482500D01*
X23481000Y-452500D02*
X23451000Y-482500D01*
X23639000Y665000D02*
X23669000Y635000D01*
X23669000Y665000D02*
X23639000Y635000D01*
X24035000Y-592500D02*
X24065000Y-622500D01*
X24065000Y-592500D02*
X24035000Y-622500D01*
X24101500Y-3394000D02*
X24131500Y-3424000D01*
X24131500Y-3394000D02*
X24101500Y-3424000D01*
X24655000Y-835000D02*
X24685000Y-865000D01*
X24685000Y-835000D02*
X24655000Y-865000D01*
X24885000Y652000D02*
X24915000Y622000D01*
X24915000Y652000D02*
X24885000Y622000D01*
X24888000Y-835000D02*
X24918000Y-865000D01*
X24918000Y-835000D02*
X24888000Y-865000D01*
X24924000Y532000D02*
X24954000Y502000D01*
X24954000Y532000D02*
X24924000Y502000D01*
X24944000Y-452500D02*
X24974000Y-482500D01*
X24974000Y-452500D02*
X24944000Y-482500D01*
X25706000Y620000D02*
X25736000Y590000D01*
X25736000Y620000D02*
X25706000Y590000D01*
X25874000Y-835000D02*
X25904000Y-865000D01*
X25904000Y-835000D02*
X25874000Y-865000D01*
X25889000Y-375000D02*
X25919000Y-405000D01*
X25919000Y-375000D02*
X25889000Y-405000D01*
X25932000Y-442000D02*
X25962000Y-472000D01*
X25962000Y-442000D02*
X25932000Y-472000D01*
X26029000Y145000D02*
X26059000Y115000D01*
X26059000Y145000D02*
X26029000Y115000D01*
X26365000Y-695000D02*
X26395000Y-725000D01*
X26395000Y-695000D02*
X26365000Y-725000D01*
X26415000Y-196000D02*
X26445000Y-226000D01*
X26445000Y-196000D02*
X26415000Y-226000D01*
X26415000Y-545000D02*
X26445000Y-575000D01*
X26445000Y-545000D02*
X26415000Y-575000D01*
X26425000Y-705000D02*
X26455000Y-735000D01*
X26455000Y-705000D02*
X26425000Y-735000D01*
X26453000Y482000D02*
X26483000Y452000D01*
X26483000Y482000D02*
X26453000Y452000D01*
X26558000Y-252000D02*
X26588000Y-282000D01*
X26588000Y-252000D02*
X26558000Y-282000D01*
X26641000Y545000D02*
X26671000Y515000D01*
X26671000Y545000D02*
X26641000Y515000D01*
X26682573Y-542573D02*
X26712573Y-572573D01*
X26712573Y-542573D02*
X26682573Y-572573D01*
X26685000Y-235000D02*
X26715000Y-265000D01*
X26715000Y-235000D02*
X26685000Y-265000D01*
X26725000Y-585000D02*
X26755000Y-615000D01*
X26755000Y-585000D02*
X26725000Y-615000D01*
X26745000Y-725000D02*
X26775000Y-755000D01*
X26775000Y-725000D02*
X26745000Y-755000D01*
X26790000Y-376000D02*
X26820000Y-406000D01*
X26820000Y-376000D02*
X26790000Y-406000D01*
X26839000Y179000D02*
X26869000Y149000D01*
X26869000Y179000D02*
X26839000Y149000D01*
X27000000Y15000D02*
X27030000Y-15000D01*
X27030000Y15000D02*
X27000000Y-15000D01*
X27045000Y-417000D02*
X27075000Y-447000D01*
X27075000Y-417000D02*
X27045000Y-447000D01*
X27154000Y-5766000D02*
X27184000Y-5796000D01*
X27184000Y-5766000D02*
X27154000Y-5796000D01*
X27161000Y-6482000D02*
X27191000Y-6512000D01*
X27191000Y-6482000D02*
X27161000Y-6512000D01*
X27171000Y-5599000D02*
X27201000Y-5629000D01*
X27201000Y-5599000D02*
X27171000Y-5629000D01*
X27210000Y-4290000D02*
X27240000Y-4320000D01*
X27240000Y-4290000D02*
X27210000Y-4320000D01*
X27270000Y-4773000D02*
X27300000Y-4803000D01*
X27300000Y-4773000D02*
X27270000Y-4803000D01*
X27286000Y-5637000D02*
X27316000Y-5667000D01*
X27316000Y-5637000D02*
X27286000Y-5667000D01*
X27337044Y-5749292D02*
X27367044Y-5779292D01*
X27367044Y-5749292D02*
X27337044Y-5779292D01*
X27355000Y-4308000D02*
X27385000Y-4338000D01*
X27385000Y-4308000D02*
X27355000Y-4338000D01*
X27368000Y-4112000D02*
X27398000Y-4142000D01*
X27398000Y-4112000D02*
X27368000Y-4142000D01*
X27380000Y-7653000D02*
X27410000Y-7683000D01*
X27410000Y-7653000D02*
X27380000Y-7683000D01*
X27418000Y-5234000D02*
X27448000Y-5264000D01*
X27448000Y-5234000D02*
X27418000Y-5264000D01*
X27419000Y-4469000D02*
X27449000Y-4499000D01*
X27449000Y-4469000D02*
X27419000Y-4499000D01*
X27419000Y-7280000D02*
X27449000Y-7310000D01*
X27449000Y-7280000D02*
X27419000Y-7310000D01*
X27459000Y-7741000D02*
X27489000Y-7771000D01*
X27489000Y-7741000D02*
X27459000Y-7771000D01*
X27469000Y-4432000D02*
X27499000Y-4462000D01*
X27499000Y-4432000D02*
X27469000Y-4462000D01*
X27469000Y-7316837D02*
X27499000Y-7346837D01*
X27499000Y-7316837D02*
X27469000Y-7346837D01*
X27478000Y-5259000D02*
X27508000Y-5289000D01*
X27508000Y-5259000D02*
X27478000Y-5289000D01*
X27494000Y246000D02*
X27524000Y216000D01*
X27524000Y246000D02*
X27494000Y216000D01*
X27509000Y-4387000D02*
X27539000Y-4417000D01*
X27539000Y-4387000D02*
X27509000Y-4417000D01*
X27549000Y-4330368D02*
X27579000Y-4360368D01*
X27579000Y-4330368D02*
X27549000Y-4360368D01*
X27563000Y-625000D02*
X27593000Y-655000D01*
X27593000Y-625000D02*
X27563000Y-655000D01*
X27567000Y647000D02*
X27597000Y617000D01*
X27597000Y647000D02*
X27567000Y617000D01*
X27573000Y-7384000D02*
X27603000Y-7414000D01*
X27603000Y-7384000D02*
X27573000Y-7414000D01*
X27589145Y-5576145D02*
X27619145Y-5606145D01*
X27619145Y-5576145D02*
X27589145Y-5606145D01*
X27592000Y-6469000D02*
X27622000Y-6499000D01*
X27622000Y-6469000D02*
X27592000Y-6499000D01*
X27645500Y-4106500D02*
X27675500Y-4136500D01*
X27675500Y-4106500D02*
X27645500Y-4136500D01*
X27668000Y-5244000D02*
X27698000Y-5274000D01*
X27698000Y-5244000D02*
X27668000Y-5274000D01*
X27675000Y-4203000D02*
X27705000Y-4233000D01*
X27705000Y-4203000D02*
X27675000Y-4233000D01*
X27731000Y-4367289D02*
X27761000Y-4397289D01*
X27761000Y-4367289D02*
X27731000Y-4397289D01*
X27738500Y-5611500D02*
X27768500Y-5641500D01*
X27768500Y-5611500D02*
X27738500Y-5641500D01*
X27739000Y-7326701D02*
X27769000Y-7356701D01*
X27769000Y-7326701D02*
X27739000Y-7356701D01*
X27739000Y-7747000D02*
X27769000Y-7777000D01*
X27769000Y-7747000D02*
X27739000Y-7777000D01*
X27789000Y-7285000D02*
X27819000Y-7315000D01*
X27819000Y-7285000D02*
X27789000Y-7315000D01*
X27790000Y-4262000D02*
X27820000Y-4292000D01*
X27820000Y-4262000D02*
X27790000Y-4292000D01*
X27793000Y-5267000D02*
X27823000Y-5297000D01*
X27823000Y-5267000D02*
X27793000Y-5297000D01*
X27810355Y-5612645D02*
X27840355Y-5642645D01*
X27840355Y-5612645D02*
X27810355Y-5642645D01*
X27845250Y-7573250D02*
X27875250Y-7603250D01*
X27875250Y-7573250D02*
X27845250Y-7603250D01*
X27848670Y-7291281D02*
X27878670Y-7321281D01*
X27878670Y-7291281D02*
X27848670Y-7321281D01*
X27868000Y-5814000D02*
X27898000Y-5844000D01*
X27898000Y-5814000D02*
X27868000Y-5844000D01*
X27916000Y-5229000D02*
X27946000Y-5259000D01*
X27946000Y-5229000D02*
X27916000Y-5259000D01*
X27918000Y-5718250D02*
X27948000Y-5748250D01*
X27948000Y-5718250D02*
X27918000Y-5748250D01*
X27922000Y-4836000D02*
X27952000Y-4866000D01*
X27952000Y-4836000D02*
X27922000Y-4866000D01*
X27922000Y-5606000D02*
X27952000Y-5636000D01*
X27952000Y-5606000D02*
X27922000Y-5636000D01*
X27925000Y-6979000D02*
X27955000Y-7009000D01*
X27955000Y-6979000D02*
X27925000Y-7009000D01*
X27938000Y-4735000D02*
X27968000Y-4765000D01*
X27968000Y-4735000D02*
X27938000Y-4765000D01*
X27976000Y-5811000D02*
X28006000Y-5841000D01*
X28006000Y-5811000D02*
X27976000Y-5841000D01*
X27978000Y-5718250D02*
X28008000Y-5748250D01*
X28008000Y-5718250D02*
X27978000Y-5748250D01*
X28045000Y-5589000D02*
X28075000Y-5619000D01*
X28075000Y-5589000D02*
X28045000Y-5619000D01*
X28053000Y-5525000D02*
X28083000Y-5555000D01*
X28083000Y-5525000D02*
X28053000Y-5555000D01*
X28060000Y-4766000D02*
X28090000Y-4796000D01*
X28090000Y-4766000D02*
X28060000Y-4796000D01*
X28110000Y-4924000D02*
X28140000Y-4954000D01*
X28140000Y-4924000D02*
X28110000Y-4954000D01*
X28190000Y-1796000D02*
X28220000Y-1826000D01*
X28220000Y-1796000D02*
X28190000Y-1826000D01*
X28845000Y-235000D02*
X28875000Y-265000D01*
X28875000Y-235000D02*
X28845000Y-265000D01*
X29046000Y-516000D02*
X29076000Y-546000D01*
X29076000Y-516000D02*
X29046000Y-546000D01*
X29107000Y-2551000D02*
X29137000Y-2581000D01*
X29137000Y-2551000D02*
X29107000Y-2581000D01*
X29154000Y-575000D02*
X29184000Y-605000D01*
X29184000Y-575000D02*
X29154000Y-605000D01*
X29180000Y-3433000D02*
X29210000Y-3463000D01*
X29210000Y-3433000D02*
X29180000Y-3463000D01*
X29183000Y-2577000D02*
X29213000Y-2607000D01*
X29213000Y-2577000D02*
X29183000Y-2607000D01*
X29215000Y273000D02*
X29245000Y243000D01*
X29245000Y273000D02*
X29215000Y243000D01*
X1467060Y-7462250D02*
G75*
G02*
X1437060Y-7462250I-15000J0D01*
G01*
X1437060Y-7462250D02*
G75*
G02*
X1467060Y-7462250I15000J0D01*
G01*
X11653350Y-9746250D02*
G75*
G02*
X11623350Y-9746250I-15000J0D01*
G01*
X11623350Y-9746250D02*
G75*
G02*
X11653350Y-9746250I15000J0D01*
G01*
X11777350Y-9872250D02*
G75*
G02*
X11747350Y-9872250I-15000J0D01*
G01*
X11747350Y-9872250D02*
G75*
G02*
X11777350Y-9872250I15000J0D01*
G01*
X11778350Y-9622250D02*
G75*
G02*
X11748350Y-9622250I-15000J0D01*
G01*
X11748350Y-9622250D02*
G75*
G02*
X11778350Y-9622250I15000J0D01*
G01*
X11903350Y-9747250D02*
G75*
G02*
X11873350Y-9747250I-15000J0D01*
G01*
X11873350Y-9747250D02*
G75*
G02*
X11903350Y-9747250I15000J0D01*
G01*
X12288350Y-9493250D02*
G75*
G02*
X12258350Y-9493250I-15000J0D01*
G01*
X12258350Y-9493250D02*
G75*
G02*
X12288350Y-9493250I15000J0D01*
G01*
X12413350Y-9367250D02*
G75*
G02*
X12383350Y-9367250I-15000J0D01*
G01*
X12383350Y-9367250D02*
G75*
G02*
X12413350Y-9367250I15000J0D01*
G01*
X12413350Y-9617250D02*
G75*
G02*
X12383350Y-9617250I-15000J0D01*
G01*
X12383350Y-9617250D02*
G75*
G02*
X12413350Y-9617250I15000J0D01*
G01*
X12537350Y-9492250D02*
G75*
G02*
X12507350Y-9492250I-15000J0D01*
G01*
X12507350Y-9492250D02*
G75*
G02*
X12537350Y-9492250I15000J0D01*
G01*
X25755810Y-5557250D02*
G75*
G02*
X25725810Y-5557250I-15000J0D01*
G01*
X25725810Y-5557250D02*
G75*
G02*
X25755810Y-5557250I15000J0D01*
G01*
X9230000Y-10522500D02*
X9230000Y-10617500D01*
X9182500Y-10570000D02*
X9277500Y-10570000D01*
X9480000Y-10522500D02*
X9480000Y-10617500D01*
X9432500Y-10570000D02*
X9527500Y-10570000D01*
X9730000Y-10522500D02*
X9730000Y-10617500D01*
X9682500Y-10570000D02*
X9777500Y-10570000D01*
X9980000Y-10522500D02*
X9980000Y-10617500D01*
X9932500Y-10570000D02*
X10027500Y-10570000D01*
X14266356Y-10584356D02*
X14266356Y-10513644D01*
X14195644Y-10513644D01*
X14195644Y-10584356D01*
X14266356Y-10584356D01*
X14516356Y-10584356D02*
X14516356Y-10513644D01*
X14445644Y-10513644D01*
X14445644Y-10584356D01*
X14516356Y-10584356D01*
X15107356Y-10584356D02*
X15107356Y-10513644D01*
X15036644Y-10513644D01*
X15036644Y-10584356D01*
X15107356Y-10584356D01*
X15357356Y-10584356D02*
X15357356Y-10513644D01*
X15286644Y-10513644D01*
X15286644Y-10584356D01*
X15357356Y-10584356D01*
D13*
X-381000Y169000D02*
X-296000Y254000D01*
X-381000Y339000D01*
X-466000Y254000D01*
X-381000Y169000D01*
X-381000Y-2212250D02*
X-296000Y-2127250D01*
X-381000Y-2042250D01*
X-466000Y-2127250D01*
X-381000Y-2212250D01*
X-142900Y-6022250D02*
X-57900Y-5937250D01*
X-142900Y-5852250D01*
X-227900Y-5937250D01*
X-142900Y-6022250D01*
X-142900Y-9832250D02*
X-57900Y-9747250D01*
X-142900Y-9662250D01*
X-227900Y-9747250D01*
X-142900Y-9832250D01*
X95300Y-4117250D02*
X180300Y-4032250D01*
X95300Y-3947250D01*
X10300Y-4032250D01*
X95300Y-4117250D01*
X100000Y-9833000D02*
X185000Y-9748000D01*
X100000Y-9663000D01*
X15000Y-9748000D01*
X100000Y-9833000D01*
X254000Y423000D02*
X339000Y508000D01*
X254000Y593000D01*
X169000Y508000D01*
X254000Y423000D01*
X254000Y-1958250D02*
X339000Y-1873250D01*
X254000Y-1788250D01*
X169000Y-1873250D01*
X254000Y-1958250D01*
X333400Y-6022250D02*
X418400Y-5937250D01*
X333400Y-5852250D01*
X248400Y-5937250D01*
X333400Y-6022250D01*
X492100Y-5768250D02*
X577100Y-5683250D01*
X492100Y-5598250D01*
X407100Y-5683250D01*
X492100Y-5768250D01*
X492100Y-9578250D02*
X577100Y-9493250D01*
X492100Y-9408250D01*
X407100Y-9493250D01*
X492100Y-9578250D01*
X730300Y-3863250D02*
X815300Y-3778250D01*
X730300Y-3693250D01*
X645300Y-3778250D01*
X730300Y-3863250D01*
X735000Y-9579000D02*
X820000Y-9494000D01*
X735000Y-9409000D01*
X650000Y-9494000D01*
X735000Y-9579000D01*
X817060Y-7927250D02*
X902060Y-7842250D01*
X817060Y-7757250D01*
X732060Y-7842250D01*
X817060Y-7927250D01*
X968400Y-5768250D02*
X1053400Y-5683250D01*
X968400Y-5598250D01*
X883400Y-5683250D01*
X968400Y-5768250D01*
X1452060Y-7673250D02*
X1537060Y-7588250D01*
X1452060Y-7503250D01*
X1367060Y-7588250D01*
X1452060Y-7673250D01*
X1524000Y-2212250D02*
X1609000Y-2127250D01*
X1524000Y-2042250D01*
X1439000Y-2127250D01*
X1524000Y-2212250D01*
X2000250Y169000D02*
X2085250Y254000D01*
X2000250Y339000D01*
X1915250Y254000D01*
X2000250Y169000D01*
X2159000Y-1958250D02*
X2244000Y-1873250D01*
X2159000Y-1788250D01*
X2074000Y-1873250D01*
X2159000Y-1958250D01*
X2238350Y-9832250D02*
X2323350Y-9747250D01*
X2238350Y-9662250D01*
X2153350Y-9747250D01*
X2238350Y-9832250D01*
X2476500Y-4117250D02*
X2561500Y-4032250D01*
X2476500Y-3947250D01*
X2391500Y-4032250D01*
X2476500Y-4117250D01*
X2480000Y-9832500D02*
X2565000Y-9747500D01*
X2480000Y-9662500D01*
X2395000Y-9747500D01*
X2480000Y-9832500D01*
X2481000Y171000D02*
X2566000Y256000D01*
X2481000Y341000D01*
X2396000Y256000D01*
X2481000Y171000D01*
X2635250Y423000D02*
X2720250Y508000D01*
X2635250Y593000D01*
X2550250Y508000D01*
X2635250Y423000D01*
X2873350Y-9578250D02*
X2958350Y-9493250D01*
X2873350Y-9408250D01*
X2788350Y-9493250D01*
X2873350Y-9578250D01*
X2952750Y-6022250D02*
X3037750Y-5937250D01*
X2952750Y-5852250D01*
X2867750Y-5937250D01*
X2952750Y-6022250D01*
X3111500Y-3863250D02*
X3196500Y-3778250D01*
X3111500Y-3693250D01*
X3026500Y-3778250D01*
X3111500Y-3863250D01*
X3115000Y-9578500D02*
X3200000Y-9493500D01*
X3115000Y-9408500D01*
X3030000Y-9493500D01*
X3115000Y-9578500D01*
X3116000Y425000D02*
X3201000Y510000D01*
X3116000Y595000D01*
X3031000Y510000D01*
X3116000Y425000D01*
X3429000Y-2212250D02*
X3514000Y-2127250D01*
X3429000Y-2042250D01*
X3344000Y-2127250D01*
X3429000Y-2212250D01*
X3587750Y-5768250D02*
X3672750Y-5683250D01*
X3587750Y-5598250D01*
X3502750Y-5683250D01*
X3587750Y-5768250D01*
X3905250Y169000D02*
X3990250Y254000D01*
X3905250Y339000D01*
X3820250Y254000D01*
X3905250Y169000D01*
X3905250Y-7927250D02*
X3990250Y-7842250D01*
X3905250Y-7757250D01*
X3820250Y-7842250D01*
X3905250Y-7927250D01*
X4064000Y-1958250D02*
X4149000Y-1873250D01*
X4064000Y-1788250D01*
X3979000Y-1873250D01*
X4064000Y-1958250D01*
X4381500Y-4117250D02*
X4466500Y-4032250D01*
X4381500Y-3947250D01*
X4296500Y-4032250D01*
X4381500Y-4117250D01*
X4384000Y170000D02*
X4469000Y255000D01*
X4384000Y340000D01*
X4299000Y255000D01*
X4384000Y170000D01*
X4540250Y423000D02*
X4625250Y508000D01*
X4540250Y593000D01*
X4455250Y508000D01*
X4540250Y423000D01*
X4540250Y-7673250D02*
X4625250Y-7588250D01*
X4540250Y-7503250D01*
X4455250Y-7588250D01*
X4540250Y-7673250D01*
X4619600Y-9832250D02*
X4704600Y-9747250D01*
X4619600Y-9662250D01*
X4534600Y-9747250D01*
X4619600Y-9832250D01*
X4857750Y-6022250D02*
X4942750Y-5937250D01*
X4857750Y-5852250D01*
X4772750Y-5937250D01*
X4857750Y-6022250D01*
X4859000Y-9834000D02*
X4944000Y-9749000D01*
X4859000Y-9664000D01*
X4774000Y-9749000D01*
X4859000Y-9834000D01*
X5016500Y-3863250D02*
X5101500Y-3778250D01*
X5016500Y-3693250D01*
X4931500Y-3778250D01*
X5016500Y-3863250D01*
X5019000Y424000D02*
X5104000Y509000D01*
X5019000Y594000D01*
X4934000Y509000D01*
X5019000Y424000D01*
X5254600Y-9578250D02*
X5339600Y-9493250D01*
X5254600Y-9408250D01*
X5169600Y-9493250D01*
X5254600Y-9578250D01*
X5334000Y-2212250D02*
X5419000Y-2127250D01*
X5334000Y-2042250D01*
X5249000Y-2127250D01*
X5334000Y-2212250D01*
X5492750Y-5768250D02*
X5577750Y-5683250D01*
X5492750Y-5598250D01*
X5407750Y-5683250D01*
X5492750Y-5768250D01*
X5494000Y-9580000D02*
X5579000Y-9495000D01*
X5494000Y-9410000D01*
X5409000Y-9495000D01*
X5494000Y-9580000D01*
X5810250Y169000D02*
X5895250Y254000D01*
X5810250Y339000D01*
X5725250Y254000D01*
X5810250Y169000D01*
X5810250Y-7927250D02*
X5895250Y-7842250D01*
X5810250Y-7757250D01*
X5725250Y-7842250D01*
X5810250Y-7927250D01*
X5969000Y-1958250D02*
X6054000Y-1873250D01*
X5969000Y-1788250D01*
X5884000Y-1873250D01*
X5969000Y-1958250D01*
X6286500Y-4117250D02*
X6371500Y-4032250D01*
X6286500Y-3947250D01*
X6201500Y-4032250D01*
X6286500Y-4117250D01*
X6288000Y169000D02*
X6373000Y254000D01*
X6288000Y339000D01*
X6203000Y254000D01*
X6288000Y169000D01*
X6445250Y423000D02*
X6530250Y508000D01*
X6445250Y593000D01*
X6360250Y508000D01*
X6445250Y423000D01*
X6445250Y-7673250D02*
X6530250Y-7588250D01*
X6445250Y-7503250D01*
X6360250Y-7588250D01*
X6445250Y-7673250D01*
X6762750Y-6022250D02*
X6847750Y-5937250D01*
X6762750Y-5852250D01*
X6677750Y-5937250D01*
X6762750Y-6022250D01*
X6921500Y-3863250D02*
X7006500Y-3778250D01*
X6921500Y-3693250D01*
X6836500Y-3778250D01*
X6921500Y-3863250D01*
X6923000Y423000D02*
X7008000Y508000D01*
X6923000Y593000D01*
X6838000Y508000D01*
X6923000Y423000D01*
X7239000Y-2212250D02*
X7324000Y-2127250D01*
X7239000Y-2042250D01*
X7154000Y-2127250D01*
X7239000Y-2212250D01*
X7397750Y-5768250D02*
X7482750Y-5683250D01*
X7397750Y-5598250D01*
X7312750Y-5683250D01*
X7397750Y-5768250D01*
X7715250Y169000D02*
X7800250Y254000D01*
X7715250Y339000D01*
X7630250Y254000D01*
X7715250Y169000D01*
X7715250Y-7927250D02*
X7800250Y-7842250D01*
X7715250Y-7757250D01*
X7630250Y-7842250D01*
X7715250Y-7927250D01*
X7874000Y-1958250D02*
X7959000Y-1873250D01*
X7874000Y-1788250D01*
X7789000Y-1873250D01*
X7874000Y-1958250D01*
X8191500Y-4117250D02*
X8276500Y-4032250D01*
X8191500Y-3947250D01*
X8106500Y-4032250D01*
X8191500Y-4117250D01*
X8193000Y169000D02*
X8278000Y254000D01*
X8193000Y339000D01*
X8108000Y254000D01*
X8193000Y169000D01*
X8350250Y423000D02*
X8435250Y508000D01*
X8350250Y593000D01*
X8265250Y508000D01*
X8350250Y423000D01*
X8350250Y-7673250D02*
X8435250Y-7588250D01*
X8350250Y-7503250D01*
X8265250Y-7588250D01*
X8350250Y-7673250D01*
X8667750Y-6022250D02*
X8752750Y-5937250D01*
X8667750Y-5852250D01*
X8582750Y-5937250D01*
X8667750Y-6022250D01*
X8826500Y-3863250D02*
X8911500Y-3778250D01*
X8826500Y-3693250D01*
X8741500Y-3778250D01*
X8826500Y-3863250D01*
X8828000Y423000D02*
X8913000Y508000D01*
X8828000Y593000D01*
X8743000Y508000D01*
X8828000Y423000D01*
X9144000Y-2212250D02*
X9229000Y-2127250D01*
X9144000Y-2042250D01*
X9059000Y-2127250D01*
X9144000Y-2212250D01*
X9302750Y-5768250D02*
X9387750Y-5683250D01*
X9302750Y-5598250D01*
X9217750Y-5683250D01*
X9302750Y-5768250D01*
X9620250Y-7927250D02*
X9705250Y-7842250D01*
X9620250Y-7757250D01*
X9535250Y-7842250D01*
X9620250Y-7927250D01*
X9779000Y-1958250D02*
X9864000Y-1873250D01*
X9779000Y-1788250D01*
X9694000Y-1873250D01*
X9779000Y-1958250D01*
X10096500Y169000D02*
X10181500Y254000D01*
X10096500Y339000D01*
X10011500Y254000D01*
X10096500Y169000D01*
X10096500Y-4117250D02*
X10181500Y-4032250D01*
X10096500Y-3947250D01*
X10011500Y-4032250D01*
X10096500Y-4117250D01*
X10255250Y-7673250D02*
X10340250Y-7588250D01*
X10255250Y-7503250D01*
X10170250Y-7588250D01*
X10255250Y-7673250D01*
X10572750Y-6022250D02*
X10657750Y-5937250D01*
X10572750Y-5852250D01*
X10487750Y-5937250D01*
X10572750Y-6022250D01*
X10731500Y423000D02*
X10816500Y508000D01*
X10731500Y593000D01*
X10646500Y508000D01*
X10731500Y423000D01*
X10731500Y-3863250D02*
X10816500Y-3778250D01*
X10731500Y-3693250D01*
X10646500Y-3778250D01*
X10731500Y-3863250D01*
X11049000Y-2212250D02*
X11134000Y-2127250D01*
X11049000Y-2042250D01*
X10964000Y-2127250D01*
X11049000Y-2212250D01*
X11053000Y168000D02*
X11138000Y253000D01*
X11053000Y338000D01*
X10968000Y253000D01*
X11053000Y168000D01*
X11207750Y-5768250D02*
X11292750Y-5683250D01*
X11207750Y-5598250D01*
X11122750Y-5683250D01*
X11207750Y-5768250D01*
X11525250Y-7927250D02*
X11610250Y-7842250D01*
X11525250Y-7757250D01*
X11440250Y-7842250D01*
X11525250Y-7927250D01*
X11684000Y-1958250D02*
X11769000Y-1873250D01*
X11684000Y-1788250D01*
X11599000Y-1873250D01*
X11684000Y-1958250D01*
X11688000Y422000D02*
X11773000Y507000D01*
X11688000Y592000D01*
X11603000Y507000D01*
X11688000Y422000D01*
X11763350Y-9832250D02*
X11848350Y-9747250D01*
X11763350Y-9662250D01*
X11678350Y-9747250D01*
X11763350Y-9832250D01*
X12001500Y169000D02*
X12086500Y254000D01*
X12001500Y339000D01*
X11916500Y254000D01*
X12001500Y169000D01*
X12001500Y-4117250D02*
X12086500Y-4032250D01*
X12001500Y-3947250D01*
X11916500Y-4032250D01*
X12001500Y-4117250D01*
X12160250Y-7673250D02*
X12245250Y-7588250D01*
X12160250Y-7503250D01*
X12075250Y-7588250D01*
X12160250Y-7673250D01*
X12398350Y-9578250D02*
X12483350Y-9493250D01*
X12398350Y-9408250D01*
X12313350Y-9493250D01*
X12398350Y-9578250D01*
X12477750Y-6022250D02*
X12562750Y-5937250D01*
X12477750Y-5852250D01*
X12392750Y-5937250D01*
X12477750Y-6022250D01*
X12636500Y423000D02*
X12721500Y508000D01*
X12636500Y593000D01*
X12551500Y508000D01*
X12636500Y423000D01*
X12636500Y-3863250D02*
X12721500Y-3778250D01*
X12636500Y-3693250D01*
X12551500Y-3778250D01*
X12636500Y-3863250D01*
X12954000Y-2212250D02*
X13039000Y-2127250D01*
X12954000Y-2042250D01*
X12869000Y-2127250D01*
X12954000Y-2212250D01*
X12955000Y-9832500D02*
X13040000Y-9747500D01*
X12955000Y-9662500D01*
X12870000Y-9747500D01*
X12955000Y-9832500D01*
X12959000Y169000D02*
X13044000Y254000D01*
X12959000Y339000D01*
X12874000Y254000D01*
X12959000Y169000D01*
X13112750Y-5768250D02*
X13197750Y-5683250D01*
X13112750Y-5598250D01*
X13027750Y-5683250D01*
X13112750Y-5768250D01*
X13430250Y-7927250D02*
X13515250Y-7842250D01*
X13430250Y-7757250D01*
X13345250Y-7842250D01*
X13430250Y-7927250D01*
X13589000Y-1958250D02*
X13674000Y-1873250D01*
X13589000Y-1788250D01*
X13504000Y-1873250D01*
X13589000Y-1958250D01*
X13590000Y-9578500D02*
X13675000Y-9493500D01*
X13590000Y-9408500D01*
X13505000Y-9493500D01*
X13590000Y-9578500D01*
X13594000Y423000D02*
X13679000Y508000D01*
X13594000Y593000D01*
X13509000Y508000D01*
X13594000Y423000D01*
X13906500Y169000D02*
X13991500Y254000D01*
X13906500Y339000D01*
X13821500Y254000D01*
X13906500Y169000D01*
X13906500Y-4117250D02*
X13991500Y-4032250D01*
X13906500Y-3947250D01*
X13821500Y-4032250D01*
X13906500Y-4117250D01*
X14065250Y-7673250D02*
X14150250Y-7588250D01*
X14065250Y-7503250D01*
X13980250Y-7588250D01*
X14065250Y-7673250D01*
X14382750Y-6022250D02*
X14467750Y-5937250D01*
X14382750Y-5852250D01*
X14297750Y-5937250D01*
X14382750Y-6022250D01*
X14541500Y423000D02*
X14626500Y508000D01*
X14541500Y593000D01*
X14456500Y508000D01*
X14541500Y423000D01*
X14541500Y-3863250D02*
X14626500Y-3778250D01*
X14541500Y-3693250D01*
X14456500Y-3778250D01*
X14541500Y-3863250D01*
X14859000Y-2212250D02*
X14944000Y-2127250D01*
X14859000Y-2042250D01*
X14774000Y-2127250D01*
X14859000Y-2212250D01*
X14863000Y170000D02*
X14948000Y255000D01*
X14863000Y340000D01*
X14778000Y255000D01*
X14863000Y170000D01*
X15017750Y-5768250D02*
X15102750Y-5683250D01*
X15017750Y-5598250D01*
X14932750Y-5683250D01*
X15017750Y-5768250D01*
X15335250Y-7927250D02*
X15420250Y-7842250D01*
X15335250Y-7757250D01*
X15250250Y-7842250D01*
X15335250Y-7927250D01*
X15494000Y-1958250D02*
X15579000Y-1873250D01*
X15494000Y-1788250D01*
X15409000Y-1873250D01*
X15494000Y-1958250D01*
X15498000Y424000D02*
X15583000Y509000D01*
X15498000Y594000D01*
X15413000Y509000D01*
X15498000Y424000D01*
X15811500Y169000D02*
X15896500Y254000D01*
X15811500Y339000D01*
X15726500Y254000D01*
X15811500Y169000D01*
X15811500Y-4117250D02*
X15896500Y-4032250D01*
X15811500Y-3947250D01*
X15726500Y-4032250D01*
X15811500Y-4117250D01*
X15970250Y-7673250D02*
X16055250Y-7588250D01*
X15970250Y-7503250D01*
X15885250Y-7588250D01*
X15970250Y-7673250D01*
X16287750Y-6022250D02*
X16372750Y-5937250D01*
X16287750Y-5852250D01*
X16202750Y-5937250D01*
X16287750Y-6022250D01*
X16446500Y423000D02*
X16531500Y508000D01*
X16446500Y593000D01*
X16361500Y508000D01*
X16446500Y423000D01*
X16446500Y-3863250D02*
X16531500Y-3778250D01*
X16446500Y-3693250D01*
X16361500Y-3778250D01*
X16446500Y-3863250D01*
X16764000Y-2212250D02*
X16849000Y-2127250D01*
X16764000Y-2042250D01*
X16679000Y-2127250D01*
X16764000Y-2212250D01*
X16769000Y170000D02*
X16854000Y255000D01*
X16769000Y340000D01*
X16684000Y255000D01*
X16769000Y170000D01*
X16922750Y-5768250D02*
X17007750Y-5683250D01*
X16922750Y-5598250D01*
X16837750Y-5683250D01*
X16922750Y-5768250D01*
X17240250Y-7927250D02*
X17325250Y-7842250D01*
X17240250Y-7757250D01*
X17155250Y-7842250D01*
X17240250Y-7927250D01*
X17399000Y-1958250D02*
X17484000Y-1873250D01*
X17399000Y-1788250D01*
X17314000Y-1873250D01*
X17399000Y-1958250D01*
X17404000Y424000D02*
X17489000Y509000D01*
X17404000Y594000D01*
X17319000Y509000D01*
X17404000Y424000D01*
X17716500Y-4117250D02*
X17801500Y-4032250D01*
X17716500Y-3947250D01*
X17631500Y-4032250D01*
X17716500Y-4117250D01*
X17875250Y-7673250D02*
X17960250Y-7588250D01*
X17875250Y-7503250D01*
X17790250Y-7588250D01*
X17875250Y-7673250D01*
X18192750Y169000D02*
X18277750Y254000D01*
X18192750Y339000D01*
X18107750Y254000D01*
X18192750Y169000D01*
X18192750Y-6022250D02*
X18277750Y-5937250D01*
X18192750Y-5852250D01*
X18107750Y-5937250D01*
X18192750Y-6022250D01*
X18351500Y-3863250D02*
X18436500Y-3778250D01*
X18351500Y-3693250D01*
X18266500Y-3778250D01*
X18351500Y-3863250D01*
X18669000Y-2212250D02*
X18754000Y-2127250D01*
X18669000Y-2042250D01*
X18584000Y-2127250D01*
X18669000Y-2212250D01*
X18827750Y423000D02*
X18912750Y508000D01*
X18827750Y593000D01*
X18742750Y508000D01*
X18827750Y423000D01*
X18827750Y-5768250D02*
X18912750Y-5683250D01*
X18827750Y-5598250D01*
X18742750Y-5683250D01*
X18827750Y-5768250D01*
X18907100Y-9832250D02*
X18992100Y-9747250D01*
X18907100Y-9662250D01*
X18822100Y-9747250D01*
X18907100Y-9832250D01*
X19145250Y-7927250D02*
X19230250Y-7842250D01*
X19145250Y-7757250D01*
X19060250Y-7842250D01*
X19145250Y-7927250D01*
X19304000Y-1958250D02*
X19389000Y-1873250D01*
X19304000Y-1788250D01*
X19219000Y-1873250D01*
X19304000Y-1958250D01*
X19542100Y-9578250D02*
X19627100Y-9493250D01*
X19542100Y-9408250D01*
X19457100Y-9493250D01*
X19542100Y-9578250D01*
X19621500Y-4117250D02*
X19706500Y-4032250D01*
X19621500Y-3947250D01*
X19536500Y-4032250D01*
X19621500Y-4117250D01*
X19625000Y169000D02*
X19710000Y254000D01*
X19625000Y339000D01*
X19540000Y254000D01*
X19625000Y169000D01*
X19780250Y-7673250D02*
X19865250Y-7588250D01*
X19780250Y-7503250D01*
X19695250Y-7588250D01*
X19780250Y-7673250D01*
X20097750Y169000D02*
X20182750Y254000D01*
X20097750Y339000D01*
X20012750Y254000D01*
X20097750Y169000D01*
X20097750Y-6022250D02*
X20182750Y-5937250D01*
X20097750Y-5852250D01*
X20012750Y-5937250D01*
X20097750Y-6022250D01*
X20256500Y-3863250D02*
X20341500Y-3778250D01*
X20256500Y-3693250D01*
X20171500Y-3778250D01*
X20256500Y-3863250D01*
X20260000Y423000D02*
X20345000Y508000D01*
X20260000Y593000D01*
X20175000Y508000D01*
X20260000Y423000D01*
X20574000Y-2212250D02*
X20659000Y-2127250D01*
X20574000Y-2042250D01*
X20489000Y-2127250D01*
X20574000Y-2212250D01*
X20732750Y423000D02*
X20817750Y508000D01*
X20732750Y593000D01*
X20647750Y508000D01*
X20732750Y423000D01*
X20732750Y-5768250D02*
X20817750Y-5683250D01*
X20732750Y-5598250D01*
X20647750Y-5683250D01*
X20732750Y-5768250D01*
X21050250Y-7927250D02*
X21135250Y-7842250D01*
X21050250Y-7757250D01*
X20965250Y-7842250D01*
X21050250Y-7927250D01*
X21051000Y-9833000D02*
X21136000Y-9748000D01*
X21051000Y-9663000D01*
X20966000Y-9748000D01*
X21051000Y-9833000D01*
X21209000Y-1958250D02*
X21294000Y-1873250D01*
X21209000Y-1788250D01*
X21124000Y-1873250D01*
X21209000Y-1958250D01*
X21288350Y-9832250D02*
X21373350Y-9747250D01*
X21288350Y-9662250D01*
X21203350Y-9747250D01*
X21288350Y-9832250D01*
X21526500Y-4117250D02*
X21611500Y-4032250D01*
X21526500Y-3947250D01*
X21441500Y-4032250D01*
X21526500Y-4117250D01*
X21529000Y168000D02*
X21614000Y253000D01*
X21529000Y338000D01*
X21444000Y253000D01*
X21529000Y168000D01*
X21685250Y-7673250D02*
X21770250Y-7588250D01*
X21685250Y-7503250D01*
X21600250Y-7588250D01*
X21685250Y-7673250D01*
X21686000Y-9579000D02*
X21771000Y-9494000D01*
X21686000Y-9409000D01*
X21601000Y-9494000D01*
X21686000Y-9579000D01*
X21923350Y-9578250D02*
X22008350Y-9493250D01*
X21923350Y-9408250D01*
X21838350Y-9493250D01*
X21923350Y-9578250D01*
X22002750Y169000D02*
X22087750Y254000D01*
X22002750Y339000D01*
X21917750Y254000D01*
X22002750Y169000D01*
X22002750Y-6022250D02*
X22087750Y-5937250D01*
X22002750Y-5852250D01*
X21917750Y-5937250D01*
X22002750Y-6022250D01*
X22161500Y-3863250D02*
X22246500Y-3778250D01*
X22161500Y-3693250D01*
X22076500Y-3778250D01*
X22161500Y-3863250D01*
X22164000Y422000D02*
X22249000Y507000D01*
X22164000Y592000D01*
X22079000Y507000D01*
X22164000Y422000D01*
X22479000Y-2212250D02*
X22564000Y-2127250D01*
X22479000Y-2042250D01*
X22394000Y-2127250D01*
X22479000Y-2212250D01*
X22637750Y423000D02*
X22722750Y508000D01*
X22637750Y593000D01*
X22552750Y508000D01*
X22637750Y423000D01*
X22637750Y-5768250D02*
X22722750Y-5683250D01*
X22637750Y-5598250D01*
X22552750Y-5683250D01*
X22637750Y-5768250D01*
X23114000Y-1958250D02*
X23199000Y-1873250D01*
X23114000Y-1788250D01*
X23029000Y-1873250D01*
X23114000Y-1958250D01*
X23431500Y-4117250D02*
X23516500Y-4032250D01*
X23431500Y-3947250D01*
X23346500Y-4032250D01*
X23431500Y-4117250D01*
X23434000Y169000D02*
X23519000Y254000D01*
X23434000Y339000D01*
X23349000Y254000D01*
X23434000Y169000D01*
X23669650Y-7927250D02*
X23754650Y-7842250D01*
X23669650Y-7757250D01*
X23584650Y-7842250D01*
X23669650Y-7927250D01*
X23907750Y169000D02*
X23992750Y254000D01*
X23907750Y339000D01*
X23822750Y254000D01*
X23907750Y169000D01*
X24066500Y-3863250D02*
X24151500Y-3778250D01*
X24066500Y-3693250D01*
X23981500Y-3778250D01*
X24066500Y-3863250D01*
X24069000Y423000D02*
X24154000Y508000D01*
X24069000Y593000D01*
X23984000Y508000D01*
X24069000Y423000D01*
X24304650Y-7673250D02*
X24389650Y-7588250D01*
X24304650Y-7503250D01*
X24219650Y-7588250D01*
X24304650Y-7673250D01*
X24384000Y-2212250D02*
X24469000Y-2127250D01*
X24384000Y-2042250D01*
X24299000Y-2127250D01*
X24384000Y-2212250D01*
X24384000Y-9832250D02*
X24469000Y-9747250D01*
X24384000Y-9662250D01*
X24299000Y-9747250D01*
X24384000Y-9832250D01*
X24542750Y423000D02*
X24627750Y508000D01*
X24542750Y593000D01*
X24457750Y508000D01*
X24542750Y423000D01*
X25019000Y-1958250D02*
X25104000Y-1873250D01*
X25019000Y-1788250D01*
X24934000Y-1873250D01*
X25019000Y-1958250D01*
X25019000Y-9578250D02*
X25104000Y-9493250D01*
X25019000Y-9408250D01*
X24934000Y-9493250D01*
X25019000Y-9578250D01*
X25105810Y-6022250D02*
X25190810Y-5937250D01*
X25105810Y-5852250D01*
X25020810Y-5937250D01*
X25105810Y-6022250D01*
X25336500Y-2212250D02*
X25421500Y-2127250D01*
X25336500Y-2042250D01*
X25251500Y-2127250D01*
X25336500Y-2212250D01*
X25339000Y169000D02*
X25424000Y254000D01*
X25339000Y339000D01*
X25254000Y254000D01*
X25339000Y169000D01*
X25740810Y-5768250D02*
X25825810Y-5683250D01*
X25740810Y-5598250D01*
X25655810Y-5683250D01*
X25740810Y-5768250D01*
X25812800Y-4117250D02*
X25897800Y-4032250D01*
X25812800Y-3947250D01*
X25727800Y-4032250D01*
X25812800Y-4117250D01*
X25971500Y-1958250D02*
X26056500Y-1873250D01*
X25971500Y-1788250D01*
X25886500Y-1873250D01*
X25971500Y-1958250D01*
X25974000Y423000D02*
X26059000Y508000D01*
X25974000Y593000D01*
X25889000Y508000D01*
X25974000Y423000D01*
X26289000Y169000D02*
X26374000Y254000D01*
X26289000Y339000D01*
X26204000Y254000D01*
X26289000Y169000D01*
X26289000Y-2212250D02*
X26374000Y-2127250D01*
X26289000Y-2042250D01*
X26204000Y-2127250D01*
X26289000Y-2212250D01*
X26289000Y-7927250D02*
X26374000Y-7842250D01*
X26289000Y-7757250D01*
X26204000Y-7842250D01*
X26289000Y-7927250D01*
X26289000Y-9832250D02*
X26374000Y-9747250D01*
X26289000Y-9662250D01*
X26204000Y-9747250D01*
X26289000Y-9832250D01*
X26447800Y-3863250D02*
X26532800Y-3778250D01*
X26447800Y-3693250D01*
X26362800Y-3778250D01*
X26447800Y-3863250D01*
X26924000Y423000D02*
X27009000Y508000D01*
X26924000Y593000D01*
X26839000Y508000D01*
X26924000Y423000D01*
X26924000Y-1958250D02*
X27009000Y-1873250D01*
X26924000Y-1788250D01*
X26839000Y-1873250D01*
X26924000Y-1958250D01*
X26924000Y-7673250D02*
X27009000Y-7588250D01*
X26924000Y-7503250D01*
X26839000Y-7588250D01*
X26924000Y-7673250D01*
X26924000Y-9578250D02*
X27009000Y-9493250D01*
X26924000Y-9408250D01*
X26839000Y-9493250D01*
X26924000Y-9578250D01*
X28194000Y169000D02*
X28279000Y254000D01*
X28194000Y339000D01*
X28109000Y254000D01*
X28194000Y169000D01*
X28194000Y-2212250D02*
X28279000Y-2127250D01*
X28194000Y-2042250D01*
X28109000Y-2127250D01*
X28194000Y-2212250D01*
X28194000Y-4117250D02*
X28279000Y-4032250D01*
X28194000Y-3947250D01*
X28109000Y-4032250D01*
X28194000Y-4117250D01*
X28194000Y-6022250D02*
X28279000Y-5937250D01*
X28194000Y-5852250D01*
X28109000Y-5937250D01*
X28194000Y-6022250D01*
X28194000Y-7927250D02*
X28279000Y-7842250D01*
X28194000Y-7757250D01*
X28109000Y-7842250D01*
X28194000Y-7927250D01*
X28194000Y-9832250D02*
X28279000Y-9747250D01*
X28194000Y-9662250D01*
X28109000Y-9747250D01*
X28194000Y-9832250D01*
X28829000Y423000D02*
X28914000Y508000D01*
X28829000Y593000D01*
X28744000Y508000D01*
X28829000Y423000D01*
X28829000Y-1958250D02*
X28914000Y-1873250D01*
X28829000Y-1788250D01*
X28744000Y-1873250D01*
X28829000Y-1958250D01*
X28829000Y-3863250D02*
X28914000Y-3778250D01*
X28829000Y-3693250D01*
X28744000Y-3778250D01*
X28829000Y-3863250D01*
X28829000Y-5768250D02*
X28914000Y-5683250D01*
X28829000Y-5598250D01*
X28744000Y-5683250D01*
X28829000Y-5768250D01*
X28829000Y-7673250D02*
X28914000Y-7588250D01*
X28829000Y-7503250D01*
X28744000Y-7588250D01*
X28829000Y-7673250D01*
X28829000Y-9578250D02*
X28914000Y-9493250D01*
X28829000Y-9408250D01*
X28744000Y-9493250D01*
X28829000Y-9578250D01*
D11*
X-461723Y-11193984D02*
X-461723Y-10993984D01*
X-461723Y-10993984D02*
X-414104Y-10993984D01*
X-414104Y-10993984D02*
X-385533Y-11003508D01*
X-385533Y-11003508D02*
X-366485Y-11022555D01*
X-366485Y-11022555D02*
X-356961Y-11041603D01*
X-356961Y-11041603D02*
X-347437Y-11079698D01*
X-347437Y-11079698D02*
X-347437Y-11108270D01*
X-347437Y-11108270D02*
X-356961Y-11146365D01*
X-356961Y-11146365D02*
X-366485Y-11165412D01*
X-366485Y-11165412D02*
X-385533Y-11184460D01*
X-385533Y-11184460D02*
X-414104Y-11193984D01*
X-414104Y-11193984D02*
X-461723Y-11193984D01*
X-261723Y-11193984D02*
X-261723Y-11060650D01*
X-261723Y-11098746D02*
X-252199Y-11079698D01*
X-252199Y-11079698D02*
X-242675Y-11070174D01*
X-242675Y-11070174D02*
X-223628Y-11060650D01*
X-223628Y-11060650D02*
X-204580Y-11060650D01*
X-137914Y-11193984D02*
X-137914Y-11060650D01*
X-137914Y-10993984D02*
X-147437Y-11003508D01*
X-147437Y-11003508D02*
X-137914Y-11013031D01*
X-137914Y-11013031D02*
X-128390Y-11003508D01*
X-128390Y-11003508D02*
X-137914Y-10993984D01*
X-137914Y-10993984D02*
X-137914Y-11013031D01*
X-14104Y-11193984D02*
X-33152Y-11184460D01*
X-33152Y-11184460D02*
X-42676Y-11165412D01*
X-42676Y-11165412D02*
X-42676Y-10993984D01*
X90658Y-11193984D02*
X71610Y-11184460D01*
X71610Y-11184460D02*
X62086Y-11165412D01*
X62086Y-11165412D02*
X62086Y-10993984D01*
X319229Y-11193984D02*
X319229Y-10993984D01*
X319229Y-10993984D02*
X385896Y-11136841D01*
X385896Y-11136841D02*
X452562Y-10993984D01*
X452562Y-10993984D02*
X452562Y-11193984D01*
X633515Y-11193984D02*
X633515Y-11089222D01*
X633515Y-11089222D02*
X623991Y-11070174D01*
X623991Y-11070174D02*
X604944Y-11060650D01*
X604944Y-11060650D02*
X566848Y-11060650D01*
X566848Y-11060650D02*
X547801Y-11070174D01*
X633515Y-11184460D02*
X614467Y-11193984D01*
X614467Y-11193984D02*
X566848Y-11193984D01*
X566848Y-11193984D02*
X547801Y-11184460D01*
X547801Y-11184460D02*
X538277Y-11165412D01*
X538277Y-11165412D02*
X538277Y-11146365D01*
X538277Y-11146365D02*
X547801Y-11127317D01*
X547801Y-11127317D02*
X566848Y-11117793D01*
X566848Y-11117793D02*
X614467Y-11117793D01*
X614467Y-11117793D02*
X633515Y-11108270D01*
X728753Y-11060650D02*
X728753Y-11260650D01*
X728753Y-11070174D02*
X747801Y-11060650D01*
X747801Y-11060650D02*
X785896Y-11060650D01*
X785896Y-11060650D02*
X804943Y-11070174D01*
X804943Y-11070174D02*
X814467Y-11079698D01*
X814467Y-11079698D02*
X823991Y-11098746D01*
X823991Y-11098746D02*
X823991Y-11155889D01*
X823991Y-11155889D02*
X814467Y-11174936D01*
X814467Y-11174936D02*
X804943Y-11184460D01*
X804943Y-11184460D02*
X785896Y-11193984D01*
X785896Y-11193984D02*
X747801Y-11193984D01*
X747801Y-11193984D02*
X728753Y-11184460D01*
X909705Y-11174936D02*
X919229Y-11184460D01*
X919229Y-11184460D02*
X909705Y-11193984D01*
X909705Y-11193984D02*
X900182Y-11184460D01*
X900182Y-11184460D02*
X909705Y-11174936D01*
X909705Y-11174936D02*
X909705Y-11193984D01*
X909705Y-11070174D02*
X919229Y-11079698D01*
X919229Y-11079698D02*
X909705Y-11089222D01*
X909705Y-11089222D02*
X900182Y-11079698D01*
X900182Y-11079698D02*
X909705Y-11070174D01*
X909705Y-11070174D02*
X909705Y-11089222D01*
D12*
X-752500Y-11507500D02*
X-722500Y-11537500D01*
X-722500Y-11507500D02*
X-752500Y-11537500D01*
D11*
X-423628Y-11413984D02*
X-404580Y-11413984D01*
X-404580Y-11413984D02*
X-385533Y-11423508D01*
X-385533Y-11423508D02*
X-376009Y-11433031D01*
X-376009Y-11433031D02*
X-366485Y-11452079D01*
X-366485Y-11452079D02*
X-356961Y-11490174D01*
X-356961Y-11490174D02*
X-356961Y-11537793D01*
X-356961Y-11537793D02*
X-366485Y-11575888D01*
X-366485Y-11575888D02*
X-376009Y-11594936D01*
X-376009Y-11594936D02*
X-385533Y-11604460D01*
X-385533Y-11604460D02*
X-404580Y-11613984D01*
X-404580Y-11613984D02*
X-423628Y-11613984D01*
X-423628Y-11613984D02*
X-442675Y-11604460D01*
X-442675Y-11604460D02*
X-452199Y-11594936D01*
X-452199Y-11594936D02*
X-461723Y-11575888D01*
X-461723Y-11575888D02*
X-471247Y-11537793D01*
X-471247Y-11537793D02*
X-471247Y-11490174D01*
X-471247Y-11490174D02*
X-461723Y-11452079D01*
X-461723Y-11452079D02*
X-452199Y-11433031D01*
X-452199Y-11433031D02*
X-442675Y-11423508D01*
X-442675Y-11423508D02*
X-423628Y-11413984D01*
X-271247Y-11594936D02*
X-261723Y-11604460D01*
X-261723Y-11604460D02*
X-271247Y-11613984D01*
X-271247Y-11613984D02*
X-280771Y-11604460D01*
X-280771Y-11604460D02*
X-271247Y-11594936D01*
X-271247Y-11594936D02*
X-271247Y-11613984D01*
X-195056Y-11413984D02*
X-71247Y-11413984D01*
X-71247Y-11413984D02*
X-137914Y-11490174D01*
X-137914Y-11490174D02*
X-109342Y-11490174D01*
X-109342Y-11490174D02*
X-90294Y-11499698D01*
X-90294Y-11499698D02*
X-80771Y-11509222D01*
X-80771Y-11509222D02*
X-71247Y-11528269D01*
X-71247Y-11528269D02*
X-71247Y-11575888D01*
X-71247Y-11575888D02*
X-80771Y-11594936D01*
X-80771Y-11594936D02*
X-90294Y-11604460D01*
X-90294Y-11604460D02*
X-109342Y-11613984D01*
X-109342Y-11613984D02*
X-166485Y-11613984D01*
X-166485Y-11613984D02*
X-185533Y-11604460D01*
X-185533Y-11604460D02*
X-195056Y-11594936D01*
X52562Y-11413984D02*
X71610Y-11413984D01*
X71610Y-11413984D02*
X90658Y-11423508D01*
X90658Y-11423508D02*
X100182Y-11433031D01*
X100182Y-11433031D02*
X109705Y-11452079D01*
X109705Y-11452079D02*
X119229Y-11490174D01*
X119229Y-11490174D02*
X119229Y-11537793D01*
X119229Y-11537793D02*
X109705Y-11575888D01*
X109705Y-11575888D02*
X100182Y-11594936D01*
X100182Y-11594936D02*
X90658Y-11604460D01*
X90658Y-11604460D02*
X71610Y-11613984D01*
X71610Y-11613984D02*
X52562Y-11613984D01*
X52562Y-11613984D02*
X33515Y-11604460D01*
X33515Y-11604460D02*
X23991Y-11594936D01*
X23991Y-11594936D02*
X14467Y-11575888D01*
X14467Y-11575888D02*
X4944Y-11537793D01*
X4944Y-11537793D02*
X4944Y-11490174D01*
X4944Y-11490174D02*
X14467Y-11452079D01*
X14467Y-11452079D02*
X23991Y-11433031D01*
X23991Y-11433031D02*
X33515Y-11423508D01*
X33515Y-11423508D02*
X52562Y-11413984D01*
X243039Y-11413984D02*
X262086Y-11413984D01*
X262086Y-11413984D02*
X281134Y-11423508D01*
X281134Y-11423508D02*
X290658Y-11433031D01*
X290658Y-11433031D02*
X300182Y-11452079D01*
X300182Y-11452079D02*
X309705Y-11490174D01*
X309705Y-11490174D02*
X309705Y-11537793D01*
X309705Y-11537793D02*
X300182Y-11575888D01*
X300182Y-11575888D02*
X290658Y-11594936D01*
X290658Y-11594936D02*
X281134Y-11604460D01*
X281134Y-11604460D02*
X262086Y-11613984D01*
X262086Y-11613984D02*
X243039Y-11613984D01*
X243039Y-11613984D02*
X223991Y-11604460D01*
X223991Y-11604460D02*
X214467Y-11594936D01*
X214467Y-11594936D02*
X204943Y-11575888D01*
X204943Y-11575888D02*
X195420Y-11537793D01*
X195420Y-11537793D02*
X195420Y-11490174D01*
X195420Y-11490174D02*
X204943Y-11452079D01*
X204943Y-11452079D02*
X214467Y-11433031D01*
X214467Y-11433031D02*
X223991Y-11423508D01*
X223991Y-11423508D02*
X243039Y-11413984D01*
X395420Y-11613984D02*
X395420Y-11480650D01*
X395420Y-11499698D02*
X404943Y-11490174D01*
X404943Y-11490174D02*
X423991Y-11480650D01*
X423991Y-11480650D02*
X452563Y-11480650D01*
X452563Y-11480650D02*
X471610Y-11490174D01*
X471610Y-11490174D02*
X481134Y-11509222D01*
X481134Y-11509222D02*
X481134Y-11613984D01*
X481134Y-11509222D02*
X490658Y-11490174D01*
X490658Y-11490174D02*
X509705Y-11480650D01*
X509705Y-11480650D02*
X538277Y-11480650D01*
X538277Y-11480650D02*
X557325Y-11490174D01*
X557325Y-11490174D02*
X566848Y-11509222D01*
X566848Y-11509222D02*
X566848Y-11613984D01*
X662086Y-11613984D02*
X662086Y-11480650D01*
X662086Y-11499698D02*
X671610Y-11490174D01*
X671610Y-11490174D02*
X690658Y-11480650D01*
X690658Y-11480650D02*
X719229Y-11480650D01*
X719229Y-11480650D02*
X738277Y-11490174D01*
X738277Y-11490174D02*
X747801Y-11509222D01*
X747801Y-11509222D02*
X747801Y-11613984D01*
X747801Y-11509222D02*
X757324Y-11490174D01*
X757324Y-11490174D02*
X776372Y-11480650D01*
X776372Y-11480650D02*
X804943Y-11480650D01*
X804943Y-11480650D02*
X823991Y-11490174D01*
X823991Y-11490174D02*
X833515Y-11509222D01*
X833515Y-11509222D02*
X833515Y-11613984D01*
X1223991Y-11404460D02*
X1052563Y-11661603D01*
X1481134Y-11413984D02*
X1500182Y-11413984D01*
X1500182Y-11413984D02*
X1519229Y-11423508D01*
X1519229Y-11423508D02*
X1528753Y-11433031D01*
X1528753Y-11433031D02*
X1538277Y-11452079D01*
X1538277Y-11452079D02*
X1547801Y-11490174D01*
X1547801Y-11490174D02*
X1547801Y-11537793D01*
X1547801Y-11537793D02*
X1538277Y-11575888D01*
X1538277Y-11575888D02*
X1528753Y-11594936D01*
X1528753Y-11594936D02*
X1519229Y-11604460D01*
X1519229Y-11604460D02*
X1500182Y-11613984D01*
X1500182Y-11613984D02*
X1481134Y-11613984D01*
X1481134Y-11613984D02*
X1462086Y-11604460D01*
X1462086Y-11604460D02*
X1452563Y-11594936D01*
X1452563Y-11594936D02*
X1443039Y-11575888D01*
X1443039Y-11575888D02*
X1433515Y-11537793D01*
X1433515Y-11537793D02*
X1433515Y-11490174D01*
X1433515Y-11490174D02*
X1443039Y-11452079D01*
X1443039Y-11452079D02*
X1452563Y-11433031D01*
X1452563Y-11433031D02*
X1462086Y-11423508D01*
X1462086Y-11423508D02*
X1481134Y-11413984D01*
X1633515Y-11594936D02*
X1643039Y-11604460D01*
X1643039Y-11604460D02*
X1633515Y-11613984D01*
X1633515Y-11613984D02*
X1623991Y-11604460D01*
X1623991Y-11604460D02*
X1633515Y-11594936D01*
X1633515Y-11594936D02*
X1633515Y-11613984D01*
X1766848Y-11413984D02*
X1785896Y-11413984D01*
X1785896Y-11413984D02*
X1804944Y-11423508D01*
X1804944Y-11423508D02*
X1814467Y-11433031D01*
X1814467Y-11433031D02*
X1823991Y-11452079D01*
X1823991Y-11452079D02*
X1833515Y-11490174D01*
X1833515Y-11490174D02*
X1833515Y-11537793D01*
X1833515Y-11537793D02*
X1823991Y-11575888D01*
X1823991Y-11575888D02*
X1814467Y-11594936D01*
X1814467Y-11594936D02*
X1804944Y-11604460D01*
X1804944Y-11604460D02*
X1785896Y-11613984D01*
X1785896Y-11613984D02*
X1766848Y-11613984D01*
X1766848Y-11613984D02*
X1747801Y-11604460D01*
X1747801Y-11604460D02*
X1738277Y-11594936D01*
X1738277Y-11594936D02*
X1728753Y-11575888D01*
X1728753Y-11575888D02*
X1719229Y-11537793D01*
X1719229Y-11537793D02*
X1719229Y-11490174D01*
X1719229Y-11490174D02*
X1728753Y-11452079D01*
X1728753Y-11452079D02*
X1738277Y-11433031D01*
X1738277Y-11433031D02*
X1747801Y-11423508D01*
X1747801Y-11423508D02*
X1766848Y-11413984D01*
X2023991Y-11613984D02*
X1909706Y-11613984D01*
X1966848Y-11613984D02*
X1966848Y-11413984D01*
X1966848Y-11413984D02*
X1947801Y-11442555D01*
X1947801Y-11442555D02*
X1928753Y-11461603D01*
X1928753Y-11461603D02*
X1909706Y-11471127D01*
X2214468Y-11613984D02*
X2100182Y-11613984D01*
X2157325Y-11613984D02*
X2157325Y-11413984D01*
X2157325Y-11413984D02*
X2138277Y-11442555D01*
X2138277Y-11442555D02*
X2119229Y-11461603D01*
X2119229Y-11461603D02*
X2100182Y-11471127D01*
X2328753Y-11499698D02*
X2309706Y-11490174D01*
X2309706Y-11490174D02*
X2300182Y-11480650D01*
X2300182Y-11480650D02*
X2290658Y-11461603D01*
X2290658Y-11461603D02*
X2290658Y-11452079D01*
X2290658Y-11452079D02*
X2300182Y-11433031D01*
X2300182Y-11433031D02*
X2309706Y-11423508D01*
X2309706Y-11423508D02*
X2328753Y-11413984D01*
X2328753Y-11413984D02*
X2366849Y-11413984D01*
X2366849Y-11413984D02*
X2385896Y-11423508D01*
X2385896Y-11423508D02*
X2395420Y-11433031D01*
X2395420Y-11433031D02*
X2404944Y-11452079D01*
X2404944Y-11452079D02*
X2404944Y-11461603D01*
X2404944Y-11461603D02*
X2395420Y-11480650D01*
X2395420Y-11480650D02*
X2385896Y-11490174D01*
X2385896Y-11490174D02*
X2366849Y-11499698D01*
X2366849Y-11499698D02*
X2328753Y-11499698D01*
X2328753Y-11499698D02*
X2309706Y-11509222D01*
X2309706Y-11509222D02*
X2300182Y-11518746D01*
X2300182Y-11518746D02*
X2290658Y-11537793D01*
X2290658Y-11537793D02*
X2290658Y-11575888D01*
X2290658Y-11575888D02*
X2300182Y-11594936D01*
X2300182Y-11594936D02*
X2309706Y-11604460D01*
X2309706Y-11604460D02*
X2328753Y-11613984D01*
X2328753Y-11613984D02*
X2366849Y-11613984D01*
X2366849Y-11613984D02*
X2385896Y-11604460D01*
X2385896Y-11604460D02*
X2395420Y-11594936D01*
X2395420Y-11594936D02*
X2404944Y-11575888D01*
X2404944Y-11575888D02*
X2404944Y-11537793D01*
X2404944Y-11537793D02*
X2395420Y-11518746D01*
X2395420Y-11518746D02*
X2385896Y-11509222D01*
X2385896Y-11509222D02*
X2366849Y-11499698D01*
X2481134Y-11413984D02*
X2481134Y-11452079D01*
X2557325Y-11413984D02*
X2557325Y-11452079D01*
X2852563Y-11690174D02*
X2843039Y-11680650D01*
X2843039Y-11680650D02*
X2823991Y-11652079D01*
X2823991Y-11652079D02*
X2814468Y-11633031D01*
X2814468Y-11633031D02*
X2804944Y-11604460D01*
X2804944Y-11604460D02*
X2795420Y-11556841D01*
X2795420Y-11556841D02*
X2795420Y-11518746D01*
X2795420Y-11518746D02*
X2804944Y-11471127D01*
X2804944Y-11471127D02*
X2814468Y-11442555D01*
X2814468Y-11442555D02*
X2823991Y-11423508D01*
X2823991Y-11423508D02*
X2843039Y-11394936D01*
X2843039Y-11394936D02*
X2852563Y-11385412D01*
X3023991Y-11413984D02*
X2928753Y-11413984D01*
X2928753Y-11413984D02*
X2919229Y-11509222D01*
X2919229Y-11509222D02*
X2928753Y-11499698D01*
X2928753Y-11499698D02*
X2947801Y-11490174D01*
X2947801Y-11490174D02*
X2995420Y-11490174D01*
X2995420Y-11490174D02*
X3014468Y-11499698D01*
X3014468Y-11499698D02*
X3023991Y-11509222D01*
X3023991Y-11509222D02*
X3033515Y-11528269D01*
X3033515Y-11528269D02*
X3033515Y-11575888D01*
X3033515Y-11575888D02*
X3023991Y-11594936D01*
X3023991Y-11594936D02*
X3014468Y-11604460D01*
X3014468Y-11604460D02*
X2995420Y-11613984D01*
X2995420Y-11613984D02*
X2947801Y-11613984D01*
X2947801Y-11613984D02*
X2928753Y-11604460D01*
X2928753Y-11604460D02*
X2919229Y-11594936D01*
X3128753Y-11613984D02*
X3166848Y-11613984D01*
X3166848Y-11613984D02*
X3185896Y-11604460D01*
X3185896Y-11604460D02*
X3195420Y-11594936D01*
X3195420Y-11594936D02*
X3214468Y-11566365D01*
X3214468Y-11566365D02*
X3223991Y-11528269D01*
X3223991Y-11528269D02*
X3223991Y-11452079D01*
X3223991Y-11452079D02*
X3214468Y-11433031D01*
X3214468Y-11433031D02*
X3204944Y-11423508D01*
X3204944Y-11423508D02*
X3185896Y-11413984D01*
X3185896Y-11413984D02*
X3147801Y-11413984D01*
X3147801Y-11413984D02*
X3128753Y-11423508D01*
X3128753Y-11423508D02*
X3119229Y-11433031D01*
X3119229Y-11433031D02*
X3109706Y-11452079D01*
X3109706Y-11452079D02*
X3109706Y-11499698D01*
X3109706Y-11499698D02*
X3119229Y-11518746D01*
X3119229Y-11518746D02*
X3128753Y-11528269D01*
X3128753Y-11528269D02*
X3147801Y-11537793D01*
X3147801Y-11537793D02*
X3185896Y-11537793D01*
X3185896Y-11537793D02*
X3204944Y-11528269D01*
X3204944Y-11528269D02*
X3214468Y-11518746D01*
X3214468Y-11518746D02*
X3223991Y-11499698D01*
X3290658Y-11413984D02*
X3423991Y-11413984D01*
X3423991Y-11413984D02*
X3338277Y-11613984D01*
X3652563Y-11613984D02*
X3652563Y-11413984D01*
X3738277Y-11613984D02*
X3738277Y-11509222D01*
X3738277Y-11509222D02*
X3728753Y-11490174D01*
X3728753Y-11490174D02*
X3709706Y-11480650D01*
X3709706Y-11480650D02*
X3681134Y-11480650D01*
X3681134Y-11480650D02*
X3662087Y-11490174D01*
X3662087Y-11490174D02*
X3652563Y-11499698D01*
X3862087Y-11613984D02*
X3843039Y-11604460D01*
X3843039Y-11604460D02*
X3833515Y-11594936D01*
X3833515Y-11594936D02*
X3823991Y-11575888D01*
X3823991Y-11575888D02*
X3823991Y-11518746D01*
X3823991Y-11518746D02*
X3833515Y-11499698D01*
X3833515Y-11499698D02*
X3843039Y-11490174D01*
X3843039Y-11490174D02*
X3862087Y-11480650D01*
X3862087Y-11480650D02*
X3890658Y-11480650D01*
X3890658Y-11480650D02*
X3909706Y-11490174D01*
X3909706Y-11490174D02*
X3919230Y-11499698D01*
X3919230Y-11499698D02*
X3928753Y-11518746D01*
X3928753Y-11518746D02*
X3928753Y-11575888D01*
X3928753Y-11575888D02*
X3919230Y-11594936D01*
X3919230Y-11594936D02*
X3909706Y-11604460D01*
X3909706Y-11604460D02*
X3890658Y-11613984D01*
X3890658Y-11613984D02*
X3862087Y-11613984D01*
X4043039Y-11613984D02*
X4023991Y-11604460D01*
X4023991Y-11604460D02*
X4014468Y-11585412D01*
X4014468Y-11585412D02*
X4014468Y-11413984D01*
X4195420Y-11604460D02*
X4176372Y-11613984D01*
X4176372Y-11613984D02*
X4138277Y-11613984D01*
X4138277Y-11613984D02*
X4119230Y-11604460D01*
X4119230Y-11604460D02*
X4109706Y-11585412D01*
X4109706Y-11585412D02*
X4109706Y-11509222D01*
X4109706Y-11509222D02*
X4119230Y-11490174D01*
X4119230Y-11490174D02*
X4138277Y-11480650D01*
X4138277Y-11480650D02*
X4176372Y-11480650D01*
X4176372Y-11480650D02*
X4195420Y-11490174D01*
X4195420Y-11490174D02*
X4204944Y-11509222D01*
X4204944Y-11509222D02*
X4204944Y-11528269D01*
X4204944Y-11528269D02*
X4109706Y-11547317D01*
X4281134Y-11604460D02*
X4300182Y-11613984D01*
X4300182Y-11613984D02*
X4338277Y-11613984D01*
X4338277Y-11613984D02*
X4357325Y-11604460D01*
X4357325Y-11604460D02*
X4366849Y-11585412D01*
X4366849Y-11585412D02*
X4366849Y-11575888D01*
X4366849Y-11575888D02*
X4357325Y-11556841D01*
X4357325Y-11556841D02*
X4338277Y-11547317D01*
X4338277Y-11547317D02*
X4309706Y-11547317D01*
X4309706Y-11547317D02*
X4290658Y-11537793D01*
X4290658Y-11537793D02*
X4281134Y-11518746D01*
X4281134Y-11518746D02*
X4281134Y-11509222D01*
X4281134Y-11509222D02*
X4290658Y-11490174D01*
X4290658Y-11490174D02*
X4309706Y-11480650D01*
X4309706Y-11480650D02*
X4338277Y-11480650D01*
X4338277Y-11480650D02*
X4357325Y-11490174D01*
X4433515Y-11690174D02*
X4443039Y-11680650D01*
X4443039Y-11680650D02*
X4462087Y-11652079D01*
X4462087Y-11652079D02*
X4471611Y-11633031D01*
X4471611Y-11633031D02*
X4481134Y-11604460D01*
X4481134Y-11604460D02*
X4490658Y-11556841D01*
X4490658Y-11556841D02*
X4490658Y-11518746D01*
X4490658Y-11518746D02*
X4481134Y-11471127D01*
X4481134Y-11471127D02*
X4471611Y-11442555D01*
X4471611Y-11442555D02*
X4462087Y-11423508D01*
X4462087Y-11423508D02*
X4443039Y-11394936D01*
X4443039Y-11394936D02*
X4433515Y-11385412D01*
D12*
X-722500Y-11786500D02*
G75*
G02*
X-752500Y-11786500I-15000J0D01*
G01*
X-752500Y-11786500D02*
G75*
G02*
X-722500Y-11786500I15000J0D01*
G01*
D11*
X-423628Y-11677984D02*
X-404580Y-11677984D01*
X-404580Y-11677984D02*
X-385533Y-11687508D01*
X-385533Y-11687508D02*
X-376009Y-11697031D01*
X-376009Y-11697031D02*
X-366485Y-11716079D01*
X-366485Y-11716079D02*
X-356961Y-11754174D01*
X-356961Y-11754174D02*
X-356961Y-11801793D01*
X-356961Y-11801793D02*
X-366485Y-11839888D01*
X-366485Y-11839888D02*
X-376009Y-11858936D01*
X-376009Y-11858936D02*
X-385533Y-11868460D01*
X-385533Y-11868460D02*
X-404580Y-11877984D01*
X-404580Y-11877984D02*
X-423628Y-11877984D01*
X-423628Y-11877984D02*
X-442675Y-11868460D01*
X-442675Y-11868460D02*
X-452199Y-11858936D01*
X-452199Y-11858936D02*
X-461723Y-11839888D01*
X-461723Y-11839888D02*
X-471247Y-11801793D01*
X-471247Y-11801793D02*
X-471247Y-11754174D01*
X-471247Y-11754174D02*
X-461723Y-11716079D01*
X-461723Y-11716079D02*
X-452199Y-11697031D01*
X-452199Y-11697031D02*
X-442675Y-11687508D01*
X-442675Y-11687508D02*
X-423628Y-11677984D01*
X-271247Y-11858936D02*
X-261723Y-11868460D01*
X-261723Y-11868460D02*
X-271247Y-11877984D01*
X-271247Y-11877984D02*
X-280771Y-11868460D01*
X-280771Y-11868460D02*
X-271247Y-11858936D01*
X-271247Y-11858936D02*
X-271247Y-11877984D01*
X-195056Y-11677984D02*
X-71247Y-11677984D01*
X-71247Y-11677984D02*
X-137914Y-11754174D01*
X-137914Y-11754174D02*
X-109342Y-11754174D01*
X-109342Y-11754174D02*
X-90294Y-11763698D01*
X-90294Y-11763698D02*
X-80771Y-11773222D01*
X-80771Y-11773222D02*
X-71247Y-11792269D01*
X-71247Y-11792269D02*
X-71247Y-11839888D01*
X-71247Y-11839888D02*
X-80771Y-11858936D01*
X-80771Y-11858936D02*
X-90294Y-11868460D01*
X-90294Y-11868460D02*
X-109342Y-11877984D01*
X-109342Y-11877984D02*
X-166485Y-11877984D01*
X-166485Y-11877984D02*
X-185533Y-11868460D01*
X-185533Y-11868460D02*
X-195056Y-11858936D01*
X52562Y-11677984D02*
X71610Y-11677984D01*
X71610Y-11677984D02*
X90658Y-11687508D01*
X90658Y-11687508D02*
X100182Y-11697031D01*
X100182Y-11697031D02*
X109705Y-11716079D01*
X109705Y-11716079D02*
X119229Y-11754174D01*
X119229Y-11754174D02*
X119229Y-11801793D01*
X119229Y-11801793D02*
X109705Y-11839888D01*
X109705Y-11839888D02*
X100182Y-11858936D01*
X100182Y-11858936D02*
X90658Y-11868460D01*
X90658Y-11868460D02*
X71610Y-11877984D01*
X71610Y-11877984D02*
X52562Y-11877984D01*
X52562Y-11877984D02*
X33515Y-11868460D01*
X33515Y-11868460D02*
X23991Y-11858936D01*
X23991Y-11858936D02*
X14467Y-11839888D01*
X14467Y-11839888D02*
X4944Y-11801793D01*
X4944Y-11801793D02*
X4944Y-11754174D01*
X4944Y-11754174D02*
X14467Y-11716079D01*
X14467Y-11716079D02*
X23991Y-11697031D01*
X23991Y-11697031D02*
X33515Y-11687508D01*
X33515Y-11687508D02*
X52562Y-11677984D01*
X243039Y-11677984D02*
X262086Y-11677984D01*
X262086Y-11677984D02*
X281134Y-11687508D01*
X281134Y-11687508D02*
X290658Y-11697031D01*
X290658Y-11697031D02*
X300182Y-11716079D01*
X300182Y-11716079D02*
X309705Y-11754174D01*
X309705Y-11754174D02*
X309705Y-11801793D01*
X309705Y-11801793D02*
X300182Y-11839888D01*
X300182Y-11839888D02*
X290658Y-11858936D01*
X290658Y-11858936D02*
X281134Y-11868460D01*
X281134Y-11868460D02*
X262086Y-11877984D01*
X262086Y-11877984D02*
X243039Y-11877984D01*
X243039Y-11877984D02*
X223991Y-11868460D01*
X223991Y-11868460D02*
X214467Y-11858936D01*
X214467Y-11858936D02*
X204943Y-11839888D01*
X204943Y-11839888D02*
X195420Y-11801793D01*
X195420Y-11801793D02*
X195420Y-11754174D01*
X195420Y-11754174D02*
X204943Y-11716079D01*
X204943Y-11716079D02*
X214467Y-11697031D01*
X214467Y-11697031D02*
X223991Y-11687508D01*
X223991Y-11687508D02*
X243039Y-11677984D01*
X395420Y-11877984D02*
X395420Y-11744650D01*
X395420Y-11763698D02*
X404943Y-11754174D01*
X404943Y-11754174D02*
X423991Y-11744650D01*
X423991Y-11744650D02*
X452563Y-11744650D01*
X452563Y-11744650D02*
X471610Y-11754174D01*
X471610Y-11754174D02*
X481134Y-11773222D01*
X481134Y-11773222D02*
X481134Y-11877984D01*
X481134Y-11773222D02*
X490658Y-11754174D01*
X490658Y-11754174D02*
X509705Y-11744650D01*
X509705Y-11744650D02*
X538277Y-11744650D01*
X538277Y-11744650D02*
X557325Y-11754174D01*
X557325Y-11754174D02*
X566848Y-11773222D01*
X566848Y-11773222D02*
X566848Y-11877984D01*
X662086Y-11877984D02*
X662086Y-11744650D01*
X662086Y-11763698D02*
X671610Y-11754174D01*
X671610Y-11754174D02*
X690658Y-11744650D01*
X690658Y-11744650D02*
X719229Y-11744650D01*
X719229Y-11744650D02*
X738277Y-11754174D01*
X738277Y-11754174D02*
X747801Y-11773222D01*
X747801Y-11773222D02*
X747801Y-11877984D01*
X747801Y-11773222D02*
X757324Y-11754174D01*
X757324Y-11754174D02*
X776372Y-11744650D01*
X776372Y-11744650D02*
X804943Y-11744650D01*
X804943Y-11744650D02*
X823991Y-11754174D01*
X823991Y-11754174D02*
X833515Y-11773222D01*
X833515Y-11773222D02*
X833515Y-11877984D01*
X1223991Y-11668460D02*
X1052563Y-11925603D01*
X1481134Y-11677984D02*
X1500182Y-11677984D01*
X1500182Y-11677984D02*
X1519229Y-11687508D01*
X1519229Y-11687508D02*
X1528753Y-11697031D01*
X1528753Y-11697031D02*
X1538277Y-11716079D01*
X1538277Y-11716079D02*
X1547801Y-11754174D01*
X1547801Y-11754174D02*
X1547801Y-11801793D01*
X1547801Y-11801793D02*
X1538277Y-11839888D01*
X1538277Y-11839888D02*
X1528753Y-11858936D01*
X1528753Y-11858936D02*
X1519229Y-11868460D01*
X1519229Y-11868460D02*
X1500182Y-11877984D01*
X1500182Y-11877984D02*
X1481134Y-11877984D01*
X1481134Y-11877984D02*
X1462086Y-11868460D01*
X1462086Y-11868460D02*
X1452563Y-11858936D01*
X1452563Y-11858936D02*
X1443039Y-11839888D01*
X1443039Y-11839888D02*
X1433515Y-11801793D01*
X1433515Y-11801793D02*
X1433515Y-11754174D01*
X1433515Y-11754174D02*
X1443039Y-11716079D01*
X1443039Y-11716079D02*
X1452563Y-11697031D01*
X1452563Y-11697031D02*
X1462086Y-11687508D01*
X1462086Y-11687508D02*
X1481134Y-11677984D01*
X1633515Y-11858936D02*
X1643039Y-11868460D01*
X1643039Y-11868460D02*
X1633515Y-11877984D01*
X1633515Y-11877984D02*
X1623991Y-11868460D01*
X1623991Y-11868460D02*
X1633515Y-11858936D01*
X1633515Y-11858936D02*
X1633515Y-11877984D01*
X1766848Y-11677984D02*
X1785896Y-11677984D01*
X1785896Y-11677984D02*
X1804944Y-11687508D01*
X1804944Y-11687508D02*
X1814467Y-11697031D01*
X1814467Y-11697031D02*
X1823991Y-11716079D01*
X1823991Y-11716079D02*
X1833515Y-11754174D01*
X1833515Y-11754174D02*
X1833515Y-11801793D01*
X1833515Y-11801793D02*
X1823991Y-11839888D01*
X1823991Y-11839888D02*
X1814467Y-11858936D01*
X1814467Y-11858936D02*
X1804944Y-11868460D01*
X1804944Y-11868460D02*
X1785896Y-11877984D01*
X1785896Y-11877984D02*
X1766848Y-11877984D01*
X1766848Y-11877984D02*
X1747801Y-11868460D01*
X1747801Y-11868460D02*
X1738277Y-11858936D01*
X1738277Y-11858936D02*
X1728753Y-11839888D01*
X1728753Y-11839888D02*
X1719229Y-11801793D01*
X1719229Y-11801793D02*
X1719229Y-11754174D01*
X1719229Y-11754174D02*
X1728753Y-11716079D01*
X1728753Y-11716079D02*
X1738277Y-11697031D01*
X1738277Y-11697031D02*
X1747801Y-11687508D01*
X1747801Y-11687508D02*
X1766848Y-11677984D01*
X2023991Y-11877984D02*
X1909706Y-11877984D01*
X1966848Y-11877984D02*
X1966848Y-11677984D01*
X1966848Y-11677984D02*
X1947801Y-11706555D01*
X1947801Y-11706555D02*
X1928753Y-11725603D01*
X1928753Y-11725603D02*
X1909706Y-11735127D01*
X2214468Y-11877984D02*
X2100182Y-11877984D01*
X2157325Y-11877984D02*
X2157325Y-11677984D01*
X2157325Y-11677984D02*
X2138277Y-11706555D01*
X2138277Y-11706555D02*
X2119229Y-11725603D01*
X2119229Y-11725603D02*
X2100182Y-11735127D01*
X2328753Y-11763698D02*
X2309706Y-11754174D01*
X2309706Y-11754174D02*
X2300182Y-11744650D01*
X2300182Y-11744650D02*
X2290658Y-11725603D01*
X2290658Y-11725603D02*
X2290658Y-11716079D01*
X2290658Y-11716079D02*
X2300182Y-11697031D01*
X2300182Y-11697031D02*
X2309706Y-11687508D01*
X2309706Y-11687508D02*
X2328753Y-11677984D01*
X2328753Y-11677984D02*
X2366849Y-11677984D01*
X2366849Y-11677984D02*
X2385896Y-11687508D01*
X2385896Y-11687508D02*
X2395420Y-11697031D01*
X2395420Y-11697031D02*
X2404944Y-11716079D01*
X2404944Y-11716079D02*
X2404944Y-11725603D01*
X2404944Y-11725603D02*
X2395420Y-11744650D01*
X2395420Y-11744650D02*
X2385896Y-11754174D01*
X2385896Y-11754174D02*
X2366849Y-11763698D01*
X2366849Y-11763698D02*
X2328753Y-11763698D01*
X2328753Y-11763698D02*
X2309706Y-11773222D01*
X2309706Y-11773222D02*
X2300182Y-11782746D01*
X2300182Y-11782746D02*
X2290658Y-11801793D01*
X2290658Y-11801793D02*
X2290658Y-11839888D01*
X2290658Y-11839888D02*
X2300182Y-11858936D01*
X2300182Y-11858936D02*
X2309706Y-11868460D01*
X2309706Y-11868460D02*
X2328753Y-11877984D01*
X2328753Y-11877984D02*
X2366849Y-11877984D01*
X2366849Y-11877984D02*
X2385896Y-11868460D01*
X2385896Y-11868460D02*
X2395420Y-11858936D01*
X2395420Y-11858936D02*
X2404944Y-11839888D01*
X2404944Y-11839888D02*
X2404944Y-11801793D01*
X2404944Y-11801793D02*
X2395420Y-11782746D01*
X2395420Y-11782746D02*
X2385896Y-11773222D01*
X2385896Y-11773222D02*
X2366849Y-11763698D01*
X2481134Y-11677984D02*
X2481134Y-11716079D01*
X2557325Y-11677984D02*
X2557325Y-11716079D01*
X2852563Y-11954174D02*
X2843039Y-11944650D01*
X2843039Y-11944650D02*
X2823991Y-11916079D01*
X2823991Y-11916079D02*
X2814468Y-11897031D01*
X2814468Y-11897031D02*
X2804944Y-11868460D01*
X2804944Y-11868460D02*
X2795420Y-11820841D01*
X2795420Y-11820841D02*
X2795420Y-11782746D01*
X2795420Y-11782746D02*
X2804944Y-11735127D01*
X2804944Y-11735127D02*
X2814468Y-11706555D01*
X2814468Y-11706555D02*
X2823991Y-11687508D01*
X2823991Y-11687508D02*
X2843039Y-11658936D01*
X2843039Y-11658936D02*
X2852563Y-11649412D01*
X3033515Y-11877984D02*
X2919229Y-11877984D01*
X2976372Y-11877984D02*
X2976372Y-11677984D01*
X2976372Y-11677984D02*
X2957325Y-11706555D01*
X2957325Y-11706555D02*
X2938277Y-11725603D01*
X2938277Y-11725603D02*
X2919229Y-11735127D01*
X3157325Y-11677984D02*
X3176372Y-11677984D01*
X3176372Y-11677984D02*
X3195420Y-11687508D01*
X3195420Y-11687508D02*
X3204944Y-11697031D01*
X3204944Y-11697031D02*
X3214468Y-11716079D01*
X3214468Y-11716079D02*
X3223991Y-11754174D01*
X3223991Y-11754174D02*
X3223991Y-11801793D01*
X3223991Y-11801793D02*
X3214468Y-11839888D01*
X3214468Y-11839888D02*
X3204944Y-11858936D01*
X3204944Y-11858936D02*
X3195420Y-11868460D01*
X3195420Y-11868460D02*
X3176372Y-11877984D01*
X3176372Y-11877984D02*
X3157325Y-11877984D01*
X3157325Y-11877984D02*
X3138277Y-11868460D01*
X3138277Y-11868460D02*
X3128753Y-11858936D01*
X3128753Y-11858936D02*
X3119229Y-11839888D01*
X3119229Y-11839888D02*
X3109706Y-11801793D01*
X3109706Y-11801793D02*
X3109706Y-11754174D01*
X3109706Y-11754174D02*
X3119229Y-11716079D01*
X3119229Y-11716079D02*
X3128753Y-11697031D01*
X3128753Y-11697031D02*
X3138277Y-11687508D01*
X3138277Y-11687508D02*
X3157325Y-11677984D01*
X3462087Y-11877984D02*
X3462087Y-11677984D01*
X3547801Y-11877984D02*
X3547801Y-11773222D01*
X3547801Y-11773222D02*
X3538277Y-11754174D01*
X3538277Y-11754174D02*
X3519230Y-11744650D01*
X3519230Y-11744650D02*
X3490658Y-11744650D01*
X3490658Y-11744650D02*
X3471610Y-11754174D01*
X3471610Y-11754174D02*
X3462087Y-11763698D01*
X3671610Y-11877984D02*
X3652563Y-11868460D01*
X3652563Y-11868460D02*
X3643039Y-11858936D01*
X3643039Y-11858936D02*
X3633515Y-11839888D01*
X3633515Y-11839888D02*
X3633515Y-11782746D01*
X3633515Y-11782746D02*
X3643039Y-11763698D01*
X3643039Y-11763698D02*
X3652563Y-11754174D01*
X3652563Y-11754174D02*
X3671610Y-11744650D01*
X3671610Y-11744650D02*
X3700182Y-11744650D01*
X3700182Y-11744650D02*
X3719230Y-11754174D01*
X3719230Y-11754174D02*
X3728753Y-11763698D01*
X3728753Y-11763698D02*
X3738277Y-11782746D01*
X3738277Y-11782746D02*
X3738277Y-11839888D01*
X3738277Y-11839888D02*
X3728753Y-11858936D01*
X3728753Y-11858936D02*
X3719230Y-11868460D01*
X3719230Y-11868460D02*
X3700182Y-11877984D01*
X3700182Y-11877984D02*
X3671610Y-11877984D01*
X3852563Y-11877984D02*
X3833515Y-11868460D01*
X3833515Y-11868460D02*
X3823991Y-11849412D01*
X3823991Y-11849412D02*
X3823991Y-11677984D01*
X4004944Y-11868460D02*
X3985896Y-11877984D01*
X3985896Y-11877984D02*
X3947801Y-11877984D01*
X3947801Y-11877984D02*
X3928753Y-11868460D01*
X3928753Y-11868460D02*
X3919230Y-11849412D01*
X3919230Y-11849412D02*
X3919230Y-11773222D01*
X3919230Y-11773222D02*
X3928753Y-11754174D01*
X3928753Y-11754174D02*
X3947801Y-11744650D01*
X3947801Y-11744650D02*
X3985896Y-11744650D01*
X3985896Y-11744650D02*
X4004944Y-11754174D01*
X4004944Y-11754174D02*
X4014468Y-11773222D01*
X4014468Y-11773222D02*
X4014468Y-11792269D01*
X4014468Y-11792269D02*
X3919230Y-11811317D01*
X4090658Y-11868460D02*
X4109706Y-11877984D01*
X4109706Y-11877984D02*
X4147801Y-11877984D01*
X4147801Y-11877984D02*
X4166849Y-11868460D01*
X4166849Y-11868460D02*
X4176372Y-11849412D01*
X4176372Y-11849412D02*
X4176372Y-11839888D01*
X4176372Y-11839888D02*
X4166849Y-11820841D01*
X4166849Y-11820841D02*
X4147801Y-11811317D01*
X4147801Y-11811317D02*
X4119230Y-11811317D01*
X4119230Y-11811317D02*
X4100182Y-11801793D01*
X4100182Y-11801793D02*
X4090658Y-11782746D01*
X4090658Y-11782746D02*
X4090658Y-11773222D01*
X4090658Y-11773222D02*
X4100182Y-11754174D01*
X4100182Y-11754174D02*
X4119230Y-11744650D01*
X4119230Y-11744650D02*
X4147801Y-11744650D01*
X4147801Y-11744650D02*
X4166849Y-11754174D01*
X4243039Y-11954174D02*
X4252563Y-11944650D01*
X4252563Y-11944650D02*
X4271611Y-11916079D01*
X4271611Y-11916079D02*
X4281134Y-11897031D01*
X4281134Y-11897031D02*
X4290658Y-11868460D01*
X4290658Y-11868460D02*
X4300182Y-11820841D01*
X4300182Y-11820841D02*
X4300182Y-11782746D01*
X4300182Y-11782746D02*
X4290658Y-11735127D01*
X4290658Y-11735127D02*
X4281134Y-11706555D01*
X4281134Y-11706555D02*
X4271611Y-11687508D01*
X4271611Y-11687508D02*
X4252563Y-11658936D01*
X4252563Y-11658936D02*
X4243039Y-11649412D01*
D12*
X-770000Y-12003000D02*
X-770000Y-12098000D01*
X-817500Y-12050500D02*
X-722500Y-12050500D01*
D11*
X-423628Y-11941984D02*
X-404580Y-11941984D01*
X-404580Y-11941984D02*
X-385533Y-11951508D01*
X-385533Y-11951508D02*
X-376009Y-11961031D01*
X-376009Y-11961031D02*
X-366485Y-11980079D01*
X-366485Y-11980079D02*
X-356961Y-12018174D01*
X-356961Y-12018174D02*
X-356961Y-12065793D01*
X-356961Y-12065793D02*
X-366485Y-12103888D01*
X-366485Y-12103888D02*
X-376009Y-12122936D01*
X-376009Y-12122936D02*
X-385533Y-12132460D01*
X-385533Y-12132460D02*
X-404580Y-12141984D01*
X-404580Y-12141984D02*
X-423628Y-12141984D01*
X-423628Y-12141984D02*
X-442675Y-12132460D01*
X-442675Y-12132460D02*
X-452199Y-12122936D01*
X-452199Y-12122936D02*
X-461723Y-12103888D01*
X-461723Y-12103888D02*
X-471247Y-12065793D01*
X-471247Y-12065793D02*
X-471247Y-12018174D01*
X-471247Y-12018174D02*
X-461723Y-11980079D01*
X-461723Y-11980079D02*
X-452199Y-11961031D01*
X-452199Y-11961031D02*
X-442675Y-11951508D01*
X-442675Y-11951508D02*
X-423628Y-11941984D01*
X-271247Y-12122936D02*
X-261723Y-12132460D01*
X-261723Y-12132460D02*
X-271247Y-12141984D01*
X-271247Y-12141984D02*
X-280771Y-12132460D01*
X-280771Y-12132460D02*
X-271247Y-12122936D01*
X-271247Y-12122936D02*
X-271247Y-12141984D01*
X-166485Y-12141984D02*
X-128390Y-12141984D01*
X-128390Y-12141984D02*
X-109342Y-12132460D01*
X-109342Y-12132460D02*
X-99818Y-12122936D01*
X-99818Y-12122936D02*
X-80771Y-12094365D01*
X-80771Y-12094365D02*
X-71247Y-12056269D01*
X-71247Y-12056269D02*
X-71247Y-11980079D01*
X-71247Y-11980079D02*
X-80771Y-11961031D01*
X-80771Y-11961031D02*
X-90294Y-11951508D01*
X-90294Y-11951508D02*
X-109342Y-11941984D01*
X-109342Y-11941984D02*
X-147437Y-11941984D01*
X-147437Y-11941984D02*
X-166485Y-11951508D01*
X-166485Y-11951508D02*
X-176009Y-11961031D01*
X-176009Y-11961031D02*
X-185533Y-11980079D01*
X-185533Y-11980079D02*
X-185533Y-12027698D01*
X-185533Y-12027698D02*
X-176009Y-12046746D01*
X-176009Y-12046746D02*
X-166485Y-12056269D01*
X-166485Y-12056269D02*
X-147437Y-12065793D01*
X-147437Y-12065793D02*
X-109342Y-12065793D01*
X-109342Y-12065793D02*
X-90294Y-12056269D01*
X-90294Y-12056269D02*
X-80771Y-12046746D01*
X-80771Y-12046746D02*
X-71247Y-12027698D01*
X109705Y-11941984D02*
X14467Y-11941984D01*
X14467Y-11941984D02*
X4944Y-12037222D01*
X4944Y-12037222D02*
X14467Y-12027698D01*
X14467Y-12027698D02*
X33515Y-12018174D01*
X33515Y-12018174D02*
X81134Y-12018174D01*
X81134Y-12018174D02*
X100182Y-12027698D01*
X100182Y-12027698D02*
X109705Y-12037222D01*
X109705Y-12037222D02*
X119229Y-12056269D01*
X119229Y-12056269D02*
X119229Y-12103888D01*
X119229Y-12103888D02*
X109705Y-12122936D01*
X109705Y-12122936D02*
X100182Y-12132460D01*
X100182Y-12132460D02*
X81134Y-12141984D01*
X81134Y-12141984D02*
X33515Y-12141984D01*
X33515Y-12141984D02*
X14467Y-12132460D01*
X14467Y-12132460D02*
X4944Y-12122936D01*
X243039Y-11941984D02*
X262086Y-11941984D01*
X262086Y-11941984D02*
X281134Y-11951508D01*
X281134Y-11951508D02*
X290658Y-11961031D01*
X290658Y-11961031D02*
X300182Y-11980079D01*
X300182Y-11980079D02*
X309705Y-12018174D01*
X309705Y-12018174D02*
X309705Y-12065793D01*
X309705Y-12065793D02*
X300182Y-12103888D01*
X300182Y-12103888D02*
X290658Y-12122936D01*
X290658Y-12122936D02*
X281134Y-12132460D01*
X281134Y-12132460D02*
X262086Y-12141984D01*
X262086Y-12141984D02*
X243039Y-12141984D01*
X243039Y-12141984D02*
X223991Y-12132460D01*
X223991Y-12132460D02*
X214467Y-12122936D01*
X214467Y-12122936D02*
X204943Y-12103888D01*
X204943Y-12103888D02*
X195420Y-12065793D01*
X195420Y-12065793D02*
X195420Y-12018174D01*
X195420Y-12018174D02*
X204943Y-11980079D01*
X204943Y-11980079D02*
X214467Y-11961031D01*
X214467Y-11961031D02*
X223991Y-11951508D01*
X223991Y-11951508D02*
X243039Y-11941984D01*
X395420Y-12141984D02*
X395420Y-12008650D01*
X395420Y-12027698D02*
X404943Y-12018174D01*
X404943Y-12018174D02*
X423991Y-12008650D01*
X423991Y-12008650D02*
X452563Y-12008650D01*
X452563Y-12008650D02*
X471610Y-12018174D01*
X471610Y-12018174D02*
X481134Y-12037222D01*
X481134Y-12037222D02*
X481134Y-12141984D01*
X481134Y-12037222D02*
X490658Y-12018174D01*
X490658Y-12018174D02*
X509705Y-12008650D01*
X509705Y-12008650D02*
X538277Y-12008650D01*
X538277Y-12008650D02*
X557325Y-12018174D01*
X557325Y-12018174D02*
X566848Y-12037222D01*
X566848Y-12037222D02*
X566848Y-12141984D01*
X662086Y-12141984D02*
X662086Y-12008650D01*
X662086Y-12027698D02*
X671610Y-12018174D01*
X671610Y-12018174D02*
X690658Y-12008650D01*
X690658Y-12008650D02*
X719229Y-12008650D01*
X719229Y-12008650D02*
X738277Y-12018174D01*
X738277Y-12018174D02*
X747801Y-12037222D01*
X747801Y-12037222D02*
X747801Y-12141984D01*
X747801Y-12037222D02*
X757324Y-12018174D01*
X757324Y-12018174D02*
X776372Y-12008650D01*
X776372Y-12008650D02*
X804943Y-12008650D01*
X804943Y-12008650D02*
X823991Y-12018174D01*
X823991Y-12018174D02*
X833515Y-12037222D01*
X833515Y-12037222D02*
X833515Y-12141984D01*
X1223991Y-11932460D02*
X1052563Y-12189603D01*
X1481134Y-11941984D02*
X1500182Y-11941984D01*
X1500182Y-11941984D02*
X1519229Y-11951508D01*
X1519229Y-11951508D02*
X1528753Y-11961031D01*
X1528753Y-11961031D02*
X1538277Y-11980079D01*
X1538277Y-11980079D02*
X1547801Y-12018174D01*
X1547801Y-12018174D02*
X1547801Y-12065793D01*
X1547801Y-12065793D02*
X1538277Y-12103888D01*
X1538277Y-12103888D02*
X1528753Y-12122936D01*
X1528753Y-12122936D02*
X1519229Y-12132460D01*
X1519229Y-12132460D02*
X1500182Y-12141984D01*
X1500182Y-12141984D02*
X1481134Y-12141984D01*
X1481134Y-12141984D02*
X1462086Y-12132460D01*
X1462086Y-12132460D02*
X1452563Y-12122936D01*
X1452563Y-12122936D02*
X1443039Y-12103888D01*
X1443039Y-12103888D02*
X1433515Y-12065793D01*
X1433515Y-12065793D02*
X1433515Y-12018174D01*
X1433515Y-12018174D02*
X1443039Y-11980079D01*
X1443039Y-11980079D02*
X1452563Y-11961031D01*
X1452563Y-11961031D02*
X1462086Y-11951508D01*
X1462086Y-11951508D02*
X1481134Y-11941984D01*
X1633515Y-12122936D02*
X1643039Y-12132460D01*
X1643039Y-12132460D02*
X1633515Y-12141984D01*
X1633515Y-12141984D02*
X1623991Y-12132460D01*
X1623991Y-12132460D02*
X1633515Y-12122936D01*
X1633515Y-12122936D02*
X1633515Y-12141984D01*
X1766848Y-11941984D02*
X1785896Y-11941984D01*
X1785896Y-11941984D02*
X1804944Y-11951508D01*
X1804944Y-11951508D02*
X1814467Y-11961031D01*
X1814467Y-11961031D02*
X1823991Y-11980079D01*
X1823991Y-11980079D02*
X1833515Y-12018174D01*
X1833515Y-12018174D02*
X1833515Y-12065793D01*
X1833515Y-12065793D02*
X1823991Y-12103888D01*
X1823991Y-12103888D02*
X1814467Y-12122936D01*
X1814467Y-12122936D02*
X1804944Y-12132460D01*
X1804944Y-12132460D02*
X1785896Y-12141984D01*
X1785896Y-12141984D02*
X1766848Y-12141984D01*
X1766848Y-12141984D02*
X1747801Y-12132460D01*
X1747801Y-12132460D02*
X1738277Y-12122936D01*
X1738277Y-12122936D02*
X1728753Y-12103888D01*
X1728753Y-12103888D02*
X1719229Y-12065793D01*
X1719229Y-12065793D02*
X1719229Y-12018174D01*
X1719229Y-12018174D02*
X1728753Y-11980079D01*
X1728753Y-11980079D02*
X1738277Y-11961031D01*
X1738277Y-11961031D02*
X1747801Y-11951508D01*
X1747801Y-11951508D02*
X1766848Y-11941984D01*
X1900182Y-11941984D02*
X2023991Y-11941984D01*
X2023991Y-11941984D02*
X1957325Y-12018174D01*
X1957325Y-12018174D02*
X1985896Y-12018174D01*
X1985896Y-12018174D02*
X2004944Y-12027698D01*
X2004944Y-12027698D02*
X2014467Y-12037222D01*
X2014467Y-12037222D02*
X2023991Y-12056269D01*
X2023991Y-12056269D02*
X2023991Y-12103888D01*
X2023991Y-12103888D02*
X2014467Y-12122936D01*
X2014467Y-12122936D02*
X2004944Y-12132460D01*
X2004944Y-12132460D02*
X1985896Y-12141984D01*
X1985896Y-12141984D02*
X1928753Y-12141984D01*
X1928753Y-12141984D02*
X1909706Y-12132460D01*
X1909706Y-12132460D02*
X1900182Y-12122936D01*
X2090658Y-11941984D02*
X2223991Y-11941984D01*
X2223991Y-11941984D02*
X2138277Y-12141984D01*
X2385896Y-12008650D02*
X2385896Y-12141984D01*
X2338277Y-11932460D02*
X2290658Y-12075317D01*
X2290658Y-12075317D02*
X2414468Y-12075317D01*
X2481134Y-11941984D02*
X2481134Y-11980079D01*
X2557325Y-11941984D02*
X2557325Y-11980079D01*
X2852563Y-12218174D02*
X2843039Y-12208650D01*
X2843039Y-12208650D02*
X2823991Y-12180079D01*
X2823991Y-12180079D02*
X2814468Y-12161031D01*
X2814468Y-12161031D02*
X2804944Y-12132460D01*
X2804944Y-12132460D02*
X2795420Y-12084841D01*
X2795420Y-12084841D02*
X2795420Y-12046746D01*
X2795420Y-12046746D02*
X2804944Y-11999127D01*
X2804944Y-11999127D02*
X2814468Y-11970555D01*
X2814468Y-11970555D02*
X2823991Y-11951508D01*
X2823991Y-11951508D02*
X2843039Y-11922936D01*
X2843039Y-11922936D02*
X2852563Y-11913412D01*
X3014468Y-12008650D02*
X3014468Y-12141984D01*
X2966848Y-11932460D02*
X2919229Y-12075317D01*
X2919229Y-12075317D02*
X3043039Y-12075317D01*
X3271610Y-12141984D02*
X3271610Y-11941984D01*
X3357325Y-12141984D02*
X3357325Y-12037222D01*
X3357325Y-12037222D02*
X3347801Y-12018174D01*
X3347801Y-12018174D02*
X3328753Y-12008650D01*
X3328753Y-12008650D02*
X3300182Y-12008650D01*
X3300182Y-12008650D02*
X3281134Y-12018174D01*
X3281134Y-12018174D02*
X3271610Y-12027698D01*
X3481134Y-12141984D02*
X3462087Y-12132460D01*
X3462087Y-12132460D02*
X3452563Y-12122936D01*
X3452563Y-12122936D02*
X3443039Y-12103888D01*
X3443039Y-12103888D02*
X3443039Y-12046746D01*
X3443039Y-12046746D02*
X3452563Y-12027698D01*
X3452563Y-12027698D02*
X3462087Y-12018174D01*
X3462087Y-12018174D02*
X3481134Y-12008650D01*
X3481134Y-12008650D02*
X3509706Y-12008650D01*
X3509706Y-12008650D02*
X3528753Y-12018174D01*
X3528753Y-12018174D02*
X3538277Y-12027698D01*
X3538277Y-12027698D02*
X3547801Y-12046746D01*
X3547801Y-12046746D02*
X3547801Y-12103888D01*
X3547801Y-12103888D02*
X3538277Y-12122936D01*
X3538277Y-12122936D02*
X3528753Y-12132460D01*
X3528753Y-12132460D02*
X3509706Y-12141984D01*
X3509706Y-12141984D02*
X3481134Y-12141984D01*
X3662087Y-12141984D02*
X3643039Y-12132460D01*
X3643039Y-12132460D02*
X3633515Y-12113412D01*
X3633515Y-12113412D02*
X3633515Y-11941984D01*
X3814468Y-12132460D02*
X3795420Y-12141984D01*
X3795420Y-12141984D02*
X3757325Y-12141984D01*
X3757325Y-12141984D02*
X3738277Y-12132460D01*
X3738277Y-12132460D02*
X3728753Y-12113412D01*
X3728753Y-12113412D02*
X3728753Y-12037222D01*
X3728753Y-12037222D02*
X3738277Y-12018174D01*
X3738277Y-12018174D02*
X3757325Y-12008650D01*
X3757325Y-12008650D02*
X3795420Y-12008650D01*
X3795420Y-12008650D02*
X3814468Y-12018174D01*
X3814468Y-12018174D02*
X3823991Y-12037222D01*
X3823991Y-12037222D02*
X3823991Y-12056269D01*
X3823991Y-12056269D02*
X3728753Y-12075317D01*
X3900182Y-12132460D02*
X3919230Y-12141984D01*
X3919230Y-12141984D02*
X3957325Y-12141984D01*
X3957325Y-12141984D02*
X3976372Y-12132460D01*
X3976372Y-12132460D02*
X3985896Y-12113412D01*
X3985896Y-12113412D02*
X3985896Y-12103888D01*
X3985896Y-12103888D02*
X3976372Y-12084841D01*
X3976372Y-12084841D02*
X3957325Y-12075317D01*
X3957325Y-12075317D02*
X3928753Y-12075317D01*
X3928753Y-12075317D02*
X3909706Y-12065793D01*
X3909706Y-12065793D02*
X3900182Y-12046746D01*
X3900182Y-12046746D02*
X3900182Y-12037222D01*
X3900182Y-12037222D02*
X3909706Y-12018174D01*
X3909706Y-12018174D02*
X3928753Y-12008650D01*
X3928753Y-12008650D02*
X3957325Y-12008650D01*
X3957325Y-12008650D02*
X3976372Y-12018174D01*
X4052563Y-12218174D02*
X4062087Y-12208650D01*
X4062087Y-12208650D02*
X4081134Y-12180079D01*
X4081134Y-12180079D02*
X4090658Y-12161031D01*
X4090658Y-12161031D02*
X4100182Y-12132460D01*
X4100182Y-12132460D02*
X4109706Y-12084841D01*
X4109706Y-12084841D02*
X4109706Y-12046746D01*
X4109706Y-12046746D02*
X4100182Y-11999127D01*
X4100182Y-11999127D02*
X4090658Y-11970555D01*
X4090658Y-11970555D02*
X4081134Y-11951508D01*
X4081134Y-11951508D02*
X4062087Y-11922936D01*
X4062087Y-11922936D02*
X4052563Y-11913412D01*
D12*
X-737144Y-12349856D02*
X-737144Y-12279144D01*
X-807856Y-12279144D01*
X-807856Y-12349856D01*
X-737144Y-12349856D01*
D11*
X-356961Y-12405984D02*
X-471247Y-12405984D01*
X-414104Y-12405984D02*
X-414104Y-12205984D01*
X-414104Y-12205984D02*
X-433152Y-12234555D01*
X-433152Y-12234555D02*
X-452199Y-12253603D01*
X-452199Y-12253603D02*
X-471247Y-12263127D01*
X-271247Y-12386936D02*
X-261723Y-12396460D01*
X-261723Y-12396460D02*
X-271247Y-12405984D01*
X-271247Y-12405984D02*
X-280771Y-12396460D01*
X-280771Y-12396460D02*
X-271247Y-12386936D01*
X-271247Y-12386936D02*
X-271247Y-12405984D01*
X-137914Y-12205984D02*
X-118866Y-12205984D01*
X-118866Y-12205984D02*
X-99818Y-12215508D01*
X-99818Y-12215508D02*
X-90294Y-12225031D01*
X-90294Y-12225031D02*
X-80771Y-12244079D01*
X-80771Y-12244079D02*
X-71247Y-12282174D01*
X-71247Y-12282174D02*
X-71247Y-12329793D01*
X-71247Y-12329793D02*
X-80771Y-12367888D01*
X-80771Y-12367888D02*
X-90294Y-12386936D01*
X-90294Y-12386936D02*
X-99818Y-12396460D01*
X-99818Y-12396460D02*
X-118866Y-12405984D01*
X-118866Y-12405984D02*
X-137914Y-12405984D01*
X-137914Y-12405984D02*
X-156961Y-12396460D01*
X-156961Y-12396460D02*
X-166485Y-12386936D01*
X-166485Y-12386936D02*
X-176009Y-12367888D01*
X-176009Y-12367888D02*
X-185533Y-12329793D01*
X-185533Y-12329793D02*
X-185533Y-12282174D01*
X-185533Y-12282174D02*
X-176009Y-12244079D01*
X-176009Y-12244079D02*
X-166485Y-12225031D01*
X-166485Y-12225031D02*
X-156961Y-12215508D01*
X-156961Y-12215508D02*
X-137914Y-12205984D01*
X52562Y-12205984D02*
X71610Y-12205984D01*
X71610Y-12205984D02*
X90658Y-12215508D01*
X90658Y-12215508D02*
X100182Y-12225031D01*
X100182Y-12225031D02*
X109705Y-12244079D01*
X109705Y-12244079D02*
X119229Y-12282174D01*
X119229Y-12282174D02*
X119229Y-12329793D01*
X119229Y-12329793D02*
X109705Y-12367888D01*
X109705Y-12367888D02*
X100182Y-12386936D01*
X100182Y-12386936D02*
X90658Y-12396460D01*
X90658Y-12396460D02*
X71610Y-12405984D01*
X71610Y-12405984D02*
X52562Y-12405984D01*
X52562Y-12405984D02*
X33515Y-12396460D01*
X33515Y-12396460D02*
X23991Y-12386936D01*
X23991Y-12386936D02*
X14467Y-12367888D01*
X14467Y-12367888D02*
X4944Y-12329793D01*
X4944Y-12329793D02*
X4944Y-12282174D01*
X4944Y-12282174D02*
X14467Y-12244079D01*
X14467Y-12244079D02*
X23991Y-12225031D01*
X23991Y-12225031D02*
X33515Y-12215508D01*
X33515Y-12215508D02*
X52562Y-12205984D01*
X243039Y-12205984D02*
X262086Y-12205984D01*
X262086Y-12205984D02*
X281134Y-12215508D01*
X281134Y-12215508D02*
X290658Y-12225031D01*
X290658Y-12225031D02*
X300182Y-12244079D01*
X300182Y-12244079D02*
X309705Y-12282174D01*
X309705Y-12282174D02*
X309705Y-12329793D01*
X309705Y-12329793D02*
X300182Y-12367888D01*
X300182Y-12367888D02*
X290658Y-12386936D01*
X290658Y-12386936D02*
X281134Y-12396460D01*
X281134Y-12396460D02*
X262086Y-12405984D01*
X262086Y-12405984D02*
X243039Y-12405984D01*
X243039Y-12405984D02*
X223991Y-12396460D01*
X223991Y-12396460D02*
X214467Y-12386936D01*
X214467Y-12386936D02*
X204943Y-12367888D01*
X204943Y-12367888D02*
X195420Y-12329793D01*
X195420Y-12329793D02*
X195420Y-12282174D01*
X195420Y-12282174D02*
X204943Y-12244079D01*
X204943Y-12244079D02*
X214467Y-12225031D01*
X214467Y-12225031D02*
X223991Y-12215508D01*
X223991Y-12215508D02*
X243039Y-12205984D01*
X395420Y-12405984D02*
X395420Y-12272650D01*
X395420Y-12291698D02*
X404943Y-12282174D01*
X404943Y-12282174D02*
X423991Y-12272650D01*
X423991Y-12272650D02*
X452563Y-12272650D01*
X452563Y-12272650D02*
X471610Y-12282174D01*
X471610Y-12282174D02*
X481134Y-12301222D01*
X481134Y-12301222D02*
X481134Y-12405984D01*
X481134Y-12301222D02*
X490658Y-12282174D01*
X490658Y-12282174D02*
X509705Y-12272650D01*
X509705Y-12272650D02*
X538277Y-12272650D01*
X538277Y-12272650D02*
X557325Y-12282174D01*
X557325Y-12282174D02*
X566848Y-12301222D01*
X566848Y-12301222D02*
X566848Y-12405984D01*
X662086Y-12405984D02*
X662086Y-12272650D01*
X662086Y-12291698D02*
X671610Y-12282174D01*
X671610Y-12282174D02*
X690658Y-12272650D01*
X690658Y-12272650D02*
X719229Y-12272650D01*
X719229Y-12272650D02*
X738277Y-12282174D01*
X738277Y-12282174D02*
X747801Y-12301222D01*
X747801Y-12301222D02*
X747801Y-12405984D01*
X747801Y-12301222D02*
X757324Y-12282174D01*
X757324Y-12282174D02*
X776372Y-12272650D01*
X776372Y-12272650D02*
X804943Y-12272650D01*
X804943Y-12272650D02*
X823991Y-12282174D01*
X823991Y-12282174D02*
X833515Y-12301222D01*
X833515Y-12301222D02*
X833515Y-12405984D01*
X1223991Y-12196460D02*
X1052563Y-12453603D01*
X1481134Y-12205984D02*
X1500182Y-12205984D01*
X1500182Y-12205984D02*
X1519229Y-12215508D01*
X1519229Y-12215508D02*
X1528753Y-12225031D01*
X1528753Y-12225031D02*
X1538277Y-12244079D01*
X1538277Y-12244079D02*
X1547801Y-12282174D01*
X1547801Y-12282174D02*
X1547801Y-12329793D01*
X1547801Y-12329793D02*
X1538277Y-12367888D01*
X1538277Y-12367888D02*
X1528753Y-12386936D01*
X1528753Y-12386936D02*
X1519229Y-12396460D01*
X1519229Y-12396460D02*
X1500182Y-12405984D01*
X1500182Y-12405984D02*
X1481134Y-12405984D01*
X1481134Y-12405984D02*
X1462086Y-12396460D01*
X1462086Y-12396460D02*
X1452563Y-12386936D01*
X1452563Y-12386936D02*
X1443039Y-12367888D01*
X1443039Y-12367888D02*
X1433515Y-12329793D01*
X1433515Y-12329793D02*
X1433515Y-12282174D01*
X1433515Y-12282174D02*
X1443039Y-12244079D01*
X1443039Y-12244079D02*
X1452563Y-12225031D01*
X1452563Y-12225031D02*
X1462086Y-12215508D01*
X1462086Y-12215508D02*
X1481134Y-12205984D01*
X1633515Y-12386936D02*
X1643039Y-12396460D01*
X1643039Y-12396460D02*
X1633515Y-12405984D01*
X1633515Y-12405984D02*
X1623991Y-12396460D01*
X1623991Y-12396460D02*
X1633515Y-12386936D01*
X1633515Y-12386936D02*
X1633515Y-12405984D01*
X1766848Y-12205984D02*
X1785896Y-12205984D01*
X1785896Y-12205984D02*
X1804944Y-12215508D01*
X1804944Y-12215508D02*
X1814467Y-12225031D01*
X1814467Y-12225031D02*
X1823991Y-12244079D01*
X1823991Y-12244079D02*
X1833515Y-12282174D01*
X1833515Y-12282174D02*
X1833515Y-12329793D01*
X1833515Y-12329793D02*
X1823991Y-12367888D01*
X1823991Y-12367888D02*
X1814467Y-12386936D01*
X1814467Y-12386936D02*
X1804944Y-12396460D01*
X1804944Y-12396460D02*
X1785896Y-12405984D01*
X1785896Y-12405984D02*
X1766848Y-12405984D01*
X1766848Y-12405984D02*
X1747801Y-12396460D01*
X1747801Y-12396460D02*
X1738277Y-12386936D01*
X1738277Y-12386936D02*
X1728753Y-12367888D01*
X1728753Y-12367888D02*
X1719229Y-12329793D01*
X1719229Y-12329793D02*
X1719229Y-12282174D01*
X1719229Y-12282174D02*
X1728753Y-12244079D01*
X1728753Y-12244079D02*
X1738277Y-12225031D01*
X1738277Y-12225031D02*
X1747801Y-12215508D01*
X1747801Y-12215508D02*
X1766848Y-12205984D01*
X1900182Y-12205984D02*
X2023991Y-12205984D01*
X2023991Y-12205984D02*
X1957325Y-12282174D01*
X1957325Y-12282174D02*
X1985896Y-12282174D01*
X1985896Y-12282174D02*
X2004944Y-12291698D01*
X2004944Y-12291698D02*
X2014467Y-12301222D01*
X2014467Y-12301222D02*
X2023991Y-12320269D01*
X2023991Y-12320269D02*
X2023991Y-12367888D01*
X2023991Y-12367888D02*
X2014467Y-12386936D01*
X2014467Y-12386936D02*
X2004944Y-12396460D01*
X2004944Y-12396460D02*
X1985896Y-12405984D01*
X1985896Y-12405984D02*
X1928753Y-12405984D01*
X1928753Y-12405984D02*
X1909706Y-12396460D01*
X1909706Y-12396460D02*
X1900182Y-12386936D01*
X2119229Y-12405984D02*
X2157325Y-12405984D01*
X2157325Y-12405984D02*
X2176372Y-12396460D01*
X2176372Y-12396460D02*
X2185896Y-12386936D01*
X2185896Y-12386936D02*
X2204944Y-12358365D01*
X2204944Y-12358365D02*
X2214468Y-12320269D01*
X2214468Y-12320269D02*
X2214468Y-12244079D01*
X2214468Y-12244079D02*
X2204944Y-12225031D01*
X2204944Y-12225031D02*
X2195420Y-12215508D01*
X2195420Y-12215508D02*
X2176372Y-12205984D01*
X2176372Y-12205984D02*
X2138277Y-12205984D01*
X2138277Y-12205984D02*
X2119229Y-12215508D01*
X2119229Y-12215508D02*
X2109706Y-12225031D01*
X2109706Y-12225031D02*
X2100182Y-12244079D01*
X2100182Y-12244079D02*
X2100182Y-12291698D01*
X2100182Y-12291698D02*
X2109706Y-12310746D01*
X2109706Y-12310746D02*
X2119229Y-12320269D01*
X2119229Y-12320269D02*
X2138277Y-12329793D01*
X2138277Y-12329793D02*
X2176372Y-12329793D01*
X2176372Y-12329793D02*
X2195420Y-12320269D01*
X2195420Y-12320269D02*
X2204944Y-12310746D01*
X2204944Y-12310746D02*
X2214468Y-12291698D01*
X2385896Y-12272650D02*
X2385896Y-12405984D01*
X2338277Y-12196460D02*
X2290658Y-12339317D01*
X2290658Y-12339317D02*
X2414468Y-12339317D01*
X2481134Y-12205984D02*
X2481134Y-12244079D01*
X2557325Y-12205984D02*
X2557325Y-12244079D01*
X2852563Y-12482174D02*
X2843039Y-12472650D01*
X2843039Y-12472650D02*
X2823991Y-12444079D01*
X2823991Y-12444079D02*
X2814468Y-12425031D01*
X2814468Y-12425031D02*
X2804944Y-12396460D01*
X2804944Y-12396460D02*
X2795420Y-12348841D01*
X2795420Y-12348841D02*
X2795420Y-12310746D01*
X2795420Y-12310746D02*
X2804944Y-12263127D01*
X2804944Y-12263127D02*
X2814468Y-12234555D01*
X2814468Y-12234555D02*
X2823991Y-12215508D01*
X2823991Y-12215508D02*
X2843039Y-12186936D01*
X2843039Y-12186936D02*
X2852563Y-12177412D01*
X3014468Y-12272650D02*
X3014468Y-12405984D01*
X2966848Y-12196460D02*
X2919229Y-12339317D01*
X2919229Y-12339317D02*
X3043039Y-12339317D01*
X3271610Y-12405984D02*
X3271610Y-12205984D01*
X3357325Y-12405984D02*
X3357325Y-12301222D01*
X3357325Y-12301222D02*
X3347801Y-12282174D01*
X3347801Y-12282174D02*
X3328753Y-12272650D01*
X3328753Y-12272650D02*
X3300182Y-12272650D01*
X3300182Y-12272650D02*
X3281134Y-12282174D01*
X3281134Y-12282174D02*
X3271610Y-12291698D01*
X3481134Y-12405984D02*
X3462087Y-12396460D01*
X3462087Y-12396460D02*
X3452563Y-12386936D01*
X3452563Y-12386936D02*
X3443039Y-12367888D01*
X3443039Y-12367888D02*
X3443039Y-12310746D01*
X3443039Y-12310746D02*
X3452563Y-12291698D01*
X3452563Y-12291698D02*
X3462087Y-12282174D01*
X3462087Y-12282174D02*
X3481134Y-12272650D01*
X3481134Y-12272650D02*
X3509706Y-12272650D01*
X3509706Y-12272650D02*
X3528753Y-12282174D01*
X3528753Y-12282174D02*
X3538277Y-12291698D01*
X3538277Y-12291698D02*
X3547801Y-12310746D01*
X3547801Y-12310746D02*
X3547801Y-12367888D01*
X3547801Y-12367888D02*
X3538277Y-12386936D01*
X3538277Y-12386936D02*
X3528753Y-12396460D01*
X3528753Y-12396460D02*
X3509706Y-12405984D01*
X3509706Y-12405984D02*
X3481134Y-12405984D01*
X3662087Y-12405984D02*
X3643039Y-12396460D01*
X3643039Y-12396460D02*
X3633515Y-12377412D01*
X3633515Y-12377412D02*
X3633515Y-12205984D01*
X3814468Y-12396460D02*
X3795420Y-12405984D01*
X3795420Y-12405984D02*
X3757325Y-12405984D01*
X3757325Y-12405984D02*
X3738277Y-12396460D01*
X3738277Y-12396460D02*
X3728753Y-12377412D01*
X3728753Y-12377412D02*
X3728753Y-12301222D01*
X3728753Y-12301222D02*
X3738277Y-12282174D01*
X3738277Y-12282174D02*
X3757325Y-12272650D01*
X3757325Y-12272650D02*
X3795420Y-12272650D01*
X3795420Y-12272650D02*
X3814468Y-12282174D01*
X3814468Y-12282174D02*
X3823991Y-12301222D01*
X3823991Y-12301222D02*
X3823991Y-12320269D01*
X3823991Y-12320269D02*
X3728753Y-12339317D01*
X3900182Y-12396460D02*
X3919230Y-12405984D01*
X3919230Y-12405984D02*
X3957325Y-12405984D01*
X3957325Y-12405984D02*
X3976372Y-12396460D01*
X3976372Y-12396460D02*
X3985896Y-12377412D01*
X3985896Y-12377412D02*
X3985896Y-12367888D01*
X3985896Y-12367888D02*
X3976372Y-12348841D01*
X3976372Y-12348841D02*
X3957325Y-12339317D01*
X3957325Y-12339317D02*
X3928753Y-12339317D01*
X3928753Y-12339317D02*
X3909706Y-12329793D01*
X3909706Y-12329793D02*
X3900182Y-12310746D01*
X3900182Y-12310746D02*
X3900182Y-12301222D01*
X3900182Y-12301222D02*
X3909706Y-12282174D01*
X3909706Y-12282174D02*
X3928753Y-12272650D01*
X3928753Y-12272650D02*
X3957325Y-12272650D01*
X3957325Y-12272650D02*
X3976372Y-12282174D01*
X4052563Y-12482174D02*
X4062087Y-12472650D01*
X4062087Y-12472650D02*
X4081134Y-12444079D01*
X4081134Y-12444079D02*
X4090658Y-12425031D01*
X4090658Y-12425031D02*
X4100182Y-12396460D01*
X4100182Y-12396460D02*
X4109706Y-12348841D01*
X4109706Y-12348841D02*
X4109706Y-12310746D01*
X4109706Y-12310746D02*
X4100182Y-12263127D01*
X4100182Y-12263127D02*
X4090658Y-12234555D01*
X4090658Y-12234555D02*
X4081134Y-12215508D01*
X4081134Y-12215508D02*
X4062087Y-12186936D01*
X4062087Y-12186936D02*
X4052563Y-12177412D01*
D13*
X-807500Y-12663500D02*
X-722500Y-12578500D01*
X-807500Y-12493500D01*
X-892500Y-12578500D01*
X-807500Y-12663500D01*
D11*
X-356961Y-12669984D02*
X-471247Y-12669984D01*
X-414104Y-12669984D02*
X-414104Y-12469984D01*
X-414104Y-12469984D02*
X-433152Y-12498555D01*
X-433152Y-12498555D02*
X-452199Y-12517603D01*
X-452199Y-12517603D02*
X-471247Y-12527127D01*
X-271247Y-12650936D02*
X-261723Y-12660460D01*
X-261723Y-12660460D02*
X-271247Y-12669984D01*
X-271247Y-12669984D02*
X-280771Y-12660460D01*
X-280771Y-12660460D02*
X-271247Y-12650936D01*
X-271247Y-12650936D02*
X-271247Y-12669984D01*
X-195056Y-12469984D02*
X-61723Y-12469984D01*
X-61723Y-12469984D02*
X-147437Y-12669984D01*
X52562Y-12469984D02*
X71610Y-12469984D01*
X71610Y-12469984D02*
X90658Y-12479508D01*
X90658Y-12479508D02*
X100182Y-12489031D01*
X100182Y-12489031D02*
X109705Y-12508079D01*
X109705Y-12508079D02*
X119229Y-12546174D01*
X119229Y-12546174D02*
X119229Y-12593793D01*
X119229Y-12593793D02*
X109705Y-12631888D01*
X109705Y-12631888D02*
X100182Y-12650936D01*
X100182Y-12650936D02*
X90658Y-12660460D01*
X90658Y-12660460D02*
X71610Y-12669984D01*
X71610Y-12669984D02*
X52562Y-12669984D01*
X52562Y-12669984D02*
X33515Y-12660460D01*
X33515Y-12660460D02*
X23991Y-12650936D01*
X23991Y-12650936D02*
X14467Y-12631888D01*
X14467Y-12631888D02*
X4944Y-12593793D01*
X4944Y-12593793D02*
X4944Y-12546174D01*
X4944Y-12546174D02*
X14467Y-12508079D01*
X14467Y-12508079D02*
X23991Y-12489031D01*
X23991Y-12489031D02*
X33515Y-12479508D01*
X33515Y-12479508D02*
X52562Y-12469984D01*
X243039Y-12469984D02*
X262086Y-12469984D01*
X262086Y-12469984D02*
X281134Y-12479508D01*
X281134Y-12479508D02*
X290658Y-12489031D01*
X290658Y-12489031D02*
X300182Y-12508079D01*
X300182Y-12508079D02*
X309705Y-12546174D01*
X309705Y-12546174D02*
X309705Y-12593793D01*
X309705Y-12593793D02*
X300182Y-12631888D01*
X300182Y-12631888D02*
X290658Y-12650936D01*
X290658Y-12650936D02*
X281134Y-12660460D01*
X281134Y-12660460D02*
X262086Y-12669984D01*
X262086Y-12669984D02*
X243039Y-12669984D01*
X243039Y-12669984D02*
X223991Y-12660460D01*
X223991Y-12660460D02*
X214467Y-12650936D01*
X214467Y-12650936D02*
X204943Y-12631888D01*
X204943Y-12631888D02*
X195420Y-12593793D01*
X195420Y-12593793D02*
X195420Y-12546174D01*
X195420Y-12546174D02*
X204943Y-12508079D01*
X204943Y-12508079D02*
X214467Y-12489031D01*
X214467Y-12489031D02*
X223991Y-12479508D01*
X223991Y-12479508D02*
X243039Y-12469984D01*
X395420Y-12669984D02*
X395420Y-12536650D01*
X395420Y-12555698D02*
X404943Y-12546174D01*
X404943Y-12546174D02*
X423991Y-12536650D01*
X423991Y-12536650D02*
X452563Y-12536650D01*
X452563Y-12536650D02*
X471610Y-12546174D01*
X471610Y-12546174D02*
X481134Y-12565222D01*
X481134Y-12565222D02*
X481134Y-12669984D01*
X481134Y-12565222D02*
X490658Y-12546174D01*
X490658Y-12546174D02*
X509705Y-12536650D01*
X509705Y-12536650D02*
X538277Y-12536650D01*
X538277Y-12536650D02*
X557325Y-12546174D01*
X557325Y-12546174D02*
X566848Y-12565222D01*
X566848Y-12565222D02*
X566848Y-12669984D01*
X662086Y-12669984D02*
X662086Y-12536650D01*
X662086Y-12555698D02*
X671610Y-12546174D01*
X671610Y-12546174D02*
X690658Y-12536650D01*
X690658Y-12536650D02*
X719229Y-12536650D01*
X719229Y-12536650D02*
X738277Y-12546174D01*
X738277Y-12546174D02*
X747801Y-12565222D01*
X747801Y-12565222D02*
X747801Y-12669984D01*
X747801Y-12565222D02*
X757324Y-12546174D01*
X757324Y-12546174D02*
X776372Y-12536650D01*
X776372Y-12536650D02*
X804943Y-12536650D01*
X804943Y-12536650D02*
X823991Y-12546174D01*
X823991Y-12546174D02*
X833515Y-12565222D01*
X833515Y-12565222D02*
X833515Y-12669984D01*
X1223991Y-12460460D02*
X1052563Y-12717603D01*
X1481134Y-12469984D02*
X1500182Y-12469984D01*
X1500182Y-12469984D02*
X1519229Y-12479508D01*
X1519229Y-12479508D02*
X1528753Y-12489031D01*
X1528753Y-12489031D02*
X1538277Y-12508079D01*
X1538277Y-12508079D02*
X1547801Y-12546174D01*
X1547801Y-12546174D02*
X1547801Y-12593793D01*
X1547801Y-12593793D02*
X1538277Y-12631888D01*
X1538277Y-12631888D02*
X1528753Y-12650936D01*
X1528753Y-12650936D02*
X1519229Y-12660460D01*
X1519229Y-12660460D02*
X1500182Y-12669984D01*
X1500182Y-12669984D02*
X1481134Y-12669984D01*
X1481134Y-12669984D02*
X1462086Y-12660460D01*
X1462086Y-12660460D02*
X1452563Y-12650936D01*
X1452563Y-12650936D02*
X1443039Y-12631888D01*
X1443039Y-12631888D02*
X1433515Y-12593793D01*
X1433515Y-12593793D02*
X1433515Y-12546174D01*
X1433515Y-12546174D02*
X1443039Y-12508079D01*
X1443039Y-12508079D02*
X1452563Y-12489031D01*
X1452563Y-12489031D02*
X1462086Y-12479508D01*
X1462086Y-12479508D02*
X1481134Y-12469984D01*
X1633515Y-12650936D02*
X1643039Y-12660460D01*
X1643039Y-12660460D02*
X1633515Y-12669984D01*
X1633515Y-12669984D02*
X1623991Y-12660460D01*
X1623991Y-12660460D02*
X1633515Y-12650936D01*
X1633515Y-12650936D02*
X1633515Y-12669984D01*
X1766848Y-12469984D02*
X1785896Y-12469984D01*
X1785896Y-12469984D02*
X1804944Y-12479508D01*
X1804944Y-12479508D02*
X1814467Y-12489031D01*
X1814467Y-12489031D02*
X1823991Y-12508079D01*
X1823991Y-12508079D02*
X1833515Y-12546174D01*
X1833515Y-12546174D02*
X1833515Y-12593793D01*
X1833515Y-12593793D02*
X1823991Y-12631888D01*
X1823991Y-12631888D02*
X1814467Y-12650936D01*
X1814467Y-12650936D02*
X1804944Y-12660460D01*
X1804944Y-12660460D02*
X1785896Y-12669984D01*
X1785896Y-12669984D02*
X1766848Y-12669984D01*
X1766848Y-12669984D02*
X1747801Y-12660460D01*
X1747801Y-12660460D02*
X1738277Y-12650936D01*
X1738277Y-12650936D02*
X1728753Y-12631888D01*
X1728753Y-12631888D02*
X1719229Y-12593793D01*
X1719229Y-12593793D02*
X1719229Y-12546174D01*
X1719229Y-12546174D02*
X1728753Y-12508079D01*
X1728753Y-12508079D02*
X1738277Y-12489031D01*
X1738277Y-12489031D02*
X1747801Y-12479508D01*
X1747801Y-12479508D02*
X1766848Y-12469984D01*
X2004944Y-12469984D02*
X1966848Y-12469984D01*
X1966848Y-12469984D02*
X1947801Y-12479508D01*
X1947801Y-12479508D02*
X1938277Y-12489031D01*
X1938277Y-12489031D02*
X1919229Y-12517603D01*
X1919229Y-12517603D02*
X1909706Y-12555698D01*
X1909706Y-12555698D02*
X1909706Y-12631888D01*
X1909706Y-12631888D02*
X1919229Y-12650936D01*
X1919229Y-12650936D02*
X1928753Y-12660460D01*
X1928753Y-12660460D02*
X1947801Y-12669984D01*
X1947801Y-12669984D02*
X1985896Y-12669984D01*
X1985896Y-12669984D02*
X2004944Y-12660460D01*
X2004944Y-12660460D02*
X2014467Y-12650936D01*
X2014467Y-12650936D02*
X2023991Y-12631888D01*
X2023991Y-12631888D02*
X2023991Y-12584269D01*
X2023991Y-12584269D02*
X2014467Y-12565222D01*
X2014467Y-12565222D02*
X2004944Y-12555698D01*
X2004944Y-12555698D02*
X1985896Y-12546174D01*
X1985896Y-12546174D02*
X1947801Y-12546174D01*
X1947801Y-12546174D02*
X1928753Y-12555698D01*
X1928753Y-12555698D02*
X1919229Y-12565222D01*
X1919229Y-12565222D02*
X1909706Y-12584269D01*
X2195420Y-12469984D02*
X2157325Y-12469984D01*
X2157325Y-12469984D02*
X2138277Y-12479508D01*
X2138277Y-12479508D02*
X2128753Y-12489031D01*
X2128753Y-12489031D02*
X2109706Y-12517603D01*
X2109706Y-12517603D02*
X2100182Y-12555698D01*
X2100182Y-12555698D02*
X2100182Y-12631888D01*
X2100182Y-12631888D02*
X2109706Y-12650936D01*
X2109706Y-12650936D02*
X2119229Y-12660460D01*
X2119229Y-12660460D02*
X2138277Y-12669984D01*
X2138277Y-12669984D02*
X2176372Y-12669984D01*
X2176372Y-12669984D02*
X2195420Y-12660460D01*
X2195420Y-12660460D02*
X2204944Y-12650936D01*
X2204944Y-12650936D02*
X2214468Y-12631888D01*
X2214468Y-12631888D02*
X2214468Y-12584269D01*
X2214468Y-12584269D02*
X2204944Y-12565222D01*
X2204944Y-12565222D02*
X2195420Y-12555698D01*
X2195420Y-12555698D02*
X2176372Y-12546174D01*
X2176372Y-12546174D02*
X2138277Y-12546174D01*
X2138277Y-12546174D02*
X2119229Y-12555698D01*
X2119229Y-12555698D02*
X2109706Y-12565222D01*
X2109706Y-12565222D02*
X2100182Y-12584269D01*
X2309706Y-12669984D02*
X2347801Y-12669984D01*
X2347801Y-12669984D02*
X2366849Y-12660460D01*
X2366849Y-12660460D02*
X2376372Y-12650936D01*
X2376372Y-12650936D02*
X2395420Y-12622365D01*
X2395420Y-12622365D02*
X2404944Y-12584269D01*
X2404944Y-12584269D02*
X2404944Y-12508079D01*
X2404944Y-12508079D02*
X2395420Y-12489031D01*
X2395420Y-12489031D02*
X2385896Y-12479508D01*
X2385896Y-12479508D02*
X2366849Y-12469984D01*
X2366849Y-12469984D02*
X2328753Y-12469984D01*
X2328753Y-12469984D02*
X2309706Y-12479508D01*
X2309706Y-12479508D02*
X2300182Y-12489031D01*
X2300182Y-12489031D02*
X2290658Y-12508079D01*
X2290658Y-12508079D02*
X2290658Y-12555698D01*
X2290658Y-12555698D02*
X2300182Y-12574746D01*
X2300182Y-12574746D02*
X2309706Y-12584269D01*
X2309706Y-12584269D02*
X2328753Y-12593793D01*
X2328753Y-12593793D02*
X2366849Y-12593793D01*
X2366849Y-12593793D02*
X2385896Y-12584269D01*
X2385896Y-12584269D02*
X2395420Y-12574746D01*
X2395420Y-12574746D02*
X2404944Y-12555698D01*
X2481134Y-12469984D02*
X2481134Y-12508079D01*
X2557325Y-12469984D02*
X2557325Y-12508079D01*
X2852563Y-12746174D02*
X2843039Y-12736650D01*
X2843039Y-12736650D02*
X2823991Y-12708079D01*
X2823991Y-12708079D02*
X2814468Y-12689031D01*
X2814468Y-12689031D02*
X2804944Y-12660460D01*
X2804944Y-12660460D02*
X2795420Y-12612841D01*
X2795420Y-12612841D02*
X2795420Y-12574746D01*
X2795420Y-12574746D02*
X2804944Y-12527127D01*
X2804944Y-12527127D02*
X2814468Y-12498555D01*
X2814468Y-12498555D02*
X2823991Y-12479508D01*
X2823991Y-12479508D02*
X2843039Y-12450936D01*
X2843039Y-12450936D02*
X2852563Y-12441412D01*
X2919229Y-12489031D02*
X2928753Y-12479508D01*
X2928753Y-12479508D02*
X2947801Y-12469984D01*
X2947801Y-12469984D02*
X2995420Y-12469984D01*
X2995420Y-12469984D02*
X3014468Y-12479508D01*
X3014468Y-12479508D02*
X3023991Y-12489031D01*
X3023991Y-12489031D02*
X3033515Y-12508079D01*
X3033515Y-12508079D02*
X3033515Y-12527127D01*
X3033515Y-12527127D02*
X3023991Y-12555698D01*
X3023991Y-12555698D02*
X2909706Y-12669984D01*
X2909706Y-12669984D02*
X3033515Y-12669984D01*
X3157325Y-12469984D02*
X3176372Y-12469984D01*
X3176372Y-12469984D02*
X3195420Y-12479508D01*
X3195420Y-12479508D02*
X3204944Y-12489031D01*
X3204944Y-12489031D02*
X3214468Y-12508079D01*
X3214468Y-12508079D02*
X3223991Y-12546174D01*
X3223991Y-12546174D02*
X3223991Y-12593793D01*
X3223991Y-12593793D02*
X3214468Y-12631888D01*
X3214468Y-12631888D02*
X3204944Y-12650936D01*
X3204944Y-12650936D02*
X3195420Y-12660460D01*
X3195420Y-12660460D02*
X3176372Y-12669984D01*
X3176372Y-12669984D02*
X3157325Y-12669984D01*
X3157325Y-12669984D02*
X3138277Y-12660460D01*
X3138277Y-12660460D02*
X3128753Y-12650936D01*
X3128753Y-12650936D02*
X3119229Y-12631888D01*
X3119229Y-12631888D02*
X3109706Y-12593793D01*
X3109706Y-12593793D02*
X3109706Y-12546174D01*
X3109706Y-12546174D02*
X3119229Y-12508079D01*
X3119229Y-12508079D02*
X3128753Y-12489031D01*
X3128753Y-12489031D02*
X3138277Y-12479508D01*
X3138277Y-12479508D02*
X3157325Y-12469984D01*
X3395420Y-12536650D02*
X3395420Y-12669984D01*
X3347801Y-12460460D02*
X3300182Y-12603317D01*
X3300182Y-12603317D02*
X3423991Y-12603317D01*
X3652563Y-12669984D02*
X3652563Y-12469984D01*
X3738277Y-12669984D02*
X3738277Y-12565222D01*
X3738277Y-12565222D02*
X3728753Y-12546174D01*
X3728753Y-12546174D02*
X3709706Y-12536650D01*
X3709706Y-12536650D02*
X3681134Y-12536650D01*
X3681134Y-12536650D02*
X3662087Y-12546174D01*
X3662087Y-12546174D02*
X3652563Y-12555698D01*
X3862087Y-12669984D02*
X3843039Y-12660460D01*
X3843039Y-12660460D02*
X3833515Y-12650936D01*
X3833515Y-12650936D02*
X3823991Y-12631888D01*
X3823991Y-12631888D02*
X3823991Y-12574746D01*
X3823991Y-12574746D02*
X3833515Y-12555698D01*
X3833515Y-12555698D02*
X3843039Y-12546174D01*
X3843039Y-12546174D02*
X3862087Y-12536650D01*
X3862087Y-12536650D02*
X3890658Y-12536650D01*
X3890658Y-12536650D02*
X3909706Y-12546174D01*
X3909706Y-12546174D02*
X3919230Y-12555698D01*
X3919230Y-12555698D02*
X3928753Y-12574746D01*
X3928753Y-12574746D02*
X3928753Y-12631888D01*
X3928753Y-12631888D02*
X3919230Y-12650936D01*
X3919230Y-12650936D02*
X3909706Y-12660460D01*
X3909706Y-12660460D02*
X3890658Y-12669984D01*
X3890658Y-12669984D02*
X3862087Y-12669984D01*
X4043039Y-12669984D02*
X4023991Y-12660460D01*
X4023991Y-12660460D02*
X4014468Y-12641412D01*
X4014468Y-12641412D02*
X4014468Y-12469984D01*
X4195420Y-12660460D02*
X4176372Y-12669984D01*
X4176372Y-12669984D02*
X4138277Y-12669984D01*
X4138277Y-12669984D02*
X4119230Y-12660460D01*
X4119230Y-12660460D02*
X4109706Y-12641412D01*
X4109706Y-12641412D02*
X4109706Y-12565222D01*
X4109706Y-12565222D02*
X4119230Y-12546174D01*
X4119230Y-12546174D02*
X4138277Y-12536650D01*
X4138277Y-12536650D02*
X4176372Y-12536650D01*
X4176372Y-12536650D02*
X4195420Y-12546174D01*
X4195420Y-12546174D02*
X4204944Y-12565222D01*
X4204944Y-12565222D02*
X4204944Y-12584269D01*
X4204944Y-12584269D02*
X4109706Y-12603317D01*
X4281134Y-12660460D02*
X4300182Y-12669984D01*
X4300182Y-12669984D02*
X4338277Y-12669984D01*
X4338277Y-12669984D02*
X4357325Y-12660460D01*
X4357325Y-12660460D02*
X4366849Y-12641412D01*
X4366849Y-12641412D02*
X4366849Y-12631888D01*
X4366849Y-12631888D02*
X4357325Y-12612841D01*
X4357325Y-12612841D02*
X4338277Y-12603317D01*
X4338277Y-12603317D02*
X4309706Y-12603317D01*
X4309706Y-12603317D02*
X4290658Y-12593793D01*
X4290658Y-12593793D02*
X4281134Y-12574746D01*
X4281134Y-12574746D02*
X4281134Y-12565222D01*
X4281134Y-12565222D02*
X4290658Y-12546174D01*
X4290658Y-12546174D02*
X4309706Y-12536650D01*
X4309706Y-12536650D02*
X4338277Y-12536650D01*
X4338277Y-12536650D02*
X4357325Y-12546174D01*
X4433515Y-12746174D02*
X4443039Y-12736650D01*
X4443039Y-12736650D02*
X4462087Y-12708079D01*
X4462087Y-12708079D02*
X4471611Y-12689031D01*
X4471611Y-12689031D02*
X4481134Y-12660460D01*
X4481134Y-12660460D02*
X4490658Y-12612841D01*
X4490658Y-12612841D02*
X4490658Y-12574746D01*
X4490658Y-12574746D02*
X4481134Y-12527127D01*
X4481134Y-12527127D02*
X4471611Y-12498555D01*
X4471611Y-12498555D02*
X4462087Y-12479508D01*
X4462087Y-12479508D02*
X4443039Y-12450936D01*
X4443039Y-12450936D02*
X4433515Y-12441412D01*
M02*
