M48
; DRILL file {KiCad 8.99.0-2641-g1a24c99a2a} date 2024-10-13T14:17:07+0700
; FORMAT={-:-/ absolute / inch / decimal}
; #@! TF.CreationDate,2024-10-13T14:17:07+07:00
; #@! TF.GenerationSoftware,Kicad,Pcbnew,8.99.0-2641-g1a24c99a2a
; #@! TF.FileFunction,NonPlated,1,2,NPTH
FMAT,2
INCH
; #@! TA.AperFunction,NonPlated,NPTH,ComponentDrill
T1C0.0669
; #@! TA.AperFunction,NonPlated,NPTH,ComponentDrill
T2C0.1200
; #@! TA.AperFunction,NonPlated,NPTH,ComponentDrill
T3C0.1570
; #@! TA.AperFunction,NonPlated,NPTH,ComponentDrill
T4C0.1575
%
G90
G05
T1
X11.4425Y8.5131
X11.4425Y7.5756
X11.5362Y6.0756
X11.5362Y4.5756
X11.63Y6.8256
X11.6318Y4.5753
X11.7237Y6.0756
X11.8425Y8.5131
X11.8425Y7.5756
X11.9142Y5.3256
X11.9362Y6.0756
X11.9362Y4.5756
X12.03Y6.8256
X12.0318Y4.5753
X12.1237Y6.0756
X12.1925Y7.5756
X12.3142Y5.3256
X12.38Y8.5131
X12.4737Y4.5756
X12.5675Y6.8256
X12.5689Y4.5755
X12.5692Y8.5139
X12.5925Y7.5756
X12.755Y6.0756
X12.78Y8.5131
X12.8737Y4.5756
X12.9425Y7.5756
X12.9675Y6.8256
X12.9689Y4.5755
X12.9692Y8.5139
X13.13Y8.5131
X13.13Y5.3256
X13.155Y6.0756
X13.3175Y6.8256
X13.3185Y8.5135
X13.3425Y7.5756
X13.4112Y4.5756
X13.505Y6.0756
X13.5055Y4.5749
X13.53Y8.5131
X13.53Y5.3256
X13.6925Y7.5756
X13.7175Y6.8256
X13.7185Y8.5135
X13.8112Y4.5756
X13.88Y8.5131
X13.88Y5.3256
X13.905Y6.0756
X13.9055Y4.5749
X14.0675Y6.8256
X14.0681Y8.5131
X14.0925Y7.5756
X14.255Y6.0756
X14.28Y8.5131
X14.28Y5.3256
X14.4425Y7.5756
X14.4675Y6.8256
X14.4681Y8.5131
X14.63Y8.5131
X14.63Y5.3256
X14.655Y6.0756
X14.8175Y6.8256
X14.8181Y8.5131
X14.8425Y7.5756
X15.005Y6.0756
X15.03Y8.5131
X15.03Y5.3256
X15.1925Y7.5756
X15.2175Y6.8256
X15.2181Y8.5131
X15.38Y5.3256
X15.405Y6.0756
X15.5675Y8.5131
X15.5675Y6.8256
X15.5925Y7.5756
X15.755Y6.0756
X15.78Y5.3256
X15.9425Y7.5756
X15.9441Y8.5127
X15.9675Y8.5131
X15.9675Y6.8256
X16.13Y5.3256
X16.155Y6.0756
X16.2237Y4.5756
X16.3175Y8.5131
X16.3175Y6.8256
X16.3425Y7.5756
X16.3441Y8.5127
X16.505Y6.0756
X16.53Y5.3256
X16.6237Y4.5756
X16.6925Y7.5756
X16.6929Y4.5755
X16.6944Y8.5131
X16.7175Y8.5131
X16.7175Y6.8256
X16.88Y5.3256
X16.905Y6.0756
X17.0675Y8.5131
X17.0675Y6.8256
X17.0925Y7.5756
X17.0929Y4.5755
X17.0944Y8.5131
X17.255Y6.0756
X17.28Y5.3256
X17.4425Y7.5756
X17.4441Y8.5135
X17.4675Y8.5131
X17.4675Y6.8256
X17.63Y5.3256
X17.655Y6.0756
X17.8175Y8.5131
X17.8175Y6.8256
X17.8425Y7.5756
X17.8441Y8.5135
X18.005Y6.0756
X18.03Y5.3256
X18.1925Y7.5756
X18.1944Y8.5135
X18.2175Y8.5131
X18.2175Y6.8256
X18.38Y5.3256
X18.405Y6.0756
X18.5675Y6.8256
X18.5925Y7.5756
X18.5944Y8.5135
X18.755Y8.5131
X18.755Y6.0756
X18.78Y5.3256
X18.9425Y7.5756
X18.9675Y6.8256
X19.0362Y4.5756
X19.13Y5.3256
X19.155Y8.5131
X19.155Y6.0756
X19.3175Y6.8256
X19.3189Y8.5131
X19.3425Y7.5756
X19.4362Y4.5756
X19.505Y8.5131
X19.505Y6.0756
X19.53Y5.3256
X19.6925Y7.5756
X19.7175Y6.8256
X19.7189Y8.5131
X19.88Y5.3256
X19.8803Y4.5753
X19.905Y8.5131
X19.905Y6.0756
X19.9737Y4.5756
X20.0675Y6.8256
X20.0685Y8.5127
X20.0925Y7.5756
X20.255Y8.5131
X20.255Y6.0756
X20.28Y5.3256
X20.2803Y4.5753
X20.3737Y4.5756
X20.4425Y7.5756
X20.4675Y6.8256
X20.4685Y8.5127
X20.655Y8.5131
X20.655Y6.0756
X20.8175Y6.8256
X20.8185Y8.5131
X20.8425Y7.5756
X20.9112Y5.3256
X21.005Y8.5131
X21.1925Y7.5756
X21.1925Y4.5756
X21.2175Y6.8256
X21.2185Y8.5131
X21.3112Y5.3256
X21.405Y8.5131
X21.4767Y6.0756
X21.5675Y7.5756
X21.5685Y8.5131
X21.5925Y7.5756
X21.5925Y4.5756
X21.755Y6.8256
X21.8767Y6.0756
X21.9425Y8.5131
X21.9425Y7.5756
X21.9425Y5.3256
X21.9425Y4.5756
X21.9675Y7.5756
X21.9685Y8.5131
X22.155Y6.8256
X22.3425Y8.5131
X22.3425Y7.5756
X22.3425Y5.3256
X22.3425Y4.5756
X22.6925Y8.5131
X22.6925Y7.5756
X22.6925Y6.8256
X22.6925Y6.0756
X22.6925Y5.3256
X22.6925Y4.5756
X23.0925Y8.5131
X23.0925Y7.5756
X23.0925Y6.8256
X23.0925Y6.0756
X23.0925Y5.3256
X23.0925Y4.5756
T2
X11.6442Y5.6006
X12.5842Y5.6006
X14.4552Y4.3006
X14.6429Y4.3005
X18.3922Y4.3006
X19.1429Y4.3005
X21.2067Y6.3506
X21.2975Y7.8506
X22.1467Y6.3506
X22.2375Y7.8506
T3
X11.6442Y5.0006
X12.5842Y5.0006
X14.4552Y4.9006
X14.6429Y4.9005
X18.3922Y4.9006
X19.1429Y4.9005
X21.2067Y5.7506
X21.2975Y7.2506
X22.1467Y5.7506
X22.2375Y7.2506
T4
X11.6425Y8.5131
X11.6425Y7.5756
X11.7362Y6.0756
X11.7362Y4.5756
X11.83Y6.8256
X11.8318Y4.5753
X11.9237Y6.0756
X12.1142Y5.3256
X12.3925Y7.5756
X12.58Y8.5131
X12.6737Y4.5756
X12.7675Y6.8256
X12.7689Y4.5755
X12.7692Y8.5139
X12.955Y6.0756
X13.1425Y7.5756
X13.33Y8.5131
X13.33Y5.3256
X13.5175Y6.8256
X13.5185Y8.5135
X13.6112Y4.5756
X13.705Y6.0756
X13.7055Y4.5749
X13.8925Y7.5756
X14.08Y8.5131
X14.08Y5.3256
X14.2675Y6.8256
X14.2681Y8.5131
X14.455Y6.0756
X14.6425Y7.5756
X14.83Y8.5131
X14.83Y5.3256
X15.0175Y6.8256
X15.0181Y8.5131
X15.205Y6.0756
X15.3925Y7.5756
X15.58Y5.3256
X15.7675Y8.5131
X15.7675Y6.8256
X15.955Y6.0756
X16.1425Y7.5756
X16.1441Y8.5127
X16.33Y5.3256
X16.4237Y4.5756
X16.5175Y8.5131
X16.5175Y6.8256
X16.705Y6.0756
X16.8925Y7.5756
X16.8929Y4.5755
X16.8944Y8.5131
X17.08Y5.3256
X17.2675Y8.5131
X17.2675Y6.8256
X17.455Y6.0756
X17.6425Y7.5756
X17.6441Y8.5135
X17.83Y5.3256
X18.0175Y8.5131
X18.0175Y6.8256
X18.205Y6.0756
X18.3925Y7.5756
X18.3944Y8.5135
X18.58Y5.3256
X18.7675Y6.8256
X18.955Y8.5131
X18.955Y6.0756
X19.1425Y7.5756
X19.2362Y4.5756
X19.33Y5.3256
X19.5175Y6.8256
X19.5189Y8.5131
X19.705Y8.5131
X19.705Y6.0756
X19.8925Y7.5756
X20.08Y5.3256
X20.0803Y4.5753
X20.1737Y4.5756
X20.2675Y6.8256
X20.2685Y8.5127
X20.455Y8.5131
X20.455Y6.0756
X20.6425Y7.5756
X21.0175Y6.8256
X21.0185Y8.5131
X21.1112Y5.3256
X21.205Y8.5131
X21.3925Y7.5756
X21.3925Y4.5756
X21.6767Y6.0756
X21.7675Y7.5756
X21.7685Y8.5131
X21.955Y6.8256
X22.1425Y8.5131
X22.1425Y7.5756
X22.1425Y5.3256
X22.1425Y4.5756
X22.8925Y8.5131
X22.8925Y7.5756
X22.8925Y6.8256
X22.8925Y6.0756
X22.8925Y5.3256
X22.8925Y4.5756
M30
