%TF.GenerationSoftware,KiCad,Pcbnew,8.99.0-2641-g1a24c99a2a*%
%TF.CreationDate,2024-10-13T14:17:06+07:00*%
%TF.ProjectId,75\u0025,3735252e-6b69-4636-9164-5f7063625858,rev?*%
%TF.SameCoordinates,Original*%
%TF.FileFunction,Drillmap*%
%TF.FilePolarity,Positive*%
%FSLAX45Y45*%
G04 Gerber Fmt 4.5, Leading zero omitted, Abs format (unit mm)*
G04 Created by KiCad (PCBNEW 8.99.0-2641-g1a24c99a2a) date 2024-10-13 14:17:06*
%MOMM*%
%LPD*%
G01*
G04 APERTURE LIST*
%ADD10C,0.050000*%
%ADD11C,0.200000*%
%ADD12C,0.170000*%
%ADD13C,0.304800*%
%ADD14C,0.398780*%
%ADD15C,0.400000*%
G04 APERTURE END LIST*
D10*
X48471895Y10743355D02*
X48351895Y10903355D01*
X48781895Y10743355D02*
X48901895Y10903355D01*
X46871895Y10743355D02*
X46991895Y10903355D01*
X28851895Y22043355D02*
G75*
G02*
X29151895Y22343355I299995J5D01*
G01*
X46561895Y10743355D02*
X46871895Y10743355D01*
X37351895Y10743355D02*
X37471895Y10903355D01*
X58871895Y11203355D02*
G75*
G02*
X58571895Y10903355I-300005J5D01*
G01*
X58871895Y11203355D02*
X58871895Y22043355D01*
X46561895Y10743355D02*
X46441895Y10903355D01*
X46991895Y10903355D02*
X48351895Y10903355D01*
X29151895Y10903355D02*
X36431895Y10903355D01*
X36551895Y10743355D02*
X37351895Y10743355D01*
X58571895Y22343355D02*
X29151895Y22343355D01*
X36551895Y10743355D02*
X36431895Y10903355D01*
X29151895Y10903355D02*
G75*
G02*
X28851885Y11203355I-5J300005D01*
G01*
X37471895Y10903355D02*
X46441895Y10903355D01*
X48471895Y10743355D02*
X48781895Y10743355D01*
X48901895Y10903355D02*
X58571895Y10903355D01*
X28851895Y22043355D02*
X28851895Y11203355D01*
X58571895Y22343355D02*
G75*
G02*
X58871885Y22043355I-5J-299995D01*
G01*
D11*
D12*
X28978895Y21708355D02*
X29148895Y21538355D01*
X29148895Y21708355D02*
X28978895Y21538355D01*
X28978895Y19327105D02*
X29148895Y19157105D01*
X29148895Y19327105D02*
X28978895Y19157105D01*
X29216995Y15517105D02*
X29386995Y15347105D01*
X29386995Y15517105D02*
X29216995Y15347105D01*
X29216995Y11707105D02*
X29386995Y11537105D01*
X29386995Y11707105D02*
X29216995Y11537105D01*
X29455195Y17422105D02*
X29625195Y17252105D01*
X29625195Y17422105D02*
X29455195Y17252105D01*
X29459895Y11706355D02*
X29629895Y11536355D01*
X29629895Y11706355D02*
X29459895Y11536355D01*
X29693295Y15517105D02*
X29863295Y15347105D01*
X29863295Y15517105D02*
X29693295Y15347105D01*
X29994895Y21708355D02*
X30164895Y21538355D01*
X30164895Y21708355D02*
X29994895Y21538355D01*
X29994895Y19327105D02*
X30164895Y19157105D01*
X30164895Y19327105D02*
X29994895Y19157105D01*
X30176955Y13612105D02*
X30346955Y13442105D01*
X30346955Y13612105D02*
X30176955Y13442105D01*
X30232995Y15517105D02*
X30402995Y15347105D01*
X30402995Y15517105D02*
X30232995Y15347105D01*
X30232995Y11707105D02*
X30402995Y11537105D01*
X30402995Y11707105D02*
X30232995Y11537105D01*
X30471195Y17422105D02*
X30641195Y17252105D01*
X30641195Y17422105D02*
X30471195Y17252105D01*
X30475895Y11706355D02*
X30645895Y11536355D01*
X30645895Y11706355D02*
X30475895Y11536355D01*
X30709295Y15517105D02*
X30879295Y15347105D01*
X30879295Y15517105D02*
X30709295Y15347105D01*
X30883895Y19327105D02*
X31053895Y19157105D01*
X31053895Y19327105D02*
X30883895Y19157105D01*
X31192955Y13612105D02*
X31362955Y13442105D01*
X31362955Y13612105D02*
X31192955Y13442105D01*
X31360145Y21708355D02*
X31530145Y21538355D01*
X31530145Y21708355D02*
X31360145Y21538355D01*
X31598245Y11707105D02*
X31768245Y11537105D01*
X31768245Y11707105D02*
X31598245Y11537105D01*
X31836395Y17422105D02*
X32006395Y17252105D01*
X32006395Y17422105D02*
X31836395Y17252105D01*
X31839895Y11706855D02*
X32009895Y11536855D01*
X32009895Y11706855D02*
X31839895Y11536855D01*
X31840895Y21710355D02*
X32010895Y21540355D01*
X32010895Y21710355D02*
X31840895Y21540355D01*
X31899895Y19327105D02*
X32069895Y19157105D01*
X32069895Y19327105D02*
X31899895Y19157105D01*
X32312645Y15517105D02*
X32482645Y15347105D01*
X32482645Y15517105D02*
X32312645Y15347105D01*
X32376145Y21708355D02*
X32546145Y21538355D01*
X32546145Y21708355D02*
X32376145Y21538355D01*
X32614245Y11707105D02*
X32784245Y11537105D01*
X32784245Y11707105D02*
X32614245Y11537105D01*
X32788895Y19327105D02*
X32958895Y19157105D01*
X32958895Y19327105D02*
X32788895Y19157105D01*
X32852395Y17422105D02*
X33022395Y17252105D01*
X33022395Y17422105D02*
X32852395Y17252105D01*
X32855895Y11706855D02*
X33025895Y11536855D01*
X33025895Y11706855D02*
X32855895Y11536855D01*
X32856895Y21710355D02*
X33026895Y21540355D01*
X33026895Y21710355D02*
X32856895Y21540355D01*
X33265145Y21708355D02*
X33435145Y21538355D01*
X33435145Y21708355D02*
X33265145Y21538355D01*
X33265145Y13612105D02*
X33435145Y13442105D01*
X33435145Y13612105D02*
X33265145Y13442105D01*
X33328645Y15517105D02*
X33498645Y15347105D01*
X33498645Y15517105D02*
X33328645Y15347105D01*
X33741395Y17422105D02*
X33911395Y17252105D01*
X33911395Y17422105D02*
X33741395Y17252105D01*
X33743895Y21709355D02*
X33913895Y21539355D01*
X33913895Y21709355D02*
X33743895Y21539355D01*
X33804895Y19327105D02*
X33974895Y19157105D01*
X33974895Y19327105D02*
X33804895Y19157105D01*
X33979495Y11707105D02*
X34149495Y11537105D01*
X34149495Y11707105D02*
X33979495Y11537105D01*
X34217645Y15517105D02*
X34387645Y15347105D01*
X34387645Y15517105D02*
X34217645Y15347105D01*
X34218895Y11705355D02*
X34388895Y11535355D01*
X34388895Y11705355D02*
X34218895Y11535355D01*
X34281145Y21708355D02*
X34451145Y21538355D01*
X34451145Y21708355D02*
X34281145Y21538355D01*
X34281145Y13612105D02*
X34451145Y13442105D01*
X34451145Y13612105D02*
X34281145Y13442105D01*
X34693895Y19327105D02*
X34863895Y19157105D01*
X34863895Y19327105D02*
X34693895Y19157105D01*
X34757395Y17422105D02*
X34927395Y17252105D01*
X34927395Y17422105D02*
X34757395Y17252105D01*
X34759895Y21709355D02*
X34929895Y21539355D01*
X34929895Y21709355D02*
X34759895Y21539355D01*
X34995495Y11707105D02*
X35165495Y11537105D01*
X35165495Y11707105D02*
X34995495Y11537105D01*
X35170145Y21708355D02*
X35340145Y21538355D01*
X35340145Y21708355D02*
X35170145Y21538355D01*
X35170145Y13612105D02*
X35340145Y13442105D01*
X35340145Y13612105D02*
X35170145Y13442105D01*
X35233645Y15517105D02*
X35403645Y15347105D01*
X35403645Y15517105D02*
X35233645Y15347105D01*
X35234895Y11705355D02*
X35404895Y11535355D01*
X35404895Y11705355D02*
X35234895Y11535355D01*
X35646395Y17422105D02*
X35816395Y17252105D01*
X35816395Y17422105D02*
X35646395Y17252105D01*
X35647895Y21708355D02*
X35817895Y21538355D01*
X35817895Y21708355D02*
X35647895Y21538355D01*
X35709895Y19327105D02*
X35879895Y19157105D01*
X35879895Y19327105D02*
X35709895Y19157105D01*
X36122645Y15517105D02*
X36292645Y15347105D01*
X36292645Y15517105D02*
X36122645Y15347105D01*
X36186145Y21708355D02*
X36356145Y21538355D01*
X36356145Y21708355D02*
X36186145Y21538355D01*
X36186145Y13612105D02*
X36356145Y13442105D01*
X36356145Y13612105D02*
X36186145Y13442105D01*
X36598895Y19327105D02*
X36768895Y19157105D01*
X36768895Y19327105D02*
X36598895Y19157105D01*
X36662395Y17422105D02*
X36832395Y17252105D01*
X36832395Y17422105D02*
X36662395Y17252105D01*
X36663895Y21708355D02*
X36833895Y21538355D01*
X36833895Y21708355D02*
X36663895Y21538355D01*
X37075145Y21708355D02*
X37245145Y21538355D01*
X37245145Y21708355D02*
X37075145Y21538355D01*
X37075145Y13612105D02*
X37245145Y13442105D01*
X37245145Y13612105D02*
X37075145Y13442105D01*
X37138645Y15517105D02*
X37308645Y15347105D01*
X37308645Y15517105D02*
X37138645Y15347105D01*
X37551395Y17422105D02*
X37721395Y17252105D01*
X37721395Y17422105D02*
X37551395Y17252105D01*
X37552895Y21708355D02*
X37722895Y21538355D01*
X37722895Y21708355D02*
X37552895Y21538355D01*
X37614895Y19327105D02*
X37784895Y19157105D01*
X37784895Y19327105D02*
X37614895Y19157105D01*
X38027645Y15517105D02*
X38197645Y15347105D01*
X38197645Y15517105D02*
X38027645Y15347105D01*
X38091145Y21708355D02*
X38261145Y21538355D01*
X38261145Y21708355D02*
X38091145Y21538355D01*
X38091145Y13612105D02*
X38261145Y13442105D01*
X38261145Y13612105D02*
X38091145Y13442105D01*
X38503895Y19327105D02*
X38673895Y19157105D01*
X38673895Y19327105D02*
X38503895Y19157105D01*
X38567395Y17422105D02*
X38737395Y17252105D01*
X38737395Y17422105D02*
X38567395Y17252105D01*
X38568895Y21708355D02*
X38738895Y21538355D01*
X38738895Y21708355D02*
X38568895Y21538355D01*
X38980145Y13612105D02*
X39150145Y13442105D01*
X39150145Y13612105D02*
X38980145Y13442105D01*
X39043645Y15517105D02*
X39213645Y15347105D01*
X39213645Y15517105D02*
X39043645Y15347105D01*
X39456395Y21708355D02*
X39626395Y21538355D01*
X39626395Y21708355D02*
X39456395Y21538355D01*
X39456395Y17422105D02*
X39626395Y17252105D01*
X39626395Y17422105D02*
X39456395Y17252105D01*
X39519895Y19327105D02*
X39689895Y19157105D01*
X39689895Y19327105D02*
X39519895Y19157105D01*
X39932645Y15517105D02*
X40102645Y15347105D01*
X40102645Y15517105D02*
X39932645Y15347105D01*
X39996145Y13612105D02*
X40166145Y13442105D01*
X40166145Y13612105D02*
X39996145Y13442105D01*
X40408895Y19327105D02*
X40578895Y19157105D01*
X40578895Y19327105D02*
X40408895Y19157105D01*
X40412895Y21707355D02*
X40582895Y21537355D01*
X40582895Y21707355D02*
X40412895Y21537355D01*
X40472395Y21708355D02*
X40642395Y21538355D01*
X40642395Y21708355D02*
X40472395Y21538355D01*
X40472395Y17422105D02*
X40642395Y17252105D01*
X40642395Y17422105D02*
X40472395Y17252105D01*
X40885145Y13612105D02*
X41055145Y13442105D01*
X41055145Y13612105D02*
X40885145Y13442105D01*
X40948645Y15517105D02*
X41118645Y15347105D01*
X41118645Y15517105D02*
X40948645Y15347105D01*
X41123245Y11707105D02*
X41293245Y11537105D01*
X41293245Y11707105D02*
X41123245Y11537105D01*
X41361395Y21708355D02*
X41531395Y21538355D01*
X41531395Y21708355D02*
X41361395Y21538355D01*
X41361395Y17422105D02*
X41531395Y17252105D01*
X41531395Y17422105D02*
X41361395Y17252105D01*
X41424895Y19327105D02*
X41594895Y19157105D01*
X41594895Y19327105D02*
X41424895Y19157105D01*
X41428895Y21707355D02*
X41598895Y21537355D01*
X41598895Y21707355D02*
X41428895Y21537355D01*
X41837645Y15517105D02*
X42007645Y15347105D01*
X42007645Y15517105D02*
X41837645Y15347105D01*
X41901145Y13612105D02*
X42071145Y13442105D01*
X42071145Y13612105D02*
X41901145Y13442105D01*
X42139245Y11707105D02*
X42309245Y11537105D01*
X42309245Y11707105D02*
X42139245Y11537105D01*
X42313895Y19327105D02*
X42483895Y19157105D01*
X42483895Y19327105D02*
X42313895Y19157105D01*
X42314895Y11706855D02*
X42484895Y11536855D01*
X42484895Y11706855D02*
X42314895Y11536855D01*
X42318895Y21708355D02*
X42488895Y21538355D01*
X42488895Y21708355D02*
X42318895Y21538355D01*
X42377395Y21708355D02*
X42547395Y21538355D01*
X42547395Y21708355D02*
X42377395Y21538355D01*
X42377395Y17422105D02*
X42547395Y17252105D01*
X42547395Y17422105D02*
X42377395Y17252105D01*
X42790145Y13612105D02*
X42960145Y13442105D01*
X42960145Y13612105D02*
X42790145Y13442105D01*
X42853645Y15517105D02*
X43023645Y15347105D01*
X43023645Y15517105D02*
X42853645Y15347105D01*
X43266395Y21708355D02*
X43436395Y21538355D01*
X43436395Y21708355D02*
X43266395Y21538355D01*
X43266395Y17422105D02*
X43436395Y17252105D01*
X43436395Y17422105D02*
X43266395Y17252105D01*
X43329895Y19327105D02*
X43499895Y19157105D01*
X43499895Y19327105D02*
X43329895Y19157105D01*
X43330895Y11706855D02*
X43500895Y11536855D01*
X43500895Y11706855D02*
X43330895Y11536855D01*
X43334895Y21708355D02*
X43504895Y21538355D01*
X43504895Y21708355D02*
X43334895Y21538355D01*
X43742645Y15517105D02*
X43912645Y15347105D01*
X43912645Y15517105D02*
X43742645Y15347105D01*
X43806145Y13612105D02*
X43976145Y13442105D01*
X43976145Y13612105D02*
X43806145Y13442105D01*
X44218895Y19327105D02*
X44388895Y19157105D01*
X44388895Y19327105D02*
X44218895Y19157105D01*
X44222895Y21709355D02*
X44392895Y21539355D01*
X44392895Y21709355D02*
X44222895Y21539355D01*
X44282395Y21708355D02*
X44452395Y21538355D01*
X44452395Y21708355D02*
X44282395Y21538355D01*
X44282395Y17422105D02*
X44452395Y17252105D01*
X44452395Y17422105D02*
X44282395Y17252105D01*
X44695145Y13612105D02*
X44865145Y13442105D01*
X44865145Y13612105D02*
X44695145Y13442105D01*
X44758645Y15517105D02*
X44928645Y15347105D01*
X44928645Y15517105D02*
X44758645Y15347105D01*
X45171395Y21708355D02*
X45341395Y21538355D01*
X45341395Y21708355D02*
X45171395Y21538355D01*
X45171395Y17422105D02*
X45341395Y17252105D01*
X45341395Y17422105D02*
X45171395Y17252105D01*
X45234895Y19327105D02*
X45404895Y19157105D01*
X45404895Y19327105D02*
X45234895Y19157105D01*
X45238895Y21709355D02*
X45408895Y21539355D01*
X45408895Y21709355D02*
X45238895Y21539355D01*
X45647645Y15517105D02*
X45817645Y15347105D01*
X45817645Y15517105D02*
X45647645Y15347105D01*
X45711145Y13612105D02*
X45881145Y13442105D01*
X45881145Y13612105D02*
X45711145Y13442105D01*
X46123895Y19327105D02*
X46293895Y19157105D01*
X46293895Y19327105D02*
X46123895Y19157105D01*
X46128895Y21709355D02*
X46298895Y21539355D01*
X46298895Y21709355D02*
X46128895Y21539355D01*
X46187395Y21708355D02*
X46357395Y21538355D01*
X46357395Y21708355D02*
X46187395Y21538355D01*
X46187395Y17422105D02*
X46357395Y17252105D01*
X46357395Y17422105D02*
X46187395Y17252105D01*
X46600145Y13612105D02*
X46770145Y13442105D01*
X46770145Y13612105D02*
X46600145Y13442105D01*
X46663645Y15517105D02*
X46833645Y15347105D01*
X46833645Y15517105D02*
X46663645Y15347105D01*
X47076395Y17422105D02*
X47246395Y17252105D01*
X47246395Y17422105D02*
X47076395Y17252105D01*
X47139895Y19327105D02*
X47309895Y19157105D01*
X47309895Y19327105D02*
X47139895Y19157105D01*
X47144895Y21709355D02*
X47314895Y21539355D01*
X47314895Y21709355D02*
X47144895Y21539355D01*
X47552645Y21708355D02*
X47722645Y21538355D01*
X47722645Y21708355D02*
X47552645Y21538355D01*
X47552645Y15517105D02*
X47722645Y15347105D01*
X47722645Y15517105D02*
X47552645Y15347105D01*
X47616145Y13612105D02*
X47786145Y13442105D01*
X47786145Y13612105D02*
X47616145Y13442105D01*
X48028895Y19327105D02*
X48198895Y19157105D01*
X48198895Y19327105D02*
X48028895Y19157105D01*
X48092395Y17422105D02*
X48262395Y17252105D01*
X48262395Y17422105D02*
X48092395Y17252105D01*
X48266995Y11707105D02*
X48436995Y11537105D01*
X48436995Y11707105D02*
X48266995Y11537105D01*
X48505145Y13612105D02*
X48675145Y13442105D01*
X48675145Y13612105D02*
X48505145Y13442105D01*
X48568645Y21708355D02*
X48738645Y21538355D01*
X48738645Y21708355D02*
X48568645Y21538355D01*
X48568645Y15517105D02*
X48738645Y15347105D01*
X48738645Y15517105D02*
X48568645Y15347105D01*
X48981395Y17422105D02*
X49151395Y17252105D01*
X49151395Y17422105D02*
X48981395Y17252105D01*
X48984895Y21708355D02*
X49154895Y21538355D01*
X49154895Y21708355D02*
X48984895Y21538355D01*
X49044895Y19327105D02*
X49214895Y19157105D01*
X49214895Y19327105D02*
X49044895Y19157105D01*
X49282995Y11707105D02*
X49452995Y11537105D01*
X49452995Y11707105D02*
X49282995Y11537105D01*
X49457645Y21708355D02*
X49627645Y21538355D01*
X49627645Y21708355D02*
X49457645Y21538355D01*
X49457645Y15517105D02*
X49627645Y15347105D01*
X49627645Y15517105D02*
X49457645Y15347105D01*
X49521145Y13612105D02*
X49691145Y13442105D01*
X49691145Y13612105D02*
X49521145Y13442105D01*
X49933895Y19327105D02*
X50103895Y19157105D01*
X50103895Y19327105D02*
X49933895Y19157105D01*
X49997395Y17422105D02*
X50167395Y17252105D01*
X50167395Y17422105D02*
X49997395Y17252105D01*
X50000895Y21708355D02*
X50170895Y21538355D01*
X50170895Y21708355D02*
X50000895Y21538355D01*
X50410145Y13612105D02*
X50580145Y13442105D01*
X50580145Y13612105D02*
X50410145Y13442105D01*
X50410895Y11706355D02*
X50580895Y11536355D01*
X50580895Y11706355D02*
X50410895Y11536355D01*
X50473645Y21708355D02*
X50643645Y21538355D01*
X50643645Y21708355D02*
X50473645Y21538355D01*
X50473645Y15517105D02*
X50643645Y15347105D01*
X50643645Y15517105D02*
X50473645Y15347105D01*
X50648245Y11707105D02*
X50818245Y11537105D01*
X50818245Y11707105D02*
X50648245Y11537105D01*
X50886395Y17422105D02*
X51056395Y17252105D01*
X51056395Y17422105D02*
X50886395Y17252105D01*
X50888895Y21707355D02*
X51058895Y21537355D01*
X51058895Y21707355D02*
X50888895Y21537355D01*
X50949895Y19327105D02*
X51119895Y19157105D01*
X51119895Y19327105D02*
X50949895Y19157105D01*
X51362645Y21708355D02*
X51532645Y21538355D01*
X51532645Y21708355D02*
X51362645Y21538355D01*
X51362645Y15517105D02*
X51532645Y15347105D01*
X51532645Y15517105D02*
X51362645Y15347105D01*
X51426145Y13612105D02*
X51596145Y13442105D01*
X51596145Y13612105D02*
X51426145Y13442105D01*
X51426895Y11706355D02*
X51596895Y11536355D01*
X51596895Y11706355D02*
X51426895Y11536355D01*
X51664245Y11707105D02*
X51834245Y11537105D01*
X51834245Y11707105D02*
X51664245Y11537105D01*
X51838895Y19327105D02*
X52008895Y19157105D01*
X52008895Y19327105D02*
X51838895Y19157105D01*
X51902395Y17422105D02*
X52072395Y17252105D01*
X52072395Y17422105D02*
X51902395Y17252105D01*
X51904895Y21707355D02*
X52074895Y21537355D01*
X52074895Y21707355D02*
X51904895Y21537355D01*
X52378645Y21708355D02*
X52548645Y21538355D01*
X52548645Y21708355D02*
X52378645Y21538355D01*
X52378645Y15517105D02*
X52548645Y15347105D01*
X52548645Y15517105D02*
X52378645Y15347105D01*
X52791395Y17422105D02*
X52961395Y17252105D01*
X52961395Y17422105D02*
X52791395Y17252105D01*
X52793895Y21708355D02*
X52963895Y21538355D01*
X52963895Y21708355D02*
X52793895Y21538355D01*
X52854895Y19327105D02*
X53024895Y19157105D01*
X53024895Y19327105D02*
X52854895Y19157105D01*
X53029545Y13612105D02*
X53199545Y13442105D01*
X53199545Y13612105D02*
X53029545Y13442105D01*
X53267645Y21708355D02*
X53437645Y21538355D01*
X53437645Y21708355D02*
X53267645Y21538355D01*
X53743895Y19327105D02*
X53913895Y19157105D01*
X53913895Y19327105D02*
X53743895Y19157105D01*
X53743895Y11707105D02*
X53913895Y11537105D01*
X53913895Y11707105D02*
X53743895Y11537105D01*
X53807395Y17422105D02*
X53977395Y17252105D01*
X53977395Y17422105D02*
X53807395Y17252105D01*
X53809895Y21708355D02*
X53979895Y21538355D01*
X53979895Y21708355D02*
X53809895Y21538355D01*
X54045545Y13612105D02*
X54215545Y13442105D01*
X54215545Y13612105D02*
X54045545Y13442105D01*
X54283645Y21708355D02*
X54453645Y21538355D01*
X54453645Y21708355D02*
X54283645Y21538355D01*
X54465705Y15517105D02*
X54635705Y15347105D01*
X54635705Y15517105D02*
X54465705Y15347105D01*
X54696395Y19327105D02*
X54866395Y19157105D01*
X54866395Y19327105D02*
X54696395Y19157105D01*
X54698895Y21708355D02*
X54868895Y21538355D01*
X54868895Y21708355D02*
X54698895Y21538355D01*
X54759895Y19327105D02*
X54929895Y19157105D01*
X54929895Y19327105D02*
X54759895Y19157105D01*
X54759895Y11707105D02*
X54929895Y11537105D01*
X54929895Y11707105D02*
X54759895Y11537105D01*
X55172695Y17422105D02*
X55342695Y17252105D01*
X55342695Y17422105D02*
X55172695Y17252105D01*
X55481705Y15517105D02*
X55651705Y15347105D01*
X55651705Y15517105D02*
X55481705Y15347105D01*
X55648895Y21708355D02*
X55818895Y21538355D01*
X55818895Y21708355D02*
X55648895Y21538355D01*
X55648895Y19327105D02*
X55818895Y19157105D01*
X55818895Y19327105D02*
X55648895Y19157105D01*
X55648895Y13612105D02*
X55818895Y13442105D01*
X55818895Y13612105D02*
X55648895Y13442105D01*
X55648895Y11707105D02*
X55818895Y11537105D01*
X55818895Y11707105D02*
X55648895Y11537105D01*
X55712395Y19327105D02*
X55882395Y19157105D01*
X55882395Y19327105D02*
X55712395Y19157105D01*
X55714895Y21708355D02*
X55884895Y21538355D01*
X55884895Y21708355D02*
X55714895Y21538355D01*
X56188695Y17422105D02*
X56358695Y17252105D01*
X56358695Y17422105D02*
X56188695Y17252105D01*
X56664895Y21708355D02*
X56834895Y21538355D01*
X56834895Y21708355D02*
X56664895Y21538355D01*
X56664895Y19327105D02*
X56834895Y19157105D01*
X56834895Y19327105D02*
X56664895Y19157105D01*
X56664895Y13612105D02*
X56834895Y13442105D01*
X56834895Y13612105D02*
X56664895Y13442105D01*
X56664895Y11707105D02*
X56834895Y11537105D01*
X56834895Y11707105D02*
X56664895Y11537105D01*
X57553895Y21708355D02*
X57723895Y21538355D01*
X57723895Y21708355D02*
X57553895Y21538355D01*
X57553895Y19327105D02*
X57723895Y19157105D01*
X57723895Y19327105D02*
X57553895Y19157105D01*
X57553895Y17422105D02*
X57723895Y17252105D01*
X57723895Y17422105D02*
X57553895Y17252105D01*
X57553895Y15517105D02*
X57723895Y15347105D01*
X57723895Y15517105D02*
X57553895Y15347105D01*
X57553895Y13612105D02*
X57723895Y13442105D01*
X57723895Y13612105D02*
X57553895Y13442105D01*
X57553895Y11707105D02*
X57723895Y11537105D01*
X57723895Y11707105D02*
X57553895Y11537105D01*
X58569895Y21708355D02*
X58739895Y21538355D01*
X58739895Y21708355D02*
X58569895Y21538355D01*
X58569895Y19327105D02*
X58739895Y19157105D01*
X58739895Y19327105D02*
X58569895Y19157105D01*
X58569895Y17422105D02*
X58739895Y17252105D01*
X58739895Y17422105D02*
X58569895Y17252105D01*
X58569895Y15517105D02*
X58739895Y15347105D01*
X58739895Y15517105D02*
X58569895Y15347105D01*
X58569895Y13612105D02*
X58739895Y13442105D01*
X58739895Y13612105D02*
X58569895Y13442105D01*
X58569895Y11707105D02*
X58739895Y11537105D01*
X58739895Y11707105D02*
X58569895Y11537105D01*
D13*
X29728555Y14225605D02*
G75*
G02*
X29423755Y14225605I-152400J0D01*
G01*
X29423755Y14225605D02*
G75*
G02*
X29728555Y14225605I152400J0D01*
G01*
X32116155Y14225605D02*
G75*
G02*
X31811355Y14225605I-152400J0D01*
G01*
X31811355Y14225605D02*
G75*
G02*
X32116155Y14225605I152400J0D01*
G01*
X36868655Y10923605D02*
G75*
G02*
X36563855Y10923605I-152400J0D01*
G01*
X36563855Y10923605D02*
G75*
G02*
X36868655Y10923605I152400J0D01*
G01*
X37345295Y10923355D02*
G75*
G02*
X37040495Y10923355I-152400J0D01*
G01*
X37040495Y10923355D02*
G75*
G02*
X37345295Y10923355I152400J0D01*
G01*
X46868635Y10923605D02*
G75*
G02*
X46563835Y10923605I-152400J0D01*
G01*
X46563835Y10923605D02*
G75*
G02*
X46868635Y10923605I152400J0D01*
G01*
X48775295Y10923355D02*
G75*
G02*
X48470495Y10923355I-152400J0D01*
G01*
X48470495Y10923355D02*
G75*
G02*
X48775295Y10923355I152400J0D01*
G01*
X54017305Y16130605D02*
G75*
G02*
X53712505Y16130605I-152400J0D01*
G01*
X53712505Y16130605D02*
G75*
G02*
X54017305Y16130605I152400J0D01*
G01*
X54247995Y19940605D02*
G75*
G02*
X53943195Y19940605I-152400J0D01*
G01*
X53943195Y19940605D02*
G75*
G02*
X54247995Y19940605I152400J0D01*
G01*
X56404905Y16130605D02*
G75*
G02*
X56100105Y16130605I-152400J0D01*
G01*
X56100105Y16130605D02*
G75*
G02*
X56404905Y16130605I152400J0D01*
G01*
X56635595Y19940605D02*
G75*
G02*
X56330795Y19940605I-152400J0D01*
G01*
X56330795Y19940605D02*
G75*
G02*
X56635595Y19940605I152400J0D01*
G01*
D14*
X29576155Y12900995D02*
X29576155Y12502215D01*
X29376765Y12701605D02*
X29775545Y12701605D01*
X31963755Y12900995D02*
X31963755Y12502215D01*
X31764365Y12701605D02*
X32163145Y12701605D01*
X36716255Y12646995D02*
X36716255Y12248215D01*
X36516865Y12447605D02*
X36915645Y12447605D01*
X37192895Y12646745D02*
X37192895Y12247965D01*
X36993505Y12447355D02*
X37392285Y12447355D01*
X46716235Y12646995D02*
X46716235Y12248215D01*
X46516845Y12447605D02*
X46915625Y12447605D01*
X48622895Y12646745D02*
X48622895Y12247965D01*
X48423505Y12447355D02*
X48822285Y12447355D01*
X53864905Y14805995D02*
X53864905Y14407215D01*
X53665515Y14606605D02*
X54064295Y14606605D01*
X54095595Y18615995D02*
X54095595Y18217215D01*
X53896205Y18416605D02*
X54294985Y18416605D01*
X56252505Y14805995D02*
X56252505Y14407215D01*
X56053115Y14606605D02*
X56451895Y14606605D01*
X56483195Y18615995D02*
X56483195Y18217215D01*
X56283805Y18416605D02*
X56682585Y18416605D01*
D15*
X29713317Y21481933D02*
X29713317Y21764778D01*
X29430472Y21764778D01*
X29430472Y21481933D01*
X29713317Y21481933D01*
X29713317Y19100683D02*
X29713317Y19383528D01*
X29430472Y19383528D01*
X29430472Y19100683D01*
X29713317Y19100683D01*
X29951417Y15290683D02*
X29951417Y15573528D01*
X29668572Y15573528D01*
X29668572Y15290683D01*
X29951417Y15290683D01*
X29951417Y11480683D02*
X29951417Y11763528D01*
X29668572Y11763528D01*
X29668572Y11480683D01*
X29951417Y11480683D01*
X30189617Y17195683D02*
X30189617Y17478528D01*
X29906772Y17478528D01*
X29906772Y17195683D01*
X30189617Y17195683D01*
X30194317Y11479933D02*
X30194317Y11762778D01*
X29911472Y11762778D01*
X29911472Y11479933D01*
X30194317Y11479933D01*
X30427717Y15290683D02*
X30427717Y15573528D01*
X30144872Y15573528D01*
X30144872Y15290683D01*
X30427717Y15290683D01*
X30911377Y13385683D02*
X30911377Y13668528D01*
X30628532Y13668528D01*
X30628532Y13385683D01*
X30911377Y13385683D01*
X31618317Y19100683D02*
X31618317Y19383528D01*
X31335472Y19383528D01*
X31335472Y19100683D01*
X31618317Y19100683D01*
X32094567Y21481933D02*
X32094567Y21764778D01*
X31811722Y21764778D01*
X31811722Y21481933D01*
X32094567Y21481933D01*
X32332667Y11480683D02*
X32332667Y11763528D01*
X32049822Y11763528D01*
X32049822Y11480683D01*
X32332667Y11480683D01*
X32570817Y17195683D02*
X32570817Y17478528D01*
X32287972Y17478528D01*
X32287972Y17195683D01*
X32570817Y17195683D01*
X32574317Y11480433D02*
X32574317Y11763278D01*
X32291472Y11763278D01*
X32291472Y11480433D01*
X32574317Y11480433D01*
X32575317Y21483933D02*
X32575317Y21766778D01*
X32292472Y21766778D01*
X32292472Y21483933D01*
X32575317Y21483933D01*
X33047067Y15290683D02*
X33047067Y15573528D01*
X32764222Y15573528D01*
X32764222Y15290683D01*
X33047067Y15290683D01*
X33523317Y19100683D02*
X33523317Y19383528D01*
X33240472Y19383528D01*
X33240472Y19100683D01*
X33523317Y19100683D01*
X33999567Y21481933D02*
X33999567Y21764778D01*
X33716722Y21764778D01*
X33716722Y21481933D01*
X33999567Y21481933D01*
X33999567Y13385683D02*
X33999567Y13668528D01*
X33716722Y13668528D01*
X33716722Y13385683D01*
X33999567Y13385683D01*
X34475817Y17195683D02*
X34475817Y17478528D01*
X34192972Y17478528D01*
X34192972Y17195683D01*
X34475817Y17195683D01*
X34478317Y21482933D02*
X34478317Y21765778D01*
X34195472Y21765778D01*
X34195472Y21482933D01*
X34478317Y21482933D01*
X34713917Y11480683D02*
X34713917Y11763528D01*
X34431072Y11763528D01*
X34431072Y11480683D01*
X34713917Y11480683D01*
X34952067Y15290683D02*
X34952067Y15573528D01*
X34669222Y15573528D01*
X34669222Y15290683D01*
X34952067Y15290683D01*
X34953317Y11478933D02*
X34953317Y11761778D01*
X34670472Y11761778D01*
X34670472Y11478933D01*
X34953317Y11478933D01*
X35428317Y19100683D02*
X35428317Y19383528D01*
X35145472Y19383528D01*
X35145472Y19100683D01*
X35428317Y19100683D01*
X35904567Y21481933D02*
X35904567Y21764778D01*
X35621722Y21764778D01*
X35621722Y21481933D01*
X35904567Y21481933D01*
X35904567Y13385683D02*
X35904567Y13668528D01*
X35621722Y13668528D01*
X35621722Y13385683D01*
X35904567Y13385683D01*
X36380817Y17195683D02*
X36380817Y17478528D01*
X36097972Y17478528D01*
X36097972Y17195683D01*
X36380817Y17195683D01*
X36382317Y21481933D02*
X36382317Y21764778D01*
X36099472Y21764778D01*
X36099472Y21481933D01*
X36382317Y21481933D01*
X36857067Y15290683D02*
X36857067Y15573528D01*
X36574222Y15573528D01*
X36574222Y15290683D01*
X36857067Y15290683D01*
X37333317Y19100683D02*
X37333317Y19383528D01*
X37050472Y19383528D01*
X37050472Y19100683D01*
X37333317Y19100683D01*
X37809567Y21481933D02*
X37809567Y21764778D01*
X37526722Y21764778D01*
X37526722Y21481933D01*
X37809567Y21481933D01*
X37809567Y13385683D02*
X37809567Y13668528D01*
X37526722Y13668528D01*
X37526722Y13385683D01*
X37809567Y13385683D01*
X38285817Y17195683D02*
X38285817Y17478528D01*
X38002972Y17478528D01*
X38002972Y17195683D01*
X38285817Y17195683D01*
X38287317Y21481933D02*
X38287317Y21764778D01*
X38004472Y21764778D01*
X38004472Y21481933D01*
X38287317Y21481933D01*
X38762067Y15290683D02*
X38762067Y15573528D01*
X38479222Y15573528D01*
X38479222Y15290683D01*
X38762067Y15290683D01*
X39238317Y19100683D02*
X39238317Y19383528D01*
X38955472Y19383528D01*
X38955472Y19100683D01*
X39238317Y19100683D01*
X39714567Y13385683D02*
X39714567Y13668528D01*
X39431722Y13668528D01*
X39431722Y13385683D01*
X39714567Y13385683D01*
X40190817Y21481933D02*
X40190817Y21764778D01*
X39907972Y21764778D01*
X39907972Y21481933D01*
X40190817Y21481933D01*
X40190817Y17195683D02*
X40190817Y17478528D01*
X39907972Y17478528D01*
X39907972Y17195683D01*
X40190817Y17195683D01*
X40667067Y15290683D02*
X40667067Y15573528D01*
X40384222Y15573528D01*
X40384222Y15290683D01*
X40667067Y15290683D01*
X41143317Y19100683D02*
X41143317Y19383528D01*
X40860472Y19383528D01*
X40860472Y19100683D01*
X41143317Y19100683D01*
X41147317Y21480933D02*
X41147317Y21763778D01*
X40864472Y21763778D01*
X40864472Y21480933D01*
X41147317Y21480933D01*
X41619567Y13385683D02*
X41619567Y13668528D01*
X41336722Y13668528D01*
X41336722Y13385683D01*
X41619567Y13385683D01*
X41857667Y11480683D02*
X41857667Y11763528D01*
X41574822Y11763528D01*
X41574822Y11480683D01*
X41857667Y11480683D01*
X42095817Y21481933D02*
X42095817Y21764778D01*
X41812972Y21764778D01*
X41812972Y21481933D01*
X42095817Y21481933D01*
X42095817Y17195683D02*
X42095817Y17478528D01*
X41812972Y17478528D01*
X41812972Y17195683D01*
X42095817Y17195683D01*
X42572067Y15290683D02*
X42572067Y15573528D01*
X42289222Y15573528D01*
X42289222Y15290683D01*
X42572067Y15290683D01*
X43048317Y19100683D02*
X43048317Y19383528D01*
X42765472Y19383528D01*
X42765472Y19100683D01*
X43048317Y19100683D01*
X43049317Y11480433D02*
X43049317Y11763278D01*
X42766472Y11763278D01*
X42766472Y11480433D01*
X43049317Y11480433D01*
X43053317Y21481933D02*
X43053317Y21764778D01*
X42770472Y21764778D01*
X42770472Y21481933D01*
X43053317Y21481933D01*
X43524567Y13385683D02*
X43524567Y13668528D01*
X43241722Y13668528D01*
X43241722Y13385683D01*
X43524567Y13385683D01*
X44000817Y21481933D02*
X44000817Y21764778D01*
X43717972Y21764778D01*
X43717972Y21481933D01*
X44000817Y21481933D01*
X44000817Y17195683D02*
X44000817Y17478528D01*
X43717972Y17478528D01*
X43717972Y17195683D01*
X44000817Y17195683D01*
X44477067Y15290683D02*
X44477067Y15573528D01*
X44194222Y15573528D01*
X44194222Y15290683D01*
X44477067Y15290683D01*
X44953317Y19100683D02*
X44953317Y19383528D01*
X44670472Y19383528D01*
X44670472Y19100683D01*
X44953317Y19100683D01*
X44957317Y21482933D02*
X44957317Y21765778D01*
X44674472Y21765778D01*
X44674472Y21482933D01*
X44957317Y21482933D01*
X45429567Y13385683D02*
X45429567Y13668528D01*
X45146722Y13668528D01*
X45146722Y13385683D01*
X45429567Y13385683D01*
X45905817Y21481933D02*
X45905817Y21764778D01*
X45622972Y21764778D01*
X45622972Y21481933D01*
X45905817Y21481933D01*
X45905817Y17195683D02*
X45905817Y17478528D01*
X45622972Y17478528D01*
X45622972Y17195683D01*
X45905817Y17195683D01*
X46382067Y15290683D02*
X46382067Y15573528D01*
X46099222Y15573528D01*
X46099222Y15290683D01*
X46382067Y15290683D01*
X46858317Y19100683D02*
X46858317Y19383528D01*
X46575472Y19383528D01*
X46575472Y19100683D01*
X46858317Y19100683D01*
X46863317Y21482933D02*
X46863317Y21765778D01*
X46580472Y21765778D01*
X46580472Y21482933D01*
X46863317Y21482933D01*
X47334567Y13385683D02*
X47334567Y13668528D01*
X47051722Y13668528D01*
X47051722Y13385683D01*
X47334567Y13385683D01*
X47810817Y17195683D02*
X47810817Y17478528D01*
X47527972Y17478528D01*
X47527972Y17195683D01*
X47810817Y17195683D01*
X48287067Y21481933D02*
X48287067Y21764778D01*
X48004222Y21764778D01*
X48004222Y21481933D01*
X48287067Y21481933D01*
X48287067Y15290683D02*
X48287067Y15573528D01*
X48004222Y15573528D01*
X48004222Y15290683D01*
X48287067Y15290683D01*
X48763317Y19100683D02*
X48763317Y19383528D01*
X48480472Y19383528D01*
X48480472Y19100683D01*
X48763317Y19100683D01*
X49001417Y11480683D02*
X49001417Y11763528D01*
X48718572Y11763528D01*
X48718572Y11480683D01*
X49001417Y11480683D01*
X49239567Y13385683D02*
X49239567Y13668528D01*
X48956722Y13668528D01*
X48956722Y13385683D01*
X49239567Y13385683D01*
X49715817Y17195683D02*
X49715817Y17478528D01*
X49432972Y17478528D01*
X49432972Y17195683D01*
X49715817Y17195683D01*
X49719317Y21481933D02*
X49719317Y21764778D01*
X49436472Y21764778D01*
X49436472Y21481933D01*
X49719317Y21481933D01*
X50192067Y21481933D02*
X50192067Y21764778D01*
X49909222Y21764778D01*
X49909222Y21481933D01*
X50192067Y21481933D01*
X50192067Y15290683D02*
X50192067Y15573528D01*
X49909222Y15573528D01*
X49909222Y15290683D01*
X50192067Y15290683D01*
X50668317Y19100683D02*
X50668317Y19383528D01*
X50385472Y19383528D01*
X50385472Y19100683D01*
X50668317Y19100683D01*
X51144567Y13385683D02*
X51144567Y13668528D01*
X50861722Y13668528D01*
X50861722Y13385683D01*
X51144567Y13385683D01*
X51145317Y11479933D02*
X51145317Y11762778D01*
X50862472Y11762778D01*
X50862472Y11479933D01*
X51145317Y11479933D01*
X51382667Y11480683D02*
X51382667Y11763528D01*
X51099822Y11763528D01*
X51099822Y11480683D01*
X51382667Y11480683D01*
X51620817Y17195683D02*
X51620817Y17478528D01*
X51337972Y17478528D01*
X51337972Y17195683D01*
X51620817Y17195683D01*
X51623317Y21480933D02*
X51623317Y21763778D01*
X51340472Y21763778D01*
X51340472Y21480933D01*
X51623317Y21480933D01*
X52097067Y21481933D02*
X52097067Y21764778D01*
X51814222Y21764778D01*
X51814222Y21481933D01*
X52097067Y21481933D01*
X52097067Y15290683D02*
X52097067Y15573528D01*
X51814222Y15573528D01*
X51814222Y15290683D01*
X52097067Y15290683D01*
X52573317Y19100683D02*
X52573317Y19383528D01*
X52290472Y19383528D01*
X52290472Y19100683D01*
X52573317Y19100683D01*
X53525817Y17195683D02*
X53525817Y17478528D01*
X53242972Y17478528D01*
X53242972Y17195683D01*
X53525817Y17195683D01*
X53528317Y21481933D02*
X53528317Y21764778D01*
X53245472Y21764778D01*
X53245472Y21481933D01*
X53528317Y21481933D01*
X53763967Y13385683D02*
X53763967Y13668528D01*
X53481122Y13668528D01*
X53481122Y13385683D01*
X53763967Y13385683D01*
X54002067Y21481933D02*
X54002067Y21764778D01*
X53719222Y21764778D01*
X53719222Y21481933D01*
X54002067Y21481933D01*
X54478317Y19100683D02*
X54478317Y19383528D01*
X54195472Y19383528D01*
X54195472Y19100683D01*
X54478317Y19100683D01*
X54478317Y11480683D02*
X54478317Y11763528D01*
X54195472Y11763528D01*
X54195472Y11480683D01*
X54478317Y11480683D01*
X55200127Y15290683D02*
X55200127Y15573528D01*
X54917282Y15573528D01*
X54917282Y15290683D01*
X55200127Y15290683D01*
X55430817Y19100683D02*
X55430817Y19383528D01*
X55147972Y19383528D01*
X55147972Y19100683D01*
X55430817Y19100683D01*
X55433317Y21481933D02*
X55433317Y21764778D01*
X55150472Y21764778D01*
X55150472Y21481933D01*
X55433317Y21481933D01*
X55907117Y17195683D02*
X55907117Y17478528D01*
X55624272Y17478528D01*
X55624272Y17195683D01*
X55907117Y17195683D01*
X56383317Y21481933D02*
X56383317Y21764778D01*
X56100472Y21764778D01*
X56100472Y21481933D01*
X56383317Y21481933D01*
X56383317Y19100683D02*
X56383317Y19383528D01*
X56100472Y19383528D01*
X56100472Y19100683D01*
X56383317Y19100683D01*
X56383317Y13385683D02*
X56383317Y13668528D01*
X56100472Y13668528D01*
X56100472Y13385683D01*
X56383317Y13385683D01*
X56383317Y11480683D02*
X56383317Y11763528D01*
X56100472Y11763528D01*
X56100472Y11480683D01*
X56383317Y11480683D01*
X58288317Y21481933D02*
X58288317Y21764778D01*
X58005472Y21764778D01*
X58005472Y21481933D01*
X58288317Y21481933D01*
X58288317Y19100683D02*
X58288317Y19383528D01*
X58005472Y19383528D01*
X58005472Y19100683D01*
X58288317Y19100683D01*
X58288317Y17195683D02*
X58288317Y17478528D01*
X58005472Y17478528D01*
X58005472Y17195683D01*
X58288317Y17195683D01*
X58288317Y15290683D02*
X58288317Y15573528D01*
X58005472Y15573528D01*
X58005472Y15290683D01*
X58288317Y15290683D01*
X58288317Y13385683D02*
X58288317Y13668528D01*
X58005472Y13668528D01*
X58005472Y13385683D01*
X58288317Y13385683D01*
X58288317Y11480683D02*
X58288317Y11763528D01*
X58005472Y11763528D01*
X58005472Y11480683D01*
X58288317Y11480683D01*
D11*
X29110171Y10429371D02*
X29110171Y10629371D01*
X29110171Y10629371D02*
X29157790Y10629371D01*
X29157790Y10629371D02*
X29186362Y10619848D01*
X29186362Y10619848D02*
X29205410Y10600800D01*
X29205410Y10600800D02*
X29214933Y10581752D01*
X29214933Y10581752D02*
X29224457Y10543657D01*
X29224457Y10543657D02*
X29224457Y10515086D01*
X29224457Y10515086D02*
X29214933Y10476991D01*
X29214933Y10476991D02*
X29205410Y10457943D01*
X29205410Y10457943D02*
X29186362Y10438895D01*
X29186362Y10438895D02*
X29157790Y10429371D01*
X29157790Y10429371D02*
X29110171Y10429371D01*
X29310171Y10429371D02*
X29310171Y10562705D01*
X29310171Y10524610D02*
X29319695Y10543657D01*
X29319695Y10543657D02*
X29329219Y10553181D01*
X29329219Y10553181D02*
X29348267Y10562705D01*
X29348267Y10562705D02*
X29367314Y10562705D01*
X29433981Y10429371D02*
X29433981Y10562705D01*
X29433981Y10629371D02*
X29424457Y10619848D01*
X29424457Y10619848D02*
X29433981Y10610324D01*
X29433981Y10610324D02*
X29443505Y10619848D01*
X29443505Y10619848D02*
X29433981Y10629371D01*
X29433981Y10629371D02*
X29433981Y10610324D01*
X29557790Y10429371D02*
X29538743Y10438895D01*
X29538743Y10438895D02*
X29529219Y10457943D01*
X29529219Y10457943D02*
X29529219Y10629371D01*
X29662552Y10429371D02*
X29643505Y10438895D01*
X29643505Y10438895D02*
X29633981Y10457943D01*
X29633981Y10457943D02*
X29633981Y10629371D01*
X29891124Y10429371D02*
X29891124Y10629371D01*
X29891124Y10629371D02*
X29957791Y10486514D01*
X29957791Y10486514D02*
X30024457Y10629371D01*
X30024457Y10629371D02*
X30024457Y10429371D01*
X30205410Y10429371D02*
X30205410Y10534133D01*
X30205410Y10534133D02*
X30195886Y10553181D01*
X30195886Y10553181D02*
X30176838Y10562705D01*
X30176838Y10562705D02*
X30138743Y10562705D01*
X30138743Y10562705D02*
X30119695Y10553181D01*
X30205410Y10438895D02*
X30186362Y10429371D01*
X30186362Y10429371D02*
X30138743Y10429371D01*
X30138743Y10429371D02*
X30119695Y10438895D01*
X30119695Y10438895D02*
X30110171Y10457943D01*
X30110171Y10457943D02*
X30110171Y10476991D01*
X30110171Y10476991D02*
X30119695Y10496038D01*
X30119695Y10496038D02*
X30138743Y10505562D01*
X30138743Y10505562D02*
X30186362Y10505562D01*
X30186362Y10505562D02*
X30205410Y10515086D01*
X30300648Y10562705D02*
X30300648Y10362705D01*
X30300648Y10553181D02*
X30319695Y10562705D01*
X30319695Y10562705D02*
X30357791Y10562705D01*
X30357791Y10562705D02*
X30376838Y10553181D01*
X30376838Y10553181D02*
X30386362Y10543657D01*
X30386362Y10543657D02*
X30395886Y10524610D01*
X30395886Y10524610D02*
X30395886Y10467467D01*
X30395886Y10467467D02*
X30386362Y10448419D01*
X30386362Y10448419D02*
X30376838Y10438895D01*
X30376838Y10438895D02*
X30357791Y10429371D01*
X30357791Y10429371D02*
X30319695Y10429371D01*
X30319695Y10429371D02*
X30300648Y10438895D01*
X30481600Y10448419D02*
X30491124Y10438895D01*
X30491124Y10438895D02*
X30481600Y10429371D01*
X30481600Y10429371D02*
X30472076Y10438895D01*
X30472076Y10438895D02*
X30481600Y10448419D01*
X30481600Y10448419D02*
X30481600Y10429371D01*
X30481600Y10553181D02*
X30491124Y10543657D01*
X30491124Y10543657D02*
X30481600Y10534133D01*
X30481600Y10534133D02*
X30472076Y10543657D01*
X30472076Y10543657D02*
X30481600Y10553181D01*
X30481600Y10553181D02*
X30481600Y10534133D01*
D12*
X28679395Y10185855D02*
X28849395Y10015855D01*
X28849395Y10185855D02*
X28679395Y10015855D01*
D11*
X29214933Y10009371D02*
X29100648Y10009371D01*
X29157790Y10009371D02*
X29157790Y10209371D01*
X29157790Y10209371D02*
X29138743Y10180800D01*
X29138743Y10180800D02*
X29119695Y10161752D01*
X29119695Y10161752D02*
X29100648Y10152229D01*
X29300648Y10028419D02*
X29310171Y10018895D01*
X29310171Y10018895D02*
X29300648Y10009371D01*
X29300648Y10009371D02*
X29291124Y10018895D01*
X29291124Y10018895D02*
X29300648Y10028419D01*
X29300648Y10028419D02*
X29300648Y10009371D01*
X29376838Y10209371D02*
X29510171Y10209371D01*
X29510171Y10209371D02*
X29424457Y10009371D01*
X29624457Y10209371D02*
X29643505Y10209371D01*
X29643505Y10209371D02*
X29662552Y10199848D01*
X29662552Y10199848D02*
X29672076Y10190324D01*
X29672076Y10190324D02*
X29681600Y10171276D01*
X29681600Y10171276D02*
X29691124Y10133181D01*
X29691124Y10133181D02*
X29691124Y10085562D01*
X29691124Y10085562D02*
X29681600Y10047467D01*
X29681600Y10047467D02*
X29672076Y10028419D01*
X29672076Y10028419D02*
X29662552Y10018895D01*
X29662552Y10018895D02*
X29643505Y10009371D01*
X29643505Y10009371D02*
X29624457Y10009371D01*
X29624457Y10009371D02*
X29605410Y10018895D01*
X29605410Y10018895D02*
X29595886Y10028419D01*
X29595886Y10028419D02*
X29586362Y10047467D01*
X29586362Y10047467D02*
X29576838Y10085562D01*
X29576838Y10085562D02*
X29576838Y10133181D01*
X29576838Y10133181D02*
X29586362Y10171276D01*
X29586362Y10171276D02*
X29595886Y10190324D01*
X29595886Y10190324D02*
X29605410Y10199848D01*
X29605410Y10199848D02*
X29624457Y10209371D01*
X29814933Y10209371D02*
X29833981Y10209371D01*
X29833981Y10209371D02*
X29853029Y10199848D01*
X29853029Y10199848D02*
X29862552Y10190324D01*
X29862552Y10190324D02*
X29872076Y10171276D01*
X29872076Y10171276D02*
X29881600Y10133181D01*
X29881600Y10133181D02*
X29881600Y10085562D01*
X29881600Y10085562D02*
X29872076Y10047467D01*
X29872076Y10047467D02*
X29862552Y10028419D01*
X29862552Y10028419D02*
X29853029Y10018895D01*
X29853029Y10018895D02*
X29833981Y10009371D01*
X29833981Y10009371D02*
X29814933Y10009371D01*
X29814933Y10009371D02*
X29795886Y10018895D01*
X29795886Y10018895D02*
X29786362Y10028419D01*
X29786362Y10028419D02*
X29776838Y10047467D01*
X29776838Y10047467D02*
X29767314Y10085562D01*
X29767314Y10085562D02*
X29767314Y10133181D01*
X29767314Y10133181D02*
X29776838Y10171276D01*
X29776838Y10171276D02*
X29786362Y10190324D01*
X29786362Y10190324D02*
X29795886Y10199848D01*
X29795886Y10199848D02*
X29814933Y10209371D01*
X29967314Y10009371D02*
X29967314Y10142705D01*
X29967314Y10123657D02*
X29976838Y10133181D01*
X29976838Y10133181D02*
X29995886Y10142705D01*
X29995886Y10142705D02*
X30024457Y10142705D01*
X30024457Y10142705D02*
X30043505Y10133181D01*
X30043505Y10133181D02*
X30053029Y10114133D01*
X30053029Y10114133D02*
X30053029Y10009371D01*
X30053029Y10114133D02*
X30062552Y10133181D01*
X30062552Y10133181D02*
X30081600Y10142705D01*
X30081600Y10142705D02*
X30110171Y10142705D01*
X30110171Y10142705D02*
X30129219Y10133181D01*
X30129219Y10133181D02*
X30138743Y10114133D01*
X30138743Y10114133D02*
X30138743Y10009371D01*
X30233981Y10009371D02*
X30233981Y10142705D01*
X30233981Y10123657D02*
X30243505Y10133181D01*
X30243505Y10133181D02*
X30262552Y10142705D01*
X30262552Y10142705D02*
X30291124Y10142705D01*
X30291124Y10142705D02*
X30310172Y10133181D01*
X30310172Y10133181D02*
X30319695Y10114133D01*
X30319695Y10114133D02*
X30319695Y10009371D01*
X30319695Y10114133D02*
X30329219Y10133181D01*
X30329219Y10133181D02*
X30348267Y10142705D01*
X30348267Y10142705D02*
X30376838Y10142705D01*
X30376838Y10142705D02*
X30395886Y10133181D01*
X30395886Y10133181D02*
X30405410Y10114133D01*
X30405410Y10114133D02*
X30405410Y10009371D01*
X30795886Y10218895D02*
X30624457Y9961752D01*
X31053029Y10209371D02*
X31072076Y10209371D01*
X31072076Y10209371D02*
X31091124Y10199848D01*
X31091124Y10199848D02*
X31100648Y10190324D01*
X31100648Y10190324D02*
X31110172Y10171276D01*
X31110172Y10171276D02*
X31119695Y10133181D01*
X31119695Y10133181D02*
X31119695Y10085562D01*
X31119695Y10085562D02*
X31110172Y10047467D01*
X31110172Y10047467D02*
X31100648Y10028419D01*
X31100648Y10028419D02*
X31091124Y10018895D01*
X31091124Y10018895D02*
X31072076Y10009371D01*
X31072076Y10009371D02*
X31053029Y10009371D01*
X31053029Y10009371D02*
X31033981Y10018895D01*
X31033981Y10018895D02*
X31024457Y10028419D01*
X31024457Y10028419D02*
X31014934Y10047467D01*
X31014934Y10047467D02*
X31005410Y10085562D01*
X31005410Y10085562D02*
X31005410Y10133181D01*
X31005410Y10133181D02*
X31014934Y10171276D01*
X31014934Y10171276D02*
X31024457Y10190324D01*
X31024457Y10190324D02*
X31033981Y10199848D01*
X31033981Y10199848D02*
X31053029Y10209371D01*
X31205410Y10028419D02*
X31214934Y10018895D01*
X31214934Y10018895D02*
X31205410Y10009371D01*
X31205410Y10009371D02*
X31195886Y10018895D01*
X31195886Y10018895D02*
X31205410Y10028419D01*
X31205410Y10028419D02*
X31205410Y10009371D01*
X31338743Y10209371D02*
X31357791Y10209371D01*
X31357791Y10209371D02*
X31376838Y10199848D01*
X31376838Y10199848D02*
X31386362Y10190324D01*
X31386362Y10190324D02*
X31395886Y10171276D01*
X31395886Y10171276D02*
X31405410Y10133181D01*
X31405410Y10133181D02*
X31405410Y10085562D01*
X31405410Y10085562D02*
X31395886Y10047467D01*
X31395886Y10047467D02*
X31386362Y10028419D01*
X31386362Y10028419D02*
X31376838Y10018895D01*
X31376838Y10018895D02*
X31357791Y10009371D01*
X31357791Y10009371D02*
X31338743Y10009371D01*
X31338743Y10009371D02*
X31319695Y10018895D01*
X31319695Y10018895D02*
X31310172Y10028419D01*
X31310172Y10028419D02*
X31300648Y10047467D01*
X31300648Y10047467D02*
X31291124Y10085562D01*
X31291124Y10085562D02*
X31291124Y10133181D01*
X31291124Y10133181D02*
X31300648Y10171276D01*
X31300648Y10171276D02*
X31310172Y10190324D01*
X31310172Y10190324D02*
X31319695Y10199848D01*
X31319695Y10199848D02*
X31338743Y10209371D01*
X31576838Y10209371D02*
X31538743Y10209371D01*
X31538743Y10209371D02*
X31519695Y10199848D01*
X31519695Y10199848D02*
X31510172Y10190324D01*
X31510172Y10190324D02*
X31491124Y10161752D01*
X31491124Y10161752D02*
X31481600Y10123657D01*
X31481600Y10123657D02*
X31481600Y10047467D01*
X31481600Y10047467D02*
X31491124Y10028419D01*
X31491124Y10028419D02*
X31500648Y10018895D01*
X31500648Y10018895D02*
X31519695Y10009371D01*
X31519695Y10009371D02*
X31557791Y10009371D01*
X31557791Y10009371D02*
X31576838Y10018895D01*
X31576838Y10018895D02*
X31586362Y10028419D01*
X31586362Y10028419D02*
X31595886Y10047467D01*
X31595886Y10047467D02*
X31595886Y10095086D01*
X31595886Y10095086D02*
X31586362Y10114133D01*
X31586362Y10114133D02*
X31576838Y10123657D01*
X31576838Y10123657D02*
X31557791Y10133181D01*
X31557791Y10133181D02*
X31519695Y10133181D01*
X31519695Y10133181D02*
X31500648Y10123657D01*
X31500648Y10123657D02*
X31491124Y10114133D01*
X31491124Y10114133D02*
X31481600Y10095086D01*
X31767315Y10209371D02*
X31729219Y10209371D01*
X31729219Y10209371D02*
X31710172Y10199848D01*
X31710172Y10199848D02*
X31700648Y10190324D01*
X31700648Y10190324D02*
X31681600Y10161752D01*
X31681600Y10161752D02*
X31672076Y10123657D01*
X31672076Y10123657D02*
X31672076Y10047467D01*
X31672076Y10047467D02*
X31681600Y10028419D01*
X31681600Y10028419D02*
X31691124Y10018895D01*
X31691124Y10018895D02*
X31710172Y10009371D01*
X31710172Y10009371D02*
X31748267Y10009371D01*
X31748267Y10009371D02*
X31767315Y10018895D01*
X31767315Y10018895D02*
X31776838Y10028419D01*
X31776838Y10028419D02*
X31786362Y10047467D01*
X31786362Y10047467D02*
X31786362Y10095086D01*
X31786362Y10095086D02*
X31776838Y10114133D01*
X31776838Y10114133D02*
X31767315Y10123657D01*
X31767315Y10123657D02*
X31748267Y10133181D01*
X31748267Y10133181D02*
X31710172Y10133181D01*
X31710172Y10133181D02*
X31691124Y10123657D01*
X31691124Y10123657D02*
X31681600Y10114133D01*
X31681600Y10114133D02*
X31672076Y10095086D01*
X31881600Y10009371D02*
X31919695Y10009371D01*
X31919695Y10009371D02*
X31938743Y10018895D01*
X31938743Y10018895D02*
X31948267Y10028419D01*
X31948267Y10028419D02*
X31967315Y10056991D01*
X31967315Y10056991D02*
X31976838Y10095086D01*
X31976838Y10095086D02*
X31976838Y10171276D01*
X31976838Y10171276D02*
X31967315Y10190324D01*
X31967315Y10190324D02*
X31957791Y10199848D01*
X31957791Y10199848D02*
X31938743Y10209371D01*
X31938743Y10209371D02*
X31900648Y10209371D01*
X31900648Y10209371D02*
X31881600Y10199848D01*
X31881600Y10199848D02*
X31872076Y10190324D01*
X31872076Y10190324D02*
X31862553Y10171276D01*
X31862553Y10171276D02*
X31862553Y10123657D01*
X31862553Y10123657D02*
X31872076Y10104610D01*
X31872076Y10104610D02*
X31881600Y10095086D01*
X31881600Y10095086D02*
X31900648Y10085562D01*
X31900648Y10085562D02*
X31938743Y10085562D01*
X31938743Y10085562D02*
X31957791Y10095086D01*
X31957791Y10095086D02*
X31967315Y10104610D01*
X31967315Y10104610D02*
X31976838Y10123657D01*
X32053029Y10209371D02*
X32053029Y10171276D01*
X32129219Y10209371D02*
X32129219Y10171276D01*
X32424458Y9933181D02*
X32414934Y9942705D01*
X32414934Y9942705D02*
X32395886Y9971276D01*
X32395886Y9971276D02*
X32386362Y9990324D01*
X32386362Y9990324D02*
X32376838Y10018895D01*
X32376838Y10018895D02*
X32367315Y10066514D01*
X32367315Y10066514D02*
X32367315Y10104610D01*
X32367315Y10104610D02*
X32376838Y10152229D01*
X32376838Y10152229D02*
X32386362Y10180800D01*
X32386362Y10180800D02*
X32395886Y10199848D01*
X32395886Y10199848D02*
X32414934Y10228419D01*
X32414934Y10228419D02*
X32424458Y10237943D01*
X32491124Y10190324D02*
X32500648Y10199848D01*
X32500648Y10199848D02*
X32519696Y10209371D01*
X32519696Y10209371D02*
X32567315Y10209371D01*
X32567315Y10209371D02*
X32586362Y10199848D01*
X32586362Y10199848D02*
X32595886Y10190324D01*
X32595886Y10190324D02*
X32605410Y10171276D01*
X32605410Y10171276D02*
X32605410Y10152229D01*
X32605410Y10152229D02*
X32595886Y10123657D01*
X32595886Y10123657D02*
X32481600Y10009371D01*
X32481600Y10009371D02*
X32605410Y10009371D01*
X32729219Y10209371D02*
X32748267Y10209371D01*
X32748267Y10209371D02*
X32767315Y10199848D01*
X32767315Y10199848D02*
X32776838Y10190324D01*
X32776838Y10190324D02*
X32786362Y10171276D01*
X32786362Y10171276D02*
X32795886Y10133181D01*
X32795886Y10133181D02*
X32795886Y10085562D01*
X32795886Y10085562D02*
X32786362Y10047467D01*
X32786362Y10047467D02*
X32776838Y10028419D01*
X32776838Y10028419D02*
X32767315Y10018895D01*
X32767315Y10018895D02*
X32748267Y10009371D01*
X32748267Y10009371D02*
X32729219Y10009371D01*
X32729219Y10009371D02*
X32710172Y10018895D01*
X32710172Y10018895D02*
X32700648Y10028419D01*
X32700648Y10028419D02*
X32691124Y10047467D01*
X32691124Y10047467D02*
X32681600Y10085562D01*
X32681600Y10085562D02*
X32681600Y10133181D01*
X32681600Y10133181D02*
X32691124Y10171276D01*
X32691124Y10171276D02*
X32700648Y10190324D01*
X32700648Y10190324D02*
X32710172Y10199848D01*
X32710172Y10199848D02*
X32729219Y10209371D01*
X32967315Y10142705D02*
X32967315Y10009371D01*
X32919696Y10218895D02*
X32872077Y10076038D01*
X32872077Y10076038D02*
X32995886Y10076038D01*
X33224458Y10009371D02*
X33224458Y10209371D01*
X33310172Y10009371D02*
X33310172Y10114133D01*
X33310172Y10114133D02*
X33300648Y10133181D01*
X33300648Y10133181D02*
X33281600Y10142705D01*
X33281600Y10142705D02*
X33253029Y10142705D01*
X33253029Y10142705D02*
X33233981Y10133181D01*
X33233981Y10133181D02*
X33224458Y10123657D01*
X33433981Y10009371D02*
X33414934Y10018895D01*
X33414934Y10018895D02*
X33405410Y10028419D01*
X33405410Y10028419D02*
X33395886Y10047467D01*
X33395886Y10047467D02*
X33395886Y10104610D01*
X33395886Y10104610D02*
X33405410Y10123657D01*
X33405410Y10123657D02*
X33414934Y10133181D01*
X33414934Y10133181D02*
X33433981Y10142705D01*
X33433981Y10142705D02*
X33462553Y10142705D01*
X33462553Y10142705D02*
X33481600Y10133181D01*
X33481600Y10133181D02*
X33491124Y10123657D01*
X33491124Y10123657D02*
X33500648Y10104610D01*
X33500648Y10104610D02*
X33500648Y10047467D01*
X33500648Y10047467D02*
X33491124Y10028419D01*
X33491124Y10028419D02*
X33481600Y10018895D01*
X33481600Y10018895D02*
X33462553Y10009371D01*
X33462553Y10009371D02*
X33433981Y10009371D01*
X33614934Y10009371D02*
X33595886Y10018895D01*
X33595886Y10018895D02*
X33586362Y10037943D01*
X33586362Y10037943D02*
X33586362Y10209371D01*
X33767315Y10018895D02*
X33748267Y10009371D01*
X33748267Y10009371D02*
X33710172Y10009371D01*
X33710172Y10009371D02*
X33691124Y10018895D01*
X33691124Y10018895D02*
X33681601Y10037943D01*
X33681601Y10037943D02*
X33681601Y10114133D01*
X33681601Y10114133D02*
X33691124Y10133181D01*
X33691124Y10133181D02*
X33710172Y10142705D01*
X33710172Y10142705D02*
X33748267Y10142705D01*
X33748267Y10142705D02*
X33767315Y10133181D01*
X33767315Y10133181D02*
X33776839Y10114133D01*
X33776839Y10114133D02*
X33776839Y10095086D01*
X33776839Y10095086D02*
X33681601Y10076038D01*
X33853029Y10018895D02*
X33872077Y10009371D01*
X33872077Y10009371D02*
X33910172Y10009371D01*
X33910172Y10009371D02*
X33929220Y10018895D01*
X33929220Y10018895D02*
X33938743Y10037943D01*
X33938743Y10037943D02*
X33938743Y10047467D01*
X33938743Y10047467D02*
X33929220Y10066514D01*
X33929220Y10066514D02*
X33910172Y10076038D01*
X33910172Y10076038D02*
X33881601Y10076038D01*
X33881601Y10076038D02*
X33862553Y10085562D01*
X33862553Y10085562D02*
X33853029Y10104610D01*
X33853029Y10104610D02*
X33853029Y10114133D01*
X33853029Y10114133D02*
X33862553Y10133181D01*
X33862553Y10133181D02*
X33881601Y10142705D01*
X33881601Y10142705D02*
X33910172Y10142705D01*
X33910172Y10142705D02*
X33929220Y10133181D01*
X34005410Y9933181D02*
X34014934Y9942705D01*
X34014934Y9942705D02*
X34033982Y9971276D01*
X34033982Y9971276D02*
X34043505Y9990324D01*
X34043505Y9990324D02*
X34053029Y10018895D01*
X34053029Y10018895D02*
X34062553Y10066514D01*
X34062553Y10066514D02*
X34062553Y10104610D01*
X34062553Y10104610D02*
X34053029Y10152229D01*
X34053029Y10152229D02*
X34043505Y10180800D01*
X34043505Y10180800D02*
X34033982Y10199848D01*
X34033982Y10199848D02*
X34014934Y10228419D01*
X34014934Y10228419D02*
X34005410Y10237943D01*
X34367315Y9933181D02*
X34357791Y9942705D01*
X34357791Y9942705D02*
X34338743Y9971276D01*
X34338743Y9971276D02*
X34329220Y9990324D01*
X34329220Y9990324D02*
X34319696Y10018895D01*
X34319696Y10018895D02*
X34310172Y10066514D01*
X34310172Y10066514D02*
X34310172Y10104610D01*
X34310172Y10104610D02*
X34319696Y10152229D01*
X34319696Y10152229D02*
X34329220Y10180800D01*
X34329220Y10180800D02*
X34338743Y10199848D01*
X34338743Y10199848D02*
X34357791Y10228419D01*
X34357791Y10228419D02*
X34367315Y10237943D01*
X34443505Y10142705D02*
X34443505Y10009371D01*
X34443505Y10123657D02*
X34453029Y10133181D01*
X34453029Y10133181D02*
X34472077Y10142705D01*
X34472077Y10142705D02*
X34500648Y10142705D01*
X34500648Y10142705D02*
X34519696Y10133181D01*
X34519696Y10133181D02*
X34529220Y10114133D01*
X34529220Y10114133D02*
X34529220Y10009371D01*
X34653029Y10009371D02*
X34633982Y10018895D01*
X34633982Y10018895D02*
X34624458Y10028419D01*
X34624458Y10028419D02*
X34614934Y10047467D01*
X34614934Y10047467D02*
X34614934Y10104610D01*
X34614934Y10104610D02*
X34624458Y10123657D01*
X34624458Y10123657D02*
X34633982Y10133181D01*
X34633982Y10133181D02*
X34653029Y10142705D01*
X34653029Y10142705D02*
X34681601Y10142705D01*
X34681601Y10142705D02*
X34700648Y10133181D01*
X34700648Y10133181D02*
X34710172Y10123657D01*
X34710172Y10123657D02*
X34719696Y10104610D01*
X34719696Y10104610D02*
X34719696Y10047467D01*
X34719696Y10047467D02*
X34710172Y10028419D01*
X34710172Y10028419D02*
X34700648Y10018895D01*
X34700648Y10018895D02*
X34681601Y10009371D01*
X34681601Y10009371D02*
X34653029Y10009371D01*
X34776839Y10142705D02*
X34853029Y10142705D01*
X34805410Y10209371D02*
X34805410Y10037943D01*
X34805410Y10037943D02*
X34814934Y10018895D01*
X34814934Y10018895D02*
X34833982Y10009371D01*
X34833982Y10009371D02*
X34853029Y10009371D01*
X35072077Y10142705D02*
X35072077Y9942705D01*
X35072077Y10133181D02*
X35091124Y10142705D01*
X35091124Y10142705D02*
X35129220Y10142705D01*
X35129220Y10142705D02*
X35148267Y10133181D01*
X35148267Y10133181D02*
X35157791Y10123657D01*
X35157791Y10123657D02*
X35167315Y10104610D01*
X35167315Y10104610D02*
X35167315Y10047467D01*
X35167315Y10047467D02*
X35157791Y10028419D01*
X35157791Y10028419D02*
X35148267Y10018895D01*
X35148267Y10018895D02*
X35129220Y10009371D01*
X35129220Y10009371D02*
X35091124Y10009371D01*
X35091124Y10009371D02*
X35072077Y10018895D01*
X35281601Y10009371D02*
X35262553Y10018895D01*
X35262553Y10018895D02*
X35253029Y10037943D01*
X35253029Y10037943D02*
X35253029Y10209371D01*
X35443505Y10009371D02*
X35443505Y10114133D01*
X35443505Y10114133D02*
X35433982Y10133181D01*
X35433982Y10133181D02*
X35414934Y10142705D01*
X35414934Y10142705D02*
X35376839Y10142705D01*
X35376839Y10142705D02*
X35357791Y10133181D01*
X35443505Y10018895D02*
X35424458Y10009371D01*
X35424458Y10009371D02*
X35376839Y10009371D01*
X35376839Y10009371D02*
X35357791Y10018895D01*
X35357791Y10018895D02*
X35348267Y10037943D01*
X35348267Y10037943D02*
X35348267Y10056991D01*
X35348267Y10056991D02*
X35357791Y10076038D01*
X35357791Y10076038D02*
X35376839Y10085562D01*
X35376839Y10085562D02*
X35424458Y10085562D01*
X35424458Y10085562D02*
X35443505Y10095086D01*
X35510172Y10142705D02*
X35586363Y10142705D01*
X35538744Y10209371D02*
X35538744Y10037943D01*
X35538744Y10037943D02*
X35548267Y10018895D01*
X35548267Y10018895D02*
X35567315Y10009371D01*
X35567315Y10009371D02*
X35586363Y10009371D01*
X35729220Y10018895D02*
X35710172Y10009371D01*
X35710172Y10009371D02*
X35672077Y10009371D01*
X35672077Y10009371D02*
X35653029Y10018895D01*
X35653029Y10018895D02*
X35643505Y10037943D01*
X35643505Y10037943D02*
X35643505Y10114133D01*
X35643505Y10114133D02*
X35653029Y10133181D01*
X35653029Y10133181D02*
X35672077Y10142705D01*
X35672077Y10142705D02*
X35710172Y10142705D01*
X35710172Y10142705D02*
X35729220Y10133181D01*
X35729220Y10133181D02*
X35738744Y10114133D01*
X35738744Y10114133D02*
X35738744Y10095086D01*
X35738744Y10095086D02*
X35643505Y10076038D01*
X35910172Y10009371D02*
X35910172Y10209371D01*
X35910172Y10018895D02*
X35891125Y10009371D01*
X35891125Y10009371D02*
X35853029Y10009371D01*
X35853029Y10009371D02*
X35833982Y10018895D01*
X35833982Y10018895D02*
X35824458Y10028419D01*
X35824458Y10028419D02*
X35814934Y10047467D01*
X35814934Y10047467D02*
X35814934Y10104610D01*
X35814934Y10104610D02*
X35824458Y10123657D01*
X35824458Y10123657D02*
X35833982Y10133181D01*
X35833982Y10133181D02*
X35853029Y10142705D01*
X35853029Y10142705D02*
X35891125Y10142705D01*
X35891125Y10142705D02*
X35910172Y10133181D01*
X35986363Y9933181D02*
X35995886Y9942705D01*
X35995886Y9942705D02*
X36014934Y9971276D01*
X36014934Y9971276D02*
X36024458Y9990324D01*
X36024458Y9990324D02*
X36033982Y10018895D01*
X36033982Y10018895D02*
X36043505Y10066514D01*
X36043505Y10066514D02*
X36043505Y10104610D01*
X36043505Y10104610D02*
X36033982Y10152229D01*
X36033982Y10152229D02*
X36024458Y10180800D01*
X36024458Y10180800D02*
X36014934Y10199848D01*
X36014934Y10199848D02*
X35995886Y10228419D01*
X35995886Y10228419D02*
X35986363Y10237943D01*
X28849395Y9810855D02*
G75*
G02*
X28649395Y9810855I-100000J0D01*
G01*
X28649395Y9810855D02*
G75*
G02*
X28849395Y9810855I100000J0D01*
G01*
X29091124Y9919371D02*
X29214933Y9919371D01*
X29214933Y9919371D02*
X29148267Y9843181D01*
X29148267Y9843181D02*
X29176838Y9843181D01*
X29176838Y9843181D02*
X29195886Y9833657D01*
X29195886Y9833657D02*
X29205410Y9824133D01*
X29205410Y9824133D02*
X29214933Y9805086D01*
X29214933Y9805086D02*
X29214933Y9757467D01*
X29214933Y9757467D02*
X29205410Y9738419D01*
X29205410Y9738419D02*
X29195886Y9728895D01*
X29195886Y9728895D02*
X29176838Y9719371D01*
X29176838Y9719371D02*
X29119695Y9719371D01*
X29119695Y9719371D02*
X29100648Y9728895D01*
X29100648Y9728895D02*
X29091124Y9738419D01*
X29300648Y9738419D02*
X29310171Y9728895D01*
X29310171Y9728895D02*
X29300648Y9719371D01*
X29300648Y9719371D02*
X29291124Y9728895D01*
X29291124Y9728895D02*
X29300648Y9738419D01*
X29300648Y9738419D02*
X29300648Y9719371D01*
X29433981Y9919371D02*
X29453029Y9919371D01*
X29453029Y9919371D02*
X29472076Y9909848D01*
X29472076Y9909848D02*
X29481600Y9900324D01*
X29481600Y9900324D02*
X29491124Y9881276D01*
X29491124Y9881276D02*
X29500648Y9843181D01*
X29500648Y9843181D02*
X29500648Y9795562D01*
X29500648Y9795562D02*
X29491124Y9757467D01*
X29491124Y9757467D02*
X29481600Y9738419D01*
X29481600Y9738419D02*
X29472076Y9728895D01*
X29472076Y9728895D02*
X29453029Y9719371D01*
X29453029Y9719371D02*
X29433981Y9719371D01*
X29433981Y9719371D02*
X29414933Y9728895D01*
X29414933Y9728895D02*
X29405410Y9738419D01*
X29405410Y9738419D02*
X29395886Y9757467D01*
X29395886Y9757467D02*
X29386362Y9795562D01*
X29386362Y9795562D02*
X29386362Y9843181D01*
X29386362Y9843181D02*
X29395886Y9881276D01*
X29395886Y9881276D02*
X29405410Y9900324D01*
X29405410Y9900324D02*
X29414933Y9909848D01*
X29414933Y9909848D02*
X29433981Y9919371D01*
X29672076Y9852705D02*
X29672076Y9719371D01*
X29624457Y9928895D02*
X29576838Y9786038D01*
X29576838Y9786038D02*
X29700648Y9786038D01*
X29805410Y9833657D02*
X29786362Y9843181D01*
X29786362Y9843181D02*
X29776838Y9852705D01*
X29776838Y9852705D02*
X29767314Y9871752D01*
X29767314Y9871752D02*
X29767314Y9881276D01*
X29767314Y9881276D02*
X29776838Y9900324D01*
X29776838Y9900324D02*
X29786362Y9909848D01*
X29786362Y9909848D02*
X29805410Y9919371D01*
X29805410Y9919371D02*
X29843505Y9919371D01*
X29843505Y9919371D02*
X29862552Y9909848D01*
X29862552Y9909848D02*
X29872076Y9900324D01*
X29872076Y9900324D02*
X29881600Y9881276D01*
X29881600Y9881276D02*
X29881600Y9871752D01*
X29881600Y9871752D02*
X29872076Y9852705D01*
X29872076Y9852705D02*
X29862552Y9843181D01*
X29862552Y9843181D02*
X29843505Y9833657D01*
X29843505Y9833657D02*
X29805410Y9833657D01*
X29805410Y9833657D02*
X29786362Y9824133D01*
X29786362Y9824133D02*
X29776838Y9814610D01*
X29776838Y9814610D02*
X29767314Y9795562D01*
X29767314Y9795562D02*
X29767314Y9757467D01*
X29767314Y9757467D02*
X29776838Y9738419D01*
X29776838Y9738419D02*
X29786362Y9728895D01*
X29786362Y9728895D02*
X29805410Y9719371D01*
X29805410Y9719371D02*
X29843505Y9719371D01*
X29843505Y9719371D02*
X29862552Y9728895D01*
X29862552Y9728895D02*
X29872076Y9738419D01*
X29872076Y9738419D02*
X29881600Y9757467D01*
X29881600Y9757467D02*
X29881600Y9795562D01*
X29881600Y9795562D02*
X29872076Y9814610D01*
X29872076Y9814610D02*
X29862552Y9824133D01*
X29862552Y9824133D02*
X29843505Y9833657D01*
X29967314Y9719371D02*
X29967314Y9852705D01*
X29967314Y9833657D02*
X29976838Y9843181D01*
X29976838Y9843181D02*
X29995886Y9852705D01*
X29995886Y9852705D02*
X30024457Y9852705D01*
X30024457Y9852705D02*
X30043505Y9843181D01*
X30043505Y9843181D02*
X30053029Y9824133D01*
X30053029Y9824133D02*
X30053029Y9719371D01*
X30053029Y9824133D02*
X30062552Y9843181D01*
X30062552Y9843181D02*
X30081600Y9852705D01*
X30081600Y9852705D02*
X30110171Y9852705D01*
X30110171Y9852705D02*
X30129219Y9843181D01*
X30129219Y9843181D02*
X30138743Y9824133D01*
X30138743Y9824133D02*
X30138743Y9719371D01*
X30233981Y9719371D02*
X30233981Y9852705D01*
X30233981Y9833657D02*
X30243505Y9843181D01*
X30243505Y9843181D02*
X30262552Y9852705D01*
X30262552Y9852705D02*
X30291124Y9852705D01*
X30291124Y9852705D02*
X30310172Y9843181D01*
X30310172Y9843181D02*
X30319695Y9824133D01*
X30319695Y9824133D02*
X30319695Y9719371D01*
X30319695Y9824133D02*
X30329219Y9843181D01*
X30329219Y9843181D02*
X30348267Y9852705D01*
X30348267Y9852705D02*
X30376838Y9852705D01*
X30376838Y9852705D02*
X30395886Y9843181D01*
X30395886Y9843181D02*
X30405410Y9824133D01*
X30405410Y9824133D02*
X30405410Y9719371D01*
X30795886Y9928895D02*
X30624457Y9671752D01*
X31053029Y9919371D02*
X31072076Y9919371D01*
X31072076Y9919371D02*
X31091124Y9909848D01*
X31091124Y9909848D02*
X31100648Y9900324D01*
X31100648Y9900324D02*
X31110172Y9881276D01*
X31110172Y9881276D02*
X31119695Y9843181D01*
X31119695Y9843181D02*
X31119695Y9795562D01*
X31119695Y9795562D02*
X31110172Y9757467D01*
X31110172Y9757467D02*
X31100648Y9738419D01*
X31100648Y9738419D02*
X31091124Y9728895D01*
X31091124Y9728895D02*
X31072076Y9719371D01*
X31072076Y9719371D02*
X31053029Y9719371D01*
X31053029Y9719371D02*
X31033981Y9728895D01*
X31033981Y9728895D02*
X31024457Y9738419D01*
X31024457Y9738419D02*
X31014934Y9757467D01*
X31014934Y9757467D02*
X31005410Y9795562D01*
X31005410Y9795562D02*
X31005410Y9843181D01*
X31005410Y9843181D02*
X31014934Y9881276D01*
X31014934Y9881276D02*
X31024457Y9900324D01*
X31024457Y9900324D02*
X31033981Y9909848D01*
X31033981Y9909848D02*
X31053029Y9919371D01*
X31205410Y9738419D02*
X31214934Y9728895D01*
X31214934Y9728895D02*
X31205410Y9719371D01*
X31205410Y9719371D02*
X31195886Y9728895D01*
X31195886Y9728895D02*
X31205410Y9738419D01*
X31205410Y9738419D02*
X31205410Y9719371D01*
X31405410Y9719371D02*
X31291124Y9719371D01*
X31348267Y9719371D02*
X31348267Y9919371D01*
X31348267Y9919371D02*
X31329219Y9890800D01*
X31329219Y9890800D02*
X31310172Y9871752D01*
X31310172Y9871752D02*
X31291124Y9862229D01*
X31481600Y9900324D02*
X31491124Y9909848D01*
X31491124Y9909848D02*
X31510172Y9919371D01*
X31510172Y9919371D02*
X31557791Y9919371D01*
X31557791Y9919371D02*
X31576838Y9909848D01*
X31576838Y9909848D02*
X31586362Y9900324D01*
X31586362Y9900324D02*
X31595886Y9881276D01*
X31595886Y9881276D02*
X31595886Y9862229D01*
X31595886Y9862229D02*
X31586362Y9833657D01*
X31586362Y9833657D02*
X31472076Y9719371D01*
X31472076Y9719371D02*
X31595886Y9719371D01*
X31719695Y9919371D02*
X31738743Y9919371D01*
X31738743Y9919371D02*
X31757791Y9909848D01*
X31757791Y9909848D02*
X31767315Y9900324D01*
X31767315Y9900324D02*
X31776838Y9881276D01*
X31776838Y9881276D02*
X31786362Y9843181D01*
X31786362Y9843181D02*
X31786362Y9795562D01*
X31786362Y9795562D02*
X31776838Y9757467D01*
X31776838Y9757467D02*
X31767315Y9738419D01*
X31767315Y9738419D02*
X31757791Y9728895D01*
X31757791Y9728895D02*
X31738743Y9719371D01*
X31738743Y9719371D02*
X31719695Y9719371D01*
X31719695Y9719371D02*
X31700648Y9728895D01*
X31700648Y9728895D02*
X31691124Y9738419D01*
X31691124Y9738419D02*
X31681600Y9757467D01*
X31681600Y9757467D02*
X31672076Y9795562D01*
X31672076Y9795562D02*
X31672076Y9843181D01*
X31672076Y9843181D02*
X31681600Y9881276D01*
X31681600Y9881276D02*
X31691124Y9900324D01*
X31691124Y9900324D02*
X31700648Y9909848D01*
X31700648Y9909848D02*
X31719695Y9919371D01*
X31910172Y9919371D02*
X31929219Y9919371D01*
X31929219Y9919371D02*
X31948267Y9909848D01*
X31948267Y9909848D02*
X31957791Y9900324D01*
X31957791Y9900324D02*
X31967315Y9881276D01*
X31967315Y9881276D02*
X31976838Y9843181D01*
X31976838Y9843181D02*
X31976838Y9795562D01*
X31976838Y9795562D02*
X31967315Y9757467D01*
X31967315Y9757467D02*
X31957791Y9738419D01*
X31957791Y9738419D02*
X31948267Y9728895D01*
X31948267Y9728895D02*
X31929219Y9719371D01*
X31929219Y9719371D02*
X31910172Y9719371D01*
X31910172Y9719371D02*
X31891124Y9728895D01*
X31891124Y9728895D02*
X31881600Y9738419D01*
X31881600Y9738419D02*
X31872076Y9757467D01*
X31872076Y9757467D02*
X31862553Y9795562D01*
X31862553Y9795562D02*
X31862553Y9843181D01*
X31862553Y9843181D02*
X31872076Y9881276D01*
X31872076Y9881276D02*
X31881600Y9900324D01*
X31881600Y9900324D02*
X31891124Y9909848D01*
X31891124Y9909848D02*
X31910172Y9919371D01*
X32053029Y9919371D02*
X32053029Y9881276D01*
X32129219Y9919371D02*
X32129219Y9881276D01*
X32424458Y9643181D02*
X32414934Y9652705D01*
X32414934Y9652705D02*
X32395886Y9681276D01*
X32395886Y9681276D02*
X32386362Y9700324D01*
X32386362Y9700324D02*
X32376838Y9728895D01*
X32376838Y9728895D02*
X32367315Y9776514D01*
X32367315Y9776514D02*
X32367315Y9814610D01*
X32367315Y9814610D02*
X32376838Y9862229D01*
X32376838Y9862229D02*
X32386362Y9890800D01*
X32386362Y9890800D02*
X32395886Y9909848D01*
X32395886Y9909848D02*
X32414934Y9938419D01*
X32414934Y9938419D02*
X32424458Y9947943D01*
X32605410Y9719371D02*
X32491124Y9719371D01*
X32548267Y9719371D02*
X32548267Y9919371D01*
X32548267Y9919371D02*
X32529219Y9890800D01*
X32529219Y9890800D02*
X32510172Y9871752D01*
X32510172Y9871752D02*
X32491124Y9862229D01*
X32729219Y9919371D02*
X32748267Y9919371D01*
X32748267Y9919371D02*
X32767315Y9909848D01*
X32767315Y9909848D02*
X32776838Y9900324D01*
X32776838Y9900324D02*
X32786362Y9881276D01*
X32786362Y9881276D02*
X32795886Y9843181D01*
X32795886Y9843181D02*
X32795886Y9795562D01*
X32795886Y9795562D02*
X32786362Y9757467D01*
X32786362Y9757467D02*
X32776838Y9738419D01*
X32776838Y9738419D02*
X32767315Y9728895D01*
X32767315Y9728895D02*
X32748267Y9719371D01*
X32748267Y9719371D02*
X32729219Y9719371D01*
X32729219Y9719371D02*
X32710172Y9728895D01*
X32710172Y9728895D02*
X32700648Y9738419D01*
X32700648Y9738419D02*
X32691124Y9757467D01*
X32691124Y9757467D02*
X32681600Y9795562D01*
X32681600Y9795562D02*
X32681600Y9843181D01*
X32681600Y9843181D02*
X32691124Y9881276D01*
X32691124Y9881276D02*
X32700648Y9900324D01*
X32700648Y9900324D02*
X32710172Y9909848D01*
X32710172Y9909848D02*
X32729219Y9919371D01*
X33033981Y9719371D02*
X33033981Y9919371D01*
X33119696Y9719371D02*
X33119696Y9824133D01*
X33119696Y9824133D02*
X33110172Y9843181D01*
X33110172Y9843181D02*
X33091124Y9852705D01*
X33091124Y9852705D02*
X33062553Y9852705D01*
X33062553Y9852705D02*
X33043505Y9843181D01*
X33043505Y9843181D02*
X33033981Y9833657D01*
X33243505Y9719371D02*
X33224458Y9728895D01*
X33224458Y9728895D02*
X33214934Y9738419D01*
X33214934Y9738419D02*
X33205410Y9757467D01*
X33205410Y9757467D02*
X33205410Y9814610D01*
X33205410Y9814610D02*
X33214934Y9833657D01*
X33214934Y9833657D02*
X33224458Y9843181D01*
X33224458Y9843181D02*
X33243505Y9852705D01*
X33243505Y9852705D02*
X33272077Y9852705D01*
X33272077Y9852705D02*
X33291124Y9843181D01*
X33291124Y9843181D02*
X33300648Y9833657D01*
X33300648Y9833657D02*
X33310172Y9814610D01*
X33310172Y9814610D02*
X33310172Y9757467D01*
X33310172Y9757467D02*
X33300648Y9738419D01*
X33300648Y9738419D02*
X33291124Y9728895D01*
X33291124Y9728895D02*
X33272077Y9719371D01*
X33272077Y9719371D02*
X33243505Y9719371D01*
X33424458Y9719371D02*
X33405410Y9728895D01*
X33405410Y9728895D02*
X33395886Y9747943D01*
X33395886Y9747943D02*
X33395886Y9919371D01*
X33576839Y9728895D02*
X33557791Y9719371D01*
X33557791Y9719371D02*
X33519696Y9719371D01*
X33519696Y9719371D02*
X33500648Y9728895D01*
X33500648Y9728895D02*
X33491124Y9747943D01*
X33491124Y9747943D02*
X33491124Y9824133D01*
X33491124Y9824133D02*
X33500648Y9843181D01*
X33500648Y9843181D02*
X33519696Y9852705D01*
X33519696Y9852705D02*
X33557791Y9852705D01*
X33557791Y9852705D02*
X33576839Y9843181D01*
X33576839Y9843181D02*
X33586362Y9824133D01*
X33586362Y9824133D02*
X33586362Y9805086D01*
X33586362Y9805086D02*
X33491124Y9786038D01*
X33662553Y9728895D02*
X33681601Y9719371D01*
X33681601Y9719371D02*
X33719696Y9719371D01*
X33719696Y9719371D02*
X33738743Y9728895D01*
X33738743Y9728895D02*
X33748267Y9747943D01*
X33748267Y9747943D02*
X33748267Y9757467D01*
X33748267Y9757467D02*
X33738743Y9776514D01*
X33738743Y9776514D02*
X33719696Y9786038D01*
X33719696Y9786038D02*
X33691124Y9786038D01*
X33691124Y9786038D02*
X33672077Y9795562D01*
X33672077Y9795562D02*
X33662553Y9814610D01*
X33662553Y9814610D02*
X33662553Y9824133D01*
X33662553Y9824133D02*
X33672077Y9843181D01*
X33672077Y9843181D02*
X33691124Y9852705D01*
X33691124Y9852705D02*
X33719696Y9852705D01*
X33719696Y9852705D02*
X33738743Y9843181D01*
X33814934Y9643181D02*
X33824458Y9652705D01*
X33824458Y9652705D02*
X33843505Y9681276D01*
X33843505Y9681276D02*
X33853029Y9700324D01*
X33853029Y9700324D02*
X33862553Y9728895D01*
X33862553Y9728895D02*
X33872077Y9776514D01*
X33872077Y9776514D02*
X33872077Y9814610D01*
X33872077Y9814610D02*
X33862553Y9862229D01*
X33862553Y9862229D02*
X33853029Y9890800D01*
X33853029Y9890800D02*
X33843505Y9909848D01*
X33843505Y9909848D02*
X33824458Y9938419D01*
X33824458Y9938419D02*
X33814934Y9947943D01*
X34176839Y9643181D02*
X34167315Y9652705D01*
X34167315Y9652705D02*
X34148267Y9681276D01*
X34148267Y9681276D02*
X34138743Y9700324D01*
X34138743Y9700324D02*
X34129220Y9728895D01*
X34129220Y9728895D02*
X34119696Y9776514D01*
X34119696Y9776514D02*
X34119696Y9814610D01*
X34119696Y9814610D02*
X34129220Y9862229D01*
X34129220Y9862229D02*
X34138743Y9890800D01*
X34138743Y9890800D02*
X34148267Y9909848D01*
X34148267Y9909848D02*
X34167315Y9938419D01*
X34167315Y9938419D02*
X34176839Y9947943D01*
X34253029Y9852705D02*
X34253029Y9719371D01*
X34253029Y9833657D02*
X34262553Y9843181D01*
X34262553Y9843181D02*
X34281601Y9852705D01*
X34281601Y9852705D02*
X34310172Y9852705D01*
X34310172Y9852705D02*
X34329220Y9843181D01*
X34329220Y9843181D02*
X34338743Y9824133D01*
X34338743Y9824133D02*
X34338743Y9719371D01*
X34462553Y9719371D02*
X34443505Y9728895D01*
X34443505Y9728895D02*
X34433982Y9738419D01*
X34433982Y9738419D02*
X34424458Y9757467D01*
X34424458Y9757467D02*
X34424458Y9814610D01*
X34424458Y9814610D02*
X34433982Y9833657D01*
X34433982Y9833657D02*
X34443505Y9843181D01*
X34443505Y9843181D02*
X34462553Y9852705D01*
X34462553Y9852705D02*
X34491124Y9852705D01*
X34491124Y9852705D02*
X34510172Y9843181D01*
X34510172Y9843181D02*
X34519696Y9833657D01*
X34519696Y9833657D02*
X34529220Y9814610D01*
X34529220Y9814610D02*
X34529220Y9757467D01*
X34529220Y9757467D02*
X34519696Y9738419D01*
X34519696Y9738419D02*
X34510172Y9728895D01*
X34510172Y9728895D02*
X34491124Y9719371D01*
X34491124Y9719371D02*
X34462553Y9719371D01*
X34586363Y9852705D02*
X34662553Y9852705D01*
X34614934Y9919371D02*
X34614934Y9747943D01*
X34614934Y9747943D02*
X34624458Y9728895D01*
X34624458Y9728895D02*
X34643505Y9719371D01*
X34643505Y9719371D02*
X34662553Y9719371D01*
X34881601Y9852705D02*
X34881601Y9652705D01*
X34881601Y9843181D02*
X34900648Y9852705D01*
X34900648Y9852705D02*
X34938744Y9852705D01*
X34938744Y9852705D02*
X34957791Y9843181D01*
X34957791Y9843181D02*
X34967315Y9833657D01*
X34967315Y9833657D02*
X34976839Y9814610D01*
X34976839Y9814610D02*
X34976839Y9757467D01*
X34976839Y9757467D02*
X34967315Y9738419D01*
X34967315Y9738419D02*
X34957791Y9728895D01*
X34957791Y9728895D02*
X34938744Y9719371D01*
X34938744Y9719371D02*
X34900648Y9719371D01*
X34900648Y9719371D02*
X34881601Y9728895D01*
X35091124Y9719371D02*
X35072077Y9728895D01*
X35072077Y9728895D02*
X35062553Y9747943D01*
X35062553Y9747943D02*
X35062553Y9919371D01*
X35253029Y9719371D02*
X35253029Y9824133D01*
X35253029Y9824133D02*
X35243505Y9843181D01*
X35243505Y9843181D02*
X35224458Y9852705D01*
X35224458Y9852705D02*
X35186363Y9852705D01*
X35186363Y9852705D02*
X35167315Y9843181D01*
X35253029Y9728895D02*
X35233982Y9719371D01*
X35233982Y9719371D02*
X35186363Y9719371D01*
X35186363Y9719371D02*
X35167315Y9728895D01*
X35167315Y9728895D02*
X35157791Y9747943D01*
X35157791Y9747943D02*
X35157791Y9766991D01*
X35157791Y9766991D02*
X35167315Y9786038D01*
X35167315Y9786038D02*
X35186363Y9795562D01*
X35186363Y9795562D02*
X35233982Y9795562D01*
X35233982Y9795562D02*
X35253029Y9805086D01*
X35319696Y9852705D02*
X35395886Y9852705D01*
X35348267Y9919371D02*
X35348267Y9747943D01*
X35348267Y9747943D02*
X35357791Y9728895D01*
X35357791Y9728895D02*
X35376839Y9719371D01*
X35376839Y9719371D02*
X35395886Y9719371D01*
X35538744Y9728895D02*
X35519696Y9719371D01*
X35519696Y9719371D02*
X35481601Y9719371D01*
X35481601Y9719371D02*
X35462553Y9728895D01*
X35462553Y9728895D02*
X35453029Y9747943D01*
X35453029Y9747943D02*
X35453029Y9824133D01*
X35453029Y9824133D02*
X35462553Y9843181D01*
X35462553Y9843181D02*
X35481601Y9852705D01*
X35481601Y9852705D02*
X35519696Y9852705D01*
X35519696Y9852705D02*
X35538744Y9843181D01*
X35538744Y9843181D02*
X35548267Y9824133D01*
X35548267Y9824133D02*
X35548267Y9805086D01*
X35548267Y9805086D02*
X35453029Y9786038D01*
X35719696Y9719371D02*
X35719696Y9919371D01*
X35719696Y9728895D02*
X35700648Y9719371D01*
X35700648Y9719371D02*
X35662553Y9719371D01*
X35662553Y9719371D02*
X35643505Y9728895D01*
X35643505Y9728895D02*
X35633982Y9738419D01*
X35633982Y9738419D02*
X35624458Y9757467D01*
X35624458Y9757467D02*
X35624458Y9814610D01*
X35624458Y9814610D02*
X35633982Y9833657D01*
X35633982Y9833657D02*
X35643505Y9843181D01*
X35643505Y9843181D02*
X35662553Y9852705D01*
X35662553Y9852705D02*
X35700648Y9852705D01*
X35700648Y9852705D02*
X35719696Y9843181D01*
X35795886Y9643181D02*
X35805410Y9652705D01*
X35805410Y9652705D02*
X35824458Y9681276D01*
X35824458Y9681276D02*
X35833982Y9700324D01*
X35833982Y9700324D02*
X35843505Y9728895D01*
X35843505Y9728895D02*
X35853029Y9776514D01*
X35853029Y9776514D02*
X35853029Y9814610D01*
X35853029Y9814610D02*
X35843505Y9862229D01*
X35843505Y9862229D02*
X35833982Y9890800D01*
X35833982Y9890800D02*
X35824458Y9909848D01*
X35824458Y9909848D02*
X35805410Y9938419D01*
X35805410Y9938419D02*
X35795886Y9947943D01*
X28749395Y9590855D02*
X28749395Y9390855D01*
X28649395Y9490855D02*
X28849395Y9490855D01*
X29091124Y9599371D02*
X29214933Y9599371D01*
X29214933Y9599371D02*
X29148267Y9523181D01*
X29148267Y9523181D02*
X29176838Y9523181D01*
X29176838Y9523181D02*
X29195886Y9513657D01*
X29195886Y9513657D02*
X29205410Y9504133D01*
X29205410Y9504133D02*
X29214933Y9485086D01*
X29214933Y9485086D02*
X29214933Y9437467D01*
X29214933Y9437467D02*
X29205410Y9418419D01*
X29205410Y9418419D02*
X29195886Y9408895D01*
X29195886Y9408895D02*
X29176838Y9399371D01*
X29176838Y9399371D02*
X29119695Y9399371D01*
X29119695Y9399371D02*
X29100648Y9408895D01*
X29100648Y9408895D02*
X29091124Y9418419D01*
X29300648Y9418419D02*
X29310171Y9408895D01*
X29310171Y9408895D02*
X29300648Y9399371D01*
X29300648Y9399371D02*
X29291124Y9408895D01*
X29291124Y9408895D02*
X29300648Y9418419D01*
X29300648Y9418419D02*
X29300648Y9399371D01*
X29405410Y9399371D02*
X29443505Y9399371D01*
X29443505Y9399371D02*
X29462552Y9408895D01*
X29462552Y9408895D02*
X29472076Y9418419D01*
X29472076Y9418419D02*
X29491124Y9446991D01*
X29491124Y9446991D02*
X29500648Y9485086D01*
X29500648Y9485086D02*
X29500648Y9561276D01*
X29500648Y9561276D02*
X29491124Y9580324D01*
X29491124Y9580324D02*
X29481600Y9589848D01*
X29481600Y9589848D02*
X29462552Y9599371D01*
X29462552Y9599371D02*
X29424457Y9599371D01*
X29424457Y9599371D02*
X29405410Y9589848D01*
X29405410Y9589848D02*
X29395886Y9580324D01*
X29395886Y9580324D02*
X29386362Y9561276D01*
X29386362Y9561276D02*
X29386362Y9513657D01*
X29386362Y9513657D02*
X29395886Y9494610D01*
X29395886Y9494610D02*
X29405410Y9485086D01*
X29405410Y9485086D02*
X29424457Y9475562D01*
X29424457Y9475562D02*
X29462552Y9475562D01*
X29462552Y9475562D02*
X29481600Y9485086D01*
X29481600Y9485086D02*
X29491124Y9494610D01*
X29491124Y9494610D02*
X29500648Y9513657D01*
X29614933Y9513657D02*
X29595886Y9523181D01*
X29595886Y9523181D02*
X29586362Y9532705D01*
X29586362Y9532705D02*
X29576838Y9551752D01*
X29576838Y9551752D02*
X29576838Y9561276D01*
X29576838Y9561276D02*
X29586362Y9580324D01*
X29586362Y9580324D02*
X29595886Y9589848D01*
X29595886Y9589848D02*
X29614933Y9599371D01*
X29614933Y9599371D02*
X29653029Y9599371D01*
X29653029Y9599371D02*
X29672076Y9589848D01*
X29672076Y9589848D02*
X29681600Y9580324D01*
X29681600Y9580324D02*
X29691124Y9561276D01*
X29691124Y9561276D02*
X29691124Y9551752D01*
X29691124Y9551752D02*
X29681600Y9532705D01*
X29681600Y9532705D02*
X29672076Y9523181D01*
X29672076Y9523181D02*
X29653029Y9513657D01*
X29653029Y9513657D02*
X29614933Y9513657D01*
X29614933Y9513657D02*
X29595886Y9504133D01*
X29595886Y9504133D02*
X29586362Y9494610D01*
X29586362Y9494610D02*
X29576838Y9475562D01*
X29576838Y9475562D02*
X29576838Y9437467D01*
X29576838Y9437467D02*
X29586362Y9418419D01*
X29586362Y9418419D02*
X29595886Y9408895D01*
X29595886Y9408895D02*
X29614933Y9399371D01*
X29614933Y9399371D02*
X29653029Y9399371D01*
X29653029Y9399371D02*
X29672076Y9408895D01*
X29672076Y9408895D02*
X29681600Y9418419D01*
X29681600Y9418419D02*
X29691124Y9437467D01*
X29691124Y9437467D02*
X29691124Y9475562D01*
X29691124Y9475562D02*
X29681600Y9494610D01*
X29681600Y9494610D02*
X29672076Y9504133D01*
X29672076Y9504133D02*
X29653029Y9513657D01*
X29805410Y9513657D02*
X29786362Y9523181D01*
X29786362Y9523181D02*
X29776838Y9532705D01*
X29776838Y9532705D02*
X29767314Y9551752D01*
X29767314Y9551752D02*
X29767314Y9561276D01*
X29767314Y9561276D02*
X29776838Y9580324D01*
X29776838Y9580324D02*
X29786362Y9589848D01*
X29786362Y9589848D02*
X29805410Y9599371D01*
X29805410Y9599371D02*
X29843505Y9599371D01*
X29843505Y9599371D02*
X29862552Y9589848D01*
X29862552Y9589848D02*
X29872076Y9580324D01*
X29872076Y9580324D02*
X29881600Y9561276D01*
X29881600Y9561276D02*
X29881600Y9551752D01*
X29881600Y9551752D02*
X29872076Y9532705D01*
X29872076Y9532705D02*
X29862552Y9523181D01*
X29862552Y9523181D02*
X29843505Y9513657D01*
X29843505Y9513657D02*
X29805410Y9513657D01*
X29805410Y9513657D02*
X29786362Y9504133D01*
X29786362Y9504133D02*
X29776838Y9494610D01*
X29776838Y9494610D02*
X29767314Y9475562D01*
X29767314Y9475562D02*
X29767314Y9437467D01*
X29767314Y9437467D02*
X29776838Y9418419D01*
X29776838Y9418419D02*
X29786362Y9408895D01*
X29786362Y9408895D02*
X29805410Y9399371D01*
X29805410Y9399371D02*
X29843505Y9399371D01*
X29843505Y9399371D02*
X29862552Y9408895D01*
X29862552Y9408895D02*
X29872076Y9418419D01*
X29872076Y9418419D02*
X29881600Y9437467D01*
X29881600Y9437467D02*
X29881600Y9475562D01*
X29881600Y9475562D02*
X29872076Y9494610D01*
X29872076Y9494610D02*
X29862552Y9504133D01*
X29862552Y9504133D02*
X29843505Y9513657D01*
X29967314Y9399371D02*
X29967314Y9532705D01*
X29967314Y9513657D02*
X29976838Y9523181D01*
X29976838Y9523181D02*
X29995886Y9532705D01*
X29995886Y9532705D02*
X30024457Y9532705D01*
X30024457Y9532705D02*
X30043505Y9523181D01*
X30043505Y9523181D02*
X30053029Y9504133D01*
X30053029Y9504133D02*
X30053029Y9399371D01*
X30053029Y9504133D02*
X30062552Y9523181D01*
X30062552Y9523181D02*
X30081600Y9532705D01*
X30081600Y9532705D02*
X30110171Y9532705D01*
X30110171Y9532705D02*
X30129219Y9523181D01*
X30129219Y9523181D02*
X30138743Y9504133D01*
X30138743Y9504133D02*
X30138743Y9399371D01*
X30233981Y9399371D02*
X30233981Y9532705D01*
X30233981Y9513657D02*
X30243505Y9523181D01*
X30243505Y9523181D02*
X30262552Y9532705D01*
X30262552Y9532705D02*
X30291124Y9532705D01*
X30291124Y9532705D02*
X30310172Y9523181D01*
X30310172Y9523181D02*
X30319695Y9504133D01*
X30319695Y9504133D02*
X30319695Y9399371D01*
X30319695Y9504133D02*
X30329219Y9523181D01*
X30329219Y9523181D02*
X30348267Y9532705D01*
X30348267Y9532705D02*
X30376838Y9532705D01*
X30376838Y9532705D02*
X30395886Y9523181D01*
X30395886Y9523181D02*
X30405410Y9504133D01*
X30405410Y9504133D02*
X30405410Y9399371D01*
X30795886Y9608895D02*
X30624457Y9351752D01*
X31053029Y9599371D02*
X31072076Y9599371D01*
X31072076Y9599371D02*
X31091124Y9589848D01*
X31091124Y9589848D02*
X31100648Y9580324D01*
X31100648Y9580324D02*
X31110172Y9561276D01*
X31110172Y9561276D02*
X31119695Y9523181D01*
X31119695Y9523181D02*
X31119695Y9475562D01*
X31119695Y9475562D02*
X31110172Y9437467D01*
X31110172Y9437467D02*
X31100648Y9418419D01*
X31100648Y9418419D02*
X31091124Y9408895D01*
X31091124Y9408895D02*
X31072076Y9399371D01*
X31072076Y9399371D02*
X31053029Y9399371D01*
X31053029Y9399371D02*
X31033981Y9408895D01*
X31033981Y9408895D02*
X31024457Y9418419D01*
X31024457Y9418419D02*
X31014934Y9437467D01*
X31014934Y9437467D02*
X31005410Y9475562D01*
X31005410Y9475562D02*
X31005410Y9523181D01*
X31005410Y9523181D02*
X31014934Y9561276D01*
X31014934Y9561276D02*
X31024457Y9580324D01*
X31024457Y9580324D02*
X31033981Y9589848D01*
X31033981Y9589848D02*
X31053029Y9599371D01*
X31205410Y9418419D02*
X31214934Y9408895D01*
X31214934Y9408895D02*
X31205410Y9399371D01*
X31205410Y9399371D02*
X31195886Y9408895D01*
X31195886Y9408895D02*
X31205410Y9418419D01*
X31205410Y9418419D02*
X31205410Y9399371D01*
X31405410Y9399371D02*
X31291124Y9399371D01*
X31348267Y9399371D02*
X31348267Y9599371D01*
X31348267Y9599371D02*
X31329219Y9570800D01*
X31329219Y9570800D02*
X31310172Y9551752D01*
X31310172Y9551752D02*
X31291124Y9542229D01*
X31586362Y9599371D02*
X31491124Y9599371D01*
X31491124Y9599371D02*
X31481600Y9504133D01*
X31481600Y9504133D02*
X31491124Y9513657D01*
X31491124Y9513657D02*
X31510172Y9523181D01*
X31510172Y9523181D02*
X31557791Y9523181D01*
X31557791Y9523181D02*
X31576838Y9513657D01*
X31576838Y9513657D02*
X31586362Y9504133D01*
X31586362Y9504133D02*
X31595886Y9485086D01*
X31595886Y9485086D02*
X31595886Y9437467D01*
X31595886Y9437467D02*
X31586362Y9418419D01*
X31586362Y9418419D02*
X31576838Y9408895D01*
X31576838Y9408895D02*
X31557791Y9399371D01*
X31557791Y9399371D02*
X31510172Y9399371D01*
X31510172Y9399371D02*
X31491124Y9408895D01*
X31491124Y9408895D02*
X31481600Y9418419D01*
X31662553Y9599371D02*
X31795886Y9599371D01*
X31795886Y9599371D02*
X31710172Y9399371D01*
X31910172Y9599371D02*
X31929219Y9599371D01*
X31929219Y9599371D02*
X31948267Y9589848D01*
X31948267Y9589848D02*
X31957791Y9580324D01*
X31957791Y9580324D02*
X31967315Y9561276D01*
X31967315Y9561276D02*
X31976838Y9523181D01*
X31976838Y9523181D02*
X31976838Y9475562D01*
X31976838Y9475562D02*
X31967315Y9437467D01*
X31967315Y9437467D02*
X31957791Y9418419D01*
X31957791Y9418419D02*
X31948267Y9408895D01*
X31948267Y9408895D02*
X31929219Y9399371D01*
X31929219Y9399371D02*
X31910172Y9399371D01*
X31910172Y9399371D02*
X31891124Y9408895D01*
X31891124Y9408895D02*
X31881600Y9418419D01*
X31881600Y9418419D02*
X31872076Y9437467D01*
X31872076Y9437467D02*
X31862553Y9475562D01*
X31862553Y9475562D02*
X31862553Y9523181D01*
X31862553Y9523181D02*
X31872076Y9561276D01*
X31872076Y9561276D02*
X31881600Y9580324D01*
X31881600Y9580324D02*
X31891124Y9589848D01*
X31891124Y9589848D02*
X31910172Y9599371D01*
X32053029Y9599371D02*
X32053029Y9561276D01*
X32129219Y9599371D02*
X32129219Y9561276D01*
X32424458Y9323181D02*
X32414934Y9332705D01*
X32414934Y9332705D02*
X32395886Y9361276D01*
X32395886Y9361276D02*
X32386362Y9380324D01*
X32386362Y9380324D02*
X32376838Y9408895D01*
X32376838Y9408895D02*
X32367315Y9456514D01*
X32367315Y9456514D02*
X32367315Y9494610D01*
X32367315Y9494610D02*
X32376838Y9542229D01*
X32376838Y9542229D02*
X32386362Y9570800D01*
X32386362Y9570800D02*
X32395886Y9589848D01*
X32395886Y9589848D02*
X32414934Y9618419D01*
X32414934Y9618419D02*
X32424458Y9627943D01*
X32605410Y9399371D02*
X32491124Y9399371D01*
X32548267Y9399371D02*
X32548267Y9599371D01*
X32548267Y9599371D02*
X32529219Y9570800D01*
X32529219Y9570800D02*
X32510172Y9551752D01*
X32510172Y9551752D02*
X32491124Y9542229D01*
X32729219Y9599371D02*
X32748267Y9599371D01*
X32748267Y9599371D02*
X32767315Y9589848D01*
X32767315Y9589848D02*
X32776838Y9580324D01*
X32776838Y9580324D02*
X32786362Y9561276D01*
X32786362Y9561276D02*
X32795886Y9523181D01*
X32795886Y9523181D02*
X32795886Y9475562D01*
X32795886Y9475562D02*
X32786362Y9437467D01*
X32786362Y9437467D02*
X32776838Y9418419D01*
X32776838Y9418419D02*
X32767315Y9408895D01*
X32767315Y9408895D02*
X32748267Y9399371D01*
X32748267Y9399371D02*
X32729219Y9399371D01*
X32729219Y9399371D02*
X32710172Y9408895D01*
X32710172Y9408895D02*
X32700648Y9418419D01*
X32700648Y9418419D02*
X32691124Y9437467D01*
X32691124Y9437467D02*
X32681600Y9475562D01*
X32681600Y9475562D02*
X32681600Y9523181D01*
X32681600Y9523181D02*
X32691124Y9561276D01*
X32691124Y9561276D02*
X32700648Y9580324D01*
X32700648Y9580324D02*
X32710172Y9589848D01*
X32710172Y9589848D02*
X32729219Y9599371D01*
X33033981Y9399371D02*
X33033981Y9599371D01*
X33119696Y9399371D02*
X33119696Y9504133D01*
X33119696Y9504133D02*
X33110172Y9523181D01*
X33110172Y9523181D02*
X33091124Y9532705D01*
X33091124Y9532705D02*
X33062553Y9532705D01*
X33062553Y9532705D02*
X33043505Y9523181D01*
X33043505Y9523181D02*
X33033981Y9513657D01*
X33243505Y9399371D02*
X33224458Y9408895D01*
X33224458Y9408895D02*
X33214934Y9418419D01*
X33214934Y9418419D02*
X33205410Y9437467D01*
X33205410Y9437467D02*
X33205410Y9494610D01*
X33205410Y9494610D02*
X33214934Y9513657D01*
X33214934Y9513657D02*
X33224458Y9523181D01*
X33224458Y9523181D02*
X33243505Y9532705D01*
X33243505Y9532705D02*
X33272077Y9532705D01*
X33272077Y9532705D02*
X33291124Y9523181D01*
X33291124Y9523181D02*
X33300648Y9513657D01*
X33300648Y9513657D02*
X33310172Y9494610D01*
X33310172Y9494610D02*
X33310172Y9437467D01*
X33310172Y9437467D02*
X33300648Y9418419D01*
X33300648Y9418419D02*
X33291124Y9408895D01*
X33291124Y9408895D02*
X33272077Y9399371D01*
X33272077Y9399371D02*
X33243505Y9399371D01*
X33424458Y9399371D02*
X33405410Y9408895D01*
X33405410Y9408895D02*
X33395886Y9427943D01*
X33395886Y9427943D02*
X33395886Y9599371D01*
X33576839Y9408895D02*
X33557791Y9399371D01*
X33557791Y9399371D02*
X33519696Y9399371D01*
X33519696Y9399371D02*
X33500648Y9408895D01*
X33500648Y9408895D02*
X33491124Y9427943D01*
X33491124Y9427943D02*
X33491124Y9504133D01*
X33491124Y9504133D02*
X33500648Y9523181D01*
X33500648Y9523181D02*
X33519696Y9532705D01*
X33519696Y9532705D02*
X33557791Y9532705D01*
X33557791Y9532705D02*
X33576839Y9523181D01*
X33576839Y9523181D02*
X33586362Y9504133D01*
X33586362Y9504133D02*
X33586362Y9485086D01*
X33586362Y9485086D02*
X33491124Y9466038D01*
X33662553Y9408895D02*
X33681601Y9399371D01*
X33681601Y9399371D02*
X33719696Y9399371D01*
X33719696Y9399371D02*
X33738743Y9408895D01*
X33738743Y9408895D02*
X33748267Y9427943D01*
X33748267Y9427943D02*
X33748267Y9437467D01*
X33748267Y9437467D02*
X33738743Y9456514D01*
X33738743Y9456514D02*
X33719696Y9466038D01*
X33719696Y9466038D02*
X33691124Y9466038D01*
X33691124Y9466038D02*
X33672077Y9475562D01*
X33672077Y9475562D02*
X33662553Y9494610D01*
X33662553Y9494610D02*
X33662553Y9504133D01*
X33662553Y9504133D02*
X33672077Y9523181D01*
X33672077Y9523181D02*
X33691124Y9532705D01*
X33691124Y9532705D02*
X33719696Y9532705D01*
X33719696Y9532705D02*
X33738743Y9523181D01*
X33814934Y9323181D02*
X33824458Y9332705D01*
X33824458Y9332705D02*
X33843505Y9361276D01*
X33843505Y9361276D02*
X33853029Y9380324D01*
X33853029Y9380324D02*
X33862553Y9408895D01*
X33862553Y9408895D02*
X33872077Y9456514D01*
X33872077Y9456514D02*
X33872077Y9494610D01*
X33872077Y9494610D02*
X33862553Y9542229D01*
X33862553Y9542229D02*
X33853029Y9570800D01*
X33853029Y9570800D02*
X33843505Y9589848D01*
X33843505Y9589848D02*
X33824458Y9618419D01*
X33824458Y9618419D02*
X33814934Y9627943D01*
X34176839Y9323181D02*
X34167315Y9332705D01*
X34167315Y9332705D02*
X34148267Y9361276D01*
X34148267Y9361276D02*
X34138743Y9380324D01*
X34138743Y9380324D02*
X34129220Y9408895D01*
X34129220Y9408895D02*
X34119696Y9456514D01*
X34119696Y9456514D02*
X34119696Y9494610D01*
X34119696Y9494610D02*
X34129220Y9542229D01*
X34129220Y9542229D02*
X34138743Y9570800D01*
X34138743Y9570800D02*
X34148267Y9589848D01*
X34148267Y9589848D02*
X34167315Y9618419D01*
X34167315Y9618419D02*
X34176839Y9627943D01*
X34253029Y9532705D02*
X34253029Y9399371D01*
X34253029Y9513657D02*
X34262553Y9523181D01*
X34262553Y9523181D02*
X34281601Y9532705D01*
X34281601Y9532705D02*
X34310172Y9532705D01*
X34310172Y9532705D02*
X34329220Y9523181D01*
X34329220Y9523181D02*
X34338743Y9504133D01*
X34338743Y9504133D02*
X34338743Y9399371D01*
X34462553Y9399371D02*
X34443505Y9408895D01*
X34443505Y9408895D02*
X34433982Y9418419D01*
X34433982Y9418419D02*
X34424458Y9437467D01*
X34424458Y9437467D02*
X34424458Y9494610D01*
X34424458Y9494610D02*
X34433982Y9513657D01*
X34433982Y9513657D02*
X34443505Y9523181D01*
X34443505Y9523181D02*
X34462553Y9532705D01*
X34462553Y9532705D02*
X34491124Y9532705D01*
X34491124Y9532705D02*
X34510172Y9523181D01*
X34510172Y9523181D02*
X34519696Y9513657D01*
X34519696Y9513657D02*
X34529220Y9494610D01*
X34529220Y9494610D02*
X34529220Y9437467D01*
X34529220Y9437467D02*
X34519696Y9418419D01*
X34519696Y9418419D02*
X34510172Y9408895D01*
X34510172Y9408895D02*
X34491124Y9399371D01*
X34491124Y9399371D02*
X34462553Y9399371D01*
X34586363Y9532705D02*
X34662553Y9532705D01*
X34614934Y9599371D02*
X34614934Y9427943D01*
X34614934Y9427943D02*
X34624458Y9408895D01*
X34624458Y9408895D02*
X34643505Y9399371D01*
X34643505Y9399371D02*
X34662553Y9399371D01*
X34881601Y9532705D02*
X34881601Y9332705D01*
X34881601Y9523181D02*
X34900648Y9532705D01*
X34900648Y9532705D02*
X34938744Y9532705D01*
X34938744Y9532705D02*
X34957791Y9523181D01*
X34957791Y9523181D02*
X34967315Y9513657D01*
X34967315Y9513657D02*
X34976839Y9494610D01*
X34976839Y9494610D02*
X34976839Y9437467D01*
X34976839Y9437467D02*
X34967315Y9418419D01*
X34967315Y9418419D02*
X34957791Y9408895D01*
X34957791Y9408895D02*
X34938744Y9399371D01*
X34938744Y9399371D02*
X34900648Y9399371D01*
X34900648Y9399371D02*
X34881601Y9408895D01*
X35091124Y9399371D02*
X35072077Y9408895D01*
X35072077Y9408895D02*
X35062553Y9427943D01*
X35062553Y9427943D02*
X35062553Y9599371D01*
X35253029Y9399371D02*
X35253029Y9504133D01*
X35253029Y9504133D02*
X35243505Y9523181D01*
X35243505Y9523181D02*
X35224458Y9532705D01*
X35224458Y9532705D02*
X35186363Y9532705D01*
X35186363Y9532705D02*
X35167315Y9523181D01*
X35253029Y9408895D02*
X35233982Y9399371D01*
X35233982Y9399371D02*
X35186363Y9399371D01*
X35186363Y9399371D02*
X35167315Y9408895D01*
X35167315Y9408895D02*
X35157791Y9427943D01*
X35157791Y9427943D02*
X35157791Y9446991D01*
X35157791Y9446991D02*
X35167315Y9466038D01*
X35167315Y9466038D02*
X35186363Y9475562D01*
X35186363Y9475562D02*
X35233982Y9475562D01*
X35233982Y9475562D02*
X35253029Y9485086D01*
X35319696Y9532705D02*
X35395886Y9532705D01*
X35348267Y9599371D02*
X35348267Y9427943D01*
X35348267Y9427943D02*
X35357791Y9408895D01*
X35357791Y9408895D02*
X35376839Y9399371D01*
X35376839Y9399371D02*
X35395886Y9399371D01*
X35538744Y9408895D02*
X35519696Y9399371D01*
X35519696Y9399371D02*
X35481601Y9399371D01*
X35481601Y9399371D02*
X35462553Y9408895D01*
X35462553Y9408895D02*
X35453029Y9427943D01*
X35453029Y9427943D02*
X35453029Y9504133D01*
X35453029Y9504133D02*
X35462553Y9523181D01*
X35462553Y9523181D02*
X35481601Y9532705D01*
X35481601Y9532705D02*
X35519696Y9532705D01*
X35519696Y9532705D02*
X35538744Y9523181D01*
X35538744Y9523181D02*
X35548267Y9504133D01*
X35548267Y9504133D02*
X35548267Y9485086D01*
X35548267Y9485086D02*
X35453029Y9466038D01*
X35719696Y9399371D02*
X35719696Y9599371D01*
X35719696Y9408895D02*
X35700648Y9399371D01*
X35700648Y9399371D02*
X35662553Y9399371D01*
X35662553Y9399371D02*
X35643505Y9408895D01*
X35643505Y9408895D02*
X35633982Y9418419D01*
X35633982Y9418419D02*
X35624458Y9437467D01*
X35624458Y9437467D02*
X35624458Y9494610D01*
X35624458Y9494610D02*
X35633982Y9513657D01*
X35633982Y9513657D02*
X35643505Y9523181D01*
X35643505Y9523181D02*
X35662553Y9532705D01*
X35662553Y9532705D02*
X35700648Y9532705D01*
X35700648Y9532705D02*
X35719696Y9523181D01*
X35795886Y9323181D02*
X35805410Y9332705D01*
X35805410Y9332705D02*
X35824458Y9361276D01*
X35824458Y9361276D02*
X35833982Y9380324D01*
X35833982Y9380324D02*
X35843505Y9408895D01*
X35843505Y9408895D02*
X35853029Y9456514D01*
X35853029Y9456514D02*
X35853029Y9494610D01*
X35853029Y9494610D02*
X35843505Y9542229D01*
X35843505Y9542229D02*
X35833982Y9570800D01*
X35833982Y9570800D02*
X35824458Y9589848D01*
X35824458Y9589848D02*
X35805410Y9618419D01*
X35805410Y9618419D02*
X35795886Y9627943D01*
X28820106Y9100144D02*
X28820106Y9241567D01*
X28678683Y9241567D01*
X28678683Y9100144D01*
X28820106Y9100144D01*
X29195886Y9212705D02*
X29195886Y9079371D01*
X29148267Y9288895D02*
X29100648Y9146038D01*
X29100648Y9146038D02*
X29224457Y9146038D01*
X29300648Y9098419D02*
X29310171Y9088895D01*
X29310171Y9088895D02*
X29300648Y9079371D01*
X29300648Y9079371D02*
X29291124Y9088895D01*
X29291124Y9088895D02*
X29300648Y9098419D01*
X29300648Y9098419D02*
X29300648Y9079371D01*
X29433981Y9279371D02*
X29453029Y9279371D01*
X29453029Y9279371D02*
X29472076Y9269848D01*
X29472076Y9269848D02*
X29481600Y9260324D01*
X29481600Y9260324D02*
X29491124Y9241276D01*
X29491124Y9241276D02*
X29500648Y9203181D01*
X29500648Y9203181D02*
X29500648Y9155562D01*
X29500648Y9155562D02*
X29491124Y9117467D01*
X29491124Y9117467D02*
X29481600Y9098419D01*
X29481600Y9098419D02*
X29472076Y9088895D01*
X29472076Y9088895D02*
X29453029Y9079371D01*
X29453029Y9079371D02*
X29433981Y9079371D01*
X29433981Y9079371D02*
X29414933Y9088895D01*
X29414933Y9088895D02*
X29405410Y9098419D01*
X29405410Y9098419D02*
X29395886Y9117467D01*
X29395886Y9117467D02*
X29386362Y9155562D01*
X29386362Y9155562D02*
X29386362Y9203181D01*
X29386362Y9203181D02*
X29395886Y9241276D01*
X29395886Y9241276D02*
X29405410Y9260324D01*
X29405410Y9260324D02*
X29414933Y9269848D01*
X29414933Y9269848D02*
X29433981Y9279371D01*
X29624457Y9279371D02*
X29643505Y9279371D01*
X29643505Y9279371D02*
X29662552Y9269848D01*
X29662552Y9269848D02*
X29672076Y9260324D01*
X29672076Y9260324D02*
X29681600Y9241276D01*
X29681600Y9241276D02*
X29691124Y9203181D01*
X29691124Y9203181D02*
X29691124Y9155562D01*
X29691124Y9155562D02*
X29681600Y9117467D01*
X29681600Y9117467D02*
X29672076Y9098419D01*
X29672076Y9098419D02*
X29662552Y9088895D01*
X29662552Y9088895D02*
X29643505Y9079371D01*
X29643505Y9079371D02*
X29624457Y9079371D01*
X29624457Y9079371D02*
X29605410Y9088895D01*
X29605410Y9088895D02*
X29595886Y9098419D01*
X29595886Y9098419D02*
X29586362Y9117467D01*
X29586362Y9117467D02*
X29576838Y9155562D01*
X29576838Y9155562D02*
X29576838Y9203181D01*
X29576838Y9203181D02*
X29586362Y9241276D01*
X29586362Y9241276D02*
X29595886Y9260324D01*
X29595886Y9260324D02*
X29605410Y9269848D01*
X29605410Y9269848D02*
X29624457Y9279371D01*
X29814933Y9279371D02*
X29833981Y9279371D01*
X29833981Y9279371D02*
X29853029Y9269848D01*
X29853029Y9269848D02*
X29862552Y9260324D01*
X29862552Y9260324D02*
X29872076Y9241276D01*
X29872076Y9241276D02*
X29881600Y9203181D01*
X29881600Y9203181D02*
X29881600Y9155562D01*
X29881600Y9155562D02*
X29872076Y9117467D01*
X29872076Y9117467D02*
X29862552Y9098419D01*
X29862552Y9098419D02*
X29853029Y9088895D01*
X29853029Y9088895D02*
X29833981Y9079371D01*
X29833981Y9079371D02*
X29814933Y9079371D01*
X29814933Y9079371D02*
X29795886Y9088895D01*
X29795886Y9088895D02*
X29786362Y9098419D01*
X29786362Y9098419D02*
X29776838Y9117467D01*
X29776838Y9117467D02*
X29767314Y9155562D01*
X29767314Y9155562D02*
X29767314Y9203181D01*
X29767314Y9203181D02*
X29776838Y9241276D01*
X29776838Y9241276D02*
X29786362Y9260324D01*
X29786362Y9260324D02*
X29795886Y9269848D01*
X29795886Y9269848D02*
X29814933Y9279371D01*
X29967314Y9079371D02*
X29967314Y9212705D01*
X29967314Y9193657D02*
X29976838Y9203181D01*
X29976838Y9203181D02*
X29995886Y9212705D01*
X29995886Y9212705D02*
X30024457Y9212705D01*
X30024457Y9212705D02*
X30043505Y9203181D01*
X30043505Y9203181D02*
X30053029Y9184133D01*
X30053029Y9184133D02*
X30053029Y9079371D01*
X30053029Y9184133D02*
X30062552Y9203181D01*
X30062552Y9203181D02*
X30081600Y9212705D01*
X30081600Y9212705D02*
X30110171Y9212705D01*
X30110171Y9212705D02*
X30129219Y9203181D01*
X30129219Y9203181D02*
X30138743Y9184133D01*
X30138743Y9184133D02*
X30138743Y9079371D01*
X30233981Y9079371D02*
X30233981Y9212705D01*
X30233981Y9193657D02*
X30243505Y9203181D01*
X30243505Y9203181D02*
X30262552Y9212705D01*
X30262552Y9212705D02*
X30291124Y9212705D01*
X30291124Y9212705D02*
X30310172Y9203181D01*
X30310172Y9203181D02*
X30319695Y9184133D01*
X30319695Y9184133D02*
X30319695Y9079371D01*
X30319695Y9184133D02*
X30329219Y9203181D01*
X30329219Y9203181D02*
X30348267Y9212705D01*
X30348267Y9212705D02*
X30376838Y9212705D01*
X30376838Y9212705D02*
X30395886Y9203181D01*
X30395886Y9203181D02*
X30405410Y9184133D01*
X30405410Y9184133D02*
X30405410Y9079371D01*
X30795886Y9288895D02*
X30624457Y9031752D01*
X31053029Y9279371D02*
X31072076Y9279371D01*
X31072076Y9279371D02*
X31091124Y9269848D01*
X31091124Y9269848D02*
X31100648Y9260324D01*
X31100648Y9260324D02*
X31110172Y9241276D01*
X31110172Y9241276D02*
X31119695Y9203181D01*
X31119695Y9203181D02*
X31119695Y9155562D01*
X31119695Y9155562D02*
X31110172Y9117467D01*
X31110172Y9117467D02*
X31100648Y9098419D01*
X31100648Y9098419D02*
X31091124Y9088895D01*
X31091124Y9088895D02*
X31072076Y9079371D01*
X31072076Y9079371D02*
X31053029Y9079371D01*
X31053029Y9079371D02*
X31033981Y9088895D01*
X31033981Y9088895D02*
X31024457Y9098419D01*
X31024457Y9098419D02*
X31014934Y9117467D01*
X31014934Y9117467D02*
X31005410Y9155562D01*
X31005410Y9155562D02*
X31005410Y9203181D01*
X31005410Y9203181D02*
X31014934Y9241276D01*
X31014934Y9241276D02*
X31024457Y9260324D01*
X31024457Y9260324D02*
X31033981Y9269848D01*
X31033981Y9269848D02*
X31053029Y9279371D01*
X31205410Y9098419D02*
X31214934Y9088895D01*
X31214934Y9088895D02*
X31205410Y9079371D01*
X31205410Y9079371D02*
X31195886Y9088895D01*
X31195886Y9088895D02*
X31205410Y9098419D01*
X31205410Y9098419D02*
X31205410Y9079371D01*
X31405410Y9079371D02*
X31291124Y9079371D01*
X31348267Y9079371D02*
X31348267Y9279371D01*
X31348267Y9279371D02*
X31329219Y9250800D01*
X31329219Y9250800D02*
X31310172Y9231752D01*
X31310172Y9231752D02*
X31291124Y9222229D01*
X31586362Y9279371D02*
X31491124Y9279371D01*
X31491124Y9279371D02*
X31481600Y9184133D01*
X31481600Y9184133D02*
X31491124Y9193657D01*
X31491124Y9193657D02*
X31510172Y9203181D01*
X31510172Y9203181D02*
X31557791Y9203181D01*
X31557791Y9203181D02*
X31576838Y9193657D01*
X31576838Y9193657D02*
X31586362Y9184133D01*
X31586362Y9184133D02*
X31595886Y9165086D01*
X31595886Y9165086D02*
X31595886Y9117467D01*
X31595886Y9117467D02*
X31586362Y9098419D01*
X31586362Y9098419D02*
X31576838Y9088895D01*
X31576838Y9088895D02*
X31557791Y9079371D01*
X31557791Y9079371D02*
X31510172Y9079371D01*
X31510172Y9079371D02*
X31491124Y9088895D01*
X31491124Y9088895D02*
X31481600Y9098419D01*
X31662553Y9279371D02*
X31795886Y9279371D01*
X31795886Y9279371D02*
X31710172Y9079371D01*
X31967315Y9279371D02*
X31872076Y9279371D01*
X31872076Y9279371D02*
X31862553Y9184133D01*
X31862553Y9184133D02*
X31872076Y9193657D01*
X31872076Y9193657D02*
X31891124Y9203181D01*
X31891124Y9203181D02*
X31938743Y9203181D01*
X31938743Y9203181D02*
X31957791Y9193657D01*
X31957791Y9193657D02*
X31967315Y9184133D01*
X31967315Y9184133D02*
X31976838Y9165086D01*
X31976838Y9165086D02*
X31976838Y9117467D01*
X31976838Y9117467D02*
X31967315Y9098419D01*
X31967315Y9098419D02*
X31957791Y9088895D01*
X31957791Y9088895D02*
X31938743Y9079371D01*
X31938743Y9079371D02*
X31891124Y9079371D01*
X31891124Y9079371D02*
X31872076Y9088895D01*
X31872076Y9088895D02*
X31862553Y9098419D01*
X32053029Y9279371D02*
X32053029Y9241276D01*
X32129219Y9279371D02*
X32129219Y9241276D01*
X32424458Y9003181D02*
X32414934Y9012705D01*
X32414934Y9012705D02*
X32395886Y9041276D01*
X32395886Y9041276D02*
X32386362Y9060324D01*
X32386362Y9060324D02*
X32376838Y9088895D01*
X32376838Y9088895D02*
X32367315Y9136514D01*
X32367315Y9136514D02*
X32367315Y9174610D01*
X32367315Y9174610D02*
X32376838Y9222229D01*
X32376838Y9222229D02*
X32386362Y9250800D01*
X32386362Y9250800D02*
X32395886Y9269848D01*
X32395886Y9269848D02*
X32414934Y9298419D01*
X32414934Y9298419D02*
X32424458Y9307943D01*
X32605410Y9079371D02*
X32491124Y9079371D01*
X32548267Y9079371D02*
X32548267Y9279371D01*
X32548267Y9279371D02*
X32529219Y9250800D01*
X32529219Y9250800D02*
X32510172Y9231752D01*
X32510172Y9231752D02*
X32491124Y9222229D01*
X32729219Y9279371D02*
X32748267Y9279371D01*
X32748267Y9279371D02*
X32767315Y9269848D01*
X32767315Y9269848D02*
X32776838Y9260324D01*
X32776838Y9260324D02*
X32786362Y9241276D01*
X32786362Y9241276D02*
X32795886Y9203181D01*
X32795886Y9203181D02*
X32795886Y9155562D01*
X32795886Y9155562D02*
X32786362Y9117467D01*
X32786362Y9117467D02*
X32776838Y9098419D01*
X32776838Y9098419D02*
X32767315Y9088895D01*
X32767315Y9088895D02*
X32748267Y9079371D01*
X32748267Y9079371D02*
X32729219Y9079371D01*
X32729219Y9079371D02*
X32710172Y9088895D01*
X32710172Y9088895D02*
X32700648Y9098419D01*
X32700648Y9098419D02*
X32691124Y9117467D01*
X32691124Y9117467D02*
X32681600Y9155562D01*
X32681600Y9155562D02*
X32681600Y9203181D01*
X32681600Y9203181D02*
X32691124Y9241276D01*
X32691124Y9241276D02*
X32700648Y9260324D01*
X32700648Y9260324D02*
X32710172Y9269848D01*
X32710172Y9269848D02*
X32729219Y9279371D01*
X32872077Y9260324D02*
X32881600Y9269848D01*
X32881600Y9269848D02*
X32900648Y9279371D01*
X32900648Y9279371D02*
X32948267Y9279371D01*
X32948267Y9279371D02*
X32967315Y9269848D01*
X32967315Y9269848D02*
X32976838Y9260324D01*
X32976838Y9260324D02*
X32986362Y9241276D01*
X32986362Y9241276D02*
X32986362Y9222229D01*
X32986362Y9222229D02*
X32976838Y9193657D01*
X32976838Y9193657D02*
X32862553Y9079371D01*
X32862553Y9079371D02*
X32986362Y9079371D01*
X33224458Y9079371D02*
X33224458Y9279371D01*
X33310172Y9079371D02*
X33310172Y9184133D01*
X33310172Y9184133D02*
X33300648Y9203181D01*
X33300648Y9203181D02*
X33281600Y9212705D01*
X33281600Y9212705D02*
X33253029Y9212705D01*
X33253029Y9212705D02*
X33233981Y9203181D01*
X33233981Y9203181D02*
X33224458Y9193657D01*
X33433981Y9079371D02*
X33414934Y9088895D01*
X33414934Y9088895D02*
X33405410Y9098419D01*
X33405410Y9098419D02*
X33395886Y9117467D01*
X33395886Y9117467D02*
X33395886Y9174610D01*
X33395886Y9174610D02*
X33405410Y9193657D01*
X33405410Y9193657D02*
X33414934Y9203181D01*
X33414934Y9203181D02*
X33433981Y9212705D01*
X33433981Y9212705D02*
X33462553Y9212705D01*
X33462553Y9212705D02*
X33481600Y9203181D01*
X33481600Y9203181D02*
X33491124Y9193657D01*
X33491124Y9193657D02*
X33500648Y9174610D01*
X33500648Y9174610D02*
X33500648Y9117467D01*
X33500648Y9117467D02*
X33491124Y9098419D01*
X33491124Y9098419D02*
X33481600Y9088895D01*
X33481600Y9088895D02*
X33462553Y9079371D01*
X33462553Y9079371D02*
X33433981Y9079371D01*
X33614934Y9079371D02*
X33595886Y9088895D01*
X33595886Y9088895D02*
X33586362Y9107943D01*
X33586362Y9107943D02*
X33586362Y9279371D01*
X33767315Y9088895D02*
X33748267Y9079371D01*
X33748267Y9079371D02*
X33710172Y9079371D01*
X33710172Y9079371D02*
X33691124Y9088895D01*
X33691124Y9088895D02*
X33681601Y9107943D01*
X33681601Y9107943D02*
X33681601Y9184133D01*
X33681601Y9184133D02*
X33691124Y9203181D01*
X33691124Y9203181D02*
X33710172Y9212705D01*
X33710172Y9212705D02*
X33748267Y9212705D01*
X33748267Y9212705D02*
X33767315Y9203181D01*
X33767315Y9203181D02*
X33776839Y9184133D01*
X33776839Y9184133D02*
X33776839Y9165086D01*
X33776839Y9165086D02*
X33681601Y9146038D01*
X33853029Y9088895D02*
X33872077Y9079371D01*
X33872077Y9079371D02*
X33910172Y9079371D01*
X33910172Y9079371D02*
X33929220Y9088895D01*
X33929220Y9088895D02*
X33938743Y9107943D01*
X33938743Y9107943D02*
X33938743Y9117467D01*
X33938743Y9117467D02*
X33929220Y9136514D01*
X33929220Y9136514D02*
X33910172Y9146038D01*
X33910172Y9146038D02*
X33881601Y9146038D01*
X33881601Y9146038D02*
X33862553Y9155562D01*
X33862553Y9155562D02*
X33853029Y9174610D01*
X33853029Y9174610D02*
X33853029Y9184133D01*
X33853029Y9184133D02*
X33862553Y9203181D01*
X33862553Y9203181D02*
X33881601Y9212705D01*
X33881601Y9212705D02*
X33910172Y9212705D01*
X33910172Y9212705D02*
X33929220Y9203181D01*
X34005410Y9003181D02*
X34014934Y9012705D01*
X34014934Y9012705D02*
X34033982Y9041276D01*
X34033982Y9041276D02*
X34043505Y9060324D01*
X34043505Y9060324D02*
X34053029Y9088895D01*
X34053029Y9088895D02*
X34062553Y9136514D01*
X34062553Y9136514D02*
X34062553Y9174610D01*
X34062553Y9174610D02*
X34053029Y9222229D01*
X34053029Y9222229D02*
X34043505Y9250800D01*
X34043505Y9250800D02*
X34033982Y9269848D01*
X34033982Y9269848D02*
X34014934Y9298419D01*
X34014934Y9298419D02*
X34005410Y9307943D01*
X34367315Y9003181D02*
X34357791Y9012705D01*
X34357791Y9012705D02*
X34338743Y9041276D01*
X34338743Y9041276D02*
X34329220Y9060324D01*
X34329220Y9060324D02*
X34319696Y9088895D01*
X34319696Y9088895D02*
X34310172Y9136514D01*
X34310172Y9136514D02*
X34310172Y9174610D01*
X34310172Y9174610D02*
X34319696Y9222229D01*
X34319696Y9222229D02*
X34329220Y9250800D01*
X34329220Y9250800D02*
X34338743Y9269848D01*
X34338743Y9269848D02*
X34357791Y9298419D01*
X34357791Y9298419D02*
X34367315Y9307943D01*
X34443505Y9212705D02*
X34443505Y9079371D01*
X34443505Y9193657D02*
X34453029Y9203181D01*
X34453029Y9203181D02*
X34472077Y9212705D01*
X34472077Y9212705D02*
X34500648Y9212705D01*
X34500648Y9212705D02*
X34519696Y9203181D01*
X34519696Y9203181D02*
X34529220Y9184133D01*
X34529220Y9184133D02*
X34529220Y9079371D01*
X34653029Y9079371D02*
X34633982Y9088895D01*
X34633982Y9088895D02*
X34624458Y9098419D01*
X34624458Y9098419D02*
X34614934Y9117467D01*
X34614934Y9117467D02*
X34614934Y9174610D01*
X34614934Y9174610D02*
X34624458Y9193657D01*
X34624458Y9193657D02*
X34633982Y9203181D01*
X34633982Y9203181D02*
X34653029Y9212705D01*
X34653029Y9212705D02*
X34681601Y9212705D01*
X34681601Y9212705D02*
X34700648Y9203181D01*
X34700648Y9203181D02*
X34710172Y9193657D01*
X34710172Y9193657D02*
X34719696Y9174610D01*
X34719696Y9174610D02*
X34719696Y9117467D01*
X34719696Y9117467D02*
X34710172Y9098419D01*
X34710172Y9098419D02*
X34700648Y9088895D01*
X34700648Y9088895D02*
X34681601Y9079371D01*
X34681601Y9079371D02*
X34653029Y9079371D01*
X34776839Y9212705D02*
X34853029Y9212705D01*
X34805410Y9279371D02*
X34805410Y9107943D01*
X34805410Y9107943D02*
X34814934Y9088895D01*
X34814934Y9088895D02*
X34833982Y9079371D01*
X34833982Y9079371D02*
X34853029Y9079371D01*
X35072077Y9212705D02*
X35072077Y9012705D01*
X35072077Y9203181D02*
X35091124Y9212705D01*
X35091124Y9212705D02*
X35129220Y9212705D01*
X35129220Y9212705D02*
X35148267Y9203181D01*
X35148267Y9203181D02*
X35157791Y9193657D01*
X35157791Y9193657D02*
X35167315Y9174610D01*
X35167315Y9174610D02*
X35167315Y9117467D01*
X35167315Y9117467D02*
X35157791Y9098419D01*
X35157791Y9098419D02*
X35148267Y9088895D01*
X35148267Y9088895D02*
X35129220Y9079371D01*
X35129220Y9079371D02*
X35091124Y9079371D01*
X35091124Y9079371D02*
X35072077Y9088895D01*
X35281601Y9079371D02*
X35262553Y9088895D01*
X35262553Y9088895D02*
X35253029Y9107943D01*
X35253029Y9107943D02*
X35253029Y9279371D01*
X35443505Y9079371D02*
X35443505Y9184133D01*
X35443505Y9184133D02*
X35433982Y9203181D01*
X35433982Y9203181D02*
X35414934Y9212705D01*
X35414934Y9212705D02*
X35376839Y9212705D01*
X35376839Y9212705D02*
X35357791Y9203181D01*
X35443505Y9088895D02*
X35424458Y9079371D01*
X35424458Y9079371D02*
X35376839Y9079371D01*
X35376839Y9079371D02*
X35357791Y9088895D01*
X35357791Y9088895D02*
X35348267Y9107943D01*
X35348267Y9107943D02*
X35348267Y9126991D01*
X35348267Y9126991D02*
X35357791Y9146038D01*
X35357791Y9146038D02*
X35376839Y9155562D01*
X35376839Y9155562D02*
X35424458Y9155562D01*
X35424458Y9155562D02*
X35443505Y9165086D01*
X35510172Y9212705D02*
X35586363Y9212705D01*
X35538744Y9279371D02*
X35538744Y9107943D01*
X35538744Y9107943D02*
X35548267Y9088895D01*
X35548267Y9088895D02*
X35567315Y9079371D01*
X35567315Y9079371D02*
X35586363Y9079371D01*
X35729220Y9088895D02*
X35710172Y9079371D01*
X35710172Y9079371D02*
X35672077Y9079371D01*
X35672077Y9079371D02*
X35653029Y9088895D01*
X35653029Y9088895D02*
X35643505Y9107943D01*
X35643505Y9107943D02*
X35643505Y9184133D01*
X35643505Y9184133D02*
X35653029Y9203181D01*
X35653029Y9203181D02*
X35672077Y9212705D01*
X35672077Y9212705D02*
X35710172Y9212705D01*
X35710172Y9212705D02*
X35729220Y9203181D01*
X35729220Y9203181D02*
X35738744Y9184133D01*
X35738744Y9184133D02*
X35738744Y9165086D01*
X35738744Y9165086D02*
X35643505Y9146038D01*
X35910172Y9079371D02*
X35910172Y9279371D01*
X35910172Y9088895D02*
X35891125Y9079371D01*
X35891125Y9079371D02*
X35853029Y9079371D01*
X35853029Y9079371D02*
X35833982Y9088895D01*
X35833982Y9088895D02*
X35824458Y9098419D01*
X35824458Y9098419D02*
X35814934Y9117467D01*
X35814934Y9117467D02*
X35814934Y9174610D01*
X35814934Y9174610D02*
X35824458Y9193657D01*
X35824458Y9193657D02*
X35833982Y9203181D01*
X35833982Y9203181D02*
X35853029Y9212705D01*
X35853029Y9212705D02*
X35891125Y9212705D01*
X35891125Y9212705D02*
X35910172Y9203181D01*
X35986363Y9003181D02*
X35995886Y9012705D01*
X35995886Y9012705D02*
X36014934Y9041276D01*
X36014934Y9041276D02*
X36024458Y9060324D01*
X36024458Y9060324D02*
X36033982Y9088895D01*
X36033982Y9088895D02*
X36043505Y9136514D01*
X36043505Y9136514D02*
X36043505Y9174610D01*
X36043505Y9174610D02*
X36033982Y9222229D01*
X36033982Y9222229D02*
X36024458Y9250800D01*
X36024458Y9250800D02*
X36014934Y9269848D01*
X36014934Y9269848D02*
X35995886Y9298419D01*
X35995886Y9298419D02*
X35986363Y9307943D01*
M02*
