M48
; DRILL file {KiCad 8.99.0-2206-gee77d06be7} date 2024-10-02T02:50:39+0700
; FORMAT={-:-/ absolute / inch / decimal}
; #@! TF.CreationDate,2024-10-02T02:50:39+07:00
; #@! TF.GenerationSoftware,Kicad,Pcbnew,8.99.0-2206-gee77d06be7
; #@! TF.FileFunction,Plated,1,2,PTH
FMAT,2
INCH
; #@! TA.AperFunction,Plated,PTH,ViaDrill
T1C0.0118
; #@! TA.AperFunction,Plated,PTH,ComponentDrill
T2C0.0118
; #@! TA.AperFunction,Plated,PTH,ComponentDrill
T3C0.0374
; #@! TA.AperFunction,Plated,PTH,ComponentDrill
T4C0.0394
; #@! TA.AperFunction,Plated,PTH,ComponentDrill
T5C0.0669
%
G90
G05
T1
X-0.2559Y-0.0787
X-0.2559Y-0.1598
X-0.2453Y-1.0008
X-0.2169Y-0.2173
X-0.1732Y-0.3394
X-0.1268Y-2.1441
X-0.1256Y-1.011
X0.0028Y0.1516
X0.0043Y-0.215
X0.0803Y-0.0617
X0.0906Y-0.3579
X0.1Y-0.078
X0.1Y-0.6323
X0.1024Y-0.2244
X0.1024Y-0.5197
X0.1406Y-0.6055
X0.1535Y-0.2283
X0.1535Y-0.5276
X0.1616Y0.0746
X0.1732Y-0.5591
X0.1969Y0.25
X0.2047Y-0.2283
X0.208Y-0.5481
X0.208Y-0.5846
X0.2118Y-0.135
X0.2137Y-0.6705
X0.2465Y-0.1315
X0.252Y-0.2244
X0.2579Y-0.374
X0.2678Y-1.1394
X0.272Y-0.05
X0.2917Y-0.1787
X0.3024Y-0.2756
X0.3224Y-0.2138
X0.3461Y-0.1787
X0.3768Y-0.5606
X0.5864Y-2.0246
X0.5972Y0.1386
X0.6031Y-0.7268
X0.6052Y-2.0657
X0.6386Y-2.7311
X0.6583Y-2.7104
X0.6594Y-2.0059
X0.6677Y0.0642
X0.6689Y-2.1008
X0.6706Y-0.3579
X0.674Y-2.3178
X0.674Y-2.687
X0.6917Y0.2445
X0.748Y-0.7193
X0.8646Y-1.3087
X0.8705Y-0.1539
X0.8902Y-0.4827
X0.9654Y-0.7992
X1.0146Y-0.1756
X1.0199Y-0.7281
X1.0343Y-0.0921
X1.0472Y-0.2165
X1.0512Y-0.5197
X1.0516Y-0.7295
X1.0709Y-0.5512
X1.078Y-0.1957
X1.0806Y-0.1559
X1.0813Y-0.1323
X1.0945Y-0.5512
X1.0984Y-0.7327
X1.101Y-0.1756
X1.1096Y-0.5717
X1.1181Y-0.7488
X1.1181Y-1.3122
X1.1417Y-1.3118
X1.151Y-0.1567
X1.201Y-0.1455
X1.2305Y-0.2034
X1.2305Y-0.2034
X1.2484Y-0.5256
X1.2724Y-0.3827
X1.3327Y-0.3555
X1.3665Y0.1783
X1.4004Y0.1197
X1.4075Y-0.4882
X1.4193Y0.2559
X1.4358Y-0.2252
X1.4823Y-0.2917
X1.4835Y-0.6272
X1.576Y0.226
X1.6169Y-0.4783
X1.76Y-0.1535
X1.7743Y-0.7375
X1.7833Y-0.1654
X1.7833Y-0.189
X1.8031Y-0.5315
X1.8091Y-0.7307
X1.8228Y-0.5482
X1.8462Y-0.5517
X1.8598Y-0.7638
X1.8634Y-0.1445
X1.8693Y-0.563
X1.8748Y-1.3138
X1.8795Y-0.7402
X1.8983Y-1.3116
X1.903Y-0.1693
X1.9346Y-0.6272
X1.953Y-0.1868
X2.0031Y-0.5327
X2.0035Y-0.3768
X2.0255Y-0.315
X2.0535Y-0.2071
X2.0744Y-0.3606
X2.1173Y0.1713
X2.1315Y0.1276
X2.1646Y0.2476
X2.1713Y-0.0067
X2.3831Y0.1957
X2.4882Y-0.685
X2.502Y-0.5657
X2.5067Y-0.3583
X2.5067Y-0.7846
X2.5398Y-0.9732
X2.5656Y-0.7375
X2.5667Y-0.1833
X2.5709Y-0.6591
X2.5906Y-0.5512
X2.5925Y-0.7386
X2.5995Y-0.2207
X2.6063Y-0.5315
X2.6205Y-0.21
X2.6417Y-0.2205
X2.6614Y-0.5276
X2.6772Y-0.5465
X2.6787Y-0.7614
X2.6937Y-0.6917
X2.7091Y-0.0587
X2.7122Y-0.6371
X2.7248Y-0.5591
X2.7329Y-0.6174
X2.765Y-0.3728
X2.7657Y-0.5343
X2.7667Y-0.2766
X2.7795Y-0.0484
X2.8165Y-0.7339
X2.8244Y0.2476
X2.8354Y-0.5598
X2.8441Y0.0614
X2.8602Y-0.435
X2.8665Y-0.3563
X2.874Y0.178
X2.874Y-0.2665
X2.887Y-0.5102
X2.8906Y-0.3594
X2.913Y-0.5969
X2.9136Y-1.3097
X2.9138Y0.2559
X2.9138Y-0.2657
X2.937Y-1.3067
X2.9406Y0.0465
X2.9409Y0.1571
X2.9441Y-0.2732
X2.9441Y-0.6568
X2.965Y-0.6371
X2.9728Y-0.2272
X2.974Y-0.2689
X2.9752Y-0.7965
X2.9846Y-0.6166
X3.0039Y-1.9256
X3.0803Y-0.0469
X3.1004Y-3.4862
X3.1022Y-3.5114
X3.1276Y-0.9417
X3.1453Y-3.7555
X3.1461Y-3.4244
X3.1693Y-3.6378
X3.1701Y-3.4465
X3.1866Y-0.2606
X3.189Y-3.4606
X3.189Y-3.6575
X3.2047Y-3.6772
X3.2087Y-3.5945
X3.2177Y-0.2543
X3.2181Y-0.5189
X3.2362Y-2.2283
X3.2654Y-0.7933
X3.2673Y-3.4213
X3.2677Y-3.5276
X3.2815Y-0.698
X3.2905Y-3.6729
X3.2933Y-1.0311
X3.3132Y-3.6142
X3.3362Y-3.6281
X3.3362Y-0.3626
X3.3402Y-0.7178
X3.3402Y-3.8437
X3.3406Y-0.7572
X3.3409Y-0.8016
X3.3457Y-3.6843
X3.3543Y-3.4
X3.3573Y-3.6627
X3.3583Y-2.5874
X3.363Y-3.4693
X3.3685Y-2.8417
X3.3728Y-3.7744
X3.3768Y-0.7157
X3.3789Y-4.0295
X3.389Y-0.7375
X3.3898Y-0.7803
X3.3957Y-0.3457
X3.3979Y-1.3313
X3.4023Y-0.7571
X3.4083Y-3.8106
X3.4094Y-3.5236
X3.4256Y-2.8165
X3.4256Y-3.1437
X3.4441Y-2.7941
X3.4449Y-0.5197
X3.4487Y-0.7495
X3.4646Y-0.5512
X3.465Y-3.1409
X3.4661Y-3.8831
X3.4674Y-4.0366
X3.4787Y-1.3118
X3.4843Y-0.5654
X3.4843Y-3.8543
X3.4846Y-0.0748
X3.4862Y-3.4173
X3.4884Y-4.0473
X3.4921Y-1.2406
X3.5Y-0.585
X3.5114Y-1.3102
X3.5193Y-0.7185
X3.5217Y-3.7047
X3.5256Y-3.985
X3.5447Y-0.2756
X3.5496Y-3.4374
X3.5543Y-2.7547
X3.5709Y-3.5827
X3.5709Y-3.8268
X3.5776Y-4.0473
X3.5815Y-0.6898
X3.5846Y-0.4039
X3.5937Y-3.8453
X3.5947Y-0.2756
X3.5957Y-3.5827
X3.6075Y-0.5783
X3.6118Y-3.9154
X3.6193Y0.2543
X3.6224Y-0.0543
X3.6398Y0.2091
X3.6445Y-0.5283
X3.6539Y-0.7197
X3.6756Y-2.8307
X3.6772Y-3.2362
X3.6895Y-0.3309
X3.6909Y-1.2886
X3.6945Y-0.5311
X3.6976Y-3.9701
X3.6988Y-0.2748
X3.7161Y-0.6217
X3.7264Y-1.2575
X3.7362Y-0.7854
X3.7412Y-1.9437
X3.7462Y-1.2378
X3.7567Y-2.6795
X3.7575Y0.252
X3.7659Y-1.3299
X3.7659Y-1.813
X3.8012Y-3.9382
X3.815Y-3.3071
X3.8314Y-2.824
X3.8504Y-3.4075
X3.8504Y-3.6496
X3.857Y-2.7547
X3.8767Y-2.6843
X3.8843Y0.2374
X3.885Y-1.0079
X3.9134Y-3.4488
X3.9134Y-3.9094
X3.9173Y-3.689
X3.9436Y-3.3071
X3.9535Y-0.0551
X3.9551Y-0.2717
X3.975Y-0.0724
X3.9827Y-0.5547
X4.0157Y-3.4252
X4.0472Y-1.3165
X4.0709Y-0.3858
X4.0748Y-1.2831
X4.0827Y-3.4528
X4.0906Y-4.063
X4.0965Y-1.2622
X4.097Y-0.4002
X4.1451Y-3.7516
X4.1524Y-3.881
X4.1535Y-3.5374
X4.1654Y-3.7638
X4.1693Y-3.5571
X4.1815Y-3.3035
X4.1898Y-2.6449
X4.2008Y-3.5728
X4.2047Y-3.7598
X4.2116Y-2.7154
X4.213Y-2.739
X4.2224Y-3.8693
X4.226Y-4.1535
X4.2311Y-3.6122
X4.2382Y-2.7567
X4.2406Y-3.4972
X4.2488Y-0.5386
X4.2582Y-3.3077
X4.2626Y-0.0488
X4.2685Y-2.7744
X4.2815Y-3.3039
X4.2949Y-2.7972
X4.2969Y-3.4342
X4.3008Y-4.1732
X4.3145Y-3.2876
X4.3205Y-3.4346
X4.3228Y-4.1929
X4.3425Y-3.4055
X4.3425Y-3.7205
X4.3427Y-3.3151
X4.3622Y-3.6327
X4.4138Y-1.637
X4.4205Y-0.0587
X4.4252Y-1.7559
X4.4252Y-2.063
X4.4303Y0.1823
X4.437Y-3.2953
X4.437Y-4.065
X4.4449Y-1.7417
X4.4535Y-1.6039
X4.4535Y-4.1929
X4.4539Y0.24
X4.4598Y-3.652
X4.4665Y-0.3091
X4.4724Y-2.0709
X4.4736Y0.2559
X4.4819Y0.1083
X4.5012Y-3.7724
X4.5028Y-3.6969
X4.5197Y-2.0787
X4.5413Y-1.6039
X4.5512Y-1.7402
X4.563Y-2.0827
X4.5736Y-2.2587
X4.5748Y-1.7559
X4.5917Y-1.6346
X4.5992Y-1.9437
X4.6004Y-0.2543
X4.611Y-1.7547
X4.6122Y-1.9043
X4.6142Y-2.2783
X4.624Y-0.2543
X4.6406Y-2.0874
X4.6665Y-1.7472
X4.6736Y-1.9043
X4.6736Y-1.9437
X4.6929Y-0.0602
X4.7071Y-2.5736
X4.7764Y-2.2375
X4.7933Y-1.924
X4.7961Y-2.2178
X4.7961Y-2.2827
X4.8437Y-3.3831
X4.8661Y-3.4803
X4.8705Y-3.378
X5.0567Y-2.8291
X5.0587Y-2.7835
X5.1705Y0.1764
X5.1815Y-0.2402
X5.1921Y0.235
X5.2051Y-0.2402
X5.2122Y0.2559
X5.252Y-1.315
X5.2571Y-1.815
X5.361Y-0.2402
X5.4181Y-0.0547
X5.5315Y-4.1583
X5.5335Y-4.026
X5.6386Y-0.3646
X5.648Y-1.3016
X5.7138Y-3.9827
X5.7197Y-4.0736
X5.7618Y-4.1524
X5.8134Y-3.5677
X5.9134Y-1.6295
X5.922Y0.1827
X5.9244Y-1.7646
X5.9304Y-0.2283
X5.9441Y-1.7402
X5.9449Y0.2287
X5.95Y-1.5988
X5.9531Y-2.0803
X5.9673Y0.2504
X5.9756Y-2.0732
X6.0023Y-2.0721
X6.043Y-2.0905
X6.0433Y-3.6496
X6.0433Y-3.6969
X6.0433Y-3.748
X6.0465Y-1.5969
X6.0519Y-2.2375
X6.0547Y-1.7382
X6.0594Y-2.2614
X6.0744Y-1.7622
X6.0906Y-1.6295
X6.1079Y-0.2382
X6.1091Y-0.4591
X6.1189Y-2.2594
X6.1244Y-1.7606
X6.1252Y-1.9126
X6.1252Y-2.0685
X6.1276Y-0.2224
X6.1449Y-0.374
X6.1449Y-0.6295
X6.1458Y-2.2375
X6.15Y-2.5831
X6.2083Y-2.1197
X6.2091Y-1.815
X6.2878Y-0.0579
X6.3961Y-0.3016
X6.5526Y-0.2224
X6.6535Y-0.0787
X6.6535Y-0.315
X6.6685Y0.1799
X6.7118Y0.2476
X6.7172Y0.1668
X6.7965Y-0.1622
X6.8123Y-0.1998
X6.8602Y-0.0409
X6.8623Y-0.1967
X6.8626Y0.0654
X6.9091Y-0.1602
X6.9114Y-0.4154
X6.9126Y-0.0693
X6.9839Y-0.0551
X7.0343Y0.0161
X7.0425Y0.1142
X7.1913Y0.2091
X7.2756Y0.1016
X7.3008Y0.2094
X7.3799Y0.0705
X7.4134Y-0.2441
X7.4161Y-1.6303
X7.426Y-1.761
X7.4457Y-1.7459
X7.4551Y-1.5984
X7.4847Y-2.1011
X7.4854Y-2.074
X7.5216Y-2.0823
X7.537Y0.1564
X7.5413Y0.2354
X7.5473Y-2.0858
X7.5539Y-1.5976
X7.5575Y-1.7449
X7.5597Y-2.2375
X7.5728Y-2.2898
X7.5772Y-1.7618
X7.5921Y-1.6303
X7.6193Y-2.2917
X7.622Y-1.7575
X7.6244Y-1.9146
X7.6256Y-2.0626
X7.7043Y-2.2375
X7.7126Y-2.1815
X7.7138Y-1.8157
X7.7677Y-0.1841
X7.824Y0.25
X7.8642Y0.1969
X7.9728Y-0.1134
X8.2161Y-0.6969
X8.2748Y-0.0878
X8.2764Y0.0575
X8.2787Y0.2232
X8.322Y-0.3346
X8.3307Y0.2551
X8.3453Y-0.1841
X8.352Y0.2035
X8.365Y0.0996
X8.4768Y-0.1841
X8.5638Y0.2559
X8.5984Y0.2004
X8.7205Y-0.2392
X8.8366Y0.111
X8.9126Y-1.6272
X8.9248Y-1.7646
X8.9445Y-1.7437
X8.9602Y-1.5953
X8.9721Y-2.0936
X8.974Y-2.0677
X8.9768Y0.0846
X9.0051Y-2.0709
X9.0321Y-2.0757
X9.0488Y-1.5941
X9.061Y-1.7372
X9.0661Y-0.3346
X9.0697Y-2.1972
X9.0713Y0.2559
X9.0795Y-2.2528
X9.0807Y-1.7602
X9.0874Y0.2126
X9.0933Y-1.6272
X9.0941Y-0.1841
X9.1157Y-2.2761
X9.1244Y-1.7642
X9.1248Y-1.9126
X9.1268Y-2.0665
X9.1465Y-2.2642
X9.215Y-1.8157
X9.2165Y-2.1469
X9.2386Y-0.1841
X9.3126Y0.2559
X9.4685Y-0.2392
X9.4947Y-1.3421
X9.7126Y-0.3346
X9.8031Y0.2508
X9.8043Y-0.3346
X9.8185Y0.2035
X9.8264Y-0.1841
X10.1264Y0.2382
X10.1925Y-0.3346
X10.1984Y-0.1535
X10.2154Y-0.1799
X10.2535Y0.0512
X10.3858Y-0.2795
X10.4055Y-0.0831
X10.4055Y-0.2205
X10.4094Y-0.2835
X10.4205Y0.1839
X10.4618Y-0.1051
X10.4945Y0.2087
X10.5109Y-0.2195
X10.5118Y-0.0984
X10.5276Y-0.2362
X10.5354Y-0.2913
X10.5531Y-0.1539
X10.5724Y0.0646
X10.6358Y0.0
X10.6535Y-0.1701
X10.6965Y-2.276
X10.6992Y-2.5579
X10.7031Y-2.2102
X10.7185Y-1.6949
X10.7421Y-1.885
X10.7484Y-2.2252
X10.7685Y-2.2694
X10.7756Y-1.702
X10.7807Y-1.6248
X10.7854Y-3.0189
X10.8004Y-2.0665
X10.8008Y-1.7654
X10.8008Y-2.872
X10.8165Y-3.0535
X10.8205Y-1.7508
X10.8205Y-2.8865
X10.824Y-2.0764
X10.8303Y0.0909
X10.8362Y-1.7331
X10.852Y-1.7108
X10.8575Y-0.252
X10.8591Y0.2488
X10.8614Y-2.913
X10.8678Y-2.2012
X10.8689Y-2.5528
X10.89Y-1.6226
X10.8988Y-2.0705
X10.9016Y-1.6606
X10.9236Y-1.7253
X10.9266Y-2.2152
X10.9268Y-2.8904
X10.9268Y-3.0559
X10.9465Y-2.874
X10.9469Y-1.6839
X10.948Y-2.0795
X10.9549Y-2.2156
X10.9686Y-2.9875
X10.9699Y-2.8765
X10.9776Y-2.2949
X10.9965Y-2.0646
X10.9972Y-2.2572
X10.9988Y-1.9098
X10.9988Y-2.213
X11.0Y-2.7535
X11.0051Y-1.8701
X11.0201Y-2.2937
X11.0209Y-2.2572
X11.0472Y-2.2063
X11.0504Y-2.1811
X11.0531Y-1.8823
X11.0728Y-1.9445
X11.1043Y-0.713
X11.3622Y-0.0984
X11.4413Y-0.2091
X11.4654Y-1.0102
X11.4839Y-0.2323
X11.4941Y-1.3575
X11.4953Y-1.0205
X11.5079Y0.1016
T2
X0.5717Y-2.9379
X4.582Y-3.8371
X4.6308Y-3.8867
X4.6312Y-3.7883
X4.6805Y-3.8375
X4.832Y-3.7375
X4.8812Y-3.6879
X4.8812Y-3.7863
X4.9301Y-3.7371
X10.1342Y-2.1879
T3
X3.6339Y-4.1614
X3.7323Y-4.1614
X3.8307Y-4.1614
X3.9291Y-4.1614
T4
X5.6028Y-4.1531
X5.7012Y-4.1531
X5.9339Y-4.1531
X6.0323Y-4.1531
T5
X-0.15Y0.1
X-0.15Y-0.8375
X-0.0563Y-2.3375
X-0.0563Y-3.8375
X0.0375Y-1.5875
X0.0394Y-3.8378
X0.1Y0.2
X0.1Y-0.7375
X0.1313Y-2.3375
X0.1937Y-2.2375
X0.1937Y-3.7375
X0.2875Y-1.4875
X0.2894Y-3.7378
X0.3217Y-3.0875
X0.3813Y-2.2375
X0.5717Y-2.9875
X0.6Y-0.8375
X0.7875Y0.1
X0.85Y-0.7375
X0.8812Y-3.8375
X0.975Y-1.5875
X0.9764Y-3.8376
X0.9768Y0.1008
X1.0375Y0.2
X1.1312Y-3.7375
X1.1625Y-2.3375
X1.225Y-1.4875
X1.2264Y-3.7376
X1.2268Y0.2008
X1.35Y-0.8375
X1.4125Y-2.2375
X1.5375Y0.1
X1.5375Y-3.0875
X1.6Y-0.7375
X1.725Y-1.5875
X1.726Y0.1004
X1.7875Y0.2
X1.7875Y-2.9875
X1.8187Y-3.8375
X1.9125Y-2.3375
X1.913Y-3.8382
X1.975Y-1.4875
X1.976Y0.2004
X2.0687Y-3.7375
X2.1Y-0.8375
X2.1625Y-2.2375
X2.163Y-3.7382
X2.2875Y0.1
X2.2875Y-3.0875
X2.35Y-0.7375
X2.475Y-1.5875
X2.4756Y0.1
X2.5375Y0.2
X2.5375Y-2.9875
X2.6625Y-2.3375
X2.725Y-1.4875
X2.7256Y0.2
X2.85Y-0.8375
X2.9125Y-2.2375
X3.0375Y0.1
X3.0375Y-3.0875
X3.1Y-0.7375
X3.225Y-1.5875
X3.2256Y0.1
X3.2875Y0.2
X3.2875Y-2.9875
X3.4125Y-2.3375
X3.475Y-1.4875
X3.4756Y0.2
X3.6Y-0.8375
X3.6625Y-2.2375
X3.7875Y-3.0875
X3.85Y-0.7375
X3.975Y0.1
X3.975Y-1.5875
X4.0375Y-2.9875
X4.1625Y-2.3375
X4.225Y0.2
X4.225Y-1.4875
X4.35Y-0.8375
X4.3516Y0.0996
X4.4125Y-2.2375
X4.5375Y-3.0875
X4.6Y-0.7375
X4.6016Y0.1996
X4.6312Y-3.8375
X4.725Y0.1
X4.725Y-1.5875
X4.7875Y-2.9875
X4.8812Y-3.7375
X4.9125Y-2.3375
X4.975Y0.2
X4.975Y-1.4875
X5.1Y-0.8375
X5.1004Y-3.8376
X5.102Y0.1
X5.1625Y-2.2375
X5.2875Y-3.0875
X5.35Y-0.7375
X5.3504Y-3.7376
X5.352Y0.2
X5.475Y0.1
X5.475Y-1.5875
X5.5375Y-2.9875
X5.6625Y-2.3375
X5.725Y0.2
X5.725Y-1.4875
X5.85Y-0.8375
X5.8516Y0.1004
X5.9125Y-2.2375
X6.0375Y-3.0875
X6.1Y-0.7375
X6.1016Y0.2004
X6.225Y0.1
X6.225Y-1.5875
X6.2875Y-2.9875
X6.4125Y-2.3375
X6.475Y0.2
X6.475Y-1.4875
X6.6Y-0.8375
X6.602Y0.1004
X6.6625Y-2.2375
X6.7875Y-3.0875
X6.85Y-0.7375
X6.852Y0.2004
X6.975Y-1.5875
X7.0375Y-2.9875
X7.1625Y0.1
X7.1625Y-2.3375
X7.225Y-1.4875
X7.35Y-0.8375
X7.4125Y0.2
X7.4125Y-2.2375
X7.4437Y-3.8375
X7.5375Y-3.0875
X7.6Y-0.7375
X7.6937Y-3.7375
X7.725Y-1.5875
X7.7264Y0.1
X7.7875Y-2.9875
X7.9125Y0.1
X7.9125Y-2.3375
X7.975Y-1.4875
X7.9764Y0.2
X8.1Y-0.8375
X8.1625Y0.2
X8.1625Y-2.2375
X8.2875Y-3.0875
X8.2878Y-3.8378
X8.35Y-0.7375
X8.3812Y-3.8375
X8.475Y-1.5875
X8.476Y0.0996
X8.5375Y-2.9875
X8.5378Y-3.7378
X8.6312Y-3.7375
X8.6625Y0.1
X8.6625Y-2.3375
X8.725Y-1.4875
X8.726Y0.1996
X8.85Y-0.8375
X8.9125Y0.2
X8.9125Y-2.2375
X9.1Y-0.7375
X9.225Y-1.5875
X9.226Y0.1
X9.3188Y-3.0875
X9.4125Y0.1
X9.475Y-1.4875
X9.476Y0.2
X9.5688Y-2.9875
X9.6Y-0.8375
X9.6Y-3.8375
X9.6625Y0.2
X9.85Y-0.7375
X9.85Y-3.7375
X9.8842Y-2.3375
X9.975Y-0.8375
X9.976Y0.1
X10.1342Y-2.2375
X10.1625Y-1.5875
X10.225Y-0.7375
X10.226Y0.2
X10.35Y0.1
X10.35Y-0.8375
X10.35Y-3.0875
X10.35Y-3.8375
X10.4125Y-1.4875
X10.6Y0.2
X10.6Y-0.7375
X10.6Y-2.9875
X10.6Y-3.7375
X11.1Y0.1
X11.1Y-0.8375
X11.1Y-1.5875
X11.1Y-2.3375
X11.1Y-3.0875
X11.1Y-3.8375
X11.35Y0.2
X11.35Y-0.7375
X11.35Y-1.4875
X11.35Y-2.2375
X11.35Y-2.9875
X11.35Y-3.7375
M30
