%TF.GenerationSoftware,KiCad,Pcbnew,8.99.0-2206-gee77d06be7*%
%TF.CreationDate,2024-10-02T02:50:39+07:00*%
%TF.ProjectId,75\u0025,3735252e-6b69-4636-9164-5f7063625858,rev?*%
%TF.SameCoordinates,Original*%
%TF.FileFunction,Drillmap*%
%TF.FilePolarity,Positive*%
%FSLAX45Y45*%
G04 Gerber Fmt 4.5, Leading zero omitted, Abs format (unit mm)*
G04 Created by KiCad (PCBNEW 8.99.0-2206-gee77d06be7) date 2024-10-02 02:50:39*
%MOMM*%
%LPD*%
G01*
G04 APERTURE LIST*
%ADD10C,0.050000*%
%ADD11C,0.200000*%
%ADD12C,0.170000*%
%ADD13C,0.304800*%
%ADD14C,0.398780*%
%ADD15C,0.400000*%
G04 APERTURE END LIST*
D10*
X18900000Y-10880000D02*
X18780000Y-10720000D01*
X19210000Y-10880000D02*
X19330000Y-10720000D01*
X17300000Y-10880000D02*
X17420000Y-10720000D01*
X-720000Y420000D02*
G75*
G02*
X-420000Y720000I300000J0D01*
G01*
X16990000Y-10880000D02*
X17300000Y-10880000D01*
X7780000Y-10880000D02*
X7900000Y-10720000D01*
X29300000Y-10420000D02*
G75*
G02*
X29000000Y-10720000I-300000J0D01*
G01*
X29300000Y-10420000D02*
X29300000Y420000D01*
X16990000Y-10880000D02*
X16870000Y-10720000D01*
X17420000Y-10720000D02*
X18780000Y-10720000D01*
X-420000Y-10720000D02*
X6860000Y-10720000D01*
X6980000Y-10880000D02*
X7780000Y-10880000D01*
X29000000Y720000D02*
X-420000Y720000D01*
X6980000Y-10880000D02*
X6860000Y-10720000D01*
X-420000Y-10720000D02*
G75*
G02*
X-720000Y-10420000I0J300000D01*
G01*
X7900000Y-10720000D02*
X16870000Y-10720000D01*
X18900000Y-10880000D02*
X19210000Y-10880000D01*
X19330000Y-10720000D02*
X29000000Y-10720000D01*
X-720000Y420000D02*
X-720000Y-10420000D01*
X29000000Y720000D02*
G75*
G02*
X29300000Y420000I0J-300000D01*
G01*
D11*
D12*
X-593000Y85000D02*
X-423000Y-85000D01*
X-423000Y85000D02*
X-593000Y-85000D01*
X-593000Y-2296250D02*
X-423000Y-2466250D01*
X-423000Y-2296250D02*
X-593000Y-2466250D01*
X-354900Y-6106250D02*
X-184900Y-6276250D01*
X-184900Y-6106250D02*
X-354900Y-6276250D01*
X-354900Y-9916250D02*
X-184900Y-10086250D01*
X-184900Y-9916250D02*
X-354900Y-10086250D01*
X-116700Y-4201250D02*
X53300Y-4371250D01*
X53300Y-4201250D02*
X-116700Y-4371250D01*
X-112000Y-9917000D02*
X58000Y-10087000D01*
X58000Y-9917000D02*
X-112000Y-10087000D01*
X121400Y-6106250D02*
X291400Y-6276250D01*
X291400Y-6106250D02*
X121400Y-6276250D01*
X423000Y85000D02*
X593000Y-85000D01*
X593000Y85000D02*
X423000Y-85000D01*
X423000Y-2296250D02*
X593000Y-2466250D01*
X593000Y-2296250D02*
X423000Y-2466250D01*
X605060Y-8011250D02*
X775060Y-8181250D01*
X775060Y-8011250D02*
X605060Y-8181250D01*
X661100Y-6106250D02*
X831100Y-6276250D01*
X831100Y-6106250D02*
X661100Y-6276250D01*
X661100Y-9916250D02*
X831100Y-10086250D01*
X831100Y-9916250D02*
X661100Y-10086250D01*
X899300Y-4201250D02*
X1069300Y-4371250D01*
X1069300Y-4201250D02*
X899300Y-4371250D01*
X904000Y-9917000D02*
X1074000Y-10087000D01*
X1074000Y-9917000D02*
X904000Y-10087000D01*
X1137400Y-6106250D02*
X1307400Y-6276250D01*
X1307400Y-6106250D02*
X1137400Y-6276250D01*
X1312000Y-2296250D02*
X1482000Y-2466250D01*
X1482000Y-2296250D02*
X1312000Y-2466250D01*
X1621060Y-8011250D02*
X1791060Y-8181250D01*
X1791060Y-8011250D02*
X1621060Y-8181250D01*
X1788250Y85000D02*
X1958250Y-85000D01*
X1958250Y85000D02*
X1788250Y-85000D01*
X2026350Y-9916250D02*
X2196350Y-10086250D01*
X2196350Y-9916250D02*
X2026350Y-10086250D01*
X2264500Y-4201250D02*
X2434500Y-4371250D01*
X2434500Y-4201250D02*
X2264500Y-4371250D01*
X2268000Y-9916500D02*
X2438000Y-10086500D01*
X2438000Y-9916500D02*
X2268000Y-10086500D01*
X2269000Y87000D02*
X2439000Y-83000D01*
X2439000Y87000D02*
X2269000Y-83000D01*
X2328000Y-2296250D02*
X2498000Y-2466250D01*
X2498000Y-2296250D02*
X2328000Y-2466250D01*
X2740750Y-6106250D02*
X2910750Y-6276250D01*
X2910750Y-6106250D02*
X2740750Y-6276250D01*
X2804250Y85000D02*
X2974250Y-85000D01*
X2974250Y85000D02*
X2804250Y-85000D01*
X3042350Y-9916250D02*
X3212350Y-10086250D01*
X3212350Y-9916250D02*
X3042350Y-10086250D01*
X3217000Y-2296250D02*
X3387000Y-2466250D01*
X3387000Y-2296250D02*
X3217000Y-2466250D01*
X3280500Y-4201250D02*
X3450500Y-4371250D01*
X3450500Y-4201250D02*
X3280500Y-4371250D01*
X3284000Y-9916500D02*
X3454000Y-10086500D01*
X3454000Y-9916500D02*
X3284000Y-10086500D01*
X3285000Y87000D02*
X3455000Y-83000D01*
X3455000Y87000D02*
X3285000Y-83000D01*
X3693250Y85000D02*
X3863250Y-85000D01*
X3863250Y85000D02*
X3693250Y-85000D01*
X3693250Y-8011250D02*
X3863250Y-8181250D01*
X3863250Y-8011250D02*
X3693250Y-8181250D01*
X3756750Y-6106250D02*
X3926750Y-6276250D01*
X3926750Y-6106250D02*
X3756750Y-6276250D01*
X4169500Y-4201250D02*
X4339500Y-4371250D01*
X4339500Y-4201250D02*
X4169500Y-4371250D01*
X4172000Y86000D02*
X4342000Y-84000D01*
X4342000Y86000D02*
X4172000Y-84000D01*
X4233000Y-2296250D02*
X4403000Y-2466250D01*
X4403000Y-2296250D02*
X4233000Y-2466250D01*
X4407600Y-9916250D02*
X4577600Y-10086250D01*
X4577600Y-9916250D02*
X4407600Y-10086250D01*
X4645750Y-6106250D02*
X4815750Y-6276250D01*
X4815750Y-6106250D02*
X4645750Y-6276250D01*
X4647000Y-9918000D02*
X4817000Y-10088000D01*
X4817000Y-9918000D02*
X4647000Y-10088000D01*
X4709250Y85000D02*
X4879250Y-85000D01*
X4879250Y85000D02*
X4709250Y-85000D01*
X4709250Y-8011250D02*
X4879250Y-8181250D01*
X4879250Y-8011250D02*
X4709250Y-8181250D01*
X5122000Y-2296250D02*
X5292000Y-2466250D01*
X5292000Y-2296250D02*
X5122000Y-2466250D01*
X5185500Y-4201250D02*
X5355500Y-4371250D01*
X5355500Y-4201250D02*
X5185500Y-4371250D01*
X5188000Y86000D02*
X5358000Y-84000D01*
X5358000Y86000D02*
X5188000Y-84000D01*
X5423600Y-9916250D02*
X5593600Y-10086250D01*
X5593600Y-9916250D02*
X5423600Y-10086250D01*
X5598250Y85000D02*
X5768250Y-85000D01*
X5768250Y85000D02*
X5598250Y-85000D01*
X5598250Y-8011250D02*
X5768250Y-8181250D01*
X5768250Y-8011250D02*
X5598250Y-8181250D01*
X5661750Y-6106250D02*
X5831750Y-6276250D01*
X5831750Y-6106250D02*
X5661750Y-6276250D01*
X5663000Y-9918000D02*
X5833000Y-10088000D01*
X5833000Y-9918000D02*
X5663000Y-10088000D01*
X6074500Y-4201250D02*
X6244500Y-4371250D01*
X6244500Y-4201250D02*
X6074500Y-4371250D01*
X6076000Y85000D02*
X6246000Y-85000D01*
X6246000Y85000D02*
X6076000Y-85000D01*
X6138000Y-2296250D02*
X6308000Y-2466250D01*
X6308000Y-2296250D02*
X6138000Y-2466250D01*
X6550750Y-6106250D02*
X6720750Y-6276250D01*
X6720750Y-6106250D02*
X6550750Y-6276250D01*
X6614250Y85000D02*
X6784250Y-85000D01*
X6784250Y85000D02*
X6614250Y-85000D01*
X6614250Y-8011250D02*
X6784250Y-8181250D01*
X6784250Y-8011250D02*
X6614250Y-8181250D01*
X7027000Y-2296250D02*
X7197000Y-2466250D01*
X7197000Y-2296250D02*
X7027000Y-2466250D01*
X7090500Y-4201250D02*
X7260500Y-4371250D01*
X7260500Y-4201250D02*
X7090500Y-4371250D01*
X7092000Y85000D02*
X7262000Y-85000D01*
X7262000Y85000D02*
X7092000Y-85000D01*
X7503250Y85000D02*
X7673250Y-85000D01*
X7673250Y85000D02*
X7503250Y-85000D01*
X7503250Y-8011250D02*
X7673250Y-8181250D01*
X7673250Y-8011250D02*
X7503250Y-8181250D01*
X7566750Y-6106250D02*
X7736750Y-6276250D01*
X7736750Y-6106250D02*
X7566750Y-6276250D01*
X7979500Y-4201250D02*
X8149500Y-4371250D01*
X8149500Y-4201250D02*
X7979500Y-4371250D01*
X7981000Y85000D02*
X8151000Y-85000D01*
X8151000Y85000D02*
X7981000Y-85000D01*
X8043000Y-2296250D02*
X8213000Y-2466250D01*
X8213000Y-2296250D02*
X8043000Y-2466250D01*
X8455750Y-6106250D02*
X8625750Y-6276250D01*
X8625750Y-6106250D02*
X8455750Y-6276250D01*
X8519250Y85000D02*
X8689250Y-85000D01*
X8689250Y85000D02*
X8519250Y-85000D01*
X8519250Y-8011250D02*
X8689250Y-8181250D01*
X8689250Y-8011250D02*
X8519250Y-8181250D01*
X8932000Y-2296250D02*
X9102000Y-2466250D01*
X9102000Y-2296250D02*
X8932000Y-2466250D01*
X8995500Y-4201250D02*
X9165500Y-4371250D01*
X9165500Y-4201250D02*
X8995500Y-4371250D01*
X8997000Y85000D02*
X9167000Y-85000D01*
X9167000Y85000D02*
X8997000Y-85000D01*
X9408250Y-8011250D02*
X9578250Y-8181250D01*
X9578250Y-8011250D02*
X9408250Y-8181250D01*
X9471750Y-6106250D02*
X9641750Y-6276250D01*
X9641750Y-6106250D02*
X9471750Y-6276250D01*
X9884500Y85000D02*
X10054500Y-85000D01*
X10054500Y85000D02*
X9884500Y-85000D01*
X9884500Y-4201250D02*
X10054500Y-4371250D01*
X10054500Y-4201250D02*
X9884500Y-4371250D01*
X9948000Y-2296250D02*
X10118000Y-2466250D01*
X10118000Y-2296250D02*
X9948000Y-2466250D01*
X10360750Y-6106250D02*
X10530750Y-6276250D01*
X10530750Y-6106250D02*
X10360750Y-6276250D01*
X10424250Y-8011250D02*
X10594250Y-8181250D01*
X10594250Y-8011250D02*
X10424250Y-8181250D01*
X10837000Y-2296250D02*
X11007000Y-2466250D01*
X11007000Y-2296250D02*
X10837000Y-2466250D01*
X10841000Y84000D02*
X11011000Y-86000D01*
X11011000Y84000D02*
X10841000Y-86000D01*
X10900500Y85000D02*
X11070500Y-85000D01*
X11070500Y85000D02*
X10900500Y-85000D01*
X10900500Y-4201250D02*
X11070500Y-4371250D01*
X11070500Y-4201250D02*
X10900500Y-4371250D01*
X11313250Y-8011250D02*
X11483250Y-8181250D01*
X11483250Y-8011250D02*
X11313250Y-8181250D01*
X11376750Y-6106250D02*
X11546750Y-6276250D01*
X11546750Y-6106250D02*
X11376750Y-6276250D01*
X11551350Y-9916250D02*
X11721350Y-10086250D01*
X11721350Y-9916250D02*
X11551350Y-10086250D01*
X11789500Y85000D02*
X11959500Y-85000D01*
X11959500Y85000D02*
X11789500Y-85000D01*
X11789500Y-4201250D02*
X11959500Y-4371250D01*
X11959500Y-4201250D02*
X11789500Y-4371250D01*
X11853000Y-2296250D02*
X12023000Y-2466250D01*
X12023000Y-2296250D02*
X11853000Y-2466250D01*
X11857000Y84000D02*
X12027000Y-86000D01*
X12027000Y84000D02*
X11857000Y-86000D01*
X12265750Y-6106250D02*
X12435750Y-6276250D01*
X12435750Y-6106250D02*
X12265750Y-6276250D01*
X12329250Y-8011250D02*
X12499250Y-8181250D01*
X12499250Y-8011250D02*
X12329250Y-8181250D01*
X12567350Y-9916250D02*
X12737350Y-10086250D01*
X12737350Y-9916250D02*
X12567350Y-10086250D01*
X12742000Y-2296250D02*
X12912000Y-2466250D01*
X12912000Y-2296250D02*
X12742000Y-2466250D01*
X12743000Y-9916500D02*
X12913000Y-10086500D01*
X12913000Y-9916500D02*
X12743000Y-10086500D01*
X12747000Y85000D02*
X12917000Y-85000D01*
X12917000Y85000D02*
X12747000Y-85000D01*
X12805500Y85000D02*
X12975500Y-85000D01*
X12975500Y85000D02*
X12805500Y-85000D01*
X12805500Y-4201250D02*
X12975500Y-4371250D01*
X12975500Y-4201250D02*
X12805500Y-4371250D01*
X13218250Y-8011250D02*
X13388250Y-8181250D01*
X13388250Y-8011250D02*
X13218250Y-8181250D01*
X13281750Y-6106250D02*
X13451750Y-6276250D01*
X13451750Y-6106250D02*
X13281750Y-6276250D01*
X13694500Y85000D02*
X13864500Y-85000D01*
X13864500Y85000D02*
X13694500Y-85000D01*
X13694500Y-4201250D02*
X13864500Y-4371250D01*
X13864500Y-4201250D02*
X13694500Y-4371250D01*
X13758000Y-2296250D02*
X13928000Y-2466250D01*
X13928000Y-2296250D02*
X13758000Y-2466250D01*
X13759000Y-9916500D02*
X13929000Y-10086500D01*
X13929000Y-9916500D02*
X13759000Y-10086500D01*
X13763000Y85000D02*
X13933000Y-85000D01*
X13933000Y85000D02*
X13763000Y-85000D01*
X14170750Y-6106250D02*
X14340750Y-6276250D01*
X14340750Y-6106250D02*
X14170750Y-6276250D01*
X14234250Y-8011250D02*
X14404250Y-8181250D01*
X14404250Y-8011250D02*
X14234250Y-8181250D01*
X14647000Y-2296250D02*
X14817000Y-2466250D01*
X14817000Y-2296250D02*
X14647000Y-2466250D01*
X14651000Y86000D02*
X14821000Y-84000D01*
X14821000Y86000D02*
X14651000Y-84000D01*
X14710500Y85000D02*
X14880500Y-85000D01*
X14880500Y85000D02*
X14710500Y-85000D01*
X14710500Y-4201250D02*
X14880500Y-4371250D01*
X14880500Y-4201250D02*
X14710500Y-4371250D01*
X15123250Y-8011250D02*
X15293250Y-8181250D01*
X15293250Y-8011250D02*
X15123250Y-8181250D01*
X15186750Y-6106250D02*
X15356750Y-6276250D01*
X15356750Y-6106250D02*
X15186750Y-6276250D01*
X15599500Y85000D02*
X15769500Y-85000D01*
X15769500Y85000D02*
X15599500Y-85000D01*
X15599500Y-4201250D02*
X15769500Y-4371250D01*
X15769500Y-4201250D02*
X15599500Y-4371250D01*
X15663000Y-2296250D02*
X15833000Y-2466250D01*
X15833000Y-2296250D02*
X15663000Y-2466250D01*
X15667000Y86000D02*
X15837000Y-84000D01*
X15837000Y86000D02*
X15667000Y-84000D01*
X16075750Y-6106250D02*
X16245750Y-6276250D01*
X16245750Y-6106250D02*
X16075750Y-6276250D01*
X16139250Y-8011250D02*
X16309250Y-8181250D01*
X16309250Y-8011250D02*
X16139250Y-8181250D01*
X16552000Y-2296250D02*
X16722000Y-2466250D01*
X16722000Y-2296250D02*
X16552000Y-2466250D01*
X16557000Y86000D02*
X16727000Y-84000D01*
X16727000Y86000D02*
X16557000Y-84000D01*
X16615500Y85000D02*
X16785500Y-85000D01*
X16785500Y85000D02*
X16615500Y-85000D01*
X16615500Y-4201250D02*
X16785500Y-4371250D01*
X16785500Y-4201250D02*
X16615500Y-4371250D01*
X17028250Y-8011250D02*
X17198250Y-8181250D01*
X17198250Y-8011250D02*
X17028250Y-8181250D01*
X17091750Y-6106250D02*
X17261750Y-6276250D01*
X17261750Y-6106250D02*
X17091750Y-6276250D01*
X17504500Y-4201250D02*
X17674500Y-4371250D01*
X17674500Y-4201250D02*
X17504500Y-4371250D01*
X17568000Y-2296250D02*
X17738000Y-2466250D01*
X17738000Y-2296250D02*
X17568000Y-2466250D01*
X17573000Y86000D02*
X17743000Y-84000D01*
X17743000Y86000D02*
X17573000Y-84000D01*
X17980750Y85000D02*
X18150750Y-85000D01*
X18150750Y85000D02*
X17980750Y-85000D01*
X17980750Y-6106250D02*
X18150750Y-6276250D01*
X18150750Y-6106250D02*
X17980750Y-6276250D01*
X18044250Y-8011250D02*
X18214250Y-8181250D01*
X18214250Y-8011250D02*
X18044250Y-8181250D01*
X18457000Y-2296250D02*
X18627000Y-2466250D01*
X18627000Y-2296250D02*
X18457000Y-2466250D01*
X18520500Y-4201250D02*
X18690500Y-4371250D01*
X18690500Y-4201250D02*
X18520500Y-4371250D01*
X18695100Y-9916250D02*
X18865100Y-10086250D01*
X18865100Y-9916250D02*
X18695100Y-10086250D01*
X18933250Y-8011250D02*
X19103250Y-8181250D01*
X19103250Y-8011250D02*
X18933250Y-8181250D01*
X18996750Y85000D02*
X19166750Y-85000D01*
X19166750Y85000D02*
X18996750Y-85000D01*
X18996750Y-6106250D02*
X19166750Y-6276250D01*
X19166750Y-6106250D02*
X18996750Y-6276250D01*
X19409500Y-4201250D02*
X19579500Y-4371250D01*
X19579500Y-4201250D02*
X19409500Y-4371250D01*
X19413000Y85000D02*
X19583000Y-85000D01*
X19583000Y85000D02*
X19413000Y-85000D01*
X19473000Y-2296250D02*
X19643000Y-2466250D01*
X19643000Y-2296250D02*
X19473000Y-2466250D01*
X19711100Y-9916250D02*
X19881100Y-10086250D01*
X19881100Y-9916250D02*
X19711100Y-10086250D01*
X19885750Y85000D02*
X20055750Y-85000D01*
X20055750Y85000D02*
X19885750Y-85000D01*
X19885750Y-6106250D02*
X20055750Y-6276250D01*
X20055750Y-6106250D02*
X19885750Y-6276250D01*
X19949250Y-8011250D02*
X20119250Y-8181250D01*
X20119250Y-8011250D02*
X19949250Y-8181250D01*
X20362000Y-2296250D02*
X20532000Y-2466250D01*
X20532000Y-2296250D02*
X20362000Y-2466250D01*
X20425500Y-4201250D02*
X20595500Y-4371250D01*
X20595500Y-4201250D02*
X20425500Y-4371250D01*
X20429000Y85000D02*
X20599000Y-85000D01*
X20599000Y85000D02*
X20429000Y-85000D01*
X20838250Y-8011250D02*
X21008250Y-8181250D01*
X21008250Y-8011250D02*
X20838250Y-8181250D01*
X20839000Y-9917000D02*
X21009000Y-10087000D01*
X21009000Y-9917000D02*
X20839000Y-10087000D01*
X20901750Y85000D02*
X21071750Y-85000D01*
X21071750Y85000D02*
X20901750Y-85000D01*
X20901750Y-6106250D02*
X21071750Y-6276250D01*
X21071750Y-6106250D02*
X20901750Y-6276250D01*
X21076350Y-9916250D02*
X21246350Y-10086250D01*
X21246350Y-9916250D02*
X21076350Y-10086250D01*
X21314500Y-4201250D02*
X21484500Y-4371250D01*
X21484500Y-4201250D02*
X21314500Y-4371250D01*
X21317000Y84000D02*
X21487000Y-86000D01*
X21487000Y84000D02*
X21317000Y-86000D01*
X21378000Y-2296250D02*
X21548000Y-2466250D01*
X21548000Y-2296250D02*
X21378000Y-2466250D01*
X21790750Y85000D02*
X21960750Y-85000D01*
X21960750Y85000D02*
X21790750Y-85000D01*
X21790750Y-6106250D02*
X21960750Y-6276250D01*
X21960750Y-6106250D02*
X21790750Y-6276250D01*
X21854250Y-8011250D02*
X22024250Y-8181250D01*
X22024250Y-8011250D02*
X21854250Y-8181250D01*
X21855000Y-9917000D02*
X22025000Y-10087000D01*
X22025000Y-9917000D02*
X21855000Y-10087000D01*
X22092350Y-9916250D02*
X22262350Y-10086250D01*
X22262350Y-9916250D02*
X22092350Y-10086250D01*
X22267000Y-2296250D02*
X22437000Y-2466250D01*
X22437000Y-2296250D02*
X22267000Y-2466250D01*
X22330500Y-4201250D02*
X22500500Y-4371250D01*
X22500500Y-4201250D02*
X22330500Y-4371250D01*
X22333000Y84000D02*
X22503000Y-86000D01*
X22503000Y84000D02*
X22333000Y-86000D01*
X22806750Y85000D02*
X22976750Y-85000D01*
X22976750Y85000D02*
X22806750Y-85000D01*
X22806750Y-6106250D02*
X22976750Y-6276250D01*
X22976750Y-6106250D02*
X22806750Y-6276250D01*
X23219500Y-4201250D02*
X23389500Y-4371250D01*
X23389500Y-4201250D02*
X23219500Y-4371250D01*
X23222000Y85000D02*
X23392000Y-85000D01*
X23392000Y85000D02*
X23222000Y-85000D01*
X23283000Y-2296250D02*
X23453000Y-2466250D01*
X23453000Y-2296250D02*
X23283000Y-2466250D01*
X23457650Y-8011250D02*
X23627650Y-8181250D01*
X23627650Y-8011250D02*
X23457650Y-8181250D01*
X23695750Y85000D02*
X23865750Y-85000D01*
X23865750Y85000D02*
X23695750Y-85000D01*
X24172000Y-2296250D02*
X24342000Y-2466250D01*
X24342000Y-2296250D02*
X24172000Y-2466250D01*
X24172000Y-9916250D02*
X24342000Y-10086250D01*
X24342000Y-9916250D02*
X24172000Y-10086250D01*
X24235500Y-4201250D02*
X24405500Y-4371250D01*
X24405500Y-4201250D02*
X24235500Y-4371250D01*
X24238000Y85000D02*
X24408000Y-85000D01*
X24408000Y85000D02*
X24238000Y-85000D01*
X24473650Y-8011250D02*
X24643650Y-8181250D01*
X24643650Y-8011250D02*
X24473650Y-8181250D01*
X24711750Y85000D02*
X24881750Y-85000D01*
X24881750Y85000D02*
X24711750Y-85000D01*
X24893810Y-6106250D02*
X25063810Y-6276250D01*
X25063810Y-6106250D02*
X24893810Y-6276250D01*
X25124500Y-2296250D02*
X25294500Y-2466250D01*
X25294500Y-2296250D02*
X25124500Y-2466250D01*
X25127000Y85000D02*
X25297000Y-85000D01*
X25297000Y85000D02*
X25127000Y-85000D01*
X25188000Y-2296250D02*
X25358000Y-2466250D01*
X25358000Y-2296250D02*
X25188000Y-2466250D01*
X25188000Y-9916250D02*
X25358000Y-10086250D01*
X25358000Y-9916250D02*
X25188000Y-10086250D01*
X25600800Y-4201250D02*
X25770800Y-4371250D01*
X25770800Y-4201250D02*
X25600800Y-4371250D01*
X25909810Y-6106250D02*
X26079810Y-6276250D01*
X26079810Y-6106250D02*
X25909810Y-6276250D01*
X26077000Y85000D02*
X26247000Y-85000D01*
X26247000Y85000D02*
X26077000Y-85000D01*
X26077000Y-2296250D02*
X26247000Y-2466250D01*
X26247000Y-2296250D02*
X26077000Y-2466250D01*
X26077000Y-8011250D02*
X26247000Y-8181250D01*
X26247000Y-8011250D02*
X26077000Y-8181250D01*
X26077000Y-9916250D02*
X26247000Y-10086250D01*
X26247000Y-9916250D02*
X26077000Y-10086250D01*
X26140500Y-2296250D02*
X26310500Y-2466250D01*
X26310500Y-2296250D02*
X26140500Y-2466250D01*
X26143000Y85000D02*
X26313000Y-85000D01*
X26313000Y85000D02*
X26143000Y-85000D01*
X26616800Y-4201250D02*
X26786800Y-4371250D01*
X26786800Y-4201250D02*
X26616800Y-4371250D01*
X27093000Y85000D02*
X27263000Y-85000D01*
X27263000Y85000D02*
X27093000Y-85000D01*
X27093000Y-2296250D02*
X27263000Y-2466250D01*
X27263000Y-2296250D02*
X27093000Y-2466250D01*
X27093000Y-8011250D02*
X27263000Y-8181250D01*
X27263000Y-8011250D02*
X27093000Y-8181250D01*
X27093000Y-9916250D02*
X27263000Y-10086250D01*
X27263000Y-9916250D02*
X27093000Y-10086250D01*
X27982000Y85000D02*
X28152000Y-85000D01*
X28152000Y85000D02*
X27982000Y-85000D01*
X27982000Y-2296250D02*
X28152000Y-2466250D01*
X28152000Y-2296250D02*
X27982000Y-2466250D01*
X27982000Y-4201250D02*
X28152000Y-4371250D01*
X28152000Y-4201250D02*
X27982000Y-4371250D01*
X27982000Y-6106250D02*
X28152000Y-6276250D01*
X28152000Y-6106250D02*
X27982000Y-6276250D01*
X27982000Y-8011250D02*
X28152000Y-8181250D01*
X28152000Y-8011250D02*
X27982000Y-8181250D01*
X27982000Y-9916250D02*
X28152000Y-10086250D01*
X28152000Y-9916250D02*
X27982000Y-10086250D01*
X28998000Y85000D02*
X29168000Y-85000D01*
X29168000Y85000D02*
X28998000Y-85000D01*
X28998000Y-2296250D02*
X29168000Y-2466250D01*
X29168000Y-2296250D02*
X28998000Y-2466250D01*
X28998000Y-4201250D02*
X29168000Y-4371250D01*
X29168000Y-4201250D02*
X28998000Y-4371250D01*
X28998000Y-6106250D02*
X29168000Y-6276250D01*
X29168000Y-6106250D02*
X28998000Y-6276250D01*
X28998000Y-8011250D02*
X29168000Y-8181250D01*
X29168000Y-8011250D02*
X28998000Y-8181250D01*
X28998000Y-9916250D02*
X29168000Y-10086250D01*
X29168000Y-9916250D02*
X28998000Y-10086250D01*
D13*
X156660Y-7397750D02*
G75*
G02*
X-148140Y-7397750I-152400J0D01*
G01*
X-148140Y-7397750D02*
G75*
G02*
X156660Y-7397750I152400J0D01*
G01*
X2544260Y-7397750D02*
G75*
G02*
X2239460Y-7397750I-152400J0D01*
G01*
X2239460Y-7397750D02*
G75*
G02*
X2544260Y-7397750I152400J0D01*
G01*
X7296760Y-10699750D02*
G75*
G02*
X6991960Y-10699750I-152400J0D01*
G01*
X6991960Y-10699750D02*
G75*
G02*
X7296760Y-10699750I152400J0D01*
G01*
X7773400Y-10700000D02*
G75*
G02*
X7468600Y-10700000I-152400J0D01*
G01*
X7468600Y-10700000D02*
G75*
G02*
X7773400Y-10700000I152400J0D01*
G01*
X17296740Y-10699750D02*
G75*
G02*
X16991940Y-10699750I-152400J0D01*
G01*
X16991940Y-10699750D02*
G75*
G02*
X17296740Y-10699750I152400J0D01*
G01*
X19203400Y-10700000D02*
G75*
G02*
X18898600Y-10700000I-152400J0D01*
G01*
X18898600Y-10700000D02*
G75*
G02*
X19203400Y-10700000I152400J0D01*
G01*
X24445410Y-5492750D02*
G75*
G02*
X24140610Y-5492750I-152400J0D01*
G01*
X24140610Y-5492750D02*
G75*
G02*
X24445410Y-5492750I152400J0D01*
G01*
X24676100Y-1682750D02*
G75*
G02*
X24371300Y-1682750I-152400J0D01*
G01*
X24371300Y-1682750D02*
G75*
G02*
X24676100Y-1682750I152400J0D01*
G01*
X26833010Y-5492750D02*
G75*
G02*
X26528210Y-5492750I-152400J0D01*
G01*
X26528210Y-5492750D02*
G75*
G02*
X26833010Y-5492750I152400J0D01*
G01*
X27063700Y-1682750D02*
G75*
G02*
X26758900Y-1682750I-152400J0D01*
G01*
X26758900Y-1682750D02*
G75*
G02*
X27063700Y-1682750I152400J0D01*
G01*
D14*
X4260Y-8722360D02*
X4260Y-9121140D01*
X-195130Y-8921750D02*
X203650Y-8921750D01*
X2391860Y-8722360D02*
X2391860Y-9121140D01*
X2192470Y-8921750D02*
X2591250Y-8921750D01*
X7144360Y-8976360D02*
X7144360Y-9375140D01*
X6944970Y-9175750D02*
X7343750Y-9175750D01*
X7621000Y-8976610D02*
X7621000Y-9375390D01*
X7421610Y-9176000D02*
X7820390Y-9176000D01*
X17144340Y-8976360D02*
X17144340Y-9375140D01*
X16944950Y-9175750D02*
X17343730Y-9175750D01*
X19051000Y-8976610D02*
X19051000Y-9375390D01*
X18851610Y-9176000D02*
X19250390Y-9176000D01*
X24293010Y-6817360D02*
X24293010Y-7216140D01*
X24093620Y-7016750D02*
X24492400Y-7016750D01*
X24523700Y-3007360D02*
X24523700Y-3406140D01*
X24324310Y-3206750D02*
X24723090Y-3206750D01*
X26680610Y-6817360D02*
X26680610Y-7216140D01*
X26481220Y-7016750D02*
X26880000Y-7016750D01*
X26911300Y-3007360D02*
X26911300Y-3406140D01*
X26711910Y-3206750D02*
X27110690Y-3206750D01*
D15*
X141423Y-141423D02*
X141423Y141423D01*
X-141423Y141423D01*
X-141423Y-141423D01*
X141423Y-141423D01*
X141423Y-2522673D02*
X141423Y-2239827D01*
X-141423Y-2239827D01*
X-141423Y-2522673D01*
X141423Y-2522673D01*
X379523Y-6332673D02*
X379523Y-6049827D01*
X96677Y-6049827D01*
X96677Y-6332673D01*
X379523Y-6332673D01*
X379523Y-10142673D02*
X379523Y-9859827D01*
X96677Y-9859827D01*
X96677Y-10142673D01*
X379523Y-10142673D01*
X617723Y-4427673D02*
X617723Y-4144827D01*
X334877Y-4144827D01*
X334877Y-4427673D01*
X617723Y-4427673D01*
X622423Y-10143423D02*
X622423Y-9860577D01*
X339577Y-9860577D01*
X339577Y-10143423D01*
X622423Y-10143423D01*
X855823Y-6332673D02*
X855823Y-6049827D01*
X572977Y-6049827D01*
X572977Y-6332673D01*
X855823Y-6332673D01*
X1339483Y-8237673D02*
X1339483Y-7954827D01*
X1056637Y-7954827D01*
X1056637Y-8237673D01*
X1339483Y-8237673D01*
X2046423Y-2522673D02*
X2046423Y-2239827D01*
X1763577Y-2239827D01*
X1763577Y-2522673D01*
X2046423Y-2522673D01*
X2522673Y-141423D02*
X2522673Y141423D01*
X2239827Y141423D01*
X2239827Y-141423D01*
X2522673Y-141423D01*
X2760773Y-10142673D02*
X2760773Y-9859827D01*
X2477927Y-9859827D01*
X2477927Y-10142673D01*
X2760773Y-10142673D01*
X2998923Y-4427673D02*
X2998923Y-4144827D01*
X2716077Y-4144827D01*
X2716077Y-4427673D01*
X2998923Y-4427673D01*
X3002423Y-10142923D02*
X3002423Y-9860077D01*
X2719577Y-9860077D01*
X2719577Y-10142923D01*
X3002423Y-10142923D01*
X3003423Y-139423D02*
X3003423Y143423D01*
X2720577Y143423D01*
X2720577Y-139423D01*
X3003423Y-139423D01*
X3475173Y-6332673D02*
X3475173Y-6049827D01*
X3192327Y-6049827D01*
X3192327Y-6332673D01*
X3475173Y-6332673D01*
X3951423Y-2522673D02*
X3951423Y-2239827D01*
X3668577Y-2239827D01*
X3668577Y-2522673D01*
X3951423Y-2522673D01*
X4427673Y-141423D02*
X4427673Y141423D01*
X4144827Y141423D01*
X4144827Y-141423D01*
X4427673Y-141423D01*
X4427673Y-8237673D02*
X4427673Y-7954827D01*
X4144827Y-7954827D01*
X4144827Y-8237673D01*
X4427673Y-8237673D01*
X4903923Y-4427673D02*
X4903923Y-4144827D01*
X4621077Y-4144827D01*
X4621077Y-4427673D01*
X4903923Y-4427673D01*
X4906423Y-140423D02*
X4906423Y142423D01*
X4623577Y142423D01*
X4623577Y-140423D01*
X4906423Y-140423D01*
X5142023Y-10142673D02*
X5142023Y-9859827D01*
X4859177Y-9859827D01*
X4859177Y-10142673D01*
X5142023Y-10142673D01*
X5380173Y-6332673D02*
X5380173Y-6049827D01*
X5097327Y-6049827D01*
X5097327Y-6332673D01*
X5380173Y-6332673D01*
X5381423Y-10144423D02*
X5381423Y-9861577D01*
X5098577Y-9861577D01*
X5098577Y-10144423D01*
X5381423Y-10144423D01*
X5856423Y-2522673D02*
X5856423Y-2239827D01*
X5573577Y-2239827D01*
X5573577Y-2522673D01*
X5856423Y-2522673D01*
X6332673Y-141423D02*
X6332673Y141423D01*
X6049827Y141423D01*
X6049827Y-141423D01*
X6332673Y-141423D01*
X6332673Y-8237673D02*
X6332673Y-7954827D01*
X6049827Y-7954827D01*
X6049827Y-8237673D01*
X6332673Y-8237673D01*
X6808923Y-4427673D02*
X6808923Y-4144827D01*
X6526077Y-4144827D01*
X6526077Y-4427673D01*
X6808923Y-4427673D01*
X6810423Y-141423D02*
X6810423Y141423D01*
X6527577Y141423D01*
X6527577Y-141423D01*
X6810423Y-141423D01*
X7285173Y-6332673D02*
X7285173Y-6049827D01*
X7002327Y-6049827D01*
X7002327Y-6332673D01*
X7285173Y-6332673D01*
X7761423Y-2522673D02*
X7761423Y-2239827D01*
X7478577Y-2239827D01*
X7478577Y-2522673D01*
X7761423Y-2522673D01*
X8237673Y-141423D02*
X8237673Y141423D01*
X7954827Y141423D01*
X7954827Y-141423D01*
X8237673Y-141423D01*
X8237673Y-8237673D02*
X8237673Y-7954827D01*
X7954827Y-7954827D01*
X7954827Y-8237673D01*
X8237673Y-8237673D01*
X8713923Y-4427673D02*
X8713923Y-4144827D01*
X8431077Y-4144827D01*
X8431077Y-4427673D01*
X8713923Y-4427673D01*
X8715423Y-141423D02*
X8715423Y141423D01*
X8432577Y141423D01*
X8432577Y-141423D01*
X8715423Y-141423D01*
X9190173Y-6332673D02*
X9190173Y-6049827D01*
X8907327Y-6049827D01*
X8907327Y-6332673D01*
X9190173Y-6332673D01*
X9666423Y-2522673D02*
X9666423Y-2239827D01*
X9383577Y-2239827D01*
X9383577Y-2522673D01*
X9666423Y-2522673D01*
X10142673Y-8237673D02*
X10142673Y-7954827D01*
X9859827Y-7954827D01*
X9859827Y-8237673D01*
X10142673Y-8237673D01*
X10618923Y-141423D02*
X10618923Y141423D01*
X10336077Y141423D01*
X10336077Y-141423D01*
X10618923Y-141423D01*
X10618923Y-4427673D02*
X10618923Y-4144827D01*
X10336077Y-4144827D01*
X10336077Y-4427673D01*
X10618923Y-4427673D01*
X11095173Y-6332673D02*
X11095173Y-6049827D01*
X10812327Y-6049827D01*
X10812327Y-6332673D01*
X11095173Y-6332673D01*
X11571423Y-2522673D02*
X11571423Y-2239827D01*
X11288577Y-2239827D01*
X11288577Y-2522673D01*
X11571423Y-2522673D01*
X11575423Y-142423D02*
X11575423Y140423D01*
X11292577Y140423D01*
X11292577Y-142423D01*
X11575423Y-142423D01*
X12047673Y-8237673D02*
X12047673Y-7954827D01*
X11764827Y-7954827D01*
X11764827Y-8237673D01*
X12047673Y-8237673D01*
X12285773Y-10142673D02*
X12285773Y-9859827D01*
X12002927Y-9859827D01*
X12002927Y-10142673D01*
X12285773Y-10142673D01*
X12523923Y-141423D02*
X12523923Y141423D01*
X12241077Y141423D01*
X12241077Y-141423D01*
X12523923Y-141423D01*
X12523923Y-4427673D02*
X12523923Y-4144827D01*
X12241077Y-4144827D01*
X12241077Y-4427673D01*
X12523923Y-4427673D01*
X13000173Y-6332673D02*
X13000173Y-6049827D01*
X12717327Y-6049827D01*
X12717327Y-6332673D01*
X13000173Y-6332673D01*
X13476423Y-2522673D02*
X13476423Y-2239827D01*
X13193577Y-2239827D01*
X13193577Y-2522673D01*
X13476423Y-2522673D01*
X13477423Y-10142923D02*
X13477423Y-9860077D01*
X13194577Y-9860077D01*
X13194577Y-10142923D01*
X13477423Y-10142923D01*
X13481423Y-141423D02*
X13481423Y141423D01*
X13198577Y141423D01*
X13198577Y-141423D01*
X13481423Y-141423D01*
X13952673Y-8237673D02*
X13952673Y-7954827D01*
X13669827Y-7954827D01*
X13669827Y-8237673D01*
X13952673Y-8237673D01*
X14428923Y-141423D02*
X14428923Y141423D01*
X14146077Y141423D01*
X14146077Y-141423D01*
X14428923Y-141423D01*
X14428923Y-4427673D02*
X14428923Y-4144827D01*
X14146077Y-4144827D01*
X14146077Y-4427673D01*
X14428923Y-4427673D01*
X14905173Y-6332673D02*
X14905173Y-6049827D01*
X14622327Y-6049827D01*
X14622327Y-6332673D01*
X14905173Y-6332673D01*
X15381423Y-2522673D02*
X15381423Y-2239827D01*
X15098577Y-2239827D01*
X15098577Y-2522673D01*
X15381423Y-2522673D01*
X15385423Y-140423D02*
X15385423Y142423D01*
X15102577Y142423D01*
X15102577Y-140423D01*
X15385423Y-140423D01*
X15857673Y-8237673D02*
X15857673Y-7954827D01*
X15574827Y-7954827D01*
X15574827Y-8237673D01*
X15857673Y-8237673D01*
X16333923Y-141423D02*
X16333923Y141423D01*
X16051077Y141423D01*
X16051077Y-141423D01*
X16333923Y-141423D01*
X16333923Y-4427673D02*
X16333923Y-4144827D01*
X16051077Y-4144827D01*
X16051077Y-4427673D01*
X16333923Y-4427673D01*
X16810173Y-6332673D02*
X16810173Y-6049827D01*
X16527327Y-6049827D01*
X16527327Y-6332673D01*
X16810173Y-6332673D01*
X17286423Y-2522673D02*
X17286423Y-2239827D01*
X17003577Y-2239827D01*
X17003577Y-2522673D01*
X17286423Y-2522673D01*
X17291423Y-140423D02*
X17291423Y142423D01*
X17008577Y142423D01*
X17008577Y-140423D01*
X17291423Y-140423D01*
X17762673Y-8237673D02*
X17762673Y-7954827D01*
X17479827Y-7954827D01*
X17479827Y-8237673D01*
X17762673Y-8237673D01*
X18238923Y-4427673D02*
X18238923Y-4144827D01*
X17956077Y-4144827D01*
X17956077Y-4427673D01*
X18238923Y-4427673D01*
X18715173Y-141423D02*
X18715173Y141423D01*
X18432327Y141423D01*
X18432327Y-141423D01*
X18715173Y-141423D01*
X18715173Y-6332673D02*
X18715173Y-6049827D01*
X18432327Y-6049827D01*
X18432327Y-6332673D01*
X18715173Y-6332673D01*
X19191423Y-2522673D02*
X19191423Y-2239827D01*
X18908577Y-2239827D01*
X18908577Y-2522673D01*
X19191423Y-2522673D01*
X19429523Y-10142673D02*
X19429523Y-9859827D01*
X19146677Y-9859827D01*
X19146677Y-10142673D01*
X19429523Y-10142673D01*
X19667673Y-8237673D02*
X19667673Y-7954827D01*
X19384827Y-7954827D01*
X19384827Y-8237673D01*
X19667673Y-8237673D01*
X20143923Y-4427673D02*
X20143923Y-4144827D01*
X19861077Y-4144827D01*
X19861077Y-4427673D01*
X20143923Y-4427673D01*
X20147423Y-141423D02*
X20147423Y141423D01*
X19864577Y141423D01*
X19864577Y-141423D01*
X20147423Y-141423D01*
X20620173Y-141423D02*
X20620173Y141423D01*
X20337327Y141423D01*
X20337327Y-141423D01*
X20620173Y-141423D01*
X20620173Y-6332673D02*
X20620173Y-6049827D01*
X20337327Y-6049827D01*
X20337327Y-6332673D01*
X20620173Y-6332673D01*
X21096423Y-2522673D02*
X21096423Y-2239827D01*
X20813577Y-2239827D01*
X20813577Y-2522673D01*
X21096423Y-2522673D01*
X21572673Y-8237673D02*
X21572673Y-7954827D01*
X21289827Y-7954827D01*
X21289827Y-8237673D01*
X21572673Y-8237673D01*
X21573423Y-10143423D02*
X21573423Y-9860577D01*
X21290577Y-9860577D01*
X21290577Y-10143423D01*
X21573423Y-10143423D01*
X21810773Y-10142673D02*
X21810773Y-9859827D01*
X21527927Y-9859827D01*
X21527927Y-10142673D01*
X21810773Y-10142673D01*
X22048923Y-4427673D02*
X22048923Y-4144827D01*
X21766077Y-4144827D01*
X21766077Y-4427673D01*
X22048923Y-4427673D01*
X22051423Y-142423D02*
X22051423Y140423D01*
X21768577Y140423D01*
X21768577Y-142423D01*
X22051423Y-142423D01*
X22525173Y-141423D02*
X22525173Y141423D01*
X22242327Y141423D01*
X22242327Y-141423D01*
X22525173Y-141423D01*
X22525173Y-6332673D02*
X22525173Y-6049827D01*
X22242327Y-6049827D01*
X22242327Y-6332673D01*
X22525173Y-6332673D01*
X23001423Y-2522673D02*
X23001423Y-2239827D01*
X22718577Y-2239827D01*
X22718577Y-2522673D01*
X23001423Y-2522673D01*
X23953923Y-4427673D02*
X23953923Y-4144827D01*
X23671077Y-4144827D01*
X23671077Y-4427673D01*
X23953923Y-4427673D01*
X23956423Y-141423D02*
X23956423Y141423D01*
X23673577Y141423D01*
X23673577Y-141423D01*
X23956423Y-141423D01*
X24192073Y-8237673D02*
X24192073Y-7954827D01*
X23909227Y-7954827D01*
X23909227Y-8237673D01*
X24192073Y-8237673D01*
X24430173Y-141423D02*
X24430173Y141423D01*
X24147327Y141423D01*
X24147327Y-141423D01*
X24430173Y-141423D01*
X24906423Y-2522673D02*
X24906423Y-2239827D01*
X24623577Y-2239827D01*
X24623577Y-2522673D01*
X24906423Y-2522673D01*
X24906423Y-10142673D02*
X24906423Y-9859827D01*
X24623577Y-9859827D01*
X24623577Y-10142673D01*
X24906423Y-10142673D01*
X25628233Y-6332673D02*
X25628233Y-6049827D01*
X25345387Y-6049827D01*
X25345387Y-6332673D01*
X25628233Y-6332673D01*
X25858923Y-2522673D02*
X25858923Y-2239827D01*
X25576077Y-2239827D01*
X25576077Y-2522673D01*
X25858923Y-2522673D01*
X25861423Y-141423D02*
X25861423Y141423D01*
X25578577Y141423D01*
X25578577Y-141423D01*
X25861423Y-141423D01*
X26335223Y-4427673D02*
X26335223Y-4144827D01*
X26052377Y-4144827D01*
X26052377Y-4427673D01*
X26335223Y-4427673D01*
X26811423Y-141423D02*
X26811423Y141423D01*
X26528577Y141423D01*
X26528577Y-141423D01*
X26811423Y-141423D01*
X26811423Y-2522673D02*
X26811423Y-2239827D01*
X26528577Y-2239827D01*
X26528577Y-2522673D01*
X26811423Y-2522673D01*
X26811423Y-8237673D02*
X26811423Y-7954827D01*
X26528577Y-7954827D01*
X26528577Y-8237673D01*
X26811423Y-8237673D01*
X26811423Y-10142673D02*
X26811423Y-9859827D01*
X26528577Y-9859827D01*
X26528577Y-10142673D01*
X26811423Y-10142673D01*
X28716423Y-141423D02*
X28716423Y141423D01*
X28433577Y141423D01*
X28433577Y-141423D01*
X28716423Y-141423D01*
X28716423Y-2522673D02*
X28716423Y-2239827D01*
X28433577Y-2239827D01*
X28433577Y-2522673D01*
X28716423Y-2522673D01*
X28716423Y-4427673D02*
X28716423Y-4144827D01*
X28433577Y-4144827D01*
X28433577Y-4427673D01*
X28716423Y-4427673D01*
X28716423Y-6332673D02*
X28716423Y-6049827D01*
X28433577Y-6049827D01*
X28433577Y-6332673D01*
X28716423Y-6332673D01*
X28716423Y-8237673D02*
X28716423Y-7954827D01*
X28433577Y-7954827D01*
X28433577Y-8237673D01*
X28716423Y-8237673D01*
X28716423Y-10142673D02*
X28716423Y-9859827D01*
X28433577Y-9859827D01*
X28433577Y-10142673D01*
X28716423Y-10142673D01*
D11*
X-461723Y-11193984D02*
X-461723Y-10993984D01*
X-461723Y-10993984D02*
X-414104Y-10993984D01*
X-414104Y-10993984D02*
X-385533Y-11003508D01*
X-385533Y-11003508D02*
X-366485Y-11022555D01*
X-366485Y-11022555D02*
X-356961Y-11041603D01*
X-356961Y-11041603D02*
X-347437Y-11079698D01*
X-347437Y-11079698D02*
X-347437Y-11108270D01*
X-347437Y-11108270D02*
X-356961Y-11146365D01*
X-356961Y-11146365D02*
X-366485Y-11165412D01*
X-366485Y-11165412D02*
X-385533Y-11184460D01*
X-385533Y-11184460D02*
X-414104Y-11193984D01*
X-414104Y-11193984D02*
X-461723Y-11193984D01*
X-261723Y-11193984D02*
X-261723Y-11060650D01*
X-261723Y-11098746D02*
X-252199Y-11079698D01*
X-252199Y-11079698D02*
X-242675Y-11070174D01*
X-242675Y-11070174D02*
X-223628Y-11060650D01*
X-223628Y-11060650D02*
X-204580Y-11060650D01*
X-137914Y-11193984D02*
X-137914Y-11060650D01*
X-137914Y-10993984D02*
X-147437Y-11003508D01*
X-147437Y-11003508D02*
X-137914Y-11013031D01*
X-137914Y-11013031D02*
X-128390Y-11003508D01*
X-128390Y-11003508D02*
X-137914Y-10993984D01*
X-137914Y-10993984D02*
X-137914Y-11013031D01*
X-14104Y-11193984D02*
X-33152Y-11184460D01*
X-33152Y-11184460D02*
X-42676Y-11165412D01*
X-42676Y-11165412D02*
X-42676Y-10993984D01*
X90658Y-11193984D02*
X71610Y-11184460D01*
X71610Y-11184460D02*
X62086Y-11165412D01*
X62086Y-11165412D02*
X62086Y-10993984D01*
X319229Y-11193984D02*
X319229Y-10993984D01*
X319229Y-10993984D02*
X385896Y-11136841D01*
X385896Y-11136841D02*
X452562Y-10993984D01*
X452562Y-10993984D02*
X452562Y-11193984D01*
X633515Y-11193984D02*
X633515Y-11089222D01*
X633515Y-11089222D02*
X623991Y-11070174D01*
X623991Y-11070174D02*
X604944Y-11060650D01*
X604944Y-11060650D02*
X566848Y-11060650D01*
X566848Y-11060650D02*
X547801Y-11070174D01*
X633515Y-11184460D02*
X614467Y-11193984D01*
X614467Y-11193984D02*
X566848Y-11193984D01*
X566848Y-11193984D02*
X547801Y-11184460D01*
X547801Y-11184460D02*
X538277Y-11165412D01*
X538277Y-11165412D02*
X538277Y-11146365D01*
X538277Y-11146365D02*
X547801Y-11127317D01*
X547801Y-11127317D02*
X566848Y-11117793D01*
X566848Y-11117793D02*
X614467Y-11117793D01*
X614467Y-11117793D02*
X633515Y-11108270D01*
X728753Y-11060650D02*
X728753Y-11260650D01*
X728753Y-11070174D02*
X747801Y-11060650D01*
X747801Y-11060650D02*
X785896Y-11060650D01*
X785896Y-11060650D02*
X804943Y-11070174D01*
X804943Y-11070174D02*
X814467Y-11079698D01*
X814467Y-11079698D02*
X823991Y-11098746D01*
X823991Y-11098746D02*
X823991Y-11155889D01*
X823991Y-11155889D02*
X814467Y-11174936D01*
X814467Y-11174936D02*
X804943Y-11184460D01*
X804943Y-11184460D02*
X785896Y-11193984D01*
X785896Y-11193984D02*
X747801Y-11193984D01*
X747801Y-11193984D02*
X728753Y-11184460D01*
X909705Y-11174936D02*
X919229Y-11184460D01*
X919229Y-11184460D02*
X909705Y-11193984D01*
X909705Y-11193984D02*
X900182Y-11184460D01*
X900182Y-11184460D02*
X909705Y-11174936D01*
X909705Y-11174936D02*
X909705Y-11193984D01*
X909705Y-11070174D02*
X919229Y-11079698D01*
X919229Y-11079698D02*
X909705Y-11089222D01*
X909705Y-11089222D02*
X900182Y-11079698D01*
X900182Y-11079698D02*
X909705Y-11070174D01*
X909705Y-11070174D02*
X909705Y-11089222D01*
D12*
X-892500Y-11437500D02*
X-722500Y-11607500D01*
X-722500Y-11437500D02*
X-892500Y-11607500D01*
D11*
X-356961Y-11613984D02*
X-471247Y-11613984D01*
X-414104Y-11613984D02*
X-414104Y-11413984D01*
X-414104Y-11413984D02*
X-433152Y-11442555D01*
X-433152Y-11442555D02*
X-452199Y-11461603D01*
X-452199Y-11461603D02*
X-471247Y-11471127D01*
X-271247Y-11594936D02*
X-261723Y-11604460D01*
X-261723Y-11604460D02*
X-271247Y-11613984D01*
X-271247Y-11613984D02*
X-280771Y-11604460D01*
X-280771Y-11604460D02*
X-271247Y-11594936D01*
X-271247Y-11594936D02*
X-271247Y-11613984D01*
X-195056Y-11413984D02*
X-61723Y-11413984D01*
X-61723Y-11413984D02*
X-147437Y-11613984D01*
X52562Y-11413984D02*
X71610Y-11413984D01*
X71610Y-11413984D02*
X90658Y-11423508D01*
X90658Y-11423508D02*
X100182Y-11433031D01*
X100182Y-11433031D02*
X109705Y-11452079D01*
X109705Y-11452079D02*
X119229Y-11490174D01*
X119229Y-11490174D02*
X119229Y-11537793D01*
X119229Y-11537793D02*
X109705Y-11575888D01*
X109705Y-11575888D02*
X100182Y-11594936D01*
X100182Y-11594936D02*
X90658Y-11604460D01*
X90658Y-11604460D02*
X71610Y-11613984D01*
X71610Y-11613984D02*
X52562Y-11613984D01*
X52562Y-11613984D02*
X33515Y-11604460D01*
X33515Y-11604460D02*
X23991Y-11594936D01*
X23991Y-11594936D02*
X14467Y-11575888D01*
X14467Y-11575888D02*
X4944Y-11537793D01*
X4944Y-11537793D02*
X4944Y-11490174D01*
X4944Y-11490174D02*
X14467Y-11452079D01*
X14467Y-11452079D02*
X23991Y-11433031D01*
X23991Y-11433031D02*
X33515Y-11423508D01*
X33515Y-11423508D02*
X52562Y-11413984D01*
X243039Y-11413984D02*
X262086Y-11413984D01*
X262086Y-11413984D02*
X281134Y-11423508D01*
X281134Y-11423508D02*
X290658Y-11433031D01*
X290658Y-11433031D02*
X300182Y-11452079D01*
X300182Y-11452079D02*
X309705Y-11490174D01*
X309705Y-11490174D02*
X309705Y-11537793D01*
X309705Y-11537793D02*
X300182Y-11575888D01*
X300182Y-11575888D02*
X290658Y-11594936D01*
X290658Y-11594936D02*
X281134Y-11604460D01*
X281134Y-11604460D02*
X262086Y-11613984D01*
X262086Y-11613984D02*
X243039Y-11613984D01*
X243039Y-11613984D02*
X223991Y-11604460D01*
X223991Y-11604460D02*
X214467Y-11594936D01*
X214467Y-11594936D02*
X204943Y-11575888D01*
X204943Y-11575888D02*
X195420Y-11537793D01*
X195420Y-11537793D02*
X195420Y-11490174D01*
X195420Y-11490174D02*
X204943Y-11452079D01*
X204943Y-11452079D02*
X214467Y-11433031D01*
X214467Y-11433031D02*
X223991Y-11423508D01*
X223991Y-11423508D02*
X243039Y-11413984D01*
X395420Y-11613984D02*
X395420Y-11480650D01*
X395420Y-11499698D02*
X404943Y-11490174D01*
X404943Y-11490174D02*
X423991Y-11480650D01*
X423991Y-11480650D02*
X452563Y-11480650D01*
X452563Y-11480650D02*
X471610Y-11490174D01*
X471610Y-11490174D02*
X481134Y-11509222D01*
X481134Y-11509222D02*
X481134Y-11613984D01*
X481134Y-11509222D02*
X490658Y-11490174D01*
X490658Y-11490174D02*
X509705Y-11480650D01*
X509705Y-11480650D02*
X538277Y-11480650D01*
X538277Y-11480650D02*
X557325Y-11490174D01*
X557325Y-11490174D02*
X566848Y-11509222D01*
X566848Y-11509222D02*
X566848Y-11613984D01*
X662086Y-11613984D02*
X662086Y-11480650D01*
X662086Y-11499698D02*
X671610Y-11490174D01*
X671610Y-11490174D02*
X690658Y-11480650D01*
X690658Y-11480650D02*
X719229Y-11480650D01*
X719229Y-11480650D02*
X738277Y-11490174D01*
X738277Y-11490174D02*
X747801Y-11509222D01*
X747801Y-11509222D02*
X747801Y-11613984D01*
X747801Y-11509222D02*
X757324Y-11490174D01*
X757324Y-11490174D02*
X776372Y-11480650D01*
X776372Y-11480650D02*
X804943Y-11480650D01*
X804943Y-11480650D02*
X823991Y-11490174D01*
X823991Y-11490174D02*
X833515Y-11509222D01*
X833515Y-11509222D02*
X833515Y-11613984D01*
X1223991Y-11404460D02*
X1052563Y-11661603D01*
X1481134Y-11413984D02*
X1500182Y-11413984D01*
X1500182Y-11413984D02*
X1519229Y-11423508D01*
X1519229Y-11423508D02*
X1528753Y-11433031D01*
X1528753Y-11433031D02*
X1538277Y-11452079D01*
X1538277Y-11452079D02*
X1547801Y-11490174D01*
X1547801Y-11490174D02*
X1547801Y-11537793D01*
X1547801Y-11537793D02*
X1538277Y-11575888D01*
X1538277Y-11575888D02*
X1528753Y-11594936D01*
X1528753Y-11594936D02*
X1519229Y-11604460D01*
X1519229Y-11604460D02*
X1500182Y-11613984D01*
X1500182Y-11613984D02*
X1481134Y-11613984D01*
X1481134Y-11613984D02*
X1462086Y-11604460D01*
X1462086Y-11604460D02*
X1452563Y-11594936D01*
X1452563Y-11594936D02*
X1443039Y-11575888D01*
X1443039Y-11575888D02*
X1433515Y-11537793D01*
X1433515Y-11537793D02*
X1433515Y-11490174D01*
X1433515Y-11490174D02*
X1443039Y-11452079D01*
X1443039Y-11452079D02*
X1452563Y-11433031D01*
X1452563Y-11433031D02*
X1462086Y-11423508D01*
X1462086Y-11423508D02*
X1481134Y-11413984D01*
X1633515Y-11594936D02*
X1643039Y-11604460D01*
X1643039Y-11604460D02*
X1633515Y-11613984D01*
X1633515Y-11613984D02*
X1623991Y-11604460D01*
X1623991Y-11604460D02*
X1633515Y-11594936D01*
X1633515Y-11594936D02*
X1633515Y-11613984D01*
X1766848Y-11413984D02*
X1785896Y-11413984D01*
X1785896Y-11413984D02*
X1804944Y-11423508D01*
X1804944Y-11423508D02*
X1814467Y-11433031D01*
X1814467Y-11433031D02*
X1823991Y-11452079D01*
X1823991Y-11452079D02*
X1833515Y-11490174D01*
X1833515Y-11490174D02*
X1833515Y-11537793D01*
X1833515Y-11537793D02*
X1823991Y-11575888D01*
X1823991Y-11575888D02*
X1814467Y-11594936D01*
X1814467Y-11594936D02*
X1804944Y-11604460D01*
X1804944Y-11604460D02*
X1785896Y-11613984D01*
X1785896Y-11613984D02*
X1766848Y-11613984D01*
X1766848Y-11613984D02*
X1747801Y-11604460D01*
X1747801Y-11604460D02*
X1738277Y-11594936D01*
X1738277Y-11594936D02*
X1728753Y-11575888D01*
X1728753Y-11575888D02*
X1719229Y-11537793D01*
X1719229Y-11537793D02*
X1719229Y-11490174D01*
X1719229Y-11490174D02*
X1728753Y-11452079D01*
X1728753Y-11452079D02*
X1738277Y-11433031D01*
X1738277Y-11433031D02*
X1747801Y-11423508D01*
X1747801Y-11423508D02*
X1766848Y-11413984D01*
X2004944Y-11413984D02*
X1966848Y-11413984D01*
X1966848Y-11413984D02*
X1947801Y-11423508D01*
X1947801Y-11423508D02*
X1938277Y-11433031D01*
X1938277Y-11433031D02*
X1919229Y-11461603D01*
X1919229Y-11461603D02*
X1909706Y-11499698D01*
X1909706Y-11499698D02*
X1909706Y-11575888D01*
X1909706Y-11575888D02*
X1919229Y-11594936D01*
X1919229Y-11594936D02*
X1928753Y-11604460D01*
X1928753Y-11604460D02*
X1947801Y-11613984D01*
X1947801Y-11613984D02*
X1985896Y-11613984D01*
X1985896Y-11613984D02*
X2004944Y-11604460D01*
X2004944Y-11604460D02*
X2014467Y-11594936D01*
X2014467Y-11594936D02*
X2023991Y-11575888D01*
X2023991Y-11575888D02*
X2023991Y-11528269D01*
X2023991Y-11528269D02*
X2014467Y-11509222D01*
X2014467Y-11509222D02*
X2004944Y-11499698D01*
X2004944Y-11499698D02*
X1985896Y-11490174D01*
X1985896Y-11490174D02*
X1947801Y-11490174D01*
X1947801Y-11490174D02*
X1928753Y-11499698D01*
X1928753Y-11499698D02*
X1919229Y-11509222D01*
X1919229Y-11509222D02*
X1909706Y-11528269D01*
X2195420Y-11413984D02*
X2157325Y-11413984D01*
X2157325Y-11413984D02*
X2138277Y-11423508D01*
X2138277Y-11423508D02*
X2128753Y-11433031D01*
X2128753Y-11433031D02*
X2109706Y-11461603D01*
X2109706Y-11461603D02*
X2100182Y-11499698D01*
X2100182Y-11499698D02*
X2100182Y-11575888D01*
X2100182Y-11575888D02*
X2109706Y-11594936D01*
X2109706Y-11594936D02*
X2119229Y-11604460D01*
X2119229Y-11604460D02*
X2138277Y-11613984D01*
X2138277Y-11613984D02*
X2176372Y-11613984D01*
X2176372Y-11613984D02*
X2195420Y-11604460D01*
X2195420Y-11604460D02*
X2204944Y-11594936D01*
X2204944Y-11594936D02*
X2214468Y-11575888D01*
X2214468Y-11575888D02*
X2214468Y-11528269D01*
X2214468Y-11528269D02*
X2204944Y-11509222D01*
X2204944Y-11509222D02*
X2195420Y-11499698D01*
X2195420Y-11499698D02*
X2176372Y-11490174D01*
X2176372Y-11490174D02*
X2138277Y-11490174D01*
X2138277Y-11490174D02*
X2119229Y-11499698D01*
X2119229Y-11499698D02*
X2109706Y-11509222D01*
X2109706Y-11509222D02*
X2100182Y-11528269D01*
X2309706Y-11613984D02*
X2347801Y-11613984D01*
X2347801Y-11613984D02*
X2366849Y-11604460D01*
X2366849Y-11604460D02*
X2376372Y-11594936D01*
X2376372Y-11594936D02*
X2395420Y-11566365D01*
X2395420Y-11566365D02*
X2404944Y-11528269D01*
X2404944Y-11528269D02*
X2404944Y-11452079D01*
X2404944Y-11452079D02*
X2395420Y-11433031D01*
X2395420Y-11433031D02*
X2385896Y-11423508D01*
X2385896Y-11423508D02*
X2366849Y-11413984D01*
X2366849Y-11413984D02*
X2328753Y-11413984D01*
X2328753Y-11413984D02*
X2309706Y-11423508D01*
X2309706Y-11423508D02*
X2300182Y-11433031D01*
X2300182Y-11433031D02*
X2290658Y-11452079D01*
X2290658Y-11452079D02*
X2290658Y-11499698D01*
X2290658Y-11499698D02*
X2300182Y-11518746D01*
X2300182Y-11518746D02*
X2309706Y-11528269D01*
X2309706Y-11528269D02*
X2328753Y-11537793D01*
X2328753Y-11537793D02*
X2366849Y-11537793D01*
X2366849Y-11537793D02*
X2385896Y-11528269D01*
X2385896Y-11528269D02*
X2395420Y-11518746D01*
X2395420Y-11518746D02*
X2404944Y-11499698D01*
X2481134Y-11413984D02*
X2481134Y-11452079D01*
X2557325Y-11413984D02*
X2557325Y-11452079D01*
X2852563Y-11690174D02*
X2843039Y-11680650D01*
X2843039Y-11680650D02*
X2823991Y-11652079D01*
X2823991Y-11652079D02*
X2814468Y-11633031D01*
X2814468Y-11633031D02*
X2804944Y-11604460D01*
X2804944Y-11604460D02*
X2795420Y-11556841D01*
X2795420Y-11556841D02*
X2795420Y-11518746D01*
X2795420Y-11518746D02*
X2804944Y-11471127D01*
X2804944Y-11471127D02*
X2814468Y-11442555D01*
X2814468Y-11442555D02*
X2823991Y-11423508D01*
X2823991Y-11423508D02*
X2843039Y-11394936D01*
X2843039Y-11394936D02*
X2852563Y-11385412D01*
X2919229Y-11433031D02*
X2928753Y-11423508D01*
X2928753Y-11423508D02*
X2947801Y-11413984D01*
X2947801Y-11413984D02*
X2995420Y-11413984D01*
X2995420Y-11413984D02*
X3014468Y-11423508D01*
X3014468Y-11423508D02*
X3023991Y-11433031D01*
X3023991Y-11433031D02*
X3033515Y-11452079D01*
X3033515Y-11452079D02*
X3033515Y-11471127D01*
X3033515Y-11471127D02*
X3023991Y-11499698D01*
X3023991Y-11499698D02*
X2909706Y-11613984D01*
X2909706Y-11613984D02*
X3033515Y-11613984D01*
X3157325Y-11413984D02*
X3176372Y-11413984D01*
X3176372Y-11413984D02*
X3195420Y-11423508D01*
X3195420Y-11423508D02*
X3204944Y-11433031D01*
X3204944Y-11433031D02*
X3214468Y-11452079D01*
X3214468Y-11452079D02*
X3223991Y-11490174D01*
X3223991Y-11490174D02*
X3223991Y-11537793D01*
X3223991Y-11537793D02*
X3214468Y-11575888D01*
X3214468Y-11575888D02*
X3204944Y-11594936D01*
X3204944Y-11594936D02*
X3195420Y-11604460D01*
X3195420Y-11604460D02*
X3176372Y-11613984D01*
X3176372Y-11613984D02*
X3157325Y-11613984D01*
X3157325Y-11613984D02*
X3138277Y-11604460D01*
X3138277Y-11604460D02*
X3128753Y-11594936D01*
X3128753Y-11594936D02*
X3119229Y-11575888D01*
X3119229Y-11575888D02*
X3109706Y-11537793D01*
X3109706Y-11537793D02*
X3109706Y-11490174D01*
X3109706Y-11490174D02*
X3119229Y-11452079D01*
X3119229Y-11452079D02*
X3128753Y-11433031D01*
X3128753Y-11433031D02*
X3138277Y-11423508D01*
X3138277Y-11423508D02*
X3157325Y-11413984D01*
X3395420Y-11480650D02*
X3395420Y-11613984D01*
X3347801Y-11404460D02*
X3300182Y-11547317D01*
X3300182Y-11547317D02*
X3423991Y-11547317D01*
X3652563Y-11613984D02*
X3652563Y-11413984D01*
X3738277Y-11613984D02*
X3738277Y-11509222D01*
X3738277Y-11509222D02*
X3728753Y-11490174D01*
X3728753Y-11490174D02*
X3709706Y-11480650D01*
X3709706Y-11480650D02*
X3681134Y-11480650D01*
X3681134Y-11480650D02*
X3662087Y-11490174D01*
X3662087Y-11490174D02*
X3652563Y-11499698D01*
X3862087Y-11613984D02*
X3843039Y-11604460D01*
X3843039Y-11604460D02*
X3833515Y-11594936D01*
X3833515Y-11594936D02*
X3823991Y-11575888D01*
X3823991Y-11575888D02*
X3823991Y-11518746D01*
X3823991Y-11518746D02*
X3833515Y-11499698D01*
X3833515Y-11499698D02*
X3843039Y-11490174D01*
X3843039Y-11490174D02*
X3862087Y-11480650D01*
X3862087Y-11480650D02*
X3890658Y-11480650D01*
X3890658Y-11480650D02*
X3909706Y-11490174D01*
X3909706Y-11490174D02*
X3919230Y-11499698D01*
X3919230Y-11499698D02*
X3928753Y-11518746D01*
X3928753Y-11518746D02*
X3928753Y-11575888D01*
X3928753Y-11575888D02*
X3919230Y-11594936D01*
X3919230Y-11594936D02*
X3909706Y-11604460D01*
X3909706Y-11604460D02*
X3890658Y-11613984D01*
X3890658Y-11613984D02*
X3862087Y-11613984D01*
X4043039Y-11613984D02*
X4023991Y-11604460D01*
X4023991Y-11604460D02*
X4014468Y-11585412D01*
X4014468Y-11585412D02*
X4014468Y-11413984D01*
X4195420Y-11604460D02*
X4176372Y-11613984D01*
X4176372Y-11613984D02*
X4138277Y-11613984D01*
X4138277Y-11613984D02*
X4119230Y-11604460D01*
X4119230Y-11604460D02*
X4109706Y-11585412D01*
X4109706Y-11585412D02*
X4109706Y-11509222D01*
X4109706Y-11509222D02*
X4119230Y-11490174D01*
X4119230Y-11490174D02*
X4138277Y-11480650D01*
X4138277Y-11480650D02*
X4176372Y-11480650D01*
X4176372Y-11480650D02*
X4195420Y-11490174D01*
X4195420Y-11490174D02*
X4204944Y-11509222D01*
X4204944Y-11509222D02*
X4204944Y-11528269D01*
X4204944Y-11528269D02*
X4109706Y-11547317D01*
X4281134Y-11604460D02*
X4300182Y-11613984D01*
X4300182Y-11613984D02*
X4338277Y-11613984D01*
X4338277Y-11613984D02*
X4357325Y-11604460D01*
X4357325Y-11604460D02*
X4366849Y-11585412D01*
X4366849Y-11585412D02*
X4366849Y-11575888D01*
X4366849Y-11575888D02*
X4357325Y-11556841D01*
X4357325Y-11556841D02*
X4338277Y-11547317D01*
X4338277Y-11547317D02*
X4309706Y-11547317D01*
X4309706Y-11547317D02*
X4290658Y-11537793D01*
X4290658Y-11537793D02*
X4281134Y-11518746D01*
X4281134Y-11518746D02*
X4281134Y-11509222D01*
X4281134Y-11509222D02*
X4290658Y-11490174D01*
X4290658Y-11490174D02*
X4309706Y-11480650D01*
X4309706Y-11480650D02*
X4338277Y-11480650D01*
X4338277Y-11480650D02*
X4357325Y-11490174D01*
X4433515Y-11690174D02*
X4443039Y-11680650D01*
X4443039Y-11680650D02*
X4462087Y-11652079D01*
X4462087Y-11652079D02*
X4471611Y-11633031D01*
X4471611Y-11633031D02*
X4481134Y-11604460D01*
X4481134Y-11604460D02*
X4490658Y-11556841D01*
X4490658Y-11556841D02*
X4490658Y-11518746D01*
X4490658Y-11518746D02*
X4481134Y-11471127D01*
X4481134Y-11471127D02*
X4471611Y-11442555D01*
X4471611Y-11442555D02*
X4462087Y-11423508D01*
X4462087Y-11423508D02*
X4443039Y-11394936D01*
X4443039Y-11394936D02*
X4433515Y-11385412D01*
X4795420Y-11690174D02*
X4785896Y-11680650D01*
X4785896Y-11680650D02*
X4766849Y-11652079D01*
X4766849Y-11652079D02*
X4757325Y-11633031D01*
X4757325Y-11633031D02*
X4747801Y-11604460D01*
X4747801Y-11604460D02*
X4738277Y-11556841D01*
X4738277Y-11556841D02*
X4738277Y-11518746D01*
X4738277Y-11518746D02*
X4747801Y-11471127D01*
X4747801Y-11471127D02*
X4757325Y-11442555D01*
X4757325Y-11442555D02*
X4766849Y-11423508D01*
X4766849Y-11423508D02*
X4785896Y-11394936D01*
X4785896Y-11394936D02*
X4795420Y-11385412D01*
X4871611Y-11480650D02*
X4871611Y-11613984D01*
X4871611Y-11499698D02*
X4881134Y-11490174D01*
X4881134Y-11490174D02*
X4900182Y-11480650D01*
X4900182Y-11480650D02*
X4928754Y-11480650D01*
X4928754Y-11480650D02*
X4947801Y-11490174D01*
X4947801Y-11490174D02*
X4957325Y-11509222D01*
X4957325Y-11509222D02*
X4957325Y-11613984D01*
X5081134Y-11613984D02*
X5062087Y-11604460D01*
X5062087Y-11604460D02*
X5052563Y-11594936D01*
X5052563Y-11594936D02*
X5043039Y-11575888D01*
X5043039Y-11575888D02*
X5043039Y-11518746D01*
X5043039Y-11518746D02*
X5052563Y-11499698D01*
X5052563Y-11499698D02*
X5062087Y-11490174D01*
X5062087Y-11490174D02*
X5081134Y-11480650D01*
X5081134Y-11480650D02*
X5109706Y-11480650D01*
X5109706Y-11480650D02*
X5128754Y-11490174D01*
X5128754Y-11490174D02*
X5138277Y-11499698D01*
X5138277Y-11499698D02*
X5147801Y-11518746D01*
X5147801Y-11518746D02*
X5147801Y-11575888D01*
X5147801Y-11575888D02*
X5138277Y-11594936D01*
X5138277Y-11594936D02*
X5128754Y-11604460D01*
X5128754Y-11604460D02*
X5109706Y-11613984D01*
X5109706Y-11613984D02*
X5081134Y-11613984D01*
X5204944Y-11480650D02*
X5281134Y-11480650D01*
X5233515Y-11413984D02*
X5233515Y-11585412D01*
X5233515Y-11585412D02*
X5243039Y-11604460D01*
X5243039Y-11604460D02*
X5262087Y-11613984D01*
X5262087Y-11613984D02*
X5281134Y-11613984D01*
X5500182Y-11480650D02*
X5500182Y-11680650D01*
X5500182Y-11490174D02*
X5519230Y-11480650D01*
X5519230Y-11480650D02*
X5557325Y-11480650D01*
X5557325Y-11480650D02*
X5576373Y-11490174D01*
X5576373Y-11490174D02*
X5585896Y-11499698D01*
X5585896Y-11499698D02*
X5595420Y-11518746D01*
X5595420Y-11518746D02*
X5595420Y-11575888D01*
X5595420Y-11575888D02*
X5585896Y-11594936D01*
X5585896Y-11594936D02*
X5576373Y-11604460D01*
X5576373Y-11604460D02*
X5557325Y-11613984D01*
X5557325Y-11613984D02*
X5519230Y-11613984D01*
X5519230Y-11613984D02*
X5500182Y-11604460D01*
X5709706Y-11613984D02*
X5690658Y-11604460D01*
X5690658Y-11604460D02*
X5681134Y-11585412D01*
X5681134Y-11585412D02*
X5681134Y-11413984D01*
X5871611Y-11613984D02*
X5871611Y-11509222D01*
X5871611Y-11509222D02*
X5862087Y-11490174D01*
X5862087Y-11490174D02*
X5843039Y-11480650D01*
X5843039Y-11480650D02*
X5804944Y-11480650D01*
X5804944Y-11480650D02*
X5785896Y-11490174D01*
X5871611Y-11604460D02*
X5852563Y-11613984D01*
X5852563Y-11613984D02*
X5804944Y-11613984D01*
X5804944Y-11613984D02*
X5785896Y-11604460D01*
X5785896Y-11604460D02*
X5776373Y-11585412D01*
X5776373Y-11585412D02*
X5776373Y-11566365D01*
X5776373Y-11566365D02*
X5785896Y-11547317D01*
X5785896Y-11547317D02*
X5804944Y-11537793D01*
X5804944Y-11537793D02*
X5852563Y-11537793D01*
X5852563Y-11537793D02*
X5871611Y-11528269D01*
X5938277Y-11480650D02*
X6014468Y-11480650D01*
X5966849Y-11413984D02*
X5966849Y-11585412D01*
X5966849Y-11585412D02*
X5976373Y-11604460D01*
X5976373Y-11604460D02*
X5995420Y-11613984D01*
X5995420Y-11613984D02*
X6014468Y-11613984D01*
X6157325Y-11604460D02*
X6138277Y-11613984D01*
X6138277Y-11613984D02*
X6100182Y-11613984D01*
X6100182Y-11613984D02*
X6081134Y-11604460D01*
X6081134Y-11604460D02*
X6071611Y-11585412D01*
X6071611Y-11585412D02*
X6071611Y-11509222D01*
X6071611Y-11509222D02*
X6081134Y-11490174D01*
X6081134Y-11490174D02*
X6100182Y-11480650D01*
X6100182Y-11480650D02*
X6138277Y-11480650D01*
X6138277Y-11480650D02*
X6157325Y-11490174D01*
X6157325Y-11490174D02*
X6166849Y-11509222D01*
X6166849Y-11509222D02*
X6166849Y-11528269D01*
X6166849Y-11528269D02*
X6071611Y-11547317D01*
X6338277Y-11613984D02*
X6338277Y-11413984D01*
X6338277Y-11604460D02*
X6319230Y-11613984D01*
X6319230Y-11613984D02*
X6281134Y-11613984D01*
X6281134Y-11613984D02*
X6262087Y-11604460D01*
X6262087Y-11604460D02*
X6252563Y-11594936D01*
X6252563Y-11594936D02*
X6243039Y-11575888D01*
X6243039Y-11575888D02*
X6243039Y-11518746D01*
X6243039Y-11518746D02*
X6252563Y-11499698D01*
X6252563Y-11499698D02*
X6262087Y-11490174D01*
X6262087Y-11490174D02*
X6281134Y-11480650D01*
X6281134Y-11480650D02*
X6319230Y-11480650D01*
X6319230Y-11480650D02*
X6338277Y-11490174D01*
X6414468Y-11690174D02*
X6423992Y-11680650D01*
X6423992Y-11680650D02*
X6443039Y-11652079D01*
X6443039Y-11652079D02*
X6452563Y-11633031D01*
X6452563Y-11633031D02*
X6462087Y-11604460D01*
X6462087Y-11604460D02*
X6471611Y-11556841D01*
X6471611Y-11556841D02*
X6471611Y-11518746D01*
X6471611Y-11518746D02*
X6462087Y-11471127D01*
X6462087Y-11471127D02*
X6452563Y-11442555D01*
X6452563Y-11442555D02*
X6443039Y-11423508D01*
X6443039Y-11423508D02*
X6423992Y-11394936D01*
X6423992Y-11394936D02*
X6414468Y-11385412D01*
X-722500Y-11812500D02*
G75*
G02*
X-922500Y-11812500I-100000J0D01*
G01*
X-922500Y-11812500D02*
G75*
G02*
X-722500Y-11812500I100000J0D01*
G01*
X-480771Y-11703984D02*
X-356961Y-11703984D01*
X-356961Y-11703984D02*
X-423628Y-11780174D01*
X-423628Y-11780174D02*
X-395056Y-11780174D01*
X-395056Y-11780174D02*
X-376009Y-11789698D01*
X-376009Y-11789698D02*
X-366485Y-11799222D01*
X-366485Y-11799222D02*
X-356961Y-11818269D01*
X-356961Y-11818269D02*
X-356961Y-11865888D01*
X-356961Y-11865888D02*
X-366485Y-11884936D01*
X-366485Y-11884936D02*
X-376009Y-11894460D01*
X-376009Y-11894460D02*
X-395056Y-11903984D01*
X-395056Y-11903984D02*
X-452199Y-11903984D01*
X-452199Y-11903984D02*
X-471247Y-11894460D01*
X-471247Y-11894460D02*
X-480771Y-11884936D01*
X-271247Y-11884936D02*
X-261723Y-11894460D01*
X-261723Y-11894460D02*
X-271247Y-11903984D01*
X-271247Y-11903984D02*
X-280771Y-11894460D01*
X-280771Y-11894460D02*
X-271247Y-11884936D01*
X-271247Y-11884936D02*
X-271247Y-11903984D01*
X-137914Y-11703984D02*
X-118866Y-11703984D01*
X-118866Y-11703984D02*
X-99818Y-11713508D01*
X-99818Y-11713508D02*
X-90294Y-11723031D01*
X-90294Y-11723031D02*
X-80771Y-11742079D01*
X-80771Y-11742079D02*
X-71247Y-11780174D01*
X-71247Y-11780174D02*
X-71247Y-11827793D01*
X-71247Y-11827793D02*
X-80771Y-11865888D01*
X-80771Y-11865888D02*
X-90294Y-11884936D01*
X-90294Y-11884936D02*
X-99818Y-11894460D01*
X-99818Y-11894460D02*
X-118866Y-11903984D01*
X-118866Y-11903984D02*
X-137914Y-11903984D01*
X-137914Y-11903984D02*
X-156961Y-11894460D01*
X-156961Y-11894460D02*
X-166485Y-11884936D01*
X-166485Y-11884936D02*
X-176009Y-11865888D01*
X-176009Y-11865888D02*
X-185533Y-11827793D01*
X-185533Y-11827793D02*
X-185533Y-11780174D01*
X-185533Y-11780174D02*
X-176009Y-11742079D01*
X-176009Y-11742079D02*
X-166485Y-11723031D01*
X-166485Y-11723031D02*
X-156961Y-11713508D01*
X-156961Y-11713508D02*
X-137914Y-11703984D01*
X100182Y-11770650D02*
X100182Y-11903984D01*
X52562Y-11694460D02*
X4944Y-11837317D01*
X4944Y-11837317D02*
X128753Y-11837317D01*
X233515Y-11789698D02*
X214467Y-11780174D01*
X214467Y-11780174D02*
X204943Y-11770650D01*
X204943Y-11770650D02*
X195420Y-11751603D01*
X195420Y-11751603D02*
X195420Y-11742079D01*
X195420Y-11742079D02*
X204943Y-11723031D01*
X204943Y-11723031D02*
X214467Y-11713508D01*
X214467Y-11713508D02*
X233515Y-11703984D01*
X233515Y-11703984D02*
X271610Y-11703984D01*
X271610Y-11703984D02*
X290658Y-11713508D01*
X290658Y-11713508D02*
X300182Y-11723031D01*
X300182Y-11723031D02*
X309705Y-11742079D01*
X309705Y-11742079D02*
X309705Y-11751603D01*
X309705Y-11751603D02*
X300182Y-11770650D01*
X300182Y-11770650D02*
X290658Y-11780174D01*
X290658Y-11780174D02*
X271610Y-11789698D01*
X271610Y-11789698D02*
X233515Y-11789698D01*
X233515Y-11789698D02*
X214467Y-11799222D01*
X214467Y-11799222D02*
X204943Y-11808746D01*
X204943Y-11808746D02*
X195420Y-11827793D01*
X195420Y-11827793D02*
X195420Y-11865888D01*
X195420Y-11865888D02*
X204943Y-11884936D01*
X204943Y-11884936D02*
X214467Y-11894460D01*
X214467Y-11894460D02*
X233515Y-11903984D01*
X233515Y-11903984D02*
X271610Y-11903984D01*
X271610Y-11903984D02*
X290658Y-11894460D01*
X290658Y-11894460D02*
X300182Y-11884936D01*
X300182Y-11884936D02*
X309705Y-11865888D01*
X309705Y-11865888D02*
X309705Y-11827793D01*
X309705Y-11827793D02*
X300182Y-11808746D01*
X300182Y-11808746D02*
X290658Y-11799222D01*
X290658Y-11799222D02*
X271610Y-11789698D01*
X395420Y-11903984D02*
X395420Y-11770650D01*
X395420Y-11789698D02*
X404943Y-11780174D01*
X404943Y-11780174D02*
X423991Y-11770650D01*
X423991Y-11770650D02*
X452563Y-11770650D01*
X452563Y-11770650D02*
X471610Y-11780174D01*
X471610Y-11780174D02*
X481134Y-11799222D01*
X481134Y-11799222D02*
X481134Y-11903984D01*
X481134Y-11799222D02*
X490658Y-11780174D01*
X490658Y-11780174D02*
X509705Y-11770650D01*
X509705Y-11770650D02*
X538277Y-11770650D01*
X538277Y-11770650D02*
X557325Y-11780174D01*
X557325Y-11780174D02*
X566848Y-11799222D01*
X566848Y-11799222D02*
X566848Y-11903984D01*
X662086Y-11903984D02*
X662086Y-11770650D01*
X662086Y-11789698D02*
X671610Y-11780174D01*
X671610Y-11780174D02*
X690658Y-11770650D01*
X690658Y-11770650D02*
X719229Y-11770650D01*
X719229Y-11770650D02*
X738277Y-11780174D01*
X738277Y-11780174D02*
X747801Y-11799222D01*
X747801Y-11799222D02*
X747801Y-11903984D01*
X747801Y-11799222D02*
X757324Y-11780174D01*
X757324Y-11780174D02*
X776372Y-11770650D01*
X776372Y-11770650D02*
X804943Y-11770650D01*
X804943Y-11770650D02*
X823991Y-11780174D01*
X823991Y-11780174D02*
X833515Y-11799222D01*
X833515Y-11799222D02*
X833515Y-11903984D01*
X1223991Y-11694460D02*
X1052563Y-11951603D01*
X1481134Y-11703984D02*
X1500182Y-11703984D01*
X1500182Y-11703984D02*
X1519229Y-11713508D01*
X1519229Y-11713508D02*
X1528753Y-11723031D01*
X1528753Y-11723031D02*
X1538277Y-11742079D01*
X1538277Y-11742079D02*
X1547801Y-11780174D01*
X1547801Y-11780174D02*
X1547801Y-11827793D01*
X1547801Y-11827793D02*
X1538277Y-11865888D01*
X1538277Y-11865888D02*
X1528753Y-11884936D01*
X1528753Y-11884936D02*
X1519229Y-11894460D01*
X1519229Y-11894460D02*
X1500182Y-11903984D01*
X1500182Y-11903984D02*
X1481134Y-11903984D01*
X1481134Y-11903984D02*
X1462086Y-11894460D01*
X1462086Y-11894460D02*
X1452563Y-11884936D01*
X1452563Y-11884936D02*
X1443039Y-11865888D01*
X1443039Y-11865888D02*
X1433515Y-11827793D01*
X1433515Y-11827793D02*
X1433515Y-11780174D01*
X1433515Y-11780174D02*
X1443039Y-11742079D01*
X1443039Y-11742079D02*
X1452563Y-11723031D01*
X1452563Y-11723031D02*
X1462086Y-11713508D01*
X1462086Y-11713508D02*
X1481134Y-11703984D01*
X1633515Y-11884936D02*
X1643039Y-11894460D01*
X1643039Y-11894460D02*
X1633515Y-11903984D01*
X1633515Y-11903984D02*
X1623991Y-11894460D01*
X1623991Y-11894460D02*
X1633515Y-11884936D01*
X1633515Y-11884936D02*
X1633515Y-11903984D01*
X1833515Y-11903984D02*
X1719229Y-11903984D01*
X1776372Y-11903984D02*
X1776372Y-11703984D01*
X1776372Y-11703984D02*
X1757325Y-11732555D01*
X1757325Y-11732555D02*
X1738277Y-11751603D01*
X1738277Y-11751603D02*
X1719229Y-11761127D01*
X1909706Y-11723031D02*
X1919229Y-11713508D01*
X1919229Y-11713508D02*
X1938277Y-11703984D01*
X1938277Y-11703984D02*
X1985896Y-11703984D01*
X1985896Y-11703984D02*
X2004944Y-11713508D01*
X2004944Y-11713508D02*
X2014467Y-11723031D01*
X2014467Y-11723031D02*
X2023991Y-11742079D01*
X2023991Y-11742079D02*
X2023991Y-11761127D01*
X2023991Y-11761127D02*
X2014467Y-11789698D01*
X2014467Y-11789698D02*
X1900182Y-11903984D01*
X1900182Y-11903984D02*
X2023991Y-11903984D01*
X2147801Y-11703984D02*
X2166849Y-11703984D01*
X2166849Y-11703984D02*
X2185896Y-11713508D01*
X2185896Y-11713508D02*
X2195420Y-11723031D01*
X2195420Y-11723031D02*
X2204944Y-11742079D01*
X2204944Y-11742079D02*
X2214468Y-11780174D01*
X2214468Y-11780174D02*
X2214468Y-11827793D01*
X2214468Y-11827793D02*
X2204944Y-11865888D01*
X2204944Y-11865888D02*
X2195420Y-11884936D01*
X2195420Y-11884936D02*
X2185896Y-11894460D01*
X2185896Y-11894460D02*
X2166849Y-11903984D01*
X2166849Y-11903984D02*
X2147801Y-11903984D01*
X2147801Y-11903984D02*
X2128753Y-11894460D01*
X2128753Y-11894460D02*
X2119229Y-11884936D01*
X2119229Y-11884936D02*
X2109706Y-11865888D01*
X2109706Y-11865888D02*
X2100182Y-11827793D01*
X2100182Y-11827793D02*
X2100182Y-11780174D01*
X2100182Y-11780174D02*
X2109706Y-11742079D01*
X2109706Y-11742079D02*
X2119229Y-11723031D01*
X2119229Y-11723031D02*
X2128753Y-11713508D01*
X2128753Y-11713508D02*
X2147801Y-11703984D01*
X2338277Y-11703984D02*
X2357325Y-11703984D01*
X2357325Y-11703984D02*
X2376372Y-11713508D01*
X2376372Y-11713508D02*
X2385896Y-11723031D01*
X2385896Y-11723031D02*
X2395420Y-11742079D01*
X2395420Y-11742079D02*
X2404944Y-11780174D01*
X2404944Y-11780174D02*
X2404944Y-11827793D01*
X2404944Y-11827793D02*
X2395420Y-11865888D01*
X2395420Y-11865888D02*
X2385896Y-11884936D01*
X2385896Y-11884936D02*
X2376372Y-11894460D01*
X2376372Y-11894460D02*
X2357325Y-11903984D01*
X2357325Y-11903984D02*
X2338277Y-11903984D01*
X2338277Y-11903984D02*
X2319229Y-11894460D01*
X2319229Y-11894460D02*
X2309706Y-11884936D01*
X2309706Y-11884936D02*
X2300182Y-11865888D01*
X2300182Y-11865888D02*
X2290658Y-11827793D01*
X2290658Y-11827793D02*
X2290658Y-11780174D01*
X2290658Y-11780174D02*
X2300182Y-11742079D01*
X2300182Y-11742079D02*
X2309706Y-11723031D01*
X2309706Y-11723031D02*
X2319229Y-11713508D01*
X2319229Y-11713508D02*
X2338277Y-11703984D01*
X2481134Y-11703984D02*
X2481134Y-11742079D01*
X2557325Y-11703984D02*
X2557325Y-11742079D01*
X2852563Y-11980174D02*
X2843039Y-11970650D01*
X2843039Y-11970650D02*
X2823991Y-11942079D01*
X2823991Y-11942079D02*
X2814468Y-11923031D01*
X2814468Y-11923031D02*
X2804944Y-11894460D01*
X2804944Y-11894460D02*
X2795420Y-11846841D01*
X2795420Y-11846841D02*
X2795420Y-11808746D01*
X2795420Y-11808746D02*
X2804944Y-11761127D01*
X2804944Y-11761127D02*
X2814468Y-11732555D01*
X2814468Y-11732555D02*
X2823991Y-11713508D01*
X2823991Y-11713508D02*
X2843039Y-11684936D01*
X2843039Y-11684936D02*
X2852563Y-11675412D01*
X3033515Y-11903984D02*
X2919229Y-11903984D01*
X2976372Y-11903984D02*
X2976372Y-11703984D01*
X2976372Y-11703984D02*
X2957325Y-11732555D01*
X2957325Y-11732555D02*
X2938277Y-11751603D01*
X2938277Y-11751603D02*
X2919229Y-11761127D01*
X3157325Y-11703984D02*
X3176372Y-11703984D01*
X3176372Y-11703984D02*
X3195420Y-11713508D01*
X3195420Y-11713508D02*
X3204944Y-11723031D01*
X3204944Y-11723031D02*
X3214468Y-11742079D01*
X3214468Y-11742079D02*
X3223991Y-11780174D01*
X3223991Y-11780174D02*
X3223991Y-11827793D01*
X3223991Y-11827793D02*
X3214468Y-11865888D01*
X3214468Y-11865888D02*
X3204944Y-11884936D01*
X3204944Y-11884936D02*
X3195420Y-11894460D01*
X3195420Y-11894460D02*
X3176372Y-11903984D01*
X3176372Y-11903984D02*
X3157325Y-11903984D01*
X3157325Y-11903984D02*
X3138277Y-11894460D01*
X3138277Y-11894460D02*
X3128753Y-11884936D01*
X3128753Y-11884936D02*
X3119229Y-11865888D01*
X3119229Y-11865888D02*
X3109706Y-11827793D01*
X3109706Y-11827793D02*
X3109706Y-11780174D01*
X3109706Y-11780174D02*
X3119229Y-11742079D01*
X3119229Y-11742079D02*
X3128753Y-11723031D01*
X3128753Y-11723031D02*
X3138277Y-11713508D01*
X3138277Y-11713508D02*
X3157325Y-11703984D01*
X3462087Y-11903984D02*
X3462087Y-11703984D01*
X3547801Y-11903984D02*
X3547801Y-11799222D01*
X3547801Y-11799222D02*
X3538277Y-11780174D01*
X3538277Y-11780174D02*
X3519230Y-11770650D01*
X3519230Y-11770650D02*
X3490658Y-11770650D01*
X3490658Y-11770650D02*
X3471610Y-11780174D01*
X3471610Y-11780174D02*
X3462087Y-11789698D01*
X3671610Y-11903984D02*
X3652563Y-11894460D01*
X3652563Y-11894460D02*
X3643039Y-11884936D01*
X3643039Y-11884936D02*
X3633515Y-11865888D01*
X3633515Y-11865888D02*
X3633515Y-11808746D01*
X3633515Y-11808746D02*
X3643039Y-11789698D01*
X3643039Y-11789698D02*
X3652563Y-11780174D01*
X3652563Y-11780174D02*
X3671610Y-11770650D01*
X3671610Y-11770650D02*
X3700182Y-11770650D01*
X3700182Y-11770650D02*
X3719230Y-11780174D01*
X3719230Y-11780174D02*
X3728753Y-11789698D01*
X3728753Y-11789698D02*
X3738277Y-11808746D01*
X3738277Y-11808746D02*
X3738277Y-11865888D01*
X3738277Y-11865888D02*
X3728753Y-11884936D01*
X3728753Y-11884936D02*
X3719230Y-11894460D01*
X3719230Y-11894460D02*
X3700182Y-11903984D01*
X3700182Y-11903984D02*
X3671610Y-11903984D01*
X3852563Y-11903984D02*
X3833515Y-11894460D01*
X3833515Y-11894460D02*
X3823991Y-11875412D01*
X3823991Y-11875412D02*
X3823991Y-11703984D01*
X4004944Y-11894460D02*
X3985896Y-11903984D01*
X3985896Y-11903984D02*
X3947801Y-11903984D01*
X3947801Y-11903984D02*
X3928753Y-11894460D01*
X3928753Y-11894460D02*
X3919230Y-11875412D01*
X3919230Y-11875412D02*
X3919230Y-11799222D01*
X3919230Y-11799222D02*
X3928753Y-11780174D01*
X3928753Y-11780174D02*
X3947801Y-11770650D01*
X3947801Y-11770650D02*
X3985896Y-11770650D01*
X3985896Y-11770650D02*
X4004944Y-11780174D01*
X4004944Y-11780174D02*
X4014468Y-11799222D01*
X4014468Y-11799222D02*
X4014468Y-11818269D01*
X4014468Y-11818269D02*
X3919230Y-11837317D01*
X4090658Y-11894460D02*
X4109706Y-11903984D01*
X4109706Y-11903984D02*
X4147801Y-11903984D01*
X4147801Y-11903984D02*
X4166849Y-11894460D01*
X4166849Y-11894460D02*
X4176372Y-11875412D01*
X4176372Y-11875412D02*
X4176372Y-11865888D01*
X4176372Y-11865888D02*
X4166849Y-11846841D01*
X4166849Y-11846841D02*
X4147801Y-11837317D01*
X4147801Y-11837317D02*
X4119230Y-11837317D01*
X4119230Y-11837317D02*
X4100182Y-11827793D01*
X4100182Y-11827793D02*
X4090658Y-11808746D01*
X4090658Y-11808746D02*
X4090658Y-11799222D01*
X4090658Y-11799222D02*
X4100182Y-11780174D01*
X4100182Y-11780174D02*
X4119230Y-11770650D01*
X4119230Y-11770650D02*
X4147801Y-11770650D01*
X4147801Y-11770650D02*
X4166849Y-11780174D01*
X4243039Y-11980174D02*
X4252563Y-11970650D01*
X4252563Y-11970650D02*
X4271611Y-11942079D01*
X4271611Y-11942079D02*
X4281134Y-11923031D01*
X4281134Y-11923031D02*
X4290658Y-11894460D01*
X4290658Y-11894460D02*
X4300182Y-11846841D01*
X4300182Y-11846841D02*
X4300182Y-11808746D01*
X4300182Y-11808746D02*
X4290658Y-11761127D01*
X4290658Y-11761127D02*
X4281134Y-11732555D01*
X4281134Y-11732555D02*
X4271611Y-11713508D01*
X4271611Y-11713508D02*
X4252563Y-11684936D01*
X4252563Y-11684936D02*
X4243039Y-11675412D01*
X4604944Y-11980174D02*
X4595420Y-11970650D01*
X4595420Y-11970650D02*
X4576373Y-11942079D01*
X4576373Y-11942079D02*
X4566849Y-11923031D01*
X4566849Y-11923031D02*
X4557325Y-11894460D01*
X4557325Y-11894460D02*
X4547801Y-11846841D01*
X4547801Y-11846841D02*
X4547801Y-11808746D01*
X4547801Y-11808746D02*
X4557325Y-11761127D01*
X4557325Y-11761127D02*
X4566849Y-11732555D01*
X4566849Y-11732555D02*
X4576373Y-11713508D01*
X4576373Y-11713508D02*
X4595420Y-11684936D01*
X4595420Y-11684936D02*
X4604944Y-11675412D01*
X4681134Y-11770650D02*
X4681134Y-11903984D01*
X4681134Y-11789698D02*
X4690658Y-11780174D01*
X4690658Y-11780174D02*
X4709706Y-11770650D01*
X4709706Y-11770650D02*
X4738277Y-11770650D01*
X4738277Y-11770650D02*
X4757325Y-11780174D01*
X4757325Y-11780174D02*
X4766849Y-11799222D01*
X4766849Y-11799222D02*
X4766849Y-11903984D01*
X4890658Y-11903984D02*
X4871611Y-11894460D01*
X4871611Y-11894460D02*
X4862087Y-11884936D01*
X4862087Y-11884936D02*
X4852563Y-11865888D01*
X4852563Y-11865888D02*
X4852563Y-11808746D01*
X4852563Y-11808746D02*
X4862087Y-11789698D01*
X4862087Y-11789698D02*
X4871611Y-11780174D01*
X4871611Y-11780174D02*
X4890658Y-11770650D01*
X4890658Y-11770650D02*
X4919230Y-11770650D01*
X4919230Y-11770650D02*
X4938277Y-11780174D01*
X4938277Y-11780174D02*
X4947801Y-11789698D01*
X4947801Y-11789698D02*
X4957325Y-11808746D01*
X4957325Y-11808746D02*
X4957325Y-11865888D01*
X4957325Y-11865888D02*
X4947801Y-11884936D01*
X4947801Y-11884936D02*
X4938277Y-11894460D01*
X4938277Y-11894460D02*
X4919230Y-11903984D01*
X4919230Y-11903984D02*
X4890658Y-11903984D01*
X5014468Y-11770650D02*
X5090658Y-11770650D01*
X5043039Y-11703984D02*
X5043039Y-11875412D01*
X5043039Y-11875412D02*
X5052563Y-11894460D01*
X5052563Y-11894460D02*
X5071611Y-11903984D01*
X5071611Y-11903984D02*
X5090658Y-11903984D01*
X5309706Y-11770650D02*
X5309706Y-11970650D01*
X5309706Y-11780174D02*
X5328754Y-11770650D01*
X5328754Y-11770650D02*
X5366849Y-11770650D01*
X5366849Y-11770650D02*
X5385896Y-11780174D01*
X5385896Y-11780174D02*
X5395420Y-11789698D01*
X5395420Y-11789698D02*
X5404944Y-11808746D01*
X5404944Y-11808746D02*
X5404944Y-11865888D01*
X5404944Y-11865888D02*
X5395420Y-11884936D01*
X5395420Y-11884936D02*
X5385896Y-11894460D01*
X5385896Y-11894460D02*
X5366849Y-11903984D01*
X5366849Y-11903984D02*
X5328754Y-11903984D01*
X5328754Y-11903984D02*
X5309706Y-11894460D01*
X5519230Y-11903984D02*
X5500182Y-11894460D01*
X5500182Y-11894460D02*
X5490658Y-11875412D01*
X5490658Y-11875412D02*
X5490658Y-11703984D01*
X5681134Y-11903984D02*
X5681134Y-11799222D01*
X5681134Y-11799222D02*
X5671611Y-11780174D01*
X5671611Y-11780174D02*
X5652563Y-11770650D01*
X5652563Y-11770650D02*
X5614468Y-11770650D01*
X5614468Y-11770650D02*
X5595420Y-11780174D01*
X5681134Y-11894460D02*
X5662087Y-11903984D01*
X5662087Y-11903984D02*
X5614468Y-11903984D01*
X5614468Y-11903984D02*
X5595420Y-11894460D01*
X5595420Y-11894460D02*
X5585896Y-11875412D01*
X5585896Y-11875412D02*
X5585896Y-11856365D01*
X5585896Y-11856365D02*
X5595420Y-11837317D01*
X5595420Y-11837317D02*
X5614468Y-11827793D01*
X5614468Y-11827793D02*
X5662087Y-11827793D01*
X5662087Y-11827793D02*
X5681134Y-11818269D01*
X5747801Y-11770650D02*
X5823992Y-11770650D01*
X5776373Y-11703984D02*
X5776373Y-11875412D01*
X5776373Y-11875412D02*
X5785896Y-11894460D01*
X5785896Y-11894460D02*
X5804944Y-11903984D01*
X5804944Y-11903984D02*
X5823992Y-11903984D01*
X5966849Y-11894460D02*
X5947801Y-11903984D01*
X5947801Y-11903984D02*
X5909706Y-11903984D01*
X5909706Y-11903984D02*
X5890658Y-11894460D01*
X5890658Y-11894460D02*
X5881134Y-11875412D01*
X5881134Y-11875412D02*
X5881134Y-11799222D01*
X5881134Y-11799222D02*
X5890658Y-11780174D01*
X5890658Y-11780174D02*
X5909706Y-11770650D01*
X5909706Y-11770650D02*
X5947801Y-11770650D01*
X5947801Y-11770650D02*
X5966849Y-11780174D01*
X5966849Y-11780174D02*
X5976373Y-11799222D01*
X5976373Y-11799222D02*
X5976373Y-11818269D01*
X5976373Y-11818269D02*
X5881134Y-11837317D01*
X6147801Y-11903984D02*
X6147801Y-11703984D01*
X6147801Y-11894460D02*
X6128754Y-11903984D01*
X6128754Y-11903984D02*
X6090658Y-11903984D01*
X6090658Y-11903984D02*
X6071611Y-11894460D01*
X6071611Y-11894460D02*
X6062087Y-11884936D01*
X6062087Y-11884936D02*
X6052563Y-11865888D01*
X6052563Y-11865888D02*
X6052563Y-11808746D01*
X6052563Y-11808746D02*
X6062087Y-11789698D01*
X6062087Y-11789698D02*
X6071611Y-11780174D01*
X6071611Y-11780174D02*
X6090658Y-11770650D01*
X6090658Y-11770650D02*
X6128754Y-11770650D01*
X6128754Y-11770650D02*
X6147801Y-11780174D01*
X6223992Y-11980174D02*
X6233515Y-11970650D01*
X6233515Y-11970650D02*
X6252563Y-11942079D01*
X6252563Y-11942079D02*
X6262087Y-11923031D01*
X6262087Y-11923031D02*
X6271611Y-11894460D01*
X6271611Y-11894460D02*
X6281134Y-11846841D01*
X6281134Y-11846841D02*
X6281134Y-11808746D01*
X6281134Y-11808746D02*
X6271611Y-11761127D01*
X6271611Y-11761127D02*
X6262087Y-11732555D01*
X6262087Y-11732555D02*
X6252563Y-11713508D01*
X6252563Y-11713508D02*
X6233515Y-11684936D01*
X6233515Y-11684936D02*
X6223992Y-11675412D01*
X-822500Y-12032500D02*
X-822500Y-12232500D01*
X-922500Y-12132500D02*
X-722500Y-12132500D01*
X-480771Y-12023984D02*
X-356961Y-12023984D01*
X-356961Y-12023984D02*
X-423628Y-12100174D01*
X-423628Y-12100174D02*
X-395056Y-12100174D01*
X-395056Y-12100174D02*
X-376009Y-12109698D01*
X-376009Y-12109698D02*
X-366485Y-12119222D01*
X-366485Y-12119222D02*
X-356961Y-12138269D01*
X-356961Y-12138269D02*
X-356961Y-12185888D01*
X-356961Y-12185888D02*
X-366485Y-12204936D01*
X-366485Y-12204936D02*
X-376009Y-12214460D01*
X-376009Y-12214460D02*
X-395056Y-12223984D01*
X-395056Y-12223984D02*
X-452199Y-12223984D01*
X-452199Y-12223984D02*
X-471247Y-12214460D01*
X-471247Y-12214460D02*
X-480771Y-12204936D01*
X-271247Y-12204936D02*
X-261723Y-12214460D01*
X-261723Y-12214460D02*
X-271247Y-12223984D01*
X-271247Y-12223984D02*
X-280771Y-12214460D01*
X-280771Y-12214460D02*
X-271247Y-12204936D01*
X-271247Y-12204936D02*
X-271247Y-12223984D01*
X-166485Y-12223984D02*
X-128390Y-12223984D01*
X-128390Y-12223984D02*
X-109342Y-12214460D01*
X-109342Y-12214460D02*
X-99818Y-12204936D01*
X-99818Y-12204936D02*
X-80771Y-12176365D01*
X-80771Y-12176365D02*
X-71247Y-12138269D01*
X-71247Y-12138269D02*
X-71247Y-12062079D01*
X-71247Y-12062079D02*
X-80771Y-12043031D01*
X-80771Y-12043031D02*
X-90294Y-12033508D01*
X-90294Y-12033508D02*
X-109342Y-12023984D01*
X-109342Y-12023984D02*
X-147437Y-12023984D01*
X-147437Y-12023984D02*
X-166485Y-12033508D01*
X-166485Y-12033508D02*
X-176009Y-12043031D01*
X-176009Y-12043031D02*
X-185533Y-12062079D01*
X-185533Y-12062079D02*
X-185533Y-12109698D01*
X-185533Y-12109698D02*
X-176009Y-12128746D01*
X-176009Y-12128746D02*
X-166485Y-12138269D01*
X-166485Y-12138269D02*
X-147437Y-12147793D01*
X-147437Y-12147793D02*
X-109342Y-12147793D01*
X-109342Y-12147793D02*
X-90294Y-12138269D01*
X-90294Y-12138269D02*
X-80771Y-12128746D01*
X-80771Y-12128746D02*
X-71247Y-12109698D01*
X43039Y-12109698D02*
X23991Y-12100174D01*
X23991Y-12100174D02*
X14467Y-12090650D01*
X14467Y-12090650D02*
X4944Y-12071603D01*
X4944Y-12071603D02*
X4944Y-12062079D01*
X4944Y-12062079D02*
X14467Y-12043031D01*
X14467Y-12043031D02*
X23991Y-12033508D01*
X23991Y-12033508D02*
X43039Y-12023984D01*
X43039Y-12023984D02*
X81134Y-12023984D01*
X81134Y-12023984D02*
X100182Y-12033508D01*
X100182Y-12033508D02*
X109705Y-12043031D01*
X109705Y-12043031D02*
X119229Y-12062079D01*
X119229Y-12062079D02*
X119229Y-12071603D01*
X119229Y-12071603D02*
X109705Y-12090650D01*
X109705Y-12090650D02*
X100182Y-12100174D01*
X100182Y-12100174D02*
X81134Y-12109698D01*
X81134Y-12109698D02*
X43039Y-12109698D01*
X43039Y-12109698D02*
X23991Y-12119222D01*
X23991Y-12119222D02*
X14467Y-12128746D01*
X14467Y-12128746D02*
X4944Y-12147793D01*
X4944Y-12147793D02*
X4944Y-12185888D01*
X4944Y-12185888D02*
X14467Y-12204936D01*
X14467Y-12204936D02*
X23991Y-12214460D01*
X23991Y-12214460D02*
X43039Y-12223984D01*
X43039Y-12223984D02*
X81134Y-12223984D01*
X81134Y-12223984D02*
X100182Y-12214460D01*
X100182Y-12214460D02*
X109705Y-12204936D01*
X109705Y-12204936D02*
X119229Y-12185888D01*
X119229Y-12185888D02*
X119229Y-12147793D01*
X119229Y-12147793D02*
X109705Y-12128746D01*
X109705Y-12128746D02*
X100182Y-12119222D01*
X100182Y-12119222D02*
X81134Y-12109698D01*
X233515Y-12109698D02*
X214467Y-12100174D01*
X214467Y-12100174D02*
X204943Y-12090650D01*
X204943Y-12090650D02*
X195420Y-12071603D01*
X195420Y-12071603D02*
X195420Y-12062079D01*
X195420Y-12062079D02*
X204943Y-12043031D01*
X204943Y-12043031D02*
X214467Y-12033508D01*
X214467Y-12033508D02*
X233515Y-12023984D01*
X233515Y-12023984D02*
X271610Y-12023984D01*
X271610Y-12023984D02*
X290658Y-12033508D01*
X290658Y-12033508D02*
X300182Y-12043031D01*
X300182Y-12043031D02*
X309705Y-12062079D01*
X309705Y-12062079D02*
X309705Y-12071603D01*
X309705Y-12071603D02*
X300182Y-12090650D01*
X300182Y-12090650D02*
X290658Y-12100174D01*
X290658Y-12100174D02*
X271610Y-12109698D01*
X271610Y-12109698D02*
X233515Y-12109698D01*
X233515Y-12109698D02*
X214467Y-12119222D01*
X214467Y-12119222D02*
X204943Y-12128746D01*
X204943Y-12128746D02*
X195420Y-12147793D01*
X195420Y-12147793D02*
X195420Y-12185888D01*
X195420Y-12185888D02*
X204943Y-12204936D01*
X204943Y-12204936D02*
X214467Y-12214460D01*
X214467Y-12214460D02*
X233515Y-12223984D01*
X233515Y-12223984D02*
X271610Y-12223984D01*
X271610Y-12223984D02*
X290658Y-12214460D01*
X290658Y-12214460D02*
X300182Y-12204936D01*
X300182Y-12204936D02*
X309705Y-12185888D01*
X309705Y-12185888D02*
X309705Y-12147793D01*
X309705Y-12147793D02*
X300182Y-12128746D01*
X300182Y-12128746D02*
X290658Y-12119222D01*
X290658Y-12119222D02*
X271610Y-12109698D01*
X395420Y-12223984D02*
X395420Y-12090650D01*
X395420Y-12109698D02*
X404943Y-12100174D01*
X404943Y-12100174D02*
X423991Y-12090650D01*
X423991Y-12090650D02*
X452563Y-12090650D01*
X452563Y-12090650D02*
X471610Y-12100174D01*
X471610Y-12100174D02*
X481134Y-12119222D01*
X481134Y-12119222D02*
X481134Y-12223984D01*
X481134Y-12119222D02*
X490658Y-12100174D01*
X490658Y-12100174D02*
X509705Y-12090650D01*
X509705Y-12090650D02*
X538277Y-12090650D01*
X538277Y-12090650D02*
X557325Y-12100174D01*
X557325Y-12100174D02*
X566848Y-12119222D01*
X566848Y-12119222D02*
X566848Y-12223984D01*
X662086Y-12223984D02*
X662086Y-12090650D01*
X662086Y-12109698D02*
X671610Y-12100174D01*
X671610Y-12100174D02*
X690658Y-12090650D01*
X690658Y-12090650D02*
X719229Y-12090650D01*
X719229Y-12090650D02*
X738277Y-12100174D01*
X738277Y-12100174D02*
X747801Y-12119222D01*
X747801Y-12119222D02*
X747801Y-12223984D01*
X747801Y-12119222D02*
X757324Y-12100174D01*
X757324Y-12100174D02*
X776372Y-12090650D01*
X776372Y-12090650D02*
X804943Y-12090650D01*
X804943Y-12090650D02*
X823991Y-12100174D01*
X823991Y-12100174D02*
X833515Y-12119222D01*
X833515Y-12119222D02*
X833515Y-12223984D01*
X1223991Y-12014460D02*
X1052563Y-12271603D01*
X1481134Y-12023984D02*
X1500182Y-12023984D01*
X1500182Y-12023984D02*
X1519229Y-12033508D01*
X1519229Y-12033508D02*
X1528753Y-12043031D01*
X1528753Y-12043031D02*
X1538277Y-12062079D01*
X1538277Y-12062079D02*
X1547801Y-12100174D01*
X1547801Y-12100174D02*
X1547801Y-12147793D01*
X1547801Y-12147793D02*
X1538277Y-12185888D01*
X1538277Y-12185888D02*
X1528753Y-12204936D01*
X1528753Y-12204936D02*
X1519229Y-12214460D01*
X1519229Y-12214460D02*
X1500182Y-12223984D01*
X1500182Y-12223984D02*
X1481134Y-12223984D01*
X1481134Y-12223984D02*
X1462086Y-12214460D01*
X1462086Y-12214460D02*
X1452563Y-12204936D01*
X1452563Y-12204936D02*
X1443039Y-12185888D01*
X1443039Y-12185888D02*
X1433515Y-12147793D01*
X1433515Y-12147793D02*
X1433515Y-12100174D01*
X1433515Y-12100174D02*
X1443039Y-12062079D01*
X1443039Y-12062079D02*
X1452563Y-12043031D01*
X1452563Y-12043031D02*
X1462086Y-12033508D01*
X1462086Y-12033508D02*
X1481134Y-12023984D01*
X1633515Y-12204936D02*
X1643039Y-12214460D01*
X1643039Y-12214460D02*
X1633515Y-12223984D01*
X1633515Y-12223984D02*
X1623991Y-12214460D01*
X1623991Y-12214460D02*
X1633515Y-12204936D01*
X1633515Y-12204936D02*
X1633515Y-12223984D01*
X1833515Y-12223984D02*
X1719229Y-12223984D01*
X1776372Y-12223984D02*
X1776372Y-12023984D01*
X1776372Y-12023984D02*
X1757325Y-12052555D01*
X1757325Y-12052555D02*
X1738277Y-12071603D01*
X1738277Y-12071603D02*
X1719229Y-12081127D01*
X2014467Y-12023984D02*
X1919229Y-12023984D01*
X1919229Y-12023984D02*
X1909706Y-12119222D01*
X1909706Y-12119222D02*
X1919229Y-12109698D01*
X1919229Y-12109698D02*
X1938277Y-12100174D01*
X1938277Y-12100174D02*
X1985896Y-12100174D01*
X1985896Y-12100174D02*
X2004944Y-12109698D01*
X2004944Y-12109698D02*
X2014467Y-12119222D01*
X2014467Y-12119222D02*
X2023991Y-12138269D01*
X2023991Y-12138269D02*
X2023991Y-12185888D01*
X2023991Y-12185888D02*
X2014467Y-12204936D01*
X2014467Y-12204936D02*
X2004944Y-12214460D01*
X2004944Y-12214460D02*
X1985896Y-12223984D01*
X1985896Y-12223984D02*
X1938277Y-12223984D01*
X1938277Y-12223984D02*
X1919229Y-12214460D01*
X1919229Y-12214460D02*
X1909706Y-12204936D01*
X2090658Y-12023984D02*
X2223991Y-12023984D01*
X2223991Y-12023984D02*
X2138277Y-12223984D01*
X2338277Y-12023984D02*
X2357325Y-12023984D01*
X2357325Y-12023984D02*
X2376372Y-12033508D01*
X2376372Y-12033508D02*
X2385896Y-12043031D01*
X2385896Y-12043031D02*
X2395420Y-12062079D01*
X2395420Y-12062079D02*
X2404944Y-12100174D01*
X2404944Y-12100174D02*
X2404944Y-12147793D01*
X2404944Y-12147793D02*
X2395420Y-12185888D01*
X2395420Y-12185888D02*
X2385896Y-12204936D01*
X2385896Y-12204936D02*
X2376372Y-12214460D01*
X2376372Y-12214460D02*
X2357325Y-12223984D01*
X2357325Y-12223984D02*
X2338277Y-12223984D01*
X2338277Y-12223984D02*
X2319229Y-12214460D01*
X2319229Y-12214460D02*
X2309706Y-12204936D01*
X2309706Y-12204936D02*
X2300182Y-12185888D01*
X2300182Y-12185888D02*
X2290658Y-12147793D01*
X2290658Y-12147793D02*
X2290658Y-12100174D01*
X2290658Y-12100174D02*
X2300182Y-12062079D01*
X2300182Y-12062079D02*
X2309706Y-12043031D01*
X2309706Y-12043031D02*
X2319229Y-12033508D01*
X2319229Y-12033508D02*
X2338277Y-12023984D01*
X2481134Y-12023984D02*
X2481134Y-12062079D01*
X2557325Y-12023984D02*
X2557325Y-12062079D01*
X2852563Y-12300174D02*
X2843039Y-12290650D01*
X2843039Y-12290650D02*
X2823991Y-12262079D01*
X2823991Y-12262079D02*
X2814468Y-12243031D01*
X2814468Y-12243031D02*
X2804944Y-12214460D01*
X2804944Y-12214460D02*
X2795420Y-12166841D01*
X2795420Y-12166841D02*
X2795420Y-12128746D01*
X2795420Y-12128746D02*
X2804944Y-12081127D01*
X2804944Y-12081127D02*
X2814468Y-12052555D01*
X2814468Y-12052555D02*
X2823991Y-12033508D01*
X2823991Y-12033508D02*
X2843039Y-12004936D01*
X2843039Y-12004936D02*
X2852563Y-11995412D01*
X3033515Y-12223984D02*
X2919229Y-12223984D01*
X2976372Y-12223984D02*
X2976372Y-12023984D01*
X2976372Y-12023984D02*
X2957325Y-12052555D01*
X2957325Y-12052555D02*
X2938277Y-12071603D01*
X2938277Y-12071603D02*
X2919229Y-12081127D01*
X3157325Y-12023984D02*
X3176372Y-12023984D01*
X3176372Y-12023984D02*
X3195420Y-12033508D01*
X3195420Y-12033508D02*
X3204944Y-12043031D01*
X3204944Y-12043031D02*
X3214468Y-12062079D01*
X3214468Y-12062079D02*
X3223991Y-12100174D01*
X3223991Y-12100174D02*
X3223991Y-12147793D01*
X3223991Y-12147793D02*
X3214468Y-12185888D01*
X3214468Y-12185888D02*
X3204944Y-12204936D01*
X3204944Y-12204936D02*
X3195420Y-12214460D01*
X3195420Y-12214460D02*
X3176372Y-12223984D01*
X3176372Y-12223984D02*
X3157325Y-12223984D01*
X3157325Y-12223984D02*
X3138277Y-12214460D01*
X3138277Y-12214460D02*
X3128753Y-12204936D01*
X3128753Y-12204936D02*
X3119229Y-12185888D01*
X3119229Y-12185888D02*
X3109706Y-12147793D01*
X3109706Y-12147793D02*
X3109706Y-12100174D01*
X3109706Y-12100174D02*
X3119229Y-12062079D01*
X3119229Y-12062079D02*
X3128753Y-12043031D01*
X3128753Y-12043031D02*
X3138277Y-12033508D01*
X3138277Y-12033508D02*
X3157325Y-12023984D01*
X3462087Y-12223984D02*
X3462087Y-12023984D01*
X3547801Y-12223984D02*
X3547801Y-12119222D01*
X3547801Y-12119222D02*
X3538277Y-12100174D01*
X3538277Y-12100174D02*
X3519230Y-12090650D01*
X3519230Y-12090650D02*
X3490658Y-12090650D01*
X3490658Y-12090650D02*
X3471610Y-12100174D01*
X3471610Y-12100174D02*
X3462087Y-12109698D01*
X3671610Y-12223984D02*
X3652563Y-12214460D01*
X3652563Y-12214460D02*
X3643039Y-12204936D01*
X3643039Y-12204936D02*
X3633515Y-12185888D01*
X3633515Y-12185888D02*
X3633515Y-12128746D01*
X3633515Y-12128746D02*
X3643039Y-12109698D01*
X3643039Y-12109698D02*
X3652563Y-12100174D01*
X3652563Y-12100174D02*
X3671610Y-12090650D01*
X3671610Y-12090650D02*
X3700182Y-12090650D01*
X3700182Y-12090650D02*
X3719230Y-12100174D01*
X3719230Y-12100174D02*
X3728753Y-12109698D01*
X3728753Y-12109698D02*
X3738277Y-12128746D01*
X3738277Y-12128746D02*
X3738277Y-12185888D01*
X3738277Y-12185888D02*
X3728753Y-12204936D01*
X3728753Y-12204936D02*
X3719230Y-12214460D01*
X3719230Y-12214460D02*
X3700182Y-12223984D01*
X3700182Y-12223984D02*
X3671610Y-12223984D01*
X3852563Y-12223984D02*
X3833515Y-12214460D01*
X3833515Y-12214460D02*
X3823991Y-12195412D01*
X3823991Y-12195412D02*
X3823991Y-12023984D01*
X4004944Y-12214460D02*
X3985896Y-12223984D01*
X3985896Y-12223984D02*
X3947801Y-12223984D01*
X3947801Y-12223984D02*
X3928753Y-12214460D01*
X3928753Y-12214460D02*
X3919230Y-12195412D01*
X3919230Y-12195412D02*
X3919230Y-12119222D01*
X3919230Y-12119222D02*
X3928753Y-12100174D01*
X3928753Y-12100174D02*
X3947801Y-12090650D01*
X3947801Y-12090650D02*
X3985896Y-12090650D01*
X3985896Y-12090650D02*
X4004944Y-12100174D01*
X4004944Y-12100174D02*
X4014468Y-12119222D01*
X4014468Y-12119222D02*
X4014468Y-12138269D01*
X4014468Y-12138269D02*
X3919230Y-12157317D01*
X4090658Y-12214460D02*
X4109706Y-12223984D01*
X4109706Y-12223984D02*
X4147801Y-12223984D01*
X4147801Y-12223984D02*
X4166849Y-12214460D01*
X4166849Y-12214460D02*
X4176372Y-12195412D01*
X4176372Y-12195412D02*
X4176372Y-12185888D01*
X4176372Y-12185888D02*
X4166849Y-12166841D01*
X4166849Y-12166841D02*
X4147801Y-12157317D01*
X4147801Y-12157317D02*
X4119230Y-12157317D01*
X4119230Y-12157317D02*
X4100182Y-12147793D01*
X4100182Y-12147793D02*
X4090658Y-12128746D01*
X4090658Y-12128746D02*
X4090658Y-12119222D01*
X4090658Y-12119222D02*
X4100182Y-12100174D01*
X4100182Y-12100174D02*
X4119230Y-12090650D01*
X4119230Y-12090650D02*
X4147801Y-12090650D01*
X4147801Y-12090650D02*
X4166849Y-12100174D01*
X4243039Y-12300174D02*
X4252563Y-12290650D01*
X4252563Y-12290650D02*
X4271611Y-12262079D01*
X4271611Y-12262079D02*
X4281134Y-12243031D01*
X4281134Y-12243031D02*
X4290658Y-12214460D01*
X4290658Y-12214460D02*
X4300182Y-12166841D01*
X4300182Y-12166841D02*
X4300182Y-12128746D01*
X4300182Y-12128746D02*
X4290658Y-12081127D01*
X4290658Y-12081127D02*
X4281134Y-12052555D01*
X4281134Y-12052555D02*
X4271611Y-12033508D01*
X4271611Y-12033508D02*
X4252563Y-12004936D01*
X4252563Y-12004936D02*
X4243039Y-11995412D01*
X4604944Y-12300174D02*
X4595420Y-12290650D01*
X4595420Y-12290650D02*
X4576373Y-12262079D01*
X4576373Y-12262079D02*
X4566849Y-12243031D01*
X4566849Y-12243031D02*
X4557325Y-12214460D01*
X4557325Y-12214460D02*
X4547801Y-12166841D01*
X4547801Y-12166841D02*
X4547801Y-12128746D01*
X4547801Y-12128746D02*
X4557325Y-12081127D01*
X4557325Y-12081127D02*
X4566849Y-12052555D01*
X4566849Y-12052555D02*
X4576373Y-12033508D01*
X4576373Y-12033508D02*
X4595420Y-12004936D01*
X4595420Y-12004936D02*
X4604944Y-11995412D01*
X4681134Y-12090650D02*
X4681134Y-12223984D01*
X4681134Y-12109698D02*
X4690658Y-12100174D01*
X4690658Y-12100174D02*
X4709706Y-12090650D01*
X4709706Y-12090650D02*
X4738277Y-12090650D01*
X4738277Y-12090650D02*
X4757325Y-12100174D01*
X4757325Y-12100174D02*
X4766849Y-12119222D01*
X4766849Y-12119222D02*
X4766849Y-12223984D01*
X4890658Y-12223984D02*
X4871611Y-12214460D01*
X4871611Y-12214460D02*
X4862087Y-12204936D01*
X4862087Y-12204936D02*
X4852563Y-12185888D01*
X4852563Y-12185888D02*
X4852563Y-12128746D01*
X4852563Y-12128746D02*
X4862087Y-12109698D01*
X4862087Y-12109698D02*
X4871611Y-12100174D01*
X4871611Y-12100174D02*
X4890658Y-12090650D01*
X4890658Y-12090650D02*
X4919230Y-12090650D01*
X4919230Y-12090650D02*
X4938277Y-12100174D01*
X4938277Y-12100174D02*
X4947801Y-12109698D01*
X4947801Y-12109698D02*
X4957325Y-12128746D01*
X4957325Y-12128746D02*
X4957325Y-12185888D01*
X4957325Y-12185888D02*
X4947801Y-12204936D01*
X4947801Y-12204936D02*
X4938277Y-12214460D01*
X4938277Y-12214460D02*
X4919230Y-12223984D01*
X4919230Y-12223984D02*
X4890658Y-12223984D01*
X5014468Y-12090650D02*
X5090658Y-12090650D01*
X5043039Y-12023984D02*
X5043039Y-12195412D01*
X5043039Y-12195412D02*
X5052563Y-12214460D01*
X5052563Y-12214460D02*
X5071611Y-12223984D01*
X5071611Y-12223984D02*
X5090658Y-12223984D01*
X5309706Y-12090650D02*
X5309706Y-12290650D01*
X5309706Y-12100174D02*
X5328754Y-12090650D01*
X5328754Y-12090650D02*
X5366849Y-12090650D01*
X5366849Y-12090650D02*
X5385896Y-12100174D01*
X5385896Y-12100174D02*
X5395420Y-12109698D01*
X5395420Y-12109698D02*
X5404944Y-12128746D01*
X5404944Y-12128746D02*
X5404944Y-12185888D01*
X5404944Y-12185888D02*
X5395420Y-12204936D01*
X5395420Y-12204936D02*
X5385896Y-12214460D01*
X5385896Y-12214460D02*
X5366849Y-12223984D01*
X5366849Y-12223984D02*
X5328754Y-12223984D01*
X5328754Y-12223984D02*
X5309706Y-12214460D01*
X5519230Y-12223984D02*
X5500182Y-12214460D01*
X5500182Y-12214460D02*
X5490658Y-12195412D01*
X5490658Y-12195412D02*
X5490658Y-12023984D01*
X5681134Y-12223984D02*
X5681134Y-12119222D01*
X5681134Y-12119222D02*
X5671611Y-12100174D01*
X5671611Y-12100174D02*
X5652563Y-12090650D01*
X5652563Y-12090650D02*
X5614468Y-12090650D01*
X5614468Y-12090650D02*
X5595420Y-12100174D01*
X5681134Y-12214460D02*
X5662087Y-12223984D01*
X5662087Y-12223984D02*
X5614468Y-12223984D01*
X5614468Y-12223984D02*
X5595420Y-12214460D01*
X5595420Y-12214460D02*
X5585896Y-12195412D01*
X5585896Y-12195412D02*
X5585896Y-12176365D01*
X5585896Y-12176365D02*
X5595420Y-12157317D01*
X5595420Y-12157317D02*
X5614468Y-12147793D01*
X5614468Y-12147793D02*
X5662087Y-12147793D01*
X5662087Y-12147793D02*
X5681134Y-12138269D01*
X5747801Y-12090650D02*
X5823992Y-12090650D01*
X5776373Y-12023984D02*
X5776373Y-12195412D01*
X5776373Y-12195412D02*
X5785896Y-12214460D01*
X5785896Y-12214460D02*
X5804944Y-12223984D01*
X5804944Y-12223984D02*
X5823992Y-12223984D01*
X5966849Y-12214460D02*
X5947801Y-12223984D01*
X5947801Y-12223984D02*
X5909706Y-12223984D01*
X5909706Y-12223984D02*
X5890658Y-12214460D01*
X5890658Y-12214460D02*
X5881134Y-12195412D01*
X5881134Y-12195412D02*
X5881134Y-12119222D01*
X5881134Y-12119222D02*
X5890658Y-12100174D01*
X5890658Y-12100174D02*
X5909706Y-12090650D01*
X5909706Y-12090650D02*
X5947801Y-12090650D01*
X5947801Y-12090650D02*
X5966849Y-12100174D01*
X5966849Y-12100174D02*
X5976373Y-12119222D01*
X5976373Y-12119222D02*
X5976373Y-12138269D01*
X5976373Y-12138269D02*
X5881134Y-12157317D01*
X6147801Y-12223984D02*
X6147801Y-12023984D01*
X6147801Y-12214460D02*
X6128754Y-12223984D01*
X6128754Y-12223984D02*
X6090658Y-12223984D01*
X6090658Y-12223984D02*
X6071611Y-12214460D01*
X6071611Y-12214460D02*
X6062087Y-12204936D01*
X6062087Y-12204936D02*
X6052563Y-12185888D01*
X6052563Y-12185888D02*
X6052563Y-12128746D01*
X6052563Y-12128746D02*
X6062087Y-12109698D01*
X6062087Y-12109698D02*
X6071611Y-12100174D01*
X6071611Y-12100174D02*
X6090658Y-12090650D01*
X6090658Y-12090650D02*
X6128754Y-12090650D01*
X6128754Y-12090650D02*
X6147801Y-12100174D01*
X6223992Y-12300174D02*
X6233515Y-12290650D01*
X6233515Y-12290650D02*
X6252563Y-12262079D01*
X6252563Y-12262079D02*
X6262087Y-12243031D01*
X6262087Y-12243031D02*
X6271611Y-12214460D01*
X6271611Y-12214460D02*
X6281134Y-12166841D01*
X6281134Y-12166841D02*
X6281134Y-12128746D01*
X6281134Y-12128746D02*
X6271611Y-12081127D01*
X6271611Y-12081127D02*
X6262087Y-12052555D01*
X6262087Y-12052555D02*
X6252563Y-12033508D01*
X6252563Y-12033508D02*
X6233515Y-12004936D01*
X6233515Y-12004936D02*
X6223992Y-11995412D01*
X-751789Y-12523211D02*
X-751789Y-12381789D01*
X-893211Y-12381789D01*
X-893211Y-12523211D01*
X-751789Y-12523211D01*
X-376009Y-12410650D02*
X-376009Y-12543984D01*
X-423628Y-12334460D02*
X-471247Y-12477317D01*
X-471247Y-12477317D02*
X-347437Y-12477317D01*
X-271247Y-12524936D02*
X-261723Y-12534460D01*
X-261723Y-12534460D02*
X-271247Y-12543984D01*
X-271247Y-12543984D02*
X-280771Y-12534460D01*
X-280771Y-12534460D02*
X-271247Y-12524936D01*
X-271247Y-12524936D02*
X-271247Y-12543984D01*
X-137914Y-12343984D02*
X-118866Y-12343984D01*
X-118866Y-12343984D02*
X-99818Y-12353508D01*
X-99818Y-12353508D02*
X-90294Y-12363031D01*
X-90294Y-12363031D02*
X-80771Y-12382079D01*
X-80771Y-12382079D02*
X-71247Y-12420174D01*
X-71247Y-12420174D02*
X-71247Y-12467793D01*
X-71247Y-12467793D02*
X-80771Y-12505888D01*
X-80771Y-12505888D02*
X-90294Y-12524936D01*
X-90294Y-12524936D02*
X-99818Y-12534460D01*
X-99818Y-12534460D02*
X-118866Y-12543984D01*
X-118866Y-12543984D02*
X-137914Y-12543984D01*
X-137914Y-12543984D02*
X-156961Y-12534460D01*
X-156961Y-12534460D02*
X-166485Y-12524936D01*
X-166485Y-12524936D02*
X-176009Y-12505888D01*
X-176009Y-12505888D02*
X-185533Y-12467793D01*
X-185533Y-12467793D02*
X-185533Y-12420174D01*
X-185533Y-12420174D02*
X-176009Y-12382079D01*
X-176009Y-12382079D02*
X-166485Y-12363031D01*
X-166485Y-12363031D02*
X-156961Y-12353508D01*
X-156961Y-12353508D02*
X-137914Y-12343984D01*
X52562Y-12343984D02*
X71610Y-12343984D01*
X71610Y-12343984D02*
X90658Y-12353508D01*
X90658Y-12353508D02*
X100182Y-12363031D01*
X100182Y-12363031D02*
X109705Y-12382079D01*
X109705Y-12382079D02*
X119229Y-12420174D01*
X119229Y-12420174D02*
X119229Y-12467793D01*
X119229Y-12467793D02*
X109705Y-12505888D01*
X109705Y-12505888D02*
X100182Y-12524936D01*
X100182Y-12524936D02*
X90658Y-12534460D01*
X90658Y-12534460D02*
X71610Y-12543984D01*
X71610Y-12543984D02*
X52562Y-12543984D01*
X52562Y-12543984D02*
X33515Y-12534460D01*
X33515Y-12534460D02*
X23991Y-12524936D01*
X23991Y-12524936D02*
X14467Y-12505888D01*
X14467Y-12505888D02*
X4944Y-12467793D01*
X4944Y-12467793D02*
X4944Y-12420174D01*
X4944Y-12420174D02*
X14467Y-12382079D01*
X14467Y-12382079D02*
X23991Y-12363031D01*
X23991Y-12363031D02*
X33515Y-12353508D01*
X33515Y-12353508D02*
X52562Y-12343984D01*
X243039Y-12343984D02*
X262086Y-12343984D01*
X262086Y-12343984D02*
X281134Y-12353508D01*
X281134Y-12353508D02*
X290658Y-12363031D01*
X290658Y-12363031D02*
X300182Y-12382079D01*
X300182Y-12382079D02*
X309705Y-12420174D01*
X309705Y-12420174D02*
X309705Y-12467793D01*
X309705Y-12467793D02*
X300182Y-12505888D01*
X300182Y-12505888D02*
X290658Y-12524936D01*
X290658Y-12524936D02*
X281134Y-12534460D01*
X281134Y-12534460D02*
X262086Y-12543984D01*
X262086Y-12543984D02*
X243039Y-12543984D01*
X243039Y-12543984D02*
X223991Y-12534460D01*
X223991Y-12534460D02*
X214467Y-12524936D01*
X214467Y-12524936D02*
X204943Y-12505888D01*
X204943Y-12505888D02*
X195420Y-12467793D01*
X195420Y-12467793D02*
X195420Y-12420174D01*
X195420Y-12420174D02*
X204943Y-12382079D01*
X204943Y-12382079D02*
X214467Y-12363031D01*
X214467Y-12363031D02*
X223991Y-12353508D01*
X223991Y-12353508D02*
X243039Y-12343984D01*
X395420Y-12543984D02*
X395420Y-12410650D01*
X395420Y-12429698D02*
X404943Y-12420174D01*
X404943Y-12420174D02*
X423991Y-12410650D01*
X423991Y-12410650D02*
X452563Y-12410650D01*
X452563Y-12410650D02*
X471610Y-12420174D01*
X471610Y-12420174D02*
X481134Y-12439222D01*
X481134Y-12439222D02*
X481134Y-12543984D01*
X481134Y-12439222D02*
X490658Y-12420174D01*
X490658Y-12420174D02*
X509705Y-12410650D01*
X509705Y-12410650D02*
X538277Y-12410650D01*
X538277Y-12410650D02*
X557325Y-12420174D01*
X557325Y-12420174D02*
X566848Y-12439222D01*
X566848Y-12439222D02*
X566848Y-12543984D01*
X662086Y-12543984D02*
X662086Y-12410650D01*
X662086Y-12429698D02*
X671610Y-12420174D01*
X671610Y-12420174D02*
X690658Y-12410650D01*
X690658Y-12410650D02*
X719229Y-12410650D01*
X719229Y-12410650D02*
X738277Y-12420174D01*
X738277Y-12420174D02*
X747801Y-12439222D01*
X747801Y-12439222D02*
X747801Y-12543984D01*
X747801Y-12439222D02*
X757324Y-12420174D01*
X757324Y-12420174D02*
X776372Y-12410650D01*
X776372Y-12410650D02*
X804943Y-12410650D01*
X804943Y-12410650D02*
X823991Y-12420174D01*
X823991Y-12420174D02*
X833515Y-12439222D01*
X833515Y-12439222D02*
X833515Y-12543984D01*
X1223991Y-12334460D02*
X1052563Y-12591603D01*
X1481134Y-12343984D02*
X1500182Y-12343984D01*
X1500182Y-12343984D02*
X1519229Y-12353508D01*
X1519229Y-12353508D02*
X1528753Y-12363031D01*
X1528753Y-12363031D02*
X1538277Y-12382079D01*
X1538277Y-12382079D02*
X1547801Y-12420174D01*
X1547801Y-12420174D02*
X1547801Y-12467793D01*
X1547801Y-12467793D02*
X1538277Y-12505888D01*
X1538277Y-12505888D02*
X1528753Y-12524936D01*
X1528753Y-12524936D02*
X1519229Y-12534460D01*
X1519229Y-12534460D02*
X1500182Y-12543984D01*
X1500182Y-12543984D02*
X1481134Y-12543984D01*
X1481134Y-12543984D02*
X1462086Y-12534460D01*
X1462086Y-12534460D02*
X1452563Y-12524936D01*
X1452563Y-12524936D02*
X1443039Y-12505888D01*
X1443039Y-12505888D02*
X1433515Y-12467793D01*
X1433515Y-12467793D02*
X1433515Y-12420174D01*
X1433515Y-12420174D02*
X1443039Y-12382079D01*
X1443039Y-12382079D02*
X1452563Y-12363031D01*
X1452563Y-12363031D02*
X1462086Y-12353508D01*
X1462086Y-12353508D02*
X1481134Y-12343984D01*
X1633515Y-12524936D02*
X1643039Y-12534460D01*
X1643039Y-12534460D02*
X1633515Y-12543984D01*
X1633515Y-12543984D02*
X1623991Y-12534460D01*
X1623991Y-12534460D02*
X1633515Y-12524936D01*
X1633515Y-12524936D02*
X1633515Y-12543984D01*
X1833515Y-12543984D02*
X1719229Y-12543984D01*
X1776372Y-12543984D02*
X1776372Y-12343984D01*
X1776372Y-12343984D02*
X1757325Y-12372555D01*
X1757325Y-12372555D02*
X1738277Y-12391603D01*
X1738277Y-12391603D02*
X1719229Y-12401127D01*
X2014467Y-12343984D02*
X1919229Y-12343984D01*
X1919229Y-12343984D02*
X1909706Y-12439222D01*
X1909706Y-12439222D02*
X1919229Y-12429698D01*
X1919229Y-12429698D02*
X1938277Y-12420174D01*
X1938277Y-12420174D02*
X1985896Y-12420174D01*
X1985896Y-12420174D02*
X2004944Y-12429698D01*
X2004944Y-12429698D02*
X2014467Y-12439222D01*
X2014467Y-12439222D02*
X2023991Y-12458269D01*
X2023991Y-12458269D02*
X2023991Y-12505888D01*
X2023991Y-12505888D02*
X2014467Y-12524936D01*
X2014467Y-12524936D02*
X2004944Y-12534460D01*
X2004944Y-12534460D02*
X1985896Y-12543984D01*
X1985896Y-12543984D02*
X1938277Y-12543984D01*
X1938277Y-12543984D02*
X1919229Y-12534460D01*
X1919229Y-12534460D02*
X1909706Y-12524936D01*
X2090658Y-12343984D02*
X2223991Y-12343984D01*
X2223991Y-12343984D02*
X2138277Y-12543984D01*
X2395420Y-12343984D02*
X2300182Y-12343984D01*
X2300182Y-12343984D02*
X2290658Y-12439222D01*
X2290658Y-12439222D02*
X2300182Y-12429698D01*
X2300182Y-12429698D02*
X2319229Y-12420174D01*
X2319229Y-12420174D02*
X2366849Y-12420174D01*
X2366849Y-12420174D02*
X2385896Y-12429698D01*
X2385896Y-12429698D02*
X2395420Y-12439222D01*
X2395420Y-12439222D02*
X2404944Y-12458269D01*
X2404944Y-12458269D02*
X2404944Y-12505888D01*
X2404944Y-12505888D02*
X2395420Y-12524936D01*
X2395420Y-12524936D02*
X2385896Y-12534460D01*
X2385896Y-12534460D02*
X2366849Y-12543984D01*
X2366849Y-12543984D02*
X2319229Y-12543984D01*
X2319229Y-12543984D02*
X2300182Y-12534460D01*
X2300182Y-12534460D02*
X2290658Y-12524936D01*
X2481134Y-12343984D02*
X2481134Y-12382079D01*
X2557325Y-12343984D02*
X2557325Y-12382079D01*
X2852563Y-12620174D02*
X2843039Y-12610650D01*
X2843039Y-12610650D02*
X2823991Y-12582079D01*
X2823991Y-12582079D02*
X2814468Y-12563031D01*
X2814468Y-12563031D02*
X2804944Y-12534460D01*
X2804944Y-12534460D02*
X2795420Y-12486841D01*
X2795420Y-12486841D02*
X2795420Y-12448746D01*
X2795420Y-12448746D02*
X2804944Y-12401127D01*
X2804944Y-12401127D02*
X2814468Y-12372555D01*
X2814468Y-12372555D02*
X2823991Y-12353508D01*
X2823991Y-12353508D02*
X2843039Y-12324936D01*
X2843039Y-12324936D02*
X2852563Y-12315412D01*
X3033515Y-12543984D02*
X2919229Y-12543984D01*
X2976372Y-12543984D02*
X2976372Y-12343984D01*
X2976372Y-12343984D02*
X2957325Y-12372555D01*
X2957325Y-12372555D02*
X2938277Y-12391603D01*
X2938277Y-12391603D02*
X2919229Y-12401127D01*
X3157325Y-12343984D02*
X3176372Y-12343984D01*
X3176372Y-12343984D02*
X3195420Y-12353508D01*
X3195420Y-12353508D02*
X3204944Y-12363031D01*
X3204944Y-12363031D02*
X3214468Y-12382079D01*
X3214468Y-12382079D02*
X3223991Y-12420174D01*
X3223991Y-12420174D02*
X3223991Y-12467793D01*
X3223991Y-12467793D02*
X3214468Y-12505888D01*
X3214468Y-12505888D02*
X3204944Y-12524936D01*
X3204944Y-12524936D02*
X3195420Y-12534460D01*
X3195420Y-12534460D02*
X3176372Y-12543984D01*
X3176372Y-12543984D02*
X3157325Y-12543984D01*
X3157325Y-12543984D02*
X3138277Y-12534460D01*
X3138277Y-12534460D02*
X3128753Y-12524936D01*
X3128753Y-12524936D02*
X3119229Y-12505888D01*
X3119229Y-12505888D02*
X3109706Y-12467793D01*
X3109706Y-12467793D02*
X3109706Y-12420174D01*
X3109706Y-12420174D02*
X3119229Y-12382079D01*
X3119229Y-12382079D02*
X3128753Y-12363031D01*
X3128753Y-12363031D02*
X3138277Y-12353508D01*
X3138277Y-12353508D02*
X3157325Y-12343984D01*
X3300182Y-12363031D02*
X3309706Y-12353508D01*
X3309706Y-12353508D02*
X3328753Y-12343984D01*
X3328753Y-12343984D02*
X3376372Y-12343984D01*
X3376372Y-12343984D02*
X3395420Y-12353508D01*
X3395420Y-12353508D02*
X3404944Y-12363031D01*
X3404944Y-12363031D02*
X3414468Y-12382079D01*
X3414468Y-12382079D02*
X3414468Y-12401127D01*
X3414468Y-12401127D02*
X3404944Y-12429698D01*
X3404944Y-12429698D02*
X3290658Y-12543984D01*
X3290658Y-12543984D02*
X3414468Y-12543984D01*
X3652563Y-12543984D02*
X3652563Y-12343984D01*
X3738277Y-12543984D02*
X3738277Y-12439222D01*
X3738277Y-12439222D02*
X3728753Y-12420174D01*
X3728753Y-12420174D02*
X3709706Y-12410650D01*
X3709706Y-12410650D02*
X3681134Y-12410650D01*
X3681134Y-12410650D02*
X3662087Y-12420174D01*
X3662087Y-12420174D02*
X3652563Y-12429698D01*
X3862087Y-12543984D02*
X3843039Y-12534460D01*
X3843039Y-12534460D02*
X3833515Y-12524936D01*
X3833515Y-12524936D02*
X3823991Y-12505888D01*
X3823991Y-12505888D02*
X3823991Y-12448746D01*
X3823991Y-12448746D02*
X3833515Y-12429698D01*
X3833515Y-12429698D02*
X3843039Y-12420174D01*
X3843039Y-12420174D02*
X3862087Y-12410650D01*
X3862087Y-12410650D02*
X3890658Y-12410650D01*
X3890658Y-12410650D02*
X3909706Y-12420174D01*
X3909706Y-12420174D02*
X3919230Y-12429698D01*
X3919230Y-12429698D02*
X3928753Y-12448746D01*
X3928753Y-12448746D02*
X3928753Y-12505888D01*
X3928753Y-12505888D02*
X3919230Y-12524936D01*
X3919230Y-12524936D02*
X3909706Y-12534460D01*
X3909706Y-12534460D02*
X3890658Y-12543984D01*
X3890658Y-12543984D02*
X3862087Y-12543984D01*
X4043039Y-12543984D02*
X4023991Y-12534460D01*
X4023991Y-12534460D02*
X4014468Y-12515412D01*
X4014468Y-12515412D02*
X4014468Y-12343984D01*
X4195420Y-12534460D02*
X4176372Y-12543984D01*
X4176372Y-12543984D02*
X4138277Y-12543984D01*
X4138277Y-12543984D02*
X4119230Y-12534460D01*
X4119230Y-12534460D02*
X4109706Y-12515412D01*
X4109706Y-12515412D02*
X4109706Y-12439222D01*
X4109706Y-12439222D02*
X4119230Y-12420174D01*
X4119230Y-12420174D02*
X4138277Y-12410650D01*
X4138277Y-12410650D02*
X4176372Y-12410650D01*
X4176372Y-12410650D02*
X4195420Y-12420174D01*
X4195420Y-12420174D02*
X4204944Y-12439222D01*
X4204944Y-12439222D02*
X4204944Y-12458269D01*
X4204944Y-12458269D02*
X4109706Y-12477317D01*
X4281134Y-12534460D02*
X4300182Y-12543984D01*
X4300182Y-12543984D02*
X4338277Y-12543984D01*
X4338277Y-12543984D02*
X4357325Y-12534460D01*
X4357325Y-12534460D02*
X4366849Y-12515412D01*
X4366849Y-12515412D02*
X4366849Y-12505888D01*
X4366849Y-12505888D02*
X4357325Y-12486841D01*
X4357325Y-12486841D02*
X4338277Y-12477317D01*
X4338277Y-12477317D02*
X4309706Y-12477317D01*
X4309706Y-12477317D02*
X4290658Y-12467793D01*
X4290658Y-12467793D02*
X4281134Y-12448746D01*
X4281134Y-12448746D02*
X4281134Y-12439222D01*
X4281134Y-12439222D02*
X4290658Y-12420174D01*
X4290658Y-12420174D02*
X4309706Y-12410650D01*
X4309706Y-12410650D02*
X4338277Y-12410650D01*
X4338277Y-12410650D02*
X4357325Y-12420174D01*
X4433515Y-12620174D02*
X4443039Y-12610650D01*
X4443039Y-12610650D02*
X4462087Y-12582079D01*
X4462087Y-12582079D02*
X4471611Y-12563031D01*
X4471611Y-12563031D02*
X4481134Y-12534460D01*
X4481134Y-12534460D02*
X4490658Y-12486841D01*
X4490658Y-12486841D02*
X4490658Y-12448746D01*
X4490658Y-12448746D02*
X4481134Y-12401127D01*
X4481134Y-12401127D02*
X4471611Y-12372555D01*
X4471611Y-12372555D02*
X4462087Y-12353508D01*
X4462087Y-12353508D02*
X4443039Y-12324936D01*
X4443039Y-12324936D02*
X4433515Y-12315412D01*
X4795420Y-12620174D02*
X4785896Y-12610650D01*
X4785896Y-12610650D02*
X4766849Y-12582079D01*
X4766849Y-12582079D02*
X4757325Y-12563031D01*
X4757325Y-12563031D02*
X4747801Y-12534460D01*
X4747801Y-12534460D02*
X4738277Y-12486841D01*
X4738277Y-12486841D02*
X4738277Y-12448746D01*
X4738277Y-12448746D02*
X4747801Y-12401127D01*
X4747801Y-12401127D02*
X4757325Y-12372555D01*
X4757325Y-12372555D02*
X4766849Y-12353508D01*
X4766849Y-12353508D02*
X4785896Y-12324936D01*
X4785896Y-12324936D02*
X4795420Y-12315412D01*
X4871611Y-12410650D02*
X4871611Y-12543984D01*
X4871611Y-12429698D02*
X4881134Y-12420174D01*
X4881134Y-12420174D02*
X4900182Y-12410650D01*
X4900182Y-12410650D02*
X4928754Y-12410650D01*
X4928754Y-12410650D02*
X4947801Y-12420174D01*
X4947801Y-12420174D02*
X4957325Y-12439222D01*
X4957325Y-12439222D02*
X4957325Y-12543984D01*
X5081134Y-12543984D02*
X5062087Y-12534460D01*
X5062087Y-12534460D02*
X5052563Y-12524936D01*
X5052563Y-12524936D02*
X5043039Y-12505888D01*
X5043039Y-12505888D02*
X5043039Y-12448746D01*
X5043039Y-12448746D02*
X5052563Y-12429698D01*
X5052563Y-12429698D02*
X5062087Y-12420174D01*
X5062087Y-12420174D02*
X5081134Y-12410650D01*
X5081134Y-12410650D02*
X5109706Y-12410650D01*
X5109706Y-12410650D02*
X5128754Y-12420174D01*
X5128754Y-12420174D02*
X5138277Y-12429698D01*
X5138277Y-12429698D02*
X5147801Y-12448746D01*
X5147801Y-12448746D02*
X5147801Y-12505888D01*
X5147801Y-12505888D02*
X5138277Y-12524936D01*
X5138277Y-12524936D02*
X5128754Y-12534460D01*
X5128754Y-12534460D02*
X5109706Y-12543984D01*
X5109706Y-12543984D02*
X5081134Y-12543984D01*
X5204944Y-12410650D02*
X5281134Y-12410650D01*
X5233515Y-12343984D02*
X5233515Y-12515412D01*
X5233515Y-12515412D02*
X5243039Y-12534460D01*
X5243039Y-12534460D02*
X5262087Y-12543984D01*
X5262087Y-12543984D02*
X5281134Y-12543984D01*
X5500182Y-12410650D02*
X5500182Y-12610650D01*
X5500182Y-12420174D02*
X5519230Y-12410650D01*
X5519230Y-12410650D02*
X5557325Y-12410650D01*
X5557325Y-12410650D02*
X5576373Y-12420174D01*
X5576373Y-12420174D02*
X5585896Y-12429698D01*
X5585896Y-12429698D02*
X5595420Y-12448746D01*
X5595420Y-12448746D02*
X5595420Y-12505888D01*
X5595420Y-12505888D02*
X5585896Y-12524936D01*
X5585896Y-12524936D02*
X5576373Y-12534460D01*
X5576373Y-12534460D02*
X5557325Y-12543984D01*
X5557325Y-12543984D02*
X5519230Y-12543984D01*
X5519230Y-12543984D02*
X5500182Y-12534460D01*
X5709706Y-12543984D02*
X5690658Y-12534460D01*
X5690658Y-12534460D02*
X5681134Y-12515412D01*
X5681134Y-12515412D02*
X5681134Y-12343984D01*
X5871611Y-12543984D02*
X5871611Y-12439222D01*
X5871611Y-12439222D02*
X5862087Y-12420174D01*
X5862087Y-12420174D02*
X5843039Y-12410650D01*
X5843039Y-12410650D02*
X5804944Y-12410650D01*
X5804944Y-12410650D02*
X5785896Y-12420174D01*
X5871611Y-12534460D02*
X5852563Y-12543984D01*
X5852563Y-12543984D02*
X5804944Y-12543984D01*
X5804944Y-12543984D02*
X5785896Y-12534460D01*
X5785896Y-12534460D02*
X5776373Y-12515412D01*
X5776373Y-12515412D02*
X5776373Y-12496365D01*
X5776373Y-12496365D02*
X5785896Y-12477317D01*
X5785896Y-12477317D02*
X5804944Y-12467793D01*
X5804944Y-12467793D02*
X5852563Y-12467793D01*
X5852563Y-12467793D02*
X5871611Y-12458269D01*
X5938277Y-12410650D02*
X6014468Y-12410650D01*
X5966849Y-12343984D02*
X5966849Y-12515412D01*
X5966849Y-12515412D02*
X5976373Y-12534460D01*
X5976373Y-12534460D02*
X5995420Y-12543984D01*
X5995420Y-12543984D02*
X6014468Y-12543984D01*
X6157325Y-12534460D02*
X6138277Y-12543984D01*
X6138277Y-12543984D02*
X6100182Y-12543984D01*
X6100182Y-12543984D02*
X6081134Y-12534460D01*
X6081134Y-12534460D02*
X6071611Y-12515412D01*
X6071611Y-12515412D02*
X6071611Y-12439222D01*
X6071611Y-12439222D02*
X6081134Y-12420174D01*
X6081134Y-12420174D02*
X6100182Y-12410650D01*
X6100182Y-12410650D02*
X6138277Y-12410650D01*
X6138277Y-12410650D02*
X6157325Y-12420174D01*
X6157325Y-12420174D02*
X6166849Y-12439222D01*
X6166849Y-12439222D02*
X6166849Y-12458269D01*
X6166849Y-12458269D02*
X6071611Y-12477317D01*
X6338277Y-12543984D02*
X6338277Y-12343984D01*
X6338277Y-12534460D02*
X6319230Y-12543984D01*
X6319230Y-12543984D02*
X6281134Y-12543984D01*
X6281134Y-12543984D02*
X6262087Y-12534460D01*
X6262087Y-12534460D02*
X6252563Y-12524936D01*
X6252563Y-12524936D02*
X6243039Y-12505888D01*
X6243039Y-12505888D02*
X6243039Y-12448746D01*
X6243039Y-12448746D02*
X6252563Y-12429698D01*
X6252563Y-12429698D02*
X6262087Y-12420174D01*
X6262087Y-12420174D02*
X6281134Y-12410650D01*
X6281134Y-12410650D02*
X6319230Y-12410650D01*
X6319230Y-12410650D02*
X6338277Y-12420174D01*
X6414468Y-12620174D02*
X6423992Y-12610650D01*
X6423992Y-12610650D02*
X6443039Y-12582079D01*
X6443039Y-12582079D02*
X6452563Y-12563031D01*
X6452563Y-12563031D02*
X6462087Y-12534460D01*
X6462087Y-12534460D02*
X6471611Y-12486841D01*
X6471611Y-12486841D02*
X6471611Y-12448746D01*
X6471611Y-12448746D02*
X6462087Y-12401127D01*
X6462087Y-12401127D02*
X6452563Y-12372555D01*
X6452563Y-12372555D02*
X6443039Y-12353508D01*
X6443039Y-12353508D02*
X6423992Y-12324936D01*
X6423992Y-12324936D02*
X6414468Y-12315412D01*
M02*
