%TF.GenerationSoftware,KiCad,Pcbnew,8.99.0-2194-gb3b7cbcab2*%
%TF.CreationDate,2024-09-18T03:27:03+07:00*%
%TF.ProjectId,Sebas_nuxros,53656261-735f-46e7-9578-726f732e6b69,rev?*%
%TF.SameCoordinates,Original*%
%TF.FileFunction,Profile,NP*%
%FSLAX46Y46*%
G04 Gerber Fmt 4.6, Leading zero omitted, Abs format (unit mm)*
G04 Created by KiCad (PCBNEW 8.99.0-2194-gb3b7cbcab2) date 2024-09-18 03:27:03*
%MOMM*%
%LPD*%
G01*
G04 APERTURE LIST*
%TA.AperFunction,Profile*%
%ADD10C,0.500000*%
%TD*%
%TA.AperFunction,Profile*%
%ADD11C,0.050000*%
%TD*%
%TA.AperFunction,Profile*%
%ADD12C,0.100000*%
%TD*%
G04 APERTURE END LIST*
D10*
X481539668Y122103399D02*
X481710220Y122335931D01*
X392228691Y121520348D02*
X392474011Y121799867D01*
X388592537Y29543121D02*
X388390352Y29337773D01*
X615823608Y29337803D02*
X615621426Y29543157D01*
X650662434Y31019863D02*
X650341935Y30831509D01*
X393812752Y122957305D02*
X394094326Y123019214D01*
X392997951Y31173093D02*
X392644939Y31289602D01*
D11*
X415527000Y46910000D02*
X414827000Y46910000D01*
X648127000Y47410000D02*
X650527000Y47410000D01*
D10*
X655406576Y29543143D02*
X655236016Y29775436D01*
X627521247Y120741266D02*
X627883800Y120841113D01*
X648708329Y122716077D02*
X648937974Y122541779D01*
D11*
X630527000Y46910000D02*
X627627000Y46910000D01*
D10*
X612301993Y31407516D02*
X611932342Y31368087D01*
D11*
X636029502Y46910000D02*
X632727000Y46910000D01*
D10*
X642767597Y28922612D02*
X642497945Y29024276D01*
X635115040Y29163624D02*
X634862796Y29024263D01*
X412695207Y123039997D02*
X412970744Y123020935D01*
X481706531Y29543153D02*
X481535954Y29775418D01*
X609984503Y30358507D02*
X609739186Y30079193D01*
X470286556Y122957303D02*
X470556368Y122855502D01*
X662349514Y123039997D02*
X662634145Y123019661D01*
X648937974Y122541779D02*
X649140174Y122336276D01*
X407898166Y94406182D02*
G75*
G02*
X402698166Y94406182I-2600000J0D01*
G01*
X402698166Y94406182D02*
G75*
G02*
X407898166Y94406182I2600000J0D01*
G01*
X429900593Y31019864D02*
X429580094Y30831510D01*
X468943462Y28839997D02*
X436167311Y28839997D01*
X573134913Y30095387D02*
X572873377Y30387904D01*
X400949996Y28860754D02*
X400662562Y28839997D01*
X662912977Y28921014D02*
X662634143Y28860356D01*
X469512351Y28922626D02*
X469230891Y28860767D01*
X429580094Y30831510D02*
X429281381Y30610226D01*
X481535954Y29775418D02*
X481308783Y30095344D01*
X653307039Y104475000D02*
G75*
G02*
X648107039Y104475000I-2600000J0D01*
G01*
X648107039Y104475000D02*
G75*
G02*
X653307039Y104475000I2600000J0D01*
G01*
X393955820Y30610175D02*
X393657110Y30831452D01*
X564267190Y120660901D02*
X564644480Y120552163D01*
D11*
X656427000Y47410000D02*
X664327000Y47310000D01*
D10*
X610258061Y30610226D02*
X609984503Y30358507D01*
X471737947Y30876310D02*
X471417897Y30649306D01*
X624122214Y121877049D02*
X624382531Y121605665D01*
X392644939Y31289602D02*
X392281561Y31368013D01*
X429007823Y30358507D02*
X428762506Y30079193D01*
X637408441Y31173161D02*
X637069773Y31019863D01*
X380339781Y122551497D02*
X380568221Y122722505D01*
X611932342Y31368087D02*
X611568958Y31289674D01*
D11*
X400281905Y47409249D02*
G75*
G02*
X406351980Y47409997I3035095J-464949D01*
G01*
D10*
X428548198Y29775436D02*
X428377621Y29543164D01*
X402355698Y29775436D02*
X402185153Y29543139D01*
X381364872Y123019640D02*
X381649502Y123039997D01*
X561856929Y122715952D02*
X562086603Y122541560D01*
X481710220Y122335931D02*
X481912428Y122541529D01*
X634593141Y28922602D02*
X634311675Y28860752D01*
X420106194Y122174795D02*
X420278218Y122390879D01*
X391540174Y31407440D02*
X391170529Y31368013D01*
X663659229Y29328503D02*
X663430791Y29157495D01*
X431697061Y31407516D02*
X431325313Y31407516D01*
X616856561Y28860757D02*
X616575097Y28922612D01*
X574216659Y29024282D02*
X573964417Y29163642D01*
D11*
X410227000Y46910000D02*
X408027000Y46910000D01*
D10*
X390643793Y120588443D02*
X390996943Y120705052D01*
D11*
X420252000Y54135000D02*
G75*
G02*
X420252000Y59560000I0J2712500D01*
G01*
D10*
X404399778Y31289674D02*
X404046761Y31173161D01*
D11*
X414627000Y47410000D02*
X415527000Y47410000D01*
D10*
X626027887Y120741266D02*
X626399059Y120680893D01*
X427693601Y29024291D02*
X427423951Y28922626D01*
D11*
X406367203Y46910000D02*
G75*
G02*
X400266797Y46909998I-3050203J34300D01*
G01*
X424127000Y47410000D02*
X426529502Y47419997D01*
D10*
X562947958Y121490214D02*
X563240661Y121228496D01*
X385636269Y122957336D02*
X385906019Y122855584D01*
X481051023Y121490240D02*
X481312569Y121783094D01*
X471038407Y122541563D02*
X471240611Y122335953D01*
X651001102Y31173161D02*
X650662434Y31019863D01*
X565034305Y31390430D02*
X564647468Y31324727D01*
X394381875Y123039997D02*
X412695207Y123039997D01*
X405504561Y31407516D02*
X405132813Y31407516D01*
X482945910Y123019199D02*
X483233532Y123039997D01*
X405874211Y31368087D02*
X405504561Y31407516D01*
X613406775Y31289674D02*
X613043391Y31368087D01*
X435328766Y29024285D02*
X435076524Y29163644D01*
X386590178Y122336286D02*
X386760726Y122103838D01*
X381364873Y28860365D02*
X381086038Y28921021D01*
X572099242Y121490219D02*
X572360781Y121783081D01*
X562086603Y122541560D02*
X562288807Y122335950D01*
X630253307Y122742082D02*
X630497814Y122870535D01*
X628566453Y121154174D02*
X628878673Y121363776D01*
D11*
X636027000Y38110000D02*
X636527000Y38110000D01*
D10*
X573532639Y29543158D02*
X573362068Y29775436D01*
X573362068Y29775436D02*
X573134913Y30095387D01*
X651717503Y31368086D02*
X651354119Y31289673D01*
X662634143Y28860356D02*
X662349514Y28839997D01*
X483229079Y28839997D02*
X482941655Y28860793D01*
X563244401Y30649267D02*
X562951777Y30387866D01*
X623295818Y122742065D02*
X623520297Y122581156D01*
X563904454Y120811213D02*
X564267190Y120660901D01*
X655408823Y122336296D02*
X655611021Y122541808D01*
X434846928Y29337807D02*
X434644746Y29543159D01*
X664032024Y122121286D02*
X664168781Y121870832D01*
X608119175Y28860752D02*
X607831742Y28839997D01*
D11*
X636027000Y39510000D02*
X636527000Y39510000D01*
D10*
X563564446Y30876270D02*
X563244401Y30649267D01*
X434014551Y30358507D02*
X433740993Y30610226D01*
X654778694Y121520348D02*
X655024014Y121799867D01*
D11*
X419227000Y47410000D02*
X419227000Y46910000D01*
D10*
X406590613Y31173162D02*
X406237595Y31289674D01*
X421207256Y122964094D02*
X421477542Y123020936D01*
X622245630Y123039997D02*
X622521164Y123020909D01*
X622791443Y122964058D02*
X623051313Y122870516D01*
D11*
X617529502Y46910000D02*
X621727000Y46910000D01*
D10*
X392474011Y121799867D02*
X392688287Y122103838D01*
X572580741Y30649307D02*
X572260684Y30876312D01*
X404046761Y31173161D02*
X403708093Y31019864D01*
X630497814Y122870535D02*
X630757686Y122964078D01*
X636029502Y30190565D02*
X635931686Y30079193D01*
X662349514Y28839997D02*
X657929502Y28839997D01*
X570780019Y120660897D02*
X571142755Y120811208D01*
X656090589Y29024230D02*
X655838345Y29163599D01*
X408281675Y29775436D02*
X408067368Y30079194D01*
X401982966Y29337786D02*
X401753366Y29163622D01*
X379627000Y47410000D02*
X379649502Y121039997D01*
X405132813Y31407516D02*
X404763162Y31368087D01*
X380339783Y29328505D02*
X380138006Y29530281D01*
X664168770Y30009170D02*
X664032013Y29758719D01*
X618763775Y56858737D02*
G75*
G02*
X613463775Y56858737I-2650000J0D01*
G01*
X613463775Y56858737D02*
G75*
G02*
X618763775Y56858737I2650000J0D01*
G01*
X396032000Y104475000D02*
G75*
G02*
X390732000Y104475000I-2650000J0D01*
G01*
X390732000Y104475000D02*
G75*
G02*
X396032000Y104475000I2650000J0D01*
G01*
X629828659Y122390863D02*
X630028829Y122581168D01*
X647617141Y123039997D02*
X647904690Y123019205D01*
X663430791Y29157495D02*
X663180340Y29020737D01*
X470034242Y29163652D02*
X469782001Y29024291D01*
X420478388Y122581187D02*
X420702869Y122742102D01*
D11*
X398927000Y46910000D02*
X398927000Y47410000D01*
D10*
X389222713Y30358464D02*
X388977396Y30079158D01*
X379966997Y122121279D02*
X380138004Y122349719D01*
X572960628Y122541530D02*
X573190302Y122715913D01*
X391911916Y31407440D02*
X391540174Y31407440D01*
X478572986Y31412405D02*
X473599587Y31412455D01*
X635546816Y29543150D02*
X635344636Y29337792D01*
X564647468Y31324727D02*
X564270417Y31216136D01*
X648455449Y29024278D02*
X648185797Y28922614D01*
D11*
X654227000Y47410000D02*
X654227000Y46910000D01*
D10*
X390454139Y31173093D02*
X390115475Y31019800D01*
X631303504Y123039997D02*
X647617141Y123039997D01*
X389794980Y30831452D02*
X389496270Y30610175D01*
X563907891Y31066022D02*
X563564446Y30876270D01*
X470636598Y29775436D02*
X470466021Y29543164D01*
D11*
X414627000Y47410000D02*
G75*
G02*
X410427000Y47410000I-2100000J1200001D01*
G01*
D10*
X379830240Y30009170D02*
X379730518Y30276534D01*
X625315586Y120979281D02*
X625665334Y120841113D01*
X562292545Y29543129D02*
X562090363Y29337783D01*
X481308783Y30095344D02*
X481047257Y30387853D01*
X617029502Y28848266D02*
X616856561Y28860757D01*
D11*
X400267010Y46910000D02*
X398927000Y46910000D01*
X421927000Y47410000D02*
X420427000Y47410000D01*
D10*
X380568221Y122722505D02*
X380818672Y122859262D01*
X387638859Y28922603D02*
X387357397Y28860754D01*
X481047257Y30387853D02*
X480754633Y30649250D01*
X649310729Y122103838D02*
X649525005Y121799867D01*
X649139469Y29543157D02*
X648937287Y29337804D01*
X393061049Y122541778D02*
X393290690Y122716081D01*
X418683125Y120979280D02*
X419016030Y121154174D01*
X474375406Y120464353D02*
X478575406Y120464353D01*
X433442279Y30831510D02*
X433121781Y31019864D01*
X562463115Y29775401D02*
X562292545Y29543129D01*
X385906019Y122855584D02*
X386158337Y122716105D01*
D11*
X385627000Y47410000D02*
X385627000Y46910000D01*
D10*
X393290690Y122716081D02*
X393543005Y122855556D01*
X392858854Y122336269D02*
X393061049Y122541778D01*
X421753081Y123039997D02*
X469717279Y123039997D01*
X388805221Y120588443D02*
X389168750Y120509965D01*
X429281381Y30610226D02*
X429007823Y30358507D01*
X388763087Y29775409D02*
X388592537Y29543121D01*
X664349514Y121039997D02*
X664327000Y47310000D01*
D11*
X419227000Y47410000D02*
X417727000Y47410000D01*
D10*
X480758323Y121228522D02*
X481051023Y121490240D01*
X430239261Y31173161D02*
X429900593Y31019864D01*
X473596287Y120552172D02*
X473983380Y120486377D01*
X409405918Y28922624D02*
X409136266Y29024285D01*
X414571791Y121877049D02*
X414832108Y121605665D01*
X394094326Y123019214D02*
X394381875Y123039997D01*
D11*
X621727000Y47419997D02*
X621727000Y46910000D01*
D10*
X562090363Y29337783D02*
X561860770Y29163625D01*
D11*
X650527000Y47410000D02*
X650527000Y46910000D01*
D10*
X408654428Y29337807D02*
X408452246Y29543159D01*
X655236016Y29775436D02*
X655021709Y30079194D01*
D11*
X645827000Y47410000D02*
X645827000Y46910000D01*
D10*
X385354691Y123019248D02*
X385636269Y122957336D01*
X655024014Y121799867D02*
X655238290Y122103838D01*
X564644480Y120552163D02*
X565031575Y120486369D01*
D11*
X386627000Y47410000D02*
X385627000Y47410000D01*
D10*
X379966998Y29758720D02*
X379830240Y30009170D01*
D11*
X617529502Y38910000D02*
X617529502Y46910000D01*
D10*
X391335726Y120858475D02*
X391656318Y121046980D01*
X561608531Y29024269D02*
X561338883Y28922610D01*
X381649502Y28839997D02*
X381364873Y28860365D01*
X479728624Y31216114D02*
X479351576Y31324706D01*
X412970744Y123020935D02*
X413241025Y122964085D01*
X470863740Y30095388D02*
X470636598Y29775436D01*
X479731807Y120660918D02*
X480094539Y120811235D01*
X651355224Y120588443D02*
X651718753Y120509965D01*
X431325313Y31407516D02*
X430955662Y31368087D01*
X419328250Y121363776D02*
X419616180Y121605665D01*
X656929152Y28839997D02*
X656641715Y28860709D01*
X388977396Y30079158D02*
X388763087Y29775409D01*
D11*
X426529502Y28839997D02*
X426529502Y38210000D01*
D10*
X389538555Y120470503D02*
X389910459Y120470503D01*
X404763162Y31368087D02*
X404399778Y31289674D01*
X662634145Y123019661D02*
X662912982Y122959001D01*
X562288807Y122335950D02*
X562459339Y122103396D01*
D11*
X654227000Y46910000D02*
X651727000Y46910000D01*
D10*
X472192484Y121228515D02*
X472512654Y121001225D01*
X642245703Y29163638D02*
X642016108Y29337803D01*
X622521164Y123020909D02*
X622791443Y122964058D01*
X663180347Y122859277D02*
X663430799Y122722518D01*
X380568223Y29157498D02*
X380339783Y29328505D01*
X654776392Y30358507D02*
X654502834Y30610226D01*
X561860770Y29163625D02*
X561608531Y29024269D01*
D11*
X417727000Y46910000D02*
X419227000Y46910000D01*
D10*
X413241025Y122964085D02*
X413500897Y122870540D01*
X402570006Y30079193D02*
X402355698Y29775436D01*
X388390352Y29337773D02*
X388160755Y29163615D01*
X433740993Y30610226D02*
X433442279Y30831510D01*
X609739186Y30079193D02*
X609524878Y29775436D01*
D11*
X396752000Y46910000D02*
X393627000Y46910000D01*
X415527000Y47410000D02*
X415527000Y46910000D01*
D10*
X481312569Y121783094D02*
X481539668Y122103399D01*
X614098461Y31019864D02*
X613759793Y31173162D01*
X392281561Y31368013D02*
X391911916Y31407440D01*
X432430095Y31289674D02*
X432066711Y31368087D01*
X481717001Y56870000D02*
G75*
G02*
X476517001Y56870000I-2600000J0D01*
G01*
X476517001Y56870000D02*
G75*
G02*
X481717001Y56870000I2600000J0D01*
G01*
X393543005Y122855556D02*
X393812752Y122957305D01*
D11*
X427027000Y38210000D02*
X427029502Y28852602D01*
D10*
X562679400Y94406149D02*
G75*
G02*
X557479400Y94406149I-2600000J0D01*
G01*
X557479400Y94406149D02*
G75*
G02*
X562679400Y94406149I2600000J0D01*
G01*
X627150074Y120680893D02*
X627521247Y120741266D01*
X414832108Y121605665D02*
X415120038Y121363776D01*
X656641715Y28860709D02*
X656360246Y28922563D01*
X629656617Y122174795D02*
X629828659Y122390863D01*
X565031575Y120486369D02*
X565423604Y120464345D01*
X653191936Y31289673D02*
X652828552Y31368086D01*
D11*
X422452000Y59560000D02*
X420252000Y59560000D01*
D10*
X407249779Y30831510D02*
X406929281Y31019864D01*
X469230891Y28860767D02*
X468943462Y28839997D01*
X390280263Y120509965D02*
X390643793Y120588443D01*
X471899788Y121490237D02*
X472192484Y121228515D01*
X473207823Y31390465D02*
X472820982Y31324764D01*
D11*
X627627000Y46910000D02*
X627627000Y47410000D01*
D10*
X573734821Y29337806D02*
X573532639Y29543158D01*
X647904334Y28860759D02*
X647616903Y28839997D01*
X564270417Y31216136D02*
X563907891Y31066022D01*
X380818674Y29020742D02*
X380568223Y29157498D01*
X635344636Y29337792D02*
X635115040Y29163624D01*
X638124842Y31368086D02*
X637761458Y31289673D01*
X571554692Y31216178D02*
X571177630Y31324768D01*
X650342699Y121046980D02*
X650663290Y120858476D01*
D12*
X636529502Y30668704D02*
X636527000Y38110000D01*
D10*
X654204120Y30831510D02*
X653883622Y31019863D01*
X624670461Y121363776D02*
X624982681Y121154175D01*
X609524878Y29775436D02*
X609354316Y29543150D01*
X420947380Y122870554D02*
X421207256Y122964094D01*
X623520297Y122581156D02*
X623720469Y122390856D01*
X413745404Y122742085D02*
X413969882Y122581170D01*
X561057425Y28860758D02*
X560770000Y28839997D01*
X649770325Y121520348D02*
X650043920Y121268438D01*
X648186264Y122957296D02*
X648456012Y122855549D01*
X609152136Y29337792D02*
X608922540Y29163624D01*
X563240661Y121228496D02*
X563560836Y121001209D01*
X653883622Y31019863D02*
X653544953Y31173161D01*
X483233532Y123039997D02*
X560765473Y123039997D01*
X624982681Y121154175D02*
X625315586Y120979281D01*
X573712472Y122957256D02*
X573994114Y123019199D01*
D12*
X407527000Y39510000D02*
X407529502Y46910000D01*
D10*
X624382531Y121605665D02*
X624670461Y121363776D01*
X415765163Y120979281D02*
X416114911Y120841113D01*
X482142101Y122715912D02*
X482394463Y122855454D01*
X482660198Y28922646D02*
X482390551Y29024304D01*
X391955097Y121268437D02*
X392228691Y121520348D01*
X570790782Y31390469D02*
X570399012Y31412455D01*
D11*
X420427000Y46910000D02*
X420427000Y47410000D01*
D10*
X649769664Y30358507D02*
X649524347Y30079193D01*
D11*
X626527000Y47410000D02*
X623927000Y47419997D01*
X648127000Y46910000D02*
X648127000Y47410000D01*
D10*
X655608751Y29337775D02*
X655406576Y29543143D01*
X430592278Y31289674D02*
X430239261Y31173161D01*
X626774567Y120660691D02*
X627150074Y120680893D01*
X608670296Y29024263D02*
X608400641Y28922602D01*
X470466021Y29543164D02*
X470263837Y29337815D01*
X611568958Y31289674D02*
X611215941Y31173161D01*
X470263837Y29337815D02*
X470034242Y29163652D01*
X394689003Y29775409D02*
X394474694Y30079158D01*
X419616180Y121605665D02*
X419876496Y121877049D01*
D11*
X617529502Y38910000D02*
X617029502Y38910000D01*
D10*
X641429046Y30079193D02*
X641183730Y30358506D01*
X395291340Y29163608D02*
X395061747Y29337774D01*
X470556368Y122855502D02*
X470808734Y122715954D01*
X403088881Y30610226D02*
X402815323Y30358507D01*
D11*
X408027000Y39510000D02*
X408027000Y46910000D01*
D10*
X380818672Y122859262D02*
X381086037Y122958984D01*
X394474694Y30079158D02*
X394229377Y30358464D01*
X435598418Y28922624D02*
X435328766Y29024285D01*
X655840667Y122716112D02*
X656092989Y122855584D01*
X627883800Y120841113D02*
X628233548Y120979280D01*
D11*
X617527000Y37510000D02*
X617027000Y37510000D01*
D10*
X656360246Y28922563D02*
X656090589Y29024230D01*
X650043920Y121268438D02*
X650342699Y121046980D01*
X557917000Y56870000D02*
G75*
G02*
X552717000Y56870000I-2600000J0D01*
G01*
X552717000Y56870000D02*
G75*
G02*
X557917000Y56870000I2600000J0D01*
G01*
X427945842Y29163652D02*
X427693601Y29024291D01*
X664032013Y29758719D02*
X663861006Y29530280D01*
X416848636Y120680893D02*
X417224144Y120660691D01*
X435076524Y29163644D02*
X434846928Y29337807D01*
X389496270Y30610175D02*
X389222713Y30358464D01*
X471240611Y122335953D02*
X471411143Y122103399D01*
X379669863Y121324627D02*
X379730519Y121603462D01*
X612673741Y31407516D02*
X612301993Y31407516D01*
X480094539Y120811235D02*
X480438152Y121001234D01*
X619309502Y28859997D02*
X617529502Y28843557D01*
X649140174Y122336276D02*
X649310729Y122103838D01*
X480091147Y31065999D02*
X479728624Y31216114D01*
D11*
X421927000Y46910000D02*
X421927000Y47410000D01*
D10*
X573442665Y122855455D02*
X573712472Y122957256D01*
X615236548Y30079194D02*
X614991231Y30358507D01*
X653193796Y120588443D02*
X653546946Y120705052D01*
X570015633Y120486374D02*
X570402728Y120552163D01*
X479351576Y31324706D02*
X478964743Y31390412D01*
X654206321Y121046980D02*
X654505100Y121268437D01*
X381649502Y123039997D02*
X385067138Y123039997D01*
X581730000Y94406149D02*
G75*
G02*
X576530000Y94406149I-2600000J0D01*
G01*
X576530000Y94406149D02*
G75*
G02*
X581730000Y94406149I2600000J0D01*
G01*
X649310039Y29775436D02*
X649139469Y29543157D01*
D11*
X393627000Y47410000D02*
X396752000Y47410000D01*
D10*
X652830266Y120509965D02*
X653193796Y120588443D01*
X413500897Y122870540D02*
X413745404Y122742085D01*
D11*
X417727000Y47410000D02*
X417727000Y46910000D01*
D10*
X472443926Y31216175D02*
X472081396Y31066061D01*
X482390551Y29024304D02*
X482138311Y29163656D01*
D11*
X651727000Y47410000D02*
X654227000Y47410000D01*
D10*
X380138004Y122349719D02*
X380339781Y122551497D01*
X653885729Y120858475D02*
X654206321Y121046980D01*
X387792696Y121046980D02*
X388113287Y120858476D01*
X406929281Y31019864D02*
X406590613Y31173162D01*
D11*
X632727000Y47410000D02*
X636029502Y47419997D01*
D10*
X639599275Y31289673D02*
X639235891Y31368086D01*
X486479400Y94406149D02*
G75*
G02*
X481279400Y94406149I-2600000J0D01*
G01*
X481279400Y94406149D02*
G75*
G02*
X486479400Y94406149I2600000J0D01*
G01*
X469782001Y29024291D02*
X469512351Y28922626D01*
X561053101Y123019238D02*
X561334750Y122957300D01*
X662912982Y122959001D02*
X663180347Y122859277D01*
D11*
X400281905Y47409249D02*
X398927000Y47410000D01*
D10*
X396094693Y28860733D02*
X395813231Y28922585D01*
D11*
X424127000Y47410000D02*
X424127000Y46910000D01*
D10*
X639952292Y31173161D02*
X639599275Y31289673D01*
D11*
X379627000Y46910000D02*
X379649502Y30839997D01*
D10*
X388113287Y120858476D02*
X388452070Y120705053D01*
D11*
X656427000Y46910000D02*
X664327000Y46910000D01*
D10*
X656644323Y123019227D02*
X656931878Y123039997D01*
X413969882Y122581170D02*
X414170051Y122390864D01*
X471638248Y121783097D02*
X471899788Y121490237D01*
X386975002Y121799867D02*
X387220322Y121520348D01*
X649524347Y30079193D02*
X649310039Y29775436D01*
X473983380Y120486377D02*
X474375406Y120464353D01*
X409687381Y28860771D02*
X409405918Y28922624D01*
X641643355Y29775436D02*
X641429046Y30079193D01*
D12*
X408027000Y38010000D02*
X408029502Y30122307D01*
D10*
X472820982Y31324764D02*
X472443926Y31216175D01*
X419876496Y121877049D02*
X420106194Y122174795D01*
X480438152Y121001234D02*
X480758323Y121228522D01*
X470808734Y122715954D02*
X471038407Y122541563D01*
X643049061Y28860757D02*
X642767597Y28922612D01*
X647616903Y28839997D02*
X643336492Y28839997D01*
X471411143Y122103399D02*
X471638248Y121783097D01*
X472512654Y121001225D02*
X472856268Y120811227D01*
X640290960Y31019863D02*
X639952292Y31173161D01*
X479354522Y120552173D02*
X479731807Y120660918D01*
X650043222Y30610225D02*
X649769664Y30358507D01*
X608922540Y29163624D02*
X608670296Y29024263D01*
X664349514Y30839997D02*
X664329149Y30555368D01*
D11*
X426529502Y38210000D02*
X427027000Y38210000D01*
D10*
X389168750Y120509965D02*
X389538555Y120470503D01*
X615450855Y29775436D02*
X615236548Y30079194D01*
X432783113Y31173162D02*
X432430095Y31289674D01*
X641813926Y29543157D02*
X641643355Y29775436D01*
X633629502Y28819997D02*
X619809502Y28859997D01*
X625665334Y120841113D02*
X626027887Y120741266D01*
X656092989Y122855584D02*
X656362743Y122957328D01*
D11*
X427029502Y39610000D02*
X427029502Y47419997D01*
X414827000Y46910000D02*
G75*
G02*
X410227000Y46910000I-2300000J1700000D01*
G01*
D10*
X640910172Y30610225D02*
X640611458Y30831509D01*
D11*
X627627000Y47410000D02*
X630527000Y47410000D01*
D10*
X573964417Y29163642D02*
X573734821Y29337806D01*
X642497945Y29024276D02*
X642245703Y29163638D01*
X379730519Y121603462D02*
X379830240Y121870827D01*
X562951777Y30387866D02*
X562690252Y30095351D01*
X417599651Y120680893D02*
X417970824Y120741266D01*
D11*
X391327000Y47410000D02*
G75*
G02*
X386424190Y46907923I-2600000J1200000D01*
G01*
D10*
X642016108Y29337803D02*
X641813926Y29543157D01*
D11*
X617027000Y37510000D02*
X617029502Y28848266D01*
D10*
X643336492Y28839997D02*
X643049061Y28860757D01*
X419016030Y121154174D02*
X419328250Y121363776D01*
X420702869Y122742102D02*
X420947380Y122870554D01*
D11*
X407529502Y47419997D02*
X406352000Y47410000D01*
D10*
X637069773Y31019863D02*
X636749274Y30831510D01*
X607831742Y28839997D02*
X575055205Y28839997D01*
X655611021Y122541808D02*
X655840667Y122716112D01*
X664268502Y121603465D02*
X664329158Y121324628D01*
X407529502Y30624294D02*
X407249779Y30831510D01*
X402185153Y29543139D02*
X401982966Y29337786D01*
X428175437Y29337815D02*
X427945842Y29163652D01*
X565426065Y31412359D02*
X565034305Y31390430D01*
D11*
X422452000Y54135000D02*
X420252000Y54135000D01*
X384427000Y47410000D02*
X384427000Y46907923D01*
D10*
X616053203Y29163638D02*
X615823608Y29337803D01*
X561604563Y122855499D02*
X561856929Y122715952D01*
X610556774Y30831510D02*
X610258061Y30610226D01*
X416114911Y120841113D02*
X416477464Y120741266D01*
X652088558Y120470503D02*
X652460462Y120470503D01*
X390807151Y31289602D02*
X390454139Y31173093D01*
X629426919Y121877049D02*
X629656617Y122174795D01*
X651002073Y120705053D02*
X651355224Y120588443D01*
X472856268Y120811227D02*
X473219000Y120660912D01*
X650341935Y30831509D02*
X650043222Y30610225D01*
X401753366Y29163622D02*
X401501119Y29024264D01*
X616575097Y28922612D02*
X616305445Y29024276D01*
X379649502Y121039997D02*
X379669863Y121324627D01*
X408452246Y29543159D02*
X408281675Y29775436D01*
X614717673Y30610226D02*
X614418959Y30831510D01*
X400662562Y28839997D02*
X396382122Y28839997D01*
X638494492Y31407515D02*
X638124842Y31368086D01*
X634862796Y29024263D02*
X634593141Y28922602D01*
X663659239Y122551508D02*
X663861017Y122349728D01*
X392688287Y122103838D02*
X392858854Y122336269D01*
D11*
X636529502Y46910000D02*
X645827000Y46910000D01*
D10*
X633629502Y28819997D02*
X634311675Y28860752D01*
X572873377Y30387904D02*
X572580741Y30649307D01*
D11*
X384427000Y46907923D02*
X379627000Y46910000D01*
D10*
X664329158Y121324628D02*
X664349514Y121039997D01*
X427423951Y28922626D02*
X427142491Y28860767D01*
X408884024Y29163644D02*
X408654428Y29337807D01*
D11*
X623927000Y47419997D02*
X623927000Y46910000D01*
D10*
X481912428Y122541529D02*
X482142101Y122715912D01*
X653546946Y120705052D02*
X653885729Y120858475D01*
X630757686Y122964078D02*
X631027968Y123020927D01*
X648707691Y29163639D02*
X648455449Y29024278D01*
X615621426Y29543157D02*
X615450855Y29775436D01*
X418333377Y120841113D02*
X418683125Y120979280D01*
X655838345Y29163599D02*
X655608751Y29337775D01*
D11*
X636027000Y38110000D02*
X636029502Y30190565D01*
D10*
X663861017Y122349728D02*
X664032024Y122121286D01*
X561334750Y122957300D02*
X561604563Y122855499D01*
X611215941Y31173161D02*
X610877273Y31019864D01*
X574767774Y28860766D02*
X574486311Y28922620D01*
D11*
X626527000Y46910000D02*
X626527000Y47410000D01*
X656427000Y47410000D02*
X656427000Y46910000D01*
X651727000Y46910000D02*
X651727000Y47410000D01*
D10*
X655238290Y122103838D02*
X655408823Y122336296D01*
X387069968Y28839997D02*
X381649502Y28839997D01*
X657929502Y28839997D02*
X656929152Y28839997D01*
X414170051Y122390864D02*
X414342093Y122174795D01*
X434644746Y29543159D02*
X434474175Y29775436D01*
X395813231Y28922585D02*
X395543580Y29024248D01*
X571486372Y121001205D02*
X571806544Y121228495D01*
X478964743Y31390412D02*
X478572986Y31412405D01*
X562686411Y121783070D02*
X562947958Y121490214D01*
X608400641Y28922602D02*
X608119175Y28860752D01*
X427142491Y28860767D02*
X427029502Y28852602D01*
X654505100Y121268437D02*
X654778694Y121520348D01*
D11*
X664327000Y46910000D02*
X664349514Y30839997D01*
D10*
X653544953Y31173161D02*
X653191936Y31289673D01*
D12*
X427029502Y47419997D02*
X426529502Y47419997D01*
D10*
X663180340Y29020737D02*
X662912977Y28921014D01*
X390996943Y120705052D02*
X391335726Y120858475D01*
X570399012Y31412455D02*
X565426065Y31412359D01*
X616305445Y29024276D02*
X616053203Y29163638D01*
X387220322Y121520348D02*
X387493917Y121268438D01*
X470004907Y123019242D02*
X470286556Y122957303D01*
X416477464Y120741266D02*
X416848636Y120680893D01*
X562690252Y30095351D02*
X562463115Y29775401D01*
X391170529Y31368013D02*
X390807151Y31289602D01*
X393336615Y31019800D02*
X392997951Y31173093D01*
X393657110Y30831452D02*
X393336615Y31019800D01*
X395061747Y29337774D02*
X394859569Y29543129D01*
X628878673Y121363776D02*
X629166603Y121605665D01*
D12*
X617529502Y28843557D02*
X617527000Y37510000D01*
D10*
X631027968Y123020927D02*
X631303504Y123039997D01*
X639235891Y31368086D02*
X638866240Y31407515D01*
X573190302Y122715913D02*
X573442665Y122855455D01*
X420278218Y122390879D02*
X420478388Y122581187D01*
X478575406Y120464353D02*
X478967431Y120486369D01*
X480434589Y30876250D02*
X480091147Y31065999D01*
D11*
X623927000Y46910000D02*
X626527000Y46910000D01*
D10*
X575055205Y28839997D02*
X574767774Y28860766D01*
D11*
X426529502Y46910000D02*
X424127000Y46910000D01*
D10*
X381086038Y28921021D02*
X380818674Y29020742D01*
X471125268Y30387904D02*
X470863740Y30095388D01*
X389910459Y120470503D02*
X390280263Y120509965D01*
X388452070Y120705053D02*
X388805221Y120588443D01*
X394229377Y30358464D02*
X393955820Y30610175D01*
X390115475Y31019800D02*
X389794980Y30831452D01*
D11*
X407529502Y46910000D02*
X406367203Y46910000D01*
D10*
X472081396Y31066061D02*
X471737947Y30876310D01*
X629166603Y121605665D02*
X629426919Y121877049D01*
X571806544Y121228495D02*
X572099242Y121490219D01*
X387357397Y28860754D02*
X387069968Y28839997D01*
X403387594Y30831510D02*
X403088881Y30610226D01*
X648185797Y28922614D02*
X647904334Y28860759D01*
D11*
X421927000Y46910000D02*
X420427000Y46910000D01*
D10*
X655021709Y30079194D02*
X654776392Y30358507D01*
X613759793Y31173162D02*
X613406775Y31289674D01*
X386387981Y122541799D02*
X386590178Y122336286D01*
X572758420Y122335931D02*
X572960628Y122541530D01*
X391656318Y121046980D02*
X391955097Y121268437D01*
X428762506Y30079193D02*
X428548198Y29775436D01*
X614418959Y30831510D02*
X614098461Y31019864D01*
X394859569Y29543129D02*
X394689003Y29775409D01*
X379730518Y30276534D02*
X379669860Y30555368D01*
X417224144Y120660691D02*
X417599651Y120680893D01*
X415120038Y121363776D02*
X415432258Y121154175D01*
X648937287Y29337804D02*
X648707691Y29163639D01*
X408067368Y30079194D02*
X408029502Y30122307D01*
D11*
X393627000Y46910000D02*
X393627000Y47410000D01*
D10*
X609354316Y29543150D02*
X609152136Y29337792D01*
X663430799Y122722518D02*
X663659239Y122551508D01*
X433121781Y31019864D02*
X432783113Y31173162D01*
X482941655Y28860793D02*
X482660198Y28922646D01*
X652458902Y31407515D02*
X652087154Y31407515D01*
X626399059Y120680893D02*
X626774567Y120660691D01*
X435879881Y28860771D02*
X435598418Y28922624D01*
X560770000Y28839997D02*
X483229079Y28839997D01*
X573994114Y123019199D02*
X574281736Y123039997D01*
X387493917Y121268438D02*
X387792696Y121046980D01*
D11*
X422452000Y59560000D02*
G75*
G02*
X422452000Y54135000I0J-2712500D01*
G01*
D10*
X651718753Y120509965D02*
X652088558Y120470503D01*
X664268492Y30276534D02*
X664168770Y30009170D01*
X395543580Y29024248D02*
X395291340Y29163608D01*
D11*
X632727000Y46910000D02*
X632727000Y47410000D01*
D10*
X432066711Y31368087D02*
X431697061Y31407516D01*
X652087154Y31407515D02*
X651717503Y31368086D01*
X480754633Y30649250D02*
X480434589Y30876250D01*
X571917229Y31066064D02*
X571554692Y31216178D01*
X560765473Y123039997D02*
X561053101Y123019238D01*
X623051313Y122870516D02*
X623295818Y122742065D01*
X467434395Y94404995D02*
G75*
G02*
X462234395Y94404995I-2600000J0D01*
G01*
X462234395Y94404995D02*
G75*
G02*
X467434395Y94404995I2600000J0D01*
G01*
X664329149Y30555368D02*
X664268492Y30276534D01*
X396382122Y28839997D02*
X396094693Y28860733D01*
X387908511Y29024260D02*
X387638859Y28922603D01*
X481908716Y29337811D02*
X481706531Y29543153D01*
X409974811Y28839997D02*
X409687381Y28860771D01*
X565423604Y120464345D02*
X569623604Y120464345D01*
X561338883Y28922610D02*
X561057425Y28860758D01*
X614991231Y30358507D02*
X614717673Y30610226D01*
X656931878Y123039997D02*
X662349514Y123039997D01*
X649525005Y121799867D02*
X649770325Y121520348D01*
X409136266Y29024285D02*
X408884024Y29163644D01*
X663861006Y29530280D02*
X663659229Y29328503D01*
X571142755Y120811208D02*
X571486372Y121001205D01*
X426529502Y28839997D02*
X409974811Y28839997D01*
X417970824Y120741266D02*
X418333377Y120841113D01*
X638866240Y31407515D02*
X638494492Y31407515D01*
X469717279Y123039997D02*
X470004907Y123019242D01*
X569623604Y120464345D02*
X570015633Y120486374D01*
X471417897Y30649306D02*
X471125268Y30387904D01*
X380138006Y29530281D02*
X379966998Y29758720D01*
D11*
X630527000Y47410000D02*
X630527000Y46910000D01*
D10*
X572587870Y122103396D02*
X572758420Y122335931D01*
X572360781Y121783081D02*
X572587870Y122103396D01*
X473219000Y120660912D02*
X473596287Y120552172D01*
X628233548Y120979280D02*
X628566453Y121154174D01*
X482394463Y122855454D02*
X482664269Y122957255D01*
X401501119Y29024264D02*
X401231463Y28922604D01*
X562459339Y122103396D02*
X562686411Y121783070D01*
X563560836Y121001209D02*
X563904454Y120811213D01*
X572260684Y30876312D02*
X571917229Y31066064D01*
X637761458Y31289673D02*
X637408441Y31173161D01*
D11*
X385627000Y46910000D02*
X386424190Y46907923D01*
D10*
X641183730Y30358506D02*
X640910172Y30610225D01*
D11*
X396752000Y47410000D02*
X396752000Y46910000D01*
D10*
X651354119Y31289673D02*
X651001102Y31173161D01*
X650663290Y120858476D02*
X651002073Y120705053D01*
X434259868Y30079194D02*
X434014551Y30358507D01*
X379669860Y30555368D02*
X379649502Y30839997D01*
X428377621Y29543164D02*
X428175437Y29337815D01*
X654502834Y30610226D02*
X654204120Y30831510D01*
D11*
X408027000Y38010000D02*
X407527000Y38010000D01*
D10*
X430955662Y31368087D02*
X430592278Y31289674D01*
X619309502Y28859997D02*
X619809502Y28859997D01*
D11*
X390827000Y47410000D02*
G75*
G02*
X386627000Y47410000I-2100000J1200001D01*
G01*
D10*
X401231463Y28922604D02*
X400949996Y28860754D01*
D12*
X410427000Y47410000D02*
X407529502Y47419997D01*
D10*
X636749274Y30831510D02*
X636529502Y30668704D01*
X648456012Y122855549D02*
X648708329Y122716077D01*
X656362743Y122957328D02*
X656644323Y123019227D01*
D12*
X617029502Y47419997D02*
X617029502Y38910000D01*
X636029502Y46910000D02*
X636027000Y39510000D01*
D11*
X426529502Y39610000D02*
X427029502Y39610000D01*
D10*
X571177630Y31324768D02*
X570790782Y31390469D01*
X379830240Y121870827D02*
X379966997Y122121279D01*
X613043391Y31368087D02*
X612673741Y31407516D01*
X436167311Y28839997D02*
X435879881Y28860771D01*
X623720469Y122390856D02*
X623892516Y122174795D01*
X415432258Y121154175D02*
X415765163Y120979281D01*
X652460462Y120470503D02*
X652830266Y120509965D01*
D12*
X645827000Y47410000D02*
X636029502Y47419997D01*
D11*
X650527000Y46910000D02*
X648127000Y46910000D01*
D10*
X386760726Y122103838D02*
X386975002Y121799867D01*
X640611458Y30831509D02*
X640290960Y31019863D01*
X570402728Y120552163D02*
X570780019Y120660897D01*
X414342093Y122174795D02*
X414571791Y121877049D01*
D11*
X384427000Y47410000D02*
X379627000Y47410000D01*
D10*
X630028829Y122581168D02*
X630253307Y122742082D01*
X647904690Y123019205D02*
X648186264Y122957296D01*
D11*
X636527000Y39510000D02*
X636529502Y46910000D01*
D10*
X434474175Y29775436D02*
X434259868Y30079194D01*
X664168781Y121870832D02*
X664268502Y121603465D01*
X623892516Y122174795D02*
X624122214Y121877049D01*
X473599587Y31412455D02*
X473207823Y31390465D01*
X406237595Y31289674D02*
X405874211Y31368087D01*
X482138311Y29163656D02*
X481908716Y29337811D01*
X652828552Y31368086D02*
X652458902Y31407515D01*
X386158337Y122716105D02*
X386387981Y122541799D01*
D11*
X426529502Y39610000D02*
X426529502Y46910000D01*
D10*
X635931686Y30079193D02*
X635717378Y29775436D01*
X421477542Y123020936D02*
X421753081Y123039997D01*
X610877273Y31019864D02*
X610556774Y30831510D01*
X381086037Y122958984D02*
X381364872Y123019640D01*
D11*
X407527000Y39510000D02*
X408027000Y39510000D01*
D10*
X574281736Y123039997D02*
X622245630Y123039997D01*
X635717378Y29775436D02*
X635546816Y29543150D01*
X478967431Y120486369D02*
X479354522Y120552173D01*
X388160755Y29163615D02*
X387908511Y29024260D01*
D11*
X391327000Y47410000D02*
X390827000Y47410000D01*
D10*
X403708093Y31019864D02*
X403387594Y30831510D01*
X385067138Y123039997D02*
X385354691Y123019248D01*
D11*
X407529502Y30624294D02*
X407527000Y38010000D01*
D12*
X621727000Y47419997D02*
X617029502Y47419997D01*
D10*
X482664269Y122957255D02*
X482945910Y123019199D01*
X402815323Y30358507D02*
X402570006Y30079193D01*
X574486311Y28922620D02*
X574216659Y29024282D01*
M02*
