%TF.GenerationSoftware,KiCad,Pcbnew,8.99.0-2194-gb3b7cbcab2*%
%TF.CreationDate,2024-09-18T03:27:03+07:00*%
%TF.ProjectId,Sebas_nuxros,53656261-735f-46e7-9578-726f732e6b69,rev?*%
%TF.SameCoordinates,Original*%
%TF.FileFunction,Soldermask,Bot*%
%TF.FilePolarity,Negative*%
%FSLAX46Y46*%
G04 Gerber Fmt 4.6, Leading zero omitted, Abs format (unit mm)*
G04 Created by KiCad (PCBNEW 8.99.0-2194-gb3b7cbcab2) date 2024-09-18 03:27:03*
%MOMM*%
%LPD*%
G01*
G04 APERTURE LIST*
G04 Aperture macros list*
%AMRoundRect*
0 Rectangle with rounded corners*
0 $1 Rounding radius*
0 $2 $3 $4 $5 $6 $7 $8 $9 X,Y pos of 4 corners*
0 Add a 4 corners polygon primitive as box body*
4,1,4,$2,$3,$4,$5,$6,$7,$8,$9,$2,$3,0*
0 Add four circle primitives for the rounded corners*
1,1,$1+$1,$2,$3*
1,1,$1+$1,$4,$5*
1,1,$1+$1,$6,$7*
1,1,$1+$1,$8,$9*
0 Add four rect primitives between the rounded corners*
20,1,$1+$1,$2,$3,$4,$5,0*
20,1,$1+$1,$4,$5,$6,$7,0*
20,1,$1+$1,$6,$7,$8,$9,0*
20,1,$1+$1,$8,$9,$2,$3,0*%
G04 Aperture macros list end*
%ADD10C,0.000000*%
%ADD11C,3.300000*%
%ADD12O,5.500000X2.410000*%
%ADD13C,0.400000*%
%ADD14C,1.750000*%
%ADD15C,3.987800*%
%ADD16C,4.000000*%
%ADD17C,3.048000*%
%ADD18RoundRect,0.225000X0.375000X-0.225000X0.375000X0.225000X-0.375000X0.225000X-0.375000X-0.225000X0*%
%ADD19R,1.500000X0.900000*%
%ADD20RoundRect,0.250000X-0.450000X0.262500X-0.450000X-0.262500X0.450000X-0.262500X0.450000X0.262500X0*%
%ADD21RoundRect,0.250000X-0.250000X-0.475000X0.250000X-0.475000X0.250000X0.475000X-0.250000X0.475000X0*%
%ADD22RoundRect,0.250000X-0.475000X0.250000X-0.475000X-0.250000X0.475000X-0.250000X0.475000X0.250000X0*%
%ADD23R,0.900000X1.500000*%
%ADD24RoundRect,0.375000X0.375000X-0.625000X0.375000X0.625000X-0.375000X0.625000X-0.375000X-0.625000X0*%
%ADD25RoundRect,0.500000X1.400000X-0.500000X1.400000X0.500000X-1.400000X0.500000X-1.400000X-0.500000X0*%
%ADD26RoundRect,0.150000X0.512500X0.150000X-0.512500X0.150000X-0.512500X-0.150000X0.512500X-0.150000X0*%
%ADD27RoundRect,0.075000X0.075000X-0.662500X0.075000X0.662500X-0.075000X0.662500X-0.075000X-0.662500X0*%
%ADD28RoundRect,0.075000X0.662500X-0.075000X0.662500X0.075000X-0.662500X0.075000X-0.662500X-0.075000X0*%
%ADD29RoundRect,0.250000X0.475000X-0.250000X0.475000X0.250000X-0.475000X0.250000X-0.475000X-0.250000X0*%
%ADD30RoundRect,0.250000X0.262500X0.450000X-0.262500X0.450000X-0.262500X-0.450000X0.262500X-0.450000X0*%
%ADD31R,2.000000X5.000000*%
%ADD32R,2.000000X4.000000*%
%ADD33RoundRect,0.250000X0.625000X-0.350000X0.625000X0.350000X-0.625000X0.350000X-0.625000X-0.350000X0*%
%ADD34O,1.750000X1.200000*%
%ADD35RoundRect,0.250000X0.750000X-0.600000X0.750000X0.600000X-0.750000X0.600000X-0.750000X-0.600000X0*%
%ADD36O,2.000000X1.700000*%
%ADD37R,1.100000X0.300000*%
%ADD38R,3.100000X2.300000*%
G04 APERTURE END LIST*
D10*
%TO.C,G\u002A\u002A\u002A*%
G36*
X543079724Y43596218D02*
G01*
X543338070Y43501526D01*
X543591257Y43340276D01*
X543853366Y43104795D01*
X544138477Y42787412D01*
X544499791Y42354919D01*
X544869769Y41912750D01*
X545190609Y41530120D01*
X545459769Y41210051D01*
X545674706Y40955568D01*
X545832878Y40769692D01*
X545931741Y40655446D01*
X546010216Y40565325D01*
X546158615Y40391015D01*
X546298665Y40222672D01*
X546315443Y40202234D01*
X546430362Y40063562D01*
X546585935Y39877250D01*
X546763865Y39665164D01*
X546945857Y39449172D01*
X546997639Y39387339D01*
X547163350Y39182365D01*
X547306926Y38994444D01*
X547414462Y38842208D01*
X547472048Y38744286D01*
X547489484Y38700182D01*
X547530665Y38460932D01*
X547491983Y38230620D01*
X547386576Y38023913D01*
X547227579Y37855479D01*
X547028131Y37739984D01*
X546801368Y37692097D01*
X546560427Y37726483D01*
X546521198Y37739884D01*
X546449990Y37768987D01*
X546379998Y37808480D01*
X546303345Y37866401D01*
X546212155Y37950789D01*
X546098551Y38069682D01*
X545954655Y38231118D01*
X545772592Y38443136D01*
X545544485Y38713774D01*
X545262455Y39051070D01*
X545160176Y39173552D01*
X544892182Y39493671D01*
X544676373Y39749430D01*
X544505559Y39948592D01*
X544372549Y40098926D01*
X544270156Y40208195D01*
X544191189Y40284167D01*
X544128459Y40334607D01*
X544074777Y40367280D01*
X544022953Y40389953D01*
X543970141Y40407220D01*
X543749630Y40437348D01*
X543523617Y40416630D01*
X543337723Y40347867D01*
X543328521Y40341947D01*
X543221076Y40250667D01*
X543061635Y40088101D01*
X542855450Y39860036D01*
X542607774Y39572260D01*
X542323856Y39230560D01*
X542282955Y39181400D01*
X542173695Y39053191D01*
X542053882Y38915374D01*
X542007009Y38861370D01*
X541885347Y38718769D01*
X541724020Y38527872D01*
X541535805Y38303974D01*
X541333481Y38062370D01*
X541129825Y37818354D01*
X540937614Y37587223D01*
X540769626Y37384271D01*
X540638638Y37224792D01*
X540557428Y37124082D01*
X540513755Y37069582D01*
X540392726Y36923731D01*
X540266589Y36776762D01*
X540205484Y36706675D01*
X540086664Y36568599D01*
X539996556Y36461686D01*
X539596359Y35977450D01*
X539244035Y35553914D01*
X538943486Y35196183D01*
X538690284Y34899258D01*
X538479998Y34658138D01*
X538308200Y34467823D01*
X538170458Y34323312D01*
X538062343Y34219606D01*
X537979426Y34151704D01*
X537917277Y34114606D01*
X537844515Y34085133D01*
X537681355Y34042928D01*
X537525871Y34045686D01*
X537367877Y34099393D01*
X537197185Y34210037D01*
X537003610Y34383605D01*
X536776964Y34626085D01*
X536507062Y34943462D01*
X536323605Y35164997D01*
X536152118Y35371255D01*
X536008710Y35542889D01*
X535904577Y35666504D01*
X535850910Y35728704D01*
X535765610Y35823839D01*
X535600771Y36014177D01*
X535413329Y36236587D01*
X535213942Y36477813D01*
X535013271Y36724601D01*
X534821973Y36963695D01*
X534650709Y37181842D01*
X534510138Y37365787D01*
X534410918Y37502273D01*
X534363709Y37578048D01*
X534345497Y37627790D01*
X534315035Y37848264D01*
X534343207Y38081600D01*
X534425808Y38280251D01*
X534570206Y38431609D01*
X534782182Y38544302D01*
X535022995Y38596071D01*
X535264283Y38581157D01*
X535477685Y38493802D01*
X535576361Y38414332D01*
X535713975Y38279422D01*
X535848535Y38127166D01*
X536025607Y37937350D01*
X536268975Y37762824D01*
X536514852Y37682887D01*
X536760568Y37698272D01*
X537003451Y37809713D01*
X537024941Y37825891D01*
X537127258Y37921616D01*
X537279852Y38081042D01*
X537474781Y38295336D01*
X537704108Y38555664D01*
X537959891Y38853191D01*
X538234191Y39179083D01*
X538390513Y39366648D01*
X538721390Y39763393D01*
X539047138Y40153658D01*
X539360643Y40528940D01*
X539654791Y40880739D01*
X539922467Y41200551D01*
X540156559Y41479876D01*
X540349952Y41710211D01*
X540495532Y41883055D01*
X540586184Y41989905D01*
X540603693Y42010405D01*
X540690606Y42112597D01*
X540820637Y42265823D01*
X540979331Y42453043D01*
X541152236Y42657218D01*
X541165480Y42672851D01*
X541422232Y42967914D01*
X541637748Y43194048D01*
X541826344Y43360855D01*
X542002334Y43477936D01*
X542180036Y43554893D01*
X542373763Y43601329D01*
X542597831Y43626846D01*
X542802138Y43632022D01*
X543079724Y43596218D01*
G37*
G36*
X550515096Y38578770D02*
G01*
X550675786Y38529300D01*
X550678082Y38528095D01*
X550805219Y38442027D01*
X550927672Y38331706D01*
X550976080Y38274296D01*
X551022142Y38184792D01*
X551043539Y38063052D01*
X551048855Y37876865D01*
X551050137Y37819468D01*
X551052685Y37759990D01*
X551052354Y37706152D01*
X551044928Y37652223D01*
X551026190Y37592468D01*
X550991924Y37521158D01*
X550937915Y37432558D01*
X550859947Y37320938D01*
X550753804Y37180565D01*
X550615269Y37005707D01*
X550440127Y36790631D01*
X550224161Y36529607D01*
X549963157Y36216901D01*
X549652897Y35846781D01*
X549289167Y35413515D01*
X548867749Y34911372D01*
X548596835Y34588369D01*
X548263177Y34190531D01*
X547946176Y33812525D01*
X547652355Y33462130D01*
X547388233Y33147123D01*
X547160331Y32875281D01*
X546975171Y32654381D01*
X546839275Y32492202D01*
X546759161Y32396520D01*
X546652565Y32270703D01*
X546414413Y32005365D01*
X546221016Y31816441D01*
X546067758Y31699679D01*
X545950024Y31650825D01*
X545819301Y31641080D01*
X545583063Y31662714D01*
X545375193Y31724148D01*
X545369903Y31726835D01*
X545290675Y31790326D01*
X545168577Y31911719D01*
X545019271Y32074682D01*
X544858423Y32262886D01*
X544836337Y32289610D01*
X544683460Y32473965D01*
X544552100Y32631328D01*
X544455622Y32745746D01*
X544407391Y32801267D01*
X544367106Y32847419D01*
X544273689Y32957256D01*
X544139090Y33116777D01*
X543974180Y33313098D01*
X543789824Y33533337D01*
X543622929Y33729526D01*
X543440751Y33935699D01*
X543280991Y34108216D01*
X543156543Y34233204D01*
X543080298Y34296791D01*
X542956334Y34349250D01*
X542728347Y34381120D01*
X542493896Y34353964D01*
X542294669Y34269244D01*
X542281214Y34259040D01*
X542194052Y34176169D01*
X542057194Y34031574D01*
X541880002Y33835721D01*
X541671839Y33599078D01*
X541442064Y33332113D01*
X541200040Y33045293D01*
X541166454Y33005102D01*
X540870081Y32651593D01*
X540626760Y32365197D01*
X540428753Y32138872D01*
X540268322Y31965574D01*
X540137729Y31838260D01*
X540029236Y31749887D01*
X539935105Y31693413D01*
X539847598Y31661794D01*
X539758978Y31647988D01*
X539661505Y31644950D01*
X539475913Y31662389D01*
X539236592Y31753665D01*
X539057558Y31917036D01*
X538945346Y32145685D01*
X538906490Y32432792D01*
X538906508Y32442857D01*
X538910214Y32535239D01*
X538925486Y32620565D01*
X538959700Y32710345D01*
X539020234Y32816089D01*
X539114464Y32949306D01*
X539249767Y33121506D01*
X539433520Y33344198D01*
X539673099Y33628893D01*
X539675099Y33631260D01*
X539790454Y33768142D01*
X539959784Y33969519D01*
X540175021Y34225776D01*
X540428098Y34527299D01*
X540710948Y34864473D01*
X541015503Y35227683D01*
X541333694Y35607315D01*
X541657456Y35993755D01*
X541794898Y36157797D01*
X542142849Y36572202D01*
X542436912Y36919965D01*
X542683061Y37206919D01*
X542887270Y37438898D01*
X543055515Y37621736D01*
X543193769Y37761268D01*
X543308007Y37863327D01*
X543404203Y37933748D01*
X543488331Y37978364D01*
X543566366Y38003009D01*
X543644282Y38013518D01*
X543728054Y38015725D01*
X543884072Y37992946D01*
X544039856Y37938144D01*
X544069218Y37920039D01*
X544187059Y37818496D01*
X544362708Y37639385D01*
X544596065Y37382817D01*
X544887027Y37048906D01*
X545235496Y36637764D01*
X545641370Y36149503D01*
X545762668Y36003545D01*
X545993374Y35736037D01*
X546183732Y35535815D01*
X546345088Y35395151D01*
X546488786Y35306317D01*
X546626173Y35261586D01*
X546768592Y35253229D01*
X546927391Y35273518D01*
X546962898Y35281174D01*
X547066397Y35317783D01*
X547174034Y35382543D01*
X547296686Y35485282D01*
X547445225Y35635830D01*
X547630527Y35844018D01*
X547863466Y36119675D01*
X547946828Y36219651D01*
X548102624Y36405767D01*
X548230938Y36558088D01*
X548320290Y36663014D01*
X548359201Y36706946D01*
X548372837Y36721997D01*
X548440746Y36801158D01*
X548556605Y36938025D01*
X548711318Y37121804D01*
X548895785Y37341701D01*
X549100910Y37586921D01*
X549206926Y37713142D01*
X549412185Y37953588D01*
X549598036Y38166296D01*
X549753950Y38339470D01*
X549869398Y38461314D01*
X549933849Y38520032D01*
X549956674Y38533196D01*
X550114263Y38580202D01*
X550314163Y38595566D01*
X550515096Y38578770D01*
G37*
G36*
X507645834Y42492466D02*
G01*
X507732148Y42466127D01*
X507747402Y42460062D01*
X507858820Y42397981D01*
X507967474Y42310046D01*
X508062058Y42206675D01*
X508131266Y42098290D01*
X508144454Y42070655D01*
X508166114Y42016247D01*
X508178607Y41962001D01*
X508184333Y41894855D01*
X508185687Y41801744D01*
X508185653Y41785175D01*
X508183510Y41695217D01*
X508176667Y41630908D01*
X508163206Y41580652D01*
X508141209Y41532855D01*
X508134481Y41521926D01*
X508100713Y41476499D01*
X508045538Y41408419D01*
X507972615Y41321986D01*
X507885601Y41221498D01*
X507788154Y41111252D01*
X507683933Y40995547D01*
X507421638Y40705198D01*
X506787689Y39986496D01*
X506183739Y39276340D01*
X505605655Y38569618D01*
X505049302Y37861213D01*
X504510548Y37146012D01*
X503985257Y36418898D01*
X503927163Y36336822D01*
X503843558Y36218786D01*
X503765103Y36108108D01*
X503696149Y36010924D01*
X503641050Y35933373D01*
X503604159Y35881590D01*
X503562556Y35822930D01*
X503438272Y35643563D01*
X503298370Y35436526D01*
X503145710Y35206319D01*
X502983148Y34957445D01*
X502813543Y34694404D01*
X502639753Y34421696D01*
X502464637Y34143824D01*
X502291053Y33865287D01*
X502121858Y33590586D01*
X501959911Y33324224D01*
X501808071Y33070700D01*
X501669195Y32834515D01*
X501634263Y32774760D01*
X501540881Y32619416D01*
X501460273Y32494164D01*
X501389034Y32395315D01*
X501323759Y32319176D01*
X501261043Y32262058D01*
X501197482Y32220270D01*
X501129670Y32190122D01*
X501054203Y32167922D01*
X501006875Y32158895D01*
X500863508Y32157302D01*
X500711717Y32190986D01*
X500555870Y32259147D01*
X500550592Y32262051D01*
X500427332Y32350564D01*
X500328686Y32462070D01*
X500257353Y32590250D01*
X500216035Y32728786D01*
X500207434Y32871356D01*
X500234249Y33011642D01*
X500250235Y33050973D01*
X500288454Y33129133D01*
X500344741Y33235022D01*
X500417367Y33365728D01*
X500504602Y33518336D01*
X500604716Y33689936D01*
X500715979Y33877613D01*
X500836662Y34078456D01*
X500965036Y34289552D01*
X501099370Y34507987D01*
X501237935Y34730850D01*
X501379001Y34955227D01*
X501520839Y35178205D01*
X501576269Y35264549D01*
X501783077Y35582705D01*
X502002042Y35913914D01*
X502227861Y36250372D01*
X502455230Y36584275D01*
X502678846Y36907821D01*
X502893406Y37213204D01*
X503093607Y37492622D01*
X503125017Y37537858D01*
X503144364Y37570070D01*
X503144529Y37578171D01*
X503143504Y37577572D01*
X503117566Y37562388D01*
X503064073Y37531065D01*
X502988512Y37486818D01*
X502896367Y37432856D01*
X502793126Y37372394D01*
X502621340Y37272457D01*
X501994052Y36918050D01*
X501329667Y36558457D01*
X500627804Y36193481D01*
X499888083Y35822922D01*
X499110126Y35446583D01*
X498936044Y35364051D01*
X498701620Y35253731D01*
X498459967Y35140845D01*
X498213927Y35026672D01*
X497966338Y34912488D01*
X497720042Y34799572D01*
X497477879Y34689201D01*
X497242689Y34582652D01*
X497017312Y34481203D01*
X496804590Y34386132D01*
X496607362Y34298716D01*
X496428469Y34220232D01*
X496270750Y34151959D01*
X496137048Y34095173D01*
X496030200Y34051153D01*
X495953049Y34021175D01*
X495908434Y34006518D01*
X495775165Y33987578D01*
X495619159Y33998684D01*
X495472693Y34044852D01*
X495340385Y34123898D01*
X495226851Y34233635D01*
X495136710Y34371876D01*
X495087663Y34483072D01*
X495049661Y34617013D01*
X495031874Y34763446D01*
X495032144Y34933975D01*
X495032838Y34948249D01*
X495040368Y35048426D01*
X495053482Y35142332D01*
X495074131Y35235722D01*
X495104270Y35334348D01*
X495145850Y35443965D01*
X495200825Y35570325D01*
X495271147Y35719183D01*
X495358770Y35896292D01*
X495461956Y36098935D01*
X495747688Y36633729D01*
X496058057Y37180401D01*
X496388054Y37730932D01*
X496732673Y38277305D01*
X497086906Y38811504D01*
X497445745Y39325512D01*
X497804183Y39811311D01*
X497830956Y39846675D01*
X497888520Y39923803D01*
X497934824Y39987375D01*
X497965679Y40031586D01*
X497976895Y40050631D01*
X497961966Y40053937D01*
X497913742Y40056707D01*
X497838216Y40058380D01*
X497741596Y40058824D01*
X497630087Y40057909D01*
X497521941Y40056584D01*
X497423657Y40056349D01*
X497351392Y40058189D01*
X497298064Y40062755D01*
X497256589Y40070701D01*
X497219884Y40082681D01*
X497180866Y40099349D01*
X497070870Y40167555D01*
X496971779Y40268532D01*
X496897094Y40391660D01*
X496893350Y40400054D01*
X496874494Y40452089D01*
X496862904Y40510096D01*
X496857030Y40585082D01*
X496855321Y40688052D01*
X496855716Y40757308D01*
X496859008Y40836054D01*
X496867229Y40895477D01*
X496882279Y40947395D01*
X496906058Y41003624D01*
X496909037Y41009981D01*
X496990779Y41139446D01*
X497099979Y41247970D01*
X497228388Y41327270D01*
X497295484Y41351750D01*
X497391945Y41373627D01*
X497513821Y41389975D01*
X497663792Y41400985D01*
X497844534Y41406845D01*
X498058727Y41407747D01*
X498309049Y41403880D01*
X498503651Y41398634D01*
X498758245Y41388791D01*
X498976929Y41376295D01*
X499161543Y41361011D01*
X499313927Y41342804D01*
X499435920Y41321539D01*
X499444986Y41319559D01*
X499601641Y41266991D01*
X499735577Y41187217D01*
X499844480Y41084615D01*
X499926033Y40963564D01*
X499977923Y40828443D01*
X499997834Y40683630D01*
X499983450Y40533505D01*
X499932456Y40382446D01*
X499932139Y40381767D01*
X499893168Y40306453D01*
X499851131Y40237523D01*
X499815073Y40189821D01*
X499815035Y40189780D01*
X499779252Y40148887D01*
X499723232Y40081583D01*
X499650575Y39992411D01*
X499564877Y39885915D01*
X499469739Y39766639D01*
X499368758Y39639127D01*
X499265533Y39507922D01*
X499163661Y39377568D01*
X499066742Y39252609D01*
X498978373Y39137589D01*
X498902153Y39037052D01*
X498835116Y38947288D01*
X498548094Y38551868D01*
X498257308Y38134334D01*
X497969212Y37704455D01*
X497690259Y37271999D01*
X497426903Y36846736D01*
X497185596Y36438436D01*
X497126577Y36337200D01*
X497061058Y36227163D01*
X496998745Y36124595D01*
X496947630Y36042782D01*
X496919018Y35997493D01*
X496882582Y35937759D01*
X496859300Y35896796D01*
X496853262Y35881590D01*
X496865574Y35886383D01*
X496909819Y35905778D01*
X496982224Y35938313D01*
X497078691Y35982101D01*
X497195123Y36035255D01*
X497327423Y36095889D01*
X497471493Y36162116D01*
X497623235Y36232051D01*
X497778552Y36303805D01*
X497933347Y36375493D01*
X498083523Y36445227D01*
X498224981Y36511123D01*
X498353625Y36571292D01*
X498465357Y36623848D01*
X498477360Y36629517D01*
X499272749Y37012407D01*
X500031075Y37392221D01*
X500754096Y37770111D01*
X501443569Y38147225D01*
X502101251Y38524714D01*
X502728899Y38903726D01*
X503328272Y39285412D01*
X503901126Y39670921D01*
X504449218Y40061403D01*
X504974307Y40458008D01*
X505478149Y40861885D01*
X505962501Y41274184D01*
X506429122Y41696055D01*
X506879768Y42128647D01*
X506932934Y42180909D01*
X507039501Y42282453D01*
X507127655Y42359815D01*
X507202829Y42416357D01*
X507270454Y42455441D01*
X507335962Y42480427D01*
X507404785Y42494678D01*
X507482357Y42501554D01*
X507560847Y42502697D01*
X507645834Y42492466D01*
G37*
%TD*%
D11*
%TO.C,SW1*%
X384816280Y116560000D03*
D12*
X382626280Y116570000D03*
D13*
X382526280Y115920000D03*
X382526280Y116620000D03*
X382526280Y117320000D03*
X381726280Y115920000D03*
X381726280Y116620000D03*
X381726280Y117320000D03*
X380876280Y115920000D03*
X380876280Y116620000D03*
X380876280Y117320000D03*
X395126280Y118320000D03*
X395126280Y119055000D03*
X395126280Y119820000D03*
X394226280Y118320000D03*
X394226280Y119055000D03*
X394226280Y119820000D03*
D12*
X393376280Y119055000D03*
D13*
X393351280Y118320000D03*
X393351280Y119055000D03*
X393326280Y119820000D03*
D11*
X391166280Y119100000D03*
D14*
X393706280Y114020000D03*
D15*
X388626280Y114020000D03*
D14*
X383546280Y114020000D03*
%TD*%
D11*
%TO.C,SW2*%
X403866280Y116560000D03*
D12*
X401676280Y116570000D03*
D13*
X401576280Y115920000D03*
X401576280Y116620000D03*
X401576280Y117320000D03*
X400776280Y115920000D03*
X400776280Y116620000D03*
X400776280Y117320000D03*
X399926280Y115920000D03*
X399926280Y116620000D03*
X399926280Y117320000D03*
X414176280Y118320000D03*
X414176280Y119055000D03*
X414176280Y119820000D03*
X413276280Y118320000D03*
X413276280Y119055000D03*
X413276280Y119820000D03*
D12*
X412426280Y119055000D03*
D13*
X412401280Y118320000D03*
X412401280Y119055000D03*
X412376280Y119820000D03*
D11*
X410216280Y119100000D03*
D14*
X412756280Y114020000D03*
D15*
X407676280Y114020000D03*
D14*
X402596280Y114020000D03*
%TD*%
D11*
%TO.C,SW3*%
X422916280Y116560000D03*
D12*
X420726280Y116570000D03*
D13*
X420626280Y115920000D03*
X420626280Y116620000D03*
X420626280Y117320000D03*
X419826280Y115920000D03*
X419826280Y116620000D03*
X419826280Y117320000D03*
X418976280Y115920000D03*
X418976280Y116620000D03*
X418976280Y117320000D03*
X433226280Y118320000D03*
X433226280Y119055000D03*
X433226280Y119820000D03*
X432326280Y118320000D03*
X432326280Y119055000D03*
X432326280Y119820000D03*
D12*
X431476280Y119055000D03*
D13*
X431451280Y118320000D03*
X431451280Y119055000D03*
X431426280Y119820000D03*
D11*
X429266280Y119100000D03*
D14*
X431806280Y114020000D03*
D15*
X426726280Y114020000D03*
D14*
X421646280Y114020000D03*
%TD*%
D11*
%TO.C,SW4*%
X441966280Y116560000D03*
D12*
X439776280Y116570000D03*
D13*
X439676280Y115920000D03*
X439676280Y116620000D03*
X439676280Y117320000D03*
X438876280Y115920000D03*
X438876280Y116620000D03*
X438876280Y117320000D03*
X438026280Y115920000D03*
X438026280Y116620000D03*
X438026280Y117320000D03*
X452276280Y118320000D03*
X452276280Y119055000D03*
X452276280Y119820000D03*
X451376280Y118320000D03*
X451376280Y119055000D03*
X451376280Y119820000D03*
D12*
X450526280Y119055000D03*
D13*
X450501280Y118320000D03*
X450501280Y119055000D03*
X450476280Y119820000D03*
D11*
X448316280Y119100000D03*
D14*
X450856280Y114020000D03*
D15*
X445776280Y114020000D03*
D14*
X440696280Y114020000D03*
%TD*%
D11*
%TO.C,SW5*%
X461016280Y116560000D03*
D12*
X458826280Y116570000D03*
D13*
X458726280Y115920000D03*
X458726280Y116620000D03*
X458726280Y117320000D03*
X457926280Y115920000D03*
X457926280Y116620000D03*
X457926280Y117320000D03*
X457076280Y115920000D03*
X457076280Y116620000D03*
X457076280Y117320000D03*
X471326280Y118320000D03*
X471326280Y119055000D03*
X471326280Y119820000D03*
X470426280Y118320000D03*
X470426280Y119055000D03*
X470426280Y119820000D03*
D12*
X469576280Y119055000D03*
D13*
X469551280Y118320000D03*
X469551280Y119055000D03*
X469526280Y119820000D03*
D11*
X467366280Y119100000D03*
D14*
X469906280Y114020000D03*
D15*
X464826280Y114020000D03*
D14*
X459746280Y114020000D03*
%TD*%
D11*
%TO.C,SW6*%
X480066280Y116560000D03*
D12*
X477876280Y116570000D03*
D13*
X477776280Y115920000D03*
X477776280Y116620000D03*
X477776280Y117320000D03*
X476976280Y115920000D03*
X476976280Y116620000D03*
X476976280Y117320000D03*
X476126280Y115920000D03*
X476126280Y116620000D03*
X476126280Y117320000D03*
X490376280Y118320000D03*
X490376280Y119055000D03*
X490376280Y119820000D03*
X489476280Y118320000D03*
X489476280Y119055000D03*
X489476280Y119820000D03*
D12*
X488626280Y119055000D03*
D13*
X488601280Y118320000D03*
X488601280Y119055000D03*
X488576280Y119820000D03*
D11*
X486416280Y119100000D03*
D14*
X488956280Y114020000D03*
D15*
X483876280Y114020000D03*
D14*
X478796280Y114020000D03*
%TD*%
D11*
%TO.C,SW7*%
X499116280Y116560000D03*
D12*
X496926280Y116570000D03*
D13*
X496826280Y115920000D03*
X496826280Y116620000D03*
X496826280Y117320000D03*
X496026280Y115920000D03*
X496026280Y116620000D03*
X496026280Y117320000D03*
X495176280Y115920000D03*
X495176280Y116620000D03*
X495176280Y117320000D03*
X509426280Y118320000D03*
X509426280Y119055000D03*
X509426280Y119820000D03*
X508526280Y118320000D03*
X508526280Y119055000D03*
X508526280Y119820000D03*
D12*
X507676280Y119055000D03*
D13*
X507651280Y118320000D03*
X507651280Y119055000D03*
X507626280Y119820000D03*
D11*
X505466280Y119100000D03*
D14*
X508006280Y114020000D03*
D15*
X502926280Y114020000D03*
D14*
X497846280Y114020000D03*
%TD*%
D11*
%TO.C,SW8*%
X518166280Y116560000D03*
D12*
X515976280Y116570000D03*
D13*
X515876280Y115920000D03*
X515876280Y116620000D03*
X515876280Y117320000D03*
X515076280Y115920000D03*
X515076280Y116620000D03*
X515076280Y117320000D03*
X514226280Y115920000D03*
X514226280Y116620000D03*
X514226280Y117320000D03*
X528476280Y118320000D03*
X528476280Y119055000D03*
X528476280Y119820000D03*
X527576280Y118320000D03*
X527576280Y119055000D03*
X527576280Y119820000D03*
D12*
X526726280Y119055000D03*
D13*
X526701280Y118320000D03*
X526701280Y119055000D03*
X526676280Y119820000D03*
D11*
X524516280Y119100000D03*
D14*
X527056280Y114020000D03*
D15*
X521976280Y114020000D03*
D14*
X516896280Y114020000D03*
%TD*%
D11*
%TO.C,SW9*%
X537216280Y116560000D03*
D12*
X535026280Y116570000D03*
D13*
X534926280Y115920000D03*
X534926280Y116620000D03*
X534926280Y117320000D03*
X534126280Y115920000D03*
X534126280Y116620000D03*
X534126280Y117320000D03*
X533276280Y115920000D03*
X533276280Y116620000D03*
X533276280Y117320000D03*
X547526280Y118320000D03*
X547526280Y119055000D03*
X547526280Y119820000D03*
X546626280Y118320000D03*
X546626280Y119055000D03*
X546626280Y119820000D03*
D12*
X545776280Y119055000D03*
D13*
X545751280Y118320000D03*
X545751280Y119055000D03*
X545726280Y119820000D03*
D11*
X543566280Y119100000D03*
D14*
X546106280Y114020000D03*
D15*
X541026280Y114020000D03*
D14*
X535946280Y114020000D03*
%TD*%
D11*
%TO.C,SW10*%
X556266280Y116560000D03*
D12*
X554076280Y116570000D03*
D13*
X553976280Y115920000D03*
X553976280Y116620000D03*
X553976280Y117320000D03*
X553176280Y115920000D03*
X553176280Y116620000D03*
X553176280Y117320000D03*
X552326280Y115920000D03*
X552326280Y116620000D03*
X552326280Y117320000D03*
X566576280Y118320000D03*
X566576280Y119055000D03*
X566576280Y119820000D03*
X565676280Y118320000D03*
X565676280Y119055000D03*
X565676280Y119820000D03*
D12*
X564826280Y119055000D03*
D13*
X564801280Y118320000D03*
X564801280Y119055000D03*
X564776280Y119820000D03*
D11*
X562616280Y119100000D03*
D14*
X565156280Y114020000D03*
D15*
X560076280Y114020000D03*
D14*
X554996280Y114020000D03*
%TD*%
D11*
%TO.C,SW11*%
X575316280Y116560000D03*
D12*
X573126280Y116570000D03*
D13*
X573026280Y115920000D03*
X573026280Y116620000D03*
X573026280Y117320000D03*
X572226280Y115920000D03*
X572226280Y116620000D03*
X572226280Y117320000D03*
X571376280Y115920000D03*
X571376280Y116620000D03*
X571376280Y117320000D03*
X585626280Y118320000D03*
X585626280Y119055000D03*
X585626280Y119820000D03*
X584726280Y118320000D03*
X584726280Y119055000D03*
X584726280Y119820000D03*
D12*
X583876280Y119055000D03*
D13*
X583851280Y118320000D03*
X583851280Y119055000D03*
X583826280Y119820000D03*
D11*
X581666280Y119100000D03*
D14*
X584206280Y114020000D03*
D15*
X579126280Y114020000D03*
D14*
X574046280Y114020000D03*
%TD*%
D11*
%TO.C,SW12*%
X594366280Y116560000D03*
D12*
X592176280Y116570000D03*
D13*
X592076280Y115920000D03*
X592076280Y116620000D03*
X592076280Y117320000D03*
X591276280Y115920000D03*
X591276280Y116620000D03*
X591276280Y117320000D03*
X590426280Y115920000D03*
X590426280Y116620000D03*
X590426280Y117320000D03*
X604676280Y118320000D03*
X604676280Y119055000D03*
X604676280Y119820000D03*
X603776280Y118320000D03*
X603776280Y119055000D03*
X603776280Y119820000D03*
D12*
X602926280Y119055000D03*
D13*
X602901280Y118320000D03*
X602901280Y119055000D03*
X602876280Y119820000D03*
D11*
X600716280Y119100000D03*
D14*
X603256280Y114020000D03*
D15*
X598176280Y114020000D03*
D14*
X593096280Y114020000D03*
%TD*%
D11*
%TO.C,SW13*%
X613416280Y116560000D03*
D12*
X611226280Y116570000D03*
D13*
X611126280Y115920000D03*
X611126280Y116620000D03*
X611126280Y117320000D03*
X610326280Y115920000D03*
X610326280Y116620000D03*
X610326280Y117320000D03*
X609476280Y115920000D03*
X609476280Y116620000D03*
X609476280Y117320000D03*
X623726280Y118320000D03*
X623726280Y119055000D03*
X623726280Y119820000D03*
X622826280Y118320000D03*
X622826280Y119055000D03*
X622826280Y119820000D03*
D12*
X621976280Y119055000D03*
D13*
X621951280Y118320000D03*
X621951280Y119055000D03*
X621926280Y119820000D03*
D11*
X619766280Y119100000D03*
D14*
X622306280Y114020000D03*
D15*
X617226280Y114020000D03*
D14*
X612146280Y114020000D03*
%TD*%
D11*
%TO.C,SW14*%
X640086280Y111480000D03*
D12*
X642276280Y111470000D03*
D13*
X642376280Y112120000D03*
X642376280Y111420000D03*
X642376280Y110720000D03*
X643176280Y112120000D03*
X643176280Y111420000D03*
X643176280Y110720000D03*
X644026280Y112120000D03*
X644026280Y111420000D03*
X644026280Y110720000D03*
X629776280Y109720000D03*
X629776280Y108985000D03*
X629776280Y108220000D03*
X630676280Y109720000D03*
X630676280Y108985000D03*
X630676280Y108220000D03*
D12*
X631526280Y108985000D03*
D13*
X631551280Y109720000D03*
X631551280Y108985000D03*
X631576280Y108220000D03*
D11*
X633736280Y108940000D03*
D14*
X631196280Y114020000D03*
D15*
X636276280Y114020000D03*
D14*
X641356280Y114020000D03*
%TD*%
D11*
%TO.C,SW15*%
X659136280Y111480000D03*
D12*
X661326280Y111470000D03*
D13*
X661426280Y112120000D03*
X661426280Y111420000D03*
X661426280Y110720000D03*
X662226280Y112120000D03*
X662226280Y111420000D03*
X662226280Y110720000D03*
X663076280Y112120000D03*
X663076280Y111420000D03*
X663076280Y110720000D03*
X648826280Y109720000D03*
X648826280Y108985000D03*
X648826280Y108220000D03*
X649726280Y109720000D03*
X649726280Y108985000D03*
X649726280Y108220000D03*
D12*
X650576280Y108985000D03*
D13*
X650601280Y109720000D03*
X650601280Y108985000D03*
X650626280Y108220000D03*
D11*
X652786280Y108940000D03*
D14*
X650246280Y114020000D03*
D15*
X655326280Y114020000D03*
D14*
X660406280Y114020000D03*
%TD*%
D11*
%TO.C,SW16*%
X389579280Y97510000D03*
D12*
X387389280Y97520000D03*
D13*
X387289280Y96870000D03*
X387289280Y97570000D03*
X387289280Y98270000D03*
X386489280Y96870000D03*
X386489280Y97570000D03*
X386489280Y98270000D03*
X385639280Y96870000D03*
X385639280Y97570000D03*
X385639280Y98270000D03*
X399889280Y99270000D03*
X399889280Y100005000D03*
X399889280Y100770000D03*
X398989280Y99270000D03*
X398989280Y100005000D03*
X398989280Y100770000D03*
D12*
X398139280Y100005000D03*
D13*
X398114280Y99270000D03*
X398114280Y100005000D03*
X398089280Y100770000D03*
D11*
X395929280Y100050000D03*
D14*
X398469280Y94970000D03*
D16*
X393389280Y94970000D03*
D15*
X393389280Y94970000D03*
D14*
X388309280Y94970000D03*
%TD*%
D11*
%TO.C,SW17*%
X413391280Y97510000D03*
D12*
X411201280Y97520000D03*
D13*
X411101280Y96870000D03*
X411101280Y97570000D03*
X411101280Y98270000D03*
X410301280Y96870000D03*
X410301280Y97570000D03*
X410301280Y98270000D03*
X409451280Y96870000D03*
X409451280Y97570000D03*
X409451280Y98270000D03*
X423701280Y99270000D03*
X423701280Y100005000D03*
X423701280Y100770000D03*
X422801280Y99270000D03*
X422801280Y100005000D03*
X422801280Y100770000D03*
D12*
X421951280Y100005000D03*
D13*
X421926280Y99270000D03*
X421926280Y100005000D03*
X421901280Y100770000D03*
D11*
X419741280Y100050000D03*
D14*
X422281280Y94970000D03*
D15*
X417201280Y94970000D03*
D14*
X412121280Y94970000D03*
%TD*%
D11*
%TO.C,SW18*%
X432441280Y97510000D03*
D12*
X430251280Y97520000D03*
D13*
X430151280Y96870000D03*
X430151280Y97570000D03*
X430151280Y98270000D03*
X429351280Y96870000D03*
X429351280Y97570000D03*
X429351280Y98270000D03*
X428501280Y96870000D03*
X428501280Y97570000D03*
X428501280Y98270000D03*
X442751280Y99270000D03*
X442751280Y100005000D03*
X442751280Y100770000D03*
X441851280Y99270000D03*
X441851280Y100005000D03*
X441851280Y100770000D03*
D12*
X441001280Y100005000D03*
D13*
X440976280Y99270000D03*
X440976280Y100005000D03*
X440951280Y100770000D03*
D11*
X438791280Y100050000D03*
D14*
X441331280Y94970000D03*
D15*
X436251280Y94970000D03*
D14*
X431171280Y94970000D03*
%TD*%
D11*
%TO.C,SW19*%
X451491280Y97510000D03*
D12*
X449301280Y97520000D03*
D13*
X449201280Y96870000D03*
X449201280Y97570000D03*
X449201280Y98270000D03*
X448401280Y96870000D03*
X448401280Y97570000D03*
X448401280Y98270000D03*
X447551280Y96870000D03*
X447551280Y97570000D03*
X447551280Y98270000D03*
X461801280Y99270000D03*
X461801280Y100005000D03*
X461801280Y100770000D03*
X460901280Y99270000D03*
X460901280Y100005000D03*
X460901280Y100770000D03*
D12*
X460051280Y100005000D03*
D13*
X460026280Y99270000D03*
X460026280Y100005000D03*
X460001280Y100770000D03*
D11*
X457841280Y100050000D03*
D14*
X460381280Y94970000D03*
D15*
X455301280Y94970000D03*
D14*
X450221280Y94970000D03*
%TD*%
D11*
%TO.C,SW20*%
X470541280Y97510000D03*
D12*
X468351280Y97520000D03*
D13*
X468251280Y96870000D03*
X468251280Y97570000D03*
X468251280Y98270000D03*
X467451280Y96870000D03*
X467451280Y97570000D03*
X467451280Y98270000D03*
X466601280Y96870000D03*
X466601280Y97570000D03*
X466601280Y98270000D03*
X480851280Y99270000D03*
X480851280Y100005000D03*
X480851280Y100770000D03*
X479951280Y99270000D03*
X479951280Y100005000D03*
X479951280Y100770000D03*
D12*
X479101280Y100005000D03*
D13*
X479076280Y99270000D03*
X479076280Y100005000D03*
X479051280Y100770000D03*
D11*
X476891280Y100050000D03*
D14*
X479431280Y94970000D03*
D15*
X474351280Y94970000D03*
D14*
X469271280Y94970000D03*
%TD*%
D11*
%TO.C,SW21*%
X489591280Y97510000D03*
D12*
X487401280Y97520000D03*
D13*
X487301280Y96870000D03*
X487301280Y97570000D03*
X487301280Y98270000D03*
X486501280Y96870000D03*
X486501280Y97570000D03*
X486501280Y98270000D03*
X485651280Y96870000D03*
X485651280Y97570000D03*
X485651280Y98270000D03*
X499901280Y99270000D03*
X499901280Y100005000D03*
X499901280Y100770000D03*
X499001280Y99270000D03*
X499001280Y100005000D03*
X499001280Y100770000D03*
D12*
X498151280Y100005000D03*
D13*
X498126280Y99270000D03*
X498126280Y100005000D03*
X498101280Y100770000D03*
D11*
X495941280Y100050000D03*
D14*
X498481280Y94970000D03*
D15*
X493401280Y94970000D03*
D14*
X488321280Y94970000D03*
%TD*%
D11*
%TO.C,SW22*%
X508641280Y97510000D03*
D12*
X506451280Y97520000D03*
D13*
X506351280Y96870000D03*
X506351280Y97570000D03*
X506351280Y98270000D03*
X505551280Y96870000D03*
X505551280Y97570000D03*
X505551280Y98270000D03*
X504701280Y96870000D03*
X504701280Y97570000D03*
X504701280Y98270000D03*
X518951280Y99270000D03*
X518951280Y100005000D03*
X518951280Y100770000D03*
X518051280Y99270000D03*
X518051280Y100005000D03*
X518051280Y100770000D03*
D12*
X517201280Y100005000D03*
D13*
X517176280Y99270000D03*
X517176280Y100005000D03*
X517151280Y100770000D03*
D11*
X514991280Y100050000D03*
D14*
X517531280Y94970000D03*
D15*
X512451280Y94970000D03*
D14*
X507371280Y94970000D03*
%TD*%
D11*
%TO.C,SW23*%
X527691280Y97510000D03*
D12*
X525501280Y97520000D03*
D13*
X525401280Y96870000D03*
X525401280Y97570000D03*
X525401280Y98270000D03*
X524601280Y96870000D03*
X524601280Y97570000D03*
X524601280Y98270000D03*
X523751280Y96870000D03*
X523751280Y97570000D03*
X523751280Y98270000D03*
X538001280Y99270000D03*
X538001280Y100005000D03*
X538001280Y100770000D03*
X537101280Y99270000D03*
X537101280Y100005000D03*
X537101280Y100770000D03*
D12*
X536251280Y100005000D03*
D13*
X536226280Y99270000D03*
X536226280Y100005000D03*
X536201280Y100770000D03*
D11*
X534041280Y100050000D03*
D14*
X536581280Y94970000D03*
D15*
X531501280Y94970000D03*
D14*
X526421280Y94970000D03*
%TD*%
D11*
%TO.C,SW24*%
X546741280Y97510000D03*
D12*
X544551280Y97520000D03*
D13*
X544451280Y96870000D03*
X544451280Y97570000D03*
X544451280Y98270000D03*
X543651280Y96870000D03*
X543651280Y97570000D03*
X543651280Y98270000D03*
X542801280Y96870000D03*
X542801280Y97570000D03*
X542801280Y98270000D03*
X557051280Y99270000D03*
X557051280Y100005000D03*
X557051280Y100770000D03*
X556151280Y99270000D03*
X556151280Y100005000D03*
X556151280Y100770000D03*
D12*
X555301280Y100005000D03*
D13*
X555276280Y99270000D03*
X555276280Y100005000D03*
X555251280Y100770000D03*
D11*
X553091280Y100050000D03*
D14*
X555631280Y94970000D03*
D15*
X550551280Y94970000D03*
D14*
X545471280Y94970000D03*
%TD*%
D11*
%TO.C,SW25*%
X565791280Y97510000D03*
D12*
X563601280Y97520000D03*
D13*
X563501280Y96870000D03*
X563501280Y97570000D03*
X563501280Y98270000D03*
X562701280Y96870000D03*
X562701280Y97570000D03*
X562701280Y98270000D03*
X561851280Y96870000D03*
X561851280Y97570000D03*
X561851280Y98270000D03*
X576101280Y99270000D03*
X576101280Y100005000D03*
X576101280Y100770000D03*
X575201280Y99270000D03*
X575201280Y100005000D03*
X575201280Y100770000D03*
D12*
X574351280Y100005000D03*
D13*
X574326280Y99270000D03*
X574326280Y100005000D03*
X574301280Y100770000D03*
D11*
X572141280Y100050000D03*
D14*
X574681280Y94970000D03*
D15*
X569601280Y94970000D03*
D14*
X564521280Y94970000D03*
%TD*%
D11*
%TO.C,SW26*%
X584841280Y97510000D03*
D12*
X582651280Y97520000D03*
D13*
X582551280Y96870000D03*
X582551280Y97570000D03*
X582551280Y98270000D03*
X581751280Y96870000D03*
X581751280Y97570000D03*
X581751280Y98270000D03*
X580901280Y96870000D03*
X580901280Y97570000D03*
X580901280Y98270000D03*
X595151280Y99270000D03*
X595151280Y100005000D03*
X595151280Y100770000D03*
X594251280Y99270000D03*
X594251280Y100005000D03*
X594251280Y100770000D03*
D12*
X593401280Y100005000D03*
D13*
X593376280Y99270000D03*
X593376280Y100005000D03*
X593351280Y100770000D03*
D11*
X591191280Y100050000D03*
D14*
X593731280Y94970000D03*
D15*
X588651280Y94970000D03*
D14*
X583571280Y94970000D03*
%TD*%
D11*
%TO.C,SW27*%
X603891280Y97510000D03*
D12*
X601701280Y97520000D03*
D13*
X601601280Y96870000D03*
X601601280Y97570000D03*
X601601280Y98270000D03*
X600801280Y96870000D03*
X600801280Y97570000D03*
X600801280Y98270000D03*
X599951280Y96870000D03*
X599951280Y97570000D03*
X599951280Y98270000D03*
X614201280Y99270000D03*
X614201280Y100005000D03*
X614201280Y100770000D03*
X613301280Y99270000D03*
X613301280Y100005000D03*
X613301280Y100770000D03*
D12*
X612451280Y100005000D03*
D13*
X612426280Y99270000D03*
X612426280Y100005000D03*
X612401280Y100770000D03*
D11*
X610241280Y100050000D03*
D14*
X612781280Y94970000D03*
D15*
X607701280Y94970000D03*
D14*
X602621280Y94970000D03*
%TD*%
D11*
%TO.C,SW28*%
X622941280Y97510000D03*
D12*
X620751280Y97520000D03*
D13*
X620651280Y96870000D03*
X620651280Y97570000D03*
X620651280Y98270000D03*
X619851280Y96870000D03*
X619851280Y97570000D03*
X619851280Y98270000D03*
X619001280Y96870000D03*
X619001280Y97570000D03*
X619001280Y98270000D03*
X633251280Y99270000D03*
X633251280Y100005000D03*
X633251280Y100770000D03*
X632351280Y99270000D03*
X632351280Y100005000D03*
X632351280Y100770000D03*
D12*
X631501280Y100005000D03*
D13*
X631476280Y99270000D03*
X631476280Y100005000D03*
X631451280Y100770000D03*
D11*
X629291280Y100050000D03*
D14*
X631831280Y94970000D03*
D15*
X626751280Y94970000D03*
D14*
X621671280Y94970000D03*
%TD*%
D11*
%TO.C,SW29*%
X646754280Y97510000D03*
D12*
X644564280Y97520000D03*
D13*
X644464280Y96870000D03*
X644464280Y97570000D03*
X644464280Y98270000D03*
X643664280Y96870000D03*
X643664280Y97570000D03*
X643664280Y98270000D03*
X642814280Y96870000D03*
X642814280Y97570000D03*
X642814280Y98270000D03*
X657064280Y99270000D03*
X657064280Y100005000D03*
X657064280Y100770000D03*
X656164280Y99270000D03*
X656164280Y100005000D03*
X656164280Y100770000D03*
D12*
X655314280Y100005000D03*
D13*
X655289280Y99270000D03*
X655289280Y100005000D03*
X655264280Y100770000D03*
D11*
X653104280Y100050000D03*
D14*
X655644280Y94970000D03*
D16*
X650564280Y94970000D03*
D15*
X650564280Y94970000D03*
D14*
X645484280Y94970000D03*
%TD*%
D11*
%TO.C,SW30*%
X399580280Y73380000D03*
D12*
X401770280Y73370000D03*
D13*
X401870280Y74020000D03*
X401870280Y73320000D03*
X401870280Y72620000D03*
X402670280Y74020000D03*
X402670280Y73320000D03*
X402670280Y72620000D03*
X403520280Y74020000D03*
X403520280Y73320000D03*
X403520280Y72620000D03*
X389270280Y71620000D03*
X389270280Y70885000D03*
X389270280Y70120000D03*
X390170280Y71620000D03*
X390170280Y70885000D03*
X390170280Y70120000D03*
D12*
X391020280Y70885000D03*
D13*
X391045280Y71620000D03*
X391045280Y70885000D03*
X391070280Y70120000D03*
D11*
X393230280Y70840000D03*
D14*
X390690280Y75920000D03*
D15*
X395770280Y75920000D03*
D14*
X400850280Y75920000D03*
%TD*%
D11*
%TO.C,SW31*%
X418153780Y78460000D03*
D12*
X415963780Y78470000D03*
D13*
X415863780Y77820000D03*
X415863780Y78520000D03*
X415863780Y79220000D03*
X415063780Y77820000D03*
X415063780Y78520000D03*
X415063780Y79220000D03*
X414213780Y77820000D03*
X414213780Y78520000D03*
X414213780Y79220000D03*
X428463780Y80220000D03*
X428463780Y80955000D03*
X428463780Y81720000D03*
X427563780Y80220000D03*
X427563780Y80955000D03*
X427563780Y81720000D03*
D12*
X426713780Y80955000D03*
D13*
X426688780Y80220000D03*
X426688780Y80955000D03*
X426663780Y81720000D03*
D11*
X424503780Y81000000D03*
D14*
X427043780Y75920000D03*
D15*
X421963780Y75920000D03*
D14*
X416883780Y75920000D03*
%TD*%
D11*
%TO.C,SW32*%
X437203780Y78460000D03*
D12*
X435013780Y78470000D03*
D13*
X434913780Y77820000D03*
X434913780Y78520000D03*
X434913780Y79220000D03*
X434113780Y77820000D03*
X434113780Y78520000D03*
X434113780Y79220000D03*
X433263780Y77820000D03*
X433263780Y78520000D03*
X433263780Y79220000D03*
X447513780Y80220000D03*
X447513780Y80955000D03*
X447513780Y81720000D03*
X446613780Y80220000D03*
X446613780Y80955000D03*
X446613780Y81720000D03*
D12*
X445763780Y80955000D03*
D13*
X445738780Y80220000D03*
X445738780Y80955000D03*
X445713780Y81720000D03*
D11*
X443553780Y81000000D03*
D14*
X446093780Y75920000D03*
D15*
X441013780Y75920000D03*
D14*
X435933780Y75920000D03*
%TD*%
D11*
%TO.C,SW33*%
X456253780Y78460000D03*
D12*
X454063780Y78470000D03*
D13*
X453963780Y77820000D03*
X453963780Y78520000D03*
X453963780Y79220000D03*
X453163780Y77820000D03*
X453163780Y78520000D03*
X453163780Y79220000D03*
X452313780Y77820000D03*
X452313780Y78520000D03*
X452313780Y79220000D03*
X466563780Y80220000D03*
X466563780Y80955000D03*
X466563780Y81720000D03*
X465663780Y80220000D03*
X465663780Y80955000D03*
X465663780Y81720000D03*
D12*
X464813780Y80955000D03*
D13*
X464788780Y80220000D03*
X464788780Y80955000D03*
X464763780Y81720000D03*
D11*
X462603780Y81000000D03*
D14*
X465143780Y75920000D03*
D15*
X460063780Y75920000D03*
D14*
X454983780Y75920000D03*
%TD*%
D11*
%TO.C,SW34*%
X475303780Y78460000D03*
D12*
X473113780Y78470000D03*
D13*
X473013780Y77820000D03*
X473013780Y78520000D03*
X473013780Y79220000D03*
X472213780Y77820000D03*
X472213780Y78520000D03*
X472213780Y79220000D03*
X471363780Y77820000D03*
X471363780Y78520000D03*
X471363780Y79220000D03*
X485613780Y80220000D03*
X485613780Y80955000D03*
X485613780Y81720000D03*
X484713780Y80220000D03*
X484713780Y80955000D03*
X484713780Y81720000D03*
D12*
X483863780Y80955000D03*
D13*
X483838780Y80220000D03*
X483838780Y80955000D03*
X483813780Y81720000D03*
D11*
X481653780Y81000000D03*
D14*
X484193780Y75920000D03*
D15*
X479113780Y75920000D03*
D14*
X474033780Y75920000D03*
%TD*%
D11*
%TO.C,SW35*%
X494353780Y78460000D03*
D12*
X492163780Y78470000D03*
D13*
X492063780Y77820000D03*
X492063780Y78520000D03*
X492063780Y79220000D03*
X491263780Y77820000D03*
X491263780Y78520000D03*
X491263780Y79220000D03*
X490413780Y77820000D03*
X490413780Y78520000D03*
X490413780Y79220000D03*
X504663780Y80220000D03*
X504663780Y80955000D03*
X504663780Y81720000D03*
X503763780Y80220000D03*
X503763780Y80955000D03*
X503763780Y81720000D03*
D12*
X502913780Y80955000D03*
D13*
X502888780Y80220000D03*
X502888780Y80955000D03*
X502863780Y81720000D03*
D11*
X500703780Y81000000D03*
D14*
X503243780Y75920000D03*
D15*
X498163780Y75920000D03*
D14*
X493083780Y75920000D03*
%TD*%
D11*
%TO.C,SW36*%
X513403780Y78460000D03*
D12*
X511213780Y78470000D03*
D13*
X511113780Y77820000D03*
X511113780Y78520000D03*
X511113780Y79220000D03*
X510313780Y77820000D03*
X510313780Y78520000D03*
X510313780Y79220000D03*
X509463780Y77820000D03*
X509463780Y78520000D03*
X509463780Y79220000D03*
X523713780Y80220000D03*
X523713780Y80955000D03*
X523713780Y81720000D03*
X522813780Y80220000D03*
X522813780Y80955000D03*
X522813780Y81720000D03*
D12*
X521963780Y80955000D03*
D13*
X521938780Y80220000D03*
X521938780Y80955000D03*
X521913780Y81720000D03*
D11*
X519753780Y81000000D03*
D14*
X522293780Y75920000D03*
D15*
X517213780Y75920000D03*
D14*
X512133780Y75920000D03*
%TD*%
D11*
%TO.C,SW37*%
X532453780Y78460000D03*
D12*
X530263780Y78470000D03*
D13*
X530163780Y77820000D03*
X530163780Y78520000D03*
X530163780Y79220000D03*
X529363780Y77820000D03*
X529363780Y78520000D03*
X529363780Y79220000D03*
X528513780Y77820000D03*
X528513780Y78520000D03*
X528513780Y79220000D03*
X542763780Y80220000D03*
X542763780Y80955000D03*
X542763780Y81720000D03*
X541863780Y80220000D03*
X541863780Y80955000D03*
X541863780Y81720000D03*
D12*
X541013780Y80955000D03*
D13*
X540988780Y80220000D03*
X540988780Y80955000D03*
X540963780Y81720000D03*
D11*
X538803780Y81000000D03*
D14*
X541343780Y75920000D03*
D15*
X536263780Y75920000D03*
D14*
X531183780Y75920000D03*
%TD*%
D11*
%TO.C,SW38*%
X551503780Y78460000D03*
D12*
X549313780Y78470000D03*
D13*
X549213780Y77820000D03*
X549213780Y78520000D03*
X549213780Y79220000D03*
X548413780Y77820000D03*
X548413780Y78520000D03*
X548413780Y79220000D03*
X547563780Y77820000D03*
X547563780Y78520000D03*
X547563780Y79220000D03*
X561813780Y80220000D03*
X561813780Y80955000D03*
X561813780Y81720000D03*
X560913780Y80220000D03*
X560913780Y80955000D03*
X560913780Y81720000D03*
D12*
X560063780Y80955000D03*
D13*
X560038780Y80220000D03*
X560038780Y80955000D03*
X560013780Y81720000D03*
D11*
X557853780Y81000000D03*
D14*
X560393780Y75920000D03*
D15*
X555313780Y75920000D03*
D14*
X550233780Y75920000D03*
%TD*%
D11*
%TO.C,SW39*%
X570553780Y78460000D03*
D12*
X568363780Y78470000D03*
D13*
X568263780Y77820000D03*
X568263780Y78520000D03*
X568263780Y79220000D03*
X567463780Y77820000D03*
X567463780Y78520000D03*
X567463780Y79220000D03*
X566613780Y77820000D03*
X566613780Y78520000D03*
X566613780Y79220000D03*
X580863780Y80220000D03*
X580863780Y80955000D03*
X580863780Y81720000D03*
X579963780Y80220000D03*
X579963780Y80955000D03*
X579963780Y81720000D03*
D12*
X579113780Y80955000D03*
D13*
X579088780Y80220000D03*
X579088780Y80955000D03*
X579063780Y81720000D03*
D11*
X576903780Y81000000D03*
D14*
X579443780Y75920000D03*
D15*
X574363780Y75920000D03*
D14*
X569283780Y75920000D03*
%TD*%
D11*
%TO.C,SW40*%
X589603780Y78460000D03*
D12*
X587413780Y78470000D03*
D13*
X587313780Y77820000D03*
X587313780Y78520000D03*
X587313780Y79220000D03*
X586513780Y77820000D03*
X586513780Y78520000D03*
X586513780Y79220000D03*
X585663780Y77820000D03*
X585663780Y78520000D03*
X585663780Y79220000D03*
X599913780Y80220000D03*
X599913780Y80955000D03*
X599913780Y81720000D03*
X599013780Y80220000D03*
X599013780Y80955000D03*
X599013780Y81720000D03*
D12*
X598163780Y80955000D03*
D13*
X598138780Y80220000D03*
X598138780Y80955000D03*
X598113780Y81720000D03*
D11*
X595953780Y81000000D03*
D14*
X598493780Y75920000D03*
D15*
X593413780Y75920000D03*
D14*
X588333780Y75920000D03*
%TD*%
D11*
%TO.C,SW41*%
X608653780Y78460000D03*
D12*
X606463780Y78470000D03*
D13*
X606363780Y77820000D03*
X606363780Y78520000D03*
X606363780Y79220000D03*
X605563780Y77820000D03*
X605563780Y78520000D03*
X605563780Y79220000D03*
X604713780Y77820000D03*
X604713780Y78520000D03*
X604713780Y79220000D03*
X618963780Y80220000D03*
X618963780Y80955000D03*
X618963780Y81720000D03*
X618063780Y80220000D03*
X618063780Y80955000D03*
X618063780Y81720000D03*
D12*
X617213780Y80955000D03*
D13*
X617188780Y80220000D03*
X617188780Y80955000D03*
X617163780Y81720000D03*
D11*
X615003780Y81000000D03*
D14*
X617543780Y75920000D03*
D15*
X612463780Y75920000D03*
D14*
X607383780Y75920000D03*
%TD*%
D11*
%TO.C,SW43*%
X639684380Y78460000D03*
D12*
X637494380Y78470000D03*
D13*
X637394380Y77820000D03*
X637394380Y78520000D03*
X637394380Y79220000D03*
X636594380Y77820000D03*
X636594380Y78520000D03*
X636594380Y79220000D03*
X635744380Y77820000D03*
X635744380Y78520000D03*
X635744380Y79220000D03*
X649994380Y80220000D03*
X649994380Y80955000D03*
X649994380Y81720000D03*
X649094380Y80220000D03*
X649094380Y80955000D03*
X649094380Y81720000D03*
D12*
X648244380Y80955000D03*
D13*
X648219380Y80220000D03*
X648219380Y80955000D03*
X648194380Y81720000D03*
D11*
X646034380Y81000000D03*
D15*
X655432380Y67665000D03*
D17*
X655432380Y82905000D03*
D14*
X648574380Y75920000D03*
D15*
X643494380Y75920000D03*
D14*
X638414380Y75920000D03*
D15*
X631556380Y67665000D03*
D17*
X631556380Y82905000D03*
%TD*%
D11*
%TO.C,SW45*%
X427678780Y59410000D03*
D12*
X425488780Y59420000D03*
D13*
X425388780Y58770000D03*
X425388780Y59470000D03*
X425388780Y60170000D03*
X424588780Y58770000D03*
X424588780Y59470000D03*
X424588780Y60170000D03*
X423738780Y58770000D03*
X423738780Y59470000D03*
X423738780Y60170000D03*
X437988780Y61170000D03*
X437988780Y61905000D03*
X437988780Y62670000D03*
X437088780Y61170000D03*
X437088780Y61905000D03*
X437088780Y62670000D03*
D12*
X436238780Y61905000D03*
D13*
X436213780Y61170000D03*
X436213780Y61905000D03*
X436188780Y62670000D03*
D11*
X434028780Y61950000D03*
D14*
X436568780Y56870000D03*
D15*
X431488780Y56870000D03*
D14*
X426408780Y56870000D03*
%TD*%
D11*
%TO.C,SW46*%
X446728780Y59410000D03*
D12*
X444538780Y59420000D03*
D13*
X444438780Y58770000D03*
X444438780Y59470000D03*
X444438780Y60170000D03*
X443638780Y58770000D03*
X443638780Y59470000D03*
X443638780Y60170000D03*
X442788780Y58770000D03*
X442788780Y59470000D03*
X442788780Y60170000D03*
X457038780Y61170000D03*
X457038780Y61905000D03*
X457038780Y62670000D03*
X456138780Y61170000D03*
X456138780Y61905000D03*
X456138780Y62670000D03*
D12*
X455288780Y61905000D03*
D13*
X455263780Y61170000D03*
X455263780Y61905000D03*
X455238780Y62670000D03*
D11*
X453078780Y61950000D03*
D14*
X455618780Y56870000D03*
D15*
X450538780Y56870000D03*
D14*
X445458780Y56870000D03*
%TD*%
D11*
%TO.C,SW47*%
X465778780Y59410000D03*
D12*
X463588780Y59420000D03*
D13*
X463488780Y58770000D03*
X463488780Y59470000D03*
X463488780Y60170000D03*
X462688780Y58770000D03*
X462688780Y59470000D03*
X462688780Y60170000D03*
X461838780Y58770000D03*
X461838780Y59470000D03*
X461838780Y60170000D03*
X476088780Y61170000D03*
X476088780Y61905000D03*
X476088780Y62670000D03*
X475188780Y61170000D03*
X475188780Y61905000D03*
X475188780Y62670000D03*
D12*
X474338780Y61905000D03*
D13*
X474313780Y61170000D03*
X474313780Y61905000D03*
X474288780Y62670000D03*
D11*
X472128780Y61950000D03*
D14*
X474668780Y56870000D03*
D15*
X469588780Y56870000D03*
D14*
X464508780Y56870000D03*
%TD*%
D11*
%TO.C,SW48*%
X484828780Y59410000D03*
D12*
X482638780Y59420000D03*
D13*
X482538780Y58770000D03*
X482538780Y59470000D03*
X482538780Y60170000D03*
X481738780Y58770000D03*
X481738780Y59470000D03*
X481738780Y60170000D03*
X480888780Y58770000D03*
X480888780Y59470000D03*
X480888780Y60170000D03*
X495138780Y61170000D03*
X495138780Y61905000D03*
X495138780Y62670000D03*
X494238780Y61170000D03*
X494238780Y61905000D03*
X494238780Y62670000D03*
D12*
X493388780Y61905000D03*
D13*
X493363780Y61170000D03*
X493363780Y61905000D03*
X493338780Y62670000D03*
D11*
X491178780Y61950000D03*
D14*
X493718780Y56870000D03*
D15*
X488638780Y56870000D03*
D14*
X483558780Y56870000D03*
%TD*%
D11*
%TO.C,SW49*%
X503878780Y59410000D03*
D12*
X501688780Y59420000D03*
D13*
X501588780Y58770000D03*
X501588780Y59470000D03*
X501588780Y60170000D03*
X500788780Y58770000D03*
X500788780Y59470000D03*
X500788780Y60170000D03*
X499938780Y58770000D03*
X499938780Y59470000D03*
X499938780Y60170000D03*
X514188780Y61170000D03*
X514188780Y61905000D03*
X514188780Y62670000D03*
X513288780Y61170000D03*
X513288780Y61905000D03*
X513288780Y62670000D03*
D12*
X512438780Y61905000D03*
D13*
X512413780Y61170000D03*
X512413780Y61905000D03*
X512388780Y62670000D03*
D11*
X510228780Y61950000D03*
D14*
X512768780Y56870000D03*
D15*
X507688780Y56870000D03*
D14*
X502608780Y56870000D03*
%TD*%
D11*
%TO.C,SW50*%
X522928780Y59410000D03*
D12*
X520738780Y59420000D03*
D13*
X520638780Y58770000D03*
X520638780Y59470000D03*
X520638780Y60170000D03*
X519838780Y58770000D03*
X519838780Y59470000D03*
X519838780Y60170000D03*
X518988780Y58770000D03*
X518988780Y59470000D03*
X518988780Y60170000D03*
X533238780Y61170000D03*
X533238780Y61905000D03*
X533238780Y62670000D03*
X532338780Y61170000D03*
X532338780Y61905000D03*
X532338780Y62670000D03*
D12*
X531488780Y61905000D03*
D13*
X531463780Y61170000D03*
X531463780Y61905000D03*
X531438780Y62670000D03*
D11*
X529278780Y61950000D03*
D14*
X531818780Y56870000D03*
D15*
X526738780Y56870000D03*
D14*
X521658780Y56870000D03*
%TD*%
D11*
%TO.C,SW51*%
X541978780Y59410000D03*
D12*
X539788780Y59420000D03*
D13*
X539688780Y58770000D03*
X539688780Y59470000D03*
X539688780Y60170000D03*
X538888780Y58770000D03*
X538888780Y59470000D03*
X538888780Y60170000D03*
X538038780Y58770000D03*
X538038780Y59470000D03*
X538038780Y60170000D03*
X552288780Y61170000D03*
X552288780Y61905000D03*
X552288780Y62670000D03*
X551388780Y61170000D03*
X551388780Y61905000D03*
X551388780Y62670000D03*
D12*
X550538780Y61905000D03*
D13*
X550513780Y61170000D03*
X550513780Y61905000D03*
X550488780Y62670000D03*
D11*
X548328780Y61950000D03*
D14*
X550868780Y56870000D03*
D15*
X545788780Y56870000D03*
D14*
X540708780Y56870000D03*
%TD*%
D11*
%TO.C,SW52*%
X561028780Y59410000D03*
D12*
X558838780Y59420000D03*
D13*
X558738780Y58770000D03*
X558738780Y59470000D03*
X558738780Y60170000D03*
X557938780Y58770000D03*
X557938780Y59470000D03*
X557938780Y60170000D03*
X557088780Y58770000D03*
X557088780Y59470000D03*
X557088780Y60170000D03*
X571338780Y61170000D03*
X571338780Y61905000D03*
X571338780Y62670000D03*
X570438780Y61170000D03*
X570438780Y61905000D03*
X570438780Y62670000D03*
D12*
X569588780Y61905000D03*
D13*
X569563780Y61170000D03*
X569563780Y61905000D03*
X569538780Y62670000D03*
D11*
X567378780Y61950000D03*
D14*
X569918780Y56870000D03*
D15*
X564838780Y56870000D03*
D14*
X559758780Y56870000D03*
%TD*%
D11*
%TO.C,SW53*%
X580078780Y59410000D03*
D12*
X577888780Y59420000D03*
D13*
X577788780Y58770000D03*
X577788780Y59470000D03*
X577788780Y60170000D03*
X576988780Y58770000D03*
X576988780Y59470000D03*
X576988780Y60170000D03*
X576138780Y58770000D03*
X576138780Y59470000D03*
X576138780Y60170000D03*
X590388780Y61170000D03*
X590388780Y61905000D03*
X590388780Y62670000D03*
X589488780Y61170000D03*
X589488780Y61905000D03*
X589488780Y62670000D03*
D12*
X588638780Y61905000D03*
D13*
X588613780Y61170000D03*
X588613780Y61905000D03*
X588588780Y62670000D03*
D11*
X586428780Y61950000D03*
D14*
X588968780Y56870000D03*
D15*
X583888780Y56870000D03*
D14*
X578808780Y56870000D03*
%TD*%
D11*
%TO.C,SW54*%
X599128780Y59410000D03*
D12*
X596938780Y59420000D03*
D13*
X596838780Y58770000D03*
X596838780Y59470000D03*
X596838780Y60170000D03*
X596038780Y58770000D03*
X596038780Y59470000D03*
X596038780Y60170000D03*
X595188780Y58770000D03*
X595188780Y59470000D03*
X595188780Y60170000D03*
X609438780Y61170000D03*
X609438780Y61905000D03*
X609438780Y62670000D03*
X608538780Y61170000D03*
X608538780Y61905000D03*
X608538780Y62670000D03*
D12*
X607688780Y61905000D03*
D13*
X607663780Y61170000D03*
X607663780Y61905000D03*
X607638780Y62670000D03*
D11*
X605478780Y61950000D03*
D14*
X608018780Y56870000D03*
D15*
X602938780Y56870000D03*
D14*
X597858780Y56870000D03*
%TD*%
D11*
%TO.C,SW55*%
X625322780Y59410000D03*
D12*
X623132780Y59420000D03*
D13*
X623032780Y58770000D03*
X623032780Y59470000D03*
X623032780Y60170000D03*
X622232780Y58770000D03*
X622232780Y59470000D03*
X622232780Y60170000D03*
X621382780Y58770000D03*
X621382780Y59470000D03*
X621382780Y60170000D03*
X635632780Y61170000D03*
X635632780Y61905000D03*
X635632780Y62670000D03*
X634732780Y61170000D03*
X634732780Y61905000D03*
X634732780Y62670000D03*
D12*
X633882780Y61905000D03*
D13*
X633857780Y61170000D03*
X633857780Y61905000D03*
X633832780Y62670000D03*
D11*
X631672780Y61950000D03*
D14*
X634212780Y56870000D03*
D15*
X629132780Y56870000D03*
D14*
X624052780Y56870000D03*
%TD*%
D11*
%TO.C,SW56*%
X651516280Y59410000D03*
D12*
X649326280Y59420000D03*
D13*
X649226280Y58770000D03*
X649226280Y59470000D03*
X649226280Y60170000D03*
X648426280Y58770000D03*
X648426280Y59470000D03*
X648426280Y60170000D03*
X647576280Y58770000D03*
X647576280Y59470000D03*
X647576280Y60170000D03*
X661826280Y61170000D03*
X661826280Y61905000D03*
X661826280Y62670000D03*
X660926280Y61170000D03*
X660926280Y61905000D03*
X660926280Y62670000D03*
D12*
X660076280Y61905000D03*
D13*
X660051280Y61170000D03*
X660051280Y61905000D03*
X660026280Y62670000D03*
D11*
X657866280Y61950000D03*
D14*
X660406280Y56870000D03*
D15*
X655326280Y56870000D03*
D14*
X650246280Y56870000D03*
%TD*%
D11*
%TO.C,SW57*%
X389579280Y40360000D03*
D12*
X387389280Y40370000D03*
D13*
X387289280Y39720000D03*
X387289280Y40420000D03*
X387289280Y41120000D03*
X386489280Y39720000D03*
X386489280Y40420000D03*
X386489280Y41120000D03*
X385639280Y39720000D03*
X385639280Y40420000D03*
X385639280Y41120000D03*
X399889280Y42120000D03*
X399889280Y42855000D03*
X399889280Y43620000D03*
X398989280Y42120000D03*
X398989280Y42855000D03*
X398989280Y43620000D03*
D12*
X398139280Y42855000D03*
D13*
X398114280Y42120000D03*
X398114280Y42855000D03*
X398089280Y43620000D03*
D11*
X395929280Y42900000D03*
D14*
X398469280Y37820000D03*
D16*
X393389280Y37820000D03*
D15*
X393389280Y37820000D03*
D14*
X388309280Y37820000D03*
%TD*%
D11*
%TO.C,SW58*%
X413391280Y40360000D03*
D12*
X411201280Y40370000D03*
D13*
X411101280Y39720000D03*
X411101280Y40420000D03*
X411101280Y41120000D03*
X410301280Y39720000D03*
X410301280Y40420000D03*
X410301280Y41120000D03*
X409451280Y39720000D03*
X409451280Y40420000D03*
X409451280Y41120000D03*
X423701280Y42120000D03*
X423701280Y42855000D03*
X423701280Y43620000D03*
X422801280Y42120000D03*
X422801280Y42855000D03*
X422801280Y43620000D03*
D12*
X421951280Y42855000D03*
D13*
X421926280Y42120000D03*
X421926280Y42855000D03*
X421901280Y43620000D03*
D11*
X419741280Y42900000D03*
D14*
X422281280Y37820000D03*
D15*
X417201280Y37820000D03*
D14*
X412121280Y37820000D03*
%TD*%
D11*
%TO.C,SW59*%
X437204280Y40360000D03*
D12*
X435014280Y40370000D03*
D13*
X434914280Y39720000D03*
X434914280Y40420000D03*
X434914280Y41120000D03*
X434114280Y39720000D03*
X434114280Y40420000D03*
X434114280Y41120000D03*
X433264280Y39720000D03*
X433264280Y40420000D03*
X433264280Y41120000D03*
X447514280Y42120000D03*
X447514280Y42855000D03*
X447514280Y43620000D03*
X446614280Y42120000D03*
X446614280Y42855000D03*
X446614280Y43620000D03*
D12*
X445764280Y42855000D03*
D13*
X445739280Y42120000D03*
X445739280Y42855000D03*
X445714280Y43620000D03*
D11*
X443554280Y42900000D03*
D14*
X446094280Y37820000D03*
D16*
X441014280Y37820000D03*
D15*
X441014280Y37820000D03*
D14*
X435934280Y37820000D03*
%TD*%
D11*
%TO.C,SW62*%
X518166280Y40360000D03*
D12*
X515976280Y40370000D03*
D13*
X515876280Y39720000D03*
X515876280Y40420000D03*
X515876280Y41120000D03*
X515076280Y39720000D03*
X515076280Y40420000D03*
X515076280Y41120000D03*
X514226280Y39720000D03*
X514226280Y40420000D03*
X514226280Y41120000D03*
X528476280Y42120000D03*
X528476280Y42855000D03*
X528476280Y43620000D03*
X527576280Y42120000D03*
X527576280Y42855000D03*
X527576280Y43620000D03*
D12*
X526726280Y42855000D03*
D13*
X526701280Y42120000D03*
X526701280Y42855000D03*
X526676280Y43620000D03*
D11*
X524516280Y42900000D03*
D17*
X579126280Y30835000D03*
D15*
X579126280Y46075000D03*
D14*
X527056280Y37820000D03*
D15*
X521976280Y37820000D03*
D14*
X516896280Y37820000D03*
D17*
X464826280Y30835000D03*
D15*
X464826280Y46075000D03*
%TD*%
D11*
%TO.C,SW68*%
X599129280Y40360000D03*
D12*
X596939280Y40370000D03*
D13*
X596839280Y39720000D03*
X596839280Y40420000D03*
X596839280Y41120000D03*
X596039280Y39720000D03*
X596039280Y40420000D03*
X596039280Y41120000D03*
X595189280Y39720000D03*
X595189280Y40420000D03*
X595189280Y41120000D03*
X609439280Y42120000D03*
X609439280Y42855000D03*
X609439280Y43620000D03*
X608539280Y42120000D03*
X608539280Y42855000D03*
X608539280Y43620000D03*
D12*
X607689280Y42855000D03*
D13*
X607664280Y42120000D03*
X607664280Y42855000D03*
X607639280Y43620000D03*
D11*
X605479280Y42900000D03*
D14*
X608019280Y37820000D03*
D16*
X602939280Y37820000D03*
D15*
X602939280Y37820000D03*
D14*
X597859280Y37820000D03*
%TD*%
D11*
%TO.C,SW69*%
X622941280Y40360000D03*
D12*
X620751280Y40370000D03*
D13*
X620651280Y39720000D03*
X620651280Y40420000D03*
X620651280Y41120000D03*
X619851280Y39720000D03*
X619851280Y40420000D03*
X619851280Y41120000D03*
X619001280Y39720000D03*
X619001280Y40420000D03*
X619001280Y41120000D03*
X633251280Y42120000D03*
X633251280Y42855000D03*
X633251280Y43620000D03*
X632351280Y42120000D03*
X632351280Y42855000D03*
X632351280Y43620000D03*
D12*
X631501280Y42855000D03*
D13*
X631476280Y42120000D03*
X631476280Y42855000D03*
X631451280Y43620000D03*
D11*
X629291280Y42900000D03*
D14*
X631831280Y37820000D03*
D15*
X626751280Y37820000D03*
D14*
X621671280Y37820000D03*
%TD*%
D11*
%TO.C,SW70*%
X646754280Y40360000D03*
D12*
X644564280Y40370000D03*
D13*
X644464280Y39720000D03*
X644464280Y40420000D03*
X644464280Y41120000D03*
X643664280Y39720000D03*
X643664280Y40420000D03*
X643664280Y41120000D03*
X642814280Y39720000D03*
X642814280Y40420000D03*
X642814280Y41120000D03*
X657064280Y42120000D03*
X657064280Y42855000D03*
X657064280Y43620000D03*
X656164280Y42120000D03*
X656164280Y42855000D03*
X656164280Y43620000D03*
D12*
X655314280Y42855000D03*
D13*
X655289280Y42120000D03*
X655289280Y42855000D03*
X655264280Y43620000D03*
D11*
X653104280Y42900000D03*
D14*
X655644280Y37820000D03*
D16*
X650564280Y37820000D03*
D15*
X650564280Y37820000D03*
D14*
X645484280Y37820000D03*
%TD*%
D11*
%TO.C,SW1000*%
X396796880Y59410000D03*
D12*
X394606880Y59420000D03*
D13*
X394506880Y58770000D03*
X394506880Y59470000D03*
X394506880Y60170000D03*
X393706880Y58770000D03*
X393706880Y59470000D03*
X393706880Y60170000D03*
X392856880Y58770000D03*
X392856880Y59470000D03*
X392856880Y60170000D03*
X407106880Y61170000D03*
X407106880Y61905000D03*
X407106880Y62670000D03*
X406206880Y61170000D03*
X406206880Y61905000D03*
X406206880Y62670000D03*
D12*
X405356880Y61905000D03*
D13*
X405331880Y61170000D03*
X405331880Y61905000D03*
X405306880Y62670000D03*
D11*
X403146880Y61950000D03*
D15*
X412544880Y48615000D03*
D17*
X412544880Y63855000D03*
D14*
X405686880Y56870000D03*
D15*
X400606880Y56870000D03*
D14*
X395526880Y56870000D03*
D15*
X388668880Y48615000D03*
D17*
X388668880Y63855000D03*
%TD*%
D11*
%TO.C,SW1001*%
X387197280Y78460000D03*
D12*
X385007280Y78470000D03*
D13*
X384907280Y77820000D03*
X384907280Y78520000D03*
X384907280Y79220000D03*
X384107280Y77820000D03*
X384107280Y78520000D03*
X384107280Y79220000D03*
X383257280Y77820000D03*
X383257280Y78520000D03*
X383257280Y79220000D03*
X397507280Y80220000D03*
X397507280Y80955000D03*
X397507280Y81720000D03*
X396607280Y80220000D03*
X396607280Y80955000D03*
X396607280Y81720000D03*
D12*
X395757280Y80955000D03*
D13*
X395732280Y80220000D03*
X395732280Y80955000D03*
X395707280Y81720000D03*
D11*
X393547280Y81000000D03*
D14*
X396087280Y75920000D03*
D15*
X391007280Y75920000D03*
D14*
X385927280Y75920000D03*
%TD*%
D11*
%TO.C,SW1002*%
X641991280Y116560000D03*
D12*
X639801280Y116570000D03*
D13*
X639701280Y115920000D03*
X639701280Y116620000D03*
X639701280Y117320000D03*
X638901280Y115920000D03*
X638901280Y116620000D03*
X638901280Y117320000D03*
X638051280Y115920000D03*
X638051280Y116620000D03*
X638051280Y117320000D03*
X652301280Y118320000D03*
X652301280Y119055000D03*
X652301280Y119820000D03*
X651401280Y118320000D03*
X651401280Y119055000D03*
X651401280Y119820000D03*
D12*
X650551280Y119055000D03*
D13*
X650526280Y118320000D03*
X650526280Y119055000D03*
X650501280Y119820000D03*
D11*
X648341280Y119100000D03*
D15*
X657739280Y105765000D03*
D17*
X657739280Y121005000D03*
D14*
X650881280Y114020000D03*
D15*
X645801280Y114020000D03*
D14*
X640721280Y114020000D03*
D15*
X633863280Y105765000D03*
D17*
X633863280Y121005000D03*
%TD*%
D18*
%TO.C,D7*%
X499788780Y110270000D03*
X499788780Y113570000D03*
%TD*%
D19*
%TO.C,Drgb32*%
X489568780Y65490000D03*
X489568780Y68790000D03*
X494468780Y68790000D03*
X494468780Y65490000D03*
%TD*%
D18*
%TO.C,D57*%
X390251780Y34070000D03*
X390251780Y37370000D03*
%TD*%
%TO.C,D16*%
X390251780Y91220000D03*
X390251780Y94520000D03*
%TD*%
D19*
%TO.C,Drgb26*%
X478178780Y87320000D03*
X478178780Y84020000D03*
X473278780Y84020000D03*
X473278780Y87320000D03*
%TD*%
D20*
%TO.C,R1*%
X383538780Y53632500D03*
X383538780Y51807500D03*
%TD*%
D18*
%TO.C,D15*%
X625878780Y111320000D03*
X625878780Y114620000D03*
%TD*%
D19*
%TO.C,Drgb22*%
X392358780Y50760000D03*
X392358780Y54060000D03*
X397258780Y54060000D03*
X397258780Y50760000D03*
%TD*%
%TO.C,Drgb29*%
X572018780Y87330000D03*
X572018780Y84030000D03*
X567118780Y84030000D03*
X567118780Y87330000D03*
%TD*%
D18*
%TO.C,D8*%
X518838780Y110270000D03*
X518838780Y113570000D03*
%TD*%
D21*
%TO.C,C7*%
X404208780Y69990000D03*
X406108780Y69990000D03*
%TD*%
D22*
%TO.C,C1*%
X413428780Y74020000D03*
X413428780Y72120000D03*
%TD*%
D18*
%TO.C,D42*%
X387869780Y53120000D03*
X387869780Y56420000D03*
%TD*%
%TO.C,D1*%
X395640000Y110270000D03*
X395640000Y113570000D03*
%TD*%
%TO.C,D37*%
X533126280Y72170000D03*
X533126280Y75470000D03*
%TD*%
%TO.C,D13*%
X614088780Y110270000D03*
X614088780Y113570000D03*
%TD*%
D19*
%TO.C,Drgb7*%
X601658780Y108690000D03*
X601658780Y105390000D03*
X596758780Y105390000D03*
X596758780Y108690000D03*
%TD*%
D18*
%TO.C,D9*%
X537888780Y110270000D03*
X537888780Y113570000D03*
%TD*%
D19*
%TO.C,Drgb1*%
X429398780Y108430000D03*
X429398780Y105130000D03*
X424498780Y105130000D03*
X424498780Y108430000D03*
%TD*%
D23*
%TO.C,Drgb10*%
X662598780Y88440000D03*
X659298780Y88440000D03*
X659298780Y93340000D03*
X662598780Y93340000D03*
%TD*%
D18*
%TO.C,D30*%
X383558780Y72310000D03*
X383558780Y75610000D03*
%TD*%
D19*
%TO.C,Drgb19*%
X448028780Y46130000D03*
X448028780Y49430000D03*
X452928780Y49430000D03*
X452928780Y46130000D03*
%TD*%
D18*
%TO.C,D62*%
X518888780Y34120000D03*
X518888780Y37420000D03*
%TD*%
%TO.C,D35*%
X495026280Y72170000D03*
X495026280Y75470000D03*
%TD*%
D19*
%TO.C,Drgb18*%
X476678780Y45650000D03*
X476678780Y48950000D03*
X481578780Y48950000D03*
X481578780Y45650000D03*
%TD*%
D18*
%TO.C,D3*%
X423588780Y110270000D03*
X423588780Y113570000D03*
%TD*%
D22*
%TO.C,C9*%
X395668780Y89550000D03*
X395668780Y87650000D03*
%TD*%
D18*
%TO.C,D11*%
X575988780Y110270000D03*
X575988780Y113570000D03*
%TD*%
%TO.C,D22*%
X509313780Y91220000D03*
X509313780Y94520000D03*
%TD*%
D24*
%TO.C,U2*%
X388700000Y103621455D03*
X386400000Y103621455D03*
D25*
X386400000Y109921455D03*
D24*
X384100000Y103621455D03*
%TD*%
D18*
%TO.C,D26*%
X585513780Y91220000D03*
X585513780Y94520000D03*
%TD*%
D22*
%TO.C,C10*%
X383638780Y59370000D03*
X383638780Y57470000D03*
%TD*%
D19*
%TO.C,Drgb4*%
X517578780Y108650000D03*
X517578780Y105350000D03*
X512678780Y105350000D03*
X512678780Y108650000D03*
%TD*%
D18*
%TO.C,D59*%
X437876780Y34070000D03*
X437876780Y37370000D03*
%TD*%
D19*
%TO.C,Drgb15*%
X562318780Y45790000D03*
X562318780Y49090000D03*
X567218780Y49090000D03*
X567218780Y45790000D03*
%TD*%
D18*
%TO.C,D24*%
X547413780Y91220000D03*
X547413780Y94520000D03*
%TD*%
%TO.C,D34*%
X475976280Y72170000D03*
X475976280Y75470000D03*
%TD*%
%TO.C,D40*%
X590276280Y72170000D03*
X590276280Y75470000D03*
%TD*%
%TO.C,D46*%
X447401280Y53120000D03*
X447401280Y56420000D03*
%TD*%
%TO.C,D51*%
X542651280Y53120000D03*
X542651280Y56420000D03*
%TD*%
%TO.C,D29*%
X647426780Y91220000D03*
X647426780Y94520000D03*
%TD*%
D22*
%TO.C,C6*%
X415388780Y74020000D03*
X415388780Y72120000D03*
%TD*%
D19*
%TO.C,Drgb31*%
X519528780Y65590000D03*
X519528780Y68890000D03*
X524428780Y68890000D03*
X524428780Y65590000D03*
%TD*%
D18*
%TO.C,D33*%
X456926280Y72170000D03*
X456926280Y75470000D03*
%TD*%
%TO.C,D4*%
X442638780Y110270000D03*
X442638780Y113570000D03*
%TD*%
%TO.C,D52*%
X561701280Y53120000D03*
X561701280Y56420000D03*
%TD*%
%TO.C,D58*%
X414063780Y34070000D03*
X414063780Y37370000D03*
%TD*%
%TO.C,D41*%
X609326280Y72170000D03*
X609326280Y75470000D03*
%TD*%
D26*
%TO.C,U3*%
X408526280Y105470000D03*
X408526280Y104520000D03*
X408526280Y103570000D03*
X406251280Y103570000D03*
X406251280Y104520000D03*
X406251280Y105470000D03*
%TD*%
D19*
%TO.C,Drgb6*%
X572218780Y108660000D03*
X572218780Y105360000D03*
X567318780Y105360000D03*
X567318780Y108660000D03*
%TD*%
D18*
%TO.C,D32*%
X437876280Y72170000D03*
X437876280Y75470000D03*
%TD*%
D19*
%TO.C,Drgb8*%
X627428780Y108560000D03*
X627428780Y105260000D03*
X622528780Y105260000D03*
X622528780Y108560000D03*
%TD*%
%TO.C,Drgb30*%
X551048780Y65750000D03*
X551048780Y69050000D03*
X555948780Y69050000D03*
X555948780Y65750000D03*
%TD*%
D18*
%TO.C,D50*%
X523601280Y53120000D03*
X523601280Y56420000D03*
%TD*%
%TO.C,D25*%
X566463780Y91220000D03*
X566463780Y94520000D03*
%TD*%
D19*
%TO.C,Drgb21*%
X424820000Y50630000D03*
X424820000Y53930000D03*
X429720000Y53930000D03*
X429720000Y50630000D03*
%TD*%
D18*
%TO.C,D19*%
X452163780Y91220000D03*
X452163780Y94520000D03*
%TD*%
D19*
%TO.C,Drgb9*%
X645048780Y106140000D03*
X645048780Y102840000D03*
X640148780Y102840000D03*
X640148780Y106140000D03*
%TD*%
D18*
%TO.C,D68*%
X599801780Y34070000D03*
X599801780Y37370000D03*
%TD*%
%TO.C,D54*%
X599801280Y53120000D03*
X599801280Y56420000D03*
%TD*%
D19*
%TO.C,Drgb5*%
X544118780Y108320000D03*
X544118780Y105020000D03*
X539218780Y105020000D03*
X539218780Y108320000D03*
%TD*%
%TO.C,Drgb28*%
X539018780Y87340000D03*
X539018780Y84040000D03*
X534118780Y84040000D03*
X534118780Y87340000D03*
%TD*%
D18*
%TO.C,D53*%
X580751280Y53120000D03*
X580751280Y56420000D03*
%TD*%
%TO.C,D27*%
X604563780Y91220000D03*
X604563780Y94520000D03*
%TD*%
%TO.C,D23*%
X528363780Y91220000D03*
X528363780Y94520000D03*
%TD*%
%TO.C,D6*%
X480738780Y110270000D03*
X480738780Y113570000D03*
%TD*%
D19*
%TO.C,Drgb12*%
X644930000Y50930000D03*
X644930000Y54230000D03*
X649830000Y54230000D03*
X649830000Y50930000D03*
%TD*%
D18*
%TO.C,D39*%
X571226280Y72170000D03*
X571226280Y75470000D03*
%TD*%
%TO.C,D45*%
X438850000Y53120000D03*
X438850000Y56420000D03*
%TD*%
%TO.C,D31*%
X418826280Y72170000D03*
X418826280Y75470000D03*
%TD*%
%TO.C,D18*%
X433113780Y91220000D03*
X433113780Y94520000D03*
%TD*%
D19*
%TO.C,Drgb27*%
X511218780Y87290000D03*
X511218780Y83990000D03*
X506318780Y83990000D03*
X506318780Y87290000D03*
%TD*%
D18*
%TO.C,D38*%
X552176280Y72170000D03*
X552176280Y75470000D03*
%TD*%
D27*
%TO.C,Ud1*%
X409518780Y76647500D03*
X409018780Y76647500D03*
X408518780Y76647500D03*
X408018780Y76647500D03*
X407518780Y76647500D03*
X407018780Y76647500D03*
X406518780Y76647500D03*
X406018780Y76647500D03*
X405518780Y76647500D03*
X405018780Y76647500D03*
X404518780Y76647500D03*
X404018780Y76647500D03*
D28*
X402606280Y78060000D03*
X402606280Y78560000D03*
X402606280Y79060000D03*
X402606280Y79560000D03*
X402606280Y80060000D03*
X402606280Y80560000D03*
X402606280Y81060000D03*
X402606280Y81560000D03*
X402606280Y82060000D03*
X402606280Y82560000D03*
X402606280Y83060000D03*
X402606280Y83560000D03*
D27*
X404018780Y84972500D03*
X404518780Y84972500D03*
X405018780Y84972500D03*
X405518780Y84972500D03*
X406018780Y84972500D03*
X406518780Y84972500D03*
X407018780Y84972500D03*
X407518780Y84972500D03*
X408018780Y84972500D03*
X408518780Y84972500D03*
X409018780Y84972500D03*
X409518780Y84972500D03*
D28*
X410931280Y83560000D03*
X410931280Y83060000D03*
X410931280Y82560000D03*
X410931280Y82060000D03*
X410931280Y81560000D03*
X410931280Y81060000D03*
X410931280Y80560000D03*
X410931280Y80060000D03*
X410931280Y79560000D03*
X410931280Y79060000D03*
X410931280Y78560000D03*
X410931280Y78060000D03*
%TD*%
D18*
%TO.C,D10*%
X556938780Y110270000D03*
X556938780Y113570000D03*
%TD*%
D19*
%TO.C,Drgb2*%
X457768780Y108690000D03*
X457768780Y105390000D03*
X452868780Y105390000D03*
X452868780Y108690000D03*
%TD*%
D18*
%TO.C,D5*%
X461688780Y110270000D03*
X461688780Y113570000D03*
%TD*%
D19*
%TO.C,Drgb3*%
X488188780Y108590000D03*
X488188780Y105290000D03*
X483288780Y105290000D03*
X483288780Y108590000D03*
%TD*%
D21*
%TO.C,C2*%
X404208780Y68020000D03*
X406108780Y68020000D03*
%TD*%
D23*
%TO.C,Drgb24*%
X381308780Y91710000D03*
X384608780Y91710000D03*
X384608780Y86810000D03*
X381308780Y86810000D03*
%TD*%
D18*
%TO.C,D14*%
X628258780Y111322500D03*
X628258780Y114622500D03*
%TD*%
%TO.C,D21*%
X490263780Y91220000D03*
X490263780Y94520000D03*
%TD*%
D19*
%TO.C,Drgb17*%
X499748780Y45820000D03*
X499748780Y49120000D03*
X504648780Y49120000D03*
X504648780Y45820000D03*
%TD*%
D18*
%TO.C,D28*%
X623613780Y91220000D03*
X623613780Y94520000D03*
%TD*%
%TO.C,D55*%
X625995280Y53120000D03*
X625995280Y56420000D03*
%TD*%
%TO.C,D36*%
X514076280Y72170000D03*
X514076280Y75470000D03*
%TD*%
D19*
%TO.C,Drgb14*%
X591658780Y45830000D03*
X591658780Y49130000D03*
X596558780Y49130000D03*
X596558780Y45830000D03*
%TD*%
D18*
%TO.C,D70*%
X647426780Y34070000D03*
X647426780Y37370000D03*
%TD*%
%TO.C,D17*%
X414063780Y91220000D03*
X414063780Y94520000D03*
%TD*%
%TO.C,D69*%
X623613780Y34070000D03*
X623613780Y37370000D03*
%TD*%
%TO.C,D48*%
X485501280Y53120000D03*
X485501280Y56420000D03*
%TD*%
%TO.C,D2*%
X404538780Y110270000D03*
X404538780Y113570000D03*
%TD*%
%TO.C,D56*%
X652188780Y53120000D03*
X652188780Y56420000D03*
%TD*%
D19*
%TO.C,Drgb16*%
X536788780Y45770000D03*
X536788780Y49070000D03*
X541688780Y49070000D03*
X541688780Y45770000D03*
%TD*%
D23*
%TO.C,Drgb23*%
X381308780Y68810000D03*
X384608780Y68810000D03*
X384608780Y63910000D03*
X381308780Y63910000D03*
%TD*%
D18*
%TO.C,D43*%
X640356880Y72170000D03*
X640356880Y75470000D03*
%TD*%
%TO.C,D20*%
X471213780Y91220000D03*
X471213780Y94520000D03*
%TD*%
%TO.C,D49*%
X504551280Y53120000D03*
X504551280Y56420000D03*
%TD*%
D19*
%TO.C,Drgb20*%
X402608780Y108660000D03*
X402608780Y105360000D03*
X397708780Y105360000D03*
X397708780Y108660000D03*
%TD*%
%TO.C,Drgb25*%
X449658780Y87340000D03*
X449658780Y84040000D03*
X444758780Y84040000D03*
X444758780Y87340000D03*
%TD*%
D22*
%TO.C,C4*%
X393678780Y89550000D03*
X393678780Y87650000D03*
%TD*%
%TO.C,C3*%
X397838780Y86820000D03*
X397838780Y84920000D03*
%TD*%
D29*
%TO.C,C5*%
X383208780Y97020000D03*
X383208780Y98920000D03*
%TD*%
D18*
%TO.C,D47*%
X466451280Y53120000D03*
X466451280Y56420000D03*
%TD*%
D19*
%TO.C,Drgb13*%
X618650000Y50710000D03*
X618650000Y54010000D03*
X623550000Y54010000D03*
X623550000Y50710000D03*
%TD*%
D22*
%TO.C,C8*%
X399818780Y86820000D03*
X399818780Y84920000D03*
%TD*%
D30*
%TO.C,R2*%
X395998780Y85840000D03*
X394173780Y85840000D03*
%TD*%
D18*
%TO.C,D12*%
X595038780Y110270000D03*
X595038780Y113570000D03*
%TD*%
D23*
%TO.C,Drgb11*%
X663618780Y65260000D03*
X660318780Y65260000D03*
X660318780Y70160000D03*
X663618780Y70160000D03*
%TD*%
D31*
%TO.C,*%
X392527000Y47010000D03*
%TD*%
%TO.C,*%
X622827000Y46970188D03*
%TD*%
D32*
%TO.C,*%
X397827000Y47660000D03*
%TD*%
D33*
%TO.C,J2*%
X380988780Y97070000D03*
D34*
X380988780Y99070000D03*
X380988780Y101070000D03*
X380988780Y103070000D03*
X380988780Y105070000D03*
%TD*%
D31*
%TO.C,*%
X631627000Y47410000D03*
%TD*%
D35*
%TO.C,SWb\u00F4trst1*%
X381153780Y57170000D03*
D36*
X381153780Y59670000D03*
%TD*%
D31*
%TO.C,*%
X416627000Y47010000D03*
%TD*%
%TO.C,*%
X655327000Y47510000D03*
%TD*%
%TO.C,*%
X647027000Y47010000D03*
%TD*%
D32*
%TO.C,*%
X423027000Y47010000D03*
%TD*%
D35*
%TO.C,SWb\u00F4t1*%
X381088780Y51470000D03*
D36*
X381088780Y53970000D03*
%TD*%
D37*
%TO.C,J1*%
X412630000Y108520000D03*
X412630000Y108020000D03*
X412630000Y107520000D03*
X412630000Y107020000D03*
X412630000Y106520000D03*
D38*
X414330000Y110190000D03*
X414330000Y104850000D03*
%TD*%
M02*
