M48
; DRILL file {KiCad 8.99.0-2194-gb3b7cbcab2} date 2024-09-18T03:27:00+0700
; FORMAT={-:-/ absolute / inch / decimal}
; #@! TF.CreationDate,2024-09-18T03:27:00+07:00
; #@! TF.GenerationSoftware,Kicad,Pcbnew,8.99.0-2194-gb3b7cbcab2
; #@! TF.FileFunction,NonPlated,1,2,NPTH
FMAT,2
INCH
; #@! TA.AperFunction,NonPlated,NPTH,ComponentDrill
T1C0.0689
; #@! TA.AperFunction,NonPlated,NPTH,ComponentDrill
T2C0.1200
; #@! TA.AperFunction,NonPlated,NPTH,ComponentDrill
T3C0.1570
; #@! TA.AperFunction,NonPlated,NPTH,ComponentDrill
T4C0.1575
%
G90
G05
T1
X15.1002Y4.489
X15.194Y2.989
X15.2878Y3.739
X15.2878Y1.489
X15.3815Y2.989
X15.5002Y4.489
X15.5719Y2.239
X15.594Y2.989
X15.6878Y3.739
X15.6878Y1.489
X15.7815Y2.989
X15.8502Y4.489
X15.9719Y2.239
X16.2252Y3.739
X16.2252Y1.489
X16.2502Y4.489
X16.4127Y2.989
X16.6002Y4.489
X16.6252Y3.739
X16.6252Y1.489
X16.7877Y2.239
X16.8127Y2.989
X16.9752Y3.739
X17.0002Y4.489
X17.1627Y2.989
X17.1628Y1.489
X17.1877Y2.239
X17.3502Y4.489
X17.3752Y3.739
X17.5377Y2.239
X17.5627Y2.989
X17.5628Y1.489
X17.7252Y3.739
X17.7502Y4.489
X17.9127Y2.989
X17.9377Y2.239
X18.1002Y4.489
X18.1252Y3.739
X18.2877Y2.239
X18.3127Y2.989
X18.4752Y3.739
X18.5002Y4.489
X18.6627Y2.989
X18.6877Y2.239
X18.8502Y4.489
X18.8752Y3.739
X19.0377Y2.239
X19.0627Y2.989
X19.2252Y3.739
X19.2502Y4.489
X19.4127Y2.989
X19.4377Y2.239
X19.6002Y4.489
X19.6252Y3.739
X19.7877Y2.239
X19.8127Y2.989
X19.9752Y3.739
X20.0002Y4.489
X20.1627Y2.989
X20.1877Y2.239
X20.3502Y4.489
X20.3502Y1.489
X20.3752Y3.739
X20.5377Y2.239
X20.5627Y2.989
X20.7252Y3.739
X20.7502Y4.489
X20.7502Y1.489
X20.9127Y2.989
X20.9377Y2.239
X21.1002Y4.489
X21.1252Y3.739
X21.2877Y2.239
X21.3127Y2.989
X21.4752Y3.739
X21.5002Y4.489
X21.6627Y2.989
X21.6877Y2.239
X21.8502Y4.489
X21.8752Y3.739
X22.0377Y2.239
X22.0627Y2.989
X22.2252Y3.739
X22.2502Y4.489
X22.4127Y2.989
X22.4377Y2.239
X22.6002Y4.489
X22.6252Y3.739
X22.7877Y2.239
X22.8127Y2.989
X22.9752Y3.739
X23.0002Y4.489
X23.1627Y2.989
X23.1877Y2.239
X23.3502Y4.489
X23.3752Y3.739
X23.5377Y2.239
X23.5378Y1.489
X23.5627Y2.989
X23.7252Y3.739
X23.7502Y4.489
X23.9127Y2.989
X23.9377Y2.239
X23.9378Y1.489
X24.1002Y4.489
X24.1252Y3.739
X24.3127Y2.989
X24.4752Y3.739
X24.4752Y1.489
X24.5002Y4.489
X24.569Y2.239
X24.8502Y4.489
X24.8752Y3.739
X24.8752Y1.489
X24.969Y2.239
X25.1344Y2.989
X25.2252Y4.489
X25.2502Y4.489
X25.4128Y3.739
X25.4128Y1.489
X25.5344Y2.989
X25.6002Y4.489
X25.6002Y2.239
X25.6252Y4.489
X25.8128Y3.739
X25.8128Y1.489
X26.0002Y4.489
X26.0002Y2.239
T2
X15.3019Y2.514
X16.2419Y2.514
X18.3002Y1.214
X22.8002Y1.214
X24.8644Y3.264
X24.9552Y4.764
X25.8044Y3.264
X25.8952Y4.764
T3
X15.3002Y4.489
X15.3019Y1.914
X15.394Y2.989
X15.4878Y3.739
X15.4878Y1.489
X15.5815Y2.989
X15.7719Y2.239
X16.0502Y4.489
X16.2419Y1.914
X16.4252Y3.739
X16.4252Y1.489
X16.6127Y2.989
X16.8002Y4.489
X16.9877Y2.239
X17.1752Y3.739
X17.3627Y2.989
X17.3628Y1.489
X17.5502Y4.489
X17.7377Y2.239
X17.9252Y3.739
X18.1127Y2.989
X18.3002Y4.489
X18.3002Y1.814
X18.4877Y2.239
X18.6752Y3.739
X18.8627Y2.989
X19.0502Y4.489
X19.2377Y2.239
X19.4252Y3.739
X19.6127Y2.989
X19.8002Y4.489
X19.9877Y2.239
X20.1752Y3.739
X20.3627Y2.989
X20.5502Y4.489
X20.5502Y1.489
X20.7377Y2.239
X20.9252Y3.739
X21.1127Y2.989
X21.3002Y4.489
X21.4877Y2.239
X21.6752Y3.739
X21.8627Y2.989
X22.0502Y4.489
X22.2377Y2.239
X22.4252Y3.739
X22.6127Y2.989
X22.8002Y4.489
X22.8002Y1.814
X22.9877Y2.239
X23.1752Y3.739
X23.3627Y2.989
X23.5502Y4.489
X23.7377Y2.239
X23.7378Y1.489
X23.9252Y3.739
X24.1127Y2.989
X24.3002Y4.489
X24.6752Y3.739
X24.6752Y1.489
X24.769Y2.239
X24.8644Y2.664
X24.9552Y4.164
X25.0502Y4.489
X25.3344Y2.989
X25.4252Y4.489
X25.6128Y3.739
X25.6128Y1.489
X25.8002Y4.489
X25.8002Y2.239
X25.8044Y2.664
X25.8952Y4.164
T4
X15.4878Y3.739
X15.4878Y1.489
X17.3628Y1.489
X23.7378Y1.489
X25.6128Y3.739
X25.6128Y1.489
M30
